<?xml version="1.0" encoding="UTF-8"?>
<svg width="210" height="210" version="1.1" xmlns="http://www.w3.org/2000/svg">
	<defs>
		<linearGradient id="linearGradient2065" x1="67.329" x2="123.86" y1="153.66" y2="153.66" gradientTransform="matrix(2.2918 0 0 2.2918 -113.88 -218.18)" gradientUnits="userSpaceOnUse">
			<stop stop-color="#0f0" offset="0"/>
			<stop stop-color="#00f" offset=".2485"/>
			<stop stop-color="#f80" offset=".74849"/>
			<stop stop-color="#f00" offset="1"/>
		</linearGradient>
	</defs>
	<g>
		<path d="m59.663 0.0031716c-1.7276 0.041111-3.586 0.6714-4.74 2.1127-1.0342 1.2917-1.7681 2.9716-2.0585 4.7148-0.29041 1.7432-0.13863 3.5809 0.79903 5.0921l26.59 42.853c-2.4444 1.298-5.1974 3.0324-7.5105 5.4113-2.3952 2.4634-4.2107 5.6002-4.4943 9.2942-12.753 0.29072-25.007 2.6808-34.054 12.475-9.2541 10.018-15.027 27.512-15.027 57.747 0 15.483 0.72339 27.597 2.9949 37.127 2.2715 9.5298 6.135 16.51 12.365 21.463 12.459 9.9078 33.86 11.684 70.473 11.707 36.612-0.0227 58.012-1.8009 70.471-11.709 6.2296-4.9539 10.095-11.932 12.367-21.461 2.2716-9.5297 2.9949-21.644 2.9949-37.127 0-30.234-5.7729-47.729-15.027-57.747-9.0474-9.7937-21.301-12.183-34.054-12.475-0.28364-3.694-2.0991-6.8309-4.4943-9.2942-2.3138-2.3796-5.0676-4.1149-7.5124-5.4133l26.592-42.851c0.93765-1.5112 1.0894-3.3489 0.79903-5.0921-0.29041-1.7432-1.0243-3.4232-2.0585-4.7148-1.3197-1.6482-3.543-2.2554-5.479-2.0895-2.4843 0.21292-5.0357 1.563-6.3922 3.7494l-28.695 46.247c-3.1072-0.47331-6.295-0.76363-9.5128-0.7642-3.2178 5.68e-4 -6.4055 0.2909-9.5129 0.7642l-28.697-46.247c-1.3563-2.1857-3.9067-3.5359-6.3903-3.7494h-2e-3c-0.22518-0.019339-0.45399-0.024911-0.68294-0.021282v-0.001935h-0.0039v0.001935c-0.01427 2.342e-4 -0.02828-0.002256-0.04256-0.001935-0.0013 2.912e-5 -0.0026-2.983e-5 -0.0039 0z" fill="#e6e6e6"/>
		<path d="m59.69 0.99348c-1.4856 0.034629-3.0956 0.61923-3.9946 1.7421-1.8222 2.2759-2.7274 6.1881-1.1903 8.6655l27.126 43.716c-5.1358 2.5608-12.505 7.7018-12.505 15.299-25.92 0.39744-48.969 9.071-48.969 69.287 0 61.807 11.684 69.261 84.842 69.306 73.158-0.0454 84.842-7.4996 84.842-69.306 0-60.216-23.047-68.887-48.969-69.287 0-7.5974-7.3694-12.738-12.505-15.299l27.126-43.716c1.5372-2.4774 0.63202-6.3896-1.1903-8.6655-1.0275-1.2833-2.9832-1.8635-4.621-1.7232-2.1665 0.18568-4.4884 1.4388-5.6348 3.2865l-29.014 46.756c-3.2608-0.5344-6.6404-0.80593-10.037-0.80653-3.3968 5.99e-4 -6.7763 0.27214-10.037 0.80653l-29.014-46.756c-1.1465-1.8476-3.4684-3.1008-5.6348-3.2865-0.20475-0.017647-0.41425-0.023903-0.62649-0.019022z"/>
		<path d="m77.042 81.477c-22.061 0-42.077 5.8209-42.077 53.499 0 47.711 9.6441 53.465 70.032 53.499 60.388-0.0348 70.032-5.7894 70.032-53.499 0-47.682-20.015-53.499-42.077-53.499h-27.959z" fill="#fff"/>
		<path d="m79.334 84.423c-20.407 0-38.921 5.3918-38.921 49.557 0 44.196 8.9212 49.527 64.784 49.557 55.862-0.0322 64.784-5.3627 64.784-49.557 0-44.166-18.515-49.557-38.921-49.557h-25.863z" fill="url(#linearGradient2065)"/>
		<path d="m155.59 150.46-40.474-20.625 40.535-20.517z" fill="#fff"/>
		<path d="m54.422 150.46 40.474-20.625-40.535-20.517z" fill="#fff"/>
	</g>
</svg>
