<?xml version="1.0" encoding="UTF-8"?>
<svg width="800" height="371.65" version="1.1" xmlns="http://www.w3.org/2000/svg">
 <path d="m49.129 370.71c0-0.65628-11.054-83.971-24.565-185.14l-24.565-184.76c0-0.58442 71.475-0.8066 259.58-0.8066h259.58v2.0165c7.3e-4 1.1094 1.6499 22.419 3.6664 47.356l3.6664 46.333c0 0.71567-1.3441 0.38423-4.8029-1.1842-16.081-7.2917-40.042-9.0823-58.468-4.3703-22.165 5.6682-38.621 20.073-45.986 40.257-2.576 7.0585-4.3996 16.724-4.3996 23.314v4.6643h26.031l26.031-0.23171c0-0.12759 0.36663-2.1764 0.79927-4.5463 2.0818-11.269 9.0478-17.953 18.706-17.953 5.6359 0 9.2612 1.2099 12.863 4.2933 3.9641 3.3936 5.7291 7.3782 5.7291 12.939 0 5.2114-1.6323 9.251-5.1652 12.784-3.813 3.813-8.0645 5.3507-15.875 5.7591l-6.7923 0.35491v39.397l5.3162 6e-3c14.872 0.0147 24.54 4.5111 28.26 13.14 1.8955 4.3974 1.5281 11.56-0.8418 16.403-2.6082 5.3309-6.1866 8.2508-12.462 10.168-15.413 4.7076-29.8-4.7736-32.458-21.393l-0.46783-2.9331h-54.199l0.47664 5.6829c1.2378 14.756 4.6101 26.09 10.718 36.013 11.958 19.432 31.971 30.727 58.75 33.171 22.357 2.04 45.338-3.846 61.863-15.846l1.5252-1.1072 1.6806 20.962c0.94813 11.828 1.402 21.2 1.0412 21.51-0.35196 0.30065-110.69 10.351-245.19 22.332l-247.3 22.2c-2.2174 0.32851-2.7498 0.17599-2.7498-0.78606zm155.45-174.92v-101.19h-87.993v48.396h32.997v153.99h54.995zm184.78 76.994v-24.198h-75.86l4.4363-2.6251c6.0803-3.5974 25.623-17.608 33.704-24.165 7.9545-6.4528 18.874-17.367 23.454-23.44 4.1797-5.5325 10.244-17.689 11.719-23.465 1.8537-7.255 2.5591-17.572 1.7452-25.552-3.1971-31.387-26.165-54.442-60.062-60.29-10.462-1.8039-28.724-1.1586-38.218 1.3507-32.001 8.462-52.35 34.482-54.678 69.92l-0.4517 6.8722h54.294l0.50082-4.583c0.65995-6.0495 2.3465-11.344 4.7567-14.883 6.6581-9.8038 23.594-11.146 32.182-2.5664 4.4143 4.4143 5.6352 7.6752 5.6411 15.066 5e-3 6.1507-0.16866 6.9236-2.5613 11.366-1.6352 3.0357-4.8469 7.0291-8.8455 10.999-3.4537 3.428-24.139 20.587-45.976 38.13l-39.69 31.897-0.0777 44.364h153.99zm217.42 26.03c-15.485-3.2154-26.889-14.085-31.592-30.112-1.0874-3.706-1.3214-8.5045-1.578-32.398l-0.30064-28.048h-16.759v-36.664h16.865v-35.93h45.463v35.93h29.331v36.664h-29.331l4e-3 19.615c4e-3 20.757 0.36517 23.699 3.3437 27.239 3.9993 4.7531 14.668 5.908 22.499 2.4345l3.483-1.5443v38.01l-2.2423 1.16c-7.6004 3.9304-28.463 5.8698-39.188 3.6429zm99.765-4.2038-49.5-123.02 47.993 0.0132 12.099 34.783c6.6544 19.131 12.312 34.554 12.573 34.273s5.8383-15.934 12.394-34.789l11.92-34.28h22.986c12.642 0 22.986 0.25958 22.986 0.57782s-11.197 28.448-24.881 62.511l-24.881 61.934-42.695 0.38862z" fill="#fe4741" stroke-width=".73327"/>
</svg>
