<svg xmlns="http://www.w3.org/2000/svg" width="1091" height="506.835"><path d="M67 505.55c0-.895-15.075-114.515-33.5-252.49L0 1.1C0 .303 97.474 0 354 0h354v2.75c.001 1.513 2.25 30.574 5 64.582l5 63.187c0 .976-1.833.524-6.55-1.615-21.93-9.944-54.607-12.386-79.736-5.96-30.228 7.73-52.67 27.375-62.713 54.9-3.513 9.626-6 22.807-6 31.795V216h35.5l35.5-.316c0-.174.5-2.968 1.09-6.2C637.93 194.116 647.43 185 660.602 185c7.686 0 12.63 1.65 17.542 5.855 5.406 4.628 7.813 10.062 7.813 17.645 0 7.107-2.226 12.616-7.044 17.434-5.2 5.2-10.998 7.297-21.65 7.854l-9.263.484V288l7.25.008c20.282.02 33.467 6.152 38.54 17.92 2.585 5.997 2.084 15.765-1.148 22.37-3.557 7.27-8.437 11.252-16.995 13.866-21.02 6.42-40.64-6.51-44.265-29.175l-.638-4H556.83l.65 7.75c1.688 20.124 6.287 35.58 14.616 49.113 16.308 26.5 43.6 41.904 80.12 45.237 30.49 2.782 61.83-5.245 84.365-21.61l2.08-1.51 2.292 28.587c1.293 16.13 1.912 28.912 1.42 29.334-.48.41-150.948 14.116-334.373 30.455L70.75 506.62c-3.024.448-3.75.24-3.75-1.072zM279 267V129H159v66h45v210h75zm252 105v-33H427.546l6.05-3.58c8.292-4.906 34.943-24.013 45.964-32.955 10.848-8.8 25.74-23.684 31.986-31.966 5.7-7.545 13.97-24.123 15.982-32 2.528-9.894 3.49-23.964 2.38-34.847-4.36-42.804-35.682-74.245-81.91-82.22-14.267-2.46-39.172-1.58-52.12 1.842-43.642 11.54-71.393 47.025-74.567 95.353l-.616 9.372h74.043l.683-6.25c.9-8.25 3.2-15.47 6.487-20.297 9.08-13.37 32.177-15.2 43.888-3.5 6.02 6.02 7.685 10.467 7.693 20.546.007 8.388-.23 9.442-3.493 15.5-2.23 4.14-6.61 9.586-12.063 15-4.71 4.675-32.92 28.075-62.7 52l-54.127 43.5L321 405h210zm296.5 35.498c-21.118-4.385-36.67-19.208-43.083-41.065-1.483-5.054-1.802-11.598-2.152-44.183l-.41-38.25H759v-50h23v-49h62v49h40v50h-40l.006 26.75c.006 28.308.498 32.32 4.56 37.147 5.454 6.482 20.003 8.057 30.683 3.32l4.75-2.106v51.836l-3.058 1.582c-10.365 5.36-38.817 8.005-53.442 4.968zm136.055-5.733L896.05 234l65.45.018 16.5 47.435c9.075 26.09 16.79 47.123 17.147 46.74s7.962-21.73 16.903-47.443l16.256-46.75h31.347c17.24 0 31.347.354 31.347.788s-15.27 38.796-33.932 85.25l-33.932 84.462-58.225.53-1.356-3.265z" fill="#fe4741"/></svg>