<svg xmlns="http://www.w3.org/2000/svg" width="881.091" height="500"><path d="M49.34 372.304c0-.66-11.102-84.333-24.67-185.942L0 .8C0 .223 71.783 0 260.698 0h260.698l.001 2.025c.001 1.114 1.658 22.516 3.682 47.56l3.68 46.533c0 .72-1.35.386-4.824-1.2-16.15-7.323-40.214-9.122-58.72-4.4-22.26 5.693-38.8 20.16-46.184 40.423-2.587 7.1-4.42 16.796-4.42 23.415v4.7h26.143l26.143-.233c0-.128.36-2.186.802-4.573 2.1-11.3 9.1-18.023 18.788-18.023 5.66 0 9.3 1.215 12.918 4.312 3.98 3.408 5.754 7.4 5.754 12.995 0 5.234-1.64 9.3-5.187 12.84-3.822 3.822-8.1 5.374-15.943 5.784l-6.82.357v39.567l5.34.006c14.936.016 24.646 4.53 28.383 13.197 1.904 4.416 1.535 11.6-.846 16.475-2.62 5.355-6.213 8.286-12.516 10.2-15.48 4.728-29.93-4.795-32.598-21.485l-.47-2.938H410.07l.48 5.707c1.243 14.82 4.63 26.202 10.764 36.17 12 19.515 32.102 30.86 59.003 33.314 22.454 2.05 45.535-3.863 62.13-15.913l1.532-1.113 1.688 21.052c.952 11.878 1.408 21.292 1.045 21.603-.353.303-111.163 10.395-246.244 22.428l-248.365 22.28c-2.227.33-2.762.177-2.762-.8zm156.124-175.676V95h-88.372v48.605h33.14v154.65h55.233zm185.582 77.326v-24.302H314.86l4.455-2.636c6.107-3.613 25.733-17.684 33.85-24.27 8-6.48 18.956-17.442 23.555-23.54 4.2-5.556 10.288-17.765 11.77-23.566 1.862-7.286 2.57-17.648 1.753-25.663-3.2-31.522-26.278-54.677-60.32-60.55-10.507-1.813-28.848-1.164-38.382 1.357-32.14 8.498-52.576 34.63-54.914 70.222l-.453 6.902h54.528l.503-4.603c.664-6.075 2.364-11.393 4.778-14.948 6.686-9.845 23.696-11.2 32.32-2.577 4.433 4.433 5.66 7.708 5.665 15.13.005 6.177-.17 6.954-2.572 11.415-1.642 3.05-4.867 7.06-8.883 11.047-3.468 3.443-24.243 20.675-46.167 38.295l-39.86 32.035-.1 44.554h154.65zM609.4 300.096c-15.552-3.23-27.004-14.145-31.728-30.242-1.092-3.722-1.327-8.54-1.585-32.538l-.303-28.17h-16.83v-36.822h16.938V136.24h45.66v36.085h29.457v36.822h-29.457l.004 19.7c.004 20.847.367 23.8 3.36 27.356 4.017 4.773 14.73 5.933 22.596 2.446L651 257.1v38.174l-2.252 1.165c-7.633 3.947-28.587 5.895-39.356 3.66zm100.195-4.222l-49.713-123.548 48.2.014 12.15 34.933c6.683 19.213 12.366 34.703 12.627 34.422s5.864-16.003 12.448-34.94l11.972-34.428h23.085c12.697 0 23.085.26 23.085.58s-11.245 28.57-25 62.78l-25 62.2-42.88.4-1-2.405z" fill="#fe4741"/><path d="M567.02 500l30.133-151.12h36.704l-12.235 61.173h55.508l12.235-61.173h36.477L695.7 500h-36.477l12.008-60.04h-55.508L603.725 500zm160.862 0l30.133-151.12h60.72q38.516 0 52.8 19.258 14.5 19.03 7.024 56.415-7.477 37.157-29.453 56.415Q827.118 500 788.602 500zm42.368-28.32h19.7q20.4 0 33.078-11.328 12.914-11.328 17.9-35.797 4.758-24.696-3.625-36.024-8.156-11.328-28.547-11.328h-19.7z" fill="#fff"/></svg>