<?xml version="1.0" encoding="UTF-8"?>
<svg width="800" height="281.44" version="1.1" xmlns="http://www.w3.org/2000/svg">
 <path d="m37.206 280.74c0-0.49769-8.3717-63.593-18.603-140.21l-18.603-139.93c0-0.4351 54.129-0.60325 196.58-0.60325h196.58l7.5e-4 1.527c7.5e-4 0.84003 1.2502 16.979 2.7765 35.863l2.775 35.089c0 0.54293-1.018 0.29107-3.6376-0.90488-12.178-5.522-30.324-6.8786-44.279-3.3179-16.786 4.2929-29.258 15.202-34.826 30.482-1.9508 5.3539-3.333 12.665-3.333 17.657v3.5441h19.714l19.714-0.1757c0-0.0965 0.27146-1.6484 0.60476-3.4484 1.5835-8.521 6.862-13.591 14.167-13.591 4.268 0 7.0128 0.91619 9.741 3.2515 3.0012 2.5699 4.3389 5.5801 4.3389 9.7991 0 3.9468-1.2367 7.0128-3.9114 9.6822-2.882 2.882-6.108 4.0524-12.022 4.3615l-5.1427 0.2692v29.836l4.0267 5e-3c11.263 0.0121 18.585 3.4159 21.403 9.9514 1.4357 3.33 1.1575 8.7472-0.63795 12.423-1.9756 4.038-4.685 6.2482-9.4379 7.6915-11.673 3.5652-22.569-3.6158-24.581-16.201l-0.35442-2.2154h-41.045l0.36195 4.3035c0.93731 11.175 3.4913 19.758 8.1168 27.275 9.0488 14.716 24.207 23.271 44.492 25.121 16.932 1.5458 34.336-2.913 46.85-11.999l1.1552-0.83928 1.2729 15.875c0.71788 8.9568 1.0617 16.056 0.788 16.29-0.26618 0.22848-83.824 7.8385-185.68 16.912l-187.28 16.8c-1.6793 0.24884-2.0827 0.13347-2.0827-0.60326zm117.73-132.47v-76.634h-66.639v36.651h24.99v116.62h41.649zm139.94 58.309v-18.325h-57.449l3.3594-1.9877c4.6051-2.7244 19.404-13.335 25.525-18.301 6.0326-4.8864 14.294-13.152 17.762-17.751 3.1671-4.1896 7.7579-13.396 8.8754-17.77 1.4041-5.4941 1.938-13.308 1.3219-19.352-2.413-23.77-19.815-41.23-45.485-45.659-7.923-1.3671-21.753-0.87774-28.943 1.0233-24.236 6.4081-39.646 26.113-41.409 52.952l-0.34159 5.2046h41.118l0.3793-3.471c0.5007-4.581 1.7826-8.5911 3.6029-11.272 5.0417-7.4238 17.868-8.4456 24.371-1.9432 3.3428 3.3428 4.268 5.8124 4.2718 11.409 4e-3 4.6579-0.12819 5.2438-1.9395 8.6077-1.2382 2.2999-3.67 5.3237-6.6984 8.3302-2.6151 2.5963-18.281 15.59-34.813 28.877l-30.057 24.157-0.0754 33.597h116.62zm164.65 19.713c-11.727-2.4356-20.363-10.666-23.925-22.805-0.82344-2.8066-1.0006-6.4397-1.1952-24.536l-0.22848-21.242h-12.691v-27.766h12.772v-27.21h34.431v27.211h22.213v27.766h-22.213l3e-3 14.855c3e-3 15.72 0.27674 17.947 2.5337 20.628 3.0291 3.5992 11.107 4.4739 17.039 1.8444l2.6302-1.168v28.786l-1.6982 0.87849c-5.7558 2.9763-21.557 4.4452-29.677 2.7599zm38.067-96.347 36.346 0.0106 18.684 52.298 18.414-52.308 34.815 0.43736-37.703 94.243-32.334 0.30163z" fill="#fe4741" stroke-width=".75407"/>
 <path d="m617.39 129.95v94.982h26.409v-36.416h29.725v36.416h26.407v-94.982h-26.407v34.921h-29.725v-34.921zm99.459 0v94.982h33.904c15.309 0 27.344-4.0307 36.104-12.093 8.7602-8.153 13.14-20.112 13.14-35.874 0-9.5118-2.0415-17.801-6.1239-24.867-3.9973-7.1565-9.6953-12.636-17.095-16.441-7.3142-3.8047-15.905-5.7071-25.771-5.7071zm26.407 23.643h9.7926c6.2087 0 11.1 2.2196 14.672 6.6585 3.5721 4.4388 5.358 10.01 5.358 16.713 0 7.5188-1.7859 13.453-5.358 17.802-3.487 4.3483-8.506 6.5215-15.055 6.5215h-9.4096z" fill="#edebe1" stroke-width="1.975"/>
</svg>
