<?xml version="1.0" encoding="UTF-8"?>
<svg width="455.32" height="450" version="1.1" viewBox="0 0 455.32 450" xmlns="http://www.w3.org/2000/svg" xmlns:cc="http://creativecommons.org/ns#" xmlns:dc="http://purl.org/dc/elements/1.1/" xmlns:rdf="http://www.w3.org/1999/02/22-rdf-syntax-ns#">
 <title>13th_street_logo_uk_master_rgb_green</title>
 <path d="m427.95 231.45-8.7662-8.7716 18.331-18.352-9.0438-9.0438-45.569 45.596 9.0465 9.0545 19.74-19.751 8.7636 8.7742-19.74 19.748 9.0465 9.0518 45.566-45.598-9.0438-9.0545zm-12.912-34.614 7.4929-7.4983-24.443-24.467-7.5009 7.5009 7.7385 7.7438-38.071 38.1 8.9771 8.9824 38.065-38.1zm-54.634-40.793c0.72074-7.266 1.3774-32.678-20.632-54.722-14.062-14.092-32.748-21.857-52.581-21.854-19.182 0.0053-37.139 7.3942-50.561 20.816l-21.387 21.363 37.555 37.638 21.045-21.056c2.939-2.931 8.2057-6.0595 14.209-6.0595 4.9197-3e-3 9.4496 2.0447 13.488 6.0862 8.4059 8.4139 8.3978 19.294-0.016 27.716l-29.742 29.723c-6.9377 6.927-12.228 10.024-17.129 10.024-6.9244 0-14.5-6.2036-24.467-16.216l-2.3144-2.3144-33.706 33.72 2.3063 2.3117c10.782 10.808 15.402 17.546 15.952 23.261 0.52854 5.5042-2.8028 11.286-11.481 19.964l-32.988 32.937c-5.3681 5.3654-11.182 8.1976-16.788 8.2083-4.7728 0-9.2067-2.0127-13.173-5.9714-3.8653-3.8732-5.91-8.4726-5.902-13.272 0.0107-5.4909 2.688-11.19 7.5677-16.04l19.422-19.414-37.553-37.636-21.037 21.051c-16.926 16.894-24.74 36.712-22.596 57.293 1.6951 16.339 9.7806 32.836 22.182 45.249 14.644 14.679 31.499 22.118 50.104 22.102 4.7034 0 9.5937-0.48315 14.516-1.4281 17.783-3.4008 26.961-8.6808 57.637-39.328 30.941-30.906 40.414-40.369 34.344-70.952 6.9484 1.5536 11.916 2.2049 16.465 2.2049 16.401-0.0107 27.3-9.2761 50.056-32.011 29.74-29.694 35.5-43.57 37.203-63.392zm-324.17 113.74 233.34-233.52-36.234-36.263-233.34 233.52zm148.37 148.49c15.648 15.653 31.976-3.7878 42.432 6.6654 2.8562 2.8696 5.4589 6.588 1.8979 10.181-4.0121 3.9827-7.6424 1.3294-10.944-1.978a62.949 62.949 0 0 0-3.0244-3.294l-0.14148 0.016-9.6044 9.6044c0.49917 0.63531 1.0597 1.1932 1.6096 1.7618 9.3428 9.3321 18.301 12.826 28.677 2.4291 10.176-10.168 10.798-19.639 0.4965-29.948-15.418-15.293-33.725 3.1605-42.699-5.8139-2.3944-2.3918-4.0708-5.3334-1.1452-8.2777 4.6234-4.634 8.4325 0.56857 11.796 3.633l9.4656-9.4683-0.985-0.97966c-8.3471-8.4913-16.908-11.155-26.088-1.97-8.6168 8.6381-10.942 18.259-1.7431 27.438zm84.947-10.197-40.537-40.561 8.0668-8.0668-8.9718-8.9824-26.232 26.245 8.9744 8.9824 8.1416-8.1416 40.532 40.561zm23.023-23.05-19.972-19.996 3.7291-3.7238c4.4151-4.4205 8.6915-0.86488 12.271 2.4452 2.018 1.8926 3.9213 3.924 5.9634 5.8192 2.3731 2.0901 5.0638 4.2016 8.2644 5.1866l10.595-10.589c-4.0788-1.3988-7.5063-3.8572-10.739-6.6681-5.3868-4.7034-12.471-14.036-20.61-9.6631 3.9774-7.517-1.6123-13.267-6.6681-18.323-8.4299-8.2751-16.876-9.4603-25.682-0.6887l-16.868 16.884 49.504 49.549zm-23.341-33.052-4.8369 4.8422-12.909-12.909 4.4952-4.4952c4.8529-4.8422 8.3525-0.76076 12.06 2.9523 3.238 3.2273 5.0665 5.7498 1.1906 9.6098zm52.112-94.808-23.28 23.296 49.496 49.544 23.282-23.304-9.0465-9.0518-13.187 13.203-11.994-12.002 11.857-11.86-8.7636-8.7716-11.852 11.863-10.736-10.736 13.189-13.205zm-2.309 83.287-11.985-12.002 11.849-11.86-8.7636-8.7716-11.857 11.86-10.734-10.744 13.189-13.197-8.9638-8.9798-23.285 23.301 49.501 49.546 23.288-23.306-9.0492-9.0492zm24.937-87.983 40.532 40.558 10.024-10.026-40.529-40.564 8.0642-8.0722-8.9851-8.9744-26.221 26.24 8.9771 8.9878z" fill="#a1c93c" fill-rule="evenodd" stroke-width="2.6694"/>
 <metadata>
  <rdf:RDF>
   <cc:Work rdf:about="">
    <dc:title>13th_street_logo_uk_master_rgb_green</dc:title>
   </cc:Work>
  </rdf:RDF>
 </metadata>
</svg>
