<?xml version="1.0" encoding="UTF-8"?>
<svg width="800" height="199.32" version="1.1" xmlns="http://www.w3.org/2000/svg">
	<path d="m277.09 125.77h38.466v24.508h-69.622v-108.09h31.155zm79.366 24.508h-31.158v-108.09h31.158zm6.8208-108.09h33.433l18.666 56.967c2.597 8.1195 4.7016 16.717 4.8628 17.364h0.32536c0.16708-0.6478 2.4329-9.4121 4.8687-17.364l17.848-56.967h31.167l-40.245 108.09h-29.215zm190.22 108.09v-25.155h-41.708v-18.179h36.188v-23.373h-36.188v-16.227h40.573v-25.158h-71.094v108.09zm-449.68-72.674-5.9239-10.136c-1.6092-2.6498-4.5257-2.6498-5.622-2.6498h-1.2897v12.786h-9.0633v-13.193h-0.67124l-0.16708 0.29019c-2.0196 8.3217-8.9724 12.903-19.557 12.903h-11.736v-30.045h-0.66538l-0.18173 0.28432-7.8234 29.757h-10.083l-5.3875-23.203h-0.60089l-0.17294 0.29605-5.3172 22.904h-10.256l-9.2919-35.417h9.9837l3.2419 14.48c0.6859 2.9957 1.2692 6.8356 1.278 6.8737l0.04983 0.32536h0.639l0.16708-0.31657c0.0029-0.04397 0.74453-4.3176 1.4275-7.3163l2.7758-14.046h11.294l2.77 14.034c0.69176 3.0103 1.4304 7.2841 1.4421 7.328l0.05276 0.31657h0.639l0.15535-0.32536c0.0088-0.03811 0.59503-3.8809 1.278-6.8708l3.2419-14.483h21.403c10.611 0 17.262 4.2443 19.237 12.273l0.07328 0.29019h0.67124l0.09673-0.38398v-12.176h15.013c6.305 0 13.815 1.8466 13.815 10.643 0 6.2405-4.1886 8.6881-6.686 9.588l-0.24622 0.0938v0.46606l0.15535 0.21691c1.3366 0.99368 2.811 2.8726 4.3762 5.5898l5.1559 8.8229zm-44.868-7.4365h3.365c6.3372 0 9.5528-3.5321 9.5528-10.491 0-6.9529-3.0308-10.054-9.8254-10.054h-3.0953zm32.029-12.229h5.7392c3.1012 0 4.8013-1.5652 4.8013-4.4056 0-2.9986-1.6766-4.4583-5.1208-4.4583h-5.4197z" fill="#feffff"/>
	<path d="m192.33 199.32 54.159-199.32h-100.85l-54.156 199.32z" fill="#f09"/>
	<path d="m151.69 43.232-6.8796 25.173h15.333v80.919h28.532v-106.09z" fill="#fff"/>
	<path d="m578.01 42.185h221.99v4.2209h-221.99z" fill="#feffff"/>
	<path d="m578.01 146.01h221.99v4.2297h-221.99z" fill="#e2e8e6"/>
	<path d="m600.95 111c10.391 0 15.477-5.4578 15.477-15.934 0-10.473-5.0064-15.175-15.858-15.175h-4.3264v31.109zm-16.992-40.822h16.461c19.803 0 28.91 10.016 28.91 24.587 0 14.565-9.2568 25.95-29.367 25.95h-16.01zm68.969 50.536h-12.37v-50.536h12.37zm11.836-25.343c0-13.735 10.242-26.102 28.221-26.102 7.8174 0 12.9 1.6708 16.848 4.4788l-5.3113 9.1043c-2.8843-1.9698-6.601-3.491-11.766-3.491-10.013 0-15.025 6.3753-15.025 15.708 0 9.3359 4.2531 16.693 14.114 16.693 3.5672 0 6.2962-0.75918 7.7412-1.5916v-8.7291h-8.7995v-9.4062h20.483v24.889c-3.5672 2.128-9.1014 4.7016-19.352 4.7016-17.822-3e-3 -27.154-12.516-27.154-26.255zm56.979 0c0-13.735 10.236-26.102 28.224-26.102 7.8205 0 12.897 1.6708 16.843 4.4788l-5.3113 9.1043c-2.8726-1.9698-6.5981-3.491-11.76-3.491-10.013 0-15.022 6.3753-15.022 15.708 0 9.3359 4.2473 16.693 14.111 16.693 3.5672 0 6.2904-0.75918 7.7413-1.5916v-8.7291h-8.8054v-9.4062h20.489v24.889c-3.5672 2.128-9.1014 4.7016-19.352 4.7016-17.824-3e-3 -27.157-12.516-27.157-26.255zm72.307 25.343h-12.367v-50.536h12.367z" fill="#feffff"/>
</svg>
