<?xml version="1.0" encoding="UTF-8"?>
<svg width="800" height="288.09" version="1.1" xmlns="http://www.w3.org/2000/svg">
	<path d="m355.47 60.969h45.033v120.81h55.598v35.418h-100.63zm159.74 156.23h-45.035v-156.23h45.035zm9.8526-156.23h48.324l26.979 82.335c3.7499 11.73 6.7988 24.166 7.0293 25.102h0.47533c0.23537-0.93628 3.5147-13.605 7.0389-25.102l25.796-82.335h45.042l-58.169 156.23h-42.221zm266.97 93.601v-33.785h-52.312v-23.453h58.645v-36.364h-102.75v156.23h104.38v-36.359h-60.282v-26.266zm-641.98-42.409-8.5634-14.649c-2.3263-3.8315-6.542-3.8315-8.1264-3.8315h-1.8678v18.481h-13.098v-19.071h-0.97469l-0.24246 0.42012c-2.9169 12.028-12.964 18.651-28.264 18.651h-16.966v-43.422h-0.96029l-0.26406 0.41052-11.307 43.011h-14.572l-7.7855-33.536h-0.86906l-0.25208 0.42973-7.6871 33.106h-14.82l-13.432-51.193h14.428l4.6862 20.929c0.9915 4.3309 1.8341 9.8789 1.8462 9.9366l0.07202 0.47054h0.92188l0.24247-0.45854c0.0048-0.06242 1.0755-6.2419 2.0646-10.575l4.0116-20.303h16.325l4.0044 20.284c0.9963 4.3501 2.067 10.53 2.0814 10.592l0.07683 0.45854h0.92187l0.22567-0.47054c0.0144-0.05522 0.85946-5.6081 1.8461-9.9318l4.6862-20.932h30.936c15.336 0 24.951 6.1338 27.805 17.736l0.10802 0.41772h0.96749l0.14164-0.55456v-17.6h21.7c9.1107 0 19.967 2.6696 19.967 15.386 0 9.0171-6.0522 12.556-9.6629 13.857l-0.35771 0.13444v0.6722l0.22567 0.31209c1.9278 1.4356 4.062 4.1532 6.3259 8.0808l7.4518 12.753zm-64.846-10.748h4.8662c9.1587 0 13.809-5.1015 13.809-15.163 0-10.049-4.3837-14.532-14.203-14.532h-4.4749zm46.288-17.674h8.2945c4.4821 0 6.9405-2.2615 6.9405-6.3667 0-4.3333-2.4223-6.4411-7.399-6.4411h-7.8335z" fill="#e2e2e4"/>
	<path d="m277.99 288.09 78.28-288.09h-145.76l-78.273 288.09z" fill="#f09"/>
	<path d="m272.72 215.82v-153.33h-53.457l-9.9462 36.385h22.161v116.95z" fill="#fff"/>
</svg>
