<svg xmlns="http://www.w3.org/2000/svg" width="500.544" height="450" viewBox="-5.728 -5.728 131.958 118.58" ><defs><linearGradient id="A" x1="50.936" x2="50.936" y1="112.172" y2="87.124" gradientUnits="userSpaceOnUse"><stop stop-color="#521316" offset="0"/><stop stop-color="#731518" offset="1"/></linearGradient><linearGradient id="B" x1="13.654" x2="13.654" y1="112.752" y2="84.325" gradientUnits="userSpaceOnUse"><stop stop-color="#b31d23" offset="0"/><stop stop-color="#dc1d25" offset=".524"/><stop stop-color="#ef3220" offset=".906"/></linearGradient></defs><path d="M47.359-5.754c-4.496.023-8.526.585-11.476 1.651l7.01 57.669-7.01 57.65c4.719 1.705 12.189 2.146 19.941 1.107 18.169-2.436 36.151-5.391 54.096-8.35 12.386-2.043 16.31-14.751 16.31-21.669V24.809c0-6.919-3.924-19.627-16.31-21.669L55.824-5.191c-2.907-.39-5.769-.577-8.466-.563z" fill="url(#B)"/><path d="M44.038-5.501c-2.296-.015-4.212.329-6.175.738C27.986-2.708 17.799-.167 7.708 2.324-4.254 5.278-5.728 25.614-5.728 28.693V78.4c0 3.078 1.474 23.434 13.436 26.388l30.155 7.088c1.964.401 3.879.734 6.175.718 5.873-.039 9.344-1.475 13.145-5.359 4.524-4.622 6.175-12.465 6.175-19.611V19.489c0-7.146-1.651-14.989-6.175-19.611-3.802-3.884-7.273-5.34-13.145-5.379z" fill="url(#A)"/><path d="M90.834 29.353v17.126l-15.999-.291V61.45l15.999-.291v17.223l12.776-.854V60.906l13.863-.252V46.985l-13.863-.252V30.149zM33.223 11.216c-.996.018-1.957.11-2.893.272L6.971 15.527v14.135l23.728-2.718c4.194-.481 7.617 1.689 7.806 7.864.284 9.267-4.565 10.804-8.524 10.932l-17.417.563v14.31l17.417.563c3.959.129 8.808 1.666 8.525 10.932-.189 6.176-3.612 8.365-7.806 7.884L6.971 77.273v14.116l23.359 4.058c4.993.865 11.016-.148 16.096-5.029 9.316-8.949 7.984-29.627.175-36.95 7.81-7.325 9.141-28.021-.175-36.97-4.128-3.966-8.889-5.358-13.203-5.282z" fill="#fff"/></svg>