<?xml version="1.0" encoding="UTF-8"?>
<svg width="800" height="447.84" version="1.1" xmlns="http://www.w3.org/2000/svg">
	<path d="m520.85 192.13c-11.06-2.104-22.86-7.828-31.088-15.08l-6.256-5.516 16.708-16.832 4.72 4.148c8.212 7.208 18.9 11.4 29.16 11.428 10.2 0.032 15.904-2.448 18.64-8.12 3.608-7.46-2.08-14.84-15.072-19.56-30.48-11.084-36.876-14.976-41.728-25.4-7.72-16.576-0.952-34.64 15.72-41.988 19.692-8.676 44.096-5.692 61.716 7.544l8.544 6.42-7.884 7.956c-4.336 4.372-8.2 7.952-8.58 7.952s-3.692-2.252-7.36-5.004c-14.28-10.732-32.48-11.008-36.452-0.56-2.744 7.216 2.608 12.072 19.416 17.616 28.392 9.364 38.484 17.976 41.272 35.212 1.788 11.064-4.44 25.316-13.936 31.88-11.52 7.96-30.58 11.132-47.54 7.904zm107.14 0.484c-12.236-2.16-22.344-9.076-26.44-18.092-3.396-7.476-3.112-20.8 0.608-28.792 6.98-14.988 26.6-24.296 60.232-28.584l12.512-1.6-0.296-4.772a18.656 18.656 0 0 0-9.132-15.032c-3.396-1.992-6.368-2.52-13.72-2.416-10.48 0.148-15.508 1.912-24.076 8.452l-5.64 4.304-15.94-16.2 5-4.38c12.912-11.308 33.796-17.14 51.608-14.412 18.696 2.864 30.964 11.644 36.86 26.388 2.664 6.656 2.812 8.96 3.224 49.824l0.436 42.848h-26.448v-11.58l-4.064 3.296c-6.508 5.272-13.116 8.344-22.024 10.232-9.072 1.92-14.088 2.036-22.7 0.516zm31.032-24.472c11.032-5.496 16.504-14.768 16.504-27.96 0-5.972 0.212-5.928-15.416-3.2-19.46 3.388-28.68 8.388-32.08 17.38-1.944 5.152 0.432 11.58 5.404 14.612 5.98 3.644 17.348 3.276 25.588-0.832zm98.328 24.548c-12.376-2.64-20.048-8.112-25.28-18.028l-3.376-6.404-0.364-54.972-0.36-54.972 12.848-12.896c7.068-7.092 14.164-13.476 14.172-12.948 8e-3 0.624 0.6 9.34 0.6 20.696v20.64h35.12l-0.36 10.944-0.36 10.948-34.4 0.696v65.172l3.656 3.656c3.004 3.008 4.704 3.656 9.548 3.656 3.84 0 7.4-0.932 10.228-2.68l4.336-2.68 16.64 16.76-3.752 3.172c-9.608 8.12-25.948 12-38.896 9.24z" fill="#f9f9f9"/>
	<path d="m0 0h447.84v447.84h-447.84z" fill="#e40a22"/>
	<path d="m203.91 378.31c-1.72-0.308-6.504-1.144-10.632-1.86-32.268-5.596-63.028-25.68-83.76-54.676l-4.712-6.596 21.648-22.176c11.908-12.2 22.04-22.344 22.52-22.548 0.36 0.428 2.22 3.084 5.524 7.968 14.596 26.096 40.628 40.808 68.8 38.876 34.592-2.372 57.172-26.92 55.424-60.252-0.668-12.716-5.264-23.156-14.772-33.54l-6.676-7.292 44.144-44.144 4.572 4.344c7.104 6.744 18.708 21.708 23.516 30.316 18.6 33.316 18.048 76.304-1.416 111.01-8.024 14.3-27.976 34.44-42.252 42.652-21.5 12.36-38.452 17.236-62.54 17.98-8.944 0.276-17.672 0.248-19.392-0.056zm-0.328-162.86c-10.828-10.844-19.688-20.276-19.688-20.96 0-1.58 118.54-120.16 119.35-119.4 0.332 0.316 9.668 9.552 20.744 20.528l20.144 19.956-59.784 59.792c-32.88 32.888-60.08 59.792-60.428 59.792-0.356 0-9.508-8.872-20.336-19.72zm-67.224-117.26-28.124-28.148h183.85l-56.252 56.292h-71.348z" fill="#fff"/>
</svg>
