<?xml version="1.0" encoding="UTF-8"?>
<svg width="800" height="331.79" version="1.1" xmlns="http://www.w3.org/2000/svg">
	<path d="m385.86 142.34c-8.1923-1.5601-16.937-5.8002-23.033-11.172l-4.6323-4.0842 12.377-12.473 3.5002 3.0721c6.0802 5.3402 14.001 8.4444 21.601 8.4686 7.5603 0.02 11.781-1.8161 13.809-6.0164 2.6721-5.5242-1.5401-10.993-11.165-14.492-22.585-8.2085-27.321-11.092-30.917-18.817-5.7204-12.281-0.70803-25.665 11.648-31.105 14.588-6.4283 32.665-4.2203 45.718 5.5881l6.3323 4.7562-5.8402 5.8924c-3.2161 3.2401-6.0761 5.8924-6.3603 5.8924-0.28006 0-2.7361-1.6681-5.4483-3.7082-10.584-7.9485-24.065-8.1564-27.009-0.41201-2.032 5.3443 1.9321 8.9402 14.385 13.049 21.033 6.9405 28.513 13.32 30.577 26.085 1.3281 8.2002-3.2881 18.757-10.324 23.621-8.5362 5.8962-22.657 8.2444-35.217 5.8561zm79.379 0.36c-9.0642-1.6-16.553-6.7243-19.589-13.405-2.5161-5.5401-2.3041-15.409 0.45204-21.333 5.1682-11.101 19.705-18.001 44.622-21.177l9.2683-1.1801-0.21997-3.5361a13.82 13.82 0 0 0-6.7643-11.137c-2.5161-1.48-4.7203-1.8641-10.16-1.7921-7.7644 0.10802-11.493 1.4161-17.841 6.2643l-4.1761 3.1881-5.9082-6.0001-5.9041-6.0001 3.7082-3.2481c9.5605-8.3763 25.033-12.696 38.231-10.677 13.853 2.1201 22.941 8.6284 27.309 19.549 1.9721 4.9324 2.0801 6.6404 2.3881 36.914l0.32013 31.741h-19.593v-8.5804l-3.0121 2.4401c-4.8163 3.9081-9.7166 6.1842-16.316 7.5845-6.7201 1.4241-10.437 1.5081-16.813 0.38401zm22.989-18.129c8.1722-4.0763 12.228-10.945 12.228-20.721 0-4.4202 0.1561-4.3881-11.42-2.3681-14.416 2.5121-21.249 6.2121-23.765 12.88-1.4401 3.8121 0.32013 8.5763 4.0003 10.821 4.4282 2.7001 12.852 2.4281 18.957-0.61203zm72.848 18.185c-9.1685-1.9601-14.853-6.0122-18.725-13.36l-2.5041-4.7441-0.26797-40.721-0.27213-40.729 9.5204-9.5525c5.24-5.2521 10.496-9.9804 10.5-9.5884 8e-3 0.46001 0.44002 6.9204 0.44002 15.329v15.293h26.025l-0.53603 16.217-12.741 0.26-12.744 0.25603v48.28l2.7081 2.7121c2.2281 2.2241 3.4841 2.7081 7.0724 2.7081 2.8441 0 5.4842-0.69204 7.5762-1.9881l3.2162-1.9841 12.329 12.417-2.7801 2.3521c-7.1204 6.0164-19.225 8.8885-28.817 6.8403z" fill="#f9f9f9"/>
	<path d="m0 0h331.77v331.79h-331.77z" fill="#e40a22"/>
	<path d="m151.07 280.29c-1.2761-0.22802-4.8201-0.84803-7.8804-1.3761-23.901-4.1481-46.689-19.025-62.046-40.51l-3.4922-4.8881 16.041-16.429c8.8163-9.0362 16.321-16.553 16.677-16.705 0.26801 0.31601 1.648 2.2841 4.0963 5.9003 10.813 19.337 30.097 30.233 50.972 28.801 25.625-1.7561 42.358-19.941 41.061-44.633-0.49604-9.4202-3.9002-17.157-10.948-24.849l-4.9403-5.4003 32.706-32.706 3.3841 3.2161c5.2642 5.0004 13.861 16.081 17.421 22.461 13.781 24.681 13.373 56.531-1.048 82.24-5.9442 10.592-20.725 25.513-31.301 31.597-15.929 9.1602-28.489 12.769-46.33 13.32-6.6283 0.20001-13.092 0.18403-14.368-0.04zm-0.24-120.65c-8.0244-8.0324-14.588-15.02-14.588-15.529 0-1.168 87.815-89.021 88.42-88.45l15.369 15.209 14.921 14.785-44.289 44.297c-24.361 24.361-44.505 44.297-44.769 44.297s-7.0402-6.5723-15.065-14.608zm-49.804-86.874-20.841-20.853h136.21l-41.674 41.704h-52.858z" fill="#fff"/>
	<path d="m687.32 54.385h21.361v87.222h-21.361v-37.422h-35.321v37.422h-20.929v-87.222h20.933v31.933h35.318zm33.522 87.097v-87.097h30.333c11.473 0 20.553 1.7801 27.237 5.3364 6.6804 3.5601 11.996 8.7962 15.941 15.705 3.9482 6.9083 5.6482 14.441 5.6482 22.601 0 5.8244-0.81605 11.4-2.9881 16.729a42.354 42.354 0 0 1-9.3004 14.049 40.676 40.676 0 0 1-14.317 9.4286c-3.1802 1.288-6.0965 2.1521-8.7566 2.5921-2.6561 0.43602-7.7285 0.65202-15.217 0.65202zm29.065-69.393h-8.4005v51.969h8.7603c23.433-0.18799 29.589-13.405 29.593-28.193 0-13.281-7.2001-23.749-29.957-23.777z" fill="#aeb6bd"/>
</svg>
