<?xml version="1.0" encoding="UTF-8"?>
<svg width="800" height="367.55" fill="#ffffff" version="1.1" viewBox="0 0 600 275.67" xmlns="http://www.w3.org/2000/svg">
 <path d="M333.253 218.176c-15.851 0-28.752 12.887-28.752 28.752 0 15.851 12.901 28.738 28.752 28.738s28.738-12.887 28.738-28.738-12.887-28.752-28.738-28.752zM206.749 0v18.442C186.474 6.712 162.946 0 137.833 0 61.708 0 0 61.708 0 137.833s61.708 137.833 137.833 137.833c25.113 0 48.641-6.712 68.916-18.442v18.442h68.916V0zm-68.916 206.749c-38.056 0-68.916-30.861-68.916-68.916s30.861-68.916 68.916-68.916 68.916 30.861 68.916 68.916c0 38.07-30.847 68.916-68.916 68.916zM429.377 19.186l-22.646 67.441-22.48-67.441h-18.869v26.257l27.153 71.921h28.38l36.98-98.179zm-73.024 26.257V19.186h-23.087V0H304.5v79.13c0 23.032 8.394 34.389 27.25 37.394 3.239.51 6.781.772 10.64.814l3.832-.069a77.685 77.685 0 0 0 8.394-.882V90.253l-2.715.166c-.703.042-3.198.069-3.845.069-9.221 0-14.79-4.204-14.79-14.514V45.43h23.087z"/>
 <path d="m444.51 75.763 10.767-28.586v16.912h50.83v-39.078h10.767v92.353h-10.767v-44.555h-50.83v44.555h-10.767zm79.314-50.752h25.792c10.307 0 19.233 1.8502 26.779 5.5495 7.638 3.6994 13.482 8.9847 17.531 15.854s6.073 14.974 6.073 24.311c0 15.415-4.601 27.041-13.804 34.88-9.203 7.839-22.132 11.759-38.788 11.759h-23.582zm22.892 83.633c14.54 0 25.261-3.171 32.163-9.5131 6.902-6.4301 10.353-15.898 10.353-28.406 0-11.626-3.359-20.699-10.077-27.217s-16.61-9.7772-29.678-9.7772h-14.886v74.913z" fill="#909090" stroke-width=".97834"/>
</svg>
