<?xml version="1.0" encoding="UTF-8"?>
<svg width="800" height="274.45" version="1.0" xmlns="http://www.w3.org/2000/svg" xmlns:cc="http://creativecommons.org/ns#" xmlns:rdf="http://www.w3.org/1999/02/22-rdf-syntax-ns#">
	<path d="m449.68 4.5652c-16.222 0.22784-32.816 0.81372-49.686 1.8878-196.45 12.531-355.74 81.242-355.74 153.44 0 72.193 159.28 120.59 355.74 108.06 104.96-6.7051 199.26-29.457 264.37-60.118 56.807-26.82 91.378-59.695 91.378-93.317 0-66.009-133.12-112.1-306.06-109.95" fill="#fff"/>
	<path d="m464.93 0.0066653c-3.0165 0.010347-6.044 0.032084-9.0827 0.066668-18.247 0.22784-36.886 0.84654-55.855 1.9857-220.92 12.922-399.99 83.976-399.99 158.61 0 74.667 179.08 124.69 399.99 111.74 118-6.9329 224.05-30.433 297.29-62.201 63.838-27.666 102.72-61.681 102.72-96.443 0-67.188-145.03-114.41-335.07-113.76zm2.2604 8.1033c90.366 0.14659 167.1 15.819 213.23 41.763l-53.133 68.223-11.938-13.151c-6.4349-7.0956-13.987-13.116-21.108-13.116h-13.453c-7.1184 0-11.607 6.0205-5.1493 13.116l33.275 36.717-22.531 28.902-32.904-70.5c-2.9261-5.2729-7.9835-8.2351-14.392-8.2351-5.53 0-10.26 2.7019-13.746 7.7144l-33.477 56.796v-46.739c0-8.3325-3.8635-17.772-14.621-17.772-8.632 0-13.351 7.454-17.686 13.768l-20.178 29.521-22.718-28.578c-4.8823-6.0215-11.572-14.711-20.637-14.711-16.388 0-14.875 16.73-14.875 20.213v72.681c0 5.1753 4.2582 9.4398 9.4335 9.4398 5.2013 0 9.4192-4.2646 9.4192-9.4398v-50.255l0.19206 0.26032s18.588 21.548 21.208 25.031c2.9229 3.8082 6.6506 5.9557 10.654 5.9557 7.6425 0 10.656-4.9807 14.318-9.3097 3.6357-4.329 15.51-21.677 15.51-21.677v39.872c0 15.07 8.6968 19.562 17.075 19.562h2.4794c10.198 0 16.083-6.1199 20.47-12.337l5.635-8.0065h47.869l3.9906 8.6906c4.7424 8.0396 9.5242 11.653 23.878 11.653 8.492 0 14.686-3.0923 19.2-8.5605l21.41-27.439 21.31 23.5c4.3453 4.7847 8.7331 8.9512 13.322 11.197-59.324 33.851-151.87 59.759-255.86 67.701-69.371 5.2729-133.59 1.7573-186.31-8.5605h-2e-3c-32.193-6.2494-63.14-15.852-87.525-28.708l29.788-49.474h48.509l3.9906 8.6906c3.1149 5.5984 8.823 10.545 19.619 11.489 0.3678 0.0651 0.83699 0.1635 1.4619 0.1635 0.27993 0 0.53439-0.0325 0.81431-0.0651 0.45894 0.0325 0.9014 0.0651 1.3603 0.0651l0.17779-0.13016c12.496-0.97647 19.605-9.9281 19.605-18.521v-40.783s36.135 42.867 38.586 45.926c5.989 7.4537 9.9693 13.508 21.462 13.508 8.0754 0 14.738-6.0871 14.878-16.47 0-0.0977 0.0222-0.19601 0.0222-0.29366v-76.163c0-5.1753-4.2312-9.4065-9.4065-9.4065-5.1883 0-9.4367 4.2313-9.4367 9.4065v54.291l-0.31587-0.3254-41.664-51.46c-4.4885-4.9474-8.4695-11.913-18.794-11.913-11.988 0-14.227 11.425-14.227 17.772v56.049c-10.311-23.045-27.655-61.647-29.842-65.585-3.001-5.3706-8.3779-8.2351-14.175-8.2351-5.53 0-10.476 2.7019-13.959 7.7144l-66.852 112.46c-19.734-14.159-32.029-31.442-32.029-51.785 0-44.624 60.609-85.344 134.78-111.64 53.299-18.878 118.73-32.613 189.48-38.017 22.097-1.6844 43.676-2.4783 64.53-2.4445zm231.63 53.936c18.055 14.191 28.088 30.661 28.088 48.823 0 23.272-16.504 46.286-45.215 67.117l-39.426-43.388zm-344.04 29.783c-7.6555 0-13.908 6.2489-13.908 13.93v74.471c0 7.649 6.2527 13.932 13.908 13.932 7.6652 0 13.922-6.283 13.922-13.932v-74.471c0-7.6815-6.2572-13.93-13.922-13.93zm179.44 35.543 14.686 31.669h-33.861zm-348.48 0.6508 14.392 31.018h-33.17z" fill="#005daa"/>
	<metadata>
		<rdf:RDF>
			<cc:Work rdf:about="">
				<cc:license rdf:resource="http://creativecommons.org/licenses/by/4.0/"/>
			</cc:Work>
			<cc:License rdf:about="http://creativecommons.org/licenses/by/4.0/">
				<cc:permits rdf:resource="http://creativecommons.org/ns#Reproduction"/>
				<cc:permits rdf:resource="http://creativecommons.org/ns#Distribution"/>
				<cc:requires rdf:resource="http://creativecommons.org/ns#Notice"/>
				<cc:requires rdf:resource="http://creativecommons.org/ns#Attribution"/>
				<cc:permits rdf:resource="http://creativecommons.org/ns#DerivativeWorks"/>
			</cc:License>
		</rdf:RDF>
	</metadata>
</svg>
