<?xml version="1.0" encoding="UTF-8"?>
<svg width="800" height="221.53" version="1.1" xmlns="http://www.w3.org/2000/svg" xmlns:xlink="http://www.w3.org/1999/xlink">
	<defs>
		<linearGradient id="linearGradient1178" x1="83.03" x2="885.38" y1="857.46" y2="857.46" gradientTransform="matrix(1,0,0,-1,0,1080.1)" gradientUnits="userSpaceOnUse">
			<stop stop-color="#fbe099" offset="0"/>
			<stop stop-color="#e0b147" offset="1"/>
		</linearGradient>
		<radialGradient id="radialGradient1726" cx="400" cy="110.76" r="400" gradientTransform="matrix(1 0 0 .27691 .002662 80.094)" gradientUnits="userSpaceOnUse" xlink:href="#linearGradient1178"/>
	</defs>
	<g fill="url(#radialGradient1726)">
		<path d="m0.014 161.42c109.47-99.128 292.39-150.59 509.21-155.47 26.361-0.59353 52.244 0.95829 77.876 2.7924-40.414-5.6594-82.805-9.3043-126.42-8.6743-194.36 2.807-374.99 58.971-460.68 161.35z"/>
		<path d="m582.84 156.6v-22.539h-25.733v-9.1819h22.806v-20.552h-22.806v-9.1683h25.103v-21.505l-55.649-0.0083v82.945z"/>
		<path d="m465.6 73.641h-33.156l27.066 38.366-28.014 44.579h34.731l11.548-20.538 14.346 20.538h31.882l-30.199-43.09 25.776-39.855h-34.731l-8.6452 16.082z"/>
		<path d="m429.01 156.59-0.32277-82.945h-30.506l-2e-3 82.945z"/>
		<path d="m357.45 73.668 0.80472 42.837a308.05 270.66 38.928 0 0-25.707-42.837h-30.594l0.0102 82.933h29.951l-0.86354-43.184 26.71 43.184h30.28l-0.32844-82.96z"/>
		<path d="m235.37 73.668-28.441 82.96h32.912l3.0133-10.927h20.858l2.3623 10.927h30.334l-22.805-82.96zm16.207 34.902c1.0462-4.2017 1.8434-7.7858 2.393-10.846l5.6639 29.103h-12.013c0.31748-2.5237 1.732-8.6448 3.956-18.256z"/>
		<path d="m531.55 186.21c-113.22 26.772-211.61 33.969-328.65 27.212 44.349 6.7751 87.023 8.1202 134.87 8.1066 84.524-0.0238 171.2-14.749 243.35-35.321z"/>
		<path d="m624.75 157.66h33.668c47.096-19.993 106.15-56.428 141.58-101.1-52.263 46.575-122.76 81.962-175.25 101.1z"/>
	</g>
	<path d="m588.32 182.89v27.49h16.671v-27.49z" fill="#59f80a" stop-color="#000000"/>
	<path d="m607.63 163.56v16.673h27.49v-16.673z" fill="#123df7" stop-color="#000000"/>
	<path d="m558.16 163.56v16.673h27.488v-16.673z" fill="#fcfc05" stop-color="#000000"/>
	<path d="m588.32 133.42v27.488h16.671v-27.488z" fill="#f5141a" stop-color="#000000"/>
</svg>
