<svg xmlns="http://www.w3.org/2000/svg" xmlns:xlink="http://www.w3.org/1999/xlink" width="800.013" height="239.694" viewBox="0 0 211.67 63.419"><defs><linearGradient id="A" x1="-121.16" x2="301.676" y1="526.875" y2="526.875" gradientUnits="userSpaceOnUse"><stop stop-color="#e8c730" offset="0"/><stop stop-color="#fff486" offset=".528"/><stop stop-color="#e8c730" offset="1"/></linearGradient><linearGradient id="B" x1="-161.808" x2="400.19" y1="635.332" y2="635.332" gradientUnits="userSpaceOnUse"><stop stop-color="#e8c730" offset="0"/><stop stop-color="#fff486" offset=".528"/><stop stop-color="#e8c730" offset="1"/></linearGradient><linearGradient id="C" x1="-246.158" x2="315.84" y1="686.86" y2="686.86" gradientUnits="userSpaceOnUse"><stop stop-color="#e8c730" offset="0"/><stop stop-color="#fff486" offset=".528"/><stop stop-color="#e8c730" offset="1"/></linearGradient><linearGradient id="D" x1="-301.028" x2="260.97" y1="632.784" y2="632.784" gradientUnits="userSpaceOnUse"><stop stop-color="#e8c730" offset="0"/><stop stop-color="#fff486" offset=".528"/><stop stop-color="#e8c730" offset="1"/></linearGradient><path id="E" d="M255.14 69.092l-4.36-8.393h-16.95l11.3 20.024-17.27 23.257h17.75l7.27-10.714 5.97 10.714h16.3l-12.6-22.48 15.82-20.8h-17.75z"/><path id="F" d="M270.6 125.7c-42.412 8.223-88.173 12.717-135.88 12.728h-.001c-17.27.004-34.383-.586-51.01-1.675 26.474 3.458 54.238 5.323 82.8 5.316 50.456-.012 98.347-5.87 141.42-16.37z"/><path id="G" d="M335.83 107.77h16.995c29.902-15.995 54.237-34.944 71.317-55.957-23.204 21.277-53.17 40.203-88.312 55.957z"/></defs><g transform="translate(128.89 -117.12)"><g transform="matrix(.502411 0 0 .502411 -130.317631 109.168059)"><g fill="gray"><path d="M5.098 110.3c51.858-53.13 148.4-88.878 259.05-88.878a507.04 507.04 0 0 1 38.38 1.457c-19.918-2.953-40.807-4.526-62.304-4.526-105.3 0-195.78 37.823-235.13 91.948zm271.182-6.32h28.58l1.6-11.763h-13.24l.5-4.8h11.78l1.3-10.72H295l.8-4.8h12.75l1.45-11.22h-28.4z"/><use xlink:href="#E"/><path d="M210.9 103.98h15.98l5.33-43.28h-15.8zm-15-43.28l-2.42 22.35c-2.906-7.845-6.295-15.28-10.33-22.35H167.5l-5.488 43.286h15.334l2.42-22.532 10.815 22.532h15.497l5.327-43.286zm-62 0l-20.016 43.286h16.788l2.26-5.7h10.654l.484 5.7h15.497L153.443 60.7zm5.972 18.245l1.937-5.655.97 15.188h-6.134c.323-1.322 1.452-4.516 3.228-9.533z"/><use xlink:href="#F"/><use xlink:href="#G"/></g><path d="M2.84 107.78C54.7 54.65 151.25 18.902 261.89 18.902c12.995 0 25.748.5 38.38 1.457-19.918-2.953-40.807-4.526-62.304-4.526-105.3 0-195.78 37.823-235.13 91.948z" fill="url(#A)"/><g fill="url(#B)"><path d="M273.28 100.98h28.58l1.6-11.763h-13.24l.5-4.79h11.78l1.3-10.72H292l.8-4.79h12.75l1.45-11.22h-28.4z"/><use xlink:href="#E" x="-3" y="-3"/><path d="M207.9 100.98h15.98l5.33-43.28H213.4z"/><path d="M192.9 57.7l-2.42 22.35c-2.906-7.845-6.295-15.28-10.33-22.35H164.5l-5.488 43.286h15.334l2.42-22.532 10.815 22.532h15.497l5.327-43.286z"/><path d="M130.9 57.7l-20.016 43.286h16.788l2.26-5.7h10.654l.484 5.7h15.497L150.443 57.7zm5.972 18.245l1.937-5.656.97 15.188h-6.134c.323-1.32 1.452-4.515 3.228-9.532z"/></g><use xlink:href="#F" x="-3" y="-3" fill="url(#C)"/><use xlink:href="#G" x="-3" y="-3" fill="url(#D)"/></g><path fill="#f5141a" d="M25.696 154.7h6.108v8.424h-6.108z"/><path fill="#59f80a" d="M25.696 170.06h6.108v8.424h-6.108z"/><path fill="#123df7" d="M32.222 163.85h8.424v5.656h-8.424z"/><path fill="#fcfc05" d="M16.747 163.85h8.424v5.656h-8.424z"/></g></svg>