<?xml version="1.0" encoding="UTF-8"?>
<svg width="800" height="227.12" version="1.1" xmlns="http://www.w3.org/2000/svg" xmlns:xlink="http://www.w3.org/1999/xlink">
	<defs>
		<linearGradient id="linearGradient1158" x1="83.03" x2="885.38" y1="857.46" y2="857.46" gradientTransform="matrix(1 0 0 -1 0 1080.1)" gradientUnits="userSpaceOnUse">
			<stop stop-color="#fbe099" offset="0"/>
			<stop stop-color="#e0b147" offset="1"/>
		</linearGradient>
		<radialGradient id="radialGradient1560" cx="400" cy="113.56" r="400" gradientTransform="matrix(1 0 0 .2839 0 81.32)" gradientUnits="userSpaceOnUse" xlink:href="#linearGradient1158"/>
	</defs>
	<g fill="url(#radialGradient1560)">
		<path d="M 0,156.09 C 98.4,65.9 281.61,5.21 491.56,5.21 c 24.65,0 48.85,0.85 72.82,2.48 A 899.69,899.69 0 0 0 446.16,0 C 246.35,0 74.67,64.21 0,156.09 Z"/>
		<path d="m537 82.4-8.06 61.8h28.76c9.9 0 18-2.87 24.42-8.6 6.46-5.93 9.68-13.74 9.68-23.64 0-10.16-3.22-17.84-9.68-22.85-5.53-4.43-13.82-6.71-24.19-6.71zm19.82 18.23h2.08a10.2 10.2 0 0 1 7.83 3.39 13.47 13.47 0 0 1-1.84 18.82 18.38 18.38 0 0 1-11.29 3.39z"/>
		<path d="m491.79 103.54 2.53-21.16h-22.81l-7.61 61.79h22.82l2.53-22.33h13.83l-2.77 22.33h22.82l7.6-61.79h-22.81l-2.54 21.16z"/>
		<path d="m430.95 144.17 2.3-16.79h-18.9l0.69-6.84h16.83l1.84-15.31h-16.82l1.15-6.83h18.21l2.07-16.02h-40.56l-7.6 61.79z"/>
		<path d="m353.75 82.38h-24.2l16.13 28.58-24.66 33.21h25.35l10.37-15.3 8.53 15.3h23.27l-17.97-32.1 22.58-29.69h-25.35l-7.83 11.98z"/>
		<path d="m319.64 144.17 7.6-61.79h-22.58l-7.84 61.79z"/>
		<path d="m275.39 82.4-3.46 31.91a213.06 213.06 0 0 0-14.74-31.91h-22.36l-7.83 61.78h21.89l3.45-32.17 15.44 32.17h22.13l7.6-61.8z"/>
		<path d="m186.9 82.4-28.58 61.8h24l3.23-8.14h15.21l0.69 8.14h22.12l-8.79-61.8zm8.52 26c1.16-3.13 2.08-5.8 2.77-8.08l1.38 21.68h-8.76c0.47-1.88 2.08-6.44 4.61-13.6z"/>
		<path d="m530.57 181.17 0.64 0.55a12.92 12.92 0 0 0 8.15 3.42c1.34 0 3.53-0.54 3.71-2.23s-1.6-1.84-2.82-2.09l-2.68-0.5c-5.22-0.94-9.37-4.07-8.77-9.94 0.92-8.89 9.53-13.86 17.68-13.86a20.59 20.59 0 0 1 11.52 3.28l-4.64 9.6a12.88 12.88 0 0 0-7.62-2.83c-1.19 0-3 0.44-3.13 2-0.15 1.39 1.52 1.59 2.54 1.83l3 0.7c5.63 1.29 9.49 4.37 8.84 10.74-0.93 8.94-9.53 13.37-17.63 13.37a31.63 31.63 0 0 1-14.07-3.43z"/>
		<path d="m566.23 157.11h25.2l-1.06 10.29h-11.48l-0.37 3.58h10.48l-1 9.74h-10.48l-0.38 3.68h11.86l-1 10.19h-25.63z"/>
		<path d="m600 157.11h16.4c8.45 0 15.24 3.58 14.27 13-0.58 5.67-3 8.06-8.26 9.75v0.29a8.26 8.26 0 0 1 2 2.24l6.9 12.18h-15.7l-4.73-12h-0.25l-1.24 12h-13.3zm11.61 16.6h1c2.23 0 4.51-0.34 4.79-3.13s-1.7-3.23-4-3.23h-1z"/>
		<path d="m640 157.11h13.62l-3.86 37.48h-13.6z"/>
		<path d="m662.25 157.11h25.2l-1.05 10.29h-11.48l-0.37 3.58h10.45l-1 9.74h-10.46l-0.38 3.68h11.84l-1 10.24h-25.6z"/>
		<path d="m502.47 203.75a1023.5 1023.5 0 0 1-194 18.17c-24.66 0-49.09-0.83-72.83-2.39a912.47 912.47 0 0 0 118.23 7.59c72 0 140.4-8.38 201.9-23.37z"/>
		<path d="m673.92 145.53h24.26c42.69-22.84 77.44-49.89 101.82-79.89-33.13 30.38-75.91 57.4-126.08 79.89z"/>
	</g>
</svg>
