<svg xmlns="http://www.w3.org/2000/svg" xmlns:xlink="http://www.w3.org/1999/xlink" viewBox="0 0 148.79 42.621" height="161.087" width="562.356" xmlns:v="https://vecta.io/nano"><defs><linearGradient y2="632.332" x2="397.19" y1="632.332" x1="-164.808" id="A" gradientUnits="userSpaceOnUse"><stop offset="0" stop-color="#e8c730"/><stop offset=".528" stop-color="#fff486"/><stop offset="1" stop-color="#e8c730"/></linearGradient><linearGradient y2="676.16" x2="397.19" y1="676.16" x1="-164.808" id="B" xlink:href="#F"/><linearGradient y2="676.16" x2="329.92" y1="676.16" x1="-232.078" id="C" xlink:href="#F"/><path id="D" d="M396.6 110.05h17.65l-.738 7.172h-8.042l-.26 2.506h7.346l-.702 6.824h-7.346l-.266 2.576h8.32l-.738 7.173h-17.93z"/></defs><path d="M83.213.53C46.186.53 14.37 12.427.53 29.454c18.237-16.714 52.19-27.96 91.096-27.96 4.57 0 9.054.157 13.496.458-7.004-.93-14.35-1.424-21.9-1.424zM148.8 12.692c-6.14 5.63-14.068 10.637-23.366 14.805h4.496c7.91-4.232 14.35-9.246 18.87-14.805zM35.165 15.795L29.87 27.248h4.442l.598-1.508h2.818l.128 1.508h4.1l-1.623-11.453zm8.885 0l-1.452 11.453h4.057l.64-5.96 2.86 5.96h4.1l1.4-11.453h-4.1l-.64 5.913c-.77-2.076-1.665-4.043-2.733-5.913zm12.94 0l-1.453 11.45h4.228l1.4-11.45zm4.612 0l2.99 5.298-4.57 6.153h4.696l1.923-2.834 1.58 2.834h4.312l-3.33-5.948 4.186-5.503h-4.696l-1.453 2.22-1.153-2.22zm12.642 0l-1.4 11.45h7.562l.426-3.112h-3.503l.13-1.267h3.117l.342-2.836H77.79l.214-1.267h3.373l.383-2.97zm13.668 0l-1.4 11.45h4.228l.47-4.138h2.56l-.513 4.138h4.228l1.4-11.45H94.66l-.47 3.922h-2.52l.47-3.922zm12.128 0l-1.494 11.453h5.34c1.836 0 3.332-.53 4.527-1.593 1.196-1.098 1.793-2.546 1.793-4.38 0-1.883-.598-3.307-1.793-4.236-1.025-.82-2.563-1.243-4.485-1.243zm-62.782 3.33l.256 4.018H35.89c.085-.35.384-1.194.854-2.522.214-.58.385-1.074.513-1.497zm66.455.05h.384a1.89 1.89 0 0 1 1.452.627c.342.422.556.93.556 1.52 0 .832-.3 1.496-.897 1.967-.555.41-1.24.628-2.093.628zm-1.907 10.36c-1.51 0-3.107.92-3.277 2.57-.112 1.087.657 1.668 1.625 1.843l.497.092c.225.046.554.074.522.387s-.44.414-.687.414c-.58 0-1.094-.286-1.51-.636l-.12-.1-.976 1.963a5.84 5.84 0 0 0 2.606.635c1.5 0 3.096-.82 3.267-2.477.12-1.18-.593-1.75-1.637-2l-.558-.13c-.19-.046-.498-.083-.472-.34.03-.286.36-.368.58-.368.543 0 1.008.23 1.41.525l.865-1.778c-.64-.415-1.347-.608-2.14-.608zm3.658.11l-.715 6.945h4.744l.195-1.898h-2.2l.07-.682h1.944l.186-1.806h-1.944l.07-.663h2.128l.195-1.898zm6.252 0L111 36.59h2.47l.23-2.23h.046l.876 2.23h2.91l-1.278-2.257c-.117-.202-.262-.313-.38-.415l.006-.055c.972-.313 1.422-.755 1.53-1.805.18-1.75-1.078-2.413-2.644-2.413zm7.424 0l-.715 6.945h2.524l.715-6.945zm4.12 0l-.716 6.945h4.744l.195-1.898h-2.2l.07-.682h1.944l.186-1.806h-1.944l.07-.663h2.128l.195-1.898zM114 31.543h.193c.433 0 .804.065.75.6-.053.516-.474.58-.89.58h-.175zM93.648 38.3c-11.22 2.176-23.328 3.365-35.95 3.368h-.001c-4.57.001-9.097-.155-13.496-.443 7.004.915 14.35 1.408 21.9 1.407 13.35-.003 26.02-1.553 37.417-4.33z" fill="gray"/><g transform="matrix(.26458 0 0 .26458 -.000421 .000083)"><linearGradient gradientUnits="userSpaceOnUse" y2="607.656" y1="607.656" x2="397.19" x1="-164.808" id="E"><stop offset="0" stop-color="#e8c730"/><stop offset=".528" stop-color="#fff486"/><stop offset="1" stop-color="#e8c730"/></linearGradient><path fill="url(#E)" d="M0 109.33C68.926 46.156 197.26 3.65 344.3 3.65a752.14 752.14 0 0 1 51.01 1.733C368.846 1.872 341.082.001 312.5.001 172.56.001 52.3 44.974 0 109.33z"/><path d="M376.1 57.7l-5.65 43.286h20.178c6.94 0 12.592-2.007 17.11-6.02 4.52-4.15 6.78-9.623 6.78-16.556 0-7.116-2.26-12.498-6.78-16-3.875-3.102-9.686-4.698-16.95-4.698h-14.7zm13.883 12.772h1.453c2.26 0 4.035.82 5.487 2.372 1.29 1.596 2.1 3.51 2.1 5.748 0 3.146-1.13 5.654-3.4 7.434-2.098 1.552-4.68 2.373-7.9 2.373z" fill="url(#A)"/><path d="M324.94 100.98h15.98l1.78-15.64h9.68l-1.94 15.64h15.98l5.33-43.28h-15.98L354 72.523h-9.52l1.78-14.824h-15.98z" fill="url(#A)"/><path d="M290.72 84.428h11.78l1.3-10.72H292l.8-4.79h12.75l1.45-11.22h-28.4l-5.33 43.28h28.58l1.6-11.763h-13.24z" fill="url(#A)"/><path d="M224.86 100.98h17.75l7.27-10.714 5.97 10.714h16.3l-12.6-22.48 15.82-20.8h-17.75l-5.5 8.393-4.36-8.393h-16.95l11.3 20.024z" fill="url(#A)"/><path d="M207.9 100.98h15.98l5.33-43.28H213.4z" fill="url(#A)"/><path d="M192.9 57.7l-2.42 22.35c-2.906-7.845-6.295-15.28-10.33-22.35H164.5l-5.488 43.286h15.334l2.42-22.532 10.815 22.532h15.497l5.327-43.286z" fill="url(#A)"/><path d="M130.9 57.7l-20.016 43.286h16.788l2.26-5.7h10.654l.484 5.7h15.497L150.443 57.7zm5.972 18.245l1.937-5.656.97 15.188h-6.134c.323-1.32 1.452-4.515 3.228-9.532z" fill="url(#A)"/><linearGradient gradientUnits="userSpaceOnUse" id="F"><stop offset="0" stop-color="#e8c730"/><stop offset=".528" stop-color="#fff486"/><stop offset="1" stop-color="#e8c730"/></linearGradient><path d="M371.64 126.9l.448.383c1.57 1.323 3.512 2.402 5.705 2.402.94 0 2.478-.383 2.6-1.565s-1.12-1.288-1.973-1.463l-1.88-.348c-3.656-.662-6.563-2.855-6.14-6.964.642-6.23 6.675-9.713 12.385-9.713 2.994 0 5.67.73 8.085 2.297l-3.27 6.72c-1.52-1.114-3.277-1.984-5.33-1.984-.836 0-2.087.313-2.198 1.393-.1.975 1.07 1.114 1.783 1.288l2.108.488c3.945.905 6.647 3.063 6.188 7.52-.645 6.267-6.674 9.365-12.35 9.365-3.308 0-7.045-.905-9.85-2.402z" fill="url(#B)"/><use xlink:href="#D" fill="url(#B)"/><path d="M420.24 110.05h11.524c5.92 0 10.674 2.506 9.993 9.12-.41 3.97-2.113 5.64-5.786 6.823l-.02.21c.448.384.997.802 1.44 1.567l4.832 8.53H431.22l-3.31-8.426h-.174l-.867 8.426h-9.33zm8.134 11.628h.66c1.567 0 3.158-.244 3.36-2.193.208-2.02-1.194-2.263-2.83-2.263h-.73z" fill="url(#B)"/><path d="M448.3 110.05h9.54l-2.703 26.25h-9.54z" fill="url(#B)"/><use xlink:href="#D" x="67.27" fill="url(#C)"/><linearGradient gradientUnits="userSpaceOnUse" y2="703.89" y1="703.89" x2="397.19" x1="-164.808" id="G"><stop offset="0" stop-color="#e8c730"/><stop offset=".528" stop-color="#fff486"/><stop offset="1" stop-color="#e8c730"/></linearGradient><path fill="url(#G)" d="M351.95 142.72c-42.412 8.223-88.173 12.717-135.88 12.728h-.001c-17.27.004-34.383-.586-51.01-1.675 26.474 3.458 54.238 5.323 82.8 5.316 50.456-.012 98.347-5.87 141.42-16.37z"/><linearGradient gradientUnits="userSpaceOnUse" y2="626.944" y1="626.944" x2="397.19" x1="-164.808" id="H"><stop offset="0" stop-color="#e8c730"/><stop offset=".528" stop-color="#fff486"/><stop offset="1" stop-color="#e8c730"/></linearGradient><path fill="url(#H)" d="M472.05 101.93h16.995c29.902-15.995 54.237-34.944 71.317-55.957-23.204 21.277-53.17 40.203-88.312 55.957z"/></g></svg>