<?xml version="1.0" encoding="UTF-8"?>
<svg width="800" height="147.8" version="1.1" xmlns="http://www.w3.org/2000/svg">
	<path d="m202.03 97.754 20.59-97.754h-222.62v97.754z" fill="#e31818"/>
	<path d="m65.694 46.924c-20.331 0.25931-31.548 3.6524-35.448 4.9545v23.719h-8.0828v-29.197s12.519-7.5586 43.796-7.8179zm60.474 10.433c0 11.724-1.8207 14.339-1.8207 14.339s-5.2138 4.4359-25.55 4.4359c-11.206 0-23.983-1.5724-23.983-1.5724v-52.91h8.0717v17.986c4.7062-0.78896 9.3848-1.0372 13.556-1.0372 18.764 0 27.906 5.2138 27.906 5.2138s1.8207 2.3283 1.8207 13.545m60.215 0c0 11.724-1.8207 14.339-1.8207 14.339s-5.2138 4.4359-25.556 4.4359c-11.2 0-23.978-1.5724-23.978-1.5724v-52.91h8.0717v17.986c4.7062-0.78896 9.3848-1.0372 13.556-1.0372 18.764 0 27.895 5.2138 27.895 5.2138s1.8317 2.3283 1.8317 13.545m-8.8607 8.5959c0.25931-1.8262 0.51862-4.9545 0.51862-8.0828s-0.25931-6.2621-0.51862-8.0772c-4.7007-1.5669-17.197-4.6952-34.665-1.8262v19.029c6.251 0.52414 11.465 0.78345 16.166 0.78345 10.163-0.0055 15.895-1.2966 18.499-1.8262m-59.956 0c0.25931-1.8262 0.51862-4.9545 0.51862-8.0828s-0.25931-6.2621-0.51862-8.0772c-4.7007-1.5669-17.197-4.6952-34.665-1.8262v19.029c6.2621 0.52414 11.465 0.78345 16.166 0.78345 10.157-0.005517 15.89-1.2966 18.499-1.8262" fill="#fff"/>
	<g fill="#e31818">
		<path d="m799.49 54.483c0-18.505-14.356-32.066-37.274-32.066-6.7862 0-14.356 1.3021-20.861 4.6952-10.163 5.9972-16.154 15.382-16.154 33.103 0 5.7379 1.291 13.032 3.371 17.992l0.8 1.2966c2.869 5.9917 7.2828 11.206 14.334 14.599 4.7117 2.091 10.174 3.6414 16.949 3.6414h35.443v-14.599h-31.012-5.2138c-13.815-1.3021-16.425-9.3848-16.425-15.117h56.557v-13.556zm-56.563-0.25931c0.25931-7.8179 5.1917-13.297 13.556-14.852 2.869-0.52414 2.869-0.52414 5.9917-0.52414 2.6097 0 4.9434 0 6.7807 0.52414 8.6124 1.8207 12.265 7.2938 12.524 14.852z"/>
		<path d="m541.41 54.483c0-18.505-14.334-32.066-37.274-32.066-6.7862 0-14.345 1.3021-20.85 4.6952-10.174 5.9972-16.166 15.382-16.166 33.103 0 5.7379 1.3021 13.032 3.3821 17.992l0.78896 1.2966c2.8745 5.9917 7.2938 11.206 14.345 14.599 4.7007 2.091 10.174 3.6414 16.938 3.6414h35.454v-14.599h-31.012-5.2138c-13.815-1.3021-16.436-9.3848-16.436-15.117h56.563v-13.556zm-56.563-0.25931c0.25931-7.8179 5.2028-13.297 13.556-14.852 2.8745-0.52414 2.8745-0.52414 5.9917-0.52414 2.6207 0 4.7007 0 6.7807 0.52414 8.6124 1.8207 12.254 7.2938 12.524 14.852z"/>
		<path d="m590.95 22.163c-15.917 0-37.297 7.8124-37.297 35.454v40.403h18.268v-40.673c0-12.519 7.2938-17.468 19.029-17.468 11.724 0 19.018 4.9434 19.018 17.468v40.397h18.257v-40.397c0-27.36-21.12-35.183-37.274-35.183"/>
		<path d="m372.24 22.163c-15.906 0-37.274 7.8124-37.274 35.454v40.403h18.257v-40.673c0-12.519 7.2938-17.468 19.029-17.468 11.724 0 19.018 4.9434 19.018 17.468v40.397h18.246v-40.397c0-27.36-21.114-35.183-37.274-35.183"/>
		<path d="m677.75 22.163c-15.906 0-37.286 7.8124-37.286 35.454v40.403h18.257v-40.673c0-12.519 7.2938-17.468 19.029-17.468 11.724 0 19.018 4.9434 19.018 17.468v40.397h18.257v-40.397c-0.25931-27.36-21.379-35.183-37.274-35.183"/>
		<path d="m440.27 62.83v-21.379h12.265v-15.636c-9.1255 0-12.265-2.6152-12.265-9.9034v-15.906h-18.505v64.646c0 16.679 5.2028 33.379 32.574 33.379h6.5324v-15.117c-14.869-0.01655-20.601-6.2676-20.601-20.083"/>
		<path d="m322.98 97.754v-40.397c0-26.847-21.12-35.194-37.015-35.454v17.986c11.724 0 18.505 4.9434 18.505 17.462v0.26483h-45.103v-0.26483c0-12.519 7.0345-17.462 18.51-17.462v-17.727c-15.912 0.26483-37.021 8.3476-37.021 35.459v40.403h18.251v-25.032h45.357v25.032z"/>
	</g>
	<g fill="#a7a7a9">
		<path d="m560.19 147.28-11.724-16.943c-0.8-1.0372-1.8317-2.6096-2.3504-3.3876v6.7807 13.815h-6.2731v-31.283h6.2731l11.465 16.425c0.78897 1.0428 1.8207 2.6207 2.3504 3.3876v-6.7807-13.291h6.2621v31.283z"/>
		<path d="m613.88 141.29v-7.5586h9.1255v-5.9972h-9.1255v-5.4731h15.906v-6.2566h-22.428v31.283h22.946v-5.9972z"/>
		<path d="m657.93 147.28-11.735-16.943c-0.77793-1.0372-1.8207-2.6096-2.3393-3.3876v6.7807 13.815h-6.251v-31.283h5.9917l11.465 16.425c0.78896 1.0428 1.8207 2.6207 2.3503 3.3876v-6.7807-13.291h6.2621v31.283z"/>
		<path d="m718.41 147.8c-7.8124 0-13.026-4.9434-13.026-14.074v-17.468h6.5324v17.468c0 4.9434 2.3393 8.0828 6.5104 8.0828 4.171 0 6.5214-3.1283 6.5214-8.0828v-17.468h6.5324v17.468c-0.0276 8.8662-4.7283 14.074-13.07 14.074"/>
		<path d="m786.7 147.54c-8.3421 0-14.074-6.2566-14.074-16.166 0-9.3793 5.7324-16.171 14.334-16.171 6.5324 0 9.9034 2.8745 12.265 7.8179l-5.9917 2.3614c-1.3021-2.3614-2.6207-4.1821-6.2731-4.1821-4.6897 0-7.5531 4.1821-7.5531 9.9145 0 5.7214 2.8745 9.909 7.5531 9.909 4.4414 0 6.0028-2.0855 6.2731-4.7062h-5.2138v-5.7379h11.465v4.171c0 8.3586-5.2304 12.789-12.783 12.789"/>
		<path d="m766.64 125.9c0-6.5159-4.9545-9.9034-10.946-9.9034h-14.847v31.283h6.5214v-11.211h6.5214l5.7324 11.211h7.2938l-6.251-11.994c4.1545-1.5614 5.9752-4.6897 5.9752-9.3848m-10.963 4.171h-8.3421v-8.0772h8.3421c2.8745 0 4.7117 1.0372 4.7117 3.9062-0.27034 2.8745-1.8317 4.171-4.7117 4.171"/>
		<path d="m522.65 116h-6.2731l-12.254 31.283h6.7807l2.6207-7.04h11.724l2.6097 7.04h7.0345zm-6.7917 18.51 2.091-5.7324c0.51862-1.8262 1.3021-3.6524 1.5614-4.9434 0.25931 1.0372 1.0372 3.1172 1.5614 4.9434l2.091 5.7324z"/>
		<path d="m462.17 130.34c2.1021-1.291 3.3931-3.3876 3.3931-5.9972 0-5.4731-3.9117-8.3421-10.174-8.3421h-14.599v31.283h14.599c6.7807 0 11.476-3.3876 11.476-10.168-0.25379-3.3876-2.0745-5.4731-4.6952-6.7752m-15.106-8.3421h8.0828c2.869 0 3.9007 1.0372 3.9007 2.869 0 1.8317-1.0372 2.8745-3.6414 2.8745h-8.3421zm8.5848 19.288h-8.6014v-8.0828h8.6014c3.1338 0 4.7117 1.291 4.7117 3.9117-0.27034 2.6097-1.5724 4.171-4.7117 4.171"/>
		<path d="m500.23 125.9c0-6.5159-4.9545-9.9034-10.946-9.9034h-14.847v31.283h6.5214v-11.211h6.5214l5.7324 11.211h7.2938l-6.2621-11.994c3.9062-1.5614 5.9862-4.6897 5.9862-9.3848m-11.211 4.171h-8.3421v-8.0772h8.3421c2.8745 0 4.7007 1.0372 4.7007 3.9062 0 2.869-1.5724 4.171-4.7007 4.171"/>
		<path d="m585.48 116h-9.9034v31.283h9.6331c8.3421 0 16.425-4.7062 16.425-15.641-0.25931-11.206-7.04-15.641-16.154-15.641m-0.52965 25.286h-3.1228v-19.029h3.3821c6.7807 0 9.6441 3.1283 9.6441 9.6441 0 5.4731-3.1283 9.3848-9.9034 9.3848"/>
		<path d="m694.69 130.34c2.091-1.291 3.3931-3.3876 3.3931-5.9972 0-5.4731-3.9117-8.3421-10.185-8.3421h-14.593v31.283h14.593c6.7862 0 11.476-3.3876 11.476-10.168-0.25931-3.3876-2.08-5.4731-4.6841-6.7752m-15.382-8.3421h8.0717c2.8745 0 3.9117 1.0372 3.9117 2.869 0 1.8317-1.0372 2.8745-3.6414 2.8745h-8.6124zm8.6014 19.288h-8.6014v-8.0828h8.6014c3.1228 0 4.7007 1.291 4.7007 3.9117 0 2.6097-1.5779 4.171-4.7007 4.171"/>
	</g>
</svg>
