<?xml version="1.0" encoding="UTF-8" standalone="no"?>
<!-- Created with Inkscape (http://www.inkscape.org/) -->
<svg
   xmlns:svg="http://www.w3.org/2000/svg"
   xmlns="http://www.w3.org/2000/svg"
   version="1.0"
   width="602.36218"
   height="175.74803"
   id="svg3208">
  <defs
     id="defs3210" />
  <g
     transform="translate(-818.33484,-579.47442)"
     id="layer1">
    <g
       transform="matrix(5.3389442,0,0,5.3389442,-3532.9926,-3105.4052)"
       id="g3246">
      <path
         d="M 904.33482,714.60102 C 903.01357,714.60102 902.08483,715.65853 902.08482,717.19477 C 902.08482,718.78852 902.95106,719.78852 904.27232,719.78852 C 905.43982,719.78852 906.30357,719.05352 906.30357,717.75727 L 906.30357,717.10102 L 904.49107,717.10102 L 904.49107,718.03852 L 905.30357,718.03852 C 905.24482,718.47727 904.99481,718.81978 904.30357,718.81977 C 903.54482,718.81977 903.11607,718.12478 903.11607,717.19477 C 903.11607,716.25602 903.54607,715.60103 904.30357,715.60102 C 904.85232,715.60102 905.08482,715.88228 905.27232,716.25727 L 906.24107,715.85102 C 905.90982,715.07227 905.36606,714.60101 904.33482,714.60102 z M 849.64732,714.66352 L 849.64732,719.72602 L 851.92857,719.72602 C 853.00982,719.72603 853.74107,719.16352 853.74107,718.10102 C 853.74105,717.54601 853.42732,717.15477 853.02232,716.97602 C 853.35482,716.77352 853.55357,716.44102 853.55357,716.00727 C 853.5536,715.14228 852.94107,714.66352 851.95982,714.66352 L 849.64732,714.66352 z M 854.77232,714.66352 L 854.77232,719.72602 L 855.77232,719.72602 L 855.77232,717.91352 L 856.80357,717.91352 L 857.70982,719.72602 L 858.86607,719.72602 L 857.89732,717.75727 C 858.53983,717.50603 858.86607,717.01602 858.86607,716.25727 C 858.86608,715.18226 858.06732,714.66352 857.11607,714.66352 L 854.77232,714.66352 z M 861.33482,714.66352 L 859.39732,719.72602 L 860.49107,719.72602 L 860.89732,718.60102 L 862.74107,718.60102 L 863.14732,719.72602 L 864.24107,719.72602 L 862.33482,714.66352 L 861.33482,714.66352 z M 865.33482,714.66352 L 865.33482,719.72602 L 866.33482,719.72602 L 866.33482,717.50727 C 866.33482,717.22727 866.30357,716.56977 866.30357,716.38227 C 866.36732,716.51352 866.52606,716.78851 866.64732,716.97602 L 868.52232,719.72602 L 869.42857,719.72602 L 869.42857,714.66352 L 868.42857,714.66352 L 868.42857,716.78852 C 868.42857,717.06977 868.42857,717.72478 868.42857,717.91352 C 868.36357,717.78352 868.20858,717.53851 868.08482,717.35102 L 866.30357,714.66352 L 865.33482,714.66352 z M 870.86607,714.66352 L 870.86607,719.72602 L 872.36607,719.72602 C 873.66479,719.72603 874.95982,718.96977 874.95982,717.19477 C 874.95983,715.34853 873.86982,714.66352 872.42857,714.66352 L 870.86607,714.66352 z M 876.11607,714.66352 L 876.11607,719.72602 L 879.70982,719.72602 L 879.70982,718.72602 L 877.11607,718.72602 L 877.11607,717.50727 L 878.55357,717.50727 L 878.55357,716.53852 L 877.11607,716.53852 L 877.11607,715.66352 L 879.61607,715.66352 L 879.61607,714.66352 L 876.11607,714.66352 z M 880.80357,714.66352 L 880.80357,719.72602 L 881.80357,719.72602 L 881.80357,717.50727 C 881.80357,717.22727 881.77229,716.56977 881.77232,716.38227 C 881.83732,716.51352 881.99359,716.78851 882.11607,716.97602 L 883.99107,719.72602 L 884.89732,719.72602 L 884.89732,714.66352 L 883.89732,714.66352 L 883.89732,716.78852 C 883.89732,717.06977 883.89732,717.72478 883.89732,717.91352 C 883.83232,717.78352 883.6773,717.53851 883.55357,717.35102 L 881.77232,714.66352 L 880.80357,714.66352 z M 886.33482,714.66352 L 886.33482,719.72602 L 888.61607,719.72602 C 889.69729,719.72603 890.42857,719.16352 890.42857,718.10102 C 890.42859,717.54601 890.11357,717.15477 889.70982,716.97602 C 890.04105,716.77352 890.24107,716.44102 890.24107,716.00727 C 890.24107,715.14228 889.62732,714.66352 888.64732,714.66352 L 886.33482,714.66352 z M 891.55357,714.66352 L 891.55357,717.50727 C 891.55357,718.97852 892.36857,719.78852 893.58482,719.78852 C 894.87107,719.78852 895.64733,718.94101 895.64732,717.47602 L 895.64732,714.66352 L 894.64732,714.66352 L 894.64732,717.50727 C 894.64732,718.31477 894.22857,718.81978 893.58482,718.81977 C 892.94357,718.81977 892.55359,718.28476 892.55357,717.47602 L 892.55357,714.66352 L 891.55357,714.66352 z M 897.05357,714.66352 L 897.05357,719.72602 L 898.05357,719.72602 L 898.05357,717.91352 L 899.08482,717.91352 L 899.99107,719.72602 L 901.14732,719.72602 L 900.17857,717.75727 C 900.81983,717.50603 901.14732,717.01602 901.14732,716.25727 C 901.14733,715.18226 900.34857,714.66352 899.39732,714.66352 L 897.05357,714.66352 z M 850.64732,715.60102 L 851.92857,715.60102 C 852.36984,715.60103 852.52232,715.75102 852.52232,716.06977 C 852.52231,716.35101 852.37732,716.56977 851.95982,716.56977 L 850.64732,716.56977 L 850.64732,715.60102 z M 887.30357,715.60102 L 888.58482,715.60102 C 889.02359,715.60103 889.20982,715.75102 889.20982,716.06977 C 889.20982,716.35101 889.06482,716.56977 888.64732,716.56977 L 887.30357,716.56977 L 887.30357,715.60102 z M 855.77232,715.66352 L 857.08482,715.66352 C 857.53234,715.66351 857.80357,715.83352 857.80357,716.28852 C 857.80359,716.72852 857.55357,716.94477 857.08482,716.94477 L 855.77232,716.94477 L 855.77232,715.66352 z M 871.86607,715.66352 L 872.39732,715.66352 C 873.46232,715.66351 873.89732,716.16352 873.89732,717.19477 C 873.89731,718.11853 873.42732,718.72602 872.36607,718.72602 L 871.86607,718.72602 L 871.86607,715.66352 z M 898.05357,715.66352 L 899.36607,715.66352 C 899.81481,715.66351 900.11607,715.83352 900.11607,716.28852 C 900.11609,716.72852 899.83607,716.94477 899.36607,716.94477 L 898.05357,716.94477 L 898.05357,715.66352 z M 861.80357,715.94477 C 861.85357,716.13226 861.95232,716.42977 862.05357,716.72602 L 862.39732,717.63227 L 861.24107,717.63227 L 861.55357,716.72602 C 861.65482,716.42978 861.75357,716.13227 861.80357,715.94477 z M 850.64732,717.44477 L 851.95982,717.44477 C 852.44981,717.44477 852.70982,717.66852 852.70982,718.10102 C 852.70981,718.49727 852.44982,718.75727 851.95982,718.75727 L 850.64732,718.75727 L 850.64732,717.44477 z M 887.30357,717.44477 L 888.64732,717.44477 C 889.13857,717.44477 889.36607,717.66852 889.36607,718.10102 C 889.36609,718.49727 889.13857,718.75727 888.64732,718.75727 L 887.30357,718.75727 L 887.30357,717.44477 z"
         id="path395"
         style="fill:#524537;fill-opacity:1;fill-rule:nonzero;stroke:none" />
      <path
         d="M 912.67857,693.50727 L 912.67857,699.16352 C 912.67854,699.16353 914.11482,699.31977 915.33482,699.31977 C 917.55983,699.31977 918.11607,698.85102 918.11607,698.85102 C 918.11606,698.85101 918.33482,698.55477 918.33482,697.31977 C 918.33479,696.12101 918.11607,695.85102 918.11607,695.85102 C 918.11607,695.85101 917.11107,695.31977 915.05357,695.31977 C 914.60982,695.32353 914.11107,695.34102 913.58482,695.41352 L 913.58482,693.50727 L 912.67857,693.50727 z M 918.86607,693.50727 L 918.86607,699.16352 C 918.86607,699.16353 920.30232,699.31977 921.52232,699.31977 C 923.74729,699.31977 924.33482,698.85102 924.33482,698.85102 C 924.3348,698.85101 924.52232,698.55477 924.52232,697.31977 C 924.52234,696.12101 924.30357,695.85102 924.30357,695.85102 C 924.30356,695.85101 923.29857,695.31977 921.24107,695.31977 C 920.79856,695.32353 920.29857,695.34102 919.77232,695.41352 L 919.77232,693.50727 L 918.86607,693.50727 z M 847.05357,695.19477 L 847.05357,705.91352 C 847.05354,708.68101 847.92232,711.41352 852.45982,711.41352 C 852.46607,711.41351 853.52232,711.41352 853.52232,711.41352 L 853.52232,708.94477 C 851.05859,708.94478 850.14732,707.93477 850.14732,705.63227 L 850.14732,702.06977 L 852.17857,702.06977 L 852.17857,699.47602 C 850.67734,699.47603 850.14732,699.03227 850.14732,697.81977 L 850.14732,695.19477 L 847.05357,695.19477 z M 912.08482,695.31977 C 908.64732,695.33852 907.30357,696.16352 907.30357,696.16352 L 907.30357,699.25727 L 908.20982,699.25727 L 908.20982,696.75727 C 908.64108,696.61226 909.83482,696.25602 912.08482,696.22602 L 912.08482,695.31977 z M 914.89732,696.19477 C 916.11127,696.1718 916.96951,696.38258 917.36607,696.50727 C 917.38859,696.70351 917.42857,697.04977 917.42857,697.38227 C 917.42856,697.71103 917.41982,698.02977 917.39732,698.22602 C 917.11233,698.30353 916.46107,698.44352 915.33482,698.44477 C 914.83985,698.44603 914.27232,698.40977 913.58482,698.35102 L 913.58482,696.31977 C 914.06076,696.24821 914.49267,696.20243 914.89732,696.19477 z M 921.08482,696.19477 C 922.29835,696.1718 923.18638,696.38258 923.58482,696.50727 C 923.60606,696.70351 923.64732,697.04977 923.64732,697.38227 C 923.64731,697.71103 923.60732,698.02977 923.58482,698.22602 C 923.29979,698.30353 922.64857,698.44352 921.52232,698.44477 C 921.02859,698.44603 920.45857,698.40977 919.77232,698.35102 L 919.77232,696.31977 C 920.24856,696.24821 920.68031,696.20243 921.08482,696.19477 z M 824.49107,698.85102 C 821.84856,698.89352 818.33482,700.25227 818.33482,704.72602 L 818.33482,711.41352 L 821.39732,711.41352 L 821.39732,707.25727 L 828.89732,707.25727 L 828.89732,711.41352 L 831.95982,711.41352 L 831.95982,704.72602 C 831.95984,700.25228 828.44607,698.89352 825.80357,698.85102 L 825.80357,701.81977 C 827.74109,701.81977 828.89732,702.66727 828.89732,704.72602 L 828.89732,704.75727 L 821.39732,704.75727 L 821.39732,704.72602 C 821.3973,702.66728 822.55232,701.81977 824.49107,701.81977 L 824.49107,698.85102 z M 839.45982,698.85102 C 836.79979,698.85102 833.27232,700.17852 833.27232,704.72602 L 833.27232,711.41352 L 836.33482,711.41352 L 836.33482,704.72602 C 836.33484,702.66728 837.52107,701.81977 839.45982,701.81977 C 841.39729,701.81977 842.61607,702.66727 842.61607,704.72602 L 842.61607,711.41352 L 845.64732,711.41352 L 845.64732,704.72602 C 845.64733,700.17853 842.11982,698.85102 839.45982,698.85102 z M 873.14732,698.85102 C 870.48732,698.85102 866.95982,700.17852 866.95982,704.72602 L 866.95982,711.41352 L 870.02232,711.41352 L 870.02232,704.72602 C 870.02234,702.66728 871.20857,701.81977 873.14732,701.81977 C 875.08357,701.81977 876.30357,702.66727 876.30357,704.72602 L 876.30357,711.41352 L 879.33482,711.41352 L 879.33482,704.72602 C 879.3348,700.17853 875.80607,698.85102 873.14732,698.85102 z M 886.74107,698.85102 C 884.08107,698.85102 880.55357,700.17852 880.55357,704.72602 L 880.55357,711.41352 L 883.61607,711.41352 L 883.61607,704.72602 C 883.61605,702.66728 884.80357,701.81977 886.74107,701.81977 C 888.67857,701.81977 889.89732,702.66727 889.89732,704.72602 L 889.89732,711.41352 L 892.92857,711.41352 L 892.92857,704.72602 C 892.92854,700.17853 889.40107,698.85102 886.74107,698.85102 z M 859.74107,698.88227 C 858.62609,698.88226 857.33607,699.10727 856.24107,699.66352 C 854.55482,700.66601 853.55357,702.18977 853.55357,705.13227 C 853.55355,706.09726 853.77107,707.32227 854.11607,708.13227 L 854.20982,708.35102 C 854.6861,709.34352 855.45107,710.24102 856.58482,710.78852 C 857.34605,711.15603 858.26607,711.35102 859.39732,711.35102 L 865.27232,711.35102 L 865.27232,708.94477 L 860.14732,708.94477 C 860.14731,708.94476 859.45982,708.92852 859.27232,708.91352 C 856.98983,708.68727 856.53982,707.36602 856.52232,706.41352 L 865.89732,706.41352 L 865.89732,704.16352 C 865.89732,701.09226 863.55107,698.88227 859.74107,698.88227 z M 900.14732,698.91352 C 899.03106,698.91352 897.74232,699.13852 896.64732,699.69477 C 894.96107,700.69727 893.95982,702.25227 893.95982,705.19477 C 893.95983,706.15978 894.17732,707.35477 894.52232,708.16352 L 894.61607,708.41352 C 895.09235,709.40601 895.85732,710.27102 896.99107,710.81977 C 897.7523,711.18727 898.67232,711.41352 899.80357,711.41352 L 905.67857,711.41352 L 905.67857,708.97602 L 900.55357,708.97602 C 900.55356,708.97602 899.86607,708.99102 899.67857,708.97602 C 897.39608,708.74851 896.94607,707.39727 896.92857,706.44477 L 906.30357,706.44477 L 906.30357,704.22602 C 906.30357,701.15478 903.95607,698.91352 900.14732,698.91352 z M 859.27232,701.56977 C 859.39857,701.56087 859.52107,701.57477 859.77232,701.56977 C 860.20733,701.55978 860.55232,701.58852 860.89732,701.66352 C 862.33731,701.97728 862.92732,702.83727 862.95982,704.10102 L 856.49107,704.10102 C 856.51484,702.81476 857.38357,701.90102 858.77232,701.66352 C 859.01231,701.62289 859.14607,701.57867 859.27232,701.56977 z M 900.17857,701.60102 C 900.61358,701.59101 900.95857,701.61977 901.30357,701.69477 C 902.74356,702.00851 903.33357,702.89852 903.36607,704.16352 L 896.89732,704.16352 C 896.92234,702.87602 897.78982,701.93227 899.17857,701.69477 C 899.65855,701.61352 899.67607,701.61102 900.17857,701.60102 z"
         id="path417"
         style="fill:#b5121b;fill-opacity:1;fill-rule:nonzero;stroke:none" />
    </g>
  </g>
</svg>
