<?xml version="1.0" encoding="UTF-8"?>
<svg width="800" height="367.77" version="1.1" xmlns="http://www.w3.org/2000/svg">
	<path d="m-0.43313 39.836s181.85-39.836 396.73-39.836 403.9 39.836 403.9 39.836v288.39s-189.02 39.837-396.73 39.837c-214.88 0-403.9-39.836-403.9-39.836v-288.39z" fill="#074085"/>
	<path d="m-0.43313 216.12h800.64v112.11s-189.02 39.837-396.73 39.837c-214.88 0-403.9-39.836-403.9-39.836z" fill="#facf00"/>
	<g fill="#074085">
		<path d="m79.55 249.02c-1.4891 0-2.6088 1.0528-2.6088 2.4232v48.212c0 1.3745 0.99942 2.4743 2.4752 2.4743l45.466-2e-3c10.611 0 20.255-1.2517 20.255-14.337 0-7.866-2.0137-11.154-9.9319-12.649-0.30289 0-0.67769 0-1.0528-0.15341 7.1029-1.6425 8.971-5.0838 8.971-12.099 0-11.448-7.8513-13.835-17.717-13.835l-45.858-0.0346zm44.738 41.075h-31.48v-9.6476h28.936c3.1371 0 7.1695 0.60999 7.1695 4.6464 0 2.7622-1.7974 5.0026-4.6276 5.0014zm-3.0665-20.104h-28.347v-9.275h27.886c3.2238 0 6.2223 1.1874 6.2223 4.849 0 3.3054-2.9319 4.4261-5.7621 4.4261z"/>
		<path d="m248.95 301.51h12.346c1.4745 0 2.6621-1.2009 2.6621-2.6768 0-0.49087-0.14021-0.9848-0.37509-1.3877l-26.633-47.199c-0.42285-0.72602-1.1862-1.2197-2.1191-1.2197l-18.039-0.0145c-0.93141 0-1.7294 0.49085-2.1525 1.2208-4.1712 7.5111-26.276 47.246-26.222 47.246-0.24023 0.38688-0.38943 0.86453-0.38943 1.3542 0 1.476 1.1874 2.6768 2.6566 2.6768h11.668c0.94631 0 1.7442-0.54309 2.1671-1.3023l4.3062-7.969h33.872s4.2382 7.9834 4.2727 7.9834c0.42173 0.78334 1.2343 1.2877 2.1671 1.2877h-0.18826zm-12.085-20.341h-22.137l11.288-20.481 10.85 20.481z"/>
		<path d="m583.91 301.75c-0.89657 0-1.6771-0.45516-2.0856-1.1663l-7.678-12.139h-27.562v10.899c-0.0133 1.3397-1.034 2.4073-2.5085 2.4073l-11.476-2e-3c-1.4745 0-2.5088-1.0848-2.5423-2.4408l0.0159-47.836c0.0188-1.3546 1.0503-2.4408 2.5073-2.4408h50.651c11.597 0 14.056 8.1556 14.056 18.035 0 8.5093-3.0185 12.378-9.9519 14.103 0 0 9.9999 16.852 10.052 16.852 0.20288 0.35514 0.30289 0.7648 0.30289 1.2211 2e-3 1.3891-1.114 2.5088-2.5085 2.5088l-11.273-2e-3zm-9.7289-26.31c4.0364 0 6.9519-1.4212 6.9519-5.9138 2e-3 -4.8692-1.1208-7.6314-6.4929-7.6314l-28.057-2e-3v13.547h27.598z"/>
		<path d="m352.17 249.02c-0.78195 0-1.508 0.37088-1.9696 0.94742l-16.968 20.816-16.885-20.831c-0.4563-0.56306-1.1528-0.91792-1.9454-0.91792l-13.801-2e-3c-1.3891 0.02-2.422 1.1076-2.422 2.4434 0 0.57654 0.20148 1.1197 0.55774 1.5425l26.276 30.479v15.987c0 1.3065 1.1194 2.422 2.5939 2.422l11.409-2e-3c1.4891 0 2.5941-1.114 2.5941-2.4886v-15.92l26.818-30.513c0.35626-0.42425 0.558-0.93252 0.558-1.5237 0-1.3411-0.98085-2.4073-2.3554-2.4272l-14.459-0.0147z"/>
		<path d="m473.17 299.39c-0.0346 1.3411-1.1407 2.4284-2.5967 2.4284h-53.568c-1.4759 0-2.5768-1.0862-2.6103-2.442l2e-3 -47.922c0.0335-1.3411 1.1329-2.4272 2.6088-2.4272l53.589-0.0147c1.4557 0 2.5551 1.0874 2.5901 2.4232l2e-3 7.1003c-0.0362 1.3411-1.1357 2.375-2.6117 2.375h-40.176v8.6843h37.873c1.4585 0 2.5594 1.0674 2.5927 2.4218l2e-3 6.2568c-0.0334 1.3357-1.0674 2.3739-2.5287 2.3739h-37.937v9.2686h40.264c1.4543 0 2.4871 1.0862 2.5221 2.4422l-0.0136 7.0335z"/>
		<path d="m698.26 301.89h22.117c1.4759 0 2.442-0.95023 2.4752-2.2857l2e-3 -48.231c-0.0334-1.3557-1.1357-2.354-2.6117-2.354l-10.033 0.0121c-1.4731 0-2.5753 1.0741-2.6141 2.4286l2e-3 14.238c0 8.0864 0.30681 16.155 0.44168 24.244-10.207-13.512-20.717-26.716-31.359-39.786-0.45656-0.59228-1.1008-0.98058-1.9176-0.98058l-21.936-0.0722c-1.4574 0-2.6288 1.1048-2.6635 2.4405v47.974c0.0348 1.3411 1.1396 2.3753 2.5953 2.3753l10.153-2e-3c1.4624 0 2.5622-1.0649 2.5953-2.4258l-0.02-37.799c9.9518 13.388 20.327 26.476 30.924 39.361l1.8507 0.86341z"/>
	</g>
	<g fill="#fff">
		<path d="m149.86 169.69v-86.676c-10.326-5.575-22.494-8.0488-36.53-8.0488-14.243 0-26.417 2.4738-36.534 7.6447v24.969h28.48v-13.628c2.4886-0.8165 4.7475-1.0314 8.0543-1.0314 3.2999 0 5.7804 0.21606 8.0476 1.2343v22.494c-3.0983-0.81396-7.2215-1.4371-11.762-1.4371-13.614 0-24.344 1.6585-33.223 5.3722v49.11c10.321 5.5738 22.084 8.0531 36.732 8.0531 15.069-1e-3 26.631-2.6806 36.736-8.0531zm-28.48-10.73c-2.0654 0.83139-4.7475 1.2343-8.2542 1.2343-3.5082 0-6.3918-0.4029-8.2559-1.2343v-25.585c2.2725-1.0328 4.9493-1.4557 8.2559-1.4557 3.3049 0.20005 6.1888 0.6243 8.2542 1.2343v25.806z"/>
		<path d="m251.17 175.87v-92.655c-10.327-5.5779-23.124-8.2545-37.16-8.2545-14.238 0-27.02 2.6768-37.141 8.2545v92.655h28.682v-76.977c2.2682-1.2382 5.3722-1.4397 8.4572-1.4397 3.3068 0 6.2036 0.20146 8.476 1.4411v76.975h28.684z"/>
		<path d="m324.49 176.91v-21.259h-6.3916c-3.0853 0-6.3918-0.81537-8.4575-1.8482v-54.685h15.258v-22.292h-15.258v-23.548h-29.091v23.548h-9.2551v22.292h9.2551v68.718c9.2888 6.1914 20.225 9.0737 33.23 9.0737h10.711z"/>
		<path d="m521.14 175.87v-92.655c-10.321-5.5779-23.122-8.2545-37.157-8.2545-14.237 0-27.02 2.6768-37.141 8.2545l2e-3 92.655h28.685v-76.977c2.2711-1.2382 5.3708-1.4397 8.456-1.4397 3.3049 0 6.2074 0.20146 8.476 1.4411v76.975h28.682z"/>
		<path d="m623.1 175.87v-92.655c-10.321-5.5779-23.105-8.2545-37.141-8.2545-14.238 0-27.039 2.6768-37.16 8.2545v92.655h28.704v-76.977c2.2539-1.2382 5.3511-1.4397 8.456-1.4397 3.3054 0 6.1888 0.20146 8.4575 1.4411v76.975h28.685z"/>
		<path d="m723.61 169.28v-26.854h-28.684v15.497c-2.2739 1.2357-4.7479 1.456-8.0545 1.456-3.0836-1e-3 -5.9818-0.42173-8.2542-1.456v-24.344h44.993v-49.942c-10.107-5.7806-22.293-8.6762-36.739-8.6762-14.443 0-26.616 2.897-36.534 8.6774v85.64c10.124 5.7806 22.498 8.4613 36.534 8.4613 14.445-1e-3 26.631-2.8822 36.739-8.4613zm-28.684-51.176h-16.309v-23.733c2.2736-1.0342 4.7465-1.456 8.2542-1.456 3.711 0 5.9834 0.42173 8.0545 1.456z"/>
		<path d="m419.84 169.28v-26.854h-28.682v15.497c-2.2671 1.2357-4.7425 1.456-8.0493 1.456-3.085-1e-3 -5.9872-0.42173-8.2556-1.456v-24.344h44.988v-49.942c-10.1-5.7806-22.292-8.6762-36.732-8.6762-14.445 0-26.616 2.897-36.534 8.6774v85.64c10.12 5.7806 22.498 8.4613 36.534 8.4613 14.441-1e-3 26.631-2.8822 36.732-8.4613zm-28.682-51.176h-16.305v-23.733c2.2685-1.0342 4.7437-1.456 8.2556-1.456 3.7095 0 5.9822 0.42173 8.0493 1.456z"/>
	</g>
</svg>
