<?xml version="1.0" encoding="UTF-8"?>
<svg width="800" height="218.17" version="1.1" viewBox="0 0 211.67 57.725" xmlns="http://www.w3.org/2000/svg">
 <g transform="matrix(1.6 0 0 1.6 .001808 0)" fill="#db502b">
  <path d="m91.36 0c-3.168 0-5.732 2.572-5.732 5.732 0 3.18 2.564 5.757 5.732 5.757s5.732-2.578 5.732-5.757c3e-3 -3.16-2.564-5.732-5.732-5.732zm0 0.848c2.69 0 4.896 2.187 4.896 4.884 0 2.715-2.207 4.92-4.896 4.92s-4.896-2.205-4.896-4.92c0-2.697 2.207-4.884 4.896-4.884zm-65.08 1.418a0.39 0.39 0 0 0-0.388 0.388v24.36a0.39 0.39 0 0 0 0.388 0.388h3.442a0.39 0.39 0 0 0 0.388-0.388v-24.36a0.39 0.39 0 0 0-0.388-0.388zm26.24 0.012a0.39 0.39 0 0 0-0.388 0.388v24.348c0 0.216 0.17 0.388 0.388 0.388h3.454c0.217 0 0.388-0.172 0.388-0.388v-7.526c0-2.877 1.684-5.32 3.83-5.32 1.552 0 2.012 1.02 2.012 2.74l-0.012 10.107a0.39 0.39 0 0 0 0.388 0.388h3.43a0.39 0.39 0 0 0 0.388-0.388v-11.127c0-2.87-1.187-5.248-4.884-5.248-2.538 0-4.423 1.22-5.38 3.066l-0.078-0.036c0.232-0.96 0.303-2.34 0.303-3.333v-7.67a0.39 0.39 0 0 0-0.388-0.388h-3.454zm41.17 0.036-5.796 2.086v1.43l1.915-0.69v4.315l3.878-1.382v-5.759zm-83.71 7.732c-3.175 0-6.223 3.134-7.84 5.744-0.753 1.324-1.76 3.43-2.048 5.514-0.3 2.078 0.05 4.334 2.133 5.514 3.154 1.796 6.517 0.238 8.87-1.563 0.212-0.15 0.423-0.34 0.667-0.545a17.71 17.71 0 0 0 1.515-1.454c0.012-0.017 0.037-0.044 0.05-0.06l1.515-1.66 0.06 0.12c1.713 3.06 3.97 6.005 7.405 5.744 0.415-0.072 0.407-0.43 0.412-0.873l-0.024-2.812c0.012-0.3-0.226-0.47-0.63-0.51-0.19-0.017-0.55-0.02-0.75-0.12-0.914-0.45-1.35-1.276-2.097-2.484l-1.43-2.57 4.775-6c1.07-1.464 0.478-1.564-0.497-1.564l-3.1-0.012c-0.448 0.022-0.75 0.183-0.86 0.327l-1.127 1.454-1.394 1.818c-1.358-2.206-2.94-4.012-5.61-4.012zm68.946 0.17c-3.18 0-6.2 3.134-7.83 5.744-0.76 1.324-1.765 3.437-2.048 5.526-0.288 2.078 0.05 4.32 2.133 5.502 4.356 2.477 9.107-1.43 11.053-3.563 0.14-0.15 0.204-0.513 0.05-0.75l-1.83-2.35c-0.332-0.394-0.69-0.438-1.14 0-1.158 1.13-1.78 2.07-3.636 2.872-1.364 0.588-2.127 0.28-2.4-0.17-0.71-1.153 1.265-4.366 1.503-4.787 1.518-2.433 3.114-3.598 4.133-3.648 0.21-0.012 0.6 0.11 0.982 0.497 0.376 0.377 0.773 0.944 1.2 1.648 0.866 1.44 1.765 3.317 2.763 5.102 1.707 3.06 3.9 5.836 7.332 5.575 0.4-0.066 0.4-0.417 0.4-0.86l-0.024-2.824c0.017-0.305-0.22-0.464-0.618-0.497-0.19-0.017-0.55-0.027-0.75-0.12-0.92-0.45-1.24-1.124-1.988-2.327-0.793-1.286-1.424-2.83-2.266-4.34-1.74-3.126-3.447-6.23-7.017-6.23zm-35.777 0.267c-2.477 0-4.224 1.148-5.15 3.066h-0.073c0.095-0.632 0.146-1.395 0.158-2.06a6.82 6.82 0 0 0 0-0.364c0-0.216-0.164-0.388-0.376-0.388h-3.15c-0.216 0-0.388 0.172-0.388 0.388v24.565c0 0.216 0.172 0.388 0.388 0.388h3.442c0.217 0 0.4-0.172 0.4-0.388v-8.375c0.698 0.1 1.316 0.133 2.11 0.133 5.676 0 8.653-3.6 8.653-9.307 0-4.855-2.115-7.66-6.01-7.66zm-1.224 3.466c1.91 0 2.812 1.583 2.812 4.654 0 4.063-1.754 5.575-4.133 5.575-0.853 0-1.542-0.09-2.206-0.29v-4.558c0-2.805 1.315-5.38 3.527-5.38zm-31.97 0.472c0.204-0.012 0.6 0.11 0.982 0.497 0.377 0.377 0.81 0.94 1.236 1.648a28.96 28.96 0 0 1 0.618 1.067 47.67 47.67 0 0 1-2.278 2.581c-1.142 1.114-1.953 2.013-3.793 2.812-1.364 0.588-2.117 0.274-2.388-0.17-0.704-1.153 1.265-4.378 1.503-4.8 1.52-2.433 3.106-3.586 4.12-3.636z" fill-rule="evenodd"/>
  <path d="m101.54 10.06v17.332h1.37v-8.445h9.955v8.445h1.382v-17.332h-1.382v7.623h-9.955v-7.623zm17.438 0v17.332h4.228c2.975 0 5.238-0.74 6.774-2.23 1.543-1.498 2.31-3.705 2.31-6.6 0-2.762-0.727-4.878-2.19-6.33-1.456-1.45-3.583-2.173-6.36-2.173zm1.37 1.218h3.105c2.434 0 4.262 0.618 5.5 1.845s1.86 3.048 1.86 5.486c0 2.535-0.642 4.423-1.916 5.678s-3.19 1.888-5.762 1.888h-2.786z"/>
 </g>
</svg>
