<svg xmlns="http://www.w3.org/2000/svg" width="500" height="145.231" viewBox="0 0 132.292 38.426"><path d="M49.403 29.192v6.8h.69v-6.8zm4.654 0v2.157l-.848-.036c-1.444 0-2.388.92-2.388 2.57 0 1.35.563 2.194 1.71 2.194.745 0 1.34-.44 1.6-1.103l.012.012c-.056.28-.085.726-.085 1.006h.69v-6.8h-.69zm19.633 0v6.8h.69v-2.424l1.83 2.424h.91l-1.988-2.52 1.842-2.11h-.848l-1.745 2.085V29.19h-.69zm17.222 0v6.8h.69v-6.8zm-43.122.388c-.222.045-.388.244-.388.473a.47.47 0 0 0 .485.473c.26 0 .485-.202.485-.473 0-.26-.224-.473-.485-.473-.034 0-.065-.006-.097 0zm-25.94.085l-1.806.036v6.3h1.212v-2.594h.036l1.757 2.594h1.503l-1.515-2.11-.51-.69c.95-.15 1.6-.825 1.6-1.757 0-1.286-.9-1.77-2.278-1.77zm5.575 0l-2.036.05v6.266l1.757.048c2.05 0 3.466-1.123 3.466-3.284 0-2.208-1.24-3.078-3.187-3.078zm17.113.012l-1.757.024v6.3l1.515.036c1.985 0 2.4-1.2 2.4-1.89 0-.67-.4-1.315-1.333-1.454v-.024c.708-.205 1.188-.8 1.188-1.49 0-.913-.642-1.49-2.012-1.49zm-28.783.024l-2.206 6.3h1.224l.436-1.285h2.375l.448 1.285h1.333l-2.242-6.3zm28.65.557c1.11 0 1.394.434 1.394 1.03 0 .745-.58 1.188-1.697 1.188-.242 0-.4-.003-.606-.012V30.27l.91-.012zm-22.678.4c.764 0 1.14.29 1.14.897 0 .587-.45.957-1.176.957-.186 0-.352-.003-.436-.012v-1.818c.12-.02.296-.024.473-.024zm5.61.024c1.435 0 1.963.806 1.963 2.157 0 1.49-.853 2.157-2.036 2.157a4.45 4.45 0 0 1-.667-.048v-4.242c.196-.02.46-.024.74-.024zm-10.956.412h.012a7.74 7.74 0 0 0 .291 1.006l.582 1.648H15.52l.57-1.6a11.4 11.4 0 0 0 .291-1.054zm46.647.17c-.81 0-1.387.456-1.648 1.127h-.024c.047-.28.073-.732.073-1.03h-.69v4.63h.703v-2.23c0-1.1.59-1.915 1.418-1.915.67 0 .86.425.86 1.15v2.994h.703v-3.236c0-.82-.33-1.49-1.394-1.49zm21.027 0a1.71 1.71 0 0 0-1.66 1.127h-.024a7.43 7.43 0 0 0 .085-1.03h-.69v4.63h.69v-2.23c0-1.1.59-1.915 1.418-1.915.67 0 .873.425.873 1.15v2.994h.69v-3.236c0-.82-.32-1.49-1.382-1.49zm-16.76.012c-1.258 0-2.012.825-2.012 1.794 0 .596.225 1.075.69 1.345-.326.15-.51.435-.51.75 0 .298.172.536.46.667-.438.224-.8.658-.8 1.236 0 .885.753 1.357 1.927 1.357 1.426 0 2.436-.73 2.436-1.71 0-.81-.545-1.297-1.55-1.297h-.91c-.578 0-.836-.13-.836-.4 0-.168.106-.328.34-.412.168.037.428.06.642.06 1.333 0 2.012-.757 2.012-1.745 0-.438-.178-.804-.448-1.018h.836v-.545h-1.575a2.9 2.9 0 0 0-.703-.085zm4.4 0c-1.174 0-1.818.584-1.818 1.357 0 1.65 2.266.954 2.266 2.072 0 .485-.468.788-1.14.788a4.01 4.01 0 0 1-1.042-.158l-.012.642a5.22 5.22 0 0 0 .982.097c1.21 0 1.927-.646 1.927-1.466 0-1.575-2.254-.94-2.254-2.048 0-.457.326-.727 1.006-.727.317 0 .662.055.97.158l.012-.606c-.29-.056-.608-.11-.897-.11zm7.26 0c-.624 0-1.162.156-1.6.35l.06.606a2.82 2.82 0 0 1 1.418-.4c.8 0 1.054.392 1.054 1.09v.388c-1.808 0-2.812.667-2.812 1.636 0 .736.524 1.127 1.26 1.127.792 0 1.388-.467 1.612-1.054h.024c-.047.27-.05.615-.05.97h.69L80.6 34.61V32.79c0-.876-.36-1.515-1.636-1.515zm9.138 0c-.624 0-1.162.156-1.6.35l.06.606a2.82 2.82 0 0 1 1.418-.4c.8 0 1.054.392 1.054 1.09v.388c-1.808 0-2.812.667-2.812 1.636 0 .736.536 1.127 1.273 1.127.792 0 1.388-.467 1.612-1.054h.012c-.047.27-.048.615-.048.97h.69l-.012-1.382V32.79c0-.876-.372-1.515-1.648-1.515zm-40.574.085V36h.703v-4.63zm8.386 0v3.236c0 .82.33 1.49 1.394 1.49a1.71 1.71 0 0 0 1.66-1.127l.012.012a7.27 7.27 0 0 0-.073 1.018h.69v-4.63h-.703v2.23c0 1.1-.577 1.915-1.406 1.915-.67 0-.873-.412-.873-1.14V31.36h-.703zm11.356.46c.764 0 1.224.43 1.224 1.176s-.496 1.15-1.26 1.15c-.783 0-1.236-.397-1.236-1.15 0-.68.47-1.176 1.273-1.176zm-14.12.036a3.91 3.91 0 0 1 .909.109v1.636c0 .82-.46 1.903-1.382 1.903-.764 0-1.115-.63-1.115-1.673 0-1.398.637-1.975 1.588-1.975zm-9.04 1.15c1.034 0 1.854.266 1.854 1.15 0 .736-.49 1.285-1.6 1.285a5.3 5.3 0 0 1-.86-.061V33.02l.606-.012zm35.79.812v.073c0 .8-.537 1.612-1.357 1.612-.457 0-.764-.27-.764-.69 0-.447.378-.994 2.12-.994zm9.138 0v.073c0 .8-.537 1.612-1.357 1.612-.457 0-.75-.27-.75-.69 0-.447.366-.994 2.11-.994zm-22.542 2.194c.084.01.2.012.303.012h.945c.708 0 1.054.294 1.054.788 0 .615-.596 1.042-1.612 1.042-.773 0-1.345-.313-1.345-.91 0-.39.254-.728.654-.933z" fill="#fff"/><g fill="#db502b"><path d="M91.36 0c-3.168 0-5.732 2.572-5.732 5.732 0 3.18 2.564 5.757 5.732 5.757s5.732-2.578 5.732-5.757C97.095 2.572 94.528 0 91.36 0zm0 .848c2.69 0 4.896 2.187 4.896 4.884 0 2.715-2.207 4.92-4.896 4.92s-4.896-2.205-4.896-4.92c0-2.697 2.207-4.884 4.896-4.884zm-65.08 1.418a.39.39 0 0 0-.388.388v24.36a.39.39 0 0 0 .388.388h3.442a.39.39 0 0 0 .388-.388V2.654a.39.39 0 0 0-.388-.388zm26.24.012a.39.39 0 0 0-.388.388v24.348c0 .216.17.388.388.388h3.454c.217 0 .388-.172.388-.388v-7.526c0-2.877 1.684-5.32 3.83-5.32 1.552 0 2.012 1.02 2.012 2.74l-.012 10.107a.39.39 0 0 0 .388.388h3.43a.39.39 0 0 0 .388-.388V15.888c0-2.87-1.187-5.248-4.884-5.248-2.538 0-4.423 1.22-5.38 3.066l-.078-.036c.232-.96.303-2.34.303-3.333v-7.67a.39.39 0 0 0-.388-.388h-3.454zm41.17.036L87.894 4.4v1.43l1.915-.69v4.315l3.878-1.382V2.314zm-83.71 7.732c-3.175 0-6.223 3.134-7.84 5.744-.753 1.324-1.76 3.43-2.048 5.514-.3 2.078.05 4.334 2.133 5.514 3.154 1.796 6.517.238 8.87-1.563.212-.15.423-.34.667-.545a17.71 17.71 0 0 0 1.515-1.454c.012-.017.037-.044.05-.06l1.515-1.66.06.12c1.713 3.06 3.97 6.005 7.405 5.744.415-.072.407-.43.412-.873l-.024-2.812c.012-.3-.226-.47-.63-.51-.19-.017-.55-.02-.75-.12-.914-.45-1.35-1.276-2.097-2.484l-1.43-2.57 4.775-6c1.07-1.464.478-1.564-.497-1.564l-3.1-.012c-.448.022-.75.183-.86.327l-1.127 1.454-1.394 1.818c-1.358-2.206-2.94-4.012-5.61-4.012zm68.946.17c-3.18 0-6.2 3.134-7.83 5.744-.76 1.324-1.765 3.437-2.048 5.526-.288 2.078.05 4.32 2.133 5.502 4.356 2.477 9.107-1.43 11.053-3.563.14-.15.204-.513.05-.75l-1.83-2.35c-.332-.394-.69-.438-1.14 0-1.158 1.13-1.78 2.07-3.636 2.872-1.364.588-2.127.28-2.4-.17-.71-1.153 1.265-4.366 1.503-4.787 1.518-2.433 3.114-3.598 4.133-3.648.21-.012.6.11.982.497.376.377.773.944 1.2 1.648.866 1.44 1.765 3.317 2.763 5.102 1.707 3.06 3.9 5.836 7.332 5.575.4-.066.4-.417.4-.86l-.024-2.824c.017-.305-.22-.464-.618-.497-.19-.017-.55-.027-.75-.12-.92-.45-1.24-1.124-1.988-2.327-.793-1.286-1.424-2.83-2.266-4.34-1.74-3.126-3.447-6.23-7.017-6.23zm-35.777.267c-2.477 0-4.224 1.148-5.15 3.066h-.073c.095-.632.146-1.395.158-2.06a6.82 6.82 0 0 0 0-.364c0-.216-.164-.388-.376-.388h-3.15c-.216 0-.388.172-.388.388V35.69c0 .216.172.388.388.388h3.442c.217 0 .4-.172.4-.388v-8.375c.698.1 1.316.133 2.11.133 5.676 0 8.653-3.6 8.653-9.307 0-4.855-2.115-7.66-6.01-7.66zm-1.224 3.466c1.91 0 2.812 1.583 2.812 4.654 0 4.063-1.754 5.575-4.133 5.575-.853 0-1.542-.09-2.206-.29V19.33c0-2.805 1.315-5.38 3.527-5.38zm-31.97.472c.204-.012.6.11.982.497.377.377.81.94 1.236 1.648a28.96 28.96 0 0 1 .618 1.067 47.67 47.67 0 0 1-2.278 2.581c-1.142 1.114-1.953 2.013-3.793 2.812-1.364.588-2.117.274-2.388-.17-.704-1.153 1.265-4.378 1.503-4.8 1.52-2.433 3.106-3.586 4.12-3.636z" fill-rule="evenodd"/><path d="M101.542 10.06v17.332h1.37v-8.445h9.955v8.445h1.382V10.06h-1.382v7.623h-9.955V10.06zm17.438 0v17.332h4.228c2.975 0 5.238-.74 6.774-2.23 1.543-1.498 2.31-3.705 2.31-6.6 0-2.762-.727-4.878-2.19-6.33-1.456-1.45-3.583-2.173-6.36-2.173zm1.37 1.218h3.105c2.434 0 4.262.618 5.5 1.845s1.86 3.048 1.86 5.486c0 2.535-.642 4.423-1.916 5.678s-3.19 1.888-5.762 1.888h-2.786z"/></g></svg>