<?xml version="1.0" encoding="UTF-8"?>
<svg width="800" height="297.27" version="1.1" viewBox="0 0 211.67 78.652" xmlns="http://www.w3.org/2000/svg">
 <path d="m199.17 0a12.507 12.507 0 0 0-12.497 12.497c0 6.9307 5.5907 12.551 12.497 12.551s12.497-5.6187 12.497-12.551c0.00933-6.8907-5.5907-12.497-12.497-12.497zm0 1.8493c5.8627 0 10.675 4.768 10.675 10.648 0 5.92-4.8134 10.728-10.675 10.728s-10.673-4.808-10.673-10.728c0-5.88 4.8134-10.648 10.673-10.648zm-141.87 3.0934c-0.47334 0-0.84534 0.4-0.84534 0.84534v53.107c0 0.46 0.37334 0.84534 0.84534 0.84534h7.504c0.47334 0 0.84534-0.4 0.84534-0.84534v-53.108c0-0.46-0.37334-0.84534-0.84534-0.84534zm57.203 0.026667c-0.47333 0-0.84533 0.38667-0.84533 0.84534v53.067a0.84001 0.84001 0 0 0 0.84533 0.84534h7.5294a0.84001 0.84001 0 0 0 0.84534-0.84534v-16.396c0-6.2707 3.672-11.6 8.3494-11.6 3.384 0 4.3867 2.2267 4.3867 5.9707l-0.0267 22.035c0 0.472 0.38667 0.84534 0.84534 0.84534h7.4774c0.45733 0 0.84533-0.37334 0.84533-0.84534v-24.253c0-6.26-2.5893-11.44-10.648-11.44-5.5334 0-9.6427 2.6614-11.731 6.684l-0.16934-0.08c0.50667-2.0907 0.66001-5.1027 0.66001-7.2667v-16.721c0-0.46-0.37334-0.84534-0.84534-0.84534h-7.5294zm89.755 0.080001-12.629 4.544v3.1134l4.1734-1.5067v9.4054l8.4534-3.0134v-12.547zm-182.51 16.852c-6.9227 0-13.567 6.832-17.093 12.523-1.644 2.888-3.8374 7.4787-4.4667 12.023-0.63067 4.5307 0.10933 9.4467 4.6507 12.02 6.876 3.9147 14.207 0.52 19.34-3.408 0.46134-0.32667 0.92001-0.74134 1.4667-1.1893 1.3173-1.124 2.4333-2.2267 3.3027-3.1707 0.02667-0.03733 0.08-0.096 0.10667-0.13333a112.79 112.79 0 0 0 3.3027-3.62l0.13333 0.264c3.7334 6.6707 8.6534 13.091 16.144 12.523 0.90667-0.15733 0.88667-0.93334 0.89867-1.9027l-0.05333-6.1294c0.02667-0.676-0.49334-1.024-1.3733-1.1093-0.41067-0.036-1.2-0.04667-1.64-0.264-1.992-0.97867-2.9414-2.7827-4.5707-5.416-1.0773-1.74-2.0773-3.632-3.1174-5.6l10.409-13.08c2.3333-3.1907 1.0427-3.4094-1.0827-3.4094l-6.7374-0.02667c-0.97734 0.048-1.6347 0.4-1.876 0.71334l-2.4573 3.1707-3.04 3.9627c-2.96-4.808-6.4067-8.7467-12.233-8.7467zm150.31 0.36934c-6.9334 0-13.537 6.832-17.067 12.523-1.656 2.888-3.8494 7.4934-4.4667 12.048-0.62667 4.5307 0.10667 9.4214 4.6507 11.996 9.4961 5.4 19.853-3.116 24.096-7.768 0.30266-0.32667 0.44533-1.12 0.10666-1.64l-3.9894-5.1254c-0.724-0.85867-1.5027-0.95467-2.484 0-2.524 2.4667-3.8667 4.5094-7.9267 6.2614-2.9734 1.28-4.6374 0.60934-5.2307-0.36934-1.5467-2.5133 2.7574-9.5174 3.276-10.436 3.3107-5.304 6.7867-7.844 9.0094-7.9534 0.46001-0.02667 1.3067 0.23734 2.14 1.0827 0.82 0.82134 1.6853 2.0587 2.616 3.5934 1.8867 3.1414 3.8467 7.232 6.024 11.123 3.72 6.6694 8.48 12.72 15.984 12.153 0.89334-0.14667 0.872-0.90934 0.872-1.876l-0.0533-6.156c0.0373-0.66667-0.48-1.0107-1.3467-1.0827-0.41066-0.03733-1.2-0.05867-1.64-0.264-2.004-0.97867-2.7014-2.4507-4.3334-5.0734-1.7293-2.804-3.104-6.1734-4.9414-9.4587-3.792-6.816-7.5147-13.58-15.297-13.58zm-77.995 0.58134c-5.4 0-9.2094 2.504-11.229 6.684h-0.16c0.20667-1.3773 0.32-3.0427 0.344-4.4934 0.01333-0.03733 0.0013-0.792 0-0.792 0-0.47067-0.35734-0.84534-0.81867-0.84534h-6.8694a0.84001 0.84001 0 0 0-0.84534 0.84534v53.556a0.84001 0.84001 0 0 0 0.84534 0.84534h7.504c0.47334 0 0.872-0.37334 0.872-0.84534v-18.255c1.5227 0.21734 2.8694 0.29067 4.5974 0.29067 12.373 0 18.864-7.8454 18.864-20.291-1e-3 -10.584-4.6107-16.699-13.107-16.699zm-2.6667 7.556c4.1667 0 6.1294 3.4534 6.1294 10.147 0 8.8574-3.8267 12.153-9.0094 12.153-1.8587 0-3.36-0.2-4.808-0.63467v-9.9334c0-6.1147 2.8667-11.731 7.688-11.731zm-69.694 1.0293c0.44534-0.02667 1.3067 0.23734 2.14 1.0827 0.82267 0.82134 1.764 2.0467 2.6933 3.5934a63.134 63.134 0 0 1 1.348 2.3253c-1.6933 2.0427-3.3334 3.924-4.9667 5.6267-2.4907 2.432-4.2574 4.392-8.2574 6.132-2.9734 1.28-4.6134 0.596-5.2054-0.36934-1.5333-2.5133 2.7574-9.5441 3.276-10.463 3.3134-5.304 6.7734-7.8174 8.9827-7.9267z" fill="#db502b" fill-rule="evenodd" stroke-width="1.3333"/>
</svg>
