<svg xmlns="http://www.w3.org/2000/svg" width="600" height="237.48" viewBox="0 0 158.75 62.834"><path d="M80.78 47.73v11.116h1.13V47.73zm7.61 0v3.527l-1.387-.06c-2.362 0-3.904 1.504-3.904 4.2 0 2.21.92 3.587 2.794 3.587 1.22 0 2.19-.72 2.616-1.803l.02.02a10 10 0 0 0-.139 1.645h1.13V47.73h-1.13zm32.1 0v11.116h1.13v-3.963l2.992 3.963h1.486l-3.25-4.122 3.012-3.448h-1.387l-2.853 3.408V47.73h-1.13zm28.158 0v11.116h1.13V47.73zm-70.506.634c-.363.073-.634.4-.634.773a.77.77 0 0 0 .793.773.78.78 0 0 0 .793-.773c0-.427-.366-.773-.793-.773-.055 0-.107-.01-.16 0zm-42.412.14l-2.953.06v10.285h1.982v-4.24h.06l2.873 4.24h2.457L37.672 55.4l-.832-1.13c1.554-.244 2.616-1.35 2.616-2.873 0-2.103-1.455-2.893-3.725-2.893zm9.115 0l-3.33.08v10.245l2.873.08c3.352 0 5.667-1.835 5.667-5.37 0-3.61-2.027-5.033-5.212-5.033zm27.98.02l-2.873.04v10.285l2.477.06c3.245 0 3.924-1.98 3.924-3.09 0-1.097-.656-2.15-2.18-2.378v-.04c1.158-.335 1.942-1.3 1.942-2.437 0-1.493-1.05-2.437-3.29-2.437zm-47.062.04l-3.606 10.285h2l.713-2.1h3.884l.733 2.1h2.18l-3.666-10.285zm46.844.912c1.813 0 2.28.71 2.28 1.684 0 1.22-.946 1.942-2.774 1.942a20.82 20.82 0 0 1-.991-.019v-3.587l1.486-.02zm-37.08.653c1.25 0 1.863.476 1.863 1.466 0 .96-.734 1.566-1.922 1.566a8.8 8.8 0 0 1-.713-.019v-2.972c.198-.03.483-.04.773-.04zm9.175.04c2.346 0 3.2 1.318 3.2 3.527 0 2.438-1.394 3.527-3.33 3.527-.396 0-.816-.034-1.1-.08v-6.936c.32-.03.752-.04 1.21-.04zm-17.913.674h.02c.122.58.278 1.08.476 1.645l.95 2.695h-2.853l.93-2.616a18.64 18.64 0 0 0 .476-1.724zm76.27.278c-1.325 0-2.268.746-2.695 1.843h-.04c.076-.457.12-1.197.12-1.684h-1.13v7.57h1.15V55.2c0-1.798.963-3.13 2.318-3.13 1.097 0 1.407.694 1.407 1.882v4.895h1.15v-5.29c0-1.34-.542-2.437-2.28-2.437zm34.38 0a2.8 2.8 0 0 0-2.715 1.843h-.04a12.15 12.15 0 0 0 .139-1.684h-1.13v7.57h1.13V55.2c0-1.798.963-3.13 2.318-3.13 1.097 0 1.427.694 1.427 1.882v4.895h1.13v-5.29c0-1.34-.522-2.437-2.26-2.437zm-27.405.02c-2.057 0-3.29 1.348-3.29 2.933 0 .975.368 1.758 1.13 2.2-.533.244-.832.71-.832 1.23 0 .488.28.877.753 1.1-.716.366-1.308 1.077-1.308 2.02 0 1.447 1.23 2.22 3.15 2.22 2.33 0 3.983-1.194 3.983-2.794 0-1.326-.89-2.12-2.536-2.12h-1.486c-.945 0-1.367-.212-1.367-.654 0-.274.174-.537.555-.674.274.06.7.1 1.05.1 2.18 0 3.29-1.24 3.29-2.853 0-.716-.29-1.314-.733-1.665h1.367v-.892h-2.576c-.396-.09-.723-.14-1.15-.14zm7.193 0c-1.92 0-2.972.955-2.972 2.22 0 2.697 3.706 1.56 3.706 3.388 0 .792-.766 1.288-1.863 1.288-.594 0-1.217-.12-1.704-.258l-.02 1.05c.457.092 1.04.16 1.605.16 1.98 0 3.15-1.057 3.15-2.398 0-2.575-3.686-1.536-3.686-3.35 0-.747.533-1.19 1.645-1.19.518 0 1.083.1 1.585.258l.02-.99c-.472-.09-.994-.178-1.466-.178zm11.87 0c-1.02 0-1.9.255-2.616.575l.1.99a4.61 4.61 0 0 1 2.318-.654c1.3 0 1.724.64 1.724 1.783v.634c-2.956 0-4.597 1.09-4.597 2.675 0 1.204.857 1.843 2.06 1.843 1.295 0 2.27-.764 2.636-1.724h.04c-.076.442-.08 1.006-.08 1.585h1.13l-.04-2.26v-2.972c0-1.432-.588-2.477-2.675-2.477zm14.94 0c-1.02 0-1.9.255-2.616.575l.1.99a4.61 4.61 0 0 1 2.318-.654c1.3 0 1.724.64 1.724 1.783v.634c-2.956 0-4.597 1.09-4.597 2.675 0 1.204.877 1.843 2.08 1.843 1.295 0 2.27-.764 2.635-1.724h.02c-.076.442-.08 1.006-.08 1.585h1.13l-.02-2.26v-2.972c0-1.432-.608-2.477-2.695-2.477zm-66.34.14v7.57h1.15v-7.57zm13.712 0v5.29c0 1.34.542 2.437 2.28 2.437a2.8 2.8 0 0 0 2.715-1.843l.02.02c-.076.457-.12 1.177-.12 1.665h1.13v-7.57h-1.15v3.646c0 1.798-.943 3.13-2.3 3.13-1.097 0-1.427-.674-1.427-1.863v-4.914H91.4zm18.567.753c1.25 0 2 .703 2 1.922s-.812 1.882-2.06 1.882c-1.28 0-2.02-.648-2.02-1.882 0-1.112.77-1.922 2.08-1.922zm-23.085.06a6.39 6.39 0 0 1 1.486.178v2.675c0 1.34-.75 3.11-2.26 3.11-1.25 0-1.823-1.028-1.823-2.735 0-2.285 1.042-3.23 2.596-3.23zM72.1 53.97c1.69 0 3.032.435 3.032 1.883 0 1.204-.803 2.1-2.616 2.1-.67 0-1.133-.053-1.407-.1V53.99l.99-.02zm58.516 1.328v.12c0 1.3-.88 2.636-2.22 2.636-.747 0-1.248-.444-1.248-1.13 0-.73.62-1.625 3.468-1.625zm14.94 0v.12c0 1.3-.88 2.636-2.22 2.636-.747 0-1.23-.444-1.23-1.13 0-.73.6-1.625 3.448-1.625zM108.7 58.885a5.47 5.47 0 0 0 .495.019h1.546c1.158 0 1.724.48 1.724 1.288 0 1.006-.975 1.704-2.636 1.704-1.264 0-2.2-.51-2.2-1.486 0-.64.415-1.19 1.07-1.526z" fill="#fff"/><path d="M149.38 0a9.38 9.38 0 0 0-9.373 9.373c0 5.198 4.193 9.413 9.373 9.413s9.373-4.214 9.373-9.413C158.76 4.205 154.56 0 149.38 0zm0 1.387c4.397 0 8.006 3.576 8.006 7.986 0 4.44-3.61 8.046-8.006 8.046s-8.005-3.606-8.005-8.046c0-4.41 3.61-7.986 8.005-7.986zm-106.4 2.32c-.355 0-.634.3-.634.634v39.83c0 .345.28.634.634.634h5.628c.355 0 .634-.3.634-.634V4.34c0-.345-.28-.634-.634-.634zm42.902.02c-.355 0-.634.29-.634.634v39.8a.63.63 0 0 0 .634.634h5.647a.63.63 0 0 0 .634-.634V31.864c0-4.703 2.754-8.7 6.262-8.7 2.538 0 3.29 1.67 3.29 4.478l-.02 16.526c0 .354.29.634.634.634h5.608c.343 0 .634-.28.634-.634v-18.19c0-4.695-1.942-8.58-7.986-8.58-4.15 0-7.232 1.996-8.798 5.013l-.127-.06c.38-1.568.495-3.827.495-5.45V4.36c0-.345-.28-.634-.634-.634h-5.647zm67.316.06l-9.472 3.408V9.53l3.13-1.13v7.054l6.34-2.26V3.784zM16.318 16.426c-5.192 0-10.175 5.124-12.82 9.392C2.265 27.984.62 31.427.148 34.835-.325 38.233.23 41.92 3.636 43.85c5.157 2.936 10.655.39 14.505-2.556.346-.245.69-.556 1.1-.892.988-.843 1.825-1.67 2.477-2.378.02-.028.06-.072.08-.1a84.59 84.59 0 0 0 2.477-2.715l.1.198c2.8 5.003 6.49 9.818 12.108 9.392.68-.118.665-.7.674-1.427l-.04-4.597c.02-.507-.37-.768-1.03-.832-.308-.027-.9-.035-1.23-.198-1.494-.734-2.206-2.087-3.428-4.062-.808-1.305-1.558-2.724-2.338-4.2l7.807-9.81c1.75-2.393.782-2.557-.812-2.557l-5.053-.02c-.733.036-1.226.3-1.407.535l-1.843 2.378-2.28 2.972c-2.22-3.606-4.805-6.56-9.175-6.56zm112.73.277c-5.2 0-10.153 5.124-12.8 9.392-1.242 2.166-2.887 5.62-3.35 9.036-.47 3.398.08 7.066 3.488 8.997 7.122 4.05 14.89-2.337 18.072-5.826.227-.245.334-.84.08-1.23l-2.992-3.844c-.543-.644-1.127-.716-1.863 0-1.893 1.85-2.9 3.382-5.945 4.696-2.23.96-3.478.457-3.923-.277-1.16-1.885 2.068-7.138 2.457-7.827 2.483-3.978 5.09-5.883 6.757-5.965.345-.02.98.178 1.605.812.615.616 1.264 1.544 1.962 2.695 1.415 2.356 2.885 5.424 4.518 8.342 2.79 5.002 6.36 9.54 11.988 9.115.67-.11.654-.682.654-1.407l-.04-4.617c.028-.5-.36-.758-1.01-.812-.308-.028-.9-.044-1.23-.198-1.503-.734-2.026-1.838-3.25-3.805-1.297-2.103-2.328-4.63-3.706-7.094-2.844-5.112-5.636-10.185-11.473-10.185zm-58.496.436c-4.05 0-6.907 1.878-8.422 5.013h-.12c.155-1.033.24-2.282.258-3.37.01-.028.001-.594 0-.594 0-.353-.268-.634-.614-.634h-5.152a.63.63 0 0 0-.634.634v40.167a.63.63 0 0 0 .634.634h5.628c.355 0 .654-.28.654-.634V44.664c1.142.163 2.152.218 3.448.218 9.28 0 14.148-5.884 14.148-15.218-.001-7.938-3.458-12.524-9.83-12.524zm-2 5.667c3.125 0 4.597 2.59 4.597 7.61 0 6.643-2.87 9.115-6.757 9.115-1.394 0-2.52-.15-3.606-.476v-7.45c0-4.586 2.15-8.798 5.766-8.798zm-52.27.772c.334-.02.98.178 1.605.812.617.616 1.323 1.535 2.02 2.695a47.35 47.35 0 0 1 1.011 1.744c-1.27 1.532-2.5 2.943-3.725 4.22C15.325 34.873 14 36.343 11 37.648c-2.23.96-3.46.447-3.904-.277-1.15-1.885 2.068-7.158 2.457-7.847 2.485-3.978 5.08-5.863 6.737-5.945z" fill="#db502b" fill-rule="evenodd"/></svg>