<?xml version="1.0" encoding="UTF-8"?>
<svg width="800" height="297.16" version="1.1" xmlns="http://www.w3.org/2000/svg">
	<g fill="#eb6119">
		<path d="m354.59 86.801c-20.372 0-34.697 9.5113-42.343 25.236h-0.51638a135.61 135.61 0 0 0 1.266-16.907v-2.965a3.1482 3.1482 0 0 0-3.1482-3.1982h-25.869a3.1482 3.1482 0 0 0-3.1316 3.1982v201.8a3.1649 3.1649 0 0 0 3.1316 3.1982h28.317a3.1815 3.1815 0 0 0 3.1982-3.1982v-68.778a121.35 121.35 0 0 0 17.374 1.0661c46.64 0 71.06-29.55 71.06-76.49 0.0333-39.827-17.307-62.964-49.339-62.964zm-20.855 112.6a61.199 61.199 0 0 1-18.206-2.4486v-37.429c0-23.054 10.827-44.208 29.017-44.208 15.708 0 23.07 13.009 23.07 38.312 0 33.314-14.458 45.774-33.881 45.774z"/>
		<path d="m614.52 150.53c-1.9489 3.4647-18.156 29.866-12.293 39.344 2.1988 3.6979 8.4952 6.2465 19.689 1.4159 15.275-6.6629 20.305-14.259 29.833-23.537 3.6812-3.598 6.563-3.2482 9.3281 0l14.992 19.322a5.4969 5.4969 0 0 1-0.38311 6.1132c-16.008 17.523-55.069 49.655-90.815 29.317-17.157-9.7445-19.989-28.217-17.557-45.258 2.432-17.04 10.711-34.497 16.89-45.391 13.326-21.455 38.312-47.173 64.414-47.173 29.317 0 43.309 25.452 57.617 51.121 6.8961 12.393 12.076 25.086 18.573 35.597 6.1632 9.8944 8.795 15.458 16.341 19.156a20.388 20.388 0 0 0 6.1798 0.99945c3.2482 0.29983 5.2637 1.6657 5.1638 4.1477 0 0 0.2332 16.024 0.16657 23.137 0 3.6313 0 6.563-3.3314 7.1293-28.317 2.1321-46.157-20.655-60.216-45.807-8.212-14.675-15.575-30.133-22.704-41.943a70.377 70.377 0 0 0-9.8278-13.509 11.96 11.96 0 0 0-8.1454-4.0977c-8.3286 0.41643-21.405 9.9943-33.897 29.983z"/>
		<path d="m212.7 22.537a3.2148 3.2148 0 0 1 3.2315-3.1982h28.317a3.1982 3.1982 0 0 1 3.1649 3.1982v200.14a3.1815 3.1815 0 0 1-3.1649 3.1482h-28.317a3.1982 3.1982 0 0 1-3.2315-3.1482z"/>
		<path d="m511.06 139.64c0-14.109-3.7146-22.504-16.474-22.504-17.64 0-31.482 19.989-31.482 43.675v61.815a3.1649 3.1649 0 0 1-3.1649 3.1982h-28.317a3.1649 3.1649 0 0 1-3.1815-3.1982v-199.99a3.1649 3.1649 0 0 1 3.1815-3.1649h28.317a3.1649 3.1649 0 0 1 3.1649 3.1649v63.031c0 8.1454-0.53304 19.522-2.432 27.401l0.53303 0.24987c7.8789-15.175 23.32-25.236 44.225-25.236 30.383 0 40.177 19.556 40.177 43.159v91.432a3.1982 3.1982 0 0 1-3.2148 3.1482h-28.117a3.1982 3.1982 0 0 1-3.2148-3.1482z"/>
		<path d="m181.32 191.41a20.988 20.988 0 0 1-6.1465-1.0161c-7.5291-3.6812-11.094-10.477-17.224-20.405-4.081-6.5296-7.8789-13.659-11.81-21.121 7.9955-9.7611 39.228-49.239 39.228-49.239 8.8117-12.043 3.9478-12.926-4.0477-12.926h-25.402a9.8944 9.8944 0 0 0-7.0627 2.5985c-2.1488 2.7151-5.5802 7.3125-9.2448 11.977l-11.494 14.992c-11.16-18.223-24.186-32.981-46.141-32.981-26.102 0-51.054 25.719-64.364 47.173-6.2298 10.861-14.492 28.217-16.874 45.374-2.382 17.157 0.39977 35.53 17.607 45.274 25.935 14.725 53.553 1.9322 72.892-12.859 1.6657-1.2493 3.548-2.7651 5.5302-4.4808a139.8 139.8 0 0 0 12.46-11.977l0.28318-0.49972c4.081-4.2143 8.3286-8.8616 12.476-13.626l0.56634 0.99943c14.042 25.152 32.615 49.305 60.832 47.157 3.3314-0.56634 3.3314-3.5147 3.3314-7.146 0-7.1126-0.14991-23.12-0.14991-23.12 0.0167-2.5152-1.9156-3.8645-5.247-4.1476zm-94.946-24.569c-9.378 9.1781-16.024 16.491-31.166 23.037-11.177 4.8473-17.423 2.2654-19.672-1.4159-5.83-9.478 10.394-35.88 12.36-39.328 12.493-19.989 25.519-29.517 33.881-29.983a12.16 12.16 0 0 1 8.1954 4.1143 72.209 72.209 0 0 1 10.128 13.526c1.6657 2.7484 3.3314 5.6801 4.9972 8.7784-6.3631 7.679-12.576 14.875-18.673 21.271z"/>
		<path d="m752.66 3.0541e-6a47.323 47.323 0 1 0 47.34 47.307 47.323 47.323 0 0 0-47.34-47.307zm0 87.7a40.377 40.377 0 1 1 40.394-40.394 40.36 40.36 0 0 1-40.394 40.394z"/>
		<path d="m724.04 36.196v11.777l15.774-5.7134v35.63l31.865-11.41v-47.373z"/>
	</g>
</svg>
