<svg xmlns="http://www.w3.org/2000/svg" width="500" height="173.593" viewBox="0 0 132.292 45.93" ><path d="M88.733 14.03h43.558l-15.733 25.994H88.733z" fill="#c10606"/><path d="M31.187 45.803c-1.162-.436-2.4-1.646-3.38-3.28-1.092-1.838-2.478-5.832-3.22-9.287l-.255-1.184-1.58.1-4.872.247-3.388.25c-.053.052-.368.578-.7 1.168-2.138 3.805-4.314 6.293-6.415 7.333-1.693.84-3.445.55-4.786-.8-.866-.866-1.876-2.952-2.267-4.682-.404-1.78-.437-5.245-.067-6.87.304-1.337.968-2.783 1.567-3.415.888-.938 2.17-1.164 2.936-.52.42.354.423.368.237.988-.708 2.353-.962 8.113-.457 10.366.247 1.1.588 1.823.974 2.067.594.373 1.63-.382 2.7-1.965.64-.948 2-3.368 2-3.55 0-.045-.338-.126-.75-.18-1.063-.138-2.144-.66-2.553-1.235-.274-.384-.345-.663-.345-1.356 0-1.23.13-1.344 1.257-1.112 1.368.28 3.815.45 3.955.272.133-.168 1.3-3.3 2.055-5.443.833-2.4 2.123-6.734 2.82-9.444.58-2.256.706-2.6 1.02-2.777.5-.28 1.04-.1 1.484.472 1.134 1.486 1.313 3.822.526 6.867-.613 2.375-1.8 5.97-2.74 8.244l-.805 2.007c-.06.184.092.212.974.18l3.877-.127c2.53-.08 2.823-.114 2.762-.325-.127-.43-.937-6.456-1.66-12.35-.95-7.755-1.286-9.7-2-11.606-.456-1.215-.896-1.68-1.593-1.68-2.43 0-7.394 5.77-8.712 10.128-.4 1.357-.37 3.1.087 3.707.615.83 1.612 1.3 2.92 1.35.817.037 1.002.184 1.002.794 0 .86-.645 1.718-1.717 2.28-.688.36-2.78.364-3.823.006-1.006-.345-2.06-1.314-2.473-2.27-.64-1.485-.52-4 .308-6.48 1.46-4.384 5.307-9.3 8.95-11.433C16.383.483 17.975.002 19.24 0c1.456-.002 2.335.383 3.333 1.46 1.818 1.964 2.9 5.663 3.74 12.67.55 4.636 1.173 9.238 1.658 12.235 1.4 8.666 3.184 15.05 4.45 15.937.414.3 1.158.052 3.006-.965 1.05-.578 1.5-.763 1.682-.67 1.244.666.967 2.45-.6 3.807-.335.292-1.026.73-1.537.97-.772.367-1.132.447-2.147.48-.67.022-1.412-.033-1.648-.122zm22.24-6.106c-1.357-.45-2.414-1.306-3.246-2.635l-.427-.68-.396.537c-1.1 1.503-2.276 2.36-3.47 2.552-1.47.235-2.502-1.242-2.9-4.136-.45-3.372.134-12.468.913-14.198.43-.954 1.1-1.7 2.002-2.222.84-.482 1.37-.53 1.7-.153.223.247.225.4.024 1.967-.483 3.793-.82 8.26-.842 11.168-.013 1.665.028 3.08.1 3.142s.27-.075.462-.308c.52-.633 1.786-3.14 1.786-3.537 0-.2.196-.74.437-1.22.523-1.048 1.096-1.46 2.025-1.46h.64l.17 1.57c.5 4.7 2.114 7.495 3.823 6.68.558-.266.698-.653.6-1.664-.056-.587-.287-1.03-1.47-2.82-2.93-4.43-3.9-6.43-4.22-8.777-.35-2.5 1.064-5.045 3.26-5.873.676-.255 1.036-.297 2.104-.247 2.102.097 3.368.86 4.105 2.472.46 1.007.458 2.706-.005 3.74-.6 1.32-1.672 2.02-2.85 1.843-.564-.085-.623-.13-.544-.406.444-1.545.45-3.668.013-4.334-.595-.907-1.58-.7-2.013.443-.357.935-.225 2.223.355 3.462.25.534 1.343 2.292 2.43 3.907 2.252 3.35 2.542 3.868 2.74 4.906.404 2.13-1.218 4.936-3.493 6.043-1.097.534-2.64.63-3.825.24zm20.046.13c-1.303-.396-2.507-1.666-3.204-3.38l-.323-.793-.515.775c-1.416 2.134-3.518 3.416-4.868 2.97-1.247-.4-2-2.036-2.194-4.662-.13-1.86.302-9.575.883-15.78.12-1.28.2-2.375.154-2.433s-1.468-.057-3.184 0c-2.657.1-3.17.073-3.448-.1-.666-.436-.288-1.643.67-2.138.307-.16 1.07-.2 3.28-.223 3.28-.017 3.06.074 3.22-1.345.238-2.116 2.03-4.23 3.585-4.23.68 0 .8.443.582 2.146l-.288 2.378-.095.875 12.616-.146v.5c0 1.446-.146 1.477-8.586 1.82l-4.093.2c-.18.06-.227.474-.623 5.443-.552 6.92-.787 13.08-.5 13.35.165.16 1.088-1.007 1.855-2.35l.707-1.238.1-1.805c.22-3.648.73-5.98 1.77-8.128.746-1.536 1.85-2.816 2.88-3.336.805-.406 2.364-.55 3.283-.303.766.206 1.773.894 2.162 1.477 1.042 1.562.643 3.718-.76 4.106-.818.226-1.3-.023-1.405-.74-.13-.815-.572-1.768-.9-1.944-1.265-.677-2.495 3.05-2.708 8.206-.176 4.243.52 7.494 1.57 7.342.692-.1 1.562-2.03 2.1-4.673l.277-1.338-.553-.63c-.66-.75-.948-1.648-.94-2.934.012-1.84.787-2.992 2.012-2.992.352 0 .834.1 1.07.223.505.26 1.23 1.34 1.36 2.022.05.262.15.515.224.56.327.202 2.434-1.573 3.35-2.822.58-.8.973-.802 1.292-.04.436 1.042.146 2.298-.78 3.387-.844.993-2.018 1.998-3.025 2.6l-.785.462-.178 1.28c-.223 1.604-.9 3.836-1.587 5.143-.694 1.343-2.136 2.8-3.093 3.124-.733.247-1.754.293-2.373.105zm-39.626-.672c-.524-.666-.664-1.475-1.213-6.993-.82-8.226-1.017-11.653-.73-12.617.5-1.686 2.422-3.227 3.313-2.656.102.065.204.888.27 2.18.1 1.913.142 2.538.2 2.715.01.037.248-.413.53-1 .66-1.375 1.287-2.132 2.155-2.596 1.373-.735 2.7-.613 3.316.3.307.452.335.62.284 1.717-.066 1.4-.55 2.673-1.187 3.1-.505.33-.817.14-.982-.6-.225-1.008-.47-1.703-.598-1.703-.212 0-.76 1.084-1.123 2.218-.9 2.845-1.36 5.995-1.493 10.446-.097 3.216-.097 3.22-.54 4.15-.774 1.624-1.58 2.117-2.192 1.34zM45.72 12.45c-.192-.1-.48-.4-.637-.67-.555-.95-.447-4.233.187-5.666.508-1.148 1.918-2.213 2.93-2.213.648 0 .946.316.946 1.002 0 .825-1 5.848-1.3 6.535-.395.9-1.404 1.388-2.138 1.013zm73.642 3.827l-9.523 15.18V22.46h-4.564v15.1H111l13.783-21.3zm-27.752.428v4.366h6.778v16.733h4.634V21.07h6.817v-4.366z" fill="#f9f9f9"/></svg>