<svg xmlns="http://www.w3.org/2000/svg" width="643.352" height="110.174" viewBox="0 0 482.514 82.631"><defs><linearGradient x1="450.47" y1="646.99" gradientTransform="translate(10.554 -394.3)" x2="611.83" gradientUnits="userSpaceOnUse" y2="518.34" id="a"><stop offset="0" stop-color="#535353"/><stop offset="1" stop-color="#bbbcbe"/></linearGradient></defs><path d="M186.886 0h33.65c.03 4.98.04 9.96-.02 14.95 6.67.11 13.35.02 20.03.05.01 7.07.01 14.14 0 21.21-6.67.04-13.34-.01-20 .04-.06 15.25.07 30.5.19 45.75-7.79.43-15.72 1.33-23.43-.34-5.4-1.01-9.77-5.99-9.84-11.53-.74-11.27-.57-22.58-.55-33.88-4.6-.03-9.2-.03-13.8-.03-.03-7.07-.02-14.14-.01-21.22 4.62 0 9.24.07 13.86-.11-.12-4.96-.07-9.93-.08-14.89zM39.236 13.89c13.28-1.5 27.5-.87 39.5 5.55 6.55 3.26 11.99 9.87 11.6 17.51-.2 15.09.33 30.17.21 45.26-11.22.03-22.43.01-33.64.01-.02-6.33-.04-12.67.02-19.01-5.19 1.39-10.42 2.81-15.3 5.07-2.88 1.54-6.1 4.11-5.67 7.77.56 2.42 2.35 4.24 3.82 6.14-10.49.09-20.97 0-31.45.05-3.9.46-6.66-3.19-7.84-6.46-.95-5.03-.72-10.79 2.63-14.95 5.18-7 14.28-8.98 22.32-10.63 5.86-.49 11.59-1.87 17.42-2.58 3.84-.46 7.66-1.21 11.33-2.46 2.67-1.06 3.34-4.57 1.97-6.89-1.09-2.16-3.65-2.96-5.86-3.41-4.08-.61-8.65-.45-12.14 2-1.93 1.43-2.36 3.93-2.82 6.12-10.75.03-21.5.02-32.24.01 1.03-7.55 4.45-15.01 10.5-19.83 7.12-6.06 16.62-8.08 25.64-9.27zM139.506 22.95c5.04-8.85 16.92-11.3 26.01-7.92.08 7.07.03 14.13.03 21.19-5.6.15-11.44-.6-16.8 1.44-4.4 1.84-6.92 6.59-6.94 11.23-.13 11.11.03 22.23-.08 33.34-11.37-.11-22.75.21-34.12-.16.13-22.25.05-44.51.04-66.76 10.46.04 20.92.02 31.38.01-.07 2.55-.27 5.16.48 7.63zM272.736 16.66c13.17-4.12 27.78-4.49 40.86.18 7.62 2.46 14.42 7.36 19 13.95 6.96 9.9 8.24 22.67 6.93 34.42-19.72.03-39.45.03-59.17 0-.06 5.59-.02 11.19-.03 16.79-8.36-.09-16.73.18-25.07-.12-2.16-1.62-3.27-4.18-4.53-6.47-5.65-10.23-6.39-22.82-3.07-33.92 3.24-11.94 13.39-21.3 25.08-24.83m14.2 18.87c-5.1 1.67-7.92 7.1-7.68 12.27 9.24.11 18.46-.23 27.69-.23-.74-3.01-1.2-6.29-3.41-8.65-3.88-4.92-11.07-4.99-16.6-3.39z" fill="#fa481c"/><g><path d="M501.8 88.773h151.08c7.21 0 13.015 5.805 13.015 13.015v84.613c0 7.21-5.805 13.015-13.015 13.015H501.8a12.987 12.987 0 0 1-13.015-13.015v-84.613c0-7.21 5.805-13.015 13.015-13.015z" fill="url(#a)" transform="matrix(.72817 0 0 .72817 -2.369 -64.578)"/><path d="M369.906 12.82v55.697h14.208V47.652h17.63v20.865h14.207V12.82h-14.208v20.492h-17.63V12.82zM423.98 12.82v55.697h16.564c17.841 0 31.318-7.33 31.318-28.76 0-21.25-13.555-26.938-31.318-26.938-4.314.047-16.564 0-16.564 0zm14.124 13.102h4.81c12.784 0 14.044 8.037 14.195 14.02.155 6.145-1.415 14.985-13.835 15.114-1.474.015-5.17 0-5.17 0V25.922z" fill="#fff" fill-rule="evenodd"/></g></svg>