<?xml version="1.0" encoding="UTF-8"?>
<svg version="1.1" viewBox="0 0 110.3 450" xmlns="http://www.w3.org/2000/svg">
	<path d="m18.552 384.9c0.08439-25.121 6.8358-56.079 31.872-56.079h59.778v44.292h-25.74c-0.08439 0 3.7836 10.802 6.3013 18.988 1.5331 5.5839 4.6838 9.7192 10.352 10.085 4.7682 0.45009 9.1847-4.951 9.1847-4.951v43.392c0 0.0844-3.5163 9.6348-13.868 9.3675-19.804-0.90018-27.005-16.288-31.422-54.194-2.5177-20.437-4.5009-22.687-9.6348-22.772-4.2337 0-9.0018 2.5177-9.1847 14.037 0 16.653 11.252 15.486 11.252 15.486v42.491c0 0.18284-38.891-0.26725-38.891-60.129zm0.90018-134.39c2.1661 14.769 14.319 19.888 14.319 19.888h-12.687v41.324h89.118v-45.009h-42.674c-7.5672-0.0844-10.887-2.1661-13.587-4.951-3.1506-3.1506-5.4011-8.5517-5.4011-14.586v-12.687h-27.456c0 0.0844-2.9678 6.5685-1.6175 16.02zm-19.452-89.835v44.559h21.07v18.538h27.456v-18.538h36.373c7.8344 0 14.22 0.0844 20.437-5.5839 5.1338-5.0354 4.951-11.618 4.951-19.438v-19.438h-61.747v-26.738h-27.456v26.738h-21.07zm19.171-97.304c0.81579-74.715 68.414-62.647 68.498-62.647v79.75h22.505v32.589c0-0.0844-12.152 13.418-36.092 13.137-55.896-0.45009-54.911-60.495-54.911-62.83zm46.008-19.452c-0.08439 0.08439-18.271-1.8848-18.271 19.438-0.08439 20.521 18.186 18.271 18.271 18.271v-37.723z" fill="#fa481c"/>
</svg>
