<svg xmlns="http://www.w3.org/2000/svg" width="464.64" height="192"><defs><linearGradient id="A" x1="137.733" y1="121.452" x2="169.552" y2="121.452" spreadMethod="pad" gradientUnits="userSpaceOnUse"><stop offset="0" stop-color="#26348c"/><stop offset="1" stop-color="#5fc3e3"/></linearGradient><linearGradient id="B" x1="116.769" y1="143.231" x2="116.769" y2="128.711" gradientUnits="userSpaceOnUse"><stop offset="0" stop-color="#b74d98"/><stop offset="1" stop-color="#8e4c96"/></linearGradient><linearGradient id="C" x1="128.033" y1="164.868" x2="165.34" y2="164.868" gradientUnits="userSpaceOnUse"><stop offset="0" stop-color="#ea175a"/><stop offset="1" stop-color="#d5da01"/></linearGradient></defs><g fill="#d9cb73"><rect width="37.307" height="180.022" x="415.701" y="6.625" rx="10"/><path d="M300.615 6.625a9.98 9.98 0 0 0-10 10v17.307a9.98 9.98 0 0 0 10 10h29.248v132.986a9.98 9.98 0 0 0 10 10h17.3a9.98 9.98 0 0 0 10-10V43.932h29.248a9.98 9.98 0 0 0 10-10V16.625a9.98 9.98 0 0 0-10-10zM231.86 6.56l-45.506.066a9.98 9.98 0 0 0-10 10v160.02a9.98 9.98 0 0 0 10 10h15.287a9.98 9.98 0 0 0 10-10V116.1l17.676-.05 29.025 65.857c1.4 3.2 7.377 4.748 12.557 4.748h18c5.18 0 12.273-7.8 7.688-16.436l-33.592-63.258c9.748-6.37 17.556-15.698 21.535-26.74 7.415-19.338 2.353-42.638-12.46-57.125-10.466-10.693-25.336-16.482-40.22-16.53zm2.404 33.717c11.686 1.254 22.106 12.178 20.506 24.277-1.206 12.242-13.603 20.7-25.406 19.97H211.64V40.02s14.906-.25 22.623.256zM128.033 6.625s-3.817.001-7.223 5.002L12.654 170.434c-5.925 8.7 1.476 16.213 6.6 16.213h10.744c10.438 0 16.714.056 19.734-4.38l78.3-114.97v13.98a9.98 9.98 0 0 0 10 10h17.307a9.98 9.98 0 0 0 10-10V16.625a9.98 9.98 0 0 0-10-10z"/></g><path d="M146.687 143.09l18.653 14.562h21.043a9.98 9.98 0 0 0 10-10v-9.123a9.98 9.98 0 0 0-10-10H165.34z" fill="#6db52b"/><path d="M138.033 99.814a9.98 9.98 0 0 0-10 10v18.713l18.653 14.562 18.653-14.562v-18.713a9.98 9.98 0 0 0-10-10z" fill="url(#A)"/><path d="M146.687 143.09l-18.653-14.562H107a9.98 9.98 0 0 0-10 10v9.123a9.98 9.98 0 0 0 10 10h21.043z" fill="url(#B)"/><path d="M146.687 143.09l-18.653 14.562v18.996a9.98 9.98 0 0 0 10 10h17.307a9.98 9.98 0 0 0 10-10V157.65z" fill="url(#C)"/></svg>