<svg xmlns="http://www.w3.org/2000/svg" xmlns:xlink="http://www.w3.org/1999/xlink" width="1504.555" height="377.88" version="1"><defs><linearGradient id="b"><stop offset="0" stop-color="#363636"/><stop offset="1"/></linearGradient><linearGradient id="a"><stop offset="0" stop-color="#fff"/><stop offset="1" stop-color="#242424"/></linearGradient><linearGradient xlink:href="#a" id="c" x1="1444.999" y1="452.996" x2="1444.999" y2="649" gradientUnits="userSpaceOnUse" gradientTransform="translate(-7.445 -304.873)"/><linearGradient xlink:href="#b" id="d" x1="1384.999" y1="98.082" x2="1384.999" y2="191.078" gradientUnits="userSpaceOnUse" gradientTransform="translate(-47.445 -4.873)"/><filter id="e" x="-.01" width="1.019" y="-.016" height="1.032" color-interpolation-filters="sRGB"><feGaussianBlur stdDeviation="1.442"/></filter></defs><path d="M133.3 33.787L6.32 290.208c-14.884 30.044-2.579 66.47 27.465 81.353 30.054 14.883 66.48 2.578 81.363-27.466 0 0 36.934-81.822 72.44-153.506 35.315 71.645 72.038 153.382 72.038 153.382 14.825 30.082 51.233 42.444 81.305 27.619 30.082-14.826 42.445-51.233 27.62-81.305L242.174 33.892C231.96 13.173 210.875.034 187.77.015 164.665 0 143.553 13.087 133.3 33.787" fill="#dc181d"/><path d="M975.913 6.321c-30.044-14.883-66.47-2.587-81.353 27.466 0 0-36.944 81.822-72.45 153.515-35.305-71.645-72.038-153.39-72.038-153.39C739.32 12.09 717.212-.34 694.393.101c-.125 0-.25-.016-.364-.016H363.95c-33.273 0-60.25 26.977-60.25 60.25 0 33.274 26.977 60.251 60.25 60.251h92.412V316.68c0 33.532 27.188 60.72 60.72 60.72s60.72-27.188 60.72-60.72V120.587h79.61l110.112 223.407c10.206 20.728 31.3 33.858 54.404 33.877 23.106.015 44.218-13.072 54.472-33.772l126.98-256.412c14.882-30.053 2.586-66.47-27.467-81.362" fill="#fff"/><path d="M1078.555 60.127h426v284h-568z" fill="url(#c)"/><path d="M1100.555 95.127v218h43v-92h80v92h44v-218h-44v82h-80v-82zm193 0v218h82c46.536 0 84-37.464 84-84v-50c0-46.536-37.464-84-84-84zm44 41h26c29.916 0 54 24.084 54 54v28c0 29.916-24.084 54-54 54h-26z" fill="url(#d)" stroke="#000" stroke-width="4"/><path d="M1110 102v218h43v-92h80v92h44V102h-44v82h-80v-82zm193 0v218h82c46.536 0 84-37.464 84-84v-50c0-46.536-37.464-84-84-84zm44 41h26c29.916 0 54 24.084 54 54v28c0 29.916-24.084 54-54 54h-26z" transform="translate(-7.445 -4.873)" fill="none" stroke="#000" stroke-width="5" filter="url(#e)"/></svg>