<?xml version="1.0" encoding="UTF-8" standalone="no"?>
<!-- Created with Inkscape (http://www.inkscape.org/) -->

<svg
   xmlns:dc="http://purl.org/dc/elements/1.1/"
   xmlns:cc="http://creativecommons.org/ns#"
   xmlns:rdf="http://www.w3.org/1999/02/22-rdf-syntax-ns#"
   xmlns:svg="http://www.w3.org/2000/svg"
   xmlns="http://www.w3.org/2000/svg"
   version="1.1"
   width="756.89746"
   height="127.64674"
   id="svg2">
  <metadata
     id="metadata8">
    <rdf:RDF>
      <cc:Work
         rdf:about="">
        <dc:format>image/svg+xml</dc:format>
        <dc:type
           rdf:resource="http://purl.org/dc/dcmitype/StillImage" />
        <dc:title></dc:title>
      </cc:Work>
    </rdf:RDF>
  </metadata>
  <defs
     id="defs6" />
  <g
     transform="translate(-31.112842,-25.075988)"
     id="g3083">
    <g
       transform="matrix(0.98292409,0,0,1.0134292,3.0240566,-0.33674998)"
       id="g3063">
      <path
         d="m 299.69516,62.933514 37.8576,-37.566351 -308.976,-0.291175 0,125.221152 163.66117,0 84.4515,-69.308461"
         id="path5870"
         style="fill:#ec1b2c;fill-rule:nonzero;stroke:none" />
      <path
         d="m 545.18698,126.12655 -103.67152,-52.709395 0,49.506095 -26.50029,0 0,-83.869144 104.54516,55.039092 0,-49.506024 25.62665,0 z M 299.69516,99.917442 246.6946,150.29714 l 326.44874,2.4e-4 0,-124.93029 -183.17243,7.3e-5 -68.72603,55.621516"
         id="path5872"
         style="fill:#ec1b2c;fill-rule:nonzero;stroke:none" />
      <path
         d="m 274.06855,37.598084 -44.55544,0 47.17632,43.390595 -76.87997,66.396331 48.63241,1.16486 51.25329,-48.632428 24.17066,23.005808 44.55545,0 -47.17639,-41.934571 61.44576,-53.000575 -44.26421,0 -38.73127,34.94541 -25.62661,-25.33543"
         id="path5874"
         style="fill:#ffffff;fill-rule:nonzero;stroke:none" />
      <path
         d="m 274.06855,37.598084 -44.55544,0 47.17632,43.390595 -76.87997,66.396331 48.63241,1.16486 51.25329,-48.632428 24.17066,23.005808 44.55545,0 -47.17639,-41.934571 61.44576,-53.000575 -44.26421,0 -38.73127,34.94541 -25.62661,-25.33543 z"
         id="path5882"
         style="fill:none;stroke:#ffffff;stroke-width:4.89236307;stroke-linecap:butt;stroke-linejoin:miter;stroke-miterlimit:4;stroke-dasharray:none" />
      <path
         d="m 415.01517,39.054106 0,83.869144 26.50029,0 0,-49.506095 103.67152,52.709395 0,-81.539376 -25.62665,0 0,49.506024 -104.54516,-55.039092"
         id="path5884"
         style="fill:#ffffff;fill-rule:nonzero;stroke:none" />
      <path
         d="m 415.01517,39.054106 0,83.869144 26.50029,0 0,-49.506095 103.67152,52.709395 0,-81.539376 -25.62665,0 0,49.506024 -104.54516,-55.039092 z"
         id="path5886"
         style="fill:none;stroke:#ffffff;stroke-width:4.89236307;stroke-linecap:butt;stroke-linejoin:miter;stroke-miterlimit:4;stroke-dasharray:none" />
      <path
         d="M 127.29762,37.598084 52.747343,122.632 l 26.209112,0 16.016636,-16.89031 64.940309,0 13.97819,17.18156 25.91787,0 -72.51184,-85.325166"
         id="path5888"
         style="fill:#ffffff;fill-rule:nonzero;stroke:none" />
      <path
         d="M 127.29762,37.598084 52.747343,122.632 l 26.209112,0 16.016636,-16.89031 64.940309,0 13.97819,17.18156 25.91787,0 -72.51184,-85.325166 z"
         id="path5890"
         style="fill:none;stroke:#ffffff;stroke-width:4.89236307;stroke-linecap:butt;stroke-linejoin:miter;stroke-miterlimit:4;stroke-dasharray:none" />
      <path
         d="m 127.00645,64.680794 -22.71456,25.33543 44.84662,0 -22.13206,-25.33543"
         id="path5898"
         style="fill:#ec1b2c;fill-rule:nonzero;stroke:none" />
    </g>
    <g
       id="g3078">
      <path
         d="m 587.23711,25.371 200.7732,0 0,126.608 -200.7732,0 z"
         id="rect3074"
         style="fill:#000000;fill-opacity:1;fill-rule:nonzero;stroke:none" />
      <g
         id="text3019"
         style="font-size:131.61219788px;font-style:normal;font-variant:normal;font-weight:bold;font-stretch:normal;line-height:125%;letter-spacing:0px;word-spacing:0px;fill:#008000;fill-opacity:1;stroke:none;font-family:Gotham Narrow;-inkscape-font-specification:Gotham Narrow Bold">
        <path
           d="m 602.9375,39.625 0,92.125 19.09375,0 0,-39.5 36.28125,0 0,39.5 19.0625,0 0,-92.125 -19.0625,0 0,36.96875 -36.28125,0 0,-36.96875 -19.09375,0 z m 92.90625,0 0,92.125 37.75,0 c 6.66831,0 12.71623,-1.08771 18.15625,-3.28125 5.43991,-2.19353 8.03955,-5.30764 11.8125,-9.34375 3.86055,-4.03609 4.79437,-6.81602 6.8125,-12.34375 2.10571,-5.61542 3.15617,-13.806369 3.15625,-20.5625 l 0,-1.1875 c -8e-5,-6.75604 -1.05054,-14.909728 -3.15625,-20.4375 -2.01813,-5.615383 -2.95195,-8.395308 -6.8125,-12.34375 -3.77295,-4.036023 -6.37259,-7.150126 -11.8125,-9.34375 -5.44002,-2.193445 -11.48794,-3.281157 -18.15625,-3.28125 l -37.75,0 z m 19.0625,17.25 18.53125,0 c 7.28249,7.5e-5 11.18139,2.4303 15.65625,7.34375 4.47476,4.913584 4.71875,12.005952 4.71875,21.21875 l 0,0.65625 c 0,9.212891 -0.24399,16.27401 -4.71875,21.1875 -4.47486,4.8258 -8.37376,7.21875 -15.65625,7.21875 l -18.53125,0 0,-57.625 z"
           id="path3024"
           style="fill:#ffffff" />
      </g>
    </g>
  </g>
</svg>
