<?xml version="1.0" encoding="UTF-8"?>
<svg width="800" height="152.12" version="1.1" xmlns="http://www.w3.org/2000/svg" xmlns:xlink="http://www.w3.org/1999/xlink">
	<defs>
		<linearGradient id="linearGradientBase" x1="-593.86" x2="-592.86" y1="2555.4" y2="2555.4" gradientTransform="matrix(26.997 26.997 -26.997 26.997 85120 -52892)" gradientUnits="userSpaceOnUse">
			<stop stop-color="#fff" offset="0"/>
			<stop stop-color="#B3B2B2" offset="1"/>
		</linearGradient>
		<linearGradient id="linearGradient3" x1="99" x2="126.01" y1="63.05" y2="90.106" gradientTransform="matrix(1.3002 0 0 1.3002 -4e-6 -3.5547e-7)" gradientUnits="userSpaceOnUse" xlink:href="#linearGradientBase"/>
		<linearGradient id="linearGradient2" x1="67.5" x2="113.52" y1="72" y2="72" gradientTransform="scale(1.3002)" gradientUnits="userSpaceOnUse" xlink:href="#linearGradientBase"/>
		<linearGradient id="linearGradient1" x1="-592.54" x2="-591.54" y1="2554" y2="2554" gradientTransform="matrix(35.101 35.101 -35.101 35.101 110672 -68769)" gradientUnits="userSpaceOnUse" xlink:href="#linearGradientBase"/>
	</defs>
	<g fill="#91908e">
		<path d="m491.08 33.415c0-2.7304 0.91011-5.0707 2.8604-7.021 1.9503-1.9502 4.1606-2.9904 6.8909-2.9904h34.455c9.4913 0 16.772 1.9502 21.843 5.9808 5.0707 4.1606 7.541 10.011 7.541 17.682 0 4.2906-0.91014 8.1911-2.7304 11.832-1.8202 2.9905-4.6806 5.5908-8.5812 7.5411 5.0706 1.9502 8.7112 4.8107 11.052 8.3211 2.3403 3.3805 3.5104 7.9311 3.5104 13.652 0 9.1012-2.9904 16.122-8.8412 20.933-5.8508 5.0707-14.302 7.541-25.223 7.541h-42.516zm40.306 26.394c3.9006 0 7.411-0.78011 10.531-2.4703 2.0803-1.8202 3.2504-4.4206 3.2504-7.8011 0-3.3804-1.0401-5.8508-3.2504-7.541-2.0803-1.5602-5.7208-2.4703-10.792-2.4703h-21.193v20.283zm0.91011 40.306c5.2007 0 9.1013-1.0402 11.832-2.9905 2.3403-1.8202 3.5105-4.8106 3.5105-9.1012 0-4.2906-1.1702-7.411-3.5105-9.3613-2.7304-1.9502-6.761-2.9904-12.092-2.9904h-22.103v24.443z"/>
		<path d="m583.26 23.403c2.3403 0 4.4206 0.78011 6.2408 2.6004 1.8203 1.8202 2.7304 3.7705 2.7304 6.3708v84.642h-18.333v-93.613z"/>
		<path d="m627.86 118.32c-7.151 0.52011-13.262-0.39018-18.332-2.9904-7.5411-3.7705-11.312-10.401-11.312-19.893 0.13039-7.411 2.7304-12.872 7.5411-16.642 4.8106-3.7705 12.872-6.2409 23.923-7.281 7.9311-0.91013 11.832-3.2505 11.832-7.281-0.3902-4.1606-4.2906-6.2409-11.832-6.2409-6.5009 0-10.141 1.6902-11.052 5.0707h-18.332c2.0803-13.392 11.702-20.153 28.474-20.153 20.023 0 30.294 6.7609 30.684 20.153v24.703c0 12.352-4.5506 20.933-13.392 25.744-4.8107 2.8604-10.921 4.2906-18.203 4.8107m-0.52006-33.545c-7.281 1.4302-11.052 4.8107-11.052 10.271 0.3902 5.7208 3.3805 8.5812 9.1012 8.5812 5.0707 0 9.1013-1.4302 12.092-4.2906 2.8604-2.8604 4.2906-6.891 4.2906-12.092v-6.7609c-4.2906 1.8202-9.1012 3.2505-14.432 4.2906"/>
		<path d="m729.92 94.653c-1.8202 8.0611-5.3307 14.042-10.531 17.812-5.7208 4.2906-12.612 6.3709-20.413 6.2409-22.103 0-33.285-12.612-33.805-37.575 0-24.963 11.182-37.575 33.545-37.835 17.552 0 27.954 7.9311 31.204 23.663h-19.893c-2.2103-5.0707-6.1108-7.541-11.832-7.541-9.6214 0-14.562 7.281-14.562 21.843 0 14.562 5.0706 21.713 15.342 21.453 4.2906 0 7.9311-1.6902 11.052-5.0707 1.8202-1.8203 3.9005-2.7304 6.2409-2.7304z"/>
		<path d="m777.77 46.806h22.103l-25.223 26.914 25.353 43.296h-22.103l-12.872-23.923c-2.3403-4.1606-4.6806-6.2409-7.021-6.2409-1.9502 0.39018-2.9904 1.5602-2.9904 3.5105v26.654h-18.332v-93.613h9.3613c2.3403 0 4.4206 0.78011 6.2409 2.6004 1.8202 1.6902 2.7303 3.7705 2.7303 6.3708v40.306z"/>
		<path d="m327.65 81.911-35.105 35.105h70.21z"/>
	</g>
	<path d="m362.75 117.02-35.105-35.105 11.702 35.105z" fill="#575759"/>
	<path d="m421.13 23.403-46.676 46.676-46.936-46.676-70.21 70.21-23.273-23.403 70.21-70.21h-46.806l-46.806 46.806-23.403-23.403h-46.806l46.806 46.806-23.403 23.403-70.21-70.21-93.613 93.613h46.806l11.702-11.702h70.21l11.702 11.702-35.105 35.105h46.806l58.508-58.638 23.403 23.403h46.806l46.806-46.806 46.806 46.806 93.613-93.613zm-327.52 46.806 11.702 11.702h-23.403z" fill="#fff"/>
	<path d="m257.44 93.613-46.806-46.806-23.273 23.403 46.676 46.806z" fill="url(#linearGradient1)"/>
	<path d="m46.806 81.911h81.911v23.403h-81.911z" fill="url(#linearGradient2)" opacity=".5"/>
	<path d="m117.02 46.936-23.403 23.273 46.806 46.806 23.403-23.403z" fill="url(#linearGradient3)"/>
</svg>
