<?xml version="1.0" encoding="UTF-8" standalone="no"?>
<!-- Created with Inkscape (http://www.inkscape.org/) -->
<svg
   xmlns:svg="http://www.w3.org/2000/svg"
   xmlns="http://www.w3.org/2000/svg"
   version="1.0"
   width="555.617"
   height="129.40173"
   id="svg1883">
  <defs
     id="defs1885" />
  <g
     transform="translate(634.9629,-438.558)"
     id="layer1">
    <g
       id="g6000">
      <path
         d="M -112.32512,447.781 C -112.32512,456.16557 -112.32512,550.35212 -112.32512,558.45724 C -121.54814,558.45724 -616.51681,558.45724 -625.7398,558.45724 C -625.7398,550.35212 -625.7398,456.16557 -625.7398,447.781 C -616.51681,447.781 -121.54814,447.781 -112.32512,447.781 z M -107.57387,438.55801 L -634.96286,438.55801 L -634.96286,567.95975 L -103.1021,567.95975 L -103.1021,438.55801 L -107.57387,438.55801"
         id="path5860"
         style="fill:#ffffff;fill-rule:nonzero;stroke:none" />
      <path
         d="M -370.0107,479.36284 L -333.67757,443.30923 L -630.21157,443.02978 L -630.21157,563.20846 L -473.14079,563.20846 L -392.09003,496.69095"
         id="path5870"
         style="fill:#ec1b2c;fill-rule:nonzero;stroke:none" />
      <path
         d="M -134.40447,540.01119 L -233.9013,489.42432 L -233.9013,536.93688 L -259.33446,536.93688 L -259.33446,456.44502 L -158.99918,509.26777 L -158.99918,461.75528 L -134.40447,461.75528 L -134.40447,540.01119 z M -370.0107,514.85748 L -420.87701,563.20846 L -107.57387,563.20846 L -107.57387,443.30923 L -283.37022,443.30923 L -349.32876,496.69095"
         id="path5872"
         style="fill:#ec1b2c;fill-rule:nonzero;stroke:none" />
      <path
         d="M -394.60537,455.04763 L -437.36663,455.04763 L -392.09003,496.69095 L -465.87416,560.4136 L -419.2001,561.53155 L -370.0107,514.85748 L -346.81336,536.93688 L -304.05209,536.93688 L -349.32876,496.69095 L -290.35733,445.82463 L -332.83908,445.82463 L -370.0107,479.36284 L -394.60537,455.04763"
         id="path5874"
         style="fill:#ffffff;fill-rule:nonzero;stroke:none" />
      <path
         d="M -394.60537,455.04763 L -437.36663,455.04763 L -392.09003,496.69095 L -465.87416,560.4136 L -419.2001,561.53155 L -370.0107,514.85748 L -346.81336,536.93688 L -304.05209,536.93688 L -349.32876,496.69095 L -290.35733,445.82463 L -332.83908,445.82463 L -370.0107,479.36284 L -394.60537,455.04763 z"
         id="path5882"
         style="fill:none;stroke:#ffffff;stroke-width:4.69535494;stroke-linecap:butt;stroke-linejoin:miter;stroke-miterlimit:4;stroke-dasharray:none" />
      <path
         d="M -259.33446,456.44502 L -259.33446,536.93688 L -233.9013,536.93688 L -233.9013,489.42432 L -134.40447,540.01119 L -134.40447,461.75528 L -158.99918,461.75528 L -158.99918,509.26777 L -259.33446,456.44502"
         id="path5884"
         style="fill:#ffffff;fill-rule:nonzero;stroke:none" />
      <path
         d="M -259.33446,456.44502 L -259.33446,536.93688 L -233.9013,536.93688 L -233.9013,489.42432 L -134.40447,540.01119 L -134.40447,461.75528 L -158.99918,461.75528 L -158.99918,509.26777 L -259.33446,456.44502 z"
         id="path5886"
         style="fill:none;stroke:#ffffff;stroke-width:4.69535494;stroke-linecap:butt;stroke-linejoin:miter;stroke-miterlimit:4;stroke-dasharray:none" />
      <path
         d="M -535.46605,455.04763 L -607.0143,536.65736 L -581.86059,536.65736 L -566.48892,520.44719 L -504.16366,520.44719 L -490.74835,536.93688 L -465.87416,536.93688 L -535.46605,455.04763"
         id="path5888"
         style="fill:#ffffff;fill-rule:nonzero;stroke:none" />
      <path
         d="M -535.46605,455.04763 L -607.0143,536.65736 L -581.86059,536.65736 L -566.48892,520.44719 L -504.16366,520.44719 L -490.74835,536.93688 L -465.87416,536.93688 L -535.46605,455.04763 z"
         id="path5890"
         style="fill:none;stroke:#ffffff;stroke-width:4.69535494;stroke-linecap:butt;stroke-linejoin:miter;stroke-miterlimit:4;stroke-dasharray:none" />
      <path
         d="M -535.7455,481.03976 L -557.54538,505.35497 L -514.50466,505.35497 L -535.7455,481.03976"
         id="path5898"
         style="fill:#ec1b2c;fill-rule:nonzero;stroke:none" />
      <path
         d="M -79.345841,554.26492 L -79.345841,562.92901 L -80.463783,562.92901 L -80.463783,555.38286 C -80.463783,555.66238 -80.463783,555.66238 -80.463783,555.66238 L -80.463783,555.66238 L -80.743269,555.94183 L -83.538125,562.92901 L -84.656061,562.92901 L -87.730403,555.94183 L -87.730403,555.94183 L -88.009888,555.66238 C -88.009888,555.66238 -88.009888,555.66238 -88.009888,555.66238 L -88.009888,562.92901 L -89.127831,562.92901 L -89.127831,554.26492 L -87.171432,554.26492 L -84.935547,559.85463 L -84.376576,560.69312 L -84.376576,561.25209 L -84.376576,561.53155 C -84.09709,561.25209 -84.09709,561.25209 -84.09709,561.25209 L -83.817604,560.69312 L -83.538125,559.85463 L -81.30224,554.26492 L -79.345841,554.26492 z M -92.761144,555.38286 L -92.761144,562.92901 L -93.87908,562.92901 L -93.87908,555.38286 L -96.673936,555.38286 L -96.673936,554.26492 L -89.966288,554.26492 L -89.966288,555.38286 L -92.761144,555.38286"
         id="path5900"
         style="fill:#000000;fill-rule:nonzero;stroke:none" />
    </g>
  </g>
</svg>
