<svg xmlns="http://www.w3.org/2000/svg" height="250" width="250"><path d="M21.08 0H228.92C240.598 0 250 9.402 250 21.08v207.84c0 11.678-9.402 21.08-21.08 21.08H21.08C9.402 250 0 240.598 0 228.92V21.08C0 9.402 9.402 0 21.08 0z" fill="#fff"/><path d="M21.082 0C9.403 0 0 9.402 0 21.08v207.84C0 240.598 9.403 250 21.082 250h207.836c11.68 0 21.082-9.402 21.082-21.08V21.08C250 9.402 240.596 0 228.918 0zM3.513 74.923c8.36 19.74 27.797 30.977 49 37.915s48.074 9.26 72.48 12.284c25.662 3.18 48.637 5.14 70.678 11.632 21.682 6.386 40.502 16.18 50.812 34.21V226c0 11.35-9.138 20.488-20.488 20.488H24c-11.35 0-20.488-9.138-20.488-20.488z" fill="#4d4d4d"/><path d="M101.07 69.57c-6.6 0-12.707-1.976-16.79-5.64-3.085-2.77-4.567-6.53-4.567-10.4 0-3.824 1.546-7.61 4.567-10.366 3.792-3.456 10.488-5.62 16.79-5.62 6.976 0 12.56 1.757 16.827 5.63 3.037 2.756 4.505 6.526 4.505 10.356 0 3.713-1.558 7.666-4.505 10.4-3.975 3.69-10.22 5.64-16.827 5.64v-4.224c3.498 0 6.742-1.208 9.008-3.462 2.25-2.24 3.3-4.992 3.3-8.356 0-3.223-1.13-6.236-3.3-8.373-2.236-2.202-5.558-3.44-9.008-3.44-3.46 0-6.786 1.226-9.023 3.44-2.156 2.136-3.3 5.158-3.3 8.373 0 3.205 1.147 6.225 3.3 8.356 2.24 2.228 5.552 3.462 9.023 3.462v4.224zM52.902 37.556c-3.525 0-7.53.66-10.933 2.18-3.14 1.4-5.71 3.668-5.71 7.425-.002 3.384 2.15 5.366 2.09 5.31.915.842 2.387 2.276 6.237 3.118 1.72.376 5.4.954 9.062 1.337 3.636.384 7.215.748 8.672 1.117 1.158.295 3.103.696 3.103 2.88 0 2.174-2.05 2.837-2.406 2.98s-2.814 1.27-7.234 1.27c-3.263 0-7.186-.98-8.615-1.493-1.648-.587-3.377-1.363-5-3.333-.4-.488-1.034-1.832-1.034-3.162h-4V68.39h4.446v-1.514c0-.172.216-.88.962-.544.93.422 3.655 1.507 6.505 2.102 2.337.49 3.844.84 6.75.84 4.74 0 7.287-.772 9.047-1.275 1.658-.475 3.708-1.328 5.373-2.655.902-.718 2.88-2.558 2.88-5.898 0-3.206-1.72-5.196-2.326-5.8-.824-.825-1.832-1.464-2.88-1.957a21.16 21.16 0 0 0-3.538-1.236c-2.292-.563-7.473-1.257-9.95-1.516-2.598-.27-7.106-.645-8.906-1.202-.546-.17-1.658-.7-1.658-1.99 0-.92.51-1.698 1.515-2.327 1.596-1 4.82-1.622 8.182-1.622 3.974-.015 7.34.894 9.48 1.85.728.325 1.58.792 2.256 1.344.764.622 1.835 1.916 2.223 3.72h3.59v-9.756h-4v1.134c0 .366-.378.842-1.093.45-1.794-.94-6.868-2.972-13.087-2.98m87.87 1.773l19.56 17.65-.2-11.884c-.02-1.558-.307-2.21-1.992-2.21h-3.677v-3.555h16.724v3.555h-3.587c-1.72 0-1.828.55-1.848 2.21l.303 22.708h-5.727l-22.528-20.106.005 14.27c.02 1.55.093 2.282 1.69 2.282h4.017v3.554h-16.424V64.25h3.84c1.434 0 1.377-1.367 1.377-2.363V45.23c0-1.075-.15-2.342-2.403-2.342h-3.116v-3.56zm49.522 24.914c.157 0 .855-.02 1-.06.386-.12.648-.396.77-.683.05-.12.077-.654.077-.77V57.1c0-.135-.01-.194-.24-.495-.252-.33-10.245-11.653-10.702-12.152-.568-.62-1.565-1.576-3.08-1.576h-3.475V39.33h19.612v3.552h-2.364c-.547 0-.9.52-.443 1.095l6.66 7.976c.06.084.114.104.198.028s6.764-7.93 6.817-7.993c.318-.38.102-1.1-.583-1.1h-2.425V39.33h16.073v3.556h-3.59c-1.303 0-1.833.24-2.813 1.35l-10.822 12.347c-.144.163-.13.39-.13.526v5.618c0 .114.026.648.077.768.122.29.385.564.77.683.135.042.823.062.98.062h3.673v3.556h-19.51V64.24l3.48.002z" fill="#fff"/><g fill="#4d4d4d"><path d="M156.616 175.867v37.438h15.017V193.52l22.47 19.784h13.28v-37.438h-15.017v20.116l-22.846-20.116zm-59.806 0l19.07 18.72-19.07 18.718h16.924l10.6-10.414 10.6 10.414h16.924l-19.07-18.718 19.07-18.72h-16.924l-10.6 10.414-10.6-10.414z"/><path d="M59.8 175.867l-22.58 37.438h16.924l3.853-6.388h20.53l3.853 6.388h16.924l-22.58-37.438zm8.462 14.03l5.983 9.92H62.28z"/></g></svg>
