<?xml version="1.0" encoding="UTF-8"?>
<svg width="450" height="450" version="1.1" xmlns="http://www.w3.org/2000/svg">
	<g>
		<path d="m36.144 3.6492c-11.089 0.4775-21.697 6.7561-27.452 16.246-3.7825 6.0263-5.3821 13.229-5.0922 20.3 0.00936 124.1-0.018731 248.21 0.01404 372.31 0.021605 11.496 6.3264 22.707 16.13 28.707 6.0542 3.8516 13.322 5.482 20.452 5.1892 124.1-9e-3 248.21 0.0187 372.31-0.0144 11.496-0.0216 22.707-6.3264 28.707-16.13 3.8516-6.0542 5.482-13.322 5.1892-20.452-9e-3 -124.1 0.0187-248.21-0.0144-372.31-0.0216-11.496-6.3264-22.707-16.13-28.707-6.0538-3.8513-13.321-5.4816-20.451-5.1888-124.1 0.00936-248.21-0.018731-372.31 0.01404-0.45053 0.011718-0.90106 0.023449-1.3516 0.035172z" fill="#fff"/>
		<path d="m37.948 0c-21.022 0-37.948 16.924-37.948 37.944v374.11c0 21.02 16.925 37.944 37.948 37.944h374.1c21.024 0 37.948-16.924 37.948-37.944v-374.11c0-21.02-16.927-37.944-37.948-37.944zm-31.624 134.86c15.048 35.532 50.035 55.759 88.2 68.247s86.533 16.668 130.46 22.111c46.192 5.724 87.547 9.252 127.22 20.938 39.028 11.495 72.904 29.124 91.462 61.578v99.065c0 20.43-16.448 36.878-36.878 36.878h-363.59c-20.43 0-36.878-16.448-36.878-36.878z" fill="#4d4d4d"/>
		<path d="m181.93 125.23c-11.88 0-22.873-3.5568-30.222-10.152-5.553-4.986-8.2206-11.754-8.2206-18.72 0-6.8832 2.7828-13.698 8.2206-18.659 6.8256-6.2208 18.878-10.116 30.222-10.116 12.557 0 22.608 3.1626 30.289 10.134 5.4666 4.9608 8.109 11.747 8.109 18.641 0 6.6834-2.8044 13.799-8.109 18.72-7.155 6.642-18.396 10.152-30.289 10.152v-7.6032c6.2964 0 12.136-2.1744 16.214-6.2316 4.05-4.032 5.94-8.9856 5.94-15.041 0-5.8014-2.034-11.225-5.94-15.071-4.0248-3.9636-10.004-6.192-16.214-6.192-6.228 0-12.215 2.2068-16.241 6.192-3.8808 3.8448-5.94 9.2844-5.94 15.071 0 5.769 2.0646 11.205 5.94 15.041 4.032 4.0104 9.9936 6.2316 16.241 6.2316zm-86.702-57.625c-6.345 0-13.554 1.188-19.679 3.924-5.652 2.52-10.278 6.6024-10.278 13.365-0.0036 6.0912 3.87 9.6588 3.762 9.558 1.647 1.5156 4.2966 4.0968 11.227 5.6124 3.096 0.6768 9.72 1.7172 16.312 2.4066 6.5448 0.6912 12.987 1.3464 15.61 2.0106 2.0844 0.531 5.5854 1.2528 5.5854 5.184 0 3.9132-3.69 5.1066-4.3308 5.364s-5.0652 2.286-13.021 2.286c-5.8734 0-12.935-1.764-15.507-2.6874-2.9664-1.0566-6.0786-2.4534-9-5.9994-0.72-0.8784-1.8612-3.2976-1.8612-5.6916h-7.2v20.169h8.0028v-2.7252c0-0.3096 0.3888-1.584 1.7316-0.9792 1.674 0.7596 6.579 2.7126 11.709 3.7836 4.2066 0.882 6.9192 1.512 12.15 1.512 8.532 0 13.117-1.3896 16.285-2.295 2.9844-0.855 6.6744-2.3904 9.6714-4.779 1.6236-1.2924 5.184-4.6044 5.184-10.616 0-5.7708-3.096-9.3528-4.1868-10.44-1.4832-1.485-3.2976-2.6352-5.184-3.5226a38.088 38.088 0 0 0-6.3684-2.2248c-4.1256-1.0134-13.451-2.2626-17.91-2.7288-4.6764-0.486-12.791-1.161-16.031-2.1636-0.9828-0.306-2.9844-1.26-2.9844-3.582 0-1.656 0.918-3.0564 2.727-4.1886 2.8728-1.8 8.676-2.9196 14.728-2.9196 7.1532-0.027 13.212 1.6092 17.064 3.33 1.3104 0.585 2.844 1.4256 4.0608 2.4192 1.3752 1.1196 3.303 3.4488 4.0014 6.696h6.462v-17.561h-7.2v2.0412c0 0.6588-0.6804 1.5156-1.9674 0.81-3.2292-1.692-12.362-5.3496-23.557-5.364m158.17 3.1914 35.208 31.77-0.36-21.391c-0.036-2.8044-0.5526-3.978-3.5856-3.978h-6.6186v-6.399h30.103v6.399h-6.4566c-3.096 0-3.2904 0.99-3.3264 3.978l0.5454 40.874h-10.309l-40.55-36.191 9e-3 25.686c0.036 2.79 0.1674 4.1076 3.042 4.1076h7.2306v6.3972h-29.563v-6.399h6.912c2.5812 0 2.4786-2.4606 2.4786-4.2534v-29.983c0-1.935-0.27-4.2156-4.3254-4.2156h-5.6088v-6.408zm89.14 44.845c0.2826 0 1.539-0.036 1.8-0.108 0.6948-0.216 1.1664-0.7128 1.386-1.2294 0.09-0.216 0.1386-1.1772 0.1386-1.386v-10.138c0-0.243-0.018-0.3492-0.432-0.891-0.4536-0.594-18.441-20.975-19.264-21.874-1.0224-1.116-2.817-2.8368-5.544-2.8368h-6.255v-6.3846h35.302v6.3936h-4.2552c-0.9846 0-1.62 0.936-0.7974 1.971l11.988 14.357c0.108 0.1512 0.2052 0.1872 0.3564 0.0504s12.175-14.274 12.271-14.387c0.5724-0.684 0.1836-1.98-1.0494-1.98h-4.365v-6.4044h28.931v6.4008h-6.462c-2.3454 0-3.2994 0.432-5.0634 2.43l-19.48 22.225c-0.2592 0.2934-0.234 0.702-0.234 0.9468v10.112c0 0.2052 0.0468 1.1664 0.1386 1.3824 0.2196 0.522 0.693 1.0152 1.386 1.2294 0.243 0.0756 1.4814 0.1116 1.764 0.1116h6.6114v6.4008h-35.118v-6.4008l6.264 4e-3z" fill="#fff"/>
		<path d="m305.14 316.56-23.228 4e-3v67.388h27.032v-35.613l40.447 35.613h23.903v-67.391h-27.032v36.211zm-197.49 4e-3 -40.644 67.388h30.463l6.9328-11.496h36.956l6.9363 11.496h56.436l19.079-18.745 19.079 18.745h30.463l-34.327-33.691 34.327-33.697h-30.463l-19.079 18.745-19.079-18.745h-30.463l34.327 33.697-31.507 30.923-38.974-64.621zm15.23 25.253 10.768 17.856h-21.537z" fill="#4d4d4d"/>
	</g>
</svg>
