<svg xmlns="http://www.w3.org/2000/svg" version="1" width="602.362" height="220.146"><g fill-rule="evenodd"><path d="M567.353 91.628h-318.86l13.788-70.248.742-3.67H53.958l-.48 2.472-35.12 178.984-.641 3.269h209.045l.42-2.09 2.49-12.677h337.681c9.521 0 17.291-7.363 17.291-16.387l.002-63.268c0-9.044-7.773-16.385-17.293-16.385z" fill="#fff"/><path fill="#e52165" d="M59.031 23.857L25.11 196.693h196.514l33.924-172.836H59.03z"/><path d="M247.298 97.844l-16.409 83.603h242.245V97.844H247.298zm320.054 0h-88.218v83.603h88.218c6.11 0 11.074-4.559 11.074-10.166v-63.268c0-5.608-4.965-10.168-11.074-10.169z" fill="#003d7f"/><path d="M548.308 139.593c6.509-2.254 11.181-7.456 11.181-15.19.002-1.938-.977-6.643-4.54-9.67-2.343-1.995-5.74-4.358-16.683-4.632-2.271-.058-9.155.204-9.155.204v.386c1.957 1.494 4.04 3.951 5.054 6.772 1.037-.022 2.623-.109 4.172-.02 4.414.222 6.312 1.054 8.306 2.603 1.996 1.568 3.062 4.267 3.043 6.682 0 3.318-1.583 6.775-6.383 8.73-3.892 1.586-8.58 1.937-8.58 1.937v1.22s2.802 1.327 5.608 5.054c2.44 3.195 16.48 23.883 16.48 23.883h11.608s-18.748-26.131-20.111-27.96zm-37.174 19.983l-6.497.001v-42.185c.095 0 2.92-.038 4.673-.038 7.27 0 11.291 3.746 11.405 8.916.071 3.118-.85 6.123-4.044 8.338-2.617 1.79-6.237 2.344-6.237 2.344v1.344s5.037.762 7.583 1.962c4.744 2.21 6.165 5.665 6.203 10.13.058 7.029-6.755 9.189-13.086 9.188zm11.609-22.899c4.488-2.64 7.346-6.515 7.346-12.312.001-6.182-3.671-14.358-19.045-14.358-7.437-.001-15.705.279-15.705.279v57.265h13.12c16.684 0 25.485-6.145 25.485-17.772 0-6.922-4.338-11.495-11.201-13.102zm-85.946 24.468h-8.268l9.71-48.334h8.267l-9.709 48.334zm-16.276 0h-8.268l9.685-48.334h8.288l-9.705 48.334zm-20.968-27.351c-4.3 0-7.069 3.97-8.307 8.27 7.626-.257 11.61-1.843 11.647-5.35.018-1.865-1.22-2.919-3.34-2.92zm-9.283 13.898c-.072.74-.223 1.865-.238 2.588-.02 3.765 1.418 4.89 5.977 4.89 3.175-.002 6.572-.724 9.633-1.974l-.07 6.494c-3.657 1.384-7.976 2.104-12.332 2.104-8.358-.003-11.627-3.836-11.533-11.108.129-13.77 8.562-23.108 18.842-23.108 8.141 0 10.612 4.04 10.555 8.008-.07 7.879-7.933 11.722-20.834 12.106zm-13.952-2.252c-.903 4.504-2.306 11.724-3.01 15.707l-8.08-.002c.369-1.99 1.182-5.035 3.023-10.203l-.125-.073c-3.049 5.905-7.66 11-13.934 11-6.37 0-8.254-4.503-6.998-10.927l4.617-22.7h8.287l-4.19 20.652c-.776 4.022-.204 5.685 1.917 5.685 4.45 0 10.503-10.319 12.034-18.014l1.678-8.322h8.267l-3.486 17.197zm-39.422-10.669h7.752l1.404-6.528h-7.824l2.381-11.868-8.64 1.733-2.01 10.135-12.883-.038-13.05 13.469 5.798-28.863h-8.27l-9.726 48.334h8.286l3.34-16.498 6.794 16.498h9.984l-8.547-17.749 8.362-8.643 8.565.018-3.14 15.764c-1.584 7.897.353 11.259 7.44 11.259 2.047-.003 4.573-.331 6.752-.85l.869-6.772c-1.2.274-2.458.478-4.097.478-2.71-.003-3.25-1.068-2.475-5.037l2.935-14.842zm-59.663-.515c-7.626 0-11.222 8.88-11.297 15.764-.037 3.244.813 4.56 2.47 4.56 4.694 0 10.707-10.778 12.11-17.737l.426-2.121a15.3 15.3 0 0 0-3.71-.466zm6.789 26.89h-8.191c.608-2.581 1.638-5.905 3.206-10.46h-.127c-2.694 4.812-7.348 11.184-13.882 11.184-5.034-.002-7.71-3.252-7.639-10.263.133-12.46 6.921-23.973 21.356-23.973 3.987 0 7.951.275 11.646.997-3.066 15.298-4.876 23.826-6.37 32.514zm-115.771-23.44c-.477 6.11 3.25 10.873 10.242 10.873 11.095-.001 17.202-11.018 19.082-19.914 1.772-8.303.185-19.985-9.302-19.985-6.698 0-12.232 3.34-15.317 9.596l-21.02-.573 14.065-60.181h62.876l-4.04 18.953h-42.688l-6.037 22.864c6.256-4.224 12.237-5.533 19.23-5.533 18.071-.001 28.536 12.956 23.735 36.617-4.298 21.26-23.089 33.714-43.924 33.714-17.642-.001-31.726-7.03-28.475-26.43l21.573-.001zM104.044 99.8c9.467 0 15.557-3.93 17.348-12.382 1.81-8.455-2.604-12.403-12.086-12.403H93.508l-5.26 24.785h15.796zm-7.824 45.492c8.102 0 17.234-2.672 19.063-13.988 1.81-11.278-7.253-14.008-14.949-14.008l-15.444-.002-5.652 27.998H96.22zm-42.891 17.496L74.646 57.522h37.646c21.242-.02 35.954 6.954 32.26 27.275-2.102 11.57-12.161 19.526-23.402 23.033l-.07.297c12.677 2.767 20.65 11.94 17.367 27.388-4.45 20.852-28.055 27.275-46.4 27.275l-38.718-.001z" fill="#fff"/></g></svg>