<svg xmlns="http://www.w3.org/2000/svg" version="1" width="602.362" height="249.803"><path d="M564.608 103.334H285.076l15.972-81.374.82-4.25H59.79l-.578 2.887-40.664 207.258-.831 4.239H259.807l.554-2.864 2.887-14.702h301.36c11.041 0 20.038-8.512 20.038-18.975v-73.267c0-10.452-8.997-18.952-20.038-18.952" fill="#fff"/><path d="M283.651 110.378l-19.056 97.011h190.848v-97.011H283.65zm178.721 0v97.011h102.209c7.08 0 12.992-5.347 12.992-11.838v-73.336c0-6.479-5.913-11.837-12.992-11.837H462.372z" fill="#003c7f"/><path d="M65.646 24.836L26.368 224.981h227.585l39.266-200.145H65.646z" fill="#e30061"/><path d="M83.853 63.893l-24.83 121.842h44.753c21.215 0 48.84-7.334 53.991-31.471 3.788-17.913-5.532-28.55-20.21-31.76v-.289c13.027-4.065 24.726-13.443 27.14-26.851 4.261-23.537-12.658-31.494-37.246-31.471H83.853zm105.674 0l-16.169 69.583 24.253.577c3.569-7.241 9.84-10.971 17.612-10.972 10.972 0 13.016 13.455 10.972 23.098-2.206 10.29-9.412 23.098-22.232 23.098-8.119 0-12.392-5.635-11.838-12.703h-25.119c-3.753 22.462 12.774 30.604 33.204 30.604 24.149 0 45.815-14.355 50.815-38.977 5.544-27.406-6.49-42.443-27.429-42.443-8.084 0-14.967 1.467-22.231 6.352l6.929-26.274h49.372l4.62-21.943h-72.76zm-84.02 20.21h18.48c10.948 0 15.925 4.666 13.858 14.437-2.079 9.805-8.95 14.147-19.922 14.147H99.445l6.063-28.583zm393.822 40.422c-8.616 0-18.19.289-18.19.289v66.407h15.303c19.333 0 29.45-7.034 29.45-20.5 0-8.038-5.082-13.455-12.993-15.302 5.174-3.05 8.662-7.438 8.662-14.148 0-7.16-4.435-16.746-22.232-16.746zm21.077.289v.577c2.24 1.721 4.596 4.481 5.774 7.796 1.213-.046 3.107-.104 4.909 0 5.093.254 7.241 1.374 9.528 3.176 2.32 1.813 3.487 4.677 3.464 7.507-.011 3.834-1.663 7.83-7.218 10.105-4.504 1.848-10.105 2.31-10.105 2.31v1.443s3.384 1.467 6.64 5.775c2.795 3.719 19.056 27.718 19.056 27.718h13.282s-21.504-30.236-23.098-32.338c7.565-2.621 12.992-8.661 12.992-17.612 0-2.229-1.386-7.738-5.485-11.26-2.714-2.31-6.653-4.897-19.345-5.197-2.622-.081-10.394 0-10.394 0zm-171.503.289l-11.838 57.167h9.817l11.838-57.167h-9.817zm-253.212 7.795h17.901c8.916 0 19.437 3.419 17.324 16.457-2.102 13.12-12.843 16.169-22.232 16.169H89.05l6.64-32.626zm396.42.289h5.197c8.42 0 13.154 4.146 13.281 10.105.081 3.638-.924 7.253-4.62 9.817-3.014 2.102-7.217 2.598-7.217 2.598v1.733s5.716.935 8.661 2.31c5.509 2.575 7.172 6.375 7.218 11.549.035 8.142-7.68 10.682-15.013 10.682h-7.507v-48.794zm-169.482 9.528c-5.74 1.155-10.393 6.282-13.859 12.992h-.288c2.044-6.017 3.072-9.077 3.753-12.126h-9.528c-.866 4.92-2.287 11.757-3.753 18.478l-6.93 33.204h9.817l2.599-12.415c1.628.23 2.922.288 4.33.288 17.07 0 25.143-13.558 25.408-28.295.139-8.304-2.98-12.126-8.95-12.126-.862 0-1.779-.165-2.599 0zm99.033 0c-11.203 0-16.908 5.278-17.035 12.415-.162 9.158 9.909 10.348 9.817 15.591-.058 2.818-2.645 4.62-6.64 4.62-1.964 0-3.985-.532-5.775-1.155l-2.021 8.373c1.951.312 4.342.577 6.929.577 12.126 0 17.785-6.767 17.9-13.281.151-8.616-9.885-10.822-9.816-15.591.035-2.495 1.975-4.042 6.063-4.042 1.71 0 3.488.011 5.198.577l2.02-7.507c-1.963-.404-4.134-.577-6.64-.577zm-56.013.866l-5.486 26.851c-1.547 7.588.59 12.704 8.085 12.704 7.426 0 12.82-6.017 16.457-12.992l.289.288c-2.218 6.11-3.326 9.482-3.754 11.838h9.528c.855-4.689 2.634-13.166 3.754-18.478l4.33-20.211h-9.816l-2.021 9.817c-1.871 9.089-9.193 21.076-14.436 21.076-2.495 0-3.257-1.87-2.31-6.64l5.197-24.253h-9.817zm-44.463 7.507c1.905 0 2.956 1.64 2.887 5.486-.15 8.13-4.643 18.767-13.57 18.767-1.41 0-3.095-.462-4.331-.867l.577-2.31c1.71-8.072 8.881-21.076 14.437-21.076z" fill="#fff"/></svg>