<svg xmlns="http://www.w3.org/2000/svg" height="132.222" width="250"><g fill="#fff"><path d="M27 59.096c-.232-.1-.348-.203-.348-.406-.116-.1-.232-.304-.464-.7h.464c0-.7-.232-1.42-.464-2.028h.464v-4.36H26.2v-.8h-.116v-2.94c-.464-.304-.58-.507-.464-.507-.116-.304-.116-.608-.116-.8s-.116-.507-.348-.8c-.232-.1-.348-.203-.348-.304s-.116-.203-.116-.406L23.996 44a4.25 4.25 0 0 0-1.391-.811c1.275-.608 2.203-1.724 2.782-3.245.58-1.42.927-3.143 1.043-4.97s.116-3.752 0-5.78c-.232-1.927-.348-3.752-.348-5.374v-2.535l-.116-2.535c0-.8-.116-1.622-.232-2.332-.232-.7-.464-1.318-.927-1.927l-.232-.203s-.116 0-.232-.203v-.406c-.232-.1-.348-.203-.464-.203s-.232 0-.348-.203c-.116-.1-.232-.304-.464-.507s-.348-.507-.464-.7c-.58 0-1.043-.1-1.275-.304 0 .1-.232-.1-.464-.507-.464 0-.8-.1-1.16-.1-.464 0-.8 0-1.16-.203l-.464-.8h-2.43V9.94c-.232 0-.464.1-.58.203-.116.203-.348.203-.8 0V9.94H9.4v.203c-.696 0-1.275-.1-1.74-.1s-1.043 0-1.507-.1v.203c-.58 0-1.043.1-1.507.1-.464.1-.8.203-1.16.203v-.304c-.464 0-.8.1-1.043.1-.348.1-.696.203-1.043.203 0 .406-.116.7-.232 1.014-.116.406-.232.7-.232 1.014H1.4v.8l-1.043.507c-.232.203-.348.507-.348 1.014h.464l.116 2.738c0 .913 0 1.825.232 2.738h.116v.7c0 .203.116.406.116.608l.232.203c0 .1.116.203.116.203 0 .608-.116 1.115-.232 1.622-.116.608-.232 1.115-.232 1.724H1.4v10.04h.348c0 .203 0 .7-.232 1.42S1.17 38.12 1.4 38.527c0 .304.116.608.232.913.116.406.116.7.116 1.115H1.4v1.115c0 .1 0 .203.116.203.116.203.232.304.232.507-.232.507-.232 1.014-.232 1.622S1.4 45.103 1.4 45.6h.348v8.822h.348c-.232.304-.232.608-.232.8 0 .304-.116.507-.116.7h.348v1.52H1.74v.304h.348v2.028c-.232.7-.232 1.42-.232 2.028S1.74 63.13 1.74 63.84c0 .608.116 1.014.116 1.42s0 .8.232 1.217H1.74c-.232 1.217-.232 2.332-.232 3.346L1.4 73.2h.348c.116.507.116 1.014.116 1.622s.116 1.014.464 1.217v.406H3.94c.348-.304.927-.406 1.623-.203s1.4.203 2.087.203l2.087-.1c.696 0 1.507-.1 2.203-.304v-.304c.58.203 1.16.203 1.855.203.58 0 1.16.1 1.855.1v-.304h1.623c.58 0 1.16-.1 1.74-.203a10.24 10.24 0 0 0 3.014-1.825c.927-.8 1.855-1.724 2.55-2.84.696-1.014 1.16-2.23 1.4-3.55.232-1.217.348-2.636.116-4.056-.232.203-.464.203-.696.203s-.348.1-.58.203v-.406c.696-.304 1.043-.608 1.043-.913 0-.203.116-.7.348-1.318V59.5c.232 0 .348 0 .464-.1zm-9.97-26.263v4.563l-.116 1.014c-.116.203-.232.507-.232.7 0 .304-.116.608-.232.8-.464.304-.927.507-1.16.608-.348.203-.696.304-1.043.304H11.01c-.58-1.014-.8-2.434-.696-4.056l.232-4.563c-.232-.1-.348-.406-.348-.8v-2.738c0-.406.116-.8.116-1.115v-2.332l-.232-3.143V18.73c0-1.014.232-1.927.464-2.535h3.594c1.16 0 1.855.507 2.087 1.318.696.608.8 1.318.58 1.927-.348.608-.348 1.42-.116 2.332h.348c0 .406-.116.8-.232 1.217s-.116.8-.116 1.217h.348v8.62zm.232 22.815h.348c0 .406.116.913.116 1.52v1.724c-.116.608-.232 1.115-.232 1.52-.116.507-.232.8-.232 1.014v3.853h-.232v1.927h-.348v.8h-.464c-.232.507-.348.8-.232.913s-.232.304-.927.507c-.464.203-1.043.406-1.74.406h-1.97c-.116-.8-.116-1.724-.116-2.738s-.116-2.028-.232-3.042a5.42 5.42 0 0 0 .232-1.521c0-.507 0-1.014.116-1.52h-.348c.116-.304.232-.608.232-1.014 0-.304 0-.608.116-1.014-.464-1.52-.58-3.346-.464-5.476l.116-5.983c1.16-.1 2.087-.1 2.55 0s1.275.203 2.434.304c.116.304.232.608.232.8h.464v.8h.348v2.535h.232zm4.057 12.878h.696c-.232.406-.348.913-.464 1.318-.232.507-.464.8-.696.913l.348-1.014c0-.406.116-.8.116-1.217zm36.75 5.882h.464v-.304h-.464c-.348-.1-.58-.203-.58-.304l-.232-.203c.232-1.014.464-2.028.464-3.245h-.58v-1.724l.116-.406h-.348c-.116 0-.232-.1-.232-.1V66.6h-.348c.116-.406.232-.7.232-1.115s0-.8.116-1.217h-.348v-1.115h-.464V60.72l-.696-3.55-.696-3.752v-2.636c-.464-1.217-.8-2.535-.927-4.056l-.8-4.157v-2.434c-.464-1.217-.927-2.636-1.16-4.157l-.696-4.462-.696-4.563a28.5 28.5 0 0 0-1.043-4.259v-2.23h-.464c-.116-.507-.116-1.014-.116-1.622 0-.507-.116-1.115-.232-1.724h-.232v-3.143h.232v-.608h.348c-.116-.304-.116-.608-.116-.8s-.116-.507-.232-.913h-.58v-.8h-.464c-.348-.304-1.043-.406-1.97-.406h-2.32c-.464.406-.927.507-1.507.304-.58-.1-1.16-.1-1.74.1v.203c-.348.203-.58.203-.696.203-.232 0-.348 0-.464.1-.348.608-.464 1.217-.464 2.028h.58c.116 3.042-.232 5.374-.927 7.098v3.042h-.464v2.738h-.116v1.622h-.348v4.664h-.46v3.245h-.464V36.9h-.116v3.245c-.58 1.217-.927 2.738-1.043 4.36s-.348 3.042-.696 4.26v3.65h-.348v1.724h-.348v2.332h-.232v2.332h-.348v2.434h-.348v2.738h-.464v2.23h-.116l-.464 4.462a27.64 27.64 0 0 0-.348 4.36c1.16.203 2.666.203 4.52.203L40 75.017a9.18 9.18 0 0 0 .81-3.752c0-1.42.116-2.636.58-3.853V65.08h.232v-.304h2.203c.232.304.58.406 1.275.406s1.275-.1 1.97-.1l.232.304.348 3.346.464 3.346h.232c.116.406.116.8.116 1.014s-.116.406-.116.608v.608c0 .203.116.507.348.7s.464.304.927.304c.348.1.8.1 1.275.1s.8 0 1.275-.1c.464 0 .8-.1 1.16-.1v.406c.232.1.232.1.232-.1-.116-.1-.116-.203.116-.304l4.405-.203zM43.356 17.522v.203h-.348c-.232.406-.348.608-.58.7s-.58.1-1.043.1c0-.203.116-.507.116-.7s.116-.406.116-.7l.927.304c.232.1.58.1.8.1zM45.56 39.02c-.232.203-.232.304-.232.507s-.116.304-.232.507h-.348V39.02h-.116c-.232.203-.232.304-.232.304 0 .1-.232.1-.696-.1.116-.1.232-.203.232-.304s0-.203.232-.406c.348 0 .58.1.696.203 0 .1.232.203.696.304zm0 1.52v1.014c-.232-.203-.464-.304-.696-.304s-.464-.1-.696-.203v.406c0 .203 0 .406.116.507l-.58-.406c-.116-.1-.116-.203-.116-.304v-.1s-.116-.1-.116-.203v-.304h.464c.232 0 .464-.1.696-.1v-.507c0 .1.116.203.348.203.116 0 .348.1.58.304zm.696 4.26h-.348v-.913l.232.203c0 .1-.116.203-.116.203s0 .203.232.507zm-.116 12.777h-1.043v.304h-.116c0 .406 0 .608.116.8 0 .203.116.304.116.406-.58 0-1.043.1-1.275.203-.348.203-.696.304-.927.304 0-.406-.116-.7-.232-1.014-.464 0-.696-.1-.696-.203 0 0-.116-.304-.232-.8.232-.203.348-.608.348-1.115s.116-1.115.116-1.724-.116-1.115-.116-1.724 0-1.115.116-1.622c.348-1.217.58-2.738.8-4.36l.464-4.462c.232-.1.464-.203.696-.203s.464-.1.927-.304v.507c-.58.406-.8.7-.8 1.014s0 .608.232 1.014a4.56 4.56 0 0 0 .464 1.115c.232.406.232.913.232 1.52h-.348v1.622h.348v.406c0 .1-.232.203-.464.406s-.232.608 0 1.115c.116.203.232.203.464.203 0 .7 0 1.217.116 1.52h.464v1.014h.232l-.232.7c0 .608.116 1.115.116 1.724s0 1.115.116 1.622zM43.6 58.59h.464v-1.014H43.6z"/><path d="M89.03 59.096c-.232-.1-.348-.203-.348-.406-.116-.1-.232-.304-.464-.7h.464c0-.7-.232-1.42-.464-2.028h.464v-4.36h-.464v-.8h-.116v-2.94c-.464-.304-.58-.507-.464-.507-.116-.304-.116-.608-.116-.8s-.116-.507-.348-.8c-.232-.1-.348-.203-.348-.304s-.116-.203-.116-.406L86.014 44a4.23 4.23 0 0 0-1.39-.81c1.275-.608 2.203-1.724 2.782-3.245.58-1.42.927-3.143 1.043-4.97s.116-3.752 0-5.78c-.232-1.927-.348-3.752-.348-5.374v-2.535l-.116-2.535c0-.8-.116-1.622-.232-2.332-.232-.7-.464-1.318-.927-1.927l-.232-.203s-.116 0-.232-.203v-.406c-.232-.1-.348-.203-.464-.203s-.232 0-.348-.203c-.116-.1-.232-.304-.464-.507s-.348-.507-.464-.7c-.58 0-1.043-.1-1.275-.304 0 .1-.232-.1-.464-.507-.464 0-.8-.1-1.16-.1-.464 0-.8 0-1.16-.203l-.464-.8h-2.43V9.94c-.232 0-.464.1-.58.203-.116.203-.348.203-.8 0V9.94H71.4v.203c-.696 0-1.275-.1-1.74-.1s-1.043 0-1.507-.1v.203c-.58 0-1.043.1-1.507.1-.464.1-.8.203-1.16.203v-.304c-.464 0-.8.1-1.043.1-.348.1-.696.203-1.043.203 0 .406-.116.7-.232 1.014-.116.406-.232.7-.232 1.014h.464v.8l-1.043.507c-.232.203-.348.507-.348 1.014h.464l.116 2.738c0 .913 0 1.825.232 2.738h.116v.7c0 .203.116.406.116.608l.232.203c0 .1.116.203.116.203 0 .608-.116 1.115-.232 1.622-.116.608-.232 1.115-.232 1.724h.464v10.04h.348c0 .203 0 .7-.232 1.42s-.348 1.318-.116 1.724c0 .304.116.608.232.913.116.406.116.7.116 1.115H63.4v1.115c0 .1 0 .203.116.203.116.203.232.304.232.507-.232.507-.232 1.014-.232 1.622s-.116 1.115-.116 1.622h.348v8.822h.348c-.232.304-.232.608-.232.8 0 .304-.116.507-.116.7h.348v1.52h-.348v.304h.348v2.028c-.232.7-.232 1.42-.232 2.028s-.116 1.318-.116 2.028c0 .608.116 1.014.116 1.42s0 .8.232 1.217h-.348c-.232 1.217-.232 2.332-.232 3.346l-.116 3.346h.348c.116.507.116 1.014.116 1.622s.116 1.014.464 1.217v.406h1.623c.348-.304.927-.406 1.623-.203s1.4.203 2.087.203l2.087-.1c.696 0 1.507-.1 2.203-.304v-.304c.58.203 1.16.203 1.855.203.58 0 1.16.1 1.855.1v-.304h1.623c.58 0 1.16-.1 1.74-.203a10.24 10.24 0 0 0 3.014-1.825c.927-.8 1.855-1.724 2.55-2.84.696-1.014 1.16-2.23 1.4-3.55.232-1.217.348-2.636.116-4.056-.232.203-.464.203-.696.203s-.348.1-.58.203v-.406c.696-.304 1.043-.608 1.043-.913 0-.203.116-.7.348-1.318v-1.52c.232 0 .348 0 .464-.1zm-9.97-26.263v4.563l-.116 1.014c-.116.203-.232.507-.232.7 0 .304-.116.608-.232.8-.464.304-.927.507-1.16.608-.348.203-.696.304-1.043.304H73.03c-.58-1.014-.8-2.434-.696-4.056l.232-4.563c-.232-.1-.348-.406-.348-.8v-2.738c0-.406.116-.8.116-1.115v-2.332l-.232-3.143V18.73a7.33 7.33 0 0 1 .464-2.535h3.594c1.16 0 1.855.507 2.087 1.318.696.608.8 1.318.58 1.927-.348.608-.348 1.42-.116 2.332h.348c0 .406-.116.8-.232 1.217s-.116.8-.116 1.217h.348v8.62zm.232 22.815h.348c0 .406.116.913.116 1.52v1.724c-.116.608-.232 1.115-.232 1.52-.116.507-.232.8-.232 1.014v3.853h-.232v1.927h-.348v.8h-.464c-.232.507-.348.8-.232.913s-.232.304-.927.507c-.464.203-1.043.406-1.74.406h-1.97c-.116-.8-.116-1.724-.116-2.738s-.116-2.028-.232-3.042a5.42 5.42 0 0 0 .232-1.52c0-.507 0-1.014.116-1.52h-.348c.116-.304.232-.608.232-1.014 0-.304 0-.608.116-1.014-.464-1.52-.58-3.346-.464-5.476l.116-5.983c1.16-.1 2.087-.1 2.55 0s1.275.203 2.434.304c.116.304.232.608.232.8h.464v.8h.348v2.535h.232zm4.057 12.878h.696c-.232.406-.348.913-.464 1.318-.232.507-.464.8-.696.913l.348-1.014c0-.406.116-.8.116-1.217zm26.55-57.798l.116-.203c-.464-.1-.8-.203-.8-.304v.913h.464v-.406h.232zM95.64 33.543h1.275v-.406c-.232 0-.464.1-.696.203s-.348.1-.58.1zm16.925 37.417c-.464-.1-.696-.203-.696-.406V69.54h-.927v.304l-.232.203s-.116.1-.116.304c0 .1 0 .1.116.1h.58c0 .203-.116.304-.116.304v.1c-.232.1-.348.1-.464.1h-.232l-.348-.406-.232.7c-.116.1-.232.1-.232.1h-.348c0-.203-.116-.507-.232-.8-.116-.1-.116-.203-.116-.406l-.116.203h-.464v1.217h-.348v-.8h-.348l-.232.1-.348.1v-1.42h-.928v.608h.116c0 .203-.116.304-.116.406v.406h-1.275v-.203h.464v-.406h-.464v-.507h-.116v-.304h-1.16c0-.1-.116-.203-.116-.304v-.304h-.464v-1.52h.464V65.67h-.464c-.116-.203-.116-.304.116-.304.116 0 .232-.1.348-.1v-3.65h-.464c-.116-.406 0-.8.232-1.42s.232-1.217.232-1.825h-.464V56.36h-.348v-.304h.348v-1.52h.464v-.304h-.464V52.9h-.348a1.82 1.82 0 0 0 .232-.913c0-.406 0-.8.116-1.217-.464-.203-.696-.304-.927-.507-.232-.1-.696-.203-1.16-.304v-.8c0-.406-.232-.608-.696-.8-.464-.1-.696-.203-.8-.406h2.666v.1h.232v1.115h.348v-2.23c.116-.1.348-.203.58-.304.232 0 .232-.304.232-.913h-.464c-.232-.203-.348-.608-.348-1.217.464-.203 1.043-.304 1.74-.304l2.32-.1v-.406c.232.1.464.203.696.203s.58.1.927.203h.464v-.406h1.855l.232.203c.232.203.348.304.58.203v-.406h.116v-2.84h-.116V39.02h-.464v-.1h-1.74v.1h-.464c-.116 0-.232-.1-.464-.1-.232.1-.232.203-.232.203 0 .1-.116.203-.116.203h-.348v-.406c-.464 0-.927.1-1.4.1h-1.507v-.1c-.232 0-.348.1-.58.1h-.58v-.1h-.116v-1.014h-.464c-.464-.203-.696-.7-.696-1.318h.348v-1.52s0-.1.116-.1.232-.203.232-.406h-.348v-.7h-.348c0-.203.116-.406.348-.7.232-.203.348-.406.348-.608h-.348v-1.52h-.348c.116-.304.232-.608.232-1.014 0-.304 0-.608.116-1.014h-.348c.116-.507.232-1.014.232-1.52s0-1.014.116-1.52c-.116-.203-.116-.304-.116-.507s-.116-.406-.232-.608c.116 0 .232-.1.232-.304s0-.304.116-.507c-.116 0-.232 0-.232-.1-.116 0-.116-.203-.116-.406h.348c0-.203 0-.406-.116-.608-.116 0-.232-.1-.232-.1-.232-.406-.232-.608-.232-.8s0-.406.232-.8h-.927v-.608h.927c0-.507 0-1.014.116-1.52.116-.406.232-.8.232-1.217h-.232c-.116 0-.232-.1-.348-.1v-.406h.232c.116-.203.116-.304 0-.304-.232 0-.232-.1-.232-.203s0-.203.116-.406c0-.203.116-.304.116-.406 0 0 .116-.1.116-.203l.232-.203h1.74c.116 0 .116 0 .116-.1-.116-.1 0-.203.232-.203 0 .1 0 .203.116.203.116.203.232.203.464.1 0-.203.232-.406.464-.507h.348v.507c.116 0 .348 0 .58-.1s.58-.203.927-.203v-.203c0 .1.116.1.232.1s.232.1.464.1.348-.1.464-.1.232 0 .464-.1c.116 0 .232.1.348.1h.348l.116.1h2.203v-3.55c-.232-.1-.348-.203-.348-.203-.116 0-.232 0-.348-.203 0-.1 0-.203.232-.406s.232-.406 0-.7h-.232v.304h-.232v.8h-.464v.406c-.232-.1-.58-.203-.927-.203s-.58 0-.8-.203c0 .203-.116.304-.116.304v.304c-.232 0-.464 0-.696-.1-.232 0-.348-.1-.58-.1v-.406l.232-.1s0-.1.232-.507c-.696.203-1.043.406-1.16.608s-.348.406-.696.608c-.232-.304-.464-.507-.464-.507l-.696-.304c0 .203-.116.406-.116.608-.116.203-.116.406-.116.507l-.232-.1s-.116 0-.116-.203h-.348c-.232-.1-.116-.203.116-.406s.348-.406.232-.8h-.348v.406h-.464v.8h-.464v-.608c0-.203.116-.406.348-.8-.232-.203-.348-.203-.348-.203v-.1c-1.16.203-2.434.203-3.826.1-1.4 0-2.666 0-3.94.203-.116.406-.116.608-.116.7v.7c0 .203.116.507.232 1.014 0 .507.116 1.014.116 1.622v1.825l-.232 1.318h-.116v.1h.116c.116.406.116.608.116.608-.116.1-.232.1-.232.1v.304h.116c0 .406-.116.7-.116 1.115v1.217h.116c.116.406.116.7 0 .913-.232.203-.232.406-.116.406h.116v1.014h.464c.116 0 .232-.1.232-.203s.116-.1.58-.1v.304h-.464l-.232.203-.116-.1h-.464c0 .8 0 1.318.232 1.622.232.406.116.7-.232 1.115h.464v.406c.116-.1.232-.203.464-.203s.348-.1.464-.203v.406h.8v.406c.232-.1.348-.203.464-.203l.464-.203v.406h.464c-.232.203-.232.406-.232.406 0 .1-.116.203-.232.304.116.203.232.304.232.406 0 .203 0 .304.232.406h-.464l-.348.304c-.116.1-.116.203-.116.304-.464 0-.927-.1-1.16-.203-.348-.1-.696-.203-1.043-.406-.116.304-.232.608-.232.8s-.116.507-.232.7a4.6 4.6 0 0 1 1.275.507c.348.203.8.203 1.4-.203v.913h-1.4v.406h.464l-.232 1.217c0 .203 0 .507.232.913-.464 0-.696.1-.696.1-.116 0-.348.1-.58.304h.927v.8c-.464 0-.696.1-.696.1-.116 0-.348.1-.696.203 0 .203.116.507.348.8.116.304.232.608.232.913v.913c0 .304-.232.507-.464.507h.696v1.217h-.8v1.927c0 .913.116 1.42.464 1.622h.8v.406H95.64c.116.406.232.913.232 1.318 0 .507.116.913.232 1.318h.348v.406h-.348c.116.203.232.507.232.7s0 .406.116.507h-.8v.8a7.48 7.48 0 0 0 .811.304l-.348 2.434c-.232.8-.348 1.622-.464 2.332h.464c-.116.608-.232 1.217-.232 1.724s-.116 1.014-.232 1.52h.464c0 .203 0 .304-.116.406s-.232.1-.348.1l.232.7c0 .203.116.304.232.507h-.464v1.927h-.116v1.318c0 .406.116.913.116 1.42 0 .608-.116 1.217-.232 1.927-.232.8-.116 1.52.116 2.13h.116v1.217h.464v.203h-.464v1.318h-.116v.507h-.348c-.348.608-.348 1.318-.116 2.23l.464 2.028c.464.203 1.043.304 1.855.304.232-.1.464-.1.927-.1s.927.1 1.507.1c.464 0 1.043.1 1.507.1.464.1.927.1 1.4-.1v-.304c.8-.1 1.97-.1 3.478 0l3.13.304h2.32v-.304l.464.203c-.116 0-.116.1-.116.1h.348c0-.203.116-.913.116-2.028l.116-2.434zM101.668 16.8v.203l-.232.304c-.464.203-.927.304-1.4.304s-.927.1-1.275.1v-.7h1.507c.696 0 1.16-.1 1.4-.203zm0 2.028v.1h-.464c-.116 0-.116.1 0 .1l-.232-.203zm-3.362-2.332v.8h-.464l-.348.304s-.116.1-.464.1v-.7c-.116.203-.232.203-.464.203s-.348.1-.464.1v-.304h.348v-.203c.232 0 .58 0 .8-.1a2.59 2.59 0 0 1 1.043-.203zm0 1.622v.406h-.464v-.406zm.927.7c-.232.1-.232.203-.232.406s-.116.304-.232.507c-.696-.203-1.4-.406-2.32-.406v-.507c.58.203 1.043.304 1.275.203s.8-.203 1.507-.203zm-.927 2.028v.8c-.696-.1-.927-.203-.696-.203.116 0 .232-.203.232-.608zm-1.4 3.853v.1h-.464v.406h-.348v-.913l.348.203.464.203zm4.52 4.563h-.464v-.608l.232.203s0 .1.232.406zm-.464.913v.304h-1.507c-.232.203-.232.304-.232.304s-.116 0-.464-.1c.116-.1.232-.203.232-.304 0 0 0-.1.232-.203zm4.87 9.836h-.464v-.7c.232.203.232.304.232.304s0 .1.232.406zm-8.463-2.94h-.348v-.406l.232.1zm1.855 10.444v1.217h-.464v-1.217zM97.38 49.96v.203h-.348v.304c-.116 0-.116-.1-.116-.203v-.304zm8.8 21.6v.304h-1.275v-.507c.232 0 .464.1.696.1.232.1.348.1.58.1z"/><path d="M13.037 90.267h2.355c0-.467-.074-.8-.22-1.068-.147-.2-.22-.467-.294-.734 0-.2.074-.4.147-.534 0-.133.074-.267.074-.467h-.22c0-.2-.074-.4-.074-.6-.074-.2-.074-.4-.074-.667h.147v-.8h-.147V84.33h-.22c-.147-.2-.22-.4-.22-.667l-.22-.8h-.37c-.147 0-.22-.067-.294-.067v-.467c-.22-.133-.368-.2-.515-.334s-.294-.267-.442-.467v-.2h-.515c-.147 0-.22-.067-.368-.067a.58.58 0 0 1-.221-.467c-.294-.067-.515-.133-.8-.133s-.515-.067-.8-.2v-.2H8.033v-.133H6.7l-.294.133h-1.18v.2a1.27 1.27 0 0 1-.662.2c-.22.067-.368.133-.515.133v.2h-.6c0 .2-.074.334-.147.334H2.88c-.074.133-.074.2-.074.267 0 .133-.074.2-.074.2H2.29c-.147.2-.368.467-.736.8H1.48v.267c-.294.2-.515.267-.515.267v.4h-.22v.334h-.07v.6c-.147.334-.294.734-.442 1.268s-.22 1.067-.073 1.6c.074.667.294 1.468.6 2.336l1.104 3.47.442 1.668c.147.8.368 1.535.662 2.336h.147v.6h.22c0 .267.074.467.074.667 0 .267 0 .467.147.667h.22v.534h.22c0 .2.147.6.368 1.268.147.667.368 1.4.662 2.202l.736 2.202c.147.667.294 1.135.368 1.268.074 0 .147.067.147.067 0 .067 0 .067.147.067v.4h.147v1h.147c0 .133.147.467.294 1.135s.368 1.335.6 2.07l.662 2.136c.147.667.294 1 .368 1.068.074 0 .147.067.147.067 0 .067 0 .067.074.067v.267c0 .067 0 .067.074.067 0 .067 0 .067.147.067v.667H9.2v.868h.22c.147.4.147.868.074 1.335-.074.534-.147.868-.294 1.068-.294.267-.515.467-.8.6s-.736.2-1.25.2c-.22-.133-.368-.267-.515-.4-.147-.067-.22-.2-.294-.4-.22-.133-.368-.334-.368-.6-.074-.267-.147-.6-.147-.934s-.074-.667-.074-.934c-.074-.267-.147-.534-.294-.734v-.067h-.8c-.147.2-.294.334-.368.334l-.22.2c-.147-.067-.22-.2-.22-.4s-.147-.267-.368-.133v.067h-.147c.074.267.147.4.147.534v.534h-.294c0 .133 0 .267.074.4 0 .133.074.267.074.334.147.067.368.133.515.2a.84.84 0 0 0 .515.2c-.074.133-.074.2-.074.2 0 .067-.074.133-.147.2l-.957.467c-.294.133-.6.334-.883.467v.467c-.147-.067-.368-.133-.515-.2-.22 0-.368-.067-.515-.067-.147.2-.147.267-.147.2l-.147.133a16.01 16.01 0 0 0 .368 1.068c.147.467.294.734.515.868.147 0 .368.133.6.267v.267c.294.267.6.467.883.6.294.2.515.4.8.534h.515v.2h.294v.267c.294.067.6.067.883.067s.6.067.883.133c.22.067.6.133 1.03.2s.883 0 1.325-.133v-.067h.883v-.2h.662v-.267h.294v-.2h.442s0-.067.074-.133c0 0 .074-.067.147-.2h.368l.22-.4h.368c.147-.067.22-.2.22-.4h.6l.294-.267v-.4c.074-.067.147-.133.22-.133 0 0 .074 0 .22-.133v-.267h.147v-.2s.074-.067.074-.2c.074 0 .074 0 .074-.067 0 0 0-.067.147-.067v-.534c.147-.067.294-.133.368-.2v-2.27c0-.868-.147-1.668-.442-2.47l-.8-2.136c-.074-.133-.074-.267-.074-.534 0-.2-.074-.4-.147-.534h-.074c-.147-.334-.22-.667-.22-.934-.074-.267-.074-.534-.074-.8h-.294v-.534h-.22v-.534h-.074v-.8c-.074 0-.147 0-.147-.067l-.147-.133v-.534h-.22v-.334c-.074 0-.074 0-.074-.067s-.074-.133-.074-.133v-.534h-.22c-.074-.267-.147-.6-.147-.934-.074-.334-.074-.667-.074-1.068H11.2v-.267h-.294v-1.068h-.147v-.334h-.147c-.147-.133-.22-.267-.22-.4s-.074-.267-.074-.467h-.22c-.147-.334-.22-.667-.22-1-.074-.267-.147-.667-.147-1.068l-.29-.28v-.2c-.074 0-.074 0-.074-.067S9.284 99.2 9.2 99.2v-.534h-.147v-1l-.22-.2v-.4c-.074 0-.074 0-.074-.067s-.074-.133-.147-.133v-.334c-.147 0-.147 0-.147-.067s-.074-.133-.147-.133v-.8H8.18v-.534c-.074 0-.074 0-.074-.067 0 0-.074-.067-.074-.133v-.334l-.294-.2v-.6l-.22-.2v-.534l-.147-.2v-.8c-.074 0-.147 0-.147-.067-.074 0-.074-.067-.074-.133l-.368-1.13c-.147-.267-.22-.667-.294-1.135H6.34v-.6c-.294-.534-.442-1.068-.6-1.535-.147-.4-.074-1 .074-1.668.147 0 .22-.067.294-.2 0-.133.074-.2.22-.334h.368v-.067H8.84c.22.334.442.6.6.734s.294.534.294 1.135h.22v1.135h-.22c0 .8.074 1.602.22 2.402l.957-.267c.442-.067.8-.067 1.25.067v.2h.883zM2.882 116.56v-.534h-.6l.147.4zm-.736 0h-.294v-.133h-.6c0-.133.074-.4.22-.667H.748c-.074.267-.074.467-.074.467 0 .067-.147.133-.294.2 0 .133.074.267.147.4l.22.4c.22-.067.294-.067.294-.067l.22-.2c.22 0 .368-.067.515-.067.074 0 .22-.133.368-.334zM.97 119.297h.294v-.267H.97v-.534H.75c0 .133-.074.2-.074.334v.2H.75v.467h.22zM6.5 122.7h-.15v-.4l.074.133v.067c0 .133 0 .2.074.2zM4.135 120.3v.267a2.77 2.77 0 0 0-.442.334c-.074.133-.147.267-.22.467H2.44v-.267h.442c.147-.667.515-1 1.177-1.068v.267zm-1.84.2h-.147v-.467l.074.133c0 .067 0 .2.074.334zM31.58 81.124c-.147-.067-.22-.067-.22-.067s0-.067-.074-.267l-7.58.133-7.58.067v3.937h5.077v1.668c0 .534.147.934.442 1.135v.133h1.472c-.074.133-.147.2-.147.334s-.074.2-.147.267h-.368s-.074-.067-.147-.2c-.074-.067-.074-.133-.074-.2H21.5c-.147.267-.22.6-.294.934-.147.4-.147.667 0 .8v.267C21.425 90 21.5 90 21.5 90s0-.067.147-.2c.22-.133.368-.334.368-.534 0-.133.074-.4.074-.8h.368v.334l1.177.6c.147.2.294.667.294 1.468-.294 0-.515.2-.6.534h-.22c-.147-.334-.22-.534-.294-.534h-1.62v1.068c0 .133-.074.133-.074.133h.074c0 .267.074.6.074 1 0 .467.074.934.074 1.4s-.074.868-.074 1.268c-.074.4-.074.6-.074.6v2.67h-.22v.267H20.9v.267h.074v.534h.22v1.735h-.22c0 .2.074.4.074.534s0 .334.147.534c-.147.4-.22 1-.294 1.802-.147.8-.074 1.4.074 1.935h.22c-.147.334-.147.6-.147.8 0 .267-.074.467-.074.734v4.605l-.074 3.604.074 3.27v.934c0 .334.074.667.074 1s-.074.667-.074.934v.534H20.9c-.147.334-.22.6-.147.734.074.2.147.334.22.467.074 0 .147-.067.294-.067s.22-.067.368-.2v-.2h.147v.2h1.545v.267l1.62-.067c.6 0 1.177-.067 1.766-.2.074-.133.147-.2.147-.334 0-.067.074-.267.074-.6-.147-.133-.294-.4-.294-.868-.074-.467-.074-1-.074-1.602l.074-1.668c0-.534.074-1 .074-1.335-.074-.2-.147-.4-.294-.6s-.147-.467 0-.868h.294v-1.068l-.147-.133c-.147-.067-.147-.2-.147-.467h.294v-2.202c-.147-.267-.22-.6-.22-1.068v-3.003a3.7 3.7 0 0 1 .22-1.335c-.294-.133-.515-.267-.515-.267s-.294-.067-.8-.067l-.074.067-.147.067v.6c.074.067.147.067.294.067s.22.067.368.067c-.074.2-.074.334-.074.334l-.074.067v.4H25.4c-.147.133-.22.334-.368.534a1.65 1.65 0 0 1-.515.467l-.294-.267c-.147 0-.294-.067-.515-.2l.22-.667.294-.8h-.883c-.147-.067-.22-.133-.294-.2-.074 0-.147-.067-.22-.2v-.334h-.147v-.8h-.22c-.147-.133-.22-.4-.22-.8h.22v-.2h.662v.734h.22c-.074.2-.147.4-.147.534-.074.133-.074.334-.074.534.294 0 .515-.067.662-.2.147-.067.22-.133.368-.267s.294-.2.442-.334c.147-.067.368-.133.8-.267v.467h.883c.074-.133.147-.267.147-.334v-.467c-.147 0-.294-.067-.294-.133-.074 0-.22-.067-.442-.067-.147.067-.22.133-.22.133-.22.133-.368.133-.368.067v-.2h-.6v-.334h1.766c.074-.2.147-.4.147-.6v-.8h.294l-.22-.4c-.074-.133-.074-.267-.074-.467h.294c.074-.334.074-.6-.074-.8s-.22-.4-.22-.667h.294v-14.55h-.294c0-.067 0-.2.074-.334s.147-.334.22-.467h-.294v-.267h.294v-.4l2.428.067c.8.067 1.545.067 2.134-.067.22-.4.294-.934.294-1.668v-2.002zm-8.757 3.67v.667c-.368 0-.515.067-.515.133 0 .133-.074.267-.22.4v.2h-.442c0-.2 0-.4.074-.6 0-.133.074-.4.074-.667h.515c.147 0 .294-.067.515-.133zm.515 8.542h-.662c-.294-.067-.515-.133-.6-.267v-.534c.515.2.957.467 1.25.8zm-.515.734v.534h-.147v.2h-.6v-.734zm.515 2.27h-.22v-.467l.074.133v.133s0 .067.147.2zm-.515-.734v.067c-.22.133-.294.2-.294.2 0 .067 0 .2-.074.467l-.294-.133c-.147 0-.22-.067-.368-.067v-.267c.22-.067.368-.133.442-.2 0 0 .22-.067.6-.067zm2.355 5.14v.334H24.8v-.334zm-2.502-1.468h-.22v1.535h-.22v-.334c-.442-.2-.6-.6-.442-1.268h.294c-.147-.2-.22-.4-.22-.534s-.074-.267-.074-.467h.662c0 .2 0 .4.074.6s.147.334.147.467zm2.723 3.604h-.294v-.267c-.294-.067-.442-.067-.6 0l-.294.267v-.267c-.294-.133-.442-.267-.442-.4s0-.334.147-.6h.883l.074.133h.074s.074.067.147.067v.534zm-1.03 2.002v.534l-.515-.133-.147-.4zm0 8.208h-.147c-.147.133-.22.133-.22.133s-.074.067-.294.067c.074-.067.147-.2.147-.334s0-.267.074-.467h.294v.267c0 .067 0 .067.074.067s.074.133.074.267z"/><path d="M36.804 79.923h.294v-.334h-.294zM34.597 94.47h.368v-.267c-.074 0-.074 0-.074-.067l-.074-.133h-.22zm12.068 28.563c0-.4 0-.8.074-1.335a2.87 2.87 0 0 0-.147-1.401h-.074v-1.87h-.294c-.074-.267-.074-.467-.074-.667v-.8h-.22l-.662-5.406-.6-5.406h.294v-.667c-.294.133-.368.2-.294.2h-.074c-.147-1.068-.294-2.136-.6-3.07v-1.668h-.294c-.074-.267-.074-.534-.074-.8v-.868h-.074l.074-1.735-.294-.467c0-.2-.074-.467-.074-.734v-.8h-.294l.074-1.068-.294-.467v-1.87H42.7c-.074-.267-.074-.534-.074-.868v-.934h-.294l.074-1-.368-.467v-.934c0-.267-.074-.534-.074-.934h-.147a11.18 11.18 0 0 0-.221-2.202c-.147-.667-.22-1.4-.22-2.202h.147c0-.2-.074-.4-.074-.534-.074-.133-.074-.334-.074-.6h-.294a7.77 7.77 0 0 0-.662-.667c-.147-.067-.515-.133-1.177-.133v.267h-.294v-.267c-.442-.067-.957-.067-1.472 0-.6.133-.883.267-1.03.4h-.147v1.4h-.22c0 .267.074.467.074.667s0 .4.147.6h-.22c0 .267.074.467.22.534h-.22v1.2h-.22c0 .4-.074.667-.074.934-.074.267-.074.6-.074.868l-.147.133c-.147.2-.147.334-.147.467h.294c-.074.267-.22.467-.442.667-.294.2-.368.467-.22.734h.294c0 .4-.147.734-.294 1.068h-.147c-.147.267-.147.534-.074.734 0 .267.074.4.22.534h.294c0 .2-.147.334-.368.4s-.294.2-.147.4h.147v.067h.736v.667h-.44v.534c.074-.067.147-.133.294-.133.074 0 .147 0 .294-.067V94h-.6v.2c.22.267.368.467.368.667 0 .267.074.534.22.868h.22l-.22.8h-.368c-.147.2-.294.267-.294.267-.074 0-.147.067-.294.067l.515.934a1.69 1.69 0 0 1 0 1.201h-.22c0 .133-.074.267-.074.334l-.22.267c-.22-.067-.368-.133-.368-.2-.074 0-.22-.067-.515-.133V100c.368.133.6.2.662.267.074.133.294.2.736.267v.2h-.22v.2h-.662c0 .133-.074.2-.074.267v.334c-.147 0-.22-.067-.368-.067s-.22-.067-.294-.2v.267c0 .133-.074.133-.147.133-.147 0-.147 0 0 .133h.147v.267h1.03v.2c.147.133.147.2.147.133 0 0 0 .067.147.2l-.662.2c-.147.067-.442.067-.8.067v.267c.368.2.883.267 1.472.267v.2l-.22.133c-.074 0-.147.067-.22.133 0 .133 0 .2.074.334 0 .133.074.267.074.4h-.147v.868c-.147.133-.368.2-.6.2h-.515c-.147.2-.294.334-.294.4-.074.067-.147.2-.22.4h.22c.074.133.147.334.147.467 0 .2 0 .4.147.534h.147v-.267h.662c0 .267-.074.4-.074.467 0 .133-.074.2-.147.334-.294-.133-.6-.267-.883-.334v.334c.22.133.368.267.368.334s.074.2.074.467h-.662v.133c-.147.133-.22.334-.22.6s-.074.6-.074.868l-.074.934c0 .334-.074.6-.074.734-.368 1-.515 2.202-.515 3.537v2.002c-.294.8-.515 1.668-.662 2.67l-.294 2.803h.294c.147-.133.22-.267.368-.534a.72.72 0 0 1 .368.067c0 .067.074.133.074.133h1.104v.267h1.692v.067a.24.24 0 0 0 .147.067s.074-.067.147-.067c0 0 .074 0 .074-.067.294 0 .515.067.8.067h.662l.22-2.47a14.14 14.14 0 0 1 .22-2.47c.22 0 .368-.067.515-.133.074-.067.294-.133.6-.133v.267c.22.133.6.133 1.104 0l.957-.267c0 .067 0 .133.074.133.074.133.147.133.294.133v1l-.22.868c.147.067.22.133.294.2s.147.067.294.067v.667h-.294c.074.4.147.734.147 1.068s.074.667.22 1l1.472.334c.6.133 1.25.133 1.84-.067l.957-.2c.294 0 .662-.067 1.104-.067zM34.45 104.95v-.8h-.515c0 .133-.074.267-.074.334-.074.133-.074.2-.074.2h.147c.147.133.147.2.147.2a2.24 2.24 0 0 0 .368.067zm7.874 5.806v.8c-.147.2-.368.334-.515.467s-.368.267-.515.467v.4l-.147.267c-.074 0-.147.067-.22.133v.267c-.22.267-.662.467-1.25.467-.662.067-1.25.067-1.692.067-.147-.667-.22-1.602-.147-2.803l.147-3.203h.368c.074-.467.147-.934.147-1.468v-1.668h.368c.074.267.22.4.442.467.147.133.294.2.294.334.22.267.368.534.515.667.074.133.22.334.442.534v.2c.147.133.22.267.294.267h.074s.074.067.147.067c0 .067.074.2.22.4h.294v1.268c0 .267.074.534.074.8v.4a.55.55 0 0 0 .294.267c.147.133.22.133.368.133zm-7.285-1.268c-.147.133-.22.2-.147.2 0 0-.074 0-.294.067v.2h-.736c-.147-.2-.147-.534-.147-1 .294.133.442.2.6.334s.368.2.736.2zm1.913 3.604c-.22.133-.515.267-.8.4s-.515.2-.662.334c.074.133.147.2.22.2a3.68 3.68 0 0 0 .22.334h-.294v-.2h-1.104v-.467c-.074-.133-.074-.334-.074-.6h-.22c0-.133.074-.267.074-.467a1.12 1.12 0 0 1 .147-.6h-.22v-.334h-.22c0-.067.074-.133.22-.267 0 0 .074-.067.22-.067 0-.2-.074-.334-.147-.467-.147-.133-.22-.2-.294-.334h.883v.8c.147-.133.294-.2.6-.2v.2c.442.2.736.4 1.03.6s.442.6.442 1.135zM61.75 81.124c-.147-.067-.22-.067-.22-.067s0-.067-.074-.267l-7.58.133-7.58.067v3.937h5.077v1.668c0 .534.147.934.442 1.135v.133h1.472c-.074.133-.147.2-.147.334s-.074.2-.147.267h-.368s-.074-.067-.147-.2c-.074-.067-.074-.133-.074-.2h-.736c-.147.267-.22.6-.294.934-.147.4-.147.667 0 .8v.267c.22-.067.294-.067.294-.067s0-.067.147-.2c.22-.133.368-.334.368-.534 0-.133.074-.4.074-.8h.368v.334l1.177.6c.147.2.294.667.294 1.468-.294 0-.515.2-.6.534h-.22c-.147-.334-.22-.534-.294-.534h-1.62v1.068c0 .133-.074.133-.074.133h.074c0 .267.074.6.074 1 0 .467.074.934.074 1.4s-.074.868-.074 1.268c-.074.4-.074.6-.074.6v2.67h-.22v.267h-.074v.267h.074v.534h.22v1.735h-.22c0 .2.074.4.074.534s0 .334.147.534c-.147.4-.22 1-.294 1.802-.147.8-.074 1.4.074 1.935h.22c-.147.334-.147.6-.147.8 0 .267-.074.467-.074.734v4.605l-.074 3.604.074 3.27v.934c0 .334.074.667.074 1s-.074.667-.074.934v.534h-.074c-.147.334-.22.6-.147.734.074.2.147.334.22.467.074 0 .147-.067.294-.067s.22-.067.368-.2v-.2h.147v.2h1.545v.267l1.62-.067c.6 0 1.177-.067 1.766-.2.074-.133.147-.2.147-.334 0-.067.074-.267.074-.6-.147-.133-.294-.4-.294-.868-.074-.467-.074-1-.074-1.602l.074-1.668c0-.534.074-1 .074-1.335-.074-.2-.147-.4-.294-.6s-.147-.467 0-.868h.294v-1.068l-.147-.133c-.147-.067-.147-.2-.147-.467h.294v-2.202c-.147-.267-.22-.6-.22-1.068v-3.003a3.7 3.7 0 0 1 .22-1.335c-.294-.133-.515-.267-.515-.267s-.294-.067-.8-.067l-.074.067-.147.067v.6c.074.067.147.067.294.067s.22.067.368.067c-.074.2-.074.334-.074.334l-.074.067v.4h-.294c-.147.133-.22.334-.368.534a1.65 1.65 0 0 1-.515.467l-.294-.267c-.147 0-.294-.067-.515-.2l.22-.667.294-.8h-.883c-.147-.067-.22-.133-.294-.2-.074 0-.147-.067-.22-.2v-.334h-.147v-.8h-.22c-.147-.133-.22-.4-.22-.8h.22v-.2h.662v.734h.22c-.074.2-.147.4-.147.534-.074.133-.074.334-.074.534.294 0 .515-.067.662-.2.147-.067.22-.133.368-.267s.294-.2.442-.334c.147-.067.368-.133.8-.267v.467h.883c.074-.133.147-.267.147-.334v-.467c-.147 0-.294-.067-.294-.133-.074 0-.22-.067-.442-.067-.147.067-.22.133-.22.133-.22.133-.368.133-.368.067v-.2h-.6v-.334h1.766c.074-.2.147-.4.147-.6v-.8h.294l-.22-.4c-.074-.133-.074-.267-.074-.467h.294c.074-.334.074-.6-.074-.8s-.22-.4-.22-.667h.294V86.263h-.3c0-.067 0-.2.074-.334s.147-.334.22-.467H56.6v-.267h.294v-.4l2.428.067c.8.067 1.545.067 2.134-.067.22-.4.294-.934.294-1.668v-2.002zm-8.757 3.67v.667c-.368 0-.515.067-.515.133 0 .133-.074.267-.22.4v.2h-.442c0-.2 0-.4.074-.6 0-.133.074-.4.074-.667h.515c.147 0 .294-.067.515-.133zm.515 8.542h-.662c-.294-.067-.515-.133-.6-.267v-.534c.515.2.957.467 1.25.8zm-.515.734v.534h-.147v.2h-.6v-.734zm.515 2.27h-.22v-.467l.074.133v.133s0 .067.147.2zm-.515-.734v.067c-.22.133-.294.2-.294.2 0 .067 0 .2-.074.467l-.294-.133c-.147 0-.22-.067-.368-.067v-.267c.22-.067.368-.133.442-.2 0 0 .22-.067.6-.067zm2.355 5.14v.334h-.368v-.334zm-2.502-1.468h-.22v1.535h-.22v-.334c-.442-.2-.6-.6-.442-1.268h.294c-.147-.2-.22-.4-.22-.534s-.074-.267-.074-.467h.662c0 .2 0 .4.074.6s.147.334.147.467zm2.723 3.604h-.294v-.267c-.294-.067-.442-.067-.6 0l-.294.267v-.267c-.294-.133-.442-.267-.442-.4s0-.334.147-.6h.883l.074.133h.074s.074.067.147.067v.534zm-1.03 2.002v.534l-.515-.133-.147-.4zm0 8.208h-.147c-.147.133-.22.133-.22.133s-.074.067-.294.067c.074-.067.147-.2.147-.334s0-.267.074-.467h.294v.267c0 .067 0 .067.074.067s.074.133.074.267z"/><path d="M71.168 122.033c-.442-.2-.6-.334-.442-.334s.074-.2-.074-.6c-.294-.667-.368-1.535-.294-2.536.074-.934.074-1.87 0-2.803v-3.737c.147-.4.147-.8.074-1.268-.074-.4-.074-.734-.074-1v-1.068c-.22-1-.294-2.202-.147-3.67l.147-3.937v-1c-.074 0-.147 0-.147-.067-.147-.067-.22-.133-.147-.267h.294v-2.27h-.294c0-.267.074-.534.074-.8s.074-.534.22-.8h-.294V93.94L70 91.47c0-.868-.074-1.668-.22-2.336 0-.067 0-.133.147-.267 0 0 .074-.067.147-.067v-.734h-.294c.074-.2.147-.4.147-.667 0-.2.074-.4.147-.667h-.294c-.147-.4-.147-.934-.074-1.535l.22-1.735v-1.668c0-.534-.147-.934-.442-1.2v-.267H68.15c-.147.133-.294.267-.6.267-.294.067-.662.067-.957.067h-1.03c-.368 0-.662-.067-.957-.067-.294.4-.515.8-.515 1.135v1.535h.294c-.074.334-.147.667-.147.934 0 .334-.074.667-.147 1 0 .4.074.934.147 1.468l.074 1.87.074 2.07v5.272c.074.467.074 1.068.074 1.735-.074.667-.074 1.4-.074 2.136v1.068c0 .067 0 .133.074.133s.147.133.147.334h-.22v1.2h.22c-.074.267-.147.467-.147.6-.074.2-.074.4-.074.6h.22v1.2h-.22v.934h.22v1.335a1.16 1.16 0 0 1-.147.467.47.47 0 0 0-.074.267h.22c0 .4 0 .667-.147.868s-.147.334-.074.467h.22v1h.074v3.07h.294l-.22 1c-.074.4-.147.734-.147 1.068h.074v2.736h.294c0 .133-.074.2-.22.334s-.147.334-.074.467c0 .133.074.2.22.2.147.067.147.133.074.267h-.294l-.074 1.735v1.668h.074v.2h1.325l1.25.267 1.766-.067c.515 0 1.03-.067 1.62-.2l.294-.267c0-.067.074-.267.22-.667zm-4.5-40.108h.442c-.074.4-.147.6-.22.667-.074.133-.22.2-.515.267v-.4h.294zm1.03 2.27h-.442v-.4h-.294v-.534h.147l.147.133c.147.267.22.4.294.4.074.067.147.2.147.4zm-.147 30.632v.534h-.294v-.267c-.074 0-.074 0-.074-.067l-.074-.2zm24.652 2.2l.22.067v-.4c0-.067-.074-.2-.074-.4h-.294v-3.87h-.294c.074-.067.147-.2.147-.334s.074-.334.147-.467h-.294v-3.003c.074 0 .147-.067.147-.2s.074-.2.147-.334h-.294v-1.068h-.074v-.267s.074-.067.074-.2v-1.87s.074-.067.22-.067.147-.133.074-.4h-.294c-.147-.534-.22-1.268-.074-2.07s.147-1.468 0-2.002c-.147-.2-.147-.334-.074-.467s.147-.2.147-.334h-.074v-.734h.074c.074-.2.074-.334.074-.334-.074 0-.147-.067-.147-.133v-3.27h.074c.074-.2.074-.334.074-.4l-.147-.133v-2.936h.074c.074-.133.074-.2.074-.2-.074 0-.147-.067-.147-.133V88.6h-.22v-.8s.074 0 .147-.067c0 0 .074-.133.074-.267h-.22V85.93h-.294v-.8h-.147v-.267h.147v-.8c-.22-.133-.368-.334-.368-.534-.074-.2-.22-.4-.368-.667-.147 0-.22 0-.294-.067-.074 0-.147-.067-.22-.067-.147-.267-.368-.467-.662-.734h-.294c-.147-.067-.147-.133-.147-.267 0-.067-.074-.133-.147-.2h-.442v-.267c-.294 0-.515-.067-.662-.133-.147 0-.368-.067-.6-.133v-.267h-.736c-.22 0-.515-.067-.8-.133l-1.104-.2c-.442 0-.8-.067-1.177-.067a3.18 3.18 0 0 0-.957.133v.067h-1.03v.2h-.883v.267H79.4v.2h-.294v.067c-.147.133-.294.2-.442.2s-.22.067-.294.067c0 .133-.074.267-.074.4-.074.133-.074.267-.074.4h.6v.2h-.294v.2c-.442-.133-.883-.2-1.325-.2v.2c-.147 0-.294.067-.442.067-.147.067-.22.067-.22.067-.147.267-.22.467-.22.667-.294.067-.442.133-.6.267v.467h-.294v.6h-.22v.734h-.294V90.2h.294v.067h-.294v.534h-.074v.8c0 .267.074.6.074.868h-.074v.534c0 .2.074.4.074.534v3.537h.294v.067h-.294v1.468h-.074v.067h.074v.467h.294c-.074.267-.147.467-.147.667s-.074.4-.147.6h.294v1.602h-.294v.2h.294c0 .067.074.267.22.6h-.22v.534h-.294c0 .133.074.334.22.534s.147.467.074.8h-.294v.133h.294l.147 2.603.074 2.47h-.22c-.074.133-.147.2-.147.267s-.074.133-.147.267a4.64 4.64 0 0 0 .515.2c-.074.067-.074.133-.074.133 0 .067-.074.133-.147.2h.22a.49.49 0 0 1-.147.334l-.074.067c-.074.267-.074.334.074.334h.147v1h-.22c.074.2.147.334.147.467s0 .334.074.534a.6.6 0 0 0 .294.067c.074 0 .147.067.294.067v.2h.6v.2c-.147.133-.22.133-.22.133s-.074.133-.074.267l-.294-.267c-.147.133-.368.267-.6.267-.074.133-.074.2-.074.267 0 .133-.074.2-.147.267h.22v.334h.294v.4c0 .133.074.2.074.267h-.6c.074.267.147.4.22.467 0 .067.147.2.294.334h.074c-.074.133-.22.2-.368.334-.22.133-.294.334-.22.534.074.133.147.267.294.267.147.067.22.133.294.133 0 .267-.074.4-.22.534s-.22.267-.147.467c0 0 .074.067.147.067h.22v.734c.074 0 .147.067.22.067h.294v.6c0 .2.074.4.22.667 0 .067.074.067.22.067s.294.067.442.067c.074.267.147.4.294.534l.442.4h.442c.074.133.147.267.147.4h.662a.83.83 0 0 0 .147.2c0 .067 0 .133.074.133h.883v.2c.294 0 .6-.067.883-.133.294 0 .662-.067 1.03-.133v.534l1.472.267c.6.133 1.177.133 1.692-.067v-.2h.368v-.267c.6 0 1.03-.067 1.472-.2v-.067c.147-.067.294-.133.442-.133s.294 0 .442-.133v-.2h.368s.074-.067.22-.334h.442c.074-.133.147-.267.294-.4s.22-.267.368-.4c.074 0 .22-.067.368-.067s.294 0 .442-.067c.147-.267.22-.534.368-.8s.294-.534.515-.8h.22c0-.267.074-.6.074-1v-1.068h.294c0-.067-.074-.133-.22-.267s-.147-.267-.074-.467h.294zm-15.6-32.7v.8h-.074v-.8zM86.4 110.42h.147c0 .133 0 .467-.074.868-.147.467-.22.734-.22.868 0 .267.074.467.074.667 0 .267 0 .467.074.667-.074.4-.074.8-.074 1.2s-.074.868-.074 1.268h-.294v2.47l-.074.067c-.147.133-.147.2-.147.267-.662.267-1.177.467-1.62.534-.442.133-1.104.067-1.913-.067-.147-.067-.147-.133-.147-.267s-.074-.2-.074-.334c-.147 0-.22 0-.22-.067-.074-.067-.147-.133-.22-.133v-.334h-.147v-1.135h-.22a4.64 4.64 0 0 1-.221-1.401c0-.4-.074-.868-.074-1.335 0-.067.074-.2.074-.334s.074-.267.22-.4h-.294v-7.074c-.294-.8-.368-1.735-.22-2.936l.147-3.27v-2.336h.074v-1.068c0-.2-.074-.4-.147-.667-.147-.2-.074-.467.074-.868h.074v-.934H80.8v-2.67s-.074-.067-.22-.067-.22-.133-.074-.267h.294v-.467h.074V90.2H80.8c-.147-.2-.147-.267-.074-.2.074.133.147.133.147 0v-.534l-.074-.067v-2.336h-.294c0-.267.074-.467.147-.734l.22-.734c.147-.067.294-.2.6-.334.22-.133.368-.334.515-.467h1.104v-.2c.22.133.442.133.736.133s.6.067.957.067c.147.267.368.534.515.8l.442.8.074 5.606.147 5.606.074 5.272.22 5.205c0 .4.074.734.074 1.135s0 .8.074 1.2zm4.194-1v.2l-.294-.067-.147-.133zm-.662 9.2v.4h-.368v-.4zm-12.14-2.47v.534c-.294.133-.442.267-.442.267-.074 0-.22.067-.442.133v-.133c.147-.133.22-.267.294-.4s.147-.267.294-.4zm-1.472 1.668h.294c0 .2-.074.334-.074.467v.467h-.22z"/><path d="M115.32 79.856v-.467h-.662v.2h.147c0 .133.074.133.147.133h.074zM98.395 94.47c-.294.133-.515.2-.515.2s-.074.133-.147.334c.294 0 .442-.067.442-.067s.074-.2.22-.467zm15.158 28.83c0-.133 0-.467.074-1s.074-1-.074-1.4h-.074v-2.87h-.294v-2.07h.294c-.147-.2-.22-.4-.22-.534s-.074-.267-.074-.534c0 0 .074 0 .147-.067s.147-.2.147-.467h-.294v-2.536c-.147-.067-.22-.133-.22-.133-.074 0-.147-.067-.147-.133-.147-.2-.22-.334-.074-.467 0 0 .074-.067.147-.067 0-.2 0-.334-.074-.467-.147-.067-.147-.2 0-.334 0-.067.147-.133.368-.2 0-.133-.074-.267-.22-.267s-.147-.067-.147-.2c-.147 0-.147-.067 0-.2 0 0 0-.067.074-.067v-.4l-.074-.067v-.067h.074c0-.133-.074-.267-.074-.4v-.334s.074-.067.22-.133l.442-.2c-.147-.133-.294-.2-.368-.2-.147 0-.22-.067-.22-.133 0 0-.074-.067-.074-.2v-.6h-.736v-.4h.736c-.147-.267-.22-.534-.22-.734 0-.067.074-.133.147-.133 0 0 .074 0 .147-.067 0-.067-.074-.2-.074-.334v-.467h.368c-.147-.267-.294-.467-.368-.467-.147 0-.22-.2-.22-.6h-.515v-.534h.515c.147 0 .368 0 .59-.067v-.467c-.22 0-.368-.067-.515-.133-.147 0-.22-.133-.368-.4.294-.133.442-.534.515-1.135v-1.535h-.22c0-.067 0-.2.147-.334.074-.133.074-.4.074-.667-.147 0-.22 0-.22-.067-.147-.067-.147-.2 0-.467 0 0 0-.067.074-.133s.147-.2.147-.4l-.368-.334c-.147-.067-.294-.133-.368-.2v-.267h.22v-1.2h.294v-1c0-.467-.074-.934-.074-1.468s-.074-1-.147-1.468c-.074-.4-.074-.734-.074-.868 0-.267.074-.467.074-.667 0-.133.074-.334.22-.6h-.294c0-.067.074-.133.074-.267 0-.067.074-.133.22-.267h-.294v-1.2s.074 0 .147-.067.147-.133.147-.267h-.294v-.8h.294l-.22-.133-.074-.133h.294c-.147-.133-.22-.2-.22-.334s-.074-.267-.074-.4c-.147-.667-.147-1.468-.147-2.402s.074-1.668.147-2.07c-.59-.2-1.25-.267-2.134-.267l-2.428.067v.2h-.81v.6h.294c.074.267.147.467.147.734s.074.467.147.734h-.294v2.136c.147.133.22.334.294.534h-.294c.074.267.147.534.147.8s.074.534.147.734h-.294c-.074.2-.074.4 0 .6s.147.4.294.6a3.06 3.06 0 0 0 .294.734h-.074c-.074.067-.147.067-.147.067h-.074c-.074 0-.147.067-.147.067h-.147c.074.4.147.734.147 1s.074.534.147.8c-.074 0-.147.067-.147.067-.147.133-.22.267-.147.267h.294v2.402h-.294v1.535h.294c-.074.267-.147.467-.147.6 0 .2-.074.4-.147.6h.294v.6h.22c0 .334 0 .6-.074.734-.147.133-.147.334-.147.534 0 .334 0 .534.074.534 0 .133.074.133.147.133 0 .4 0 .8-.074 1.2l-.147.934h-.294c-.074-.2-.147-.4-.147-.6s-.074-.4-.147-.667l.294-.067c-.147-.133-.294-.2-.442-.334s-.294-.2-.442-.334c-.074-.334-.074-.667-.074-1s-.074-.667-.074-1.068h-.59v-.267c.368-.133.515-.334.515-.467s-.147-.467-.368-.868v-.534c-.074 0-.22-.067-.368-.133s-.22-.2-.22-.4c.147-.067.22-.267.147-.667h-.147v-.534h-.22v-1.535c-.147 0-.368 0-.515-.133 0-.267-.074-.534-.074-.868v-1h-.22v-.467h-.294v-.934h-.22v-.6h-.074v-.934h-.294v-.934h-.294v-.534h-.22v-1h-.074v-.334h-.294c-.147-.334-.22-.868-.147-1.535 0-.667-.074-1.2-.22-1.468-.294-.133-.662-.2-1.177-.2a7.44 7.44 0 0 0-1.398.133v.067c-.442.133-.81.2-1.177.067-.442-.067-.736 0-.957.2-.147.133-.147.2-.147.2v.267h.442c-.074.2-.147.334-.22.334-.074.067 0 .2.22.4h.368c-.074.067-.147.267-.22.534l.22.267h-.81c.074.667.074 1.2.074 1.735-.074.534-.074 1.268-.074 2.202h.59v.2h-.442v1.068h.294v.267h.59v.2h-.59c0 .534-.147.934-.294 1.335h.442v.534h.81v.267h-.368v.067c-.147.133-.294.2-.368.2h-.368c-.074.067-.147.2-.147.4h1.03c.147 0 .442.067.957.2v.267h-1.324c-.074.067-.147.067-.147.067h-.22v.467c.368 0 .662 0 .81-.067s.442-.067.883.067v.2H97.29c0 .334-.074.534-.074.667s-.074.334-.074.467h.147l.147.133c-.074 0 0 0 .294.067v.334h.442c.074-.2.147-.334.147-.334s.147-.067.515-.2v.534h.442c0 .133 0 .2.074.334 0 .133.074.2.074.334h-.59l.147.467s.147.067.442.067c0 .4-.074.667-.147.734s-.147.2-.294.334c.22.2.515.267.883.267v.467c-.442.133-.883.2-1.325.267-.442.133-.81.267-1.25.467-.074.067-.074.133-.074.267s-.074.2-.074.267c.294-.067.59-.133.81-.267.22-.067.59-.133 1.03-.2v.267c-.147.133-.294.2-.294.2s-.074.133-.147.334h.294v.2h-.883l-.147.133s-.074.067-.22.067c-.074.133-.147.267-.22.334s-.074.133-.074.2c.22.133.442.133.662.133.147 0 .368.067.59.133v.267c-.147.067-.294.133-.368.267.074 0 .22 0 .368-.067l.442-.133v.2c-.294.2-.442.334-.368.4 0 .067.074.267.22.6-.442 0-.736.067-.957.067s-.442.067-.736.067v.467c.442-.067.736-.133.736-.2s.22-.133.662-.267l.147.133s.074.067.147.067v.267h-.662c-.22 0-.442.067-.59.067v1.068c.074 0 .147.067.294.067h.294c-.074.267-.074.4-.074.534s-.074.334-.147.467h-.22c0 .133.074.2.074.334s0 .2.147.267c-.147.067-.22.133-.22.133 0 .067-.074.067-.147.067-.147.267-.147.4.147.467.22.133.294.2.22.267h-.368c-.147.133-.294.2-.294.267 0 .133-.074.2-.147.2.147.667.59 1.068 1.398 1.068l.147-.133h.074c-.074 0 0 0 .22-.133v.267l-.662.267c-.147.133-.147.334-.147.734h-.442c0 .267.074.4.074.467 0 .133 0 .2.147.334h.442l-.22.133v.133h-.883v.467c.147.067.22.133.368.133.074.067.147.133.294.2v.2c.147.067.368.067.515.067s.368.067.515.133v.267h-.147v.067h-.662c-.22 0-.442-.067-.59-.067 0 .267.074.467.147.467 0 0 .074 0 .147-.067h.147a2.02 2.02 0 0 0 .147.4h.368c0 .133-.074.267-.074.4-.074.133-.074.267-.074.334.294 0 .59.067.883.067.294.067.59.133.883.267-.294 0-.662.067-1.03.067l-.957.2c-.294.133-.515.267-.662.4s-.074.334.074.467l.074.067c0 .067.074.067.074.067s.074 0 .22.067c.074-.067.147-.133.147-.267s0-.2.074-.334c.074.067.147.067.294.067.074 0 .22.067.368.067-.147.133-.147.2-.147.267s-.074.133-.147.2c-.147 0-.22.067-.294.067-.147.067-.22.067-.294.067v.467h.442l-.074.067h-.147c-.147.133-.147.2-.147.2s-.074 0-.294.067v.8c0 .067.074.067.22.067.074 0 .147.067.22.067 0 .267-.147.4-.294.4-.22 0-.294.133-.147.4.074.133.147.133.294.133s.22.067.368.067c.074.133-.074.267-.368.4-.368.2-.515.4-.442.667h.147v.8h.22c-.147.133-.147.2-.147.334s-.074.2-.074.2v3.07s.074.067.147.067c.074.133.074.267.074.4h-.22v.534c.662 0 1.472-.067 2.355-.133l2.65-.133c.074-.334.147-.734.147-1.135s.074-.868.074-1.268h-.22v-1.468c.074-.133.147-.267.147-.4s.074-.267.074-.4h-.22c.074-.267.147-.6.147-.868s.074-.534.074-.868c0-.067-.074-.133-.147-.133s-.147 0-.147-.067v-.6h-.294c-.074-.267 0-.4.22-.467.147-.067.22-.334.147-.8h-.074v-1.068h.074c.074-.267 0-.534-.147-.868s-.22-.6-.22-.8a2.12 2.12 0 0 0 .368-.801h-.074v-.2c-.294-.067-.442-.067-.515 0s-.22-.067-.368-.334c.294-.133.662-.2 1.177-.2 0-.4-.294-.667-.81-.734v-.534h.515v-2.136h.074v-.2h-.074v-.734c0-.267.074-.534.074-.8 0-.067-.074-.067-.074 0s0 0 0-.2c-.074-.2-.074-.334 0-.467 0-.133.074-.2.074-.334h-.074v-.334h.59v.133h.294v1.2h.59c-.22.667-.294 1.2-.147 1.735l.442 1.668c.074.334.147.667.147.934s0 .534.147.8h.22v.467s.074.067.147.067h.22l-.147.4c-.147.334-.147.534 0 .6h.147v.534h.294v.8h.147v1.135h.294c.074.267.147.6.147 1h.442c-.074.133-.147.334-.294.534a.46.46 0 0 0 0 .601c.074.067.147.067.22.067s.22.067.368.133c0 .133-.074.2-.147.267s-.147.067-.147.067v.267h.294v1.668h.294c.074.267.147.534.147.8s.074.6.147.934h.22v.534h.074c0 .267 0 .4-.074.534l-.22.4c-.074.133-.074.2-.074.334s.074.334.368.534v.067h1.766v-.067h1.472v.067h.883v-.067c.22 0 .442.067.736.067h.883zM98.983 95.74c-.147 0-.22-.067-.22-.067l-.22-.2-.22.2c-.074.067-.147.067-.147.067h-.515c-.147 0-.22-.067-.368-.067v.067c-.147.133-.147.2-.147.2v.267h1.692c.074 0 .147-.133.147-.467zm-.147.8h-.294c0 .133-.074.267-.074.4-.074.133-.074.2-.074.334h.147v-.267c.074-.067.147-.133.294-.133.074 0 .074-.067 0-.334zm-1.177.734h.074v-.267h-.59v.267h-.22c-.147.133-.147.2.147.133.294 0 .442-.067.515-.067zm.074 3.87h.22v-.267h-.22v.2h-.147l.074.067zm7.21 3.27v.467c-.22 0-.368.067-.515.067-.147.067-.22.067-.294.067v-.6zm-3.532 4.605v.267h-.883v-.267zm.736 3.07v.267h-.736v-.267zm.22 1.935v.2h-.59v-.2zm-1.398.334l-.147.267c-.074.133-.074.2-.074.2-.074 0-.147.067-.147.067h-.294v-.067h-.147v-.267s0-.067.074-.133c0 0 .074-.067.074-.2.074 0 .147.067.294.067a.72.72 0 0 0 .368.067z"/><path d="M198.988 26.43h.605v-4.55c0-.875-.202-1.75-.202-2.626-.202-.7-.403-1.4-.403-1.75h-.806v-1.225l-1.613-1.926c-.605-.7-1.2-1.4-1.613-2.1h-1.2c-.202 0-.403-.175-.807-.875h-.807c-.403 0-.403-.175-.403-.35 0 0-.202-.175-.403-.525h-.806c-.605-.35-.807-.7-.807-1.05h-1.41V9.1c-.403 0-.605 0-1.008-.175s-.605-.35-1.008-.525v-.525h-1.613v-.35c-.605 0-1.613-.175-3.024-.175l-4.637.175-4.436.175c-1.41 0-2.218.175-2.62.175V8.4l-1.2.525c-.403.175-.807.175-1.2.175v.35c-.403.35-1.008.35-1.41.35s-.807.175-1.008.175c-.807.525-1.2 1.05-1.613 1.4-.807.7-1.41 1.05-1.815 1.05s-.605.7-1.008 1.75c-.807 0-1.2.175-1.2.175s-.202.175-.403.525c-1.2 1.05-1.815 2.276-2.218 3.676-.403 1.575-.403 3.15-.403 4.9s0 3.676.403 5.426l.605 4.726 4.84.525a17.55 17.55 0 0 0 6.049 0v-.525c.807-.175 1.2-.175 1.613.175.202.35.605.525 1.41.7v-.35h.403v-8.577c0-1.575.202-2.976.605-4.026.202 0 .605-.175 1.2-.7.202-.175.403-.35.605-.7h7.057c0 .35.202.525.403.525 0 0 .403.175 1.2.175v1.225c.202 0 .403.175.403.175h.605c.403.7.403 1.75 0 2.8s-.807 1.75-1.008 1.926v2.1h-.605c-.403.525-.605 1.05-.605 1.575 0 .7-.202 1.225-.202 1.75h-.202v1.75l-.807.7v.875h-.605v1.4l-.605.7v1.4h-.403v1.575h-.807c-.403 1.05-.605 2.276-.807 3.326l-.807 3.5-.605.7v1.926h-.605v.7h-.605c-.403 1.05-.605 2.1-.605 3.15l-.605 2.976h-.403v1.4l-.605.7v1.05h-.605v1.4h-.403l-.807 2.8c-.403 1.05-.605 1.926-.605 2.8h-.202v.875l-.807.525v.875h-.605c-.202.7-.403 1.4-.403 1.926 0 .7-.202 1.225-.403 1.575h-.202v2.1h-.605v2.1l-.807.7v1.225l-.807.7v2.45h-.806c-.403.7-.403 1.4-.403 2.1s-.202 1.4-.403 2.1h-.403v.7h-.403l-1.008 3.85-1.008 3.5h-.403v1.4l-.605.7v.7h-.605v1.4l-.807.7v1.4h-.202v2.45h-.605v1.4l-.807.7v3.15h-.605v14.18c.403.35 1.2.525 2.016.525.605.7 1.613 1.05 3.226 1.05 1.41 0 2.62-.175 3.83-.35v1.4h.807c.807-1.05 1.41-1.4 2.218-1.225s2.016.175 3.63-.175c0 0 0-.175.202-.35s.605-.35 1.008-.35c0 .35.202.525.202.7s0 .35.202.525h6.452c.807-.175 1.41-.35 1.41-.525s0-.35.202-.7c.807-.175 2.016-.175 3.226.175s2.218.525 2.62.525c.807.35 1.613.35 2.823.35s2.218-.175 3.226-.35c1.008 0 2.016-.175 2.823-.525.807-.175 1.2-.525 1.613-.875v-2.1c.807-.7 1.008-1.75.605-3.5s-.605-2.976-.605-3.85c-1.2-.35-2.218-.7-3.428-.7v.7h-2.218v-.7h-1.613v-.525h-3.83v.525h-3.428v-.525c-.403 0-1.008.175-2.218.525s-2.016.525-2.218.7h-3.63c-.403-.35-.403-.525-.403-.7 0 0-.202-.175-.202-.525h-1.2c-.403.175-.807 0-1.008-.7v-4.376h.605c0-.875.202-1.75.403-2.626 0-.875.403-1.926.807-2.976h.403V99.6l.605-.35V98.2l.605-.35v-1.225h.605c.403-1.225.605-2.626 1.008-4.026l1.41-4.376h.403v-1.75l.605-.7v-1.225l.605-.7v-.7h.807v-1.75c0-.525.202-1.05.202-1.75l.807-.875v-2.1h.605v-1.575h.403v-2.1h.605v-.7l.807-.7v-.875h.403v-1.4h.605V67.74l.605-.525v-.875h.403v-1.926l.605-.525v-2.1l.807-.7v-1.225h.202v-.7h.605v-1.4l.807-.7c0-.875.202-1.75.403-2.45s.403-1.575.403-2.45h.807c.202-.525.403-1.05.403-1.575s0-1.05.403-1.75h.605c.202-1.926.605-3.85 1.008-5.602s1.008-3.676 1.613-5.426h.605v-1.4h.605v-2.276h.807v-1.75h.403v-1.4h.403v-1.4h.807zM188.1 110.978c-.403-.35-.605-.35-.605-.35s-.202 0-.807-.35c0 .35.202.35.403.35h.202z"/><path d="M239.515 48.66c-.202-1.4-.403-3.326-.403-5.602-.202-2.276-.605-4.376-1.2-6.127h-.605v.7h-.605c.202.175.403.35.403.7s0 .525.202.875h-.605c-.403.175-.403.35-.403.525 0 .35-.202.525-.403.875h-.807v2.8h.807v-.875h1.41c0 1.225 0 2.1.202 2.626.202.7.403 1.4.807 2.276h-.807c-.403 0-.605-.175-.807-.175v.175c-.403.35-.605.875-.807 1.575s-.202 1.4-.202 1.926l.202.525c.807 1.4 1.41 2.276 1.815 2.276s.605.175 1.008.35c-.403-.35-.605-.525-.807-.525 0-.7 0-1.05.202-1.225 0-.175.202-.525.202-.875h-.403v-2.276h-.605l.605-1.225c.202.35.403.525.807.525.202 0 .403.175.807.175zm-.605 2.8h.605v-.875h-.605zm.605 5.25v-1.225c-.403 0-.807 0-1.2-.175-.403 0-.807-.175-1.008-.175v.35c-.403.35-.403.525-.403.525s0 .175-.202.7c.605 0 1.008-.175 1.008-.175s.202-.175.403-.175c-.202 0 .202.175 1.41.35zm-3.63 4.726h2.016v-2.8h-2.016zm-7.057-4.2l.403.35v-2.8h-.605c0-.525 0-.875.202-1.225.202-.175.403-.525.403-.875h-.605v-.7h-1.815c0 .525 0 1.05.403 1.4l.403.7h-.807c0 .35-.202.7-.403.875s-.202.35-.202.525h.605c0 .875.403 1.4 1.008 1.4s1.008.175 1.008.35zm7.864 9.803h1.2v-.525l-.403-.175c0 .175-.202.175-.202-.175h-.605zm1.613 2.976c-.605-.175-1.008-.35-1.008-.7-.403.7-.605 1.05-.807 1.225s-.403.525-.605.875l.807.7c.202 0 .605-.175 1.008-.525.403-.175.605-.7.605-1.575zm2.016 4.026c-.403-.175-.807-.35-.807-.7-.202-.175-.403-.35-.605-.7h-.605v.35h-1.613v.525c-.605 0-1.008-.175-1.008-.525v1.05h1.008v2.1h1.2v1.05h1.008v-1.05h-1.008c0-.525 0-1.05.202-1.575 0-.35.202-.875.202-1.575h.605c.202.7.605 1.05 1.41 1.05zm-11.1 2.1v-5.25c-.403 0-.605-.175-.807-.525-.605-.35-.807-.7-.807-1.05h.807l.807-.7h-.605c-.403-.175-.605-.525-.807-.875-.403-.35-.605-.875-1.008-1.575.202-.35.403-.7.807-.7s.605-.525 1.008-1.926c-1.008-.35-1.41-.7-1.41-1.4v-.525l.403-.875h1.008v-1.75h-.605l-.403-.175s-.403 0-.807-.175v1.4h-.605v-1.05c-.807.175-1.41.175-1.41.175-.202 0-.403.175-.605.35l.202 1.225 1.815.175v1.926c-.403 0-.605.175-.807.175h-1.008v1.75h1.41v-1.75h1.008l-.807 2.276c-.202.35-.202 1.225-.202 2.45h-1.41v.875a2.53 2.53 0 0 0 .605.35c.202.175.403.175.807.175-.403.175-.403.35-.403.7s-.202.525-.202.875h-.807v.7c0 1.75.403 2.8 1.41 3.5.807.7 2.016 1.05 3.428 1.225zm8.065 4.026h1.008v-1.05h-1.008zm2.42 30.808c0-.35-.202-.875-.202-1.225v-1.05h-2.823v.875h-1.008c-.202 0-.403-.175-.605-.35v.35h-.807v2.1h-.807c0-.525-.403-1.05-.807-1.4v3.326h-1.613v1.05c0 .35.202.525.202.7.605-.175 1.008-.35 1.2-.35h1.008c.202 1.05.403 2.1.403 3.15s.202 2.1.403 2.976l-.807.525-.403.175c-.403 0-.807 0-1.008-.35-.403-.175-.605-.35-.807-.35-.202.35-.202.7-.202 1.225s-.202.7-.605.7-.605 0-.807-.175v-.525h-.403v-2.626c.202-1.4.403-3.676.403-6.827v-8.752h-1.008v-.35c-.403.175-.605.175-.807.175-.403 0-.605.175-1.008.175 0-.525.202-1.225.403-2.1.202-.7.807-1.225 2.016-1.225v-9.102c0-1.05.202-2.276.202-3.676a33.83 33.83 0 0 0-.605-6.477c-.403-2.1-1.41-3.5-2.62-4.376l-.403-.525c-.403.7-.403 1.225-.403 1.75 0 .7-.202 1.225-.202 1.75h-.807v.875c0 .875 0 1.75.202 2.626 0 .875.202 1.75.202 2.45 0 1.05-.202 1.75-.605 2.1v.525h-3.63v.35h-3.428c-.403-.525-.605-.875-.807-.875-.403 0-.605-.175-.807-.175h-.605c-.202 0-.403 0-.605-.35V82.97l4.84-13.654 5.04-13.83c0 .175.202.35.605.35s.605.175 1.008.35c-.403-.525-.403-1.05-.403-1.4s-.202-.875-.202-1.225h.605v-.875h.403v-.7h-.403v-.525h.403v-2.8h.605v.525h1.815c-.403-.875-.605-1.4-1.008-1.75s-.807-.875-.807-1.926h.807v-1.4h.403l.202.35s.202 0 1.008.175c0-.175-.202-.35-.403-.7s-.202-.525-.202-.7h-.605v-.7h.605c0-.7 0-1.4.202-2.1s.403-1.225.403-1.926c.403 0 .605.175 1.008.35s.605.35 1.008.35v-.7h1.41v-.7l-3.024-.175h.605c0-1.225 0-2.1.403-2.8s1.008-1.225 2.016-1.926c-.202-.175-.403-.35-.605-.35h-.807v-.525h.605v-2.1h.807v-1.575h.807c.202 1.575.605 2.626 1.41 3.15s1.41 1.4 1.815 2.626h1.613c.202-.875.403-1.75.403-2.626s0-1.75.202-2.626c-.202 0-.403 0-.403-.175-.202 0-.202-.35-.202-.875v-.35h.605v-2.1h-.605v-.525c-.403.35-.605.35-.605.35s-.202 0-.403.175h-.605v.7h.605c-.807 1.05-1.2 1.575-1.613 1.575s-1.2 0-2.218.35l1.41-5.777a147.76 147.76 0 0 0 1.815-6.302h.605c0 .35.403.7 1.008.875v-.875h.605c-.202-.35-.202-.875-.202-1.225s-.202-.875-.403-1.4h-.403c0-.35.202-.875.202-1.225s.202-.7.202-1.05c0-.7-.403-1.05-.807-1.4-.403-.175-1.008-.35-1.815-.525-.807 0-1.41-.175-2.218-.175h-2.42v1.75l-2.42-.175.202-.35s0-.175.403-.875h-1.613V9.8c-.403.35-.605.525-.605.35 0 0-.202.175-.202.525h-1.008c-.403 0-.403-.175-.403-.525s-.202-.525-.202-.875h-.807V9.8l-.202.35v.525h-2.016l-2.016 6.827-2.016 6.477h-.605v2.45h-.403v1.05h-.807v2.45h-.403c-.403.7-.605 1.225-.605 1.75v1.75h-.605v1.4h-.403v1.575h-.807v1.4h-.605l-.605 2.976c-.202 1.05-.403 1.926-.403 2.626h-.605v1.225h-.807l-.202 3.326h-.605v1.4h-.807v2.1h-.807v4.026h-.807v2.1h-.807v1.05h-.403c0 .7-.202 1.225-.202 1.926-.202.7-.202 1.575-.202 2.276h-.806v.7h-.403l-1.008 3.85c-.403 1.225-.605 2.45-.807 3.5h-.605v1.225h-.807l-.202 2.976h-.605v2.1h-.807v2.276h-.605l-.202 4.726h-.807V99.25c.807 0 1.41.35 2.218.7.807.525 1.815.7 3.226.7.605 0 1.2 0 1.815-.175.605 0 1.2-.175 2.016-.35v1.575h.807c.605-1.05 1.2-1.4 2.016-1.225.605.175 1.815 0 3.428-.35 0 0 0-.175.202-.35s.403-.35.605-.35l.605.525c.202.35.403.7.403.875h7.46v-.7c.202 0 .403-.175.807-.175s.807 0 1.613-.35l-.202 8.227c-.202 2.626-.202 5.25-.202 7.702v3.85c0 1.225.202 2.45.403 3.676 2.016.35 4.033.525 6.452.525l7.26.175c.202-.35.403-.525.403-.7s0-.35.202-.7c-.403 0-.403-.175-.403-.175s0-.175-.202-.525c-.807.35-1.2.7-1.613.7-.403.175-.807.35-1.613.525v-1.225h-.605c0-.175.202-.7.605-1.4h1.008c0-1.225-.202-2.276-.605-3.326-.403-.875-.807-1.926-1.008-3.326.403 0 .605-.175.807-.35.202 0 .605-.175 1.41-.35 0 .35.202.7.403.7.202.175.605.35 1.2.7v-.875c.403-.35.807-1.225.807-2.45zm-1.815-22.23h1.613v-.525h-.605v-1.926h-.605v-.7h-.403zm-5.242-3.15h.807v-2.1h-.807zM250 93.648c0-1.575-.202-2.8-.605-3.676-.403-.7-1.613-1.225-3.428-1.225v.35h-2.42v-.35c-.605-.175-1.2-.35-1.815-.35s-1.008 0-1.41-.175v9.453h-1.41V94.35h-.605c0 .35-.202.875-.202 1.225-.202.35-.202.7-.202 1.05h-.605c0 1.05.202 1.926.605 2.626h1.613v-1.225h.807v2.1c.403 0 1.008.175 1.815.175h2.016c2.42 0 3.83-.525 4.637-1.575s1.2-2.626 1.2-5.076zm-14.92-4.9h.605v-.525h-2.218l.807.35c.202.175.403.175.807.175zm2.823 4.2h1.613v-.7h-.605l-.403-.35s-.202 0-.605-.35zm-4.436-6.302h-1.613v1.575h.807v-.525l.403-.35c-.202 0 0-.175.403-.7zm-.807 8.402h.807v-2.8h-.807v-3.15h-.807v3.326c0 1.05.403 1.926.807 2.626zm-.807 3.676h1.613V95.75h-.807v.525h-.807zm7.057 4.026h1.41v-1.05l-.807.525c-.202 0-.403 0-.807-.175s-1.008-.35-1.41-.35c-.202 1.05-.202 1.926-.202 2.626 0 .875-.202 1.75-.403 2.45.202.35.605.525 1.008.7.403.35.807.525 1.2.7v-2.1c0-.7.202-1.4.202-2.1s-.202-1.05-.202-1.225zm-3.83 4.026h.605v-1.05h-.605zm-2.42 2.45h.807v-3.5h-.807l-.605 1.4s-.202.875-.202 1.575zm4.637 7.527h1.008v-1.4h-.403v.35c-.403.35-.403.525-.403.35 0 0-.202.175-.202.7zm.605 2.1h.403v-1.05h-.403zm-13.51-64.067h-.202v-.7c0 .175 0 .35.202.7zm12.904 56.015h-.605v-1.225a2.19 2.19 0 0 0 .403.525s0 .175.202.7zm-9.678 2.8h-.807v-.7l.807.7zm0 5.25v2.8h-.807v-2.8z"/></g><path d="M149.7 131.937c.666-.335 1.164-.877 1.5-1.642.375-.83.787-2.515.904-3.7l.27-2.26c.17-1.256.33-3.516.5-7.223l.264-4.52c.27-4.01.41-9.642.362-14.722l-.045-4.852-.5-2.426c-.936-4.544-.898-4.053-.9-11.414-.002-4.254.047-7.22.136-8.436l.608-7.815c.05-.183 1.365 1.973 1.47 2.412.06.243.137.775.174 1.183.1.98.4 1.963 1.053 3.347.71 1.505.7 1.963-.068 2.823-.207.232-.377.495-.377.583 0 .22.403.42.72.36.374-.072.325.046-.23.557-.347.32-.49.538-.49.746 0 .28.02.29.41.22.225-.04.524-.15.665-.243l.257-.167-.074.44c-.064.38-.043.45.143.51.286.092.764-.032 1.132-.292.25-.176 1.814-2.123 2.097-2.61.197-.34.25-.96.168-1.94-.076-.898-.153-1.174-.58-2.087-.446-.953-1.626-3.915-4.943-12.418-.794-2.036-1.7-4.06-2.982-6.672-1.025-2.086-2.092-4.434-2.407-5.293-.55-1.5-2.575-9.278-2.45-9.405.138-.14.992.25 1.418.646.256.238.5.433.542.433.154 0-.084-.514-.588-1.268-.708-1.06-.876-1.416-.876-1.857 0-.376.07-.502 1.145-2.02.432-.61.436-.627.473-1.754.044-1.36-.095-1.93-.792-3.26-.905-1.725-1.446-3.592-1.553-5.363-.038-.622-.033-1.13.01-1.13.227 0 .824.623 1.21 1.26.24.398.478.724.53.724.156 0-.034-.786-.36-1.488-.32-.69-.738-1.296-1.763-2.557-.336-.413-.67-.925-.743-1.137s-.175-1.13-.228-2.04c-.173-2.976-.604-5.27-1.35-7.195-.147-.38-.228-.69-.18-.69.137 0 .826.808 1.282 1.503.258.393.425.563.446.454.04-.21-.5-1.337-1.06-2.178-.625-.953-.61-.92-.356-.783.546.296.465.083-.346-.903-1.084-1.32-3.53-3.613-4.29-4.023L138.4 0h-6.365l-.916.516c-1.668.94-4.667 3.42-5.9 4.877-.705.834-.838 1.087-.5.95.105-.043.387-.104.627-.136l.436-.058-.436.33c-.673.51-.998.908-1.318 1.617-.355.785-.476 1.97-.256 2.508l.145.353.198-.814c.275-1.13.587-1.727 1.1-2.102.24-.176.477-.32.524-.32s-.107.334-.343.743c-.366.634-.428.83-.418 1.35.006.335.044.73.085.878.068.247.087.23.215-.205.153-.515.92-1.824 1.367-2.33a2.54 2.54 0 0 1 .597-.483c.31-.16.32-.158.388.11.047.187-.016.425-.194.74-.144.256-.29.692-.325.97a3.77 3.77 0 0 1-.891 1.964c-.47.528-1.302.878-2.31.973-.38.036-.69.1-.69.146 0 .08.37.247.854.386.254.073.254.074.04.31-.31.344-.46.677-.46 1.02v.3l.41-.445c.66-.718 1.56-1.075 2.14-.85.15.058.142.12-.053.508-.673 1.334-1.62 2.55-2.457 3.148-.394.283-.444.25-.798-.53l-.223-.49.127 1.686-.527.177c-.62.21-1.052.123-1.634-.326-.208-.16-.402-.266-.432-.236-.104.105.5 1.16.8 1.402.277.223.388.24 1.288.187l.984-.058.243.45c.134.247.225.466.204.488-.115.117-1.88.37-3.258.47-2.454.176-3.53.62-4.236 1.747-.53.845-.642 1.442-.877 4.655-.406 5.555-.165 12.258.778 21.614.277 2.748.495 4.1 1.36 8.436.808 4.055.998 5.536 1.15 8.987.192 4.364.418 5.43 1.345 6.34.3.305.942.746 1.41.986.64.327.832.476.782.606-.037.095 3.192 1.78 2.714 3.48-2.162 7.672-3.175 10.813-3.9 12.1-.297.523-1.197 1.937-2 3.142-1.766 2.65-2.432 3.827-3.62 6.406-1.773 3.85-5.297 12.266-5.765 13.77-.546 1.757-.745 3.134-.784 5.45-.04 2.248-.12 3.193-.506 5.845-.286 1.966-.305 3.466-.055 4.32.217.744.743 1.475 1.272 1.768.548.304 1.698.225 2.564-.176.99-.458 1.317-.76 1.54-1.418.21-.616.222-1.102.145-5.488-.026-1.465.015-2.413.144-3.363.1-.728.21-1.77.25-2.316.067-.96.058-1.013-.27-1.638-.186-.355-.338-.704-.338-.775s.347-.476.772-.9c1.22-1.214 6.715-7.935 7.83-9.574.507-.745 1.16-2.193 1.532-3.4l.6-1.955c.534-1.745 1.083-2.69 2.33-4.015 1.342-1.427 1.924-2.312 3.342-5.093 2.582-5.06 3.907-7.36 6.198-10.752 2.307-3.418 3.065-10.053 3.224-10.225.15-.162.345.54 2.7 9.73l2.492 9.263 1.147 3.86c.274.927.3 1.194.383 4.025.106 3.61.17 4.048 1.305 9.043l1.032 4.778c.434 2.544.5 6.814.106 8.124-.098.334-.343.907-.545 1.274-.324.587-.406.92-.694 2.78-.198 1.28-.57 3.033-.94 4.448-.705 2.673-.736 3.225-.245 4.304.34.748.998 1.5 1.476 1.713.575.243 1.437.187 2.076-.135zm-26.136-67.483c-.72-1.05-1.474-2.602-1.74-3.568-.29-1.06-.425-2.41-.556-5.582-.13-3.137-.146-9.54-.024-9.54.047 0 .14.136.206.303a355.11 355.11 0 0 0 1.181 2.781c.583 1.363 1.247 3.05 1.477 3.75.713 2.173 1.295 6.548 1.163 8.746-.09 1.517-.303 4.067-.364 4.368l-.053.264-.38-.372c-.21-.204-.62-.722-.912-1.15zm18.42-19.8c-1.457-1.488-2.41-3.163-2.488-4.376-.058-.884.263-1.587 1.177-2.578.64-.696.648-.7.654-.372.01.53.39 2.208.825 3.64.22.728.594 2.068.83 2.977l.49 1.864c.057.188.026.182-.303-.055-.202-.145-.735-.64-1.185-1.1zM124.802 19.16c-.768-.848-.752-.775-.26-1.174l.44-.357.413.33c.227.182.54.4.698.462.184.085.262.19.222.296-.057.15-.966.8-1.12.8-.036 0-.212-.16-.39-.358zm1.152-1.695c-.24-.097-.434-.214-.434-.262s.347-.373.772-.725c.615-.51.792-.607.87-.48.147.235.125.34-.13.615l-.233.25.26.106c.143.058.353.136.467.173.196.063.193.082-.055.35-.22.238-.326.272-.672.216a4.77 4.77 0 0 1-.845-.242z" fill="red"/></svg>