<?xml version="1.0" encoding="UTF-8"?>
<svg width="800" height="316.93" version="1.1" xmlns="http://www.w3.org/2000/svg">
	<path d="m791.27 135.96c-4.7128-6.3622-19.794-25.213-54.668-64.801-21.679-24.506-41.237-46.185-55.375-61.266l-0.47127-0.70692c-5.891-6.1266-13.196-9.1899-21.679-9.1899-8.7186 0-16.023 3.0633-21.679 9.1899-6.5979 6.8335-24.506 26.392-56.082 61.973-8.2474 9.4255-15.316 17.437-21.443 24.742h-537.02c-12.724 0-22.857 9.8968-22.857 21.914v84.359c0 12.018 10.368 21.914 22.857 21.914h539.38c5.6553 6.3622 11.782 13.667 18.851 21.679 32.518 36.995 51.134 56.553 55.846 61.737 5.891 6.3622 13.196 9.4255 21.914 9.4255s16.023-3.0633 21.679-9.1899l0.47128-0.47128c8.2473-8.7186 26.156-28.041 55.375-61.502 34.874-39.587 49.955-58.438 54.668-64.801 3.2989-4.4771 8.9543-11.782 8.9543-22.386 0.23564-10.839-5.184-18.144-8.7186-22.621z" fill="#fff"/>
	<path d="m8.2473 117.58v84.359c0 7.5404 6.5979 13.667 14.61 13.667h117.82v-111.69h-117.82c-8.0117 0-14.61 6.1266-14.61 13.667z" fill="#023b7e"/>
	<path d="m100.38 159.76c8.7186-3.0633 14.845-9.8968 14.845-20.265 0-2.592-1.4138-8.9543-6.1266-12.96-3.0633-2.592-7.7761-5.891-22.386-6.1266-3.0633 0-12.253 0.23564-12.253 0.23564v0.47128c2.592 1.8851 5.4197 5.184 6.8335 8.9543 1.4138 0 3.5346-0.23564 5.6553 0 5.891 0.23564 8.483 1.4138 11.075 3.5346 2.592 2.1207 4.0059 5.6553 4.0059 8.9543 0 4.4771-2.1207 8.9543-8.483 11.546-5.184 2.1208-11.546 2.592-11.546 2.592v1.6495s3.7702 1.8851 7.5404 6.8335c3.2989 4.2415 21.914 31.811 21.914 31.811h15.552c0.23564 0-24.742-34.874-26.627-37.231zm-34.168-4.0058c5.891-3.5346 9.8968-8.7186 9.8968-16.495 0-8.2474-4.9484-19.087-25.449-19.087-9.8968 0-20.972 0.47128-20.972 0.47128v76.347h17.437c22.386 0 34.168-8.2473 34.168-23.799 0-9.1899-5.891-15.316-15.081-17.437zm-15.552 30.633h-8.7186v-56.318h6.3622c9.6612 0 15.081 4.9484 15.316 11.782 0 4.2415-1.1782 8.2474-5.4197 11.075-3.5346 2.3564-8.2473 3.0633-8.2473 3.0633v1.8851s6.8335 0.94255 10.132 2.592c6.3622 3.0633 8.2473 7.5404 8.2473 13.431 0 9.6612-9.1899 12.489-17.673 12.489z" fill="#fff"/>
	<path d="m148.69 215.61h406.48c-16.966-19.794-25.449-30.633-28.748-34.874-3.2989-4.4771-8.9543-11.782-8.9543-22.386s5.6553-17.909 8.9543-22.386c3.0633-4.2415 10.839-13.903 26.156-32.047h-403.88z" fill="#023b7e"/>
	<path d="m205.48 185.92c-3.7702 0-10.132 0-17.437-0.23563v-53.726c5.184 0 12.724-0.23564 19.794-0.23564 13.903 0 19.558 5.184 19.558 13.196 0 5.4197-3.2989 9.8968-8.7186 12.018 6.5979 1.6495 9.6612 6.3622 9.6612 12.018-0.23564 7.7761-4.9484 16.966-22.857 16.966zm0.23563-46.185h-6.3622v14.61h4.2415c7.3048 0 12.018-2.592 12.018-8.0117-0.23564-3.7702-2.3564-6.5979-9.8968-6.5979zm-1.6495 21.914h-4.7128v15.788c1.6495 0.23564 3.7702 0.47128 6.3622 0.47128 7.5404 0 10.839-3.5346 10.839-8.483-0.23564-5.6553-5.184-7.7761-12.489-7.7761zm69.749 24.271-3.7702-10.368h-22.386l-4.0058 10.368h-11.075l20.265-53.726h13.196l20.265 53.726zm-12.253-33.696c-0.94255-2.8277-2.1208-5.891-2.8277-8.483-0.70692 2.592-1.6495 5.6553-2.592 8.483l-5.891 15.081h16.966zm50.427 15.552v17.909h-11.311v-17.909l-18.851-35.817h12.253l8.0117 15.316c1.6495 3.0633 3.0633 6.3622 4.2415 9.8968 1.4138-3.7702 3.2989-7.3048 4.9484-10.368l7.7761-14.845h11.546zm25.92 18.144v-53.961h31.576v8.7186h-20.501v13.196h19.558v8.483h-19.558v14.374h20.501v8.9543h-31.576zm72.105 0-15.316-22.15h-0.47128v22.15h-11.075v-53.961c4.0059-0.23564 11.075-0.23564 17.673-0.23564 12.724 0 20.265 4.9484 20.265 14.845 0 8.7186-6.1266 14.138-14.61 15.316 1.1782 1.4138 2.592 3.5346 4.2415 5.891l13.431 17.909zm-11.075-45.478c-1.8851 0-3.2989 0-4.7128 0.23564v15.552c1.6495 0 3.5346 0.23564 5.184 0.23564 5.891 0 9.6612-3.2989 9.6612-8.483 0-4.9484-3.7702-7.5404-10.132-7.5404zm69.278 45.478-18.615-29.219c-2.1208-3.2989-4.0058-7.0692-5.4197-10.132 0.23564 3.0633 0.23564 6.3622 0.23564 11.311v28.041h-10.839v-53.961h14.845l18.144 28.748c2.1207 3.2989 4.2415 6.8335 5.891 10.604-0.23564-3.2989-0.23564-8.483-0.23564-15.552v-23.564h10.839v53.726z" fill="#fff"/>
	<path d="m784.91 175.79c3.0633-4.0058 7.3048-9.6612 7.3048-17.437s-4.2415-13.431-7.3048-17.437c-4.7128-6.1266-19.558-24.978-54.432-64.329-21.443-24.506-41.237-46.185-55.139-61.03 0 0-0.47127-0.70692-0.47127-0.47128-1.6495-1.6495-6.3622-6.5979-15.788-6.5979s-14.138 4.9484-16.023 6.8335c-6.3622 6.5979-24.271 25.92-55.611 61.502-35.11 39.823-49.72 58.438-54.432 64.329-3.0633 4.0058-7.3048 9.6612-7.3048 17.437s4.2415 13.431 7.3048 17.437c4.7128 6.1266 19.322 24.742 54.432 64.329 32.518 36.995 50.898 56.553 55.846 61.737 1.6495 1.6495 6.3622 6.5979 15.788 6.5979s14.138-4.9484 15.788-6.5979l0.47127-0.47127c8.0117-8.7186 26.156-28.041 55.375-61.266 34.403-39.587 49.248-58.203 54.197-64.565z" fill="#00a0d5"/>
	<path d="m676.75 83.887c-2.1207 0-7.5404 0.94255-12.489 1.6495-9.4255 1.6495-38.645 6.8335-38.645 6.8335l1.1782 26.627 22.621-0.47128-14.61 120.18 37.702 0.47128 16.73-138.32s2.1208-16.966-12.489-16.966z" fill="#fff"/>
</svg>
