<?xml version="1.0" encoding="UTF-8" standalone="no"?>
<!-- Created with Inkscape (http://www.inkscape.org/) -->
<svg xmlns:svg="http://www.w3.org/2000/svg" xmlns="http://www.w3.org/2000/svg" version="1.0" width="602.36218" height="149.77559" id="svg12241">
  <defs id="defs12243"/>
  <g id="layer1">
    <g transform="translate(-146.058, -147.413)" id="g12457">
      <path d="M 268.4896,223.60952 C 281.39822,219.14496 290.64236,208.85448 290.64236,193.60763 C 290.64484,189.7511 288.70204,180.48429 281.64413,174.47484 C 277.02295,170.53114 270.30945,165.84759 248.65275,165.32673 C 244.18393,165.23283 230.60031,165.69771 230.60031,165.69771 C 230.60031,165.69559 230.56878,166.46236 230.62476,166.49354 C 234.4813,169.51421 238.54334,174.28492 240.54638,179.89397 C 242.61212,179.82913 245.75114,179.64807 248.83417,179.82913 C 257.52838,180.26283 261.31122,181.89736 265.22338,184.98003 C 269.16921,188.08752 271.29555,193.3883 271.26401,198.1994 C 271.23283,204.79244 268.11862,211.59771 258.63071,215.44751 C 250.93323,218.59291 241.65756,219.26366 241.65756,219.26366 L 241.65756,221.66921 C 241.65756,221.66921 247.20212,224.32066 252.74634,231.68684 C 257.55744,237.99606 285.34193,278.94393 285.34193,278.94393 L 308.32629,278.94393 C 308.32629,278.94393 271.20165,227.21342 268.4896,223.60952 z M 195.01559,263.13795 L 182.16756,263.13795 L 182.16756,179.74196 C 182.34862,179.74196 187.92437,179.64807 191.41169,179.64807 C 205.76669,179.64807 213.74586,187.07059 213.96023,197.26716 C 214.11685,203.46653 212.2637,209.38208 205.95449,213.75062 C 200.80358,217.32299 193.62732,218.37393 193.62732,218.37393 L 193.62945,221.08562 C 193.62945,221.08562 203.67437,222.37999 208.62827,224.90425 C 217.93547,229.71287 220.89094,236.1181 220.89094,244.96007 C 220.89307,258.36688 207.52417,263.13795 195.01559,263.13795 M 217.99783,217.85307 C 226.8398,212.6483 232.50945,204.9735 232.50945,193.54492 C 232.51157,181.31165 225.23681,165.13681 194.82567,165.13681 C 180.13299,165.13681 163.77496,165.69771 163.77496,165.69771 L 163.77709,278.94393 L 189.71516,278.94393 C 222.71504,278.94393 240.15094,266.77515 240.15094,243.76173 C 240.15307,230.05267 231.55488,220.99173 217.99783,217.85307 z " style="fill: rgb(0, 61, 127); fill-rule: evenodd;" id="_92567304"/>
      <path d="M 339.40818,192.43374 C 338.70625,192.43374 336.42614,192.43374 335.44003,192.49645 L 335.44003,205.65098 C 336.54448,205.80051 338.30161,205.92807 340.39216,205.92807 C 346.30984,205.92807 349.29649,203.16039 349.29649,198.90133 C 349.29649,194.30956 345.32161,192.43374 339.40606,192.43374 M 340.73409,173.21165 C 338.85614,173.21165 337.0409,173.26763 335.44003,173.33248 L 335.44003,185.5948 C 336.54448,185.65752 337.65566,185.65752 339.1311,185.65752 C 345.32161,185.65752 348.53185,183.15807 348.53185,178.97094 C 348.53185,175.49212 346.43492,173.21413 340.73196,173.21413 M 340.11933,213.32578 C 337.25527,213.32578 332.29216,213.16704 326.37696,213.16704 L 326.37909,166.21645 C 330.35397,166.02866 336.48177,165.87878 342.27649,165.87878 C 352.44436,165.87878 358.08247,169.97236 358.08247,177.52669 C 358.08247,182.17232 355.0937,186.30594 350.6224,188.03189 L 350.62452,188.18141 C 356.19779,189.35744 358.97468,193.94744 358.97468,198.68696 C 358.97468,205.52555 354.31984,213.32578 340.11933,213.32578 z M 384.70228,184.057 C 383.77216,181.49484 383.09929,179.18318 382.54051,176.54059 L 382.44661,176.54059 C 381.89421,178.97094 381.12743,181.68263 380.22885,184.42799 L 375.97866,196.37531 L 389.07082,196.37531 L 384.70228,184.057 z M 394.70893,213.16704 L 391.44484,203.5537 L 373.66948,203.5537 L 370.40326,213.16704 L 361.28633,213.16704 L 377.73826,166.15374 L 387.96637,166.15374 L 404.7581,213.16704 L 394.70893,213.16704 z M 424.25267,196.53405 L 424.25267,213.16704 L 415.19846,213.16704 L 415.19846,196.58968 L 400.50578,166.15374 L 410.38948,166.15374 L 416.58673,179.6796 C 417.84991,182.45614 418.89838,185.04275 419.7881,187.47275 L 419.94011,187.47275 C 420.92621,184.75893 422.31236,181.77866 423.70062,178.75834 L 429.61617,166.15374 L 439.23165,166.15374 L 424.25267,196.53405 z M 444.58806,213.16704 L 444.58806,166.15374 L 470.16365,166.15374 L 470.16365,173.73252 L 453.64901,173.73252 L 453.64901,185.31771 L 469.32743,185.31771 L 469.32743,192.7087 L 453.64901,192.7087 L 453.64901,205.43838 L 470.16365,205.43838 L 470.16365,213.16704 L 444.58806,213.16704 z M 493.97326,173.26763 C 492.67889,173.26763 491.35511,173.33248 490.43208,173.48909 L 490.43208,187.07059 C 491.07802,187.13295 492.30755,187.19566 493.72735,187.19566 C 499.14861,187.19566 502.47542,184.42799 502.47542,180.01941 C 502.47542,175.49212 499.70527,173.26763 493.97326,173.26763 M 503.89487,213.16704 L 490.80306,193.72598 L 490.43208,193.72598 L 490.43208,213.16704 L 481.37078,213.16704 L 481.37078,166.15374 C 485.06857,165.94149 489.47716,165.87878 494.89629,165.87878 C 505.28314,165.87878 511.96334,169.51421 511.96334,179.1272 C 511.96334,186.08448 507.09625,191.10818 499.98235,192.22149 C 501.30826,193.94744 502.63168,195.76267 503.79885,197.36318 L 515.10873,213.16704 L 503.89487,213.16704 z M 522.62692,166.15374 L 531.68007,166.15374 L 531.68007,213.16704 L 522.62692,213.16704 L 522.62692,166.15374 z M 551.95841,213.94055 C 548.59582,213.94055 545.26723,213.60074 542.34294,212.82936 L 542.89499,204.4211 C 545.54432,205.31082 549.30696,206.08468 552.72058,206.08468 C 557.31271,206.08468 560.86062,204.19999 560.86062,199.88744 C 560.86062,190.89559 541.14247,194.98917 541.14247,179.52299 C 541.1446,171.17744 547.75995,165.38023 559.03865,165.38023 C 561.72129,165.38023 564.77314,165.75157 567.54082,166.21645 L 567.08231,174.16657 C 564.43546,173.39519 561.50656,172.90551 558.63613,172.90551 C 553.40019,172.90551 550.74873,175.27066 550.74873,178.63114 C 550.75121,187.07059 570.56113,183.93157 570.56113,198.62425 C 570.56113,207.46374 563.50995,213.94055 551.95841,213.94055 z M 597.42613,213.81299 C 581.00538,213.81299 575.7046,202.87622 575.7046,191.17055 C 575.70708,176.25677 583.50483,165.81641 599.2481,165.81641 C 602.60822,165.81393 606.14727,166.21645 609.22357,167.04594 L 608.23782,175.27066 C 605.19483,174.37881 601.96015,173.89126 598.74956,173.89126 C 590.00609,173.89126 585.65774,180.50874 585.65774,189.6324 C 585.65987,199.88496 589.91007,205.58826 599.39798,205.58826 C 602.26841,205.58826 606.08491,204.7609 608.52164,203.64759 L 609.5655,211.71606 C 606.08704,212.98598 601.83471,213.81547 597.42613,213.81299 z M 647.02534,213.16704 L 647.02534,192.77354 L 627.12613,192.77354 L 627.12613,213.16704 L 618.06589,213.16704 L 618.06589,166.15374 L 627.12613,166.15374 L 627.12613,184.98003 L 647.02534,184.98003 L 647.02534,166.15374 L 656.11747,166.15374 L 656.11747,213.16704 L 647.02534,213.16704 z M 668.34188,213.16704 L 668.34188,166.15374 L 693.92101,166.15374 L 693.92101,173.73252 L 677.40566,173.73252 L 677.40566,185.31771 L 693.08479,185.31771 L 693.08479,192.7087 L 677.40566,192.7087 L 677.40566,205.43838 L 693.92101,205.43838 L 693.92101,213.16704 L 668.34188,213.16704 z M 712.09109,213.94055 C 708.76003,213.94055 705.40877,213.60074 702.48235,212.82936 L 703.06593,204.4211 C 705.71739,205.31082 709.47081,206.08468 712.86247,206.08468 C 717.48577,206.08468 721.02447,204.19999 721.02447,199.88744 C 721.02447,190.89559 701.30845,194.98917 701.30845,179.52299 C 701.30845,171.17744 707.93266,165.38023 719.21136,165.38023 C 721.86069,165.38023 724.93699,165.75157 727.7114,166.21645 L 727.21499,174.16657 C 724.56814,173.39519 721.63959,172.90551 718.8092,172.90551 C 713.57113,172.90551 710.9218,175.27066 710.9218,178.63114 C 710.92392,187.07059 730.70266,183.93157 730.70266,198.62425 C 730.70266,207.46374 723.6738,213.94055 712.09109,213.94055 z M 335.44003,239.35066 L 335.44003,251.46558 L 350.62452,251.46558 L 350.62452,258.91928 L 335.44003,258.91928 L 335.44003,278.69802 L 326.37909,278.69802 L 326.37909,231.68472 L 351.5231,231.68472 L 351.5231,239.35066 L 335.44003,239.35066 z M 360.17303,278.69802 L 360.17303,231.68472 L 385.74401,231.68472 L 385.74401,239.29716 L 369.2361,239.29716 L 369.2361,250.84196 L 384.88334,250.84196 L 384.88334,258.23968 L 369.2361,258.23968 L 369.2361,270.96263 L 385.74401,270.96263 L 385.74401,278.69802 L 360.17303,278.69802 z M 409.56035,238.79862 C 408.23657,238.79862 406.91102,238.86346 406.01881,238.98181 L 406.02129,252.57003 C 406.63393,252.66393 407.89676,252.72877 409.28291,252.72877 C 414.70452,252.72665 418.06216,249.9207 418.06216,245.55003 C 418.06216,241.01637 415.2633,238.80074 409.56035,238.80074 M 419.45078,278.69802 L 406.35862,259.29027 L 406.02129,259.29027 L 406.02129,278.69802 L 396.95787,278.69802 L 396.95787,231.68472 C 400.62661,231.46574 405.03306,231.40976 410.4522,231.40976 C 420.83905,231.40976 427.51889,235.0381 427.51889,244.65145 C 427.51889,251.61547 422.65216,256.63881 415.56944,257.74326 C 416.86417,259.47133 418.18759,261.2933 419.38594,262.89417 L 430.66676,278.69802 L 419.45078,278.69802 z M 465.07759,278.69802 L 451.30617,254.9444 C 449.20676,251.40287 447.60625,247.91767 446.19318,244.84137 C 446.47062,248.90129 446.62015,256.26995 446.62015,261.90842 L 446.62263,278.69802 L 437.8409,278.69802 L 437.8409,231.68472 L 449.60928,231.68472 L 462.70322,254.10818 C 464.86287,257.74326 466.76987,261.6331 468.4983,265.20582 C 468.16062,260.45743 468.00188,252.11401 468.00188,246.3168 L 468.00188,231.68472 L 476.77901,231.68472 L 476.77901,278.69802 L 465.07759,278.69802 z M 495.23397,279.4648 C 491.90751,279.4648 488.55413,279.12499 485.62771,278.36035 L 486.17976,269.91169 C 488.83121,270.84393 492.58499,271.60858 496.00747,271.60858 C 500.62865,271.60858 504.16983,269.7331 504.16983,265.38688 C 504.17196,256.41771 484.45381,260.5198 484.45381,245.05397 C 484.45381,236.70133 491.07802,230.91334 502.35672,230.91334 C 505.00818,230.91334 508.05082,231.28468 510.85889,231.74956 L 510.36247,239.69047 C 507.71101,238.92582 504.7846,238.42976 501.9542,238.42976 C 496.71861,238.42976 494.06716,240.80377 494.06716,244.16177 C 494.06716,252.57003 513.84802,249.46255 513.84802,264.15523 C 513.84802,272.99684 506.81916,279.4648 495.23397,279.4648 z M 522.28676,278.69802 L 522.28676,231.68472 L 547.82692,231.68472 L 547.82692,239.29716 L 531.34345,239.29716 L 531.34345,250.84196 L 546.99424,250.84196 L 546.99424,258.23968 L 531.34345,258.23968 L 531.34345,270.96263 L 547.82692,270.96263 L 547.82692,278.69802 L 522.28676,278.69802 z M 587.69267,278.69802 L 587.69267,258.30452 L 567.76156,258.30452 L 567.76156,278.69802 L 558.70133,278.69802 L 558.70133,231.68472 L 567.76156,231.68472 L 567.76156,250.50429 L 587.69267,250.50429 L 587.69267,231.68472 L 596.74582,231.68472 L 596.74582,278.69802 L 587.69267,278.69802 z M 609.34936,278.69802 L 609.34936,231.68472 L 634.91786,231.68472 L 634.91786,239.29716 L 618.40251,239.29716 L 618.40251,250.84196 L 634.08873,250.84196 L 634.08873,258.23968 L 618.40251,258.23968 L 618.40251,270.96263 L 634.91786,270.96263 L 634.91786,278.69802 L 609.34936,278.69802 z M 673.36629,278.69802 L 659.56546,254.9444 C 657.49759,251.40287 655.89707,247.91767 654.51518,244.84137 C 654.79262,248.90129 654.91097,256.26995 654.91097,261.90842 L 654.91097,278.69802 L 646.13385,278.69802 L 646.13385,231.68472 L 657.90011,231.68472 L 670.99192,254.10818 C 673.18522,257.74326 675.0607,261.6331 676.78877,265.20582 C 676.44896,260.45743 676.29022,252.11401 676.29022,246.3168 L 676.2927,231.68472 L 685.07869,231.68472 L 685.07869,278.69802 L 673.36629,278.69802 z " style="fill: rgb(0, 171, 217); fill-rule: evenodd;" id="_47048544"/>
    </g>
  </g>
</svg>