<?xml version="1.0" encoding="UTF-8"?>
<svg width="800" height="385.01" version="1.1" xmlns="http://www.w3.org/2000/svg">
	<path d="m798.48 14.832c-4.5014-11.329-19.268-17.855-30.368-13.441-1.9644 0.79498-3.4172 1.7086-5.1328 2.9126-20.687 14.41-67.423 48-142.9 102.65a3245.6 3245.6 0 0 1-29.016 20.788h-569.63c-11.821 0-21.428 9.1641-21.428 20.439v79.114c0 11.282 9.6065 20.457 21.428 20.457h460.69c7.164 5.4565 18.884 13.227 33.435 22.867 17.322 11.478 38.864 25.753 61.61 41.979-7e-3 0 63.036 45.525 63.036 45.525 15.547 11.308 26.795 19.483 32.265 23.236 5.8932 4.0498 15.352 4.7964 23.538 1.878 7.7908-2.7859 13.247-8.33 15.353-15.602 4.3666-15.029 24.239-90.995 41.992-159.6l12.016-46.351c15.992-61.665 31.108-119.92 34.068-133.53 1.0024-4.5959 0.66594-9.1975-0.95628-13.321" fill="#fff"/>
	<path d="m7.6848 148.19v79.113c0 7.0442 6.1686 12.762 13.744 12.762h110.28v-104.63h-110.28c-7.5753 0-13.745 5.7261-13.745 12.754m472.81 55.727 12.479-8.4682c21.05-14.284 52.453-35.576 87.187-60.01h-440.98v104.63h335.34c-2.9068-4.4404-4.3804-9.701-4.1592-15.426 0.31684-8.4832 4.4012-16.812 10.133-20.727" fill="#1a3d82"/>
	<path d="m771 8.5261c-1.2858 0.51846-2.2605 1.1291-3.5993 2.0854-20.653 14.39-67.362 47.945-142.81 102.58-49.891 36.126-98.342 68.983-127.3 88.608l-12.459 8.4694c-3.1753 2.166-6.5326 7.8922-6.7942 14.678-0.14863 4.3263 0.89406 10.475 6.8276 15.22 6.5787 5.2664 19.099 13.549 34.942 24.05 17.364 11.503 38.972 25.819 61.819 42.134l63.089 45.558c15.514 11.275 26.715 19.422 32.097 23.123 3.9012 2.6695 10.73 3.0797 16.602 0.9678 3.1292-1.1176 8.6652-3.9749 10.556-10.502 4.339-14.942 24.191-90.828 41.938-159.39l12.017-46.353c15.977-61.588 31.065-119.76 33.985-133.23 0.69359-3.1488 0.49772-6.1294-0.5922-8.86-2.9725-7.5004-13.071-12.023-20.324-9.1365" fill="#80cc28"/>
	<path d="m93.925 187.66c8.1537-2.8262 13.987-9.3381 13.987-18.999 0-2.4287-1.2178-8.2954-5.6651-12.095-2.9322-2.4886-7.1709-5.4427-20.868-5.7665-2.8331-0.0807-11.423 0.22237-11.423 0.22237v0.4839c2.4149 1.8711 5.0464 4.945 6.2838 8.4913 1.3111-0.0346 3.2951-0.14863 5.2399-0.0346 5.5164 0.28343 7.8979 1.3054 10.381 3.256 2.4886 1.9586 3.8274 5.3229 3.8136 8.3622-0.0265 4.165-1.9909 8.4636-7.9982 10.905-4.8505 1.9782-10.73 2.423-10.73 2.423v1.507s3.5117 1.6821 7.0304 6.3437c3.0267 4.0025 20.606 29.876 20.606 29.876h14.524s-23.466-32.702-25.181-34.974m-31.935-3.6546c5.5833-3.2951 9.163-8.1456 9.163-15.379 0-7.7424-4.5821-17.949-23.809-17.949-9.3174 0-19.651 0.34334-19.651 0.34334v71.614h16.402c20.869 0 31.895-7.6825 31.895-22.227 0-8.6791-5.4358-14.404-14-16.402m-14.533 28.654h-8.1191v-52.771c0.09332 0 3.6396-0.0461 5.846-0.0461 9.0754 0 14.114 4.7007 14.249 11.147 0.08756 3.9081-1.0692 7.6617-5.059 10.427-3.2559 2.2536-7.8034 2.9333-7.8034 2.9333v1.6948s6.3022 0.93554 9.4925 2.4356c5.9462 2.7651 7.7159 7.0903 7.7631 12.674 0.05991 8.8139-8.4498 11.505-16.368 11.505m145.05-0.34334c-3.491 0-9.4925-0.0876-16.374-0.18204v-50.375c4.7491 0 11.821-0.19471 18.493-0.19471 12.985 0 18.205 4.756 18.205 12.305 0 5.1385-2.9933 9.3035-8.2148 11.335v0.10139c6.0948 1.4459 9.1019 5.8932 9.1019 11.329 0 6.9704-4.5532 15.682-21.211 15.682m0.10139-43.372c-1.931 0-4.1708 0.0807-6.0142 0.0807v13.752a66.686 66.686 0 0 0 3.9749 0.10024c6.876 0 11.236-2.4149 11.236-7.4544 0-3.779-2.1257-6.4785-9.1964-6.4785m-1.5612 20.613c-1.0692 0-3.1891 0-4.453 0.1083v14.699c1.4598 0.31108 3.491 0.39173 5.9128 0.39173 6.9831 0 10.165-3.2836 10.165-7.9382 0-5.3229-4.6546-7.2585-11.625-7.2585m65.462 22.574-3.5855-9.7955h-21.016l-3.673 9.7955h-10.468l19.079-50.369h12.305l18.984 50.369zm-11.429-31.485a127.76 127.76 0 0 1-2.6108-7.9452h-0.10715c-0.57261 2.4218-1.5404 5.2399-2.5094 7.8507l-5.4231 14.235h15.876zm47.071 14.621v16.864h-10.468v-16.764l-17.62-33.604h11.518l7.467 14.431a97.743 97.743 0 0 1 4.0705 9.3035h0.10023c1.3457-3.4841 2.9944-6.7861 4.5486-9.7748l7.3599-13.959h10.844zm24.414 16.864v-50.369h29.627v8.2286h-19.167v12.305h18.299v7.9382h-18.299v13.561h19.167v8.3369zm67.497 0-14.431-20.734h-0.49081v20.734h-10.448v-50.369c3.6661-0.20163 10.26-0.28804 16.455-0.28804 12.016 0 18.985 4.6546 18.985 13.946 0 8.2343-5.7181 13.157-13.765 14.431 1.1706 1.3595 2.5301 3.2951 4.0774 5.4151l12.493 16.867zm-10.461-42.612c-1.749 0-3.1073 0-4.4599 0.1878v14.518c1.4528 0.0945 3.2087 0.19586 4.8505 0.19586 5.5164 0 9.095-3.1891 9.095-7.9325 0-4.5613-3.5786-6.9704-9.4856-6.9704m64.977 42.613-17.343-27.321c-1.9241-3.0002-3.7606-6.5787-5.1201-9.5927h-0.0933c0.1878 2.825 0.28227 5.9197 0.28227 10.562l0.10715 26.352h-10.185v-50.369h13.952l16.947 26.816c1.9368 3.1142 3.8746 6.3978 5.5303 9.8888h0.0864c-0.19471-3.2018-0.28227-8.0385-0.28227-14.517l-0.10024-22.188h10.164v50.369zm243.59-43.558c1.7893-0.0138 5.4427 0.0876 7.5143 2.8458 1.2443 1.749 1.9241 3.6189 1.1107 6.2769l-1.5946 5.1662c-1.0024 3.2767-1.9782 5.5499-4.9312 7.7101-2.59 1.7754-4.8643 2.166-7.6767 2.1856l-34.672 0.30301-8.0396 25.947 35.319-0.2961c3.9426-0.0196 7.5488-0.18089 9.2102 2.6983 1.1637 2.0116 1.3388 3.9023 0.52422 6.5384l-1.6476 5.2952c-0.85489 2.7651-1.8976 4.9173-4.218 7.0707-3.976 3.8021-8.2078 3.0739-12.91 3.1016l-47.429 0.39633c-2.6845 0.0265-4.3194-0.85489-5.3955-2.7306-1.2846-2.0047-1.0968-4.2595-0.19586-7.1582l2.658-8.5915-38.77 0.27652-1.7697 5.6777c-2.7444 8.8196-5.8725 22.301 1.3054 31.928 6.1017 8.2678 19.113 9.1561 27.018 9.095l62.121-0.14748c2.6707-0.0346 21.898 1.0369 36.374-10.388 11.115-8.7448 14.376-15.183 17.686-25.893l1.6821-5.4151c1.878-6.0556 3.559-14.364-2.4955-19.477-3.7479-3.1223-14.296-6.0741-16.368-5.9128 1.8238-0.1613 12.452-3.2364 19.261-7.9382 7.7493-5.3425 10.118-12.157 12.486-20.209l1.2098-3.9104c4.1926-12.72 2.2213-23.647-8.0108-28.362-7.6364-3.7134-14.013-3.6799-23.965-3.6062l-56.469-7e-3c-11.625 0.0876-29.083 2.6776-41.489 15.212-7.4543 7.6087-10.152 13.906-12.964 22.981l-1.7559 5.5764 38.401-0.25578 1.0899-3.4645c1.0081-3.2629 1.6614-5.7838 4.2306-8.315 3.6062-3.4242 7.5557-3.8136 11.746-3.8482l41.818-0.35716z" fill="#fff"/>
</svg>
