<?xml version="1.0" encoding="UTF-8" standalone="no"?>
<!-- Created with Inkscape (http://www.inkscape.org/) -->

<svg
   xmlns:svg="http://www.w3.org/2000/svg"
   xmlns="http://www.w3.org/2000/svg"
   version="1.1"
   width="602.36218"
   height="204.12991"
   id="svg3317">
  <defs
     id="defs3319" />
  <g
     transform="translate(-479.39259,-46.874312)"
     id="layer1">
    <g
       transform="translate(17.716536,-17.70863)"
       id="g3384">
      <path
         d="m 877.61607,216.51249 -380.76755,0 c -9.62772,0 -17.45593,-7.47812 -17.45593,-16.67171 l 0,-64.45321 c 0,-9.18659 7.82821,-16.6507 17.45593,-16.6507 l 380.99862,0 c 2.17761,-20.487793 19.51451,-36.445303 40.57646,-36.445303 l 87.0906,0 c 22.5394,0 40.8075,18.275173 40.8075,40.807533 l 0,87.0976 c 0,22.53937 -18.2681,40.80753 -40.8075,40.80753 l -127.89813,0 0,-34.49174 z"
         id="path200"
         style="fill:#ffffff;fill-opacity:1;fill-rule:nonzero;stroke:none" />
      <path
         d="m 496.7757,124.97496 c -6.16874,0 -11.20316,4.60002 -11.20316,10.32763 l 0,64.59353 c 0,5.7349 5.03442,10.32764 11.20316,10.32764 l 89.97542,0 0,-85.2488 -89.97542,0 z m 96.10215,0 0,85.2488 284.80544,0 0,-85.2488 -284.80544,0 z"
         id="path204"
         style="fill:#003c7f;fill-opacity:1;fill-rule:nonzero;stroke:none" />
      <path
         d="m 883.85764,123.10123 c 0,-19.09439 15.47437,-34.561763 34.56876,-34.561763 l 87.0906,0 c 19.0944,0 34.5618,15.467373 34.5618,34.561763 l 0,87.0906 c 0,19.09439 -15.4674,34.56876 -34.5618,34.56876 l -121.65936,0 0,-121.65936 z"
         id="path244"
         style="fill:#5088c1;fill-opacity:1;fill-rule:nonzero;stroke:none" />
      <path
         d="m 949.97869,135.30259 -10.15285,52.69017 9.10255,0 9.9778,-52.69017 -8.9275,0 z m -432.022,2.1006 c -7.59015,0 -15.9295,0.3529 -15.9295,0.3529 l 0,58.29118 13.30375,0 c 17.00081,0 26.08237,-6.17518 26.08237,-18.03037 0,-7.05743 -4.39724,-11.85407 -11.37821,-13.47853 4.55128,-2.68876 7.35207,-6.53256 7.35207,-12.42879 0,-6.30178 -3.77406,-14.70415 -19.43048,-14.70415 z m 27.83286,0.17365 c -2.30365,-0.056 -9.27762,0.17365 -9.27762,0.17365 l 0,0.34729 c 1.97455,1.51299 4.05414,4.11045 5.07643,7.00198 1.0643,-0.056 2.61174,-0.25767 4.20119,-0.17365 4.48126,0.24087 6.55385,1.21163 8.57742,2.80079 2.02357,1.59646 2.98284,4.34851 2.97584,6.82721 -0.0224,3.38896 -1.58945,6.76335 -6.47683,8.75191 -3.96312,1.6183 -8.75247,2.1006 -8.75247,2.1006 l 0,1.22562 c 0,0 2.91282,1.28893 5.77663,5.07616 2.4717,3.26292 16.80475,24.33215 16.80475,24.33215 l 11.72831,0 c 0,0 -19.08039,-26.67753 -20.48079,-28.53334 6.64488,-2.29553 11.37822,-7.54085 11.37822,-15.40435 0,-1.97344 -0.93126,-6.71462 -4.55129,-9.80277 -2.39467,-2.03673 -5.82564,-4.45326 -16.97979,-4.72605 z m -34.30969,7.35207 4.72633,0 c 7.40109,0 11.60928,3.85109 11.72831,9.10258 0.07,3.18617 -0.95227,6.14773 -4.20118,8.40237 -2.65375,1.83452 -6.30178,2.45069 -6.30178,2.45069 l 0,1.4004 c 0,0 5.10444,0.70804 7.70217,1.92526 4.85237,2.26192 6.26677,5.78419 6.30178,10.3282 0.056,7.19131 -6.86194,9.45267 -13.30376,9.45267 l -6.65187,0 0,-43.06217 z m 273.60228,1.22563 c -5.05543,0 -10.47496,0.18485 -13.47881,0.3473 l 0,40.96213 8.57742,0 0,-16.80475 0.3501,0 11.72831,16.80475 10.50297,0 -10.15287,-13.65442 c -1.26035,-1.73537 -2.38067,-3.45225 -3.32594,-4.55072 6.55385,-1.03742 11.20317,-5.02798 11.20317,-11.7286 0,-7.56941 -5.62259,-11.37793 -15.40435,-11.37793 z m -147.04154,0.17365 c -5.43353,0 -11.3572,0.17365 -15.2293,0.17365 l 0,40.96213 c 5.60158,0.0784 10.63601,0.17365 13.47881,0.17365 13.57683,0 17.15485,-7.086 17.15485,-12.77833 0,-4.41181 -2.38068,-8.09429 -7.35208,-9.2779 4.2572,-1.65247 6.65188,-5.10416 6.65188,-9.2779 0,-6.15446 -4.12417,-9.97754 -14.70416,-9.97754 z m 34.30969,0.17365 -15.5794,40.96213 8.57743,0 2.97584,-7.87751 17.15484,0 2.97584,7.87751 9.45267,0 -15.5794,-40.96213 -9.97782,0 z m 22.23128,0 14.35406,27.30771 0,13.65442 8.40237,0 0,-13.65442 14.52911,-27.30771 -8.75248,0 -5.95168,11.37849 c -1.26736,2.44341 -2.58373,5.04087 -3.67604,7.87751 l -0.17477,0 c -1.02929,-2.75878 -2.1426,-5.16074 -3.32593,-7.52741 l -6.12674,-11.72859 -9.27762,0 z m 42.71207,0 0,40.96213 24.15682,0 0,-6.82721 -15.5794,0 0,-11.0284 14.8792,0 0,-6.47654 -14.8792,0 0,-9.97754 15.5794,0 0,-6.65244 -24.15682,0 z m 72.99562,0 0,40.96213 8.40237,0 -0.17477,-21.53136 c 0,-3.78107 -0.028,-6.28778 -0.17477,-8.57715 1.10631,2.44285 2.62574,5.42626 4.20119,7.87695 l 14.179,22.23156 11.37822,0 0,-40.96213 -8.22733,0 0,18.03037 c 0,5.28677 0.006,9.29863 0.17477,11.90336 -1.33738,-2.84952 -2.96884,-5.52428 -4.55128,-8.05227 l -13.82891,-21.88146 -11.37821,0 z m 117.98332,4.72661 c -6.33679,0 -11.52525,5.0067 -15.05425,12.07813 l -0.17477,0 c 1.80651,-5.55957 2.75178,-8.39509 3.32594,-11.20316 l -8.92752,0 c -0.72121,4.53784 -1.7505,10.95165 -2.97584,17.15541 l -6.12673,30.45804 9.10257,0 2.27564,-11.37793 c 1.51243,0.21846 2.55572,0.17364 3.85109,0.17364 15.73344,0 23.10653,-12.53298 23.10653,-26.08208 0,-7.64616 -2.91283,-11.20317 -8.40238,-11.20317 z m 88.92512,0.17365 c -10.3209,0 -15.5794,4.98597 -15.5794,11.55383 0,8.42982 9.2776,9.5154 9.2776,14.35349 0,2.59801 -2.2756,4.02642 -5.9517,4.02642 -1.7925,0 -3.767,-0.47054 -5.42651,-1.0503 l -1.7505,7.87751 c 1.8065,0.28568 3.92811,0.52654 6.30181,0.52654 11.1892,0 16.4546,-6.26649 16.4546,-12.25346 0,-7.93296 -9.4526,-9.95009 -9.4526,-14.35405 0,-2.30337 1.8485,-3.85109 5.6016,-3.85109 1.5824,0 3.3119,0.20166 4.9013,0.7002 l 1.5755,-7.00198 c -1.8065,-0.3641 -3.648,-0.52655 -5.9517,-0.52655 z m -51.63961,0.7002 -4.7263,24.68225 c -1.2884,6.98798 0.7772,11.90336 7.7022,11.90336 6.8479,0 11.8123,-5.48955 15.0542,-11.90336 l 0.1748,0 c -1.9536,5.62287 -2.7868,9.03255 -3.1509,11.20317 l 8.7525,0 c 0.7212,-4.32723 2.2126,-12.25346 3.1509,-17.15485 l 3.5009,-18.73057 -8.9275,0 -1.7505,9.10257 c -1.5894,8.37493 -8.1153,19.60554 -12.9536,19.60554 -2.3107,0 -2.8848,-1.89726 -2.1006,-6.30178 l 4.3762,-22.40633 -9.1026,0 z m -334.16936,0.17365 4.90138,0 c 5.75563,0 7.52713,2.17061 7.52713,5.25148 0,4.10316 -3.50099,6.12701 -9.10258,6.12701 -0.56015,0 -1.98156,0.0784 -3.32593,0 l 0,-11.37849 z m 152.46806,0.52655 c 4.81036,0 7.70218,1.89053 7.70218,5.60158 0,3.85893 -3.03186,6.47711 -7.52713,6.47711 -1.33738,0 -2.65375,-0.10083 -3.85109,-0.17365 l 0,-11.72803 c 1.10631,-0.16245 2.24764,-0.17365 3.67604,-0.17365 z m -106.95521,2.62602 c 0.54615,1.89053 1.30937,4.34851 2.10059,6.47655 l 4.37624,11.37849 -12.95366,0 4.37624,-11.54822 c 0.79122,-2.1286 1.63146,-4.3345 2.10059,-6.30178 z m 247.69496,3.85109 c 1.72949,0 2.80079,1.3651 2.80079,4.90138 0,7.4994 -3.85809,17.15485 -12.07841,17.15485 -1.29536,0 -2.87081,-0.3305 -4.02613,-0.7002 l 0.35009,-2.27536 c 1.44241,-7.42266 7.83522,-19.08067 12.95366,-19.08067 z m -289.53178,9.80277 c 5.68561,0 9.45267,1.62446 9.45267,5.95168 0,3.78779 -2.54171,6.47655 -8.22732,6.47655 -1.97456,0 -3.71105,-0.11204 -4.90138,-0.3473 l 0,-11.90336 c 1.02929,-0.0784 2.80079,-0.17365 3.67603,-0.17365 z"
         id="path212"
         style="fill:#ffffff;fill-opacity:1;fill-rule:nonzero;stroke:none" />
    </g>
  </g>
</svg>
