<svg xmlns="http://www.w3.org/2000/svg" id="Logo" width="339.503" height="134.5"><style id="style2">.st0{fill:#fff}.st1{fill:#023b7e}</style><path class="st0" d="M335.8 57.7c-2-2.7-8.4-10.7-23.2-27.5-9.2-10.4-17.5-19.6-23.5-26l-.2-.3c-2.5-2.6-5.6-3.9-9.2-3.9-3.7 0-6.8 1.3-9.2 3.9-2.8 2.9-10.4 11.2-23.8 26.3-3.5 4-6.5 7.4-9.1 10.5H9.7C4.3 40.7 0 44.9 0 50v35.8c0 5.1 4.4 9.3 9.7 9.3h228.9c2.4 2.7 5 5.8 8 9.2 13.8 15.7 21.7 24 23.7 26.2 2.5 2.7 5.6 4 9.3 4 3.7 0 6.8-1.3 9.2-3.9l.2-.2c3.5-3.7 11.1-11.9 23.5-26.1 14.8-16.8 21.2-24.8 23.2-27.5 1.4-1.9 3.8-5 3.8-9.5.1-4.6-2.2-7.7-3.7-9.6z" id="path4" fill="#fff"/><path class="st1" d="M3.5 49.9v35.8c0 3.2 2.8 5.8 6.2 5.8h50V44.1h-50c-3.4 0-6.2 2.6-6.2 5.8z" id="path6" fill="#023b7e"/><path class="st0" d="M42.6 67.8c3.7-1.3 6.3-4.2 6.3-8.6 0-1.1-.6-3.8-2.6-5.5-1.3-1.1-3.3-2.5-9.5-2.6-1.3 0-5.2.1-5.2.1v.2c1.1.8 2.3 2.2 2.9 3.8.6 0 1.5-.1 2.4 0 2.5.1 3.6.6 4.7 1.5s1.7 2.4 1.7 3.8c0 1.9-.9 3.8-3.6 4.9-2.2.9-4.9 1.1-4.9 1.1v.7s1.6.8 3.2 2.9c1.4 1.8 9.3 13.5 9.3 13.5h6.6c.1 0-10.5-14.8-11.3-15.8zm-14.5-1.7c2.5-1.5 4.2-3.7 4.2-7 0-3.5-2.1-8.1-10.8-8.1-4.2 0-8.9.2-8.9.2v32.4H20c9.5 0 14.5-3.5 14.5-10.1 0-3.9-2.5-6.5-6.4-7.4zm-6.6 13h-3.7V55.2h2.7c4.1 0 6.4 2.1 6.5 5 0 1.8-.5 3.5-2.3 4.7-1.5 1-3.5 1.3-3.5 1.3v.8s2.9.4 4.3 1.1c2.7 1.3 3.5 3.2 3.5 5.7 0 4.1-3.9 5.3-7.5 5.3z" id="path8" fill="#fff"/><path class="st1" d="M63.1 91.5h172.5c-7.2-8.4-10.8-13-12.2-14.8-1.4-1.9-3.8-5-3.8-9.5s2.4-7.6 3.8-9.5c1.3-1.8 4.6-5.9 11.1-13.6H63.1z" id="path10" fill="#023b7e"/><path class="st0" d="M87.2 78.9c-1.6 0-4.3 0-7.4-.1V56c2.2 0 5.4-.1 8.4-.1 5.9 0 8.3 2.2 8.3 5.6 0 2.3-1.4 4.2-3.7 5.1 2.8.7 4.1 2.7 4.1 5.1-.1 3.3-2.1 7.2-9.7 7.2zm.1-19.6h-2.7v6.2h1.8c3.1 0 5.1-1.1 5.1-3.4-.1-1.6-1-2.8-4.2-2.8zm-.7 9.3h-2v6.7c.7.1 1.6.2 2.7.2 3.2 0 4.6-1.5 4.6-3.6-.1-2.4-2.2-3.3-5.3-3.3zm29.6 10.3l-1.6-4.4h-9.5l-1.7 4.4h-4.7l8.6-22.8h5.6l8.6 22.8zM111 64.6c-.4-1.2-.9-2.5-1.2-3.6-.3 1.1-.7 2.4-1.1 3.6l-2.5 6.4h7.2zm21.4 6.6v7.6h-4.8v-7.6l-8-15.2h5.2l3.4 6.5c.7 1.3 1.3 2.7 1.8 4.2.6-1.6 1.4-3.1 2.1-4.4l3.3-6.3h4.9zm11 7.7V56h13.4v3.7h-8.7v5.6h8.3v3.6h-8.3V75h8.7v3.8h-13.4zm30.6 0l-6.5-9.4h-.2v9.4h-4.7V56c1.7-.1 4.7-.1 7.5-.1 5.4 0 8.6 2.1 8.6 6.3 0 3.7-2.6 6-6.2 6.5.5.6 1.1 1.5 1.8 2.5l5.7 7.6zm-4.7-19.3c-.8 0-1.4 0-2 .1v6.6c.7 0 1.5.1 2.2.1 2.5 0 4.1-1.4 4.1-3.6 0-2.1-1.6-3.2-4.3-3.2zm29.4 19.3l-7.9-12.4c-.9-1.4-1.7-3-2.3-4.3.1 1.3.1 2.7.1 4.8v11.9H184V56h6.3l7.7 12.2c.9 1.4 1.8 2.9 2.5 4.5-.1-1.4-.1-3.6-.1-6.6v-10h4.6v22.8z" id="path12" fill="#fff"/><path d="M333.1 74.6c1.3-1.7 3.1-4.1 3.1-7.4 0-3.3-1.8-5.7-3.1-7.4-2-2.6-8.3-10.6-23.1-27.3-9.1-10.4-17.5-19.6-23.4-25.9 0 0-.2-.3-.2-.2-.7-.7-2.7-2.8-6.7-2.8s-6 2.1-6.8 2.9c-2.7 2.8-10.3 11-23.6 26.1-14.9 16.9-21.1 24.8-23.1 27.3-1.3 1.7-3.1 4.1-3.1 7.4 0 3.3 1.8 5.7 3.1 7.4 2 2.6 8.2 10.5 23.1 27.3 13.8 15.7 21.6 24 23.7 26.2.7.7 2.7 2.8 6.7 2.8s6-2.1 6.7-2.8l.2-.2c3.4-3.7 11.1-11.9 23.5-26 14.6-16.8 20.9-24.7 23-27.4z" id="path14" fill="#00a0d5"/><path class="st0" d="M287.2 35.6c-.9 0-3.2.4-5.3.7-4 .7-16.4 2.9-16.4 2.9l.5 11.3 9.6-.2-6.2 51 16 .2 7.1-58.7s.9-7.2-5.3-7.2z" id="path16" fill="#fff"/></svg>