<?xml version="1.0" encoding="UTF-8"?>
<svg width="800" height="400.6" version="1.1" xmlns="http://www.w3.org/2000/svg">
	<path d="m800 400v-60.015c-75.919 0-133.23 0.30007-168.94 2.1005v-1.8004l60.315-60.015c73.518-74.119 94.824-114.63 94.824-168.34 0-61.215-41.11-111.93-126.63-111.93-41.41 0-77.719 12.303-109.23 30.308l12.303 53.713c21.905-14.104 51.913-27.307 84.621-27.307 45.311 0 70.518 28.807 70.518 65.416 0 41.41-19.505 71.418-100.23 153.04l-71.418 75.019v50.413h253.56zm-308.18-1.5004v1.8005h-73.518l-141.64-200.75v-1.8004h40.51c49.812 0 78.92-31.208 78.92-71.118s-29.107-68.417-78.92-68.417h-35.709l-44.411-51.013v-1.8005h82.821c86.422 0 139.23 44.411 139.23 118.23 0 58.515-33.908 96.924-88.222 107.73zm-315.68-211.55c43.211-10.503 65.716-42.011 65.716-82.521 0-59.115-47.112-98.425-134.13-98.425h-107.73v394.3h118.23c94.824 0 147.34-47.712 147.34-116.43-0.30007-51.913-30.308-87.322-89.422-96.924zm-60.315 160.54h-55.214v-288.97h44.411c49.812 0 73.518 23.406 73.518 57.014 0 35.409-26.407 61.215-78.92 63.916v29.107c67.817 2.7007 102.33 23.406 102.33 69.317s-31.808 69.617-86.422 69.617z" fill="#ff6b00"/>
</svg>
