<svg xmlns="http://www.w3.org/2000/svg" width="694.36" height="334.166"><path d="M693.04 12.873c-3.907-9.833-16.724-15.497-26.358-11.666-1.705.69-2.966 1.483-4.455 2.528-17.955 12.507-58.52 41.662-124.034 89.098a2817.032 2817.032 0 0 1-25.184 18.043H18.598C8.338 110.876 0 118.83 0 128.616v68.667c0 9.792 8.338 17.756 18.598 17.756h399.86c6.218 4.736 16.39 11.48 29.02 19.847 15.035 9.962 33.732 22.352 53.474 36.436-.006 0 54.712 39.513 54.712 39.513 13.494 9.815 23.257 16.91 28.004 20.168 5.115 3.515 13.325 4.163 20.43 1.63 6.762-2.418 11.498-7.23 13.326-13.542 3.79-13.044 21.038-78.979 36.447-138.526l10.429-40.23c13.88-53.522 27-104.082 29.569-115.9.87-3.989.578-7.983-.83-11.562" fill="#fff"/><path d="M6.67 128.617v68.666c0 6.114 5.354 11.077 11.929 11.077h95.714v-90.815H18.599c-6.575 0-11.93 4.97-11.93 11.07m410.378 48.368l10.831-7.35c18.27-12.398 45.527-30.878 75.674-52.086h-382.75v90.815h291.06c-2.523-3.854-3.802-8.42-3.61-13.389.275-7.363 3.82-14.592 8.795-17.99" fill="#1a3d82"/><path d="M669.188 7.4c-1.116.45-1.962.98-3.124 1.81-17.926 12.49-58.467 41.614-123.952 89.033-43.303 31.356-85.356 59.874-110.487 76.907l-10.814 7.351c-2.756 1.88-5.67 6.85-5.897 12.74-.129 3.755.776 9.092 5.926 13.21 5.71 4.571 16.577 11.76 30.328 20.874 15.071 9.984 33.826 22.41 53.656 36.57l54.758 39.542c13.465 9.786 23.187 16.857 27.859 20.07 3.386 2.317 9.313 2.673 14.41.84 2.716-.97 7.521-3.45 9.162-9.115 3.766-12.969 20.997-78.834 36.4-138.345l10.43-40.232C671.71 85.2 684.806 34.708 687.34 23.02c.602-2.733.432-5.32-.514-7.69-2.58-6.51-11.345-10.435-17.64-7.93" fill="#80cc28"/><path d="M81.522 162.882c7.077-2.453 12.14-8.105 12.14-16.49 0-2.108-1.057-7.2-4.917-10.498-2.545-2.16-6.224-4.724-18.112-5.005-2.459-.07-9.915.193-9.915.193v.42c2.096 1.624 4.38 4.292 5.454 7.37 1.138-.03 2.86-.129 4.548-.03 4.788.246 6.855 1.133 9.01 2.826 2.16 1.7 3.322 4.62 3.31 7.258-.023 3.615-1.728 7.346-6.942 9.465-4.21 1.717-9.313 2.103-9.313 2.103v1.308s3.048 1.46 6.102 5.506c2.627 3.474 17.885 25.931 17.885 25.931h12.606s-20.367-28.384-21.856-30.356m-27.718-3.172c4.846-2.86 7.953-7.07 7.953-13.348 0-6.72-3.977-15.579-20.665-15.579-8.087 0-17.056.298-17.056.298v62.157h14.236c18.113 0 27.683-6.668 27.683-19.292 0-7.533-4.718-12.502-12.151-14.236m-12.614 24.87h-7.047v-45.803c.081 0 3.159-.04 5.074-.04 7.877 0 12.25 4.08 12.367 9.675.076 3.392-.928 6.65-4.391 9.05-2.826 1.956-6.773 2.546-6.773 2.546v1.471s5.47.812 8.239 2.114c5.161 2.4 6.697 6.154 6.738 11 .052 7.65-7.334 9.986-14.207 9.986m125.894-.298c-3.03 0-8.239-.076-14.212-.158v-43.723c4.122 0 10.26-.169 16.051-.169 11.27 0 15.801 4.128 15.801 10.68 0 4.46-2.598 8.075-7.13 9.838v.088c5.29 1.255 7.9 5.115 7.9 9.833 0 6.05-3.952 13.611-18.41 13.611m.088-37.645c-1.676 0-3.62.07-5.22.07v11.936a57.88 57.88 0 0 0 3.45.087c5.968 0 9.752-2.096 9.752-6.47 0-3.28-1.845-5.623-7.982-5.623m-1.355 17.891c-.928 0-2.768 0-3.865.094v12.758c1.267.27 3.03.34 5.132.34 6.061 0 8.823-2.85 8.823-6.89 0-4.62-4.04-6.3-10.09-6.3m56.818 19.593l-3.112-8.502h-18.241l-3.188 8.502h-9.086l16.56-43.718h10.68l16.477 43.718zm-9.92-27.327a110.887 110.887 0 0 1-2.266-6.896h-.093c-.497 2.102-1.337 4.548-2.178 6.814l-4.707 12.355h13.78zm40.855 12.69v14.637h-9.086v-14.55l-15.293-29.167h9.997l6.481 12.525a84.836 84.836 0 0 1 3.533 8.075h.087c1.168-3.024 2.599-5.89 3.948-8.484l6.388-12.116h9.412zm21.19 14.637v-43.718h25.715v7.142h-16.636v10.68h15.883v6.89h-15.883v11.77h16.636v7.236zm58.584 0l-12.525-17.996h-.426v17.996h-9.068v-43.718c3.182-.175 8.905-.25 14.282-.25 10.429 0 16.478 4.04 16.478 12.104 0 7.147-4.963 11.42-11.947 12.525 1.016 1.18 2.196 2.86 3.539 4.7l10.843 14.64zm-9.08-36.985c-1.518 0-2.697 0-3.871.163v12.601c1.261.082 2.785.17 4.21.17 4.788 0 7.894-2.768 7.894-6.885 0-3.959-3.106-6.05-8.233-6.05m56.397 36.986l-15.053-23.713c-1.67-2.604-3.264-5.71-4.444-8.326h-.081c.163 2.452.245 5.138.245 9.167l.093 22.872h-8.84v-43.718h12.11L379.4 163.68c1.681 2.703 3.363 5.553 4.8 8.583h.075c-.169-2.779-.245-6.977-.245-12.6l-.087-19.258h8.822v43.718zm211.421-37.806c1.553-.012 4.724.076 6.522 2.47 1.08 1.518 1.67 3.141.964 5.448l-1.384 4.484c-.87 2.844-1.717 4.817-4.28 6.692-2.248 1.541-4.222 1.88-6.663 1.897l-30.094.263-6.978 22.521 30.655-.257c3.422-.017 6.552-.157 7.994 2.342 1.01 1.746 1.162 3.387.455 5.675l-1.43 4.596c-.742 2.4-1.647 4.268-3.661 6.137-3.451 3.3-7.124 2.668-11.205 2.692l-41.166.344c-2.33.023-3.749-.742-4.683-2.37-1.115-1.74-.952-3.697-.17-6.213l2.307-7.457-33.65.24-1.536 4.928c-2.382 7.655-5.097 19.356 1.133 27.712 5.296 7.176 16.589 7.947 23.45 7.894l53.918-.128c2.318-.03 19.006.9 31.571-9.016 9.647-7.59 12.478-13.178 15.351-22.474l1.46-4.7c1.63-5.256 3.089-12.467-2.166-16.905-3.253-2.71-12.408-5.272-14.207-5.132 1.583-.14 10.808-2.809 16.718-6.89 6.726-4.637 8.782-10.552 10.837-17.54l1.05-3.394c3.639-11.04 1.928-20.524-6.953-24.617-6.628-3.223-12.163-3.194-20.8-3.13l-49.012-.006c-10.09.076-25.243 2.324-36.01 13.203-6.47 6.604-8.811 12.07-11.252 19.946l-1.524 4.84 33.33-.222.946-3.007c.875-2.832 1.442-5.02 3.672-7.217 3.13-2.972 6.558-3.31 10.195-3.34l36.296-.31z" fill="#fff"/></svg>