<svg xmlns="http://www.w3.org/2000/svg" version="1" width="566.936" height="116.081"><path d="M565.366 52.037c-5.999-24.061-29.459-42.46-62.76-49.205-.667-.127-15.69-2.93-28.618-2.83-14.617.107-30.11 2.022-43.615 5.392-22.699 5.655-43.298 15.31-59.797 27.586H14.906C6.688 32.98 0 39.354 0 47.192v55.013c0 6.763 4.969 12.44 11.606 13.876h531.145l.45-.462c19.506-20.127 27.38-42.705 22.165-63.582z" fill="#fff"/><path d="M14.912 38.316c-5.272 0-9.563 3.985-9.563 8.875v55c0 4.895 4.29 8.875 9.563 8.875H91.6v-72.75H14.911zm81.875 0v72.75h236.625c-.105-.382-.247-.74-.344-1.125-3.676-14.742-.755-30.632 8.438-45.937 5.558-9.256 13.207-17.902 22.375-25.688z" fill="#003d7f"/><path d="M397.498 99.15l63.84-39.605c18.322-11.218 22.926-24.607 13.788-33.438-7.38-7.394-19.788-10.323-37.022-2.471l-12.507 5.504-5.209-7.155 13.659-7.281c6.482-3.231 13.204-6.172 20.212-8.126-7.806.888-15.487 2.227-22.595 4.004-19.314 4.815-37.026 12.58-51.835 22.398a135.295 135.295 0 0 0-7.463 5.348c-10.998 8.415-20.014 18.032-26.266 28.435-8.45 14.066-11.15 28.547-7.828 41.882.203.824.48 1.627.728 2.437h58.498zM501.544 8.074c-.076-.012-6.126-1.14-13.7-1.941 3.302.832 5.134 1.618 5.134 1.618 8.629 3.037 15.35 8.268 19.112 15.33 6.318 12.172-2.408 24.91-16.794 34.535l-56.583 37.837h72.443l.29 15.629h28.67c17.6-18.54 24.738-39.005 20.06-57.75-5.49-22.011-27.408-38.93-58.632-45.258z" fill="#ec701a"/><path d="M65.314 74.64c5.67-1.962 9.733-6.486 9.733-13.21 0-1.68-.856-5.768-3.94-8.406-2.047-1.735-4.992-3.79-14.516-4.02-1.966-.05-7.944.164-7.944.164v.34c1.685 1.297 3.503 3.432 4.373 5.898.912-.025 2.29-.1 3.643-.025 3.827.2 5.495.912 7.218 2.269 1.73 1.36 2.654 3.698 2.654 5.815-.02 2.89-1.386 5.88-5.562 7.583-3.381 1.378-7.47 1.685-7.47 1.685v1.05s2.45 1.167 4.89 4.403c2.11 2.78 14.335 20.776 14.335 20.776h10.1S66.512 76.228 65.315 74.64zM33 92.02h-5.646V55.336c.068 0 2.53-.034 4.067-.034 6.306 0 9.814 3.27 9.91 7.752.069 2.714-.742 5.332-3.516 7.252-2.264 1.567-5.428 2.037-5.428 2.037v1.18s4.378.656 6.601 1.694c4.134 1.923 5.37 4.928 5.394 8.81.046 6.13-5.877 7.995-11.382 7.995zm10.114-19.917c3.877-2.29 6.364-5.66 6.364-10.693 0-5.382-3.185-12.482-16.558-12.482-6.469 0-13.657.235-13.657.235v49.799H30.67c14.51 0 22.178-5.35 22.178-15.46 0-6.026-3.781-10.01-9.734-11.4zm89.74 3.865c-.749 0-2.223 0-3.097.067v10.23c1.012.202 2.42.265 4.105.265 4.857 0 7.075-2.286 7.075-5.517 0-3.696-3.23-5.045-8.084-5.045zm1.08-14.344c-1.345 0-2.9.068-4.177.068v9.562a51.52 51.52 0 0 0 2.764.063c4.778 0 7.807-1.68 7.807-5.18 0-2.63-1.48-4.513-6.394-4.513zm-.072 30.16c-2.425 0-6.6-.062-11.385-.13V56.639c3.306 0 8.22-.14 12.864-.14 9.024 0 12.662 3.309 12.662 8.56 0 3.57-2.088 6.466-5.721 7.877v.068c4.247 1.012 6.33 4.104 6.33 7.877 0 4.853-3.167 10.906-14.75 10.906zm36.56-22.01a85.02 85.02 0 0 1-1.815-5.528h-.068c-.399 1.68-1.08 3.642-1.751 5.457l-3.773 9.9h11.046zm7.949 21.88l-2.496-6.805h-14.612l-2.555 6.807h-7.276l13.268-35.02h8.553l13.202 35.02h-8.084zm24.783-11.716v11.718h-7.277V80.005l-12.26-23.368h8.013l5.197 10.038a66.204 66.204 0 0 1 2.828 6.46h.067c.941-2.42 2.084-4.713 3.164-6.796l5.12-9.702h7.542l-12.394 23.3zm16.977 11.718v-35.02h20.608v5.727h-13.34v8.559h12.727v5.512H227.4v9.428h13.34v5.794zm39.66-29.632c-1.213 0-2.158 0-3.104.138v10.096c1.022.063 2.235.134 3.374.134 3.836 0 6.327-2.218 6.327-5.516 0-3.168-2.491-4.852-6.596-4.852zm7.279 29.632L257.032 77.24h-.345v14.415h-7.272v-35.02c2.567-.138 7.142-.204 11.453-.204 8.352 0 13.2 3.239 13.2 9.704 0 5.72-3.97 9.155-9.566 10.034.806.936 1.751 2.285 2.832 3.768l8.684 11.718zm37.908 0L292.92 72.67c-1.349-2.093-2.622-4.584-3.563-6.676h-.067c.13 1.957.193 4.113.193 7.344l.07 18.318h-7.074v-35.02h9.706l11.78 18.655c1.348 2.156 2.693 4.446 3.844 6.87h.063c-.138-2.223-.201-5.592-.201-10.101l-.064-15.423h7.063v35.019z" fill="#fff"/></svg>