<?xml version="1.0" encoding="UTF-8"?>
<svg width="800" height="263.9" version="1.1" xmlns="http://www.w3.org/2000/svg">
 <path d="m444.66 209.83v41.005c0 8.5896 4.2546 13.071 11.948 13.071l1.3459-5.0791c-4.3322 0-7.1705-2.2408-7.1705-7.5439v-41.454zm60.726 0v53.18h6.1248v-9.858l8.5896-8.4417 13.368 18.3h6.8731l-16.435-22.034 14.49-14.265h-7.0182l-19.571 19.118h-0.29734v-35.997zm81.242 0v41.005c0 8.5896 4.2589 13.071 11.951 13.071l1.3445-5.0791c-4.3322 0-7.1705-2.2408-7.1705-7.5439v-41.454zm51.523 0v5.6738h16.134v47.506h6.2727v-47.507h16.135v-5.6737zm41.427 0 15.614 53.18h7.2437l15.536-53.18h-6.3488l-7.8427 28.696c-1.6447 6.3244-2.913 11.352-4.7056 17.593h-0.29734c-1.7926-6.2411-2.9906-11.268-4.7085-17.593l-7.916-28.696zm-199.2 15.983c-8.2736 0-15.513 6.9464-15.513 19.121 0 12.025 7.2394 18.97 15.513 18.97 8.2736 0 15.513-6.945 15.513-18.97 0-12.175-7.2394-19.121-15.513-19.121zm79.871 0c-6.3488 0-12.474 2.8398-16.134 5.2285l2.3902 4.1842c3.3612-2.0914 7.9921-4.3322 12.698-4.3322 7.0211 0 9.4874 4.1828 9.6368 9.1125-18.748 1.4938-26.293 5.4511-26.293 13.593 0 6.4982 5.5272 10.306 12.324 10.306 5.1538 0 10.309-2.686 14.342-5.8231h0.22408l0.52141 4.9283h5.0044v-22.258c0-9.0378-4.7803-14.938-14.714-14.938zm-79.871 5.0805c6.0113 0 10.02 5.6752 10.02 14.041 0 8.2908-4.0075 13.893-10.02 13.893-6.0113 0-10.019-5.6019-10.019-13.893 0-8.3655 4.0075-14.041 10.019-14.041zm129.02 8.6241v5.1394h21.316v-5.1394zm-40.561 4.5189v9.5621c-4.1081 3.4358-8.2162 5.3778-12.324 5.3778-4.1828 0-7.9935-1.7165-7.9935-5.8246 0-4.7803 4.7818-7.8456 20.318-9.1153z" fill="#a4a5a5" letter-spacing="-7.39" stroke-width="1.4364"/>
 <g transform="matrix(1.4364 0 0 1.4364 -.0012427 3.8715e-8)">
  <path d="m434.15 130.1a75.024 73.4 0 0 1-22.82-81.428 75.024 73.4 0 0 1 70.599-48.563 75.024 73.4 0 0 1 70.597 48.565 75.024 73.4 0 0 1-22.823 81.428" fill="#a4a5a5" stroke-width="1.017"/>
  <path d="m307.58 129.99a75.024 73.4 0 0 1-22.822-81.428 75.024 73.4 0 0 1 70.6-48.562 75.024 73.4 0 0 1 70.598 48.565 75.024 73.4 0 0 1-22.824 81.427" fill="#a4a5a5" stroke-width="1.017"/>
  <path d="m445.39 28.033a10.734 10.734 0 0 0-4.135 1.041 10.697 10.697 0 0 0-5.06 14.291l35.337 74.1h21.442l35.338-74.1c2.557-5.36 0.3-11.734-5.06-14.291a10.696 10.696 0 0 0-14.292 5.06l-26.707 56.003-26.707-56.002a10.696 10.696 0 0 0-10.156-6.102zm-110.97-6e-3c-16.646 0-30.047 15.19-30.047 34.059v55.379h21.442v-51.3c0-6.135 3.837-11.075 8.605-11.075s8.608 4.94 8.608 11.076v51.299h21.441v-51.3c0-6.135 3.837-11.075 8.605-11.075 4.769 0 8.608 4.94 8.608 11.076v51.299h21.44v-55.38c0-18.868-13.402-34.058-30.048-34.058-7.374 0-14.108 4.975-19.326 11.274-5.218-6.299-11.953-11.274-19.328-11.274z" fill="#fff"/>
 </g>
 <g transform="matrix(1.4364 0 0 1.4364 -.0012427 3.8715e-8)" stroke-width="1.017">
  <path d="m153.82 130.21a75.024 73.4 0 0 1-22.821-81.428 75.024 73.4 0 0 1 70.6-48.562 75.024 73.4 0 0 1 70.598 48.564 75.024 73.4 0 0 1-22.824 81.428" fill="#089cd4"/>
  <path d="m27.247 130.1a75.024 73.4 0 0 1-22.821-81.427 75.024 73.4 0 0 1 70.6-48.563 75.024 73.4 0 0 1 70.598 48.565 75.024 73.4 0 0 1-22.824 81.427" fill="#089cd4"/>
  <path d="m181.55 2.982a75.024 73.4 0 0 0-21.869 9.858v104.73h57.078c14.937 0 26.961-18.213 26.961-40.836s-12.024-40.836-26.96-40.836h-35.21zm0 59.217h30.688c6.128 0 11.062 6.077 11.062 13.625s-4.934 13.625-11.062 13.625h-30.688zm-120.57-60.703a75.024 73.4 0 0 0-21.87 7.65v108.32h57.08c14.936 0 26.96-18.213 26.96-40.836 0-22.624-12.024-40.836-26.96-40.836h-35.21zm0 60.594h30.687c6.129 0 11.063 6.076 11.063 13.625 0 7.548-4.934 13.625-11.063 13.625h-30.687z" fill="#f7ffff"/>
 </g>
</svg>
