<svg xmlns="http://www.w3.org/2000/svg" width="556.953" height="183.725"><path d="M309.567 146.079v28.547c0 5.98 2.962 9.1 8.318 9.1l.937-3.536c-3.016 0-4.992-1.56-4.992-5.252v-28.86zm42.277 0v37.023h4.264v-6.863l5.98-5.877 9.307 12.74h4.785l-11.442-15.34 10.088-9.931h-4.886l-13.625 13.31h-.207V146.08zm56.56 0v28.547c0 5.98 2.965 9.1 8.32 9.1l.936-3.536c-3.016 0-4.992-1.56-4.992-5.252v-28.86zm35.87 0v3.95h11.232v33.073h4.367v-33.074h11.233v-3.95zm28.841 0l10.87 37.023h5.043l10.816-37.023h-4.42l-5.46 19.978c-1.145 4.403-2.028 7.903-3.276 12.248h-.207c-1.248-4.345-2.082-7.845-3.278-12.248l-5.511-19.978zm-138.683 11.127c-5.76 0-10.8 4.836-10.8 13.312 0 8.372 5.04 13.207 10.8 13.207 5.76 0 10.8-4.835 10.8-13.207 0-8.476-5.04-13.312-10.8-13.312zm55.605 0c-4.42 0-8.684 1.977-11.232 3.64l1.664 2.913c2.34-1.456 5.564-3.016 8.84-3.016 4.888 0 6.605 2.912 6.709 6.344-13.052 1.04-18.305 3.795-18.305 9.463 0 4.524 3.848 7.175 8.58 7.175 3.588 0 7.177-1.87 9.985-4.054h.156l.363 3.431h3.484v-15.496c0-6.292-3.328-10.4-10.244-10.4zm-55.605 3.537c4.185 0 6.976 3.951 6.976 9.775 0 5.772-2.79 9.672-6.976 9.672-4.185 0-6.975-3.9-6.975-9.672 0-5.824 2.79-9.775 6.975-9.775zm89.824 6.004v3.578h14.84v-3.578zm-28.238 3.146v6.657c-2.86 2.392-5.72 3.744-8.58 3.744-2.912 0-5.565-1.195-5.565-4.055 0-3.328 3.329-5.462 14.145-6.346z" letter-spacing="-7.39" fill="#a4a5a5"/><path d="M434.151 130.1a75.024 73.4 0 0 1-22.82-81.428A75.024 73.4 0 0 1 481.93.109a75.024 73.4 0 0 1 70.597 48.565 75.024 73.4 0 0 1-22.823 81.428" fill="#a4a5a5" stroke-width="1.017"/><path d="M307.58 129.99a75.024 73.4 0 0 1-22.822-81.428A75.024 73.4 0 0 1 355.358 0a75.024 73.4 0 0 1 70.598 48.565 75.024 73.4 0 0 1-22.824 81.427" fill="#a4a5a5" stroke-width="1.017"/><path d="M445.393 28.033a10.734 10.734 0 0 0-4.135 1.041 10.697 10.697 0 0 0-5.06 14.291l35.337 74.1h21.442l35.338-74.1c2.557-5.36.3-11.734-5.06-14.291a10.696 10.696 0 0 0-14.292 5.06l-26.707 56.003-26.707-56.002a10.696 10.696 0 0 0-10.156-6.102zM334.425 28.027c-16.646 0-30.047 15.19-30.047 34.059v55.379h21.442v-51.3c0-6.135 3.837-11.075 8.605-11.075 4.768 0 8.608 4.94 8.608 11.076v51.299h21.441v-51.3c0-6.135 3.837-11.075 8.605-11.075 4.769 0 8.608 4.94 8.608 11.076v51.299h21.44v-55.38c0-18.868-13.402-34.058-30.048-34.058-7.374 0-14.108 4.975-19.326 11.274-5.218-6.299-11.953-11.274-19.328-11.274z" fill="#fff"/><g stroke-width="1.017"><path d="M153.819 130.21a75.024 73.4 0 0 1-22.821-81.428A75.024 73.4 0 0 1 201.598.22a75.024 73.4 0 0 1 70.598 48.564 75.024 73.4 0 0 1-22.824 81.428" fill="#089cd4"/><path d="M27.247 130.1A75.024 73.4 0 0 1 4.426 48.673 75.024 73.4 0 0 1 75.026.11a75.024 73.4 0 0 1 70.598 48.565 75.024 73.4 0 0 1-22.824 81.427" fill="#089cd4"/><path d="M181.552 2.982a75.024 73.4 0 0 0-21.869 9.858v104.734h57.078c14.937 0 26.961-18.213 26.961-40.836 0-22.623-12.024-40.836-26.96-40.836h-35.21zm0 59.217h30.688c6.128 0 11.062 6.077 11.062 13.625s-4.934 13.625-11.062 13.625h-30.688zM60.98 1.496a75.024 73.4 0 0 0-21.87 7.65v108.319H96.19c14.936 0 26.96-18.213 26.96-40.836 0-22.624-12.024-40.836-26.96-40.836h-35.21zm0 60.594h30.687c6.129 0 11.063 6.076 11.063 13.625 0 7.548-4.934 13.625-11.063 13.625H60.98z" fill="#f7ffff"/></g></svg>