<?xml version="1.0" encoding="UTF-8" standalone="no"?>
<!-- Created with Inkscape (http://www.inkscape.org/) -->

<svg
   xmlns:dc="http://purl.org/dc/elements/1.1/"
   xmlns:cc="http://creativecommons.org/ns#"
   xmlns:rdf="http://www.w3.org/1999/02/22-rdf-syntax-ns#"
   xmlns:svg="http://www.w3.org/2000/svg"
   xmlns="http://www.w3.org/2000/svg"
   xmlns:sodipodi="http://sodipodi.sourceforge.net/DTD/sodipodi-0.dtd"
   xmlns:inkscape="http://www.inkscape.org/namespaces/inkscape"
   width="65"
   height="45.390293"
   id="svg3318"
   sodipodi:version="0.32"
   inkscape:version="0.91pre2 r13516"
   version="1.0"
   sodipodi:docname="BBC_News_Logo.svg"
   inkscape:output_extension="org.inkscape.output.svg.inkscape">
  <defs
     id="defs3320">
    <inkscape:perspective
       sodipodi:type="inkscape:persp3d"
       inkscape:vp_x="0 : 526.18109 : 1"
       inkscape:vp_y="0 : 1000 : 0"
       inkscape:vp_z="744.09448 : 526.18109 : 1"
       inkscape:persp3d-origin="372.04724 : 350.78739 : 1"
       id="perspective3326" />
    <inkscape:perspective
       id="perspective3372"
       inkscape:persp3d-origin="372.04724 : 350.78739 : 1"
       inkscape:vp_z="744.09448 : 526.18109 : 1"
       inkscape:vp_y="0 : 1000 : 0"
       inkscape:vp_x="0 : 526.18109 : 1"
       sodipodi:type="inkscape:persp3d" />
  </defs>
  <sodipodi:namedview
     id="base"
     pagecolor="#ffffff"
     bordercolor="#666666"
     borderopacity="1.0"
     gridtolerance="10000"
     guidetolerance="10"
     objecttolerance="10"
     inkscape:pageopacity="0.0"
     inkscape:pageshadow="2"
     inkscape:zoom="11.978389"
     inkscape:cx="34.931825"
     inkscape:cy="25.850591"
     inkscape:document-units="px"
     inkscape:current-layer="layer1"
     showgrid="true"
     inkscape:window-width="1920"
     inkscape:window-height="1017"
     inkscape:window-x="-8"
     inkscape:window-y="-8"
     inkscape:window-maximized="1">
    <inkscape:grid
       type="xygrid"
       id="grid3378"
       visible="true"
       enabled="true" />
  </sodipodi:namedview>
  <metadata
     id="metadata3323">
    <rdf:RDF>
      <cc:Work
         rdf:about="">
        <dc:format>image/svg+xml</dc:format>
        <dc:type
           rdf:resource="http://purl.org/dc/dcmitype/StillImage" />
      </cc:Work>
    </rdf:RDF>
  </metadata>
  <g
     inkscape:label="Layer 1"
     inkscape:groupmode="layer"
     id="layer1"
     transform="translate(-230,-322.36218)">
    <g
       id="g3444"
       transform="matrix(0.1371308,0,0,0.1371308,211.48733,291.18382)">
      <rect
         y="227.36223"
         x="135.00006"
         height="331"
         width="474"
         id="rect3442"
         style="opacity:1;fill:#9d0a0e;fill-opacity:1;fill-rule:evenodd;stroke:#c0c0c0;stroke-width:0;stroke-linecap:round;stroke-linejoin:miter;stroke-miterlimit:4;stroke-dasharray:none;stroke-dashoffset:0;stroke-opacity:1" />
      <g
         style="fill:#ffffff"
         transform="matrix(0.4313455,0,0,0.4313455,162.40639,285.4663)"
         id="g3414">
        <path
           d="M 509.03032,114.50075 C 509.01823,117.693 508.03879,120.90942 505.18511,123.40639 C 502.33748,125.9094 497.41006,127.81387 489.24807,127.81387 L 472.8213,127.81387 L 472.8213,101.47179 L 488.51651,101.47179 C 495.83812,101.47179 501.03157,102.95909 504.29032,105.27468 C 507.53698,107.6084 509.00613,110.67368 509.03032,114.50075"
           style="fill:#ffffff;fill-opacity:1;fill-rule:nonzero;stroke:none"
           id="path2436" />
        <path
           d="M 495.72325,82.959185 C 498.78248,80.75847 500.25769,77.638775 500.27583,72.965279 C 500.26373,69.754895 499.34475,67.004002 497.03521,64.954435 C 494.71963,62.898822 490.78978,61.441755 484.44156,61.441755 L 472.8213,61.441755 L 472.8213,86.405359 L 480.79587,86.405359 C 487.70031,86.405359 492.64587,85.178037 495.72325,82.959185"
           style="fill:#ffffff;fill-opacity:1;fill-rule:nonzero;stroke:none"
           id="path2438" />
        <path
           d="M 526.75091,116.43544 C 526.79323,104.25896 518.68565,95.002657 505.70506,91.447656 C 509.2117,89.658064 511.98073,87.469441 514.01216,84.80319 C 516.72073,81.224006 518.0206,76.840714 518.00246,71.725865 C 518.0206,65.4502 515.54782,59.047571 510.24555,54.253156 C 504.93723,49.464788 496.88406,46.363231 485.89258,46.369277 L 455.53602,46.369277 L 455.53602,142.89844 L 491.14649,142.89844 L 491.16462,142.89844 C 503.87315,142.89844 512.79693,139.45226 518.54055,134.34346 C 524.29022,129.25884 526.75696,122.58414 526.75091,116.43544 M 560.58992,161.60451 L 418.16619,161.60451 L 418.16619,27.578557 L 560.58992,27.578557 L 560.58992,161.60451 z"
           style="fill:#ffffff;fill-opacity:1;fill-rule:nonzero;stroke:none"
           id="path2440" />
        <path
           d="M 331.61884,82.959185 C 334.67203,80.75847 336.15328,77.638775 336.17746,72.965279 C 336.17142,69.754895 335.24639,67.004002 332.93685,64.954435 C 330.61522,62.898822 326.68537,61.441755 320.33111,61.441755 L 308.72294,61.441755 L 308.72294,86.405359 L 316.69751,86.405359 C 323.59591,86.405359 328.54147,85.178037 331.61884,82.959185"
           style="fill:#ffffff;fill-opacity:1;fill-rule:nonzero;stroke:none"
           id="path2442" />
        <path
           d="M 340.18591,105.27468 C 336.9332,102.95909 331.73371,101.47179 324.41815,101.47179 L 308.72294,101.47179 L 308.72294,127.81387 L 325.14971,127.81387 C 333.3117,127.81387 338.22703,125.9094 341.08071,123.40639 C 343.93438,120.90942 344.91987,117.693 344.92591,114.50075 C 344.90173,110.67368 343.43257,107.6084 340.18591,105.27468"
           style="fill:#ffffff;fill-opacity:1;fill-rule:nonzero;stroke:none"
           id="path2444" />
        <path
           d="M 362.65255,116.43544 C 362.69487,104.25896 354.5752,95.002657 341.61275,91.447656 C 345.10729,89.658064 347.87632,87.469441 349.9017,84.80319 C 352.62237,81.224006 353.91015,76.840714 353.9041,71.725865 C 353.91015,65.4502 351.44341,59.047571 346.14114,54.253156 C 340.83887,49.464788 332.7857,46.363231 321.79422,46.369277 L 291.43161,46.369277 L 291.43161,142.89844 L 327.03603,142.89844 L 327.06022,142.89844 C 339.77479,142.89844 348.69252,139.45226 354.43614,134.34346 C 360.17977,129.25884 362.66464,122.58414 362.65255,116.43544 M 396.49156,161.60451 L 254.07387,161.60451 L 254.07387,27.578557 L 396.49156,27.578557 L 396.49156,161.60451 z"
           style="fill:#ffffff;fill-opacity:1;fill-rule:nonzero;stroke:none"
           id="path2446" />
        <path
           d="M 696.41152,117.05817 L 694.12616,118.45478 C 683.0984,125.18994 671.1033,128.79935 660.20855,128.7933 C 636.88339,128.70262 621.52675,114.88164 621.46629,94.772912 C 621.49048,75.093443 637.5303,60.528821 659.61605,60.480454 C 670.8675,60.4865 681.05488,63.394588 693.16486,70.033008 L 695.38976,71.254284 L 695.38976,53.291855 L 694.4345,52.917008 C 680.78281,47.530093 670.2085,45.129863 659.7672,45.135909 C 643.61854,45.129863 629.61015,50.462365 619.62833,59.507061 C 609.65256,68.557803 603.72152,81.332832 603.73361,96.00628 C 603.73965,106.22993 607.95366,118.2069 616.98627,127.71713 C 625.98864,137.22736 639.86403,144.15599 658.89054,144.14994 L 658.95704,144.14994 C 674.73689,144.14994 685.68001,140.63726 695.57113,135.7582 L 696.41152,135.34708 L 696.41152,117.05817 z M 724.69433,161.60451 L 582.27664,161.60451 L 582.27664,27.578557 L 724.69433,27.578557 L 724.69433,161.60451 z"
           style="fill:#ffffff;fill-opacity:1;fill-rule:nonzero;stroke:none"
           id="path2448" />
      </g>
      <g
         style="fill:#ffffff"
         transform="matrix(0.5619285,0,0,0.5619285,97.98875,144.37904)"
         id="g3431">
        <path
           d="M 303.26952,432.05665 L 323.55963,432.05665 L 323.55963,581.20345 L 305.19212,581.20345 L 205.47072,466.33097 L 205.47072,581.20345 L 185.40431,581.20345 L 185.40431,432.05665 L 202.69564,432.05665 L 303.26952,547.89648 L 303.26952,432.05665 z"
           style="fill:#ffffff;fill-opacity:1;fill-rule:nonzero;stroke:none"
           id="path2418" />
        <path
           d="M 362.04191,432.05665 L 446.60015,432.05665 L 446.60015,451.05293 L 383.3961,451.05293 L 383.3961,496.53639 L 444.46594,496.53639 L 444.46594,515.64754 L 383.3961,515.64754 L 383.3961,561.98952 L 448.62553,561.98952 L 448.62553,580.99184 L 362.04191,580.99184 L 362.04191,432.05665 z"
           style="fill:#ffffff;fill-opacity:1;fill-rule:nonzero;stroke:none"
           id="path2420" />
        <path
           d="M 674.49506,432.05665 L 695.78879,432.05665 L 635.48073,581.85037 L 630.7891,581.85037 L 582.02271,460.55712 L 532.74846,581.85037 L 528.16565,581.85037 L 468.05107,432.05665 L 489.56246,432.05665 L 530.66262,534.86752 L 572.04694,432.05665 L 592.23427,432.05665 L 633.80601,534.86752 L 674.49506,432.05665 z"
           style="fill:#ffffff;fill-opacity:1;fill-rule:nonzero;stroke:none"
           id="path2422" />
        <path
           d="M 753.64824,518.71282 L 737.42099,508.85193 C 727.23966,502.63672 719.99665,496.5243 715.69196,490.50861 C 711.38726,484.49292 709.22887,477.57034 709.22887,469.74087 C 709.22887,457.99365 713.30382,448.45923 721.45976,441.13158 C 729.60362,433.79788 740.19607,430.128 753.22503,430.128 C 765.67358,430.128 777.10036,433.62859 787.49935,440.61767 L 787.49935,464.85577 C 776.7497,454.51724 765.17781,449.34798 752.79577,449.34798 C 745.81877,449.34798 740.08724,450.96224 735.60117,454.19076 C 731.12114,457.41324 728.87206,461.5426 728.87206,466.57885 C 728.87206,471.04074 730.52864,475.23057 733.82972,479.12414 C 737.13683,483.0298 742.44515,487.12289 749.76676,491.4034 L 766.07865,501.05874 C 784.27083,511.9293 793.36389,525.76237 793.36389,542.55793 C 793.36389,554.51676 789.36149,564.23255 781.35669,571.70531 C 773.34585,579.17807 762.93477,582.9084 750.12347,582.9084 C 735.39561,582.9084 721.97971,578.3921 709.87578,569.32926 L 709.87578,542.20727 C 721.3993,556.82026 734.7487,564.12373 749.91186,564.12373 C 756.6047,564.12373 762.17299,562.26158 766.62279,558.5373 C 771.07258,554.81301 773.29748,550.15161 773.29748,544.54704 C 773.29748,535.47211 766.7437,526.86272 753.64824,518.71282"
           style="fill:#ffffff;fill-opacity:1;fill-rule:nonzero;stroke:none"
           id="path2424" />
      </g>
    </g>
    <path
       inkscape:connector-curvature="0"
       d="m 285.67941,338.15577 -0.13769,-0.49158 -0.66348,-0.17156 -0.47761,0.82624 0.0827,2.98132 0.39492,1.34716 0.62808,-0.15379 0.17309,-0.50473 0,-1.57975 0,-0.68513 z"
       id="path15615"
       style="fill:#666666;fill-opacity:1;fill-rule:nonzero;stroke:none"
       sodipodi:nodetypes="ccccccccccc" />
    <path
       inkscape:connector-curvature="0"
       d="m 281.56728,340.03895 -1.12546,0.0401 0.0795,1.4342 0.4076,1.13868 0.80243,-0.66546 -0.003,-1.57744 z"
       id="path15619"
       style="fill:#666666;fill-opacity:1;fill-rule:nonzero;stroke:none"
       sodipodi:nodetypes="ccccccc" />
    <path
       inkscape:connector-curvature="0"
       d="m 281.75015,339.72395 -0.0151,-1.54619 -0.80243,-0.68513 -0.41715,0.91369 0.20296,1.62607 0.79412,-0.0552 z"
       id="path15623"
       style="fill:#666666;fill-opacity:1;fill-rule:nonzero;stroke:none"
       sodipodi:nodetypes="ccccccc" />
    <path
       inkscape:connector-curvature="0"
       d="m 284.07958,338.17545 0.80242,-0.68282 -0.005,5.15703 -0.7974,-0.77772 0,-1.46286 -3.14693,0 0,2.24637 -0.80117,-0.77656 0,-3.70113 0.80117,-0.68513 0,2.23132 3.14693,0 0,-1.5485 z"
       id="path15603"
       style="fill:#ffffff;fill-rule:nonzero;stroke:none" />
    <path
       inkscape:connector-curvature="0"
       d="m 284.87698,342.64735 0,0 0.80243,-0.65852 1.01967,0 c 0.40059,0 0.71202,-0.0243 0.93429,-0.0718 0.22352,-0.0521 0.40686,-0.11574 0.55504,-0.19212 0.14944,-0.0799 0.2838,-0.17707 0.40812,-0.28933 0.39556,-0.36919 0.59272,-0.83675 0.59272,-1.40152 0,-0.55436 -0.20343,-1.00571 -0.60904,-1.35407 -0.14944,-0.13078 -0.32148,-0.23957 -0.51737,-0.32289 -0.19214,-0.0845 -0.37548,-0.13888 -0.55003,-0.1655 -0.17203,-0.0266 -0.45081,-0.0405 -0.83759,-0.0405 l -1.00083,0 -0.7949,-0.65851 1.88113,0 c 0.76098,0 1.36501,0.10647 1.80703,0.3171 0.44454,0.21064 0.79741,0.51964 1.05986,0.92933 0.25994,0.40854 0.39305,0.85411 0.39305,1.33787 0,0.34373 -0.0741,0.67356 -0.21725,0.98951 -0.14566,0.3148 -0.35161,0.59255 -0.61783,0.83212 -0.27124,0.24651 -0.58895,0.43168 -0.94935,0.55667 -0.21097,0.0764 -0.40686,0.12847 -0.58142,0.15508 -0.1758,0.0255 -0.5136,0.037 -1.01214,0.037 l -1.76559,0 1.76559,0 c 0.49854,0 0.83634,-0.0116 1.01214,-0.037 0.17456,-0.0266 0.37045,-0.0787 0.58142,-0.15508 0.3604,-0.12499 0.67811,-0.31016 0.94935,-0.55667 0.26622,-0.23957 0.47217,-0.51732 0.61783,-0.83212 0.14316,-0.31595 0.21725,-0.64578 0.21725,-0.98951 0,-0.48376 -0.13311,-0.92933 -0.39305,-1.33787 -0.26245,-0.40969 -0.61532,-0.71869 -1.05986,-0.92933 -0.44202,-0.21063 -1.04605,-0.3171 -1.80703,-0.3171 l -1.88113,0 0.7949,0.65851 1.00083,0 c 0.38678,0 0.66556,0.0139 0.83759,0.0405 0.17455,0.0266 0.35789,0.081 0.55003,0.1655 0.19589,0.0833 0.36793,0.19211 0.51737,0.32289 0.40561,0.34836 0.60904,0.79971 0.60904,1.35407 0,0.56477 -0.19716,1.03233 -0.59272,1.40152 -0.12432,0.11226 -0.25868,0.20948 -0.40812,0.28933 -0.14818,0.0764 -0.33152,0.14004 -0.55504,0.19212 -0.22227,0.0475 -0.5337,0.0718 -0.93429,0.0718 l -1.01967,0 -0.80243,0.65852 z"
       id="path15607"
       style="fill:#501616;fill-rule:nonzero;stroke:none" />
    <path
       inkscape:connector-curvature="0"
       d="m 284.87698,342.64735 0.80243,-0.65852 1.01967,0 c 0.40059,0 0.71202,-0.0243 0.93429,-0.0718 0.22352,-0.0521 0.40686,-0.11574 0.55504,-0.19212 0.14944,-0.0799 0.2838,-0.17707 0.40812,-0.28933 0.39556,-0.36919 0.59272,-0.83675 0.59272,-1.40152 0,-0.55436 -0.20343,-1.00571 -0.60904,-1.35407 -0.14944,-0.13078 -0.32148,-0.23957 -0.51737,-0.32289 -0.19214,-0.0845 -0.37548,-0.13888 -0.55003,-0.1655 -0.17203,-0.0266 -0.45081,-0.0405 -0.83759,-0.0405 l -1.00083,0 -0.7949,-0.65851 1.88113,0 c 0.76098,0 1.36501,0.10647 1.80703,0.3171 0.44454,0.21064 0.79741,0.51964 1.05986,0.92933 0.25994,0.40854 0.39305,0.85411 0.39305,1.33787 0,0.34373 -0.0741,0.67356 -0.21725,0.98951 -0.14566,0.3148 -0.35161,0.59255 -0.61783,0.83212 -0.27124,0.24651 -0.58895,0.43168 -0.94935,0.55667 -0.21097,0.0764 -0.40686,0.12847 -0.58142,0.15508 -0.1758,0.0255 -0.5136,0.037 -1.01214,0.037 l -1.76559,0 z"
       id="path15611"
       style="fill:#ffffff;fill-rule:nonzero;stroke:none" />
  </g>
</svg>
