<?xml version="1.0" encoding="UTF-8"?>
<!DOCTYPE svg PUBLIC "-//W3C//DTD SVG 1.1//EN" "http://www.w3.org/Graphics/SVG/1.1/DTD/svg11.dtd">
<!-- Creator: CorelDRAW -->
<svg xmlns="http://www.w3.org/2000/svg" xml:space="preserve" width="280.456mm" height="204.237mm" style="shape-rendering:geometricPrecision; text-rendering:geometricPrecision; image-rendering:optimizeQuality; fill-rule:evenodd; clip-rule:evenodd"
viewBox="0 0 280.456 204.237"
 xmlns:xlink="http://www.w3.org/1999/xlink">
 <defs>
  <style type="text/css">
   <![CDATA[
    .fil0 {fill:#005E70}
    .fil1 {fill:white}
   ]]>
  </style>
 </defs>
 <g id="Layer_x0020_1">
  <metadata id="CorelCorpID_0Corel-Layer"/>
  <path class="fil0" d="M-0 204.237l0 -204.237 280.456 0 0 204.237m-280.456 0z"/>
  <path class="fil1" d="M187.468 46.3299c-0.1655,-0.0315 -0.3231,-0.063 -0.5004,-0.0827l-0.197 -0.0315c-0.2797,-0.0434 -0.5752,-0.0749 -0.855,-0.0946 -0.2088,-0.0197 -0.3979,-0.0315 -0.5949,-0.0512 -0.3428,-0.0197 -0.6974,-0.0197 -1.0323,-0.0197 -0.1576,0 -0.2521,0 -0.3979,0 -0.2601,0 -0.5438,0.0197 -0.8117,0.0433 -0.1576,0 -0.3034,0.0118 -0.457,0.0315 -0.2207,0.0118 -0.4374,0.0434 -0.6462,0.0749l-0.1655 0.0158 -0.197 0.0315 -0.2521 0.0315c-0.1025,0.0197 -0.2088,0.0433 -0.3034,0.0512 -0.1576,0.0315 -0.2916,0.0631 -0.4492,0.0946 -0.855,0.1891 -1.6666,0.4255 -2.4192,0.7289 -0.3861,0.1458 -0.7604,0.3034 -1.115,0.4807 -0.2797,0.1457 -0.5634,0.2915 -0.8353,0.4491 -0.26,0.1576 -0.5122,0.3034 -0.7722,0.4689 -0.1261,0.0945 -0.2601,0.1891 -0.398,0.2797 -0.1142,0.0828 -0.2285,0.1655 -0.3427,0.2522 -0.2286,0.1773 -0.4571,0.3664 -0.658,0.5516 -0.2088,0.1773 -0.4058,0.3546 -0.5753,0.5319 -0.1576,0.1576 -0.3033,0.3113 -0.457,0.4807 -0.1576,0.1655 -0.2916,0.3231 -0.4374,0.5004 -0.1654,0.1891 -0.3033,0.3861 -0.4491,0.5831 -0.1143,0.1458 -0.2088,0.3034 -0.3034,0.457 -0.0827,0.1025 -0.1458,0.2089 -0.2088,0.3113 -0.3861,0.6343 -0.7289,1.3041 -1.0008,2.0212 -0.3428,0.8984 -0.6028,1.8676 -0.7407,2.8881 -0.0434,0.3231 -0.0749,0.658 -0.0946,0.9889 -0.0197,0.2601 -0.0197,0.5201 -0.0197,0.7801 0,0.197 0,0.398 0,0.5832 0.0197,0.2088 0.0434,0.4058 0.0631,0.6028l0.0118 0.134c0.0433,0.2403 0.0748,0.4688 0.1142,0.6973 0.0197,0.0828 0.0316,0.1773 0.0513,0.2601 0.0433,0.1891 0.0945,0.3861 0.1339,0.5634 0.0828,0.2403 0.1458,0.4807 0.2207,0.7092 0.1024,0.2798 0.197,0.5516 0.3112,0.8235 0.1773,0.4255 0.3665,0.8353 0.5832,1.2214 0.1339,0.2206 0.2521,0.4373 0.3861,0.658 0.1024,0.1655 0.2206,0.3349 0.3112,0.4885 0.1576,0.197 0.3034,0.4059 0.4492,0.595 0.1576,0.197 0.3231,0.3979 0.4689,0.5752 0.2088,0.2285 0.3861,0.4374 0.5949,0.6265l0.1025 0.1024c0.1654,0.1458 0.3349,0.3113 0.5319,0.4807 0.1457,0.1143 0.2718,0.2404 0.4255,0.3546 0.1458,0.1143 0.2797,0.2285 0.4491,0.3428 0.1892,0.1261 0.3862,0.2719 0.595,0.4058 0.2206,0.134 0.4492,0.2798 0.6895,0.4177 0.4886,0.2718 1.0323,0.5319 1.6154,0.7722 0.2206,0.0946 0.4571,0.1773 0.6895,0.2522 0.2285,0.0827 0.4807,0.1576 0.721,0.2206 0.4256,0.1261 0.8747,0.2285 1.3436,0.3231 0.3861,0.0749 0.7722,0.134 1.1781,0.1891 0.3979,0.0434 0.8116,0.0828 1.2529,0.1025 0.2206,0.0118 0.4176,0.0197 0.6462,0.0197 0.1024,0 0.2088,0 0.3033,0 0.7723,0 1.4894,-0.0197 2.1592,-0.0828l0.126 -0.0118c0.2601,-0.0197 0.532,-0.0512 0.7723,-0.0827 0.3861,-0.0434 0.7407,-0.1025 1.0835,-0.1655 0.2206,-0.0315 0.4255,-0.0749 0.6462,-0.1261 0.3112,-0.063 0.6146,-0.134 0.8983,-0.2088 0.2206,-0.0631 0.4255,-0.1261 0.6265,-0.1773 0.2285,-0.0749 0.4688,-0.1576 0.6776,-0.2286l0.2207 -0.0748c0.1024,-0.0315 0.2521,-0.0828 0.4176,-0.1576 0.2207,-0.0828 0.4886,-0.1891 0.792,-0.3231 0.1891,-0.0749 0.3861,-0.1576 0.5831,-0.2522 0.1773,-0.0827 0.3743,-0.1773 0.5634,-0.2718 0.0828,-0.0434 0.1655,-0.0749 0.2404,-0.1143l-0.004 -4.7241c-0.0512,0.0315 -0.1261,0.0749 -0.1655,0.1025l-0.323 0.197c-0.3349,0.1891 -0.6344,0.3743 -0.9575,0.5516 -0.3427,0.1773 -0.6777,0.3546 -1.0204,0.5122 -0.5832,0.2797 -1.1348,0.5122 -1.6903,0.7092 -1.0323,0.3664 -1.97,0.6028 -2.8132,0.7486 -0.1024,0.0197 -0.2088,0.0315 -0.2915,0.0512 -0.2286,0.0315 -0.4571,0.063 -0.658,0.0827 -0.3349,0.0316 -0.6462,0.0513 -0.9181,0.0749 -0.1891,0 -0.3664,0 -0.5122,0 -0.3427,0 -0.6776,0 -1.0323,-0.0315 -0.4176,-0.0315 -0.8352,-0.0749 -1.2608,-0.1458 -0.6973,-0.1103 -1.3987,-0.2797 -2.0645,-0.528 -0.1025,-0.0315 -0.2089,-0.0748 -0.3034,-0.1142 -0.0631,-0.0197 -0.1261,-0.0512 -0.1891,-0.0749 -0.1143,-0.0512 -0.2207,-0.1024 -0.3231,-0.1458 -0.2285,-0.1142 -0.4689,-0.2285 -0.6895,-0.3546 -0.1025,-0.0748 -0.2207,-0.1339 -0.3349,-0.2088 -0.1182,-0.0709 -0.2364,-0.1458 -0.3389,-0.2167 -0.1339,-0.0945 -0.26,-0.1891 -0.4058,-0.2915 -0.1261,-0.1143 -0.2522,-0.2207 -0.3664,-0.3113l-0.1655 -0.1458 -0.0749 -0.0749 -0.0512 -0.0433 -0.0512 -0.0512c-0.2206,-0.2088 -0.4058,-0.4255 -0.6028,-0.6344 -0.0946,-0.126 -0.1891,-0.2403 -0.2719,-0.3664 -0.0945,-0.1142 -0.1773,-0.2403 -0.2285,-0.3546 -0.0827,-0.1024 -0.1576,-0.2206 -0.2206,-0.3349 -0.0946,-0.1655 -0.1971,-0.3349 -0.2719,-0.5004 -0.0749,-0.1339 -0.134,-0.2797 -0.1891,-0.4176 -0.1025,-0.2404 -0.2089,-0.4807 -0.2601,-0.7092 -0.063,-0.1773 -0.1142,-0.3546 -0.1458,-0.5319 -0.1457,-0.4886 -0.2088,-0.9496 -0.2206,-1.3357 -0.0315,-0.1458 -0.0315,-0.2797 -0.0433,-0.4058 -0.0119,-0.1891 -0.0119,-0.3546 -0.0119,-0.4886 0,-0.0827 0,-0.1891 0,-0.2915 0.0119,-0.2798 0.0316,-0.6147 0.0946,-1.0126 0.0433,-0.2404 0.0827,-0.4886 0.1458,-0.7605 0.0512,-0.1773 0.1024,-0.3546 0.1576,-0.5437 0.0512,-0.1655 0.1142,-0.3349 0.1773,-0.5122 0.0433,-0.1142 0.1024,-0.2285 0.1655,-0.3546 0.063,-0.1576 0.1339,-0.3231 0.2206,-0.4807 0.063,-0.126 0.1261,-0.2403 0.2088,-0.3664 0.1576,-0.2719 0.3231,-0.5437 0.5319,-0.8038 0.0749,-0.1024 0.1458,-0.197 0.2207,-0.2915 0.1024,-0.1143 0.2088,-0.2404 0.3231,-0.3546 0.0433,-0.0631 0.1024,-0.134 0.1654,-0.1891 0.8747,-0.8668 1.844,-1.5209 2.8447,-1.9819 0.1655,-0.0748 0.3231,-0.1339 0.4886,-0.197 0.1655,-0.063 0.3113,-0.1261 0.4689,-0.1773 0.1891,-0.0512 0.3664,-0.1142 0.5319,-0.1655 0.1773,-0.0433 0.3428,-0.0827 0.5122,-0.126 0.1655,-0.0316 0.3231,-0.0631 0.5004,-0.0946 0.197,-0.0433 0.3664,-0.063 0.5437,-0.0827 0.1891,-0.0316 0.3743,-0.0513 0.5516,-0.0631 0.3428,-0.0315 0.6895,-0.0512 1.0205,-0.0512 0.1142,0 0.2206,0 0.323,0 0.2522,0.0118 0.4886,0.0197 0.7211,0.0315 0.1773,0.0118 0.323,0.0197 0.4806,0.0434 0.2916,0.0315 0.595,0.063 0.855,0.1024 0.2522,0.0433 0.4886,0.0827 0.7092,0.1261 0.3231,0.0748 0.658,0.1458 0.9181,0.2206 0.1891,0.0434 0.3546,0.0946 0.5122,0.134 0.2285,0.0748 0.4255,0.1339 0.5752,0.1891 0.2601,0.0827 0.4058,0.1458 0.4058,0.1458 0.2286,0.0748 0.4689,0.1655 0.6895,0.26 0.3034,0.1143 0.595,0.2522 0.8668,0.3743 0.2286,0.1025 0.4492,0.2089 0.658,0.3113 0.1655,0.0827 0.3231,0.1655 0.4689,0.2403 0.26,0.134 0.4807,0.2522 0.658,0.3546l0.4885 0.2601 -0.0078 -4.6493c0,0 -0.2798,-0.1142 -0.792,-0.3033 -0.2206,-0.0828 -0.4885,-0.1892 -0.7722,-0.2916 -0.1655,-0.0512 -0.3428,-0.1143 -0.5319,-0.1773 -0.1576,-0.0512 -0.2916,-0.1024 -0.4689,-0.1576 -0.1655,-0.063 -0.3428,-0.1143 -0.5437,-0.1773 -0.134,-0.0433 -0.2719,-0.0827 -0.4177,-0.1261l-0.1339 -0.0433c-0.134,-0.0315 -0.2719,-0.0749 -0.4177,-0.1143 -0.1654,-0.0433 -0.3428,-0.0827 -0.5122,-0.1261 -0.1261,-0.0315 -0.2285,-0.0512 -0.3349,-0.0827 -0.197,-0.0433 -0.3743,-0.0827 -0.5634,-0.1261 -0.2128,-0.0236 -0.4098,-0.067 -0.5989,-0.0985m-23.2659 -4.8383l36.9339 0 0 34.7549 -36.9339 0.004 0 -34.7589z"/>
  <path class="fil1" d="M135.814 60.6637l0 6.8281 4.4326 0c0,0 0.0945,0 0.2403,-0.0118 0.1458,0 0.3546,-0.0118 0.6147,-0.0315 0.4806,-0.0434 1.115,-0.134 1.7296,-0.3428 0.5516,-0.1891 1.0954,-0.4689 1.513,-0.8865 0.1576,-0.1576 0.2916,-0.3231 0.3979,-0.4886 0.3428,-0.5437 0.4374,-1.1032 0.4571,-1.4184 0.0118,-0.134 0.0118,-0.2206 0.0118,-0.2206 0,0 0,-0.0631 0,-0.1655 -0.0158,-0.134 -0.0236,-0.3861 -0.0985,-0.658 -0.0827,-0.3231 -0.2403,-0.6974 -0.5201,-1.052 -0.0512,-0.063 -0.1024,-0.1261 -0.1655,-0.1891 -0.126,-0.1261 -0.26,-0.2404 -0.4058,-0.3428 -0.2403,-0.1773 -0.5122,-0.3349 -0.8116,-0.457 -0.398,-0.1773 -0.8432,-0.3034 -1.3357,-0.398 -0.2522,-0.0512 -0.5201,-0.0827 -0.7919,-0.1142 -0.1655,-0.0119 -0.3349,-0.0197 -0.5122,-0.0316 -0.1458,-0.0078 -0.3152,-0.0197 -0.461,-0.0197l-4.2947 0z"/>
  <path class="fil1" d="M135.814 50.2818l0 6.4734 2.1474 0c0,0 0.1457,0 0.3349,-0.0118 0.1457,0 0.323,-0.0118 0.4806,-0.0197 0.4492,-0.0315 1.052,-0.0946 1.6667,-0.26 0.1142,-0.0316 0.2403,-0.0749 0.3546,-0.1143 0.4807,-0.1655 0.9377,-0.4176 1.2923,-0.7722 0.2916,-0.2798 0.4807,-0.5832 0.6028,-0.8865 0.1458,-0.3744 0.197,-0.729 0.2207,-0.9811 0.0197,-0.2285 0.0197,-0.3664 0.0197,-0.3664 0,0 0.0118,-0.1025 -0.0118,-0.2798 -0.0119,-0.2797 -0.0749,-0.7407 -0.2916,-1.178 -0.1025,-0.2089 -0.2522,-0.4177 -0.4492,-0.6147 -0.2403,-0.2403 -0.5437,-0.4176 -0.855,-0.5634 -0.6028,-0.2601 -1.2923,-0.3664 -1.8754,-0.4058 -0.2522,-0.0197 -0.4807,-0.0197 -0.6777,-0.0197l-2.959 0z"/>
  <path class="fil1" d="M131.331 46.3614l0 25.0389 9.4167 0c0,0 4.598,0.1261 7.1393,-2.4073 2.0646,-2.0764 1.9188,-4.4602 1.9188,-4.4602 0,0 0.1576,-2.4901 -1.773,-4.4088 -1.6154,-1.6273 -3.6997,-2.0528 -3.6997,-2.0528 0,0 0.9495,-0.4492 1.6666,-1.1663 0.3231,-0.3349 1.5445,-1.4262 1.5445,-4.0661 0,-2.6477 -1.773,-4.1803 -1.773,-4.1803 0,0 -1.9503,-2.2931 -6.308,-2.2931l-8.1322 -0.004zm-9.6925 -4.8698l36.9338 0 0 34.7549 -36.9338 0.004 0 -34.7589z"/>
  <path class="fil1" d="M93.2503 60.6637l0 6.8281 4.4404 0c0,0 0.0828,0 0.2285,-0.0118 0.1458,0 0.3546,-0.0118 0.6147,-0.0315 0.4886,-0.0434 1.115,-0.134 1.7297,-0.3428 0.5634,-0.1891 1.1032,-0.4689 1.5129,-0.8865 0.1576,-0.1576 0.2916,-0.3231 0.4059,-0.4886 0.3427,-0.5437 0.4255,-1.1032 0.4491,-1.4184 0.0118,-0.134 0.0118,-0.2206 0.0118,-0.2206 0,0 0,-0.0631 0,-0.1655 0,-0.134 -0.0197,-0.3861 -0.0827,-0.658 -0.0946,-0.3231 -0.2522,-0.6974 -0.5201,-1.052 -0.0512,-0.063 -0.1142,-0.1261 -0.1773,-0.1891 -0.1261,-0.1261 -0.2522,-0.2404 -0.3979,-0.3428 -0.2404,-0.1773 -0.5201,-0.3349 -0.8235,-0.457 -0.3979,-0.1773 -0.8432,-0.3034 -1.3357,-0.398 -0.2521,-0.0512 -0.5122,-0.0827 -0.7801,-0.1142 -0.1773,-0.0119 -0.3428,-0.0197 -0.5201,-0.0316 -0.1458,-0.0078 -0.3152,-0.0197 -0.4688,-0.0197l-4.2868 0z"/>
  <path class="fil1" d="M93.2503 50.2818l0 6.4734 2.1473 0c0,0 0.1458,0 0.3349,-0.0118 0.1458,0 0.3231,-0.0118 0.4807,-0.0197 0.4492,-0.0315 1.052,-0.0946 1.6666,-0.26 0.1143,-0.0316 0.2404,-0.0749 0.3546,-0.1261 0.4807,-0.1655 0.9378,-0.4177 1.3042,-0.7723 0.2797,-0.2797 0.4689,-0.5831 0.5949,-0.8865 0.1576,-0.3743 0.2089,-0.7289 0.2207,-0.981 0.0197,-0.2286 0.0197,-0.3665 0.0197,-0.3665 0,0 0.0118,-0.1024 0,-0.2797 -0.0197,-0.2797 -0.0749,-0.7407 -0.3034,-1.1781 -0.1024,-0.2088 -0.2522,-0.4176 -0.4492,-0.6146 -0.2403,-0.2404 -0.5319,-0.4177 -0.8431,-0.5634 -0.6068,-0.2601 -1.3042,-0.3507 -1.8873,-0.394 -0.2522,-0.0197 -0.4807,-0.0197 -0.6777,-0.0197l-2.9629 0z"/>
  <path class="fil1" d="M88.7705 46.3614l0 25.0389 9.4206 0c0,0 4.598,0.1261 7.1315,-2.4192 2.0645,-2.0645 1.9188,-4.4522 1.9188,-4.4522 0,0 0.1457,-2.4901 -1.7612,-4.4089 -1.6273,-1.6272 -3.7115,-2.0646 -3.7115,-2.0646 0,0 0.9377,-0.4373 1.6666,-1.1583 0.3349,-0.3349 1.5327,-1.4263 1.5327,-4.0661 0,-2.6596 -1.7612,-4.1804 -1.7612,-4.1804 0,0 -1.9385,-2.2931 -6.308,-2.2931l-8.1283 0.0039zm-9.6846 -4.8698l36.9338 0 0 34.7549 -36.9338 0.004 0 -34.7589z"/>
  <polygon class="fil1" points="51.5215,110.336 32.7275,110.336 32.7275,100.466 81.2332,100.466 81.2332,110.336 62.4353,110.336 62.4353,161.785 51.5215,161.785 "/>
  <polygon class="fil1" points="92.2298,100.466 104.176,100.466 115.704,144.645 115.874,144.645 129.644,100.466 140.381,100.466 153.891,144.645 154.069,144.645 166.109,100.466 177.212,100.466 159.352,161.792 148.97,161.792 134.751,115.103 134.585,115.103 120.377,161.792 110.326,161.792 "/>
  <path class="fil1" d="M214.449 98.9017c19.1407,-0.3428 32.6392,12.4781 32.6392,32.1388 0,19.1486 -13.4985,31.9615 -32.6392,32.3161 -18.9003,0 -32.4106,-12.8129 -32.4106,-31.9615 -0.0119,-19.6725 13.5103,-32.4934 32.4106,-32.4934m0.0828 54.5734c12.7302,0 21.1185,-9.6965 21.1185,-22.7892 0,-12.2062 -8.4041,-21.9144 -21.1185,-21.9144 -12.6436,0 -21.0595,9.7043 -21.0595,21.9144 0,13.1046 8.412,22.7892 21.0595,22.7892z"/>
 </g>
</svg>
