<?xml version="1.0" encoding="UTF-8"?>
<svg width="450" height="450" version="1.1" xmlns="http://www.w3.org/2000/svg">
	<path d="m0 0h450v450h-450z" fill="#b90005"/>
	<g fill="#fff">
		<path d="m104.22 147.09v69.246h69.272v-69.246zm48.302 48.833c-1.2566 1.7272-3.063 3.0619-5.0265 3.847-2.5133 0.94212-5.1836 1.4132-7.854 1.3347h-15.629v-38.863h14.608c4.3197 0 7.6183 0.86361 9.9745 2.5908 2.3562 1.7272 3.5343 4.2396 3.5343 7.4585 0.0785 1.7272-0.39271 3.3759-1.2566 4.7891-0.94247 1.4132-2.1991 2.5123-3.7699 3.2189 2.1206 0.62808 3.927 1.8842 5.2621 3.6115 1.2566 1.7272 1.885 3.847 1.8064 6.0453 0.15711 2.1198-0.47124 4.2396-1.6493 5.9668zm-9.896-19c1.0996-0.94213 1.7279-2.2768 1.6493-3.7685 0-3.0619-2.1206-4.6321-6.2832-4.6321h-5.969v9.6568h5.969c1.9635 0.0785 3.5343-0.39254 4.6338-1.2562zm-3.6914 7.4585h-6.99v10.52h6.9115c2.3562 0 4.1626-0.47106 5.4192-1.3347 1.2566-0.86362 1.9635-2.2768 1.885-3.847 0-3.6115-2.4347-5.4172-7.2256-5.3387zm51.836-37.292v69.246h69.272v-69.246zm48.302 48.833c-1.2566 1.7272-3.063 3.0619-5.0265 3.847-2.5133 0.94212-5.1836 1.4132-7.9325 1.3347h-15.551v-38.863h14.608c4.3197 0 7.6183 0.86361 10.053 2.5908 2.3562 1.7272 3.5343 4.2396 3.5343 7.4585 0.0785 1.7272-0.39272 3.3759-1.2566 4.7891-0.94247 1.4132-2.1991 2.5123-3.7699 3.2189 2.1206 0.62808 3.927 1.8842 5.2621 3.6115 1.2566 1.7272 1.885 3.847 1.8064 6.0453 0.0785 2.1198-0.54978 4.2396-1.7279 5.9668zm-9.896-19c1.0996-0.94213 1.7279-2.2768 1.6493-3.7685 0-3.0619-2.1206-4.6321-6.2832-4.6321h-5.969v9.6568h5.969c1.9635 0.0785 3.5343-0.39254 4.6338-1.2562zm-3.6914 7.4585h-6.99v10.52h6.9115c2.3562 0 4.1626-0.47106 5.4192-1.3347 1.2566-0.86362 1.9635-2.2768 1.885-3.847 0-3.6115-2.3562-5.4172-7.2256-5.3387zm51.836 31.954h69.272v-69.246h-69.272zm49.715-17.665c-1.7279 0.94212-3.6914 1.6487-5.5763 2.1198-2.1991 0.54957-4.4767 0.7851-6.6758 0.7851-2.8274 0.0785-5.7334-0.39254-8.4037-1.3347-2.3562-0.86361-4.5553-2.1983-6.3617-3.9255-1.7279-1.8057-3.1416-3.9255-3.927-6.2808-0.94247-2.6694-1.4137-5.4957-1.4137-8.3221-0.0785-2.8264 0.47124-5.5742 1.4137-8.1651 0.94247-2.3553 2.2776-4.4751 4.084-6.2808 1.885-1.8057 4.084-3.1404 6.4402-4.004 2.6703-0.94213 5.5763-1.4132 8.4037-1.4132 2.042 0 4.084 0.23551 6.1261 0.62808 1.8849 0.39254 3.6914 1.0991 5.3407 1.9628v7.6155c-1.4922-1.0206-3.1416-1.7272-4.8694-2.2768-1.8064-0.54957-3.6914-0.7851-5.5763-0.7851-2.3562-0.0785-4.7124 0.47107-6.8329 1.4917-1.885 0.94212-3.3772 2.5123-4.3197 4.3181-1.0996 2.1198-1.5708 4.4751-1.4922 6.9089-0.0785 2.3553 0.39271 4.7891 1.4922 6.9089 0.94248 1.8842 2.4347 3.3759 4.2411 4.3181 2.1206 1.0206 4.3982 1.5702 6.7544 1.4917 3.927 0 7.7754-1.0991 11.153-3.1404z"/>
		<path d="m207.26 266.27v10.834h-25.447v14.917h30.238v10.834h-43.275v-60.61h41.704v10.834h-28.667v13.19z"/>
		<path d="m285.88 242.24h13.98c-2.3562 10.206-4.8694 20.413-7.5398 30.619-2.6703 10.049-5.4192 20.02-8.3252 29.991h-13.823c-3.8484-13.582-7.4612-27.322-10.996-40.982-3.3772 13.739-6.99 27.4-10.838 40.982h-13.823c-2.906-9.9708-5.6548-19.942-8.3252-29.991-2.6704-10.128-5.1836-20.334-7.5398-30.619h14.216c1.4137 7.851 2.906 15.702 4.4767 23.553 1.5708 7.851 3.2201 15.545 5.0265 23.161 3.7699-14.681 7.3827-29.363 10.76-44.123h12.723c3.3772 14.446 6.9115 28.813 10.681 43.181 1.7279-7.537 3.3772-15.152 4.948-22.689 1.5708-7.694 2.9845-15.388 4.3982-23.082z"/>
		<path d="m349.58 285.03c0 4.004-1.021 7.4585-2.9845 10.285-1.9635 2.8264-4.8694 5.0247-8.5608 6.5164-3.7699 1.4917-8.2466 2.2768-13.509 2.2768-3.2987 0-6.6758-0.39255-9.896-1.0992-3.2987-0.70659-6.4402-1.8842-9.3462-3.4544v-11.698c5.8119 3.6115 12.409 5.4957 19.242 5.4957 3.8484 0 6.7544-0.62808 8.7964-1.9628 1.8849-1.0992 3.063-3.2189 2.9845-5.4172 0-1.7272-0.47123-3.1404-1.4922-4.0825-1.0996-1.0991-2.4347-1.8842-3.927-2.3553-1.8064-0.62809-3.6128-1.1777-5.4978-1.6487-2.9845-0.70659-5.969-1.5702-8.7964-2.7479-2.2776-0.86361-4.4768-2.1198-6.4402-3.6115-1.7279-1.3347-3.063-3.0619-4.0055-5.0247-0.94247-2.1983-1.4137-4.6321-1.3352-6.9874 0-3.847 0.94247-7.1444 2.906-9.8923 2.1206-2.9049 4.948-5.1032 8.2466-6.3593 3.5343-1.4917 7.7754-2.2768 12.723-2.2768 3.2201 0 6.3617 0.39254 9.5033 1.0992 2.906 0.62808 5.7334 1.6487 8.4037 2.9834v11.541c-2.5918-1.5702-5.4978-2.7479-8.4037-3.533-3.063-0.86361-6.2832-1.2562-9.4247-1.2562-3.4557 0-6.1261 0.62808-8.011 1.8057-1.8064 1.0206-2.906 2.9834-2.8274 5.1032-0.0785 1.4132 0.39271 2.7479 1.3352 3.7685 1.0996 1.0206 2.4347 1.8057 3.8484 2.2768 1.6493 0.62809 3.6128 1.1777 5.8905 1.7272 2.906 0.70659 5.5763 1.5702 8.011 2.4338 2.3562 0.78511 4.5553 1.9628 6.5973 3.3759 1.885 1.3347 3.3772 3.1404 4.3982 5.1817 1.021 1.9628 1.5708 4.4751 1.5708 7.537z"/>
		<path d="m156.76 242.24v60.61h-13.195c-4.3982-7.0659-8.875-14.132-13.352-21.198-4.3982-6.9089-8.875-13.818-13.352-20.648v41.846h-12.645v-60.61h13.195c4.5553 6.8304 9.032 13.661 13.509 20.57 4.4767 6.9089 8.875 13.896 13.273 20.884v-41.453z"/>
	</g>
</svg>
