<svg xmlns="http://www.w3.org/2000/svg" height="5939" width="5939" ><path d="M16.1 2998.378V28.878H5955.1v5939H16.1zm4396 1666.463c52.809-3.706 94.959-12.443 133.5-27.671 78.81-31.139 131.689-86.865 149.973-158.051 10.969-42.707 11.154-94.561.485-136.421-10.098-39.621-34.35-74.857-69.662-101.215-30.966-23.114-59.002-37.358-102.795-52.225-35.221-11.958-57.164-18.37-104-30.394-87.976-22.585-117.296-34.673-140.536-57.94-6.996-7.005-9.389-10.259-13.269-18.046-8.264-16.587-11.858-37.851-9.733-57.588 2.659-24.695 10.078-41.397 25.431-57.25 21.446-22.145 51.123-35.598 93.606-42.434 12.03-1.936 17.42-2.174 49.5-2.192 28.485-.016 39.027.351 50.5 1.757 64.768 7.938 132.013 29.305 178.343 56.671 4.689 2.77 8.78 5.036 9.091 5.036s.565-29.471.565-65.491v-65.491l-9.81-4.923c-45.398-22.782-108.514-40.586-168.69-47.586-46.668-5.429-105.09-3.811-149.5 4.14-66.435 11.894-119.765 37.01-158.808 74.791-36.099 34.932-56.89 75.182-64.876 125.596-2.812 17.754-2.56 65.698.437 83.002 5.912 34.136 17.902 61.431 38.015 86.537 18.356 22.912 42.674 41.375 79.691 60.503 37.716 19.489 79.513 33.753 155.166 52.953 66.472 16.87 88.535 24.374 111.998 38.087 33.865 19.794 51.164 41.808 56.399 71.768 1.542 8.823 2.007 27.187.905 35.687-2.282 17.596-9.254 35.38-19.049 48.593-20.189 27.233-57.752 46.949-103.377 54.261-60.751 9.736-139.486 2.823-205.5-18.043-31.645-10.002-68.545-26.329-97.62-43.194-7.766-4.504-14.404-8.19-14.75-8.19s-.63 30.302-.63 67.337v67.337l19.032 9.237c60.332 29.282 128.343 46.378 204.468 51.398 12.232.807 62.342.576 75.5-.347zm-2914.752-325.164l.252-309.201 15.096 21.952c64.255 93.435 148.333 219.838 245.744 369.451l43.807 67 103.801 160.013 148.551-.513V3817.85h-141l-1 614.528-2.608-4-27.085-42-299.342-453-78.96-115.263c-.109-.145-33.679-.263-74.601-.263l-74.404-.001-.502 831.027h141.999zm1334.783 246.701v-62l-430.031-.505v-241.995h364v-124.995l-363.5-.505v-214l407.515-.505-.515-123.999-555-.02-.036 829.766c.379.999 58.709 1.201 289.021 1l288.546-.252v-62zm487.362 60.75c2.048-6.781 32.474-113.903 41.114-144.75l123.24-450.086c.161.161 4.355 15.546 9.32 34.189l100.909 367.397 53.276 186.5 2.325 8h155.914l1.313-4c.722-2.2 5.752-19.075 11.177-37.5 62.402-211.93 120.908-427.556 177.45-654l32.756-133.251c.296-1.656-3.908-1.753-77.186-1.777-61.831-.02-77.653.233-78.256 1.251-.416.702-3.471 14.777-6.789 31.277-32.095 159.589-74.999 354.53-107.514 488.5l-35.432 139.997c-1.295-.01-63.905-235.107-98.002-367.997l-64.562-258.5h-72.363c-63.299 0-72.464.188-73.167 1.5-.442.825-6.046 23.1-12.454 49.5l-89.032 350-63.766 234.5c-2.081-5.631-40.138-160.716-56.686-231-19.539-82.992-29.33-127.507-56.083-255l-37.446-183.762c-.232-.438-158.726-.293-159.165.146-1.044 1.044 49.31 205.572 74.707 303.442 43.956 169.39 88.126 327.587 138.116 494.675l9.403 31.25c.337.986 16.915 1.25 78.392 1.25 73.383 0 77.995-.103 78.492-1.75zM2438.1 3508.487c53.39-6.243 94.579-17.787 137.5-38.538 115.42-55.802 188.292-163.172 209.426-308.57 6.861-47.204 7.08-113.608.534-161.758-5.706-41.968-14.858-77.194-30.194-116.22-19.633-49.959-45.716-89.932-83.252-127.587-50.817-50.978-111.015-83.625-184.151-99.87-58.835-13.069-129.135-14.354-191.076-3.492-79.847 14.002-147.194 48.021-200.793 101.427-56.008 55.806-93.589 129.319-109.402 214-7.23 38.72-9.105 61.867-9.029 111.5.054 34.975.382 43.939 2.234 61 5.968 54.963 16.6 98.346 34.168 139.418 40.336 94.3 107.021 161.053 199.849 200.051 36.219 15.216 78.026 25.11 124.686 29.506 20.121 1.896 80.364 1.372 99.5-.866zm-77-126.197l-13-1.464c-53.084-5.931-96.729-25.602-131.896-59.443-50.034-48.148-78.065-117.128-84.216-207.245-2.33-34.131-.225-86.1 4.689-115.759 7.65-46.178 23.521-89.05 45.164-122 46.691-71.085 124.783-107.774 218.063-102.451 37.993 2.168 66.888 9.306 96.697 23.885 56.998 27.878 96.599 74.875 119.706 142.065 25.76 74.903 27.477 183.991 4.16 264.31-18.266 62.919-55.136 114.24-103.715 144.367-25.61 15.882-58.113 27.054-92.651 31.845-10.883 1.51-54.84 2.829-63 1.89zm-1146.348 64.588l60.972-218 24.868-90.5 64.753-240c.64-2.868.524-3.252 11.322 37.5l70.776 260 55.715 197 27.441 95.75 1.579 5.25h155.801l2.494-8.25c29.877-98.816 86.999-302.105 123.005-437.75l97.66-385h-156l-.531 2.25c-.292 1.238-2.751 13.275-5.464 26.75-30.986 153.882-73.767 348.772-105.146 479l-38.389 152.825c-.254.253-.681-.166-.95-.932-1.123-3.199-43.323-160.221-54.93-204.393l-11.442-43.5-28.713-110.5-66.487-265.257-.949-2.257-144.537.513-3.241 13-24.715 99.5-45.522 179.5-18.53 71.5-73.114 272.711c-.165-.165-6.137-23.454-13.271-51.755-47.743-189.38-80.811-337.198-128.229-573.206l-9.192-45.75h-79.91c-75.637 0-79.882.094-79.388 1.75.287.963 5.521 22.675 11.632 48.25 61.369 256.867 132.76 521.04 210.59 779.256.5 1.658 4.886 1.742 78.633 1.5l78.104-.256zm1892.348-111.9v-158.9l82.25-.494 84.053-.85c2.015-.398 18.06 25.668 80.976 131.548l102.699 176.346 6.271 11.25h84.876l84.875-.452c0-.248-10.093-17.511-22.428-38.36-50.651-85.613-107.085-176.621-168.345-271.483l-22.099-35.058c.204-.144 5.547-2.413 11.872-5.042 99.457-41.334 152.532-124.899 148.688-234.106-1.391-39.504-8.834-72.378-23.096-102-11.508-23.902-22.635-39.624-41.057-58.012-43.141-43.061-101.478-69.22-180.534-80.952-33.448-4.964-30.729-4.895-208.25-5.266l-166.75-.348v831.077h146zm0-416.228v-139.128l80.75.539c91.825.613 101.058 1.192 133.203 8.356 64.148 14.296 99.962 48.234 108.535 102.849 4.216 26.856 2.35 55.116-5.149 78.012-3.018 9.213-8.008 19.598-13.215 27.498-4.568 6.931-15.941 18.974-23.124 24.486-21.246 16.304-54.404 27.912-94.206 32.978-21.472 2.733-46.556 3.479-118.044 3.508l-68.75.028zm1196 511.13v-63.998l-408.5-.505-.503-702.5H3746.1v414.833l.667 415.5c.367.367 125.692.667 278.5.667H4303.1zm465.491 62.962c101.258-5.106 181.286-32.629 246.009-84.608 14.274-11.463 37.732-34.922 48.855-48.856 27.759-34.774 49.746-75.987 64.284-120.5 30.851-94.458 31.133-226.939.684-321.447-13.687-42.482-37.112-86.649-63.407-119.553-10.854-13.582-31.706-34.954-44.225-45.328-56.872-47.126-125.591-75.17-209.691-85.572-31.35-3.878-42.836-4.1-212.08-4.1H4434.1v831l157.25-.014 177.241-1.022zM4582.1 3078.388v-289.624l92.75.395c97.968.417 96.383.349 123.25 5.267 96.961 17.745 162.118 78.937 186.866 175.496 8.875 34.626 11.559 59.142 11.601 105.956.033 36.37-.7 48.177-4.562 73.5-17.912 117.449-84.561 190.657-192.906 211.891-29.562 5.794-31.162 5.873-127.75 6.325l-89.25.418zm-2274-1402.01v-492.5h-1044v985h1044zm-769 .036v-353.536h123.78l135.75 1.484c99.651 12.356 164.362 56.731 188.42 129.21 7.248 21.835 9.538 38.262 8.756 62.806-.814 25.536-5.381 44.885-15.238 64.547-13.502 26.936-37.734 52.198-64.78 67.534-4.771 2.706-8.675 5.144-8.675 5.419s4.314 1.746 9.587 3.269c39.632 11.445 75.134 32.588 98.451 58.631 15.28 17.066 29.36 41.538 36.401 63.266 6.359 19.624 8.038 30.758 8.044 53.334.01 21.304-1.056 31.248-5.178 48.5-16.862 70.585-73.412 119.257-162.817 140.138-7.15 1.67-20.425 4.217-29.5 5.661l-16.5 2.624-306.5.65zm287.203 243.022c49.252-6.11 84.05-27.764 97.396-60.609 4.746-11.68 6.669-22.31 6.684-36.948.012-11.765-.328-14.63-2.644-22.297-4.805-15.904-12.371-28.401-23.775-39.268-15.601-14.866-35.394-24.156-63.159-29.641-10.922-2.158-13.299-2.222-93.956-2.552l-82.75-.339v193.096h75.288c59.545 0 77.719-.302 86.915-1.442zm-57.714-305.075c20.442-3.081 40.219-9.868 55.806-19.15 10.437-6.215 24.912-20.379 30.489-29.833 14.444-24.482 16.379-57.831 4.756-81.976-11.762-24.435-33.967-39.945-68.252-47.674-9.366-2.112-12.325-2.223-68.539-2.587l-58.75-.38v183.116l47.25-.01c36.964 0 49.425-.334 57.239-1.512zm1744.262 61.767l.251-492.25H2468.1v985.002l1044.5-.502zm-769.751.254V1322.82l128.75.314c141.047.344 130.515-.071 162.246 6.394 53.67 10.935 98.113 34.838 125.544 67.524 19.076 22.729 30.97 47.367 37.63 77.946 1.988 9.13 2.265 13.268 2.295 34.38.038 26.388-.844 33.227-6.641 51.464-7.387 23.237-18.403 40.783-37.742 60.11-13.248 13.24-26.032 22.969-39.332 29.935-2.613 1.368-4.744 2.713-4.736 2.989s5.07 1.988 11.25 3.806c36.668 10.782 66.149 27.56 89.857 51.139 25.919 25.777 40.82 53.45 49.03 91.057 2.635 12.071 3.577 38.352 1.935 54.03-5.445 51.998-29.249 94.733-69.175 124.185-33.275 24.546-73.858 39.961-127.91 48.582l-16.5 2.632-306.5.638zm296 242.126c46.03-9.162 73.778-27.225 87.522-56.973 7.351-15.911 10.281-38.653 7.04-54.649-8.914-43.991-45.118-71.718-101.773-77.942-6.03-.663-38.906-1.067-86.75-1.067H2868.1v193.108l81.25-.393c71.247-.344 82.296-.601 89.75-2.084zm-57.5-305.517c29.885-6.659 51.36-17.632 66.789-34.126 15.47-16.538 21.568-32.042 22.44-57.051.441-12.639.227-15.673-1.617-22.964-8.454-33.432-32.909-54.307-74.077-63.234-8.894-1.928-13.491-2.094-68.285-2.461l-58.75-.394v183.246l51.75-.394c49.061-.373 52.27-.509 61.75-2.622zm1735.251 63.137l.251-492.25H3672.1v491.833l.668 492.501c.367.367 235.38.555 522.25.417l521.582-.251zM4203.1 2038.82c-75.831-6.477-146.153-26.437-195.5-55.489-59.609-35.094-108.945-87.523-139.294-148.025-29.608-59.025-43.891-137.811-35.772-197.316 10.434-76.474 41.898-144.854 91.2-198.208 46.532-50.356 106.237-85.543 185.367-109.247 40.07-12.003 102.023-18.252 156.15-15.749 13.629.63 29.859 1.614 36.065 2.187 44.25 4.083 114.765 22.601 174.785 45.899l27 10.437v64.784l-.489 64.784c-.269 0-5.106-2.56-10.75-5.688-14.204-7.874-43.554-21.926-59.995-28.725-62.012-25.643-120.348-39.958-178.086-43.7-49.401-3.202-106.282 7.872-153.944 29.972-12.797 5.934-28.637 15.233-41.736 24.503-14.397 10.189-38.788 34.093-49.218 48.235-28.845 39.11-44.925 86.977-48.341 143.904-2.104 35.052 9.169 84.056 27.642 120.162 18.915 36.97 47.757 68.414 82.833 90.307 60.731 37.905 155.965 54.105 235.084 39.989 63.387-11.309 126.012-35.861 190.257-74.587l13.757-8.293-.514 135.2-12.5 6.319c-58.118 29.379-127.062 49.001-200.419 57.041-16.603 1.82-77.593 2.67-93.581 1.304z" fill="#b90005"/><path d="M4336.6 4665.188c-76.124-5.02-144.135-22.117-204.468-51.398l-19.032-9.237v-67.337l.63-67.337c.346 0 6.984 3.685 14.75 8.19 29.075 16.864 65.975 33.191 97.62 43.194 66.014 20.866 144.749 27.779 205.5 18.043 37.728-6.046 68.782-19.871 90.779-40.414 22.352-20.874 33.243-48.136 32.211-80.627-.885-27.855-8.118-46.108-25.786-65.068-7.569-8.123-17.866-15.89-32.082-24.199-23.462-13.714-45.525-21.217-111.998-38.087-101.405-25.736-152.168-46.028-199.248-79.647-32.393-23.13-57.088-57.935-68.007-95.846-6.528-22.666-7.783-33.329-7.829-66.538-.046-33.024.904-41.945 6.997-65.718 19.562-76.325 79.555-134.698 167.724-163.193 64.868-20.964 149.347-25.587 228.739-12.516 49.601 8.166 102.395 24.556 140.19 43.522l9.81 4.923v65.491l-.565 65.491c-.311 0-4.402-2.266-9.091-5.036-46.33-27.365-113.575-48.733-178.343-56.671-11.473-1.406-22.015-1.773-50.5-1.757-39.922.022-50.091 1.034-75 7.461-48.311 12.464-81.255 40.356-90.538 76.651-6.501 25.42-3.957 53.894 6.734 75.352 8.141 16.341 24.49 30.643 49.028 42.889 17.051 8.51 51.974 19.541 104.776 33.096 59.926 15.384 109.751 30.908 138 42.998 45.649 19.537 85.536 48.256 107.289 77.252 25.917 34.547 37.002 69.14 38.859 121.264 2.588 72.671-19.902 133.242-66.31 178.59-52.269 51.075-125.126 78.84-225.337 85.873-13.158.923-63.268 1.154-75.5.347zm-2981.251-431.823l.251-415.513 74.404.001 74.601.263c.109.144 13.017 18.938 28.685 41.763 100.899 146.99 243.243 361.351 349.617 526.5l29.693 46 1-614.528h141v830.528l-148.551.513-6.306-9.756-97.496-150.256-43.807-67-245.744-369.451-15.096-21.952-.503 618.403h-141.999zm899.215 414.265c-.261-.688-.36-187.667-.219-415.509l.256-414.257 555 .02.515 123.999-407.515.505v214l363.5.505v124.995h-364v241.995l430.031.505v124l-288.546.252c-230.313.201-288.642-.001-289.021-1zm908.046 0c-.235-.687-4.467-14.75-9.403-31.25-49.99-167.087-94.16-325.285-138.116-494.675l-74.707-303.442c.439-.439 158.933-.583 159.165-.146.076.144 2.92 14.272 6.319 31.396l72.239 342.866 71.657 295.5c.745 2.016 36.052-127.827 63.766-234.5l101.486-399.5c.703-1.312 9.867-1.5 73.167-1.5h72.363l5.889 24 58.674 234.5 98.002 367.997c.512 0 23.448-90.618 35.432-139.997 32.515-133.97 75.419-328.911 107.514-488.5 3.318-16.5 6.373-30.575 6.789-31.277.603-1.019 16.425-1.272 78.256-1.251 73.279.024 77.483.121 77.186 1.777-.746 4.166-14.814 61.396-32.756 133.251-56.542 226.444-115.047 442.07-177.45 654l-11.177 37.5-1.313 4h-155.914l-2.325-8-23.222-81-140.283-507.086c-.161-.161-5.849 20.493-12.641 45.897l-110.599 404.189-41.114 144.75c-.497 1.647-5.109 1.75-78.492 1.75-61.476 0-78.054-.264-78.392-1.25zM2338.6 3509.352c-46.66-4.397-88.467-14.29-124.686-29.506-92.828-38.998-159.513-105.751-199.849-200.051-17.568-41.072-28.2-84.455-34.168-139.418-1.852-17.061-2.181-26.025-2.234-61-.076-49.633 1.798-72.78 9.029-111.5 10.973-58.761 33.004-113.424 64.487-160 45.477-67.279 112.068-116.912 190.421-141.93 88.258-28.18 200.104-27.774 286.838 1.042 55.178 18.332 102.682 47.7 143.675 88.822 37.536 37.655 63.619 77.628 83.252 127.587 15.337 39.027 24.489 74.252 30.194 116.22 6.546 48.15 6.327 114.555-.534 161.758-19.21 132.163-81.7 233.835-179.926 292.739-49.175 29.489-102.391 46.815-167 54.369-19.136 2.238-79.379 2.762-99.5.866zm85.5-128.953c54.127-7.509 96.618-27.937 132.014-63.465 39.122-39.269 64.793-94.299 74.97-160.712 9.605-62.682 6.934-135.081-7.005-189.845-20.56-80.778-63.159-137.106-127.479-168.565-29.809-14.58-58.704-21.717-96.697-23.885-73.734-4.208-138.213 17.699-185.201 62.924-20.298 19.536-35.245 40.31-48.587 67.527-17.36 35.413-26.928 69.659-32.55 116.5-2.177 18.141-3.076 71.3-1.577 93.259 6.152 90.117 34.182 159.097 84.216 207.245 35.167 33.842 78.813 53.512 131.896 59.443l13 1.464c8.16.939 52.117-.38 63-1.89zm-1379.391 111.734c-77.83-258.216-149.221-522.389-210.59-779.256l-11.632-48.25c-.494-1.656 3.751-1.75 79.388-1.75h79.91l9.192 45.75c47.419 236.008 80.486 383.826 128.229 573.206l13.271 51.755c.782.782 48.026-175.438 73.114-272.711l18.53-71.5 45.522-179.5 27.956-112.5 144.537-.513.949 2.257c.522 1.241 4.817 18.232 9.546 37.757l56.941 227.5 28.713 110.5 11.442 43.5 54.93 204.393c.269.766.697 1.186.95.932.702-.702 26.019-101.489 38.389-152.825 31.379-130.228 74.16-325.118 105.146-479l5.464-26.75.531-2.25h156l-.528 2.25c-17.889 76.284-63.662 256.655-97.133 382.75l-125.499 446h-155.801l-1.579-5.25-27.441-95.75-55.715-197-70.776-260c-10.798-40.752-10.682-40.368-11.322-37.5-1.865 8.351-46.667 174.406-64.753 240l-24.868 90.5-60.972 218-13.305 46.5-78.104.256c-73.747.242-78.134.158-78.633-1.5zM2961.1 3078.339v-415.539l166.75.348c177.521.37 174.802.302 208.25 5.266 79.056 11.732 137.393 37.89 180.534 80.952 34.887 34.823 54.789 76.929 61.978 131.126 3.554 26.793 2.934 60.704-1.597 87.386-13.7 80.674-64.44 142.16-144.916 175.606l-11.872 5.042c-.204.144 9.74 15.92 22.099 35.058 61.26 94.862 117.694 185.87 168.345 271.483l22.428 38.36c0 .249-38.194.452-84.875.452h-84.876l-6.271-11.25c-23.909-42.888-49.126-86.189-102.699-176.346-62.916-105.879-78.961-131.945-80.976-131.548-.992.196-38.816.578-84.053.85l-82.25.494v317.8h-146zm301.794-21.45c38.782-1.974 66.862-7.382 93.471-17.999 29.256-11.674 49.508-29.49 61.967-54.512 17.906-35.962 18.012-92.431.242-129.16-16.153-33.386-49.076-55.904-97.522-66.701-32.146-7.164-41.378-7.743-133.203-8.356l-80.75-.539v278.256l68.75-.028 87.044-.96zm483.872 436.322c-.367-.367-.667-187.342-.667-415.5v-414.833h147.997l.503 702.5 408.5.505v127.995h-277.833c-152.808 0-278.133-.3-278.5-.667zm687.333-414.833v-415.5h164.92l180.25 1.029c111.035 7.456 200.724 44.823 264.369 110.143 27.17 27.885 47.563 57.633 66.036 96.328 27.42 57.437 41.431 127.119 41.419 206-.016 104.403-23.359 189.955-71.078 260.5-11.948 17.663-23.943 32.104-39.878 48.011-66.915 66.794-155.762 102.115-271.546 107.954-11.64.587-85.68 1.014-177.241 1.022l-157.25.014zm339 287.167c48.51-6.328 86.835-19.778 119.064-41.784 54.17-36.987 87.863-95.835 99.842-174.384 3.862-25.323 4.595-37.13 4.562-73.5-.042-46.814-2.727-71.33-11.601-105.956-24.749-96.559-89.905-157.751-186.866-175.496-26.867-4.917-25.282-4.849-123.25-5.267l-92.75-.395v579.247l89.25-.418c74.984-.351 91.248-.679 101.75-2.049zm-3509-1689.167v-492.5h1044v985h-1044zm598 350.298c37.937-6.034 66.993-14.803 94.5-28.518 45.214-22.545 76.221-55.41 91.779-97.28 8.029-21.608 11.223-41.114 11.216-68.5 0-16.87-.364-21.774-2.296-31.334-6.421-31.761-21.431-62.128-42.148-85.266-23.317-26.043-58.819-47.186-98.451-58.631-5.273-1.523-9.587-2.994-9.587-3.269s3.904-2.714 8.675-5.419c27.046-15.336 51.278-40.598 64.78-67.534 9.856-19.662 14.424-39.011 15.238-64.547.782-24.544-1.508-40.971-8.756-62.806-22.046-66.414-79.726-110.289-165.267-125.709-27.789-5.009-26.988-4.984-158.903-4.984H1539.1v707.072l306.5-.65zm-198-202.346v-96.548l82.75.339c80.656.33 83.034.395 93.956 2.552 47.181 9.321 75.78 31.991 86.934 68.909 2.316 7.666 2.656 10.532 2.644 22.297-.015 14.639-1.938 25.268-6.684 36.948-11.339 27.905-38.333 47.901-77.095 57.107-19.242 4.57-27.367 4.945-107.216 4.945H1664.1zm0-300.01v-91.558l58.75.38c56.214.363 59.173.475 68.539 2.587 27.537 6.208 47.258 17.4 59.775 33.923 10.747 14.187 15.917 29.884 15.929 48.366.017 26.466-7.811 45.948-25.46 63.361-13.73 13.546-31.295 23.024-53.74 28.998-18.754 4.992-25.689 5.49-76.543 5.496l-47.25.01v-91.558zm804 152.059v-492.501h1045.002l-.502 984.5-1044.5.502zm598 350.296c70.785-11.29 119.921-34.621 155.325-73.753 22.97-25.389 37.71-60.338 41.76-99.014 1.642-15.677.7-41.958-1.935-54.03-5.992-27.447-16.189-50.638-31.311-71.206-8.44-11.48-27.375-30.014-39.339-38.506-19.74-14.012-42.884-25.029-68.236-32.484-6.18-1.817-11.242-3.53-11.25-3.806s2.124-1.621 4.736-2.989c13.3-6.966 26.084-16.695 39.332-29.935 19.339-19.327 30.355-36.873 37.742-60.11 5.797-18.236 6.679-25.075 6.641-51.464-.031-21.112-.307-25.249-2.295-34.38-16.729-76.812-73.175-127.133-163.174-145.47-31.73-6.465-21.199-6.05-162.246-6.394l-128.75-.314v707.124l306.5-.638zm-198-202.243v-96.554h77.039l86.75 1.067c56.655 6.224 92.859 33.951 101.773 77.942 3.241 15.996.312 38.738-7.04 54.649-11.75 25.431-36.226 43.965-69.774 52.835-22.615 5.979-19.448 5.796-107.498 6.221l-81.25.393zm0-300.047v-91.623l58.75.394c54.795.367 59.392.533 68.285 2.461 41.168 8.927 65.623 29.802 74.077 63.234 1.844 7.291 2.057 10.326 1.617 22.964-.872 25.009-6.97 40.513-22.44 57.051-15.429 16.494-36.904 27.466-66.789 34.126-9.48 2.113-12.689 2.249-61.75 2.622l-51.75.394zm804.668 643.828c-.367-.367-.668-221.993-.668-492.501v-491.833h1045.002l-.502 984.5-521.582.251c-286.87.138-521.883-.05-522.25-.417zm623.913-130.696c73.357-8.04 142.302-27.663 200.419-57.041l12.5-6.319.514-135.2-13.757 8.293c-84.902 51.178-172.737 79.571-246.307 79.619-68.284.044-132.842-16.19-179.034-45.02-21.086-13.161-46.224-35.72-59.631-53.513-29.067-38.576-45.804-82.789-50.331-132.956-3.268-36.219 6.01-87.288 22.707-124.978 11.314-25.539 26.074-46.587 47.704-68.022 36.428-36.1 79.889-58.09 141.136-71.411 11.499-2.501 30.295-5.043 45.802-6.193 41.228-3.059 100.104 5.528 155.321 22.655 39.91 12.379 84.851 31.309 118.138 49.761 5.644 3.129 10.481 5.688 10.75 5.688s.489-29.153.489-64.784v-64.784l-4.25-1.628-22.75-8.809c-60.019-23.298-130.534-41.815-174.785-45.899-68.618-6.332-143.421-1.054-192.215 13.562-116.078 34.771-194.383 96.706-241.282 190.843-27.195 54.586-41.243 121-36.804 174 6.672 79.653 31.517 144.832 76.808 201.5 38.841 48.597 92.943 88.842 146.278 108.814 48.947 18.329 94.621 28.484 149 33.128 15.987 1.366 76.978.515 93.581-1.304z" fill="#fff"/></svg>