<?xml version="1.0" encoding="UTF-8" standalone="no"?>
<!-- Created with Inkscape (http://www.inkscape.org/) -->

<svg
   xmlns:dc="http://purl.org/dc/elements/1.1/"
   xmlns:cc="http://creativecommons.org/ns#"
   xmlns:rdf="http://www.w3.org/1999/02/22-rdf-syntax-ns#"
   xmlns:svg="http://www.w3.org/2000/svg"
   xmlns="http://www.w3.org/2000/svg"
   xmlns:sodipodi="http://sodipodi.sourceforge.net/DTD/sodipodi-0.dtd"
   xmlns:inkscape="http://www.inkscape.org/namespaces/inkscape"
   id="svg3337"
   version="1.1"
   inkscape:version="0.91pre2 r13516"
   width="268"
   height="200"
   viewBox="0 0 268 200"
   sodipodi:docname="BBC_Two_HD.svg">
  <metadata
     id="metadata3343">
    <rdf:RDF>
      <cc:Work
         rdf:about="">
        <dc:format>image/svg+xml</dc:format>
        <dc:type
           rdf:resource="http://purl.org/dc/dcmitype/StillImage" />
        <dc:title></dc:title>
      </cc:Work>
    </rdf:RDF>
  </metadata>
  <defs
     id="defs3341" />
  <sodipodi:namedview
     pagecolor="#ffffff"
     bordercolor="#666666"
     borderopacity="1"
     objecttolerance="10"
     gridtolerance="10"
     guidetolerance="10"
     inkscape:pageopacity="0"
     inkscape:pageshadow="2"
     inkscape:window-width="1920"
     inkscape:window-height="1017"
     id="namedview3339"
     showgrid="false"
     inkscape:zoom="3.6316916"
     inkscape:cx="202.57442"
     inkscape:cy="109.25264"
     inkscape:window-x="-8"
     inkscape:window-y="-8"
     inkscape:window-maximized="1"
     inkscape:current-layer="svg3337" />
  <path
     inkscape:connector-curvature="0"
     id="path3358"
     d="m 6.6084944,100.87264 0,-93.6202844 127.8419856,0 127.842,0 0,93.6202844 0,93.62026 -127.842,0 -127.8419856,0 0,-93.62026 z"
     style="fill:#fbfcfc" />
  <path
     inkscape:connector-curvature="0"
     id="path3348"
     d="m 6.3331403,100.84728 0,-93.3195701 127.8419797,0 127.842,0 0,93.3195701 0,93.31958 -127.842,0 -127.8419797,0 0,-93.31958 z M 205.5445,154.28037 c 2.91117,-0.62486 4.98464,-1.32517 7.43324,-2.51056 2.89617,-1.40207 5.25156,-3.11602 7.53746,-5.48481 3.607,-3.73778 5.75363,-7.85641 6.99759,-13.42584 0.37625,-1.68463 0.43354,-2.55035 0.43356,-6.55196 4e-5,-4.98604 -0.25503,-6.84973 -1.41293,-10.32429 -3.17364,-9.52307 -10.7861,-15.90415 -21.07214,-17.663552 -2.1648,-0.37029 -3.00372,-0.40991 -6.7659,-0.31953 -3.31917,0.0797 -4.71532,0.1973 -6.14649,0.51756 -5.80729,1.29952 -9.95502,3.521792 -13.85452,7.422902 -3.92068,3.92231 -6.22117,8.36806 -7.40332,14.3071 -0.64778,3.25445 -0.65363,9.2902 -0.0121,12.47963 2.40045,11.93384 10.70842,19.8428 22.94747,21.84535 2.59719,0.42495 8.71298,0.26717 11.31806,-0.292 z m -10.24492,-8.80691 c -2.94509,-0.65105 -5.37191,-1.83955 -7.77546,-3.80791 -2.33267,-1.91032 -4.74686,-6.01126 -5.73965,-9.74986 -0.47714,-1.79675 -0.5327,-2.36671 -0.54679,-5.60849 -0.0135,-3.11399 0.0459,-3.8523 0.43343,-5.38759 1.86274,-7.37927 7.17128,-12.47749 14.31435,-13.74724 1.68311,-0.29919 5.41233,-0.26083 7.13685,0.0734 6.9609,1.34908 12.0412,6.19756 13.98624,13.348 0.41346,1.52003 0.4623,2.12607 0.45242,5.6132 -0.0102,3.59518 -0.0543,4.07023 -0.5492,5.91391 -0.66518,2.47817 -2.19497,5.59406 -3.58993,7.31201 -2.23496,2.75245 -5.63165,4.95062 -9.03349,5.84601 -2.32005,0.61067 -6.77513,0.70603 -9.08877,0.19457 z M 66.010252,130.92934 c 0.04,-17.64791 0.10396,-22.47542 0.29963,-22.60011 0.13685,-0.0872 3.81229,-0.15996 8.16763,-0.16164 7.03485,-0.003 7.93235,-0.0385 8.04007,-0.32018 0.0667,-0.17441 0.12125,-2.06243 0.12125,-4.19559 0,-3.2586 -0.0502,-3.928842 -0.3139,-4.193522 -0.28135,-0.28236 -2.47312,-0.31503 -21.13565,-0.31503 -16.359602,0 -20.895048,0.0538 -21.163766,0.25099 -0.307172,0.22541 -0.336499,0.679782 -0.287871,4.460502 l 0.05414,4.20952 8.09,0.10023 8.090001,0.10023 0.102028,22.55307 c 0.05612,12.40419 0.123534,22.57722 0.149815,22.60674 0.02628,0.0295 2.227593,0.0295 4.891803,0 l 4.84401,-0.0537 0.0508,-22.44153 z m 50.987128,22.09071 c 0.10572,-0.24809 2.85495,-9.24676 6.1094,-19.99705 3.25446,-10.75029 5.99609,-19.68131 6.09254,-19.8467 0.1467,-0.25158 0.19471,-0.2352 0.29386,0.10024 0.0652,0.22052 2.83223,9.33196 6.149,20.24764 l 6.03047,19.84669 4.64347,0.0538 4.64347,0.0538 0.20605,-0.45476 c 0.11333,-0.25011 3.65908,-12.358 7.87944,-26.9064 5.70357,-19.6613 7.61795,-26.518722 7.45739,-26.712862 -0.16599,-0.20073 -1.26269,-0.26051 -4.73594,-0.25814 -2.48595,0.002 -4.64367,0.0817 -4.79493,0.17788 -0.15798,0.10043 -2.47182,8.258262 -5.43706,19.169182 -2.83913,10.44687 -5.20768,19.04011 -5.26344,19.09608 -0.13357,0.13404 0.43681,1.95872 -6.00192,-19.20092 -3.65435,-12.00933 -5.82343,-18.834162 -6.03693,-18.994712 -0.4742,-0.35659 -8.83426,-0.35659 -9.28971,0 -0.19087,0.14943 -2.67815,7.857672 -6.16155,19.094952 -3.21282,10.36438 -5.87252,18.88193 -5.91047,18.92786 -0.038,0.0459 -0.12559,0.0267 -0.1948,-0.0427 -0.0692,-0.0694 -2.32349,-8.58698 -5.00953,-18.92786 -3.24436,-12.49037 -4.99182,-18.885722 -5.20581,-19.052202 -0.23696,-0.18435 -1.57498,-0.25059 -5.061668,-0.25059 -2.60675,0 -4.88174,0.0547 -5.05552,0.12169 -0.17378,0.0669 -0.31597,0.2364 -0.31597,0.3766 0,0.23657 14.813088,50.763362 15.502188,52.877312 l 0.31042,0.95224 4.48266,0 c 4.45858,0 4.48372,-0.003 4.67489,-0.45106 z M 240.14524,97.430548 c 2.03885,-0.53296 3.67787,-1.47777 5.20044,-2.9978 2.23397,-2.23023 3.27854,-4.719 3.28503,-7.82696 0.008,-3.99571 -2.38623,-7.98701 -5.78989,-9.65057 -2.15721,-1.05435 -3.72787,-1.267139 -9.35304,-1.267139 -5.63763,0 -5.07916,-0.1463 -7.17653,1.879979 l -1.0487,1.01316 0,2.94741 c 0,1.62108 -0.0545,3.09011 -0.12125,3.26451 -0.10443,0.27312 -0.62657,0.31711 -3.76423,0.31711 -2.00365,0 -4.60081,-0.0588 -5.77146,-0.1307 l -2.1285,-0.1307 0,-4.16305 c 0,-2.28967 -0.0545,-4.30574 -0.12124,-4.48015 -0.21256,-0.555926 -0.6361,-0.34945 -2.07231,1.01025 l -1.402,1.32735 0,7.9625 0,7.9625 1.49489,1.58574 c 2.0716,2.1975 2.10066,2.15123 2.10066,-3.34395 l 0,-4.1514 2.44698,-0.13356 c 1.34584,-0.0735 3.97508,-0.10509 5.84278,-0.0703 l 3.3958,0.0633 0.0554,2.98325 0.0554,2.98325 1.33811,1.50049 c 0.73597,0.82527 1.52002,1.57453 1.74234,1.66501 0.22236,0.0905 2.70001,0.17024 5.50593,0.17723 3.98646,0.01 5.3604,-0.0549 6.28533,-0.29671 z m -11.28714,-10.69523 0,-10.07218 0.54933,0.39627 c 0.30212,0.21796 0.81333,0.67516 1.13601,1.01601 l 0.58669,0.61974 3.10874,10e-4 c 3.59462,0.001 5.01754,0.19195 6.49271,0.86973 2.95791,1.35905 4.44388,3.9816 4.26614,7.52921 -0.17525,3.49755 -2.07268,6.07473 -5.21244,7.07978 -0.97959,0.31357 -2.01319,0.41832 -4.93458,0.50006 -3.64995,0.10213 -3.70281,0.10995 -4.2947,0.63583 -0.32959,0.29283 -0.84645,0.74936 -1.14857,1.0145 l -0.54933,0.48207 0,-10.07219 z m -116.17277,-8.56279 c 0.2843,-0.10949 0.31597,-1.65442 0.31597,-15.414872 0,-13.760452 -0.0316,-15.305383 -0.31597,-15.41487 -0.41289,-0.159015 -31.514928,-0.159015 -31.927818,0 -0.2843,0.109489 -0.31597,1.654835 -0.31597,15.419612 0,12.050768 0.053,15.31939 0.24969,15.39904 0.35987,0.14574 31.616348,0.15657 31.994098,0.0111 z M 89.330052,73.453036 c -0.0568,-0.14897 -0.08,-5.052104 -0.0514,-10.895851 l 0.0519,-10.624999 4.19481,0.01363 c 3.78004,0.01229 4.3254,0.0576 5.51545,0.458156 2.514568,0.846378 3.966978,2.730864 3.970868,5.152165 0.002,1.510019 -0.69627,3.040011 -1.70223,3.727504 -0.37957,0.259404 -0.69074,0.577795 -0.69149,0.707537 -8e-4,0.129741 0.48452,0.459141 1.07837,0.731994 2.69877,1.23998 3.94021,4.034976 3.00963,6.775907 -0.59732,1.759335 -2.13223,3.078348 -4.33626,3.726335 -1.483208,0.436067 -10.886158,0.62993 -11.039658,0.227611 z m 9.71052,-3.285716 c 2.412908,-0.854384 3.050588,-3.313517 1.266828,-4.885312 -0.964608,-0.849995 -1.908538,-1.040947 -4.828178,-0.976732 l -2.55311,0.05616 -0.0558,2.796948 c -0.0307,1.538322 -0.0111,2.914059 0.0437,3.057193 0.15144,0.396054 4.97924,0.358031 6.12663,-0.04825 z m -1.25362,-9.69631 c 1.65544,-0.851071 2.09657,-3.190996 0.83944,-4.452657 -0.73484,-0.737485 -1.86675,-1.005674 -3.95271,-0.936538 l -1.74757,0.05792 -0.056,2.696254 c -0.0308,1.482937 -0.006,2.825545 0.0539,2.983569 0.18219,0.476485 3.75653,0.220302 4.86301,-0.348546 z m 52.252208,17.701518 c 0.2843,-0.10949 0.31597,-1.65442 0.31597,-15.414872 0,-13.760452 -0.0316,-15.305383 -0.31597,-15.41487 -0.41289,-0.159015 -31.51493,-0.159015 -31.92782,0 -0.2843,0.109489 -0.31597,1.654835 -0.31597,15.419612 0,12.050768 0.053,15.31939 0.24969,15.39904 0.35987,0.14574 31.61635,0.15657 31.9941,0.0111 z m -23.35528,-4.719492 c -0.0568,-0.14897 -0.08,-5.052104 -0.0515,-10.895851 l 0.0519,-10.624999 3.09617,-0.0574 c 5.11189,-0.09477 7.23779,0.33329 8.89128,1.790305 2.24257,1.97608 2.23795,6.083258 -0.009,7.618564 -0.37957,0.259403 -0.69074,0.577796 -0.69149,0.707537 -7.9e-4,0.12974 0.48452,0.459139 1.07838,0.731994 3.87226,1.779154 4.48887,6.741775 1.15479,9.293916 -1.67403,1.281417 -2.9264,1.520666 -8.47534,1.619107 -4.02741,0.07145 -4.96154,0.03753 -5.04575,-0.183172 z m 9.74682,-3.294721 c 1.10355,-0.37737 2.06623,-1.394802 2.25002,-2.37799 0.1939,-1.037275 -0.48504,-2.313473 -1.55925,-2.93093 -0.79579,-0.457419 -1.0365,-0.487965 -3.84523,-0.487965 l -2.9963,0 -0.0558,2.796948 c -0.0307,1.538323 -0.0111,2.91406 0.0436,3.057193 0.15349,0.401419 4.95199,0.356839 6.16293,-0.05725 z m -1.28992,-9.687305 c 1.65544,-0.851071 2.09657,-3.190996 0.83944,-4.452657 -0.73485,-0.737485 -1.86675,-1.005674 -3.95271,-0.936538 l -1.74757,0.05792 -0.056,2.696254 c -0.0308,1.482937 -0.007,2.825545 0.0538,2.983569 0.18219,0.476485 3.75653,0.220302 4.86301,-0.348546 z m 52.36843,17.626968 c 0.26202,-0.16623 0.29963,-2.09158 0.29963,-15.340322 0,-13.248744 -0.0376,-15.174094 -0.29963,-15.340324 -0.32858,-0.208459 -31.50798,-0.280993 -32.04404,-0.07455 -0.2843,0.109489 -0.31597,1.654835 -0.31597,15.419612 0,12.050768 0.053,15.319394 0.24969,15.399044 0.47763,0.19342 31.803,0.13151 32.11032,-0.0635 z m -18.17753,-4.525883 c -2.06845,-0.445849 -4.45696,-1.741631 -5.8777,-3.188687 -2.0708,-2.109179 -3.11119,-4.577941 -3.11119,-7.382613 0,-5.243296 3.36318,-9.417266 8.78913,-10.907963 2.05395,-0.564294 5.76422,-0.478357 8.18988,0.189695 1.04371,0.287448 2.23473,0.66572 2.64672,0.840605 l 0.74908,0.317971 0,1.801556 c 0,1.726289 -0.0917,2.018196 -0.50937,1.62115 -0.37884,-0.360137 -3.04841,-1.38261 -4.43805,-1.699815 -2.77926,-0.634402 -5.82922,-0.27198 -7.88466,0.936919 -1.30181,0.765652 -2.84257,2.549624 -3.36911,3.900927 -0.62526,1.60465 -0.62673,4.103825 -0.003,5.703077 1.89889,4.87161 8.56774,6.437484 14.73589,3.460048 0.81205,-0.391981 1.56458,-0.658028 1.67231,-0.591213 0.28891,0.179202 0.24394,2.968443 -0.0538,3.338873 -0.37287,0.463845 -2.66184,1.300177 -4.53391,1.65658 -2.0048,0.381674 -5.23833,0.383007 -7.00184,0.0029 z"
     style="fill:#317987" />
  <path
     inkscape:connector-curvature="0"
     id="path3346"
     d="m 6.0577873,100.24645 0,-93.2694482 127.8419827,0 127.84201,0 0,93.2694482 0,93.26946 -127.84201,0 -127.8419827,0 0,-93.26946 z M 202.04437,154.31233 c 16.16558,-1.65538 26.57225,-13.70515 25.87397,-29.95916 -0.26486,-6.1651 -1.90097,-11.39815 -4.96711,-15.88732 -2.96642,-4.3431 -7.88476,-7.959 -13.25648,-9.745979 -5.40955,-1.799573 -12.92853,-2.01409 -18.76545,-0.535407 -10.3328,2.617636 -17.59342,10.179566 -19.84362,20.667106 -2.18824,10.19874 0.3517,20.46033 6.70117,27.07333 2.327,2.42359 4.43862,3.97514 7.34961,5.40028 5.40545,2.64635 10.84725,3.60777 16.90791,2.98715 z m -5.22236,-9.2056 c -8.89248,-1.13165 -14.86479,-7.74086 -15.76458,-17.44577 -0.59415,-6.40838 1.45497,-12.38645 5.60431,-16.34995 2.92295,-2.79203 6.05564,-4.21376 10.40196,-4.7208 6.7082,-0.78258 13.34776,2.13415 16.93871,7.44107 5.11549,7.55998 4.29027,19.19301 -1.82704,25.75596 -1.33643,1.43379 -3.62856,3.09192 -5.3119,3.84262 -2.72183,1.21383 -7.07607,1.85424 -10.04146,1.47687 z M 65.776938,152.7331 c 0.138978,-0.26062 0.206781,-7.68778 0.206781,-22.65105 l 0,-22.2633 8.13994,-0.0523 8.139938,-0.0524 0,-4.51061 0,-4.510609 -21.361232,-0.051 c -16.957004,-0.04053 -21.394035,8e-4 -21.520337,0.20047 -0.08751,0.13833 -0.160483,2.112359 -0.162166,4.386739 -0.0024,3.21235 0.05661,4.18494 0.264306,4.35794 0.183761,0.15305 2.760237,0.23908 8.239814,0.27513 l 7.972452,0.0524 0.04937,22.3526 c 0.02716,12.29393 0.09175,22.46535 0.143546,22.60318 0.07173,0.19089 1.236221,0.25059 4.887482,0.25059 4.534573,0 4.804478,-0.0209 5.000098,-0.38776 z m 50.890092,0.13717 c 0.10709,-0.13783 2.871,-9.09139 6.14203,-19.89681 3.27102,-10.80543 6.01987,-19.78156 6.10855,-19.94695 0.14331,-0.26729 0.17316,-0.26729 0.26857,0 0.0591,0.16539 2.77117,9.09642 6.02695,19.84671 3.25578,10.7503 6.00324,19.70386 6.10546,19.89682 0.16871,0.31843 0.60712,0.35082 4.7487,0.35082 3.46792,0 4.61385,-0.0617 4.77541,-0.25707 0.27472,-0.33219 15.61685,-53.199029 15.61685,-53.813439 l 0,-0.464677 -5.04377,0.05359 -5.04377,0.0536 -5.10466,18.744106 c -2.80757,10.30926 -5.15669,18.87942 -5.22027,19.04481 -0.10275,0.26729 -0.12828,0.26729 -0.22974,0 -0.0628,-0.16539 -2.64907,-8.64535 -5.74732,-18.84434 -3.09825,-10.199 -5.72008,-18.656386 -5.8263,-18.794216 -0.14491,-0.18805 -1.38178,-0.250589 -4.95569,-0.250589 -4.33265,0 -4.77918,0.03169 -4.94631,0.350819 -0.10105,0.19296 -2.76947,8.695466 -5.92982,18.894466 -3.16035,10.19899 -5.80595,18.61276 -5.87911,18.69727 -0.0732,0.0845 -2.3184,-8.26013 -4.98942,-18.54363 -2.67103,-10.2835 -4.93791,-18.855146 -5.03752,-19.048106 -0.16558,-0.320709 -0.63532,-0.350819 -5.47382,-0.350819 -4.062347,0 -5.315071,0.05849 -5.388939,0.251709 -0.08466,0.2214 15.517469,53.634536 15.801549,54.095836 0.18256,0.29646 8.98962,0.22977 9.22239,-0.0698 z M 240.73467,96.74443 c 2.07026,-0.747715 3.49739,-1.667387 4.81233,-3.101157 1.82055,-1.98508 3.00414,-4.932101 3.00414,-7.47996 0,-4.060505 -2.52206,-8.209677 -6.01514,-9.895827 -2.20677,-1.065233 -4.13511,-1.330587 -9.66939,-1.330587 l -4.65269,0 -0.66454,0.536241 c -0.36549,0.294929 -1.13644,0.990992 -1.71322,1.546806 l -1.0487,1.010568 0,3.164276 0,3.164278 -4.38051,0 -4.3805,0 -0.064,-3.111578 -0.064,-3.111576 -1.56892,-1.499272 c -0.86289,-0.8246 -1.63258,-1.499271 -1.71041,-1.499271 -0.0778,0 -0.83248,0.639017 -1.67706,1.420039 l -1.53559,1.420039 0.003,7.952012 0.003,7.952011 1.51213,1.653893 c 0.83168,0.909644 1.58196,1.653898 1.66732,1.653898 0.0854,0 0.84171,-0.656267 1.68077,-1.458372 l 1.52559,-1.458365 0,-3.1434 0,-3.143399 0.6492,-0.118009 c 0.35705,-0.0649 2.35708,-0.09154 4.4445,-0.0592 l 3.79531,0.05881 0.0999,3.017941 0.0999,3.017939 1.39826,1.565483 c 0.76906,0.861019 1.57806,1.644171 1.79778,1.740351 0.21973,0.09618 2.82651,0.150051 5.79285,0.119711 5.25704,-0.05379 5.43034,-0.06858 6.85844,-0.58432 z m -9.45466,-2.989602 c -0.058,-0.151647 -0.0818,-3.658363 -0.0529,-7.792697 l 0.0524,-7.516977 3.79531,0.009 c 4.6911,0.01121 5.47987,0.243153 7.40834,2.178578 1.62941,1.635265 2.14271,2.935243 2.14423,5.43028 0.002,3.545439 -1.69415,6.124386 -4.82791,7.340119 -0.96799,0.375525 -1.6489,0.451544 -4.77152,0.532695 -2.97123,0.07722 -3.66186,0.04385 -3.74787,-0.181063 z m -118.45418,-31.54788 0,-15.436318 -16.379762,0 -16.379755,0 -0.05164,15.235847 c -0.02841,8.379714 -0.0085,15.349139 0.04412,15.487609 0.07599,0.19978 3.468635,0.241172 16.431399,0.20047 l 16.335648,-0.05129 0,-15.436319 z M 89.046931,72.681593 c -0.05259,-0.137824 -0.07224,-4.941627 -0.04367,-10.675116 l 0.05194,-10.424528 4.394568,0.0069 c 4.128455,0.0064 4.465702,0.03524 5.569283,0.475278 2.304988,0.919089 3.594388,2.687819 3.594388,4.930583 0,1.562045 -0.61619,2.89879 -1.68638,3.658384 -0.42737,0.303339 -0.77896,0.667494 -0.7813,0.809237 -0.002,0.141742 0.37776,0.42483 0.84468,0.629083 2.30739,1.009356 3.60385,2.800245 3.61561,4.994462 0.015,2.788365 -1.98873,4.945791 -5.22346,5.6243 -1.541014,0.323237 -10.210576,0.299285 -10.335662,-0.02855 z m 10.195396,-3.161095 c 1.412863,-0.703993 1.958673,-1.586656 1.846623,-2.986321 -0.0748,-0.934447 -0.18612,-1.176771 -0.79996,-1.741342 -1.026715,-0.944296 -2.382489,-1.282822 -5.137621,-1.282822 -1.538754,0 -2.401609,0.08107 -2.560535,0.240566 -0.34201,0.343241 -0.333155,5.797251 0.01,6.152023 0.186514,0.192833 0.93202,0.240094 2.946358,0.18678 2.386422,-0.06316 2.811539,-0.128612 3.695141,-0.568884 z m -3.182513,-9.03493 c 2.133879,-0.392189 3.083744,-1.384678 3.082178,-3.220474 -0.002,-1.912103 -1.119828,-2.716065 -4.045919,-2.908965 -2.812496,-0.18541 -2.744943,-0.262608 -2.744943,3.136826 0,2.445261 0.04315,2.814811 0.349567,2.993926 0.460949,0.269444 1.888984,0.268885 3.359117,-0.0014 z m 54.119846,1.72138 0,-15.436318 -16.37975,0 -16.37977,0 -0.0516,15.235847 c -0.0284,8.379714 -0.009,15.349139 0.0441,15.487609 0.076,0.19978 3.46864,0.241172 16.4314,0.20047 l 16.33564,-0.05129 0,-15.436319 z m -23.7789,10.474645 c -0.0525,-0.137824 -0.0723,-4.941627 -0.0436,-10.675116 l 0.052,-10.424528 4.39456,0.0069 c 4.1375,0.0065 4.46468,0.03455 5.59309,0.479976 2.56489,1.012468 4.00157,3.370941 3.51985,5.778234 -0.27128,1.355624 -0.81093,2.258855 -1.72136,2.881107 -0.38342,0.262047 -0.69773,0.592422 -0.69848,0.734165 -8e-4,0.141742 0.38067,0.42483 0.84758,0.629083 2.35688,1.031004 3.6239,2.819799 3.61663,5.105977 -0.009,2.687397 -1.74946,4.592943 -4.95699,5.425715 -1.56783,0.407059 -10.45147,0.456083 -10.60316,0.05851 z m 10.19539,-3.161095 c 1.41287,-0.703993 1.95868,-1.586656 1.84664,-2.986321 -0.0748,-0.934447 -0.18613,-1.176771 -0.79997,-1.741342 -1.02672,-0.944296 -2.38249,-1.282822 -5.13762,-1.282822 -1.53875,0 -2.40161,0.08107 -2.56053,0.240566 -0.34201,0.343241 -0.33316,5.797251 0.01,6.152023 0.18652,0.192833 0.93202,0.240094 2.94636,0.18678 2.38642,-0.06316 2.81154,-0.128612 3.69514,-0.568884 z M 134.829,60.087261 c 1.10963,-0.539097 1.66779,-1.448352 1.66682,-2.715295 -0.002,-2.029002 -1.06151,-2.819093 -4.04591,-3.015837 -2.8125,-0.18541 -2.74494,-0.262608 -2.74494,3.136826 0,2.439558 0.0438,2.817108 0.34956,3.008898 0.56554,0.354806 3.76214,0.07723 4.77447,-0.414592 z m 52.7045,2.119687 0,-15.436318 -16.37975,0 -16.37978,0 -0.0516,15.235847 c -0.0284,8.379714 -0.009,15.349139 0.0441,15.487609 0.076,0.19978 3.46864,0.241172 16.43141,0.20047 l 16.33564,-0.05129 0,-15.436319 z M 170.49313,73.12125 c -5.3177,-0.706043 -9.01548,-3.887451 -10.13775,-8.722067 -0.79223,-3.412852 0.5761,-7.507867 3.34294,-10.004427 1.2994,-1.172479 3.75333,-2.394061 5.66798,-2.821563 2.84369,-0.634936 7.38998,-0.139498 10.22702,1.114502 l 0.84894,0.375246 0,1.615047 c 0,0.888275 -0.0479,1.615045 -0.10651,1.615045 -0.0586,0 -0.53051,-0.215014 -1.04871,-0.477808 -1.42226,-0.721267 -3.96887,-1.465665 -5.53651,-1.618367 -4.05705,-0.395198 -7.76349,1.461205 -9.3402,4.678132 -0.60561,1.235616 -0.64745,1.457239 -0.64745,3.429069 0,1.863766 0.0616,2.239929 0.53142,3.245785 0.70591,1.511245 1.89885,2.773603 3.35939,3.55486 3.0071,1.608539 6.90693,1.574903 10.65838,-0.09193 2.53895,-1.128095 2.32994,-1.190845 2.32994,0.699516 l 0,1.638185 -1.12923,0.501201 c -2.38257,1.057478 -6.37966,1.620094 -9.01965,1.269577 z"
     style="fill:#0f6677" />
</svg>
