<?xml version="1.0" encoding="UTF-8" standalone="no"?>
<!-- Created with Inkscape (http://www.inkscape.org/) -->

<svg
   xmlns:dc="http://purl.org/dc/elements/1.1/"
   xmlns:cc="http://creativecommons.org/ns#"
   xmlns:rdf="http://www.w3.org/1999/02/22-rdf-syntax-ns#"
   xmlns:svg="http://www.w3.org/2000/svg"
   xmlns="http://www.w3.org/2000/svg"
   xmlns:sodipodi="http://sodipodi.sourceforge.net/DTD/sodipodi-0.dtd"
   xmlns:inkscape="http://www.inkscape.org/namespaces/inkscape"
   width="200"
   height="147"
   id="svg2"
   sodipodi:version="0.32"
   inkscape:version="0.48.2 r9819"
   version="1.0"
   inkscape:output_extension="org.inkscape.output.svg.inkscape"
   sodipodi:docname="BBC_One HD.svg">
  <metadata
     id="metadata29">
    <rdf:RDF>
      <cc:Work
         rdf:about="">
        <dc:format>image/svg+xml</dc:format>
        <dc:type
           rdf:resource="http://purl.org/dc/dcmitype/StillImage" />
        <dc:title></dc:title>
      </cc:Work>
    </rdf:RDF>
  </metadata>
  <defs
     id="defs27" />
  <sodipodi:namedview
     pagecolor="#ffffff"
     bordercolor="#666666"
     borderopacity="1"
     objecttolerance="10"
     gridtolerance="10"
     guidetolerance="10"
     inkscape:pageopacity="0"
     inkscape:pageshadow="2"
     inkscape:window-width="1920"
     inkscape:window-height="1028"
     id="namedview25"
     showgrid="false"
     inkscape:zoom="2.2704381"
     inkscape:cx="262.75137"
     inkscape:cy="6.5565516"
     inkscape:window-x="-8"
     inkscape:window-y="-8"
     inkscape:window-maximized="1"
     inkscape:current-layer="g27183" />
  <g
     inkscape:label="Layer 1"
     inkscape:groupmode="layer"
     id="layer1"
     transform="translate(-35.697514,-705.24069)">
    <g
       id="g2311"
       transform="matrix(7.289161,0,0,7.289161,-224.50742,-5359.378)">
      <path
         style="fill:#c90302;fill-rule:nonzero;stroke:none;fill-opacity:1"
         d="M 35.697515,832.00504 L 63.135515,832.00504 L 63.135515,852.16104 L 35.697515,852.16104 L 35.697515,832.00504 z "
         id="path27181" />
      <g
         transform="matrix(1,0,0,-1,-129.20549,1544.741)"
         clip-path="url(#id210)"
         id="g27183">
        <g
           id="g3013"
           transform="translate(0.17090618,0)">
          <path
             id="path27185"
             d="m 180.857,708.356 3.425,0 0,-3.224 -3.425,0 0,3.224 z m 2.158,-0.449 c -0.015,0.002 -0.03,0.005 -0.046,0.007 l -0.019,0.002 c -0.026,0.004 -0.053,0.008 -0.079,0.01 -0.018,10e-4 -0.037,0.002 -0.055,0.004 -0.033,0.003 -0.064,0.004 -0.096,0.004 -0.013,0 -0.021,-10e-4 -0.035,-10e-4 -0.026,0 -0.052,-0.002 -0.076,-0.004 -0.015,-10e-4 -0.028,-0.002 -0.042,-0.003 -0.02,-0.001 -0.04,-0.004 -0.06,-0.006 l -0.017,-0.003 -0.018,-0.002 -0.023,-0.004 c -0.01,-0.002 -0.02,-0.003 -0.029,-0.005 -0.013,-0.002 -0.027,-0.005 -0.04,-0.008 -0.082,-0.018 -0.157,-0.04 -0.226,-0.067 -0.036,-0.015 -0.071,-0.03 -0.103,-0.045 -0.028,-0.013 -0.054,-0.027 -0.079,-0.042 -0.025,-0.014 -0.048,-0.028 -0.071,-0.043 -0.012,-0.009 -0.025,-0.017 -0.037,-0.027 -0.011,-0.007 -0.022,-0.015 -0.032,-0.023 -0.021,-0.017 -0.042,-0.034 -0.062,-0.051 -0.018,-0.016 -0.036,-0.033 -0.053,-0.05 -0.015,-0.014 -0.029,-0.028 -0.042,-0.043 -0.014,-0.016 -0.028,-0.031 -0.041,-0.047 -0.014,-0.018 -0.027,-0.036 -0.041,-0.054 -0.01,-0.014 -0.02,-0.028 -0.029,-0.043 -0.007,-0.009 -0.012,-0.019 -0.018,-0.029 -0.037,-0.058 -0.068,-0.121 -0.093,-0.188 -0.033,-0.083 -0.056,-0.172 -0.068,-0.268 -0.005,-0.03 -0.008,-0.06 -0.009,-0.091 -0.002,-0.024 -0.002,-0.048 -0.002,-0.073 0,-0.018 0,-0.036 0.001,-0.054 0.001,-0.019 0.002,-0.037 0.005,-0.055 l 0.001,-0.013 c 0.003,-0.023 0.006,-0.045 0.01,-0.065 0.002,-0.008 0.003,-0.017 0.005,-0.025 0.004,-0.017 0.008,-0.035 0.012,-0.052 0.006,-0.023 0.013,-0.043 0.02,-0.064 0.009,-0.027 0.019,-0.052 0.029,-0.078 0.017,-0.039 0.035,-0.077 0.054,-0.112 0.011,-0.022 0.023,-0.042 0.036,-0.061 0.009,-0.016 0.02,-0.031 0.029,-0.046 0.014,-0.019 0.028,-0.038 0.041,-0.055 0.015,-0.019 0.03,-0.037 0.044,-0.053 0.019,-0.022 0.037,-0.041 0.055,-0.059 l 0.01,-0.008 c 0.014,-0.015 0.03,-0.03 0.048,-0.047 0.013,-0.01 0.026,-0.021 0.04,-0.032 0.013,-0.01 0.027,-0.021 0.041,-0.031 0.018,-0.012 0.036,-0.025 0.055,-0.038 0.021,-0.012 0.042,-0.025 0.064,-0.039 0.047,-0.025 0.096,-0.05 0.151,-0.071 0.021,-0.009 0.042,-0.016 0.063,-0.024 0.023,-0.007 0.045,-0.014 0.068,-0.021 0.039,-0.011 0.081,-0.021 0.125,-0.03 0.034,-0.007 0.071,-0.013 0.108,-0.017 0.038,-0.004 0.077,-0.008 0.117,-0.01 0.02,0 0.04,-10e-4 0.06,-10e-4 0.008,0 0.018,-10e-4 0.027,-10e-4 0.073,0 0.139,0.003 0.2,0.008 l 0.013,0 c 0.025,0.003 0.048,0.006 0.071,0.008 0.036,0.005 0.07,0.01 0.101,0.016 0.021,0.003 0.04,0.007 0.059,0.011 0.03,0.006 0.057,0.013 0.084,0.021 0.02,0.004 0.04,0.01 0.058,0.016 0.022,0.007 0.042,0.014 0.062,0.021 l 0.02,0.007 c 0.01,0.003 0.024,0.007 0.039,0.014 0.02,0.007 0.046,0.018 0.074,0.03 0.017,0.007 0.035,0.015 0.053,0.023 0.017,0.008 0.034,0.017 0.053,0.026 0.007,0.003 0.014,0.007 0.022,0.01 l 0,0.44 c -0.005,-0.003 -0.01,-0.007 -0.015,-0.009 l -0.03,-0.018 c -0.03,-0.019 -0.06,-0.036 -0.089,-0.052 -0.032,-0.017 -0.062,-0.033 -0.094,-0.048 -0.054,-0.026 -0.107,-0.048 -0.157,-0.065 -0.096,-0.035 -0.183,-0.057 -0.261,-0.071 -0.009,-0.001 -0.019,-0.002 -0.028,-0.004 -0.021,-0.002 -0.041,-0.005 -0.061,-0.008 -0.03,-0.003 -0.059,-0.005 -0.085,-0.006 -0.016,-10e-4 -0.032,-10e-4 -0.046,-10e-4 -0.031,0 -0.063,0 -0.096,0.004 -0.039,0.002 -0.078,0.006 -0.117,0.013 -0.063,0.01 -0.127,0.027 -0.19,0.049 -0.009,0.003 -0.018,0.007 -0.027,0.01 -0.006,0.004 -0.013,0.006 -0.019,0.009 -0.009,0.003 -0.02,0.008 -0.03,0.013 -0.021,0.009 -0.043,0.021 -0.063,0.033 -0.011,0.005 -0.021,0.012 -0.032,0.018 -0.01,0.006 -0.021,0.014 -0.03,0.021 -0.013,0.009 -0.026,0.017 -0.038,0.027 -0.013,0.009 -0.025,0.02 -0.035,0.029 l -0.014,0.013 -0.008,0.006 -0.004,0.005 -0.006,0.005 c -0.019,0.02 -0.037,0.039 -0.054,0.059 -0.009,0.011 -0.018,0.022 -0.026,0.033 -0.008,0.012 -0.015,0.022 -0.022,0.033 -0.007,0.011 -0.013,0.021 -0.019,0.032 -0.01,0.014 -0.018,0.031 -0.025,0.046 -0.007,0.013 -0.013,0.027 -0.019,0.039 -0.009,0.022 -0.017,0.044 -0.024,0.066 -0.005,0.016 -0.01,0.032 -0.013,0.049 -0.012,0.045 -0.018,0.088 -0.022,0.123 -0.001,0.013 -0.002,0.026 -0.003,0.038 0,0.018 0,0.033 0,0.045 0,0.008 0,0.017 0,0.028 10e-4,0.026 0.003,0.057 0.008,0.094 0.004,0.021 0.008,0.045 0.014,0.07 0.004,0.016 0.009,0.033 0.014,0.05 0.004,0.015 0.011,0.032 0.017,0.047 0.004,0.012 0.008,0.022 0.013,0.033 0.007,0.015 0.014,0.03 0.021,0.045 0.006,0.011 0.013,0.022 0.02,0.035 0.014,0.025 0.03,0.049 0.048,0.074 0.007,0.008 0.014,0.018 0.021,0.026 0.01,0.012 0.019,0.023 0.03,0.034 0.005,0.006 0.01,0.011 0.015,0.017 0.081,0.081 0.172,0.141 0.266,0.183 0.014,0.007 0.029,0.012 0.044,0.019 0.015,0.006 0.029,0.012 0.044,0.016 0.017,0.006 0.033,0.011 0.05,0.016 0.015,0.003 0.031,0.008 0.046,0.01 0.016,0.005 0.03,0.007 0.046,0.01 0.017,0.003 0.035,0.006 0.051,0.008 0.017,0.002 0.033,0.004 0.051,0.006 0.032,0.002 0.063,0.004 0.094,0.004 l 0.03,0 c 0.024,-10e-4 0.045,-0.002 0.067,-0.004 0.015,0 0.031,-10e-4 0.044,-0.003 0.028,-0.002 0.055,-0.005 0.08,-0.01 0.023,-0.002 0.045,-0.006 0.066,-0.011 0.031,-0.006 0.06,-0.013 0.086,-0.02 0.016,-0.004 0.032,-0.009 0.046,-0.013 0.022,-0.007 0.04,-0.012 0.054,-0.017 0.024,-0.009 0.037,-0.013 0.037,-0.013 0.022,-0.007 0.044,-0.017 0.064,-0.025 0.027,-0.011 0.054,-0.022 0.08,-0.034 0.021,-0.01 0.041,-0.02 0.06,-0.029 0.016,-0.008 0.031,-0.016 0.045,-0.023 0.024,-0.012 0.044,-0.024 0.061,-0.033 l 0.044,-0.023 0,0.43 c 0,0 -0.026,0.011 -0.073,0.03 -0.021,0.008 -0.044,0.016 -0.072,0.026 -0.015,0.005 -0.031,0.012 -0.049,0.017 -0.014,0.005 -0.028,0.01 -0.043,0.015 -0.016,0.004 -0.033,0.01 -0.051,0.016 -0.012,0.004 -0.025,0.007 -0.038,0.011 l -0.012,0.004 c -0.012,0.003 -0.026,0.007 -0.039,0.011 -0.016,0.004 -0.032,0.008 -0.048,0.011 -0.011,0.003 -0.02,0.006 -0.031,0.009 -0.017,0.003 -0.034,0.008 -0.052,0.01 -0.017,0.005 -0.035,0.008 -0.054,0.011"
             style="fill:#ffffff;fill-rule:nonzero;stroke:none"
             inkscape:connector-curvature="0" />
          <g
             id="g27187"
             transform="translate(178.2239,706.577)">
            <path
               id="path27189"
               d="m 0,0 0,-0.632 0.411,0 0.022,0 c 0.014,0.001 0.034,0.001 0.057,0.003 0.046,0.005 0.104,0.012 0.16,0.032 0.053,0.017 0.103,0.043 0.141,0.081 0.015,0.015 0.027,0.031 0.037,0.046 0.033,0.051 0.04,0.103 0.042,0.132 0.001,0.013 0.001,0.02 0.001,0.02 l 0,0.016 c 0,0.012 -0.002,0.035 -0.008,0.061 -0.008,0.03 -0.022,0.065 -0.048,0.097 C 0.81,-0.138 0.804,-0.131 0.799,-0.126 0.788,-0.115 0.776,-0.104 0.762,-0.094 0.739,-0.077 0.713,-0.063 0.686,-0.051 0.649,-0.036 0.608,-0.023 0.562,-0.015 0.538,-0.011 0.514,-0.007 0.489,-0.004 0.473,-0.003 0.457,-0.002 0.442,-0.001 0.428,-0.001 0.413,0 0.397,0 L 0,0"
               style="fill:#ffffff;fill-rule:nonzero;stroke:none"
               inkscape:connector-curvature="0" />
          </g>
          <g
             id="g27191"
             transform="translate(178.2239,707.5406)">
            <path
               id="path27193"
               d="m 0,0 0,-0.6 0.199,0 0.031,0 c 0.013,0.001 0.031,0.002 0.045,0.003 0.041,0.002 0.098,0.008 0.155,0.024 0.011,0.003 0.021,0.007 0.033,0.01 0.044,0.016 0.087,0.039 0.12,0.072 0.026,0.026 0.043,0.055 0.054,0.083 0.015,0.034 0.02,0.067 0.022,0.091 0.002,0.02 0.002,0.033 0.002,0.033 l 0,0.026 C 0.659,-0.232 0.653,-0.19 0.633,-0.149 0.623,-0.129 0.61,-0.111 0.59,-0.092 0.568,-0.07 0.541,-0.053 0.512,-0.04 0.457,-0.015 0.392,-0.005 0.337,-0.002 0.314,0 0.293,0 0.275,0 L 0,0"
               style="fill:#ffffff;fill-rule:nonzero;stroke:none"
               inkscape:connector-curvature="0" />
          </g>
          <path
             id="path27195"
             d="m 176.91,708.356 3.425,0 0,-3.224 -3.425,0 0,3.224 z m 0.898,-0.452 0,-2.323 0.874,0 c 0,0 0.426,-0.011 0.662,0.225 0.191,0.19 0.177,0.412 0.177,0.412 0,0 0.015,0.231 -0.163,0.409 -0.151,0.151 -0.344,0.191 -0.344,0.191 0,0 0.087,0.042 0.154,0.108 0.032,0.031 0.143,0.132 0.143,0.377 0,0.246 -0.164,0.388 -0.164,0.388 0,0 -0.18,0.213 -0.586,0.213 l -0.753,0"
             style="fill:#ffffff;fill-rule:nonzero;stroke:none"
             inkscape:connector-curvature="0" />
          <g
             id="g27197"
             transform="translate(174.277,706.577)">
            <path
               id="path27199"
               d="m 0,0 0,-0.632 0.411,0 0.022,0 c 0.014,0.001 0.033,0.001 0.057,0.003 0.045,0.005 0.104,0.012 0.16,0.032 0.053,0.017 0.103,0.043 0.141,0.081 0.015,0.015 0.027,0.031 0.037,0.046 0.032,0.051 0.041,0.103 0.042,0.132 0,0.013 0,0.02 0,0.02 0,0 0.001,0.007 0,0.016 0,0.012 -0.001,0.035 -0.007,0.061 C 0.855,-0.211 0.84,-0.176 0.815,-0.144 0.81,-0.138 0.804,-0.131 0.799,-0.126 0.787,-0.115 0.775,-0.104 0.762,-0.094 0.739,-0.077 0.713,-0.063 0.685,-0.051 0.649,-0.036 0.607,-0.023 0.562,-0.015 0.538,-0.011 0.514,-0.007 0.489,-0.004 0.473,-0.003 0.457,-0.002 0.441,-0.001 0.427,-0.001 0.412,0 0.397,0 L 0,0"
               style="fill:#ffffff;fill-rule:nonzero;stroke:none"
               inkscape:connector-curvature="0" />
          </g>
          <g
             id="g27201"
             transform="translate(174.277,707.5406)">
            <path
               id="path27203"
               d="m 0,0 0,-0.6 0.199,0 0.031,0 c 0.013,0.001 0.03,0.002 0.045,0.003 0.041,0.002 0.097,0.008 0.155,0.024 0.01,0.003 0.021,0.007 0.033,0.01 0.044,0.016 0.087,0.039 0.12,0.072 0.026,0.026 0.043,0.055 0.054,0.083 0.015,0.034 0.02,0.067 0.022,0.091 0.001,0.02 0.001,0.033 0.001,0.033 0,0 0.001,0.01 0,0.026 C 0.659,-0.232 0.653,-0.19 0.633,-0.149 0.623,-0.129 0.61,-0.111 0.59,-0.092 0.569,-0.07 0.541,-0.053 0.512,-0.04 0.456,-0.015 0.391,-0.005 0.337,-0.002 0.314,0 0.292,0 0.275,0 L 0,0"
               style="fill:#ffffff;fill-rule:nonzero;stroke:none"
               inkscape:connector-curvature="0" />
          </g>
          <path
             id="path27205"
             d="m 172.962,708.356 3.426,0 0,-3.224 -3.426,0 0,3.224 z m 0.899,-0.452 0,-2.323 0.874,0 c 0,0 0.426,-0.011 0.662,0.225 0.191,0.19 0.177,0.412 0.177,0.412 0,0 0.014,0.231 -0.163,0.409 -0.151,0.151 -0.344,0.191 -0.344,0.191 0,0 0.087,0.042 0.154,0.108 0.031,0.031 0.143,0.132 0.143,0.377 0,0.246 -0.164,0.388 -0.164,0.388 0,0 -0.18,0.213 -0.586,0.213 l -0.753,0"
             style="fill:#ffffff;fill-rule:nonzero;stroke:none"
             inkscape:connector-curvature="0" />
        </g>
        <g
           transform="translate(186.7187,700.9175)"
           id="g27207">
          <path
             style="fill:#ffffff;fill-rule:nonzero;stroke:none"
             d="M 0,0 C 0,0.372 -0.121,0.818 -0.453,1.127 C -0.762,1.415 -1.164,1.551 -1.7,1.551 C -2.707,1.551 -3.321,0.911 -3.414,0 L 0,0 z M 1.191,-0.953 L -3.406,-0.953 C -3.291,-1.807 -2.73,-2.454 -1.463,-2.454 C -0.751,-2.454 0.024,-2.21 0.552,-1.851 L 1.004,-2.686 C 0.226,-3.307 -0.802,-3.533 -1.674,-3.533 C -3.417,-3.533 -4.668,-2.325 -4.668,-0.462 C -4.668,1.357 -3.442,2.65 -1.698,2.65 C 0.15,2.65 1.235,1.369 1.235,-0.422 C 1.235,-0.63 1.218,-0.784 1.191,-0.953"
             id="path27209" />
        </g>
        <g
           transform="translate(172.2439,697.3848)"
           id="g27211"
           style="fill:#ffffff">
          <path
             style="fill:#ffffff;fill-rule:nonzero;stroke:none"
             d="M 0,0 C -1.785,0 -3.02,1.278 -3.02,3.091 C -3.02,4.904 -1.785,6.182 0,6.182 C 1.785,6.182 3.02,4.904 3.02,3.091 C 3.02,1.278 1.785,0 0,0 M 0,1.11 C 0.579,1.11 1.014,1.292 1.317,1.611 C 1.635,1.946 1.801,2.439 1.801,3.091 C 1.801,3.743 1.635,4.236 1.317,4.57 C 1.014,4.89 0.579,5.071 0,5.071 C -0.579,5.071 -1.013,4.89 -1.317,4.57 C -1.635,4.236 -1.801,3.743 -1.801,3.091 C -1.801,2.439 -1.635,1.946 -1.317,1.611 C -1.013,1.292 -0.579,1.11 0,1.11"
             id="path27213" />
        </g>
        <g
           transform="translate(181.6061,697.5422)"
           id="g27215">
          <path
             style="fill:#ffffff;fill-rule:nonzero;stroke:none"
             d="M 0,0 L -1.162,0 C -1.248,0.443 -1.286,1.079 -1.286,1.644 L -1.289,3.053 C -1.289,3.782 -1.462,4.216 -1.746,4.497 C -2.019,4.768 -2.395,4.871 -2.815,4.871 C -3.311,4.871 -3.782,4.71 -4.11,4.356 C -4.45,3.99 -4.604,3.493 -4.604,2.733 L -4.604,0 L -5.775,0 L -5.775,4.206 C -5.775,4.771 -5.813,5.407 -5.899,5.851 L -4.761,5.851 C -4.697,5.642 -4.633,5.287 -4.609,4.998 L -4.6,4.998 C -4.147,5.63 -3.465,6.023 -2.54,6.023 C -1.772,6.023 -1.183,5.718 -0.832,5.358 C -0.393,4.907 -0.119,4.352 -0.119,3.13 L -0.119,1.644 C -0.119,1.079 -0.086,0.443 0,0"
             id="path27217" />
        </g>
        <g
           transform="matrix(0.09106599,0,0,-0.09106599,147.73433,776.7342)"
           id="g3034">
          <g
             id="g3120"
             transform="translate(-146.63878,3.3176196)" />
        </g>
      </g>
    </g>
    <g
       id="g27219"
       transform="matrix(1,0,0,-1,271.22364,380.49769)" />
  </g>
</svg>
