<?xml version="1.0" encoding="UTF-8" standalone="no"?>
<!-- Created with Inkscape (http://www.inkscape.org/) -->

<svg
   xmlns:dc="http://purl.org/dc/elements/1.1/"
   xmlns:cc="http://creativecommons.org/ns#"
   xmlns:rdf="http://www.w3.org/1999/02/22-rdf-syntax-ns#"
   xmlns:svg="http://www.w3.org/2000/svg"
   xmlns="http://www.w3.org/2000/svg"
   xmlns:sodipodi="http://sodipodi.sourceforge.net/DTD/sodipodi-0.dtd"
   xmlns:inkscape="http://www.inkscape.org/namespaces/inkscape"
   width="477.28815"
   height="357.96609"
   id="svg3819"
   version="1.1"
   inkscape:version="0.47 r22583"
   sodipodi:docname="Neues Dokument 4">
  <defs
     id="defs3821">
    <inkscape:perspective
       sodipodi:type="inkscape:persp3d"
       inkscape:vp_x="0 : 526.18109 : 1"
       inkscape:vp_y="0 : 1000 : 0"
       inkscape:vp_z="744.09448 : 526.18109 : 1"
       inkscape:persp3d-origin="372.04724 : 350.78739 : 1"
       id="perspective3827" />
    <inkscape:perspective
       id="perspective3795"
       inkscape:persp3d-origin="0.5 : 0.33333333 : 1"
       inkscape:vp_z="1 : 0.5 : 1"
       inkscape:vp_y="0 : 1000 : 0"
       inkscape:vp_x="0 : 0.5 : 1"
       sodipodi:type="inkscape:persp3d" />
  </defs>
  <sodipodi:namedview
     id="base"
     pagecolor="#ffffff"
     bordercolor="#666666"
     borderopacity="1.0"
     inkscape:pageopacity="0.0"
     inkscape:pageshadow="2"
     inkscape:zoom="1.4933613"
     inkscape:cx="238.64407"
     inkscape:cy="178.98305"
     inkscape:document-units="px"
     inkscape:current-layer="layer1"
     showgrid="false"
     inkscape:window-width="1280"
     inkscape:window-height="1005"
     inkscape:window-x="-4"
     inkscape:window-y="-4"
     inkscape:window-maximized="1" />
  <metadata
     id="metadata3824">
    <rdf:RDF>
      <cc:Work
         rdf:about="">
        <dc:format>image/svg+xml</dc:format>
        <dc:type
           rdf:resource="http://purl.org/dc/dcmitype/StillImage" />
        <dc:title></dc:title>
      </cc:Work>
    </rdf:RDF>
  </metadata>
  <g
     inkscape:label="Ebene 1"
     inkscape:groupmode="layer"
     id="layer1"
     transform="translate(-111.35592,-353.37914)">
    <g
       transform="translate(-506.58829,179.99756)"
       id="g3766">
      <rect
         y="173.38158"
         x="617.94421"
         height="357.96609"
         width="477.28815"
         id="rect2942"
         style="fill:#ef2a24;fill-opacity:1;fill-rule:nonzero;stroke:none" />
      <g
         style="fill:#ffffff"
         transform="matrix(1.013128,0,0,1.013128,-193.29827,-329.93832)"
         id="g3735">
        <path
           d="m 1137.2988,572.77465 0,57.918 -61.537,0 0,-57.918 61.537,0 z m -22.771,8.071 -0.826,-0.154 -0.336,-0.07 -1.428,-0.161 -0.98,-0.07 -1.715,-0.07 -0.637,0 -1.372,0.07 -0.749,0.07 -1.078,0.119 -0.301,0.07 -0.329,0.07 -0.413,0.07 -0.532,0.098 -0.714,0.133 c -1.463,0.301 -2.814,0.728 -4.06,1.204 -0.644,0.245 -1.253,0.518 -1.841,0.805 l -1.421,0.756 -1.26,0.777 -0.686,0.476 -0.56,0.413 -1.12,0.917 -0.952,0.903 -0.756,0.777 -0.735,0.847 -0.742,0.973 -0.518,0.749 -0.329,0.532 c -0.644,1.057 -1.204,2.177 -1.673,3.367 -0.574,1.505 -0.994,3.101 -1.218,4.809 l -0.168,1.659 -0.035,1.295 0.021,0.973 0.091,1.008 0.028,0.238 0.175,1.148 0.098,0.448 0.217,0.931 0.357,1.176 0.511,1.365 c 0.294,0.714 0.623,1.393 0.98,2.037 l 0.63,1.092 0.532,0.826 0.742,0.994 0.798,0.945 0.966,1.036 0.182,0.182 0.882,0.805 0.7,0.588 0.749,0.56 0.98,0.672 1.162,0.707 c 0.819,0.455 1.708,0.889 2.695,1.288 l 1.148,0.42 1.204,0.385 c 0.721,0.203 1.463,0.385 2.24,0.532 0.623,0.126 1.288,0.224 1.967,0.301 0.665,0.084 1.372,0.154 2.086,0.182 l 1.064,0.07 0.504,0 c 1.302,0 2.499,-0.07 3.598,-0.154 l 0.217,0 1.295,-0.133 1.799,-0.28 1.064,-0.217 1.519,-0.357 1.022,-0.301 1.134,-0.364 0.357,-0.126 0.693,-0.259 1.33,-0.532 0.966,-0.427 0.924,-0.448 0.406,-0.189 0,-7.903 -0.273,0.175 -0.546,0.315 -1.589,0.931 -1.68,0.861 c -0.98,0.448 -1.911,0.847 -2.828,1.162 -1.708,0.616 -3.297,1.022 -4.69,1.26 l -0.483,0.077 -1.113,0.14 -1.519,0.119 -0.847,0 -1.722,-0.07 c -0.686,-0.07 -1.386,-0.119 -2.086,-0.231 -1.148,-0.203 -2.296,-0.49 -3.416,-0.889 l -0.49,-0.203 -0.329,-0.126 -0.546,-0.245 -1.148,-0.588 -0.546,-0.329 -0.56,-0.378 -0.686,-0.497 -0.616,-0.504 -0.259,-0.245 -0.14,-0.112 -0.077,-0.077 -0.084,-0.084 -0.987,-1.064 -0.462,-0.616 -0.413,-0.574 -0.336,-0.56 -0.455,-0.84 -0.322,-0.707 -0.441,-1.176 -0.238,-0.875 c -0.217,-0.819 -0.315,-1.575 -0.378,-2.212 l -0.042,-0.686 -0.028,-0.819 0.014,-0.497 c 0.014,-0.448 0.056,-1.022 0.147,-1.68 l 0.238,-1.26 0.245,-0.896 0.301,-0.861 0.245,-0.588 0.385,-0.812 0.343,-0.602 0.882,-1.337 0.371,-0.476 0.525,-0.616 0.287,-0.301 c 1.449,-1.449 3.073,-2.52 4.767,-3.297 l 0.784,-0.329 0.812,-0.287 0.882,-0.273 0.833,-0.217 0.833,-0.168 0.917,-0.133 0.903,-0.112 1.694,-0.07 0.546,0 1.19,0.07 0.798,0.07 1.435,0.175 1.169,0.21 1.547,0.357 0.833,0.231 0.973,0.315 0.672,0.231 1.141,0.448 1.449,0.63 1.085,0.518 0.791,0.399 1.092,0.588 0.812,0.441 0,-7.756 c 0,0 -0.49,-0.203 -1.316,-0.518 l -1.302,-0.476 -0.875,-0.301 -0.77,-0.266 -0.917,-0.287 -0.7,-0.217 -0.21,-0.07 -0.707,-0.189 -0.847,-0.231 -0.56,-0.126 -0.931,-0.203 -0.98,-0.175"
           id="path15575"
           style="fill:#ffffff;fill-rule:nonzero;stroke:none" />
        <path
           d="m 1028.4691,604.71775 0,11.375 7.385,0 0.399,0 1.022,-0.07 c 0.805,-0.084 1.862,-0.217 2.884,-0.56 0.931,-0.315 1.834,-0.791 2.527,-1.477 l 0.658,-0.819 c 0.574,-0.917 0.728,-1.848 0.763,-2.366 l 0.014,-0.371 0,-0.273 -0.161,-1.106 -0.861,-1.736 -0.287,-0.315 -0.658,-0.588 -1.365,-0.763 c -0.672,-0.287 -1.407,-0.511 -2.226,-0.658 l -1.316,-0.196 -0.847,-0.07 -0.777,0 -7.154,0"
           id="path15579"
           style="fill:#ffffff;fill-rule:nonzero;stroke:none" />
        <path
           d="m 1028.4691,587.40605 0,10.787 3.584,0 0.546,0 0.805,-0.07 c 0.742,-0.07 1.764,-0.161 2.779,-0.448 l 0.595,-0.182 c 0.798,-0.287 1.561,-0.707 2.163,-1.281 l 0.987,-1.491 0.385,-1.631 0.028,-0.595 -0.01,-0.469 c -0.028,-0.476 -0.133,-1.232 -0.49,-1.967 l -0.756,-1.029 -1.421,-0.924 c -1.008,-0.455 -2.156,-0.63 -3.129,-0.686 l -1.134,-0.07 -4.935,0 z"
           id="path15583"
           style="fill:#ffffff;fill-rule:nonzero;stroke:none" />
        <path
           d="m 1066.3958,572.77465 0,57.918 -61.537,0 0,-57.918 61.537,0 z m -45.388,8.12 0,41.699 15.694,0 c 0,0 7.665,0.224 11.879,-4.004 3.451,-3.444 3.199,-7.42 3.199,-7.42 0,0 0.252,-4.158 -2.94,-7.343 -2.709,-2.723 -6.174,-3.444 -6.174,-3.444 0,0 1.568,-0.728 2.772,-1.932 0.56,-0.56 2.555,-2.38 2.555,-6.769 0,-4.424 -2.947,-6.972 -2.947,-6.972 0,0 -3.22,-3.815 -10.507,-3.815 l -13.531,0 z"
           id="path15585"
           style="fill:#ffffff;fill-rule:nonzero;stroke:none" />
        <path
           d="m 957.56615,604.71775 0,11.375 7.385,0 0.399,0 1.022,-0.07 c 0.805,-0.084 1.862,-0.217 2.884,-0.56 0.924,-0.315 1.834,-0.791 2.52,-1.477 l 0.658,-0.819 c 0.581,-0.917 0.735,-1.848 0.763,-2.366 l 0.014,-0.371 0,-0.273 -0.154,-1.106 -0.861,-1.736 -0.287,-0.315 -0.658,-0.588 -1.372,-0.763 c -0.665,-0.287 -1.4,-0.511 -2.219,-0.658 l -1.316,-0.196 -0.854,-0.07 -0.77,0 -7.154,0"
           id="path15589"
           style="fill:#ffffff;fill-rule:nonzero;stroke:none" />
        <path
           d="m 957.56615,587.40605 0,10.787 3.577,0 0.553,0 0.805,-0.07 c 0.742,-0.07 1.757,-0.161 2.779,-0.448 l 0.588,-0.182 c 0.798,-0.287 1.575,-0.707 2.17,-1.281 l 0.98,-1.491 0.392,-1.631 0.028,-0.595 -0.014,-0.469 c -0.014,-0.476 -0.119,-1.232 -0.49,-1.967 l -0.756,-1.029 -1.421,-0.924 c -1.008,-0.455 -2.156,-0.63 -3.122,-0.686 l -1.134,-0.07 -4.935,0"
           id="path15593"
           style="fill:#ffffff;fill-rule:nonzero;stroke:none" />
        <path
           d="m 995.49285,572.77465 0,57.918 -61.537,0 0,-57.918 61.537,0 z m -45.388,8.12 0,41.699 15.694,0 c 0,0 7.658,0.224 11.879,-4.004 3.451,-3.444 3.199,-7.42 3.199,-7.42 0,0 0.252,-4.158 -2.933,-7.343 -2.723,-2.723 -6.181,-3.444 -6.181,-3.444 0,0 1.561,-0.728 2.765,-1.932 0.56,-0.56 2.562,-2.38 2.562,-6.769 0,-4.424 -2.94,-6.972 -2.94,-6.972 0,0 -3.227,-3.815 -10.507,-3.815 l -13.538,0 z"
           id="path15595"
           style="fill:#ffffff;fill-rule:nonzero;stroke:none" />
      </g>
      <g
         transform="translate(480.1802,-161.10012)"
         id="g3758">
        <path
           id="path3750"
           d="m 205.95238,490.92837 0,118.6017 336.66632,0 0,-118.6017 -336.66632,0 z"
           style="fill:#ffffff;fill-opacity:1"
           sodipodi:nodetypes="ccccc" />
        <path
           style="fill:#ef2a24;fill-opacity:1"
           d="m 202.71647,483.30125 0,131.5678 344.21678,0 0,-131.5678 -344.21678,0 z m 178.76514,13.91378 c 8.32293,-0.16381 16.63142,1.72867 23.41589,5.58641 4.32879,2.46145 9.34156,7.0385 12.37364,11.27724 3.68874,5.15654 6.30957,12.31232 7.41374,20.15284 0.74112,5.25963 0.80369,6.99841 0.96592,29.94216 0.0984,13.90551 0.27474,24.37221 0.41767,26.07858 0.40974,4.89449 0.82708,8.86524 1.22688,11.32945 l 0.39153,2.37557 -10.25911,0 -10.28526,0 -0.23499,-1.20082 c -1.48225,-7.87828 -1.86116,-15.66768 -2.01002,-39.62697 -0.11394,-18.39 -0.20316,-20.37663 -1.07025,-24.69506 -1.18745,-5.90995 -3.23498,-10.09247 -6.65675,-13.67888 -4.35869,-4.5682 -9.89055,-6.76668 -17.82956,-7.04827 -9.90476,-0.35135 -17.88947,2.50221 -23.83357,8.48399 -5.59201,5.62751 -8.33271,12.52292 -9.18887,23.20714 -0.1339,1.67287 -0.20883,12.69658 -0.20883,28.63684 l 0,25.92203 -10.33747,0 -10.33747,0 0,-37.40811 c -0.002,-20.57027 -0.0961,-40.24254 -0.20884,-43.72537 -0.2811,-8.69274 -0.90168,-15.75614 -1.80118,-20.93598 l -0.26113,-1.54022 10.10256,0 10.07643,0 0.20883,0.80928 c 0.92783,3.46696 1.7976,8.08061 2.1928,11.79934 0.13892,1.30548 0.29697,2.37549 0.36547,2.37549 0.0687,0 0.60153,-0.62735 1.17467,-1.40966 1.44582,-1.97109 4.83392,-5.47364 7.12663,-7.33538 3.65516,-2.96817 7.8259,-5.25361 12.37364,-6.81338 4.70378,-1.61356 9.70302,-2.45994 14.697,-2.55826 z m -118.75042,0.0259 c 14.46226,0.18352 27.0622,5.06732 36.54661,14.22711 8.7229,8.42435 13.98352,19.56359 15.63668,33.10079 0.41977,3.43529 0.36547,12.1526 -0.10442,15.61062 -1.82916,13.46143 -6.88179,23.90942 -15.66283,32.39592 -7.54915,7.29587 -17.01318,11.75439 -28.79346,13.6006 -2.12881,0.33339 -11.70311,0.60605 -13.80944,0.39153 -13.71505,-1.39704 -24.35909,-6.17416 -32.91802,-14.74913 -4.22846,-4.23623 -6.92481,-8.01402 -9.60653,-13.49618 -7.81847,-15.98227 -7.6839,-37.59924 0.33932,-53.54074 2.97702,-5.9142 8.11994,-12.31107 13.05236,-16.21108 9.00182,-7.11786 19.96221,-10.92488 32.396,-11.3033 0.98028,-0.0301 1.95956,-0.0384 2.92373,-0.0259 z m 225.91026,0.0785 c 6.29178,0.0175 9.19997,0.32445 14.14876,1.54022 16.74319,4.11293 28.7542,15.28099 34.17112,31.74334 1.73878,5.28393 2.56987,9.49017 3.08027,15.63669 0.35945,4.33229 0.0797,11.72031 -0.54816,14.4098 l -0.10441,0.46989 -40.72337,0 -40.72337,0 0.13049,0.67872 c 1.92799,10.9035 6.99798,18.08577 15.71512,22.21516 13.98528,6.62475 37.32925,3.86183 53.20134,-6.29128 l 1.14861,-0.75699 3.94185,7.28317 c 2.16398,3.99632 3.94186,7.34457 3.94186,7.43989 0,0.22229 -2.3785,1.98179 -4.67279,3.47188 -8.62099,5.59961 -19.32,9.28184 -31.63892,10.91178 -2.74112,0.36313 -4.76225,0.47456 -9.58048,0.52209 -3.36554,0.0334 -6.45918,0.0226 -6.8655,-0.0259 -9.88788,-1.18211 -16.73283,-3.3257 -23.41597,-7.36153 -14.17232,-8.55893 -22.54496,-23.07232 -24.06847,-41.76756 -0.6956,-8.53478 0.36312,-17.20055 3.08027,-25.39985 5.87753,-17.73442 19.88746,-30.15893 38.06077,-33.75345 4.29304,-0.84913 5.87995,-0.98229 11.72098,-0.96583 z m -1.72291,19.39585 c -1.85741,0.0368 -3.57706,0.16506 -4.725,0.36546 -4.4074,0.76894 -8.31851,2.26898 -11.64262,4.43781 -2.42461,1.58232 -5.98011,5.07743 -7.51816,7.41374 -2.65742,4.03625 -4.52961,9.21927 -5.01211,13.8355 l -0.13057,1.25303 30.22927,0 30.22927,0 -0.13057,-2.24501 c -0.40948,-6.85088 -3.37515,-13.40421 -8.0141,-17.699 -3.89575,-3.60688 -8.49744,-5.77604 -14.5925,-6.86558 -1.67162,-0.29881 -4.26355,-0.47072 -6.81337,-0.49595 -0.63746,-0.008 -1.26038,-0.0125 -1.87954,0 z m -224.63118,0.15663 c -4.45768,-0.0401 -8.97509,0.58148 -12.53026,1.77512 -8.08236,2.71338 -13.95153,8.32653 -17.17683,16.44597 -0.86868,2.18612 -1.78522,5.78506 -2.24508,8.84946 -0.53605,3.56962 -0.54006,12.69082 0,16.13272 1.2795,8.1506 3.96633,13.92246 8.58849,18.5605 4.69367,4.70971 10.69049,7.3967 18.27331,8.19688 2.37849,0.25077 6.61731,0.26823 8.95387,0.0259 14.77937,-1.53137 24.25233,-10.57906 26.78353,-25.58263 0.92691,-5.49553 0.92724,-13.2323 0,-18.66492 -2.32779,-13.64228 -10.33889,-22.37296 -22.89388,-24.95611 -2.41258,-0.49645 -5.07835,-0.75917 -7.75315,-0.78314 z"
           id="path10" />
      </g>
      <g
         transform="matrix(0.93572081,0,0,0.93572081,524.48261,75.1141)"
         id="g3724">
        <path
           d="m 549.17402,252.3667 6.10988,-5.64136 -0.0382,42.60665 -6.07164,-6.42542 0,-12.08591 -23.96146,0 0,18.55913 -6.10032,-6.41585 0,-30.57811 6.10032,-5.66049 0,18.43483 23.96146,0 0,-12.79347 z"
           id="path15603"
           style="fill:#ffffff;fill-rule:nonzero;stroke:none" />
        <path
           d="m 555.24566,289.31286 0,0 6.10988,-5.44057 7.76405,0 c 3.05016,0 5.42145,-0.20079 7.11386,-0.59282 1.70197,-0.43027 3.09797,-0.95616 4.22624,-1.58723 1.13783,-0.65975 2.16093,-1.46293 3.10753,-2.39041 3.01192,-3.05016 4.51309,-6.91306 4.51309,-11.57914 0,-4.58002 -1.54898,-8.30906 -4.63739,-11.18711 -1.13784,-1.08047 -2.44778,-1.97926 -3.93939,-2.6677 -1.46293,-0.698 -2.85893,-1.14739 -4.188,-1.36731 -1.30994,-0.21992 -3.43263,-0.33466 -6.37761,-0.33466 l -7.62062,0 -6.05252,-5.44057 14.32333,0 c 5.79435,0 10.3935,0.87967 13.75919,2.61989 3.38482,1.74022 6.07164,4.29317 8.07002,7.67799 1.97926,3.37526 2.9928,7.05649 2.9928,11.05325 0,2.83981 -0.56414,5.56487 -1.65417,8.1752 -1.10915,2.60076 -2.67726,4.89556 -4.70432,6.87482 -2.06532,2.03662 -4.48441,3.56649 -7.2286,4.59914 -1.60635,0.63107 -3.09797,1.06134 -4.42704,1.28126 -1.33862,0.21036 -3.9107,0.30597 -7.70667,0.30597 l -13.44366,0 13.44366,0 c 3.79597,0 6.36805,-0.0956 7.70667,-0.30597 1.32907,-0.21992 2.82069,-0.65019 4.42704,-1.28126 2.74419,-1.03265 5.16328,-2.56252 7.2286,-4.59914 2.02706,-1.97926 3.59517,-4.27406 4.70432,-6.87482 1.09003,-2.61033 1.65417,-5.33539 1.65417,-8.1752 0,-3.99676 -1.01354,-7.67799 -2.9928,-11.05325 -1.99838,-3.38482 -4.6852,-5.93777 -8.07002,-7.67799 -3.36569,-1.74022 -7.96484,-2.61989 -13.75919,-2.61989 l -14.32333,0 6.05252,5.44057 7.62062,0 c 2.94498,0 5.06767,0.11474 6.37761,0.33466 1.32907,0.21992 2.72507,0.66931 4.188,1.36731 1.49161,0.68844 2.80155,1.58723 3.93939,2.6677 3.08841,2.87805 4.63739,6.60709 4.63739,11.18711 0,4.66608 -1.50117,8.52898 -4.51309,11.57914 -0.9466,0.92748 -1.9697,1.73066 -3.10753,2.39041 -1.12827,0.63107 -2.52427,1.15696 -4.22624,1.58723 -1.69241,0.39203 -4.0637,0.59282 -7.11386,0.59282 l -7.76405,0 -6.10988,5.44057 z"
           id="path15607"
           style="fill:#ffffff;fill-rule:nonzero;stroke:none" />
        <path
           d="m 555.24566,289.31286 6.10988,-5.44057 7.76405,0 c 3.05016,0 5.42145,-0.20079 7.11386,-0.59282 1.70197,-0.43027 3.09797,-0.95616 4.22624,-1.58723 1.13783,-0.65975 2.16093,-1.46293 3.10753,-2.39041 3.01192,-3.05016 4.51309,-6.91306 4.51309,-11.57914 0,-4.58002 -1.54898,-8.30906 -4.63739,-11.18711 -1.13784,-1.08047 -2.44778,-1.97926 -3.93939,-2.6677 -1.46293,-0.698 -2.85893,-1.14739 -4.188,-1.36731 -1.30994,-0.21992 -3.43263,-0.33466 -6.37761,-0.33466 l -7.62062,0 -6.05252,-5.44057 14.32333,0 c 5.79435,0 10.3935,0.87967 13.75919,2.61989 3.38482,1.74022 6.07164,4.29317 8.07002,7.67799 1.97926,3.37526 2.9928,7.05649 2.9928,11.05325 0,2.83981 -0.56414,5.56487 -1.65417,8.1752 -1.10915,2.60076 -2.67726,4.89556 -4.70432,6.87482 -2.06532,2.03662 -4.48441,3.56649 -7.2286,4.59914 -1.60635,0.63107 -3.09797,1.06134 -4.42704,1.28126 -1.33862,0.21036 -3.9107,0.30597 -7.70667,0.30597 l -13.44366,0 z"
           id="path15611"
           style="fill:#ffffff;fill-rule:nonzero;stroke:none" />
        <path
           d="m 561.35554,252.20416 -6.10032,-5.47882 0,42.58752 6.10032,-5.44057 0,-13.05163 0,-5.66049 0,-12.95601 z"
           id="path15615"
           style="fill:#ed936e;fill-opacity:1;fill-rule:nonzero;stroke:none" />
        <path
           d="m 525.203,270.82066 -0.0191,18.53045 6.10988,-5.49794 -0.0191,-13.03251 -6.07164,0 z"
           id="path15619"
           style="fill:#ed936e;fill-opacity:1;fill-rule:nonzero;stroke:none" />
        <path
           d="m 531.43719,265.16017 -0.11474,-12.77434 -6.10989,-5.66049 0,18.43483 6.22463,0 z"
           id="path15623"
           style="fill:#ed936e;fill-opacity:1;fill-rule:nonzero;stroke:none" />
      </g>
    </g>
  </g>
</svg>
