<?xml version="1.0" encoding="UTF-8"?>
<svg width="450" height="450" version="1.1" xmlns="http://www.w3.org/2000/svg">
 <path d="m0 225v-225h450v450h-450zm333.09 126.27c4.0014-0.2808 7.1951-0.94281 10.115-2.0966 5.9715-2.3594 9.9781-6.5818 11.364-11.976 0.83113-3.2359 0.84514-7.1649 0.0368-10.337-0.76513-3.0021-2.6027-5.6719-5.2783-7.6691-2.3463-1.7514-4.4706-2.8306-7.7888-3.9571-2.6687-0.90606-4.3313-1.3919-7.8801-2.303-6.666-1.7113-8.8876-2.6272-10.648-4.3901-0.53009-0.53078-0.71141-0.77733-1.0054-1.3674-0.62617-1.2568-0.89849-2.868-0.73748-4.3635 0.20148-1.8712 0.76362-3.1367 1.9269-4.3378 1.625-1.6779 3.8736-2.6973 7.0926-3.2152 0.91151-0.14669 1.3199-0.16472 3.7506-0.16609 2.1583-1e-3 2.9571 0.0266 3.8264 0.13313 4.9075 0.60147 10.003 2.2204 13.513 4.294 0.35528 0.20989 0.66526 0.38158 0.68883 0.38158 0.0236 0 0.0428-2.233 0.0428-4.9623v-4.9623l-0.74331-0.37301c-3.4398-1.7262-8.2221-3.0752-12.782-3.6056-3.536-0.41136-7.9627-0.28876-11.328 0.31369-5.0338 0.90121-9.0746 2.8043-12.033 5.6669-2.7352 2.6468-4.3106 5.6966-4.9157 9.5164-0.21307 1.3452-0.19398 4.978 0.0331 6.2891 0.44795 2.5865 1.3564 4.6546 2.8804 6.5569 1.3908 1.736 3.2334 3.135 6.0382 4.5843 2.8578 1.4767 6.0247 2.5575 11.757 4.0123 5.0366 1.2782 6.7083 1.8468 8.4861 2.8859 2.566 1.4998 3.8767 3.1678 4.2734 5.4379 0.11683 0.66852 0.15207 2.06 0.0686 2.704-0.17291 1.3332-0.70118 2.6808-1.4434 3.6819-1.5297 2.0634-4.3759 3.5573-7.8329 4.1114-4.6031 0.7377-10.569 0.2139-15.571-1.3671-2.3978-0.75786-5.1937-1.995-7.3967-3.2728-0.58844-0.34127-1.0914-0.62056-1.1176-0.62056-0.0262 0-0.0477 2.296-0.0477 5.1022v5.1022l1.4421 0.69989c4.5714 2.2187 9.7246 3.5141 15.493 3.8944 0.92682 0.0611 4.7237 0.0436 5.7207-0.0263zm-220.85-24.638 0.0191-23.428 1.1438 1.6633c4.8686 7.0796 11.239 16.657 18.62 27.993l3.3193 5.0766 7.865 12.124 11.256-0.0389v-62.929h-10.684l-0.0758 46.563-0.19761-0.30309-2.0522-3.1824-22.681-34.324-5.9828-8.7335c-8e-3 -0.011-2.5519-0.0199-5.6525-0.0199l-5.6376-8e-5 -0.038 62.967h10.759zm101.14 18.693v-4.6978l-32.584-0.0383v-18.336h27.58v-9.4709l-27.543-0.0383v-16.215l30.878-0.0383-0.039-9.3954-42.053-2e-3 -3e-3 62.872c0.0287 0.0757 4.4484 0.091 21.899 0.0758l21.863-0.0191v-4.6978zm36.928 4.603c0.15518-0.51379 2.4606-8.6305 3.1152-10.968l9.3379-34.103c0.0122 0.0122 0.32998 1.1779 0.70618 2.5905l7.6459 27.838 4.0367 14.131 0.17616 0.60617h11.814l0.0995-0.30308c0.0547-0.1667 0.43583-1.4453 0.84688-2.8414 4.7282-16.058 9.1612-32.396 13.445-49.554l2.4819-10.096c0.0224-0.12548-0.29611-0.13283-5.8484-0.13464-4.685-2e-3 -5.8838 0.0177-5.9295 0.0948-0.0315 0.0532-0.263 1.1197-0.51441 2.3699-2.4318 12.092-5.6827 26.863-8.1464 37.014l-2.6847 10.608c-0.0981-7.6e-4 -4.8421-17.814-7.4256-27.883l-4.8919-19.587h-5.483c-4.7962 0-5.4906 0.0142-5.5439 0.11366-0.0335 0.0625-0.4581 1.7503-0.94364 3.7506l-6.746 26.52-4.8316 17.768c-0.15767-0.42666-3.0413-12.178-4.2951-17.503-1.4805-6.2883-2.2224-9.6612-4.2494-19.321l-2.8373-13.924c-0.0176-0.0332-12.027-0.0222-12.06 0.0111-0.0791 0.0791 3.7362 15.576 5.6606 22.992 3.3306 12.835 6.6773 24.821 10.465 37.482l0.71247 2.3678c0.0255 0.0747 1.2816 0.0947 5.9398 0.0947 5.5603 0 5.9097-8e-3 5.9474-0.1326zm-66.783-86.275c4.0454-0.47304 7.1663-1.3477 10.418-2.92 8.7454-4.2281 14.267-12.364 15.868-23.38 0.51986-3.5767 0.53646-8.6081 0.0405-12.256-0.43234-3.1799-1.1258-5.849-2.2878-8.806-1.4876-3.7854-3.4639-6.8142-6.308-9.6673-3.8504-3.8626-8.4116-6.3363-13.953-7.5672-4.458-0.99024-9.7846-1.0876-14.478-0.26459-6.05 1.0609-11.153 3.6386-15.214 7.6852-4.2438 4.2284-7.0913 9.7985-8.2894 16.215-0.54782 2.9338-0.68989 4.6877-0.68413 8.4484 4e-3 2.6501 0.0289 3.3293 0.16927 4.622 0.4522 4.1646 1.2578 7.4517 2.5889 10.564 3.0563 7.1451 8.109 12.203 15.143 15.158 2.7443 1.1529 5.912 1.9026 9.4475 2.2357 1.5246 0.14366 6.0892 0.10396 7.5391-0.0656zm-5.8343-9.562-0.98502-0.11093c-4.0222-0.44939-7.3292-1.9399-9.9938-4.504-3.7911-3.6482-5.915-8.8748-6.3811-15.703-0.17655-2.5861-0.017-6.5238 0.35528-8.7711 0.57965-3.4989 1.7822-6.7474 3.4221-9.244 3.5378-5.3861 9.4548-8.1661 16.523-7.7628 2.8787 0.16427 5.0681 0.70512 7.3268 1.8098 4.3188 2.1123 7.3193 5.6733 9.0702 10.764 1.9518 5.6754 2.0819 13.941 0.3152 20.027-1.384 4.7674-4.1777 8.656-7.8585 10.939-1.9405 1.2034-4.4032 2.0499-7.0202 2.4129-0.8246 0.11442-4.1552 0.21436-4.7735 0.14321zm-86.859 4.8938 4.6199-16.518 1.8842-6.8572 4.9064-18.185c0.0485-0.21731 0.0397-0.24641 0.85787 2.8414l5.3627 19.7 4.2216 14.927 2.0792 7.255 0.11964 0.39779h11.805l0.18897-0.62511c2.2638-7.4873 6.5919-22.891 9.3201-33.168l7.3997-29.172h-11.82l-0.0402 0.17049c-0.0221 0.0938-0.20844 1.0058-0.41401 2.0268-2.3478 11.66-5.5894 26.427-7.9669 36.294l-2.9088 11.58c-0.0192 0.0192-0.0516-0.0126-0.072-0.0706-0.0851-0.24239-3.2826-12.14-4.1621-15.487l-0.86696-3.296-2.1756-8.3726-5.0377-20.099-0.0719-0.17102-10.952 0.0389-0.24557 0.98502-1.8727 7.5392-3.4492 13.601-1.404 5.4176-5.5399 20.663c-0.0125-0.0125-0.465-1.7771-1.0055-3.9215-3.6175-14.349-6.1231-25.55-9.716-43.432l-0.69648-3.4665h-6.0548c-5.731 0-6.0527 7e-3 -6.0153 0.1326 0.02175 0.073 0.41833 1.7181 0.88136 3.6559 4.6499 19.463 10.059 39.479 15.956 59.044 0.03789 0.12563 0.37021 0.13199 5.958 0.11366l5.918-0.0194zm143.38-8.4787v-12.04l6.2321-0.0374 6.3687-0.0644c0.15268-0.0301 1.3684 1.9449 6.1356 9.9674l7.7815 13.362 0.47516 0.85242h6.4311l6.431-0.0342c0-0.0188-0.76475-1.3268-1.6994-2.9066-3.8378-6.4869-8.1139-13.383-12.756-20.57l-1.6744-2.6564c0.0155-0.0109 0.4203-0.18284 0.89954-0.38204 7.5359-3.1319 11.557-9.4636 11.266-17.738-0.10539-2.9932-0.66935-5.4841-1.75-7.7286-0.87196-1.8111-1.7151-3.0023-3.1109-4.3956-3.2688-3.2627-7.689-5.2448-13.679-6.1338-2.5344-0.37612-2.3284-0.37089-15.779-0.399l-12.635-0.0264v62.971h11.062zm0-31.538v-10.542l6.1184 0.0408c6.9576 0.0464 7.6572 0.0903 10.093 0.63313 4.8605 1.0832 7.5742 3.6547 8.2237 7.7929 0.31945 2.0349 0.17806 4.1762-0.39014 5.911-0.22868 0.69807-0.60677 1.485-1.0013 2.0835-0.34612 0.52517-1.2078 1.4377-1.7521 1.8553-1.6098 1.2354-4.1222 2.1149-7.138 2.4988-1.6269 0.20708-3.5276 0.2636-8.9442 0.2658l-5.2092 2e-3zm90.621 38.728v-4.8492l-30.952-0.0383-0.0381-53.229h-11.214v31.432l0.0505 31.483c0.0278 0.0278 9.5237 0.0505 21.102 0.0505h21.052zm35.27 4.7706c7.6724-0.38688 13.736-2.4723 18.64-6.4108 1.0816-0.86856 2.859-2.6461 3.7018-3.7018 2.1033-2.6348 3.7693-5.7576 4.8708-9.1303 2.3376-7.1571 2.359-17.195 0.0518-24.356-1.0371-3.2189-2.812-6.5654-4.8044-9.0586-0.82241-1.0291-2.4024-2.6485-3.3509-3.4345-4.3092-3.5708-9.5161-5.6956-15.888-6.4838-2.3754-0.29384-3.2457-0.31066-16.069-0.31066h-12.496v62.965l11.915-1e-3zm-14.13-31.403v-21.945l7.0277 0.0299c7.4231 0.0316 7.303 0.0264 9.3387 0.39908 7.3468 1.3445 12.284 5.9811 14.159 13.297 0.67246 2.6236 0.87582 4.4812 0.87901 8.0283 2e-3 2.7558-0.053 3.6504-0.34567 5.5691-1.3572 8.8992-6.4072 14.446-14.617 16.055-2.2399 0.43901-2.3612 0.445-9.6797 0.47925l-6.7625 0.0317zm-172.3-106.23v-37.317h-79.104v74.634h79.104zm-58.267 3e-3v-26.788h9.3788l10.286 0.11244c7.5506 0.93622 12.454 4.2985 14.277 9.7903 0.54918 1.6544 0.72269 2.8991 0.66344 4.7588-0.0617 1.9349-0.40772 3.401-1.1546 4.8908-1.023 2.041-2.8591 3.9551-4.9084 5.1171-0.3615 0.20503-0.65731 0.38976-0.65731 0.4106 0 0.0208 0.32688 0.13229 0.72641 0.24769 3.0029 0.86719 5.6929 2.4692 7.4597 4.4425 1.1578 1.2931 2.2246 3.1474 2.7581 4.7937 0.48183 1.4869 0.60905 2.3305 0.6095 4.0411 7.6e-4 1.6142-0.08 2.3677-0.39234 3.6749-1.2776 5.3482-5.5624 9.0362-12.337 10.618-0.54175 0.12653-1.5476 0.31952-2.2352 0.42893l-1.2502 0.19882-23.224 0.0493zm21.761 18.414c3.7318-0.46296 6.3685-2.1037 7.3797-4.5924 0.3596-0.88499 0.50531-1.6904 0.50645-2.7996 9.1e-4 -0.89144-0.0248-1.1085-0.20034-1.6894-0.36408-1.205-0.93735-2.152-1.8014-2.9754-1.1821-1.1264-2.6818-1.8303-4.7856-2.2459-0.82756-0.16351-1.0077-0.16836-7.1191-0.19336l-6.27-0.0257v14.631h5.7046c4.5117 0 5.8888-0.0229 6.5856-0.10926zm-4.373-23.116c1.5489-0.23345 3.0474-0.7477 4.2284-1.451 0.79082-0.47091 1.8876-1.5441 2.3102-2.2605 1.0944-1.855 1.241-4.3819 0.36037-6.2113-0.89121-1.8514-2.5737-3.0266-5.1715-3.6123-0.70966-0.16003-0.93387-0.16844-5.1932-0.19602l-4.4515-0.0288v13.875l3.5802-7.6e-4c2.8008 0 3.745-0.0253 4.337-0.11456zm132.16 4.6801 0.019-37.298h-79.18v74.634l79.142-0.038zm-58.324 0.0192v-26.79l9.7554 0.0238c10.687 0.0261 9.8892-5e-3 12.293 0.48447 4.0666 0.82855 7.434 2.6397 9.5125 5.1163 1.4454 1.7222 2.3466 3.589 2.8512 5.906 0.15063 0.69179 0.17162 1.0053 0.17389 2.605 3e-3 1.9994-0.064 2.5176-0.50319 3.8994-0.55972 1.7607-1.3944 3.0901-2.8597 4.5546-1.0038 1.0032-1.9724 1.7404-2.9802 2.2682-0.19799 0.10365-0.35946 0.20556-0.35885 0.22648 6e-4 0.0209 0.38415 0.15063 0.85241 0.28838 2.7784 0.81696 5.0121 2.0882 6.8085 3.8748 1.9639 1.9531 3.0929 4.0499 3.715 6.8994 0.19965 0.91462 0.27103 2.9059 0.14661 4.0939-0.41257 3.9399-2.2162 7.178-5.2414 9.4095-2.5213 1.8599-5.5962 3.0279-9.6918 3.6811l-1.2502 0.19943-23.224 0.0483zm22.428 18.346c3.4877-0.69421 5.5902-2.0628 6.6316-4.3169 0.55699-1.2056 0.779-2.9288 0.53343-4.1408-0.67542-3.3332-3.4186-5.4341-7.7114-5.9057-0.45689-0.0502-2.9479-0.0808-6.5731-0.0808h-5.8373v14.632l6.1563-0.0298c5.3984-0.0261 6.2356-0.0455 6.8004-0.15791zm-4.3568-23.149c2.2644-0.50456 3.8916-1.336 5.0606-2.5857 1.1722-1.2531 1.6342-2.4278 1.7003-4.3228 0.0334-0.95767 0.0172-1.1876-0.12252-1.74-0.64056-2.5332-2.4935-4.1149-5.6128-4.7913-0.6739-0.14608-1.0222-0.15866-5.174-0.18647l-4.4515-0.0299v13.885l3.9211-0.0299c3.7174-0.0283 3.9605-0.0386 4.6788-0.19867zm131.48 4.7839 0.019-37.298h-79.18v37.266l0.0506 37.317c0.0278 0.0278 17.835 0.0421 39.571 0.0316l39.52-0.019zm-38.927 27.481c-5.7457-0.49076-11.074-2.0031-14.813-4.2044-4.5166-2.6591-8.2548-6.6316-10.554-11.216-2.2434-4.4724-3.3256-10.442-2.7105-14.951 0.79059-5.7945 3.1746-10.976 6.9102-15.018 3.5258-3.8155 8.0496-6.4816 14.045-8.2777 3.0361-0.90947 7.7303-1.383 11.832-1.1933 1.0327 0.0477 2.2624 0.12229 2.7327 0.16571 3.3528 0.30937 8.6958 1.7125 13.244 3.4778l2.0458 0.79081v4.9087l-0.037 4.9087c-0.0204 0-0.38688-0.19397-0.81453-0.43098-1.0762-0.59661-3.3001-1.6613-4.5458-2.1765-4.6987-1.943-9.1188-3.0276-13.494-3.3112-3.7431-0.24262-8.053 0.59646-11.664 2.271-0.96964 0.44962-2.1698 1.1542-3.1624 1.8566-1.0909 0.77203-2.939 2.5832-3.7293 3.6548-2.1856 2.9634-3.404 6.5903-3.6628 10.904-0.15942 2.6559 0.69474 6.369 2.0944 9.1047 1.4332 2.8012 3.6186 5.1838 6.2763 6.8426 4.6016 2.8721 11.818 4.0996 17.812 3.03 4.8028-0.85689 9.548-2.7172 14.416-5.6515l1.0424-0.62836-0.0389 10.244-0.94713 0.47879c-4.4036 2.2261-9.6275 3.7128-15.186 4.322-1.258 0.1379-5.8792 0.2023-7.0907 0.0988z" fill="#b90005" stroke-width=".07577"/>
 <path d="m327.37 351.29c-5.7679-0.38037-10.921-1.6758-15.493-3.8944l-1.4421-0.69989v-5.1021l0.0477-5.1022c0.0262 0 0.52918 0.27921 1.1176 0.62056 2.203 1.2778 4.9989 2.5149 7.3967 3.2728 5.0019 1.581 10.968 2.1048 15.571 1.3671 2.8587-0.45811 5.2116-1.5056 6.8784-3.0622 1.6936-1.5816 2.5188-3.6473 2.4406-6.1091-0.067-2.1106-0.6151-3.4936-1.9538-4.9302-0.57351-0.61549-1.3537-1.204-2.4309-1.8336-1.7777-1.0391-3.4494-1.6076-8.4861-2.8859-7.6835-1.95-11.53-3.4876-15.097-6.0349-2.4544-1.7526-4.3256-4.3898-5.1529-7.2623-0.49463-1.7174-0.58972-2.5254-0.59321-5.0416-3e-3 -2.5022 0.0685-3.1782 0.53017-4.9795 1.4822-5.7832 6.0279-10.206 12.708-12.365 4.9151-1.5884 11.316-1.9387 17.332-0.94834 3.7583 0.61874 7.7585 1.8606 10.622 3.2977l0.74331 0.37301v4.9623l-0.0428 4.9623c-0.0236 0-0.33354-0.17169-0.68883-0.38157-3.5104-2.0735-8.6056-3.6925-13.513-4.294-0.86931-0.10653-1.6681-0.13434-3.8264-0.13312-3.0249 2e-3 -3.7954 0.0783-5.6828 0.56532-3.6605 0.9444-6.1567 3.0578-6.8601 5.8079-0.49258 1.9261-0.29982 4.0836 0.51024 5.7094 0.61685 1.2382 1.8556 2.3218 3.7149 3.2497 1.292 0.64481 3.9381 1.4806 7.9389 2.5077 4.5406 1.1657 8.3159 2.3419 10.456 3.258 3.4588 1.4803 6.4811 3.6564 8.1293 5.8534 1.9637 2.6176 2.8036 5.2388 2.9444 9.1882 0.19609 5.5063-1.508 10.096-5.0243 13.532-3.9604 3.87-9.4808 5.9737-17.074 6.5066-0.99699 0.0699-4.7938 0.0874-5.7207 0.0263zm-225.89-32.719 0.019-31.484 5.6376 7e-5 5.6525 0.0199c8e-3 0.0109 0.9863 1.4349 2.1735 3.1644 7.6452 11.137 18.431 27.38 26.491 39.893l2.2498 3.4854 0.0758-46.563h10.684v62.929l-11.256 0.0389-0.47781-0.73921-7.3873-11.385-3.3193-5.0766-18.62-27.993-1.1438-1.6633-0.0381 46.857h-10.759zm68.134 31.389c-0.0198-0.0521-0.0273-14.22-0.0166-31.483l0.0194-31.388 42.053 2e-3 0.039 9.3954-30.878 0.0383v16.215l27.543 0.0383v9.4709h-27.58v18.336l32.584 0.0383v9.3955l-21.863 0.0191c-17.451 0.0152-21.87-8e-5 -21.899-0.0758zm68.803 0c-0.0178-0.0521-0.33847-1.1176-0.71247-2.3678-3.7878-12.66-7.1345-24.647-10.465-37.482l-5.6606-22.992c0.0333-0.0333 12.042-0.0442 12.06-0.0111 6e-3 0.0109 0.22125 1.0814 0.4788 2.3789l5.4736 25.979 5.4295 22.39c0.0564 0.15276 2.7317-9.6855 4.8316-17.768l7.6896-30.27c0.0533-0.0994 0.74763-0.11365 5.5439-0.11365h5.483l0.44621 1.8185 4.4458 17.768 7.4256 27.883c0.0388 0 1.7767-6.8662 2.6847-10.608 2.4637-10.151 5.7145-24.922 8.1464-37.014 0.2514-1.2502 0.48288-2.3167 0.5144-2.3699 0.0457-0.0772 1.2445-0.0964 5.9295-0.0948 5.5524 2e-3 5.8709 9e-3 5.8484 0.13464-0.0565 0.31566-1.1225 4.652-2.4819 10.096-4.2842 17.158-8.7172 33.496-13.445 49.554l-0.84689 2.8414-0.0995 0.30308h-11.814l-0.17617-0.60616-1.7595-6.1374-10.629-38.422c-0.0122-0.0122-0.44318 1.5528-0.95782 3.4776l-8.3801 30.626-3.1152 10.968c-0.0377 0.12479-0.38711 0.1326-5.9474 0.1326-4.658 0-5.9142-0.02-5.9398-0.0947zm-62.436-86.248c-3.5354-0.33316-6.7032-1.0828-9.4475-2.2357-7.0336-2.9549-12.086-8.0128-15.143-15.158-1.3311-3.112-2.1367-6.3992-2.5889-10.564-0.14033-1.2927-0.16526-1.9719-0.16927-4.622-6e-3 -3.7607 0.13623-5.5146 0.68413-8.4484 0.83143-4.4523 2.5007-8.5942 4.8862-12.123 3.4458-5.0978 8.4914-8.8585 14.428-10.754 6.6873-2.1352 15.162-2.1044 21.734 0.079 4.1809 1.389 7.7802 3.6142 10.886 6.7301 2.8441 2.8531 4.8204 5.8819 6.308 9.6673 1.1621 2.9571 1.8555 5.6261 2.2878 8.806 0.49599 3.6483 0.4794 8.6799-0.0405 12.256-1.4556 10.014-6.1904 17.718-13.633 22.181-3.726 2.2344-7.7582 3.5472-12.654 4.1196-1.4499 0.16957-6.0146 0.20928-7.5392 0.0656zm6.4784-9.7708c4.1012-0.56896 7.3208-2.1168 10.003-4.8088 2.9643-2.9754 4.9094-7.1451 5.6805-12.177 0.72777-4.7494 0.52539-10.235-0.53078-14.385-1.5578-6.1206-4.7856-10.389-9.6591-12.772-2.2586-1.1047-4.448-1.6455-7.3268-1.8098-5.5868-0.31884-10.472 1.3411-14.033 4.7678-1.538 1.4802-2.6705 3.0543-3.6814 5.1165-1.3154 2.6832-2.0403 5.2781-2.4663 8.8272-0.16496 1.3746-0.23307 5.4024-0.11949 7.0663 0.46613 6.8282 2.59 12.055 6.3811 15.703 2.6646 2.5642 5.9717 4.0546 9.9938 4.504l0.98502 0.11092c0.61828 0.0711 3.9489-0.0288 4.7735-0.1432zm-104.52 8.4661c-5.8972-19.565-11.307-39.582-15.956-59.044l-0.88136-3.6559c-0.03743-0.12548 0.28422-0.1326 6.0153-0.1326h6.0548l0.69648 3.4665c3.593 17.882 6.0985 29.083 9.716 43.432l1.0056 3.9215c0.0593 0.0593 3.6389-13.293 5.5399-20.663l1.404-5.4176 3.4492-13.601 2.1182-8.5242 10.952-0.0389 0.0719 0.17102c0.0396 0.094 0.36498 1.3814 0.7233 2.8609l4.3144 17.238 2.1756 8.3726 0.86697 3.296 4.1621 15.487c0.0204 0.058 0.0528 0.0899 0.072 0.0706 0.0532-0.0532 1.9715-7.6898 2.9088-11.58 2.3776-9.8674 5.6191-24.634 7.967-36.294l0.41401-2.0268 0.0402-0.17049h11.82l-0.04 0.17049c-1.3555 5.7801-4.8237 19.447-7.3598 29.001l-9.5091 33.794h-11.805l-0.11964-0.39779-2.0792-7.255-4.2216-14.927-5.3627-19.7c-0.81817-3.0878-0.80938-3.0587-0.85787-2.8414-0.14131 0.63275-3.536 13.215-4.9064 18.185l-1.8842 6.8572-4.6199 16.518-1.0081 3.5233-5.918 0.0194c-5.5878 0.0183-5.9202 0.012-5.958-0.11365zm145.21-31.353v-31.486l12.635 0.0264c13.451 0.028 13.245 0.0229 15.779 0.39901 5.9901 0.88894 10.41 2.8709 13.679 6.1338 2.6434 2.6386 4.1514 5.8289 4.6961 9.9355 0.26928 2.0301 0.22231 4.5996-0.12101 6.6213-1.038 6.1127-4.8826 10.772-10.98 13.306l-0.89955 0.38203c-0.0155 0.0109 0.738 1.2063 1.6744 2.6564 4.6417 7.1877 8.9177 14.083 12.756 20.57l1.6994 2.9066c0 0.0189-2.894 0.0342-6.431 0.0342h-6.4311l-0.47515-0.85242c-1.8116-3.2496-3.7223-6.5306-7.7815-13.362-4.7672-8.0225-5.9829-9.9975-6.1356-9.9674-0.0752 0.0148-2.9411 0.0438-6.3687 0.0644l-6.2321 0.0374v24.08h-11.062zm22.867-1.6253c2.9385-0.14957 5.0662-0.55934 7.0823-1.3638 2.2167-0.88455 3.7512-2.2345 4.6953-4.1304 1.3567-2.7249 1.3648-7.0035 0.0183-9.7865-1.2239-2.5297-3.7185-4.2359-7.3893-5.054-2.4357-0.54282-3.1352-0.58669-10.093-0.63313l-6.1184-0.0408v21.084l5.2092-2e-3 6.5954-0.0727zm36.663 33.06c-0.0278-0.0278-0.0505-14.195-0.0505-31.483v-31.432h11.214l0.0381 53.229 30.952 0.0383v9.6982h-21.052c-11.578 0-21.074-0.0227-21.102-0.0505zm52.079-31.432v-31.483h12.496l13.658 0.078c8.4132 0.56494 15.209 3.3962 20.031 8.3456 2.0587 2.1129 3.6039 4.3669 5.0036 7.2988 2.0776 4.352 3.1392 9.6318 3.1383 15.609-1e-3 7.9106-1.7699 14.393-5.3856 19.738-0.9053 1.3383-1.8142 2.4325-3.0216 3.6378-5.0702 5.061-11.802 7.7373-20.575 8.1797-0.88197 0.0445-6.492 0.0768-13.43 0.0774l-11.915 1e-3zm25.686 21.759c3.6756-0.47948 6.5795-1.4986 9.0215-3.166 4.1045-2.8025 6.6574-7.2614 7.5651-13.213 0.29263-1.9187 0.34817-2.8134 0.34567-5.5691-3e-3 -3.5471-0.20663-5.4047-0.87901-8.0283-1.8752-7.3163-6.8121-11.953-14.159-13.297-2.0357-0.37256-1.9156-0.36741-9.3387-0.39908l-7.0277-0.0299v43.89l6.7625-0.0317c5.6816-0.0266 6.9139-0.0514 7.7096-0.15526zm-265.88-127.99v-37.317h79.104v74.634h-79.104zm45.311 26.542c2.8745-0.4572 5.0761-1.1216 7.1603-2.1608 3.4259-1.7082 5.7753-4.1984 6.9541-7.3709 0.60836-1.6372 0.85037-3.1152 0.84984-5.1903 0-1.2782-0.0276-1.6498-0.17397-2.3742-0.48652-2.4066-1.6238-4.7075-3.1936-6.4606-1.7667-1.9733-4.4567-3.5753-7.4597-4.4425-0.39954-0.1154-0.72641-0.22685-0.72641-0.24769 0-0.0208 0.2958-0.20564 0.6573-0.4106 2.0493-1.162 3.8854-3.0761 4.9084-5.1171 0.74679-1.4898 1.0929-2.9559 1.1546-4.8908 0.0593-1.8597-0.11426-3.1044-0.66344-4.7588-1.6704-5.0322-6.0409-8.3566-12.522-9.525-2.1056-0.37953-2.0449-0.37764-12.04-0.37764h-9.3788v53.575l23.224-0.0493zm-15.003-15.332v-7.3155l6.27 0.0257c6.1113 0.025 6.2915 0.0299 7.1191 0.19336 3.5749 0.70626 5.7419 2.424 6.587 5.2213 0.17549 0.58085 0.20125 0.79801 0.20034 1.6894-1e-3 1.1092-0.14685 1.9146-0.50645 2.7996-0.85916 2.1144-2.9045 3.6295-5.8415 4.327-1.458 0.34627-2.0736 0.37468-8.1238 0.37468h-5.7046zm0-22.732v-6.9374l4.4515 0.0288c4.2594 0.0275 4.4836 0.036 5.1932 0.19602 2.0865 0.47038 3.5808 1.3184 4.5292 2.5704 0.81431 1.075 1.206 2.2643 1.207 3.6647 1e-3 2.0053-0.59184 3.4815-1.9291 4.8009-1.0403 1.0264-2.3712 1.7445-4.0719 2.1972-1.421 0.37825-1.9465 0.41598-5.7997 0.41644l-3.5802 7.6e-4v-6.9374zm60.919 11.522v-37.317h79.18l-0.038 74.596-79.142 0.038zm45.311 26.542c5.3634-0.85545 9.0864-2.6232 11.769-5.5883 1.7404-1.9237 2.8573-4.5718 3.1642-7.5023 0.12442-1.1878 0.053-3.1792-0.14661-4.0939-0.45402-2.0797-1.2266-3.8369-2.3724-5.3953-0.6395-0.86985-2.0742-2.2742-2.9807-2.9176-1.4957-1.0617-3.2493-1.8964-5.1703-2.4613-0.46826-0.13768-0.85181-0.26747-0.85242-0.28838-6e-4 -0.0209 0.16094-0.12283 0.35885-0.22648 1.0078-0.52782 1.9764-1.265 2.9802-2.2682 1.4653-1.4644 2.3-2.7939 2.8597-4.5546 0.43924-1.3818 0.50607-1.8999 0.50319-3.8994-2e-3 -1.5997-0.0233-1.9131-0.17389-2.605-1.2676-5.8201-5.5445-9.6329-12.364-11.022-2.4042-0.48985-1.6062-0.45841-12.293-0.48447l-9.7554-0.0238v53.579l23.224-0.0483zm-15.003-15.324v-7.3159h5.8373l6.5731 0.0808c4.2928 0.4716 7.036 2.5725 7.7114 5.9057 0.24557 1.212 0.0236 2.9352-0.53342 4.1408-0.8903 1.9269-2.7449 3.3312-5.2868 4.0033-1.7136 0.45303-1.4736 0.43916-8.1452 0.47137l-6.1563 0.0298zm0-22.735v-6.9423l4.4515 0.0298c4.1518 0.0278 4.5002 0.0404 5.174 0.18647 3.1193 0.6764 4.9723 2.2581 5.6128 4.7913 0.13972 0.55244 0.15586 0.78241 0.12252 1.74-0.0661 1.8949-0.52812 3.0697-1.7003 4.3228-1.1691 1.2498-2.7962 2.0811-5.0606 2.5857-0.7183 0.16011-0.96145 0.17041-4.6788 0.19867l-3.9211 0.0299zm60.97 48.783c-0.0278-0.0278-0.0506-16.82-0.0506-37.317v-37.266h79.18l-0.038 74.596-39.52 0.019c-21.736 0.0105-39.543-4e-3 -39.571-0.0316zm47.274-9.9029c5.5583-0.60919 10.782-2.096 15.186-4.322l0.94713-0.47879 0.0389-10.244-1.0424 0.62836c-6.433 3.8778-13.088 6.0291-18.663 6.0328-5.1739 3e-3 -10.065-1.2267-13.565-3.4112-1.5977-0.99722-3.5024-2.7065-4.5183-4.0547-2.2024-2.9229-3.4706-6.273-3.8136-10.074-0.24762-2.7443 0.45538-6.6138 1.7205-9.4696 0.85727-1.9351 1.9756-3.5299 3.6146-5.154 2.7602-2.7353 6.0532-4.4015 10.694-5.4108 0.87129-0.1895 2.2955-0.38211 3.4704-0.46925 3.1239-0.23178 7.5849 0.41886 11.769 1.7166 3.024 0.93796 6.4292 2.3723 8.9514 3.7704 0.42764 0.23708 0.79414 0.43098 0.81453 0.43098 0.0204 0 0.0371-2.2089 0.0371-4.9087v-4.9087l-0.32203-0.12335-1.7238-0.66746c-4.5477-1.7653-9.8906-3.1683-13.244-3.4778-5.1992-0.47978-10.867-0.0799-14.564 1.0276-8.7953 2.6346-14.728 7.3274-18.282 14.46-2.0606 4.136-3.125 9.1682-2.7886 13.184 0.50554 6.0353 2.388 10.974 5.8198 15.268 2.943 3.6822 7.0423 6.7316 11.084 8.2449 3.7087 1.3888 7.1695 2.1582 11.29 2.5101 1.2113 0.1035 5.8326 0.039 7.0907-0.0988z" fill="#fff" stroke-width=".07577"/>
</svg>
