<?xml version="1.0" encoding="UTF-8" standalone="no"?>
<!-- Generator: Adobe Illustrator 12.0.0, SVG Export Plug-In  -->

<svg
   xmlns:dc="http://purl.org/dc/elements/1.1/"
   xmlns:cc="http://creativecommons.org/ns#"
   xmlns:rdf="http://www.w3.org/1999/02/22-rdf-syntax-ns#"
   xmlns:svg="http://www.w3.org/2000/svg"
   xmlns="http://www.w3.org/2000/svg"
   xmlns:sodipodi="http://sodipodi.sourceforge.net/DTD/sodipodi-0.dtd"
   xmlns:inkscape="http://www.inkscape.org/namespaces/inkscape"
   version="1.1"
   width="1000"
   height="406.2688"
   viewBox="-0.959 -0.76 1000 406.2688"
   enable-background="new -0.959 -0.76 23 13"
   xml:space="preserve"
   id="svg2"
   inkscape:version="0.48.2 r9819"
   sodipodi:docname="BBC_Three.svg"><metadata
   id="metadata24"><rdf:RDF><cc:Work
       rdf:about=""><dc:format>image/svg+xml</dc:format><dc:type
         rdf:resource="http://purl.org/dc/dcmitype/StillImage" /><dc:title></dc:title></cc:Work></rdf:RDF></metadata><sodipodi:namedview
   pagecolor="#ffffff"
   bordercolor="#666666"
   borderopacity="1"
   objecttolerance="10"
   gridtolerance="10"
   guidetolerance="10"
   inkscape:pageopacity="0"
   inkscape:pageshadow="2"
   inkscape:window-width="1920"
   inkscape:window-height="1028"
   id="namedview22"
   showgrid="false"
   fit-margin-left="0.5"
   fit-margin-bottom="0.5"
   fit-margin-top="0.5"
   fit-margin-right="0.5"
   inkscape:zoom="0.4375"
   inkscape:cx="778.69926"
   inkscape:cy="-168.54411"
   inkscape:window-x="-8"
   inkscape:window-y="-8"
   inkscape:window-maximized="1"
   inkscape:current-layer="g2890"><inkscape:grid
     type="xygrid"
     id="grid3078"
     empspacing="5"
     visible="true"
     enabled="true"
     snapvisiblegridlinesonly="true" /></sodipodi:namedview>
<defs
   id="defs4">
<inkscape:perspective
   sodipodi:type="inkscape:persp3d"
   inkscape:vp_x="0 : 0.5 : 1"
   inkscape:vp_y="0 : 1000 : 0"
   inkscape:vp_z="1 : 0.5 : 1"
   inkscape:persp3d-origin="0.5 : 0.33333333 : 1"
   id="perspective2908" /><inkscape:perspective
   sodipodi:type="inkscape:persp3d"
   inkscape:vp_x="0 : 0.5 : 1"
   inkscape:vp_y="0 : 1000 : 0"
   inkscape:vp_z="1 : 0.5 : 1"
   inkscape:persp3d-origin="0.5 : 0.33333333 : 1"
   id="perspective2882" /><inkscape:perspective
   sodipodi:type="inkscape:persp3d"
   inkscape:vp_x="0 : 42.5 : 1"
   inkscape:vp_y="0 : 1000 : 0"
   inkscape:vp_z="295 : 42.5 : 1"
   inkscape:persp3d-origin="147.5 : 28.333333 : 1"
   id="perspective23" />
 <style
   id="style6"
   type="text/css">
   
    .fil0 {fill:#C90302}
   
  </style>
  <inkscape:perspective
   id="perspective17"
   inkscape:persp3d-origin="526.18109 : 129.92126 : 1"
   inkscape:vp_z="1052.3622 : 194.8819 : 1"
   inkscape:vp_y="0 : 1000 : 0"
   inkscape:vp_x="0 : 194.8819 : 1"
   sodipodi:type="inkscape:persp3d" /></defs>








<g
   style="fill:#501616;fill-rule:evenodd"
   id="layer1"
   transform="matrix(0.43026073,0,0,0.43026073,-260.74058,-184.82458)"><g
     style="fill:#501616"
     id="g2890"
     transform="matrix(1.5730708,0,0,1.5730708,588.02291,-385.20449)"><path
       inkscape:connector-curvature="0"
       d="m 1356.1047,849.31994 -4.1438,-16.05231 -19.9673,-5.60235 -14.3736,26.9806 2.4887,97.35313 11.8849,43.99066 18.9022,-5.02198 5.2089,-16.48152 0,-51.58572 0,-22.3727 z"
       id="path15615"
       style="fill:#666666;fill-opacity:1;fill-rule:nonzero;stroke:none"
       sodipodi:nodetypes="ccccccccccc" /><path
       inkscape:connector-curvature="0"
       d="m 1232.351,910.81412 -33.8704,1.31083 2.3912,46.83314 12.2668,37.18275 24.1489,-21.73025 -0.076,-51.51014 z"
       id="path15619"
       style="fill:#666666;fill-opacity:1;fill-rule:nonzero;stroke:none"
       sodipodi:nodetypes="ccccccc" /><path
       inkscape:connector-curvature="0"
       d="m 1237.8544,900.52775 -0.4535,-50.48976 -24.1489,-22.37271 -12.5539,29.83603 6.1078,53.09847 23.899,-1.80212 z"
       id="path15623"
       style="fill:#666666;fill-opacity:1;fill-rule:nonzero;stroke:none"
       sodipodi:nodetypes="ccccccc" /><path
       inkscape:connector-curvature="0"
       d="m 1307.9581,849.9624 24.1489,-22.29712 -0.1512,168.39998 -23.9977,-25.39605 0,-47.76876 -94.7061,0 0,73.35376 -24.1111,-25.35825 0,-120.85797 24.1111,-22.37271 0,72.86247 94.7061,0 0,-50.56535 z"
       id="path15603"
       style="fill:#000000;fill-rule:nonzero;stroke:none" /><path
       inkscape:connector-curvature="0"
       d="m 1331.9558,995.98967 0,0 24.1489,-21.5035 30.6869,0 c 12.0556,0 21.428,-0.79362 28.1171,-2.34308 6.7269,-1.70063 12.2445,-3.77918 16.7039,-6.27343 4.4973,-2.60763 8.541,-5.78214 12.2824,-9.44794 11.9043,-12.05556 17.8377,-27.32342 17.8377,-45.76579 0,-18.10224 -6.1223,-32.84102 -18.329,-44.21633 -4.4973,-4.27047 -9.6747,-7.82289 -15.5702,-10.5439 -5.7822,-2.75879 -11.2998,-4.535 -16.5528,-5.40421 -5.1775,-0.86921 -13.5673,-1.32271 -25.2071,-1.32271 l -30.12,0 -23.9222,-21.5035 56.612,0 c 22.9018,0 41.0797,3.47684 54.3823,10.35493 13.3783,6.8781 23.9978,16.96849 31.8963,30.34677 7.8229,13.34048 11.8288,27.8903 11.8288,43.68725 0,11.22414 -2.2297,21.99479 -6.538,32.31193 -4.3838,10.27935 -10.5817,19.34937 -18.5935,27.17226 -8.163,8.04964 -17.7243,14.09632 -28.5706,18.17782 -6.349,2.49426 -12.2445,4.19489 -17.4976,5.0641 -5.2908,0.83141 -15.4568,1.20933 -30.4601,1.20933 l -53.1352,0 53.1352,0 c 15.0033,0 25.1693,-0.37792 30.4601,-1.20933 5.2531,-0.86921 11.1486,-2.56984 17.4976,-5.0641 10.8463,-4.0815 20.4076,-10.12818 28.5706,-18.17782 8.0118,-7.82289 14.2097,-16.89291 18.5935,-27.17226 4.3083,-10.31714 6.538,-21.08779 6.538,-32.31193 0,-15.79695 -4.0059,-30.34677 -11.8288,-43.68725 -7.8985,-13.37828 -18.518,-23.46867 -31.8963,-30.34677 -13.3026,-6.87809 -31.4805,-10.35493 -54.3823,-10.35493 l -56.612,0 23.9222,21.5035 30.12,0 c 11.6398,0 20.0296,0.4535 25.2071,1.32271 5.253,0.86921 10.7706,2.64542 16.5528,5.40421 5.8955,2.72101 11.0729,6.27343 15.5702,10.5439 12.2067,11.37531 18.329,26.11409 18.329,44.21633 0,18.44237 -5.9334,33.71023 -17.8377,45.76579 -3.7414,3.6658 -7.7851,6.84031 -12.2824,9.44794 -4.4594,2.49425 -9.977,4.5728 -16.7039,6.27343 -6.6891,1.54946 -16.0615,2.34308 -28.1171,2.34308 l -30.6869,0 -24.1489,21.5035 z"
       id="path15607"
       style="fill:#501616;fill-rule:nonzero;stroke:none" /><path
       inkscape:connector-curvature="0"
       d="m 1331.9558,995.98967 24.1489,-21.5035 30.6869,0 c 12.0556,0 21.428,-0.79362 28.1171,-2.34308 6.7269,-1.70063 12.2445,-3.77918 16.7039,-6.27343 4.4973,-2.60763 8.541,-5.78214 12.2824,-9.44794 11.9043,-12.05556 17.8377,-27.32342 17.8377,-45.76579 0,-18.10224 -6.1223,-32.84102 -18.329,-44.21633 -4.4973,-4.27047 -9.6747,-7.82289 -15.5702,-10.5439 -5.7822,-2.75879 -11.2998,-4.535 -16.5528,-5.40421 -5.1775,-0.86921 -13.5673,-1.32271 -25.2071,-1.32271 l -30.12,0 -23.9222,-21.5035 56.612,0 c 22.9018,0 41.0797,3.47684 54.3823,10.35493 13.3783,6.8781 23.9978,16.96849 31.8963,30.34677 7.8229,13.34048 11.8288,27.8903 11.8288,43.68725 0,11.22414 -2.2297,21.99479 -6.538,32.31193 -4.3838,10.27935 -10.5817,19.34937 -18.5935,27.17226 -8.163,8.04964 -17.7243,14.09632 -28.5706,18.17782 -6.349,2.49426 -12.2445,4.19489 -17.4976,5.0641 -5.2908,0.83141 -15.4568,1.20933 -30.4601,1.20933 l -53.1352,0 z"
       id="path15611"
       style="fill:#000000;fill-rule:nonzero;stroke:none" /></g></g><g
   id="g3089"
   transform="matrix(5.5249937,0,0,5.5249937,-720.74873,-5755.6376)"><path
     inkscape:connector-curvature="0"
     id="path6"
     d="m 213.18115,1041.6985 h 21.86801 v 20.6062 h -21.86801 v -20.6062 z m 3.29701,10.0178 c 0,0.1902 0,0.317 0,0.5072 0,0.1268 0,0.1902 0,0.317 0,0.1268 0,0.2536 0,0.3804 v 0.063 c 0.0634,0.1269 0.0634,0.2537 0.0634,0.4439 0.0697,0 0.0697,0.063 0.0697,0.1268 0,0.1268 0.0634,0.2536 0.0634,0.317 0.0697,0.1902 0.0697,0.317 0.13315,0.4438 0.0697,0.1902 0.13314,0.317 0.19021,0.5073 0.1268,0.2536 0.25361,0.4438 0.31702,0.6974 0.13314,0.1268 0.19021,0.2536 0.25361,0.3804 0.0634,0.1268 0.13315,0.1902 0.19021,0.317 0.0571,0.1268 0.17753,0.2537 0.25362,0.3171 0.12681,0.1268 0.18387,0.2536 0.31702,0.3804 0.13315,0.1268 0.19021,0.2536 0.31702,0.3804 l 0.0634,0.063 c 0.13315,0.063 0.19021,0.1331 0.32336,0.2536 0.0697,0.063 0.18387,0.1332 0.25995,0.1902 0.12681,0.063 0.17754,0.1902 0.24728,0.2536 0.13315,0.063 0.24728,0.1269 0.38676,0.1903 0.12681,0.1268 0.25362,0.1902 0.38677,0.2536 0.32336,0.1902 0.64038,0.317 0.94472,0.4438 0.19021,0.063 0.31701,0.1331 0.43748,0.1902 0.13315,0.063 0.25996,0.063 0.44383,0.1268 0.24727,0.063 0.50089,0.1268 0.75451,0.1902 0.25361,0.063 0.44382,0.063 0.69744,0.1268 0.25361,0 0.50723,0.063 0.76085,0.063 0.1268,0 0.24727,0 0.38042,0 0.0697,0 0.13315,0 0.19021,0 0.44383,0 0.88766,0 1.26174,-0.063 h 0.0697 c 0.19021,0 0.31702,0 0.43749,-0.063 0.25995,0 0.44382,-0.063 0.6911,-0.063 0.13315,0 0.25361,-0.063 0.38676,-0.063 0.18387,-0.063 0.38677,-0.1268 0.50723,-0.1268 0.13315,-0.063 0.25996,-0.063 0.38677,-0.1268 0.13314,-0.063 0.25361,-0.063 0.38676,-0.1268 l 0.13315,-0.063 c 0.0634,0 0.19021,-0.063 0.25361,-0.063 0.12681,-0.063 0.31702,-0.1268 0.50724,-0.1902 0.0634,-0.063 0.18387,-0.1268 0.31701,-0.1902 0.13315,-0.063 0.25362,-0.063 0.31702,-0.1268 0.0634,-0.063 0.13315,-0.063 0.19022,-0.063 v -2.8532 c -0.0634,0.063 -0.0634,0.063 -0.13315,0.063 l -0.19655,0.1268 c -0.19022,0.1268 -0.38677,0.2536 -0.57064,0.317 -0.19021,0.1269 -0.3931,0.2537 -0.58332,0.3171 -0.38042,0.1902 -0.68476,0.317 -1.00178,0.4438 -0.64672,0.1902 -1.20467,0.317 -1.71824,0.4438 -0.0634,0 -0.0634,0 -0.12681,0 -0.19655,0.063 -0.33604,0.063 -0.45017,0.063 -0.19021,0 -0.38042,0 -0.50723,0.063 -0.13315,0 -0.19021,0 -0.31702,0 -0.19021,0 -0.38676,0 -0.64672,-0.063 -0.18387,0 -0.43114,0 -0.68476,-0.063 -0.44383,-0.063 -0.82425,-0.1902 -1.20467,-0.317 -0.0634,0 -0.12681,-0.063 -0.18388,-0.063 -0.0571,0 -0.13314,-0.063 -0.13314,-0.063 -0.0634,0 -0.13315,-0.063 -0.19022,-0.063 -0.1268,-0.063 -0.24727,-0.1268 -0.38042,-0.1902 -0.13315,-0.063 -0.19021,-0.1268 -0.25361,-0.1268 -0.0634,-0.063 -0.13315,-0.1268 -0.19022,-0.1268 -0.0634,-0.063 -0.13314,-0.1268 -0.25361,-0.1902 -0.0634,-0.063 -0.12681,-0.1268 -0.18387,-0.1902 l -0.13949,-0.063 v -0.063 l -0.0634,-0.063 -0.38042,-0.3805 c -0.0634,-0.063 -0.12681,-0.1268 -0.12681,-0.1902 -0.0634,-0.063 -0.13315,-0.1268 -0.19021,-0.2536 0,-0.063 -0.0634,-0.1268 -0.13315,-0.1902 -0.0571,-0.063 -0.0571,-0.1902 -0.12047,-0.2536 -0.0634,-0.1268 -0.0634,-0.1902 -0.12681,-0.2536 -0.0634,-0.1902 -0.13315,-0.3171 -0.13315,-0.4439 -0.0634,-0.1268 -0.0634,-0.1902 -0.13314,-0.317 -0.0507,-0.317 -0.12681,-0.5706 -0.12681,-0.7608 0,-0.1268 0,-0.1902 0,-0.2536 0,-0.1269 0,-0.2537 0,-0.3171 0,-0.063 0,-0.1268 0,-0.1902 0,-0.1268 0,-0.317 0.0761,-0.5706 0,-0.1268 0,-0.317 0.0634,-0.4438 0,-0.1268 0.0634,-0.1903 0.0634,-0.3171 0.0634,-0.1268 0.0634,-0.1902 0.12681,-0.317 0,-0.063 0.0761,-0.1268 0.0761,-0.1902 0.0634,-0.1268 0.1268,-0.1902 0.1268,-0.317 0.0634,-0.063 0.13315,-0.1268 0.13315,-0.1902 0.12681,-0.1902 0.24728,-0.317 0.31702,-0.5073 0.0634,-0.063 0.13315,-0.1268 0.13315,-0.1902 0.0634,-0.063 0.18387,-0.1268 0.18387,-0.1902 0.0634,0 0.13315,-0.063 0.13315,-0.1268 0.49455,-0.5072 1.07787,-0.8876 1.7119,-1.1413 0.0634,-0.063 0.19022,-0.063 0.25362,-0.1268 0.13315,-0.063 0.19021,-0.063 0.31702,-0.1268 0.0634,0 0.19021,-0.063 0.32336,-0.063 0.0634,-0.063 0.18387,-0.063 0.24727,-0.063 0.13315,-0.063 0.25996,-0.063 0.32336,-0.063 0.13315,-0.063 0.25996,-0.063 0.32336,-0.063 0.12681,0 0.25362,-0.063 0.31702,-0.063 0.25362,0 0.43749,0 0.64038,0 0.0634,0 0.13315,0 0.18387,0 0.13315,0 0.25362,0 0.44383,0 0.0634,0 0.18387,0 0.25362,0.063 0.17753,0 0.38042,0 0.50089,0.063 0.13315,0 0.32336,0 0.44383,0.063 0.18387,0 0.38676,0.063 0.57063,0.1268 0.0697,0 0.18387,0.063 0.24728,0.063 0.13314,0.063 0.25995,0.063 0.3931,0.1269 0.13315,0.063 0.19021,0.063 0.19021,0.063 0.18387,0.063 0.31702,0.1268 0.43115,0.1902 0.19021,0.063 0.32336,0.1268 0.50723,0.1902 0.13315,0.063 0.25361,0.1268 0.38676,0.1902 0.13315,0.063 0.18387,0.1268 0.25362,0.1268 0.18387,0.063 0.31702,0.1902 0.43114,0.2536 l 0.25996,0.1268 v -2.7897 c 0,0 -0.18387,-0.063 -0.44383,-0.1269 -0.13314,-0.063 -0.32336,-0.1268 -0.50723,-0.1902 -0.0888,-0.063 -0.20923,-0.063 -0.34872,-0.1268 -0.0634,0 -0.12681,-0.063 -0.24727,-0.063 -0.0697,-0.063 -0.18388,-0.063 -0.32336,-0.1268 -0.0634,0 -0.12681,-0.063 -0.24728,-0.063 h -0.0634 c -0.0634,-0.063 -0.19021,-0.063 -0.25361,-0.1268 -0.12681,0 -0.18388,0 -0.31702,-0.063 -0.0697,0 -0.13315,0 -0.19022,-0.063 -0.1268,0 -0.18387,0 -0.31702,-0.063 -0.13314,0 -0.25361,0 -0.38042,-0.063 -0.0761,0 -0.19021,0 -0.25995,0 l -0.12681,-0.063 c -0.18387,0 -0.31702,0 -0.50723,-0.063 -0.12681,0 -0.25362,0 -0.38677,0 -0.18387,0 -0.38676,0 -0.57063,0 -0.13315,0 -0.18387,0 -0.24728,0 -0.19021,0 -0.32336,0 -0.50723,0 -0.0761,0 -0.13315,0 -0.25995,0 -0.13315,0.063 -0.24728,0.063 -0.38677,0.063 H 223.554 l -0.1268,0.063 h -0.12681 c -0.0634,0 -0.13315,0 -0.19021,0 -0.0634,0.063 -0.13315,0.063 -0.25362,0.063 -0.50723,0.1268 -1.01446,0.2536 -1.45195,0.4439 -0.19021,0.063 -0.44383,0.1902 -0.64672,0.2536 -0.18387,0.1268 -0.31702,0.1902 -0.50723,0.317 -0.12681,0.063 -0.31702,0.1902 -0.43115,0.2536 -0.0761,0.063 -0.19021,0.1268 -0.25995,0.1902 -0.0634,0.063 -0.13315,0.063 -0.18387,0.1268 -0.12681,0.1268 -0.25362,0.1902 -0.38677,0.317 -0.10778,0.1269 -0.22825,0.2537 -0.3614,0.3171 -0.0634,0.1268 -0.12681,0.1902 -0.25361,0.317 -0.0634,0.063 -0.19022,0.1902 -0.25362,0.317 -0.0634,0.063 -0.18387,0.1902 -0.25362,0.317 -0.0634,0.063 -0.13314,0.1902 -0.18387,0.2536 -0.0697,0.063 -0.0697,0.1268 -0.13315,0.1903 -0.25361,0.3804 -0.44382,0.7608 -0.57063,1.1983 -0.25362,0.5136 -0.38042,1.0842 -0.44383,1.7182 -0.0571,0.1902 -0.0571,0.3805 -0.0571,0.5707 z" /><path
     inkscape:connector-curvature="0"
     id="path8"
     d="m 196.30938,1046.8976 h 1.7119 c 0.12681,0 0.25362,0 0.44383,0 0.31702,0.063 0.76085,0.1268 1.14127,0.2536 0.12681,0.1268 0.31702,0.1902 0.44383,0.3804 0.12681,0.063 0.25361,0.1902 0.31702,0.317 0.13315,0.2537 0.13315,0.5707 0.13315,0.6975 0.0634,0.1268 0.0634,0.1902 0.0634,0.1902 0,0 0,0.063 -0.0634,0.1902 0,0.1902 0,0.3804 -0.13315,0.5706 -0.0634,0.1902 -0.19021,0.3805 -0.31702,0.5707 -0.25362,0.1902 -0.50723,0.317 -0.82425,0.4438 -0.0634,0 -0.12681,0.063 -0.19021,0.063 -0.38043,0.1268 -0.69745,0.1268 -0.95106,0.1902 -0.12681,0 -0.25362,0 -0.31702,0 -0.12681,0 -0.19021,0 -0.19021,0 h -1.26808 v -3.8676 z" /><path
     inkscape:connector-curvature="0"
     id="path10"
     d="m 196.30938,1057.1056 v -4.0578 c 0,0 1.5851,0 2.53615,0 0.0634,0 0.19022,0.063 0.25362,0.063 0.12681,0 0.25361,0 0.31702,0 0.19021,0 0.31702,0.063 0.44383,0.063 0.31702,0.063 0.57063,0.1268 0.82425,0.2536 0.19021,0.063 0.32336,0.1268 0.50723,0.2536 0.0634,0.063 0.13315,0.1268 0.19021,0.1902 0.0634,0.063 0.0634,0.063 0.13315,0.1268 0.18387,0.1902 0.24727,0.4438 0.32336,0.634 0,0.1269 0.0634,0.3171 0.0634,0.3805 0,0.063 0,0.1268 0,0.1268 0,0 0,0 0,0.1268 -0.0634,0.1902 -0.0634,0.5072 -0.32336,0.8242 -0.0634,0.063 -0.13315,0.1902 -0.18387,0.3171 -0.25362,0.1902 -0.57064,0.3804 -0.95106,0.5072 -0.31702,0.1268 -0.69744,0.1902 -1.01446,0.1902 -0.12681,0 -0.25362,0 -0.38043,0 -0.0634,0 -0.12681,0 -0.12681,0 h -2.61224 z" /><path
     inkscape:connector-curvature="0"
     id="path12"
     d="m 187.87666,1041.6985 h 21.93141 v 20.6062 h -21.93141 v -20.6062 z m 5.76975,2.9165 v 14.8365 h 5.57955 c 0,0 2.72636,0.063 4.24172,-1.4582 1.19833,-1.2047 1.14761,-2.5996 1.14761,-2.5996 0,0 0.0697,-1.5217 -1.07787,-2.663 -0.94472,-0.951 -2.22547,-1.2046 -2.22547,-1.2046 0,0 0.57063,-0.2537 1.01446,-0.6975 0.18387,-0.1902 0.94472,-0.8242 0.94472,-2.4093 0,-1.5851 -1.07787,-2.4728 -1.07787,-2.4728 0,0 -1.14761,-1.3315 -3.74083,-1.3315 h -4.80602 z" /><path
     inkscape:connector-curvature="0"
     id="path14"
     d="m 172.53292,1050.7652 c -0.12681,0 -0.25362,0 -0.25362,0 h -1.26807 v -3.8676 h 1.77531 c 0.1268,0 0.25361,0 0.38042,0 0.38042,0.063 0.76085,0.1268 1.14127,0.2536 0.19021,0.1268 0.38042,0.1902 0.50723,0.3804 0.12681,0.063 0.19021,0.1902 0.25362,0.317 0.1268,0.2537 0.19021,0.5707 0.19021,0.6975 0,0.1268 0,0.1902 0,0.1902 0,0 0,0.063 0,0.1902 0,0.1902 -0.0634,0.3804 -0.12681,0.5706 -0.0634,0.1902 -0.18387,0.3805 -0.38042,0.5707 -0.19022,0.1902 -0.44383,0.317 -0.76085,0.4438 -0.0634,0 -0.12681,0.063 -0.19021,0.063 -0.38043,0.1268 -0.76085,0.1268 -1.01446,0.1902 -0.0571,0 -0.18388,0 -0.25362,0 z" /><path
     inkscape:connector-curvature="0"
     id="path16"
     d="m 171.01757,1057.1056 v -4.0578 c 0,0 1.6485,0 2.59956,0 0.0634,0 0.1268,0.063 0.25361,0.063 0.12681,0 0.19021,0 0.31702,0 0.12681,0 0.31702,0.063 0.44383,0.063 0.31702,0.063 0.57063,0.1268 0.82425,0.2536 0.12681,0.063 0.31702,0.1268 0.44383,0.2536 0.1268,0.063 0.19021,0.1268 0.25361,0.1902 0.0634,0.063 0.0634,0.063 0.12681,0.1268 0.12681,0.1902 0.25362,0.4438 0.25362,0.634 0.0634,0.1269 0.0634,0.3171 0.0634,0.3805 v 0.1268 c 0,0 0,0 0,0.1268 0,0.1902 -0.0634,0.5072 -0.25362,0.8242 -0.0634,0.063 -0.1268,0.1902 -0.25361,0.3171 -0.25996,0.1902 -0.57064,0.3804 -0.894,0.5072 -0.38042,0.1268 -0.76084,0.1902 -1.01446,0.1902 -0.19021,0 -0.31702,0 -0.38042,0 -0.0634,0 -0.12681,0 -0.12681,0 h -2.65662 z" /><path
     inkscape:connector-curvature="0"
     id="path18"
     d="m 162.64191,1041.6985 h 21.87434 v 20.6062 h -21.87434 v -20.6062 z m 5.71269,17.753 h 5.64295 c 0,0 2.72637,0.063 4.18466,-1.4582 1.26807,-1.2047 1.14127,-2.5996 1.14127,-2.5996 0,0 0.1268,-1.5217 -1.01447,-2.663 -0.95105,-0.951 -2.22547,-1.2046 -2.22547,-1.2046 0,0 0.57063,-0.2537 1.01446,-0.6975 0.19021,-0.1902 0.88765,-0.8242 0.88765,-2.4093 0,-1.5851 -1.01446,-2.4728 -1.01446,-2.4728 0,0 -1.20467,-1.3315 -3.80423,-1.3315 h -4.8187 l 0.006,14.8365 0,0 z" /><path
     style="fill:#ff008d"
     inkscape:connector-curvature="0"
     id="path20"
     d="m 267.32174,1094.6534 -0.12681,-0.9637 c -1.19199,-9.3394 -9.23795,-16.39 -18.71049,-16.39 -6.99979,0 -13.11192,3.8233 -16.3899,9.4789 -3.27799,-5.6936 -9.44084,-9.4789 -16.38991,-9.4789 -5.99167,0 -11.33662,2.8025 -14.81115,7.1647 v -7.0759 h -1.45195 c -6.01703,0 -11.381,2.8342 -14.83017,7.2344 -3.44917,-4.5017 -8.87654,-7.4183 -14.96966,-7.4183 -4.05785,0 -7.8811,1.2364 -11.0513,3.5126 v -13.4987 h -7.95085 v 39.8684 h -1.43926 c -6.04874,0 -10.96254,-4.8884 -10.96254,-10.8738 v -9.1301 h 8.62927 v -7.8621 h -8.62927 v -12.0087 h -7.86842 v 29.0009 c 0,10.3792 8.4454,18.8246 18.83096,18.8246 h 9.39011 v -19.0148 c 0,-6.1438 4.8504,-10.9625 11.0513,-10.9625 6.04239,0 10.96254,4.9138 10.96254,10.9625 v 19.0085 h 7.86842 v -18.8183 c 0,-5.9916 4.92014,-10.8737 10.96253,-10.8737 h 0.79889 c -2.17475,3.075 -3.44917,6.8222 -3.44917,10.8737 0,10.3792 8.4771,18.8246 18.91338,18.8246 h 15.28034 v -7.8557 h -15.28034 c -0.80523,0 -1.63582,-0.1078 -2.42837,-0.2726 l 16.3265,-9.4155 c 0.6594,9.7832 8.87021,17.5565 18.88168,17.5565 h 15.28034 v -7.8621 H 248.4781 c -0.81791,0 -1.63582,-0.1014 -2.42837,-0.2726 l 20.42874,-11.7614 0.84327,-0.5009 m -61.06429,7.1646 c -0.9891,-1.7055 -1.52169,-3.614 -1.52169,-5.6112 0,-6.1629 4.83137,-10.9625 10.96253,-10.9625 4.00713,0 7.68455,2.1747 9.53594,5.5224 l -18.97678,11.0513 z m 32.77981,0 c -0.99544,-1.6929 -1.51535,-3.614 -1.51535,-5.6049 0,-6.1565 4.80601,-10.9625 10.96253,-10.9625 4.00079,0 7.68455,2.1747 9.53595,5.5225 l -18.98313,11.0449 z" /></g></svg>