<svg xmlns="http://www.w3.org/2000/svg" width="500" height="82.606"><path d="M18.327 24.703H9.412v11.085h8.915c4.706 0 6.006-3.16 6.006-5.5 0-3.28-2.106-5.575-6.006-5.575M9.412 17.15h8.42c2.044 0 4.643-.804 4.643-4.27 0-2.476-1.67-3.962-4.334-3.962H9.413zm18.016 3.22c4.707 1.858 6.626 6.316 6.626 10.526 0 7.865-6.5 13.188-14.8 13.188H3.717C.744 44.084 0 42.97 0 40.308V4.52C0 1.92.744.68 3.716.68h15.168c7.493 0 13.314 3.158 13.314 10.96 0 3.404-1.983 6.747-4.77 8.296zm45.566 23.714H54.666c-9.163 0-11.454-5.76-11.454-11.392V12.136C43.212 6.254 46.245.68 54.605.68h17.77c1 0 1.176.3 1.176 1.485V7.43c0 1.052-.25 1.362-1.176 1.362H56.647c-3.22 0-4.023 1.67-4.023 3.838v4.768h17.77c1 0 1.177.3 1.177 1.486v4.83c0 1-.185 1.424-1.178 1.424h-17.77v7.058c0 2.848 1.424 3.715 4.026 3.715h16.345c1.052 0 1.238.248 1.238 1.487v5.262c0 1-.247 1.424-1.238 1.424m23.77-16.718h9.722l-2.353-7.862-2.29-8.856h-.37l-2.354 8.856zm11.95 7.68H94.535l-2.415 7.862c-.25.804-.557 1.177-1.733 1.177h-7.245c-.867 0-1.052-.62-.867-1.24l12.88-38.82C96.022 1.177 97.136.68 99.673.62h3.716c2.786 0 3.838.37 4.83 3.406l12.878 38.82c.185.496.06 1.24-.805 1.24h-7.368c-.93 0-1.55-.127-1.796-.994zM155.33 8.792h-11.208v33.99c0 1.055-.248 1.3-1.484 1.3h-6.626c-1 0-1.424-.307-1.424-1.3v-34h-10.96c-.867 0-1.175-.374-1.175-1.24v-5.5c0-1.053.247-1.3 1.175-1.3h31.7c1 0 1.24.247 1.24 1.3v5.5c0 .866-.372 1.24-1.24 1.24m38.94 35.3h-18.327c-9.163 0-11.454-5.758-11.454-11.39V12.136C164.5 6.254 167.522.68 175.882.68h17.77c1 0 1.176.3 1.176 1.485V7.43c0 1.052-.248 1.362-1.176 1.362h-15.727c-3.22 0-4.024 1.67-4.024 3.838v4.768h17.77c1 0 1.176.3 1.176 1.486v4.83c0 1-.184 1.424-1.177 1.424H173.9v7.058c0 2.848 1.424 3.715 4.025 3.715h16.346c1.053 0 1.238.248 1.238 1.487v5.262c0 1-.246 1.424-1.238 1.424m67.23-6.005c0 2.91-1.052 5.076-4.52 5.942-3.28.744-8.417.804-10.585.804-14.24 0-20-4.27-20-18.757l-.06-24.025c0-.99.495-1.3 1.425-1.3h6.623c1.24 0 1.487.247 1.487 1.3v24.58c0 6.81 1.983 9.97 9.844 9.97 1.116 0 4.273-.062 6.44-.496V2.043c0-.99.433-1.3 1.423-1.3h6.565c1.238 0 1.36.247 1.36 1.3zm46.556 6.005h-6.5c-1.054 0-1.424-.308-1.424-1.3V25.446h-16.78v17.336c0 1.055-.247 1.3-1.486 1.3h-6.563c-1 0-1.424-.307-1.424-1.3V2.042c0-1 .434-1.3 1.424-1.3h6.564c1.238 0 1.486.25 1.486 1.3V17.46h16.78V2.042c0-1 .37-1.3 1.423-1.3h6.5c1.238 0 1.484.25 1.484 1.3v40.74c0 1.055-.246 1.3-1.484 1.3M335.565 0c4.705 0 10.28 1.052 13.87 2.847 1 .496 1.053.744.62 1.983l-1.6 4.643c-.433 1.175-.68 1.175-1.674.93-3.837-1.178-7.862-1.983-11.205-1.983-3.6 0-4.954 1.547-4.954 3.406 0 2.167 1.734 3.404 7.246 5.634 8.418 3.28 14.426 6.316 14.426 14.365 0 8.668-6.5 12.94-16.16 12.94-5.325 0-11.704-1.054-16.408-3.902-.68-.37-.806-.805-.372-1.857l2.105-4.955c.433-.988.806-1.05 1.734-.68 3.343 1.3 8.048 2.9 12.26 2.9 5.2 0 6.747-2.105 6.747-4.333 0-2.478-1.61-3.902-6.87-5.882-8.732-3.344-14.5-6.626-14.5-13.5C320.83 5.573 325.472 0 335.565 0m55.837 44.084h-18.327c-9.163 0-11.456-5.76-11.456-11.392V12.136c0-5.882 3.034-11.455 11.394-11.455h17.77c.99 0 1.177.3 1.177 1.485V7.43c0 1.052-.247 1.362-1.177 1.362h-15.725c-3.22 0-4.025 1.67-4.025 3.838v4.768h17.77c1 0 1.177.3 1.177 1.486v4.83c0 1-.185 1.424-1.178 1.424h-17.77v7.058c0 2.848 1.424 3.715 4.026 3.715h16.345c1.053 0 1.238.248 1.238 1.487v5.262c0 1-.247 1.424-1.238 1.424m61.102-35.292h-11.207v33.99c0 1.055-.248 1.3-1.484 1.3h-6.626c-1 0-1.426-.307-1.426-1.3v-34h-10.958c-.867 0-1.176-.374-1.176-1.24v-5.5c0-1.053.246-1.3 1.176-1.3h31.7c1 0 1.238.247 1.238 1.3v5.5c0 .866-.372 1.24-1.238 1.24m27.56 24.95h.433l2.9-10.834 6.625-21.3c.25-.805.744-.928 1.673-.928h7.552c.807 0 .807.618.684 1.052l-13.314 39.07c-.927 2.908-2.105 3.218-4.458 3.28h-3.84c-2.413 0-3.588-.495-4.58-3.343L460.56 1.733c-.185-.557 0-1.052.744-1.052h7.43c1.114 0 1.424.37 1.67 1.115l6.5 20.987z" fill="#ee2529"/><path d="M177.83 82.606c-1.798 0-4.14-.286-6.007-1.232-.142-.07-.212-.234-.094-.47l.567-1.254c.07-.167.213-.212.38-.142 1.63.733 3.5 1.137 4.942 1.137 2.39 0 3.808-.946 3.808-2.628 0-1.632-1.324-2.412-3.902-3.358-3.478-1.276-5.228-2.39-5.228-4.802 0-2.577 1.845-4.35 5.25-4.35 1.562 0 3.454.28 4.944.945.2.094.234.188.165.4l-.52 1.325c-.095.216-.165.216-.308.167-1.608-.616-3.098-.876-4.352-.876-1.892 0-2.98.946-2.98 2.223 0 1.562 1.348 2.13 4.162 3.242 2.626.992 5 2.082 5 5 0 3.147-2.53 4.684-5.817 4.684m20.316-2.887c.355-.14.473.048.544.2l.45.995c.188.377.095.47-.118.616-1.537.897-3.502 1.086-5.015 1.086-4.422 0-7.05-2.58-7.05-8.304 0-5.32 2.9-8.75 7.215-8.75 1.347 0 2.814.164 4.4.968.19.094.282.237.117.546l-.544 1.087c-.095.19-.165.282-.425.164a8.563 8.563 0 0 0-3.453-.733c-3.597 0-5.087 3.29-5.087 6.717 0 3.455 1.232 6.272 5.205 6.272 1.37 0 2.648-.357 3.76-.855m15.266-13.528c0-.332.143-.404.45-.404h1.276c.33 0 .45.07.45.404v15.752c0 .333-.12.403-.45.403h-1.277c-.308 0-.45-.07-.45-.404v-7.38h-8.348v7.38c0 .333-.12.404-.45.404h-1.3c-.284 0-.45-.07-.45-.404V66.19c0-.332.166-.403.45-.403h1.3c.333 0 .45.07.45.404v6.478h8.35zm14.757-1.493c-.685 0-1.3-.615-1.3-1.274 0-.64.615-1.255 1.278-1.255s1.3.6 1.3 1.255-.64 1.276-1.278 1.276m-.968 6.952l-1.114-3.476h-.117l-2.673 8.422h5.488zM223.89 64.7c-.662 0-1.3-.616-1.3-1.276 0-.64.638-1.255 1.3-1.255.64 0 1.276.615 1.276 1.255 0 .66-.637 1.276-1.276 1.276m7.26 17.646c-.283 0-.448 0-.568-.357l-1.182-3.476h-6.67L221.547 82c-.072.238-.213.356-.496.356h-1.608c-.308 0-.378-.216-.308-.448l5.345-15.2c.26-.757.473-.924 1.207-.945h.708c.852 0 1.04.233 1.28.946l5.32 15.21c.095.21.025.448-.283.448zm11.753-14.597h-4.114v5.584h3.948c2.295 0 3.242-1.276 3.242-2.838 0-1.255-.686-2.746-3.076-2.746m-6.363-.8c0-.828.308-1.207 1.207-1.207h5.416c3.005 0 4.992 1.937 4.992 4.656 0 1.893-1.02 3.433-2.673 4.048v.094c1.3.4 1.75 1.232 2.057 2.4l1.373 5c.047.165.07.426-.283.426h-1.563c-.14 0-.355-.025-.425-.308l-1.254-4.52c-.522-1.844-1.656-2.3-3.24-2.3h-3.382v6.714c0 .334-.118.404-.448.404H237c-.307 0-.45-.07-.45-.404zm17.82 15.398h-1.185c-.33 0-.495-.07-.495-.45V69.833c0-2.175.946-4.068 3.996-4.068h6.504c.38 0 .45.167.45.497v.97c0 .376-.07.497-.45.497h-6.48c-1.3 0-1.868.544-1.868 1.774v3.313h7.474c.355 0 .425.118.425.47v.924c0 .308-.07.497-.425.497h-7.476V81.9c0 .377-.117.447-.47.447m23.375.001h-6.575c-3.075 0-3.997-1.872-3.997-4.046v-8.47c0-2.174 1.1-4.067 3.997-4.067h6.457c.357 0 .425.167.425.497v.995c0 .35-.07.472-.425.472h-6.434c-1.3 0-1.868.567-1.868 1.798V72.6h7.523c.354 0 .424.145.424.497v.9c0 .307-.07.474-.424.474h-7.523v4.114c0 1.064.52 1.774 1.868 1.774h6.552c.38 0 .45.145.45.497v.994c0 .33-.07.498-.45.498m10.592-14.597h-4.115v5.584h3.95c2.296 0 3.242-1.276 3.242-2.838 0-1.255-.688-2.746-3.077-2.746m-6.362-.8c0-.828.306-1.208 1.207-1.208h5.415c3.005 0 4.992 1.938 4.992 4.657 0 1.893-1.018 3.433-2.673 4.048v.094c1.3.4 1.75 1.232 2.057 2.4l1.373 5c.048.165.07.426-.283.426H292.5c-.14 0-.355-.025-.425-.308l-1.252-4.52c-.523-1.844-1.658-2.3-3.242-2.3h-3.383v6.714c0 .334-.118.404-.45.404h-1.325c-.308 0-.45-.07-.45-.404zm25.232 15.398h-1.185c-.33 0-.495-.07-.495-.45V69.833c0-2.175.945-4.068 3.996-4.068h6.504c.38 0 .45.167.45.497v.97c0 .376-.07.497-.45.497h-6.48c-1.3 0-1.87.544-1.87 1.774v3.313h7.475c.355 0 .425.118.425.47v.924c0 .308-.07.497-.425.497h-7.476V81.9c0 .377-.117.447-.47.447m23.375.001h-6.575c-3.076 0-3.997-1.872-3.997-4.046v-8.47c0-2.174 1.1-4.067 3.997-4.067h6.457c.357 0 .425.167.425.497v.995c0 .35-.07.472-.425.472h-6.434c-1.3 0-1.868.567-1.868 1.798V72.6h7.522c.355 0 .425.145.425.497v.9c0 .307-.07.474-.425.474h-7.522v4.114c0 1.064.52 1.774 1.868 1.774h6.552c.378 0 .45.145.45.497v.994c0 .33-.07.498-.45.498m10.594-14.597h-4.117v5.584H341c2.296 0 3.242-1.276 3.242-2.838 0-1.255-.688-2.746-3.075-2.746m-6.363-.8c0-.828.308-1.208 1.206-1.208h5.416c3.004 0 5 1.938 5 4.657 0 1.893-1.016 3.433-2.672 4.048v.094c1.302.4 1.75 1.232 2.06 2.4l1.37 5c.05.165.07.426-.283.426h-1.56c-.144 0-.358-.025-.428-.308l-1.253-4.52c-.52-1.844-1.655-2.3-3.24-2.3h-3.383v6.714c0 .334-.118.404-.45.404h-1.325c-.308 0-.448-.07-.448-.404zm26.857-.784c0-.33.143-.4.45-.4h1.23c.308 0 .452.07.452.4v14.997c0 .78-.26 1.185-1.16 1.185h-.616c-.7 0-.9-.26-1.325-.948l-5.63-9.318-1.867-3.217h-.074V81.94c0 .335-.115.406-.448.406h-1.232c-.283 0-.447-.07-.447-.406V66.948c0-.783.284-1.183 1.16-1.183h.614c.686 0 .874.26 1.3.946l5.512 9.105 2.01 3.432h.07zm12.06 16.44c-1.798 0-4.14-.285-6.008-1.23-.143-.07-.213-.235-.095-.472l.568-1.254c.07-.167.212-.212.378-.142 1.632.733 3.502 1.137 4.943 1.137 2.39 0 3.808-.946 3.808-2.628 0-1.632-1.323-2.412-3.902-3.358-3.478-1.276-5.227-2.39-5.227-4.802 0-2.577 1.845-4.35 5.25-4.35 1.562 0 3.455.28 4.945.945.19.094.234.188.164.4l-.518 1.325c-.097.216-.167.216-.308.167-1.61-.616-3.1-.876-4.353-.876-1.892 0-2.98.946-2.98 2.223 0 1.562 1.347 2.13 4.163 3.242 2.627.992 4.99 2.082 4.99 5 0 3.147-2.532 4.684-5.82 4.684m20.057-.26H387.2c-3.075 0-3.997-1.872-3.997-4.046v-8.47c0-2.174 1.1-4.067 3.997-4.067h6.457c.357 0 .425.167.425.497v.995c0 .35-.07.472-.425.472h-6.434c-1.3 0-1.87.567-1.87 1.798V72.6h7.523c.355 0 .427.145.427.497v.9c0 .307-.072.474-.427.474h-7.522v4.114c0 1.065.52 1.774 1.87 1.774h6.55c.377 0 .45.145.45.497v.994c0 .33-.072.498-.45.498m14.78-16.155c0-.332.14-.404.448-.404h1.278c.33 0 .45.07.45.404v15.752c0 .333-.12.403-.45.403h-1.278c-.308 0-.448-.07-.448-.404v-7.38h-8.35v7.38c0 .333-.12.404-.45.404h-1.3c-.284 0-.452-.07-.452-.404V66.19c0-.332.167-.403.452-.403h1.3c.33 0 .448.07.448.404v6.478h8.35zm17.62 16.156h-6.577c-3.074 0-3.998-1.872-3.998-4.046v-8.47c0-2.174 1.113-4.067 3.998-4.067h6.46c.354 0 .425.167.425.497v.995c0 .35-.07.472-.425.472h-6.434c-1.3 0-1.87.567-1.87 1.798V72.6h7.522c.354 0 .427.145.427.497v.9c0 .307-.073.474-.427.474h-7.522v4.114c0 1.065.52 1.774 1.87 1.774h6.552c.377 0 .448.145.448.497v.994c0 .33-.07.498-.448.498m14.896-16.18c0-.33.143-.4.448-.4h1.23c.31 0 .452.07.452.4v14.997c0 .78-.262 1.185-1.16 1.185h-.615c-.7 0-.9-.26-1.325-.948l-5.63-9.318-1.868-3.217h-.073V81.94c0 .335-.116.406-.45.406h-1.23c-.283 0-.448-.07-.448-.406V66.948c0-.783.284-1.183 1.16-1.183h.613c.688 0 .876.26 1.3.946l5.51 9.105L441 79.248h.07z" fill="#1f262f"/></svg>