<?xml version="1.0" encoding="UTF-8"?>
<svg width="800" height="137.77" version="1.1" xmlns="http://www.w3.org/2000/svg">
	<g fill="#fff">
		<path d="m219.71 86.985c0 15.329-6.5964 29.403-21.566 29.403-14.976 0-21.566-14.075-21.566-29.403 0-15.507 6.5905-29.587 21.566-29.587 14.97 0 21.566 14.081 21.566 29.587zm-67.551 45.98h24.064v-11.763h0.35486c5.5236 10.162 16.755 14.267 30.302 14.267 18.353 0 38.132-14.795 38.132-48.66 0-33.689-19.78-48.482-38.132-48.482-11.41 0-22.82 4.2778-29.055 13.726h-0.3578v-46.342h-25.308v127.26"/>
		<path d="m276.36 5.7157h-25.311v20.854h25.311zm-25.311 127.26h25.311l-0.0165-91.137h-25.306l0.0111 91.137"/>
		<path d="m354.94 86.985c0 15.329-6.6 29.403-21.567 29.403-14.974 0-21.563-14.075-21.563-29.403 0-15.507 6.5893-29.587 21.563-29.587 14.967 0 21.567 14.081 21.567 29.587zm-67.548 45.98h24.064v-11.763h0.35425c5.5242 10.162 16.751 14.267 30.294 14.267 18.354 0 38.142-14.795 38.142-48.66 0-33.689-19.788-48.482-38.142-48.482-11.405 0-22.81 4.2778-29.05 13.726h-0.35304v-46.342h-25.309v127.26"/>
		<path d="m408.21 77.006c0.35901-7.1254 4.9916-19.604 21.029-19.604 12.302 0 17.83 6.7701 20.147 19.604zm66.477 16.042c1.7838-28.335-13.364-54.717-44.731-54.717-27.984 0-47.05 21.033-47.05 48.658 0 28.515 18.003 48.484 47.05 48.484 20.849 0 36.004-9.2758 43.13-31.019h-22.281c-1.6 5.7038-9.7938 11.938-19.964 11.938-14.075 0-21.915-7.3068-22.631-23.345h66.477"/>
		<path d="m479.69 132.97h25.31v-127.26h-25.31v127.26"/>
	</g>
	<g>
		<path d="m611.45 41.759h-78.178v20.441h27.211v70.77h23.761v-70.77h27.205v-20.441" fill="#f89c0e"/>
		<path d="m682.61 41.759h-24.786l-17.884 67.832h-0.2488l-17.884-67.832h-24.786l28.744 91.214h27.333l29.514-91.214" fill="#f89c0e"/>
		<path d="m518.86 119.28c0-7.5638 6.135-13.7 13.701-13.7 7.5603 0 13.688 6.136 13.688 13.7 0 7.5597-6.1278 13.69-13.688 13.69-7.5662 0-13.701-6.1298-13.701-13.69" fill="#fff"/>
		<path d="m70.1 64.5 9.4431 5.757 40.994-24.722v-11.381l-50.436 30.345" fill="#f89c0e"/>
		<path d="m60.308 81.833v55.938l9.7921-4.7913v-45.254l-9.7921-5.8933" fill="#fee702"/>
		<path d="m60.308 70.394-50.998 30.681v11.451l41.205-24.798v45.254l9.7929 4.7913v-55.938l50.997 30.692v-11.451l-50.997-30.681" fill="#f89c0e"/>
		<path d="m50.516 52.97v-0.0066l-41.297-24.837-9.1393 6.0283 50.437 30.323v-11.507" fill="#fee702"/>
		<path d="m120.62 95.254-50.516-30.757 50.436-30.345-9.1393-6.0283-41.297 24.837v-47.248l-9.7921-5.712-9.7921 5.712 9.7929 5.0029v59.684l50.99 30.677 7e-3 -4e-3v11.45l9.31-5.9992v-11.269" fill="#fee702"/>
		<path d="m50.516 5.7157 2.4e-4 58.762 9.7878 5.9228 0.0048 0.0022v-59.684l-9.7929-5.0029" fill="#f89c0e"/>
		<path d="m60.308 70.403-9.8006-5.9306-50.507 30.785h-2.3104e-4l2.3104e-4 11.269 9.3108 5.9992v-11.45l0.00691 4e-3 50.99-30.677" fill="#fee702"/>
		<path d="m50.507 64.472-50.428-30.317v11.381l40.966 24.705 9.4627-5.7676" fill="#f89c0e"/>
		<path d="m745.77 61.664h-13.503v-24.516h-21.718v24.516h-13.546v-56.803h13.546v22.263h21.718v-22.263h13.503z" fill="#fff"/>
		<path d="m800 32.719q0 7.1878-2.2286 12.627-2.1849 5.4005-6.3798 9.0527-4.1513 3.6133-10.225 5.4394-6.0303 1.8261-13.765 1.8261h-16.824v-56.803h18.703q7.0353 0 12.672 1.7872 5.6807 1.7872 9.7008 5.3228 4.0202 3.4967 6.1613 8.703 2.1849 5.2063 2.1849 12.044zm-13.721 0.31082q0-4.74-1.0924-8.1591-1.0487-3.4579-3.1025-5.7113-2.0101-2.2535-4.9815-3.3413-2.9277-1.0879-6.7294-1.0879h-6.2487v36.988h4.9815q8.5647 0 12.847-4.6623 4.326-4.6623 4.326-14.026z" fill="#fff"/>
	</g>
</svg>
