<svg xmlns="http://www.w3.org/2000/svg" width="411.239" height="450" fill-rule="evenodd"><path d="M0 0h411.239v450H0z" fill="#d91918"/><path d="M214.409 384.989h40.482V56.61h-40.482zm-75.536-17.823c-.023 9.808-7.911 17.687-17.639 17.712H41.432l.025-328.268h79.874c9.631.016 17.518 7.902 17.541 17.71v115.064c0 9.277-7.605 16.77-16.875 16.77l-1.77-.009c10.253 0 18.645 8.337 18.645 18.581v7.217 135.222zM81.918 97.143h16.617v93.545H81.918zm0 133.741h16.617v113.372H81.918zm287.887 154.1V56.592h-40.491v57.158h-39.398c-9.642.016-17.47 7.904-17.495 17.712l-.048 235.703c.025 9.808 7.911 17.687 17.639 17.712l79.792.105zm-40.475-231.118h-16.617v190.39h16.617zM156.407 97.142h40.479V56.606h-40.479zm0 287.847h40.479V113.766h-40.479z" fill="#fff"/></svg>