<?xml version="1.0" encoding="UTF-8"?>
<svg width="800" height="270.79" version="1.1" xmlns="http://www.w3.org/2000/svg">
	<g>
		<path d="m62.743 43.861c-2.4245-2.6874-5.4041-3.9727-8.9386-3.9727h-18.345l-4.557 34.849c-0.43817 3.5346 0.40896 6.6602 2.6874 9.2308 2.4245 2.6874 5.4041 3.9727 8.9679 3.9727h5.112c3.5346 0 6.8062-1.2853 9.7858-3.8267 2.9795-2.7166 4.703-5.8423 5.112-9.3768l2.8627-21.646c0.43817-3.5346-0.40896-6.6602-2.6874-9.2308m27.108 23.194c-1.1392 9.4937-4.9659 17.468-11.217 23.836-6.5433 6.5433-14.343 9.815-23.573 9.815h-40.195c-3.6806 0-6.6602-1.2853-8.9386-3.9727-2.4245-2.7166-3.2717-5.8423-2.8335-9.5229l10.341-84.216h18.608c4.4109 0 6.5433 2.8335 6.5433 8.6465 0 1.0224-0.14608 2.1324-0.29212 3.4177-0.2629 2.1324-0.70107 5.9591-1.4021 11.363h27.254c8.3836 0 14.927 2.7166 19.893 8.2376 4.6738 5.258 6.9523 11.947 6.9523 20.302 0 1.7235 0 3.4177-0.29212 5.258z" fill="#127bca"/>
		<path d="m10.785 0-10.664 86.852-0.001953 0.0039c-0.51391 4.3168 0.61824 8.5382 3.5547 11.844 2.8054 3.2886 6.8285 5 11.191 5h40.195c9.9382 0 18.658-3.6598 25.689-10.691l0.0196-0.0196c6.6964-6.8215 10.841-15.486 12.053-25.566l0.84766-6.834-0.01563 0.09961c0.33672-2.1213 0.33008-4.0031 0.33008-5.7266 0-8.8988-2.5184-16.452-7.709-22.291l-0.0059-0.0059-0.0059-0.0078c-5.5138-6.1301-13.089-9.2285-22.119-9.2285h-23.869c0.39038-3.148 0.80608-6.5261 0.98828-8.0039l4e-3 -0.02734c0.14259-1.2549 0.31055-2.4483 0.31055-3.7559 0-3.2726-0.55074-6.0963-2.2227-8.3086-1.672-2.2123-4.468-3.332-7.3145-3.332zm5.2969 5.9883h15.959c1.5643 0 2.0401 0.2974 2.5371 0.95508s1.0117 2.1569 1.0117 4.6973c0 0.73019-0.12195 1.753-0.26953 3.0508-0.2667 2.1632-0.70009 5.9626-1.3984 11.346l-0.43945 3.3789h30.662c7.734 0 13.243 2.3341 17.66 7.2422 4.1519 4.6752 6.1914 10.498 6.1914 18.303 0 1.7235-0.0083 3.2298-0.25586 4.7891l-0.0078 0.05078-0.85352 6.8906-2e-3 0.0059c-1.0678 8.8985-4.5746 16.175-10.373 22.086-6.0522 6.0473-12.925 8.9277-21.443 8.9277h-40.195c-2.9836 0-4.9039-0.84954-6.6543-2.9141l-0.025391-0.0293-0.025391-0.02734c-1.8956-2.124-2.4548-4.1426-2.0937-7.1758zm16.75 30.906-4.9004 37.465v0.0098c-0.52265 4.216 0.58472 8.3875 3.418 11.584l0.0078 0.0098 0.0098 0.0098c2.9237 3.2408 6.9077 4.9629 11.191 4.9629h5.1113c4.2604 0 8.3048-1.6228 11.729-4.543l0.07422-0.0664c3.3997-3.0997 5.5722-6.9557 6.0684-11.244l2.8594-21.609 2e-3 -0.01367c0.52258-4.2161-0.58674-8.3876-3.42-11.584l-0.0078-0.0098-0.0098-0.0098c-2.9237-3.2407-6.8997-4.9609-11.16-4.9609zm5.2559 5.9883h15.717c2.8035 0 4.7811 0.85115 6.7031 2.9766 1.715 1.9401 2.3025 4.013 1.9512 6.8574l-2.8633 21.652-2e-3 0.02344c-0.32004 2.7661-1.5924 5.1487-4.125 7.4707-2.5206 2.1366-5.006 3.084-7.7988 3.084h-5.1113c-2.8386 0-4.8124-0.85116-6.7344-2.9766-1.7155-1.9406-2.3031-4.0157-1.9512-6.8613 1.82e-4 -0.0015-1.82e-4 -0.0024 0-0.0039z" fill="#d3d2d2"/>
		<path d="m126.39 100.7h-26.524l11.947-97.507h17.76c2.4245 0 4.2648 0.55501 5.813 1.6943 1.5774 1.2853 2.4245 2.6874 2.1324 4.557l-9.406 76.621h-0.0295z" fill="#127bca"/>
		<path d="m109.16 0.20117-12.682 103.5h32.576l0.30664-2.6504 1.3867-11.984h0.01l9.7305-79.25-0.0137 0.095703c0.46366-2.9675-1.2021-5.7126-3.1992-7.3398l-0.0586-0.046875-0.0586-0.042969c-2.0866-1.5354-4.7064-2.2773-7.5879-2.2773zm5.2988 5.9883h15.111c1.9398 0 2.995 0.36572 3.9922 1.0879 1.0426 0.85286 1.1105 0.96232 0.99414 1.707l-8e-3 0.048828-9.0879 74.041h-0.0488l-1.6934 14.635h-20.473z" fill="#d3d2d2"/>
		<path d="m226.43 90.616c-0.29212 2.8335-1.9864 5.258-4.9659 7.0983s-6.2512 2.8335-9.815 2.8335h-57.371c-3.4177 0-6.3973-0.99318-8.9386-2.8335-2.5706-1.8403-3.5638-4.2648-3.2717-7.0983l7.8286-64.206h26.407l-6.2804 50.565c-0.84713 7.2444 4.8198 10.808 17.176 10.808 3.1256 0 6.1052-0.84712 8.8218-2.5706 3.3885-2.1324 5.2288-4.8199 5.667-8.2376l5.5794-44.313c0.26291-1.8403 1.2561-3.2425 3.1256-4.3817 1.8403-1.2853 3.9727-1.8695 6.3681-1.8695h17.468z" fill="#127bca"/>
		<path d="m154.25 103.53c-3.9978 0-7.6416-1.1743-10.669-3.366-3.2859-2.3515-4.8882-6.175-4.5072-9.8702l8.1586-66.867h32.463l-6.7323 53.916c-0.32746 2.8014 0.25122 3.9137 2.2823 5.1917 2.0314 1.2765 6.0338 2.2814 11.924 2.2814 2.5846 0 4.9906-0.68062 7.2458-2.112 2.8423-1.7877 3.9501-3.5395 4.279-6.1046l5.5912-44.33v-0.05842c0.37828-2.6465 2.1447-4.9814 4.5072-6.4469 2.3585-1.6125 5.1481-2.3398 7.9874-2.3398h20.824l-8.2157 67.494c-0.39523 3.8349-2.7847 7.1652-6.3329 9.3567-3.4035 2.1032-7.2906 3.2521-11.411 3.2521zm0-5.9906h57.396c3.0075 0 5.6601-0.81792 8.2157-2.3953 2.4111-1.4898 3.4055-3.0175 3.5944-4.8494v-0.05843l7.4169-60.819h-14.092c-1.9084 0-3.379 0.40604-4.6784 1.3116l-0.0584 0.05842-0.11391 0.05842c-1.318 0.80331-1.5669 1.1977-1.7115 2.1675v0.05842l-5.5912 44.273c-0.54742 4.2701-3.0829 7.9075-7.0175 10.384-3.1781 2.0156-6.7742 3.0237-10.441 3.0237-6.466 0-11.44-0.82376-15.119-3.1379-3.6794-2.3165-5.5403-6.5679-5.0207-11.011l5.8765-47.183h-20.368l-7.531 61.56 0.0584-0.05843c-0.20448 1.9718 0.14022 3.0079 1.9969 4.3361v0.05843c2.0556 1.4898 4.3511 2.2259 7.1887 2.2259z" fill="#d3d2d2"/>
		<path d="m309.72 38.325c-0.70106 1.2853-0.99317 1.9864-1.1392 2.1324-0.99317-0.14608-3.1256-0.29212-6.3973-0.70107-2.6874-0.29212-4.8199-0.58422-6.5141-0.58422-14.927 0-22.872 3.6806-23.72 11.217l-0.61344 4.2648h26.845s6.5433-0.40896 5.5501 6.6017c-0.93476 6.8062-7.2736 6.2804-7.2736 6.2804h-26.845l-1.11 9.0263c-0.55502 4.8199 1.8403 8.0915 7.0983 9.7858 2.9796 0.99318 7.5365 1.4314 13.934 1.4314 1.5482 0 3.8267-0.14604 6.6602-0.55502 3.2717-0.43817 5.4041-0.58422 6.5433-0.73028 0.70106 2.9795 0.58422 8.0915 0.58422 7.9455-0.29208 2.7166-5.112 4.703-14.343 6.1344-6.5433 0.99318-12.795 1.4021-18.9 1.4021-10.662 0-17.907-0.99318-21.587-2.8335-4.6738-2.4245-6.9523-7.0983-6.9523-14.343 0-1.9864 0.14608-4.2648 0.40896-6.6894l3.7098-29.825c1.2561-10.224 4.4109-16.884 9.4937-20.156 4.2648-2.6874 12.386-3.9727 24.45-3.9727 5.813 0 11.772 0.40896 18.023 1.4314 9.2308 1.4021 13.788 3.3885 13.35 6.0759 0 0.14604-0.70105 5.3749-1.2561 6.6602" fill="#127bca"/>
	</g>
	<g fill="#d3d2d2">
		<path d="m270.07 104.96c-10.848 0-18.235-0.78871-22.935-3.1379-5.7169-2.9658-8.615-9.1297-8.615-17.002 0-2.1324 0.18402-4.5114 0.45657-7.0177v-0.05843l3.7085-29.839c1.311-10.67 4.6764-18.34 10.84-22.308 5.3509-3.3719 13.796-4.45 26.073-4.45 5.9535 0 12.06 0.43233 18.485 1.4839 4.7506 0.72152 8.3535 1.5745 11.068 2.7955 1.3574 0.61052 2.5332 1.3087 3.4802 2.3953 0.93593 1.075 1.5406 2.7517 1.3122 4.2792-9e-3 0.05842-0.0469 0.14604-0.0584 0.2337-0.0212 0.17528-0.0181 0.40896-0.0583 0.68354-0.0759 0.5521-0.21619 1.2824-0.34235 2.0536-0.25429 1.5453-0.34557 2.8715-1.0271 4.45l-0.1168 0.23365c-0.32451 0.59591-0.55765 1.0633-0.74166 1.4255-0.0934 0.1753-0.18414 0.3301-0.28634 0.51412-0.0496 0.08761-0.0847 0.20447-0.17235 0.34178-0.0847 0.14604-0.43818 0.55209-0.45657 0.56962l-1.084 1.0282-1.4834-0.23369c-0.6672-0.08761-2.9894-0.2629-6.3329-0.68354-2.695-0.29212-4.767-0.56962-6.1047-0.56962-7.2174 0-12.564 0.95813-15.861 2.5092-3.2968 1.5511-4.593 3.2582-4.9066 6.0476v0.05843l-0.11391 0.91139h23.164s2.3486-0.2629 4.7354 0.96982c2.3869 1.221 4.6173 4.613 3.9938 9.0146-0.59299 4.3171-3.3832 7.0145-5.8194 8.0445-2.4362 1.0312-4.6784 0.79747-4.6784 0.79747l0.22787 0.05843h-24.19l-0.74168 6.39c-0.1957 1.8023 0.0964 2.972 0.79864 3.9368 0.7113 0.97858 2.0021 1.9104 4.2219 2.6232 2.3614 0.78578 6.7476 1.2561 13.008 1.2561 1.3598 0 3.5102-0.11682 6.2188-0.51412h0.0584c3.3546-0.44986 5.6396-0.6222 6.5611-0.74197l2.6816-0.34178 0.62746 2.6232c0.44634 1.8987 0.56581 4.0402 0.62746 5.7622 0.0321 0.86173 0 1.5774 0 2.112 0 0.23369 2e-3 0.42648 8.5e-4 0.67478-9.4e-4 0.23369-0.0819 1.1451-0.0819 1.1451-0.0816 0.78579-0.90292 2.1558-1.9151 3.0967-1.0122 0.93768-2.2475 1.5716-3.6514 2.1675-2.8078 1.1889-6.4949 2.0594-11.24 2.7955-6.7025 1.0166-13.102 1.4255-19.341 1.4255zm0-5.9907c5.9714 0 12.044-0.4002 18.428-1.37 4.4861-0.69523 7.8303-1.4985 9.8132-2.3398 0.99143-0.42064 1.6206-0.84128 1.8827-1.0837 0.0935-0.08761 0.11391-0.20447 0.11391-0.51412 0-0.47614 0.0276-1.1684 0-1.9396-0.0234-0.65433-0.0321-1.2152-0.22787-1.9396-1.1042 0.11682-1.7737 0.1753-3.4803 0.4002-2.9583 0.42649-5.3381 0.56962-7.0746 0.56962-6.534 0-11.293-0.34178-14.891-1.5394-3.0162-0.97858-5.5355-2.5764-7.1887-4.8497-1.6621-2.2872-2.2823-5.1859-1.9399-8.1587l1.4264-11.639h29.782s0.91577 0.0094 1.8827-0.4002c0.96689-0.40896 1.8263-0.82084 2.1681-3.3091 0.36952-2.6086-0.16358-2.5268-0.79864-2.8539-0.63651-0.32716-1.5976-0.34178-1.5976-0.34178h-30.466l1.084-7.5882c0.53368-4.7471 3.6533-8.6667 8.2728-10.84 4.6195-2.1733 10.719-3.0809 18.428-3.0809 2.0384 0 4.1459 0.33885 6.7893 0.62804h0.0584c2.1342 0.2629 3.1324 0.39143 4.336 0.51412 0.0381-0.05842 0.0759-0.08762 0.11399-0.17528-0.12578 0.29211 0.39259-1.5979 0.62743-3.0237 0.11702-0.71276 0.21317-1.4314 0.28634-1.9396 0.0321-0.2337 0.0381-0.3739 0.0584-0.51412-0.14906-0.14604-0.48314-0.39435-1.2552-0.74197-1.7617-0.79454-5.0477-1.6592-9.5279-2.3398h-0.0584c-6.0776-0.99317-11.843-1.4255-17.515-1.4255-11.823 0-19.628 1.5424-22.821 3.5372-4.0019 2.5764-6.9573 8.1938-8.1586 17.972l-3.7085 29.782v0.05843c-0.24831 2.3194-0.39931 4.5096-0.39931 6.333 0 6.5898 1.7623 9.7525 5.363 11.639 2.6775 1.3262 9.7497 2.5092 20.197 2.5092z"/>
		<path d="m116.6 99.465v63.095h-36.836v-62.892h-40.575v164.64h40.78v-61.344h36.834v61.344h40.37v-164.84z"/>
		<path d="m228.53 99.465v114.6c-0.2629 2.3661-2.5414 17.497-17.439 17.497h-0.20447l-0.29212 0.0295c-2.7459 0.14604-16.445 0.0291-18.139-17.556v-114.36h-41.072l0.11683 114.86c0.46738 19.542 13.262 56.231 58.394 56.231h-0.37975c0.99319 0.0295 24.625 1.1392 42.064-14.577 10.896-9.7858 16.825-23.689 17.702-41.333v-115.38h-7.0406z"/>
		<path d="m321.67 94.425c-9.7151 0.03916-24.56 2.097-38.462 12.03-0.35056 0.23368-13.321 9.085-17.848 27.809-0.23369 1.0516-4.4686 21.675 5.3172 36.339 0.40896 0.61344 11.07 16.68 32.014 24.45l23.341 8.6172c5.667 2.3077 12.093 6.3685 13.028 8.2672l0.11731 0.29219 0.26245 0.6125c0.32134 0.61344 2.7754 6.1344-2.2781 12.269-0.14605 0.11683-4.4693 4.8781-13.992 4.8781h-0.2047l-0.32186 0.0295c-0.35055 0-8.7344 0.43853-17.936-7.0688-3.4469-2.7459-8.8213-7.858-10.223-10.838l-4.0594-8.7344-28.248 25.998 2.3672 4.7609c0.29212 0.58422 7.4185 14.635 20.914 23.983 0.29212 0.23368 11.919 8.705 31.958 11.217 0.78781 0.0876 21.22 2.7392 37.889-7.6484 2.9958-1.6964 20.628-12.33 25.675-32.547l0.0578-0.2047 0.0578-0.23282c0.35074-2.0156 3.3594-19.952-2.1031-31.988l0.26382 0.58437c-0.20448-0.55501-4.9667-13.845-18.258-22.725-1.0516-0.87634-8.9088-7.0998-28.042-11.978l-0.26396-0.0578c-4.3233-0.93476-16.825-4.5273-22.55-9.8438l-0.2047-0.20478-0.35002-0.2626c-0.70106-0.55501-3.5062-3.038-3.5062-7.4781 0-1.3729 0.26275-2.9505 0.93439-4.7031 0.11671-0.29212 2.3662-5.463 10.838-7.5078 3.593-0.29212 12.854-1e-4 18.258 4.4984 3.008 2.3777 6.238 5.4011 6.9953 6.4812l4.1344 8.125 7.0688-6.1062 23.281-22.053-3.9734-5.0547c-0.66794-0.84203-16.695-21.026-41.595-23.214-1.2304-0.22579-5.0095-0.81365-10.35-0.79218z"/>
		<path d="m368.46 99.66v41.538h40.166v124.65h41.188v-124.44h39.377v-41.742z"/>
		<path d="m483.9 99.643v165.42h98.384v-40.575h-57.43v-124.85z"/>
		<path d="m577.39 98.875v166.39h97.975v-40.165h-57.605v-23.516h56.845v-39.609h-56.845v-21.735h57.225v-41.362z"/>
		<path d="m669.69 98.825v166.45h43.116v-47.088c13.642 17.264 37.156 47.088 37.156 47.088h50.039s-41.216-55.091-50.652-67.681c15.514-5.8904 34.316-20.399 34.409-48.725-2e-3 0.11683-8e-3 0.2629-0.0265 0.35055l0.0265-0.55501v0.0584c0.0302-0.64265 0.0877-1.2853 0.0877-1.9864 0-12.006-6.048-33.622-29.884-43.583l-0.17537-0.0876-0.17537-0.0584c-0.49659-0.17529-12.239-3.9736-25.384-4.1781h-0.1164zm43.533 40.828h13.905c13.174 1.3437 14.139 8.1216 14.139 10.02 0 0.0876-0.0302 0.7595-0.0302 0.7595 0 9.5521-10.662 10.809-13.028 10.955h-14.986z"/>
	</g>
	<g fill="#231f20">
		<path d="m46.247 106.71v150.53h26.641v-61.344h50.974v61.344h26.261v-150.73h-26.465v63.126h-50.944v-62.921z"/>
		<path d="m158.45 106.71 0.0876 107.79s1.1977 49.192 51.353 49.192c0 0 49.776 2.7458 52.347-49.192v-107.99h-26.67v107.99s-2.1616 24.099-24.479 24.099c0 0-23.34 1.7819-25.677-24.099v-107.79z"/>
		<path d="m368.07 122.78s-14.693-18.812-37.04-20.565c0 0-23.135-4.7322-43.7 9.9902 0 0-11.188 7.4489-15.102 23.72 0 0-3.9143 18.403 4.3233 30.759 0 0 9.5813 14.693 28.598 21.762l23.34 8.6173s15.073 6.076 17.235 12.532c0 0 5.2873 9.815-3.1256 20.01 0 0-6.0759 7.4489-19.425 7.4489 0 0-11.159 0.96397-22.931-8.6465 0 0-9.406-7.4489-12.123-13.32l-17.264 15.891s6.4557 12.911 18.608 21.353c0 0 10.399 7.6826 28.832 9.9903 0 0 18.608 2.5414 33.301-6.6602 0 0 17.848-9.406 22.551-28.218 0 0 3.1256-17.439-1.5774-27.838 0 0-4.1188-11.947-16.066-19.601 0 0-6.8646-5.8715-25.268-10.574 0 0-17.468-3.739-25.881-11.568 0 0-9.9903-7.2444-4.9075-20.389 0 0 3.1548-8.9971 16.271-11.947 0 0 14.693-1.5774 23.924 6.0759 0 0 7.6241 6.0759 8.8218 8.8218z"/>
		<path d="m375.51 106.71v27.429h40.195v124.64h27.02v-124.44h39.406v-27.634z"/>
		<path d="m490.95 106.7v151.31h84.274v-26.465h-57.429v-124.85z"/>
		<path d="m584.44 105.93v152.28h83.895v-26.056h-57.634v-37.624h56.845v-25.472h-56.845v-35.871h57.225v-27.254z"/>
		<path d="m706.15 132.58v35.871h22.347s19.776-0.99319 19.776-18.023c0 0 1.4898-15.686-20.652-17.848zm21.938-26.699c12.152 0.17529 23.135 3.7683 23.135 3.7683 27.634 11.568 25.472 38.997 25.472 38.997 0 38.997-39.202 44.898-39.202 44.898l48.432 64.674h-32.541l-47.614-60.38v60.38h-29.007v-152.34z"/>
	</g>
</svg>
