<svg xmlns="http://www.w3.org/2000/svg" height="245.215" width="600" viewBox="0 0 158.75 64.88"><defs><linearGradient id="c" gradientUnits="userSpaceOnUse" gradientTransform="translate(123.446 32.25) scale(35.303)" x2="1"><stop stop-color="#760c04" offset="0"/><stop stop-color="#d60c12" offset="1"/></linearGradient><linearGradient id="b" gradientUnits="userSpaceOnUse" gradientTransform="translate(40.813 32.44) scale(79.417)" x2="1"><stop stop-color="#3e92d4" offset="0"/><stop stop-color="#64bbff" offset="1"/></linearGradient><linearGradient id="a" gradientUnits="userSpaceOnUse" gradientTransform="translate(618.74 -242.6) scale(38.259)" x2="1"><stop stop-color="#760c04" offset="0"/><stop stop-color="#d60c12" offset="1"/></linearGradient></defs><path d="M21.494 0h16.67l.096 64.38-18.387-.03c.818-2.02 1.584-4.11 2.171-6.04 3.475-11.46-4.6-15.17 2.84-28.63 6.448-1.25 8.982-7.2 8.065-11.72l.03-1.45c-.41-.29-.705-.42-1.036-.77C28.244 11.97 23.974 8.72 21.494 0M2.66 0h14.944c.463 7.34 3.476 12.26 6.215 15.74.301.38.624.49 1.037.77l-.03 1.45c.922 4.52-1.604 10.48-8.053 11.73-3.846 10.98 3.315 14.2 2.978 23.41-.188 5.12-.937 7.6-1.922 11.25H0V0h2.66" fill="url(#a)" fill-rule="evenodd"/><path d="M120.23 59.18v5.17h-11.892V38.4h11.468v5.16h-4.59v4.93h4.287v4.93h-4.287v5.76zM99.716 38.4h6.884v25.95h-6.884zm-8.756 0h7.241L94.69 64.35H84.336L80.34 38.4h7.24c.82 7.14 1.416 13.2 1.78 18.18.36-5.03.753-9.48 1.173-13.36zM72.745 56.98c0 1.53-.063 2.49-.19 2.9-.135.4-.42.61-.884.61-.448 0-.733-.18-.86-.53-.118-.35-.176-1.28-.176-2.79v-12.1c0-1.33.09-2.14.277-2.41.186-.27.456-.4.81-.4.413 0 .69.16.824.5.13.34.2 1.11.2 2.31zm5.462-16.39c-.684-.92-1.593-1.59-2.714-2.05-1.125-.45-2.39-.68-3.8-.68-1.493 0-2.8.24-3.917.72s-2.002 1.17-2.662 2.07a6.122 6.122 0 0 0-1.17 2.97c-.128 1.08-.193 2.93-.193 5.53v4.44c0 2.67.07 4.54.197 5.6.127 1.07.54 2.06 1.227 2.97.68.91 1.582 1.59 2.71 2.04 1.122.45 2.391.68 3.808.68 1.485 0 2.792-.24 3.904-.72 1.126-.48 2.01-1.17 2.67-2.07a6.078 6.078 0 0 0 1.167-2.97c.13-1.08.193-2.93.193-5.53v-4.44c0-2.67-.065-4.54-.2-5.6a6.04 6.04 0 0 0-1.22-2.96zM53.021 38.4h8.918v25.95h-5.973l-.03-17.52-2.387 17.52h-4.222l-2.506-17.17-.03 17.17h-5.978V38.4h8.86c.232 1.56.504 3.39.816 5.5l.98 6.61zm66.776-2.62h-15.923V0h15.32v7.11h-6.307v6.74h5.89v6.86h-5.89v7.86h6.91zm-19.696-2.77c-.888 1.16-2.052 2.04-3.502 2.64-1.45.6-3.157.9-5.123.9-2.177 0-4.1-.36-5.765-1.07-1.67-.7-2.913-1.63-3.74-2.77-.826-1.13-1.313-2.34-1.46-3.6-.154-1.26-.225-3.92-.225-7.97V0h9.49v26.8c0 1.57.084 2.57.255 3.01.171.43.517.65 1.04.65.598 0 .98-.24 1.152-.72.171-.48.253-1.62.253-3.4V0h9.49v23.89c0 2.72-.086 4.63-.266 5.73-.178 1.1-.714 2.23-1.6 3.39zm-20.606 2.77h-15.2V0h9.49v28.57h5.71zM53.051 13.27c-.246.45-.833.67-1.753.67-.22 0-.53.01-.93.03V6.05c.963.01 1.61.08 1.943.19.33.12.602.41.81.85.21.45.31 1.23.31 2.35 0 2.11-.124 3.39-.38 3.83zm.38 13.01c0 1.45-.183 2.36-.546 2.73-.362.37-1.2.58-2.517.62V19.58c1.39.05 2.25.23 2.573.56.327.32.49 1.26.49 2.79zm3.864-9.92c1.97-.44 3.292-1.07 3.963-1.9.668-.82 1.004-2.28 1.004-4.37 0-3.1-.472-5.34-1.418-6.73-.948-1.4-2.188-2.21-3.724-2.67C55.58.24 53.318 0 50.333 0h-9.457v35.78h10.957c3.804 0 6.328-.22 7.557-.65 1.23-.42 2.127-1.22 2.69-2.39.563-1.17.842-2.97.842-5.4V24c0-2.34-.385-4.07-1.17-5.21-.78-1.12-2.267-1.94-4.457-2.43" fill="url(#b)"/><path d="M135.563 18.66H124.02s0-7.41 1.981-10.85c1.982-3.45 6.03-8.36 16.367-7.76 10.338.61 13.956 5.34 15.077 14.05 1.12 8.7-2.93 14.64-7.667 16.19 2.67.6 9.907 2.24 8.873 17.84-1.035 15.59-14.2 16.36-17.266 16.36-3.064 0-19.003.78-17.882-20.07 6.03 0 12.578.17 12.578.17s-.604 10.17 4.48 10.17c5.081 0 5.081-4.22 5.168-9.48.086-5.25-.775-7.24-1.723-8.18-.948-.95-3.188-1.73-8.27-1.55V25.9s3.1.43 4.825.08c1.722-.34 4.477-1.63 4.393-8.95-.087-7.33-2.584-7.41-4.309-7.5-1.722-.09-4.737.09-5.08 9.13" fill="url(#c)"/></svg>