<svg xmlns="http://www.w3.org/2000/svg" height="323.754" width="600.004" viewBox="0 0 158.751 85.66"><defs><linearGradient id="b" gradientUnits="userSpaceOnUse" gradientTransform="translate(53.89 42.83) scale(104.86)" x2="1"><stop stop-color="#3e92d4" offset="0"/><stop stop-color="#64bbff" offset="1"/></linearGradient><linearGradient id="a" gradientUnits="userSpaceOnUse" gradientTransform="translate(816.97 -320.33) scale(50.516)" x2="1"><stop stop-color="#760c04" offset="0"/><stop stop-color="#d60c12" offset="1"/></linearGradient></defs><path d="M28.382 0h22.011l.125 85-24.277-.04c1.08-2.67 2.092-5.42 2.866-7.98 4.589-15.13-6.077-20.02 3.749-37.8 8.516-1.64 11.862-9.5 10.65-15.47l.04-1.91c-.543-.39-.931-.57-1.369-1.02C37.294 15.8 31.656 11.52 28.382 0M3.51 0h19.734c.611 9.68 4.589 16.19 8.206 20.78.398.5.823.65 1.369 1.02l-.04 1.91c1.217 5.97-2.117 13.83-10.629 15.48-5.08 14.5 4.374 18.76 3.928 30.92-.248 6.75-1.237 10.03-2.537 14.85H0V0h3.51" fill="url(#a)" fill-rule="evenodd"/><path d="M158.751 78.14v6.82h-15.702V50.69h15.142v6.82h-6.061v6.51h5.661v6.51h-5.661v7.61zm-27.086-27.45h9.089v34.27h-9.089zm-11.561 0h9.561l-4.638 34.27h-13.67l-5.278-34.27h9.562c1.083 9.44 1.868 17.44 2.349 24.02.477-6.65.994-12.53 1.548-17.65zM96.052 75.23c0 2.02-.083 3.29-.251 3.83-.177.53-.555.8-1.166.8-.592 0-.969-.23-1.134-.69-.158-.47-.235-1.7-.235-3.69V59.5c0-1.75.12-2.82.366-3.17.246-.36.603-.54 1.069-.54.545 0 .911.22 1.088.67.172.44.263 1.46.263 3.04zm7.213-21.65c-.903-1.2-2.104-2.09-3.584-2.69-1.486-.6-3.154-.9-5.017-.9-1.972 0-3.698.31-5.172.95-1.475.64-2.644 1.54-3.515 2.73a8.019 8.019 0 0 0-1.546 3.92c-.169 1.43-.254 3.87-.254 7.31v5.85c0 3.53.091 6 .26 7.41.168 1.4.711 2.71 1.62 3.91.9 1.2 2.089 2.1 3.577 2.69 1.483.6 3.158.9 5.03.9 1.96 0 3.686-.32 5.154-.95 1.486-.63 2.655-1.54 3.527-2.73.86-1.18 1.383-2.48 1.54-3.92.171-1.43.254-3.87.254-7.31V64.9c0-3.53-.086-6-.263-7.41-.177-1.41-.703-2.71-1.611-3.91zm-33.256-2.89h11.776v34.27h-7.887l-.04-23.14-3.152 23.14h-5.574L61.823 62.3l-.04 22.66H53.89V50.69h11.699l1.077 7.27 1.294 8.73zm88.171-3.45h-21.026V0h20.228v9.39h-8.326v8.89h7.778v9.06h-7.778v10.38h9.124zm-26.006-3.65c-1.172 1.52-2.709 2.69-4.623 3.48-1.915.79-4.17 1.18-6.764 1.18-2.875 0-5.415-.46-7.613-1.4-2.206-.94-3.846-2.16-4.94-3.66-1.089-1.5-1.732-3.09-1.926-4.76-.203-1.67-.297-5.18-.297-10.52V0h12.53v35.38c0 2.08.111 3.4.337 3.97.226.58.683.86 1.372.86.791 0 1.294-.31 1.523-.94.225-.64.334-2.14.334-4.5V0h12.53v31.54c0 3.59-.115 6.11-.352 7.57-.234 1.45-.943 2.94-2.111 4.48zm-27.209 3.65H84.897V0h12.53v37.72h7.538zM70.049 17.52c-.326.59-1.1.89-2.314.89-.292 0-.7.01-1.229.03V7.98c1.272.02 2.126.1 2.566.26.434.16.794.53 1.069 1.12.277.59.411 1.62.411 3.1 0 2.79-.166 4.47-.503 5.06zm.503 17.18c0 1.91-.243 3.11-.723 3.6-.477.49-1.583.76-3.323.82V25.85c1.837.06 2.972.31 3.398.74.431.43.648 1.66.648 3.68zm5.101-13.1c2.6-.58 4.346-1.42 5.232-2.51.883-1.09 1.326-3.01 1.326-5.78 0-4.08-.623-7.04-1.872-8.88-1.252-1.84-2.889-2.92-4.918-3.52C73.387.31 70.401 0 66.46 0H53.973v47.24H68.44c5.024 0 8.356-.29 9.979-.85 1.623-.57 2.809-1.62 3.552-3.17.743-1.55 1.111-3.92 1.111-7.13v-4.4c0-3.09-.508-5.38-1.546-6.88-1.028-1.49-2.991-2.57-5.883-3.21" fill="url(#b)"/></svg>