<svg xmlns="http://www.w3.org/2000/svg" height="245.254" width="600" viewBox="0 0 158.75 64.889"><defs><linearGradient id="c" gradientUnits="userSpaceOnUse" gradientTransform="translate(123.3 32.18) scale(35.453)" x2="1"><stop stop-color="#760c04" offset="0"/><stop stop-color="#d60c12" offset="1"/></linearGradient><linearGradient id="b" gradientUnits="userSpaceOnUse" gradientTransform="translate(40.82 32.45) scale(79.422)" x2="1"><stop stop-color="#3e92d4" offset="0"/><stop stop-color="#64bbff" offset="1"/></linearGradient><linearGradient id="a" gradientUnits="userSpaceOnUse" gradientTransform="translate(323.11 -242.25) scale(38.261)" x2="1"><stop stop-color="#760c04" offset="0"/><stop stop-color="#d60c12" offset="1"/></linearGradient></defs><path d="M21.5 0h16.67l.09 64.39-18.38-.04c.81-2.02 1.58-4.1 2.17-6.04 3.47-11.46-4.6-15.16 2.84-28.63 6.45-1.25 8.98-7.19 8.06-11.72l.03-1.45c-.41-.29-.7-.42-1.03-.76C28.25 11.97 23.98 8.73 21.5 0M2.66 0h14.95c.46 7.34 3.47 12.27 6.21 15.75.3.37.62.48 1.04.76l-.03 1.45c.92 4.53-1.61 10.48-8.06 11.73-3.84 10.98 3.32 14.2 2.98 23.42-.19 5.11-.93 7.6-1.92 11.24H0V0h2.66" fill="url(#a)" fill-rule="evenodd"/><path d="M120.24 59.18v5.17h-11.89V38.4h11.47v5.16h-4.59v4.94h4.28v4.92h-4.28v5.76zM99.72 38.4h6.89v25.95h-6.89zm-8.75 0h7.24L94.7 64.35H84.34L80.35 38.4h7.24c.82 7.15 1.41 13.21 1.78 18.19.36-5.04.75-9.49 1.17-13.37zM72.75 56.99c0 1.52-.06 2.49-.19 2.89-.13.41-.42.61-.88.61-.45 0-.74-.17-.86-.52-.12-.36-.18-1.29-.18-2.8v-12.1c0-1.33.09-2.13.28-2.4.18-.27.45-.41.81-.41.41 0 .69.17.82.5.13.34.2 1.11.2 2.31zm5.46-16.4c-.68-.91-1.59-1.59-2.71-2.04-1.13-.46-2.39-.68-3.8-.68-1.49 0-2.8.23-3.92.72-1.11.48-2 1.16-2.66 2.06-.66.9-1.05 1.89-1.17 2.97-.13 1.09-.19 2.93-.19 5.54v4.43c0 2.67.07 4.55.19 5.61.13 1.07.54 2.06 1.23 2.96.68.91 1.58 1.59 2.71 2.05 1.12.45 2.39.68 3.81.68 1.48 0 2.79-.24 3.9-.73 1.13-.47 2.01-1.16 2.67-2.06.66-.9 1.05-1.89 1.17-2.97.13-1.09.19-2.93.19-5.54v-4.43c0-2.67-.06-4.54-.2-5.61a5.973 5.973 0 0 0-1.22-2.96zM53.03 38.4h8.92v25.95h-5.98l-.03-17.52-2.39 17.52h-4.22l-2.5-17.16-.03 17.16h-5.98V38.4h8.86l.81 5.51.98 6.61zm66.78-2.62h-15.93V0h15.32v7.11h-6.3v6.74h5.89v6.86h-5.89v7.86h6.91zm-19.7-2.76c-.89 1.15-2.05 2.04-3.5 2.63-1.45.6-3.16.9-5.12.9-2.18 0-4.11-.35-5.77-1.06-1.67-.71-2.91-1.64-3.74-2.77-.83-1.14-1.31-2.34-1.46-3.61-.15-1.26-.23-3.92-.23-7.97V0h9.49v26.8c0 1.57.09 2.57.26 3.01.17.44.52.65 1.04.65.6 0 .98-.24 1.15-.72.17-.48.26-1.61.26-3.4V0h9.49v23.89c0 2.72-.09 4.63-.27 5.73-.18 1.1-.71 2.23-1.6 3.4zM79.5 35.78H64.3V0h9.49v28.57h5.71zm-26.44-22.5c-.25.44-.84.67-1.76.67-.22 0-.53.01-.93.02V6.05c.97.01 1.61.08 1.95.2.33.12.6.4.81.85.21.44.31 1.22.31 2.34 0 2.11-.13 3.39-.38 3.84zm.38 13.01c0 1.45-.19 2.35-.55 2.72-.36.38-1.2.58-2.52.63V19.59c1.39.04 2.25.23 2.58.55.32.33.49 1.26.49 2.8zm3.86-9.93c1.97-.44 3.29-1.07 3.96-1.9.67-.82 1.01-2.28 1.01-4.37 0-3.09-.47-5.34-1.42-6.73-.95-1.39-2.19-2.21-3.72-2.67C55.58.24 53.32 0 50.34 0h-9.46v35.78h10.96c3.8 0 6.33-.21 7.56-.64 1.22-.43 2.12-1.23 2.69-2.4.56-1.17.84-2.97.84-5.4v-3.33c0-2.35-.39-4.08-1.17-5.21-.78-1.13-2.27-1.95-4.46-2.44" fill="url(#b)"/><path d="M137.83 10.81c-2.68 2.27-2.17 10.95-2.17 10.95h-12.2s-1.24-10.02 3.21-15.5C131.11.78 137.52-.25 143.31.05c5.79.32 11.17 2.69 13.85 8.59 2.69 5.89 1.24 15.3.83 17.16-.41 1.86-2.38 7.44-8.48 13.54-6.1 6.1-10.13 11.68-10.54 13.23 2.07-.11 19.78 0 19.78 0v11.78H123.3s-.31-8.43 2.96-15.4c5.27-11.27 15.71-18.91 17.98-23.98.92-2.05 1.2-4.55 1.06-7.99.18-7.1-4.27-8.76-7.47-6.17" fill="url(#c)"/></svg>