<?xml version="1.0" encoding="UTF-8"?>
<svg width="592.55" height="450" version="1.1" xmlns="http://www.w3.org/2000/svg">
	<path d="m592.23 278.44v-106.88l-294.83 171.48-297.4-171.48v106.88l297.08 171.56z" fill="#fff"/>
	<path d="m555.43 205.07c10.607-6.6696 25.071-12.777 24.107 2.0893a14.384 14.384 0 0 1-3.6161 8.0357 17.598 17.598 0 0 1-7.6339 4.9018 25.071 25.071 0 0 0-12.696 11.009 30.536 30.536 0 0 0-3.7768 13.821c0 2.9732 0.96429 13.58 9.3214 8.0357a32.143 32.143 0 0 0 2.8125-2.0893 13.259 13.259 0 0 0 4.1786-8.0357l-3.6161 2.25c-4.1786 2.5714-4.0982-4.5-4.0982-4.9018 0-8.0357 3.8571-10.205 4.0982-10.286l14.464-9.1607s4.4196-2.7322 4.2589 4.9822c-0.48214 26.277-7.1518 45.161-24.83 55.848-13.339 8.0357-27.161 0-27.241-24.107-0.0803-24.107 10.366-44.196 24.107-52.875"/>
	<path d="m177.27 285.27a71.839 71.839 0 0 1 32.866 60.268c0 24.107-14.866 31.42-33.268 20.25a71.116 71.116 0 0 1-32.143-59.223c0-25.152 14.545-32.143 32.143-21.054m1.4464 52.714c5.7054 2.7321 8.0357-1.5268 8.0357-8.0357a20.652 20.652 0 0 0-9.6429-16.955c-5.8661-2.8928-8.0357 1.6072-7.6339 8.0357a20.893 20.893 0 0 0 9.6428 16.795"/>
	<path d="m276.35 342.48a9.3214 9.3214 0 0 0-10.527 0l-13.42 10.527-14.705-27.482a28.527 28.527 0 0 0-9.6429-11.089 12.777 12.777 0 0 0-6.4286-2.0893c-7.3125 0-7.5536 9.8839-7.5536 11.009v47.652a24.107 24.107 0 0 0 11.089 22.741 6.8304 6.8304 0 0 0 3.2946 1.0446c6.2679 0 8.0357-10.848 8.0357-17.196v-7.9554l11.571 19.366a8.0357 8.0357 0 0 0 3.1339 3.2946 4.5 4.5 0 0 0 5.2232-0.80358l9.0804-5.7857v13.179c0 8.5982 0.96428 20.571 9.4018 25.232a13.098 13.098 0 0 0 6.3482 2.0893c5.5446 0 7.5536-6.0268 8.0357-11.17v-48.938a27.482 27.482 0 0 0-12.696-23.223"/>
	<path d="m63.241 259.31a28.125 28.125 0 0 1 10.527 22.902c0 12.777-7.0714 17.518-24.107 8.0357l-23.143-13.58a27.964 27.964 0 0 1-14.304-23.464v-46.527c0-0.5625 0-15.188 14.545-6.75l23.143 13.58c17.116 9.9643 24.107 22.741 24.107 35.518 0 5.5446-0.88393 13.339-10.768 10.688m-19.446 8.0357c3.6161 2.1696 5.0625 0 5.0625-2.4107a10.125 10.125 0 0 0-4.7411-8.8393l-6.9911-4.0179v11.411l6.75 3.8571m0.40178-27c3.2143 1.8482 4.8214 0 4.8214-3.2143a10.125 10.125 0 0 0-4.9821-8.0357l-7.1518-4.5v11.411l6.9911 4.0179"/>
	<path d="m110.01 247.5a71.839 71.839 0 0 1 32.143 60.188c0 24.107-14.223 31.339-32.625 20.17a73.527 73.527 0 0 1-33.268-59.786c0-25.152 16.071-31.339 33.75-20.571m0 52.152c5.7857 2.4911 8.0357-1.9286 7.0714-8.6786a20.652 20.652 0 0 0-10.607-16.071c-6.0268-2.4911-8.0357 2.0893-7.0714 8.9196a20.491 20.491 0 0 0 10.607 16.071"/>
	<path d="m489.13 245.33a5.3036 5.3036 0 0 1 7.2321 1.125l12.938 16.071v-13.42c0-0.48214-1.3661-15.107 8.0357-20.571 9.4018-5.4643 9.6429 9.0804 9.6429 9.6429v47.491c0 0.72322 0 15.268-9.4821 20.812-2.0089 1.125-3.6161 0.72321-5.7054-1.6072l-13.098-16.795v14.464a25.393 25.393 0 0 1-9.5625 20.652c-9.4822 5.4643-9.4822-9.0804-9.4822-9.8036v-47.491c0-0.5625 0-15.107 9.4822-20.571"/>
	<path d="m344.49 329.46c0.72322 0 9.5625-5.3839 9.5625 6.1875a20.33 20.33 0 0 1-9.5625 17.92l-16.071 9.3214v6.75l16.795-9.7232c2.9732-1.6875 6.3482-1.8482 6.3482 4.1786a12.938 12.938 0 0 1-6.2679 11.732l-16.875 9.8839v6.6696l16.071-9.4018c0.72322 0 9.5625-5.3839 9.5625 6.1875a20.33 20.33 0 0 1-9.5625 17.357l-26.839 15.509c-13.018 7.4732-12.937-7.0714-12.937-8.0357v-46.366a27.402 27.402 0 0 1 13.58-22.982z"/>
	<path d="m475.47 309.05a18.321 18.321 0 0 1 1.9286 8.0357 23.545 23.545 0 0 1-10.768 18.964 5.3036 5.3036 0 0 1-8.0357-2.4107l-1.8482-4.8214-19.527 11.25-2.5714 9a21.054 21.054 0 0 1-8.0357 11.652 7.5536 7.5536 0 0 1-11.571-7.1518 27.884 27.884 0 0 1 1.6071-8.8393l20.009-62.036a21.375 21.375 0 0 1 9-12.214c6.0268-3.4554 9.4018 0 10.286 1.2857zm-33.348 12.375 11.893-6.5089-5.5446-17.839-6.3482 24.107"/>
	<path d="m295.47 0 297.08 171.56-295.15 171.48-297.08-171.48z"/>
	<path d="m453.94 128.57-134.84-76.42-12.616-7.1518a41.625 41.625 0 0 0-33.589 2.7321l-186.03 108.16s-17.196 9.0804-4.6607 19.446l152.68 88.393c44.92 26.759 94.259 29.973 135.96 7.6339 27.402-14.705 27.402-39.777 13.741-56.25a109.12 109.12 0 0 0 78.268-8.0357c43.473-23.384 38.571-51.187-8.7589-78.027" fill="#fff"/>
	<path d="m356.3 140.79-22.339-12.857-0.9643-0.48214a9.9643 9.9643 0 0 0-9.4821-1.2857l-1.8482 1.0446-18.562 10.286s-4.4196 3.4554 0 6.2678l23.143 13.42a33.187 33.187 0 0 0 33.268 1.9286c9.9643-5.4643 8.5178-11.973-3.0536-18.562"/>
	<path d="m277.96 189.16-26.196-15.348a4.4196 4.4196 0 0 1-1.8482-0.80358 9.9643 9.9643 0 0 0-7.5536-1.7678l-24.75 13.58a3.0536 3.0536 0 0 0 1.2054 4.9018l27.884 16.071a33.67 33.67 0 0 0 32.705 1.6875c9.8036-5.3839 9.4822-12.455-1.4464-18.884"/>
	<path d="m404.44 333.08c8.0357-0.80357 8.0357 4.7411 8.0357 14.223v5.4643a25.393 25.393 0 0 1-11.732 21.295c-11.652 6.6696-9.7232-9-9.7232-9.7232v-10.205c0-5.8661-1.4464-6.3482-2.8125-5.5446l-5.8661 4.2589v17.679a25.312 25.312 0 0 1-11.571 20.813c-11.17 6.5089-11.652-6.6696-11.652-7.3929v-47.491a27.321 27.321 0 0 1 13.098-23.062l21.455-12.616c16.071-9.2411 20.33-2.9732 20.411 9.8036a29.009 29.009 0 0 1-9.6428 22.339m-15.188 0.88393a9.8839 9.8839 0 0 0 4.5-8.5179c0-2.4911-1.3661-6.3482-4.8214-4.3393l-8.7589 5.5446v13.018l6.3482-3.8572"/>
	<path d="m575.76 280.85v-6.4286l-2.0089 1.2054v-1.4464l5.4643-3.2143v1.4464l-2.0089 1.125v6.5089z"/>
	<path d="m587.25 266.38v8.0357l-1.3661 0.72322v-6.75l-1.2857 7.3928-1.3661 0.80357-1.2857-5.8661v6.5893l-1.2857 0.72321v-8.0357l2.0893-1.2054 1.2857 5.4643 1.5268-6.6696z"/>
</svg>
