<?xml version="1.0" encoding="UTF-8"?>
<!-- Created with Inkscape (http://www.inkscape.org/) -->
<svg width="800" height="416.26" version="1.1" xmlns="http://www.w3.org/2000/svg" xmlns:cc="http://creativecommons.org/ns#" xmlns:dc="http://purl.org/dc/elements/1.1/" xmlns:rdf="http://www.w3.org/1999/02/22-rdf-syntax-ns#">
 <metadata>
  <rdf:RDF>
   <cc:Work rdf:about="">
    <dc:format>image/svg+xml</dc:format>
    <dc:type rdf:resource="http://purl.org/dc/dcmitype/StillImage"/>
   </cc:Work>
  </rdf:RDF>
 </metadata>
 <path d="m378.95 214.54c47.063-16.273 80.738-53.796 80.738-109.53 0-13.957-7.0689-47.847-32.727-69.707-16.909-14.409-41.362-31.46-120.3-33.365-16.323-0.39962-65.949 1.3683-65.949 1.3683v2.8529c14.015 10.704 29.083 28.444 36.329 48.895 7.5414-0.248 18.957-0.85478 30.235-0.248 31.7 1.689 45.502 7.6171 59.785 18.846 14.368 11.278 22.096 30.649 22.002 48.227-0.0904 23.98-11.474 48.763-46.094 62.871-28.015 11.424-61.894 13.936-61.894 13.936l-0.0235 8.7375s20.287 9.7146 40.56 36.525c17.466 23.073 118.84 172.3 118.84 172.3h83.753s-135.35-188.54-145.26-201.72zm-267.89 144.13h-46.899v-304.21c0.65639 0 21.046-0.2596 33.745-0.2596 52.363 0 81.396 27.079 82.21 64.243 0.50466 22.56-6.1848 44.204-29.197 60.124-18.784 13.02-44.956 16.9-44.956 16.9v9.7967s36.28 5.4028 54.7 14.018c34.305 16.013 44.492 40.898 44.729 73.071 0.38192 50.873-48.731 66.32-94.332 66.32zm-111.06-355.49v413.07h91.66c120.33 0 183.94-44.338 183.94-128.25 0-49.953-31.37-83.001-80.749-94.466 32.172-19.038 52.836-47.024 52.836-88.725 0-44.594-26.469-103.54-137.32-103.54-46.669 0-97.815 1.508-110.37 1.8991z" fill="#35b6e5" fill-rule="evenodd"/>
 <path d="m735.78 0c-7.0908 1.12e-4 -14.364 0.11568-21.841 0.36357-7.3486 0.12432-14.451 0.30704-21.284 0.55496v125.21c3.2231 0.124 5.6139 0.19143 7.161 0.19143 12.763 0.4961 22.827 0.7463 30.176 0.7463 21.788 0 38.354-6.5362 51.246-17.947 13.021-11.41 18.763-26.835 18.763-47.92-1e-4 -10.914-0.77014-20.278-3.8642-28.092-2.9653-7.8136-6.5763-14.127-12.378-18.964-5.6728-4.8369-12.585-8.388-20.707-10.621-7.9933-2.3564-17.087-3.5209-27.271-3.5211zm-174.04 0.74632v124.75h25.531v-53.581h55.477v53.581h24.761v-124.75h-24.761v49.486h-55.477v-49.486zm172.11 19.563c13.795 9.6e-5 24.439 4.3518 30.369 11.421 5.9304 6.9456 8.8915 17.176 8.8916 30.694-6e-5 13.767-4.3919 24.951-11.612 31.897-7.2198 6.9455-16.883 10.41-29.002 10.41-4.3835 2e-5 -10.937-0.25018-15.062-0.74631v-83.313c2.5784-0.24794 9.582-0.36349 16.415-0.36357z" fill="#0086cb"/>
</svg>
