<?xml version="1.0" encoding="UTF-8"?>
<svg version="1.1" viewBox="0 0 549.2 450" xmlns="http://www.w3.org/2000/svg">
	<path d="m549.2 447.95v2.0454h-82.841l-158.52-229.09v-2.0455h45c55.227 0 87.955-35.795 87.955-80.795 0-45-32.727-77.727-87.955-77.727h-38.864l-50.114-58.295v-2.0455h93.068c96.136 0 155.45 51.136 155.45 133.98 0 66.477-37.841 110.45-98.182 122.73zm-352.84-241.36c48.068-12.273 73.636-47.045 73.636-94.091 0-67.5-53.182-111.48-149.32-111.48h-120.68v447.95h131.93c106.36 0 164.66-54.205 164.66-131.93-1.0227-58.295-33.75-99.205-100.23-110.45m-67.5 183.07h-61.364v-328.3h50.114c56.25 0 81.818 26.591 81.818 64.432 0 39.886-29.659 69.545-87.955 72.614v32.727c75.682 3.0682 114.55 26.591 114.55 78.75 0 50.114-35.795 79.773-97.159 79.773" fill="#016aff"/>
</svg>
