<?xml version="1.0" encoding="UTF-8"?>
<!-- Created with Inkscape (http://www.inkscape.org/) -->
<svg width="571.68" height="450" version="1.1" xmlns="http://www.w3.org/2000/svg" xmlns:cc="http://creativecommons.org/ns#" xmlns:dc="http://purl.org/dc/elements/1.1/" xmlns:rdf="http://www.w3.org/1999/02/22-rdf-syntax-ns#">
 <metadata>
  <rdf:RDF>
   <cc:Work rdf:about="">
    <dc:format>image/svg+xml</dc:format>
    <dc:type rdf:resource="http://purl.org/dc/dcmitype/StillImage"/>
   </cc:Work>
  </rdf:RDF>
 </metadata>
 <path d="m414.15 231.25c51.026-17.661 87.57-58.365 87.57-118.73 0-15.166-7.7297-51.908-35.518-75.634-18.346-15.655-44.863-34.099-130.48-36.203-17.71-0.44022-71.475 1.4679-71.475 1.4679s-0.0489 3.033 0.14686 3.2288c15.264 11.839 31.359 30.723 39.235 52.935 8.1699-0.29523 20.547-0.9294 32.729-0.29523 34.392 1.8592 49.363 8.2682 64.92 20.45 15.557 12.231 23.923 33.218 23.825 52.248-0.0979 26.027-12.426 52.935-49.998 68.246-30.381 12.377-67.121 15.068-67.121 15.068l-0.0489 9.491s22.015 10.518 44.03 39.628c18.933 25.048 128.86 186.83 128.86 186.83h90.848s-146.77-204.49-157.53-218.73" fill="#35b6e5" stroke-width="3.737"/>
 <path d="m214.48 208.46c34.882-20.596 57.289-50.977 57.289-96.18 0-48.335-28.669-112.28-148.92-112.28-58.219 0-122.84 2.1525-122.84 2.1525v447.85h102.59c130.48 0 199.46-48.092 199.46-139.04 0-54.206-34.001-90.067-87.57-102.49m-90.9 179.15h-50.831v-329.93c0.68493 0 22.798-0.34381 36.594-0.34381 56.751 0 88.258 29.402 89.185 69.715 0.53814 24.461-6.7513 47.943-31.702 65.215-20.352 14.09-48.727 18.297-48.727 18.297v10.616s39.676 5.137 59.296 15.215c36.888 18.933 48.529 44.374 48.529 79.255 0 53.032-52.887 71.964-102.35 71.964" fill="#35b6e5" stroke-width="3.737"/>
</svg>
