<?xml version="1.0" encoding="UTF-8" standalone="no"?>
<!-- Created with Inkscape (http://www.inkscape.org/) -->

<svg
   xmlns:dc="http://purl.org/dc/elements/1.1/"
   xmlns:cc="http://creativecommons.org/ns#"
   xmlns:rdf="http://www.w3.org/1999/02/22-rdf-syntax-ns#"
   xmlns:svg="http://www.w3.org/2000/svg"
   xmlns="http://www.w3.org/2000/svg"
   xmlns:sodipodi="http://sodipodi.sourceforge.net/DTD/sodipodi-0.dtd"
   xmlns:inkscape="http://www.inkscape.org/namespaces/inkscape"
   id="svg2"
   version="1.1"
   inkscape:version="0.92.4 (5da689c313, 2019-01-14)"
   width="500"
   height="260.15982"
   sodipodi:docname="br fernsehen hd.svg">
  <metadata
     id="metadata8">
    <rdf:RDF>
      <cc:Work
         rdf:about="">
        <dc:format>image/svg+xml</dc:format>
        <dc:type
           rdf:resource="http://purl.org/dc/dcmitype/StillImage" />
        <dc:title></dc:title>
      </cc:Work>
    </rdf:RDF>
  </metadata>
  <defs
     id="defs6" />
  <sodipodi:namedview
     pagecolor="#ffffff"
     bordercolor="#666666"
     borderopacity="1"
     objecttolerance="10"
     gridtolerance="10"
     guidetolerance="10"
     inkscape:pageopacity="0"
     inkscape:pageshadow="2"
     inkscape:window-width="1920"
     inkscape:window-height="1013"
     id="namedview4"
     showgrid="false"
     fit-margin-top="0"
     fit-margin-left="0"
     fit-margin-right="0"
     fit-margin-bottom="0"
     inkscape:zoom="1.4271523"
     inkscape:cx="219.90574"
     inkscape:cy="207.07051"
     inkscape:window-x="0"
     inkscape:window-y="0"
     inkscape:window-maximized="1"
     inkscape:current-layer="svg2"
     inkscape:snap-bbox="true"
     inkscape:bbox-nodes="true" />
  <path
     sodipodi:nodetypes="cscccccccccccccccccccsccccccccccsscsscc"
     inkscape:connector-curvature="0"
     id="path10"
     style="fill:#0086cb;fill-rule:evenodd;stroke:none;stroke-width:2.13201404"
     d="m 236.84539,134.08729 c 29.41414,-10.17054 50.46096,-33.62221 50.46096,-68.453219 0,-8.722987 -4.41809,-29.904651 -20.45423,-43.566861 -10.56818,-9.00545 -25.85125,-19.66267 -75.18687,-20.8534 -10.2017,-0.24976 -41.21832,0.8552 -41.21832,0.8552 v 1.78306 c 8.7592,6.68988 18.17664,17.77748 22.7059,30.5591 4.71338,-0.155 11.84796,-0.53424 18.89702,-0.155 19.81232,1.05565 28.43845,4.760663 37.36566,11.778785 8.97979,7.049057 13.80989,19.155806 13.75153,30.141563 -0.0565,14.987761 -7.1713,30.476842 -28.80871,39.294662 -17.50934,7.14005 -38.68369,8.70985 -38.68369,8.70985 l -0.0147,5.46094 c 0,0 12.67925,6.07162 25.3497,22.8281 10.91631,14.42088 74.27533,107.68976 74.27533,107.68976 h 52.34588 c 0,0 -84.5917,-117.84013 -90.78556,-126.07261 z M 69.412554,224.17086 H 40.100532 V 34.03916 c 0.410246,0 13.153636,-0.16225 21.090589,-0.16225 32.727002,0 50.872709,16.924269 51.381549,40.151582 0.31541,14.099884 -3.86547,27.627298 -18.248077,37.577218 -11.7403,8.13743 -28.097386,10.5624 -28.097386,10.5624 v 6.12296 c 0,0 22.674954,3.37677 34.187373,8.76095 21.44071,10.00828 27.80763,25.56145 27.95552,45.66907 0.2387,31.79534 -30.45696,41.44974 -58.957546,41.44974 z M 0,1.98876 v 258.17043 h 57.287412 c 75.206988,0 114.964698,-27.71107 114.964698,-80.15382 0,-31.22087 -19.60633,-51.8755 -50.468,-59.04131 20.10761,-11.89901 33.0223,-29.390264 33.0223,-55.453028 C 154.80641,37.639531 138.26344,0.80106 68.980429,0.80106 39.812531,0.80106 7.845901,1.74353 0,1.98801 Z" />
  <path
     style="font-style:normal;font-variant:normal;font-weight:bold;font-stretch:normal;font-size:303.80941772px;line-height:125%;font-family:TheSansCorrespondence;-inkscape-font-specification:'TheSansCorrespondence Bold Italic';text-align:start;letter-spacing:-11.5556469px;word-spacing:0px;writing-mode:lr-tb;text-anchor:start;opacity:1;fill:#00437d;fill-opacity:1;stroke:none;stroke-width:1.19471908"
     d="m 459.86219,0 c -4.43178,7e-5 -8.97723,0.0723 -13.65067,0.22723 -4.59289,0.0777 -9.03196,0.1919 -13.30253,0.34685 v 78.254811 c 2.01443,0.0775 3.50868,0.119648 4.47563,0.119648 7.9771,0.310061 14.26686,0.466438 18.85973,0.466438 13.61748,0 23.97103,-4.085114 32.0288,-11.216639 C 496.41131,61.06684 499.99994,51.426211 500,38.24837 c -6e-5,-6.8214 -0.48134,-12.6738 -2.4151,-17.55739 -1.85334,-4.88347 -4.11021,-8.82923 -7.73608,-11.85245 C 486.30334,5.81547 481.98305,3.59606 476.90681,2.20069 471.91101,0.72796 466.2277,1.1e-4 459.86219,3e-5 Z M 351.08954,0.46645 v 77.969679 h 15.95708 V 44.947903 h 34.67307 v 33.488226 h 15.47546 V 0.46645 H 401.71969 V 31.39522 H 367.04662 V 0.46645 Z m 107.5667,12.22704 c 8.62169,6e-5 15.27426,2.71987 18.98083,7.13825 3.70648,4.34098 5.55718,10.73472 5.55722,19.18397 -4e-5,8.604353 -2.74494,15.594634 -7.2572,19.935541 -4.51239,4.340932 -10.55209,6.506295 -18.12624,6.506282 -2.73966,1.3e-5 -6.83553,-0.156362 -9.41393,-0.466448 V 12.92073 c 1.61148,-0.15496 5.98872,-0.22718 10.25932,-0.22723 z"
     id="path3763"
     inkscape:connector-curvature="0"
     sodipodi:nodetypes="cccccsccccccccccccccccccccccssccc" />
</svg>
