<?xml version="1.0" encoding="UTF-8"?>
<svg width="223.02" height="450" version="1.1" xmlns="http://www.w3.org/2000/svg">
	<path d="m223.02 167.89v-156.44c0-6.2869-5.1458-11.443-11.443-11.443h-200.04c-6.2869 0-11.443 5.1568-11.443 11.443v156.44c0 6.2979 5.1568 11.443 11.443 11.443h200.04c6.2979 0 11.443-5.1458 11.443-11.443" fill="#00397d"/>
	<path d="m97.285 87.022c8.8982-5.2665 14.603-12.99 14.603-24.522 0-12.343-7.3072-28.637-37.974-28.637-14.834 0-31.314 0.55957-31.314 0.55957v114.18h26.146c33.278 0 50.866-12.266 50.866-35.461 0-13.824-8.6788-22.953-22.328-26.124m-23.173 45.665h-12.968v-84.122c0.17555 0 5.8151-0.06583 9.3261-0.06583 14.482 0 22.504 7.4828 22.745 17.753 0.13166 6.243-1.7226 12.233-8.0754 16.634-5.1897 3.5988-12.442 4.674-12.442 4.674v2.6991s10.039 1.5031 15.13 3.884c9.4797 4.4326 12.299 11.301 12.376 20.2 0.10971 14.066-13.484 18.345-26.091 18.345m91.089 15.887s-28.033-41.265-32.85-47.65c-5.6067-7.417-11.213-10.094-11.213-10.094v-2.4138s9.37-0.69123 17.117-3.8511c9.5675-3.895 12.716-10.763 12.738-17.391 0.022-4.8606-2.1066-10.215-6.0675-13.319-3.9608-3.116-7.7681-4.7508-16.557-5.2227-3.1051-0.16458-6.254 0-8.3387 0.06583-2.0079-5.6615-6.1662-10.555-10.039-13.517v-0.78997s13.714-0.48276 18.214-0.38401c21.834 0.53763 28.604 5.2446 33.278 9.2274 7.0878 6.0455 9.0409 15.415 9.0409 19.278 0 15.404-9.2932 25.795-22.306 30.293 2.732 3.6207 40.146 55.77 40.146 55.77z" fill="#fff"/>
	<path d="m222.91 438.56c0 6.2979-5.1459 11.443-11.454 11.443h-200.02c-6.2979 0-11.443-5.1459-11.443-11.443v-229.17c0-6.2869 5.1459-11.443 11.443-11.443h200.02c6.3088 0 11.454 5.1568 11.454 11.443z" fill="#00397d"/>
	<path d="m205.79 417.28c-3.906-2.4797-6.0455-6.0455-7.5596-10.236-2.6003-7.2963-2.1944-14.943-2.6552-22.493-0.14262-2.1505 0.022-6.638 0.15362-8.5032a34.287 34.287 0 0 0 5.4311-0.87776c3.9499-0.96553 8.9092-2.9624 11.816-5.1568 1.7116-1.2946 2.0518-3.1819 1.8542-5.1349-0.40596-3.6317-2.4358-5.0581-6.0565-4.3009a508.17 508.17 0 0 0-9.0079 2.0298 20.189 20.189 0 0 1-2.348 0.28527s3.8731-35.165 4.4655-39.301c0.46083-3.2696-2.1066-5.5079-4.1803-7.2743-3.4013-2.8966-7.033-1.6458-8.0644 2.6004-1.6678 6.9342-2.6771 15.404-3.2257 20.09-0.58151 4.8496-2.1066 24.863-2.1066 24.863s-2.8637 0.38402-9.2054 0.0109c-1.9091 0.0109-2.8198 0.8229-3.0941 2.6552-0.58151 3.8182 0.59248 5.9358 4.0925 7.9656 1.8323 1.0533 6.3418 1.547 7.1646 1.6896 0.10972 3.6756-0.76803 13.791-2.2822 21.198-1.8214 9.9734-4.8386 17.501-11.103 22.361-2.5126 1.9421-4.9484 2.0737-7.2743-2.359a20.013 20.013 0 0 1-1.7226-5.2446 50.8 50.8 0 0 1-0.43888-9.0189c0.32916-9.9076 0.69123-17.007 0.9765-25.696 0.13167-3.9169 0.95455-8.7666 0.96552-8.8214 0.69123-3.0502-1.8762-6.243-3.4891-7.779-1.163-1.1301-3.6207-1.3166-5.6176-0.78997l-2.4907 0.69122s-1.953-0.28527-2.8088-0.49372c-4.9044-1.152-8.3387 0.82288-11.729 4.7069a43.372 43.372 0 0 0-4.5972 6.3637c-6.232 11.981-9.9405 24.643-9.0299 38.292 0.2304 3.3793 1.0204 6.6051 2.3151 9.6662a12.694 12.694 0 0 1-3.0502 1.7665c-3.6097 1.6128-5.4202 0.0109-6.2101-2.6991-1.4044-4.8606-1.4922-10.5-1.6348-15.953-0.1207-4.4326-0.55958-12.255-0.72415-19.87-0.10972-5.2775-1.4812-12.903-5.0032-16.172-4.9264-4.5533-11.103-3.6975-15.283 1.8432-5.6725 7.5267-9.6114 16.173-13.254 25.005-1.2178 2.7211-5.0142 12.178-5.2227 12.113-0.18653 0.14263-2.1396-13.594-2.9295-17.929-1.2727-6.9562-2.4797-13.55-7.1317-18.016-4.9374-4.7398-11.619-4.7728-15.711 0.77901a24.5 24.5 0 0 0-3.1819 5.5518 191.85 191.85 0 0 0-5.0581 14.834c-0.39499 1.2946-1.7775 6.8135-1.975 6.6928-0.21944 0.0109-1.2398-13.21-1.4921-16.084-0.60346-7.1317-2.6004-9.6553-9.6772-9.8747-2.2383-0.0659-3.4891 1.1959-3.8072 3.3025a19.475 19.475 0 0 0 0.12069 5.1129c0.47179 3.6427 3.7304 35.417 5.8261 47.552 0.29624 1.7006 0.5486 2.9405 1.4702 4.0376 2.743 3.3245 8.9092 3.1709 9.0299 3.1489 1.8982-0.35109 2.9624-2.337 3.5329-4.8166 0.51568-2.2163 1.1191-5.047 1.6128-7.1646 2.5345-10.972 8.2399-29.997 10.28-36.196 0.39499-1.1849 1.2288-3.4452 1.7226-3.4891 0.74608-0.0548 1.2508 2.7649 1.4263 3.7963 0.57054 3.5768 4.0267 28.505 5.9248 37.677 0.81192 3.9279 3.3793 7.8229 7.033 8.602 3.2587 0.7022 4.9374-0.41694 7.2085-4.8056 5.4969-10.653 9.6114-22.032 14.087-33.212 3.7962-10.28 7.3292-17.775 8.0205-17.577 0.86678 0.022 1.1849 7.7022 1.2398 8.5362 0.20847 2.9295 0.28528 5.87 0.29625 8.8105 0.0109 2.8527 0.34012 10.686 0.34012 10.686 0.37305 7.2524 1.0972 15.821 4.4326 20.792 5.9687 8.8873 16.074 7.6364 22.767 2.1176l0.41694-0.39498c2.4687 2.4797 5.486 4.1912 8.174 4.3448 3.9169 0.24138 6.3747-0.3511 9.1725-2.0079 2.6991-1.58 4.4875-4.1035 6.5063-6.4624 1.152 1.558 2.754 4.1912 5.881 6.0016 5.1568 2.754 11.509 3.5768 18.916-3.0283 1.0533-0.94357 2.5784-2.6772 3.3903-3.8292 2.3809-3.3464 6.7038-10.313 6.8135-10.324 0.0768-0.0109 1.0204 2.0957 1.3934 2.9185 6.5502 14.274 21.242 18.697 32.29 11.575v-16.557c-5.8371 8.163-13.692 9.0518-17.128 6.8794m-55.935-42.494c-0.0548 3.0502-0.16458 4.685-0.35111 9.4688-0.16457 4.5204-0.46082 9.359-0.60345 13.067-0.26333 6.649-1.3495 11.981-4.0925 17.885a12.233 12.233 0 0 1-4.8056 5.486c-1.3166 0.78997-2.1505 0.59249-3.1709-0.52666-2.5894-2.8637-2.743-6.4186-3.0173-9.9515-0.0659-0.76803-0.0109-1.547-0.0109-2.3261 0.25236-5.87 1.3495-11.586 3.0831-17.226 1.2178-3.9608 2.4577-7.0768 4.1912-10.818 1.1849-2.5784 3.0282-5.464 4.9484-7.2304 0.57054-0.52665 1.7446-1.9201 3.0502-1.569 1.4373 0.38403 0.80095 2.7211 0.77901 3.7414m-126.45-172.13c0.23041 3.4122 0.779 9.2603 0.64734 13.967-0.2743 10.642-0.17556 59.095-0.17556 72.699 0 0.26333 0.08777 2.7979-0.04388 2.8308 0 0-7.3402-2.5236-8.1192-2.8088-3.4561-1.3276-7.7571-2.0847-9.7869 1.8543-1.3714 2.6881 0.29624 5.2446 2.9953 7.0769 2.8417 1.7554 6.5283 3.1489 10.566 4.2571 1.2288 0.34012 3.7524 1.174 3.9937 1.4702 0.21944 0.28527 0.38401 2.2602 0.41693 4.0047 0.1975 12.562 0.49374 25.126-0.34013 37.677-0.25235 3.6427 3.7085 6.5392 8.9421 6.7367 4.0705 0.13167 5.3104-2.0079 5.3763-6.4076 0.1536-9.4797-0.779-39.915-0.38401-40.442 0-0.0659 5.1459 0.78997 9.8418 1.3714 4.3009 0.59248 7.1756 0.84484 9.9076 1.0423 0 0 0.72414 25.17 0.71317 28.297 0.14263 2.359 0.23041 5.1239 1.6568 5.881a14.153 14.153 0 0 0 10.269 1.4592c2.3041-0.87776 1.7555-3.0612 1.6458-5.0471-0.46081-9.0189-0.68026-21.648-1.174-30.655 0 0 4.9593-0.51569 10.5-0.91068 0.13166-0.0109 0.28527 2.2164 0.80094 4.3229 1.3276 5.5408 3.4123 12.244 6.0784 16.392 11.981 17.38 31.643 19.794 45.094-0.0548 1.558 4.2461 4.1473 6.7148 7.2634 8.8873 2.2163 1.547 5.0581 2.4906 6.5502 1.141 1.7446-1.525 1.9201-4.3339 0.4718-7.033-6.5941-12.167-6.7477-25.247-5.1897-38.577 0.7351-6.3308 2.6113-12.573 1.7994-19.059-0.29625-2.3919-5.5189-7.1427-7.8997-6.6599a5.848 5.848 0 0 0-4.9593 5.5847c-0.86679 9.9844-1.4482 19.936-2.5675 29.909-0.87776 7.7571-2.8198 15.777-8.0424 22.098-5.0252 6.0784-13.001 7.033-18.236 2.4248-4.2022-3.7085-6.616-8.7995-7.7242-14.098a49.615 49.615 0 0 1-0.98747-7.4279c0.06583-0.0659 7.1756-2.743 10.083-4.0486 15.086-7.5596 20.145-14.57 16.744-28.494-1.525-6.2979-4.5752-11.838-11.718-13.341-6.3747-1.3385-10.917 1.5031-15.086 6.265-6.5283 7.4828-8.9531 16.403-11.169 24.04-0.52665 2.0847-1.3056 5.4092-1.3056 5.4092-2.9405 1.0423-9.5236 1.6896-9.9734 1.6896a9.5894 9.5894 0 0 1-0.21944-2.1834c-0.06583-8.0204-0.1536-15.415 0.86678-24.874 1.174-10.851 2.1286-20.628 3.7195-31.434 0.41693-2.8527-0.3511-3.9718-2.9953-5.9138-2.9953-1.8323-5.5957-4.268-9.1067-1.3934-0.92164 0.73513-1.7007 1.174-1.8762 2.8856a1083.1 1083.1 0 0 0-2.1615 26.168c-1.0533 10.215-1.0313 23.568-1.8982 35.121-0.0768 1.0094-0.09874 1.591-0.1536 1.6238 0 0-5.9358 0.32916-17.479-1.4922a9.0189 9.0189 0 0 1-2.1505-0.46081c-0.17554-0.0878-0.12069-2.5674-0.1536-3.4452-0.69123-12.266 0.26333-29.13 0.08777-48.529-0.16458-17.72-0.28527-32.641-0.69123-40.025-0.06583-1.3605 0.0768-3.0173-0.23041-4.5094h-12.859a17.994 17.994 0 0 0-0.17555 4.7398m74.433 76.518c1.5141-2.6662 2.743-4.8386 5.091-6.8135 1.4812-1.2508 3.4013-1.6896 4.5313-1.4044 1.4044 0.34013 1.9421 2.1834 2.2163 3.4452 1.1849 5.3872-1.1081 9.0738-6.5173 12.716-3.2916 2.3151-9.0299 5.113-9.4578 4.7618-0.32916-0.17555 1.6568-8.3497 4.1364-12.705m48.65-44.908c0.12068 2.8307-1.4044 3.9499-3.8182 4.0705-4.9484 0.2304-10.072-3.6975-10.215-8.1192 0.10971-2.5236 0-6.2759 4.9374-6.1223 4.4216 0.12069 8.8982 5.102 9.0957 10.171" fill="#fff"/>
</svg>
