<svg xmlns="http://www.w3.org/2000/svg" height="472.68" viewBox="0 0 234.329 472.678" width="234.33"><defs><clipPath id="a"><path d="M0 0h595.28v595.28H0V0z"/></clipPath><clipPath id="b"><path d="M25.511 38.74h246.61v243.78H25.511V38.74z"/></clipPath></defs><g clip-path="url(#a)" transform="matrix(11.5261 0 0 -11.5261 -2907.916 5969.781)"><path d="M272.61 502.64v14.259c0 .573-.469 1.043-1.043 1.043h-18.232c-.573 0-1.043-.47-1.043-1.043V502.64c0-.574.47-1.043 1.043-1.043h18.232c.574 0 1.043.469 1.043 1.043" fill="#00397d"/><path d="M261.15 510.01c.811.48 1.331 1.184 1.331 2.235 0 1.125-.666 2.61-3.461 2.61-1.352 0-2.854-.051-2.854-.051v-10.407h2.383c3.033 0 4.636 1.118 4.636 3.232 0 1.26-.791 2.092-2.035 2.381m-2.112-4.162h-1.182v7.667c.016 0 .53.006.85.006 1.32 0 2.051-.682 2.073-1.618.012-.569-.157-1.115-.736-1.516-.473-.328-1.134-.426-1.134-.426v-.246s.915-.137 1.379-.354c.864-.404 1.121-1.03 1.128-1.841.01-1.282-1.229-1.672-2.378-1.672M267.34 504.4s-2.555 3.761-2.994 4.343c-.511.676-1.022.92-1.022.92v.22s.854.063 1.56.351c.872.355 1.159.981 1.161 1.585.002.443-.192.931-.553 1.214-.361.284-.708.433-1.509.476-.283.015-.57 0-.76-.006-.183.516-.562.962-.915 1.232v.072s1.25.044 1.66.035c1.99-.049 2.607-.478 3.033-.841.646-.551.824-1.405.824-1.757 0-1.404-.847-2.351-2.033-2.761.249-.33 3.659-5.083 3.659-5.083h-2.111z" fill="#fff"/><path d="M272.6 477.97c0-.574-.469-1.043-1.044-1.043h-18.23c-.574 0-1.043.469-1.043 1.043v20.887c0 .573.469 1.043 1.043 1.043h18.23c.575 0 1.044-.47 1.044-1.043V477.97z" fill="#00397d"/><path d="M271.04 479.91c-.356.226-.551.551-.689.933-.237.665-.2 1.362-.242 2.05-.013.196.002.605.014.775a3.125 3.125 0 0 1 .495.08c.36.088.812.27 1.077.47.156.118.187.29.169.468-.037.331-.222.461-.552.392a46.315 46.315 0 0 1-.821-.185 1.84 1.84 0 0 0-.214-.026s.353 3.205.407 3.582c.042.298-.192.502-.381.663-.31.264-.641.15-.735-.237-.152-.632-.244-1.404-.294-1.831-.053-.442-.192-2.266-.192-2.266s-.261-.035-.839-.001c-.174-.001-.257-.075-.282-.242-.053-.348.054-.541.373-.726.167-.096.578-.141.653-.154.01-.335-.07-1.257-.208-1.932-.166-.909-.441-1.595-1.012-2.038-.229-.177-.451-.189-.663.215a1.824 1.824 0 0 0-.157.478 4.63 4.63 0 0 0-.04.822c.03.903.063 1.55.089 2.342.012.357.087.799.088.804.063.278-.171.569-.318.709-.106.103-.33.12-.512.072l-.227-.063s-.178.026-.256.045c-.447.105-.76-.075-1.069-.429a3.953 3.953 0 0 1-.419-.58c-.568-1.092-.906-2.246-.823-3.49.021-.308.093-.602.211-.881a1.157 1.157 0 0 0-.278-.161c-.329-.147-.494-.001-.566.246-.128.443-.136.957-.149 1.454-.011.404-.051 1.117-.066 1.811-.01.481-.135 1.176-.456 1.474-.449.415-1.012.337-1.393-.168-.517-.686-.876-1.474-1.208-2.279-.111-.248-.457-1.11-.476-1.104-.017-.013-.195 1.239-.267 1.634-.116.634-.226 1.235-.65 1.642-.45.432-1.059.435-1.432-.071a2.233 2.233 0 0 1-.29-.506 17.485 17.485 0 0 1-.461-1.352c-.036-.118-.162-.621-.18-.61-.02-.001-.113 1.204-.136 1.466-.055.65-.237.88-.882.9-.204.006-.318-.109-.347-.301a1.775 1.775 0 0 1 .011-.466c.043-.332.34-3.228.531-4.334.027-.155.05-.268.134-.368.25-.303.812-.289.823-.287.173.032.27.213.322.439.047.202.102.46.147.653.231 1 .751 2.734.937 3.299.036.108.112.314.157.318.068.005.114-.252.13-.346.052-.326.367-2.598.54-3.434.074-.358.308-.713.641-.784.297-.064.45.038.657.438.501.971.876 2.008 1.284 3.027.346.937.668 1.62.731 1.602.079-.002.108-.702.113-.778.019-.267.026-.535.027-.803.001-.26.031-.974.031-.974.034-.661.1-1.442.404-1.895.544-.81 1.465-.696 2.075-.193l.038.036c.225-.226.5-.382.745-.396.357-.022.581.032.836.183.246.144.409.374.593.589.105-.142.251-.382.536-.547.47-.251 1.049-.326 1.724.276.096.086.235.244.309.349.217.305.611.94.621.941.007.001.093-.191.127-.266.597-1.301 1.936-1.704 2.943-1.055v1.509c-.532-.744-1.248-.825-1.561-.627m-5.098 3.873c-.005-.278-.015-.427-.032-.863-.015-.412-.042-.853-.055-1.191-.024-.606-.123-1.092-.373-1.63a1.115 1.115 0 0 0-.438-.5c-.12-.072-.196-.054-.289.048-.236.261-.25.585-.275.907-.006.07-.001.141-.001.212.023.535.123 1.056.281 1.57.111.361.224.645.382.986.108.235.276.498.451.659.052.048.159.175.278.143.131-.035.073-.248.071-.341m-11.525 15.688c.021-.311.071-.844.059-1.273-.025-.97-.016-5.386-.016-6.626 0-.024.008-.255-.004-.258 0 0-.669.23-.74.256-.315.121-.707.19-.892-.169-.125-.245.027-.478.273-.645.259-.16.595-.287.963-.388.112-.031.342-.107.364-.134.02-.026.035-.206.038-.365.018-1.145.045-2.29-.031-3.434-.023-.332.338-.596.815-.614.371-.012.484.183.49.584.014.864-.071 3.638-.035 3.686 0 .006.469-.072.897-.125.392-.054.654-.077.903-.095 0 0 .066-2.294.065-2.579.013-.215.021-.467.151-.536a1.29 1.29 0 0 1 .936-.133c.21.08.16.279.15.46-.042.822-.062 1.973-.107 2.794 0 0 .452.047.957.083.012.001.026-.202.073-.394.121-.505.311-1.116.554-1.494 1.092-1.584 2.884-1.804 4.11.005.142-.387.378-.612.662-.81.202-.141.461-.227.597-.104.159.139.175.395.043.641-.601 1.109-.615 2.301-.473 3.516.067.577.238 1.146.164 1.737-.027.218-.503.651-.72.607a.533.533 0 0 1-.452-.509c-.079-.91-.132-1.817-.234-2.726-.08-.707-.257-1.438-.733-2.014-.458-.554-1.185-.641-1.662-.221-.383.338-.603.802-.704 1.285a4.522 4.522 0 0 0-.09.677c.006.006.654.25.919.369 1.375.689 1.836 1.328 1.526 2.597-.139.574-.417 1.079-1.068 1.216-.581.122-.995-.137-1.375-.571-.595-.682-.816-1.495-1.018-2.191-.048-.19-.119-.493-.119-.493-.268-.095-.868-.154-.909-.154a.874.874 0 0 0-.02.199c-.006.731-.014 1.405.079 2.267.107.989.194 1.88.339 2.865.038.26-.032.362-.273.539-.273.167-.51.389-.83.127-.084-.067-.155-.107-.171-.263a98.717 98.717 0 0 1-.197-2.385c-.096-.931-.094-2.148-.173-3.201-.007-.092-.009-.145-.014-.148 0 0-.541-.03-1.593.136a.822.822 0 0 0-.196.042c-.016.008-.011.234-.014.314-.063 1.118.024 2.655.008 4.423-.015 1.615-.026 2.975-.063 3.648-.006.124.007.275-.021.411h-1.172a1.64 1.64 0 0 1-.016-.432m6.784-6.974c.138.243.25.441.464.621.135.114.31.154.413.128.128-.031.177-.199.202-.314.108-.491-.101-.827-.594-1.159-.3-.211-.823-.466-.862-.434-.03.016.151.761.377 1.158m4.434 4.093c.011-.258-.128-.36-.348-.371-.451-.021-.918.337-.931.74.01.23 0 .572.45.558.403-.011.811-.465.829-.927" fill="#fff"/></g><g clip-path="url(#b)" transform="matrix(1.3333 0 0 -1.3333 -336.38 690.58)"><text transform="matrix(1 0 0 -1 5.016 8.506)" font-size="5.674" font-family="'QZYROP +Helvetica'"><tspan y="0" x="0 3.1547997 6.3095994 9.4643984 13.561099 17.345724 21.130348 24.285149 28.069773 32.166473 36.263172 39.417973 40.677624 45.404148 48.558949 50.136349 53.291145 56.445946 59.600746 62.755547 65.910347 69.065147 73.161842 76.946472 80.731094 83.885895 87.670517 89.559998 92.71479 95.551842 98.388893 101.54369 104.69849 104.69849 106.58797 109.74277 112.89757 116.05237 119.20717 122.04422 125.19901 128.35382 133.08034 137.80687 139.38426 140.64392 143.79872 146.95352 150.10832 154.84052">01_REA_BRHeimat_2015_DAB_Broschüre_87x87mm.indd 1</tspan></text><path d="M248.82 8.506h2.724v.471h-2.167c.048.196.165.374.349.534.103.091.246.187.426.286l.381.211c.333.186.565.345.695.476.223.225.334.497.334.815 0 .3-.104.575-.313.82-.21.245-.542.368-.996.368-.548 0-.929-.192-1.145-.576-.122-.218-.186-.5-.191-.845h.507c.007.246.046.44.117.578.13.26.367.388.709.388.231 0 .415-.067.554-.203.138-.136.207-.32.207-.55a.73.73 0 0 0-.227-.529c-.095-.097-.263-.216-.501-.355l-.532-.307c-.357-.207-.596-.437-.719-.69s-.193-.55-.212-.892zM253.28 11.316v-2.81h.531v3.951h-.393c-.07-.306-.176-.501-.318-.583s-.393-.141-.753-.176v-.382h.933zM258.07 12.474c-.571 0-.966-.301-1.183-.903-.116-.324-.175-.71-.175-1.161 0-.582.097-1.045.291-1.391.233-.414.588-.621 1.064-.621.529 0 .909.254 1.142.759.16.353.241.8.241 1.339 0 .569-.089 1.016-.266 1.343-.229.423-.6.635-1.114.635zm-.007-3.621c-.322 0-.549.187-.682.563-.087.245-.131.57-.131.975 0 .537.068.943.204 1.22.136.276.351.414.645.414.32 0 .536-.145.647-.436s.167-.662.167-1.112c0-.624-.078-1.052-.231-1.281s-.359-.343-.619-.343zM261.17 11.316v-2.81h.531v3.951h-.393c-.07-.306-.176-.501-.318-.583s-.393-.141-.753-.176v-.382h.933zM265.9 11.316v-2.81h.531v3.951h-.393c-.07-.306-.176-.501-.318-.583-.143-.082-.393-.141-.753-.176v-.382h.933zM267.76 9.517c.029-.376.168-.656.417-.838s.534-.273.858-.273c.508 0 .877.144 1.109.43.232.286.348.617.348.991 0 .361-.127.657-.38.892s-.561.353-.925.353c-.194 0-.365-.032-.513-.092a1.237 1.237 0 0 1-.263-.158l.169 1.103h1.687v.482h-2.061l-.302-2.136.432-.025c.087.117.192.21.315.276a.91.91 0 0 0 .441.101c.237 0 .44-.076.609-.227.169-.152.253-.366.253-.644 0-.228-.071-.437-.213-.626-.143-.188-.361-.282-.657-.282a.95.95 0 0 0-.41.083c-.23.11-.363.305-.396.59h-.518zM276.94 11.316v-2.81h.531v3.951h-.393c-.07-.306-.176-.501-.318-.583s-.393-.141-.753-.176v-.382h.933zM280.15 12.474c-.571 0-.966-.301-1.183-.903-.116-.324-.175-.71-.175-1.161 0-.582.097-1.045.291-1.391.233-.414.588-.621 1.064-.621.529 0 .909.254 1.142.759.16.353.241.8.241 1.339 0 .569-.089 1.016-.266 1.343-.229.423-.601.635-1.114.635zm-.007-3.621c-.322 0-.549.187-.682.563-.087.245-.131.57-.131.975 0 .537.068.943.204 1.22.136.276.351.414.645.414.32 0 .536-.145.647-.436s.167-.662.167-1.112c0-.624-.078-1.052-.231-1.281s-.36-.343-.619-.343zM284.88 12.474c-.571 0-.966-.301-1.183-.903-.116-.324-.175-.71-.175-1.161 0-.582.097-1.045.291-1.391.233-.414.588-.621 1.064-.621.529 0 .909.254 1.142.759.16.353.241.8.241 1.339 0 .569-.089 1.016-.266 1.343-.229.423-.601.635-1.114.635zm-.007-3.621c-.322 0-.549.187-.682.563-.087.245-.131.57-.131.975 0 .537.068.943.204 1.22.136.276.351.414.645.414.32 0 .536-.145.647-.436s.167-.662.167-1.112c0-.624-.078-1.052-.231-1.281s-.359-.343-.619-.343zM288.05 10.811a.79.79 0 0 0-.49.158.522.522 0 0 0-.207.439c0 .166.054.312.161.436s.28.186.519.186c.242 0 .422-.062.54-.186a.585.585 0 0 0-.009-.849c-.123-.123-.295-.184-.514-.184zm.032-1.964c-.288 0-.501.075-.639.226a.769.769 0 0 0-.206.536c0 .239.075.427.226.564a.84.84 0 0 0 .583.203c.245 0 .447-.066.604-.2.157-.133.235-.328.235-.584 0-.248-.076-.434-.228-.558a.877.877 0 0 0-.575-.187zm-.709 1.773a1.075 1.075 0 0 1-.51-.392 1.073 1.073 0 0 1-.172-.609c0-.399.133-.702.4-.912.268-.21.594-.315.98-.315.428 0 .76.122.995.365.234.242.351.538.351.888 0 .295-.087.535-.264.72a1.281 1.281 0 0 1-.389.261c.148.083.256.167.326.254.126.153.188.354.188.601a.93.93 0 0 1-.323.703c-.216.201-.514.301-.894.301-.393 0-.697-.107-.91-.319a1.039 1.039 0 0 1-.322-.762c0-.236.074-.428.22-.576a.985.985 0 0 1 .324-.208z" stroke="#fff" stroke-miterlimit="10" stroke-width=".378" fill="none"/><text transform="matrix(1 0 0 -1 248.65 8.506)" font-size="5.674" font-family="'QZYROP +Helvetica'"><tspan y="0" x="0 3.1547997 6.3095994 7.8869991 11.041799 14.196598 15.773998 18.928797 22.083597 26.815796 29.970596 33.125397 34.702797 37.857594">21.01.15 10:08</tspan></text></g></svg>