<svg xmlns="http://www.w3.org/2000/svg" version="1" width="303.322" height="202.046"><path d="M164.297 150.482c-13.627 0-20.985 6.476-20.985 16.205 0 16.203 19.938 12.002 19.938 19.535 0 3.718-3.434 5.627-7.531 5.627-3.903 0-7.625-.667-10.489-1.822l-.46 10.86c2.744.681 6.571 1.16 9.712 1.16 13.826 0 22.221-6.962 22.221-17.362 0-15.239-20.303-12.282-20.303-19.338 0-3.052 2.19-5.05 7.428-5.05 2.855 0 6.47.476 9.149 1.237l.382-10.29c-2.767-.389-6.384-.762-9.062-.762zm42.16 0c-13.629 0-20.97 6.476-20.97 16.205 0 16.203 19.921 12.002 19.921 19.535 0 3.718-3.425 5.627-7.531 5.627-3.9 0-7.626-.667-10.48-1.822l-.477 10.86c2.768.681 6.567 1.16 9.72 1.16 13.826 0 22.206-6.962 22.206-17.362 0-15.239-20.309-12.282-20.309-19.338 0-3.052 2.203-5.05 7.442-5.05 2.863 0 6.485.476 9.164 1.237l.367-10.29c-2.76-.389-6.383-.762-9.053-.762zM0 151.423v49.565h12.283v-22.489l16.307 22.489h16.203L24.586 175.26l19.066-23.838H28.59L12.283 172.69v-21.266zm54.46 0v49.565h28.425v-10.85H66.764v-38.715zm176.331 0v49.565h12.303v-49.565zm27.738 0v49.565h12.283v-22.489l16.307 22.489h16.203l-20.207-25.727 19.067-23.838h-15.063l-16.307 21.266v-21.266zm-153.709.006l-18.4 49.559h12.39l3.155-8.657h19.146l3.06 8.657h13.526l-18.306-49.559zm6.565 12.963h.101c.556 2.197 1.524 5.06 2.387 7.344l4.275 11.722H104.82l4.375-11.996c.857-2.299 1.625-4.873 2.19-7.07z" fill="#c90119"/><path d="M166.479.001c-6.568.026-18.6.48-18.6.48s-.005.886.053.946c4.566 3.535 9.398 9.207 11.74 15.867 2.458-.087 6.162-.293 9.822-.088 10.305.542 15.398 2.268 20.047 5.928 4.654 3.668 7.091 9.954 7.135 15.664.066 8.446-3.982 16.51-15.23 21.1-9.113 3.703-20.466 4.07-20.466 4.07V66.8s6.597 3.148 13.184 11.857c5.679 7.509 38.607 55.99 38.607 55.99h27.227s-44.39-61.378-47.61-65.652c17.03-5.927 26.714-18.598 26.905-35.591.066-4.56-1.764-15.254-10.086-22.354C203.703 6.357 194.554.65 168.908.019a88.877 88.877 0 0 0-2.43-.018zm-64.292.272c-17.442 0-34.285.191-34.285.191v134.211h30.756c39.098 0 59.754-14.42 59.754-41.69 0-16.226-10.18-26.97-26.225-30.697 10.46-6.19 16.893-15.72 16.893-29.283 0-17.091-10.861-32.732-46.893-32.732zm-4.935 16.683c1.206-.002 2.396.01 3.428.041 18.326.57 25.98 7.898 26.244 19.98.162 7.335-1.25 14.464-8.416 20.188-6.009 4.772-15.217 5.76-15.217 5.76v3.184s11.91 1.53 17.78 4.545c11.045 5.672 14.542 13.291 14.542 23.744 0 15.896-15.852 21.568-30.674 21.568H89.715V17.077c.148 0 3.919-.115 7.537-.12z" fill="#e4e4e4"/></svg>