<?xml version="1.0" encoding="UTF-8"?>
<svg width="450" height="450" version="1.1" xmlns="http://www.w3.org/2000/svg">
	<path d="m0 0h450v450h-450z" fill="#292d3b"/>
	<path d="m0 412.94h450v37.062h-450z" fill="#0b9fd8"/>
	<path d="m220.98 142.86c21.833-7.5472 37.421-24.933 37.421-50.764 0-6.469-3.2794-22.192-15.184-32.3-7.8616-6.6936-19.182-14.6-55.795-15.454-7.5472-0.1797-30.548 0.62893-30.548 0.62893v1.3028c6.5139 4.9865 13.477 13.163 16.846 22.686 3.504-0.13477 8.805-0.40431 14.016-0.13477 14.69 0.80862 21.114 3.549 27.718 8.7152 6.6487 5.2111 10.243 14.196 10.198 22.327-0.0449 11.096-5.301 22.597-21.384 29.155-12.983 5.301-28.706 6.469-28.706 6.469v4.0431s9.389 4.4924 18.823 16.936c8.0862 10.692 55.076 79.874 55.076 79.874h38.814c0.0449 0-62.713-87.421-67.296-93.486zm-85.31-9.7484c14.915-8.805 24.483-21.788 24.483-41.105 0-20.665-12.264-47.978-63.657-47.978-24.888 0-52.516 0.9434-52.516 0.9434v191.42h43.845c55.75 0 85.265-20.575 85.265-59.434 0-23.226-14.555-38.544-37.421-43.845zm-38.859 76.55h-21.743v-141.02c0.26954 0 9.7484-0.13477 15.633-0.13477 24.259 0 37.736 12.534 38.095 29.784 0.22461 10.467-2.8751 20.485-13.522 27.853-8.7152 6.0198-20.845 7.8167-20.845 7.8167v4.5373s16.801 2.5157 25.382 6.5139c15.903 7.4124 20.62 18.958 20.755 33.872 0.13477 23.585-22.597 30.773-43.756 30.773z" fill="#fff"/>
	<path d="m286.7 137.42v-14.915l13.926-15.723c4.0431-4.4924 7.3675-8.4906 9.9281-11.995 2.5606-3.504 4.6271-6.6038 6.1545-9.2992s2.5606-5.1662 3.0997-7.3226c0.5391-2.1564 0.80863-4.2228 0.80863-6.1545 0-3.6837-1.1231-6.7835-3.3244-9.2543s-5.5705-3.7287-10.063-3.7287c-2.965 0-5.9748 0.49416-9.0296 1.5274-3.0997 1.0332-5.8401 2.2462-8.221 3.7287l-2.6056-15.993c3.1446-1.5723 6.6936-2.8302 10.782-3.8634 4.0431-0.98832 8.6703-1.5274 13.926-1.5274 4.672 0 8.805 0.67386 12.354 2.0665 3.549 1.3926 6.469 3.2345 8.85 5.5705 2.336 2.336 4.088 5.1213 5.2561 8.2659 1.168 3.1896 1.7071 6.5588 1.7071 10.153 0 3.0548-0.40431 6.1096-1.2579 9.2543-0.80862 3.1447-2.1563 6.3792-3.9533 9.7934-1.7969 3.4142-4.088 7.0081-6.8284 10.827-2.7403 3.8185-6.0647 7.9515-9.9281 12.354l-8.266 9.6586v0.13478c4.8967-0.26955 10.018-0.44924 15.409-0.49416 5.3908-0.0449 11.231-0.0449 17.61-0.0449v16.981zm121.88-22.192v22.237h-17.385v-22.237h-37.826l-2.4708-14.061 35.31-56.873h22.372v54.807h13.926v16.128zm-17.116-53.998h-0.13477l-23.315 38.365c1.4825-0.08985 3.3243-0.17969 5.6154-0.22462 2.2462-0.04492 4.4924-0.04492 6.7835-0.04492h11.096v-38.095z" fill="#fff"/>
	<path d="m54.374 355.55h-11.613v-83.265h11.613zm31.325-80.154c1.694 0 3.176 0.49399 4.446 1.482s1.905 2.646 1.905 4.975c0 2.258-0.635 3.917-1.905 4.975-1.27 0.98799-2.752 1.482-4.446 1.482-1.835 0-3.387-0.494-4.657-1.482-1.2-1.059-1.799-2.717-1.799-4.975 0-2.329 0.6-3.987 1.799-4.975 1.27-0.988 2.823-1.482 4.657-1.482zm5.504 23.099v57.054h-11.22v-57.054zm35.78 57.055-21.594-57.054h11.855l11.855 33.343q1.164 3.281 2.329 7.41 1.164 4.022 1.482 6.669h0.423q0.423-2.646 1.694-6.775 1.27-4.128 2.329-7.304l11.855-33.343h11.855l-21.7 57.054zm65.511-58.113c7.48 0 13.373 2.329 17.677 6.986 4.305 4.587 5.267 10.867 5.267 18.842v6.139h-37.129c0.141 5.857 1.658 10.338 4.552 13.443 2.964 3.105 7.092 4.658 12.385 4.658 3.67 0 6.916-0.318 9.738-0.953 2.893-0.706 4.667-1.729 7.702-3.07v9.315c-2.893 1.27-4.597 2.223-7.49 2.858s-6.351 0.953-10.374 0.953c-5.575 0-10.479-1.094-14.713-3.281-4.164-2.188-7.445-5.434-9.844-9.738-2.329-4.375-3.493-9.738-3.493-16.09 0-6.422 1.059-11.855 3.176-16.301 2.188-4.446 5.187-7.833 8.997-10.162 3.881-2.399 8.398-3.599 13.549-3.599zm0 8.68c-4.022 0-7.269 1.306-9.738 3.917-2.399 2.611-3.811 6.316-4.234 11.114h26.886c-0.071-4.446-1.164-8.045-3.281-10.797-2.046-2.823-5.257-4.234-9.633-4.234z" fill="#0b9fd8"/>
</svg>
