<?xml version="1.0" encoding="UTF-8"?>
<svg width="450" height="450" version="1.1" xmlns="http://www.w3.org/2000/svg">
	<path d="m0 0h450v450h-450z" fill="#292d3b"/>
	<path d="m0 412.94h450v37.062h-450z" fill="#0b9fd8"/>
	<path d="m220.98 142.86c21.833-7.5472 37.421-24.933 37.421-50.764 0-6.469-3.2794-22.192-15.184-32.3-7.8616-6.6936-19.182-14.6-55.795-15.454-7.5472-0.1797-30.548 0.62893-30.548 0.62893v1.3028c6.5139 4.9865 13.477 13.163 16.846 22.686 3.504-0.13477 8.805-0.40431 14.016-0.13477 14.69 0.80862 21.114 3.549 27.718 8.7152 6.6487 5.2111 10.243 14.196 10.198 22.327-0.0449 11.096-5.301 22.597-21.384 29.155-12.983 5.301-28.706 6.469-28.706 6.469v4.0431s9.389 4.4924 18.823 16.936c8.0862 10.692 55.076 79.874 55.076 79.874h38.814c0.0449 0-62.713-87.421-67.296-93.486zm-85.31-9.7484c14.915-8.805 24.483-21.788 24.483-41.105 0-20.665-12.264-47.978-63.657-47.978-24.888 0-52.516 0.9434-52.516 0.9434v191.42h43.845c55.75 0 85.265-20.575 85.265-59.434 0-23.226-14.555-38.544-37.421-43.845zm-38.859 76.55h-21.743v-141.02c0.26954 0 9.7484-0.13477 15.633-0.13477 24.259 0 37.736 12.534 38.095 29.784 0.22461 10.467-2.8751 20.485-13.522 27.853-8.7152 6.0198-20.845 7.8167-20.845 7.8167v4.5373s16.801 2.5157 25.382 6.5139c15.903 7.4124 20.62 18.958 20.755 33.872 0.13477 23.585-22.597 30.773-43.756 30.773z" fill="#fff"/>
	<path d="m286.7 137.42v-14.915l13.926-15.723c4.0431-4.4924 7.3675-8.4906 9.9281-11.995 2.5606-3.504 4.6271-6.6038 6.1545-9.2992s2.5606-5.1662 3.0997-7.3226c0.5391-2.1564 0.80863-4.2228 0.80863-6.1545 0-3.6837-1.1231-6.7835-3.3244-9.2543s-5.5705-3.7287-10.063-3.7287c-2.965 0-5.9748 0.49416-9.0296 1.5274-3.0997 1.0332-5.8401 2.2462-8.221 3.7287l-2.6056-15.993c3.1446-1.5723 6.6936-2.8302 10.782-3.8634 4.0431-0.98832 8.6703-1.5274 13.926-1.5274 4.672 0 8.805 0.67386 12.354 2.0665 3.549 1.3926 6.469 3.2345 8.85 5.5705 2.336 2.336 4.088 5.1213 5.2561 8.2659 1.168 3.1896 1.7071 6.5588 1.7071 10.153 0 3.0548-0.40431 6.1096-1.2579 9.2543-0.80862 3.1447-2.1563 6.3792-3.9533 9.7934-1.7969 3.4142-4.088 7.0081-6.8284 10.827-2.7403 3.8185-6.0647 7.9515-9.9281 12.354l-8.266 9.6586v0.13478c4.8967-0.26955 10.018-0.44924 15.409-0.49416 5.3908-0.0449 11.231-0.0449 17.61-0.0449v16.981zm121.88-22.192v22.237h-17.385v-22.237h-37.826l-2.4708-14.061 35.31-56.873h22.372v54.807h13.926v16.128zm-17.116-53.998h-0.13477l-23.315 38.365c1.4825-0.08985 3.3243-0.17969 5.6154-0.22462 2.2462-0.04492 4.4924-0.04492 6.7835-0.04492h11.096v-38.095z" fill="#fff"/>
</svg>
