<svg xmlns="http://www.w3.org/2000/svg" width="450" height="450"><g transform="matrix(6.521645 0 0 6.521645 -942.81461 -369.7316)"><path d="M144.567 56.693h69v69h-69z" fill="#292d3b"/><path d="M144.567 120.012h69.001v5.682h-69.001z" fill="#0b9fd8"/><path d="M178.455 78.599a7.97 7.97 0 0 0 5.737-7.782 7.14 7.14 0 0 0-2.325-4.955c-1.2-1.025-2.942-2.236-8.552-2.372-1.159-.028-4.684.1-4.684.1v.2a7.95 7.95 0 0 1 2.58 3.477l2.147-.018c1.53-.066 3.035.408 4.252 1.339 1.004.853 1.576 2.109 1.562 3.426.004 2.046-1.323 3.857-3.275 4.47a16.83 16.83 0 0 1-4.4.99v.622a8.93 8.93 0 0 1 2.884 2.595c1.24 1.64 8.445 12.246 8.445 12.246h5.952l-10.323-14.338zm-13.084-1.498a6.95 6.95 0 0 0 3.755-6.3c0-3.17-1.88-7.358-9.758-7.358-3.815 0-8.051.142-8.051.142v29.349h6.722c8.551 0 13.071-3.152 13.071-9.114-.006-3.552-2.229-5.899-5.739-6.719zm-5.955 11.738h-3.332V67.222l2.4-.02c3.72 0 5.784 1.925 5.843 4.566.129 1.694-.663 3.327-2.074 4.274a8.74 8.74 0 0 1-3.2 1.2v.695a18.76 18.76 0 0 1 3.888 1c2.083.848 3.371 2.953 3.179 5.193.027 3.613-3.464 4.713-6.705 4.713zm29.116-11.069v-2.286l2.137-2.413q.932-1.037 1.525-1.841a13.92 13.92 0 0 0 .941-1.429 4.79 4.79 0 0 0 .477-1.122 3.8 3.8 0 0 0 .126-.942 2.06 2.06 0 0 0-.507-1.418 1.96 1.96 0 0 0-1.545-.572 4.45 4.45 0 0 0-1.387.233 5.93 5.93 0 0 0-1.259.572l-.4-2.455a8.07 8.07 0 0 1 1.651-.593 8.84 8.84 0 0 1 2.138-.233 5.19 5.19 0 0 1 1.893.318 3.88 3.88 0 0 1 1.355.857 3.41 3.41 0 0 1 .8 1.27 4.53 4.53 0 0 1 .265 1.555c-.001.479-.065.956-.19 1.418a7.2 7.2 0 0 1-.6 1.5 14.04 14.04 0 0 1-1.051 1.665q-.635.879-1.523 1.895l-1.27 1.481v.021q1.121-.063 2.36-.074 1.239-.011 2.7-.011v2.6zm18.689-3.407v3.407h-2.667v-3.407h-5.8l-.381-2.159 5.418-8.72h3.429v8.4h2.137v2.479zm-2.625-8.275h-.018l-3.577 5.884.858-.032 1.037-.01h1.7z" fill="#fff"/></g></svg>