<?xml version="1.0" encoding="UTF-8"?>
<svg width="800" height="153.42" version="1.1" xmlns="http://www.w3.org/2000/svg">
	<defs>
		<linearGradient id="a" x2="1" gradientTransform="matrix(39.508 0 0 39.508 584.89 128.08)" gradientUnits="userSpaceOnUse">
			<stop stop-color="#ffce00" offset="0"/>
			<stop stop-color="#a4771a" offset="1"/>
		</linearGradient>
		<linearGradient id="b" x2="1" gradientTransform="matrix(41.137 0 0 41.137 532.96 133.16)" gradientUnits="userSpaceOnUse">
			<stop stop-color="#ffce00" offset="0"/>
			<stop stop-color="#a4771a" offset="1"/>
		</linearGradient>
		<linearGradient id="c" x2="1" gradientTransform="matrix(45.695 0 0 45.695 476.72 128.03)" gradientUnits="userSpaceOnUse">
			<stop stop-color="#ffce00" offset="0"/>
			<stop stop-color="#a4771a" offset="1"/>
		</linearGradient>
		<linearGradient id="d" x2="1" gradientTransform="matrix(37.826 0 0 37.826 429.13 127.92)" gradientUnits="userSpaceOnUse">
			<stop stop-color="#ffce00" offset="0"/>
			<stop stop-color="#a4771a" offset="1"/>
		</linearGradient>
		<linearGradient id="e" x2="1" gradientTransform="matrix(44.826 0 0 44.826 372.6 128.38)" gradientUnits="userSpaceOnUse">
			<stop stop-color="#ffce00" offset="0"/>
			<stop stop-color="#a4771a" offset="1"/>
		</linearGradient>
		<linearGradient id="f" x2="1" gradientTransform="matrix(45.805 0 0 45.805 316.54 122.39)" gradientUnits="userSpaceOnUse">
			<stop stop-color="#ffce00" offset="0"/>
			<stop stop-color="#a4771a" offset="1"/>
		</linearGradient>
		<linearGradient id="g" x2="1" gradientTransform="matrix(-4.6462e-6 -117.61 117.61 -4.6462e-6 724.92 117.62)" gradientUnits="userSpaceOnUse">
			<stop stop-color="#ffde00" offset="0"/>
			<stop stop-color="#a4771a" offset=".18182"/>
			<stop stop-color="#ffce00" offset="1"/>
		</linearGradient>
		<linearGradient id="h" x2="1" gradientTransform="matrix(0 -50.79 50.79 0 593.13 84.28)" gradientUnits="userSpaceOnUse">
			<stop stop-color="#b2b2b2" offset="0"/>
			<stop stop-color="#fff" offset="1"/>
		</linearGradient>
		<linearGradient id="i" x2="1" gradientTransform="matrix(0 -50.79 50.79 0 516.4 84.28)" gradientUnits="userSpaceOnUse">
			<stop stop-color="#b2b2b2" offset="0"/>
			<stop stop-color="#fff" offset="1"/>
		</linearGradient>
		<linearGradient id="j" x2="1" gradientTransform="matrix(0 -50.79 50.79 0 433.78 84.28)" gradientUnits="userSpaceOnUse">
			<stop stop-color="#b2b2b2" offset="0"/>
			<stop stop-color="#fff" offset="1"/>
		</linearGradient>
		<linearGradient id="k" x2="1" gradientTransform="matrix(0 50.79 -50.79 0 354.39 38.963)" gradientUnits="userSpaceOnUse">
			<stop stop-color="#ffce00" offset="0"/>
			<stop stop-color="#a4771a" offset="1"/>
		</linearGradient>
		<linearGradient id="l" x2="1" gradientTransform="matrix(0 50.79 -50.79 0 273.84 38.963)" gradientUnits="userSpaceOnUse">
			<stop stop-color="#ffce00" offset="0"/>
			<stop stop-color="#a4771a" offset="1"/>
		</linearGradient>
		<linearGradient id="m" x2="1" gradientTransform="matrix(-4.6462e-6 -56.459 56.459 -4.6462e-6 193.06 89.851)" gradientUnits="userSpaceOnUse">
			<stop stop-color="#b2b2b2" offset="0"/>
			<stop stop-color="#fff" offset="1"/>
		</linearGradient>
		<linearGradient id="n" x2="1" gradientTransform="matrix(0 -50.79 50.79 0 114.88 84.28)" gradientUnits="userSpaceOnUse">
			<stop stop-color="#b2b2b2" offset="0"/>
			<stop stop-color="#fff" offset="1"/>
		</linearGradient>
		<linearGradient id="o" x2="1" gradientTransform="matrix(0 -50.79 50.79 0 30.726 84.28)" gradientUnits="userSpaceOnUse">
			<stop stop-color="#b2b2b2" offset="0"/>
			<stop stop-color="#fff" offset="1"/>
		</linearGradient>
	</defs>
	<g>
		<path d="m0 33.405v56.452h44.882c5.5284 0 9.7112-0.92728 12.453-2.6962 2.7415-1.8596 4.1326-4.5959 4.1326-8.3604v-7.2016c0-3.0237-0.88192-5.483-2.6457-7.3879-1.7689-1.9049-4.2282-3.0187-7.5289-3.4369 3.1598-0.41828 5.5737-1.4413 7.2469-3.0691 1.6731-1.5774 2.5097-3.7645 2.5097-6.4555v-6.9242c0-3.8098-1.023-6.5515-3.0187-8.315-2.0007-1.7689-5.206-2.6054-9.6659-2.6054zm12.916 9.1567h29.919c2.3232 0 3.8552 0.32255 4.7373 0.97263 0.88695 0.60473 1.3506 1.6731 1.3506 3.1144v5.342c0 1.4867-0.46364 2.555-1.3506 3.1598-0.88192 0.60473-2.4139 0.88192-4.7373 0.88192h-29.919zm0 22.764h29.919c2.555 0 4.1828 0.37293 5.0646 1.1137 0.88192 0.7005 1.3002 2.0007 1.3002 3.9058v4.2736c0 1.9049-0.41828 3.2051-1.3002 3.9512-0.88192 0.74079-2.5097 1.1137-5.0646 1.1137h-29.919z" fill="url(#o)"/>
		<path d="m81.397 33.405v56.452h12.916v-21.327h12.453l22.718 21.327h18.868l-26.07-21.327h7.3879c4.4599 0 7.7156-0.88192 9.7566-2.6457 2.0007-1.6731 2.9733-4.5105 2.9733-8.3203v-13.239c0-3.8098-0.97263-6.5968-2.9733-8.315-2.041-1.7689-5.2967-2.6054-9.7566-2.6054zm12.916 9.7566h29.552c2.2274 0 3.8552 0.32758 4.692 0.97766 0.83657 0.69544 1.2549 1.8142 1.2549 3.4369v6.8334c0 1.6681-0.41829 2.8322-1.2549 3.4823-0.83656 0.65008-2.4643 0.97766-4.692 0.97766h-29.552z" fill="url(#n)"/>
		<path d="m175.35 33.405c-4.5052 0-7.8063 0.83657-9.7566 2.6054h-0.0454c-0.79121 0.69544-1.3959 1.6227-1.8596 2.6457-0.74586 1.5824-1.1641 3.3916-1.1641 5.7147v45.487h12.916v-21.327h35.221v21.327h12.916v-45.487c0-1.4867-0.14109-2.7869-0.51402-3.9512-0.41828-1.8546-1.2548-3.3916-2.4593-4.4096-2.046-1.7689-5.2967-2.6054-9.7566-2.6054zm-0.14109 14.216c0-1.6681 0.41828-2.7869 1.2548-3.4823 0.79122-0.60473 2.2779-0.92728 4.4145-0.92728h24.159c2.2325 0 3.8098 0.27719 4.6466 0.92728 0.83657 0.69544 1.2548 1.8142 1.2548 3.4823v11.248h-35.73z" fill="url(#m)"/>
		<path d="m247.46 33.405v10.084h35.544l-39.451 40.237v6.1331h60.636v-10.638h-40.101l40.101-40.192v-5.624z" fill="url(#l)"/>
		<path d="m328.02 33.405v10.084h35.544l-39.489 40.237v6.1331h60.632v-10.638h-40.048l40.048-40.192v-5.624z" fill="url(#k)"/>
		<path d="m404.64 33.405v56.452h58.334v-10.638h-45.185v-13.985h26.085v-9.6205h-26.085v-12.634h44.629v-9.5751z" fill="url(#j)"/>
		<path d="m482.88 33.405v56.452h12.901v-21.327h12.448l22.779 21.327h18.898l-26.155-21.327h7.4586c4.4349 0 7.7103-0.88192 9.7263-2.6457 2.0158-1.6731 3.0237-4.5105 3.0237-8.3203v-13.239c0-3.8098-1.0079-6.5968-3.0237-8.315-2.0158-1.7689-5.2914-2.6054-9.7263-2.6054zm12.901 9.7566h29.582c2.2678 0 3.8302 0.32758 4.6867 0.97766 0.80629 0.69544 1.2095 1.8142 1.2095 3.4369v6.8334c0 1.6681-0.40317 2.8322-1.2095 3.4823-0.85672 0.65008-2.419 0.97766-4.6867 0.97766h-29.582z" fill="url(#i)"/>
		<path d="m577.86 33.405c-5.4426 0-9.1719 0.9323-11.087 2.7869-1.9654 1.9553-2.9229 5.3923-2.9229 10.548v6.2287c0 5.1553 0.95752 8.6881 2.9229 10.548 1.915 1.9049 5.6444 2.8322 11.087 2.8322h35.226v12.871h-39.912v-5.0193h-11.541v2.2779c0 5.1553 0.95751 8.6427 2.8725 10.548 1.915 1.8546 5.6444 2.8322 11.188 2.8322h34.873c5.5435 0 9.2728-0.97766 11.188-2.8322 1.915-1.9049 2.9229-5.3923 2.9229-10.548v-7.7156c0-5.11-1.0079-8.6378-2.9229-10.497-1.915-1.9503-5.6444-2.8826-11.188-2.8826h-35.176v-12.08h36.99v4.9739h11.541v-2.5097c0-4.6012-1.0079-7.8517-3.0237-9.6205-1.9654-1.8596-5.6444-2.7415-10.986-2.7415z" fill="url(#h)"/>
		<path d="m657.98 7.2948c-8.0633 9.4791-8.2145 49.573-8.2145 51.432v0.14109c0 1.8546 0.15119 41.998 8.2145 51.478 0 0 22.829 7.2923 66.876 7.2923 44.096 0 66.876-7.2923 66.876-7.2923 8.2648-9.7112 8.2648-51.576 8.2648-51.576s0-41.813-8.2648-51.478c0 0-22.779-7.2923-66.876-7.2923-44.047 0-66.876 7.2923-66.876 7.2923m109.21 21.977h14.967l-21.872 60.586h-16.227l-15.27-40.698c-0.90714-2.3686-3.6789-4.2736-6.1985-4.2736h-13.405c-2.5198 0-4.5861 2.041-4.5861 4.5959v40.377h-16.832v-40.377c0-2.555-2.1166-4.5959-4.5861-4.5959h-15.572v-15.612h70.202s14.212 41.073 14.463 41.073c0.45354-0.28222 14.917-41.073 14.917-41.073" fill="url(#g)"/>
		<path d="m316.54 101.52v41.677h45.763v-9.8522h-33.73v-8.1287h31.129v-7.897l-31.129-0.0504v-7.1056h33.22v-8.6427z" fill="url(#f)"/>
		<path d="m404.94 113.13v15.381c0 6.8285-6.5515 6.5968-10.316 6.5968-7.6196 0-10.175-0.32758-10.175-5.76v-16.217h-11.848v17.608c0.0907 10.129 5.2007 12.916 18.304 12.916 5.0646 0 12.498-0.65008 13.939-5.76 0.0956-0.55938 0.23169-0.51402 0.23169 0l-0.23169 5.2967h12.594v-30.061z" fill="url(#e)"/>
		<path d="m441.34 118.62c-0.32239 0.83657-0.50899 0.83657-0.50899 0.13607l0.18633-5.6191h-11.848v30.061h12.312v-15.335c0-5.6191 4.0517-6.5462 7.8313-6.5462 5.0397 0 6.2994 1.4363 6.2994 5.246h11.389v-3.3916c0-7.524-3.9308-10.543-13.103-10.543-4.8378 0-10.533 0-12.558 5.9921" fill="url(#d)"/>
		<path d="m476.72 128.1c0 12.775 2.5702 15.471 22.779 15.471 20.259 0 22.98-2.555 22.98-15.471 0-12.967-2.9229-15.567-22.98-15.567-20.007 0-22.779 2.6962-22.779 15.567m12.145-0.14109c0-6.4608 1.2599-7.3879 10.936-7.3879 9.5245 0 10.835 0.92728 10.835 7.3879 0 6.3648-1.3103 7.2469-10.835 7.2469-9.6757 0-10.936-0.88192-10.936-7.2469" fill="url(#c)"/>
		<path d="m543.8 118.01c-0.2521 0.7408-0.45359 0.83657-0.45359 0v-4.8783h-10.381v40.283h10.734v-14.635c0-1.0684 0.10092-0.88193 0.50393 0 1.3607 2.6508 2.8726 4.4145 13.002 4.4145 14.212 0 16.933-2.7415 16.933-13.843 0-12.085-1.7638-16.449-16.782-16.449-5.6947 0-11.137 0.55435-13.556 5.11m-0.2521 10.407c0-5.4376 0.75592-7.1056 9.7766-7.1056 8.8695 0 9.7263 1.6681 9.7263 7.1056 0 5.342-0.85672 7.0602-9.7263 7.0602-9.0207 0-9.7766-1.7185-9.7766-7.0602" fill="url(#b)"/>
		<path d="m584.89 128.1c0 10.034 2.419 15.562 19.906 15.562 15.32 0 19.553-2.3232 19.553-10.497h-10.684c0 3.1547-1.9654 3.7141-8.8695 3.7141-7.66 0-9.071-0.79121-9.071-6.7832h28.574v-1.9956c0.20145-11.898-2.167-15.567-19.503-15.567-14.665 0-19.906 2.7869-19.906 15.567m19.906-8.7837c6.9041 0 9.323 0.14109 9.323 4.5559h-18.243c0-3.8604 1.663-4.5559 8.9198-4.5559" fill="url(#a)"/>
	</g>
</svg>
