<?xml version="1.0" encoding="UTF-8" standalone="no"?>
<!-- Created with Inkscape (http://www.inkscape.org/) -->

<svg
   xmlns:dc="http://purl.org/dc/elements/1.1/"
   xmlns:cc="http://creativecommons.org/ns#"
   xmlns:rdf="http://www.w3.org/1999/02/22-rdf-syntax-ns#"
   xmlns:svg="http://www.w3.org/2000/svg"
   xmlns="http://www.w3.org/2000/svg"
   xmlns:sodipodi="http://sodipodi.sourceforge.net/DTD/sodipodi-0.dtd"
   xmlns:inkscape="http://www.inkscape.org/namespaces/inkscape"
   version="1.0"
   width="602.36218"
   height="198.74409"
   id="svg1973"
   inkscape:version="0.91pre3 r13670"
   sodipodi:docname="bremen eins.svg">
  <metadata
     id="metadata11">
    <rdf:RDF>
      <cc:Work
         rdf:about="">
        <dc:format>image/svg+xml</dc:format>
        <dc:type
           rdf:resource="http://purl.org/dc/dcmitype/StillImage" />
      </cc:Work>
    </rdf:RDF>
  </metadata>
  <sodipodi:namedview
     pagecolor="#ffffff"
     bordercolor="#666666"
     borderopacity="1"
     objecttolerance="10"
     gridtolerance="10"
     guidetolerance="10"
     inkscape:pageopacity="0"
     inkscape:pageshadow="2"
     inkscape:window-width="1920"
     inkscape:window-height="1017"
     id="namedview9"
     showgrid="false"
     inkscape:zoom="0.58104577"
     inkscape:cx="301.18109"
     inkscape:cy="99.372047"
     inkscape:window-x="-8"
     inkscape:window-y="-8"
     inkscape:window-maximized="1"
     inkscape:current-layer="svg1973" />
  <defs
     id="defs1975" />
  <g
     id="g4148">
    <path
       d="m 17.716531,99.376654 c 0,-45.10559 36.561259,-81.666494 81.657282,-81.666494 45.108067,0 81.659757,36.560904 81.659757,81.666494 0,44.340946 -36.58854,81.657286 -81.659757,81.657286 -45.066613,0 -81.657282,-37.32095 -81.657282,-81.657286 l 0,0 z m 141.510819,0 c 0,-33.054094 -26.79909,-59.850707 -59.853537,-59.850707 -33.054094,0 -59.84114,26.796613 -59.84114,59.850707 0,28.333346 20.641534,53.639646 48.93803,58.852556 l 0,-58.861769 21.815787,0 0,58.861769 c 28.29437,-5.21256 48.94086,-30.51956 48.94086,-58.852556 l 0,0 z"
       style="fill:#71bf44;fill-opacity:1;fill-rule:evenodd"
       id="_47832688"
       inkscape:connector-curvature="0" />
    <path
       d="m 210.5146,56.298899 0,2.223071 3.57307,0 1.52645,-2.223071 0.57792,-0.846142 c 0.26149,0.30189 0.52051,0.587126 0.77953,0.846142 2.36586,2.38252 4.60523,3.069567 7.6748,3.069567 3.4735,0 6.19086,-1.055551 8.13579,-3.069567 2.44169,-2.507953 3.6659,-6.499842 3.6659,-11.742165 0,-1.692992 -0.21862,-3.411851 -0.68705,-5.030787 -0.44468,-1.526457 -1.10799,-2.962559 -2.02322,-4.203426 l -0.007,0 c -1.86201,-2.519645 -4.74378,-4.210511 -8.85614,-4.210511 -3.06213,0 -5.72988,1.854212 -7.44166,4.220078 -0.0333,0.04996 -0.0737,0.09957 -0.107,0.149528 l -0.1187,0 0,-0.149528 0,-14.434015 -11.17205,0 0,3.747047 2.20642,0 c 1.59307,0 2.27303,0.620433 2.27303,2.265591 l 0,8.421377 0,4.193859 0,16.772952 z m 42.77551,-20.966811 0,-3.36437 -12.02776,0 0,3.36437 0,0.377717 3.11953,0 c 1.58563,0 2.26559,0.620787 2.26559,2.273031 l 0,1.543111 0,12.983385 c 0,1.642677 -0.67996,2.263465 -2.26559,2.263465 l -3.11953,0 0,1.526102 -0.007,0 0,2.223071 17.93126,0 0,-2.223071 0,-1.526102 -3.57343,0 c -1.58598,0 -2.26594,-0.620788 -2.26594,-2.263465 l 0,-9.479055 c 0,-1.165039 0.19523,-2.372598 0.57082,-3.50433 0.58004,-1.702559 1.58563,-3.238229 3.0026,-4.193859 0.9652,-0.654094 2.11358,-1.041378 3.46394,-1.041378 0.84649,0 1.75252,0.109134 2.38252,0.798662 -0.50422,0.0071 -0.97264,0.09035 -1.41697,0.233149 l 5.71996,0.0096 -5.71996,0 c -1.35992,0.451418 -2.33256,1.526103 -2.33256,3.162048 0,0.368503 0.05,0.713267 0.13571,1.031811 0.45177,1.675984 2.0374,2.598661 3.89905,2.598661 1.93748,0 3.27154,-1.081772 3.89906,-2.598661 0.26858,-0.663308 0.41138,-1.400315 0.41138,-2.173111 0,-0.737008 -0.0999,-1.416968 -0.29268,-2.020748 -0.88193,-2.800984 -3.58973,-4.220078 -6.57602,-4.220078 -2.76733,0 -4.46953,1.435748 -6.44067,4.210511 l 2.86724,0.0096 -2.86724,0 c -0.20906,0.292323 -0.42803,0.610866 -0.64666,0.946063 l -0.11657,0 0,-0.946063 z m 28.84393,0 c 0.48508,-0.159448 1.03182,-0.242716 1.6356,-0.242716 0.62751,0 1.19125,0.08327 1.68555,0.242716 1.86165,0.594213 2.81728,2.229803 3.20244,4.184292 l 7.02106,0.0096 -7.02106,0 c 0.16901,0.836929 0.23563,1.742598 0.21897,2.648267 l -10.55834,0 c 0.0492,-0.90248 0.16547,-1.804606 0.38976,-2.648267 l 0.002,0 c 0.52051,-1.964056 1.57854,-3.599646 3.42354,-4.193859 z m 11.18835,0 c -2.08984,-2.491653 -5.19945,-4.220078 -9.43618,-4.220078 -4.05142,0 -7.43209,1.561889 -9.75472,4.220078 -1.03926,1.190906 -1.86874,2.598307 -2.44914,4.193859 -0.62752,1.709291 -0.96519,3.639684 -0.96519,5.720314 0,4.956733 1.35035,8.68004 3.9848,11.052638 2.24894,2.030669 5.41842,3.069567 9.45992,3.069567 4.02768,0 7.02071,-1.081772 9.05102,-3.069567 1.76918,-1.745079 2.8102,-4.177205 3.15284,-7.196457 l -4.71225,0 c -0.73949,3.918189 -2.77689,6.015118 -6.86161,6.015118 -5.27563,0 -6.64264,-4.764685 -6.47362,-9.193818 l 18.16618,0 c 0.19275,-2.054055 -0.0666,-4.29378 -0.80575,-6.397795 -0.53752,-1.509804 -1.3174,-2.945906 -2.3563,-4.193859 z m 20.60823,0 0,-3.36437 -12.20386,0 0,3.36437 0,0.377717 3.1787,0 c 1.59307,0 2.27303,0.620787 2.27303,2.273031 l 0,1.543111 0,12.983385 c 0,1.642677 -0.67996,2.263465 -2.27303,2.263465 l -3.1787,0 0,1.526102 16.11957,0 0,-1.526102 -1.70221,0 c -1.59307,0 -2.27303,-0.620788 -2.27303,-2.263465 l 0,-10.216063 c 0,-0.948543 0.22571,-1.89496 0.62043,-2.767322 1.02225,-2.249292 3.20244,-3.984804 5.73697,-3.984804 2.97673,0 3.78248,1.602284 3.94193,3.984804 0.0262,0.342283 0.0333,0.696614 0.0333,1.065118 l 0,11.918267 c 0,1.642677 -0.68705,2.263465 -2.27303,2.263465 l -1.70221,0 0,1.526102 -0.002,0 0,2.223071 14.46945,0 0,-2.223071 0,-1.526102 -1.52646,0 c -1.59271,0 -2.27267,-0.620788 -2.27267,-2.263465 l 0,-10.216063 c 0,-0.988937 0.20905,-1.930393 0.57047,-2.767322 1.01516,-2.358426 3.26197,-3.984804 5.72988,-3.984804 2.2135,0 4.0252,1.300394 4.0252,3.573426 l 0,0.411378 0,12.983385 c 0,1.642677 -0.67996,2.263465 -2.26595,2.263465 l -1.64267,0 0,1.526102 -0.002,0 0,2.223071 15.88889,0 0,-2.223071 0,-1.526102 -3.01252,0 c -1.58563,0 -2.26346,-0.620788 -2.26346,-2.263465 l 0,-12.983385 0,-0.411378 c 0,-1.443189 -0.28524,-2.710276 -0.79866,-3.782481 -1.28162,-2.727283 -3.99898,-4.220078 -7.09441,-4.220078 -3.78248,0 -6.25748,1.568976 -8.48764,4.220078 -0.31146,0.368504 -0.62043,0.762874 -0.93189,1.174252 -0.11657,-0.42059 -0.25937,-0.805748 -0.42803,-1.174252 -1.27453,-2.876811 -3.79913,-4.220078 -7.12063,-4.220078 -3.78248,0 -6.07217,1.535669 -8.04295,4.220078 -0.3352,0.451418 -0.65374,0.938977 -0.97264,1.459489 l -0.11622,0 0,-1.459489 z m 54.80114,0 c 0.4872,-0.159448 1.03181,-0.242716 1.63559,-0.242716 0.63,0 1.19126,0.08327 1.68555,0.242716 1.86165,0.594213 2.81728,2.229803 3.20492,4.184292 l 7.01823,0.0096 -7.01823,0 c 0.16654,0.836929 0.23315,1.742598 0.2165,2.648267 l -10.55126,0 c 0.0425,-0.90248 0.1676,-1.804606 0.3848,-2.648267 l 0.002,0 c 0.51839,-1.964056 1.58351,-3.599646 3.42142,-4.193859 z m 11.18835,0 c -2.08028,-2.491653 -5.19945,-4.220078 -9.43619,-4.220078 -4.05141,0 -7.4296,1.561889 -9.75259,4.220078 -1.04138,1.190906 -1.87087,2.598307 -2.45126,4.193859 -0.62752,1.709291 -0.96272,3.639684 -0.96272,5.720314 0,4.956733 1.35744,8.68004 3.99189,11.052638 2.23937,2.030669 5.4085,3.069567 9.45992,3.069567 4.01811,0 7.01114,-1.081772 9.04146,-3.069567 1.7713,-1.745079 2.81019,-4.177205 3.15496,-7.196457 l -4.70481,0 c -0.73948,3.918189 -2.78645,6.015118 -6.87118,6.015118 -5.27563,0 -6.63307,-4.764685 -6.46653,-9.193818 l 18.15909,0 c 0.19276,-2.054055 -0.0595,-4.29378 -0.8061,-6.397795 -0.53469,-1.509804 -1.31457,-2.945906 -2.35594,-4.193859 z m 19.80212,0 0,-3.36437 -12.2035,0 0,3.36437 0,0.377717 1.87795,0 c 2.95299,0 3.63295,0.620787 3.63295,3.06 l 0,0.756142 0,12.983385 c 0,1.642677 -0.67996,2.263465 -2.27303,2.263465 l -3.23787,0 0,1.526102 16.69216,0 0,-1.526102 -2.21563,0 c -1.59307,0 -2.27303,-0.620788 -2.27303,-2.263465 l 0,-10.442126 c 0,-0.905669 0.22571,-1.761378 0.60378,-2.541259 1.14839,-2.349213 3.70665,-3.984804 5.75362,-3.984804 2.44878,0 4.52906,0.729922 4.92378,3.975237 l 3.37606,0.0046 -3.37606,0.005 c 0.0429,0.358937 0.0666,0.753661 0.0666,1.174251 l 0,11.809134 c 0,1.642677 -0.67996,2.263465 -3.06,2.263465 l -1.36701,0 0,1.526102 16.57134,0 0,-1.526102 -2.04485,0 c -2.71736,0 -3.40689,-0.620788 -3.40689,-2.263465 l 0,-12.263031 c 0,-0.239528 -3.5e-4,-0.480827 -0.007,-0.720354 l 0,-0.0096 -3.6e-4,0 c -0.0673,-1.640906 -0.37878,-3.028819 -0.88901,-4.184292 -1.25044,-2.82685 -3.75874,-4.220078 -7.15359,-4.220078 -3.73287,0 -6.5335,1.61185 -8.71618,4.220078 -0.40889,0.484725 -0.79618,1.015158 -1.15547,1.568977 l -0.1187,0 0,-1.568977 z m -171.40287,4.193859 c 0.37807,1.450275 0.52087,3.337795 0.52087,5.720314 0,6.523583 -2.03776,9.702284 -5.83689,9.702284 -4.60524,0 -5.8461,-2.783977 -5.8461,-9.702284 0,-2.327598 0.25795,-4.236023 0.76003,-5.720314 l 0.003,0 c 0.92233,-2.677323 2.6341,-3.984804 5.08288,-3.984804 3.0196,0 4.58858,1.198347 5.31602,3.984804 z m 7.8339,37.742597 c -11.96823,2.960079 -21.45437,10.425118 -27.25795,20.967165 -4.11768,7.472481 -6.39071,16.490201 -6.39071,26.554251 0,9.15803 1.3337,17.10106 3.96815,23.76992 6.50019,16.48807 20.9172,25.16102 42.60685,25.16102 21.78035,0 34.83283,-9.14137 40.04893,-25.16102 1.04847,-3.19535 1.77839,-6.67594 2.20642,-10.40846 l -16.31445,0 c -0.76323,4.03441 -1.92118,7.515 -3.5472,10.40846 -3.84201,6.83539 -10.29225,10.42547 -20.23016,10.42547 -9.26752,0 -15.04701,-4.24382 -18.41846,-10.42547 -3.27827,-6.01512 -4.27713,-13.8561 -3.98445,-21.41397 l 62.88696,0 c 0.89859,-9.36745 -0.94641,-19.86874 -5.75362,-28.917288 l -0.004,0 c -5.18315,-9.758976 -13.80259,-17.82496 -26.14606,-20.960078 -3.59008,-0.915236 -7.4987,-1.409882 -11.72586,-1.409882 -4.20095,0 -8.19532,0.487559 -11.94449,1.409882 l 0,0 z m 5.10909,-20.969645 17.92418,0 -17.92418,0 z m 76.58398,0 -16.11461,0 0,2.223071 16.11461,0 0,-2.223071 -16.11957,0 m 18.50173,0 14.46697,0 -14.46697,0 z m 17.08477,0 15.88641,0 -15.88641,0 z m 66.89763,0 -16.68508,0 0,2.223071 16.68508,0 0,-2.223071 -16.69216,0 m 35.69563,0 -16.56886,0 0,2.223071 16.56886,0 0,-2.223071 -16.57134,0 m 47.69716,20.969645 c -3.02634,-0.938976 -6.39992,-1.409882 -10.07327,-1.409882 -3.81578,0 -7.3559,0.487559 -10.63452,1.409882 -9.90461,2.767323 -17.50536,9.486142 -23.56087,18.627519 l -0.38516,0 0,-17.093976 -42.25535,0 0,12.966732 6.48354,0 c 8.2878,0 11.40733,1.426536 12.28678,6.459803 l 30.46287,0.0071 -30.46287,0 c 0.21189,1.174252 0.2948,2.550831 0.2948,4.150981 l 0,46.17319 0,1.38366 c 0,5.6941 -2.35595,7.85764 -7.85976,7.85764 l -11.20536,0 0,12.96709 57.78035,0 0,-12.96709 -7.66523,0 c -5.50382,0 -7.85977,-2.16354 -7.85977,-7.85764 l 0,-1.38366 0,-34.77295 c 0,-6.05551 2.91012,-11.51681 6.97784,-15.551221 4.38661,-4.353307 10.13279,-7.054016 15.03035,-7.054016 6.42402,0 12.12768,1.459843 15.10689,7.054016 1.38366,2.617441 2.18729,6.131341 2.18729,10.829411 l 0,39.49476 0,1.38366 c 0,5.6941 -2.36587,7.85764 -10.61788,7.85764 l -4.71224,0 0,12.96709 57.38527,0 0,-12.96709 -7.07988,0 c -9.42697,0 -11.78291,-2.16354 -11.78291,-7.85764 l 0,-1.38366 0,-41.06409 c 0,-3.36402 -0.26859,-6.44988 -0.78945,-9.267168 l -0.001,0 C 469.34219,87.010867 463.33026,80.058898 454.34018,77.268544 l 0,0 z m 92.48917,-0.0096 c -3.55181,-0.908858 -7.2124,-1.400315 -10.92224,-1.400315 -3.74917,0 -7.57453,0.470906 -11.24787,1.409882 -11.07178,2.817283 -20.86725,9.861732 -23.81989,20.967165 -0.57791,2.206061 -0.89645,4.571931 -0.89645,7.096531 0,35.04898 61.47,24.24579 61.89803,43.22764 0.007,0.0666 0.007,0.13323 0.007,0.19984 0,8.06209 -8.45433,11.79461 -15.33259,11.79461 -11.83252,0 -21.17622,-3.96071 -27.16512,-12.00402 l -0.007,0 c -2.75669,-3.71409 -4.80118,-8.28992 -6.03177,-13.73704 l -14.35039,0 0,13.74661 0,22.20839 12.97382,0 3.92527,-7.07067 c 9.23421,8.06208 21.02669,10.0233 32.81882,10.0233 17.25342,0 33.65114,-7.37255 35.7385,-25.16102 0.15236,-1.25043 0.22819,-2.55827 0.22819,-3.92527 0,-35.96422 -61.90724,-28.6937 -61.90724,-44.01674 0,-0.856059 0.0999,-1.643027 0.28523,-2.382161 1.52646,-6.045945 8.8728,-8.228622 14.65229,-8.228622 9.31748,0 16.4048,2.75315 21.57094,8.228622 3.22158,3.413981 5.70366,7.876421 7.51536,13.385201 l 12.77433,0 0,-13.385201 0,-19.433622 -10.81063,0 -3.93449,6.685512 c -5.42551,-3.66626 -11.50724,-6.600118 -17.92382,-8.228622 l -0.0383,0 0,0 z m -228.49582,71.300903 0,1.38366 c 0,5.6941 -2.35842,7.85764 -7.85976,7.85764 l -9.04181,0 0,12.96709 57.57803,0 0,-12.96709 -9.62858,0 c -5.5017,0 -7.85764,-2.16354 -7.85764,-7.85764 l 0,-1.38366 0,-50.324171 0,-19.433622 -40.09181,0 0,12.966732 9.04181,0 c 5.02334,0 7.43173,1.811693 7.80768,6.46689 0.0354,0.444331 0.0521,0.905669 0.0521,1.400315 l 0,48.923856 0,0 z M 232.8842,98.235709 c 2.94343,-5.140276 7.67445,-8.620866 14.81882,-8.620866 7.4654,0 12.06106,3.48059 14.69551,8.620866 2.27977,4.469531 3.08587,10.182751 2.99303,15.936381 l -36.55133,0 c 0.27815,-5.75363 1.48571,-11.46685 4.04397,-15.936381 z"
       style="fill:#e4e4e4;fill-opacity:1;fill-rule:evenodd"
       id="_77762816"
       inkscape:connector-curvature="0" />
  </g>
</svg>
