<?xml version="1.0" encoding="UTF-8" standalone="no"?>
<!-- Created with Inkscape (http://www.inkscape.org/) -->

<svg
   xmlns:dc="http://purl.org/dc/elements/1.1/"
   xmlns:cc="http://creativecommons.org/ns#"
   xmlns:rdf="http://www.w3.org/1999/02/22-rdf-syntax-ns#"
   xmlns:svg="http://www.w3.org/2000/svg"
   xmlns="http://www.w3.org/2000/svg"
   xmlns:sodipodi="http://sodipodi.sourceforge.net/DTD/sodipodi-0.dtd"
   xmlns:inkscape="http://www.inkscape.org/namespaces/inkscape"
   version="1.0"
   width="602.36218"
   height="192.25984"
   id="svg3814"
   inkscape:version="0.91pre3 r13670"
   sodipodi:docname="bremen vier.svg">
  <metadata
     id="metadata11">
    <rdf:RDF>
      <cc:Work
         rdf:about="">
        <dc:format>image/svg+xml</dc:format>
        <dc:type
           rdf:resource="http://purl.org/dc/dcmitype/StillImage" />
      </cc:Work>
    </rdf:RDF>
  </metadata>
  <sodipodi:namedview
     pagecolor="#ffffff"
     bordercolor="#666666"
     borderopacity="1"
     objecttolerance="10"
     gridtolerance="10"
     guidetolerance="10"
     inkscape:pageopacity="0"
     inkscape:pageshadow="2"
     inkscape:window-width="1920"
     inkscape:window-height="1017"
     id="namedview9"
     showgrid="false"
     inkscape:zoom="0.58104577"
     inkscape:cx="301.18109"
     inkscape:cy="96.129921"
     inkscape:window-x="-8"
     inkscape:window-y="-8"
     inkscape:window-maximized="1"
     inkscape:current-layer="svg3814" />
  <defs
     id="defs3816" />
  <g
     id="g4146">
    <path
       inkscape:connector-curvature="0"
       id="path3805"
       style="fill:#e4e4e4;fill-opacity:1;fill-rule:evenodd"
       d="m 198.85747,44.86004 c 0,-1.54063 0.68599,-2.337165 1.53461,-3.031299 l 3.29669,-2.861929 c 0.58323,-0.530787 1.43008,-0.907086 2.12386,-0.907086 l 1.59307,0 c 0.53114,0 0.90744,0.162992 1.22492,0.428385 l 2.32902,1.806378 c 0.42838,0.317481 0.69413,1.114016 0.69413,2.117481 l 0,9.026928 c 0,1.009843 -0.0524,2.234764 -0.63354,2.713465 l -2.23477,1.858464 c -0.36992,0.317835 -0.84862,0.472323 -1.59307,0.472323 l -1.91055,0 c -0.53114,0 -1.32768,-0.737716 -1.96937,-1.268858 l -2.92039,-2.500157 c -1.32732,-1.11437 -1.53461,-1.747559 -1.53461,-3.399095 l 0,-4.455 z m 0,-18.90248 c 0,-1.753936 -0.3763,-3.503621 -2.55012,-3.503621 -2.1763,0 -2.55259,1.749685 -2.55259,3.503621 l 0,32.066574 c 0,1.756063 0.37629,3.553937 2.55259,3.553937 2.01933,0 2.55012,-1.747913 2.55012,-3.390944 l 0,-0.325985 1.16681,1.12252 c 1.42973,1.327323 2.86796,2.594409 4.93335,2.594409 l 3.29705,0 c 1.27488,0 2.76555,-0.796535 3.98232,-1.797874 l 1.75394,-1.490669 c 2.01295,-1.756063 2.75952,-3.185787 2.75952,-5.893228 l 0,-10.249724 c 0,-2.707087 -0.74657,-4.137165 -2.75952,-5.893228 L 212.237,34.771182 c -1.27736,-1.061929 -2.44169,-1.806023 -3.76937,-1.806023 l -3.66449,0 c -2.33929,0 -3.34913,1.111889 -5.04461,2.815866 l -0.90106,0.901063 0,-10.724528 z m -14.42445,95.35039 c 0,-26.423856 21.42355,-47.847399 47.84776,-47.847399 26.43236,0 47.85626,21.423543 47.85626,47.847399 0,26.43059 -21.4239,47.85626 -47.85626,47.85626 -26.42421,0 -47.84776,-21.42567 -47.84776,-47.85626 z m 101.50087,0 c 0,-26.423856 21.42354,-47.847399 47.84775,-47.847399 26.43236,0 47.85591,21.423543 47.85591,47.847399 0,26.43059 -21.42355,47.85626 -47.85591,47.85626 -26.42421,0 -47.84775,-21.42567 -47.84775,-47.85626 z m 101.50086,0 c 0,-26.423856 21.42354,-47.847399 47.85413,-47.847399 26.42386,0 47.84953,21.423543 47.84953,47.847399 0,26.43059 -21.42567,47.85626 -47.84953,47.85626 -26.43059,0 -47.85413,-21.42567 -47.85413,-47.85626 z m 101.49874,0 c 0,-26.423856 21.42567,-47.847399 47.8559,-47.847399 26.43272,0 47.85626,21.423543 47.85626,47.847399 0,26.43059 -21.42354,47.85626 -47.85626,47.85626 -26.43023,0 -47.8559,-21.42567 -47.8559,-47.85626 z M 257.24586,41.80571 c 0,-1.511221 0.43476,-1.88752 1.08283,-2.374725 l 1.77697,-1.296141 c 0.86315,-0.591733 1.67457,-0.591733 2.64862,-0.591733 l 1.62213,0 c 0.81106,0 1.83543,0.05244 2.47748,0.650197 l 1.99842,1.724882 c 0.70229,0.650197 0.6502,1.452756 0.6502,2.426811 l 0,3.466063 -12.25665,0 0,-4.005354 z m 13.87063,19.979291 c 1.51334,0 3.56208,-0.324213 3.56208,-2.596536 0,-2.211732 -1.83543,-2.588031 -3.56208,-2.588031 l -8.36221,0 c -1.72665,0 -2.75102,-0.213307 -3.45968,-0.965906 l -1.29012,-1.408819 c -0.3763,-0.376299 -0.75862,-1.02437 -0.75862,-1.511574 l 0,-1.726654 13.87063,0 c 3.077,0 3.56208,-0.861378 3.56208,-3.825708 l 0,-4.492559 c 0,-2.861929 -0.32421,-4.860355 -2.69893,-6.748229 l -2.10083,-1.666063 c -1.99878,-1.622125 -3.18614,-1.896023 -5.71571,-1.896023 l -2.00657,0 c -2.10119,0 -3.28855,0.05846 -5.71571,2.161417 l -1.83544,1.563662 c -2.16141,1.835433 -2.53771,3.457913 -2.53771,6.208936 l 0,10.318819 c 0,2.801339 0.59775,3.988701 2.64862,5.824134 l 2.21173,1.93996 c 1.6161,1.409174 2.47713,1.409174 4.6389,1.409174 l 9.54957,0 z M 330.58097,41.80571 c 0,-1.511221 0.42874,-1.88752 1.07681,-2.374725 l 1.77697,-1.296141 c 0.86315,-0.591733 1.67421,-0.591733 2.64862,-0.591733 l 1.62213,0 c 0.81106,0 1.83543,0.05244 2.48563,0.650197 l 1.99028,1.724882 c 0.70015,0.650197 0.65019,1.452756 0.65019,2.426811 l 0,3.466063 -12.25063,0 0,-4.005354 z m 13.87276,19.979291 c 1.50307,0 3.55393,-0.324213 3.55393,-2.596536 0,-2.211732 -1.8294,-2.588031 -3.55393,-2.588031 l -8.37036,0 c -1.727,0 -2.75137,-0.213307 -3.45153,-0.965906 l -1.29827,-1.408819 c -0.3763,-0.376299 -0.7526,-1.02437 -0.7526,-1.511574 l 0,-1.726654 13.87276,0 c 3.07523,0 3.55393,-0.861378 3.55393,-3.825708 l 0,-4.492559 c 0,-2.861929 -0.31783,-4.860355 -2.69255,-6.748229 l -2.10933,-1.666063 c -1.99028,-1.622125 -3.17764,-1.896023 -5.71571,-1.896023 l -2.00481,0 c -2.10295,0 -3.29031,0.05846 -5.71535,2.161417 l -1.83756,1.563662 c -2.15327,1.835433 -2.53594,3.457913 -2.53594,6.208936 l 0,10.318819 c 0,2.801339 0.59811,3.988701 2.64685,5.824134 l 2.21385,1.93996 c 1.61363,1.409174 2.47713,1.409174 4.6389,1.409174 l 9.55772,0 z m -110.67626,-19.218189 0,2.307756 0,11.711338 c 0.10453,0 2.62595,0.0082 2.73047,0.0082 1.57819,0.07335 3.10429,0.575079 3.10429,2.594409 0,2.088425 -1.72665,2.544095 -3.18578,2.604685 -0.13394,0.0064 -2.67803,0 -2.80985,0 l -7.72228,0 c -1.51972,0 -3.57697,-0.325984 -3.57697,-2.604685 0,-2.22626 1.84394,-2.602559 3.57697,-2.602559 l 2.67803,0 0,-18.98185 -2.57563,0 c -1.5176,0 -3.57484,-0.326338 -3.57484,-2.605039 0,-2.219882 1.84181,-2.602559 3.57484,-2.602559 l 5.4815,0 c 0.35327,0 0.60413,0.07299 0.77315,0.198425 1.1289,0.478701 1.49705,1.762441 1.5261,3.08374 l 1.27736,-1.055905 c 1.46764,-1.19374 2.98524,-2.22626 4.61587,-2.22626 l 4.20413,-0.0085 c 1.7915,0 3.58299,0.376299 3.58299,2.605039 0,2.22626 -1.79149,2.602559 -3.58299,2.602559 l -2.37472,0 -0.63567,0.0085 c -0.98043,0 -1.68059,0.493229 -2.60256,1.252205 l -4.48441,3.710551 z m 54.47905,-7.567795 c 1.19374,-0.907087 2.50016,-1.768465 3.42213,-1.768465 l 3.73146,0 c 1.93996,0 3.14858,0.551693 4.67645,1.91693 0.24272,0.213307 0.45603,0.434763 0.64807,0.656574 1.40067,-0.921968 4.05567,-2.573504 5.59028,-2.573504 l 3.73996,0 c 1.93784,0 3.14823,0.551693 4.67433,1.91693 2.2578,2.01933 2.15327,4.268976 2.2578,7.109999 l -0.067,15.655748 c 0.0521,1.858465 -0.20693,3.879921 -2.4626,3.879921 -2.05087,0 -2.41264,-1.747559 -2.46472,-3.503622 l 0,-15.317362 c -0.10241,-3.229724 -0.36815,-4.492204 -3.41398,-4.492204 l -1.68059,0 c -0.52477,0 -1.05591,0.169015 -1.57854,0.495354 l -2.98737,1.998425 0,1.28374 0,15.664252 c 0.0524,1.858464 -0.16299,3.871417 -2.41866,3.871417 -2.05086,0 -2.52957,-1.747559 -2.58165,-3.503622 l 0.008,-15.317362 c -0.10453,-3.229724 -0.36992,-4.492204 -3.41575,-4.492204 l -1.68095,0 c -0.52263,0 -1.05342,0.169015 -1.57818,0.495354 l -2.42717,2.144764 0,17.058543 c 0,1.8 -0.36779,3.614527 -2.52106,3.614527 -2.15327,0 -2.51504,-1.808149 -2.51504,-3.606023 l 0,-22.811811 c 0,-1.910551 0.46417,-3.022795 2.52142,-3.016417 1.89602,0.01453 2.48563,0.886181 2.52318,2.640118 z m 73.42512,0.265748 c 1.45913,-0.825945 3.98232,-2.034213 5.45634,-2.034213 l 3.77539,0 c 1.963,0 3.18579,0.551693 4.7204,1.91693 2.28685,2.01933 2.18232,4.268976 2.28685,7.109999 l -0.0145,15.597283 c 0.0503,1.864843 -0.21543,3.938386 -2.50016,3.938386 -2.0739,0 -2.49413,-1.8 -2.54409,-3.556063 l 0.0145,-15.264921 c -0.10453,-3.229724 -0.36993,-4.492204 -3.45154,-4.492204 l -1.69724,0 c -0.53115,0 -1.06229,0.169015 -1.59308,0.495354 l -4.44649,2.263819 0,16.887401 c 0,1.80815 -0.3763,3.606024 -2.5526,3.606024 -2.17417,0 -2.54409,-1.797874 -2.54409,-3.606024 l 0,-22.75122 c 0,-1.910551 0.56019,-3.022795 2.54409,-3.022795 1.80815,0 2.51504,1.149803 2.54622,2.912244 z" />
    <path
       inkscape:connector-curvature="0"
       id="path3807"
       style="fill:#ffcb04;fill-rule:evenodd"
       d="m 96.133813,38.657481 c -31.742362,0 -57.47244,25.730079 -57.47244,57.47244 0,28.165389 20.259212,51.593739 46.999133,56.512909 l 0,-56.521413 20.944844,0 0,56.521413 c 26.74169,-4.92519 46.99275,-28.35567 46.99275,-56.512909 0,-31.742361 -25.72405,-57.47244 -57.464287,-57.47244 z m 0,-20.944842 c 43.305237,0 78.417277,35.103897 78.417277,78.417282 0,43.304879 -35.11204,78.417279 -78.417277,78.417279 -43.313385,0 -78.417282,-35.1124 -78.417282,-78.417279 0,-43.313385 35.103897,-78.417282 78.417282,-78.417282 l 0,0 z" />
    <path
       inkscape:connector-curvature="0"
       id="path3809"
       style="fill:#000000;fill-opacity:1;fill-rule:evenodd"
       d="m 536.49565,113.72563 0,4.68283 0,23.75469 c 0.21296,0 5.32453,0.008 5.53748,0.023 3.20918,0.14634 6.29256,1.15795 6.29256,5.25756 0,4.22681 -3.49724,5.16366 -6.45342,5.28909 -0.27992,0.006 -5.43544,0 -5.70083,0 l -15.66425,0 c -3.08339,0 -7.26449,-0.66508 -7.26449,-5.28909 0,-4.51347 3.73783,-5.28059 7.26449,-5.28059 l 5.4209,0 0,-38.50335 -5.21397,0 c -3.08339,0 -7.26449,-0.66472 -7.26449,-5.288737 0,-4.513465 3.74634,-5.278819 7.26449,-5.278819 l 11.1196,0 c 0.71681,0 1.22492,0.146338 1.56366,0.405709 2.28686,0.980433 3.0313,3.576968 3.09827,6.252873 l 2.59618,-2.145118 c 2.97071,-2.420787 6.0541,-4.513464 9.35929,-4.513464 l 8.53158,-0.01665 c 3.63543,0 7.26449,0.767481 7.26449,5.280591 0,4.513469 -3.62906,5.289099 -7.26449,5.289099 l -4.81465,0 -1.29826,0.0145 c -1.9839,0 -3.41575,0.98894 -5.28059,2.52957 l -9.09355,7.53626 z m -113.72846,-2.03386 c 0,-3.09189 0.88441,-3.85689 2.20571,-4.85433 l 3.64358,-2.6465 c 1.76244,-1.21039 3.41398,-1.21039 5.39788,-1.21039 l 3.31759,0 c 1.65367,0 3.74811,0.11091 5.07579,1.3213 l 4.07658,3.53303 c 1.43185,1.31882 1.32094,2.97036 1.32094,4.96276 l 0,6.39283 -25.03807,0 0,-7.4987 z m 28.34965,40.13362 c 3.08338,0 7.27086,-0.66472 7.27086,-5.29512 0,-4.52196 -3.74634,-5.28909 -7.27086,-5.28909 l -17.10248,0 c -3.52489,0 -5.61933,-0.44114 -7.05756,-1.9839 l -2.64048,-2.8683 c -0.7735,-0.77351 -1.54913,-2.09445 -1.54913,-3.08977 l 0,-3.52453 28.34965,0 c 6.28405,0 7.27086,-1.76244 7.27086,-7.83318 l 0,-8.48764 c 0,-5.84079 -0.65657,-9.91949 -5.50878,-13.78453 l -4.30016,-3.413976 c -4.07834,-3.305197 -6.50338,-3.85689 -11.68795,-3.85689 l -4.08685,0 c -4.29838,0 -6.72519,0.110552 -11.6883,4.410709 l -3.74599,3.192517 c -4.41106,3.75449 -5.18457,7.05756 -5.18457,12.68504 l 0,20.39102 c 0,5.73839 1.20827,8.16343 5.40603,11.90941 l 4.51984,3.9678 c 3.30484,2.87043 5.06728,2.87043 9.47622,2.87043 l 19.52965,0 z M 340.11034,99.978661 c 0,-6.223464 -1.74756,-7.323307 -7.75807,-7.323307 l -7.19114,0 c -3.50362,0 -7.2124,0.76748 -7.2124,5.251535 0,4.586461 4.15169,5.243031 7.2124,5.243031 l 4.45465,0 0,37.92189 -8.30552,0 c -3.49511,0 -7.2124,0.7611 -7.2124,5.24303 0,4.58858 4.15205,5.24516 7.2124,5.24516 l 26.6687,0 c 3.06071,0 7.21241,-0.65658 7.21241,-5.24516 0,-4.48193 -3.71693,-5.24303 -7.21241,-5.24303 l -7.86862,0 0,-41.093149 z m -107.82885,40.652009 -15.19193,-34.85516 0,-5.35996 c 0,-3.710905 -0.64984,-7.760196 -5.35358,-7.760196 -3.71056,0 -5.13426,2.949803 -5.13426,6.342874 l 0,7.427482 c 0,1.75394 0.43689,2.62559 1.20189,4.2626 l 15.62882,34.31586 c 0.98043,2.18232 2.8389,6.55583 5.46449,6.55583 l 6.76913,0 c 2.62559,0 4.48406,-4.37351 5.46449,-6.55583 l 15.62882,-34.31586 c 0.76713,-1.63701 1.20189,-2.50866 1.20189,-4.2626 l 0,-7.427482 c 0,-3.393071 -1.4152,-6.342874 -5.13213,-6.342874 -4.69948,0 -5.3557,4.049291 -5.3557,7.760196 l 0,5.35996 -15.19193,34.85516 z" />
  </g>
</svg>
