<svg xmlns="http://www.w3.org/2000/svg" fill="#ffffff" width="800" height="208.878"><path d="M714.36 107.92v81.462h45.257V107.92H800V73.803H674.326v34.117zM577.894 73.803h-51.175l42.82 58.486-43.168 57.093h46.997l23.673-30.635 21.932 30.635H669.8l-42.472-58.834L669.8 73.803h-46.997l-22.976 30.635zm-64.056 115.579v-32.028h-65.796v-15.666h51.175v-22.28h-51.175v-16.014h65.796V73.803H404.178v115.579zM285.814 73.803H247.52v115.579h41.427v-54.308l48.39 54.308h37.946V73.803h-41.427v54.656zm226.284-61.619v38.294h7.311V22.28l27.154 28.198h5.918V12.185h-6.963v28.198L519.06 12.185zm-39.687 16.014V18.103h27.154v-5.918H465.1v38.294h34.465V44.56h-27.154V33.768h20.888v-5.57zm-66.144-16.014h-10.096v38.294h6.963V20.191l17.755 30.287h3.481l17.755-30.287v30.287h7.311V12.185h-9.748l-16.71 29.591zm-49.782 16.014V18.103h27.154v-5.918h-34.465v38.294h34.465V44.56h-27.154V33.768h20.888v-5.57zm-51.175 1.393V18.103h14.621c6.266 0 8.355 2.785 8.355 5.57h0c0 3.133-2.437 5.57-7.659 5.57zm31.68 20.888c-2.085-2.427-1.741-8.703-1.741-9.748 0-4.526-1.393-8.007-9.051-8.355 7.659-1.393 9.748-5.57 9.748-9.748s-5.222-10.444-16.71-10.444h-20.888v38.294h6.963V35.161h13.577c6.963 0 8.703 1.393 8.703 5.222v3.829c.348 3.481 1.044 6.266 3.133 6.266m-52.567-11.14c0 2.785-2.089 5.222-7.311 5.222H254.83V33.768h15.666c5.222 0 7.659 2.437 7.659 5.222zM254.83 18.103h16.014c5.222 0 7.311 2.437 7.311 5.57h0c0 2.785-2.437 5.222-7.659 5.222H254.83zm22.28 13.229c4.395-.531 7.691-4.277 7.659-8.703h0c0-5.918-4.874-10.096-14.273-10.096H247.52v38.294h22.976c9.399 0 14.97-4.178 14.97-10.444h0c.014-4.739-3.63-8.687-8.355-9.051"/><path d="M104.439 0a104.44 104.44 0 0 1 73.846 178.284A104.44 104.44 0 0 1 0 104.439C0 46.759 46.759 0 104.439 0m0 27.85c-39.356.309-72.071 30.396-75.667 69.589s23.099 74.731 61.742 82.195v-75.196h27.85v75.196c38.643-7.465 65.338-43.003 61.742-82.195s-36.311-69.28-75.667-69.589" fill="#bebebe"/></svg>