<?xml version="1.0" encoding="UTF-8"?>
<svg width="800" height="213.22" version="1.1" xmlns="http://www.w3.org/2000/svg">
	<g fill="#fff">
		<path d="m597.01 75.693c-35.821 0-65.032 29.211-65.032 65.032s29.211 65.032 65.032 65.032 65.032-29.211 65.032-65.032-29.211-65.032-65.032-65.032zm31.343 65.885c0 8.3156-1.2793 10.661-9.8081 10.661h-38.593v4.6908c0.21322 1.7058 0.85288 3.1983 2.1322 4.2644l3.6247 3.838c1.919 2.1322 4.6908 2.7718 9.5949 2.7718h23.241c4.6908 0 9.8081 1.0661 9.8081 7.2494s-5.5437 7.2495-9.8081 7.2495h-26.652c-5.9701 0-8.3156 0-12.793-4.0512l-6.1834-5.3305c-5.7569-5.1173-7.2495-8.3156-7.2495-16.205v-27.719c0-7.6759 1.0661-12.154 7.0362-17.271l5.1173-4.2644c6.6098-5.9701 10.021-5.9701 15.778-5.9701h5.5437c7.0362 0 10.448 0.63966 15.991 5.1173l5.7569 4.6908c6.6098 5.3305 7.4627 10.874 7.4627 18.763zm-21.748-24.094c-1.919-1.2793-4.4776-1.919-6.823-1.7058h-4.4776c-2.5586-0.21322-5.3305 0.21321-7.4627 1.7058l-4.904 3.6247c-1.7058 1.2793-2.9851 2.3454-2.9851 6.6098v10.021h34.115v-8.5288c0-2.7718 0-4.904-1.919-6.823z"/>
		<path d="m458.85 75.693c-36.034-0.21322-65.245 28.998-65.458 65.032-0.21322 36.034 28.998 65.245 65.032 65.458 36.034 0.21322 65.245-28.998 65.458-65.032v-0.21322c0-36.034-28.998-65.032-65.032-65.245zm19.403 106.18h-36.247c-4.2644 0-9.8081-0.85288-9.8081-7.0362s5.1173-7.0362 9.8081-7.0362h11.301v-51.599h-6.1834c-4.0512 0-9.8081-0.85287-9.8081-7.2494s5.1173-7.0362 9.8081-7.0362h9.8081c8.3156 0 10.661 1.4925 10.661 10.021v55.863h10.661c4.6908 0 9.8081 0.85287 9.8081 7.0362s-5.7569 7.0362-9.8081 7.0362z"/>
		<path d="m320.9 75.693c-36.034-0.21322-65.245 28.998-65.458 65.032-0.21322 36.034 28.998 65.245 65.032 65.458 36.034 0.21322 65.245-28.998 65.458-65.032v-0.21322c0-36.034-28.998-65.032-65.032-65.245zm34.968 44.989c0 2.1322-0.63966 4.0512-1.7058 5.7569l-21.109 46.695c-1.4925 2.9851-4.0512 8.742-7.4627 8.742h-9.1684c-3.6247 0-6.1834-5.7569-7.4627-8.742l-21.322-46.695c-1.0661-1.7058-1.7058-3.6247-1.7058-5.7569v-10.235c0-4.4776 1.919-8.5288 7.0362-8.5288 5.1173 0 7.2495 5.5437 7.2495 10.448v7.2494l20.682 47.548 20.682-47.548v-7.2494c0-4.904 0.85288-10.448 7.2495-10.448s7.0362 4.0512 7.0362 8.5288z"/>
		<path d="m275.48 36.887c-0.21322-1.7058 0.63966-3.1983 2.1322-4.0512l4.4776-4.0512c0.85287-0.63966 1.7058-1.0661 2.7718-1.0661h2.3454l1.4925 0.42644 3.1983 2.5586c0.85287 0.63966 1.0661 1.7058 1.0661 2.7719v12.367c0 1.2793-0.21322 2.5586-0.85288 3.6247l-3.1983 2.5586c-0.63966 0.42644-1.2793 0.63966-2.1322 0.63966h-2.5586c-0.63966 0-1.919-1.0661-2.7718-1.7058l-3.838-3.4115c-1.4925-0.85288-2.3454-2.7719-2.1322-4.4776zm0-25.586c0-2.5586-0.42644-4.904-3.4115-4.904s-3.6247 2.3454-3.6247 4.904v43.497c0 2.3454 0.63966 4.904 3.6247 4.904s3.4115-2.3454 3.4115-4.6908v-0.42644l1.4925 1.4925c2.1322 1.919 4.0512 3.6247 6.823 3.6247h4.4776c2.1322-0.21322 3.8379-1.0661 5.3305-2.5586l2.3454-1.919c2.5586-1.919 4.0512-4.904 3.838-8.1023v-13.859c0.21322-3.1983-1.2793-6.1834-3.838-8.1023l-2.3454-1.919c-1.2793-1.4925-3.1983-2.3454-5.1173-2.5586h-4.904c-3.1983 0-4.4776 1.4925-6.823 3.8379l-1.2793 1.2793v-14.499z"/>
		<path d="m354.8 32.836c-0.21322-1.2793 0.42644-2.5586 1.4925-3.4115l2.5586-1.7058c1.0661-0.63966 2.1322-1.0661 3.4115-0.85288h2.3454c1.2793 0 2.3454 0.42644 3.4115 1.0661l2.5586 2.3454c1.0661 0.85288 0.85288 1.919 0.85288 3.1983v4.6908h-16.631zm18.977 27.079c1.919 0 4.6908-0.42644 4.6908-3.6247 0-3.1983-2.3454-3.4115-4.6908-3.4115h-11.514c-1.7058 0.21322-3.4115-0.21322-4.6908-1.2793l-1.7058-1.919c-0.42644-0.63966-0.85288-1.2793-1.0661-2.1322v-2.3454h18.977c4.0512 0 4.6908-1.0661 4.6908-5.1173v-6.1834c0-3.8379-0.42644-6.6098-3.6247-9.1684l-2.7718-2.3454c-2.1322-1.919-5.1173-2.7719-7.8891-2.5586h-2.5586c-2.9851-0.21322-5.7569 0.85288-7.8891 2.9851l-2.5586 2.1322c-2.5586 2.1322-3.8379 5.3305-3.4115 8.5288v14.072c-0.21321 2.9851 1.0661 5.9701 3.6247 7.8891l2.9851 2.5586c1.7058 1.4925 4.0512 2.3454 6.3966 1.919z"/>
		<path d="m454.58 32.836c-0.21322-1.2793 0.42644-2.5586 1.4925-3.4115l2.3454-1.7058c1.0661-0.63966 2.3454-1.0661 3.6247-0.85288h2.1322c1.2793-0.21322 2.5586 0.21322 3.4115 1.0661l2.7718 2.3454c0.63966 0.85288 1.0661 2.1322 0.85288 3.1983v4.6908h-16.631zm18.763 27.079c2.1322 0 4.904-0.42644 4.904-3.6247 0-3.1983-2.5586-3.4115-4.904-3.4115h-11.301c-2.3454 0-3.8379-0.21322-4.6908-1.2793l-1.7058-1.919c-0.63966-0.63966-1.0661-1.2793-1.0661-2.1322v-2.3454h18.763c4.2644 0 4.904-1.0661 4.904-5.1173v-6.1834c0-3.8379-0.42644-6.6098-3.6247-9.1684l-2.9851-2.3454c-2.1322-1.919-4.904-2.7719-7.6759-2.5586h-2.7718c-2.7718-0.21322-5.7569 0.85288-7.6759 2.9851l-2.5586 2.1322c-2.9851 2.5586-3.4115 4.6908-3.4115 8.5288v14.072c-0.21322 2.9851 1.0661 5.9701 3.6247 7.8891l2.9851 2.5586c1.7058 1.4925 3.838 2.3454 6.1834 1.919z"/>
		<path d="m734.97 75.693c-36.034-0.21322-65.245 28.998-65.458 65.032-0.21322 36.034 28.998 65.245 65.032 65.458 36.034 0.21322 65.245-28.998 65.458-65.032v-0.21322c0.21322-35.821-28.998-65.032-64.819-65.245h-0.21322zm27.505 41.151h-8.3156c-2.7718 0.21322-5.3305 1.4925-7.2495 3.4115l-12.367 10.235v38.806h7.4627c4.4776 0.21322 8.5288 1.4925 8.5288 7.0362s-4.6908 7.0362-8.742 7.2495h-28.998c-4.2644 0-9.8081-0.85288-9.8081-7.2495s5.1173-7.0362 9.8081-7.0362h7.4627v-52.452h-7.2495c-4.0512 0-9.8081-0.85288-9.8081-7.2494 0-6.3966 5.1173-7.0362 9.8081-7.0362h15.139c0.63966 0 1.4925 0.21322 2.1322 0.42644 3.1983 1.2793 4.0512 4.904 4.2644 8.5288l3.4115-2.9851c4.0512-3.1983 8.3156-5.9701 12.793-5.9701h11.727c4.904 0 9.8081 0.85288 9.8081 7.0362s-4.904 7.2494-9.8081 7.2494z"/>
		<path d="m323.03 33.689v19.19h3.6247c2.1322 0 4.2644 0.85288 4.2644 3.4115s-2.3454 3.6247-4.2644 3.6247h-14.499c-1.919 0-4.6908-0.42644-4.6908-3.6247 0-3.1983 2.3454-3.4115 4.6908-3.4115h3.6247v-25.8h-3.4115c-2.1322 0-4.904-0.42644-4.904-3.6247s2.5586-3.4115 4.904-3.4115h8.5288c1.4925 0.63966 1.919 2.3454 2.1322 4.2644l1.7058-1.4925c1.7058-1.7058 3.838-2.7719 6.1834-2.9851h5.7569c2.3454 0 4.904 0.42644 4.904 3.4115 0 2.9851-2.5586 3.6247-4.904 3.6247h-4.0512c-1.2793 0.21322-2.5586 0.63966-3.6247 1.7058z"/>
		<path d="m397.01 23.454c1.2793-1.2793 2.9851-1.919 4.6908-2.3454h5.1173c2.3454-0.21322 4.6908 0.85288 6.1834 2.5586l1.0661 0.85288c1.919-1.2793 5.3305-3.4115 7.4627-3.4115h5.1173c2.3454 0 4.6908 0.85288 6.3966 2.5586 2.9851 2.7719 2.9851 5.7569 2.9851 9.5949v21.322c0 2.5586-0.21322 5.3305-3.4115 5.3305s-3.1983-2.3454-3.4115-4.6908v-20.895c0-4.4776-0.42644-6.1834-4.4776-6.1834h-2.3454c-0.85287 0-1.4925 0.21322-2.1322 0.85288l-4.0512 2.5586v23.028c0 2.5586-0.21322 5.3305-3.4115 5.3305s-3.4115-2.3454-3.4115-4.6908v-20.895c-0.21322-4.4776-0.42644-6.1834-4.6908-6.1834h-2.1322c-0.85288 0-1.7058 0.21322-2.3454 0.85288l-3.1983 2.7719v23.241c0 2.5586-0.42644 4.904-3.4115 4.904s-3.4115-2.3454-3.4115-4.904v-30.917c0-2.7719 0.63966-4.2644 3.4115-4.2644s3.4115 1.2793 3.4115 3.6247z"/>
		<path d="m496.8 23.881c2.3454-1.2793 4.904-2.3454 7.4627-2.7719h5.1173c2.3454-0.21322 4.6908 0.85288 6.3966 2.5586 3.1983 2.7719 2.9851 5.7569 3.1983 9.5949v21.322c0 2.5586-0.42644 5.3305-3.4115 5.3305s-3.4115-2.3454-3.4115-4.904v-20.682c-0.21322-4.4776-0.63966-6.1834-4.6908-6.1834h-2.3454c-0.85288 0-1.4925 0.21322-2.1322 0.85288l-6.1834 2.9851v23.028c0 2.3454-0.42644 4.904-3.4115 4.904s-3.4115-2.5586-3.4115-4.904v-30.917c0-2.7719 0.63966-4.2644 3.4115-4.2644s3.4115 1.7058 3.4115 4.0512z"/>
	</g>
	<path d="m213.22 106.61c0 58.849-47.761 106.61-106.61 106.61s-106.61-47.761-106.61-106.61 47.761-106.61 106.61-106.61 106.61 47.761 106.61 106.61zm-28.358 0c0-43.284-34.968-78.251-78.251-78.251-43.284 0-78.251 34.968-78.251 78.251 0 37.74 26.866 69.936 63.966 76.972v-76.972h28.571v76.972c37.1-7.0362 63.966-39.232 63.966-76.972z" fill="#F7CD00"/>
</svg>
