<?xml version="1.0" encoding="UTF-8" standalone="no"?>
<svg
   xmlns:dc="http://purl.org/dc/elements/1.1/"
   xmlns:cc="http://creativecommons.org/ns#"
   xmlns:rdf="http://www.w3.org/1999/02/22-rdf-syntax-ns#"
   xmlns:svg="http://www.w3.org/2000/svg"
   xmlns="http://www.w3.org/2000/svg"
   xmlns:sodipodi="http://sodipodi.sourceforge.net/DTD/sodipodi-0.dtd"
   xmlns:inkscape="http://www.inkscape.org/namespaces/inkscape"
   width="1000pt"
   height="582pt"
   viewBox="0 0 1000 582"
   version="1.1"
   id="svg2"
   inkscape:version="0.91pre2 r13516"
   sodipodi:docname="cartoon netwrk.svg">
  <metadata
     id="metadata50">
    <rdf:RDF>
      <cc:Work
         rdf:about="">
        <dc:format>image/svg+xml</dc:format>
        <dc:type
           rdf:resource="http://purl.org/dc/dcmitype/StillImage" />
        <dc:title></dc:title>
      </cc:Work>
    </rdf:RDF>
  </metadata>
  <defs
     id="defs48" />
  <sodipodi:namedview
     pagecolor="#ffffff"
     bordercolor="#666666"
     borderopacity="1"
     objecttolerance="10"
     gridtolerance="10"
     guidetolerance="10"
     inkscape:pageopacity="0"
     inkscape:pageshadow="2"
     inkscape:window-width="1920"
     inkscape:window-height="1017"
     id="namedview46"
     showgrid="false"
     inkscape:zoom="0.28"
     inkscape:cx="625"
     inkscape:cy="363.75"
     inkscape:window-x="-8"
     inkscape:window-y="-8"
     inkscape:window-maximized="1"
     inkscape:current-layer="svg2" />
  <path
     style="opacity:1;fill:#000000"
     inkscape:connector-curvature="0"
     id="path5"
     d="m 0,0 486.15,0 c -0.01,161.99 0.01,323.98 -0.01,485.97 -162.05,0.02 -324.09,0 -486.14,0.01 L 0,0 M 233.96,27.08 C 204.97,30 176.65,39.04 151.21,53.21 122.46,69.13 97.55,91.81 78.69,118.69 59.7,145.78 47.05,177.26 42.04,209.96 c -5.69,36.72 -1.76,74.88 11.28,109.67 16.44,43.84 47.47,82 87.03,107.04 27.83,17.73 59.77,29 92.59,32.49 35.7,3.92 72.39,-1.05 105.65,-14.67 44.63,-18.16 83.04,-51.6 106.64,-93.67 -40.14,-23.13 -80.45,-45.96 -120.58,-69.1 -10.14,17.16 -26.57,30.7 -45.82,36.25 -25.18,7.69 -53.95,1.28 -73.61,-16.2 -15.16,-13.3 -24.78,-32.69 -26.3,-52.79 -1.07,-14.79 2.14,-29.87 9.24,-42.91 7.74,-14.33 20.09,-26.12 34.77,-33.17 19.05,-9.27 41.95,-10.28 61.69,-2.54 16.81,6.32 30.91,18.88 39.99,34.28 40.18,-23.05 80.41,-46.02 120.63,-69.01 C 424.88,99.08 393.15,69.11 356.05,49.93 318.75,30.62 275.71,22.54 233.96,27.08 Z" />
  <path
     style="opacity:1;fill:#000000"
     inkscape:connector-curvature="0"
     id="path7"
     d="m 521.07,34.87 c 46.22,-0.04 92.45,-0.09 138.67,0.02 46.49,57.75 92.56,115.86 139.07,173.6 0.08,-57.88 0.01,-115.77 0.12,-173.65 46.22,0.01 92.44,-0.06 138.66,0.04 0.06,137.38 0,274.76 0.03,412.15 -0.02,1.41 0.04,2.85 -0.1,4.27 -45.53,0.07 -91.06,0.03 -136.58,0.01 -0.65,-0.07 -1.96,-0.2 -2.61,-0.27 -46.14,-57.68 -92.23,-115.4 -138.39,-173.06 -0.24,57.76 -0.04,115.52 -0.14,173.28 -46.25,0.2 -92.5,0.17 -138.75,0.04 -0.06,-138.81 -0.04,-277.62 0.02,-416.43 z" />
  <path
     style="opacity:1;fill:#e4e4e4;fill-opacity:1"
     inkscape:connector-curvature="0"
     id="path9"
     d="m 32.46,523.5 c 6.59,-3.56 14.5,-4.48 21.77,-2.77 8.16,1.9 15.22,7.46 19.59,14.53 -5.11,3.17 -10.32,6.23 -15.7,8.92 -2.55,-2.03 -4.85,-4.66 -8.18,-5.36 -6.45,-1.77 -13.58,2.73 -14.97,9.22 -2.11,7.7 5.09,16.09 13.04,15.07 4.21,-0.01 7.23,-3.18 10.14,-5.77 5.32,2.85 10.55,5.92 15.7,9.07 -4.9,8.38 -13.8,13.52 -23.09,15.59 l -7.42,0 c -4.08,-1.15 -8.26,-2.22 -11.91,-4.45 -9.31,-5.3 -15.49,-15.78 -15.29,-26.53 -0.4,-11.3 6.37,-22.31 16.32,-27.52 z" />
  <path
     style="opacity:1;fill:#e4e4e4;fill-opacity:1"
     inkscape:connector-curvature="0"
     id="path11"
     d="m 298.33,520.39 c 9.37,-1.39 19.34,1.45 26.09,8.2 8.18,7.54 11.46,19.68 8.51,30.36 -3.07,12.62 -15.05,22.2 -27.94,22.89 -11.87,0.87 -23.89,-5.95 -29.29,-16.54 -4.32,-8.13 -4.77,-18.2 -1,-26.62 4.03,-9.63 13.3,-16.79 23.63,-18.29 m 0.97,19.93 c -4.34,1.55 -7.59,6.03 -7.44,10.68 -0.2,5.94 5.24,11.29 11.14,11.21 7.03,0.31 13.09,-7.33 10.96,-14.1 -1.39,-6.18 -8.75,-10.14 -14.66,-7.79 z" />
  <path
     style="opacity:1;fill:#e4e4e4;fill-opacity:1"
     inkscape:connector-curvature="0"
     id="path13"
     d="m 339.73,544.81 c 2.43,-12.94 14.03,-23.63 27.22,-24.56 10.07,-1.11 20.52,2.98 26.91,10.89 8.5,9.88 9.36,25.22 2.45,36.19 -4.75,8 -13.36,12.69 -22.22,14.67 l -7.78,0 c -4.53,-1.28 -9.22,-2.43 -13.15,-5.14 -10.41,-6.68 -16.06,-19.93 -13.43,-32.05 m 26.57,-4.49 c -4.68,1.69 -8.08,6.7 -7.45,11.72 0.46,5.15 4.9,9.7 10.11,10.09 6.65,0.92 13.19,-5.46 12.25,-12.17 -0.2,-7.06 -8.39,-12.3 -14.91,-9.64 z" />
  <path
     style="opacity:1;fill:#e4e4e4;fill-opacity:1"
     inkscape:connector-curvature="0"
     id="path15"
     d="m 774.03,533.02 c 6.04,-8.52 16.59,-13.73 27.05,-13.01 9.61,0.42 18.8,5.78 24.09,13.79 3.99,6.23 5.88,13.86 4.84,21.22 -1.29,9.1 -6.67,17.68 -14.67,22.34 -3.76,2.32 -8.06,3.42 -12.26,4.64 l -7.67,0 c -3.59,-1.12 -7.29,-2 -10.61,-3.82 -8.11,-4.21 -14.07,-12.28 -15.76,-21.25 -1.67,-8.22 0.2,-17.05 4.99,-23.91 m 21.3,7.34 c -4.23,1.68 -7.41,6.01 -7.17,10.64 -0.21,5.83 5.06,11.06 10.82,11.15 6.76,0.41 12.83,-6.47 11.45,-13.14 -0.9,-6.72 -8.84,-11.34 -15.1,-8.65 z" />
  <path
     style="opacity:1;fill:#e4e4e4;fill-opacity:1"
     inkscape:connector-curvature="0"
     id="path17"
     d="m 93.61,521.35 c 9.89,-0.14 19.82,-0.31 29.7,0.09 6.16,19.7 12.44,39.37 18.45,59.11 -6.87,0.01 -13.74,0.06 -20.61,0.02 -1.48,-3.12 -1.77,-6.65 -3.2,-9.79 -6.29,-0.36 -12.62,-0.25 -18.91,-0.06 -1.28,3.2 -1.62,6.73 -3.18,9.81 -6.9,0.08 -13.81,0.04 -20.72,0.07 6.08,-19.77 12.27,-39.52 18.47,-59.25 m 9.61,34.62 c 3.48,0.1 6.97,0.1 10.45,0 -1.53,-6.12 -3.24,-12.21 -5.25,-18.2 -1.91,6.01 -3.55,12.11 -5.2,18.2 z" />
  <path
     style="opacity:1;fill:#e4e4e4;fill-opacity:1"
     inkscape:connector-curvature="0"
     id="path19"
     d="m 147.97,521.3 c 9.68,-0.14 19.36,-0.05 29.04,-0.04 4.53,0.16 9.24,-0.38 13.57,1.28 6.22,2.15 11.29,7.34 13.26,13.61 1.69,5.98 0.83,12.77 -2.9,17.82 -1.97,2.99 -5.04,4.91 -7.75,7.13 3.44,6.66 7.82,12.8 11.25,19.47 -7.24,-0.03 -14.51,0.2 -21.74,-0.1 -3.17,-5.63 -5.69,-11.62 -8.96,-17.18 -2.03,-0.15 -4.08,-0.11 -6.11,-0.04 -0.36,5.75 0.01,11.52 -0.22,17.28 -6.47,0.13 -12.95,0.04 -19.42,-0.01 -0.29,-19.73 -0.26,-39.5 -0.02,-59.22 m 19.59,17.3 c -0.17,3.27 -0.16,6.56 -0.01,9.84 4.77,-0.04 9.61,0.42 14.34,-0.27 4.12,-1.45 4.14,-7.92 0,-9.35 -4.73,-0.61 -9.56,-0.23 -14.33,-0.22 z" />
  <path
     style="opacity:1;fill:#e4e4e4;fill-opacity:1"
     inkscape:connector-curvature="0"
     id="path21"
     d="m 210.11,521.28 c 19.79,-0.07 39.59,-0.12 59.37,0.06 0.08,5.71 0.11,11.42 -0.02,17.13 -6.19,0.23 -12.41,-0.13 -18.6,0.19 -0.28,13.95 0.08,27.91 -0.17,41.86 -7.34,-0.01 -14.71,0.29 -22.03,-0.15 -0.09,-13.93 0.11,-27.86 -0.09,-41.78 -6.17,-0.22 -12.34,0.11 -18.5,-0.14 -0.02,-5.72 -0.08,-11.45 0.04,-17.17 z" />
  <path
     style="opacity:1;fill:#e4e4e4;fill-opacity:1"
     inkscape:connector-curvature="0"
     id="path23"
     d="m 407.09,521.3 c 6.51,-0.04 13.04,-0.19 19.55,0.02 6.91,7.96 13.14,16.5 19.96,24.55 0.26,-8.18 -0.06,-16.38 0.19,-24.56 6.49,-0.11 12.99,-0.11 19.48,-0.04 0.16,19.71 0,39.43 0.11,59.15 -6.53,0.3 -13.13,0.3 -19.66,0.01 -6.91,-7.88 -12.98,-16.48 -19.91,-24.34 -0.43,8.13 -0.03,16.29 -0.24,24.43 -6.48,0.1 -12.97,0.06 -19.46,0.02 -0.18,-19.74 -0.13,-39.5 -0.02,-59.24 z" />
  <path
     style="opacity:1;fill:#e4e4e4;fill-opacity:1"
     inkscape:connector-curvature="0"
     id="path25"
     d="m 506.63,521.24 c 6.58,0.1 13.21,-0.27 19.77,0.25 6.64,8.04 12.8,16.48 19.74,24.27 0.17,-8.16 -0.06,-16.32 0.13,-24.48 6.46,-0.09 12.94,-0.1 19.41,0.05 0.08,19.73 0.12,39.46 -0.02,59.19 -6.44,0.08 -12.89,0.1 -19.32,0 -7.16,-7.84 -13.22,-16.65 -20.22,-24.64 -0.21,8.2 0.05,16.41 -0.13,24.61 -6.47,0.14 -12.95,0.14 -19.41,-0.01 -0.05,-19.74 -0.15,-39.5 0.05,-59.24 z" />
  <path
     style="opacity:1;fill:#e4e4e4;fill-opacity:1"
     inkscape:connector-curvature="0"
     id="path27"
     d="m 574.46,521.31 c 17.22,-0.17 34.46,-0.05 51.69,0 0.07,5.74 0.4,11.53 -0.28,17.24 -10.62,0.03 -21.25,-0.13 -31.87,0.11 -0.06,1.72 -0.01,3.47 0.17,5.2 8.97,0.3 17.95,-0.13 26.93,0.16 0.1,4.81 0.23,9.64 -0.13,14.44 -8.98,0.16 -17.97,-0.12 -26.94,0.15 -0.09,2.01 -0.11,4.05 0.07,6.07 10.68,0.19 21.37,-0.03 32.06,0.13 0.08,5.23 0.26,10.49 -0.11,15.71 -17.19,0.07 -34.38,0.1 -51.57,-0.01 -0.13,-19.73 -0.09,-39.47 -0.02,-59.2 z" />
  <path
     style="opacity:1;fill:#e4e4e4;fill-opacity:1"
     inkscape:connector-curvature="0"
     id="path29"
     d="m 632.97,521.33 c 19.76,-0.21 39.53,-0.05 59.29,-0.04 -0.06,5.7 0.6,11.68 -0.44,17.23 -6.04,0.13 -12.09,-0.15 -18.12,0.11 -0.19,13.96 0.1,27.93 -0.14,41.89 -7.33,0.02 -14.68,0.21 -22,-0.1 -0.08,-13.96 0.13,-27.92 -0.09,-41.86 -6.18,-0.24 -12.38,0.26 -18.54,-0.28 -0.15,-5.64 -0.25,-11.31 0.04,-16.95 z" />
  <path
     style="opacity:1;fill:#e4e4e4;fill-opacity:1"
     inkscape:connector-curvature="0"
     id="path31"
     d="m 697.32,521.3 c 6.58,-0.08 13.17,-0.13 19.75,0.02 1.91,8.5 3,17.19 5.15,25.65 3.55,-7.66 6.27,-15.68 9.92,-23.29 3.37,7.53 6.03,15.37 9.67,22.77 2.62,-8.15 3.13,-16.88 5.33,-25.16 6.54,-0.13 13.08,-0.05 19.62,0.02 -3.67,19.74 -7.42,39.48 -11.29,59.18 -5.41,0.16 -10.83,0.1 -16.23,0.04 -2.67,-5.12 -4.52,-10.63 -7.18,-15.75 -2.73,5.12 -4.47,10.72 -7.31,15.78 -5.33,0.04 -10.68,0.17 -16,-0.08 -4.08,-19.67 -7.63,-39.45 -11.43,-59.18 z" />
  <path
     style="opacity:1;fill:#e4e4e4;fill-opacity:1"
     inkscape:connector-curvature="0"
     id="path33"
     d="m 836.35,521.33 c 9.88,-0.15 19.77,-0.1 29.66,-0.06 4.7,0.08 9.62,-0.35 14.05,1.6 8.37,3.23 13.95,12.24 13.15,21.18 -0.73,7.16 -5.59,13.18 -11.52,16.92 3.45,6.71 7.77,12.94 11.38,19.57 -7.27,0.02 -14.54,0.1 -21.81,-0.02 -3.33,-5.52 -5.72,-11.56 -8.76,-17.23 -2.09,-0.44 -4.25,-0.27 -6.35,-0.17 -0.3,5.81 0.17,11.64 -0.23,17.45 -6.52,0.03 -13.04,0.04 -19.55,-0.05 -0.14,-19.73 -0.1,-39.46 -0.02,-59.19 m 19.75,17.25 c -0.11,3.27 -0.11,6.56 0,9.84 4.29,0.14 8.59,0.14 12.89,0.01 1.94,-0.08 3.62,-1.57 4.25,-3.35 1.29,-2.79 -1.19,-6.46 -4.19,-6.5 -4.32,-0.09 -8.64,-0.11 -12.95,0 z" />
  <path
     style="opacity:1;fill:#e4e4e4;fill-opacity:1"
     inkscape:connector-curvature="0"
     id="path35"
     d="m 899.54,521.35 c 6.51,-0.25 13.02,-0.07 19.53,-0.04 0.75,6.23 -0.04,12.66 0.38,18.96 5.25,-6.09 9.58,-12.92 14.87,-18.97 8.31,-0.16 16.63,-0.04 24.95,0.01 -7.31,9.64 -15.37,18.71 -22.65,28.36 7.18,10.57 15.42,20.39 22.69,30.89 -8.33,-0.03 -16.66,0.1 -24.98,-0.02 -5.26,-7.05 -9.67,-14.72 -14.87,-21.81 -0.22,7.2 -0.04,14.42 -0.11,21.64 -6.58,0.42 -13.21,0.18 -19.8,0.12 -0.12,-19.71 -0.1,-39.43 -0.01,-59.14 z" />
  <path
     style="opacity:1;fill:#e4e4e4;fill-opacity:1"
     inkscape:connector-curvature="0"
     id="path37"
     d="m 968.84,564.75 c 4.37,-0.19 8.76,-0.2 13.14,-0.02 -0.01,0.59 -0.02,1.78 -0.03,2.37 -1.63,0.11 -3.25,0.09 -4.85,0.21 -0.46,4.47 -0.09,8.97 -0.35,13.46 -1.15,-0.1 -3.57,0.35 -3.06,-1.63 -0.11,-3.93 0.08,-7.86 -0.02,-11.79 -1.6,-0.16 -3.21,-0.15 -4.78,-0.28 -0.02,-0.58 -0.04,-1.74 -0.05,-2.32 z" />
  <path
     style="opacity:1;fill:#e4e4e4;fill-opacity:1"
     inkscape:connector-curvature="0"
     id="path39"
     d="m 984.11,564.67 c 1.53,-0.12 3.08,-0.13 4.64,0.02 1.27,4 1.87,8.19 3.28,12.17 1.25,-3.97 1.74,-8.13 3.05,-12.08 1.62,-0.2 3.26,-0.21 4.92,-0.28 l 0,16.37 c -0.74,-0.11 -2.21,-0.33 -2.94,-0.44 -0.32,-4.16 0.05,-8.34 -0.33,-12.5 -1.57,4.1 -2.03,8.5 -3.36,12.66 -0.99,0.1 -1.97,0.12 -2.93,0.07 -1.36,-4.12 -1.75,-8.5 -3.25,-12.59 -0.37,4.19 0.05,8.42 -0.35,12.61 -0.67,0.01 -2,0.02 -2.67,0.03 -0.33,-5.34 -0.23,-10.7 -0.06,-16.04 z" />
  <path
     style="opacity:1;fill:#e4e4e4;fill-opacity:1"
     inkscape:connector-curvature="0"
     id="path42"
     d="m 486.15,0 486.18,0 c -0.02,161.98 0.03,323.96 -0.07,485.94 -162.04,0.09 -324.08,0.02 -486.12,0.03 0.02,-161.99 0,-323.98 0.01,-485.97 m 34.92,34.87 c -0.06,138.81 -0.08,277.62 -0.02,416.43 46.25,0.13 92.5,0.16 138.75,-0.04 0.1,-57.76 -0.1,-115.52 0.14,-173.28 46.16,57.66 92.25,115.38 138.39,173.06 0.65,0.07 1.96,0.2 2.61,0.27 45.52,0.02 91.05,0.06 136.58,-0.01 0.14,-1.42 0.08,-2.86 0.1,-4.27 -0.03,-137.39 0.03,-274.77 -0.03,-412.15 -46.22,-0.1 -92.44,-0.03 -138.66,-0.04 -0.11,57.88 -0.04,115.77 -0.12,173.65 C 752.3,150.75 706.23,92.64 659.74,34.89 613.52,34.78 567.29,34.83 521.07,34.87 Z" />
  <path
     style="opacity:1;fill:#e4e4e4;fill-opacity:1"
     inkscape:connector-curvature="0"
     id="path44"
     d="m 233.96,27.08 c 41.75,-4.54 84.79,3.54 122.09,22.85 37.1,19.18 68.83,49.15 89.19,85.7 -40.22,22.99 -80.45,45.96 -120.63,69.01 -9.08,-15.4 -23.18,-27.96 -39.99,-34.28 -19.74,-7.74 -42.64,-6.73 -61.69,2.54 -14.68,7.05 -27.03,18.84 -34.77,33.17 -7.1,13.04 -10.31,28.12 -9.24,42.91 1.52,20.1 11.14,39.49 26.3,52.79 19.66,17.48 48.43,23.89 73.61,16.2 19.25,-5.55 35.68,-19.09 45.82,-36.25 40.13,23.14 80.44,45.97 120.58,69.1 -23.6,42.07 -62.01,75.51 -106.64,93.67 -33.26,13.62 -69.95,18.59 -105.65,14.67 C 200.12,455.67 168.18,444.4 140.35,426.67 100.79,401.63 69.76,363.47 53.32,319.63 40.28,284.84 36.35,246.68 42.04,209.96 47.05,177.26 59.7,145.78 78.69,118.69 97.55,91.81 122.46,69.13 151.21,53.21 176.65,39.04 204.97,30 233.96,27.08 Z" />
</svg>
