<?xml version="1.0" encoding="UTF-8"?>
<svg width="800" height="177.22" version="1.1" xmlns="http://www.w3.org/2000/svg">
	<path d="m488.3 31.177c0.0694-5.8326 0-13.262-0.0694-20.275-0.0694-6.0409-4.93-10.832-10.971-10.832-51.383 0.20831-103.18 0-154.56-0.069436-6.0409 0-10.971 4.93-10.901 10.971 0.0694 51.591 0.13887 103.39 0.0694 154.98 0 6.0409 4.7911 10.901 10.832 10.971 9.8599 0.0694 19.789 0.20831 29.649 0.27775 41.314-0.20831 83.67 0.27774 125.19-0.20831 5.9715-0.0694 10.832-4.93 10.763-10.971-0.0694-38.537-0.55549-95.405 0-134.84z" fill="#2ecdf1"/>
	<path d="m412.32 114.72c-1.3096-0.14722-2.4933 0.57474-3.4501 1.3765-1.5778 1.2275-3.3118 2.3134-5.2853 2.7598-2.7609 0.6813-5.7646 0.4588-8.3245-0.82071-1.6013-0.69867-2.8007-2.0297-4.3391-2.807-1.4431-0.82732-3.5387-0.5122-4.4089 1.0063-0.90301 1.6042-0.28109 3.672 0.81383 5.0226 2.1588 2.4689 5.2726 3.8653 8.4243 4.5649 1.5673 0.38617 3.1731 0.52746 4.7879 0.48069 1.29 0.013 2.5904 0.0245 3.8479-0.26399 3.5817-0.60869 7.2972-2.019 9.6225-4.9437 1.1015-1.4675 1.5067-3.6927 0.43166-5.2787-0.50889-0.64708-1.3074-1.0277-2.1201-1.0967z" fill="#ec1b97"/>
	<path d="m357.13 53.847c-6.2232-0.10415-12.456 1.1807-17.351 3.9234-11.318 6.3881-17.359 19.095-16.039 31.663 1.2498 11.735 6.9436 22.983 19.095 26.733 11.04 3.4024 25.622 3.2643 35.482-3.3321 10.068-6.7353 11.249-19.165 10.415-30.136-0.76379-9.7905-5.4158-19.304-14.304-24.442-4.8605-2.8122-11.075-4.3048-17.298-4.4089zm84.443 0.24276c-9.9294 0.27774-19.72 4.4447-25.344 12.985-6.1104 9.3739-7.1519 24.233-2.0831 34.162 5.9021 11.457 18.47 17.984 31.246 17.29 11.874-0.69436 23.469-5.8329 27.844-17.637 3.9578-10.693 4.4439-25.136-1.7359-35.134-6.3187-10.277-18.817-11.944-29.927-11.666z" fill="#fff"/>
	<path d="m461.08 74.574c-3.5412-5.416-10.138-7.5685-16.317-7.9851-1.1804-0.06944-2.2914-0.06944-3.4718 0-5.8326 0.48605-11.388 3.2635-14.165 8.8184-4.2356 8.2629-3.0552 20.484 4.6522 26.108 7.2908 5.3466 20.345 7.013 27.219-0.0694 6.3187-6.5964 7.013-19.303 2.0831-26.872"/>
	<path d="m360.19 66.797c-0.69436-0.13887-1.3887-0.20831-2.0136-0.27774-6.5964-0.69436-13.193 0.83323-17.012 6.7353-3.6107 5.5549-4.0967 14.026-2.0136 20.136 2.3608 7.0825 8.4712 12.082 16.179 12.429 6.5964 0.27774 14.443-1.8748 17.914-7.7768 2.9858-5.0688 3.1246-13.123 1.5276-18.678-1.8748-6.5964-7.9157-11.179-14.582-12.568"/>
	<g fill="#fff">
		<path d="m207.36 91.308c8.124-4.0273 12.429-16.317 8.749-24.997-3.1246-7.3602-10.346-10.763-17.845-12.012-7.2908-1.2498-15.831-1.4582-23.122-0.06944-3.819 0.69436-7.5685 2.3608-9.4433 6.0409-2.708 5.416-2.2914 12.707-2.4997 18.609v0.34718c-0.34718 7.2214 0.27775 13.957 0.55549 21.178 0.13887 5.4854 0.90267 12.915 5.416 16.526 3.5412 2.8469 8.4712 3.4024 12.151 0.48605 3.7495-2.9163 4.3745-9.3044 4.4439-13.818v-2.6386c3.6107 4.3745 6.8047 9.235 11.04 12.985 0.9721 0.83323 1.9442 1.597 2.9163 2.3608 4.7217 3.6107 12.012 3.819 15.623-1.8053 4.2356-6.3881-3.6801-19.025-7.9852-23.192m-22.636-7.4297c0.13888-6.8047 0-11.943-0.0694-13.957 0.69436-0.13887 2.6386-0.20831 2.9163-0.20831 2.8469 0 6.2492-0.06944 8.3323 2.1525 1.1804 1.2498 1.6665 2.9858 1.7359 4.6522 0.0694 2.8469-2.0831 5.7632-4.9994 6.527-2.6386 0.7638-4.8605 0.7638-7.638 0.7638 0 0.06944-0.27775 0.06944-0.27775 0.06944"/>
		<path d="m795.21 68.325c-10.971-16.109-32.079-18.956-47.98-9.8599-13.887 7.9157-19.581 29.094-11.804 44.161 5.3466 10.415 17.776 16.526 28.608 16.665 6.6659 0.0694 13.401-0.97211 19.65-4.4439 15.97-8.749 21.039-31.316 11.526-46.522m-38.329 22.914c-4.0967-10.277 6.5964-18.956 15.623-12.29 4.5133 3.5412 4.6522 11.735 0.0694 15.484-4.5828 3.819-13.123 2.2914-15.693-3.1941"/>
		<path d="m697.93 53.605c-10.277-0.41662-18.401-0.41662-28.747 0.06944-8.124 0.41662-14.79 4.7911-12.707 13.748 1.4582 6.2492 10.138 7.2214 16.665 7.3602-0.0694 6.7353-0.27774 15.901 0 22.636 0.13888 4.0967 0.0694 8.2629 1.0416 12.29 1.111 4.7911 3.4718 8.8878 9.721 9.5127 6.0409 0.62493 9.9294-2.2914 11.804-7.013 3.1246-7.7768 1.8053-19.025 1.9442-27.219 0.0694-2.9163 0.0694-7.4297 0.13888-10.277 7.2214 0 15.97-1.7359 16.665-8.6101 1.1804-11.04-8.4712-12.151-16.526-12.498"/>
		<path d="m543.57 104.99c1.6665 2.0136 3.4024 3.9578 5.2077 5.9021 1.8748 2.0136 4.305 3.819 6.7353 5.1383 2.4997 1.3887 5.4854 2.1525 8.4018 2.1525 8.4018-0.13887 10.971-7.7074 11.457-14.512 0.41662-5.5549 0.27774-12.012 0.27774-17.567-0.0694-4.2356-0.0694-8.1935-0.0694-12.29 0-3.9579 0.20831-8.124-0.90267-12.012-0.97211-3.5412-3.8884-7.2214-7.5685-8.1935s-7.8463-0.34718-10.693 1.7359c-5.1383 3.6801-5.6938 11.804-5.6938 18.401-4.4439-5.6938-8.4018-9.9988-11.04-12.637-4.0967-4.0967-8.9572-8.124-15.484-7.7768-4.93 0.27774-8.2629 3.1246-9.7905 7.638-2.0136 5.9715-1.597 16.04-1.5276 24.441 0 5.416-0.34718 10.832 0 16.248 0.34718 4.5828 0.9721 9.721 3.819 13.401 2.7774 3.5412 5.8326 4.7911 10.485 4.5133 3.1246-0.20831 5.9021-1.6665 7.638-4.2356 3.5412-4.9994 3.5412-12.012 3.1941-17.845-0.13887-0.06944 3.2635 4.7216 5.5549 7.4991"/>
		<path d="m292.21 60.479c-0.97211-1.8053-2.4303-3.3329-4.305-4.3745-4.5133-2.5691-10.068-2.6386-15.137-2.6386-7.5685 0-14.304-0.27774-21.872 0-1.7359 0.06944-4.305 0.34718-6.1104 0.9721-5.4854 1.8748-8.4712 7.2214-6.6659 13.401 1.3887 4.9994 6.7353 6.4576 11.457 7.2214 1.1804 0.20831 3.5412 0.34718 4.7217 0.34718 0.13887 9.0267-0.48606 21.664 0.48605 30.691 0.76379 7.1519 3.8884 13.54 12.846 13.193 2.4997-0.0694 4.6522-1.597 6.0409-3.5412 2.8469-3.819 2.9163-8.6101 3.1246-13.193 0.0694-1.9442 0.55549-27.08 0.55549-27.08 2.9163 0 4.6522-0.13887 7.0825-0.55549 2.9163-0.55549 5.8326-1.4582 7.4297-4.0273 2.222-3.1941 2.0831-7.2908 0.34718-10.415"/>
		<path d="m39.953 94.711c-1.2498 0.55549-2.4997 1.1804-3.8884 1.597-3.0552 0.90267-5.9715 0.41662-8.4018-1.6665-2.222-2.0136-3.4718-5.6938-3.4024-8.1935 0.06944-3.6107 1.597-7.4297 4.8605-9.3739 1.5276-0.90267 3.2635-1.3193 5.0688-1.2498 2.3608 0.13887 4.0967 1.3193 6.2492 2.0831 3.9579 1.4582 9.0961 1.1804 12.012-0.83323 3.4024-2.2914 4.93-4.8605 4.7217-9.721-0.20831-3.8884-2.4997-7.2214-5.416-9.3044-3.1246-2.2914-6.9436-3.8884-10.693-4.5133-1.8053-0.27774-3.6107-0.41662-5.416-0.41662-10.485-0.069436-20.9 3.7495-27.774 11.874-8.1935 9.721-10.415 25.414-4.6522 36.871 3.819 7.5685 10.832 13.609 18.956 16.04 6.5964 2.0136 13.748 2.2914 20.484 0.69436 5.5549-1.3193 11.179-3.9579 13.609-9.5128 1.111-2.5691 1.597-5.4854 0.90267-8.2629-1.6665-6.527-8.1935-7.9851-13.123-7.2908-1.5276 0.27774-2.8469 0.62492-4.0967 1.1804"/>
		<path d="m125.57 66.797c-2.6386-5.5549-6.6659-13.957-14.79-14.304h-1.5276c-7.2214 0.20831-11.04 6.7353-13.818 12.36-0.69436 1.3887-1.3887 2.7774-2.1525 4.0967-2.8469 5.2077-5.416 10.624-7.7768 16.04-2.6386 6.1798-5.4854 12.429-7.5685 18.748-0.62492 1.8053-0.83323 3.6801-0.7638 5.5549 0.20831 3.8884 1.3193 7.013 4.7217 9.0267 2.708 1.597 6.0409 2.1525 9.0961 1.3887 4.93-1.2498 7.3602-5.6938 9.0267-11.04 2.4997 0 6.9436 0 9.5127 0.0694h0.97211c2.4997 0 6.9436-0.0694 9.4433-0.0694 0.20831 0.62492 0.41662 1.1804 0.69436 1.7359 1.597 4.5828 3.9579 8.1935 8.4018 9.3044 0.9721 0.27775 1.9442 0.34718 2.9163 0.34718h0.13887c2.8469-0.0694 5.4854-1.1804 7.638-3.0552 0.0694-0.0694 0.13887-0.13888 0.20831-0.20831 1.0415-0.90267 1.8053-2.0136 2.2914-3.2635s0.69436-2.6386 0.7638-3.9578c0.2083-2.8469-0.34718-5.4854-1.8053-8.6101l-3.7496-8.6101c-3.6107-8.5406-7.638-17.081-11.874-25.552m-15.484 24.58c-2.7774 0-3.1246 0-7.013-0.06944 1.6665-4.7217 5.3466-12.985 7.013-16.04 2.0831 3.9579 5.4854 12.151 7.013 16.04-3.8884 0.06944-4.2356 0.06944-7.013 0.06944"/>
		<path d="m626.9 57.84c-2.0136-2.6386-5.416-4.6522-9.3739-4.5133-3.819 0.13887-6.9436 1.7359-9.3739 4.5828-3.4718 4.1662-3.819 10.277-4.1662 15.345-0.41662 5.9715-0.20831 12.012-0.27774 17.984 0 5.7632-0.34719 11.735 0.90266 17.428 1.7359 7.7768 10.763 13.887 19.025 8.7489 8.6795-5.416 7.3602-17.012 7.5685-25.552 0.13887-5.9021 0-11.249 0-16.804-0.0694-4.93-0.69436-12.429-4.305-17.22"/>
	</g>
</svg>
