<?xml version="1.0" encoding="UTF-8" standalone="no"?>
<!-- Created with Inkscape (http://www.inkscape.org/) -->

<svg
   xmlns:dc="http://purl.org/dc/elements/1.1/"
   xmlns:cc="http://creativecommons.org/ns#"
   xmlns:rdf="http://www.w3.org/1999/02/22-rdf-syntax-ns#"
   xmlns:svg="http://www.w3.org/2000/svg"
   xmlns="http://www.w3.org/2000/svg"
   xmlns:sodipodi="http://sodipodi.sourceforge.net/DTD/sodipodi-0.dtd"
   xmlns:inkscape="http://www.inkscape.org/namespaces/inkscape"
   width="213"
   height="133"
   id="svg2"
   sodipodi:version="0.32"
   inkscape:version="0.48.4 r9939"
   version="1.0"
   inkscape:output_extension="org.inkscape.output.svg.inkscape"
   sodipodi:docname="CBBC_logo.svg">
  <metadata
     id="metadata27">
    <rdf:RDF>
      <cc:Work
         rdf:about="">
        <dc:format>image/svg+xml</dc:format>
        <dc:type
           rdf:resource="http://purl.org/dc/dcmitype/StillImage" />
      </cc:Work>
    </rdf:RDF>
  </metadata>
  <defs
     id="defs25" />
  <sodipodi:namedview
     pagecolor="#ffffff"
     bordercolor="#666666"
     borderopacity="1"
     objecttolerance="10"
     gridtolerance="10"
     guidetolerance="10"
     inkscape:pageopacity="0"
     inkscape:pageshadow="2"
     inkscape:window-width="640"
     inkscape:window-height="480"
     id="namedview23"
     showgrid="false"
     inkscape:zoom="1.4225352"
     inkscape:cx="106.5"
     inkscape:cy="66.5"
     inkscape:window-x="611"
     inkscape:window-y="134"
     inkscape:window-maximized="0"
     inkscape:current-layer="layer1" />
  <g
     inkscape:label="Layer 1"
     inkscape:groupmode="layer"
     id="layer1"
     transform="translate(-7.815695,-885.84321)">
    <g
       id="g27219"
       transform="matrix(1,0,0,-1,510.16496,-69.80464)" />
    <g
       id="g28819"
       clip-path="url(#id375)"
       transform="matrix(4.7709489,0,0,-4.7709489,-1619.2006,1560.4001)">
      <g
         id="g28821"
         transform="translate(379.9193,125.2831)">
        <path
           id="path28823"
           d="m 0,0 c -0.069,1.322 -0.813,2.48 -1.867,3.144 0.098,0.095 0.471,0.455 0.471,0.455 l 0.015,0.015 c 0.709,0.717 1.119,1.747 1.119,2.791 0,0.068 -0.002,0.136 -0.005,0.204 -0.135,2.594 -2.691,4.35 -6.077,4.174 -2.016,-0.104 -3.834,-0.946 -5.119,-2.37 -0.132,-0.147 -0.257,-0.304 -0.378,-0.464 l -0.646,0 0,4.392 -6.272,0 c 0,0 -1.768,-1.776 -1.981,-1.99 l 0,2.583 -9.395,0.001 -0.002,-1.945 c 0,0 -0.002,-0.871 -0.002,-1.632 l -4.358,0 c -1.752,0 -3.178,-1.426 -3.178,-3.178 l 0,-8.036 c 0,-1.753 1.426,-3.178 3.178,-3.178 l 5.929,-0.001 0,-5.558 19.135,0 0,6.418 c 1.652,-0.388 2.761,-0.562 3.933,-0.502 3.83,0.199 5.505,2.354 5.505,4.47 C 0.005,-0.138 0.003,-0.069 0,0"
           style="fill:#88c543;fill-rule:nonzero;stroke:none"
           inkscape:connector-curvature="0" />
      </g>
      <g
         id="g28825"
         transform="translate(377.9753,125.1827)">
        <path
           id="path28827"
           d="M 0,0 C -0.056,1.075 -0.994,1.941 -2.019,1.888 -2.411,1.868 -2.751,1.71 -3.041,1.581 -3.313,1.462 -3.53,1.37 -3.811,1.356 -4.112,1.34 -4.329,1.396 -4.522,1.501 l 3.701,3.582 C -0.428,5.481 -0.24,6.075 -0.267,6.609 -0.357,8.33 -2.446,9.036 -4.299,8.94 -5.828,8.861 -7.14,8.245 -8.073,7.209 -8.372,6.878 -8.625,6.504 -8.832,6.103 l -3.658,0 0,4.392 -3.516,0 -1.537,-1.544 0,-1.746 c -0.123,0.243 -0.585,0.591 -1.703,0.73 -0.637,0.08 -1.333,-0.025 -1.497,-0.091 l 0,3.244 -5.504,0 -0.003,-2.59 0.75,0 -0.001,-0.986 -7.052,0 c -0.68,0 -1.232,-0.551 -1.232,-1.232 l 0,-8.036 c 0,-0.68 0.552,-1.231 1.232,-1.231 l 7.843,-10e-4 0,1.215 4.284,0 0,10e-4 0.833,0 c 0.004,0 0.008,-10e-4 0.013,-10e-4 0.918,0 1.57,0.174 2.034,0.433 l 0,-1.348 8.598,-10e-4 1.359,1.359 c 1.002,-0.961 2.416,-1.381 3.933,-1.302 C -1.355,-2.513 0.077,-1.489 0,0"
           style="fill:#000000;fill-rule:nonzero;stroke:none"
           inkscape:connector-curvature="0" />
      </g>
      <g
         id="g28829"
         transform="translate(356.4318,126.9346)">
        <path
           id="path28831"
           d="m 0,0 c 0,-0.298 0.281,-0.446 0.551,-0.446 0.28,0 0.566,0.148 0.566,0.446 l 0,3.155 C 1.117,3.417 0.831,3.548 0.551,3.548 0.281,3.548 0,3.417 0,3.155 L 0,0 z m -3.91,8.538 3.91,0 0,-3.793 c 0.251,0.433 0.862,0.65 1.834,0.65 1.445,0 2.165,-0.618 2.165,-1.854 l 0,-4.874 c 0,-0.93 -0.72,-1.395 -2.165,-1.395 -0.972,0 -1.583,0.182 -1.834,0.542 l 0,-0.542 -3.159,0 0,10.272 -0.751,0 0,0.994 z"
           style="fill:#ffffff;fill-rule:nonzero;stroke:none"
           inkscape:connector-curvature="0" />
      </g>
      <path
         id="path28833"
         d="m 366.002,127.225 -2.294,0 0,-1.703 2.294,0 0,1.703 z m -2.297,6.576 0,-4.342 4.781,0 0,-6.168 -7.258,0 0.003,10.511 2.474,-0.001 z"
         style="fill:#ffffff;fill-rule:nonzero;stroke:none"
         inkscape:connector-curvature="0" />
      <g
         id="g28835"
         transform="translate(377.1789,125.1483)">
        <path
           id="path28837"
           d="M 0,0 C -0.029,0.57 -0.48,1.163 -1.156,1.128 -1.406,1.115 -1.643,1.01 -1.896,0.898 -2.194,0.766 -2.531,0.617 -2.953,0.595 -4.554,0.511 -5.194,1.824 -5.259,3.079 c -0.044,0.828 0.176,1.573 0.599,2.044 0.323,0.357 0.747,0.552 1.261,0.579 0.755,0.039 1.126,-0.09 1.425,-0.194 0.205,-0.071 0.399,-0.139 0.649,-0.126 0.827,0.043 1.088,0.683 1.061,1.218 C -0.336,7.976 -2.371,8.235 -3.438,8.18 -4.759,8.111 -5.878,7.609 -6.672,6.727 -7.534,5.773 -7.964,4.429 -7.888,2.943 c 0.077,-1.475 0.642,-2.758 1.591,-3.614 0.899,-0.81 2.08,-1.202 3.416,-1.133 C -1.447,-1.729 0.063,-1.217 0,0"
           style="fill:#ffffff;fill-rule:nonzero;stroke:none"
           inkscape:connector-curvature="0" />
      </g>
      <g
         id="g28839"
         transform="translate(344.9882,123.4191)">
        <path
           id="path28841"
           d="m 0,0 c 0,-0.237 0.192,-0.429 0.429,-0.429 l 7.057,0.001 0,3.283 -2.736,0 0,-1.333 -2.012,0 0,5.034 2.013,0 0,-1.332 2.735,0.002 0,3.243 -7.057,0 C 0.193,8.469 0.001,8.277 0.001,8.041 L 0,0 z"
           style="fill:#ffffff;fill-rule:nonzero;stroke:none"
           inkscape:connector-curvature="0" />
      </g>
      <g
         id="g28843"
         transform="translate(355.0715,118.5962)">
        <path
           id="path28845"
           d="m 0,0 0.533,0 c 0.248,0 0.427,-0.056 0.541,-0.169 0.064,-0.069 0.097,-0.155 0.097,-0.259 0,-0.03 -0.005,-0.06 -0.013,-0.09 C 1.14,-0.588 1.108,-0.646 1.06,-0.693 0.956,-0.797 0.787,-0.849 0.553,-0.849 L 0,-0.849 0,0 z m 0,1.291 0.365,0 C 0.564,1.291 0.707,1.25 0.793,1.168 0.859,1.098 0.889,1.012 0.885,0.908 0.889,0.796 0.854,0.703 0.781,0.629 0.685,0.534 0.507,0.487 0.247,0.487 L 0,0.487 0,1.291 z m -0.558,0.498 0,-3.148 1.17,0 c 0.117,0 0.228,0.011 0.332,0.033 0.243,0.048 0.429,0.138 0.559,0.269 0.16,0.162 0.24,0.35 0.24,0.564 0,0.218 -0.073,0.402 -0.221,0.551 C 1.388,0.193 1.234,0.281 1.06,0.32 1.099,0.337 1.169,0.385 1.269,0.464 1.395,0.591 1.458,0.761 1.458,0.976 1.458,1.181 1.384,1.356 1.237,1.5 1.05,1.693 0.788,1.789 0.45,1.789 l -1.008,0 z m -1.211,0.6 4.608,0 0,-4.347 -4.608,0 0,4.347 z"
           style="fill:#000000;fill-rule:nonzero;stroke:none"
           inkscape:connector-curvature="0" />
      </g>
      <g
         id="g28847"
         transform="translate(360.3855,118.5962)">
        <path
           id="path28849"
           d="m 0,0 0.533,0 c 0.248,0 0.428,-0.056 0.54,-0.169 0.065,-0.069 0.098,-0.155 0.098,-0.259 0,-0.03 -0.005,-0.06 -0.013,-0.09 C 1.141,-0.588 1.108,-0.646 1.06,-0.693 0.956,-0.797 0.787,-0.849 0.553,-0.849 L 0,-0.849 0,0 z m 0,1.291 0.364,0 c 0.2,0 0.343,-0.041 0.43,-0.123 C 0.858,1.098 0.889,1.012 0.885,0.908 0.889,0.796 0.854,0.703 0.781,0.629 0.685,0.534 0.507,0.487 0.247,0.487 L 0,0.487 0,1.291 z m -0.558,0.498 0,-3.148 1.17,0 c 0.117,0 0.228,0.011 0.332,0.033 0.242,0.048 0.429,0.138 0.559,0.269 0.16,0.162 0.24,0.35 0.24,0.564 0,0.218 -0.073,0.402 -0.221,0.551 C 1.388,0.193 1.234,0.281 1.06,0.32 1.099,0.337 1.169,0.385 1.269,0.464 1.395,0.591 1.458,0.761 1.458,0.976 1.458,1.181 1.384,1.356 1.237,1.5 1.05,1.693 0.788,1.789 0.45,1.789 l -1.008,0 z m -1.211,0.6 4.608,0 0,-4.347 -4.608,0 0,4.347 z"
           style="fill:#000000;fill-rule:nonzero;stroke:none"
           inkscape:connector-curvature="0" />
      </g>
      <g
         id="g28851"
         transform="translate(366.8327,120.3801)">
        <path
           id="path28853"
           d="m 0,0 c -0.148,0.026 -0.278,0.039 -0.39,0.039 -0.564,0 -1.017,-0.172 -1.36,-0.515 -0.308,-0.309 -0.462,-0.685 -0.462,-1.129 0,-0.408 0.154,-0.765 0.462,-1.069 0.33,-0.335 0.768,-0.502 1.315,-0.502 0.373,0 0.664,0.046 0.872,0.138 0.056,0.017 0.173,0.068 0.352,0.152 l 0,0.599 c -0.395,-0.256 -0.782,-0.384 -1.163,-0.384 -0.407,0 -0.725,0.115 -0.955,0.345 -0.203,0.203 -0.305,0.457 -0.305,0.761 0,0.295 0.099,0.541 0.298,0.741 0.243,0.243 0.552,0.364 0.929,0.364 0.242,0 0.471,-0.041 0.688,-0.123 0.151,-0.057 0.309,-0.13 0.474,-0.221 l 0,0.577 C 0.624,-0.171 0.373,-0.095 0,0 m -2.902,0.605 4.608,0 0,-4.347 -4.608,0 0,4.347 z"
           style="fill:#000000;fill-rule:nonzero;stroke:none"
           inkscape:connector-curvature="0" />
      </g>
    </g>
    <g
       style="fill:#501616;fill-rule:evenodd"
       id="layer1-7"
       transform="matrix(0.04591005,0,0,0.04591005,82.419916,865.5724)">
      <g
         style="fill:#501616"
         id="g2890"
         transform="matrix(1.5730708,0,0,1.5730708,588.02291,-385.20449)">
        <path
           inkscape:connector-curvature="0"
           d="m 1356.1047,849.31994 -4.1438,-16.05231 -19.9673,-5.60235 -14.3736,26.9806 2.4887,97.35313 11.8849,43.99066 18.9022,-5.02198 5.2089,-16.48152 0,-51.58572 0,-22.3727 z"
           id="path15615"
           style="fill:#666666;fill-opacity:1;fill-rule:nonzero;stroke:none"
           sodipodi:nodetypes="ccccccccccc" />
        <path
           inkscape:connector-curvature="0"
           d="m 1232.351,910.81412 -33.8704,1.31083 2.3912,46.83314 12.2668,37.18275 24.1489,-21.73025 -0.076,-51.51014 z"
           id="path15619"
           style="fill:#666666;fill-opacity:1;fill-rule:nonzero;stroke:none"
           sodipodi:nodetypes="ccccccc" />
        <path
           inkscape:connector-curvature="0"
           d="m 1237.8544,900.52775 -0.4535,-50.48976 -24.1489,-22.37271 -12.5539,29.83603 6.1078,53.09847 23.899,-1.80212 z"
           id="path15623"
           style="fill:#666666;fill-opacity:1;fill-rule:nonzero;stroke:none"
           sodipodi:nodetypes="ccccccc" />
        <path
           inkscape:connector-curvature="0"
           d="m 1307.9581,849.9624 24.1489,-22.29712 -0.1512,168.39998 -23.9977,-25.39605 0,-47.76876 -94.7061,0 0,73.35376 -24.1111,-25.35825 0,-120.85797 24.1111,-22.37271 0,72.86247 94.7061,0 0,-50.56535 z"
           id="path15603"
           style="fill:#000000;fill-rule:nonzero;stroke:none" />
        <path
           inkscape:connector-curvature="0"
           d="m 1331.9558,995.98967 0,0 24.1489,-21.5035 30.6869,0 c 12.0556,0 21.428,-0.79362 28.1171,-2.34308 6.7269,-1.70063 12.2445,-3.77918 16.7039,-6.27343 4.4973,-2.60763 8.541,-5.78214 12.2824,-9.44794 11.9043,-12.05556 17.8377,-27.32342 17.8377,-45.76579 0,-18.10224 -6.1223,-32.84102 -18.329,-44.21633 -4.4973,-4.27047 -9.6747,-7.82289 -15.5702,-10.5439 -5.7822,-2.75879 -11.2998,-4.535 -16.5528,-5.40421 -5.1775,-0.86921 -13.5673,-1.32271 -25.2071,-1.32271 l -30.12,0 -23.9222,-21.5035 56.612,0 c 22.9018,0 41.0797,3.47684 54.3823,10.35493 13.3783,6.8781 23.9978,16.96849 31.8963,30.34677 7.8229,13.34048 11.8288,27.8903 11.8288,43.68725 0,11.22414 -2.2297,21.99479 -6.538,32.31193 -4.3838,10.27935 -10.5817,19.34937 -18.5935,27.17226 -8.163,8.04964 -17.7243,14.09632 -28.5706,18.17782 -6.349,2.49426 -12.2445,4.19489 -17.4976,5.0641 -5.2908,0.83141 -15.4568,1.20933 -30.4601,1.20933 l -53.1352,0 53.1352,0 c 15.0033,0 25.1693,-0.37792 30.4601,-1.20933 5.2531,-0.86921 11.1486,-2.56984 17.4976,-5.0641 10.8463,-4.0815 20.4076,-10.12818 28.5706,-18.17782 8.0118,-7.82289 14.2097,-16.89291 18.5935,-27.17226 4.3083,-10.31714 6.538,-21.08779 6.538,-32.31193 0,-15.79695 -4.0059,-30.34677 -11.8288,-43.68725 -7.8985,-13.37828 -18.518,-23.46867 -31.8963,-30.34677 -13.3026,-6.87809 -31.4805,-10.35493 -54.3823,-10.35493 l -56.612,0 23.9222,21.5035 30.12,0 c 11.6398,0 20.0296,0.4535 25.2071,1.32271 5.253,0.86921 10.7706,2.64542 16.5528,5.40421 5.8955,2.72101 11.0729,6.27343 15.5702,10.5439 12.2067,11.37531 18.329,26.11409 18.329,44.21633 0,18.44237 -5.9334,33.71023 -17.8377,45.76579 -3.7414,3.6658 -7.7851,6.84031 -12.2824,9.44794 -4.4594,2.49425 -9.977,4.5728 -16.7039,6.27343 -6.6891,1.54946 -16.0615,2.34308 -28.1171,2.34308 l -30.6869,0 -24.1489,21.5035 z"
           id="path15607"
           style="fill:#501616;fill-rule:nonzero;stroke:none" />
        <path
           inkscape:connector-curvature="0"
           d="m 1331.9558,995.98967 24.1489,-21.5035 30.6869,0 c 12.0556,0 21.428,-0.79362 28.1171,-2.34308 6.7269,-1.70063 12.2445,-3.77918 16.7039,-6.27343 4.4973,-2.60763 8.541,-5.78214 12.2824,-9.44794 11.9043,-12.05556 17.8377,-27.32342 17.8377,-45.76579 0,-18.10224 -6.1223,-32.84102 -18.329,-44.21633 -4.4973,-4.27047 -9.6747,-7.82289 -15.5702,-10.5439 -5.7822,-2.75879 -11.2998,-4.535 -16.5528,-5.40421 -5.1775,-0.86921 -13.5673,-1.32271 -25.2071,-1.32271 l -30.12,0 -23.9222,-21.5035 56.612,0 c 22.9018,0 41.0797,3.47684 54.3823,10.35493 13.3783,6.8781 23.9978,16.96849 31.8963,30.34677 7.8229,13.34048 11.8288,27.8903 11.8288,43.68725 0,11.22414 -2.2297,21.99479 -6.538,32.31193 -4.3838,10.27935 -10.5817,19.34937 -18.5935,27.17226 -8.163,8.04964 -17.7243,14.09632 -28.5706,18.17782 -6.349,2.49426 -12.2445,4.19489 -17.4976,5.0641 -5.2908,0.83141 -15.4568,1.20933 -30.4601,1.20933 l -53.1352,0 z"
           id="path15611"
           style="fill:#000000;fill-rule:nonzero;stroke:none" />
      </g>
    </g>
  </g>
</svg>
