<?xml version="1.0" encoding="UTF-8" standalone="no"?>
<!-- Created with Inkscape (http://www.inkscape.org/) -->

<svg
   xmlns:dc="http://purl.org/dc/elements/1.1/"
   xmlns:cc="http://creativecommons.org/ns#"
   xmlns:rdf="http://www.w3.org/1999/02/22-rdf-syntax-ns#"
   xmlns:svg="http://www.w3.org/2000/svg"
   xmlns="http://www.w3.org/2000/svg"
   xmlns:sodipodi="http://sodipodi.sourceforge.net/DTD/sodipodi-0.dtd"
   xmlns:inkscape="http://www.inkscape.org/namespaces/inkscape"
   width="342.58371"
   height="136.9922"
   id="svg2"
   sodipodi:version="0.32"
   inkscape:version="0.91pre2 r13516"
   version="1.0"
   inkscape:output_extension="org.inkscape.output.svg.inkscape"
   sodipodi:docname="Cbeebies.svg">
  <metadata
     id="metadata3415">
    <rdf:RDF>
      <cc:Work
         rdf:about="">
        <dc:format>image/svg+xml</dc:format>
        <dc:type
           rdf:resource="http://purl.org/dc/dcmitype/StillImage" />
        <dc:title></dc:title>
      </cc:Work>
    </rdf:RDF>
  </metadata>
  <defs
     id="defs3413" />
  <sodipodi:namedview
     pagecolor="#ffffff"
     bordercolor="#666666"
     borderopacity="1"
     objecttolerance="10"
     gridtolerance="10"
     guidetolerance="10"
     inkscape:pageopacity="0"
     inkscape:pageshadow="2"
     inkscape:window-width="1920"
     inkscape:window-height="1017"
     id="namedview3411"
     showgrid="false"
     borderlayer="true"
     inkscape:snap-text-baseline="false"
     fit-margin-top="0"
     fit-margin-left="0"
     fit-margin-right="0"
     fit-margin-bottom="0"
     inkscape:zoom="4.3365079"
     inkscape:cx="175.50099"
     inkscape:cy="68.496006"
     inkscape:window-x="-8"
     inkscape:window-y="-8"
     inkscape:window-maximized="1"
     inkscape:current-layer="layer1" />
  <g
     inkscape:label="Layer 1"
     inkscape:groupmode="layer"
     id="layer1"
     transform="translate(-448.67021,-274.27265)">
    <g
       id="g2822"
       transform="matrix(1,0,0,-1,207.74489,417.97292)" />
    <g
       id="g2982"
       clip-path="url(#id188)"
       transform="matrix(6.442113,0,0,-6.442113,-1943.3543,3296.4521)" />
    <g
       id="g4330">
      <g
         transform="matrix(6.442113,0,0,-6.442113,-1943.3543,3296.4521)"
         clip-path="url(#id186)"
         id="g2954">
        <path
           inkscape:connector-curvature="0"
           style="fill:#000000;fill-rule:nonzero;stroke:none"
           d="m 400.171,453.003 4.689,0 0,-4.413 -4.689,0 0,4.413 z m 2.954,-0.614 c -0.02,0.004 -0.041,0.007 -0.063,0.011 l -0.025,0.003 c -0.036,0.005 -0.073,0.009 -0.109,0.013 -0.025,0.002 -0.05,0.004 -0.075,0.005 -0.044,0.003 -0.088,0.004 -0.13,0.004 -0.02,0 -0.031,0 -0.05,0 -0.035,-0.001 -0.07,-0.003 -0.104,-0.005 -0.019,-0.001 -0.038,-0.003 -0.057,-0.004 -0.028,-0.003 -0.055,-0.006 -0.082,-0.009 l -0.023,-0.003 -0.025,-0.004 -0.032,-0.005 c -0.013,-0.002 -0.027,-0.005 -0.04,-0.007 -0.018,-0.003 -0.037,-0.007 -0.055,-0.011 -0.111,-0.023 -0.214,-0.055 -0.309,-0.092 -0.049,-0.019 -0.096,-0.039 -0.141,-0.061 -0.037,-0.018 -0.073,-0.037 -0.107,-0.057 -0.033,-0.02 -0.066,-0.039 -0.097,-0.06 -0.017,-0.012 -0.035,-0.024 -0.052,-0.036 -0.014,-0.01 -0.029,-0.021 -0.043,-0.032 -0.029,-0.023 -0.058,-0.046 -0.085,-0.07 -0.025,-0.022 -0.05,-0.044 -0.072,-0.067 -0.02,-0.02 -0.039,-0.04 -0.058,-0.06 -0.019,-0.021 -0.038,-0.043 -0.055,-0.065 -0.02,-0.024 -0.039,-0.049 -0.057,-0.074 -0.014,-0.019 -0.027,-0.038 -0.04,-0.058 -0.009,-0.013 -0.017,-0.026 -0.025,-0.04 -0.049,-0.08 -0.092,-0.165 -0.127,-0.257 -0.044,-0.113 -0.076,-0.236 -0.093,-0.366 -0.006,-0.041 -0.01,-0.083 -0.013,-0.125 -10e-4,-0.033 -0.003,-0.066 -0.003,-0.1 0,-0.025 0,-0.05 0.002,-0.074 0.002,-0.026 0.004,-0.051 0.007,-0.076 l 10e-4,-0.018 c 0.004,-0.03 0.009,-0.059 0.015,-0.088 0.002,-0.011 0.004,-0.023 0.006,-0.034 0.006,-0.024 0.011,-0.048 0.018,-0.071 0.008,-0.031 0.016,-0.06 0.026,-0.09 0.012,-0.035 0.025,-0.07 0.039,-0.104 0.023,-0.054 0.048,-0.106 0.075,-0.155 0.015,-0.029 0.031,-0.057 0.048,-0.083 0.013,-0.022 0.027,-0.042 0.041,-0.062 0.018,-0.027 0.037,-0.052 0.056,-0.077 0.02,-0.025 0.041,-0.049 0.06,-0.072 0.025,-0.029 0.051,-0.055 0.075,-0.079 l 0.013,-0.013 c 0.02,-0.02 0.042,-0.041 0.067,-0.062 0.017,-0.015 0.035,-0.03 0.054,-0.045 0.018,-0.014 0.037,-0.029 0.057,-0.043 0.023,-0.017 0.048,-0.034 0.075,-0.051 0.028,-0.018 0.057,-0.036 0.088,-0.054 0.062,-0.034 0.131,-0.068 0.206,-0.098 0.028,-0.011 0.057,-0.022 0.087,-0.032 0.03,-0.01 0.06,-0.02 0.092,-0.029 0.054,-0.016 0.111,-0.029 0.17,-0.041 0.048,-0.009 0.098,-0.017 0.15,-0.023 0.051,-0.006 0.104,-0.011 0.159,-0.014 0.027,-10e-4 0.054,-0.002 0.082,-0.003 0.012,0 0.025,0 0.038,0 0.099,0 0.19,0.004 0.274,0.011 l 0.017,10e-4 c 0.034,0.003 0.066,0.007 0.098,0.011 0.048,0.006 0.094,0.013 0.138,0.021 0.028,0.005 0.054,0.01 0.08,0.015 0.041,0.009 0.079,0.018 0.116,0.028 0.027,0.007 0.053,0.015 0.078,0.022 0.03,0.01 0.059,0.019 0.087,0.029 l 0.026,0.009 c 0.014,0.005 0.032,0.011 0.053,0.02 0.028,0.011 0.062,0.024 0.101,0.041 0.023,0.01 0.048,0.021 0.074,0.033 0.023,0.01 0.047,0.022 0.071,0.033 0.01,0.005 0.021,0.01 0.031,0.016 l 0,0.601 c -0.007,-0.004 -0.014,-0.009 -0.021,-0.013 l -0.042,-0.025 c -0.041,-0.025 -0.08,-0.048 -0.12,-0.07 -0.044,-0.023 -0.087,-0.045 -0.129,-0.065 -0.075,-0.036 -0.146,-0.065 -0.215,-0.09 -0.131,-0.047 -0.251,-0.077 -0.358,-0.096 -0.012,-0.002 -0.025,-0.004 -0.037,-0.006 -0.029,-0.004 -0.057,-0.008 -0.084,-0.011 -0.042,-0.004 -0.081,-0.007 -0.116,-0.008 -0.023,-10e-4 -0.044,-0.002 -0.064,-0.002 -0.043,0 -0.087,0.001 -0.131,0.005 -0.053,0.003 -0.106,0.009 -0.16,0.018 -0.087,0.015 -0.174,0.037 -0.26,0.068 -0.012,0.004 -0.025,0.01 -0.038,0.014 -0.008,0.004 -0.016,0.007 -0.024,0.011 -0.014,0.005 -0.028,0.011 -0.042,0.018 -0.029,0.014 -0.059,0.029 -0.087,0.045 -0.014,0.008 -0.028,0.016 -0.043,0.026 -0.014,0.009 -0.028,0.018 -0.042,0.028 -0.018,0.012 -0.035,0.024 -0.052,0.038 -0.016,0.012 -0.033,0.026 -0.047,0.038 l -0.02,0.018 -0.01,0.01 -0.006,0.005 -0.007,0.007 c -0.027,0.027 -0.052,0.054 -0.074,0.081 -0.013,0.016 -0.025,0.031 -0.036,0.046 -0.011,0.015 -0.021,0.03 -0.031,0.045 -0.009,0.014 -0.018,0.028 -0.027,0.042 -0.012,0.021 -0.023,0.043 -0.034,0.064 -0.009,0.018 -0.017,0.036 -0.024,0.053 -0.013,0.031 -0.024,0.062 -0.034,0.09 -0.007,0.023 -0.013,0.046 -0.018,0.067 -0.016,0.063 -0.024,0.12 -0.029,0.169 -0.002,0.019 -0.003,0.036 -0.004,0.053 -0.001,0.024 -0.001,0.045 -0.001,0.061 0,0.011 0,0.024 0.001,0.038 10e-4,0.035 0.004,0.078 0.011,0.128 0.004,0.03 0.01,0.062 0.018,0.096 0.006,0.023 0.012,0.045 0.019,0.069 0.007,0.022 0.015,0.043 0.023,0.065 0.006,0.015 0.012,0.03 0.018,0.045 0.009,0.02 0.019,0.041 0.03,0.061 0.008,0.016 0.016,0.031 0.025,0.047 0.02,0.034 0.043,0.068 0.068,0.102 0.009,0.012 0.019,0.024 0.029,0.036 0.012,0.016 0.026,0.031 0.04,0.046 0.007,0.008 0.014,0.016 0.021,0.023 0.111,0.111 0.235,0.193 0.363,0.252 0.02,0.009 0.04,0.017 0.061,0.025 0.02,0.008 0.04,0.015 0.061,0.022 0.022,0.008 0.045,0.015 0.067,0.021 0.021,0.006 0.042,0.011 0.064,0.016 0.021,0.005 0.042,0.009 0.063,0.013 0.023,0.004 0.047,0.008 0.07,0.011 0.023,0.003 0.046,0.005 0.069,0.007 0.044,0.004 0.087,0.006 0.129,0.006 0.014,0 0.028,0 0.042,0 0.031,-0.001 0.061,-0.002 0.091,-0.004 0.02,-10e-4 0.041,-0.003 0.061,-0.005 0.037,-0.003 0.074,-0.008 0.109,-0.013 0.031,-0.005 0.061,-0.01 0.089,-0.016 0.043,-0.008 0.082,-0.018 0.118,-0.027 0.023,-0.006 0.044,-0.013 0.063,-0.018 0.029,-0.009 0.054,-0.017 0.074,-0.023 0.033,-0.012 0.051,-0.019 0.051,-0.019 0.03,-0.01 0.059,-0.022 0.087,-0.033 0.039,-0.015 0.075,-0.032 0.11,-0.048 0.029,-0.013 0.057,-0.027 0.083,-0.039 0.022,-0.011 0.041,-0.021 0.06,-0.031 0.033,-0.017 0.061,-0.033 0.084,-0.045 l 0.061,-0.033 0,0.591 c 0,0 -0.037,0.015 -0.1,0.039 -0.028,0.011 -0.062,0.023 -0.099,0.036 -0.021,0.008 -0.043,0.016 -0.067,0.024 -0.019,0.006 -0.038,0.013 -0.058,0.019 -0.023,0.007 -0.046,0.015 -0.07,0.023 -0.017,0.005 -0.035,0.01 -0.053,0.015 l -0.016,0.005 c -0.018,0.005 -0.036,0.01 -0.054,0.015 -0.021,0.006 -0.043,0.011 -0.065,0.017 -0.014,0.003 -0.028,0.006 -0.043,0.01 -0.023,0.005 -0.047,0.01 -0.071,0.015 -0.024,0.005 -0.049,0.01 -0.074,0.014"
           id="path2956" />
        <g
           transform="translate(396.5677,450.57001)"
           id="g2958">
          <path
             inkscape:connector-curvature="0"
             style="fill:#000000;fill-rule:nonzero;stroke:none"
             d="m 0,0 0,-0.867 0.563,0 c 0,0 0.011,0 0.03,0.001 0.019,0 0.046,0.001 0.078,0.004 0.061,0.006 0.142,0.017 0.22,0.044 0.07,0.023 0.139,0.059 0.192,0.112 0.02,0.02 0.037,0.041 0.05,0.062 0.045,0.07 0.056,0.141 0.058,0.181 10e-4,0.017 10e-4,0.027 10e-4,0.027 0,0 0.001,0.008 0,0.021 0,0.017 -0.002,0.05 -0.011,0.084 C 1.17,-0.289 1.15,-0.242 1.115,-0.198 1.108,-0.19 1.101,-0.181 1.093,-0.174 1.078,-0.158 1.061,-0.143 1.043,-0.13 1.012,-0.107 0.977,-0.088 0.938,-0.071 0.888,-0.049 0.831,-0.033 0.769,-0.021 0.737,-0.015 0.703,-0.01 0.669,-0.007 0.647,-0.005 0.626,-0.004 0.604,-0.002 0.585,-0.001 0.564,0 0.544,0 0.344,0 0,0 0,0"
             id="path2960" />
        </g>
        <g
           transform="translate(396.5677,451.88831)"
           id="g2962">
          <path
             inkscape:connector-curvature="0"
             style="fill:#000000;fill-rule:nonzero;stroke:none"
             d="m 0,0 0,-0.822 0.273,0 c 0,0 0.018,0 0.042,0.001 0.019,0 0.041,0.002 0.061,0.002 0.056,0.005 0.134,0.013 0.212,0.034 0.015,0.004 0.03,0.009 0.045,0.015 0.061,0.021 0.119,0.053 0.164,0.097 0.037,0.036 0.06,0.075 0.076,0.114 0.019,0.047 0.026,0.092 0.029,0.124 0.002,0.028 0.002,0.046 0.002,0.046 0,0 0.001,0.014 0,0.035 -0.002,0.036 -0.01,0.094 -0.038,0.15 -0.014,0.027 -0.032,0.053 -0.058,0.078 -0.03,0.03 -0.067,0.054 -0.107,0.071 C 0.624,-0.021 0.536,-0.008 0.462,-0.003 0.43,0 0.4,0 0.376,0 L 0,0 Z"
             id="path2964" />
        </g>
        <path
           inkscape:connector-curvature="0"
           style="fill:#000000;fill-rule:nonzero;stroke:none"
           d="m 394.769,453.003 4.689,0 0,-4.413 -4.689,0 0,4.413 z m 1.23,-0.618 0,-3.178 1.196,0 c 0,0 0.583,-0.016 0.905,0.306 0.263,0.262 0.244,0.565 0.244,0.565 0,0 0.019,0.317 -0.224,0.56 -0.207,0.207 -0.471,0.262 -0.471,0.262 0,0 0.119,0.056 0.211,0.147 0.043,0.043 0.195,0.181 0.195,0.516 0,0.337 -0.224,0.531 -0.224,0.531 0,0 -0.246,0.291 -0.801,0.291 l -1.031,0 z"
           id="path2966" />
        <g
           transform="translate(400.49181,464.4016)"
           id="g2968">
          <path
             inkscape:connector-curvature="0"
             style="fill:#000000;fill-rule:nonzero;stroke:none"
             d="m 0,0 c 0.01,0.151 0.013,0.264 0.013,0.264 0.013,0.281 0.026,0.575 0.051,0.785 0.049,0.48 0.233,1.224 0.233,1.224 0.107,0.452 0.251,0.794 0.377,1.035 0.093,0.176 0.174,0.295 0.222,0.359 0.4,0.643 1.057,1.06 1.902,1.06 1.266,0 2.271,-1.001 2.281,-2.247 C 5.094,2.115 5.007,1.726 4.785,1.323 4.322,0.484 4.174,0.32 4.149,0.283 3.83,-0.228 3.675,-0.463 3.579,-0.641 3.518,-0.752 3.492,-0.826 3.4,-1.112 l -0.016,-0.048 0.05,0.01 c 0.877,0.182 2.757,0.041 3.235,-1.702 0.037,-0.124 0.084,-0.336 0.116,-0.559 L 6.791,-3.513 C 6.863,-4.056 6.805,-4.906 6.475,-5.815 6.441,-5.89 6.298,-6.198 6.129,-6.503 5.974,-6.782 5.728,-7.192 5.451,-7.451 5.45,-7.452 5.344,-7.584 5.126,-7.772 4.904,-7.963 4.577,-8.201 4.16,-8.387 2.197,-9.273 -0.588,-8.65 -1.34,-6.36 c -0.365,0.936 -0.373,1.807 -0.29,2.439 0.069,0.533 0.203,0.911 0.256,1.044 0.075,0.242 0.209,0.503 0.297,0.668 0.108,0.199 0.209,0.361 0.209,0.361 0.236,0.362 0.441,0.642 0.593,0.878 0.138,0.214 0.185,0.324 0.204,0.409 C -0.033,-0.398 -0.012,-0.173 0,0"
             id="path2970" />
        </g>
      </g>
      <g
         transform="matrix(6.442113,0,0,-6.442113,-1943.3543,3296.4521)"
         clip-path="url(#id187)"
         id="g2972">
        <g
           transform="translate(379.99809,457.0125)"
           id="g2974">
          <path
             inkscape:connector-curvature="0"
             style="fill:#000000;fill-rule:evenodd;stroke:none"
             d="m 0,0 c -0.105,0 -0.713,-1.478 -0.713,-1.478 0,0 1.004,-0.951 1.057,-1.057 0.053,-0.105 1.187,1.296 1.187,1.559 C 1.531,-0.713 0.105,0 0,0"
             id="path2976" />
        </g>
        <g
           transform="translate(417.85451,448.9305)"
           id="g2978">
          <path
             inkscape:connector-curvature="0"
             style="fill:#000000;fill-rule:evenodd;stroke:none"
             d="m 0,0 c -1.359,-1.457 -3.558,-1.36 -4.925,-0.085 -0.93,0.867 -1.043,2.12 -0.123,3.107 0.156,0.167 0.4,0.365 0.701,0.471 0.082,0.028 0.173,0.051 0.27,0.063 l 0.032,0.004 -0.007,0.032 c -0.188,0.882 0.386,1.853 0.724,2.215 1.36,1.458 3.566,1.352 4.925,0.085 C 2.536,5.016 2.637,3.769 1.719,2.785 1.563,2.618 1.32,2.419 1.019,2.314 0.938,2.286 0.847,2.263 0.751,2.251 L 0.719,2.247 0.726,2.215 C 0.917,1.33 0.336,0.36 0,0"
             id="path2980" />
        </g>
      </g>
      <g
         transform="matrix(6.442113,0,0,-6.442113,745.11339,401.22228)"
         id="g2984">
        <path
           inkscape:connector-curvature="0"
           style="fill:#ffe400;fill-rule:evenodd;stroke:none"
           d="M 0,0 C 0.445,0.477 0.849,1.493 0.283,2.021 -0.09,2.369 -0.453,2.487 -0.81,2.821 -1.108,3.099 -1.109,3.486 -0.88,3.732 -0.665,3.963 -0.234,4.231 0.049,3.967 0.436,3.605 0.467,2.936 0.847,2.582 1.123,2.324 1.511,2.562 1.719,2.785 2.352,3.463 2.295,4.254 1.632,4.873 0.529,5.901 -1.217,5.955 -2.273,4.823 -2.718,4.346 -3.115,3.323 -2.556,2.802 c 0.38,-0.355 0.922,-0.458 1.18,-0.9 0.208,-0.358 0.167,-0.55 -0.01,-0.818 C -1.565,0.811 -2.039,0.592 -2.322,0.856 -2.702,1.211 -2.733,1.88 -3.12,2.241 -3.396,2.498 -3.784,2.261 -3.993,2.038 -4.625,1.36 -4.561,0.562 -3.905,-0.05 -2.795,-1.085 -1.056,-1.133 0,0"
           id="path2986" />
      </g>
      <g
         transform="matrix(6.442113,0,0,-6.442113,700.57256,309.24817)"
         id="g2988">
        <path
           inkscape:connector-curvature="0"
           style="fill:#000000;fill-rule:evenodd;stroke:none"
           d="M 0,0 C 0.529,-0.122 1.073,-0.481 1.34,-0.908 1.958,-1.897 0.535,-4.195 -0.898,-3.643 -1.971,-3.229 -2.173,-2.088 -1.807,-0.991 -1.485,-0.026 -0.625,0.144 0,0"
           id="path2990" />
      </g>
      <g
         transform="matrix(6.442113,0,0,-6.442113,700.15975,339.94864)"
         id="g2992">
        <path
           inkscape:connector-curvature="0"
           style="fill:#000000;fill-rule:evenodd;stroke:none"
           d="m 0,0 c -0.208,-1.197 -1.378,-3.278 -2.992,-3.124 -0.842,0.08 -2.702,0.931 -1.251,2.96 0.218,0.306 0.428,0.527 0.657,0.736 0.2,0.181 0.427,0.363 0.722,0.619 C -1.732,2.176 0.447,2.567 0,0"
           id="path2994" />
      </g>
      <g
         transform="matrix(6.442113,0,0,-6.442113,693.90117,317.2905)"
         id="g2996">
        <path
           inkscape:connector-curvature="0"
           style="fill:#ffe400;fill-rule:evenodd;stroke:none"
           d="M 0,0 C -0.3,-0.9 -0.056,-1.448 0.43,-1.635 1.014,-1.861 1.959,-0.527 1.686,-0.09 1.413,0.346 0.3,0.9 0,0"
           id="path2998" />
      </g>
      <g
         transform="matrix(6.442113,0,0,-6.442113,712.20643,380.52564)"
         id="g3000">
        <path
           inkscape:connector-curvature="0"
           style="fill:#000000;fill-rule:evenodd;stroke:none"
           d="M 0,0 C -2.588,0.503 -3.534,2.633 -3.175,4.477 -2.719,6.825 -0.637,7.644 1.223,7.282 2.244,7.058 3.629,6.001 3.234,3.97 3.17,3.638 2.957,3.22 2.684,2.898 2.623,2.827 2.537,2.735 2.428,2.642 L 2.13,2.39 2.183,2.002 2.189,1.949 C 2.218,1.606 2.146,1.213 1.98,0.911 1.788,0.563 1.65,0.352 1.45,0.207 1.052,-0.084 0.554,-0.108 0,0"
           id="path3002" />
      </g>
      <g
         transform="matrix(6.442113,0,0,-6.442113,719.12011,338.10439)"
         id="g3004">
        <path
           inkscape:connector-curvature="0"
           style="fill:#ffe400;fill-rule:evenodd;stroke:none"
           d="m 0,0 c -1.569,0.305 -3.184,-0.372 -3.548,-2.244 -0.292,-1.5 0.45,-3.221 2.611,-3.641 0.942,-0.183 1.033,0.219 1.219,0.555 0.185,0.336 0.201,1.005 -0.173,1.065 -0.374,0.059 -0.754,-0.058 -1.151,0.019 -0.609,0.119 -1.249,1.421 -0.576,1.29 0.379,-0.074 1.063,-0.482 1.909,-0.646 0.584,-0.114 1.096,0.744 1.17,1.123 C 1.767,-0.902 0.728,-0.155 0,0"
           id="path3006" />
      </g>
      <g
         transform="matrix(6.442113,0,0,-6.442113,711.1822,345.30139)"
         id="g3008">
        <path
           inkscape:connector-curvature="0"
           style="fill:#462682;fill-rule:evenodd;stroke:none"
           d="M 0,0 C -0.246,-0.37 -0.188,-1.118 0.312,-1.182 0.812,-1.247 1.74,-0.727 1.368,-0.15 1.016,0.398 0.373,0.56 0,0"
           id="path3010" />
      </g>
      <g
         transform="matrix(6.442113,0,0,-6.442113,594.39629,334.85685)"
         id="g3012">
        <path
           inkscape:connector-curvature="0"
           style="fill:#000000;fill-rule:nonzero;stroke:none"
           d="M 0,0 C -0.057,0.09 -0.239,0.467 -0.239,0.467 -0.489,1.037 -0.602,1.66 -0.58,2.275 -0.492,4.806 1.546,6.008 3.557,5.938 4.654,5.873 6.273,5.004 6.196,2.817 6.184,2.465 6.032,1.995 5.801,1.614 5.744,1.521 5.66,1.399 5.548,1.274 L 5.273,0.967 5.402,0.577 C 5.413,0.544 5.422,0.515 5.428,0.491 5.516,0.139 5.505,-0.281 5.383,-0.621 5.242,-1.012 5.135,-1.253 4.952,-1.438 4.594,-1.797 4.087,-1.906 3.488,-1.885 1.928,-1.83 0.799,-1.154 0.137,-0.229 0.137,-0.229 0.057,-0.09 0,0"
           id="path3014" />
      </g>
      <g
         transform="matrix(6.442113,0,0,-6.442113,594.39629,334.85685)"
         id="g3016">
        <path
           inkscape:connector-curvature="0"
           style="fill:none;stroke:#000000;stroke-width:0.095;stroke-linecap:butt;stroke-linejoin:miter;stroke-miterlimit:3.86400008"
           d="M 0,0 C -0.057,0.09 -0.239,0.467 -0.239,0.467 -0.489,1.037 -0.602,1.66 -0.58,2.275 -0.492,4.806 1.546,6.008 3.557,5.938 4.654,5.873 6.273,5.004 6.196,2.817 6.184,2.465 6.032,1.995 5.801,1.614 5.744,1.521 5.66,1.399 5.548,1.274 L 5.273,0.967 5.402,0.577 C 5.413,0.544 5.422,0.515 5.428,0.491 5.516,0.139 5.505,-0.281 5.383,-0.621 5.242,-1.012 5.135,-1.253 4.952,-1.438 4.594,-1.797 4.087,-1.906 3.488,-1.885 1.928,-1.83 0.799,-1.154 0.137,-0.229 0.137,-0.229 0.057,-0.09 0,0 Z"
           stroke-miterlimit="3.864"
           id="path3018" />
      </g>
      <g
         transform="matrix(6.442113,0,0,-6.442113,566.76543,342.09972)"
         id="g3020">
        <path
           inkscape:connector-curvature="0"
           style="fill:#000000;fill-rule:nonzero;stroke:none"
           d="M 0,0 C -0.104,0.025 -0.497,0.17 -0.497,0.17 -1.072,0.407 -1.586,0.776 -1.998,1.233 -3.693,3.116 -3.061,5.396 -1.566,6.743 -0.732,7.458 1.036,7.957 2.5,6.331 2.736,6.069 2.954,5.625 3.051,5.191 3.075,5.084 3.1,4.938 3.107,4.77 L 3.122,4.359 3.486,4.168 C 3.516,4.151 3.542,4.136 3.564,4.123 3.871,3.932 4.156,3.622 4.303,3.293 4.474,2.913 4.564,2.666 4.561,2.406 4.553,1.899 4.264,1.468 3.818,1.067 2.658,0.022 1.377,-0.275 0.258,-0.069 0.258,-0.069 0.104,-0.025 0,0"
           id="path3022" />
      </g>
      <g
         transform="matrix(6.442113,0,0,-6.442113,566.76543,342.09972)"
         id="g3024">
        <path
           inkscape:connector-curvature="0"
           style="fill:none;stroke:#000000;stroke-width:0.095;stroke-linecap:butt;stroke-linejoin:miter;stroke-miterlimit:3.86400008"
           d="M 0,0 C -0.104,0.025 -0.497,0.17 -0.497,0.17 -1.072,0.407 -1.586,0.776 -1.998,1.233 -3.693,3.116 -3.061,5.396 -1.566,6.743 -0.732,7.458 1.036,7.957 2.5,6.331 2.736,6.069 2.954,5.625 3.051,5.191 3.075,5.084 3.1,4.938 3.107,4.77 L 3.122,4.359 3.486,4.168 C 3.516,4.151 3.542,4.136 3.564,4.123 3.871,3.932 4.156,3.622 4.303,3.293 4.474,2.913 4.564,2.666 4.561,2.406 4.553,1.899 4.264,1.468 3.818,1.067 2.658,0.022 1.377,-0.275 0.258,-0.069 0.258,-0.069 0.104,-0.025 0,0 Z"
           stroke-miterlimit="3.864"
           id="path3026" />
      </g>
      <g
         transform="matrix(6.442113,0,0,-6.442113,617.06094,301.19102)"
         id="g3028">
        <path
           inkscape:connector-curvature="0"
           style="fill:#ffe400;fill-rule:evenodd;stroke:none"
           d="m 0,0 c -1.716,0.06 -3.314,-0.93 -3.386,-2.976 -0.057,-1.64 1.019,-3.339 3.38,-3.422 1.031,-0.036 1.06,0.405 1.2,0.793 0.139,0.388 0.045,1.1 -0.362,1.1 -0.407,0 -0.79,-0.187 -1.224,-0.172 -0.666,0.023 -1.563,1.296 -0.827,1.27 0.414,-0.014 1.208,-0.332 2.133,-0.364 0.638,-0.022 1.037,0.974 1.051,1.387 C 2.025,-0.66 0.798,-0.042 0,0"
           id="path3030" />
      </g>
      <g
         transform="matrix(6.442113,0,0,-6.442113,610.89454,313.99794)"
         id="g3032">
        <path
           inkscape:connector-curvature="0"
           style="fill:#462682;fill-rule:evenodd;stroke:none"
           d="M 0,0 C -0.149,-0.446 0.491,-0.901 0.971,-0.885 1.451,-0.87 2.026,-0.68 1.975,-0.056 1.89,0.994 0.232,0.694 0,0"
           id="path3034" />
      </g>
      <text
         transform="matrix(6.3249912,0,0,6.5614035,-1943.3543,3296.4522)"
         sodipodi:linespacing="125%"
         id="text3445"
         y="-450.9328"
         x="422.85898"
         style="font-style:normal;font-variant:normal;font-weight:normal;font-stretch:normal;font-size:6.19121265px;line-height:125%;font-family:'Arial Rounded MT Bold';-inkscape-font-specification:'Arial Rounded MT Bold, Normal';text-align:start;letter-spacing:0px;word-spacing:0px;writing-mode:lr-tb;text-anchor:start;opacity:1;fill:#ffe400;fill-opacity:1;fill-rule:nonzero;stroke:#000000;stroke-width:1px;stroke-linecap:butt;stroke-linejoin:miter;stroke-opacity:1"
         xml:space="preserve"><tspan
           y="-450.9328"
           x="422.85898"
           id="tspan3447"
           sodipodi:role="line">HD</tspan></text>
      <text
         transform="matrix(6.3249913,0,0,6.5614035,-1943.3543,3296.4522)"
         sodipodi:linespacing="125%"
         id="text3445-8"
         y="-450.9299"
         x="422.85248"
         style="font-style:normal;font-variant:normal;font-weight:normal;font-stretch:normal;font-size:6.19121265px;line-height:125%;font-family:'Arial Rounded MT Bold';-inkscape-font-specification:'Arial Rounded MT Bold, Normal';text-align:start;letter-spacing:0px;word-spacing:0px;writing-mode:lr-tb;text-anchor:start;fill:#ffe400;fill-opacity:1;fill-rule:nonzero;stroke:none;stroke-width:1px;stroke-linecap:butt;stroke-linejoin:miter;stroke-opacity:1"
         xml:space="preserve"><tspan
           y="-450.9299"
           x="422.85248"
           id="tspan3447-1"
           sodipodi:role="line">HD</tspan></text>
      <g
         transform="matrix(6.442113,0,0,-6.442113,-1943.3543,3296.4521)"
         clip-path="url(#id189)"
         id="g3036">
        <g
           transform="translate(387.4341,454.10451)"
           id="g3038">
          <path
             inkscape:connector-curvature="0"
             style="fill:#000000;fill-rule:evenodd;stroke:none"
             d="m 0,0 c -1.76,-0.846 -5.938,-1.476 -7.763,2.953 -1.791,4.347 0.592,5.981 2.156,6.777 1.483,0.756 3.982,0.805 4.835,-0.349 C -0.486,8.993 -0.466,8.549 -0.505,8.213 -0.544,7.877 -0.654,7.541 -0.75,7.273 L -1.117,6.267 -0.202,6.152 C -0.135,6.143 -0.071,6.135 -0.024,6.127 0.322,6.07 0.775,5.99 1.201,5.795 1.65,5.589 2.072,5.256 2.367,4.711 3.601,2.431 1.529,0.735 0,0"
             id="path3040" />
        </g>
        <g
           transform="translate(376.1342,455.02879)"
           id="g3042">
          <path
             inkscape:connector-curvature="0"
             style="fill:#000000;fill-rule:evenodd;stroke:none"
             d="m 0,0 c 0.129,-0.574 0.388,-1.162 0.659,-1.494 0.661,-0.811 1.213,-0.94 1.811,-0.732 0.021,0.022 0.092,0.091 0.124,0.163 0.07,0.154 0.122,0.374 0.168,0.671 0.049,0.313 0.084,0.637 0.135,0.925 0.038,0.207 0.092,0.456 0.195,0.688 C 2.558,-0.289 1.778,-0.625 1.008,-0.49 0.547,-0.409 0.227,-0.221 0,0 M 3.559,0.821 C 4.013,1.154 4.574,1.071 5.05,0.794 5.53,0.516 6.037,-0.002 6.517,-0.511 7.379,-1.426 7.035,-2.616 6.678,-3.351 6.285,-4.161 5.66,-4.904 5.226,-5.299 5.024,-5.483 4.701,-5.807 4.273,-6.127 3.826,-6.462 3.242,-6.812 2.534,-6.996 c -1.492,-0.39 -3.313,0.014 -5.269,2.144 -4.054,4.415 -1.194,8.136 0.157,9.454 0.87,0.847 1.905,0.9 2.887,0.561 C 1.229,4.846 2.135,4.18 2.917,3.55 3.975,2.698 3.994,1.613 3.559,0.821"
             id="path3044" />
        </g>
        <g
           transform="translate(377.21561,455.2417)"
           id="g3046">
          <path
             inkscape:connector-curvature="0"
             style="fill:#ffe400;fill-rule:evenodd;stroke:none"
             d="M 0,0 C 1.251,-0.22 2.978,1.536 1.417,2.792 -0.144,4.049 -1.837,5.139 -3.148,3.86 -4.46,2.581 -6.914,-0.677 -3.312,-4.6 0.29,-8.524 2.881,-5.667 3.65,-4.967 c 0.769,0.7 2.284,2.714 1.288,3.771 C 3.942,-0.14 3.223,0.508 2.751,-0.157 2.279,-0.823 2.6,-2.789 1.66,-3.116 0.721,-3.442 -0.142,-3.136 -0.957,-2.137 -1.772,-1.138 -2.258,1.125 -1.48,1.322 -0.702,1.518 -1.251,0.22 0,0"
             id="path3048" />
        </g>
      </g>
      <g
         transform="matrix(6.442113,0,0,-6.442113,-1943.3543,3296.4521)"
         clip-path="url(#id190)"
         id="g3050">
        <g
           transform="translate(388.54311,464.80299)"
           id="g3052">
          <path
             inkscape:connector-curvature="0"
             style="fill:#ffe400;fill-rule:evenodd;stroke:none"
             d="m 0,0 c -1.276,-1.149 -1.738,-2.971 -0.369,-4.493 1.098,-1.219 3.053,-1.694 4.809,-0.113 0.766,0.69 0.481,1.027 0.312,1.403 C 4.583,-2.826 4.02,-2.38 3.728,-2.663 3.435,-2.945 3.29,-3.346 2.967,-3.637 2.472,-4.083 0.942,-3.79 1.489,-3.297 c 0.308,0.277 1.1,0.6 1.788,1.219 0.474,0.427 0.069,1.421 -0.208,1.729 C 1.915,0.932 0.603,0.524 0,0"
             id="path3054" />
        </g>
        <g
           transform="translate(388.7155,462.63789)"
           id="g3056">
          <path
             inkscape:connector-curvature="0"
             style="fill:#462682;fill-rule:evenodd;stroke:none"
             d="M 0,0 C 0.189,-0.438 1.023,-0.264 1.402,0.123 1.78,0.51 2.115,1.097 1.641,1.506 0.841,2.195 -0.294,0.68 0,0"
             id="path3058" />
        </g>
        <g
           transform="translate(407.88921,459.5544)"
           id="g3060">
          <path
             inkscape:connector-curvature="0"
             style="fill:#ffe400;fill-rule:evenodd;stroke:none"
             d="m 0,0 c 1.096,0.953 1.86,0.678 1.659,-0.481 -0.202,-1.16 -1.221,-2.54 -2.114,-2.454 -0.668,0.064 -1.519,0.486 -0.667,1.678 C -0.764,-0.756 -0.578,-0.502 0,0"
             id="path3062" />
        </g>
        <g
           transform="translate(399.85789,461.2646)"
           id="g3064">
          <path
             inkscape:connector-curvature="0"
             style="fill:#ffe400;fill-rule:nonzero;stroke:none"
             d="m 0,0 c 0.088,0.322 0.427,0.868 0.427,0.868 0.476,0.727 0.8,1.096 0.9,1.533 0.111,0.484 0.09,0.697 0.09,0.697 0.016,0.33 0.027,0.73 0.059,0.992 C 1.517,4.524 1.691,5.22 1.691,5.22 1.874,5.999 2.175,6.357 2.175,6.357 2.441,6.807 2.862,7.08 3.432,7.08 4.275,7.08 4.93,6.417 4.93,5.598 4.94,5.382 4.894,5.131 4.732,4.839 4.291,4.038 4.149,3.882 4.126,3.847 3.448,2.761 3.478,2.856 3.283,2.25 3.201,2.023 3.147,1.825 3.191,1.629 3.264,1.296 3.543,1.166 3.754,1.154 3.839,1.148 3.951,1.163 4.077,1.19 4.118,1.199 4.163,1.211 4.21,1.216 4.951,1.384 6.244,1.204 6.55,0.07 6.579,-0.028 6.614,-0.17 6.64,-0.349 L 6.645,-0.455 C 6.704,-0.865 6.679,-1.568 6.385,-2.38 6.325,-2.51 5.903,-3.411 5.55,-3.742 L 5.527,-3.763 c 0,0 -0.113,-0.136 -0.278,-0.278 C 5.069,-4.195 4.806,-4.386 4.474,-4.534 2.783,-5.3 0.584,-4.684 0.032,-2.959 -0.596,-1.375 0,0 0,0"
             id="path3066" />
        </g>
        <g
           transform="translate(404.7364,459.118)"
           id="g3068">
          <path
             inkscape:connector-curvature="0"
             style="fill:#462682;fill-rule:evenodd;stroke:none"
             d="M 0,0 C -0.456,-0.475 -1.473,-0.987 -2.14,-0.349 -2.806,0.288 -2.883,1.759 -2.179,1.914 -1.475,2.07 1.361,1.417 0,0"
             id="path3070" />
        </g>
        <g
           transform="translate(382.1619,463.1772)"
           id="g3072">
          <path
             inkscape:connector-curvature="0"
             style="fill:#ffe400;fill-rule:evenodd;stroke:none"
             d="m 0,0 c -1.386,-0.706 -3.392,-1.996 -1.809,-5.839 1.584,-3.842 5.164,-3.336 6.761,-2.568 1.53,0.735 2.915,2.073 2.038,3.693 -0.833,1.54 -2.978,0.615 -3.468,1.859 C 3.307,-2.312 4.423,-0.83 3.906,-0.13 3.389,0.569 1.386,0.706 0,0"
             id="path3074" />
        </g>
        <g
           transform="translate(383.66859,459.77271)"
           id="g3076">
          <path
             inkscape:connector-curvature="0"
             style="fill:#462682;fill-rule:evenodd;stroke:none"
             d="M 0,0 C 0.584,0.672 0.451,2.064 -0.275,2.253 -1.313,2.522 -2.088,1.057 -1.803,0.578 -1.518,0.1 -0.584,-0.672 0,0"
             id="path3078" />
        </g>
        <g
           transform="translate(386.33099,457.13451)"
           id="g3080">
          <path
             inkscape:connector-curvature="0"
             style="fill:#462682;fill-rule:evenodd;stroke:none"
             d="M 0,0 C -0.21,-0.581 -0.886,-1.408 -1.7,-1.116 -2.514,-0.823 -3.141,0.407 -2.597,0.809 -2.053,1.211 0.626,1.733 0,0"
             id="path3082" />
        </g>
        <g
           transform="translate(391.16479,450.57001)"
           id="g3084">
          <path
             inkscape:connector-curvature="0"
             style="fill:#000000;fill-rule:nonzero;stroke:none"
             d="m 0,0 0,-0.867 0.563,0 c 0,0 0.011,0 0.03,0.001 0.019,0 0.046,0.001 0.078,0.004 0.061,0.006 0.142,0.017 0.22,0.044 0.07,0.023 0.139,0.059 0.192,0.112 0.02,0.02 0.037,0.041 0.05,0.062 0.045,0.07 0.056,0.141 0.058,0.181 10e-4,0.017 10e-4,0.027 10e-4,0.027 0,0 0.001,0.008 0,0.021 0,0.017 -0.002,0.05 -0.011,0.084 C 1.17,-0.289 1.15,-0.242 1.115,-0.198 1.108,-0.19 1.101,-0.181 1.093,-0.174 1.078,-0.158 1.061,-0.143 1.043,-0.13 1.012,-0.107 0.977,-0.088 0.938,-0.071 0.888,-0.049 0.831,-0.033 0.769,-0.021 0.737,-0.015 0.703,-0.01 0.669,-0.007 0.647,-0.005 0.626,-0.004 0.604,-0.002 0.585,-0.001 0.564,0 0.544,0 0.345,0 0,0 0,0"
             id="path3086" />
        </g>
        <g
           transform="translate(391.16479,451.88831)"
           id="g3088">
          <path
             inkscape:connector-curvature="0"
             style="fill:#000000;fill-rule:nonzero;stroke:none"
             d="m 0,0 0,-0.822 0.273,0 c 0,0 0.018,0 0.042,0.001 0.019,0 0.041,0.002 0.061,0.002 0.056,0.005 0.134,0.013 0.212,0.034 0.015,0.004 0.03,0.009 0.045,0.015 0.061,0.021 0.119,0.053 0.164,0.097 0.037,0.036 0.06,0.075 0.076,0.114 0.019,0.047 0.026,0.092 0.029,0.124 0.002,0.028 0.002,0.046 0.002,0.046 0,0 0.001,0.014 0,0.035 -0.002,0.036 -0.01,0.094 -0.038,0.15 -0.014,0.027 -0.032,0.053 -0.058,0.078 -0.03,0.03 -0.067,0.054 -0.107,0.071 C 0.624,-0.021 0.536,-0.008 0.462,-0.003 0.43,0 0.401,0 0.376,0 L 0,0 Z"
             id="path3090" />
        </g>
        <path
           inkscape:connector-curvature="0"
           style="fill:#000000;fill-rule:nonzero;stroke:none"
           d="m 389.366,453.003 4.689,0 0,-4.413 -4.689,0 0,4.413 z m 1.23,-0.618 0,-3.178 1.196,0 c 0,0 0.583,-0.016 0.905,0.306 0.263,0.262 0.244,0.565 0.244,0.565 0,0 0.019,0.317 -0.224,0.56 -0.207,0.207 -0.471,0.262 -0.471,0.262 0,0 0.119,0.056 0.211,0.147 0.043,0.043 0.195,0.181 0.195,0.516 0,0.337 -0.224,0.531 -0.224,0.531 0,0 -0.246,0.291 -0.801,0.291 l -1.031,0 z"
           id="path3092" />
      </g>
    </g>
    <g
       id="g3612"
       transform="matrix(1,0,0,-1,119.88179,344.28221)" />
  </g>
</svg>
