<?xml version="1.0" encoding="UTF-8" standalone="no"?>
<!-- Created with Inkscape (http://www.inkscape.org/) -->
<svg
   xmlns:dc="http://purl.org/dc/elements/1.1/"
   xmlns:cc="http://web.resource.org/cc/"
   xmlns:rdf="http://www.w3.org/1999/02/22-rdf-syntax-ns#"
   xmlns:svg="http://www.w3.org/2000/svg"
   xmlns="http://www.w3.org/2000/svg"
   xmlns:xlink="http://www.w3.org/1999/xlink"
   xmlns:sodipodi="http://sodipodi.sourceforge.net/DTD/sodipodi-0.dtd"
   xmlns:inkscape="http://www.inkscape.org/namespaces/inkscape"
   width="800"
   height="170"
   id="svg2"
   sodipodi:version="0.32"
   inkscape:version="0.45.1"
   version="1.0">
  <g
     inkscape:label="Layer 1"
     inkscape:groupmode="layer"
     id="layer1"
     transform="translate(-328.07792,-334.09632)">
    <path
       style="fill:#ff6100"
       id="path1179"
       d="M 329.71,489.527 C 328.019,489.517 326.642,488.405 325.911,487.064 C 326.649,485.735 328.031,484.654 329.71,484.654 C 331.42,484.654 332.788,485.726 333.509,487.064 C 332.789,488.405 331.432,489.534 329.71,489.527 M 329.71,482.953 C 327.435,482.953 325.589,484.808 325.589,487.096 C 325.589,489.381 327.435,491.234 329.71,491.234 C 331.987,491.234 333.833,489.381 333.833,487.096 C 333.833,484.808 331.988,482.953 329.71,482.953"
       clip-path="url(#SVGID_46_)"
       transform="matrix(11.28893,0,0,11.28893,-3115.2715,-5077.9296)" />
    <path
       style="fill:#ff6100"
       id="path1181"
       d="M 329.71,489.289 C 330.917,489.289 331.896,488.305 331.896,487.096 C 331.896,485.883 330.917,484.899 329.71,484.899 C 328.505,484.899 327.524,485.883 327.524,487.096 C 327.525,488.304 328.505,489.289 329.71,489.289"
       clip-path="url(#SVGID_46_)"
       transform="matrix(11.28893,0,0,11.28893,-3115.2715,-5077.9296)" />
    <path
       style="fill:#ff6100"
       id="path1183"
       d="M 311.968,482.97 L 315.718,482.97 C 317.309,482.97 318.421,483.95 318.421,484.953 C 318.421,485.704 318.137,486.412 316.565,486.756 C 317.171,486.838 318.824,487.282 318.824,488.861 C 318.824,490.443 317.091,491.211 315.901,491.211 L 311.968,491.211 L 311.968,491.13 L 315.861,491.13 C 316.788,491.13 317.377,490.746 317.377,488.983 C 317.377,487.221 316.73,486.818 315.921,486.797 L 314.712,486.797 L 314.712,486.715 L 315.991,486.715 C 316.516,486.715 317.07,486.635 317.07,484.933 C 317.07,483.233 316.403,483.051 315.7,483.051 L 314.712,483.051 L 314.712,491.13 L 313.22,491.13 L 313.22,483.051 L 311.969,483.051 L 311.969,482.97 L 311.968,482.97 z "
       clip-path="url(#SVGID_46_)"
       transform="matrix(11.28893,0,0,11.28893,-3115.2715,-5077.9296)" />
    <path
       style="fill:#ff6100"
       id="path1185"
       d="M 306.673,487.144 C 306.673,484.025 307.578,482.909 308.65,482.909 C 310.163,482.909 310.989,485.158 311.25,486.029 L 311.25,483.01 C 310.989,483.213 310.869,483.313 310.584,483.313 C 310.302,483.313 309.878,483.171 309.678,483.051 C 309.476,482.93 309.074,482.827 308.67,482.827 C 307.341,482.827 305.02,484.589 305.02,487.143 C 305.02,490.161 307.076,491.456 308.67,491.456 C 309.074,491.456 309.515,491.294 309.719,491.172 C 309.919,491.051 310.302,490.889 310.584,490.889 C 310.869,490.889 310.989,490.992 311.25,491.193 L 311.25,488.156 C 311.027,489.331 310.163,491.376 308.65,491.376 C 308.215,491.376 307.619,491.173 307.347,490.89 C 307.266,490.801 306.673,490.38 306.673,487.144"
       clip-path="url(#SVGID_46_)"
       transform="matrix(11.28893,0,0,11.28893,-3115.2715,-5077.9296)" />
    <path
       style="fill:#ff6100"
       id="path1187"
       d="M 324.199,489.591 C 324.178,490.258 323.67,491.151 322.625,491.128 C 321.576,491.107 320.305,490.32 319.821,488.193 L 319.821,491.069 C 320.022,490.884 320.367,490.562 320.911,490.803 C 321.454,491.046 322.262,491.208 322.625,491.208 C 322.986,491.208 324.984,490.824 325.065,488.515 C 325.083,487.36 324.257,486.774 323.755,486.591 C 323.168,486.369 322.342,486.108 321.859,485.942 C 321.376,485.784 320.588,485.276 320.607,484.342 C 320.628,483.413 321.193,482.907 321.961,482.907 C 322.725,482.907 323.756,483.511 324.278,485.659 L 324.278,482.804 C 323.978,483.069 323.737,483.189 323.552,483.189 C 323.392,483.189 322.923,483.004 322.686,482.932 C 322.422,482.853 322.165,482.819 321.837,482.825 C 321.263,482.833 319.912,483.534 319.82,485.417 C 319.755,486.796 320.769,487.321 321.231,487.482 C 321.634,487.625 322.807,488.049 323.15,488.193 C 323.492,488.335 324.238,488.819 324.199,489.591"
       clip-path="url(#SVGID_46_)"
       transform="matrix(11.28893,0,0,11.28893,-3115.2715,-5077.9296)" />
    <path
       style="fill:#ffb900"
       id="path1189"
       d="M 342.135,485.971 L 345.179,485.971 C 344.891,485.197 344.474,484.829 343.716,484.829 C 342.895,484.83 342.436,485.224 342.135,485.971 M 343.743,482.783 C 346.055,482.783 347.687,484.318 347.687,487.191 C 347.687,487.388 347.7,487.493 347.687,487.677 L 342.044,487.677 C 342.253,488.635 343.011,489.093 343.925,489.093 C 344.721,489.093 345.244,488.53 345.661,487.978 C 345.661,487.978 347.111,488.818 347.556,489.093 C 346.851,490.353 345.493,491.193 343.808,491.193 C 341.338,491.193 339.64,489.684 339.64,486.981 C 339.64,484.541 341.378,482.783 343.743,482.783"
       clip-path="url(#SVGID_46_)"
       transform="matrix(11.28893,0,0,11.28893,-3115.2715,-5077.9296)" />
    <path
       style="fill:#ffb900"
       id="path1191"
       d="M 350.353,486.968 C 350.353,488.083 351.058,489.001 352.182,489.001 C 353.266,489.001 354.166,488.201 354.166,487.033 C 354.166,485.852 353.331,485.039 352.258,485.039 C 351.098,485.04 350.353,485.905 350.353,486.968 M 351.776,482.783 C 352.755,482.783 353.37,483.111 354.088,483.767 L 354.088,482.94 L 356.493,482.94 L 356.493,490.996 L 354.051,490.996 L 354.051,490.209 C 354.051,490.209 353.175,491.193 351.648,491.193 C 349.413,491.193 347.884,489.592 347.884,487.008 C 347.883,484.764 349.542,482.783 351.776,482.783"
       clip-path="url(#SVGID_46_)"
       transform="matrix(11.28893,0,0,11.28893,-3115.2715,-5077.9296)" />
    <rect
       x="917.25812"
       y="351.43613"
       width="27.4321"
       height="113.47633"
       id="rect1193"
       style="fill:#ffb900" />
    <path
       style="fill:#ffb900"
       id="path1203"
       d="M 360.49,482.941 L 362.919,482.941 L 362.919,490.998 L 360.49,490.998 L 360.49,482.941 z M 361.718,479.41 C 362.528,479.41 363.195,480.055 363.195,480.867 C 363.195,481.694 362.528,482.362 361.692,482.362 C 360.895,482.362 360.254,481.72 360.254,480.893 C 360.253,480.08 360.909,479.41 361.718,479.41"
       clip-path="url(#SVGID_48_)"
       transform="matrix(11.28893,0,0,11.28893,-3115.2715,-5077.9296)" />
    <polygon
       points="364.163,490.997 364.163,485.158 363.365,485.158 363.365,482.94 364.163,482.94 364.163,480.946 366.605,480.946 366.605,482.94 367.898,482.94 367.898,485.171 366.605,485.171 366.605,490.997 364.163,490.997 "
       id="polygon1205"
       transform="matrix(11.28893,0,0,11.28893,-3115.2715,-5077.9296)"
       style="fill:#ffb900" />
    <path
       style="fill:#ffb900"
       id="path1215"
       d="M 373.508,482.914 L 373.508,487.598 C 373.508,488.412 373.025,488.924 372.15,488.924 C 371.328,488.924 370.778,488.412 370.778,487.533 L 370.778,482.914 L 368.348,482.914 L 368.348,487.598 C 368.348,489.828 369.825,491.167 372.123,491.167 C 372.663,491.167 373.152,491.097 373.591,490.965 L 373.59,491.043 C 373.59,491.923 372.85,492.316 372.048,492.316 C 371.479,492.316 371.157,492.211 370.837,491.66 L 368.257,491.66 C 368.504,493.47 370.134,494.469 371.998,494.469 C 374.121,494.469 375.885,493.169 375.885,490.676 L 375.885,482.914 L 373.508,482.914 L 373.508,482.914 z "
       clip-path="url(#SVGID_50_)"
       transform="matrix(11.28893,0,0,11.28893,-3115.2715,-5077.9296)" />
    <path
       style="fill:#ffb900"
       id="path1217"
       d="M 337.28,487.283 L 337.28,490.998 L 334.813,490.998 L 334.813,482.94 L 337.188,482.94 L 337.188,484.212 C 337.385,483.608 338.133,482.781 339.104,482.781 L 339.655,482.781 L 339.655,485.301 C 339.655,485.301 339.353,485.144 338.802,485.144 C 337.857,485.144 337.28,485.721 337.28,487.283"
       clip-path="url(#SVGID_50_)"
       transform="matrix(11.28893,0,0,11.28893,-3115.2715,-5077.9296)" />
  </g>
</svg>
