<?xml version="1.0" encoding="UTF-8" standalone="no"?>
<!-- Created with Inkscape (http://www.inkscape.org/) -->

<svg
   xmlns:dc="http://purl.org/dc/elements/1.1/"
   xmlns:cc="http://creativecommons.org/ns#"
   xmlns:rdf="http://www.w3.org/1999/02/22-rdf-syntax-ns#"
   xmlns:svg="http://www.w3.org/2000/svg"
   xmlns="http://www.w3.org/2000/svg"
   xmlns:sodipodi="http://sodipodi.sourceforge.net/DTD/sodipodi-0.dtd"
   xmlns:inkscape="http://www.inkscape.org/namespaces/inkscape"
   width="729"
   height="124"
   id="svg2"
   sodipodi:version="0.32"
   inkscape:version="0.48.2 r9819"
   version="1.0"
   sodipodi:docname="CBS_Action.svg">
  <metadata
     id="metadata30">
    <rdf:RDF>
      <cc:Work
         rdf:about="">
        <dc:format>image/svg+xml</dc:format>
        <dc:type
           rdf:resource="http://purl.org/dc/dcmitype/StillImage" />
      </cc:Work>
    </rdf:RDF>
  </metadata>
  <defs
     id="defs28" />
  <sodipodi:namedview
     pagecolor="#ffffff"
     bordercolor="#666666"
     borderopacity="1"
     objecttolerance="10"
     gridtolerance="10"
     guidetolerance="10"
     inkscape:pageopacity="0"
     inkscape:pageshadow="2"
     inkscape:window-width="1061"
     inkscape:window-height="1037"
     id="namedview26"
     showgrid="false"
     inkscape:zoom="0.7611079"
     inkscape:cx="501.82016"
     inkscape:cy="105.33033"
     inkscape:window-x="852"
     inkscape:window-y="-21"
     inkscape:window-maximized="0"
     inkscape:current-layer="layer1" />
  <g
     inkscape:label="Layer 1"
     inkscape:groupmode="layer"
     id="layer1"
     transform="translate(-338.54992,-378.4546)">
    <path
       style="fill:#d10000"
       id="path1089"
       d="M 330.655,534.396 C 329.109,534.389 327.851,533.371 327.184,532.147 C 327.859,530.93 329.121,529.942 330.655,529.942 C 332.218,529.942 333.469,530.923 334.128,532.147 C 333.469,533.371 332.23,534.404 330.655,534.396 M 330.655,528.387 C 328.575,528.387 326.888,530.082 326.888,532.172 C 326.888,534.262 328.575,535.956 330.655,535.956 C 332.737,535.956 334.426,534.262 334.426,532.172 C 334.426,530.082 332.737,528.387 330.655,528.387"
       clip-path="url(#SVGID_42_)"
       transform="matrix(11.261466,0,0,11.261466,-3130.95,-5535.5042)" />
    <path
       style="fill:#d10000"
       id="path1091"
       d="M 330.655,534.179 C 331.759,534.179 332.653,533.279 332.653,532.172 C 332.653,531.065 331.759,530.165 330.655,530.165 C 329.554,530.165 328.658,531.064 328.658,532.172 C 328.658,533.279 329.554,534.179 330.655,534.179"
       clip-path="url(#SVGID_42_)"
       transform="matrix(11.261466,0,0,11.261466,-3130.95,-5535.5042)" />
    <path
       style="fill:#d10000"
       id="path1093"
       d="M 314.437,528.405 L 317.866,528.405 C 319.32,528.405 320.336,529.3 320.336,530.216 C 320.336,530.903 320.076,531.551 318.64,531.865 C 319.194,531.94 320.703,532.346 320.703,533.789 C 320.703,535.234 319.119,535.938 318.031,535.938 L 314.437,535.938 L 314.437,535.862 L 317.996,535.862 C 318.842,535.862 319.382,535.512 319.382,533.899 C 319.382,532.29 318.79,531.92 318.05,531.903 L 316.945,531.903 L 316.945,531.826 L 318.116,531.826 C 318.596,531.826 319.102,531.752 319.102,530.199 C 319.102,528.644 318.493,528.478 317.848,528.478 L 316.945,528.478 L 316.945,535.862 L 315.583,535.862 L 315.583,528.478 L 314.438,528.478 L 314.438,528.405 L 314.437,528.405 z "
       clip-path="url(#SVGID_42_)"
       transform="matrix(11.261466,0,0,11.261466,-3130.95,-5535.5042)" />
    <path
       style="fill:#d10000"
       id="path1095"
       d="M 309.596,532.219 C 309.596,529.368 310.424,528.347 311.405,528.347 C 312.788,528.347 313.541,530.403 313.781,531.2 L 313.781,528.44 C 313.541,528.626 313.431,528.717 313.171,528.717 C 312.913,528.717 312.525,528.587 312.343,528.478 C 312.158,528.367 311.791,528.274 311.422,528.274 C 310.206,528.274 308.086,529.884 308.086,532.219 C 308.086,534.976 309.967,536.161 311.422,536.161 C 311.791,536.161 312.194,536.013 312.38,535.901 C 312.564,535.79 312.913,535.64 313.171,535.64 C 313.432,535.64 313.541,535.735 313.781,535.919 L 313.781,533.143 C 313.578,534.216 312.788,536.086 311.405,536.086 C 311.007,536.086 310.462,535.9 310.214,535.64 C 310.138,535.563 309.596,535.177 309.596,532.219"
       clip-path="url(#SVGID_42_)"
       transform="matrix(11.261466,0,0,11.261466,-3130.95,-5535.5042)" />
    <path
       style="fill:#d10000"
       id="path1097"
       d="M 325.617,534.456 C 325.597,535.066 325.135,535.882 324.178,535.86 C 323.221,535.843 322.059,535.123 321.617,533.177 L 321.617,535.807 C 321.8,535.639 322.114,535.343 322.613,535.564 C 323.108,535.789 323.846,535.936 324.177,535.936 C 324.506,535.936 326.334,535.583 326.408,533.473 C 326.425,532.417 325.67,531.882 325.211,531.715 C 324.675,531.512 323.918,531.27 323.477,531.12 C 323.037,530.974 322.317,530.512 322.333,529.658 C 322.354,528.809 322.87,528.345 323.569,528.345 C 324.269,528.345 325.211,528.899 325.689,530.864 L 325.689,528.253 C 325.414,528.494 325.195,528.605 325.025,528.605 C 324.879,528.605 324.451,528.437 324.233,528.373 C 323.993,528.298 323.757,528.267 323.458,528.272 C 322.933,528.279 321.699,528.92 321.616,530.643 C 321.553,531.9 322.481,532.383 322.905,532.528 C 323.273,532.659 324.344,533.05 324.659,533.178 C 324.971,533.306 325.653,533.75 325.617,534.456"
       clip-path="url(#SVGID_42_)"
       transform="matrix(11.261466,0,0,11.261466,-3130.95,-5535.5042)" />
    <path
       style="fill:#ff4000"
       id="path1099"
       d="M 337.246,532.058 C 337.246,533.078 337.891,533.916 338.917,533.916 C 339.907,533.916 340.731,533.184 340.731,532.117 C 340.731,531.038 339.966,530.293 338.988,530.293 C 337.925,530.293 337.246,531.086 337.246,532.058 M 338.545,528.232 C 339.441,528.232 340.002,528.532 340.659,529.131 L 340.659,528.375 L 342.856,528.375 L 342.856,535.739 L 340.623,535.739 L 340.623,535.019 C 340.623,535.019 339.823,535.918 338.427,535.918 C 336.385,535.918 334.989,534.454 334.989,532.092 C 334.99,530.042 336.505,528.232 338.545,528.232"
       clip-path="url(#SVGID_42_)"
       transform="matrix(11.261466,0,0,11.261466,-3130.95,-5535.5042)" />
    <path
       style="fill:#ff4000"
       id="path1101"
       d="M 348.903,535.499 C 348.903,535.499 347.828,535.919 347.123,535.919 C 344.855,535.919 343.339,534.288 343.339,532.129 C 343.339,529.995 344.891,528.233 347.16,528.233 C 347.84,528.233 348.258,528.316 348.867,528.592 L 348.867,530.907 C 348.616,530.642 347.9,530.307 347.243,530.307 C 346.276,530.307 345.559,531.205 345.559,532.189 C 345.559,533.185 346.36,533.857 347.337,533.857 C 347.958,533.857 348.675,533.545 348.902,533.364 L 348.902,535.499 L 348.903,535.499 z "
       clip-path="url(#SVGID_42_)"
       transform="matrix(11.261466,0,0,11.261466,-3130.95,-5535.5042)" />
    <polygon
       points="350.148,535.74 350.148,530.404 349.419,530.404 349.419,528.375 350.148,528.375 350.148,526.552 352.38,526.552 352.38,528.375 353.562,528.375 353.562,530.415 352.38,530.415 352.38,535.74 350.148,535.74 "
       id="polygon1103"
       transform="matrix(11.261466,0,0,11.261466,-3130.95,-5535.5042)"
       style="fill:#ff4000" />
    <path
       style="fill:#ff4000"
       id="path1113"
       d="M 354.401,528.375 L 356.621,528.375 L 356.621,535.74 L 354.401,535.74 L 354.401,528.375 z M 355.523,525.15 C 356.263,525.15 356.874,525.737 356.874,526.482 C 356.874,527.237 356.264,527.848 355.5,527.848 C 354.771,527.848 354.187,527.259 354.187,526.503 C 354.186,525.761 354.783,525.15 355.523,525.15"
       clip-path="url(#SVGID_44_)"
       transform="matrix(11.261466,0,0,11.261466,-3130.95,-5535.5042)" />
    <path
       style="fill:#ff4000"
       id="path1115"
       d="M 359.56,532.128 C 359.56,533.111 360.313,533.879 361.328,533.879 C 362.426,533.879 363.096,533.171 363.096,532.022 C 363.096,531.074 362.378,530.33 361.34,530.33 C 360.265,530.33 359.56,531.122 359.56,532.128 M 361.352,528.232 C 363.572,528.232 365.304,529.839 365.304,532.058 C 365.304,534.3 363.692,535.992 361.304,535.992 C 359.059,535.992 357.338,534.145 357.338,532.094 C 357.338,529.887 359.094,528.232 361.352,528.232"
       clip-path="url(#SVGID_44_)"
       transform="matrix(11.261466,0,0,11.261466,-3130.95,-5535.5042)" />
    <path
       style="fill:#ff4000"
       id="path1117"
       d="M 365.822,535.74 L 365.822,528.375 L 368.043,528.375 L 368.043,529.335 C 368.043,529.335 368.747,528.233 370.181,528.233 C 371.637,528.233 372.82,529.288 372.82,530.677 L 372.82,535.74 L 370.527,535.74 L 370.527,531.423 C 370.527,530.812 370.36,530.235 369.381,530.235 C 368.664,530.235 368.068,530.822 368.068,531.53 L 368.068,535.74 L 365.822,535.74 z "
       clip-path="url(#SVGID_44_)"
       transform="matrix(11.261466,0,0,11.261466,-3130.95,-5535.5042)" />
  </g>
</svg>
