<?xml version="1.0" encoding="UTF-8" standalone="no"?>
<!-- Created with Inkscape (http://www.inkscape.org/) -->
<svg
   xmlns:dc="http://purl.org/dc/elements/1.1/"
   xmlns:cc="http://web.resource.org/cc/"
   xmlns:rdf="http://www.w3.org/1999/02/22-rdf-syntax-ns#"
   xmlns:svg="http://www.w3.org/2000/svg"
   xmlns="http://www.w3.org/2000/svg"
   xmlns:xlink="http://www.w3.org/1999/xlink"
   xmlns:sodipodi="http://sodipodi.sourceforge.net/DTD/sodipodi-0.dtd"
   xmlns:inkscape="http://www.inkscape.org/namespaces/inkscape"
   width="368"
   height="256"
   id="svg2"
   sodipodi:version="0.32"
   inkscape:version="0.45.1"
   version="1.0"
   inkscape:output_extension="org.inkscape.output.svg.inkscape">
  <g
     inkscape:label="Layer 1"
     inkscape:groupmode="layer"
     id="layer1"
     transform="translate(-554.35216,-189.91514)">
    <g
       id="g20844"
       style="fill:#01748f;fill-opacity:1"
       transform="matrix(17.844695,0,0,17.844695,-7029.9273,-8366.7826)">
      <path
         style="fill:#01748f;fill-opacity:1;fill-rule:evenodd;stroke:none"
         d="M 431.72492,487.97833 L 430.48492,487.97833 L 430.48492,482.87133 L 431.72492,481.28333 L 431.72492,487.97833 z M 430.07192,485.41533 L 429.32392,486.37433 L 429.32392,487.06933 L 429.85292,487.48333 L 428.45792,487.48333 L 428.07292,487.97833 L 426.49992,487.97833 L 430.07192,483.40033 L 430.07192,485.41533 z M 433.37692,491.70733 L 433.37692,492.20133 L 432.13692,492.20133 L 432.13692,483.45833 L 433.37692,481.83333 L 433.05992,481.58633 L 432.13692,482.76933 L 432.13692,480.75433 L 432.39992,480.41733 L 431.23792,479.50933 L 430.97592,479.84633 L 430.97592,480.69833 L 430.56192,480.37533 L 429.32392,481.96333 L 429.32392,482.81533 L 428.91092,482.49333 L 425.33892,487.06933 L 425.86692,487.48333 L 425.01592,487.48333 L 425.01592,488.72333 L 426.17692,489.63133 L 426.17692,488.39133 L 431.72492,488.39133 L 431.72492,489.63133 L 429.32392,489.63133 L 429.32392,492.02933 L 428.91092,491.70733 L 427.67092,491.70733 L 427.67092,492.94633 L 428.83292,493.85533 L 428.83292,492.61433 L 430.07192,492.61433 L 430.07192,493.53233 L 430.48492,493.85533 L 430.48492,490.04433 L 431.72492,490.04433 L 431.72492,493.53233 L 432.13692,493.85533 L 432.13692,492.61433 L 434.91092,492.61433 L 433.74892,491.70733 L 433.37692,491.70733"
         id="path20846" />
      <path
         style="fill:#01748f;fill-opacity:1;fill-rule:evenodd;stroke:none"
         d="M 433.37692,489.30833 L 433.78992,489.63133 L 433.78992,488.39133 L 435.73592,488.39133 L 434.57592,487.48333 L 433.37692,487.48333 L 433.37692,489.30833"
         id="path20848" />
      <path
         style="fill:#01748f;fill-opacity:1;fill-rule:nonzero;stroke:none"
         d="M 439.86392,482.61633 C 439.54892,482.27533 439.04592,482.07233 438.38192,482.07333 C 438.37592,482.07333 438.37092,482.07333 438.36492,482.07333 L 437.85492,482.07333 C 437.74892,482.07333 437.63392,482.07833 437.51792,482.09233 L 437.51792,480.41733 L 435.73592,480.41733 L 435.73592,487.48333 L 436.17692,487.48333 L 436.17692,480.85733 L 437.07892,480.85733 L 437.07892,482.68233 L 437.12492,482.65433 C 437.29292,482.55533 437.60792,482.51233 437.85492,482.51333 L 438.36592,482.51333 C 438.95992,482.51333 439.32292,482.68133 439.54192,482.91633 C 439.76092,483.15133 439.86592,483.50733 439.86592,484.07933 L 439.86592,487.48333 L 440.30592,487.48333 L 440.30592,484.07933 C 440.30592,483.76733 440.27792,483.49633 440.20992,483.25133 C 440.14092,483.00833 440.02592,482.79033 439.86392,482.61633"
         id="path20850" />
      <path
         style="fill:#01748f;fill-opacity:1;fill-rule:nonzero;stroke:none"
         d="M 445.20092,480.41733 L 445.20092,484.80233 C 445.19892,486.04933 444.98092,486.47533 444.73792,486.71933 C 444.41592,487.04233 443.95492,487.09133 443.59292,487.09133 L 442.97692,487.09133 C 442.61392,487.09133 442.14492,487.04233 441.82392,486.71933 C 441.57992,486.47533 441.35592,486.04933 441.35492,484.80233 C 441.35592,483.55533 441.57992,483.12933 441.82392,482.88433 C 442.14492,482.56233 442.61392,482.51233 442.97692,482.51333 L 443.51892,482.51333 C 443.76792,482.51233 444.08192,482.55533 444.24992,482.65433 L 444.29692,482.68333 L 444.29692,480.41733 L 443.85692,480.41733 L 443.85692,482.09233 C 443.74092,482.07833 443.62692,482.07333 443.51892,482.07333 L 442.97692,482.07333 C 442.58292,482.07533 441.98092,482.11333 441.51292,482.57333 C 441.34392,482.74033 441.17892,482.99033 441.07692,483.34233 C 440.97292,483.69433 440.91492,484.15333 440.91492,484.80233 C 440.91492,485.45133 440.97292,485.90933 441.07692,486.26233 C 441.17892,486.61433 441.34392,486.86433 441.51292,487.03033 C 441.98092,487.49033 442.58292,487.52833 442.97692,487.53133 L 443.59292,487.53133 C 443.98592,487.52933 444.58192,487.48933 445.04792,487.03033 C 445.21892,486.86233 445.38192,486.61133 445.48092,486.26033 C 445.58292,485.90733 445.63792,485.45133 445.63792,484.80233 L 445.63792,480.41733 L 445.20092,480.41733"
         id="path20852" />
    </g>
  </g>
</svg>
