<svg xmlns="http://www.w3.org/2000/svg" width="800" height="114.367" ><path d="M187.848 113.796h-23.731V66.905h-42.888v46.891H97.498V0h23.731v46.319h42.888V0h23.731zM235.883 0h27.162l46.319 113.796h-28.02l-10.865-26.59h-42.03l-10.865 26.59h-28.02zm-2.287 67.191h31.737l-15.726-39.743zM459.757 0v84.632L415.154 0h-30.307v81.773L341.959 0h-30.593v113.796h22.873V30.307l45.747 83.488h28.878V32.881l44.317 80.915h29.164V0zm115.511 20.3h-30.879c-16.011 0-22.016 2.001-27.162 8.292-3.431 4.575-4.003 7.148-4.861 18.585h62.616v20.3h-62.616c1.716 19.442 10.007 26.019 32.881 26.019h30.021v20.3h-30.879c-23.731 0-35.168-3.145-44.031-12.866-9.435-10.007-14.582-25.733-14.582-44.889 0-20.3 6.576-36.026 18.871-46.891C512.652 2.287 520.086 0 535.239 0h40.315v20.3zM606.433 0v64.332c.858 19.442 1.144 20.586 5.432 24.589 4.289 3.717 9.149 4.861 24.017 4.861h12.009v20.3H633.31c-15.726 0-19.157-.572-24.875-2.001-11.437-2.859-19.728-10.865-23.445-21.73-1.716-5.147-2.573-14.296-2.573-26.019V0zM90.636 113.796H51.751c-19.157 0-28.592-2.859-37.169-11.437C5.147 92.924 0 77.484 0 56.898 0 31.451 8.863 12.294 24.589 5.147 30.879 2.001 42.03 0 52.895 0h37.741v20.3H55.468c-11.151 0-18.871 3.145-23.731 9.149-3.717 4.575-5.718 13.724-5.718 25.447 0 16.583 3.431 28.306 10.007 33.452 4.289 3.431 11.151 5.147 20.014 5.147h34.024v20.3z" fill="#d20073"/><path d="M761.973 0v20.3h14.582v73.481H681.63V83.774c0-4.003 1.144-9.149 2.573-11.151 2.573-4.003 7.434-5.147 18.871-5.147h15.726c10.865 0 19.442-1.43 24.875-4.575 8.578-4.861 13.724-15.44 13.724-29.164 0-10.293-3.717-19.728-9.721-25.161S732.523.858 717.084.858h-57.47v20.3h52.323c5.432 0 10.865 1.144 13.152 2.287 3.431 2.001 5.718 6.862 5.718 11.437 0 4.289-2.001 8.006-5.432 10.293-2.287 1.144-8.292 2.573-13.724 2.573h-18.299c-15.44 0-20.3 1.43-26.304 7.434-6.576 6.576-9.435 15.44-9.435 29.164v30.021H800V.572h-38.599V0z" fill="#d9d9d9"/></svg>