<?xml version="1.0" encoding="UTF-8" standalone="no"?>
<!-- Created with Inkscape (http://www.inkscape.org/) -->

<svg
   xmlns:dc="http://purl.org/dc/elements/1.1/"
   xmlns:cc="http://creativecommons.org/ns#"
   xmlns:rdf="http://www.w3.org/1999/02/22-rdf-syntax-ns#"
   xmlns:svg="http://www.w3.org/2000/svg"
   xmlns="http://www.w3.org/2000/svg"
   xmlns:sodipodi="http://sodipodi.sourceforge.net/DTD/sodipodi-0.dtd"
   xmlns:inkscape="http://www.inkscape.org/namespaces/inkscape"
   width="200"
   height="269.54346"
   id="svg2"
   version="1.1"
   inkscape:version="0.48.1 "
   sodipodi:docname="New document 1">
  <defs
     id="defs4" />
  <sodipodi:namedview
     id="base"
     pagecolor="#ffffff"
     bordercolor="#666666"
     borderopacity="1.0"
     inkscape:pageopacity="0.0"
     inkscape:pageshadow="2"
     inkscape:zoom="3.005"
     inkscape:cx="143.85534"
     inkscape:cy="140.60054"
     inkscape:document-units="px"
     inkscape:current-layer="layer1"
     showgrid="false"
     inkscape:snap-global="true"
     showguides="true"
     fit-margin-top="0.5"
     fit-margin-left="0.5"
     fit-margin-right="0.5"
     fit-margin-bottom="0.5"
     inkscape:window-width="1374"
     inkscape:window-height="1007"
     inkscape:window-x="540"
     inkscape:window-y="-18"
     inkscape:window-maximized="0">
    <inkscape:grid
       type="xygrid"
       id="grid2996"
       empspacing="5"
       visible="true"
       enabled="true"
       snapvisiblegridlinesonly="true" />
  </sodipodi:namedview>
  <metadata
     id="metadata7">
    <rdf:RDF>
      <cc:Work
         rdf:about="">
        <dc:format>image/svg+xml</dc:format>
        <dc:type
           rdf:resource="http://purl.org/dc/dcmitype/StillImage" />
        <dc:title></dc:title>
      </cc:Work>
    </rdf:RDF>
  </metadata>
  <g
     inkscape:label="Layer 1"
     inkscape:groupmode="layer"
     id="layer1"
     transform="translate(455.58929,-1998.6586)">
    <g
       id="g3026"
       transform="matrix(0.08681494,0,0,0.08681494,-415.58074,2070.8316)">
      <path
         sodipodi:nodetypes="cccccccccccccccccccccccccccccccccccccccccc"
         inkscape:connector-curvature="0"
         id="path2998"
         d="m -455.08929,510.48718 c 0,-92.05042 49.78519,-167.36419 150.08929,-209.125 l 444,-178 c 0,-83.016822 80.80079,-184.197424 210,-243 L 130.7621,-550.8904 c 0,0 -3.31285,0.75258 -10.98531,0.75258 -55.220244,0 -106.741076,-43.44271 -106.741076,-106.16072 0,-52.91211 39.372742,-106.78571 106.160716,-106.78571 67.40886,0 106.69643,53.97715 106.69643,106.16071 0,38.96046 -18.46284,61.51906 -28.125,72.14286 l 221.63485,438.40746 c 60.50757,-18.42307 119.38925,-31.88294 212.0689,-31.88294 23.65597,0 51.26524,2.39911 51.26524,2.39911 L 807.11189,-632.6354 c -13.19743,-10.77234 -44.13104,-35.93886 -44.13104,-86.55745 0,-63.09318 49.98237,-106.3914 106.66201,-106.3914 64.71223,0 106.16071,51.88572 106.16071,106.25 0,61.29579 -47.52587,103.05901 -96.07142,105.89286 l -121.60715,446.875 c 20.23935,4.74163 38.31807,7.1262 62.41072,16.07143 l 289.37498,-116.51786 c 20.1662,-8.07827 36.1895,-12.67857 59.7322,-12.67857 29.3634,0 41.6252,6.06318 56.7857,15.89285 169.155,108.58156 430.0477,277.420906 521.6071,327.589292 49.1337,25.058356 89.1072,62.247168 89.1072,114.642858 0,17.1735 -1.9211,31.68261 -3.195,48.37258 -5.1869,76.11027 -19.1832,272.20485 -28.679,408.23672 -5.0064,61.93885 -31.0933,108.00858 -61.2405,127.65803 l -31.3148,18.68782 c 17.7682,20.04289 34.501,37.39345 54.8008,64.01842 14.9265,18.98493 24.1174,42.04292 24.1174,81.82236 0,22.18253 -3.0505,65.0453 -3.0505,65.0453 l -28.1379,388.00816 c -6.0663,64.0508 -23.55,109.3424 -53.2856,151.6491 -26.5892,32.7675 -48.2362,56.9136 -96.8484,77.7818 L 247.73991,2247.2464 c -21.29578,9.5369 -43.48009,20.4556 -76.01398,20.4556 -46.82259,0 -75.276356,-22.8208 -90.345291,-43.907 L -308.2228,1744.1904 c -26.24372,-36.4003 -32.51329,-64.0521 -38.89087,-131.3198 L -452.04326,556.37728 z"
         style="fill:#000000;fill-opacity:1;stroke:none" />
      <path
         sodipodi:nodetypes="ccccccccccccccc"
         inkscape:connector-curvature="0"
         id="path3004"
         d="m 250.56175,113.34487 c 0,-84.060056 92.64831,-141.103513 133.42798,-162.941995 l 14.96197,30.128898 c 5.3661,9.5323776 18.42607,20.36374348 33.40823,18.95866008 26.08778,0 37.30244,-23.36124708 37.30244,-37.30244508 0,-10.404954 -8.44655,-27.371089 -16.90907,-41.299135 41.00635,-12.887289 105.10477,-30.436333 191.02131,-30.436333 12.81066,0 21.2132,0.81983 21.2132,0.81983 -3.35281,11.097408 -8.4033,23.83731 -8.4033,33.715673 0,22.771821 20.3969,37.507403 38.63468,37.507403 18.73487,0 32.2532,-14.821442 36.27765,-31.05121 l 8.81322,-32.793356 c 102.96454,19.532488 227.70888,73.434337 227.70888,173.804795 0,115.070495 -179.49777,225.848555 -391.06242,225.848555 -179.69251,0 -326.39477,-81.44028 -326.39477,-184.95934 z"
         style="fill:#a7a7a7;fill-opacity:1;stroke:none" />
      <path
         sodipodi:nodetypes="ccccccc"
         inkscape:connector-curvature="0"
         id="path3006"
         d="m 590.38292,282.02571 c -153.21422,0 -264.57059,-53.13012 -317.48069,-117.85113 65.8904,37.14253 152.23488,58.41317 246.46258,58.41317 171.89376,0 347.19967,-80.98607 347.19967,-205.163449 0,-22.2981195 -5.69063,-51.433988 -34.43302,-88.337108 45.40724,27.019091 107.09081,73.0675756 107.09081,149.107299 0,110.454938 -152.04315,203.831218 -348.83935,203.831218 z"
         style="fill:#ffffff;fill-opacity:1;stroke:none" />
      <path
         sodipodi:nodetypes="ccccccccccccccccc"
         inkscape:connector-curvature="0"
         id="path3008"
         d="m -262.46377,434.82595 c 0,-27.59574 31.75008,-46.74675 54.92754,-55.7971 L 159.56522,231.05783 c 60.27006,119.96949 231.64166,181.62891 399.56153,181.62891 283.8497,0 494.25735,-153.13647 494.25735,-315.021191 0,-84.733706 -54.05679,-148.116667 -105.14366,-185.282473 l 169.15086,-68.571616 c 11.1159,-4.59885 21.2861,-9.13044 41.8841,-9.13044 31.1958,0 51.1171,11.13496 71.4492,25.7971 l 333.1087,234.932886 c 11.8766,7.890904 22.1355,19.461344 22.1355,32.588394 0,17.65898 -15.294,23.03768 -33.1008,31.15369 L 307.84765,738.57074 c -43.92458,21.05372 -74.65343,36.89253 -129.94368,36.89253 -48.3175,0 -76.19018,-11.85971 -97.150326,-30.53882 L -241.85102,468.74289 c -9.47375,-8.48981 -20.61275,-17.95728 -20.61275,-33.91694 z"
         style="fill:#f9c929;fill-opacity:1;stroke:none" />
      <path
         sodipodi:nodetypes="cccccccccccc"
         inkscape:connector-curvature="0"
         id="path3010"
         d="m -341.97324,569.47999 c -1.42331,-23.61189 7.67367,-53.80161 33.20328,-53.80161 19.09882,0 34.13714,13.89208 46.4231,23.77519 L 42.221448,789.40044 c 67.396192,59.15206 89.807542,143.48409 89.807542,183.83131 0,9.87103 -2.55495,61.52445 -4.63769,91.88405 L 77.101449,2028.739 c -0.670634,16.7111 -3.504905,27.2464 -13.913043,27.2464 -21.275715,0 -51.014493,-34.1546 -62.60869586,-47.1015 L -214.2029,1763.9564 c -43.72727,-56.8499 -54.6941,-86.1493 -58.4058,-135.3623 z"
         style="fill:#d2a808;fill-opacity:1;stroke:none" />
      <path
         id="path3012"
         d="m 1693.9688,181.28125 c -23.7164,0 -56.5803,10.58341 -81.9688,23.375 L 297.40625,805.59375 C 279.89723,812.36327 267.85014,819.87052 254.75,834.5 213.72544,877.9916 189.52976,945.52508 186.71875,1030.8438 L 143.875,2044.0625 c 0,63.7454 27.56359,101.9687 75.21875,101.9687 34.39264,0 60.41852,-14.0002 79.46875,-23.2187 L 1534.7188,1545.5 c 67.1224,-35.6379 132.5252,-106.9308 142.6562,-220.5312 l 15.7812,-184.4688 4.6563,-88 c 0,-39.8098 -17.9553,-76.21875 -55.3437,-76.21875 -17.9615,0 -33.1071,5.59539 -55.4688,16.65625 -66.3518,34.234 -131.9486,68.3491 -204.2812,103.4375 -28.0109,14.1379 -43.125,39.5033 -43.125,83.6875 l 0,34.2187 c -3.2158,89.128 -25.2495,116.649 -80.9376,140 l -635.18745,298.8126 c -19.32337,8.6777 -29.6275,15.375 -48.96875,15.375 -44.47814,0 -64.65319,-39.5973 -65.78125,-100.8438 l 2.03125,-34.8438 c 18.76281,-157.1496 34.79121,-304.6487 50.03125,-449.4687 6.60898,-48.9258 16.52662,-73.0852 59.625,-93.65625 L 1233.8438,676.25 c 19.2077,-9.96964 34.6537,-16.37097 61.0937,-17.3125 32.3479,0 48.1563,15.74456 48.1563,46.03125 l 2.25,70.6875 c 3.5543,35.85551 0.4218,73.53125 39.2812,73.53125 25.7156,0 60.2979,-15.74298 89.875,-31.90625 l 171.4375,-91 c 32.7906,-19.91558 68.7397,-47.52783 71.75,-130.4375 l 20.875,-313.09375 3.4687,-54.125 c 0,-30.07201 -18.6376,-47.34375 -48.0624,-47.34375 z m -443.2813,1263.59375 -94.5937,235.2812 -50.8438,26.375 -83.7812,-148.5 64.125,-31.75 49.0624,102.5938 58.125,-156.25 57.9063,-27.75 z m -299.5625,76.8125 -3.28125,73.0625 48.34375,-24.3438 17.0625,30.2188 -67.65625,33.7812 -2.9375,69.4063 c -0.40225,11.857 0.11235,33.7961 18.34375,33.5313 15.61877,0 33.61487,-12.9065 67.5312,-35.6563 l 16.8438,30.25 c -50.19431,42.0055 -103.41502,66.4687 -131.5625,66.4687 -24.11794,0 -37.22408,-15.3926 -35.875,-48.9374 L 883.25,1665 l -53.0625,26.8125 2.6875,-40.5937 52.71875,-26 3.1875,-55.1876 62.34375,-48.3437 z m -147.3125,76.125 c 9.34225,0 14.84375,5.5844 14.84375,14.7187 0,26.1129 -36.7232,53.875 -56.25,53.875 -9.72379,0 -15.53125,-5.6109 -15.53125,-14.4687 0,-22.2798 31.50311,-54.125 56.9375,-54.125 z m 8.59375,63.7813 -15.0625,198.9374 -66.46875,33.25 17.53125,-200.9062 64,-31.2812 z"
         style="fill:#f9c929;fill-opacity:1;stroke:none"
         inkscape:connector-curvature="0" />
      <path
         sodipodi:nodetypes="ccccccccccccccccccc"
         inkscape:connector-curvature="0"
         id="path3014"
         d="m 1134.8586,801.94621 95.9234,102.49584 c 25.7083,21.37211 51.4311,33.11148 90.8486,33.11148 34.0011,0 57.5385,-8.48543 94.8419,-26.95507 l 209.3178,-98.00333 21.7971,26.78868 c 0,0 10.1497,11.38646 10.1497,26.95508 0,21.49195 -21.6847,37.99487 -39.7671,47.08818 l -266.5842,137.05263 c -37.2645,19.3685 -64.475,49.1147 -64.475,100.2421 l 0,87.3 c 0,30.1807 -18.291,40.4723 -33.6493,47.2974 l -623.26261,302.0121 c 0,0 -21.53867,12.0092 -31.84659,12.0092 -14.52054,0 -23.64866,-12.4205 -23.64866,-36.1201 0.49672,-19.2647 4.23558,-40.7087 4.23558,-40.7087 l 41.30283,-368.4956 c 7.27447,-83.1028 28.75552,-124.0337 82.12322,-146.8335 z"
         style="fill:#a57f00;fill-opacity:1;stroke:none" />
    </g>
  </g>
</svg>
