<?xml version="1.0" encoding="UTF-8"?>
<svg width="450" height="450" version="1.1" xmlns="http://www.w3.org/2000/svg">
	<path d="M0 225C0 100.794 100.794 0 225 0s225 100.794 225 225-100.794 225-225 225h-3.77c17.857-26.984 24.405-62.897 22.421-95.833-2.778-46.627-36.905-81.746-63.69-97.817 12.698-19.444 31.548-36.508 54.563-36.508 6.944 0 13.492-.198 18.849 3.571 7.54 5.159 15.873 13.294 28.175 13.294 6.548 0 6.746-2.381 13.294-1.389 8.532 1.389 12.5 3.373 23.413 6.548 7.738 2.183 12.5 1.587 21.032 5.159 1.786.794 12.103 2.976 13.889 3.571 4.96 1.587 6.746 11.905 13.294 12.103 4.563.198 6.944-1.786 11.905-3.968 6.151 2.381 8.73 1.389 8.929-3.77 0-2.381 3.571 1.786 6.349 1.389 3.373-.595 7.738-4.96 9.524-6.746 1.984-4.563-.595-7.341-.595-14.683 7.738-14.683 2.976-19.444-7.54-27.579-10.913-8.333-15.873-15.675-26.19-22.817-6.746-4.563-22.024-19.444-28.77-24.206-26.19-17.857-17.063-18.452-30.159-27.579-8.929-8.73-17.857-19.841-17.063-24.603 1.786-11.111 12.5-27.778 7.738-38.889-4.762 5.556-7.341 17.063-14.683 17.063 0-6.746 3.373-14.286-.794-19.444-5.159 1.587-12.698 17.857-17.46 27.778-5.159 5.754-5.952 8.73-23.611 9.325-69.841 1.19-192.262 60.714-241.865 150C.595 244.841 0 234.921 0 225" fill="#c81919"/>
</svg>
