<svg xmlns="http://www.w3.org/2000/svg" xmlns:xlink="http://www.w3.org/1999/xlink" width="150" height="129.529" viewBox="0 0 39.686 34.271"><defs><linearGradient id="b"><stop offset="0" stop-color="#e50811"/><stop offset="1" stop-color="#ffe800"/></linearGradient><linearGradient id="a"><stop offset="0" stop-color="#51c1ef" stop-opacity=".961"/><stop offset="1" stop-color="#073190"/></linearGradient><linearGradient xlink:href="#a" id="c" x1="251.051" y1="214.944" x2="251.051" y2="221.232" gradientUnits="userSpaceOnUse" gradientTransform="matrix(4.74781 0 0 4.74781 -1153.823 -1016.103)"/><linearGradient xlink:href="#b" id="h" x1="247.271" y1="217.037" x2="243.324" y2="217.037" gradientUnits="userSpaceOnUse" spreadMethod="reflect" gradientTransform="matrix(4.74781 0 0 4.74781 -1153.823 -1016.103)"/><linearGradient xlink:href="#b" id="d" x1="246.642" y1="217.07" x2="248.196" y2="213.215" gradientUnits="userSpaceOnUse"/><linearGradient xlink:href="#b" id="e" gradientUnits="userSpaceOnUse" x1="246.642" y1="217.07" x2="248.196" y2="213.215"/><linearGradient xlink:href="#b" id="f" gradientUnits="userSpaceOnUse" x1="246.642" y1="217.07" x2="248.196" y2="213.215"/><linearGradient xlink:href="#b" id="g" gradientUnits="userSpaceOnUse" x1="246.642" y1="217.07" x2="248.196" y2="213.215"/></defs><path d="M10.008 24.257A14.927 14.927 0 0 1 19.105 5.28a14.927 14.927 0 0 1 19.034 8.982A14.927 14.927 0 0 1 29.27 33.35a14.927 14.927 0 0 1-19.138-8.755" fill="url(#c)" stroke-width=".237"/><g transform="matrix(4.74781 0 0 4.74781 -1153.823 -1016.103)" fill="url(#d)" stroke-width=".265"><path d="M249.318 214.015c-1.155.114-3.442 1.467-3.514 2.352z" fill="url(#e)"/><path d="M251.096 214.069c-.542-.026-4.185 1.419-4.454 3z" fill="url(#f)"/><path d="M251.381 215.055c-1.053.135-3.424 1.434-3.489 2.335z" fill="url(#g)"/></g><path d="M4.828 5.555c-1.48.057-3.1.665-4.828 1.932 5.28 3.438.845 7.535 1.291 12.886.708 8.413 10.707 6.452 15.307 0-5.118 2.288-10.886 6.694-12.933.01C2.402 16.237 7.18 10.92 2.402 8.18c0 0 4.359-3.465 8.58 1.145-1.596-2.426-3.685-3.86-6.154-3.77z" fill="url(#h)" stroke-width="1.258"/><path d="M17.102 26.502l2.853-6.253h5.398l-.869 1.833h-3.432l-1.235 2.554h3.561l-.854 1.866zm13.189 0l2.853-6.253h5.399l-.87 1.833h-3.432l-1.234 2.554h3.56l-.854 1.866zm-7.013 0h1.876l1.647-3.59.807 3.59h1.828l2.954-6.253h-1.938l-1.638 3.447-.773-3.447h-1.9z" fill="#fff"/></svg>