<?xml version="1.0" encoding="UTF-8"?>
<svg width="450" height="450" version="1.1" xmlns="http://www.w3.org/2000/svg">
	<path d="m0 0v450h450v-450zm162.16 253.86v-80.189a30.243 30.243 0 0 1 56.27-15.486l37.297 64.297v-48.649a30.243 30.243 0 0 1 56.27-15.486l37.297 64.297v-78.73h19.459v131.84a4.2162 4.2162 0 0 1-8.1081 2.1892l-31.784-54.892-31.784-54.811a11.919 11.919 0 0 0-22.216 6.0811v101.43a4.2162 4.2162 0 0 1-8.1081 2.1892l-31.784-54.892-31.541-54.811a11.919 11.919 0 0 0-22.216 6.0811v99.324a5.4324 5.4324 0 0 1-5.027 5.1081h-50.676a53.757 53.757 0 1 1 0-107.43h25.946v19.459h-25.784a34.297 34.297 0 0 0 0 68.514h30.811a5.2703 5.2703 0 0 0 5.3514-5.4324zm233.11 22.459a30.243 30.243 0 0 1-56.189 15.486l-37.054-64.297v48.649a30.243 30.243 0 0 1-56.189 15.486l-37.054-64.135v46.135a29.27 29.27 0 0 1-32.432 32.432h-50.838a81.081 81.081 0 1 1 0-161.76h25.946v19.459h-25.946a61.459 61.459 0 1 0 0 122.92h50.838a13.216 13.216 0 0 0 12.649-13.054v-99.405a4.2162 4.2162 0 0 1 8.1081-2.1892l31.784 54.892 31.541 54.811a11.919 11.919 0 0 0 22.216-6.0811v-101.43a4.1992 4.1992 0 0 1 8.1081-2.1892l31.541 54.892 31.703 54.811a11.919 11.919 0 0 0 22.216-6.0811v-131.76h19.054z" fill="#cc0001"/>
</svg>
