<?xml version="1.0" encoding="UTF-8"?>
<svg width="800" height="244.39" version="1.1" xmlns="http://www.w3.org/2000/svg">
	<g>
		<path d="m612.86 132.3-27.149 94.083h19.564l2.8465-11.993h25.251l2.5365 11.993h19.887l-27.471-94.083zm7.8876 25.567c0 1.2656 0.26482 3.1627 0.78824 5.6859 0.52874 2.5312 0.9999 4.8481 1.4259 6.9462l6.3192 27.471h-17.357l6.6158-27.471c0.426-2.0981 0.89806-4.4212 1.4268-6.9453 0.52253-2.5241 0.78114-4.4221 0.78114-5.6868zm-98.503-25.886v94.402h18.945v-29.995h8.21l12.62 29.995h18.634l-13.264-33.784c3.9952-2.7367 7.2615-6.4679 9.798-11.205 2.517-4.7383 3.7818-10.16 3.7818-16.26v-2.2141c0-8.8362-2.6844-16.208-8.055-22.102-5.3644-5.8994-12.251-8.8362-20.675-8.8362zm18.938 17.679h9.1595c3.3628 0 6.2093 1.1106 8.52 3.3177 2.3116 2.2203 3.4665 5.6283 3.4665 10.263v0.63944c0 5.2537-1.1558 9.0496-3.4665 11.367-2.3107 2.3045-5.1572 3.4656-8.52 3.4656h-9.1595zm31.58-131.34v94.402h30.305c4.841 0 9.3144-0.94234 13.419-2.8341 4.105-1.9042 7.5192-4.5239 10.269-7.8939 2.7367-3.3761 4.8924-7.6432 6.468-12.793 1.5747-5.151 2.3691-10.677 2.3691-16.576v-17.053c0-5.267-0.79443-10.212-2.3691-14.839-1.5756-4.6346-3.7313-8.6369-6.468-12-2.75-3.3628-6.1642-5.9516-10.269-7.7265-4.105-1.7881-8.5785-2.6853-13.419-2.6853zm18.938 17.673h9.1594c2.7367 0 5.0544 0.41272 6.9453 1.2647 1.8909 0.8396 3.4665 2.099 4.7312 3.7897 1.472 1.8909 2.5303 4.105 3.1565 6.6221 0.63236 2.5303 0.94234 5.3768 0.94234 8.5271v15.156c0 4.0023-0.31618 7.5263-0.94234 10.579-0.62615 3.0529-1.6916 5.6283-3.1565 7.7398a14.875 14.875 0 0 1-4.7312 4.0988c-1.8909 1.0584-4.2086 1.5747-6.9453 1.5747h-9.1594zm-232.7-18.939c-4.415 0-8.2561 0.58099-11.515 1.7359-3.2592 1.162-6.2616 2.6853-9.0107 4.5833-3.9952 3.5763-7.1455 8.3137-9.4694 14.207-2.3116 5.8932-3.4665 13.258-3.4665 22.108v11.36c0 9.0496 1.1558 16.627 3.4665 22.728 2.3169 6.0995 5.4734 10.741 9.4694 13.891a32.403 32.403 0 0 0 9.0107 4.8924c3.2592 1.1691 7.1065 1.743 11.515 1.743 4.0085 0 7.6432-0.57391 10.902-1.743a32.197 32.197 0 0 0 8.9912-4.8924c4.2157-3.1503 7.3775-7.7911 9.4818-13.891 2.0981-6.0995 3.1503-13.574 3.1503-22.418v-11.676c0-8.8495-1.0522-16.215-3.1503-22.114-2.1043-5.887-5.2608-10.624-9.4818-14.201-2.7367-1.898-5.739-3.4213-8.9912-4.5833-3.2663-1.1549-6.894-1.7297-10.902-1.7297zm0 17.679c1.9042 0 3.5887 0.31618 5.0606 0.94234 1.472 0.63236 2.7305 1.5818 3.7888 2.8341 1.479 1.6916 2.6339 4.2724 3.4665 7.7389 0.8458 3.4727 1.2647 8.1525 1.2647 14.047v10.74c0 5.9002-0.41892 10.528-1.2647 13.891-0.83252 3.3628-1.9945 5.9002-3.4665 7.5777-1.0584 1.479-2.3691 2.5826-3.9438 3.3177a11.403 11.403 0 0 1-4.9056 1.1044c-2.0981 0-3.9952-0.36135-5.6735-1.1044a9.6785 9.6785 0 0 1-4.1121-3.3177c-1.4782-1.6783-2.6207-4.2086-3.4665-7.5777-0.852-3.3628-1.2709-7.9913-1.2709-13.891v-10.741c0-5.8932 0.41892-10.573 1.2709-14.046 0.8458-3.4665 1.9945-6.0543 3.4665-7.7389 1.0584-1.2523 2.4205-2.2079 4.1121-2.8341 1.6712-0.62616 3.5692-0.94234 5.6735-0.94234zm303.11 97.254v94.402h46.416v-17.369h-27.471v-77.032zm-186.29 17.678v76.728h18.635v-76.728h17.673v-17.673h-53.988v17.673zm-86.502-17.678v94.402h17.047v-54.62l25.58 54.62h16.731v-94.402h-17.357v55.26l-25.58-55.26zm-61.89 0v94.402h47.998v-17.369h-29.053v-21.772h24.625v-17.687h-24.625v-19.894h29.053v-17.673h-47.998zm-49.26 20.53c1.0522-1.4782 2.3691-2.4719 3.9438-3.0077 1.5747-0.52254 3.3177-0.78823 5.2094-0.78823 2.5365 0 5.0022 0.63324 7.4227 1.8918 2.4205 1.2647 4.3636 3.795 5.8356 7.5777l16.737-6.9391c-2.7438-7.1579-6.7912-12.426-12.155-15.789-5.3706-3.3628-11.315-5.0412-17.848-5.0412-3.9961 0-7.7265 0.63324-11.205 1.8918-3.4727 1.2576-6.468 2.943-9.0045 5.0474-3.9961 3.3628-7.1003 7.9975-9.3012 13.891-2.2203 5.8932-3.3248 13.258-3.3248 22.108v11.676c0 9.0496 1.1044 16.531 3.3248 22.418 2.207 5.8994 5.3051 10.528 9.3012 13.891 2.5365 2.1167 5.5247 3.6923 9.0045 4.7383 3.4788 1.0522 7.2092 1.5747 11.205 1.5747 6.9453 0 13.007-1.627 18.151-4.8932 5.1572-3.2592 9.101-8.1587 11.845-14.672l-16.737-7.5839c-1.479 3.7888-3.3628 6.313-5.6806 7.5839-2.3116 1.2594-4.841 1.8918-7.5848 1.8918-1.8909 0-3.6276-0.26481-5.2085-0.79443-1.5747-0.51634-2.8917-1.5233-3.9438-3.0015-1.479-1.4649-2.6277-3.9367-3.4665-7.4227-0.852-3.4665-1.2718-8.1463-1.2718-14.046v-10.418c0-6.313 0.4198-11.154 1.2718-14.517 0.852-3.3823 2.0078-5.7966 3.4789-7.2686z" fill="#fff"/>
		<path d="m135.14 138.61c-2.7367 5.0412-6.6805 9.101-11.838 12.155-5.1705 3.0529-10.793 4.5762-16.905 4.5762-9.0364 0-16.782-3.2078-23.199-9.6306-6.4228-6.4157-9.6306-14.155-9.6306-23.204s3.2078-16.835 9.6306-23.367c6.4157-6.5255 14.155-9.7856 23.199-9.7856 6.1128 0 11.735 1.627 16.905 4.8933 5.1572 3.2663 9.101 7.3129 11.838 12.155l25.567-14.523c-5.2608-9.4694-12.736-17.106-22.412-22.895-9.6891-5.7833-20.313-8.6821-31.9-8.6821-8.4173 0-16.415 1.6332-23.992 4.8994-7.5777 3.2592-14.149 7.6742-19.732 13.258-5.5708 5.577-9.9982 12.16-13.264 19.739-3.2592 7.5777-4.8924 15.685-4.8924 24.316s1.6323 16.737 4.8924 24.316c3.2663 7.5777 7.6875 14.149 13.264 19.732 5.577 5.5832 12.155 9.9982 19.732 13.264 7.5777 3.2592 15.575 4.8924 23.992 4.8924 11.38 0 21.947-2.9492 31.738-8.8362 9.7918-5.8932 17.312-13.471 22.573-22.728z" fill="#fdc600"/>
		<path d="m439.2 112.71h15.465l13.891-51.465 6.003 51.465h17.363l-10.728-94.402h-17.679l-16.421 59.352-16.415-59.352h-18.003l-11.057 94.402h17.687l5.6859-51.465zm67.567-94.402v94.402h49.889v-17.369h-31.267v-21.772h27.471v-18.009h-27.471v-19.577h31.267v-17.673zm155.34 48.933v45.468h18.951v-45.468l26.523-48.934h-20.526l-15.782 29.679-15.156-29.679h-20.526zm-383.94-28.737a9.8148 9.8148 0 0 1 3.9438-2.8341c1.5747-0.62527 3.3177-0.94234 5.2094-0.94234 2.5365 0 5.0022 0.67841 7.4227 2.053 2.4205 1.3621 4.3636 4.0474 5.8356 8.0426l16.737-7.5715c-2.7438-7.1588-6.7912-12.316-12.155-15.472-5.3706-3.1503-11.315-4.7312-17.848-4.7312-3.9961 0-7.7265 0.58099-11.205 1.7359-3.4727 1.162-6.468 2.6853-9.0045 4.5833-3.9961 3.5763-7.1003 8.3137-9.3012 14.207-2.2203 5.8932-3.3248 13.258-3.3248 22.108v11.36c0 9.0496 1.1044 16.627 3.3248 22.728 2.2071 6.0995 5.3051 10.741 9.3012 13.891 2.5365 2.1105 5.5247 3.7437 9.0045 4.9056 3.4789 1.1558 7.2092 1.7297 11.205 1.7297 6.9453 0 13.007-1.6261 18.151-4.8924 5.1572-3.2663 9.101-8.2561 11.845-15.001l-16.725-7.2748c-1.479 3.5825-3.3628 6.1128-5.6806 7.5848-2.3178 1.472-4.841 2.2071-7.5848 2.2071-1.8909 0-3.6276-0.36135-5.2086-1.1035-1.5747-0.72978-2.8917-1.8395-3.9438-3.3177-1.479-1.6783-2.6278-4.2086-3.4665-7.5786-0.852-3.3628-1.2718-7.9904-1.2718-13.891v-10.733c0-5.8932 0.4198-10.573 1.2718-14.052 0.83871-3.4656 1.9945-6.0481 3.4665-7.7389z" fill="#fff"/>
	</g>
	<g fill="#fdc600">
		<path d="m228.6 121.87c0 16.841-3.2149 32.739-9.6306 47.682-6.4157 14.943-15.104 27.942-26.045 38.994-10.948 11.057-23.889 19.784-38.832 26.213-14.949 6.4157-30.847 9.6306-47.694 9.6306-22.728 0-43.512-5.7895-62.354-17.363-18.841-11.58-33.513-26.736-44.041-45.468l25.574-13.891c7.7911 13.891 18.951 25.148 33.474 33.784 14.523 8.6236 30.305 12.942 47.352 12.942 12.632 0 24.632-2.4267 36.005-7.2686 11.36-4.841 21.204-11.412 29.511-19.732 8.3198-8.3136 14.949-18.105 19.894-29.363 4.9508-11.257 7.4165-23.308 7.4165-36.159v0.63855c0-12.838-2.4719-24.89-7.4165-36.153s-11.574-21.056-19.894-29.363c-8.3075-8.3199-18.151-14.898-29.511-19.739-11.374-4.8348-23.372-7.2677-36.005-7.2677-17.047 0-32.83 4.3247-47.352 12.948-14.523 8.636-25.684 19.894-33.474 33.784l-25.574-13.891c10.528-18.732 25.2-33.894 44.041-45.474 18.848-11.574 39.626-17.357 62.36-17.357 16.841 0 32.739 3.214 47.694 9.6306 14.937 6.4157 27.879 15.156 38.832 26.207 10.941 11.05 19.629 24.051 26.045 38.994 6.4157 14.943 9.6306 30.841 9.6306 47.682v-0.63944z"/>
		<path d="m752.9 168.19v12.603h-15.887v20.375h-12.603v-20.375h-15.886v-12.603h15.886v-20.375h12.603v20.375z"/>
		<path d="m766.71 154.3-1e-5 -18.713 19.842-13.347h13.453v104.14l-18.293 2e-3v-82.092z"/>
	</g>
</svg>
