<svg width="799.98" height="299.46" viewBox="0 0 225.78 84.513" xmlns="http://www.w3.org/2000/svg"><g fill-rule="evenodd"><path d="M43.06 44.169c-.873 1.61-2.13 2.9-3.773 3.873-1.645.973-3.439 1.458-5.384 1.458-2.883 0-5.35-1.022-7.395-3.067-2.046-2.046-3.068-4.512-3.068-7.395 0-2.885 1.022-5.367 3.068-7.446 2.046-2.079 4.512-3.118 7.395-3.118 1.945 0 3.74.518 5.384 1.558 1.643 1.04 2.9 2.33 3.773 3.873l8.15-4.628c-1.679-3.018-4.059-5.449-7.144-7.294-3.087-1.843-6.473-2.767-10.164-2.767-2.682 0-5.231.52-7.646 1.56s-4.51 2.449-6.289 4.225c-1.776 1.779-3.185 3.873-4.225 6.289-1.04 2.415-1.56 4.997-1.56 7.748 0 2.75.52 5.331 1.56 7.747 1.04 2.415 2.449 4.51 4.225 6.288 1.779 1.778 3.874 3.185 6.289 4.225a19.138 19.138 0 0 0 7.646 1.56c3.624 0 6.994-.939 10.112-2.818 3.119-1.876 5.516-4.292 7.194-7.243z" fill="#f8ba0f" fill-opacity=".941"/><path d="M88.63 12.273c.336-.4.755-.704 1.258-.904a4.411 4.411 0 0 1 1.66-.303c.806 0 1.594.219 2.364.655.772.436 1.391 1.29 1.861 2.564l5.334-2.413c-.873-2.281-2.164-3.924-3.874-4.93-1.711-1.007-3.606-1.51-5.685-1.51-1.275 0-2.464.185-3.572.553-1.107.369-2.062.856-2.867 1.46-1.274 1.14-2.264 2.649-2.968 4.527-.705 1.879-1.057 4.225-1.057 7.043v3.622c0 2.885.352 5.3 1.057 7.243.704 1.946 1.694 3.422 2.968 4.428.805.672 1.76 1.19 2.867 1.56 1.108.37 2.297.552 3.572.552 2.213 0 4.143-.519 5.785-1.558 1.643-1.04 2.901-2.633 3.774-4.78l-5.334-2.314c-.47 1.14-1.073 1.945-1.81 2.415a4.411 4.411 0 0 1-2.415.703 3.864 3.864 0 0 1-1.66-.351 3.173 3.173 0 0 1-1.258-1.056c-.47-.536-.837-1.342-1.106-2.415-.27-1.073-.403-2.548-.403-4.427v-3.421c0-1.879.133-3.37.403-4.477.269-1.106.636-1.93 1.106-2.466zm122.35 9.158v14.487h6.037V21.431l8.452-15.595h-6.54l-5.03 9.456-4.83-9.456h-6.539zm-49.5-15.596v30.082h15.898v-5.534h-9.961v-6.94h8.752v-5.737h-8.752V11.47h9.961V5.835zm-21.53 30.082h4.93l4.428-16.399 1.912 16.399h5.534l-3.421-30.082h-5.634l-5.234 18.914-5.23-18.914h-5.737l-3.521 30.082h5.636l1.81-16.399zM88.63 48.596c.336-.47.755-.788 1.258-.957a5.246 5.246 0 0 1 1.66-.252c.806 0 1.594.203 2.364.604.772.403 1.391 1.208 1.861 2.415l5.334-2.213c-.873-2.281-2.164-3.958-3.874-5.03-1.711-1.074-3.606-1.61-5.685-1.61-1.275 0-2.464.2-3.572.603-1.107.403-2.062.94-2.867 1.61-1.274 1.073-2.264 2.549-2.968 4.427-.705 1.879-1.057 4.225-1.057 7.043v3.722c0 2.885.352 5.267 1.057 7.143.704 1.879 1.694 3.355 2.968 4.428.805.672 1.76 1.175 2.867 1.509 1.108.336 2.297.503 3.572.503 2.213 0 4.143-.519 5.785-1.558 1.643-1.04 2.901-2.6 3.774-4.68l-5.334-2.414c-.47 1.206-1.073 2.012-1.81 2.415a4.96 4.96 0 0 1-2.415.603 5.247 5.247 0 0 1-1.66-.252c-.503-.167-.922-.485-1.258-.955-.47-.47-.837-1.257-1.106-2.366-.27-1.106-.403-2.597-.403-4.476v-3.321c0-2.012.133-3.555.403-4.628.269-1.073.636-1.843 1.106-2.313zm15.7-6.54v30.082h15.294v-5.534h-9.258v-6.94h7.849v-5.636h-7.849V47.69h9.258v-5.634zm19.72 0v30.082h5.432V54.733l8.15 17.405h5.332V42.056h-5.534v17.607l-8.149-17.607zm27.57 5.634v24.448h5.937V47.69h5.634v-5.634h-17.205v5.634zm59.36-5.634v30.082h14.791v-5.534h-8.755V42.056zM114.39 5.433c-1.407 0-2.631.184-3.67.552a12.21 12.21 0 0 0-2.87 1.46c-1.273 1.14-2.28 2.65-3.018 4.528-.737 1.878-1.107 4.225-1.107 7.043v3.621c0 2.885.37 5.3 1.107 7.244.739 1.945 1.745 3.421 3.018 4.427.873.672 1.83 1.191 2.87 1.56 1.039.37 2.263.553 3.67.553 1.275 0 2.433-.183 3.472-.553 1.04-.369 1.995-.888 2.868-1.56 1.342-1.006 2.348-2.482 3.018-4.427.67-1.944 1.006-4.326 1.006-7.144v-3.721c0-2.818-.336-5.165-1.006-7.043-.67-1.879-1.676-3.388-3.018-4.528a12.196 12.196 0 0 0-2.868-1.46c-1.04-.368-2.197-.552-3.472-.552zm0 5.634c.605 0 1.142.1 1.612.302.47.2.87.503 1.206.904.47.537.84 1.36 1.106 2.467.27 1.106.403 2.597.403 4.476v3.421c0 1.88-.133 3.355-.403 4.428-.267 1.073-.636 1.879-1.106 2.415-.336.47-.754.822-1.257 1.055a3.638 3.638 0 0 1-1.561.352c-.67 0-1.273-.116-1.81-.352a3.104 3.104 0 0 1-1.309-1.055c-.47-.537-.837-1.342-1.106-2.415-.27-1.073-.403-2.549-.403-4.428v-3.42c0-1.88.134-3.37.403-4.477s.637-1.93 1.106-2.467c.336-.4.773-.703 1.31-.904.536-.202 1.139-.302 1.809-.302zm68.12-5.232v30.082h9.659c1.542 0 2.967-.3 4.276-.904 1.308-.605 2.397-1.442 3.27-2.515.872-1.075 1.56-2.433 2.063-4.076.503-1.642.755-3.403.755-5.282v-5.434c0-1.676-.252-3.252-.755-4.727-.503-1.476-1.19-2.752-2.063-3.825a8.536 8.536 0 0 0-3.27-2.464c-1.31-.57-2.734-.855-4.276-.855zm6.037 5.634h2.918c.87 0 1.61.134 2.213.403.603.267 1.106.67 1.509 1.207.47.603.806 1.309 1.006 2.112.2.806.303 1.712.303 2.718v4.828c0 1.275-.102 2.398-.303 3.37-.2.973-.536 1.795-1.006 2.467a4.727 4.727 0 0 1-1.51 1.307c-.602.336-1.341.502-2.212.502h-2.918zM166.41 42.056v30.082h6.037V62.58h2.615l4.025 9.558h5.937l-4.227-10.765c1.275-.873 2.315-2.063 3.12-3.572.804-1.51 1.207-3.237 1.207-5.18v-.706c0-2.816-.855-5.165-2.567-7.043-1.71-1.879-3.906-2.816-6.588-2.816zm6.037 5.634h2.918c1.073 0 1.979.352 2.716 1.056.737.705 1.106 1.793 1.106 3.27v.202c0 1.676-.37 2.885-1.106 3.621-.737.737-1.643 1.107-2.716 1.107h-2.918zm22.833-5.534l-8.652 29.982h6.237l.906-3.822h8.05l.805 3.822h6.337l-8.753-29.982zm2.516 8.15c0 .402.084 1.006.25 1.812.17.803.32 1.542.455 2.212l2.012 8.753h-5.534l2.113-8.753c.134-.67.285-1.409.452-2.212.169-.806.251-1.41.251-1.812z" fill="#fff"/><path d="M72.84 38.836c0 5.367-1.024 10.431-3.07 15.194-2.045 4.761-4.812 8.904-8.3 12.425-3.488 3.522-7.613 6.304-12.374 8.35-4.764 2.045-9.828 3.07-15.194 3.07-7.244 0-13.868-1.846-19.871-5.534C8.027 68.651 3.35 63.82-.004 57.85l8.15-4.427c2.481 4.428 6.036 8.016 10.664 10.767 4.63 2.75 9.66 4.125 15.092 4.125 4.025 0 7.849-.772 11.47-2.315 3.622-1.543 6.758-3.637 9.407-6.288 2.651-2.65 4.764-5.768 6.34-9.356 1.576-3.589 2.364-7.428 2.364-11.521v.202c0-4.093-.788-7.933-2.364-11.52-1.576-3.59-3.689-6.708-6.34-9.357-2.649-2.65-5.785-4.745-9.407-6.288-3.622-1.543-7.446-2.315-11.47-2.315-5.431 0-10.462 1.376-15.092 4.125-4.628 2.75-8.183 6.34-10.665 10.767l-8.15-4.428c3.355-5.97 8.032-10.8 14.036-14.489C20.034 1.845 26.659 0 33.9 0c5.368 0 10.432 1.023 15.195 3.069 4.761 2.046 8.886 4.828 12.374 8.35 3.488 3.521 6.255 7.664 8.3 12.425 2.046 4.763 3.07 9.827 3.07 15.194z" fill="#f8ba0f" fill-opacity=".941"/></g><g fill="#f6b90e" stroke-width=".183" style="font-feature-settings:normal;font-variant-caps:normal;font-variant-ligatures:normal;font-variant-numeric:normal" aria-label="HD"><path d="M57.083 84.512V74.475h1.11v4.122h4.357v-4.122h1.11v10.037h-1.11v-4.73h-4.358v4.73zM65.512 84.512V74.475H68.4q.978 0 1.493.144.72.198 1.229.719.663.67.99 1.718.33 1.041.33 2.383 0 1.143-.222 2.027t-.572 1.465q-.349.575-.766.91-.412.33-1 .5-.584.172-1.345.172zm1.11-1.184h1.79q.828 0 1.297-.185.475-.185.755-.52.395-.473.612-1.267.223-.801.223-1.937 0-1.575-.434-2.417-.43-.85-1.047-1.137-.446-.205-1.435-.205H66.62z"/></g></svg>