<?xml version="1.0" encoding="UTF-8"?>
<svg width="800" height="244.39" enable-background="new 0 0 1000 339.0289917" version="1.1" viewBox="0 0 800 244.39" xml:space="preserve" xmlns="http://www.w3.org/2000/svg" xmlns:cc="http://creativecommons.org/ns#" xmlns:dc="http://purl.org/dc/elements/1.1/" xmlns:rdf="http://www.w3.org/1999/02/22-rdf-syntax-ns#"><metadata><rdf:RDF><cc:Work rdf:about=""><dc:format>image/svg+xml</dc:format><dc:type rdf:resource="http://purl.org/dc/dcmitype/StillImage"/><dc:title/></cc:Work></rdf:RDF></metadata><g clip-rule="evenodd" fill-rule="evenodd">
<path d="m135.15 138.61c-2.7381 5.051-6.6849 9.1023-11.841 12.155-5.1619 3.0524-10.793 4.5758-16.898 4.5758-9.0471 0-16.787-3.2073-23.207-9.6268-6.4202-6.4202-9.6268-14.16-9.6268-23.207 0-9.0534 3.2069-16.842 9.6268-23.367 6.4199-6.5247 14.16-9.7873 23.207-9.7873 6.1052 0 11.736 1.6283 16.898 4.8905 5.1559 3.2622 9.1027 7.3143 11.841 12.155l25.575-14.524c-5.2668-9.4726-12.736-17.101-22.418-22.892-9.6888-5.7845-20.314-8.6831-31.898-8.6831-8.4184 0-16.417 1.6343-23.997 4.8965-7.5793 3.2625-14.153 7.6842-19.735 13.26-5.5751 5.5811-9.9967 12.155-13.259 19.735-3.2625 7.5793-4.8968 15.683-4.8968 24.317 0 8.6275 1.6343 16.731 4.8968 24.311 3.2626 7.5796 7.6842 14.153 13.259 19.735 5.5811 5.5811 12.155 9.9964 19.735 13.259 7.5793 3.2622 15.578 4.8968 23.997 4.8968 11.372 0 21.948-2.9482 31.734-8.844 9.7873-5.8894 17.311-13.469 22.578-22.732z" fill="#fdc600" stroke-width=".72086"/>
<path d="m228.61 121.88c0 16.842-3.2129 32.736-9.6331 47.684-6.4198 14.942-15.103 27.943-26.05 38.993-10.947 11.052-23.891 19.784-38.833 26.205-14.949 6.4195-30.841 9.6324-47.683 9.6324-22.732 0-43.522-5.7909-62.361-17.366-18.84-11.576-33.517-26.735-44.046-45.471l25.575-13.895c7.7891 13.895 18.945 25.156 33.47 33.791 14.53 8.6278 30.318 12.945 47.363 12.945 12.63 0 24.632-2.4238 35.996-7.265 11.366-4.8412 21.209-11.415 29.522-19.734 8.3192-8.3139 14.949-18.1 19.895-29.362 4.9461-11.261 7.4188-23.311 7.4188-36.156v0.63498c0-12.846-2.473-24.897-7.4188-36.156-4.9461-11.261-11.576-21.048-19.895-29.362-8.3135-8.3192-18.156-14.894-29.522-19.735-11.366-4.8412-23.367-7.265-35.996-7.265-17.046 0-32.833 4.3171-47.363 12.945-14.523 8.6338-25.68 19.895-33.47 33.79l-25.575-13.894c10.527-18.736 25.205-33.894 44.046-45.471 18.84-11.576 39.63-17.367 62.361-17.367 16.842 0 32.736 3.2133 47.683 9.6331 14.943 6.4202 27.888 15.153 38.833 26.204 10.947 11.052 19.63 24.051 26.05 38.993 6.4202 14.949 9.6331 30.842 9.6331 47.683z" fill="#fdc600" stroke-width=".72086"/><g fill="#fff"><g stroke-width=".72086">
<path d="m612.83 132.29-27.153 94.091h19.575l2.8426-11.994h25.261l2.528 11.994h19.889l-27.468-94.091zm7.8943 25.575c0 1.2643 0.2647 3.158 0.78915 5.6867 0.53009 2.5223 0.99894 4.8405 1.4248 6.944l6.3146 27.467h-17.366l6.6293-27.467c0.41958-2.1028 0.89405-4.4216 1.4178-6.944 0.5308-2.5287 0.79056-4.4223 0.79056-5.6867z"/>
<path d="m522.24 131.98v94.405h18.945v-29.997h8.2076l12.63 29.997h18.631l-13.266-33.784c4.0028-2.7377 7.265-6.4751 9.7944-11.211 2.5223-4.7363 3.7867-10.158 3.7867-16.257v-2.214c0-8.8369-2.6828-16.207-8.0542-22.102-5.365-5.8958-12.259-8.8376-20.677-8.8376zm18.945 17.681h9.158c3.3671 0 6.2097 1.1045 8.523 3.3122 2.3125 2.214 3.4713 5.6296 3.4713 10.261v0.63569c0 5.2601-1.1587 9.0531-3.4713 11.366s-5.1559 3.4713-8.523 3.4713h-9.158z"/>
<path d="m572.78 18.317v94.405h30.311c4.8405 0 9.3121-0.94367 13.418-2.8366 4.1077-1.8997 7.5247-4.5262 10.262-7.8933 2.7384-3.3734 4.8968-7.6353 6.4758-12.79 1.5783-5.1555 2.3674-10.682 2.3674-16.577v-17.052c0-5.2604-0.78915-10.205-2.3674-14.837-1.579-4.6314-3.7374-8.6345-6.4758-12.002-2.7377-3.3671-6.1548-5.9443-10.262-7.7328-4.107-1.7884-8.5779-2.6839-13.418-2.6839zm18.945 17.681h9.158c2.7321 0 5.0503 0.41992 6.944 1.2647 1.893 0.83878 3.4713 2.1035 4.7356 3.787 1.4741 1.8933 2.5294 4.1073 3.158 6.6293 0.62935 2.5287 0.94966 5.3716 0.94966 8.529v15.152c0 4.0024-0.32031 7.5237-0.94966 10.576-0.62864 3.0528-1.6839 5.6311-3.158 7.7402-1.2643 1.6835-2.8426 3.0528-4.7356 4.1013-1.8937 1.0545-4.2118 1.5779-6.944 1.5779h-9.158z"/>
<path d="m358.99 17.061c-4.4153 0-8.2569 0.57866-11.519 1.7321-3.2622 1.1591-6.2653 2.6895-9.0034 4.5828-3.9964 3.5769-7.153 8.3125-9.4723 14.208-2.3126 5.8954-3.4724 13.259-3.4724 22.102v11.366c0 9.0534 1.1598 16.633 3.4724 22.732 2.3189 6.1059 5.4762 10.737 9.4723 13.894 2.7381 2.1091 5.7409 3.737 9.0034 4.8965 3.2626 1.1594 7.1041 1.7332 11.519 1.7332 4.0028 0 7.6353-0.57374 10.897-1.7332 3.2622-1.1594 6.2604-2.7874 8.9996-4.8965 4.2119-3.1573 7.3692-7.788 9.4719-13.894 2.1028-6.0988 3.1566-13.575 3.1566-22.418v-11.68c0-8.8433-1.0538-16.207-3.1566-22.102-2.1028-5.895-5.2601-10.631-9.4719-14.208-2.7384-1.8933-5.7366-3.4238-8.9996-4.5828-3.2622-1.1535-6.894-1.7321-10.897-1.7321zm0 17.681c1.9 0 3.5839 0.31397 5.058 0.94895 1.4734 0.62935 2.7321 1.5787 3.7866 2.8366 1.4741 1.6835 2.6328 4.2682 3.4713 7.7402 0.84476 3.4723 1.265 8.1523 1.265 14.048v10.737c0 5.8958-0.42027 10.528-1.265 13.895-0.83843 3.3671-1.9972 5.895-3.4713 7.5782-1.0546 1.4741-2.3682 2.5786-3.9472 3.3125-1.579 0.73987-3.2136 1.1035-4.8975 1.1035-2.1028 0-3.9957-0.3636-5.6789-1.1035-1.6839-0.73389-3.0531-1.8384-4.1077-3.3125-1.4738-1.6835-2.6276-4.2115-3.4723-7.5782-0.84513-3.3671-1.2636-7.9992-1.2636-13.895v-10.737c0-5.895 0.41888-10.575 1.2636-14.048 0.84475-3.472 1.9986-6.0563 3.4723-7.7402 1.0546-1.258 2.4238-2.2073 4.1077-2.8363 1.6832-0.63533 3.5762-0.9493 5.6789-0.9493z"/>
</g><polygon transform="matrix(.72087 0 0 .72087 -12.341 0)" points="1e3 289.96 961.89 289.96 961.89 183.09 935.61 183.09 935.61 314.05 1e3 314.05"/>
<polygon transform="matrix(.72087 0 0 .72087 -12.341 0)" points="703.03 207.6 727.56 207.6 727.56 183.07 652.66 183.07 652.66 207.6 677.19 207.6 677.19 314.03 703.03 314.03"/>
<polygon transform="matrix(.72087 0 0 .72087 -12.341 0)" points="580.83 238.28 616.31 314.05 639.52 314.05 639.52 183.09 615.43 183.09 615.43 259.75 579.95 183.09 557.18 183.09 557.18 314.05 580.83 314.05"/>
<polygon transform="matrix(.72087 0 0 .72087 -12.341 0)" points="537.91 289.96 497.61 289.96 497.61 259.75 531.78 259.75 531.78 235.21 497.61 235.21 497.61 207.62 537.91 207.62 537.91 183.09 471.33 183.09 471.33 314.05 537.91 314.05"/>
<path d="m278.16 152.51c1.0546-1.4734 2.3682-2.473 3.9472-3.0031 1.5787-0.52446 3.3175-0.78915 5.2108-0.78915 2.5287 0 5.0017 0.63498 7.4188 1.893 2.4238 1.2643 4.3664 3.7923 5.8405 7.5789l16.737-6.944c-2.7381-7.1601-6.7901-12.42-12.155-15.788-5.3713-3.3671-11.316-5.0503-17.841-5.0503-4.0024 0-7.7335 0.62865-11.211 1.893-3.472 1.2643-6.4691 2.9482-8.9974 5.051-3.9961 3.3671-7.1045 7.9985-9.3125 13.894-2.2136 5.8958-3.3175 13.259-3.3175 22.103v11.68c0 9.053 1.1038 16.527 3.3175 22.417 2.208 5.8958 5.316 10.527 9.3125 13.894 2.5283 2.1091 5.5258 3.6874 8.9974 4.7363 3.4783 1.0546 7.2094 1.5783 11.211 1.5783 6.9443 0 13-1.6276 18.156-4.8898 5.1555-3.2629 9.1027-8.159 11.841-14.683l-16.737-7.5789c-1.4738 3.7866-3.3671 6.3146-5.6796 7.5789-2.3189 1.2643-4.8412 1.893-7.5789 1.893-1.8933 0-3.6325-0.26469-5.2111-0.78915-1.5787-0.52445-2.8923-1.5234-3.9468-2.9975-1.4738-1.4734-2.6272-3.9465-3.4723-7.4248-0.84477-3.472-1.264-8.1527-1.264-14.048v-10.422c0-6.3146 0.41921-11.156 1.264-14.523 0.84512-3.3678 1.9982-5.7845 3.4723-7.2586z" stroke-width=".72086"/>
<polygon transform="matrix(.72087 0 0 .72087 -12.341 0)" points="675.44 156.36 699.53 156.36 684.64 25.396 660.11 25.396 637.33 107.73 614.55 25.396 589.58 25.396 574.25 156.36 598.79 156.36 606.66 84.964 626.38 156.36 647.84 156.36 667.12 84.964"/>
<polygon transform="matrix(.72087 0 0 .72087 -12.341 0)" points="789.33 132.28 745.96 132.28 745.96 102.06 784.07 102.06 784.07 77.091 745.96 77.091 745.96 49.937 789.33 49.937 789.33 25.41 720.12 25.409 720.12 156.37 789.33 156.37"/>
<polygon transform="matrix(.72087 0 0 .72087 -12.341 0)" points="961.89 93.282 998.68 25.39 970.21 25.39 948.31 66.557 927.29 25.39 898.82 25.39 935.61 93.282 935.61 156.35 961.89 156.35"/>
<path d="m278.16 38.527c1.0546-1.258 2.3682-2.2077 3.9472-2.8366 1.5787-0.63533 3.3175-0.94966 5.2108-0.94966 2.5287 0 5.0017 0.68461 7.4188 2.0535 2.4238 1.3692 4.3664 4.0517 5.8405 8.0478l16.737-7.5733c-2.7381-7.1597-6.7901-12.315-12.155-15.473-5.3713-3.1573-11.316-4.7363-17.841-4.7363-4.0024 0-7.7335 0.57972-11.211 1.7332-3.472 1.1594-6.4691 2.6888-8.9974 4.5821-3.9961 3.5769-7.1045 8.3128-9.3125 14.209-2.2136 5.8954-3.3175 13.259-3.3175 22.103v11.366c0 9.0531 1.1038 16.632 3.3175 22.731 2.208 6.1055 5.316 10.737 9.3125 13.894 2.5283 2.1091 5.5258 3.7374 8.9974 4.8965 3.4783 1.1594 7.2094 1.7328 11.211 1.7328 6.9443 0 13-1.6279 18.156-4.8901 5.1555-3.2622 9.1027-8.2632 11.841-14.998l-16.737-7.2646c-1.4738 3.5769-3.3671 6.1055-5.6796 7.5789-2.3189 1.4738-4.8412 2.2076-7.5789 2.2076-1.8933 0-3.6325-0.36395-5.2111-1.1038-1.5787-0.73389-2.8923-1.8377-3.9468-3.3118-1.4738-1.6835-2.6272-4.2122-3.4723-7.5789-0.84477-3.3671-1.264-7.9985-1.264-13.894v-10.737c0-5.895 0.41921-10.576 1.264-14.048 0.84512-3.472 1.9982-6.0559 3.4723-7.7398z" stroke-width=".72086"/>


</g></g><path d="m752.9 168.01v12.603h-15.887v20.375h-12.603v-20.375h-15.886v-12.603h15.886v-20.375h12.603v20.375z" fill="#fdc600" stroke-width="1.6342"/><path d="m766.71 154.12-1e-5 -18.713 19.842-13.347h13.453v104.14l-18.293 2e-3v-82.092z" fill="#fdc600" stroke-width="1.6343"/></svg>
