<?xml version="1.0" encoding="UTF-8"?>
<svg width="439.38" height="450" version="1.1" xmlns="http://www.w3.org/2000/svg">
	<path d="m196.16 448.47c-0.85087-0.85088-4.7995-1.607-8.7748-1.6803-6.1797-0.11409-7.3305-1.0266-7.9366-6.2943-0.62646-5.4444 0.025-6.1523 5.6009-6.0865 7.2479 0.0855 16.391 6.8054 16.391 12.047 0 3.7004-2.6024 4.6931-5.281 2.0145zm15.015-1.2551c-1.6531-2.6748 0.83602-4.7495 10.076-8.3982 6.2505-2.4682 7.7984-2.455 9.3652 0.0802 3.458 5.595-1.7408 11.004-10.268 10.684-4.3418-0.16332-8.4696-1.2278-9.1728-2.3658zm26.111-1.6786c0-2.4644 0.85391-4.4807 1.8976-4.4807 1.0436 0 4.2724-2.0597 7.175-4.5771 7.6461-6.6315 14.451-5.0036 14.451 3.4569 0 6.2407-0.59863 6.7326-8.3748 6.8812-4.6061 0.0881-9.0589 0.84421-9.895 1.6803-2.8651 2.8651-5.2541 1.5189-5.2541-2.9606zm-86.254-6.2363c-11.149-4.7842-26.467-20.065-24.708-24.649 1.1261-2.9347 1.7383-2.9264 5.1519 0.0691 3.647 3.2004 28.142 15.244 37.085 18.234 5.95 1.9894 3.7568 9.1203-2.9852 9.7059-3.07 0.26668-9.6144-1.2456-14.543-3.3606zm134.05 2.2938c-9.4275-1.555-8.0768-7.2431 2.8697-12.085 5.6666-2.5066 16.341-8.096 23.72-12.421 9.094-5.3298 14.151-7.1294 15.696-5.5851 2.6405 2.6405 0.50387 7.1424-3.4004 7.1648-1.4675 8e-3 -5.082 3.5596-8.0323 7.8915-2.9502 4.3319-5.889 7.3512-6.5306 6.7096-0.64166-0.64165-5.285 1.1491-10.319 3.9795-5.0336 2.8304-11.335 4.7861-14.003 4.346zm-19.419-17.714c-2.4659-2.4659-1.683-11.949 0.98649-11.949 1.364 0 1.9122-1.48 1.218-3.2888-0.69411-1.8088-0.39233-3.8263 0.67061-4.4832 1.063-0.65693 2.6316-6.2767 3.4859-12.488 1.158-8.42 2.9218-12.191 6.931-14.818 3.0627-2.0067 5.3777-5.713 5.3777-8.6096 0-2.7973 1.564-8.4783 3.4755-12.624 3.4698-7.526 3.4735-7.5146 2.2227 6.9616-1.1951 13.832-1.0714 14.319 2.6855 10.569 5.2847-5.2745 7.859-51.592 3.6779-66.174-1.5359-5.3565-2.2582-11.132-1.6052-12.833 0.65305-1.7019-1.6845-5.9988-5.1946-9.5486-3.5101-3.5499-8.3052-8.6156-10.656-11.257l-4.2738-4.8028 7.1886 2.506c10.969 3.8238 10.504 1.1427-1.3204-7.6161-11.181-8.2822-15.764-8.8494-11.81-1.4619 2.82 5.2693 1.7274 5.3907-7.1586 0.79557-12.63-6.5313-44.579-13.154-38.73-8.028 1.1706 1.0258 7.586 3.0624 14.256 4.5258 12.538 2.7508 36.04 14.761 36.04 18.418 0 3.7259-4.8006 2.1952-13.12-4.1835-11.518-8.8316-18.253-11.31-35.568-13.087-8.3397-0.85615-13.903-1.9783-12.363-2.4936 4.0574-1.3575 3.4344-4.5501-1.1202-5.7403-2.1564-0.56352 2.3148-1.1415 9.9358-1.2845 7.6211-0.14299 16.695 0.82286 20.163 2.1462 4.6389 1.7698 8.5271 1.6755 14.702-0.3565 9.0497-2.9781 24.071-0.1752 28.509 5.3197 12.396 15.347 12.884 15.75 17.071 14.082 4.0778-1.625 4.0427-1.86-0.76714-5.1292-2.7725-1.8844-5.0408-4.7475-5.0408-6.3625 0-1.615-2.0163-3.5763-4.4808-4.3585-2.4644-0.78218-4.4807-2.3374-4.4807-3.4561 0-2.3802 6.8903 0.0118 17.324 6.0118 3.9833 2.291 7.0433 5.1736 6.8 6.4058-0.24325 1.2322 5.3192 7.9936 12.361 15.025 7.0418 7.0317 12.803 14.231 12.803 15.998 0 1.7672 1.9476 7.5634 4.3281 12.88 2.3804 5.3169 3.7956 10.529 3.1448 11.582-1.5371 2.4871 3.6752 15.086 6.2412 15.086 3.4638 0 1.5341-16.082-3.6293-30.245-1.1329-3.1076 0.13644-2.421 4.142 2.2404 4.6959 5.4648 5.7905 5.9522 5.856 2.6077 0.0807-4.1148-1.7461-6.3329-26.393-32.049-7.2525-7.567-13.809-15.38-14.57-17.363-0.76077-1.9826-2.8676-3.6046-4.6819-3.6046-4.1337 0-6.614-3.7154-3.6876-5.524 1.2039-0.74406 13.616 10.256 27.582 24.444 19.763 20.077 26.275 28.248 29.369 36.853 3.6511 10.153 3.6885 11.611 0.45883 17.857-1.9343 3.7405-3.5169 8.3037-3.5169 10.14 0 4.2534-5.0481 7.5028-6.2155 4.0007-1.468-4.4042-4.6469-2.9431-3.4612 1.5909 0.60807 2.3254 0.12383 4.8346-1.0761 5.5762-3.4728 2.1463-7.4475-4.3531-7.6133-12.449-0.0838-4.0901-2.0415-14.998-4.3504-24.239-3.1754-12.71-5.7812-18.167-10.697-22.404-3.5747-3.0805-8.1306-8.8774-10.124-12.882-1.9936-4.0046-5.0271-7.2812-6.7411-7.2812-6.7679 0-4.4865 6.1972 6.9447 18.865 8.3938 9.3017 11.969 15.118 11.969 19.471 0 10.156-3.7159 9.3637-6.7401-1.4374-1.7961-6.415-6.753-14.326-13.662-21.803-12.541-13.573-14.446-11.029-3.3714 4.5025 15.817 22.182 23.759 70.351 13.32 80.79-4.0618 4.0618-3.7594 9.4534 0.71358 12.724 4.4728 3.2706 2.1995 7.8681-3.8905 7.8681-2.5886 0-5.2476 2.219-6.4507 5.3833-3.2212 8.4725-6.8038 9.2465-6.8038 1.47 0-13.326-7.5774-6.6903-10.082 8.8292-1.8832 11.67-4.616 15.92-9.1253 14.19-3.8247-1.4677-4.1975-7.8119-0.66653-11.343 3.1634-3.1634 3.8744-27.119 0.83033-27.978-1.2322-0.34788-3.2559 3.5756-4.4971 8.7187-1.2412 5.1432-2.9871 10.082-3.8798 10.974-0.89271 0.89271-1.0517 3.9-0.35324 6.6828 2.0234 8.0617-4.3491 17.415-8.8194 12.945zm41.14-48.135c0.98189-5.3575 1.439-10.091 1.0158-10.518-1.5216-1.5369-10.044 17.513-10.044 22.452 0 4.6505 0.2865 4.7636 3.6213 1.4288 1.9917-1.9917 4.4246-8.0047 5.4065-13.362zm5.9366-44.47c-1.3054-16.928-6.1304-32.148-8.8013-27.761-0.95119 1.5622 1.4784 18.663 4.6607 32.805 0.2079 0.92415 0.37811 4.2007 0.37811 7.2812s1.1576 5.6009 2.5724 5.6009c1.8372 0 2.1773-5.1237 1.1901-17.926zm-209.85 81.805c-1.5209-1.8326-2.1309-4.9852-1.3556-7.0057 0.84335-2.1977-0.14719-4.8121-2.4653-6.5072-3.2779-2.3969-3.4143-3.3886-0.88478-6.4365 3.9519-4.7617 6.3205-4.5478 7.9931 0.72205 0.76849 2.4213 4.2752 4.9625 7.9666 5.7733 8.2921 1.8212 9.4713 3.752 6.7167 10.997-1.669 4.3897-3.7726 5.7889-8.7032 5.7889-3.5762 0-7.7466-1.4994-9.2676-3.332zm235.78-0.58589c-2.7724-0.48095-5.1157-1.5604-5.2073-2.3989-0.0916-0.83846-0.5802-3.7332-1.0859-6.4327-0.73522-3.9249 0.64461-5.4738 6.8876-7.7312 4.2938-1.5527 7.807-4.0733 7.807-5.6013 0-4.708 4.7257-5.9983 8.4239-2.3001 3.008 3.008 3.068 4.0496 0.41745 7.2433-1.7026 2.0516-3.1283 5.7542-3.1681 8.228-0.0892 5.5467-7.3173 10.165-14.075 8.9928zm-130.5-2.5289c0-4.4109 5.5906-6.6418 9.4931-3.7882 2.1337 1.5602 3.223 3.4932 2.4207 4.2955-2.1767 2.1767-11.914 1.7621-11.914-0.50731zm48.287-6.1993c-0.81789-3.2587-0.5058-6.9063 0.69357-8.1056 1.1993-1.1994 1.6312-5.5665 0.95962-9.7048-1.0726-6.6095-0.4932-7.8009 4.7655-9.8003 8.5755-3.2604 11.625-12.767 12.253-38.202 0.48493-19.624-0.0603-23.424-4.491-31.308-2.7736-4.935-5.806-8.9727-6.7386-8.9727-3.9333 0-3.8449 4.3284 0.19313 9.4619 3.4651 4.4052 4.4681 9.8406 5.0103 27.15 0.49316 15.745-0.0564 21.642-2.017 21.64-1.8926-2e-3 -2.3313-3.1706-1.4736-10.644 0.84778-7.3872 0.13442-12.697-2.3321-17.363-1.9544-3.6966-3.5596-9.3373-3.5672-12.535-0.0134-5.4842-7.7083-15.243-10.119-12.833-0.61389 0.61391 0.49353 4.3429 2.4609 8.2866 1.9674 3.9437 2.9763 8.7361 2.242 10.65-0.73434 1.9136 0.25834 6.8372 2.2059 10.941 2.7524 5.8003 2.9806 8.5093 1.0247 12.164-1.384 2.586-1.8788 5.7333-1.0996 6.994 0.77916 1.2607 0.41192 3.5082-0.81609 4.9945-1.228 1.4863-2.9442 6.5092-3.8137 11.162-1.2358 6.6126-2.2184 7.9307-4.5004 6.0368-2.1765-1.8064-3.5001-1.3936-5.2011 1.622-1.7907 3.1745-2.8723 3.4602-5.0264 1.3276-2.1602-2.1385-1.4741-3.2003 3.221-4.9854 4.8097-1.8286 5.9657-3.7115 5.9657-9.7168 0-4.0967 0.98323-8.4319 2.1849-9.6336 3.0446-3.0446-0.53031-23.857-5.3654-31.236-5.1411-7.8463-6.8936-5.6392-3.5549 4.4772 4.3703 13.242-0.1356 42.765-6.8524 44.897-5.0493 1.6026-21.333-1.1923-18.28-3.1376 1.1993-0.76414 2.8588-4.918 3.6877-9.2306 1.44-7.4915 1.3458-7.6414-2.1123-3.3606-1.9907 2.4644-4.4259 5.8825-5.4115 7.5957-3.2364 5.6258-7.4443 0.21642-6.1303-7.8806 0.67445-4.1561 0.45183-7.5565-0.49469-7.5565-2.8182 0-6.905 9.5555-7.426 17.363-0.41508 6.22-1.3144 7.2591-6.1704 7.1296l-5.6845-0.15173 5.0752-2.4465c4.2775-2.0619 4.8546-3.6227 3.6713-9.93-0.81753-4.3577-0.48486-7.4835 0.79648-7.4835 3.5885 0 5.7004-34.14 2.5409-41.075-1.4968-3.2852-3.6757-5.973-4.8419-5.973-1.2361 0-1.3429 1.6351-0.25607 3.9206 2.5866 5.4394 1.4413 27.608-1.94 37.551-3.0052 8.8375-7.6004 10.007-6.506 1.6553 1.0467-7.9871-1.6944-5.8932-6.2754 4.794-4.9793 11.616-10.556 16.563-8.2311 7.3021 1.1315-4.5084 0.65462-5.9351-1.9839-5.9351-1.9105 0-4.0539 1.5122-4.7631 3.3606-0.70928 1.8483-2.1683 3.3606-3.2422 3.3606-2.8516 0 2.7032-11.19 5.5921-11.265 3.0406-0.0791 17.003-22.84 17.003-27.718 0-5.9216-4.2869-4.0383-5.8661 2.5771-1.3961 5.8482-12.482 21.499-21.576 30.46-2.3084 2.2747-5.1186 6.5594-6.2448 9.5216-1.1262 2.9622-3.7606 5.3858-5.8542 5.3858-3.1937 0-2.9595-0.90167 1.4552-5.6009 3.8043-4.0495 4.3469-5.6009 1.9588-5.6009-1.8166 0-4.5128 1.2098-5.9914 2.6884-1.4786 1.4786-2.671 1.7307-2.6497 0.56009 0.0213-1.1706 2.6545-4.6112 5.8517-7.6457 3.6165-3.4326 4.7976-5.8558 3.1258-6.4131-1.4779-0.49266-3.8088 0.22585-5.1796 1.5967-3.4778 3.4778-6.077 3.1065-6.077-0.86813 0-1.8483 0.93951-3.3606 2.0878-3.3606 3.637 0 11.102-12.419 13.273-22.081 2.6495-11.792-0.9217-14.585-4.0056-3.1321-2.819 10.469-12.113 23.445-18.478 25.8-7.7755 2.8764-7.416 0.0496 1.2078-9.4958 4.4855-4.9649 8.1555-10.718 8.1555-12.784 0-2.4714-2.7434-0.55234-8.0159 5.6074-4.4087 5.1506-9.4496 9.3648-11.202 9.3648-1.7523 0-3.186 1.0082-3.186 2.2404 0 1.2322-2.1398 2.2404-4.7551 2.2404-3.8132 0-4.2414-0.61891-2.1618-3.1247 1.4263-1.7186 2.3059-4.4419 1.9546-6.0518-0.3559-1.6311 2.7891-4.0833 7.1032-5.5386 9.2066-3.1056 10.842-6.4874 5.8214-12.036-4.4294-4.8944-2.8742-13.644 3.4409-19.359 2.3536-2.13 4.2792-5.04 4.2792-6.4668 0-9.1961 35.689-27.957 55.774-29.319 6.9067-0.46836 10.541-0.34765 8.077 0.26822s-9.0175 2.2301-14.562 3.5871c-20.062 4.9098-38.174 18.73-47.225 36.033l-4.3946 8.4014h8.856c7.0619 0 9.1621-0.96443 10.367-4.7604 0.94669-2.9827 0.37558-5.4926-1.5293-6.7211-2.5212-1.6259-2.4665-2.3373 0.32034-4.1667 5.0948-3.3445 6.7211-2.7444 6.7211 2.4804 0 3.9727 0.55293 4.2962 3.3606 1.9661 4.7316-3.9268 4.1752-9.1679-1.1202-10.553-2.4644-0.64445-4.4807-1.8684-4.4807-2.7199 0-2.2202 26.362-14.954 36.966-17.856 21.145-5.7866 56.185-0.9835 65.158 8.9316 2.3556 2.6028 7.0669 6.1721 10.47 7.9318 3.513 1.8166 8.0102 7.285 10.406 12.653 5.0206 11.25 9.4431 47.642 7.6269 62.761-1.0696 8.9042-2.3819 11.305-7.6753 14.042-3.7463 1.9373-6.2008 4.9055-5.9391 7.1823 0.42909 3.734-6.7996 29.645-8.2704 29.645-0.39508 0-1.3875-2.6662-2.2054-5.925zm-26.658-45.65c0.74445-3.7222 2.2315-7.3103 3.3046-7.9735 2.6834-1.6584 2.4592-21.717-0.32461-29.039-2.3629-6.215-13.25-18.95-16.2-18.95-3.764 0-1.1544 6.0773 6.0378 14.061 7.2578 8.0564 7.5614 9.0718 6.364 21.283-0.69155 7.0529-2.1282 14.521-3.1926 16.597-2.6297 5.1273-2.4402 10.789 0.36113 10.789 1.263 0 2.9055-3.0455 3.6499-6.7677zm-65.494-41.238c0.87233-4.65 0.6027-8.0032-0.64358-8.0032-1.1797 0-2.8611 4.2847-3.7364 9.5216-0.87532 5.2369-2.461 10.076-3.5237 10.753-1.0627 0.67735-2.493 4.71-3.1783 8.9615-1.2142 7.5323-1.1076 7.462 4.1673-2.7499 2.9774-5.7639 6.089-14.081 6.9148-18.483zm78.656-7.8989c-2.2017-3.5624-14.627-11.752-14.627-9.6408 0 3.366 8.9569 11.777 12.542 11.777 1.873 0 2.8114-0.96124 2.0854-2.1361zm0.49562-16.948c0-7.1-2.3206-8.5062-15.014-9.0978-5.6047-0.26114-13.976-1.4834-18.604-2.7161-4.6273-1.2327-8.9424-1.385-9.5892-0.33864-0.64674 1.0464 3.1393 3.0191 8.4133 4.3838 13.635 3.5282 28.575 9.2642 29.958 11.502 2.3195 3.753 4.8355 1.8103 4.8355-3.7337zm18.483-0.8134c0-3.4783-16.47-14.704-26.884-18.324-12.146-4.2219-26.398-5.2361-33.786-2.4043l-5.4207 2.078 6.3069 2.4711c7.9654 3.1209 11.767 3.1146 16.799-0.0281 3.1978-1.9971 6.7066-1.1337 17.467 4.2979 7.4056 3.7384 14.788 8.3916 16.406 10.34 3.1529 3.799 9.1132 4.8251 9.1132 1.5689zm-64.744 107.91c-4.498-4.8832-5.412-18.561-1.2402-18.561 1.7894 0 3.2855-1.2602 3.3247-2.8005 0.0396-1.5588 1.5516-0.84229 3.41 1.616 1.8363 2.429 2.7881 5.8514 2.1151 7.6052-0.67302 1.7538 0.46915 5.0593 2.5382 7.3455 3.549 3.9217 3.4993 4.1567-0.87949 4.1567-2.5527 0-4.9773 0.90886-5.3881 2.0197-0.41073 1.1108-2.1568 0.48886-3.8802-1.3821zm-18.15-0.64039c-2.9872-1.989-2.9872-2.4827 0-4.4436 5.5684-3.6554 11.621-2.7457 10.78 1.6202-0.88741 4.608-6.0639 5.9637-10.78 2.8234zm56.569-1.481c-3.8905-1.5698-3.5093-7.3463 0.58862-8.9189 4.423-1.6972 10.132 3.1088 8.5601 7.2058-1.2426 3.2383-4.0609 3.766-9.1487 1.713zm-23.844-4.3004c-1.9875-5.1793-1.8304-5.4177 3.5689-5.4177 3.7224 0 4.2964-0.63239 2.3452-2.5836-3.4005-3.4005 0.58752-11.14 4.8897-9.4892 2.6648 1.0226 2.6282 2.6867-0.24479 11.118-3.421 10.04-8.074 12.848-10.559 6.372zm-54.009-5.7721c-3.6966-1.2325-8.2051-2.7194-10.019-3.3042-2.8895-0.9316-2.8922-1.3138-0.0217-3.088 2.1319-1.3176 5.0166-0.88429 8.2598 1.2407 2.741 1.796 7.095 3.2654 9.6755 3.2654 2.5805 0 4.0687 1.0082 3.3072 2.2404-1.6235 2.6268-2.3277 2.6045-11.202-0.35439zm-74.998-4.0244c-1.9854-3.7097-1.7896-4.9172 0.96902-5.9758 5.2394-2.0105 10.603 0.89252 9.758 5.2813-1.0924 5.6723-7.8296 6.1085-10.727 0.69451zm76.189-1.7034c0.11852-2.9271 5.8705-9.6004 8.275-9.6004 1.2382 0 4.9026-2.0855 8.1431-4.6344 3.8024-2.9909 5.4548-3.4958 4.6596-1.4236-0.67768 1.7659-3.6971 4.3339-6.7098 5.7066-3.0127 1.3727-5.4777 3.4901-5.4777 4.7054s-2.0163 3.2887-4.4807 4.6076c-2.4644 1.3189-4.4487 1.6064-4.4095 0.63891zm202.41-1.6518c-1.6936-4.4134 0.80976-7.9486 5.6286-7.9486 5.6939 0 7.1341 2.2138 4.5642 7.0157-2.6652 4.98-8.4371 5.5083-10.193 0.93291zm-291.13-3.3851c-2.5457-1.0305-8.5946-7.1055-13.442-13.5-4.8476-6.3946-11.586-13.075-14.975-14.845-5.8778-3.0702-8.8007-12.065-3.9206-12.065 4.1649 0 2.2748-5.4052-3.5003-10.01-7.7132-6.1503-5.4436-12.394 4.5056-12.394 6.5913 0 7.5013 0.86146 10.058 9.5216 3.7805 12.805 10.119 23.186 21.544 35.286 7.9212 8.389 9.1924 10.928 7.5714 15.122-1.0714 2.7724-2.2326 4.9769-2.5803 4.8988-0.34776-0.0781-2.7151-0.98515-5.2607-2.0156zm134.64-2.9798c-0.959-2.2095-1.115-4.6459-0.34671-5.4142 2.2751-2.2751 4.109 0.92066 3.0619 5.3355-0.92828 3.9138-1.0491 3.9173-2.7152 0.0786zm-52.684-3.1317c0.0188-0.99688 1.0116-3.3248 2.2061-5.173 1.8716-2.8961 2.1765-2.837 2.2061 0.42786 0.018 2.0836-0.97387 4.4115-2.2061 5.173-1.2322 0.76155-2.2249 0.56901-2.2061-0.42786zm109-2.1859c-0.82149-0.82145-1.4936-2.5353-1.4936-3.8086 0-1.4038 1.0435-1.2715 2.6511 0.33605 1.4581 1.4581 2.1302 3.172 1.4936 3.8086-0.63664 0.63664-1.8296 0.48541-2.6511-0.33606zm114.34-3.0352c-0.8318-3.1808 1.8134-8.0154 8.8873-16.243 10.885-12.66 16.15-21.986 20.873-36.97 3.2761-10.393 10.702-14.554 16.858-9.4458 4.9238 4.0864 4.079 8.019-2.7992 13.029-5.9323 4.3214-6.0012 4.609-2.1276 8.8893 3.8956 4.3046 3.6389 4.8003-9.5519 18.449-7.4552 7.7142-13.555 14.888-13.555 15.942 0 3.5238-8.9108 10.877-13.181 10.877-2.3502 0-4.7441-2.0063-5.4038-4.5288zm-41.905-8.9134c0-1.2322 0.94867-2.2404 2.1081-2.2404 1.1595 0 2.7312 1.0082 3.4928 2.2404 0.76154 1.2322-0.18708 2.2404-2.1081 2.2404-1.921 0-3.4928-1.0082-3.4928-2.2404zm-4.2275-9.2704c0.35187-2.9106-0.54815-7.4544-2-10.098-2.1019-3.8264-1.9965-5.3395 0.51743-7.4259 2.487-2.064 3.587-1.7572 5.1816 1.445 2.9883 6.0013 2.1159 19.215-1.345 20.371-2.0369 0.68013-2.7892-0.69173-2.354-4.2923zm-40.461-3.0516c-0.29704-2.4644-0.85741-11.305-1.2452-19.645-0.46496-9.9995-2.3363-18.294-5.4945-24.353-4.92-9.4392-4.521-14.256 0.70555-8.5171 5.5346 6.0767 9.862 29.168 8.1623 43.554-0.87344 7.3932-1.8311 11.426-2.1282 8.9615zm-172.63-23.524c0-1.2322 0.94866-2.2404 2.1082-2.2404 1.1595 0 2.7312 1.0082 3.4928 2.2404 0.76155 1.2322-0.18711 2.2404-2.1081 2.2404s-3.4928-1.0082-3.4928-2.2404zm-8.1689-14.608c-1.2913-3.365 7.7164-18.952 10.969-18.982 0.92415-8e-3 1.6803-1.2105 1.6803-2.6714 0-1.4608 2.1921-4.9894 4.8713-7.8413 2.6792-2.8519 3.9394-5.1802 2.8005-5.1741-3.2565 0.018-12.98 9.0964-22.184 20.712-8.0563 10.168-18.369 14.958-15.368 7.1381 2.807-7.315 30.566-32.136 37.492-33.524 11.982-2.4012 14.792-3.5294 14.792-5.9394 0-1.4689-2.9796-1.7798-8.0111-0.83584-5.0014 0.93827-9.2098 0.50805-11.202-1.1452-5.4288-4.5055-3.5676-6.5802 5.903-6.5802 6.3105 0 8.6038 0.7927 7.4929 2.5901-1.1594 1.8759 0.50289 2.145 6.0288 0.97573 17.133-3.6251 21.872-3.9678 25.648-1.8543 2.5377 1.4202 6.6966 1.4604 11.58 0.11225 4.1908-1.1571 9.3272-1.7206 11.414-1.2521 2.0872 0.46847-2.2542 2.2028-9.6474 3.8542-7.3932 1.6513-21.508 6.788-31.365 11.415-15.335 7.1976-19.298 10.288-27.445 21.402-5.2368 7.1441-9.5216 14.793-9.5216 16.998 0 4.8882-4.1232 5.3071-5.9286 0.60234zm29.452-3.3146c0.76154-1.2322 1.8292-2.2404 2.3726-2.2404 0.54338 0 0.98797 1.0082 0.98797 2.2404 0 1.2322-1.0677 2.2404-2.3726 2.2404-1.3049 0-1.7495-1.0082-0.98796-2.2404zm-114.93-4.9288c-3.639-3.639-3.3887-9.624 0.53894-12.884 1.7751-1.4732 2.6363-4.2188 1.9139-6.1014-1.3683-3.5657 2.7231-7.3579 8.0021-7.4171 2.0383-0.0229 2.639 1.5822 1.7971 4.8017-0.78239 2.9918 0.41256 6.9682 3.1336 10.427 4.1204 5.2383 4.1618 5.8526 0.65612 9.7264-4.2656 4.7134-12.071 5.4173-16.042 1.4465zm317.23-22.814c-11.958-12.373-21.268-22.97-20.69-23.548 1.0407-1.0407 17.004 12.768 18.503 16.005 0.42783 0.92415 2.1382 1.6803 3.8008 1.6803 1.6626 0 3.5857 1.7733 4.2736 3.9407 0.6879 2.1674 3.4492 4.9398 6.1363 6.161 6.5864 2.9934 14.556 14.037 11.84 16.406-1.2266 1.0703-11.298-7.6427-23.863-20.645zm75.619 14.421c-3.7785-4.1752-3.744-4.6442 0.81352-11.045 2.9229-4.1049 3.8794-7.2282 2.4786-8.0939-4.4955-2.7784-2.1652-5.9103 3.8801-5.2147 4.4876 0.51637 6.0604 1.8701 5.7908 4.9842-0.20365 2.3514 1.8126 6.0464 4.4807 8.2111l4.851 3.9357-5.4313 5.7912c-6.4824 6.9119-11.517 7.3391-16.863 1.4309zm-326.08-3.7712c0-0.77575 5.5456-6.8248 12.324-13.442 6.778-6.6175 11.516-12.032 10.53-12.032s-3.0036 1.2098-4.4823 2.6884c-1.4786 1.4786-2.6884 1.7781-2.6884 0.66551 0-1.1126-3.8592 1.7455-8.576 6.3513-6.064 5.9214-11.15 8.7003-17.363 9.4874l-8.7868 1.113 11.762-5.9305c12.191-6.1468 15.492-10.272 6.7211-8.3982-4.6738 0.99834-4.7554 0.84276-1.1202-2.137 5.1968-4.2598 4.9469-6.0803-0.83441-6.0803-3.9727 0-4.2962-0.55293-1.966-3.3606 3.392-4.0872 8.2479-4.3726 9.5294-0.5601 0.74799 2.2252 2.6244 2.1964 9.1351-0.14031 8.5992-3.0863 12.701-2.1714 12.701 2.8332 0 1.6438 1.6663 3.628 3.7029 4.4096 2.8838 1.1066 1.5209 2.8244-6.161 7.7653-5.4252 3.4894-12.308 9.0068-15.295 12.261-5.1602 5.6212-9.131 7.5808-9.131 4.5062zm271.63-7.5148c-3.8713-6.199-3.5247-7.1743 2.2579-6.3531 3.2252 0.45804 5.0408 2.2626 5.0408 5.0099 0 5.9614-3.9595 6.69-7.2987 1.3431zm-21.042-15.905c-5.7301-6.1531-5.7792-6.4254-1.4084-7.8127 5.2624-1.6702 16.713 8.1976 14.211 12.246-2.3886 3.8648-6.3525 2.492-12.802-4.4337zm16.293-2.8828c-4.8873-5.2023-4.8977-5.3327-0.51783-6.4781 5.0027-1.3082 11.446 4.5722 9.8464 8.9868-1.4754 4.0725-3.7105 3.4714-9.3285-2.5087zm-155.42-0.65531c1.5403-0.6215 4.0607-0.6215 5.6009 0 1.5402 0.62151 0.28003 1.13-2.8005 1.13s-4.3407-0.50851-2.8005-1.13zm-2.2404-6.7211c1.5403-0.6215 4.0607-0.6215 5.6009 0s0.28005 1.13-2.8004 1.13c-3.0805 0-4.3407-0.50852-2.8005-1.13zm-109.22-68.423c0-6.4677 5.1512-29.833 7.0369-31.918 1.0585-1.1706 1.9246-6.5297 1.9246-11.909s1.2136-11.983 2.6969-14.674c1.4833-2.6914 2.7853-5.9017 2.8933-7.1339 0.33916-3.8687 6.526-15.611 9.0904-17.253 1.3491-0.86388 3.814-5.9047 5.4776-11.202 1.6636-5.2971 3.8575-10.589 4.8755-11.76 1.0179-1.1706 1.8508-3.7544 1.8508-5.7419 0-4.5673 11.538-15.771 17.08-16.584 2.4-0.35224 4.1869-2.4331 4.1929-4.8826 7e-3 -2.8198 1.3413-4.0453 3.9312-3.6104 2.2923 0.3849 3.9207-0.74544 3.9207-2.7216 0-4.2887 3.6793-6.2058 25.702-13.392 19.528-6.3721 35.896-7.3941 42.173-2.6333 2.2136 1.6788 5.9996 2.5359 8.4133 1.9047 5.159-1.3491 10.776 2.7563 13.472 9.8456 2.5453 6.6945 20.519 29.485 23.419 29.696 1.2548 0.09122 7.1615 4.1985 13.126 9.1274 5.9646 4.9288 12.071 8.9615 13.571 8.9615 3.2495 0 10.81 7.9567 14.685 15.454 2.6805 5.1864 2.5443 5.3257-3.9394 4.0289-3.6937-0.73874-9.3539-2.0053-12.578-2.8145-3.5692-0.89583-5.8623-0.53973-5.8623 0.91038 0 1.31 3.7806 2.9957 8.4014 3.7461 11.611 1.8856 18.991 5.1662 17.402 7.7363-0.73334 1.1866-4.5708 1.6352-8.5277 0.99681l-7.1943-1.1606 8.9615 4.8758c11.493 6.2531 11.393 6.1384 8.1586 9.373-2.1658 2.1658-1.1925 4.0113 4.6158 8.7518 10.399 8.4873 6.2259 10.369-7.3621 3.3188-12.542-6.5069-30.716-10.621-28.08-6.3564 0.84801 1.3722 5.04 3.1511 9.3154 3.9531 4.2754 0.80208 11.793 4.3697 16.705 7.9281 4.9122 3.5583 10.2 6.5367 11.751 6.6185 1.5509 0.0818 7.3566 3.6343 12.902 7.8944s11.846 8.3434 14.002 9.074c2.1564 0.73062 3.9206 2.2785 3.9206 3.4397 0 1.1612 1.0082 1.4882 2.2404 0.72667 1.2322-0.76155 2.2404-0.48499 2.2404 0.61458 0 4.7004-3.2504 4.2422-13.076-1.8431-22.794-14.117-38.452-21.453-38.452-18.014 0 1.0613 7.0572 6.1222 15.683 11.246 14.528 8.6312 19.324 13.597 13.13 13.597-1.404 0-7.4681-3.0245-13.476-6.7211-11.098-6.8286-15.337-8.1817-15.337-4.8957 0 1.004 3.7806 3.662 8.4014 5.9066 4.6208 2.2446 7.3932 4.4386 6.161 4.8755-1.2322 0.43689-11.818-4.2983-23.524-10.523-11.706-6.2244-18.573-10.748-15.26-10.053 7.6381 1.6025 10.509-2.5432 3.6242-5.2338-4.7391-1.8522-44.729-7.0332-53.895-6.9827-8.6599 0.0477-3.2005 4.4435 7.2385 5.8283 6.1375 0.81418 10.727 2.179 10.2 3.0329-0.52777 0.85392 6.2416 3.2809 15.043 5.3932 16.907 4.0576 44.251 16.312 44.251 19.831 0 2.5054-8.36 0.12972-14.501-4.1208-2.4305-1.6823-7.4713-2.9765-11.202-2.876l-6.7827 0.18281 7.8413 3.4837c11.783 5.2348 5.0442 5.7789-9.0057 0.72711-6.7528-2.428-10.514-4.451-8.3572-4.4954 2.1564-0.0445 3.9206-0.96298 3.9206-2.0412 0-2.4566-11.118-4.7501-23.244-4.7951-6.5809-0.0244-8.2921-0.63474-5.9438-2.1199 5.4323-3.4354-2.4254-5.2136-10.117-2.2894-5.1802 1.9695-5.8161 2.8818-3.1868 4.5722 2.6852 1.7264 2.3694 2.3627-1.731 3.4866-2.7586 0.75614-4.4557 2.2808-3.7713 3.3882 0.71606 1.1586 2.7241 1.1853 4.73 0.0627 2.0706-1.1588 6.9521-0.92718 12.024 0.57035 13.073 3.8599 13.639 6.6382 0.99437 4.8739-28.8-4.0184-34.822-4.0499-50.888-0.26641-9.0571 2.1329-18.955 3.4608-21.996 2.9509-4.5331-0.76019-3.9149-1.2279 3.4328-2.5973 14.586-2.7184 45.928-15.244 45.928-18.355 0-1.5816 1.7643-3.4167 3.9206-4.0779 2.1564-0.6612-2.9775-0.84375-11.409-0.40566-15.711 0.81641-26.621 5.5683-13.684 5.9604 5.5008 0.16668 4.8123 0.69447-4.1061 3.1472-5.8933 1.6208-12.194 4.1745-14.002 5.6749-1.8079 1.5005-3.2871 2.0836-3.2871 1.2959 0-0.78775-5.0073 1.1052-11.127 4.2064-6.12 3.1013-13.429 5.5704-16.243 5.487l-5.1153-0.15173 5.0408-2.4311c2.7724-1.3371 5.0408-3.2852 5.0408-4.3291 0-2.8369-1.471-2.4168-12.967 3.7029-11.056 5.8857-22.147 7.6141-19.3 3.0076 1.1355-1.8372 0.0309-2.1221-3.7884-0.9773-2.9651 0.8888-9.6759 2.1869-14.913 2.8847-7.4418 0.99153-9.5216 0.55258-9.5216-2.0096zm31.243-11.719c3.9621-4.774 2.186-4.4205-8.6149 1.7145-5.0572 2.8725-8.5609 5.8568-7.7859 6.6318 1.7788 1.7789 12.545-3.6998 16.401-8.3463zm9.396 3.2874c6.8827-5.7339 2.529-5.8016-4.7926-0.0746-3.0805 2.4096-4.4524 4.4035-3.0486 4.4309 1.4037 0.0274 4.9323-1.933 7.8413-4.3564zm-7.6966-14.637c5.6482-4.3127 11.637-7.8413 13.308-7.8413 1.6711 0 3.0384-1.0082 3.0384-2.2404 0-6.1778-22.963 4.2989-31.079 14.18-5.7142 6.9563 3.6766 4.3443 14.733-4.0981zm54.432 3.3606c2.7828-1.7984 2.5902-2.1718-1.1202-2.1718-2.4644 0-5.993 0.97729-7.8413 2.1718-2.7828 1.7984-2.5902 2.1718 1.1202 2.1718 2.4644 0 5.993-0.9773 7.8413-2.1718zm113.94-15.928c-1.6718-1.0593-6.5682-1.8357-10.881-1.7254l-7.8413 0.20061 8.9615 2.8308c9.2167 2.9115 15.161 2.116 9.7607-1.306zm-116.9-0.20432c4.0922-1.4797 7.4403-3.3897 7.4403-4.2444 0-1.7894-16.801 2.8255-19.268 5.2925-2.4955 2.4955 3.4961 1.9646 11.828-1.0482zm20.882-15.568c2.3202-1.4931 0.58637-1.7616-5.6009-0.86756-5.7019 0.82394-7.7391 0.57067-5.6009-0.69631 1.8483-1.0952 10.337-2.6738 18.863-3.5079 8.5263-0.83417 17.096-2.5417 19.043-3.7944 5.6185-3.6145-23.365-0.40219-41.338 4.5816-14.733 4.0852-25.039 11.442-22.281 15.905 1.125 1.8203 30.3-7.3635 36.915-11.62zm73.932 11.817c0-1.8564-10.422-4.7608-17.083-4.7608-6.2983 0-2.8147 4.2298 4.2007 5.1004 4.0046 0.49697 8.5414 1.0649 10.082 1.2621s2.8005-0.52361 2.8005-1.6018zm-43.687-2.5204c0.78529-1.2706-1.0969-2.2404-4.3485-2.2404-3.1532 0-5.7331 1.0082-5.7331 2.2404 0 1.2322 1.9568 2.2404 4.3485 2.2404s4.9716-1.0082 5.7332-2.2404zm-81.402-19.65c21.245-22.243 38.383-30.452 69.642-33.357 8.3681-0.77773 14.761-1.8673 14.208-2.4212-1.5094-1.5094-38.448-0.81117-42.663 0.80639-2.4016 0.92158-3.4318 0.3479-3.0036-1.6726 1.7601-8.3058-34.104 5.1957-45.213 17.021-4.1464 4.4136-4.7716 6.3359-2.7259 8.3815 2.0456 2.0456 4.3253 1.0919 9.94-4.1586 8.6846-8.1213 23.832-17.481 25.535-15.779 0.66579 0.6658-2.0685 2.9062-6.0762 4.9787-7.9997 4.1368-44.658 40.083-44.658 43.791 0 4.0239 13.313-5.337 25.016-17.59zm30.574-33.409c1.6172-0.64718 3.5496-0.56758 4.294 0.17688 0.74445 0.74446-0.57879 1.274-2.9405 1.1767-2.6099-0.10749-3.1408-0.63837-1.3536-1.3536zm-14.756 38.047c6.4008-5.6848 17.727-13.156 25.169-16.602 16.131-7.4704 11.47-8.5311-6.7876-1.5444-8.1316 3.1118-17.699 9.3921-25.964 17.044-21.662 20.055-14.869 21.043 7.5822 1.1027zm117.23 10.336c2.3088-3.7356-2.8838-8.0194-5.9744-4.9288-2.5852 2.5852-0.96722 7.3644 2.4932 7.3644 1.0868 0 2.6533-1.096 3.4812-2.4356zm-29.41-1.7796c1.6737-2.7081-16.763-4.4694-29.521-2.8201l-10.642 1.3758 11.202 1.1843c20.34 2.1504 27.751 2.217 28.961 0.25995zm51.855-4.5672c-2.1412-2.3659-9.1025-5.6006-15.47-7.1882-14.232-3.5485-18.098-3.718-18.99-0.83212-0.38076 1.2322 4.156 3.0906 10.082 4.1297 5.9257 1.0391 14.303 3.2095 18.615 4.8231 4.3127 1.6136 8.2496 3.0318 8.7486 3.1515 0.499 0.11981-0.84455-1.718-2.9857-4.084zm-59.532-12.825c0-3.1807 1.9913-3.4986 14.562-2.3247 8.0093 0.74793 14.562 0.84226 14.562 0.20965s-3.4962-2.611-7.7693-4.3964c-9.2775-3.8764-28.976-4.2124-42.805-0.73032-14.857 3.7411-14.925 7.0304-0.12501 6.1085 8.6039-0.53597 12.909 0.10065 13.642 2.0174 1.5757 4.12 7.9328 3.4115 7.9328-0.88406zm43.502-7.2179c1.6159-2.6146-4.4445-7.7463-16.532-13.999-10.846-5.6104-32.248-6.6092-42.836-1.999-4.229 1.8414-2.1981 2.0982 9.2574 1.1708 17.647-1.4288 33.688 3.2301 38.992 11.325 3.5779 5.4606 8.8772 7.1296 11.119 3.5019zm14.747-10.409c0-0.63164-5.2929-3.6625-11.762-6.7353-6.4691-3.0728-17.67-9.2883-24.892-13.812-12.115-7.5895-14.453-8.2294-30.245-8.2766-19.779-0.0591-33.918 2.2787-33.918 5.6081 0 1.5015 2.5624 1.6629 7.2812 0.45857 4.0047-1.0221 14.842-1.8583 24.084-1.8583 15.888 0 17.616 0.51387 31.741 9.4401 8.2162 5.1921 18.298 10.907 22.404 12.699 7.5868 3.3124 15.306 4.5613 15.306 2.4763zm-97.218-33.726c17.332-5.6576 17.821-5.6906 30.732-2.068 13.882 3.8951 18.952 2.8367 11.726-2.4476-6.718-4.9123-40.249-4.1897-51.941 1.1193-8.8679 4.0269-14.586 9.1456-10.216 9.1456 1.1476 0 10.012-2.5872 19.699-5.7492zm54.231 116.24c1.6172-0.64718 3.5496-0.5676 4.294 0.17676 0.74445 0.74448-0.57879 1.274-2.9405 1.1767-2.6099-0.10754-3.1408-0.63837-1.3536-1.3535zm-226.76-3.6378c-3.7696-2.7564-3.7947-3.6329-0.4282-14.969 1.9667-6.6226 3.5758-16.395 3.5758-21.716 0-9.6316 0.97303-10.65 9.3794-9.8163 2.8423 0.28188 3.9524-1.7356 4.4807-8.1434 0.60698-7.362 1.518-8.6124 6.7126-9.2125 9.6851-1.1189 12.412 6.6787 5.5407 15.844-8.4474 11.268-14.149 23.993-17.052 38.059-2.7303 13.23-5.0942 15.157-12.21 9.9543zm386.81 1.4441c-1.5402-0.6215-2.8004-3.6633-2.8004-6.7595 0-11.084-7.2678-30.308-16.874-44.633-9.6421-14.379-9.7147-14.63-5.463-18.881 5.9038-5.9038 14.496-2.8314 14.496 5.1835 0 6.9686 2.1095 9.2903 8.5208 9.378 4.2255 0.0578 5.1059 1.6513 6.2258 11.269 0.71746 6.161 2.9712 15.739 5.0082 21.284 4.4136 12.014 4.7236 18.313 1.0806 21.956-2.8012 2.8012-5.4587 3.1153-10.194 1.2047zm-162.43-6.7211c1.5402-0.6215 4.0607-0.6215 5.6009 0 1.5403 0.6215 0.28005 1.13-2.8004 1.13-3.0805 0-4.3407-0.50852-2.8005-1.13zm91.295-9.7181c-2.2996-2.541-2.9348-4.4807-1.4674-4.4807 1.4232 0 2.5876 1.0082 2.5876 2.2404 0 1.2322 2.5204 2.2404 5.6009 2.2404 3.0805 0 5.6009 1.0082 5.6009 2.2404 0 3.8965-8.1013 2.4235-12.322-2.2404zm-8.9615-17.923c0.76155-1.2322 3.401-2.2404 5.8654-2.2404 2.4644 0 3.8577 1.0082 3.0961 2.2404-0.76153 1.2322-3.401 2.2404-5.8653 2.2404-2.4644 0-3.8577-1.0082-3.0961-2.2404zm-7.2812-6.1176c-1.5403-0.53728-2.8005-1.901-2.8005-3.0305 0-2.645 8.3067-2.6852 9.9366-0.048 1.4914 2.4132-3.2185 4.4451-7.1361 3.0786zm-270.89-30.994c-2.3422-6.1036 0.41395-11.057 6.5462-11.765 5.4677-0.63109 6.1419 0.01647 6.1419 5.8998 0 5.3241-1.1231 6.8234-5.7775 7.7132-3.5757 0.68353-6.2093-0.0208-6.9106-1.8483zm322.13-7.193c-2.9634-5.5373 0.95884-11.704 7.4441-11.704 6.226 0 8.8721 5.3294 5.6424 11.364-2.8971 5.4133-10.269 5.6048-13.087 0.33995zm-309.44-9.4637c-3.449-6.4445 0.83708-13.442 8.2332-13.442 3.2094 0 6.9811-1.5671 8.3817-3.4825 1.5382-2.1036 4.0754-2.8958 6.408-2.0007 5.1487 1.9757 4.8844 6.0069-0.6192 9.444-2.5331 1.5819-4.4807 5.2246-4.4807 8.3802 0 4.875-0.98312 5.5819-7.7625 5.5819-5.4695 0-8.4708-1.3235-10.16-4.4807zm290.1-6.8605c-0.93479-4.2562-3.2736-7.5723-5.808-8.2351-5.7217-1.4963-5.3802-6.6452 0.56597-8.5324 3.212-1.0194 5.4422-0.39479 6.7158 1.881 1.1425 2.0416 3.7097 2.9359 6.4048 2.2311 5.8632-1.5333 11.195 3.0278 11.195 9.5764 0 5.9642-0.78892 6.6211-10.435 8.6884-6.5798 1.4102-7.1835 1.0182-8.6391-5.6094zm-260.74-17.56c-4.7778-3.0734-1.1497-9.1848 5.4528-9.1848 4.7545 0 5.6953 0.92362 5.1111 5.0179-0.77826 5.4549-5.6031 7.358-10.564 4.1668zm238.81-3.8876c-2.3057-2.3057-1.8995-9.3057 0.6308-10.87 3.1675-1.9576 11.248 2.9069 11.248 6.7713 0 1.8049-0.92573 3.2817-2.0571 3.2817-1.1314 0-3.4525 0.53544-5.1579 1.1899-1.7054 0.65442-3.8042 0.48639-4.664-0.3734zm-21.96-15.022c-5.4165-4.1201-10.856-7.9183-12.088-8.4403-7.7821-3.2967-19.043-11.896-19.043-14.542 0-3.487 5.7392-4.3001 7.7208-1.0938 0.69528 1.125 5.5315 2.7664 10.747 3.6476 9.8389 1.6623 28.58 14.821 28.58 20.067 0 1.549-1.3653 3.9495-3.034 5.3344-2.3429 1.9444-5.2774 0.81156-12.882-4.9731zm-202.83-0.35678c-2.2651-5.9027 1.0072-10.082 7.8943-10.082 7.2737 0 9.6956 3.4959 6.5966 9.5216-2.4658 4.7944-12.714 5.1905-14.491 0.56009zm138.85-6.8717c-0.74104-1.9311-0.20522-4.6532 1.1905-6.049 1.8902-1.8902 2.5378-0.99422 2.5378 3.5111 0 6.7406-1.6774 7.8824-3.7284 2.5379zm-117.25-11.021c0-1.8318 3.2765-4.7171 7.2812-6.4119 4.0047-1.6948 9.1802-5.2131 11.501-7.8185 2.321-2.6054 4.9861-4.2636 5.9224-3.685 0.93632 0.57868 5.6591-0.34387 10.495-2.0501 9.3904-3.3131 16.328-1.4922 16.328 4.2854 0 4.0951-5.488 6.8986-17.351 8.8637-5.2304 0.86641-10.079 2.4957-10.774 3.6207-0.69528 1.125-3.6656 2.0454-6.6006 2.0454-2.9351 0-5.9596 1.0082-6.7211 2.2404-2.1565 3.4893-10.082 2.6324-10.082-1.0901zm123.22-13.198c0-7.1039 4.3221-10.325 10.642-7.9298 8.6837 3.2906 5.5561 13.256-4.1603 13.256-5.3309 0-6.4814-0.94551-6.4814-5.3266zm-59.93-2.8783c-3.9212-1.5823-3.4915-8.5959 0.74201-12.109 2.7781-2.3056 4.4635-2.3648 7.8109-0.27432 2.3476 1.4661 6.2984 2.6657 8.7795 2.6657 2.6498 0 4.5111 1.4855 4.5111 3.6002 0 2.022-1.2688 3.1134-2.8943 2.4896-1.5919-0.61086-4.809 0.28944-7.1493 2.0007-4.3945 3.2133-6.9847 3.5706-11.8 1.6276zm36.196-3.3369c-1.7695-2.863 5.4104-9.1221 9.0809-7.9162 1.282 0.42118 2.6531 2.9552 3.0469 5.6311 0.57264 3.8917-0.40967 4.8653-4.9086 4.8653-3.0935 0-6.3421-1.1611-7.2192-2.5802z" fill="#f2f2f2"/>
	<path d="m23.153 187.54c-4.8653 0-9.0331 1.2869-12.5 3.8594-3.4672 2.5165-6.1227 6.067-7.9682 10.653-1.7895 4.5297-2.6845 9.8441-2.6845 15.94 0 6.0396 0.89498 11.351 2.6845 15.936 1.8454 4.5297 4.4749 8.0541 7.8861 10.571 3.4672 2.5165 7.6612 3.7741 12.582 3.7741 6.2633 0 11.212-1.6495 14.847-4.949 3.635-3.3553 5.8985-7.9119 6.7933-13.672h-9.8126c-0.55923 3.0758-1.7906 5.5614-3.692 7.4628-1.9014 1.8454-4.6418 2.7698-8.2209 2.7698-4.4179 0-7.8574-1.9304-10.318-5.7891-2.4606-3.9146-3.692-9.2812-3.692-16.104 0-6.8785 1.2314-12.274 3.692-16.189 2.4606-3.9146 5.9001-5.8744 10.318-5.8744 3.4672 0 6.1783 1.0354 8.1356 3.1046 2.0132 2.0132 3.274 4.5577 3.7773 7.6334h9.8126c-0.61515-5.8719-2.7971-10.513-6.5439-13.925-3.7468-3.4672-8.777-5.2016-15.096-5.2016zm31.289 1.0075v58.718h8.8904v-23.235h9.6485l11.24 23.235h10.318l-12.333-24.492c3.9705-1.3421 6.907-3.4685 8.8083-6.3765 1.9573-2.9639 2.9372-6.3478 2.9372-10.151 0-3.3554-0.75781-6.3473-2.2677-8.9757-1.454-2.6843-3.6882-4.8074-6.708-6.3732-2.9639-1.5658-6.7398-2.3498-11.325-2.3498zm47.973 0v7.8861h12.582v42.949h-12.75v7.8829h34.393v-7.8829h-12.75v-42.949h12.582v-7.8861zm44.12 0v58.718h8.8936v-41.689l7.9124 20.885h6.5669l7.9124-20.971v41.774h8.8904v-58.718h-9.7502l-10.338 26.507-10.334-26.507zm50.074 0v58.718h37.498v-7.9682h-28.607v-17.784h26.09v-7.8828h-26.09v-17.115h28.607v-7.9682zm56.621 0v7.9682h18.562v50.75h8.8936v-50.75h18.562v-7.9682zm53.621 0v7.8861h12.582v42.949h-12.75v7.8829h34.393v-7.8829h-12.75v-42.949h12.582v-7.8861zm45.213 0v58.718h8.8936v-41.689l7.9124 20.885h6.5669l7.9124-20.971v41.774h8.8904v-58.718h-9.7502l-10.338 26.507-10.334-26.507zm49.821 0v58.718h37.498v-7.9682h-28.607v-17.784h26.09v-7.8828h-26.09v-17.115h28.607v-7.9682zm-338.55 7.9682h9.7305c4.1383 0 7.1303 0.89498 8.9757 2.6845 1.8454 1.7336 2.7698 4.0821 2.7698 7.046 0 2.908-0.95379 5.2565-2.8552 7.046-1.8454 1.7895-4.7786 2.6845-8.805 2.6845h-9.8158z" fill="#ed2939"/>
</svg>
