<svg xmlns="http://www.w3.org/2000/svg" width="274" height="184.3"><path d="M274 27.7h-21.4V6.3h-3.5v21.4h-21.4v3.5h21.4v21.4h3.5V31.2H274z" fill="#f90a34"/><path d="M0 63.5h14.2v57.2H0zm86.2 57.2h14.5l17.9-57.2h-13.5l-11 40.3H94L83.4 63.5H68.8zm34.6 0h39.5V109h-25.4V97.6h22.8V86.1h-22.8V75.2h25.2V63.6h-39.4zm70-62.7h39.5V46.3H205V34.9h22.8V23.4H205V12.5h25.2V.9h-39.4zm-29.3 53.3c5.4 7.6 14 10.3 23.9 10.3 11.6 0 22.7-6.3 22.7-18.7 0-8.9-5.5-13.8-13.5-15.9l-8.9-2.4c-4.3-1.1-7.7-2.2-7.7-5.5 0-3.9 3.6-5.4 7.7-5.4 4.4 0 9.2 1.7 12 5.3l9-7.9c-5-6.2-10.9-8.7-20.9-8.7-12.5 0-21.5 7.7-21.5 18.4 0 9.2 5.7 13.7 13.4 15.8l9.7 2.6c3.5 1 6.3 2.2 6.3 5.8 0 4-4.6 5.4-8.9 5.4-5.9 0-11.4-3-14.3-7.2l-9 8.1m63.2 9.4h14.2V75h17.2V63.5h-48.5V75h17.2zm35.1 0H274V63.5h-14.2zM52.5 63.5v30.9L32.4 63.5H18.7v57.2h14.2V88.5l20.7 32.2h13.1V63.5zm58.4 119.8h14.2v-45.7h17.2v-11.5H93.7v11.5h17.2zM0 163.7c0 14.3 11.6 20.6 24.1 20.6 10.9 0 22.8-5.6 22.8-18.8v-13.1h-25V163h11.4v1.4c0 6-4 8.4-9.2 8.4-5.8 0-10-3.6-10-9.5v-17.6c0-6.5 5.1-9.1 10-9.1 4.4 0 9.4 2.2 9.4 8.1v1.1h13.3v-2.1c0-13.3-12.2-18.5-23.1-18.5-12.5 0-23.7 7-23.7 21v17.5m149.4 19.6h14.2v-57.2h-14.2zm54.6-20.2c0 6.5-4.7 9.4-9.7 9.4-5.8 0-10-3.4-10-9.5v-16.8c0-6.7 4.7-9.4 9.7-9.4 5.3 0 10 3.3 10 9.3v17m-33.9.3c0 14.8 11.5 20.9 24.1 20.9 11.8 0 23.9-6.7 23.9-21.7v-15.9c0-14.8-11.6-21.6-24.2-21.6-12.1 0-23.8 7.1-23.8 21.7v16.6m89.7-37.3v31l-21.4-30.9h-13.7v57.2h14.2v-32.2l21.9 32.2H274v-57.2zM66.7 161.5l6.6-20.7h.2l6.5 20.7zm-20.3 21.8h13.4l3.5-10.7h20.2l3.4 10.7h14.5l-19.8-57.2H66.5zM0 38.4C0 52.7 11.6 59 24.1 59c10.9 0 22.6-5.6 22.6-18.8v-2.8H33.3v1.4c0 5.9-4.8 8.5-9.2 8.5-5.8 0-10-3.4-10-9.2V20.7c0-6.5 4.8-9.1 9.8-9.1 4.4 0 9.4 2.5 9.4 8.5v1.3h13.3v-2.6C46.6 5.6 34.6 0 23.7 0 11.2 0 0 7 0 21v17.4m66.7-11.2V12.1h8.7c5.1 0 8.2 2.7 8.2 7.6 0 4.7-3.1 7.6-8.2 7.6zM52.5 58h14.2V37.8h6.4L84.3 58h15.4L86.8 35.7c7.3-3.1 10.6-9.9 10.6-16.8 0-10.6-7.4-18-20.2-18H52.5zm52 0h14.2V.9h-14.2zm21.4 0H139V21.7h.2L150 50.3h9.7l10.8-28.7h.2V58h13.1V.9h-17.3l-11.2 29.5h-.2L143.6.9H126z" fill="#fff"/></svg>