<?xml version="1.0" encoding="UTF-8"?>
<svg width="450" height="450" version="1.1" xmlns="http://www.w3.org/2000/svg">
	<defs>
		<linearGradient id="bg" x1="105.21" x2="275.47" y1="76.069" y2="247" gradientTransform="matrix(1.875 0 0 1.875 -131.81 -77.812)" gradientUnits="userSpaceOnUse">
			<stop stop-color="#EBC130" offset="0"/>
			<stop stop-color="#EA894B" offset="1"/>
		</linearGradient>
	</defs>
	<path d="m450 225c0 124.31-100.69 225-225 225s-225-100.69-225-225 100.69-225 225-225 225 100.69 225 225zm-202.31 132.38c0-12.375-10.125-22.5-22.5-22.5s-22.5 9.9375-22.5 22.5 10.125 22.5 22.5 22.5 22.5-9.9375 22.5-22.5zm39-260.06h-41.062v127.69c0 10.312-9 20.062-20.25 20.062s-20.812-9.75-20.812-20.062v-127.69h-40.688v127.69c0 24.562 15.188 48 40.688 57.375v34.312h41.062v-34.5c25.125-8.0625 41.062-32.812 41.062-57.375z" fill="url(#bg)"/>
</svg>
