<?xml version="1.0" encoding="UTF-8"?>
<svg width="800" height="173.84" version="1.1" xmlns="http://www.w3.org/2000/svg">
	<path d="m301.39 105.01c-1.1127-2.5035-2.2253-5.146-3.338-7.6495-0.97357-2.2253-1.8081-4.3115-2.7816-6.5369-0.41725-0.83449-0.83449-1.5299-2.0862-1.2517-0.13908 0-0.41725 0-0.97358-0.13908 0.8345-0.27816 1.2517-0.41724 1.8081-0.55632-0.13908-0.41725-0.13908-0.8345-0.27817-1.1127-0.41724-1.1127-0.97357-2.2253-1.3908-3.338-0.83449-2.2253-1.8081-4.4506-2.6426-6.6759-0.55632-1.669-0.97357-3.1989-1.5299-4.8679 0-0.13908-0.13909-0.13908-0.27817-0.41725-0.13908 0.55633-0.27817 0.97357-0.27817 1.3908-0.27816 1.8081-0.55632 3.7552-0.97357 5.5633-0.69541 3.0598-1.669 5.9805-2.5035 9.0403-0.13908 0.41725 0 0.97357 0 1.3908-0.13908-0.13908-0.13908-0.27817-0.27816-0.41725-0.13908 0.41725-0.41725 0.8345-0.55632 1.2517-0.97359 3.0598-1.8081 5.9805-2.6426 9.0403-0.55634 2.0862-1.2517 4.0334-1.8081 6.1196-0.13908 0.55633-0.13908 1.2517-0.27816 1.9472 1.669-0.13909 3.338-0.27817 5.007-0.41725 4.5897-0.27817 9.1794-0.41725 13.769-0.69541 1.5299 0 3.0598-0.13908 4.7288-0.27817-0.27816-0.69541-0.55633-0.97357-0.69541-1.3908zm0 0c-1.1127-2.5035-2.2253-5.146-3.338-7.6495-0.97357-2.2253-1.8081-4.3115-2.7816-6.5369-0.41725-0.83449-0.83449-1.5299-2.0862-1.2517-0.13908 0-0.41725 0-0.97358-0.13908 0.8345-0.27816 1.2517-0.41724 1.8081-0.55632-0.13908-0.41725-0.13908-0.8345-0.27817-1.1127-0.41724-1.1127-0.97357-2.2253-1.3908-3.338-0.83449-2.2253-1.8081-4.4506-2.6426-6.6759-0.55632-1.669-0.97357-3.1989-1.5299-4.8679 0-0.13908-0.13909-0.13908-0.27817-0.41725-0.13908 0.55633-0.27817 0.97357-0.27817 1.3908-0.27816 1.8081-0.55632 3.7552-0.97357 5.5633-0.69541 3.0598-1.669 5.9805-2.5035 9.0403-0.13908 0.41725 0 0.97357 0 1.3908-0.13908-0.13908-0.13908-0.27817-0.27816-0.41725-0.13908 0.41725-0.41725 0.8345-0.55632 1.2517-0.97359 3.0598-1.8081 5.9805-2.6426 9.0403-0.55634 2.0862-1.2517 4.0334-1.8081 6.1196-0.13908 0.55633-0.13908 1.2517-0.27816 1.9472 1.669-0.13909 3.338-0.27817 5.007-0.41725 4.5897-0.27817 9.1794-0.41725 13.769-0.69541 1.5299 0 3.0598-0.13908 4.7288-0.27817-0.27816-0.69541-0.55633-0.97357-0.69541-1.3908zm0 0c-1.1127-2.5035-2.2253-5.146-3.338-7.6495-0.97357-2.2253-1.8081-4.3115-2.7816-6.5369-0.41725-0.83449-0.83449-1.5299-2.0862-1.2517-0.13908 0-0.41725 0-0.97358-0.13908 0.8345-0.27816 1.2517-0.41724 1.8081-0.55632-0.13908-0.41725-0.13908-0.8345-0.27817-1.1127-0.41724-1.1127-0.97357-2.2253-1.3908-3.338-0.83449-2.2253-1.8081-4.4506-2.6426-6.6759-0.55632-1.669-0.97357-3.1989-1.5299-4.8679 0-0.13908-0.13909-0.13908-0.27817-0.41725-0.13908 0.55633-0.27817 0.97357-0.27817 1.3908-0.27816 1.8081-0.55632 3.7552-0.97357 5.5633-0.69541 3.0598-1.669 5.9805-2.5035 9.0403-0.13908 0.41725 0 0.97357 0 1.3908-0.13908-0.13908-0.13908-0.27817-0.27816-0.41725-0.13908 0.41725-0.41725 0.8345-0.55632 1.2517-0.97359 3.0598-1.8081 5.9805-2.6426 9.0403-0.55634 2.0862-1.2517 4.0334-1.8081 6.1196-0.13908 0.55633-0.13908 1.2517-0.27816 1.9472 1.669-0.13909 3.338-0.27817 5.007-0.41725 4.5897-0.27817 9.1794-0.41725 13.769-0.69541 1.5299 0 3.0598-0.13908 4.7288-0.27817-0.27816-0.69541-0.55633-0.97357-0.69541-1.3908zm0 0c-1.1127-2.5035-2.2253-5.146-3.338-7.6495-0.97357-2.2253-1.8081-4.3115-2.7816-6.5369-0.41725-0.83449-0.83449-1.5299-2.0862-1.2517-0.13908 0-0.41725 0-0.97358-0.13908 0.8345-0.27816 1.2517-0.41724 1.8081-0.55632-0.13908-0.41725-0.13908-0.8345-0.27817-1.1127-0.41724-1.1127-0.97357-2.2253-1.3908-3.338-0.83449-2.2253-1.8081-4.4506-2.6426-6.6759-0.55632-1.669-0.97357-3.1989-1.5299-4.8679 0-0.13908-0.13909-0.13908-0.27817-0.41725-0.13908 0.55633-0.27817 0.97357-0.27817 1.3908-0.27816 1.8081-0.55632 3.7552-0.97357 5.5633-0.69541 3.0598-1.669 5.9805-2.5035 9.0403-0.13908 0.41725 0 0.97357 0 1.3908-0.13908-0.13908-0.13908-0.27817-0.27816-0.41725-0.13908 0.41725-0.41725 0.8345-0.55632 1.2517-0.97359 3.0598-1.8081 5.9805-2.6426 9.0403-0.55634 2.0862-1.2517 4.0334-1.8081 6.1196-0.13908 0.55633-0.13908 1.2517-0.27816 1.9472 1.669-0.13909 3.338-0.27817 5.007-0.41725 4.5897-0.27817 9.1794-0.41725 13.769-0.69541 1.5299 0 3.0598-0.13908 4.7288-0.27817-0.27816-0.69541-0.55633-0.97357-0.69541-1.3908zm0 0c-1.1127-2.5035-2.2253-5.146-3.338-7.6495-0.97357-2.2253-1.8081-4.3115-2.7816-6.5369-0.41725-0.83449-0.83449-1.5299-2.0862-1.2517-0.13908 0-0.41725 0-0.97358-0.13908 0.8345-0.27816 1.2517-0.41724 1.8081-0.55632-0.13908-0.41725-0.13908-0.8345-0.27817-1.1127-0.41724-1.1127-0.97357-2.2253-1.3908-3.338-0.83449-2.2253-1.8081-4.4506-2.6426-6.6759-0.55632-1.669-0.97357-3.1989-1.5299-4.8679 0-0.13908-0.13909-0.13908-0.27817-0.41725-0.13908 0.55633-0.27817 0.97357-0.27817 1.3908-0.27816 1.8081-0.55632 3.7552-0.97357 5.5633-0.69541 3.0598-1.669 5.9805-2.5035 9.0403-0.13908 0.41725 0 0.97357 0 1.3908-0.13908-0.13908-0.13908-0.27817-0.27816-0.41725-0.13908 0.41725-0.41725 0.8345-0.55632 1.2517-0.97359 3.0598-1.8081 5.9805-2.6426 9.0403-0.55634 2.0862-1.2517 4.0334-1.8081 6.1196-0.13908 0.55633-0.13908 1.2517-0.27816 1.9472 1.669-0.13909 3.338-0.27817 5.007-0.41725 4.5897-0.27817 9.1794-0.41725 13.769-0.69541 1.5299 0 3.0598-0.13908 4.7288-0.27817-0.27816-0.69541-0.55633-0.97357-0.69541-1.3908zm0 0c-1.1127-2.5035-2.2253-5.146-3.338-7.6495-0.97357-2.2253-1.8081-4.3115-2.7816-6.5369-0.41725-0.83449-0.83449-1.5299-2.0862-1.2517-0.13908 0-0.41725 0-0.97358-0.13908 0.8345-0.27816 1.2517-0.41724 1.8081-0.55632-0.13908-0.41725-0.13908-0.8345-0.27817-1.1127-0.41724-1.1127-0.97357-2.2253-1.3908-3.338-0.83449-2.2253-1.8081-4.4506-2.6426-6.6759-0.55632-1.669-0.97357-3.1989-1.5299-4.8679 0-0.13908-0.13909-0.13908-0.27817-0.41725-0.13908 0.55633-0.27817 0.97357-0.27817 1.3908-0.27816 1.8081-0.55632 3.7552-0.97357 5.5633-0.69541 3.0598-1.669 5.9805-2.5035 9.0403-0.13908 0.41725 0 0.97357 0 1.3908-0.13908-0.13908-0.13908-0.27817-0.27816-0.41725-0.13908 0.41725-0.41725 0.8345-0.55632 1.2517-0.97359 3.0598-1.8081 5.9805-2.6426 9.0403-0.55634 2.0862-1.2517 4.0334-1.8081 6.1196-0.13908 0.55633-0.13908 1.2517-0.27816 1.9472 1.669-0.13909 3.338-0.27817 5.007-0.41725 4.5897-0.27817 9.1794-0.41725 13.769-0.69541 1.5299 0 3.0598-0.13908 4.7288-0.27817-0.27816-0.69541-0.55633-0.97357-0.69541-1.3908zm0 0c-1.1127-2.5035-2.2253-5.146-3.338-7.6495-0.97357-2.2253-1.8081-4.3115-2.7816-6.5369-0.41725-0.83449-0.83449-1.5299-2.0862-1.2517-0.13908 0-0.41725 0-0.97358-0.13908 0.8345-0.27816 1.2517-0.41724 1.8081-0.55632-0.13908-0.41725-0.13908-0.8345-0.27817-1.1127-0.41724-1.1127-0.97357-2.2253-1.3908-3.338-0.83449-2.2253-1.8081-4.4506-2.6426-6.6759-0.55632-1.669-0.97357-3.1989-1.5299-4.8679 0-0.13908-0.13909-0.13908-0.27817-0.41725-0.13908 0.55633-0.27817 0.97357-0.27817 1.3908-0.27816 1.8081-0.55632 3.7552-0.97357 5.5633-0.69541 3.0598-1.669 5.9805-2.5035 9.0403-0.13908 0.41725 0 0.97357 0 1.3908-0.13908-0.13908-0.13908-0.27817-0.27816-0.41725-0.13908 0.41725-0.41725 0.8345-0.55632 1.2517-0.97359 3.0598-1.8081 5.9805-2.6426 9.0403-0.55634 2.0862-1.2517 4.0334-1.8081 6.1196-0.13908 0.55633-0.13908 1.2517-0.27816 1.9472 1.669-0.13909 3.338-0.27817 5.007-0.41725 4.5897-0.27817 9.1794-0.41725 13.769-0.69541 1.5299 0 3.0598-0.13908 4.7288-0.27817-0.27816-0.69541-0.55633-0.97357-0.69541-1.3908zm0 0c-1.1127-2.5035-2.2253-5.146-3.338-7.6495-0.97357-2.2253-1.8081-4.3115-2.7816-6.5369-0.41725-0.83449-0.83449-1.5299-2.0862-1.2517-0.13908 0-0.41725 0-0.97358-0.13908 0.8345-0.27816 1.2517-0.41724 1.8081-0.55632-0.13908-0.41725-0.13908-0.8345-0.27817-1.1127-0.41724-1.1127-0.97357-2.2253-1.3908-3.338-0.83449-2.2253-1.8081-4.4506-2.6426-6.6759-0.55632-1.669-0.97357-3.1989-1.5299-4.8679 0-0.13908-0.13909-0.13908-0.27817-0.41725-0.13908 0.55633-0.27817 0.97357-0.27817 1.3908-0.27816 1.8081-0.55632 3.7552-0.97357 5.5633-0.69541 3.0598-1.669 5.9805-2.5035 9.0403-0.13908 0.41725 0 0.97357 0 1.3908-0.13908-0.13908-0.13908-0.27817-0.27816-0.41725-0.13908 0.41725-0.41725 0.8345-0.55632 1.2517-0.97359 3.0598-1.8081 5.9805-2.6426 9.0403-0.55634 2.0862-1.2517 4.0334-1.8081 6.1196-0.13908 0.55633-0.13908 1.2517-0.27816 1.9472 1.669-0.13909 3.338-0.27817 5.007-0.41725 4.5897-0.27817 9.1794-0.41725 13.769-0.69541 1.5299 0 3.0598-0.13908 4.7288-0.27817-0.27816-0.69541-0.55633-0.97357-0.69541-1.3908zm0 0c-1.1127-2.5035-2.2253-5.146-3.338-7.6495-0.97357-2.2253-1.8081-4.3115-2.7816-6.5369-0.41725-0.83449-0.83449-1.5299-2.0862-1.2517-0.13908 0-0.41725 0-0.97358-0.13908 0.8345-0.27816 1.2517-0.41724 1.8081-0.55632-0.13908-0.41725-0.13908-0.8345-0.27817-1.1127-0.41724-1.1127-0.97357-2.2253-1.3908-3.338-0.83449-2.2253-1.8081-4.4506-2.6426-6.6759-0.55632-1.669-0.97357-3.1989-1.5299-4.8679 0-0.13908-0.13909-0.13908-0.27817-0.41725-0.13908 0.55633-0.27817 0.97357-0.27817 1.3908-0.27816 1.8081-0.55632 3.7552-0.97357 5.5633-0.69541 3.0598-1.669 5.9805-2.5035 9.0403-0.13908 0.41725 0 0.97357 0 1.3908-0.13908-0.13908-0.13908-0.27817-0.27816-0.41725-0.13908 0.41725-0.41725 0.8345-0.55632 1.2517-0.97359 3.0598-1.8081 5.9805-2.6426 9.0403-0.55634 2.0862-1.2517 4.0334-1.8081 6.1196-0.13908 0.55633-0.13908 1.2517-0.27816 1.9472 1.669-0.13909 3.338-0.27817 5.007-0.41725 4.5897-0.27817 9.1794-0.41725 13.769-0.69541 1.5299 0 3.0598-0.13908 4.7288-0.27817-0.27816-0.69541-0.55633-0.97357-0.69541-1.3908zm0 0c-1.1127-2.5035-2.2253-5.146-3.338-7.6495-0.97357-2.2253-1.8081-4.3115-2.7816-6.5369-0.41725-0.83449-0.83449-1.5299-2.0862-1.2517-0.13908 0-0.41725 0-0.97358-0.13908 0.8345-0.27816 1.2517-0.41724 1.8081-0.55632-0.13908-0.41725-0.13908-0.8345-0.27817-1.1127-0.41724-1.1127-0.97357-2.2253-1.3908-3.338-0.83449-2.2253-1.8081-4.4506-2.6426-6.6759-0.55632-1.669-0.97357-3.1989-1.5299-4.8679 0-0.13908-0.13909-0.13908-0.27817-0.41725-0.13908 0.55633-0.27817 0.97357-0.27817 1.3908-0.27816 1.8081-0.55632 3.7552-0.97357 5.5633-0.69541 3.0598-1.669 5.9805-2.5035 9.0403-0.13908 0.41725 0 0.97357 0 1.3908-0.13908-0.13908-0.13908-0.27817-0.27816-0.41725-0.13908 0.41725-0.41725 0.8345-0.55632 1.2517-0.97359 3.0598-1.8081 5.9805-2.6426 9.0403-0.55634 2.0862-1.2517 4.0334-1.8081 6.1196-0.13908 0.55633-0.13908 1.2517-0.27816 1.9472 1.669-0.13909 3.338-0.27817 5.007-0.41725 4.5897-0.27817 9.1794-0.41725 13.769-0.69541 1.5299 0 3.0598-0.13908 4.7288-0.27817-0.27816-0.69541-0.55633-0.97357-0.69541-1.3908zm0 0c-1.1127-2.5035-2.2253-5.146-3.338-7.6495-0.97357-2.2253-1.8081-4.3115-2.7816-6.5369-0.41725-0.83449-0.83449-1.5299-2.0862-1.2517-0.13908 0-0.41725 0-0.97358-0.13908 0.8345-0.27816 1.2517-0.41724 1.8081-0.55632-0.13908-0.41725-0.13908-0.8345-0.27817-1.1127-0.41724-1.1127-0.97357-2.2253-1.3908-3.338-0.83449-2.2253-1.8081-4.4506-2.6426-6.6759-0.55632-1.669-0.97357-3.1989-1.5299-4.8679 0-0.13908-0.13909-0.13908-0.27817-0.41725-0.13908 0.55633-0.27817 0.97357-0.27817 1.3908-0.27816 1.8081-0.55632 3.7552-0.97357 5.5633-0.69541 3.0598-1.669 5.9805-2.5035 9.0403-0.13908 0.41725 0 0.97357 0 1.3908-0.13908-0.13908-0.13908-0.27817-0.27816-0.41725-0.13908 0.41725-0.41725 0.8345-0.55632 1.2517-0.97359 3.0598-1.8081 5.9805-2.6426 9.0403-0.55634 2.0862-1.2517 4.0334-1.8081 6.1196-0.13908 0.55633-0.13908 1.2517-0.27816 1.9472 1.669-0.13909 3.338-0.27817 5.007-0.41725 4.5897-0.27817 9.1794-0.41725 13.769-0.69541 1.5299 0 3.0598-0.13908 4.7288-0.27817-0.27816-0.69541-0.55633-0.97357-0.69541-1.3908zm0 0c-1.1127-2.5035-2.2253-5.146-3.338-7.6495-0.97357-2.2253-1.8081-4.3115-2.7816-6.5369-0.41725-0.83449-0.83449-1.5299-2.0862-1.2517-0.13908 0-0.41725 0-0.97358-0.13908 0.8345-0.27816 1.2517-0.41724 1.8081-0.55632-0.13908-0.41725-0.13908-0.8345-0.27817-1.1127-0.41724-1.1127-0.97357-2.2253-1.3908-3.338-0.83449-2.2253-1.8081-4.4506-2.6426-6.6759-0.55632-1.669-0.97357-3.1989-1.5299-4.8679 0-0.13908-0.13909-0.13908-0.27817-0.41725-0.13908 0.55633-0.27817 0.97357-0.27817 1.3908-0.27816 1.8081-0.55632 3.7552-0.97357 5.5633-0.69541 3.0598-1.669 5.9805-2.5035 9.0403-0.13908 0.41725 0 0.97357 0 1.3908-0.13908-0.13908-0.13908-0.27817-0.27816-0.41725-0.13908 0.41725-0.41725 0.8345-0.55632 1.2517-0.97359 3.0598-1.8081 5.9805-2.6426 9.0403-0.55634 2.0862-1.2517 4.0334-1.8081 6.1196-0.13908 0.55633-0.13908 1.2517-0.27816 1.9472 1.669-0.13909 3.338-0.27817 5.007-0.41725 4.5897-0.27817 9.1794-0.41725 13.769-0.69541 1.5299 0 3.0598-0.13908 4.7288-0.27817-0.27816-0.69541-0.55633-0.97357-0.69541-1.3908zm0 0c-1.1127-2.5035-2.2253-5.146-3.338-7.6495-0.97357-2.2253-1.8081-4.3115-2.7816-6.5369-0.41725-0.83449-0.83449-1.5299-2.0862-1.2517-0.13908 0-0.41725 0-0.97358-0.13908 0.8345-0.27816 1.2517-0.41724 1.8081-0.55632-0.13908-0.41725-0.13908-0.8345-0.27817-1.1127-0.41724-1.1127-0.97357-2.2253-1.3908-3.338-0.83449-2.2253-1.8081-4.4506-2.6426-6.6759-0.55632-1.669-0.97357-3.1989-1.5299-4.8679 0-0.13908-0.13909-0.13908-0.27817-0.41725-0.13908 0.55633-0.27817 0.97357-0.27817 1.3908-0.27816 1.8081-0.55632 3.7552-0.97357 5.5633-0.69541 3.0598-1.669 5.9805-2.5035 9.0403-0.13908 0.41725 0 0.97357 0 1.3908-0.13908-0.13908-0.13908-0.27817-0.27816-0.41725-0.13908 0.41725-0.41725 0.8345-0.55632 1.2517-0.97359 3.0598-1.8081 5.9805-2.6426 9.0403-0.55634 2.0862-1.2517 4.0334-1.8081 6.1196-0.13908 0.55633-0.13908 1.2517-0.27816 1.9472 1.669-0.13909 3.338-0.27817 5.007-0.41725 4.5897-0.27817 9.1794-0.41725 13.769-0.69541 1.5299 0 3.0598-0.13908 4.7288-0.27817-0.27816-0.69541-0.55633-0.97357-0.69541-1.3908zm0 0c-1.1127-2.5035-2.2253-5.146-3.338-7.6495-0.97357-2.2253-1.8081-4.3115-2.7816-6.5369-0.41725-0.83449-0.83449-1.5299-2.0862-1.2517-0.13908 0-0.41725 0-0.97358-0.13908 0.8345-0.27816 1.2517-0.41724 1.8081-0.55632-0.13908-0.41725-0.13908-0.8345-0.27817-1.1127-0.41724-1.1127-0.97357-2.2253-1.3908-3.338-0.83449-2.2253-1.8081-4.4506-2.6426-6.6759-0.55632-1.669-0.97357-3.1989-1.5299-4.8679 0-0.13908-0.13909-0.13908-0.27817-0.41725-0.13908 0.55633-0.27817 0.97357-0.27817 1.3908-0.27816 1.8081-0.55632 3.7552-0.97357 5.5633-0.69541 3.0598-1.669 5.9805-2.5035 9.0403-0.13908 0.41725 0 0.97357 0 1.3908-0.13908-0.13908-0.13908-0.27817-0.27816-0.41725-0.13908 0.41725-0.41725 0.8345-0.55632 1.2517-0.97359 3.0598-1.8081 5.9805-2.6426 9.0403-0.55634 2.0862-1.2517 4.0334-1.8081 6.1196-0.13908 0.55633-0.13908 1.2517-0.27816 1.9472 1.669-0.13909 3.338-0.27817 5.007-0.41725 4.5897-0.27817 9.1794-0.41725 13.769-0.69541 1.5299 0 3.0598-0.13908 4.7288-0.27817-0.27816-0.69541-0.55633-0.97357-0.69541-1.3908zm0 0c-1.1127-2.5035-2.2253-5.146-3.338-7.6495-0.97357-2.2253-1.8081-4.3115-2.7816-6.5369-0.41725-0.83449-0.83449-1.5299-2.0862-1.2517-0.13908 0-0.41725 0-0.97358-0.13908 0.8345-0.27816 1.2517-0.41724 1.8081-0.55632-0.13908-0.41725-0.13908-0.8345-0.27817-1.1127-0.41724-1.1127-0.97357-2.2253-1.3908-3.338-0.83449-2.2253-1.8081-4.4506-2.6426-6.6759-0.55632-1.669-0.97357-3.1989-1.5299-4.8679 0-0.13908-0.13909-0.13908-0.27817-0.41725-0.13908 0.55633-0.27817 0.97357-0.27817 1.3908-0.27816 1.8081-0.55632 3.7552-0.97357 5.5633-0.69541 3.0598-1.669 5.9805-2.5035 9.0403-0.13908 0.41725 0 0.97357 0 1.3908-0.13908-0.13908-0.13908-0.27817-0.27816-0.41725-0.13908 0.41725-0.41725 0.8345-0.55632 1.2517-0.97359 3.0598-1.8081 5.9805-2.6426 9.0403-0.55634 2.0862-1.2517 4.0334-1.8081 6.1196-0.13908 0.55633-0.13908 1.2517-0.27816 1.9472 1.669-0.13909 3.338-0.27817 5.007-0.41725 4.5897-0.27817 9.1794-0.41725 13.769-0.69541 1.5299 0 3.0598-0.13908 4.7288-0.27817-0.27816-0.69541-0.55633-0.97357-0.69541-1.3908zm0 0c-1.1127-2.5035-2.2253-5.146-3.338-7.6495-0.97357-2.2253-1.8081-4.3115-2.7816-6.5369-0.41725-0.83449-0.83449-1.5299-2.0862-1.2517-0.13908 0-0.41725 0-0.97358-0.13908 0.8345-0.27816 1.2517-0.41724 1.8081-0.55632-0.13908-0.41725-0.13908-0.8345-0.27817-1.1127-0.41724-1.1127-0.97357-2.2253-1.3908-3.338-0.83449-2.2253-1.8081-4.4506-2.6426-6.6759-0.55632-1.669-0.97357-3.1989-1.5299-4.8679 0-0.13908-0.13909-0.13908-0.27817-0.41725-0.13908 0.55633-0.27817 0.97357-0.27817 1.3908-0.27816 1.8081-0.55632 3.7552-0.97357 5.5633-0.69541 3.0598-1.669 5.9805-2.5035 9.0403-0.13908 0.41725 0 0.97357 0 1.3908-0.13908-0.13908-0.13908-0.27817-0.27816-0.41725-0.13908 0.41725-0.41725 0.8345-0.55632 1.2517-0.97359 3.0598-1.8081 5.9805-2.6426 9.0403-0.55634 2.0862-1.2517 4.0334-1.8081 6.1196-0.13908 0.55633-0.13908 1.2517-0.27816 1.9472 1.669-0.13909 3.338-0.27817 5.007-0.41725 4.5897-0.27817 9.1794-0.41725 13.769-0.69541 1.5299 0 3.0598-0.13908 4.7288-0.27817-0.27816-0.69541-0.55633-0.97357-0.69541-1.3908zm493.05-20.445c0.69542-1.5299 1.9472-2.2253 3.477-2.5035 0.69542-0.13908 1.2517-0.41724 2.0862-0.83449-0.27817-0.13908-0.41725-0.27817-0.55633-0.27817-1.8081 0-3.477 0.41725-5.007 1.3908-0.41724 0.27817-1.2517 0.41725-1.8081 0.27817-0.41725-0.13908-0.55633-0.8345-0.69541-1.2517-0.27817-0.97357-0.27817-1.8081-0.55633-2.7816-0.41725-2.0862-1.2517-4.1725-0.41725-6.2587v-0.13908c0.41725-0.97357 0.55634-2.0862 1.2517-2.9207 0.83449-0.97357 2.0862-1.8081 3.1989-2.6426 0 0-0.27816-0.27816-0.41724-0.27816-1.1127-0.13908-2.2253-0.13908-3.338-0.27816-0.27816 0-0.55632-0.13908-0.97357-0.27816 0.27816-0.27816 0.41725-0.41724 0.69541-0.69541 0.27816-0.13908 0.69541-0.13908 0.83449-0.27816 0.69541-0.55633 1.669-0.83449 1.9472-1.9471-1.1127 0.41724-2.0862 0.69541-3.0598 1.1127-0.13909-0.13908-0.13909-0.27816-0.27817-0.41725 0.41725-0.41725 0.83449-0.83449 1.2517-1.1127 0.55633-0.27816 1.1126-0.55633 1.669-0.69541 0-0.27816-0.13909-0.55633-0.13909-0.83449 0.13909-1.1127 0.27817-2.0862 0.41725-3.1989 0-0.41725-0.13908-0.97358-0.13908-1.3908-0.41725 0.13908-0.8345 0.41724-1.2517 0.55633-0.27816 0.13908-0.55633 0.13908-0.8345 0.27816-0.13908-0.27816-0.27815-0.55633-0.27815-0.83449-0.13909-0.97358-0.13909-1.9472-0.27817-2.9207-0.13908-0.69541-0.69542-1.1127-1.5299-0.83449h-0.41725c0.41725-0.97357 0.69541-1.9471 1.1126-2.7816 0-0.13908 0.13908-0.27816 0.13908-0.41725 0.69542-0.97357 1.5299-1.9471 2.2253-2.9207 0.13907-0.27816 0.27815-0.69541 0.27815-1.1127 0.13908-0.83449 0.13908-1.669 0.13908-2.3644 0-0.55633 0.13909-1.2517-0.13908-1.669-0.97357-1.5299 0.27817-3.1989-0.41724-4.8679 1.1127-1.9471-0.27816-4.1725 0.55632-6.1196 0.13909-0.13908-0.13908-0.41725-0.27816-0.69541-0.69541-0.97357-0.69541-1.9471-0.27816-3.0598 0.13909-0.27816 0.13909-0.69541 0-0.83449-1.669-1.8081 0-3.8943-0.27816-5.7024 0-0.13908 0.13908-0.13908 0.13908-0.27816 0.13908-0.41725 0.41724-0.83449 0.41724-1.2517-0.13907-1.3908-0.41724-2.6426-0.69541-3.8943-0.13908-0.41725-0.27816-0.83449-0.27816-1.2517 0.13908-0.97357 0.41725-1.8081 0.55633-2.7816 0.13908-1.8081 1.9471-3.338 1.1126-5.4242-0.13908-0.13908 0.13909-0.41725 0.13909-0.69541v-0.69541c-0.13909-0.83449-0.27817-1.669-0.41725-2.5035-0.13909-0.27816-0.27817-0.69541-0.55632-0.83449-1.1127-0.13908-2.3644-0.41725-3.6162-0.41725-2.9207 0.13908-5.8414 0.41725-8.7622 0.55633-2.6426 0.27816-5.2851 0-8.0668 0.41725-2.7816 0.55633-5.5633 0.69541-8.484 0.83449-3.1989 0.13908-6.3978 0.27816-9.5967 0.41725-3.477 0.13908-6.9541 0.41725-10.431 0.69541-2.7816 0.13908-5.4242 0.27816-8.2058 0.41725-3.338 0.13908-6.5369 0.27816-9.8748 0.41725-1.8081 0-3.7552 0.13908-5.5633 0.27816-3.4771 0.13908-6.815 0.41725-10.292 0.69541-2.0862 0.13908-4.1725 0.13908-6.1196 0.27816-3.0598 0.27816-6.1196 0.83449-9.1794 1.1127-2.7816 0.13908-5.4242 0.55633-8.2058 1.1127-2.0862 0.41725-4.0334 0.41725-6.1196 0.69541-0.41724 0-0.83449 0-1.2517 0.13908-2.3644 0.27816-4.7288 0.69541-7.0932 0.97358-1.8081 0.27816-3.6161 0.55633-5.4242 0.69541-1.669 0.27816-3.338 0.55633-4.8679 0.69541-1.669 0.13908-3.477 0.27816-5.146 0.41725-2.3644 0.27816-4.5897 0.83449-6.9541 1.1127-2.3644 0.27816-4.7288 0.41725-7.0932 0.69541-3.8943 0.41725-7.7886 0.83449-11.683 1.2517-0.97357 0.13908-2.0862 0.13908-3.0598 0.55633-1.669 0.55633-3.338 0.97357-5.146 0.83449-1.5299-0.13908-3.0598 0-4.5897 0.13908-3.477 0.13908-6.9541 0.41725-10.431 0.55633-2.0862 0.13908-4.0334 0-6.1196 0.13908-3.1989 0.13908-6.3978 0.41725-9.5966 0.69541-2.6426 0.13908-5.146 0.27816-7.7886 0.27816-2.9207 0.13908-5.8414 0.13908-8.7622 0.13908-2.0862 0-4.3115 0-6.3978 0.13908-3.6161 0.13908-7.0932 0.27816-10.709 0.41725-2.2253 0.13908-4.4506 0.13908-6.5369 0.13908-3.1989 0.13908-6.3978 0.13908-9.7357 0.27816-3.477 0.13908-7.0932 0.27816-10.57 0.41725-2.7816 0.13908-5.7024 0.13908-8.484 0.13908-4.1724 0.13908-8.2058 0.13908-12.378 0.27816-2.7816 0-5.5633 0-8.3449 0.13908-4.1725 0-8.2058 0.13908-12.378 0.27816-2.6426 0-5.2851 0.13908-7.9277 0.13908-2.7816 0-5.5633 0-8.3449 0.13908-2.6426 0-5.2851 0.13908-7.9277 0.13908-4.1725 0.13908-8.3449 0.27816-12.517 0.27816-2.6426 0-5.4242 0-8.0668 0.13908h-9.8748-8.0668c-1.9472 0-3.7552-0.13908-5.7024 0-3.0598 0-6.1196 0.27816-9.1794 0.27816-2.7816 0-5.4242 0-8.2058 0.13908-2.7816 0-5.4242 0.13908-8.2058 0.13908h-8.2058-10.014c-3.338 0.13908-6.815 0.27816-10.153 0.27816-2.7816 0.13908-5.7024 0-8.484 0.13908-2.7816 0-5.4242 0.13908-8.2058 0.27816-2.9207 0.13908-5.8414 0.13908-8.6231 0.13908-2.0862 0-4.3115 0.13908-6.3978 0.13908-1.3908 0-2.9207 0-4.3116 0.13908-3.0598 0.27816-6.1196 0.69541-9.3185 0.97357-2.6426 0.27816-5.4242 0.27816-8.0668 0.55633-2.7816 0.13908-5.5633 0.41725-8.2058 0.55633-2.7816 0.27816-5.4242 0.55633-8.2058 0.83449-2.7816 0.27816-5.5633 0.41725-8.2058 0.69541-2.6426 0.27816-5.2851 0.41725-7.9277 0.69541-2.7816 0.27816-5.5633 0.41725-8.2058 0.69541s-5.2851 0.41725-7.9277 0.69541c-4.1725 0.41724-8.3449 0.83449-12.517 1.1127-2.7816 0.27816-5.4242 0.41725-8.2058 0.55633-2.7816 0.27816-5.4242 0.41725-8.2058 0.69541-2.7816 0.27816-5.5633 0.41724-8.2058 0.55633-2.2253 0.13908-4.4506 0.13908-6.6759 0.41725-1.1127 0.13908-2.3644 0-2.7816 1.3908 0 0.27816-0.6954 0.41725-0.97357 0.41725-1.5299 0.13908-3.0598 0.13908-4.7288 0.13908-3.1989 0.13908-6.3978 0.41725-9.5967 0.55633-2.6426 0.13908-5.2851 0.13908-7.9277 0.27816-4.1725 0.13908-8.3449 0.27816-12.517 0.27816h-6.5369-0.55633c-1.8081 0.13908-3.6161 0.27816-5.4242 0.41725-2.5035 0.13908-5.146 0.13908-7.6495 0.27816-4.1725 0.13908-8.3449 0.27816-12.378 0.27816-2.7816 0-5.5633 0.13908-8.2058 0.13908-3.1989 0-6.3978 0-9.5967 0.13908-3.477 0.13908-7.0932 0.27816-10.57 0.41725-2.7816 0.13908-5.5633 0.13908-8.3449 0.13908s-5.5633 0.13908-8.3449 0.13908-5.4242 0.13908-8.2058 0.13908c-2.7816 0-5.4242 0.13908-8.2058 0.13908-2.6426 0-5.4242 0.13908-8.0668 0.13908-2.7816 0-5.5633 0.13908-8.3449 0.27816-2.6426 0-5.2851 0.13908-7.9277 0.13908-2.7816 0-5.4242 0-8.2058 0.13908-2.7816 0-5.7024 0.13908-8.484 0.27816h-10.014-6.1196-10.987-0.41724c-1.669 0-3.338 0.13908-5.007 0.13908-2.2253 0-4.5897-0.13908-6.815-0.27816h-0.69541c-0.41725 0-0.83449 0-1.2517-0.13908-0.55633-0.27816-1.2517-0.27816-1.3908 0.41725 0.41725 1.5299 0.27816 2.6426 0.13908 3.8943-0.13908 2.7816-0.69541 5.4242-3.338 7.2323-0.41725 0.27816-0.41725 0.55633 0 0.97357 1.669 1.2517 1.8081 3.1989 1.669 4.7288-0.13908 1.5299-1.1127 3.0598-1.9471 4.5897-0.41725 0.69541-0.55633 1.3908-0.41725 2.2253v1.669c0.13908 0.69541 0.69541 1.3908 0.41725 1.8081-0.69541 1.5299 0.27816 2.7816 0.55633 4.1725 0.41725 1.669 0.83449 3.1989 0.69541 4.7288-0.13908 1.8081-1.1127 3.477-1.5299 5.2851-0.41725 1.3908-0.55633 2.7816-0.69541 4.3115 0 0.41725 0.13908 0.97358 0.41725 1.3908 1.2517 2.5035 2.0862 5.007 0.13908 7.6495v0.27817c1.3908 0.41725 0.97357 1.5299 0.69541 2.3644s-0.27816 1.3908 0.83449 1.9472c-0.69541 0.41724-1.3908 0.69541-2.0862 0.97357 0.41725 0.41724 0.83449 0.83449 1.1127 1.2517 0.55633 0.69541 1.2517 1.3908 1.5299 2.0862 0.27816 1.2517 0.41725 2.5035 0.41725 3.7552-0.13908 2.2253-0.41725 4.4506-1.669 6.5369-0.13908 0.13908-0.13908 0.27816-0.13908 0.41724-0.27816 1.2517-0.69541 1.5299-1.9471 1.5299 0 0.13908 0.13908 0.27817 0.13908 0.41725 1.669 1.5299 2.0862 3.477 2.9207 5.4242 0.83449 1.8081 1.1127 3.6161 1.3908 5.5633 0.27816 1.8081 0.13908 3.7552 0.13908 5.5633 0 1.8081-0.13908 3.6161-0.41725 5.4242-0.27816 1.8081-0.83449 3.4771-1.3908 5.146-0.41725 1.9472-1.1127 1.9472 1.3908 3.1989 1.1127 0.55632 2.2253 2.6426 1.8081 3.477-0.55633 1.1126-0.27816 2.2253 0.13908 3.338 0.27816 0.83449 0.97357 1.8081 0.27816 2.7816-0.13908 0.13908 0.27816 0.55633 0.41725 0.83449 0.27816 0.55633 0.69541 0.97358 1.1127 1.8081-0.69541 0-0.97357-0.13908-1.3908-0.13908 0.13908 0.41725 0.41725 0.83448 0.41725 1.1126 0.13908 0.8345 0.27816 1.5299 0.41725 2.3644 0 0.55633-0.27816 0.97358-0.97357 0.69541-0.27816 0-0.41725-0.13908-0.83449-0.13908 1.1127 1.8081 1.1127 3.477 0.27816 5.146-0.13908 0.27816 0.13908 0.55632 0.13908 0.83448 0.13908 0.69542 0.55633 1.1127 0 1.9472-0.41725 0.6954-0.13908 1.8081-0.13908 2.6426 0 0.13908 0.13908 0.27817 0.27816 0.27817 1.1127 0.27816 2.0862 0.41724 3.1989 0.55633 0.69541 0.13908 1.3908 0.13908 1.9471 0.55632 1.8081 1.2517 3.8943 1.3908 5.8414 1.669 1.669 0.27816 3.338 0 5.007 0h9.1794c2.0862 0 4.1725 0 6.1196-0.13908 3.1989-0.13909 6.2587-0.27817 9.4576-0.27817 2.6426-0.13908 5.2851-0.13908 7.9277-0.13908 3.1989-0.13908 6.2587-0.13908 9.4576-0.27816 2.2253 0 4.5897-0.13908 6.815-0.13908 3.0598 0 6.1196 0 9.1794-0.13909 3.8943-0.13908 7.6495-0.27816 11.405-0.41725 2.7816-0.13908 5.5633-0.13908 8.3449-0.27816 2.7816-0.13908 5.5633-0.27816 8.2058-0.55633 2.6426-0.13908 5.4242-0.41724 8.0668-0.55633 2.0862-0.13908 4.1725-0.13908 6.2587-0.27815 1.669-0.13909 3.1989-0.27817 4.8679-0.41725 1.3908-0.13909 2.9207-0.13909 4.3116-0.13909 3.6161-0.13908 7.0932-0.27816 10.709-0.41725h5.5633c3.0598-0.13908 6.2587-0.41724 9.3185-0.55632 2.6426-0.13908 5.2851-0.27817 7.9277-0.41725 4.1725-0.27817 8.3449-0.55632 12.378-0.83449 2.3644-0.13908 4.5897-0.27816 6.9541-0.41725 1.5299-0.13908 2.9207-0.13908 4.4506-0.27816 3.1989-0.27816 6.3978-0.55633 9.5967-0.83449 2.2253-0.13909 4.4506-0.27817 6.5368-0.41725 3.0598-0.27816 6.2587-0.55632 9.3185-0.83449 3.0598-0.27817 6.1196-0.27817 9.1794-0.55633 3.6161-0.27816 7.3713-0.55633 10.987-0.83449 2.2253-0.13909 4.4506-0.27817 6.6759-0.27817 1.2517 0 2.3644 0 3.6161-0.13908 2.0862-0.13908 4.1725-0.41724 6.2587-0.55633 2.6426-0.27816 5.4242-0.41724 8.0668-0.55633 4.1724-0.27815 8.3449-0.55632 12.517-0.6954 2.6426-0.13909 5.2851-0.27817 7.7886-0.41725 3.6161-0.13909 7.3714-0.41724 11.127-0.55633 1.5299-0.13908 2.9207-0.13908 4.4506-0.27816 3.1989-0.27817 6.3978-0.55633 9.4576-0.69542 2.6426-0.13907 5.146-0.27815 7.7886-0.41724 2.7816-0.13908 5.5633-0.27816 8.3449-0.41725 2.2253-0.13908 4.5897-0.27816 6.815-0.27816 1.3908-0.13909 2.7816-0.13909 4.3116-0.27816 3.0598-0.27817 6.2587-0.41725 9.3185-0.69542 2.6426-0.13908 5.4242-0.27816 8.0668-0.41725 4.1725-0.13907 8.484-0.41723 12.656-0.55632 2.6426-0.13908 5.146-0.27816 7.7886-0.41725 4.1725-0.27816 8.484-0.41724 12.656-0.6954 2.6426-0.13909 5.146-0.27817 7.7886-0.41725 2.9207-0.13909 5.7024-0.27817 8.6231-0.41725l7.9277-0.41724c3.0598-0.13908 6.2587-0.27817 9.3185-0.41725 2.3644-0.13908 4.5897-0.27817 6.9541-0.41725 2.9207-0.13907 5.8414-0.27816 8.7622-0.41724 2.0862-0.13908 4.3116-0.13908 6.3978-0.27817 1.3908 0 2.9207-0.13908 4.3115-0.13908 3.4771-0.13908 6.9541-0.41725 10.431-0.69541 1.9472-0.13908 3.8943-0.13908 5.8414-0.13908 1.3908 0 2.7816 0 4.3116-0.13908 3.1989-0.27817 6.2587-0.55633 9.4576-0.69542 2.2253-0.13907 4.3115-0.13907 6.5369-0.13907 1.5299 0 2.9207-0.13908 4.4506-0.13908 3.1989-0.13909 6.3978-0.41725 9.5967-0.55634 3.6161-0.13908 7.3713-0.13908 10.987-0.27816 3.0598-0.13909 6.1196-0.41724 9.1794-0.55633 2.0862-0.13908 4.3115 0 6.3978 0h0.83449c2.2253-0.13908 4.5897-0.27816 6.815-0.41725h1.1127c1.8081-0.13908 3.7552-0.27816 5.5633-0.41724 2.0862-0.13908 4.3116-0.13908 6.3978-0.27816 1.5299 0 2.9207-0.13908 4.4506-0.13908 3.477-0.13909 7.0932-0.27817 10.57-0.41725 1.9472-0.13909 3.7552 0 5.7024-0.13909 3.1989-0.13908 6.3978-0.41724 9.5966-0.55632 2.5035-0.13908 5.146-0.13908 7.6495-0.27817 4.1725-0.13908 8.2058-0.27816 12.378-0.55633 2.7816-0.13908 5.5633-0.27815 8.3449-0.27815 3.4771-0.13909 6.9541-0.13909 10.431-0.27817 0.41725 0 0.97357-0.13908 1.3908-0.13908 1.5299 0 3.0598-0.13909 4.5897 0 1.8081 0.13908 3.6161 0.6954 5.4242 0.6954 2.2253 0.13908 4.4506-0.13908 6.815-0.27815 4.1725-0.27817 8.2058-0.55634 12.378-0.69542 2.9207-0.13908 5.7024-0.41725 8.6231-0.55632 2.7816-0.13909 5.4242-0.13909 8.2058-0.27817 2.6426-0.13908 5.146-0.27817 7.7886-0.41725 4.1725-0.27817 8.3449-0.41725 12.517-0.69541l7.9277-0.41724c2.9207-0.13909 5.8414-0.27817 8.6231-0.41725 2.6426-0.13909 5.2851-0.27816 7.9277-0.41724 2.9207-0.13909 5.9805-0.41725 8.9012-0.55634 2.5035-0.13908 4.8679-0.27816 7.3714-0.41725 2.7816-0.13907 5.4242-0.27815 8.2058-0.41724 2.7816-0.13908 5.4242-0.27816 8.2058-0.27816 2.7816-0.13908 5.4242-0.27817 8.2058-0.41725 2.7816-0.13908 5.7024-0.13908 8.484-0.27816 2.6426-0.13908 5.2851-0.27816 7.7886-0.41725 4.1725-0.27816 8.3449-0.55633 12.378-0.69541 2.6426-0.13908 5.2851-0.41724 7.9277-0.41724 3.6162 0 7.0932-0.41725 10.709-0.97357 0.41725 0 0.83449-0.41725 1.1126-0.69542 0.83449-1.2517 1.5299-2.5035 2.2253-3.8943 0.27817-0.41724 0.41725-0.97357 0.69542-1.3908 0.69541-1.3908 0.97357-2.9207 1.9471-4.1725 0.83449-1.1126 0.97358-2.2253 0.97358-3.338 0.13908-1.9472-0.13909-3.7552-0.13909-5.7024v-4.5897c0-0.41725 0-0.97358-0.13907-1.3908-1.1127-2.5035-2.2253-4.8679-3.338-7.3714-0.27816-0.55633-0.6954-1.1127-0.6954-1.669-0.13908-1.9472-0.13908-3.7552-0.27817-5.7024 0-0.27816-0.13908-0.69541-0.13908-0.97357-0.41725-1.5299-0.69541-3.1989-0.13908-4.7288 0.41725-2.3644 1.5299-4.4506 2.5035-6.5369zm-706.82 34.771v0.41725c-0.27816 0-0.55633 0.13908-0.83449 0.13908-1.5299-0.13908-2.2253 0.69541-3.0598 1.669-0.83449 0.83449-1.669 1.8081-2.5035 2.6426-1.8081 1.8081-3.4771 3.7552-5.2851 5.5633-0.55633 0.55633-1.1127 1.1126-1.669 1.669-1.8081 1.669-3.6161 3.338-5.4242 5.146-1.5299 1.669-2.9207 3.338-4.4506 5.007-0.83449 0.83449-1.669 1.669-2.5035 2.5035-1.8081 1.9472-3.6161 3.8943-5.4242 5.8414-0.13908 0.13908-0.27816 0.27816-0.69541 0.55633-0.13908-0.8345-0.13908-1.5299-0.13908-2.2253-0.13908-1.3908-0.13908-2.7816-0.27816-4.1725 0-0.27816-0.27816-0.55633-0.55633-0.8345-0.27816-0.27815-0.41725-0.55632-0.83449-0.83448 0.55633-0.13909 0.83449-0.27817 1.1127-0.27817v-1.5299c0-0.41724 0-0.83448-0.69541-1.1126-0.55633-0.13908-0.55633-0.69541 0-0.97357 0.55633-0.13909 0.41725-0.41725 0.41725-0.83449-0.13908-1.5299-0.13908-2.9207-0.27816-4.4506 0-0.41724-0.41724-0.83449-0.55633-1.3908 0.69541-0.55632 1.1127-2.0862 0.27816-2.9207-0.83449-0.8345-0.83449-1.1127 0-1.9472 0.27816-0.27815 0-1.1126-0.13908-1.669-0.13908-0.41725-0.69541-0.69542-1.1127-1.2517 0 0 0.13908-0.27817 0.27816-0.27817 0.97358-0.27817 0.97358-0.83449 0.83449-1.5299 0-0.41725 0-1.1127 0.27816-1.3908 2.9207-3.0598 5.8414-5.9805 8.7622-8.9012 2.2253-2.3644 4.4506-4.5897 6.6759-7.0932-0.55633-0.55633-1.1127-1.1127-1.8081-1.5299-1.5299-1.2517-3.0598-2.6426-4.5897-3.8943-0.55633-0.41724-1.1127-0.55632-1.8081-0.83449-0.27816-0.13908-0.55633-0.27817-0.55633-0.41725-0.55633-1.3908-1.8081-2.2253-2.9207-3.1989-0.83449-0.55633-1.5299-1.2517-2.2253-1.8081-0.97357-0.6954-1.8081-1.3908-2.7816-2.0862-0.55633-0.41725-0.97358-0.83449-0.97358-1.669-0.13908-3.338-0.41724-6.5368-0.69541-9.8748-0.13908-1.5299-0.13908-2.9207-0.27816-4.4506-0.13908-3.4771-0.27816-6.815-0.41725-10.292 0-1.2517-0.13908-2.3644-0.27816-3.6161 1.2517 0.69541 1.8081 1.2517 1.5299 1.9471 1.8081 0.27816 2.9207 1.669 4.1725 2.7816 1.2517 1.1127 2.5035 1.9472 3.7552 3.0598 1.5299 1.2517 2.7816 2.6426 4.3115 3.8943 1.8081 1.5299 3.6161 2.9207 5.2851 4.3115 0.55633 0.41725 0.97358 0.83449 1.5299 1.2517 0.41725 0.27817 0.97357 0.41725 1.3908 0.69542 0.41725 0.27816 0.69541 0.69541 1.1127 0.97357 0.13908 0.13908 0.13908 0.41724 0.27816 0.41724 2.7816 2.3644 5.4242 4.5897 8.2058 6.9541 0.13908 0.13908 0.27816 0.27817 0.41725 0.27817 2.7816 2.3644 5.7024 4.7288 8.3449 7.0932 0.97358 0.83449 1.8081 1.9471 2.7816 2.7816 0.27816-0.8345 0.55633-1.5299 1.5299-1.1127 0.41725 0.13908 0.69541 0.55632 0.97357 0.97357-0.41725 0.27817-0.83449 0.41725-1.3908 0.83449 1.9472 1.669 4.0334 3.477 6.2587 5.2851-5.007 5.2851-10.014 10.57-15.16 15.994 1.1127-0.27817 1.5299-0.27817 1.8081-0.27817zm55.633-16.829c-1.669 1.8081-3.477 3.477-5.146 5.2851-2.2253 2.2253-4.3116 4.5897-6.5369 6.9541-0.8345 0.83449-1.669 1.669-2.5035 2.5035-1.8081 1.9472-3.6161 3.8943-5.5633 5.7024-0.97357 0.97357-2.2253 1.8081-3.338 2.6426-1.5299 0.97358-3.0598 1.8081-4.5897 2.7816-0.13908 1.1126 1.1127 0.83449 1.8081 1.1126-1.1126 1.1127-2.0862 2.0862-3.1989 3.1989-0.55633 0.55633-1.1126 1.1127-1.669 1.8081-0.27816 0.41725-0.55633 0.8345-0.83449 1.2517-0.13908 0.13909-0.27816 0.27817-0.55633 0.41725-0.6954 0.55634-1.3908 1.1127-2.2253 1.8081 0.83449 0.13908 1.2517 0.27816 1.669 0.41724v0.13909c-0.13908 0-0.27817 0.13908-0.41725 0-0.83449-0.27817-1.5299-0.27817-2.2253 0.27816-0.69542 0.55633-2.2253-0.27816-2.7816-0.97357-0.69542-0.8345-1.5299-1.8081-2.3644-2.5035-0.55633-0.41725-1.2517-0.55633-1.9472-0.8345-0.41724-0.27815-0.83449-0.55632-1.2517-0.83448-0.27816-0.27817-0.41724-0.83449-0.27816-0.97358 0.41724-0.55633 0.13908-0.69541-0.41725-0.69541-0.69541 0.13908-0.83449-0.27816-0.83449-0.83449-0.13908-1.3908-0.13908-2.6426-0.27816-4.0334-0.13908-0.69541-0.55633-1.2517-0.97357-1.8081-0.27816-0.55634-0.69541-0.97359-0.83449-1.5299-0.13908-0.55633 0-0.97357 0.69541-0.97357 0.83449 0 1.1127-0.41725 0.83449-1.2517-0.13908-0.27817-0.13908-0.69542-0.13908-1.1127-0.41725 0-0.83449 0.13908-1.1127 0-0.27816-0.13908-0.55633-0.41724-0.83449-0.69541 0.27816-0.13908 0.55633-0.55632 0.69541-0.55632 1.5299 0.13907 2.5035-0.41725 3.0598-1.669 0.13908-0.27817 0.41724-0.41725 0.55633-0.55633 2.2253-2.2253 4.4506-4.3115 6.5369-6.5368 1.669-1.8081 3.338-3.6162 5.007-5.4242 0.6954-0.69541 1.5299-1.3908 2.5035-2.3644-3.338-1.2517-4.7288-4.8679-8.6231-5.5633 0.41725-1.3908-0.97358-1.8081-1.669-2.6426-0.55632-0.55632-1.2517-0.97357-1.9472-1.5299-1.5299-1.2517-2.9207-2.5035-4.4506-3.6161-1.3908-1.1127-1.5299-2.5035-1.669-4.0334 0-1.8081-0.13908-3.6161-0.27816-5.5633-0.41725 0-0.83449 0-1.2517 0.13908-0.83449 0-1.1127-0.41725-1.1127-1.1127 0-0.13908 0.69541-0.55633 1.1127-0.41725 0.83449 0.13908 1.1127-0.27817 1.1127-0.97357-0.13908-1.5299-0.13908-3.1989-0.27816-4.7288 0-0.97357-0.13908-1.9471-0.13908-3.0598 0-0.55633-0.27816-0.97358-0.55633-1.669 0.83449-2.6426-0.55633-5.7024 0-8.9013 0.83449 0.55633 1.5299 1.1127 2.3644 1.8081 2.6426 2.0862 5.146 4.3115 7.6495 6.5369 1.1127 0.97357 2.2253 1.9471 3.338 2.9207 2.5035 2.0862 5.146 4.0334 7.6495 6.1196 1.9472 1.669 3.7552 3.338 5.7024 5.007 3.338 2.7816 6.6759 5.5633 9.8748 8.484 1.1126 0.97357 2.2253 1.9471 3.477 2.7816 1.1126 0.83449 2.0862 1.669 3.1989 2.3644 0.55633 0.41725 1.3908 0.41725 1.9472 0.6954 0.41724 0.13908 0.69541 0.27817 0.41724 0.8345-0.13908 0.27816 0 0.6954 0.13909 0.83449 0.83449 0.83449 1.669 1.5299 2.6426 2.2253 0.13908 0.13908 0.27816 0.27817 0.41724 0.41725 0.55633 0.41725 1.3908 0.83449 1.3908 1.2517 0.13908 0.13908-0.41725 0.6954-0.97359 1.2517zm198.47-48.401h0.41725c0.13907 0.41724 0.41724 0.83449 0.55632 1.3908 0.97357-1.1127 1.9472-2.2253 2.9207-3.1989 0.97357-0.97358 2.2253-1.8081 3.338-2.6426 0-0.13908-0.13908-0.27816-0.13908-0.27816h-1.1127c0-0.13908-0.13908-0.13908-0.13908-0.27816 0.41725-0.13908 0.8345-0.41725 1.2517-0.41725 1.3908 0.13908 2.5035-0.41725 3.6161-1.1127 0.69542-0.41725 1.5299-0.69541 2.3644-1.1127 2.7816-1.669 5.8415-2.6426 9.1794-3.1989 2.5035-0.41725 5.007-0.97358 7.5104-1.2517 2.9207-0.27816 5.8414-0.55633 8.6231-0.55633 2.7816 0 5.7024 0.13908 8.484 0.27816 1.669 0.13908 3.477 0.27816 5.146 0.41725 1.3908 0.13908 1.5299 0.27816 1.3908 1.669-0.13908 1.8081-0.27816 3.6161-0.41724 5.2851-0.13908 3.1989-0.27816 6.2587-0.41724 9.4576 0 0.83449-0.13909 1.669-0.27817 2.5035h-0.97357c-2.2253-0.41725-4.3116-0.83449-6.5369-1.1127-1.8081-0.27816-3.7552-0.13908-5.5633-0.27816-0.41725 0-0.8345-0.13908-1.1127-0.13908-3.477-0.27816-6.815 0.27816-10.153 1.1127-0.13908 0-0.27816 0.13908-0.41725 0.27816 0.27817 0.13908 0.69541 0.27816 0.97358 0.41725v0.13908c-0.13909 0-0.41725 0-0.55633-0.13908-1.8081-0.55633-3.338 0.69541-4.4506 2.0862-0.83449 0.97357-1.1126 1.1127-2.3644 0.69541-1.1127-0.41725-2.2253-0.55633-3.477-0.83449-0.27817 0-0.55633 0-0.69542-0.13908-1.3908-1.2517-3.0598-1.3908-4.7288-1.669-1.3908-0.27816-2.7816-0.69541-4.0334-1.1127-0.41724-0.13908-0.83448-0.13908-1.1126 0-1.2517 0.41725-2.2253-0.41725-3.477-0.83449-1.3908 0.83449-2.9207 1.669-4.8679 1.1127 0.13908-2.3644 2.0862-4.1725 1.2517-6.5369zm-66.898-5.8414v0c1.9472-0.13908 3.8943-0.27816 5.8415-0.41725 0 0.13908 0 0.13908 0.13908 0.27816-2.5035 1.2517-5.007 2.6426-7.3714 3.8943-0.13907 0-0.13907-0.13908-0.27816-0.13908 0.27816-1.2517 0.69541-2.6426 1.669-3.6161zm-60.779 12.656c0.41725-0.41725 0.97357-0.69541 0.41725-1.3908-0.13909-0.13908 0.13907-0.55633 0.27815-0.83449 0.41725-0.83449 0.97359-1.669 1.2517-2.5035 0.55633-1.3908 2.0862-2.2253 3.4771-1.5299 2.7816 1.2517 5.4242 2.6426 8.0668 4.0334 1.1126 0.55633 2.0862 1.2517 3.0598 1.9471 0.41724 0.27816 0.83449 0.69541 1.2517 1.1127 0.69541 0.69541 1.3908 1.3908 2.0862 2.0862 1.1127 1.2517 2.3644 2.6426 3.338 4.0334 0.8345 1.1127 1.669 2.3644 2.6426 3.7552-3.8943 2.0862-7.3714 4.0334-10.987 5.8414-3.6161 1.8081-7.3714 3.6161-11.266 5.4242-1.669-3.7552-4.1725-6.9541-7.7886-9.0403v0.41724c-0.41724 0.27816-0.6954 0.55633-1.1126 0.69541-0.13909 0-0.27817-0.27816-0.41725-0.27816 0.27816-0.27816 0.55633-0.55633 0.8345-0.83449 0.13908-0.13908 0.41724-0.13908 0.55632-0.13908-1.2517-0.55633-2.6426-1.2517-3.8943-1.8081-0.27816-0.13908-0.55632-0.27816-0.97357-0.55633 0.8345-0.97357 1.669-1.8081 2.6426-2.6426 1.2517-1.2517 2.5035-2.3644 3.7552-3.4771 0.13909-0.13908 0.27817-0.41725 0.27817-0.55633 0.13908-1.9471 1.5299-2.7816 2.5035-3.7552zm-57.441 4.7288c1.669-0.13908 2.2253-0.83449 1.669-2.3644-0.13908-0.13908-0.55633-0.27816-0.83449-0.41724-0.27817-0.13908-0.55632-0.27816-0.83449-0.41725 0.27817-0.27816 0.41724-0.55633 0.6954-0.55633 0.69542-0.13908 0.8345-0.69541 0.8345-1.2517 0-1.669-0.13908-3.4771-0.27816-5.146v-1.1127c0.83449-0.13908 1.669-0.27816 2.5035-0.41724 2.0862-0.13908 4.3115-0.27816 6.3978-0.41725 3.0598-0.27816 5.9805-0.41725 9.0403-0.69541 2.6426-0.13908 5.2851-0.27816 7.7886-0.55633 3.0598-0.27816 6.2587-0.41725 9.3185-0.69541h1.1126 7.0932c0.55634 0 1.2517 0.13908 1.8081 0.13908 2.5035 0.27816 5.007 0.55633 7.5104 0.83449 0.41723 0 0.97357 0.27816 1.3908 0.41725-1.669 2.9207-3.338 5.8414-5.007 8.7622-0.69541 1.1127-1.5299 1.9472-2.2253 2.9207-0.41724 0.55633-0.55632 1.1127-0.97357 1.669-0.83449 1.2517-1.8081 2.5035-2.7816 3.6161-0.13908 0.27816-0.83449 0.27816-1.2517 0.27816-1.9472-0.13908-4.0334-0.41725-5.9805-0.27816-2.7816 0-5.7024 0.27816-8.484 0.41725-0.83449 0-1.5299 0.13908-2.2253 0.41724-0.13909 0-0.55634 0.41725-0.41725 0.55633 0.13908 1.9471 0.27816 3.8943 0.41725 5.8414 0.13908 1.5299 0.13908 2.9207 0.27816 4.4506 0.13908 2.0862 0.13908 4.3115 0.27816 6.3978v5.007c0 0.8345 0.27817 1.5299 0.27817 2.3644 0 0.27816-0.13909 0.55632-0.27817 0.83449 0.13908 0.41725 0.41725 0.97357 0.41725 1.3908 0.13908 2.2253 0.27817 4.4506 0.27817 6.815-0.97358 0.55633-1.9472 0.97358-2.7816 1.5299-0.97357 0.69541-1.8081 1.5299-2.7816 2.3644-0.69541 0.55633-1.5299 1.2517-2.3644 1.5299-2.6426 0.83449-4.8679 2.3644-7.3714 3.477-0.97357 0.41725-1.9472 0.55634-3.0598 0.8345s-2.3644 0.41724-3.477 0.69541c-0.41724 0-0.69541 0.13908-1.2517 0.13908-0.27817-3.8943-0.41724-7.6495-0.69541-11.405-1.2517-0.41725-1.3908-0.55633-0.41725-1.5299 0.27817-0.27817 0.41725-0.69541 0.27817-0.97358-0.13908-1.9471-0.27817-4.0334-0.41725-5.9805-0.13908-1.9472-0.27816-4.0334-0.41724-5.9805v-0.27817c0-2.0862-0.13908-4.1725-0.13908-6.2587-0.13908-2.6426-0.27817-5.4242-0.41725-8.0668-0.13908-2.2253-0.27817-4.4506-0.41725-6.6759 0-0.55633-0.13908-0.97358-0.83449-0.97358-0.41725 0-0.97357-0.27816-1.669-0.55633 0.41725-0.55633 0.55634-0.69541 0.69542-0.69541zm86.37 50.765c-0.27817 0.69541-0.55634 1.5299-0.8345 2.2253-0.27816 0.69541-0.41724 0.97358-1.3908 0.97358-1.669-0.13909-3.4771-0.13909-5.146 0.27816-0.97358 0.27817-1.8081 1.1127-2.6426 1.9472 2.6426 0.27816 5.007-1.5299 7.9277-0.69541-1.669 2.7816-3.1989 5.5633-5.4242 7.9277 0.27816 0.13908 0.41724 0.27816 0.83448 0.69541-1.5299-0.13909-2.0862 0.83449-2.7816 1.5299-2.3644 2.0862-4.7288 3.8943-7.0932 5.8414-2.5035 1.9472-5.4242 3.1989-8.2058 4.4506-2.6426 1.2517-5.2851 2.0862-8.2058 2.7816-3.0598 0.69542-6.1196 1.2517-9.1794 1.9472-0.13908 0-0.27816 0-0.69541-0.13908 0.55633-0.41725 1.1127-0.55633 1.2517-0.83449 0.27817-0.41725 0.13908-0.8345 0.27817-1.2517-2.5035 0.27816-4.8679 0.69541-7.0932 0.97358-0.27815 0.41725-0.6954 0.83448-0.97357 1.3908 0.27817 0.13908 0.41725 0.27816 0.8345 0.41724-0.13908 0-0.27817 0.13908-0.41725 0.13908-2.7816 0.13908-5.5633 0.27817-8.3449 0.41725-2.6426 0.13908-5.2851 0.13908-7.9277 0.27817h-8.7622-5.9805c0-0.69542-0.13908-1.5299-0.13908-2.5035-0.13908-1.8081-0.13908-3.6161-0.27817-5.4242 0-0.41725-0.41724-0.83449-0.41724-1.2517 0.13908-0.83449 0.27816-1.669 0.27816-2.6426 0-0.97358-0.13908-1.9472-0.13908-2.9207 0-0.97358 0-1.8081-1.3908-1.8081-0.13909 0-0.27816-0.13908-0.55633-0.27817 0.13909-0.13908 0.27817-0.27816 0.41724-0.27816 0.41725-0.13908 1.1127-0.13908 1.1127-0.27816 0.13907-0.69542 0.27816-1.5299 0.13907-2.2253-0.13907-0.69541-0.83449-0.41724-1.3908-0.27816-0.41725 0.13909-0.97358 0.13909-1.3908 0.13909 0-0.13909-0.13908-0.27817-0.13908-0.55634 0.83448-0.41725 1.669-0.6954 2.5035-1.1126 0.13909 0 0.13909 0.13908 0.27817 0.13908v-1.8081c-0.13908-1.2517-0.13908-2.5035-0.27817-3.7552 0-0.83448-0.41725-0.97357-1.2517-0.6954-1.1126 0.27816-2.0862 0.41724-3.1989 0.55632 0.69542-0.55632 2.5035 0 1.669-1.8081 1.1126-0.13908 2.0862-0.27817 3.1989-0.27817 1.8081 0.13909 3.6161-0.41725 5.2851-0.97357 1.669-0.55633 3.338-0.97357 4.8679-1.669 2.5035-1.1126 5.146-1.5299 7.7886-2.3644 1.5299-0.41725 3.0598-0.69541 4.5897-0.97357 0.27816 5.146 0.55633 10.153 0.83449 15.438 3.1989 0 6.2587 0.13908 9.3185 0 1.9472 0 4.0334-0.27816 5.8414-0.69541 1.9471-0.41725 3.8943-1.3908 5.8414-2.0862 1.8081-0.69542 3.477-1.669 5.007-2.9207 2.3644-1.8081 4.3116-4.1725 5.8414-6.6759 1.3908-2.5035 2.5035-5.2851 2.9207-8.0668 0.55633-3.338 0.97357-6.6759 0.41725-10.153-0.27817-1.5299-0.13909-3.1989-0.27817-4.7288-0.27817-1.8081-0.69542-3.4771-1.1127-5.146-0.13908-0.41725-0.13908-0.97357-0.27816-1.3908 1.669-0.55633 3.338-0.97357 4.7288-1.669 0.97357-0.55632 2.3644-0.69541 2.7816-2.0862 0.13908-0.27817 0.97357-0.41725 1.669-0.69542 1.669-0.55632 3.338-0.97357 5.007-1.669 0.83449-0.27817 1.5299-0.69542 2.2253-0.97357 0.55633-0.13908 0.69541-0.55633 0.97357-0.97358 0.55634-1.1127 1.8081-1.3908 3.0598-1.669 0.83449-0.13908 1.669-0.41725 2.6426-0.55633 0 0.13908 0.27816 0.27817 0.27816 0.55633 0.55633 1.8081 0.97358 3.477 1.3908 5.2851 0.41725 1.9472 0.8345 3.7552 1.2517 5.7024 0 0.13908 0.13908 0.41725 0.13908 0.55632 0.13909 1.9472 0.41725 3.8943 0.41725 5.8415 0.13909 2.5035 0 5.146 0.13909 7.6495 0.13908 2.2253-0.55634 4.4506-0.69542 6.6759-0.13908 0.69541-0.6954 1.5299 0.97357 1.8081-1.8081 0.6954-1.669 1.9471-2.0862 3.0598 1.3908 0.27816 2.9207-0.83449 4.1725 0.69541-1.1126 0.27817-2.0862 0.69541-3.0598 0.69541-0.97357 0.41725-1.669 0.8345-1.9471 1.9472zm95.828 22.67c-3.6161 0.27816-7.2323 0.41724-10.848 0.69541h-0.27816c-2.2253 0-4.5897 0.13908-6.815 0.27816-1.3908 0-2.7816 0.13908-4.3116 0.13908-0.55633 0-0.83449-0.13908-1.1126-0.69541-1.5299-3.7552-3.1989-7.3714-4.7288-11.127-0.69542-1.5299-1.2517-3.0598-1.8081-4.5897-0.27817-0.55633-0.55632-0.97357-1.2517-0.55633h-0.13908c-2.5035 0-5.007 0.13908-7.5104 0.13908-0.97358 0-1.8081 0.13908-2.7816 0.27817-1.3908 0.27816-2.7816 0.13908-4.1724 0.27816-2.0862 0.13909-4.3116 0.27817-6.3978 0.41724-1.3908 0.13909-2.9207 0.13909-4.3116 0.27817-2.0862 0.13908-4.3115 0.13908-6.3978 0.27817-0.69541 0-1.3908 0.13908-2.0862 0.27816-0.13908 0-0.41725 0.27817-0.55632 0.41724-0.41725 1.1127-0.69542 2.3644-1.1127 3.4771-0.55632 1.9472-0.97357 3.8943-1.5299 5.7024-0.55634 1.8081-1.1127 3.6161-1.669 5.4242-0.13908 0.27817-0.13908 0.55633-0.13908 0.83449-0.13909 1.3908-0.27817 1.5299-1.669 1.669-2.6426 0.13908-5.2851 0.27817-7.7886 0.41724-4.1725 0.13908-8.3449 0.41725-12.517 0.55633-0.55634 0-0.97359 0.13909-1.669 0.27817 0.55633-1.669 0.97357-3.1989 1.3908-4.7288 0.55632-1.669 1.1126-3.338 1.669-5.007 0.83449-2.5035 1.5299-4.8679 2.2253-7.3714 0.83449-2.6426 1.8081-5.2851 2.3644-7.9277 0.27817-1.669 1.3908-3.1989 1.1127-5.007 0-0.27817 0.27816-0.55634 0.27816-0.97358 0.55633-1.669 1.1127-3.338 1.669-4.8679 0.8345-2.9207 1.8081-5.7024 2.6426-8.6231 0.55633-1.9471 1.1127-3.8943 1.8081-5.8414 1.1127-3.6161 2.0862-7.0932 3.1989-10.709 0.41725-1.5299 0.97358-2.9207 1.3908-4.4506 0.69541-2.3644 1.3908-4.7288 2.0862-7.0932 0.41723-1.3908 0.83448-2.7816 1.2517-4.1725 0.69541-2.0862 1.3908-4.3115 2.0862-6.3978 0.41725-1.2517 1.8081-1.2517 2.9207-1.669 0.6954-0.27816 1.5299-0.27816 2.3644-0.41725 0.27816-0.13908 0.55632-0.41725 0.69541-0.83449-0.27817 0-0.55633 0.13908-0.83449 0.13908-0.13908-0.41725-0.27817-1.1127-0.13908-1.2517 1.669-0.55633 2.5035-1.9471 3.8943-2.7816 1.5299-0.97358 3.338-1.5299 5.007-2.2253 0.83449-0.41725 1.9471-0.27816 2.7816-0.69541 0.41724-0.27816 1.669-0.27816 0.97357-1.3908-0.27816-0.55633 0.27817-0.97357 0.83449-1.2517 1.669-0.69541 3.477-1.1127 5.2851-1.1127 1.669 0 3.477-0.13908 5.146-0.27816 1.3908-0.13908 1.9471 0.27816 2.2253 1.5299 0.13908 0.41725 0.13908 0.69541 0.27817 1.1127 0.27816 0.83449 0.6954 1.5299 1.8081 1.2517 0.41725-0.13908 0.8345 0.27816 1.2517 0.27816v0.41725c-0.55633 0.13908-0.97358 0.41724-1.8081 0.69541 0.41724 1.1127 0.83448 2.2253 1.2517 3.338 0.69541 1.8081 1.5299 3.6161 2.3644 5.4242 1.3908 3.0598 2.6426 5.9805 4.0334 9.0403 1.1127 2.5035 2.2253 5.007 3.338 7.5104 0.6954 1.5299 1.5299 3.1989 2.2253 4.7288 0.69541 1.669 1.3908 3.1989 2.0862 4.8679 1.3908 3.1989 2.9207 6.5369 4.3115 9.7357 1.1127 2.5035 2.2253 5.0069 3.338 7.6495 1.669 3.8943 3.4771 7.7886 5.146 11.683 0.69541 1.669 1.669 3.1989 2.3644 4.8679 0.97358 2.2253 1.669 4.3116 2.6426 6.5369 1.1127 2.6426 2.2253 5.146 3.4771 7.7886 0.55632 1.1126 1.1126 2.2253 1.669 3.477-0.69541 0-1.5299 0-2.5035 0.13908zm66.898-24.757c-0.69541 2.7816-2.0862 5.4242-3.6161 7.9277-1.669 2.7816-3.8943 5.146-6.5369 7.2323-1.8081 1.3908-3.477 2.6426-5.5633 3.7552-2.6426 1.3908-5.146 2.7816-7.9277 3.4771-2.5035 0.6954-5.146 1.3908-7.6495 1.8081-2.9207 0.41725-5.8414 0.55633-8.7622 0.83449-1.9472 0.13908-3.8943 0.27816-5.9805 0.13908-2.0862 0-4.0334-0.55632-6.1196-0.41724-2.9207 0.13908-5.7024-0.27817-8.484-0.8345-0.41724-0.13908-0.97357 0-1.5299-0.13908 0.13908-1.8081 0.27816-3.477 0.27816-5.146 0.13909-1.8081 0.13909-3.6161 0.27817-5.5633 0.13908-2.2253 0.27817-4.4506 0.41725-6.6759v-3.477c1.2517 0.27817 2.2253 0.55633 3.1989 0.83449 2.9207 0.55633 5.7024 1.5299 8.6231 1.669 4.0334 0.41725 8.2058 0.41725 12.239 0.27817 2.5035-0.13909 4.8679-0.83449 7.0932-1.9472 2.2253-1.1126 4.0334-2.6426 4.7288-5.007 0.97357-3.338 0.13908-7.7886-3.8943-10.014-2.2253-1.2517-4.4506-2.3644-6.9541-3.1989-3.0598-0.97357-6.1196-1.669-9.1794-2.7816-2.0862-0.69541-4.1725-1.5299-6.2587-2.3644-3.338-1.3908-6.3978-3.338-9.1794-5.5633-1.8081-1.5299-3.0598-3.338-4.1725-5.2851-1.669-3.0598-2.6426-6.2587-2.7816-9.7357-0.13908-1.1127-0.69541-2.2253-0.55633-3.338 0-1.1127 0.55633-2.3644 0.8345-3.4771 0.41724-0.13908 0.83449-0.27816 1.2517-0.55633 0.13908-0.13908 0.41724-0.41724 0.41724-0.55633 0-0.13908-0.27816-0.27816-0.55633-0.41725-0.27816-0.13908-0.69541-0.27816-1.1126-0.41724 0-0.27816 0-0.55633 0.13908-0.97358-1.669-0.13908-3.338-0.13908-5.146-0.27816 1.3908-1.669 2.9207-2.0862 4.7288-1.8081 0.55632 0.13908 0.97357 0.27816 1.669-0.27816 0.41724-0.27816 1.3908-0.13908 2.2253 0 0.97357 0.13908 1.8081 0.55633 2.9207 0.55633 1.2517 0 2.3644 0.55633 3.6161 0.83449 0.55632 0.13908 1.2517 0 1.9471-0.13908 0 0.13908 0.13909 0.13908 0.13909 0.27816-0.27817 0.27816-0.55634 0.41725-0.97358 0.69541 1.2517 0.13908 2.5035 0.27816 3.7552 0.55633 0.69541 0.13908 1.2517 0.55633 1.8081 0.69541 0.69542 0.27816 1.3908 0.27816 2.0862 0.55633 0.6954 0.27816 1.2517 0.83449 1.8081 1.2517 0.27817 0.13908 0.41725 0.27816 0.69542 0.27816h1.5299c1.669 0.13908 1.8081 0.41725 2.2253 2.2253 0.13907 0.83449 0.41724 1.8081 0.97357 2.3644 1.2517 1.2517 2.9207 2.3644 4.3115 3.4771 0.55633 0.41725 1.2517 0.69541 1.8081 0.8345 0.83449 0.13908 1.8081 0 2.2253 0.97357 2.9207 0.97357 5.8414 1.8081 8.7622 2.7816 1.5299 0.41724 3.0598 0.97357 4.4506 1.5299 2.3644 0.97358 4.7288 2.0862 7.0932 3.338 2.5035 1.2517 4.8679 2.6426 6.815 4.5897 2.5035 2.6426 4.5897 5.5633 5.5633 9.0403 0.6954 2.6426 1.2517 5.146 1.2517 7.7886-0.13909 2.7816-0.41725 5.2851-0.97358 7.7886zm11.405-37.413c-0.13908-1.3908-0.13908-2.6426-0.13908-4.0334 0-0.55633-0.13908-0.83449-0.8345-1.1127-2.0862-0.55633-4.1724-1.1127-6.2587-1.669-0.27816-0.13908-0.55632-0.27816-0.97357-0.41725 0.8345-0.55633 1.669-0.55633 2.2253 0 1.1127 1.2517 2.6426 1.1127 4.0334 1.3908 0.41725 0.13908 0.97357 0.13908 1.669 0.27816-0.13908-1.1127-0.13908-2.2253-0.27817-3.338-0.13908-1.3908-0.13908-2.7816-0.27816-4.1725-0.13909-1.9472-0.13909-4.0334-0.27816-5.9805-0.13908-1.669-0.13908-3.4771-0.27817-5.5633 1.1127 0.69541 1.9472 1.2517 2.7816 1.8081 0.27815 0.13908 0.6954 0.27816 0.97357 0.41724 0.6954 0.13908 0.41724 0.83449 0.41724 0.97358-0.27816 0.55633 0.13908 0.83449 0.55633 0.97358 1.8081 0.27816 3.7552 0.27816 5.5633 0.55633 1.1126 0.27816 2.0862 0.97358 3.1989 1.3908-0.13908 0.13908-0.13908 0.13908-0.27817 0.27816v1.1127h0.55634c0.6954 0.27816 1.2517 0.41725 1.8081 0.55633 0.41725 0.13908 0.69541 0.41725 1.1126 0.41725 1.5299 0.41725 2.9207 0.83449 4.4506 1.1127 0.97358 0.27816 1.1127 1.1127 1.3908 1.8081 0.27816 0.69541 0.55632 1.2517 1.3908 1.2517 0.27815 1.669 0.41724 3.338 0.6954 5.007h-1.1126c0.13908 0.41725-0.41725 0.97357 0.55633 0.83449 0.13907 0 0.41724 0.27816 0.41724 0.55633 0.13908 0.69541 0.27817 1.3908 0.27817 2.0862 0 0.69541 0 1.3908 0.13908 2.0862 0.13908 1.1127 0.27817 1.1127-0.55633 1.5299 0.13908 0.41725 0.55633 0.8345 0.55633 1.2517 0.13908 1.669 0.27817 1.669 2.0862 2.0862 1.2517 0.13907 2.3644 0.69541 3.477 1.1127-1.669-0.27817-3.338-0.69542-5.146-0.97358-0.13908 0.41725-0.27817 0.69542-0.41725 1.1127-0.97357-0.27817-1.9472-0.41725-2.7816-0.69542-1.3908-0.27817-2.9207-0.69541-4.4506-0.97357-1.669-0.27817-3.4771-0.27817-5.2851-0.41725-1.8081-0.13908-3.477-0.41724-5.2851-0.83449-1.2517-0.27817-2.3644-0.69542-3.6161-1.1127-0.41725-0.13908-0.83449-0.27817-1.2517-0.13908-0.6954 0.55632-0.83449 0.13908-0.83449-0.55633zm84.423 22.392c-0.13908 0.27817-0.13908 0.41725-0.27817 0.69542-0.27815 0.97357-0.97357 1.3908-2.0862 1.2517-0.97357 0-1.9471 0.13908-3.0598 0.27816 0.55632 0.69541 0.6954 1.1127 1.1126 1.669 0.13908-0.13908 0.27816-0.41724 0.41724-0.41724 0.55633 0.27816 1.1127 0.55632 1.8081 0.83449 0.55632 0.27817 0.69541 0.55633 0.55632 1.1127-0.97357 2.9207-2.9207 5.5633-4.4506 8.2058-0.97357 1.669-2.5035 2.9207-3.6161 4.4506-1.8081 2.3644-4.0334 4.3116-6.3978 5.9805-2.9207 2.0862-5.9805 4.0334-9.5966 5.2851-2.6426 0.83449-5.007 2.3644-7.7886 2.9207-2.0862 0.41724-4.0334 0.97357-6.1196 1.5299-0.41725 0.13909-0.8345 0-1.2517 0.13909-0.8345 0.13908-1.669 0.27816-2.5035 0.41725-0.97357 0.27816-1.9472 0.41725-2.9207-0.13909-0.27817-0.13908-0.97358 0.13909-1.3908 0.27817-0.83448 0.27817-1.5299 0.6954-2.6426 0.27817-0.83448-0.27817-2.2253-0.41725-2.9207 0-0.97358 0.6954-1.9472 0.55632-3.0598 0.6954-0.27817 0-0.69541-0.13908-0.97357-0.13908-0.55634-0.13909-0.83449-0.27817-1.5299 0-0.97357 0.41725-2.3644 0.13908-3.477 0.13908-0.55633 0-0.97357 0.13908-1.3908 0.13908-0.97357 0-1.9471 0.13909-2.9207 0.13909-0.83449 0-1.669-0.13909-2.5035-0.13909-0.41724 0-0.97358 0.13909-1.3908 0.13909-2.2253 0.13908-4.5897 0.13908-6.9541 0.13908h-2.9207c-0.83449 0-0.97357-0.41725-0.97357-1.1126 0-2.0862-0.13909-4.0334-0.27817-6.1196-0.13908-2.0862-0.27815-4.3116-0.41724-6.3978 0-0.27817 0.13909-0.55633 0.27816-0.97358-0.83449-0.27816-0.55632-1.1127-0.55632-1.8081-0.27817-2.5035-0.41725-5.007-0.41725-7.5104 0-0.69542 0.13908-1.3908 0.27816-2.0862 0 0-0.27816-0.27817-0.27816-0.41725-0.13909-2.6426-0.41724-5.2851-0.41724-7.9277-0.13909-2.0862 0-4.1725-0.13909-6.2587-0.13908-3.0598-0.55633-5.9805-0.69541-9.0403-0.13909-1.2517 0.97357-1.8081 1.9472-0.97357 1.9472 1.5299 4.3115 1.2517 6.3978 1.669 1.8081 0.41725 3.7552 0.13908 5.4242 1.5299 0.69542 0.69541 2.0862 0.69541 3.338 0.83449 1.1126 0.13908 2.2253 0.13908 3.338 0.27817 0.41725 0 0.97358-0.13908 1.3908-0.13908 1.2517-0.13908 1.8081 0.41725 1.9471 1.669 0.13908 2.9207 0.27817 5.7024 0.55633 8.484 0.13909 2.3644 0.27817 4.7288 0.41724 7.0932 0.13908 2.7816 0.27817 5.5633 0.41725 8.2058 0 0.41724 0.13908 0.69541 0.27817 1.1127 3.1989 0.55632 6.5369 0.41724 9.7357 0.13908 1.9472-0.13908 3.8943-0.27817 5.7024-0.8345 1.8081-0.41724 3.477-1.2517 5.146-1.9471 0.55633-0.27817 1.2517-0.55634 1.8081-0.69542 1.9471-0.41724 2.9207-2.0862 4.3116-3.1989 2.6426-1.9472 4.4506-4.5897 5.7024-7.5104 0.6954-1.8081 1.2517-3.6161 1.9471-5.4242 0.13908-0.55632 0.13908-1.1127 0.27817-1.5299 2.3644-0.55632 4.8679-0.13907 7.2323 0.13908 0.8345 0.13908 1.5299 0.8345 2.3644 1.2517 0.27815 0.13908 0.55632 0.27817 0.83448 0.27817 1.3908 0.13908 2.6426 0 4.0334 0.27817 1.669 0.27817 3.477 0.41725 4.7288 1.3908 1.1127 0.97357 2.0862 0.69541 3.338 0.83449h0.69542c0.97357-0.27817 0.97357-0.27817 0.55632 0.83449zm1.5299-10.57c0 1.8081-0.27816 3.6161-0.41725 5.5633 0 0.41725-0.27815 0.97358-0.41724 1.5299-1.1126-0.41724-2.0862-0.83449-3.0598-1.2517-1.2517-0.41724-2.5035-0.83449-3.6161-1.2517-0.27816-0.13908-0.41725-0.13908-0.6954-0.27817-1.9472-0.83449-3.8943-1.8081-5.9805-2.6426-1.669-0.69542-3.6161-0.97358-5.4242-1.5299-0.8345-0.27817-1.5299-0.55633-2.3644-0.8345-0.41725-0.13907-0.97358-0.27816-1.3908-0.41724-1.3908-0.27817-1.669-0.69542-1.669-2.0862-0.13908-2.5035-0.27816-4.8679-0.6954-7.3713-0.13909-1.3908-0.55634-2.9207-0.8345-4.3115-0.27817-1.1127-0.41724-1.2517-1.5299-1.3908 0.97359-1.1127 0.8345-1.1127 0.13909-2.6426-0.97358-2.3644-2.5035-4.4506-3.8943-6.5369-0.27816-0.41724-0.97357-0.55633-1.2517-0.83449-1.8081-1.8081-3.8943-3.1989-6.3978-4.0334-2.3644-0.83449-5.007-1.2517-7.5104-1.669-1.5299-0.27816-3.0598-0.55633-4.7288-0.55633-0.97357 0-2.0862 0.13908-3.0598 0.41725-0.97357 0.27816-2.0862 0.27816-3.0598 0.27816-1.8081 0.13908-3.7552 0.13908-5.5633 0.27816-0.13908 0.69541-0.13908 1.1127-0.27817 1.669-0.97357-0.27816-2.0862 0.13908-2.5035-1.1127-0.13908-0.41725-0.83448-0.69541-1.2517-0.83449-0.83449-0.27816-1.1127-1.5299-2.2253-0.97357-0.69542-1.2517-2.5035-0.55633-3.1989-1.8081-0.27816-0.41725-1.3908-0.55633-2.0862-0.83449-0.97358-0.27816-1.8081-0.41725-2.7816-0.69541-0.83449-0.27816-1.5299-0.83449-2.3644-1.1127-1.5299-0.69541-3.1989-1.3908-4.7288-1.9472-0.69542-0.27816-1.3908-0.27816-2.0862-0.55633-0.27815-0.13908-0.6954-0.27816-0.6954-0.55633 0-1.3908-1.1127-1.669-2.0862-1.9471-0.13908 0-0.27817-0.13908-0.27817-0.41725 0.69541 0.27816 1.3908 0.41725 2.3644 0.83449-0.27817-1.5299-0.41725-2.9207-0.69541-4.4506 0.13907-0.13908 0.27816-0.55633 0.55632-1.1127 0.83449-0.13908 1.669-0.27816 2.5035-0.41725 3.338-0.27816 6.6759-0.55633 10.014-0.83449 2.0862-0.13908 4.3116-0.41725 6.3978-0.55633 1.3908-0.13908 2.9207-0.13908 4.3116-0.27816 2.2253-0.13908 4.5897-0.27816 6.815-0.41725 3.1989-0.13908 6.2587-0.41725 9.4576-0.41725 1.9472 0 3.8943 0.13908 5.8414 0.27816 1.5299 0.13908 3.0598 0.13908 4.5897 0.41725 1.3908 0.13908 2.7816 0.55633 4.1725 0.83449 1.8081 0.41725 3.7552 0.83449 5.5633 1.2517 0.27817 0 0.41725 0.13908 0.69542 0.27816 3.477 1.3908 6.815 2.6426 9.8748 4.7288 0.27817 0.27816 0.83449 0.27816 1.2517 0.13908 1.1127-0.27816 1.2517-0.27816 2.5035 0.55633-0.83449 0.13908-1.3908 0.13908-2.2253 0.27816 0.55632 0.41725 1.1126 0.83449 1.5299 1.2517 1.8081 1.9471 3.6161 4.0334 5.4242 5.9805 0.69541 0.83449 1.2517 1.669 2.0862 2.5035 0.13907 0.13908 0.55632 0.13908 0.97357 0.27816 0.55632 0.13908 0.97357 0.13908 1.5299 0.27816v0.41725c-0.55633 0.13908-1.1127 0.27816-1.8081 0.41725 0.27817 0.55633 0.69541 0.97357 0.97357 1.5299 0.8345 2.0862 1.8081 4.1725 2.5035 6.3978 0.69542 2.6426 1.3908 5.2851 1.8081 8.0668 0.41724 2.5035 0.69541 5.007 0.83449 7.6495 0.27817 2.0862 0.13908 4.4506 0.13908 6.815zm11.822 7.3713c-0.27816-4.0334-0.41725-8.2058-0.69541-12.239-0.13909-3.0598-0.27817-6.1196-0.41725-9.3185-0.13908-2.5035-0.27816-5.146-0.41724-7.6495-0.13909-2.6426-0.27817-5.146-0.41725-7.7886-0.13908-2.5035-0.27817-5.007-0.41725-7.5104-0.13907-2.6426-0.27816-5.2851-0.41724-7.9277-0.13908-2.2253-0.27817-4.5897-0.41725-6.815v-0.83449c1.669-0.13908 3.1989-0.27816 4.7288-0.27816 2.2253-0.13908 4.4506-0.13908 6.6759-0.27816 2.2253-0.13908 4.3116-0.27816 6.5369-0.41724 1.8081-0.13908 3.6161 0 5.4242 0 0.13909 1.5299 0.27817 3.0598 0.27817 4.5897 0.13908 2.2253 0.13908 4.3115 0.27817 6.5369 0.13908 3.6161 0.41724 7.2323 0.6954 10.709 0.13908 2.9207 0.27817 5.8414 0.41725 8.6231 0.13908 2.5035 0.27817 5.007 0.41725 7.3714 0.13908 2.6426 0.27817 5.2851 0.41724 7.9277 0.13908 2.5035 0.27817 5.007 0.41725 7.3713 0.13908 3.0598 0.41725 6.1196 0.69541 9.1794 0.13908 1.669 0.13908 3.338 0.27816 5.0069v2.6426h-3.7552c-1.2517 0-2.6426 0-3.8943 0.13909-1.5299 0-3.0598 0.13908-4.4506 0.13908-1.8081 0-3.477-0.55633-5.007-1.5299-1.8081-1.2517-3.6161-2.5035-5.8414-3.0598-0.27817 0-0.69542-0.55632-0.69542-0.97357-0.27816-1.1127-0.27816-2.3644-0.41724-3.6161zm0.41724 7.5104c1.5299-1.2517 2.5035-0.13908 3.477 0.41725 1.3908 0.83449 2.7816 1.669 4.3116 2.2253 1.8081 0.69541 3.7552 1.5299 5.8414 1.3908 1.669-0.13908 3.4771 0.13909 5.2851 0.27817 0.83449 0 1.8081 0 2.6426-0.13908 1.669-0.27817 2.3644 0.27815 2.3644 1.9471v3.0598c-2.0862-0.41725-4.0334-0.97358-6.1196-1.3908-1.669-0.41725-3.338-0.69542-5.007-0.97357-0.13908 0-0.27816-0.13909-0.55633-0.13909-3.477-1.2517-6.9541-2.5035-10.431-3.4771-1.669-0.41724-1.8081-1.3908-1.9472-2.5035 0.13908-0.41724 0.13908-0.69541 0.13908-0.69541zm18.776 25.452c-3.338 0.13908-6.5369 0.41724-9.8748 0.55632-2.3644 0.13909-4.8679 0-7.3714 0 0-0.6954-0.13909-1.3908-0.13909-2.0862 0.55634-0.27817 0.83449-0.41725 1.3908-0.55634-1.9472-0.97357-2.0862-2.5035-0.69541-3.8943-1.8081-0.6954-0.8345-2.2253-1.2517-3.477 0.41724 0 0.55632 0.13908 1.1127 0.13908-1.2517-1.2517-1.3908-2.6426-0.8345-3.8943-0.13909-0.55632-0.41724-1.1127-0.55632-1.669-0.13909-0.97358-0.13909-1.9472-0.27817-3.0598-0.13908-0.83449-0.13908-1.5299 0.6954-1.9471 0.55634-0.27817 2.0862 0.27815 2.6426 0.83449 0.55634 0.6954 1.1127 1.5299 1.9472 1.8081 0.97357 0.41725 2.2253 0.41725 3.338 0.55633 2.3644 0.41725 5.007 0 6.9541 1.669 0.97358 0.83449 2.0862 0.97357 3.1989 1.3908 0.27816 0.13907 0.83449 0.27816 1.1126 0.27816 0.69542-0.13909 0.97357 0.97358 1.8081 0.41725 0.27816 0.6954 0.69541 0.27816 1.1127 0.13908 0.83449-0.27817 1.2517 0 1.2517 0.83449 0.13908 1.8081 0.13908 3.6161 0.27816 5.4242 0.13908 2.0862 0.27816 4.1725 0.41724 6.6759-2.0862-0.13908-4.1724-0.27816-6.2587-0.13908zm41.864-2.2253c-3.338 0.13908-6.6759 0.27817-10.153 0.41725-2.2253 0.13908-4.5897 0.27817-6.815 0.41725-0.83449 0-1.2517-0.27817-1.1127-1.1127 0-1.1126-0.13908-2.0862-0.27816-3.1989 0-0.55632 0-0.97357 0.13908-1.669 1.669 0.13908 3.1989 0.27816 4.7288 0.41724 0.55632 0 0.97357 0.41725 1.3908 0.55634 0.97358 0.27816 1.9472 0.41723 3.0598 0.6954 0.6954 0.13908 1.3908 0 1.9471 0.8345 0.27817 0.41724 1.669 0.41724 2.5035 0.27816 1.2517-0.27816 2.3644 0 3.6161 0.55633 0.97357 0.55632 2.0862 0.69541 3.1989 0.97357 0.41725 0.13908 0.83449 0.13908 1.2517 0.27817-1.2517 0.41725-2.3644 0.41725-3.477 0.55632zm0.13909-7.3714c-0.97358 0-1.669-0.6954-2.7816-0.27815-0.69541 0.27815-1.5299-0.27817-2.3644-0.55634-1.8081-0.41725-3.7552-0.6954-5.5633-1.1126-0.55632-0.13909-1.1126-0.41725-1.669-0.55633-0.55634-0.13909-1.1127 0-1.669-0.13909-1.3908-0.41724-2.7816-0.6954-4.1725-1.2517-0.13908 0-0.41724-0.41724-0.41724-0.55632-0.13908-1.5299-0.27816-3.0598-0.27816-4.4506 0-1.5299 0.55632-2.9207 2.3644-3.338 0.13908 0 0.27817-0.27816 0.41725-0.41725 0.69541-1.1126 1.2517-2.2253 2.7816-2.7816 0.97359-0.27817 1.8081-1.3908 2.7816-2.0862 1.1126-0.83449 2.3644-1.5299 3.477-2.0862 1.2517-0.69541 2.5035-1.2517 3.7552-1.9471 1.1127-0.69542 2.2253-1.8081 3.338-2.5035 0.83449-0.55633 1.8081-1.1127 2.7816-1.669 0.13908 1.1127 0.27817 2.0862 0.27817 3.0598 0.13908 2.0862 0.13908 4.1725 0.27816 6.2587 0.13909 2.0862 0.13909 4.1725 0.55634 6.2587 0.13907 0.97358-0.13909 1.9472 0 2.9207 0.27815 2.0862 0.27815 4.3116 0.27815 6.3978 0 0.41725 0.13909 0.97358 0.27817 1.5299-1.8081-0.27817-3.1989-0.55633-4.4506-0.69542zm10.153-36.857c-1.2517-1.8081-2.3644-3.7552-3.4771-5.5633-0.13908-0.27817-0.55632-0.41724-0.97357-0.41724-0.97357 0-2.0862 0.27816-3.0598 0.27816-0.13909 0-0.55634-0.13908-0.55634-0.13908 0.13909-0.6954 0.27817-1.3908 0.69541-1.9471 0.13908-0.27816 0.69542-0.41725 1.1127-0.27816 0.41724 0 0.83449 0.41725 1.2517 0.55633 0.13908 0 0.13908-0.13908 0.27816-0.13908-1.669-2.9207-3.1989-5.8414-4.7288-8.7622h-0.13908c0.27817 2.2253 0.55633 4.5897 0.8345 6.815v0.27816c0.13907 2.0862 0.27816 4.1725 0.41724 6.2587 0.13908 1.669 0.41725 3.477 0.55633 5.146v1.5299c0 0.83449 0.13908 1.669 0.13908 2.6426 0.83449-0.41725 1.5299-0.69542 2.2253-0.97357 0.13908 0.13907 0.13908 0.27816 0.27816 0.41724-0.55633 0.27817-0.97358 0.69542-1.5299 0.97357-0.69542 0.27817-0.97358 0.55633-0.97358 1.2517 0 0.41725-0.41725 0.8345-0.83449 1.1127-0.13909 1.2517-0.97358 2.0862-2.2253 2.7816-0.83448 0.41725-1.3908 1.1127-2.0862 1.669-0.27817 0.27817-0.55634 0.41725-0.8345 0.55633-1.9472 0.83449-3.8943 1.669-5.7024 2.6426-2.2253 0.97358-4.3116 2.0862-6.3978 3.1989-1.1126 0.55632-2.3644 1.1126-3.6161 1.669-0.13908-0.27816-0.27817-0.41725-0.27817-0.55633-0.13908-1.8081-0.13908-3.477-0.27816-5.2851-0.13908-1.9471-0.27816-3.8943-0.41724-5.8414v-1.2517c-0.13909-3.1989-0.27817-6.5369-0.41725-9.7357-0.13908-2.3644-0.27817-4.5897-0.41725-6.9541-0.27816-3.338-0.41724-6.815-0.69541-10.153-0.13908-3.1989-0.27816-6.5369-0.41725-9.7357-0.13908-2.5035-0.27815-5.007-0.41724-7.5104-0.13908-1.3908-0.13908-2.7816-0.27816-4.1725 0-0.27816-0.13909-0.69541-0.27817-0.97357-0.55632 0-1.1126 0-1.669-0.13908 0-0.13908 0-0.13908-0.13907-0.27816 0.27816-0.13908 0.55632-0.41725 0.83449-0.55633 1.2517-0.27816 0.83449-1.1127 0.97357-1.9471 0.13908-0.83449-0.55632-0.97358-1.1126-0.97358-0.41725 0-0.83449-0.13908-1.2517-0.27816 0.41725-0.13908 0.6954-0.55633 1.1126-0.55633 1.669-0.13908 0.97357-1.3908 1.1127-2.0862 0.13908-0.83449-0.55632-0.83449-1.2517-0.83449-0.13908 0-0.27817-0.13908-0.55632-0.27816 0.55632-0.13908 0.97357-0.27816 1.2517-0.27816 2.6426 0 5.146 0 7.7886-0.13908 2.7816-0.13908 5.5633-0.27816 8.3449-0.41725 2.7816-0.13908 5.5633-0.27816 8.3449-0.41724 1.669-0.13908 3.477-0.27816 5.146-0.41725 0.69541 0 1.5299 0.27816 2.3644 0.55633-0.83448 0.41725-0.55632 0.69541-0.13908 1.3908 0.97357 1.2517 1.8081 2.6426 2.7816 3.8943 1.3908 2.2253 2.9207 4.4506 4.3116 6.5369 0.55633 0.83449 1.1127 1.669 1.669 2.3644 0.13908 0.13908 0.55633 0.27816 0.69542 0.13908 0.83449-0.41725 1.2517 0 2.0862 0.55633-0.83448 0-1.3908 0-2.3644-0.13908 0.41725 0.69541 0.55632 1.1127 0.97357 1.5299 0.55634 0.83449 1.1127 1.5299 1.669 2.2253 1.2517 1.8081 2.3644 3.6161 3.6161 5.5633 0.69541 0.97358 1.2517 1.9472 1.8081 2.9207 0.27817 0.55633 0.55634 0.69541 1.2517 0.55633 1.1127-0.41725 2.2253-0.83449 3.4771-1.1127 0.27816-0.13908 0.55632 0 0.83449 0-0.13908 0.27816-0.27817 0.55633-0.41725 0.69541-0.83449 0.27816-1.669 0.55633-2.5035 0.83449-0.41724 0.13908-0.83448 0.27816-1.3908 0.41725 0.69542 1.1127 1.2517 2.0862 1.9472 3.1989 0.13908 0.13908 0.27816 0.27816 0.41725 0.41725 0.41724 0.55633 0.6954 1.3908 1.2517 1.5299 0.41723 0.13908 1.2517-0.41725 1.9471-0.41725-0.27817 0.13908-0.55633 0.41725-0.83449 0.55633-0.41725 0.27816-0.8345 0.27816-0.69542 0.97357 0 0.13908-0.13908 0.41725-0.41723 0.55633-0.55634 0.41725-1.1127 0.83449-1.669 1.2517-1.5299 0.83449-3.0598 1.5299-4.4506 2.5035-0.55633 0.27816-0.83449 0.83449-1.3908 1.2517-0.97358 0.69541-2.3644 0.69541-3.4771 0.97358-0.27815 0.13908-0.6954 0.13908-0.83448 0.41725-0.41725 1.1127-1.5299 1.2517-2.5035 1.5299-0.97357 0.27817-1.2517 0.83449-1.2517 1.669 0.55633 0 1.1127 0 1.8081-0.13908v-0.27817c0.13907 0 0.13907-0.13908 0.13907-0.13908 1.3908 0.83449 2.0862-0.69541 3.338-0.83449 1.8081 0 3.0598-1.5299 4.4506-2.5035 2.3644-1.669 4.7288-3.338 7.2323-5.007 0.55633 0.97357 1.1127 1.8081 1.669 2.7816 0.41725 0.69541-0.27816 1.2517-0.6954 1.669-0.69542 0.55633-1.3908 0.97357-2.0862 1.5299-2.2253 2.0862-5.146 3.477-7.7886 5.146-2.7816 1.669-5.5633 3.1989-8.3449 4.8679-0.55632 0.41725-1.1126 0.83449-1.8081 1.2517-1.1126-1.5299-1.8081-2.5035-2.3644-3.477zm55.633 40.751c-2.3644 0.13908-4.7288 0.27817-6.9541 0.41725h-0.69542c-3.6161 0.13908-7.2323 0.27817-10.848 0.41725-2.9207 0.13907-5.9805 0.27816-8.9012 0.55632-1.1126-1.669-2.2253-3.338-3.338-5.007-1.5299-2.2253-3.0598-4.5897-4.7288-6.815-0.55632-0.8345-1.1127-1.669-1.669-2.5035-1.1127-1.669-2.2253-3.1989-3.1989-4.8679-0.97357-1.5299-1.9472-3.1989-2.9207-4.5897-0.55633-0.83449-1.3908-1.669-2.0862-2.5035-0.13908-0.27817-0.13908-0.69541-0.41724-0.97357-1.2517-1.8081-2.5035-3.7552-3.6161-5.5633-0.27816-0.41724-0.69541-0.83449-0.97358-1.3908-0.69541-1.1127-1.5299-2.3644-2.3644-3.6161 1.3908-0.69541 2.7816-1.3908 4.3115-2.2253 0.13909 0 0.41724 0 0.41724-0.13908 0.41725-1.8081 2.3644-2.0862 3.6162-2.7816 1.8081-0.97357 3.477-1.8081 5.007-3.0598 0.69541-0.69542 1.669-0.97357 2.3644-1.5299 0.55633-0.41725 1.1127-0.97357 1.669-1.3908 0.27817-0.27816 0.55633-0.41724 0.8345-0.55633 1.1127-0.41725 2.2253-0.97358 3.477-1.3908 0.13908 0.27816 0.41725 0.55633 0.69541 0.97357 0.97358-0.27816 1.9472-0.41725 2.9207-0.69541-0.13908 0.97357-0.55633 0.83449-1.1126 0.83449-0.41725 0-0.97358 0.27816-1.3908 0.41725 1.2517 2.6426 3.1989 4.7288 4.4506 7.2323 1.2517 2.5035 2.9207 5.007 4.5897 7.3713-0.13908-1.2517-0.41725-2.5035-0.55633-3.8943-0.27817-3.338-0.69541-6.5369-0.97357-9.8748-0.27817-2.6426-0.41725-5.2851-0.69541-7.7886-0.13908-1.5299-0.27817-3.1989-0.55633-4.7288-0.13909-0.55633 0-1.1127 0.6954-1.3908 0.27817-0.13908 0.55634-0.41725 0.8345-0.55633 1.3908-0.55633 2.7816-0.97357 3.7552-2.3644 0.13908-0.27816 0.55632-0.41724 0.83449-0.55633 1.669-0.83449 3.477-1.669 5.146-2.6426 0.27817-0.13908 0.55634-0.27816 0.55634-0.55633 0.41724-0.97357 1.3908-1.2517 2.3644-1.8081 2.0862-1.2517 4.1725-2.5035 6.2587-3.7552 0.41724-0.27816 0.69541-0.41725 1.2517-0.55633 0.13909 0.97357 0.27816 1.9472 0.27816 2.7816 0.13908 2.0862 0.13908 4.1725 0.27816 6.2587 0.13909 3.0598 0.41725 6.2587 0.69542 9.3185 0.13908 1.3908 0.13908 2.7816 0.27816 4.1725 0.13908 2.0862 0.13908 4.1725 0.27816 6.1196 0.13909 2.9207 0.41725 5.9805 0.69542 8.9013 0.13908 1.3908 0.13908 2.7816 0.27816 4.1725 0.13908 2.0862 0.13908 4.1725 0.27816 6.2587 0.13908 4.0334 0.41725 8.0668 0.69542 12.1 0.13908 2.5035 0.27815 5.007 0.41724 7.5104 0.13908 1.9472 0.27816 3.7552 0.41725 5.8414-1.1127 0.27816-1.9472 0.41724-2.6426 0.41724zm6.1196-87.344c-0.41724 0.27816-0.55633 0.69541-0.97358 0.97357-0.97357 0.69541-1.9471 1.5299-2.9207 2.0862-0.97358 0.55633-2.0862 0.97357-2.5035 2.2253-0.13908 0.27816-0.41724 0.41725-0.69541 0.55633-1.2517 0.41725-1.1126 1.3908-1.1126 2.3644 0.13908 1.1127 0.27817 2.2253 0.13908 3.4771 0 0.27816-0.41725 0.69541-0.69541 0.97357-1.1127 0.83449-2.3644 1.5299-3.6161 2.3644-1.8081 1.2517-3.6161 2.5035-5.4242 3.7552-0.55632 0.27816-1.1127 0.55633-1.5299 0.83449-2.9207 1.8081-5.8415 3.4771-8.7622 5.2851-0.41725 0.27816-0.97359 0.41725-1.669 0.83449-0.13909-1.9471-0.27817-3.8943-0.41725-5.8414-2.0862 0.69541-4.0334 1.2517-6.1196 1.8081 0-0.13908-0.13908-0.13908-0.13908-0.27816 0.13908-0.13908 0.27816-0.27816 0.41725-0.27816 1.669-0.69541 3.477-1.2517 5.2851-1.9471 0.27816-0.13908 0.55632-0.55633 0.55632-0.69541-0.13909-1.9471-0.27816-3.7552-0.41724-5.7024v-0.55633c-0.13908-3.4771-0.27817-6.815-0.41725-10.292-0.13908-1.9471-0.27817-4.0334-0.41725-5.9805v-0.83449c2.2253-0.97357 4.7288 0.27816 6.815-1.1127 0.83449 1.3908 2.6426-0.27816 3.6161 0.83449 0.27816-0.13908 0.6954-0.41725 0.97357-0.55633 1.2517-0.13908 2.5035-0.13908 3.7552-0.27816 2.3644-0.13908 4.7288-0.27816 7.2323-0.41725 0.27817 3.8943 0.41725 7.9277 0.69542 12.1 2.5035-2.7816 5.8414-4.0334 8.2058-6.5369 0.55634 0.13908 0.69542 0.41724 0.13909 0.83449zm94.576 78.025c-1.2517 0.55632-2.5035 1.1126-3.7552 1.5299-3.338 1.1127-6.5369 2.2253-9.8748 3.1989-0.55633 0.13908-1.1127 0.13908-1.669 0.27816-1.2517 0.27816-2.6426 0.55633-3.8943 0.83449-0.41725 0-0.83449-0.13908-1.2517-0.13908-0.69541 0.27817-1.2517 0.83449-1.9472 0.83449-2.0862 0.27816-4.1725 0.41725-6.3978 0.69541-1.9472 0.27817-3.7552 0.55633-5.7024 0.69541h-1.5299-6.5368c-1.8081-0.13908-3.6161-0.27816-5.5633-0.55632-2.2253-0.27817-4.3115-0.55634-6.5368-0.97358-2.0862-0.55633-4.3115-1.2517-6.2587-2.0862-1.9471-0.69541-3.8943-1.669-5.8414-2.5035-0.13908 0-0.41725-0.13908-0.41725-0.13908-2.3644-1.669-5.007-2.9207-7.0932-5.007-1.5299-1.669-3.338-3.1989-5.007-4.7288-0.13908-0.13909-0.27816-0.41725-0.41724-0.55633-2.0862-3.1989-4.5897-6.2587-5.7024-10.014-0.83449-2.5035-1.669-5.007-2.3644-7.5104-0.97357-3.8943-1.5299-7.9277-1.3908-11.822 0.13908-2.5035 0.27817-5.146 0.41725-7.6495 0.41724-4.0334 1.2517-8.0668 2.9207-11.822 0.55633-1.2517 1.1126-2.3644 1.669-3.6161 0.83449-1.669 1.8081-3.338 2.7816-5.007 0.55632-0.83449 1.2517-1.669 1.9471-2.5035 2.2253-2.6426 4.5897-5.2851 7.5104-7.3713 1.3908-0.97357 2.6426-2.0862 4.0334-3.1989-0.27816-0.13908-0.55633-0.27816-0.97357-0.55633 0.83449-0.55633 1.3908-1.1127 2.0862-1.5299 0.27817-0.13908 0.69541 0.27816 1.3908 0.55633 0.55632-0.41725 1.3908-0.83449 2.2253-1.3908 0.27817-0.13908 0.41725-0.27816 0.69542-0.27816 2.2253-0.97358 4.5897-1.8081 6.815-2.7816 3.338-1.3908 6.9541-2.0862 10.431-2.7816 1.8081-0.41725 3.6161-0.41725 5.4242-0.69541 1.3908-0.27816 2.7816-0.55633 4.1725-0.69541 0.97357-0.13908 1.9472 0.13908 2.9207 0.13908 2.0862 0 4.3115-0.13908 6.3978-0.13908 1.8081 0 3.7552 0.13908 5.5633 0.27816 2.9207 0.27816 5.9805 0.55633 8.9012 0.97358 2.3644 0.27816 4.7288 0.83449 7.0932 1.2517-1.2517 6.6759-2.3644 13.213-3.6161 19.889-1.3908-0.27816-2.6426-0.69541-4.0334-0.97357-2.6426-0.55633-5.2851-0.97357-7.9277-1.3908-4.5897-0.69541-9.1794-0.69541-13.63-0.55633-2.6426 0.13908-5.4242 0.55633-8.0668 1.1127-3.0598 0.69541-5.8414 1.8081-8.484 3.1989-1.2517 0.69541-2.6426 1.5299-3.7552 2.5035-2.5035 2.2253-4.8679 4.8679-6.3978 7.7886-1.2517 2.5035-2.2253 5.146-2.6426 7.7886-0.27817 1.5299-0.13908 3.1989-0.13908 4.7288 0 2.0862-0.13909 4.1725 0 6.2587 0.27816 2.7816 0.69541 5.5633 1.669 8.3449 1.1127 2.7816 2.5035 5.4242 4.5897 7.7886 1.669 1.9471 3.7552 3.7552 6.1196 5.007 1.3908 0.69541 2.7816 1.5299 4.3116 1.8081 3.338 0.69542 6.5369 1.5299 10.014 1.3908 1.9472 0 4.0334 0.13909 5.9805-0.13908 2.3644-0.27816 4.7288-0.97357 7.2323-1.5299-0.13908-1.5299-0.13908-3.0598-0.27816-4.4506-0.13908-3.1989-0.27817-6.3978-0.41725-9.5967-0.13908-2.6426-0.27817-5.2851-0.41725-7.9277-0.13908-2.5035-0.27816-5.007-0.41724-7.5104 0-0.27816-0.13908-0.69541-0.13908-1.1127 7.7886-0.41725 15.438-0.83449 23.505-1.2517 0 1.5299 0.13909 2.9207 0.13909 4.3115 0.13908 1.9471 0.27816 4.0334 0.41725 5.9805 0.13907 2.3644 0.27815 4.7288 0.41724 7.0932 0.13908 1.9472 0.13908 3.7552 0.13908 5.5633 0 1.669-0.27817 3.338 0.13908 4.8679 0.27817 1.1127 0 1.8081 0 2.7816 0 0.97357 0.41725 2.0862 0.55633 3.0598 0.13908 2.0862 0.27816 4.3115 0.41724 6.3978 0.13909 1.5299 0.13909 2.9207 0.13909 4.4506 0 0.41724-0.27817 0.83449-0.69541 1.1127zm-444.51-16.69c-0.97357-2.2253-1.8081-4.3115-2.7816-6.5369-0.41725-0.83449-0.83449-1.5299-2.0862-1.2517-0.13908 0-0.41725 0-0.97358-0.13908 0.8345-0.27816 1.2517-0.41724 1.8081-0.55632-0.13908-0.41725-0.13908-0.8345-0.27817-1.1127-0.41724-1.1127-0.97357-2.2253-1.3908-3.338-0.83449-2.2253-1.8081-4.4506-2.6426-6.6759-0.55632-1.669-0.97357-3.1989-1.5299-4.8679 0-0.13908-0.13909-0.13908-0.27817-0.41725-0.13908 0.55633-0.27817 0.97357-0.27817 1.3908-0.27816 1.8081-0.55632 3.7552-0.97357 5.5633-0.69541 3.0598-1.669 5.9805-2.5035 9.0403-0.13908 0.41725 0 0.97357 0 1.3908-0.13908-0.13908-0.13908-0.27817-0.27816-0.41725-0.13908 0.41725-0.41725 0.8345-0.55632 1.2517-0.97359 3.0598-1.8081 5.9805-2.6426 9.0403-0.55634 2.0862-1.2517 4.0334-1.8081 6.1196-0.13908 0.55633-0.13908 1.2517-0.27816 1.9472 1.669-0.13909 3.338-0.27817 5.007-0.41725 4.5897-0.27817 9.1794-0.41725 13.769-0.69541 1.5299 0 3.0598-0.13908 4.7288-0.27817-0.27816-0.55633-0.55633-0.83449-0.69541-1.2517-1.1127-2.6426-2.2253-5.2851-3.338-7.7886zm3.338 7.6495c-1.1127-2.5035-2.2253-5.146-3.338-7.6495-0.97357-2.2253-1.8081-4.3115-2.7816-6.5369-0.41725-0.83449-0.83449-1.5299-2.0862-1.2517-0.13908 0-0.41725 0-0.97358-0.13908 0.8345-0.27816 1.2517-0.41724 1.8081-0.55632-0.13908-0.41725-0.13908-0.8345-0.27817-1.1127-0.41724-1.1127-0.97357-2.2253-1.3908-3.338-0.83449-2.2253-1.8081-4.4506-2.6426-6.6759-0.55632-1.669-0.97357-3.1989-1.5299-4.8679 0-0.13908-0.13909-0.13908-0.27817-0.41725-0.13908 0.55633-0.27817 0.97357-0.27817 1.3908-0.27816 1.8081-0.55632 3.7552-0.97357 5.5633-0.69541 3.0598-1.669 5.9805-2.5035 9.0403-0.13908 0.41725 0 0.97357 0 1.3908-0.13908-0.13908-0.13908-0.27817-0.27816-0.41725-0.13908 0.41725-0.41725 0.8345-0.55632 1.2517-0.97359 3.0598-1.8081 5.9805-2.6426 9.0403-0.55634 2.0862-1.2517 4.0334-1.8081 6.1196-0.13908 0.55633-0.13908 1.2517-0.27816 1.9472 1.669-0.13909 3.338-0.27817 5.007-0.41725 4.5897-0.27817 9.1794-0.41725 13.769-0.69541 1.5299 0 3.0598-0.13908 4.7288-0.27817-0.27816-0.69541-0.55633-0.97357-0.69541-1.3908zm0 0c-1.1127-2.5035-2.2253-5.146-3.338-7.6495-0.97357-2.2253-1.8081-4.3115-2.7816-6.5369-0.41725-0.83449-0.83449-1.5299-2.0862-1.2517-0.13908 0-0.41725 0-0.97358-0.13908 0.8345-0.27816 1.2517-0.41724 1.8081-0.55632-0.13908-0.41725-0.13908-0.8345-0.27817-1.1127-0.41724-1.1127-0.97357-2.2253-1.3908-3.338-0.83449-2.2253-1.8081-4.4506-2.6426-6.6759-0.55632-1.669-0.97357-3.1989-1.5299-4.8679 0-0.13908-0.13909-0.13908-0.27817-0.41725-0.13908 0.55633-0.27817 0.97357-0.27817 1.3908-0.27816 1.8081-0.55632 3.7552-0.97357 5.5633-0.69541 3.0598-1.669 5.9805-2.5035 9.0403-0.13908 0.41725 0 0.97357 0 1.3908-0.13908-0.13908-0.13908-0.27817-0.27816-0.41725-0.13908 0.41725-0.41725 0.8345-0.55632 1.2517-0.97359 3.0598-1.8081 5.9805-2.6426 9.0403-0.55634 2.0862-1.2517 4.0334-1.8081 6.1196-0.13908 0.55633-0.13908 1.2517-0.27816 1.9472 1.669-0.13909 3.338-0.27817 5.007-0.41725 4.5897-0.27817 9.1794-0.41725 13.769-0.69541 1.5299 0 3.0598-0.13908 4.7288-0.27817-0.27816-0.69541-0.55633-0.97357-0.69541-1.3908zm0 0c-1.1127-2.5035-2.2253-5.146-3.338-7.6495-0.97357-2.2253-1.8081-4.3115-2.7816-6.5369-0.41725-0.83449-0.83449-1.5299-2.0862-1.2517-0.13908 0-0.41725 0-0.97358-0.13908 0.8345-0.27816 1.2517-0.41724 1.8081-0.55632-0.13908-0.41725-0.13908-0.8345-0.27817-1.1127-0.41724-1.1127-0.97357-2.2253-1.3908-3.338-0.83449-2.2253-1.8081-4.4506-2.6426-6.6759-0.55632-1.669-0.97357-3.1989-1.5299-4.8679 0-0.13908-0.13909-0.13908-0.27817-0.41725-0.13908 0.55633-0.27817 0.97357-0.27817 1.3908-0.27816 1.8081-0.55632 3.7552-0.97357 5.5633-0.69541 3.0598-1.669 5.9805-2.5035 9.0403-0.13908 0.41725 0 0.97357 0 1.3908-0.13908-0.13908-0.13908-0.27817-0.27816-0.41725-0.13908 0.41725-0.41725 0.8345-0.55632 1.2517-0.97359 3.0598-1.8081 5.9805-2.6426 9.0403-0.55634 2.0862-1.2517 4.0334-1.8081 6.1196-0.13908 0.55633-0.13908 1.2517-0.27816 1.9472 1.669-0.13909 3.338-0.27817 5.007-0.41725 4.5897-0.27817 9.1794-0.41725 13.769-0.69541 1.5299 0 3.0598-0.13908 4.7288-0.27817-0.27816-0.69541-0.55633-0.97357-0.69541-1.3908zm0 0c-1.1127-2.5035-2.2253-5.146-3.338-7.6495-0.97357-2.2253-1.8081-4.3115-2.7816-6.5369-0.41725-0.83449-0.83449-1.5299-2.0862-1.2517-0.13908 0-0.41725 0-0.97358-0.13908 0.8345-0.27816 1.2517-0.41724 1.8081-0.55632-0.13908-0.41725-0.13908-0.8345-0.27817-1.1127-0.41724-1.1127-0.97357-2.2253-1.3908-3.338-0.83449-2.2253-1.8081-4.4506-2.6426-6.6759-0.55632-1.669-0.97357-3.1989-1.5299-4.8679 0-0.13908-0.13909-0.13908-0.27817-0.41725-0.13908 0.55633-0.27817 0.97357-0.27817 1.3908-0.27816 1.8081-0.55632 3.7552-0.97357 5.5633-0.69541 3.0598-1.669 5.9805-2.5035 9.0403-0.13908 0.41725 0 0.97357 0 1.3908-0.13908-0.13908-0.13908-0.27817-0.27816-0.41725-0.13908 0.41725-0.41725 0.8345-0.55632 1.2517-0.97359 3.0598-1.8081 5.9805-2.6426 9.0403-0.55634 2.0862-1.2517 4.0334-1.8081 6.1196-0.13908 0.55633-0.13908 1.2517-0.27816 1.9472 1.669-0.13909 3.338-0.27817 5.007-0.41725 4.5897-0.27817 9.1794-0.41725 13.769-0.69541 1.5299 0 3.0598-0.13908 4.7288-0.27817-0.27816-0.69541-0.55633-0.97357-0.69541-1.3908zm0 0c-1.1127-2.5035-2.2253-5.146-3.338-7.6495-0.97357-2.2253-1.8081-4.3115-2.7816-6.5369-0.41725-0.83449-0.83449-1.5299-2.0862-1.2517-0.13908 0-0.41725 0-0.97358-0.13908 0.8345-0.27816 1.2517-0.41724 1.8081-0.55632-0.13908-0.41725-0.13908-0.8345-0.27817-1.1127-0.41724-1.1127-0.97357-2.2253-1.3908-3.338-0.83449-2.2253-1.8081-4.4506-2.6426-6.6759-0.55632-1.669-0.97357-3.1989-1.5299-4.8679 0-0.13908-0.13909-0.13908-0.27817-0.41725-0.13908 0.55633-0.27817 0.97357-0.27817 1.3908-0.27816 1.8081-0.55632 3.7552-0.97357 5.5633-0.69541 3.0598-1.669 5.9805-2.5035 9.0403-0.13908 0.41725 0 0.97357 0 1.3908-0.13908-0.13908-0.13908-0.27817-0.27816-0.41725-0.13908 0.41725-0.41725 0.8345-0.55632 1.2517-0.97359 3.0598-1.8081 5.9805-2.6426 9.0403-0.55634 2.0862-1.2517 4.0334-1.8081 6.1196-0.13908 0.55633-0.13908 1.2517-0.27816 1.9472 1.669-0.13909 3.338-0.27817 5.007-0.41725 4.5897-0.27817 9.1794-0.41725 13.769-0.69541 1.5299 0 3.0598-0.13908 4.7288-0.27817-0.27816-0.69541-0.55633-0.97357-0.69541-1.3908zm0 0c-1.1127-2.5035-2.2253-5.146-3.338-7.6495-0.97357-2.2253-1.8081-4.3115-2.7816-6.5369-0.41725-0.83449-0.83449-1.5299-2.0862-1.2517-0.13908 0-0.41725 0-0.97358-0.13908 0.8345-0.27816 1.2517-0.41724 1.8081-0.55632-0.13908-0.41725-0.13908-0.8345-0.27817-1.1127-0.41724-1.1127-0.97357-2.2253-1.3908-3.338-0.83449-2.2253-1.8081-4.4506-2.6426-6.6759-0.55632-1.669-0.97357-3.1989-1.5299-4.8679 0-0.13908-0.13909-0.13908-0.27817-0.41725-0.13908 0.55633-0.27817 0.97357-0.27817 1.3908-0.27816 1.8081-0.55632 3.7552-0.97357 5.5633-0.69541 3.0598-1.669 5.9805-2.5035 9.0403-0.13908 0.41725 0 0.97357 0 1.3908-0.13908-0.13908-0.13908-0.27817-0.27816-0.41725-0.13908 0.41725-0.41725 0.8345-0.55632 1.2517-0.97359 3.0598-1.8081 5.9805-2.6426 9.0403-0.55634 2.0862-1.2517 4.0334-1.8081 6.1196-0.13908 0.55633-0.13908 1.2517-0.27816 1.9472 1.669-0.13909 3.338-0.27817 5.007-0.41725 4.5897-0.27817 9.1794-0.41725 13.769-0.69541 1.5299 0 3.0598-0.13908 4.7288-0.27817-0.27816-0.69541-0.55633-0.97357-0.69541-1.3908zm0 0c-1.1127-2.5035-2.2253-5.146-3.338-7.6495-0.97357-2.2253-1.8081-4.3115-2.7816-6.5369-0.41725-0.83449-0.83449-1.5299-2.0862-1.2517-0.13908 0-0.41725 0-0.97358-0.13908 0.8345-0.27816 1.2517-0.41724 1.8081-0.55632-0.13908-0.41725-0.13908-0.8345-0.27817-1.1127-0.41724-1.1127-0.97357-2.2253-1.3908-3.338-0.83449-2.2253-1.8081-4.4506-2.6426-6.6759-0.55632-1.669-0.97357-3.1989-1.5299-4.8679 0-0.13908-0.13909-0.13908-0.27817-0.41725-0.13908 0.55633-0.27817 0.97357-0.27817 1.3908-0.27816 1.8081-0.55632 3.7552-0.97357 5.5633-0.69541 3.0598-1.669 5.9805-2.5035 9.0403-0.13908 0.41725 0 0.97357 0 1.3908-0.13908-0.13908-0.13908-0.27817-0.27816-0.41725-0.13908 0.41725-0.41725 0.8345-0.55632 1.2517-0.97359 3.0598-1.8081 5.9805-2.6426 9.0403-0.55634 2.0862-1.2517 4.0334-1.8081 6.1196-0.13908 0.55633-0.13908 1.2517-0.27816 1.9472 1.669-0.13909 3.338-0.27817 5.007-0.41725 4.5897-0.27817 9.1794-0.41725 13.769-0.69541 1.5299 0 3.0598-0.13908 4.7288-0.27817-0.27816-0.69541-0.55633-0.97357-0.69541-1.3908zm0 0c-1.1127-2.5035-2.2253-5.146-3.338-7.6495-0.97357-2.2253-1.8081-4.3115-2.7816-6.5369-0.41725-0.83449-0.83449-1.5299-2.0862-1.2517-0.13908 0-0.41725 0-0.97358-0.13908 0.8345-0.27816 1.2517-0.41724 1.8081-0.55632-0.13908-0.41725-0.13908-0.8345-0.27817-1.1127-0.41724-1.1127-0.97357-2.2253-1.3908-3.338-0.83449-2.2253-1.8081-4.4506-2.6426-6.6759-0.55632-1.669-0.97357-3.1989-1.5299-4.8679 0-0.13908-0.13909-0.13908-0.27817-0.41725-0.13908 0.55633-0.27817 0.97357-0.27817 1.3908-0.27816 1.8081-0.55632 3.7552-0.97357 5.5633-0.69541 3.0598-1.669 5.9805-2.5035 9.0403-0.13908 0.41725 0 0.97357 0 1.3908-0.13908-0.13908-0.13908-0.27817-0.27816-0.41725-0.13908 0.41725-0.41725 0.8345-0.55632 1.2517-0.97359 3.0598-1.8081 5.9805-2.6426 9.0403-0.55634 2.0862-1.2517 4.0334-1.8081 6.1196-0.13908 0.55633-0.13908 1.2517-0.27816 1.9472 1.669-0.13909 3.338-0.27817 5.007-0.41725 4.5897-0.27817 9.1794-0.41725 13.769-0.69541 1.5299 0 3.0598-0.13908 4.7288-0.27817-0.27816-0.69541-0.55633-0.97357-0.69541-1.3908zm0 0c-1.1127-2.5035-2.2253-5.146-3.338-7.6495-0.97357-2.2253-1.8081-4.3115-2.7816-6.5369-0.41725-0.83449-0.83449-1.5299-2.0862-1.2517-0.13908 0-0.41725 0-0.97358-0.13908 0.8345-0.27816 1.2517-0.41724 1.8081-0.55632-0.13908-0.41725-0.13908-0.8345-0.27817-1.1127-0.41724-1.1127-0.97357-2.2253-1.3908-3.338-0.83449-2.2253-1.8081-4.4506-2.6426-6.6759-0.55632-1.669-0.97357-3.1989-1.5299-4.8679 0-0.13908-0.13909-0.13908-0.27817-0.41725-0.13908 0.55633-0.27817 0.97357-0.27817 1.3908-0.27816 1.8081-0.55632 3.7552-0.97357 5.5633-0.69541 3.0598-1.669 5.9805-2.5035 9.0403-0.13908 0.41725 0 0.97357 0 1.3908-0.13908-0.13908-0.13908-0.27817-0.27816-0.41725-0.13908 0.41725-0.41725 0.8345-0.55632 1.2517-0.97359 3.0598-1.8081 5.9805-2.6426 9.0403-0.55634 2.0862-1.2517 4.0334-1.8081 6.1196-0.13908 0.55633-0.13908 1.2517-0.27816 1.9472 1.669-0.13909 3.338-0.27817 5.007-0.41725 4.5897-0.27817 9.1794-0.41725 13.769-0.69541 1.5299 0 3.0598-0.13908 4.7288-0.27817-0.27816-0.69541-0.55633-0.97357-0.69541-1.3908zm0 0c-1.1127-2.5035-2.2253-5.146-3.338-7.6495-0.97357-2.2253-1.8081-4.3115-2.7816-6.5369-0.41725-0.83449-0.83449-1.5299-2.0862-1.2517-0.13908 0-0.41725 0-0.97358-0.13908 0.8345-0.27816 1.2517-0.41724 1.8081-0.55632-0.13908-0.41725-0.13908-0.8345-0.27817-1.1127-0.41724-1.1127-0.97357-2.2253-1.3908-3.338-0.83449-2.2253-1.8081-4.4506-2.6426-6.6759-0.55632-1.669-0.97357-3.1989-1.5299-4.8679 0-0.13908-0.13909-0.13908-0.27817-0.41725-0.13908 0.55633-0.27817 0.97357-0.27817 1.3908-0.27816 1.8081-0.55632 3.7552-0.97357 5.5633-0.69541 3.0598-1.669 5.9805-2.5035 9.0403-0.13908 0.41725 0 0.97357 0 1.3908-0.13908-0.13908-0.13908-0.27817-0.27816-0.41725-0.13908 0.41725-0.41725 0.8345-0.55632 1.2517-0.97359 3.0598-1.8081 5.9805-2.6426 9.0403-0.55634 2.0862-1.2517 4.0334-1.8081 6.1196-0.13908 0.55633-0.13908 1.2517-0.27816 1.9472 1.669-0.13909 3.338-0.27817 5.007-0.41725 4.5897-0.27817 9.1794-0.41725 13.769-0.69541 1.5299 0 3.0598-0.13908 4.7288-0.27817-0.27816-0.69541-0.55633-0.97357-0.69541-1.3908zm0 0c-1.1127-2.5035-2.2253-5.146-3.338-7.6495-0.97357-2.2253-1.8081-4.3115-2.7816-6.5369-0.41725-0.83449-0.83449-1.5299-2.0862-1.2517-0.13908 0-0.41725 0-0.97358-0.13908 0.8345-0.27816 1.2517-0.41724 1.8081-0.55632-0.13908-0.41725-0.13908-0.8345-0.27817-1.1127-0.41724-1.1127-0.97357-2.2253-1.3908-3.338-0.83449-2.2253-1.8081-4.4506-2.6426-6.6759-0.55632-1.669-0.97357-3.1989-1.5299-4.8679 0-0.13908-0.13909-0.13908-0.27817-0.41725-0.13908 0.55633-0.27817 0.97357-0.27817 1.3908-0.27816 1.8081-0.55632 3.7552-0.97357 5.5633-0.69541 3.0598-1.669 5.9805-2.5035 9.0403-0.13908 0.41725 0 0.97357 0 1.3908-0.13908-0.13908-0.13908-0.27817-0.27816-0.41725-0.13908 0.41725-0.41725 0.8345-0.55632 1.2517-0.97359 3.0598-1.8081 5.9805-2.6426 9.0403-0.55634 2.0862-1.2517 4.0334-1.8081 6.1196-0.13908 0.55633-0.13908 1.2517-0.27816 1.9472 1.669-0.13909 3.338-0.27817 5.007-0.41725 4.5897-0.27817 9.1794-0.41725 13.769-0.69541 1.5299 0 3.0598-0.13908 4.7288-0.27817-0.27816-0.69541-0.55633-0.97357-0.69541-1.3908zm0 0c-1.1127-2.5035-2.2253-5.146-3.338-7.6495-0.97357-2.2253-1.8081-4.3115-2.7816-6.5369-0.41725-0.83449-0.83449-1.5299-2.0862-1.2517-0.13908 0-0.41725 0-0.97358-0.13908 0.8345-0.27816 1.2517-0.41724 1.8081-0.55632-0.13908-0.41725-0.13908-0.8345-0.27817-1.1127-0.41724-1.1127-0.97357-2.2253-1.3908-3.338-0.83449-2.2253-1.8081-4.4506-2.6426-6.6759-0.55632-1.669-0.97357-3.1989-1.5299-4.8679 0-0.13908-0.13909-0.13908-0.27817-0.41725-0.13908 0.55633-0.27817 0.97357-0.27817 1.3908-0.27816 1.8081-0.55632 3.7552-0.97357 5.5633-0.69541 3.0598-1.669 5.9805-2.5035 9.0403-0.13908 0.41725 0 0.97357 0 1.3908-0.13908-0.13908-0.13908-0.27817-0.27816-0.41725-0.13908 0.41725-0.41725 0.8345-0.55632 1.2517-0.97359 3.0598-1.8081 5.9805-2.6426 9.0403-0.55634 2.0862-1.2517 4.0334-1.8081 6.1196-0.13908 0.55633-0.13908 1.2517-0.27816 1.9472 1.669-0.13909 3.338-0.27817 5.007-0.41725 4.5897-0.27817 9.1794-0.41725 13.769-0.69541 1.5299 0 3.0598-0.13908 4.7288-0.27817-0.27816-0.69541-0.55633-0.97357-0.69541-1.3908zm0 0c-1.1127-2.5035-2.2253-5.146-3.338-7.6495-0.97357-2.2253-1.8081-4.3115-2.7816-6.5369-0.41725-0.83449-0.83449-1.5299-2.0862-1.2517-0.13908 0-0.41725 0-0.97358-0.13908 0.8345-0.27816 1.2517-0.41724 1.8081-0.55632-0.13908-0.41725-0.13908-0.8345-0.27817-1.1127-0.41724-1.1127-0.97357-2.2253-1.3908-3.338-0.83449-2.2253-1.8081-4.4506-2.6426-6.6759-0.55632-1.669-0.97357-3.1989-1.5299-4.8679 0-0.13908-0.13909-0.13908-0.27817-0.41725-0.13908 0.55633-0.27817 0.97357-0.27817 1.3908-0.27816 1.8081-0.55632 3.7552-0.97357 5.5633-0.69541 3.0598-1.669 5.9805-2.5035 9.0403-0.13908 0.41725 0 0.97357 0 1.3908-0.13908-0.13908-0.13908-0.27817-0.27816-0.41725-0.13908 0.41725-0.41725 0.8345-0.55632 1.2517-0.97359 3.0598-1.8081 5.9805-2.6426 9.0403-0.55634 2.0862-1.2517 4.0334-1.8081 6.1196-0.13908 0.55633-0.13908 1.2517-0.27816 1.9472 1.669-0.13909 3.338-0.27817 5.007-0.41725 4.5897-0.27817 9.1794-0.41725 13.769-0.69541 1.5299 0 3.0598-0.13908 4.7288-0.27817-0.27816-0.69541-0.55633-0.97357-0.69541-1.3908zm0 0c-1.1127-2.5035-2.2253-5.146-3.338-7.6495-0.97357-2.2253-1.8081-4.3115-2.7816-6.5369-0.41725-0.83449-0.83449-1.5299-2.0862-1.2517-0.13908 0-0.41725 0-0.97358-0.13908 0.8345-0.27816 1.2517-0.41724 1.8081-0.55632-0.13908-0.41725-0.13908-0.8345-0.27817-1.1127-0.41724-1.1127-0.97357-2.2253-1.3908-3.338-0.83449-2.2253-1.8081-4.4506-2.6426-6.6759-0.55632-1.669-0.97357-3.1989-1.5299-4.8679 0-0.13908-0.13909-0.13908-0.27817-0.41725-0.13908 0.55633-0.27817 0.97357-0.27817 1.3908-0.27816 1.8081-0.55632 3.7552-0.97357 5.5633-0.69541 3.0598-1.669 5.9805-2.5035 9.0403-0.13908 0.41725 0 0.97357 0 1.3908-0.13908-0.13908-0.13908-0.27817-0.27816-0.41725-0.13908 0.41725-0.41725 0.8345-0.55632 1.2517-0.97359 3.0598-1.8081 5.9805-2.6426 9.0403-0.55634 2.0862-1.2517 4.0334-1.8081 6.1196-0.13908 0.55633-0.13908 1.2517-0.27816 1.9472 1.669-0.13909 3.338-0.27817 5.007-0.41725 4.5897-0.27817 9.1794-0.41725 13.769-0.69541 1.5299 0 3.0598-0.13908 4.7288-0.27817-0.27816-0.69541-0.55633-0.97357-0.69541-1.3908z" fill="#fff"/>
</svg>
