<?xml version="1.0" encoding="UTF-8"?>
<svg width="388.92" height="450" version="1.1" xmlns="http://www.w3.org/2000/svg">
	<path d="m194.46 0 194.46 112.5v225l-194.46 112.5-194.46-112.5v-225z" fill="#ff8f17"/>
	<g fill="#fff">
		<path d="m342.63 149.94 23.389 0.0485 0.0482 7.2051 0.0324 7.2214h-29.82v9.6714h24.501v14.024h-24.501v8.2207h31.593v14.346h-48.841v-30.272c0-16.651 0.0482-30.336 0.11271-30.384 0.0484-0.0645 10.623-0.0967 23.486-0.0806z"/>
		<path d="m108.09 149.94 23.389 0.0485 0.0482 7.2051 0.0324 7.2214h-29.82v9.6714h24.501l-0.0324 6.9633-0.0482 6.9797-12.202 0.0485-12.218 0.0321v8.2207h31.593v14.346h-48.841v-30.272c0-16.651 0.04823-30.336 0.11271-30.384 0.04836-0.0645 10.623-0.0967 23.486-0.0806z"/>
		<path d="m292.83 149.91h9.6229c5.4321 0 9.6393 0.0645 9.6393 0.14513 0 0.0806-4.0783 6.7699-9.0591 14.862-4.9808 8.1079-9.0588 14.878-9.0588 15.055s4.1588 6.9151 9.2524 14.991c5.0775 8.0595 9.3811 14.91 9.5584 15.184l0.30632 0.53206h-19.826l-5.448-9.2524c-4.0781-6.915-5.5127-9.2199-5.6416-9.0748-0.0967 0.11283-2.5146 4.1747-5.3838 9.0588-2.8531 4.8679-5.2871 8.9623-5.3838 9.0751-0.14507 0.14507-2.289 0.19343-10.042 0.16119l-9.8487-0.0485 9.5102-14.991c5.2226-8.2529 9.5747-15.152 9.6714-15.345 0.14507-0.30626-0.91874-2.1118-9.0427-15.184-5.0614-8.1562-9.2039-14.91-9.2039-14.991 0-0.12895 2.9014-0.16125 9.7681-0.14513l9.7681 0.0485 5.0936 8.8976c2.8208 4.9002 5.1582 8.914 5.2066 8.914 0.0645 0 2.4501-4.0298 5.3193-8.9461z"/>
		<path d="m200.88 149.91h8.7043v17.07c0 10.542 0.0645 17.715 0.16119 18.73 0.45133 4.4327 1.8859 7.5276 4.207 9.0106 1.483 0.95102 2.7402 1.3219 4.9163 1.4186 3.111 0.12895 5.0615-0.35468 6.8185-1.6764 1.7892-1.3379 3.0302-3.7236 3.6589-6.9957 0.27402-1.4185 0.30613-2.8854 0.35449-19.553l0.0485-18.005 8.7364 0.0321 8.7367 0.0485v19.746c0 20.826 7e-5 21.051-0.74141 24.42-1.9182 8.7365-7.6244 14.507-16.587 16.764-2.1922 0.54805-3.1593 0.70924-5.8028 0.96714-5.1581 0.51581-10.59 0.12902-14.91-1.0638-8.4625-2.3211-14.088-7.8662-16.135-15.926-0.95102-3.6751-0.91904-3.0788-0.98351-24.662-0.0322-10.929-0.032-19.987 0.0164-20.1 0.0645-0.19343 1.5635-0.22573 8.8009-0.22573z"/>
		<path d="m150.05 149.91h8.7528l0.0321 22.76 0.0485 22.776 14.314 0.0485 14.298 0.0321v15.152h-46.423v-30.272c0-16.651 0.0482-30.336 0.1127-30.384 0.0484-0.0645 4.0459-0.1127 8.8655-0.1127z"/>
		<path d="m21.471 149.87 14.716 0.0806c11.993 0.0645 15.039 0.11283 16.554 0.32238 5.4966 0.72536 9.9292 2.2243 13.491 4.5454 5.7222 3.7396 9.2847 9.2362 10.832 16.764 1.0155 4.9646 0.96708 11.928-0.14513 17.183-1.8537 8.8654-6.7218 15.378-14.072 18.843-3.0626 1.4346-6.2703 2.3211-10.316 2.8208-1.6119 0.19343-4.5618 0.24179-16.506 0.24179h-14.555v-30.4zm17.247 15.49v29.997h4.0779c6.4637 0 8.3498-0.29014 10.606-1.6119 3.0787-1.8053 5.0291-5.0774 5.8834-9.8487 0.38686-2.2244 0.37068-6.3509-0.06454-8.3819-1.0477-5.0452-3.8684-8.3496-8.2528-9.6714-1.1283-0.3385-1.5637-0.37093-6.7218-0.43541z"/>
		<path d="m321.39 298.53v-57.69h44.648v13.663h-28.338v9.2831h23.245v13.206h-23.245v7.8912h30.013v13.647z"/>
		<path d="m288.32 265.79h26.468v25.984c-5.1544 4.9219-13.928 8.039-24.721 8.039-9.5259 0-17.056-2.4965-22.782-7.9522-5.675-5.4557-8.5125-13.042-8.5125-22.225 0-9.1829 2.8352-16.454 8.4088-21.909 5.1317-4.9779 12.923-8.1353 21.993-8.1353 9.9312 0 17.743 2.7481 23.519 8.3118l-10.355 11.048c-3.3949-3.079-7.7666-4.532-12.936-4.532-3.8278 0-7.1283 1.1994-9.7631 3.9859-2.6348 2.7865-3.9361 6.5292-3.9361 11.228 0 5.0266 1.4441 9.0103 4.3323 11.797 2.8882 2.7865 6.0482 4.086 10.963 4.086 4.0536 0 6.9165-0.6917 9.298-2.2042v-4.6519h-11.977z"/>
		<path d="m235.04 240.87h16.393v57.69h-7.8249l-30.278-28.12v28.12h-16.426v-57.69h7.8374l30.298 28.039z"/>
		<path d="m162.31 299.85c-8.2 0-14.62-2.0526-19.259-6.1579-4.5855-4.1053-6.8783-10.047-6.8783-17.826v-35.003h16.592v31.033c0 4.5914 0.79604 7.8865 2.3881 9.8851 1.5921 1.9986 3.9527 2.9979 7.082 2.9979 3.1842 0 5.5997-0.99932 7.2467-2.9979s2.4705-5.2936 2.4705-9.8851v-31.033h16.576v35.003c0 7.8865-2.2388 13.855-6.7165 17.907-4.4776 4.0513-10.978 6.0769-19.502 6.0769z"/>
		<path d="m98.342 299.85c-9.1115 0-16.538-2.8089-22.278-8.4266-5.6881-5.6178-8.5321-12.856-8.5321-21.715 0-8.9128 2.844-16.151 8.5321-21.715 5.6881-5.6178 13.114-8.4266 22.278-8.4266s16.59 2.8089 22.278 8.4266c5.6881 5.5637 8.5321 12.802 8.5321 21.715s-2.844 16.178-8.5321 21.796c-5.6881 5.5637-13.114 8.3456-22.278 8.3456zm0.05367-14.909c4.1397 0 7.4362-1.4044 9.8894-4.2133 2.4532-2.8089 3.6798-6.482 3.6798-11.019 0-4.5374-1.2266-8.2106-3.6798-11.019-2.4532-2.8089-5.7496-4.2133-9.8894-4.2133-4.0886 0-7.3851 1.4044-9.8894 4.2133-2.4532 2.8089-3.6798 6.482-3.6798 11.019 0 4.5374 1.2266 8.2106 3.6798 11.019 2.5043 2.8089 5.8008 4.2133 9.8894 4.2133z"/>
		<path d="m21.051 298.56v-57.69h16.698v43.233h27.268v14.457z"/>
	</g>
</svg>
