<?xml version="1.0" encoding="UTF-8"?>
<svg width="415.14" height="450" version="1.1" xmlns="http://www.w3.org/2000/svg">
	<path d="M 415.14,337.5 207.57,450 0,337.5 v -225 L 207.57,0 415.14,112.5 Z" fill="#c5030e"/>
	<g fill="#fff">
		<path d="m29.812 155.49v64.337h28.384c17.821 0 32.169-14.347 32.169-32.169 0-17.821-14.347-32.169-32.169-32.169zm15.138 15.138h13.246c9.4349 0 17.03 7.5955 17.03 17.03 0 9.4344-7.5954 17.03-17.03 17.03h-13.246z"/>
		<path d="m143.35 204.69h-30.276v-9.4613h24.599v-15.138h-24.599v-9.4612h30.276v-15.138h-45.414v64.337h45.414z"/>
		<path d="m158.49 219.83h45.414v-15.138h-30.276v-49.199h-15.138z"/>
		<path d="m209.58 155.49v35.953c0 15.725 12.659 28.384 28.384 28.384s28.384-12.659 28.384-28.384v-35.953h-15.138v35.953c0 7.338-5.9077 13.246-13.246 13.246-7.338 0-13.246-5.9078-13.246-13.246v-35.953z"/>
		<path d="m292.84 187.66-20.815 32.169h18.923l11.354-17.503 11.354 17.503h18.923l-20.815-32.169 20.815-32.169h-18.923l-11.354 17.503-11.354-17.503h-18.923z"/>
		<path d="m340.14 219.83h45.415v-15.138h-30.277v-9.4613h24.599v-15.138h-24.599v-9.4612h30.277v-15.138h-45.415z"/>
		<path d="m48.735 229.29h-18.923v79.474h18.923v-44.703l16.439 25.901h8.7519l16.439-25.901v44.703h18.923v-79.474h-18.923l-20.815 32.641z"/>
		<path d="m124.43 229.29v47.307c0 18.869 15.191 34.061 34.061 34.061s34.061-15.192 34.061-34.061v-47.307h-18.923v47.307c0 8.386-6.7514 15.138-15.138 15.138-8.3863 0-15.138-6.7521-15.138-15.138v-47.307z"/>
		<path d="m277.7 229.29h18.923v79.474h-18.923z"/>
		<path d="m347.83 227.4c-14.754 0.64724-28.669 9.2099-35.598 23.416-10.079 20.665-1.5056 45.505 19.159 55.588 20.665 10.082 45.506 1.5048 55.588-19.159l-16.912-8.279c-3.6769 7.5854-11.466 12.773-20.46 12.773-12.541 0-22.707-10.166-22.707-22.707s10.166-22.707 22.707-22.707c8.9948 0 16.783 5.1882 20.46 12.773l16.912-8.2782c-4.0718-8.3488-10.811-15.088-19.159-19.159-6.4577-3.1501-13.281-4.5522-19.987-4.2578z"/>
		<path d="m248.71 255.1 18.446-5.2038c-4.0023-8.4608-9.9228-22.358-31.634-22.358-17.647 0-29.928 9.0589-29.893 24.697 0.0616 27.384 41.35 23.387 41.384 34.583 0.0151 4.6378-5.206 7.7094-10.232 7.532-5.8821-0.20749-10.571-2.9805-17.561-12.932l-17.206 6.4762c5.7591 12.235 13.687 22.736 33.596 22.736 21.507 0 31.074-9.9299 31.067-24.077-0.0151-27.705-41.16-24.633-41.096-36.585 0.0227-4.1481 2.9302-5.7078 9.987-5.0484 6.0257 0.5631 10.738 5.6671 13.14 10.18h3e-3z"/>
	</g>
</svg>
