<?xml version="1.0" encoding="UTF-8"?>
<svg width="703.73" height="450" version="1.1" xmlns="http://www.w3.org/2000/svg">
	<g fill="#c5030e">
		<path d="m563.7 159.27v147.6h66.229c40.884 0 73.799-32.915 73.799-73.799s-32.915-73.798-73.799-73.798zm34.061 30.276h28.384c24.112 0 43.522 19.411 43.522 43.522 0 24.112-19.411 43.522-43.522 43.522h-28.384z"/>
		<path d="m419.89 306.87h34.061v-56.768h56.768v56.768h34.061v-147.6h-34.061v56.768h-56.768v-56.768h-34.061z"/>
		<path d="m194.46 0 194.46 112.5v225l-194.46 112.5-194.46-112.5v-225z"/>
	</g>
	<g fill="#fff">
		<path d="m21.717 223.23v76.242h21.959v-29.957l14.096 17.852h8.0156l14.096-17.852v29.957h21.959v-76.242h-10.391l-29.672 37.635-29.779-37.635z"/>
		<path d="m161.07 223.23v39.906c0 13.302-4.199 18.168-13.752 18.168-9.2378 0-13.542-4.8666-13.542-18.168v-39.906h-20.89v45.637c0 9.1924 3.0443 16.871 9.0278 22.819 5.9836 5.948 14.487 8.8679 25.404 8.8679 11.022 0 19.525-2.9199 25.509-8.8679 6.0885-5.948 9.1328-13.626 9.1328-22.819v-45.637z"/>
		<path d="m225.24 251.78c-9.7427-2.1629-12.205-3.7851-12.205-6.9213 0-2.7036 2.2483-4.6502 6.5308-4.6502 6.1026 0 13.49 1.6222 22.269 4.9747l8.7792-16.763c-10.92-4.2177-21.091-6.2724-30.406-6.2724-8.9933 0-16.166 2.271-21.413 6.8132-5.2461 4.5421-7.8156 10.49-7.8156 17.736 0 7.7865 2.6766 13.302 8.3509 16.871 2.8907 1.7303 5.6743 3.1362 8.565 4.1095 2.8907 0.97332 6.745 2.0548 11.349 3.1362 9.4215 2.1629 11.991 3.8932 11.991 6.8131 0 3.2444-2.5695 4.8666-7.7085 4.8666-9.6356 0-18.308-1.8385-25.909-5.5154l-7.9226 16.222c5.7814 2.9199 11.027 4.9747 15.631 5.948 4.6037 0.9733 10.492 1.4059 17.451 1.4059 9.3145 0 16.702-2.1629 22.162-6.5969 5.5673-4.434 8.3509-10.598 8.3509-18.277 0-13.734-9.1003-19.682-28.05-23.9z"/>
		<path d="m263.61 223.23v76.242h20.785v-76.242z"/>
		<path d="m335.23 280.77c-5.1795 0-9.5708-1.7303-13.174-5.2991-3.4905-3.5688-5.2921-8.219-5.2921-14.059 0-5.948 1.8016-10.706 5.2921-14.167 3.4905-3.4606 7.8818-5.191 13.174-5.191 6.4181 0 11.485 2.9199 15.201 8.6516l17.678-13.843c-7.9944-9.0842-19.817-14.708-32.878-14.708-11.598 0-21.619 3.8932-29.838 11.572-8.2196 7.6783-12.386 16.871-12.386 27.685s4.1661 20.007 12.386 27.685c8.2196 7.6783 18.241 11.463 29.838 11.463 13.061 0 24.884-5.5154 32.878-14.6l-17.678-13.843c-3.7157 5.7317-8.7826 8.6516-15.201 8.6516z"/>
		<path d="m342.87 150.02 23.389 0.048 0.0482 7.205 0.0324 7.2215h-29.82v9.6714h24.501v14.024h-24.501v8.2207h31.593v14.346h-48.841v-30.272c0-16.651 0.0482-30.336 0.11271-30.384 0.0484-0.065 10.623-0.097 23.486-0.081z"/>
		<path d="m293.08 149.99h9.6229c5.4321 0 9.6393 0.064 9.6393 0.1452 0 0.081-4.0783 6.7698-9.0591 14.862-4.9808 8.1078-9.0588 14.878-9.0588 15.055s4.1588 6.9151 9.2524 14.991c5.0775 8.0595 9.3811 14.91 9.5584 15.184l0.30632 0.53206h-19.826l-5.448-9.2524c-4.0781-6.915-5.5127-9.2199-5.6416-9.0748-0.0967 0.11283-2.5146 4.1747-5.3838 9.0588-2.8531 4.8679-5.2871 8.9623-5.3838 9.0751-0.14507 0.14507-2.289 0.19343-10.042 0.16119l-9.8487-0.0485 9.5102-14.991c5.2226-8.2529 9.5747-15.152 9.6714-15.345 0.14507-0.30626-0.91874-2.1118-9.0427-15.184-5.0614-8.1563-9.2039-14.91-9.2039-14.991 0-0.129 2.9014-0.1613 9.7681-0.1452l9.7681 0.048 5.0936 8.8976c2.8208 4.9002 5.1582 8.914 5.2066 8.914 0.0645 0 2.4501-4.0298 5.3193-8.946z"/>
		<path d="m201.12 149.99h8.7043v17.07c0 10.542 0.0645 17.715 0.16119 18.73 0.45133 4.4327 1.8859 7.5276 4.207 9.0106 1.483 0.95102 2.7402 1.3219 4.9163 1.4186 3.111 0.12895 5.0615-0.35468 6.8185-1.6764 1.7892-1.3379 3.0302-3.7236 3.6589-6.9957 0.27402-1.4185 0.30613-2.8854 0.35449-19.553l0.0485-18.005 8.7364 0.032 8.7367 0.048v19.746c0 20.826 7e-5 21.051-0.74141 24.42-1.9182 8.7365-7.6244 14.507-16.587 16.764-2.1922 0.54805-3.1593 0.70924-5.8028 0.96714-5.1581 0.51581-10.59 0.12902-14.91-1.0638-8.4625-2.3211-14.088-7.8662-16.135-15.926-0.95102-3.6751-0.91904-3.0788-0.98351-24.662-0.0322-10.929-0.032-19.987 0.0164-20.1 0.0645-0.1934 1.5635-0.2257 8.8009-0.2257z"/>
		<path d="m150.3 149.99h8.7528l0.0321 22.76 0.0485 22.776 14.314 0.0485 14.298 0.0321v15.152h-46.423v-30.272c0-16.651 0.0482-30.336 0.1127-30.384 0.0484-0.065 4.0459-0.1127 8.8655-0.1127z"/>
		<path d="m108.34 150.02 23.389 0.048 0.0482 7.205 0.0324 7.2215h-29.82v9.6714h24.501l-0.0324 6.9633-0.0482 6.9797-12.202 0.0485-12.218 0.0321v8.2207h31.593v14.346h-48.841v-30.272c0-16.651 0.0482-30.336 0.1127-30.384 0.0484-0.065 10.623-0.097 23.486-0.081z"/>
		<path d="m21.717 149.96 14.716 0.081c11.993 0.064 15.039 0.1129 16.554 0.3224 5.4966 0.7254 9.9292 2.2243 13.492 4.5454 5.7222 3.7397 9.2848 9.2363 10.832 16.764 1.0155 4.9646 0.96707 11.928-0.14514 17.183-1.8537 8.8654-6.7218 15.378-14.072 18.843-3.0626 1.4346-6.2703 2.3211-10.316 2.8208-1.6119 0.19343-4.5618 0.24179-16.506 0.24179h-14.555v-30.4zm17.247 15.49v29.997h4.0779c6.4637 0 8.3498-0.29014 10.606-1.6119 3.0787-1.8053 5.0291-5.0774 5.8834-9.8487 0.38686-2.2244 0.37068-6.3509-0.0645-8.3819-1.0477-5.0452-3.8684-8.3496-8.2528-9.6714-1.1283-0.3385-1.5637-0.3709-6.7218-0.4354z"/>
	</g>
</svg>
