<?xml version="1.0" encoding="UTF-8"?>
<svg width="388.92" height="450" version="1.1" xmlns="http://www.w3.org/2000/svg">
	<path d="m194.46-5e-7 194.46 112.5v225l-194.46 112.5-194.46-112.5v-225z" fill="#581b66"/>
	<g fill="#fff">
		<path d="m211.65 355.54c1.273-1.1984 2.5572-1.9389 3.8202-2.3324-6.1293-3.7668-13.236-5.7166-20.812-5.7166-5.7546-8e-3 -11.452 1.1414-16.754 3.3794 4.143 0.8514 7.8421 4.0341 7.8421 9.1848v19.433zm-43.214 68.615c1.4244 3.5367 4.9087 5.1558 8.398 5.1558 4.4396-0.15536 8.976-3.448 8.976-8.986v-12.935c0-3.2574 2.6501-4.3922 5.0247-2.1527l20.776 19.649c1.4698 1.383 2.9497 2.1598 4.4154 2.5048 0.62173 0.13796 1.2566 0.20763 1.8935 0.20779 4.7735-0.1967 9.2877-4.6867 9.2877-9.3926 0-2.181-0.97346-4.3468-3.0102-6.2675l-17.761-16.726c-2.4513-2.3101-1.3236-5.1165 2.0488-5.1104l28.954 0.0574c0.12203-10.637-3.7164-20.187-10.019-27.577-0.43983 2.0791-1.3891 4.0412-3.2684 5.8105l-22.252 20.951c-0.19672 0.19066-1.7714 1.5968-2.0488 1.5968l-29.069-0.0584c-1.5757-5e-3 -2.9698-2.181-2.9698-3.7506v-27.077c0-1.2448 0.17854-2.3515 0.50338-3.3168-10.112 7.6445-16.524 19.684-16.623 33.213l13.085 0.1967c1.5818 0 2.9688 1.3891 2.9688 2.9627v27.213c7.3e-4 1.4627 0.25521 2.7428 0.69 3.8303zm40.778 15.649c-4.791 1.4087-9.7595 2.1218-14.753 2.1174-6.4215 7e-3 -12.789-1.1757-18.78-3.4893-18.791-7.2622-32.281-25.122-33.069-46.211l-0.0344-1.955c0-28.526 23.23-51.658 51.884-51.658 28.614 0 51.815 23.055 51.882 51.523 0 23.421-15.654 43.342-37.13 49.673z"/>
		<path d="m139.64 310.48c0-4.904-1.7695-9.1003-5.2579-12.588-3.4884-3.4885-7.7352-5.2579-12.69-5.2579h-15.976v35.643h17.139c4.6007 0 8.5441-1.7695 11.83-5.3085 3.2862-3.5389 4.9546-7.6846 4.9546-12.487zm-23.862-8.8474h5.9152c2.1234 0 3.9435 0.85946 5.4602 2.6289 1.5167 1.7189 2.275 3.7918 2.275 6.2185 0 2.3761-0.70781 4.3985-2.1739 6.1174-1.4661 1.7189-3.2356 2.6289-5.3085 2.6795h-6.168z"/>
		<path d="m176.72 328.28-17.594-35.643h-4.8535l-17.543 35.643h10.819l2.4772-5.7129h13.296l2.5278 5.7129zm-16.987-13.903h-6.0668l3.0334-7.0274z"/>
		<path d="m202.26 310.28-18.453-17.644h-4.8535v35.643h10.364v-17.644l18.453 17.644h4.8535v-35.643h-10.364z"/>
		<path d="m235.69 319.53c-2.3256 0-4.2974-0.80891-5.9152-2.4773-1.5672-1.6684-2.3761-3.8424-2.3761-6.5724 0-2.7806 0.80891-5.0052 2.3761-6.6229 1.5672-1.6178 3.539-2.4267 5.9152-2.4267 2.8817 0 5.1568 1.365 6.8252 4.0446l7.9374-6.4713c-3.5896-4.2468-8.898-6.8757-14.762-6.8757-5.2074 0-9.7068 1.82-13.397 5.4096s-5.5613 7.8868-5.5613 12.942 1.8706 9.353 5.5613 12.942c3.6907 3.5896 8.1902 5.359 13.397 5.359 5.8646 0 11.173-2.5784 14.762-6.8252l-7.9374-6.4713c-1.6684 2.6795-3.9435 4.0446-6.8252 4.0446z"/>
		<path d="m263.46 315.08h14.202v-8.1902h-14.202v-5.814h17.336v-8.443h-27.397v35.643h28.459v-8.443h-18.398z"/>
		<path d="m126.11 207.01c0-18.66-4.9133-37.921-18.332-51.194-13.419-13.273-29.755-16.71-48.813-16.71h-58.965v135.62h63.437c17.697 0 33.354-6.7327 45.994-20.198 12.641-13.466 16.677-29.239 16.677-47.514zm-87.409-34.449h17.58c8.1679 0 17.301 3.2702 23.134 10.003 5.8342 6.5403 6.6195 15.213 6.6195 24.446 0 9.0412-2.7226 17.488-8.3623 24.029-5.6397 6.5403-12.446 8.071-20.42 8.2635h-18.552z"/>
		<path d="m176.38 139.11h-39.867v135.62h103.93v-34.791h-64.062z"/>
		<path d="m251.04 139.11 43.345 67.693-43.345 67.924h44.729l24.208-40.203 24.208 40.203h44.729l-43.345-67.924 43.345-67.693h-43.755l-25.182 40.63-25.182-40.63z"/>
	</g>
</svg>
