<?xml version="1.0" encoding="UTF-8"?>
<svg width="388.92" height="450" version="1.1" xmlns="http://www.w3.org/2000/svg">
	<path d="m194.46 0 194.46 112.5v225l-194.46 112.5-194.46-112.5v-225z" fill="#00f825"/>
	<g fill="#fff">
		<path d="m71.552 303.08h-26.584v34.443h9.7218v-10.992h14.175v-8.1586h-14.175v-7.1324h16.862z"/>
		<path d="m85.146 303.08h-10.015v34.443h26.283v-7.9144h-16.268z"/>
		<path d="m143.14 337.52-17.001-34.443h-4.69l-16.952 34.443h10.455l2.3938-5.5205h12.848l2.4427 5.5205zm-16.415-13.435h-5.8625l2.9312-6.7907z"/>
		<path d="m160.52 315.97c-4.4457-0.97706-5.5694-1.7099-5.5694-3.1267 0-1.2213 1.0259-2.1007 2.98-2.1007 2.7846 0 6.1556 0.73281 10.162 2.2473l4.0061-7.5724c-4.9831-1.9053-9.6241-2.8335-13.874-2.8335-4.1038 0-7.3769 1.0259-9.7707 3.0778-2.3938 2.0518-3.5663 4.7389-3.5663 8.012 0 3.5175 1.2213 6.009 3.8106 7.6212 1.319 0.78167 2.5892 1.4168 3.9084 1.8564 1.319 0.4397 3.0778 0.92823 5.1786 1.4168 4.2992 0.97706 5.4717 1.7587 5.4717 3.0778 0 1.4656-1.1725 2.1984-3.5175 2.1984-4.3969 0-8.354-0.83053-11.823-2.4915l-3.6152 7.3281c2.6381 1.319 5.032 2.2472 7.1327 2.6869 2.1007 0.43967 4.7877 0.6351 7.9632 0.6351 4.2503 0 7.6212-0.97707 10.113-2.98 2.5404-2.003 3.8107-4.7877 3.8107-8.2563 0-6.2045-4.1526-8.8914-12.8-10.797z"/>
		<path d="m198.53 317.85h-12.018v-14.778h-9.7218v34.443h9.7218v-11.505h12.018v11.505h9.673v-34.443h-9.673z"/>
		<path d="m241.19 310.55c0.0454-1.8789-0.70883-3.9785-2.1134-5.2274-2.1218-1.8866-5.3766-2.2473-8.2158-2.2473h-16.757v34.443h20.421c3.2733 0 5.4646-1.2321 7.2481-3.1755 1.8814-2.05 2.7466-5.1229 2.6827-7.9047-0.0465-2.022-0.9425-4.0755-2.2118-5.6502-1.1111-1.3784-2.8072-2.5092-4.422-2.9419 2.6534-1.5319 3.3036-4.6179 3.3683-7.2956zm-11.448 0.68395c1.6122 0 2.3769 1.4923 2.3769 2.7136 0 1.2213-0.81359 2.7137-2.4746 2.7137h-5.8179v-5.4274zm-5.8667 11.769h4.9343c3.7618 0 5.1779 1.4318 5.1779 3.4348 0 2.5404-1.1229 3.4348-5.2267 3.4348h-4.8854z"/>
		<path d="m283.35 337.52-17.001-34.443h-4.69l-16.952 34.443h10.455l2.3938-5.5205h12.848l2.4427 5.5205zm-16.415-13.435h-5.8625l2.9312-6.7907z"/>
		<path d="m300.07 329.07c-2.2473 0-4.1526-0.78165-5.716-2.3938-1.5144-1.6122-2.2961-3.713-2.2961-6.351 0-2.6869 0.78166-4.8366 2.2961-6.3999 1.5144-1.5633 3.4198-2.345 5.716-2.345 2.7846 0 4.9831 1.319 6.5953 3.9084l7.6701-6.2533c-3.4687-4.1038-8.5983-6.6441-14.265-6.6441-5.032 0-9.3798 1.7587-12.946 5.2274s-5.374 7.6212-5.374 12.506 1.8076 9.038 5.374 12.506c3.5664 3.4685 7.9143 5.1786 12.946 5.1786 5.6671 0 10.797-2.4915 14.265-6.5953l-7.6701-6.2533c-1.6122 2.5892-3.8107 3.9084-6.5953 3.9084z"/>
		<path d="m350.64 303.08h-11.969l-11.139 13.239v-13.239h-9.7218v34.443h9.7218v-7.5235l3.7167-4.4555 6.8357 11.979h13.093l-13.529-19.307z"/>
		<path d="m126.11 207.01c0-18.66-4.9133-37.921-18.332-51.194-13.419-13.273-29.755-16.71-48.813-16.71h-58.965v135.62h63.437c17.697 0 33.354-6.7327 45.994-20.198 12.641-13.466 16.677-29.239 16.677-47.514zm-87.409-34.449h17.58c8.1679 0 17.301 3.2702 23.134 10.003 5.8342 6.5403 6.6195 15.213 6.6195 24.446 0 9.0412-2.7226 17.488-8.3623 24.029-5.6397 6.5403-12.446 8.071-20.42 8.2635h-18.552z"/>
		<path d="m176.38 139.11h-39.867v135.62h103.93v-34.791h-64.062z"/>
		<path d="m251.04 139.11 43.345 67.693-43.345 67.924h44.729l24.208-40.203 24.208 40.203h44.729l-43.345-67.924 43.345-67.693h-43.755l-25.182 40.63-25.182-40.63z"/>
	</g>
</svg>
