<?xml version="1.0" encoding="UTF-8"?>
<svg width="388.92" height="450" version="1.1" xmlns="http://www.w3.org/2000/svg">
	<path d="m194.46-5e-7 194.46 112.5v225l-194.46 112.5-194.46-112.5v-225z" fill="#8b2833"/>
	<g fill="#fff">
		<path d="m158.65 337.52-8.2885-10.502c4.2992-2.2011 6.4488-4.9545 6.4488-10.824 0-6.848-3.0094-13.158-13.957-13.158h-16.747v34.484h10.248v-8.6436h3.499c0.14997 0 0.24996 0 0.29994 0.0489l6.299 8.5946zm-17.547-26.316c3.1888 0 4.7192 1.6456 4.7192 4.9228 0 3.0816-1.6957 4.923-5.5691 4.923h-3.8993v-9.846z"/>
		<path d="m178.19 302.6c-5.199 0-9.6478 1.712-13.348 5.1848-3.6493 3.4729-5.4989 7.6306-5.4989 12.522 0 4.8914 1.8496 9.049 5.4989 12.522 3.6993 3.4729 8.1484 5.1848 13.348 5.1848 5.249 0 9.6978-1.712 13.348-5.1848 3.6493-3.4729 5.499-7.6306 5.499-12.522 0-4.8914-1.8496-9.0491-5.499-12.522-3.6493-3.4729-8.0984-5.1848-13.348-5.1848zm0 26.511c-2.2995 0-4.2992-0.83153-5.9488-2.5435-1.6496-1.712-2.4495-3.8153-2.4495-6.261 0-2.3968 0.79985-4.5 2.4495-6.212 1.6496-1.712 3.6493-2.5924 5.9488-2.5924 2.3496 0 4.2992 0.88044 5.9488 2.5924 1.6496 1.712 2.4995 3.8153 2.4995 6.212 0 2.4457-0.84983 4.549-2.4995 6.261-1.6496 1.712-3.5993 2.5435-5.9488 2.5435z"/>
		<path d="m218.92 329.06c-2.2995 0-4.2492-0.78262-5.8489-2.3968-1.5497-1.6141-2.3496-3.7174-2.3496-6.3588 0-2.6903 0.79986-4.8424 2.3496-6.4077s3.4993-2.3479 5.8489-2.3479c2.8494 0 5.099 1.3207 6.7487 3.9131l7.8484-6.261c-3.5493-4.1087-8.7982-6.6523-14.597-6.6523-5.149 0-9.5979 1.7609-13.248 5.2338-3.6493 3.4729-5.4989 7.6306-5.4989 12.522 0 4.8914 1.8496 9.049 5.4989 12.522 3.6493 3.4729 8.0984 5.1848 13.248 5.1848 5.7989 0 11.047-2.4946 14.597-6.6034l-7.8484-6.261c-1.6496 2.5924-3.8992 3.9131-6.7487 3.9131z"/>
		<path d="m268.97 303.08h-11.969l-11.139 13.239v-13.239h-9.7218v34.443h9.7218v-7.5235l3.7167-4.4555 6.8357 11.979h13.093l-13.529-19.307z"/>
		<path d="m126.11 207.01c0-18.66-4.9133-37.921-18.332-51.194-13.419-13.273-29.755-16.71-48.813-16.71h-58.965v135.62h63.437c17.697 0 33.354-6.7327 45.994-20.198 12.641-13.466 16.677-29.239 16.677-47.514zm-87.409-34.449h17.58c8.1679 0 17.301 3.2702 23.134 10.003 5.8342 6.5403 6.6195 15.213 6.6195 24.446 0 9.0412-2.7226 17.488-8.3623 24.029-5.6397 6.5403-12.446 8.071-20.42 8.2635h-18.552z"/>
		<path d="m176.38 139.11h-39.867v135.62h103.93v-34.791h-64.062z"/>
		<path d="m251.04 139.11 43.345 67.693-43.345 67.924h44.729l24.208-40.203 24.208 40.203h44.729l-43.345-67.924 43.345-67.693h-43.755l-25.182 40.63-25.182-40.63z"/>
	</g>
</svg>
