<?xml version="1.0" encoding="UTF-8"?>
<svg width="800" height="283.11" version="1.1" viewBox="0 0 211.67 74.905" xmlns="http://www.w3.org/2000/svg">
 <g transform="matrix(1.3822 0 0 1.3822 11.013 -245.75)" fill="#0e6eb8">
  <g transform="matrix(1.1107 0 0 1.1107 .75245 -23.124)">
   <path d="m-7.5134 182.8h4.3154c3.6497 0 6.1517 2.502 6.1517 5.7615v0.023c0 3.2595-2.502 5.7844-6.1517 5.7844h-4.3154zm4.3154 9.7325c2.4331 0 4.017-1.6297 4.017-3.9022v-0.0459c0-2.2724-1.5838-3.9251-4.017-3.9251h-2.2724v7.8732z"/>
   <path d="m4.6982 190.06v-0.023c0-2.502 1.7675-4.5449 4.2694-4.5449 2.7774 0 4.1776 2.1806 4.1776 4.6826 0 0.18363-0.02295 0.36726-0.02295 0.55089h-6.4042c0.20659 1.4232 1.2166 2.2036 2.502 2.2036 0.96407 0 1.6756-0.36727 2.3643-1.0329l1.1707 1.0329c-0.82634 0.98702-1.974 1.6297-3.5808 1.6297-2.5249 0.023-4.476-1.8134-4.476-4.499zm6.473-0.64272c-0.13772-1.2854-0.89521-2.2954-2.2036-2.2954-1.2166 0-2.0888 0.94112-2.2724 2.2954z"/>
   <path d="m15.073 191.2v-5.5549h1.997v4.9581c0 1.3543 0.68862 2.1347 1.8593 2.1347 1.1477 0 1.974-0.80339 1.974-2.1577v-4.9351h1.997v8.7225h-1.997v-1.3543c-0.5509 0.82634-1.3772 1.5379-2.7315 1.5379-1.9511 0-3.0988-1.3084-3.0988-3.3513z"/>
   <path d="m25.839 191.96v-4.5908h-1.1018v-1.7216h1.1018v-2.3872h1.997v2.3872h2.3413v1.7216h-2.3413v4.2694c0 0.78044 0.39022 1.1018 1.0788 1.1018 0.43613 0 0.8493-0.0918 1.2395-0.29841v1.6297c-0.50499 0.27545-1.0559 0.43613-1.7904 0.43613-1.492 0.0229-2.5249-0.61976-2.5249-2.5479z"/>
   <path d="m31.486 193.25 0.89521-1.3543c0.94111 0.71157 1.974 1.0788 2.8693 1.0788 0.8493 0 1.3543-0.36727 1.3543-0.94112v-0.023c0-0.68862-0.91816-0.91816-1.9511-1.2166-1.2854-0.36727-2.7315-0.89521-2.7315-2.5708v-0.023c0-1.6527 1.3772-2.6627 3.0988-2.6627 1.1018 0 2.2724 0.39022 3.2136 0.98703l-0.80339 1.4232c-0.8493-0.50499-1.7445-0.82635-2.4561-0.82635-0.78044 0-1.2166 0.36727-1.2166 0.87225v0.023c0 0.61976 0.94112 0.89521 1.974 1.2166 1.2625 0.39022 2.7086 0.96407 2.7086 2.5479v0.023c0 1.8363-1.4231 2.7545-3.2365 2.7545-1.2625 0-2.6397-0.45908-3.7186-1.3084z"/>
   <path d="m39.979 190.06v-0.023c0-2.479 1.9281-4.5678 4.5219-4.5678 1.6527 0 2.6856 0.61976 3.489 1.515l-1.2395 1.3313c-0.61976-0.64271-1.2625-1.1018-2.2724-1.1018-1.4461 0-2.502 1.2625-2.502 2.7774v0.023c0 1.5609 1.0788 2.8004 2.6168 2.8004 0.94112 0 1.6297-0.43613 2.2724-1.1018l1.2166 1.1936c-0.8493 0.96406-1.8593 1.6297-3.5808 1.6297-2.6168 0.0459-4.5219-1.997-4.5219-4.476z"/>
   <path d="m49.895 182.32h1.997v4.6826c0.5509-0.82634 1.3772-1.5379 2.7315-1.5379 1.974 0 3.0988 1.3313 3.0988 3.3513v5.5549h-1.997v-4.9581c0-1.3543-0.68862-2.1347-1.8593-2.1347-1.1477 0-1.974 0.80339-1.974 2.1577v4.9351h-1.997z"/>
   <path d="m59.65 190.06v-0.023c0-2.502 1.7675-4.5449 4.2694-4.5449 2.7774 0 4.1776 2.1806 4.1776 4.6826 0 0.18363-0.02295 0.36726-0.02295 0.55089h-6.4042c0.20659 1.4232 1.2166 2.2036 2.502 2.2036 0.96407 0 1.6756-0.36727 2.3643-1.0329l1.1707 1.0329c-0.82634 0.98702-1.974 1.6297-3.5808 1.6297-2.5249 0.023-4.476-1.8134-4.476-4.499zm6.473-0.64272c-0.13772-1.2854-0.89521-2.2954-2.2036-2.2954-1.2166 0-2.0888 0.94112-2.2724 2.2954z"/>
   <path d="m69.406 193.25 0.89521-1.3543c0.94111 0.71157 1.974 1.0788 2.8693 1.0788 0.8493 0 1.3543-0.36727 1.3543-0.94112v-0.023c0-0.68862-0.91816-0.91816-1.9511-1.2166-1.2854-0.36727-2.7315-0.89521-2.7315-2.5708v-0.023c0-1.6527 1.3772-2.6627 3.0988-2.6627 1.1018 0 2.2724 0.39022 3.2136 0.98703l-0.80339 1.4232c-0.8493-0.50499-1.7445-0.82635-2.4561-0.82635-0.78044 0-1.2166 0.36727-1.2166 0.87225v0.023c0 0.61976 0.94112 0.89521 1.974 1.2166 1.2625 0.39022 2.7086 0.96407 2.7086 2.5479v0.023c0 1.8363-1.4231 2.7545-3.2365 2.7545-1.2625 0-2.6168-0.45908-3.7186-1.3084z"/>
  </g>
  <g transform="matrix(1.1114 0 0 1.1114 .061764 -22.991)">
   <path d="m31.417 199.33h2.1577l3.512 5.4631 3.512-5.4631h2.1577v11.569h-2.0429v-8.2864l-3.6497 5.463h-0.06886l-3.6267-5.4172v8.2634h-1.9511z"/>
   <path d="m45.419 207.73v-5.5549h1.997v4.9581c0 1.3543 0.68862 2.1347 1.8593 2.1347 1.1477 0 1.974-0.80339 1.974-2.1577v-4.9351h1.997v8.7225h-1.997v-1.3543c-0.5509 0.82634-1.3772 1.5379-2.7315 1.5379-1.9511 0-3.0988-1.3084-3.0988-3.3513z"/>
   <path d="m55.059 209.77 0.89521-1.3543c0.94112 0.71158 1.974 1.0788 2.8693 1.0788 0.8493 0 1.3543-0.36726 1.3543-0.94111v-0.023c0-0.68862-0.91816-0.91816-1.9511-1.2166-1.2854-0.36726-2.7315-0.89521-2.7315-2.5708v-0.0229c0-1.6527 1.3772-2.6627 3.0988-2.6627 1.1018 0 2.2724 0.39022 3.2136 0.98702l-0.80339 1.4232c-0.8493-0.50499-1.7445-0.82634-2.4561-0.82634-0.78044 0-1.2166 0.36726-1.2166 0.87225v0.0229c0 0.61976 0.94112 0.89521 1.974 1.2166 1.2625 0.39021 2.7086 0.96407 2.7086 2.5479v0.023c0 1.8363-1.4231 2.7545-3.2365 2.7545-1.2625 0-2.6168-0.45908-3.7186-1.3084z"/>
   <path d="m64.08 198.94h2.1577v1.9052h-2.1577zm0.06886 3.2365h1.997v8.7225h-1.997z"/>
   <path d="m68.763 198.85h1.997v7.2076l3.6267-3.8563h2.4331l-3.4661 3.5579 3.5808 5.1646h-2.3184l-2.6168-3.7645-1.2166 1.2625v2.502h-1.997v-12.074z"/>
  </g>
  <g transform="matrix(1.1107 0 0 1.1107 .63218 -22.742)">
   <path d="m-7.7429 215.86h8.6078v1.8593h-6.5878v3.1677h5.8303v1.8593h-5.8303v4.7056h-2.02z"/>
   <path d="m2.1273 223.11v-0.023c0-2.502 1.7675-4.5449 4.2694-4.5449 2.7774 0 4.1776 2.1806 4.1776 4.6826 0 0.18363-0.02295 0.36726-0.02295 0.55089h-6.4271c0.20659 1.4232 1.2166 2.2036 2.502 2.2036 0.96407 0 1.6756-0.36727 2.3643-1.0329l1.1707 1.0329c-0.82634 0.98702-1.974 1.6297-3.5808 1.6297-2.502 0.023-4.4531-1.8134-4.4531-4.499zm6.473-0.64272c-0.13772-1.2854-0.89521-2.2954-2.2036-2.2954-1.2166 0-2.0888 0.94112-2.2724 2.2954z"/>
   <path d="m12.594 218.7h1.997v1.974c0.5509-1.3084 1.5609-2.2036 3.0988-2.1347v2.1118h-0.11477c-1.7445 0-2.984 1.1477-2.984 3.4431v3.3283h-1.997z"/>
   <path d="m19.412 218.7h1.997v1.3543c0.5509-0.82634 1.3772-1.5379 2.7315-1.5379 1.974 0 3.0988 1.3313 3.0988 3.3513v5.5549h-1.997v-4.9581c0-1.3543-0.68862-2.1347-1.8593-2.1347-1.1477 0-1.974 0.80339-1.974 2.1577v4.9351h-1.997z"/>
   <path d="m28.961 226.3 0.89521-1.3543c0.94112 0.71157 1.974 1.0788 2.8693 1.0788 0.8493 0 1.3543-0.36727 1.3543-0.94112v-0.023c0-0.68862-0.91816-0.91816-1.9511-1.2166-1.2854-0.36726-2.7315-0.8952-2.7315-2.5708v-0.023c0-1.6527 1.3772-2.6627 3.0988-2.6627 1.1018 0 2.2724 0.39022 3.2136 0.98703l-0.80339 1.4232c-0.8493-0.50499-1.7445-0.82635-2.4561-0.82635-0.78044 0-1.2166 0.36727-1.2166 0.87225v0.023c0 0.61976 0.94111 0.8952 1.974 1.2166 1.2625 0.39022 2.7086 0.96407 2.7086 2.5479v0.0229c0 1.8363-1.4232 2.7545-3.2365 2.7545-1.2625 0-2.6397-0.45908-3.7186-1.3084z"/>
   <path d="m37.454 223.11v-0.023c0-2.502 1.7675-4.5449 4.2694-4.5449 2.7774 0 4.1776 2.1806 4.1776 4.6826 0 0.18363-0.02295 0.36726-0.02295 0.55089h-6.4271c0.20659 1.4232 1.2166 2.2036 2.502 2.2036 0.96407 0 1.6756-0.36727 2.3643-1.0329l1.1707 1.0329c-0.82634 0.98702-1.974 1.6297-3.5808 1.6297-2.502 0.023-4.4531-1.8134-4.4531-4.499zm6.4501-0.64272c-0.13772-1.2854-0.89521-2.2954-2.2036-2.2954-1.2166 0-2.0888 0.94112-2.2724 2.2954z"/>
   <path d="m47.898 215.37h1.997v4.6826c0.5509-0.82634 1.3772-1.5379 2.7315-1.5379 1.974 0 3.0988 1.3313 3.0988 3.3513v5.5549h-1.997v-4.9581c0-1.3543-0.68862-2.1347-1.8593-2.1347-1.1477 0-1.974 0.80339-1.974 2.1577v4.9351h-1.997z"/>
   <path d="m57.676 223.11v-0.023c0-2.502 1.7675-4.5449 4.2694-4.5449 2.7774 0 4.1776 2.1806 4.1776 4.6826 0 0.18363-0.02295 0.36726-0.02295 0.55089h-6.4042c0.20659 1.4232 1.2166 2.2036 2.502 2.2036 0.96407 0 1.6756-0.36727 2.3643-1.0329l1.1707 1.0329c-0.82634 0.98702-1.974 1.6297-3.5808 1.6297-2.5249 0.023-4.476-1.8134-4.476-4.499zm6.4501-0.64272c-0.13772-1.2854-0.89521-2.2954-2.2036-2.2954-1.2166 0-2.0888 0.94112-2.2724 2.2954z"/>
   <path d="m68.143 218.7h1.997v1.3543c0.5509-0.82634 1.3772-1.5379 2.7315-1.5379 1.974 0 3.0988 1.3313 3.0988 3.3513v5.5549h-1.997v-4.9581c0-1.3543-0.68862-2.1347-1.8593-2.1347-1.1477 0-1.974 0.80339-1.974 2.1577v4.9351h-1.997z"/>
  </g>
 </g>
 <path d="m136.76-1.1357e-4h74.905v74.905h-74.905z" fill="#fff" stroke-dashoffset="3.402" stroke-linecap="square" stroke-miterlimit="0" stroke-width=".52917" style="paint-order:markers stroke fill"/>
 <path transform="matrix(.26458 0 0 .26458 0 -.00011357)" d="m516.89 0v165.7c21.769-28.138 38.461-40.552 62.891-53.953-0.00152-0.00313-0.00238-0.00664-0.0039-0.00977-34.719-71.103 11.125-112.81 47.521-102.79 27.133 7.4667 73.12 80.514-20.588 130.48-0.00393 0.0021-0.00779 0.00377-0.01172 0.00586 3.8569 9.7339 7.691 19.466 11.516 29.207 0.00136-4.8e-4 0.00254-0.00146 0.0039-0.00195 87.569-31.154 141.41 66.356 39.242 97.719 2.3564 5.5981 4.7283 11.186 7.1348 16.75h135.4v-283.11h-283.11zm98.576 40.83c-14.426-0.59478-39.78 21.949-22.645 63.988 54.102-28.047 39.094-63.31 22.645-63.988zm-20.016 104.97c-105.67 63.561-33.405 136.25 46.787 112.31-8.5879-19.741-17.123-40.914-25.891-62.428-25.32 7.3947-44.583 35.376-7.4824 51.281-67.591-13.192-42.532-54.222-1.7266-73.697-3.8233-9.1997-7.7106-18.382-11.688-27.469zm34.891 48.041c-0.73313-0.01037-1.4723-0.00907-2.2188 0.00196 8.0087 20.331 16.082 40.597 24.402 60.691 43.386-17.436 24-60.04-22.184-60.693zm-113.45 67.141v22.127h136.67c-2.1038-4.411-4.1931-8.9716-6.2774-13.594-30.48 9.3477-92.725 25.829-130.4-8.5332z" fill="#0e6eb8" stroke-dashoffset="3.402" stroke-linecap="square" stroke-width="1.306" style="paint-order:markers stroke fill"/>
</svg>
