<?xml version="1.0" encoding="UTF-8"?>
<svg width="395.21" height="450" xmlns="http://www.w3.org/2000/svg" xmlns:xlink="http://www.w3.org/1999/xlink">
  <defs>
    <radialGradient id="b" cx="107.5" cy="224.61" r="107.5" gradientTransform="matrix(.0222 0 0 -.0248 721.17 674.67)" gradientUnits="userSpaceOnUse">
      <stop stop-color="#80FF80" offset="0"/>
      <stop stop-color="#0f0" offset="1"/>
    </radialGradient>
    <radialGradient id="c" cx="107.89" cy="225" r="107.89" gradientTransform="matrix(1 0 0 .99999 0 .002)" gradientUnits="userSpaceOnUse" xlink:href="#a"/>
    <radialGradient id="a" cx="6611.8" cy="-7278.3" r="17925" gradientTransform="matrix(.0195 0 0 -.0195 770.9 757.89)" gradientUnits="userSpaceOnUse">
      <stop stop-color="#0101FF" offset="0"/>
      <stop stop-color="navy" offset="1"/>
    </radialGradient>
  </defs>
  <path d="M296.44 225c0-74.558-59.992-135-134.55-135h-135V.003l135 .009c130.45 0 233.32 95.339 233.32 224.99 0 129.65-102.86 224.99-233.32 224.99l-135 .013v-90h135c74.556 0 134.55-60.444 134.55-135" fill="#ebebeb"/>
  <path d="M102.64 119.22c-4.236.247-8.468.638-12.648 1.381-4.093.663-8.137 1.622-12.12 2.772a108.446 108.446 0 0 0-12.358 4.466 107.455 107.455 0 0 0-12.697 6.572 104.447 104.447 0 0 0-9.813 6.738c-3.395 2.608-6.607 5.447-9.664 8.444a105.62 105.62 0 0 0-9.17 10.358c-2.451 3.126-4.687 6.42-6.765 9.803a108.371 108.371 0 0 0-6.132 11.646c-1.924 4.326-3.59 8.77-4.925 13.313a103.592 103.592 0 0 0-2.753 11.776c-.753 4.214-1.202 8.475-1.443 12.747-.22 4.709-.16 9.43.235 14.128.316 3.868.864 7.717 1.603 11.525a108.763 108.763 0 0 0 3.31 12.694 108.482 108.482 0 0 0 5.35 13.17 105.25 105.25 0 0 0 5.925 10.572c2.281 3.613 4.822 7.055 7.518 10.368 2.95 3.548 6.104 6.93 9.488 10.07 2.833 2.663 5.843 5.136 8.95 7.473a108.678 108.678 0 0 0 10.962 7.143c4.16 2.345 8.47 4.426 12.908 6.193a103.902 103.902 0 0 0 11.493 3.836c4.521 1.24 9.131 2.143 13.775 2.775 4.3.56 8.631.866 12.968.905 9.684.117 19.378-1.178 28.72-3.724 1.012-.28 2.274-.642 3.374-.984 19.33-5.959 36.846-17.632 49.778-33.187 12.154-14.525 20.258-32.386 23.197-51.095.196-1.282.417-2.795.573-4.177.861-7.12.91-14.325.313-21.468a106.57 106.57 0 0 0-2.132-13.77c-.862-3.905-1.961-7.76-3.264-11.54-1.43-4.146-3.136-8.19-5.052-12.134-2.1-4.214-4.447-8.306-7.077-12.213a104.502 104.502 0 0 0-7.126-9.418c-2.753-3.266-5.726-6.34-8.855-9.248a106.604 106.604 0 0 0-8.935-7.383c-3.506-2.6-7.191-4.95-10.982-7.112-4.09-2.269-8.307-4.307-12.655-6.03a104.125 104.125 0 0 0-11.593-3.847c-4.49-1.226-9.07-2.115-13.683-2.736a106.304 106.304 0 0 0-12.87-.892c-1.909-.04-3.819.066-5.728.09z" fill="url(#b)"/>
  <g fill="url(#c)">
    <path d="M25.768 167.6c-.287.345-.206.316.278-.097.325-.273.344-.3.149-.235-.094.012-.287.16-.427.332M93.047 145.62c-.032-.402-.11-.368-.356.166-.157.335-.126.434.074.299.175-.099.297-.3.282-.465M100.46 135.03c.049-.257-.461-.135-.6.153-.101.158.006.223.208.13.204-.093.38-.221.392-.283M48.418 292.69c-.237.276-.228.302.155.233.21-.026.411-.134.425-.255.03-.34-.302-.34-.58.022M81.314 321.78c.13.095.256.109.28.046.036-.055-.076-.15-.235-.167-.166-.038-.188.022-.045.121M76.865 149.27c.107-.104.04-.194-.164-.152-.194.012-.283.114-.181.204.082.09.253.05.345-.052M186.79 218.17c.112.088.095-.04-.014-.29-.243-.561-.371-.651-.259-.207.049.19.163.405.273.497M28.965 218.56c-.26-.035-.271-.002-.171.57.11.604.453.511.45-.15.015-.208-.124-.403-.279-.42M29.2 183.74c-.014-.091-.097-.057-.199.134-.08.161-.148.413-.133.503.03.092.099.057.199-.135.083-.16.164-.412.133-.502M37.389 221.71c-.26.363-.373 1.425-.15 1.452.083.011.267-.18.413-.45.32-.57.079-1.501-.263-1.002M47.427 291.35c-.016.121.07.268.17.288.118.026.172-.09.125-.224-.053-.16-.13-.276-.17-.285-.06-.012-.121.074-.125.221M40.38 254.47c.104.242.361.543.601.646.354.155.365.093.03-.411-.45-.684-.836-.814-.63-.235M45.558 287.16c-.098-.02-.102.08.01.256.102.15.247.307.308.321.04.007.034-.12-.01-.257-.053-.164-.185-.294-.308-.32M72.345 139.73c-.03.059.017.164.083.266.078.07.212-.005.287-.154.088-.181.038-.285-.081-.268-.125.018-.26.095-.289.156M109.53 218.54c-.962-.449-1.031-.375-.527.651.302.648 1.383.675 1.389.026.002-.113-.38-.414-.862-.677M92.51 225.93c-.249-.116-.468-.155-.474-.078-.005.075.196.342.43.606.268.267.46.305.477.078.014-.186-.19-.456-.433-.606M136.49 220.8c.168-.115.266-.302.254-.414-.008-.075-.136-.147-.316-.145-.148.002-.276.188-.252.412.02.185.18.26.314.147M92.379 227.59c-.112.192-.062.382.098.382.196 0 .37-.187.386-.377.017-.226-.035-.38-.099-.38-.098 0-.27.152-.385.375M136.05 231.08c-.036.553.138 1.204.43 1.449.434.422.465.422.157-.04-.164-.285-.336-.937-.393-1.447-.028-.366-.113-.554-.199-.924.012.385.057.584.005.962M188.09 182.64c-.038-.182-.13-.314-.218-.33-.096-.02-.126.093-.057.28.06.159.165.323.22.331.067.013.084-.133.055-.281M133.17 248.59c.035-.425-.05-.814-.19-.905-.112-.092-.257.608-.276 1.551-.018.91-.076 1.908-.071 2.195-.024.259.107.73.283 1.036.277.427.318.273.416-1.109.054-.898.01-1.739-.067-1.83-.078-.126-.13-.545-.095-.938M109.67 159.72c-.212.242-.404.556-.406.66-.012.278.891-.136 1.033-.484.22-.483-.205-.627-.627-.176M131.47 239.29c.414-.121.92-.213 1.17-.22.253-.046.384-.157.265-.255-.086-.102.144-.741.5-1.39.568-1.044.612-1.227.217-1.391-.764-.294-1.946-.185-2.195.252-.138.185-.346 1.01-.453 1.793-.235 1.28-.174 1.375.496 1.21M150.29 148.36c-.03-.005-.012.116.057.304.059.159.195.33.287.346.077.013.05-.139-.054-.305-.115-.196-.241-.336-.29-.345M122.19 156.1c.019.204-.095.304-.275.194-.18-.11-.356.022-.392.293-.034.308-.174.439-.292.297-.115-.107-.257-.045-.326.16-.05.17.052.344.222.352.536.018 1.332-.705 1.279-1.218-.024-.24-.086-.448-.15-.45-.062-.001-.089.166-.066.372M120.03 148.23c.016.166.109.337.206.34.117.005.24-.157.28-.321.04-.199-.05-.335-.204-.34-.177-.007-.3.119-.282.321M120.05 155.68c.012.171.124.245.223.145.117-.099.188-.267.178-.371-.004-.068-.095-.138-.22-.142-.105-.005-.198.162-.181.368M119.16 156.61a.602.602 0 0 0 .147.554c.114.106.212-.03.192-.305-.045-.617-.178-.723-.339-.249M68.526 148.64c.128-.245-.39-.074-.613.212-.145.16-.067.211.155.099.22-.11.425-.249.458-.311M56.189 171.35c-.157.005-.427.18-.575.385-.461.582-.32.611.285.093.487-.414.518-.483.29-.478M66.665 153.74c.23-.02.245-.083.095-.283-.299-.373-.555-.287-.826.25-.178.35-.145.439.099.296.195-.107.471-.22.632-.263M65.27 147.73c.05-.09.27-.287.456-.367.185-.11.081-.151-.204-.137-.298.041-.606-.025-.687-.121-.1-.068-.175-.057-.199.082-.01.111-.16.379-.367.601-.225.251-.156.325.282.236.33-.046.652-.175.719-.294M59.372 149.95c.052.047.225.017.363-.057.138-.103.102-.152-.102-.119-.206.03-.311.105-.261.176M59.327 171.1c.228-.513.09-.677-.276-.299-.268.275-.353.819-.118.815.092-.002.27-.245.394-.516M63.542 168.14c.109 0 .202-.173.223-.342.033-.204-.052-.335-.143-.335-.107.004-.185.14-.223.342-.02.17.051.336.143.335M66.039 138.71c-.155.035-.245.128-.181.187.05.065.195.01.285-.085.105-.098.069-.164-.104-.102M68.112 137.48c.271-.332.173-.31-.5.109-.191.12-.287.183-.483.304.149-.023.223-.033.37-.054.198-.02.492-.207.613-.359M55.933 155.87c.109-.415-.275-.642-.487-.276-.088.153-.098.267-.024.259.074-.01.197.058.278.159.093.105.169.065.233-.142M64.384 139.45c-.178-.156-.235-.143-.316.143-.04.135-.294.365-.537.469-.33.15-.29.165.112.122.573-.105.966-.492.741-.734M57.09 275.31c.149-.235.204-.485.143-.55-.176-.2-.537.377-.457.731.034.147.167.054.314-.181M66.59 168.1c.288-.38.288-.38-.378.005-.401.243-.45.313-.187.31.157.032.435-.142.565-.315M44.62 178.4c-.554.582-2.244 3.952-2.24 4.454.007.638.863-.418 1.527-1.87.516-1.118.777-1.49 1.482-2.144 1.062-1.025 1.077-1.029 1.173-.23.057.535.013.737-.315 1.08-.231.239-.492.58-.587.786-.08.17.038.133.233-.07.328-.344.396-.28.345.33-.029.312-.044.467-.076.778.311-.48.469-.717.778-1.195.421-.651.81-1.334.857-1.468.046-.135.151-.005.246.264.215.774.684.055.553-.82-.11-.74-.55-.96-.653-.356-.031.17-.145.342-.23.342-.101.004-.12-.13-.041-.3.356-.745-2.304-.364-3.052.419M48.698 180.97c.63-.007 1.135-.18 1.399-.49.397-.45.497-1.1.098-.688-.1.105-.566.28-1.017.352-1.282.289-1.62.837-.48.826M40.967 157.82l-.815.787-.812.792.299-.056c.18-.041.45-.228.58-.378.149-.178.344-.321.439-.346.12-.029.052.108-.14.318-.199.239-.066.16.29-.165.337-.296.808-.624 1.028-.726.748-.323.974-.855.268-.584-.48.19-.557.185-.246-.057.627-.483-.181-.233-1.521.51-.429.233-.64.35-1.063.582.335-.137.503-.204.842-.34.336-.133.507-.203.851-.337M48.315 159.07c.199-.332-.194-.24-.489.105-.135.16-.2.332-.145.406.1.149.378-.088.634-.511M46.709 173.41c.218-.428.115-.712-.145-.442-.361.376-.482.767-.244.753.125-.007.304-.144.389-.311M43.244 166.18c-.271.294-.394.484-.297.471.155-.017 1.27-1.258 1.52-1.696.233-.402-.076-.246-.544.275-.242.259-.396.482-.339.475.056-.009-.098.214-.34.475M44.646 176.53c.4-.245.629-.321.496-.15-.311.402.112.746.996.746.296.005.442.005.74.009.117-.377.174-.562.293-.935.162-.5.197-.863.05-.792-.147.103-.276-.021-.288-.25-.092-.847-.641-.752-2.296.431-.886.627-1.684 1.214-1.782 1.314-.354.375 1.08.082 1.791-.373M52.866 153.79c-.071.01-.17.136-.237.304-.05.143-.069.276-.028.27.028-.004.147-.156.239-.307.107-.176.109-.281.026-.267M41.608 173.09c.097-.102.233-.515.299-.917.08-.41.055-.587-.033-.428-.226.42-.458 1.545-.266 1.345M42.078 163.71c-.235.01-.69.278-.981.543-.63.595-.622.592.539-.087.872-.498.905-.532.442-.456M42.409 169.57c-.428.554-.516.711-.416.853.058.087.01.302-.135.466-.131.164-.226.384-.209.505.035.088.212-.142.427-.558.23-.413.506-1.014.64-1.36.221-.592.221-.592-.307.094M45.643 182.23c-.705.28-1.01.824-.463.82.494-.005 2.439-1.01 2.767-1.423.342-.447.062-.376-2.304.603M43.919 168.94c-.033.03-.199.107-.383.218a1.2 1.2 0 0 0-.47.407c-.247.448-.361 1.306-.218 1.662.068.209-.003.71-.185 1.155-.27.643-.26.705.038.277.263-.363.562-1.163.824-2.164.225-.878.394-1.555.394-1.555M42.553 174.58c.136-.009.363-.245.5-.508.136-.26.196-.485.196-.485-.031.002-.257.238-.5.506-.355.402-.407.5-.196.487M41.283 161.03c-.09-.135-.133-.1-.21.195-.066.294-.243.484-.908 1.002l-.777.594c.256-.043.385-.062.643-.104.366-.07.834-.262 1.038-.407.205-.172.703-.551 1.1-.862.413-.313.83-.603.922-.617.106-.022.315-.19.444-.345.396-.467-.134-.265-.874.321-.656.542-1.128.601-1.378.223M161.21 182.18c-.256-.017-.47.102-.463.31.007.205.195.355.45.372.255.018.455-.14.457-.311-.007-.204-.192-.354-.444-.371M160.28 177.43c-.281-.025-.368.035-.159.154.182.083.429.102.53.045.075-.095-.07-.176-.371-.199M161.9 147.28c-.065-.017-.078.08.005.26.069.146.204.31.27.325.08.023.065-.112-.005-.259-.082-.174-.19-.305-.27-.326M158.26 177.17c-.64.288-.788.584-.604 1.21.202.7.412.612.45-.167.016-.376.214-.665.467-.646.253.019.4-.138.345-.31-.062-.21-.123-.35-.13-.317-.026.033-.262.114-.528.23M152.9 148.97c-.005.347.03.442.183.47.105.02.235.249.276.461.061.304.142.406.227.334.086-.073.002-.469-.183-.91-.358-.88-.488-.961-.503-.355M160.98 147.97c-.285-.466-.865-1.007-.703-.653.054.12.297.416.529.632.364.384.378.36.174.021M162.71 175.57c-.083-.008.005.166.197.349.19.186.447.377.532.382.098.012-.007-.166-.197-.35-.19-.182-.43-.372-.532-.381M173.51 168.81c-.026-.003-.009.474.016 1.047.076 1.183-.287 2.777-.69 3.088-.252.21-.255.21.056.287.183.057.45-.182.592-.496.156-.316.332-.561.415-.55.288.05.27-1.44-.033-2.39-.164-.537-.33-.98-.356-.986M176.42 189.65c-.076-.007-.093.124-.028.326.056.168.216.346.35.354.122.01.127-.155.027-.326-.109-.205-.26-.347-.349-.354"/>
    <path d="M207.26 240.41c-.033.023-.008-.1.036-.24.054-.162.12-.292.147-.31.033-.02.016.079-.036.243-.045.138-.117.293-.147.307zm-.516 1.017c.04-.219.098-.345.17-.323.068-.017.089.099.048.256-.116.4-.282.435-.218.067zm-.567-6.575c-.02.191-.045.295-.072.238-.023-.057-.014-.22.013-.373.068-.354.1-.297.06.135zm-.342.711c-.07.035-.112-.041-.086-.167.024-.126.093-.204.152-.162.059.041.097.114.086.165-.008.05-.077.13-.152.164zm-.544-2.145c-.093.225-.14-.506-.064-.936.026-.15.076-.054.104.216.026.294.007.605-.04.72zm-.38-1.775c-.024-.063-.026-.251-.004-.375.026-.152.064-.19.088-.13.032.059.026.25.004.375-.025.152-.057.19-.088.13zm-.863 1.753c-.09.105-.228.086-.316-.047l-.17-.225c.149-.093.223-.141.366-.233.232-.134.427-.397.558-.756.208-.553.328-.717.26-.311-.052.302-.507 1.33-.698 1.572zm-.823 13.539c-.05.025-.101-.31-.12-.73-.035-1.004.069-1.056.158-.085.042.41.018.782-.038.815zm-.716-10.505c-.07-1.033-.275-1.327-.63-.808-.144.196-.305.549-.353.762-.149.688-.79.896-.884.31-.06-.397-.154-.44-.453-.216-.321.256-.354.242-.225-.15.083-.25.208-.464.282-.489.073-.026.157-.176.199-.364.096-.455-.02-1.938-.149-1.898-.065.019-.297-.187-.523-.45-.235-.259-.453-.374-.479-.241-.029.133-.088.255-.146.27-.05.015-.06-.162-.018-.377.037-.189.021-.489-.041-.601-.102-.202-.06-.265.228-.366.271-.1.31-.161.13-.189-.125-.017-.24-.19-.256-.364-.024-.175-.121-.406-.232-.48l-.212-.154.366-.425c.315-.385.831-.487.89-.199.018.049-.021.412-.075.807-.058.37-.072.882-.038 1.124.064.463.099.425.667-.616.506-.92.59-1.016.73-.831.089.123.465.463.813.774.668.58.908 1.072.814 1.565-.029.155.056.466.199.656.175.25.195.41.083.525-.23.228-.309.742-.212 1.304.048.271.053.63.018.786-.027.13-.018.198.032.131.048-.091.117.171.152.537.054.551.04.674-.064.622-.069-.043-.223-.099-.345-.147-.121-.046-.242-.408-.268-.808zm-3.52-1.023c.088-.28.193-.639.22-.772.029-.136.101-.259.15-.273.136-.041.046.313-.265.99-.238.5-.249.504-.105.055zm-.741 6.58c.019-.006.01.096-.033.26-.035.137-.121.29-.18.31-.05.018-.033-.111.033-.258.073-.173.149-.3.18-.311zm2.368-.206c.13.143.13.357-.005.87-.105.404-.207.9-.237 1.152-.022.225-.105.764-.19 1.182-.091.49-.077.915.038 1.197.092.267.12.843.047 1.347-.074.5-.083.948-.016.988.052.069.062.25.005.44-.048.163-.093.741-.088 1.223 0 .624-.072 1.14-.227 1.625-.132.408-.31 1.04-.384 1.374-.083.381-.299 1.03-.523 1.595-.199.505-.508 1.265-.676 1.685-.176.424-.46 1.013-.642 1.326-.435.73-2.064 4.04-2.334 4.744-.165.434-.27.595-.445.678-.116.056-.513.468-.866.898-.621.758-.652.774-.65.393-.002-.357-.03-.343-.413.165-.303.406-.45.518-.501.383-.045-.093-.197-.181-.344-.207-.344-.03-.366-.363-.081-1.1.295-.767.3-1.185.012-.878-.164.161-.152.087.033-.292.373-.756.385-1.086.013-.444-.488.828-.383.413.133-.568.69-1.306.63-1.399-.157-.19-.756 1.171-.98 1.425-.784.9.238-.632.218-2.086-.02-2.04-.155.035-.312-.025-.362-.126-.058-.097-.39.03-.801.304-1.924 1.289-2.643 1.865-3.01 2.6-.185.354-.406.504-.996.702-.54.163-.98.455-1.52.999-.908.908-1.062.985-1.428.556-.307-.345-.271-.604.125-.951.272-.236 1.008-2.079.903-2.27-.035-.064.025-.458.138-.869.107-.435.295-1.397.42-2.17.195-1.148.281-1.481.483-1.693.215-.242.26-.408.275-.925.03-.803.954-3.366 1.162-3.193.08.057.185-.054.239-.221.055-.173.164-.334.257-.36.081-.024.312-.27.523-.565.189-.259.866-.844 1.479-1.309.616-.44 1.21-.927 1.33-1.069.349-.41.922-1.483 1.098-2.051.232-.712.683-1.413.615-.957-.02.188.004.335.073.312.07-.022.152-.226.169-.435.033-.27.133-.428.297-.479.14-.042.26-.208.294-.397.045-.347.677-1.437.858-1.494.07-.019.145-.147.185-.286.098-.363.546-.678.672-.44.064.11.066.362.012.557-.06.225.027.271.259.121a.793.793 0 0 0 .4-.56c.022-.185.165-.533.318-.812.163-.281.318-.61.354-.747.087-.332.413-.69.684-.778.263-.083.515-.67.415-.917-.131-.31.026-.285.318.049.153.176.449.278.663.253.285-.046.356.052.268.334a3.24 3.24 0 0 1-.242.554c-.05.092-.246.534-.43.995-.389.957-.368 1.06.14 1.952.18.276.298.646.286.77-.015.398.251.147.591-.592.181-.386.515-1.364.748-2.164.535-1.885.903-3.196 1.05-3.545.235-.575.256-.288.038 1.18-.167 1.185-.181 1.527-.048 1.691zm-.698 19.783c-.054.035-.164.225-.247.435-.235.612-1.135 2.23-1.186 2.14-.027-.084.029-.24.233-.646.226-.46.257-.58.207-.755-.059-.188.043-.597.166-.672.038-.02.196-.324.371-.694.321-.687.655-1.758.627-2.036-.012-.078.043-.382.097-.627.127-.537.191-.64.241-.35.021.09-.069.545-.191.975-.126.427-.173.705-.104.62.062-.076.102.024.07.271-.04.292.01.344.21.116.15-.174.238-.23.197-.123-.167.455-.6 1.292-.691 1.346zm-2.277 3.845c-.264.459-.542.984-.608 1.143-.077.185-.12.252-.112.187.031-.24-.494.57-.872 1.326-.563 1.144-.948 1.64-1.32 1.687-.181.021-.262-.095-.183-.28.203-.474.912-1.533 1.677-2.556.394-.526.914-1.352 1.311-2.093.44-.825.636-1.147.608-.969-.013.112.032.188.106.145.183-.11-.049.434-.607 1.41zm-4.88 2.492c-.182.366-.329.608-.332.544-.001-.06-.144.112-.299.358-.396.64-.449.303-.166-.854.092-.373.137-.563.226-.94.247-.11.37-.167.612-.28.63-.276.622-.206-.042 1.172zm-1.422-4.518c-.041-.054.031-.13.176-.189.147-.06.176-.025.085.082-.094.084-.22.136-.26.107zm-5.593-90.804c-.051-.016-.17-.18-.233-.33-.078-.182-.078-.29-.024-.275.064.016.156.148.233.33.066.149.09.288.024.275zm5.674-1.916c.042.13.042.247 0 .23-.046-.021-.12-.164-.162-.294-.054-.16-.042-.247 0-.23.048.02.109.135.162.294zm-74.57-9.948c-.009-.208.214-.34.508-.332.406.008.433.08.174.349-.407.44-.661.433-.682-.017zm-3.093.97c.069-.205.23-.343.37-.34.116 0 .213.143.217.35.005.175-.158.346-.37.343-.19-.002-.287-.177-.217-.353zm-5.355 1.974c.665-.283.758-.245.748.035-.017.527-.558 1.054-.88.879-.436-.247-.365-.74.132-.914zm-.91.985c-.123.109-.283.036-.366-.173-.06-.176.041-.354.23-.354.417 0 .481.21.136.527zm20.733 25.796c.057-.22.417-.358.79-.347.37.01.597.162.544.381-.06.182-.412.356-.786.346-.373-.009-.605-.16-.548-.38zm-6.751-.458c.532.014.761.093.514.199-.272.066-.727.057-.986-.024-.29-.12-.064-.185.472-.175zm-13.035-3.582c.005-.148.63-.299 1.399-.304 1.31-.01 1.377.026 1.223.912-.064.518-.214.924-.328.85-.087-.073-.664-.363-1.23-.655-.594-.29-1.066-.656-1.064-.803zm-3.389-5.913c.344-.44.62-.19.582.505-.019.402-.145.732-.278.734-.295.002-.533-.944-.304-1.239zm-.025 1.866c.628-.19.804.064.749 1.199-.047.92-.489 1.476-1.145 1.482-.11.002-.157-.587-.118-1.286.05-.842.213-1.32.513-1.395zm-5.87 2.01c-.062-.183.06-.367.271-.37.476-.006.534.212.133.548-.141.113-.319.042-.404-.178zm82.641 28.675c-.085.332-.126.5-.212.833-.216.836-.4.941-.926.627-.214-.126-.304-.356-.321-.923-.028-.797-.712-2.516-.99-2.513-.098 0-.192-.233-.216-.5-.012-.301-.218-.633-.544-.864-.31-.233-.784-.933-1.124-1.641-.667-1.41-1.237-1.96-1.107-1.045.057.337-.005.61-.134.644-.136 0-.485.1-.785.203-.311.069-.669.172-.772.172-.114.035-.149.308-.06.648.19.715.04 1.432-.3 1.435-.124.004-.37.516-.547 1.1-.505 1.89-.983 3.035-1.19 3.04-.112.003-.175.142-.133.313.041.17-.078.38-.282.487-.283.18-.27.458.078 1.855.528 1.89.98 4.062.371 5.978-.532 1.635-.894 1.596-1.637-.221a31.337 31.337 0 0 0-1.332-2.698c-.438-.779-.857-1.634-.91-1.874-.055-.242-.482-1.131-.945-1.992-1.014-2.012-1.97-4.307-2.382-6.546.01-.212-.174-.808-.428-1.371-.451-.948-.451-.95-.44-.21.005 1.302-.664 1.378-1.707.137-.846-1.022-.883-1.095-.423-1.095.252.002.42-.176.368-.387-.041-.177-.163-.248-.242-.143-.224.283-1.307-.675-2.565-2.254-.53-.644-1.024-1.114-1.105-1.007-1.876.627-4.809.253-6.653-.484-.137-.108-.396-.583-.608-1.053-.416-.912-.938-1.21-.784-.447.043.217-.013.288-.104.18-.114-.111-.365-.079-.579.132-1.677.356-3.492-1.78-4.312-3.086-.804-1.474-1.396-1.743-2.177-1.068-.394.394-.397.394.34 1.795.384.772.905 1.513 1.123 1.625.192.113.642.848.92 1.582.533 1.32.59 1.36.623.593.084-1.02.685-.646.685.41.033 2.04 2.156 2.058 3.203.075.243-.489.362-.734.6-1.221.111.406.165.608.273 1.016.374 1.269.757 1.782 1.608 2.074.393.114.997.587 1.365 1.023.26.334.39.498.65.83a64.96 64.96 0 0 1-.293 1.154c-.153.61-.395 1.152-.537 1.152-.306 0-.437 1.01-.17 1.408.084.18-.073.47-.343.687-.286.254-.488.582-.447.798.035.181-.15.363-.416.363s-.446.22-.392.51c.053.29-.285.583-.878.733-.542.147-1.145.59-1.36 1.102-.222.475-.837 1.064-1.364 1.325-.526.259-1.208.743-1.526 1.074-.29.333-.63.558-.71.558-.087-.034-.389.08-.714.268-.32.186-.732.337-.951.342-.19.002-.65.228-1.021.525-.372.299-.852.454-1.03.381-.388-.18-1.406-2.905-1.599-4.307-.062-.442-.592-1.477-1.143-2.254-.58-.813-1.056-1.667-1.09-1.928-.03-.22-.563-.89-1.157-1.412-.728-.672-1.142-1.304-1.218-1.9-.166-1.299-.869-2.678-1.725-3.355-.374-.337-.733-.789-.76-1.012-.027-.223-.624-1.267-1.325-2.318-.701-1.048-1.378-2.17-1.523-2.47-.125-.373-.194-.262-.132.294.1 1.149-.49.88-1.34-.62-.371-.636-.786-1.162-.9-1.202-.14-.002.085.558.456 1.195.375.675.935 1.76 1.256 2.398.293.671.87 1.832 1.321 2.618.422.75.81 1.684.87 1.983.068.333.486 1.046.943 1.573.524.601.944 1.534 1.2 2.726.29 1.264.637 2.012 1.213 2.534.417.371.997 1.378 1.268 2.193.356 1.042.814 1.71 1.663 2.337 1.548 1.178 3.586 3.558 3.194 3.78-.186.08.014.52.518 1.103l.805.945c1.106-.315 1.65-.47 2.715-.784 1.493-.43 2.866-.93 3.102-1.08.427-.3.472-.19.577 1.44.048.947.018 1.93-.081 2.153-.096.219-.395 1.39-.67 2.635-.589 2.558-1.615 4.612-3.62 6.217-.45.262-1.529 1.366-2.41 2.414-.908 1.053-2.019 2.35-2.504 2.891-.49.54-1.306 1.78-1.84 2.79-.779 1.433-.912 1.907-.71 2.496.134.393.225 1.45.19 2.306-.013.922.125 1.723.353 1.934.304.273.356 1.058.13 3.166-.256 2.552-.327 2.851-1.016 3.615-.379.431-1.121.98-1.636 1.204-.516.224-1.293.803-1.708 1.322-.44.522-1.112 1.15-1.5 1.453-.631.5-.668.627-.483 1.701.123.655.143 1.702.07 2.361-.123 1.111-.189 1.203-1.43 1.85-1.27.619-1.303.684-1.517 2.04-.16 1.09-.403 1.626-1.045 2.302a35.202 35.202 0 0 0-1.71 2.006c-1.65 2.342-4.223 3.274-6.892 3.497-.918.073-1.907.282-2.236.493-.439.241-.764.253-1.261.051-.748-.309-1.454-1.468-1.175-1.929.223-.373-1.546-3.73-2.243-4.235-.73-.592-1.294-1.914-1.636-4.055-.171-1.071-.534-2.274-.863-2.695-1.102-1.505-2.534-3.394-2.794-5.135-.186-1.257.645-4.012 1.358-4.807.523-.594.608-.986.393-2.015a37.367 37.367 0 0 1-.491-2.445c-.484-2.483-1.812-4.854-3.463-6.692-1.9-1.959-2.532-3.066-2.126-3.657.155-.22.331-1.176.37-2.147.044-.936.15-1.998.27-2.302.085-.34-.235-.952-.836-1.492-.861-.808-1.098-.916-2.42-.69-1.571.265-2.23-.08-2.18-1.032.013-.266-.334-.762-.785-1.104-1.708-1.045-4.173 0-5.765.765-1.577.705-2.195.812-3.156.535-.713-.195-1.78-.206-2.64.004-2.844.715-3.035.703-3.747.018-1.316-1.278-3.738-3.1-3.822-4.693-.017-.335-.328-1.425-.835-2.25-.505-.83-.886-1.655-.863-1.802.026-.185-.24-.451-.58-.565-.496-.192-.593-.452-.389-1.235.112-.558.1-1.376-.043-1.823-.156-.56-.135-.857.07-.968.348-.147 1.282-2.64 1.495-3.947.328-2.198.343-2.908.057-3.538-.267-.596-.206-.783.59-2.237.46-.858 1.131-1.907 1.468-2.358.355-.41.653-.934.69-1.159.132-.782 2.18-3.297 3.202-3.979 1.585-.987 2.53-2.192 2.518-3.12-.035-1.113 1.316-3.17 2.54-3.97.626-.38 1.218-1.094 1.523-1.764.507-1.23.706-1.38 1.017-.83.294.476 3.069.671 3.41.315 1.44-1.504 4.265-1.913 6.391-2.083 1.648-.13 3.469-.334 4.063-.45.65-.154 1.04-.085 1.03.174-.01.223.213.257.5.144.434-.225.432-.189.07.37-.334.519-.344.744-.047 1.22.294.517.26.702-.31 1.263-.36.376-.666.786-.673.898-.014.299 2.601 1.686 2.843 1.5.423-.305 2.442.683 2.743 1.352.15.371.608.665.976.663.368-.004 1.264.325 1.988.69 1.164.662 1.34.688 1.694.173.206-.293.34-.924.36-1.333-.025-1.007 1.288-1.833 2.331-1.477.413.121.746.35.753.498.01.188.786.5 1.73.78.916.278 2.15.676 2.709.873 1.411.547 2.037.521 3.019-.012.72-.39.966-.385 1.617.072 1.245.876 2.084.19 2.634-2.155.243-1.097.412-2.67.392-3.476-.012-.6-.02-.901-.035-1.5-.34.05-.513.072-.856.122-.484.06-.93.268-.989.45-.148.507-1.219.37-2.13-.277-.714-.496-.845-.5-1.224.042-.33.467-.571.499-1.086.191-.342-.228-.969-.573-1.397-.843-.453-.23-.812-.642-.835-.974-.022-.293-.15-.552-.284-.558-.111-.002-.194-.407-.149-.92.038-.582-.066-.914-.282-.92-.188-.003-.283-.227-.223-.517.265-1.199-1.668-1.904-2.288-.824-.173.323-.548.46-.827.345-.558-.273-.727.311-.213.726.144.112.213.444.12.77-.071.29-.032.511.105.479 1.237-.263 1.674.626.556 1.151-.461.246-.648.536-.514.907.098.332.022.553-.232.546-.482-.01-1.762-1.622-1.403-1.798.142-.033-.252-.741-.865-1.525-.758-.933-1.136-1.744-1.15-2.366-.017-.73-.3-1.227-1.12-1.878-.621-.511-1.45-1.015-1.834-1.16-.413-.146-.951-.723-1.19-1.268-.26-.686-.575-.976-.845-.866-.242.111-.504-.034-.576-.322-.22-.87-1.232-.286-1.265.732-.015.47.078.869.239.867.133 0 .699.65 1.281 1.449.584.798 1.268 1.452 1.49 1.45.251-.001.445.146.443.365 0 .182.166.363.363.363.449-.002 2.31 1.453 2.112 1.674-.085.108-.404.002-.748-.29-.49-.365-.656-.365-.941.005-.283.366-.285.55.06.804.372.292.289.511-.4 1.36-.75.962-.81 1-.605.188.35-1.472-.13-2.24-1.96-3.363-.959-.615-2.277-1.85-2.903-2.755-.626-.87-1.265-1.59-1.424-1.553-.181 0-.91.406-1.644.888-1.057.667-1.485.78-1.9.494-.877-.608-1.84-.052-2.052 1.12-.123.733-.385 1.065-1.033 1.367-1.08.492-2.378 2.012-2.389 2.784-.005.736-.851 2.223-1.295 2.228-.183.005-.423.265-.537.564-.149.37-.589.563-1.212.573-.548.009-1.346.205-1.755.397-.615.342-.836.271-1.2-.347-.329-.546-.635-.69-1.265-.492-.762.235-.824.162-.695-.648.075-.48.047-1.064-.065-1.283-.166-.325-.099-.733.283-1.58.275-.63.544-1.836.641-2.712.117-1.422.204-1.638.762-2.016.345-.224.744-.344.893-.238.155.067 1.28.188 2.512.236 2.196.099 2.298.064 2.622-.779.182-.473.38-1.275.444-1.782.166-1.342-.93-3.014-1.961-2.99-.282.007-.455-.242-.413-.528.08-.541.535-.697 1.784-.58.489.027.65-.12.729-.73.086-.647.157-.682.538-.37.335.319.624.275 1.289-.165.463-.33.919-.804 1.02-1.09.102-.287.514-.615.928-.762.413-.115 1.062-.73 1.474-1.34.499-.824.746-1.003.834-.686.114.32.214.246.354-.286.181-.745.362-.821 2.112-.905.64-.04.667-.261.515-2.825-.049-1.018-.005-1.295.188-1.122.128.138.411-.002.634-.285.423-.63 1.155-.772.9-.21-.102.208-.076.595.07.873.19.35.137.525-.243.702-.238.108-.534.423-.596.706-.278.81.458 1.404 1.866 1.402.737-.002 1.454.142 1.597.247.142.14 1.018-.034 1.94-.416 1.095-.454 1.75-.553 1.898-.342.325.458 1.366.486 1.354.03-.007-.211.206-.348.468-.34.384.007.468-.236.437-1.148-.069-1.888.607-2.67 1.525-1.738.582.607.852.476.974-.494.04-.45-.065-.732-.366-.844-.255-.112-.447-.36-.46-.568-.026-.486.643-.712 2.562-.786.874-.003 1.617-.148 1.691-.282.218-.405-.515-.915-1.193-.803-.342.057-1.24.199-1.976.314-1.651.26-2.732-.286-2.732-1.42-.016-.376-.083-.961-.184-1.272-.17-.55.106-.796 2.425-2.757.669-.553.382-1.036-.713-1.169-.997-.133-2.112.582-1.836 1.2.164.41-.21.842-1.408 1.496-1.026.59-1.668 1.579-1.665 2.643 0 .343.137.62.294.623.157 0 .499.212.73.49.372.419.398.526.106.935-.18.273-.613.682-.983.924-.528.342-.623.584-.554 1.421.117 1.115-.387 1.776-1.356 1.774-.33-.002-.59.138-.596.311-.012.633-.964.667-1.18.035-.107-.315-.141-.665-.091-.77.072-.106-.078-.456-.32-.805-.241-.35-.428-.838-.414-1.12.008-.241-.075-.45-.211-.45-.113 0-.216-.21-.202-.486.01-.245-.128-.661-.294-.903-.207-.277-.316-.311-.33-.035-.01.208-.461.696-.98 1.114-.723.527-1.184.67-1.77.5-1.065-.305-1.169-.512-.661-1.071.415-.491.396-.526-.126-.311-.496.178-.513.145-.174-.242.338-.385.347-.523.145-.9-.524-.895-.182-1.931.844-2.59.508-.315 1.099-.593 1.31-.593.19-.002.376-.242.393-.517.02-.305.152-.409.337-.307.16.103.553-.104.89-.515.314-.375.66-.613.76-.51.098.103.186 0 .195-.17.01-.206.143-.373.309-.373s.497-.44.701-.98c.23-.608.891-1.378 1.593-1.943 1.133-.86 1.65-1.684.865-1.293-.202.096-.503.026-.66-.178-.237-.27-.178-.303.182-.131.338.172.417.14.32-.163-.117-.3-.058-.3.3.005.52.476 1.283.189.801-.319-.242-.27-.2-.337.197-.361.278-.031.616-.056.736-.052.14.035.196-.097.135-.263-.127-.367.07-.366.612.013.242.17.596.112.9-.147.285-.225.708-.346.966-.272.236.108.527.047.632-.111.109-.165.534-.448.94-.631.63-.276.686-.242.447.112-.173.226-.306.553-.293.684.007.133.14.071.276-.155.136-.192.426-.415.668-.472.247-.022.572-.174.75-.298.176-.126.313-.087.333.146.02.197.14.268.266.208.105-.06.528.022.903.172.674.328.695.328.254.605-.373.212-.252.283.722.53 2.743.662 3.208.826 4.986 1.763 1.044.56 1.982 1.222 2.087 1.493.105.269-.052.623-.45.93-.534.398-.878.408-2.58-.022-1.93-.51-2.688-.477-1.588.016.352.152.547.43.526.698-.022.265.1.71.254.986.311.521 1.543 1.328 2.04 1.356.418.024.226-.562-.242-.788-.233-.114-.452-.395-.485-.6-.04-.27.086-.33.428-.143.258.149.88.387 1.377.484.812.216.861.185.54-.335-.449-.698-.424-.733.425-1.24.41-.242.921-.304 1.228-.15.62.308 1.023-.355.543-.82-.14-.143-.261-.48-.25-.776.005-.261-.129-.633-.29-.809-.336-.321.878-.291 1.379.043.468.332.54.826.118.795-.479-.04-.536.482-.107.779.57.373 1.4.339 1.443-.114.056-.389 1.161-1.014 2.173-1.145.28-.07.61-.199.772-.313.142-.114.35-.027.475.175.164.307.61.347 1.674.204 1.11-.139 1.483-.094 1.67.214.188.307.31.321.51.088.312-.406.083-.845-.812-1.546-.537-.44-.572-.51-.204-.308.266.125 1.087.412 1.827.657.738.247 1.988.811 2.797 1.292 1.694.967 2.045.704.61-.51-.51-.411-.83-.762-.712-.746.1.014.122-.2.04-.458-.085-.257-.256-.495-.363-.54-.116-.018-.042-.222.15-.44.207-.213.371-.647.365-.982-.005-.331.119-.582.264-.561.157.024.231-.114.176-.271-.068-.19.048-.292.252-.261.284.045.323.11.221.333-.095.195 0 .3.38.36.584.09.956.597.905 1.219-.024.356.03.516.238.729.158.145.406.725.585 1.33.22.761.438 1.224.732 1.544.359.42.376.54.167 1.347-.202.777-.343.886-.927.653-.458-.187-.62-.145-.479.093.375.615 1.715.567 2.222-.045.374-.442.406-.744.181-1.297-.213-.522-.202-.701.064-.722.52-.102 1.207.399 1.425 1.007.174.484.207.489.183.091-.03-.704-.727-1.327-1.667-1.473-.903-.138-1.297-.563-1.26-1.312.027-.389-.035-.518-.42-.941-.419-.457-.469-.553-.35-.772.068-.142.248-.26.403-.234.14.02.185-.18.07-.496-.103-.281-.1-.4.023-.26.107.133.315.584.443.93.205.567.362.714.822.849.49.141.509.117.12-.185-.708-.537-.683-.8.049-.467.61.28.623.282.156-.238-.48-.554-.463-.553.187-.26.375.151 1.035.502 1.43.72.422.25.87.42.983.352.175-.054.078-.159-.355-.413-.525-.299-1.488-1.516-1.235-1.558.046-.02.843.016 1.727.076 1.09.104 1.46.044 1.166-.186-.177-.125-.264-.19-.44-.316.088-.116.13-.172.215-.289.332-.54 3.052-.675 4.748-.245.534.135.898.152.79-.005-.08-.123 0-.18.19-.13.188.05.321-.017.278-.181-.028-.133.078-.332.248-.41.496-.263 1.62.211 1.73.71.06.267 1.036.767 1.839.931.37.087.906.32 1.18.522.283.207.606.429.72.49.114.056.27.201.352.322.356.59.358.76.019.907-.221.082-.587.248-.85.35-.237.135-.578.27-.736.332-.487.123-.007.458.648.432.401.005.548-.104.4-.325-.179-.249-.011-.228.557.085.439.224 1.356.615 2.016.836.66.224 1.426.604 1.706.863.278.232.844.527 1.275.665.606.192.713.156.528-.21-.185-.369-.067-.353.72.029.496.236 1.082.577 1.284.717.333.23.355.259.242.381-.099.15-.087.18.15.261.31.128.775.753.482.651-.168-.058-.14-.002.259.437.912 1.012 1.283 1.252 1.302.843-.014-.328.213-.32.84-.07.443.161.965.447 1.147.604.183.157.28.148.238-.002-.042-.126.088-.123.276.017.313.252.304.204-.031-.34-.31-.511-.32-.58-.104-.537.14.034.365.126.475.167.125.074.513.252.89.451.5.228.682.388.875.739.146.271.194.332.102.107-.202-.482.9.06 1.365.669.528.678-.14.457 1.147 1.074.542.254.927.468 1.21.679.222.264.44.527.658.79.005.013.013.023.016.035.093.221.216.38.329.43.029.014.065.046.108.088l.245.305c.026.036.05.07.071.105.171.276.232.354.239.282a102.568 102.568 0 0 1 6.72 9.47c-.05.065-.124.029-.238-.114-.372-.469-.608-.53-.646-.197-.016.193-.076.21-.166.016-.081-.165-.147-.217-.176-.139-.026.078-.132.1-.247.028-.112-.045-.143.212-.04.734.174.945.252 1.166.475 1.25.114.046.213.199.371.614.118.302.258.568.304.585.05.019.154.176.232.347.076.171.064.239-.023.135-.28-.293-.234.221.056.786.209.411.243.57.098.642-.12.032-.112.278.014.619.112.307.14.59.065.642-.058.08-.04.311.057.544.25.584.232 1.603-.02 1.088-.102-.21-.526-1.056-.942-1.872a55.875 55.875 0 0 1-1.154-2.382c-.486-1.132-.707-2.21-.497-2.492.085-.138.14-.425.118-.67-.033-.27-.005-.746.051-1.09.095-.711-.259-1.952-.561-2.081-.092-.04-.062.192.055.508.135.344.195.525.128.383-.062-.114-.13-.01-.167.223-.071.445-.296.312-.553-.358-.112-.293-.237-.413-.584-.549-.364-.142-.45-.043-.44.69-.014.721.03.913.262 1.14.254.258.266.286.085.224a2.096 2.096 0 0 0-.523.01c-.246.016-.39-.055-.446-.247-.102-.378-1.04-1.012-1.012-.682.008.128-.294.081-.675-.09-1.35-.627-.377-.176-.603 2.294-.045.357-.152.89-.242 1.162-.07.187-.106.28-.18.47.16.07.235.107.392.178.26.12.443.331.596.694.194.454.213.461.131.087-.074-.37.056-.173.27.393.131.36.24.306.276-.091.087-.948 1.784 1.425 1.981 2.775.032.226.275.995.53 1.69.427 1.145.505 1.56.634 3.86.158 3.012 0 3.665-.577 3.1-.322-.32-.407-.276-.517.358-.07.431-.064.967.018 1.19.149.407.02 1.41-.2 1.68-.035.057.34.74.834 1.498.752 1.15.957 1.566 1.247 2.506.335 1.067.334 1.157-.046 1.453-.23.19-.461.23-.492.134-.337-.796-.855-2.442-.83-2.59.042-.33-.354-.925-.642-.96-.361-.042-.508-.303-.705-1.18-.143-.659-.198-.755-.632-.994-.307-.162-.546-.098-.663.192-.242.523-.56.085-.577-.774.002-.552-.02-.618-.285-.834-.178-.147-.354.105-.485.738-.116.54-.323.986-.451 1.003-.33-.007.022.936.421 1.102.172.081.375.323.466.579.211.615.564.836.595.344.038-.277.238-.318.575-.156.613.28.793.67.43.912-.347.21-.558 1.969-.259 2.214.262.21.5.577 1.347 2.08.85 1.5 1.156 2.421.96 2.817-.062.131-.094.198-.155.333.105.005.159.01.266.018.518.091.774 1.1.715 3.008-.03.532-.024 1.064.014 1.192.038.157.083.347.117.506.08.349-.018 1.382-.275 2.387-.244 1.038-1.022 1.611-1.33 1.035-.143-.258-.162-.194-.06.159.1.352-.028.668-.425 1.052-.6.514-.616 1.162-.032 1.986.18.255.243.54.255 1.019-.007.768-.16 1.06-.52.812-.528-.372-.58-1.722-.074-1.73.217-.005.202-.1.002-.386-.159-.22-.344-.638-.433-.96-.29-1.027-1.033-.736-1.296.498-.306 1.394-.067 2.155 1.216 3.977 1.506 2.138 1.743 2.621 2.19 4.333.325 1.276.36 1.587.17 2.23-.12.42-.336.751-.46.762-.14.011-.213.176-.168.36.083.34-.203 1.536-.367 1.581-.073.008-.196-.328-.3-.764-.112-.464-.31-.861-.483-.975-.174-.113-.689-.712-1.162-1.352-.472-.643-.966-1.165-1.085-1.158-.12.009-.268-.21-.338-.5-.26-1.025-.385-.201-.256 1.509.17 2.195.224 2.447.798 3.235.259.364.542.98.628 1.354.111.468.303.767.557.87.72.339 2.162 1.914 1.974 2.978a9.354 9.354 0 0 0-.125 1.833c.05.768.033.855-.17.884-.674.102-1.268-2.385-1.666-4.08-.154-.68-1.416-2.92-1.616-2.903-.078.007-.36-1.125-.658-2.563-.387-1.918-.68-2.885-1.071-3.748a77.527 77.527 0 0 1-1.067-2.552c-.211-.549-.317-.82-.532-1.37zm-6.741 13.418c-.33.363-.454.34-.696-.048-.308-.518-.807-2.624-.814-3.437-.005-.815.208-.651.978.722.927 1.634 1.043 2.256.532 2.763zm-13.698 73.781c-.075-.043.009-.138.164-.184.167-.078.212-.023.116.072-.08.092-.22.159-.28.112zm-9.246-80.942c.456-.007.57.206.273.54-.109.11-.299.04-.439-.173-.107-.18-.036-.361.166-.367zm-1.532 39.496c.036-.18.107-.307.156-.312.069-.008.158.098.191.27.036.146-.042.302-.155.314-.14.015-.225-.123-.192-.272zm.08 32.3c.368.018.416.118.198.317-.5.435-.983.46-.84.032.087-.253.296-.37.642-.348zm-9.182-33.913c-.133-1.653.489-2.729 1.995-3.35.545-.23 1.236-.753 1.502-1.149.266-.392.734-.962 1.037-1.268.269-.272.549-.763.596-1.05.039-.254.172-.61.291-.713.096-.133.239-.242.264-.242.206-.019.514 1.802.478 2.88-.025 1.022-.076 1.177-.394 1.022-.306-.093-.365-.026-.327.46.017.334-.059.768-.219.998-.137.224-.3.602-.394.856-.964 2.667-2.007 5.866-3.379 7.844-.065.094-.585.319-1.12.487-1.201.378-1.728-.265-1.652-2.166.028-1.126.138-1.526.746-2.358.614-.86.678-1.076.576-2.25zm-38.92 61.22c.063-.18.142-.34.142-.34.031 0 .078.168.136.363.044.216-.003.354-.141.34-.138-.008-.183-.15-.136-.363zm-9.19 2.182c-.024-.144-.007-.233.024-.23.045.005.137.113.206.265.062.124.048.236-.028.227-.09-.012-.185-.141-.202-.262zm14.526 5.898c-6.12 0-12.1-.575-17.92-1.611.206-.038.352-.099.407-.185.008-.017-.261-.233-.51-.285-.193-.043-.292-.07-.485-.117.145-.1.216-.15.363-.255.34-.234.312-.234-.558-.29-.52-.055-1-.063-1.092-.034-.221.069-2.156-.915-2.131-1.016.249-1.03 6.116-1.109 7.945-.863.563.08.967.022.977-.116.01-.138.456-.452.992-.69.846-.384.903-.45.343-.376-.5.052-.628-.008-.611-.242.024-.186.262-.319.55-.328.282-.013.559-.12.64-.23.064-.111.24-.184.376-.167.154.018.45-.07.67-.16.38-.194.382-.22.077-.6-.308-.385-.31-.385-.021-.238.164.107.53.078.8-.06.437-.19.549-.156.829.22.316.453.338.432.721-.005.384-.46 1.063-.616.918-.202-.059.113.606.306 1.475.415 1.367.162 2.13.086 3.017-.276.577-.234 3.8-.17 4.394.072.26.107.542.095.672-.064 1.489-.376 3.062-.207 4.553-.03.929.094 2.085.043 3.43-.216 1.967-.384 2.544-.596 3.268-1.204.281-.239.413-.2.744.207.22.276.515.414.703.32.182-.078.329-.066.32.069.009.305.72.08 1.08-.334.278-.323 1.184-.734 2.342-1.083a6.76 6.76 0 0 0 1.018-.388c.318-.13.814-.216 1.108-.182.413.07.53.012.546-.199.005-.195.124-.246.485-.215.347.026.476-.031.537-.247.14-.626 2.504-1.204 3.003-.769.132.13.239.303.235.385-.005.164 1.933.25 4.054.142.78-.047 1.3.017 1.256.138-.116.314-1.037 1.231-1.28 1.273a.775.775 0 0 0-.377.244c-.243.276-.002.426.374.202.262-.16.25-.142-.08.207-.197.212-.442.41-.534.428-.318.055-.668.7-.423.77.335.111 1.3-.498 1.89-1.163.28-.32.514-.536.516-.479.016.056.164-.031.373-.224.199-.17.81-.515 1.358-.74.535-.22 1.378-.711 1.86-1.053.482-.358 1.014-.68 1.175-.712.158-.034.478-.195.713-.373.333-.24 1.096-.508 2.378-.846.192-.064.506-.263.74-.5.02-.018.037-.03.055-.048.036-.055.147-.15.383-.288.593-.354.874-.4 2.017-.411 1.171-.021 1.34-.081 1.686-.398.506-.478 1.413-.884 1.504-.678.089.247.72.272 1.34.083 1.029-.303 2.71-1.002 2.937-1.206.112-.099.223-.073.235.048.017.303.482.139.92-.307.253-.258.562-.427 1.071-.612.643-.234.733-.299.97-.658.156-.236.331-.421.414-.452.102-.038.06.069-.16.36-.237.31-.265.396-.127.357.353-.09.6-.142 1.087-.237.842-.17 1.312-.308 1.516-.397.124-.066.14-.02.048.086-.169.194.232.271.769.15.148-.034.236-.012.183.066-.038.052.085.035.283-.066.199-.095.394-.227.448-.302.157-.22.336-.271.209-.064-.062.099.107.086.342.004.254-.107.513-.156.583-.103.135.108.348.063.982-.23-16.792 12.299-37.49 19.579-59.897 19.579zm-25.26-29.833c-.504-.377-.512-.401.027-.213.294.1.632.282.739.42.289.392-.136.285-.765-.207zm-.434 26.282c-.296.017-.612.005-.924-.004a99.696 99.696 0 0 1-4.137-1.204c.114-.01.243-.017.42-.017.57.007.825-.16.9-.5.057-.26.347-.507.642-.541.922-.107 2.563.478 2.658.958.028.138.21.446.41.69.33.43.327.476.03.618zm-6.949-167.05c-.34-1.46-.333-1.485.258-2.204.595-.687.595-.687-.037-.328-.81.5-.827.5-.611-.067.103-.268.091-.793-.007-1.21-.157-.447-.128-.739.07-.846.23-.141.263-.276.153-.558-.121-.347-.05-.478.632-1.13.416-.41.928-.762 1.136-.774.227-.016.58-.356.904-.888.437-.695.475-.795.141-.453-.197.202-.349.244-.32.081.047-.162-.161-.4-.448-.476-.506-.154-.506-.154-.28.24.093.172.14.255.235.428l-.494.223c-.67.298-1.157.017-.931-.534.105-.26.27-.46.371-.468.083-.005.187-.138.202-.295.016-.158.175-.389.365-.498.176-.107.23-.08.102.117-.147.2.003.313.362.287.323-.024.662.049.778.135.42.384.402-.439.01-.912-.3-.323-.7-.387-1.221-.221-.836.254-.867-.054-.112-.824.33-.337.382-.59.248-1.58-.083-.63-.243-1.15-.357-1.14-.128.016-.24-.15-.258-.358-.058-.734-1.403-.958-3.37-.55-1.269.286-1.942.331-2.05.124a1.109 1.109 0 0 0-.49-.451c-.288-.121-.214-.16.468-.294.454-.098.88-.304.967-.483.075-.15.06-.23-.093-.095-.298.267-1.876-.102-1.723-.398.107-.205.68-.449 2.93-1.195 1.261-.393 1.7-.623 1.86-.95.085-.178-.144-.25-.49-.195-.344.057-.51-.026-.378-.155.446-.451 2.138-1.216 2.95-1.34.511-.078.78-.227.874-.49.204-.523 3.92-1.523 4.128-1.069.098.242.209.256.373.01.164-.219.377-.272.64-.103.612.352.842.273.831-.24 0-.572.215-.613 1.704-.183 1.35.385 1.395.394 1.42.01.022-.18.096-.302.206-.312.36-.032.13-.394-.35-.58-.313-.115.308-.24 1.594-.263 1.142-.043 2.144-.2 2.185-.323.052-.152.58-.37 1.183-.439 1.952-.266 4.123-.416 6.071.104.266.148.838.295 1.254.291.482-.005.712.122.608.308-.085.157-.523.316-.958.32-.438.004-.87.136-.964.326-.11.188.216.245.896.114.978-.166 1.036-.132.644.31-.242.284-.502.509-.6.509-.084 0-.13.062-.103.157.015.095.42-.033.88-.254.449-.252 1.046-.378 1.307-.282.283.068.88-.022 1.342-.204.54-.246 1.202-.298 1.869-.119.42.114.63.173 1.054.29-.418.153-.631.229-1.054.382-.991.354-1.51.665-2.36 1.356-.198.157-.543.28-.764.277-.22-.004-.482.219-.6.473-.102.255-.3.48-.454.478-.135-.002-.466.287-.753.672l-.505.674.429-.223c.268-.128.446-.06.487.165.03.196.288.394.603.4.639.04.724.274.281.853-.207.259-.304.29-.26.06.03-.173-.263-.3-.788-.286-.078.11-.18.2-.257.2-.064 0-.104-.076-.118-.176-.894.095-1.04.561-.086.571.444.007.89.638.8 1.128-.022.099-.237.194-.49.189-.666-.01-.671.647.01.694l.578.043c-.228.088-.342.133-.572.22-.328.095-.594.32-.596.52-.046.53-1.292.81-1.867.438-.288-.2-.589-.302-.666-.202-.08.098.152.364.523.6.637.37.762.773.403 1.068-.293.232-1.258-.447-1.182-.777.043-.199-.053-.33-.218-.333-.53-.001-.148.962.486 1.198.55.208 1.15 1.221 1.043 1.757-.076.37-1.58.18-1.643-.223-.02-.17-.222-.438-.435-.575-.31-.2-.399-.133-.399.266-.008.368-.149.568-.452.667-.272.1-.154.166.28.238.409.033.93.176 1.167.315.358.205.217.336-1.075.965-2.106.992-4.549 1.534-4.912 1.069-.24-.302-.304-.268-.33.17.002.267-3.875.557-4.005.559-.112.005 3.16.321 2.712.765-.467.44-1.224.955-1.674 1.062-.457.142-1.05.418-1.294.591-.395.311-.412.242-.146-.268.28-.542.272-.573-.185-.062-.283.31-.9.653-1.397.8-.726.217-.873.321-.812.724.05.37-.002.473-.296.51-.209.006-.3.11-.18.21.312.262.05.675-.845 1.27-.494.348-.88.764-.857.935-.009.204-.328.892-.725 1.517-.564.898-.84 1.143-1.269 1.152-.279-.028-.485-.159-.426-.332.045-.138-.041-.273-.197-.27-.153.004-.242-.132-.181-.303.045-.135-.14-.2-.442-.09-.828.26-1.227-.145-1.594-1.734zm-2.53 164.33c.036-.018.091-.028.088-.052.005-.224.452-.135.694.142.05.048.081.134.104.224a65.098 65.098 0 0 1-.886-.314zm-2.112-11.91c.038.117-.04.2-.17.174a.543.543 0 0 1-.32-.285c-.044-.135.039-.199.168-.17.13.032.275.147.321.28zm.699 6.694c-.297-.121-.513-.139-.47-.026.034.09.178.21.318.25.156.043.154.225-.007.525-.138.247-.342.35-.461.256-.128-.116-.26-.073-.273.103-.03.19-.44.256-1.166.182a20.895 20.895 0 0 0-1.674-.112c-.753.043-2.053-.415-3.352-1.144-.625-.36-1.147-.57-1.24-.527-.195.182 1.167 1.187 2.217 1.65.564.242.823.418.733.504-.099.121-1.883-.547-3.415-1.304-.464-.233-.618-.25-.473-.072.105.15.504.383.883.513.378.134.84.385 1.017.558.104.093-.009.09-.228.029a101.478 101.478 0 0 1-12.327-7.081c-.122-.116-.242-.216-.304-.242-.109-.044-.28-.182-.397-.311a4.17 4.17 0 0 0-.553-.475c-.175-.121.023-.038.425.155.392.196.682.26.63.15-.05-.101-.45-.326-.89-.504-.486-.199-.828-.406-.899-.553-.07-.141.064-.12.382.075 1.89 1.019 4.029 1.98 6.128 2.461.237-.026.511.055.604.176.081.104.453.29.828.42.374.116.727.271.808.375.069.095.604.394 1.209.673.903.42 1.092.446 1.159.204.059-.204.231-.181.546.012.245.155.623.354.84.446.227.112.681.331 1.034.521.42.23.589.263.513.087a.747.747 0 0 0-.294-.323c-.103-.031-.078-.118.052-.213.198-.107.314-.055.604.325.332.41.484.484 1.878.711 1.423.234 2.017.144 1.844-.227-.034-.087-.326-.51-.621-.907-1.289-1.736-1.235-1.641-.74-1.503.372.102.417.035.256-.527-.149-.5-.24-.665-.363-.618-.08.04-.203-.055-.26-.21-.06-.156.18-.412.52-.602.333-.173.694-.406.764-.527.166-.181 1.14-.504 1.946-.621.276-.018.499-.11.523-.164.043-.052.281-.061.567.026.205.057.305.086.514.141-.185.031-.274.048-.456.08-.256.046-.43.19-.39.302.045.138-.102.185-.31.133-.585-.142-1.295.259-1.302.725-.015.242-.126.334-.309.23-.23-.164-.518.009-.95.556-.02.014.087.265.249.55.206.357.389.51.608.526.366.035 1.724 1.244 1.703 1.52.002.124.17.311.383.427.301.164.422.337.512.725.08.285.205.544.298.57.094.023.134.095.106.17-.01.077.205.319.499.542l.546.411-.522-.202zm-2.52 3.32c-.205.069-.425.086-.632.08-.25-.101-.49-.222-.734-.331.03-.104.304-.168.623-.159 1.012.03 1.367.214.743.41zM52.02 308.25c-.408-.156-.884-.307-1.074-.367-.18-.052-.342-.17-.358-.242-.002-.052-.221-.242-.48-.377-.26-.137.102-.026.838.277 1.383.54 2.347 1.16 1.074.708zm-.554-24.622c.04.138-.004.265-.132.242-.105-.019-.25-.18-.291-.32-.05-.167.025-.26.132-.242.127.023.242.153.29.32zm3.827 26c.05.107.043.193-.042.164-.067-.026-.19-.155-.238-.264-.059-.13-.027-.19.042-.164.084.03.18.138.238.264zm1.421-16.417c-.259.185-.309.15-.336-.19.013-.204.124-.363.29-.333.421.077.418.259.046.523zm.883.292c-.404.105-.434.074-.31-.288.073-.22.352-.35.585-.311.549.1.378.458-.275.599zm4.44 18.422c.004.093-.125.15-.276.103a1.235 1.235 0 0 1-.466-.341c-.116-.15.009-.185.276-.099.268.087.47.225.467.337zm3.049-2.947c.1-.253.302-.24.422.075.04.108-.021.273-.144.359-.238.173-.41-.095-.278-.434zm-2.632 1.185c.159.026.276.121.242.168-.018.052-.144.03-.279-.064-.148-.104-.13-.155.037-.104zm.385.674c.77.233.755.328-.031.24-.333-.042-.593-.164-.579-.254-.001-.098.277-.086.61.014zm1.99 1.373c-.184-.152-.539-.238-.864-.22-.392.039-.604-.03-.822-.272-.194-.213-.21-.273-.052-.247.107.034.328.065.479.069.147.009.504.04.812.069.66.083.77-.081.158-.263-.32-.094-.407-.181-.309-.269.076-.073.023-.344-.123-.6-.184-.328-.195-.486-.051-.505.449-.068.639.062 1.552 1.093 1.567 1.75 1.54 2.25-.117 1.853-.967-.212-1.045-.276-.52-.388.15-.052.144-.078-.143-.32zm2.468-4.504c.041.108-.047.19-.192.152-.236-.061-.27-.11-.128-.233.208-.19.225-.19.32.08zM39.614 211.44c.566.231.965-.387.803-1.197-.154-.772 1.746-.328 2.354.525.297.425.496.844.449.913-.054.033-.48.104-.953.137-.474.03-.985.131-1.121.228-.377.257-2.254-.271-2.158-.553.05-.14.348-.185.626-.053zm-.451-7.87c.08-.207.226-.341.318-.336.112.005.133.15.053.359-.067.176-.209.344-.321.337-.092-.005-.117-.185-.05-.36zm-1.822 8.101c.122.261.008.357-.448.316-.32-.03-.597-.235-.594-.413.009-.463.819-.392 1.042.097zm.383-3.195c-.224-.018-.357-.277-.313-.561.028-.284-.122-.545-.343-.562-.24-.017-.432-.212-.423-.389.024-.212-.18-.367-.434-.386-.237-.018-.368-.206-.302-.379.157-.414-.422-.49-.793-.09-.173.165-.528.384-.829.505-.478.212-.484.174-.076-.323.242-.3.758-.653 1.124-.803 1.128-.418 1.62-.083 3.406 2.28.334.418.72.882.876 1.001.5.436-.199.92-1.152.843-.767-.062-.874-.178-.648-.59.202-.344.19-.524-.093-.546zm7.253 3.869c-.06.178-.353.335-.646.31-.296-.025-.467-.224-.406-.402.07-.214.35-.337.642-.31.294.025.48.188.41.402zm.711 10c-.052.176-.193.345-.328.33-.114-.014-.174-.204-.12-.382.061-.212.215-.342.327-.332.137.016.185.168.121.384zm14.519-44.895c-.226.032-.47-.214-.547-.529-.076-.281-.073-.421.015-.316.095.142.337.387.548.527.323.249.328.283-.016.318zm1.738-3.666c-.247-.137-.482-.38-.52-.518-.083-.552.694-.35.86.204.138.487.104.52-.34.315zm5.979.239c-.33.6-.364.74-.08.532.201-.104-.136.245-.749.84-1.128 1.088-1.82 1.467-1.091.626.331-.386.096-.428-1.122-.367-.908.025-1.466-.047-1.381-.26.084-.21.238-.348.337-.348.119 0 .295-.246.407-.526.113-.278.288-.525.387-.525.097 0 .347-.278.58-.663.2-.347.767-1.081 1.216-1.57.964-1.041 1.89-1.354.964-.309-.824.941-1.299 1.64-.912 1.36.173-.14.354.004.4.284.082.352.338.46.81.323.63-.17.657-.133.234.603zm-.382 2.413c-.174.245-.44.349-.592.202-.245-.216-.218-.287.335-.885.632-.699.924-.875.54-.345-.146.175-.187.387-.09.461.087.035.001.32-.193.567zm-14.933-6.923c-.083.17-.231.24-.314.147-.064-.124-.114-.252-.08-.32.033-.065.18-.138.311-.145.132-.005.182.12.083.318zm3.068-3.898c-.033.064-.214.202-.411.342-.182.107-.263.048-.182-.116.102-.197.282-.336.413-.343.132-.01.214.05.18.117zm1.91-7.097c-.131.164-.437.344-.655.364-.217.023-.272-.091-.122-.284.147-.196.432-.346.65-.367.217-.022.274.092.127.287zm1.263.183c.127-.01.126.112-.025.307-.13.164-.373.34-.5.35-.127.014-.108-.144.024-.308.15-.195.375-.335.5-.349zm-.63-1.471c-.267-.239-.451-.189-1.137.326-.655.487-.81.532-.836.244-.004-.208-.208-.271-.475-.125-.404.194-.404.194.048-.238.257-.234.734-.812 1.04-1.284.302-.442.694-.892.865-.972.204-.112.357-.187.406-.221.016-.002-.053.12-.173.309-.134.188-.164.394-.059.41.577.164 1.073.672.939.922-.102.188-.03.3.141.283.171-.017.246.095.145.285-.22.41-.523.435-.905.06zm2.33.288c-.1.1-.26.143-.32.055-.078-.08.019-.181.193-.197.194-.048.239.038.126.142zm3.09-6.564c-.241.26-.512.493-.605.505-.094.012.086-.21.39-.478.7-.627.777-.638.214-.027zm1.564 1.201c.223-.02.27.033.124.137-.141.072-.331.093-.393.038-.063-.082.05-.154.269-.175zm-.452-.102c-.412.75-.783 1.054-1.317 1.11-.675.07.045-.974.881-1.298.363-.157.68-.278.712-.31 0 0-.116.215-.276.498zM28.2 171.486a.678.678 0 0 1 .397-.286c.176-.036.131.124-.2.68-.244.407-.453.734-.475.74-.089.017.15-.93.278-1.134zm-3.306-1.827c-.467.276-.218-.166.276-.498.225-.157.487-.39.579-.526.091-.135.243-.27.337-.3.134-.04.107.011-.166.268-.168.16-.289.306-.233.29.18-.056-.446.55-.793.766zm24.45 123.3c.048.41-.049.712-.21.677-.158-.034-.276-.159-.262-.281.014-.12-.155-.18-.404-.163-.24.047-.536-.069-.651-.243-.137-.18-.163-.31-.043-.284.119.024-.14-.5-.551-1.165-.553-.92-.84-1.235-1.099-1.24-.22 0-.295-.065-.203-.168.164-.216.074-1.318-.125-1.361-.077-.017-.187.16-.233.402-.102.353-.13.324-.266-.36-.104-.476-.287-.871-.487-1.039-.177-.141-.297-.343-.246-.41.033-.068.267.086.524.369.26.281.45.476.452.425-.314-1.634-.576-2.004-1.42-2.057-.16.017-.153-.135.037-.347a.57.57 0 0 1 .727-.104c.342.2.41.062.307-.63-.074-.48-.14-1.011-.164-1.146-.214-1.579-.42-2.309-.703-2.368-.16-.033-.23.244-.14.68.077.385.06.771-.084.795-.175.04-.238-.053-.254-.42-.012-.288-.109-.987-.238-1.57-.128-.58-.194-1.203-.128-1.376.064-.173-.074-.734-.27-1.228-.288-.705-.36-1.309-.267-2.326.185-2.06.088-3.43-.358-4.7-.245-.694-.333-1.225-.217-1.316.095-.099.072-.36-.045-.61-.11-.22-.211-1.07-.239-1.886-.112-2.606-.611-5.17-1.07-7.722-.294-2.059-1.217-3.693-2.87-4.912-1.481-1.25-2.811-2.907-2.77-3.45 0-.226-.345-1.133-.77-2-.446-.868-1.221-2.672-1.76-4.02-.515-1.308-1.206-2.776-1.546-3.251-.864-1.197-1.192-3.114-.672-3.838.432-.563.413-1.428-.026-1.435-.185-.033-.371-.353-.46-.764-.194-.975.146-3.826.464-3.772.13.024.247-.368.242-.895.01-.521.18-.875.243-.9.656-.258 1.064-4.725 1.114-6.228.007-.81-.026-1.589-.105-1.706-.17-.34-1.152.717-1.197 1.308-.062.654-.496.555-.82-.192-.146-.336-.413-.688-.616-.753-.585-.225-.6-.227-.445-.726.155-.497-.154-1.1-.684-1.314-.086-.012-.055-.389.083-.82.128-.403.138-1.201.04-1.771-.114-.57-.146-1.164-.089-1.33.045-.133-.062-.285-.248-.31-.795-.096-1.888-1.332-2.025-2.275-.262-1.578-.452-1.8-1.167-1.296-.586.411-.708.358-1.472-.606-.452-.556-.869-1.206-.945-1.45-.088-.212-.27-.531-.409-.678-.292-.297-.684-1.77-.623-2.33.032-.195.196-.615.383-.9.529-.824.706-2.283.627-4.27-.035-.961-.024-1.815.017-1.908.057-.13.078-.95.075-1.83-.006-.88.152-2.139.342-2.813.224-.803.269-1.316.112-1.539-.226-.32-.226-.317-.638.736-.214.542-.376 1.149-.374 1.34.019.163-.073.964-.182 1.769-.107.808-.18 1.52-.167 1.62-.002.093-.163.743-.344 1.42-.197.708-.266 1.325-.185 1.43.175.14.03 1.02-.197 1.27-.255.31-.328-2.016-.098-2.56.138-.32.199-.805.142-1.099-.39-1.635-.365-1.494.051-1.903.36-.345.405-.475.375-1.214-.002-.45.21-1.693.489-2.772.572-2.158.601-2.781.14-3.047-.176-.088-.25-.3-.188-.425.063-.128.235-.845.37-1.554.15-.773.407-1.545.583-1.797.181-.285.221-.407.085-.278-.246.226-.078-.808.264-1.461.114-.216.216-.492.205-.582.805-1.988 1.944-3.815 3.016-5.655.919-1.544 1.213-2.093 1.416-2.713.25-.738.268-.765.39-.645.441.444.557.432.788-.108.337-.78.398-1.21.187-1.4-.112-.063-.13-.253-.042-.407.09-.152.114-.266.044-.254-.211.033-.446.755-.392 1.275.04.302-.033.564-.182.67-.283.209-.698-1.736-.464-2.124.088-.153.191-.223.219-.147.199.368.352.4.513.13.107-.18.069-.31-.092-.282-.243.04-.18-.24.147-.643.031-.033.171-.352.318-.696.162-.4.155-.556-.031-.418-.237.176-.187.062.224-.515.434-.604.46-.661.152-.34-.708.762-.7.527-.013-.54.395-.617.564-.933.45-.857-.255.205-.1-1.005.147-1.257.106-.123.083-.192-.058-.16-.24.056-.272.087-.424.59-.093.293-.1.468-.013.374.082-.067-.016.126-.185.417-.284.46-.342.525-.335.273.019-.179.17-.61.345-.971.173-.361.195-.534.085-.437-.12.102-.126.055-.035-.088.112-.173.278-.334.377-.358.195-.046.735-.927.66-1.076-.04-.036-.146.085-.287.36-.135.25-.287.454-.35.47-.065.017-.037-.111.056-.253.099-.17.237-.395.335-.565a2.3 2.3 0 0 0 .249-.58c.08-.256.059-.249-.055-.009-.107.214-.221.36-.306.385-.085.021-.152.11-.18.235-.029.218-.75 1.669-.846 1.693-.185.043.396-1.322.83-1.924.262-.373.334-.486.182-.304-.392.497-.604.528-.632.146-.016-.296.347-1.069.147-1.056-.41.008-.28-.228-.318-.346-.116-.333-.218-.233-.484.237-.165.288-.291.414-.449.463-.146.069-.475.298-.76.56-.6.554-1.115.804-.577.29.235-.225.292-.306.204-.277-.183.059.864-1.06 1.22-1.302.242-.163.259-.19.084-.152-.217.052-1.297.99-1.539 1.342-.072.109-.29.302-.478.428-.392.278-.803.808-.556.73.14-.048.103.007-.28.386-.233.223-.698.629-1.03.907-.322.252-.663.576-.735.683-.074.11-.21.239-.292.265-.083.028-.446.337-.78.658-.336.321-.854.746-1.146.927-.193.125-.408.28-.566.41.08-.135.162-.266.245-.398.209-.177.34-.259.321-.198-.02.09.085.012.21-.135.118-.142.574-.589 1.016-.988.44-.4 1.035-1.015 1.329-1.385.495-.624.525-.674.262-.561-.152.076-.344.223-.416.331-.076.106-.137.107-.123-.017.004-.125-.152-.126-.375.014-.341.228-.348.188-.003-.33.252-.373.31-.496.19-.451a98.039 98.039 0 0 1 2.157-3.055c.354-.228.788-.577.924-.762.066-.1.254-.354.424-.584.245-.33.23-.356-.066-.128a4.518 4.518 0 0 1-.377.263c.323-.43.652-.855.985-1.28a.77.77 0 0 0 .376-.24c.323-.425.56-.841.346-.598a.447.447 0 0 1-.16.13 99.093 99.093 0 0 1 2.523-3.045c.328-.254.713-.53 1.198-.854.206-.143.501-.343.705-.497.185-.13.37-.247.378-.221.037 0 .2-.028.398-.081a2.59 2.59 0 0 1 .568-.087c.105.021.376-.025.603-.1 1.46-.478.856.087 1.53.247.321.095.494.038.872-.309.468-.416 1.52-.977 2.591-1.37.33-.126.78-.391 1.004-.605.323-.31.374-.287.312.063-.105.513.076.505.594-.012.242-.241.323-.268.27-.06-.028.157.18.14.549-.052.356-.19.801-.232 1.116-.095.3.119.829.143 1.13.088.628-.159 1.051.138.483.3-.17.066-.423.244-.586.426-.181.21.083.214.942-.035 1.44-.382 2.041-.283 1.656.325-.149.23-.17.337-.048.234.12-.098.35-.423.51-.734.225-.42.41-.581.885-.81.337-.169.625-.356.641-.433.031-.083-.285.035-.698.273-.38.204-.653.264-.618.159.173-.456 1.432-.833 1.558-.432.216.532 2.344.368 2.982-.271.576-.575.659-.852.258-.776-.247.045-.166-.046.415-.49.714-.548 1.112-.525 1.158.1.031.36.031.36-.253.44-.173.056-.398.096-.49.085-.108-.007-.153.105-.115.309.043.178-.055.49-.192.672-.136.181-.167.4-.065.467.169.079.247.013.445-.424.194-.409.372-.597.786-.803.606-.286 1.185-.865.816-.803-.128.023-.095-.118.038-.271.148-.187.219-.302.165-.32-.63-.022-.786-.331-.421-.94a2.76 2.76 0 0 1 .857-.93c.573-.39.79-.691 1.06-1.472.15-.456.254-.6.563-.862.354-.297 2.762-.896 2.623-.666-.227.374-1.75 1.452-1.932 1.385-.128-.078-.442.135-.855.544-.382.38-.598.65-.501.632.252-.046.344 1.347.086 1.498-.423.259-.545.677-.174.616.243-.041.297.112.095.522-.337.705-.283.727.454.012.463-.454.563-.468.724-.221.148.254.109.37-.206.637-.316.268-.371.384-.331.715.025.498.362.339.687-.321.163-.328.289-.458.368-.36.067.077.44-.172.81-.53.4-.392.615-.671.525-.66-.281.04.104-.512.486-.704.169-.083-.12-.18-.605-.244-.705-.029-.924-.234-.912-.689.01-.587.03-.613.729-1.416.86-.984 1.554-1.447 2.42-1.6.637-.106.635-.08.11.325-.293.208-.594.498-.648.612-.086.147-.227.407-.35.615-.136.235-.168.535-.066.682.21.371.258.366.482-.022.102-.176.081-.282-.035-.265-.105.016-.08-.231.066-.549.346-.748.87-1.155 2.078-1.561.729-.249.936-.254.855.055-.081.283-.034.276.115.01.137-.236.44-.392.932-.466.804-.12 1.433.266 1.065.705-.13.157-.088.262.097.238.168-.02.399.287.508.672.143.439.342.59.549.394.38-.328 1.142-.009.935.392-.08.155.03.233.238.21.634-.032.717.018.465.34-.177.224-.11.277.208.129.287-.146.48-.104.436.08-.045.214-.204.346-.446.398-.323.059-.339.12-.028.273.277.155.282.216-.012.271-1.069.182-.784 1.144.467 1.361.317.07.544.27.52.458-.04.186.22.389.56.46.256.058.382.088.638.148-.32.308-.48.463-.801.769-.451.435-.859.711-.883.618-.038-.092-.167.043-.29.302-.256.548-.774.45-.905-.164-.247-.988-.428-1.122-.993-.648-.534.47-.551.501-.403.988.094.273.27.48.404.472.118-.007.234.299.237.71.014.598-.057.827-.459 1.295-.42.5-.497.468-1.078-.036-.764-.748-1.09-.474-.46.344.45.607.398 1.478-.05 1.15-.14-.057-.456-.232-.732-.311-.259-.112-.485-.35-.523-.506-.04-.156-.173-.21-.354-.073-.361.306-.757-.417-.45-.813.115-.132.08-.254-.084-.242-.164.014-.316-.191-.363-.402-.034-.305-.459-.332-1.423-.156-.77.128-1.273.116-1.191-.041.3-.57 1.037-1.121 1.29-.964.157.074.587.034.99-.123.528-.167.69-.304.725-.607.034-.305.164-.467.518-.652 1.335-.722 1.73-1.872.876-2.373-.311-.143-.49-.415-.41-.57.085-.154-.055-.195-.304-.109-.252.114-.375.1-.278-.026.114-.13.095-.444-.048-.682-.313-.505-.384-.52-.562-.017-.105.299-.468.423-1.596.518-.78.05-1.376.164-1.317.183.053.048.278.21.52.375.207.195.31.466.18.653-.148.19-.324.326-.379.276-.221-.086-.439.482-.344.902l.083.42c-.216.164-.325.246-.54.412-.287.207-.773.467-1.032.527-.34.07-.543.238-.654.54-.112.303-.161.337-.161.107-.019-.143-.245-.345-.523-.395-.278-.049-.458-.028-.404.052.155.264-2.332 2.703-2.822 2.767-.509.062-1.357.686-1.467 1.074-.028.147-.216.287-.392.31-.475.06-1.888 1.275-2.895 2.498-1.257 1.519-1.547 2.08-1.157 2.275.226.06.25.444.107.909-.22.68-.126.761.536.76.483-.016.908.219 1.072.606.152.36.42.648.592.636.173-.015.294.1.237.293-.036.159.323.289.802.256.913-.062.913-.002-.216 2.183-.116.198-.156.844-.07 1.392.115.872.204.973.719.655.665-.456.843-.764 1.396-2.513.148-.49.224-.73.374-1.213l1.06-.704c.562-.353 1.208-.902 1.405-1.203.607-.87.912-2.005.684-2.4-.228-.334-.226-.363.365-1.002.525-.57.689-.865 1.14-2.018.283-.735.632-1.47.765-1.633.114-.13.468-.192.772-.095.29.1.827.12 1.138.096.622-.107 1.21.447 1.002.87-.064.13.123.308.413.417.51.16.499.223-.054 1.376-.504 1.056-.532 1.222-.228 1.077.204-.075.415.013.442.24.102.58 1.092.082 2.166-1.135.371-.422.558-.63.93-1.05.036.75.058 1.131.108 1.896.09 1.054.04 2.16-.097 2.43-.155.273-.172.641-.072.878.114.197.204.5.204.668-.018.171.17.337.385.403.207.03.404.098.426.131.014.1.256.235.53.302.156.033.129.102-.146.31-.256.207-.186.445.2.754.494.375.51.584.178 1.417-.356.834-.542 1.006-1.385 1.32-.547.208-1.42.693-1.904 1.077-.799.59-1.15.658-2.73.495-1.41-.129-1.928-.05-2.475.369-.379.279-1.016.73-1.45 1.01-.414.28-1.24 1.043-1.825 1.668-.817.9-.88 1.004-.29.45 1.347-1.286 2.534-1.95 3.529-2.028.74-.042.908.095.744.48-.116.276-.51.625-.874.728-.506.179-.573.248-.25.279.267.032.31.241.103.73-.37.87-.017 1.712.778 1.857.474.073.799-.1 1.418-.8.65-.736.742-.77.562-.278-.141.352-.137.636 0 .636.16.002.096.107-.2.35-.26.211-.406.173-.388-.108.009-.318-.03-.318-.173.034-.183.458-1.555 1.361-2.339 1.567-.221.069-.739.38-1.174.729-.434.35-.833.523-.89.381-.128-.247.247-1.23.474-1.228.096 0 .428-.243.77-.556.563-.525.542-.525-.08-.318-.362.142-.761.28-.89.314-.11.035-.464.242-.744.417-.297.209-.972.556-1.502.836-1.086.485-2.14 1.805-2.125 2.646.02.352-.193.49-1.062.694-.69.135-1.017.342-.926.52.075.21-.045.313-.376.31-.368-.005-.605.205-.983.866-.312.556-.613.87-.85.866-.238 0-.387.172-.466.485-.066.28-.326.803-.586 1.152-.404.554-.41.482-.084-.527.254-.803.273-1.014.03-.7-.376.484-.896 1.982-.861 2.51.017.175-.15.525-.378.802-.298.31-.34.45-.192.454.127.004.09.178-.038.354-.16.206-.306.238-.37.131-.055-.178-.152-.04-.224.313-.085.421-.232.594-.47.587-.183-.004-.54.234-.784.51-.246.276-.548.515-.655.511-.128-.002-.577.375-1.015.853-.437.48-.885.855-.994.852-.214-.007-1.219 1.402-1.506 2.095-.086.207-.254.87-.352 1.466-.454 2.489-.686 3.439-1.123 4.266-.262.484-.539.857-.647.852-.218-.014-.363-.907-.225-1.252.054-.142.086-.636.092-1.094-.016-.46.143-1.123.338-1.463.504-.93.24-2.31-.349-1.912-.326.232-.502.19-.577-.126-.074-.281-.566-.508-1.138-.527-.957-.03-1.015.004-1.268.755-.252.751-.27.75-.796.454-1-.587-2.085-.549-2.69.08-.303.295-.667.554-.807.55-.405-.013-1.424 1.478-1.823 2.647-.162.536-.418 1.067-.533 1.164-.135.095-.627 1.124-1.083 2.252-.715 1.759-.86 2.323-.98 3.78-.196 2.033.171 2.723 1.175 2.3.368-.138.7-.178.743-.07.131.324 1.122-.833 1.431-1.642.408-1.074.902-1.488 1.988-1.647.975-.137 1.018.08.26 1.242-.218.298-.588 1.003-.845 1.504-.242.504-.478.865-.527.755-.03-.106-.273.36-.537 1.032-.25.64-.627 1.401-.813 1.626-.412.513-.453.511 1.247.62.927.064 1.22.231 1.32.738.136.613.042.86-.835 2.927-.88 2.073-.94 2.337-.886 3.216.034.529.202 1.182.371 1.487.256.453.397.477 1.088.045.87-.51 1.332-.312 1.629.788.2.7.195.703 1.041-.285.448-.544.906-1.233.992-1.506.086-.275.259-.505.356-.493.127-.02.297-.036.404-.057.097.014.297-.108.432-.269a.686.686 0 0 1 .51-.19c.139.017.635-.247 1.106-.625.948-.755 1.128-.59.435.411-.556.765-.547 1.41.013.83.217-.226.537-.367.742-.347.187.023.396-.17.43-.418.045-.212.078-.317.075-.172a.326.326 0 0 0 .283.321c.166.019.38.368.461.814.12.523.382.734.84.678.359-.03.754.125.917.325.15.31.55.32 1.288.038.935-.332 1.075-.318 1.104.199.017.331.247.725.528.867.398.23.453.458.183.976-.272.557-.246.704.255.765.387.045.78.642 1.195 1.758.6 1.58.732 1.71 2.262 2.045 1.375.35 1.681.57 2.25 1.677.348.748.895 1.897 1.074 2.577.196.644.555 1.42.815 1.72.456.477.445.632-.068 1.555-.333.564-.532 1.366-.482 1.784.104.648.147.618.47-.202.285-.715.542-.873 1.043-.662.944.342 1.17.973.58 1.72-.26.34-.408.767-.288.93.12.162.453-.166.741-.725l.513-1.021c.614.373.924.56 1.544.932 1.248.743 1.61 1.121 1.653 1.717.074.638.161.72.66.484.373-.18.805-.094 1.154.167.29.218 1.067.49 1.722.565.955.105 1.513.466 2.836 1.776.893.898 1.948 1.658 2.314 1.698.538.055.74.37 1.113 1.552.247.777.414 1.852.357 2.375-.478 1.878-1.763 3.613-2.779 5.199-.337.5-.385 1.136-.185 2.644.118 1.07.162 2.536.054 3.232-.114.665-.123 1.3-.06 1.371.06.07-.08.693-.34 1.325-.236.637-.414 1.271-.39 1.432.085.539-.861 1.202-1.613 1.141-.974-.057-3.418 1.17-3.862 1.96-.18.308-.233 1.144-.103 1.939.141.976.062 1.642-.265 2.302a67.666 67.666 0 0 0-.69 1.423c-.12.302-.175.352-.104.161.067-.226.041-.461-.08-.593-.236-.267-.604.588-.782 1.824-.06.54-.35 1.322-.632 1.735-.487.663-.656.692-1.79.376-.673-.188-1.417-.532-1.644-.765-.257-.268-.368-.285-.318-.078.042.175.311.5.598.713.285.213.586.653.656.945.076.32.25.596.363.615.402.064.413.738.038 1.45-.35.716-1.167.911-2.663.71-.605-.105-.78.002-.632.244.095.206.19.712.167 1.085 0 .677-.08.69-1.014.36-.958-.334-.991-.313-.67.335.18.353.45.747.61.884.216.198.209.25.04.221-.147-.026-.228.038-.166.181.085.228.115 1.028.064 1.65-.021.207-.239.4-.482.433-.94.137-.41 1.743.625 1.943.6.114.663.957.102 1.258-.26.157-.44.556-.43.891.014.337-.114.587-.276.556-.446-.09-.417.299.067 1.131.361.631.377.734.083.696-.263-.051-.195.035.202.272.29.186.572.47.629.635.134.406 1.69 1.605 2.24 1.719.77.155.478.527-.398.496-.49-.004-.96-.177-1.205-.4-.325-.295-.345-.3-.13-.006.175.237.09.32-.27.242-.3-.064-.519-.211-.495-.354.024-.147-.233-.297-.613-.384-.36-.074-.604-.203-.563-.293.033-.118.144-.17.221-.152.081.017.225-.15.333-.375.173-.363.164-.394-.157-.463-.26-.055-.309-.138-.217-.418.09-.285.041-.371-.22-.423-.2-.043-.31.233-.281.639zm-25.65-59.32c-.08-.017-.175-.288-.208-.584-.031-.297.015-.433.11-.305.076.124.166.359.192.582.02.186-.028.32-.093.307zM9.65 207.097c-.066.193-.183.411-.245.463-.092.08-.066-.116.055-.468.119-.36.224-.55.268-.494.017.084-.01.307-.078.499zm32.599-56.084c.615-.622.865-.91.872-1.031-.002-.1.192-.268.535-.489.275-.159.788-.363 1.122-.415.331-.053.745-.15.92-.228.479-.203.886.113.603.441-.174.204-.09.221.202.088.318-.14.387-.098.232.128-.185.254-.089.27.423.005.468-.228.635-.232.549-.002-.085.23.002.204.335-.073.663-.552.88-.573.713.008-.2.752.155.565.437-.236.22-.618.237-.646.56-.734.178-.049.46-.244.587-.392.283-.336 1.22-.658 1.041-.377-.07.112-.302.363-.51.56-.346.328-.441.49-.718 1.332-.212.633-.219.982-.051.965.157-.036.381.081.514.228.097.109.147.166.244.273l-.508.166c-.271.09-.458.207-.416.274.332.429-1.25 1.088-1.782.743-.184-.105-.417-.046-.71.198-.748.627-3.127 1.452-3.018 1.065.048-.178-.104-.278-.352-.21-.228.04-.477-.029-.556-.169-.054-.101-.08-.154-.132-.255.287-.158.429-.235.715-.39.39-.206.914-.379 1.19-.41.275-.03.576-.159.646-.271.088-.14-.423-.073-1.086.12-.69.2-1.183.26-1.11.104.06-.152.276-.307.525-.404.464-.164.443-.226-.061-.288-.138-.02-.204-.031-.34-.049l.708-.656c.283-.26.425-.394.71-.656l-.434.267c-.706.44-1.38.978-1.542 1.223-.346.518-1.34.9-1.63.643-.116-.09-.175-.138-.289-.23.344-.347.516-.522.862-.867zm4.067-4.11c1.344-.989 2.738-1.598 2.247-.987-.407.502-1.36 1.09-1.169.744.12-.202-.034-.107-.404.221-.316.29-.518.44-.447.337.074-.107-.016-.057-.177.1-.19.187-.532.35-.77.375-.174.021-.261.035-.43.057l1.15-.846zm.137.647c.141-.173.368-.33.511-.38.213-.072.19-.026-.099.235-.471.427-.744.522-.412.145zm3.1-1.15c.1.162.387.224.651.145.467-.142.467-.144.46-.49.005-.284.068-.409.317-.638.494-.432.612-.429.467.074-.095.334-.002.397.48.168.37-.177.542-.182.42.01-.318.497-1.039.997-1.563 1.104-.272.032-1.03.367-1.698.744-.878.487-1.185.582-1.232.444-.027-.205-.01-.232.29-.349.232-.072.306-.14.296-.287-.01-.103-.162-.072-.33.066-.202.168-.458.294-.61.321a2.037 2.037 0 0 0-.52.088c-.116.028-.17.044-.283.071.275-.271.41-.407.684-.679.565-.563.813-.728 1.345-.88.346-.096.72-.049.826.088zm.221-1.583c.152-.074.171-.02.07.075-.09.093-.218.155-.25.107-.04-.047.047-.137.18-.182zm1.268-.449c.421-.138.587-.108.432.068-.126.145-.527.378-.872.49-.336.11-.515.068-.425-.064.105-.157.483-.368.865-.494zm.221-.48c.34-.196.643-.357.696-.397.038-.01.12.022.17.109.068.103-.144.21-.7.395-.7.213-.717.2-.166-.107zm1.601 4.016c.216-.225.242-.302.08-.263-.332.082.034-.445.464-.647.703-.323 1.358-.506 1.461-.41.099.05.016.17-.364.532-.472.432-.475.456-.183.537.39.135-.156.942-.717 1.07-.22.05-.497.24-.629.421-.146.209-.328.173-.476-.143-.146-.237-.379-.475-.525-.513-.147-.037-.156-.204-.03-.355.147-.18.299-.198.408-.077.115.138.295.073.511-.152zm-.14-2.09c.233-.064.168.091-.172.39-.12.102-.173.073-.122-.08.05-.129.19-.282.294-.31zm1.121-.907c.176.249.23.235.458-.124.191-.308.26-.35.317-.18.118.268.446.206.412-.11-.026-.156.17-.28.65-.406.573-.154.655-.104.415.36-.349.683-.934 1.19-1.533 1.343-.35.09-.361.022-.07-.36.31-.41.26-.423-.331-.146-.425.207-.668.25-.6.069.047-.13-.048-.218-.215-.17-.171.047-.263-.037-.216-.165.13-.352.468-.406.713-.11zm-.204-.925c.026.167-.009.222-.202.278-.115.034-.169-.06-.119-.182.124-.325.29-.373.321-.096zm.81-1.562c.14-.214.365-.328.702-.325.283-.02.7-.038.934-.041.473-.031.717.306.478.689-.191.304-.808.451-.692.147.066-.15-.339-.126-.826-.004-.644.166-.786.167-.449-.062.446-.31.434-.304.066-.215-.213.044-.316-.029-.213-.19zm3.044 2.166c.193.568-.67 1.112-1.177.77-.088-.046-.13-.07-.22-.116l.53-.398c.675-.505.755-.524.867-.256zm-.268-1.185c.126-.152.335-.25.447-.207.115.017.61.035 1.104.012.51-.026.95.143 1.019.376.095.38.361.337 2.29-.16 1.572-.423 2.263-.498 2.368-.275.052.12.08.178.132.296-.182.122-.272.179-.451.298-.271.183-1.75.53-3.284.84-2.178.414-2.718.478-2.656.188.053-.21.126-.378.195-.392.07-.017.12-.204.116-.397-.018-.196-.27-.306-.57-.232-.724.176-1.01.012-.71-.347zm.147-1.425c.103-.164.309-.268.482-.224.172.02.47.008.646-.038.242-.064.254.024.029.318-.242.319-.22.43.099.421.423-.036.392-.007-.21.17-.357.115-.644.143-.631.046.015-.097-.037-.178-.1-.185-.298.01-.47-.263-.315-.508zm.264-1.1c.183-.054.212-.019.083.085-.126.082-.283.128-.326.095-.042-.052.06-.125.243-.18zm2.54 1.852c.042-.01.044.088-.014.25-.044.133-.153.285-.225.299-.085.019-.07-.11.015-.252.102-.171.194-.292.223-.297zm-.067-.473c.11-.343.423-.42.484-.115.033.187-.014.247-.263.306-.169.038-.264-.06-.22-.191zm-.896-1.942c.147-.197.394-.4.587-.5.196-.098.387-.264.417-.362.08-.2.328-.338 1.127-.605.273-.096.978.076 1.363.332.076.03.232.087.365.074.119.018.331.063.43.16.153.082.24.038.302-.17.078-.235.44-.373 1.407-.572.716-.14 1.417-.37 1.52-.464.199-.218-.54-.133-1.87.231-.53.149-.624.125-.356-.105.328-.294.36-.35.152-.299-.124.03-.36.205-.513.385-.31.386-1.034.373-1.27.02-.238-.308.085-.598 1.022-.889.452-.141 1.082-.397 1.385-.589.316-.196.742-.304.998-.272.266.029.605-.075.853-.278.253-.203 1.118-.604 1.94-.864 2.202-.708 6.39-2.09 8.715-1.16-.114.154-.75.441-1.42.631-.682.218-1.214.494-1.169.596.049.099-.276.313-.751.529-.46.183-1.302.596-1.867.906-1.23.696-2.92 1.453-3.593 1.607-.523.13-.773.592-.262.495.305-.03.307-.03-.189.429-.286.266-.777.54-1.086.6-.306.056-.617.222-.696.367-.08.147-.335.38-.575.532-.432.264-.45.293-.135.418.44.209.088.268-3.095 1.002-2.601.587-3.247.533-1.708-.188.575-.253.68-.35.573-.503-.1-.099.168-.21.7-.254.456-.028.8-.126.75-.192-.05-.038-.011-.196.082-.318.11-.126-.07-.134-.37-.043-.65.195-.744.047-.295-.35.225-.2.157-.21-.173-.035-1.538.8-2.026.967-2.383.866-.561-.168-.556-.35.07-.722.41-.223.356-.234-.186-.068-.801.235-1.147.08-.796-.378zm25.689-8.791c.338-.045.546.043.46.172-.16.258-1.218.285-1.134.04.021-.06.32-.162.674-.212zm14.982 22.782c-.762-.084-1.282-.272-1.13-.344.394-.247.413-.791.037-.78-.279.01-.261-.094-.002-.507.283-.446.233-.511-.335-.494-.724.022-.503-.487.364-.853.37-.145.608-.052.79.314.14.366.383.46.623.285.197-.138.906-.327 1.57-.406.665-.117 1.263-.328 1.302-.497.057-.171.152-.306.21-.306.258-.005 1.754 1.52 1.7 1.698-.43 1.418-3.521 2.067-5.129 1.89zm-5.477 16.056c.376-.4.929-.77 1.254-.812.46-.045.447-.118-.181-.316-.405-.17-.828-.194-.926-.12-.13.111-.187.042-.16-.136.027-.18.291-.433.576-.547.432-.189.468-.294.29-.752-.17-.49-.114-.561.377-.575.312-.007.638-.26.768-.547.107-.287.1-.533-.014-.527-.13.002-.183-.242-.141-.525.057-.389-.107-.456-.64-.266-.638.192-.678.157-.386-.726.281-.953.016-1.295-.354-.481-.125.248-.102.108.008-.313.152-.529.116-.703-.12-.556-.237.147-.194-.1.23-1.016.294-.634.649-1.27.797-1.411.15-.145.568-.294.905-.306.563.02.582.055.2.48-.649.677-.583.78.268.62.86-.196.947.289.213 1.353-.385.568-.396.637-.01.84.222.1.43.514.446.866.018.353.21.77.417.87.21.101.461.59.563 1.047.097.494.368.88.598.875.595-.011.72.732.198 1.274-.26.252-.418.61-.349.824.042.212-.051.429-.214.432-.169.036-.62.117-1.019.16a93.2 93.2 0 0 1-2.033.363c-.729.121-1.508.32-1.78.468-.365.15-.3.043.219-.54zm-.137-9.165c.099-.212.289-.354.396-.357.124-.005.119.133.023.345-.092.176-.293.352-.394.358-.126.005-.118-.168-.025-.346zm-3.048 6.176c-.131-.1-.19-.485-.118-.873.087-.46.275-.676.64-.69.277-.01.602-.264.739-.549.302-.746 1.93-.796 1.998-.026.016.314-.114.705-.289.85-.177.147-.293.466-.241.679.138.627-.544 1.706-1.223 1.938-.373.119-.91.31-1.245.46-.327.118-.708.06-.85-.11-.228-.312-.185-.42.278-.929.382-.435.463-.647.311-.75zm17.032-33.115c.154.166.294.17.278.038-.014-.13-.01-.359.012-.518.04-.356.848-.233.966.159.069.2.228.271.368.178.12-.093.278-.02.331.11.035.165.39.401.741.512a8.448 8.448 0 0 1 1.577.84c.508.317.998.536 1.085.474.122-.06.126.04.014.23-.273.544-1.968.542-1.786.024.114-.389-.49-1.033-.968-1.05-.177-.004-.476.281-.65.635-.179.355-.43.64-.558.634-.126-.004-.31.252-.401.546-.17.49-.25.484-1.055-.03-.519-.312-.724-.58-.508-.605.252-.03.2-.128-.171-.268-.475-.242-.434-.277.462-.515.788-.207.894-.3.541-.475a1.086 1.086 0 0 0-.901.075c-.525.343-1.798-.004-1.63-.49.079-.163 0-.293-.14-.297-.139 0-.303-.164-.344-.328-.113-.423 2.295-.316 2.737.121zm2.93-.91c.723.092 1.357.085 1.407.024.109-.254 2.396.152 2.572.454.216.334-1.918 1.002-2.365.72-.18-.103-.829-.293-1.456-.414-1.68-.354-1.794-.94-.159-.784zm20.271 2.456c.36.021.54.031.895.056l-.84.283c-.851.317-1.017.3-.987-.149.017-.119.423-.222.932-.19zm3.261 13.011c.086.366-.545.663-.815.413-.113-.105-.185-.338-.168-.501.052-.382.892-.307.983.088zm.36-3.13c.191.019.391-.243.47-.582.06-.34.238-.602.374-.585.133.012.192-.199.123-.456-.07-.257-.014-.47.153-.45.15.018.403-.296.584-.673.353-.788 2.092-1.406 3.563-1.245.48.04 1.006.004 1.185-.086.434-.26 1.584-.099 1.703.243.056.155-.423.338-1.065.416-2.077.3-2.984.553-2.994.826-.002.152-.124.259-.288.236-.44-.058-1.855 1.97-1.712 2.488.059.224.472.713.93 1.108l.81.723-.966-.076c-.551-.061-1.11-.279-1.316-.553-.173-.21-.56-.47-.845-.534-.578-.09-1.257-.856-.708-.8zm.903-9.052c.28.043.314.105.203.323-.172.356-.345.333-.466-.069-.055-.187.062-.285.263-.254zm1.413-.074c.445.074.794.216.761.299-.043.31-1.183.22-1.37-.102-.122-.195.133-.27.609-.197zm1.51.25c.172-.086.432-.155.596-.126.242.042.25.1.01.23-.172.085-.434.155-.602.126-.243-.04-.247-.1-.005-.23zm14.763 3.98c.128-.097.16-.214.076-.237-.08-.046-.09-.228.01-.378.272-.535 2.182.199 2.398.876.056.164.365.376.7.518.51.217.63.324.862.836.245.538.198.55-.966.11-1.34-.489-1.974-.905-1.858-1.205.055-.087-.258-.222-.686-.28-.553-.068-.703-.13-.536-.24zm4.709 2.42c.177-.47.772-.64.875-.218.016.102.282.278.584.39.498.17.853.446.85.662 0 .052-.554-.016-1.242-.135a73.366 73.366 0 0 0-1.252-.197c.074-.202.11-.302.185-.502zm7.886 6.055c.033.131-.024.24-.125.21-.1-.029-.246-.194-.315-.34-.085-.174-.03-.255.124-.21.138.041.27.178.316.34zm12.434 5.064c.254.31-.118.2-.604-.21-.24-.182-.318-.297-.305-.417.012-.183.548.187.91.627zm-3.214-3.228c.093-.024.235.016.331.114.07.07.615.38 1.168.658.964.473 1.226.674 1.297.962.043.237-1.844-.354-2.283-.739-.506-.434-.745-.907-.513-.995zm3.521 1.962c.075.033.183.095.31.173l.506.525c-.304-.145-.66-.363-.828-.528-.257-.254-.257-.292.012-.17zm13.588 25.355c-.048-.17-.034-.27.018-.254.122.037.18.232.108.394-.034.069-.08.03-.126-.14zm.548 7.185c-.095-.022-.168.163-.152.418.032.375-.044.389-.287.143-.358-.38-.743-.452-.718-.132.007.115.07.212.14.224.11.02.143.112.155.373.016.288-.034.28-.242-.102-.28-.51-.43-1.51-.22-1.47.148.028-.006-.623-.403-1.664-.318-.825-.215-.772.52.307.233.328.542.67.677.729.459.233.91 1.25.53 1.174zm1.297 6.978c.288.943.345 1.477.102 1.007-.142-.281-.192-.26-.185.034a.347.347 0 0 1-.404.332c-.3-.036-.382.102-.299.558.126.755-.154.755-.382.017-.112-.371-.236-.535-.414-.556-.221-.022-.221.038.019.45.306.512.447 1.215.186.887-.093-.099-.18.014-.191.282-.028.448-.049.445-.256.003-.157-.346-.174-.588-.056-.755.213-.337.132-.587-.188-.561-.138.015-.205.159-.153.314.051.155.009.212-.107.107-.311-.27-.26.097.08.553.263.33.305.452.44 1.34.191 1.287-.104 1.325-.446.021-.181-.711-.254-.872-.323-.726-.16.227-.311-.364-.256-1.025.088-1.353.347-1.888.862-1.828.522.063.563-.202.249-1.746-.078-.364-.057-.36.105.102.181.498.202.5.325.107.181-.533.04-1.805-.28-2.696-.397-1.105-.49-1.61-.254-1.4.152.144.16.089.033-.136-.12-.22-.186-.376-.157-.37.031.004.31.512.61 1.11.51 1.036.554 1.155.672 1.924.105.74.21 1.133.668 2.651zm.35 24.227c-.24-.347-.404-.489-.352-.28.054.21.01.275-.109.13-.11-.113-.316-.223-.445-.21-.154.007-.282-.168-.354-.5-.066-.304-.14-.455-.178-.36-.036.094-.22-.2-.418-.683-.235-.574-.318-.883-.249-.948.057-.065.02-.434-.086-.833a12.216 12.216 0 0 1-.25-1.202c-.035-.31.068-.466.291-.44.29.051.38.207.598.969.138.52.238 1.163.216 1.44-.08.834.425 2.005.93 2.185.282.103.498.36.638.777.225.617.212.622-.232-.045zm.467 1.325c-.123-.08-.24-.223-.256-.282-.059-.236.189-.134.327.154.077.175.041.207-.071.128zm.381-.456c.244-.02.4.421.574 1.685.081.619.07.62-.174.168-.2-.368-.251-.575-.198-.73.05-.123.004-.329-.176-.643-.234-.4-.226-.463-.026-.48zm-2.046 20.95c.515-.054.42.337-.116.477-.228.06-.394-.002-.352-.172.034-.14.254-.304.468-.304zm2.1-18.672c-.04-.416-.005-.416.237-.024.153.22.254.508.237.628-.018.122-.104.042-.173-.158-.076-.171-.17-.28-.206-.187-.027.123-.072-.022-.095-.26zm-.134 1.002c-.187-.25-.215-.425-.213-1.056.014-.782.01-.784-.155-.406-.15.346-.189.29-.346-.359-.133-.561-.115-.685.085-.582.33.15.544.705.713 1.826.12.705.1.825-.084.577zm-1.871-4.1c-.03-.122.045-.156.162-.073.125.114.297.468.387.825.142.629.144.629-.162.074-.175-.322-.35-.675-.387-.827zm.26 2.789c.061-.007.035.544-.075 1.223-.232 1.512-.408 1.41-.185-.102.078-.615.19-1.114.26-1.121zm-2.78-12.857c.004.264.005.395.007.658l-.325-.66c-.254-.503-.342-.852-.423-1.572-.038-.504-.031-.976.024-1.066.057-.093.126-.186.15-.186.09-.06.553 2.231.567 2.826zm-.729-26.594c.06.152.338.63.612 1.052.423.65.467.74.24.527-.144-.144-.266-.118-.265.051 0 .25-.164-.155-1.084-2.518-.614-1.577-1.232-3.003-1.372-3.228-.26-.417-.794-1.896-.665-1.862.05.012-.012-.216-.14-.516-.143-.356-.064-.258.3.373.269.47.522.991.557 1.133.068.285 1.102 2.382 1.434 2.9.324.514.405.804.203.756-.174-.045-.074.694.18 1.332zm0 57.965c-.085-.063-.024-.157.117-.19.152-.062.211.005.137.105-.059.095-.183.149-.254.085zm-1.653-3.719c-.01-.138.078-.293.19-.312.25-.047.256.118.004.42-.088.098-.176.06-.194-.108zm-.83-1.09c.225-.352.324-.224.326.479-.002.395-.045.713-.102.722-.17.033-.347-1.01-.224-1.2zm.315 4.672c.127.25.477.287 1.061.11.665-.2.83-.129.853.193-.001.272.235.49.551.495.296.04.503.178.468.322-.067.284-1.556.448-2.24.245a6.214 6.214 0 0 0-1.02-.164c-.681-.047-1.122-.519-.916-1.032.19-.512 1.003-.618 1.243-.169zm-3.713-9.207c-.379-.995-1.192-1.995-1.233-2.183-.044-.19.057-.265.224-.185.166.08.43.15.605.133.159-.018 1.145.725 1.477 1.571.333.85.663 1.536.753 1.525.091-.013.257.2.385.441.107.276.328.708.476.972.142.297.176.695.085.935-.093.247.005.891.226 1.564.37 1.1.37 1.21 0 2.484-.302 1.04-.45 1.377-.697 1.479-.413.164-1.34-2.301-1.348-3.598a9.713 9.713 0 0 0-.212-1.85c-.12-.45-.185-.967-.15-1.149.038-.183-.216-1.143-.591-2.14zm-.171 2.597c-.047.005-.095-.134-.114-.281-.01-.175.043-.3.123-.311.095-.014.151.098.114.281-.028.15-.09.306-.123.311zm.295 1.859c.076.076.088.306.057.456-.038.181-.105.22-.181.143-.059-.078-.086-.306-.057-.454.04-.182.122-.223.181-.145zm6.96 6.035c-.034.14-.12.295-.194.314-.064.016-.092-.112-.057-.254.041-.17.135-.3.196-.316.075-.019.097.083.056.256zm.587-4.695c-.258.302-.329.29-.356.022-.007-.241-.232-.333-.617-.227-.328.067-.574.033-.542-.11.024-.117-.095-.203-.284-.167-.267.052-.324-.104-.24-.813.063-.486.036-.928-.025-1-.175-.11-.016-1.765.234-2.455.116-.328.268-.437.595-.374.334.086.442-.018.51-.394.056-.287.308-.69.595-.96.257-.237.672-.804.905-1.23.088-.43.214-.812.299-.824.09-.012.212-.512.273-1.093.119-1.189.25-1.325.675-.633.173.277.446.625.608.81.27.285.273.313.098.342-.112.047-.164.261-.113.493.046.228.008.44-.1.457-.096.017-.089.14-.082.3.012.136-.035.283-.095.291-.07.014-.096.51-.076 1.105.035.593.097 1.071.156 1.06.226-.044-.002.514-.27.647-.2.092-.345.364-.464.85-.099.399-.34.963-.52 1.27-.192.31-.339.67-.332.802.032.374-.435 1.396-.832 1.831zm.145 4.724c-.125.031-.344.166-.508.314-.218.215-.249.196-.134-.126.092-.238.255-.411.365-.385.097.03.18-.07.176-.206.005-.158.082-.23.211-.184.26.122.166.544-.11.587zm.386.484c.144-.04.264.062.26.222.01.496-.19.63-.362.227-.062-.15-.093-.23-.155-.382.1-.026.152-.041.257-.067zm3.187-1.651c-.066.148-.198.314-.274.336-.078.021-.408.4-.731.852-.686.948-.734.99-.596.428.085-.335.605-1 1.233-1.59.339-.329.501-.322.368-.026zm1.012-8.88c-.266.425-.452.546-1.043.561-.586-.013-.743.07-.874.472-.1.29-.122.698-.07.955.09.435.132.45.48.033.215-.263.485-.48.61-.506.174-.014.111.108-.295.673-.205.282-.31.422-.52.702 0 .341.003.513 0 .85 0 .48.02 1.005.035 1.186.043.36-.143 1.3-.257 1.33-.173.043-.131-.337.062-.728.257-.485.086-.498-.197-.007-.14.247-.202.184-.218-.266a6.751 6.751 0 0 1 .052-.917c.036-.166.007-.293-.04-.337-.063-.01-.252.567-.44 1.277-.207.794-.435 1.41-.553 1.518-.157.142-.141-.022.07-.712.18-.602.246-1.018.182-1.245-.091-.381.365-2.31.61-2.628.076-.099.196-.472.26-.81.125-.642.823-1.83.942-1.583.194.337.926.211 1.187-.186.4-.613.422-.3.017.368zm.012 10.897c.017-.03 0 .076-.041.244-.035.138-.171.307-.294.32-.231.073-.224.046.032-.24a3.31 3.31 0 0 1 .303-.324zm-.072-6.686c-.087.023-.168-.088-.171-.217 0-.158.088-.286.207-.313.13-.033.202.054.171.218-.03.138-.121.29-.207.312zm-.38-12.15c.06-.42.14-.757.183-.763.102-.041.815 2.158.813 2.507 0 .145-.102.19-.203.118-.17-.12-.168-.003-.005.438.155.47.154.616.005.637-.292.048-.517-.266-.724-1.059-.158-.566-.25-.672-.456-.558-.149.05-.26.273-.263.48-.012.21-.058.158-.127-.16-.06-.26.008-.684.13-.967.139-.256.27-.33.303-.187.097.434.223.268.344-.487zm1.454 15.074c.004.076-.078.304-.176.486-.117.212-.174.253-.136.09.036-.163.115-.391.176-.486.057-.117.124-.164.136-.09zm.01-3.98c.324-.084.458.01.444.27-.024.315-.076.38-.267.277a.55.55 0 0 0-.43-.014c-.104.024-.192-.031-.19-.187-.016-.124.184-.28.443-.345zm.223-4.208c.099-.334.123-.315.113.107-.004.313.028.359.065.143.047-.22.087-.333.104-.259.03.099-.603 2.168-.669 2.18-.05.013.273-1.78.387-2.171zm.804 1.4c.113-.053.16.013.107.102-.047.088-.14.139-.196.073-.067-.06-.022-.149.089-.174zm6.898 4.42c.052.045.057.18.022.268-.032.081-.072.031-.084-.126-.014-.225-.001-.252.062-.142zm-98.01-116.95c-59.586 0-107.89 48.303-107.89 107.89 0 59.584 48.303 107.89 107.89 107.89 59.586 0 107.89-48.304 107.89-107.89 0-59.585-48.303-107.89-107.89-107.89"/>
    <path d="M170.99 173.49c.133.363.212.468.159.21-.042-.225-.166-.524-.245-.628-.094-.138-.063.052.086.418M173.18 153.36c.024.008-.026-.126-.099-.266-.082-.17-.196-.302-.265-.326-.06-.018-.025.086.096.267.106.154.234.316.268.325M167.05 173.43c-.078-.009-.091.117-.02.32.058.169.225.35.365.364.126.016.128-.144.023-.32-.118-.205-.275-.352-.368-.364M130.71 233.57c-.093-.109-.359.045-.604.38-.244.335-.39.665-.296.736.09.105.36-.047.605-.38.241-.332.388-.665.295-.736M136.97 185.98c-.264-.008-.317.1-.109.214.187.114.4.087.453-.022.078-.106-.085-.218-.344-.192M141.94 161.34c-.052-.206-.124-.345-.16-.35-.06-.005-.118.125-.123.33-.014.165.065.34.16.346.116.01.166-.153.123-.326M128.5 185.69c.1.185.249.373.327.375.051 0 .082-.181.062-.363-.024-.219-.17-.371-.325-.376-.13-.002-.164.143-.064.364M145.33 185.14c.05-.178-.09-.325-.289-.333-.222-.01-.387-.268-.423-.66-.033-.36.121-.567.379-.486.234.084.535.063.685-.04.21-.134.138-.35-.363-.975-.56-.702-.697-.743-.993-.4-.303.412-.335.375-.368-.302-.023-.428-.136-.753-.246-.758-.11-.005-.667-.597-1.248-1.3-.587-.738-.892-1.283-.718-1.275.176.009.394-.195.463-.473.091-.28.333-.442.544-.363.423.093.593-.394.406-1.249-.242-1.102-1.587-1.107-2.838-.038-1.377 1.208-1.617 1.841-.955 2.973.262.44.515.95.542 1.095.028.145.54.952 1.175 1.798l1.126 1.516-.185 1.14c-.102.641-.09 1.432.047 1.796.489 1.244 3.052 2.375 3.952 1.762.355-.24-.03-2.475-.46-2.848-.164-.149-.26-.404-.233-.58M139 186.74c-.048-.004.019.254.141.547.146.294.356.553.476.558.145.004.083-.214-.142-.549-.22-.295-.428-.554-.475-.556M123.81 182.64c-.5-.016-.99.119-1.052.335-.088.216.242.371.796.385.5.016.985-.155 1.049-.333.083-.216-.242-.372-.793-.387M138.09 166c.162-.266.218-.572.133-.682-.062-.105-.22.091-.349.428-.2.675.17 1.978.461 1.615.095-.133.031-.344-.172-.528-.286-.294-.292-.434-.073-.833M127.83 242.14c-.014.933.19 1.945.482 2.375.262.36.537 1.02.639 1.418.098.432.324.753.478.746.432-.02.372-.411-.302-1.661-.337-.624-.625-1.667-.656-2.319-.116-2.019-.61-2.493-.641-.559M124.33 158.79c.815-.065.696-.827-.21-1.447-.956-.657-.973-.657-1.092-.181-.168.573.713 1.675 1.302 1.628M149.46 178.14c-.31-.437-.361-.65-.27-1.059.107-.447.03-.523-.444-.516-.915-.023-1.575 1.16-1.302 2.404.178.748.37.933 1.529 1.276.661.213.874.19.705-.102-.115-.215-.139-.635-.027-.91.149-.447.106-.694-.191-1.093M127.38 157.77c.062-.135-.118-.655-.392-1.145-.294-.49-.5-.67-.461-.398.034.24-.07.372-.273.225-.555-.332-.304.326.366 1.007.332.323.682.477.76.31M129.74 161.21c-.028-.173-.266-.496-.528-.714-.375-.295-.46-.3-.365.049.226.803 1.009 1.394.893.665M131.73 178.41c-.629-.42-1.142-.869-1.166-1.047-.02-.145.12-.177.323-.06.306.154.655-.87.396-1.204-.057-.072.136-.35.428-.589l.504-.478-.58-.024c-.326-.014-.77.112-1.005.283-.237.133-.85.466-1.37.662-.851.398-.922.47-.482.913.25.26.722.385 1.02.29.388-.13.518-.055.434.23-.065.212-.33.383-.596.375-.264-.01-.678.155-.901.328-.328.276-.561.195-.991-.36-.544-.7-.551-.771-.199-1.084.302-.313.228-.35-.41-.41-.438-.013-.825-.206-.844-.386-.118-1.08-1.67.16-1.893 1.523-.068.358-.198.57-.312.423-.287-.37-1.11 2.932-.902 3.555.397 1.064 2.729 1.385 4.054.518.948-.587 1.822-.525 3.103.242 1.175.689 3.976 1.036 4.522.551 1.32-1.693-2.007-3.49-3.133-4.25"/>
  </g>
</svg>
