<svg xmlns="http://www.w3.org/2000/svg" xmlns:xlink="http://www.w3.org/1999/xlink" width="250" height="256.07"><defs><linearGradient id="d"><stop offset="0" stop-color="#0ff"/><stop offset=".044" stop-color="#022"/><stop offset=".094" stop-color="#0ff"/><stop offset=".133" stop-color="#022"/><stop offset=".789" stop-color="#022"/><stop offset=".862" stop-color="#088"/><stop offset=".938" stop-color="#022"/><stop offset="1" stop-color="#00c8c8"/></linearGradient><linearGradient id="c"><stop offset="0" stop-color="#fff"/><stop offset="1" stop-color="#ceffff"/></linearGradient><linearGradient id="b"><stop offset="0" stop-color="#0ff"/><stop offset="1" stop-color="#193138"/></linearGradient><linearGradient id="a"><stop offset="0" stop-color="#b3b3b3"/><stop offset=".125" stop-color="#333"/><stop offset=".25" stop-color="#b3b3b3"/><stop offset=".5" stop-color="#bfbfbf"/><stop offset=".75" stop-color="#c5c5c5"/><stop offset=".813" stop-color="#c6c6c6"/><stop offset=".875" stop-color="#1a1a1a"/><stop offset=".938" stop-color="#cacaca"/><stop offset="1" stop-color="#ccc"/></linearGradient><linearGradient xlink:href="#a" id="v" x1="109.961" y1="531.267" x2="1063.128" y2="726.137" gradientUnits="userSpaceOnUse"/><filter id="x" x="-.104" width="1.208" y="-.134" height="1.267" color-interpolation-filters="sRGB"><feGaussianBlur stdDeviation="4.306"/></filter><radialGradient xlink:href="#c" id="E" cx="351.668" cy="545.397" fx="351.668" fy="545.397" r="122.494" gradientTransform="matrix(-.00273 -.44759 .62823 -.00383 -78.184 830.588)" gradientUnits="userSpaceOnUse"/><linearGradient xlink:href="#d" id="F" x1="168.401" y1="571.627" x2="571.413" y2="631.359" gradientUnits="userSpaceOnUse" gradientTransform="matrix(.49089 0 0 .49089 78.952 392.84)"/><filter id="u" color-interpolation-filters="sRGB"><feGaussianBlur stdDeviation="26.72"/></filter><clipPath id="t"/><radialGradient xlink:href="#b" id="f" gradientUnits="userSpaceOnUse" gradientTransform="matrix(.65845 -.00992 .0105 .69747 162.11 240.419)" cx="498.301" cy="769.51" fx="498.301" fy="769.51" r="466.157"/><radialGradient xlink:href="#b" id="g" gradientUnits="userSpaceOnUse" gradientTransform="matrix(.65845 -.00992 .0105 .69747 162.11 240.419)" cx="498.301" cy="769.51" fx="498.301" fy="769.51" r="466.157"/><radialGradient xlink:href="#b" id="h" gradientUnits="userSpaceOnUse" gradientTransform="matrix(.65845 -.00992 .0105 .69747 162.11 240.419)" cx="498.301" cy="769.51" fx="498.301" fy="769.51" r="466.157"/><radialGradient xlink:href="#b" id="i" gradientUnits="userSpaceOnUse" gradientTransform="matrix(.65845 -.00992 .0105 .69747 162.11 240.419)" cx="498.301" cy="769.51" fx="498.301" fy="769.51" r="466.157"/><radialGradient xlink:href="#b" id="j" gradientUnits="userSpaceOnUse" gradientTransform="matrix(.65845 -.00992 .0105 .69747 162.11 240.419)" cx="498.301" cy="769.51" fx="498.301" fy="769.51" r="466.157"/><radialGradient xlink:href="#b" id="k" gradientUnits="userSpaceOnUse" gradientTransform="matrix(.65845 -.00992 .0105 .69747 162.11 240.419)" cx="498.301" cy="769.51" fx="498.301" fy="769.51" r="466.157"/><radialGradient xlink:href="#b" id="e" gradientUnits="userSpaceOnUse" gradientTransform="matrix(.65845 -.00992 .0105 .69747 162.11 240.419)" cx="498.301" cy="769.51" fx="498.301" fy="769.51" r="466.157"/><filter id="G" x="-.12" width="1.24" y="-.12" height="1.24" color-interpolation-filters="sRGB"><feGaussianBlur stdDeviation="3.981"/></filter><radialGradient xlink:href="#b" id="n" gradientUnits="userSpaceOnUse" gradientTransform="matrix(.65845 -.00992 .0105 .69747 162.11 240.419)" cx="498.301" cy="769.51" fx="498.301" fy="769.51" r="466.157"/><radialGradient xlink:href="#b" id="o" gradientUnits="userSpaceOnUse" gradientTransform="matrix(.65845 -.00992 .0105 .69747 162.11 240.419)" cx="498.301" cy="769.51" fx="498.301" fy="769.51" r="466.157"/><radialGradient xlink:href="#b" id="p" gradientUnits="userSpaceOnUse" gradientTransform="matrix(.65845 -.00992 .0105 .69747 162.11 240.419)" cx="498.301" cy="769.51" fx="498.301" fy="769.51" r="466.157"/><radialGradient xlink:href="#b" id="q" gradientUnits="userSpaceOnUse" gradientTransform="matrix(.65845 -.00992 .0105 .69747 162.11 240.419)" cx="498.301" cy="769.51" fx="498.301" fy="769.51" r="466.157"/><radialGradient xlink:href="#b" id="r" gradientUnits="userSpaceOnUse" gradientTransform="matrix(.65845 -.00992 .0105 .69747 162.11 240.419)" cx="498.301" cy="769.51" fx="498.301" fy="769.51" r="466.157"/><radialGradient xlink:href="#b" id="s" gradientUnits="userSpaceOnUse" gradientTransform="matrix(.65845 -.00992 .0105 .69747 162.11 240.419)" cx="498.301" cy="769.51" fx="498.301" fy="769.51" r="466.157"/><radialGradient xlink:href="#b" id="m" gradientUnits="userSpaceOnUse" gradientTransform="matrix(.65845 -.00992 .0105 .69747 162.11 240.419)" cx="498.301" cy="769.51" fx="498.301" fy="769.51" r="466.157"/><linearGradient xlink:href="#a" id="w" gradientUnits="userSpaceOnUse" x1="109.961" y1="531.267" x2="1063.128" y2="726.137"/><radialGradient xlink:href="#c" id="y" gradientUnits="userSpaceOnUse" gradientTransform="matrix(-.00273 -.44759 .62823 -.00383 -78.184 830.588)" cx="351.668" cy="545.397" fx="351.668" fy="545.397" r="122.494"/><radialGradient xlink:href="#c" id="z" gradientUnits="userSpaceOnUse" gradientTransform="matrix(-.00273 -.44759 .62823 -.00383 -78.184 830.588)" cx="351.668" cy="545.397" fx="351.668" fy="545.397" r="122.494"/><radialGradient xlink:href="#c" id="A" gradientUnits="userSpaceOnUse" gradientTransform="matrix(-.00273 -.44759 .62823 -.00383 -78.184 830.588)" cx="351.668" cy="545.397" fx="351.668" fy="545.397" r="122.494"/><radialGradient xlink:href="#c" id="B" gradientUnits="userSpaceOnUse" gradientTransform="matrix(-.00273 -.44759 .62823 -.00383 -78.184 830.588)" cx="351.668" cy="545.397" fx="351.668" fy="545.397" r="122.494"/><radialGradient xlink:href="#c" id="C" gradientUnits="userSpaceOnUse" gradientTransform="matrix(-.00273 -.44759 .62823 -.00383 -78.184 830.588)" cx="351.668" cy="545.397" fx="351.668" fy="545.397" r="122.494"/><radialGradient xlink:href="#c" id="D" gradientUnits="userSpaceOnUse" gradientTransform="matrix(-.00273 -.44759 .62823 -.00383 -78.184 830.588)" cx="351.668" cy="545.397" fx="351.668" fy="545.397" r="122.494"/><linearGradient id="l"><stop offset="0" stop-color="#0ff"/><stop offset=".044" stop-color="#022"/><stop offset=".094" stop-color="#0ff"/><stop offset=".133" stop-color="#022"/><stop offset=".789" stop-color="#022"/><stop offset=".862" stop-color="#088"/><stop offset=".938" stop-color="#022"/><stop offset="1" stop-color="#00c8c8"/></linearGradient></defs><path d="M37.27 127.299c-9.665.043-18.065.672-24.668 2.025l-4.97 46.956c59.993-5.176 136.688 6.846 199.837 27.98 0 0 8.057-48.37 8.498-48.459C178.17 143.89 89.454 127.065 37.27 127.299zm2.899 1.503l.046 4.188-3.283.017-.061-4.173 3.298-.03zm1.518.017l3.283.046.03 4.173-3.297-.03-.017-4.189zm-6.335.03l.138 4.158-3.283.107-.138-4.157zm11.167.062l3.299.108-.046 4.157-3.268-.092.017-4.173zm-15.923.077l.215 4.172-3.283.2-.2-4.173 3.268-.2zm20.771.077l3.298.138-.077 4.172-3.282-.138.061-4.172zm-25.45.199l.292 4.157-3.267.322-.307-4.172zm30.313.03l3.283.185-.092 4.172-3.283-.184zm4.878.292l3.283.23-.123 4.142-3.283-.215.123-4.157zm-39.792.108l.43 4.141-3.268.491-.43-4.142zm44.67.23l3.283.245-.169 4.173-3.283-.261.17-4.157zm-49.088.383l.644 4.111-3.252.737-.614-4.096zm53.951.017l3.298.276-.184 4.157-3.283-.291.169-4.142zm4.894.414l3.282.322-.2 4.157-3.297-.322.215-4.157zm4.878.476l3.283.337-.23 4.157-3.268-.337.215-4.157zm4.893.506l3.283.368-.245 4.142-3.283-.353zm4.894.537l3.267.383-.26 4.142-3.268-.368zm4.893.583l3.268.398-.261 4.142-3.283-.414.276-4.126zm4.879.598l3.267.414-.276 4.142-3.283-.399zm4.893.629l3.283.43-.307 4.157-3.267-.445zm4.909.66l3.267.444-.322 4.142-3.267-.445zm4.878.674l3.283.46-.322 4.142-3.283-.46zm4.894.706l3.282.46-.337 4.142-3.268-.46zm4.893.706l3.268.49-.338 4.142-3.283-.506zm4.894.736l3.252.506-.353 4.157-3.267-.506zm4.863.767l3.267.522-.383 4.141-3.253-.521zm4.878.798l3.267.552-.399 4.126-3.267-.552zm4.863.828l3.267.568-.399 4.126-3.267-.567zm4.862.86l3.268.582-.43 4.127-3.252-.583zm4.863.874l3.252.628-.444 4.127-3.268-.614zm4.832.95l3.253.63-.476 4.126-3.252-.644zm4.833.967l3.252.675-.476 4.096-3.267-.66zm4.832 1.013l3.237.705-.522 4.111-3.237-.705zm4.786 1.058l3.252.752-.552 4.11-3.252-.75zm4.786 1.135l3.237.783-.583 4.095-3.237-.782zm4.756 1.197l3.236.843-.629 4.08-3.221-.858zm4.724 1.273l3.222.905-.675 4.065-3.222-.905zm4.68 1.35l3.205.997-.736 4.05-3.222-.997zm4.601 1.473l3.19 1.104-.827 4.004-3.191-1.074zm4.48 1.595l3.16 1.242-.936 3.974-3.16-1.228zm4.126 1.488l3.068 1.58-1.196 3.85-3.069-1.564zm3.82 1.764l2.07 1.32-1.196 3.85-2.055-1.304zm-172.961 10.34l.046 4.187-3.283.017-.046-4.173 3.283-.03zm1.519.016l3.298.03.016 4.189-3.282-.03-.031-4.189zm-6.32.03l.122 4.158-3.283.107-.122-4.157zm11.167.062l3.283.092-.03 4.173-3.284-.108.031-4.157zm-15.923.062l.2 4.172-3.268.215-.215-4.173 3.283-.214zm20.77.092l3.283.138-.061 4.172-3.298-.138.076-4.172zm-25.464.199l.307 4.142-3.283.337-.292-4.172zm30.327.03l3.268.185-.077 4.157-3.298-.169.108-4.172zm4.863.292l3.298.215-.138 4.157-3.282-.215.122-4.157zm-39.792.108l.445 4.141-3.268.476-.445-4.127zm44.67.23l3.283.23-.153 4.172-3.283-.26.153-4.143zm-49.073.383l.629 4.111-3.237.721-.613-4.08zm53.952 0l3.282.291-.184 4.158-3.283-.292zm4.878.414l3.298.322-.215 4.158-3.283-.323.2-4.157zm4.878.476l3.298.353-.23 4.157-3.267-.353.2-4.157zm4.893.521l3.299.368-.246 4.127-3.283-.337.23-4.158zm4.894.537l3.283.384-.261 4.142-3.267-.369.245-4.157zm4.894.568l3.282.414-.276 4.142-3.267-.414.26-4.142zm4.878.598l3.283.43-.292 4.141-3.267-.414zm4.909.644l3.267.415-.291 4.172-3.283-.445zm4.893.66l3.283.445-.322 4.142-3.283-.445zm4.878.675l3.283.46-.322 4.142-3.267-.46zm4.91.69l3.282.476-.337 4.142-3.283-.476zm4.877.721l3.268.491-.338 4.142-3.267-.506zm4.894.737l3.267.506-.368 4.142-3.267-.507zm4.878.767l3.252.521-.368 4.142-3.267-.522zm4.863.797l3.267.553-.383 4.11-3.268-.536zm4.863.813l3.267.568-.399 4.126-3.267-.567zm4.863.875l3.267.583-.43 4.126-3.252-.583zm4.862.874l3.253.63-.43 4.126-3.283-.63zm4.833.951l3.252.63-.46 4.126-3.253-.645zm4.847.967l3.252.66-.49 4.11-3.253-.66zm4.817.997l3.237.72-.506 4.112-3.253-.721zm4.801 1.074l3.237.751-.552 4.111-3.237-.751zm4.771 1.135l3.252.782-.598 4.096-3.237-.782zm4.756 1.18l3.237.86-.63 4.08-3.22-.859zm4.725 1.29l3.221.905-.675 4.065-3.221-.92zm4.694 1.35l3.19.997-.736 4.05-3.206-.998zm4.602 1.472l3.175 1.09-.828 4.018-3.191-1.089zm4.479 1.595l3.16 1.243-.951 3.973-3.16-1.227zm4.111 1.488l3.068 1.58-1.181 3.85-3.083-1.564zm3.835 1.765l2.056 1.304-1.181 3.85-2.071-1.289z" fill="#0f0f10"/><g transform="matrix(.23675 0 0 .23675 -6.74 -5.78)" fill="url(#m)"><path d="M293.91 107.1c21.41-3.52 43.24-6.81 64.94-4.26 21.97 1.87 43.7 7.07 64.07 15.55 21.61 9.85 41.37 23.72 58.23 40.46 7.26 7.84 13.69 16.38 20.13 24.89 10.04 14.98 17.53 31.51 23.13 48.62 3.53 14.01 7.12 28.15 7.66 42.67.74 7.65.31 15.35.45 23.02-2.12 29.38-9.1 58.57-22.15 85.07-3.87 9.2-9.52 17.45-14.6 25.99-1.31 2.24 1.37 4.17 3.28 4.75 4.73 1.45 9.77 1.28 14.67 1.6l-.2 1.46c.28-.4.83-1.2 1.11-1.6 3.04.7 6.17.77 9.28.7.5.45 1.01.9 1.52 1.36 2.22-1.82 5.27-.15 7.86-.26.19.45.58 1.36.78 1.82.09-.42.28-1.25.37-1.67 8.85 1.64 17.74 3.07 26.57 4.88.46.4.92.8 1.4 1.21l-.15-1.03c5.21 1.29 10.38 2.75 15.64 3.87l-1.33 1.19c5.23-.98 10.06 1.98 15.15 2.81-.05.43-.16 1.3-.22 1.73.13-.42.37-1.25.5-1.66 1 .24 1.98 1.98 3.11 1 .8.92 2.03 1.14 3.14 1.55 9.99 3.36 19.71 7.45 29.42 11.56 9.25 3.55 17.47 9.18 26.28 13.62 5.82 3.45 11.61 6.96 17.49 10.31 6.1 4.28 12.05 8.78 18.17 13.05 1.83 1.3 4.13 1.67 6.33 1.78 2.93-.37 3.95-3.5 3.87-6.05-.44-3-1.58-5.83-2.48-8.71l1.24.44c-1.87-1.34-1.96-3.82-2.61-5.82-.65-3.1-2.27-6.15-1.65-9.37l-.81.04c-.74-5.81-2.19-11.51-3.31-17.26l1.76.48c-2.55-1.82-1.55-5.41-2.14-8.06.11-2.01-1.62-5.26 1.08-6.05-.47-.11-1.42-.35-1.89-.46-.31-8.45.5-16.84.61-25.26 1.38-9.02 1.86-18.19 4.38-27 4.36-19.35 13.1-37.44 24.12-53.85 10.03-14.1 21.83-27.22 36.27-36.91 9.97-7.44 21.09-13.17 32.25-18.59 16.09-6.2 33.08-10.17 50.3-11.22 5.6.38 11.17-1.07 16.77-.34 1.21.1 2.06.73 2.55 1.9.05-.41.14-1.24.19-1.66 4.27-.06 8.51.57 12.78.68.21.41.62 1.24.83 1.65.11-.36.34-1.07.46-1.43 1.5.39 3.04.67 4.61.85.32.41.96 1.21 1.28 1.61.01-.38.02-1.15.02-1.53 14.62 2.8 28.98 6.96 42.75 12.62 7.11 3.59 14.69 6.31 21.38 10.69 6.85 4.01 13.51 8.33 19.92 13.01 6.06 3.81 11.09 8.94 16.54 13.54 5.45 4.5 9.88 10.04 14.89 15.01 7.7 9.1 14.65 18.81 21.33 28.69 14.49 23.91 24.79 50.56 28.51 78.34 1.52 6.53 1.21 13.25 1.76 19.88.06 10.63.27 21.37-1.77 31.85-3.24 23.62-11.48 46.54-24.23 66.7-24.5 38.7-67.23 64.98-112.65 70.26-24.91 3.48-50.35-.11-74.29-7.34-11.45-3.63-22.83-7.77-33.28-13.78-3.23-1.97-7.41-2.63-11.01-1.45-2.3 2.22-2.18 5.92-1.25 8.74 3.94 9.42 8.48 18.61 11.65 28.35 13.23 35.24 18.69 73.09 18.62 110.61-1.01 19.78-2.64 39.64-7.05 58.98-3.61 18.69-9.95 36.72-16.83 54.43-17.22 39.85-41.76 76.85-73.69 106.44-14.84 14.37-31.29 27.03-48.65 38.21-15.95 10.94-33.86 18.48-51.15 26.97-11.05 4.16-22.01 8.65-33.45 11.66-9.63 3.33-19.7 4.96-29.61 7.2-7.15 1.53-14.51 2.05-21.55 4.01l.35-1.72c-.54.57-1.07 1.16-1.6 1.75-2.37.08-4.7.52-7.06.62l-.58-1.43c0 .36.01 1.09.01 1.46-3.71.21-7.46.22-11.12.91l-.68-1.16v1.32c-13.35.29-26.76.92-40.1-.08-.25-.31-.73-.94-.98-1.26l.1 1.39c-5.67-.39-11.34-.65-17-1.17-.08-.4-.25-1.21-.34-1.62l-.02 1.56c-5.35-.94-10.76-1.44-16.15-2.14-27.34-4.29-54.03-12.31-79.39-23.39-7.52-3.28-15.22-6.24-22.28-10.46-11.46-5.42-21.93-12.55-32.72-19.14-5.69-4.34-11.4-8.66-17.22-12.82-10.11-8.17-20.17-16.44-29.18-25.83-21.01-20.52-38.66-44.33-52.96-69.96-4.8-7.55-8.14-15.86-12.15-23.83-6.31-14.32-11.33-29.16-16.04-44.06-7.01-27.35-11.68-55.49-11.2-83.78-.09-21.89 2.64-43.73 7.32-65.09 4.34-22.24 12.41-43.55 21.52-64.22 6.38-13.83 15.26-26.29 24.55-38.29 9.42-9.6 19.02-19.02 28.48-28.58 3.78-2.95 5.43-9.56.7-12.43-15.55-10.84-31.47-21.13-47.02-31.97-21.3-13.68-41.72-29.79-55.79-51.14-7.37-11.41-14.58-23.07-19.41-35.83-3.65-7.9-5.57-16.42-8.12-24.7-1.68-8.58-4.21-17.03-4.73-25.79-1.69-13.25-1.45-26.66-.73-39.97.63-17.69 5.34-34.89 10.42-51.75 8.75-23.31 20.03-45.91 35.64-65.42 4.72-6.51 10.64-12.01 15.5-18.4 7.61-7.4 15.05-15 23.44-21.58 13.53-11.36 28.69-20.55 44.35-28.67.08.46.25 1.38.34 1.83l.12-1.71c16.42-8.87 34.29-14.68 52.33-19.19" fill="url(#n)"/><path d="M466.46 467.28c4.66-4.17 10.98-5.44 16.89-6.84-8.33 5.01-15.82 11.25-22.57 18.22-.85-4.56 2.16-8.8 5.68-11.38z" fill="url(#o)"/><path d="M489.64 471.69c5.03-3.42 10.09-7.34 16.21-8.52 3.46-.74 7.29 1.33 8.05 4.91.2 3.63-1.8 7.01-4.43 9.38-10.1 8.88-24.26 13.74-37.6 10.33 5.22-6.1 11.43-11.22 17.77-16.1z" fill="url(#p)"/><path d="M291.19 535.1c10.18-2.76 20.83-2.23 31.19-3.81.01 13.89-.04 27.79.03 41.69-15.81-4.96-30.6-13.36-42.86-24.51-1.67-1.92-3.9-4.79-2.15-7.33 3.28-4.23 8.94-4.88 13.79-6.04z" fill="url(#q)"/><path d="M765.45 533.56c1.84-1.41 3.64.69 5.16 1.62 1.17 5.75 1.01 12.15-2.38 17.16-5.97 9.74-17 16.52-28.5 16.79 3.91-7.34 8.77-14.11 13.24-21.1 3.79-5.1 7.01-10.94 12.48-14.47z" fill="url(#r)"/><path d="M471.17 634.84c2.21-5.29 4.2-10.72 7.05-15.71 3.15 4.75 4.79 10.34 7.19 15.5-4.7.57-9.51.11-14.24.21z" fill="url(#s)"/></g><g transform="matrix(.22012 0 0 .22012 2.513 3.619)" clip-path="url(#t)" filter="url(#u)"><path d="M254.79 30.79c20.52-3.75 41.3-6.94 62.22-6.29 34.91-.85 69.73 6 102.4 18.08 30.47 11.18 58.3 28.93 82.26 50.74 6.68 5.32 12.01 12.03 17.76 18.28 15.81 18.78 29.44 39.62 38.5 62.51 18.3 43.53 21.5 92.9 10.79 138.76-3.43 16.98-10.09 33.09-16.82 48.99-3.2 6.71-6.97 13.12-10.31 19.75 13.53 2.95 27.2 5.37 40.5 9.34 19.54 4.98 38.64 11.57 57.21 19.44-.07-7.76-.65-15.52-.42-23.28.73-9.35.79-18.79 2.69-28.01 1.93-15.56 7.13-30.46 12.86-44.99 11.98-26.02 29.69-49.64 52.44-67.18 12.41-8.66 25.05-17.24 39.16-22.91 20.99-8.46 43.33-14.18 66.01-15.02 15.3-.85 30.65.02 45.81 2.2 6.46 1.08 13.06 1.58 19.34 3.58 22.76 5.94 45.14 13.86 65.73 25.35 7.66 3.68 14.52 8.71 21.71 13.2 33.52 22.94 62.7 52.61 83.42 87.67 9.56 15 16.1 31.63 23.17 47.89 8.14 23.81 13.37 48.84 13.21 74.08.31 24.51-3.26 49.23-12.19 72.14-6.96 19.66-18.24 37.54-31.52 53.54-14.25 16.05-31.43 29.49-50.4 39.52-23.17 11.48-48.46 18.91-74.29 20.71-15.37 1.56-30.84.33-46.17-1.2 3.92 12.69 8.5 25.21 11.18 38.25 3.58 13.1 5.3 26.59 7.42 39.98 1.25 13.33 3.04 26.65 2.71 40.08.49 10.7-.35 21.38-1.23 32.04-.39 9.78-2.62 19.34-4.09 28.99-1.21 8.31-3.62 16.37-5.48 24.55-2.31 10.68-6.21 20.92-9.51 31.32-3.45 8.44-6.99 16.86-10.73 25.18-4.5 8.8-8.16 18.06-13.74 26.26-10.87 18.03-23.34 35.05-36.7 51.3-11.41 12.33-23.46 24.07-36.18 35.05-7.64 6.02-14.83 12.66-23.1 17.85-16.48 11.66-34.21 21.4-52.12 30.68-27.29 13.19-56.23 22.78-85.8 29.38-10.95 2.88-22.23 4.11-33.38 5.96-13.61 2.08-27.38 1.33-41.08 1.45-16.67-.01-33.34.02-50.01-.01-12.49-.6-24.73-3.27-37.06-5.14-22.99-4.64-45.95-9.88-68.05-17.86-22.79-7.54-44.63-17.7-65.74-29.09-11.37-6.59-22.92-12.89-33.71-20.42-9.79-6-18.69-13.25-27.83-20.17-26.34-20.78-50.06-44.83-70.78-71.22-7.42-8.74-13.5-18.49-20.12-27.84-4.86-7.82-9.61-15.71-14.26-23.65-5.23-10.24-10.98-20.23-15.27-30.91-4.46-9.82-8.37-19.87-11.98-30.03-3.74-9.24-5.84-19.02-8.68-28.55-7.21-29.09-11.33-59.05-10.73-89.05-.16-21.99 2.87-43.85 6.65-65.47 2.88-11.11 5.11-22.41 9.12-33.19 11.98-37.48 30.89-72.73 55.55-103.4 1.12-1.35 2.11-2.8 2.91-4.35-20.56-7.92-39.59-19.36-57.26-32.43-42.16-30.84-73.42-76.45-86.26-127.14-1.42-6.3-3.46-12.5-4.08-18.96-.64-6.71-2.12-13.37-1.96-20.14.13-12.64-.16-25.3.14-37.93 2.29-17.61 5.15-35.27 10.93-52.11 3.58-12.1 9.05-23.53 14.51-34.87 9.43-20.36 22.95-38.51 37.44-55.53 9.07-11.19 19.72-20.99 30.65-30.33 13.12-11.54 27.51-21.57 42.52-30.48 21.46-12.61 44.76-21.75 68.42-29.3 7.23-1.89 14.44-3.88 21.7-5.64m39.12 76.31c-18.04 4.51-35.91 10.32-52.33 19.19l-.12 1.71c-.09-.45-.26-1.37-.34-1.83-15.66 8.12-30.82 17.31-44.35 28.67-8.39 6.58-15.83 14.18-23.44 21.58-4.86 6.39-10.78 11.89-15.5 18.4-15.61 19.51-26.89 42.11-35.64 65.42-5.08 16.86-9.79 34.06-10.42 51.75-.72 13.31-.96 26.72.73 39.97.52 8.76 3.05 17.21 4.73 25.79 2.55 8.28 4.47 16.8 8.12 24.7 4.83 12.76 12.04 24.42 19.41 35.83 14.07 21.35 34.49 37.46 55.79 51.14 15.55 10.84 31.47 21.13 47.02 31.97 4.73 2.87 3.08 9.48-.7 12.43-9.46 9.56-19.06 18.98-28.48 28.58-9.29 12-18.17 24.46-24.55 38.29-9.11 20.67-17.18 41.98-21.52 64.22-4.68 21.36-7.41 43.2-7.32 65.09-.48 28.29 4.19 56.43 11.2 83.78 4.71 14.9 9.73 29.74 16.04 44.06 4.01 7.97 7.35 16.28 12.15 23.83 14.3 25.63 31.95 49.44 52.96 69.96 9.01 9.39 19.07 17.66 29.18 25.83 5.82 4.16 11.53 8.48 17.22 12.82 10.79 6.59 21.26 13.72 32.72 19.14 7.06 4.22 14.76 7.18 22.28 10.46 25.36 11.08 52.05 19.1 79.39 23.39 5.39.7 10.8 1.2 16.15 2.14l.02-1.56c.09.41.26 1.22.34 1.62 5.66.52 11.33.78 17 1.17l-.1-1.39c.25.32.73.95.98 1.26 13.34 1 26.75.37 40.1.08v-1.32l.68 1.16c3.66-.69 7.41-.7 11.12-.91 0-.37-.01-1.1-.01-1.46l.58 1.43c2.36-.1 4.69-.54 7.06-.62.53-.59 1.06-1.18 1.6-1.75l-.35 1.72c7.04-1.96 14.4-2.48 21.55-4.01 9.91-2.24 19.98-3.87 29.61-7.2 11.44-3.01 22.4-7.5 33.45-11.66 17.29-8.49 35.2-16.03 51.15-26.97 17.36-11.18 33.81-23.84 48.65-38.21 31.93-29.59 56.47-66.59 73.69-106.44 6.88-17.71 13.22-35.74 16.83-54.43 4.41-19.34 6.04-39.2 7.05-58.98.07-37.52-5.39-75.37-18.62-110.61-3.17-9.74-7.71-18.93-11.65-28.35-.93-2.82-1.05-6.52 1.25-8.74 3.6-1.18 7.78-.52 11.01 1.45 10.45 6.01 21.83 10.15 33.28 13.78 23.94 7.23 49.38 10.82 74.29 7.34 45.42-5.28 88.15-31.56 112.65-70.26 12.75-20.16 20.99-43.08 24.23-66.7 2.04-10.48 1.83-21.22 1.77-31.85-.55-6.63-.24-13.35-1.76-19.88-3.72-27.78-14.02-54.43-28.51-78.34-6.68-9.88-13.63-19.59-21.33-28.69-5.01-4.97-9.44-10.51-14.89-15.01-5.45-4.6-10.48-9.73-16.54-13.54-6.41-4.68-13.07-9-19.92-13.01-6.69-4.38-14.27-7.1-21.38-10.69-13.77-5.66-28.13-9.82-42.75-12.62 0 .38-.01 1.15-.02 1.53-.32-.4-.96-1.2-1.28-1.61-1.57-.18-3.11-.46-4.61-.85-.12.36-.35 1.07-.46 1.43-.21-.41-.62-1.24-.83-1.65-4.27-.11-8.51-.74-12.78-.68-.05.42-.14 1.25-.19 1.66-.49-1.17-1.34-1.8-2.55-1.9-5.6-.73-11.17.72-16.77.34-17.22 1.05-34.21 5.02-50.3 11.22-11.16 5.42-22.28 11.15-32.25 18.59-14.44 9.69-26.24 22.81-36.27 36.91-11.02 16.41-19.76 34.5-24.12 53.85-2.52 8.81-3 17.98-4.38 27-.11 8.42-.92 16.81-.61 25.26.47.11 1.42.35 1.89.46-2.7.79-.97 4.04-1.08 6.05.59 2.65-.41 6.24 2.14 8.06l-1.76-.48c1.12 5.75 2.57 11.45 3.31 17.26l.81-.04c-.62 3.22 1 6.27 1.65 9.37.65 2 .74 4.48 2.61 5.82l-1.24-.44c.9 2.88 2.04 5.71 2.48 8.71.08 2.55-.94 5.68-3.87 6.05-2.2-.11-4.5-.48-6.33-1.78-6.12-4.27-12.07-8.77-18.17-13.05-5.88-3.35-11.67-6.86-17.49-10.31-8.81-4.44-17.03-10.07-26.28-13.62-9.71-4.11-19.43-8.2-29.42-11.56-1.11-.41-2.34-.63-3.14-1.55-1.13.98-2.11-.76-3.11-1-.13.41-.37 1.24-.5 1.66.06-.43.17-1.3.22-1.73-5.09-.83-9.92-3.79-15.15-2.81l1.33-1.19c-5.26-1.12-10.43-2.58-15.64-3.87l.15 1.03c-.48-.41-.94-.81-1.4-1.21-8.83-1.81-17.72-3.24-26.57-4.88-.09.42-.28 1.25-.37 1.67-.2-.46-.59-1.37-.78-1.82-2.59.11-5.64-1.56-7.86.26-.51-.46-1.02-.91-1.52-1.36-3.11.07-6.24 0-9.28-.7-.28.4-.83 1.2-1.11 1.6l.2-1.46c-4.9-.32-9.94-.15-14.67-1.6-1.91-.58-4.59-2.51-3.28-4.75 5.08-8.54 10.73-16.79 14.6-25.99 13.05-26.5 20.03-55.69 22.15-85.07-.14-7.67.29-15.37-.45-23.02-.54-14.52-4.13-28.66-7.66-42.67-5.6-17.11-13.09-33.64-23.13-48.62-6.44-8.51-12.87-17.05-20.13-24.89-16.86-16.74-36.62-30.61-58.23-40.46-20.37-8.48-42.1-13.68-64.07-15.55-21.7-2.55-43.53.74-64.94 4.26z"/></g><path d="M254.79 30.79c20.52-3.75 41.3-6.94 62.22-6.29 34.91-.85 69.73 6 102.4 18.08 30.47 11.18 58.3 28.93 82.26 50.74 6.68 5.32 12.01 12.03 17.76 18.28 15.81 18.78 29.44 39.62 38.5 62.51 18.3 43.53 21.5 92.9 10.79 138.76-3.43 16.98-10.09 33.09-16.82 48.99-3.2 6.71-6.97 13.12-10.31 19.75 13.53 2.95 27.2 5.37 40.5 9.34 19.54 4.98 38.64 11.57 57.21 19.44-.07-7.76-.65-15.52-.42-23.28.73-9.35.79-18.79 2.69-28.01 1.93-15.56 7.13-30.46 12.86-44.99 11.98-26.02 29.69-49.64 52.44-67.18 12.41-8.66 25.05-17.24 39.16-22.91 20.99-8.46 43.33-14.18 66.01-15.02 15.3-.85 30.65.02 45.81 2.2 6.46 1.08 13.06 1.58 19.34 3.58 22.76 5.94 45.14 13.86 65.73 25.35 7.66 3.68 14.52 8.71 21.71 13.2 33.52 22.94 62.7 52.61 83.42 87.67 9.56 15 16.1 31.63 23.17 47.89 8.14 23.81 13.37 48.84 13.21 74.08.31 24.51-3.26 49.23-12.19 72.14-6.96 19.66-18.24 37.54-31.52 53.54-14.25 16.05-31.43 29.49-50.4 39.52-23.17 11.48-48.46 18.91-74.29 20.71-15.37 1.56-30.84.33-46.17-1.2 3.92 12.69 8.5 25.21 11.18 38.25 3.58 13.1 5.3 26.59 7.42 39.98 1.25 13.33 3.04 26.65 2.71 40.08.49 10.7-.35 21.38-1.23 32.04-.39 9.78-2.62 19.34-4.09 28.99-1.21 8.31-3.62 16.37-5.48 24.55-2.31 10.68-6.21 20.92-9.51 31.32-3.45 8.44-6.99 16.86-10.73 25.18-4.5 8.8-8.16 18.06-13.74 26.26-10.87 18.03-23.34 35.05-36.7 51.3-11.41 12.33-23.46 24.07-36.18 35.05-7.64 6.02-14.83 12.66-23.1 17.85-16.48 11.66-34.21 21.4-52.12 30.68-27.29 13.19-56.23 22.78-85.8 29.38-10.95 2.88-22.23 4.11-33.38 5.96-13.61 2.08-27.38 1.33-41.08 1.45-16.67-.01-33.34.02-50.01-.01-12.49-.6-24.73-3.27-37.06-5.14-22.99-4.64-45.95-9.88-68.05-17.86-22.79-7.54-44.63-17.7-65.74-29.09-11.37-6.59-22.92-12.89-33.71-20.42-9.79-6-18.69-13.25-27.83-20.17-26.34-20.78-50.06-44.83-70.78-71.22-7.42-8.74-13.5-18.49-20.12-27.84-4.86-7.82-9.61-15.71-14.26-23.65-5.23-10.24-10.98-20.23-15.27-30.91-4.46-9.82-8.37-19.87-11.98-30.03-3.74-9.24-5.84-19.02-8.68-28.55-7.21-29.09-11.33-59.05-10.73-89.05-.16-21.99 2.87-43.85 6.65-65.47 2.88-11.11 5.11-22.41 9.12-33.19 11.98-37.48 30.89-72.73 55.55-103.4 1.12-1.35 2.11-2.8 2.91-4.35-20.56-7.92-39.59-19.36-57.26-32.43-42.16-30.84-73.42-76.45-86.26-127.14-1.42-6.3-3.46-12.5-4.08-18.96-.64-6.71-2.12-13.37-1.96-20.14.13-12.64-.16-25.3.14-37.93 2.29-17.61 5.15-35.27 10.93-52.11 3.58-12.1 9.05-23.53 14.51-34.87 9.43-20.36 22.95-38.51 37.44-55.53 9.07-11.19 19.72-20.99 30.65-30.33 13.12-11.54 27.51-21.57 42.52-30.48 21.46-12.61 44.76-21.75 68.42-29.3 7.23-1.89 14.44-3.88 21.7-5.64m39.12 76.31c-18.04 4.51-35.91 10.32-52.33 19.19l-.12 1.71c-.09-.45-.26-1.37-.34-1.83-15.66 8.12-30.82 17.31-44.35 28.67-8.39 6.58-15.83 14.18-23.44 21.58-4.86 6.39-10.78 11.89-15.5 18.4-15.61 19.51-26.89 42.11-35.64 65.42-5.08 16.86-9.79 34.06-10.42 51.75-.72 13.31-.96 26.72.73 39.97.52 8.76 3.05 17.21 4.73 25.79 2.55 8.28 4.47 16.8 8.12 24.7 4.83 12.76 12.04 24.42 19.41 35.83 14.07 21.35 34.49 37.46 55.79 51.14 15.55 10.84 31.47 21.13 47.02 31.97 4.73 2.87 3.08 9.48-.7 12.43-9.46 9.56-19.06 18.98-28.48 28.58-9.29 12-18.17 24.46-24.55 38.29-9.11 20.67-17.18 41.98-21.52 64.22-4.68 21.36-7.41 43.2-7.32 65.09-.48 28.29 4.19 56.43 11.2 83.78 4.71 14.9 9.73 29.74 16.04 44.06 4.01 7.97 7.35 16.28 12.15 23.83 14.3 25.63 31.95 49.44 52.96 69.96 9.01 9.39 19.07 17.66 29.18 25.83 5.82 4.16 11.53 8.48 17.22 12.82 10.79 6.59 21.26 13.72 32.72 19.14 7.06 4.22 14.76 7.18 22.28 10.46 25.36 11.08 52.05 19.1 79.39 23.39 5.39.7 10.8 1.2 16.15 2.14l.02-1.56c.09.41.26 1.22.34 1.62 5.66.52 11.33.78 17 1.17l-.1-1.39c.25.32.73.95.98 1.26 13.34 1 26.75.37 40.1.08v-1.32l.68 1.16c3.66-.69 7.41-.7 11.12-.91 0-.37-.01-1.1-.01-1.46l.58 1.43c2.36-.1 4.69-.54 7.06-.62.53-.59 1.06-1.18 1.6-1.75l-.35 1.72c7.04-1.96 14.4-2.48 21.55-4.01 9.91-2.24 19.98-3.87 29.61-7.2 11.44-3.01 22.4-7.5 33.45-11.66 17.29-8.49 35.2-16.03 51.15-26.97 17.36-11.18 33.81-23.84 48.65-38.21 31.93-29.59 56.47-66.59 73.69-106.44 6.88-17.71 13.22-35.74 16.83-54.43 4.41-19.34 6.04-39.2 7.05-58.98.07-37.52-5.39-75.37-18.62-110.61-3.17-9.74-7.71-18.93-11.65-28.35-.93-2.82-1.05-6.52 1.25-8.74 3.6-1.18 7.78-.52 11.01 1.45 10.45 6.01 21.83 10.15 33.28 13.78 23.94 7.23 49.38 10.82 74.29 7.34 45.42-5.28 88.15-31.56 112.65-70.26 12.75-20.16 20.99-43.08 24.23-66.7 2.04-10.48 1.83-21.22 1.77-31.85-.55-6.63-.24-13.35-1.76-19.88-3.72-27.78-14.02-54.43-28.51-78.34-6.68-9.88-13.63-19.59-21.33-28.69-5.01-4.97-9.44-10.51-14.89-15.01-5.45-4.6-10.48-9.73-16.54-13.54-6.41-4.68-13.07-9-19.92-13.01-6.69-4.38-14.27-7.1-21.38-10.69-13.77-5.66-28.13-9.82-42.75-12.62 0 .38-.01 1.15-.02 1.53-.32-.4-.96-1.2-1.28-1.61-1.57-.18-3.11-.46-4.61-.85-.12.36-.35 1.07-.46 1.43-.21-.41-.62-1.24-.83-1.65-4.27-.11-8.51-.74-12.78-.68-.05.42-.14 1.25-.19 1.66-.49-1.17-1.34-1.8-2.55-1.9-5.6-.73-11.17.72-16.77.34-17.22 1.05-34.21 5.02-50.3 11.22-11.16 5.42-22.28 11.15-32.25 18.59-14.44 9.69-26.24 22.81-36.27 36.91-11.02 16.41-19.76 34.5-24.12 53.85-2.52 8.81-3 17.98-4.38 27-.11 8.42-.92 16.81-.61 25.26.47.11 1.42.35 1.89.46-2.7.79-.97 4.04-1.08 6.05.59 2.65-.41 6.24 2.14 8.06l-1.76-.48c1.12 5.75 2.57 11.45 3.31 17.26l.81-.04c-.62 3.22 1 6.27 1.65 9.37.65 2 .74 4.48 2.61 5.82l-1.24-.44c.9 2.88 2.04 5.71 2.48 8.71.08 2.55-.94 5.68-3.87 6.05-2.2-.11-4.5-.48-6.33-1.78-6.12-4.27-12.07-8.77-18.17-13.05-5.88-3.35-11.67-6.86-17.49-10.31-8.81-4.44-17.03-10.07-26.28-13.62-9.71-4.11-19.43-8.2-29.42-11.56-1.11-.41-2.34-.63-3.14-1.55-1.13.98-2.11-.76-3.11-1-.13.41-.37 1.24-.5 1.66.06-.43.17-1.3.22-1.73-5.09-.83-9.92-3.79-15.15-2.81l1.33-1.19c-5.26-1.12-10.43-2.58-15.64-3.87l.15 1.03c-.48-.41-.94-.81-1.4-1.21-8.83-1.81-17.72-3.24-26.57-4.88-.09.42-.28 1.25-.37 1.67-.2-.46-.59-1.37-.78-1.82-2.59.11-5.64-1.56-7.86.26-.51-.46-1.02-.91-1.52-1.36-3.11.07-6.24 0-9.28-.7-.28.4-.83 1.2-1.11 1.6l.2-1.46c-4.9-.32-9.94-.15-14.67-1.6-1.91-.58-4.59-2.51-3.28-4.75 5.08-8.54 10.73-16.79 14.6-25.99 13.05-26.5 20.03-55.69 22.15-85.07-.14-7.67.29-15.37-.45-23.02-.54-14.52-4.13-28.66-7.66-42.67-5.6-17.11-13.09-33.64-23.13-48.62-6.44-8.51-12.87-17.05-20.13-24.89-16.86-16.74-36.62-30.61-58.23-40.46-20.37-8.48-42.1-13.68-64.07-15.55-21.7-2.55-43.53.74-64.94 4.26z" fill="url(#w)" transform="matrix(.23675 0 0 .23675 -6.74 -5.78)"/><path d="M285.328 472.7a75.665 75.665 0 0 0-5.938.218c-4.081.298-8.197.763-12.125 1.938-2.242.745-3.559 2.849-4.969 4.593-.71 1.46-.441 3.486 1.344 3.938 1.677.158 3.607.509 5.063-.563-.073-.27-.24-.795-.313-1.062-.583-.362-1.335-.59-1.687-1.219a3.26 3.26 0 0 1 .53-1.062c3.047-.742 6.19-.887 9.313-1.032 12.167-.203 24.272 2.275 35.657 6.47 9.007 3.656 17.795 8.146 25.343 14.343 3.828 2.752 6.934 6.343 9.782 10.062 1.446 2.446 2.77 4.963 3.687 7.657.985 3.61.804 7.551-.719 11a31.84 31.84 0 0 1-3.281 4.375c-3.683 3.751-8.788 5.336-13.719 6.687-7.968 1.736-16.259 1.669-24.281.313-.077-2.405-.396-4.815-.156-7.22-.095-4.871-.412-9.716-.344-14.593 7.06-.117 14.37.505 20.906 3.375.615.366 1.471.615 1.657 1.406-.484 1.677-2.22 2.517-2.938 4.063.104.221.338.68.438.906 1.65.312 3.368.625 5.03.25 2.73-1.45 5.166-4.437 4.407-7.719-1.03-3.688-4.448-6.164-7.937-7.343-7.01-2.3-14.446-3.366-21.813-3-.208-1.487-.105-3.009-.25-4.5-.646-3.639-.93-7.475-3-10.657-.886-.6-2.348-.675-2.75.532-2.102 4.781-2.077 10.151-2.375 15.28-5.988.941-11.943 2.44-17.344 5.25-2.368 1.687-5.79 3.126-6.125 6.407 0 2.658 1.882 4.74 3.5 6.656 1.835 2.314 4.139 4.204 6.313 6.188 4 3.286 8.64 5.628 13.25 7.937.1 2.708.698 6.021 3.469 7.25 1.554.2 3.419.423 4.562-.906 1.071-.777 1.255-2.124 1.563-3.312 11.412 2.802 23.75 2.55 34.718-1.875 7.77-3.25 14.927-9.345 17.25-17.688.967-4.366.176-8.95-1.437-13.062-1.813-3.372-3.848-6.675-6.406-9.532-7.544-9.016-17.643-15.357-27.907-20.843-12.394-6.102-26.12-9.867-39.968-9.907zm91.093 6.656c-.396.008-.793.045-1.187.093-3.087-.095-5.845 1.39-8.656 2.438-3.282 1.613-6.083 4.177-8.063 7.25-1.397 2.341-2.407 5.293-1.219 7.937.384 1.546 1.902 2.627 1.875 4.282.036 1.202.407 2.383.75 3.53.782.814 1.854.78 2.875.532.642-.515 1.238-1.069 1.844-1.625 2.924 1.08 6.155.849 9.188.469 6.422-1.78 12.332-5.805 15.812-11.563 1.324-2.368 1.94-5.75-.094-7.906-1.324-1.794-4.022-1.048-5.5-2.625-2.048-1.914-4.849-2.865-7.625-2.812zm-4.218 6.406c-3.765 2.264-7.137 5.068-10.188 8.219-.384-2.061.972-3.96 2.563-5.125 2.106-1.885 4.953-2.461 7.625-3.094zm10.78 1.156c1.384-.023 2.731.866 3.032 2.281.09 1.641-.811 3.18-2 4.25-4.565 4.014-10.97 6.198-17 4.657 2.36-2.757 5.166-5.045 8.031-7.25 2.274-1.546 4.578-3.342 7.344-3.875.196-.042.396-.06.594-.063zm48.282 17.969c-.312.741-.93 1.454-.75 2.312.466 3.991 2.005 7.752 3.094 11.594.71 3.376 2.18 6.703 1.625 10.219.068.65-.573 1.401-1.156.719-4.687-5.437-7.663-12.355-13.344-16.938-.696-.705-1.686-.711-2.594-.594-3.742 4.742-3.897 11.007-5 16.688-.479 3.566-.879 7.369.531 10.781.592 1.401 2.198 1.747 3.532 2 2.639-1.41 2.464-4.826 2.843-7.375.629-3.58-.3-7.395.938-10.844 1.374.705 1.975 2.245 2.937 3.375 2.848 4.326 5.375 9.008 9.375 12.407 1.582 1.37 3.816.283 5.344-.625 2.861-2.703 4.195-6.658 4.313-10.532-.534-6.915-2.484-13.9-6.75-19.468-1.302-1.623-2.764-3.371-4.938-3.72zm53.781 4.25c-1.916 1.193-3.144 3.162-4.5 4.906-2.368 3.232-4.76 6.573-5.812 10.5-1.193 3.986-1.448 8.634.844 12.281-2.79 9.103-6.182 18.244-6.344 27.875.285 3.047 2.278 5.847 5.094 7.063.641.154 1.555.709 2.093.062 1.203-2.549.922-5.494 1.844-8.125 2.319-6.639 4.233-13.412 6-20.218 6.599.167 12.965-3.128 17.25-8.032 2.929-3.29 5.429-7.43 5.406-11.968-.086-3.214-.585-6.67-2.75-9.188-1.405-1.627-3.723-2.904-5.875-2-4.108 1.64-6.929 5.144-10.156 8-2.757 2.915-5.298 6.043-7.906 9.094a50.466 50.466 0 0 1-.938-1.75c1.193-4.642 3.78-8.695 6.125-12.813.647-1.04 1.185-2.248 1.063-3.5-.244-.836-.33-2.101-1.438-2.187zm-82.906.187c-1.444-.002-2.904.07-4.344.032-3.236.122-6.474.304-9.656.937-3.462.963-7.363 1.76-9.781 4.656-1.903 1.975-2.519 5.32-1 7.688 1.419 1.202 3.146 2.147 5.062 2.156 5.718.895 11.673.085 17.25 1.875 1.993.646 4.585.779 5.719 2.813-.488 1.74-2.11 2.716-3.719 3.25-2.865.962-5.83 1.628-8.812 2.062-1.957.244-3.931.673-5.906.375-1.79-.248-3.836-.18-5.22-1.531-.636-2.278 1.824-3.817 3.845-3.469 3.353.737 6.434 2.665 9.937 2.719 2.115-.068 4.714-.6 5.813-2.625-.317-.529-.529-1.166-1.125-1.438-2.08-1.238-4.544-1.448-6.844-2.03-4.167-.494-9.064-1.514-12.594 1.405-1.713 1.117-2.251 3.32-2.156 5.25 1.017 3.182 3.938 5.228 6.781 6.688 3.227 1.234 6.694 1.846 10.156 1.687 4.28.258 8.636-1.018 12.125-3.5 2.405-2.282 3.993-5.709 3.157-9.062-.226-2.735-2.344-4.778-4.563-6.125-5.36-2.481-11.381-1.828-17.062-2.781-1.768-.249-3.642-.176-5.22-1.125.344-.583.621-1.297 1.345-1.5 4.008-1.28 8.252-1.14 12.406-1.407 3.959-.366 8.03-.541 11.812-1.875 1.148-.474 1.705-1.767 1.375-2.937-1.103-1.347-2.904-1.564-4.5-1.844-1.426-.273-2.837-.341-4.281-.344zm63 .188c-5.568.61-11.218.696-16.719 1.812-.917.357-2.247.638-2.437 1.782.42 2.499 3.433 2.931 5.25 4.125-.04 1.518-.563 2.97-1.25 4.312-1.067.895-2.484 1.336-3.469 2.344-.691.859-.552 2.162.406 2.781-.845 2.377-1.666 4.783-2.312 7.219-.651 4.18 1.764 9.041 6.094 10.062 5.96.48 11.515-2.275 16.437-5.343.886-.674 2.32-1.565 1.75-2.875-.61-1.65-2.393-2.918-4.187-2.688-3.865.276-7.569 1.743-11.47 1.594-.61-1.433.114-2.902.376-4.313.23-.79.378-1.785 1.219-2.156 3.688-.89 7.548-.066 11.25-.844 2.002-.904 1.502-4.741-.875-4.687-2.69.05-5.402 0-8-.781.08-1.216-.034-2.5.5-3.625.415-.674 1.294-.705 2-.782 2.58-.126 5.124-.643 7.718-.593 1.605-.027 3.276-.082 4.782-.72.75-.325 1.356-1.288 1.03-2.093-1.595-2.843-4.839-4.68-8.093-4.531zm-95.812.469c-.43.1-.857.182-1.282.28-1.943 2.442-1.837 5.79-2.375 8.72-.497 2.553.041 5.156-.375 7.718.036 4.244-.425 8.584.782 12.72.108 1.016.952 1.695 1.562 2.437 1.7.366 4.157 1.1 5.188-.844.845-2.888.525-5.941.593-8.906-.167-5.108-.297-10.228-.843-15.313-.299-2.17-.677-4.41-1.938-6.25-.443-.19-.879-.368-1.312-.562zm-69.875 7.812c.005 6.278 0 12.562.03 18.844-7.145-2.242-13.833-6.054-19.374-11.094-.755-.868-1.76-2.164-.969-3.312 1.482-1.912 4.027-2.195 6.219-2.72 4.6-1.247 9.411-1.004 14.093-1.718zm200.875.813c.611.017 1.203.622 1.718.937.53 2.599.439 5.486-1.093 7.75-2.699 4.402-7.678 7.472-12.875 7.594 1.767-3.318 3.98-6.372 6-9.531 1.712-2.305 3.152-4.967 5.625-6.563a.93.93 0 0 1 .625-.187z" transform="matrix(.49089 0 0 .49089 -75.162 -125.65)" fill-opacity=".533" filter="url(#x)"/><path d="M262.114 630.72c.68-.01 1.34.425 1.488 1.12.045.806-.398 1.56-.982 2.087-2.24 1.97-5.385 3.042-8.345 2.285 1.159-1.353 2.536-2.476 3.943-3.559 1.116-.758 2.247-1.64 3.605-1.902.096-.02.194-.03.291-.03zm-5.292-.567c-1.848 1.111-3.503 2.488-5.001 4.034-.189-1.011.477-1.943 1.258-2.515 1.034-.926 2.432-1.209 3.743-1.52zm2.07-3.145c-.194.003-.389.022-.582.046-1.515-.047-2.87.682-4.25 1.197-1.61.792-2.985 2.05-3.957 3.559-.686 1.149-1.182 2.598-.598 3.896.188.759.933 1.29.92 2.102.017.59.2 1.17.368 1.733.384.4.91.383 1.411.261.316-.253.608-.525.906-.798 1.435.53 3.02.417 4.51.23 3.152-.874 6.053-2.85 7.762-5.676.65-1.162.952-2.822-.046-3.88-.65-.881-1.974-.515-2.7-1.29-1.006-.939-2.38-1.406-3.743-1.38z" fill="url(#y)" transform="translate(-150.257 -519.313)"/><path d="M285.815 639.541c-.153.364-.457.714-.368 1.135.228 1.96.984 3.806 1.518 5.691.349 1.658 1.071 3.29.798 5.017.033.32-.281.688-.567.353-2.301-2.67-3.762-6.065-6.55-8.315-.342-.346-.828-.349-1.274-.291-1.837 2.327-1.913 5.403-2.454 8.191-.236 1.75-.432 3.618.26 5.293.291.687 1.08.857 1.734.981 1.296-.692 1.21-2.368 1.396-3.62.308-1.757-.148-3.63.46-5.323.674.346.97 1.102 1.442 1.657 1.398 2.123 2.639 4.422 4.602 6.09.777.672 1.873.14 2.623-.307 1.405-1.327 2.06-3.268 2.117-5.17-.261-3.394-1.219-6.823-3.313-9.556-.64-.797-1.357-1.655-2.424-1.826z" fill="url(#z)" transform="translate(-150.257 -519.313)"/><path d="M271.518 641.72c-.709-.002-1.426.034-2.132.016-1.589.06-3.179.15-4.74.46-1.7.473-3.615.864-4.802 2.286-.934.97-1.236 2.611-.491 3.774.697.59 1.544 1.054 2.485 1.058 2.807.44 5.73.042 8.468.92.978.318 2.25.383 2.807 1.381-.24.854-1.035 1.334-1.825 1.596-1.407.472-2.862.799-4.326 1.012-.96.12-1.93.33-2.9.184-.878-.122-1.882-.088-2.561-.751-.313-1.119.895-1.874 1.886-1.703 1.647.361 3.16 1.308 4.879 1.334 1.038-.033 2.314-.294 2.853-1.288-.155-.26-.26-.573-.552-.706-1.02-.608-2.23-.71-3.36-.997-2.045-.242-4.45-.743-6.182.69-.84.548-1.105 1.63-1.058 2.577.499 1.562 1.933 2.567 3.328 3.283 1.585.606 3.287.906 4.986.829 2.101.126 4.24-.5 5.952-1.718 1.18-1.12 1.96-2.803 1.55-4.45-.111-1.341-1.15-2.345-2.24-3.006-2.632-1.218-5.587-.897-8.376-1.365-.868-.122-1.788-.087-2.562-.552.169-.287.305-.637.66-.737 1.968-.628 4.05-.56 6.09-.69 1.943-.18 3.941-.266 5.798-.92.564-.233.837-.868.675-1.442-.54-.662-1.425-.768-2.209-.905-.7-.135-1.392-.168-2.101-.169z" fill="url(#A)" transform="translate(-150.257 -519.313)"/><path d="M302.444 641.811c-2.734.3-5.507.342-8.207.89-.45.175-1.104.313-1.197.875.207 1.226 1.685 1.439 2.577 2.024-.02.746-.276 1.458-.613 2.117-.524.44-1.22.656-1.703 1.15-.34.422-.27 1.062.2 1.366-.416 1.167-.819 2.348-1.136 3.544-.32 2.052.866 4.438 2.992 4.94 2.926.235 5.652-1.117 8.068-2.624.435-.33 1.14-.768.86-1.411-.3-.81-1.175-1.433-2.056-1.32-1.897.136-3.715.856-5.63.783-.3-.703.055-1.425.184-2.117.113-.388.186-.877.599-1.058 1.81-.438 3.705-.033 5.522-.415.983-.443.737-2.327-.43-2.3-1.32.024-2.65 0-3.927-.384.04-.597-.016-1.227.246-1.78.204-.33.636-.345.982-.383 1.267-.062 2.515-.316 3.789-.292.787-.014 1.608-.04 2.347-.352.368-.16.666-.633.506-1.028-.783-1.396-2.376-2.298-3.973-2.225z" fill="url(#B)" transform="translate(-150.257 -519.313)"/><path d="M255.41 642.042c-.21.048-.42.089-.628.138-.954 1.198-.902 2.842-1.166 4.28-.244 1.253.02 2.53-.184 3.788.016 2.084-.21 4.214.383 6.244.053.5.468.833.767 1.197.834.18 2.04.54 2.547-.415.414-1.417.258-2.916.291-4.372-.082-2.507-.146-5.02-.414-7.516-.147-1.065-.332-2.165-.951-3.068-.218-.093-.432-.181-.644-.277z" fill="url(#C)" transform="translate(-150.257 -519.313)"/><path d="M221.11 645.877c.002 3.081 0 6.166.017 9.25a25.586 25.586 0 0 1-9.511-5.446c-.37-.426-.864-1.063-.476-1.626.728-.939 1.977-1.077 3.053-1.335 2.258-.612 4.62-.493 6.918-.843zm-6.934-22.136a37.208 37.208 0 0 0-2.915.107c-2.003.146-4.024.374-5.952.951-1.1.366-1.746 1.399-2.439 2.255-.348.717-.216 1.711.66 1.933.823.078 1.77.25 2.485-.276-.035-.133-.118-.39-.153-.522-.286-.177-.656-.29-.829-.598.054-.19.144-.362.261-.522 1.496-.364 3.039-.435 4.572-.506 5.972-.1 11.914 1.117 17.503 3.176 4.422 1.794 8.736 3.999 12.44 7.04 1.88 1.352 3.404 3.114 4.802 4.94.71 1.2 1.36 2.436 1.81 3.759.484 1.772.395 3.707-.353 5.4a15.632 15.632 0 0 1-1.61 2.147c-1.808 1.841-4.314 2.62-6.735 3.283-3.911.852-7.98.819-11.919.153-.038-1.18-.194-2.363-.077-3.543-.046-2.392-.202-4.77-.168-7.164 3.465-.058 7.054.247 10.262 1.656.302.18.722.302.813.69-.237.824-1.089 1.236-1.442 1.995.052.108.167.334.215.445.81.153 1.653.307 2.47.123 1.34-.713 2.536-2.179 2.163-3.79-.506-1.81-2.184-3.025-3.897-3.604-3.44-1.13-7.09-1.653-10.707-1.473-.102-.73-.052-1.477-.123-2.21-.317-1.785-.456-3.668-1.472-5.23-.435-.295-1.153-.332-1.35.26-1.032 2.348-1.02 4.984-1.166 7.502-2.94.462-5.863 1.197-8.514 2.577-1.163.828-2.843 1.534-3.007 3.145 0 1.305.924 2.327 1.718 3.267.901 1.136 2.032 2.064 3.1 3.038 1.963 1.613 4.24 2.763 6.503 3.896.05 1.33.343 2.956 1.703 3.56.763.097 1.678.207 2.24-.446.526-.381.616-1.042.767-1.626 5.602 1.376 11.658 1.252 17.043-.92 3.814-1.595 7.327-4.587 8.468-8.683.474-2.143.086-4.393-.706-6.412-.89-1.655-1.89-3.277-3.145-4.679-3.703-4.426-8.66-7.538-13.699-10.232-6.084-2.995-12.822-4.843-19.62-4.862z" fill="url(#D)" transform="translate(-150.257 -519.313)"/><path d="M319.717 646.275c.3.008.59.306.843.46.26 1.276.216 2.693-.536 3.805-1.325 2.16-3.77 3.668-6.32 3.728.867-1.629 1.953-3.128 2.945-4.68.84-1.13 1.547-2.437 2.761-3.22a.455.455 0 0 1 .307-.092zm-7.502-4.648c-.94.586-1.543 1.552-2.209 2.409-1.162 1.586-2.336 3.226-2.853 5.154-.586 1.957-.71 4.238.414 6.029-1.369 4.468-3.034 8.955-3.114 13.683.14 1.496 1.118 2.87 2.5 3.467.316.076.764.348 1.028.03.59-1.25.453-2.696.906-3.988 1.138-3.259 2.077-6.583 2.945-9.925 3.24.082 6.364-1.535 8.468-3.942 1.437-1.615 2.665-3.648 2.654-5.875-.043-1.578-.288-3.275-1.35-4.51-.69-.8-1.828-1.426-2.884-.982-2.017.805-3.402 2.525-4.986 3.927-1.353 1.43-2.6 2.966-3.881 4.464a24.8 24.8 0 0 1-.46-.86c.586-2.278 1.855-4.267 3.006-6.289.318-.51.582-1.103.522-1.718-.12-.41-.162-1.031-.706-1.074z" fill="url(#E)" transform="translate(-150.257 -519.313)"/><path d="M67.495 1.87C44.085 2.134 21.013 14.863 9.3 35.229c-5.448 9.337-8.155 20.337-7.384 31.198.578 14.876 8.73 28.894 20.398 37.828 4.438 3.428 9.38 6.242 14.619 8.16 1.188.936.312 2.59-.577 3.389-5.885 7.622-10.696 16.154-13.403 25.452-5.656 18.748-3.762 39.534 4.663 57.137 11.435 24.445 33.733 43.216 59.451 51.275 9.224 2.884 18.868 4.848 28.591 4.514 6.124-.032 12.3.24 18.336-.934 18.42-3.254 36.016-12.095 48.605-25.995 11.273-12.325 18.298-28.54 19.52-45.261 1.05-12.042-1.24-24.102-5.227-35.418.751-1.578 2.643-.823 3.929-.703 12.381 1.273 25.57-2.11 34.72-10.796 10.056-9.3 14.076-23.841 12.156-37.242-2.28-16.432-12.181-31.354-25.496-40.926-12.473-9.005-28.569-13.58-43.805-10.366-11.106 2.31-21.205 9.38-26.722 19.369-4.468 7.782-5.767 17.006-5.157 25.908-.05 1.092.634 3.255-1.033 1.963-8.581-3.808-17.7-6.164-26.925-7.859 7.432-12.015 10.872-26.907 7.812-40.898-3.287-15.73-14.364-29.392-28.762-36.424-9.266-4.682-19.739-6.9-30.114-6.73zm6.37 14.59c13.643-.085 27.51 5.457 36.378 15.95 9.514 10.96 13.07 26.491 9.885 40.6-1.302 6.176-3.665 12.127-6.881 17.543 15.434.694 30.509 6.088 43.036 15.063.811.53-.49-1.895-.37-2.404-.68-2.735-1.23-5.528-1.317-8.33-.964-12.2 3.534-24.946 12.639-33.24 8.995-8.453 22.128-11.975 34.252-9.708 16.686 2.885 31.072 15.18 37.252 30.83 5.09 12.458 4.765 27.338-2.03 39.082-5.5 9.763-15.496 16.727-26.496 18.712-9.523 1.882-19.402-.074-28.039-4.225-1.632-1.08-.112.98.032 1.747 6.168 14.515 7.616 31.006 3.944 46.366-4.29 18.766-16.135 35.51-32.177 46.088-15.272 10.27-34.145 15.001-52.49 13.106-25.807-2.31-50.177-18.038-62.212-41.046-8.662-16.23-11.225-35.755-6.552-53.61 2.406-9.62 6.564-19.173 13.906-26.026 1.264-1.35 2.89-2.653 3.928-4.054-2.26-1.182-4.248-2.973-6.488-4.27-7.044-4.556-14.27-9.36-18.814-16.6-9.153-13.973-9.918-32.722-2.837-47.757 8.162-17.965 25.995-31.242 45.68-33.44a61.498 61.498 0 0 1 5.771-.378z" fill-opacity=".267" fill="#fff"/><path d="M162.879 648.638l-4.986 46.956c45.964 29.477 189.345 35.974 199.837 27.98l8.498-48.459c-8.992 10.991-174.872-5.494-203.35-26.477zm1.058 4.602l2.07 1.288-1.196 3.866-2.055-1.304zm2.823 1.488l3.083 1.565-1.197 3.865-3.068-1.58zm3.789 1.703l3.16 1.227-.951 3.988-3.16-1.242zm4.34 1.702l3.192 1.09-.844 4.019-3.176-1.09zm4.495 1.534l3.207.998-.752 4.05-3.19-.998zm4.603 1.427l3.221.92-.675 4.05-3.221-.905zm4.663 1.32l3.221.858-.613 4.08-3.237-.858zm4.71 1.242l3.236.782-.583 4.096-3.252-.782zm4.74 1.15l3.236.752-.552 4.111-3.237-.751zm4.755 1.105l3.252.72-.521 4.112-3.237-.72zm4.786 1.058l3.252.66-.49 4.111-3.253-.66zm4.817.982l3.252.644-.46 4.112-3.252-.63zm4.801.951l3.283.63-.46 4.126-3.252-.63zm4.848.92l3.252.584-.414 4.126-3.268-.583zm4.832.89l3.268.568-.4 4.126-3.267-.567zm4.848.844l3.267.537-.383 4.127-3.268-.553zm4.863.798l3.267.521-.384 4.142-3.252-.521zm4.862.782l3.268.506-.368 4.142-3.268-.506zm4.863.752l3.268.506-.338 4.127-3.267-.491zm4.863.736l3.283.476-.338 4.142-3.282-.476zm4.894.706l3.267.46-.307 4.142-3.283-.46zm4.878.69l3.283.445-.323 4.142-3.282-.445zm4.878.66l3.283.445-.307 4.141-3.268-.414zm4.893.66l3.268.413-.276 4.158-3.283-.43zm4.863.613l3.268.414-.261 4.142-3.283-.414zm4.879.598l3.267.368-.246 4.158-3.282-.384zm4.862.568l3.283.337-.23 4.157-3.298-.368zm4.879.506l3.267.353-.2 4.157-3.298-.353zm4.862.506l3.283.322-.2 4.158-3.297-.323zm64.521.062l.614 4.08-3.222.752-.628-4.111zm-59.658.383l3.283.292-.184 4.157-3.283-.292zm4.848.43l3.283.26-.154 4.142-3.283-.23zm50.622.016l.445 4.127-3.267.49-.445-4.141zm-45.775.353l3.283.215-.123 4.157-3.298-.215zm41.327.215l.291 4.172-3.267.307-.307-4.142zm-36.495.107l3.299.17-.108 4.172-3.267-.185zm4.833.261l3.298.138-.077 4.173-3.283-.138zm27.06.017l.214 4.173-3.282.214-.2-4.172zm-22.244.184l3.283.108-.03 4.157-3.283-.092zm17.58.062l.123 4.157-3.283.107-.123-4.157zm-12.793.076l3.282.03.031 4.189-3.298-.03zm8.069.03l.046 4.173-3.283.031-.046-4.188zm-177.073 9.374l2.056 1.304-1.181 3.865-2.071-1.319zm2.823 1.503l3.068 1.565-1.196 3.866-3.068-1.58zm3.774 1.703l3.16 1.227-.936 3.989-3.16-1.243zm4.341 1.703l3.19 1.073-.828 4.035-3.19-1.105zm4.495 1.534l3.221.997-.752 4.05-3.206-.998zm4.602 1.426l3.221.905-.675 4.066-3.221-.906zm4.663 1.32l3.222.859-.614 4.065-3.237-.844zm4.71 1.242l3.236.782-.583 4.096-3.236-.782zm4.74 1.15l3.252.752-.552 4.111-3.252-.751zm4.77 1.105l3.237.706-.521 4.11-3.237-.705zm4.771 1.059l3.268.66-.491 4.11-3.252-.675zm4.833.981l3.252.645-.476 4.11-3.252-.628zm4.801.951l3.267.614-.46 4.142-3.252-.629zm4.832.92l3.252.584-.414 4.126-3.267-.583zm4.832.875l3.268.568-.399 4.126-3.267-.567zm4.863.844l3.268.552-.4 4.127-3.267-.553zm4.863.813l3.252.522-.368 4.141-3.267-.521zm4.848.767l3.267.506-.368 4.157-3.252-.506zm4.862.767l3.283.506-.353 4.127-3.267-.491zm4.879.736l3.267.46-.322 4.142-3.283-.46zm4.878.706l3.283.46-.323 4.142-3.282-.46zm4.893.69l3.268.445-.322 4.142-3.268-.445zm4.878.66l3.268.445-.292 4.142-3.282-.43zm4.879.66l3.282.398-.291 4.158-3.267-.415zm4.863.613l3.282.414-.276 4.127-3.267-.399zm4.893.598l3.268.369-.261 4.157-3.268-.384zm4.863.553l3.283.353-.246 4.157-3.283-.368zm4.878.521l3.268.338-.215 4.157-3.283-.338zm4.848.491l3.298.322-.215 4.157-3.283-.322zm64.536.062l.613 4.095-3.221.752-.644-4.111zm-59.674.398l3.283.292-.168 4.142-3.299-.276zm4.863.415l3.283.26-.169 4.158-3.283-.246zm50.623.016l.43 4.142-3.268.491-.43-4.142zm-45.79.368l3.282.215-.123 4.157-3.282-.23zm41.326.215l.307 4.173-3.283.307-.291-4.158zm-36.479.092l3.283.184-.092 4.173-3.283-.184zm4.832.276l3.283.138-.061 4.173-3.299-.138zm27.06.017l.2 4.172-3.268.2-.214-4.173zm-22.243.184l3.267.092-.016 4.172-3.298-.107zm17.564.061l.139 4.158-3.283.107-.138-4.157zm-12.793.077l3.298.03.017 4.189-3.283-.046zm8.069.03l.061 4.173-3.298.03-.046-4.187z" fill="url(#F)" transform="translate(-150.257 -519.313)"/><path d="M43.18 152.934c-4.86.208-7.347 4.826-7.87 11.658-.577 7.54 2.257 12.572 7.087 13.009 4.21.381 7.402-2.59 8.59-8.376l-5.829-1.902c-.561 3.037-1.587 4.552-2.776 4.264-1.37-.331-1.985-3.065-1.534-7.071.45-4.007 1.48-6.532 3.144-5.983 1.122.37 1.636 2.298 1.55 5.124l5.936 1.534c.296-6.865-2.06-11.546-6.719-12.18a8.829 8.829 0 0 0-1.58-.077z" fill="#6dc972"/><path d="M54.693 161.29l3.664.473-1.655 15.483-3.9-.945zM57.292 154.79a2.487 2.487 0 0 0-2.485 2.485 2.487 2.487 0 0 0 2.485 2.485 2.487 2.487 0 0 0 2.485-2.485 2.487 2.487 0 0 0-2.485-2.485z" fill="#c4eaec"/><path d="M61.787 162.123l-1.887 17.84 5.2 1.534c.31-2.148.978-14.594 4.25-13.714 3.271.88-.599 15.248-.599 15.248l5.676 1.427s.83-6.15 1.657-12.533c.827-6.383-1.413-8.274-5.078-9.22-1.672-.431-3.52.895-5.031 2.455l.184-1.979z" fill="#cfe464"/><path d="M86.3 164.684c-4.918.12-7.075 4.402-7.608 7.947-.569 3.78.532 8.432 6.029 10.047 4.274 1.257 7.333-1.485 8.759-4.617l-5.523-1.32c-.723 1.726-1.844 3.126-2.914 2.21-1.042-.892-1.224-2.658-1.028-4.403l10.032 1.918a9.58 9.58 0 0 0 .246-1.105c.59-3.934-1.335-10.157-6.98-10.646a9.044 9.044 0 0 0-1.012-.03zm.706 3.774c.182-.022.373.008.568.077 1.045.368 1.362 2.16 1.289 3.988l-4.25-.72c.517-1.634 1.33-3.211 2.393-3.345z" fill="#fdfdfc"/><path d="M98.527 165.789L95.52 183.43l5.768 1.166s1.324-8.476 1.826-10.984c.36-1.801 2.41-2.627 3.19-2.546 1.435.148 2 1.41 1.75 3.666-.252 2.257-1.918 10.37-1.918 10.37l5.599.92s.664-4.64 1.457-9.31c.341-2.01 1.613-3.65 3.559-2.977 1.363.472 2 1.425 1.749 3.682-.251 2.256-2.086 11.198-2.086 11.198l5.599.92s.914-6.863 1.917-11.627c1.003-4.764-.075-7.267-4.755-8.438-1.73-.432-3.769.783-5.507 2.286-.381-2.573-2.111-4.112-4.94-4.955-2.008-.598-4.456 1.159-6.366 3.022l.675-3.19z" fill="#c1e8e9"/><path d="M133.963 172.186c-3.356-.086-6.488 2.221-7.272 5.982l5.017.752s.743-3.263 2.331-2.761c1 .315 1.866.48 2.163 4.188-.612-.153-1.633-.137-3.405-.169-4.597-.084-6.94 2.34-7.609 5.6-.668 3.259 2.584 5.097 5.676 5.598 1.977.321 4.05-1.037 5.292-2.055-.031.659-.065 1.326-.107 2.055l4.096.17s.838-4.184 1.089-11.706c.25-7.521-3.838-7.274-6.596-7.608a6.988 6.988 0 0 0-.675-.046zm.399 10.646c.718-.025 1.413.077 1.948.184-.414 2.718-1.724 4.558-3.466 4.173-1.742-.384-2.138-.741-1.98-1.58.4-2.127 1.983-2.725 3.498-2.777z" fill="#fdfdfc"/><path d="M155.945 166.387l-1.672 4.495a7.572 7.572 0 0 0-2.424-.4c-4.2 0-7.608 3.394-7.608 7.594 0 2.499 1.222 4.703 3.083 6.09-1.632.8-2.63 2.361-2.838 4.45-.09.9.58 1.52 1.565 2.009-2.059.927-4.026 2.167-4.065 3.59-.084 3.008 2.081 3.846 4.003 4.264 1.923.418 5.936 1.5 9.864-1.258 3.928-2.758 2.185-6.019.43-8.192-1.755-2.173-7.026-1.582-7.026-2.669 0-.309.144-.66.337-1.012a7.55 7.55 0 0 0 2.255.337c4.2 0 7.61-3.408 7.61-7.609a7.56 7.56 0 0 0-2.64-5.737l3.222-3.958zm-3.712 7.686a1.1 1.1 0 0 1 .215 0c1.142.075 1.828 1.985 1.534 4.264-.295 2.28-1.45 4.079-2.593 4.004-1.142-.075-1.828-1.985-1.534-4.265.276-2.137 1.309-3.86 2.378-4.003zm-3.421 17.994c2.779-.014 4.878.798 4.54 2.147-.222.892-1.921 1.579-3.175 1.412-1.253-.168-2.872-.625-2.515-1.58.204-.55.579-1.063 1.15-1.98z" fill="#6dc972"/><path d="M162.43 178.146l3.762.18-1.459 14.361-3.596.025zM164.64 171.561a2.487 2.487 0 0 0-2.4 2.569 2.487 2.487 0 0 0 2.57 2.399 2.487 2.487 0 0 0 2.398-2.569 2.487 2.487 0 0 0-2.569-2.399z" fill="#d5e565"/><path d="M176.424 173.95c-3.562.09-7.103 3.97-8.222 9.296-1.235 5.877.938 11.28 4.848 12.073 3.836.778 7.916-3.181 9.234-8.882h-5.062c-.75 2.746-2.094 4.508-3.175 4.004-1.18-.55-1.58-3.57-.89-6.75.603-2.783 1.84-4.764 2.93-4.848a.864.864 0 0 1 .445.077c.859.4 1.3 2.13 1.212 4.265h4.955c.107-4.645-1.925-8.485-5.17-9.143a4.904 4.904 0 0 0-1.105-.092z" fill="#c1e8e9"/><g fill="#86d5d6"><path d="M359.386 428.476l-34.722 5.088-5.088 34.722-5.088-34.722-34.722-5.088 34.722-5.088 5.088-34.722 5.088 34.722z" filter="url(#G)" transform="matrix(.49089 0 0 .49089 -71.305 -126.473)"/><path d="M105.113 83.86L88.07 86.358l-2.498 17.045-2.498-17.045L66.03 83.86l17.044-2.497 2.498-17.045 2.498 17.045z"/></g><g fill="#fff"><path d="M359.386 428.476l-34.722 5.088-5.088 34.722-5.088-34.722-34.722-5.088 34.722-5.088 5.088-34.722 5.088 34.722z" filter="url(#G)" transform="translate(74.442 60.195) scale(.09728)"/><path d="M109.404 101.877l-3.378.495-.495 3.378-.495-3.378-3.378-.495 3.378-.495.495-3.377.495 3.377z"/></g><g fill="#6bc77b"><path d="M359.386 428.476l-34.722 5.088-5.088 34.722-5.088-34.722-34.722-5.088 34.722-5.088 5.088-34.722 5.088 34.722z" filter="url(#G)" transform="translate(109.591 -49.63) scale(.30124)"/><path d="M217.853 79.445l-10.46 1.532-1.532 10.46-1.533-10.46-10.46-1.532 10.46-1.533 1.533-10.46 1.532 10.46z"/></g><g fill="#d9f1f1"><path d="M359.386 428.476l-34.722 5.088-5.088 34.722-5.088-34.722-34.722-5.088 34.722-5.088 5.088-34.722 5.088 34.722z" filter="url(#G)" transform="matrix(.16169 0 0 .16169 170.793 41.076)"/><path d="M228.901 110.356l-5.614.823-.822 5.614-.823-5.614-5.614-.823 5.614-.823.823-5.614.822 5.614z"/></g><g fill="#fff"><path d="M359.386 428.476l-34.722 5.088-5.088 34.722-5.088-34.722-34.722-5.088 34.722-5.088 5.088-34.722 5.088 34.722z" filter="url(#G)" transform="translate(95.462 101.881) scale(.09728)"/><path d="M130.424 143.564l-3.378.495-.495 3.377-.495-3.377-3.378-.495 3.378-.495.495-3.378.495 3.378z"/></g></svg>