<svg xmlns="http://www.w3.org/2000/svg" width="954.405" height="415.705" viewBox="-194 188.147 954.405 415.705"><path d="M758.427 379.748c-6.611-34.1-39.258-50.31-54.066-54.141-16.395-4.241-34.115-2.955-49.685 3.723-7.562 3.247-17.63 8.957-23.755 14.44-6.504-6.227-20.994-14.775-37.522-14.775-14.46.685-73.635 7.554-88.853 15.618-8.33-14.733-21.376-31.161-37.211-32.363-7.422-.567-14.693 2.454-19.133 8.498-6.203 8.43-5.727 19.926-3.773 32.472-22.605-22.613-73.316-24.091-105.63-24.324-30.677-.217-70.744 7.705-82.055 13.898 5.794-3.456 27.93-16.32 41.687-35.168 13.924 2.196 29.843-5.225 37.807-16.745 8.664-12.546 9.073-29.433 2.154-42.855-5.711-11.077-16.17-19.483-28.148-22.855-12.881-3.623-27.188-1.061-37.614 7.462-1.52-14.266-11.73-26.42-24.868-31.695-14.082-5.651-30.868-3.581-42.873 5.785-6.477 5.059-11.453 12.087-13.681 20.034-2.596 9.266-1.27 19.399 3.48 27.755-.05.05-.1.1-.141.15-12.045 10.7-22.747 26.687-21.67 43.474-28.565-28.314-62.214-50.895-93.466-67.014-31.738-16.377-92.332-41.512-154.821-42.915-18.397-.417-59.317 1.286-77.932 6.87-39.692 11.912-43.566 40.769-39.292 53.29 4.775 14.032 21.203 19.533 42.263 15.894 7.796-1.344 15.935-7.854 17.764-18.014 30.685-1.786 66.02.735 99.869 9.884-7.821 20.843-12.847 48.015-15.618 79.025-17.13 3.698-37.755 9.617-53.532 17.338-14.1 6.895-29.6 16.862-35.076 32.405-5.876 16.678 3.84 32.98 14.174 45.544 10.902 13.255 37.563 38.072 73.758 55.518 1.485 8.99 5.568 27.599 24.64 33.767 13.124 4.24 29.91 1.252 39.46-12.596 12.046 2.77 34.35 4.224 47.88 4.356l.059 18.916c0 23.389 19.033 42.557 42.43 42.557h478.468c5.995 12.553 18.207 27.436 32.23 30.209 25.143 4.949 28.132-18.406 29.467-25.78 1.402-7.735 2.563-15.44 5.043-22.937l18.404-61.68c16.06-2.445 34.3-10 47.348-19.533 12.73-9.298 23.816-21.02 31.879-34.6 10.52-17.713 15.059-38.657 10.15-58.892z" fill="#0072aa"/><path d="M-83.884 206.417a246.25 246.25 0 0 0-6.45.094c-29.918.835-55.094 4.032-66.923 9.04-10 4.39-19.265 15.06-19.265 23.74-.192 8.298 9.548 9.025 15.408 8.976 5.918 0 11.286-.493 11.252-3.924 0-4.874-7.838-3.89-7.838-8.763 0-5.635 30.293-6.938 45.428-7.022 129.854-.358 279.405 89.576 279.63 165.873.192 59.282-76.996 72.574-119.543 72.707-15.117.024-29.784-1.552-43.732-4.222-.61-18.908-1.735-58.526-2.228-83.561 4.917-.058 9.49-.107 13.43-.107 31.543-.125 72.84 11.016 72.905 18.388 0 6.303-10.967 10.619-10.96 16.612.043 4.507 10.186 3.707 19.009 4.316 1.543.158 19.357-9.777 19.307-25.436-.067-20.77-26.26-45.12-114.21-45.12-.817-23.338-4.334-60.132-17.564-60.065-11.02.017-14.214 40.525-15.132 62.904-47.431 7.146-89.644 26.462-89.578 45.46 0 15.537 33.916 54.71 88.834 78.568.926 17.58 4.299 29.666 19.908 29.574 11.345 0 15.217-8.346 16.394-17.094a230.535 230.535 0 0 0 57.422 7.103c79.634-.25 143.577-42.798 143.377-101.13-.245-76.97-153.132-187.132-288.88-186.91zm314.899 7.055c-8.008.094-15.955 3.426-21 9.895-4.641 5.935-6.002 13.83-3.272 20.9 2.488 6.47 7.922 11.312 14.299 13.783-19.291 9.35-30.778 26.687-30.752 37.606.033 11.11 8.324 30.344 41.68 30.928 19.474.334 48.674-18.775 57.113-37.665 2.77 1.544 5.826 2.596 8.99 2.864 7.412 1.327 15.409-.51 21.11-5.551 5.568-4.908 8.422-12.295 7.947-19.658-.408-6.235-2.838-12.44-7.211-16.871-7.714-7.813-16.695-10.526-24.408-9.625a24.69 24.69 0 0 0-18.55 12.187c-1.761 3.047-2.622 6.555-2.763 10.06-.117-.016-.242-.044-.367-.06-4.916-4.76-12.086-10.032-22.521-10.642 3.974-4.29 6.352-10 6.06-15.918-.36-7.321-4.665-13.925-10.742-17.848-4.626-2.998-10.134-4.45-15.613-4.385zm234.716 117.04c-3.916 0-4.632 4.176-4.632 8.542.05 13.197 18.256 59.11 18.322 76.72 0 3.633-.285 10.184-3.123 10.962-4.415 1.26-42.497-68.31-58.397-69.47-16.33-1.151-24.977 68.284-24.902 85.388.032 17.095 3.014 28.564 15.719 28.53 18.857-.041 9.107-69.45 16.662-69.45 5.61 0 36.37 63.44 53.473 63.35 18.59-.032 29.459-27.197 29.443-44.776-.16-40.41-26.956-89.837-42.565-89.795zm193.905 13.495c-.752-.046-1.547.22-2.356.873-9.967 8.164-41.794 45.185-41.677 79.702 0 7.913 2.104 17.597 6.543 26.404-7.137 23.154-24.524 74.627-23.957 105.879.284 16.119 16.628 32.004 26.42 29.842 3.72-.808 4.542-21.954 9.449-36.327 6.887-20.637 17.898-58.31 21.728-74.42 43.192 3.03 87.416-41.245 87.322-76.955-.1-35.704-21.26-44.31-27.972-43.925-18.547 1.11-54.3 40.57-75.168 67.18-1.293-2.703-2.088-5.326-2.14-7.77-.032-11.261 21.199-44.942 25.146-53.373 3.494-7.445.722-16.857-3.338-17.11zm-428.57 2.776c-13.464.067-13.798 54.285-14.233 74.076-.976 45.203 5.753 50.593 17.764 50.527 10.786-.035 14.468-1.302 13.54-39.125-1.685-71.663-6.552-85.495-17.07-85.478zm114.298.46c-2.62-.012-5.11-.001-7.383.009-13.616.033-82.59 1.66-82.48 40.117.067 26.044 38.648 19.685 64.285 22.27 20.876 2.13 46.26 8.899 46.276 15.736.05 15.276-55.25 21.43-66.647 21.496-23.464.058-23.98-6.795-23.98-10.217 0-3.415 3.88-9.266 12.662-9.326 8.807 0 26.937 11.196 39.375 11.137 12.496-.06 22.88-5.584 22.847-11.168-.05-10.201-41.403-15.168-54.166-15.168-13.432.067-32.764 5.575-32.672 25.76.025 10.465 17.18 35.15 65.237 34.984 47.403-.12 59.365-27.047 59.332-40.938-.117-33.757-32.08-37.562-59.934-39.941-20.88-1.71-43.368-2.763-43.293-7.43.184-15.376 103.61-4 103.578-25-.066-10.978-24.7-12.23-43.037-12.32zm248.725.11a27.713 27.713 0 0 0-3.43.164c-31.76 3.456-73.04 3.273-72.99 13.649.017 9.758 19.324 13.646 19.818 16.31.49 2.713-2.5 12.806-3.617 15.91-1.17 3.423-14.906 4.458-15.826 13.975-.225 2.197 3.423 5.617 2.73 8.306-2.196 8.02-8.765 24.459-8.765 31.329.068 10.602 7.864 34.066 29.476 33.38 34.124-1.152 64.71-24.85 65.143-29.04.735-6.31-8.61-13.64-15.186-13.64-6.578 0-43.481 8.206-45.943 6.036-2.412-2.213 2.139-23.5 6.805-25.01 4.633-1.494 33.414-1.026 38.138-1.318 13.424-.743 10.893-18.857 2.588-19.524-4.157-.367-30.285-.426-31.78-2.84-1.394-2.378.443-14.464 3.397-15.683 5.927-2.463 45.597-3.567 48.577-4.3 4.916-1.253 8.546-3.873 9.765-8.071 1.143-3.922-11.986-19.405-28.9-19.633zm-626.135 33.07c-.267 21.353-.525 52.013-.467 72.555-47.146-16.628-79.183-43.071-79.216-51.853-.05-13.631 41.36-18.79 79.683-20.702zm391.092 110.393c-3.26-.051-6.073 2.333-6.473 5.62-.367 2.972-1.852 34.593-2.011 45.22-3.848-4.916-8.764-11.414-12.504-16.438-4.1-5.517-7.982-10.732-11.053-14.648-4.816-6.134-7.98-10.21-13.09-8.072-4.615 1.902-5.191 3.799-5.066 31.988.126 25.826.634 27.33.81 27.83.892 2.67 3.43 4.548 7.078 4.187 3.65-.357 5.668-4.015 5.342-6.945-.19-3.238-.522-21.485-.406-34.883a1818.397 1818.397 0 0 1 6.117 8.198c15.41 20.7 19.148 25.193 22.195 26.72 2.705 1.352 5.635 1.278 8.047-.19 5.19-3.18 5.268-12.212 5.36-23.19.166-10.777 1.636-36.02 1.886-38.231.435-3.506-2.07-6.695-5.576-7.121a6.615 6.615 0 0 0-.656-.045zM217.3 492.839a6.398 6.398 0 0 0-6.11 6.678l.9 20.135a1402.601 1402.601 0 0 0-18.03 5.252v-19.752a6.394 6.394 0 0 0-6.401-6.393 6.395 6.395 0 0 0-6.402 6.393v23.564a904.407 904.407 0 0 1-5.535 1.678 6.398 6.398 0 0 0-4.266 7.982 6.418 6.418 0 0 0 6.127 4.55 6.52 6.52 0 0 0 1.86-.276c.602-.184 1.22-.367 1.829-.55v11.868a6.407 6.407 0 0 0 6.403 6.412 6.407 6.407 0 0 0 6.402-6.412v-15.7c6.478-1.93 13.022-3.852 18.615-5.462l1.084 24.326a6.401 6.401 0 0 0 6.395 6.12h.293a6.401 6.401 0 0 0 6.11-6.678l-1.22-27.274c5.686-.885 8.007-3.705 7.69-7.828-.26-3.523-3.807-5.902-7.287-5.367-.258.033-.61.1-1.002.184l-.777-17.346c-.16-3.524-3.173-6.23-6.678-6.104zm47.967.04c-.214-.001-.424.005-.635.01-4.291.159-8.082.327-18.475 39.909a585.119 585.119 0 0 0-5.56 2.147 6.4 6.4 0 0 0-3.621 8.297c.935 2.389 3.146 3.848 5.533 4.008-.735 3.004-1.496 6.124-2.28 9.466-.818 3.445 1.52 7.31 5.495 7.795 3.414.418 6.259-1.895 6.96-4.842a820.774 820.774 0 0 1 4.292-17.261c6.837-2.562 15.435-5.703 22.447-7.99a1001.69 1001.69 0 0 1 12.205 23.6 6.397 6.397 0 0 0 8.588 2.862c3.155-1.578 4.432-5.425 2.855-8.605-4.524-9.051-8.456-16.697-11.886-23.2a6.387 6.387 0 0 0 .675-4.816c-.71-2.763-3.13-4.615-5.836-4.775-13.828-25.104-17.56-26.593-20.757-26.606zm157.125 2.085a6.583 6.583 0 0 0-.655.036 6.41 6.41 0 0 0-5.675 7.054c1.127 10.39 2.998 28.29 4.033 39.567-2.022-1.836-4.05-3.774-5.428-5.092l-.936-.9c-2.536-2.43-6.878-7.032-11.068-11.471-16.362-17.347-18.072-19.173-22.88-17.73-5.843 1.753-5.592 5.884-4.257 28.775.633 11.04 1.487 22.02 1.487 22.02a6.399 6.399 0 0 0 6.377 5.91 6.393 6.393 0 0 0 6.386-6.895c-.77-10.026-1.477-20.843-1.87-29.05 1.902 1.987 3.805 4.016 5.45 5.75 4.5 4.777 8.757 9.275 11.536 11.939l.935.892c10.627 10.158 16.922 15.795 23.164 12.965 1.48-.658 4.876-2.83 4.625-8.508-.308-7.637-4.646-47.837-4.822-49.54-.352-3.304-3.156-5.733-6.402-5.722zm92.22 1.305c-3.507 0-6.403 2.99-6.345 6.522.284 15.2.802 44.568.802 46.93 0 9.724 7.573 13.212 15.643 11.759 7.128-1.283 24.992-4.016 42.69-2.168 3.515.398 6.652-2.19 7.01-5.713a6.39 6.39 0 0 0-5.7-7.02c-19.05-1.993-38.366.954-46.145 2.28-.267.05-.492.084-.7.107-.067-6.52-.76-44.7-.794-46.412-.066-3.498-2.98-6.285-6.46-6.285zm-371.904 1.815c-.624-.004-1.272.02-1.945.074-8.824.7-21.79 3.897-43.936 22.435-9.783 8.19-13.456 16.197-10.926 23.785 3.105 9.3 15.119 13.63 23.534 13.63 12.805 0 47.154-1.694 56.453-4.85 3.347-1.142 5.15-4.765 4.006-8.121-1.135-3.348-4.766-5.133-8.122-4.008-7.505 2.547-44.167 4.633-53.457 4.156-4.358-.234-9.54-2.685-10.267-4.865-.401-1.176.633-4.592 6.994-9.916 19.375-16.22 29.808-18.933 36.728-19.492 1.504-.125 2.28.108 2.532.25a6.413 6.413 0 0 0 7.412 4.273 6.4 6.4 0 0 0 4.933-7.588c-.728-3.49-4.581-9.708-13.94-9.763zm346.014 1.44a6.39 6.39 0 0 0-1.274.087c-2.346.234-20.576 1.35-28.424 1.193-7.738-.134-12.254-.068-15.4 3.022-1.142 1.119-2.494 3.08-2.494 6.11 0 .2.75 12.028 2.11 23.632 0 .099-.024.19-.024.283.01.575.116 1.11.258 1.637 1.127 9.148 2.646 17.754 4.474 19.9 2.088 2.42 7.147 3.657 13.758 3.022 13.782-1.318 27.564 0 33.957-4.291 2.906-1.953 3.732-6.32 1.994-9.39-1.734-3.071-4.7-2.956-8.162-2.296-15.11 2.865-25.751 4.217-31.52 3.666-.292-1.562-1.011-7.671-1.337-10.11 9.357-.367 19.984-.884 28.783-2.603 3.465-.686 5.407-3.49 5.324-6.22-.11-3.54-3.348-6.36-6.178-5.883-5.852.992-18.997 1.943-29.423 2.328-.568-5.243-.68-6.69-.954-10.01 1.73-.05 3.69.002 4.584.018 5.158.076 29.408-.796 31.844-1.647a6.408 6.408 0 0 0 3.926-8.164 6.39 6.39 0 0 0-5.822-4.283z" fill="#fff"/><path d="M236.05 270.538c-20.183 3.355-32.931 15.176-29.791 24.525 7.545-9.007 18.789-18.081 29.792-24.525zm40.82 12.22c0-2.403-1.37-8.647-9.257-8.631-12.063.05-36.588 21.67-46.763 33.13 3.748 1.153 8.214 1.829 13.523 1.829 12.813-.025 42.513-11.886 42.497-26.327zm-15.81 244.49a503.8 503.8 0 0 1 12.129-4.25c-2.68-4.808-5.117-9.007-7.112-12.194-1.453 4.205-3.181 9.94-5.017 16.445zm456.097-146.715c-8.39-.167-31.17 35.777-46.762 62.865 22.889.4 54.977-21.595 54.876-48.09-.034-8.84-2.254-14.701-8.114-14.775z" fill="#0072aa"/></svg>