<?xml version="1.0" encoding="UTF-8"?>
<svg width="800" height="283.13" version="1.1" xmlns="http://www.w3.org/2000/svg">
	<g fill="#fbf6fc">
		<path d="m487.89 87.085 4e-3 0.22496c2.8852-0.05084 6.4278 2.2189 10.084 6.1972 3.6557 3.9784 7.426 9.6404 10.834 16.281 6.8164 13.281 12.133 30.477 12.336 45.962 0.0784 6.7467-1.8861 15.367-5.6923 22.297-3.8064 6.9299-9.2183 12.147-16.246 12.238-3.16 0.0421-7.1292-2.9052-11.302-7.4225-4.1732-4.5174-8.6138-10.571-12.726-16.631-4.1119-6.0607-8.0532-12.129-11.136-16.684-1.5416-2.2776-2.9463-4.3337-4.0569-5.6706-0.55528-0.66843-1.0493-1.197-1.4847-1.5654-0.43535-0.36835-0.80851-0.59555-1.1857-0.59194-0.45049 4e-3 -0.83494 0.27986-1.1234 0.71116-0.28844 0.43129-0.51023 1.028-0.69561 1.7758-0.37082 1.4955-0.58695 3.7542-0.72992 6.2708-0.2859 5.0333-0.27086 11.723-0.52637 18.411-0.25553 6.6882-0.78366 13.376-2.1409 18.373-0.6786 2.4986-1.5663 4.5725-2.7109 6.0096-1.1446 1.4371-2.526 2.2402-4.2652 2.2568v8.7e-4c-4.8348 0.0723-7.8092-2.0628-9.6558-5.8624-1.8466-3.7995-2.5164-9.2821-2.5811-15.798v-8.8e-4c-0.0976-6.5451 1.405-23.236 4.4988-38.147 1.5469-7.4556 3.4927-14.471 5.8246-19.55 1.166-2.5398 2.4294-4.5944 3.772-5.9743 1.3426-1.3799 2.745-2.0803 4.234-1.98 1.4426 0.0943 3.2143 0.98644 5.1871 2.5036 1.9728 1.5171 4.2527 3.6504 6.5329 6.1889 4.5604 5.077 9.5472 11.772 14.259 18.414 4.7122 6.6418 9.2027 13.23 12.677 18.099 1.7371 2.4345 3.2324 4.438 4.4063 5.8105 0.58696 0.68625 1.092 1.2149 1.518 1.5654 0.21295 0.17524 0.40596 0.25423 0.58974 0.33843 0.18375 0.0842 0.52693 0.12672 0.70875 0.0726l4e-3 -8.7e-4 3e-3 -8.8e-4c0.62275-0.20758 0.93027-0.65265 1.2729-1.2973 0.34262-0.64471 0.57367-1.4422 0.73403-2.2983 0.32074-1.7121 0.25023-3.6612 0.2365-5.0454-0.0682-6.8605-3.7369-19.009-7.3933-30.759-1.8282-5.8751-3.6547-11.645-5.0293-16.581-1.3747-4.9368-2.2935-9.0515-2.3184-11.562-0.0163-1.6614 0.1148-3.2769 0.59909-4.4463 0.48426-1.1694 1.2663-1.8918 2.6891-1.9054z"/>
		<path d="m585.96 99.796v0.0017c-0.83938-0.0061-3.0692 0.0355-3.9298 0.13495-3.2411 0.49619-6.1439 0.77035-8.7425 1.1455-10.813 1.5609-16.362 2.1373-19.112 2.2584-3.2966 0.42326-9.0779 0.90582-13.82 1.4824-3.074 0.51336-7.7148 1.1492-10.666 3.2068-0.86088 0.73881-1.3045 1.5518-1.2952 2.4709 0.0173 1.7836 0.91495 3.2979 2.2844 4.6126 1.3709 1.3159 2.8463 2.3274 4.7233 3.2286 1.7259 0.82864 2.6603 0.90734 4.16 1.4404 0.74943 0.2664 2.7114 0.85241 3.1938 1.1059 0.41809 0.21961 0.7661 0.53835 0.84306 0.93745v4e-3c0.11566 0.56294-0.0101 2.3191-0.17281 3.3664-0.1631 1.0456-0.42603 2.2726-0.72839 3.5136-0.60396 2.4789-1.3607 5.0037-1.7853 6.2258v5e-3c-0.25442 0.77875-1.1003 1.2858-2.2292 1.8534-1.1209 0.56346-2.5237 1.1379-3.9144 1.8534-1.3891 0.71468-2.7488 1.5523-3.8089 2.6549-1.06 1.1026-1.8161 2.4803-1.9683 4.2241v5e-3c-0.0294 0.39362 0.13027 0.81473 0.35502 1.3055 0.22476 0.49074 0.52906 1.0389 0.84506 1.6009 0.62801 1.1168 1.2441 2.2898 0.99947 3.4359l6e-3 -0.0112-6e-3 0.0215v9e-3l-5e-3 0.0225v-9e-3c-0.80957 3.0492-2.4298 7.6995-3.8437 12.239-1.4152 4.5437-2.6154 8.9793-2.5874 11.503v0.00375c0.0393 3.9704 1.5822 10.4 5.1359 15.714 3.5525 5.3122 9.0884 9.5141 17.169 9.1342 12.888-0.51804 25.066-5.3359 34.064-10.423 4.4991-2.5438 8.2025-5.1552 10.8-7.3247 1.2985-1.0848 2.2684-2.0598 2.9725-2.8563 0.35568-0.40241 0.62004-0.77182 0.80114-1.0652 0.0904-0.14669 0.16039-0.27458 0.21067-0.38028 0.0499-0.10571 0.084-0.16571 0.0982-0.28624v-4e-3c0.23354-2.2642-1.3739-4.7622-3.6861-6.6909-2.3136-1.9299-5.254-3.3701-7.6674-3.3468-1.2036 0.0116-3.6736 0.42376-7.0156 1.0131-3.3416 0.58923-7.3545 1.3541-11.271 2.0671-3.9166 0.71292-7.6322 1.5843-10.595 1.9666-1.2904 0.16648-2.6954 0.47085-3.6587 0.49382-0.48175 0.0114-1.1486-2e-3 -1.4739-0.0461-0.3408-0.0458-0.65126-0.13781-0.84761-0.30899l-0.0121-0.0116c-0.31708-0.29149-0.49382-0.94546-0.57858-1.5792-0.0843-0.62771-0.041-1.4111 0.0127-2.3063 0.10542-1.7901 0.45895-4.0162 0.9801-6.2248 0.52109-2.2085 1.2094-4.3966 1.9909-6.1143 0.79667-1.6449 2.2098-3.8432 3.4343-4.123 1.0423-0.21609 3.3366-0.11907 4.7277-0.12101 2.9016-4e-3 5.7749 0.0419 8.9468-0.0353 6.3429-0.15445 12.697-0.20285 14.411-0.32611 2.4933-0.16558 4.2127-1.1254 5.3148-2.4699 1.1036-1.3462 1.5938-3.0918 1.5796-4.8396-0.014-1.7484-0.53359-3.4919-1.4272-4.816-0.89149-1.3211-2.1465-2.2192-3.6462-2.3278l-5e-3 -8.7e-4h-0.0104c-1.5679-0.13052-7.2501-0.0361-12.729-0.26372-2.7404-0.1138-5.5456-0.10381-7.6173-0.35199-1.4905-0.13457-2.9342-0.10602-4.0289-1.0236-0.39631-0.68635-0.20192-1.2879-0.12078-2.6217 0.09-1.1109 0.32759-2.8398 0.56102-4.1688 2.4834-8.4684 2.0828-6.8328 5.1044-7.3909 3.4904-0.38198 12.39-0.81941 16.567-1.1074 5.3807-0.36932 10.374 0.24945 15.344-0.55736 0.69534-0.056 1.338-0.23205 2.0113-0.34528 3.6888-1.0061 6.1627-2.5063 7.0102-5.6242 0.0383-0.5949-0.0628-1.5293-0.22724-1.9582-0.24984-0.64025-0.51603-1.3919-1.0947-2.2041-1.1571-1.6241-2.9325-3.4839-5.1706-5.1922-3.912-2.9859-9.2279-5.3467-15.139-5.4004v-8.74e-4c0-1.7e-5 -5e-3 1.8e-5 -8e-3 0-5e-3 -2.6e-5 -8e-3 -0.0017-0.0104-0.0017z"/>
		<path d="m635.54 97.245c-0.45753 0.06129-0.93487 0.28225-1.4203 0.69064-4.9224 4.1756-17.026 18.228-24.477 34.888-3.8056 8.509-6.2008 16.977-6.0444 25.836 0.0147 5.9093 1.671 12.546 5.09 19.455-2.5687 8.7277-7.0902 23.565-10.502 36.489-4.3109 16.328-7.6266 33.221-7.2851 45.967 0.21797 7.3449 4.6575 14.171 9.8044 18.739 3.5118 2.8793 8.1282 4.1453 10.18 3.7518 1.1242-0.28072 2.1338-2.8551 2.8662-6.7597 1.0998-5.864 2.1565-14.326 4.3655-20.908 4.9567-15.676 13.407-46.22 16.24-58.768 1.2464 0.10634 2.4419 0.11191 3.8082 0.0985 19.74-0.4461 39.905-13.464 52.117-31.37 5.6894-8.3419 9.0351-17.678 9.1333-26.757-0.33072-24.194-11.898-31.068-17.917-33.177-1.943-0.68149-3.7588-0.39521-5.5949 0.11391-3.951 1.1627-8.2881 3.6986-12.745 7.2092-8.8609 6.9802-15.46 14.069-23.123 22.461-2.8689 3.1419-5.6213 6.3411-8.2261 9.4935-3.5182 4.2579-6.7667 8.2762-9.669 12.11 0 0-2.2422-1.174-2.2423-5.714-0.0179-1.3012 0.12919-2.9358 0.68967-4.8684 0.87467-3.0163 2.3843-6.6653 4.3142-10.519 3.3066-7.0546 7.5358-14.711 10.531-20.141 1.2941-2.3457 2.2694-4.2788 2.819-5.5108 3.0268-5.5916 0.71541-13.271-2.7133-12.811zm44.398 23.734c6.2986-0.0456 9.05 5.5395 9.2596 13.146 0.15076 5.47-0.72634 10.808-3.5548 15.954-3.2962 5.9961-7.1252 10.592-11.849 14.162-4.0401 3.0536-8.0838 5.6266-12.425 7.4719-4.728 2.0094-9.3004 3.4828-15.931 3.4512-0.79733-9e-3 -4.2208-0.29955-4.6672-0.65062l1.8328-3.7375c0.68092-1.3881 1.6453-3.0021 3.1032-5.5682 4.869-8.2643 9.9351-16.941 16.586-26.95 6.3867-8.8342 13.002-17.302 17.646-17.277z"/>
		<path d="m74.259 0.02653c-3.6008-0.031046-7.0676-0.057643-10.33 0.05952-13.908 0.54077-26.387 1.8307-35.99 3.5384-4.8018 0.85388-9.1358 1.8932-12.245 2.9709-5.1983 1.501-13.258 7.7084-15.336 14.698-0.95531 5.0477-0.032442 6.2629 3.1843 7.5417 1.7386 0.67705 4.7275 0.67607 6.8839 0.62907l0.01026-1e-3h0.01026c2.1579-0.02146 4.2749-0.2076 5.5272-0.56544 0.62614-0.17892 1.02-0.56586 1.1596-0.69783 0.21038-0.37165 0.09565-0.58408-0.19601-0.93693-0.30516-0.26253-0.94246-0.6716-1.7189-1.0006-0.67729-0.28695-1.8673-0.77632-2.702-1.5219-0.83475-0.74556-1.2744-1.7569-1.2879-3.1638-0.01265-1.3225 1.0044-2.3114 1.9016-2.9175 0.89714-0.60616 2.5292-1.2834 3.7939-1.6676 2.5295-0.76843 5.2749-1.2767 8.9342-1.7045 7.3033-0.70511 14.193-1.0106 21.228-1.0919 49.822-0.6682 104.73 16.226 146.06 40.314 41.14 23.978 69.948 56.254 70.313 85.167 0.30003 23.38-15.187 38.059-34.179 46.577-18.989 8.5167-40.947 11.317-57.322 11.48-11.667 0.17474-24.546-1.0651-35.258-3.0499l-1.3608-0.25143-0.0646-1.3823c-0.49547-15.794-1.6354-44.465-2.1807-63.567l-0.0503-1.7518 1.7528-0.0441c3.7172-0.0919 7.324-0.25246 10.322-0.25246h3e-3c13.595 0 29.802 2.4276 37.682 4.539 5.502 1.4743 10.513 2.9765 14.028 4.6005 1.7575 0.81202 3.1987 1.6323 4.306 2.545 1.1073 0.91273 2.0387 2.2245 2.0606 3.7426 0.0799 3.0193-2.995 5.8678-4.7021 7.4821-0.91219 0.89078-1.8577 1.8029-2.5183 2.6035-1.3037 1.35-1.4328 2.572-0.3171 2.9309 0.49581 0.24598 1.0271 0.32739 2.3151 0.46692 4.0262 0.24165 7.0617 0.59661 9.393 0.44846 2.328-0.25823 4.8085-2.8469 6.849-4.7452 1.7286-1.6863 3.1725-3.2108 4.3737-5.5231 2.5922-4.4898 2.5603-10.432-0.33455-15.446-2.3166-4.7088-6.7061-8.8037-14.79-13.198-7.5002-3.7312-18.438-6.8078-32.279-8.7074-9.52-1.3066-20.915-1.69-34.156-1.9714-1.5927-3e-3 -3.1854-4e-3 -4.7781-7e-3l-0.0719-1.6892c-0.37743-8.8528-0.49819-17.805-3.2131-28.967-1.0902-4.482-2.3875-8.4028-3.9376-11.01-1.5488-2.6053-3.1739-3.7232-4.9248-3.7046-0.50266 0.0084-0.9937 0.11859-1.6307 0.77992-0.63787 0.66228-1.271 1.8512-1.9098 3.3208-1.2777 2.9393-2.341 7.2465-3.1515 12.097-1.621 9.701-2.2955 21.711-2.5676 30.117l-0.0472 1.5383-1.4163 0.23298c-17.887 2.9339-34.106 8.1088-46.355 14.289-6.1245 3.0901-11.139 6.4871-14.474 9.8229-3.3345 3.3358-4.854 6.7162-4.854 9.2503v8e-3c0.02225 2.3249 1.1244 5.9633 4.148 10.524 3.0236 4.5605 7.4792 10.04 13.295 15.502 11.631 10.924 28.49 22.63 49.246 31.399l0.99234 0.41973 0.0698 1.0755c0.43159 6.6289 0.59081 12.651 3.1844 17.155 1.7374 2.7202 4.6924 5.3047 10.214 5.2193h0.01c3.9027-0.0388 6.7346-1.7595 8.3339-3.8196 2.164-3.2136 2.8178-7.3885 2.7821-11.341l1.9026 0.4659c13.409 3.2831 28.887 5.2155 44.266 5.0079 28.847-0.35043 54.359-7.6702 76.341-22.474 20.727-15.273 30.385-34.034 30.068-53.847-0.34055-28.618-29.001-63.611-73.228-92.209-39.967-25.843-89.619-45.188-141.07-46.334zm36.371 128.97-9e-3 2.2238c-0.0193 16.023-0.0122 38.633 0.17549 54.023l-7e-3 2.585c-0.91865-0.16174-1.8378-0.39267-2.7564-0.62906-17.768-6.1444-32.515-14.12-43.122-21.453-5.351-3.6995-9.5409-7.2298-12.51-10.333-2.9687-3.1032-4.8295-5.928-4.8848-8.649-0.07632-3.7579 2.6928-5.935 6.304-7.9573 3.6113-2.0222 8.3024-3.4402 14.081-4.7534 11.419-2.5952 26.045-4.1083 40.366-4.9936z"/>
		<path d="m390.81 101.99c6.8917-0.0749 16.448-0.19318 24.272 0.87735 3.9124 0.53527 7.3918 1.3707 9.8743 2.6392 2.4824 1.2684 3.9486 2.9307 3.9706 5.1846 0.0186 1.8896-1.1241 3.4257-3.2223 4.7302s-5.1376 2.3447-8.7989 3.1833c-7.3225 1.6772-24.619 2.6101-34.435 3.3584-9.8157 0.74827-12.379 1.5552-19.539 2.5261-3.694 0.58033-6.7773 1.3466-8.9614 2.2942-1.0921 0.4738-1.9613 1.0061-2.568 1.6233-0.60625 0.61665-0.94777 1.3303-0.94973 2.1195v8.8e-4 8.7e-4c-4e-3 0.52525 0.32071 0.9846 0.84747 1.3604 0.52746 0.37624 1.271 0.69525 2.2051 0.98231 1.8682 0.57412 4.5004 1.0141 7.6283 1.3838 6.2559 0.73935 14.489 1.1385 22.431 1.74 10.591 0.8069 21.949 1.8919 30.665 5.9295 8.7157 4.0376 14.747 10.978 14.901 23.642 0.15318 10.339-8.4537 30.791-44.349 31.304-18.203 0.25783-30.673-4.2441-38.493-9.7803-7.8204-5.5362-11.086-12.237-11.124-16.076v-8.8e-4c-0.11377-7.5531 3.4245-12.348 8.2754-15.319 4.8504-2.9699 11.025-4.0855 16.107-4.1707 4.8368-0.0471 15.123 0.77976 24.181 2.5852 4.5292 0.90271 8.7549 2.0511 11.834 3.4473 1.5396 0.69808 2.7912 1.459 3.6486 2.2683 0.85729 0.80929 1.3151 1.6531 1.3239 2.5485 0.0192 1.9775-1.8497 4.0441-4.9469 5.6269-3.0967 1.5826-7.3828 2.6713-12.052 2.7564-4.6946 0.0572-10.512-1.9826-15.979-4.0393-5.4669-2.0566-10.568-4.1346-13.989-4.0892-6.8048 0.0668-9.8444 4.5756-9.8171 7.3775 0.013 1.326 0.20362 3.4432 2.6082 5.064 2.4046 1.6208 6.9048 2.9305 15.853 2.791 4.3397-0.0424 17.021-1.4212 28.593-4.1372 5.7861-1.3581 11.354-3.1273 15.436-5.2433 2.0409-1.058 3.6727-2.2153 4.8524-3.4901 1.1796-1.2748 1.8559-2.6784 1.8411-4.1942v-6e-3c-0.0226-0.71092-0.37398-1.4003-0.97015-2.0574-0.59619-0.65705-1.4411-1.2901-2.4923-1.9055-2.1025-1.2309-5.034-2.3883-8.4523-3.4289-6.8364-2.0812-15.619-3.6914-23.546-4.398-9.7713-0.8844-21.965-0.0544-31.717-1.4551-4.8762-0.7004-9.0825-1.9592-12.119-4.239-3.0364-2.2798-4.8721-5.5666-4.9305-10.428-0.0838-7.2221 3.0846-12.771 8.072-16.999 4.9874-4.2275 11.747-7.2199 18.901-9.257 14.307-4.0738 29.969-4.5401 35.132-4.6324z"/>
		<path d="m309.02 102.28c-10.063 0.21009-9.8609 41.701-10.004 56.728-0.34242 34.208 4.7188 38.16 13.739 38.072 8.0612-0.0784 10.801-1.0937 9.8302-29.726-1.7972-54.367-5.6486-65.151-13.565-65.074"/>
	</g>
	<g fill="#41caff">
		<path d="m329.31 14.942c-3.86 0.16886-8.1697 0.58729-11.309 1.4336-2.1501 0.51681-4.3168 1.1725-7.5799 2.0678-3.9823 1.2082-7.9138 2.8047-11.524 4.6641-5.3846 2.7732-10.132 6.2998-14.358 10.406-4.836 4.4085-9.417 11.334-10.962 19.362-1.5448 6.9261-0.58391 11.638 1.184 15.638 2.7362 5.6695 5.7836 8.1241 5.7836 8.1241-0.26431 1.6067-0.32911 3.6061-0.26066 5.2994 0.1334 3.8805 1.028 7.2368 3.9731 9.8162 2.0459 1.7757 4.196 1.6323 6.3967 0.08515 1.908-1.4044 4.0539-3.9265 5.5922-6.066 4.1333 1.1239 11.832 1.5219 11.832 1.5219 3.1907 0.02848 8.2646-0.15999 13.231-1.0591 10.073-2.3096 17.791-6.4099 27.356-12.721 4.4673-3.0503 8.9553-7.5866 12.627-12.232 4.5776-5.3154 7.8026-13.129 8.2289-21.029 0.21189-7.0836-2.9063-10.461-5.5214-12.736-2.8166-2.3802-7.6239-4.4894-14.975-5.3004-0.90484-0.16489-2.2634-0.17343-2.2634-0.17343s-1.0329-1.2633-1.7509-1.9016c-4.0026-3.6208-8.0517-4.5692-9.3893-4.7575-2.1941-0.34098-4.137-0.44042-6.3106-0.44127zm-12.547 15.901c-4.1134 2.5124-7.5949 5.1956-10.622 7.9397-5.4738 5.0018-9.593 10.08-13.115 15.262-1.6083 2.3666-3.2712 4.934-4.4633 7.2869-0.57004-0.49084-1.4523-1.3407-1.9086-2.0031-2.3-2.8205-1.4252-6.4387-0.35588-9.1929 1.0465-2.2178 2.2907-4.1217 3.6419-5.8483 4.6322-6.2202 10.074-11.115 18.726-12.822 1.8511-0.41602 3.2048-0.53238 4.8906-0.6343 0.97801-0.03467 2.2618-0.03684 3.2052 0.01208zm29.023 5.2966 0.77583 0.0072c4.6897 0.03116 8.6139 2.0863 9.4056 6.262 0.58556 3.3004-0.24511 6.3869-2.2198 9.2072-5.7605 9.1732-16.801 14.833-34.009 18.398-5.9174 0.98491-12.128 1.5208-16.47-0.1785 0.81235-2.1157 1.7146-4.1388 3.7184-7.2872 1.7666-2.3718 3.5272-4.6771 5.3844-6.8151 7.7423-8.974 15.091-14.382 21.326-17.139 3.7653-1.4959 7.9077-2.4303 12.089-2.4547z"/>
		<path d="m338.7 213.32c-1.4715 0.0156-2.6293 0.40194-3.4444 1.1933-0.58093 0.64093-1.1809 1.4061-1.8576 2.6766-2.0116 3.776-4.5884 11.303-8.4201 26.277l-0.0164 0.0647-0.0636 0.0247c-1.1899 0.46393-2.1744 0.85429-2.8929 1.1381s-1.155 0.4564-1.3002 0.5008l0.0102-4e-3c-2.4339 0.95086-3.5852 3.6961-2.6292 6.0814v8.8e-4c0.69344 1.7542 2.3178 2.8212 4.1038 2.9288l0.15599 9e-3 -0.0359 0.15291c-0.53817 2.2678-1.1233 4.6309-1.683 7.1609v8.8e-4c-0.58985 2.5274 1.1618 5.3583 4.1018 5.6945 2.5409 0.29149 4.6109-1.4096 5.1105-3.5897 0.9817-4.2448 2.0336-8.7069 3.1597-13.05l0.0173-0.0657 0.0626-0.0236c5.1472-1.9793 11.618-4.3747 16.938-6.1388l0.10465-0.0349 0.0523 0.0965c3.105 5.7402 6.382 11.937 9.3673 17.775v8.8e-4c1.1914 2.3152 4.0104 3.2592 6.3246 2.0514v-8.7e-4c2.3145-1.161 3.2552-4.0002 2.0883-6.3143-3.5217-6.7485-6.5294-12.512-9.1692-17.434l-0.0349-0.0646 0.0369-0.0626c0.60161-1.033 0.78089-2.2738 0.46589-3.5415-0.53012-2.0321-2.4286-3.3602-4.4035-3.5138l-0.0687-6e-3 -0.0339-0.0585c-5.6265-9.5422-9.0106-14.543-11.28-17.144-1.1347-1.3004-1.9894-1.9982-2.7-2.3685-0.71054-0.37027-1.4682-0.42007-2.0682-0.41357zm1.0256 13.113 0.1447 0.2309c1.584 2.5134 3.5264 5.8534 5.6975 9.6198l0.0801 0.13956-0.15292 0.0513c-3.0919 1.0235-6.3856 2.1984-9.5777 3.3988l-0.24221 0.0903 0.0698-0.24835c1.4249-5.1462 2.7276-9.6878 3.8904-13.025z"/>
		<path d="m244.59 218.38c4.0414-0.33342 6.8664 0.77484 8.7618 2.3062 1.8955 1.5314 2.8611 3.4956 3.1536 4.8609 0.55837 2.558-1.0395 5.0762-3.5682 5.63-2.3902 0.50651-4.7438-0.86761-5.4862-3.0918l-0.0164-0.0484-0.0451-0.0247c-0.24873-0.13648-0.83029-0.32681-2.0032-0.22269h-8.7e-4c-5.2741 0.4409-13.177 2.5781-27.749 14.95-2.3908 2.0347-3.7796 3.704-4.5369 4.9867-0.75727 1.2827-0.89498 2.1749-0.72449 2.6887v8.7e-4c0.30847 0.90511 1.4576 1.775 2.936 2.4681s3.2959 1.1947 4.9689 1.2712c3.5252 0.15067 12.211-0.1993 20.734-0.83094 4.2615-0.31582 8.4807-0.70159 11.989-1.132s6.2996-0.90178 7.7377-1.4011c2.4569-0.85903 5.1382 0.44095 6.0003 2.8784h-8.7e-4c0.86286 2.4858-0.45279 5.1658-2.9093 6.0012-3.4575 1.1997-11.715 2.1747-20.291 2.8454-8.5767 0.67069-17.491 1.045-22.316 1.0712-3.1585 0.0171-7.0098-0.77283-10.363-2.4423-3.3529-1.6695-6.2028-4.2138-7.3949-7.7002-0.96239-2.8472-0.7652-5.7631 0.58699-8.7559 1.3522-2.9928 3.8641-6.0588 7.5304-9.1713 16.607-14.123 26.357-16.572 33.007-17.137z"/>
		<path d="m302.58 213.81c2.5723-0.12164 4.7826 1.84 4.9186 4.4353l0.6814 13.266 0.16523-0.0574c0.27109-0.0936 0.52267-0.11903 0.74092-0.14572l6e-3 -8.7e-4c2.5455-0.42532 5.1752 1.2761 5.404 3.8832 0.11708 1.5338-0.24174 2.8035-1.1504 3.7878-0.90908 0.9847-2.3822 1.6894-4.5123 2.0463l-0.11595 0.0195 1.0703 20.655c0.136 2.5953-1.8564 4.7897-4.4528 4.9351-0.069 6.5e-4 -0.11699 8.7e-4 -0.21037 2e-3 -2.5029 0.0273-4.5948-1.8879-4.7308-4.4127v-8.8e-4l-0.96055-18.518-0.16008 0.0483c-4.1968 1.2476-9.1368 2.7435-14.005 4.2629l-0.0934 0.0288 0.0882 11.945c0.0189 2.5719-2.0697 4.723-4.6652 4.7514-2.6201 0.0286-4.713-2.075-4.7319-4.6477l-0.0677-9.1415-0.16831 0.0533c-0.47953 0.14942-0.95874 0.29847-1.3885 0.42279l-4e-3 8.8e-4 -4e-3 2e-3c-0.46105 0.16685-0.92564 0.21808-1.3484 0.2227-2.0352 0.0221-3.8892-1.2399-4.5123-3.2685v-0.00175c-0.79044-2.4952 0.59061-5.1019 3.0653-5.9018 0.88894-0.2746 2.351-0.74619 4.1726-1.3187l0.0924-0.0297-0.13136-17.856c-0.0192-2.6212 2.0681-4.723 4.6652-4.7514 2.6209-0.0286 4.7128 2.0504 4.7319 4.6477l0.11083 15.051 0.16829-0.0512c4.5322-1.3714 9.3992-2.8664 13.594-4.0895l0.0995-0.0288-0.79019-15.309c-0.13574-2.5703 1.8577-4.7896 4.4281-4.9351z"/>
		<path d="m410.57 211c2.5871 0.29135 4.4637 2.6515 4.1346 5.2614v8.8e-4c-0.0529 0.42916-0.14858 1.9231-0.2658 4.0772s-0.255 4.9571-0.38791 7.9634c-0.26583 6.0127-0.51202 12.838-0.53568 16.922v8.7e-4c0 4.1518 3e-3 7.938-0.47923 10.974-0.48292 3.0364-1.4473 5.3074-3.3568 6.4836-1.7873 1.0972-3.9295 1.1806-5.9798 0.17137-2.2482-1.095-5.089-4.4728-16.938-20.096v-8.7e-4c-1.4418-1.9234-3.0792-4.0866-4.6672-6.1778l-0.23605-0.31095v0.38997c-5e-3 10.165 0.36012 23.956 0.5285 26.437v5e-3c0.11497 1.0754-0.18577 2.2937-0.85279 3.2726-0.66683 0.97868-1.6925 1.7185-3.0386 1.8667-2.6987 0.27521-4.5735-1.0986-5.2737-3.0694-1.6e-4 -3.3e-4 0-6.5e-4 0-8.8e-4 -0.0261-0.0941-0.0639-0.21255-0.11804-0.66602-0.0549-0.45979-0.12218-1.2479-0.19497-2.6353-0.14554-2.7749-0.31218-7.9504-0.44846-17.725-0.1444-10.68-0.11592-16.384 0.38279-19.574 0.24935-1.5952 0.60183-2.5661 1.1217-3.2028 0.45609-0.55872 1.2888-1.0597 2.034-1.3546v-8.7e-4c1.7739-0.51196 3.3846-0.47415 4.9074 0.6496 1.5227 1.1237 3.0481 3.0456 4.892 5.365v8.7e-4c2.366 2.9292 5.3471 6.8708 8.4991 11.03 2.8835 3.7987 6.646 8.7034 9.5777 12.382l0.23194 0.29042 4e-3 -0.37149c0.0241-4.0027 0.27242-12.001 0.54494-19.276 0.13623-3.6378 0.27862-7.0948 0.40226-9.7829 0.12365-2.6882 0.22981-4.6164 0.28939-5.1619 0.28221-2.5858 2.6111-4.4048 5.2255-4.1367z"/>
		<path d="m457.85 213.53c2.6029-0.27404 4.9528 1.6007 5.2204 4.1962l0.26166-0.0134-0.26166 0.0143c0.14864 1.3028 3.5405 31.903 3.8257 37.696 0.0911 2.1465-0.42876 3.5226-1.1021 4.4332-0.67283 0.90993-1.5034 1.3583-2.0627 1.6255-3e-4 1.4e-4 0-1.5e-4 0 0v8.7e-4c-2.053 0.93999-4.3031 0.59517-7.0737-0.95437-2.7712-1.5499-6.0432-4.3071-10.077-8.1512v-8.7e-4l-0.70089-0.67525c-2.1008-2.0238-5.822-5.7867-9.2555-9.3817-1.2333-1.3031-2.787-2.9506-4.2145-4.4474l-0.24423-0.25552 0.0183 0.35301c0.31236 6.2357 0.99915 14.364 1.6058 22.028 0.21441 3.2417-1.7011 5.2012-4.6929 5.2438-2.4371 0.0133-4.5065-1.8088-4.7278-4.2875v-2e-3c-1.6e-4 -2e-3 -0.65759-8.365-1.1945-16.754-0.53829-8.7072-1.0311-13.931-0.72627-17.041 0.15236-1.5552 0.4729-2.5961 1.0118-3.327 0.53812-0.72977 1.4205-1.0855 2.4986-1.4205 0.72411-0.19391 1.7747-0.12382 2.2023-9e-3 0.81296 0.21782 1.758 0.75566 3.0089 1.7179 2.5018 1.9244 6.2031 5.6011 12.418 12.177v8.7e-4c3.2194 3.3816 6.318 6.3544 8.2528 8.1882v-8.7e-4l0.69988 0.67525c1.0416 1.0151 2.5659 2.4384 4.1141 3.838l0.25038 0.22576-0.0316-0.33557c-0.80297-8.5859-2.2748-22.188-3.1474-30.093v-8.7e-4c-0.31471-2.6205 1.5499-4.9646 4.1274-5.2624z"/>
		<path d="m509.36 216.45c1.6179 0.28873 3.0188 1.4194 3.6154 3.0588 0.86757 2.4677-0.40831 5.1536-2.8816 6.0384-0.20055 0.0723-0.69319 0.16004-1.3782 0.24368-0.685 0.0837-1.5706 0.16806-2.5943 0.24985-2.0473 0.16357-4.6481 0.31916-7.3138 0.45445-5.3302 0.27052-10.924 0.45798-12.881 0.45651-0.68281-0.0206-2.1615-0.0366-3.4984-5e-3l-0.14162 3e-3 0.0134 0.14085c0.23676 2.5139 0.33864 3.6099 0.80457 7.5982l0.0134 0.12132 0.12212-5e-3c7.9311-0.33319 17.915-1.0688 22.391-1.8703l-3e-3 8.8e-4c2.0575-0.33425 4.4943 1.717 4.5605 4.3214v4e-3c0.10871 2.0127-1.3025 4.0904-3.8842 4.601-6.6689 1.3392-14.741 1.7773-21.867 2.08l-0.14469 6e-3 0.0205 0.14395c0.25566 1.834 0.84859 6.4808 1.0796 7.6855l0.0196 0.0977 0.0985 8e-3c4.4266 0.39044 12.517-0.64825 23.999-2.9118 1.3145-0.26003 2.5242-0.41367 3.5538-0.22826 1.0296 0.18542 1.8814 0.69613 2.5276 1.8003 1.2914 2.2778 0.71831 5.5248-1.411 6.9669-2.3837 1.6174-6.2059 2.2066-10.741 2.5118-4.5355 0.30525-9.7823 0.33386-15.025 0.87086-5.0178 0.50843-8.8206-0.40599-10.38-2.1736-0.66337-0.75424-1.3389-2.7873-1.9303-5.4832-0.5914-2.696-1.1184-6.0647-1.568-9.5424v-8e-3c-0.0764-0.39078-0.17246-0.79242-0.1755-1.2081 0-0.0727 0-0.12046-3e-3 -0.21695v-0.015c-0.54136-4.3963-0.974-8.8425-1.2715-12.207-0.14874-1.6825-0.26391-3.0947-0.34172-4.0952-0.0388-0.50024-0.0683-0.89753-0.0883-1.1742-0.0101-0.13833-0.0176-0.24724-0.0225-0.32285-5e-3 -0.0756-7e-3 -0.13331-7e-3 -0.1203-0.0163-2.2329 0.99432-3.7266 1.8174-4.5342v-8.7e-4c1.1697-1.1575 2.5934-1.7514 4.4692-2.0522 1.8758-0.30081 4.1984-0.30291 7.1322-0.2704 5.9828 0.0889 19.846-0.83051 21.639-1.0117l5e-3 -8.7e-4 5e-3 -8.8e-4c0.56569-0.1031 1.1293-0.10035 1.6686-4e-3z"/>
		<path d="m528.11 213.6c2.5618-0.0139 4.7439 2.0145 4.7935 4.5933v4e-3c0.0147 0.30674 0.0678 2.371 0.13955 5.3497 0.0717 2.9786 0.16247 6.8815 0.25454 10.898 0.18414 8.0337 0.37245 16.523 0.42171 18.981l5e-3 0.1796 0.17044-0.0574c0.12769-0.0434 0.28798-0.0684 0.50281-0.0934h5e-3l5e-3 -8.8e-4c5.8766-1.0437 20.645-3.398 35.075-1.9837 2.5871 0.2441 4.5122 2.555 4.2568 5.1362v8.7e-4c-0.23206 2.5816-2.5359 4.4924-5.1229 4.2249-13.459-1.3036-26.967 0.84563-32.346 1.84-3.0353 0.55417-5.9689 0.18458-8.144-1.2232-2.1754-1.408-3.6078-3.8504-3.6452-7.5047-0.0183-1.7802-0.65652-24.038-0.99132-35.536-0.0735-2.6024 2.0425-4.7948 4.6241-4.8088z"/>
		<path d="m690.19 198.06c-1.6952 0-3.0599 1.3647-3.0599 3.0599v59.712c0 1.6952 1.3647 3.0599 3.0599 3.0599h106.75c1.6952 0 3.0599-1.3647 3.0599-3.0599v-59.712c0-1.6952-1.3647-3.0599-3.0599-3.0599zm8.9715 8.4678h14.864v18.587h11.468v-18.587h14.936v48.559h-14.866v-18.221h-11.466v18.221h-14.936zm49.338 0h21.872c3.8696 0 7.4086 0.96802 10.618 2.9028 3.2562 1.8876 5.8288 4.4586 7.7164 7.7147 1.9348 3.209 2.9028 6.7496 2.9028 10.619v6.0874c0 3.8696-0.96801 7.4331-2.9028 10.689-1.8876 3.209-4.4603 5.7799-7.7164 7.7147-3.209 1.8876-6.7479 2.8311-10.618 2.8311h-21.872zm15.006 11.043v26.262h5.4505c1.982 0 3.6568-0.68395 5.0253-2.0525 1.3685-1.3685 2.0542-3.045 2.0542-5.027v-12.103c0-1.982-0.68566-3.6585-2.0542-5.027-1.3685-1.3685-3.0433-2.0525-5.0253-2.0525z"/>
	</g>
</svg>
