<?xml version="1.0" encoding="UTF-8"?>
<svg width="800" height="90.971" version="1.1" xmlns="http://www.w3.org/2000/svg">
	<path d="m0 0v90.971h90.971v-90.971z" fill="#ff6400"/>
	<path d="m98.795 0v90.971h701.21v-90.971z" fill="#ff6400"/>
	<path d="m74.597 40.391h-54.584v11.826h54.584zm-54.584-6.0042h49.489v-7.6417h-49.489zm0-12.918h35.843v-5.0945h-35.843zm46.032 36.57h-46.032v6.9139h46.032zm-10.189 16.557h-35.843v-4.3667h35.843z" fill="#fff"/>
	<path d="m765.26 35.843h7.0959v5.8223c2.0014-3.8208 4.7306-6.1861 10.007-6.1861v6.55c-6.1861 0-10.007 2.0014-10.007 8.5514v15.829h-7.0959zm-36.388 19.65v-19.65h7.0958v18.74c0 4.5487 2.0014 6.732 6.0042 6.732 3.8208 0 7.0958-2.5472 7.0958-7.2778v-18.194h7.0959v30.566h-7.0959v-4.7306c-1.4555 2.9111-4.7306 5.4584-9.643 5.4584-6.0042-0.18194-10.553-3.6388-10.553-11.644zm-20.014 2.3652v-16.739h-4.1848v-5.2764h4.1848v-6.732h7.0959v6.732h6.732v5.2764h-6.732v16.011c0 2.7291 1.2736 4.0027 3.4569 4.0027 1.4555 0 2.5472-0.18194 3.4569-0.54584v5.6403c-1.0916 0.36388-2.5472 0.72778-4.7306 0.72778-6.1861 0-9.2791-3.275-9.2791-9.0972zm-16.739-36.207h7.0958v44.759h-7.0958zm-36.57 33.841v-19.65h7.0958v18.74c0 4.5487 2.0014 6.732 6.0042 6.732 3.8208 0 7.0958-2.5472 7.0958-7.2778v-18.194h7.0959v30.566h-7.0959v-4.7306c-1.4555 2.9111-4.7306 5.4584-9.643 5.4584-6.0042-0.18194-10.553-3.6388-10.553-11.644zm-36.207-30.93h7.8236v18.922l16.011-19.104h8.3695l-17.285 20.014 18.194 21.833h-9.0972l-16.011-19.468v19.468h-7.8236v-41.666zm-46.214-2.9111h7.0958v27.655l10.917-13.464h7.6417l-11.826 14.01 12.918 16.557h-8.1875l-11.462-15.101v15.101h-7.0958zm-36.207 14.191h7.0959v4.9125c1.4555-2.9111 4.9125-5.4584 9.825-5.4584 6.1861 0 10.553 3.6388 10.553 12.008v19.286h-7.0959v-18.74c0-4.5487-1.8194-6.732-6.0042-6.732-4.0028 0-7.2778 2.3652-7.2778 7.2778v18.012h-7.0959zm-36.388 19.65v-19.65h7.0959v18.74c0 4.5487 2.0014 6.732 6.0042 6.732 3.8208 0 7.0959-2.3652 7.0959-7.2778v-18.194h7.0959v30.566h-7.0959v-4.7306c-1.4555 2.9111-4.7306 5.4584-9.643 5.4584-6.0042-0.18194-10.553-3.6388-10.553-11.644zm-19.832-14.373h-4.1848v-5.2764h4.1848v-4.1848c0-6.732 3.8208-10.371 10.371-10.371 1.6375 0 2.7291 0.18194 4.0028 0.54584v5.4584c-0.72778-0.36388-2.0014-0.54584-3.275-0.54584-2.9111 0-4.0028 1.8194-4.0028 4.5487v4.3667h6.9139v5.2764h-6.9139v25.29h-7.0959zm-17.103 10.189v-0.54584c0-6.732-3.093-10.007-8.1875-10.007-5.2764 0-8.1875 3.6388-8.1875 10.189v0.54584c0 6.732 3.4569 10.007 8.0056 10.007 4.7306-0.18194 8.3694-3.4569 8.3694-10.189zm-23.834 0.36388v-0.54584c0-9.825 5.8223-16.011 13.828-16.011 4.9125 0 8.0056 2.3652 9.825 5.2764v-18.74h7.0959v44.759h-7.0959v-5.0945c-1.6375 3.093-5.6403 5.8223-10.007 5.8223-7.8236-0.18194-13.646-5.6403-13.646-15.465zm-34.023-15.829h7.0959v4.9125c1.4555-2.9111 4.9125-5.4584 9.825-5.4584 6.1861 0 10.553 3.6388 10.553 12.008v19.286h-7.0959v-18.74c0-4.5487-1.8194-6.732-6.0042-6.732-4.0028 0-7.2778 2.3652-7.2778 7.2778v18.012h-7.0959zm-16.011 15.465v-0.54584c0-6.732-3.093-10.007-7.8236-10.007-4.9125 0-8.0056 3.6388-8.0056 10.189v0.54584c0 6.732 3.4569 10.007 7.6417 10.007 4.5487-0.18194 8.1875-3.4569 8.1875-10.189zm-23.107 0.36388v-0.54584c0-9.825 6.1861-16.011 13.464-16.011 4.7306 0 7.6417 2.1833 9.4611 5.2764v-4.5487h7.0959v30.566h-7.0959v-5.0945c-1.6375 2.9111-5.4584 5.6403-9.643 5.6403-7.2778 0-13.282-5.4584-13.282-15.283zm-14.373-30.02h7.0959v44.759h-7.0959zm-36.206 0h7.0959v19.104c1.4555-2.9111 4.9125-5.4584 9.825-5.4584 6.1861 0 10.553 3.6388 10.553 12.008v19.286h-7.0959v-18.74c0-4.5487-1.8194-6.732-6.0042-6.732-4.0028 0-7.2778 2.3652-7.2778 7.2778v18.012h-7.0959zm-36.388 29.839v-0.54584c0-9.643 6.9139-15.829 15.465-15.829 6.732 0 13.1 3.093 14.01 11.462h-6.9139c-0.54584-4.1848-3.275-5.8223-7.0959-5.8223-4.9125 0-8.3694 3.8208-8.3694 10.007v0.54584c0 6.732 3.275 10.189 8.5514 10.189 3.8208 0 6.9139-2.1833 7.4597-6.55h6.55c-0.54584 7.0958-5.8223 12.008-14.192 12.008-8.7333 0-15.465-5.6403-15.465-15.465zm-29.839 5.4584h6.732c0.36388 3.093 2.0014 4.9125 6.0042 4.9125 3.8208 0 5.4584-1.2736 5.4584-4.0027 0-2.5472-2.0014-3.4569-6.55-4.1848-8.0056-1.2736-11.098-3.6388-11.098-9.2792 0-6.1861 5.8223-9.2792 11.462-9.2792 6.1861 0 11.28 2.3652 12.008 9.2792h-6.3681c-0.54582-2.7291-2.1833-4.1848-5.4584-4.1848-3.093 0-4.9125 1.4555-4.9125 3.6388s1.4555 3.093 6.3681 4.0027c7.2778 1.0917 11.462 2.9111 11.462 9.2792 0 6.1861-4.3666 9.825-12.19 9.825-8.0055 0-12.554-3.6388-12.918-10.007zm-17.83 0.90972v-16.739h-4.1848v-5.2764h4.1848v-6.732h7.0958v6.732h6.732v5.2764h-6.732v16.011c0 2.7291 1.2736 4.0027 3.457 4.0027 1.4555 0 2.5472-0.18194 3.4569-0.54584v5.6403c-1.0916 0.36388-2.5472 0.72778-4.7306 0.72778-6.1861 0-9.2791-3.275-9.2791-9.0972zm-37.298-2.3652v-19.65h7.0959v18.74c0 4.5487 2.0014 6.732 6.0042 6.732 3.8208 0 7.0959-2.3652 7.0959-7.2778v-18.194h7.0958v30.566h-7.0958v-4.7306c-1.4555 2.9111-4.7306 5.4584-9.643 5.4584-6.0042-0.18194-10.553-3.6388-10.553-11.644zm-13.646-7.6417c-0.36388-5.2764-3.093-7.6417-7.4597-7.6417-4.1848 0-7.0959 2.9111-7.8236 7.6417zm-22.561 3.6388v-0.54584c0-9.4611 6.55-15.829 15.283-15.829 7.6417 0 14.373 4.5487 14.373 15.465v2.0014h-22.379c0.18196 5.8223 3.093 9.0972 8.3695 9.0972 4.1848 0 6.55-1.6375 7.0958-4.7306h6.9139c-0.90972 6.3681-6.1861 10.007-14.01 10.007-9.0972 0-15.647-5.8223-15.647-15.465zm-27.473 8.7333c9.2791 0 13.828-5.4584 13.828-14.555v-0.54584c0-9.0972-4.1848-14.373-14.01-14.373h-4.5487v29.475zm-12.372-35.661h12.736c14.555 0 21.651 8.3694 21.651 20.559v0.54584c0 12.19-7.0959 20.923-21.833 20.923h-12.554z" fill="#fff"/>
</svg>
