<?xml version="1.0" encoding="UTF-8"?>
<svg width="800" height="93.471" version="1.1" xmlns="http://www.w3.org/2000/svg">
	<path d="m0 0h93.471v93.471h-93.471zm101.42 0h698.58v93.471h-698.58z" fill="#4ac96f"/>
	<path d="m57.732 76.619h-36.948v-4.4261h36.948zm10.364-17.072h-47.313v7.1203h47.258zm-47.313-37.553h36.948v-5.1684h-36.948zm0 13.278h50.887v-7.7801h-50.887zm56.192 6.1031h-56.192v12.069h56.192zm45.223-16.137h13.031c14.983 0 22.268 8.5498 22.268 21.058v0.43986c0 12.509-7.2852 21.416-22.378 21.416h-12.893zm12.646 36.701c9.622 0 14.268-5.4983 14.268-15.038v-0.46735c0-9.2646-4.2062-14.873-14.323-14.873h-4.6186v30.378zm28.151-9.0722v-0.46735a15.285 15.285 0 0 1 14.268-16.22h1.4296c7.835 0 14.873 4.646 14.873 15.89v2.0893h-22.983c0.24743 5.9656 3.244 9.3196 8.6323 9.3196 4.3986 0 6.6804-1.7594 7.2302-4.811h6.9278c-0.93471 6.5979-6.433 10.199-14.433 10.199a15.065 15.065 0 0 1-15.918-14.131 10.612 10.612 0 0 1 0-1.8694m23.258-3.6014c-0.35739-5.4983-3.134-7.8351-7.6426-7.8351a8.0825 8.0825 0 0 0-8.055 7.8076zm14.021 7.6976v-20.179h7.2852v19.244c0 4.756 1.9794 6.9278 6.1856 6.9278a7.0378 7.0378 0 0 0 7.3402-6.6529v-0.87972-18.694h7.0653v31.505h-7.1478v-5.0034a10.667 10.667 0 0 1-9.9794 5.4983c-6.1856 0-10.832-3.5464-10.832-11.904m38.158 2.5292v-17.1h-4.1512v-5.4983h4.2062v-6.9003h7.2852v6.9278h6.9278v5.4983h-6.9278v16.495c0 2.7491 1.3196 4.0412 3.6014 4.0412a9.3471 9.3471 0 0 0 3.6014-0.60481v5.7732a14.46 14.46 0 0 1-4.9484 0.79725c-6.268 0-9.512-3.3814-9.512-9.3196m18.502-1.0172h6.9553c0.35738 3.189 1.9794 5.0584 6.2406 5.0584 4.2612 0 5.4983-1.3746 5.4983-4.0412 0-2.6667-2.0894-3.5464-6.7079-4.3436-8.2474-1.3196-11.381-3.6564-11.381-9.567 0-6.323 5.9106-9.457 11.794-9.457 6.4055 0 11.519 2.4192 12.316 9.512h-6.7629a4.8385 4.8385 0 0 0-5.4983-4.2062c-3.134 0-5.0034 1.512-5.0034 3.7388 0 2.2268 1.512 3.189 6.4605 4.0137 7.3952 1.1546 11.794 2.9416 11.794 9.622 0 6.6804-4.4261 9.9519-12.454 9.9519s-12.866-3.7388-13.168-10.419m30.598-5.4983v-0.46735a15.505 15.505 0 0 1 14.763-16.192h1.2096c6.9828 0 13.498 3.134 14.351 11.794h-7.3127a6.5155 6.5155 0 0 0-6.9553-5.9931h-0.27492c-5.0034 0-8.5498 3.8488-8.5498 10.337v0.46735c0 6.8454 3.3814 10.474 8.7148 10.474a7.1753 7.1753 0 0 0 7.5876-6.7354h6.6529c-0.54983 7.2302-5.9931 12.344-14.543 12.344a15.065 15.065 0 0 1-15.89-14.131q0-0.90722 0-1.8144m37.388-30.653h7.2852v19.519a10.832 10.832 0 0 1 10.172-5.6632c6.323 0 10.777 3.6838 10.777 12.344v19.794h-7.2852v-19.244c0-4.756-1.9244-6.9278-6.2406-6.9278a6.9828 6.9828 0 0 0-7.3952 6.543 5.4983 5.4983 0 0 0 0 0.9622v18.529h-7.2852zm37.361 0h7.2577v45.993h-7.2577zm14.653 30.79v-0.46735c0-10.034 6.323-16.495 13.911-16.495a10.584 10.584 0 0 1 9.7045 5.4983v-4.7835h7.2852v31.45h-7.2852v-5.0034a12.014 12.014 0 0 1-10.007 5.7732c-7.3402 0-13.608-5.4983-13.608-15.835m23.835-0.35739v-0.57732c0-6.9828-3.244-10.337-8.2474-10.337s-8.2474 3.7388-8.2474 10.529v0.46735c0 6.9278 3.4914 10.227 7.89 10.227 4.3986 0 8.4948-3.3814 8.4948-10.419m16.275-15.89h7.2852v4.9759a10.832 10.832 0 0 1 10.172-5.6632c6.323 0 10.777 3.6838 10.777 12.344v19.794h-7.2852v-19.244c0-4.756-1.9244-6.9278-6.268-6.9278a6.9828 6.9828 0 0 0-7.3952 6.543 5.4983 5.4983 0 0 0 0 0.9622v18.529h-7.2852zm35.134 16.247v-0.46735c0-10.034 5.9107-16.495 14.103-16.495a10.777 10.777 0 0 1 10.062 5.4983v-19.244h7.2852v45.883h-7.2302v-5.2784a12.096 12.096 0 0 1-10.364 5.7732c-7.89 0-13.746-5.4983-13.746-15.835m24.385-0.35739v-0.30241c0-6.9278-3.189-10.337-8.4948-10.337s-8.4674 3.7388-8.4674 10.529v0.46735c0 6.9278 3.4914 10.227 8.2474 10.227 4.756 0 8.7972-3.3814 8.7972-10.419m17.567-10.419h-4.2612v-5.4983h4.2612v-4.2062c0-6.9278 3.8488-10.612 10.557-10.612a11.711 11.711 0 0 1 4.1512 0.60481v5.4983a10.254 10.254 0 0 0-3.299-0.54983c-2.9141 0-4.1237 1.9244-4.1237 4.6186v4.5086h7.2302v5.4983h-7.1203v25.979h-7.2852zm20.454 14.68v-20.179h7.2852v19.244c0 4.756 1.9794 6.9278 6.1856 6.9278a7.0103 7.0103 0 0 0 7.3402-6.6529 4.701 4.701 0 0 0 0-0.87972v-18.694h7.2852v31.505h-7.2852v-5.0034a10.639 10.639 0 0 1-9.9794 5.4983c-6.1856 0-10.832-3.5464-10.832-11.904m37.278-20.151h7.2852v5.1134a10.832 10.832 0 0 1 10.172-5.6632c6.323 0 10.749 3.6838 10.749 12.344v19.794h-7.2852v-19.244c0-4.756-1.9244-6.9278-6.268-6.9278a6.9828 6.9828 0 0 0-7.3952 6.543 5.4983 5.4983 0 0 0 0 0.9622v18.529h-7.2852zm37.196-14.68h7.2852v28.619l11.216-13.746h7.945l-12.206 14.433 13.251 17.017h-8.4124l-11.766-15.478v15.478h-7.2852zm47.615 2.9966h9.4296l18.117 31.093v-30.845h7.2852v42.997h-8.2474l-19.244-32.99v32.99h-7.2577zm42.062 27.491v-0.24742a16.148 16.148 0 1 1 32.247-1.7594 14.131 14.131 0 0 1 0 1.8694v0.46735a16.138 16.138 0 0 1-32.275 0.19244m24.742-0.65979c0-6.488-3.244-10.474-8.6598-10.474-5.4158 0-8.6873 3.9038-8.6873 10.419v0.46735c0 6.433 3.189 10.474 8.6873 10.474s8.6598-3.9313 8.6598-10.364zm10.392-15.423h7.8076l8.2474 24 8.2474-24h7.1478l-11.354 31.478h-8.4948zm34.392 16.247v-0.46735c0-10.034 6.323-16.495 13.883-16.495a10.557 10.557 0 0 1 9.677 5.4983v-4.921h7.2852v31.45h-7.2852v-5.0034a12.041 12.041 0 0 1-9.9794 5.7732c-7.3402 0-13.608-5.4983-13.608-15.835m23.808-0.93471c0-6.9828-3.244-10.337-8.2474-10.337-5.0034 0-8.2474 3.7388-8.2474 10.529v0.49484c0 6.9003 3.4914 10.227 7.89 10.227 4.3986 0 8.6048-3.3814 8.6048-10.419z" fill="#fff"/>
</svg>
