<?xml version="1.0" encoding="UTF-8"?>
<svg width="800" height="117.93" version="1.1" xmlns="http://www.w3.org/2000/svg">
	<path d="m-2.0152e-6 117.93h117.94v-117.92h-117.94z" fill="#198aff"/>
	<path d="m127.96 117.93h672.04v-117.93h-672.04z" fill="#198aff"/>
	<path d="m96.71 52.248h-70.76v15.217h70.76zm-70.76-7.6864h64.088v-9.8075h-64.088zm0-16.778h46.534v-6.5599h-46.534zm59.606 47.375h-59.606v8.9837h59.606zm-13.077 21.55h-46.529v-5.6064h46.531z" fill="#fff"/>
	<path d="m746.28 28.052h9.1826v35.807l14.188-17.453h10.009l-15.397 18.21 16.69 21.472h-10.62l-14.869-19.5v19.5h-9.1826zm-46.89 18.363h9.1826v6.2983a13.66 13.66 0 0 1 12.821-7.1351c7.9632 0 13.574 4.6313 13.574 15.554v24.964h-9.1783v-24.125c0-5.9956-2.4302-8.7242-7.8918-8.7242a8.7891 8.7891 0 0 0-9.3275 9.481v23.368h-9.1826zm-47.04 25.416v-25.416h9.1783v24.363c0 5.9934 2.4994 8.7242 7.814 8.7242a8.8475 8.8475 0 0 0 9.2518-9.481v-23.606h9.1804v39.682h-9.1804v-6.2205a13.353 13.353 0 0 1-12.588 6.9794c-7.8118 0-13.654-4.4756-13.654-15.027m-25.84-18.512h-5.388v-6.9015h5.388v-5.3081c0-8.7286 4.8497-13.433 13.349-13.433a15.554 15.554 0 0 1 5.2389 0.76107v7.1351a12.642 12.642 0 0 0-4.1729-0.67891c-3.7232 0-5.2367 2.4259-5.2367 5.8378v5.6864h9.0269v6.9015h-9.0269v32.778h-9.1783zm-22.16 13.137v-0.60756c0-8.7286-4.0216-13.051-10.705-13.051-6.7524 0-10.692 4.7048-10.692 13.28v0.59459c0 8.7286 4.3978 12.899 10.318 12.899 6.374 0 11.079-4.2508 11.079-13.126m-30.806 0.45405v-0.60756c0-12.672 7.5091-20.715 17.831-20.715a13.567 13.567 0 0 1 12.672 6.9059v-24.432h9.1804v58.049h-9.1804v-6.6702a15.217 15.217 0 0 1-13.051 7.4334c-9.9458 0-17.453-7.0594-17.453-19.957m-44.307-20.486h9.1783v6.2983a13.669 13.669 0 0 1 12.821-7.1351c7.9675 0 13.583 4.6313 13.583 15.554v24.962h-9.1804v-24.125c0-5.9956-2.4302-8.7242-7.8918-8.7242a8.7934 8.7934 0 0 0-9.3318 9.481v23.368h-9.1783zm-20.566 20.037v-0.60756c0-8.8021-4.1081-13.051-10.246-13.051-6.2983 0-10.391 4.7048-10.391 13.28v0.59459c0 8.7286 4.4021 12.899 9.935 12.899 5.9243 0 10.705-4.2508 10.705-13.126m-30.054 0.45405v-0.60756c0-12.672 7.9718-20.715 17.526-20.715a13.265 13.265 0 0 1 12.218 6.8324v-5.9913h9.1826v39.682h-9.1826v-6.5253a15.068 15.068 0 0 1-12.597 7.2842c-9.2561 0-17.148-7.0594-17.148-19.957m-18.51-38.849h9.1826v58.047h-9.1826zm-47.135 0h9.1912v24.664a13.66 13.66 0 0 1 12.821-7.1351c7.9675 0 13.58 4.6313 13.58 15.554v24.964h-9.1826v-24.125c0-5.9956-2.4259-8.7242-7.8875-8.7242a8.7934 8.7934 0 0 0-9.3296 9.481v23.368h-9.1912zm-47.04 38.702v-0.60756c0-12.594 8.9491-20.564 20.028-20.564 8.8042 0 17.081 3.9437 18.136 14.873h-8.8799c-0.75675-5.3124-4.2464-7.5134-9.1026-7.5134-6.2983 0-10.776 4.8562-10.776 13.051v0.60756c0 8.6486 4.2486 13.202 10.999 13.202a9.0313 9.0313 0 0 0 9.561-8.495h8.4323c-0.68324 9.1026-7.5891 15.554-18.363 15.554-11.377 0-20.028-7.4334-20.028-20.108m-38.624 6.9772h8.6486c0.45837 4.0216 2.5038 6.3783 7.8918 6.3783 4.934 0 7.1351-1.747 7.1351-5.0832 0-3.2627-2.6551-4.4756-8.495-5.4616-10.471-1.6713-14.339-4.6291-14.339-12.065 0-7.9718 7.4334-11.916 14.869-11.916 8.121 0 14.568 3.027 15.554 11.989h-8.495c-0.76108-3.641-2.8108-5.3124-7.0594-5.3124-3.9437 0-6.294 1.8984-6.294 4.7048 0 2.8865 1.8962 4.0194 8.1923 5.0832 9.3361 1.4443 14.873 3.7146 14.873 12.14 0 8.0388-5.6908 12.672-15.855 12.672-10.246 0-16.238-4.7048-16.62-13.129m-23.334 1.2973v-21.712h-5.3037v-6.9015h5.3102v-8.7177h9.1761v8.7286h8.7242v6.9015h-8.7242v20.867c0 3.4897 1.667 5.0875 4.5405 5.0875a11.243 11.243 0 0 0 4.4756-0.7654v7.2842a17.587 17.587 0 0 1-6.2205 0.98594c-7.8918 0-11.989-4.2464-11.989-11.756m-48.142-3.1913v-25.425h9.1804v24.363c0 5.9934 2.5038 8.7242 7.8183 8.7242a8.8475 8.8475 0 0 0 9.2518-9.481v-23.606h9.1826v39.682h-9.1826v-6.2205a13.364 13.364 0 0 1-12.594 6.9794c-7.8118 0-13.658-4.4756-13.658-15.027m-17.669-9.6994c-0.45837-6.828-3.9481-9.8658-9.6388-9.8658-5.5372 0-9.2518 3.7189-10.162 9.8658zm-29.364 4.5405v-0.60324c0-12.294 8.4215-20.488 19.723-20.488 9.8658 0 18.744 5.8378 18.744 20.032v2.6551h-29.059c0.3027 7.5134 4.1081 11.762 10.925 11.762 5.5416 0 8.4323-2.1967 9.1069-6.0691h8.8777c-1.2973 8.3459-8.0475 12.899-18.21 12.899-11.676 0-20.108-7.6626-20.108-20.186m-35.52 11.457c12.14 0 17.985-6.9794 17.985-18.966v-0.60756c0-11.676-5.3124-18.741-18.06-18.741h-5.8378v38.315zm-16-46.283h16.467c18.891 0 28.069 10.776 28.069 26.56v0.68324c0 15.784-9.1783 27.009-28.222 27.009h-16.313z" fill="#fff"/>
</svg>
