<?xml version="1.0" encoding="UTF-8"?>
<svg width="800" height="158.52" version="1.1" xmlns="http://www.w3.org/2000/svg">
 <path d="m0 50.092v58.316h16.8v-23.479h12.927v23.479h16.8v-58.316h-16.8v21.719h-12.927v-21.719zm55.351 0v58.316h20.755c4.3973 0 8.384-0.62533 11.931-1.9067 3.5813-1.2853 6.6507-3.2133 9.1187-5.7427l0.0067-7e-3c2.4653-2.5573 4.3227-5.692 5.588-9.3573 1.2693-3.676 1.8853-7.8653 1.8853-12.572 0-4.8467-0.66267-9.088-2.0387-12.707-1.3387-3.628-3.3613-6.6747-6.072-9.072-2.7107-2.397-6.0507-4.1557-9.9454-5.2837-3.8827-1.124-8.2773-1.668-13.181-1.668zm16.796 12.468h1.024c2.6133 0 4.816 0.31467 6.628 0.91733l0.0093 0.0067h0.0067c1.7813 0.572 3.1827 1.4453 4.3067 2.676l0.024 0.024c1.1493 1.2 2.0507 2.812 2.664 4.8947v0.0067c0.60933 2.0573 0.93333 4.6467 0.93333 7.7373 0 6.032-1.1907 10.395-3.2667 13.131-2.0613 2.6947-4.9853 3.9893-9.4587 3.9893h-2.8707z" fill="#999" letter-spacing="0" stroke-width="1.3333" word-spacing="0"/>
 <path d="m138.03 0v158.51h65.864c57.985 0 79.257-30.3 79.257-81.859 1.0253-41.757-27.632-76.656-73.681-76.656zm156.28 0v158.51l177.49 7e-3v-158.52l-61.323 0.018667-27.836 86.239-26.936-86.257zm351.64 0 50.224 75.907-54.697 82.607h158.52l-54.697-82.607 50.224-75.907zm-110.45 0.024-59.353 158.44 159.75 0.04933-58.373-158.4z" fill="#ff6038" stroke-width="1.3333"/>
</svg>
