<?xml version="1.0" encoding="UTF-8" standalone="no"?>
<!-- Created with Inkscape (http://www.inkscape.org/) -->

<svg
   xmlns:dc="http://purl.org/dc/elements/1.1/"
   xmlns:cc="http://creativecommons.org/ns#"
   xmlns:rdf="http://www.w3.org/1999/02/22-rdf-syntax-ns#"
   xmlns:svg="http://www.w3.org/2000/svg"
   xmlns="http://www.w3.org/2000/svg"
   xmlns:sodipodi="http://sodipodi.sourceforge.net/DTD/sodipodi-0.dtd"
   xmlns:inkscape="http://www.inkscape.org/namespaces/inkscape"
   version="1.0"
   width="210.72778"
   height="50.46397"
   id="svg1968"
   inkscape:version="0.91pre2 r13516"
   sodipodi:docname="dmax.svg">
  <metadata
     id="metadata10">
    <rdf:RDF>
      <cc:Work
         rdf:about="">
        <dc:format>image/svg+xml</dc:format>
        <dc:type
           rdf:resource="http://purl.org/dc/dcmitype/StillImage" />
        <dc:title></dc:title>
      </cc:Work>
    </rdf:RDF>
  </metadata>
  <sodipodi:namedview
     pagecolor="#ffffff"
     bordercolor="#666666"
     borderopacity="1"
     objecttolerance="10"
     gridtolerance="10"
     guidetolerance="10"
     inkscape:pageopacity="0"
     inkscape:pageshadow="2"
     inkscape:window-width="1920"
     inkscape:window-height="1017"
     id="namedview8"
     showgrid="false"
     inkscape:zoom="2.786182"
     inkscape:cx="118.47077"
     inkscape:cy="23.77949"
     inkscape:window-x="-8"
     inkscape:window-y="-8"
     inkscape:window-maximized="1"
     inkscape:current-layer="svg1968"
     fit-margin-top="0"
     fit-margin-left="0"
     fit-margin-right="0"
     fit-margin-bottom="0" />
  <defs
     id="defs1970">
    <style
       type="text/css"
       id="style2032" />
  </defs>
  <path
     d="m 193.31517,24.167391 c 16.77874,-25.3668296 -1.97216,2.90568 15.99121,-24.16449959 l -47.61809,0 c 18.10253,27.22721959 -1.27836,-1.88121001 15.9912,24.16449959 -18.47442,27.82316 3.50846,-5.32821 -17.41261,26.29656 l 50.4609,0 c -18.47654,-27.80445 2.222,3.34417 -17.41261,-26.29656 l 0,0 z m -85.68027,26.28198 50.85521,0.0146 -18.58106,-50.42270959 -13.37987,-0.0303 -18.89428,50.43838959 0,0 z m -57.884663,0.0146 56.502123,0 0,-50.46105959 -19.521825,0.007 -8.862206,27.45328959 -8.573251,-27.46069959 -19.544841,0 0,50.46105959 0,0 z m -28.783993,0 c 18.541184,0 25.230446,-9.6451 25.230446,-26.05836 C 46.523993,11.113321 37.279361,-0.20840859 22.743015,0.00291141 l -22.743015,0 0,50.46105959 20.966244,0 0,0 z"
     style="fill:#e4e4e4;fill-opacity:1;fill-rule:evenodd;stroke:none;stroke-opacity:1"
     id="path2084"
     inkscape:connector-curvature="0" />
</svg>
