<svg xmlns="http://www.w3.org/2000/svg" width="600" height="118.886"><path d="M0 37.569v43.737h12.6V63.697h9.695v17.609h12.6V37.569h-12.6v16.289H12.6V37.569zm41.513 0v43.737h15.566c3.298 0 6.288-.469 8.948-1.43 2.686-.964 4.988-2.41 6.839-4.307l.005-.005c1.849-1.918 3.242-4.269 4.191-7.018.952-2.757 1.414-5.899 1.414-9.429 0-3.635-.497-6.816-1.529-9.53-1.004-2.721-2.521-5.006-4.554-6.804s-4.538-3.117-7.459-3.963c-2.912-.843-6.208-1.251-9.886-1.251zM54.11 46.92h.768c1.96 0 3.612.236 4.971.688l.007.005h.005c1.336.429 2.387 1.084 3.23 2.007l.009.009.009.009c.862.9 1.538 2.109 1.998 3.671v.005c.457 1.543.7 3.485.7 5.803 0 4.524-.893 7.796-2.45 9.848-1.546 2.021-3.739 2.992-7.094 2.992H54.11z" letter-spacing="0" word-spacing="0" fill="#999"/><path d="M103.526 0v118.886h49.398c43.489 0 59.443-22.725 59.443-61.394C213.136 26.174 191.643 0 157.106 0zm117.211 0v118.881l133.118.005V0l-45.992.014-20.877 64.679L266.784 0zm263.728 0l37.668 56.93-41.023 61.955H600L558.977 56.93 596.645 0zm-82.837.018l-44.515 118.83 119.815.037L433.148.087z" fill="#ff6038"/></svg>