<?xml version="1.0" encoding="UTF-8" standalone="no"?>
<svg
   xmlns:dc="http://purl.org/dc/elements/1.1/"
   xmlns:cc="http://creativecommons.org/ns#"
   xmlns:rdf="http://www.w3.org/1999/02/22-rdf-syntax-ns#"
   xmlns:svg="http://www.w3.org/2000/svg"
   xmlns="http://www.w3.org/2000/svg"
   xmlns:sodipodi="http://sodipodi.sourceforge.net/DTD/sodipodi-0.dtd"
   xmlns:inkscape="http://www.inkscape.org/namespaces/inkscape"
   inkscape:version="1.0 (4035a4fb49, 2020-05-01)"
   sodipodi:docname="dorceltv.default.svg"
   id="svg58"
   viewBox="0 0 158.75 150.96152"
   version="1.1"
   width="600"
   height="570.5387">
  <metadata
     id="metadata64">
    <rdf:RDF>
      <cc:Work
         rdf:about="">
        <dc:format>image/svg+xml</dc:format>
        <dc:type
           rdf:resource="http://purl.org/dc/dcmitype/StillImage" />
        <dc:title></dc:title>
      </cc:Work>
    </rdf:RDF>
  </metadata>
  <defs
     id="defs62" />
  <sodipodi:namedview
     inkscape:current-layer="svg58"
     fit-margin-bottom="0"
     fit-margin-right="0"
     fit-margin-left="0"
     fit-margin-top="0"
     showgrid="false"
     id="namedview60"
     inkscape:window-height="480"
     inkscape:window-width="640"
     inkscape:pageshadow="2"
     inkscape:pageopacity="0"
     guidetolerance="10"
     gridtolerance="10"
     objecttolerance="10"
     borderopacity="1"
     bordercolor="#666666"
     pagecolor="#ffffff" />
  <path
     d="M 33.134218,12.826001 C 23.845169,11.462023 22.333903,19.313451 21.264503,26.391093 19.237208,40.066651 21.485955,43.421102 11.201669,53.703315 2.391828,62.514713 -0.92580066,69.002681 0.21672486,82.533544 1.2121172,94.472235 4.5665161,103.17472 14.113735,109.29447 c 7.814605,5.0825 4.976184,23.21873 14.375699,33.02588 13.01224,13.67608 25.322268,5.63743 39.698485,3.72371 18.136232,-2.46864 30.043806,13.45307 50.057451,-1.7322 C 138.2279,129.12141 155.47728,123.8522 155.07276,93.258658 154.81345,76.004086 165.83418,59.491143 150.94452,44.637272 134.6494,28.381566 129.15719,1.6937674 84.296336,0.03521247 66.528327,-0.59149104 56.503353,7.3337878 52.006895,8.9555206 47.473095,10.614594 42.496911,14.189978 33.134218,12.826001"
     id="path50"
     style="display:inline;fill:#d70072;stroke-width:5.18623" />
  <path
     style="display:inline;stroke-width:5.18623"
     id="path54"
     fill="#ffffff"
     d="m 81.806948,14.142265 c -33.618673,0 -60.969271,27.351117 -60.969271,60.969271 -5.19e-4,33.580814 27.350598,60.932964 60.969271,60.932964 33.617112,0 60.969272,-27.35215 60.969272,-60.932964 0,-33.618673 -27.35216,-60.969271 -60.969272,-60.969271 m 0,126.066775 c -35.904242,0 -65.13381,-29.19326 -65.13381,-65.097504 -0.0016,-35.904242 29.229568,-65.1338103 65.13381,-65.1338103 35.904242,-0.00156 65.133812,29.2295683 65.133812,65.1338103 0,35.904244 -29.22957,65.097504 -65.133812,65.097504" />
  <path
     style="display:inline;stroke-width:5.18623"
     id="path56"
     fill="#ffffff"
     d="M 120.16427,114.33548 C 115.74042,108.62026 106.82012,95.831026 99.668309,85.583044 95.576377,79.758913 92.003068,74.634922 89.824853,71.647656 94.399104,65.973925 109.14354,48.279558 110.80314,47.284322 c 0.54974,-0.110986 1.21357,-0.258274 1.95002,-0.405563 1.36398,-0.295097 2.91466,-0.627015 4.09193,-0.958415 l 0.70014,-0.184629 0.40453,-4.017769 -1.24988,0.110466 c -2.87836,0.258274 -6.56058,0.405563 -10.06647,0.405563 -5.49221,0 -10.53841,-0.220933 -12.529921,-0.405563 l -1.363977,-0.110466 0.736444,4.128754 0.736444,0.110466 c 2.359733,0.331919 4.278636,0.700141 5.56482,0.995237 C 96.904051,52.07484 89.570728,62.582134 86.396758,66.891887 83.300581,62.914052 75.303421,51.080639 72.798474,46.989225 c 1.950021,-0.405563 4.237146,-0.737481 6.778397,-1.032059 l 0.705327,-0.07364 1.177273,-4.128754 -1.436585,0.07364 c -3.760013,0.18463 -10.024974,0.405563 -15.480883,0.405563 -8.702487,0 -13.640813,-0.184111 -14.709694,-0.405563 l -1.4008,-0.257755 0.589674,4.239221 0.737481,0.147288 c 0.51603,0.110467 1.105704,0.220934 1.695378,0.294578 1.512305,0.295096 3.0578,0.590192 4.24026,0.921592 2.691651,2.875244 7.851945,9.916585 12.861839,16.736471 3.319185,4.496458 6.74728,9.13813 9.511538,12.680322 -0.736444,0.917962 -1.804806,2.359733 -3.096176,4.091932 -6.04714,8.106071 -18.649668,25.028729 -21.528023,26.760929 -1.694342,0.73644 -3.795282,1.03205 -5.896741,1.32767 l -0.626496,0.0726 -1.4008,4.12823 2.396037,-0.1867 c 2.322392,-0.10891 4.900466,-0.29043 9.734029,-0.29043 3.645916,0 8.142374,0.14521 11.12964,0.25412 1.623289,0.0726 2.836866,0.1141 3.355488,0.1141 h 1.177273 l -0.513436,-4.01932 -0.814237,-0.0726 c -1.363978,-0.1504 -4.423851,-0.62753 -6.669487,-1.06836 3.796318,-7.44742 12.975937,-21.896248 16.404032,-26.392706 0.809051,0.99057 1.913718,2.318243 3.168784,3.905228 6.596879,8.183865 18.836374,23.369138 29.711884,31.552998 l 0.36823,0.29561 6.19235,-1.43658 z" />
</svg>
