<?xml version="1.0" encoding="UTF-8"?>
<svg width="800" height="106.04" version="1.1" xmlns="http://www.w3.org/2000/svg">
	<path d="m51.227 2.0504h-51.227c8.1963 0 9.2209 6.1473 9.2209 16.905v85.037h23.052v-85.037c0-10.758 0-14.344 9.2209-14.344 17.93 0 35.347 14.856 35.347 48.666 0 32.785-10.758 47.129-26.638 49.69-2.0491 0.51227-4.6104 1.0245-6.6595 1.0245h7.1718c31.761 0 51.227-21.515 51.227-50.715 0-30.224-18.954-51.227-50.715-51.227zm284.31 78.89c-6.6595-14.344-10.758-25.614-27.663-28.687 14.344-1.5368 29.199-8.1963 29.199-25.101 0-16.393-10.758-25.101-34.322-25.101h-53.276c8.1964 0 9.2208 6.1473 9.2208 16.905v85.037h23.052v-85.549c0-10.758 2.0491-14.344 10.758-14.344 14.344 0 21.515 10.245 21.515 24.077 0 15.88-12.807 25.614-19.466 26.638 5.635 0.51227 8.7086 5.635 10.245 8.7086 4.0982 9.7331 6.1473 24.589 14.344 33.81 5.635 6.6595 15.368 6.6595 21.515 6.6595h16.905c-10.245-0.51226-17.93-13.319-22.028-23.052zm155.73-28.175c14.856 0.51227 27.15 7.1718 27.15 15.88v-31.761c0 8.7086-11.782 15.368-27.15 15.88zm6.1473 48.666c-8.1963 0-8.7086-3.5859-9.2208-14.344v-68.644c0-10.758 1.0246-14.344 9.2208-14.344 16.393 0 34.834 10.758 38.933 19.979l-7.1718-22.54h-73.255c8.1964 0 9.2208 6.1473 9.2208 16.905v85.037h71.206l7.1718-24.589c-4.0982 9.7331-29.199 22.54-46.104 22.54zm92.721-0.51228c-8.1964 0-8.7086-3.0736-9.2208-13.831v-70.694c0-9.2209 1.5368-14.344 9.2208-14.344h-41.494c8.1964 0 9.2208 6.1473 9.2208 16.905v85.549h71.206l7.1718-24.589c-4.0982 8.7086-29.712 21.003-46.104 21.003zm-449.77-58.399c0-7.1718-0.51226-38.42 14.856-42.006-22.028 1.5368-39.957 15.88-39.957 41.494 0 31.249 25.614 56.35 60.96 64.034-16.905-4.0982-35.859-23.564-35.859-63.522zm60.96-42.006c15.368 4.0982 14.856 34.834 14.856 42.006 0 39.957-19.466 58.911-35.347 63.522 35.347-7.1718 60.96-32.785 60.96-64.034 0-25.614-18.442-39.957-40.469-41.494zm214.13 101.94c-27.15 0-37.908-22.028-37.908-50.715 0-27.15 9.2208-49.69 35.859-49.69 18.954 0 30.736 13.319 33.298 32.785v-27.15c-7.684-4.0982-22.028-7.6841-33.81-7.6841-36.371 0-59.936 17.417-59.936 53.789 0 33.298 24.077 51.227 60.448 51.227 14.856 0 28.687-4.6104 34.834-8.1964v-21.515c-3.5859 14.856-15.368 27.15-32.785 27.15z" fill="#fff"/>
	<g fill="#d0006f">
		<path d="m636.76 48.588 22.707-22.154-20.023-20.356h9.251l10.653 10.903q3.324 3.3927 4.7256 5.2195 1.9623-2.3198 4.6455-4.8425l11.814-11.28h8.45l-20.625 20.037 22.226 22.473h-9.6114l-14.777-15.165q-1.2415-1.3049-2.563-2.8417-1.9623 2.3198-2.8033 3.1896l-14.738 14.817z"/>
		<path d="m691.47 48.588 22.707-22.154-20.023-20.356h9.251l10.653 10.903q3.324 3.3927 4.7256 5.2195 1.9623-2.3198 4.6455-4.8425l11.814-11.28h8.4501l-20.625 20.037 22.226 22.473h-9.6114l-14.777-15.165q-1.2415-1.3049-2.563-2.8417-1.9623 2.3198-2.8033 3.1896l-14.738 14.817z"/>
		<path d="m746.18 48.588 22.707-22.154-20.023-20.356h9.251l10.653 10.903q3.324 3.3927 4.7256 5.2195 1.9623-2.3198 4.6455-4.8425l11.814-11.28h8.4501l-20.625 20.037 22.226 22.473h-9.6114l-14.777-15.165q-1.2415-1.3049-2.563-2.8417-1.9623 2.3198-2.8033 3.1896l-14.738 14.817z"/>
	</g>
</svg>
