<?xml version="1.0" encoding="UTF-8" standalone="no"?>
<!-- Created with Inkscape (http://www.inkscape.org/) -->

<svg
   xmlns:svg="http://www.w3.org/2000/svg"
   xmlns="http://www.w3.org/2000/svg"
   version="1.1"
   width="540.5885"
   height="115.38779"
   viewBox="0 0 152.56608 32.565"
   id="svg2"
   xml:space="preserve"
   style="fill-rule:evenodd">
 <defs
   id="defs4"><style
     type="text/css"
     id="style6" /></defs>
 <g
   id="g3673"><polygon
     points="16.4729,164.489 169.039,164.489 169.039,131.924 16.4729,131.924 "
     transform="translate(-16.472911,-131.924)"
     id="polygon10"
     style="fill:#2a941f;fill-opacity:1;fill-rule:nonzero" /><path
     d="m 59.213589,5.4643 c -1.1243,0 -2.1143,0.9107 -2.0873,2.3018 -0.027,1.3392 0.9098,2.276 2.0612,2.276 1.1775,0 2.1404,-0.9368 2.1134,-2.276 0,-1.3911 -0.9359,-2.3018 -2.0873,-2.3018 z m 1.8325,6.7496 z m 0,13.0171 -3.6662,0 0,-13.0158 3.6662,0 0,13.0158 z"
     id="path3656"
     style="fill:#ffffff;fill-rule:nonzero" /><path
     d="m 67.745889,22.7512 c -1.0441,0 -1.5528,-1.5516 -1.5528,-4.0695 0,-1.9277 0.4024,-4.015 1.5258,-4.015 0.9909,0 1.4181,2.0873 1.4181,4.015 0,2.0615 -0.4272,4.0695 -1.3911,4.0695 z m 0.178,-10.7629 c -2.6513,0 -5.1397,2.1697 -5.1397,6.7737 0,4.0694 1.7652,6.6663 5.1397,6.6663 1.8736,0 5.0321,-1.2046 5.0321,-6.7736 0,-3.9078 -1.7415,-6.6664 -5.0321,-6.6664 z"
     id="path3652"
     style="fill:#ffffff;fill-rule:nonzero" /><path
     d="m 39.823089,21.27 c 0,0.2407 -0.0261,0.5087 -0.1075,0.6421 -0.2677,0.6959 -0.9356,0.9639 -1.4443,0.9639 -0.5354,0 -1.365,-0.5087 -1.365,-1.8479 0,-1.5795 1.3379,-2.1675 2.9168,-2.1945 l 0,2.4364 z m 3.5869,-3.5608 c 0,-2.4896 -0.4284,-5.7024 -4.7905,-5.7024 -1.8736,0 -3.4003,0.5357 -4.2299,0.9642 l 0.5889,2.3288 c 0.8022,-0.4552 1.6601,-0.6961 2.73,-0.6961 1.2319,0 1.9813,0.7232 1.9813,1.5798 l 0,0.4816 c -3.0786,0.0259 -6.1838,1.365 -6.1838,4.8185 0,2.2748 1.4194,3.9622 3.3732,3.9622 1.0961,0 2.4894,-0.4284 3.2931,-1.4987 l 0.2136,1.2851 3.1846,0 c -0.1076,-0.8837 -0.1605,-1.8479 -0.1605,-2.8649 l 0,-4.6581 z"
     id="path3648"
     style="fill:#ffffff;fill-rule:nonzero" /><path
     d="m 51.531389,20.7334 c 0,0.4011 -0.0544,0.6691 -0.1607,0.9085 -0.2146,0.6172 -0.6427,0.8305 -1.0982,0.8305 -0.8025,0 -1.6592,-0.9639 -1.6592,-3.6139 0,-2.1414 0.5628,-3.7744 1.6592,-3.7744 0.6971,0 1.0441,0.6147 1.2045,1.3109 0.0544,0.268 0.0544,0.5357 0.0544,0.8034 l 0,3.535 z m 3.6398,-13.5743 -3.6398,0 0,6.1045 c -0.295,-0.6962 -1.3121,-1.259 -2.4364,-1.259 -2.1949,0 -4.0956,2.276 -4.0956,6.7466 0,3.3201 1.0453,6.6925 3.9622,6.6925 1.0429,0 2.4622,-0.6692 2.998,-1.6862 l 0.2136,1.4725 3.1056,0 c -0.0532,-1.3391 -0.1076,-2.7302 -0.1076,-4.0694 l 0,-14.0015 z"
     id="path12"
     style="fill:#ffffff;fill-rule:nonzero" /><path
     d="m 100.56269,5.4643 c -1.124401,0 -2.114401,0.9107 -2.088201,2.3018 -0.0262,1.3392 0.9094,2.276 2.061101,2.276 1.1775,0 2.1414,-0.9368 2.1143,-2.276 0,-1.3911 -0.9368,-2.3018 -2.0872,-2.3018 z m 1.8324,6.7496 z m 0,13.0171 -3.664901,0 0,-13.0158 3.664901,0 0,13.0158 z"
     id="path14"
     style="fill:#ffffff;fill-rule:nonzero" /><path
     d="m 139.72409,25.235 0,-8.0876 c 0,-1.0702 -0.347,-2.0624 -1.3122,-2.0624 -0.5354,0 -0.9626,0.2948 -1.2577,0.9107 -0.1343,0.2939 -0.2419,0.7773 -0.2419,1.3924 l 0,7.8469 -3.668,0 0,-8.9454 c 0,-1.338 -0.0541,-2.7574 -0.1073,-4.0695 l 3.1065,0 0.2136,1.5267 c 0.7773,-1.1253 2.2499,-1.7412 3.5359,-1.7412 2.6239,0 3.4003,2.2498 3.4003,4.9801 l 0,8.2493 -3.6692,0 z"
     id="path16"
     style="fill:#ffffff;fill-rule:nonzero" /><path
     d="m 131.53609,20.227 -6.3193,-0.0528 c 0.0531,1.6609 1.1504,2.5176 2.8916,2.5176 0.9369,0 1.7676,-0.1875 2.4635,-0.3753 l 0.4285,2.5166 c -0.9369,0.3221 -2.3292,0.537 -3.6423,0.537 -3.6148,0 -5.6502,-2.2511 -5.6502,-6.3476 0,-4.4457 2.3833,-7.0426 5.3835,-7.0426 2.7573,0 4.552,1.981 4.552,6.3194 0,0.938 -0.0262,1.5266 -0.1073,1.9277 z m -4.6593,-5.7033 c -1.1517,0 -1.66,1.7132 -1.66,3.2398 l 3.1867,0 c 0,-1.6858 -0.3492,-3.2398 -1.5267,-3.2398 z"
     id="path18"
     style="fill:#ffffff;fill-rule:nonzero" /><path
     d="m 115.92109,25.396 c -1.0171,0 -2.3031,-0.3209 -2.9461,-0.722 l 0.5898,-2.5981 c 0.616,0.268 1.5528,0.5889 2.3563,0.5889 0.9107,0 1.3932,-0.3753 1.3932,-1.0714 0,-0.5886 -0.4294,-0.9649 -1.5798,-1.634 -2.2238,-1.2058 -2.572,-2.6239 -2.572,-3.6954 0,-2.3832 1.6613,-4.2578 4.4457,-4.2578 1.017,0 1.8478,0.2419 2.5449,0.5096 l -0.5628,2.6239 c -0.4825,-0.2677 -1.0441,-0.375 -1.6871,-0.375 -0.9368,0 -1.3121,0.5084 -1.3121,1.0712 0,0.4813 0.268,0.8295 1.5798,1.5798 2.0354,1.1243 2.5438,2.5176 2.5438,3.8297 0,2.7042 -1.9278,4.1506 -4.7936,4.1506 z"
     id="path20"
     style="fill:#ffffff;fill-rule:nonzero" /><path
     d="m 107.17709,25.396 c -1.0171,0 -2.3031,-0.3209 -2.9461,-0.722 l 0.5898,-2.5981 c 0.616,0.268 1.5528,0.5889 2.3563,0.5889 0.9107,0 1.392,-0.3753 1.392,-1.0714 0,-0.5886 -0.4282,-0.9649 -1.5798,-1.634 -2.2229,-1.2058 -2.5708,-2.6239 -2.5708,-3.6954 0,-2.3832 1.66,-4.2578 4.4457,-4.2578 1.0179,0 1.8475,0.2419 2.5437,0.5096 l -0.5628,2.6239 c -0.4813,-0.2677 -1.0432,-0.375 -1.6862,-0.375 -0.9377,0 -1.3118,0.5084 -1.3118,1.0712 0,0.4813 0.2677,0.8295 1.5798,1.5798 2.0351,1.1243 2.5437,2.5176 2.5437,3.8297 0,2.7042 -1.9277,4.1506 -4.7935,4.1506 z"
     id="path22"
     style="fill:#ffffff;fill-rule:nonzero" /><path
     d="m 86.385089,25.255 1.1636,-5.8161 c 0.3793,-1.7446 0.6778,-3.728 1.0017,-5.8694 l 0.0544,0 c 0.2441,2.1684 0.5139,4.2038 0.8121,5.8432 l 1.0278,5.8423 3.9308,0 3.1117,-17.8183 -3.7126,0 -0.7567,6.3735 c -0.2428,2.0611 -0.4598,3.9652 -0.7039,6.291 l -0.0541,0 c -0.217,-2.3258 -0.5409,-4.3089 -0.8664,-6.3181 l -1.108,-6.3464 -3.0807,0 -1.2003,6.3996 c -0.3783,2.1414 -0.785,4.0716 -1.0278,6.2649 l -0.0814,0 c -0.2167,-2.1675 -0.3793,-4.2025 -0.6233,-6.2391 l -0.758,-6.4254 -3.9274,0 3.0047,17.8183 3.7938,0 z"
     id="path24"
     style="fill:#ffffff;fill-rule:nonzero" /><path
     d="m 17.804189,23.736 c -1.2319,1.0972 -2.9722,1.66 -5.5962,1.66 -1.1255,0 -2.1957,-0.106 -2.919,-0.1875 l 0,-17.7282 c 0.8828,-0.1875 2.249,-0.3483 3.6684,-0.3483 2.3562,0 3.9901,0.5619 5.1947,1.7133 1.554,1.4464 2.2228,3.8829 2.2228,7.2574 0,3.4556 -0.8566,6.1598 -2.5707,7.6333 z m -4.0434,-13.712 c -0.2406,0 -0.4011,0 -0.8305,0.027 l 0,12.3187 c 0.4024,0.0544 0.5899,0.0544 0.8035,0.0544 1.5266,0 2.8385,-1.7153 2.8385,-6.535 0,-3.6152 -0.9107,-5.8651 -2.8115,-5.8651 z"
     id="path26"
     style="fill:#ffffff;fill-rule:nonzero" /><path
     d="m 25.540689,9.961 c 0.1887,-0.0802 0.541,-0.1073 0.8662,-0.1073 1.5703,0.0544 2.1936,1.1234 2.1936,2.675 0,1.5777 -0.8674,2.8074 -2.4103,2.8074 l -0.6495,0 0,-5.3751 z m -3.5478,15.2703 3.5478,0 0,-7.1944 0.541,0 c 1.1646,0 1.7326,0.6421 2.0581,2.8615 0.2711,2.0061 0.6765,3.8254 0.9205,4.3329 l 3.7092,0 c -0.3239,-0.6679 -0.812,-2.8886 -1.1642,-4.8944 -0.3514,-1.9518 -0.975,-3.0752 -2.2198,-3.5826 l 0,-0.0541 c 1.8411,-0.8287 2.816,-2.5668 2.816,-4.4924 0,-1.5516 -0.3525,-2.7552 -1.4627,-3.744 -1.1634,-1.0702 -2.9245,-1.3382 -4.8738,-1.3382 -1.3533,0 -2.7619,0.1346 -3.8721,0.3482 l 0,17.7575 z"
     id="path28"
     style="fill:#ffffff;fill-rule:nonzero" /></g>
</svg>