<svg xmlns="http://www.w3.org/2000/svg" height="199.56" width="348.428"><path d="M106.167 139.202h-48.82v-77.28h48.82c21.772 0 44.092 10.948 44.092 38.64 0 27.688-22.32 38.64-44.092 38.64m-5.54-117.28c-43.2 0-78.22 35.02-78.22 78.224 0 43.2 35.02 78.22 78.22 78.22 43.2 0 78.22-35.02 78.22-78.22 0-43.204-35.02-78.224-78.22-78.224" fill="#fff"/><path d="M103.199 84.422H81.67v32.284h21.528c15.64 0 21.168-6.492 21.168-16.14 0-9.652-5.568-16.144-21.168-16.144m170.12 18.312l-12.932-35.312h-17.58l-12.932 35.312-10.364-35.312h-23.1l21.748 68.092h19.584l13.736-32.964 13.976 32.964h19.584l21.744-68.092h-23.096z" fill="#fff"/><path d="M285.04 135.512h-19.584l-13.976-32.96-13.736 32.96h-19.588l-21.744-68.088h23.096l10.368 35.308 12.932-35.308h17.576l12.936 35.308 10.364-35.308h23.1zm-184.412 42.856c-43.2 0-78.22-35.024-78.22-78.224s35.02-78.22 78.22-78.22c43.2 0 78.22 35.02 78.22 78.22 0 43.2-35.02 78.224-78.22 78.224M248.652 0c-29.588 0-56.164 12.876-74.436 33.328C155.944 12.876 129.364 0 99.78 0 44.672 0 0 44.672 0 99.78c0 55.108 44.672 99.78 99.78 99.78 29.584 0 56.164-12.876 74.436-33.332 18.272 20.456 44.848 33.332 74.436 33.332 55.104 0 99.776-44.672 99.776-99.78 0-55.108-44.672-99.78-99.776-99.78" fill="#0098ff"/><path d="M103.199 116.706H81.67V84.422h21.528c15.6 0 21.168 6.492 21.168 16.144 0 9.648-5.528 16.14-21.168 16.14m2.968-54.784h-48.82v77.28h48.82c21.772 0 44.092-10.948 44.092-38.64s-22.32-38.64-44.092-38.64" fill="#0098ff"/></svg>