<svg xmlns="http://www.w3.org/2000/svg" width="40.082" height="50"><path d="M1.29 50h12.902V39.2H1.29zM15.262 6.946L15.511 0H0l1.296 36.012h12.922l.249-6.586h-6.17V20.17h6.49l.219-6.082H8.392V6.946z" fill="#eaeaea" fill-rule="evenodd"/><path d="M17.072 13.923h3.221v9.556h4.116v-9.556h3.222V36.22h-3.222v-9.592h-4.116v9.592h-3.22zm12.277-.004l2.836.013c3.08.014 3.098.015 3.946.228 1.981.498 3.246 1.843 3.718 3.953.223.998.213.73.228 6.565.014 5.656.007 5.971-.152 6.908-.432 2.534-1.802 4.057-4.039 4.489-.676.13-1.083.145-3.844.145h-2.693zm5.637 19.03a2.188 2.188 0 0 0 1.044-.612c.24-.242.32-.355.453-.63.089-.185.196-.46.238-.613.176-.644.178-.704.179-6.005 0-3.381-.012-5.059-.039-5.279-.166-1.359-.756-2.21-1.768-2.55-.283-.094-.3-.095-1.44-.108l-1.155-.013V33.04l1.137-.014c.94-.013 1.173-.026 1.35-.077z" fill="#0ea8cc"/></svg>