<?xml version="1.0" encoding="UTF-8" standalone="no"?>
<!-- Created with Inkscape (http://www.inkscape.org/) -->
<svg
   xmlns:dc="http://purl.org/dc/elements/1.1/"
   xmlns:cc="http://web.resource.org/cc/"
   xmlns:rdf="http://www.w3.org/1999/02/22-rdf-syntax-ns#"
   xmlns:svg="http://www.w3.org/2000/svg"
   xmlns="http://www.w3.org/2000/svg"
   xmlns:sodipodi="http://sodipodi.sourceforge.net/DTD/sodipodi-0.dtd"
   xmlns:inkscape="http://www.inkscape.org/namespaces/inkscape"
   width="180"
   height="138"
   id="svg2"
   sodipodi:version="0.32"
   inkscape:version="0.45.1"
   version="1.0"
   inkscape:output_extension="org.inkscape.output.svg.inkscape">
  <g
     inkscape:label="Layer 1"
     inkscape:groupmode="layer"
     id="layer1"
     transform="translate(-41.864613,-941.2345)">
    <g
       id="g27219"
       transform="matrix(1,0,0,-1,509.63185,39.21589)" />
    <g
       id="g28041"
       clip-path="url(#id305)"
       transform="matrix(5.9784775,0,0,-5.9784775,-1992.5503,3678.318)">
      <g
         id="g28043"
         transform="translate(352.3505,457.5469)">
        <path
           id="path28045"
           d="M 0,0 L 4.21,0 C 5.392,0 6.576,-0.508 7.459,-1.392 C 8.06,-1.993 8.485,-2.74 8.69,-3.554 L 8.741,-3.756 L 15.014,-3.756 C 15.13,-3.753 16.113,-3.753 16.88,-4.491 C 17.477,-5.065 17.78,-5.925 17.78,-7.045 L 17.78,-13.666 C 17.759,-14.484 17.234,-16.042 15.394,-16.042 L 11.067,-16.042 L 11.067,-16.488 L 11.008,-17.046 C 10.804,-18.058 10.051,-18.8 8.635,-19.379 L 8.517,-19.427 L 8.48,-19.549 C 8.273,-20.228 8.004,-20.77 7.657,-21.205 C 6.973,-22.059 5.981,-22.531 4.863,-22.531 L 1.562,-22.531 C 0.445,-22.531 -0.547,-22.06 -1.23,-21.205 C -1.49,-20.881 -1.704,-20.5 -1.886,-20.039 L -1.953,-19.87 L -6.65,-19.872 C -8.848,-19.872 -10.077,-19.099 -10.72,-18.449 C -11.411,-17.753 -11.792,-16.844 -11.792,-15.891 L -11.794,-12.796 C -11.794,-11.915 -11.627,-10.244 -10.508,-8.962 L -4.291,-1.839 C -3.136,-0.666 -1.78,-0.08 -0.103,-0.003 C -0.1,-0.003 0,0 0,0"
           style="fill:#ffffff;fill-rule:nonzero;stroke:none" />
      </g>
      <g
         id="g28047"
         transform="translate(369.4158,453.2489)">
        <path
           id="path28049"
           d="M 0,0 C -0.849,0.816 -1.935,0.812 -2.051,0.809 L -8.116,0.809 C -8.333,1.669 -8.777,2.454 -9.417,3.095 C -10.35,4.029 -11.603,4.565 -12.855,4.565 L -17.067,4.565 C -17.076,4.565 -17.18,4.562 -17.18,4.562 C -18.931,4.481 -20.342,3.87 -21.501,2.692 L -21.557,2.635 L -27.775,-4.489 C -28.951,-5.836 -29.126,-7.579 -29.126,-8.498 L -29.125,-11.593 C -29.125,-12.617 -28.716,-13.593 -27.975,-14.34 C -27.296,-15.024 -26.005,-15.841 -23.716,-15.841 C -23.716,-15.841 -19.664,-15.839 -19.2,-15.839 C -19.012,-16.314 -18.785,-16.723 -18.504,-17.074 C -17.769,-17.993 -16.703,-18.5 -15.504,-18.5 L -12.202,-18.5 C -11.002,-18.5 -9.936,-17.993 -9.2,-17.073 C -8.827,-16.605 -8.543,-16.029 -8.329,-15.328 C -6.83,-14.715 -6.018,-13.91 -5.796,-12.801 C -5.793,-12.787 -5.731,-12.471 -5.731,-12.19 C -5.731,-12.19 -5.731,-12.091 -5.731,-12.011 L -1.671,-12.011 C 0.374,-12.011 0.958,-10.282 0.981,-9.368 L 0.982,-2.747 C 0.982,-1.55 0.651,-0.627 0,0 M 0.223,-9.351 C 0.216,-9.556 0.104,-11.252 -1.671,-11.252 L -6.489,-11.252 L -6.489,-11.661 L -6.49,-12.19 C -6.49,-12.396 -6.539,-12.651 -6.54,-12.654 C -6.717,-13.537 -7.406,-14.167 -8.774,-14.694 L -8.951,-14.762 L -9.002,-14.946 C -9.193,-15.632 -9.452,-16.173 -9.793,-16.6 C -10.381,-17.336 -11.237,-17.741 -12.202,-17.741 L -15.504,-17.741 C -16.468,-17.741 -17.323,-17.336 -17.912,-16.6 C -18.187,-16.256 -18.406,-15.842 -18.581,-15.335 L -18.67,-15.08 L -23.716,-15.082 C -25.744,-15.082 -26.858,-14.388 -27.437,-13.805 C -28.036,-13.201 -28.366,-12.416 -28.366,-11.593 L -28.368,-8.498 C -28.368,-7.685 -28.216,-6.148 -27.203,-4.987 C -27.203,-4.987 -21.158,1.938 -21,2.119 C -20.99,2.13 -20.961,2.16 -20.961,2.16 C -19.941,3.195 -18.697,3.733 -17.154,3.804 C -17.151,3.804 -17.058,3.806 -17.058,3.806 L -12.855,3.806 C -11.803,3.806 -10.745,3.351 -9.954,2.559 C -9.347,1.951 -8.945,1.191 -8.793,0.361 L -8.736,0.05 L -2.039,0.05 L -2.032,0.05 C -2.023,0.051 -1.16,0.069 -0.519,-0.553 C -0.026,-1.032 0.223,-1.77 0.223,-2.747 L 0.223,-9.351 z M -9.945,-7.901 C -10.129,-7.865 -10.037,-7.886 -10.285,-7.821 C -10.533,-7.756 -10.614,-7.552 -10.614,-7.246 L -10.614,-7.07 L -10.614,-0.4 C -10.612,0.998 -11.836,1.917 -12.855,1.917 L -17.067,1.917 C -18.151,1.867 -18.942,1.516 -19.614,0.834 L -25.78,-6.23 C -26.287,-6.811 -26.478,-7.698 -26.478,-8.498 L -26.476,-11.584 C -26.482,-12.401 -25.656,-13.193 -23.716,-13.193 L -18.836,-13.19 L -17.671,-13.19 C -17.364,-13.19 -17.16,-13.277 -17.096,-13.524 C -17.03,-13.773 -17.05,-13.681 -17.015,-13.866 C -16.73,-15.361 -16.261,-15.851 -15.504,-15.851 L -12.202,-15.851 C -11.444,-15.851 -10.975,-15.361 -10.69,-13.865 C -10.659,-13.705 -10.567,-13.395 -10.567,-13.395 C -10.519,-13.273 -10.431,-13.19 -10.288,-13.153 C -10.04,-13.087 -10.133,-13.108 -9.947,-13.072 C -8.69,-12.833 -8.44,-12.065 -8.392,-11.826 C -8.388,-11.804 -8.384,-11.773 -8.381,-11.733 C -8.381,-11.733 -8.377,-9.335 -8.377,-9.332 C -8.377,-9.227 -8.387,-9.155 -8.394,-9.116 C -8.457,-8.849 -8.736,-8.132 -9.945,-7.901 M -13.938,-2.438 C -13.938,-3.061 -14.321,-3.298 -14.712,-3.298 L -15.618,-3.299 C -16.001,-3.299 -16.258,-3.41 -16.377,-3.54 L -16.977,-4.23 C -17.134,-4.414 -17.039,-4.601 -16.818,-4.601 L -14.714,-4.601 C -14.323,-4.601 -13.939,-4.833 -13.939,-5.456 L -13.939,-5.724 C -13.939,-6.346 -14.323,-6.584 -14.714,-6.584 L -18.307,-6.581 C -18.707,-6.581 -18.971,-6.696 -19.095,-6.832 L -19.681,-7.503 C -19.846,-7.694 -19.746,-7.89 -19.515,-7.89 C -19.496,-7.89 -14.712,-7.889 -14.712,-7.889 C -14.321,-7.889 -13.938,-8.121 -13.938,-8.743 L -13.938,-9.014 C -13.938,-9.636 -14.321,-9.874 -14.712,-9.874 C -14.712,-9.874 -22.242,-9.874 -22.358,-9.874 C -22.707,-9.874 -23.027,-9.688 -23.027,-9.26 C -23.027,-8.997 -23.028,-8.943 -23.028,-8.644 C -23.028,-8.191 -22.819,-7.87 -22.467,-7.492 L -17.674,-2.007 C -17.674,-2.007 -17.145,-1.348 -16.327,-1.313 C -16.211,-1.313 -14.712,-1.309 -14.712,-1.309 C -14.321,-1.309 -13.938,-1.541 -13.938,-2.164 L -13.938,-2.438 z M -5.176,-4.725 L -5.534,-4.725 L -5.534,-4.725 L -5.537,-4.725 L -5.614,-4.725 C -5.746,-4.717 -5.993,-4.659 -5.993,-4.337 C -5.993,-4.323 -5.993,-4.31 -5.994,-4.299 L -5.994,-3.934 C -5.994,-3.592 -6.265,-3.311 -6.597,-3.311 L -7.299,-3.311 C -7.63,-3.311 -7.901,-3.592 -7.901,-3.934 L -7.901,-4.511 C -8.006,-4.757 -8.327,-4.723 -8.327,-4.723 C -8.327,-4.723 -8.326,-4.724 -8.325,-4.725 L -8.731,-4.725 C -9.062,-4.725 -9.333,-5.006 -9.333,-5.348 L -9.333,-6.013 C -9.333,-6.356 -9.062,-6.636 -8.731,-6.636 L -8.373,-6.636 L -8.374,-6.636 C -8.374,-6.636 -8.372,-6.636 -8.368,-6.636 L -8.293,-6.636 C -8.16,-6.644 -7.908,-6.702 -7.901,-7.023 L -7.901,-7.401 C -7.901,-7.744 -7.63,-8.024 -7.299,-8.024 L -6.597,-8.024 C -6.265,-8.024 -5.994,-7.744 -5.994,-7.401 L -5.994,-7.09 C -5.993,-7.075 -5.992,-7.057 -5.992,-7.036 C -5.992,-6.704 -5.736,-6.644 -5.601,-6.636 L -5.523,-6.636 C -5.521,-6.636 -5.519,-6.636 -5.519,-6.636 L -5.52,-6.636 L -5.176,-6.636 C -4.845,-6.636 -4.573,-6.356 -4.573,-6.013 L -4.573,-5.348 C -4.573,-5.006 -4.845,-4.725 -5.176,-4.725 M -2.202,-1.282 L -3.574,-1.282 C -4.042,-1.282 -4.514,-1.616 -4.514,-2.361 L -4.514,-2.559 C -4.514,-3.523 -3.92,-3.627 -3.665,-3.627 L -3.464,-3.627 C -3.458,-3.647 -3.45,-3.684 -3.45,-3.755 L -3.45,-8.909 C -3.45,-9.407 -3.137,-9.909 -2.438,-9.909 L -2.193,-9.909 C -1.5,-9.909 -1.19,-9.407 -1.19,-8.909 L -1.19,-2.282 C -1.19,-1.784 -1.503,-1.282 -2.202,-1.282"
           style="fill:#6d368f;fill-rule:nonzero;stroke:none" />
      </g>
    </g>
  </g>
</svg>
