<?xml version="1.0" encoding="UTF-8" standalone="no"?>
<!-- Created with Inkscape (http://www.inkscape.org/) -->
<svg
   xmlns:dc="http://purl.org/dc/elements/1.1/"
   xmlns:cc="http://web.resource.org/cc/"
   xmlns:rdf="http://www.w3.org/1999/02/22-rdf-syntax-ns#"
   xmlns:svg="http://www.w3.org/2000/svg"
   xmlns="http://www.w3.org/2000/svg"
   xmlns:sodipodi="http://sodipodi.sourceforge.net/DTD/sodipodi-0.dtd"
   xmlns:inkscape="http://www.inkscape.org/namespaces/inkscape"
   width="140"
   height="138"
   id="svg2"
   sodipodi:version="0.32"
   inkscape:version="0.45.1"
   version="1.0"
   inkscape:output_extension="org.inkscape.output.svg.inkscape">
  <g
     inkscape:label="Layer 1"
     inkscape:groupmode="layer"
     id="layer1"
     transform="translate(-43.039303,-786.45426)">
    <g
       id="g27219"
       transform="matrix(1,0,0,-1,509.63185,39.21589)" />
    <g
       id="g28031"
       clip-path="url(#id304)"
       transform="matrix(5.9630292,0,0,-5.9630292,-1989.5075,3737.8518)">
      <g
         id="g28033"
         transform="translate(356.1182,484.6333)">
        <path
           id="path28035"
           d="M 0,0 C 0,-0.629 -0.387,-0.868 -0.782,-0.868 L -4.408,-0.865 C -4.812,-0.865 -5.078,-0.981 -5.203,-1.119 L -5.796,-1.795 C -5.961,-1.989 -5.86,-2.186 -5.628,-2.186 C -5.609,-2.186 -0.78,-2.185 -0.78,-2.185 C -0.386,-2.185 0.001,-2.419 0.001,-3.048 L 0.001,-3.321 C 0.001,-3.95 -0.386,-4.188 -0.78,-4.188 C -0.78,-4.188 -8.38,-4.189 -8.498,-4.189 C -8.849,-4.189 -9.172,-4.001 -9.172,-3.57 C -9.172,-3.303 -9.173,-3.249 -9.173,-2.948 C -9.173,-2.491 -8.963,-2.166 -8.607,-1.785 L -3.77,3.752 C -3.77,3.752 -3.236,4.417 -2.41,4.452 C -2.294,4.452 -0.78,4.457 -0.78,4.457 C -0.386,4.457 0.001,4.223 0.001,3.593 L 0.001,3.316 C 0.001,2.688 -0.386,2.448 -0.78,2.448 L -1.694,2.448 C -2.081,2.448 -2.34,2.336 -2.46,2.205 L -3.066,1.508 C -3.225,1.322 -3.129,1.133 -2.906,1.133 L -0.782,1.133 C -0.387,1.133 0,0.899 0,0.27 L 0,0 z M 5.597,-3.423 C 5.534,-3.154 5.252,-2.43 4.032,-2.197 C 3.846,-2.161 3.939,-2.182 3.688,-2.117 C 3.438,-2.052 3.357,-1.845 3.357,-1.536 L 3.357,-1.358 L 3.357,5.373 C 3.358,6.784 2.124,7.711 1.094,7.711 L -3.157,7.711 C -4.252,7.661 -5.05,7.308 -5.729,6.619 L -11.951,-0.511 C -12.463,-1.098 -12.656,-1.993 -12.656,-2.801 L -12.654,-5.915 C -12.66,-6.74 -11.826,-7.538 -9.868,-7.538 L -4.942,-7.538 L -3.767,-7.537 C -3.457,-7.537 -3.251,-7.623 -3.186,-7.874 C -3.12,-8.124 -3.14,-8.031 -3.105,-8.218 C -2.817,-9.727 -2.343,-10.223 -1.579,-10.223 L 1.754,-10.223 C 2.519,-10.223 2.992,-9.727 3.28,-8.217 C 3.311,-8.056 3.403,-7.743 3.403,-7.743 C 3.453,-7.62 3.541,-7.536 3.684,-7.498 C 3.935,-7.433 3.842,-7.453 4.029,-7.417 C 5.298,-7.174 5.551,-6.401 5.599,-6.16 C 5.603,-6.137 5.607,-6.106 5.611,-6.066 C 5.611,-6.066 5.614,-3.646 5.614,-3.643 C 5.614,-3.536 5.604,-3.463 5.597,-3.423"
           style="fill:#6d368f;fill-rule:nonzero;stroke:none" />
      </g>
      <g
         id="g28037"
         transform="translate(357.2121,494.3221)">
        <path
           id="path28039"
           d="M 0,0 C 1.081,0 2.165,-0.467 2.978,-1.28 C 3.791,-2.094 4.239,-3.17 4.239,-4.31 L 4.239,-10.21 L 4.421,-10.294 C 5.93,-10.987 6.338,-12.282 6.427,-12.662 C 6.427,-12.662 6.435,-12.695 6.437,-12.703 C 6.438,-12.713 6.444,-12.744 6.444,-12.744 C 6.479,-12.924 6.497,-13.122 6.497,-13.331 L 6.494,-15.758 C 6.494,-15.973 6.443,-16.236 6.443,-16.238 C 6.358,-16.665 5.937,-18.116 4.145,-18.807 L 3.997,-18.864 L 3.956,-19.015 C 3.761,-19.717 3.495,-20.271 3.145,-20.71 C 2.538,-21.469 1.655,-21.888 0.66,-21.888 L -2.673,-21.888 C -3.668,-21.888 -4.551,-21.469 -5.158,-20.71 C -5.441,-20.356 -5.665,-19.931 -5.844,-19.413 L -5.918,-19.201 L -10.962,-19.204 C -13.033,-19.204 -14.174,-18.491 -14.767,-17.895 C -15.384,-17.272 -15.724,-16.461 -15.724,-15.613 L -15.726,-12.488 C -15.726,-11.658 -15.572,-10.089 -14.534,-8.9 C -14.534,-8.9 -8.409,-1.883 -8.273,-1.726 C -8.263,-1.715 -8.231,-1.684 -8.231,-1.684 C -7.189,-0.626 -5.917,-0.076 -4.343,-0.003 C -4.34,-0.003 -4.259,-0.001 -4.247,0 L 0,0 z M -4.251,0.627 L -4.365,0.624 C -6.111,0.543 -7.519,-0.067 -8.678,-1.243 L -8.732,-1.299 L -15.007,-8.487 C -16.179,-9.83 -16.354,-11.571 -16.354,-12.49 L -16.352,-15.613 C -16.352,-16.628 -15.947,-17.595 -15.212,-18.337 C -14.535,-19.018 -13.249,-19.831 -10.962,-19.831 C -10.962,-19.831 -6.749,-19.83 -6.357,-19.829 C -6.167,-20.321 -5.935,-20.742 -5.649,-21.102 C -4.919,-22.013 -3.862,-22.515 -2.673,-22.515 L 0.66,-22.515 C 1.849,-22.515 2.907,-22.013 3.636,-21.102 C 4.014,-20.629 4.3,-20.043 4.514,-19.328 C 5.848,-18.763 6.797,-17.668 7.057,-16.361 C 7.061,-16.346 7.122,-16.035 7.122,-15.758 L 7.124,-13.332 C 7.124,-13.083 7.103,-12.845 7.061,-12.625 L 7.051,-12.573 L 7.039,-12.52 C 6.936,-12.085 6.482,-10.647 4.867,-9.816 L 4.867,-4.31 C 4.867,-3.003 4.353,-1.769 3.422,-0.837 C 2.493,0.093 1.246,0.627 0,0.627 L -4.251,0.627"
           style="fill:#6d368f;fill-rule:nonzero;stroke:none" />
      </g>
    </g>
  </g>
</svg>
