<svg xmlns="http://www.w3.org/2000/svg" width="397.299" height="247.201" viewBox="0 0 105.119 65.405"><defs><filter id="a" x="-.019" width="1.039" y="-.032" height="1.063" color-interpolation-filters="sRGB"><feGaussianBlur stdDeviation="3.075"/></filter></defs><path transform="matrix(.26458 0 0 .26458 -9.756 -4.728)" d="M282.035 25.246c-22.846 0-45.465 17.902-50.637 40.123-5.228 22.221 8.924 40.123 31.77 40.123h-2.559c-22.846 0-45.465 17.902-50.636 40.123-5.229 22.165 8.923 40.123 31.826 40.123h111.846c22.846 0 45.465-17.902 50.636-40.123 5.229-22.221-8.98-40.123-31.826-40.123h2.615c22.847 0 45.465-17.902 50.637-40.123 5.229-22.221-8.923-40.123-31.77-40.123zm12.617 34.44h67.971c7.502 0 12.162 5.854 10.457 13.072a17.788 17.788 0 0 1-16.596 13.185h-67.97c-7.445 0-12.106-5.854-10.4-13.129a17.788 17.788 0 0 1 16.538-13.128zm-191.636 45.806A38.76 38.76 0 0 0 66.87 134.25l-21.88 94.682c-3.638 15.913 6.534 28.756 22.902 28.756H216.11a38.816 38.816 0 0 0 36.258-28.756l9.264-40.352h-19.89a35.69 35.69 0 0 1-28.645-12.844 35.69 35.69 0 0 1-5.91-30.802c4.83-20.346 23.301-35.407 43.875-39.442zm175.04 18.301h67.971c7.502 0 12.106 5.852 10.4 13.127a17.788 17.788 0 0 1-16.536 13.129H271.92c-7.502 0-12.105-5.855-10.4-13.072a17.788 17.788 0 0 1 16.537-13.184zm-170.437 28.36H164.791c19.039 0 30.917 15.001 26.654 33.529l-4.66 20.119H93.297c-2.671 11.65 4.774 21.027 16.766 21.027h17.902a28.018 28.018 0 0 0 20.914-10.74h35.236a45.238 45.238 0 0 1-41.033 30.121H85.965c-19.039 0-30.915-14.947-26.653-33.531l6.25-26.996a45.181 45.181 0 0 1 42.057-33.53zm15.174 19.435a28.473 28.473 0 0 0-25.574 18.47H157.8c1.136-10.456-6.023-18.47-17.106-18.47z" opacity=".3" stroke-width="56.832" filter="url(#a)"/><path d="M63.278 1.423c-6.044 0-12.029 4.736-13.397 10.616-1.384 5.88 2.36 10.616 8.405 10.616h-.676c-6.045 0-12.03 4.736-13.398 10.616-1.384 5.864 2.36 10.616 8.42 10.616h29.593c6.045 0 12.03-4.737 13.398-10.616 1.383-5.88-2.376-10.616-8.42-10.616h.69c6.046 0 12.03-4.737 13.399-10.616 1.383-5.88-2.361-10.616-8.406-10.616zm3.339 9.112H84.6c1.985 0 3.218 1.549 2.766 3.459a4.707 4.707 0 0 1-4.39 3.488H64.993c-1.97 0-3.203-1.549-2.752-3.473a4.707 4.707 0 0 1 4.376-3.474zm-4.391 16.962H80.21c1.985 0 3.203 1.549 2.752 3.473a4.707 4.707 0 0 1-4.376 3.474H60.602c-1.985 0-3.203-1.549-2.752-3.459a4.707 4.707 0 0 1 4.376-3.488z" fill="#e19f00" stroke-width="15.037"/><path d="M15.912 22.655a10.255 10.255 0 0 0-9.563 7.609l-5.79 25.05c-.961 4.211 1.73 7.61 6.06 7.61h39.217a10.27 10.27 0 0 0 9.593-7.61L57.88 44.64h-5.263a9.443 9.443 0 0 1-7.578-3.399 9.443 9.443 0 0 1-1.564-8.15c1.278-5.383 6.165-9.367 11.608-10.435zM17.145 35h15.113c5.037 0 8.18 3.97 7.052 8.872l-1.233 5.323H13.34c-.707 3.082 1.263 5.564 4.436 5.564h4.737a7.413 7.413 0 0 0 5.533-2.842h9.323a11.97 11.97 0 0 1-10.857 7.97H11.401c-5.037 0-8.18-3.956-7.052-8.873l1.654-7.142A11.954 11.954 0 0 1 17.13 35zm4 5.143a7.533 7.533 0 0 0-6.766 4.887h16.029c.3-2.767-1.594-4.887-4.526-4.887z" fill="#e19f00" stroke-width="15.037"/></svg>