<?xml version="1.0" encoding="UTF-8"?>
<svg width="800" height="336.48" version="1.1" xmlns="http://www.w3.org/2000/svg">
	<path d="m439.54 22.625h61.485c16.235 0 31.246 6.8705 42.186 17.767 10.94 10.897 17.767 25.907 17.767 42.142v50.457c0 16.367-6.783 32.252-17.898 43.893-10.678 11.115-25.382 18.336-42.011 18.336h-61.485c-16.498 0-30.37-5.864-40.654-15.448-9.715-9.1023-16.104-21.487-18.38-35.49h-52.907v-0.48138h-0.5689v-62.229a22.576 22.576 0 0 0-6.608-15.798c-3.9823-4.1136-9.4524-6.6955-15.229-6.6955h-59.165c-6.3016 0-11.772 2.3631-15.623 6.3016-3.851 3.9385-6.2579 9.6712-6.2579 16.192v57.065c0 6.5204 2.3193 12.166 6.2579 16.148 3.851 3.9385 9.3212 6.3016 15.623 6.3016h48.794c15.929 0 30.283 6.783 40.698 17.417 10.678 10.853 17.242 25.775 17.242 41.529v55.533a63.353 63.353 0 0 1-17.111 43.192c-10.196 10.765-24.288 17.723-40.829 17.723-16.541 0-30.764-6.958-41.048-17.767a63.043 63.043 0 0 1-17.242-43.149v-55.577a58.303 58.303 0 0 1 4.6825-22.493h-181.96c-17.329 0-31.771-6.9143-42.098-17.811-10.94-11.553-17.198-27.57-17.198-44.461v-53.564c0-16.017 6.783-30.808 17.592-41.573s25.6-17.505 41.705-17.505h60.478c16.148 0 30.589 7.2206 41.136 18.161 11.028 11.465 17.811 27.044 17.811 42.842 0 16.148-6.783 32.077-17.767 43.761-10.546 11.247-25.031 18.599-41.179 18.599h-66.517v-36.366h66.517c5.864 0 11.334-3.0633 15.491-7.702 4.5074-4.9888 7.3081-11.728 7.3081-18.336 0-6.2141-2.8445-12.341-7.1768-16.892-4.2448-4.4637-9.89-7.4394-15.667-7.4394h-60.434a23.504 23.504 0 0 0-16.279 6.783c-4.2011 4.1136-6.9143 9.6712-6.9143 15.579v53.52c0 7.6145 2.4506 14.222 6.6517 18.861 4.026 4.3761 9.715 7.0018 16.498 7.0018h132.99a59.585 59.585 0 0 1-2.1443-6.6955 62.688 62.688 0 0 1-2.013-15.754v-56.933c0-16.41 6.2141-31.289 16.761-42.011 10.284-10.459 24.594-16.936 41.223-16.936h59.165c16.017 0 30.458 6.783 41.004 17.417 10.678 10.809 17.286 25.644 17.286 41.529v26.257h16.104v-25.294c0-16.279 6.8705-31.246 17.767-42.186 10.897-10.94 25.863-17.723 42.142-17.723m-159.9 181.57a22.843 22.843 0 0 0-6.608 15.798v55.533a25.95 25.95 0 0 0 6.5642 17.505c3.8948 4.2886 9.2774 6.958 15.273 6.958s11.378-2.6694 15.273-6.958a25.95 25.95 0 0 0 6.5642-17.505v-55.533c0-5.9953-2.5819-11.64-6.608-15.798-4.026-4.1573-9.4524-6.6955-15.229-6.6955-5.7765 0-11.247 2.6257-15.229 6.6955zm237.71-53.126a26.125 26.125 0 0 0 7.1769-18.03v-50.501c0-6.1266-2.8007-11.991-7.1331-16.367-4.3324-4.3761-10.196-7.1331-16.367-7.1331h-61.485c-6.3016 0-12.166 2.7132-16.498 7.0018a23.425 23.425 0 0 0-7.0018 16.498v50.457c0 7.7895 2.3194 14.266 6.4767 18.73 3.9823 4.2886 9.8463 6.7392 17.023 6.7392h60.784a23.631 23.631 0 0 0 17.023-7.3956z" fill="#fff"/>
	<path d="m698.3 0c56.146 0 101.7 45.512 101.7 101.7 0 56.189-45.512 101.7-101.7 101.7-56.189 0-101.7-45.512-101.7-101.7 0-56.189 45.556-101.7 101.7-101.7" fill="#fefefe"/>
	<path d="m756.63 136.23v-61.485c0-5.3826-2.4944-8.0958-7.527-8.0958-5.0325 0-9.1023 6.1266-9.2336 6.2579l-0.0875 0.08752-11.903 14.966-1.4004 1.7942-0.96274 1.2253-1.0065-1.2253-1.3566-1.7942-11.991-15.054-0.0875-0.13128c-0.0438-0.04376-4.1573-6.1703-9.1899-6.1703s-7.4832 2.7132-7.4832 8.0958v61.485h8.9273v-57.327l19.955 24.55a3.0633 3.0633 0 0 0 2.2318 0.96275 2.6826 2.6826 0 0 0 2.1881-0.91899l19.955-24.594v57.371h8.9711m-159.99-33.04m203.36-1.4879c0 56.189-45.556 101.7-101.7 101.7-55.533 0-100.61-44.461-101.66-99.732h45.118v32.558h8.9273v-32.558h18.555c3.0633 0 4.1573-2.0568 4.1573-3.9385 0-1.7942-1.094-3.7635-4.1573-3.7635h-18.555v-20.655h28.27c3.5009 0 3.676-3.1946 3.676-3.851s-0.17504-3.8948-3.676-3.8948h-32.427c-3.5009 0-4.7262 2.5819-4.7262 4.77v23.631h-44.943c2.9758-53.52 47.262-95.968 101.53-95.968 56.102 0 101.61 45.555 101.61 101.7z" fill="#95c02b"/>
	<g fill="#fff">
		<path d="m368.34 268.34 8.9273-1.3566c0.39386 1.7067 1.1378 3.0195 2.3194 3.8948 1.1816 0.87523 2.8007 1.3566 4.8575 1.3566 2.2756 0 4.026-0.43761 5.2076-1.2691a2.862 2.862 0 0 0 1.1816-2.3631 2.2756 2.2756 0 0 0-0.65642-1.6629c-0.43761-0.43762-1.4441-0.83147-2.9758-1.1816-7.1768-1.5754-11.728-3.0195-13.61-4.3324a8.656 8.656 0 0 1-3.9823-7.5707 9.238 9.238 0 0 1 3.4571-7.3519c2.2756-1.9692 5.864-2.9758 10.678-2.9758q6.8924 0 10.24 2.2318 3.3477 2.2318 4.5949 6.6955l-8.3584 1.5316a5.177 5.177 0 0 0-2.0568-3.0195c-1.0065-0.7002-2.4506-1.0503-4.2886-1.0503-2.3631 0-4.026 0.30634-5.0763 0.96277a2.0437 2.0437 0 0 0-1.0065 1.7942 1.978 1.978 0 0 0 0.87523 1.6192c0.7877 0.61266 3.5884 1.4441 8.3146 2.4944 4.7262 1.0503 8.0521 2.4069 9.9338 3.9385 1.8817 1.5316 2.8007 3.7635 2.8007 6.6079 0 3.0633-1.2691 5.7327-3.851 7.9208-2.5819 2.1881-6.3892 3.3258-11.422 3.3258-4.5512 0-8.1834-0.91899-10.853-2.757a12.319 12.319 0 0 1-5.2514-7.4832zm52.032-24.112v7.0456h-6.0828v13.61c0 2.757 0.0438 4.3761 0.17504 4.8137a2.2493 2.2493 0 0 0 0.78771 1.1378 2.3981 2.3981 0 0 0 1.4879 0.43762 11.43 11.43 0 0 0 3.5884-0.83147l0.74395 6.9143a17.68 17.68 0 0 1-7.0018 1.3128 11.566 11.566 0 0 1-4.3324-0.78772 5.934 5.934 0 0 1-2.8007-2.1005 8.621 8.621 0 0 1-1.2691-3.5009c-0.17504-1.0503-0.26256-3.1071-0.26256-6.3016v-14.704h-4.0698v-7.0456h4.0698v-6.6517l8.8835-5.2514v11.903zm12.209 33.565h-8.8835v-33.565h8.2271v4.77c1.4004-2.2318 2.6694-3.7197 3.8072-4.4199a7.1637 7.1637 0 0 1 3.851-1.0503 11.579 11.579 0 0 1 5.864 1.6629l-2.757 7.7458c-1.4879-0.96275-2.8882-1.4441-4.1573-1.4441a4.9406 4.9406 0 0 0-3.1508 1.0065c-0.87523 0.70018-1.5316 1.9255-2.0568 3.7197-0.52514 1.7942-0.74395 5.5577-0.74395 11.247zm34.178-19.605c-0.0438-2.5819-0.74396-4.5512-1.9693-5.864a6.0434 6.0434 0 0 0-4.5949-2.013 5.9822 5.9822 0 0 0-4.77 2.1443q-1.9036 2.1005-1.838 5.7765h13.172zm-0.52514 9.0148 8.8835 1.4879c-1.1378 3.2383-2.932 5.7327-5.3826 7.4394-2.4506 1.7067-5.5139 2.5382-9.1899 2.5382-5.8202 0-10.153-1.9255-12.953-5.7327-2.2318-3.0633-3.3259-6.9143-3.3259-11.597 0-5.5577 1.4441-9.9338 4.3761-13.085 2.932-3.1508 6.5642-4.7262 11.028-4.7262 4.9888 0 8.9273 1.6629 11.816 4.945 2.8882 3.2821 4.2448 8.3584 4.1136 15.185h-22.187c0.0438 2.6257 0.78772 4.6825 2.1443 6.1266a6.5642 6.5642 0 0 0 5.0763 2.1881 5.5095 5.5095 0 0 0 3.5009-1.1378c0.91899-0.74395 1.6192-1.9692 2.1005-3.6322zm32.646-5.4702a51.459 51.459 0 0 1-5.3826 1.3566c-2.4506 0.52514-4.0698 1.0503-4.8137 1.5316-1.1378 0.83146-1.7504 1.8817-1.7504 3.107a4.4068 4.4068 0 0 0 1.4004 3.2383 4.7831 4.7831 0 0 0 3.5447 1.3566 7.877 7.877 0 0 0 4.5949-1.5754 5.5095 5.5095 0 0 0 2.1005-2.932c0.21881-0.74395 0.35009-2.1881 0.35009-4.3324v-1.7504zm-11.903-7.1768-8.0083-1.4441c0.91899-3.2821 2.4506-5.689 4.6825-7.2644 2.2318-1.5754 5.5139-2.3631 9.8463-2.3631 3.9385 0 6.9143 0.48137 8.8398 1.4004 1.9255 0.91898 3.2821 2.1443 4.0698 3.5884 0.7877 1.4441 1.1816 4.0698 1.1816 7.9646l-0.13128 10.371c0 2.932 0.13128 5.1201 0.43761 6.5204a17.942 17.942 0 0 0 1.5754 4.5074h-8.796a26.283 26.283 0 0 1-0.83148-2.5819c-0.13128-0.52514-0.26257-0.87523-0.30632-1.0503a15.29 15.29 0 0 1-4.8575 3.3258 13.662 13.662 0 0 1-5.5139 1.1378c-3.4571 0-6.1703-0.919-8.1396-2.8007a10.026 10.026 0 0 1-1.6192-12.166 9.0017 9.0017 0 0 1 3.8072-3.4134c1.6192-0.78771 3.9823-1.4879 7.0456-2.0568 4.1573-0.7877 7.0018-1.4879 8.621-2.1881v-0.87523c0-1.7067-0.43762-2.9758-1.2691-3.7197-0.83147-0.74396-2.4506-1.094-4.77-1.094-1.5754 0-2.8007 0.30633-3.7197 0.96276-0.87523 0.5689-1.6192 1.6629-2.1443 3.2383zm26.257-10.328h8.1396v4.5949c2.932-3.5447 6.3892-5.2951 10.459-5.2951a11.378 11.378 0 0 1 5.6014 1.3128 10.166 10.166 0 0 1 3.8948 4.026 16.152 16.152 0 0 1 4.77-4.026 11.864 11.864 0 0 1 5.4702-1.3128c2.4506 0 4.5512 0.48137 6.2579 1.4879a9.0236 9.0236 0 0 1 3.8072 4.4199c0.61265 1.4441 0.91898 3.7197 0.91898 6.958v21.443h-8.8835v-19.167q0-4.9888-0.91899-6.4329c-0.83147-1.2691-2.1005-1.8817-3.8072-1.8817a6.1747 6.1747 0 0 0-3.5009 1.1378 6.2929 6.2929 0 0 0-2.3631 3.3259c-0.48138 1.4879-0.74396 3.7635-0.74396 6.9143v16.104h-8.8835v-18.38c0-3.2383-0.17505-5.3826-0.48137-6.3016a3.8991 3.8991 0 0 0-1.4879-2.1443 4.538 4.538 0 0 0-2.7132-0.70019 6.3716 6.3716 0 0 0-3.676 1.094 6.1266 6.1266 0 0 0-2.3631 3.1946c-0.48137 1.4004-0.70018 3.7197-0.70018 6.9143v16.279h-8.8835v-33.565zm52.557 24.112 8.9273-1.3566c0.39385 1.7067 1.1378 3.0195 2.3193 3.8948 1.1816 0.87523 2.8007 1.3566 4.8575 1.3566 2.2756 0 4.026-0.43761 5.2076-1.2691a2.862 2.862 0 0 0 1.1816-2.3631 2.2756 2.2756 0 0 0-0.65642-1.6629c-0.43762-0.43762-1.4441-0.83147-2.9758-1.1816-7.1768-1.5754-11.728-3.0195-13.61-4.3324a8.656 8.656 0 0 1-3.9823-7.5707 9.238 9.238 0 0 1 3.4571-7.3519c2.2756-1.9692 5.864-2.9758 10.678-2.9758q6.8924 0 10.24 2.2318 3.3477 2.2318 4.5949 6.6955l-8.3584 1.5316a5.177 5.177 0 0 0-2.0568-3.0195c-1.0065-0.7002-2.4506-1.0503-4.2886-1.0503-2.3631 0-4.026 0.30634-5.0763 0.96277a2.0437 2.0437 0 0 0-1.0065 1.7942 1.978 1.978 0 0 0 0.87522 1.6192c0.7877 0.61266 3.5884 1.4441 8.3146 2.4944 4.7262 1.0503 8.0521 2.4069 9.9338 3.9385 1.8817 1.5316 2.8007 3.7635 2.8007 6.6079 0 3.0633-1.2691 5.7327-3.851 7.9208-2.5819 2.1881-6.3891 3.3258-11.422 3.3258-4.5512 0-8.1834-0.91899-10.853-2.757a12.498 12.498 0 0 1-5.2514-7.4832z"/>
		<path d="m368.34 268.34 8.9273-1.3566c0.39386 1.7067 1.1378 3.0195 2.3194 3.8948 1.1816 0.87523 2.8007 1.3566 4.8575 1.3566 2.2756 0 4.026-0.43761 5.2076-1.2691a2.862 2.862 0 0 0 1.1816-2.3631 2.2756 2.2756 0 0 0-0.65642-1.6629c-0.43761-0.43762-1.4441-0.83147-2.9758-1.1816-7.1768-1.5754-11.728-3.0195-13.61-4.3324a8.656 8.656 0 0 1-3.9823-7.5707 9.238 9.238 0 0 1 3.4571-7.3519c2.2756-1.9692 5.864-2.9758 10.678-2.9758q6.8924 0 10.24 2.2318 3.3477 2.2318 4.5949 6.6955l-8.3584 1.5316a5.177 5.177 0 0 0-2.0568-3.0195c-1.0065-0.7002-2.4506-1.0503-4.2886-1.0503-2.3631 0-4.026 0.30634-5.0763 0.96277a2.0437 2.0437 0 0 0-1.0065 1.7942 1.978 1.978 0 0 0 0.87523 1.6192c0.7877 0.61266 3.5884 1.4441 8.3146 2.4944 4.7262 1.0503 8.0521 2.4069 9.9338 3.9385 1.8817 1.5316 2.8007 3.7635 2.8007 6.6079 0 3.0633-1.2691 5.7327-3.851 7.9208-2.5819 2.1881-6.3892 3.3258-11.422 3.3258-4.5512 0-8.1834-0.91899-10.853-2.757a12.319 12.319 0 0 1-5.2514-7.4832m52.032-24.112v7.0456h-6.0828v13.61c0 2.757 0.0438 4.3761 0.17504 4.8137a2.2493 2.2493 0 0 0 0.78771 1.1378 2.3981 2.3981 0 0 0 1.4879 0.43762 11.43 11.43 0 0 0 3.5884-0.83147l0.74395 6.9143a17.68 17.68 0 0 1-7.0018 1.3128 11.566 11.566 0 0 1-4.3324-0.78772 5.934 5.934 0 0 1-2.8007-2.1005 8.621 8.621 0 0 1-1.2691-3.5009c-0.17504-1.0503-0.26256-3.1071-0.26256-6.3016v-14.704h-4.0698v-7.0456h4.0698v-6.6517l8.8835-5.2514v11.903zm12.209 33.565h-8.8835v-33.565h8.2271v4.77c1.4004-2.2318 2.6694-3.7197 3.8072-4.4199a7.1637 7.1637 0 0 1 3.851-1.0503 11.579 11.579 0 0 1 5.864 1.6629l-2.757 7.7458c-1.4879-0.96275-2.8882-1.4441-4.1573-1.4441a4.9406 4.9406 0 0 0-3.1508 1.0065c-0.87523 0.70018-1.5316 1.9255-2.0568 3.7197-0.52514 1.7942-0.74395 5.5577-0.74395 11.247zm34.178-19.605c-0.0438-2.5819-0.74396-4.5512-1.9693-5.864a6.0434 6.0434 0 0 0-4.5949-2.013 5.9822 5.9822 0 0 0-4.77 2.1443q-1.9036 2.1005-1.838 5.7765h13.172zm-0.52514 9.0148 8.8835 1.4879c-1.1378 3.2383-2.932 5.7327-5.3826 7.4394-2.4506 1.7067-5.5139 2.5382-9.1899 2.5382-5.8202 0-10.153-1.9255-12.953-5.7327-2.2318-3.0633-3.3259-6.9143-3.3259-11.597 0-5.5577 1.4441-9.9338 4.3761-13.085 2.932-3.1508 6.5642-4.7262 11.028-4.7262 4.9888 0 8.9273 1.6629 11.816 4.945 2.8882 3.2821 4.2448 8.3584 4.1136 15.185h-22.187c0.0438 2.6257 0.78772 4.6825 2.1443 6.1266a6.5642 6.5642 0 0 0 5.0763 2.1881 5.5095 5.5095 0 0 0 3.5009-1.1378c0.91899-0.74395 1.6192-1.9692 2.1005-3.6322zm32.646-5.4702a51.459 51.459 0 0 1-5.3826 1.3566c-2.4506 0.52514-4.0698 1.0503-4.8137 1.5316-1.1378 0.83146-1.7504 1.8817-1.7504 3.107a4.4068 4.4068 0 0 0 1.4004 3.2383 4.7831 4.7831 0 0 0 3.5447 1.3566 7.877 7.877 0 0 0 4.5949-1.5754 5.5095 5.5095 0 0 0 2.1005-2.932c0.21881-0.74395 0.35009-2.1881 0.35009-4.3324v-1.7504zm-11.903-7.1768-8.0083-1.4441c0.91899-3.2821 2.4506-5.689 4.6825-7.2644 2.2318-1.5754 5.5139-2.3631 9.8463-2.3631 3.9385 0 6.9143 0.48137 8.8398 1.4004 1.9255 0.91898 3.2821 2.1443 4.0698 3.5884 0.7877 1.4441 1.1816 4.0698 1.1816 7.9646l-0.13128 10.371c0 2.932 0.13128 5.1201 0.43761 6.5204a17.942 17.942 0 0 0 1.5754 4.5074h-8.796a26.283 26.283 0 0 1-0.83148-2.5819c-0.13128-0.52514-0.26257-0.87523-0.30632-1.0503a15.29 15.29 0 0 1-4.8575 3.3258 13.662 13.662 0 0 1-5.5139 1.1378c-3.4571 0-6.1703-0.919-8.1396-2.8007a10.026 10.026 0 0 1-1.6192-12.166 9.0017 9.0017 0 0 1 3.8072-3.4134c1.6192-0.78771 3.9823-1.4879 7.0456-2.0568 4.1573-0.7877 7.0018-1.4879 8.621-2.1881v-0.87523c0-1.7067-0.43762-2.9758-1.2691-3.7197-0.83147-0.74396-2.4506-1.094-4.77-1.094-1.5754 0-2.8007 0.30633-3.7197 0.96276-0.87523 0.5689-1.6192 1.6629-2.1443 3.2383zm26.257-10.328h8.1396v4.5949c2.932-3.5447 6.3892-5.2951 10.459-5.2951a11.378 11.378 0 0 1 5.6014 1.3128 10.166 10.166 0 0 1 3.8948 4.026 16.152 16.152 0 0 1 4.77-4.026 11.864 11.864 0 0 1 5.4702-1.3128c2.4506 0 4.5512 0.48137 6.2579 1.4879a9.0236 9.0236 0 0 1 3.8072 4.4199c0.61265 1.4441 0.91898 3.7197 0.91898 6.958v21.443h-8.8835v-19.167q0-4.9888-0.91899-6.4329c-0.83147-1.2691-2.1005-1.8817-3.8072-1.8817a6.1747 6.1747 0 0 0-3.5009 1.1378 6.2929 6.2929 0 0 0-2.3631 3.3259c-0.48138 1.4879-0.74396 3.7635-0.74396 6.9143v16.104h-8.8835v-18.38c0-3.2383-0.17505-5.3826-0.48137-6.3016a3.8991 3.8991 0 0 0-1.4879-2.1443 4.538 4.538 0 0 0-2.7132-0.70019 6.3716 6.3716 0 0 0-3.676 1.094 6.1266 6.1266 0 0 0-2.3631 3.1946c-0.48137 1.4004-0.70018 3.7197-0.70018 6.9143v16.279h-8.8835v-33.565zm52.557 24.112 8.9273-1.3566c0.39385 1.7067 1.1378 3.0195 2.3193 3.8948 1.1816 0.87523 2.8007 1.3566 4.8575 1.3566 2.2756 0 4.026-0.43761 5.2076-1.2691a2.862 2.862 0 0 0 1.1816-2.3631 2.2756 2.2756 0 0 0-0.65642-1.6629c-0.43762-0.43762-1.4441-0.83147-2.9758-1.1816-7.1768-1.5754-11.728-3.0195-13.61-4.3324a8.656 8.656 0 0 1-3.9823-7.5707 9.238 9.238 0 0 1 3.4571-7.3519c2.2756-1.9692 5.864-2.9758 10.678-2.9758q6.8924 0 10.24 2.2318 3.3477 2.2318 4.5949 6.6955l-8.3584 1.5316a5.177 5.177 0 0 0-2.0568-3.0195c-1.0065-0.7002-2.4506-1.0503-4.2886-1.0503-2.3631 0-4.026 0.30634-5.0763 0.96277a2.0437 2.0437 0 0 0-1.0065 1.7942 1.978 1.978 0 0 0 0.87522 1.6192c0.7877 0.61266 3.5884 1.4441 8.3146 2.4944 4.7262 1.0503 8.0521 2.4069 9.9338 3.9385 1.8817 1.5316 2.8007 3.7635 2.8007 6.6079 0 3.0633-1.2691 5.7327-3.851 7.9208-2.5819 2.1881-6.3891 3.3258-11.422 3.3258-4.5512 0-8.1834-0.91899-10.853-2.757a12.498 12.498 0 0 1-5.2514-7.4832m-541.11 9.4524h-8.8835v-33.565h8.2271v4.77c1.4004-2.2318 2.6694-3.7197 3.8072-4.4199a7.1637 7.1637 0 0 1 3.851-1.0503 11.579 11.579 0 0 1 5.864 1.6629l-2.757 7.7458c-1.4879-0.96275-2.8882-1.4441-4.1573-1.4441a4.9406 4.9406 0 0 0-3.1508 1.0065c-0.87522 0.70018-1.5316 1.9255-2.0568 3.7197-0.52514 1.7942-0.74394 5.5577-0.74394 11.247zm32.733-16.06a51.459 51.459 0 0 1-5.3826 1.3566c-2.4506 0.52514-4.0698 1.0503-4.8137 1.5316-1.1378 0.83146-1.7505 1.8817-1.7505 3.107a4.4068 4.4068 0 0 0 1.4004 3.2383 4.7831 4.7831 0 0 0 3.5447 1.3566 7.877 7.877 0 0 0 4.5949-1.5754 5.5095 5.5095 0 0 0 2.1005-2.932c0.21881-0.74395 0.35009-2.1881 0.35009-4.3324v-1.7504zm-11.903-7.1768-8.0083-1.4441c0.91899-3.2821 2.4506-5.689 4.6825-7.2644 2.2318-1.5754 5.5139-2.3631 9.8463-2.3631 3.9385 0 6.9143 0.48137 8.8398 1.4004 1.9255 0.91898 3.2821 2.1443 4.0698 3.5884 0.7877 1.4441 1.1816 4.0698 1.1816 7.9646l-0.13128 10.371c0 2.932 0.13128 5.1201 0.43761 6.5204a17.942 17.942 0 0 0 1.5754 4.5074h-8.796a26.283 26.283 0 0 1-0.83146-2.5819c-0.13128-0.52514-0.26257-0.87523-0.30633-1.0503a15.29 15.29 0 0 1-4.8575 3.3258 13.662 13.662 0 0 1-5.5139 1.1378c-3.4571 0-6.1703-0.919-8.1396-2.8007a10.026 10.026 0 0 1-1.6192-12.166 9.0017 9.0017 0 0 1 3.8072-3.4134c1.6192-0.78771 3.9823-1.4879 7.0456-2.0568 4.1573-0.7877 7.0018-1.4879 8.621-2.1881v-0.87523c0-1.7067-0.43761-2.9758-1.2691-3.7197-0.83146-0.74396-2.4506-1.094-4.77-1.094-1.5754 0-2.8007 0.30633-3.7197 0.96276-0.87522 0.5689-1.5754 1.6629-2.1443 3.2383zm34.046 5.8202c0 3.5884 0.48137 6.1703 1.4879 7.7895 1.4441 2.3193 3.4134 3.5009 5.9953 3.5009 2.0568 0 3.7635-0.87522 5.2076-2.6257 1.4441-1.7504 2.1443-4.3324 2.1443-7.8333 0-3.851-0.70018-6.6517-2.1005-8.3584a6.5642 6.5642 0 0 0-5.3389-2.5382 6.6473 6.6473 0 0 0-5.2951 2.5382c-1.4004 1.6629-2.1005 4.1573-2.1005 7.527zm23.675 17.417h-8.2271v-4.945a13.413 13.413 0 0 1-4.8575 4.3324 12.297 12.297 0 0 1-5.6452 1.4441c-3.851 0-7.1769-1.5316-9.9338-4.6825-2.757-3.1508-4.1136-7.4394-4.1136-13.041 0-5.689 1.3566-10.021 4.026-12.997a13.085 13.085 0 0 1 10.153-4.4636c3.7635 0 7.0018 1.5754 9.7588 4.6825v-16.717h8.8835v46.387zm6.2579 0v-33.565h8.8835v33.565zm0-38.116v-8.2271h8.8835v8.2271zm22.581 21.399c0 3.3258 0.7877 5.9078 2.3631 7.6582a7.4919 7.4919 0 0 0 5.864 2.6694 7.4044 7.4044 0 0 0 5.8203-2.6694c1.5754-1.7505 2.3631-4.3324 2.3631-7.702 0-3.2821-0.78771-5.8202-2.3631-7.5707a7.4044 7.4044 0 0 0-5.8203-2.6694 7.5532 7.5532 0 0 0-5.864 2.6694c-1.5754 1.7067-2.3631 4.2886-2.3631 7.6145zm-9.1024-0.48137a18.24 18.24 0 0 1 2.1881-8.5772 15.141 15.141 0 0 1 6.1703-6.3454 18.472 18.472 0 0 1 8.9273-2.1881c5.0763 0 9.2336 1.6629 12.472 4.945 3.2383 3.2821 4.8575 7.4832 4.8575 12.516 0 5.0325-1.6192 9.3211-4.9013 12.647s-7.3957 5.0326-12.384 5.0326a19.421 19.421 0 0 1-8.796-2.1005 14.1 14.1 0 0 1-6.3454-6.1266c-1.4879-2.6694-2.1881-5.9515-2.1881-9.8025zm67.874-3.9823c-2.013 1.0503-3.5447 2.2756-4.5512 3.7197a7.6845 7.6845 0 0 0-1.4879 4.4636 6.1003 6.1003 0 0 0 1.8817 4.6825c1.2253 1.2253 2.932 1.838 5.0326 1.838a9.5618 9.5618 0 0 0 3.9823-0.83146 18.638 18.638 0 0 0 4.2011-2.7132zm3.5009-9.6712 2.3631-1.838q2.6257-2.0349 2.6257-4.0698a4.0129 4.0129 0 0 0-1.2691-2.932 4.7831 4.7831 0 0 0-3.4134-1.2253q-2.1005 0-3.2821 1.0503a3.2121 3.2121 0 0 0-1.1816 2.4506c0 1.094 0.65642 2.4069 2.013 3.9823zm24.156 25.25-5.3826 6.8268a31.259 31.259 0 0 1-7.5707-5.2951 19.277 19.277 0 0 1-5.9515 3.7197 21.404 21.404 0 0 1-7.5269 1.1816q-8.6647 0-12.997-4.8575a12.621 12.621 0 0 1-3.3696-8.6647 12.883 12.883 0 0 1 2.6694-8.0083c1.7504-2.3631 4.4199-4.4199 7.9646-6.1703a24.979 24.979 0 0 1-3.5884-5.3826 11.684 11.684 0 0 1-1.2253-4.8137 9.1199 9.1199 0 0 1 3.3696-7.1331c2.2318-1.9692 5.4264-2.932 9.5837-2.932 3.9823 0 7.1331 1.0065 9.3649 3.0633a9.8244 9.8244 0 0 1 3.3696 7.4832 9.6012 9.6012 0 0 1-1.6629 5.3389c-1.094 1.6629-3.3259 3.5884-6.6955 5.7327l6.3892 8.5772a23.692 23.692 0 0 0 1.9692-5.2514l8.0521 1.7942a43.923 43.923 0 0 1-2.1005 6.2579 18.008 18.008 0 0 1-1.8817 3.3258 43.814 43.814 0 0 0 3.851 3.0633 33.307 33.307 0 0 0 3.3696 2.1443z"/>
		<path d="m24.678 277.8h-8.8835v-33.565h8.2271v4.77c1.4004-2.2318 2.6694-3.7197 3.8072-4.4199a7.1637 7.1637 0 0 1 3.851-1.0503 11.579 11.579 0 0 1 5.864 1.6629l-2.757 7.7458c-1.4879-0.96275-2.8882-1.4441-4.1573-1.4441a4.9406 4.9406 0 0 0-3.1508 1.0065c-0.87522 0.70018-1.5316 1.9255-2.0568 3.7197-0.52514 1.7942-0.74394 5.5577-0.74394 11.247zm32.733-16.06a51.459 51.459 0 0 1-5.3826 1.3566c-2.4506 0.52514-4.0698 1.0503-4.8137 1.5316-1.1378 0.83146-1.7505 1.8817-1.7505 3.107a4.4068 4.4068 0 0 0 1.4004 3.2383 4.7831 4.7831 0 0 0 3.5447 1.3566 7.877 7.877 0 0 0 4.5949-1.5754 5.5095 5.5095 0 0 0 2.1005-2.932c0.21881-0.74395 0.35009-2.1881 0.35009-4.3324v-1.7504zm-11.903-7.1768-8.0083-1.4441c0.91899-3.2821 2.4506-5.689 4.6825-7.2644 2.2318-1.5754 5.5139-2.3631 9.8463-2.3631 3.9385 0 6.9143 0.48137 8.8398 1.4004 1.9255 0.91898 3.2821 2.1443 4.0698 3.5884 0.7877 1.4441 1.1816 4.0698 1.1816 7.9646l-0.13128 10.371c0 2.932 0.13128 5.1201 0.43761 6.5204a17.942 17.942 0 0 0 1.5754 4.5074h-8.796a26.283 26.283 0 0 1-0.83146-2.5819c-0.13128-0.52514-0.26257-0.87523-0.30633-1.0503a15.29 15.29 0 0 1-4.8575 3.3258 13.662 13.662 0 0 1-5.5139 1.1378c-3.4571 0-6.1703-0.919-8.1396-2.8007a10.026 10.026 0 0 1-1.6192-12.166 9.0017 9.0017 0 0 1 3.8072-3.4134c1.6192-0.78771 3.9823-1.4879 7.0456-2.0568 4.1573-0.7877 7.0018-1.4879 8.621-2.1881v-0.87523c0-1.7067-0.43761-2.9758-1.2691-3.7197-0.83146-0.74396-2.4506-1.094-4.77-1.094-1.5754 0-2.8007 0.30633-3.7197 0.96276-0.87522 0.5689-1.5754 1.6629-2.1443 3.2383zm34.046 5.8202c0 3.5884 0.48137 6.1703 1.4879 7.7895 1.4441 2.3193 3.4134 3.5009 5.9953 3.5009 2.0568 0 3.7635-0.87522 5.2076-2.6257 1.4441-1.7504 2.1443-4.3324 2.1443-7.8333 0-3.851-0.70018-6.6517-2.1005-8.3584a6.5642 6.5642 0 0 0-5.3389-2.5382 6.6473 6.6473 0 0 0-5.2951 2.5382c-1.4004 1.6629-2.1005 4.1573-2.1005 7.527m23.675 17.417h-8.2271v-4.945a13.413 13.413 0 0 1-4.8575 4.3324 12.297 12.297 0 0 1-5.6452 1.4441c-3.851 0-7.1769-1.5316-9.9338-4.6825-2.757-3.1508-4.1136-7.4394-4.1136-13.041 0-5.689 1.3566-10.021 4.026-12.997a13.085 13.085 0 0 1 10.153-4.4636c3.7635 0 7.0018 1.5754 9.7588 4.6825v-16.717h8.8835v46.387zm6.2579 0v-33.565h8.8835v33.565zm0-38.116v-8.2271h8.8835v8.2271zm22.581 21.399c0 3.3258 0.7877 5.9078 2.3631 7.6582a7.4919 7.4919 0 0 0 5.864 2.6694 7.4044 7.4044 0 0 0 5.8203-2.6694c1.5754-1.7505 2.3631-4.3324 2.3631-7.702 0-3.2821-0.78771-5.8202-2.3631-7.5707a7.4044 7.4044 0 0 0-5.8203-2.6694 7.5532 7.5532 0 0 0-5.864 2.6694c-1.5754 1.7067-2.3631 4.2886-2.3631 7.6145m-9.1024-0.48137a18.24 18.24 0 0 1 2.1881-8.5772 15.141 15.141 0 0 1 6.1703-6.3454 18.472 18.472 0 0 1 8.9273-2.1881c5.0763 0 9.2336 1.6629 12.472 4.945 3.2383 3.2821 4.8575 7.4832 4.8575 12.516 0 5.0325-1.6192 9.3211-4.9013 12.647s-7.3957 5.0326-12.384 5.0326a19.421 19.421 0 0 1-8.796-2.1005 14.1 14.1 0 0 1-6.3454-6.1266c-1.4879-2.6694-2.1881-5.9515-2.1881-9.8025zm67.874-3.9823c-2.013 1.0503-3.5447 2.2756-4.5512 3.7197a7.6845 7.6845 0 0 0-1.4879 4.4636 6.1003 6.1003 0 0 0 1.8817 4.6825c1.2253 1.2253 2.932 1.838 5.0326 1.838a9.5618 9.5618 0 0 0 3.9823-0.83146 18.638 18.638 0 0 0 4.2011-2.7132zm3.5009-9.6712 2.3631-1.838q2.6257-2.0349 2.6257-4.0698a4.0129 4.0129 0 0 0-1.2691-2.932 4.7831 4.7831 0 0 0-3.4134-1.2253q-2.1005 0-3.2821 1.0503a3.2121 3.2121 0 0 0-1.1816 2.4506c0 1.094 0.65642 2.4069 2.013 3.9823zm24.156 25.25-5.3826 6.8268a31.259 31.259 0 0 1-7.5707-5.2951 19.277 19.277 0 0 1-5.9515 3.7197 21.404 21.404 0 0 1-7.5269 1.1816q-8.6647 0-12.997-4.8575a12.621 12.621 0 0 1-3.3696-8.6647 12.883 12.883 0 0 1 2.6694-8.0083c1.7504-2.3631 4.4199-4.4199 7.9646-6.1703a24.979 24.979 0 0 1-3.5884-5.3826 11.684 11.684 0 0 1-1.2253-4.8137 9.1199 9.1199 0 0 1 3.3696-7.1331c2.2318-1.9692 5.4264-2.932 9.5837-2.932 3.9823 0 7.1331 1.0065 9.3649 3.0633a9.8244 9.8244 0 0 1 3.3696 7.4832 9.6012 9.6012 0 0 1-1.6629 5.3389c-1.094 1.6629-3.3259 3.5884-6.6955 5.7327l6.3892 8.5772a23.692 23.692 0 0 0 1.9692-5.2514l8.0521 1.7942a43.923 43.923 0 0 1-2.1005 6.2579 18.008 18.008 0 0 1-1.8817 3.3258 43.814 43.814 0 0 0 3.851 3.0633 33.307 33.307 0 0 0 3.3696 2.1443z"/>
	</g>
</svg>
