<?xml version="1.0" encoding="UTF-8" standalone="no"?>
<!-- Created with Inkscape (http://www.inkscape.org/) -->
<svg xmlns:svg="http://www.w3.org/2000/svg" xmlns="http://www.w3.org/2000/svg" version="1.0" width="584.13513" height="96.232697" id="svg2426">
  <defs id="defs2428"/>
  <g transform="translate(34.2858, -400.214)" id="layer1">
    <g id="g3304">
      <path d="M 13.096219,468.3734 L -22.076932,468.3734 C -22.409401,481.13235 -16.751089,486.90408 -5.7669333,486.90408 C -0.10862012,486.90408 5.771177,485.57274 10.322556,483.35255 L 11.43241,492.78387 C 5.8850831,495.11505 -0.88649209,496.3359 -7.6517388,496.3359 C -24.851083,496.3359 -34.285822,487.45755 -34.285822,468.04142 C -34.285822,451.39553 -25.186473,438.96905 -9.0940634,438.96905 C 6.6600343,438.96905 13.428202,449.73172 13.428202,462.82606 C 13.428202,464.37889 13.320624,466.2671 13.096219,468.3734 M -9.5433606,447.73641 C -16.197622,447.73641 -20.859986,452.61638 -21.855934,460.05241 L 1.5551887,460.05241 C 1.7766729,452.50929 -2.5503001,447.73641 -9.5433606,447.73641 z" id="path2444" style="fill: rgb(197, 24, 47); fill-opacity: 1;"/>
      <path d="M 28.571394,431.86502 C 24.355405,431.86502 20.914368,428.53788 20.914368,424.43288 C 20.914368,420.32739 24.355405,416.99685 28.571394,416.99685 C 32.676883,416.99685 36.11792,420.21688 36.11792,424.43288 C 36.11792,428.53788 32.676883,431.86502 28.571394,431.86502 M 22.578177,440.07891 L 34.454597,440.07891 L 34.454597,495.22556 L 22.578177,495.22556 L 22.578177,440.07891 z" id="path2446" style="fill: rgb(197, 24, 47); fill-opacity: 1;"/>
      <path d="M 81.830311,495.22556 L 81.830311,459.71994 C 81.830311,452.83786 79.945017,448.84336 73.618358,448.84336 C 65.298341,448.84336 59.193653,457.61023 59.193653,468.59488 L 59.193653,495.22556 L 47.320639,495.22556 L 47.320639,440.07891 L 58.640672,440.07891 C 58.640672,442.96355 58.419188,447.73641 57.8628,450.84206 L 57.972811,450.95597 C 61.192364,443.85242 67.850033,438.96905 77.171354,438.96905 C 89.70736,438.96905 93.591851,446.85097 93.591851,456.61429 L 93.591851,495.22556 L 81.830311,495.22556 L 81.830311,495.22556 z" id="path2448" style="fill: rgb(197, 24, 47); fill-opacity: 1;"/>
      <path d="M 114.075,496.3359 C 109.96562,496.3359 105.86159,495.89293 102.42007,495.22556 L 102.75497,485.13026 C 106.19309,486.1262 110.52055,486.90408 114.73945,486.90408 C 121.17613,486.90408 125.61311,484.13041 125.61311,479.57904 C 125.6136,468.4873 101.42412,475.14204 101.42412,456.05742 C 101.42412,446.51558 109.19115,438.96905 124.17079,438.96905 C 127.39083,438.96905 131.15995,439.41495 134.49147,439.96842 L 134.1551,449.62123 C 130.82846,448.62188 126.94396,448.06841 123.39292,448.06841 C 116.84526,448.06841 113.62863,450.73157 113.62863,454.94755 C 113.62863,465.59973 138.03911,460.16291 138.03911,478.46918 C 138.03959,488.78937 128.83315,496.3359 114.075,496.3359 L 114.075,496.3359 z" id="path2450" style="fill: rgb(197, 24, 47); fill-opacity: 1;"/>
      <path d="M 181.20223,427.87392 C 179.20694,427.20654 176.98625,426.87455 175.09755,426.87455 C 169.99222,426.87455 167.66542,429.31624 167.66542,435.19554 L 167.66542,440.07891 L 178.98545,440.07891 L 178.98545,453.05886 L 167.66542,453.05886 L 167.66542,495.22556 L 150.79854,495.22556 L 150.79854,453.05886 L 142.36705,453.05886 L 142.36705,440.07891 L 150.79854,440.07891 L 150.79854,435.30653 C 150.79854,420.65937 157.34475,413.22724 173.43325,413.22724 C 176.32179,413.22724 179.42502,413.44823 182.31501,414.11269 L 181.20223,427.87392 L 181.20223,427.87392 z" id="path2452" style="fill: rgb(197, 24, 47); fill-opacity: 1;"/>
      <path d="M 231.00942,471.81443 L 198.16354,471.81443 C 198.27356,479.13655 202.71395,483.35255 211.81038,483.35255 C 217.25062,483.35255 222.90893,482.24219 228.01086,479.91443 L 229.56708,492.67338 C 223.35239,495.22556 215.91636,496.4464 209.15063,496.4464 C 191.06291,496.4464 181.07665,487.67903 181.07665,468.2629 C 181.07714,451.28503 190.50992,438.74757 207.59439,438.74757 C 224.23638,438.74757 231.56239,449.95662 231.56239,464.37889 C 231.56239,466.71007 231.34042,469.14835 231.00942,471.81443 M 207.15142,451.06355 C 202.26757,451.06355 198.71994,454.94755 198.27356,460.60879 L 214.9204,460.60879 C 215.14043,454.39409 212.03186,451.06355 207.15142,451.06355 L 207.15142,451.06355 z" id="path2454" style="fill: rgb(197, 24, 47); fill-opacity: 1;"/>
      <path d="M 250.67526,496.4464 C 246.79125,496.4464 242.79675,496.00392 239.24522,495.55754 L 239.5806,481.79972 C 242.90676,482.79907 247.12227,483.57402 251.12164,483.57402 C 255.44763,483.57402 258.10739,481.79972 258.10739,479.24706 C 258.10788,471.14706 237.8029,475.47403 237.8029,457.16775 C 237.8029,447.17954 245.90337,438.74757 262.21678,438.74757 C 265.32194,438.74757 268.75957,439.19054 271.86959,439.63642 L 271.53664,452.84127 C 268.65345,451.95242 265.10045,451.50604 261.77381,451.50604 C 257.44294,451.50604 255.44763,453.16984 255.44763,455.72543 C 255.44763,462.60458 276.08558,460.4983 276.08558,477.80472 C 276.08558,489.23526 266.0964,496.4464 250.67526,496.4464 L 250.67526,496.4464 z" id="path2456" style="fill: rgb(197, 24, 47); fill-opacity: 1;"/>
      <path d="M 304.75147,496.4464 C 291.99252,496.4464 287.88461,492.227 287.88461,478.69017 L 287.88461,453.06226 L 279.56313,453.06226 L 279.56313,440.07891 L 287.88461,440.07891 L 287.88461,423.76502 L 304.75147,419.21753 L 304.75147,440.07891 L 316.73646,440.07891 L 316.73646,453.06226 L 304.86149,453.06226 L 304.86149,474.81006 C 304.86149,480.46789 306.30381,482.35269 310.52321,482.35269 C 312.51852,482.35269 314.96068,481.91021 316.73596,481.46433 L 316.73646,494.89356 C 313.07685,495.78243 308.74598,496.4464 304.75147,496.4464 L 304.75147,496.4464 z" id="path2458" style="fill: rgb(197, 24, 47); fill-opacity: 1;"/>
      <path d="M 335.19947,434.31059 C 329.54116,434.31059 324.8822,429.87311 324.8822,424.32237 C 324.8822,418.77456 329.54116,414.33709 335.19947,414.33709 C 340.9712,414.33709 345.63016,418.77456 345.63016,424.32237 C 345.63016,429.75921 340.9712,434.31059 335.19947,434.31059 M 326.76603,440.07891 L 343.63485,440.07891 L 343.63485,495.22556 L 326.76603,495.22556 L 326.76603,440.07891 z" id="path2460" style="fill: rgb(197, 24, 47); fill-opacity: 1;"/>
      <path d="M 386.04348,495.22556 L 368.84706,495.22556 L 348.53914,440.07891 L 367.06983,440.07891 L 373.83751,459.60603 C 375.27984,463.71493 376.72557,468.81977 377.83688,473.03576 L 378.05495,473.03576 C 378.94284,468.93027 380.1671,464.2684 381.60942,460.16291 L 388.37369,440.07891 L 406.35188,440.07891 L 386.04348,495.22556 L 386.04348,495.22556 z" id="path2462" style="fill: rgb(197, 24, 47); fill-opacity: 1;"/>
      <path d="M 438.92222,495.22556 C 438.92222,492.56239 438.92222,489.67823 439.36519,486.90408 L 439.25032,486.90408 C 436.59202,492.67338 430.04387,496.4464 422.38685,496.4464 C 411.84469,496.4464 406.29785,490.2312 406.29785,481.35334 C 406.29785,467.37403 419.83516,460.71978 437.36988,460.71978 L 437.36988,458.61008 C 437.36988,454.06211 434.81624,451.84191 427.49218,451.84191 C 422.60882,451.84191 415.95066,453.39474 411.40318,455.83641 L 410.06746,441.85662 C 415.72917,440.07891 423.16471,438.63707 430.04387,438.63707 C 449.02142,438.63707 454.34288,445.73722 454.34288,458.38859 L 454.34288,482.1317 C 454.34288,486.1262 454.45484,490.89906 454.78585,495.22556 L 438.92222,495.22556 L 438.92222,495.22556 z M 437.36988,471.48293 C 425.16002,471.48293 422.27684,474.81006 422.27684,478.80116 C 422.27684,481.57482 424.27214,483.57402 427.82367,483.57402 C 433.48199,483.57402 437.36988,478.46918 437.36988,473.03576 L 437.36988,471.48293 L 437.36988,471.48293 z" id="path2464" style="fill: rgb(197, 24, 47); fill-opacity: 1;"/>
      <polygon points="144.509,59.8568 147.973,59.8568 147.973,76.4973 144.509,76.4973 144.509,59.8568" transform="matrix(4.86778, 0, 0, 4.86778, -240.309, 122.853)" id="polygon2466" style="fill: rgb(197, 24, 47); fill-opacity: 1;"/>
      <path d="M 519.99517,400.2137 C 536.47603,400.2137 549.8493,413.58258 549.8493,430.07075 C 549.8493,446.55891 536.48918,459.93801 519.99517,459.93801 C 503.48901,459.93801 490.12694,446.55891 490.12694,430.07075 C 490.12694,413.58258 503.48901,400.2137 519.99517,400.2137 M 531.98502,442.17206 L 531.98502,412.27121 L 501.92644,423.06114 L 501.92644,430.48354 L 511.87814,426.89451 L 511.87814,449.35641 L 531.98502,442.17206 L 531.98502,442.17206 z M 519.99517,404.58741 C 505.9156,404.58741 494.51135,415.99067 494.51135,430.07075 C 494.51135,444.14399 505.9156,455.55457 519.99517,455.55457 C 534.06162,455.55457 545.46196,444.14399 545.46196,430.07075 C 545.46196,415.99067 534.05772,404.58741 519.99517,404.58741 z" id="path2468" style="fill: rgb(197, 24, 47); fill-opacity: 1;"/>
    </g>
  </g>
</svg>