<?xml version="1.0" encoding="UTF-8" standalone="no"?>
<!-- Created with Inkscape (http://www.inkscape.org/) -->

<svg
   xmlns:dc="http://purl.org/dc/elements/1.1/"
   xmlns:cc="http://creativecommons.org/ns#"
   xmlns:rdf="http://www.w3.org/1999/02/22-rdf-syntax-ns#"
   xmlns:svg="http://www.w3.org/2000/svg"
   xmlns="http://www.w3.org/2000/svg"
   version="1.1"
   width="163.35811"
   height="41.111217"
   id="svg3058">
  <metadata
     id="metadata3064">
    <rdf:RDF>
      <cc:Work
         rdf:about="">
        <dc:format>image/svg+xml</dc:format>
        <dc:type
           rdf:resource="http://purl.org/dc/dcmitype/StillImage" />
        <dc:title></dc:title>
      </cc:Work>
    </rdf:RDF>
  </metadata>
  <defs
     id="defs3062">
    <linearGradient
       id="linearGradient5905">
      <stop
         id="stop5907"
         style="stop-color:#eb008b;stop-opacity:1"
         offset="0" />
      <stop
         id="stop5913"
         style="stop-color:#ffffff;stop-opacity:1"
         offset="0.49565217" />
      <stop
         id="stop5909"
         style="stop-color:#eb008b;stop-opacity:1"
         offset="1" />
    </linearGradient>
  </defs>
  <path
     d="m 87.000183,16.022654 c -1.664181,0 -2.512564,0.695034 -3.295709,1.700063 l 0,7.655166 c 0.81578,1.122501 2.055739,1.73922 3.589387,1.73922 2.055732,0 3.165182,-1.781629 3.165182,-5.178495 0,-4.179993 -1.370498,-5.915954 -3.45886,-5.915954 m 1.011559,16.119582 c -1.794702,0 -3.328339,-0.695033 -4.307268,-1.585851 l 0,5.95184 -5.318806,2.665936 0,-27.749177 5.318806,0 0,1.275872 c 1.011564,-0.884298 2.349416,-1.703325 4.307268,-1.703325 4.307249,0 7.863999,3.250009 7.863999,10.823604 0,6.069314 -2.83887,10.321101 -7.863999,10.321101"
     id="path8861"
     style="font-size:10px;letter-spacing:0;word-spacing:0;fill:#b0c200;fill-rule:nonzero;stroke:none" />
  <path
     d="m 103.4375,3.5487194 -5.3125,2.6562496 0,25.5 5.3125,0 0,-28.1562496 z"
     id="path3219"
     style="font-size:10px;letter-spacing:0;word-spacing:0;fill:#b0c200;fill-rule:nonzero;stroke:none" />
  <path
     d="M 10.46875,10.986219 C 4.6409585,10.986219 1,15.782153 1,21.579969 l 0,0.0625 c 0,6.214653 4.0166704,10.5 10.03125,10.5 3.62369,0 5.850868,-0.713057 7.71875,-3.0625 l -2.78125,-2.9375 c -1.569021,1.477875 -2.969761,1.78125 -4.875,1.78125 -2.54032,0 -4.314636,-1.760298 -4.875,-4.375 l 13.28125,0 c 0,0 0.125,-1.576519 0.125,-2.03125 0,-5.759921 -2.469235,-10.53125 -9.15625,-10.53125 z m 0,4.21875 c 2.390888,0 3.882531,1.766942 4.21875,4.34375 l -8.5625,0 c 0.448291,-2.614702 1.990218,-4.34375 4.34375,-4.34375 z"
     id="path3217"
     style="font-size:10px;letter-spacing:0;word-spacing:0;fill:#b0c200;fill-rule:nonzero;stroke:none" />
  <path
     d="m 118.49627,31.71803 0,-1.35743 c -0.94628,0.96913 -2.64309,1.781636 -4.76408,1.781636 -5.18828,0 -7.50506,-3.556755 -7.50506,-9.276912 l 0,-11.44034 5.3188,0 0,10.973718 c 0,3.635067 1.23996,4.718401 3.45886,4.718401 2.18626,0 3.49148,-1.083334 3.49148,-4.600928 l 0,-11.091191 5.31882,0 0,20.293046 -5.31882,0 z"
     id="path8865"
     style="font-size:10px;letter-spacing:0;word-spacing:0;fill:#b0c200;fill-rule:nonzero;stroke:none" />
  <path
     d="m 134.0159,32.142236 c -3.19781,0 -6.33035,-0.926716 -8.48399,-2.359196 l 1.76207,-4.056002 c 2.18626,1.194279 4.43778,1.850167 7.04823,1.850167 2.08837,0 2.70835,-0.499262 2.70835,-1.543436 0,-0.926715 -0.75051,-1.393328 -2.9694,-2.045953 -4.8946,-1.471641 -8.02716,-2.669198 -8.02716,-6.956871 0,-4.212634 3.39361,-6.033414 8.12505,-6.033414 2.5452,0 5.31882,0.773345 7.50509,1.974154 l -1.69681,4.212623 c -2.0231,-1.083337 -4.20935,-1.625008 -5.90617,-1.625008 -2.18625,0 -2.77361,0.427459 -2.77361,1.311768 0,0.851649 0.61999,1.20406 4.20937,2.359188 3.65463,1.197542 6.78718,2.512566 6.78718,6.571832 0,4.679247 -3.71989,6.340148 -8.2882,6.340148"
     id="path8867"
     style="font-size:10px;letter-spacing:0;word-spacing:0;fill:#b0c200;fill-rule:nonzero;stroke:none" />
  <path
     d="m 157.49612,12.410963 0,-8.1283076 -8.19031,2.9334946 0,2.019849 2.70835,-0.982189 0,6.111727 5.48196,-1.954574 z M 154.23304,2.1910214 c -3.85041,0 -6.95034,3.103185 -6.95034,6.9307656 0,3.827587 3.09993,6.930756 6.95034,6.930756 3.8178,0 6.91772,-3.103169 6.91772,-6.930756 0,-3.8275806 -3.09992,-6.9307656 -6.91772,-6.9307656 M 154.23304,1 c 4.47042,0 8.12507,3.6350564 8.12507,8.121787 0,4.486721 -3.65465,8.121789 -8.12507,8.121789 -4.50303,0 -8.12505,-3.635068 -8.12505,-8.121789 C 146.10799,4.6350564 149.73001,1 154.23304,1"
     id="path8869"
     style="font-size:10px;letter-spacing:0;word-spacing:0;fill:#b0c200;fill-rule:nonzero;stroke:none" />
  <path
     d="m 25.125,4.2987194 c -1.518783,0 -2.75,1.231217 -2.75,2.7499996 0,1.518783 1.231217,2.75 2.75,2.75 1.518783,0 2.75,-1.231217 2.75,-2.75 0,-1.5187826 -1.231217,-2.7499996 -2.75,-2.7499996 z"
     id="path3204"
     style="font-size:10px;letter-spacing:0;word-spacing:0;fill:#b0c200;fill-rule:nonzero;stroke:none" />
  <path
     d="m 22.5,11.423719 0,20.28125 5.3125,0 0,-20.28125 -5.3125,0 z"
     id="path3194"
     style="font-size:10px;letter-spacing:0;word-spacing:0;fill:#b0c200;fill-rule:nonzero;stroke:none" />
  <path
     d="m 35.933414,11.421719 0,1.357448 c 0.94628,-0.96913 2.64309,-1.781636 4.76408,-1.781636 5.18828,0 7.50506,3.556755 7.50506,9.276912 l 0,11.44034 -5.3188,0 0,-10.973718 c 0,-3.635067 -1.23996,-4.718401 -3.45886,-4.718401 -2.18626,0 -3.49148,1.083334 -3.49148,4.600928 l 0,11.091191 -5.31882,0 0,-20.293064 z"
     id="path3165"
     style="font-size:10px;letter-spacing:0;word-spacing:0;fill:#b0c200;fill-rule:nonzero;stroke:none" />
  <path
     d="m 71.40625,3.8299694 0,36.2812496 2.25,0 0,-36.2812496 -2.25,0 z"
     id="path3211"
     style="font-size:10px;letter-spacing:0;word-spacing:0;fill:#b0c200;fill-rule:nonzero;stroke:none" />
  <path
     d="m 58.5625,10.986219 c -4.73144,0 -8.125,1.818616 -8.125,6.03125 0,4.287673 3.13665,5.497109 8.03125,6.96875 2.21889,0.652625 2.96875,1.135785 2.96875,2.0625 0,1.044174 -0.63038,1.53125 -2.71875,1.53125 -2.61045,0 -4.84499,-0.649471 -7.03125,-1.84375 l -1.78125,4.03125 c 2.15364,1.43248 5.30219,2.375 8.5,2.375 4.56831,0 8.28125,-1.664503 8.28125,-6.34375 0,-4.059266 -3.12662,-5.364958 -6.78125,-6.5625 -3.58938,-1.155128 -4.21875,-1.523351 -4.21875,-2.375 0,-0.884309 0.595,-1.3125 2.78125,-1.3125 1.69682,0 3.88315,0.541663 5.90625,1.625 l 1.6875,-4.1875 c -2.18627,-1.200809 -4.9548,-2 -7.5,-2 z"
     id="path3167"
     style="font-size:10px;letter-spacing:0;word-spacing:0;fill:#b0c200;fill-rule:nonzero;stroke:none" />
</svg>
