<?xml version="1.0" encoding="UTF-8" standalone="no"?>
<!-- Created with Inkscape (http://www.inkscape.org/) -->

<svg
   xmlns:dc="http://purl.org/dc/elements/1.1/"
   xmlns:cc="http://creativecommons.org/ns#"
   xmlns:rdf="http://www.w3.org/1999/02/22-rdf-syntax-ns#"
   xmlns:svg="http://www.w3.org/2000/svg"
   xmlns="http://www.w3.org/2000/svg"
   xmlns:sodipodi="http://sodipodi.sourceforge.net/DTD/sodipodi-0.dtd"
   xmlns:inkscape="http://www.inkscape.org/namespaces/inkscape"
   width="805"
   height="135"
   id="svg3574"
   sodipodi:version="0.32"
   inkscape:version="0.91pre2 r13516"
   version="1.0"
   sodipodi:docname="einsfestival hd.svg"
   inkscape:output_extension="org.inkscape.output.svg.inkscape">
  <defs
     id="defs3576">
    <clipPath
       id="clipPath3093">
      <path
         id="path3095"
         d="M 21.968,49.299 L 75.578,49.299 L 75.578,62.362 L 21.968,62.362 L 21.968,49.299 z" />
    </clipPath>
    <clipPath
       id="clipPath3085">
      <path
         id="path3087"
         d="M 0,0 L 595.276,0 L 595.276,841.89 L 0,841.89 L 0,0 z" />
    </clipPath>
    <clipPath
       id="clipPath3077">
      <path
         id="path3079"
         d="M 0,0 L 595.276,0 L 595.276,841.89 L 0,841.89 L 0,0 z" />
    </clipPath>
    <inkscape:perspective
       sodipodi:type="inkscape:persp3d"
       inkscape:vp_x="0 : 526.18109 : 1"
       inkscape:vp_y="0 : 1000 : 0"
       inkscape:vp_z="744.09448 : 526.18109 : 1"
       inkscape:persp3d-origin="372.04724 : 350.78739 : 1"
       id="perspective3582" />
  </defs>
  <sodipodi:namedview
     id="base"
     pagecolor="#ffffff"
     bordercolor="#666666"
     borderopacity="1.0"
     inkscape:pageopacity="0.0"
     inkscape:pageshadow="2"
     inkscape:zoom="1.0400179"
     inkscape:cx="180.8692"
     inkscape:cy="67.5"
     inkscape:document-units="px"
     inkscape:current-layer="layer1"
     showgrid="false"
     inkscape:window-width="1920"
     inkscape:window-height="1017"
     inkscape:window-x="-8"
     inkscape:window-y="-8"
     inkscape:window-maximized="1" />
  <metadata
     id="metadata3579">
    <rdf:RDF>
      <cc:Work
         rdf:about="">
        <dc:format>image/svg+xml</dc:format>
        <dc:type
           rdf:resource="http://purl.org/dc/dcmitype/StillImage" />
      </cc:Work>
    </rdf:RDF>
  </metadata>
  <g
     inkscape:label="Ebene 1"
     inkscape:groupmode="layer"
     id="layer1"
     transform="translate(-89.46799,-455.98894)">
    <g
       id="g3591"
       transform="matrix(0.61925678,0,0,0.61925678,58.981587,304.3554)">
      <g
         id="g3073"
         transform="matrix(1.25,0,0,-1.25,442.39795,359.14547)">
        <g
           id="g3075"
           clip-path="url(#clipPath3077)" />
      </g>
      <g
         id="g3081"
         transform="matrix(1.25,0,0,-1.25,442.39795,359.14547)">
        <g
           id="g3083"
           clip-path="url(#clipPath3085)" />
      </g>
      <g
         id="g3089"
         transform="matrix(1.25,0,0,-1.25,442.39795,359.14547)">
        <g
           id="g3091"
           clip-path="url(#clipPath3093)" />
      </g>
      <g
         id="g4038"
         transform="translate(35.433033,35.467595)">
        <path
           inkscape:connector-curvature="0"
           style="fill:#ee262c;fill-opacity:1;fill-rule:nonzero;stroke:none"
           id="path3155"
           d="m 1272.6521,298.79226 0,-58.16175 -58.471,20.99713 0,14.45945 19.3627,-7.00886 0,43.7023 39.1083,-13.98827 z m -23.3383,-73.09239 c -27.3581,0 -49.5627,22.18981 -49.5627,49.57737 0,27.37284 22.2046,49.57737 49.5627,49.57737 27.4023,0 49.5773,-22.20453 49.5773,-49.57737 0,-27.38756 -22.175,-49.57737 -49.5773,-49.57737 m 0,-8.5402 c 32.0994,0 58.1176,26.0329 58.1176,58.11757 0,32.08468 -26.0182,58.08813 -58.1176,58.08813 -32.07,0 -58.0882,-26.00345 -58.0882,-58.08813 0,-32.08467 26.0182,-58.11757 58.0882,-58.11757" />
        <path
           inkscape:connector-curvature="0"
           style="fill:#ee262c;fill-opacity:1;fill-rule:nonzero;stroke:none"
           id="path3159"
           d="m 261.34291,324.19661 -16.90372,94.64905 48.07547,0 16.50616,-94.64905 50.1369,0 7.20028,-35.60383 -50.12218,0 -7.215,35.60383 -47.67791,0 z" />
        <path
           inkscape:connector-curvature="0"
           style="fill:#ee262c;fill-opacity:1;fill-rule:nonzero;stroke:none"
           id="path3163"
           d="m 341.7357,259.31006 c 8.31934,-0.91292 23.58864,-0.70678 32.98287,0.0147 l 5.80145,-31.51041 c -24.95802,-1.66387 -37.95975,-1.38411 -50.00438,-0.20615 -11.82377,1.17796 -28.91891,3.62223 -42.39182,16.8301 -10.04211,9.77707 -16.7123,26.8133 -20.42288,44.15876 l 48.53194,0 c 2.50316,-12.39803 7.39169,-27.25504 25.50282,-29.28702" />
        <path
           inkscape:connector-curvature="0"
           style="fill:#ee262c;fill-opacity:1;fill-rule:nonzero;stroke:none"
           id="path3167"
           d="m 451.92351,338.23201 c 0.26504,-1.59025 0.53008,-4.24065 0.53008,-6.11067 0,-6.90578 -3.99034,-17.52214 -16.46198,-17.52214 -3.7253,0 -19.39216,1.3252 -23.3825,23.63281 l 39.3144,0 z m -43.02497,25.23778 c -0.26504,1.85529 -0.79512,5.58059 -0.79512,7.96595 0,13.01646 10.35132,17.78719 19.39215,17.78719 15.40183,0 20.4376,-11.14644 22.55793,-16.19694 l 44.09986,7.17083 c -4.52042,8.76107 -11.42621,22.57265 -33.20374,33.99885 -6.64074,3.44554 -18.59703,8.76108 -36.9143,8.76108 -38.23951,0 -65.59762,-23.36777 -65.59762,-61.88705 0,-39.56472 29.47843,-75.96366 76.74406,-75.96366 42.49489,0 65.33258,26.82802 65.33258,63.49201 0,5.84563 -0.79512,10.08628 -1.3252,14.87174 l -90.2906,0" />
        <path
           inkscape:connector-curvature="0"
           style="fill:#ee262c;fill-opacity:1;fill-rule:nonzero;stroke:none"
           id="path3171"
           d="m 603.11446,327.0781 c -4.24065,-10.36604 -14.6067,-12.75141 -24.42794,-12.75141 -8.24571,0 -13.81157,2.93017 -13.81157,7.70091 0,6.3757 5.30082,7.43587 15.9319,9.57092 25.4881,5.31554 30.80364,6.89106 38.50455,11.42621 12.75142,7.42114 19.6572,18.05223 19.6572,32.12884 0,15.13678 -9.57092,47.00059 -65.59762,47.00059 -18.59703,0 -36.11918,-3.44553 -49.93076,-13.00173 -13.01645,-8.7758 -15.9319,-18.86208 -18.06695,-26.31267 l 40.90464,-5.8309 c 2.12033,4.78546 5.84563,14.07662 27.62315,14.07662 14.34166,0 17.25711,-5.58059 17.25711,-8.24572 0,-5.03578 -2.91545,-5.56586 -25.75314,-10.61636 -14.6067,-3.44553 -47.54539,-10.61636 -47.54539,-41.16969 0,-21.77752 16.19694,-46.20546 60.2968,-46.20546 15.93191,0 30.27356,3.18049 43.54033,11.16117 14.07662,8.21627 17.53687,16.46198 19.6572,22.57265 l -38.23951,8.49603" />
        <path
           inkscape:connector-curvature="0"
           style="fill:#ee262c;fill-opacity:1;fill-rule:nonzero;stroke:none"
           id="path3175"
           d="m 794.79218,419.23291 -50.71116,0 21.7628,-130.9302 50.99093,0 -22.04257,130.9302 z" />
        <path
           inkscape:connector-curvature="0"
           style="fill:#ee262c;fill-opacity:1;fill-rule:nonzero;stroke:none"
           id="path3179"
           d="m 899.73822,419.23291 -39.29967,0 -33.20374,-130.9302 51.00565,0 14.87174,71.44324 34.77925,-71.44324 36.64927,0 -64.8025,130.9302 z" />
        <path
           inkscape:connector-curvature="0"
           style="fill:#ee262c;fill-opacity:1;fill-rule:nonzero;stroke:none"
           id="path3183"
           d="m 1028.1429,381.78988 c 4.7707,-6.37571 6.1107,-15.66686 7.1708,-24.69298 -14.6214,1.59025 -35.85411,3.97562 -35.85411,22.83769 0,8.231 6.64071,10.8814 11.41151,10.8814 3.4455,0 11.1611,-1.3252 17.2718,-9.02611 M 961.75016,320.963 c 5.58058,-11.14645 18.05223,-36.38423 70.64814,-36.38423 19.6425,0 60.5471,3.7253 60.5471,37.9892 0,11.95628 -12.7514,73.29853 -12.7514,84.97505 0,4.52042 0.5301,7.71563 1.3252,11.69125 l -51.256,0 c -0.5301,-2.91545 -0.5301,-5.58058 -0.5301,-6.90579 0,-2.38537 0,-6.09594 1.0602,-14.87174 -5.5806,8.24572 -16.727,24.69298 -43.29,24.69298 -22.30761,0 -41.69977,-14.06189 -41.69977,-37.70943 0,-14.06189 6.92051,-36.11918 40.37456,-44.33545 11.67653,-2.66514 13.01645,-2.93018 53.64131,-6.64075 0.8099,-2.40009 1.5903,-5.33027 1.5903,-7.71563 0,-5.03578 -3.9756,-10.61636 -15.1221,-10.61636 -14.3416,0 -19.6572,10.08627 -22.0426,14.60669 L 961.75016,320.963" />
        <path
           inkscape:connector-curvature="0"
           style="fill:#ee262c;fill-opacity:1;fill-rule:nonzero;stroke:none"
           id="path3187"
           d="m 1145.5265,419.23291 -49.6657,0 29.4784,-177.13566 49.9455,0 -29.7582,177.13566 z" />
        <path
           inkscape:connector-curvature="0"
           style="fill:#ee262c;fill-opacity:1;fill-rule:nonzero;stroke:none"
           id="path3191"
           d="m 651.31966,320.96888 18.05223,0 -7.95123,47.28035 c -2.40009,14.07662 -2.40009,16.72703 -2.40009,19.11239 0,11.95629 3.44553,18.06696 7.43587,22.58738 6.37571,7.42114 13.81158,12.2066 33.46877,12.2066 12.20661,0 19.90752,-1.59024 27.07835,-2.91545 l 5.58058,-34.26389 c -3.19521,0.79512 -7.17083,1.59024 -12.22133,1.59024 -5.03577,0 -12.2066,-1.59024 -12.2066,-9.5562 0,-1.85528 0.79512,-5.84562 1.06016,-8.76107 l 7.96595,-47.28035 23.89786,0 5.31554,-32.6442 -89.76052,0 -5.31554,32.6442" />
      </g>
    </g>
    <g
       id="g4194">
      <path
         inkscape:connector-curvature="0"
         id="path2481"
         d="m 163.47015,500.34953 -9.34143,45.92951 c 0,0 9.49265,0 13.56214,0 24.61012,0 30.62121,-10.85433 33.11688,-23.12504 2.2539,-11.0818 0.64983,-22.80447 -23.77547,-22.80447 -4.06947,0 -13.56212,0 -13.56212,0 z m 11.5519,9.88372 c 0,0 2.64847,0 3.7828,0 8.67319,0 9.62138,7.11623 8.37142,13.26185 -1.32747,6.52679 -5.22568,13.36872 -13.13828,13.36872 -1.32877,0 -4.43223,0 -4.43221,0 l 5.41627,-26.63057 z"
         style="fill:#e4e4e4;fill-opacity:1;fill-rule:evenodd;stroke:none;stroke-width:0.74550557;stroke-linecap:butt;stroke-linejoin:miter;stroke-miterlimit:4;stroke-dasharray:none;stroke-opacity:1" />
      <path
         inkscape:connector-curvature="0"
         id="rect2490"
         d="m 111.09302,500.36027 -9.75805,45.90802 13.97881,0 4.08535,-19.22008 16.44482,0 -4.08535,19.22008 13.9788,0 9.75807,-45.90802 -13.97882,0 -3.51172,16.5213 -16.44479,0 3.51171,-16.5213 -13.97883,0 z"
         style="fill:#e4e4e4;fill-opacity:1;stroke:none;stroke-width:0.76177096;stroke-linecap:butt;stroke-linejoin:miter;stroke-miterlimit:4;stroke-dasharray:none;stroke-dashoffset:0;stroke-opacity:1" />
      <path
         inkscape:connector-curvature="0"
         id="rect3519"
         d="m 100.38573,551.05786 c -0.761068,0.55005 -4.308874,18.42115 -8.03318,33.88177 l 99.27227,-0.0543 c 4.99822,0 9.0041,-4.00589 9.00413,-9.00413 l 0,-15.81918 c 0,-4.99822 -4.00591,-9.00413 -9.00413,-9.00413 l -91.23909,0 z"
         style="opacity:1;fill:#e4e4e4;fill-opacity:1;stroke:none;stroke-width:0.73708731;stroke-linecap:butt;stroke-linejoin:miter;stroke-miterlimit:4;stroke-dasharray:none;stroke-dashoffset:0;stroke-opacity:1"
         sodipodi:nodetypes="ccccccc" />
      <path
         inkscape:connector-curvature="0"
         sodipodi:nodetypes="ccccccccccccccccc"
         id="text2734"
         d="m 132.97709,578.69888 -4.8307,0 4.09491,-17.51968 -6.87819,0 0.81578,-3.51541 18.47516,0 -0.8158,3.51541 -6.78221,0 -4.07895,17.51968 z m 24.23776,0 -5.15064,0 -4.2069,-21.03509 4.81474,0 2.97522,15.91264 9.70944,-15.91264 4.78274,0 -12.9246,21.03509 z"
         style="font-style:italic;font-variant:normal;font-weight:bold;font-stretch:normal;font-size:283.51730347px;line-height:100%;font-family:Arial;-inkscape-font-specification:'Arial Bold Italic';text-align:start;writing-mode:lr-tb;text-anchor:start;fill:#ffffff;fill-opacity:1;stroke:none;stroke-width:1px;stroke-linecap:butt;stroke-linejoin:miter;stroke-opacity:1" />
    </g>
  </g>
</svg>
