<?xml version="1.0" encoding="UTF-8"?>
<svg width="800" height="182.97" version="1.1" xmlns="http://www.w3.org/2000/svg">
	<path d="m148.19 111.59c7.6086-9.0578 7.6086-22.463 7.6086-22.463-0.3623-19.927-16.666-36.231-36.956-36.231h-13.768c-5.0724 0-9.4202 4.3478-9.4202 9.4202s4.3478 9.4202 9.4202 9.4202h7.2463c14.13 0 21.014 5.4347 21.377 17.391-0.3623 11.956-7.2463 17.391-21.739 17.391h-18.84c-1.4493 0-2.8985 0-4.3478 0.7246-2.8985 0.7246-5.797 2.8985-5.797 7.2463v0.7246c0 2.5362 1.0869 4.7101 3.6231 7.6086 0 0 42.753 48.55 48.55 54.709 1.8116 2.5362 4.7101 3.9854 8.3332 3.9854 5.797 0 10.507-4.7101 10.507-10.507 0-2.8985-1.087-5.4347-2.8985-7.2463l-31.521-35.507c-1.8116-2.1739-5.797-5.0724-5.797-5.0724l11.232-0.7246c0 0.3623 14.13 0 23.188-10.869zm37.318-12.681c6.1593 0 10.869-4.7101 10.869-10.869v-16.666h34.058c5.0724 0 9.4202-4.3478 9.4202-9.4202 0-5.0724-4.3478-9.4202-9.4202-9.4202h-46.376c-5.0724 0-9.4202 4.3478-9.4202 9.4202v26.087c0 6.1593 4.7101 10.869 10.869 10.869zm-119.93-46.014h-56.159c-5.0724 0-9.4202 4.3478-9.4202 9.4202v21.014c0 6.1593 4.7101 10.869 10.869 10.869 6.1593 0 10.869-4.7101 10.869-10.869v-11.956h43.84c5.0724 0 9.4202-4.3478 9.4202-9.4202 0-5.0724-4.3478-9.0579-9.4202-9.0579zm164.85 53.623h-18.84c-20.29 0-36.956 16.666-36.956 36.956v27.174c0 6.1594 4.7101 10.869 10.869 10.869s10.869-4.7101 10.869-10.869v-28.623c0-9.4202 7.6086-16.666 17.029-16.666h17.391c5.0724 0 9.4202-4.3478 9.4202-9.4202-0.3623-5.0724-4.3478-9.4202-9.7825-9.4202zm-164.85 55.072h-26.811c-9.4202 0-17.029-7.6086-17.029-16.666v-19.203h34.42c5.0724 0 9.4202-4.3478 9.4202-9.4202s-4.3478-9.4202-9.4202-9.4202h-45.289c-6.1593 0-10.869 4.7101-10.869 10.869v26.087c0 20.29 16.666 36.956 36.956 36.956h28.623c5.0724 0 9.4202-4.3478 9.4202-9.4202 0-5.797-4.3478-9.7825-9.4202-9.7825zm701.44-56.159-32.608-3.9855c-7.9709-1.0869-11.956-3.9855-11.956-11.594v-2.5362c0-9.7825 7.2463-14.493 23.913-14.493 16.304 0 23.55 4.3478 23.55 13.406v1.0869c0 2.8985 1.8116 4.3478 4.7101 4.3478h18.116c2.8985 0 4.7101-2.1739 4.7101-5.0724v-1.0869c0-23.55-17.391-35.507-51.086-35.507-33.333 0-52.173 14.855-52.173 40.579v2.1739c0 21.014 9.7825 31.521 33.695 34.42l32.608 3.9855c7.9709 1.0869 11.232 3.9854 11.232 11.594v2.8985c0 9.7825-8.3332 14.855-24.637 14.855-17.753 0-25.724-4.3478-25.724-13.768v-1.8116c0-2.8985-1.4492-4.3478-4.3478-4.3478h-18.116c-2.8985 0-5.0724 1.8116-5.0724 4.7101v1.8116c0 23.913 17.753 35.869 53.26 35.869 33.333 0 52.898-14.855 52.898-40.579v-2.8985c0.3623-20.652-9.0579-30.797-32.971-34.058zm-386.23-102.53h-45.652c-10.145 0-16.666 6.5217-16.666 16.304v152.17c0 5.4347 3.6231 8.6956 8.6955 8.6956h13.406c5.4347 0 8.6955-3.6232 8.6955-8.6956v-51.449h30.797c42.028 0 62.318-17.391 62.318-53.623v-10.145c0.72462-35.869-19.565-53.26-61.593-53.26zm30.797 65.217c0 18.116-9.0579 26.087-30.797 26.087h-30.797v-65.941h30.797c21.377 0 30.797 7.9709 30.797 26.087zm247.82 78.622v-85.144c0-5.4347-3.6231-9.0579-8.6955-9.0579h-12.681c-5.4347 0-8.6956 3.6231-8.6956 9.0579v69.927c0 17.391-8.6955 26.449-25.724 26.449s-25.362-9.4202-25.362-26.449v-69.927c0-5.4347-3.6232-9.0579-8.6956-9.0579h-12.681c-5.4347 0-8.6955 3.6231-8.6955 9.0579v69.927c0 32.971 20.652 51.449 52.173 51.449 17.029 0 30.072-6.1593 37.681-17.753l13.043 13.043c4.7101 4.7101 10.869 5.4347 15.58 0.3623l5.0724-5.0724c4.7101-4.7101 4.3478-10.869-0.3623-15.58zm-139.49 8.3332h-10.145c-5.4347 0-7.6086-2.1739-7.6086-8.6955v-134.06c0-7.6086-4.7101-12.319-12.319-12.319h-5.4347c-7.6086 0-12.319 4.7101-12.319 12.319v136.23c0 22.463 8.3332 31.884 35.507 31.884h12.319c4.7101 0 7.2463-2.8985 7.2463-7.6086v-10.507c-0.3623-4.7101-3.2608-7.2463-7.2463-7.2463z" fill="#ffec73"/>
</svg>
