<?xml version="1.0" encoding="UTF-8"?>
<svg width="450" height="450" version="1.1" xmlns="http://www.w3.org/2000/svg">
	<path d="m0 0h450v450h-450z" fill="#0172f0"/>
	<g fill="#fff">
		<path d="m117.46 317.41v-40.917c0.0123-3.1693-0.32337-6.1129-1.3458-8.7489-0.94379-2.4501-2.308-4.6072-4.053-6.4143-1.6743-1.7341-3.6477-3.0841-5.8663-4.012-2.2727-0.94977-4.7034-1.4309-7.2247-1.4309-2.5643 1e-3 -5.0181 0.48476-7.2919 1.4399-2.2308 0.93684-4.2166 2.2955-5.9031 4.0346-1.7508 1.8024-3.1255 3.9631-4.0931 6.4225-1.0416 2.6537-1.71 5.5933-1.714 8.7392l-0.0018 40.886h-18.067l-7.24e-4 -41.704c0.01697-5.3861 1.1152-10.481 3.0032-15.144 1.8471-4.555 4.5125-8.5803 7.922-11.967 3.3734-3.3405 7.3438-5.942 11.804-7.7319 4.4775-1.7917 9.2928-2.7055 14.315-2.7134 5.0315 0 9.8489 0.90805 14.324 2.6958 4.4811 1.7938 8.4504 4.3982 11.798 7.7416 3.4048 3.3906 6.0561 7.4201 7.8787 11.977 1.8663 4.7024 2.6224 9.8073 2.5964 15.18v41.666z"/>
		<path d="m177.05 319.48c-21.762 0-39.457-18.241-39.457-40.661 0-22.427 17.695-40.67 39.457-40.67 21.753 0 39.451 18.243 39.451 40.67 0 2.0736-0.15328 4.1569-0.45771 6.2071l-0.0936 0.6139h-61.616l0.26339 0.83432c3.1949 9.9853 12.221 16.697 22.452 16.697 5.5582 0 10.794-1.9646 15.105-5.6767 0 0 1.1532-0.99185 1.2979-1.1288h19.203l-0.54009 1.0803c-6.8154 13.587-20.256 22.034-35.066 22.034m0-65.025c-10.231 0-19.256 6.7091-22.452 16.703l-0.2634 0.8336h45.419l-0.26339-0.8336c-3.193-9.9932-12.209-16.703-22.44-16.703"/>
		<path d="m214.06 240.21v-0.46211h19.559c2.3898 18.728 8.5286 48.421 13.835 61.844 5.6165-13.423 12.168-43.118 14.565-61.844h16.225c2.4998 18.728 8.9506 47.177 14.669 61.844 5.3076-14.667 11.339-43.118 13.838-61.844h19.453v0.46356c-4.4722 29.238-13.004 59.3-20.287 77.194h-24.341c-4.0559-9.7786-8.9462-24.761-11.443-38.181-2.3931 13.42-7.6967 29.236-11.339 38.181h-24.344c-8.5375-19.557-17.811-52.36-20.39-77.196"/>
		<path d="m325.25 314v-14.832h0.81547c4.4003 1.3339 13.915 3.1748 20.769 3.1748h3.9949c6.3366 0 11.147-1.9427 11.147-8.3886 0-4.8049-4.1956-6.7451-8.8002-7.9758l-11.969-3.1697c-8.797-2.2484-15.957-8.3893-15.957-21.584 0-15.543 12.788-21.988 28.333-21.988h3.9942c4.8035 0 14.423 1.2299 18.819 2.8651v14.728h-0.81761c-3.9906-1.1274-13.604-2.3523-18.006-2.3523h-3.5801c-5.6244 0-10.435 1.1217-10.435 6.7466 0 4.4025 3.2748 6.1381 7.2672 7.1608l11.97 3.2726c11.554 3.068 17.59 9.9213 17.59 22.296 0 17.184-12.375 23.627-29.561 23.627h-3.9917c-6.038 0-16.059-1.6345-21.582-3.5808"/>
		<path d="m423.03 301.2c0 9.0525-7.3474 16.39-16.407 16.39-9.0606 0-16.405-7.3378-16.405-16.39 0-9.0525 7.3463-16.388 16.405-16.388 9.0595 0 16.407 7.3378 16.407 16.388"/>
		<path d="m129.14 196.79c-5.8602 8.356-15.275 13.35-25.258 13.35-14.525 0-27.322-10.614-30.427-25.234l-0.11341-0.53198h70.997c0.42546-2.8742 0.30483-6.0084 0.30483-6.0084l-3e-3 6e-3c0-0.0897 7e-3 -0.18404 7e-3 -0.27697-3.6e-4 -23.105-18.289-41.906-40.765-41.906-22.471 0-40.757 18.801-40.757 41.906 0 23.115 18.286 41.915 40.758 41.915 15.31 0 29.196-8.7069 36.246-22.723l1.0073-2.0411h-10.981c-0.38284 0.62527-0.74976 1.1688-1.0145 1.5452m-56.153-22.777c2.0027-15.942 15.283-27.958 30.895-27.958 15.617 0 28.901 12.016 30.894 27.958l0.0636 0.48767h-61.912z"/>
		<path d="m195.53 220.03c-4.5165 0-8.8382-0.80645-12.844-2.3999-3.9758-1.5848-7.4907-3.8816-10.453-6.8249-3.0229-2.9934-5.3756-6.5577-6.9933-10.588-1.6768-4.2079-2.3527-8.7958-2.3311-13.641l-7.3e-4 -48.763h9.4189l-2e-3 47.97c-0.0137 3.752 0.44474 7.2622 1.6794 10.435 1.1715 3.0197 2.8696 5.6904 5.0496 7.939 2.1198 2.1848 4.6186 3.8856 7.4258 5.0558 2.848 1.185 5.8875 1.7872 9.029 1.7872 3.213-4e-3 6.264-0.6069 9.1088-1.7955 2.8198-1.1807 5.3284-2.8861 7.4543-5.0742 2.18-2.237 3.8911-4.9048 5.0868-7.9318 1.2602-3.189 2.0281-6.6989 2.035-10.424v-47.961h9.4005l-1e-3 48.771c-0.0155 4.858-1.0063 9.4398-2.7044 13.619-1.6426 4.0322-4.0076 7.5932-7.0348 10.585-2.988 2.948-6.5104 5.2434-10.475 6.8264-4.005 1.5981-8.3286 2.4103-12.848 2.4161h-1e-3z"/>
		<path d="m248.82 217.85v-46.158c5e-3 -3.4332 0.41351-6.7925 1.2157-9.9873 1.1037-4.4284 2.9337-8.378 5.4398-11.739 3.1165-4.1831 7.2843-7.469 12.388-9.7632 5.9097-2.6487 13.151-3.9896 21.518-3.9896h1.5822v10.033l-1.5425-1e-3c-6.1022 0-11.338 0.80068-15.59 2.3772-3.7416 1.3838-6.8198 3.3943-9.1475 5.9738-2.0276 2.2518-3.5354 4.9848-4.481 8.1183-0.80936 2.6851-1.2265 5.708-1.2362 8.986v46.149h-10.147v1e-3z"/>
		<path d="m338.31 136.35c-22.646 0-41.005 18.763-41.005 41.909 0 23.147 18.359 41.91 41.005 41.91 22.647 0 41.005-18.764 41.005-41.91 0-23.144-18.359-41.909-41.005-41.909m0 72.389c-15.799 0-28.654-13.673-28.654-30.48 0-16.806 12.855-30.48 28.654-30.48 15.799 0 28.654 13.674 28.654 30.48 0 16.808-12.856 30.48-28.654 30.48"/>
	</g>
</svg>
