<svg xmlns="http://www.w3.org/2000/svg" viewBox="0 0 688 102"><path clip-path="url(#b)" d="M71.982 70.066C66.438 77.994 57.53 82.73 48.088 82.73c-13.74 0-25.847-10.07-28.784-23.94l-.107-.503H86.36c.402-2.726.288-5.7.288-5.7l-.002.005c0-.085.006-.175.006-.262 0-21.918-17.3-39.753-38.564-39.753S9.53 30.414 9.53 52.332c0 21.927 17.3 39.76 38.557 39.76 14.483 0 27.62-8.26 34.29-21.554l.953-1.937H72.94a28.495 28.495 0 0 1-.959 1.466M18.86 48.46c1.894-15.123 14.458-26.52 29.227-26.52 14.774 0 27.34 11.398 29.226 26.52l.06.463h-58.57zm111.045 43.65c-4.278 0-8.372-.766-12.166-2.276-3.766-1.504-7.096-3.683-9.902-6.475-2.863-2.84-5.092-6.22-6.624-10.043-1.59-3.992-2.23-8.344-2.208-12.94l-.001-46.257h8.922l-.001 45.505c-.013 3.56.42 6.89 1.59 9.898 1.11 2.864 2.718 5.398 4.783 7.53a21 21 0 0 0 7.034 4.795 22.11 22.11 0 0 0 8.553 1.696c3.044-.003 5.934-.576 8.628-1.704a21.193 21.193 0 0 0 7.061-4.812c2.066-2.122 3.687-4.653 4.82-7.525 1.193-3.025 1.92-6.354 1.928-9.888V14.12h8.904l-.001 46.264a34.543 34.543 0 0 1-2.562 12.919c-1.555 3.825-3.796 7.202-6.663 10.04a29.727 29.727 0 0 1-9.923 6.476c-3.794 1.516-7.89 2.286-12.17 2.292h-.002zm44.06-2.068V46.256a39.22 39.22 0 0 1 1.149-9.473c1.044-4.2 2.775-7.948 5.146-11.136 2.948-3.968 6.89-7.085 11.718-9.26 5.592-2.513 12.44-3.785 20.357-3.785h1.497v9.517l-1.46-.001c-5.774 0-10.726.76-14.75 2.255-3.54 1.313-6.45 3.22-8.653 5.667-1.917 2.136-3.344 4.73-4.24 7.7-.766 2.547-1.16 5.415-1.17 8.524v43.778h-9.597zm183.26-.002v-40c.013-3.098-.316-5.976-1.315-8.554-.923-2.395-2.255-4.503-3.96-6.27a17.107 17.107 0 0 0-5.734-3.923 18.215 18.215 0 0 0-7.06-1.399c-2.506.002-4.905.475-7.127 1.407a17.365 17.365 0 0 0-5.769 3.946c-1.71 1.762-3.054 3.874-4 6.278-1.02 2.595-1.672 5.47-1.676 8.544l-.001 39.973h-17.655l-.002-40.772c.017-5.266 1.1-10.247 2.935-14.806 1.806-4.453 4.4-8.388 7.743-11.7a34.572 34.572 0 0 1 11.534-7.56c4.376-1.752 9.082-2.645 14-2.653 4.916 0 9.625.887 13.998 2.636 4.38 1.753 8.26 4.3 11.53 7.568 3.33 3.315 5.92 7.255 7.7 11.7 1.824 4.597 2.562 9.588 2.54 14.84V90.04zm64.852 2.022c-21.264 0-38.554-17.83-38.554-39.75 0-21.926 17.3-39.762 38.554-39.762 21.257 0 38.55 17.836 38.55 39.762 0 2.025-.152 4.064-.45 6.067l-.09.6h-60.204l.257.816c3.123 9.763 11.942 16.325 21.938 16.325 5.432 0 10.547-1.922 14.76-5.55l1.267-1.104h18.765l-.53 1.056c-6.66 13.284-19.792 21.54-34.264 21.54m0-63.57c-9.996 0-18.815 6.56-21.938 16.33l-.257.815h44.38l-.257-.815c-3.12-9.77-11.93-16.33-21.927-16.33m44.56-13.92v-.452h19.123c2.337 18.31 8.338 47.34 13.526 60.463 5.49-13.124 11.898-42.155 14.24-60.463h15.863c2.44 18.31 8.75 46.123 14.34 60.463 5.188-14.34 11.086-42.155 13.528-60.463h19.02v.453c-4.372 28.584-12.713 57.975-19.833 75.47H532.65c-3.966-9.56-8.748-24.207-11.19-37.328-2.34 13.12-7.525 28.582-11.086 37.328h-23.8c-8.346-19.12-17.412-51.19-19.934-75.47M584.14 86.7V72.2h.798c4.3 1.302 13.6 3.104 20.3 3.104h3.902c6.195 0 10.898-1.902 10.898-8.202 0-4.7-4.1-6.596-8.6-7.798l-11.7-3.098c-8.598-2.2-15.598-8.203-15.598-21.102 0-15.196 12.5-21.497 27.695-21.497h3.902c4.697 0 14.1 1.203 18.397 2.8v14.4h-.8c-3.9-1.102-13.298-2.3-17.6-2.3h-3.5c-5.497 0-10.2 1.096-10.2 6.596 0 4.303 3.2 6 7.103 7l11.7 3.2c11.294 3 17.193 9.7 17.193 21.798 0 16.8-12.095 23.098-28.893 23.098h-3.902c-5.9.001-15.697-1.597-21.095-3.5m96.727-12.5c0 8.85-7.174 16.023-16.023 16.023S648.823 83.05 648.823 74.2s7.174-16.022 16.022-16.022 16.023 7.174 16.023 16.022M255.44 12.732c-21.424 0-38.792 17.8-38.792 39.756s17.368 39.756 38.792 39.756 38.792-17.8 38.792-39.756-17.368-39.756-38.792-39.756m0 68.67c-14.946 0-27.106-12.97-27.106-28.914s12.16-28.914 27.106-28.914 27.107 12.97 27.107 28.914S270.386 81.4 255.44 81.4" fill="#fff"/></svg>