<?xml version="1.0" encoding="UTF-8"?>
<!-- Created with Inkscape (http://www.inkscape.org/) -->
<svg width="800" height="95.205" version="1.1" viewBox="0 0 211.67 25.19" xmlns="http://www.w3.org/2000/svg">
 <g transform="matrix(.26458 0 0 .26458 .00039423 .00019323)" fill="#6ec9ff" stroke-width="1.2025">
  <path d="m74.431 68.751c-6.3731 9.3793-17.074 15.031-28.378 15.151-16.354 0-30.783-12.025-34.27-28.499l-0.12025-0.60125h79.964c0.24049-2.2847 0.36076-4.5694 0.36076-6.7339v-0.36057c0-26.093-20.563-47.377-46.055-47.377s-45.934 21.163-45.934 47.258c0 26.093 20.563 47.377 46.055 47.377 17.315 0 32.948-9.8602 40.883-25.733l1.2025-2.2847h-12.506c-0.36076 0.60125-0.84172 1.2025-1.2025 1.8036zm-63.37-25.733c2.2847-18.036 17.315-31.625 34.752-31.625s32.587 13.588 34.752 31.625l0.12027 0.60125h-69.743v-0.60125z"/>
  <path d="m143.45 95.085c-4.9301 0-9.8602-0.96197-14.55-2.7656-4.4492-1.6835-8.4172-4.3289-11.784-7.6958-3.4871-3.3669-6.1325-7.4554-7.816-11.904-1.8036-4.9301-2.7656-10.101-2.6454-15.392v-55.193h10.582v54.232c-0.12023 3.9681 0.48098 8.0566 1.9239 11.784 2.5251 6.6136 7.5755 11.904 14.069 14.67 6.6136 2.6454 13.949 2.6454 20.442 0 3.1265-1.3227 6.0124-3.2466 8.4172-5.7719 2.5251-2.5251 4.4492-5.6516 5.7719-8.8983 1.443-3.7277 2.2847-7.816 2.2847-11.784v-54.232h10.582v55.193c0 5.2909-1.0822 10.461-3.1265 15.391-3.7277 8.8984-10.822 15.993-19.84 19.721-4.4492 1.6835-9.3793 2.6454-14.309 2.6454z"/>
  <path d="m195.88 92.56v-52.187c0-3.848 0.48099-7.5755 1.3227-11.303 1.0822-4.8098 3.2468-9.259 6.1325-13.227 3.6074-4.8098 8.4172-8.6578 13.949-11.063 6.6136-3.0062 14.79-4.5694 24.289-4.5694h1.8038v11.303h-1.8038c-6.0124-0.12019-11.904 0.84175-17.556 2.7656-3.9681 1.3227-7.5755 3.7277-10.341 6.7339-2.2847 2.6454-4.0883 5.7718-5.0504 9.1387-0.96197 3.2466-1.443 6.7339-1.443 10.101v52.308z"/>
  <path d="m414.37 92.56v-47.618c0.12019-3.4871-0.36057-6.9743-1.5632-10.221-1.0822-2.7657-2.6454-5.291-4.8098-7.4554-1.9239-2.0442-4.2086-3.6074-6.7337-4.6896-5.411-2.2847-11.544-2.2847-16.955 0-2.6454 1.0822-4.9301 2.6454-6.854 4.6896-2.0442 2.1644-3.7277 4.6896-4.8098 7.4554-1.3227 3.2466-1.9239 6.6136-2.0442 10.101v47.618h-21.043v-48.58c0-6.0124 1.2025-12.025 3.4871-17.676 2.0442-5.1706 5.1706-9.9805 9.1387-13.949 3.9681-3.848 8.5375-6.9743 13.708-9.0185 10.702-4.2086 22.606-4.3289 33.308-0.12019 5.1706 2.0442 9.8602 5.1706 13.708 9.0184 3.9681 3.9681 7.0946 8.7781 9.1387 13.949 2.1644 5.6516 3.1265 11.664 3.0062 17.676v48.459h-20.683z"/>
  <path d="m491.57 94.966c-25.372 0-46.055-21.163-46.055-47.258 0-26.093 20.563-47.377 46.055-47.377 25.372 0 45.934 21.163 45.934 47.377 0 2.405-0.24037 4.9301-0.48102 7.2148l-0.12019 0.72148h-71.788l0.36057 0.96197c4.3289 14.43 19.36 22.606 33.79 18.277 3.6074-1.0822 7.0946-2.8859 9.9805-5.411 0 0 1.3227-1.2025 1.5632-1.3227h22.365l-0.60121 1.3227c-7.6958 15.512-23.568 25.372-41.005 25.492zm0-75.635c-12.025 0.12019-22.606 7.9363-26.093 19.48l-0.36057 0.96197h52.909l-0.36057-0.96197c-3.4872-11.664-14.069-19.48-26.093-19.48z"/>
  <path d="m544.72 2.615v-0.60122h22.726c2.7656 21.764 9.8602 56.396 16.113 72.148 6.6136-15.632 14.189-50.263 16.955-72.148h19c2.886 21.764 10.341 54.953 17.074 72.148 6.2528-17.074 13.227-50.263 16.113-72.148h22.606v0.60122c-5.291 34.029-15.151 69.141-23.568 89.945h-28.378c-5.8921-14.309-10.341-29.22-13.347-44.492-2.7656 15.632-8.8983 34.029-13.227 44.492h-28.258c-9.9805-22.726-20.802-60.965-23.809-89.945z"/>
  <path d="m684.81 88.592v-17.196h0.96197c7.9363 2.1644 15.993 3.4871 24.17 3.7277h4.6896c7.3351 0 12.987-2.2847 12.987-9.7399 0-5.6516-4.9301-7.816-10.221-9.259l-13.949-3.7277c-10.221-2.6454-18.638-9.7399-18.638-25.131 0-18.157 14.911-25.613 33.067-25.613h4.6896c5.6516 0 16.835 1.443 21.885 3.3669v17.196h-0.96197c-6.854-1.5632-13.949-2.5251-20.923-2.7656h-4.2086c-6.6136 0-12.145 1.3227-12.145 7.816 0 5.1706 3.848 7.0946 8.4172 8.297l13.949 3.848c13.468 3.6074 20.442 11.544 20.442 25.974 0 19.962-14.43 27.537-34.391 27.537h-4.6896c-8.5375-0.36057-17.074-1.8036-25.131-4.3289z"/>
  <circle cx="780.88" cy="73.682" r="19.119"/>
  <path d="m293.03 0.45044c-25.492 0-46.296 21.163-46.296 47.377 0 26.215 20.683 47.377 46.296 47.377s46.296-21.163 46.296-47.377c0-26.215-20.802-47.377-46.296-47.377zm0 81.888c-17.797 0-32.346-15.512-32.346-34.391 0-18.878 14.55-34.391 32.346-34.391s32.346 15.512 32.346 34.391c0 18.878-14.43 34.391-32.346 34.391z"/>
 </g>
</svg>
