<?xml version="1.0" encoding="UTF-8"?>
<svg version="1.1" viewBox="0 0 450 450" xmlns="http://www.w3.org/2000/svg">
	<rect width="450" height="450" fill="#0172f0"/>
	<g fill="#fff">
		<path d="m121.19 316.58v-41.182c0-3.2188-0.33312-6.105-1.3319-8.7688-0.99875-2.4419-2.3312-4.6619-4.1069-6.4381-1.665-1.7762-3.6631-3.1081-5.8831-3.9962-2.3313-0.99875-4.7731-1.4431-7.3262-1.4431-2.5531 0-5.1063 0.44437-7.3263 1.4431-2.22 0.99937-4.2181 2.3312-5.9938 4.1075-1.7762 1.7756-3.1081 3.9956-4.1069 6.4381-0.99938 2.6638-1.7762 5.6606-1.7762 8.7687v41.182h-17.982v-41.959c0-5.4394 1.11-10.545 2.9975-15.208 1.8869-4.5506 4.5506-8.6581 7.9919-12.099 3.4412-3.33 7.4369-5.9944 11.877-7.77 4.5512-1.7762 9.3244-2.7756 14.431-2.7756 5.1056 0 9.8788 0.88812 14.43 2.6644 4.5513 1.7762 8.5469 4.44 11.877 7.77 3.4412 3.4412 6.1056 7.4369 7.8812 12.099 1.8869 4.7731 2.6644 9.8788 2.6644 15.318v41.959h-18.316z"/>
		<path d="m428.91 303.24c1.6462-8.9844-4.3031-17.602-13.288-19.248-8.985-1.6462-17.602 4.3031-19.249 13.288-1.6456 8.9844 4.3031 17.602 13.288 19.249 8.9844 1.6456 17.602-4.3031 19.248-13.288z"/>
		<path d="m218.54 238.76v-0.44375h19.648c2.4419 18.87 8.5469 48.729 13.986 62.272 5.6606-13.542 12.21-43.402 14.652-62.272h16.318c2.5531 18.87 8.9912 47.509 14.763 62.272 5.3281-14.763 11.433-43.402 13.986-62.272h19.536v0.44375c-4.5512 29.416-13.098 59.719-20.424 77.701h-24.531c-4.1069-9.8794-8.9912-24.976-11.544-38.407-2.4419 13.542-7.77 29.416-11.433 38.407h-24.531c-8.4362-19.648-17.871-52.615-20.424-77.701z"/>
		<path d="m330.54 313.13v-14.986h0.77688c4.44 1.3325 13.986 3.2194 20.869 3.2194h3.9956c6.4381 0 11.211-1.9981 11.211-8.4363 0-4.8838-4.2181-6.7712-8.88-7.9919l-12.099-3.2194c-8.88-2.22-16.095-8.4362-16.095-21.756 0-15.651 12.876-22.089 28.528-22.089h3.9956c4.8844 0 14.541 1.2212 18.981 2.8862v14.874h-0.77687c-3.9962-1.11-13.653-2.3312-18.093-2.3312h-3.5519c-5.6612 0-10.546 1.11-10.546 6.7712 0 4.44 3.3306 6.2162 7.3262 7.215l12.099 3.33c11.655 3.1081 17.76 9.99 17.76 22.422 0 17.316-12.432 23.754-29.748 23.754h-3.9963c-6.105-0.11125-16.206-1.7762-21.756-3.6631z"/>
		<path d="m181.24 318.57c-21.868 0-39.739-18.315-39.739-40.959 0-22.534 17.761-40.96 39.739-40.96 21.868 0 39.739 18.426 39.739 40.96 0 2.1088-0.11125 4.2181-0.44438 6.2156l-0.11062 0.66625h-62.05l0.22187 0.88812c3.2188 10.101 12.321 16.761 22.644 16.761 5.55 0 10.878-1.9981 15.207-5.6612 0 0 1.11-0.99876 1.3325-1.11h19.314l-0.55499 1.11c-6.8819 13.653-20.424 22.089-35.298 22.089zm0-65.491c-10.323 0-19.426 6.7706-22.644 16.872l-0.22187 0.88813h45.732l-0.22188-0.88813c-3.2194-10.101-12.321-16.872-22.644-16.872z"/>
		<path d="m253.61 216.34v-46.621c0-3.4412 0.44438-6.8825 1.2212-10.101 1.11-4.44 2.9969-8.4362 5.4388-11.878 3.1081-4.2175 7.3262-7.5481 12.432-9.8788 5.9938-2.6644 13.209-3.9962 21.645-3.9962h1.5544v10.101h-1.5544c-6.105 0-11.433 0.77687-15.651 2.4419-3.7738 1.4431-6.8819 3.4412-9.2131 5.9944-1.9975 2.22-3.5519 4.995-4.5506 8.2138-0.77749 2.6644-1.2212 5.7725-1.2212 9.1025v46.621z"/>
		<path d="m343.75 134.09c-22.756 0-41.292 18.981-41.292 42.292 0 23.31 18.426 42.291 41.292 42.291s41.292-18.981 41.292-42.291c0-23.311-18.538-42.292-41.292-42.292zm0 73.039c-15.873 0-28.861-13.764-28.861-30.748 0-16.983 12.988-30.748 28.861-30.748 15.873 0 28.86 13.764 28.86 30.748 0 16.983-12.987 30.748-28.86 30.748z"/>
		<path d="m132.96 195.14c-5.8825 8.4356-15.318 13.431-25.419 13.431-14.652 0-27.529-10.656-30.637-25.419l-0.11062-0.555h71.374c0.44375-2.8862 0.33313-6.1056 0.33313-6.1056v-0.3325c0-23.311-18.426-42.292-41.071-42.292-22.644 0-40.959 18.981-40.959 42.292 0 23.31 18.426 42.291 40.959 42.291 15.429 0 29.416-8.7688 36.519-22.978l0.99937-2.1088h-11.101c-0.33313 0.77688-0.66562 1.3319-0.88813 1.7762zm-56.499-22.978c1.9981-16.095 15.429-28.194 31.081-28.194 15.762 0 29.082 12.099 31.08 28.194l0.11125 0.44375h-62.383z"/>
		<path d="m199.78 218.56c-4.5506 0-8.88-0.77688-12.987-2.4419-3.9962-1.5538-7.5481-3.885-10.545-6.8819-2.9975-2.9975-5.4394-6.6606-6.9931-10.656-1.665-4.2181-2.3312-8.88-2.3312-13.764v-49.174h9.435v48.397c0 3.7738 0.44437 7.3262 1.665 10.545 1.2212 2.9969 2.8862 5.7719 5.1062 7.9919 2.1088 2.2206 4.6619 3.8856 7.4369 5.1063 2.8862 1.2212 5.8831 1.7762 9.1025 1.7762 3.2188 0 6.3269-0.66625 9.2131-1.7762 2.8856-1.2206 5.3281-2.8856 7.5481-5.1063 2.22-2.22 3.885-4.995 5.1056-7.9919 1.2212-3.2188 1.9981-6.7712 1.9981-10.545v-48.397h9.4356v49.174c0 4.8844-0.99938 9.5462-2.7756 13.764-1.665 4.1069-3.9956 7.6588-7.1038 10.656-2.9969 2.9969-6.5494 5.3281-10.545 6.8819-3.7744 1.665-8.2144 2.4419-12.766 2.4419z"/>
	</g>
</svg>
