<?xml version="1.0" encoding="UTF-8"?>
<svg width="800" height="311.43" version="1.1" viewBox="0 0 750 291.97" xmlns="http://www.w3.org/2000/svg">
 <path d="m251.67 249.45c-3.4863-1.3094-7.0114-2.5134-10.57-3.6102 18.815-25.35 28.838-57.885 28.161-91.991 9.8413-0.57277 19.24-1.215 28.205-1.9266-1.5968 38.393-18.884 72.855-45.796 97.528m-45.215 28.274c9.1846-5.5957 17.571-12.406 24.933-20.247 1.9093-2.0394 3.7578-4.1396 5.5542-6.3092 3.185 0.95462 6.2919 1.9526 9.2859 3.0201-11.938 9.888-25.36 17.831-39.773 23.536m-32.891 5.0161c8.9041-8.9041 16.654-22.807 22.781-39.99 11.968 1.5621 23.354 3.7491 33.898 6.5262-1.1369 1.3104-2.2824 2.6035-3.4714 3.8619-15.708 16.671-35.009 27.632-55.689 31.928 0.83313-0.73767 1.6576-1.5014 2.482-2.3258m-22.304 4.3739h-0.0174c-6.37 0-12.662-3.0722-18.711-9.121-7.9321-7.9321-14.875-20.403-20.438-35.972 13-1.4336 26.07-2.1463 39.148-2.1349 13.287 0 26.278 0.71163 38.714 2.0915-9.9455 27.459-23.857 45.119-38.697 45.136m-77.064-37.491 0.01736-0.84181c10.329-2.6031 20.801-4.5968 31.364-5.9708 5.9881 17.062 13.608 30.791 22.477 39.652 0.85049 0.85917 1.7096 1.6489 2.5775 2.3952-21.844-4.7905-41.162-17.175-56.436-35.234m-17.93 4.5648c3.4367-1.215 6.9948-2.3605 10.666-3.428 9.0256 11.343 19.526 20.715 31.173 27.771-15.194-5.7492-29.332-13.975-41.839-24.343m-51.272-103.14c8.5396 0.72899 17.643 1.3886 27.172 1.9787 2.2824 36.38 13.382 68.212 30.696 92.338-4.1656 1.2584-8.1838 2.6209-12.046 4.0789-27.111-24.855-44.451-59.655-45.822-98.396m36.649-99.125c4.5301 1.6055 9.338 3.1242 14.406 4.5041-16.246 26.382-25.15 58.666-24.213 90.247-9.4595-0.59014-18.468-1.2497-26.929-1.97 0.34714-35.582 14.163-68.021 36.727-92.772m54.735-37.612c-7.1178 4.5786-13.728 9.9025-19.717 15.882-6.308 6.3194-11.998 13.227-16.992 20.629-4.4528-1.1504-8.8641-2.4559-13.226-3.914 14.238-14.17 31.234-25.264 49.936-32.596m6.6477 40.927-10.267-0.21696-12.644-10.284-7.9842 9.0342c-2.0047-0.42524-3.9747-0.86784-5.91-1.3191 4.4382-6.3565 9.4242-12.312 14.901-17.799 16.081-15.968 34.957-25.87 54.379-28.769-10.31 7.1857-23.232 21.375-32.475 49.363m48.877-50.161 1.7617 0.095463c5.5455 0.69427 11.022 3.6883 16.307 8.9735 8.4701 8.4875 15.821 22.165 21.575 39.261-4.0789 1.4493-7.6196 2.7684-10.249 3.5755l-71.831-1.6055c14.076-41.292 36.189-48.946 42.437-50.3m78.713 40.494c-10.414-0.95463-22.72 2.3171-33.004 5.7451-6.0922-17.99-13.972-32.431-23.171-41.639-0.64663-0.63325-1.3123-1.2468-1.996-1.8398 23.866 5.3546 43.349 17.982 58.171 37.734m23.935-0.17357c-4.0008 1.5621-8.5309 3.0114-13.521 4.3566-9.0082-14.172-20.872-26.86-36.449-36.059 18.634 7.065 35.636 17.848 49.97 31.694m-37.239 104.33c2.2564-3.7751 4.4781-7.4721 6.665-10.935l7.8974-14.224c12.063-23.97 15.517-38.853 16.298-47.02 9.7979 24.664 13.382 50.725 14.536 70.122v0.19961c-14.319 0.78106-29.489 1.3886-45.406 1.8572m-6.1617 10.249c0.7637-1.267 1.5448-2.5341 2.2998-3.8012 17.418-0.47731 33.95-1.1456 49.51-1.9787 0.60749 33.481-9.4855 65.296-28.335 89.735-11.884-3.2461-23.975-5.6817-36.189-7.2899 7.0556-21.956 11.568-48.573 12.705-76.657m-108.18 47.575 6.1096-0.0521c0.39053-3.7751 0.77238-7.5589 2.1002-10.926 4.5475-16.966 22.217-35.59 39.036-38.81v-15.855c8.5135-10.917 6.0836-24.777 5.7885-38.602l-9.4768-0.0955v-8.0275l9.6417 0.09546 0.18225-10.249h8.2619v10.249l8.7826-0.09546v8.0275l-9.4768 0.0955c0.0174 14.128-2.3866 27.467 6.3179 38.602v15.847c16.602 1.5708 25.289 12.644 29.246 19.752 1.631-2.1814 3.2024-4.4068 4.7124-6.6737-1.7791 24.091-6.0749 46.456-12.106 64.993-13.553-1.5401-27.183-2.305-40.823-2.2911-14.181 0-28.005 0.80709-41.223 2.3345-2.9329-9.2891-5.2949-18.749-7.0729-28.326m2.2043-137.32 54.796 0.59881c-17.183 8.9475-41.379 28.717-61.999 52.635 1.0848-21.358 3.6883-38.871 7.2031-53.233m-12.757 41.735-5.1723-41.925 11.568 0.11282c-2.8465 11.872-5.0856 25.705-6.396 41.813m-17.99 129.64c10.18-5.8666 19.9-15.239 23.519-26.461 1.6229 7.5936 3.5061 14.805 5.6236 21.566-10.188 1.3886-19.96 3.2197-29.16 5.4934zm-0.60749-164.46 8.2705 71.857c-14.634-0.47034-29.261-1.1242-43.878-1.9613-1.0674-31.208 7.8974-63.188 24.265-88.971 1.6055 0.39053 3.2197 0.75502 4.8686 1.1282l-5.398 6.0923 11.863 11.855zm-9.2599 159.47c-14.545-22.338-23.883-50.882-26.027-83.217 13.235 0.7637 27.25 1.3886 41.743 1.8745l-1.7357 2.4994c-8.5049 18.442-18.624 54.908-13.972 78.843m194.79-186.34c23.649 25.159 38.124 58.588 38.254 95.289-9.069 0.73766-18.607 1.3885-28.578 1.97v-0.23432c-1.3278-22.321-6.4047-60.055-24.612-91.922 5.0786-1.3927 10.067-3.0969 14.936-5.1029m-108.21-50.283c-83.469 0-151.12 65.357-151.12 145.98 0 80.631 67.648 145.99 151.1 145.99 83.452 0 151.1-65.357 151.1-145.99 0-80.623-67.648-145.97-151.09-145.97m280.81 101.91-0.71163 16.975h-50.526c-0.54674 6.6911-0.60749 13.764-0.91124 20.551h43.652c0.15621 6.5088-0.31242 13.061-0.50335 19.665h-43.427c-0.26903-0.0868-0.49467-0.21696-0.53806 0l-0.82445 22.382h49.805c-0.14753 5.9881-0.60749 11.412-0.92859 17.487h-72.5l4.0355-97.059zm150.22 0 9e-3 -0.0174h-21.575l-32.423 73.298-1.5968 3.1676c-0.91123-2.3345-1.6576-4.7471-2.482-7.1771l-7.8453-23.605 20.472-45.718c-3.8619 0-19.379 0-21.045-0.0174l-8.0102 18.016-0.52939 0.65088c-2.3258-6.0749-4.1917-12.532-6.5001-18.615h-20.091l14.562 45.848-13.773 30.158-0.74635 1.0588c-0.0434-0.0868-0.21696-0.17357-0.17357-0.31242l-21.566-67.943-2.8292-8.8086h-21.852l27.198 83.782 4.5822 13.287h26.73l9.5897-20.776 1.727-3.3846 0.31243 0.3211 7.5242 23.822c2.916 0 21.739-0.0347 26.973-9e-3 1.8225-4.183 3.8012-8.1838 5.398-12.445l12.393-27.216 18.372-41.049 25.393 0.026 0.30374 0.17357-1.6315 41.873-1.2757 38.654c0.49467 0 19.639-0.0174 20.151 0l0.47732-7.7064 4.0441-73.046 29.246-0.21696c0.23432-5.4674 0.57277-11.473 0.66824-16.072zm78.106 0h30.21l35.503 75.424c0.0868 0.0434 0.1215 0.22563 0.30375 0.17356l0.21696-0.30374 3.8359-75.294h19.683l-3.0635 59.829-1.9353 37.23h-32.987l-11.247-23.744-24.525-51.133-0.21696-0.21696-0.21696 0.30374-4.5822 74.791h-19.778l4.6603-97.059z" fill="#a30000" stroke-width="8.6784"/>
</svg>
