<?xml version="1.0" encoding="UTF-8"?>
<svg width="800" height="321.91" version="1.1" xmlns="http://www.w3.org/2000/svg">
	<g fill="#e94e35">
		<path d="m160.48 0c-88.632 0-160.48 72.064-160.48 160.95 0 88.897 71.849 160.95 160.48 160.95 88.64 0 160.48-72.056 160.48-160.95 0-88.889-71.841-160.95-160.48-160.95m114.95 55.45c25.117 27.729 40.484 64.593 40.616 105.07-9.6328 0.79964-19.756 1.5185-30.338 2.1566-7e-3 -0.0808-7e-3 -0.16155-0.0159-0.2504-1.4084-24.611-6.8083-66.208-26.128-101.36 5.9368-1.7285 11.259-3.6024 15.865-5.6136m-206.9 205.43c-15.437-24.619-25.35-56.096-27.63-91.748 14.06 0.8481 28.937 1.5427 44.336 2.0758l-1.8596 2.7382c-9.0103 20.346-19.763 60.546-14.846 86.934m9.8273-175.82 8.7846 79.229c-16.231-0.55732-31.871-1.2762-46.608-2.1647-1.1204-34.409 8.4034-69.673 25.778-98.097 1.704 0.42809 3.4314 0.84002 5.1743 1.2439l-5.7267 6.7202zm0.6536 181.32c10.815-6.4617 21.125-16.809 24.984-29.167 1.7196 8.3679 3.7115 16.324 5.9679 23.779-10.823 1.5266-21.203 3.5459-30.976 6.0498zm19.102-142.93-5.4855-46.217 12.278 0.12924c-3.0268 13.085-5.3999 28.327-6.7927 46.088m13.554-46.015 58.178 0.66232c-18.223 9.8703-43.939 31.67-65.826 58.034 1.1516-23.545 3.9138-42.849 7.6486-58.697m-2.342 151.41 6.4893-0.0485c0.40461-4.1678 0.82477-8.3356 2.2331-12.043 4.8242-18.715 23.599-39.239 41.457-42.809v-17.463c9.0492-12.027 6.4581-27.309 6.1547-42.558l-10.076-0.0969v-8.8445l10.24 0.0969 0.21008-11.3h8.7535v11.3l9.3448-0.0969v8.8445l-10.076 0.0969c0.0233 15.581-2.5444 30.289 6.7149 42.558v17.463c17.631 1.7527 26.86 13.949 31.061 21.792 1.6885-2.3262 3.3614-4.814 5.0031-7.3502-1.8907 26.55-6.4581 51.201-12.87 71.652-13.904-1.6639-28.47-2.5362-43.347-2.5362-15.056 0-29.754 0.88848-43.775 2.5847-2.9567-9.5956-5.4778-20.072-7.5163-31.242m114.88-52.445c0.82477-1.4054 1.6496-2.8028 2.4665-4.2082 18.495-0.50886 36.041-1.2439 52.583-2.1647 0.63803 36.896-10.084 71.984-30.089 98.913-11.905-3.4166-24.821-6.1144-38.445-8.0206 7.4852-24.215 12.286-53.551 13.484-84.519m6.5593-11.3c2.4043-4.1759 4.7697-8.2468 7.0806-12.059l8.4034-15.694c12.807-26.42 16.464-42.825 17.297-51.839 10.403 27.204 14.216 55.934 15.445 77.331 0 0.0646 7e-3 0.13731 7e-3 0.21-15.219 0.85618-31.326 1.5347-48.234 2.0516m39.55-115.03c-4.2484 1.7124-9.0492 3.3116-14.356 4.7897-9.5705-15.621-22.16-29.611-38.71-39.748 20.051 7.9075 38.08 19.902 53.066 34.958m-25.412 0.18578c-11.064-1.05-24.136 2.5605-35.053 6.3325-6.4659-19.829-14.83-35.741-24.611-45.894-0.70029-0.72694-1.4006-1.3812-2.1086-2.0354 25.335 5.9044 46.024 19.821 61.772 41.597m-83.597-44.642c0.62247 0.032308 1.2527 0.072695 1.8674 0.11308 5.8901 0.75117 11.702 4.0628 17.312 9.8945 9.0103 9.3453 16.815 24.433 22.923 43.277-4.3262 1.5993-8.0921 3.0451-10.893 3.9416l-76.276-1.7689c14.932-45.531 38.43-53.971 45.067-55.458m-51.914 55.296-10.901-0.24231-13.43-11.332-8.489 9.951c-2.1164-0.4604-4.2095-0.94502-6.2714-1.4539 4.7852-7.0675 10.076-13.642 15.826-19.603 17.071-17.632 37.123-28.553 57.765-31.743-10.955 7.9156-24.689 23.561-34.5 54.424m-7.065-45.127c-7.3218 4.8705-14.34 10.702-20.931 17.503-6.6293 6.8494-12.66 14.498-18.052 22.761-4.902-1.3327-9.6172-2.7785-14.045-4.3213 14.9-15.411 32.913-27.737 53.027-35.943m-58.115 41.468c4.8008 1.7689 9.9129 3.4328 15.297 4.9594-17.25 29.094-26.704 64.698-25.708 99.502-10.045-0.65425-19.623-1.3893-28.603-2.1728 0.37348-39.223 15.04-75.004 39.013-102.29m-38.936 109.3c9.0725 0.78348 18.736 1.5024 28.867 2.1566 2.4199 40.119 14.2 75.214 32.602 101.81-4.4351 1.3893-8.6913 2.8997-12.792 4.499-28.797-27.398-47.207-65.772-48.677-108.47m54.458 113.7c3.657-1.3408 7.4385-2.6008 11.352-3.7801 9.5861 12.503 20.721 22.842 33.1 30.612-16.34-6.4213-31.326-15.54-44.452-26.832m19.063-5.0321 0.02334-0.94502c10.419-2.7543 21.584-4.9513 33.294-6.5667 6.357 18.812 14.449 33.94 23.872 43.722 0.90258 0.93694 1.8207 1.8093 2.7389 2.6331-23.195-5.2905-43.713-18.925-59.928-38.843m81.839 41.331h-0.0311c-6.7538 0-13.43-3.3843-19.865-10.056-8.4189-8.7395-15.787-22.495-21.709-39.659 13.329-1.5508 27.28-2.3666 41.581-2.3666 14.122 0 27.91 0.79964 41.122 2.3182-10.566 30.273-25.327 49.739-41.099 49.763m23.693-4.8221c9.446-9.8137 17.678-25.144 24.191-44.085 12.706 1.7204 24.813 4.1274 36.002 7.1967-1.206 1.4377-2.4276 2.8674-3.6881 4.2486-16.682 18.392-37.177 30.467-59.158 35.2 0.8948-0.80771 1.774-1.6558 2.6533-2.5604m34.921-5.5409c9.5082-5.9932 18.425-13.44 26.478-22.309 2.0308-2.2454 3.9994-4.5716 5.8901-6.9625 3.4002 1.0581 6.6838 2.1566 9.874 3.3358-12.519 10.775-26.758 19.579-42.242 25.936m48.024-31.154c-3.6181-1.4216-7.3529-2.7462-11.22-3.9901 19.966-27.939 30.61-63.809 29.91-101.41 10.442-0.63002 20.417-1.3408 29.949-2.1243-1.6962 42.332-20.051 80.319-48.638 107.52"/>
		<path d="m456.92 107.94-0.77453 18.74h-54.502c-0.60065 7.3892-0.66388 15.183-0.98 22.661h47.08c0.1659 7.1951-0.32404 14.423-0.53743 21.707h-46.859c-0.26872-0.097-0.51372-0.23445-0.56905 0l-0.88517 24.698h53.735c-0.1659 6.6131-0.65597 12.596-1.0116 19.297h-78.212l4.3548-107.1z"/>
		<path d="m618.96 107.93 0.0159-0.0243h-23.275l-34.98 80.901-1.7229 3.4925c-0.98792-2.587-1.7862-5.2549-2.6792-7.9308l-8.4645-26.032 22.082-50.463c-4.1572 0-20.896 0-22.698-0.0161l-8.6384 19.871-0.57695 0.7276c-2.4974-6.7101-4.5128-13.824-7.0024-20.551h-21.671l15.696 50.584-14.842 33.3-0.80615 1.1561c-0.0475-0.097-0.245-0.19404-0.18967-0.33147l-23.267-74.983-3.0586-9.7255h-23.568l29.337 92.453 4.9396 14.665h28.839l10.338-22.919 1.8652-3.735 0.33193 0.33954 8.1325 26.29c3.1613 0 23.449-0.0404 29.092-0.0159 1.9679-4.6081 4.1018-9.0141 5.8327-13.727l13.357-30.034 19.822-45.281 27.401 0.0161 0.33194 0.19402-1.7704 46.21-1.3673 42.653c0.52161 0 21.173-0.0242 21.726 0l0.52161-8.5048 4.3548-80.61 31.55-0.24253c0.26081-6.031 0.63226-12.652 0.73501-17.729z"/>
		<path d="m698.69 107.9h37.067l38.3 83.237c0.0869 0.0485 0.13439 0.24252 0.33195 0.19402l0.2371-0.33955 4.1334-83.092h21.236l-3.3036 66.017-2.0944 41.093h-35.589l-12.124-26.202-26.468-56.429-0.2371-0.24253-0.2371 0.34763-4.9317 82.526h-21.331z"/>
	</g>
</svg>
