<?xml version="1.0" encoding="UTF-8" standalone="no"?>
<!-- Created with Inkscape (http://www.inkscape.org/) -->
<svg
   xmlns:dc="http://purl.org/dc/elements/1.1/"
   xmlns:cc="http://web.resource.org/cc/"
   xmlns:rdf="http://www.w3.org/1999/02/22-rdf-syntax-ns#"
   xmlns:svg="http://www.w3.org/2000/svg"
   xmlns="http://www.w3.org/2000/svg"
   xmlns:xlink="http://www.w3.org/1999/xlink"
   xmlns:sodipodi="http://sodipodi.sourceforge.net/DTD/sodipodi-0.dtd"
   xmlns:inkscape="http://www.inkscape.org/namespaces/inkscape"
   width="262"
   height="200"
   id="svg2"
   sodipodi:version="0.32"
   inkscape:version="0.45.1"
   version="1.0"
   inkscape:output_extension="org.inkscape.output.svg.inkscape">
  <g
     inkscape:label="Layer 1"
     inkscape:groupmode="layer"
     id="layer1"
     transform="translate(-73.388309,-696.31988)">
    <g
       id="use4302"
       clip-path="url(#id398)"
       transform="matrix(8.3209065,0,0,-8.3209065,-2724.4547,2446.5772)">
      <g
         id="g4039"
         transform="matrix(0.89044,0,0,0.89044,325.54553,183.18173)">
        <path
           style="fill:#d81729;fill-rule:nonzero;stroke:none"
           id="path4041"
           d="M 35.24271,8.64651 L 39.0108,8.64651 L 39.0108,30.50494 L 35.24271,30.50494 L 35.24271,8.64651" />
        <path
           style="fill:#d81729;fill-rule:nonzero;stroke:none"
           id="path4043"
           d="M 33.92969,30.50494 L 17.06738,30.50494 L 17.06738,8.64651 L 33.92969,8.64651 L 33.92969,30.50494" />
        <path
           style="fill:#d81729;fill-rule:nonzero;stroke:none"
           id="path4045"
           d="M 35.24271,7.3653 L 35.24271,3.51172 L 39.0108,3.51172 L 39.0108,7.3653 L 35.24271,7.3653" />
        <path
           style="fill:#d81729;fill-rule:nonzero;stroke:none"
           id="path4047"
           d="M 33.91699,7.3653 L 15.7388,7.3653 L 15.7388,7.41992 L 15.7291,7.41992 L 15.7291,30.50494 L 12.01321,30.50494 L 12.01321,3.51172 L 33.91699,3.51172 L 33.91699,7.3653" />
        <path
           style="fill:#ffffff;fill-rule:nonzero;stroke:none"
           id="path4049"
           d="M 17.96341,15.9053 L 17.96341,9.50882 L 19.12939,9.50882 C 19.12939,9.50882 19.12939,11.62991 19.12939,12.18652 C 19.64951,12.18652 21.3038,12.18652 21.3038,12.18652 L 21.3038,13.31253 C 21.3038,13.31253 19.64951,13.31253 19.12939,13.31253 C 19.12939,13.72562 19.12939,14.36621 19.12939,14.77933 C 19.6539,14.77933 21.33261,14.77933 21.33261,14.77933 L 21.33261,15.9053 L 17.96341,15.9053" />
        <path
           style="fill:#ffffff;fill-rule:nonzero;stroke:none"
           id="path4051"
           d="M 21.9585,15.9053 L 21.9585,9.50882 L 23.14697,9.50882 L 23.14697,15.9053 L 21.9585,15.9053" />
        <path
           style="fill:#ffffff;fill-rule:nonzero;stroke:none"
           id="path4053"
           d="M 23.7793,15.9053 L 23.7793,9.50882 L 27.09177,9.50882 L 27.09177,10.60742 C 27.09177,10.60742 25.46539,10.60742 24.9556,10.60742 C 24.9556,11.25781 24.9556,15.9053 24.9556,15.9053 L 23.7793,15.9053" />
        <path
           style="fill:#ffffff;fill-rule:nonzero;stroke:none"
           id="path4055"
           d="M 27.6636,15.91211 L 27.6636,9.50391 L 28.82428,9.50391 C 28.82428,9.50391 28.82428,14.12601 28.82428,14.77643 C 29.14697,14.77643 29.4332,14.77643 29.75739,14.77643 C 29.75739,14.12601 29.75739,9.50391 29.75739,9.50391 L 30.91898,9.50391 C 30.91898,9.50391 30.91898,14.12601 30.91898,14.77643 C 31.24179,14.77643 31.52789,14.77643 31.85107,14.77643 C 31.85107,14.12601 31.85107,9.50391 31.85107,9.50391 L 33.0123,9.50391 L 33.0123,15.91211 L 27.6636,15.91211" />
        <path
           style="fill:#d81729;fill-rule:nonzero;stroke:none"
           id="path4057"
           d="M 40.30521,23.51169 L 40.30521,30.49225 L 47.28467,30.49225 L 47.28467,23.51169 L 40.30521,23.51169" />
        <path
           style="fill:#d81729;fill-rule:nonzero;stroke:none"
           id="path4059"
           d="M 40.30521,15.36722 L 40.30521,22.34821 L 47.28467,22.34821 L 47.28467,15.36722 L 40.30521,15.36722" />
        <path
           style="fill:#ffffff;fill-rule:nonzero;stroke:none"
           id="path4061"
           d="M 44.34329,29.4068 L 44.34329,27.56601 L 46.20508,27.56601 L 46.20508,26.41513 L 44.35309,26.41513 L 44.35309,24.5455 L 43.18359,24.5455 L 43.18359,26.41513 L 41.33838,26.41513 L 41.33838,27.56601 L 43.20367,27.56601 L 43.20367,29.4068 L 44.34329,29.4068" />
        <path
           style="fill:none;stroke:#c52236;stroke-width:0.00513;stroke-linecap:butt;stroke-linejoin:miter;stroke-miterlimit:4"
           id="path4063"
           stroke-miterlimit="4"
           d="M 44.34329,29.4068 L 44.34329,27.56601 L 46.20508,27.56601 L 46.20508,26.41513 L 44.35309,26.41513 L 44.35309,24.5455 L 43.18359,24.5455 L 43.18359,26.41513 L 41.33838,26.41513 L 41.33838,27.56601 L 43.20367,27.56601 L 43.20367,29.4068 L 44.34329,29.4068 z " />
        <path
           style="fill:#ffffff;fill-rule:nonzero;stroke:none"
           id="path4065"
           d="M 44.46289,21.21582 L 44.46289,21.21979 L 42.74179,21.21979 L 42.74179,20.04251 L 43.31448,20.04251 L 43.31448,16.3765 L 44.4639,16.3765 L 44.4639,21.21582 L 44.46289,21.21582" />
        <path
           style="fill:none;stroke:#c52236;stroke-width:0.00513;stroke-linecap:butt;stroke-linejoin:miter;stroke-miterlimit:4"
           id="path4067"
           stroke-miterlimit="4"
           d="M 44.46289,21.21582 L 44.46289,21.21979 L 42.74179,21.21979 L 42.74179,20.04251 L 43.31448,20.04251 L 43.31448,16.3765 L 44.4639,16.3765 L 44.4639,21.21582 L 44.46289,21.21582 z " />
      </g>
    </g>
  </g>
</svg>
