<?xml version="1.0" encoding="utf-8"?><svg version="1.1" xmlns="http://www.w3.org/2000/svg" width="620" height="570"><title>Radio FM4 Logo</title><path fill="#FDB813" d="M87.779,8.235h444.443c42.953,0,77.776,34.825,77.776,77.784v397.97c0,42.953-34.823,77.775-77.776,77.775 	H87.779c-42.953,0-77.778-34.822-77.778-77.775V86.021C10,43.061,44.825,8.235,87.779,8.235"/><polygon points="312.559,301.562 312.559,302.248 312.559,308.774 312.559,309.635 313.418,309.635 319.259,309.635  	320.117,309.635 320.117,308.774 320.117,302.248 320.117,301.562 319.259,301.562 313.418,301.562 "/><path d="M167.082,315.473c-2.101,0-4.477,0.294-6.526,1.203c-1.427,0.632-2.359,2.091-3.436,3.437v-3.095v-1.028h-0.859h-5.667 	h-0.688v1.028v34.867v0.86h0.688h6.183h0.688v-0.86v-22.328c0-2.07,0.703-3.943,2.062-5.325c1.357-1.382,3.42-2.061,6.354-2.061 	h3.606c5.207,0,8.189,0.218,9.618,1.374c0.715,0.577,1.072,1.354,1.374,2.577c0.302,1.221,0.516,2.851,0.516,4.979v1.546v0.859 	h0.859h5.323h0.859v-0.859v-4.122c0-4.405-0.898-7.612-3.437-9.791c-2.536-2.176-6.408-3.263-12.021-3.263L167.082,315.473 	L167.082,315.473z"/><polygon points="312.559,315.989 312.559,317.018 312.559,351.885 312.559,352.747 313.418,352.747 319.259,352.747  	320.117,352.747 320.117,351.885 320.117,317.018 320.117,315.989 319.259,315.989 313.418,315.989 "/><path d="M297.617,301.562h-6.183h-0.688v0.687v17.177c-0.714-0.943-1.234-1.854-2.405-2.405c-1.983-0.935-4.474-1.545-7.899-1.545 	h-9.104c-7.178,0-12.171,0.995-15.286,3.605c-3.114,2.61-4.122,6.67-4.122,12.369v6.354c0,6.211,2.045,10.022,5.496,12.366 	s7.979,3.092,13.397,3.092h8.416c3.171,0,6.072-0.479,8.416-1.545c1.645-0.749,2.423-2.229,3.435-3.607v3.778v0.86h0.859h5.668 	h0.687v-0.86V302.25v-0.688H297.617L297.617,301.562z M290.746,337.632c0,3.06-0.654,5.359-2.231,6.87 	c-1.577,1.51-4.323,2.229-8.589,2.229h-9.445c-4.705,0-7.452-0.646-8.933-2.061c-1.479-1.414-2.062-3.737-2.062-7.041v-6.87 	c0-3.904,0.997-6.011,2.748-7.214c1.751-1.202,4.596-1.374,8.589-1.374h8.072c3.927,0,6.813,0.152,8.76,1.374 	c1.947,1.223,3.091,3.374,3.091,7.387V337.632z"/><path d="M375.595,318.393c-3.68-2.256-8.601-2.92-14.258-2.92h-8.415c-5.659,0-10.751,0.664-14.429,2.92 	c-3.678,2.255-5.84,6.401-5.84,12.367v7.386c0,5.965,2.162,9.94,5.84,12.194s8.771,2.92,14.429,2.92h8.415 	c5.657,0,10.578-0.665,14.258-2.92c3.676-2.255,5.84-6.23,5.84-12.194v-7.386C381.434,324.796,379.271,320.648,375.595,318.393z M373.877,337.974c0,3.905-1.112,5.8-2.921,7.04c-1.804,1.241-4.363,1.718-7.729,1.718h-12.021c-3.362,0-6.1-0.477-7.898-1.718 	c-1.807-1.24-3.096-3.134-3.096-7.04v-7.042c0-3.908,1.289-6.146,3.096-7.387c1.801-1.24,4.536-1.374,7.898-1.374h12.021 	c3.364,0,5.926,0.134,7.729,1.374c1.809,1.241,2.921,3.478,2.921,7.387V337.974z"/><path d="M235.44,317.708c-3.473-1.849-8.211-2.232-13.74-2.232h-9.446c-5.351,0-8.931,0.633-11.508,2.232 	c-2.577,1.599-3.951,4.186-3.951,7.558v1.718v0.859h0.859h6.012h0.859v-0.859v-1.2c0-1.298,0.346-1.934,1.373-2.577 	c1.027-0.646,2.894-1.031,6.525-1.031h8.588c4.498,0,7.932,0.16,9.791,1.031c0.93,0.435,1.464,0.921,1.89,1.717 	c0.425,0.797,0.688,1.95,0.688,3.435v4.813c-0.92-1.004-1.832-1.938-3.264-2.404c-2.071-0.682-4.717-1.029-8.587-1.029h-9.446 	c-5.17,0-9.249,0.194-12.194,1.547c-1.474,0.675-2.651,1.887-3.436,3.263c-0.783,1.375-1.202,3.063-1.202,5.151v2.062 	c0,3.396,0.83,6.383,2.748,8.416c1.918,2.032,4.689,3.092,9.275,3.092h14.256c4.552,0,7.46-0.176,9.447-0.857 	c1.19-0.41,1.714-1.438,2.403-2.232v1.718v0.859h0.859h5.667h1.03v-0.859v-23.356C240.937,323.11,238.913,319.552,235.44,317.708z M233.381,342.44c0,0.961-0.274,1.722-0.688,2.231c-0.411,0.513-0.98,0.865-2.063,1.203c-2.161,0.674-6.009,0.856-11.336,0.856 	h-7.558c-3.987,0-6.315-0.317-7.386-1.028c-0.534-0.355-0.829-0.99-1.031-1.546c-0.201-0.558-0.171-1.136-0.171-2.063v-1.031 	c0-1.026-0.076-1.844,0.171-2.401c0.248-0.563,0.602-1.04,1.202-1.375c1.202-0.669,3.625-0.859,7.387-0.859h8.931 	c4.505,0,7.816,0.181,9.79,0.859c0.987,0.34,1.65,0.813,2.063,1.375c0.411,0.558,0.688,1.331,0.688,2.401L233.381,342.44 	L233.381,342.44z"/><polygon points="275.117,373.872 275.117,480.361 303.799,480.361 303.799,403.928 303.971,403.928 342.617,480.361  	364.603,480.361 403.248,403.928 403.42,403.928 403.42,480.361 432.102,480.361 432.102,373.872 386.931,373.872 353.608,442.403  	320.289,373.872 "/><polygon points="150.249,374.901 150.249,481.219 182.883,481.219 182.883,444.979 257.598,444.979 257.598,420.245  	182.883,420.245 182.883,400.494 261.376,400.494 261.376,374.901 "/><path d="M551.814,436.047V374.9h-35.726l-72.136,46.031v38.989h78.492v21.298h29.368v-21.298h14.944v-23.876L551.814,436.047 	L551.814,436.047z M522.446,436.047h-54.275v-0.17l54.275-35.383V436.047z"/></svg>