<?xml version="1.0" encoding="UTF-8"?>
<svg width="488.94" height="450" version="1.1" xmlns="http://www.w3.org/2000/svg">
	<path d="m63.382 0h362.17c35.011 0 63.386 28.309 63.386 63.234v323.53c0 34.925-28.376 63.234-63.386 63.234h-362.17c-35.007 0-63.382-28.312-63.382-63.234v-323.53c0-34.925 28.375-63.234 63.382-63.234z" fill="#ffe500"/>
	<path d="m453.68 366.62v-20.017h-12.593v-51.545h-30.132l-60.845 38.81v32.752h66.27v17.926h24.71v-17.926zm-37.299-20.017h-45.795v-0.24934l45.795-29.786zm-100.32 37.184h24.159v-89.488h-38.129l-28.059 57.599-28.07-57.599h-38.122v89.488h24.148v-64.272h0.22329l32.54 64.272h18.559l32.532-64.272h0.21956zm5.6974-122.66v-7.1934c0-13.01-10.435-14.673-19.53-14.673h-7.9191c-9.0988 0-19.537 1.6635-19.537 14.673v7.1934c0 13.014 10.438 14.677 19.537 14.677h7.9191c9.095 0 19.53-1.6634 19.53-14.677zm-8.3098-0.32377c0 5.7756-2.4077 7.7181-9.5491 7.7181h-11.257c-7.1339 0-9.5379-1.9426-9.5379-7.7181v-6.5496c0-5.7719 2.404-7.7181 9.5379-7.7181h11.257c7.1413 0 9.5491 1.9463 9.5491 7.7181zm-57.678 14.491h8.3098v-35.524h-8.3098zm0-40.448h8.3098v-8.8122h-8.3098zm-19.98 40.448h7.9265v-49.256h-8.3136v15.567c-1.9798-1.5518-4.8676-2.3445-9.2253-2.3445h-8.4252c-13.851 0-18.759 4.0749-18.759 15.578v5.7793c0 13.46 9.8542 15.191 18.439 15.191h7.7107c4.6666 0 8.2466-1.176 10.647-3.2413v2.7278zm-0.38702-14.819c0 4.8341-1.6151 8.0456-9.4858 8.0456h-9.0095c-8.2131 0-9.5974-2.4561-9.5974-7.9786v-6.4231c0-5.9542 2.1472-7.5879 9.992-7.5879h7.4614c8.2503 0 10.639 1.7304 10.639 7.7181zm-105.36 56.089h66.159v-21.506h-93.66v89.488h27.501v-30.53h63.059v-20.765h-63.059zm51.485-41.27h8.3136v-23.352c0-11.704-9.6123-12.682-18.625-12.682h-8.7489c-7.4688 0-15.101 1.1648-15.101 9.8058v1.4699h8.2317l0.0856-1.0234c0-1.3211 0-2.9734 6.9069-2.9734h8.1014c8.9127 0 10.837 0.93778 10.837 5.2881v2.8543c-2.3072-1.6114-5.4779-2.0058-10.442-2.0058h-8.8792c-9.2476 0-16.318 0.71824-16.318 9.7388v2.177c0 7.7591 3.6804 11.22 11.942 11.22h13.256c5.649 0 8.5257-0.45773 10.442-1.7304v1.2132zm0-10.197c0 2.4189-1.7416 3.4237-12.504 3.4237h-7.3386c-7.48 0-7.48-1.4327-7.48-3.7995v-1.0308c0-2.5938 0.31259-3.7437 7.7405-3.7437h8.4959c9.4114 0 11.086 0.96012 11.086 3.6842zm-49.182-7.774h7.934v-5.3141c0-9.0578-4.3912-12.749-15.157-12.749h-5.2099c-3.9186 0-6.6352 1.3806-8.775 3.3939v-2.8841h-7.934v35.524h8.3284v-22.194c0-3.1781 1.9128-6.5645 7.2902-6.5645h3.4088c9.4932 0 10.115 1.0048 10.115 7.9786z"/>
</svg>
