<?xml version="1.0" encoding="utf-8"?>
<!-- Generator: Adobe Illustrator 13.0.2, SVG Export Plug-In . SVG Version: 6.00 Build 14948)  -->
<!DOCTYPE svg PUBLIC "-//W3C//DTD SVG 1.0//EN" "http://www.w3.org/TR/2001/REC-SVG-20010904/DTD/svg10.dtd">
<svg version="1.0"
	 id="Layer_1" inkscape:version="0.46" sodipodi:docname="Food_Network_Logo.svg" sodipodi:version="0.32" xmlns:sodipodi="http://sodipodi.sourceforge.net/DTD/sodipodi-0.dtd" xmlns:rdf="http://www.w3.org/1999/02/22-rdf-syntax-ns#" xmlns:cc="http://creativecommons.org/ns#" xmlns:svg="http://www.w3.org/2000/svg" xmlns:inkscape="http://www.inkscape.org/namespaces/inkscape" xmlns:dc="http://purl.org/dc/elements/1.1/" inkscape:output_extension="org.inkscape.output.svg.inkscape"
	 xmlns="http://www.w3.org/2000/svg" xmlns:xlink="http://www.w3.org/1999/xlink" x="0px" y="0px" width="170.201px" height="167px"
	 viewBox="8.299 10.5 170.201 167" enable-background="new 8.299 10.5 170.201 167" xml:space="preserve">
<defs>
	
	
		<inkscape:perspective  id="perspective8589" inkscape:persp3d-origin="100 : 66.666667 : 1" inkscape:vp_x="0 : 100 : 1" inkscape:vp_y="0 : 1000 : 0" sodipodi:type="inkscape:persp3d" inkscape:vp_z="200 : 100 : 1">
		</inkscape:perspective>
</defs>
<sodipodi:namedview  id="base" inkscape:window-y="-4" inkscape:pageopacity="0.0" inkscape:window-height="721" inkscape:current-layer="g8554" inkscape:pageshadow="2" inkscape:window-width="1024" inkscape:window-x="-4" inkscape:cy="96.025272" showgrid="false" pagecolor="#ffffff" bordercolor="#666666" gridtolerance="10.0" inkscape:cx="100" objecttolerance="10.0" borderopacity="1.0" inkscape:zoom="2.54" guidetolerance="10.0">
	</sodipodi:namedview>
<path id="path8556" fill="#EE3424" d="M174.949,93.613c0,45.752-37.08,82.831-82.831,82.831c-45.744,0-82.819-37.078-82.819-82.831
	c0-45.755,37.076-82.839,82.819-82.839C137.869,10.774,174.949,47.858,174.949,93.613"/>
<path id="path8558" fill="#EE3424" d="M170.92,57.871l0.328-0.096c0.137,0.564,0.506,0.833,1.082,0.833
	c0.24,0,0.434-0.073,0.561-0.205c0.129-0.141,0.209-0.32,0.209-0.556c0-0.288-0.186-0.501-0.537-0.657
	c-0.33-0.141-0.656-0.261-0.994-0.4c-0.353-0.196-0.52-0.461-0.52-0.813c0-0.313,0.08-0.541,0.271-0.721
	c0.193-0.18,0.465-0.28,0.801-0.28c0.304,0,0.561,0.084,0.777,0.249c0.217,0.144,0.359,0.376,0.446,0.673l-0.304,0.097
	c-0.152-0.485-0.456-0.729-0.921-0.729c-0.218,0-0.4,0.064-0.537,0.181c-0.151,0.132-0.199,0.304-0.199,0.532
	c0,0.141,0.031,0.264,0.127,0.353c0.097,0.108,0.306,0.221,0.642,0.344c0.521,0.205,0.865,0.376,1.043,0.549
	c0.16,0.156,0.24,0.38,0.24,0.665c0,0.313-0.113,0.569-0.338,0.757c-0.226,0.164-0.488,0.252-0.816,0.252
	c-0.369,0-0.665-0.08-0.881-0.252C171.191,58.488,171.032,58.215,170.92,57.871"/>
<polygon id="polygon8560" fill="#EE3424" points="174.557,58.84 174.204,58.84 174.204,55.036 174.813,55.036 175.87,58.259 
	175.887,58.259 176.936,55.036 177.553,55.036 177.553,58.84 177.199,58.84 177.199,55.319 176.047,58.84 175.71,58.84 
	174.557,55.319 "/>
<path id="path8562" fill="#FFFFFF" d="M37.936,118.553c1.426-6.808,2.904-21.908,4.798-40.043l6.433-0.016l0.449-2.84l-6.529,0.016
	c0.593-5.611,1.682-17.719,6.925-19.898c1.418,2.459,2.779,4.362,5.792,4.418c1.95,0.044,3.672-0.825,3.705-2.952
	c0.068-3.008-4.558-4.233-6.921-4.273c-4.397-0.072-16.882,1.565-19.958,18.376l-0.797,4.33l-5.067,0.024l-0.461,2.856l5.111,0.016
	c-1.478,13.165-4.39,39.794-5.182,43.449c-1.758,8.01-2.372,9.933-6.376,12.111c0.485,0.855,0.977,1.697,1.494,2.538
	C28.191,134.574,35.885,128.326,37.936,118.553"/>
<path id="path8564" fill="#FFFFFF" d="M73.678,89.544c0-3.365-0.236-11.339-5.159-11.339c-7.277,0-8.294,13.995-8.294,19.08
	c0,3.277,0.24,11.256,5.159,11.256C72.653,108.541,73.678,94.547,73.678,89.544 M48.89,99.313c0-12.905,8.438-24.083,22.441-24.083
	c8.607,0,13.682,3.833,13.682,12.196c0,12.905-8.439,24.104-22.441,24.104C53.969,111.527,48.89,107.691,48.89,99.313"/>
<path id="path8566" fill="#FFFFFF" d="M112.771,89.544c0-3.365-0.23-11.339-5.149-11.339c-7.273,0-8.299,13.995-8.299,19.08
	c0,3.277,0.24,11.256,5.159,11.256C111.764,108.541,112.771,94.547,112.771,89.544 M87.984,99.313
	c0-12.905,8.439-24.083,22.441-24.083c8.619,0,13.689,3.833,13.689,12.196c0,12.905-8.437,24.104-22.438,24.104
	C93.071,111.527,87.984,107.691,87.984,99.313"/>
<path id="path8568" fill="#FFFFFF" d="M148.748,95.564c1.865-4.839,2.506-9.3,3.523-16.578c-0.394-0.156-0.865-0.229-1.25-0.229
	c-8.61,0-12.681,12.508-12.681,19.474c0,1.715,0.394,5.865,2.892,5.865C144.678,104.096,147.723,98.231,148.748,95.564
	 M166.65,107.211c-4.926,2.363-10.935,4.311-15.084,4.311c-2.113,0-2.035-3.355-2.035-4.772c0-1.644,0.16-3.91,0.546-8.284
	l-0.16-0.16c-2.813,5.638-8.291,13.216-15.333,13.216c-5.614,0-7.971-5.862-7.971-10.717c0-12.277,9.701-25.033,23.23-25.033h2.813
	c1.104-8.515,1.17-12.115,1.17-14.691c0-0.861,0-1.642-0.938-1.642c-0.714,0-1.787,0.224-4.543,1.093l-0.688-2.271
	c5.543-1.955,11.583-3.2,16.958-3.356c0.704,0,0.944,0,0.944,1.173c0,7.193-5.408,44.333-5.408,48.082c0,1.025,0,2.355,1.025,2.355
	c0.545,0,2.355-0.625,4.773-1.48L166.65,107.211"/>
<path id="path8570" fill="#FFFFFF" d="M52.099,126.643v-9.496h2.084v1.025c0.832-0.592,1.795-1.199,2.915-1.199
	c1.886,0,2.805,1.245,2.805,3.174v6.498H57.64v-6.166c0-1.291-0.403-1.685-1.165-1.685c-0.979,0-1.735,0.562-2.114,1.001v6.848
	H52.099L52.099,126.643z"/>
<path id="path8572" fill="#FFFFFF" d="M69.601,120.723c-0.034-1.313-0.733-2.072-1.83-2.072c-1.086,0-1.781,0.759-1.826,2.072
	H69.601z M65.945,122.264c0.045,1.967,0.919,2.74,1.982,2.74c1.051,0,1.541-0.486,2.106-1.139l1.647,1.018
	c-0.869,1.352-2.152,1.928-3.978,1.928c-2.463,0-4.004-1.903-4.004-4.912c0-3.013,1.541-4.926,4.121-4.926
	c2.479-0.029,3.86,2.08,3.86,4.356v0.935H65.945"/>
<path id="path8574" fill="#FFFFFF" d="M76.09,117.146v-3.119h2.262v3.119h1.864v1.83h-1.864v5.373c0,0.5,0.266,0.653,0.824,0.653
	c0.341,0,0.706-0.114,1.04-0.196v1.881c-0.625,0.062-1.173,0.131-1.795,0.131c-1.677,0-2.331-0.828-2.331-2.194v-5.647h-1.305v-1.83
	H76.09L76.09,117.146z"/>
<polygon id="polygon8576" fill="#FFFFFF" points="83.006,117.146 85.158,117.146 86.448,123.061 86.479,123.061 87.852,117.146 
	89.94,117.146 91.269,123.061 91.299,123.061 92.665,117.146 94.807,117.146 92.362,126.643 90.304,126.643 88.915,120.723 
	88.87,120.723 87.488,126.643 85.446,126.643 "/>
<path id="path8578" fill="#FFFFFF" d="M101.729,118.794c-1.26,0-1.852,0.986-1.852,3.097c0,2.111,0.592,3.111,1.852,3.111
	c1.263,0,1.861-1.001,1.861-3.111C103.588,119.78,102.988,118.794,101.729,118.794 M101.729,116.971c2.582,0,4.131,1.922,4.131,4.92
	c0,3.021-1.549,4.92-4.131,4.92c-2.572,0-4.113-1.897-4.113-4.92C97.615,118.893,99.156,116.971,101.729,116.971"/>
<path id="path8580" fill="#FFFFFF" d="M109.502,126.643v-9.496h2.072v1.631h0.037c0.547-1.137,1.307-1.774,2.674-1.807v2.385
	c-0.121-0.008-0.26-0.008-0.41-0.008c-1.125,0-2.111,1.297-2.111,1.525v5.77H109.502L109.502,126.643z"/>
<polygon id="polygon8582" fill="#FFFFFF" points="117.904,126.643 117.904,113.473 120.168,113.473 120.168,120.813 
	120.234,120.813 123.036,117.146 125.625,117.146 122.824,120.691 125.822,126.643 123.408,126.643 121.313,122.391 
	120.168,123.713 120.168,126.643 "/>
</svg>
