<?xml version="1.0" encoding="UTF-8" standalone="no"?>
<!-- Generator: Adobe Illustrator 13.0.0, SVG Export Plug-In  -->
<svg
   xmlns:dc="http://purl.org/dc/elements/1.1/"
   xmlns:cc="http://creativecommons.org/ns#"
   xmlns:rdf="http://www.w3.org/1999/02/22-rdf-syntax-ns#"
   xmlns:svg="http://www.w3.org/2000/svg"
   xmlns="http://www.w3.org/2000/svg"
   xmlns:sodipodi="http://sodipodi.sourceforge.net/DTD/sodipodi-0.dtd"
   xmlns:inkscape="http://www.inkscape.org/namespaces/inkscape"
   version="1.1"
   x="0px"
   y="0px"
   width="1832px"
   height="794px"
   viewBox="0.4 -4 1832 794"
   enable-background="new 0.4 -4 1832 794"
   xml:space="preserve"
   id="svg2"
   sodipodi:version="0.32"
   inkscape:version="0.46"
   sodipodi:docname="FOX.svg"
   inkscape:output_extension="org.inkscape.output.svg.inkscape"><metadata
   id="metadata10"><rdf:RDF><cc:Work
       rdf:about=""><dc:format>image/svg+xml</dc:format><dc:type
         rdf:resource="http://purl.org/dc/dcmitype/StillImage" /></cc:Work></rdf:RDF></metadata><sodipodi:namedview
   inkscape:window-height="718"
   inkscape:window-width="1024"
   inkscape:pageshadow="2"
   inkscape:pageopacity="0.0"
   guidetolerance="10.0"
   gridtolerance="10.0"
   objecttolerance="10.0"
   borderopacity="1.0"
   bordercolor="#666666"
   pagecolor="#ffffff"
   id="base"
   showgrid="false"
   inkscape:zoom="0.29694323"
   inkscape:cx="916"
   inkscape:cy="397"
   inkscape:window-x="-8"
   inkscape:window-y="-8"
   inkscape:current-layer="svg2" />
<defs
   id="defs4"><inkscape:perspective
   sodipodi:type="inkscape:persp3d"
   inkscape:vp_x="0 : 397 : 1"
   inkscape:vp_y="0 : 1000 : 0"
   inkscape:vp_z="1832 : 397 : 1"
   inkscape:persp3d-origin="916 : 264.66667 : 1"
   id="perspective12" />
</defs>


<g
   id="g2385"
   style="fill:#f7921c;fill-opacity:1"><path
     d="M1829.1,787.9c-83.2,0-167.9,0-250.1,0c-2.3,0-6.5-10.1-7.7-12.2  c-34.4-62.1-68.8-124.5-103-186.5c-36.6,66-72.2,133.1-108.7,199.2c-81.9,0.2-163.1-0.4-244.3-0.2c9.2-17.2,19-34,28.8-50.9  c68.3-118,135.6-237.6,204-355.7c-72.7-127-146.5-253-219.6-379.7c-0.2,0-0.7-0.8-0.2-0.7c83.8,0,167.5,0,251.3,0  c30.9,56.2,61,113.1,91.4,169.7c31.6-56.1,62.1-113.3,93.4-169.7c81,0,161.9,0,242.9,0c0.2,1-0.5,2.1-1,2.9  c-70.9,124.6-143.5,249.6-214.3,374.4C1670.7,515.1,1750.9,651.6,1829.1,787.9z"
     fill="#002885"
     id="path1371_1_"
     style="fill:#f7921c;fill-opacity:1" /><path
     d="M1221.9,306.5c6.4,26,10.1,54.6,10.1,84.7c0,93.9-27.2,163.5-65,220.1  c-6.4,9.6-12.9,18.8-19.9,27.6c-20.5,26-45.3,49.7-73,69.4c-18.6,13.2-38,25.2-59.5,35.3c-42.8,20.1-94.5,35.8-154.1,35.8  c-93.2,0-162-28.4-217.7-67.4c-55.7-39.1-99.1-90.8-128.6-156c-19.8-43.7-32.8-94.1-34.3-155.5c-0.7-30.4,3.1-60.4,8.6-86.4  c14-65.6,41.5-117,76.3-161.3c34.8-44.2,78.9-78.8,132.2-104.9c20.9-10.2,44.3-18.9,69.8-25.2c25.5-6.3,53.7-10.6,84.2-10.6  c0.2,0,0.3,0,0.5,0c29.8-1.4,61.4,3.4,86.2,8.9c25.8,5.7,49.7,14.4,71,24c66,29.8,115.2,74.4,154.8,130.1  C1189.6,211.6,1209.2,255.4,1221.9,306.5z M921.9,567.1c2.4-9.6,1.7-21.9,1.7-34.6c0-96.9,0-191.8,0-289c0-12.4-1.4-22-5-31  c-3.3-8.2-8.4-15.7-14.4-21.8c-11.7-11.9-29.3-22.6-51.4-20.9c-10.7,0.8-19.6,4.2-27.4,9.1c-14.5,9.2-25.5,23.3-30,42  c-2.3,9.5-2.2,21.6-2.2,34.1c0,95.6,0,192.5,0,289c0,6.2-0.3,12.2,0.5,17.5c2.1,15.2,8.9,27.4,17.8,36.5  c11.5,11.7,29.3,21.5,52.3,19C893.5,613.8,915.3,594.1,921.9,567.1z"
     fill="#002885"
     id="path1373_1_"
     style="fill:#f7921c;fill-opacity:1" /><path
     d="M490.1,215.8c-88.6,0-177.1,0-265.7,0c-1.1,33-0.2,69.5-0.5,102.7  c71.8,0.6,144.7,0.1,217,0.2c0,71.8,0,143.5,0,215.3c-72.8,0.2-146.2-0.3-218.6,0.2c0.1,85.4,0.5,169.2,0.5,254.6  c0,0.3-0.1,0.4-0.2,0.5c-73.8,0-147.7,0-221.5,0c-0.4,0.1-0.4-0.2-0.7-0.2C-0.1,526.9-0.1,263,0.3,0.7c0-0.3,0-0.7,0.2-0.7  C158.7,0,316.9,0,475,0c0.3,0,0.4,0,0.5,0.2C480.5,72,485.3,143.9,490.1,215.8z"
     fill="#002885"
     id="path1377_1_"
     style="fill:#f7921c;fill-opacity:1" /></g>
</svg>