<svg xmlns="http://www.w3.org/2000/svg" width="450" height="449.768"><path d="M104.056 0h156.153c57.647 0 104.056 49.059 104.056 109.998v254.267H104.056C46.409 364.266 0 315.206 0 254.267V109.998C0 49.059 46.409 0 104.056 0z" fill="#db1d11"/><path d="M83.538 56.924c-4.186 0-7.554 3.368-7.554 7.554v233.485c0 4.186 3.368 7.554 7.554 7.554h61.165c4.186 0 7.554-3.368 7.554-7.554v-52.011h86.527c4.186 0 7.554-3.375 7.554-7.561v-61.158c0-4.186-3.368-7.561-7.554-7.561h-86.527v-36.476H281.28c4.186 0 7.554-3.368 7.554-7.554V64.478c0-4.186-3.368-7.554-7.554-7.554H152.256z" fill="#fff"/><path d="M324.423 207.856c-4.186 0-7.561 3.368-7.561 7.554v101.455H207.254c-4.186 0-7.554 3.368-7.554 7.554v32.289c0 4.186 3.368 7.561 7.554 7.561h109.609v77.946c0 4.186 3.375 7.554 7.561 7.554h32.289c4.186 0 7.554-3.368 7.554-7.554v-77.946h78.173a7.55 7.55 0 0 0 7.561-7.561v-32.289c0-4.186-3.375-7.554-7.561-7.554h-78.173V215.41c0-4.186-3.368-7.554-7.554-7.554z" fill="#8c1914"/></svg>