<?xml version="1.0" encoding="utf-8"?>
<!-- Generator: Adobe Illustrator 15.0.0, SVG Export Plug-In . SVG Version: 6.00 Build 0)  -->
<!DOCTYPE svg PUBLIC "-//W3C//DTD SVG 1.1//EN" "http://www.w3.org/Graphics/SVG/1.1/DTD/svg11.dtd">
<svg version="1.1" id="Calque_1" xmlns="http://www.w3.org/2000/svg" xmlns:xlink="http://www.w3.org/1999/xlink" x="0px" y="0px"
	 width="510.502px" height="876.44px" viewBox="-0.5 -67.721 510.502 876.44" enable-background="new -0.5 -67.721 510.502 876.44"
	 xml:space="preserve">
<g id="France_2_2008">
	<g>
		<path fill="#ED1B2F" d="M19.063,32.9C8.303,35.187-0.5,46.058-0.5,57.058v20c0,11,0,29,0,40v506.883c0,11,0,29,0,40v20
			c0,11,8.803,21.87,19.563,24.157l471.373,100.193c10.76,2.287,19.563-4.842,19.563-15.842v-20c0-11,0-29,0-40V8.548
			c0-11,0-29,0-40v-20c0-11-8.803-18.129-19.563-15.842L19.063,32.9z"/>
	</g>
	<g>
		
			<linearGradient id="SVGID_1_" gradientUnits="userSpaceOnUse" x1="218.8721" y1="906.1172" x2="293.2512" y2="55.9584" gradientTransform="matrix(1 0 0 -1 4 871.4414)">
			<stop  offset="0" style="stop-color:#F37364"/>
			<stop  offset="0.15" style="stop-color:#ED4555"/>
			<stop  offset="0.5" style="stop-color:#F26758"/>
			<stop  offset="1" style="stop-color:#ED1B2F"/>
		</linearGradient>
		<path fill="url(#SVGID_1_)" d="M23.744,40.411C12.984,42.698,4.181,53.569,4.181,64.569v18.649c0,11,0,29,0,40v494.564
			c0,11,0,29,0,40v18.647c0,11,8.803,21.871,19.563,24.158l459.875,97.749c10.758,2.287,19.563-4.842,19.563-15.842v-18.648
			c0-11,0-29,0-40V17.152c0-11,0-29,0-40v-18.649c0-11-8.805-18.129-19.563-15.842L23.744,40.411z"/>
	</g>
	<path fill="#ED1B2F" d="M5.25,44.569c0,0,504.75-116.021,504.75,123.206l0.002,257.853C449.5,642.5,321.625,624.5,321.625,624.5
		S14.377,709.204,1.646,291.106C-4.285,155.053,5.25,44.569,5.25,44.569z"/>
	
		<linearGradient id="SVGID_2_" gradientUnits="userSpaceOnUse" x1="264.6323" y1="688.7754" x2="354.6386" y2="178.3242" gradientTransform="matrix(1 0 0 -1 4 871.4414)">
		<stop  offset="0.5" style="stop-color:#FFFFFF"/>
		<stop  offset="1" style="stop-color:#BFBFBF"/>
	</linearGradient>
	<path fill="url(#SVGID_2_)" d="M509.997,552.854H290.631c0,0,30.462-17.461,83.232-47.266
		c90.569-51.167,124.217-91.167,136.133-130.516v-93.54c-18.532-63.62-79.367-104.016-182.619-104.016
		c-102.214,0-200.105,40.942-192.98,186.195c0,0,127.125-0.37,128.951,0c0-59.805,11.44-91.156,61.497-91.156
		c43.627,0,64.609,19.867,64.609,54.067c0,32.534-28.661,54.354-56.714,73.636c-38.652,26.563-56.549,38.664-119.417,82.036
		c-78.044,53.875-83.326,92.667-83.326,184.136c0.149,0.106,328.688,0.023,380,0V552.854H509.997z"/>
	<g>
		<path fill="none" d="M463.68,93.73c-12.406,0-13.084,6.922-13.77,12.679h24.959C474.87,99.79,473.53,93.73,463.68,93.73z"/>
		<path fill="none" d="M247.772,124.411c0,5.882,4.608,6.748,7.986,6.748c9.135,0,12.955-4.877,12.842-12.268v-5.857
			c-0.574,0.341-1.217,0.677-1.742,0.876C259.686,117.263,247.772,113.91,247.772,124.411z"/>
		<path fill="#FFFFFF" d="M283.236,125.306v-24.214c0-13.886-7.301-18.875-23.01-18.875c-19.146,0-25.097,7.268-25.424,16.918v2.492
			h13.907c0.475-4.676,0-8.764,10.767-8.764c7.254,0,9.121,2.684,9.121,6.694c0,2.612-0.578,4.793-1.445,5.529
			c-3.118,2.193-19.49,1.317-26.766,4.479c-4.391,2.145-7.897,5.863-7.897,14.113c0,11.494,6.07,18.448,20.867,18.448
			c7.675,0,12.563-1.313,16.594-8.36c0.721,1.289,1.385,3.345,3.006,4.774c2.1,1.729,4.178,2.058,6.903,2.058h7.593V129.53
			c-1.851,0.101-2.938-0.458-3.4-0.765C283.584,128.46,283.236,127.688,283.236,125.306z M268.598,118.891
			c0.111,7.391-3.711,12.268-12.842,12.268c-3.378,0-7.986-0.866-7.986-6.748c0-10.501,11.916-7.148,19.082-10.501
			c0.527-0.204,1.168-0.538,1.742-0.876v5.857H268.598z"/>
		<path fill="#FFFFFF" d="M332.168,82.219c-12.885,0-14.24,5.762-15.332,9.229v-7.731h-14.713v56.884h15.242v-36.677
			c0-7.811,3.403-9.888,9.764-9.888c7.904,0,10.106,3.272,10.106,8.909v37.653h15.229v-40.261
			C352.465,86.791,345.445,82.219,332.168,82.219z"/>
		<path fill="#FFFFFF" d="M202.398,94.359V83.716h-13.601V140.6h15.216v-30.724c0-2.699,0.337-8.004,2.853-11.168
			c2.148-2.598,5.385-3.464,8.891-3.464h9.294V82.749c-2.515-0.323-4.948-0.532-7.442-0.532
			C206.079,82.219,204.537,88.521,202.398,94.359z"/>
		<path fill="#FFFFFF" d="M152.675,65.163c-3.394,2.739-4.382,6.177-4.382,10.644v7.91h-7.612v9.792h7.612v47.092h15.209V93.508
			h9.549v-9.792h-9.549v-6.067c0-1.517,0.242-2.254,0.768-3.039c0.687-0.861,2.669-0.983,4.548-0.983h4.23V62.129h-7.964
			C161.346,62.129,155.98,62.563,152.675,65.163z"/>
		<path fill="#FFFFFF" d="M463.034,82.219c-21.408,0-28.627,12.044-28.627,30.157c0,19.872,8.311,29.753,27.943,29.753
			c22.811,0,25.988-11.289,27.201-18.368h-14.891c-0.967,3.39-1.652,6.958-11.066,6.958c-10.873,0-14.068-4.67-14.068-13.763h41.029
			C491.426,100.551,488.34,82.219,463.034,82.219z M449.911,106.409c0.686-5.756,1.363-12.679,13.77-12.679
			c9.85,0,11.189,6.06,11.189,12.679H449.911z"/>
		<path fill="#FFFFFF" d="M395.62,131.058c-9.875,0-12.824-6.854-12.824-19.984c0-9.008,2.303-17.344,13.502-17.344
			c11.307,0,11.133,5.155,11.922,9.556h14.568c0-11.074-6.479-21.069-25.508-21.069c-22.078,0-29.488,12.691-29.488,29.723
			c0,20.157,10.043,30.187,28.281,30.187c22.471,0,27.189-13.763,27.189-22.7h-15.049C407.43,125.5,408.219,131.058,395.62,131.058z
			"/>
	</g>
</g>
</svg>
