<?xml version="1.0" encoding="UTF-8" standalone="no"?>
<svg
   xmlns:dc="http://purl.org/dc/elements/1.1/"
   xmlns:cc="http://creativecommons.org/ns#"
   xmlns:rdf="http://www.w3.org/1999/02/22-rdf-syntax-ns#"
   xmlns:svg="http://www.w3.org/2000/svg"
   xmlns="http://www.w3.org/2000/svg"
   xmlns:sodipodi="http://sodipodi.sourceforge.net/DTD/sodipodi-0.dtd"
   xmlns:inkscape="http://www.inkscape.org/namespaces/inkscape"
   version="1.1"
   id="Calque_1"
   x="0px"
   y="0px"
   width="349"
   height="603"
   viewBox="0 0 349 603"
   enable-background="new 0 0 640 480"
   xml:space="preserve">
<path
   d="M 334.36627,0.64518767 16.02901,69.434828 C 4.40932,71.992448 0.01391,76.796448 0.01391,89.817523 L 0,513.18748 c 0,13.01237 4.38498,17.82507 16.02205,20.37052 l 318.3164,68.77573 c 9.63236,2.15772 14.64153,-0.93194 14.64153,-9.17334 v -90.64675 c -35.10595,0.0191 -259.88762,0.0869 -260.00238,0 H 348.97998 V 235.93379 73.640728 9.8515677 c -0.002,-8.26923 -5.01091,-11.31194 -14.61371,-9.20638003 z"
   id="path3"
   style="fill:#7bc143" />
<linearGradient
   id="SVGID_1_"
   gradientUnits="userSpaceOnUse"
   x1="318.15231"
   y1="83.318802"
   x2="320.80688"
   y2="416.4921"
   gradientTransform="matrix(1.7386928,0,0,1.7386928,-380.81197,-115.78637)">
	<stop
   offset="0"
   style="stop-color:#ACD480"
   id="stop6" />
	<stop
   offset="0.1762"
   style="stop-color:#8CC642"
   id="stop8" />
	<stop
   offset="0.491"
   style="stop-color:#A6D16F"
   id="stop10" />
	<stop
   offset="0.6397"
   style="stop-color:#97CB5D"
   id="stop12" />
	<stop
   offset="0.8707"
   style="stop-color:#83C448"
   id="stop14" />
	<stop
   offset="1"
   style="stop-color:#7BC143"
   id="stop16" />
</linearGradient>
<path
   clip-rule="evenodd"
   d="M 329.38144,6.9792477 20.43138,74.318818 C 9.15596,76.819058 4.88747,81.529178 4.88747,94.268577 L 4.87357,508.72077 c 0,12.75331 4.25979,17.45648 15.5526,19.95672 l 308.92572,67.32044 c 9.34895,2.11773 14.21033,-0.90585 14.21033,-8.97861 V 512.0382 498.27992 237.31257 78.755958 15.992628 C 343.56022,7.8920577 338.6991,4.9171577 329.38145,6.9792477 z"
   id="path18"
   style="fill:url(#SVGID_1_);fill-rule:evenodd" />
<path
   d="m 3.26005,77.554528 c 0,0 306.63586,-39.35532 344.94273,49.985672 l 0.007,179.76693 c 0,0 -2.30551,108.43009 -49.39974,124.70426 l -154.50546,35.34762 c 0,0 -133.94019,48.33392 -142.61801,-258.90526 C -2.35763,108.47717 3.26009,77.554528 3.26009,77.554528 z"
   id="path20"
   style="fill:#7bc143" />
<path
   style="fill:none"
   id="path24"
   d="m 316.85068,108.50152 c -8.61175,0 -9.0812,4.85964 -9.55586,8.9021 h 17.3226 c 0,-4.64752 -0.9302,-8.9021 -7.76674,-8.9021 z" /><path
   style="fill:none"
   id="path26"
   d="m 166.98753,130.04566 c 0,4.13113 3.1992,4.73967 5.54295,4.73967 6.33754,0 8.99252,-3.42522 8.91254,-8.61696 v -4.11374 c -0.39816,0.23993 -0.84326,0.47466 -1.20839,0.61549 -4.97614,2.35593 -13.2471,0.002 -13.2471,7.37554 z" /><path
   style="fill:#ffffff"
   id="path28"
   d="m 191.60568,130.67333 v -17.00268 c 0,-9.75233 -5.06829,-13.25579 -15.97163,-13.25579 -13.28883,0 -17.41996,5.10306 -17.64773,11.88222 v 1.74913 h 9.65322 c 0.33035,-3.28266 0,-6.15498 7.47638,-6.15498 5.03351,0 6.3271,1.88475 6.3271,4.70143 0,1.83432 -0.39816,3.36611 -1.00148,3.8825 -2.16468,1.54048 -13.52877,0.92672 -18.57968,3.1453 -3.04619,1.5057 -5.48036,4.11722 -5.48036,9.91054 0,8.07102 4.21286,12.955 14.48332,12.955 5.32561,0 8.7178,-0.9215 11.5171,-5.87156 0.499,0.90586 0.96149,2.34897 2.08643,3.35394 1.45702,1.2136 2.8984,1.44485 4.79183,1.44485 h 5.26998 v -7.77196 c -1.28315,0.0713 -2.03775,-0.32165 -2.36114,-0.53725 -0.3234,-0.21386 -0.56334,-0.75633 -0.56334,-2.43069 z m -10.16266,-4.50322 c 0.08,5.19174 -2.575,8.61696 -8.91254,8.61696 -2.34375,0 -5.54295,-0.60854 -5.54295,-4.73967 0,-7.3738 8.26922,-5.01961 13.24536,-7.3738 0.36513,-0.14257 0.81023,-0.3773 1.20839,-0.6155 v 4.11201 z" /><path
   style="fill:#ffffff"
   id="path30"
   d="m 225.56757,100.41659 c -8.94036,0 -9.88273,4.04594 -10.64254,6.48185 v -5.43168 h -10.21134 v 39.94821 h 10.58168 v -25.75526 c 0,-5.48383 2.36115,-6.94434 6.77395,-6.94434 5.48731,0 7.01562,2.29856 7.01562,6.25756 v 26.44204 h 10.57125 v -28.27462 c 0,-9.51413 -4.87181,-12.72376 -14.08862,-12.72376 z" /><path
   style="fill:#ffffff"
   id="path32"
   d="m 135.49285,108.9414 v -7.47464 h -9.43936 v 39.94821 h 10.56082 v -21.5737 c 0,-1.89518 0.23472,-5.61946 1.98037,-7.84324 1.4918,-1.82389 3.73819,-2.43417 6.17062,-2.43417 h 6.45229 v -8.77345 c -1.74565,-0.22603 -3.43392,-0.37382 -5.16566,-0.37382 -8.0032,0 -9.0725,4.42845 -10.55908,8.52481 z" /><path
   style="fill:#ffffff"
   id="path34"
   d="m 100.98154,88.438738 c -2.35593,1.922996 -3.04098,4.339779 -3.04098,7.474642 v 5.55338 h -5.28388 v 6.87653 h 5.28388 v 33.07168 h 10.55735 v -33.07168 h 6.62615 v -6.87653 h -6.62615 v -4.259793 c 0,-1.06408 0.16691,-1.58221 0.53204,-2.135114 0.4764,-0.603327 1.85344,-0.688523 3.15746,-0.688523 h 2.93492 v -8.076232 h -5.52731 c -2.59413,0 -6.32015,0.30775 -8.61348,2.13164 z" /><path
   style="fill:#ffffff"
   id="path36"
   d="m 316.40035,100.41659 c -14.86234,0 -19.87151,8.45874 -19.87151,21.17728 0,13.95649 5.76898,20.89387 19.39859,20.89387 15.8308,0 18.0372,-7.9267 18.88047,-12.89936 h -10.33653 c -0.67288,2.38027 -1.14928,4.88747 -7.68329,4.88747 -7.54592,0 -9.76276,-3.27918 -9.76276,-9.6654 h 28.47979 c 0.60159,-11.52058 -1.53874,-24.39386 -19.10476,-24.39386 z m -9.10553,16.98703 c 0.47466,-4.04246 0.94411,-8.9021 9.55586,-8.9021 6.83827,0 7.76674,4.25458 7.76674,8.9021 h -17.3226 z" /><path
   style="fill:#ffffff"
   id="path38"
   d="m 269.61039,134.71579 c -6.85392,0 -8.9021,-4.81271 -8.9021,-14.03473 0,-6.32537 1.59786,-12.17954 9.37155,-12.17954 7.84846,0 7.72675,3.62169 8.27618,6.71135 h 10.10876 c 0,-7.77717 -4.49626,-14.79628 -17.70163,-14.79628 -15.32484,0 -20.47137,8.91254 -20.47137,20.87301 0,14.15644 6.97216,21.19814 19.63158,21.19814 15.59955,0 18.87525,-9.66365 18.87525,-15.94033 h -10.44433 c -0.54769,4.26675 0,8.16838 -8.74389,8.16838 z" />
<linearGradient
   id="SVGID_2_"
   gradientUnits="userSpaceOnUse"
   x1="337.74121"
   y1="204.7661"
   x2="371.5968"
   y2="354.828"
   gradientTransform="matrix(1.7386928,0,0,1.7386928,-380.81197,-115.78637)">
	<stop
   offset="0"
   style="stop-color:#FFFFFF"
   id="stop41" />
	<stop
   offset="0.2083"
   style="stop-color:#FBFBFB"
   id="stop43" />
	<stop
   offset="0.4243"
   style="stop-color:#EEEFF0"
   id="stop45" />
	<stop
   offset="0.6439"
   style="stop-color:#DADBDD"
   id="stop47" />
	<stop
   offset="0.8647"
   style="stop-color:#BDC0C3"
   id="stop49" />
	<stop
   offset="0.9654"
   style="stop-color:#ADB1B5"
   id="stop51" />
</linearGradient>
<path
   d="m 101.0337,357.42494 76.30253,12.32038 c 9.54716,-11.32237 21.79799,-19.48379 42.52321,-19.48379 27.05927,0 45.93974,9.52108 45.93974,43.79767 0,36.65164 -18.2754,47.7306 -45.19732,47.7306 -32.26144,0 -42.65535,-19.73417 -44.65137,-36.7212 H 87.19544 c 0,55.82943 36.56123,100.6877 129.22486,100.6877 70.9717,0 118.57537,-24.6251 132.55968,-77.68827 v -70.464 c -14.30423,-52.97275 -62.13392,-69.81895 -108.72046,-69.81895 -19.30818,0 -44.45142,7.76501 -55.35824,17.22176 0,0 -0.65896,-0.67983 -0.86065,-0.57551 l 6.59486,-61.40889 h 158.34449 v -77.2084 H 120.75221 l -19.71851,191.6109 z"
   id="path53"
   style="fill:url(#SVGID_2_)" />
</svg>