<?xml version="1.0" encoding="UTF-8"?>
<svg width="608.79" height="450" version="1.1" xmlns="http://www.w3.org/2000/svg">
 <g stroke-width=".99263">
  <path d="m103.29 3.5388h155c57.222 0 103.29 48.697 103.29 109.19v252.39h-258.29c-57.222 1e-3 -103.29-48.697-103.29-109.19v-143.21c0-60.49 46.067-109.19 103.29-109.19z" fill="#db1d11"/>
  <path d="m82.922 60.043c-4.1551 0-7.4983 3.3432-7.4983 7.4983v231.76c0 4.1551 3.3432 7.4983 7.4983 7.4983h60.714c4.1551 0 7.4983-3.3432 7.4983-7.4983v-51.627h85.889c4.1551 0 7.4983-3.3501 7.4983-7.5052v-60.707c0-4.1551-3.3432-7.5052-7.4983-7.5052h-85.889v-36.207h128.07c4.1551 0 7.4983-3.3432 7.4983-7.4983v-60.713c0-4.1551-3.3432-7.4983-7.4983-7.4983h-128.07z" fill="#fff"/>
  <path d="m322.03 209.87c-4.1551 0-7.5052 3.3432-7.5052 7.4983v100.71h-108.8c-4.1551 0-7.4983 3.3432-7.4983 7.4983v32.051c0 4.1551 3.3432 7.5052 7.4983 7.5052h108.8v77.371c0 4.1551 3.3501 7.4983 7.5052 7.4983h32.051c4.1551 0 7.4983-3.3432 7.4983-7.4983v-77.371h77.597a7.4943 7.4943 0 0 0 7.5052-7.5052v-32.051c0-4.1551-3.3501-7.4983-7.5052-7.4983h-77.597v-100.71c0-4.1551-3.3432-7.4983-7.4983-7.4983z" fill="#8c1914"/>
 </g>
 <path d="m565.47 5.4594e-4c-5.8848 0-11.847 0.30919-17.887 0.92865-1.8584 0.15486-3.4063 0.96771-4.6452 2.4389-1.2389 1.3937-1.8592 3.0584-1.8592 4.9941v70.385c0 1.9358 0.62034 3.6393 1.8592 5.1104 1.2389 1.3937 2.7868 2.1677 4.6452 2.3225 6.0396 0.61945 12.002 0.93059 17.887 0.93059 13.86 0 24.546-3.7551 32.057-11.266 7.5108-7.5883 11.266-18.739 11.266-33.45 0-13.55-3.7551-24.005-11.266-31.361-7.5108-7.356-18.197-11.033-32.057-11.033zm-106.29 1.1613c-1.781 0-3.3289 0.65729-4.6452 1.9736-1.3163 1.3163-1.9736 2.8662-1.9736 4.6471v71.546c0 1.781 0.65729 3.3289 1.9736 4.6452s2.8642 1.9755 4.6452 1.9755h6.6207c1.781 0 3.2918-0.65922 4.5307-1.9755 1.3163-1.3163 1.9736-2.8642 1.9736-4.6452v-29.036c0-0.61945 0.3481-0.93059 1.0449-0.93059h23.052c0.69688 1e-6 1.0449 0.31114 1.0449 0.93059v29.036c0 1.781 0.61839 3.3289 1.8573 4.6452 1.3163 1.3163 2.8662 1.9755 4.6471 1.9755h6.6207c1.781 0 3.3289-0.65922 4.6452-1.9755 1.3163-1.3163 1.9736-2.8642 1.9736-4.6452v-71.546c0-1.781-0.65728-3.3308-1.9736-4.6471-1.3163-1.3163-2.8642-1.9736-4.6452-1.9736h-6.6207c-1.781 0-3.3308 0.65729-4.6471 1.9736-1.2389 1.3163-1.8573 2.8662-1.8573 4.6471v25.552c0 0.69688-0.3481 1.0449-1.0449 1.0449h-23.052c-0.69688 1e-6 -1.0449-0.34808-1.0449-1.0449v-25.552c0-1.781-0.65728-3.3308-1.9736-4.6471-1.2389-1.3163-2.7499-1.9736-4.5307-1.9736zm107.8 14.287c7.7432 0 13.513 2.1683 17.307 6.5044 3.7941 4.3362 5.6901 11.15 5.6901 20.442 0 10.376-1.896 17.847-5.6901 22.415-3.7167 4.5685-9.4864 6.8534-17.307 6.8534-2.1681 0-4.0252-0.15556-5.5738-0.46529-0.69688-0.15486-1.0469-0.58074-1.0469-1.2776v-52.731c0-0.69688 0.35003-1.1228 1.0469-1.2776 1.5486-0.30973 3.4057-0.46336 5.5738-0.46336z" fill="#fff" stroke-width="1.7423"/>
</svg>
