<?xml version="1.0" encoding="UTF-8" standalone="no"?>
<!-- Created with Inkscape (http://www.inkscape.org/) -->

<svg
   xmlns:dc="http://purl.org/dc/elements/1.1/"
   xmlns:cc="http://creativecommons.org/ns#"
   xmlns:rdf="http://www.w3.org/1999/02/22-rdf-syntax-ns#"
   xmlns:svg="http://www.w3.org/2000/svg"
   xmlns="http://www.w3.org/2000/svg"
   xmlns:xlink="http://www.w3.org/1999/xlink"
   xmlns:sodipodi="http://sodipodi.sourceforge.net/DTD/sodipodi-0.dtd"
   xmlns:inkscape="http://www.inkscape.org/namespaces/inkscape"
   id="svg2"
   version="1.1"
   inkscape:version="0.48.0 r9654"
   width="834.02386"
   height="1443.3821"
   sodipodi:docname="Logo_France_3.svg">
  <metadata
     id="metadata8">
    <rdf:RDF>
      <cc:Work
         rdf:about="">
        <dc:format>image/svg+xml</dc:format>
        <dc:type
           rdf:resource="http://purl.org/dc/dcmitype/StillImage" />
        <dc:title />
      </cc:Work>
    </rdf:RDF>
  </metadata>
  <defs
     id="defs6">
    <linearGradient
       id="linearGradient3651">
      <stop
         style="stop-color:#1379ba;stop-opacity:1;"
         offset="0"
         id="stop3653" />
      <stop
         style="stop-color:#5f99c8;stop-opacity:1;"
         offset="1"
         id="stop3655" />
    </linearGradient>
    <linearGradient
       id="linearGradient3627">
      <stop
         style="stop-color:#b9bbbb;stop-opacity:1;"
         offset="0"
         id="stop3629" />
      <stop
         style="stop-color:#ffffff;stop-opacity:1;"
         offset="1"
         id="stop3631" />
    </linearGradient>
    <linearGradient
       inkscape:collect="always"
       xlink:href="#linearGradient3627"
       id="linearGradient3633"
       x1="679.16772"
       y1="1199.4485"
       x2="521.35382"
       y2="668.69128"
       gradientUnits="userSpaceOnUse"
       gradientTransform="translate(-1.976105,-0.41774566)" />
    <linearGradient
       inkscape:collect="always"
       xlink:href="#linearGradient3651"
       id="linearGradient3657"
       x1="851.94611"
       y1="366.47299"
       x2="761.22186"
       y2="70.776871"
       gradientUnits="userSpaceOnUse"
       gradientTransform="translate(-1.976105,-0.41774566)" />
    <linearGradient
       inkscape:collect="always"
       xlink:href="#linearGradient3651"
       id="linearGradient3675"
       x1="777.48962"
       y1="1385.9606"
       x2="510.39551"
       y2="475.6767"
       gradientUnits="userSpaceOnUse"
       gradientTransform="translate(-1.976105,-0.41774566)" />
  </defs>
  <sodipodi:namedview
     pagecolor="#ffffff"
     bordercolor="#666666"
     borderopacity="1"
     objecttolerance="10"
     gridtolerance="10"
     guidetolerance="10"
     inkscape:pageopacity="0"
     inkscape:pageshadow="2"
     inkscape:window-width="954"
     inkscape:window-height="787"
     id="namedview4"
     showgrid="false"
     inkscape:zoom="0.3266436"
     inkscape:cx="452.02531"
     inkscape:cy="893.18451"
     inkscape:current-layer="svg2"
     fit-margin-top="0"
     fit-margin-left="0"
     fit-margin-right="0"
     fit-margin-bottom="0"
     inkscape:window-x="0"
     inkscape:window-y="0"
     inkscape:window-maximized="0" />
  <path
     style="fill:#1278b9"
     d="M 803.0239,1442.5979 39.012355,1276.6349 C 9.486504,1269.9315 -2.6299453e-4,1264.9604 0,1242.5823 0.00407501,895.91558 0.01222401,202.58225 0.01222401,202.58225 0.01243601,184.55077 10.741462,173.83745 34.023895,168.73061 L 800.6239,0.58225434 c 16.16178,-3.54497404 32.4,9.75789866 32.4,21.99999966 l 0,1403.500046 c 0,13.6306 -15.94188,19.5694 -30,16.5156 z"
     id="path3661"
     inkscape:connector-curvature="0" />
  <path
     style="fill:url(#linearGradient3657);fill-opacity:1"
     d="m 822.0239,285.08225 0,-249.999996 c 0,-16.077475 -14.45814,-23.029723 -26,-20.5 L 29.523895,182.58225 C 205.33859,161.0904 411.53552,166.2362 597.14386,181.60224 700.42505,196.33746 781.59858,233.70701 822.0239,285.08225 z"
     id="path3637"
     inkscape:connector-curvature="0" />
  <path
     style="fill:url(#linearGradient3675);fill-opacity:1"
     d="M 636.24017,1087.348 C 348.82761,1252.5116 213.93686,1123.6308 170.4027,1076.2396 77.342545,974.93445 26.306205,798.03692 8.523895,636.08225 l 0,592.00005 c 0,24.2128 3.04839,32.8748 25,37.5 l 766.500005,161.5 c 15.32828,3.2296 18,-0.3415 18,-11.5 l 0,-591.00005 C 785.1247,947.36375 701.84632,1049.647 636.24017,1087.348 z"
     id="path3667"
     inkscape:connector-curvature="0" />
  <path
     id="path2830"
     d="m 833.5239,561.43384 0.5,-166.85159 -605.01041,0 0.51041,184.5 337.77542,1.37542 -209.82654,165.85197 77.53912,115.60704 c 1.3597,2.02724 2.08567,1.68305 12.12421,-2.66803 45.11074,-19.55269 84.021,-24.33281 122.88779,-15.09673 36.83036,8.75216 56.55171,31.86067 63.09391,73.93033 2.0416,13.1285 1.53004,45.794 -0.93306,59.5807 -4.35548,24.37895 -12.85097,41.62415 -27.23249,55.28015 -17.06566,16.2047 -38.83879,23.9235 -71.41919,25.3188 -50.52082,2.1636 -86.00099,-16.1613 -103.14824,-53.2742 -5.67945,-12.29255 -9.97006,-31.64535 -10.6208,-47.90545 l -0.24013,-6 -214.79238,-0.509 0.60391,19.2545 c 1.26677,40.38815 9.02011,74.20475 24.13236,105.25455 31.7247,65.1819 91.9934,107.4514 178.78779,125.3929 30.37147,6.2781 55.93198,8.936 93.76832,9.7504 110.43509,2.3769 196.92243,-20.1579 255.24718,-66.5065 33.86508,-26.9113 59.38452,-64.8636 72.37596,-107.6368 1.00231,-3.3 2.12008,-6.225 2.48394,-6.5 0.36385,-0.275 0.88641,-1.4 1.16124,-2.5 0.27483,-1.1 0.23168,-166.3501 0.23168,-166.3501 l -3.39648,-9.32497 c -4.35143,-11.94677 -12.56879,-29.37089 -18.07439,-38.32498 -32.16012,-52.30398 -89.64035,-85.58202 -166.77913,-96.55637 -5.2353,-0.74482 -8.25,-1.62403 -8.25,-2.40605 l 173,-133.96048 23.5,-18.72551 z"
     style="fill:url(#linearGradient3633);fill-opacity:1"
     inkscape:connector-curvature="0" />
  <path
     style="fill:#ffffff;fill-opacity:1"
     d="m 423.19247,339.31612 c 2.01772,-0.86008 5.51846,-3.46995 7.77942,-5.79972 3.92756,-4.04707 4.175,-4.15119 5.54963,-2.33505 0.79132,1.0455 1.45308,2.2017 1.47058,2.56934 0.0175,0.36764 1.57441,1.62183 3.45983,2.78708 2.98918,1.84742 4.68542,2.08189 13.25,1.83156 l 9.82197,-0.28708 0.30091,-6.97908 c 0.39549,-9.17265 -0.18769,-11.1115 -3.71171,-12.33998 l -2.92286,-1.01891 -0.40269,-27.83102 c -0.45234,-31.26168 -0.98527,-34.16341 -7.50807,-40.87972 -6.89172,-7.09617 -19.12727,-10.13731 -36.75558,-9.13557 -24.044,1.36631 -36.65644,10.5847 -36.90559,26.97414 l -0.0944,6.21014 11.25649,0.28281 c 12.48965,0.3138 11.45039,0.85182 13.87044,-7.18066 1.32852,-4.40956 5.01331,-6.55042 12.4734,-7.24706 12.22744,-1.14181 17.89967,2.44965 17.89967,11.33347 0,6.85709 -1.95659,8.93664 -9.16777,9.74391 -34.38345,3.84912 -35.46476,4.06992 -41.56192,8.48668 -7.83784,5.6777 -11.07304,18.48615 -7.85093,31.08259 2.91768,11.40633 9.2794,17.67206 20.96413,20.6478 6.7434,1.71733 23.8875,1.17197 28.78506,-0.91567 z m -21.24549,-20.65695 c -3.58441,-3.5844 -3.99581,-9.80535 -0.97597,-14.75797 2.12701,-3.48836 6.22183,-5.04203 20.05289,-7.60852 4.125,-0.76544 8.2875,-1.73656 9.25,-2.15806 1.57799,-0.69102 1.75,-0.0395 1.75,6.62875 0,14.33554 -6.31826,20.81888 -20.28881,20.81888 -6.25434,0 -7.12507,-0.26003 -9.78811,-2.92308 z m 257.34673,21.4538 c 8.22608,-1.74314 17.75717,-6.65848 21.76727,-11.22573 5.65491,-6.44059 10.91752,-20.65376 9.25321,-24.9909 -0.37867,-0.98679 -3.56438,-1.31409 -12.79029,-1.31409 -13.01305,0 -13.5,0.18257 -13.5,5.06155 0,1.04389 -0.74525,3.76054 -1.65611,6.037 -1.27266,3.1807 -2.60397,4.56949 -5.75,5.99827 -4.94666,2.24654 -16.14566,2.53513 -20.9227,0.53915 -8.16664,-3.41223 -12.01947,-13.02455 -12.07919,-30.13597 -0.0477,-13.65656 1.78056,-19.79698 7.40794,-24.88098 4.49064,-4.05703 8.29022,-4.99783 17.97447,-4.45062 8.4967,0.4801 11.88807,2.63317 14.03913,8.91297 2.43488,7.10836 2.05307,6.91863 13.92303,6.91863 12.641,0 13.61553,-0.55841 12.59241,-7.21541 -1.08426,-7.05479 -6.12143,-16.31673 -11.08677,-20.38546 -17.16715,-14.06718 -55.3042,-11.72342 -69.37656,4.26363 -8.24583,9.36775 -11.53345,20.18156 -11.50333,37.83724 0.0224,13.1493 2.24994,22.90975 7.12829,31.2347 5.24266,8.94664 15.71299,15.8153 27.80939,18.24329 6.51711,1.30811 19.51045,1.09102 26.76981,-0.44727 z m 109.5168,0.43399 c 14.82435,-2.40566 23.89342,-8.40373 28.61529,-18.92546 1.50001,-3.34246 2.58572,-7.30616 2.41269,-8.80822 l -0.31459,-2.73103 -11.99213,0 -11.99213,0 -1.75229,3.72143 c -2.54135,5.39722 -6.60533,7.19489 -16.26345,7.19401 -15.57796,-0.001 -21.48905,-4.78294 -22.76585,-18.41544 l -0.23415,-2.5 32.91425,-0.26387 c 24.1166,-0.19335 33.30766,-0.59037 34.38605,-1.48536 1.20495,-1.00001 1.35408,-3.12788 0.82253,-11.73612 -1.24985,-20.24098 -6.42651,-32.25672 -16.97156,-39.39334 -13.54371,-9.16602 -38.88857,-10.11851 -55.34725,-2.08 -14.90312,7.27875 -22.23424,22.43236 -22.23424,45.95869 0,22.69436 7.4718,38.74285 21.11205,45.34598 9.58966,4.64227 25.91592,6.34014 39.60478,4.11873 z m -33.28154,-60.95651 c -1.06589,-1.72465 2.27808,-11.45585 4.72729,-13.75677 3.84473,-3.61193 9.17949,-5.25143 17.08764,-5.25143 6.01233,0 8.01552,0.42173 10.78212,2.26993 4.40794,2.9447 7.02041,8.1255 6.67138,13.23007 l -0.2735,4 -19.17779,0.27134 c -12.42249,0.17576 -19.403,-0.0931 -19.81714,-0.76314 z m -476.50507,19.4918 0.5,-39 7.25,-0.29381 7.25,-0.29381 0,-8.41238 0,-8.41238 -7.25,-0.29381 -7.25,-0.29381 -0.29998,-6.33731 c -0.1753,-3.70327 0.17162,-6.90556 0.83466,-7.70448 0.67523,-0.8136 3.63103,-1.48683 7.29999,-1.66269 l 6.16533,-0.29552 0,-10 0,-10 -11,0.0842 c -12.97264,0.0993 -18.25416,1.38307 -23.06421,5.60635 -5.46139,4.79517 -6.69857,8.09901 -7.23075,19.30948 -0.27189,5.7276 -0.95115,10.31389 -1.58988,10.73469 -0.61334,0.40408 -3.25266,0.74158 -5.86516,0.75 l -4.75,0.0153 0,8.4501 0,8.45009 5.75,0.29991 5.75,0.2999 0.25141,38 c 0.13827,20.9 0.46683,38.57601 0.73013,39.28003 0.36237,0.96888 3.58274,1.21195 13.2486,1 l 12.76986,-0.28003 0.5,-39 z m 67.03063,8 c 0.5426,-31.69949 0.89366,-34.54889 4.78661,-38.85055 3.53762,-3.90902 7.45565,-5.08854 18.68276,-5.62441 l 11,-0.52504 0.28518,-10.26788 c 0.33876,-12.1971 0.82566,-11.73212 -12.28518,-11.73212 -11.42038,0 -17.40048,2.55113 -21.38457,9.12274 -1.43849,2.37273 -2.95293,4.32827 -3.36543,4.34565 -0.4125,0.0174 -0.75,-2.44339 -0.75,-5.46839 l 0,-5.5 -11.5,0 -11.5,0 0,48.02988 0,48.02987 12.75,-0.27987 12.75,-0.27988 0.53063,-31 z m 188.1484,-2.25 c 0.3481,-36.60249 0.47284,-37.46261 6.0295,-41.57435 5.90764,-4.37147 20.98061,-2.70366 24.05288,2.66142 0.89151,1.55683 1.3787,11.97064 1.73859,37.16293 l 0.5,35 13,0 13,0 0,-39 0,-39 -2.82761,-5.75831 c -5.25002,-10.69143 -12.36896,-14.0317 -30.17239,-14.15714 -10.70609,-0.0754 -12.51947,0.17121 -16.8177,2.28743 -2.64974,1.30459 -5.34549,3.21709 -5.99055,4.25 -1.63097,2.6116 -2.505,2.34654 -2.87533,-0.87198 l -0.31642,-2.75 -12.5,0 -12.5,0 -0.26057,46.5 c -0.14332,25.575 -0.0449,47.0625 0.21861,47.75 0.34789,0.90748 3.89351,1.25 12.9396,1.25 l 12.46042,0 0.32097,-33.75 z"
     id="path3663"
     inkscape:connector-curvature="0" />
</svg>
