<?xml version="1.0" encoding="utf-8"?>
<!-- Generator: Adobe Illustrator 15.0.0, SVG Export Plug-In . SVG Version: 6.00 Build 0)  -->
<!DOCTYPE svg PUBLIC "-//W3C//DTD SVG 1.1//EN" "http://www.w3.org/Graphics/SVG/1.1/DTD/svg11.dtd">
<svg version="1.1" id="Calque_1" xmlns="http://www.w3.org/2000/svg" xmlns:xlink="http://www.w3.org/1999/xlink" x="0px" y="0px"
	 width="200.714px" height="346.811px" viewBox="0 0 200.714 346.811" enable-background="new 0 0 200.714 346.811"
	 xml:space="preserve">
<path fill="#76246F" d="M192.31,0.371L9.219,39.935c-6.683,1.471-9.211,4.234-9.211,11.723L0,295.157
	c0,7.484,2.522,10.252,9.215,11.716l183.078,39.556c5.54,1.241,8.421-0.536,8.421-5.276v-52.135
	c-20.191,0.011-149.473,0.05-149.539,0h149.539V135.695V42.354V5.666C200.714,0.91,197.833-0.84,192.31,0.371z"/>
<linearGradient id="SVGID_1_" gradientUnits="userSpaceOnUse" x1="98.3008" y1="7.9111" x2="102.345" y2="312.4255">
	<stop  offset="0" style="stop-color:#9E639A"/>
	<stop  offset="0.2264" style="stop-color:#802A75"/>
	<stop  offset="0.5316" style="stop-color:#985D93"/>
	<stop  offset="0.6471" style="stop-color:#91548C"/>
	<stop  offset="0.849" style="stop-color:#823B7C"/>
	<stop  offset="1" style="stop-color:#76246F"/>
</linearGradient>
<path fill-rule="evenodd" clip-rule="evenodd" fill="url(#SVGID_1_)" d="M189.442,4.014L11.751,42.744
	c-6.485,1.438-8.94,4.147-8.94,11.474l-0.008,238.37c0,7.335,2.45,10.04,8.945,11.478l177.677,38.719
	c5.377,1.218,8.173-0.521,8.173-5.164v-43.124v-7.913V136.489V45.295V9.198C197.598,4.539,194.802,2.828,189.442,4.014z"/>
<path fill="#76246F" d="M1.876,44.874c0,0,176.36-22.635,198.392,28.749l0.003,103.393c0,0-1.325,62.363-28.412,71.723
	l-88.863,20.33c0,0-77.035,27.799-82.026-148.908C-1.355,62.659,1.876,44.874,1.876,44.874z"/>
<g>
	<path fill="none" d="M182.235,62.404c-4.953,0-5.223,2.795-5.496,5.12h9.963C186.702,64.851,186.168,62.404,182.235,62.404z"/>
	<path fill="none" d="M96.043,74.795c0,2.376,1.84,2.726,3.188,2.726c3.645,0,5.172-1.97,5.126-4.956V70.2
		c-0.229,0.138-0.485,0.273-0.695,0.354C100.799,71.908,96.043,70.554,96.043,74.795z"/>
	<path fill="#FFFFFF" d="M110.201,75.156v-9.779c0-5.609-2.915-7.624-9.186-7.624c-7.643,0-10.019,2.935-10.15,6.834v1.006h5.552
		c0.19-1.888,0-3.54,4.3-3.54c2.895,0,3.639,1.084,3.639,2.704c0,1.055-0.229,1.936-0.576,2.233
		c-1.245,0.886-7.781,0.533-10.686,1.809c-1.752,0.866-3.152,2.368-3.152,5.7c0,4.642,2.423,7.451,8.33,7.451
		c3.063,0,5.014-0.53,6.624-3.377c0.287,0.521,0.553,1.351,1.2,1.929c0.838,0.698,1.667,0.831,2.756,0.831h3.031v-4.47
		c-0.738,0.041-1.172-0.185-1.358-0.309C110.34,76.431,110.201,76.119,110.201,75.156z M104.356,72.565
		c0.046,2.986-1.481,4.956-5.126,4.956c-1.348,0-3.188-0.35-3.188-2.726c0-4.241,4.756-2.887,7.618-4.241
		c0.21-0.082,0.466-0.217,0.695-0.354V72.565z"/>
	<path fill="#FFFFFF" d="M129.734,57.754c-5.142,0-5.684,2.327-6.121,3.728v-3.124h-5.873v22.976h6.086V66.52
		c0-3.154,1.358-3.994,3.896-3.994c3.156,0,4.035,1.322,4.035,3.599v15.208h6.08V65.072C137.838,59.6,135.035,57.754,129.734,57.754
		z"/>
	<path fill="#FFFFFF" d="M77.929,62.657v-4.299H72.5v22.976h6.074V68.925c0-1.09,0.135-3.232,1.139-4.511
		c0.858-1.049,2.15-1.4,3.549-1.4h3.711v-5.046c-1.004-0.13-1.975-0.215-2.971-0.215C79.399,57.754,78.783,60.3,77.929,62.657z"/>
	<path fill="#FFFFFF" d="M58.079,50.865c-1.355,1.106-1.749,2.496-1.749,4.299v3.194h-3.039v3.955h3.039v19.021h6.072V62.313h3.811
		v-3.955h-3.811v-2.45c0-0.612,0.096-0.91,0.306-1.228c0.274-0.347,1.066-0.396,1.816-0.396h1.688v-4.645h-3.179
		C61.541,49.639,59.399,49.815,58.079,50.865z"/>
	<path fill="#FFFFFF" d="M181.977,57.754c-8.548,0-11.429,4.865-11.429,12.18c0,8.027,3.318,12.017,11.157,12.017
		c9.105,0,10.374-4.559,10.859-7.419h-5.945c-0.387,1.369-0.661,2.811-4.419,2.811c-4.34,0-5.615-1.886-5.615-5.559h16.38
		C193.311,65.158,192.079,57.754,181.977,57.754z M176.739,67.524c0.273-2.325,0.543-5.12,5.496-5.12
		c3.933,0,4.467,2.447,4.467,5.12H176.739z"/>
	<path fill="#FFFFFF" d="M155.065,77.48c-3.942,0-5.12-2.768-5.12-8.072c0-3.638,0.919-7.005,5.39-7.005
		c4.514,0,4.444,2.083,4.76,3.86h5.814c0-4.473-2.586-8.51-10.181-8.51c-8.814,0-11.774,5.126-11.774,12.005
		c0,8.142,4.01,12.192,11.291,12.192c8.972,0,10.856-5.558,10.856-9.168h-6.007C159.779,75.236,160.095,77.48,155.065,77.48z"/>
</g>
<linearGradient id="SVGID_2_" gradientUnits="userSpaceOnUse" x1="99.8242" y1="152.939" x2="143.1235" y2="300.4525">
	<stop  offset="0.3182" style="stop-color:#FFFFFF"/>
	<stop  offset="0.5031" style="stop-color:#E7E8E9"/>
	<stop  offset="0.8722" style="stop-color:#ADB1B5"/>
</linearGradient>
<path fill="url(#SVGID_2_)" d="M168.885,95.183h-40.631L47.221,205.548c-3.343,4.174-3.965,8.381-4.029,10.692v0.05
	c0,0.237,0,0.453,0,0.634l0.019,36.175h84.236l-0.008,37.218h41.446v-37.595h31.829v-41.077l-31.829-0.033
	C168.885,211.612,168.885,102.821,168.885,95.183z M127.446,211.567c0,0-41.039,0.026-41.039,0c0-1.237,0.434-2.382,1.09-3.31
	l2.335-3.195l37.613-50.732V211.567z"/>
</svg>
