<?xml version="1.0" encoding="utf-8"?>
<!-- Generator: Adobe Illustrator 15.0.0, SVG Export Plug-In . SVG Version: 6.00 Build 0)  -->
<!DOCTYPE svg PUBLIC "-//W3C//DTD SVG 1.1//EN" "http://www.w3.org/Graphics/SVG/1.1/DTD/svg11.dtd">
<svg version="1.1" id="Calque_1" xmlns="http://www.w3.org/2000/svg" xmlns:xlink="http://www.w3.org/1999/xlink" x="0px" y="0px"
	 width="510.502px" height="876.44px" viewBox="-0.5 -67.721 510.502 876.44" enable-background="new -0.5 -67.721 510.502 876.44"
	 xml:space="preserve">
<g id="France_Ô_2008">
	<g>
		<path fill="#FF730F" d="M19.063,32.9C8.303,35.187-0.5,46.058-0.5,57.058v20c0,11,0,29,0,40v506.883c0,11,0,29,0,40v20
			c0,11,8.803,21.87,19.563,24.157l471.373,100.193c10.76,2.287,19.563-4.842,19.563-15.842v-20c0-11,0-29,0-40V8.548
			c0-11,0-29,0-40v-20c0-11-8.803-18.129-19.563-15.842L19.063,32.9z"/>
	</g>
	<g>
		
			<linearGradient id="SVGID_1_" gradientUnits="userSpaceOnUse" x1="218.8721" y1="906.1172" x2="293.2512" y2="55.9584" gradientTransform="matrix(1 0 0 -1 4 871.4414)">
			<stop  offset="0" style="stop-color:#FFC59E"/>
			<stop  offset="0.15" style="stop-color:#FF7010"/>
			<stop  offset="0.5" style="stop-color:#FF9A57"/>
			<stop  offset="1" style="stop-color:#FF730F"/>
		</linearGradient>
		<path fill="url(#SVGID_1_)" d="M23.744,40.411C12.984,42.698,4.181,53.569,4.181,64.569v18.649c0,11,0,29,0,40v494.564
			c0,11,0,29,0,40v18.647c0,11,8.803,21.871,19.563,24.158l459.875,97.749c10.758,2.287,19.563-4.842,19.563-15.842v-18.648
			c0-11,0-29,0-40V17.152c0-11,0-29,0-40v-18.649c0-11-8.805-18.129-19.563-15.842L23.744,40.411z"/>
	</g>
	<path fill="#FF730F" d="M5.25,44.569c0,0,504.75-116.021,504.75,123.206l0.002,257.853C449.5,642.5,321.625,624.5,321.625,624.5
		S14.377,709.204,1.646,291.106C-4.285,155.053,5.25,44.569,5.25,44.569z"/>
	
		<linearGradient id="SVGID_2_" gradientUnits="userSpaceOnUse" x1="290.3882" y1="656.5" x2="370.2164" y2="203.7712" gradientTransform="matrix(1 0 0 -1 4 871.4414)">
		<stop  offset="0.5" style="stop-color:#FFFFFF"/>
		<stop  offset="1" style="stop-color:#BFBFBF"/>
	</linearGradient>
	<path fill="url(#SVGID_2_)" d="M353.038,210.365c-123.809,0-219.895,52.101-219.895,231.303
		c0,153.952,74.926,224.815,215.832,224.815c74.318,0,126.283-19.511,161.023-53.107V261.328
		C474.137,227.141,421.987,210.365,353.038,210.365z M345.708,567.109c-55.393,0-78.166-35.843-78.166-130.318
		c0-101.006,26.063-126.256,89.578-126.256c55.371,0,77.373,37.476,77.373,118.112C434.493,521.49,420.659,567.109,345.708,567.109z
		"/>
	<polyline fill="#FFFFFF" points="412.272,207.518 343.62,160.758 274.926,209.217 197.535,209.217 301.321,119.246 385.9,119.246 
		489.688,207.518 	"/>
	<g>
		<path fill="none" d="M468.272,59.12c-12.053,0-12.711,6.725-13.377,12.317h24.246C479.141,65.007,477.838,59.12,468.272,59.12z"/>
		<path fill="none" d="M258.532,88.924c0,5.714,4.477,6.555,7.758,6.555c8.873,0,12.584-4.737,12.475-11.917v-5.69
			c-0.559,0.331-1.182,0.658-1.691,0.851C270.104,81.98,258.532,78.723,258.532,88.924z"/>
		<path fill="#FFFFFF" d="M292.982,89.794V66.272c0-13.49-7.092-18.336-22.353-18.336c-18.598,0-24.38,7.061-24.698,16.435v2.421
			h13.51c0.461-4.542,0-8.514,10.459-8.514c7.048,0,8.86,2.607,8.86,6.502c0,2.538-0.563,4.656-1.403,5.371
			c-3.03,2.13-18.935,1.28-26.001,4.351c-4.266,2.083-7.671,5.695-7.671,13.709c0,11.166,5.896,17.921,20.271,17.921
			c7.455,0,12.203-1.275,16.119-8.122c0.699,1.251,1.344,3.249,2.92,4.638c2.039,1.68,4.059,2,6.707,2h7.375V93.897
			c-1.798,0.098-2.854-0.445-3.305-0.744C293.32,92.858,292.982,92.107,292.982,89.794z M278.762,83.562
			c0.107,7.18-3.604,11.917-12.475,11.917c-3.281,0-7.759-0.841-7.759-6.555c0-10.201,11.575-6.944,18.537-10.201
			c0.513-0.198,1.134-0.522,1.692-0.851v5.69H278.762z"/>
		<path fill="#FFFFFF" d="M340.517,47.938c-12.517,0-13.834,5.598-14.896,8.965v-7.511h-14.291v55.259h14.807V69.022
			c0-7.587,3.307-9.605,9.484-9.605c7.678,0,9.817,3.178,9.817,8.654v36.578h14.794V65.538
			C360.233,52.379,353.415,47.938,340.517,47.938z"/>
		<path fill="#FFFFFF" d="M214.454,59.731V49.392h-13.212v55.259h14.782V74.806c0-2.622,0.328-7.776,2.771-10.85
			c2.087-2.523,5.231-3.365,8.637-3.365h9.029V48.452c-2.443-0.313-4.807-0.517-7.229-0.517
			C218.029,47.938,216.531,54.06,214.454,59.731z"/>
		<path fill="#FFFFFF" d="M166.151,31.369c-3.297,2.661-4.257,6.001-4.257,10.339v7.684H154.5v9.512h7.394v45.747h14.774V58.904
			h9.276v-9.512h-9.276v-5.894c0-1.473,0.235-2.189,0.747-2.952c0.667-0.836,2.593-0.955,4.418-0.955h4.109v-11.17h-7.737
			C174.575,28.422,169.362,28.844,166.151,31.369z"/>
		<path fill="#FFFFFF" d="M467.643,47.938c-20.797,0-27.809,11.7-27.809,29.295c0,19.305,8.072,28.903,27.146,28.903
			c22.156,0,25.244-10.966,26.424-17.843h-14.467c-0.939,3.293-1.605,6.759-10.75,6.759c-10.564,0-13.668-4.537-13.668-13.37h39.857
			C495.223,65.746,492.227,47.938,467.643,47.938z M454.895,71.437c0.666-5.592,1.324-12.317,13.377-12.317
			c9.566,0,10.869,5.887,10.869,12.317H454.895z"/>
		<path fill="#FFFFFF" d="M402.155,95.381c-9.594,0-12.459-6.658-12.459-19.413c0-8.75,2.237-16.849,13.115-16.849
			c10.984,0,10.816,5.008,11.582,9.283h14.152c0-10.757-6.291-20.467-24.779-20.467c-21.446,0-28.645,12.329-28.645,28.874
			c0,19.581,9.756,29.324,27.473,29.324c21.83,0,26.416-13.37,26.416-22.051h-14.619C413.627,89.982,414.395,95.381,402.155,95.381z
			"/>
	</g>
</g>
</svg>
