<?xml version="1.0" encoding="UTF-8"?>
<svg width="800" height="310.6" version="1.0" xmlns="http://www.w3.org/2000/svg">
	<path d="m799.99 91.313-429.66-91.313-33.677 158.41h33.014l-18.218 85.608h193.41l-14.17 66.58 233.2-49.54z" fill="#fe0"/>
	<path d="m472.62 105.93h47.736c12.367 0 21.899 3.2021 28.635 9.5694s8.4652 17.188 5.2264 32.425c-1.9139 8.9437-5.1159 16.415-9.6062 22.378-4.4902 5.9993-9.9006 10.637-16.268 13.912l7.3979 59.772h-35.112l-4.9319-52.852h-8.8701l-11.226 52.852h-32.352zm32.057 59.993c4.7479 0 8.3916-1.3986 10.968-4.2326s4.4534-7.0666 5.668-12.735c1.2146-5.668 1.141-9.8638-0.18403-12.624s-4.2326-4.159-8.686-4.159h-13.029l-7.177 33.714h12.44z"/>
	<path d="m638.39 134.74h-28.009l6.1097-28.782h88.958l-6.1097 28.782h-28.009l-23.224 109.27h-32.941z"/>
	<path d="m687.41 219.18 42.989-55.613c3.975-5.1159 8.318-10.674 13.029-16.673 4.6743-5.9625 8.4284-10.6 11.226-13.912-3.7173 0.11041-8.1708 0.22083-13.397 0.29444-5.1896 0.0736-10.195 0.11042-14.906 0.11042h-17.961l5.8152-27.42h82.628l-5.3 24.844-42.878 55.429c-4.0118 5.2632-8.3548 10.894-13.066 16.857-4.7111 5.9993-8.4284 10.637-11.226 13.912 3.7173-0.11042 8.134-0.22083 13.287-0.29444 5.1527-0.0736 10.085-0.11042 14.796-0.11042h20.905l-5.8152 27.42h-85.425z"/>
	<path d="m544.86 244.02 29.334-138.09h33.345l-29.37 138.09z"/>
	<path d="m394.63 42.878h10.011l-8.8333 41.48h-10.011z"/>
	<path d="m415.86 51.527h-8.4284l1.8403-8.6492h26.721l-1.8403 8.6492h-8.4284l-6.993 32.83h-9.9006z"/>
	<path d="m440.52 42.878h10.011l-5.4472 10.821h-7.4347z"/>
	<path d="m443.5 77.806 8.0604-6.1097c1.0305 1.6562 2.0243 2.9076 3.018 3.7541s1.9875 1.2882 2.9444 1.2882c1.0306 0 1.9507-0.25764 2.7236-0.84652 0.77291-0.55208 1.2882-1.3986 1.5458-2.5028 0.25764-1.141 0.14722-2.1347-0.29444-2.9812-0.44167-0.84652-1.693-1.8035-3.8278-2.7972-3.7173-1.8035-6.2201-3.6805-7.5451-5.5576-1.2882-1.9139-1.5826-4.4534-0.92013-7.6923 0.36805-1.693 0.99374-3.2757 1.9139-4.7479s2.0243-2.7236 3.3493-3.8278 2.8708-1.9507 4.6007-2.5764 3.6069-0.95694 5.5576-0.95694c3.2021 0 5.6312 0.55208 7.2874 1.693 1.6562 1.141 3.0916 2.7604 4.343 4.8951l-8.1708 6.1833c-1.0674-1.693-1.9139-2.8708-2.5764-3.4965-0.66249-0.62569-1.6194-0.95694-2.9444-0.95694-0.95694 0-1.7298 0.29444-2.3923 0.92013-0.62569 0.62569-1.0306 1.2882-1.2146 2.0611-0.22083 1.1042-0.0736 2.0243 0.47847 2.7972 0.55208 0.73611 1.7666 1.5826 3.6805 2.5028 3.7541 1.8035 6.2937 3.7541 7.5819 5.8152s1.5826 4.7847 0.84652 8.2444c-0.40486 1.9507-1.141 3.6805-2.1347 5.1895-1.0306 1.509-2.2083 2.7972-3.6437 3.8278-1.3986 1.0305-2.9812 1.8035-4.7479 2.3555-1.7667 0.55208-3.6069 0.84652-5.5576 0.84652-3.2021 0-5.7048-0.62569-7.5451-1.9139-1.693-1.3986-3.2021-3.1653-4.4166-5.4104z"/>
	<path d="m380.82 105.93h82.849l-6.0361 28.414h-49.908l-5.1159 24.071h32.536l-5.9993 28.193h-32.536l-12.219 57.416h-32.941z" fill="#E31818"/>
	<path d="m0 244.02h285.09l29.334-138.09h-314.43z" fill="#e31818"/>
	<path d="m92.786 172.29c-28.892 0.40486-44.424 5.0423-49.982 6.9562v33.64h-11.704v-41.516s17.556-10.784 61.686-11.005zm85.388 14.796c0 16.452-2.6868 20.39-2.6868 20.39s-7.3979 6.1833-35.959 6.1833c-15.642 0-34.008-2.3555-34.008-2.3555v-74.972h11.483v25.212c6.7354-0.95694 13.36-1.3618 19.065-1.3986 26.426 0 39.345 7.3611 39.345 7.3611s2.7604 3.6069 2.7604 19.58m84.799 0c0 16.452-2.6868 20.39-2.6868 20.39s-7.3979 6.1833-35.959 6.1833c-15.679 0-34.008-2.3555-34.008-2.3555v-74.972h11.483v25.212c6.7354-0.95694 13.36-1.3618 19.065-1.3986 26.389 0 39.345 7.3611 39.345 7.3611s2.7604 3.6069 2.7604 19.58m-12.183 11.814c0.29445-2.6132 0.62569-6.8826 0.62569-11.299 0-4.4166-0.51527-8.7228-0.80971-11.336-6.809-2.2083-24.402-6.4777-48.841-2.65v26.831c8.7965 0.80972 16.342 1.2882 22.709 1.2882 14.464-0.0368 22.672-1.8035 26.316-2.834m-84.799 0c0.29445-2.6132 0.6625-6.8826 0.6625-11.299 0-4.4166-0.51528-8.7228-0.80972-11.336-6.809-2.2083-24.402-6.4777-48.841-2.65v26.831c8.8333 0.80972 16.342 1.2882 22.709 1.2882 14.428-0.0368 22.635-1.8035 26.279-2.834" fill="#fff"/>
</svg>
