<svg xmlns="http://www.w3.org/2000/svg" viewBox="0 0 217.36 84.394" ><path fill="#fe0" d="M100.62 0l-9.149 43.04h8.969l-4.946 23.258h52.546l-3.85 18.096 63.36-13.469 9.81-46.112z"/><path d="M128.41 28.785h12.969c3.358 0 5.952.867 7.781 2.599s2.302 4.672 1.422 8.815c-.517 2.43-1.385 4.457-2.606 6.083s-2.695 2.885-4.42 3.779l2.015 16.238h-9.54l-1.341-14.362h-2.411l-3.053 14.362h-8.79l7.974-37.513zm8.702 16.292c1.286 0 2.279-.384 2.979-1.153s1.211-1.919 1.538-3.456.31-2.68-.048-3.43-1.145-1.125-2.359-1.125h-3.537l-1.948 9.164h3.376zm36.338-8.468h-7.61l1.663-7.824h24.17l-1.663 7.824h-7.61l-6.311 29.689h-8.949l6.311-29.689zm13.32 22.936l11.68-15.112 3.536-4.529 3.053-3.777-3.635.08-4.051.026h-4.876l1.583-7.448 22.453-.001-1.435 6.753-15.214 19.641-3.053 3.777 3.607-.08 4.025-.026h5.68l-1.583 7.449h-23.205l1.435-6.753zm-30.76-30.76h9.06l-7.98 37.513h-9.05zM107.22 11.65h2.722l-2.397 11.275h-2.722l2.397-11.275zm5.77 2.351h-2.287l.5-2.351h7.264l-.5 2.351h-2.287l-1.897 8.923h-2.69l1.897-8.923zm6.7-2.351h2.722l-1.48 2.941h-2.019l.777-2.941zm.81 9.486l2.189-1.659c.28.451.554.792.822 1.023s.536.346.804.346a1.25 1.25 0 0 0 .74-.226c.214-.151.354-.376.418-.676.066-.311.04-.582-.077-.814s-.463-.485-1.037-.765c-1.012-.494-1.694-.998-2.046-1.514s-.435-1.214-.248-2.094a4.03 4.03 0 0 1 .516-1.289 4.12 4.12 0 0 1 .913-1.039 4.29 4.29 0 0 1 1.252-.7 4.38 4.38 0 0 1 1.512-.258c.87 0 1.53.153 1.98.459s.845.749 1.183 1.329l-2.224 1.675c-.289-.461-.522-.779-.7-.95s-.445-.258-.799-.258c-.258 0-.474.083-.649.25a1.07 1.07 0 0 0-.327.556c-.064.3-.021.553.129.757s.483.429 1 .676c1.023.494 1.71 1.02 2.064 1.579s.432 1.305.233 2.239a4.03 4.03 0 0 1-.581 1.409c-.275.413-.605.76-.986 1.039a4.39 4.39 0 0 1-1.289.644 5 5 0 0 1-1.505.225c-.87 0-1.552-.174-2.047-.523s-.908-.83-1.24-1.442z"/><path d="M103.47 28.785h22.508l-1.641 7.718h-13.558l-1.39 6.538h8.843l-1.629 7.662h-8.843l-3.315 15.596h-8.95l7.974-37.513zM0 28.785v37.513h77.46l7.974-37.513z" fill="#e31818"/><path d="M25.21 46.805c-7.849.108-12.072 1.367-13.58 1.886v9.139H8.451V46.564s4.767-2.928 16.759-2.993v3.234zm23.204 4.022c0 4.471-.733 5.537-.733 5.537s-2.008 1.676-9.773 1.676c-4.255 0-9.235-.636-9.235-.636V37.042h3.115v6.854a39.01 39.01 0 0 1 5.18-.384c7.178 0 10.689 2.002 10.689 2.002s.757.98.757 5.314m23.038 0c0 4.471-.733 5.537-.733 5.537s-2.012 1.676-9.774 1.676c-4.256 0-9.235-.636-9.235-.636V37.042h3.117v6.854a38.95 38.95 0 0 1 5.179-.384c7.174 0 10.689 2.002 10.689 2.002s.757.98.757 5.314m-3.31 3.213c.077-.709.175-1.874.175-3.067s-.144-2.372-.222-3.083c-1.847-.599-6.628-1.758-13.268-.724v7.294c2.394.215 4.439.347 6.165.346 3.926-.008 6.152-.482 7.15-.767m-23.04 0c.08-.709.179-1.874.179-3.067s-.143-2.372-.224-3.083c-1.846-.599-6.628-1.758-13.271-.724v7.294c2.395.215 4.443.347 6.169.346 3.924-.008 6.153-.482 7.146-.767" fill="#fff"/></svg>