<svg xmlns="http://www.w3.org/2000/svg" width="800" height="251.874"><path d="M125.937 0C56.383 0 0 56.385 0 125.937s56.385 125.936 125.937 125.937 125.939-56.383 125.939-125.939a125.926 125.926 0 0 0-.464-9.267h-99.783l-25.314 30.799h85.799c-9.687 40.688-45.269 69.34-86.176 69.39-49.049 0-88.81-40.707-88.81-90.92s32.991-102.763 93.286-110.91c36.635-4.949 79.728 15.012 100.146 53.972h9.461C217.958 22.712 173.337.056 125.939 0zm416.238 66.856a18.915 18.915 0 1 0 0 37.831 18.915 18.915 0 1 0 0-37.831zm-223.338 45.393c-17.188 0-31.5 6.139-42.935 18.418-11.364 12.204-17.046 27.571-17.046 46.1 0 18.082 5.718 33.151 17.153 45.206 11.435 11.98 26.243 17.971 44.426 17.971 11.719 0 20.546-3.204 30.364-6.473 8.189-2.727 13.299-4.969 23.503-10.861l-14.902-19.759c-7.813 7.961-28.311 10.304-39.178 10.304-9.093 0-16.583-2.53-22.479-7.591-5.824-5.134-9.412-9.006-10.762-17.637h93.437l.106-8.816c0-20.092-5.72-36.24-17.155-48.444-11.435-12.279-26.278-18.418-44.532-18.418zm131.201 0c-30.987-.168-53.14 19.818-53.14 19.818v102.879h29.992v-89.263c23.615-16.363 46.651 4.391 46.651 18.317v70.944h29.992v-82.996c0-21.514-22.985-39.535-53.495-39.7zm303.087 1.523c-12.813 0-23.353 3.355-31.621 10.065-8.182 6.639-10.912 15.089-10.912 24.498 0 18.936 9.548 26.308 32.319 35.835s24.507 12.278 25.22 18.667c.286 2.563-2.098 4.931-4.093 6.567-2.83 2.32-6.625 3.6-10.278 3.865-5.259.382-10.639-1.23-15.454-3.378-6.812-3.04-14.192-8.998-18.159-13.082l-19.176 16.924c11.738 13.569 30.742 25.215 50.416 25.215 14.798 0 26.578-3.539 35.341-10.616 8.845-7.075 13.27-15.9 13.27-26.477 0-7.951-2.44-14.88-7.317-20.79s-11.623-11.351-27.249-16.545c-7.686-2.555-16.513-5.658-22.228-11.796-1.114-1.197-1.981-2.851-1.986-4.485-.007-2.393 1.082-4.984 2.866-6.578 2.508-2.244 6.285-3.056 9.649-2.972 8.103.204 15.285 1.708 22.852 8.321l19.326-17.052s-10.361-7.642-18.111-11.044c-7.708-3.384-15.915-5.142-24.678-5.142zm-225.945 3.475v117.699h29.992V117.246zm54.441 0v82.996c0 21.515 22.985 39.536 53.495 39.701 30.987.168 53.14-19.818 53.14-19.818V117.246h-29.992v89.261c-23.615 16.363-46.651-4.39-46.651-18.315v-70.946zm-261.037 21.351c6.871-.033 14.337 1.948 19.604 6.361 5.998 5.029 9.085 13.438 11.038 20.728h-62.964c2.181-8.136 5.18-15.083 11.015-19.945 5.754-4.797 13.815-7.108 21.308-7.145z" fill="#0b6c8c"/><path d="M67.952 68.999c48.914-76.557 129.596-32.388 146.167 0h-44.817c-23.272-30.905-68.79-27.688-99.532 0" fill="#9d9d9c"/></svg>