<?xml version="1.0" encoding="UTF-8" standalone="no"?>
<!-- Created with Inkscape (http://www.inkscape.org/) -->

<svg
   xmlns:dc="http://purl.org/dc/elements/1.1/"
   xmlns:cc="http://creativecommons.org/ns#"
   xmlns:rdf="http://www.w3.org/1999/02/22-rdf-syntax-ns#"
   xmlns:svg="http://www.w3.org/2000/svg"
   xmlns="http://www.w3.org/2000/svg"
   xmlns:xlink="http://www.w3.org/1999/xlink"
   xmlns:sodipodi="http://sodipodi.sourceforge.net/DTD/sodipodi-0.dtd"
   xmlns:inkscape="http://www.inkscape.org/namespaces/inkscape"
   width="1010"
   height="600"
   id="svg3317"
   sodipodi:version="0.32"
   inkscape:version="0.91pre2 r13516"
   version="1.0"
   sodipodi:docname="goldstar tv.svg"
   inkscape:output_extension="org.inkscape.output.svg.inkscape">
  <defs
     id="defs3319">
    <linearGradient
       id="linearGradient3279">
      <stop
         style="stop-color:#f7df25;stop-opacity:1;"
         offset="0"
         id="stop3281" />
      <stop
         style="stop-color:#dfa014;stop-opacity:1;"
         offset="1"
         id="stop3283" />
    </linearGradient>
    <radialGradient
       inkscape:collect="always"
       xlink:href="#linearGradient3279"
       id="radialGradient3287"
       cx="2466.9338"
       cy="-1233.4005"
       fx="2466.9338"
       fy="-1233.4005"
       r="103.36697"
       gradientTransform="matrix(-4.1187236,-2.2469929,1.5499687,-2.8410824,12449.653,2330.8619)"
       gradientUnits="userSpaceOnUse" />
    <inkscape:perspective
       sodipodi:type="inkscape:persp3d"
       inkscape:vp_x="0 : 526.18109 : 1"
       inkscape:vp_y="0 : 1000 : 0"
       inkscape:vp_z="744.09448 : 526.18109 : 1"
       inkscape:persp3d-origin="372.04724 : 350.78739 : 1"
       id="perspective3325" />
  </defs>
  <sodipodi:namedview
     id="base"
     pagecolor="#ffffff"
     bordercolor="#666666"
     borderopacity="1.0"
     inkscape:pageopacity="0.0"
     inkscape:pageshadow="2"
     inkscape:zoom="0.82892518"
     inkscape:cx="313.18534"
     inkscape:cy="300"
     inkscape:document-units="px"
     inkscape:current-layer="layer1"
     showgrid="false"
     inkscape:window-width="1920"
     inkscape:window-height="1017"
     inkscape:window-x="-8"
     inkscape:window-y="-8"
     inkscape:window-maximized="1" />
  <metadata
     id="metadata3322">
    <rdf:RDF>
      <cc:Work
         rdf:about="">
        <dc:format>image/svg+xml</dc:format>
        <dc:type
           rdf:resource="http://purl.org/dc/dcmitype/StillImage" />
      </cc:Work>
    </rdf:RDF>
  </metadata>
  <g
     inkscape:label="Ebene 1"
     inkscape:groupmode="layer"
     id="layer1"
     transform="translate(117.88845,-182.23151)">
    <g
       id="g4192">
      <g
         style="fill:#194a8d;fill-opacity:1"
         transform="translate(-1946.3899,1477.8684)"
         id="g3238">
        <path
           style="fill:#194a8d;fill-opacity:1;fill-rule:evenodd;stroke:none;stroke-width:1px;stroke-linecap:butt;stroke-linejoin:miter;stroke-opacity:1"
           d="m 1925.2141,-891.58816 0,-23.5646 c 0,0 -92.7127,-24.8076 -92.7127,49.24391 0,10.87799 3.9146,19.82854 7.4611,27.1835 13.5874,28.17805 46.5659,32.93633 65.5982,32.93633 6.9214,0 23.0714,0 23.0714,0 l 0,-71.42897 -37.0241,0 0,23.49862 13.9527,0 0,22.55314 c 0,0 -45.6741,2.71195 -45.6742,-34.74262 -10e-5,-44.12751 65.3276,-25.67931 65.3276,-25.67931 z"
           id="path2485"
           sodipodi:nodetypes="ccsssccccccsc"
           inkscape:connector-curvature="0" />
        <rect
           style="opacity:1;fill:#194a8d;fill-opacity:1;stroke:none;stroke-width:13.29199982;stroke-miterlimit:4;stroke-dasharray:none;stroke-dashoffset:0;stroke-opacity:1"
           id="rect2487"
           width="26.062105"
           height="113.29924"
           x="2035.8715"
           y="-919.08826" />
        <path
           style="opacity:1;fill:#194a8d;fill-opacity:1;stroke:none;stroke-width:1;stroke-miterlimit:4;stroke-dasharray:none;stroke-dashoffset:0;stroke-opacity:1"
           d="m 1982.4986,-888.61055 c -22.8982,0 -41.4688,18.60177 -41.4687,41.5 0,22.89825 18.5705,41.46876 41.4687,41.46875 22.8983,0 41.5,-18.57049 41.5,-41.46875 0,-22.89825 -18.6018,-41.49999 -41.5,-41.5 z m -0.2551,24.28687 c 9.6694,-1e-5 17.5312,7.86178 17.5312,17.53125 0,9.66946 -7.8618,17.5 -17.5312,17.5 -9.6695,-1e-5 -17.5,-7.83053 -17.5,-17.5 0,-9.66948 7.8305,-17.53125 17.5,-17.53125 z"
           id="path3259"
           sodipodi:nodetypes="csssccsssc"
           inkscape:connector-curvature="0" />
        <path
           style="fill:#194a8d;fill-opacity:1;fill-rule:evenodd;stroke:none;stroke-width:1px;stroke-linecap:butt;stroke-linejoin:miter;stroke-opacity:1"
           d="m 2134.7332,-918.61331 0,36.75004 c -26.451,-15.12014 -59.0577,7.65702 -58.9063,31.2293 -0.029,4.4425 -0.1206,8.52755 0.5372,12.26756 5.4106,30.76147 33.0435,38.18041 58.3691,29.15939 l 0,3.46875 25.375,0 0,-112.87504 -25.375,0 z m -16.9063,55.18754 c 10.673,-10e-6 19.3438,8.04626 19.3438,17.96875 0,9.92248 -8.6708,17.96875 -19.3438,17.96875 -10.6729,-10e-6 -19.3437,-8.04626 -19.3437,-17.96875 0,-9.9225 8.6708,-17.96875 19.3437,-17.96875 z"
           id="path3266"
           sodipodi:nodetypes="cccsccccccsssc"
           inkscape:connector-curvature="0" />
        <path
           style="fill:#194a8d;fill-opacity:1;fill-rule:evenodd;stroke:none;stroke-width:1px;stroke-linecap:butt;stroke-linejoin:miter;stroke-opacity:1"
           d="m 2235.2377,-894.65226 0,-22.1791 c 0,0 -55.8844,-12.0756 -55.5422,24.89811 0.048,5.25098 0.191,12.09966 2.4328,16.39822 8.6925,16.66766 30.9384,22.84021 31.0684,36.47098 0.1171,12.70469 -33.5012,4.53164 -33.5012,4.53164 l 0,24.47089 c 0,0 13.31,5.51227 26.9638,4.16325 16.5682,-1.63696 34.0462,-14.97817 34.0294,-30.4468 -0.037,-34.559 -34.2323,-37.25475 -34.7174,-53.35791 -0.3357,-11.14188 29.2664,-4.94928 29.2664,-4.94928 z"
           id="path3271"
           sodipodi:nodetypes="ccsssccsssc"
           inkscape:connector-curvature="0" />
        <path
           style="fill:#194a8d;fill-opacity:1;fill-rule:evenodd;stroke:none;stroke-width:1px;stroke-linecap:butt;stroke-linejoin:miter;stroke-opacity:1"
           d="m 2280.0987,-905.33774 -23.9259,0 0,19.65341 -6.4087,0 0,21.36239 6.4087,0 c 0,0 0,29.8882 0,42.29762 0,3.32685 1.1951,7.92819 3.1202,10.6415 1.6668,2.34936 5.0305,5.5938 12.0768,5.5938 6.549,0 18.1283,0 18.1283,0 l 0,-23.10829 c 0,0 -4.754,0.15641 -6.3859,-0.53514 -3.0135,-1.27704 -3.0135,-3.76993 -3.0135,-3.76993 l 0,-31.11956 11.9629,0 0,-21.36239 -11.9629,0 0,-19.65341 z"
           id="path3281"
           sodipodi:nodetypes="ccccccsssccscccccc"
           inkscape:connector-curvature="0" />
        <path
           style="fill:#194a8d;fill-opacity:1;fill-rule:evenodd;stroke:none;stroke-width:1px;stroke-linecap:butt;stroke-linejoin:miter;stroke-opacity:1"
           d="m 2345.4765,-887.25777 c -20.0364,0 -31.7187,7.53124 -31.7187,7.53125 l 0,20.875 c 0,0 16.2931,-7.24834 23.7187,-7.125 6.1183,0.10163 17.9449,0.543 19.3438,6.5 0.3077,1.31019 -1.8732,3.47697 -3.1875,3.1875 -26.1999,-5.77006 -45.3617,6.32603 -46.1875,23.40625 -1.3278,27.1168 23.311,33.91816 48.2187,23.375 l 1.5938,3.71875 21.4687,0 c 0,0 0,-46.27971 0,-62.75 0,-11.44418 -19.1402,-18.71874 -33.25,-18.71875 z m -2.3125,47.9375 c 6.8394,0 12.4063,3.50841 12.4063,7.8125 0,4.30409 -5.5669,7.78125 -12.4063,7.78125 -6.8394,-10e-6 -12.375,-3.47716 -12.375,-7.78125 0,-4.3041 5.5357,-7.8125 12.375,-7.8125 z"
           id="path3283"
           inkscape:connector-curvature="0" />
        <path
           style="fill:#194a8d;fill-opacity:1;fill-rule:evenodd;stroke:none;stroke-width:1px;stroke-linecap:butt;stroke-linejoin:miter;stroke-opacity:1"
           d="m 2400.1841,-887.27999 0,81.49097 24.1688,0 0,-36.52968 c 0,0 0,-7.19111 7.0981,-11.96293 3.9553,-2.659 15.5601,-3.20436 15.5601,-3.20436 0,0 0,-24.158 0,-25.3144 0,-0.5352 0,-4.4796 -6.9485,-4.4796 -7.0756,0 -15.7097,10.1206 -15.7097,10.1206 l 0,-10.1206 -24.1688,0 z"
           id="path3172"
           sodipodi:nodetypes="ccccscssccc"
           inkscape:connector-curvature="0" />
        <path
           style="fill:#194a8d;fill-opacity:1;fill-rule:evenodd;stroke:none;stroke-width:1px;stroke-linecap:butt;stroke-linejoin:miter;stroke-opacity:1"
           d="m 2455.0675,-919.00965 0,26.06211 26.0621,0 0,87.15852 27.3439,0 0,-87.15852 42.7247,0 20.0979,87.15852 37.1595,0 24.773,-113.22063 -25.6794,0 c 0,0 -12.271,58.67199 -15.5587,72.81655 -0.2062,0.8872 -2.5571,0.85542 -2.87,0 -6.5283,-17.84704 -16.616,-72.81655 -16.616,-72.81655 l -117.437,0 z"
           id="path3176"
           sodipodi:nodetypes="cccccccccccsscc"
           inkscape:connector-curvature="0" />
      </g>
      <g
         style="fill:#194a8d;fill-opacity:1"
         transform="translate(-1945.1311,1478.5372)"
         id="g3249">
        <path
           style="fill:#194a8d;fill-opacity:1;fill-rule:evenodd;stroke:none;stroke-width:1px;stroke-linecap:butt;stroke-linejoin:miter;stroke-opacity:1"
           d="m 2212.5688,-736.45957 c -8.5126,11.02152 -25.625,35.84375 -25.625,35.84375 l 9.7188,0 6,-8.90625 24.7187,0 6.25,8.90625 9.1875,0 c 0,0 -18.6828,-26.36592 -25.6562,-35.71875 -0.8241,-1.10524 -3.7511,-1.21609 -4.5938,-0.125 z m 2.1563,8.96875 7.6875,10.90625 -15.0313,0 7.3438,-10.90625 z"
           id="path3182"
           sodipodi:nodetypes="cccccccsscccc"
           inkscape:connector-curvature="0" />
        <path
           style="fill:#194a8d;fill-opacity:1;fill-rule:evenodd;stroke:none;stroke-width:1px;stroke-linecap:butt;stroke-linejoin:miter;stroke-opacity:1"
           d="m 2244.8342,-736.87944 c 0,0 0.053,17.74772 0.053,25.95529 0,1.72738 -0.156,5.08817 3.151,7.90409 2.6834,2.28499 7.6122,2.40424 9.1324,2.40424 9.0097,0 25.4746,0 25.4746,0 l 0,-7.10397 c 0,0 -17.1493,-0.0167 -24.4599,0 -1.3136,0.003 -2.6152,-0.42189 -3.6877,-1.1804 -0.7546,-0.53371 -1.6628,-1.68718 -1.6529,-2.61141 0.077,-7.21098 0,-25.36784 0,-25.36784 l -8.0109,0 z"
           id="path3195"
           sodipodi:nodetypes="csssccssscc"
           inkscape:connector-curvature="0" />
        <path
           sodipodi:nodetypes="csssccssscc"
           id="path3197"
           d="m 2286.5558,-736.87944 c 0,0 0.053,17.74772 0.053,25.95529 0,1.72738 -0.156,5.08817 3.1509,7.90409 2.6835,2.28499 7.6122,2.40424 9.1324,2.40424 9.0097,0 25.4747,0 25.4747,0 l 0,-7.10397 c 0,0 -17.1493,-0.0167 -24.4599,0 -1.3136,0.003 -2.6153,-0.42189 -3.6877,-1.1804 -0.7547,-0.53371 -1.6628,-1.68718 -1.6529,-2.61141 0.077,-7.21098 0,-25.36784 0,-25.36784 l -8.0109,0 z"
           style="fill:#194a8d;fill-opacity:1;fill-rule:evenodd;stroke:none;stroke-width:1px;stroke-linecap:butt;stroke-linejoin:miter;stroke-opacity:1"
           inkscape:connector-curvature="0" />
        <path
           style="fill:#194a8d;fill-opacity:1;fill-rule:evenodd;stroke:none;stroke-width:1px;stroke-linecap:butt;stroke-linejoin:miter;stroke-opacity:1"
           d="m 2369.3014,-730.07152 0,-6.80792 c 0,0 -17.68,0 -26.1812,0 -5.5449,0 -7.9999,1.27638 -9.9209,2.61347 -2.5495,1.77447 -4.0785,4.19445 -4.0785,7.55903 0,8.30801 0,11.98214 0,17.28778 0,1.60443 1.6358,4.92046 3.84,6.54289 2.5965,1.91119 7.5954,2.26045 10.0948,2.26045 8.7045,0 26.2458,0 26.2458,0 l 0,-7.10397 -26.8878,0 c 0,0 -3.9843,0.33268 -5.1877,-0.8545 -1.4092,-1.39022 -0.8545,-6.5428 -0.8545,-6.5428 l 32.93,0 0,-6.79746 -32.93,0 c 0,0 -0.5667,-6.3696 0.6943,-7.35588 1.1069,-0.86575 2.1518,-0.80109 4.984,-0.80109 9.33,0 27.2517,0 27.2517,0 z"
           id="path3209"
           sodipodi:nodetypes="ccsssssscccsccccssc"
           inkscape:connector-curvature="0" />
        <path
           style="fill:#194a8d;fill-opacity:1;fill-rule:evenodd;stroke:none;stroke-width:1px;stroke-linecap:butt;stroke-linejoin:miter;stroke-opacity:1"
           d="m 2414.6199,-736.87944 c 0,0 -18.0948,0 -25.9059,0 -5.3401,0 -14.8789,2.14774 -14.8789,11.49062 0,6.62305 7.5006,9.96962 12.2355,9.96962 4.4861,0 9.0572,0 13.2928,0 2.2126,0 7.5444,-2e-5 7.5527,4.22954 0.01,3.92743 -5.6159,3.92743 -7.6282,3.92743 -7.8907,0 -25.4528,0 -25.4528,0 l 0,6.64641 c 0,0 19.706,0 27.4478,0 7.5091,0 13.337,-2.36152 13.337,-10.7249 0,-4.95506 -4.4223,-10.57383 -12.6886,-10.57383 -4.4314,0 -10.1347,0 -14.6416,0 -2.8437,0 -5.6441,-1.23531 -5.5997,-4.07849 0.044,-2.76795 2.8479,-4.07848 5.7767,-4.07848 7.8732,0 27.1532,0 27.1532,0 l 0,-6.80792 z"
           id="path3211"
           sodipodi:nodetypes="cssssssccsssssscc"
           inkscape:connector-curvature="0" />
        <path
           sodipodi:nodetypes="cssssssccsssssscc"
           id="path3213"
           d="m 2482.7412,-736.87944 c 0,0 -18.0948,0 -25.9059,0 -5.3401,0 -14.8789,2.14774 -14.8789,11.49062 0,6.62305 7.5006,9.96962 12.2355,9.96962 4.4861,0 9.0572,0 13.2928,0 2.2126,0 7.5444,-2e-5 7.5527,4.22954 0.01,3.92743 -5.6158,3.92743 -7.6282,3.92743 -7.8907,0 -25.4528,0 -25.4528,0 l 0,6.64641 c 0,0 19.706,0 27.4478,0 7.5092,0 13.337,-2.36152 13.337,-10.7249 0,-4.95506 -4.4223,-10.57383 -12.6886,-10.57383 -4.4314,0 -10.1347,0 -14.6415,0 -2.8438,0 -5.6442,-1.23531 -5.5998,-4.07849 0.044,-2.76795 2.8479,-4.07848 5.7767,-4.07848 7.8732,0 27.1532,0 27.1532,0 l 0,-6.80792 z"
           style="fill:#194a8d;fill-opacity:1;fill-rule:evenodd;stroke:none;stroke-width:1px;stroke-linecap:butt;stroke-linejoin:miter;stroke-opacity:1"
           inkscape:connector-curvature="0" />
        <path
           style="fill:#194a8d;fill-opacity:1;fill-rule:evenodd;stroke:none;stroke-width:1px;stroke-linecap:butt;stroke-linejoin:miter;stroke-opacity:1"
           d="m 2527.2146,-730.07152 0,-6.80792 c 0,0 -19.3822,0 -27.6307,0 -4.763,0 -7.0568,1.14254 -8.9878,2.8805 -2.2696,2.04273 -3.3292,4.39568 -3.3292,6.64641 0,5.01655 0,12.28438 0,17.22025 0,3.52042 1.5755,5.36645 3.3292,6.873 1.8591,1.59704 4.4221,2.64346 7.9304,2.64346 8.6871,0 28.6881,0 28.6881,0 l 0,-6.64641 c 0,0 -19.1369,0.0262 -27.4042,0 -1.061,-0.003 -2.5301,-0.44825 -3.3572,-1.11292 -0.6838,-0.54949 -1.5141,-1.6354 -1.4958,-2.5124 0.097,-4.66326 0.057,-11.22573 0,-15.86076 -0.01,-0.78548 0.5699,-1.8248 1.1533,-2.35079 0.6274,-0.56559 1.7977,-0.97371 2.6424,-0.97242 8.406,0.0129 28.4615,0 28.4615,0 z"
           id="path3219"
           sodipodi:nodetypes="ccssssssccssssssc"
           inkscape:connector-curvature="0" />
        <path
           style="fill:#194a8d;fill-opacity:1;fill-rule:evenodd;stroke:none;stroke-width:1px;stroke-linecap:butt;stroke-linejoin:miter;stroke-opacity:1"
           d="m 2540.6362,-736.87944 -8.0109,0 0,36.26362 8.0109,0 0,-14.47398 29.1597,0 0,14.47398 7.2632,0 0,-36.26362 -7.2632,0 0,14.84686 -29.1597,0 0,-14.84686 z"
           id="path2425"
           inkscape:connector-curvature="0" />
        <path
           style="fill:#194a8d;fill-opacity:1;fill-rule:evenodd;stroke:none;stroke-width:1px;stroke-linecap:butt;stroke-linejoin:miter;stroke-opacity:1"
           d="m 2582.828,-736.87944 c 0,0 0.053,17.74772 0.053,25.95529 0,1.72738 -0.156,5.08817 3.1509,7.90409 2.6835,2.28499 7.6122,2.40424 9.1324,2.40424 9.0097,0 25.4747,0 25.4747,0 l 0,-7.10397 c 0,0 -17.1494,-0.0167 -24.46,0 -1.3136,0.003 -2.6152,-0.42189 -3.6877,-1.1804 -0.7546,-0.53371 -1.6627,-1.68718 -1.6529,-2.61141 0.077,-7.21098 0,-25.36784 0,-25.36784 l -8.0109,0 z"
           id="path3198"
           sodipodi:nodetypes="csssccssscc"
           inkscape:connector-curvature="0" />
        <path
           sodipodi:nodetypes="cccccccsscccc"
           id="path3200"
           d="m 2647.967,-736.45957 c -8.5126,11.02152 -25.625,35.84375 -25.625,35.84375 l 9.7187,0 6,-8.90625 24.7188,0 6.25,8.90625 9.1875,0 c 0,0 -18.6828,-26.36592 -25.6563,-35.71875 -0.824,-1.10524 -3.751,-1.21609 -4.5937,-0.125 z m 2.1562,8.96875 7.6875,10.90625 -15.0312,0 7.3437,-10.90625 z"
           style="fill:#194a8d;fill-opacity:1;fill-rule:evenodd;stroke:none;stroke-width:1px;stroke-linecap:butt;stroke-linejoin:miter;stroke-opacity:1"
           inkscape:connector-curvature="0" />
        <path
           sodipodi:nodetypes="ccsssssscccsccccssc"
           id="path3202"
           d="m 2769.2124,-730.07152 0,-6.80792 c 0,0 -17.68,0 -26.1811,0 -5.545,0 -7.9999,1.27638 -9.921,2.61347 -2.5494,1.77447 -4.0785,4.19445 -4.0785,7.55903 0,8.30801 0,11.98214 0,17.28778 0,1.60443 1.6359,4.92046 3.8401,6.54289 2.5965,1.91119 7.5953,2.26045 10.0947,2.26045 8.7046,0 26.2458,0 26.2458,0 l 0,-7.10397 -26.8877,0 c 0,0 -3.9844,0.33268 -5.1877,-0.8545 -1.4092,-1.39022 -0.8545,-6.5428 -0.8545,-6.5428 l 32.9299,0 0,-6.79746 -32.9299,0 c 0,0 -0.5667,-6.3696 0.6943,-7.35588 1.1068,-0.86575 2.1518,-0.80109 4.9839,-0.80109 9.33,0 27.2517,0 27.2517,0 z"
           style="fill:#194a8d;fill-opacity:1;fill-rule:evenodd;stroke:none;stroke-width:1px;stroke-linecap:butt;stroke-linejoin:miter;stroke-opacity:1"
           inkscape:connector-curvature="0" />
        <path
           style="fill:#194a8d;fill-opacity:1;fill-rule:evenodd;stroke:none;stroke-width:1px;stroke-linecap:butt;stroke-linejoin:miter;stroke-opacity:1"
           d="m 2724.1261,-736.99613 c 0,0 -22.8375,0 -32.325,0 -2.5178,0 -5.999,1.25443 -7.8548,2.95603 -1.7405,1.59593 -3.3994,4.73813 -3.3994,7.09957 0,4.89807 0,11.55562 0,16.38946 0,2.39158 1.8022,5.55246 3.626,7.09957 2.0491,1.73832 5.8474,2.71899 8.5346,2.71899 5.7127,0 13.1161,0 18.7308,0 2.7172,0 6.6093,-0.81526 8.6856,-2.56793 2.0829,-1.7582 4.0022,-2.92111 4.0022,-8.90464 0,-3.2001 0,-9.83738 0,-9.83738 l -7.552,0 c 0,0 0.076,6.80984 0.076,9.6032 0,0.98149 -0.8534,2.20272 -1.5759,2.86709 -0.9424,0.86662 -2.6184,1.7357 -3.8986,1.7357 -5.8545,0 -11.715,0 -18.3167,0 -1.9951,0 -4.4076,-1.05939 -4.4076,-3.73423 0,-4.59683 0,-9.90616 0,-14.89307 0,-1.78013 1.3213,-3.58958 4.2721,-3.58958 9.254,0 31.4031,0 31.4031,0 l 0,-6.94278 z"
           id="path3214"
           sodipodi:nodetypes="csssssssssccssssssscc"
           inkscape:connector-curvature="0" />
        <path
           style="fill:#194a8d;fill-opacity:1;fill-rule:evenodd;stroke:none;stroke-width:1px;stroke-linecap:butt;stroke-linejoin:miter;stroke-opacity:1"
           d="m 2774.0534,-736.86582 0,36.25 7.3437,0 0,-12.75 21.2813,12.75 14.6562,0 -22.375,-13.21875 c 4.5604,0 7.622,0 10.1563,0 5.9185,0 12.2187,-3.3366 12.2187,-11.3125 0,-7.9759 -6.4716,-11.71875 -13.6562,-11.71875 -7.1846,0 -29.625,0 -29.625,0 z m 7.3437,6.9375 c 0,0 16.2157,0 23.0625,0 3.0153,0 5.5938,0.83324 5.5938,4.6875 0,3.89202 -2.6855,4.46875 -5.7188,4.46875 -6.6076,10e-6 -22.9375,0 -22.9375,0 l 0,-9.15625 z"
           id="path3226"
           inkscape:connector-curvature="0" />
        <ellipse
           d="m -133.38143,98.426582 a 5.249156,4.4183545 0 0 1 -5.24915,4.418358 5.249156,4.4183545 0 0 1 -5.24916,-4.418358 5.249156,4.4183545 0 0 1 5.24916,-4.418354 5.249156,4.4183545 0 0 1 5.24915,4.418354 z"
           style="opacity:1;fill:#194a8d;fill-opacity:1;stroke:none;stroke-width:12.99199963;stroke-miterlimit:4;stroke-dasharray:none;stroke-opacity:1"
           id="path3234"
           transform="translate(2966.1152,-803.46076)"
           cx="-138.63058"
           cy="98.426582"
           rx="5.249156"
           ry="4.4183545" />
      </g>
      <path
         d="m 435.22078,469.73676 -108.90257,-45.60442 8.08895,118.64248 -54.11026,-104.93623 -70.06541,96.08489 26.00085,-115.16723 -115.4354,28.56812 93.94587,-71.51019 -106.79188,-52.316 117.93258,5.60727 -48.17925,-108.72088 86.73731,80.10101 32.97699,-114.25405 14.9567,117.11461 98.70293,-66.32648 -63.82232,99.32897 118.24466,12.63599 -112.73816,35.06621 z"
         inkscape:randomized="0"
         inkscape:rounded="0"
         inkscape:flatsided="false"
         sodipodi:arg2="0.93227132"
         sodipodi:arg1="0.59475926"
         sodipodi:r2="70.199039"
         sodipodi:r1="181.99328"
         sodipodi:cy="367.76423"
         sodipodi:cx="284.47875"
         sodipodi:sides="9"
         id="path3265"
         style="opacity:1;fill:url(#radialGradient3287);fill-opacity:1;stroke:none;stroke-width:12.99199963;stroke-miterlimit:4;stroke-dasharray:none;stroke-opacity:1"
         sodipodi:type="star" />
    </g>
  </g>
</svg>
