<?xml version="1.0" encoding="UTF-8"?>
<svg width="571.14" height="450" version="1.0" xmlns="http://www.w3.org/2000/svg">
	<defs>
		<linearGradient id="linearGradient1231" x1="671.39" x2="642.44" y1="100.99" y2="124.08" gradientTransform="matrix(9.3897 0 0 9.3897 -5877.5 -879.39)" gradientUnits="userSpaceOnUse">
			<stop stop-color="#f7df25" offset="0"/>
			<stop stop-color="#dfa014" offset="1"/>
		</linearGradient>
	</defs>
	<g fill="#194a8d">
		<path d="m66.129 388.08v-16.808s-66.129-17.695-66.129 35.124c0 7.759 2.7921 14.143 5.3217 19.389 9.6915 20.099 33.214 23.493 46.789 23.493h16.456v-50.948h-26.408v16.761h9.9521v16.087s-32.578 1.9344-32.578-24.781c-9.4e-5 -31.475 46.596-18.316 46.596-18.316z" fill-rule="evenodd"/>
		<path d="m143.18 368.47h18.589v80.813h-18.589z"/>
		<path d="m106.99 390.21c-16.333 0-29.578 13.268-29.578 29.601s13.246 29.578 29.578 29.578c16.333 0 29.601-13.246 29.601-29.578s-13.268-29.601-29.601-29.601zm-0.18217 17.323c6.8969 0 12.505 5.6075 12.505 12.505 0 6.8969-5.6076 12.482-12.505 12.482-6.8969 0-12.482-5.5853-12.482-12.482 0-6.897 5.5853-12.505 12.482-12.505z"/>
		<path d="m212.75 368.81v26.213c-18.867-10.785-42.124 5.4615-42.016 22.275-0.0188 3.1688-0.0845 6.0825 0.38309 8.7501 3.8593 21.941 23.569 27.233 41.633 20.799v2.4741h18.099v-80.51zm-12.059 39.364c7.6127 0 13.797 5.7391 13.797 12.817 0 7.0774-6.1846 12.817-13.797 12.817-7.6127 0-13.797-5.7392-13.797-12.817 0-7.0775 6.1845-12.817 13.797-12.817z"/>
		<path d="m288.55 385.9v-15.82s-45.886-8.6132-45.605 17.759c0.0376 3.7454 0.15681 8.6304 1.9976 11.696 7.1373 11.889 25.403 16.291 25.51 26.014 0.0958 9.0618-27.508 3.2322-27.508 3.2322v17.454s10.929 3.9318 22.14 2.9696c13.604-1.1676 27.955-10.684 27.941-21.717-0.0281-24.65-28.108-26.573-28.506-38.059-0.27606-7.9472 24.03-3.5302 24.03-3.5302z"/>
		<path d="m326.77 378.28h-17.066v18.435h-4.5712v15.237h4.5712v25.753c0 2.373 0.85259 5.655 2.2256 7.5903 1.1888 1.6758 3.5881 3.99 8.614 3.99h12.93v-16.482s-3.3909 0.11173-4.555-0.38216c-2.1494-0.91083-2.1494-2.6889-2.1494-2.6889v-17.78h8.5328v-15.237h-8.5328z"/>
		<path d="m375.28 391.17c-14.291 0-22.624 5.3718-22.624 5.3718v14.89s11.621-5.1701 16.918-5.0821c4.364 0.0751 12.8 0.38685 13.797 4.6363 0.21972 0.9343-1.3361 2.48-2.2735 2.2736-18.688-4.1157-32.355 4.5121-32.944 16.695-0.94704 19.342 16.627 24.193 34.393 16.673l1.1368 2.6525h15.313v-44.758c0-8.1628-13.652-13.352-23.716-13.352zm-1.6494 34.192c4.8783 0 8.849 2.5024 8.849 5.5724 0 3.0701-3.9707 5.5502-8.849 5.5502-4.8783 0-8.8267-2.4801-8.8267-5.5502 0-3.07 3.9485-5.5724 8.8267-5.5724z"/>
		<path d="m411.48 391.16v58.125h17.239v-26.056s0-5.1292 5.0629-8.5328c2.8211-1.8965 11.099-2.2856 11.099-2.2856v-18.056c0-0.38218 0-3.1951-4.9562-3.1951-5.0468 0-11.205 7.2187-11.205 7.2187v-7.2187z"/>
		<path d="m452.26 368.52v18.589h18.589v62.168h19.504v-62.168h22.276l14.335 62.168h26.505l17.67-80.757h-18.316s-8.7525 41.849-11.098 51.938c-0.14741 0.63287-1.824 0.61033-2.0471 0-4.6564-12.73-11.852-51.938-11.852-51.938z"/>
	</g>
	<path d="m283.63 0 31.085 118.4 111.95-49.52-73.19 98.127 108.52 56.653-122.35 3.9587 23.366 120.16-79.38-93.19-79.38 93.19 23.366-120.16-122.35-3.9587 108.52-56.653-73.19-98.127 111.95 49.52z" fill="url(#linearGradient1231)"/>
</svg>
