<svg xmlns="http://www.w3.org/2000/svg" height="159.122" width="500" viewBox="0 0 132.292 42.102"><path d="M78.954 26.73c0 1.983-.73 3.42-2.065 4.735 1.175 1.317 1.58 2.18 1.58 4.323 0 3.617-2.76 6.18-6.372 6.18h-3.405c-2.834 0-5.2-1.935-6.12-4.283-.16-.412.04-.825.524-.825h3.53l.65.333.286.286c.32.333.644.492 1.374.492h2.635c1.42 0 2.35-.777 2.35-2.18v-.12c0-1.404-.93-2.27-2.3-2.27h-3.405c-3.6 0-6.524-3.006-6.524-6.67v-8.146c0-3.665 2.913-6.672 6.524-6.672h4.175c3.6 0 6.57 3.006 6.57 6.672M68.786 15.91a2.55 2.55 0 0 0-2.522 2.55v8.392c0 1.404 1.14 2.562 2.522 2.562h3.074c1.38 0 2.522-1.158 2.522-2.562V18.46c0-1.402-1.14-2.55-2.522-2.55zM99.67 26.73c0 3.665-2.96 6.67-6.53 6.67h-4.175c-3.6 0-6.57-3.006-6.57-6.67v-8.146c0-3.665 2.96-6.672 6.57-6.672h4.175c3.57 0 6.53 3.006 6.53 6.672m-10.135-2.676c-1.387 0-2.556 1.148-2.556 2.55v8.392c0 1.404 1.168 2.562 2.556 2.562h2.993c1.42 0 2.562-1.158 2.562-2.562v-8.392c0-1.402-1.14-2.55-2.562-2.55z" fill="#666"/><path d="M107.407 12.327h4.745c.524 0 .93.412.93.942v2.104c0 .538-.405.95-.93.95h-4.745v10.13c0 1.396 1.135 2.546 2.515 2.546h2.23c.524 0 .93.412.93.952v2.102c0 .53-.405.944-.93.944h-2.76c-3.604 0-6.53-2.967-6.565-6.63V6.274c0-.5.445-.903.93-.903h2.714c.53 0 .936.412.936.903m18.473 25.85c-.198.58-.57.873-1.174.873h-2.96c-.6 0-1.055-.293-1.214-.873l-6.126-18.567c-.246-.696.325-1.228.976-1.228h2.27c.6 0 1.015.28 1.174.857l4.38 14.045 4.38-14.045c.167-.577.6-.857 1.222-.857h2.23c.603 0 1.214.485.976 1.228" fill="#c3c3c4"/><path d="M57.186 0H.226v42.102h56.96z" fill="#0397d7"/><path d="M6.056 36.702h45.3v-31.3h-45.3z" fill="#c3c3c4"/><path d="M46.016 21.7l2.2-4.77-10.6-5.02-2.2 4.77m-13.7-.014l-2.2-4.77-10.6 5.02 2.2 4.77m9.28 6.576l-2.18 4.75 10.585 5.015 10.625-5.015-2.18-4.75-8.445 3.98z" fill="#0397d7"/></svg>