<?xml version="1.0" encoding="UTF-8" standalone="no"?>
<!-- Created with Inkscape (http://www.inkscape.org/) -->

<svg
   xmlns:dc="http://purl.org/dc/elements/1.1/"
   xmlns:cc="http://creativecommons.org/ns#"
   xmlns:rdf="http://www.w3.org/1999/02/22-rdf-syntax-ns#"
   xmlns:svg="http://www.w3.org/2000/svg"
   xmlns="http://www.w3.org/2000/svg"
   xmlns:xlink="http://www.w3.org/1999/xlink"
   xmlns:sodipodi="http://sodipodi.sourceforge.net/DTD/sodipodi-0.dtd"
   xmlns:inkscape="http://www.inkscape.org/namespaces/inkscape"
   id="svg2"
   version="1.1"
   inkscape:version="0.48.2 r9819"
   width="510"
   height="245.02"
   sodipodi:docname="Logo_HD1_2012.svg">
  <metadata
     id="metadata8">
    <rdf:RDF>
      <cc:Work
         rdf:about="">
        <dc:format>image/svg+xml</dc:format>
        <dc:type
           rdf:resource="http://purl.org/dc/dcmitype/StillImage" />
        <dc:title />
      </cc:Work>
    </rdf:RDF>
  </metadata>
  <defs
     id="defs6">
    <linearGradient
       id="linearGradient3906">
      <stop
         style="stop-color:#01689f;stop-opacity:1;"
         offset="0"
         id="stop3908" />
      <stop
         style="stop-color:#013252;stop-opacity:1;"
         offset="1"
         id="stop3910" />
    </linearGradient>
    <linearGradient
       id="linearGradient3878">
      <stop
         style="stop-color:#0169a0;stop-opacity:1;"
         offset="0"
         id="stop3880" />
      <stop
         id="stop3886"
         offset="0.5"
         style="stop-color:#0169a0;stop-opacity:0.49803922;" />
      <stop
         style="stop-color:#01a061;stop-opacity:0;"
         offset="1"
         id="stop3882" />
    </linearGradient>
    <linearGradient
       id="linearGradient3870">
      <stop
         id="stop3872"
         offset="0"
         style="stop-color:#000000;stop-opacity:1;" />
      <stop
         style="stop-color:#000000;stop-opacity:0.49803922;"
         offset="0.5"
         id="stop3876" />
      <stop
         id="stop3874"
         offset="1"
         style="stop-color:#000000;stop-opacity:0;" />
    </linearGradient>
    <linearGradient
       inkscape:collect="always"
       id="linearGradient2996">
      <stop
         style="stop-color:#000000;stop-opacity:1;"
         offset="0"
         id="stop2998" />
      <stop
         style="stop-color:#000000;stop-opacity:0;"
         offset="1"
         id="stop3000" />
    </linearGradient>
    <linearGradient
       inkscape:collect="always"
       xlink:href="#linearGradient2996"
       id="linearGradient3002"
       x1="-498.33145"
       y1="120.21896"
       x2="-6.9818769"
       y2="116.72802"
       gradientUnits="userSpaceOnUse" />
    <linearGradient
       inkscape:collect="always"
       xlink:href="#linearGradient3906"
       id="linearGradient3912"
       x1="2.6182039"
       y1="119.34622"
       x2="509.677"
       y2="118.47349"
       gradientUnits="userSpaceOnUse" />
  </defs>
  <sodipodi:namedview
     pagecolor="#ffffff"
     bordercolor="#666666"
     borderopacity="1"
     objecttolerance="10"
     gridtolerance="10"
     guidetolerance="10"
     inkscape:pageopacity="0"
     inkscape:pageshadow="2"
     inkscape:window-width="1366"
     inkscape:window-height="706"
     id="namedview4"
     showgrid="false"
     inkscape:zoom="1.1458237"
     inkscape:cx="-2.4869142"
     inkscape:cy="83.375461"
     inkscape:window-x="-8"
     inkscape:window-y="-8"
     inkscape:window-maximized="1"
     inkscape:current-layer="svg2" />
  <path
     style="fill:url(#linearGradient3912);fill-opacity:1;stroke:none"
     d="M 0.5 0.5 L 0.5 244.03125 L 90.5625 244.03125 L 90.5625 157.3125 L 164.9375 157.3125 L 164.9375 244.53125 L 242.59375 244.53125 L 242.59375 244.46875 L 284.34375 244.46875 C 295.72038 244.42425 307.12483 242.83337 318.15625 239.65625 C 383.2849 220.89874 420.76706 153.33928 401.84375 88.78125 C 401.31383 86.973402 400.7311 85.201674 400.125 83.4375 L 424.65625 83.4375 L 424.65625 241.1875 L 509.5 241.1875 L 509.5 1.9375 L 388.4375 1.9375 L 388.78125 59.34375 C 366.61123 23.295575 326.81474 1.149937 284.34375 1 L 280.1875 1 L 242.59375 1 L 242.59375 0.96875 L 163.96875 0.96875 L 163.96875 87.25 L 91.0625 87.25 L 91.0625 0.5 L 0.5 0.5 z M 242.59375 72.40625 L 274.5 72.40625 L 274.71875 72.40625 C 303.09914 72.650507 325.95905 95.713093 325.84375 123.9375 C 325.72908 151.9823 302.92871 174.70736 274.71875 174.96875 C 274.66535 174.96925 274.6159 174.96842 274.5625 174.96875 L 242.59375 174.96875 L 242.59375 72.40625 z M 259.4375 89.125 L 259.4375 158.28125 L 272.4375 158.28125 C 272.62496 158.28025 272.81256 158.28525 273 158.28125 C 277.00059 158.20305 280.96033 157.54844 284.78125 156.28125 C 304.20081 149.84085 314.30244 130.0357 307.34375 112.0625 C 301.97347 98.191871 288.01986 89.491982 273 89.1875 L 273 89.125 L 259.4375 89.125 z "
     id="path2987" />
</svg>
