<svg xmlns="http://www.w3.org/2000/svg" xmlns:xlink="http://www.w3.org/1999/xlink" height="408.26" width="599.985" viewBox="0 0 158.746 108.017"><defs><radialGradient r="1" gradientTransform="matrix(-9.9495 -30.16 30.16 -9.9495 201.12 545.73)" cx="0" cy="0" gradientUnits="userSpaceOnUse" id="a"><stop offset="0" stop-color="#ea540a"/><stop offset=".004" stop-color="#ea5607"/><stop offset=".004" stop-color="#ea5607"/><stop offset=".012" stop-color="#ed590a"/><stop offset=".016" stop-color="#ed590a"/><stop offset=".02" stop-color="#ed5b07"/><stop offset=".023" stop-color="#ed5b07"/><stop offset=".027" stop-color="#ed5e07"/><stop offset=".031" stop-color="#ed5e07"/><stop offset=".035" stop-color="#ed6007"/><stop offset=".039" stop-color="#ed6007"/><stop offset=".043" stop-color="#ed6307"/><stop offset=".047" stop-color="#ed6307"/><stop offset=".051" stop-color="#ed6307"/><stop offset=".055" stop-color="#ed6607"/><stop offset=".059" stop-color="#ef6807"/><stop offset=".063" stop-color="#ef6807"/><stop offset=".066" stop-color="#ef6807"/><stop offset=".07" stop-color="#ef6b07"/><stop offset=".074" stop-color="#ef6d07"/><stop offset=".078" stop-color="#ef6d05"/><stop offset=".082" stop-color="#ef6d05"/><stop offset=".086" stop-color="#ef7005"/><stop offset=".09" stop-color="#ef7005"/><stop offset=".094" stop-color="#ef7205"/><stop offset=".098" stop-color="#ef7205"/><stop offset=".102" stop-color="#ef7205"/><stop offset=".105" stop-color="#ef7505"/><stop offset=".109" stop-color="#ef7702"/><stop offset=".113" stop-color="#ef7702"/><stop offset=".117" stop-color="#ef7702"/><stop offset=".121" stop-color="#ef7a02"/><stop offset=".125" stop-color="#ef7a02"/><stop offset=".129" stop-color="#f27c02"/><stop offset=".133" stop-color="#f27c02"/><stop offset=".137" stop-color="#f27c02"/><stop offset=".141" stop-color="#f27f02"/><stop offset=".145" stop-color="#f27f02"/><stop offset=".148" stop-color="#f27f02"/><stop offset=".152" stop-color="#f27f02"/><stop offset=".156" stop-color="#f28202"/><stop offset=".16" stop-color="#f28402"/><stop offset=".164" stop-color="#f28402"/><stop offset=".168" stop-color="#f28402"/><stop offset=".172" stop-color="#f28402"/><stop offset=".176" stop-color="#f28702"/><stop offset=".18" stop-color="#f28702"/><stop offset=".184" stop-color="#f28900"/><stop offset=".188" stop-color="#f48900"/><stop offset=".191" stop-color="#f48900"/><stop offset=".195" stop-color="#f48c00"/><stop offset=".199" stop-color="#f48c00"/><stop offset=".203" stop-color="#f48e00"/><stop offset=".207" stop-color="#f48e00"/><stop offset=".211" stop-color="#f48e00"/><stop offset=".215" stop-color="#f48e00"/><stop offset=".219" stop-color="#f49100"/><stop offset=".223" stop-color="#f49300"/><stop offset=".227" stop-color="#f49300"/><stop offset=".23" stop-color="#f49300"/><stop offset=".234" stop-color="#f49300"/><stop offset=".238" stop-color="#f49600"/><stop offset=".242" stop-color="#f49600"/><stop offset=".246" stop-color="#f49900"/><stop offset=".25" stop-color="#f49900"/><stop offset=".254" stop-color="#f49900"/><stop offset=".258" stop-color="#f49900"/><stop offset=".262" stop-color="#f49b00"/><stop offset=".266" stop-color="#f79b00"/><stop offset=".27" stop-color="#f79b00"/><stop offset=".273" stop-color="#f79e00"/><stop offset=".277" stop-color="#f49e00"/><stop offset=".281" stop-color="#f7a000"/><stop offset=".289" stop-color="#f7a000"/><stop offset=".293" stop-color="#f7a000"/><stop offset=".297" stop-color="#f7a300"/><stop offset=".301" stop-color="#f7a300"/><stop offset=".305" stop-color="#f7a300"/><stop offset=".309" stop-color="#f7a500"/><stop offset=".313" stop-color="#f7a500"/><stop offset=".316" stop-color="#f7a500"/><stop offset=".32" stop-color="#f7a800"/><stop offset=".328" stop-color="#f9a800"/><stop offset=".332" stop-color="#f9aa00"/><stop offset=".336" stop-color="#f9aa00"/><stop offset=".34" stop-color="#f9aa00"/><stop offset=".348" stop-color="#f9ad00"/><stop offset=".352" stop-color="#f9ad00"/><stop offset=".359" stop-color="#f9af00"/><stop offset=".367" stop-color="#f9af00"/><stop offset=".371" stop-color="#f9af00"/><stop offset=".375" stop-color="#f9b200"/><stop offset=".379" stop-color="#f9b200"/><stop offset=".383" stop-color="#f9b200"/><stop offset=".387" stop-color="#f9b200"/><stop offset=".391" stop-color="#f9b500"/><stop offset=".395" stop-color="#f9b500"/><stop offset=".402" stop-color="#f9b500"/><stop offset=".406" stop-color="#f9b700"/><stop offset=".41" stop-color="#f9b700"/><stop offset=".414" stop-color="#f9b700"/><stop offset=".422" stop-color="#f9ba00"/><stop offset=".426" stop-color="#f9ba00"/><stop offset=".434" stop-color="#f9ba00"/><stop offset=".438" stop-color="#f9bc00"/><stop offset=".441" stop-color="#f9bc00"/><stop offset=".449" stop-color="#f9bc00"/><stop offset=".453" stop-color="#f9bf00"/><stop offset=".457" stop-color="#f9bf00"/><stop offset=".465" stop-color="#f9bf00"/><stop offset=".469" stop-color="#fcc100"/><stop offset=".473" stop-color="#fcc100"/><stop offset=".48" stop-color="#fcc100"/><stop offset=".484" stop-color="#fcc100"/><stop offset=".488" stop-color="#fcc400"/><stop offset=".496" stop-color="#fcc400"/><stop offset=".504" stop-color="#fcc600"/><stop offset=".508" stop-color="#fcc600"/><stop offset=".512" stop-color="#fcc600"/><stop offset=".516" stop-color="#fcc600"/><stop offset=".52" stop-color="#fcc600"/><stop offset=".523" stop-color="#fcc900"/><stop offset=".527" stop-color="#fcc900"/><stop offset=".531" stop-color="#fcc900"/><stop offset=".535" stop-color="#fccc00"/><stop offset=".547" stop-color="#fccc00"/><stop offset=".551" stop-color="#fccc00"/><stop offset=".555" stop-color="#fccc00"/><stop offset=".559" stop-color="#fccc00"/><stop offset=".57" stop-color="#fcce00"/><stop offset=".574" stop-color="#ffce00"/><stop offset=".586" stop-color="#ffce00"/><stop offset=".59" stop-color="#ffd100"/><stop offset=".602" stop-color="#ffd100"/><stop offset=".605" stop-color="#ffd300"/><stop offset=".617" stop-color="#ffd300"/><stop offset=".621" stop-color="#ffd300"/><stop offset=".625" stop-color="#ffd300"/><stop offset=".637" stop-color="#ffd600"/><stop offset=".645" stop-color="#ffd600"/><stop offset=".652" stop-color="#ffd600"/><stop offset=".656" stop-color="#ffd800"/><stop offset=".664" stop-color="#ffd800"/><stop offset=".672" stop-color="#ffd800"/><stop offset=".68" stop-color="#ffd800"/><stop offset=".688" stop-color="#ffd800"/><stop offset=".695" stop-color="#ffdb00"/><stop offset=".703" stop-color="#ffdb00"/><stop offset=".719" stop-color="#fd0"/><stop offset=".727" stop-color="#fd0"/><stop offset=".742" stop-color="#fd0"/><stop offset=".75" stop-color="#ffe000"/><stop offset=".766" stop-color="#ffe000"/><stop offset=".77" stop-color="#ffe000"/><stop offset=".773" stop-color="#ffe200"/><stop offset=".785" stop-color="#ffe200"/><stop offset=".797" stop-color="#ffe200"/><stop offset=".809" stop-color="#ffe200"/><stop offset=".813" stop-color="#ffe200"/><stop offset=".816" stop-color="#ffe200"/><stop offset=".824" stop-color="#ffe200"/><stop offset=".828" stop-color="#ffe500"/><stop offset=".848" stop-color="#ffe500"/><stop offset=".863" stop-color="#ffe500"/><stop offset=".895" stop-color="#ffe800"/><stop offset=".918" stop-color="#ffe800"/><stop offset=".926" stop-color="#ffe800"/><stop offset=".941" stop-color="#ffe800"/><stop offset=".953" stop-color="#ffe800"/><stop offset=".957" stop-color="#ffea00"/><stop offset="1" stop-color="#ffea00"/></radialGradient><radialGradient id="b" gradientUnits="userSpaceOnUse" cy="0" cx="0" gradientTransform="rotate(-105.536 311.592 194.992) scale(40.517)" r="1"><stop stop-color="#4cad2b" offset="0"/><stop stop-color="#4cad2b" offset=".008"/><stop stop-color="#4caa2b" offset=".012"/><stop stop-color="#49aa2b" offset=".023"/><stop stop-color="#49aa2d" offset=".027"/><stop stop-color="#49aa2d" offset=".055"/><stop stop-color="#49aa2d" offset=".059"/><stop stop-color="#47aa2d" offset=".086"/><stop stop-color="#47aa2d" offset=".09"/><stop stop-color="#47aa2d" offset=".102"/><stop stop-color="#47aa30" offset=".105"/><stop stop-color="#44aa30" offset=".117"/><stop stop-color="#44a830" offset=".121"/><stop stop-color="#44a830" offset=".133"/><stop stop-color="#44a830" offset=".137"/><stop stop-color="#44a830" offset=".148"/><stop stop-color="#44a830" offset=".152"/><stop stop-color="#44a830" offset=".164"/><stop stop-color="#44a830" offset=".168"/><stop stop-color="#42a830" offset=".18"/><stop stop-color="#42a830" offset=".184"/><stop stop-color="#42a830" offset=".207"/><stop stop-color="#3fa833" offset=".211"/><stop stop-color="#3fa533" offset=".215"/><stop stop-color="#3fa533" offset=".238"/><stop stop-color="#3fa533" offset=".242"/><stop stop-color="#3fa533" offset=".246"/><stop stop-color="#3fa533" offset=".258"/><stop stop-color="#3fa535" offset=".262"/><stop stop-color="#3fa535" offset=".27"/><stop stop-color="#3da535" offset=".273"/><stop stop-color="#3da535" offset=".277"/><stop stop-color="#3da535" offset=".285"/><stop stop-color="#3da535" offset=".293"/><stop stop-color="#3da535" offset=".301"/><stop stop-color="#3aa535" offset=".305"/><stop stop-color="#3aa535" offset=".309"/><stop stop-color="#3aa535" offset=".316"/><stop stop-color="#3aa335" offset=".324"/><stop stop-color="#3aa335" offset=".344"/><stop stop-color="#3aa335" offset=".352"/><stop stop-color="#38a335" offset=".355"/><stop stop-color="#38a335" offset=".359"/><stop stop-color="#38a335" offset=".367"/><stop stop-color="#38a338" offset=".375"/><stop stop-color="#38a338" offset=".383"/><stop stop-color="#35a338" offset=".387"/><stop stop-color="#35a038" offset=".391"/><stop stop-color="#35a038" offset=".406"/><stop stop-color="#35a038" offset=".414"/><stop stop-color="#35a038" offset=".418"/><stop stop-color="#33a038" offset=".422"/><stop stop-color="#33a038" offset=".438"/><stop stop-color="#33a038" offset=".445"/><stop stop-color="#33a038" offset=".449"/><stop stop-color="#30a03a" offset=".453"/><stop stop-color="#30a03a" offset=".469"/><stop stop-color="#30a03a" offset=".477"/><stop stop-color="#30a03a" offset=".48"/><stop stop-color="#30a03a" offset=".484"/><stop stop-color="#30a03a" offset=".5"/><stop stop-color="#2d9e3a" offset=".516"/><stop stop-color="#2d9e3a" offset=".52"/><stop stop-color="#2d9e3a" offset=".531"/><stop stop-color="#2d9e3a" offset=".543"/><stop stop-color="#2d9e3a" offset=".547"/><stop stop-color="#2b9e3a" offset=".551"/><stop stop-color="#2b9e3d" offset=".563"/><stop stop-color="#2b9e3d" offset=".574"/><stop stop-color="#2b9b3d" offset=".578"/><stop stop-color="#289b3d" offset=".582"/><stop stop-color="#289b3d" offset=".605"/><stop stop-color="#289b3d" offset=".609"/><stop stop-color="#289b3d" offset=".613"/><stop stop-color="#289b3d" offset=".617"/><stop stop-color="#269b3d" offset=".621"/><stop stop-color="#269b3d" offset=".625"/><stop stop-color="#239b3d" offset=".629"/><stop stop-color="#239b3d" offset=".637"/><stop stop-color="#239b3f" offset=".641"/><stop stop-color="#239b3f" offset=".648"/><stop stop-color="#239b3f" offset=".652"/><stop stop-color="#239b3f" offset=".656"/><stop stop-color="#219b3f" offset=".66"/><stop stop-color="#219b3f" offset=".668"/><stop stop-color="#239b3f" offset=".676"/><stop stop-color="#239b3f" offset=".684"/><stop stop-color="#21993f" offset=".691"/><stop stop-color="#1e993f" offset=".695"/><stop stop-color="#1e993f" offset=".711"/><stop stop-color="#1e993f" offset=".719"/><stop stop-color="#1e993f" offset=".723"/><stop stop-color="#1c993f" offset=".727"/><stop stop-color="#1c993f" offset=".734"/><stop stop-color="#1c993f" offset=".738"/><stop stop-color="#1c993f" offset=".754"/><stop stop-color="#19993f" offset=".758"/><stop stop-color="#19993f" offset=".77"/><stop stop-color="#19993f" offset=".781"/><stop stop-color="#19993f" offset=".785"/><stop stop-color="#16993f" offset=".789"/><stop stop-color="#169942" offset=".801"/><stop stop-color="#169942" offset=".813"/><stop stop-color="#169642" offset=".816"/><stop stop-color="#149642" offset=".82"/><stop stop-color="#149642" offset=".84"/><stop stop-color="#119642" offset=".848"/><stop stop-color="#0f9642" offset=".852"/><stop stop-color="#0f9642" offset=".867"/><stop stop-color="#0f9642" offset=".875"/><stop stop-color="#0c9344" offset=".879"/><stop stop-color="#0a9344" offset=".883"/><stop stop-color="#0c9344" offset=".895"/><stop stop-color="#0c9344" offset=".898"/><stop stop-color="#079344" offset=".91"/><stop stop-color="#059344" offset=".914"/><stop stop-color="#059344" offset=".922"/><stop stop-color="#029344" offset=".926"/><stop stop-color="#009344" offset=".93"/><stop stop-color="#009344" offset=".945"/><stop stop-color="#009344" offset=".957"/><stop stop-color="#009344" offset=".977"/><stop stop-color="#009344" offset=".988"/><stop stop-color="#009344" offset="1"/></radialGradient><radialGradient xlink:href="#a" id="i" cx="26.95" cy="29.043" fx="26.95" fy="29.043" r="56.242" gradientTransform="matrix(3.95 -1.30224 1.30238 3.95043 -157.976 -21.741)" gradientUnits="userSpaceOnUse"/><radialGradient xlink:href="#b" id="h" gradientUnits="userSpaceOnUse" gradientTransform="matrix(24.1713 -6.7196 6.71962 24.17137 -3545.631 -859.791)" cx="124.884" cy="74.531" fx="124.884" fy="74.531" r="11.897"/><radialGradient xlink:href="#b" id="g" cx="108.514" cy="71.725" fx="108.514" fy="71.725" r="15.064" gradientTransform="matrix(19.08883 -5.30668 5.3067 19.08888 -2478.209 -690.732)" gradientUnits="userSpaceOnUse"/><radialGradient xlink:href="#b" id="f" cx="74.086" cy="71.772" fx="74.086" fy="71.772" r="17.289" gradientTransform="matrix(16.63254 -4.62383 4.62384 16.6326 -1590.285 -748.636)" gradientUnits="userSpaceOnUse"/><radialGradient xlink:href="#b" id="e" cx="60.759" cy="76.519" fx="60.759" fy="76.519" r="5.368" gradientTransform="matrix(53.56442 -14.89085 14.89088 53.56455 -4420.169 -3091.371)" gradientUnits="userSpaceOnUse"/><radialGradient xlink:href="#b" id="d" cx="39.807" cy="74.706" fx="39.807" fy="74.706" r="11.368" gradientTransform="matrix(25.29531 -7.03205 7.03207 25.29537 -1558.459 -1507.222)" gradientUnits="userSpaceOnUse"/><radialGradient xlink:href="#b" id="c" cx="13.242" cy="75.091" fx="13.242" fy="75.091" r="14.073" gradientTransform="matrix(20.43331 -5.68052 5.68054 20.43336 -723.333 -1356.583)" gradientUnits="userSpaceOnUse"/></defs><path d="M60.456 95.758h-4l-4.143 4.69v-4.69h-3.108v12.26h3.108v-5.3l4.287 5.3h4.144l-5.583-6.59 5.295-5.67m8.57 7.31h-2.61l1.32-3.57zm-2.73-7.31l-5.15 12.26h3.453l.892-2.33h4.465l.92 2.33h3.51l-5.1-12.26h-2.99m17.32 7.54l-4.63-7.54h-3.51v12.26h3.08l-.06-7.57 4.66 7.57h3.51v-12.26h-3.1l.05 7.54m12-.23h-2.62l1.33-3.57zm-2.73-7.31l-5.15 12.26h3.45l.89-2.33h4.46l.92 2.33h3.51l-5.09-12.26h-2.99m12.34 9.47v-9.47h-3.16v12.26h7.82v-2.79h-4.66" fill="#30a830"/><path d="M40.544 101.998H.547a.565.565 0 0 1-.547-.57c0-.29.259-.55.547-.55h39.997c.287 0 .546.26.546.55 0 .32-.259.57-.546.57m117.632.12h-39.97c-.29 0-.55-.26-.55-.55 0-.31.26-.57.55-.57h39.97c.32 0 .57.26.57.57 0 .29-.25.55-.57.55" fill="#aeaeb0"/><path d="M28.956 88.027l-8.545 1.767c-.59-3.314-.737-6.85-.663-10.46-1.031.148-5.009.295-6.482.221l-1.547-3.094c-.295 3.242-.59 8.545-.295 12.008l-8.397 1.325c-1.474-9.723 1.105-17.9 1.694-27.402l8.397-1.842c.148 4.494-.22 7.956-.736 11.344 2.21.148 5.746.074 7.882-.147.442-3.315 1.105-7.366 1.915-9.944l8.545-1.18c-1.915 9.135-2.873 20.258-1.768 27.404" fill="url(#c)"/><path d="M43.615 67.99a28.979 28.979 0 0 1-.442 3.536c2.063-.22 5.893-.442 9.134-.59l.663 6.851c-3.02.074-7.072.442-9.06.663l-1.474-1.473c-.073.663-.147 1.252-.147 1.842 0 2.725.958 3.83 3.904 3.83 3.02 0 6.777-1.4 8.398-2.43l.22 7.587c-2.283 1.178-6.85 1.988-11.343 1.988-5.82 0-10.166-2.504-10.092-8.84 0-3.609 1.105-6.997 1.547-11.049l2.283-1.325c-.663.073-3.24.442-4.199.368-.22-1.915-.442-4.42-.294-6.482 7.145-.516 13.848-2.726 21.141-1.842l1.547 6.777c-4.493-.516-8.103 0-11.786.59" fill="url(#d)"/><path d="M66.819 88.321l-8.692 1.547c-1.326-9.723 1.178-18.047 1.841-27.476l8.471-1.842c.442 9.724-2.725 18.121-1.62 27.771" fill="url(#e)"/><path d="M96.137 89.794c-1.695-3.462-1.695-8.323-1.62-12.007h-.296c-2.21 4.052-4.051 8.545-4.125 9.577l-6.777 1.841c-1.768-3.61-2.43-8.25-3.462-12.007h-.295c-.957 3.315-1.767 7.735-1.767 11.418 0 0-4.862.663-7.956 1.252-.442-10.165 4.199-17.826 5.672-27.476l7.072-1.694c2.652 5.377 3.24 11.27 4.861 16.868 2.652-4.346 6.41-12.08 8.103-15.542l8.324-1.4c-1.178 8.913-2.357 20.847.516 27.845l-8.25 1.325" fill="url(#f)"/><path d="M121.108 72.189c-.736 1.4-2.283 4.199-2.946 5.598 1.105-.147 3.315-.294 4.42-.368-.295-1.326-1.105-3.83-1.474-5.23zm5.157 17.826c-1.031-1.62-1.62-3.388-2.357-5.745a38.25 38.25 0 0 0-5.672.442l-1.768-2.578c-1.179 2.651-1.4 3.314-2.579 6.482l-8.692 1.178c3.241-10.902 8.913-20.846 14.144-28.728l7.292-.958c2.947 8.398 4.715 21.142 8.692 27.33l-9.06 2.577" fill="url(#g)"/><path d="M147.111 67.917c.295.294 2.284.884 2.726 1.4-.737 5.082-1.989 14.437-1.252 19.152l-8.84 1.178c-.515-3.536-.368-7.955.147-12.08.442-3.757 1.032-7.367 1.326-9.503-2.946 0-4.051.074-7.734 1.547l-.663-7.072c2.725-1.178 5.82-1.4 8.618-1.4h4.42c4.199 0 8.177-.883 10.24-2.062l.515 6.85c-1.989 1.4-4.346 2.21-9.503 1.99" fill="url(#h)"/><path d="M23.358 50.385s18.857-24.456 22.246-24.456c3.315 0 11.639 14.143 11.639 14.143s12.08-25.635 16.132-25.635c4.051 0 8.545 3.315 8.545 3.315S92.012 0 96.284 0c4.199 0 39.557 50.386 39.557 50.386s-12.449-1.694-24.382-11.418c-5.083-4.199-12.523-12.596-12.523-12.596s-5.525 8.324-8.913 8.324c-3.389 0-12.155-14.512-14.144-14.512-2.062 0-17.531 30.202-22.762 30.202-5.23 0-7.734-13.554-7.734-13.554L23.358 50.385" fill="url(#i)"/></svg>