<svg xmlns="http://www.w3.org/2000/svg" width="347.909" height="224.435"><path d="M5.5 0h336.909c3.047 0 5.5 2.453 5.5 5.5v124.937H0V5.5C0 2.453 2.453 0 5.5 0z" fill="#189fd7"/><path d="M347.909 130.437v88.498c0 3.047-2.453 5.5-5.5 5.5H5.5a5.488 5.488 0 0 1-5.5-5.5v-88.498z" fill="#ff660e"/><g aria-label="Koran" style="line-height:1.25;-inkscape-font-specification:'Century Schoolbook L'" font-weight="700" font-size="9.632" font-family="Century Schoolbook L" letter-spacing="0" word-spacing="0" fill="#fff" stroke-width=".722"><path d="M15.665 14.305H34.83v38.724l35.345-38.724H93l-42.16 46.19 46.05 53.433H74.407L34.831 69.704v44.224H15.665zM135.552 47.12q8.288 0 15.553 4.61 7.32 4.609 11.41 12.51 4.09 7.903 4.09 17.062 0 9.22-4.144 17.24-4.09 8.023-11.194 12.572-7.104 4.49-15.662 4.49-12.593 0-21.528-9.937-8.88-9.998-8.88-24.245 0-15.265 10.064-25.442 8.827-8.86 20.29-8.86zm.215 15.385q-6.835 0-11.41 5.328-4.52 5.268-4.52 13.529 0 8.5 4.466 13.769 4.521 5.268 11.41 5.268t11.464-5.328q4.574-5.328 4.574-13.71 0-8.38-4.52-13.588-4.468-5.268-11.464-5.268zm41.368-13.709h14.675v8.201c1.589-3.232 3.7-5.687 6.334-7.363 2.634-1.676 5.52-2.514 8.655-2.514 2.93 0 6.679 1.378 8.967 5.341l-5.331 14.068c-2.24-2.24-4.084-5.066-6.96-5.102-2.725-.033-4.87 1.557-6.71 4.67-1.798 3.113-2.697 9.219-2.697 18.318l.062 3.173v26.34h-16.995z" style="-inkscape-font-specification:'Century Gothic Bold'" font-size="138.701" font-family="Century Gothic"/><path d="M259.055 113.928q-1.077-2.275-1.736-5.807-2.574 2.874-6.585 4.969-3.95 2.035-9.758 2.035-9.278 0-15.624-5.447-6.346-5.508-6.346-13.949 0-10.177 7.543-15.744 7.543-5.627 22.33-5.627h7.722v-3.772q0-4.49-2.335-7.123-2.275-2.694-7.243-2.694-9.28 0-9.28 7.782h-17.3q0-8.44 7.483-14.487 7.483-6.106 20.054-6.106 11.195 0 18.558 5.687 7.423 5.687 7.423 17.061v27.418q0 5.507.659 8.92.658 3.412 1.916 5.866v1.018zm-14.307-12.033q4.37 0 7.423-1.915 3.113-1.976 4.43-4.31V84.414h-7.064q-6.884 0-10.057 2.933-3.173 2.874-3.173 7.124 0 3.233 2.215 5.328 2.275 2.095 6.226 2.095z" style="-inkscape-font-specification:'Adobe Courier Bold'" font-family="Adobe Courier"/><path d="M286.087 48.796h15.345v6.645q5.246-4.67 9.477-6.465 4.288-1.856 8.744-1.856 9.14 0 15.514 6.764 5.36 5.747 5.36 17.002v43.042h-15.232V85.373q0-11.674-1.016-15.505-.959-3.831-3.44-5.807-2.427-2.035-6.037-2.035-4.682 0-8.067 3.352-3.329 3.293-4.626 9.16-.677 3.053-.677 13.23v26.16h-15.345z" style="-inkscape-font-specification:'Century Gothic Bold'" font-size="138.701" font-family="Century Gothic"/></g><g style="line-height:1.25;-inkscape-font-specification:'Century Schoolbook L'"><path d="M15.836 146.296h11.088v21.668h19.209v-21.668h11.049v57.43h-11.05v-25.182H26.925v25.182H15.836zm53.124 0h37.817v10.697H79.814v11.73h25.114v10.503H79.814v13.764h27.972v10.736H68.961zm47.741 0h11.744c7.57 0 13.195 1.04 16.874 3.123 3.679 2.056 6.709 5.414 9.09 10.073 2.383 4.659 3.574 10.098 3.574 16.32 0 4.424-.673 8.497-2.017 12.22-1.32 3.695-3.16 6.766-5.518 9.213-2.335 2.447-4.87 4.139-7.605 5.076-2.736.937-7.476 1.405-14.22 1.405H116.7zm11.415 10.54v36.193h4.599c4.528 0 6.26-.573 8.288-1.718 2.052-1.145 3.726-3.072 5.023-5.778 1.297-2.707 1.946-6.039 1.946-9.995 0-6.09-1.545-10.815-4.634-14.172-2.783-3.02-5.706-4.53-11.861-4.53zm51.055-10.54h10.414l20.755 57.43h-10.671l-4.217-11.83h-22.001l-4.4 11.83h-10.67zm5.28 15.226l-7.186 19.716h14.337zm15.963-15.226h11.752l10.697 20.614 10.62-20.614h11.595l-16.788 32.56v24.87h-11.01v-24.87zm56.986 0h10.254l20.436 57.43h-10.507l-4.152-11.83h-21.663l-4.332 11.83h-10.507zm5.2 15.226l-7.077 19.716h14.117zm34.523-15.226h11.088v21.668h19.209v-21.668h11.049v57.43h-11.05v-25.182h-19.208v25.182h-11.088z" style="-inkscape-font-specification:'Century Gothic Semi-Bold'" aria-label="HEDAYAH" font-weight="600" font-size="79.958" font-family="Century Gothic" letter-spacing="0" word-spacing="0" fill="#fff" stroke-width=".416"/></g></svg>