<?xml version="1.0" encoding="UTF-8"?>
<svg width="590.88" height="450" version="1.1" xmlns="http://www.w3.org/2000/svg">
	<path d="m386.22 93.17c-6.2967-0.010695-13.779 0.19974-16.617 0.5625-4.6017 0.5881-10.56 1.7209-10.926 2.0781-0.13295 0.13-0.03242 0.82787 0.22266 1.5508 0.25507 0.7229 0.61929 2.1974 0.81054 3.2773 0.19122 1.0799 0.50111 2.4919 0.68946 3.1367 0.28078 0.9611 0.46164 1.1442 1.002 1.0195 7.415-1.7102 12.08-2.1786 21.713-2.1855 4.8394-0.00329 9.8044 0.09798 11.033 0.22656l2.2344 0.23437 0.38867-3.2187c0.214-1.7705 0.46284-3.8773 0.55273-4.6816l0.16407-1.4629-2.4727-0.26562c-1.6658-0.17919-5.0169-0.26507-8.7949-0.27148zm30.654 4.9648c-0.05145 0.001456-0.09223 0.007705-0.12305 0.019531-0.4062 0.1559-2.5681 6.4593-2.7559 8.0352-0.0744 0.6245 0.24474 0.82481 2.7441 1.7285 9.689 3.504 19.112 9.2203 25.297 15.346l1.4141 1.4004 1.4141-1.3281c0.7777-0.7299 2.3336-2.1964 3.457-3.2598l2.043-1.9336-2.0606-1.957c-4.383-4.1613-8.3523-7.1405-14.076-10.566-4.5173-2.7038-15.759-7.5295-17.354-7.4844zm-76.807 4.0703c-0.146-0.1979-6.2684 3.346-9.4766 5.4844-5.849 3.899-13.736 10.88-19.061 16.871l-1.9199 2.1582 0.93165 0.78516c0.51159 0.4316 1.4219 1.2282 2.0234 1.7695 0.6015 0.5413 1.777 1.5682 2.6113 2.2832l1.5156 1.2988 2.2598-2.4004c8.268-8.7811 15.857-14.934 22.922-18.586 1.166-0.60275 2.1211-1.2472 2.1211-1.4316 9e-4 -0.2517-3.5857-7.769-3.9277-8.2324zm121.81 32.273c-0.52729 0.07013-1.699 0.63171-4.0566 1.9121l-4.1133 2.2344 0.72656 1.4727c2.6027 5.2664 3.7527 8.3541 5.6387 15.143 0.9036 3.252 2.0375 11.516 2.0586 15.004v0.00195l0.01368 2.2774h9.4277v-2.1055c0-6.193-1.6239-15.812-3.8359-22.721-1.3284-4.1496-4.4261-11.509-5.5273-13.133-0.05265-0.07767-0.15627-0.10931-0.33203-0.08593zm-446.56 2.5352c-0.8405 0-6.7816 10.552-9.4668 16.812-2.3201 5.409-5.7782 18.635-5.0664 19.377 0.1105 0.11521 2.0383 0.48878 4.2852 0.82813 2.2469 0.33935 4.2503 0.6336 4.4512 0.6543 0.20085 0.0208 0.45775-0.56233 0.57031-1.2969 1.4606-9.529 5.7277-20.345 11.414-28.926 0.8188-1.2357 1.2968-2.2491 1.1328-2.4023-0.7016-0.6556-7.0711-5.0469-7.3203-5.0469zm282.21 4.5918c-0.02112-0.00208-0.03503-7.7e-4 -0.04297 0.00781-0.1371 0.1481-3.3082 4.3425-7.0449 9.3203-3.7362 4.9782-8.7009 11.51-11.033 14.516-2.3323 3.0052-4.2402 5.5423-4.2402 5.6387s1.5908 1.4429 3.5352 2.9922 3.585 2.8231 3.6465 2.8301c0.06153 0.00685 0.4146-0.36541 0.78516-0.82618 1.689-2.1 12.745-16.53 13.398-17.488 0.2576-0.3774 1.247-1.7012 2.1992-2.9434 0.9523-1.2422 2.7567-3.5968 4.0098-5.2305 1.2531-1.6336 2.2679-3.0914 2.2559-3.2402-0.03846-0.47711-6.8142-5.5117-7.4688-5.5762zm-34.314 43.377-2.7188 2.9609c-5.086 5.542-14.269 14.524-20.209 19.766-1.8148 1.6014-3.3008 3.0152-3.3008 3.1426s1.2726 1.7345 2.8281 3.5723c1.5556 1.8378 2.9697 3.3447 3.1426 3.3457 0.1728 0.00166 0.74142-0.38487 1.2617-0.85937s2.2858-2.0661 3.9238-3.5352c4.501-4.037 14.23-13.588 18.541-18.201 0.2593-0.2774 1.1525-1.2334 1.9844-2.125l1.5117-1.6211-1.5098-1.3594c-0.83049-0.7482-2.3974-2.2001-3.4824-3.2246l-1.9726-1.8613zm196.91 4.6211c-0.30426 0.06435-0.60933 0.71192-1.1172 2.3105-2.817 8.867-8.1556 17.394-15.303 24.443l-2.252 2.2207 3.1738 3.5664 3.1738 3.5644 3.1797-3.2598c8.1336-8.339 13.49-16.987 16.871-27.236 0.53022-1.607 0.88129-3.0054 0.77929-3.1074-0.102-0.102-1.9227-0.67256-4.0449-1.2676-2.1221-0.59498-4.0708-1.1467-4.3301-1.2266-0.04396-0.01355-0.08739-0.01701-0.13086-0.00781zm-450.67 2.582-1.5625 0.08789c-0.8593 0.04795-2.835 0.21792-4.3906 0.37695-1.5556 0.15903-3.0105 0.29192-3.2344 0.29492-0.28415 0.0038-0.35528 0.31245-0.23633 1.0254 0.09371 0.5617 0.4518 2.7888 0.79688 4.9492 0.6373 3.9899 1.6758 8.498 2.6777 11.627 1.3063 4.0796 1.7218 5.274 2.3555 6.7578 1.352 3.1658 4.1888 8.8535 5.4355 10.898 1.1502 1.8866 1.3453 2.0652 1.916 1.7598 1.1907-0.6372 7.1016-4.6705 7.1016-4.8457 0-0.096-0.44655-0.97383-0.99219-1.9512-5.2903-9.476-7.9854-17.295-9.3281-27.062l-0.53906-3.918zm213.07 30.266c-0.38132-0.0049-1.0972 0.46172-2.9883 1.7754-8.152 5.6638-16.989 10.654-24.979 14.109-1.9012 0.82226-3.4998 1.5367-3.5508 1.5859-0.0511 0.04919 0.56265 1.6967 1.3633 3.6621 0.80039 1.9646 1.5804 3.8913 1.7344 4.2812 0.15338 0.38803 0.3336 0.70508 0.40039 0.70508 0.163 0 3.9908-1.6107 6.3359-2.666 7.734-3.48 17.728-9.3137 25.428-14.844 0.87949-0.63167 1.6482-1.1839 1.709-1.2266 0.0608-0.0426-0.96434-1.5356-2.2773-3.3184-1.313-1.7828-2.5665-3.4928-2.7852-3.8008-0.11459-0.1614-0.21729-0.26144-0.39062-0.26367zm204.7 6.7774c-0.1348-0.0833-1.8465 0.72387-3.8027 1.793-4.0759 2.2276-8.9429 4.5658-13.926 6.6895-1.9012 0.81026-3.7403 1.5976-4.0859 1.748-1.3645 0.5939-6.4564 2.5132-8.8945 3.3535-1.4163 0.48822-2.5741 1.0472-2.5742 1.2422-9e-5 0.1949 0.23203 0.903 0.51563 1.5723 0.28364 0.6692 0.62498 1.6397 0.75976 2.1582 0.13478 0.5185 0.56014 1.8305 0.94531 2.9141 0.61463 1.7291 0.78205 1.9459 1.3613 1.7715 1.828-0.5504 10.575-3.878 14.172-5.3906 7.97-3.3521 19.537-9.1866 19.855-10.016 0.139-0.3624-3.8113-7.5177-4.3262-7.8359zm-395.5 8.1035-0.9668 1.457c-2.1381 3.2188-4.1719 6.3782-4.1719 6.4824 0 0.2416 5.7862 3.4017 8.8477 4.832 6.82 3.1866 13.891 5.6755 22.891 8.0566 2.1604 0.5716 4.0693 1.0513 4.2422 1.0664 0.415 0.0362 2.6682-8.9955 2.2969-9.207-0.053-0.03023-1.1568-0.30841-2.4531-0.61719-3.861-0.9199-11.33-3.1454-13.906-4.1445-0.6482-0.25137-1.7791-0.68797-2.5137-0.9707-0.7346-0.28272-1.7815-0.70759-2.3262-0.94336-0.54461-0.23578-1.0763-0.42773-1.1816-0.42773-0.3947 0-7.0142-3.3093-8.8496-4.4238l-1.9082-1.1602zm141.75 8.5898c-0.31837-0.01533-0.92922 0.08672-1.5703 0.27539-7.444 2.1908-18.443 4.4879-28.578 5.9668-5.8074 0.84742-5.4999 0.76091-5.5039 1.5274-0.00181 0.3811 0.24023 2.4983 0.53711 4.7031l0.53906 4.0078 0.95703-0.1582c0.5259-0.08748 2.9358-0.44639 5.3555-0.79687 8.511-1.2327 15.986-2.7084 24.039-4.7442 5.6373-1.425 6.9162-1.8152 6.9082-2.1074-5e-3 -0.1942-0.25977-1.1545-1.7266-6.4961-0.28477-1.037-0.62099-1.9907-0.7461-2.1211-0.0313-0.0326-0.10481-0.05154-0.21094-0.05664zm202.51 3.2793c-0.1697 0-1.6783 0.34186-3.3516 0.76172-6.941 1.7416-18.356 4.1097-26.592 5.5156-3.1002 0.52918-5.7001 1.0263-5.7793 1.1055-0.13271 0.1327 0.03892 1.4641 0.92578 7.1367 0.32051 2.0499 0.35312 2.1048 1.168 1.9609 0.4608-0.08135 2.8884-0.49572 5.3945-0.91992 6.3244-1.0704 7.7675-1.3364 12.256-2.2617 2.1604-0.44543 4.5429-0.93167 5.293-1.0801 0.75-0.1485 4.0363-0.91973 7.3047-1.7148 6.6288-1.6127 6.4054-1.4463 5.4629-4.0625-0.24906-0.6914-0.45403-1.5108-0.45703-1.8203-8e-3 -0.9533-1.2979-4.6211-1.625-4.6211zm-292.99 4.1602c-0.12569 0.1657-0.77146 4.8706-0.9707 7.0723l-0.20703 2.2793 0.90625 0.02344c0.4977 0.01323 1.1875 0.08024 1.5332 0.14844 0.793 0.15646 7.5782 0.71743 12.727 1.0527v0.00195c5.061 0.32961 15.302 0.40312 19.592 0.14063l3.3477-0.20508v-2.2617c0-1.244-0.08893-3.33-0.19922-4.6348l-0.20117-2.3711-11.191-0.00781c-8.8536-0.00516-12.662-0.14276-18.232-0.66211-3.8729-0.36107-7.0697-0.62077-7.1035-0.57617zm238.63 5.6875c-0.12001-0.00451-0.27718 0.01927-0.48437 0.05469-0.4753 0.08126-2.2682 0.293-3.9824 0.4707-2.2218 0.23473-6.1596 0.80179-7.6035 1.002l-6.0371 10.008s5.0784-0.50464 6.5449-0.65039c1.472-0.14629 4.6241-0.52489 7.0098-0.78125 6.3993-0.6876 5.9562-0.46061 5.707-2.9453-0.1148-1.1451-0.33272-2.6466-0.48438-3.3379-0.15166-0.6914-0.2792-1.8557-0.2832-2.5859-0.00551-0.95497-0.02669-1.2208-0.38672-1.2344zm-55.834 5.4141c-0.56327-0.0084-1.7428 0.05296-3.0391 0.16602-1.7283 0.15075-5.7595 0.48996-8.957 0.7539-3.197 0.26393-8.0744 0.68657-10.84 0.9375-2.7654 0.25096-7.008 0.62015-9.4277 0.82227-2.4197 0.20216-4.5009 0.45887-4.625 0.56836-0.12413 0.1095 0.016 2.2304 0.31054 4.7129l0.53321 4.5137 2.5195-0.19336c1.3851-0.10562 4.8513-0.40857 7.7031-0.67383 5.743-0.5342 14.218-1.2481 21.74-1.8301 2.7101-0.20966 5.0049-0.45813 5.0996-0.55273 0.09465-0.0946 0.03487-1.3657-0.13282-2.8242-0.16764-1.4586-0.30859-3.4558-0.30859-4.4394-0.00132-0.98358-0.10671-1.8508-0.23633-1.9277-0.03242-0.01923-0.15209-0.0304-0.33984-0.0332zm-55.836 5.2793c-0.77698-0.03647-6.1594 0.57879-8.1582 0.94531-0.3457 0.06339-1.335 0.21331-2.1992 0.33398-4.642 0.6482-15.663 2.9001-19.799 4.0449-0.8642 0.23918-2.8087 0.76671-4.3223 1.1738l-2.752 0.74024 0.20117 1.1152c0.11087 0.6131 0.44454 1.8214 0.74219 2.6856 0.29768 0.8642 0.78128 2.3851 1.0742 3.3789 0.5838 1.9806 0.71398 2.0432 2.7676 1.3535 5.579-1.8737 19.99-4.7746 30.65-6.1699l2.9062-0.37891-0.00977-0.97656c-0.01605-1.4679-0.82291-8.0436-1.0098-8.2305-0.00849-0.00848-0.04-0.01319-0.0918-0.01562zm-55.527 14.143c-0.09613 0.0045-0.21 0.02842-0.34375 0.07031-1.18 0.3695-9.3358 4.4228-12.867 6.3945-6.967 3.8895-19.28 12.602-19.205 13.59 0.0192 0.2538 1.2685 1.9727 2.7754 3.8184 1.7051 2.0884 2.8804 3.2722 3.1094 3.1348 0.2023-0.1214 1.4529-1.0781 2.7793-2.125 6.823-5.3849 13.215-9.3492 21.998-13.643 6.1206-2.992 5.8212-2.6571 4.6465-5.2305-1.4078-3.0841-2.1299-4.7654-2.334-5.4336-0.12949-0.42389-0.27022-0.5897-0.55859-0.57617zm-46.713 33.473-1.1934 1.3184c-3.6341 4.014-9.0805 11.523-11.832 16.312-2.3208 4.04-5.9435 12.023-6.9199 15.25-0.1742 0.5758 0.22306 0.77695 4.127 2.0938v0.00195c2.3759 0.80139 4.4036 1.4676 4.5059 1.4824 0.10226 0.0147 0.36158-0.574 0.57812-1.3086s0.58277-1.7588 0.8125-2.2773c0.2298-0.5185 0.84378-1.9328 1.3652-3.1426 2.828-6.56 7.9933-14.568 13.684-21.213 0.96208-1.1234 1.7519-2.1255 1.7539-2.2285 0.0041-0.1792-3.7649-3.6697-5.875-5.4414l-1.0059-0.84766zm-14.158 53.123-9.2715 0.17383 0.060547 3.457c0.1007 5.8 0.8458 10.778 2.6582 17.756 0.8245 3.1743 2.9873 8.8865 4.8613 12.838l1.9922 4.1992 1.8125-1.0274c0.9974-0.5653 2.8387-1.5835 4.0918-2.2617 1.2531-0.67811 2.2793-1.3048 2.2793-1.3926s-0.76171-1.738-1.6934-3.666c-1.5392-3.1857-3.4744-8.5197-4.7617-13.131-0.9126-3.269-2.0042-11.439-2.0215-15.129l-0.007813-1.8164zm316.25 30.037c-9.855 0.05624-29.576 0.42169-30.998 0.64648l-1.1894 0.18946 0.17773 2.4062c0.09793 1.3233 0.25712 3.4395 0.35352 4.7031l0.17578 2.2969 2.4062-0.16993c3.601-0.25366 14.741-0.49808 25.252-0.55468l9.334-0.05078 0.09375-4.5801c0.05174-2.5196 0.01391-4.6898-0.08399-4.8223-0.04925-0.06658-2.2365-0.0832-5.5215-0.06445zm24.43 0.46289-0.0957 4.5957c-0.05927 2.8761 0.02216 4.6331 0.21875 4.6914 0.1728 0.05129 3.5678 0.24345 7.543 0.42773 7.261 0.3365 18.749 1.0963 23.727 1.5684 4.8485 0.45987 5.2525 0.43303 5.4453-0.36328 0.24006-0.9914 0.9287-8.4221 0.79297-8.5547-0.133-0.1302-10.775-0.99864-17.395-1.4199-12.587-0.80102-15.291-0.94531-17.67-0.94531h-2.5664zm-77.924 1.2598c-10.736 1.2272-20.012 1.7077-31.406 3.1582l-3.2383 0.38672 0.1914 2.5469c0.10534 1.4004 0.35205 3.5163 0.54688 4.7031l0.35351 2.1582 1.75-0.21484c8.8163-1.0622 17.68-1.7695 26.508-2.7598l5.2949-9.9785zm134.66 3.248c-0.08562 8.5e-4 -0.13901 0.00767-0.1582 0.01953-0.44824 0.277-1.4881 9.2968-1.0723 9.3008 1.933 0.0203 22.193 3.0274 31.35 4.6524 2.7654 0.49079 5.0919 0.84129 5.1699 0.77929 0.07796-0.0621 0.23839-0.85053 0.35743-1.752 0.11903-0.9015 0.45269-2.892 0.74023-4.4238 0.28756-1.5319 0.44556-2.863 0.35156-2.957-0.53959-0.53988-34.084-5.6456-36.738-5.6191zm-188.34 3.1406c-2.865-0.07259-35.744 6.8073-36.592 7.6992-0.10848 0.114 0.14592 1.4797 0.56641 3.0352 0.42051 1.5555 0.83652 3.1812 0.92382 3.6133 0.08733 0.4321 0.22354 1.1033 0.30274 1.4922 0.185 0.908 0.65082 0.8993 4.4492-0.09375 3.237-0.8464 4.1181-1.05 11.395-2.6348 5.827-1.2691 16.01-3.2026 19.248-3.6543 1.7202-0.2399 1.7596-0.37215 1.0391-3.4356-0.24389-1.0371-0.54207-2.7733-0.66407-3.8574-0.12195-1.0841-0.34064-2.0447-0.48632-2.1348-0.02788-0.01724-0.08922-0.02695-0.18164-0.02929zm-190.4 10.004-7.1328 6.3516 4.0488 3.9531c7.706 7.5238 15.889 12.866 25.104 16.387 1.7283 0.66042 3.3567 1.2059 3.6172 1.2109 0.32258 0.0066 0.70098-0.76729 1.1875-2.4258 0.39295-1.3395 0.97614-3.3287 1.2969-4.4219 0.53503-1.8235 0.54212-2.003 0.07031-2.1621-9.679-3.263-18.115-8.6055-25.508-16.154l-2.6836-2.7383zm135.33 2.7754c-0.1022 0.0016-3.2254 0.90341-6.9414 2.0039-3.716 1.1004-10.929 3.2281-16.027 4.7285-5.0986 1.5004-10.013 2.9516-10.92 3.2246-0.9074 0.27308-1.6504 0.6557-1.6504 0.85157 0 0.3702 0.86918 3.7256 1.7832 6.8848h0.00196c0.49649 1.7161 0.57659 1.815 1.3359 1.6328 1.055-0.2532 14.221-4.0846 17.463-5.082 1.3827-0.42534 3.15-0.96002 3.9277-1.1894 5.03-1.4836 6.2625-1.8528 7.3848-2.2031 0.6914-0.21584 2.4204-0.72091 3.8418-1.123 2.9217-0.8267 2.8053-0.54022 1.668-4.0742-0.30597-0.9506-0.80995-2.6132-1.1191-3.6934-0.30915-1.0802-0.64579-1.9609-0.74805-1.9609zm-54.131 15.352c-0.71268 0.00267-1.9372 0.23707-4.0449 0.66211-10.684 2.1544-19.151 3.1523-26.742 3.1523h-4.6699v2.7812c0 1.5302-0.09208 3.6524-0.20312 4.7148h0.00195l-0.20313 1.9316 4.3652-0.0039c9.649-0.0069 19.734-1.1974 31.393-3.707l2.5137-0.54102-0.10547-1.252c-0.05791-0.6888-0.37606-2.2755-0.70703-3.5254-0.331-1.2499-0.60442-2.5923-0.60742-2.9844-0.0058-0.85152-0.07393-1.232-0.99024-1.2285z" fill="#aeb1b3"/>
	<path d="m209.81 0.037109c-1.2199 0.068436-1.6323 0.24033-2.3301 0.57813-2.949 1.428-2.9769 1.4766-17.006 28.768-4.6199 8.988-9.8824 19.098-11.695 22.469-7.354 13.671-16.655 29.125-18.879 31.371-3.536 3.5709-11.625 5.705-21.92 5.7793-3.764 0.02718-4.6154-0.05831-5.6602-0.56836-2.0526-1.002-1.9113-1.8727 1.1641-7.1484 11.984-20.558 23.779-37.687 34.547-50.174 3.1859-3.6944 4.1956-5.7017 4.0078-7.9648-0.477-5.748-7.4528-12.045-17.967-16.217-7.116-2.824-13.524-2.9156-18.496-0.26562-2.5547 1.3616-4.0543 3.1659-5.1035 6.1387-1.947 5.518-8.8028 19.776-25.344 52.711-5.9876 11.921-11.108 21.814-11.377 21.984-0.3246 0.20481-1.6765 0.1759-4.0137-0.08398-1.9388-0.21557-5.3059-0.47354-7.4824-0.57422l-3.957-0.1836-0.78125 0.84375c-0.64991 0.7029-0.79771 1.223-0.88867 3.1035-0.2355 4.8684 1.5084 9.5368 4.7617 12.748 1.0649 1.0512 2.2047 2.1041 2.5332 2.3398 0.566 0.406 0.11168 1.3708-8.6914 18.467-13.023 25.292-23.174 45.779-23.166 46.754 0.035 4.199 9.4251 11.983 17.254 14.303 3.3223 0.9844 5.3395 0.48301 7.0273-1.7461 0.4365-0.576 4.7119-8.7543 9.5-18.174 14.356-28.242 21.332-41.012 27.506-50.352 1.249-1.8893 1.5069-2.1151 2.4258-2.1211 1.711-0.0109 13.067 1.2096 18.992 2.041 3.0606 0.42947 5.6317 0.78125 5.7129 0.78125 0.46549 0 1.1348 1.1151 1.1348 1.8906 0 0.5327-1.9072 4.748-4.6484 10.27-12.003 24.177-18.757 41.885-21.881 57.367-1.3814 6.8466-1.751 10.302-1.75 16.328 2e-3 7.641 1.0601 12.58 3.8574 17.998 1.8201 3.525 5.9866 7.6907 9.4961 9.4922 3.0766 1.5793 5.0739 2.2691 7.541 2.6055 7.923 1.0797 17.898-3.5297 21.064-9.7344 0.30868-0.6049 0.56371-1.6954 0.56445-2.4238 1e-3 -1.2194-0.18564-1.5186-2.3398-3.7734-2.5581-2.6776-3.6512-4.4102-4.7969-7.5898-1.6037-4.451-1.9179-6.8688-1.9199-14.809-3e-3 -11.196 1.328-20.131 4.9062-32.928 10.742-38.416 40.405-87.314 83.955-138.39 6.4535-7.5686 7.1183-8.6276 7.1309-11.352 0.023-4.9602-4.3205-7.958-14.041-9.6914-2.8767-0.513-5.5145-0.69709-11.775-0.82227-3.9248-0.078475-5.9519-0.11336-7.1719-0.044922zm19.332 51.344c-3.7477 0-5.1071 0.66195-8.6699 4.2188-5.1064 5.0978-7.4897 11.461-5.6445 15.078 1.0536 2.0652 4.5345 4.9485 8.0293 6.6523 1.7283 0.8426 3.9904 1.7355 5.0274 1.9844 3.1113 0.74675 4.8458 0.64308 6.459-0.38672 3.9743-2.537 8.3902-9.7295 8.709-14.186 0.14429-2.0168 0.0706-2.3569-0.98242-4.5742-1.5579-3.2804-4.308-6.0209-7.6387-7.6113-2.2788-1.0881-2.6706-1.1758-5.2891-1.1758zm-11.316 33.016c-3.5903 0.01554-5.0346 0.16892-7.8555 0.83398-4.4758 1.0553-6.8651 1.9709-8.1973 3.1406-1.269 1.1142-1.3261 1.7354-0.38477 4.1953 0.67657 1.768 0.67968 1.839 0.15235 3.8496-0.7057 2.691-2.1549 6.2791-5.4473 13.482-14.225 31.122-16.805 38.72-16.324 48.074 0.5056 9.831 2.6323 16.095 6.9219 20.395 2.8774 2.8843 4.8094 3.7138 8.666 3.7188 3.1585 5e-3 5.4158-0.85912 7.377-2.8203 1.2999-1.3 1.2381-1.1705-7.9414 16.355-7.812 14.915-7.6055 14.478-7.6055 16.121 0 4.1575 4.7879 9.2236 11.217 11.867l2e-3 2e-3c2.1206 0.87199 3.5269 0.95403 4.8203 0.28515 1.0826-0.5598 1.5974-1.5078 3.5781-6.5918 0.808-2.074 1.6748-4.2361 1.9258-4.8047 0.2509-0.5686 0.72805-1.8412 1.0606-2.8281 1.658-4.92 13.847-33.485 17.553-41.135l1.2461-2.5742 1.1895 1.7266c2.4837 3.6062 6.181 5.9519 9.918 6.2891 6.908 0.624 15.704-5.1854 24.578-16.232 11.202-13.945 21.381-35.567 22.82-48.48 0.6868-6.161-0.65115-9.746-4.377-11.73-0.9332-0.49706-1.7902-0.58372-5.6562-0.56836-3.8002 0.01512-5.1578 0.15962-8.1699 0.86523-1.9865 0.46533-3.6819 0.84407-3.7695 0.84375-0.0877-4e-4 -0.16934-0.96418-0.18164-2.1426-0.0181-1.7146-0.22131-2.5648-1.0117-4.2539-1.2502-2.6715-3.88-5.4585-6.4414-6.8242-1.6573-0.88367-2.2844-1.0435-4.1523-1.0586-3.1454-0.0256-4.9564 0.59175-6.7812 2.3105-1.404 1.3224-1.7453 1.9678-4.0879 7.7285-5.797 14.256-13.934 32.712-21.682 49.178-6.6731 14.182-16.593 33.921-16.412 32.658 0.1445-1.0083-6e-3 -1.3131-1.4844-2.9844-3.9444-4.4596-5.3105-7.6549-5.5606-13.018-0.17799-3.8172 0.39165-6.74 2.3066-11.857 2.751-7.352 6.5454-14.823 16.566-32.609 7.0406-12.497 10.06-18.417 11.111-21.787 0.75057-2.4067 0.78451-2.7543 0.42969-4.3398-0.4819-2.1534-1.6798-3.563-3.8652-4.5508-1.4953-0.67591-2.0687-0.7458-6.0508-0.72852zm42.537 30.52c1.8166 0.0156 2.6834 0.51027 3.2637 1.6719 2.101 4.206-2.5754 16.61-11.309 29.998-4.1633 6.3835-8.3816 11.377-11.064 13.1-0.8713 0.55925-1.8172 0.89653-2.5137 0.89453-1.2713-4e-3 -3.8077-1.1311-5.2031-2.3125l-0.94141-0.79883 2.5137-4.9531c3.95-7.783 9.5007-18.006 15.158-27.914 2.8618-5.0123 5.225-9.1452 5.252-9.1836 0.0271-0.0384 1.2358-0.20304 2.6856-0.36524 0.84172-0.0942 1.5527-0.14191 2.1582-0.13671z" fill="#8f9192"/>
	<path d="m372.92 206.06c-15.294 0.0717-33.412 0.66682-50.848 1.6699-40.961 2.3566-66.066 5.7554-68.873 9.3242-1.8904 2.403 0.41841 7.1505 6.1621 12.674 4.1198 3.962 7.925 6.5278 11.385 7.6758 1.4852 0.49281 2.6466 0.5436 9.8203 0.43359 4.4747-0.0686 8.1348-0.0388 8.1348 0.0664 0 0.1754-2.6895 6.2834-4.0762 9.2559-0.5633 1.2076-1.9203 4.1211-4.0977 8.7988-0.5632 1.2099-1.7819 3.8015-2.709 5.7598-0.92717 1.9583-1.6856 3.6036-1.6856 3.6562s-1.1329 2.4533-2.5156 5.334c-1.3827 2.8808-2.5137 5.294-2.5137 5.3633 0 0.0694-1.131 2.4722-2.5137 5.3398-1.3827 2.8676-2.5137 5.279-2.5137 5.3574 0 0.0785-0.84776 1.9211-1.8848 4.0957-1.037 2.1746-1.8867 3.9972-1.8867 4.0508 0 0.0535-1.0408 2.2693-2.3145 4.9238-1.2737 2.6545-2.7767 5.8175-3.3398 7.0273-0.5631 1.2099-1.6955 3.6134-2.5156 5.3418-0.8202 1.7284-1.9512 4.132-2.5137 5.3418-0.5626 1.2098-1.7303 3.6852-2.5938 5.5-1.7818 3.7453-3.5739 7.554-5.1758 10.998-0.6028 1.2963-1.5967 3.4186-2.209 4.7148-10.515 22.262-13.277 28.845-13.277 31.656 0 3.492 6.6456 10.65 13.049 14.055v-2e-3c0.9449 0.50242 2.0081 0.79687 2.8691 0.79687 1.1763 0 1.5316-0.17065 2.5449-1.2187 0.648-0.6702 1.6477-2.1193 2.2207-3.2207 0.573-1.1013 1.2799-2.4268 1.5723-2.9453 2.7715-4.915 4.2382-7.6045 6.4238-11.783 0.8588-1.6419 2.2035-4.1872 2.9883-5.6562 0.785-1.469 8.4574-16.67 17.049-33.781 14.853-29.581 17.342-34.486 20.094-39.596 0.6516-1.2098 1.8559-3.4718 2.6777-5.0273 0.82189-1.5556 1.7414-3.253 2.043-3.7715 0.3016-0.51849 1.0155-1.7911 1.5859-2.8281 0.5705-1.0371 1.4486-2.6278 1.9512-3.5352 4.5239-7.9345 9.3-15.634 14.25-23.305 3.6289-5.4193 3.8937-5.7869 6.5098-9.0547 1.7207-2.1494 1.9426-2.3135 3.9277-2.8965 3.917-1.1505 12.451-2.1546 25.357-2.9844 7.415-0.4767 14.048-0.77456 35.639-1.5996 23.372-0.8931 27.464-1.5726 24.146-4.0078-1.9597-1.4383-8.2564-4.875-9.3476-5.1016-2.766-0.57429-4.6555-2.4391-5.8359-5.7637-2.3502-6.6203-4.8956-9.1903-10.506-10.605-2.163-0.54556-3.5343-0.58884-16.654-0.52734zm177.83 4.5781c-11.136 0.23457-21.792 4.8905-29.572 13.066-7.6541 8.043-11.34 17.703-11.777 30.869-0.4949 14.908 3.3498 31.612 9.877 42.914 3.108 5.3816 4.489 8.0269 5.3867 10.322 0.4056 1.037 1.549 3.5822 2.541 5.6562 1.6435 3.4364 2.4003 5.143 4.1113 9.2695 1.2064 2.91 1.7984 7.358 2.0274 15.227 0.2787 9.5777 0.93399 11.996 3.7422 13.816v2e-3c1.501 0.97325 3.2375 1.0512 5.0508 0.22461 2.9053-1.3244 4.273-3.2301 5.0723-7.0684 0.5433-2.6092 0.98064-4.0612 2.7109-9 2.405-6.863 4.7188-10.608 15.635-25.297 0.6421-0.8642 1.4294-1.9952 1.748-2.5137 0.5383-0.8758 4.5893-5.9734 8.0664-10.148 1.567-1.8816 5.6483-7.8172 6.8516-9.9648 4.0062-7.15 6.6489-14.63 8.0488-22.783 0.81123-4.724 0.80229-14.677-0.0176-19.012-3.975-21.017-16.407-33.7-34.705-35.406-1.6035-0.1495-3.206-0.20733-4.7969-0.17382zm0.33007 25.111c4.2394 0.16002 7.8415 1.8212 11.184 5.1309 1.2356 1.2237 2.4453 2.5893 2.6875 3.0332 0.2423 0.4438 0.8614 1.5674 1.375 2.498 2.209 4.002 3.623 9.7511 3.623 14.732 0 2.9593-0.98264 8.8418-1.7852 10.686-0.26331 0.605-0.58784 1.3809-0.7207 1.7266-0.2321 0.6039-1.5844 3.3706-2.4824 5.0801-0.68199 1.298-4.8512 5.5094-6.752 6.8184-0.9529 0.6563-2.7542 1.5485-4.002 1.9824-8.684 3.02-17.398-1.3868-22.006-11.131-3.9021-8.252-3.784-19.035 0.30273-27.498 3.826-7.9238 9.854-12.623 16.719-13.035 0.63268-0.038 1.2518-0.0463 1.8574-0.0234zm-161.82 19.783c-0.34446 3e-3 -0.68651 0.0226-1.0234 0.0625-3.1829 0.3769-7.2944 3.3484-9.7188 7.0215-2.2133 3.3532-2.4031 3.7024-3.1484 5.8125-1.0048 2.8446-0.9711 5.4353 0.0918 7.0371 2.1967 3.3109 7.0032 6.5024 12.064 8.0098 2.3988 0.71437 5.5349 0.76871 6.791 0.11914 2.1734-1.124 4.5526-3.8434 6.7266-7.6895 2.4412-4.3191 2.9929-7.8911 1.6758-10.871-2.4169-5.4677-8.2921-9.5403-13.459-9.502zm-69.674 30.451c-0.73428-7e-3 -1.5979 0.0346-2.6406 0.11328-3.8187 0.2882-8.3503 1.5218-11.395 3.1016-3.0064 1.5602-6.7772 5.1115-8.248 7.7695-1.1579 2.0925-1.9863 5.2479-1.9863 7.5625 0 3.2504 1.3165 6.6048 3.6816 9.377 1.0451 1.2251 1.1949 0.29202-1.3223 8.1992-1.5036 4.723-1.6769 5.2069-4.1191 11.471-1.7055 4.3742-1.6516 4.2483-4.2578 10.213-2.7077 6.198-8.4746 17.58-10.055 19.846-0.31997 0.45874-0.58203 0.91101-0.58203 1.0039 0 0.2475-2.3242 3.9472-4.9473 7.8789-1.4506 2.1741-2.2257 3.6309-2.1172 3.9727 0.3541 1.1154 1.6688 2.1797 2.6914 2.1797 1.9659 0 3.7277-1.6325 7.2305-6.7012 10.249-14.831 17.653-30.205 23.533-48.863 1.1064-3.5105 1.4027-4.1524 1.8398-3.9746 2.008 0.81672 4.1906 1.4422 5.6133 1.6094 0.91619 0.10766 1.666 0.30483 1.666 0.4375 0 0.1326-1.187 2.6936-2.6367 5.6914-3.4564 7.1471-4.1294 8.6589-7.0859 15.898-2.0878 5.112-4.28 11.569-5.627 16.576-4.6406 17.251-2.5027 25.862 6.3926 25.738 7.046-0.098 18.631-8.9007 31.109-23.637l3.7715-4.4551 0.22657 5.4199c0.377 9.026 2.0047 14.612 5.5625 19.086 1.5257 1.9186 2.3707 2.6253 4.582 3.8379 1.7939 0.9838 2.0442 1.0352 5.1836 1.0352 2.9987 0 3.4431-0.079 4.8711-0.85742 1.865-1.0167 2.3026-1.3628 3.2285-2.5625 0.92957-1.2045 0.88491-1.0032-0.27539 1.2285-0.5366 1.0323-2.3218 4.494-3.9668 7.6914-2.8845 5.6068-5.5918 10.623-5.5918 10.623l-5.6328 10.615c-1.4302 3.4838-0.42851 6.7953 3.0508 10.086 2.0543 1.9429 4.5184 3.5601 7.0254 4.6113h2e-3c2.3026 0.96488 4.4593 1.0547 5.5098 0.22852 1.0516-0.828 1.3772-1.5366 5.1504-11.184 1.9702-5.0372 2.2961-5.8443 3.2813-8.1699 0.21959-0.5185 0.99385-2.4314 1.7226-4.252 0.7287-1.8206 1.7161-4.2262 2.1934-5.3438 0.4772-1.1176 1.4036-3.3039 2.0586-4.8594 2.2099-5.248 6.6966-15.373 8.5391-19.27 1.0066-2.1292 1.8301-4.0032 1.8301-4.1641 0-0.60675 0.65485-0.26079 0.94336 0.49805 0.5274 1.3873 4.4431 5.0066 6.4551 5.9668 2.4461 1.1673 6.0728 1.429 8.8125 0.63476 4.0945-1.1868 8.4266-3.9054 12.865-8.0723 2.3284-2.1859 7.5248-8.11 8.9726-10.23 0.5049-0.7394 1.3778-1.9941 1.9395-2.7871 0.56177-0.7929 1.1612-1.6756 1.334-1.9629 0.1728-0.2872 0.82142-1.2994 1.4394-2.25 1.6546-2.5449 2.2801-3.5401 2.6699-4.2422 0.19195-0.3457 0.67493-1.1954 1.0723-1.8867 2.2376-3.893 6.8497-13.398 7.5488-15.555 0.14-0.4321 0.70192-1.9879 1.248-3.457 2.4597-6.617 3.9111-13.362 3.7109-17.252-0.442-8.5982-5.9162-10.817-19.035-7.7168-1.7964 0.42446-3.2884 0.77149-3.3164 0.77149-0.0279-7e-4 -0.0658-1.0968-0.084-2.4356-0.028-2.0617-0.18308-2.732-1.0117-4.3711-1.3318-2.6347-3.9793-5.4218-6.2363-6.5645-1.6277-0.82396-2.1465-0.92587-4.6602-0.92187-3.1867 5e-3 -4.934 0.60825-6.6074 2.2812-1.1617 1.1616-1.6069 2.0577-3.8516 7.7695-0.27168 0.6914-0.75254 1.8515-1.0684 2.5781-0.3158 0.7267-1.0505 2.4939-1.6328 3.9277-2.104 5.181-12.306 28.385-14.936 33.971-0.8296 1.7623-1.9014 4.0528-2.3828 5.0898-4.68 10.081-17.98 37.238-18.236 37.238-0.0498 0-0.0165-0.54302 0.0723-1.2051 0.1511-1.1267 0.0283-1.3529-1.9121-3.5352-3.4271-3.8539-5.1985-8.4265-5.2168-13.467-0.024-6.674 4.7555-18.057 15.812-37.654 0.7547-1.3376 1.7271-3.068 2.1602-3.8457 1.1139-2.0003 1.8968-3.3644 3.0312-5.2774 0.54264-0.91497 0.98632-1.7286 0.98632-1.8086s0.89985-1.7345 1.998-3.6777c4.1635-7.3674 6.8008-13.511 6.8008-15.838 0-1.8852-1.2076-4.1856-2.7246-5.1875-2.5845-1.7069-5.6652-2.1044-10.787-1.3926-6.6903 0.92979-11.543 2.5489-13.068 4.3613-0.86333 1.026-0.86212 1.283 0.0312 3.6797 1.0047 2.696 0.0861 5.788-4.9258 16.584-0.66351 1.4292-1.207 2.6655-1.207 2.7461s-0.75556 1.7388-1.6797 3.6856c-0.9242 1.9468-2.6998 5.8728-3.9453 8.7246-1.2455 2.8518-2.5734 5.7841-2.9531 6.5176-1.011 1.952-10.524 13.074-16.734 19.564-1.2403 1.2962-3.9357 4.1104-5.9902 6.2539-6.069 6.332-8.7212 7.8701-10.057 5.832-1.153-1.76-0.0489-7.1657 2.5859-12.658 0.98-2.0429 1.7795-3.493 4.6777-8.4824 1.78-3.064 8.0998-11.776 13.453-18.545 5.4708-6.9178 6.6534-9.3654 5.873-12.152-0.7324-2.6154-2.8286-3.9996-10.213-6.7461-6.1187-2.2758-7.792-3.1004-7.5938-3.7383 0.0879-0.2829 0.59951-1.6446 1.1367-3.0274 1.3704-3.5273 2.0366-8.0959 1.5508-10.633-0.3133-1.6359-0.5805-2.143-1.7207-3.252-1.2143-1.1812-2.2522-1.6354-4.4551-1.6562zm167.51 2.6641c-2.1591 4e-3 -4.3857 0.25078-6.1953 0.73828-5.6438 1.5203-10.961 4.5991-15.246 8.8301-6.9654 6.877-10.152 14.48-9.6191 22.949 0.10326 1.6419 0.32359 5.3899 0.49024 8.3281 0.16661 2.9382 0.44387 6.6843 0.61719 8.3262 0.17327 1.642 0.45726 5.1784 0.63085 7.8574 0.17358 2.679 0.45235 6.3551 0.61915 8.1699 0.72349 7.8714 0.16379 11.954-2.0039 14.6-1.5089 1.8414-3 2.5146-5.5273 2.4961-3.2323-0.0236-5.0684-1.1001-9.4609-5.5469-2.0062-2.0309-3.7992-3.6934-3.9844-3.6934-1.106 0-2.1153 2.5374-1.8125 4.5566 0.669 4.463 8.9637 11.845 17.143 15.256 1.2963 0.5405 3.63 1.3245 5.1856 1.7422 3.64 0.97738 8.572 0.93008 10.875-0.10352 2.9034-1.303 4.695-3.4274 5.8867-6.9785 0.61853-1.843 0.67773-2.6755 0.67773-9.2695-4.1e-4 -4.164-0.26631-10.855-0.625-15.73-0.36899-5.016-0.62395-11.597-0.62695-16.098-3e-3 -7.3183 0.0254-7.6917 0.76562-9.6582 2.1125-5.6124 5.831-9.9102 8.5742-9.9102 2.4715 0 2.2025 2.3748-1.1484 10.143-0.87806 2.0355-1.5957 3.9853-1.5957 4.332s0.34441 1.2961 0.76563 2.1113c1.8632 3.606 6.8147 7.355 9.8066 7.4238 1.6095 0.037 2.3941-0.61065 2.916-2.4102 1.977-6.817 7.2852-16.619 13.059-24.113 2.1413-2.7795 2.8034-4.3167 2.7773-6.4434-0.0313-2.5602-0.65499-3.89-2.7754-5.9297-3.0134-2.8988-3.4961-3.382-5.9258-5.9199-2.553-2.6667-5.1611-4.3163-8.4492-5.3418-1.5419-0.4809-3.6339-0.71714-5.793-0.71289zm-67.303 30.822c2.9579-0.0323 3.1985 0.0129 3.7598 0.70312 0.32986 0.4057 0.76493 1.289 0.9668 1.9629 0.8584 2.865-2.0354 12.001-6.0859 19.209-0.65256 1.1613-1.1875 2.1886-1.1875 2.2832 0 0.2486-2.6341 4.5915-4.6719 7.7031-4.1097 6.2748-9.0301 11.927-11.43 13.125v-2e-3c-0.774 0.38655-1.6054 0.69936-1.8457 0.69336-1.0355-0.0243-3.7393-1.1966-4.9238-2.1348-1.2632-1.0005-1.277-1.0353-0.86133-2.0293 0.6416-1.534 5.9905-11.933 7.5703-14.717 0.76635-1.3505 1.3926-2.5154 1.3926-2.5898s1.131-2.1458 2.5137-4.6016c1.3827-2.4558 2.5137-4.5098 2.5137-4.5645 0-0.0548 0.72674-1.3472 1.6133-2.873 0.88649-1.526 1.9651-3.4117 2.3965-4.1895 1.8903-3.4079 4.2284-7.207 4.6543-7.5605 0.2902-0.24084 1.6439-0.39627 3.625-0.41797zm116.64 46.336c-2.1082-0.0684-4.1789 0.87433-6.1113 2.8047-2.9875 2.9841-4.563 6.8428-4.8848 11.969-0.2253 3.5892 0.37972 6.8066 1.8203 9.6894 1.0689 2.1392 3.7277 4.7667 5.3496 5.2852v-2e-3c3.0324 0.9693 5.9289 0.1329 8.5273-2.4629 7.3071-7.299 6.2486-22.789-1.8144-26.561-0.96432-0.45106-1.9285-0.69157-2.8867-0.72266z" fill="#8f9192"/>
</svg>
