<?xml version="1.0" encoding="UTF-8"?>
<svg width="388.66" height="450" version="1.1" xmlns="http://www.w3.org/2000/svg">
	<g>
		<path d="m35.75 329.98v-5.8641l2.5231-0.0207c0.0598 0 0.1895 0.01 0.359 0.01 5.0959 0 10.032-2.0526 14.31-4.6761 5.5247-3.3954 8.4865-9.3334 9.4339-15.613 0.2194-1.4518 0.36899-2.9343 0.3191-4.4068 0 0 9e-5 -4.9067-0.0099-4.9067v-264.94c-0.1197-3.2247-1.2067-13.98-9.9824-19.058-6.6018-4.206-12.436-4.5365-14.061-4.5365-0.16959 0-0.2892-9e-6 -0.35909 0.010006l-2.7225-0.050076v-5.834h128.11v5.844l-1.7454 0.040051c-0.0702 0-0.17923-0.010006-0.34945-0.010006-1.6257 0-7.4492 0.33048-14.1 4.5566-8.766 5.0773-9.7729 15.873-9.8828 19.058l-0.0504 4.5065-0.01 1.2619v2.794l0.11979 79.089h113.36l0.11979-79.079s0-4.0558-0.01-4.0558v-4.4665c-0.10989-3.2347-1.1564-14.02-9.9827-19.128-6.6017-4.206-12.425-4.5365-14.061-4.5365-0.16932 0-0.28911-9e-6 -0.34855 0.010006l-1.7453-0.040051 0.0099-5.9442h128.13l-0.01 5.9342-2.7524 0.050076c-0.0603 0-0.18013-0.010006-0.35936-0.010006-1.6257 0-7.4492 0.33048-14.1 4.5566-8.7362 5.0573-9.8134 15.813-9.9332 18.987v264.99h-0.0198v4.9472c-0.0198 0.53048-0.36926 14.12 9.9926 20.119 6.6017 4.206 12.425 4.5365 14.051 4.5365 0.17922 0 0.29902 0 0.35935-0.01l2.7623 0.0306v5.8641h-128.15l0.0495-5.9848h1.7256c0.0495 0 0.14951 0.01 0.29901 0.01 1.6257 0 7.4096-0.19994 14.121-4.4663 8.1274-4.6969 9.6234-14.29 9.8927-18.196v-0.091l0.0396-112.55h-113.91l-0.22966 110.84 0.10988 3.1243c0.25938 3.9061 2.2336 12.849 10.411 17.576 6.6017 4.206 12.126 3.8349 13.752 3.8349 0.17923 0 0.29902 0 0.35846-0.01l1.5464 0.0198v5.8641h-127.38zm60.539-30.139h5.8668v-144.12h184.06v144.19h5.8767v-274.8h-5.8767v124.99h-184.06v-124.98h-5.8668z" fill="url(#paint0_linear_29_544)" fill-opacity=".3"/>
		<path d="m35.75 329.98v-5.8641l2.5231-0.0207c0.0598 0 0.1895 0.01 0.359 0.01 5.0959 0 10.032-2.0526 14.31-4.6761 5.5247-3.3954 8.4865-9.3334 9.4339-15.613 0.2194-1.4518 0.36899-2.9343 0.3191-4.4068 0 0 9e-5 -4.9067-0.0099-4.9067v-264.94c-0.1197-3.2247-1.2067-13.98-9.9824-19.058-6.6018-4.206-12.436-4.5365-14.061-4.5365-0.16959 0-0.2892-9e-6 -0.35909 0.010006l-2.7225-0.050076v-5.834h128.11v5.844l-1.7454 0.040051c-0.0702 0-0.17923-0.010006-0.34945-0.010006-1.6257 0-7.4492 0.33048-14.1 4.5566-8.766 5.0773-9.7729 15.873-9.8828 19.058l-0.0504 4.5065-0.01 1.2619v2.794l0.11979 79.089h113.36l0.11979-79.079s0-4.0558-0.01-4.0558v-4.4665c-0.10989-3.2347-1.1564-14.02-9.9827-19.128-6.6017-4.206-12.425-4.5365-14.061-4.5365-0.16932 0-0.28911-9e-6 -0.34855 0.010006l-1.7453-0.040051 0.0099-5.9442h128.13l-0.01 5.9342-2.7524 0.050076c-0.0603 0-0.18013-0.010006-0.35936-0.010006-1.6257 0-7.4492 0.33048-14.1 4.5566-8.7362 5.0573-9.8134 15.813-9.9332 18.987v264.99h-0.0198v4.9472c-0.0198 0.53048-0.36926 14.12 9.9926 20.119 6.6017 4.206 12.425 4.5365 14.051 4.5365 0.17922 0 0.29902 0 0.35935-0.01l2.7623 0.0306v5.8641h-128.15l0.0495-5.9848h1.7256c0.0495 0 0.14951 0.01 0.29901 0.01 1.6257 0 7.4096-0.19994 14.121-4.4663 8.1274-4.6969 9.6234-14.29 9.8927-18.196v-0.091l0.0396-112.55h-113.91l-0.22966 110.84 0.10988 3.1243c0.25938 3.9061 2.2336 12.849 10.411 17.576 6.6017 4.206 12.126 3.8349 13.752 3.8349 0.17923 0 0.29902 0 0.35846-0.01l1.5464 0.0198v5.8641h-127.38zm60.539-30.139h5.8668v-144.12h184.06v144.19h5.8767v-274.8h-5.8767v124.99h-184.06v-124.98h-5.8668z" fill="url(#paint1_linear_29_544)" fill-opacity=".6"/>
		<path d="m388.66 352.08h-388.66v7.0304h388.66z" fill="#ee2d2b"/>
		<path d="m37.237 328.51v-2.9145l2.523-0.0198c0.0598 0 0.1895 0.01 0.359 0.01 1.6255 0 7.4594-0.33054 14.101-4.5564 10.321-5.9686 9.9625-19.558 9.9525-20.139v-4.9067h-0.01v-267.89c-0.1196-3.2247-1.2067-13.98-9.9824-19.057-6.6017-4.2061-12.436-4.5366-14.061-4.5366-0.1695 0-0.2892-9e-6 -0.359 0.010006l-2.7225-0.050076v-2.8841h125.17v2.8942l-1.7454 0.040051c-0.0694 0-0.17923-0.010006-0.34855-0.010006-1.6257 0-7.4492 0.33048-14.101 4.5566-8.765 5.0773-9.7828 15.863-9.8927 19.058l-0.0396 4.5065-0.01 1.2619v2.794l0.11978 82.038h116.3l0.11978-82.028v-4.0558h-0.01v-4.4665c-0.10988-3.2347-1.1573-14.02-9.9827-19.128-6.6017-4.2061-12.425-4.5366-14.061-4.5366-0.16932 0-0.2891-9e-6 -0.34945 0.010006l-1.7445-0.040051-0.0108-2.9743h125.19l0.01 2.9643-2.7524 0.050076c-0.0594 0-0.17922-0.010006-0.35846-0.010006-1.6257 0-7.4492 0.33048-14.101 4.5566-8.7353 5.0573-9.8125 15.813-9.9323 18.987v267.94h-0.0198v4.9472c-0.0198 0.53048-0.36926 14.12 9.9917 20.119 6.6017 4.206 12.426 4.5365 14.052 4.5365 0.17923 0 0.29902 0 0.35846-0.01l2.7623 0.0297v2.9145h-125.21v-2.9037h1.7256c0.0495 0 0.1495 0.01 0.29901 0.01 1.6257 0 7.4591-0.33054 14.161-4.5969 8.1274-4.6968 9.6234-14.29 9.8927-18.197v-0.0901l0.0396-115.5h-116.83l0.0396 115.54v0.0396c0.25939 3.9061 1.7554 13.5 9.9323 18.226 6.6017 4.206 12.425 4.5365 14.051 4.5365 0.18013 0 0.29902 0 0.35936-0.01l1.7355 0.0198v2.9145zm57.601-27.189h8.8056v-144.12h181.12v144.19h8.8155v-277.75h-8.8155v124.99h-181.12v-124.98h-8.8056z" fill="url(#paint2_linear_29_544)"/>
		<path d="m37.237 328.51v-2.9145l2.523-0.0198c0.0598 0 0.1895 0.01 0.359 0.01 1.6255 0 7.4594-0.33054 14.101-4.5564 10.321-5.9686 9.9625-19.558 9.9525-20.139v-4.9076h-0.01v-267.89c-0.1196-3.2247-1.2066-13.98-9.9824-19.058-6.6017-4.2061-12.436-4.5365-14.061-4.5365-0.1695 0-0.2892-9e-6 -0.359 0.010006l-2.7225-0.050076v-2.8841h125.17v2.8942l-1.7454 0.040052c-0.0694 0-0.17923-0.010006-0.34855-0.010006-1.6257 0-7.4492 0.33048-14.101 4.5566-8.765 5.0773-9.7729 15.873-9.8828 19.057l-0.0495 4.5065-0.01 1.2618v2.7941l0.11978 82.038h116.3l0.11978-82.028v-4.0559h-0.01v-4.4665c-0.10988-3.2347-1.1573-14.02-9.9827-19.128-6.6017-4.2061-12.425-4.5365-14.061-4.5365-0.16932 0-0.2891-9e-6 -0.34945 0.010006l-1.7445-0.040052 0.01-2.9943h125.19l-0.01 2.9843-2.7524 0.050076c-0.0594 0-0.17922-0.010006-0.35846-0.010006-1.6257 0-7.4492 0.33048-14.101 4.5566-8.7353 5.0573-9.8125 15.813-9.9323 18.987v267.94h-0.0198v4.9472c-0.0198 0.53138-0.36926 14.12 9.9917 20.119 6.6026 4.206 12.426 4.5365 14.052 4.5365 0.17923 0 0.29902 0 0.35846-0.01l2.7623 0.0297v2.9145h-125.21l0.0504-3.0343h1.7247c0.0504 0 0.14951 0.01 0.29992 0.01 1.6248 0 7.4087-0.20084 14.12-4.4663 8.1274-4.6968 9.6234-14.29 9.8927-18.197v-0.0901l0.0405-115.5h-116.84l0.0396 115.54v0.0405c0.25939 3.9052 1.7554 13.5 9.9323 18.226 6.6017 4.206 12.425 4.5365 14.051 4.5365 0.18013 0 0.29902 0 0.35936-0.01l1.7355 0.0198v2.9145zm57.601-27.189h8.8056v-144.12h181.12v144.19h8.8155v-277.75h-8.8155v124.99h-181.12v-124.98h-8.8056z" fill="url(#paint3_linear_29_544)"/>
		<path d="m37.236 328.51v-2.9145l2.5231-0.0198c0.0598 0 0.1894 0.01 0.359 0.01 5.0959 0 10.032-2.0535 14.31-4.677 5.5247-3.3945 8.4865-9.3334 9.4339-15.613 0.2194-1.4518 0.36899-2.9343 0.3191-4.4059 0 0 0-4.9076-0.0099-4.9076v-267.89c-0.1197-3.2247-1.2067-13.98-9.9824-19.058-6.6018-4.2061-12.436-4.5365-14.061-4.5365-0.1695 0-0.2892-9e-6 -0.359 0.010006l-2.7225-0.050076v-2.8841h125.17v2.8942l-1.7454 0.040052c-0.0693 0-0.17922-0.010006-0.34854-0.010006-1.6257 0-7.4501 0.33048-14.101 4.5566-8.766 5.0773-9.7729 15.873-9.8828 19.057l-0.0495 4.5065-0.01 1.2618v2.7941l0.11979 82.038h116.3l0.11978-82.028s0-4.0559-0.01-4.0559v-4.4665c-0.10987-3.2347-1.1573-14.02-9.9827-19.128-6.6017-4.2061-12.426-4.5365-14.061-4.5365-0.17022 0-0.29001-9e-6 -0.34945 0.010006l-1.7454-0.040052 0.01-2.9943h125.19l-0.01 2.9843-2.7524 0.050076c-0.0594 0-0.17922-0.010006-0.35845-0.010006-1.6256 0-7.4501 0.33048-14.101 4.5566-8.7362 5.0573-9.8125 15.813-9.9323 18.987v267.94h-0.0198v4.9472c-0.0207 0.53138-0.36927 14.12 9.9917 20.119 6.6017 4.206 12.426 4.5365 14.051 4.5365 0.18014 0 0.29991 0 0.35936-0.01l2.7623 0.0297v2.9145h-125.21l0.0504-3.0343h1.7247c0.0495 0 0.1495 0.01 0.29901 0.01 1.6257 0 7.4096-0.20084 14.121-4.4663 8.1274-4.6968 9.6234-14.29 9.8926-18.197v-0.0901l0.0396-115.5h-116.85l-0.22876 113.79 0.10898 3.1243c0.25938 3.9052 2.2345 12.849 10.411 17.575 6.6017 4.206 12.126 3.8358 13.752 3.8358 0.17922 0 0.29901 0 0.35935-0.01l1.5455 0.0198v2.9145h-124.45zm57.601-27.189h8.8056v-144.12h181.12v144.19h8.8164v-277.75h-8.8164v124.99h-181.12v-124.98h-8.8056z" fill="url(#paint4_linear_29_544)"/>
		<path d="m37.237 328.51v-2.9145l2.523-0.0198c0.05989 0 0.1895 0.01 0.35909 0.01 5.0958 0 10.032-2.0535 14.31-4.677 5.5246-3.3945 8.4865-9.3334 9.4339-15.613 0.2194-1.4518 0.36899-2.9343 0.3191-4.4059 0 0 0-4.9076-0.01-4.9076v-267.89c-0.1196-3.2247-1.2066-13.98-9.9824-19.058-6.6017-4.2061-12.436-4.5365-14.061-4.5365-0.1695 0-0.2892-9e-6 -0.359 0.010006l-2.7225-0.050076v-2.8841h125.17v2.8942l-1.7454 0.040052c-0.0693 0-0.17923-0.010006-0.34855-0.010006-1.6257 0-7.4501 0.33048-14.101 4.5566-8.766 5.0773-9.7729 15.873-9.8828 19.057l-0.0495 4.5065-0.01 1.2618v2.7941l0.11979 82.038h116.3l0.11889-82.028s0-4.0559-0.01-4.0559v-4.4665c-0.10898-3.2347-1.1564-14.02-9.9818-19.128-6.6017-4.2061-12.426-4.5365-14.062-4.5365-0.16932 0-0.28911-9e-6 -0.34855 0.010006l-1.7454-0.040052 0.01-2.9943h125.19l-0.01 2.9843-2.7524 0.050076c-0.0594 0-0.17922-0.010006-0.35935-0.010006-1.6248 0-7.4492 0.33048-14.1 4.5566-8.7362 5.0573-9.8134 15.813-9.9323 18.987v267.94h-0.0207v4.9472c-0.0198 0.53138-0.36836 14.12 9.9926 20.119 6.6017 4.206 12.425 4.5365 14.051 4.5365 0.18013 0 0.29991 0 0.35936-0.01l2.7623 0.0297v2.9145h-125.21l0.0495-3.0343h1.7256c0.0495 0 0.14951 0.01 0.29901 0.01 1.6257 0 7.4096-0.20084 14.121-4.4663 8.1274-4.6968 9.6234-14.29 9.8926-18.197v-0.0901l0.0396-115.5h-116.85l-0.22967 113.79 0.10988 3.1243c0.25938 3.9052 2.2345 12.849 10.411 17.575 6.6017 4.206 12.126 3.8358 13.752 3.8358 0.17923 0 0.29901 0 0.35935-0.01l1.5455 0.0198v2.9145h-124.45zm57.601-27.189h8.8056v-144.12h181.12v144.19h8.8155v-277.75h-8.8155v124.99h-181.12v-124.98h-8.8056z" fill="url(#paint5_linear_29_544)"/>
		<path d="m117.52 381.11c-12.476 0-21.629 7.8824-21.629 19.93 0 9.5837 6.1438 15.461 15.777 18.975l7.9369 2.8444c4.7275 1.713 6.9008 3.8865 6.9008 7.1207 0 4.2663-3.8686 6.6405-8.5051 6.6405-5.7641 0-10.482-3.7953-12.755-9.4937l-12.187 6.549c4.1592 10.535 13.793 16.322 24.752 16.322 12.277 0 23.334-7.6791 23.334-20.968 0-8.9128-5.1049-14.983-15.686-18.968l-8.5966-3.3246c-4.0583-1.5122-6.4223-3.4156-6.4223-6.5508 0-3.5143 3.0231-5.8876 7.3705-5.8876 4.9166 0 8.4067 3.5157 10.391 7.9721l11.807-6.8304c-4.0592-8.9227-12.655-14.331-22.488-14.331zm116.24 0.0105c-19.177 0-34.574 15.281-34.574 34.439 0 19.168 15.397 34.439 34.574 34.439 19.176 0 34.574-15.271 34.574-34.439 0-19.167-15.398-34.439-34.574-34.439zm-232.19 1.2314v66.417h14.261v-27.04h26.456v27.04h14.261v-66.417h-14.261v25.718h-26.456v-25.718zm67.494 0v66.417h14.27v-66.417zm77.724 0v13.279h17.471v53.138h14.271v-53.138h17.383v-13.279zm130.94 0v66.417h14.081v-24.296h3.7802l16.254 24.296h16.725l-18.231-25.999c7.9184-3.0343 13.592-9.6731 13.592-19.167 0-13.569-9.9211-21.251-24.182-21.251zm48.756 0 23.624 37.574v28.843h14.27v-28.843l23.615-37.574h-15.976l-14.641 24.294-14.639-24.294zm-92.724 12.618c11.239 0 20.025 9.1139 20.025 20.59 0.01 11.477-8.7861 20.59-20.025 20.59-11.239 0-20.025-9.113-20.025-20.59 0-11.476 8.7861-20.59 20.025-20.59zm58.049 0.19174h8.0284c5.6641 0 9.8226 3.1345 9.8226 8.732 0 5.4984-4.1585 8.8235-9.8226 8.8235h-8.0284z" fill="#f9f9f9"/>
	</g>
	<defs>
		<linearGradient id="paint0_linear_29_544" x1="74.14" x2="363.13" y1="279.98" y2="97.38" gradientTransform="matrix(.90064 0 0 .90064 -.20845 -.31949)" gradientUnits="userSpaceOnUse">
			<stop stop-color="#DD972C" offset="0"/>
			<stop stop-color="#F8CB45" offset=".26462"/>
			<stop stop-color="#F2AC2F" offset=".65468"/>
			<stop stop-color="#FDDB50" offset="1"/>
		</linearGradient>
		<linearGradient id="paint1_linear_29_544" x1="71.693" x2="362.74" y1="171" y2="270.64" gradientTransform="matrix(.90064 0 0 .90064 -.20845 -.31949)" gradientUnits="userSpaceOnUse">
			<stop stop-color="#DD972C" offset="0"/>
			<stop stop-color="#B55727" offset=".26462"/>
			<stop stop-color="#F2AC2F" offset=".48525"/>
			<stop stop-color="#E5B544" offset=".82586"/>
			<stop stop-color="#FDDB50" offset="1"/>
		</linearGradient>
		<linearGradient id="paint2_linear_29_544" x1="41.359" x2="390.69" y1="183.55" y2="183.55" gradientTransform="matrix(.90064 0 0 .90064 -.20845 -.31949)" gradientUnits="userSpaceOnUse">
			<stop stop-color="#EE9322" offset=".2066"/>
			<stop stop-color="#F2AC2F" offset=".4014"/>
			<stop stop-color="#F8CB45" offset=".6663"/>
			<stop stop-color="#FCDE54" offset=".8749"/>
			<stop stop-color="#FEE55A" offset="1"/>
		</linearGradient>
		<linearGradient id="paint3_linear_29_544" x1="306.74" x2="214.57" y1="334.3" y2="182.23" gradientTransform="matrix(.90064 0 0 .90064 -.20845 -.31949)" gradientUnits="userSpaceOnUse">
			<stop stop-color="#B55727" offset=".4326"/>
			<stop stop-color="#BD6829" stop-opacity=".9612" offset=".4596"/>
			<stop stop-color="#CB8331" stop-opacity=".8833" offset=".514"/>
			<stop stop-color="#D89D3A" stop-opacity=".7999" offset=".5722"/>
			<stop stop-color="#E4B442" stop-opacity=".7114" offset=".6339"/>
			<stop stop-color="#EEC749" stop-opacity=".6161" offset=".7005"/>
			<stop stop-color="#F6D54E" stop-opacity=".5105" offset=".7741"/>
			<stop stop-color="#FCDE52" stop-opacity=".3867" offset=".8605"/>
			<stop stop-color="#FEE153" stop-opacity=".2" offset=".9908"/>
		</linearGradient>
		<linearGradient id="paint4_linear_29_544" x1="216.03" x2="216.03" y1="313.5" y2="182.12" gradientTransform="matrix(.90064 0 0 .90064 -.20845 -.31949)" gradientUnits="userSpaceOnUse">
			<stop stop-color="#B55727" stop-opacity=".7" offset="0"/>
			<stop stop-color="#BF6C2A" stop-opacity=".6419" offset=".144"/>
			<stop stop-color="#DCA43C" stop-opacity=".4766" offset=".5534"/>
			<stop stop-color="#F2CE4C" stop-opacity=".3585" offset=".8458"/>
			<stop stop-color="#FEE153" stop-opacity=".3" offset=".9908"/>
		</linearGradient>
		<linearGradient id="paint5_linear_29_544" x1="65.167" x2="151.51" y1="357.52" y2="9.5119" gradientTransform="matrix(.90064 0 0 .90064 -.20845 -.31949)" gradientUnits="userSpaceOnUse">
			<stop stop-color="#B55727" stop-opacity=".7" offset="0"/>
			<stop stop-color="#BF6C2A" stop-opacity=".6419" offset=".41809"/>
			<stop stop-color="#F2CE4C" stop-opacity=".3585" offset=".8458"/>
			<stop stop-color="#FEE153" stop-opacity=".3" offset=".9908"/>
		</linearGradient>
	</defs>
</svg>
