<?xml version="1.0" encoding="UTF-8"?>
<svg width="751.39" height="450" version="1.1" xmlns="http://www.w3.org/2000/svg">
	<path d="m738.82 168.39a44.784 44.784 0 0 0-32.157-13.32h-15.771v-41.343h-20.485s-17.827-0.36692-28.662-0.55383a54.809 54.809 0 0 0 13.154-34.359 58.152 58.152 0 0 0-16.996-41.156 54.912 54.912 0 0 0-39.322-16.442 51.825 51.825 0 0 0-30.046 10.751c0.18699-0.64383 0.64399-2.2015 0.64399-2.2015v-4.7768a25.414 25.414 0 0 0-25.317-24.985h-5.4209a21.801 21.801 0 0 0-12.676 5.3306 25.041 25.041 0 0 0-13.687-5.2337h-5.5379a21.981 21.981 0 0 0-22.154 22.154c-2.575-0.27692-5.1439-0.64383-5.1439-0.64383a49.381 49.381 0 0 0-32.434 13.417c-1.101-1.6546-2.298-3.3092-2.298-3.3092a24.826 24.826 0 0 0-17.696-7.4837h-4.043s-5.8769 1.6546-9.1869 2.6654a50.115 50.115 0 0 0-19.751-4.9637 48.834 48.834 0 0 0-27.747 9.0967c-2.576-4.9637-6.5219-12.406-6.5219-12.406a57.564 57.564 0 0 0-33.805-16.892l-13.784-0.92075h-17.176a21.925 21.925 0 0 0-22.153 22.154v3.3992h-12.76v-0.27692a25.179 25.179 0 0 0-7.4419-17.55 25.518 25.518 0 0 0-17.827-7.5321h-5.5379a21.87 21.87 0 0 0-13.507 6.1545 25.103 25.103 0 0 0-14.607-6.0645h-5.5389a21.711 21.711 0 0 0-13.154 5.7875 24.424 24.424 0 0 0-14.24-5.6975h-5.9749a21.461 21.461 0 0 0-21.316 20.118 24.985 24.985 0 0 0-5.2339-12.461 25.304 25.304 0 0 0-17.729-7.5321h-5.9959a21.925 21.925 0 0 0-22.153 22.154v90.448c-6.3419 0.18691-30.96 0.73383-30.96 0.73383v40.976h-13.846a44.396 44.396 0 0 0-44.833 43.545s0.82399 207.82 0.82399 207.91a43.109 43.109 0 0 0 12.219 30.683 42.029 42.029 0 0 0 30.212 12.24l661.83-0.64383a44.417 44.417 0 0 0 44.833-43.614l1.467-206.9a43.06 43.06 0 0 0-12.586-30.413" fill="#fff"/>
	<path d="m731.82 198.79a25.401 25.401 0 0 0-7.3529-17.82 26.224 26.224 0 0 0-18.927-7.8091h-18v205.98l-113.92 0.18692v-82.383h-21.316v82.383l-113.92 0.18691v-166.74c-1.101 0-7.6159-0.18692-11.119-0.18692v83.878s-43.821 0.09-59.537 0.09v83.075l-117.69 0.18692v-167.05c-1.101 0-11.118 0.09-11.118 0.09v83.878s-43.822 0.09-59.537 0.09v83.075l-117.69 0.18693v-206.92h-15.604a27.734 27.734 0 0 0-27.651 27l0.187 204.51a25.013 25.013 0 0 0 7.3519 17.82 26.148 26.148 0 0 0 18.928 7.7191h659.27a27.692 27.692 0 0 0 27.651-27zm-158.2-25.615h-21.316v21.683h21.316z" fill="#9c0"/>
	<path d="m169.83 18.365h-6.0639a6.3691 6.3691 0 0 0-6.4319 6.3414v27.927a4.7837 4.7837 0 0 1-4.7769 4.6868l-21.959 0.09a4.5137 4.5137 0 0 1-3.31-1.3846 4.3199 4.3199 0 0 1-1.287-3.0323v-27.921a6.3206 6.3206 0 0 0-1.932-4.5968 6.5837 6.5837 0 0 0-4.7769-1.9315h-6.0639a6.3691 6.3691 0 0 0-6.4319 6.3414v84.335a6.4937 6.4937 0 0 0 1.932 4.4999 6.5837 6.5837 0 0 0 4.7769 1.9315h6.0639a6.3691 6.3691 0 0 0 6.4319-6.3414v-28.938a4.846 4.846 0 0 1 4.7769-4.6868l21.862-0.09a4.846 4.846 0 0 1 3.31 1.2877 4.3752 4.3752 0 0 1 1.287 3.1223v29.035a6.6183 6.6183 0 0 0 1.835 4.5968 6.7429 6.7429 0 0 0 4.7769 1.9315h6.0639a6.3691 6.3691 0 0 0 6.4319-6.3414v-84.342a6.5906 6.5906 0 0 0-6.5219-6.5214m32.802-0.09h-5.5389a6.3691 6.3691 0 0 0-6.4309 6.3414v4.6868a6.7083 6.7083 0 0 0 1.931 4.5968 6.5837 6.5837 0 0 0 4.7769 1.9315h5.5389a6.3691 6.3691 0 0 0 6.4309-6.3414v-4.7976a6.3206 6.3206 0 0 0-1.931-4.5968 6.9229 6.9229 0 0 0-4.7499-1.8208zm0 23.884h-5.5389a6.3691 6.3691 0 0 0-6.4309 6.3414v60.451a6.4937 6.4937 0 0 0 1.931 4.4999 6.2306 6.2306 0 0 0 4.7769 1.9315h5.5389a6.3691 6.3691 0 0 0 6.4309-6.3414v-60.361a6.3206 6.3206 0 0 0-1.931-4.5968 6.5837 6.5837 0 0 0-4.7499-1.9246zm44.188-0.18692a4.0914 4.0914 0 0 1-2.665-1.1008 4.6522 4.6522 0 0 1-1.288-3.3092v-12.87a6.1198 6.1198 0 0 0-1.931-4.4999 6.2306 6.2306 0 0 0-4.7769-1.9315h-5.5389a6.3691 6.3691 0 0 0-6.4309 6.3414v12.863c0 2.4784-1.468 4.6868-3.212 4.6868a5.7737 5.7737 0 0 0-4.9639 6.3414v4.7768a7.2206 7.2206 0 0 0 2.021 5.1437 4.4583 4.4583 0 0 0 3.213 1.3846 2.8038 2.8038 0 0 1 1.744 0.73383 5.3029 5.3029 0 0 1 1.385 3.676v44.742a6.4314 6.4314 0 0 0 6.6109 6.5214h5.5389a6.3691 6.3691 0 0 0 6.4309-6.3414v-44.832a4.5691 4.5691 0 0 1 4.2229-4.6868 6.1475 6.1475 0 0 0 5.8779-6.3414v-4.7768a6.8122 6.8122 0 0 0-1.932-4.7768 6.6322 6.6322 0 0 0-4.2779-1.7169zm100.79 26.307a36.429 36.429 0 0 0 6.1539-19.841 30.821 30.821 0 0 0-7.0749-19.751 40.741 40.741 0 0 0-21.863-9.9206 93.46 93.46 0 0 0-11.298-0.82383l-17.183 0.09a6.3691 6.3691 0 0 0-6.4319 6.3414v84.301a6.3206 6.3206 0 0 0 1.932 4.5968 6.5837 6.5837 0 0 0 4.7769 1.9315h6.0639a6.3691 6.3691 0 0 0 6.4319-6.3414v-25.546a2.7692 2.7692 0 0 1 0.367-1.7446 4.3614 4.3614 0 0 1 1.1 1.1977l18.561 27.194a12.752 12.752 0 0 0 9.5539 5.0537h9.4629a3.9529 3.9529 0 0 0 3.857-1.9315 2.5407 2.5407 0 0 0 0.27599-1.1977 4.846 4.846 0 0 0-1.1-2.8454s-17.363-24.231-21.129-29.492a29.492 29.492 0 0 0 17.57-11.298zm-23.615-6.5214a40.963 40.963 0 0 1-10.474 1.7446 4.3891 4.3891 0 0 1-4.4099-4.4099v-18a4.7699 4.7699 0 0 1 4.7769-4.5968h5.4199a16.158 16.158 0 0 1 12.032 4.2229 12.254 12.254 0 0 1 3.462 8.9998c-0.11799 8.2383-10.682 11.915-10.772 12.011zm104.5-20.451h-4.043a6.3691 6.3691 0 0 0-6.4309 6.3414v1.3846a31.583 31.583 0 0 0-22.507-10.018 36.554 36.554 0 0 0-35.647 38.678 41.537 41.537 0 0 0 11.396 29.859 32.462 32.462 0 0 0 23.538 9.6437 43.704 43.704 0 0 0 20.305-8.176 3.1015 3.1015 0 0 1 2.665-0.82383c0.367 0.18692 0.367 0.82383 0.367 1.0108a4.7491 4.7491 0 0 0 1.468 3.3992 7.2829 7.2829 0 0 0 5.2339 2.0215h4.0429a6.3691 6.3691 0 0 0 6.4309-6.3414v-60.34a6.7083 6.7083 0 0 0-1.931-4.5968 7.0475 7.0475 0 0 0-4.8879-2.0423zm-30.593 58.339a18.824 18.824 0 0 1-13.416-5.5383 21.745 21.745 0 0 1-6.0649-15.341 20.638 20.638 0 0 1 19.751-22.154 18.436 18.436 0 0 1 13.417 5.4206 21.718 21.718 0 0 1 5.9749 15.618 20.291 20.291 0 0 1-19.669 22.015zm115.85-82.383h-5.5379a6.3691 6.3691 0 0 0-6.4319 6.3414v22.964a33.452 33.452 0 0 0-20.852-7.8091 37.833 37.833 0 0 0-35.833 39.232 40.886 40.886 0 0 0 11.769 28.758 33.189 33.189 0 0 0 23.614 10.198 40.097 40.097 0 0 0 19.842-8.086c1.384-1.1008 2.298-1.0108 2.575-0.92075 0.277 0.09 0.277 0.45691 0.277 1.0108a4.9776 4.9776 0 0 0 1.468 3.3992 7.2137 7.2137 0 0 0 5.1429 2.0215h4.1539a6.3691 6.3691 0 0 0 6.4319-6.3414v-84.245a6.5906 6.5906 0 0 0-6.6119-6.5214zm-30.503 82.134a18.512 18.512 0 0 1-13.153-5.5383 22.846 22.846 0 0 1-6.4319-16.172 21.018 21.018 0 0 1 19.572-21.226 18.284 18.284 0 0 1 13.229 5.6075 22.237 22.237 0 0 1 6.3419 15.708 20.672 20.672 0 0 1-19.558 21.621zm62.307-82.321h-5.5389a6.3691 6.3691 0 0 0-6.4309 6.3414v4.6868a6.3206 6.3206 0 0 0 1.931 4.5968 6.5837 6.5837 0 0 0 4.7769 1.9315h5.5379a6.3691 6.3691 0 0 0 6.4319-6.3414v-4.7768a6.4729 6.4729 0 0 0-1.932-4.5968 7.1652 7.1652 0 0 0-4.7969-1.8415zm0 23.884h-5.5389a6.3691 6.3691 0 0 0-6.4309 6.3414v60.465a6.1198 6.1198 0 0 0 1.931 4.4999 6.6737 6.6737 0 0 0 4.7769 2.0215h5.5379a6.3691 6.3691 0 0 0 6.4319-6.3414v-60.368a6.3206 6.3206 0 0 0-1.932-4.5968 6.5214 6.5214 0 0 0-4.7969-2.0215zm80.998 8.3629a37.134 37.134 0 0 0-26.37-11.021 38.768 38.768 0 0 0-38.124 39.135 39.266 39.266 0 0 0 11.575 27.927 36.692 36.692 0 0 0 26.55 11.118 38.678 38.678 0 0 0 37.854-39.135 39.779 39.779 0 0 0-11.471-28.024zm-26.46 49.699a18.54 18.54 0 0 1-13.23-5.4206 22.278 22.278 0 0 1-6.1539-15.923 21.081 21.081 0 0 1 19.661-21.683 18.235 18.235 0 0 1 12.676 5.4206 22.846 22.846 0 0 1 6.4319 16.172 20.423 20.423 0 0 1-19.371 21.434z" fill="#c03"/>
	<path d="m77.831 364.34 86.357-0.09v-80.756l59.537-0.09v-56.408l-59.537 0.09v-27.381l68.26-0.09v-66.058l-154.72 0.27691v230.54zm188.31-0.27692 86.357-0.18692v-80.749l59.537-0.09v-56.962l-59.537 0.09v-26.917l68.26-0.09v-66.148l-154.63 0.27691zm323.48-231.23v77.71l-52.551 0.09v-77.717l-82.591 0.09v230.79l82.591-0.09v-80.209l52.551-0.09v80.202l82.591-0.09v-230.79z"/>
</svg>
