<svg xmlns="http://www.w3.org/2000/svg" width="801" height="479" viewBox="-101.86 180.445 801 479"><path style="line-height:normal;font-variant-ligatures:normal;font-variant-position:normal;font-variant-caps:normal;font-variant-numeric:normal;font-variant-alternates:normal;font-feature-settings:normal;text-indent:0;text-align:start;text-decoration-line:none;text-decoration-style:solid;text-decoration-color:#000;text-transform:none;text-orientation:mixed;shape-padding:0;isolation:auto;mix-blend-mode:normal" d="M483.115 188.18l-9.108.01h-.03c-5.217.026-10.068 1.84-14.054 4.788-4.099-2.987-9.042-4.713-11.672-4.713l-8.47.04c-12.765.049-23.723 10.642-23.852 23.605-1.82-.19-3.608-.485-5.482-.479-13.806.036-26.202 5.422-35.752 14.135-.944-1.518-1.994-2.95-3.211-4.182l-.002-.002h-.002c-4.462-4.51-10.797-7.187-14.072-7.187l-7.534.04c-3.497.008-6.834.878-9.884 2.317-6.461-3.099-13.62-4.84-21.256-4.802-11.464.03-21.972 3.734-30.684 9.955a51.8 51.8 0 0 0-8.295-14.826l-.076-.094-.076-.092c-7.055-8.543-15.354-11.578-21.787-13.707-6.369-2.107-9.764-2.637-12.488-2.992-4.532-.624-9.769-.996-14.424-.996h-.037l-18.395.078c-12.927 0-23.918 11.046-23.918 24.19h-16.396c0-6.257-2.61-12.527-7.09-16.96v-.002h-.002c-4.413-4.364-10.67-7.053-17.137-7.02l-5.86.01h-.05c-5.587.043-10.768 2.165-14.91 5.545-4.318-3.457-9.745-5.46-15.102-5.46v17l-.084-17-5.871.027-.002.002c-5.43.028-10.477 2.024-14.564 5.226-4.244-3.258-9.437-5.13-14.739-5.13v16.779l-.074-16.78-6.408.03c-12.285 0-22.594 9.612-23.684 21.762-.565-5.361-2.868-10.623-6.783-14.522-4.515-4.505-10.797-7.09-17.129-7.09h-.05l-6.477.04c-12.887.033-23.863 10.689-23.863 23.82v90.548c0 3.138.648 6.217 1.824 9.057l-33.092.05v42.474h-16.574c-25.442 0-46.662 20.46-46.662 45.95v.009l.199 197.103c0 11.616 4.665 22.787 12.805 31.018 8.546 8.649 20.306 13.378 32.345 13.379l707.448.02c25.428 0 46.697-20.422 46.697-45.938v-.01l-.233-197.098c0-11.6-4.66-22.851-12.78-31.074l-.044-.043-.043-.043c-8.502-8.488-20.215-13.276-32.289-13.276h-19.035v-43.498l-54.375.084c10.894-10.801 17.66-25.866 17.66-42.296v-.002c0-15.822-6.164-31.021-17.074-41.957-10.91-10.937-25.438-17.057-40.58-16.999-13.37.038-25.636 4.781-35.43 12.58.589-2.028 1.008-4.12 1.008-6.312v-5.09c0-6.194-2.582-12.423-6.918-16.824l-.064-.066-.065-.065c-4.446-4.416-10.666-7.045-13.892-7.045zm-354.079 8.216l.217.217c-.036-.038-.084-.062-.12-.1-.036-.035-.06-.081-.097-.117z" color="#000" font-weight="400" font-family="sans-serif" white-space="normal" overflow="visible" fill="#fff" stroke-width="34" paint-order="stroke fill markers"/><path d="M680.037 400.106c0-7.229-2.788-13.976-7.877-19.129-5.362-5.353-12.519-8.307-20.279-8.307h-19.285v220.994l-122.239.155v-88.428c-11.212.02-13.104.02-22.834.039v88.408l-122.181.195V415.184c-1.248 0-8.248-.21-11.973-.21v90.027s-47.032.039-63.884.098v89.072l-126.228.176V415.204c-1.228 0-11.914.117-11.914.117v89.994s-47.052.078-63.894.078v89.11l-126.232.176V372.671h-16.779c-16.087 0-29.663 13.279-29.663 28.952l.2 197.111c0 7.137 2.823 13.942 7.897 19.07 5.318 5.382 12.538 8.326 20.254 8.326l707.447.02c16.087 0 29.697-13.26 29.697-28.937z" fill="#8fbe44" stroke-width="34" paint-order="stroke fill markers"/><path d="M510.356 372.671h-22.834v23.224c11.231 0 13.143-.049 22.834-.049z" fill="#8fbe44"/><path d="M615.845 329.203l-88.682.16v83.375l-56.41.088v-83.404l-88.642.14v247.625l88.642-.137v-86.048l56.41-.078v86.03l88.682-.138zm-269.848.43l-165.941.228v247.6l92.658-.118v-86.712l63.885-.079v-61.085l-63.885.084v-28.905l73.283-.082zm-202.02.29l-165.966.25v247.598l92.654-.135v-86.712l63.899-.06v-60.577l-63.899.056v-29.398l73.313-.098z" fill="#231f20" stroke-width="34" paint-order="stroke fill markers"/><path d="M76.749 206.504l-6.483.029c-3.792 0-6.897 3.076-6.897 6.83v29.921c0 2.715-2.354 5.011-5.128 5.031l-23.511.073c-1.331 0-2.608-.551-3.549-1.458-.848-.882-1.355-2.047-1.355-3.305v-29.912a6.85 6.85 0 0 0-2.028-4.904 7.213 7.213 0 0 0-5.128-2.125l-6.483.039c-3.802.01-6.908 3.066-6.908 6.82v90.549c0 1.809.731 3.544 2.057 4.865 1.36 1.355 3.154 2.116 5.084 2.096l6.479-.02c3.841 0 6.927-3.085 6.927-6.82v-31.159c0-2.696 2.345-5.012 5.143-5.012l23.482-.068c1.365 0 2.593.507 3.544 1.428.877.907 1.375 2.062 1.375 3.31v31.16c0 1.857.711 3.554 2.018 4.904a7.208 7.208 0 0 0 5.123 2.106l6.479-.039c3.802 0 6.927-3.047 6.927-6.791v-90.53c0-1.837-.726-3.573-2.038-4.894a7.208 7.208 0 0 0-5.13-2.124m35.259-.126l-5.869.029c-3.836.02-6.946 3.076-6.946 6.82v5.099c0 1.838.736 3.573 2.042 4.885a7.153 7.153 0 0 0 5.113 2.125l5.879-.029c3.836-.02 6.927-3.076 6.927-6.83v-5.07a6.802 6.802 0 0 0-2.052-4.904c-1.359-1.389-3.168-2.125-5.094-2.125m0 25.626l-5.869.02c-3.836.039-6.946 3.096-6.946 6.839v64.893c0 1.828.736 3.554 2.042 4.899 1.37 1.36 3.178 2.13 5.113 2.101l5.879-.015c3.836 0 6.927-3.061 6.927-6.815v-64.917a6.769 6.769 0 0 0-2.052-4.879 7.087 7.087 0 0 0-5.094-2.126m47.412-.15a4.03 4.03 0 0 1-2.847-1.18 5.171 5.171 0 0 1-1.414-3.554v-13.854a6.814 6.814 0 0 0-2.047-4.875c-1.37-1.355-3.174-2.116-5.094-2.106l-5.869.01c-3.832.029-6.957 3.085-6.957 6.849v13.82c0 2.706-1.608 4.992-3.495 4.992-2.915.01-5.313 3.071-5.313 6.795v5.104c0 2.165.77 4.144 2.116 5.499.96.979 2.188 1.53 3.417 1.511.848 0 1.477.478 1.857.829.897.917 1.418 2.374 1.418 3.919v48.031c0 1.848.736 3.563 2.042 4.885 1.37 1.409 3.208 2.125 5.124 2.125l5.869-.02c3.817-.02 6.932-3.096 6.932-6.81v-48.031c0-2.725 2.052-4.992 4.46-4.992 3.495-.02 6.288-3.105 6.288-6.849v-5.089c0-1.94-.755-3.783-2.086-5.124-1.207-1.238-2.772-1.905-4.401-1.885m108.055 28.142c4.002-5.689 6.595-14.044 6.595-21.274 0-7.804-2.554-14.946-7.575-21.205-6.791-8.224-22.775-10.593-23.453-10.681-3.315-.458-8.735-.838-12.138-.838l-18.432.078c-3.812 0-6.917 3.066-6.917 6.81v90.51c0 1.848.716 3.563 2.057 4.904 1.345 1.384 3.173 2.115 5.089 2.115l6.489-.048c3.836 0 6.912-3.066 6.912-6.781v-27.352c0-1.312.297-1.789.38-1.857.029.029.478.317 1.136 1.277l19.928 29.219c2.067 3.037 6.576 5.392 10.281 5.392l10.203-.039c2.057-.029 3.544-.76 4.144-2.067.161-.41.273-.858.273-1.297 0-.97-.371-1.989-1.141-3.056l-22.644-31.696c9.029-2.497 14.44-5.933 18.813-12.114m-25.3-6.976c-3.057 1.039-8.117 1.877-11.29 1.906-1.292 0-2.486-.488-3.378-1.418-.906-.907-1.404-2.077-1.404-3.354v-19.338c0-2.686 2.354-4.972 5.148-4.972l5.752-.01c5.499-.01 9.994 1.516 12.938 4.475 2.447 2.452 3.714 5.767 3.714 9.642 0 9.057-11.348 13.02-11.48 13.069m112.11-21.825l-4.367.039c-3.881.01-6.942 3.076-6.942 6.83v1.448c-6.024-6.469-15.346-10.813-24.179-10.764-21.834.049-38.276 17.91-38.276 41.504 0 12.777 4.353 24.169 12.221 32.086 6.801 6.791 15.507 10.364 25.198 10.334 9.477-.029 21.332-8.38 21.839-8.736 1.307-.951 2.398-1.102 2.827-.873.351.2.37.829.37 1.121 0 1.307.526 2.623 1.58 3.612 1.364 1.399 3.412 2.189 5.596 2.169l4.349-.01c3.86 0 6.941-3.076 6.941-6.83v-64.913c0-1.848-.741-3.554-2.047-4.875a7.14 7.14 0 0 0-5.11-2.142m-32.817 62.549c-5.44 0-10.568-2.116-14.449-5.952-4.207-4.295-6.522-10.105-6.522-16.462 0-13.459 9.116-23.682 21.205-23.711 5.616-.029 10.588 1.999 14.391 5.831 4.173 4.124 6.435 10.091 6.435 16.754-.021 13.575-8.854 23.51-21.06 23.54m124.268-88.478l-5.889.039c-3.861.015-6.941 3.086-6.941 6.83v24.671c-5.967-5.094-14.508-8.404-22.405-8.375-21.156.049-38.394 18.948-38.394 42.118 0 11.622 4.602 22.882 12.558 30.901 7.059 7.068 16.067 10.973 25.329 10.939 9.75-.02 20.845-8.272 21.313-8.633 1.502-1.16 2.477-1.131 2.789-.951.155.122.312.531.312 1.068 0 1.321.565 2.618 1.56 3.617 1.385 1.409 3.433 2.204 5.577 2.184l4.388-.029c3.86 0 6.941-3.042 6.941-6.82v-90.52c0-1.838-.741-3.544-2.048-4.899a7.168 7.168 0 0 0-5.09-2.14m-32.7 88.175c-5.206.02-10.218-2.096-14.078-5.938-4.388-4.407-6.903-10.725-6.903-17.403 0-12.09 9.848-22.722 21.06-22.751 5.284-.034 10.335 2.096 14.195 6.001 4.349 4.3 6.806 10.491 6.806 16.847-.001 12.793-9.44 23.205-21.08 23.244m66.881-88.262l-5.85.01c-3.841.02-6.941 3.105-6.941 6.83v5.099a6.93 6.93 0 0 0 2.027 4.875 7.18 7.18 0 0 0 5.129 2.155l5.889-.049c3.841-.029 6.883-3.066 6.883-6.83v-5.089c0-1.818-.702-3.549-2.027-4.894a7.218 7.218 0 0 0-5.11-2.107m0 25.616l-5.85.01c-3.841.02-6.941 3.086-6.941 6.849v64.903c0 1.838.741 3.554 2.027 4.865a7.022 7.022 0 0 0 5.129 2.115l5.889-.01c3.841 0 6.883-3.056 6.883-6.83v-64.864c0-1.896-.702-3.602-2.027-4.914-1.346-1.373-3.159-2.124-5.11-2.124m86.909 8.975c-7.625-7.614-17.667-11.812-28.294-11.768-22.561.058-40.948 18.919-40.948 41.991 0 11.319 4.407 21.98 12.401 30 7.741 7.755 17.842 11.997 28.508 11.977 22.425-.088 40.637-18.948 40.637-42.011-.001-11.499-4.388-22.224-12.304-30.189m-28.41 53.252c-5.382.01-10.433-2.047-14.215-5.85-4.31-4.261-6.63-10.325-6.63-17.013 0-12.567 9.632-23.208 21.039-23.238 4.992-.015 9.828 2.042 13.591 5.83 4.388 4.46 6.922 10.778 6.922 17.35.019 12.84-9.067 22.882-20.707 22.921" fill="#e42632"/></svg>