<?xml version="1.0" encoding="UTF-8"?>
<svg width="514.47" height="450" version="1.1" xmlns="http://www.w3.org/2000/svg">
	<path d="m340.75 75.502c-24.925-12.213-54.973-19.493-85.186-18.389-31.854-0.60511-60.514 7.2362-85.916 20.17l-37.637-49.351c33.88-17.805 76.016-28.744 121.28-27.884 45.299-0.81661 88.696 10.071 125.23 29.212z" fill="#ff2234"/>
	<path d="m266.52 77.999c70.352 4.6907 126.46 52.715 125.38 109.72 0.49812 62.063-62.49 111.18-139.64 111.39-67.093 0.40259-121.72-37.532-135.88-86.439l65.639-12.17c7.8731 26.983 36.022 45.968 71.23 46.636 40.236 0.76437 72.601-25.455 71.529-57.342 0.60514-31.854-32.447-57.638-72.683-58.403-10.059-0.19109-18.473 1.3262-26.92 4.52z" fill="#ff2234"/>
	<g fill="#0189ff">
		<path d="m24.264 181.13c-0.72108-50.328 26.995-96.762 69.576-131.17l49.532 41.192c-34.041 26.187-54.857 62.69-53.946 102.96 0.24333 75.477 74.54 137.26 165.1 137.3 92.241 0.0752 165.51-60.587 165.3-137.74 0.76434-40.236-20.361-75.858-53.415-101.64l47.706-39.344c41.308 32.65 65.597 78.395 66.316 128.72-0.23436 100.62-102.42 182.54-228.19 181.82-125.8 0.96442-228.25-79.806-227.98-182.11"/>
		<path d="m38.898 409.86v-23.635h15.927v61.208h-15.927v-25.064h-22.971v25.064h-15.927v-61.208h15.927v23.635z"/>
		<path d="m77.083 447.43h-15.927v-61.208h15.927z"/>
		<path d="m107.76 447.43h-15.927v-47.729h-13.17v-13.476h42.217v13.476h-13.17v47.729z"/>
		<path d="m173.51 447.43h-19.807l-15.008-23.533h-0.15314v23.533h-15.927v-61.208h23.788c3.0118 0 5.8194 0.35733 8.4229 1.072 2.6034 0.71467 4.8496 1.8887 6.7383 3.4202 1.8888 1.5314 3.3691 3.5224 4.4413 5.8705 1.072 2.3992 1.6335 5.2069 1.6335 8.4229 0 2.093-0.3063 4.1348-0.86783 6.0237-0.56154 1.9398-1.4293 3.6753-2.5524 5.2069-1.123 1.5316-2.5524 2.8586-4.2369 3.8796-1.6846 1.072-3.6245 1.7867-5.7686 2.144zm-35.018-33.793h1.5314c1.2762 0 2.6034-0.1021 3.8796-0.25523 1.2762-0.15314 2.4503-0.51049 3.5224-1.072 1.0721-0.56153 1.9398-1.3272 2.6034-2.2971 0.66361-1.021 1.021-2.3482 1.021-4.0329 0-1.6846-0.35735-3.0118-1.021-4.0329-0.66367-1.0211-1.5314-1.7867-2.6034-2.2972-1.072-0.5615-2.2461-0.86779-3.5224-1.072-1.2762-0.15316-2.6034-0.25526-3.8796-0.25526h-1.5314z"/>
		<path d="m189.34 436.76-4.2369 10.618h-16.897l23.533-61.208h17.356l23.074 61.259h-16.948l-3.9818-10.618h-21.9zm11.077-31.651h-0.15314l-6.5854 19.5h13.221z"/>
		<path d="m231.04 386.24h22.563c4.288 0 8.2699 0.76572 12.047 2.3482 3.7772 1.5825 7.0448 3.7264 9.8523 6.4832 2.8076 2.7566 5.0537 6.0237 6.6872 9.7501 1.6335 3.7264 2.4503 7.7594 2.4503 11.996 0 4.3391-0.81678 8.3718-2.4503 12.047-1.6335 3.7264-3.8796 6.9427-6.6872 9.6991-2.8076 2.7566-6.1259 4.9004-9.9034 6.4832-3.7775 1.5827-7.8105 2.3482-11.996 2.3482h-22.563zm15.876 47.729h3.5734c2.3992 0 4.6453-0.35734 6.7894-1.021 2.144-0.6636 3.9818-1.6846 5.6154-3.0629 1.5825-1.3783 2.8586-3.1651 3.8286-5.3092 0.96991-2.144 1.4294-4.7476 1.4294-7.7083 0-2.7566-0.40837-5.207-1.2762-7.2999-0.86783-2.0929-2.093-3.8796-3.6245-5.36-1.5314-1.4804-3.3691-2.5524-5.5132-3.318-2.144-0.76566-4.492-1.1231-7.0448-1.1231h-3.7264v34.202z"/>
		<path d="m301.89 447.43h-15.927v-61.208h15.927z"/>
		<path d="m339 384.18c4.3902 0 8.6272 0.76572 12.711 2.2972 4.0837 1.5314 7.7083 3.7264 10.822 6.4832 3.114 2.8076 5.6664 6.1259 7.5043 10.005 1.8887 3.8796 2.8076 8.1167 2.8076 12.711 0 5.0026-0.81677 9.5461-2.5014 13.63-1.6846 4.1348-4.0329 7.6572-7.0448 10.669-3.0118 3.0118-6.5854 5.3091-10.72 6.9937-4.1348 1.6335-8.6783 2.4503-13.579 2.4503-4.9008 0-9.4439-0.81678-13.579-2.4503-4.1352-1.6336-7.7083-3.9818-10.72-6.9937-3.0118-3.0118-5.36-6.5854-7.0448-10.669-1.6846-4.1348-2.5014-8.6783-2.5014-13.63 0-4.5942 0.91888-8.8313 2.8076-12.711 1.8888-3.8796 4.3902-7.1978 7.5043-10.005 3.114-2.8078 6.7383-4.9515 10.822-6.4832 4.0837-1.5315 8.321-2.2972 12.711-2.2972zm0 15.416c-2.3992 0-4.5942 0.45943-6.6872 1.3272-2.093 0.8678-3.9307 2.093-5.462 3.5734-1.5825 1.4804-2.8076 3.2162-3.7264 5.1558-0.91889 1.9398-1.3783 3.9818-1.3783 6.0748 0 2.6545 0.45943 5.1048 1.3783 7.2999 0.91884 2.195 2.144 4.1348 3.7264 5.7686 1.5824 1.6338 3.4202 2.9097 5.462 3.8286 2.093 0.91886 4.3391 1.3783 6.6872 1.3783 2.3992 0 4.5942-0.45942 6.6873-1.3783 2.093-0.91888 3.9307-2.1951 5.462-3.8286 1.5825-1.6335 2.8076-3.5224 3.7264-5.7686 0.91888-2.195 1.3783-4.6453 1.3783-7.2999 0-2.093-0.45942-4.1348-1.3783-6.0748-0.91885-1.9398-2.144-3.6753-3.7264-5.1558-1.5824-1.4805-3.4202-2.6545-5.462-3.5734-2.093-0.86782-4.3391-1.3272-6.6873-1.3272z"/>
		<path d="m430.69 384.18c4.3902 0 8.6272 0.76572 12.711 2.2972 4.0837 1.5314 7.7083 3.7264 10.822 6.4832 3.114 2.8076 5.6664 6.1259 7.504 10.005 1.8888 3.8796 2.8076 8.1167 2.8076 12.711 0 5.0026-0.81678 9.5461-2.5013 13.63-1.6846 4.1348-4.0329 7.6572-7.0448 10.669-3.0118 3.0118-6.5854 5.3091-10.72 6.9937-4.1348 1.6335-8.6783 2.4503-13.579 2.4503-4.9004 0-9.4439-0.81678-13.579-2.4503-4.1348-1.6335-7.7083-3.9818-10.72-6.9937-3.0118-3.0118-5.3599-6.5854-7.0448-10.669-1.6846-4.1348-2.5014-8.6783-2.5014-13.63 0-4.5942 0.91888-8.8313 2.8076-12.711 1.8888-3.8798 4.3902-7.1978 7.504-10.005 3.1137-2.8078 6.7383-4.9515 10.822-6.4832 4.0837-1.5315 8.321-2.2972 12.711-2.2972zm-10.312-18.837c2.195 0 4.0837 0.76572 5.6664 2.2971 1.5314 1.5315 2.2971 3.4202 2.2971 5.6664 0 2.2971-0.76572 4.1858-2.2971 5.6664-1.5314 1.5314-3.4202 2.2972-5.6664 2.2972-2.2972 0-4.1858-0.76575-5.7174-2.2972-1.5314-1.5314-2.2971-3.4202-2.2971-5.6664 0-2.1951 0.76571-4.0837 2.2971-5.6664 1.5314-1.5314 3.4713-2.2971 5.7174-2.2971zm10.312 34.253c-2.3992 0-4.5942 0.45943-6.6872 1.3272-2.093 0.8678-3.9307 2.093-5.462 3.5734-1.5825 1.4804-2.8076 3.2162-3.7264 5.1558-0.91888 1.9398-1.3783 3.9818-1.3783 6.0748 0 2.6545 0.45942 5.1048 1.3783 7.2999 0.91886 2.1951 2.144 4.1348 3.7264 5.7686 1.5824 1.6338 3.4202 2.9097 5.462 3.8286 2.093 0.91885 4.3391 1.3783 6.6872 1.3783 2.3992 0 4.5942-0.45943 6.6872-1.3783 2.093-0.91888 3.9307-2.1951 5.462-3.8286 1.5825-1.6335 2.8076-3.5224 3.7264-5.7686 0.91884-2.195 1.3783-4.6453 1.3783-7.2999 0-2.093-0.45946-4.1348-1.3783-6.0748-0.91888-1.9398-2.144-3.6753-3.7264-5.1558-1.5824-1.4805-3.4202-2.6545-5.462-3.5734-2.0419-0.86782-4.288-1.3272-6.6872-1.3272zm10.465-34.253c2.1951 0 4.0837 0.76572 5.6154 2.2971 1.5314 1.5315 2.2971 3.4202 2.2971 5.6664 0 2.2971-0.76572 4.1858-2.2971 5.6664-1.5314 1.5314-3.4202 2.2972-5.6154 2.2972-2.2971 0-4.1858-0.76575-5.7174-2.2972-1.5316-1.5314-2.2971-3.4202-2.2971-5.6664 0-2.1951 0.76573-4.0837 2.2971-5.6664 1.5314-1.5314 3.4713-2.2971 5.7174-2.2971z"/>
		<path d="m468.62 403.85c0.30631-3.267 1.123-6.0748 2.3482-8.5251 1.2251-2.4503 2.8586-4.4923 4.7986-6.2278 1.9398-1.7356 4.2369-3.0629 6.8916-3.9307 2.6545-0.86782 5.5642-1.3272 8.6783-1.3272 2.7566 0 5.3092 0.40837 7.7083 1.1741s4.4412 1.9398 6.2278 3.4202c1.7356 1.4804 3.114 3.318 4.1348 5.5642 1.021 2.1951 1.4804 4.7476 1.4804 7.6061 0 2.4503-0.51048 4.8496-1.5314 7.1978-1.0209 2.3481-2.6545 4.1348-4.8496 5.411 1.6335 0.40838 3.0629 1.1741 4.288 2.2971 1.2252 1.072 2.2972 2.3482 3.114 3.7264 0.81675 1.4293 1.4804 2.9607 1.8887 4.5942 0.4084 1.6335 0.66364 3.2669 0.66364 4.8496 0 3.3691-0.66364 6.2789-1.9909 8.8313-1.3272 2.5014-3.114 4.6453-5.3092 6.3299-2.1951 1.6846-4.7475 3.0118-7.6061 3.8796-2.8586 0.86782-5.8194 1.2762-8.8313 1.2762-3.5224 0-6.8405-0.51048-9.9034-1.5314-3.0629-1.021-5.8704-2.8076-8.3718-5.36-0.91885-0.91888-1.8377-1.9909-2.6545-3.2162-0.86779-1.2251-1.6335-2.5013-2.2971-3.8796s-1.1741-2.7566-1.5314-4.1858c-0.35734-1.4293-0.56154-2.8076-0.51048-4.1348h16.233c0 2.4503 0.76573 4.492 2.3482 6.1766 1.5825 1.6846 3.6242 2.5013 6.1767 2.5013 2.4503 0 4.4413-0.76571 6.0748-2.2461 1.6335-1.4804 2.4503-3.4713 2.4503-5.9726 0-1.1231-0.25524-2.1951-0.71466-3.2162-0.45946-1.021-1.072-1.8888-1.8888-2.6034-0.76572-0.71467-1.6846-1.3272-2.6545-1.7356-1.021-0.4084-2.093-0.66364-3.2162-0.66364-0.51048 0-0.9699 0.0511-1.4293 0.15316-0.45946 0.10208-0.91888 0.20419-1.3272 0.30627v-10.72h1.6335c2.0419 0 3.7264-0.61256 5.0537-1.7867 1.2762-1.1741 1.9398-2.8586 1.9398-4.9516 0-1.8888-0.61259-3.4202-1.7867-4.4923-1.1741-1.123-2.6545-1.6846-4.4412-1.6846-2.0419 0-3.6753 0.6636-4.8496 2.0419-1.1741 1.3783-1.7356 3.0118-1.6846 5.0537z"/>
	</g>
</svg>
