<?xml version="1.0" encoding="UTF-8"?>
<svg width="800" height="298.37" version="1.1" xmlns="http://www.w3.org/2000/svg">
	<g fill="#007396">
		<path d="m171.2 184.84c0-21.255-1.3253-39.364-16.647-54.686-11.482-11.482-29.096-19.248-55.664-19.248-13.117 0-28.563 1.957-41.085 4.0503v-87.571l-57.807 3.654v267.3h57.795v-134.23c12.25-2.0066 22.097-3.0718 30.52-3.0718 11.197 0 17.762 1.7217 21.168 5.1156 3.9512 3.9388 4.0132 10.157 4.0132 23.943v108.23h57.683v-113.5zm83.571 0.7308c0-9.1907 0.82988-13.538 4.0132-16.722 4.521-4.521 14.603-7.5804 58.81-8.7819v-49.038c-59.888 0.61932-87.125 7.2336-104.31 24.401-15.557 15.557-16.325 33.133-16.325 52.716v110.23h57.795v-112.81z"/>
		<path d="m389.4 0a60.227 60.227 0 0 0-60.227 60.227 60.227 60.227 0 0 0 60.227 60.227 60.227 60.227 0 0 0 60.227-60.227 60.227 60.227 0 0 0-60.227-60.227zm-0.7199 10.601a49.627 49.627 0 0 1 49.626 49.626 49.627 49.627 0 0 1-49.626 49.626 49.627 49.627 0 0 1-49.631-49.626 49.627 49.627 0 0 1 49.631-49.626z"/>
		<path d="m463.04 111.03v187.34h31.573v-83.511h78.307v83.511h31.575v-187.34h-31.575v76.222h-78.307v-76.222zm177.24 0v187.34h68.415c17.901 0 33.903-3.838 47.782-11.578 13.888-7.7455 24.707-18.98 32.248-33.441l2e-3 -5e-3 2e-3 -2e-3c7.5457-14.557 11.272-31.448 11.272-50.499 0-28.923-8.662-51.853-26.096-67.856-17.343-16.083-41.898-23.962-73.012-23.962zm31.575 26.715h28.527c22.586 0 39.216 5.6671 50.593 16.647l7e-3 0.01 0.01 0.01c11.453 10.896 17.307 26.754 17.307 48.437 0 14.404-2.6027 26.705-7.6907 37.043-5.0916 10.345-12.268 18.098-21.727 23.549l-5e-3 2e-3 -5e-3 5e-3c-9.3824 5.453-20.298 8.2108-32.991 8.2108h-34.026z"/>
		<path d="m408.91 28.909-49.868 17.827v12.286l16.623-6.0227v37.1l33.245-11.804z"/>
	</g>
</svg>
