<?xml version="1.0" encoding="UTF-8" standalone="no"?>
<!-- Created with Inkscape (http://www.inkscape.org/) -->

<svg
   xmlns:dc="http://purl.org/dc/elements/1.1/"
   xmlns:cc="http://creativecommons.org/ns#"
   xmlns:rdf="http://www.w3.org/1999/02/22-rdf-syntax-ns#"
   xmlns:svg="http://www.w3.org/2000/svg"
   xmlns="http://www.w3.org/2000/svg"
   version="1.1"
   width="169.81696"
   height="74.756584"
   id="svg2">
  <defs
     id="defs4" />
  <metadata
     id="metadata7">
    <rdf:RDF>
      <cc:Work
         rdf:about="">
        <dc:format>image/svg+xml</dc:format>
        <dc:type
           rdf:resource="http://purl.org/dc/dcmitype/StillImage" />
        <dc:title></dc:title>
      </cc:Work>
    </rdf:RDF>
  </metadata>
  <g
     transform="translate(-165.83929,-145.73145)"
     id="layer1">
    <path
       d="m 174.39636,145.73145 -8.48506,0.51606 0,55.57895 8.76108,0 0,-30.38779 c 0,0 3.41326,-0.96014 8.24505,-0.96014 6.77866,-0.0643 6.57682,3.72492 6.57682,6.74486 l 0,24.60307 8.97712,0 0,-24.08701 c 0,-1.67065 0.0292,-2.50664 -0.0481,-3.98449 -0.30189,-5.97557 -4.57462,-10.6051 -13.08164,-10.66934 -5.12097,-0.0642 -10.94536,1.15215 -10.94536,1.15215 l 0,-18.50632 z m 54.09076,17.34217 c -1.62326,0.009 -8.19016,0.28027 -12.27754,1.23615 -5.4486,1.22074 -8.94486,4.55337 -9.43318,9.56519 -0.0964,0.96369 -0.14407,1.54372 -0.14407,3.79248 l 0,24.15902 8.97712,0 0,-24.73509 c 0,-2.18451 0.16414,-3.5275 1.58419,-4.81261 1.61271,-1.41349 5.26874,-1.60758 7.35692,-1.80023 1.4777,-0.12853 4.30855,-0.26403 4.30855,-0.26403 l 0,-7.12888 c -0.007,-0.007 -0.14012,-0.0132 -0.37205,-0.0117 z m -62.64783,44.09351 0,5.00461 c 12.88277,5.59014 32.80526,8.61446 49.25416,8.29305 17.61811,-0.32123 33.8096,-3.14511 48.13801,-8.22104 l 0,-4.88461 c -12.78626,5.01168 -31.21792,8.03184 -48.99013,8.35304 -16.44888,0.25702 -34.86385,-2.76233 -48.40204,-8.54505 z"
       id="path3132"
       style="fill:#0076bc;fill-rule:nonzero;stroke:none" />
    <path
       d="m 274,162.90625 0,38.90625 5.90625,0 0,-16.96875 15.4375,0 0,16.96875 5.90625,0 0,-38.90625 -5.90625,0 0,16.65625 -15.4375,0 0,-16.65625 -5.90625,0 z m 34.09375,0 0,38.90625 13.25,0 c 2.88518,0 5.33122,-0.61487 7.34375,-1.84375 2.0303,-1.24668 3.62358,-2.77714 4.78125,-4.59375 0.87265,-1.35354 1.43376,-2.75833 1.71875,-4.21875 0.30274,-1.47821 0.46872,-4.40002 0.46875,-8.78125 -3e-5,-4.07844 -0.0988,-6.83863 -0.3125,-8.28125 -0.21375,-1.44257 -0.81955,-2.9999 -1.78125,-4.65625 -2.58246,-4.36337 -6.51863,-6.53121 -11.84375,-6.53125 l -13.625,0 z M 314,168.5 l 7.0625,0 c 3.00985,4e-5 5.31678,1.07724 6.9375,3.25 0.7836,1.06862 1.25938,2.25804 1.4375,3.59375 0.19587,1.33576 0.31247,3.7593 0.3125,7.25 -3e-5,3.61542 -0.10318,5.98518 -0.28125,7.125 -0.16032,1.12203 -0.54637,2.17672 -1.1875,3.15625 -1.56729,2.26186 -3.97737,3.40626 -7.21875,3.40625 l -7.0625,0 0,-27.78125 z"
       id="path4006"
       style="font-size:54.71186447px;font-style:normal;font-variant:normal;font-weight:normal;font-stretch:normal;line-height:100%;letter-spacing:0px;word-spacing:0px;fill:#5a5a5a;fill-opacity:1;stroke:none;font-family:Alte DIN 1451 Mittelschrift;-inkscape-font-specification:Sans" />
  </g>
</svg>
