<?xml version="1.0" encoding="UTF-8"?>
<svg version="1.1" viewBox="0 0 668.41 450" xmlns="http://www.w3.org/2000/svg">
	<path d="m165.69 450v-161.92c0-20.711 0-30.126-5.6485-35.774-4.7071-4.7071-14.121-7.5314-31.067-7.5314-12.238 0-26.36 1.8828-44.247 4.7071v200.52h-84.728v-400.1l84.728-5.6485v130.86c17.887-2.8243 40.481-5.6485 60.251-5.6485 38.598 0 64.958 11.297 80.962 29.184 22.594 22.594 24.477 49.895 24.477 81.904v169.46zm207.11 0h-84.728v-164.75c0-29.184 0.94143-55.544 23.536-79.08 25.418-25.418 64.958-35.774 152.51-36.715v73.431c-64.958 1.8828-79.08 6.59-85.669 13.18-4.7071 4.7071-5.6485 11.297-5.6485 25.418z" fill="#007396"/>
	<path d="m579.92 164.75c-39.54 0-72.49-32.95-72.49-74.372 0-40.481 32.008-74.372 72.49-74.372 39.54 0 72.49 32.95 72.49 74.372 0 41.423-32.008 74.372-72.49 74.372m0-164.75c-48.954 0-88.494 40.481-88.494 90.377 0 49.895 39.54 90.377 88.494 90.377 48.954 0 88.494-40.481 88.494-90.377 0-49.895-39.54-90.377-88.494-90.377m29.184 117.68v-74.372l-72.49 26.36v18.828l24.477-9.4142v55.544z" fill="#007396"/>
</svg>
