<?xml version="1.0" encoding="UTF-8" standalone="no"?>
<!-- Created with Inkscape (http://www.inkscape.org/) -->
<svg
   xmlns:svg="http://www.w3.org/2000/svg"
   xmlns="http://www.w3.org/2000/svg"
   version="1.0"
   width="885.82672"
   height="229.96062"
   id="svg2016">
  <defs
     id="defs2018" />
  <g
     transform="translate(-3131.651,3009.442)"
     id="layer1">
    <g
       transform="translate(17.71611,17.66281)"
       id="g4552">
      <path
         d="M 3259.9242,-2814.8672 C 3217.0939,-2814.0303 3165.1961,-2821.8938 3131.6514,-2836.4496 L 3131.6514,-2849.4991 C 3166.9027,-2834.4418 3214.8521,-2826.5784 3257.6824,-2827.2476 C 3303.9584,-2828.084 3351.9754,-2835.9475 3385.2688,-2848.9971 L 3385.2688,-2836.2819 C 3347.9599,-2823.065 3305.799,-2815.7036 3259.9242,-2814.8672"
         style="fill:#0076bc;fill-rule:nonzero;stroke:none"
         id="path3132" />
      <path
         d="M 3153.9366,-3009.4424 L 3153.9366,-2961.2589 C 3153.9366,-2961.2589 3169.1112,-2964.4374 3182.4454,-2964.2702 C 3204.5963,-2964.1029 3215.7055,-2952.057 3216.4916,-2936.4976 C 3216.6925,-2932.6495 3216.6422,-2930.4746 3216.6422,-2926.1245 L 3216.6422,-2863.3851 L 3193.2697,-2863.3851 L 3193.2697,-2927.463 C 3193.2697,-2935.3264 3193.7718,-2945.1975 3176.1212,-2945.0299 C 3163.54,-2945.0299 3154.6558,-2942.5207 3154.6558,-2942.5207 L 3154.6558,-2863.3851 L 3131.8523,-2863.3851 L 3131.8523,-3008.104 L 3153.9366,-3009.4424 z "
         style="fill:#0076bc;fill-rule:nonzero;stroke:none"
         id="path3134" />
      <path
         d="M 3295.7606,-2964.2702 C 3295.5935,-2964.4374 3274.9649,-2963.9358 3262.8016,-2961.0913 C 3248.6143,-2957.9127 3239.5297,-2949.2128 3238.2582,-2936.1628 C 3238.007,-2933.6535 3237.8902,-2932.1475 3237.8902,-2926.2921 L 3237.8902,-2863.3851 L 3261.2455,-2863.3851 L 3261.2455,-2927.7978 C 3261.2455,-2933.4859 3261.6806,-2936.9996 3265.3782,-2940.3458 C 3269.5774,-2944.0263 3279.1141,-2944.5283 3284.5514,-2945.0299 C 3288.3991,-2945.3647 3295.7606,-2945.6991 3295.7606,-2945.6991 L 3295.7606,-2964.2702 z "
         style="fill:#0076bc;fill-rule:nonzero;stroke:none"
         id="path3136" />
      <path
         d="M 3415.3838,-2932.315 L 3379.2458,-2932.315 C 3379.413,-2937.1669 3379.7478,-2939.5089 3381.4207,-2943.0226 C 3383.9304,-2949.0452 3389.7862,-2953.0605 3397.3148,-2953.0605 C 3405.0107,-2953.0605 3410.6993,-2949.0452 3413.2085,-2943.0226 C 3414.8818,-2939.5089 3415.3838,-2937.1669 3415.3838,-2932.315 M 3431.4448,-2921.2728 L 3431.4448,-2928.2997 C 3431.4448,-2950.7185 3418.8971,-2966.2778 3397.3148,-2966.2778 C 3376.7362,-2966.2778 3363.3517,-2951.5549 3363.3517,-2925.9573 C 3363.3517,-2896.0099 3379.2458,-2885.6367 3399.4897,-2885.6367 C 3413.5434,-2885.6367 3421.2392,-2889.8197 3429.6047,-2897.8503 L 3419.2315,-2907.3867 C 3413.5434,-2901.6981 3408.8588,-2899.1888 3399.824,-2899.1888 C 3386.6072,-2899.1888 3379.2458,-2907.8883 3379.2458,-2921.2728 L 3431.4448,-2921.2728 z "
         style="fill:#00b5e8;fill-rule:nonzero;stroke:none"
         id="path3138" />
      <path
         d="M 3550.0639,-2886.4736 L 3550.0639,-2934.4899 C 3550.0639,-2946.8703 3542.8701,-2952.057 3534.0025,-2952.057 C 3524.9683,-2952.057 3517.2724,-2946.7032 3517.2724,-2934.4899 L 3517.2724,-2886.4736 L 3501.0439,-2886.4736 L 3501.0439,-2965.2742 L 3516.9376,-2965.2742 L 3516.9376,-2957.4108 C 3522.4585,-2963.2665 3530.322,-2966.2778 3538.3528,-2966.2778 C 3546.5506,-2966.2778 3553.41,-2963.601 3558.0946,-2959.0836 C 3564.2848,-2953.2282 3566.2925,-2945.6991 3566.2925,-2936.8321 L 3566.2925,-2886.4736 L 3550.0639,-2886.4736 z "
         style="fill:#00b5e8;fill-rule:nonzero;stroke:none"
         id="path3140" />
      <path
         d="M 3615.9821,-2884.8003 C 3602.7648,-2884.8003 3591.7229,-2886.9752 3582.1866,-2896.177 L 3592.8941,-2906.5498 C 3599.4187,-2900.0252 3608.1186,-2898.3519 3615.9821,-2898.3519 C 3625.8533,-2898.3519 3633.5491,-2901.6981 3633.5491,-2909.2267 C 3633.5491,-2914.4133 3630.5374,-2917.9266 3622.8415,-2918.4286 L 3609.9591,-2919.5998 C 3594.9018,-2920.7712 3586.2019,-2927.463 3586.2019,-2941.3494 C 3586.2019,-2956.7415 3599.7535,-2965.4414 3616.4842,-2965.4414 C 3628.5301,-2965.4414 3638.9029,-2962.9317 3646.2643,-2956.5744 L 3636.0588,-2946.3684 C 3631.0395,-2950.7185 3624.0127,-2952.2241 3616.3165,-2952.2241 C 3606.613,-2952.2241 3601.7613,-2948.0416 3601.7613,-2942.0186 C 3601.7613,-2937.5012 3604.2709,-2933.8208 3612.8032,-2933.1516 L 3625.5184,-2931.9802 C 3640.5757,-2930.809 3649.4433,-2923.7824 3649.4433,-2909.7288 C 3649.4433,-2893.333 3635.2219,-2884.8003 3615.9821,-2884.8003"
         style="fill:#00b5e8;fill-rule:nonzero;stroke:none"
         id="path3142" />
      <path
         d="M 3713.8554,-2931.4783 L 3677.7174,-2931.4783 C 3677.8849,-2936.3305 3678.2194,-2938.6725 3679.8927,-2942.1858 C 3682.4019,-2948.2088 3688.2577,-2952.2241 3695.7864,-2952.2241 C 3703.4826,-2952.2241 3709.1709,-2948.2088 3711.6805,-2942.1858 C 3713.3533,-2938.6725 3713.6881,-2936.3305 3713.8554,-2931.4783 M 3729.9167,-2920.4362 L 3729.9167,-2927.463 C 3729.9167,-2949.8821 3717.3687,-2965.4414 3695.7864,-2965.4414 C 3675.2081,-2965.4414 3661.8237,-2950.7185 3661.8237,-2925.1208 C 3661.8237,-2895.1735 3677.7174,-2884.8003 3697.9612,-2884.8003 C 3712.0149,-2884.8003 3719.7112,-2888.9828 3728.0763,-2897.0136 L 3717.7035,-2906.5498 C 3712.0149,-2900.8616 3707.3303,-2898.3519 3698.2961,-2898.3519 C 3685.0788,-2898.3519 3677.7174,-2907.0518 3677.7174,-2920.4362 L 3729.9167,-2920.4362 z "
         style="fill:#00b5e8;fill-rule:nonzero;stroke:none"
         id="path3144" />
      <path
         d="M 3796.8385,-2886.4736 L 3796.8385,-2934.992 C 3796.8385,-2946.8703 3789.6443,-2952.2241 3780.61,-2952.2241 C 3771.5757,-2952.2241 3764.3814,-2946.7032 3764.3814,-2934.992 L 3764.3814,-2886.4736 L 3748.153,-2886.4736 L 3748.153,-2997.2293 L 3764.3814,-2997.2293 L 3764.3814,-2957.4108 C 3769.9025,-2963.4337 3777.0967,-2966.2778 3785.1274,-2966.2778 C 3803.0287,-2966.2778 3812.8998,-2954.5666 3812.8998,-2937.334 L 3812.8998,-2886.4736 L 3796.8385,-2886.4736 z "
         style="fill:#00b5e8;fill-rule:nonzero;stroke:none"
         id="path3146" />
      <path
         d="M 3882.6658,-2931.4783 L 3846.5283,-2931.4783 C 3846.6954,-2936.3305 3847.0299,-2938.6725 3848.5359,-2942.1858 C 3851.0452,-2948.2088 3857.0681,-2952.2241 3864.5968,-2952.2241 C 3872.1258,-2952.2241 3877.9812,-2948.2088 3880.4909,-2942.1858 C 3881.9965,-2938.6725 3882.4986,-2936.3305 3882.6658,-2931.4783 M 3898.7272,-2920.4362 L 3898.7272,-2927.463 C 3898.7272,-2949.8821 3886.1791,-2965.4414 3864.5968,-2965.4414 C 3844.0185,-2965.4414 3830.4669,-2950.7185 3830.4669,-2925.1208 C 3830.4669,-2895.1735 3846.5283,-2884.8003 3866.6045,-2884.8003 C 3880.8253,-2884.8003 3888.5215,-2888.9828 3896.7195,-2897.0136 L 3886.5139,-2906.5498 C 3880.8253,-2900.8616 3875.9736,-2898.3519 3866.9393,-2898.3519 C 3853.8897,-2898.3519 3846.5283,-2907.0518 3846.5283,-2920.4362 L 3898.7272,-2920.4362 z "
         style="fill:#00b5e8;fill-rule:nonzero;stroke:none"
         id="path3148" />
      <path
         d="M 3965.8162,-2886.4736 L 3965.8162,-2934.4899 C 3965.8162,-2946.8703 3958.7896,-2952.057 3949.7553,-2952.057 C 3940.7206,-2952.057 3933.0246,-2946.7032 3933.0246,-2934.4899 L 3933.0246,-2886.4736 L 3916.9633,-2886.4736 L 3916.9633,-2965.2742 L 3932.6898,-2965.2742 L 3932.6898,-2957.4108 C 3938.3784,-2963.2665 3946.0743,-2966.2778 3954.105,-2966.2778 C 3962.3028,-2966.2778 3969.1623,-2963.601 3974.0145,-2959.0836 C 3980.2047,-2953.2282 3982.0451,-2945.6991 3982.0451,-2936.8321 L 3982.0451,-2886.4736 L 3965.8162,-2886.4736 z "
         style="fill:#00b5e8;fill-rule:nonzero;stroke:none"
         id="path3150" />
      <path
         d="M 3488.8302,-2966.1106 C 3488.3286,-2966.1106 3487.3246,-2966.2778 3486.9902,-2966.2778 C 3477.7883,-2966.2778 3469.5905,-2962.2625 3465.575,-2956.7415 L 3465.575,-2965.2742 L 3449.6809,-2965.2742 L 3449.6809,-2886.4736 L 3465.9095,-2886.4736 L 3465.9095,-2934.3228 C 3465.9095,-2945.1975 3472.7693,-2951.8898 3481.4693,-2951.8898 C 3484.1456,-2951.8898 3486.9902,-2951.0529 3488.8302,-2950.2165 L 3488.8302,-2966.1106 z "
         style="fill:#00b5e8;fill-rule:nonzero;stroke:none"
         id="path3152" />
      <path
         d="M 3348.9636,-2984.3468 L 3356.1578,-2984.3468 L 3356.1578,-2997.8985 L 3345.9523,-2997.8985 C 3331.7315,-2997.8985 3324.7044,-2988.5294 3324.0352,-2977.989 L 3324.0352,-2886.4736 L 3340.0966,-2886.4736 L 3340.0966,-2949.38 L 3356.1578,-2949.38 L 3356.1578,-2963.9358 L 3340.0966,-2963.9358 L 3340.0966,-2975.3121 C 3340.0966,-2981.0007 3342.9406,-2984.3468 3348.9636,-2984.3468"
         style="fill:#00b5e8;fill-rule:nonzero;stroke:none"
         id="path3154" />
    </g>
  </g>
</svg>
