<?xml version="1.0" encoding="UTF-8" standalone="no"?>
<!-- Created with Inkscape (http://www.inkscape.org/) -->
<svg
   xmlns:svg="http://www.w3.org/2000/svg"
   xmlns="http://www.w3.org/2000/svg"
   version="1.0"
   width="566.92914"
   height="212.59842"
   id="svg1879">
  <defs
     id="defs1881" />
  <g
     id="g3159">
    <path
       d="M 352.6004,48.386525 L 352.6004,149.47424 L 334.48737,149.47424 L 285.12662,82.115619 L 285.12662,149.47424 L 265.34115,149.47424 L 265.34115,48.386525 L 283.4556,48.386525 L 332.81032,115.3692 L 332.81032,48.386525 L 352.6004,48.386525 L 352.6004,48.386525 z M 451.90618,48.386525 L 451.90618,64.423178 L 397.06358,64.423178 L 397.06358,91.851918 L 443.76508,91.851918 L 443.76508,107.89282 L 397.06358,107.89282 L 397.06358,149.47424 L 375.94689,149.47424 L 375.94689,48.386525 L 451.90618,48.386525 L 451.90618,48.386525 z M 537.81756,56.738808 C 528.92811,48.973651 518.49413,45.767667 505.48559,45.767667 C 492.36224,45.767667 481.93819,49.176328 473.04732,56.936879 C 461.27079,67.248966 461.28673,82.233257 461.28673,97.687036 L 461.28673,100.60459 C 461.28673,116.81345 461.93551,131.00688 473.25567,141.81999 C 481.79575,149.98129 492.36224,152.45203 505.48559,152.45203 C 518.49413,152.45203 528.53338,149.67692 537.81756,141.14215 C 549.48779,130.40381 549.20929,117.42113 549.20929,99.408374 L 549.20929,97.929752 C 549.20929,79.92302 549.75212,67.188729 537.81756,56.738808 L 537.81756,56.738808 z M 521.58815,130.10511 C 517.71886,133.99459 511.99996,135.9303 505.48559,135.9303 C 498.95669,135.9303 493.02555,133.93861 489.22642,130.11503 C 484.14071,125.16574 483.04228,119.66936 483.04228,99.145815 C 483.04228,78.616249 484.14071,73.119871 489.21189,68.186525 C 493.03547,64.341328 498.96272,62.138808 505.48559,62.138808 C 511.98968,62.138808 517.70291,64.286761 521.57823,68.176603 L 521.57398,68.176603 C 521.57823,68.176603 521.57823,68.176603 521.5839,68.186525 C 526.42122,72.897351 527.93031,77.79491 527.93031,99.145815 C 527.93031,120.51089 526.42122,125.4042 521.58815,130.10511 z M 220.66536,60.072706 L 241.78347,60.072706 L 241.78347,48.38369 L 220.66536,48.38369 L 220.66536,60.072706 z M 241.78347,76.554398 C 241.78347,78.468493 241.78347,149.47424 241.78347,149.47424 L 220.66536,149.47424 C 220.66536,149.47424 220.66536,78.468493 220.66536,76.554398 C 222.40264,76.554398 240.04052,76.554398 241.78347,76.554398 z M 521.5839,68.186525 C 521.57823,68.186525 521.57823,68.176603 521.57823,68.176603 L 521.58815,68.192194 C 521.5839,68.186525 521.5839,68.186525 521.5839,68.186525 z"
       id="path10"
       style="fill:#0c2d4e;fill-opacity:1;fill-rule:evenodd" />
    <path
       d="M 37.42005,20.284557 L 37.409775,62.948808 C 37.409775,62.948808 50.811979,60.157391 62.589931,60.279281 C 82.171663,60.471682 91.982726,71.002036 92.677569,84.744398 C 92.854025,88.239162 92.818238,90.164595 92.818238,93.923689 L 92.818238,149.47424 L 72.16253,149.47424 L 72.16253,92.737745 C 72.16253,85.793926 72.607569,77.167745 57.007451,77.243572 C 45.894223,77.293887 38.047216,79.431918 38.047216,79.431918 L 38.047216,149.47424 L 17.892531,149.47424 L 17.892531,21.571132 L 37.42005,20.284557 L 37.42005,20.284557 z M 163.65603,60.173336 C 163.40765,60.127273 145.21879,60.593926 134.47584,63.060777 C 121.94387,65.922351 113.91048,73.494753 112.78619,85.064713 C 112.56792,87.28743 112.46765,88.701564 112.46765,93.781603 L 112.46765,149.47424 L 133.10316,149.47424 L 133.09749,92.530815 C 133.09749,87.531564 133.49221,84.359595 136.75454,81.432115 C 140.45304,78.113808 148.89568,77.632981 153.71883,77.237902 C 157.03111,76.96932 163.65603,76.660698 163.65603,76.660698 L 163.65603,60.173336 z M 131.04556,192.27066 C 93.20871,192.92971 47.353003,186.02451 17.716074,173.23566 L 17.720326,161.71176 C 48.867766,174.92723 91.232962,181.92243 129.07123,181.27365 C 169.8919,180.56428 212.38926,173.70089 241.81359,162.14688 L 241.81359,173.32636 C 208.89449,185.03239 171.61926,191.58113 131.04556,192.27066 L 131.04556,192.27066 z"
       id="path12"
       style="fill:#007dc5;fill-rule:evenodd" />
  </g>
</svg>
