<?xml version="1.0" encoding="UTF-8"?>
<svg width="800" height="258.34" version="1.1" xmlns="http://www.w3.org/2000/svg">
	<path d="m503.67 42.105v151.74h-27.011l-74.677-100.89v100.89h-29.394v-151.74h27.011l73.883 100.89v-100.89zm149.35 0v23.833h-82.622v41.311h70.705v23.833h-70.705v62.761h-31.778v-151.74zm129.49 12.711c-13.505-11.917-29.394-16.683-49.255-16.683s-35.75 4.7666-48.461 16.683c-17.478 15.889-17.478 38.133-17.478 61.172v4.7666c0 24.628 0.79444 46.077 18.272 61.966 12.711 11.917 28.6 15.889 48.461 15.889s34.955-3.9722 48.461-16.683c17.478-15.889 17.478-35.75 17.478-62.761v-2.3833c-0.79444-27.011 0-46.872-17.478-61.966zm-24.628 110.43c-5.5611 5.5611-14.3 8.7388-23.833 8.7388s-19.067-3.1778-24.628-8.7388c-7.9444-7.15-9.5333-15.889-9.5333-46.872 0-30.983 1.5889-38.928 9.5333-46.872 5.5611-5.5611 14.3-8.7388 24.628-8.7388 9.5333 0 18.272 3.1778 23.833 8.7388 7.15 7.15 9.5333 14.3 9.5333 46.872 0 31.778-2.3833 39.722-9.5333 46.872zm-421.05-123.14v17.478h-31.778v-17.478zm0 42.105v109.63h-31.778v-109.63z" fill="#0c2d4e"/>
	<path d="m170.01 258.19c-56.405 1.5889-125.52-9.5333-170.01-28.6v-17.478c46.872 19.861 110.43 30.189 167.63 29.394 61.172-0.79444 125.52-11.122 170.01-28.6v16.683c-50.05 18.272-106.45 27.805-167.63 28.6zm-140.62-258.19v64.35s19.861-3.9722 38.133-3.9722c29.394 0 44.489 15.889 45.283 36.544v96.922h-30.983v-85.005c0-10.328 0.79443-23.039-23.039-23.039-16.683 0-28.6 3.1778-28.6 3.1778v105.66h-30.189v-193.05zm189.87 59.583s-27.805 0.79444-43.694 3.9722c-19.067 3.9722-30.983 15.889-32.572 33.366 0 3.1778-0.79444 5.5611-0.79444 13.505v83.416h30.983v-85.799c0-7.15 0.79444-11.917 5.5611-16.683 5.5611-4.7666 18.272-5.5611 25.422-6.3555 4.7666-0.79443 15.094-0.79443 15.094-0.79443z" fill="#007dc5"/>
</svg>
