<?xml version="1.0" encoding="UTF-8"?>
<svg width="581.18" height="450" version="1.1" xmlns="http://www.w3.org/2000/svg">
	<path d="m511.98 336.25v-258.76l-67.804 30.447v-60.884l71.958-37.367h65.038v326.57z" fill="#b38b00"/>
	<path d="m49.82 0v110.7s34.591-6.9203 65.038-6.9203c49.82 0 76.102 27.67 78.878 63.649v167.43h-52.586v-145.29c0-17.984 2.766-41.511-38.745-38.745-27.67 0-49.82 6.9203-49.82 6.9203v182.65h-52.586v-334.86zm326.56 105.17s-48.431 0-76.102 6.9203c-33.213 6.9203-53.963 26.293-56.729 56.729v166.04h53.963v-145.29c0-12.452 0-22.138 8.2979-27.67 8.2979-8.2979 30.447-11.075 42.899-11.075 8.2979 0 26.293-2.766 26.293-2.766v-42.889zm-83.022 344.55c-98.24 2.766-215.86-15.218-293.35-49.82v-30.447c80.256 34.591 189.57 52.586 287.82 49.82 106.55-2.766 217.25-19.373 293.35-49.82v27.67c-84.41 31.836-182.65 49.83-287.82 52.596" fill="#007dc5"/>
</svg>
