<?xml version="1.0" encoding="UTF-8"?>
<svg width="798.05" height="450" version="1.1" xmlns="http://www.w3.org/2000/svg">
	<path d="m423.02 450h-95.973v-183.03c0-32.523 1.2682-61.691 27.102-87.525 28.514-28.514 73.739-39.498 173.19-40.52v81.43c-73.411 1.9841-90.164 7.0568-97.67 14.564-5.2773 5.2773-6.6682 12.518-6.6682 27.757v187.32zm-138.78 0h-95.768v-179.82c0-22.889-0.10227-33.239-6.6682-39.764-5.6454-5.625-16.548-8.4886-35.141-8.4886-13.991 0-30.334 1.7591-50.686 5.0932v222.95h-95.973v-443.9l95.973-6.075v145.43c20.802-3.4773 46.432-6.7295 68.216-6.7295 44.12 0 73.35 12.886 92.434 31.95 25.445 25.445 27.655 55.514 27.634 90.798v188.55zm373.48-365.54-76.786 49.664v90.88l67.664-41.584v193.48h-62.53v73.105h211.99v-73.105h-63.675v-292.44z" fill="#e0ae00"/>
</svg>
