<?xml version="1.0" encoding="UTF-8" standalone="no"?>
<!-- Created with Inkscape (http://www.inkscape.org/) -->
<svg
   xmlns:svg="http://www.w3.org/2000/svg"
   xmlns="http://www.w3.org/2000/svg"
   version="1.0"
   width="566.92914"
   height="637.79529"
   id="svg1936">
  <defs
     id="defs1938" />
  <g
     id="layer1">
    <g
       transform="matrix(3.543307e-5,0,0,3.543307e-5,-1.231066e-3,1.404297e-5)"
       style="fill-rule:evenodd"
       id="Ebene_x0020_1">
  
  <g
   id="_50773224">
   <path
   d="M 7843830,11846000 C 5392050,11888990 2420740,11441790 500000,10612740 C 500000,10612740 500000,9865530 500000,9865530 C 2518510,10721760 5263880,11175800 7715530,11133340 C 10360980,11087670 13115050,10642470 15021720,9893790 C 15021720,9893790 15021860,10618230 15021860,10618230 C 12888700,11377100 10473210,11801130 7843830,11846000 z M 1776380,700500 C 1776380,700500 1775980,3465550 1775980,3465550 C 1775980,3465550 2644270,3284610 3407960,3292110 C 4676710,3304970 5312360,3987090 5357490,4877750 C 5369010,5104230 5366600,5228650 5366600,5472010 C 5366600,5472010 5366740,9072140 5366740,9072140 L 4028340,9072140 C 4028340,9072140 4028210,5395530 4028210,5395530 C 4028210,4945780 4056730,4386610 3045940,4391430 C 2325650,4395180 1817230,4533400 1817230,4533400 C 1817230,4533400 1817370,9072140 1817370,9072140 L 511380,9072270 L 511250,783540 L 1776380,700500 L 1776380,700500 z M 9900250,3285150 C 9883910,3282330 8705160,3312200 8008710,3472380 C 7196800,3657750 6676340,4148350 6603480,4898240 C 6589410,5042480 6582990,5134360 6582990,5463300 C 6582990,5463300 6583120,9072140 6583120,9072140 L 7920310,9072140 C 7920310,9072140 7919910,5382140 7919910,5382140 C 7919910,5058420 7945360,4852970 8156700,4662920 C 8396310,4448090 8943290,4416750 9256160,4391300 C 9470450,4373760 9899980,4354070 9899980,4354070 C 9899980,4354070 9900250,3285150 9900250,3285150 L 9900250,3285150 z "
   style="fill:#007dc5;fill-opacity:1"
   id="_117513424" />

   <path
   d="M 13814500,5196030 C 14395230,4495550 15081370,3710170 15081370,2747590 C 15081370,1287720 13915220,423580 12520970,423580 C 11168650,423580 10095840,1274460 9977980,2559010 C 9977980,2559010 11307670,2559010 11307670,2559010 C 11400080,1880910 12040820,1627370 12492040,1627370 C 13143220,1627370 13663960,2102170 13663960,2683570 C 13664090,3198680 13406670,3585610 13105860,3950580 C 13105860,3950580 10049900,7634420 10049900,7634420 L 10049900,9072060 L 15021910,9072060 L 15021910,7867330 L 11581430,7867330 C 11581430,7867330 13814500,5196030 13814500,5196030 z M 500200,13301670 L 500340,17541730 L 1031120,17541730 C 1031120,17541730 1030980,16597370 1030980,16597370 C 1030980,16418030 1097950,16309280 1277290,16254100 C 1434790,16205610 1570870,16259450 1658060,16378520 C 1824670,16606070 2403000,17541730 2403000,17541730 C 2403000,17541730 3054980,17541730 3054980,17541730 C 3054980,17541730 2322500,16407850 2238660,16266690 C 2064140,15972570 1852800,15872390 1684440,15844390 C 1818910,15706040 2916760,14576720 2916760,14576720 C 2916760,14576720 2236920,14576720 2236920,14576720 C 2236920,14576720 1197330,15635060 1030980,15804350 C 1030980,15555630 1030980,13301670 1030980,13301670 C 1030980,13301670 500200,13301670 500200,13301670 L 500200,13301670 z M 5256980,14576720 C 5256980,14576720 5256980,16389640 5256980,16389640 C 5257110,16835900 5017910,17091980 4600980,17091980 C 4189260,17091980 3962520,16842470 3962520,16389640 C 3962520,16389640 3962520,14576720 3962520,14576720 L 3431600,14576720 C 3431600,14576720 3431600,16453260 3431600,16453260 C 3431600,16813270 3534870,17096000 3738580,17293950 C 3923670,17478650 4192080,17576420 4514190,17576420 C 4801070,17576420 5106310,17447710 5263010,17251770 C 5263010,17340970 5263010,17541730 5263010,17541730 C 5263010,17541730 5788030,17541730 5788030,17541730 L 5788030,14576720 L 5256980,14576720 z M 6787170,13301670 C 6787170,13301670 6787300,16725540 6787300,16725540 C 6787300,17236630 7079280,17541730 7568400,17541730 C 7568400,17541730 7926670,17541730 7926670,17541730 L 7926670,17068950 C 7926670,17068950 7643810,17068950 7643810,17068950 C 7403400,17068950 7318220,16974660 7318220,16708400 C 7318220,16708400 7318220,13301670 7318220,13301670 L 6787170,13301670 z M 8589380,13701460 C 8589380,13701460 8589380,14494610 8589380,14594260 C 8508880,14594260 8230300,14594260 8230300,14594260 C 8230300,14594260 8230300,15026330 8230300,15026330 C 8230300,15026330 8508880,15026330 8589380,15026330 C 8589380,15132670 8589510,16719920 8589510,16719920 C 8589510,17219090 8898360,17541730 9376500,17541730 C 9376500,17541730 9729020,17541730 9729020,17541730 L 9729020,17068950 C 9729020,17068950 9451910,17068950 9451910,17068950 C 9228910,17068950 9120560,16951090 9120560,16708400 C 9120560,16708400 9120420,15132670 9120420,15026330 C 9213910,15026330 9729020,15026330 9729020,15026330 C 9729020,15026330 9729020,14594260 9729020,14594260 C 9729020,14594260 9213910,14594260 9120420,14594260 C 9120420,14494610 9120420,13701460 9120420,13701460 C 9120420,13701460 8589380,13701460 8589380,13701460 z M 12226200,14576580 C 12226200,14576580 12226200,16389500 12226200,16389500 C 12226200,16835900 11987130,17091850 11570330,17091850 C 11158490,17091980 10931600,16842470 10931600,16389500 C 10931600,16389500 10931470,14576720 10931470,14576720 L 10400690,14576720 C 10400690,14576720 10400690,16453260 10400690,16453260 C 10400690,16813000 10503950,17095730 10707670,17293950 C 10892490,17478510 11160900,17576420 11483270,17576420 C 11770030,17576290 12059460,17461370 12231960,17251630 C 12231960,17340970 12231960,17541730 12231960,17541730 C 12231960,17541730 12757110,17541730 12757110,17541730 L 12757110,14576580 L 12226200,14576580 z M 14328550,14876990 C 14328550,14781630 14328550,14576580 14328550,14576580 C 14328550,14576580 13797640,14576580 13797640,14576580 L 13797780,17541730 L 14328550,17541730 C 14328550,17541730 14328550,15734570 14328550,15734570 C 14328550,15317630 14586380,15026330 14955630,15026330 C 15115820,15026330 15216000,15059010 15325020,15147000 C 15325020,15147000 15400560,15207940 15400560,15207940 L 15500070,14621320 C 15500070,14621320 15455870,14604980 15455870,14604980 C 15340960,14562520 15215060,14542030 15071350,14542030 C 14778040,14542030 14483380,14669260 14328550,14876990 z "
   style="fill:#f8941e;fill-opacity:1"
   id="_50951744" />

  </g>

 </g>
  </g>
</svg>
