<?xml version="1.0" encoding="UTF-8"?>
<svg width="396" height="450" version="1.1" xmlns="http://www.w3.org/2000/svg">
	<path d="m0 337.04v112.04h13.842v-24.795c0-4.59 1.845-8.262 6.462-8.262 3.69-1.836 8.307 0 10.152 3.672 4.617 6.426 20.313 30.303 20.313 30.303h16.614l-22.158-33.057c-4.608-8.271-10.152-10.107-14.76-11.943 3.69-3.672 31.383-33.057 31.383-33.057h-16.614s-26.766 28.467-31.383 31.221v-65.205h-13.851zm125.54 33.057v48.672c0 11.943-6.462 18.369-16.614 18.369s-16.614-6.426-16.614-18.369v-48.672h-15.696v49.59c0 10.098 3.69 16.533 8.307 22.041 5.4439 5.2787 12.721 8.2431 20.304 8.271 8.307 0 14.769-3.672 20.304-8.262v8.262h13.842v-78.057h-13.842zm40.617-33.057v90c0 13.779 8.307 22.041 20.304 22.041h10.152v-11.943h-6.462c-6.462 0-8.307-1.836-8.307-10.098v-90zm46.152 11.016v22.959h-9.234v11.943h9.234v45c0 13.779 8.307 22.041 20.304 22.041h10.152v-11.943h-6.462c-6.462 0-8.307-3.672-8.307-10.098v-43.164h16.614v-11.943h-16.614v-22.959h-15.687zm95.994 22.041v48.672c0 11.943-6.462 18.369-16.614 18.369s-16.614-6.426-16.614-18.369v-48.672h-13.842v49.59c0 10.098 3.69 16.533 8.307 22.041 3.69 4.59 10.152 8.262 20.304 8.262 8.307 0 14.769-3.672 20.304-8.262v8.271h12.924v-78.057h-14.769zm41.544-245.2c14.769-18.369 33.228-38.574 33.228-63.369 0-38.574-30.465-61.533-67.383-61.533-35.082 0-63.693 22.041-67.383 56.943h35.073c1.845-18.369 20.304-24.795 31.383-24.795 16.614 0 30.465 11.943 30.465 28.467 0 13.779-6.462 22.959-14.769 33.057l-80.307 96.426v38.574h131.08v-31.221h-90.459zm13.842 253.47v-8.262h-13.842v78.057h13.842v-46.836c0-11.943 6.462-18.369 16.614-18.369 4.617 0 6.462 1.836 10.152 3.672l1.845 1.836 3.699-14.688h-1.845c-3.69-1.836-6.462-1.836-10.152-1.836-8.307-1.845-15.696 1.836-20.313 6.426" fill="#b64f02" stroke-width="9"/>
	<path d="m192.92 298.47c-63.693 1.836-143.08-10.098-192.92-32.139v-20.205c53.541 22.041 125.54 34.902 189.23 33.057 70.155-1.836 142.16-13.779 192.92-31.221v18.369c-55.386 20.205-119.08 32.139-189.23 32.139m-159.7-292.04v71.631s23.076-4.59 43.389-4.59c33.228 0 49.842 18.369 51.696 41.328v109.29h-36.927v-93.672c0-11.943 0-26.631-24.921-26.631-18.459 0-31.383 3.672-31.383 3.672v118.47h-35.082v-217.66zm215.08 68.877s-31.383 0-49.842 4.59c-22.158 4.59-35.073 18.369-36.927 36.738v109.29h35.073v-95.508c0-8.262 0-13.779 6.462-18.369s20.304-6.426 28.611-6.426c4.617 0 16.614-1.836 16.614-1.836v-28.476z" fill="#007dc5" stroke-width="9"/>
</svg>
