<?xml version="1.0" encoding="UTF-8" standalone="no"?>
<!-- Created with Inkscape (http://www.inkscape.org/) -->
<svg
   xmlns:svg="http://www.w3.org/2000/svg"
   xmlns="http://www.w3.org/2000/svg"
   version="1.0"
   width="566.92914"
   height="566.92914"
   id="svg3855">
  <defs
     id="defs3857">
  
  
 
   
   
   
  </defs>
  <g
     id="layer1">
    <polygon
       points="500000,497630 15500000,497630 15500000,15502400 500000,15502400 500000,497630 "
       transform="matrix(3.543307e-5,0,0,3.543307e-5,9.091797e-6,-5.224043e-4)"
       style="fill:#ed1c24;fill-rule:evenodd"
       id="_46070848" />
    <path
       d="M 281.19969,433.27506 C 203.26004,434.64171 108.81213,420.41285 47.765559,394.07545 L 47.765559,370.33211 C 111.92032,397.54506 199.19835,411.96525 277.13799,410.62234 C 361.20543,409.16392 448.75949,395.02648 509.36882,371.23104 L 509.36882,394.25829 C 441.56338,418.3712 364.78382,431.85348 281.19969,433.27506 L 281.19969,433.27506 z M 342.10736,162.02959 C 333.99921,162.22979 305.67189,162.7131 286.46079,167.12097 C 260.64319,173.02625 244.08744,188.61998 241.77827,212.44766 C 241.33855,217.02526 241.13162,219.94211 241.13162,230.40975 L 241.13162,345.13069 L 283.63323,345.13069 L 283.63323,227.82809 C 283.63323,217.53904 284.44075,211.00483 291.15142,204.96207 C 298.77626,198.14262 316.1615,197.14376 326.09126,196.33837 C 331.31976,195.90077 338.06091,196.25333 342.10736,196.06199 L 342.10736,162.02959 z M 88.33855,79.013806 L 88.323314,166.90554 C 88.323314,166.90554 115.93631,161.15475 140.1952,161.40065 C 180.53115,161.80565 200.74146,183.4829 202.16941,211.79463 C 202.53933,218.99073 202.46103,222.96101 202.46103,230.6925 L 202.46103,345.13069 L 159.91371,345.13069 L 159.91371,228.25896 C 159.91371,213.96065 160.82788,196.18388 128.69186,196.33837 C 105.80174,196.45353 89.637881,200.83731 89.637881,200.83731 L 89.637881,345.13069 L 48.124496,345.13069 L 48.124496,81.662783 L 88.33855,79.013806 L 88.33855,79.013806 z "
       style="fill:#59bdec;fill-rule:evenodd"
       id="_81890664" />
    <path
       d="M 435.21378,351.15821 C 386.17583,351.15821 340.09547,326.96912 339.25996,267.89652 L 394.20744,267.89652 C 395.05216,293.26766 413.65169,304.76286 435.21378,304.76286 C 458.87846,304.76286 475.79563,290.89506 475.79563,265.51754 C 475.79563,242.12711 460.58492,226.65526 433.52468,226.65526 L 425.48421,226.65526 L 425.48421,181.85723 L 433.52468,181.85723 C 460.15405,181.85723 471.57271,166.39849 471.57271,146.57121 C 471.57271,122.78251 454.66441,110.48865 434.79142,110.48865 C 414.08929,110.48865 398.85484,123.1829 397.59449,144.58412 L 342.62929,144.58412 C 343.90488,94.226995 384.06437,64.110657 434.79142,64.110657 C 488.06539,64.110657 526.52941,97.404987 526.52941,144.99125 C 526.52941,175.51436 511.71697,192.96054 491.86807,202.87294 C 513.4213,213.57798 530.75196,233.01337 530.75196,267.10636 C 530.75196,323.39923 486.79193,351.15821 435.21378,351.15821 z "
       style="fill:#fbd800;fill-rule:evenodd"
       id="_47410480" />
  </g>
</svg>
