<?xml version="1.0" encoding="UTF-8"?>
<svg width="449.06" height="450" version="1.1" xmlns="http://www.w3.org/2000/svg">
	<path d="m402.29 0s46.778 0 46.778 50.52v348.96s0 50.52-46.778 50.52h-355.51s-46.778 0-46.778-50.52v-348.96s0-50.52 46.778-50.52z" fill="#c20016"/>
	<path d="m219.85 370.48c-60.811 0.93555-133.78-10.291-180.56-30.873v-18.711c49.584 21.518 116.94 32.744 177.75 31.809 65.489-0.93555 132.85-12.162 179.63-30.873v17.775c-52.391 18.711-112.27 29.938-176.82 30.873m-148.75-279.73v69.231s21.518-4.6778 40.229-4.6778c30.873 0 46.778 17.775 47.713 40.229v105.72h-32.744v-92.62c0-11.227 0.93555-25.26-24.324-25.26-17.775 0-29.938 3.7422-29.938 3.7422v114.14h-32.744v-208.63zm268.5 214.24c-38.358 0-73.909-18.711-73.909-65.489h43.035c0.93555 19.647 14.969 29.002 31.809 29.002 18.711 0 31.809-11.227 31.809-30.873 0-18.711-12.162-30.873-32.744-30.873h-6.5489v-35.551h6.5489c20.582 0 29.938-12.162 29.938-28.067 0-18.711-13.098-28.067-28.067-28.067-15.904 0-28.067 10.291-29.002 27.131h-43.035c0.93555-40.229 31.809-63.617 71.102-63.617 41.164 0 71.102 26.195 71.102 63.617 0 24.324-11.227 38.358-27.131 45.842 16.84 8.42 29.938 23.389 29.938 50.52-0.93555 44.906-35.551 66.424-74.844 66.424m-72.037-148.75c-6.5489 0-28.067 0.93555-43.035 3.7422-19.647 4.6778-32.744 16.84-34.615 35.551 0 3.7422-0.93555 5.6133-0.93555 14.033v90.748h32.744v-92.62c0-8.42 0.93555-13.098 5.6133-17.775 5.6133-5.6133 19.647-6.5489 27.131-6.5489h12.162z" fill="#fff"/>
</svg>
