<?xml version="1.0" encoding="UTF-8"?>
<svg width="799.16" height="450" version="1.1" xmlns="http://www.w3.org/2000/svg">
	<path d="m277.12 438.63h-93.375v-175.21c0-22.316-0.10228-32.4-6.5046-38.761-5.5023-5.4818-16.139-8.2636-34.261-8.2636-13.623 0-29.577 1.7182-49.418 4.9704v217.29h-93.559v-432.74l93.559-5.9114v141.79c20.291-3.3955 45.266-6.5659 66.518-6.5659 43.016 0 71.509 12.559 90.102 31.152 24.791 24.791 26.959 54.123 26.939 88.527zm135.31 0.0818h-93.559v-178.42c0-31.705 1.2477-60.157 26.427-85.336 27.798-27.798 71.898-38.516 168.85-39.518v79.384c-71.57 1.9432-87.893 6.8932-95.216 14.216-5.1545 5.1546-6.5045 12.191-6.5045 27.061zm262.92-197.77c0.20454 0.0409 0.38863 0.0818 0.59317 0.14318v-0.32727c-0.18408 0.0613-0.38863 0.12272-0.59317 0.18409m-32.707 209.07c-34.139 0-65.332-6.7296-92.72-20.025l-16.63-8.0796 20.27-74.577 23.42 9.5523c22.705 9.2659 45.348 13.95 67.295 13.95 18.614 0 33.852-4.725 46.575-14.482 11.066-8.4682 16.2-18.47 16.2-31.48s-5.2773-21.559-17.12-29.761c-13.93-9.6341-33.443-14.502-58.05-14.502h-34.2v-76.991h25.67c23.85 0 43.364-4.7046 58.009-13.95 15.218-9.6341 17.161-20.107 17.161-28.166 0-8.6114-3.0273-14.38-10.145-19.248-9.3682-6.4023-23.461-9.6545-41.891-9.6545-17.182 0-37.105 4.275-59.236 12.702l-25.241 9.6136-14.011-78.259 16.916-6.7295c27.511-10.943 55.698-16.486 83.782-16.486 39.293 0 72.532 9.4295 98.775 28.043 28.227 20.005 43.159 47.516 43.159 79.548 0 22.95-8.8568 44.284-26.366 63.409a118.73 118.73 0 0 1-13.909 13.03c7.8341 5.2364 14.952 11.25 21.293 18.041 18.266 19.493 27.511 41.952 27.511 66.743 0 36.961-16.384 68.175-48.723 92.782-30.498 23.195-66.764 34.957-107.8 34.957" fill="#c20016"/>
</svg>
