<?xml version="1.0" encoding="UTF-8"?>
<svg width="450" height="450" version="1.1" xmlns="http://www.w3.org/2000/svg" xmlns:xlink="http://www.w3.org/1999/xlink">
	<defs>
		<linearGradient id="linearGradient1733" x1="237.13" x2="57.14" y1="-16.094" y2="163.9" gradientTransform="matrix(2.5001 0 0 2.5001 -142.86 40.236)" gradientUnits="userSpaceOnUse">
			<stop stop-color="#ab0066" offset="0"/>
			<stop stop-color="#7c0046" offset="1"/>
		</linearGradient>
	</defs>
	<path d="m85.407 0 364.59 3e-6v364.59c0 47.316-38.092 85.407-85.407 85.407h-364.59v-364.59c0-47.316 38.092-85.407 85.407-85.407z" fill="url(#linearGradient1733)" fill-rule="evenodd" stop-color="#000000" stroke-width="7.5594" style="paint-order:markers stroke fill"/>
	<path d="m227.33 342.26c-49.882 0.85504-110.33-8.1279-149.4-24.766v-14.993c41.059 17.183 96.909 26.299 146.79 25.451 53.81-0.92254 109.84-9.8529 148.62-24.879v14.546c-43.392 15.223-92.532 23.741-146.02 24.641m-123.43-225.74-7e-3 55.507s17.663-3.6327 33.196-3.4802c25.811 0.26002 38.744 13.951 39.659 31.834 0.23001 4.5477 0.18751 7.0503 0.18751 11.936v72.273h-27.226v-73.816c0-9.0279 0.58253-20.253-19.988-20.156-14.646 0.07-24.989 2.8476-24.989 2.8476v91.124h-26.569v-166.4zm165.26 52.26c-0.33251-0.06-24.314 0.37502-38.477 3.5877-16.518 3.7227-27.109 13.568-28.591 28.619-0.28501 2.9001-0.41751 4.7402-0.41751 11.34v72.458h27.199v-74.083c0-6.5028 0.50752-10.623 4.8177-14.441 4.8777-4.3102 15.998-4.9377 22.366-5.4477 4.3602-0.35001 13.101-0.58752 13.101-0.58752v-21.446zm116.62 78.018v-23.121h-20.038v-39.224h-25.551v39.224h-31.796l47.705-111.1h-28.139l-48.075 111.1v23.121h60.305v37.792h26.791v-37.792z" fill="#fff" stroke-width="2.5001"/>
</svg>
