<svg xmlns="http://www.w3.org/2000/svg" width="800" height="296" ><path d="M800 236.8V296c-21.826-2.019-157.212-13.642-217.623-16.742l.001-262.512C642.669 13.435 756.252 3.972 795.833.364v59.055l-153 7.455v55.766l124.756-1.786.001 54.333-124.757-1.784v55.726L800 236.8zm-259.704-37.958c0-61.199-70.013-73.317-118.802-79.12-20.73-2.466-73.115-10.224-73.115-28.248 0-14.586 19.132-26.681 60.795-26.681 32.45 0 60.04 7.407 85.155 23.036a8.39 8.39 0 0 0 10.812-1.684l29.641-34.754c-36.528-25.664-79.58-34.86-121.611-34.86-72.384 0-127.125 26.638-127.125 75.979 0 55.487 63.297 68.678 103.072 74.77 37.154 5.69 88.785 7.874 88.785 31.918 0 21.983-41.374 32-71.902 32-22.723 0-45.35-5.173-78.228-20.786-3.425-1.626-7.519-.742-9.98 2.143l-30.436 35.686c42.261 23.47 91.143 31.21 120.035 31.21 67.176 0 132.903-24.674 132.903-80.607zm-360.92-75.982l-115.882-1.513L63.492 5.79 0 0l.001 295.999 63.491-5.79.001-115.555 115.883-1.512v109.011l60.458-2.9V16.747l-60.458-2.9z" fill="#ff3c28"/></svg>