<svg xmlns="http://www.w3.org/2000/svg" height="124.846" width="599.997"><path d="M183.06 12.06C168.3 11 153.395 19.636 147.393 33.167v-17.74h-25.13c-.537 25.895 1.036 51.882-1.175 77.7-2.192 7.897-13.137 10.198-19.06 5.167-4.368-3.406-2.957-9.5-3.563-14.312l-1-65.196c1.174-3.96-3.02-2.664-5.568-2.965-8.486-.257-16.883-.673-25.146-.404h-16.26l-.507 40.648-24.84.392-.624-41.3-24.52.246v105.41h25.173V80.7H50.39v40.1h24.23v-20.642c4.17 13.895 17.58 24.538 32.257 24.518 14 1.248 29.013-5.388 35.58-18.103 1.07-1.886 1.867-3.893 2.555-5.952 9.254 19.425 34.85 29.492 54.614 20.44 13.282-5.678 22.354-20.287 20.324-34.84-1.276-11.916-10.02-22.194-21.093-26.29-8.955-3.804-19.954-4.62-26.886-12.065-3.12-5.58 2.807-12.512 8.754-12 7.386-.205 13.868 4.544 18.553 9.857 5.72-1.915 8.74-7.585 13.02-11.367 1.006-1.58.44 1.622.362 2.322-.903 2.416.84 5.3 3.557 4.994 7.524-.424 15.1-.074 22.647-.188v80.25h25.158v-80.25h23.357v80.34l146.05-.51s-.192-2.973.01-5.687l.62-26.045 24.65 31.705 29.613-.252s-4.086-7-6.1-9.082c-8.077-11.588-17.097-22.47-24.955-34.202 10.477-3.746 19.412-12.66 21.208-23.93 2.08-10.696-.217-23.23-9.072-30.262-9.42-8.018-22.502-8.603-34.376-8.883-9.123.004-18.365-.038-27.408.492-3.46.776-7.148-.187-10.685.233h-48.894v81.688l-35.494-.494V15.427h-99.805c-.045 3.232.083 6.833-.058 9.858-7.99-7.49-18.288-13.727-29.615-13.226zm224.014 28.526c.235 5.242-.08 10.66 0 15.97l-34.405-.48-.363-15.5h34.77zm31.474 0c4.998-.015 11.697-.133 14.444 4.864 2.088 4.517-2.78 9.083-7.098 9.523-3.93.946-8.028.513-12.05.508V40.586h4.704zm-290.98 16.303c5.665 11.897 18.233 18.074 30.18 22.115 5.027 2.122 10.647 3.448 14.78 7.15 3.217 3.322 2.096 8.868-1.613 11.324-5.353 4.246-13.317 3.148-18.262-1.264-4.548-3.433-8.246-7.813-12.413-11.657-4.766 4.666-10.115 8.75-14.546 13.675 2.385-9.47 1.057-19.347 1.612-29.005l.1-12.702.16.362zm259.39 28.424l.058 11.788-34.504-.478.157-16.433 34.3-.48v5.604z"/><path d="M98.262 119.55c-9.502-3.097-16.644-10.218-19.756-19.693-1.918-5.844-2.006-7.758-2.006-43.45V19.072l17.26.536.467 37.322c.418 33.4.64 37.64 2.12 40.346 4.2 7.688 16.457 9.864 23.272 4.13 6.18-5.2 6.29-5.993 6.312-46.108l.02-36.156h17.727V54.47c0 19.43-.403 37.453-.895 40.052-2.05 10.8-8.247 19.017-17.627 23.345-4.293 1.98-6.914 2.883-14.134 3.095-5.634.167-10.284-.604-12.76-1.4zm75.74-.023c-9.126-2.262-18.447-8.808-22.977-16.14l-1.997-3.23 4.99-5.054c4.98-4.134 6.18-5.37 6.18-5.37s10.435 10.755 15 12.46c5.955 2.228 9.396 2.328 13.993.407 7.087-2.96 10.256-8.504 8.5-14.866-1.236-4.48-5.544-7.47-16.263-11.303-15.385-5.187-32.06-13.75-32.837-31.636.006-6.788 1.558-9.112 3.173-12.124 2.973-5.564 8.42-10.7 14.255-13.426 4.656-2.183 6.306-3.442 15.924-3.442 9.67 0 11.254 1.252 16.025 3.49 2.913 1.366 7.237 4.272 9.6 6.46l4.315 3.977-11.62 11.724-3.424-3.092c-7.6-6.865-19.604-8.223-25.2-2.85-1.54 1.474-3.27 4.25-3.846 6.17-2.464 8.226 4.313 14.162 21.614 18.93 18.877 5.2 28 16.11 26.85 32.1-1.387 19.32-21.345 31.988-42.245 26.81zm68.578-41.605V37.8h-26.123V19.14h69.046V37.8H260.3v80.242h-17.727v-40.12zm48.518-9.317V19.14h17.728v81.135l36.855.506v16.795l-54.583.494V68.606zm60.648 0V19.14h54.116v17.727H368.72l.29 22.86 35.922.505v15.78l-35.922.506.183 23.753 36.205.5v16.796l-53.65.495V68.61zm59.047 49.065l-.04-50.482.242-48.52 14-.26c24.854-.46 36.036 1.912 43.315 9.2 5.086 5.086 7.048 10.4 7.037 19.06-.01 9.277-2.538 15.53-8.493 21.018-3.92 3.613-11.796 7.5-15.586 8.38L466.5 96.902l14.93 20.546c0 .358-4.708.532-10.462.387l-10.46-.263-29.93-38.45-.933 38.45-9.114.267-9.75-.17zm39.89-60.513c6.536-3.298 8.52-10 4.476-15.15-3.054-3.882-7.127-5.144-16.607-5.144h-8.427v22.393h8.2c6.648 0 8.986-.397 12.36-2.1zM3.722 68.086V19.07l17.144-.17.37 21.022.25 20.315 32.154-.5.503-40.588H70.9v97.97H54.107V76.99H21.45v40.12H3.724V68.09z" fill="#b7b7b7"/><path stroke="#000" fill="#020000" d="M518.46.26c-23.634.3-47.363-.552-70.916 1.64-2.882.674-5.73.575-7.113 3.217-.464.358-2.146-.764-4.508-.163-4.946 1.258-12.102 4.5-11.9 5.613.37 1.95 16.617 4.45 18.692 4.82.97.256 3.984-.88 3.55.54 1.168 1.715 6.848 3.16 11.45 3.438 11.596.712 22.08.284 33.512 2.037-9.725 19.972-20.303 41.39-23.543 63.575-.416 4.025-.657 8.133.487 12.06 1.15 2.985 3.562 4.795 6.973 6.56 1.82 4.184 6.726 4.763 7.913.562 1.432-2.964 2.836-5.936 3.006-9.354 3.213-17.668 8.22-35.18 16.578-51.144 2.894-5.237 5.967-10.615 10.177-14.807-3.947 19.207-8.497 38.513-8.724 58.198.213 5.342.84 11.574 5.27 15.142 3.3 2.594 8.575 1.924 10.813-1.766 8.956-10.82 16.406-22.893 26.162-33.138 13.643-15.5 28.852-29.547 44.988-42.506.923-.765 7.998-4.813 8.388-5.954.488-1.423-3.25-1.15-4.3-2.44.24-1.783 1.132-2.817 1.834-4.642 1.465-3.8-3.803.403-3.893-.108-.32-1.82-.403-3.23-2.183-2.77-2.96.247-8.913 2.18-11.563 2.832-3.147-.45-6.817 4.855-9.695 5.835-1.478.58-.83-3.596-2.343-2.484-2.68 1.968-7.525 9.507-10.026 10.822-10.85 10.997-20.686 22.95-30.485 34.914 2.58-11.38 5.076-22.98 10.77-33.26.88-1.87.836-4.257-.203-5.95 4.36-.42 9.132-4.476 9.43-8.58.005-.66 2.757-1.663 2.852-2.334.213-1.513-3.062-3.033-3.886-4.474-2.14-5.126-8.348-6.128-13.298-5.86-4.76-.122-9.523-.122-14.285-.077z" stroke-width=".465"/><path fill="#cf0712" d="M478.098 98.303c-.168-3.852-.228-3.94-1.087-1.586-.443 1.2-1.064 1.985-1.696 2.287-.58.277-1.085 3.274-1.547 2.727-.226-.268-.504-3.754-.65-4.228-.47-1.486-.64-2.908-.627-5.78 0-.133-.64 3.894-.675 3.5-.24-2.876.292-5.248.3-5.38.32-4.8 1.114-10.644 2.273-15.107 3.057-11.762 10.44-30.813 17.247-44.507l6.13-12.33-10.075-.58c-5.542-.32-16.602-.595-24.578-.613-13.295-.028-18.007-.978-9.923-1.883 1.21-.136 4.117-.142 5.84-.28 11.74-.934 11.2-2.334-.946-2.4-5.708-.034-11.194-.414-12.2-.842s-2.893-.808-2.285-.843 2.474-.603 2.22-1.26c-.13-.34-1.23-2.036-.677-2.077 1-.074 1.952-1.04 2.91-1.33 2.22-.672 10.432-1.604 46.506-1.822 43.276-.262 44.18.945 45.978 2.74 2.127 2.128 1.68 4.136-1.135 5.072l-1.977.657 3.108.216c1.12.22 1.254 1.174.976 1.737-1.07 2.092-4.654 3.255-16.273 3.255-7.432 0-13.35.116-14.188.646-.393.247 3.236-.122 3.368.38.305 1.166-1.185 3.417-3.974 5.868-10.318 9.062-21.213 33.122-27.3 60.287-1.297 5.793-2.36 11.4-2.36 12.463s-.378 1.93-.84 1.93-1.732 5.7-1.96 6.572-.73-4.177.114-7.48zm-2.753-5.945c0-4.392-1.412-3.898-1.673.586-.14 2.393.117 3.497.73 3.12.52-.322.947-2 .947-3.705zM454.498 8.573c0-.5-.995-.906-2.212-.906s-2.465.408-2.773.906c-.327.528.595.905 2.213.905 1.525 0 2.772-.407 2.772-.905zm58.215 90.03c-2.427-.977-3.833-5.645-3.83-12.718.004-9.895 1.302-19.418 5.783-42.413 3.708-19.028 3.997-19.994 6.3-21.127 2.678-1.31 9.5-.704 11.885 1.057 1.254.926 1.217 1.373-.35 4.21-3.086 5.587-3.782 7.488-6.97 19.034-3.27 11.85-6.357 28.733-5.422 29.667.3.3.664.375.8.168 8.287-11.766 39.265-47.962 41.048-47.962.403 0 1.93-1.122 3.392-2.492l2.66-2.493-1.085 2.266c-.858 1.792-.405 1.554 2.16-1.133 3.086-3.232 4.885-4.452 3.67-2.492-.308.498-.153.905.346.905s2.448-1.7 2.743-2.167-.65 1.307.056 1.578 3.096-1.143 4.74-2.35c2.83-2.074 7.07-3.126 7.07-1.755 0 .348-.816 1.142-1.813 1.764s-1.813 1.56-1.813 2.082.903.318 2.014-.46 2.353-1.412 2.766-1.412-3.42 3.323-8.516 7.384c-18.842 15-42.73 40.34-55.866 59.234-5.147 7.405-9.218 12.292-10.13 12.164-.28-.04-1.03-.28-1.662-.535zm70.485-78.564c0-.498-1.02.052-2.266 1.222s-2.266 2.537-2.266 3.035 1.02-.05 2.266-1.222 2.266-2.536 2.266-3.035z"/><path stroke-width=".497" stroke="#b7b7b7" d="M536.106 100.344v-8.476H533.5v-1.133h6.247v1.133h-2.61v8.476zm4.692 0v-9.6h1.567l1.868 6.804.373 1.423.42-1.54 1.888-6.687h1.403v9.6h-1.004V92.3l-2.295 8.043h-.937l-2.276-8.176v8.176z" fill="#b7b7b7"/></svg>