<svg width="697.49" height="450" version="1.1" xmlns="http://www.w3.org/2000/svg">
	<path d="m329.59 0-46.656 46.101-2.3903 13.303-50.236 49.792-1.5429 12.93-20.907 22.037-28.118-34.049-30.983 30.609-1.5837 8.8349-33.363 33.07-1.0286 8.5827-36.943 38.95 1.2305 4.2964-40.957 41.27 1.5533 6.4648-37.659 45.607h697.49l-40.534-50.296 0.40277-6.7674-35.844-36.167-2.4306-10.156-31.003-29.137-2.3092-9.1879-25.335-32.485-15.4-14.463-3.6306-8.5828-60.664-73.473-28.713 33.04-11.78 16.016-14.735 14.594-18.093-21.381-4.3871-10.388zm-6.5657 35.37-13.898 83.548 68.652 114.57 3.1974 81.491h-32.092l-6.9489-8.4214 0.32015-5.4461-28.824-29.076-1.9467-8.1692-39.989-42.631-1.8559-7.3927-25.819-26.121-12.385-11.629-2.915-6.8985-8.6834-10.509 25.486-26.878 1.4324-11.83 46.363-45.97 2.2189-12.335zm156.19 47.725-1.6643 62.187 33.685 41.179-0.84685 36.711-46.414-55.783-4.73-12.103-22.632-23.106 22.47-22.198 1.6039-8.1289zm-303.84 50.508-9.2282 76.055 49.661 50.367 5.769 54.956h-194.85l28.26-34.22-1.3519-5.6277 38.124-38.406-1.1701-4.0846 33.191-34.997 0.94807-7.8566 30.791-30.529 1.4727-8.1894z" fill="#fff"/>
	<path d="m0 387.68c0-3.53 1.2558-6.2115 3.768-8.0444 2.5793-1.8329 6.3132-2.7493 11.201-2.7493v29.836h28.614v-19.042c0-3.53 1.2558-6.2115 3.7675-8.0444 2.5793-1.8329 6.3132-2.7493 11.201-2.7493v62.319c0 3.53-1.2899 6.2115-3.8697 8.0444-2.5117 1.8329-6.2115 2.7494-11.099 2.7494v-30.345h-28.614v19.551c0 3.53-1.2899 6.2115-3.8692 8.0444-2.5122 1.8329-6.212 2.7494-11.1 2.7494zm93.71 62.319c-5.5665 0-10.692-1.0861-15.376-3.2585-4.6841-2.2402-8.4175-5.2272-11.201-8.9609-2.7156-3.8016-4.0732-7.8747-4.0732-12.219v-24.235c0-4.3446 1.3576-8.3838 4.0732-12.118 2.7833-3.8016 6.5167-6.7886 11.201-8.9609 4.6841-2.2402 9.8096-3.3603 15.376-3.3603 5.5665 0 10.692 1.1201 15.376 3.3603 4.684 2.1724 8.3839 5.1593 11.099 8.9609 2.7833 3.7337 4.1749 7.7729 4.1749 12.118v24.235c0 4.3446-1.3916 8.4178-4.1749 12.219-2.7151 3.7337-6.415 6.7207-11.099 8.9609-4.6841 2.1724-9.8096 3.2585-15.376 3.2585zm0-13.034c4.6164 0 8.3839-1.0861 11.303-3.2585 2.9191-2.1724 4.3789-4.9896 4.3789-8.4518v-23.624c0-3.4622-1.4598-6.2794-4.3789-8.4518-2.9191-2.1723-6.6866-3.2585-11.303-3.2585-4.6159 0-8.3839 1.0862-11.303 3.2585-2.9191 2.1724-4.3784 4.9896-4.3784 8.4518v23.624c0 3.4622 1.4593 6.2794 4.3784 8.4518 2.9191 2.1723 6.6871 3.2585 11.303 3.2585zm-10.692-64.864c-2.2406 0-4.0732-0.67888-5.4989-2.0366-1.4257-1.4256-2.1383-3.2245-2.1383-5.3969s0.7126-3.9713 2.1383-5.3969c1.4257-1.4256 3.2583-2.1384 5.4989-2.1384 2.24 0 4.0391 0.71282 5.3967 2.1384 1.4257 1.4256 2.1383 3.2246 2.1383 5.3969s-0.7126 3.9713-2.1383 5.3969c-1.3576 1.3577-3.1566 2.0366-5.3967 2.0366zm21.587 0c-2.24 0-4.0727-0.67888-5.4984-2.0366-1.4257-1.4256-2.1388-3.2245-2.1388-5.3969 0-2.2402 0.71312-4.0392 2.1388-5.3969 1.4257-1.4256 3.2583-2.1384 5.4984-2.1384 2.1724 0 3.9715 0.71282 5.3972 2.1384 1.4257 1.4256 2.1383 3.2246 2.1383 5.3969s-0.7126 3.9713-2.1383 5.3969c-1.3576 1.3577-3.1566 2.0366-5.3972 2.0366zm24.263 15.58c0-3.53 1.2558-6.2115 3.7675-8.0444 2.5798-1.8329 6.3137-2.7493 11.201-2.7493v29.836h28.613v-19.042c0-3.53 1.2558-6.2115 3.768-8.0444 2.5793-1.8329 6.3132-2.7493 11.201-2.7493v62.319c0 3.53-1.2899 6.2115-3.8692 8.0444-2.5116 1.8329-6.2115 2.7494-11.1 2.7494v-30.345h-28.613v19.551c0 3.53-1.2899 6.2115-3.8692 8.0444-2.5122 1.8329-6.212 2.7494-11.1 2.7494zm65.096-3.0548c0-1.9008 0.71261-3.4961 2.1383-4.7859 1.4934-1.3577 3.2924-2.0365 5.3967-2.0365h45.517c0 4.4804-0.74668 7.7389-2.24 9.7755-1.4934 2.0365-3.9033 3.0548-7.2298 3.0548h-28.613v16.089h26.679c0 4.4804-0.74668 7.739-2.24 9.7755-1.4934 2.0365-3.9033 3.0548-7.2298 3.0548h-17.209v16.7h30.752c3.2588 0 5.6347 1.0183 7.1281 3.0548 1.4934 2.0365 2.24 5.295 2.24 9.7755h-47.554c-2.1042 0-3.9033-0.6449-5.3967-1.9347-1.4257-1.2899-2.1383-2.9191-2.1383-4.8878zm59.597 3.9713c0-3.598 1.2218-6.4491 3.6658-8.5536 2.444-2.1044 5.7364-3.1567 9.8773-3.1567l29.225 46.252v-46.252c4.8199 0 8.4856 0.91646 10.997 2.7493 2.5117 1.8329 3.7675 4.5144 3.7675 8.0444v52.441c0 1.6971-0.54322 3.3264-1.6292 4.8877-1.0183 1.4935-2.4099 2.7154-4.1749 3.6658-1.765 0.88254-3.6317 1.3238-5.6006 1.3238l-31.363-49.613v38.819c0 3.53-1.2558 6.2115-3.7675 8.0444-2.5117 1.8329-6.1774 2.7494-10.997 2.7494zm64.077-3.9713c0-1.9687 0.71312-3.5979 2.1388-4.8878 1.4934-1.2898 3.2924-1.9347 5.3967-1.9347h26.781c7.6031 0 13.441 1.9687 17.514 5.906 4.1408 3.8695 6.2115 9.4021 6.2115 16.598 0 4.0053-0.81484 7.3656-2.444 10.081-1.5615 2.7154-4.0055 4.8538-7.3315 6.4152v0.40742c5.9058 2.6475 8.859 7.6371 8.859 14.969v7.0261c0 3.53-1.2899 6.2115-3.8697 8.0444-2.5116 1.8329-6.2115 2.7494-11.099 2.7494v-17.311c0-3.3943-0.67903-5.8721-2.0366-7.4335-1.2899-1.6292-3.2924-2.4438-6.008-2.4438h-19.347v16.394c0 3.53-1.2558 6.2115-3.7675 8.0444-2.5122 1.8329-6.1779 2.7494-10.998 2.7494zm33.502 25.457c3.1225 0 5.4989-0.84856 7.1281-2.5457 1.6292-1.6971 2.444-4.141 2.444-7.3316 0-3.3264-0.78076-5.7702-2.3423-7.3316-1.4934-1.5614-3.9033-2.3421-7.2298-2.3421h-18.736v19.551zm38.417 39.917c-3.2583-0.27161-5.8041-1.3238-7.6367-3.1567-1.8331-1.8329-2.7497-4.141-2.7497-6.9243 0-2.1723 0.54324-4.4465 1.6292-6.8225l23.013-51.219c0.74668-1.6971 1.6968-2.953 2.8509-3.7676 1.2223-0.81463 2.7156-1.222 4.4806-1.222s3.2248 0.40741 4.3789 1.222c1.2218 0.81464 2.206 2.0705 2.9526 3.7676l23.013 51.219c1.0859 2.376 1.6292 4.6162 1.6292 6.7206 0 2.8512-0.91657 5.1932-2.7492 7.0261-1.8331 1.8329-4.413 2.8851-7.7389 3.1567l-8.5538-18.635h-25.966zm29.937-31.465-8.3183-20.675-8.5848 20.675zm55.626 31.465c-5.8382 0-11.1-1.154-15.784-3.4622-4.6159-2.376-8.2481-5.6684-10.896-9.8773-2.5793-4.2089-3.8692-8.9269-3.8692-14.154v-34.825c0-3.53 1.2558-6.2115 3.7675-8.0444 2.5793-1.8329 6.3132-2.7493 11.201-2.7493v45.619c0 4.4126 1.3916 7.9426 4.1749 10.59 2.8509 2.5797 6.6525 3.8695 11.405 3.8695 4.7517 0 8.5192-1.2898 11.303-3.8695 2.8509-2.6475 4.2766-6.1776 4.2766-10.59v-34.825c0-3.53 1.2558-6.2115 3.7675-8.0444 2.5798-1.8329 6.3137-2.7493 11.201-2.7493v45.619c0 5.2272-1.324 9.9452-3.9715 14.154-2.5793 4.2089-6.2115 7.5013-10.896 9.8773-4.6159 2.3081-9.8432 3.4622-15.681 3.4622zm65.401 0c-9.5039 0-17.039-1.6293-22.606-4.8878-5.4989-3.2585-8.2481-7.7729-8.2481-13.543 0-2.5118 0.95065-4.5483 2.8514-6.1097 1.9008-1.5614 5.091-2.342 9.5716-2.342 0.27368 4.9556 1.969 8.7232 5.0915 11.303 3.1907 2.5118 7.6372 3.7676 13.34 3.7676 4.4124 0 7.8748-0.74673 10.386-2.2402 2.5117-1.5614 3.7675-3.6997 3.7675-6.4152 0-1.8329-0.47506-3.3264-1.4252-4.4804-0.95065-1.154-2.6139-2.2063-4.9897-3.1567-2.3082-0.9504-5.7024-1.9348-10.183-2.953-6.7883-1.5614-12.117-3.3264-15.987-5.2951-3.8692-1.9687-6.6866-4.3107-8.4515-7.0261-1.6973-2.7154-2.5457-6.1097-2.5457-10.183 0-3.8695 1.1541-7.2638 3.4623-10.183 2.3759-2.987 5.6683-5.2951 9.8773-6.9243 4.209-1.6293 9.0965-2.4439 14.663-2.4439 5.2954 0 10.047 0.7128 14.256 2.1384 4.209 1.3577 7.5014 3.2924 9.8773 5.8042s3.564 5.3969 3.564 8.6554c0 2.5118-0.95065 4.5144-2.8514 6.0079-1.8326 1.4256-4.8875 2.2063-9.1641 2.342-0.34081-4.5483-1.7324-7.8747-4.1749-9.9791-2.444-2.1044-6.2797-3.1567-11.507-3.1567-4.2766 0-7.569 0.67883-9.8772 2.0365-2.3077 1.3577-3.4618 3.3264-3.4618 5.906 0 1.765 0.43893 3.2246 1.3235 4.3786 0.88249 1.0862 2.3764 2.0705 4.4806 2.953 2.1724 0.88254 5.2608 1.765 9.2664 2.6476 6.9923 1.5614 12.525 3.3603 16.598 5.3969 4.1408 1.9687 7.1281 4.3446 8.9607 7.128 1.9008 2.7833 2.8514 6.2115 2.8514 10.285 0 4.141-1.1882 7.7729-3.564 10.896-2.3082 3.1227-5.6347 5.5326-9.9795 7.2298-4.2766 1.6293-9.334 2.4439-15.172 2.4439zm62.856 0c-6.1098 0-11.575-1.188-16.394-3.564-4.8199-2.376-8.5874-5.6684-11.303-9.8773-2.6475-4.2768-3.9715-9.1306-3.9715-14.561v-17.311c0-5.4308 1.2899-10.251 3.8697-14.46 2.6475-4.2089 6.3132-7.4674 10.997-9.7755 4.7522-2.376 10.149-3.564 16.19-3.564 6.0421 0 11.439 0.91646 16.191 2.7493 4.7522 1.765 8.418 4.2768 10.997 7.5353 2.6475 3.2585 3.9714 6.9583 3.9714 11.099 0 2.7154-0.88248 4.8538-2.6475 6.4152-1.7655 1.4935-4.1754 2.2402-7.2298 2.2402-1.7655 0-3.4964-0.23754-5.1932-0.71276 0.20139-1.4256 0.30467-3.1567 0.30467-5.1932 0-3.2585-1.5274-5.906-4.5823-7.9426-3.0549-2.1045-6.9923-3.1567-11.812-3.1567-4.7517 0-8.6209 1.3916-11.608 4.175-2.9872 2.7154-4.4806 6.2455-4.4806 10.59v17.311c0 4.4126 1.5274 8.0105 4.5823 10.794 3.1225 2.7833 7.1622 4.175 12.118 4.175 4.8199 0 8.7232-1.0183 11.71-3.0549 3.0549-2.0366 4.5823-4.6841 4.5823-7.9426 0-2.2402-0.10327-3.8695-0.30465-4.8878 1.8326-0.40743 3.4959-0.61098 4.9892-0.61098 3.0549 0 5.4989 0.78071 7.3315 2.3421 1.8331 1.5614 2.7497 3.6997 2.7497 6.4152 0 4.0052-1.324 7.6031-3.9715 10.794-2.5793 3.1227-6.2451 5.5666-10.997 7.3316-4.6841 1.765-10.047 2.6475-16.089 2.6475zm35.565-62.319c0-3.53 1.2558-6.2115 3.768-8.0444 2.5793-1.8329 6.3132-2.7493 11.201-2.7493v29.836h28.614v-19.042c0-3.53 1.2558-6.2115 3.7675-8.0444 2.5793-1.8329 6.3132-2.7493 11.201-2.7493v62.319c0 3.53-1.2899 6.2115-3.8697 8.0444-2.5117 1.8329-6.2115 2.7494-11.099 2.7494v-30.345h-28.614v19.551c0 3.53-1.2899 6.2115-3.8692 8.0444-2.5122 1.8329-6.212 2.7494-11.1 2.7494z" fill="#fff"/>
</svg>
