<?xml version="1.0" encoding="UTF-8"?>
<svg width="450" height="450" version="1.1" xmlns="http://www.w3.org/2000/svg">
	<defs>
		<radialGradient id="radialGradient5349" cx="-1251.5" cy="-945.61" r="64.146" gradientTransform="matrix(5.7472 0 0 5.7472 7417.3 5434.6)" gradientUnits="userSpaceOnUse">
			<stop stop-color="#0d5ac4" offset="0"/>
			<stop stop-color="#07326d" offset=".4584"/>
			<stop stop-color="#05214b" offset="1"/>
		</radialGradient>
	</defs>
	<path d="m0 0h450v450h-450z" fill="url(#radialGradient5349)"/>
	<path d="m142.14 302.72-9.5544-16.433h-8.0247l-6.1148 31.528h8.5986l3.2488-17.197 9.936 17.197h7.4516l6.1145-31.528h-8.5979zm13.566 15.095h25.031l1.5286-7.8342h-16.624l0.95548-4.968h14.904l1.3375-6.8788h-14.903l0.76396-4.2037h16.433l1.5283-7.643h-25.031zm74.711-31.528-8.9809 17.961-2.4841-17.961h-7.4519l-9.3629 17.961-1.9106-17.961h-9.1714l4.3947 31.528h7.4516l9.7445-17.961 2.6756 17.961h7.4523l16.432-31.528zm19.107 8.7895q0.18941-0.9554 1.0509-1.5286 0.85972-0.57322 2.3883-0.57322 2.1014 0 4.2039 0.76428 2.1018 0.76438 4.0124 2.293l5.541-6.1144q-2.2926-1.9108-5.159-2.9617-2.8661-1.0509-6.8784-1.0509-5.5417 0-9.3632 2.7706-3.8209 2.7706-4.5855 7.1654-0.95548 4.7768 2.0064 6.6876 2.9618 1.9108 7.7382 3.0572 3.0572 0.76435 4.0127 1.4331 0.95583 0.6688 0.76466 1.6242h-0.18941q-0.18941 1.1465-1.1456 1.7197-0.95583 0.57328-2.6756 0.57328-2.6753 0-5.0636-0.95544-2.3883-0.95541-4.2993-2.8662l-5.9233 5.7323q2.2929 2.484 5.8276 3.8216 3.535 1.3375 7.7392 1.3375 5.5406 0 9.5537-2.6751 4.0127-2.6751 4.9675-7.4519 0.76431-4.3948-1.9106-6.4966-2.6749-2.1019-7.8339-3.2483-3.0572-0.76431-4.0127-1.3375-0.95513-0.57325-0.76396-1.7197zm49.106-55.412 54.648-59.807-11.655 59.807zm98.023 0h-21.401l21.21-109.49h-42.992l-99.551 109.49h-92.672q2.4841-8.9806 9.6495-15.095 7.165-6.1144 18.057-6.1144h43.565q8.9806 0 16.91-3.535 7.9304-3.5349 13.853-9.5538 5.923-6.0189 9.4583-14.044 3.535-8.0252 3.535-17.006 0-9.1716-3.535-17.197-3.5353-8.0253-9.4583-13.949-5.923-5.9234-13.853-9.4583-7.929-3.535-16.91-3.535h-84.456l-6.4968 33.056h90.953q4.2032 0 7.3565 3.3438 3.1523 3.3438 3.1523 7.7386t-3.1523 7.7386q-3.1534 3.3438-7.3565 3.3438h-43.565q-11.465 0-21.688 3.8215-10.223 3.8216-18.439 10.891-8.2159 7.0698-13.853 16.91-5.6368 9.8405-8.1205 21.687l-4.777 25.795q-2.6753 2.8662-12.324 12.038-9.6498 9.1717-14.236 7.643-2.1014-0.76424-2.1972-3.3438-0.09471-2.5795-0.09471-3.917l19.489-100.12h-36.496l-2.8657 14.426t-6.2099 31.719q-6.2095 31.719-6.2095 31.91 0 0.19117-2.8664 14.999-2.6756 13.184-4.2035 24.649-1.5286 11.464 1.5279 17.77 4.7774 9.936 14.427 6.7832 9.6491-3.1528 19.967-11.847 10.318-8.694 19.395-19.203 9.0756-10.509 12.706-15.286h213.24l-6.3053 33.056h22.165q4.9682 0 8.789-3.1527 3.8219-3.1528 4.7774-8.1207l4.395-21.783h21.209zm-274.77-109.49h-13.948q-9.936 0-17.579 6.3056-7.6431 6.3054-9.3625 16.05l-2.1014 10.7h36.495z" fill="#fff"/>
</svg>
