<svg xmlns="http://www.w3.org/2000/svg" width="800" height="391.86" viewBox="0 0 211.673 103.682" ><path d="M191.525 103.682H0L20.161 0h191.511z" fill="#f0f0f0"/><path d="M72.143 84.263l-3.885-6.682h-3.263l-2.486 12.819h3.496l1.321-6.992 4.04 6.992h3.03l2.486-12.819h-3.496zm5.516 6.138h10.178l.622-3.185h-6.759l.388-2.02h6.06l.544-2.797h-6.06l.311-1.709h6.682l.622-3.108H80.068zm30.378-12.819l-3.652 7.303-1.01-7.303h-3.03l-3.807 7.303-.777-7.303h-3.729l1.787 12.819h3.03l3.962-7.303 1.088 7.303h3.03l6.682-12.819zm7.769 3.574q.078-.388.388-.622.388-.233 1.01-.233.855 0 1.709.311.855.311 1.632.932l2.253-2.486q-.932-.777-2.098-1.165-1.165-.466-2.797-.466-2.253 0-3.807 1.165-1.554 1.088-1.865 2.875h0q-.388 1.942.777 2.719 1.243.777 3.185 1.243 1.243.311 1.632.622.388.233.311.622h-.078q-.078.466-.466.699-.388.233-1.088.233-1.088 0-2.098-.388-.932-.388-1.709-1.165l-2.409 2.331q.932 1.01 2.331 1.554 1.476.544 3.185.544 2.253 0 3.885-1.088 1.632-1.088 2.02-3.03h0q.311-1.787-.777-2.642-1.088-.855-3.185-1.321-1.243-.311-1.632-.544-.388-.233-.311-.699zm19.967-22.531l22.22-24.318-4.739 24.318zm39.857 0h-8.702l8.624-44.519h-17.481l-40.478 44.519H79.912q1.01-3.652 3.885-6.138Q86.749 50 91.178 50h17.714q3.652 0 6.837-1.398 3.263-1.476 5.672-3.885 2.409-2.486 3.807-5.749 1.476-3.263 1.476-6.915 0-3.729-1.476-6.992-1.398-3.263-3.807-5.672-2.409-2.409-5.672-3.807-3.185-1.476-6.837-1.476H74.552L71.91 27.547h36.982q1.709 0 2.952 1.398 1.321 1.321 1.321 3.108 0 1.787-1.321 3.185-1.243 1.321-2.952 1.321H91.178q-4.662 0-8.857 1.554-4.118 1.554-7.459 4.429-3.341 2.875-5.672 6.915-2.253 3.962-3.263 8.779l-1.942 10.489q-1.088 1.165-5.05 4.895-3.885 3.729-5.749 3.108-.855-.311-.932-1.321 0-1.088 0-1.632l7.925-40.712h-14.84q0 0-1.165 5.905-1.165 5.827-2.564 12.897-1.321 6.992-2.486 12.975-1.165 5.905-1.165 6.06-1.088 5.361-1.709 10.023-.622 4.662.622 7.226 1.942 4.04 5.827 2.719 3.962-1.243 8.158-4.739 4.195-3.574 7.847-7.847 3.729-4.273 5.205-6.216h86.706l-2.564 13.441h9.012q2.02 0 3.574-1.243 1.554-1.321 1.942-3.341l1.787-8.857h8.624zM63.907 14.106h-5.672q-4.04 0-7.148 2.564-3.108 2.564-3.807 6.526l-.855 4.351h14.84z" fill="#1a1a1a"/></svg>