<?xml version="1.0" encoding="UTF-8" standalone="no"?>
<!-- Created with Inkscape (http://www.inkscape.org/) -->
<svg
   xmlns:svg="http://www.w3.org/2000/svg"
   xmlns="http://www.w3.org/2000/svg"
   version="1.0"
   width="602.36218"
   height="133.47638"
   id="svg5764">
  <defs
     id="defs5766" />
  <g
     id="layer1">
    <g
       transform="matrix(3.543307e-5,0,0,3.543307e-5,-8.895182e-4,-3.186624e-3)"
       style="fill-rule:evenodd"
       id="Layer_x0020_1">
  
  <g
   id="_132099672">
   <path
   d="M 6275980,1331630 L 5960510,1331630 C 5666250,1331630 5315370,1476630 5315370,2166680 L 5315370,2431460 C 5315370,3122180 5666250,3267180 5960510,3267180 L 6275980,3267180 C 6570380,3267180 6921310,3122180 6921310,2431460 L 6921310,2166680 C 6921310,1476630 6570380,1331630 6275980,1331630 z M 6490930,2431460 C 6490930,2840370 6351230,2840370 6275980,2840370 L 5960510,2840370 C 5885450,2840370 5745750,2840370 5745750,2431460 L 5745750,2166680 C 5745750,1995480 5770740,1882460 5820130,1831090 C 5856890,1792640 5905510,1792790 5952500,1792980 L 6283990,1792980 C 6331120,1792790 6379790,1792640 6416550,1831090 C 6465900,1882460 6490930,1995480 6490930,2166680 L 6490930,2431460 z M 3069070,1375720 L 3069070,2393350 L 2453060,1375720 L 1983230,1375720 L 1983230,3226180 L 2412540,3226180 L 2412540,2110190 L 3082720,3226180 L 3498430,3226180 L 3498430,1375720 L 3069070,1375720 z M 500000,1375720 L 500000,1805040 L 870470,1805040 L 870470,2829660 L 500000,2829660 L 500000,3225990 L 1681300,3225990 L 1681300,2829660 L 1309820,2829660 L 1309820,1805040 L 1681300,1805040 L 1681300,1375720 L 500000,1375720 L 500000,1375720 z M 3864460,1375720 L 3864460,3225990 L 4316310,3225990 L 4316310,2592280 L 4995120,2592280 L 4995120,2151530 L 4316310,2151530 L 4316310,1816470 L 5185170,1816470 L 5185170,1375720 L 3864460,1375720 L 3864460,1375720 z "
   style="fill:#005fa8"
   id="_83539928" />

   <path
   d="M 11058600,762420 L 11058600,1546050 C 10966900,1412140 10783590,1331100 10593200,1331100 C 10163690,1331100 9933930,1612910 9933930,2159350 L 9933930,2437390 C 9933930,2983690 10163690,3265640 10593200,3265640 C 10783590,3265640 10966900,3184310 11058600,3050740 L 11058600,3225990 L 11421400,3225990 L 11421400,762420 L 11058600,762420 L 11058600,762420 z M 11058600,2458520 C 11058600,2758180 10920930,2930920 10677900,2930920 C 10438160,2930920 10296920,2797150 10296920,2423450 L 10296920,2173290 C 10296920,1799250 10438160,1665870 10677900,1665870 C 10920930,1665870 11058600,1838230 11058600,2138070 L 11058600,2458520 z M 13174710,1331100 L 13003700,1331100 C 12573810,1331100 12344240,1612910 12344240,2159350 L 12344240,2437390 C 12344240,2983690 12573810,3265640 13003700,3265640 L 13174710,3265640 C 13604220,3265640 13833980,2983690 13833980,2437390 L 13833980,2159350 C 13833980,1612910 13604220,1331100 13174710,1331100 z M 13470790,2423450 C 13470790,2797150 13329550,2930920 13089810,2930920 L 13088410,2930920 C 12848470,2930920 12707230,2797150 12707230,2423450 L 12707230,2173290 C 12707230,1799250 12848470,1665870 13088410,1665870 L 13089810,1665870 C 13329550,1665870 13470790,1799250 13470790,2173290 L 13470790,2423450 z M 11724670,3225840 L 12088050,3225840 L 12088050,1375720 L 11724670,1375720 L 11724670,3225840 z M 12088140,762420 L 11724770,762420 L 11724770,1092270 L 12088140,1092270 L 12088140,762420 L 12088140,762420 z M 11724670,762420 L 12088140,762420 M 8019840,1374320 C 7836870,1374320 7682170,1465540 7597610,1589120 L 7597610,1375720 L 7235150,1375720 L 7235150,3225990 L 7597610,3225990 L 7597610,2205320 C 7597610,1891820 7731710,1731720 7960070,1731720 C 7959740,1732200 8233920,1732200 8233920,1732200 L 8233920,1374320 C 8233920,1374320 8020180,1374510 8019840,1374320 z M 9007660,1376060 L 8462280,1376060 L 8462280,1733400 L 8997140,1733400 C 9222610,1733400 9345620,1846040 9345620,2046860 L 9345620,2113420 C 9243540,2067650 9106350,2043140 8933660,2043140 C 8514180,2043140 8197310,2229630 8197310,2641970 C 8197310,3096520 8539170,3265500 8838680,3265500 C 9039500,3265500 9219040,3170510 9345620,3043750 L 9345620,3225990 L 9701660,3225990 L 9701660,1996160 C 9701660,1576490 9419850,1376060 9007660,1376060 z M 9345620,2701880 C 9261250,2818090 9092270,2938060 8898260,2938060 C 8658800,2938060 8542400,2814520 8542400,2631410 C 8542400,2462280 8690490,2356590 8923100,2356590 C 9120490,2356590 9247110,2388380 9345620,2437390 L 9345620,2701880 z M 15565970,1074660 C 15565970,893960 15533120,853110 15533120,853110 C 15533120,853110 15381500,769560 15071290,769560 C 15004570,770040 14926620,774820 14847360,785720 L 14847360,500000 L 14712730,500000 L 14712730,1348660 C 14712730,1348660 14928020,1375380 15111810,1375380 C 15447350,1375380 15534320,1305440 15534320,1305440 C 15534320,1305440 15565970,1261010 15565970,1074660 z M 15430510,1080650 C 15430510,1130330 15426270,1179000 15422840,1208570 C 15379820,1220340 15283680,1240070 15114020,1240410 C 15039300,1240600 14950980,1234960 14847360,1226130 L 14847360,922040 C 15134430,878960 15341180,927100 15421010,952330 C 15424390,981760 15430510,1030770 15430510,1080650 z M 16500050,1074660 C 16500050,893960 16467200,853110 16467200,853110 C 16467200,853110 16315440,769560 16005370,769560 C 15938650,770040 15860890,774820 15781590,785720 L 15781590,500000 L 15646810,500000 L 15646810,1348660 C 15646810,1348660 15861910,1375380 16045890,1375380 C 16381430,1375380 16468600,1305440 16468600,1305440 C 16468600,1305440 16500050,1261010 16500050,1074660 z M 16364600,1080650 C 16364600,1130330 16360350,1179000 16356930,1208570 C 16314040,1220340 16217760,1240070 16047910,1240410 C 15973530,1240600 15885060,1234960 15781590,1226130 L 15781590,922040 C 16068510,878960 16275120,927100 16355090,952330 C 16358330,981760 16364600,1030770 16364600,1080650 z M 14624410,772260 C 14106230,775010 13900310,897000 13900310,897000 L 13900310,1366510 L 14037640,1366510 L 14037640,985670 C 14102860,964050 14285440,911620 14624410,907040 L 14624410,772260 z "
   style="fill:#614e4a"
   id="_82348128" />

  </g>

 </g>
  </g>
</svg>
