<?xml version="1.0" encoding="UTF-8"?>
<svg width="800" height="102.77" version="1.1" xmlns="http://www.w3.org/2000/svg">
	<path d="m489.93 23.357h-12.938c-12.074 0-26.471 5.944-26.471 34.256v10.866c0 28.335 14.397 34.291 26.471 34.291h12.938c12.081 0 26.475-5.956 26.475-34.291v-10.866c0-28.312-14.393-34.256-26.475-34.256m8.82 45.122c0 16.771-5.732 16.771-8.82 16.771h-12.938c-3.084 0-8.82 0-8.82-16.771v-10.866c0-7.021 1.031-11.66 3.057-13.768 1.505-1.575 3.505-1.567 5.435-1.567h13.598c1.93 0 3.926-4e-3 5.443 1.567 2.022 2.107 3.04 6.747 3.04 13.768v10.866m-140.38-43.311v41.744l-25.274-41.744h-19.272v75.911h17.612v-45.786l27.493 45.786h17.057v-75.911h-17.616m-105.4 0v17.609h15.2v42.041h-15.2v16.254h48.461v-16.254h-15.235v-42.041h15.235v-17.609h-48.461m138.03 0v75.903h18.535v-26h27.845v-18.075h-27.845v-13.753h35.642v-18.075h-54.177" fill="#0064aa"/>
	<path d="m686.14 5e-3v32.148c-3.763-5.492-11.29-8.82-19.095-8.82-17.628 0-27.046 11.564-27.046 33.974v11.414c0 22.41 9.418 33.978 27.046 33.978 7.805 0 15.331-3.335 19.095-8.823v7.194h14.888v-101.07zm0 69.574c0 12.297-5.651 19.388-15.621 19.388-9.831 0-15.632-5.485-15.632-20.816v-10.263c0-15.343 5.798-20.824 15.632-20.824 9.966 0 15.621 7.075 15.621 19.377v13.139m86.81-46.246h-7.013c-17.632 0-27.058 11.568-27.058 33.974v11.414c0 22.406 9.426 33.978 27.058 33.978h7.013c17.62 0 27.046-11.572 27.046-33.978v-11.414c0-22.407-9.426-33.974-27.046-33.974m12.155 44.816c0 15.328-5.798 20.816-15.636 20.816h-0.058c-9.843 0-15.636-5.489-15.636-20.816v-10.263c0-15.347 5.794-20.824 15.636-20.824h0.058c9.843 0 15.636 5.477 15.636 20.824v10.263m-71.645 32.905h14.907v-75.896h-14.907zm0-87.53h14.907v-13.525h-14.907v13.525m-151.99 11.58c-7.5 0-13.853 3.74-17.323 8.816v-8.754h-14.872v75.904h14.872v-41.872c0-12.87 5.508-19.427 14.872-19.427l11.228 0.02v-14.689h-8.777m40.52 0.068h-22.372v14.667h21.951c9.245 0 14.305 4.624 14.305 12.861v2.729c-4.2-1.876-9.827-2.888-16.91-2.888-17.207 0-30.211 7.655-30.211 24.572 0 18.643 14.031 25.587 26.312 25.587 8.237 0 15.605-3.906 20.809-9.101v7.472h14.598v-50.455c-5e-3 -17.21-11.564-25.443-28.482-25.443m13.88 54.397c-3.466 4.767-10.402 9.7-18.361 9.7-9.823 0-14.594-5.08-14.594-12.583 0-6.94 6.068-11.282 15.617-11.282 8.102 0 13.294 1.309 17.342 3.32v10.846" fill="#585856"/>
	<path d="m3e-3 0.051v100.96h208.46l21.457-100.96h-229.92" fill="#e31818"/>
	<path d="m121.38 67.884c0.22-1.903 0.486-5.04 0.486-8.252 0-3.22-0.385-6.384-0.602-8.299-4.967-1.61-17.84-4.724-35.715-1.945v19.631c6.446 0.583 11.958 0.934 16.601 0.93 10.561-0.024 16.555-1.297 19.23-2.065m62.004 0c0.209-1.903 0.471-5.04 0.471-8.252 0-3.22-0.386-6.385-0.594-8.299-4.972-1.61-17.84-4.725-35.707-1.945v19.63c6.442 0.584 11.942 0.935 16.589 0.931 10.568-0.024 16.559-1.297 19.24-2.065m8.905-8.642c0 12.035-1.968 14.899-1.968 14.899s-5.415 4.512-26.305 4.512c-11.452 0-24.854-1.71-24.854-1.71v-54.798h8.392v18.442a104.79 104.79 0 0 1 13.934-1.035c19.307 0 28.764 5.389 28.764 5.389s2.038 2.632 2.038 14.3m-61.997 0c0 12.036-1.973 14.9-1.973 14.9s-5.407 4.512-26.3 4.512c-11.449 0-24.855-1.71-24.855-1.71v-54.798h8.384v18.442a104.98 104.98 0 0 1 13.938-1.035c19.319 0 28.767 5.389 28.767 5.389s2.038 2.632 2.038 14.3m-62.448-10.826c-21.125 0.293-32.488 3.682-36.545 5.075v24.595h-8.557v-30.315s12.83-7.881 45.102-8.055v8.7" fill="#fff"/>
</svg>
