<?xml version="1.0" encoding="UTF-8"?>
<svg width="291.78" height="450" version="1.1" xmlns="http://www.w3.org/2000/svg" xmlns:xlink="http://www.w3.org/1999/xlink">
	<defs>
		<linearGradient id="linearGradient6293">
			<stop stop-color="#ff8687" offset="0"/>
			<stop stop-color="#ff9585" offset="1"/>
		</linearGradient>
		<linearGradient id="linearGradient6441" x1="191.79" x2="191.79" y1="1.8781e-7" y2="437.83" gradientTransform="scale(.76065)" gradientUnits="userSpaceOnUse">
			<stop stop-color="#ff4491" offset="0"/>
			<stop stop-color="#ff8088" offset="1"/>
		</linearGradient>
		<linearGradient id="linearGradient1" x1="197.35" x2="197.35" y1="483.24" y2="589.88" gradientTransform="scale(.76065)" gradientUnits="userSpaceOnUse" xlink:href="#linearGradient6293"/>
	</defs>
	<path d="m145.89 1.4199e-7a12.257 12.257 0 0 0-6.1299 1.6418l-133.64 77.166a12.156 12.156 0 0 0-6.1151 10.593v154.23a12.207 12.207 0 0 0 6.1151 10.593l133.64 77.166a12.257 12.257 0 0 0 12.26 0l133.64-77.166a12.207 12.207 0 0 0 6.1151-10.593v-154.23a12.156 12.156 0 0 0-6.1151-10.593l-133.64-77.166a12.257 12.257 0 0 0-6.1299-1.6418zm0 32.498a7.324 7.324 0 0 1 3.6622 0.98314l109.76 63.373a7.324 7.324 0 0 1 3.6769 6.3412l0.0246 126.62a7.3491 7.3491 0 0 1-3.672 6.3658l-109.79 63.476a7.324 7.324 0 0 1-7.3244 0l-109.76-63.373a7.3491 7.3491 0 0 1-3.6769-6.3707v-126.72a7.324 7.324 0 0 1 3.6769-6.3412l109.76-63.373a7.324 7.324 0 0 1 3.6622-0.98314zm3.441 40.879c-2.0139-0.17579-3.4262 1.316-3.4262 3.9964v181.79a1.7618 1.7618 0 0 0 2.5168 1.5337l27.985-16.158a4.8827 4.8827 0 0 0 2.5168-4.2275v-111.5a1.2081 1.2081 0 0 1 1.9122-1.1552l18.424 9.8166a2.3155 2.3155 0 0 1 1.2338 2.0351v86.958c0 2.3406 1.6586 3.2966 3.672 2.1137l22.076-12.761a4.8827 4.8827 0 0 0 2.5168-4.2521v-90.026a4.8827 4.8827 0 0 0-2.4677-4.2275l-74.777-43.189c-0.77393-0.44674-1.5113-0.6935-2.1826-0.7521zm-55.665 28.005c-0.43888 0.0366-0.91727 0.1923-1.4206 0.48174l-26.756 15.455a4.8827 4.8827 0 0 0-2.5168 4.2275v90.026a4.8827 4.8827 0 0 0 2.5168 4.2521l26.756 15.43c2.0135 1.1829 3.672 0.22692 3.672-2.1137v-125.14c0-1.7555-0.93477-2.7298-2.2514-2.6201z" fill="url(#linearGradient6441)"/>
	<g fill="url(#linearGradient1)">
		<path d="m73.807 366.71h-14.201c-0.5182 0-0.93828 0.42008-0.93828 0.93828v36.67l-12.008-36.924c-0.12565-0.38425-0.48329-0.64482-0.88756-0.64664h-15.38c-0.5182 0-0.93828 0.42008-0.93828 0.93828v80.933c-2e-6 0.5182 0.42008 0.93829 0.93828 0.93829h14.252c0.5182 0 0.93828-0.42009 0.93828-0.93829v-42.159l14.277 42.476c0.1267 0.38172 0.48539 0.63792 0.88756 0.63398h13.06c0.5182 0 0.93828-0.42009 0.93828-0.93829v-80.983c0-0.5182-0.42008-0.93828-0.93828-0.93828z"/>
		<path d="m2.3845 366.71h14.455c0.51981 0 0.93828 0.41847 0.93828 0.93828v80.933c0 0.51981-0.41847 0.93828-0.93828 0.93828h-14.455c-0.51981 0-0.93828-0.41847-0.93828-0.93828v-80.933c0-0.51981 0.41847-0.93828 0.93828-0.93828z"/>
		<path d="m277.16 366.7h-18.88c-8.3059 0-13.161 5.7965-13.161 13.084v8.6128c-0.11913 4.8425 1.8321 9.5057 5.3634 12.818l23.292 23.039 0.0761 0.10152c0.16483 0.24113 0.19243 0.26651 0.19243 0.32997v9.8912h-12.593v-10.386c0-0.51867-0.42008-0.93914-0.93827-0.93914h-14.455c-0.51819 0-0.93828 0.42047-0.93828 0.93914v12.615c0 8.1293 5.262 13.199 13.085 13.199h18.956c7.8034 0 13.199-5.2323 13.199-13.199v-10.876c0.0718-4.8397-1.8767-9.49-5.3761-12.831l-23.33-23.059c-0.19019-0.19036-0.19019-0.19036-0.19019-0.38072v-7.5776h12.616v10.28c-1e-5 0.51866 0.42008 0.93914 0.93828 0.93914h14.455c0.51821 0 0.93829-0.42048 0.93828-0.93914v-12.615c-0.0507-7.7035-5.4776-13.046-13.25-13.046z"/>
		<path d="m179.67 449.59h-37.552c-0.51858-1e-5 -0.93898-0.42041-0.93898-0.93901v-80.995c0-0.51858 0.42041-0.93899 0.93899-0.93899h14.453c0.51859 0 0.939 0.42041 0.939 0.93899v66.745h22.16c0.5186 0 0.939 0.4204 0.939 0.93899v13.311c0 0.5186-0.42039 0.93901-0.939 0.93901z"/>
		<path d="m190.42 366.71c-0.51859 0-0.93894 0.42035-0.93894 0.93893v68.675c0 8.4256 5.2624 13.427 13.086 13.427h19.032c7.8034 0 13.228-5.2851 13.228-13.427l2e-3 -68.675c0-0.51858-0.42035-0.93893-0.93893-0.93893h-14.54c-0.51858 0-0.93893 0.42035-0.93893 0.93893l0.0119 66.757h-12.628v-66.757c0-0.51858-0.42035-0.93893-0.93894-0.93893z"/>
		<path d="m87.349 366.71c-0.51858 1e-5 -0.93893 0.42034-0.93893 0.93893v80.995c0 0.51858 0.42035 0.93893 0.93893 0.93893h14.454c0.51859 0 0.93893-0.42035 0.93893-0.93893v-31.429h15.797c7.8034 0 13.149-5.3603 13.149-13.327l2e-3 -24.15c-0.0508-7.7034-5.4066-13.046-13.179-13.046zm15.393 15.189h12.591l0.0134 20.921h-12.604z"/>
	</g>
</svg>
