<?xml version="1.0" encoding="utf-8"?>
<!-- Generator: Adobe Illustrator 14.0.0, SVG Export Plug-In . SVG Version: 6.00 Build 43363)  -->
<!DOCTYPE svg PUBLIC "-//W3C//DTD SVG 1.1//EN" "http://www.w3.org/Graphics/SVG/1.1/DTD/svg11.dtd">
<svg version="1.1" id="Calque_1" xmlns="http://www.w3.org/2000/svg" xmlns:xlink="http://www.w3.org/1999/xlink" x="0px" y="0px"
	 width="78px" height="90px" viewBox="0 0 78 90" enable-background="new 0 0 78 90" xml:space="preserve">
<g>
	<rect fill="none" width="78" height="90"/>
	<g>
		<defs>
			<rect id="SVGID_1_" x="0.469" y="0.5" width="77.061" height="89"/>
		</defs>
		<clipPath id="SVGID_2_">
			<use xlink:href="#SVGID_1_"  overflow="visible"/>
		</clipPath>
		<path clip-path="url(#SVGID_2_)" fill="#1B171B" d="M1.273,0.608C0.83,0.354,0.469,0.562,0.469,1.075v87.85
			c0,0.514,0.361,0.725,0.804,0.467l75.926-43.916c0.442-0.257,0.442-0.675,0-0.929L1.273,0.608"/>
		<polyline clip-path="url(#SVGID_2_)" fill="#FFFFFF" points="22.677,39.909 26.312,39.909 26.312,50.752 27.651,51.528 
			27.651,39.909 31.287,39.909 31.287,38.708 22.677,38.708 22.677,39.909 		"/>
		<polyline clip-path="url(#SVGID_2_)" fill="#FFFFFF" points="41.432,39.909 41.432,38.708 33.635,38.708 33.635,50.13 
			34.976,50.906 35.645,51.295 41.432,51.295 41.432,50.091 34.976,50.091 34.976,45.509 40.48,45.509 40.48,44.309 34.976,44.309 
			34.976,39.909 41.432,39.909 		"/>
		<polyline clip-path="url(#SVGID_2_)" fill="#FFFFFF" points="45.561,50.091 45.561,38.708 44.219,38.708 44.219,50.13 
			45.561,50.906 46.231,51.295 51.984,51.295 51.984,50.091 45.561,50.091 		"/>
		<polyline clip-path="url(#SVGID_2_)" fill="#FFFFFF" points="62.129,39.909 62.129,38.708 54.331,38.708 54.331,50.13 
			55.671,50.906 56.345,51.295 62.129,51.295 62.129,50.091 55.671,50.091 55.671,45.509 61.176,45.509 61.176,44.309 
			55.671,44.309 55.671,39.909 62.129,39.909 		"/>
		<path clip-path="url(#SVGID_2_)" fill="#FFFFFF" d="M10.804,16.779c-0.353-0.206-0.643-0.038-0.643,0.372v10.847
			c0,0.409,0.291,0.577,0.643,0.372l9.373-5.422c0.355-0.204,0.355-0.54,0-0.744L10.804,16.779"/>
		<path clip-path="url(#SVGID_2_)" fill="#FFFFFF" d="M19.851,77.898c0,0.409-0.288,0.577-0.643,0.37l-8.404-4.859
			c-0.353-0.204-0.643-0.707-0.643-1.118V51.354c0-0.411-0.29-0.914-0.644-1.116l-8.406-4.862c-0.352-0.205-0.352-0.54,0-0.746
			l18.097-10.468c0.355-0.206,0.643-0.037,0.643,0.372V77.898"/>
	</g>
</g>
</svg>
