<?xml version="1.0" encoding="utf-8"?>
<!-- Generator: Adobe Illustrator 16.0.0, SVG Export Plug-In . SVG Version: 6.00 Build 0)  -->
<!DOCTYPE svg PUBLIC "-//W3C//DTD SVG 1.1//EN" "http://www.w3.org/Graphics/SVG/1.1/DTD/svg11.dtd">
<svg version="1.1"
	 id="svg2" xmlns:dc="http://purl.org/dc/elements/1.1/" xmlns:cc="http://creativecommons.org/ns#" xmlns:rdf="http://www.w3.org/1999/02/22-rdf-syntax-ns#" xmlns:svg="http://www.w3.org/2000/svg" xmlns:sodipodi="http://sodipodi.sourceforge.net/DTD/sodipodi-0.dtd" xmlns:inkscape="http://www.inkscape.org/namespaces/inkscape" sodipodi:docname="ITV Cymru Wales 2013.svg" inkscape:version="0.48.2 r9819"
	 xmlns="http://www.w3.org/2000/svg" xmlns:xlink="http://www.w3.org/1999/xlink" x="0px" y="0px" width="200px" height="130.246px"
	 viewBox="0 0 200 130.246" enable-background="new 0 0 200 130.246" xml:space="preserve">
<sodipodi:namedview  inkscape:cy="106.75751" inkscape:cx="188.39408" inkscape:zoom="1.4142136" fit-margin-top="0.5" fit-margin-left="0.5" showgrid="false" guidetolerance="10" gridtolerance="10" objecttolerance="10" borderopacity="1" pagecolor="#ffffff" bordercolor="#666666" id="namedview4" inkscape:current-layer="g3120" inkscape:window-maximized="1" inkscape:window-y="-8" inkscape:window-x="-8" fit-margin-right="0.5" fit-margin-bottom="0.5" inkscape:window-height="1028" inkscape:window-width="1920" inkscape:pageshadow="2" inkscape:pageopacity="0">
	<inkscape:grid  type="xygrid" enabled="true" visible="true" empspacing="5" id="grid2998" snapvisiblegridlinesonly="true">
		</inkscape:grid>
</sodipodi:namedview>
<g id="layer1" transform="translate(-7402.6997,-1984.8574)" inkscape:label="Layer 1">
	<g id="g3093" transform="matrix(0.02251092,0,0,0.02251092,7498.4133,2040.7363)">
		<g id="g3113">
			<g id="g3030" transform="matrix(15.222118,0,0,15.222118,-4957.3018,-8309.1864)">
				<path id="path3018" inkscape:connector-curvature="0" sodipodi:nodetypes="ccccc" fill="#00BECA" d="M47.803,422.395
					c0-20.977,14.862-38.145,38.745-38.145c25.143,0,38.625,18.01,38.625,39.165c0,23.264-17.034,37.365-38.445,37.365
					C63.423,460.78,47.803,444.885,47.803,422.395z"/>
				<path id="path3020" inkscape:connector-curvature="0" sodipodi:nodetypes="ccccccccccccc" fill="#00BECA" d="M48.001,492.645
					c0-3.571,2.002-6.152,6-6.152h65.271c3.448,0,5.728,2.733,5.728,6.092v100.066c0,17.06,9.714,36.903,39.695,36.903
					c29.199,0,44.305-18.168,44.305-55.264v-7.797l31,59l4,20.001c0,0-30.416,29.402-85.541,29.402
					c-27.362,0-110.458-4.489-110.458-95.403V492.645z"/>
				<path id="path3024" inkscape:connector-curvature="0" sodipodi:nodetypes="ccccccccccc" fill="#8C7B11" d="M244,645.494
					l31-80.001l10-10v14c0,33.675,16.336,59.58,58.605,59.58c38.542,0,65.673-21.833,65.673-55.717
					c0-17.222-8.333-30.887-8.333-30.887l43.72,21.832l3.833,53.191c0,0-29.115,57.106-111.19,57.106
					C273.219,674.597,244,645.494,244,645.494z"/>
				<path id="path3022" inkscape:connector-curvature="0" sodipodi:nodetypes="cccccccccccccc" d="M244,645.494
					c0,0-35-26.749-35-76.759v-143.24c0-11.519,7.432-21.5,38.42-21.5c33.864,0,37.58,13.181,37.58,23.07v59.429h59.999
					c4.329,0,5.999,2.531,5.999,6.541v35.458c0,3.354-1.368,6-5.301,6H306c-10.294,0-21-4-21-4v24
					C285,584.417,277.267,614.983,244,645.494z"/>
				<path id="path3028" inkscape:connector-curvature="0" sodipodi:nodetypes="cccccccccccc" fill="#FFAB00" d="M448.499,617.491
					l9.527-104.673l4.306-18.215c0,0,19.012,27.722,67.452,116.903c30.762-55.936,50.381-122.777,50.381-122.777
					c1.379-4.57,5.027-5.676,10.308-4.283l33.204,10.264c4.035,1.438,6.221,3.031,3.95,10.528
					c-27.621,80.38-70.871,146.686-70.871,146.686c-8.327,12.34-16.809,22.816-44.912,22.816c-22.671,0-30.568-7.723-38.465-19.51
					L448.499,617.491z"/>
				<path id="path3026" inkscape:connector-curvature="0" sodipodi:nodetypes="ccccccc" fill="#C80063" d="M448.499,617.491
					l-51.766-81.569c-3.109-5.814-5.477-9.34-5.477-16.244c0.04-10.15,5.312-17.488,23.198-28.691
					c3.862-2.539,17.789-8.075,29.075-8.075c15.216,0,26.567,15.75,26.567,48.702C470.096,585.23,448.499,617.491,448.499,617.491
					L448.499,617.491z"/>
			</g>
		</g>
		<g>
			<path d="M-3674.963,2937.473c-19.609-26.463-48.719-46.722-86.223-60.127c21.279-12.104,38.633-27.243,51.213-45.637
				c19.152-27.808,28.328-61.255,30.91-98.173c0.346-5.162,0.52-10.325,0.52-15.357c0.5-85.462-52.859-156.087-138.105-175.392
				c-32.037-7.461-65.354-11.408-98.15-12.016c-46.18-0.824-92.316-1.041-138.387-1.041c-42.645,0-85.201,0.172-127.738,0.172
				h-6.832c-7.592,0.088-13.035,1.736-16.527,2.127l-12.299,1.648l-1.258,12.363c-0.326,3.557-0.977,6.594-1.043,11.582
				c-0.021,122.119-0.064,244.195-0.064,366.271c0,101.166,0.021,202.288,0.109,303.454c0.021,7.027,0.541,13.578,2.363,19.912
				c2.387,9.414,9.523,18.741,18.828,22.992c9.154,4.425,18.783,5.293,29.977,5.51c28.438,0.26,57.004,0.607,85.656,0.607
				c20.303,0,40.648-0.218,61.061-0.781c62.859-1.648,126.76-1.605,190.553-9.023c52.535-6.073,95.678-23.816,127.391-53.359
				c31.756-29.499,51.189-70.408,58.305-119.776c2.191-14.837,3.297-29.413,3.297-43.556
				C-3641.365,3007.925-3651.473,2969.055-3674.963,2937.473z M-3896.838,2825.114c-34.555,2.43-69.52,2.82-104.746,2.82
				c-16.484,0-33.014-0.044-49.629-0.044c-7.092,0-14.229,0-21.344,0.044c0-56.96,0-114.094,0-171.054
				c34.076-0.131,68.066-0.955,101.688-0.955c25.813,0,51.494,0.479,76.893,2.17c26.291,1.691,43.947,7.939,54.596,18.307
				c10.672,10.238,17.527,26.637,17.613,56.136c0,7.982-0.541,16.789-1.627,26.593c-2.689,22.646-9.674,37.396-20.605,47.46
				C-3854.977,2816.698-3871.613,2823.336-3896.838,2825.114z M-4072.426,2951.876c6.832-0.044,13.861-0.131,20.41-0.087
				c7.115-0.044,14.057,0.043,20.977,0.217c56.418,1.388,112.271,0.087,166.389,5.596c27.375,2.95,45.617,12.19,57.697,25.986
				c12.039,13.752,18.807,33.446,18.828,60.126l-0.303,10.629c-2.17,33.534-9.176,54.184-21.691,67.024
				c-12.385,12.972-33.621,21.604-70.713,24.944c-25.854,2.343-52.014,3.037-78.52,3.037c-36.896,0-74.66-1.258-113.074-1.648
				C-4072.426,3082.758-4072.426,3018.076-4072.426,2951.876z"/>
			<path id="path3034" inkscape:connector-curvature="0" d="M-3238.09,2520.576c-106.85,0-193.699,34.098-245.518,88.846
				c-52.297,55.094-96.068,131.663-96.068,294.907c0,116.523,20.953,214.045,95.83,293.606
				c52.752,56.049,130.383,87.631,247.123,87.631c99.646,0,180.424-22.646,245.496-90.06
				c68.021-72.014,93.877-169.97,93.877-291.178c0-118.345-25.031-222.374-94.311-292.825
				C-3035.693,2565.346-3110.07,2520.576-3238.09,2520.576z M-3237.33,2652.455c49.715,0,86.611,13.926,121.424,47.113
				c43.166,40.865,57.742,120.861,57.742,203.72c0,76.092-11.67,155.74-57.438,204.457c-22.385,21.604-60.691,47.243-122.033,47.243
				c-57.176,0-94.463-18.828-121.273-43.643c-53.336-51.971-60.148-143.419-60.148-208.969c0-88.064,13.861-157.691,59.693-205.758
				C-3329.148,2669.635-3284.443,2652.455-3237.33,2652.455z"/>
			<path id="path3036" inkscape:connector-curvature="0" sodipodi:nodetypes="csssccccsscccscsccccscscc" d="M-2809.654,2528.904
				v708.855c0,29.152,11.389,39.391,78.848,39.391c69.041,0,77.652-9.37,77.652-39.391v-238.078h103.963l137.521,229.662
				c7.135,12.147,14.553,24.294,19.607,29.152c15.748,16.052,50.822,18.654,88.758,18.654c63.75,0,78.283-10.802,78.283-20.476
				c0-6.898-1.475-12.407-11.691-27.244l-157.801-244.151c0,0,61.385-18.003,94.963-55.182
				c54.313-55.008,64.594-122.683,64.594-171.271c0-72.013-19.607-127.151-55.744-163.288
				c-57.133-55.094-128.67-66.635-229.814-66.635H-2809.654z M-2653.154,2656.75h144.59c36.506,0.131,66.744,6.422,86.764,25.553
				c18.936,19.521,25.725,41.125,25.725,76.091c0,36.788-7.373,66.417-24.9,83.987c-16.615,17.179-49.281,29.412-86.395,29.412
				h-145.783V2656.75z"/>
			<path id="path3036_1_" inkscape:connector-curvature="0" sodipodi:nodetypes="csssccccsscccscsccccscscc" d="M-811.846,2528.904
				v708.855c0,29.152,11.389,39.391,78.846,39.391c69.043,0,77.654-9.37,77.654-39.391v-238.078h103.963l137.52,229.662
				c7.137,12.147,14.555,24.294,19.631,29.152c15.703,16.052,50.799,18.654,88.758,18.654c63.729,0,78.262-10.802,78.262-20.476
				c0-6.898-1.477-12.407-11.713-27.244l-157.779-244.151c0,0,61.385-18.003,94.961-55.182
				c54.314-55.008,64.596-122.683,64.596-171.271c0-72.013-19.607-127.151-55.744-163.288
				c-57.135-55.094-128.67-66.635-229.814-66.635H-811.846z M-655.346,2656.75h144.59c36.506,0.131,66.742,6.422,86.764,25.553
				c18.936,19.521,25.725,41.125,25.725,76.091c0,36.788-7.375,66.417-24.9,83.987c-16.615,17.179-49.281,29.412-86.395,29.412
				h-145.783V2656.75z"/>
			<path d="M-1500.57,2867.542c-7.982-102.988-33.145-180.642-84.596-235.562c-51.449-54.834-126.848-84.248-229.4-95.701
				c-40.779-4.512-81.645-5.725-122.336-5.725c-45.639,0-91.102,1.561-135.959,1.475c-5.205,0-10.41,0-15.529,0l0,0h-1.215
				c-9.979,0-19.088,1.561-27.158,5.205c-12.146,5.467-20.475,16.139-24.379,26.984c-3.992,10.844-4.773,22.123-4.859,33.576v0.867
				l0,0c0.174,47.461,0.26,94.832,0.26,142.379c0,52.318-0.086,104.55-0.086,156.955v5.379c0,54.747,0.174,109.495,0.174,164.242
				c0,44.943-0.088,89.887-0.521,134.743l0,0v1.909c0.086,19.608,3.297,37.568,15.27,51.537
				c12.148,14.056,30.889,19.695,52.232,19.521h2.168c15.965-0.26,32.016-0.347,48.068-0.347c38.609,0,77.305,0.521,116.176,0.521
				c34.445,0,68.977-0.347,103.594-1.822c140.645-5.553,247.363-84.768,285.451-209.706
				c15.791-51.104,24.207-103.596,24.207-156.955C-1499.01,2893.918-1499.529,2880.729-1500.57,2867.542z M-1990.176,3111.52v-0.087
				c0.434-29.586,0.521-59.085,0.521-88.585c0-40.171-0.174-80.256-0.174-120.341v-0.086l-0.088-4.599
				c0-36.268,0.607-72.621,0.607-109.235c0-26.289-0.26-52.752-1.301-79.214v-0.087l-0.086-4.339c0-15.965,3.469-23.512,7.113-27.07
				c3.559-3.73,10.672-6.854,25.248-6.854l7.115,0.174c38.523,2.256,76.178,0.52,112.531,2.256
				c54.488,2.43,91.709,14.314,117.564,36.613c25.855,22.385,42.861,57.091,52.23,110.884c4.947,28.024,7.549,56.309,7.549,84.42
				c0,31.843-3.383,63.598-10.498,95.006c-10.846,47.46-28.719,80.083-54.486,101.947c-25.684,21.69-60.734,33.924-109.408,36.44
				c-13.275,0.693-26.637,0.867-40.172,0.867c-18.74,0-37.742-0.347-57.004-0.347c-10.238,0-20.563,0.087-30.887,0.434l-2.689,0.087
				c-12.494-0.174-16.66-2.863-18.828-5.293c-2.344-2.429-4.945-8.937-4.859-21.517V3111.52L-1990.176,3111.52z"/>
			<path id="path3202" inkscape:connector-curvature="0" sodipodi:nodetypes="ccccccccccccccc" d="M-1386.891,3274.2
				c-22.037,0-29.846-11.235-29.846-29.846v-678.749c0-23.426,6.854-33.664,43.035-33.664h461.58v127.977h-348.008v172.181h297.771
				v126.762h-297.771v188.579l355.164,0.087V3274.2H-1386.891z"/>
		</g>
	</g>
</g>
</svg>
