<?xml version="1.0" encoding="UTF-8" standalone="no"?>
<!-- Created with Inkscape (http://www.inkscape.org/) -->

<svg
   xmlns:dc="http://purl.org/dc/elements/1.1/"
   xmlns:cc="http://creativecommons.org/ns#"
   xmlns:rdf="http://www.w3.org/1999/02/22-rdf-syntax-ns#"
   xmlns:svg="http://www.w3.org/2000/svg"
   xmlns="http://www.w3.org/2000/svg"
   xmlns:sodipodi="http://sodipodi.sourceforge.net/DTD/sodipodi-0.dtd"
   xmlns:inkscape="http://www.inkscape.org/namespaces/inkscape"
   width="336.13675"
   height="124.76626"
   id="svg2"
   version="1.1"
   inkscape:version="0.48.2 r9819"
   sodipodi:docname="ITV2 HD.svg">
  <defs
     id="defs4">
    <clipPath
       id="clipPath3401"
       clipPathUnits="userSpaceOnUse">
      <path
         id="path3403"
         d="m 491.357,699.254 49.265,0 0,48.865 -49.265,0 0,-48.865 z"
         inkscape:connector-curvature="0" />
    </clipPath>
    <clipPath
       id="clipPath3381"
       clipPathUnits="userSpaceOnUse">
      <path
         id="path3383"
         d="m 229.295,390.889 166.138,0 0,134.905 -166.138,0 0,-134.905 z"
         inkscape:connector-curvature="0" />
    </clipPath>
    <clipPath
       id="clipPath3369"
       clipPathUnits="userSpaceOnUse">
      <path
         id="path3371"
         d="m 229.295,534.298 166.138,0 0,134.905 -166.138,0 0,-134.905 z"
         inkscape:connector-curvature="0" />
    </clipPath>
    <clipPath
       id="clipPath3357"
       clipPathUnits="userSpaceOnUse">
      <path
         id="path3359"
         d="m 54.653,534.298 166.138,0 0,134.905 -166.138,0 0,-134.905 z"
         inkscape:connector-curvature="0" />
    </clipPath>
    <clipPath
       id="clipPath3345"
       clipPathUnits="userSpaceOnUse">
      <path
         id="path3347"
         d="m 54.653,390.889 166.138,0 0,134.905 -166.138,0 0,-134.905 z"
         inkscape:connector-curvature="0" />
    </clipPath>
    <clipPath
       id="clipPath3329"
       clipPathUnits="userSpaceOnUse">
      <path
         id="path3331"
         d="m 0,0 595.276,0 0,841.89 L 0,841.89 0,0 z"
         inkscape:connector-curvature="0" />
    </clipPath>
    <clipPath
       id="clipPath3313"
       clipPathUnits="userSpaceOnUse">
      <path
         id="path3315"
         d="m 54.567,770.569 111.602,0 0,44.641 -111.602,0 0,-44.641 z"
         inkscape:connector-curvature="0" />
    </clipPath>
    <clipPath
       id="clipPath3273"
       clipPathUnits="userSpaceOnUse">
      <path
         id="path3275"
         d="m 502.866,289.864 36.883,0 0,36.582 -36.883,0 0,-36.582 z"
         inkscape:connector-curvature="0" />
    </clipPath>
    <clipPath
       id="clipPath3241"
       clipPathUnits="userSpaceOnUse">
      <path
         id="path3243"
         d="m 418.98,462.613 52.844,0 0,52.415 -52.844,0 0,-52.415 z"
         inkscape:connector-curvature="0" />
    </clipPath>
    <clipPath
       id="clipPath2999"
       clipPathUnits="userSpaceOnUse">
      <path
         id="path3001"
         d="m 0,0 595.275,0 0,841.89 L 0,841.89 0,0 z"
         inkscape:connector-curvature="0" />
    </clipPath>
  </defs>
  <sodipodi:namedview
     id="base"
     pagecolor="#ffffff"
     bordercolor="#666666"
     borderopacity="1.0"
     inkscape:pageopacity="0.0"
     inkscape:pageshadow="2"
     inkscape:zoom="1.979899"
     inkscape:cx="378.32947"
     inkscape:cy="33.777575"
     inkscape:document-units="px"
     inkscape:current-layer="g3030"
     showgrid="false"
     fit-margin-left="0.5"
     fit-margin-top="0.5"
     fit-margin-bottom="0.5"
     fit-margin-right="0.5"
     inkscape:window-width="1920"
     inkscape:window-height="1028"
     inkscape:window-x="-8"
     inkscape:window-y="-8"
     inkscape:window-maximized="1" />
  <metadata
     id="metadata7">
    <rdf:RDF>
      <cc:Work
         rdf:about="">
        <dc:format>image/svg+xml</dc:format>
        <dc:type
           rdf:resource="http://purl.org/dc/dcmitype/StillImage" />
        <dc:title></dc:title>
      </cc:Work>
    </rdf:RDF>
  </metadata>
  <g
     inkscape:label="Layer 1"
     inkscape:groupmode="layer"
     id="layer1"
     transform="translate(-70.661876,28.934191)">
    <g
       id="g3030"
       transform="translate(-172.28671,-53.48512)">
      <g
         id="g3047">
        <path
           transform="matrix(1.7815059,0,0,1.7815059,30.159707,-843.31601)"
           d="m 307.84398,508.5213 c 0,11.64599 -9.44094,21.08694 -21.08693,21.08694 -11.64599,0 -21.08694,-9.44095 -21.08694,-21.08694 0,-11.64599 9.44095,-21.08693 21.08694,-21.08693 11.64599,0 21.08693,9.44094 21.08693,21.08693 z"
           sodipodi:ry="21.086935"
           sodipodi:rx="21.086935"
           sodipodi:cy="508.5213"
           sodipodi:cx="286.75705"
           id="path3039-1"
           style="fill:#ee263a;fill-opacity:1;fill-rule:evenodd;stroke:none"
           sodipodi:type="arc" />
        <g
           style="fill:#ffffff"
           transform="matrix(0.04118242,0,0,0.04118242,487.04098,38.095064)"
           id="g3056">
          <path
             style="fill:#ffffff;stroke:none"
             d="m 949.16553,764.90898 -161.43075,0 c -15.34633,0 -23,-14.82515 -23,-60 0,-42.12619 5.79062,-59 25,-59 l 159.43075,0 0,-175.79779 125.99997,0 0,175.79779 187.6967,0 0,119 -187.6967,0 0,161.32965 c 0,16.72978 -13.2231,25 -66,25 -50.1718,0 -59.99997,-8.42839 -59.99997,-24 z"
             id="path3052"
             inkscape:connector-curvature="0"
             sodipodi:nodetypes="ccccccccccccccc" />
          <path
             style="fill:#ffffff;stroke:none"
             d="m 1632.1429,980.3979 c -46.5146,0 -76.1429,-2.47709 -76.1429,-33.03572 l 0,-545 c -67.5356,43.02833 -129.9211,79.18982 -189.3899,111.46243 l -58.9676,-118.94547 c 127.7314,-76.0379 199.3666,-118.59056 246.856,-150.13392 12.828,-8.40252 24.8774,-14.38304 60.5015,-14.38304 l 53,0 c 35.1679,0 43,7.95975 43,32 l 0,688 c 0,24.84715 -28.2533,30.03572 -78.8571,30.03572 z"
             id="path3054"
             inkscape:connector-curvature="0"
             sodipodi:nodetypes="ccccccccccc" />
        </g>
      </g>
    </g>
    <g
       transform="matrix(2.2176972,0,0,-2.2176972,-49.851207,1804.221)"
       inkscape:label="digitalflyers_aw_hires 2"
       id="g2993">
      <g
         id="g2995" />
      <g
         id="g3309"
         style="fill:#ee263a;fill-opacity:1">
        <g
           clip-path="url(#clipPath3313)"
           id="g3311"
           style="fill:#ee263a;fill-opacity:1">
          <g
             transform="translate(165.724,802.1241)"
             id="g3317"
             style="fill:#ee263a;fill-opacity:1">
            <path
               id="path3319"
               style="fill:#ee263a;fill-opacity:1;fill-rule:nonzero;stroke:none"
               d="m 0,0 c 0,-7.823 -3.713,-12.327 -16.301,-21.045 -0.496,-0.344 -0.367,-0.798 0.025,-0.798 l 14.745,0 c 1.045,0 1.59,-0.401 1.728,-1.407 0.168,-1.218 0.248,-2.201 0.248,-3.47 0,-1.297 -0.127,-2.382 -0.335,-3.37 -0.221,-1.049 -0.684,-1.465 -1.693,-1.465 l -28.828,0 c -1.273,0 -1.812,0.414 -2.283,1.507 l -0.981,2.526 c -0.339,0.98 -0.581,1.768 -0.581,2.646 0,1.454 0.783,2.182 1.794,2.904 15.201,10.843 20.482,14.763 20.482,20.588 0,3.016 -2.248,5.138 -6.141,5.138 -3.863,0 -7.354,-1.567 -11.067,-4.494 -0.987,-0.778 -1.852,-0.669 -2.379,0.314 -0.734,1.371 -1.757,3.727 -2.384,5.953 -0.369,1.314 -0.118,2.312 0.716,2.895 1.023,0.715 3.379,1.889 4.587,2.367 3.355,1.328 7.559,2.297 12.345,2.297 C -7.162,13.086 0,8.199 0,0"
               inkscape:connector-curvature="0" />
          </g>
          <g
             transform="translate(79.4419,808.537)"
             id="g3321"
             style="fill:#ee263a;fill-opacity:1">
            <path
               id="path3323"
               style="fill:#ee263a;fill-opacity:1;fill-rule:nonzero;stroke:none"
               d="m 0,0 c -1.802,0 -3.282,-0.326 -4.012,-0.992 -0.497,-0.452 -0.725,-1.057 -0.725,-1.94 l 0,-18.006 c 0,-2.993 -0.481,-4.616 -1.539,-5.753 -0.93,-1 -2.391,-1.541 -3.999,-1.541 -1.57,0 -2.962,0.522 -3.791,1.398 -0.865,0.915 -1.269,2.183 -1.269,4.058 l 0,11.727 c 0,0.513 -0.192,0.741 -0.759,0.741 l -7.971,0 c -0.561,0 -0.746,-0.22 -0.746,-0.744 l 0,-10.601 c 0,-4.232 1.091,-6.648 2.996,-8.553 2.475,-2.475 6.705,-3.58 10.725,-3.58 4.014,0 8.2,1.423 10.673,3.708 2.428,-2.213 6.839,-3.706 11.708,-3.706 6.432,0 11.161,2.659 13.921,7.181 1.225,-1.898 2.13,-3.309 3,-4.595 1.281,-1.893 2.447,-2.588 5.056,-2.588 2.471,0 3.954,0.593 5.291,2.637 3.505,5.36 6.492,11.698 8.645,17.53 0.27,0.73 0.462,1.262 0.462,1.595 0,0.342 -0.222,0.61 -0.753,0.778 -0.514,0.163 -1.896,0.587 -2.589,0.798 -1.152,0.351 -1.57,0.454 -1.82,0.454 -0.466,0 -0.719,-0.261 -0.881,-0.799 -1.615,-5.373 -4.072,-11.411 -6.264,-15.162 -0.718,1.37 -2.045,3.753 -3.277,5.901 -1.905,3.325 -3.787,6.68 -4.732,8.221 -0.955,1.558 -1.594,1.973 -2.851,1.973 -2.59,0 -6.427,-2.324 -6.427,-4.491 0,-0.736 0.205,-1.287 0.968,-2.59 0.868,-1.482 1.304,-2.685 1.304,-4.163 0,-3.685 -2.752,-7.023 -8.067,-7.023 -2.523,0 -4.47,0.716 -5.739,2.018 -1.21,1.243 -1.799,2.914 -1.799,5.704 l 0,4.682 c 0.886,-0.38 1.975,-0.572 3.287,-0.572 l 4.208,0 c 0.567,0 0.766,0.228 0.766,0.74 l 0,4.508 c 0,0.513 -0.199,0.741 -0.766,0.741 l -7.495,0 0,7.374 c 0,0.883 -0.23,1.488 -0.726,1.94 C 3.282,-0.326 1.776,0 0,0 m -20.074,-7.04 c -2.968,0 -4.801,2.107 -4.801,4.762 0,2.656 1.833,4.762 4.801,4.762 2.968,0 4.801,-2.106 4.801,-4.762 0,-2.655 -1.833,-4.762 -4.801,-4.762"
               inkscape:connector-curvature="0" />
          </g>
        </g>
      </g>
    </g>
  </g>
</svg>
