<?xml version="1.0" encoding="utf-8"?>
<!-- Generator: Adobe Illustrator 15.0.0, SVG Export Plug-In . SVG Version: 6.00 Build 0)  -->
<!DOCTYPE svg PUBLIC "-//W3C//DTD SVG 1.1//EN" "http://www.w3.org/Graphics/SVG/1.1/DTD/svg11.dtd">
<svg version="1.1" id="Ebene_1" xmlns="http://www.w3.org/2000/svg" xmlns:xlink="http://www.w3.org/1999/xlink" x="0px" y="0px"
	 width="252px" height="160px" viewBox="147.75 85.25 252 160" enable-background="new 147.75 85.25 252 160" xml:space="preserve">
<g>
	<g>
		<path d="M533.68,14.414c0,100.003,0,199.99,0,300c-173.273-0.08-346.896,0.16-519.961-0.12c0.08-99.923-0.16-200.151,0.12-299.88
			C187.131,14.414,360.375,14.414,533.68,14.414z"/>
		<path fill="#FFFFFF" d="M533.961,15c0.199,99.729,0.199,200.266,0,300C533.961,214.99,533.961,115.003,533.961,15z"/>
	</g>
</g>
<g>
	<defs>
		<rect id="SVGID_1_" x="162.029" y="94.938" width="223.32" height="138.975"/>
	</defs>
	<use xlink:href="#SVGID_1_"  overflow="visible"/>
	<clipPath id="SVGID_2_">
		<use xlink:href="#SVGID_1_"  overflow="visible"/>
	</clipPath>
	<path clip-path="url(#SVGID_2_)" fill="#FFFFFF" d="M193.729,127.877h-15.527c-1.592,0-2.695,1.436-2.695,3.018v69.434
		c0,5.098-0.02,5.01-3.75,8.74c0,0.01-0.01,0.01-0.02,0.02l-8.77,8.77c-1.172,1.172-1.279,3.213-0.098,4.385l10.488,10.488
		c1.172,1.182,3.213,1.074,4.385-0.098l12.686-12.695c5.742-5.732,5.986-10.137,5.986-18.877v-70.166
		C196.414,129.313,195.311,127.877,193.729,127.877"/>
	<path clip-path="url(#SVGID_2_)" fill="#FFFFFF" d="M303.846,121.266l10.371-10.381c1.182-1.182,1.182-3.105,0-4.277
		l-10.479-10.488c-1.182-1.182-3.105-1.182-4.277,0L289.07,106.5c-1.172,1.182-1.279,3.203-0.098,4.385l10.479,10.488
		C300.633,122.545,302.664,122.447,303.846,121.266"/>
	<path clip-path="url(#SVGID_2_)" fill="#FFFFFF" d="M308.914,127.877h-14.58c-1.738,0-3.174,1.436-3.174,3.174v71.162
		c0,1.738,1.436,3.32,3.174,3.32h14.58c1.738,0,3.174-1.582,3.174-3.32v-71.162C312.088,129.313,310.652,127.877,308.914,127.877"/>
	<path clip-path="url(#SVGID_2_)" fill="#FFFFFF" d="M382.176,205.533H327.02c-3.486,0-6.338-2.852-6.338-6.338v-8.75
		c0-1.748,0.508-3.389,2.061-5.068l38.779-39.053c0.244-0.234,0.137-0.732-0.332-0.732h-37.715c-1.582,0-2.852-0.947-2.852-2.539
		l0.059-11.992c0-1.758,1.436-3.174,3.174-3.174h55.146c3.486,0,6.338,3.008,6.338,6.484l-0.059,9.365
		c0,1.328-0.01,3.74-1.846,5.576c0,0-36.895,37.031-37.549,37.725c-0.342,0.352-0.068,0.791,0.273,0.791h36.338
		c1.572,0,2.842,0.947,2.842,2.529v12.012C385.34,204.107,383.914,205.533,382.176,205.533"/>
	<path clip-path="url(#SVGID_2_)" fill="#FFFFFF" d="M204.334,166.705c0,21.797,17.656,39.463,39.463,39.463
		c21.787,0,39.453-17.666,39.453-39.463c0-21.787-17.666-39.453-39.453-39.453C221.99,127.252,204.334,144.918,204.334,166.705
		 M264.9,166.705c0,11.66-9.443,21.113-21.104,21.113s-21.113-9.453-21.113-21.113c-0.01-11.66,9.453-21.104,21.113-21.104
		S264.9,155.045,264.9,166.705"/>
</g>
</svg>
