<?xml version="1.0" encoding="UTF-8"?>
<svg width="652" height="450" version="1.1" xmlns="http://www.w3.org/2000/svg">
	<path d="m73.303 311.65s-29.298-0.40153-29.298 13.234c0 8.8153 41.417 2.9413 41.417 20.435l-0.32878 57.957c0 17.127 46.762 46.723 122.95 46.723h235.9c76.192 0 122.95-29.596 122.95-46.723l-0.3288-57.957c0-17.494 41.417-11.62 41.417-20.435 0-13.636-29.298-13.234-29.298-13.234z" fill="#e0dede"/>
	<path d="m326 54.269a96.344 116.26 0 0 0-88.32 70.076 274.54 198.29 0 0 0-103.43 46.186h384.16a274.54 198.29 0 0 0-104.17-46.635 96.344 116.26 0 0 0-88.246-69.626zm0 34.966a71.787 106.66 0 0 1 47.858 27.196 274.54 198.29 0 0 0-47.858-3.0748 274.54 198.29 0 0 0-48.034 3.4498 71.787 106.66 0 0 1 48.034-27.571z" fill="#e0dede"/>
	<path d="m269.43 0.062729c-0.52937 0.061073-1.1834 0.194-1.968 0.38897-1.5692 0.38995-3.6549 1.0339-6.1356 1.8847-4.9614 1.7016-11.481 4.2293-18.384 7.1775-6.8824 2.9396-13.418 5.6126-18.393 7.548-2.4874 0.96767-4.5844 1.7538-6.1356 2.2922-0.7756 0.26921-1.4148 0.47388-1.8893 0.61124-0.46616 0.13495-0.81954 0.18338-0.79184 0.18523-3e-3 -0.0046-2e-3 0.0077-0.0185-0.04631-0.0509-0.17168-0.0694-0.62216 0.0416-1.2225 0.22199-1.2007 0.89187-3.0074 1.9588-5.0706 1.3906-2.6891 2.2033-4.7696 2.4218-6.5153 0.2185-1.7457-0.23833-3.2066-1.3058-4.2741-0.91075-0.91076-1.8433-1.5141-2.8942-1.5281-1.0508-0.014003-2.0213 0.59731-2.908 1.6439-1.7735 2.0931-3.5665 6.1099-6.043 12.739-1.8472 4.9444-3.0657 7.5696-5.7281 9.8401-2.6624 2.2705-6.8993 4.2372-14.744 7.548-4.664 1.9684-9.0112 4.0875-12.28 5.9319-1.6347 0.92216-2.9984 1.7725-4.0101 2.5144-0.50588 0.37095-0.92682 0.71678-1.2549 1.0419-0.32809 0.32511-0.57767 0.61237-0.71312 1.0187-0.21817 0.65451-0.30754 1.2543-0.20376 1.8198 0.1038 0.5655 0.43787 1.0764 0.90762 1.3938 0.93948 0.63488 2.2411 0.6556 3.9175 0.38434 3.3529-0.54251 8.3488-2.4712 14.749-5.7142 3.2115-1.6274 6.231-3.1066 8.4972-4.1768 1.1331-0.53514 2.0765-0.96864 2.7599-1.2642 0.22322-0.09654 0.37005-0.15233 0.53253-0.21765 0.0261 0.2734 0.0552 0.58279 0.0463 1.0465-0.0222 1.1654-0.16906 2.8168-0.43528 4.6307-0.26857 1.8299-1.6828 4.6828-4.0379 7.9879-2.3551 3.3051-5.6336 7.0954-9.5716 10.993l-12.341 12.216-5.4318-5.0983c-1.8656-1.7526-3.2502-3.1566-4.1259-4.2926-0.87568-1.136-1.2054-1.969-1.1762-2.6024 0.0292-0.63337 0.38935-1.2459 1.329-2.0282 0.93965-0.78234 2.418-1.6606 4.4084-2.7136 1.3641-0.72164 2.419-1.3191 3.209-1.8476 0.79002-0.52851 1.3321-0.95957 1.6346-1.5513 0.15124-0.29585 0.22377-0.66695 0.13891-1.0095-0.0848-0.34253-0.29497-0.61448-0.53252-0.82889-0.47511-0.4288-1.115-0.72202-1.968-1.0558-1.6746-0.6552-3.4106-0.83911-5.2512-0.41213s-3.7738 1.4403-5.9643 3.1072c-4.381 3.3336-9.8379 9.309-17.643 18.861-3.9896 4.8824-7.7634 9.3192-10.623 12.531-1.4297 1.6057-2.6278 2.9057-3.5054 3.7925-0.34568 0.34933-0.59568 0.57677-0.82889 0.78721-0.0535-0.47435-0.0844-1.1319-0.0602-2.0004 0.0527-1.8899 0.30436-4.535 0.7409-7.4461 0.582-3.8811 0.73684-6.7067 0.38434-8.6084-0.17625-0.95084-0.47348-1.7066-1.0558-2.2088-0.5823-0.50222-1.4216-0.59472-2.1949-0.35193-1.5466 0.48558-3.2439 2.0186-5.4642 4.5751-2.2202 2.5564-4.8989 6.1599-8.0666 10.831-2.8691 4.231-5.5476 8.0097-7.5433 10.678-0.95745 1.2803-1.7346 2.2662-2.3153 2.9544 0.0187-0.52734 0.0412-1.0883 0.12502-1.8569 0.21286-1.951 0.65352-4.5567 1.3753-7.2609 0.72905-2.7314 1.802-6.4226 2.2181-9.479 0.20806-1.5282 0.27254-2.8911-0.0324-3.9963-0.15248-0.55256-0.41071-1.061-0.84278-1.4262-0.43207-0.36525-1.024-0.53751-1.6439-0.50474-0.93138 0.04924-1.6602 0.62845-2.1857 1.3475-0.52541 0.71907-0.93118 1.6099-1.3707 2.5839-0.879 1.9479-1.8771 4.2134-3.7045 5.8995-3.8248 3.5291-10.411 7.4712-14.383 9.766-1.7575 1.0155-3.089 1.7721-4.0842 2.2505-0.99525 0.47839-1.6527 0.64712-1.9773 0.62513-0.3246-0.02209-0.44553-0.10235-0.72238-0.58346-0.27685-0.48109-0.56872-1.3267-0.93539-2.482-0.47454-1.4952-1.588-3.032-2.8293-4.2602-1.2413-1.2282-2.5308-2.2088-3.8712-2.2088-0.77763 0-1.4972 0.24089-1.9264 0.8011-0.42912 0.56022-0.50813 1.2774-0.43065 2.0606 0.15496 1.5665 0.94017 3.6341 2.1208 6.3764 1.2239 2.8428 1.5695 4.5943 0.79184 6.8487-0.77769 2.2545-2.8078 5.0748-6.5107 9.6086-5.3228 6.5172-10.488 14.498-14.336 21.746s-6.4181 13.658-6.4181 17.481c0 3.24 1.6879 7.3836 3.9361 9.6318 1.3093 1.3093 2.4125 2.2925 3.51 2.9127 1.0975 0.62015 2.2412 0.85459 3.385 0.56958 2.2876-0.57003 4.4201-2.8435 7.8721-6.946 2.8271-3.3598 6.148-10.386 9.2752-18.81 3.1272-8.4235 6.0086-18.205 7.7332-26.913 0.30995-1.5651 1.5977-3.9296 3.4869-6.3625 1.8891-2.4329 4.3666-4.9692 6.9969-7.0525l8.3352-6.6033v5.5892c0 3.5021 0.53399 5.994 1.718 7.548 0.59199 0.77697 1.3775 1.303 2.269 1.4957 0.89151 0.19273 1.8603 0.0629 2.8664-0.31488 4.0244-1.511 9.0683-6.9395 14.832-15.994l3.4915-5.492 0.95854 4.0889c0.66784 2.8495 1.6864 4.9128 3.172 6.1402s3.4273 1.4875 5.5058 0.83352c4.1571-1.308 9.1953-5.9571 15.332-13.86 3.0747-3.9593 6.0619-7.9415 8.4602-10.919 1.1991-1.4888 2.2553-2.7307 3.0794-3.5749 0.41205-0.42206 0.76695-0.74288 1.0326-0.94002 0.26569-0.19714 0.46569-0.22227 0.34267-0.22227 0.0645 0 0.56246 0.16444 1.153 0.56031 0.59058 0.39587 1.3114 0.97991 2.0745 1.6624 1.5262 1.365 3.2406 3.1258 4.6631 4.6399l4.7835 5.0891-8.136 10.655c-5.7914 7.5848-8.916 12.557-8.9649 16.226-0.0245 1.8346 0.89457 3.3334 2.5422 4.2602 1.6477 0.92683 3.9754 1.4117 7.0618 1.6624 3.3058 0.26854 5.7541-0.11298 7.8582-1.4726 2.1041-1.3596 3.8053-3.6043 5.8994-6.946 3.4652-5.5296 4.7239-10.786 3.9963-16.781-0.43731-3.6035-0.34949-5.922 0.89834-8.6547 1.2478-2.7327 3.732-5.917 8.136-10.947 3.7928-4.3318 6.3531-6.9406 7.7749-7.9323 0.35545-0.24792 0.64078-0.3901 0.8011-0.43991 0.16032-0.04981 0.14003-0.01304 0.0834-0.0463-0.0566-0.03324-0.0295-0.05581 9e-3 0.1065 0.0388 0.16231 0.0604 0.46159 0.0371 0.8613-0.4377 7.4952 1.5631 13.941 4.9409 17.958s8.303 5.5319 13.128 2.9497c3.3571-1.7967 6.7598-5.401 9.5669-9.6364 2.8071-4.2354 5.002-9.0981 5.7837-13.475l1.2688-7.1127-1.292-0.51863-3.899 5.8948c-2.104 3.1811-6.6287 8.9697-9.9837 12.762-3.0343 3.43-5.6221 5.1209-7.4692 5.4179-0.92356 0.14846-1.6508-0.0097-2.3061-0.44917-0.65525-0.43934-1.2476-1.1957-1.7226-2.3061-1.9002-4.4413-1.6422-14.278 1.7967-27.538l2.9034-11.192 21.695-9.0298c12.097-5.0354 26.244-10.426 31.275-11.933 4.6366-1.3892 7.5461-2.6328 8.9418-4.1722 0.69786-0.76971 0.97638-1.7762 0.62979-2.6673-0.34663-0.89106-1.1404-1.6028-2.2783-2.3061-0.50707-0.31339-0.87834-0.21852-1.4077-0.15744zm-202.36 68.992c-0.88663-0.54797-1.9861-0.39814-3.0284 0.05557-1.0424 0.45371-2.0906 1.2542-2.9636 2.3061-0.60637 0.73063-1.0595 1.3241-1.3707 1.8523-0.3112 0.52815-0.53968 1.0134-0.41213 1.5929 0.06377 0.2898 0.2509 0.56286 0.47233 0.73628 0.22144 0.17341 0.4625 0.26874 0.72238 0.33804 0.51977 0.1386 1.133 0.17597 1.9125 0.17597 2.4202 0 4.4441-1.0294 5.5105-2.4542 0.53318-0.71241 0.83356-1.5568 0.71775-2.4079-0.11582-0.85119-0.66758-1.6431-1.5605-2.1949zm107.4 14.985c0.0209 0.05982 0.0183 0.02763 0.0371 0.12966 0.10316 0.56108 0.1276 1.6441 0.13429 3.0886 7e-3 1.5115-0.37755 3.4877-0.88446 5.2326-0.50691 1.745-1.1694 3.3063-1.5466 3.8712-0.82327 1.233-2.9979 2.9901-5.867 4.501-1.8798 0.98996-3.2299 1.3197-3.8064 1.2456-0.28826-0.037-0.35336-0.0979-0.42139-0.21301-0.068-0.11515-0.13045-0.38308-0.0694-0.83351 0.12201-0.90087 0.73754-2.4059 1.88-4.2787 1.1425-1.8728 2.8011-4.1365 4.9594-6.7006 1.7056-2.0262 2.9896-3.5461 3.9453-4.5797 0.87357-0.9448 1.4371-1.3491 1.6392-1.4633zm-107.05 30.715c0.02496 0.17208 0.04319 0.41433 0.03706 0.73164-0.01328 0.68693-0.11387 1.6528-0.29173 2.8015-0.35571 2.2975-1.0127 5.3361-1.8337 8.5621-1.6422 6.4519-3.9653 13.7-5.7976 17.356-1.6935 3.3794-4.8368 7.9255-6.8024 9.8911-2.1376 2.1376-3.8107 3.2205-4.677 3.3989-0.43312 0.0892-0.58377 0.0265-0.74553-0.13428-0.16177-0.16082-0.3528-0.55315-0.42602-1.2364-0.14645-1.3665 0.1672-3.7357 1.0187-6.8904s2.2226-7.118 4.1213-11.799c1.7987-4.4345 5.514-10.607 8.9603-15.415 1.7232-2.4041 3.3842-4.4774 4.6816-5.8115 0.64872-0.66704 1.2165-1.1494 1.5929-1.3799 0.08656-0.0531 0.1024-0.0482 0.16207-0.0741z" fill="#fbc817"/>
	<path d="m461.22 183.79v114.62h25.015v-55.447l48.46 56.503h7.9462v-114.69h-25.075v55.304l-48.279-56.29zm-412.78 0.98633c-27.387 0-48.446 24.962-48.446 57.411 0 34.421 23.188 57.281 48.011 57.281 13.366 0 24.546-6.6002 32.947-16.124l-13.308-22.107c-5.6737 6.3265-12.274 10.678-19.639 10.678-12.548 0-24.334-12.518-24.334-29.525 0-16.803 11.295-29.659 24.825-29.659 6.492 0 13.636 4.0141 19.037 10.136l13.42-21.495c-9.0016-10.204-21.164-16.392-32.512-16.596zm94.567 0c-27.387 0-48.376 24.814-48.376 57.545 0 32.46 20.934 57.147 48.321 57.147 27.441 0 48.432-24.687 48.432-57.147 0-32.731-20.99-57.545-48.376-57.545zm108.35 0c-27.387 0-48.381 24.814-48.381 57.545 0 32.46 20.939 57.147 48.325 57.147 27.441 0 48.432-24.687 48.432-57.147 0-32.731-20.99-57.545-48.376-57.545zm62.18 0v113.59h25.399v-34.447l5.4595-7.335 32.373 41.782h34.836l-50.548-62.213 43.213-51.382h-34.336l-30.998 38.342v-38.342zm105.81 0v113.59h25.45v-113.59zm186.56 0c-27.649 0-49.108 26.014-49.108 57.883 0 31.869 21.091 56.809 49.404 56.809 25.327 0 45.788-21.963 45.788-55.911 0-3.5333 0.0349-2.5241-0.40751-6.2653h-45.732v19.907h16.207c-1.8804 7.1003-8.378 11.858-14.605 11.79-13.898-0.15174-24.802-10.742-24.802-26.399 0-17.251 9.9834-27.816 23.255-27.816 6.5806 0 11.119 0.65413 16.096 6.4736l15.698-20.078c-7.3548-8.5214-20.458-16.185-31.794-16.393zm-462.9 27.52c13.994 0 24.709 12.987 24.709 29.826 0 16.771-10.715 29.687-24.709 29.687-13.994 0-24.709-12.916-24.709-29.687 0-16.839 10.715-29.826 24.709-29.826zm108.35 0c13.994 0 24.705 12.987 24.705 29.826 0 16.771-10.711 29.687-24.705 29.687-13.994 0-24.709-12.916-24.709-29.687 0-16.839 10.715-29.826 24.709-29.826z" fill="#fbc817"/>
</svg>
