<?xml version="1.0" encoding="UTF-8"?>
<svg width="531.8" height="450" version="1.1" xmlns="http://www.w3.org/2000/svg">
	<defs>
		<linearGradient id="d" x2="1" gradientTransform="matrix(-170.85 81.89 -81.89 -170.85 233.98 112.28)" gradientUnits="userSpaceOnUse">
			<stop stop-color="#c4c6c9" offset="0"/>
			<stop stop-color="#e8e9e8" offset=".246"/>
			<stop stop-color="#f2f1ef" offset=".34"/>
			<stop stop-color="#e7e5e6" offset=".423"/>
			<stop stop-color="#e2e3e4" offset=".486"/>
			<stop stop-color="#f1efef" offset=".847"/>
			<stop stop-color="#d1d3d5" offset="1"/>
		</linearGradient>
		<linearGradient id="c" x2="1" gradientTransform="matrix(-116.08 -258.76 258.76 -116.08 256.77 307.96)" gradientUnits="userSpaceOnUse">
			<stop stop-color="#7a6d5f" offset="0"/>
			<stop stop-color="#efe8e6" offset=".288"/>
			<stop stop-color="#b6ada5" offset=".712"/>
			<stop stop-color="#93877d" offset=".862"/>
			<stop stop-color="#7a6d5f" offset="1"/>
		</linearGradient>
		<radialGradient id="b" cx="0" cy="0" r="1" gradientTransform="matrix(135.06 0 0 150.48 286.3 146.54)" gradientUnits="userSpaceOnUse">
			<stop stop-color="#838689" offset="0"/>
			<stop stop-color="#838689" offset=".451"/>
			<stop stop-color="#d6d5d5" offset=".864"/>
			<stop stop-color="#f4f2f1" offset="1"/>
		</radialGradient>
		<radialGradient id="a" cx="0" cy="0" r="1" gradientTransform="matrix(168.61 -5.5819 5.5819 168.61 266.61 108.16)" gradientUnits="userSpaceOnUse">
			<stop stop-color="#bfb8ab" offset="0"/>
			<stop stop-color="#93877d" offset=".231"/>
			<stop stop-color="#d1cbc0" offset=".541"/>
			<stop stop-color="#f0ebe1" offset=".678"/>
			<stop stop-color="#fff" offset="1"/>
		</radialGradient>
	</defs>
	<path d="m458.62 350.79c-31.337 0-46.374 23.279-46.374 46.272 0 26.586 18.007 45.883 44.643 45.883 12.787 0 24.492-4.4435 32.94-12.557 7.9044-7.774 12.659-20.537 12.659-34.49 0-25.731-18.239-45.108-43.868-45.108m0.64564 84.093c-15.037 0-25.524-16.637-25.524-40.455 0-20.953 9.1459-35.575 22.241-35.575 15.037 0 24.753 15.992 24.753 40.716 0 21.47-8.4244 35.316-21.47 35.316m-445.03-32.809c0 8.2128-0.1804 17.67-1.4479 25.422-1.1869 7.7241-4.5716 12.115-11.65 15.139l-1.137 0.48898 2.8413 6.8741 1.0349-0.23244c6.0434-1.3435 11.65-4.1873 16.637-8.4244 12.891-10.516 13.924-23.768 13.924-38.728v-49.137l-20.2-0.82604zm105.67-3.2805c0 21.985-6.9761 32.655-21.316 32.655-16.637 0-20.124-16.329-20.124-30.02v-48.778h-20.228v51.155c0 15.657 3.6412 25.861 11.47 32.164 5.9935 4.6264 14.133 6.9788 24.131 6.9788 9.9978 0 19.22-3.6436 25.344-10.027 6.8979-7.413 9.8436-17.542 9.8436-33.87v-46.397h-9.1198zm124.01-45.187c-0.10442 0.4154-10.85 40.021-16.094 57.898-6.9527-18.472-22.17-58.053-22.17-58.053h-6.4565l-0.26112 0.90438a1888 1888 0 0 1-18.443 57.331c-4.0591-13.616-17.777-59.035-17.777-59.035h-19.97l0.49137 1.626 26.635 87.275 0.28485 0.90201h8.7068l0.28486-0.87823a14727 14727 0 0 1 18.781-55.596l20.566 55.622 0.3086 0.85454h8.6569l0.28485-0.90439c7.7241-25.759 27.926-86.629 28.133-87.249l0.54356-1.6521h-12.272zm48.052 46.476 30.77-2.1933v-9.1198l-30.77 2.1956 0.0522-29.298h34.257l-0.56972-9.0439h-53.94v88.334h57.093l1.8349-9.7132-38.728-0.0544zm77.762-47.432-20.2 0.82604v87.502h53.789l2.0176-10.024h-35.475z" fill="#978b82"/>
	<path d="m414.1 240.37v64.236h12.633v-27.53h24.549v27.53h12.59v-64.236h-12.59v26.03h-24.549v-26.03zm63.884 0v64.236h21.494c9.5991 0 17.375-2.8081 23.333-8.4267 5.9912-5.6469 8.9845-13.06 8.9845-22.237v-2.8674c0-9.1765-2.9932-16.592-8.9845-22.239-5.9579-5.6446-13.67-8.4671-23.139-8.4671zm14.539 10.72h7.1496c11.593 0 17.39 6.6322 17.39 19.898v2.9552c0 6.4115-1.4954 11.351-4.4934 14.821-2.9624 3.4418-7.3254 5.165-13.091 5.165h-6.955z" fill="#978b82"/>
	<path d="m304.65 3.8239-25.37 62.161s-2.998 7.9304 3.7457 11.187h-0.0238c33.481 14.157 59.757 45.444 59.757 85.953 0 62.936-47.175 90.889-84.044 95.564h0.0261l-2.5066 0.28486 4.0043-0.10209c57.508-2.1696 118.2-46.608 118.2-134.37 0-57.924-28.033-92.979-46.506-110.5a101.87 101.87 0 0 0-12.4-10.257c-2.8152-1.9393-4.4174-2.5588-4.4412-2.585a10.254 10.254 0 0 0-4.5456-1.0587c-2.3262 0-4.7546 0.87827-5.8914 3.7196m-45.962 254.86h0.0261-0.0238" fill="url(#a)"/>
	<path d="m313.69 0.72377h0.0261zm0.15666 0.078333a5.6068 5.6068 0 0 1 1.2391 0.5151c0.0261 0.026112 1.6283 0.64803 4.4435 2.585 2.9196 2.0152 7.1829 5.2697 12.4 10.254 18.474 17.518 46.506 52.576 46.506 110.5 0 87.763-60.687 132.2-118.2 134.37l-4.0044 0.10443-2.3761 0.0238c-43.634 0-68.204-21.933-81.304-41.283a114.45 114.45 0 0 1-14.131-28.238 95.991 95.991 0 0 0 2.7891 9.5065 146.1 146.1 0 0 0 7.7241 19.377c11.161 22.84 28.729 45.187 52.421 59.213a102.46 102.46 0 0 0 48.468 14.546 134.08 134.08 0 0 0 6.5109 0.18039c27.437 0 51.027-7.6458 70.555-20.228 44.125-28.418 67.535-82.052 67.535-129.85 0-50.947-22.631-99.362-74.561-131.29a111.61 111.61 0 0 0-11.239-5.7372 93.341 93.341 0 0 0-12.557-4.0826l-2.35-0.54122 0.13054 0.078333" fill="url(#b)"/>
	<path d="m208.8 66.343a165.89 165.89 0 0 0-11.263 1.0872c-27.205 3.976-92.982 28.29-92.982 110.55 0 49.658 25.553 82.778 58.234 102.7 0.54122 0.3086 35.344 23.82 86.342 23.82 36.918 0 70.249-12.246 97.605-32.242-19.531 12.581-43.12 20.228-70.555 20.228-2.1957 0-4.3914-0.0783-6.5109-0.18039a102.46 102.46 0 0 1-48.468-14.546c-23.692-14.029-41.26-36.374-52.421-59.213a146.1 146.1 0 0 1-7.7241-19.377 88.719 88.719 0 0 1-3.3327-12.092c-1.061-4.1325-1.9654-10.72-1.9654-18.265l0.0522-0.076v-0.20651c0-47.95 26.198-77.585 59.655-91.765 3.9023-1.8087 5.1937-4.9371 4.7285-7.1307-0.18039-0.82842-0.49137-1.2676-0.49137-1.2676-0.61714-0.74773-1.2913-2.0651-8.3435-2.0651l-2.5588 0.04985" fill="url(#c)"/>
	<path d="m182.96 0.98251c-58.283 24.905-94.687 76.315-94.687 142.27 0 58.699 27.955 110.06 76.088 138.19-0.93051-0.54356-1.3957-0.90439-1.4717-0.9305-32.683-19.92-58.234-53.041-58.234-102.7 0-82.26 65.774-106.57 92.979-110.55a165.89 165.89 0 0 1 11.833-1.1109h0.90439l0.43913-0.02381h1.4717l0.20889 0.02381h0.67176l0.36079 0.02608h0.23263l0.49136 0.05223h0.076l0.20889 0.02381h0.0498l0.80231 0.07835 0.85215 0.10443h0.0238l0.18278 0.05223 0.18039 0.02381h0.0261l0.1282 0.02835h0.0261l0.15666 0.04985h0.15427l0.28486 0.10443h0.0238a7.6742 7.6742 0 0 1 1.2937 0.49137c0.0522 0.04985 0.10209 0.10208 0.1804 0.10208l0.12816 0.10446v0.02381h0.0261l0.18039 0.15666 0.46525 0.46525v0.02381a0.56968 0.56968 0 0 0 0.10443 0.13054s0.30859 0.43914 0.49137 1.2652l0.0498 0.26112v0.02381l0.0261 0.25874h0.0261a14.854 14.854 0 0 0-1.3696-5.0112l-25.059-61.152c-1.1868-2.9956-3.5914-3.8501-6.0196-3.8501a15.113 15.113 0 0 0-4.9847 0.9827" fill="url(#d)"/>
</svg>
