<svg xmlns="http://www.w3.org/2000/svg" width="800.049" height="716.502" viewBox="0 0 211.683 189.572"><defs><linearGradient id="d" x2="1" gradientTransform="scale(-79.81781) rotate(-25.609 -1.921 2.417)" gradientUnits="userSpaceOnUse"><stop stop-color="#c4c6c9" offset="0"/><stop stop-color="#e8e9e8" offset=".246"/><stop stop-color="#f2f1ef" offset=".34"/><stop stop-color="#e7e5e6" offset=".423"/><stop stop-color="#e2e3e4" offset=".486"/><stop stop-color="#f1efef" offset=".847"/><stop stop-color="#d1d3d5" offset="1"/></linearGradient><linearGradient id="c" x2="1" gradientTransform="scale(-119.48044) rotate(65.839 .387 -1.242)" gradientUnits="userSpaceOnUse"><stop stop-color="#7a6d5f" offset="0"/><stop stop-color="#efe8e6" offset=".288"/><stop stop-color="#b6ada5" offset=".712"/><stop stop-color="#93877d" offset=".862"/><stop stop-color="#7a6d5f" offset="1"/></linearGradient><radialGradient id="b" cx="0" cy="0" r="1" gradientTransform="matrix(56.89611 0 0 63.39386 120.501 61.762)" gradientUnits="userSpaceOnUse"><stop stop-color="#838689" offset="0"/><stop stop-color="#838689" offset=".451"/><stop stop-color="#d6d5d5" offset=".864"/><stop stop-color="#f4f2f1" offset="1"/></radialGradient><radialGradient id="a" cx="0" cy="0" r="1" gradientTransform="scale(71.07335) rotate(-1.896 20.172 -47.382)" gradientUnits="userSpaceOnUse"><stop stop-color="#bfb8ab" offset="0"/><stop stop-color="#93877d" offset=".231"/><stop stop-color="#d1cbc0" offset=".541"/><stop stop-color="#f0ebe1" offset=".678"/><stop stop-color="#fff" offset="1"/></radialGradient></defs><path d="M193.202 147.781c-13.202 0-19.537 9.806-19.537 19.493 0 11.2 7.586 19.33 18.808 19.33 5.387 0 10.318-1.872 13.877-5.29 3.33-3.275 5.333-8.652 5.333-14.53 0-10.84-7.684-19.003-18.481-19.003m.272 35.427c-6.335 0-10.753-7.009-10.753-17.044 0-8.827 3.853-14.987 9.37-14.987 6.335 0 10.428 6.737 10.428 17.153 0 9.045-3.549 14.878-9.045 14.878M5.997 169.386c0 3.46-.076 7.444-.61 10.71-.5 3.254-1.926 5.104-4.908 6.378L0 186.68l1.197 2.896.436-.098c2.546-.566 4.908-1.764 7.009-3.549 5.431-4.43 5.866-10.013 5.866-16.315v-20.701l-8.51-.348zm44.516-1.383c0 9.263-2.939 13.758-8.98 13.758-7.009 0-8.478-6.879-8.478-12.647v-20.55h-8.522v21.551c0 6.596 1.534 10.895 4.832 13.55 2.525 1.949 5.954 2.94 10.166 2.94 4.212 0 8.097-1.535 10.677-4.224 2.906-3.123 4.147-7.39 4.147-14.269v-19.547h-3.842zm52.243-19.036c-.044.175-4.571 16.86-6.78 24.391-2.929-7.782-9.34-24.456-9.34-24.456h-2.72l-.11.381a795.403 795.403 0 0 1-7.77 24.152c-1.71-5.736-7.489-24.87-7.489-24.87h-8.413l.207.685 11.221 36.767.12.38h3.668l.12-.37a6204.152 6204.152 0 0 1 7.912-23.422l8.664 23.433.13.36h3.647l.12-.381c3.254-10.852 11.765-36.495 11.852-36.756l.229-.696h-5.17zM123 168.547l12.963-.924v-3.843l-12.963.926.022-12.343h14.432l-.24-3.81H114.49v37.213h24.053l.773-4.092-16.315-.022zm32.76-19.982l-8.51.348v36.864h22.66l.85-4.223h-14.945z" fill="#978b82" stroke-width="10.884"/><g stroke-width="10.884"><path d="M128.229 1.64l-10.688 26.186s-1.263 3.341 1.578 4.713h-.01c14.105 5.964 25.174 19.145 25.174 36.21 0 26.514-19.874 38.29-35.406 40.26h.011l-1.056.12 1.687-.043c24.228-.914 49.795-19.635 49.795-56.608 0-24.402-11.81-39.171-19.592-46.55a42.916 42.916 0 0 0-5.224-4.321C133.312.79 132.637.529 132.626.518a4.32 4.32 0 0 0-1.915-.446c-.98 0-2.003.37-2.482 1.567m-19.363 107.37h.011-.01" fill="url(#a)" transform="translate(.104 -.03)"/><path d="M132.038.333h.011zm.066.033a2.362 2.362 0 0 1 .522.217c.011.011.686.273 1.872 1.089 1.23.849 3.026 2.22 5.224 4.32 7.783 7.38 19.592 22.15 19.592 46.552 0 36.973-25.567 55.693-49.795 56.607l-1.687.044-1.001.01c-18.383 0-28.734-9.24-34.252-17.392a48.216 48.216 0 0 1-5.953-11.896 40.44 40.44 0 0 0 1.175 4.005 61.55 61.55 0 0 0 3.254 8.163c4.702 9.622 12.103 19.036 22.084 24.946a43.166 43.166 0 0 0 20.418 6.128 56.488 56.488 0 0 0 2.743.076c11.559 0 21.496-3.221 29.724-8.522 18.59-11.972 28.451-34.567 28.451-54.703 0-21.463-9.534-41.86-31.411-55.312a47.019 47.019 0 0 0-4.735-2.417 39.324 39.324 0 0 0-5.29-1.72l-.99-.228.055.033" fill="url(#b)" transform="translate(.104 -.03)"/><path d="M87.85 27.978a69.886 69.886 0 0 0-4.746.458c-11.461 1.676-39.172 11.918-39.172 46.572 0 20.92 10.765 34.873 24.533 43.264.228.13 14.89 10.035 36.374 10.035 15.553 0 29.594-5.159 41.12-13.583-8.228 5.3-18.165 8.522-29.724 8.522-.925 0-1.85-.032-2.743-.076a43.166 43.166 0 0 1-20.418-6.128c-9.981-5.91-17.382-15.324-22.084-24.946a61.55 61.55 0 0 1-3.254-8.163 37.376 37.376 0 0 1-1.404-5.094c-.447-1.741-.828-4.516-.828-7.695l.022-.032v-.087c0-20.201 11.037-32.685 25.131-38.66 1.644-.762 2.188-2.08 1.992-3.004-.076-.349-.207-.534-.207-.534-.26-.315-.544-.87-3.515-.87l-1.078.021" fill="url(#c)" transform="translate(.104 -.03)"/><path d="M76.965.442c-24.554 10.492-39.89 32.151-39.89 59.938 0 24.729 11.777 46.366 32.054 58.219-.392-.229-.588-.381-.62-.392-13.769-8.392-24.533-22.345-24.533-43.264 0-34.655 27.71-44.897 39.171-46.573a69.886 69.886 0 0 1 4.985-.468h.381l.185-.01h.62l.088.01h.283l.152.011h.098l.207.022h.032l.088.01h.021l.338.033.359.044h.01l.077.022.076.01h.011l.054.012h.011l.066.021h.065l.12.044h.01a3.233 3.233 0 0 1 .545.207c.022.021.043.043.076.043l.054.044v.01h.011l.076.066.196.196v.01a.24.24 0 0 0 .044.055s.13.185.207.533l.021.11v.01l.011.109h.011a6.258 6.258 0 0 0-.577-2.111L81.602 1.65C81.102.388 80.089.028 79.066.028a6.367 6.367 0 0 0-2.1.414" fill="url(#d)" transform="translate(.104 -.03)"/></g></svg>