<svg xmlns="http://www.w3.org/2000/svg" xmlns:xlink="http://www.w3.org/1999/xlink" width="800" height="349.21"><defs><path id="A" d="M173.74.178v75.634H.037V.178z"/><mask id="B" fill="#fff"><use xlink:href="#A"/></mask></defs><g fill-rule="evenodd"><g fill="#f2eff1"><path d="M35.059 348.35h-9.804c-1.234 0-1.663-.37-2.281-1.42l-8.754-15.226c-1.05-1.787-1.79-4.008-1.79-4.008h-.124v19.175c0 .985-.491 1.479-1.479 1.479H1.95c-.985 0-1.479-.494-1.479-1.479v-40.567c0-.988.494-1.482 1.479-1.482h8.878c.988 0 1.479.494 1.479 1.482v16.398h.124l11.345-16.46c.68-.988 1.05-1.42 2.281-1.42h7.706c.988 0 1.417.494 1.417 1.482 0 .305-.121.74-.37 1.109l-12.206 16.46 13.502 21.826c.248.37.432.802.432 1.171 0 .985-.494 1.479-1.479 1.479M57.492 333c-3.698.615-7.399 1.973-7.399 6.286 0 2.591 1.666 4.254 4.254 4.254 1.663 0 3.145-.677 3.145-2.526zm8.138 14.179c-1.79 1.047-6.535 2.032-10.913 2.032-7.274 0-15.229-1.849-15.229-9.061 0-8.632 10.36-10.357 18.004-11.715v-3.884c0-2.159-1.42-3.39-3.145-3.39-2.16 0-3.452 1.79-3.946 3.328-.615 1.849-2.405 2.961-4.81 2.961-2.648 0-4.745-1.355-4.745-4.07 0-3.39 4.192-7.83 14.981-7.83 7.029 0 12.33 3.145 12.33 10.111v16.338c0 2.654-.491 3.946-2.526 5.18zm21.138 2.031c-4.192 0-10.109-1.355-10.109-9.801V322.39h-2.837c-.985 0-1.417-.491-1.417-1.476v-3.02c0-.988.432-1.482 1.417-1.482h2.837v-3.698c0-1.05.246-1.603.985-1.911l7.644-3.082c.311-.124.618-.308.988-.308.926 0 1.479.553 1.479 1.479v7.52h4.378c.985 0 1.479.494 1.479 1.482v3.02c0 .985-.494 1.476-1.479 1.476h-4.378v17.326c0 3.145 1.479 3.946 3.331 3.946h1.047c1.234 0 1.97.677 1.97 1.911 0 2.159-3.266 3.636-7.337 3.636m40.324-.859h-8.262c-.988 0-1.417-.494-1.417-1.479v-20.409c0-2.775-1.544-4.13-4.008-4.13-1.541 0-2.651.494-3.514 1.234v23.305c0 .985-.494 1.479-1.479 1.479h-8.2c-.985 0-1.479-.494-1.479-1.479v-44.205c0-.988.494-1.479 1.479-1.479h8.2c.985 0 1.479.491 1.479 1.479v15.782c1.358-1.231 4.564-2.899 9.002-2.899 5.363 0 9.677 3.455 9.677 9.002v22.32c0 .985-.491 1.479-1.476 1.479m22.548-26.95c-2.899 0-4.44 3.455-4.44 10.422 0 7.029 1.541 10.789 4.5 10.789 3.023 0 4.438-3.517 4.438-10.484S152.6 321.4 149.641 321.4zm.059 27.805c-9.372 0-15.782-6.286-15.782-16.892s6.473-16.77 15.782-16.77 15.785 6.168 15.785 16.77-6.413 16.892-15.785 16.892zm31.011-.855h-8.262c-.985 0-1.417-.494-1.417-1.479v-44.205c0-.988.432-1.479 1.417-1.479h8.262c.985 0 1.479.491 1.479 1.479v44.205c0 .985-.494 1.479-1.479 1.479m18.18 0h-8.262c-.985 0-1.417-.494-1.417-1.479v-28.976c0-.988.432-1.482 1.417-1.482h8.262c.988 0 1.479.494 1.479 1.482v28.976c0 .985-.491 1.479-1.479 1.479zm-4.13-35.328c-3.639 0-5.857-2.035-5.857-4.44s2.219-4.313 5.857-4.313 5.855 1.911 5.855 4.313-2.219 4.44-5.855 4.44zm24.53 36.188c-9.372 0-13.688-4.559-13.688-8.138 0-2.589 1.728-4.127 4.378-4.127 2.219 0 4.071 1.169 4.872 2.772.985 1.973 2.035 3.39 4.251 3.39 1.606 0 2.961-1.109 2.961-2.896 0-6.289-15.847-4.562-15.847-15.043 0-6.289 5.553-9.62 13.197-9.62 8.2 0 12.33 3.639 12.33 7.091 0 2.405-1.728 3.822-4.068 3.822-2.035 0-3.822-1.109-4.627-2.834s-1.787-2.961-3.698-2.961-2.961 1.171-2.961 2.899c0 6.351 16.279 4.13 16.279 15.413 0 5.92-4.934 10.233-13.38 10.233m32.181-.001c-8.324 0-14.859-5.792-14.859-16.705 0-10.114 5.18-16.957 15.226-16.957 8.387 0 12.641 4.748 12.641 8.2 0 2.713-1.603 4.562-4.994 4.562-2.591 0-3.822-1.725-4.44-3.636-.432-1.296-1.293-3.331-3.636-3.331-2.408 0-4.44 2.899-4.44 8.079 0 5.73 2.219 10.972 7.274 10.972 3.02 0 4.5-1.725 5.671-3.204.68-.802 1.42-1.234 2.405-1.234 1.358 0 2.222.988 2.222 2.526 0 5.609-5.736 10.727-13.07 10.727m46.42-.859h-8.262c-.985 0-1.417-.494-1.417-1.479v-20.409c0-2.775-1.541-4.13-4.008-4.13-1.541 0-2.651.494-3.514 1.234v23.305c0 .985-.491 1.479-1.479 1.479h-8.2c-.985 0-1.479-.494-1.479-1.479v-44.205c0-.988.494-1.479 1.479-1.479h8.2c.988 0 1.479.491 1.479 1.479v15.782c1.358-1.231 4.565-2.899 9.002-2.899 5.366 0 9.68 3.455 9.68 9.002v22.32c0 .985-.491 1.479-1.479 1.479m21.258-27.01c-3.636 0-4.869 4.133-4.932 7.585l9.185-1.541c-.062-2.899-1.047-6.044-4.254-6.044zm1.296 27.867c-9.002 0-15.723-5.361-15.723-17.199 0-11.407 7.153-16.463 15.599-16.463 7.706 0 13.318 5.612 13.318 12.948 0 2.159-.805 2.834-2.591 3.145l-16.031 2.589c.805 3.701 3.023 6.538 7.585 6.538 3.269 0 5.674-2.097 6.721-3.393.553-.677 1.234-1.109 2.219-1.109 1.234 0 2.159.985 2.159 2.405 0 5.485-6.044 10.54-13.256 10.54zm30.814.003c-9.372 0-13.688-4.559-13.688-8.138 0-2.589 1.725-4.127 4.378-4.127 2.219 0 4.07 1.169 4.869 2.772.988 1.973 2.035 3.39 4.254 3.39 1.603 0 2.958-1.109 2.958-2.896 0-6.289-15.845-4.562-15.845-15.043 0-6.289 5.55-9.62 13.197-9.62 8.197 0 12.33 3.639 12.33 7.091 0 2.405-1.728 3.822-4.07 3.822-2.032 0-3.822-1.109-4.624-2.834s-1.79-2.961-3.698-2.961c-1.914 0-2.961 1.171-2.961 2.899 0 6.351 16.276 4.13 16.276 15.413 0 5.92-4.932 10.233-13.377 10.233m59.921-36.681h-11.591v9.742h9.555c.985 0 1.479.494 1.479 1.479v4.624c0 .988-.494 1.42-1.479 1.42h-9.555v17.078c0 .985-.494 1.479-1.479 1.479h-9.064c-.985 0-1.482-.494-1.482-1.479v-40.567c0-.988.497-1.482 1.482-1.482h22.134c.985 0 1.417.494 1.417 1.482v4.745c0 .988-.432 1.479-1.417 1.479m18.74 8.81c-3.639 0-4.872 4.133-4.934 7.585l9.188-1.541c-.062-2.899-1.047-6.044-4.254-6.044zm1.293 27.867c-8.999 0-15.72-5.361-15.72-17.199 0-11.407 7.153-16.463 15.599-16.463 7.706 0 13.318 5.612 13.318 12.948 0 2.159-.802 2.834-2.591 3.145l-16.031 2.589c.805 3.701 3.02 6.538 7.585 6.538 3.266 0 5.671-2.097 6.721-3.393.553-.677 1.234-1.109 2.219-1.109 1.234 0 2.157.985 2.157 2.405 0 5.485-6.041 10.54-13.256 10.54zM470.23 326.4c-4.934 0-3.455-4.932-6.845-4.932-1.482 0-2.405.802-2.405 2.159v23.243c0 .985-.494 1.479-1.479 1.479h-8.2c-.985 0-1.479-.494-1.479-1.479v-25.278c0-2.343.494-3.207 2.651-4.133 2.222-.985 6.659-1.911 11.591-1.911 7.401 0 10.419 2.591 10.419 6.106 0 3.02-1.479 4.745-4.251 4.745m36.308 21.951h-8.262c-.985 0-1.417-.494-1.417-1.479v-21.332c0-2.284-.985-4.133-3.946-4.133-3.02 0-3.574 1.544-3.574 3.455v22.01c0 .985-.494 1.479-1.479 1.479h-8.203c-.985 0-1.476-.494-1.476-1.479v-25.278c0-2.343.553-3.145 2.651-4.07 2.405-1.047 7.458-1.973 12.389-1.973 8.94 0 14.797 3.145 14.797 9.496v21.826c0 .985-.491 1.479-1.479 1.479m20.269.859c-9.372 0-13.688-4.559-13.688-8.138 0-2.589 1.725-4.127 4.378-4.127 2.219 0 4.071 1.169 4.869 2.772.988 1.973 2.035 3.39 4.254 3.39 1.603 0 2.958-1.109 2.958-2.896 0-6.289-15.842-4.562-15.842-15.043 0-6.289 5.547-9.62 13.194-9.62 8.2 0 12.33 3.639 12.33 7.091 0 2.405-1.728 3.822-4.071 3.822-2.032 0-3.819-1.109-4.624-2.834s-1.787-2.961-3.698-2.961-2.961 1.171-2.961 2.899c0 6.351 16.279 4.13 16.279 15.413 0 5.92-4.932 10.233-13.38 10.233m31.752-27.871c-3.636 0-4.869 4.133-4.932 7.585l9.185-1.541c-.062-2.899-1.047-6.044-4.254-6.044zm1.296 27.867c-9.002 0-15.723-5.361-15.723-17.199 0-11.407 7.156-16.463 15.599-16.463 7.706 0 13.318 5.612 13.318 12.948 0 2.159-.805 2.834-2.591 3.145l-16.028 2.589c.802 3.701 3.02 6.538 7.582 6.538 3.269 0 5.674-2.097 6.721-3.393.553-.677 1.234-1.109 2.219-1.109 1.234 0 2.157.985 2.157 2.405 0 5.485-6.041 10.54-13.253 10.54zm46.964-.857h-8.26c-.988 0-1.417-.494-1.417-1.479v-20.409c0-2.775-1.544-4.13-4.008-4.13-1.544 0-2.654.494-3.514 1.234v23.305c0 .985-.494 1.479-1.482 1.479h-8.197c-.988 0-1.482-.494-1.482-1.479v-44.205c0-.988.494-1.479 1.482-1.479h8.197c.988 0 1.482.491 1.482 1.479v15.782c1.355-1.231 4.562-2.899 8.999-2.899 5.363 0 9.679 3.455 9.679 9.002v22.32c0 .985-.491 1.479-1.479 1.479m21.27-27.01c-3.641 0-4.872 4.133-4.934 7.585l9.185-1.541c-.059-2.899-1.047-6.044-4.251-6.044zm1.293 27.867c-9.002 0-15.72-5.361-15.72-17.199 0-11.407 7.15-16.463 15.599-16.463 7.703 0 13.315 5.612 13.315 12.948 0 2.159-.802 2.834-2.591 3.145l-16.028 2.589c.802 3.701 3.02 6.538 7.585 6.538 3.263 0 5.671-2.097 6.718-3.393.553-.677 1.236-1.109 2.222-1.109 1.231 0 2.157.985 2.157 2.405 0 5.485-6.041 10.54-13.256 10.54z"/><path transform="matrix(4.6057 0 0 4.6057 -.16937 -.81862)" d="M146.89 75.812h-1.794c-.214 0-.308-.107-.308-.321v-4.632c0-.496-.214-.897-.856-.897-.656 0-.777.335-.777.75v4.779a.28.28 0 0 1-.321.321h-1.78a.28.28 0 0 1-.321-.321v-5.489c0-.509.121-.683.576-.884.522-.227 1.619-.428 2.69-.428 1.941 0 3.213.683 3.213 2.062v4.739a.28.28 0 0 1-.322.321" mask="url(#B)"/></g><path transform="matrix(4.6057 0 0 4.6057 -.16937 -.81862)" d="M32.744 53.38h-9.478c-1.326 0-1.724-.398-2.453-1.525L13.787 40.72c-1.127-1.789-1.79-3.779-1.79-3.779h-.132V51.79c0 1.062-.53 1.591-1.591 1.591H1.59c-1.06 0-1.59-.53-1.59-1.591V4.264c0-1.06.53-1.59 1.591-1.59h8.684c1.06 0 1.591.53 1.591 1.591v28.569h.132l9.148-12.262c.795-1.061 1.06-1.525 2.385-1.525h8.153c1.06 0 1.59.53 1.59 1.591 0 .332-.199.862-.53 1.193L22.338 33.695l11.6 16.903c.265.397.398.862.398 1.192 0 1.062-.53 1.591-1.591 1.591" fill="#ee9c44" mask="url(#B)"/><g fill="#f2eff1"><path d="M109.75 19.044h-7.225c-1.193 0-1.657.398-1.988 1.459l-4.242 15.179c-.861 3.049-1.392 7.225-1.392 7.225h-.132s-.398-4.176-1.193-7.225l-4.043-15.179c-.265-1.061-.796-1.459-1.923-1.459H68.057v-8.087c0-.994-.597-1.591-1.591-1.591-.398 0-.729.199-1.06.332l-8.219 3.315c-.796.332-1.061.928-1.061 2.055v3.977h-3.049c-1.061 0-1.525.53-1.525 1.591v3.248c0 1.061.464 1.59 1.525 1.59h3.049v18.295c0 9.081 6.364 10.539 10.87 10.539 4.375 0 7.888-1.59 7.888-3.91 0-1.326-.795-2.054-2.121-2.054h-1.127c-1.988 0-3.579-.862-3.579-4.242V25.473h10.29l8.933 26.448c.331 1.06.862 1.458 2.055 1.458h9.611c1.193 0 1.657-.398 1.988-1.458l10.142-30.027c.132-.464.265-.862.265-1.259 0-1.061-.531-1.591-1.591-1.591m22.46 28.574a5.81 5.81 0 0 1-5.799-5.799 5.81 5.81 0 0 1 5.799-5.799 5.81 5.81 0 0 1 5.799 5.799c0 3.198-2.601 5.799-5.799 5.799zm40.343-32.722l-7.462-5.911c-.207-.163-.241-.464-.078-.67l.703-.888c.52-.657.753-1.477.656-2.309a3.12 3.12 0 0 0-1.168-2.097L162.47.856c-.552-.437-1.242-.678-1.946-.678a3.12 3.12 0 0 0-2.46 1.189l-20.836 26.31a.47.47 0 0 1-.37.175.53.53 0 0 1-.183-.033c-1.816-.675-3.7-1.017-5.598-1.017-4.464 0-8.535 1.915-11.168 5.256-4.958 6.288-3.448 15.775 3.366 21.148 2.943 2.32 6.557 3.597 10.178 3.597 4.466 0 8.537-1.916 11.171-5.257 3.803-4.822 3.901-11.751.246-17.242-.12-.181-.116-.411.011-.571l7.298-9.216c.129-.163.305-.18.375-.18a.48.48 0 0 1 .295.103l7.463 5.91a3.15 3.15 0 0 0 1.945.678 3.12 3.12 0 0 0 2.46-1.189l3.475-4.389a1.15 1.15 0 0 1-.339-.186l-6.588-5.209-1.847 2.337a1.16 1.16 0 0 1-.914.441c-.253 0-.507-.082-.72-.251-.504-.398-.59-1.13-.191-1.634l1.847-2.336-1.684-1.332c-.504-.398-.59-1.13-.191-1.634s1.13-.59 1.635-.191l1.684 1.332 1.847-2.336c.398-.504 1.13-.59 1.635-.191a1.16 1.16 0 0 1 .19 1.634l-1.846 2.336 6.588 5.209a1.15 1.15 0 0 1 .257.292l3.508-4.43a3.14 3.14 0 0 0-.512-4.405z" mask="url(#B)" transform="matrix(4.6057 0 0 4.6057 -.16937 -.81862)"/><path d="M190.07 191.45c-16.849 0-30.495-13.648-30.495-30.495s13.646-30.495 30.495-30.495 30.492 13.646 30.492 30.495-13.643 30.495-30.492 30.495"/></g></g></svg>