<?xml version="1.0" encoding="UTF-8"?>
<svg width="339.24" height="450" version="1.1" xmlns="http://www.w3.org/2000/svg">
	<defs>
		<linearGradient id="linearGradient4701" x1="159.73" x2="227.09" y1="199.21" y2="40.512" gradientTransform="matrix(1.4847 0 0 1.4847 .43371 .00099999)" gradientUnits="userSpaceOnUse">
			<stop stop-color="#C09" offset=".1"/>
			<stop stop-color="#CF0090" offset=".1989"/>
			<stop stop-color="#D70078" offset=".3602"/>
			<stop stop-color="#E40050" offset=".5638"/>
			<stop stop-color="#F70019" offset=".7995"/>
			<stop stop-color="red" offset=".9"/>
		</linearGradient>
	</defs>
	<path d="m97.269 390.08 19.233 28.097-21.066 30.747h11.99l15.235-22.957 14.989 22.957h12.072l-20.816-30.664 19.4-28.18h-11.907l-13.57 20.719-13.655-20.719zm58.838 2.9842v13.426h-7.9069v8.039h7.9069v21.964c0 4.6198 1.1899 7.8955 3.4101 9.9952 2.2757 2.0997 5.4815 3.0988 9.9952 3.0988 1.8872 0 3.663-0.22179 5.328-0.66382v-7.9627c-0.66603 0.11058-1.3876 0.16449-2.1647 0.16449-2.6711 0-4.3384-0.50688-5.4484-1.5567-1.114-1.1089-1.6272-2.8539-1.6272-5.3956v-19.644h9.6574v-8.039h-9.6574v-13.426zm69.458 12.184c-7.2252 0-13.289 2.4066-17.726 7.2137l5.5042 6.3942c3.4388-3.5363 7.397-5.3046 11.89-5.3046 6.1012 0 9.1493 2.4929 9.1493 7.4428l-10.148 2.2381c-4.0501 0.82954-7.2948 1.8069-9.8983 3.0459-4.605 2.2146-7.9069 5.5572-7.9069 11.623 0 3.8866 1.4592 6.8842 4.212 9.0112 2.626 2.0291 6.4238 3.0899 10.847 3.0899 3.1061 0 5.8494-0.50575 8.0038-1.4715 2.2236-0.97246 3.9753-2.4601 5.1401-4.3941 0.16639 2.3207 0.36263 3.9036 0.58449 4.7876h8.741c-0.3328-2.0997-0.49931-5.4684-0.49931-10.11v-17.984c0-4.8307-1.4848-8.6563-4.3852-11.332-3.168-2.9197-7.8181-4.2501-13.508-4.2501zm-22.199 0.66086c-3.402 0.0537-6.3873 0.7932-8.8438 2.2558-2.2002 1.335-3.9315 3.0892-5.2194 5.5924v-7.2665h-9.0729v42.434h9.49v-18.481c0-5.0706 1.2437-8.9228 3.7596-11.484 2.3952-2.4828 6.1282-3.8094 10.885-3.9182zm31.017 22.047v4.4763c0 3.1495-0.99624 5.5802-2.993 7.293-1.9968 1.6576-4.688 2.4878-8.0713 2.4878-2.3295 0-4.1585-0.44355-5.4896-1.3276-1.3312-0.93932-1.9973-2.1802-1.9973-3.7273 0-1.7681 0.77618-3.1797 2.3292-4.2296 1.553-1.1051 4.1878-2.0972 7.9039-2.9813z" fill="#fff"/>
	<path d="m34.774 359.12h-12.042l-22.732-59.116h10.883l8.3716 22.409c3.2843 8.8229 6.5684 17.774 9.6594 26.597 3.1554-8.8875 6.3752-17.967 9.7239-26.918l8.2426-22.088h10.69zm40.506-71.737c0 3.7354-3.0266 6.8254-6.9547 6.8254s-6.9549-3.09-6.9549-6.8254c0-3.7355 3.0268-6.8254 6.9549-6.8254s6.9547 3.1546 6.9547 6.8254zm-12.043 71.737v-59.116h10.239v59.116zm69.291-39.797v39.797h-9.7238v-7.7919c-3.7351 5.988-11.076 9.2716-20.092 9.2716-11.913 0-20.929-5.3442-20.929-17.001 0-15.39 15.391-17.772 31.233-21.249l9.4663-2.0621v-0.25662c0-9.015-6.0534-12.494-14.361-12.494-9.08 0-15.584 4.2502-19.255 7.4707l-3.3486-8.6293c4.5078-3.6709 12.429-7.7273 23.119-7.7273 15.198-0.0645 23.891 8.05 23.891 20.672zm-9.9814 14.617v-5.4088l-8.6291 1.9315c-15.133 3.3482-21.831 5.6024-21.831 12.944 0 5.4733 4.5078 8.5002 12.107 8.5002 9.9814 0 18.353-5.1521 18.353-17.967zm78.435-4.4438c0 18.934-11.14 31.04-27.626 31.04-8.5658 0-15.52-3.2207-20.093-9.4022v25.372h-10.239v-76.502h9.8521v9.3377c4.5732-6.8899 11.85-10.754 20.994-10.754 16.163 0 27.111 12.107 27.111 30.91zm-10.368 0c0-13.394-7.4063-21.83-18.482-21.83-11.14 0-19.191 8.5002-19.191 22.024 0 13.201 7.7282 21.83 18.997 21.83 11.27 0 18.676-8.5647 18.676-22.024zm18.997 29.624v-76.245h10.24v76.308h-10.24zm69.355-39.797v39.797h-9.7238v-7.7919c-3.7355 5.988-11.076 9.2716-20.091 9.2716-11.914 0-20.929-5.3442-20.929-17.001 0-15.39 15.39-17.772 31.232-21.249l9.4666-2.0621v-0.25662c0-9.015-6.053-12.494-14.36-12.494-9.0801 0-15.649 4.2502-19.255 7.4707l-3.3491-8.6293c4.5085-3.6709 12.429-7.7273 23.119-7.7273 15.198-0.0645 23.892 8.05 23.892 20.672zm-9.9809 14.617v-5.4088l-8.629 1.9315c-15.135 3.3482-21.831 5.6024-21.831 12.944 0 5.4733 4.5085 8.5002 12.106 8.5002 9.9178 0 18.354-5.1521 18.354-17.967zm48.877 21.315c-5.474 14.103-12.365 19.641-24.922 22.668l-3.1551-8.2421c6.1176-2.0606 11.656-3.9936 15.649-9.8524l-23.054-59.824h10.882l7.9207 21.251c3.2844 8.8875 7.277 19.513 9.7238 26.468 2.7054-7.0836 6.504-17.517 9.8531-26.468l7.856-21.251h10.626z" fill="#caffff"/>
	<path d="m169.78 255.9c70.663 0 127.95-57.284 127.95-127.95 0-70.663-57.286-127.95-127.95-127.95-70.663 0-127.95 57.285-127.95 127.95 0 70.663 57.285 127.95 127.95 127.95z" fill="#fff"/>
	<path d="m169.78 9.9999e-4c-31.757 0-60.787 11.596-83.154 30.75l134.34 71.608v51.181l-134.5 71.464c22.39 19.239 51.487 30.894 83.322 30.894 70.663 0 127.95-57.283 127.95-127.95 0-70.663-57.286-127.95-127.95-127.95zm-114.42 70.706c-8.6356 17.228-13.526 36.66-13.526 57.243 0 20.584 4.8894 40.015 13.526 57.243l114.42-57.243z" fill="url(#linearGradient4701)"/>
</svg>
