<?xml version="1.0" encoding="UTF-8"?>
<svg width="800" height="192.99" version="1.1" xmlns="http://www.w3.org/2000/svg">
	<path d="m0 190.99h261.32v-188.99h-261.32z" fill="#fff"/>
	<path d="m0 0.0024928v65.358a78.611 78.611 0 0 0 127.44 61.37 80.026 80.026 0 0 0 25.731-36.41 133.93 133.93 0 0 1-38.212 8.8131c3.0235-12.866 5.5966-33.387 6.4329-39.433 20.65-3.9241 43.487-16.082 49.855-43.358a459.57 459.57 0 0 0 58.154-8.6202 122.22 122.22 0 0 1 11.193 49.662 125.95 125.95 0 0 1-240.59 53.972v81.634h800v-192.99zm782.5 175.43h-494.75v-157.86h494.75z" fill="#d3193e"/>
	<path d="m347.38 51.981h45.03c29.72 0 40.141 21.936 40.141 44.387 0 27.34-14.474 44.644-45.545 44.644h-39.627zm27.468 66.26h10.743c17.111 0 19.299-13.831 19.299-22.194a19.685 19.685 0 0 0-21.614-21.228h-8.4271zm145.45-55.258a42.136 42.136 0 0 0-14.282-9.6494 50.498 50.498 0 0 0-36.925 0 42.136 42.136 0 0 0-14.282 9.6494 43.165 43.165 0 0 0-9.1348 14.731 52.493 52.493 0 0 0-3.2165 18.784 52.557 52.557 0 0 0 3.2165 18.784 43.101 43.101 0 0 0 9.1348 14.731 42.072 42.072 0 0 0 14.282 9.6494 50.627 50.627 0 0 0 36.925 0 42.072 42.072 0 0 0 14.282-9.6494 43.165 43.165 0 0 0 9.1348-14.731 52.493 52.493 0 0 0 3.2164-18.784 52.493 52.493 0 0 0-3.2164-18.784 43.165 43.165 0 0 0-9.1348-14.731m-16.854 45.738a21.165 21.165 0 0 1-4.4387 7.3979 14.345 14.345 0 0 1-5.7253 3.7311 17.883 17.883 0 0 1-5.7254 1.0293 18.076 18.076 0 0 1-5.7253-1.0293 14.539 14.539 0 0 1-5.7896-3.7311 21.486 21.486 0 0 1-4.4387-7.3979 34.738 34.738 0 0 1-1.9942-12.222 34.738 34.738 0 0 1 1.8013-12.222 21.614 21.614 0 0 1 4.6318-7.3979 14.603 14.603 0 0 1 5.7253-3.7311 18.013 18.013 0 0 1 5.7254-1.0293 17.819 17.819 0 0 1 5.7253 1.0293 14.474 14.474 0 0 1 5.7254 3.7311 21.293 21.293 0 0 1 4.4387 7.3979 34.867 34.867 0 0 1 1.8012 12.222 34.867 34.867 0 0 1-1.8012 12.222m191.38-56.738v55.516a19.813 19.813 0 0 1-1.4153 6.4329 11.515 11.515 0 0 1-3.8598 4.889 12.416 12.416 0 0 1-7.4622 1.9299 13.252 13.252 0 0 1-7.7196-1.9299 11.193 11.193 0 0 1-3.9884-4.889 19.62 19.62 0 0 1-1.4153-6.4329v-55.516h-27.984v54.615a35.124 35.124 0 0 0 10.036 27.533 45.03 45.03 0 0 0 30.942 9.0061 44.581 44.581 0 0 0 30.556-8.9418 35.253 35.253 0 0 0 9.971-27.533v-54.68zm-63.172 0h-33.838l-24.381 30.685h-0.25733v-30.685h-27.468v89.031h27.468v-26.311l7.5908-8.3628 21.936 34.673h34.159l-37.504-54.229z" fill="#d3193e"/>
</svg>
