<?xml version="1.0" encoding="UTF-8"?>
<svg width="800" height="320" version="1.1" xmlns="http://www.w3.org/2000/svg">
	<path d="m34.414 98.272c-21.278 0-34.414-15.104-34.414-34.138s13.136-34.134 34.414-34.134 34.416 15.1 34.416 34.136c-2e-3 19.032-13.14 34.136-34.416 34.136zm143.9-50.466c-12.916 0-23.524 2.334-28.762 7.112-3.556 3.24-5.194 7.576-5.194 13.91v129.07c0 21.458-3.448 33.088-11.03 41.244-6.668 7.164-17.146 11.046-28.672 11.046-11.252 0-21.228-3.75-27.168-10.028-6.202-6.556-9.102-15.648-9.102-29.09v-84.062c0-3.674-1.376-5.312-5.44-5.312h-57.138c-4.022 0-5.35 1.58-5.35 5.334v75.99c0 30.336 7.822 47.658 21.476 61.312 17.742 17.744 48.066 25.666 76.882 25.666 28.776 0 58.778-10.2 76.51-26.584 17.402 15.868 49.024 26.57 83.92 26.57 46.112 0 80.008-19.064 99.792-51.482 8.786 13.608 15.274 23.724 21.508 32.942 9.184 13.568 17.542 18.554 36.242 18.554 17.714 0 28.348-4.252 37.928-18.908 25.126-38.42 46.54-83.854 61.974-125.66 1.932-5.232 3.308-9.044 3.308-11.436 0-2.448-1.592-4.372-5.396-5.576-3.684-1.168-13.594-4.208-18.562-5.72-8.256-2.514-11.256-3.256-13.042-3.256-3.34 0-5.158 1.87-6.32 5.728-11.578 38.518-29.186 81.802-44.9 108.69-5.148-9.82-14.664-26.9-23.494-42.304-13.654-23.832-27.142-47.876-33.916-58.928-6.844-11.168-11.428-14.144-20.434-14.144-18.568 0-46.072 16.664-46.072 32.2 0 5.272 1.466 9.226 6.936 18.564 6.222 10.624 9.348 19.242 9.348 29.842 0 26.414-19.728 50.34-57.828 50.34-18.082 0-32.042-5.132-41.134-14.466-8.676-8.906-12.9-20.882-12.9-40.886v-33.558c6.354 2.718 14.158 4.1 23.56 4.1h30.166c4.068 0 5.49-1.636 5.49-5.312v-32.31c0-3.676-1.422-5.314-5.49-5.314h-53.724v-52.858c0-6.334-1.65-10.668-5.204-13.91-5.24-4.776-16.038-7.11-28.768-7.11m578.97 76.856c-29.032 0-43.022 4.5-43.022 17.176v52.21h-76.704c-3.232 0-4.716-2.288-2.688-5.48 31.074-48.972 65.848-103.61 100.89-157.05 5.91-9.006 8.304-15.298 8.304-18.57 0-5.782-3.53-8.914-9.482-9.934-8.6-1.474-21.63-3.018-34.896-3.018-13.368 0-26.584 0.884-36.15 2.638-9.46 1.744-14.812 6.996-19.292 14.94-27.088 48.07-64.186 116.45-87.334 160.79-3.984 7.63-5.656 13.92-5.656 20.222 0 6.5 2.254 13.56 4.814 21.442l6.572 19.034c3.926 9.48 10.438 13.156 23.398 13.156h128.24v51.958c0 10.882 10.292 15.82 42.918 15.82 28.85 0 42.808-4.828 42.808-15.884v-161.93c0-13.026-13.084-17.524-42.718-17.524z" fill="#10eb82"/>
</svg>
