<?xml version="1.0" encoding="UTF-8"?>
<svg width="800" height="288.26" xmlns="http://www.w3.org/2000/svg">
  <path d="M800 84.253c0 46.533-37.72 84.253-84.253 84.253s-84.253-37.72-84.253-84.253S669.214 0 715.747 0 800 37.72 800 84.253z" fill="#da272e"/>
  <path d="M664.28 57.461V74.03h14.806v37.015h18.331V74.03h14.806v-7.755l17.979 44.77h15.864l21.856-53.937h-20.094l-9.518 26.44-9.518-26.44H664.28z" fill="#fff"/>
  <path d="M530.9 4.917c-15.388-.621-31.182 3.122-45.408 11.678-5.837 3.184-10.61 8.224-15.651 13 9.02 14.856 14.058 32.102 14.854 49.347-3.184-43.509-41.651-76.14-85.955-72.956-41.121 3.184-72.957 37.672-73.753 78.794 0 23.877-18.837 42.711-42.714 42.711s-42.714-18.834-42.714-42.71c0-44.306-36.079-79.59-80.383-79.59-44.305 0-79.59 36.078-79.59 80.382 0 44.305 36.079 79.59 80.383 79.59 22.02 0 42.715-9.018 58.368-25.467-8.224-14.06-13-30.244-14.857-46.693 5.837 43.51 45.102 74.55 89.407 68.977 36.081-5.04 64.733-33.693 69.774-69.774-.796 17.244-6.633 32.898-14.857 47.49 14.857 15.652 36.079 24.67 58.364 24.67 23.877 0 42.714 18.837 42.714 42.714s-19.633 43.51-43.51 43.51-42.711-18.837-42.711-42.714h-36.876c0 44.305 35.282 80.387 79.587 80.387 44.305 0 80.387-35.285 80.387-79.59 0-23.877-10.613-46.694-28.653-62.347 2.388-1.591 5.042-3.977 6.634-6.63-9.02-14.857-14.061-32.101-14.857-50.141.796 17.244 8.225 34.487 19.633 47.486 29.448 32.897 79.59 36.082 112.49 6.633 17.244-14.857 26.264-36.08 27.06-59.16l-37.142.265c0 23.877-18.837 42.711-42.714 42.711-5.04 0-10.613-.794-15.654-2.386l82.773-82.773c-14.26-23.214-38.778-36.377-64.425-37.413zM239.56 84.78c0-15.653 8.226-29.448 21.226-36.876-3.98-11.408-10.612-22.023-18.04-32.104-6.633 3.98-13.002 9.02-18.043 14.061 9.816 16.183 14.857 36.083 14.857 54.92zM79.59 5.19v.019c.266-.003.53-.019.796-.019zm0 .019C35.652 5.63 0 40.742 0 84.78v80.383h36.876V84.78c0-23.877 18.837-42.714 42.714-42.714zm242.75 10.59c-8.224 9.817-14.061 20.432-18.836 32.105 13 7.428 21.226 22.02 21.226 36.876 0-18.836 5.838-38.736 15.654-54.92-5.04-5.836-11.411-10.611-18.043-14.06zm82.776 25.737c23.877 0 42.711 18.837 43.507 42.714.796 23.346-19.63 43.242-43.507 43.242-20.428 0-38.468-14.856-41.917-35.284 0-.796 0-2.387-.796-3.183v-3.979c0-23.877 18.837-42.714 42.714-43.51zm-245.14.53c21.224 0 40.326 16.45 42.714 37.674v4.775c0 23.877-19.633 42.976-42.714 42.976-23.877 0-42.711-18.834-42.711-42.71 0-23.878 18.834-42.715 42.711-42.715zm367.44.266c5.04 0 9.02.795 14.061 2.386l-54.12 54.123c-1.857-4.244-2.655-9.285-2.655-14.06v-5.573c2.388-21.224 21.225-36.876 42.714-36.876z" fill="#afa6a6"/>
</svg>
