<?xml version="1.0" encoding="UTF-8" standalone="no"?>
<!-- Created with Inkscape (http://www.inkscape.org/) -->

<svg
   xmlns:dc="http://purl.org/dc/elements/1.1/"
   xmlns:cc="http://creativecommons.org/ns#"
   xmlns:rdf="http://www.w3.org/1999/02/22-rdf-syntax-ns#"
   xmlns:svg="http://www.w3.org/2000/svg"
   xmlns="http://www.w3.org/2000/svg"
   xmlns:sodipodi="http://sodipodi.sourceforge.net/DTD/sodipodi-0.dtd"
   xmlns:inkscape="http://www.inkscape.org/namespaces/inkscape"
   width="912.80811"
   height="100"
   id="svg2"
   version="1.1"
   inkscape:version="0.91pre2 r13516"
   sodipodi:docname="kabel eins classics hd.svg">
  <defs
     id="defs4">
    <inkscape:perspective
       sodipodi:type="inkscape:persp3d"
       inkscape:vp_x="0 : 0.5 : 1"
       inkscape:vp_y="0 : 1000 : 0"
       inkscape:vp_z="1 : 0.5 : 1"
       inkscape:persp3d-origin="0.5 : 0.33333333 : 1"
       id="perspective2924" />
    <inkscape:perspective
       id="perspective2942"
       inkscape:persp3d-origin="372.04724 : 350.78739 : 1"
       inkscape:vp_z="744.09448 : 526.18109 : 1"
       inkscape:vp_y="0 : 1000 : 0"
       inkscape:vp_x="0 : 526.18109 : 1"
       sodipodi:type="inkscape:persp3d" />
  </defs>
  <sodipodi:namedview
     id="base"
     pagecolor="#ffffff"
     bordercolor="#666666"
     borderopacity="1.0"
     inkscape:pageopacity="0.0"
     inkscape:pageshadow="2"
     inkscape:zoom="0.7"
     inkscape:cx="241.66782"
     inkscape:cy="248.71464"
     inkscape:document-units="px"
     inkscape:current-layer="layer1"
     showgrid="false"
     inkscape:window-width="1920"
     inkscape:window-height="1017"
     inkscape:window-x="-8"
     inkscape:window-y="-8"
     inkscape:window-maximized="1"
     fit-margin-top="0"
     fit-margin-left="0"
     fit-margin-right="0"
     fit-margin-bottom="0" />
  <metadata
     id="metadata7">
    <rdf:RDF>
      <cc:Work
         rdf:about="">
        <dc:format>image/svg+xml</dc:format>
        <dc:type
           rdf:resource="http://purl.org/dc/dcmitype/StillImage" />
        <dc:title />
      </cc:Work>
    </rdf:RDF>
  </metadata>
  <g
     inkscape:label="Ebene 1"
     inkscape:groupmode="layer"
     id="layer1"
     transform="translate(0,-952.36218)">
    <path
       inkscape:connector-curvature="0"
       d="m 148.71099,958.37756 c 0,-3.32429 -2.69109,-6.01538 -6.01538,-6.01538 l -136.68023,0 C 2.69109,952.36218 0,955.05327 0,958.37756 l 0,87.13254 c 0,3.3017 2.69109,5.9927 6.01538,5.9927 l 136.68023,0 c 3.32429,0 6.01538,-2.691 6.01538,-5.9927 l 0,-87.13254"
       style="fill:#f25323;fill-opacity:1;fill-rule:nonzero;stroke:none"
       id="path4427" />
    <path
       inkscape:connector-curvature="0"
       d="m 0.11307,1007.7896 c 4.50023,12.2569 13.18408,21.8453 24.60425,29.3985 9.52058,5.4726 20.08141,9.4527 31.86341,9.4075 39.66531,-0.2045 64.83492,-29.1271 64.65401,-64.5862 -0.0362,-9.00045 -2.66848,-17.54862 -6.06061,-25.30529 -6.76165,2.26142 -20.91814,5.17865 -28.1773,6.03799 -1.4256,11.05834 -11.3071,18.83763 -24.92085,21.84532 0,1.9222 -0.4758,14.20172 -0.65671,16.21438 5.60832,-0.85934 12.41519,-2.10312 18.13659,-3.79919 -6.55812,25.16959 -32.08956,36.18269 -54.6133,27.40839 -14.92537,-5.8344 -24.71732,-18.2044 -24.83039,-41.99455 l 0,25.37315"
       style="fill:#ffffff;fill-opacity:1;fill-rule:nonzero;stroke:none"
       id="path4431" />
    <path
       inkscape:connector-curvature="0"
       d="m 732.88105,1052.3622 c -14.88015,0 -26.16463,-3.166 -35.79828,-12.9353 l 12.39258,-12.3926 c 6.19629,6.1963 14.58616,8.2542 23.67707,8.2542 11.28449,0 17.34509,-4.2741 17.34509,-12.1213 0,-3.4373 -0.94979,-6.3319 -3.03012,-8.2541 -1.92239,-1.7857 -4.11597,-2.759 -8.66142,-3.4374 l -11.84984,-1.6517 c -8.38987,-1.2447 -14.58616,-3.8671 -18.99593,-8.1411 -4.68114,-4.68119 -7.03302,-11.01317 -7.03302,-19.26735 0,-17.48078 12.95794,-29.73768 34.14745,-29.73768 13.50068,0 23.29262,3.30168 31.68249,11.42018 l -12.12121,11.98552 c -6.19629,-5.92492 -13.63636,-6.76164 -20.10402,-6.76164 -10.17639,0 -15.15152,5.65355 -15.15152,12.39258 0,2.48756 0.83763,5.11081 2.89462,7.03302 1.92221,1.78742 5.11081,3.30167 9.09091,3.84441 l 11.57847,1.67345 c 8.93261,1.22117 14.58616,3.70873 18.72456,7.55311 5.22388,4.9752 7.55314,12.1212 7.55314,20.8051 0,18.9959 -15.82994,29.7377 -36.34102,29.7377 z m -79.01402,0 c -10.44776,0 -19.2673,-3.5731 -26.436,-10.7418 -4.25147,-4.274 -6.87472,-9.2266 -7.98282,-14.7218 -1.08548,-5.5179 -1.64993,-13.6364 -1.64993,-24.3781 0,-10.74177 0.56445,-18.86026 1.64993,-24.37813 1.109,-5.65355 3.73135,-10.47038 7.98282,-14.72185 7.1687,-7.1687 15.98824,-10.74174 26.436,-10.74174 18.88286,0 32.79059,11.01312 36.09226,30.98146 l -19.42559,0 c -2.0579,-8.41249 -7.28178,-13.90774 -16.50837,-13.90774 -5.2465,0 -9.3849,1.65174 -12.2569,5.0882 -4.00271,4.27408 -4.81682,8.68385 -4.81682,27.6798 0,18.9959 0.81411,23.4057 4.81682,27.6798 2.872,3.4373 7.0104,5.0882 12.2569,5.0882 9.22659,0 14.45047,-5.5179 16.50837,-13.9078 l 19.42559,0 c -3.30167,19.9684 -17.34509,30.9815 -36.09226,30.9815 z m -52.28404,-0.8358 -19.14029,0 0,-98.03948 19.14029,0 0,98.03948 z m -19.13161,0 z m -50.1583,0.8358 c -14.88014,0 -26.16463,-3.166 -35.79828,-12.9353 l 12.39258,-12.3926 c 6.19629,6.1963 14.58616,8.2542 23.67707,8.2542 11.28449,0 17.34509,-4.2741 17.34509,-12.1213 0,-3.4373 -0.94979,-6.3319 -3.0303,-8.2541 -1.92221,-1.7857 -4.11578,-2.759 -8.66124,-3.4374 l -11.84984,-1.6517 c -8.38987,-1.2447 -14.58616,-3.8671 -18.99593,-8.1411 -4.68114,-4.68119 -7.03302,-11.01317 -7.03302,-19.26735 0,-17.48078 12.95794,-29.73768 34.14745,-29.73768 13.50068,0 23.27001,3.30168 31.68249,11.42018 l -12.12121,11.98552 c -6.19629,-5.92492 -13.63636,-6.76164 -20.10402,-6.76164 -10.19901,0 -15.15152,5.65355 -15.15152,12.39258 0,2.48756 0.83763,5.11081 2.89462,7.03302 1.92221,1.78742 5.08819,3.30167 9.09091,3.84441 l 11.55586,1.67345 c 8.95522,1.22117 14.60877,3.70873 18.72455,7.55311 5.2465,4.9752 7.57576,12.1212 7.57576,20.8051 0,18.9959 -15.82994,29.7377 -36.34102,29.7377 z m -80.03166,0 c -14.88014,0 -26.16463,-3.166 -35.8209,-12.9353 l 12.4152,-12.3926 c 6.19629,6.1963 14.58616,8.2542 23.67707,8.2542 11.28449,0 17.34509,-4.2741 17.34509,-12.1213 0,-3.4373 -0.97331,-6.3319 -3.0303,-8.2541 -1.92221,-1.7857 -4.1384,-2.759 -8.68385,-3.4374 l -11.82723,-1.6517 c -8.41248,-1.2447 -14.60877,-3.8671 -19.01854,-8.1411 -4.68114,-4.68119 -7.01041,-11.01317 -7.01041,-19.26735 0,-17.48078 12.93533,-29.73768 34.14745,-29.73768 13.50068,0 23.27001,3.30168 31.65988,11.42018 l -12.0986,11.98552 c -6.19629,-5.92492 -13.63636,-6.76164 -20.10402,-6.76164 -10.19901,0 -15.15152,5.65355 -15.15152,12.39258 0,2.48756 0.81411,5.11081 2.89462,7.03302 1.92221,1.78742 5.08819,3.30167 9.09091,3.84441 l 11.55586,1.67345 c 8.95522,1.22117 14.60877,3.70873 18.72455,7.55311 5.2465,4.9752 7.57576,12.1212 7.57576,20.8051 0,18.9959 -15.82994,29.7377 -36.34102,29.7377 z m -83.9213,-69.94575 -12.39258,35.66265 24.35549,0 -11.96291,-35.66265 z m 22.86296,69.10905 -5.78924,-17.3451 -34.84848,0 -5.92493,17.3451 -19.94572,0 35.66259,-98.03261 14.99322,0 35.79828,98.03261 -19.94572,0 z m -138.01448,0 0,-98.03261 19.15423,0 0,80.95881 44.48214,0 0,17.0738 -63.63637,0 z m -49.27634,0.8358 c -10.47038,0 -19.28992,-3.5731 -26.43601,-10.7418 -4.27408,-4.274 -6.89733,-9.2266 -7.98281,-14.7218 -1.109,-5.5179 -1.65174,-13.6364 -1.65174,-24.3781 0,-10.74177 0.54274,-18.86027 1.65174,-24.37813 1.08548,-5.65356 3.70873,-10.47038 7.98281,-14.72185 7.14609,-7.1687 15.96563,-10.74175 26.43601,-10.74175 18.86024,0 32.76798,11.01312 36.06965,30.98146 l -19.40299,0 c -2.0805,-8.41248 -7.30438,-13.90773 -16.53098,-13.90773 -5.22388,0 -9.36228,1.65174 -12.2569,5.08819 -4.00271,4.27409 -4.81682,8.68386 -4.81682,27.67981 0,18.9959 0.81411,23.4057 4.81682,27.6798 2.89462,3.4373 7.03302,5.0882 12.2569,5.0882 9.2266,0 14.45048,-5.5179 16.53098,-13.9078 l 19.40299,0 c -3.30167,19.9684 -17.34509,30.9815 -36.06965,30.9815"
       style="fill:#e4e4e4;fill-opacity:1;fill-rule:nonzero;stroke:none"
       id="path4435" />
    <path
       style="fill:#b2b2b2;fill-opacity:1"
       d="m 794.25994,977.14267 0,-24.45163 13.28594,0.0568 0,9.0715 0,9.31592 13.93337,0 13.93335,0 0,-9.2349 0,-9.15252 c 4.23523,0.0824 8.55479,0 12.77274,0 0.46463,0 0.51256,1.83078 0.51256,24.18532 l 0,24.66114 -6.64265,0 -6.64265,0 0,-10.6931 0,-10.69307 -13.93335,0 -13.93337,0 0,10.69307 0,10.6931 -6.64264,0 -6.64265,0 0,-24.4517 0,0 -3.3e-4,0 -3.2e-4,0 z m 64.15825,8.92042 0,-15.57583 6.48063,0 6.48063,0 0,11.01708 0,11.01709 9.80195,-0.006 c 17.69992,-0.0101 18.19125,-0.42105 18.20428,-15.22387 0.01,-11.41083 -1.08908,-13.84523 -6.80541,-15.07347 -1.81817,-0.39066 -5.27864,-0.48137 -18.20352,-0.47715 l -15.95856,0.005 0,-4.55696 0,-4.55697 19.36087,0.1244 c 21.40687,0.13752 21.49113,-0.292 26.10368,1.84573 4.31372,1.99924 6.96162,6.08001 8.16437,11.67213 0.73439,3.41456 1.01591,13.94977 0.49112,18.37819 -1.17822,9.94161 -4.0552,14.36201 -12.14521,16.51874 -2.27443,0.6063 -3.86718,0.4813 -22.28991,0.6012 l -19.68492,-0.134 0,-15.57589 0,10e-6 0,-1.4e-4 z"
       id="path2885"
       sodipodi:nodetypes="cccccccccccccccccccccccccccccccsscccccssssccccccc"
       inkscape:connector-curvature="0" />
  </g>
</svg>
