<svg xmlns="http://www.w3.org/2000/svg" width="554.412" height="450" fill="#1d9ad3"><path d="M537.601 0h-.338H17.148h-.338C7.518 0 0 7.518 0 16.811v.084h0v416.294l.084.084C.169 442.482 7.603 450 16.895 450h0 520.79 0c9.208-.084 16.557-7.518 16.642-16.726h0l.084-416.463c0-9.293-7.518-16.811-16.81-16.811zm-49.165 69.354v21.372h-46.715v20.19h53.05v23.822h-80.758V28.637h80.927V50.77h-53.304v18.585zM374.563 111v23.822h-77.126V28.637h27.623V111zM246.499 69.354v21.372h-46.715v20.19h53.05v23.822h-80.758V28.637h80.589V50.77H199.7v18.585zM45.617 52.459V28.637h90.98v23.822h-31.678v82.363H77.295V52.459zm481.932 374.732H26.61v-264.07h500.939v264.07zm-287.301-28.552h10.222l52.628-118.519v118.519h62.174v-207.64H281.81l-41.477 94.612-26.018-94.697-32.016.084h-33.706l-92.247 207.64h68.341l54.656-119.955 32.523 119.955 28.468.253zm166.501-207.725l-21.626 47.475h46.461l.084 160.25h62.934v-207.64z"/></svg>