<svg xmlns="http://www.w3.org/2000/svg" width="800" height="224.86" ><path d="M616.22 47.027v66.486h-58.919V47.027h-46.486v78.378c-11.892 28.108-34.054 49.189-66.486 49.189-24.865 0-45.946-17.838-45.946-40s17.838-40 40-40c10.27 0 20 3.784 27.027 10.27l33.514-36.757c-16.216-14.595-37.297-23.784-61.081-23.784-29.73 0-55.676 14.054-71.892 36.216-16.216-21.622-42.703-36.216-71.892-36.216-49.73 0-90.27 40.541-90.27 90.27s42.703 90.27 85.405 90.27c17.838 0 35.135-5.946 45.405-14.054v11.351h45.946v-18.378c15.676 12.973 36.216 21.081 58.378 21.081 28.108 0 54.054-11.892 71.892-30.811v28.108h46.486v-66.486h58.919v65.946h45.946V88.11h45.946v134.05h45.946V88.11h45.946V47.569h-183.78zM294.6 175.137c-22.162 0-40-17.838-40-40s17.838-40 40-40 40 17.838 40 40c.541 21.622-17.838 40-40 40z" fill="#f0001e"/><path d="M90.27 44.324C40.54 44.324 0 84.865 0 134.594s40.541 90.27 90.27 90.27 90.27-40.541 90.27-90.27-40.541-90.27-90.27-90.27z" fill="#dadada"/><path d="M624.86 22.703v8.108h-8.649V.541h15.135c8.108 0 12.432 5.405 12.432 11.351 0 6.487-4.324 11.351-12.432 11.351h-6.486zm0-7.027h6.486a3.69 3.69 0 0 0 3.784-3.784c0-2.162-1.081-3.784-3.784-3.784h-6.486zM695.671.541v17.297c0 9.189-5.405 14.054-14.595 14.054s-14.595-4.865-14.595-14.054V.541h8.649v17.297c0 4.865 2.162 7.027 5.946 7.027 3.243 0 5.946-2.162 5.946-6.486V.541zm37.838 0v23.243h14.595v7.568h-23.243V.541zm60 8.649c-2.162-1.622-4.324-2.162-7.027-2.162-2.162 0-4.324.541-4.324 2.162 0 2.162 2.162 2.162 4.865 2.703 5.946.541 12.432 3.243 12.432 10.27s-6.486 9.73-13.514 9.73c-5.405 0-9.189-1.081-13.514-5.405l4.865-5.405c3.243 2.703 6.486 3.243 9.189 3.243s4.865-1.081 4.865-2.703-1.622-2.703-4.865-2.703c-6.486-.541-12.432-2.162-12.432-9.73 0-6.486 6.486-9.189 12.973-9.189 4.865 0 8.108 1.081 11.351 3.784zM130.27 134.594a40 40 0 1 1-80 0 40 40 0 1 1 80 0z" fill="#f0001e"/></svg>