<svg xmlns="http://www.w3.org/2000/svg" width="800" height="111.738" viewBox="0 0 600 83.804"><path d="M0 0v83.804h316.085L277.024 0zm363.677 51.928c0 6.899-5.585 12.819-15.758 12.819-9.194 0-15.423-4.605-17.726-10.19l5.911-2.302c1.641 3.29 5.577 6.246 11.815 6.246 5.25 0 9.52-2.302 9.52-6.573 0-4.278-3.944-5.593-11.488-7.561-8.867-2.629-14.77-5.258-14.444-12.819.327-7.234 6.238-12.157 15.097-12.157 8.206 0 13.456 4.27 15.758 9.855l-5.911 1.976c-1.315-2.964-3.609-5.919-9.847-5.919-6.565 0-9.185 3.29-9.185 6.246 0 3.29 3.282 4.932 10.173 6.899 9.185 2.629 16.085 5.258 16.085 13.48zm45.291-18.077c0 7.887-5.577 14.133-14.444 14.133h-10.5v15.774h-6.238v-44.04h16.411c9.194 0 14.77 6.573 14.77 14.133zm-6.238 0c0-4.278-2.621-8.222-8.206-8.222h-10.5v16.436h10.5c5.258 0 8.206-3.617 8.206-8.214zm62.036 7.888c0 12.492-9.185 22.674-21.335 22.674-12.468 0-21.335-10.182-21.335-22.674s9.194-22.347 21.335-22.347c12.149 0 21.335 9.855 21.335 22.347zm-6.238 0c0-9.202-6.23-16.436-15.423-16.436s-15.097 7.234-15.097 16.436 6.238 16.436 15.097 16.436c9.194.327 15.423-7.234 15.423-16.436zm36.766 6.572h-10.508v15.774h-6.23V19.718h16.411c9.185 0 14.444 6.573 14.444 14.133 0 5.911-2.956 10.843-8.206 13.145l9.512 16.762h-6.891zm-10.508-6.246h10.508c5.25 0 8.206-3.944 8.206-8.214 0-4.278-2.956-8.222-8.206-8.222h-10.508zm69.916-16.436h-13.129v38.456h-5.903V25.629h-13.13v-5.911h32.161zM600 51.928c0 6.899-5.585 12.819-15.758 12.819-9.185 0-15.423-4.605-17.726-10.19l5.911-2.302c1.641 3.29 5.577 6.246 11.815 6.246 5.25 0 9.52-2.302 9.52-6.573 0-4.278-3.935-5.593-11.488-7.561-8.859-2.629-14.77-5.258-14.444-12.819.327-7.234 6.238-12.157 15.097-12.157 8.206 0 13.464 4.27 15.758 9.855l-5.911 1.976c-1.306-2.964-3.609-5.919-9.847-5.919-6.565 0-9.185 3.29-9.185 6.246 0 3.29 3.282 4.932 10.173 6.899C593.109 41.077 600 43.706 600 51.928zm0 0" fill="#ffff54"/><path d="M45.952 25.629v13.154h18.706v5.911H45.952v19.065h-6.238V19.718h29.214v5.911zm70.895 22.682h-10.5v15.774h-6.238V19.718h16.411c9.194 0 14.444 6.573 14.444 14.133 0 5.911-2.956 10.843-8.206 13.145l9.52 16.762h-6.899zm-10.5-6.246h10.5c5.25 0 8.206-3.944 8.206-8.214 0-4.278-2.956-8.222-8.206-8.222h-10.5zM193 57.84v6.246h-29.214V19.718H193v5.911h-22.976v13.154h21v5.911h-21V57.84zm61.702 0v6.246h-29.214V19.718h29.214v5.911H231.4v13.154h21.008v5.911H231.4V57.84zm0 0" fill="#262626"/></svg>