<svg xmlns="http://www.w3.org/2000/svg" width="500.58" height="450" ><g transform="scale(.97764)"><g transform="scale(2.0497)"><linearGradient id="A" x1="164.28" x2="164.28" y1="0" y2="460.3" gradientUnits="userSpaceOnUse"><stop stop-color="#ffe400" offset="0"/><stop stop-color="#ffe100" offset=".461"/><stop stop-color="#ffd900" offset=".738"/><stop stop-color="#ffcb00" offset=".966"/><stop stop-color="#ffc800" offset="1"/></linearGradient><path d="M100.5 0C92 0 84.3 1.1 78.8 3.1L92 112.3 78.8 221.4c8.9 3.2 23.1 4.1 37.7 2.1 34.4-4.6 68.4-10.2 102.4-15.8 23.4-3.9 30.9-27.9 30.9-41V57.9c0-13.1-7.4-37.2-30.9-41L116.5 1.1C111 .3 105.6 0 100.5 0z" fill="url(#A)"/><linearGradient id="B" x1="65.387" x2="65.387" y1=".48" y2="458.7" gradientUnits="userSpaceOnUse"><stop stop-color="#fbc300" offset="0"/><stop stop-color="#fbc000" offset=".491"/><stop stop-color="#fcb800" offset=".786"/><stop stop-color="#feac00" offset="1"/></linearGradient><path d="M94.2.5c-4.3 0-8 .6-11.7 1.4-18.7 3.9-38 8.7-57.1 13.4C2.8 20.9 0 59.4 0 65.2v94.1c0 5.8 2.8 44.4 25.4 49.9l57.1 13.4c3.7.8 7.3 1.4 11.7 1.4 11.1-.1 17.7-2.8 24.9-10.1 8.6-8.7 11.7-23.6 11.7-37.1v-129c0-13.5-3.1-28.4-11.7-37.1C111.9 3.3 105.3.6 94.2.5z" fill="url(#B)"/></g><path d="m374.7 136.2v66.4l-62.1-1.1v59.2l62.1-1.1v66.8l49.6-3.3v-64.5l53.8-1v-53l-53.8-1v-64.3z" fill="#fff"/></g><path d="M209.8 59.734L47.22 88.574l-.098 112.23s-.391 19.357 13.1 35.097c12.025 14.078 34.022 14.567 34.022 14.567h35.782s37.248-.782 32.458 43.994c-4.497 41.843-29.525 37.737-29.525 37.737l-85.739-9.385v53.673l88.77 13.589s64.133 5.768 76.256-75.767c17.793-120.64-60.321-121.33-60.321-121.33l-21.117-.098s-23.561 1.075-29.134-2.444c-6.648-4.204-5.768-20.726-5.768-20.726v-29.818l113.6-14.274z" fill="#fff"/></svg>