<svg xmlns="http://www.w3.org/2000/svg" width="800" height="372.978"><g transform="matrix(.498567 0 0 .498567 -14.807429 -16.402839)"><radialGradient id="A" cx="-407.361" cy="1131.823" r="3943.656" gradientUnits="userSpaceOnUse"><stop offset=".18" stop-color="#1d8ef9"/><stop offset=".246" stop-color="#1a8bf5"/><stop offset=".317" stop-color="#1082e7"/><stop offset=".392" stop-color="#0173d2"/><stop offset=".394" stop-color="#0072d1"/><stop offset=".533" stop-color="#0045e5"/><stop offset=".623" stop-color="#0b70ed"/><stop offset=".778" stop-color="#1db6f9"/><stop offset=".894" stop-color="#1dbbf9"/></radialGradient><path d="M212.9 705.5c-15 0-27.7-4.5-33.7-12.7-6-7.5-7.5-15.7-7.5-43.4V464.7h68.8v-57.6h-68.8V285.9H80.5v121.2H29.7v57.6h50.9v184.8c0 32.9.7 47.9 3.7 62.1 5.2 26.9 18.7 44.1 43.4 53.9 12.7 5.2 19.4 6 53.1 6h65.1V704l-7.5.7z" fill="url(#A)"/><path d="M436.6 397.3c-105.5 0-177.3 77.8-177.3 192.2 0 112.2 76.3 191.5 184.8 191.5 83 0 149.6-45.6 171.3-118.9h-94.2c-16.5 30.7-42.6 46.4-78.5 46.4-51.6 0-83-34.4-89.8-98h266.3c-2.3-133.1-71.1-213.2-182.6-213.2zm-81.5 153.4c7.5-53.1 38.1-83 84.5-83 48.6 0 78.5 29.9 85.3 83z" fill="url(#A)"/><path d="M672.2 272.4h91.3v498.9h-91.3z" fill="url(#A)"/><path d="M999.8 708.5c-51.6 0-83-34.4-89.8-98h266.3c-2.2-133.1-71.1-213.2-182.5-213.2-105.5 0-177.3 77.8-177.3 192.2 0 112.2 76.3 191.5 184.8 191.5 83 0 149.6-45.6 171.3-118.9h-94.2c-16.5 30.7-42.7 46.4-78.6 46.4zm-3-240.8c48.6 0 78.5 29.9 85.3 83H912.3c7.5-53.1 38.2-83 84.5-83z" fill="url(#A)"/></g><radialGradient id="B" cx="1261.678" cy="825.287" r="1041.75" gradientTransform="matrix(0.49856663,-0.00178447,0.00178447,0.49856663,-15.456712,-14.077774)" gradientUnits="userSpaceOnUse"><stop offset=".18" stop-color="#1d8ef9"/><stop offset=".246" stop-color="#1a8bf5"/><stop offset=".317" stop-color="#1082e7"/><stop offset=".392" stop-color="#0173d2"/><stop offset=".394" stop-color="#0072d1"/><stop offset=".533" stop-color="#0045e5"/><stop offset=".623" stop-color="#0b70ed"/><stop offset=".778" stop-color="#1db6f9"/><stop offset=".894" stop-color="#1dbbf9"/></radialGradient><circle cx="676.555" cy="123.445" r="123.445" fill="url(#B)"/><radialGradient id="C" cx="1412.944" cy="236.935" r="154.635" gradientUnits="userSpaceOnUse" gradientTransform="matrix(0.49856663,0,0,0.49856663,-14.807429,-16.402839)"><stop offset="0" stop-color="#e2ebf9"/><stop offset=".331" stop-color="#dde7f6"/><stop offset=".744" stop-color="#cddbee"/><stop offset="1" stop-color="#c0d1e7"/></radialGradient><path d="M698.791 48.56c-7.179-7.08-18.846-7.08-26.025.05l-33.205 33.205c-7.179 7.179-7.179 18.896 0 26.075h0c7.179 7.179 18.896 7.179 26.075 0l3.041-3.041v80.12c0 10.121 8.276 18.447 18.447 18.447h0c10.171 0 18.447-8.326 18.447-18.447V62.819c0-5.734-2.642-10.869-6.781-14.259z" fill="url(#C)"/><radialGradient id="D" cx="761.75" cy="665.281" r="1645.539" gradientTransform="matrix(0.43604637,-0.2417051,0.16193444,0.29216005,-74.929429,305.03962)" gradientUnits="userSpaceOnUse"><stop offset=".226" stop-color="#0071bc" stop-opacity=".3"/><stop offset=".439" stop-color="#a1c3d9" stop-opacity=".089"/><stop offset=".529" stop-color="#e6e6e6" stop-opacity="0"/><stop offset=".53" stop-color="#e6e6e6" stop-opacity=".1"/><stop offset=".629" stop-color="#e6e6e6" stop-opacity=".7"/></radialGradient><circle cx="676.555" cy="123.445" r="123.445" fill="url(#D)"/></svg>