<?xml version="1.0" encoding="UTF-8"?>
<svg width="800" height="160.39" version="1.1" xmlns="http://www.w3.org/2000/svg">
	<path d="m0 158.72h217.17v-157.06h-217.17z" fill="#fff"/>
	<g fill="#d3193e">
		<path d="m0 0.0017452v54.317a65.331 65.331 0 0 0 105.91 51.002 66.507 66.507 0 0 0 21.384-30.259 111.3 111.3 0 0 1-31.757 7.3242c2.5127-10.692 4.6511-27.747 5.3461-32.771 17.161-3.2612 36.14-13.365 41.433-36.033a381.93 381.93 0 0 0 48.33-7.1639 101.57 101.57 0 0 1 9.3021 41.272 104.67 104.67 0 0 1-199.95 44.854v67.843h664.85v-160.39zm650.31 145.79h-411.17v-131.19h411.17z"/>
		<path d="m288.69 43.199h37.423c24.699 0 33.36 18.23 33.36 36.888 0 22.721-12.029 37.102-37.851 37.102h-32.933zm22.828 55.066h8.9281c14.22 0 16.039-11.494 16.039-18.445a16.359 16.359 0 0 0-17.963-17.642h-7.0034zm120.88-45.923a35.018 35.018 0 0 0-11.869-8.0193 41.967 41.967 0 0 0-30.687 0 35.018 35.018 0 0 0-11.869 8.0193 35.873 35.873 0 0 0-7.5916 12.242 43.625 43.625 0 0 0-2.6731 15.611 43.678 43.678 0 0 0 2.6731 15.611 35.82 35.82 0 0 0 7.5916 12.242 34.964 34.964 0 0 0 11.869 8.0193 42.074 42.074 0 0 0 30.687 0 34.964 34.964 0 0 0 11.869-8.0193 35.873 35.873 0 0 0 7.5916-12.242 43.625 43.625 0 0 0 2.673-15.611 43.625 43.625 0 0 0-2.673-15.611 35.873 35.873 0 0 0-7.5916-12.242m-14.007 38.011a17.589 17.589 0 0 1-3.6888 6.1481 11.922 11.922 0 0 1-4.7581 3.1008 14.862 14.862 0 0 1-4.7582 0.85542 15.022 15.022 0 0 1-4.7581-0.85542 12.083 12.083 0 0 1-4.8115-3.1008 17.856 17.856 0 0 1-3.6888-6.1481 28.869 28.869 0 0 1-1.6573-10.157 28.869 28.869 0 0 1 1.497-10.157 17.963 17.963 0 0 1 3.8493-6.1481 12.136 12.136 0 0 1 4.7581-3.1008 14.97 14.97 0 0 1 4.7582-0.85541 14.809 14.809 0 0 1 4.7581 0.85541 12.029 12.029 0 0 1 4.7582 3.1008 17.696 17.696 0 0 1 3.6888 6.1481 28.977 28.977 0 0 1 1.4969 10.157 28.977 28.977 0 0 1-1.4969 10.157m159.05-47.153v46.137a16.466 16.466 0 0 1-1.1762 5.3461 9.5697 9.5697 0 0 1-3.2077 4.0631 10.318 10.318 0 0 1-6.2016 1.6039 11.013 11.013 0 0 1-6.4155-1.6039 9.3021 9.3021 0 0 1-3.3146-4.0631 16.305 16.305 0 0 1-1.1762-5.3461v-46.137h-23.256v45.388a29.19 29.19 0 0 0 8.3406 22.882 37.423 37.423 0 0 0 25.715 7.4846 37.05 37.05 0 0 0 25.394-7.4312 29.297 29.297 0 0 0 8.2865-22.882v-45.443zm-52.5 0h-28.122l-20.262 25.501h-0.21386v-25.501h-22.828v73.99h22.828v-21.866l6.3084-6.95 18.23 28.815h28.388l-31.168-45.068z"/>
		<path d="m720.16 52.69v-21.356l-17.164 0.06551v21.356l-15.002-0.06551v-52.69l15.002 0.06551v19.451l17.164-0.06551v-19.451h15.002v52.67h-15.002m45.721-11.046h6.9138c11.59 0 13.676-8.1333 13.676-15.733 0-7.5992-2.5448-14.448-13.676-14.448h-6.9138zm7.5992-41.544c18.368 0 26.522 12.195 26.522 25.952 0 13.757-7.8612 26.708-26.522 26.708h-21.87v-52.66h21.87"/>
	</g>
</svg>
