<svg xmlns="http://www.w3.org/2000/svg" width="768.515" height="450"  fill="#faaf40"><path d="M713.925 265.837V0H553.127l-170.25 277.307v71.477H220.699c111.73-78.275 160.798-136.901 160.798-206.467 0-68.291-44.395-117.89-111.942-138.282l-36.429 97.286c18.055 7.116 30.588 20.923 30.588 40.996 0 45.244-36.323 76.257-230.788 217.194V450h349.953v-82.311H597.63V450h116.403v-82.311h54.484V265.837zm-116.403 0H495.244l102.278-164.621zM72.327 30.269h26.87l39.19 104.402h43.651L232.594 0h-39.297l-33.03 97.073L127.024 0H0v30.269h37.704v104.402h34.624z"/></svg>