<?xml version="1.0" encoding="UTF-8"?>
<svg width="800" height="333.64" version="1.1" xmlns="http://www.w3.org/2000/svg">
	<path d="m498.27 333.64h-498.27v-333.51h498.27z" fill="#ff3700"/>
	<path d="m198.34 320.21c122.86 0 217.36-98.985 217.36-220.85 0-28.476-9.0773-67.522-19.398-85.8-35.44 7.3366-69.014 12.311-100.97 14.797-11.067 47.129-50.362 68.143-86.178 74.98-1.1192 10.445-5.4714 45.761-10.818 68.143 37.803-2.9844 66.03-15.171 66.03-15.171-5.7201 18.155-22.756 47.502-44.269 62.921-37.429 29.72-89.031 38.797-137.66 18.528-50.113-21.015-82.443-70.88-82.443-124.72v79.456c37.056 79.834 114.27 127.71 198.34 127.71z" fill="#fff"/>
	<path d="m650.93 112.97v-44.631h-50.44v44.631h-25.132v-112.83h25.132v45.114h50.44v-45.114h24.807v112.79h-24.807" fill="#ff3700"/>
	<path d="m722.49 89.586h21.429c24.491 0 31.26-18.046 31.26-34.321 0-16.273-7.7295-32.548-31.26-32.548h-21.429zm21.429-89.586c38.834 0 56.079 26.101 56.079 55.585 0 29.488-16.606 57.203-56.079 57.203h-46.242v-112.79h46.242" fill="#ff3700"/>
</svg>
