<?xml version="1.0" encoding="UTF-8"?>
<svg width="420.43" height="450" version="1.1" xmlns="http://www.w3.org/2000/svg">
	<path d="m7.059 7.045v56.998h56.765v-56.998zm70.943 0v56.998h56.765v-56.998zm70.887 0v56.998h56.765v-56.998zm30.948 12.131c1.765 0 3.42 0.167 5.02 0.555s3.034 0.886 4.413 1.606v6.204c-1.214-0.83-2.593-1.44-4.027-1.883-1.49-0.443-3.034-0.665-4.524-0.61-2.206 0-4.082 0.388-5.627 1.219-1.544 0.775-2.758 2.05-3.53 3.545-0.827 1.55-1.214 3.434-1.214 5.65 0 2.215 0.387 4.154 1.214 5.705 0.772 1.551 1.986 2.77 3.475 3.601 1.545 0.83 3.365 1.218 5.517 1.218 3.31 0 6.344-0.886 9.158-2.603v6.148h-0.056a17.899 17.899 0 0 1-4.578 1.718c-1.765 0.443-3.586 0.609-5.517 0.609-2.538 0-4.854-0.388-6.896-1.108-2.04-0.776-3.75-1.828-5.185-3.213-1.434-1.385-2.482-3.101-3.255-5.15-0.772-2.05-1.103-4.322-1.103-6.87 0-2.492 0.386-4.708 1.158-6.757a14.882 14.882 0 0 1 3.365-5.152 14.471 14.471 0 0 1 5.296-3.268c2.041-0.775 4.358-1.163 6.896-1.163zm-156.83 0.333h11.97c3.531 0 6.29 0.72 8.22 2.105 1.931 1.44 2.924 3.434 2.924 6.093 0 1.551-0.33 2.825-1.048 3.989-0.717 1.107-1.71 1.993-3.089 2.658 1.876 0.61 3.31 1.607 4.303 2.991 0.993 1.33 1.49 2.991 1.49 4.93 0.054 1.939-0.442 3.6-1.435 4.985s-2.372 2.438-4.138 3.158c-1.82 0.72-3.971 1.107-6.454 1.107h-12.743zm70.998 0h11.97c3.531 0 6.29 0.72 8.22 2.105 1.931 1.44 2.924 3.434 2.924 6.093 0 1.551-0.33 2.825-1.048 3.989-0.717 1.107-1.71 1.993-3.089 2.658 1.876 0.61 3.31 1.607 4.303 2.991 0.993 1.33 1.49 2.991 1.49 4.93-0.056 1.939-0.553 3.6-1.49 4.985-0.993 1.385-2.372 2.438-4.137 3.158-1.82 0.72-3.972 1.107-6.455 1.107h-12.688zm-64.543 5.207v7.977h4.91c1.71 0 2.978-0.388 3.861-1.108 0.883-0.72 1.324-1.773 1.324-3.047 0-2.548-1.71-3.822-5.186-3.822zm70.943 0v7.977h4.91c1.71 0 2.978-0.388 3.861-1.108 0.883-0.72 1.324-1.773 1.324-3.047 0-2.548-1.71-3.822-5.186-3.822zm-70.943 13.017v8.64h5.626c1.931 0 3.42-0.387 4.469-1.107 1.048-0.72 1.544-1.772 1.544-3.157 0.056-2.936-1.93-4.376-5.902-4.376zm70.943 0v8.64h5.626c1.931 0 3.42-0.387 4.469-1.107 1.048-0.72 1.544-1.772 1.544-3.157 0.056-2.936-1.93-4.376-5.902-4.376zm220.62 33.31v-68.403h17.796v46.988h21.55v-41.708h17.796v41.708h24.468v-49.628h17.788v71.043zm0 84.097v-68.395h17.796v46.988h21.55v-41.708h17.796v41.708h24.468v-49.628h17.788v71.043h-99.399zm0 94.39h99.399v-21.128h-36.142v-17.097l36.142-20.715v-24.611l-20.365 12.238-19.808 12.373c-2.497-5.75-6.068-10.17-10.704-13.28-4.636-3.11-10.242-4.66-16.826-4.66-10.194 0-18.035 3.499-23.498 10.496-5.463 6.998-8.198 17.033-8.198 30.098zm16.826-21.136v-14.035c0-6.576 1.2-11.562 3.61-14.942 2.41-3.38 6.163-5.073 11.26-5.073s8.827 1.718 11.19 5.145c2.361 3.427 3.546 8.429 3.546 15.013v13.892h8e-3l-8e-3 8e-3v-8e-3zm82.574 60.206h-42.678v43.235h42.678v21.415h-99.399v-21.415h38.09v-43.235h-38.09v-21.407h99.399zm-99.4 161.4v-83.964h18.631v31.275h80.768v21.407h-80.768v31.283z" fill="#89ff00"/>
	<path d="m289.52 173.94c-11.887-26.874-31.387-49.639-55.748-65.544l0.183 94.894c23.077-0.018 43.44-11.649 55.564-29.351" fill="#f3611f"/>
	<path d="m233.97 266.88v94.711c24.269-15.904 43.677-38.596 55.546-65.378-12.144-17.702-32.469-29.314-55.546-29.332" fill="#ef3623"/>
	<path d="m160.69 306.03s0 0.018 0.018 0.018c33.79 0.862 61.453-26.085 61.453-59.912v-144.61c-18.528-9.869-39.348-15.996-61.47-17.372z" fill="#378baa"/>
	<path d="m160.7 306.52s-0.018 0-0.018 0.018v79.412c22.123-1.376 42.944-7.502 61.47-17.372l0.019-2.164c0-33.808-27.663-60.774-61.471-59.894" fill="#53c49b"/>
	<path d="m87.421 181.37h0.018c33.955-0.018 61.471-27.535 61.471-61.489v-35.991c-21.94 0.33-42.76 5.32-61.489 14.052z" fill="#ef249c"/>
	<path d="m87.421 372.17c18.729 8.732 39.55 13.721 61.489 14.052v-143.36c0-33.955-27.516-61.489-61.471-61.489h-0.018z" fill="#d51378"/>
	<path d="m0 235.06c0 55.968 30.433 104.82 75.651 130.96v-79.522c-10.016-14.657-15.886-32.359-15.886-51.437s5.87-36.78 15.886-51.437v-79.522c-45.218 26.14-75.651 74.991-75.651 130.96" fill="#89cf25"/>
</svg>
