<svg xmlns="http://www.w3.org/2000/svg" width="450" height="450" viewBox="0 0 119.06 119.06" ><path d="M119.061 59.531c0 32.878-26.653 59.531-59.531 59.531S-.001 92.409-.001 59.531 26.652 0 59.53 0a59.53 59.53 0 0 1 59.531 59.531z" fill="#ef222b" paint-order="stroke fill markers"/><path d="M41.823 30.734c6.465-1.558 13.511 1.872 16.682 7.595 1.969 3.454-1.453 8.273-5.367 7.457-3.39-.242-3.882-4.931-7.296-5.052-3.664-.743-7.369 3.503-5.65 6.949 2.647 3.793 6.295 6.731 9.346 10.185 3.567 3.882 8.273 7.272 9.693 12.615 2.365 7.603-2.607 16.343-10.024 18.805-7.877 3.002-17.312-1.437-20.5-9.104-.743-3.535 3.277-7.102 6.707-5.916 2.365 1.073 3.365 3.769 5.609 5.004 2.841 1.59 7.062.145 7.934-3.099.912-2.252-.113-4.738-1.816-6.295-3.664-3.591-7.118-7.385-10.766-10.984-2.324-2.341-4.826-4.721-5.851-7.95-1.622-5.173-.726-11.315 3.01-15.375 2.284-2.268 5.06-4.245 8.289-4.834zm24.198 2.587c1.049-1.558 3.019-2.098 4.802-2.018 4.092.056 8.192-.153 12.276.178 2.421.743 2.962 3.583 2.849 5.787l-.04 47.634c.226 3.462-3.688 6.287-6.901 4.98-2.47-.662-3.809-3.277-3.632-5.706V41.658c-2.486-.073-5.093.331-7.482-.525-3.01-1.122-3.987-5.424-1.872-7.813z" fill="#fff"/></svg>