<svg xmlns="http://www.w3.org/2000/svg" width="322.129" height="450"><defs><linearGradient id="A" x1="0" y1="224.868" x2="322.12" y2="224.868" gradientUnits="userSpaceOnUse"><stop offset="0" stop-color="#00e9d4"/><stop offset=".17" stop-color="#12d9da"/><stop offset=".51" stop-color="#42aee8"/><stop offset=".99" stop-color="#8f6bff"/><stop offset="1" stop-color="#906aff"/></linearGradient></defs><path d="M232.937 206.876c49.851-18.35 72.864-56.426 72.864-95.638a96.295 96.295 0 0 0-53.139-86.313C220.505 5.918 186.553 0 125.524 0 75.673 0 17.932 3.945 0 9.205V443.34a669.463 669.463 0 0 0 104.843 6.575c87.927 0 140.049-14.465 172.208-40.048a117.156 117.156 0 0 0 45.069-93.844c-.299-57.442-38.733-95.518-89.182-109.146zm5.2 97.61c-15.362 12.313-38.853 19.307-81.172 19.307a346.029 346.029 0 0 1-49.732-3.168V111.418a402.336 402.336 0 0 1 59.774-4.423c29.349 0 46.145 2.869 61.627 11.955a45.846 45.846 0 0 1 24.985 41.841c0 18.948-11.357 37.299-35.386 46.145 24.328 6.635 42.2 24.926 42.2 52.421a56.845 56.845 0 0 1-21.997 45.189h0z" fill="url(#A)"/></svg>