<svg xmlns="http://www.w3.org/2000/svg" width="800" height="347.874"><g fill="#f9f9f9"><path d="M787.532 234.039c-22.226-20.747-58.305-22.476-80.576 1.41-.591.637-1.274 1.433-1.934 2.298l-.091-.66-.842-6.347 4.868-4.095c1.797-1.547 3.185-3.071 4.209-4.231 4.436-5.232 7.917-12.102 9.009-17.539 6.461-33.19-16.243-50.525-32.895-54.165-17.517-3.39-36.08-.136-50.229 10.328.387-4.936.136-9.122-.728-12.489 17.835-5.209 31.507-31.803 23.317-44.838-4.391-7.052-13.285-12.921-21.93-14.923-10.237-2.343-24.318.455-29.596 16.243-3.776 11.374-3.822 22.976 1.115 31.712-6.938 2.07-13.922 5.755-19.427 10.533l-3.367 2.866c.614-5.915.614-11.215.068-15.355l-.114-1.661c-.5-3.64-1.297-7.098-1.865-9.145-7.871-28.527-38.582-30.825-52.936-27.867l-.842.182.273-.796c1.501-4.663 1.979-5.869 2.912-7.689 1.615-2.935 4.14-6.756 9.35-15.151.432-.591 2.821-3.253 10.396-16.993 3.64-6.597 5.05-12.944 4.823-18.927C560.317 16.379 543.915 0 523.168 0c-13.809 0-24.591 6.802-31.098 17.335-.796 1.046-2.138 2.98-3.64 5.869-2.07 3.936-4.391 9.554-6.165 16.925 0 0-2.98 12.193-3.822 20.042-.409 3.435-.614 8.235-.819 12.853l-.205 4.3c-.227 2.844-.546 6.506-1.16 9.168-.205.819-.614 1.865-1.342 3.208-6.688-26.184-29.642-37.535-46.339-38.514-20.519-.728-39.947 6.074-53.369 18.608-8.303 7.735-13.877 17.539-17.084 28.663l-1.752-.933-.136-3.549-1.024-7.894c-1.797-7.939-5.733-16.038-10.305-21.111-26.434-29.369-58.874-20.406-74.206-7.211-9.805 8.827-17.471 20.087-21.702 32.462-15.492-16.493-53.71-15.469-76.936-3.64-22.726 11.579-55.894 34.032-42.54 88.697-.978-.91-1.797-1.843-2.889-2.707-12.808-10.305-27.594-21.202-42.677-26.411-16.038-5.528-33.008-4.663-47.204 9.213-22.135 21.543-68.906 82.442-2.571 154.623 32.03 34.874 61.763 41.471 86.195 35.101 11.579-3.026 21.156-8.758 28.481-14.218 6.984-5.255 12.262-10.578 15.583-13.581 7.075-6.415 17.335-18.586 23.727-31.871 4.254-8.713 8.303-21.384 4.823-33.418 26.889 7.917 54.893 1.41 70.817-6.256 22.635-10.897 52.481-34.715 42.881-66.836 20.974 2.616 41.789-4.209 59.374-20.019.136-.136.227-.273.364-.409l1.115 1.888c13.217 18.495 34.214 28.936 59.397 29.801 12.489.455 21.634-2.48 28.049-8.918 0 0 .136-.273.296-.546.091.227.136.432.227.66 12.307 37.422 57.85 47.636 89.926 33.145 6.847-3.071 12.171-6.938 15.788-10.078.91-.751 1.365-1.274 2.047-1.911 5.687 9.873 18.699 14.627 26.457 15.333 9.987.978 18.95-3.367 26.411-10.169-.5 27.117 15.879 54.87 53.096 62.104 9.031 1.774 17.221 1.388 23.727-3.367.637-.478 1.115-1.206 1.706-1.774-.091 2.366 0 4.709.478 7.029l.091.478-.5.091c-1.592.205-3.094.546-4.413 1.046-4.914 1.706-8.918 4.982-11.465 7.689-15.06 16.152-13.194 36.626 2.002 50.843 22.362 20.838 58.351 22.408 80.576-1.433 5.482-5.892 14.991-21.771 11.875-36.239l-.136-.5.523-.068c1.592-.205 3.071-.591 4.368-1.046 4.959-1.706 8.918-4.959 11.488-7.689 15.037-16.106 13.376-36.512-2.025-50.821m-661.216 4.231c-.842 4.732-1.41 10.009-2.184 15.128-.773 4.868-1.638 8.485-2.775 10.965-.546 1.206-1.706 2.343-2.047 2.684-9.759 3.39-18.79 1.274-29.619-11.966-4.413-5.414-8.645-15.06-10.76-24.432 3.685 3.594 8.94 6.688 16.47 8.008 12.603 2.229 25.365-3.299 34.1-11.625-1.683 3.799-2.571 7.871-3.185 11.238m123.003-105.486c1.433 3.936 3.185 7.803 5.505 11.647l-9.35-1.183z" fill-rule="evenodd"/><path d="M520.438 273.804l-1.001-.136-.455-.045c-.569-.114-1.183-.159-1.774-.227l-1.228-.091a22.48 22.48 0 0 0-2.138-.091l-.796.023a19.56 19.56 0 0 0-1.683.091c-.318 0-.637.023-.978.068a14.29 14.29 0 0 0-1.342.136l-.364.045-.409.091-.523.045-.614.136c-.341.045-.614.114-.887.182a34.41 34.41 0 0 0-5.096 1.501l-2.343 1.024-1.729.887-1.592.978c-.273.227-.523.432-.842.591-.227.182-.478.387-.705.5l-1.388 1.16-1.206 1.115-.933 1.001-.887 1.046-.933 1.206c-.273.341-.455.637-.66.933l-.409.682a27.93 27.93 0 0 0-2.093 4.209 26.5 26.5 0 0 0-1.501 5.983l-.227 2.07-.045 1.615.045 1.228c0 .409.045.842.091 1.251l.045.273.25 1.456c0 .182.068.364.091.546l.296 1.183.455 1.433.614 1.729 1.228 2.525.773 1.388.705.978c.273.478.569.887.887 1.297.364.387.66.796.978 1.183l1.251 1.319.205.182c.318.341.682.66 1.092 1.024l.887.751.933.682 1.228.842 1.433.864a35.38 35.38 0 0 0 3.367 1.615l1.433.5c.478.182.955.318 1.479.478.887.25 1.82.5 2.798.637.751.182 1.57.318 2.411.409l2.593.227 1.342.045h.614l4.482-.182h.273l1.592-.182 2.298-.364a6.17 6.17 0 0 0 1.319-.273l1.888-.432 1.319-.387 1.388-.478.455-.159.842-.318c.478-.159 1.024-.409 1.661-.66l1.228-.523c.387-.182.751-.409 1.16-.523l.5-.296v-9.827l-.364.205-.66.409-1.979 1.183-2.116 1.046-3.503 1.456c-2.161.751-4.163 1.297-5.846 1.547l-.614.091-1.388.227-1.911.136h-1.069c-.66 0-1.41 0-2.138-.045-.842-.045-1.729-.182-2.616-.341a24.89 24.89 0 0 1-4.254-1.092 2.79 2.79 0 0 1-.591-.273c-.136 0-.273-.091-.432-.136l-.682-.318-1.41-.751-.682-.409c-.25-.136-.478-.318-.705-.455l-.842-.614-.751-.637-.318-.296-.205-.182-.068-.045-.136-.136a13.29 13.29 0 0 1-1.206-1.365c-.227-.227-.455-.478-.614-.728l-.478-.705c-.136-.25-.318-.478-.432-.682-.227-.387-.432-.705-.546-1.046a7.82 7.82 0 0 1-.432-.887l-.546-1.479c-.136-.364-.227-.728-.296-1.069a16.53 16.53 0 0 1-.478-2.775l-.091-.864v-1.001-.614l.205-2.093.296-1.547c.068-.409.227-.751.318-1.16l.387-1.069a7.36 7.36 0 0 0 .296-.751 9.78 9.78 0 0 0 .478-.978l.432-.751 1.092-1.661c.182-.182.318-.387.478-.591l.66-.751c.091-.136.227-.273.364-.387a20.3 20.3 0 0 1 5.915-4.118l1.024-.409a7.34 7.34 0 0 1 .978-.387c.364-.136.728-.227 1.115-.341l1.024-.273 1.024-.227 1.183-.159c.364-.068.728-.091 1.115-.136l2.093-.114h.728l1.456.091 1.024.091 1.729.205 1.479.25 1.911.478 1.069.296c.478.182.864.273 1.228.364l.819.341 1.433.546 1.774.751 1.342.637.978.5 1.388.728 1.024.546v-9.691l-1.638-.614-1.615-.614-1.092-.364-.933-.364c-.409-.091-.751-.25-1.183-.341l-.864-.273-.273-.068c-.273-.068-.546-.182-.887-.273l-1.024-.273-.705-.159-1.206-.25c-.318 0-.773-.068-1.183-.159m-48.296-10.032h76.686v72.182h-76.686zm-68.25 10.121v51.981h19.564s9.554.296 14.787-4.982c4.3-4.277 4.027-9.236 4.027-9.236s.296-5.209-3.685-9.168c-3.39-3.39-7.689-4.277-7.689-4.277s1.934-.887 3.435-2.389c.66-.705 3.208-2.98 3.208-8.463 0-5.505-3.685-8.69-3.685-8.69s-4.049-4.754-13.103-4.754h-16.857m-20.133-10.146h76.709v72.182h-76.709zm-68.271 10.124v51.981h19.564s9.554.296 14.832-4.982c4.277-4.277 3.958-9.236 3.958-9.236s.318-5.209-3.64-9.168c-3.39-3.39-7.712-4.277-7.712-4.277s1.956-.887 3.458-2.389c.705-.705 3.185-2.98 3.185-8.463 0-5.505-3.64-8.69-3.64-8.69s-4.049-4.754-13.126-4.754h-16.88m-20.11-10.146h76.686v72.182h-76.686z"/></g><g fill-rule="evenodd" fill="#ffe512"><path d="M752.772 322.35c7.28-7.803 13.877-24.432 4.618-33.054-6.074-5.687-11.989-7.644-17.858-13.103-4.891-4.504-4.891-10.897-1.16-14.878 3.549-3.799 10.578-8.167 15.219-3.845 6.347 5.915 6.87 16.857 13.035 22.658 4.527 4.209 10.897.318 14.263-3.321 10.351-11.079 9.441-24.045-1.433-34.146-17.994-16.789-46.612-17.721-63.879.819-7.257 7.803-13.786 24.523-4.618 33.054 6.21 5.801 15.06 7.484 19.268 14.696 3.435 5.869 2.753 9.009-.136 13.422-2.935 4.436-10.692 8.053-15.333 3.731-6.21-5.824-6.711-16.743-13.012-22.658-4.527-4.231-10.897-.318-14.309 3.321-10.351 11.101-9.281 24.159 1.433 34.169 18.199 16.902 46.658 17.676 63.901-.864M622.74 109.24c-4.891 14.718-.887 23.681 7.075 26.753 9.554 3.708 25.024-18.131 20.519-25.274-4.459-7.143-22.681-16.197-27.594-1.479"/><path d="M686.777 162.085c-25.683-5.005-52.095 6.074-58.009 36.717-4.845 24.546 7.325 52.686 42.699 59.556 15.401 3.003 16.88-3.594 19.928-9.077 3.026-5.505 3.321-16.447-2.821-17.426-6.142-.955-12.353.955-18.859-.318-9.941-1.956-20.406-23.226-9.395-21.111 6.21 1.206 17.38 7.871 31.211 10.578 9.577 1.865 17.949-12.171 19.154-18.381 4.982-25.774-11.989-38.013-23.909-40.538M427.624 68.36c-28.072-1.001-54.233 15.196-55.416 48.682-.933 26.798 16.652 54.62 55.325 55.962 16.834.591 17.335-6.62 19.587-12.967 2.32-6.347.705-17.994-5.915-17.994-6.665 0-12.921 3.048-20.042 2.798-10.897-.364-25.57-21.179-13.513-20.77 6.756.25 19.746 5.437 34.874 5.937 10.442.387 16.971-15.901 17.244-22.681 1.001-28.186-19.086-38.286-32.144-38.969M96.629 227.169c20.451 3.572 48.728-25.115 23.181-45.702-25.524-20.542-53.255-38.377-74.684-17.448C23.651 184.948-16.5 238.248 42.442 302.4c58.919 64.197 101.278 17.471 113.858 6.006 12.58-11.443 37.376-44.383 21.088-61.672s-28.049-27.89-35.784-16.993c-7.735 10.874-2.457 43.086-17.835 48.387-15.378 5.346-29.505.341-42.836-16.015-13.331-16.334-21.27-53.369-8.531-56.553 12.717-3.23 3.731 17.994 24.227 21.611M281.94 70.749c-20.861 18.79-28.436 48.614-6.028 73.501 17.949 19.928 49.934 27.708 78.642 1.865 12.535-11.283 7.871-16.834 5.118-22.976-2.775-6.142-11.966-13.445-16.743-8.827s-7.189 11.17-12.466 15.947c-8.099 7.28-33.122 2.48-24.182-5.551 5.05-4.527 18.017-9.827 29.255-19.973 7.757-6.984 1.137-23.226-3.39-28.277-18.881-20.974-40.356-14.286-50.207-5.71m316.437 85.855c17.949-15.583 30.438-11.101 27.139 7.894-3.299 18.95-19.951 41.516-34.578 40.129-10.919-1.069-24.842-7.985-10.919-27.458 5.869-8.19 8.94-12.33 18.358-20.565"/></g><path d="M467.024 128.644c1.433-5.278 6.961-14.218 6.961-14.218 7.826-11.875 13.103-17.926 14.741-25.069 1.82-7.917 1.456-11.42 1.456-11.42.296-5.391.455-11.92.978-16.22.66-7.098 3.503-18.472 3.503-18.472 3.026-12.739 7.917-18.608 7.917-18.608 4.391-7.371 11.238-11.829 20.565-11.829 13.786 0 24.5 10.851 24.5 24.25.159 3.526-.591 7.644-3.208 12.421-7.257 13.103-9.577 15.628-9.941 16.22-11.101 17.744-10.624 16.22-13.786 26.116-1.365 3.731-2.252 6.961-1.524 10.169 1.251 5.437 5.755 7.575 9.236 7.78 1.388.068 3.208-.159 5.232-.614.682-.159 1.433-.318 2.207-.409 12.102-2.753 33.281.205 38.286 18.745.455 1.592 1.069 3.913 1.456 6.847l.091 1.752c.978 6.688.569 18.199-4.277 31.484-.933 2.138-7.871 16.88-13.649 22.271l-.364.364s-1.865 2.207-4.573 4.527c-2.98 2.502-7.234 5.664-12.671 8.053-27.708 12.557-63.674 2.457-72.682-25.752-10.214-25.911-.455-48.387-.455-48.387" fill="#ffe512"/><g fill-rule="evenodd"><path d="M177.524 97.342c-22.658 11.534-55.461 32.644-29.573 95.499 25.888 62.878 84.443 54.574 110.582 42.04 25.046-12.011 47.704-33.896 33.372-60.421-13.649-25.183-48.728-10.032-56.758-30.37-3.503-8.918 14.741-33.168 6.301-44.61-8.485-11.443-41.244-13.695-63.924-2.138" fill="#ffe512"/><path d="M666.622 180.352c-4.004 6.051-3.071 18.313 5.118 19.336 8.167 1.069 23.317-7.462 17.289-16.88-5.778-8.963-16.288-11.625-22.408-2.457M411.95 100.868c-2.389 7.302 8.053 14.741 15.901 14.468 7.871-.25 17.244-3.344 16.402-13.558-1.365-17.175-28.504-12.262-32.303-.91m-127.234 5.3c3.117 7.143 16.766 4.3 22.954-2.025s11.67-15.924 3.913-22.612c-13.081-11.283-31.644 13.49-26.866 24.637m262.11 57.6c-7.462 7.757-24.114 16.152-34.988 5.687-10.919-10.396-12.171-34.487-.66-37.012 11.488-2.571 57.873 8.144 35.647 31.325M202.16 153.054c9.577-11.01 7.371-33.759-4.482-36.876-16.971-4.391-29.687 19.587-25.001 27.412 4.686 7.803 19.928 20.428 29.482 9.463m43.565 43.155c-3.412 9.486-14.468 22.999-27.799 18.245s-23.59-24.91-14.696-31.507 52.732-15.105 42.495 13.263" fill="#4e2f91"/></g><path d="M413.201 303.605v14.172h9.191s.182 0 .478-.045l1.319-.045c.978-.114 2.298-.296 3.572-.705 1.16-.432 2.298-.978 3.162-1.865.318-.318.569-.637.819-.978.728-1.183.91-2.32.933-2.98l.023-.455v-.364c0-.296-.045-.796-.182-1.365-.182-.682-.5-1.479-1.069-2.184l-.387-.432a6.31 6.31 0 0 0-.819-.705c-.478-.387-1.092-.682-1.683-.933-.842-.387-1.774-.614-2.798-.819a11.98 11.98 0 0 0-1.615-.25c-.387 0-.705-.045-1.092-.091h-.978l-8.872.045m-.002-21.59v13.422h4.459.682l.978-.045c.933-.045 2.207-.182 3.458-.523l.751-.227c1.001-.387 1.956-.887 2.684-1.615.591-.569.978-1.228 1.274-1.843a8.54 8.54 0 0 0 .455-2.025l.045-.773v-.523c-.045-.614-.182-1.547-.614-2.457-.227-.478-.523-.864-.955-1.274-.5-.5-1.115-.887-1.752-1.183-1.251-.546-2.707-.773-3.913-.864-.478-.045-1.001-.045-1.433-.045h-6.119m-88.379 21.564v14.172h9.213s.182 0 .478-.045l1.297-.045c1.001-.114 2.298-.296 3.594-.705 1.137-.432 2.252-.978 3.094-1.865a4.11 4.11 0 0 0 .842-.978 6.66 6.66 0 0 0 .978-2.98v-.455-.364c0-.296-.023-.796-.182-1.365-.182-.682-.5-1.479-1.092-2.184-.091-.159-.227-.296-.341-.432-.25-.25-.523-.478-.819-.705-.523-.387-1.092-.682-1.706-.933-.842-.387-1.774-.614-2.798-.819a11.44 11.44 0 0 0-1.615-.25c-.364 0-.705-.045-1.069-.091h-.978l-8.895.045m-.001-21.59v13.422h4.459.682l1.001-.045c.933-.045 2.184-.182 3.458-.523.25-.091.5-.136.751-.227.978-.387 1.956-.887 2.684-1.615a5.03 5.03 0 0 0 1.228-1.843c.341-.773.455-1.501.478-2.025l.045-.773v-.523c-.045-.614-.159-1.547-.614-2.457a5.05 5.05 0 0 0-.955-1.274c-.5-.5-1.115-.887-1.752-1.183-1.251-.546-2.707-.773-3.913-.864-.523-.045-1.001-.045-1.41-.045h-6.142" fill="#f9f9f9"/></svg>