<?xml version="1.0" encoding="UTF-8"?>
<svg width="404.87" height="450" version="1.1" xmlns="http://www.w3.org/2000/svg">
	<defs>
		<linearGradient id="SVGID_1_" x2="26.152" y1="19.26" y2="19.26" gradientTransform="matrix(15.453 0 0 -15.453 0 522.63)" gradientUnits="userSpaceOnUse">
			<stop stop-color="#00AEEF" offset=".010357"/>
			<stop stop-color="#01AAEC" offset=".2096"/>
			<stop stop-color="#059FE4" offset=".3967"/>
			<stop stop-color="#0A8CD5" offset=".579"/>
			<stop stop-color="#1271C0" offset=".7582"/>
			<stop stop-color="#1D4FA6" offset=".9337"/>
			<stop stop-color="#21409A" offset="1"/>
		</linearGradient>
		<linearGradient id="SVGID_2_" x1="7.0403" x2="28.705" y1="15.914" y2="25.23" gradientTransform="matrix(15.453 0 0 -15.453 0 525.41)" gradientUnits="userSpaceOnUse">
			<stop stop-color="#005EAD" offset="0"/>
			<stop stop-color="#0071BD" offset=".12"/>
			<stop stop-color="#008CD3" offset=".3275"/>
			<stop stop-color="#009FE3" offset=".5397"/>
			<stop stop-color="#00AAEC" offset=".7576"/>
			<stop stop-color="#00AEEF" offset=".9896"/>
		</linearGradient>
	</defs>
	<path d="m202.44 133.21c61.813 0 112.81 50.996 112.81 112.81s-47.905 111.26-109.72 112.81h-4.636c-61.813 0-112.81-50.996-112.81-112.81v-165.35s-69.54-71.085-74.175-75.721c-7.7266-7.7266-13.908-6.1813-13.908 3.0906v239.52c0 111.26 91.174 202.44 202.44 202.44 74.175 0 137.53-38.633 173.08-98.901 18.544-30.906 29.361-66.449 29.361-103.54 0-111.26-91.174-202.44-202.44-202.44-41.724 0-80.357 12.363-112.81 33.997" fill="url(#SVGID_1_)"/>
	<path d="m166.89 142.17c10.817-3.0906 20.089-6.1813 35.542-6.1813 61.813 0 112.81 50.996 112.81 112.81 0 60.268-44.814 108.17-105.08 112.81-61.813 4.636-117.44-43.269-122.08-103.54 0 182.35 217.89 200.89 285.88 94.265 3.0906-4.636 6.1813-9.2719 7.7266-13.908 13.908-26.27 21.635-57.177 21.635-89.629 0-111.26-91.174-202.44-202.44-202.44-41.724 0-80.357 12.363-112.81 33.997 0 0 49.45 49.45 52.541 52.541 7.7266 9.2719 16.999 12.363 26.27 9.2719z" fill="url(#SVGID_2_)"/>
</svg>
