<?xml version="1.0" encoding="UTF-8"?>
<svg width="672.32" height="450" version="1.1" xmlns="http://www.w3.org/2000/svg">
	<path d="M 672.32,450 H 0 V 0 h 672.32 z" fill="#ff3700"/>
	<path d="m267.62 431.88c165.77 0 293.29-133.56 293.29-297.99 0-38.423-12.248-91.107-26.174-115.77-47.819 9.8993-93.121 16.611-136.24 19.966-14.933 63.591-67.953 91.946-116.28 101.17-1.5101 14.094-7.3826 61.745-14.597 91.946 51.007-4.0268 89.094-20.47 89.094-20.47-7.7181 24.497-30.705 64.094-59.732 84.899-50.503 40.101-120.13 52.349-185.74 25-67.617-28.356-111.24-95.638-111.24-168.29v107.21c50 107.72 154.19 172.32 267.62 172.32z" fill="#fff"/>
</svg>
