<?xml version="1.0" encoding="UTF-8"?>
<svg width="800" height="269.67" version="1.1" xmlns="http://www.w3.org/2000/svg">
	<g fill="#b682eb">
		<path d="m738.13 128.2c34.975-11.658 48.563-30.312 48.563-55.558 0-41.568-46.995-72.643-114.21-72.643-60.623 0-104.88 25.246-115.78 70.312-2.7337 11.256 3.4975 18.251 13.226 18.251h35.739c5.0251 0 9.3266-3.0955 10.894-7.7588 6.593-19.819 21.749-34.211 53.628-34.211 27.578 0 46.633 13.588 46.633 34.211 0 21.387-17.889 27.578-41.568 31.075l-38.874 5.4271c-2.7337 0.40201-5.0251 2.7337-5.0251 5.4673v23.719c0 3.0955 2.3317 5.4271 5.4673 5.8292l53.99 5.8291c25.648 2.7337 39.236 11.256 39.236 29.508 0 24.482-23.719 35.377-55.96 35.377-35.377 0-56.724-12.02-65.648-34.573-1.9698-4.6633-5.8291-7.7588-10.894-7.7588h-40.402c-12.824 0-19.417 6.995-15.92 19.417 12.02 44.261 57.126 69.548 131.34 69.548 78.111 0 127.44-30.714 127.44-79.236-0.0402-26.894-15.196-52.503-61.869-62.231z"/>
		<path d="m34.573 71.477c21.387 0 34.573-15.156 34.573-34.573 0-19.015-13.226-34.211-34.573-34.211-21.347 0-34.573 15.156-34.573 34.211 0 19.417 13.226 34.573 34.573 34.573z"/>
		<path d="m516.34 101.39c-3.4975-1.1658-13.588-3.8995-18.653-5.4673-8.1608-2.7337-11.256-3.4975-12.824-3.4975-3.4975 0-5.4673 1.9698-6.593 5.8291-11.658 38.472-29.146 81.97-45.065 109.19-5.0251-10.09-14.754-27.216-23.317-42.734-13.99-23.719-27.578-47.759-34.211-59.055-6.995-11.256-11.658-13.99-20.583-13.99-18.653 0-46.231 16.724-46.231 32.241 0 5.4673 1.5276 9.3266 6.995 18.653 6.2312 10.492 9.3266 19.417 9.3266 29.91 0 26.412-19.819 50.492-57.889 50.492-18.251 0-32.241-5.0251-41.206-14.392-8.9648-8.9648-13.226-20.985-13.226-41.206v-33.729c6.593 2.7337 14.392 4.2613 23.719 4.2613h30.312c4.2613 0 5.4673-1.5276 5.4673-5.4673v-32.241c0-3.8995-1.1658-5.4673-5.4673-5.4673h-53.99v-52.784c0-6.593-1.5276-10.894-5.0251-13.99-5.4673-5.0251-15.92-7.397-28.744-7.397-13.226 0-23.719 2.3317-29.146 7.397-3.4975 3.0955-5.0251 7.397-5.0251 13.99v129.37c0 21.387-3.4975 33.005-11.256 41.206-6.593 7.397-17.085 11.256-28.744 11.256-11.256 0-20.985-3.8995-27.216-10.09-6.2312-6.593-8.9648-15.518-8.9648-29.146v-84.302c0-3.8995-1.5276-5.4673-5.4673-5.4673h-57.487c-3.8995 0-5.4673 1.5276-5.4673 5.4673v76.141c0 30.312 8.1608 47.759 21.749 61.387 17.889 17.889 48.201 26.01 76.945 26.01 29.146 0 59.055-10.492 76.945-26.814 17.487 15.92 49.367 26.814 84.302 26.814 46.231 0 80.04-19.417 99.859-51.698l21.749 33.005c9.3266 13.588 17.487 18.653 36.503 18.653 17.487 0 28.382-4.2613 37.709-19.015 25.246-38.472 46.995-84.302 62.553-126.27 1.5276-5.0251 3.0955-8.9648 3.0955-11.256 0.0402-2.6935-1.5276-4.2211-5.4271-5.789z"/>
	</g>
</svg>
