<svg xmlns="http://www.w3.org/2000/svg" width="450" height="450"  fill="#fff"><path d="M208.213 450c0-7.991-1.332-18.646-1.332-26.637V118.366c-15.982 2.664-19.978 10.655-23.974 22.642-5.327 18.646-17.314 29.301-34.628 34.628l-7.991 3.996c-17.314 9.323-19.978 26.637-7.991 42.62 3.996 5.327 9.323 9.323 15.982 13.319 21.31 13.319 34.628 30.633 35.96 55.938 0 3.996 1.332 9.323 3.996 14.651 2.664 7.991 6.659 17.314 7.991 25.305 1.332 9.323 0 19.978 0 29.301v23.974h-5.327c-2.664-10.655-6.659-23.974-9.323-34.628-6.659-35.96-25.305-67.925-54.606-91.899-6.659-5.327-11.987-13.319-19.978-18.646-23.974-17.314-39.956-39.956-49.279-69.257v-9.323c17.314-50.611 58.602-77.248 99.89-107.881 31.965 51.943 86.571 77.248 133.186 113.208 27.969 21.31 54.606 43.952 75.916 70.589 37.292 46.615 31.965 103.885-3.996 145.173-30.633 34.628-71.921 51.943-114.54 63.93m82.576-265.043L220.2 103.715V43.781c54.606-11.987 129.191 47.947 110.545 137.182zM208.213 1.162v89.235c-15.982-9.323-26.637-22.642-34.628-34.628-7.991-13.319-11.987-26.637-3.996-39.956 7.991-11.987 19.978-18.646 38.624-14.651zm-27.969 384.909c-50.611-22.642-67.925-66.593-46.615-103.885 31.965 26.637 31.965 67.925 46.615 103.885z"/></svg>