<svg xmlns="http://www.w3.org/2000/svg" width="791.546" height="449.991" viewBox="0 0 209.43 119.06" ><g transform="matrix(1.0472 0 0 1.0472 50.619171 -52.137677)" fill="#cadb2e"><path d="M56.516 70.91c-.003.776-.241 1.557-.934 2.164s-1.889 1.071-3.873 1.071h-3.992v-6.401h3.814c1.779 0 3.041.361 3.833.924s1.146 1.312 1.152 2.242m-3.233-7.664c.743-.535 1.102-1.293 1.106-2.428-.003-.78-.226-1.449-.787-1.947s-1.518-.854-3.06-.854h-2.824v6.066h1.938c1.678 0 2.879-.298 3.627-.837m7.539 8.134c.01-2.959-1.96-5.208-5.114-6.072.852-.435 1.525-.967 2.019-1.614.658-.87.974-1.935.97-3.178a5.66 5.66 0 0 0-1.885-4.246c-1.29-1.163-3.247-1.917-5.918-1.916h-7.376V77.81h8.657c3.088 0 5.256-.837 6.652-2.079 1.397-1.236 1.996-2.857 1.995-4.351m8.223 10.976H34.438V49.789h34.607zm-55.638-19.11c.742-.535 1.102-1.293 1.108-2.428-.002-.78-.226-1.449-.787-1.947s-1.519-.854-3.063-.854H7.844v6.066h1.938c1.676 0 2.878-.298 3.626-.837m2.081 5.423c-.79-.563-2.054-.924-3.831-.924H7.844v6.401h3.991c1.983 0 3.178-.463 3.871-1.071s.933-1.388.934-2.164c-.006-.93-.363-1.675-1.152-2.242m5.46 2.711c.01-2.959-1.963-5.208-5.112-6.072.849-.435 1.522-.967 2.014-1.614.661-.87.974-1.935.973-3.178.002-1.525-.598-3.081-1.886-4.246s-3.245-1.917-5.916-1.916H3.642V77.81H12.3c3.09 0 5.256-.837 6.652-2.079 1.396-1.236 1.999-2.857 1.997-4.351m8.223 10.976H-5.435V49.789h34.606zm72.878-10.824l-.555.339c-2.68 1.637-5.594 2.514-8.242 2.512-5.668-.022-9.399-3.38-9.414-8.266.005-4.782 3.903-8.321 9.27-8.333 2.734.002 5.209.708 8.152 2.321l.541.297v-4.365l-.232-.091c-3.317-1.309-5.887-1.892-8.424-1.891-3.924-.002-7.328 1.294-9.753 3.492s-3.865 5.303-3.862 8.869c.002 2.484 1.025 5.394 3.22 7.705 2.188 2.311 5.559 3.994 10.182 3.993h.016c3.834 0 6.493-.854 8.897-2.039l.204-.1zm6.872 10.824H74.316V49.789h34.606z"/><path d="M-20.62 114.026v47.994h-10.182v-47.994h-17.535v-9.209h45.256v9.209zm67.312 4.441L33.444 162.03h-9.377L7.18 104.818h11.149l10.748 41.211h.159l12.848-41.211h10.021l12.605 41.211h.168l11.233-41.211h10.356L69.803 162.03h-9.685l-13.267-43.562zm74.518-15.117c17.859-.32 30.452 11.642 30.452 29.986 0 17.866-12.594 29.821-30.452 30.151-17.634 0-30.24-11.955-30.24-29.821-.011-18.354 12.605-30.316 30.24-30.316m.077 50.917c11.877 0 19.703-9.047 19.703-21.262 0-11.388-7.841-20.446-19.703-20.446-11.797 0-19.649 9.054-19.649 20.446 0 12.227 7.848 21.262 19.649 21.262z" fill-rule="evenodd"/></g></svg>