<svg xmlns="http://www.w3.org/2000/svg" width="500.55" height="450" viewBox="-5.728 -5.728 131.96 118.58" ><defs><linearGradient id="A" x1="132.34" x2="132.34" y1="-5.999" y2="247.57" gradientUnits="userSpaceOnUse"><stop stop-color="#42d5ff" offset="0"/><stop stop-color="#0b5995" offset="1"/></linearGradient></defs><path d="M47.361-5.739c-4.496.024-8.526.585-11.476 1.651l7.01 57.671-7.01 57.652c4.719 1.705 12.19 2.146 19.942 1.107 18.17-2.436 36.153-5.391 54.098-8.35 12.387-2.043 16.311-14.752 16.311-21.67V24.825c0-6.919-3.924-19.628-16.311-21.67l-54.098-8.33c-2.907-.39-5.769-.577-8.466-.563z" fill="url(#A)"/><path d="M44.04-5.487c-2.296-.014-4.212.329-6.175.738C27.987-2.693 17.8-.153 7.709 2.339-4.254 5.292-5.728 25.63-5.728 28.709v49.71c0 3.078 1.474 23.435 13.437 26.389l30.156 7.088c1.964.401 3.879.734 6.175.718 5.873-.039 9.344-1.475 13.146-5.359 4.524-4.622 6.175-12.466 6.175-19.612V19.504c0-7.146-1.651-14.99-6.175-19.612-3.802-3.884-7.273-5.34-13.146-5.379z" fill="#155d95"/><g fill="#fff"><path d="M90.838 29.369v17.127l-16-.291v15.263l16-.291V78.4l12.777-.854V60.924l13.864-.252v-13.67l-13.864-.252V30.166z"/><path d="M42.527 10.4s-17.006 2.214-18.112 2.722L7.676 44.507C3.6 52.149 3.491 59.167 3.706 69.89s6.904 21.296 16 24.042c14.899 4.498 32.788 5.347 33.36-25.501.282-15.195-8.007-23.719-20.188-24.194-3.801-.21-6.889-.001-9.85.269zM22.114 58.821h6.825a8.88 8.88 0 0 1 8.901 8.9v4.039c0 5.612-2.839 8.9-8.223 8.9h-4.625c-3.539 0-8.9-4.465-8.9-9.48v-4.625c0-5.481 1.093-7.734 6.023-7.734z" paint-order="stroke fill markers"/></g></svg>