<?xml version="1.0" encoding="UTF-8"?>
<svg width="800" height="205.05" version="1.1" viewBox="0 0 800 205.05" xmlns="http://www.w3.org/2000/svg" xmlns:xlink="http://www.w3.org/1999/xlink">
	<defs>
		<linearGradient id="linearGradient1830" x1="1.4108" x2="321.53" y1="291.69" y2="260.41" gradientTransform="matrix(.60788 0 0 .60788 -.35757 .51094)" gradientUnits="userSpaceOnUse">
			<stop stop-color="#6038b3" stop-opacity="0" offset="0"/>
			<stop stop-color="#6038b3" offset="1"/>
		</linearGradient>
		<linearGradient id="linearGradient3220" x1="204.25" x2="1.4108" y1="332.53" y2="72.221" gradientTransform="matrix(.60788 0 0 .60788 -.35757 .51094)" gradientUnits="userSpaceOnUse">
			<stop stop-color="#f8e606" offset="0"/>
			<stop stop-color="#f8e606" offset=".42178"/>
			<stop stop-color="#f8e606" stop-opacity="0" offset="1"/>
		</linearGradient>
		<linearGradient id="linearGradient5753" x1="321.53" x2="-62.964" y1="40.946" y2="9.7484" gradientTransform="matrix(.60788 0 0 .60788 -.35757 .51094)" gradientUnits="userSpaceOnUse">
			<stop stop-color="#f83263" offset="0"/>
			<stop stop-color="#f83263" stop-opacity="0" offset="1"/>
		</linearGradient>
		<linearGradient id="linearGradient7270" x1="1.4108" x2="118.7" y1="72.221" y2="165.68" gradientTransform="matrix(.60788 0 0 .60788 -.35757 .51094)" gradientUnits="userSpaceOnUse">
			<stop stop-color="#0096db" offset="0"/>
			<stop stop-color="#006695" stop-opacity=".67843" offset=".47098"/>
			<stop stop-opacity="0" offset="1"/>
		</linearGradient>
		<linearGradient id="linearGradient9356" x1="321.53" x2="219.82" y1="260.41" y2="239.93" gradientTransform="matrix(.60788 0 0 .60788 -.35757 .51094)" gradientUnits="userSpaceOnUse">
			<stop stop-color="#fecda2" stop-opacity=".00014301" offset="0"/>
			<stop stop-color="#fecda2" offset="1"/>
		</linearGradient>
		<linearGradient id="linearGradient10674" x1="321.53" x2="118.7" y1="260.41" y2=".097595" gradientTransform="matrix(.60788 0 0 .60788 -.35757 .51094)" gradientUnits="userSpaceOnUse">
			<stop stop-color="#1ac79a" offset="0"/>
			<stop stop-color="#1ac79a" stop-opacity="0" offset="1"/>
		</linearGradient>
		<radialGradient id="radialGradient1081" cx="65.751" cy="122.97" r="71.218" gradientTransform="matrix(-.34233 1.2776 -.33847 -.090693 126.49 21.533)" gradientUnits="userSpaceOnUse">
			<stop offset="0"/>
			<stop stop-opacity="0" offset="1"/>
		</radialGradient>
	</defs>
	<path d="m71.792 0.57027c55.796 19.553 7.9223 100.78-6e-6 158.24l-71.292 19.011c-0.028159-6.675 38.27-147.31 71.292-177.25z" fill="url(#radialGradient1081)" stop-color="#000000"/>
	<g>
		<path d="m195.09 25.401v133.41l-123.3-24.831v-133.41z" fill="url(#linearGradient10674)" stop-color="#000000"/>
		<path d="m195.09 158.81-71.292 43.842-123.3-24.831 71.292-43.842z" fill="url(#linearGradient1830)" stop-color="#000000"/>
		<path d="m123.8 69.242 71.292-43.842v133.41l-71.292 43.842z" fill="url(#linearGradient9356)" stop-color="#000000"/>
		<path d="m0.50002 44.412 123.3 24.831 71.292-43.842-123.3-24.831z" fill="url(#linearGradient5753)" stop-color="#000000"/>
		<path d="m123.8 69.242v133.41l-123.3-24.831v-133.41z" fill="url(#linearGradient3220)" stop-color="#000000"/>
		<path d="m71.792 0.57027v133.41l-71.292 43.842 4.19e-6 -133.41z" fill="url(#linearGradient7270)" stop-color="#000000"/>
	</g>
	<g fill="#fff">
		<path d="m251.41 204.01q-0.83153-1.6111-1.4552-5.249-6.0286 6.2885-14.76 6.2885-8.4712 0-13.824-4.8333t-5.353-11.953q0-8.9909 6.6522-13.772 6.7042-4.8333 19.125-4.8333h7.7436v-3.6899q0-4.3655-2.4426-6.9641-2.4426-2.6505-7.4318-2.6505-4.3136 0-7.068 2.1828-2.7544 2.1308-2.7544 5.4569h-12.629q0-4.6254 3.0663-8.6272 3.0663-4.0537 8.3153-6.3404 5.301-2.2867 11.797-2.2867 9.8744 0 15.747 4.9892 5.8727 4.9372 6.0286 13.928v25.362q0 7.5877 2.1308 12.109v0.8835zm-13.876-9.0949q3.7419 0 7.016-1.819 3.3261-1.819 4.9892-4.8852v-10.602h-6.8082q-7.0161 0-10.55 2.4426t-3.534 6.9121q0 3.638 2.3906 5.8207 2.4426 2.1308 6.4964 2.1308z"/>
		<path d="m308.49 198.5q-5.5609 6.5483-15.799 6.5483-9.1468 0-13.876-5.353-4.6774-5.353-4.6774-15.487v-36.432h12.629v36.276q0 10.706 8.887 10.706 9.1988 0 12.421-6.6003v-40.381h12.629v56.232h-11.901z"/>
		<path d="m335.7 204.01v-46.878h-8.5752v-9.3547h8.5752v-5.1451q0-9.3547 5.1971-14.448 5.1971-5.0931 14.552-5.0931 3.3261 0 7.068 0.93547l-0.31182 9.8744q-2.0788-0.41577-4.8333-0.41577-9.0429 0-9.0429 9.3028v4.9892h11.434v9.3547h-11.434v46.878z"/>
		<path d="m385.11 134.11v13.668h9.9264v9.3547h-9.9264v31.39q0 3.2222 1.2473 4.6774 1.2993 1.4032 4.5734 1.4032 2.1828 0 4.4175-0.51971v9.7705q-4.3136 1.1953-8.3153 1.1953-14.552 0-14.552-16.059v-31.858h-9.2508v-9.3547h9.2508v-13.668z"/>
		<path d="m441.68 204.01q-0.83154-1.6111-1.4552-5.249-6.0286 6.2885-14.76 6.2885-8.4712 0-13.824-4.8333-5.353-4.8333-5.353-11.953 0-8.9909 6.6522-13.772 6.7042-4.8333 19.125-4.8333h7.7436v-3.6899q0-4.3655-2.4426-6.9641-2.4426-2.6505-7.4318-2.6505-4.3136 0-7.068 2.1828-2.7544 2.1308-2.7544 5.4569h-12.629q0-4.6254 3.0663-8.6272 3.0663-4.0537 8.3153-6.3404 5.301-2.2867 11.797-2.2867 9.8744 0 15.747 4.9892 5.8727 4.9372 6.0286 13.928v25.362q0 7.5877 2.1308 12.109v0.8835zm-13.876-9.0949q3.7419 0 7.016-1.819 3.3261-1.819 4.9892-4.8852v-10.602h-6.8082q-7.0161 0-10.55 2.4426t-3.534 6.9121q0 3.638 2.3906 5.8207 2.4426 2.1308 6.4964 2.1308z"/>
		<path d="m476.96 147.77 0.3638 6.4964q6.2365-7.5358 16.371-7.5358 17.566 0 17.878 20.113v37.159h-12.629v-36.432q0-5.353-2.3387-7.8996-2.2867-2.5985-7.5358-2.5985-7.6397 0-11.382 6.9121v40.017h-12.629v-56.232z"/>
		<path d="m538.94 179.89-5.6128 5.7688v18.346h-12.629v-79.827h12.629v46.046l3.9498-4.9372 15.539-17.514h15.175l-20.892 23.439 23.127 32.794h-14.604z"/>
		<path d="m597.46 205.05q-12.005 0-19.489-7.5358-7.4318-7.5877-7.4318-20.165v-1.5591q0-8.4193 3.2222-15.02 3.2742-6.6522 9.1469-10.342 5.8727-3.6899 13.097-3.6899 11.486 0 17.722 7.3279 6.2885 7.3279 6.2885 20.736v5.0931h-36.743q0.57167 6.9641 4.6254 11.018 4.1057 4.0537 10.29 4.0537 8.6791 0 14.136-7.016l6.8082 6.4963q-3.3781 5.0412-9.043 7.8476-5.6128 2.7544-12.629 2.7544zm-1.5072-48.177q-5.1971 0-8.4193 3.638-3.1702 3.638-4.0537 10.134h24.062v-0.93547q-0.41579-6.3404-3.3782-9.5626-2.9623-3.2742-8.2114-3.2742z"/>
		<path d="m639.1 147.77 0.36375 6.4964q6.2365-7.5358 16.371-7.5358 17.566 0 17.878 20.113v37.159h-12.629v-36.432q0-5.353-2.3387-7.8996-2.2867-2.5985-7.5358-2.5985-7.6397 0-11.382 6.9121v40.017h-12.629v-56.232z"/>
		<path d="m695.36 190.7q3.5341 0 5.457 2.0269 1.9229 1.9749 1.9229 4.9892 0 2.9623-1.9229 4.9372-1.9229 1.9229-5.457 1.9229-3.3781 0-5.353-1.9229-1.9749-1.9229-1.9749-4.9372 0-3.0143 1.9229-4.9892 1.9229-2.0269 5.4049-2.0269z"/>
		<path d="m775.17 189.98 12.338-42.537h12.488l-18.956 56.56h-11.703l-18.882-56.56h12.451z"/>
		<path d="m748.07 156.89h-16.676v47.121h-11.217v-47.121h-16.451v-9.4396h44.343z"/>
	</g>
</svg>
