<svg xmlns="http://www.w3.org/2000/svg" width="600" height="450" ><path d="M0 450L75.003 0l225 225 225-225 74.995 450h-150l-21.427-128.57L300.001 450l-128.58-128.57L149.994 450z" fill="#d2d2d2"/><path d="M305.13 90.047c21.136-36.299 42.296-69.98 56.547-89.992h-94.174c-39.262 55.14-86.148 134.41-99.118 190.32a135.71 135.71 0 0 0-4.59 34.915c0 74.672 61.263 135.44 136.54 135.44s136.56-60.752 136.56-135.44c0-72.369-58.96-132.7-131.76-135.24zm54.377 135.24a59.4 59.4 0 1 1-59.392-59.227 59.369 59.369 0 0 1 59.392 59.227z" fill="#e61e1e"/></svg>