<svg xmlns="http://www.w3.org/2000/svg" width="800" height="400.362" ><path d="M0 52.618C0 23.624 20.403 0 53.334 0c34.721 0 53.155 24.877 53.155 53.871 0 32.036-23.446 51.545-52.976 51.545C21.477 105.416 0 83.581 0 52.619zm.358 96.642c0-4.832 2.685-8.412 8.233-8.412h89.845c4.832 0 7.875 3.758 7.875 8.412v137.81c0 23.446 13.423 50.829 54.766 50.829 40.269 0 61.03-25.056 61.03-76.064v-10.738l42.775 81.254 5.548 27.562s-41.88 40.448-117.77 40.448c-37.764 0-152.13-6.264-152.13-131.37v-119.73z" fill="#18adb7"/><path d="M546.772 248.061l-60.314-30.068s11.454 18.792 11.454 42.596c0 46.712-37.406 76.78-90.561 76.78-58.167 0-80.717-35.616-80.717-82.149v-53.871s14.676 5.548 28.994 5.548h54.766c5.369 0 7.338-3.579 7.338-8.233v-48.86c0-5.548-2.327-8.949-8.233-8.949h-82.686v-81.79c0-13.602-5.19-31.857-51.724-31.857-42.775 0-52.976 13.781-52.976 29.531v197.411c0 68.905 48.144 105.77 48.144 105.77s40.269 40.09 128.5 40.09c113.11 0 153.2-78.749 153.2-78.749z" fill="#cfd3e3"/><path d="M793.392 152.13l-45.817-14.139c-7.338-1.969-12.349-.358-14.139 5.906 0 0-27.025 91.993-69.442 169.131-66.757-122.78-92.888-161.08-92.888-161.08-6.443-10.738-15.571-16.108-25.951-16.108-15.571 0-34.721 7.696-40.09 11.096-24.698 15.392-31.857 25.593-32.036 39.553 0 9.486 3.221 14.318 7.517 22.372l71.232 112.4 34.363 51.903c10.917 16.287 21.835 26.846 52.976 26.846 38.658 0 50.471-14.497 61.925-31.499 0 0 59.598-91.277 97.72-202.061 3.043-10.023.179-12.349-5.369-14.318z" fill="#919da1"/></svg>