<svg xmlns="http://www.w3.org/2000/svg" width="596.421" height="450"  fill="#25bb28"><path d="M507.1 194.553c-10.62-3.224-21.809-5.12-33.187-5.689l10.051-43.049h72.633c5.879 0 11.378-1.707 16.119-4.931 7.965-5.31 12.706-14.413 12.706-23.895 0-15.93-12.896-28.825-28.825-28.825H453.053c-2.655 0-4.931.19-6.827.759-3.603.948-6.069 3.603-7.396 9.292l-2.845 12.137-9.861 41.342c-.19.569-.379 1.327-.379 1.896l-16.688 70.357c-3.034 12.706.19 19.154 7.586 21.619 2.086.948 4.931 1.327 8.723 1.327 2.655 0 5.5-.19 8.723-.379 9.103-.759 20.292-2.086 31.86-2.086 36.601 0 66.943 26.36 73.391 61.064.19.948.379 2.086.379 3.034.759 5.879.948 11.758.569 17.257-3.414 38.118-35.463 68.271-74.529 68.271-18.206 0-35.653-6.637-49.307-18.585-11.568-10.241-29.205-9.103-39.445 2.465s-9.103 29.205 2.465 39.445C403.367 438.432 434.088 450 465.759 450c72.064 0 130.663-58.599 130.663-130.663 0-63.53-37.359-109.044-89.321-124.784zM48.358 204.604c0 4.172 3.414 7.775 7.775 7.775h16.878c4.172 0 7.775-3.414 7.775-7.775V116.8h34.325l37.739 84.201c2.276 6.637 8.344 11.189 15.361 11.189a16.09 16.09 0 0 0 14.602-9.292c.19-.19.379-.379.379-.569l32.998-69.788v-.19c.759-1.896 1.138-3.793 1.138-5.879 0-8.534-7.017-15.551-15.551-15.551-5.879 0-11.378 3.414-13.844 8.534l-.19.19-18.774 37.739-28.257-61.064c-.948-2.465-2.465-4.551-4.551-6.069-1.517-1.138-3.224-1.896-5.31-2.276-.948-.19-1.896-.19-2.655-.19H14.413A14.41 14.41 0 0 0 0 102.198c0 3.793 1.517 7.586 4.172 10.241s6.448 4.172 10.241 4.172h33.566zm341.923 74.15H277.635l-.19-.19c9.482-7.775 19.154-14.792 29.015-21.998 23.705-17.068 48.169-34.894 69.978-63.53 24.084-31.67 33.946-70.357 26.929-106.009-5.879-30.532-23.705-56.134-49.876-71.684-26.36-15.74-59.547-19.533-89.131-10.62-28.257 8.723-50.065 27.877-63.15 55.754-6.637 14.223-.569 31.291 13.654 38.118 14.223 6.637 31.291.569 38.118-13.654 6.069-12.896 15.551-21.429 28.067-25.222 13.844-4.172 30.722-2.276 43.049 4.931 15.361 9.103 20.861 23.136 22.947 33.377 3.793 19.723-2.086 41.721-16.309 60.496-16.688 21.998-35.842 35.842-58.03 51.772-7.396 5.31-15.171 10.999-22.947 17.068h0c-.19.19-.379.19-.569.379-5.5 4.362-11.189 8.913-16.878 13.844-45.324 38.497-62.771 65.047-49.496 86.287 4.741 7.206 11.758 10.62 20.481 10.62h186.607c5.879 0 11.378-1.707 16.119-4.931 7.965-5.31 12.706-14.413 12.706-23.895.569-16.119-12.516-30.911-28.446-30.911z"/></svg>