<?xml version="1.0" encoding="UTF-8"?>
<svg width="800" height="126.65" version="1.1" xmlns="http://www.w3.org/2000/svg">
	<g>
		<path d="m54.372 4.5562c-27.335 0-49.81 22.172-49.81 49.203v19.134c0 27.031 22.172 49.203 49.81 49.203h691.27c27.335 0 49.81-21.868 49.81-49.203v-19.134c0-27.031-22.172-49.203-49.81-49.203z" fill="#fff"/>
		<path d="m588.91 57.155c-4.2521 0-7.8967 3.0372-8.8079 7.2893-0.30372 2.4298 0.30372 4.5558 1.5186 6.3781 1.2149 1.8223 3.3409 3.0372 5.7707 3.6446h1.5186c4.2521 0 7.8967-3.0372 8.8079-7.2893 0.91114-4.8595-2.4298-9.1116-7.2893-10.023h-1.5186" fill="#f82a5b"/>
		<path d="m558.54 25.872c-3.0372 0-5.7707 2.126-6.3781 5.1632-0.30373 1.5186 0 3.3409 1.2149 4.5558 0.91114 1.5186 2.4298 2.126 4.2521 2.4298h1.2149c3.0372 0 5.7707-2.126 6.3781-5.1632 0.60744-3.3409-1.8223-6.6819-5.1632-7.2893l-1.5186 0.30372" fill="#221f20"/>
		<path d="m604.1 68.338c-1.2149 7.2893-7.593 12.756-15.186 12.756-0.91115 0-1.8223 0-2.7335-0.30372h-0.60742l-6.0744 37.054h-525.13c-25.209 0-45.558-20.046-45.558-44.951v-19.134c0-24.905 20.349-44.951 45.558-44.951h543.66l-7.2893 41.913h0.30372c8.8079 1.5186 14.579 9.4153 13.06 17.616m141.53-68.337h-691.27c-29.765 0-54.366 24.298-54.366 53.759v19.134c0 29.461 24.298 53.759 54.366 53.759h691.27c30.068 0 54.366-23.994 54.366-53.759v-19.134c0-29.461-24.298-53.759-54.366-53.759" fill="#f62f5e"/>
	</g>
	<g fill="#221f20">
		<path d="m125.75 101.5h18.527l-50.721-41.61 64.692-38.572h-19.742l-55.581 33.105h-10.934l6.0744-33.105h-10.934l-14.579 80.182h10.934l6.6818-36.446h11.541z"/>
		<path d="m205.62 80.542v1.2149l-0.30372 1.2149c-0.60744 3.0372-1.8223 5.467-3.6446 6.6819-1.8223 1.5186-4.8595 2.126-8.8079 2.126h-27.639c-4.8595 0-6.9856-0.60744-7.8967-1.2149-1.2149-0.60744-1.8223-1.8223-1.8223-3.3409v-1.8223l0.91115-3.9484c0.60745-2.4298 1.5186-4.2521 3.0372-5.1632 1.2149-0.60744 3.6446-1.5186 9.4153-1.5186h27.639c8.2004-0.30372 9.1116 3.0372 9.1116 5.7707m10.023-33.106c-3.0372-2.7335-7.8967-3.9484-14.579-3.9484h-24.601c-6.6818 0-12.453 1.5186-16.705 4.5558-5.1632 3.3409-7.593 6.9856-7.2893 10.63l-0.91116 3.3409h11.541l0.60745-2.7335c0.60744-1.5186 1.2149-2.4298 2.126-3.0372 2.4298-2.126 6.3781-3.3409 11.845-3.3409h21.564c3.6446 0 6.6818 0.60744 8.2005 2.126 1.5186 1.2149 2.126 3.0372 2.126 5.467v2.126l-0.91115 4.5558c-1.8223-1.5186-4.8595-2.126-8.8079-2.126h-32.498c-6.0744 0-11.238 1.2149-14.882 3.9484-3.3409 2.4298-5.467 5.7707-6.3781 10.023l-1.2149 6.6819c-0.30372 1.2149-0.30372 2.4298-0.30372 3.3409 0 4.2521 1.5186 7.593 4.8595 9.4153 3.0372 1.8223 7.2893 2.7335 13.06 2.7335h31.587c3.0372 0 6.0744-0.91115 8.5042-2.4298l-0.30372 2.4298h10.934l6.6819-36.75c0-0.30372 0.30371-1.2149 0.60744-2.4298v-3.0372c0-4.8595-1.5186-8.8079-4.8595-11.541"/>
		<path d="m295.82 43.791-6.3781 35.839c-0.91116 3.9484-2.7335 6.9856-6.3781 9.4153-3.3409 2.126-6.9856 3.3409-10.934 3.3409h-21.868c-3.9484 0-7.2893-0.91116-9.4153-2.4298-2.126-1.5186-3.0372-3.9484-3.0372-6.9856 0-0.91116 0-2.126 0.30369-3.3409l6.3781-35.535h-10.934l-6.3781 34.624c-0.30372 2.126-0.60744 4.2521-0.60744 5.7707 0 5.7707 1.8223 10.326 5.467 13.06 3.6446 3.0372 9.1116 4.5558 16.705 4.5558h21.868c4.8595 0 9.7191-1.2149 13.667-3.6446 0.60744-0.30372 1.2149-0.60744 1.8223-1.2149l-0.91114 4.8595h10.63l10.63-58.011-10.63-0.30372"/>
		<path d="m345.94 30.731h12.756l1.8223-9.7191h-13.364c-6.9856 0-12.453 1.8223-16.705 5.467-4.2521 3.6446-6.9856 9.1116-8.5042 16.401v0.30372h-6.9856l-1.8223 9.4153h6.9856l-8.8079 48.899h10.934l8.8079-48.899h23.994l1.8223-9.4153h-23.994c0.91117-4.2521 2.4298-7.2893 4.2521-9.4153 2.126-1.8223 4.8595-3.0372 8.8079-3.0372"/>
	</g>
	<path d="m673.65 83.883c-0.91117 5.467-3.0372 9.1116-5.467 10.63-2.7335 1.8223-6.6818 2.7335-11.845 2.7335h-10.934c-2.7335 0-4.5558-0.60744-5.7707-1.8223-1.5186-1.2149-2.126-3.0372-2.126-6.0744 0-0.91116 0-1.8223 0.30372-3.0372l4.8595-27.639h41.913l1.8223-10.326h-41.913l4.8595-24.905h-11.845l-4.8595 24.905h-6.9856l-1.8223 10.326h6.9856l-4.5558 25.816c-0.3037 1.5186-0.3037 2.7335-0.60742 3.0372v2.7335c0 5.467 1.5186 9.7191 4.8595 12.756 3.3409 2.7335 7.8967 4.2521 13.667 4.2521h11.541c9.7191 0 17.616-2.7335 22.779-8.5042 3.3409-3.6446 5.467-8.2005 6.3781-13.667l0.60744-1.2149 0.60742-2.126h-11.845z" fill="#fefefe"/>
	<path d="m752.62 49.258-33.409 45.558-16.705-45.558h-12.756l22.172 58.314h10.63l43.432-58.314h-3.3409z" fill="#fefefe"/>
	<g fill="#221f20">
		<path d="m435.23 91.17c-2.7335 2.126-6.9856 3.3409-11.845 3.3409h-53.759l4.5558-26.12h53.455c4.5558 0 7.8967 0.60744 10.326 2.126 2.126 1.2149 3.0372 3.6446 3.0372 6.6819 0 0.91116 0 2.126-0.30371 3.3409-0.91117 4.8595-2.7335 8.5042-5.467 10.63m-7.2893-33.409h-51.632l3.9484-22.475h51.936c4.5558 0 7.8967 0.60744 9.7191 2.126 1.8223 1.2149 2.7335 3.3409 2.7335 6.0744 0 0.91116 0 2.126-0.30371 3.3409-0.60745 4.2521-2.4298 7.2893-5.1632 8.8079-2.126 1.5186-6.0744 2.126-11.238 2.126m27.942-11.541c0.30373-1.5186 0.60745-3.0372 0.60745-4.8595 0-10.934-8.5042-16.705-25.513-16.705h-59.226l-14.579 80.182h61.959c9.719 0 17.008-1.8223 22.172-5.1632 5.7707-3.6446 9.4154-10.023 10.934-18.831 0-0.30372 0.30372-0.91116 0.60744-2.126v-2.7335c0-4.5558-1.5186-8.5042-4.2521-11.238-0.91116-0.91116-1.8223-1.5186-2.7335-2.126 1.5186-0.91116 3.0372-2.126 4.5558-3.3409 2.126-3.0372 4.2521-7.593 5.467-13.06"/>
		<path d="m488.69 56.244h25.513c3.6446 0 6.3781 0.91116 8.5042 2.7335 1.8223 1.8223 2.7335 4.2521 2.7335 7.2893v2.126h-51.936c0.91114-3.3409 2.7335-6.3781 5.1632-8.5042 2.7335-2.4298 6.0744-3.6446 10.023-3.6446m42.521-4.2521c-3.9484-3.3409-9.4153-4.8595-16.705-4.8595h-23.386c-7.593 0-14.275 2.126-19.438 6.6819-4.8595 3.9484-7.8967 9.1116-9.1116 14.882l-2.7335 14.579c-0.30372 2.126-0.60744 3.9484-0.60744 5.467 0 11.238 7.593 16.705 22.172 16.705h27.335c7.2893 0 13.06-2.126 17.616-6.0744 3.6446-3.3409 5.7707-7.2893 6.6818-11.845l0.30373-2.7335h-10.934v2.126c-0.60742 2.4298-1.8223 4.5558-4.2521 6.3781-2.126 1.8223-5.467 2.4298-9.4153 2.4298h-26.727c-3.6446 0-6.6818-0.91116-8.8079-2.4298-2.126-1.5186-3.0372-3.9484-3.0372-7.2893v-2.126c0-0.60744 0.30372-1.2149 0.30372-2.126l0.91116-4.2521h62.87l1.8223-10.023c0.30372-1.2149 0.30372-2.4298 0.30372-3.6446 0.30372-4.5558-1.5186-8.8079-5.1632-11.845"/>
		<path d="m562.49 47.132h-10.934l-10.63 57.707h10.934z"/>
	</g>
</svg>
