<?xml version="1.0" encoding="utf-8"?>
<!-- Generator: Adobe Illustrator 19.2.1, SVG Export Plug-In . SVG Version: 6.00 Build 0)  -->
<svg version="1.1" id="Layer_1" xmlns="http://www.w3.org/2000/svg" xmlns:xlink="http://www.w3.org/1999/xlink" x="0px" y="0px"
	 viewBox="0 0 264 43" style="enable-background:new 0 0 264 43;" xml:space="preserve">
<style type="text/css">
	.st0{fill:#FFFFFF;}
	.st1{fill:#F82A5B;}
	.st2{fill:#221F20;}
	.st3{fill:#F62F5E;}
	.st4{fill:#FEFEFE;}
</style>
<g id="Group-7_1_" transform="translate(0.000000, 0.182007)">
	<g id="Fill-5_1_">
		<path class="st0" d="M18.2,1.7C9.2,1.7,1.8,9,1.8,17.9v6.3c0,8.9,7.3,16.2,16.4,16.2h227.6c9,0,16.4-7.2,16.4-16.2v-6.3
			c0-8.9-7.3-16.2-16.4-16.2H18.2z"/>
	</g>
</g>
<title>logo</title>
<desc>Created with Sketch.</desc>
<g id="Page-1">
	<g id="Homepage-_x3E_-1920" transform="translate(-390.000000, -68.000000)">
		<g id="logo" transform="translate(390.000000, 68.000000)">
			<path id="Fill-1" class="st1" d="M194.2,19.2c-1.4,0-2.6,1-2.9,2.4c-0.1,0.8,0.1,1.5,0.5,2.1c0.4,0.6,1.1,1,1.9,1.2l0.5,0
				c1.4,0,2.6-1,2.9-2.4c0.3-1.6-0.8-3-2.4-3.3L194.2,19.2"/>
			<path id="Fill-3" class="st2" d="M184.2,8.9c-1,0-1.9,0.7-2.1,1.7c-0.1,0.5,0,1.1,0.4,1.5c0.3,0.5,0.8,0.7,1.4,0.8l0.4,0
				c1,0,1.9-0.7,2.1-1.7c0.2-1.1-0.6-2.2-1.7-2.4L184.2,8.9"/>
			<g id="Group-7" transform="translate(0.000000, 0.182007)">
				<path id="Fill-5" class="st3" d="M199.2,22.7c-0.4,2.4-2.5,4.2-5,4.2c-0.3,0-0.6,0-0.9-0.1l-0.2,0L191.1,39H18.2
					c-8.3,0-15-6.6-15-14.8v-6.3c0-8.2,6.7-14.8,15-14.8h179l-2.4,13.8l0.1,0C197.8,17.4,199.7,20,199.2,22.7 M245.8,0.2H18.2
					C8.4,0.2,0.3,8.2,0.3,17.9v6.3c0,9.7,8,17.7,17.9,17.7h227.6c9.9,0,17.9-7.9,17.9-17.7v-6.3C263.7,8.2,255.7,0.2,245.8,0.2"/>
			</g>
			<polygon id="Fill-8" class="st2" points="52.4,7.4 45.9,7.4 27.6,18.3 24,18.3 26,7.4 22.4,7.4 17.6,33.8 21.2,33.8 23.4,21.8 
				27.2,21.8 41.7,33.8 47.8,33.8 31.1,20.1 			"/>
			<path id="Fill-10" class="st2" d="M68,26.9v0.4l-0.1,0.4c-0.2,1-0.6,1.8-1.2,2.2c-0.6,0.5-1.6,0.7-2.9,0.7h-9.1
				c-1.6,0-2.3-0.2-2.6-0.4c-0.4-0.2-0.6-0.6-0.6-1.1l0-0.6l0.3-1.3c0.2-0.8,0.5-1.4,1-1.7c0.4-0.2,1.2-0.5,3.1-0.5H65
				C67.7,24.9,68,26,68,26.9 M71.3,16c-1-0.9-2.6-1.3-4.8-1.3h-8.1c-2.2,0-4.1,0.5-5.5,1.5c-1.7,1.1-2.5,2.3-2.4,3.5l-0.3,1.1H54
				l0.2-0.9c0.2-0.5,0.4-0.8,0.7-1c0.8-0.7,2.1-1.1,3.9-1.1h7.1c1.2,0,2.2,0.2,2.7,0.7c0.5,0.4,0.7,1,0.7,1.8l0,0.7L69,22.5
				c-0.6-0.5-1.6-0.7-2.9-0.7H55.4c-2,0-3.7,0.4-4.9,1.3c-1.1,0.8-1.8,1.9-2.1,3.3L48,28.6c-0.1,0.4-0.1,0.8-0.1,1.1
				c0,1.4,0.5,2.5,1.6,3.1c1,0.6,2.4,0.9,4.3,0.9h10.4c1,0,2-0.3,2.8-0.8l0,0l-0.1,0.8h3.6l2.2-12.1c0-0.1,0.1-0.4,0.2-0.8v-1
				C72.9,18.2,72.4,16.9,71.3,16"/>
			<path id="Fill-12" class="st2" d="M97.7,14.8l-2.1,11.8c-0.3,1.3-0.9,2.3-2.1,3.1c-1.1,0.7-2.3,1.1-3.6,1.1h-7.2
				c-1.3,0-2.4-0.3-3.1-0.8c-0.7-0.5-1-1.3-1-2.3c0-0.3,0-0.7,0.1-1.1l2.1-11.7h-3.6l-2.1,11.4c-0.1,0.7-0.2,1.4-0.2,1.9
				c0,1.9,0.6,3.4,1.8,4.3c1.2,1,3,1.5,5.5,1.5h7.2c1.6,0,3.2-0.4,4.5-1.2c0.2-0.1,0.4-0.2,0.6-0.4l-0.3,1.6h3.5l3.5-19.1H97.7"/>
			<path id="Fill-14" class="st2" d="M114.2,10.5h4.2l0.6-3.2h-4.4c-2.3,0-4.1,0.6-5.5,1.8c-1.4,1.2-2.3,3-2.8,5.4l0,0.1H104
				l-0.6,3.1h2.3l-2.9,16.1h3.6l2.9-16.1h7.9l0.6-3.1h-7.9c0.3-1.4,0.8-2.4,1.4-3.1C112,10.9,112.9,10.5,114.2,10.5"/>
			<path id="Fill-16" class="st4" d="M222.1,28L222.1,28c-0.3,1.8-1,3-1.8,3.5c-0.9,0.6-2.2,0.9-3.9,0.9h-3.6
				c-0.9,0-1.5-0.2-1.9-0.6c-0.5-0.4-0.7-1-0.7-2c0-0.3,0-0.6,0.1-1l1.6-9.1h13.8l0.6-3.4h-13.8l1.6-8.2h-3.9l-1.6,8.2h-2.3
				l-0.6,3.4h2.3l-1.5,8.5v0c-0.1,0.5-0.1,0.9-0.2,1v0c0,0.2,0,0.5,0,0.9c0,1.8,0.5,3.2,1.6,4.2c1.1,0.9,2.6,1.4,4.5,1.4h3.8
				c3.2,0,5.8-0.9,7.5-2.8c1.1-1.2,1.8-2.7,2.1-4.5l0,0L226,28l0.2-0.7h-3.9L222.1,28z"/>
			<polygon id="Fill-18" class="st4" points="251.4,16.6 248.1,16.6 237.1,31.6 231.6,16.6 227.4,16.6 234.7,35.8 238.2,35.8 
				252.5,16.6 			"/>
			<path id="Fill-20" class="st2" d="M143.6,30.4c-0.9,0.7-2.3,1.1-3.9,1.1H122l1.5-8.6h17.6c1.5,0,2.6,0.2,3.4,0.7
				c0.7,0.4,1,1.2,1,2.2c0,0.3,0,0.7-0.1,1.1C145.1,28.5,144.5,29.7,143.6,30.4 M141.2,19.4h-17l1.3-7.4h17.1c1.5,0,2.6,0.2,3.2,0.7
				c0.6,0.4,0.9,1.1,0.9,2c0,0.3,0,0.7-0.1,1.1c-0.2,1.4-0.8,2.4-1.7,2.9C144.2,19.2,142.9,19.4,141.2,19.4 M150.4,15.6
				c0.1-0.5,0.2-1,0.2-1.6c0-3.6-2.8-5.5-8.4-5.5h-19.5l-4.8,26.4h20.4c3.2,0,5.6-0.6,7.3-1.7c1.9-1.2,3.1-3.3,3.6-6.2
				c0-0.1,0.1-0.3,0.2-0.7v-0.9c0-1.5-0.5-2.8-1.4-3.7c-0.3-0.3-0.6-0.5-0.9-0.7c0.5-0.3,1-0.7,1.5-1.1
				C149.3,18.9,150,17.4,150.4,15.6"/>
			<path id="Fill-22" class="st2" d="M161.2,18.9h8.4c1.2,0,2.1,0.3,2.8,0.9c0.6,0.6,0.9,1.4,0.9,2.4c0,0.2,0,0.5,0,0.7h-17.1
				c0.3-1.1,0.9-2.1,1.7-2.8C158.8,19.3,159.9,18.9,161.2,18.9 M175.2,17.5c-1.3-1.1-3.1-1.6-5.5-1.6H162c-2.5,0-4.7,0.7-6.4,2.2
				c-1.6,1.3-2.6,3-3,4.9l-0.9,4.8c-0.1,0.7-0.2,1.3-0.2,1.8c0,3.7,2.5,5.5,7.3,5.5h9c2.4,0,4.3-0.7,5.8-2c1.2-1.1,1.9-2.4,2.2-3.9
				l0.1-0.9h-3.6l0,0.7c-0.2,0.8-0.6,1.5-1.4,2.1c-0.7,0.6-1.8,0.8-3.1,0.8H159c-1.2,0-2.2-0.3-2.9-0.8c-0.7-0.5-1-1.3-1-2.4
				c0-0.2,0-0.4,0-0.7c0-0.2,0.1-0.4,0.1-0.7l0.3-1.4h20.7l0.6-3.3c0.1-0.4,0.1-0.8,0.1-1.2C177,19.9,176.4,18.5,175.2,17.5"/>
			<polygon id="Fill-24" class="st2" points="181.9,15.9 178.4,34.9 182,34.9 185.5,15.9 			"/>
		</g>
	</g>
</g>
</svg>
