<?xml version="1.0" encoding="UTF-8"?>
<svg width="800" height="396.17" version="1.1" xmlns="http://www.w3.org/2000/svg">
 <path d="M772.905 0H634.303L567.45 53.775V26.922C567.407 12.271 555.473.215 540.832 0h-36.598c-5.6 0-10.923 1.617-15.394 4.71l-61.769 53.238v-31C427.031 12.067 414.877 0 399.982 0H259.605c-8.968 0-17.264 4.409-22.244 10.864C232.48 4.383 224.778.127 216.132 0h-36.597c-5.542 0-10.865 1.642-15.395 4.778L102.398 58.01V0H27.086C12.19 0 .037 12.103-.001 26.999v224.298c.038 14.924 12.191 27.046 27.087 27.046h75.312v-58.107l61.438 53.127c4.407 3.177 10.162 4.98 15.7 4.98h36.655c8.817-.148 16.648-4.609 21.496-11.331 4.934 6.857 12.961 11.331 22.011 11.331h26.829c4.172-.586 8.543-2.118 11.546-4.234 1.562-1.11 16.265-12.932 26.627-21.288v25.522h75.284c14.895 0 27.049-12.158 27.089-27.096v-31.004l61.769 53.238c4.594 3.179 9.916 4.862 15.394 4.862h36.657c8.78-.148 16.583-4.597 21.421-11.31 4.92 6.844 12.925 11.31 21.958 11.31h75.294v-82.525h38.048v82.525h75.296c14.893 0 27.044-12.138 27.088-27.055V26.989c-.045-14.904-12.197-26.99-27.089-26.99zM159.93 139.154l72.617-58.47v116.948zm324.693-.056l72.586-58.483v116.958zm212.983-25.746h-38.048V77.175h38.048zM45.521 329.764l-15.582 62.684c-.379 1.658-1.245 2.484-2.599 2.484H17.284c-1.429 0-2.334-.826-2.71-2.484L.227 329.764c-.225-1.13-.037-2.05.566-2.765s1.473-1.076 2.605-1.076h7.475c.606 0 1.247.264 1.926.789s1.059 1.088 1.134 1.687l7.915 39.64c.15.913.452 1.368.906 1.368.302 0 .567-.448.792-1.345l8.923-39.642c.375-1.662 1.388-2.497 3.038-2.497h6.975c2.1 0 3.153.98 3.153 2.937a3.67 3.67 0 0 1-.114.904zm52.405 47.993c0 5.121-1.805 9.472-5.421 13.046s-7.945 5.365-12.988 5.365h-4.855c-5.122 0-9.47-1.787-13.047-5.365s-5.365-7.924-5.365-13.046v-34.899c0-5.045 1.788-9.335 5.365-12.879 3.577-3.537 7.925-5.307 13.047-5.307h4.855c5.121 0 9.469 1.771 13.045 5.307 3.576 3.543 5.365 7.833 5.365 12.879v34.899zm-13.553-.212V343.52a5.84 5.84 0 0 0-1.692-4.224c-1.13-1.165-2.485-1.747-4.066-1.747h-2.597a5.96 5.96 0 0 0-4.293 1.747c-1.205 1.165-1.806 2.572-1.806 4.224v34.024c0 1.578.621 2.988 1.862 4.226s2.655 1.859 4.237 1.859h2.597c1.581 0 2.937-.599 4.066-1.8 1.108-1.148 1.716-2.689 1.692-4.284zm69.944 14.22c0 2.108-1.008 3.161-3.024 3.161h-7.956c-2.093 0-3.138-1.053-3.138-3.161v-48.567c0-3.916-1.593-5.873-4.78-5.873-2.203 0-4.404.791-6.603 2.373s-3.3 3.163-3.3 4.744v47.324c0 2.108-1.057 3.161-3.163 3.161h-8.019c-2.109 0-3.162-1.053-3.162-3.161V329.08c0-2.105 1.053-3.162 3.162-3.162h8.019c2.107 0 3.163 1.057 3.163 3.162v1.467c0 .832.226 1.244.677 1.244.526 0 1.204-.453 2.032-1.355 3.69-3.839 8.207-5.76 13.555-5.76 3.687 0 6.699 1.225 9.035 3.671s3.499 5.592 3.499 9.431v53.988zm100.859-.109c.226.83.056 1.582-.514 2.258a2.76 2.76 0 0 1-2.217 1.016h-10.243c-1.516 0-2.503-1.082-2.958-3.249l-2.722-13.348c-.378-1.959-1.355-2.939-2.934-2.939h-13.775c-1.88 0-2.972.98-3.274 2.936l-2.37 13.327c-.452 2.185-1.544 3.274-3.273 3.274h-10.048c-.828 0-1.506-.338-2.031-1.016-.516-.631-.723-1.459-.565-2.258l16.604-83.917c.45-2.108 1.502-3.165 3.161-3.165h16.152c1.654 0 2.711 1.057 3.163 3.165zm-22.815-34.446l-5.309-29.593c-.303-1.581-.715-2.373-1.244-2.373s-.902.792-1.128 2.373l-4.857 29.593c-.377 2.182.452 3.273 2.484 3.273h7.342a2.68 2.68 0 0 0 2.09-.959c.566-.639.77-1.412.621-2.314zm86.522 34.663c.152.304.228.565.228.791 0 1.507-.826 2.258-2.477 2.258h-9.8c-1.278 0-2.291-1.018-3.04-3.065l-11.551-32.856c-.529-1.501-1.282-2.255-2.261-2.255h-4.979c-1.882 0-2.825 1.018-2.825 3.053v32.074c0 .755-.303 1.453-.904 2.09s-1.318.959-2.146.959h-9.262c-1.883 0-2.823-1.016-2.823-3.049v-84.37c0-1.956.94-2.938 2.823-2.938h23.153c6.776 0 12.498 2.149 17.167 6.441 4.744 4.516 7.117 10.24 7.117 17.164v4.408c0 8.961-3.805 15.776-11.407 20.443-.379.227-.415.755-.114 1.579zm-16.262-57.263v-7.229c0-2.485-.885-4.589-2.654-6.323s-3.936-2.598-6.495-2.598h-8.696c-1.733 0-2.598 1.017-2.598 3.049v18.976c0 1.958.941 2.937 2.823 2.937h8.47c2.559 0 4.724-.846 6.495-2.543s2.655-3.782 2.655-6.268zm79.378 35.126c0 6.927-2.447 12.859-7.341 17.789s-10.842 7.396-17.844 7.396h-22.477c-.829 0-1.563-.319-2.201-.959-.627-.606-.975-1.445-.96-2.316V307.73c0-2.108 1.053-3.165 3.162-3.165h22.477c7.002 0 12.95 2.471 17.844 7.401S382 322.828 382 329.754v39.982zm-15.584-1.24v-37.163c0-3.462-1.278-6.437-3.83-8.923s-5.582-3.726-9.083-3.726h-3.427c-2.211 0-3.316 1.056-3.316 3.164v55.907c0 .904.342 1.677 1.028 2.316s1.448.96 2.288.96h3.427c3.5 0 6.531-1.224 9.083-3.669s3.83-5.407 3.83-8.867zm104.93 23.268c0 2.108-1.057 3.161-3.164 3.161h-8.017c-1.282 0-2.299-.903-3.051-2.709s-1.656-2.712-2.712-2.712c-.752 0-2.241 1.114-4.461 3.334s-4.385 3.33-6.493 3.33h-4.179c-2.711 0-5.196-1.317-7.456-3.953s-3.389-5.423-3.389-8.36v-54.778c0-2.105 1.056-3.162 3.163-3.162h8.02c2.107 0 3.164 1.057 3.164 3.162v46.082c0 4.443 2.085 6.665 6.261 6.665 1.821 0 3.642-.716 5.462-2.147s2.735-3.013 2.735-4.742v-45.858c0-2.105 1.045-3.162 3.137-3.162h7.844c2.089 0 3.137 1.057 3.137 3.162v62.686zm56.684 0c0 2.108-1.009 3.161-3.025 3.161h-7.956c-2.091 0-3.135-1.053-3.135-3.161v-48.567c0-3.916-1.593-5.873-4.781-5.873-2.202 0-4.404.791-6.605 2.373s-3.301 3.163-3.301 4.744v47.324c0 2.108-1.057 3.161-3.16 3.161h-8.02c-2.111 0-3.164-1.053-3.164-3.161V329.08c0-2.105 1.053-3.162 3.164-3.162h8.02c2.103 0 3.16 1.057 3.16 3.162v1.467c0 .832.226 1.244.679 1.244.525 0 1.205-.453 2.033-1.355 3.688-3.839 8.207-5.76 13.552-5.76 3.689 0 6.701 1.225 9.036 3.671s3.501 5.592 3.501 9.431zm57.147 0c0 2.108-1.055 3.161-3.164 3.161h-8.018c-2.109 0-3.164-1.053-3.164-3.161 0-.752-.267-1.13-.792-1.13s-1.129.378-1.806 1.13c-1.656 1.58-3.01 2.672-4.063 3.274-1.582.752-3.656 1.131-6.211 1.131h-3.39c-3.616 0-6.703-1.355-9.262-4.066s-3.841-5.875-3.841-9.488v-44.838c0-3.614 1.28-6.701 3.841-9.262s5.646-3.84 9.262-3.84h3.39c3.312 0 5.72.453 7.226 1.356.301.225 1.317 1.319 3.048 3.275.678.751 1.244 1.129 1.695 1.129.6 0 .904-.601.904-1.806v-22.137c0-2.107 1.055-3.162 3.164-3.162h8.018c2.109 0 3.164 1.055 3.164 3.162zm-14.346-14.341v-33.999c0-.83-.592-1.901-1.765-3.22s-2.408-1.978-3.696-1.978h-4.098c-1.517 0-2.806.492-3.867 1.47s-1.596 2.222-1.596 3.727v33.999c0 1.503.532 2.782 1.596 3.836s2.35 1.583 3.867 1.583h4.098c1.288 0 2.522-.716 3.696-2.149s1.765-2.521 1.765-3.27zm108.989 14.449c0 2.032-1.014 3.049-3.047 3.049h-43.595c-1.884 0-2.824-1.016-2.824-3.049v-6.099c0-1.654.186-2.896.564-3.726l30.834-62.006c.15-.228.225-.413.225-.565 0-.829-.526-1.243-1.58-1.243h-24.621c-2.034 0-3.052-.941-3.052-2.822v-7.909c0-1.956 1.018-2.938 3.052-2.938h40.772c2.033 0 3.049.984 3.049 2.943v6.227c0 1.586-.207 2.796-.62 3.624l-30.619 61.322c-.602 1.266-.264 1.896 1.014 1.896h27.406c2.029 0 3.041.905 3.041 2.713v8.583zm63.195-22.137c0 6.927-2.447 12.859-7.34 17.789s-10.842 7.396-17.847 7.396h-22.475c-.829 0-1.562-.319-2.202-.959-.627-.606-.974-1.445-.959-2.316V307.73c0-2.108 1.053-3.165 3.161-3.165h22.475c7.005 0 12.952 2.471 17.847 7.401s7.34 10.862 7.34 17.788zm-15.586-1.24v-37.163c0-3.462-1.276-6.437-3.828-8.923s-5.582-3.726-9.083-3.726h-3.428c-2.209 0-3.314 1.056-3.314 3.164v55.907c0 .904.343 1.677 1.028 2.316s1.446.96 2.286.96h3.428c3.501 0 6.532-1.224 9.083-3.669s3.828-5.407 3.828-8.867zm72.378-52.859c0 .905-.339 1.679-1.018 2.318s-1.43.959-2.259.959h-21.573c-.827 0-1.58.32-2.259.961s-1.014 1.375-1.014 2.202v15.361c0 2.033 1.09 3.05 3.273 3.05h16.493c.825 0 1.581.32 2.257.958s1.014 1.376 1.014 2.204v7.68c0 .907-.32 1.677-.959 2.314-.605.626-1.443.974-2.313.96h-16.718c-2.034 0-3.048 1.055-3.048 3.165v33.883c0 2.185-1.056 3.274-3.164 3.274h-9.149c-.901 0-1.677-.319-2.315-.959a3.16 3.16 0 0 1-.961-2.316v-83.917c0-.829.339-1.563 1.016-2.202s1.429-.963 2.259-.963h37.159c2.184 0 3.277 1.057 3.277 3.165v7.904z" fill="#008d96"/>
 <path d="M232.535 251.318V210.8l-88.967-71.645 88.967-71.634V26.988c-.026-9.09-7.456-16.609-16.56-16.745H179.53c-3.447 0-6.75 1.026-9.557 2.969l-77.837 67.21V10.244H27.082c-9.254 0-16.803 7.528-16.829 16.783v224.269c.026 9.242 7.574 16.787 16.829 16.787h65.054v-70.181l77.837 67.209a16.73 16.73 0 0 0 9.557 2.972h36.483c9.087-.15 16.496-7.677 16.522-16.761zm92.158-11.67V93.943c-.025-9.24-7.572-16.771-16.825-16.771h-65.061V251.08c0 9.362 7.57 16.997 16.889 16.997h25.987c2.542-.357 4.83-1.201 6.465-2.355 1.736-1.226 19.739-15.72 32.544-26.076zM259.605 10.241c-9.449 0-16.775 7.54-16.798 14.026v42.659h81.886V10.244zm297.594 241.008v-40.516l-88.932-71.636 88.932-71.646V26.919c-.027-9.089-7.388-16.544-16.488-16.681H504.23c-3.45 0-6.752.963-9.557 2.905l-77.871 67.209v-53.41c-.021-9.237-7.572-16.704-16.826-16.704h-65.039v257.839h65.039c9.253 0 16.805-7.61 16.826-16.864v-53.331l77.871 67.156c2.794 1.935 6.097 3.037 9.557 3.037h36.481c9.088-.152 16.462-7.739 16.488-16.824zm150.657-127.652h-58.555V66.923h58.555zm81.876-96.611c-.023-9.237-7.572-16.747-16.827-16.747H637.914l-70.469 56.684v184.345c.025 9.237 7.569 16.804 16.821 16.804H649.3V185.55h58.555v82.523h65.049c9.254 0 16.803-7.567 16.827-16.824V26.981z" fill="#ffea19"/>
</svg>
