<?xml version="1.0" encoding="UTF-8"?>
<svg width="800" height="296.17" version="1.1" xmlns="http://www.w3.org/2000/svg">
 <path d="M613.59 133.71h168.93c10.507 0 17.48-8.849 17.48-17.475v-83.45L758.533.002h-123.59c-12.122 0-21.359 9.665-21.359 21.359z" fill="#008d96"/>
 <path d="M644.63 20.116c-3.202 0-5.795 2.593-5.795 5.795v82.584c0 3.202 2.593 5.795 5.795 5.795h18.477V79.095h15.533v35.195h18.477c3.202 0 5.795-2.593 5.795-5.795V25.911c0-3.202-2.593-5.795-5.795-5.795H678.64v34.951h-15.533V20.116zm67.991 0v94.175h40.776l22.331-18.447V38.562l-22.331-18.447zm21.359 23.301h13.592l6.796 6.796v33.98l-6.796 6.796H733.98V43.417z" fill="#ffea19"/>
 <path d="M577.809.001H474.193l-49.978 40.201V20.127C424.183 9.174 415.261.162 404.316.001h-27.36c-4.187 0-8.166 1.209-11.508 3.521l-46.177 39.8V20.147C319.24 9.022 310.155.001 299.019.001H194.076c-6.704 0-12.906 3.296-16.629 8.122-3.648-4.845-9.407-8.027-15.87-8.122h-27.359c-4.143 0-8.123 1.227-11.509 3.572L76.551 43.368V.001H20.25C9.114.001.029 9.049 0 20.185v167.681c.029 11.157 9.114 20.219 20.25 20.219h56.301v-43.44l45.93 39.717c3.294 2.375 7.597 3.723 11.737 3.723h27.403c6.592-.111 12.446-3.446 16.07-8.471 3.689 5.126 9.689 8.471 16.455 8.471h20.057c3.119-.438 6.387-1.583 8.631-3.165 1.167-.83 12.16-9.668 19.906-15.915v19.08h56.281c11.135 0 20.221-9.089 20.251-20.256V164.65l46.177 39.8c3.434 2.377 7.413 3.635 11.508 3.635h27.404c6.564-.111 12.397-3.437 16.014-8.455 3.678 5.117 9.662 8.455 16.416 8.455h56.288v-61.694h28.444v61.694h56.29c11.134 0 20.217-9.074 20.25-20.226V20.178C598.028 9.036 588.944 0 577.811 0zM119.561 104.03l54.287-43.711v87.428zm242.734-.042l54.264-43.721v87.436zM521.517 84.74h-28.444V57.695h28.444zM34.028 246.529L22.38 293.39c-.283 1.24-.931 1.857-1.943 1.857h-7.517c-1.069 0-1.745-.617-2.026-1.857L.167 246.529c-.168-.844-.028-1.532.423-2.067s1.101-.805 1.948-.805h5.588c.453 0 .932.198 1.44.59s.791.813.848 1.261l5.917 29.634c.112.682.338 1.023.677 1.023.226 0 .424-.335.592-1.005l6.671-29.636c.28-1.243 1.038-1.867 2.271-1.867h5.215c1.57 0 2.357.732 2.357 2.195 0 .228-.029.455-.086.676zm39.177 35.878c0 3.828-1.35 7.081-4.052 9.753s-5.94 4.01-9.71 4.01h-3.629c-3.829 0-7.08-1.336-9.754-4.01s-4.01-5.924-4.01-9.753v-26.09c0-3.771 1.336-6.979 4.01-9.628 2.674-2.644 5.925-3.968 9.754-3.968h3.629c3.828 0 7.079 1.324 9.752 3.968 2.673 2.649 4.01 5.856 4.01 9.628v26.09zm-10.132-.159v-25.436c0-1.235-.42-2.287-1.265-3.158a4.08 4.08 0 0 0-3.04-1.306h-1.942c-1.202-.016-2.36.455-3.21 1.306-.9.871-1.35 1.923-1.35 3.158v25.436c0 1.18.464 2.234 1.392 3.159s1.985 1.389 3.167 1.389h1.942c1.182 0 2.195-.448 3.04-1.346.828-.859 1.283-2.01 1.265-3.203zm52.289 10.631c0 1.576-.754 2.363-2.26 2.363h-5.948c-1.565 0-2.346-.787-2.346-2.363v-36.308c0-2.928-1.191-4.39-3.573-4.39-1.647 0-3.292.591-4.936 1.774s-2.467 2.364-2.467 3.547v35.378c0 1.576-.79 2.363-2.364 2.363h-5.995c-1.577 0-2.364-.787-2.364-2.363v-46.862c0-1.574.787-2.364 2.364-2.364h5.995c1.575 0 2.364.79 2.364 2.364v1.097c0 .622.169.93.506.93.393 0 .9-.339 1.519-1.013 2.759-2.87 6.135-4.306 10.134-4.306 2.756 0 5.008.916 6.755 2.744s2.616 4.181 2.616 7.05v40.36zm75.4-.081a1.76 1.76 0 0 1-.384 1.688c-.405.497-1.017.777-1.657.76h-7.657c-1.134 0-1.871-.809-2.212-2.429l-2.035-9.979c-.282-1.465-1.013-2.197-2.193-2.197h-10.298c-1.406 0-2.222.732-2.448 2.195l-1.771 9.963c-.338 1.634-1.154 2.448-2.447 2.448h-7.512c-.619 0-1.126-.253-1.518-.76-.385-.472-.54-1.091-.423-1.688l12.413-62.734c.336-1.576 1.123-2.366 2.363-2.366h12.075c1.237 0 2.027.79 2.364 2.366zm-17.056-25.751l-3.969-22.123c-.226-1.182-.535-1.774-.93-1.774s-.674.592-.843 1.774l-3.631 22.123c-.282 1.631.338 2.447 1.857 2.447h5.489c.619 0 1.139-.239 1.563-.717s.576-1.055.465-1.73zm64.682 25.914c.114.227.17.423.17.591 0 1.127-.617 1.688-1.852 1.688h-7.326c-.955 0-1.712-.761-2.273-2.291l-8.635-24.563c-.395-1.122-.959-1.686-1.69-1.686h-3.722c-1.407 0-2.112.761-2.112 2.283v23.978c0 .564-.226 1.086-.676 1.563s-.985.717-1.604.717h-6.924c-1.408 0-2.111-.76-2.111-2.28v-63.073c0-1.462.703-2.196 2.111-2.196h17.309c5.066 0 9.343 1.606 12.834 4.815 3.547 3.376 5.32 7.655 5.32 12.831v3.295c0 6.699-2.844 11.794-8.527 15.283-.283.17-.31.564-.086 1.181zm-12.157-42.809v-5.404c0-1.858-.662-3.431-1.984-4.727s-2.943-1.943-4.856-1.943h-6.501c-1.296 0-1.943.76-1.943 2.28v14.186c0 1.464.704 2.195 2.111 2.195h6.332c1.913 0 3.532-.633 4.856-1.901s1.985-2.827 1.985-4.686zm59.341 26.259c0 5.179-1.83 9.613-5.488 13.299s-8.105 5.529-13.34 5.529h-16.803c-.619 0-1.168-.238-1.645-.717-.469-.453-.729-1.08-.718-1.732v-62.734c0-1.576.787-2.366 2.364-2.366h16.803c5.235 0 9.681 1.847 13.34 5.533s5.488 8.12 5.488 13.298v29.89zm-11.65-.927v-27.782c0-2.588-.956-4.812-2.863-6.671s-4.173-2.785-6.79-2.785h-2.562c-1.653 0-2.479.789-2.479 2.365v41.795c0 .676.256 1.254.768 1.732s1.083.718 1.71.718h2.562c2.617 0 4.882-.915 6.79-2.743s2.863-4.042 2.863-6.628zm78.446 17.395c0 1.576-.79 2.363-2.365 2.363h-5.994c-.959 0-1.718-.675-2.281-2.025s-1.238-2.027-2.027-2.027c-.562 0-1.676.833-3.335 2.493s-3.278 2.49-4.854 2.49h-3.124c-2.027 0-3.884-.985-5.574-2.955s-2.533-4.054-2.533-6.249v-40.951c0-1.574.789-2.364 2.364-2.364h5.996c1.575 0 2.365.79 2.365 2.364v34.45c0 3.322 1.559 4.982 4.681 4.982 1.361 0 2.723-.535 4.083-1.605s2.044-2.252 2.044-3.545v-34.283c0-1.574.781-2.364 2.345-2.364h5.864c1.562 0 2.345.79 2.345 2.364v46.862zm42.376 0c0 1.576-.754 2.363-2.261 2.363h-5.948c-1.563 0-2.344-.787-2.344-2.363v-36.308c0-2.928-1.191-4.39-3.574-4.39-1.646 0-3.292.591-4.937 1.774s-2.468 2.364-2.468 3.547v35.378c0 1.576-.79 2.363-2.362 2.363h-5.996c-1.578 0-2.365-.787-2.365-2.363v-46.862c0-1.574.787-2.364 2.365-2.364h5.996c1.572 0 2.362.79 2.362 2.364v1.097c0 .622.169.93.507.93.392 0 .9-.339 1.52-1.013 2.757-2.87 6.135-4.306 10.132-4.306 2.758 0 5.01.916 6.755 2.744s2.617 4.181 2.617 7.05zm42.722 0c0 1.576-.788 2.363-2.365 2.363h-5.994c-1.577 0-2.365-.787-2.365-2.363 0-.562-.2-.844-.592-.844s-.844.282-1.35.844c-1.238 1.181-2.25 1.998-3.038 2.448-1.183.562-2.733.845-4.643.845h-2.534c-2.704 0-5.011-1.013-6.924-3.04s-2.872-4.392-2.872-7.093v-33.52c0-2.701.957-5.01 2.872-6.924s4.221-2.871 6.924-2.871h2.534c2.476 0 4.276.339 5.402 1.014.225.168.985.986 2.279 2.448.507.561.93.844 1.267.844.448 0 .676-.449.676-1.35v-16.549c0-1.575.788-2.364 2.365-2.364h5.994c1.577 0 2.365.788 2.365 2.364zm-10.724-10.721v-25.417c0-.62-.442-1.421-1.319-2.407s-1.8-1.479-2.763-1.479h-3.063c-1.134 0-2.097.368-2.891 1.099s-1.193 1.661-1.193 2.786v25.417c0 1.124.398 2.08 1.193 2.868a3.95 3.95 0 0 0 2.891 1.184h3.063c.963 0 1.886-.535 2.763-1.606s1.319-1.885 1.319-2.445zm81.477 10.802c0 1.519-.758 2.28-2.278 2.28h-32.591c-1.409 0-2.111-.76-2.111-2.28v-4.56c0-1.237.139-2.165.422-2.785l23.051-46.354c.112-.17.168-.309.168-.423 0-.619-.393-.929-1.181-.929h-18.406c-1.521 0-2.282-.704-2.282-2.11v-5.912c0-1.462.761-2.196 2.282-2.196h30.48c1.52 0 2.28.735 2.28 2.2v4.655c0 1.186-.155 2.09-.463 2.71l-22.89 45.843c-.45.946-.198 1.417.758 1.417h20.488c1.517 0 2.274.676 2.274 2.028v6.417zm47.243-16.549c0 5.179-1.83 9.613-5.488 13.299s-8.105 5.529-13.342 5.529H519.83c-.619 0-1.167-.238-1.646-.717-.468-.453-.728-1.08-.717-1.732v-62.734c0-1.576.787-2.366 2.363-2.366h16.802c5.237 0 9.682 1.847 13.342 5.533s5.488 8.12 5.488 13.298zm-11.651-.927v-27.782c0-2.588-.954-4.812-2.861-6.671s-4.173-2.785-6.79-2.785h-2.563c-1.651 0-2.477.789-2.477 2.365v41.795c0 .676.257 1.254.768 1.732s1.081.718 1.709.718h2.563c2.617 0 4.883-.915 6.79-2.743s2.861-4.042 2.861-6.628zm54.108-39.516c0 .676-.254 1.255-.761 1.733s-1.069.717-1.689.717h-16.127c-.618 0-1.181.239-1.689.718s-.758 1.028-.758 1.646v11.483c0 1.52.815 2.28 2.447 2.28h12.33c.617 0 1.182.239 1.687.716s.758 1.029.758 1.648v5.741a2.35 2.35 0 0 1-.717 1.73c-.452.468-1.078.728-1.729.718h-12.498c-1.521 0-2.279.788-2.279 2.366v25.33c0 1.634-.789 2.448-2.365 2.448h-6.839c-.673 0-1.254-.238-1.731-.717s-.718-1.055-.718-1.732v-62.734c0-.619.254-1.168.76-1.646s1.069-.72 1.689-.72h27.779c1.633 0 2.45.79 2.45 2.366v5.909z" fill="#008d96"/>
 <path d="M173.843 187.883v-30.29l-66.51-53.56 66.51-53.552V20.178c-.019-6.796-5.574-12.417-12.38-12.518h-27.246c-2.577 0-5.046.767-7.145 2.22L68.884 60.124V7.661H20.25c-6.918 0-12.562 5.628-12.581 12.547v167.66c.019 6.909 5.662 12.55 12.581 12.55h48.633v-52.466l58.189 50.244c2.099 1.452 4.592 2.228 7.145 2.222h27.274c6.793-.112 12.332-5.739 12.352-12.53zm68.895-8.724V70.236c-.019-6.908-5.661-12.538-12.578-12.538h-48.638V187.71c0 6.999 5.659 12.707 12.626 12.707h19.427c1.9-.267 3.611-.898 4.833-1.761 1.298-.917 14.756-11.752 24.329-19.494zM194.08 7.656c-7.064 0-12.541 5.637-12.558 10.486v31.891h61.216V7.658zM416.552 187.83v-30.289l-66.484-53.554 66.484-53.561V20.126c-.02-6.795-5.523-12.368-12.326-12.47h-27.272c-2.579 0-5.048.72-7.145 2.172l-58.215 50.244V20.143c-.016-6.905-5.661-12.488-12.579-12.488h-48.622v192.756h48.622c6.917 0 12.563-5.689 12.579-12.607v-39.869l58.215 50.204c2.089 1.447 4.558 2.27 7.145 2.27h27.272c6.794-.114 12.307-5.786 12.326-12.577zm112.63-95.429h-43.775V50.033h43.775zm61.209-72.224c-.017-6.905-5.661-12.52-12.58-12.52H476.896l-52.681 42.376v137.809c.019 6.905 5.658 12.562 12.575 12.562h48.618v-61.692h43.775v61.693h48.629c6.918 0 12.562-5.657 12.58-12.577V20.168z" fill="#ffea19"/>
</svg>
