<?xml version="1.0" encoding="UTF-8"?>
<svg id="Logo_klassikradio" width="800" height="339.06" version="1.0" xmlns="http://www.w3.org/2000/svg">
	<g>
		<path d="m13.87 1.0864c1.4777-0.51245 3.0438-0.63443 4.5533-1.0109 54.842-0.1508 109.69-0.021536 164.53-0.064624h538.12c20.159 0.042341 40.322-0.084658 60.481 0.063431 4.381 0.62085 8.7726 2.1805 11.957 5.4153 2.9535 2.6604 4.89 6.2796 5.9004 10.121 0.84271 4.5306 0.5064 9.1428 0.56765 13.724-1.6e-4 93.627-1.6e-4 187.25 0 280.88-0.0565 4.4102 0.272 8.853-0.57927 13.211-1.6787 7.3085-7.634 13.308-14.835 15.041-4.3096 0.83714-8.695 0.52867-13.051 0.5768-250.48-4e-3 -500.96 7e-3 -751.44-5e-3 -1.5648-0.0737-3.1028-0.40319-4.6576-0.57403-7.1973-1.7275-13.146-7.7222-14.829-15.021-0.17834-1.5758-0.51456-3.1332-0.58006-4.7164-0.01113-99.31 0.0031835-198.62-0.0071443-297.93 0.0047947-1.7476 0.39777-3.4594 0.57229-5.1919 1.6176-6.7008 6.737-12.506 13.297-14.523z"/>
		<path id="bg_black" d="m17.31 4.6252c1.4645-0.5017 3.0167-0.62112 4.5128-0.98966 54.354-0.14764 108.71-0.021084 163.07-0.063268h533.34c19.98 0.041453 39.964-0.082883 59.943 0.0621 4.342 0.60782 8.6946 2.1348 11.85 5.3017 2.9272 2.6046 4.8465 6.1479 5.8479 9.9085 0.83521 4.4356 0.50193 8.951 0.56261 13.436-1.6e-4 91.663-1.6e-4 183.33 0 274.99-0.056 4.3177 0.26959 8.6672-0.57413 12.934-1.6638 7.1552-7.566 13.028-14.703 14.725-4.2714 0.81958-8.6178 0.51758-12.935 0.5647-248.25-4e-3 -496.51 7e-3 -744.76-5e-3 -1.5508-0.0721-3.0752-0.39473-4.6162-0.562-7.1333-1.6911-13.029-7.5601-14.698-14.706-0.17676-1.5427-0.50999-3.0675-0.57491-4.6174-0.011031-97.226 0.00316-194.45-0.00708-291.68 0.00475-1.711 0.39423-3.3869 0.56721-5.083 1.6033-6.5602 6.6771-12.244 13.179-14.219z" fill="#fff"/>
		<path id="green" d="m542.94 287.42c-1.5e-4 -78.485-7e-3 -156.97 5e-3 -235.46 20.111 1.52e-4 40.223-0.0013 60.335 7.29e-4 -8e-3 78.485 8e-3 156.97-8e-3 235.45-20.111-5e-3 -40.221-4e-3 -60.331-6e-5zm74.375-174.78c29.333 0.0117 58.666-0.0228 88 0.0179-7.834 4.5645-14.845 10.508-20.51 17.588-14.234 17.818-21.273 40.648-22.132 63.251-0.40474 3.1598-0.36016 6.3778 9e-3 9.5402 0.81355 22.239 7.6129 44.696 21.402 62.385 7.4629 9.6594 17.374 17.595 28.853 21.916-31.873 0.17768-63.749 0.0212-95.623 0.0784 0-58.259 1.1e-4 -116.52 0-174.78z" fill="#85ff00"/>
		<path id="text" d="m157.73 129.29c5.8982-0.0209 11.797-4.9e-4 17.695-0.0107 7e-3 23.106-2e-5 46.212 3e-3 69.319-5.8979 4e-3 -11.795 7e-3 -17.693-4.2e-4 -0.0141-23.103-3e-3 -46.205-5e-3 -69.308zm63.795 14.04c-2.3138 1e-3 -4.6176 0.0492-6.9141 0.0781-2.4252 0.27304-4.8546 0.55066-7.2786 0.82033-4.861 1.1254-10.079 2.4252-13.581 6.25-2.7309 2.5694-3.9215 6.2264-4.6875 9.7918 6.0111 0.0533 12.022 0.0481 18.034 0.0133 1.1228-1.7184 2.6538-3.3134 4.7396-3.75 6.0549-1.3768 12.454-1.2904 18.516 0 2.9096 0.63728 5.2783 2.8724 5.7422 5.8724 3e-3 0.75364 0.0184 1.5079 0.026 2.2656-6.6523-5e-3 -13.309 0.0156-19.961 0-5.9431 0.42747-11.956 0.34867-17.773 1.875-1.3454 0.46909-2.6709 0.98271-3.9974 1.4974-3.4455 1.6966-6.3089 4.6959-7.2786 8.4766-0.587 1.5276-0.32132 3.1994-0.78126 4.7526 2.4e-4 0.36185-2.3e-4 1.0835 0 1.4453 0.42673 1.7354 0.32027 3.5726 1.0417 5.2474 1.9676 5.4308 7.1544 8.9879 12.526 10.56 1.9366 0.41981 3.8975 0.7541 5.8464 1.1198 2.2674-0.0261 4.524 0.0761 6.7708 0.36459 1.9294-0.39423 3.9052-0.2787 5.8594-0.40366 3.7826-0.64706 7.6298-1.3488 11.081-3.112 2.2045-1.1227 4.4838-2.1094 6.5625-3.4636 0.0729 1.9039 0.47199 3.772 1.1328 5.5599 6.4534 1e-3 12.908 0.0313 19.362-0.0133-1.3934-2.0935-2.6083-4.381-2.6823-6.9531-0.0952-10.558 0.0268-21.122-0.0651-31.68-0.71593-3.3788-1.5384-7.0674-4.2188-9.4792-1.9973-2.2246-4.7961-3.422-7.487-4.5703-6.6306-2.2024-13.593-2.57-20.534-2.5651zm-2.7865 30.729c4.9558-0.0172 9.9128-7e-3 14.87 0 0.60323 4.1022-2.2353 7.6735-5.3646 9.935-3.3706 2.4958-7.5605 3.4915-11.641 4.0625-3.0941 0.28055-6.254-0.0481-9.2058-1.0156-2.4416-0.8644-4.7399-3.0528-4.5312-5.8333-0.012-2.3931 1.9495-4.0486 3.763-5.2734 3.8686-1.5094 8.0379-1.5209 12.109-1.875zm137.62-29.786c7.7104-1.173 15.617-1.3598 23.296 0.14968 6.1396 1.3339 12.361 4.0127 16.172 9.2314 1.3288 1.9717 2.182 4.2134 2.8315 6.4906-5.9863 0.31443-11.951 0.71392-17.928 1.142-0.99029-1.847-2.2589-3.6024-4.259-4.4347-5.1252-2.2891-11.071-2.5101-16.461-1.0668-1.7588 0.61034-3.864 1.3057-4.6379 3.1768-0.31103 1.0627 1e-3 2.4349 1.0404 2.9987 2.1161 1.4481 4.7391 1.6236 7.1748 2.16 7.4838 0.79294 14.991 1.3578 22.444 2.4023 2.4537 0.65401 4.924 1.4557 7.0322 2.9166 2.6683 1.7186 4.4255 4.603 5.2835 7.6125 1.1134 4.6263 0.21356 9.9096-2.9015 13.601-5.7834 6.6497-15.156 8.5126-23.569 8.7098-2.7108 0.5253-5.6288 0.5028-8.3416 9e-3 -3.1308 0.0401-6.2389-0.37388-9.2954-1.0191-5.1384-0.99905-10.333-2.9247-14.1-6.6925-2.9079-2.6991-4.5571-6.4336-5.6802-10.169 1.509-0.41007 3.0593-0.65978 4.6312-0.59417 4.6295-0.3717 9.2738-0.66697 13.91-1.0475 1.0753 3.0069 3.3891 5.6798 6.488 6.688 4.1118 1.6063 8.6124 1.2076 12.932 1.2003 2.842-0.54524 6.3777-0.86409 8.0851-3.5591 1.2023-1.8201-0.34741-4.2446-2.2611-4.772-9.7798-3.0332-20.312-1.7434-30.114-4.6642-4.6258-1.3998-9.165-4.7348-10.235-9.6902-0.84785-4.3965-0.34408-9.4232 2.7082-12.917 3.8666-4.7211 9.9936-6.6474 15.753-7.8633zm-70.916-0.12815c4.1493-0.41632 8.2931-0.97998 12.476-0.79198 7.851 0.25258 16.216 1.4842 22.572 6.4889 3.4073 2.4075 5.6151 6.1925 6.5161 10.226-2.015 0.39781-4.0862 0.0619-6.0966 0.46625-1.9067 0.31223-3.8585-0.0373-5.7548 0.35267-1.9818 0.34557-4.0148-0.0277-5.9852 0.40291-1.4586-2.7493-4.0399-4.7773-7.0696-5.5013-4.895-1.3321-10.168-1.2098-14.991 0.35432-1.5253 0.45461-2.5691 1.6876-3.4063 2.9676 0.0133 0.44768 0.0381 1.343 0.0509 1.7907 0.85365 0.81057 1.6798 1.7807 2.9007 2.0236 3.9163 1.1751 8.0214 1.5758 12.088 1.7883l0.43153 0.25614c5.1836 0.38339 10.411 0.64214 15.518 1.7206 2.4946 0.50513 4.9064 1.438 7.0199 2.8719 0.9734 1.0161 1.9737 2.0089 2.9886 2.9894 2.9672 4.5114 3.1783 10.645 0.80505 15.451-2.0741 4.3692-6.3429 7.1666-10.743 8.8141-7.0396 2.5114-14.615 2.9962-22.024 2.809-1.7649-0.57393-3.6441-0.1224-5.4406-0.46609-5.1972-0.76218-10.549-1.7665-15.052-4.6257-1.4131-0.84696-2.636-1.9547-3.9637-2.9153-1.0197-1.4161-2.186-2.7267-3.0634-4.2392-1.1479-1.8339-1.6288-3.9645-2.3307-5.9832 2.4601-0.72698 5.0412-0.27553 7.5315-0.78714 3.6713-0.10654 7.3332-0.4455 10.984-0.86871 0.6603 1.9895 1.6795 3.9852 3.479 5.1748 3.6033 2.5953 8.2324 3.0174 12.541 2.8528 3.1748 0.18144 6.3563-0.37456 9.3184-1.5222 1.3448-0.79415 2.3031-2.0083 2.6254-3.5555-0.28208-0.7298-0.53294-1.4721-0.90802-2.1556-1.4353-1.0304-3.1481-1.6232-4.8585-1.9998-3.6108-0.51492-7.1983-1.3331-10.862-1.3073-7.4729-1.0091-15.718-0.82583-22.095-5.4901-1.668-1.1816-2.8603-2.8596-3.7743-4.6608-1.6267-4.4503-1.3756-9.6192 1.1862-13.669 2.8664-4.1595 7.4485-6.7786 12.258-8.0734 1.691-0.46915 3.4201-0.78387 5.1289-1.1884zm-203.85 1.0005c6.0182 8e-3 12.036 5e-3 18.055 1e-3 0.05808 6.9594-0.11067 13.924 0.08679 20.88 7.8961-7.0674 16.134-13.752 23.961-20.892 7.8233 0.052 15.647-0.0313 23.471 0.0432-8.3532 7.0303-16.846 13.893-25.211 20.911 0.12331 0.0824 0.36992 0.24712 0.49322 0.3295 2.1221 2.4621 4.0875 5.0722 6.38 7.3856l0.11516 0.45516c2.251 2.3052 4.2931 4.8124 6.2966 7.3356 0.7599 0.79928 1.5244 1.6019 2.1707 2.5028 4.213 4.7379 8.2136 9.6592 12.36 14.456-7.519 0.1048-15.04 0.0276-22.56 0.0412-0.44167-0.4699-0.8821-0.93102-1.322-1.3941-5.4064-7.0964-11.242-13.862-16.578-21.012-3.319 2.5419-6.3142 5.4825-9.6511 8.0056-0.02849 4.8028-0.0016 9.606-0.01427 14.41-6.0188-9e-3 -12.037 3e-3 -18.056-1e-3 0.0095-17.819 0.0047-35.638 0.0016-53.456zm328.16 4e-3c5.8951-1e-3 11.791 5e-3 17.688-3e-3 0.0107 17.818 5e-3 35.637 3e-3 53.456-5.8981-3e-3 -11.795 1e-3 -17.692-5e-3 4e-3 -17.816 3e-3 -35.632 1e-3 -53.448zm31.767-1e-3c6.0197 3e-3 12.04 3e-3 18.062-4.9e-4 -7e-3 6.8971-5e-3 13.794 5.2e-4 20.692 2.0519-1.5848 4.0453-3.2589 5.8813-5.0938l0.46963-0.10334c2.9204-2.9931 6.3421-5.4404 9.3894-8.2997 2.737-2.4317 5.6183-4.7041 8.3028-7.1962 7.7589 0.0543 15.522-0.0959 23.28 0.0783-8.2848 7.0599-16.757 13.903-25.132 20.856 0.88576 0.89991 1.8051 1.7834 2.572 2.7987 6.8811 7.9633 13.591 16.076 20.521 23.993 1.5289 1.9669 3.2192 3.8022 4.8583 5.6806-7.651 0.11026-15.303 0.0107-22.954 0.0544-0.16206-0.25796-0.48615-0.7739-0.64821-1.0319-5.8247-7.0341-11.297-14.358-17.153-21.366-3.149 2.6534-6.234 5.3791-9.3902 8.0212-3e-3 4.7909-4e-3 9.5822-1e-3 14.374-6.0198-5e-3 -12.039-7e-3 -18.057-2.6e-4 -4.2e-4 -17.819 4e-3 -35.638-3e-3 -53.457zm-63.162 71.15c-0.024 7.5377 0.0443 15.08-0.0521 22.617-3.784-3.2362-8.514-4.9847-13.281-6.1719-5.479-1.0797-11.187-1.1062-16.589 0.40364-6.4544 1.6606-12.134 5.8574-15.807 11.393-6.3201 10.105-6.0343 24.2 1.1328 33.815 2.0569 2.07 3.957 4.3789 6.5364 5.8333 2.7594 1.8552 5.9016 3.0243 9.1016 3.8672 9.9634 2.188 21.33 0.25572 28.919-6.901 0.0377 1.9708 0.0295 3.95 0.0391 5.9245 5.8926 4e-3 11.788-3e-3 17.682 0 7e-3 -23.594 4e-3 -47.187 0-70.781-5.8963-7e-3 -11.787-3.5e-4 -17.682 0zm-16.549 28.177c1.8123 1e-3 3.6313 0.43596 5.4167 0.75521 1.118 0.33426 2.2252 0.72024 3.3333 1.1068 3.6641 1.7468 6.6864 4.9509 7.6302 8.9713 1.0835 5.3402 0.56367 11.375-2.9167 15.781-2.7655 3.5682-7.3474 5.2955-11.745 5.5469-4.2534 0.27121-8.7716-0.80091-12.018-3.6719-1.8954-1.8808-3.266-4.2279-4.1276-6.7448-1.1003-4.0141-1.3216-8.432 0.32552-12.331 1.7552-4.9425 6.5041-8.421 11.641-9.1016 0.81885-0.22787 1.6372-0.313 2.4609-0.31251zm112.99-13.398c-0.26038 1e-3 -0.51942 0.0133-0.78126 0.0391-1.8862 0.67661-3.932 0.0925-5.8594 0.54688-8.877 1.2014-17.941 4.6321-23.867 11.615-3.45 3.8497-5.4671 8.8458-6.0026 13.958 0.0572 3.03-0.29159 6.1214 0.42966 9.1016 0.78917 4.3013 3.0401 8.1967 5.7812 11.549 4.9016 5.4283 11.862 8.7219 18.958 10.143 5.3412 1.0269 10.896 1.6764 16.302 0.89844 7.5297-0.32912 15.065-2.7587 21.211-7.1615 4.9803-3.4505 8.3738-8.8234 10.039-14.596 0.50337-3.477 1.2975-7.0024 0.69012-10.521-0.54204-5.8236-3.2714-11.384-7.3958-15.508-0.86521-0.69417-1.6733-1.4458-2.4479-2.2266-6.2387-4.6178-13.908-7.0016-21.602-7.4609-1.8372 0.12013-3.633-0.38612-5.4557-0.3776zm1.3021 13.008c0.37154 0.0675 1.1128 0.19301 1.4844 0.26042 4.6697 0.215 9.4108 2.1338 12.5 5.7162 3.6904 4.3499 4.4132 10.726 2.3307 15.964-1.5773 4.468-5.5674 7.5974-9.948 9.0886-3.4283 1.0944-7.0503 0.70381-10.586 0.74219-2.4159-0.24376-4.7622-0.94986-6.9922-1.888-3.9824-1.879-6.9122-5.6448-7.8516-9.935-0.56868-2.0248-0.35944-4.1407-0.33856-6.2109 0.88352-3.9227 2.7562-7.8104 6.1979-10.091 3.8379-2.7143 8.6258-3.416 13.203-3.6458zm-242.09-10.143c2.9151-1.0134 5.9783-1.833 9.0879-1.7975l0.49656-0.29918c0.99284 5e-3 1.9886 9e-3 2.9877 0.0137-5e-3 5.2808 1e-3 10.562-3e-3 15.844-2.3382-5e-3 -4.675-8e-3 -7.0108-0.012-2.3417-0.0556-4.5837 0.71747-6.8505 1.1835-2.1358 0.82586-4.1607 1.9912-5.8393 3.5566-1.9033 2.1755-2.7501 5.13-2.6915 7.9875 0.0297 8.8862-1e-3 17.773 0.0164 26.66-6.0224 3.2e-4 -12.044 3e-3 -18.066-1e-3 -9e-3 -17.822-3e-3 -35.643-4e-3 -53.464 6.0236 0.0136 12.047-3e-3 18.072 7e-3 -0.0249 2.8282 0.0208 5.6577-0.0323 8.4877 2.3443-3.6479 5.7224-6.6816 9.8366-8.165zm52.209-2.0967c-2.0032 1e-3 -4.0133 4e-3 -6.0156 0.0133-6.2573 0.55299-12.789 1.1456-18.32 4.4011-4.6791 2.4488-7.1822 7.4955-8.2162 12.474 5.9907 0.0685 11.996 0.12094 17.982-0.026 0.94419-1.1364 1.9472-2.2382 3.1901-3.0599 2.0746-0.72764 4.2118-1.1744 6.3802-1.5104 5.4031-0.0669 11.118-0.50935 16.146 1.862 2.6624 1.2553 3.556 4.4428 3.3984 7.1745-6.3354 0.14372-12.667-0.22284-18.997-0.0521-2.7587 0.49254-5.5625 0.31714-8.3464 0.36458-2.9793 0.32846-5.9758 0.50072-8.9062 1.1849-2.6634 0.53669-5.1125 1.7033-7.487 2.9818-3.7385 2.5637-5.9674 7.1076-5.7552 11.628 0.1068 2.0746-0.33193 4.2514 0.52084 6.224 1.2493 4.8288 5.2977 8.4828 9.7656 10.391 3.879 1.6675 8.1554 2.2137 12.344 2.3568 3.1575 0.60688 6.3207-0.21404 9.4922-0.16928 6.1447-0.91677 12.057-3.1554 17.24-6.5885 0.0684 1.91 0.51022 3.7854 1.1458 5.5859 6.4596-9e-3 12.914 0.0236 19.375-0.0133-1.4958-2.185-2.5694-4.6546-2.6953-7.3307-0.15809-10.763 0.15535-21.537-0.16926-32.292-0.70588-3.6218-2.2149-7.2134-5.1953-9.5444-5.8371-4.7208-13.676-5.4202-20.872-6.0286-2.003-0.0236-3.9994-0.0271-6.0026-0.026zm9.323 30.69c1.7527 4e-3 3.507 0.0221 5.2604 0.0391-0.0656 0.67231-0.1386 1.3528-0.20833 2.0313-0.55229 3.0474-2.3627 5.8036-4.9349 7.526-2.5553 2.0214-5.7091 2.9853-8.763 3.9583-4.743 0.71304-9.9352 1.0236-14.258-1.4323-3.5022-1.6445-3.5339-7.2163-0.4948-9.349 2.2322-1.5911 4.9986-1.9576 7.6302-2.3958 5.2458-0.31036 10.51-0.39021 15.768-0.3776zm114.58-29.618c5.896-1.6e-4 11.793-2.4e-4 17.69-4.3e-4 -9e-3 18.054 1e-3 36.109-5e-3 54.163-5.897-1e-3 -11.793-5.2e-4 -17.688 2.7e-4 5e-3 -18.055-5.2e-4 -36.109 3e-3 -54.163z"/>
	</g>
</svg>
