<?xml version="1.0" encoding="UTF-8"?>
<svg width="800" height="339.06" version="1.0" xmlns="http://www.w3.org/2000/svg">
  <path d="M13.87 1.086c1.478-.512 3.044-.634 4.553-1.01C73.265-.075 128.113.054 182.953.01h538.12c20.16.042 40.322-.085 60.481.063 4.381.621 8.773 2.18 11.957 5.416 2.954 2.66 4.89 6.28 5.9 10.12.843 4.531.507 9.143.568 13.725v280.88c-.056 4.41.272 8.853-.579 13.21-1.679 7.31-7.634 13.309-14.835 15.042-4.31.837-8.695.528-13.05.576-250.48-.004-500.96.007-751.44-.005-1.566-.073-3.104-.403-4.659-.574-7.197-1.727-13.146-7.722-14.829-15.02-.178-1.576-.514-3.134-.58-4.717-.01-99.31.004-198.62-.007-297.93.005-1.748.398-3.46.573-5.192C2.19 8.905 7.31 3.1 13.87 1.082z"/>
  <path d="M17.31 4.625c1.464-.501 3.017-.62 4.513-.99 54.354-.147 108.71-.02 163.07-.063h533.34c19.98.042 39.964-.083 59.943.062 4.342.608 8.694 2.135 11.85 5.302 2.927 2.605 4.846 6.148 5.848 9.909.835 4.435.502 8.95.562 13.436v274.99c-.056 4.317.27 8.667-.574 12.934-1.664 7.155-7.566 13.028-14.703 14.725-4.271.82-8.618.517-12.935.564-248.25-.004-496.51.007-744.76-.005-1.55-.072-3.075-.394-4.616-.562-7.133-1.69-13.029-7.56-14.698-14.706-.177-1.542-.51-3.067-.575-4.617-.011-97.226.003-194.45-.007-291.68.005-1.711.394-3.387.567-5.083 1.604-6.56 6.677-12.244 13.18-14.22z" fill="#fff"/>
  <path d="M542.94 287.42c0-78.485-.007-156.97.005-235.46h60.335c-.008 78.486.008 156.97-.008 235.45-20.111-.004-40.221-.003-60.331 0zm74.375-174.78c29.333.012 58.666-.023 88 .018-7.834 4.564-14.845 10.508-20.51 17.588-14.234 17.818-21.273 40.648-22.132 63.25-.405 3.16-.36 6.379.009 9.541.814 22.24 7.613 44.696 21.402 62.385 7.463 9.66 17.374 17.595 28.853 21.916-31.873.178-63.749.021-95.623.078v-174.78z" fill="#85ff00"/>
  <path d="M157.73 129.29c5.898-.02 11.797 0 17.695-.01.007 23.105 0 46.211.003 69.318-5.898.004-11.795.007-17.693 0-.014-23.103-.003-46.205-.005-69.308zm63.795 14.04c-2.314.001-4.618.05-6.914.078-2.425.273-4.855.55-7.279.82-4.86 1.126-10.079 2.426-13.58 6.25-2.732 2.57-3.922 6.227-4.688 9.792 6.01.054 12.022.048 18.034.014 1.123-1.719 2.654-3.314 4.74-3.75 6.054-1.377 12.453-1.29 18.515 0 2.91.637 5.279 2.872 5.743 5.872.003.754.018 1.508.026 2.266-6.653-.005-13.31.015-19.961 0-5.944.427-11.956.348-17.773 1.875-1.346.469-2.671.982-3.998 1.497-3.445 1.697-6.309 4.696-7.278 8.477-.587 1.527-.322 3.199-.782 4.752v1.445c.427 1.736.32 3.573 1.042 5.248 1.968 5.43 7.154 8.988 12.526 10.56 1.937.42 3.898.754 5.846 1.12 2.268-.026 4.524.076 6.771.364 1.93-.394 3.905-.278 5.86-.403 3.782-.648 7.63-1.35 11.08-3.112 2.205-1.123 4.484-2.11 6.563-3.464.073 1.904.472 3.772 1.133 5.56 6.453 0 12.908.031 19.362-.013-1.393-2.094-2.608-4.381-2.682-6.954-.096-10.558.026-21.122-.065-31.68-.716-3.378-1.539-7.067-4.22-9.479-1.997-2.224-4.795-3.422-7.486-4.57-6.63-2.202-13.593-2.57-20.534-2.565zm-2.787 30.729c4.956-.017 9.913-.007 14.87 0 .604 4.102-2.235 7.673-5.364 9.935-3.37 2.496-7.56 3.491-11.641 4.062-3.094.281-6.254-.048-9.206-1.015-2.441-.865-4.74-3.053-4.531-5.833-.012-2.394 1.95-4.049 3.763-5.274 3.868-1.51 8.038-1.52 12.109-1.875zm137.62-29.786c7.71-1.173 15.617-1.36 23.296.15 6.14 1.334 12.361 4.012 16.172 9.231 1.33 1.972 2.182 4.213 2.832 6.49-5.986.315-11.951.715-17.928 1.143-.99-1.847-2.259-3.603-4.259-4.435-5.125-2.29-11.071-2.51-16.461-1.067-1.759.61-3.864 1.306-4.638 3.177-.31 1.063.001 2.435 1.04 2.999 2.117 1.448 4.74 1.623 7.175 2.16 7.484.793 14.991 1.357 22.444 2.402 2.454.654 4.924 1.456 7.032 2.917 2.669 1.718 4.426 4.603 5.284 7.612 1.113 4.626.214 9.91-2.901 13.601-5.784 6.65-15.157 8.513-23.57 8.71-2.71.525-5.628.503-8.341.009-3.13.04-6.239-.374-9.296-1.02-5.138-.998-10.332-2.924-14.1-6.692-2.907-2.699-4.557-6.433-5.68-10.169 1.51-.41 3.06-.66 4.631-.594 4.63-.372 9.274-.667 13.91-1.047 1.076 3.007 3.39 5.68 6.488 6.688 4.112 1.606 8.613 1.207 12.932 1.2 2.842-.545 6.378-.864 8.086-3.56 1.202-1.82-.348-4.244-2.261-4.771-9.78-3.033-20.312-1.744-30.114-4.664-4.626-1.4-9.165-4.735-10.235-9.69-.848-4.397-.345-9.424 2.708-12.918 3.866-4.72 9.993-6.647 15.753-7.863zm-70.916-.128c4.15-.416 8.294-.98 12.476-.792 7.851.252 16.216 1.484 22.572 6.489 3.408 2.407 5.616 6.192 6.517 10.226-2.015.398-4.087.062-6.097.466-1.907.312-3.859-.037-5.755.353-1.982.345-4.015-.028-5.985.403-1.459-2.75-4.04-4.778-7.07-5.502a26.414 26.414 0 0 0-14.99.355c-1.526.454-2.57 1.687-3.407 2.967l.051 1.79c.854.811 1.68 1.782 2.9 2.025 3.917 1.175 8.022 1.575 12.089 1.788l.431.256c5.184.383 10.411.642 15.518 1.72 2.495.506 4.907 1.439 7.02 2.872a109.259 109.259 0 0 0 2.989 2.99c2.967 4.511 3.178 10.645.805 15.45-2.074 4.37-6.343 7.167-10.743 8.815-7.04 2.511-14.615 2.996-22.024 2.809-1.765-.574-3.644-.122-5.44-.466-5.198-.762-10.55-1.767-15.053-4.626-1.413-.847-2.636-1.955-3.964-2.915-1.02-1.416-2.186-2.727-3.063-4.24-1.148-1.833-1.629-3.964-2.33-5.983 2.46-.727 5.04-.275 7.53-.787 3.672-.106 7.334-.445 10.985-.868.66 1.99 1.68 3.985 3.479 5.174 3.603 2.596 8.232 3.018 12.54 2.853 3.176.182 6.357-.374 9.32-1.522 1.344-.794 2.302-2.008 2.625-3.555-.282-.73-.533-1.473-.908-2.156-1.436-1.03-3.148-1.623-4.859-2-3.61-.515-7.198-1.333-10.862-1.307-7.473-1.01-15.718-.826-22.095-5.49-1.668-1.182-2.86-2.86-3.774-4.661-1.627-4.45-1.376-9.62 1.186-13.67 2.866-4.159 7.449-6.778 12.258-8.072 1.691-.47 3.42-.784 5.129-1.189zm-203.85 1c6.019.008 12.037.005 18.056.001.058 6.96-.111 13.924.086 20.88 7.896-7.067 16.134-13.752 23.961-20.892 7.824.052 15.647-.031 23.471.044-8.353 7.03-16.846 13.893-25.21 20.91l.493.33c2.122 2.462 4.087 5.072 6.38 7.386l.115.455c2.25 2.305 4.293 4.812 6.296 7.335.76.8 1.525 1.602 2.171 2.503 4.213 4.738 8.214 9.66 12.36 14.456-7.519.105-15.04.028-22.56.041-.442-.47-.882-.93-1.322-1.394-5.406-7.096-11.242-13.862-16.578-21.012-3.319 2.542-6.314 5.483-9.651 8.006-.029 4.803-.002 9.606-.014 14.41-6.02-.01-12.037.003-18.056-.001.01-17.82.004-35.638.001-53.456zm328.16.004c5.896 0 11.792.005 17.689-.003.01 17.818.005 35.637.003 53.456-5.899-.003-11.795.001-17.692-.005.004-17.816.003-35.632 0-53.448zm31.768 0c6.02.002 12.04.002 18.062-.001-.007 6.897-.005 13.794 0 20.692 2.052-1.585 4.045-3.259 5.881-5.094l.47-.103c2.92-2.993 6.342-5.44 9.39-8.3 2.736-2.432 5.618-4.704 8.302-7.196 7.76.054 15.522-.096 23.28.078-8.285 7.06-16.757 13.903-25.132 20.856.886.9 1.805 1.784 2.572 2.799 6.881 7.963 13.591 16.076 20.521 23.993 1.53 1.967 3.22 3.802 4.858 5.68-7.65.11-15.303.011-22.954.055l-.648-1.032c-5.824-7.034-11.297-14.358-17.153-21.366-3.149 2.653-6.234 5.379-9.39 8.021-.003 4.791-.004 9.582-.001 14.374-6.02-.005-12.039-.007-18.057 0 0-17.82.004-35.638-.003-53.457zm-63.162 71.15c-.024 7.537.044 15.08-.053 22.616-3.784-3.236-8.514-4.984-13.28-6.172-5.48-1.08-11.188-1.106-16.59.404-6.454 1.66-12.134 5.857-15.807 11.393-6.32 10.105-6.034 24.2 1.133 33.815 2.057 2.07 3.957 4.379 6.537 5.833 2.759 1.856 5.901 3.025 9.101 3.868 9.964 2.188 21.33.255 28.92-6.901.037 1.97.029 3.95.038 5.924 5.893.004 11.788-.003 17.682 0 .007-23.594.004-47.187 0-70.78-5.896-.008-11.787-.001-17.682 0zm-16.55 28.176c1.813.001 3.632.436 5.417.756 1.118.334 2.225.72 3.334 1.106 3.664 1.747 6.686 4.951 7.63 8.972 1.083 5.34.563 11.375-2.917 15.78-2.765 3.569-7.347 5.296-11.745 5.548-4.253.27-8.772-.801-12.018-3.672-1.895-1.881-3.266-4.228-4.128-6.745-1.1-4.014-1.321-8.432.326-12.331 1.755-4.943 6.504-8.421 11.64-9.102a9.072 9.072 0 0 1 2.462-.312zm112.99-13.398c-.26.001-.519.014-.78.04-1.887.676-3.933.092-5.86.546-8.877 1.202-17.941 4.632-23.867 11.615-3.45 3.85-5.467 8.846-6.003 13.958.057 3.03-.291 6.122.43 9.102.79 4.301 3.04 8.197 5.781 11.549 4.902 5.428 11.862 8.722 18.958 10.143 5.341 1.027 10.896 1.676 16.302.898 7.53-.329 15.065-2.758 21.211-7.161 4.98-3.45 8.374-8.824 10.04-14.596.502-3.477 1.297-7.003.69-10.521-.543-5.824-3.272-11.384-7.397-15.508a29.21 29.21 0 0 1-2.447-2.227c-6.24-4.618-13.908-7.001-21.602-7.46-1.838.12-3.633-.387-5.456-.378zm1.303 13.008c.371.068 1.112.193 1.484.26 4.67.216 9.41 2.135 12.5 5.717 3.69 4.35 4.413 10.726 2.33 15.964-1.577 4.468-5.567 7.597-9.947 9.089-3.429 1.094-7.05.703-10.586.742-2.416-.244-4.762-.95-6.992-1.888-3.983-1.88-6.913-5.645-7.852-9.935-.569-2.025-.36-4.14-.339-6.211.884-3.923 2.757-7.81 6.198-10.091 3.838-2.714 8.626-3.416 13.203-3.646zm-242.09-10.143c2.915-1.013 5.978-1.833 9.088-1.797l.496-.3c.993.006 1.989.01 2.988.014-.005 5.281 0 10.562-.003 15.844l-7.011-.012c-2.342-.055-4.584.718-6.85 1.184-2.136.826-4.161 1.991-5.84 3.556-1.903 2.176-2.75 5.13-2.691 7.988.03 8.886-.001 17.773.016 26.66-6.022 0-12.044.003-18.066-.001-.009-17.822-.003-35.643-.004-53.464 6.024.014 12.047-.003 18.072.007-.025 2.828.02 5.658-.032 8.488 2.344-3.648 5.722-6.682 9.836-8.165zm52.209-2.096c-2.004 0-4.014.004-6.016.013-6.257.553-12.789 1.146-18.32 4.401-4.68 2.449-7.182 7.496-8.216 12.474 5.99.069 11.996.121 17.982-.026.944-1.136 1.947-2.238 3.19-3.06 2.075-.727 4.212-1.174 6.38-1.51 5.403-.067 11.118-.51 16.146 1.862 2.663 1.255 3.556 4.443 3.399 7.174-6.336.144-12.667-.223-18.997-.052-2.76.493-5.563.317-8.347.365-2.98.328-5.976.5-8.906 1.185-2.663.536-5.113 1.703-7.487 2.981-3.739 2.564-5.967 7.108-5.755 11.628.107 2.075-.332 4.252.52 6.224 1.25 4.83 5.298 8.483 9.766 10.391 3.88 1.668 8.156 2.214 12.344 2.357 3.158.607 6.32-.214 9.492-.17 6.145-.916 12.057-3.154 17.24-6.588.069 1.91.51 3.786 1.146 5.586 6.46-.009 12.914.024 19.375-.013-1.496-2.185-2.57-4.655-2.695-7.33-.158-10.764.155-21.538-.17-32.293-.705-3.621-2.214-7.213-5.195-9.544-5.837-4.72-13.676-5.42-20.872-6.029-2.003-.023-4-.027-6.002-.026zm9.323 30.69c1.752.004 3.507.022 5.26.039-.066.672-.139 1.353-.208 2.031a11.629 11.629 0 0 1-4.935 7.526c-2.556 2.021-5.71 2.985-8.763 3.958-4.743.713-9.935 1.024-14.258-1.432-3.502-1.644-3.534-7.216-.495-9.349 2.232-1.591 4.999-1.958 7.63-2.396 5.246-.31 10.51-.39 15.768-.377zm114.58-29.618h17.69c-.01 18.053 0 36.108-.005 54.162H410.12c.005-18.055 0-36.109.003-54.163z"/>
</svg>
