<svg xmlns="http://www.w3.org/2000/svg" version="1.0" width="727.623" height="250"><path fill="#f1fffc" d="M0 0h727.623v250H0z"/><path fill="#e1000a" d="M10.66 10.66h489.037v228.681H10.66z"/><path fill="#b3b1b4" d="M510.357 10.66h206.607v228.681H510.357z"/><g fill="#f1fffc"><path d="M138.856 207.876h32.549v-77.008c0-7.142.44-9.593 1.954-12.273 1.303-2.23 3.038-3.348 5.435-3.348 2.375 0 3.679.89 7.81 4.24V82.884c-3.26-1.782-4.782-2.23-6.95-2.23-4.339 0-7.157 2.46-11.278 9.15l-1.093 1.79v-8.71h-28.427zm92.626-32.593v-60.926c0-6.031 2.386-9.153 6.728-9.153 4.553 0 6.286 2.68 6.286 9.153v61.376c0 8.032-1.082 9.822-6.286 9.822-5.214 0-6.728-2.232-6.728-10.272zm45.57-4.241v-51.336c0-24.764-14.325-39.053-39.284-39.053-24.514 0-38.842 14.51-38.842 39.282v50.217c0 10.712 1.514 18.083 4.771 23.432 6.728 11.162 18.018 16.743 33.42 16.743 15.843 0 28.436-6.25 34.942-16.962 3.471-5.801 4.993-12.272 4.993-22.323zm16.664 36.834h32.556V106.765c2.6-3.12 4.993-4.46 7.16-4.46 2.608 0 4.993 2.009 5.425 4.689.219 1.56.432 4.462.432 8.471v92.41h32.557v-93.079c0-8.7-.212-11.6-.864-14.942-.65-2.24-1.525-4.47-2.608-6.48-4.56-8.032-12.592-12.72-22.138-12.72-8.243 0-14.107 3.13-19.964 10.268v-8.04h-32.556zm125.19-78.12v-14.73c0-6.921 2.175-10.041 6.947-10.041 4.774 0 6.728 2.898 6.728 10.48v14.292zm45.792 22.324v-38.616c0-18.75-16.274-33.032-37.981-33.032-24.085 0-40.149 15.4-40.149 38.834v51.107c0 25.672 14.11 39.732 39.506 39.732 26.26 0 36.457-12.05 38.624-38.392l.221-2.671-.221-3.58H432.15l.212 10.271-.212 2.23c0 5.58-1.733 7.37-6.508 7.37-4.782 0-6.507-2.46-6.507-9.382v-23.87z" fill-rule="evenodd"/><path d="M579.255 49.054h-26.32v33.829H541.32v23.492h11.616v75.88c0 19.733 9.586 26.546 26.714 27.016h2.953c2.757 0 4.135 0 8.663-.235l2.166-.235v-24.902c-3.15.47-3.347.47-4.922.47-7.875 0-9.006-1.413-9.254-10.102v-67.892h14.176V82.883h-14.176zM688.885 82.883h-27.896l-14.433 93.029-14.04-93.03H603.44l30.713 124.98h23.822z" style="line-height:1.25;-inkscape-font-specification:'Nimbus Sans Narrow Bold'" font-weight="700" font-size="239.883" font-family="Nimbus Sans Narrow" letter-spacing="0" word-spacing="0"/><path d="M46.397 43.76v164.116h32.55V43.76zm32.55 93.397l18.133 70.72h32.549l-18.134-70.72 18.134-54.275H97.08z" fill-rule="evenodd"/></g></svg>