<?xml version="1.0" encoding="UTF-8"?>
<svg width="800" height="94.913" version="1.1" xmlns="http://www.w3.org/2000/svg">
	<g fill="#fff">
		<path d="m28.642 20.55c0-14.82 1.3173-15.215 8.2333-16.071l2.5029-0.3952c1.0539-0.72453 0.85626-3.4909-0.26346-4.0178-5.7304 0.26346-12.317 0.39518-18.772 0.39518-6.7183 0-13.305-0.13172-19.365-0.39518-1.1856 0.52693-1.3173 3.0957-0.26346 4.0178l2.7664 0.3952c6.9159 0.85626 8.2332 1.2515 8.2332 16.071v51.903c0 14.82-1.3173 15.215-8.2332 16.203l-2.0418 0.26346c-1.0539 0.72453-0.85626 3.4909 0.26346 4.0178 5.2693-0.26346 12.185-0.3952 18.64-0.3952s13.042 0.13173 19.958 0.3952c1.1856-0.52693 1.3173-3.3592 0.2634-4.0178l-3.6885-0.3952c-6.9159-0.85626-8.2333-1.2515-8.2333-16.071v-17.718c0-4.0178-0.26346-7.377 3.3592-7.377 1.3173 0 2.5029 1.1197 3.4909 2.1077 5.401 5.3352 22.856 27.927 28.981 35.173 1.6467 1.976 1.3173 3.3592-1.0539 3.7544l-3.952 0.52693c-1.3173 0.72453-1.3173 3.4909 0.26353 4.0178 6.4548-0.26346 13.041-0.3952 20.221-0.3952 7.7722 0 13.634 0.13173 18.772 0.3952 1.1856-0.3952 1.3173-3.3592 0.26346-4.0178l-3.4909-0.3952c-4.413-0.5928-7.7722-1.8443-10.868-5.3352-10.539-11.724-24.502-28.322-36.029-42.879-1.5808-2.1077-1.3173-2.8981 0.46106-4.6106 5.7304-5.4669 11.593-11.197 17.916-17.191 10.143-9.353 14.095-12.712 27.73-14.491 1.4491-0.72453 1.1856-3.6226-0.46106-4.0178-5.2693 0.13173-9.8141 0.3952-16.137 0.3952-5.401 0-10.275-0.13173-16.401-0.3952-1.1856 1.1197-1.4491 3.0957-0.26353 4.0178l4.5448 1.2515c1.7784 0.3952 1.5808 1.5149-1.0538 4.7424-1.7784 2.2394-5.9938 6.8501-7.9039 8.6285l-14.952 15.347c-4.8082 5.0058-8.2332 8.2333-11 8.2333-2.3712 0-2.503-2.5029-2.503-6.2573v-15.413zm100.71 35.502c0 14.095 3.0957 23.909 9.6823 29.903 6.7183 6.1256 16.401 8.9578 30.167 8.9578 10.143 0 21.077-2.6346 28.718-10.473 7.6405-7.8381 9.6823-19.562 9.6823-32.209v-16.598c0-11.066 0-23.317 2.0418-27.532 1.0539-2.2395 3.6885-2.7664 6.4549-3.3592l3.2274-0.72451c1.1856-0.98799 0.85626-3.2275-0.32933-3.8861-5.401 0.26347-9.353 0.3952-15.544 0.3952-5.7304 0-11.263-0.13173-16.269-0.3952-1.449 0.3952-1.5808 2.8981-0.26346 3.8861l2.964 0.39518c3.6885 0.52693 5.9938 1.5149 7.3111 3.6227 2.6346 4.0178 2.7664 17.059 2.7664 27.532v17.389c0 21.209-7.9039 35.041-27.137 35.041-20.353 0-26.544-16.203-26.544-35.436v-31.945c0-14.82 1.3173-15.215 8.2333-16.203l3.2274-0.39518c1.0538-0.98799 0.85626-3.3592-0.26347-3.8861-6.4549 0.26347-13.041 0.3952-19.628 0.3952-6.4549 0-13.042-0.13173-18.904-0.3952-1.1856 0.52693-1.3173 2.8981-0.26347 3.8861l2.5029 0.39518c6.9159 0.98799 8.2333 1.3832 8.2333 16.203v35.436zm125.28 16.467c0 14.82-1.3173 15.215-8.2333 16.071l-3.2274 0.3952c-1.3173 0.98799-0.85626 3.4909 0.26346 4.0178 6.7184-0.26346 13.305-0.3952 19.76-0.3952s13.041 0.13173 19.496 0.3952c1.1856-0.52693 1.3173-3.0957 0.26347-4.0178l-3.2274-0.3952c-6.916-0.85626-8.2333-1.2515-8.2333-16.071v-17.85c0-2.964 0.13173-3.0956 4.5448-3.0956 4.8082 0 6.4549 0.59273 9.0895 4.7423 3.5568 5.4669 7.6405 13.107 11.592 18.97 8.9578 12.976 16.532 18.443 30.628 18.443 5.1376 0 7.9039-0.3952 9.6823-0.85626 0.46106-0.72453 0.46106-2.2394-0.26347-2.7664-1.7784-0.13173-5.9938-0.98799-10.143-4.3472-6.9159-5.4669-14.227-17.323-25.951-36.16-0.5928-0.85626-0.85626-1.976 0-2.3712 7.1794-2.7664 17.586-9.2213 17.586-22.065 0-10.078-5.401-16.598-12.91-20.353-6.4549-3.3592-16.401-4.7423-27.861-4.7423-11.988 0-24.502 0.3952-33.723 1.2515-1.1856 0.72453-1.1856 2.8981-0.13173 3.8861l3.8202 0.3952c6.9159 0.72454 7.0477 2.3712 7.0477 15.742v51.178zm16.993-60.004c0-6.4549 0.13174-6.8501 7.7722-6.8501 12.778 0 20.221 9.6165 20.221 20.682 0 13.239-6.5866 19.957-20.945 19.957-7.0477 0-7.0477-0.26346-7.0477-4.7424zm117.44 8.0357c0-14.82 1.3173-15.215 8.2333-16.071l3.2274-0.3952c1.0539-0.98799 0.85626-3.4909-0.26346-4.0178-6.4549 0.26346-13.042 0.39518-19.496 0.39518-6.7183 0-13.371-0.13172-19.76-0.39518-1.1856 0.52693-1.3173 3.0957-0.26347 4.0178l3.2274 0.3952c6.8501 0.85626 8.2333 1.2515 8.2333 16.071v51.903c0 14.82-1.3173 15.215-8.2333 16.071l-3.2274 0.3952c-1.0539 0.98799-0.85626 3.4909 0.26347 4.0178 6.4549-0.26346 13.305-0.3952 19.76-0.3952s13.042 0.13173 19.496 0.3952c1.1856-0.52693 1.3173-3.0957 0.26346-4.0178l-3.2274-0.3952c-6.9159-0.85626-8.2333-1.2515-8.2333-16.071zm56.118 51.968c0 14.82-1.3173 15.215-8.2333 15.94l-5.401 0.52693c-1.0538 0.98799-0.85626 3.4909 0.26347 4.0178 6.5866-0.26346 15.544-0.3952 21.999-0.3952h16.73c17.125 0 29.771 0.13173 36.226 0.3952 2.0418-3.7544 5.2693-14.359 6.1256-20.221-0.85626-1.3832-3.3592-1.8443-4.6765-0.85626-5.1376 11.329-8.365 15.347-26.939 15.083-12.317 0-14.82-1.1197-16.532-3.0957-2.1736-2.3712-2.5029-7.377-2.5029-14.491v-17.718c0-3.4909 0.13173-3.7543 3.5568-3.7543h7.0477c12.778 0 15.215 0.26346 16.269 6.1256l1.0538 5.5986c1.1856 0.85626 3.952 0.85626 4.6765-0.13173-0.13173-4.4789-0.46106-9.353-0.46106-14.622 0-5.1376 0.26346-10.209 0.46106-13.964-0.72453-1.1197-3.4909-1.1197-4.6765-0.13167l-1.0538 4.7423c-1.0539 5.9938-3.4909 6.1256-16.269 6.1256h-7.0477c-3.3592 0-3.5568-0.13173-3.5568-3.7544v-23.58c0-7.9698 0-8.2333 6.3232-8.2333h9.814c3.952 0 8.365 0.26349 11.724 1.2515 4.6765 1.1197 6.9159 4.6106 9.2213 12.712 1.1856 0.85626 4.0837 0.52693 4.6765-0.52693-0.85626-5.9938-1.7784-17.059-2.3712-19.431-1.9101 0.26347-10.407 0.3952-19.76 0.3952h-27.993c-6.4549 0-13.371-0.13173-18.904-0.3952-1.1856 0.52693-1.3173 3.0957-0.32933 4.0178l2.3712 0.26346c6.916 0.98799 8.2333 1.3832 8.2333 16.203v51.903zm106.24 0c0 14.82-1.3173 15.215-8.2333 16.071l-3.2274 0.3952c-1.3173 0.98799-0.85625 3.4909 0.32934 4.0178 6.7183-0.26346 13.371-0.3952 19.76-0.3952 6.4549 0 13.042 0.13173 19.496 0.3952 1.1856-0.52693 1.3173-3.0957 0.26346-4.0178l-3.2274-0.3952c-6.9159-0.85626-8.2333-1.2515-8.2333-16.071v-17.85c0-2.964 0.13174-3.0956 4.5448-3.0956 4.8082 0 6.4549 0.59273 9.0895 4.7423 3.4909 5.4669 7.6405 13.107 11.592 18.97 8.9578 12.976 16.532 18.443 30.628 18.443 5.1376 0 7.9039-0.3952 9.6823-0.85626 0.46106-0.72453 0.46106-2.2394-0.26347-2.7664-1.7784-0.13173-5.9938-0.98799-10.078-4.3472-6.916-5.4669-14.227-17.323-25.951-36.16-0.59279-0.85626-0.85626-1.976 0-2.3712 7.1794-2.7664 17.586-9.2213 17.586-22.065 0-10.078-5.401-16.598-12.91-20.353-6.4549-3.3592-16.401-4.7423-27.861-4.7423-11.988 0-24.502 0.3952-33.723 1.2515-1.1856 0.72453-1.1856 2.8981-0.13173 3.8861l3.8202 0.3952c6.9159 0.72454 7.0477 2.3712 7.0477 15.742zm16.993-60.004c0-6.4549 0.13173-6.8501 7.7722-6.8501 12.778 0 20.221 9.6165 20.221 20.682 0 13.239-6.5866 19.957-20.945 19.957-7.0477 0-7.0477-0.26346-7.0477-4.7424z"/>
		<path d="m649.96 3.952h28.257l-5.2693 13.7h-22.987zm40.574 0h41.825l-3.7544 13.7h-29.771v72.65h-13.568v-72.716z"/>
		<path d="m751.79 60.136-7.377 19.299-24.832-73.046 12.844-2.437zm48.214-56.447-33.197 86.548h-14.161l33.328-86.548z"/>
	</g>
</svg>
