<?xml version="1.0" encoding="UTF-8"?>
<svg width="450" height="450" version="1.1" xmlns="http://www.w3.org/2000/svg">
 <rect width="450" height="450" fill="#008ea8" style="paint-order:markers stroke fill"/>
 <g transform="translate(332 -33.406)" fill="#fff" stroke-width=".47826">
  <path d="m38.556 448.73-18.383-47.784h-18.045l9.3e-6 47.784h-12.435v-47.784h-18.174l-1.8e-5 -11.478h57.755l15.64 40.652 15.75-40.652h13.227l-23.698 59.262h-11.636z"/>
  <path d="m-295.11 434.96c-9.9537-2.9541-32.612-14.792-15.954-24.794 28.003-14.624 59.53-20.498 89.818-28.541 106.51-23.927 215.17-38.85 324.25-44.267-3.6089 2.1412-24.609 4.0114-35.309 6.1606-94.105 15.58-188.52 31.355-280.35 57.539-23.108 7.3998-47.271 14.72-65.8 31.143-4.9341 3.3181-10.87 4.5065-16.647 2.7583z"/>
  <path d="m-265.7 373.91c-3.7931-1.0242-10.738-4.5587-14.386-7.3216-6.6683-5.0504-11.43-12.066-13.527-19.931-1.698-6.368-2.5411-21.22-1.7647-31.087 1.3372-16.994 4.9736-30.745 14.602-55.217 16.907-42.973 37.083-77.598 67.06-115.09 17.085-21.368 26.897-31.095 39.949-39.603 9.3499-6.0946 10.993-6.0886 19.291 0.0699 4.262 3.1633 8.2018 7.2956 8.647 9.0698 0.59137 2.3562-0.32391 6.0276-3.4615 13.884-10.069 25.213-22.128 48.109-37.476 71.148-14.759 22.155-32.284 45.043-50.657 66.158-8.0102 9.2056-12.157 15.315-16.773 24.711-6.5173 13.265-10.6 27.107-12.684 43.003-0.7171 5.4704-1.0221 20.969-0.44241 22.479 0.50929 1.3272 1.7408 0.84362 7.1227-2.7972 8.4305-5.703 12.784-9.4146 23.008-19.613 9.8135-9.7897 16.917-17.804 26.262-29.631 2.8884-3.6556 8.931-11.296 13.428-16.978 4.9941-6.3108 9.3511-12.379 11.195-15.592 1.6605-2.8934 4.6148-7.6627 6.5652-10.598 6.4615-9.7256 10.461-13.16 16.213-13.924 6.153-0.81727 11.749 1.0279 16.151 5.3255 2.8322 2.7652 3.8616 5.1435 3.5206 8.1343-0.3396 2.9786-4.8208 13.939-9.2162 22.541-2.1505 4.2087-6.8289 13.355-10.397 20.326-3.5677 6.9706-7.4553 15.149-8.639 18.174-2.3845 6.0934-4.0716 12.2-3.5223 12.75 0.19609 0.19608 2.0155-0.46439 4.0432-1.4677 12.742-6.3049 26.01-18.574 46.106-42.634l6.0141-7.2006 0.3417-3.5602c1.3632-14.204 5.5277-29.179 14.351-51.604 16.907-42.973 37.083-77.598 67.06-115.09 13.725-17.166 23.977-27.992 32.667-34.497 5.3535-4.0075 12.651-8.6529 14.206-9.0432 0.60403-0.1516 1.0982-0.46752 1.0982-0.70205 0-0.5825 3.7262-0.54175 4.4441 0.0486 0.31769 0.26125 2.2619 1.5791 4.3205 2.9285 4.3756 2.8682 8.942 6.9667 10.412 9.345 1.6491 2.6683 1.1037 5.7598-2.6937 15.269-10.1 25.292-22.141 48.156-37.505 71.221-14.759 22.155-32.284 45.043-50.657 66.158-3.815 4.3844-8.4095 10.231-10.21 12.993-12.406 19.03-19.98 44.95-19.98 68.376 0 8.6105 0.13799 9.5783 1.3664 9.5824 0.99106 3e-3 10.016-6.0823 15.373-10.366 5.1552-4.1225 16.784-15.442 23.438-22.815l5.1249-5.6783 0.31513-4.0998c0.81027-10.541 5.8123-27.394 12.08-40.699 6.4245-13.638 18.198-30.324 27.61-39.128 5.5025-5.1474 13.372-8.2503 23.539-9.2812 20.315-2.0599 36.922 8.8338 40.199 26.369 1.4978 8.0144 0.08391 22.324-3.4731 35.152-3.5666 12.863-11.223 28.398-19.418 39.4-4.0968 5.5002-14.979 16.537-19.98 20.265-10.337 7.7048-20.659 9.7946-30.499 6.1749-6.714-2.4699-15.053-7.9909-20.661-13.68-1.7022-1.7266-3.4239-3.1392-3.8261-3.1392-0.40216 2e-5 -4.067 4.0353-8.1442 8.9673-4.0771 4.932-11.394 12.966-16.261 17.853-7.5411 7.5732-9.3353 9.1244-12.149 10.504-5.8908 2.8876-11.338 2.4285-19.655-1.6564-13.221-6.4933-20.877-17.293-22.141-31.232-0.27161-2.9959-0.48988-3.7175-1.1243-3.7175-0.43301 0-3.1082 2.6902-5.945 5.9782-8.6982 10.082-18.318 20.363-28.289 30.235-10.356 10.253-12.474 11.72-18.561 12.858-10.138 1.8951-24.098-4.9096-28.714-13.996-1.7591-3.4631-3.0945-8.8231-3.4065-13.673-0.17741-2.7578-0.48327-4.4148-0.81214-4.3998-0.29016 0.0132-3.2136 3.613-6.4966 7.9994-9.4935 12.684-19.616 24.534-28.924 33.859-7.3345 7.3476-9.1273 8.8886-11.957 10.278-3.9165 1.9233-8.3553 2.3278-12.692 1.1568zm255.63-69.049c8.5383-4.0012 14.314-8.8869 22.393-18.944 4.1643-5.1835 13.095-18.275 17.005-24.928 4.3298-7.3669 11.299-24.158 12.878-31.027 2.9562-12.859 2.3978-20.454-1.7934-24.389-1.3832-1.2984-1.8811-1.4487-5.3187-1.6048-4.5386-0.20611-4.771 0.0611-3.6202 4.1626 1.0881 3.8778 0.98439 5.0443-0.73498 8.2702-1.9085 3.5807-3.9937 5.4333-6.5813 5.8471-3.4562 0.55267-6.3616 2.2843-10.104 6.0222-8.3509 8.3402-17.405 24.962-24.534 45.038-4.0287 11.346-7.0086 25.081-7.0086 32.305 0 1.6849 0.02613 1.7078 1.6508 1.4441 0.90797-0.14734 3.5036-1.1361 5.7682-2.1973zm-207.32-85.061c27.266-37.275 36.876-52.741 45.628-73.434 2.3694-5.602 2.6092-6.7089 1.4014-6.4702-1.642 0.32459-20.922 28.256-30.643 44.393-8.8275 14.654-20.705 36.92-20.705 38.815 0 1.7938 1.3382 0.76986 4.3184-3.3044zm176-32.522c27.266-37.275 36.876-52.741 45.628-73.434 2.3694-5.602 2.6091-6.7089 1.4014-6.4702-1.642 0.32459-20.922 28.256-30.643 44.393-8.8275 14.654-20.705 36.92-20.705 38.815 0 1.7938 1.3381 0.76986 4.3184-3.3044zm-103.93 47.956c-9.7851-4.1593-10.388-4.8735-10.383-12.31 7e-3 -11.383 3.0627-21.752 8.0304-27.251 4.3344-4.7976 8.4902-4.9665 17.077-0.6939 8.8623 4.4097 11.692 8.0011 10.356 13.145-0.94613 3.6436-11.92 24.744-14.645 28.159-1.7498 2.193-3.1365 2.0536-10.436-1.049z"/>
 </g>
</svg>
