<svg xmlns="http://www.w3.org/2000/svg" width="332.234" height="450"><g fill="#0093dd" stroke="#0093dd" stroke-width=".501"><path d="M98.813 10.952h-1.126-.563l-1.126-1.126L94.872 8.7V5.32l.563-1.126.563-.563.563-.563h.563l.563-.563 1.126-1.69-1.126-.563h-.563-.563v.563l-1.126 2.253v.563l-1.126 2.253-.563 1.69-.563 1.69v.563 1.126 1.126l-.563 5.069v.563l.563.563v-4.506-.563-.563l1.126-.563.563.563.563.563 1.126-1.126 1.69-.563 1.126-.563zm2.816 10.138l1.69-1.126-.563-1.126-.563-.563h-.563-.563-.563l-1.126-.563H98.25h-.563l-.563.563v.563l-.563.563v.563l2.253 1.126h.563.563zm-5.069 3.942l-.563-.563-.563-1.126-.563-2.253v-.563-.563l-.563.563v.563l-1.126 2.253 1.126 1.69.563.563.563.563h.563l.563-.563zm6.196 0l2.253-.563v-.563-.563l-3.379 1.126-1.126.563.563.563zm-1.127 3.943h.563.563l-.563-.563h-.563l-1.126-.563zm1.127 3.379v.563h.563l1.126.563h.563.563l.563-1.126.563-.563v-.563h-.563-.563l-1.126.563zm10.701 0l-1.69-1.126-1.69 1.126v.563 1.69l.563.563h.563.563 1.126.563l.563-.563.563-.563.563-1.126v-.563h-.563zm79.976 5.069v-1.126l-.563-1.126-1.69-2.816-1.69-1.126h-3.379-.563l-.563.563-.563.563v.563l-.563 1.126v.563 1.69.563l1.126.563-.563-.563v-.563l1.126-.563h.563v.563.563.563l2.816.563h4.506z"/><path d="M79.101 49.814l-1.126.563.563 1.126h.563l.563-1.126v-.563zm252.318 161.641l-2.816-5.632v-2.253-.563l-.563-1.126v-.563l-1.126-.563-4.506-1.69h-.563-.563-.563-.563l-.563-.563-.563-1.69.563-1.126-.563-.563.563-.563.563.563.563-.563.563-1.69-.563-2.253-.563-.563-.563-.563-.563-.563-1.126-1.126-1.126-1.126v-.563l-1.69-3.379h-.563l-.563-.563v-.563-.563l1.126-1.126.563-.563 1.69-2.253v-1.69-3.379-.563-3.379-.563-1.69l-.563-1.126h-.563-.563-.563v-.563-.563-1.69l.563-.563v-.563-3.379l-.563-.563-2.816-.563h-.563l-.563-.563-.563-3.379v-1.69-.563l-.563-1.126v-.563-1.126-.563l1.126-.563.563-.563.563-3.379v-.563-4.506l-1.126-1.69-1.126-.563h-.563l-.563-.563h-.563l-1.126-.563-.563-.563-1.126-1.126v-.563l-1.126-1.126-1.126-1.126-1.126-.563-4.506-2.816-2.253-.563h-1.126-.563v-.563-.563-.563l.563-.563.563-.563v-.563-.563l-.563-2.253v-1.126-.563l.563-.563 1.126-1.126h.563l.563-.563 1.126-.563.563-.563 1.69-1.69.563-1.69.563-1.126.563-1.69v-.563-1.69l-.563-.563v-.563-.563-1.126h.563l1.126-2.253.563-1.126v-.563h-.563-.563l-.563-1.69v-1.126l-3.379 1.126v.563l-.563 1.126-1.126 1.69h-.563-1.126-3.379-.563v-.563-.563l.563-.563.563-.563h1.69 1.126.563l1.126-1.69.563-1.126v-.563l2.816-1.126v-.563l-1.69-3.942-.563-2.816v-1.126l-1.126-1.126-.563-1.126-.563-1.126v-.563-1.69-2.253l-1.126-3.379-.563-3.379v-.563l-.563-.563h-.563v.563l-.563.563-.563.563h-1.69-.563-.563l-3.942-1.126-1.126-.563-1.126-1.126-3.379-2.253-.563-.563.563-1.126 1.126-1.126.563-.563v-.563-.563l-.563-.563-2.253-2.253-1.69-3.942V52.63v-.563l-.563-.563-.563-.563-2.253-2.253-2.253.563-5.069 1.69-.563.563.563 1.126v.563.563h-.563l-.563-1.126v-.563l-.563-.563-.563-.563h-.563v-.563l1.126-.563-1.126-.563h-1.126v-.563-.563l-1.126-1.69v-.563l-3.379-.563h-.563l-1.126.563-1.69-1.69-1.126-3.379v-.563l.563-1.126-2.253-3.379h-1.126l-2.253.563-.563.563-.563 1.126v.563l-.563.563h-1.126l-2.816-1.126-2.816-.563-3.379 1.69-2.816 2.253-1.69 2.253v.563.563l.563.563h-.563-.563l-1.126-1.126v-1.126-.563l-.563.563v.563l-.563.563h-.563l-.563.563-1.69 1.126-1.126.563-.563.563-1.126 2.253-.563 1.69h-1.69l-2.253-.563-3.942 1.69h-.563-.563-.563-.563-.563-.563-.563-.563-1.69-.563-.563l-4.506 3.379-1.126 1.126-.563.563v.563.563.563l1.126-1.126.563-.563.563-.563.563-.563.563-.563-.563 2.253v.563l-1.69 2.253h-.563l-1.126.563-.563 1.126-.563 3.379v.563.563h-2.253 0l-.563-.563-1.126-.563h-1.126l-.563.563h-.563-.563-.563l-.563-.563v-.563-.563-1.126l-1.69-2.253h-2.816-.563l-1.126.563h-.563l-1.69 1.126-2.816 1.69 1.126 1.69-.563 1.126h-.563l.563-1.126-.563-1.69v-1.126-.563-.563-.563h-.563-.563-1.126-.563v-.563-.563l-.563-.563-.563-1.126v-.563-.563l1.69-1.69h1.126.563l1.69-1.69 1.69-1.69 1.69-1.126h.563l2.253-.563-.563-3.379-.563-3.942v-1.126-.563-2.253h-4.506-.563l-1.69 1.126-1.126 1.126-.563.563-.563.563-1.126.563h-.563-.563-.563-1.69-.563-.563l-1.126-1.126v-.563-.563l-.563-.563h-.563l-6.759-3.379h-1.126-.563-.563-.563-.563l-2.816 1.126v.563l-1.126 2.816v.563l-.563-1.126v-.563l.563-.563.563-.563-.563-2.253v-.563l.563-1.126v-.563l-.563-.563-.563-.563-.563-.563h-.563l-2.253.563-2.816.563h-.563l-1.126.563h-.563-1.126l-.563-.563h.563v-1.126l1.69-.563 1.126-.563.563-.563.563-.563 1.126-1.69v-2.816-1.69-1.126l-1.69-6.195-.563-1.126-.563.563-.563-.563-1.126 1.69h-.563-.563l-.563-.563-3.942-4.506-1.69-.563-2.253-1.126.563-1.126v-.563l-1.126-.563-2.816 2.816h-.563-.563l-.563.563h-.563l-1.69.563v.563l-.563.563h-.563-2.816l-.563-1.126v-.563l-1.126-.563-1.69-1.126h-.563-.563-.563-1.126-.563-.563l-.563-.563-1.69-.563h-.563-1.69-2.253-.563-.563-.563-2.816l-.563-.563h-.563-1.126l-.563 1.69v2.253l1.126 1.126 1.126 1.69.563 1.126.563 2.253 1.126 3.379.563.563h1.126l.563.563 1.69 2.253 3.379 5.069.563 1.69v.563.563l-.563.563-2.816 2.816-.563.563-.563.563h-.563l-.563-.563h-.563l-3.942.563-.563 1.126v.563 1.126l-1.69 1.126h-.563l-.563-.563v-.563h-.563v.563.563.563.563.563l.563.563h.563l2.253 1.126.563.563.563-.563h1.126.563 2.253v.563.563.563 1.69l-.563.563-.563 1.126v.563l.563 2.816.563.563.563.563h.563l.563-.563h.563.563l1.69 3.942v.563.563h-.563-.563-.563l-1.126-.563h-.563l-.563.563-.563.563 1.126 1.69.563 1.69v.563l.563 1.126.563.563 1.126 1.126h1.126l.563-.563v1.69h.563.563 1.69 2.253 1.126 1.126l2.253 1.126.563.563h0l-1.126-.563h-1.126-1.126-2.253-1.69-.563-.563-.563-.563v.563l.563 1.126v.563l-1.126-.563h-.563-1.126-1.126-2.816-1.126-.563-.563l-.563-.563-1.69-1.126-.563-1.126v-.563h-.563-.563l-1.126.563-.563.563-1.126 1.69-.563 1.69-.563.563-2.253 6.195v.563.563 1.126l.563 1.69.563 1.126-.563.563.563.563.563 2.253h0-1.126v-.563l-.563-1.126V85.3l-1.126-.563h-.563-.563l-2.253-1.126-.563-.563-.563-.563-.563-.563v-.563l-.563-.563h-.563-.563l-.563.563-.563.563v.563 1.126 2.253H90.4h.563l1.126-.563v.563 1.126 2.253.563.563l-.563 1.126v.563l-.563.563-.563.563h-.563-.563-.563-.563l-.563-.563-.563-1.126-.563-.563h-.563-.563l-.563.563-.563-.563-.563-.563v-.563-.563-.563-.563-1.126l.563.563h.563l1.126-.563h.563.563v-.563-.563l-1.69-4.506-.563-.563-.563-.563h-1.69l-.563-.563v-.563-1.126-.563-.563h-.563-1.69-1.69l-3.379.563-1.69.563h-.563-.563-.563-.563l-2.253.563-2.253.563H65.02h-.563-.563-.563l-3.942-.563h-1.126-.563-.563l-1.69.563-.563.563-1.69 1.126-.563.563-2.816 2.816v.563l.563.563 2.253 1.69h.563l.563 1.126-.563.563-1.126 1.126-.563-.563-1.69-1.126-1.126 7.322v1.69l-.563 1.126v.563l.563.563h1.126 3.942 1.69.563.563l1.126.563h-1.69-.563l-.563 1.126-.563 2.816v2.816l-.563 1.126-.563.563-.563 1.126v.563.563.563 1.69l.563 5.069v.563l-.563 1.126-.563 2.253-2.253 3.379-1.126 1.69-.563 2.253-.563 3.379v2.253L47 138.803l-.563.563h-1.126-.563l-2.816-.563H37.99h-1.126-.563l-1.126 1.126v2.253 2.253l-.563 1.69v.563 1.126l1.69 1.126h.563l5.632 1.69.563-.563.563-.563.563-.563h.563l2.253 4.506v1.126 1.126l-.563.563-.563.563-.563 1.69v.563.563l.563 1.126.563.563-1.69.563-3.942 2.816-1.126 1.126v.563l-.563.563v.563h-.563l-.563.563-2.816.563-1.126 1.69-.563 1.69 1.126 1.126 2.816 1.69v.563 1.126l-1.69 2.253-.563.563-.563.563-1.126.563-1.126-.563v-.563h-.563l-3.379 1.126-1.69.563-.563.563h-.563-2.816l-1.126-.563-.563.563v.563l.563 1.69-.563-.563-1.126-.563-1.69-1.126-.563-.563h-.563-2.816l-1.126.563-2.816.563-1.126-.563-2.253 1.126-1.126 1.69 1.126 3.942 1.126 3.379v.563l1.69.563v2.816.563l1.69 1.69.563.563 1.69 2.253v1.126l.563 2.253v1.126l-.563 1.126-.563 1.69.563 2.253-1.126 1.126-3.942 5.069-.563 2.253v1.69.563h.563.563l.563-.563 1.126-.563h.563l.563.563h-.563l-1.126.563-.563 1.69-4.506 2.816-3.379 1.126-1.69 1.126v1.69l1.126 1.69.563.563h1.126H5.32h.563l-.563.563v.563 1.126.563l1.126.563h1.126v.563.563l-.563.563v.563h.563v.563.563l-.563 1.126h-.563v-.563h-.563l-.563.563h-.563v.563l-.563 2.816 1.126 2.253 2.816 1.69 1.126 2.253v.563l.563.563v.563l.563.563h-.563l.563.563 1.69.563-.563 2.253-1.69 1.69v1.126l.563.563v.563l1.126 1.69.563-.563h.563.563 1.126.563v.563h.563v.563l1.126 1.69v1.126 1.69l-.563.563v.563 1.126l1.126 1.126.563.563v.563.563h-1.69l-1.126-.563-.563.563h-.563l-.563 1.126v.563l-4.506 2.816v1.126 2.253l-1.126 1.126-1.126 3.942-.563 1.69 1.126 3.379.563 1.69v.563l.563.563 1.69 2.816 1.126 1.126 3.379 2.253 1.69 1.69 1.126.563h.563l1.126-.563 1.126.563v2.816l-.563 2.816-3.379 5.632-.563.563h-.563v.563h-.563l-.563 1.126.563 1.126-.563 1.126v.563 3.379h1.126.563.563l1.69.563 2.253 1.69.563.563v.563h-.563v.563l1.126 3.379.563 1.126v.563l.563.563h.563l.563.563 1.126 1.126.563 1.69v1.126l1.69.563v1.126l-.563 1.126v.563l.563.563 3.379.563h.563l.563-1.126h.563l-.563-1.126v-.563h-.563v-.563l1.126-.563 2.253.563h.563l1.126.563 1.69 1.126.563 1.126v1.126l.563 1.69v.563h.563l1.126-1.126.563-1.126.563 1.126.563.563.563.563.563-.563h.563 2.253l1.126.563h.563v.563l.563-.563 2.253-1.69.563-.563h-.563v-.563h.563l1.126-.563h1.69l1.69 1.126v.563.563.563l1.126 2.253.563.563.563.563 2.816 1.69 1.69.563h1.69 1.126.563l1.69-.563 2.816.563h.563.563l2.253.563 2.816 1.69.563.563 1.126.563 1.69.563.563.563h-.563l-1.126.563-1.69 2.816-.563 1.126v.563.563l-.563 1.126v.563.563.563.563.563l-.563.563-.563.563-1.69 1.126-1.126.563-.563 2.253-2.816 2.816h-.563l-.563.563-.563.563-1.69 2.816v.563.563 2.253.563.563l-1.126 2.816-1.126 2.816v.563.563.563 3.379.563l.563 2.253-1.126.563-.563 2.253-.563 1.126v.563l-1.126 1.69-1.126 1.69-1.126 1.69-.563 1.69v2.253l1.126 1.69v.563.563.563.563l-.563.563v.563l-1.126 1.69-1.126 2.816v.563.563.563.563.563.563l-.563 1.69-.563 1.126v.563l.563 1.69v.563.563.563l-1.126.563v1.69l2.253 3.379 2.816 1.126v.563.563l-1.126.563.563.563v.563h.563.563l2.253-.563 1.69-.563h.563l2.253-1.126.563-.563h2.253l.563 1.126 1.69.563 2.253.563 2.816-.563v-.563l3.379-2.253 1.69.563h1.126.563v.563l1.126 1.126 3.942.563h1.126l1.126-.563h.563v-.563l-.563-1.126 2.253-1.69h.563l.563.563.563.563v.563.563h.563l.563-.563.563-.563.563-1.69v-.563l-.563-1.126H94.3h-.563l-.563.563v.563l-2.253 1.126-2.253-1.69v-.563-1.126l1.69-3.379.563-.563.563-.563h.563l2.253-.563v-.563l.563-.563 1.69.563v1.69l.563.563.563-.563v-.563-.563h1.126l1.126.563.563 1.126-.563.563v.563l.563 2.253 2.253 1.126h.563l.563-.563 2.816 2.253.563.563 1.69-.563 2.816-1.69h.563l.563-.563h.563 1.126l1.126.563 1.126.563 1.69.563h.563l1.126-.563v-1.126l-1.69-2.816-1.126-.563h-.563l-1.69-1.126c1.126 0 2.253.563 3.379.563l1.126.563.563.563v.563.563.563l.563.563.563.563 1.69 1.126 1.126.563h.563.563.563.563.563.563l2.816 1.126h.563l.563.563v.563.563.563l2.816.563h.563.563l-1.126.563v.563l.563.563 2.253.563 1.69.563 1.69-1.69v-.563l.563-.563h1.126l1.126.563v.563 1.126l-.563.563 2.253 1.126h1.69.563l1.126-.563v.563.563l1.126 2.253h.563.563l1.126.563 1.126 1.126.563.563.563.563-.563 1.126-.563.563 1.126 2.816 2.253-.563.563-.563h-.563l.563-.563v-.563l2.253.563v.563l-.563.563v.563l-1.69 3.379v.563.563.563l2.816-.563 1.126-.563 1.69-1.126 1.126-.563 2.816-3.942 2.253-2.816-.563-2.253v-.563h-.563-.563v-.563-.563-4.506-.563h1.126l.563.563-.563.563v.563h-.563l.563.563 1.126.563h1.126l1.69.563h.563v-1.126l.563-.563v-.563h1.126l2.816.563v.563l2.816 1.126 1.126.563 2.253-1.126h1.126l1.126 1.126-1.126.563-.563.563v.563.563h.563l1.69.563 1.126 1.126 1.126 1.126v.563h-.563v.563.563h.563.563l.563.563 2.816-.563 1.69-.563 1.126-.563 1.69-1.126h1.69.563v.563l-.563.563-.563 1.126h1.69l.563-.563.563-.563v-.563l3.379-2.816 1.126-1.126v-.563l.563-.563h.563.563l1.69.563 2.816-.563.563-1.126v-.563-.563-.563l.563-1.126 1.126-1.126.563.563h5.632 1.69.563l.563-1.126 1.69-.563 2.253-.563 2.253.563 1.126-.563 1.126.563h1.69 2.253.563.563v-.563l-.563-1.126v-.563l-.563-1.126v-2.253l2.253-2.253h.563v.563.563l-.563.563 1.126 1.69 2.253-1.126v.563l1.126.563h2.816v.563l1.126 1.126 1.69 1.126h.563l2.253-1.126.563-1.126.563-.563 2.253-.563h.563.563l2.253.563.563.563 1.69 2.816-.563.563-.563 1.126.563.563v1.126h.563l4.506 3.379 1.69.563.563.563 1.126.563h.563l1.126-1.69v-.563-1.126-.563h-.563v-.563-2.253l.563-.563.563-1.69 1.126-.563v-.563-.563l-1.126-2.816-1.126-1.126-1.126-.563-.563.563-.563.563h-.563-1.69l-.563-.563-.563-.563 2.253-3.942 1.69-2.816v-.563l-1.69-2.816-1.69-2.253v-.563h-.563v-.563h-1.69v-.563l-.563-1.69v-.563l-.563-.563h-.563l-1.126-1.126-1.126-1.126-.563-.563v-.563l-.563-.563v-1.126l.563-.563 1.126-1.126 1.69-1.126.563-.563.563-1.126v-.563-.563h1.69 1.126.563v-.563h.563l1.126-1.69v-.563h.563v-.563l2.253-1.126h.563 1.126.563l1.69-1.126h2.816l2.253-1.69h.563l2.816-2.816v-.563h.563l.563-2.816v-.563l-.563-1.126v-.563l.563-.563.563-2.253-.563-1.69-.563-.563h1.126.563l.563-.563.563-.563v-.563-.563l2.816 1.126 2.816 1.69h.563l1.69 1.126h.563l2.816-3.379.563-2.816v-1.126l-.563-2.816-.563-1.69.563-.563v-1.126l.563-1.69-.563-1.126-3.379-5.069h-.563v.563h-.563-.563-.563-.563l-.563-1.126v-.563l-.563-1.126-.563-.563-1.69-1.69h-2.253-.563v.563.563.563h-.563l-2.253-1.69-.563-.563-.563-2.253-.563-1.126v-.563l-2.253-2.253-.563-.563-1.126-.563-.563-.563-1.126.563h-.563-1.126l-.563-.563-.563-.563-.563-.563v-1.69h-.563l-1.126-1.126-.563-.563-2.816-4.506-1.69-1.69-1.126-.563-.563-.563-1.69-.563h-.563-.563v.563h.563v.563h-.563l-2.816-.563h-.563-.563l-.563-1.69v-.563-.563l-3.942-3.379-1.126-1.126.563-.563v-.563-1.126-.563l-.563-.563v.563h-.563l-.563-.563h-.563v-.563l-.563-.563-1.69-3.379v-3.379l-.563-.563-2.253-1.126h-.563l-1.126-1.69-.563-.563v-.563l2.253-1.69v-.563l.563-1.69v-1.126l1.126-2.253.563-.563v-2.253l-1.126-2.816h-.563l-.563-.563h-.563-1.126l-2.253-1.69-1.69-1.69-2.253-.563v-1.126l-1.126-.563-.563-.563h-.563v-.563l-.563-.563v-1.126-.563l.563-.563v-.563l-.563-1.126-.563-1.126-.563-.563-2.253-1.126-.563-.563.563-.563v-.563h.563l.563-.563-.563-1.69-1.126-.563h.563 1.126 1.126.563l.563.563 3.379 4.506v1.126.563h-.563v.563l.563.563.563.563h.563.563v-.563-.563-.563-.563h-.563l.563-1.69v-.563l1.126-1.69 1.126-1.69 3.942-5.632 2.816-.563 2.816-.563h.563l2.253-1.126 2.816-1.69 2.816 1.69 1.69 1.126 1.126-.563h.563l1.126-1.69v-.563-.563-1.126-1.126-.563h.563 3.379l1.69.563.563-.563 1.126-2.253v-.563l1.69-2.253 3.379-2.253h1.126l2.253 1.126 1.126-1.126.563-.563 1.126-2.253v-.563-.563l3.942-2.253h.563l3.942-.563h1.126l.563.563h.563.563l1.126-1.126.563-.563v-1.69l-.563-.563h1.126.563l4.506-1.69h.563l.563-.563 1.126-.563 6.195-3.379 2.816-1.126.563-1.126v-.563-.563h-.563-.563l-1.69-.563h-.563l-2.253-1.69v-.563l1.126-2.816.563-.563v-.563h.563v.563l.563.563 2.816 1.126h.563l2.253-.563v-.563-.563h.563l2.816 2.253.563.563 1.126 3.379.563 2.253-.563 1.69h.563l1.126.563 2.816 1.126 1.126.563h.563l.563-.563h.563v-1.69-1.126l1.126-1.69.563-1.126 1.126-1.126.563-2.253.563-1.69v-.563-1.69l.563-.563.563-1.126.563-7.885.563-.563.563-1.69v-1.69zM19.963 268.34h0l2.253-.563zm27.597-14.643h0 0v-.563zm17.46-102.504h0l.563 1.126-.563-1.126-.563.563v-1.126-.563l.563-.563.563-.563-.563.563v.563l-.563.563zm15.77 198.814zm32.103-238.802h-.563zm1.69 309.203h0 0zm34.356 6.759h-2.816-2.816l-3.379 3.379h-1.69v-.563h-.563-1.126l1.126-.563.563-.563h1.126 1.69l1.69-2.253c2.253.563 3.942.563 6.195.563zm3.942 1.126l-.563-1.126v.563.563zm.563-1.126h-.563 0 .563c-.563 0 0 0 0 0zm6.759-81.666zm5.632 5.632l-3.379-2.253-2.253-1.126h0l1.69 1.126zm1.69 3.379h-.563v-1.126zm11.264-286.675h-.563l1.126-.563h.563zm48.436 188.676zm.563 2.253l-1.69-.563 1.69.563.563-.563zm6.195-5.069v-.563l.563-.563zm83.918-56.321h0c-.563 0-.563-.563-.563-.563h.563zm-1.69-1.69h0c-.563 0-1.126 0-1.69-.563h.563zM80.227 73.469h-.563l1.126.563zm1.69 0l-.563.563 1.126 1.69-.563-1.126z"/><path d="M52.63 76.285l-.563.563.563.563h.563l4.506-.563h.563.563v-.563h-.563-.563-3.942-.563zm21.965-2.816h-1.126-1.126-.563-.563l-.563.563h2.253l2.253-.563zm-10.701 2.816l.563-1.69h-.563l-.563.563v.563zm14.08-2.816h.563 1.126l-2.253-.563v.563z"/><path d="M46.434 78.537l-2.816.563h.563l3.942-.563zm-7.885 2.817l-2.816 1.126v.563.563l1.126.563h.563.563l.563.563.563-1.126-.563-.563 2.816-.563-.563-.563-1.126-.563h-.563zm21.966-5.069l-.563.563h.563 1.126.563l-.563-.563zm16.896-2.816h-.563l.563.563zm178.538-41.678h-.563l-.563 1.126v.563l.563.563 2.253-1.126h.563v-.563l-.563-.563h-.563-.563zm3.943-7.322v1.126.563l1.69-.563 1.126-.563 3.942 1.69h1.126l1.126-.563v2.816 1.69h-1.126l-1.69-.563h-.563l-2.253-1.126v-1.69h-1.69-1.69-.563l-1.69.563-.563.563.563 1.69v.563h1.126 1.126l1.69 1.126-.563 1.126-1.126.563h-.563-.563l-2.816 1.126v.563l2.816.563h.563l-.563.563-3.379 1.69v1.126.563l1.126 2.816 8.448 2.816.563-.563v-.563-.563l-.563-.563h-.563l-.563.563h-.563v-.563l2.253-2.253 1.69-1.69.563-.563 5.632-.563.563 1.126-.563.563h-.563V40.8l1.126-.563.563-1.126.563-1.126-.563-1.126-1.126-1.69-.563-.563-.563-.563h-.563-.563l-.563-.563-.563-1.126v-.563-.563-.563-.563l1.126-1.126h1.126.563.563l.563-.563v-.563-1.126-.563l-.563-.563-.563-.563h-1.126-1.126l-1.126.563-1.69.563h-.563-.563l-.563-.563-.563-.563-.563-.563v-1.126-.563-.563h.563v-.563-.563h-1.69l-3.942-.563-1.126 1.126-.563.563-1.69 3.942v.563l1.69-1.69.563-1.126v-.563-.563l1.126-1.126h.563v.563.563.563l-.563.563zm-5.633 1.127l-1.126 5.632v.563 1.126l1.126-3.942.563-2.253 1.126-.563zm29.287 34.919l-.563.563-.563.563-.563.563-.563 1.126.563.563.563.563h.563.563 1.69l1.69-.563 2.253-1.126 3.942-.563.563-3.379-2.253-1.69-2.253.563-1.69-1.69v2.816l-2.253-.563-.563-1.126-.563-1.126h-.563v-.563l-.563-1.126v-1.126h-.563l-.563-.563-.563-.563-1.126-.563-1.126-2.253-.563-.563h-.563-.563v.563.563l1.126 1.126.563 2.816 2.253 3.379 1.126-.563v.563l.563.563v.563l.563 1.126v.563z"/><path d="M284.11 53.756h.563.563l.563.563.563.563 1.126 1.126v-.563l-1.69-1.69-1.126-.563h-1.69zm-86.735 9.575l2.253.563.563-1.69.563-1.126v-.563-.563h-.563-.563-.563l-1.126.563-.563.563v.563.563.563zm55.758-29.85l-2.816 1.126h2.253l.563-.563zm-20.839 4.505h0l5.069-1.69 1.69-1.126 1.69-.563h-2.253l-1.69-1.126h-.563l-1.126-.563-1.126 2.253-1.69 2.816z"/><path d="M230.041 41.929v.563l2.253-4.506-.563.563zm11.828-6.759v.563h.563 1.69 2.253 1.126l1.69-1.126h-.563-1.126-.563-2.253-2.816zM99.376 423.223h-1.69v1.126l.563.563 1.69-.563z"/></g><path d="M35.1 44.7c.9 0 1.2.5 1.2 1.1s-.4 1.1-1.2 1.1h-4.6c-.9 0-1.3-.4-1.3-1.3V35.1c0-.7.5-1.2 1.2-1.2.6 0 1.2.5 1.2 1.2v9.6h3.5zm2.2-4c0-2 .7-3.7 3.2-3.7 2.6 0 3.2 1.7 3.2 3.7v2.6c0 2-.7 3.7-3.2 3.7-2.6 0-3.2-1.7-3.2-3.7zm2.3 2.4c0 1.8.3 2.2 1 2.2s1-.4 1-2.2v-2.3c0-1.7-.4-2.1-1-2.1s-1 .4-1 2.1zm5.8-7.9c0-.9.4-1.3 1.1-1.3s1.1.4 1.1 1.3v5.7h0l1.9-2.9c.3-.5.7-.9 1.2-.9s1.1.3 1.1.9c0 .2-.1.4-.3.7L49.7 41l2 4.5c.1.2.1.4.1.6 0 .5-.5.9-1.1.9s-.9-.2-1.2-.8L48.2 43l-.7.9v1.9c0 .9-.4 1.3-1.1 1.3-.6 0-1.1-.4-1.1-1.3zm13.8 9.5c0 .6.1 1.1.1 1.4 0 .6-.4.8-1.1.8-.6 0-1.1-.3-1.1-1.2h0c-.4.9-1.2 1.2-2 1.2-1.3 0-2.2-.8-2.2-2.5 0-1.4.4-2.3 1.5-2.9l1.9-1a1.04 1.04 0 0 0 .7-1c0-.5-.3-.9-.8-.9-.7 0-1 .4-1.1 1.1-.1.4-.5.7-1 .7s-1.1-.2-1.1-.9c0-1.7 1.3-2.5 3-2.5 2.9 0 3.2 1.3 3.2 2.8v4.9zM57 41.9l-.8.5c-.9.7-1.1 1-1.1 1.8 0 .7.3 1.1.8 1.1.7 0 1.1-.8 1.1-1.8zm4.1-6.7c0-.9.4-1.3 1.1-1.3.6 0 1.1.4 1.1 1.3v10.5c0 .9-.4 1.3-1.1 1.3s-1.1-.4-1.1-1.3zM44.7 56.4c.9 0 1.2.5 1.2 1.1s-.4 1.1-1.2 1.1h-1.9v9.6c0 .7-.5 1.2-1.2 1.2-.6 0-1.2-.5-1.2-1.2v-9.6h-1.9c-.9 0-1.2-.5-1.2-1.1s.4-1.1 1.2-1.1zm2 1.8c-.1-.2-.2-.8-.2-.9 0-.6.5-1.1 1.2-1.1s1.1.3 1.2 1l1.8 9.3h0l1.5-9.1c.1-.7.4-1.2 1.2-1.2.7 0 1.2.4 1.2 1.1 0 .3-.1.6-.1.9l-2 9.8c-.2 1.1-.7 1.3-1.8 1.3-1.2 0-1.5-.5-1.7-1.4z" transform="matrix(5.632114 0 0 5.632114 -99.437352 -32.978408)" fill="#fff"/></svg>