<svg xmlns="http://www.w3.org/2000/svg" width="755.868" height="434.623" viewBox="0 0 199.99 114.994"><path d="M16.73 0h166.53C192.528 0 200 7.462 200 16.73v51.302c0 9.27-7.462 16.73-16.73 16.73H16.73C7.462 84.763 0 77.3 0 68.032V16.73C0 7.462 7.462 0 16.73 0z" fill="#fff" paint-order="normal"/><path d="M18.847 2.117h162.296c9.27 0 16.73 7.462 16.73 16.73v47.07c0 9.268-7.462 16.73-16.73 16.73H18.847c-9.27 0-16.73-7.462-16.73-16.73v-47.07c0-9.27 7.462-16.73 16.73-16.73z" paint-order="normal"/><path d="M25.77 19.336v46.64h40.78v-14.76H42.997v-31.88zm46.677 0v14.76h15.74v31.88h17.227v-31.88h15.74v-14.76z" fill="#fff" paint-order="normal"/><circle r="26.096" cy="42.655" cx="156.227" fill="#ef7d00" paint-order="normal"/><path d="M145.63 26.338l-1.93 7.756h6.79v26.488h12.115V26.338z" paint-order="normal"/></svg>