<?xml version="1.0" encoding="UTF-8"?>
<svg width="800" height="346.72" version="1.1" xmlns="http://www.w3.org/2000/svg">
	<path d="m379.7 76.912v-9.6644c0-5.9902-3.4802-9.3475-9.3893-9.3475h-35.232v16.765h14.901c5.2748 0 7.4144 2.981 7.4144 7.411v42.26c0 0.98137 0.21838 1.4849 0.86034 1.6934 0.6742 0.20901 1.2662-0.0471 1.8169-0.62069 4.9841-5.2368 16.665-17.749 24.255-25.129 17.202-16.733 30.859-23.787 42.787-23.787v-20.441c-15.133 0-20.288 2.233-29.225 6.9799-6.5658 3.4933-14.09 9.7534-18.189 13.879zm-119.92-20.859c-36.777 0-53.918 31.748-53.918 51.912 0 14.699 3.8447 23.24 7.866 29.809h24.926c-4.4771-6.611-10.429-16.265-10.429-29.809 0-16.414 13.12-31.47 31.463-31.47 14.025 0 24.05 9.2887 29.822 13.845 8.4055 6.6319 21.791 17.612 28.047 23.23 0.5886 0.53711 1.1354 0.83506 1.8096 0.61682 0.64547-0.19733 0.86373-0.70626 0.86373-1.6784v-103.16c0-5.9882-3.4802-9.3475-9.3888-9.3475h-35.23v16.766h14.382c5.2689 0 7.4105 2.9805 7.4105 7.4067v47.594c-12.689-12.839-26.695-15.71-37.624-15.71zm-145.42 18.357c4.1957-4.8625 17.855-18.357 40.922-18.357 12.77 0 23.35 6.2868 29.101 16.515 2.9922 5.3316 4.6764 11.439 4.6764 20.046v21.611h-22.307v-20.339c0-4.496-0.43697-6.9833-1.2706-9.1988-2.1489-5.7209-6.9414-8.1931-13.702-8.1931-10.224 0-18.879 7.2054-26.076 13.942-7.2419 6.7724-17.603 17.542-22.722 23.338-0.52398 0.59252-1.1388 0.82631-1.811 0.61731-0.64549-0.209-0.86568-0.70626-0.86568-1.6934v-19.856c0-11.126-5.9032-16.348-15.455-16.348-11.4 0-20.753 8.981-31.92 19.917-8.719 8.5382-16.712 17.094-27.941 28.856-0.54342 0.57355-1.1335 0.81998-1.8135 0.61146-0.63966-0.20316-0.86374-0.70284-0.86374-1.69v-42.112c0-4.4299-2.1382-7.411-7.4125-7.411h-14.901v-16.765h35.232c5.9085 0 9.3908 3.3572 9.3908 9.3475v9.6644s19.729-20.859 41.471-20.859c18.463 0 25.818 11.157 28.27 18.357zm619.13 152.71h-14.664v39.867h13.828c14.052 0 28.716-4.3366 28.716-20.658 0-16.108-13.012-19.209-27.88-19.209zm33.873 117.32-14.261-39.45c-4.7439-13.427-7.8402-17.557-22.927-17.557h-11.15v57.007h-29.946v-137.77h56.184c23.545 0 46.885 9.0909 46.885 36.559 0 19.005-14.047 30.363-31.808 33.464 12.385 2.4779 17.552 8.8823 21.887 20.448l17.775 47.302zm-172.99 2.2728c-33.669 0-57.836-17.354-57.836-52.878v-87.169h30.568v86.134c0 17.762 8.059 31.603 27.472 31.603 19.433 0 28.119-13.632 28.119-31.395v-86.343h30.568v85.931c0 35.524-25.401 54.116-58.891 54.116zm-124.98-115.67v113.4h-30.777v-113.4h-43.169v-24.373h117.12v24.373zm-155.51 113.4v-137.77h30.569v113.4h59.284v24.375zm-95.164 2.2728c-33.669 0-57.837-17.354-57.837-52.878v-87.169h30.57v86.134c0 17.762 8.0565 31.603 27.47 31.603 19.418 0 28.097-13.632 28.097-31.395v-86.343h30.566v85.931c0 35.524-25.408 54.116-58.866 54.116zm-113.16-2.2728-52.671-65.688v65.688h-30.57v-137.77h30.57v59.489l49.779-59.489h36.147l-58.043 64.446 63.003 73.329h-38.214" fill="#f9a70d"/>
</svg>
