<?xml version="1.0" encoding="UTF-8"?>
<svg width="800" height="307.47" version="1.1" xmlns="http://www.w3.org/2000/svg">
	<path d="m774.17 253.97c-13.432 0-19.058 11.826-19.058 23.536 0 11.479 5.6252 23.992 19.058 23.992s19.058-12.396 19.058-23.992c0-12.055-5.2823-23.536-19.058-23.536zm0 53.498c-17.448 0-25.831-14.005-25.831-29.962 0-15.731 9.1846-29.503 25.831-29.503 17.68 0 25.831 13.2 25.831 29.503 0 15.957-8.4933 29.962-25.831 29.962zm-45.92-1.2614v-57.056h6.2004v57.056zm0-70.377v-9.1841h6.2004v9.1841zm-40.638 18.139c-13.662 0-16.876 12.285-16.876 23.536 0 11.021 3.4432 23.992 16.876 23.992 12.744 0 17.221-13.43 17.221-23.992 0-10.565-4.707-23.536-17.221-23.536zm18.026 52.237-0.80476-9.53c-3.6727 7.2324-9.8733 10.791-17.794 10.791-16.876 0-23.076-15.382-23.076-29.962 0-15.156 6.2004-29.503 23.419-29.503 7.1186 0 14.351 4.131 17.221 10.791v-35.36h6.2004v64.06c0 6.0867 0.22955 12.4 0.57253 18.714zm-61.991-29.044h-1.4934c-10.907 0-27.324 0.79856-27.324 14.118 0 7.0026 5.6252 10.333 12.171 10.333 12.855 0 16.646-9.644 16.646-20.894zm0.9182 29.044-0.34567-9.3002c-2.9841 6.7724-10.562 10.562-17.678 10.562-10.103 0-18.485-5.1656-18.485-16.073 0-14.578 13.778-19.743 31.685-19.743h3.905v-2.9876c0-8.9519-2.9868-14.807-12.744-14.807-5.8548 0-11.25 1.1477-16.187 4.4748l-0.68863-6.4276c4.4748-2.1826 11.71-3.902 16.646-3.902 13.892 0 19.171 7.6883 19.171 21.12v25.259c0 3.7891 0.23225 7.9213 0.80207 11.825zm-40.46-50.973c-1.4934-0.45909-2.9841-0.68783-4.4775-0.68783-11.939 0-14.121 13.546-14.121 22.5v29.161h-6.2004v-43.511c0-4.478-0.11343-9.0691-0.56983-13.546h5.6252l0.4564 10.675c2.182-5.7386 7.9234-11.822 14.81-11.822 1.6095 0 3.3298 0 4.9366 0.45882zm-48.442 50.973v-33.984c0-9.6429-2.0659-18.253-13.662-18.253-12.744 0-16.876 10.792-16.876 21.699v30.537h-6.2004v-43.511c0-4.478-0.11342-9.0691-0.57252-13.546h5.6252l0.34297 9.987c4.1318-7.2326 9.9894-11.135 18.485-11.135 14.807 0 19.058 10.1 19.058 23.303v34.902zm-71.868-52.349c-10.905 0-16.646 11.939-16.646 20.09h31.459c0-9.2981-3.905-20.09-14.812-20.09zm-16.646 25.598c0 11.481 5.971 22.158 18.715 22.158 4.8205 0 11.71-1.7205 15.841-4.1321l0.68865 7.0026c-4.9366 2.0654-11.25 2.9841-16.646 2.9841-18.253 0-25.372-13.43-25.372-29.962 0-14.008 8.2665-29.503 23.306-29.503 15.498 0 21.696 13.43 21.696 28.01v3.4432zm-35.126 28.013c-5.2823 0-10.562-0.57467-15.498-2.5253l0.68864-7.0026c4.4775 2.2955 9.4142 3.5572 14.464 3.5572 6.2004 0 12.401-3.3271 12.401-10.217 0-14.464-27.208-10.908-27.208-28.126 0-10.449 9.1819-15.153 18.253-15.153 4.4775 0 9.2981 0.91793 13.43 2.5223l-0.68595 6.0835c-3.4459-1.6033-8.3826-2.6382-12.169-2.6382-5.8548 0-12.169 1.8366-12.169 9.1852 0 11.02 27.321 9.068 27.321 28.126 0 10.333-9.1846 16.187-18.828 16.187zm-33.476-1.2614v-33.984c0-9.6429-2.0659-18.253-13.662-18.253-12.741 0-16.876 10.792-16.876 21.699v30.537h-6.2004v-82.775h6.2004v35.36c3.7916-7.2346 9.4169-10.791 17.68-10.791 14.121 0 19.058 10.1 19.058 23.303v34.902zm-63.598 1.2614c-17.221 0-26.519-13.889-26.519-29.962 0-16.533 10.103-29.503 27.321-29.503 4.4775 0 9.0685 0.91793 13.319 2.4083l-0.57523 6.4308c-3.6754-1.7205-7.9208-2.8715-12.053-2.8715-14.237 0-21.24 10.219-21.24 23.536 0 12.398 7.116 23.992 20.665 23.992 4.3614 0 8.6094-1.0316 12.628-2.5223l0.57523 6.3136c-4.5936 1.6047-9.3008 2.1793-14.121 2.1793zm-46.838-30.305h-1.4907c-10.907 0-27.338 0.79856-27.338 14.118 0 7.0026 5.636 10.333 12.182 10.333 12.857 0 16.646-9.644 16.646-20.894zm0.9182 29.044-0.34567-9.3002c-2.9814 6.7724-10.559 10.562-17.678 10.562-10.114 0-18.496-5.1656-18.496-16.073 0-14.578 13.789-19.743 31.699-19.743h3.9023v-2.9876c0-8.9519-2.9841-14.807-12.741-14.807-5.8548 0-11.253 1.1477-16.201 4.4748l-0.68864-6.4276c4.4802-2.1826 11.723-3.902 16.66-3.902 13.889 0 19.168 7.6883 19.168 21.12v25.259c0 3.7891 0.23224 7.9213 0.80476 11.825zm-70.96 1.2614c-5.7408 0-11.595-0.80476-16.875-3.2142l0.57171-7.5773c5.053 3.3303 10.679 4.3619 16.646 4.3619 9.9899 0 17.337-4.5909 17.337-15.154 0-7.2346-6.3155-11.251-13.663-15.381l-7.9202-4.478c-7.1174-4.0214-13.547-9.0712-13.547-17.91 0-13.087 12.054-19.632 23.994-19.632 4.9368 0 9.7563 0.69079 14.35 2.4124l-0.68865 6.8876c-3.905-2.1826-9.5295-2.8712-13.891-2.8712-8.4941 0-16.646 3.2164-16.646 12.86 0 6.1975 4.9371 9.8706 11.367 13.43l7.9203 4.477c8.0347 4.478 15.958 9.9899 15.958 20.319 0 13.664-11.251 21.469-24.912 21.469zm-68.978 0c-5.2828 0-10.563-0.57467-15.499-2.5253l0.68865-7.0026c4.4783 2.2955 9.4153 3.5572 14.465 3.5572 6.2008 0 12.4-3.3271 12.4-10.217 0-14.464-27.208-10.908-27.208-28.126 0-10.449 9.183-15.153 18.252-15.153 4.478 0 9.2989 0.91793 13.432 2.5223l-0.68891 6.0835c-3.4443-1.6033-8.3812-2.6382-12.168-2.6382-5.8548 0-12.168 1.8366-12.168 9.1852 0 11.02 27.322 9.068 27.322 28.126 0 10.333-9.1852 16.187-18.827 16.187zm-33.974-30.305h-1.4939c-10.905 0-27.322 0.79856-27.322 14.118 0 7.0026 5.6258 10.333 12.171 10.333 12.857 0 16.645-9.644 16.645-20.894zm0.91981 29.044-0.34594-9.3002c-2.9844 6.7724-10.562 10.562-17.679 10.562-10.103 0-18.484-5.1656-18.484-16.073 0-14.578 13.777-19.743 31.685-19.743h3.9042v-2.9876c0-8.9519-2.9854-14.807-12.742-14.807-5.8569 0-11.25 1.1477-16.187 4.4748l-0.69-6.4276c4.478-2.1826 11.71-3.902 16.647-3.902 13.892 0 19.172 7.6883 19.172 21.12v25.259c0 3.7891 0.22874 7.9213 0.80369 11.825zm-85.758-70.377h-11.02v64.176h6.4294c22.615 0 36.276-8.2675 36.276-32.032 0-20.202-11.594-32.144-31.685-32.144zm-4.9347 70.377h-12.973v-76.574h17.679c24.567 0 39.147 13.546 39.147 38.341 0 27.554-18.254 38.232-43.853 38.232zm473.48-114.83-28.231-62.545v62.545h-15.034v-76.545h24.788l28.345 62.661v-62.661h15.034v76.545zm-112.01 0v-76.545h49.922v11.704h-33.284v20.085h31.791v11.588h-31.791v21.462h34.316v11.704zm-46.922 1.2657c-7.9154 0-15.949-0.91765-23.524-3.3281l0.57252-13.086c6.6568 3.4443 14.002 4.5942 21.461 4.5942 7.1052 0 14.68-2.5266 14.68-10.676 0-5.8548-8.1502-8.951-13.649-11.361l-7.802-3.4443c-8.9524-4.0138-15.839-9.2937-15.839-19.737 0-16.641 17.1-21.921 31.091-21.921 6.5408 0 12.968 0.6908 19.279 2.4102l-0.57252 12.622c-5.393-2.2946-11.82-3.323-17.675-3.323-6.3004 0-15.139 1.8356-15.139 9.4099 0 5.2796 6.6568 8.1439 11.696 10.095l8.2637 3.2177c10.1 3.8977 17.559 9.2937 17.559 21.23 0 16.752-15.377 23.297-30.403 23.297zm-58.388-1.2657v-32.359h-30.413v32.359h-16.984v-76.545h16.984v30.524h30.413v-30.524h16.984v76.545zm-82.684 1.2657c-24.674 0-41.888-14.12-41.888-39.479 0-23.983 18.477-39.479 41.888-39.479 6.0814 0 13.427 1.0338 19.165 2.7532l-0.68891 12.743c-4.7049-1.9514-10.674-3.1013-15.837-3.1013-16.297 0-26.739 11.134-26.739 27.085 0 16.409 9.7528 27.085 26.394 27.085 5.6225 0 11.247-0.91792 16.411-3.2123l0.68891 12.39c-5.7386 2.2998-13.083 3.2174-19.394 3.2174zm-88.076-67.023-12.969 35.001h25.592zm22.952 65.757-6.7724-19.162h-32.592l-6.8846 19.162h-16.756l29.15-76.545h22.262l29.266 76.545zm-101.11 1.2657c-7.9181 0-15.952-0.91765-23.526-3.3281l0.57494-13.086c6.6555 3.4443 14 4.5942 21.459 4.5942 7.1155 0 14.689-2.5266 14.689-10.676 0-5.8548-8.1471-8.951-13.656-11.361l-7.803-3.4443c-8.9532-4.0138-15.838-9.2937-15.838-19.737 0-16.641 17.1-21.921 31.101-21.921 6.5415 0 12.968 0.6908 19.281 2.4102l-0.57386 12.622c-5.3949-2.2946-11.82-3.323-17.674-3.323-6.3125 0-15.148 1.8356-15.148 9.4099 0 5.2796 6.6563 8.1439 11.705 10.095l8.2632 3.2177c10.099 3.8977 17.559 9.2937 17.559 21.23 0 16.752-15.378 23.297-30.412 23.297zm178.38-149.91v-5.3687c0-3.3298-1.9336-5.1931-5.2166-5.1931h-19.575v9.3143h8.2789c2.9306 0 4.1194 1.6581 4.1194 4.1183v23.478c0 0.54551 0.12126 0.82638 0.47801 0.9398 0.37456 0.11612 0.70349-0.0243 1.0095-0.34297 2.7691-2.9112 9.2589-9.8625 13.476-13.962 9.5576-9.2981 17.145-13.216 23.773-13.216v-11.356c-8.408 0-11.272 1.2395-16.237 3.878-3.6479 1.939-7.8287 5.42-10.106 7.7101zm-66.629-11.588c-20.433 0-29.957 17.637-29.957 28.842 0 8.1665 2.1361 12.911 4.3703 16.561h13.849c-2.4875-3.6741-5.7946-9.0375-5.7946-16.561 0-9.1198 7.2896-17.486 17.481-17.486 7.7924 0 13.362 5.1607 16.569 7.6939 4.67 3.6835 12.107 9.7842 15.583 12.906 0.32704 0.29706 0.63086 0.46449 1.0054 0.34297 0.35864-0.11072 0.47989-0.39428 0.47989-0.9344v-57.316c0-3.3271-1.9336-5.1931-5.2164-5.1931h-19.574v9.3143h7.9907c2.9274 0 4.1172 1.6554 4.1172 4.1156v26.444c-7.0498-7.1349-14.832-8.7282-20.904-8.7282zm-80.797 10.2c2.3311-2.7032 9.9203-10.2 22.736-10.2 7.0952 0 12.973 3.4918 16.168 9.1765 1.6625 2.9598 2.5982 6.3544 2.5982 11.134v12.009h-12.394v-11.302c0-2.498-0.24278-3.878-0.70592-5.1094-1.1939-3.1785-3.8566-4.5531-7.6132-4.5531-5.6806 0-10.489 4.0022-14.488 7.7453-4.0235 3.7646-9.7801 9.7464-12.624 12.968-0.29112 0.32947-0.63274 0.45909-1.0062 0.34297-0.35863-0.11612-0.48097-0.39158-0.48097-0.9398v-11.034c0-6.1815-3.2798-9.082-8.587-9.082-6.3336 0-11.53 4.9906-17.735 11.067-4.8442 4.7448-9.2854 9.4979-15.524 16.03-0.30192 0.31866-0.62978 0.45639-1.0076 0.34027-0.35539-0.11342-0.47989-0.38888-0.47989-0.9371v-23.397c0-2.4602-1.188-4.1183-4.1183-4.1183h-8.2791v-9.3143h19.575c3.2828 0 5.2174 1.8634 5.2174 5.1931v5.3687s10.961-11.588 23.041-11.588c10.258 0 14.345 6.1977 15.707 10.2" fill="#66c430"/>
</svg>
