<svg xmlns="http://www.w3.org/2000/svg" width="282.504" height="156.852" viewBox="0 0 74.746 41.5"><path d="M31.693 6.42v-.807c0-.5-.29-.78-.784-.78h-2.94v1.4h1.243c.44 0 .619.248.619.618v3.527c0 .082.018.124.072.141.056.018.105-.004.151-.051.416-.438 1.391-1.482 2.025-2.098 1.436-1.396 2.575-1.985 3.571-1.985V4.679c-1.263 0-1.693.186-2.44.582-.547.292-1.175.815-1.517 1.158zm-10.01-1.741c-3.07 0-4.5 2.65-4.5 4.333 0 1.227.32 1.94.656 2.488h2.08c-.373-.552-.87-1.358-.87-2.488 0-1.37 1.095-2.627 2.626-2.627 1.171 0 2.008.775 2.49 1.156.701.553 1.818 1.47 2.34 1.938.05.045.095.07.152.052.054-.017.072-.059.072-.14V.78c0-.5-.29-.78-.784-.78h-2.94v1.4h1.2c.44 0 .619.248.619.618V5.99c-1.06-1.072-2.229-1.311-3.14-1.311zM9.545 6.21a4.518 4.518 0 0 1 3.416-1.532c1.066 0 1.949.524 2.43 1.378.249.445.39.955.39 1.673v1.804h-1.863V7.837c0-.376-.036-.583-.106-.768-.179-.478-.58-.684-1.143-.684-.854 0-1.576.601-2.177 1.163a35.167 35.167 0 0 0-1.896 1.948c-.044.05-.095.07-.152.052-.053-.017-.072-.059-.072-.142V7.75c0-.928-.492-1.364-1.29-1.364-.951 0-1.732.75-2.664 1.663-.728.712-1.395 1.426-2.332 2.408-.046.048-.095.068-.151.05-.054-.016-.073-.058-.073-.14V6.85c0-.37-.178-.618-.618-.618H0v-1.4h2.94c.494 0 .784.28.784.78v.807s1.647-1.741 3.462-1.741c1.54 0 2.155.93 2.36 1.532zm61.423 16.421v-1.559h3.778v1.56zM65.42 26.5l-3.688-8.17v8.17h-1.964v-9.999h3.238l3.703 8.186V16.5h1.964v10zm-14.632 0v-9.999h6.52v1.53h-4.347v2.623h4.153v1.514H52.96v2.803h4.483v1.53zm-6.13.166c-1.034 0-2.083-.12-3.073-.435l.075-1.71c.87.45 1.83.6 2.803.6.929 0 1.918-.33 1.918-1.394 0-.765-1.065-1.17-1.783-1.484l-1.02-.45c-1.168-.524-2.068-1.214-2.068-2.578 0-2.174 2.234-2.864 4.062-2.864.854 0 1.694.09 2.518.315l-.075 1.649c-.705-.3-1.544-.434-2.309-.434-.823 0-1.977.24-1.977 1.229 0 .69.87 1.064 1.528 1.319l1.08.42c1.319.51 2.293 1.214 2.293 2.773 0 2.189-2.01 3.044-3.971 3.044zm-7.627-.166v-4.227h-3.973V26.5h-2.219v-9.999h2.219v3.988h3.973V16.5h2.218v10zm-10.801.166c-3.223 0-5.472-1.845-5.472-5.158 0-3.133 2.413-5.157 5.472-5.157.794 0 1.754.135 2.503.36l-.09 1.664a5.71 5.71 0 0 0-2.068-.405c-2.13 0-3.493 1.455-3.493 3.538 0 2.144 1.274 3.538 3.448 3.538.734 0 1.469-.12 2.143-.42l.09 1.62c-.75.3-1.709.42-2.533.42zM14.724 17.91l-1.694 4.573h3.343zm2.999 8.59l-.885-2.503H12.58l-.899 2.503H9.492l3.808-9.999h2.908l3.823 10zm-13.209.166c-1.034 0-2.084-.12-3.073-.435l.075-1.71c.87.45 1.829.6 2.803.6.93 0 1.919-.33 1.919-1.394 0-.765-1.064-1.17-1.784-1.484l-1.02-.45c-1.169-.524-2.068-1.214-2.068-2.578 0-2.174 2.234-2.864 4.063-2.864.854 0 1.694.09 2.518.315l-.075 1.649c-.705-.3-1.544-.434-2.309-.434-.824 0-1.978.24-1.978 1.229 0 .69.87 1.064 1.529 1.319l1.079.42c1.32.51 2.294 1.214 2.294 2.773 0 2.189-2.01 3.044-3.973 3.044zm52.394 6.6V41.5h-2.235v-8.233H51.54v-1.77h8.504v1.77zM45.684 41.5V31.497h2.219v8.234h4.304v1.77zm-6.678-8.593l-1.694 4.574h3.344zm3 8.593l-.885-2.504h-4.26l-.9 2.504h-2.188l3.809-10.003h2.91L44.314 41.5zm-11.825 0v-4.23h-3.974v4.23h-2.22V31.497h2.22v3.99h3.974v-3.99h2.22V41.5zm-12.09 0l-3.689-8.173V41.5h-1.964V31.497h3.239l3.704 8.189v-8.189h1.965V41.5zM5.759 32.907l-1.694 4.574h3.344zm3 8.593l-.885-2.504H3.614l-.9 2.504H.524l3.81-10.003h2.91L11.066 41.5h-2.31" fill="#3d90d5"/></svg>