<?xml version="1.0" encoding="UTF-8"?>
<svg width="800" height="247.03" version="1.1" xmlns="http://www.w3.org/2000/svg">
	<path d="m621.61 206.57c-1.1546-0.35536-2.3112-0.53105-3.4679-0.53105-9.249 0-10.935 10.489-10.935 17.427v22.583h-4.8044v-33.699c0-3.4683-0.0858-7.0215-0.44132-10.49h4.3547l0.35558 8.2683c1.69-4.4446 6.1346-9.1589 11.47-9.1589 1.2466 0 2.5768 0 3.8234 0.35536zm-35.76 39.479v-44.189h4.8002v44.189zm0-54.505v-7.1123h4.8002v7.1123zm-21.374 54.505h-5.7812l-12.002-38.945-12.092 38.945h-5.7812l-14.405-44.189h5.4256l12.002 39.123 12.181-39.123h5.7812l12.092 39.123 11.914-39.123h4.8044zm-91.148-40.545c-8.448 0-12.893 9.2488-12.893 15.559h24.363c0-7.2014-3.0224-15.559-11.47-15.559zm-12.893 19.828c0 8.8893 4.6245 17.162 14.493 17.162 3.7335 0 9.0692-1.3342 12.269-3.202l0.53337 5.426c-3.8234 1.5996-8.7136 2.3106-12.893 2.3106-14.137 0-19.648-10.403-19.648-23.206 0-10.851 6.4003-22.852 18.048-22.852 12.002 0 16.806 10.403 16.806 21.695v2.6668zm-19.466 20.717v-44.189h4.8044v44.189zm0-54.505v-7.1123h4.8044v7.1123zm-21.37 54.505h-5.7791l-12.008-38.945-12.092 38.945h-5.7812l-14.403-44.189h5.4235l12.008 39.123 12.177-39.123h5.7812l12.092 39.123 11.916-39.123h4.8002zm-94.71-40.455c-10.402 0-14.76 9.1589-14.76 18.228 0 8.8893 4.3589 18.582 14.76 18.582 10.406 0 14.765-9.6025 14.765-18.582 0-9.3388-4.0932-18.228-14.765-18.228zm0 41.434c-13.514 0-20.004-10.848-20.004-23.206 0-12.184 7.1114-22.852 20.004-22.852 13.694 0 20.008 10.224 20.008 22.852 0 12.358-6.5802 23.206-20.008 23.206zm-34.221-0.97886v-44.189h4.8044v44.189zm0-54.505v-7.1123h4.8044v7.1123zm-29.876 14.05c-10.581 0-13.07 9.5143-13.07 18.228 0 8.5337 2.6668 18.582 13.07 18.582 9.8912 0 13.359-10.403 13.359-18.582 0-8.1842-3.6477-18.228-13.359-18.228zm13.98 40.455-0.62121-7.3785c-2.8466 5.6007-7.6469 8.3574-13.802 8.3574-13.07 0-17.873-11.916-17.873-23.206 0-11.738 4.8023-22.852 18.138-22.852 5.5344 0 11.136 3.2018 13.357 8.3574v-27.387h4.8044v49.614c0 4.7151 0.1757 9.605 0.44135 14.495zm-46.459-22.493h-1.1566c-8.448 0-21.163 0.62099-21.163 10.935 0 5.421 4.3568 8.002 9.4268 8.002 9.956 0 12.893-7.471 12.893-16.185zm0.70905 22.493-0.26563-7.2028c-2.3112 5.2453-8.1802 8.1817-13.692 8.1817-7.8268 0-14.317-4.0035-14.317-12.451 0-11.29 10.669-15.29 24.541-15.29h3.0244v-2.3131c0-6.9357-2.3133-11.47-9.8702-11.47-4.5346 0-8.7136 0.89061-12.537 3.4676l-0.53337-4.9799c3.4658-1.6879 9.0692-3.0222 12.893-3.0222 10.757 0 14.848 5.9544 14.848 16.36v19.561c0 2.9364 0.1778 6.1342 0.62121 9.1589zm-57.731-54.505h-6.5787v21.516h6.2233c7.0248 0 14.938-2.8425 14.938-11.115 0-8.5339-6.5802-10.402-14.583-10.402zm18.674 54.505-8.8035-20.271c-2.7584-6.3147-4.5354-7.9129-11.649-7.9129h-4.8v28.184h-5.3352v-59.305h14.226c9.6918 0 17.872 4.5346 17.872 15.381 0 7.381-6.3124 12.717-13.338 13.602 4.0887 0.80067 6.0464 3.6498 7.6486 7.2039l10.312 23.118zm-75.748 0.97886c-4.091 0-8.18-0.4453-12.004-1.9552l0.53273-5.4258c3.4683 1.7778 7.2919 2.7565 11.204 2.7565 4.8017 0 9.6042-2.5768 9.6042-7.9121 0-11.205-21.074-8.448-21.074-21.786 0-8.0926 7.1123-11.736 14.137-11.736 3.4683 0 7.2022 0.71072 10.403 1.955l-0.53274 4.7103c-2.6676-1.2403-6.4913-2.041-9.4245-2.041-4.5344 0-9.4243 1.42-9.4243 7.1114 0 8.5379 21.161 7.0273 21.161 21.786 0 8.002-7.1148 12.537-14.582 12.537zm-25.242-23.472h-1.156c-8.4457 0-21.161 0.62099-21.161 10.935 0 5.421 4.3572 8.002 9.426 8.002 9.9581 0 12.891-7.471 12.891-16.185zm0.71323 22.493-0.26793-7.2028c-2.312 5.2453-8.18 8.1817-13.693 8.1817-7.8238 0-14.315-4.0035-14.315-12.451 0-11.29 10.67-15.29 24.54-15.29h3.023v-2.3131c0-6.9357-2.3112-11.47-9.8679-11.47-4.5363 0-8.7144 0.89061-12.538 3.4676l-0.53336-4.9799c3.4683-1.6879 9.0698-3.0222 12.893-3.0222 10.759 0 14.849 5.9544 14.849 16.36v19.561c0 2.9364 0.17737 6.1342 0.62267 9.1589zm-64.659-54.505h-8.5364v49.705h4.9807c17.515 0 28.096-6.4024 28.096-24.811 0-15.645-8.9801-24.894-24.54-24.894zm-3.823 54.505h-10.047v-59.305h13.692c19.028 0 30.32 10.491 30.32 29.694 0 21.341-14.137 29.611-33.965 29.611zm399.56-111.87v-9.2438h22.399v9.2438zm-32.895 22.932-21.868-48.442v48.442h-11.642v-59.284h19.199l21.955 48.532v-48.532h11.642v59.284zm-86.751 0v-59.284h38.661v9.065h-25.777v15.556h24.62v8.975h-24.62v16.623h26.578v9.065zm-36.344 0.98034c-6.1305 0-12.353-0.71073-18.22-2.5777l0.44342-10.135c5.1558 2.6676 10.845 3.5582 16.622 3.5582 5.503 0 11.368-1.9569 11.368-8.2683 0-4.5346-6.3103-6.9326-10.569-8.7996l-6.0426-2.6676c-6.9336-3.1087-12.267-7.198-12.267-15.287 0-12.889 13.244-16.978 24.081-16.978 5.0638 0 10.044 0.53503 14.93 1.8667l-0.44134 9.7759c-4.179-1.7772-9.1549-2.5737-13.689-2.5737-4.8818 0-11.726 1.4217-11.726 7.288 0 4.0891 5.1558 6.3074 9.0587 7.8188l6.4024 2.4921c7.8226 3.0188 13.597 7.198 13.597 16.443 0 12.974-11.912 18.044-23.547 18.044zm-45.222-0.98034v-25.062h-23.556v25.062h-13.154v-59.284h13.154v23.641h23.556v-23.641h13.154v59.284zm-64.038 0.98034c-19.11 0-32.443-10.936-32.443-30.577 0-18.575 14.31-30.577 32.443-30.577 4.7103 0 10.398 0.80066 14.843 2.1324l-0.53273 9.8696c-3.644-1.5114-8.2666-2.402-12.266-2.402-12.623 0-20.709 8.6236-20.709 20.977 0 12.709 7.5534 20.977 20.442 20.977 4.3547 0 8.7113-0.71094 12.711-2.488l0.53336 9.596c-4.4446 1.7812-10.134 2.4919-15.021 2.4919zm-68.216-51.91-10.044 27.109h19.821zm17.778 50.93-5.2453-14.841h-25.243l-5.3319 14.841h-12.978l22.576-59.284h17.243l22.667 59.284zm-78.313 0.98034c-6.1328 0-12.356-0.71073-18.222-2.5777l0.4453-10.135c5.1547 2.6676 10.844 3.5582 16.621 3.5582 5.5109 0 11.377-1.9569 11.377-8.2683 0-4.5346-6.3108-6.9326-10.577-8.7996l-6.0435-2.6676c-6.9343-3.1087-12.267-7.198-12.267-15.287 0-12.889 13.244-16.978 24.088-16.978 5.0656 0 10.044 0.53503 14.933 1.8667l-0.44446 9.7759c-4.1784-1.7772-9.1549-2.5737-13.688-2.5737-4.8891 0-11.733 1.4217-11.733 7.288 0 4.0891 5.1554 6.3074 9.0658 7.8188l6.3997 2.4921c7.8224 3.0188 13.6 7.198 13.6 16.443 0 12.974-11.911 18.044-23.554 18.044zm754.65-49.799v48.815h-13.248v-48.815h-18.584v-10.491h50.418v10.491zm-66.548 48.815v-59.306h13.158v48.813h25.52v10.492zm-39.59-50.948-10.046 27.119h19.828zm17.785 50.948-5.2457-14.85h-25.254l-5.3336 14.85h-12.983l22.585-59.306h17.249l22.673 59.306zm-70.108 0v-25.075h-23.564v25.075h-13.158v-59.306h13.158v23.651h23.564v-23.651h13.16v59.306zm-71.677 0-21.874-48.46v48.46h-11.648v-59.306h19.207l21.962 48.548v-48.548h11.648v59.306zm-73.124-50.948-10.044 27.119h19.826zm17.783 50.948-5.2457-14.85h-25.25l-5.3357 14.85h-12.983l22.585-59.306h17.249l22.673 59.306zm-308.03-119.05v-4.7793c0-2.9659-1.7214-4.6266-4.6454-4.6266h-17.435v8.2974h7.3737c2.6097 0 3.6685 1.4746 3.6685 3.6666v20.912c0 0.48734 0.10871 0.73624 0.42564 0.83873 0.3334 0.10458 0.62749-0.02301 0.89961-0.30746 2.466-2.5915 8.2472-8.7826 12.004-12.437 8.5128-8.2785 15.271-11.769 21.173-11.769v-10.115c-7.49 0-10.04 1.1044-14.463 3.4532-3.2482 1.7277-6.9713 4.8274-9.0001 6.8667zm-59.345-10.32c-18.199 0-26.682 15.71-26.682 25.689 0 7.2746 1.9021 11.5 3.8922 14.751h12.336c-2.215-3.2723-5.1604-8.0495-5.1604-14.751 0-8.1217 6.4921-15.574 15.568-15.574 6.9407 0 11.902 4.5973 14.759 6.8521 4.1596 3.2817 10.783 8.7136 13.88 11.495 0.29178 0.26563 0.56137 0.41414 0.89479 0.30537 0.32021-0.09831 0.42731-0.3493 0.42731-0.83245v-51.052c0-2.9638-1.7216-4.6245-4.6457-4.6245h-17.435v8.2974h7.1173c2.607 0 3.6676 1.4746 3.6676 3.6645v23.553c-6.279-6.3543-13.211-7.7745-18.619-7.7745zm-71.964 9.0838c2.0759-2.4074 8.8353-9.0838 20.25-9.0838 6.3198 0 11.556 3.1102 14.403 8.1719 1.4806 2.6375 2.3131 5.662 2.3131 9.9204v10.694h-11.039v-10.065c0-2.2255-0.21585-3.4553-0.62832-4.5534-1.0638-2.8299-3.4357-4.0535-6.7814-4.0535-5.06 0-9.3419 3.5662-12.904 6.8981-3.5835 3.3528-8.7113 8.6822-11.244 11.55-0.25915 0.29492-0.5639 0.40995-0.89709 0.30537-0.31876-0.10248-0.42731-0.3493-0.42731-0.83873v-9.8242c0-5.5072-2.9209-8.0903-7.6492-8.0903-5.6415 0-10.27 4.4446-15.796 9.8577-4.3156 4.225-8.2708 8.4563-13.827 14.279-0.26961 0.28236-0.56118 0.40368-0.89792 0.30119-0.31688-0.1004-0.42794-0.3472-0.42794-0.83664v-20.839c0-2.192-1.0573-3.6666-3.667-3.6666h-7.3745v-8.2974h17.436c2.9232 0 4.6465 1.6607 4.6465 4.6266v4.7793s9.7634-10.32 20.523-10.32c9.1359 0 12.776 5.5197 13.989 9.0838" fill="#3d90d5"/>
</svg>
