<svg xmlns="http://www.w3.org/2000/svg" width="113.311" height="105.752"><path d="M88.807 17.956L84.847.87 72.85 3.649A37.582 37.582 0 0 0 56.654 0a37.594 37.594 0 0 0-16.147 3.621L28.632.87l-3.913 16.754a37.563 37.563 0 0 0-5.823 20.134c0 20.852 16.906 37.758 37.758 37.758 20.854 0 37.759-16.906 37.759-37.758a37.588 37.588 0 0 0-5.606-19.802" fill="#ef3645" stroke-width=".133"/><path d="M76.987 28.01a5.652 5.652 0 1 0-10.1 1.24l10.1-1.24M68.592 41.54l-4.076.517.238 1.885 1.721-.219a.733.733 0 0 1 .82.636l.657 5.171c-1.634-1.169-3.22-1.343-4.45-1.186-4.142.526-5.618 4.348-5.33 6.619.21 1.654.767 2.563 1.313 3.245l2.808-.358c-.598-.68-1.408-1.682-1.602-3.208-.234-1.848 1.028-3.73 3.094-3.993 1.58-.2 2.89.7 3.606 1.133.996.605 2.773 1.757 3.485 2.23a.16.16 0 0 0 .247-.152l-1.342-10.556-.118-.939a.955.955 0 0 0-1.07-.826m13.757 4.41c-1.706.217-2.253.543-3.191 1.205-.69.487-1.447 1.3-1.85 1.823l-.152-1.192a.956.956 0 0 0-1.07-.828l-4.077.518.241 1.889 1.784-.228c.402-.05.77.234.823.635l.621 4.894c.016.128.191.2.266.094.476-.666 1.752-2.287 2.5-3.226 1.698-2.131 3.053-3.11 4.398-3.28zm-28.492 10.28l-.337-2.648c-.103-.814-.85-1.52-1.804-1.399-.947.12-2.006 1.08-2.721 1.94-.719.866-1.849 2.28-2.352 2.977a.16.16 0 0 1-.29-.072l-.317-2.496a1.61 1.61 0 0 0-1.804-1.397c-1.085.137-2.246 1.313-3.348 2.705-.86 1.087-2.227 2.874-2.858 3.691-.089.117-.271.08-.29-.067l-.622-4.895a.733.733 0 0 0-.819-.636l-1.786.227-.24-1.888 4.075-.518a.958.958 0 0 1 1.072.83l.151 1.191s1.924-2.633 4.373-2.944c1.886-.24 3.122.818 3.446 1.664.473-.666 1.97-2.353 4.212-2.637 2.397-.305 4.206 1.496 4.454 3.454.134 1.058.317 2.598.317 2.598l-2.512.32M47.078 26.135a5.64 5.64 0 1 0-11.28 0 5.64 5.64 0 0 0 11.28 0" fill="#fff" stroke-width=".133"/><path d="M10.082 94.885l-1.978-.623c-.975-.3-2.82-.785-2.82-1.926 0-1.544 2.197-1.76 3.39-1.76 1.57 0 3.197.27 4.662.84l.134-3.714a22.64 22.64 0 0 0-5.23-.622c-3.576 0-8.24 1.083-8.24 5.5 0 2.685 1.6 4.12 4.011 4.935l1.87.622c1.058.351 3.226.948 3.226 2.168 0 1.598-1.842 1.95-3.143 1.95-1.953 0-3.931-.324-5.72-1.138l-.135 3.825c2.087.567 4.282.81 6.45.81 3.741 0 7.887-1.356 7.887-5.747 0-3.035-1.68-4.281-4.364-5.12zm35.708 3.55c0 1.924-.815 3.604-3.01 3.604-2.194 0-2.926-1.68-2.926-3.604V87.4h-5.34v11.195c0 5.042 3.606 7.156 8.24 7.156 4.606 0 8.376-2.383 8.376-7.399V87.401h-5.34zm7.29-7.339h3.8v9.616c0 3.114 1.03 5.04 4.363 5.04 1.248 0 2.603-.22 3.794-.594l-.184-3.612c-.461.187-.975.297-1.464.297-1.247 0-1.495-.658-1.495-1.741v-9.006h4.447v-3.695h-13.26zm34.192 14.382h5.015V87.4h-5.015zM106.508 87.4l-5.529 7.589V87.4h-5.337v18.078h5.337v-8.323l5.827 8.323h6.505l-7.534-9.622 6.94-8.456zm-30.562-.298c-4.606 0-8.373 2.384-8.373 7.397v10.978h5.337V94.419c0-1.924.814-3.323 3.01-3.323 2.195 0 2.927 1.399 2.927 3.323v11.059h5.339V94.257c0-5.04-3.604-7.154-8.24-7.154zm-49.743.298h-9.54v18.078h5.232v-6.016h4.254c3.795 0 6.396-2.089 6.396-6.1 0-3.794-2.709-5.962-6.342-5.962zm-2.91 8.699h-1.435v-5.313h1.84c1.735 0 3.498.544 3.498 2.604 0 2.413-1.953 2.709-3.903 2.709" fill="#ef3645" stroke-width=".133"/></svg>