<?xml version="1.0" encoding="UTF-8"?>
<svg width="800" height="364.08" version="1.1" xmlns="http://www.w3.org/2000/svg">
	<path d="m494.67 300.73c-15.899 0-22.564 14.003-22.564 27.868 0 13.591 6.6642 28.409 22.564 28.409 15.909 0 22.573-14.681 22.573-28.409 0-14.278-6.2581-27.868-22.573-27.868zm0 63.348c-20.661 0-30.584-16.586-30.584-35.48 0-18.627 10.872-34.938 30.584-34.938 20.936 0 30.593 15.63 30.593 34.938 0 18.893-10.063 35.48-30.593 35.48zm-52.319-1.4967v-67.558h7.3452v67.558zm0-83.33v-10.874h7.3452v10.874zm-45.686 21.481c-16.174 0-19.982 14.546-19.982 27.868 0 13.047 4.0803 28.409 19.982 28.409 15.132 0 20.434-15.905 20.434-28.409 0-12.513-5.577-27.868-20.434-27.868zm21.384 61.851-0.95055-11.281c-4.3521 8.5626-11.691 12.777-21.112 12.777-19.982 0-27.326-18.218-27.326-35.48 0-17.947 7.342-34.938 27.732-34.938 8.4678 0 17.035 4.8952 20.43 12.777v-41.871h7.3452v75.854c0 7.2088 0.26835 14.685 0.67464 22.161zm-71.039-34.388h-1.7688c-12.916 0-32.354 0.94865-32.354 16.718 0 8.288 6.661 12.234 14.412 12.234 15.225 0 19.712-11.422 19.712-24.744zm1.0866 34.388-0.41008-11.012c-3.5336 8.0193-12.503 12.509-20.933 12.509-11.963 0-21.889-6.1209-21.889-19.035 0-17.262 16.315-23.376 37.523-23.376h4.6208v-3.5365c0-10.604-3.5368-17.537-15.09-17.537-6.9327 0-13.322 1.3625-19.168 5.3017l-0.81637-7.6136c5.2986-2.5806 13.866-4.6204 19.712-4.6204 16.449 0 22.702 9.1035 22.702 25.013v29.905c0 4.4893 0.2759 9.3784 0.95243 14.003zm-88.264-83.33h-10.059v32.897h9.516c10.739 0 22.838-4.3458 22.838-16.993 0-13.047-10.059-15.903-22.293-15.903zm28.548 83.33-13.46-30.992c-4.2156-9.6543-6.9325-12.098-17.81-12.098h-7.339v43.09h-8.1565v-90.67h21.751c14.819 0 27.326 6.9327 27.326 23.516 0 11.285-9.6542 19.444-20.392 20.795 6.2522 1.2246 9.2422 5.58 11.692 11.014l15.768 35.344zm-115.81 1.4967c-6.2554 0-12.507-0.68031-18.353-2.9892l0.81581-8.2954c5.3026 2.718 11.148 4.2143 17.128 4.2143 7.3424 0 14.684-3.9398 14.684-12.097 0-17.131-32.218-12.916-32.218-33.309 0-12.373 10.874-17.942 21.613-17.942 5.3026 0 11.011 1.0866 15.905 2.989l-0.81637 7.2014c-4.0784-1.8964-9.9246-3.1204-14.409-3.1204-6.9327 0-14.409 2.1709-14.409 10.872 0 13.053 32.352 10.744 32.352 33.309 0 12.234-10.876 19.168-22.293 19.168zm-38.592-35.884h-1.7677c-12.913 0-32.352 0.94865-32.352 16.718 0 8.288 6.6604 12.234 14.41 12.234 15.226 0 19.71-11.422 19.71-24.744zm1.0892 34.388-0.40837-11.012c-3.5352 8.0193-12.508 12.509-20.936 12.509-11.962 0-21.885-6.1209-21.885-19.035 0-17.262 16.312-23.376 37.519-23.376h4.6218v-3.5365c0-10.604-3.5338-17.537-15.088-17.537-6.9338 0-13.322 1.3625-19.168 5.3017l-0.81713-7.6136c5.3026-2.5806 13.867-4.6204 19.714-4.6204 16.448 0 22.7 9.1035 22.7 25.013v29.905c0 4.4893 0.27212 9.3784 0.953 14.003zm-98.854-83.33h-13.049v75.992h7.6132c26.78 0 42.956-9.7885 42.956-37.933 0-23.918-13.729-38.059-37.521-38.059zm-5.8433 83.33h-15.362v-90.67h20.935c29.091 0 46.355 16.04 46.355 45.399 0 32.626-21.615 45.271-51.928 45.271zm219.44-311.98v-6.3571c0-3.9428-2.2896-6.1494-6.1772-6.1494h-23.18v11.029h9.803c3.4701 0 4.8778 1.9634 4.8778 4.8767v27.802c0 0.64592 0.14358 0.97851 0.56692 1.1129 0.44409 0.1375 0.83338-0.02878 1.1962-0.40611 3.2791-3.4473 10.964-11.678 15.958-16.533 11.317-11.01 20.302-15.65 28.15-15.65v-13.447c-9.9559 0-13.347 1.4678-19.226 4.5921-4.3196 2.296-9.27 6.418-11.967 9.1297zm-78.897-13.722c-24.196 0-35.472 20.885-35.472 34.151 0 9.67 2.5294 15.289 5.1749 19.61h16.398c-2.9455-4.3506-6.8615-10.701-6.8615-19.61 0-10.799 8.6318-20.706 20.7-20.706 9.2272 0 15.823 6.1111 19.619 9.1105 5.53 4.3617 14.336 11.586 18.452 15.282 0.38739 0.35168 0.74645 0.5501 1.1905 0.40611 0.42519-0.13111 0.56881-0.46696 0.56881-1.1064v-67.87c-6.6e-4 -3.9397-2.2904-6.1494-6.1776-6.1494h-23.178v11.029h9.462c3.4664 0 4.8754 1.9602 4.8754 4.8735v31.313c-8.3478-8.4485-17.563-10.335-24.752-10.335zm-95.672 12.078c2.7604-3.201 11.747-12.078 26.923-12.078 8.4014 0 15.362 4.1348 19.145 10.866 1.9685 3.5047 3.0765 7.5244 3.0765 13.184v14.221h-14.676v-13.383c0-2.958-0.28743-4.5921-0.83583-6.0502-1.4137-3.7638-4.5668-5.3914-9.0148-5.3914-6.7265 0-12.42 4.7391-17.155 9.1713-4.7644 4.4577-11.581 11.541-14.949 15.356-0.34469 0.39004-0.74928 0.54368-1.1915 0.40611-0.42463-0.1375-0.56957-0.46374-0.56957-1.1129v-13.066c0-7.3197-3.8838-10.754-10.168-10.754-7.4998 0-13.653 5.9094-21.001 13.104-5.7361 5.6186-10.995 11.247-18.382 18.982-0.35754 0.37738-0.74569 0.54047-1.1932 0.40289-0.42085-0.13431-0.56825-0.46053-0.56825-1.1097v-27.706c0-2.9132-1.4067-4.8767-4.8767-4.8767h-9.8034v-11.029h23.18c3.8872 0 6.1781 2.2065 6.1781 6.1494v6.3571s12.98-13.722 27.284-13.722c12.147 0 16.986 7.3388 18.599 12.078zm695.28 177.66-33.433-74.061v74.061h-17.802v-90.64h29.355l33.564 74.199v-74.199h17.802v90.64zm-132.64 0v-90.64h59.117v13.861h-39.409v23.781h37.642v13.724h-37.642v25.411h40.633v13.862zm-54.449 1.4967c-29.087 0-49.604-16.851-49.604-46.75 0-28.807 22.017-46.745 49.872-46.745 9.1072 0 19.566 1.3591 28.131 4.0758l-0.81259 15.22c-7.2075-3.6699-15.359-5.0277-23.242-5.0277-19.973 0-32.883 12.5-32.883 32.475 0 18.076 9.2384 32.481 28.667 32.481 4.8958 0 9.5134-0.54614 14.134-2.3108v-19.432h-11.953v-13.182h29.89v43.757c-10.46 3.8035-21.195 5.4376-32.201 5.4376zm-97.645-1.4967-33.433-74.061v74.061h-17.802v-90.64h29.355l33.564 74.199v-74.199h17.802v90.64zm-96.449 0v-90.64h20.101v90.64zm-61.228-77.187h-9.6477v26.228h9.104c9.2448 0 18.889-2.8541 18.889-13.591 0-10.599-8.5606-12.637-18.346-12.637zm22.288 77.187-9.3792-25.954c-3.1243-8.8351-5.1613-11.552-15.084-11.552h-7.3388v37.506h-19.702v-90.64h36.963c15.49 0 30.846 5.9795 30.846 24.053 0 12.504-9.2384 19.976-20.927 22.016 8.1512 1.6316 11.55 5.8437 14.403 13.454l11.688 31.118zm-107.51-100.15v-14.95h14.54v14.95zm-26.23 0v-14.95h14.54v14.95zm20.111 101.65c-22.15 0-38.048-11.417-38.048-34.788v-57.348h20.111v56.668c0 11.686 5.3 20.791 18.075 20.791 12.772 0 18.481-8.9676 18.481-20.653v-56.804h20.113v56.532c0 23.37-16.715 35.605-38.73 35.605zm-81.556-1.4967v-38.32h-36.011v38.32h-20.113v-90.64h20.113v36.147h36.011v-36.147h20.111v90.64zm-100.45-74.605v74.605h-20.249v-74.605h-28.403v-16.035h77.051v16.035h-28.401" fill="#1969bc"/>
</svg>
