<svg xmlns="http://www.w3.org/2000/svg" width="333.567" height="95.113"><path d="M104.159 21.1v-2.652c0-1.643-.955-2.564-2.576-2.564H91.92v4.599h4.087c1.447 0 2.034.818 2.034 2.033v11.592c0 .27.06.408.236.465.185.057.347-.013.499-.17 1.367-1.437 4.57-4.87 6.653-6.894 4.719-4.59 8.465-6.525 11.737-6.525v-5.607c-4.15 0-5.565.613-8.016 1.915-1.802.958-3.866 2.675-4.99 3.807zm-32.896-5.723c-10.089 0-14.791 8.709-14.791 14.24 0 4.032 1.055 6.375 2.158 8.177h6.837c-1.228-1.813-2.86-4.462-2.86-8.177 0-4.502 3.598-8.633 8.63-8.633 3.847 0 6.597 2.548 8.18 3.798 2.306 1.82 5.978 4.832 7.694 6.373.162.147.312.229.497.169.177-.054.237-.194.237-.46v-28.3C87.845.921 86.89 0 85.269 0h-9.664v4.6h3.946c1.445 0 2.032.817 2.032 2.03v13.057c-3.48-3.522-7.322-4.31-10.32-4.31zM31.37 20.413a14.853 14.853 0 0 1 11.226-5.036c3.503 0 6.405 1.725 7.983 4.53.82 1.463 1.283 3.138 1.283 5.5v5.927h-6.12v-5.579c0-1.233-.12-1.915-.348-2.523-.59-1.57-1.904-2.248-3.759-2.248-2.805 0-5.179 1.977-7.153 3.825-1.987 1.858-4.829 4.812-6.233 6.402-.144.162-.312.227-.497.17-.177-.058-.237-.194-.237-.465v-5.447c0-3.052-1.62-4.485-4.24-4.485-3.127 0-5.693 2.464-8.756 5.464-2.392 2.342-4.585 4.69-7.665 7.916-.149.157-.31.225-.497.167-.176-.055-.237-.192-.237-.463V22.516c0-1.215-.587-2.033-2.033-2.033H0v-4.6h9.665c1.62 0 2.576.922 2.576 2.565v2.651s5.412-5.722 11.376-5.722c5.064 0 7.082 3.06 7.754 5.036zM321.272 94.49l-13.94-30.88v30.88h-7.423V56.697h12.24l13.995 30.937V56.697h7.423V94.49zm-55.305 0V56.697h24.649v5.78h-16.432v9.915h15.695v5.723h-15.695V88.71h16.943v5.78zm-22.703.623c-12.128 0-20.683-7.025-20.683-19.492 0-12.012 9.18-19.49 20.795-19.49 3.797 0 8.159.566 11.73 1.698l-.34 6.347c-3.005-1.53-6.403-2.097-9.69-2.097-8.328 0-13.71 5.213-13.71 13.542 0 7.536 3.851 13.543 11.953 13.543 2.041 0 3.966-.227 5.893-.963v-8.103h-4.984v-5.496h12.463v18.244c-4.362 1.586-8.838 2.267-13.427 2.267zm-40.713-.623l-13.94-30.88v30.88h-7.423V56.697h12.24l13.995 30.937V56.697h7.422V94.49zm-40.215 0V56.697h8.381V94.49zm-25.53-32.184h-4.022v10.936h3.796c3.855 0 7.876-1.19 7.876-5.666 0-4.42-3.57-5.27-7.65-5.27zM146.1 94.49l-3.91-10.822c-1.303-3.684-2.153-4.816-6.29-4.816h-3.06V94.49h-8.215V56.697h15.412c6.459 0 12.862 2.493 12.862 10.029 0 5.213-3.852 8.329-8.726 9.179 3.399.68 4.816 2.436 6.006 5.61l4.873 12.975zm-44.829-41.76v-6.233h6.063v6.234zm-10.936 0v-6.233h6.062v6.234zm8.385 42.383c-9.235 0-15.864-4.76-15.864-14.505V56.697h8.385v23.627c0 4.872 2.21 8.67 7.537 8.67 5.325 0 7.705-3.74 7.705-8.612V56.697h8.386v23.571c0 9.745-6.969 14.845-16.149 14.845zm-34.005-.623V78.51H49.7V94.49h-8.386V56.697H49.7v15.071h15.015V56.697h8.386V94.49zM22.834 63.383V94.49H14.39V63.383H2.55v-6.686h32.127v6.686H22.834" fill="#1969bc"/></svg>