<?xml version="1.0" encoding="utf-8"?>
<!-- Generator: Adobe Illustrator 14.0.0, SVG Export Plug-In . SVG Version: 6.00 Build 43363)  -->
<!DOCTYPE svg PUBLIC "-//W3C//DTD SVG 1.0//EN" "http://www.w3.org/TR/2001/REC-SVG-20010904/DTD/svg10.dtd">
<svg version="1.0" id="Ebene_2_Kopie" xmlns="http://www.w3.org/2000/svg" xmlns:xlink="http://www.w3.org/1999/xlink" x="0px"
	 y="0px" width="420px" height="210px" viewBox="0 0 420 210" enable-background="new 0 0 420 210" xml:space="preserve">
<path d="M178.013,205.612c-0.347,0-0.7-0.001-1.052-0.006c-19.587-0.205-33.709-5.131-43.165-15.059
	c-5.758-6.046-9.536-13.683-11.46-23.218c-6.794,2.622-14.687,3.946-23.559,3.947c-1.234,0-2.503-0.025-3.771-0.075
	c-16.57-0.65-28.998-5.46-36.936-14.294c-11.524-12.824-10.333-30.486-9.621-41.039c0,0,0.085-1.268,0.119-1.8l0.342-5.374
	c-7.093,0.249-38.016,1.414-38.016,1.414l0.161-5.281c0.642-21.076,3.314-34.766,9.858-50.51l1.122-2.699l2.905-0.314
	c30.114-3.264,50.456-5.092,78.062-6.025l0.933-0.031c0.996-7.832,2.064-15.683,3.212-23.616l1.299-8.98l50.75-1.231
	c0,0-1.843,27.279-2.311,34.018c6.285,0.011,35.275,0.156,43.248,0.156l-1.373-39.469l61.812,1.404l5.894,20.18
	c-0.042-2.742-0.101-5.518-0.174-8.322L265.99,7.795l62.286,3.137l2.226,7.166c0.021,0.066,1.57,6.857,4.457,18.21
	c5.2,0.391,11.065,0.627,13.094,0.772c0.938,0.066,1.954,0.121,3.033,0.18c7.48,0.404,17.673,0.957,27.408,5.568
	c7.617,3.607,18.25,12.492,25.248,26.611c5.6,11.296,11.089,33.48,3.26,48.298c-5.571,10.544-19.046,17.629-33.532,17.629
	c-0.237,0-0.475-0.001-0.713-0.005c-0.013,0-0.025-0.001-0.038-0.001c1.032,11.34,1.781,22.843,2.33,35.729l0.474,11.123
	l-49.618,0.342c0,0-0.872-22.447-1.18-28.193l-91.813,0.042C231.974,186.983,212.069,205.612,178.013,205.612L178.013,205.612z"/>
<path fill="#FFFFFF" d="M402.637,115.431c-4.739,8.972-16.461,14.999-29.167,14.999c-0.211,0-0.422-0.002-0.634-0.005
	c-0.988-0.017-2.852-0.078-5.564-0.184c1.301,13.054,2.215,26.277,2.845,41.059l0.256,6.012l-39.71,0.273l-0.207-5.631
	c-0.285-7.774-0.637-15.253-1.063-22.549l-25.174,0.103l-0.38-5.421c-0.902-12.876-2.016-24.784-3.188-35.46
	c-1.116,12-2.59,24.512-4.531,36.02l-0.816,4.84h-34.68l-1.082-4.427c-3.226-13.188-6.229-25.189-8.945-35.868
	c0.538,10.948,1.002,22.627,1.288,34.348l0.145,5.956l-24.016-0.036c0.001,0.952,0,1.89-0.002,2.792
	c-0.109,31.227-17.865,48.425-49.997,48.425c-0.328,0-0.661-0.002-0.993-0.006c-18.191-0.19-31.161-4.616-39.649-13.527
	c-6.256-6.568-9.923-15.497-11.14-27.105c-7.311,4.189-16.488,6.303-27.454,6.304c-1.164,0-2.368-0.024-3.577-0.071
	c-15.188-0.597-26.444-4.856-33.458-12.661c-10.13-11.273-9.069-27.001-8.367-37.408c0.042-0.622,0.083-1.229,0.12-1.818l0.341-5.36
	l42.469-0.601l-0.458,6.313c-0.195,2.696-0.678,10.285-0.57,12.991c0.055,1.374,1.084,3.078,1.65,3.289
	c1.825-0.009,3.762-0.009,4.247-6.876c2.512-35.615,5.962-67.963,10.858-101.8l0.702-4.854l41.167-0.999
	c0,0-1.265,18.393-2.304,33.807l22.431-0.16c0,0,0.09,82.142,0.009,103.603c-0.012,3.217-0.02,5.239-0.02,5.645
	c0,1.641,1.335,2.975,2.976,2.975c1.64,0,2.975-1.334,2.975-2.975c0-3.031-0.077-109.208-0.077-109.208l25.35-0.047l-1.366-38.945
	l52.969,1.203l14.239,48.752c0.414-10.993,0.585-24.936,0.143-41.877l-0.163-6.265l53.521,2.696l1.202,3.872
	c0.064,0.206,2.468,8.026,5.744,21.237c6.083,0.458,13.667,1.026,16.17,1.205c0.975,0.07,2.032,0.127,3.156,0.188
	c7.032,0.381,16.665,0.902,25.523,5.098c6.869,3.254,16.501,11.357,22.938,24.342C404.271,81.621,409.55,102.346,402.637,115.431z
	 M103.169,50.214c-28.64,0.968-50.023,2.999-77.696,5.999c-6.676,16.062-8.902,29.704-9.482,48.766
	c31.059-1.161,51.572-2.032,81.47-2.419C99.105,84.563,101.137,65.211,103.169,50.214z"/>
<path fill="#E22435" d="M394.117,74.209c-5.611-11.32-14.041-18.746-20.222-21.673c-9.192-4.354-19.835-4.258-26.608-4.741
	c-4.444-0.318-24.576-1.838-24.576-1.838c8.127,45.717,11.9,80.985,13.546,125.783l28.06-0.193
	c-0.704-16.528-1.798-31.76-3.521-47.383c4.633,0.198,10.142,0.423,12.132,0.456c10.701,0.17,20.779-4.714,24.576-11.901
	C402.923,102.462,398.999,84.058,394.117,74.209z M371.331,95.811c-0.764,2.915-3.365,5.406-6.205,5.406l-7.267,0.032
	c-1.385-9.527-3.022-19.462-4.961-30.136c0,0,3.872,0.152,5.419,0.193c4.56,0.121,9.08,4.873,10.691,8.902
	C369.906,82.453,372.596,90.973,371.331,95.811z M316.994,46.973c6.272,35.281,9.948,64.355,12.042,96.629l-19.407,0.079
	c-3.851-54.958-11.446-92.063-11.446-92.063s-1.016,51.91-7.789,92.063h-25.215c-14.455-59.118-24.324-93.95-24.324-93.95
	s4.063,46.346,5.225,93.95l-18.097-0.027c-0.254-29.719-2.045-75.721-2.665-87.905l-0.285-5.605l-14.148,0.061l-0.992-33.08
	l42.573,0.967l21.915,75.035c0,0,3.958-23.947,2.651-74.019l43.212,2.177c0,0,2.171,6.99,5.212,19.059
	c-1.391-0.105-2.267-0.172-2.308-0.174l-7.463-0.564L316.994,46.973z M219.519,55.549c0.653,12.845,2.786,67.872,2.685,96.682
	c-0.072,20.864-8.62,43.02-45.123,42.635c-33.999-0.357-45.514-16.255-45.514-43.976c0-33.094,1.887-55.007,4.79-94.387
	c0.78-0.013,30.379-0.478,31.875-0.496c0.381,12.809-0.018,100.433-0.018,103.373c0,4.85,3.931,8.78,8.781,8.78
	s8.781-3.931,8.781-8.78c0-3.031-0.073-103.487-0.073-103.487S216.389,55.603,219.519,55.549z M125.762,150.89
	c0,0.865,0.017,1.711,0.038,2.552c-6.732,4.715-16.411,7.575-30.372,7.026c-40.638-1.596-37.155-29.752-36.139-45.717l30.769-0.436
	c0,0-0.726,10.014-0.581,13.643c0.145,3.628,2.902,8.854,7.402,8.854c7.122,0,9.577-5.029,10.087-12.265
	c2.467-34.978,5.878-67.27,10.813-101.377l29.898-0.726c0,0-0.836,12.257-1.903,28.104c-2.859,0.045-5.755,0.09-8.532,0.134
	l-6.285,0.099c0,0-0.929,12.573-1.184,16.003C127.357,99.254,125.762,120.704,125.762,150.89z M53.557,67.219
	c-1.677,7.805-2.709,14.296-2.918,21.898H46.67c0.065-5.752,0.368-9.188,1.335-15.113c-2.612,5.696-4.027,9.07-6.096,15.166
	l-3.789,0.044c-1.364-5.595-1.98-9.368-2.561-14.702c-1.234,5.262-1.633,9.579-1.923,15.239h-4.027
	c-0.066-5.232,1.052-14.296,3.266-21.371l6.676-0.29c0.145,5.225,0.508,10.74,1.052,13.643c2.213-5.986,3.398-8.551,6.604-14.296
	L53.557,67.219z M57.572,66.735l6.241-0.218c4.548-0.13,6.127,1.182,6.628,2.902c0.604,2.08,0.315,4.859,0.073,6.821
	c-0.242,1.96-0.629,6.144-1.524,8.539c-0.977,2.613-3.768,4.015-7.991,4.072h-6.287C54.712,83.232,55.637,74.442,57.572,66.735z
	 M61.358,70.557c-0.883,4.983-1.439,10.668-1.597,14.26l1.754-0.012c0.955,0,2.806-0.663,3.145-1.645
	c0.75-2.178,1.209-5.516,1.354-10.16c0.045-1.43-1.072-2.479-2.733-2.479L61.358,70.557z M75.327,65.84l6.555-0.218
	c2.622,0.03,4.928,0.16,6.289,2.032c1.355,1.862,2.032,8.346-3.338,10.57l3.898,9.865l-5.321-0.045l-3.173-8.828h-2.104
	c0,0-0.363,4.451-0.363,9.119l-4.645,0.008C73.126,81.684,74.08,72.827,75.327,65.84z M79.318,69.42
	c-0.556,2.951-0.779,6.071-0.779,6.071s1.942,0.029,2.544,0c1.394-0.058,2.855-0.731,3.266-2.806
	c0.226-1.146,0.079-2.314-1.028-2.992c-0.675-0.404-1.336-0.273-2.533-0.273H79.318z"/>
</svg>
