<?xml version="1.0" encoding="UTF-8"?>
<svg width="800" height="398.79" version="1.1" xmlns="http://www.w3.org/2000/svg">
	<g>
		<path d="m375.87 0 0.44992 9.993 0.53875 11.993c3.7751 83.739 6.2159 169.11 7.2586 253.73l0.1371 11.211 0.11393 9.348 9.346-4e-3 11.213-4e-3 65.723-8e-3h21.421l-0.0406-1.3633 0.32442 1.3575 7.4787-4e-3 8.9752-4e-3c16.583-4e-3 33.159-0.0116 49.742-0.0193h0.8902l9.798-4e-3 8.1546-4e-3 0.45957-3.0934 0.19117 3.0915 8.902-4e-3 10.678-8e-3h0.5484c21.745-0.0174 43.486-0.0328 65.237-0.0521l22.483-0.0216-0.80138-10.19-0.96163-12.225c-6.517-83.042-21.859-167.05-45.596-249.67l-2.1955-7.6583-1.8325-6.3858-6.6272-0.4422-7.9499-0.53295c-29.191-1.9503-58.42-3.5994-86.872-4.9105l-12.227-0.56192-10.192-0.4673 0.29931 10.194 0.36302 12.235c0.2047 6.8859 0.34373 13.764 0.41904 20.656-3.0355-10.209-5.9668-20.001-8.7242-29.193l-2.3365-7.8109-1.9484-6.5113-6.7971-0.22786-8.1507-0.2742c-28.447-0.95392-57.343-1.5969-85.887-1.9117l-12.003-0.13131zm9.8984 9.5701 12.003 0.13324c28.457 0.31475 57.281 0.95392 85.674 1.904l8.1507 0.27613 2.3384 7.8128c8.6026 28.696 17.501 58.586 26.234 88.747 1.1991-28.509 1.3884-56.063 0.58509-83.205l-0.36303-12.235 12.229 0.56385c28.366 1.3054 57.528 2.9506 86.675 4.8989l7.9499 0.53102 2.1994 7.6583c23.564 82.025 38.79 165.4 45.259 247.8l0.9597 12.225-12.262 0.0116c-21.751 0.0232-43.49 0.0386-65.227 0.0521h-0.5542l-10.68 6e-3 -0.65461-10.657c-1.5139-24.603-3.6476-49.323-6.3819-74.057-2.3384 24.257-5.4145 49.202-9.236 75.04l-1.4309 9.684-9.794 4e-3h-0.84771c-16.599 8e-3 -33.192 0.0174-49.787 0.0212l-8.9754 4e-3 -2.0662-8.734c-5.9455-25.068-12.262-50.476-18.684-75.618 1.2416 24.263 2.2168 48.528 2.9158 72.685l0.33985 11.679h-11.683l-65.727 8e-3 -11.211 4e-3 -0.1371-11.213c-1.0427-84.632-3.4835-170.11-7.2683-254.04z"/>
		<path d="m296.46 10.294-23.124 0.52716c-20.094 0.45765-40.501 1.0891-60.656 1.8692l-9.4542 0.36689-7.8784 0.30317-1.118 7.807-1.3401 9.3653c-7.7916 54.456-13.905 109.7-18.225 164.64l-3.7616 0.0463-12.524 0.16028c-19.918 0.24716-40.773 0.54647-61.983 0.89019l-9.9698 0.15835-8.3149 0.13323-0.93268 8.2589-1.1219 9.9156c-0.21241 1.8885-0.42675 3.7809-0.63337 5.6694-3.8639 35.169 2.6822 62.537 19.462 81.341 16.504 18.503 42.169 27.961 76.274 28.109l0.74922 4e-3c35.492 0 61.761-8.6452 80.352-26.43 19.358-18.524 29.438-46.01 30.813-84.029 2.5026-61.881 6.3626-124.49 11.474-186.06l1.0427-12.575zm-10.292 9.6937-1.0427 12.575c-5.1229 61.716-8.9946 124.48-11.503 186.5-1.2802 35.438-10.404 60.799-27.899 77.535-16.744 16.02-40.873 23.807-73.766 23.807l-0.75502-4e-3c-31.309-0.13517-54.612-8.5292-69.259-24.948-14.917-16.719-20.675-41.624-17.114-74.017 0.20469-1.8789 0.41516-3.7577 0.62757-5.6346l1.1219-9.9118 9.9737-0.16027c21.268-0.34566 42.109-0.64303 61.948-0.8902l12.524-0.15834-1.0736 12.48c-0.37655 4.3776-0.74151 8.7571-1.093 13.115-1.2436 15.753 1.7476 19.186 1.875 19.327 0.22399 0.23944 1.1682 0.40165 2.4137 0.40165 2.7092-0.01 3.3116-0.66427 4.0725-1.7321 1.3382-1.8808 3.7094-6.9728 4.5359-19.972 4.3042-65.36 11.2-131.45 20.497-196.42l1.342-9.3672 9.4542-0.36496c20.198-0.78205 40.555-1.4077 60.506-1.8653z"/>
		<path d="m331.96 304.45c-0.19889-2.0526-0.32828-4.6962-0.29159-8.0658 0.1989-18.288 0.45186-36.623 0.76082-54.979-0.0251 18.229-0.0463 36.488-0.0618 54.74-4e-3 3.4874-0.17186 6.2101-0.40744 8.3052m4.6112-226.32-3.555 0.02703h-0.25296v0.0019l-17.842 0.1371c-21.436 0.16606-43.009 0.45571-64.121 0.86122l-10.267 0.19696-8.5562 0.16606-0.68936 8.5292-0.8284 10.238c-4.7985 59.355-8.2068 119.67-10.132 179.25-1.286 42.206 7.5965 72.536 27.15 92.738 18.742 19.366 45.5 28.428 84.205 28.517h0.36883c38.319 0 64.91-8.902 83.683-28.017 19.741-20.096 28.965-50.517 28.202-92.997-1.1045-59.691-3.0548-120.07-5.8007-179.46l-0.49241-10.705-0.40744-8.927-8.9348-0.09655-10.725-0.11779c-20.011-0.2201-40.3-0.33402-60.299-0.33402h-4e-3l-3.7712 0.0019-11.318 0.0097-5.6211 0.0039zm20.71 9.4677c19.87 0 40.124 0.11007 60.197 0.33213l10.723 0.11779 0.49047 10.707c2.7382 59.241 4.6884 119.52 5.793 179.19 0.71254 39.815-7.6274 68.01-25.491 86.198-16.881 17.182-41.329 25.186-76.94 25.186h-0.34759c-35.98-0.0811-60.583-8.228-77.431-25.636-17.684-18.269-25.696-46.348-24.493-85.854 1.9194-59.401 5.318-119.56 10.107-178.79l0.82841-10.234 10.267-0.20082c21.15-0.40551 42.69-0.6913 64.01-0.85736l11.808-0.09076-0.37654 11.802c-2.0874 65.208-3.5028 131.43-4.2154 196.82-0.15835 14.878 2.5721 19.266 3.7538 20.463 0.35917 0.3611 1.4521 1.4656 5.9224 1.4695 4.9202 0 5.8702-1.3073 6.436-2.0874 1.3034-1.7997 3.4951-6.7836 3.5028-19.972 0.0618-67.84 0.18151-134.2 0.34371-197.24l0.029-11.308 11.314-0.0097z"/>
		<path d="m598.01 56.696 2.2129 11.945 2.659 14.332c15.342 82.776 24.443 166.95 27.051 250.17l0.35145 11.15 0.29351 9.294 9.294-0.13324 11.153-0.15641c20.2-0.28579 39.39-0.58897 57.042-0.89599l11.601-0.20083 9.6628-0.16799-0.37655-9.6608-0.45378-11.586c-0.94039-24.153-2.5682-48.624-4.8487-72.895 27.306-0.39971 48.678-9.317 61.892-25.848 14.237-17.808 17.981-42.244 11.124-72.632-12.354-53.678-49.613-91.031-94.924-95.204-26.19-2.2284-52.098-4.1748-77.062-5.7853l-14.546-0.93654zm11.515 10.221 14.548 0.93846c24.912 1.6066 50.729 3.5453 76.803 5.764 41.173 3.7905 75.147 38.259 86.566 87.864 6.1927 27.449 3.0664 49.198-9.2882 64.648-11.667 14.596-31.184 22.307-56.435 22.307-0.61019 0-1.2262-4e-3 -1.8904-0.01-2.2091-0.0405-4.4123-0.083-6.6194-0.12359 2.8038 27.511 4.7657 55.319 5.8374 82.843l0.45185 11.586-11.598 0.20469c-18.142 0.31283-37.322 0.6102-57.013 0.89406l-11.155 0.15834-0.35145-11.15c-2.6204-83.683-11.775-168.33-27.208-251.59z"/>
		<path d="m674.7 274.46c-6.4688-82.403-21.693-165.78-45.259-247.8l-2.1975-7.6583-7.9518-0.53102c-29.146-1.9484-58.306-3.5936-86.675-4.8989l-12.229-0.56385 0.36303 12.235c0.8033 27.142 0.61213 54.695-0.58509 83.205-8.734-30.16-17.634-60.05-26.234-88.747l-2.3384-7.8128-8.1507-0.27613c-28.395-0.95006-57.217-1.5892-85.672-1.904l-12.005-0.13324 0.54068 11.993c3.7828 83.933 6.2255 169.4 7.2663 254.04l0.1371 11.213 11.213-4e-3 65.725-8e-3h11.684l-0.33985-11.679c-0.69709-24.157-1.6742-48.42-2.9158-72.685 6.4206 25.143 12.741 50.551 18.684 75.618l2.07 8.734 8.9714-4e-3c16.597-4e-3 33.19-0.0135 49.787-0.0212h0.84965l9.7902-4e-3 1.4309-9.684c3.8253-25.839 6.9014-50.785 9.2398-75.04 2.7343 24.734 4.8661 49.453 6.38 74.057l0.65461 10.657 10.68-6e-3h0.5542c21.739-0.0154 43.478-0.0309 65.225-0.0521l12.264-0.0116z" fill="#fff"/>
		<path d="m273.56 20.275c-19.951 0.45571-40.308 1.0833-60.506 1.8653l-9.4542 0.36689-1.342 9.3653c-9.2978 64.976-16.193 131.06-20.497 196.42-0.8284 12.998-3.1977 18.093-4.5359 19.976-0.76082 1.0678-1.3633 1.7205-4.0725 1.7302-1.2455 0-2.1898-0.16221-2.4137-0.40165-0.12745-0.14097-3.1186-3.5743-1.875-19.327 0.35145-4.3602 0.71641-8.7378 1.0929-13.115l1.0736-12.48-12.524 0.15834c-19.839 0.24717-40.68 0.54647-61.948 0.8902l-9.9737 0.15834-1.1219 9.9138c-0.21241 1.8769-0.42289 3.7577-0.62757 5.6346-3.5608 32.392 2.1975 57.298 17.114 74.017 14.647 16.417 37.95 24.811 69.259 24.948l0.75502 4e-3c32.893 0 57.022-7.7877 73.766-23.807 17.493-16.738 26.619-42.1 27.899-77.533 2.5084-62.02 6.38-124.78 11.503-186.5l1.0427-12.577z" fill="#fff"/>
		<path d="m527.31 172.73c-0.2433-4e-3 -0.48468-8e-3 -0.72799-0.0116-13.754-49.843-28.544-99.783-43.523-149.76-28.54-0.95778-56.991-1.5892-85.418-1.904 3.8079 84.529 6.2313 169.33 7.2779 254.41 21.905-4e-3 43.814-4e-3 65.729-8e-3 -1.8325-63.124-5.4763-126.11-10.937-188.94 0.2298 0.0039 0.45572 0.0077 0.68358 0.01159 16.773 63.037 33.503 126.05 48.406 188.91 16.877-4e-3 33.752-0.0116 50.635-0.0212 9.2437-62.429 14.708-124.35 14.737-185.7 0.22979 0.01352 0.45766 0.02124 0.69131 0.02703 11.347 61.769 18.928 123.66 22.743 185.66 21.924-0.0154 43.847-0.0309 65.777-0.0502-6.4399-82.021-21.388-163.87-44.855-245.55-28.976-1.9349-57.768-3.5704-86.437-4.8873 1.4502 48.96-0.41323 98.248-4.7831 147.82" fill="#d51224"/>
		<path d="m193.08 229.04c-1.6452 25.785-9.3712 32.265-19.885 32.307-10.458 0.0444-17.678-6.3394-15.653-31.973 0.35338-4.3969 0.72027-8.7976 1.0987-13.196-20.625 0.25875-41.258 0.55806-61.908 0.8902-0.21048 1.8615-0.41903 3.7268-0.62371 5.5902-6.0904 55.414 16.07 86.13 75.141 86.387 58.175 0.20082 88.656-24.688 91.029-90.399 2.5277-62.475 6.3703-124.82 11.534-187.02-20.073 0.45765-40.178 1.0775-60.326 1.8576-9.3074 65.049-16.106 130.24-20.407 195.56" fill="#d51224"/>
	</g>
	<g fill="#fff">
		<path d="m434.49 277.95c-1.1045-59.668-3.0548-119.96-5.793-179.19l-0.49241-10.709-10.721-0.11779c-20.073-0.22206-40.327-0.33213-60.195-0.33213l-3.7732 0.0019-11.312 0.0097-15.396 0.05407-11.808 0.09076c-21.322 0.16414-42.86 0.45378-64.012 0.8593l-10.267 0.19696-0.82841 10.236c-4.7869 59.235-8.1855 119.39-10.105 178.79-1.203 39.504 6.8087 67.585 24.493 85.856 16.846 17.408 41.449 25.553 77.431 25.634h0.34759c35.611 0 60.058-8.002 76.94-25.186 17.862-18.186 26.204-46.379 25.491-86.196"/>
		<path d="m787.45 161.48c-11.42-49.603-45.396-84.074-86.566-87.864-26.076-2.2187-51.892-4.1574-76.801-5.764l-14.55-0.93846 2.657 14.332c15.431 83.263 24.583 167.91 27.206 251.59l0.35146 11.15 11.153-0.15834c19.692-0.28192 38.875-0.5793 57.015-0.89406l11.598-0.20275-0.45378-11.586c-1.0717-27.524-3.0336-55.335-5.8355-82.843 2.2052 0.0405 4.4123 0.0811 6.6214 0.12165 0.6604 8e-3 1.2783 0.01 1.8885 0.01 25.252 0 44.768-7.7104 56.435-22.307 12.349-15.45 15.475-37.203 9.2824-64.65"/>
		<path d="m5.0227 197.57c1.1489-38.96 7.388-70.549 19.634-99.414l1.0871-2.5566 2.7633-0.29737c64.343-6.8994 111.1-10.729 156.35-12.802l5.8412-0.27034-0.96164 5.7679c-5.5748 33.51-8.6605 67.992-11.648 101.34l-0.7666 8.5292-4.2598 0.0618c-56.665 0.85157-101.39 2.3384-163.15 4.5089l-5.0418 0.17958z"/>
	</g>
	<path d="m196.33 77.242-11.683 0.53488c-45.351 2.0777-92.197 5.9146-156.64 12.826l-5.5265 0.59282-2.1704 5.1171c-12.486 29.423-18.845 61.554-20.011 101.12l-0.29737 10.086 10.084-0.35338c61.736-2.1704 106.44-3.6573 163.06-4.505l8.5157-0.12938 0.76274-8.4828 0.38428-4.2907c2.9795-33.258 6.0575-67.647 11.603-100.98zm-11.25 9.9833c-5.8413 35.109-8.9194 70.742-12.078 105.98-58.395 0.87861-104.26 2.4369-163.25 4.5108 0.9462-32.089 5.4454-65.14 19.262-97.707 53.693-5.7582 104.49-10.416 156.07-12.781"/>
	<g fill="#d51224">
		<path d="m36.971 166.97c0.55033-14.069 2.8386-28.15 6.8956-42.237 4.1246-0.28965 8.2511-0.5735 12.378-0.8535 0.12551 9.1606 1.0563 18.383 2.7266 27.661 0.04441-4e-3 0.0869-6e-3 0.12938-8e-3 3.7886-9.514 8.2434-19.086 13.316-28.714 4.1285-0.26262 8.2608-0.52137 12.391-0.77047-3.4777 14.529-5.4222 29.061-5.8722 43.581-2.5875 0.0772-5.1751 0.15641-7.7645 0.23558 0.36882-11.362 1.6896-22.732 3.9836-34.101-0.04441 2e-3 -0.08689 6e-3 -0.13131 8e-3 -5.4647 11.545-10.045 23.016-13.654 34.401-2.2805 0.0714-4.561 0.14482-6.8396 0.21627-2.825-11.121-4.6189-22.164-5.26-33.12-0.04248 4e-3 -0.08689 6e-3 -0.12744 8e-3 -2.5277 11.148-3.9972 22.295-4.4143 33.431-2.5817 0.0888-5.1731 0.17573-7.7568 0.26262"/>
		<path d="m97.037 157.66c1.0524-0.0348 2.1067-0.0695 3.1552-0.10427 5.0148-0.16221 7.9576-2.464 8.5504-9.1027 0.35917-3.8929 0.81295-7.7838 1.3614-11.677 0.89598-6.268-0.78207-8.7436-6.3568-8.4578-1.0369 0.0521-2.072 0.1062-3.107 0.15834-1.8171 9.7304-3.0181 19.459-3.6032 29.183m-3.7423-36.119c4.1053-0.23945 8.2202-0.47697 12.333-0.70676 10.186-0.5735 14.803 3.3368 13.594 14.565-0.62758 4.5707-1.1374 9.1394-1.5274 13.712-1.2745 11.263-6.9786 15.608-17.429 15.892-4.2115 0.12165-8.423 0.2433-12.638 0.36689 0.43061-14.602 2.3095-29.218 5.6675-43.83"/>
		<path d="m135.03 138.71c1.5467-0.0599 3.0877-0.1178 4.6344-0.17573 3.9914-0.14869 6.575-2.1125 7.1196-6.4959 0.55613-4.3814-1.5351-6.1579-5.4898-5.988-1.5294 0.0676-3.0606 0.13517-4.5919 0.20082-0.65076 4.1555-1.2049 8.3091-1.6722 12.459m10.545 25.099c-2.5064-6.071-4.8256-12.119-6.9284-18.146-1.4386 0.0463-2.881 0.10041-4.3216 0.14482-0.53102 6.1039-0.86315 12.206-0.99832 18.308-3.0297 0.0772-6.0556 0.15641-9.0872 0.23558 0.35144-14.917 1.9426-29.838 4.7908-44.757 4.2887-0.21629 8.5698-0.42676 12.858-0.62952 10.673-0.51171 14.869 4.3042 13.853 12.857-0.66619 5.6559-3.0954 9.8114-8.2994 11.794 2.3886 6.6252 5.0264 13.276 7.8823 19.953-3.2518 0.0811-6.4978 0.15834-9.7496 0.23944"/>
		<path d="m251.2 99.959c-4.7927 59.295-8.1526 118.71-10.076 178.25-2.321 76.265 31.145 99.64 90.606 99.777 59.534 0.085 92.775-23.261 91.407-99.831-1.1065-59.747-3.0336-119.37-5.7795-178.87-21.291-0.23365-144.85 0.27227-166.16 0.68164"/>
		<path d="m704.8 190.41c-3.4333-0.12359-6.8628-0.24911-10.29-0.36497-2.9853-20.202-6.436-40.396-10.36-60.583 3.3155 0.19117 6.631 0.39199 9.9466 0.59089 13.301 0.83418 22.649 10.933 26.57 31.209 3.916 20.613-2.0642 29.623-15.867 29.148m-4.9588-105.48c-25.644-2.184-51.129-4.1053-76.494-5.7408 15.614 84.251 24.74 168.69 27.391 253.3 18.995-0.27034 37.985-0.56578 56.978-0.89406-1.2339-31.641-3.6129-63.259-7.1485-94.858 6.492 0.11586 12.984 0.22786 19.478 0.34565 45.189 0.63916 67.338-24.325 56.335-73.096-9.6126-41.735-37.737-75.486-76.539-79.061"/>
	</g>
	<path d="m332.1 323.97c-9.402 0-17.024-7.6216-17.024-17.024v-209.29h34.049v209.29c0 9.402-7.6255 17.024-17.026 17.024" fill="#fff"/>
	<path d="m332.1 311.33c-3.134 0-5.6752-2.5373-5.6752-5.6733v-219.43h11.35v219.43c0 3.1359-2.5412 5.6733-5.6752 5.6733"/>
</svg>
