<?xml version="1.0" encoding="UTF-8"?>
<svg width="482.17" height="450" version="1.1" xmlns="http://www.w3.org/2000/svg">
	<path d="m377.9 76.409-16.855-72.708-51.048 11.826c-20.888-9.942-44.248-15.527-68.92-15.527-24.587 0-47.878 5.5364-68.706 15.41l-50.534-11.709-16.648 71.294c-15.674 24.804-24.778 54.168-24.778 85.675 0 88.733 71.936 160.67 160.67 160.67 88.74 0 160.67-71.936 160.67-160.67 0-30.904-8.7369-59.764-23.852-84.261" fill="#ef3645"/>
	<g fill="#fff">
		<path d="m327.6 119.19c0.82494-2.4334 1.2856-5.0354 1.2856-7.7434 0-13.282-10.771-24.047-24.053-24.047-13.276 0-24.047 10.765-24.047 24.047 0 4.8005 1.4139 9.2662 3.8343 13.021l42.98-5.2771"/>
		<path d="m291.88 176.76-17.347 2.2054 1.0128 8.0203 7.3253-0.93048c1.7129-0.21958 3.2754 0.99516 3.4904 2.7058l2.7926 22.004c-6.9525-4.9736-13.697-5.714-18.938-5.0467-17.62 2.236-23.903 18.5-22.673 28.162 0.89304 7.041 3.2578 10.908 5.5852 13.812l11.945-1.5251c-2.5418-2.8902-5.988-7.1562-6.8146-13.65-0.99743-7.8654 4.3727-15.875 13.165-16.99 6.7261-0.85559 12.296 2.9764 15.343 4.8181 4.2377 2.5776 11.802 7.4756 14.831 9.4904 0.48793 0.32566 1.1262-0.0709 1.053-0.64738l-5.7117-44.92-0.50496-3.9937c-0.2814-2.2207-2.316-3.8008-4.5548-3.5148m58.543 18.765c-7.2583 0.92424-9.5851 2.3098-13.579 5.1262-2.9361 2.0726-6.1565 5.5318-7.8739 7.757l-0.64284-5.0683c-0.2814-2.2275-2.316-3.8099-4.5548-3.5239l-17.347 2.2008 1.0241 8.0385 7.5908-0.9685c1.7129-0.21502 3.28 0.9946 3.5018 2.7012l2.6439 20.826c0.0664 0.54298 0.81304 0.85333 1.1302 0.40115 2.0278-2.8368 7.458-9.7315 10.643-13.727 7.2203-9.0711 12.987-13.238 18.712-13.962zm-121.24 43.745-1.432-11.268c-0.44084-3.466-3.6215-6.4691-7.677-5.9528-4.0311 0.51234-8.5349 4.5946-11.58 8.2558-3.0587 3.6834-7.8654 9.6963-10.009 12.666-0.3614 0.50553-1.1523 0.31034-1.23-0.30582l-1.352-10.621c-0.44084-3.4927-3.6368-6.46-7.677-5.9438-4.6144 0.58043-9.5584 5.5869-14.244 11.507-3.6595 4.6274-9.4767 12.23-12.163 15.709-0.37902 0.49816-1.1546 0.34099-1.2346-0.2882l-2.6462-20.829c-0.21672-1.7066-1.7753-2.9191-3.4836-2.7041l-7.5999 0.96624-1.0196-8.0362 17.336-2.2031c2.2405-0.2837 4.2819 1.2947 4.5633 3.533l0.64283 5.0666s8.1848-11.203 18.606-12.529c8.0248-1.0173 13.284 3.4836 14.663 7.083 2.0164-2.8368 8.3885-10.015 17.927-11.223 10.197-1.2987 17.894 6.367 18.952 14.698 0.57135 4.5015 1.3492 11.055 1.3492 11.055l-10.691 1.3634"/>
		<path d="m200.33 111.21c0-13.258-10.746-24.002-24-24.002-13.255 0-24 10.744-24 24.002 0 13.253 10.745 23.998 24 23.998 13.254 0 24-10.745 24-23.998"/>
	</g>
	<path d="m42.903 403.76-8.4197-2.6529c-4.1489-1.2744-11.994-3.3422-11.994-8.1956 0-6.5712 9.346-7.4915 14.421-7.4915 6.6843 0 13.603 1.1484 19.838 3.5727l0.57134-15.799c-7.2647-1.7288-14.76-2.6485-22.253-2.6485-15.221 0-35.066 4.6099-35.066 23.408 0 11.42 6.8062 17.531 17.07 20.995l7.9564 2.6485c4.4991 1.4938 13.728 4.0336 13.728 9.2241 0 6.7996-7.839 8.3-13.378 8.3-8.3066 0-16.726-1.3785-24.335-4.8426l-0.57623 16.274c8.8806 2.4158 18.218 3.4463 27.444 3.4463 15.92 0 33.563-5.769 33.563-24.452 0-12.914-7.1521-18.218-18.57-21.786zm151.94 15.104c0 8.1892-3.466 15.337-12.803 15.337-9.3394 0-12.454-7.1475-12.454-15.337v-46.952h-22.721v47.639c0 21.454 15.342 30.447 35.058 30.447 19.605 0 35.644-10.139 35.644-31.482v-46.604h-22.724zm31.026-31.227h16.165v40.919c0 13.247 4.3857 21.442 18.568 21.442 5.3083 0 11.077-0.93305 16.146-2.5266l-0.78637-15.37c-1.9614 0.79565-4.1492 1.2633-6.228 1.2633-5.3077 0-6.3608-2.7992-6.3608-7.409v-38.319h18.923v-15.725h-56.426zm145.49 61.196h21.339v-76.92h-21.339zm81.854-76.92-23.526 32.291v-32.291h-22.712v76.927h22.712v-35.416l24.793 35.416h27.681l-32.058-40.946 29.527-35.981zm-130.05-1.2681c-19.603 0-35.631 10.144-35.631 31.476v46.713h22.71v-47.056c0-8.1892 3.4644-14.14 12.806-14.14 9.3411 0 12.46 5.9506 12.46 14.14v47.056h22.717v-47.748c0-21.449-15.337-30.441-35.062-30.441zm-211.67 1.2681h-40.593v76.927h22.262v-25.602h18.102c16.148 0 27.216-8.8873 27.216-25.953 0-16.145-11.529-25.372-26.987-25.372zm-12.385 37.016h-6.1054v-22.606h7.8342c7.3803 0 14.88 2.3115 14.88 11.077 0 10.268-8.3114 11.529-16.609 11.529" fill="#ef3645"/>
</svg>
