<svg xmlns="http://www.w3.org/2000/svg" width="237.556" height="95.105"><path d="M237.556 94.483l-17.281-20.115 15.92-17.68h-9.915l-13.655 16.32V56.687h-8.385v37.795h8.385V76.465l14.448 18.018zm-44.2 0V56.689h-8.385v37.793zm-17.287-10.88c0-5.894-3.682-8.555-8.674-10.481l-4.08-1.587c-2.494-.964-5.779-2.38-5.779-4.987 0-3.74 4.363-4.646 7.48-4.646 2.89 0 6.067.51 8.73 1.642l.282-6.232c-3.116-.85-6.293-1.19-9.523-1.19-6.912 0-15.356 2.607-15.356 10.823 0 5.155 3.4 7.762 7.819 9.745l3.853 1.702c2.72 1.187 6.744 2.719 6.744 5.61 0 4.02-3.74 5.267-7.253 5.267-3.681 0-7.31-.567-10.596-2.265l-.283 6.458c3.74 1.19 7.706 1.643 11.616 1.643 7.423 0 15.02-3.229 15.02-11.502zm-32.56 0c0-5.894-3.682-8.555-8.669-10.481l-4.08-1.587c-2.493-.964-5.78-2.38-5.78-4.987 0-3.74 4.364-4.646 7.48-4.646 2.89 0 6.063.51 8.727 1.642l.281-6.232c-3.115-.85-6.288-1.19-9.517-1.19-6.914 0-15.356 2.607-15.356 10.823 0 5.155 3.4 7.762 7.818 9.745l3.854 1.702c2.72 1.187 6.744 2.719 6.744 5.61 0 4.02-3.74 5.267-7.254 5.267-3.682 0-7.309-.567-10.596-2.265l-.282 6.458c3.74 1.19 7.705 1.643 11.614 1.643 7.423 0 15.016-3.229 15.016-11.502zm-44.545-4.305H86.328l6.401-17.281zm13.823 15.185L98.339 56.689H87.346l-14.39 37.793h8.27l3.402-9.464h16.09l3.345 9.464zm-42.85 0v-6.688H53.676V56.689h-8.387v37.793zm-40.981 0l-14.45-18.018v18.017H6.12V56.689h8.387v16.318l13.654-16.318h9.916l-15.921 17.68 17.281 20.114H28.956M104.159 21.099v-2.651c0-1.644-.955-2.564-2.576-2.564H91.92v4.598h4.087c1.447 0 2.034.818 2.034 2.033v11.592c0 .27.06.408.236.466.185.057.347-.013.499-.171 1.367-1.436 4.57-4.868 6.653-6.894 4.719-4.59 8.465-6.524 11.737-6.524v-5.607c-4.15 0-5.565.612-8.016 1.914-1.802.959-3.866 2.676-4.99 3.808zm-32.896-5.722c-10.089 0-14.791 8.709-14.791 14.24 0 4.032 1.055 6.375 2.158 8.177h6.837c-1.228-1.814-2.86-4.462-2.86-8.177 0-4.503 3.598-8.633 8.63-8.633 3.847 0 6.597 2.548 8.18 3.798 2.306 1.82 5.978 4.83 7.694 6.372.162.148.312.23.497.17.177-.055.237-.194.237-.461v-28.3C87.845.921 86.89 0 85.269 0h-9.664v4.599h3.946c1.445 0 2.032.817 2.032 2.031v13.056c-3.48-3.522-7.322-4.31-10.32-4.31zM31.37 20.412a14.854 14.854 0 0 1 11.226-5.035c3.503 0 6.405 1.724 7.983 4.53.82 1.462 1.283 3.138 1.283 5.499v5.927h-6.12v-5.58c0-1.232-.12-1.915-.348-2.523-.59-1.569-1.904-2.247-3.759-2.247-2.805 0-5.179 1.977-7.153 3.824-1.987 1.858-4.829 4.812-6.233 6.403-.144.162-.312.226-.497.169-.177-.057-.237-.194-.237-.465v-5.447c0-3.052-1.62-4.484-4.24-4.484-3.127 0-5.693 2.464-8.756 5.464-2.392 2.342-4.585 4.688-7.665 7.915-.149.157-.31.225-.497.168-.176-.056-.237-.193-.237-.464V22.515c0-1.215-.587-2.033-2.033-2.033H0v-4.598h9.665c1.62 0 2.576.92 2.576 2.564v2.65s5.412-5.721 11.376-5.721c5.064 0 7.082 3.06 7.754 5.035z" fill="#8c2294" stroke-width=".133"/></svg>