<?xml version="1.0" encoding="UTF-8"?>
<svg width="800" height="258.1" version="1.1" xmlns="http://www.w3.org/2000/svg">
	<path d="m709.52 143.81v-18.095c0-11.429-6.6667-17.143-17.143-17.143h-65.714v31.429h27.619c9.5238 0 14.286 5.7143 14.286 14.286v79.048c0 1.9048 0 2.8572 1.9048 2.8572 0.95238 0 1.9048 0 3.8095-0.95238 9.5238-9.5238 31.429-33.333 45.714-46.667 32.381-31.429 58.095-44.762 80-44.762v-38.095c-28.571 0-38.095 3.8095-54.286 13.333-14.286 4.7619-28.571 17.143-36.19 24.762m-223.81-39.048c-68.571 0-100.95 59.048-100.95 97.143 0 27.619 7.619 43.81 14.286 56.19h46.667c-8.5714-12.381-20-30.476-20-56.19 0-30.476 24.762-59.048 59.048-59.048 26.667 0 44.762 17.143 56.19 25.714 16.19 12.381 40.952 33.333 52.381 43.81 0.95238 0.95238 1.9048 1.9048 3.8095 0.95238 0.95238 0 1.9048-0.95238 1.9048-2.8571v-193.33c0-11.429-6.6667-17.143-17.143-17.143h-65.714v31.429h25.714c9.5238 0 14.286 5.7143 14.286 14.286v89.524c-23.81-25.714-50.476-30.476-70.476-30.476m-272.38 34.286c7.619-9.5238 33.333-34.286 76.19-34.286 23.81 0 43.81 11.429 54.286 30.476 5.7143 9.5238 8.5714 21.905 8.5714 37.143v40.952h-41.905v-38.095c0-8.5714-0.95238-13.333-1.9048-17.143-3.8095-10.476-13.333-15.238-25.714-15.238-19.048 0-35.238 13.333-48.571 25.714-13.333 12.381-33.333 33.333-42.857 43.81-0.95238 0.95238-1.9048 1.9048-3.8095 0.95238-0.95238 0-1.9048-0.95238-1.9048-2.8571v-37.143c0-20.952-11.429-30.476-28.571-30.476-20.952 0-39.048 17.143-60 37.143-16.19 16.19-31.429 32.381-52.381 54.286 0 0.95239-0.95238 0.95239-1.9048 0.95239s-1.9048-0.95239-1.9048-2.8572v-79.048c0-8.5714-3.8095-14.286-14.286-14.286h-26.667v-31.429h65.714c11.429 0 17.143 6.6667 17.143 17.143v18.095s37.143-39.048 78.095-39.048c35.238 0.95238 47.619 21.905 52.381 35.238" fill="#0062ae"/>
</svg>
