<svg xmlns="http://www.w3.org/2000/svg" width="117.165" height="37.794"><path d="M104.159 21.099v-2.651c0-1.643-.955-2.564-2.576-2.564H91.92v4.599h4.087c1.447 0 2.034.818 2.034 2.033v11.592c0 .27.06.408.236.465.185.057.347-.013.499-.171 1.367-1.436 4.57-4.868 6.653-6.893 4.719-4.59 8.465-6.525 11.737-6.525v-5.607c-4.15 0-5.565.613-8.016 1.915-1.802.958-3.866 2.675-4.99 3.807zm-32.896-5.722c-10.089 0-14.791 8.709-14.791 14.24 0 4.032 1.055 6.375 2.158 8.177h6.837c-1.228-1.814-2.86-4.462-2.86-8.177 0-4.502 3.598-8.633 8.63-8.633 3.847 0 6.597 2.548 8.18 3.798 2.306 1.82 5.978 4.83 7.694 6.373.162.147.312.229.497.169.177-.055.237-.194.237-.461v-28.3C87.845.921 86.89 0 85.269 0h-9.664v4.599h3.946c1.445 0 2.032.818 2.032 2.032v13.055c-3.48-3.521-7.322-4.309-10.32-4.309zM31.37 20.412a14.854 14.854 0 0 1 11.226-5.035c3.503 0 6.405 1.724 7.983 4.53.82 1.463 1.283 3.138 1.283 5.5v5.927h-6.12v-5.579c0-1.233-.12-1.915-.348-2.523-.59-1.57-1.904-2.248-3.759-2.248-2.805 0-5.179 1.977-7.153 3.824-1.987 1.859-4.829 4.813-6.233 6.403-.144.162-.312.226-.497.17-.177-.058-.237-.195-.237-.465v-5.447c0-3.052-1.62-4.485-4.24-4.485-3.127 0-5.693 2.464-8.756 5.464-2.392 2.342-4.585 4.688-7.665 7.915-.149.158-.31.226-.497.168-.176-.056-.237-.192-.237-.463V22.516c0-1.215-.587-2.033-2.033-2.033H0v-4.6h9.665c1.62 0 2.576.922 2.576 2.565v2.65s5.412-5.72 11.376-5.72c5.064 0 7.082 3.06 7.754 5.034" fill="#1969bc"/></svg>