<?xml version="1.0" encoding="UTF-8"?>
<svg width="800" height="431.28" version="1.1" xmlns="http://www.w3.org/2000/svg">
	<path d="m42.92 0c-23.777 0-42.92 19.142-42.92 42.92v345.44c0 23.777 19.142 42.92 42.92 42.92l757.08-38.318v-354.64z" fill="#fff"/>
	<rect x="43.078" y="42.92" width="756.92" height="345.44"/>
	<g fill="#ea00c1">
		<path d="m552.72 242.2c-9.1077 0-16.789 0.77321-23.174 2.4677-6.2673 1.6633-11.487 4.0457-15.541 7.4211-0.0181 0.0149-0.0362 0.0299-0.0541 0.0451-3.8365 3.2881-6.6742 7.4188-8.2797 12.122-8e-3 0.0217-0.0151 0.0435-0.0225 0.0653-1.4186 4.3574-2.0914 9.1293-2.0914 14.268v52.374c0 5.1382 0.6745 9.9505 2.0801 14.385 0.0151 0.0469 0.0308 0.0933 0.0473 0.13972 1.615 4.6064 4.4523 8.6618 8.2662 11.931 0.0407 0.0353 0.082 0.0698 0.12396 0.10373 4.0464 3.2441 9.2296 5.5529 15.471 7.2093 6.3838 1.6942 14.065 2.47 23.174 2.47 9.1017 0 16.732-0.77318 23.036-2.4722 6.2454-1.658 11.4-3.9689 15.379-7.2521 6e-3 -5e-3 0.0104-9e-3 0.0158-0.0135 3.9299-3.2719 6.8148-7.3781 8.3428-12.052 1.5153-4.4536 2.2468-9.2911 2.2468-14.448v-52.374c0-5.1345-0.72619-9.9117-2.2423-14.274-1.5158-4.7506-4.3902-8.9173-8.3248-12.201-3.9809-3.4023-9.16-5.7826-15.417-7.4436-6.3054-1.6993-13.935-2.47-23.036-2.47zm0 39.756c4.6647 0 6.9871 1.3555 6.3394 0.70313 0.0428 0.0428 0.0863 0.0849 0.13072 0.1262 0.55392 0.51811 0.58142 0.58728 0.58142 1.3341v41.315c0 0.84748-0.16173 1.1225-0.66256 1.6474 0.48777-0.52292-1.8489 0.66706-6.389 0.66706-4.5444 0-6.883-1.1962-6.389-0.66932-0.49771-0.52194-0.6603-0.79534-0.6603-1.6451v-41.315c0-0.75063 0.0294-0.81778 0.58143-1.3341 0.0436-0.0413 0.0864-0.0833 0.12845-0.1262-0.64769 0.65241 1.6747-0.70313 6.3394-0.70313z"/>
		<path d="m416.96 244.5c-2.6367 0-5.5574 0.76816-7.5811 2.9522-2.0747 2.2391-2.4452 4.8972-2.4452 7.4797v18.585c0 2.5825 0.42045 5.1881 2.2559 7.4166 0.12161 0.14797 0.25179 0.28868 0.38987 0.42142 2.0981 2.0128 4.836 2.5939 7.3806 2.5939h9.1857v41.8h-9.1857c-2.6367 0-5.5574 0.76818-7.5811 2.9522-2.0777 2.2424-2.4452 4.8995-2.4452 7.482v18.277c0 2.5825 0.42041 5.1881 2.2559 7.4166 0.12161 0.14797 0.25179 0.28868 0.38987 0.42142 2.0981 2.0128 4.836 2.5939 7.3806 2.5939h60.626c2.5445 0 5.364-0.55943 7.4391-2.799 2.0234-2.1837 2.5871-4.9713 2.5871-7.633v-18.277c0-2.5686-0.53273-5.308-2.5962-7.4436-1.9718-2.2299-4.8715-2.9905-7.4301-2.9905h-8.9017v-41.8h8.9017c2.5445 0 5.364-0.55943 7.4391-2.799 2.0234-2.1837 2.5871-4.9713 2.5871-7.633v-18.585c0-2.569-0.53464-5.3106-2.5962-7.4436-1.9718-2.229-4.872-2.9883-7.4301-2.9883z"/>
		<path d="m304.07 244.5c-2.6367 0-5.5574 0.76816-7.5811 2.9522-2.0747 2.2391-2.4452 4.8972-2.4452 7.4797v99.528c0 2.5825 0.42266 5.1881 2.2581 7.4166 0.12161 0.14797 0.2518 0.28868 0.38988 0.42142 2.0981 2.0128 4.8338 2.5939 7.3783 2.5939h47.961c12.556 0 22.639-2.6814 29.59-8.9243 7.0406-6.2382 10.322-15.783 10.322-27.311v-47.921c0-11.529-3.2814-21.071-10.322-27.309-6.9505-6.2424-17.033-8.9265-29.59-8.9265zm32.087 39.143h12.03c1.3944 0 1.3432 0.22915 1.2462 0.11493 0.0916 0.10777 0.18787 0.21153 0.28847 0.31099-0.18483-0.18285 0.25015 0.20893 0.25015 2.044v37.322c0 1.8351-0.41468 2.3653-0.3989 2.3483-0.0477 0.0516-0.0943 0.1042-0.13972 0.15776 0.097-0.11423 0.14818 0.11492-1.2462 0.11492h-12.03z"/>
		<path d="m209.23 244.5c-2.6023 0-5.21 0.58528-7.4098 2.0463-0.051 0.0344-0.10131 0.0697-0.15099 0.10593-2.163 1.5562-3.5583 3.8566-4.3562 6.2966l0.0383-0.11718-12.381 34.866c-1.9397 5.4434-3.414 10.253-4.4193 14.484-9e-3 0.036-0.017 0.072-0.0248 0.10812-0.90772 4.2452-1.3882 8.0965-1.3882 11.622v40.549c0 2.5825 0.42038 5.1881 2.2558 7.4166 0.12234 0.14802 0.25328 0.28875 0.39213 0.42141 2.0981 2.0128 4.8338 2.5939 7.3783 2.5939h20.92c2.5445 0 5.3641-0.55943 7.4391-2.799 2.0234-2.1837 2.5871-4.9714 2.5871-7.633v-16.6h15.383v16.6c0 2.6616 0.56374 5.4492 2.5871 7.633 0.12359 0.13337 0.25449 0.25978 0.39212 0.37861 2.1751 1.878 4.8729 2.4204 7.4752 2.4204h21.488c2.5445 0 5.364-0.55943 7.4391-2.799 2.0205-2.1806 2.5894-4.9675 2.5894-7.633v-40.549c0-3.5581-0.54065-7.4228-1.5437-11.662-0.91593-4.2732-2.3453-9.0979-4.2886-14.552l-2e-3 -5e-3 -12.379-34.861 0.0383 0.11718c-0.81436-2.4902-2.3498-4.8226-4.5838-6.3371-2.1214-1.4966-4.6796-2.1116-7.1935-2.1116zm18.534 39.449h0.0766l4.6267 16.149h-9.3299z"/>
		<path d="m76.219 244.5c-2.6367 0-5.5567 0.76499-7.5834 2.9522-2.0747 2.2391-2.4452 4.8972-2.4452 7.4797v99.528c0 2.5824 0.42036 5.188 2.2559 7.4166 0.12234 0.14803 0.25328 0.28875 0.39212 0.42142 2.1012 2.0158 4.8361 2.5939 7.3806 2.5939h21.916c2.5445 0 5.3641-0.55949 7.4391-2.799 2.0234-2.1837 2.5871-4.9713 2.5871-7.633v-25.2h15.02c0.347 0 0.31203-0.016 0.36509-0.027-0.23685-0.28441 0.13747 0.13575 0.13747 1.7263v23.501c0 2.5862 0.42563 5.1917 2.2581 7.4166 0.12234 0.14802 0.25328 0.28875 0.39212 0.42142 2.0981 2.0128 4.8338 2.5939 7.3783 2.5939h22.058c2.5445 0 5.3641-0.55949 7.4392-2.799 2.0234-2.1837 2.5871-4.9714 2.5871-7.633v-32.562c0-7.2534-1.8868-13.698-5.945-18.61-1.9066-2.3625-4.2182-4.2778-6.8104-5.7106 0.50527-0.8273 0.95867-1.6902 1.3116-2.6029 1.5198-3.7987 2.195-8.0975 2.195-12.855v-7.0673c0-8.4316-2.3767-15.898-7.2769-21.585-5.3535-6.439-14.316-8.9671-25.664-8.9671zm31.943 37.453h5.7692c0.64282 0 0.78929 0.0115 0.87439 7e-3 0.22939 0.38252 0.48454 1.0082 0.48454 2.3099v5.2216c0 1.1462-0.24098 1.7413-0.4958 2.2784-0.13826 0.0125-0.26101 0.036-0.86313 0.036h-5.7692z"/>
	</g>
	<g fill="#fff">
		<path d="m552.72 245.95c-8.8903 0-16.284 0.76827-22.212 2.3415-5.9003 1.5659-10.61 3.7714-14.103 6.6797-5e-3 3e-3 -9e-3 6e-3 -0.0135 9e-3 -3.3695 2.8878-5.7775 6.4062-7.171 10.488-2e-3 6e-3 -5e-3 0.0104-7e-3 0.0158-1.277 3.9224-1.9066 8.2939-1.9066 13.105v52.374c0 4.8108 0.6304 9.2324 1.9043 13.251 3e-3 0.0104 8e-3 0.0211 0.0115 0.0316 1.3957 3.981 3.8046 7.4428 7.1687 10.326 9e-3 8e-3 0.0194 0.0151 0.0293 0.0225 3.4914 2.7991 8.1931 4.9487 14.087 6.5129 5.9277 1.5731 13.321 2.3438 22.212 2.3438 8.8905 0 16.237-0.77109 22.074-2.346 5.8932-1.5645 10.552-3.712 13.954-6.5197l5e-3 -5e-3c3.4651-2.8849 5.8844-6.359 7.1868-10.358 2.8e-4 -8.4e-4 2e-3 -1e-3 2e-3 -2e-3 1.3708-4.0217 2.0485-8.4455 2.0485-13.258v-52.374c0-4.8116-0.67938-9.1863-2.053-13.111-1.3002-4.092-3.7156-7.616-7.18-10.502-3.403-2.9145-8.0674-5.1166-13.963-6.6819-5.8374-1.575-13.184-2.3438-22.074-2.3438zm0 32.256c5.0154 0 8.065 0.86919 9.0009 1.8119 9e-3 0.0104 0.0194 0.0197 0.0293 0.0293 1.2186 1.1398 1.7713 2.4088 1.7713 4.0722v41.315c0 1.7692-0.57025 3.15-1.7848 4.3833-0.92637 0.85732-4.0045 1.6812-9.0167 1.6812s-8.0903-0.82387-9.0167-1.6812c-1.2141-1.2328-1.7826-2.6133-1.7826-4.3833v-41.315c0-1.6643 0.55092-2.9328 1.7691-4.0722 0.0104-9e-3 0.0197-0.0194 0.0293-0.0293 0.93588-0.9427 3.9855-1.8119 9.0009-1.8119z"/>
		<path d="m416.96 248.25c-1.9989 0-3.7026 0.53244-4.8317 1.751-1.0686 1.1532-1.4446 2.8355-1.4446 4.9309v18.585c0 2.0954 0.38948 3.8055 1.4018 5.0346 0.0282 0.034 0.0583 0.0663 0.0901 0.0969 1.1466 1.1 2.8072 1.5505 4.7844 1.5505h12.936v49.3h-12.936c-1.9989 0-3.7026 0.53245-4.8317 1.751-1.0693 1.154-1.4446 2.8378-1.4446 4.9331v18.277c0 2.0954 0.38947 3.8055 1.4018 5.0346 0.0281 0.034 0.0583 0.0663 0.0901 0.0969 1.1466 1.1 2.8072 1.5505 4.7844 1.5505h60.626c1.9772 0 3.6188-0.44444 4.6875-1.5978 1.1291-1.2185 1.5888-2.9702 1.5888-5.0841v-18.277c0-2.0858-0.45316-3.7877-1.6023-4.9241-1.0475-1.2281-2.7044-1.7601-4.674-1.7601h-12.652v-49.3h12.652c1.9772 0 3.6188-0.44445 4.6875-1.5978 1.129-1.2185 1.5888-2.9702 1.5888-5.0841v-18.585c0-2.0858-0.4539-3.7862-1.6023-4.9219-1.0475-1.2281-2.7044-1.7601-4.674-1.7601z"/>
		<path d="m304.07 248.25c-1.9989 0-3.7004 0.53244-4.8295 1.751-1.0686 1.1532-1.4468 2.8355-1.4468 4.9309v99.528c0 2.0954 0.38947 3.8055 1.4018 5.0346 0.029 0.034 0.0598 0.0665 0.0924 0.0969 1.1466 1.1 2.805 1.5505 4.7821 1.5505h47.961c12.02 0 21.102-2.5871 27.091-7.9687 6.0848-5.3828 9.0708-13.659 9.0708-24.517v-47.921c0-10.858-2.9861-19.132-9.0708-24.515-5.9887-5.3816-15.07-7.971-27.091-7.971zm28.337 31.643h15.78c2.0693 0 3.3286 0.52279 4.1038 1.4355 0.0215 0.0257 0.044 0.0505 0.0676 0.0743 0.82712 0.8183 1.3634 2.3207 1.3634 4.71v37.322c0 2.3893-0.53033 3.9615-1.3972 4.8971-0.0115 0.0126-0.0229 0.0253-0.0338 0.0383-0.77524 0.91273-2.0345 1.4355-4.1038 1.4355h-15.78z"/>
		<path d="m209.23 248.25c-2.0633 0-3.8735 0.44959-5.3343 1.4198-0.0121 8e-3 -0.0241 0.0163-0.036 0.0248-1.3724 0.98744-2.349 2.5009-2.9725 4.3923l-5e-3 0.0135-12.377 34.852c-1.9072 5.352-3.3446 10.047-4.3066 14.096-2e-3 8e-3 -5e-3 0.0165-7e-3 0.0248-0.86655 4.0526-1.3048 7.659-1.3048 10.838v40.549c0 2.0954 0.38946 3.8055 1.4017 5.0346 0.0288 0.034 0.0598 0.0665 0.0924 0.0969 1.1466 1.1 2.805 1.5505 4.7821 1.5505h20.92c1.9772 0 3.6211-0.44444 4.6897-1.5978 1.1291-1.2185 1.5865-2.9702 1.5865-5.0841v-20.35h22.883v20.35c0 2.114 0.45748 3.8656 1.5865 5.0841 0.0291 0.0317 0.06 0.0618 0.0924 0.0901 1.2373 1.0683 2.9622 1.5077 5.0255 1.5077h21.488c1.9772 0 3.6211-0.44444 4.6898-1.5978 1.1284-1.2178 1.5888-2.9693 1.5888-5.0841v-40.549c0-3.1897-0.49249-6.8019-1.4558-10.858-0.86858-4.0569-2.2558-8.7506-4.1624-14.101v-2e-3l-12.377-34.847c-0.62705-1.9098-1.6756-3.4365-3.1415-4.417-1.3704-0.9792-3.0975-1.4356-5.0661-1.4356zm16.794 31.949h3.5584c0.29133 0 0.38934 0.0456 0.57466 0.24564 0.0291 0.0317 0.06 0.0618 0.0924 0.0901 0.26086 0.22522 0.61973 0.7386 0.95327 1.537l6.2402 21.777h-19.282l6.2402-21.781c0.33031-0.79273 0.65163-1.3096 0.86538-1.555 0.27194-0.22037 0.48532-0.31325 0.75721-0.31325z"/>
		<path d="m76.219 248.25c-1.9989 0-3.7042 0.5317-4.834 1.751-1.0686 1.1532-1.4446 2.8355-1.4446 4.9309v99.528c0 2.0954 0.38945 3.8055 1.4017 5.0346 0.02885 0.034 0.05977 0.0665 0.09242 0.0969 1.1474 1.1007 2.8072 1.5505 4.7844 1.5505h21.916c1.9772 0 3.6211-0.44446 4.6897-1.5978 1.129-1.2185 1.5865-2.9702 1.5865-5.0841v-28.95h18.77c1.7755 0 2.6711 0.44045 3.1686 1.1786 0.0224 0.0328 0.0465 0.0644 0.0721 0.0946 0.58707 0.70398 1.0119 2.0688 1.0119 4.1759v23.501c0 2.0962 0.3924 3.8063 1.404 5.0345 0.029 0.034 0.0598 0.0665 0.0924 0.0969 1.1466 1.1 2.805 1.5505 4.7822 1.5505h22.058c1.9772 0 3.6211-0.44446 4.6898-1.5978 1.1291-1.2185 1.5865-2.9702 1.5865-5.0841v-32.562c0-6.6398-1.6777-12.11-5.0999-16.242-2.7341-3.3946-6.2941-5.5702-10.475-6.6098 1.909-1.4192 3.511-3.1438 4.3968-5.4515 1.2993-3.2419 1.9291-7.0702 1.9291-11.475v-7.0673c0-7.7791-2.1215-14.234-6.3957-19.174-4.3074-5.1947-12.001-7.6284-22.795-7.6284zm28.193 29.953h9.5192c2.2426 0 3.3847 0.57442 3.9889 1.5888 7e-3 0.0104 0.0134 0.0211 0.0203 0.0315 0.70902 1.1053 1.0998 2.5594 1.0998 4.4464v5.2216c0 1.8767-0.3881 3.3856-1.111 4.6086-0.58378 0.89964-1.748 1.4558-3.9979 1.4558h-9.5192z"/>
	</g>
	<g fill="#d007b1">
		<path d="m552.72 247.1c-8.8234 0-16.129 0.76728-21.916 2.3032-5.7874 1.5359-10.341 3.6852-13.661 6.4498-3.2258 2.7646-5.5024 6.0925-6.8307 9.9835-1.2334 3.7886-1.8502 8.0385-1.8502 12.749v52.374c0 4.7101 0.61684 9.0109 1.8502 12.902 1.3282 3.7886 3.6049 7.0656 6.8307 9.8302 3.3206 2.6622 7.874 4.7607 13.661 6.2966 5.7874 1.5359 13.093 2.3054 21.916 2.3054 8.8234 0 16.082-0.76953 21.774-2.3054 5.7874-1.5359 10.294-3.6343 13.519-6.2966 3.3206-2.7646 5.5973-6.0416 6.8307-9.8302 1.3282-3.891 1.9922-8.1918 1.9922-12.902v-52.374c0-4.7101-0.66394-8.9601-1.9922-12.749-1.2334-3.891-3.51-7.2188-6.8307-9.9835-3.2258-2.7646-7.732-4.9139-13.519-6.4498-5.6925-1.5359-12.951-2.3032-21.774-2.3032zm0 29.948c5.1233 0 8.3958 0.71869 9.819 2.1522 1.4231 1.3311 2.1364 2.9696 2.1364 4.9151v41.315c0 2.0479-0.71328 3.7881-2.1364 5.2216-1.4231 1.3311-4.6957 1.9967-9.819 1.9967-5.1233 0-8.3958-0.66557-9.8189-1.9967-1.4231-1.4335-2.1342-3.1737-2.1342-5.2216v-41.315c0-1.9455 0.71103-3.584 2.1342-4.9151 1.4231-1.4335 4.6957-2.1522 9.8189-2.1522z"/>
		<path d="m416.96 249.41c-1.8026 0-3.1305 0.45991-3.9844 1.3814-0.759 0.81915-1.1381 2.2012-1.1381 4.1466v18.585c0 1.9455 0.37907 3.3783 1.1381 4.2999 0.85388 0.81915 2.1817 1.2282 3.9844 1.2282h14.09v51.608h-14.09c-1.8026 0-3.1305 0.45992-3.9844 1.3815-0.759 0.81915-1.1381 2.2034-1.1381 4.1489v18.277c0 1.9455 0.37907 3.3783 1.1381 4.2999 0.85388 0.81915 2.1817 1.2282 3.9844 1.2282h60.626c1.8026 0 3.0834-0.40906 3.8424-1.2282 0.85388-0.92154 1.28-2.3544 1.28-4.2999v-18.277c0-1.9455-0.42617-3.3297-1.28-4.1489-0.759-0.92154-2.0398-1.3815-3.8424-1.3815h-13.806v-51.608h13.806c1.8026 0 3.0834-0.40906 3.8424-1.2282 0.85388-0.92156 1.28-2.3544 1.28-4.2999v-18.585c0-1.9455-0.42617-3.3275-1.28-4.1466-0.759-0.92154-2.0398-1.3814-3.8424-1.3814z"/>
		<path d="m304.07 249.41c-1.8026 0-3.1305 0.45991-3.9844 1.3814-0.75899 0.81915-1.1381 2.2012-1.1381 4.1466v99.528c0 1.9455 0.37908 3.3783 1.1381 4.2999 0.85388 0.81915 2.1817 1.2282 3.9844 1.2282h47.961c11.859 0 20.634-2.5583 26.327-7.678 5.7874-5.1197 8.6809-13.005 8.6809-23.654v-47.921c0-10.649-2.8935-18.532-8.6809-23.652-5.6925-5.1197-14.467-7.6803-26.327-7.6803zm27.183 29.335h16.934c2.277 0 3.9391 0.61471 4.9827 1.8434 1.1385 1.1263 1.706 2.9705 1.706 5.5304v37.322c0 2.5598-0.56748 4.4526-1.706 5.6813-1.0436 1.2287-2.7057 1.8434-4.9827 1.8434h-16.934z"/>
		<path d="m209.23 249.41c-1.8975 0-3.4631 0.40906-4.6965 1.2282-1.1385 0.81915-1.9908 2.0994-2.5601 3.8402l-12.381 34.865c-1.8975 5.3245-3.3218 9.9835-4.2706 13.977-0.85388 3.9934-1.28 7.5246-1.28 10.596v40.549c0 1.9455 0.37906 3.3783 1.1381 4.2999 0.85388 0.81915 2.1818 1.2282 3.9844 1.2282h20.92c1.8026 0 3.0834-0.40906 3.8424-1.2282 0.85388-0.92154 1.28-2.3544 1.28-4.2999v-21.504h25.191v21.504c0 1.9455 0.42618 3.3783 1.2801 4.2999 0.94874 0.81915 2.3731 1.2282 4.2706 1.2282h21.488c1.8026 0 3.0834-0.40906 3.8424-1.2282 0.85388-0.92154 1.2823-2.3544 1.2823-4.2999v-40.549c0-3.0718-0.47552-6.6031-1.4243-10.596-0.85388-3.9934-2.2288-8.6524-4.1263-13.977l-12.381-34.865c-0.56926-1.7407-1.471-3.021-2.7043-3.8402-1.1385-0.81915-2.6099-1.2282-4.4126-1.2282zm16.794 29.642h3.5584c0.56925 0 1.0425 0.20566 1.422 0.61523 0.47438 0.40958 0.90054 1.0752 1.28 1.9967l6.6887 23.345h-22.342l6.6887-23.345c0.3795-0.92154 0.75858-1.5871 1.1381-1.9967 0.47438-0.40957 0.997-0.61523 1.5662-0.61523z"/>
		<path d="m76.219 249.41c-1.8026 0-3.1327 0.45991-3.9866 1.3814-0.75901 0.81915-1.1381 2.2012-1.1381 4.1466v99.528c0 1.9455 0.37906 3.3783 1.1381 4.2999 0.85388 0.81915 2.184 1.2282 3.9866 1.2282h21.916c1.8026 0 3.0834-0.40906 3.8424-1.2282 0.85387-0.92154 1.28-2.3544 1.28-4.2999v-30.104h19.924c1.9924 0 3.3674 0.56162 4.1263 1.688 0.85388 1.024 1.2801 2.6624 1.2801 4.9151v23.501c0 1.9455 0.38131 3.3783 1.1403 4.2999 0.85388 0.81915 2.1817 1.2282 3.9844 1.2282h22.058c1.8026 0 3.0834-0.40906 3.8424-1.2282 0.85388-0.92154 1.28-2.3544 1.28-4.2999v-32.562c0-6.4508-1.6127-11.621-4.8385-15.512-3.1309-3.891-7.258-6.1442-12.381-6.7586 2.9412-1.3311 4.9823-3.4804 6.1208-6.4498 1.2334-3.0718 1.8502-6.7579 1.8502-11.058v-7.0673c0-7.5771-2.0412-13.72-6.1208-18.43-3.9848-4.8125-11.29-7.2183-21.916-7.2183zm27.039 27.645h10.673c2.4668 0 4.1266 0.71869 4.9805 2.1522 0.85387 1.3311 1.2823 3.0205 1.2823 5.0684v5.2216c0 2.0479-0.42842 3.7881-1.2823 5.2216-0.85388 1.3311-2.5137 1.9967-4.9805 1.9967h-10.673z"/>
	</g>
	<g fill="#ea00c1">
		<path d="m665.98 64.077c-4.0162 0-7.6746 0.66803-10.84 2.3235-0.0486 0.0255-0.0966 0.05181-0.14423 0.07892-3.0674 1.738-5.4056 4.5811-6.7833 7.8989l0.0586-0.13522-22.581 50.075c-3.5227 7.7847-6.1943 14.651-8.0116 20.675-0.0134 0.0442-0.0262 0.0885-0.0383 0.13295-1.6408 6.043-2.506 11.517-2.506 16.505v58.238c0 3.603 0.95877 7.2062 3.59 9.722 0.13702 0.13069 0.28149 0.25335 0.43269 0.36734 2.8821 2.1774 6.3522 2.7562 10.225 2.7562h38.156c3.8724 0 7.3389-0.51573 10.182-2.9319 2.8544-2.426 4.0655-6.2072 4.0655-9.9136v-25.98h36.134v25.98c0 3.7038 1.207 7.4861 4.0633 9.9136 0.13321 0.11331 0.27237 0.21934 0.41692 0.31776 2.9873 2.0311 6.5284 2.6142 10.545 2.6142h39.195c3.8724 0 7.3389-0.51575 10.182-2.9319 2.8544-2.426 4.0655-6.2072 4.0655-9.9136v-58.238c0-5.0385-0.97428-10.537-2.7945-16.584-1.6542-6.0706-4.2424-12.947-7.7637-20.729l-2e-3 -5e-3 -22.579-50.071 0.0586 0.13522c-1.405-3.3833-3.9208-6.2342-7.1282-7.9327-3.025-1.6903-6.5401-2.3685-10.378-2.3685zm30.762 52.383h6.1501c0.0134 0.0104 0.0269 0.0211 0.0405 0.0316-0.0408-0.0278 0.29333 0.33712 0.6513 0.942l9.6409 26.5h-26.746l9.6499-26.523c0.33889-0.59034 0.53038-0.84729 0.61298-0.95102z"/>
		<path d="m506.97 64.077c-22.185 0-39.236 3.659-51.08 11.91-0.0104 0.0069-0.021 0.0135-0.0315 0.02031-11.691 8.2801-17.643 21.571-17.643 37.975v68.825c0 16.405 5.9526 29.695 17.643 37.975 0.0104 7e-3 0.021 0.0136 0.0315 0.0203 11.844 8.2513 28.895 11.91 51.08 11.91h81.761c3.8724 0 7.3389-0.51576 10.182-2.9319 2.8544-2.426 4.0655-6.2072 4.0655-9.9136v-68.165c0-3.6234-1.209-7.373-4.1083-9.6905-2.7532-2.4768-6.3062-3.155-10.139-3.155h-40.231c-3.9458 0-7.5881 0.72628-10.443 3.1528-2.8449 2.4179-3.8041 6.0897-3.8041 9.6928v29.511h-20.273c-3.1728 0-4.8865-0.68655-5.8053-1.4288-0.63586-0.62317-1.2305-1.7336-1.2305-4.4779v-52.723c0-2.5239 0.45912-3.2345 1.7443-4.1083 0.051-0.0344 0.10131-0.0697 0.15099-0.10593 1.296-0.95457 4.2502-1.911 9.0324-1.911h53.987c3.8724 0 7.3392-0.51405 10.184-2.9319 2.8544-2.426 4.0655-6.2072 4.0655-9.9136v-26.692c0-3.6228-1.21-7.3707-4.1083-9.6882-2.7552-2.4793-6.308-3.1573-10.141-3.1573z"/>
		<path d="m290.03 64.077c-3.9458 0-7.5899 0.72775-10.443 3.1528-2.8429 2.4162-3.8041 6.0871-3.8041 9.6927v142.95c0 3.6056 0.96294 7.208 3.5922 9.722 0.13701 0.1307 0.28149 0.25335 0.43269 0.36734 2.8803 2.176 6.3499 2.7562 10.222 2.7562h120.43c3.8724 0 7.3392-0.51406 10.184-2.9319 2.8562-2.4275 4.0632-6.2098 4.0632-9.9136v-25.808c1e-5 -3.6208-1.2075-7.3717-4.1083-9.6905-2.755-2.4784-6.3063-3.155-10.139-3.155h-66.734v-9.1654h45.71c3.8724 0 7.3392-0.51404 10.184-2.932 2.8562-2.4275 4.0632-6.2098 4.0632-9.9136v-23.602c0-3.6208-1.2074-7.3717-4.1083-9.6905-2.755-2.4784-6.3063-3.155-10.139-3.155h-45.71v-7.18h66.734c3.8724 0 7.3392-0.51406 10.184-2.9319 2.8562-2.4275 4.0632-6.2098 4.0632-9.9136v-25.808c1e-5 -3.6208-1.2075-7.3717-4.1083-9.6905-2.755-2.4784-6.3063-3.155-10.139-3.155z"/>
		<path d="m80.44 64.077c-3.9458 0-7.5881 0.72624-10.443 3.1528-2.8429 2.4162-3.8063 6.0871-3.8063 9.6927v142.95c0 3.6056 0.96292 7.208 3.5922 9.722 0.13702 0.1307 0.28149 0.25335 0.43269 0.36734 2.8821 2.1774 6.3522 2.7562 10.225 2.7562h38.674c3.8724 0 7.3389-0.51574 10.182-2.9319 2.8545-2.426 4.0655-6.2072 4.0655-9.9136v-60.823l6.247 9.8099c1.8925 3.0381 4.2814 5.5377 7.1958 7.189 0.1226 0.07 0.24818 0.13465 0.37636 0.19381 3.0714 1.4056 6.5472 1.9877 10.346 1.9877h10.382c3.7991 1e-5 7.2263-0.56542 10.227-2.053 0.031-0.0161 0.0618-0.0328 0.0924-0.0496 3.1023-1.6226 5.6649-4.1627 7.5992-7.2679l6.2492-9.8122v60.825c0 3.603 0.95874 7.2062 3.59 9.722 0.13702 0.13069 0.28149 0.25335 0.43269 0.36733 2.8821 2.1774 6.3522 2.7562 10.225 2.7562h39.972c3.8724 0 7.3389-0.51575 10.182-2.9319 2.8544-2.426 4.0655-6.2072 4.0655-9.9136v-142.95c0-3.6233-1.2091-7.373-4.1083-9.6905-2.7532-2.4768-6.3063-3.155-10.139-3.155h-42.048c-3.3758 0-6.5617 0.63085-9.3412 2.1342-0.0593 0.03185-0.11788 0.06485-0.17579 0.09912-2.5852 1.538-4.6759 3.805-6.5129 6.5805-0.0121 0.01869-0.0241 0.0375-0.036 0.05631l-23.084 35.931c-0.60393 0.92226-0.98464 1.318-1.1809 1.5234h-1.1899c-0.3085-0.40785-0.56349-0.71452-1.0885-1.5167l-7e-3 -9e-3c-1e-3 -2e-3 -8.6e-4 -2e-3 -2e-3 -5e-3l-23.35-35.945c-7e-3 -0.012-0.015-0.024-0.0225-0.036-1.863-2.8149-4.1222-5.1093-6.8645-6.6166-2.6988-1.5798-5.8244-2.1973-9.1654-2.1973z"/>
	</g>
	<g fill="#fff">
		<path d="m665.98 67.827c-3.5914 0-6.6351 0.60607-9.1001 1.8953-0.0121 0.0069-0.0241 0.01327-0.036 0.02031-2.3096 1.3087-4.0494 3.3832-5.1675 6.0757l-22.568 50.044c-3.4751 7.6793-6.0895 14.412-7.8403 20.215-3e-3 0.0104-6e-3 0.021-9e-3 0.0316-1.577 5.8079-2.3753 10.975-2.3753 15.523v58.238c0 2.9845 0.75395 5.4068 2.4316 7.011 0.0321 0.0313 0.0659 0.0606 0.10142 0.0879 1.8691 1.412 4.5389 1.9967 7.9642 1.9967h38.156c3.4253 0 6.0249-0.57129 7.7524-2.0395 1.8625-1.583 2.7449-4.0472 2.7449-7.056v-29.73h43.634v29.73c0 3.0082 0.87743 5.4727 2.7404 7.056 0.0317 0.0265 0.0647 0.0513 0.0991 0.0744 2.0261 1.3776 4.8438 1.9651 8.4352 1.9651h39.195c3.4253 0 6.0249-0.57129 7.7524-2.0395 1.8625-1.583 2.7449-4.0472 2.7449-7.056v-58.238c0-4.5585-0.89062-9.7317-2.6412-15.539-1.58-5.8149-4.1083-12.551-7.5834-20.231l-2e-3 -2e-3 -22.565-50.041c-1.1235-2.7055-2.9733-4.7812-5.4447-6.0802-2.3017-1.3001-5.1812-1.9111-8.5997-1.9111zm30.626 44.883h6.4881c0.82122 0 1.3736 0.20306 1.848 0.60623 0.0317 0.0265 0.0647 0.0515 0.0991 0.0744 0.64456 0.43824 1.3168 1.2351 1.9449 2.4271l11.593 31.866h-37.455l11.595-31.873c0.62937-1.1952 1.2389-2.0015 1.7375-2.4384 0.67007-0.44257 1.3498-0.66255 2.1499-0.66256z"/>
		<path d="m506.97 67.827c-21.76 0-38.078 3.6719-48.937 11.236-2e-3 0.0012-5e-3 0.0035-7e-3 0.0046-10.69 7.5714-16.061 19.359-16.061 34.915v68.825c0 15.556 5.3713 27.344 16.061 34.915 2e-3 1e-3 5e-3 3e-3 7e-3 5e-3 10.859 7.5646 27.177 11.236 48.937 11.236h81.761c3.4253 0 6.0272-0.57131 7.7546-2.0395 1.8625-1.583 2.7426-4.0472 2.7426-7.056v-68.165c0-2.9802-0.88359-5.3779-2.7539-6.8239-1.715-1.6051-4.3332-2.2716-7.7434-2.2716h-40.231c-3.4426 0-6.1534 0.67728-8.0161 2.2604-1.728 1.4686-2.4812 3.8506-2.4812 6.8352v33.261h-24.023c-3.7966 0-6.514-0.84194-8.3135-2.3618-1.5987-1.4939-2.4722-3.8307-2.4722-7.2949v-52.723c0-3.4054 1.0999-5.6541 3.3872-7.2093 0.0121-8e-3 0.0241-0.0163 0.036-0.0248 2.2898-1.6866 6.0273-2.6412 11.254-2.6412h53.987c3.4253 0 6.029-0.5709 7.7569-2.0395 1.8625-1.583 2.7426-4.0472 2.7426-7.056v-26.692c0-2.9802-0.8836-5.3778-2.7539-6.8239-1.7155-1.6056-4.3354-2.2716-7.7456-2.2716z"/>
		<path d="m290.03 67.827c-3.4426 0-6.1516 0.67761-8.0138 2.2604-1.7275 1.4682-2.4835 3.85-2.4835 6.8352v142.95c0 2.9851 0.75666 5.4073 2.4339 7.011 0.0321 0.0313 0.0659 0.0606 0.10142 0.0879 1.8686 1.4117 4.5367 1.9967 7.962 1.9967h120.43c3.4253 0 6.0267-0.5709 7.7546-2.0395 1.863-1.5833 2.7426-4.0478 2.7426-7.056v-25.808c2e-5 -2.9796-0.88322-5.3775-2.7539-6.8239-1.7155-1.6055-4.3332-2.2716-7.7434-2.2716h-70.484v-16.665h49.46c3.4253 0 6.0267-0.5709 7.7546-2.0395 1.863-1.5833 2.7426-4.0478 2.7426-7.056v-23.602c0-2.9796-0.88319-5.3775-2.7539-6.8239-1.7155-1.6056-4.3332-2.2716-7.7434-2.2716h-49.46v-14.68h70.484c3.4253 0 6.0267-0.5709 7.7546-2.0395 1.863-1.5833 2.7426-4.0478 2.7426-7.056v-25.808c2e-5 -2.9796-0.88322-5.3775-2.7539-6.8239-1.7155-1.6055-4.3332-2.2716-7.7434-2.2716z"/>
		<path d="m80.44 67.827c-3.4426 0-6.1534 0.67726-8.0161 2.2604-1.7275 1.4682-2.4835 3.85-2.4835 6.8352v142.95c0 2.9851 0.75664 5.4073 2.4339 7.011 0.03208 0.0313 0.06588 0.0606 0.10142 0.0879 1.869 1.412 4.5389 1.9967 7.9642 1.9967h38.674c3.4253 0 6.0272-0.57129 7.7546-2.0395 1.8626-1.583 2.7426-4.0472 2.7426-7.056v-73.691l13.179 20.697c1e-3 2e-3 3e-3 5e-3 5e-3 7e-3l2e-3 2e-3c1.6349 2.6217 3.5864 4.6111 5.8571 5.8977 0.0286 0.0171 0.0579 0.0328 0.0879 0.0473 2.4429 1.118 5.3765 1.6474 8.7846 1.6474h10.382c3.408 1e-5 6.2653-0.52589 8.5592-1.6632 8e-3 -3e-3 0.015-8e-3 0.0225-0.0115 2.447-1.2798 4.5029-3.2804 6.1478-5.918l2e-3 -2e-3 13.186-20.704v73.691c0 2.9845 0.75394 5.4068 2.4316 7.011 0.0321 0.0313 0.0659 0.0606 0.10143 0.0879 1.869 1.412 4.539 1.9967 7.9642 1.9967h39.972c3.4253 0 6.0272-0.57129 7.7546-2.0395 1.8625-1.583 2.7426-4.0472 2.7426-7.056v-142.95c0-2.9802-0.8836-5.3778-2.7539-6.8239-1.715-1.6051-4.3332-2.2716-7.7434-2.2716h-42.048c-2.9115 0-5.449 0.54248-7.5586 1.6834-0.0137 0.0069-0.0272 0.01477-0.0406 0.0225-1.9315 1.1491-3.6796 2.9742-5.3027 5.4267-3e-3 0.0046-6e-3 0.0092-9e-3 0.0135l-23.102 35.958c-0.82856 1.2664-1.5654 2.1476-2.1116 2.6119-0.0418 0.0355-0.0809 0.0739-0.11718 0.11493-0.26656 0.30206-0.65206 0.49354-1.4716 0.49353h-2.337c-0.79941 0-1.3322-0.20737-1.8006-0.5927-0.44647-0.51694-1.0861-1.3806-1.9043-2.6322v-2e-3l-23.359-35.956c-1e-3 -0.0035-3e-3 -0.0058-5e-3 -0.0092-1.6293-2.4617-3.4839-4.2933-5.5867-5.4357-1.9594-1.1594-4.4137-1.697-7.3152-1.697z"/>
	</g>
	<g fill="#d007b1">
		<path d="m665.98 68.981c-3.4607 0-6.3165 0.58804-8.566 1.7646-2.0764 1.1765-3.6335 3.0145-4.6717 5.5146l-22.581 50.075c-3.4607 7.6474-6.0581 14.34-7.7884 20.075-1.5573 5.7356-2.3347 10.809-2.3347 15.221v58.238c0 2.7942 0.69127 4.8535 2.0756 6.1771 1.5574 1.1765 3.9802 1.7646 7.2679 1.7646h38.156c3.2877 0 5.6222-0.58804 7.0065-1.7646 1.5573-1.3236 2.337-3.3829 2.337-6.1771v-30.883h45.942v30.883c0 2.7942 0.7774 4.8535 2.3347 6.1771 1.7304 1.1765 4.3255 1.7646 7.7862 1.7646h39.195c3.2877 0 5.6222-0.58804 7.0064-1.7646 1.5573-1.3236 2.337-3.3829 2.337-6.1771v-58.238c0-4.412-0.86579-9.4853-2.5962-15.221-1.5573-5.7356-4.0663-12.428-7.527-20.075l-22.581-50.075c-1.0382-2.5001-2.6814-4.338-4.9309-5.5146-2.0764-1.1765-4.7599-1.7646-8.0476-1.7646zm30.626 42.575h6.4881c1.0382 0 1.904 0.2929 2.5962 0.88117 0.86519 0.58825 1.6448 1.5452 2.337 2.8688l12.199 33.531h-40.75l12.199-33.531c0.69215-1.3236 1.3834-2.2806 2.0756-2.8688 0.86519-0.58827 1.8171-0.88117 2.8553-0.88117z"/>
		<path d="m506.97 68.981c-21.63 0-37.721 3.6759-48.277 11.029-10.382 7.3533-15.575 18.678-15.575 33.973v68.825c0 15.295 5.1924 26.62 15.575 33.973 10.555 7.3533 26.647 11.029 48.277 11.029h81.761c3.2877 0 5.6222-0.58804 7.0065-1.7646 1.5573-1.3236 2.337-3.3829 2.337-6.1771v-68.165c0-2.7942-0.77966-4.7798-2.337-5.9563-1.3843-1.3236-3.7188-1.9854-7.0065-1.9854h-40.231c-3.2877 0-5.7105 0.66184-7.2679 1.9854-1.3843 1.1765-2.0756 3.162-2.0756 5.9563v34.415h-25.177c-3.9798 0-7.0078-0.8832-9.0843-2.648-1.9034-1.7648-2.8553-4.4859-2.8553-8.1626v-52.723c0-3.6766 1.2964-6.3978 3.892-8.1626 2.5956-1.9119 6.5754-2.8666 11.94-2.8666h53.987c3.2877 0 5.6244-0.58805 7.0087-1.7646 1.5573-1.3236 2.337-3.3829 2.337-6.1771v-26.692c0-2.7942-0.77965-4.7797-2.337-5.9563-1.3843-1.3236-3.721-1.9854-7.0087-1.9854z"/>
		<path d="m290.03 68.981c-3.2877 0-5.7083 0.66183-7.2656 1.9854-1.3843 1.1765-2.0778 3.162-2.0778 5.9563v142.95c0 2.7942 0.69353 4.8535 2.0778 6.1771 1.5573 1.1765 3.9779 1.7646 7.2656 1.7646h120.43c3.2877 0 5.6244-0.58804 7.0087-1.7646 1.5573-1.3236 2.3347-3.3829 2.3347-6.1771v-25.808c1e-5 -2.7942-0.7774-4.7797-2.3347-5.9563-1.3843-1.3236-3.721-1.9854-7.0087-1.9854h-71.638v-18.973h50.614c3.2877 0 5.6244-0.58805 7.0087-1.7646 1.5574-1.3236 2.3347-3.3829 2.3347-6.1771v-23.602c0-2.7942-0.77739-4.7798-2.3347-5.9563-1.3843-1.3236-3.721-1.9854-7.0087-1.9854h-50.614v-16.988h71.638c3.2877 0 5.6244-0.58805 7.0087-1.7646 1.5573-1.3236 2.3347-3.3829 2.3347-6.1771v-25.808c1e-5 -2.7942-0.7774-4.7797-2.3347-5.9563-1.3843-1.3236-3.721-1.9854-7.0087-1.9854z"/>
		<path d="m80.44 68.981c-3.2877 0-5.7105 0.66183-7.2679 1.9854-1.3843 1.1765-2.0778 3.162-2.0778 5.9563v142.95c0 2.7942 0.69352 4.8535 2.0778 6.1771 1.5573 1.1765 3.9802 1.7646 7.2679 1.7646h38.674c3.2877 0 5.6222-0.58804 7.0064-1.7646 1.5574-1.3236 2.337-3.3829 2.337-6.1771v-77.65l15.313 24.046c1.5573 2.5001 3.375 4.338 5.4515 5.5146 2.2495 1.0295 5.0168 1.5437 8.3045 1.5437h10.382c3.2877 0 5.9712-0.51426 8.0476-1.5437 2.2495-1.1765 4.151-3.0144 5.7084-5.5146l15.315-24.046v77.65c0 2.7942 0.69127 4.8535 2.0756 6.1771 1.5573 1.1765 3.9802 1.7646 7.2679 1.7646h39.972c3.2877 0 5.6222-0.58804 7.0064-1.7646 1.5573-1.3236 2.337-3.3829 2.337-6.1771v-142.95c0-2.7942-0.77965-4.7797-2.337-5.9563-1.3843-1.3236-3.7187-1.9854-7.0064-1.9854h-42.048c-2.7686 0-5.1053 0.51426-7.0087 1.5437-1.7304 1.0295-3.3735 2.7198-4.9309 5.0729l-23.102 35.959c-0.86517 1.3236-1.6426 2.2783-2.3347 2.8666-0.51912 0.58825-1.2988 0.8834-2.337 0.8834h-2.337c-1.0382 0-1.9018-0.29515-2.5939-0.8834-0.51911-0.58826-1.2126-1.543-2.0778-2.8666l-23.359-35.959c-1.5573-2.353-3.2889-4.0434-5.1923-5.0729-1.7304-1.0295-3.9787-1.5437-6.7473-1.5437z"/>
	</g>
	<path d="m619.16 362.29c-2.8593-2.0908-2.8664-2.2787-0.19928-5.2259 4.1857-4.6252 5.1442-18.434 1.7726-25.539-2.4624-5.1892-2.494-5.9653-0.33052-8.1287 2.6656-2.6656 17.713-7.0243 19.799-5.7351 0.73474 0.45408 1.3359 2.1694 1.3359 3.8117 0 3.7955 0.25479 3.7645 7.0694-0.86003 3.1172-2.1154 7.3332-3.8462 9.369-3.8462s5.4322 1.7308 7.5475 3.8462c4.6867 4.6867 4.9104 4.6966 9.4631 0.41958 4.6538-4.372 14.193-4.6422 18.736-0.53079 2.764 2.5014 3.1998 4.6818 3.1998 16.01 0 7.2126 0.85445 15.477 1.8988 18.365 1.692 4.679 1.5762 5.4869-1.0633 7.4169-3.8066 2.7834-16.303 2.8001-20.096 0.0268-2.5285-1.8489-2.6728-2.6938-1.0633-6.2262 2.7072-5.9416 2.4164-21.567-0.44549-23.942-1.8411-1.528-2.7743-1.528-4.6154 0-2.8619 2.3752-3.1527 18.001-0.4455 23.942 1.6095 3.5325 1.4652 4.3774-1.0633 6.2262-4.1451 3.031-19.839 2.8424-22.421-0.26942-1.656-1.9953-1.5563-3.158 0.58086-6.7758 4.6449-7.8631 2.7174-24.662-2.8296-24.662-3.2586 0-4.3696 6.5473-3.2862 19.365 0.85748 10.144 0.65 11.485-1.9956 12.901-4.3032 2.303-17.47 1.9325-20.917-0.58854zm88.147 0.50706c-3.3022-1.9234-3.4595-5.0172-0.38463-7.5691 3.4352-2.851 3.2385-22.826-0.24997-25.377-5.7512-4.2054 3.021-10.804 15.722-11.827l6.0669-0.48833 0.76923 17.692c0.52186 12.003 1.5113 18.836 3.0769 21.248 2.1065 3.2453 2.0473 3.7482-0.67867 5.7692-3.4756 2.5767-20.194 2.9564-24.321 0.55232zm30.205-0.55977c-0.56977-1.4848 0.81546-4.0103 3.654-6.6618 2.5144-2.3488 6.0911-7.249 7.9483-10.889l3.3767-6.6189-4.1731-5.4712c-2.2952-3.0092-5.4041-5.7931-6.9086-6.1866-3.7059-0.96911-4.793-4.3966-2.1026-6.6294 2.9188-2.4224 20.444-3.6812 25.308-1.818 3.0542 1.1699 3.8461 2.5448 3.8461 6.6773 0 3.6002 0.71122 5.2041 2.3077 5.2041 1.6083 0 2.3077-1.6193 2.3077-5.3428 0-4.3713 0.73005-5.6004 4.0147-6.7595 8.6346-3.0469 15.833 2.3738 9.3162 7.015-1.5526 1.1057-4.7312 4.9091-7.0635 8.452l-4.2406 6.4418 4.626 6.7236c2.5443 3.698 5.7229 7.634 7.0635 8.7466 3.2857 2.7269 3.0712 5.8142-0.53825 7.7459-4.8316 2.5858-23.987 2.0177-26.309-0.7803-1.4916-1.7973-1.5373-2.8049-0.18837-4.1538 2.4025-2.4025 2.2483-6.5548-0.32262-8.6885-3.0628-2.5419-6.2393 1.9165-6.3049 8.8493-0.0529 5.5784-0.0769 5.5982-7.3764 6.0662-5.5103 0.35331-7.5506-0.12245-8.241-1.9218zm-31.512-51.911c-2.6917-5.0295 4.1377-10.483 13.127-10.483 8.0156 0 11.171 2.8209 8.5773 7.6676-3.5898 6.7077-18.581 8.6525-21.705 2.8158z" fill="#fff"/>
</svg>
