<svg xmlns="http://www.w3.org/2000/svg" width="687.804" height="439.934" viewBox="0 0 181.981 116.399"><path d="M130.409 80.374a1.2 1.2 0 0 0-1.203 1.203v21.09a1.2 1.2 0 0 0 1.203 1.204 1.2 1.2 0 0 0 1.203-1.203V95.02h.002a5.211 5.254 0 0 1 2.606-4.55 5.211 5.254 0 0 1 5.21 0 5.211 5.254 0 0 1 2.607 4.55h.001v7.647a1.2 1.2 0 0 0 1.203 1.203 1.2 1.2 0 0 0 1.203-1.203V95.02a7.619 7.619 0 0 0-3.81-6.598 7.619 7.619 0 0 0-3.988-1.02 7.619 7.619 0 0 0-3.63 1.02 7.619 7.619 0 0 0-1.404 1.054v-7.9a1.2 1.2 0 0 0-1.203-1.203zm-10.104 7.028c-2.125.01-4.451.601-5.874 2.283-.926 1.095-.914 2.726-.383 3.998.451 1.081 1.547 1.66 2.623 1.997 2.448.769 4.88 1.595 7.29 2.47.861.312.673 1.378.172 1.97-.938 1.107-2.495 1.442-3.858 1.322-1.428-.125-3.03-.461-3.979-1.652-.358-.45-.872-.86-1.497-.702-.94.238-1.08 1.363-.585 2.096.932 1.38 2.52 2.172 4.098 2.5 2.464.511 5.244.187 7.283-1.383a3.666 3.666 0 0 0 1.42-2.873c.01-1.472-.742-3.019-2.17-3.523-2.687-.949-5.417-1.779-8.096-2.75-.86-.312-.673-1.377-.172-1.97.937-1.107 2.494-1.44 3.858-1.32 1.427.125 3.03.46 3.978 1.651.357.45.872.86 1.498.7.94-.238 1.08-1.362.585-2.094-.932-1.38-2.523-2.161-4.1-2.5a9.768 9.768 0 0 0-2.09-.22zm34.687 0a8.234 8.234 0 0 0-8.234 8.234 8.234 8.234 0 0 0 8.234 8.235 8.234 8.234 0 0 0 8.235-8.235 8.234 8.234 0 0 0-8.235-8.234zm18.755 0a8.234 8.234 0 0 0-8.234 8.232 8.234 8.234 0 0 0 0 .002v14.04c0 .667.531 1.204 1.191 1.204h.024c.66 0 1.191-.537 1.191-1.203v-8.231a8.234 8.234 0 0 0 5.828 2.425 8.234 8.234 0 0 0 8.234-8.235 8.234 8.234 0 0 0-8.234-8.234zm-18.755 2.406a5.828 5.828 0 0 1 5.827 5.828 5.828 5.828 0 0 1-5.827 5.828 5.828 5.828 0 0 1-5.828-5.828 5.828 5.828 0 0 1 5.828-5.828zm18.755 0a5.828 5.828 0 0 1 5.827 5.828 5.828 5.828 0 0 1-5.827 5.828 5.828 5.828 0 0 1-5.828-5.828v-.001a5.828 5.828 0 0 1 5.828-5.826z" fill="#309a9a"/><path d="M77.027 0c-1.446-.008-3.075 2.325-3.075 2.325L50.877 36.338S26.965 20.614 7.815 8.52c-1.397-.882-4.145-.856-5.131-.32-.846.459-.065 1.887 2.976 3.858 6.06 3.926 35.814 23.9 38.246 26.706 0 0-11.55.9-16.2 1.71-8.502 1.481-18.719 3.162-22.971 11.686C-.775 63.206-.668 76.134 1.02 88.071c1.3 9.187 4.818 19.529 13.996 23.592 8.35 3.697 17.709 4.065 26.693 4.494 16.682.796 33.558-.347 49.933-3.776 6.344-1.328 12.587-4.808 15.005-11.239 3.451-9.182 4.267-19.18 3.182-28.829-1.022-9.085-2.003-19.427-8.662-26.164-5.742-5.81-14.889-5.867-22.638-6.888-6.563-.865-13.453-.764-20.054-1.122 5.337-11.39 9.128-16.659 18.304-33.404.658-1.2 2.015-3.677 1.02-4.46A1.231 1.231 0 0 0 77.027 0zM50.645 46.064c.593-.001 1.186.006 1.78.023 8.731.25 18.82-.246 25.831 5.425 6.86 5.549 7.652 15.676 8.254 24.084.62 8.66.67 18.97-5.77 25.408-5.483 5.48-14.176 5.764-21.588 6.508-11.396 1.143-23.153 1.12-34.367-1.708-7.194-1.814-11.593-8.376-13.026-15.262-2.43-11.684-3.447-25.286 3.537-35.434 4.918-7.147 14.946-7.26 22.934-8.135 4.123-.45 8.265-.896 12.415-.909zm44.3 43.988a5.6 5.6 0 1 1 0 11.202 5.6 5.6 0 0 1 0-11.202z" fill="#ec671c"/><path d="M53.41 71.474a2.16 2.16 0 0 0-.847.148l-.004.002a2.16 2.16 0 0 0-1.228 2.805l11.121 28.498.002.008.41 1.053c.143.365.549.588.949.725.28.096.567.158.834.154.287-.025.585-.057.83-.151.397-.153.81-.363.954-.73l.41-1.051.001-.007 11.12-28.498a2.158 2.158 0 0 0-1.223-2.803l-.013-.005a2.158 2.158 0 0 0-2.799 1.233l-7.113 18.23v-.002l-2.167 5.552-2.167-5.554v.002l-7.114-18.23a2.161 2.161 0 0 0-1.955-1.38zm-28.482-.002c-1.208 0-2.18.973-2.18 2.181 0 1.208.972 2.181 2.18 2.181h8.31V102.7c0 1.2.967 2.166 2.168 2.166 1.2 0 2.166-.966 2.166-2.166V75.834h8.334c1.208 0 2.18-.973 2.18-2.18a2.176 2.176 0 0 0-2.18-2.182z" fill="#446667"/><path d="M51.41 69.974a2.16 2.16 0 0 0-.847.148l-.004.002a2.16 2.16 0 0 0-1.228 2.805l11.121 28.498.002.008.41 1.053c.143.365.549.588.949.725.28.096.567.158.834.154.287-.025.585-.057.83-.151.397-.153.81-.363.954-.73l.41-1.051.001-.007 11.12-28.498a2.158 2.158 0 0 0-1.223-2.803l-.013-.005a2.158 2.158 0 0 0-2.799 1.233l-7.113 18.23v-.002l-2.167 5.552-2.167-5.554v.002l-7.114-18.23a2.161 2.161 0 0 0-1.955-1.38zm-28.482-.002c-1.208 0-2.18.973-2.18 2.181 0 1.208.972 2.181 2.18 2.181h8.31V101.2c0 1.2.967 2.166 2.168 2.166 1.2 0 2.166-.966 2.166-2.166V74.334h8.334c1.208 0 2.18-.973 2.18-2.18a2.176 2.176 0 0 0-2.18-2.182z" fill="#ec671c"/><path d="M59.271 49.29a1.218 1.218 0 0 0-1.218 1.219 1.218 1.218 0 0 0 1.218 1.218 1.218 1.218 0 0 0 1.218-1.218 1.218 1.218 0 0 0-1.218-1.218zm4.752 4.024v.001a.97.97 0 0 0-.972.972v11.35a.97.97 0 0 0 .972.971.97.97 0 0 0 .972-.972V59.5a4.233 4.233 0 0 1 4.242-4.242A4.233 4.233 0 0 1 73.48 59.5v6.158c0 .526.423.95.949.95a.947.947 0 0 0 .95-.95v-6.181a6.15 6.15 0 0 0-6.165-6.163 6.142 6.142 0 0 0-4.22 1.664v-.692a.97.97 0 0 0-.971-.972zm-41.712.001a.97.97 0 0 0-.972.972v11.35a.97.97 0 0 0 .972.971.97.97 0 0 0 .972-.972v-7.073a3.298 3.298 0 0 1 3.305-3.304 3.298 3.298 0 0 1 3.306 3.304v7.073a.97.97 0 0 0 .972.972.97.97 0 0 0 .972-.972v-7.098a3.272 3.272 0 0 1 3.28-3.28 3.272 3.272 0 0 1 3.277 3.28v7.098a.97.97 0 0 0 .972.972.97.97 0 0 0 .972-.972v-7.098a5.211 5.211 0 0 0-5.222-5.223 5.204 5.204 0 0 0-4.258 2.197 5.231 5.231 0 0 0-4.27-2.197 5.232 5.232 0 0 0-3.306 1.167v-.195a.97.97 0 0 0-.972-.972zm36.96 0a.97.97 0 0 0-.973.972v11.35a.97.97 0 0 0 .972.972.97.97 0 0 0 .972-.972v-11.35a.97.97 0 0 0-.972-.972zm-10.431.001a6.647 6.647 0 0 0 0 13.293 6.405 6.405 0 0 0 3.556-1.059c.995-.664 1.187-1.327.88-1.768a.886.886 0 0 0-.683-.363c-.28-.02-.588.064-1.218.5-.63.437-1.551.745-2.535.746a4.703 4.703 0 0 1-4.596-3.73h10.27a.97.97 0 0 0 .972-.973 6.647 6.647 0 0 0-6.646-6.646zm0 1.944a4.703 4.703 0 0 1 4.595 3.73H44.24a4.703 4.703 0 0 1 4.599-3.73z" fill="#309a9a"/></svg>