<svg xmlns="http://www.w3.org/2000/svg" xmlns:xlink="http://www.w3.org/1999/xlink" width="207.145" height="207.148" viewBox="0 0 54.807 54.808"><defs><linearGradient id="a"><stop offset="0" stop-color="#fbb12c" stop-opacity=".992"/><stop offset="1" stop-color="#f29208"/></linearGradient><linearGradient xlink:href="#a" id="b" x1="71.39" y1="119.17" x2="126.197" y2="173.977" gradientUnits="userSpaceOnUse" gradientTransform="translate(-71.39 -119.169)"/></defs><path d="M0 .001h43.01a11.772 11.772 0 0 1 11.797 11.798v43.009H11.798A11.772 11.772 0 0 1 0 43.01V0z" fill="url(#b)"/><path d="M20.97 9.488c-1.35 7.804-1.095 9.321 1.53 9.1 1.357-.114 1.36-.116 1.537-1.374.09-.637.081-.661-.253-.661-.705 0-.718-.168-.255-3.51.236-1.706.457-3.306.49-3.555l.063-.452h-3.033l-.078.452m17.2.975c-.229 1.903-.19 1.834-.792 1.425-1.755-1.19-4.18.569-4.458 3.234-.296 2.829 1.888 4.408 3.957 2.863l.46-.344.306.33c.595.64 2.381.88 3.113.418.353-.223.37-1.755.02-1.907-.376-.164-.383.072.107-3.479.201-1.455.399-2.943.439-3.306l.073-.661h-3.053l-.171 1.426m4.62-.556c-.164 1.138-.246 1.079 1.487 1.079h1.51l.093-.731c.05-.402.124-.84.162-.975.062-.222-.074-.243-1.53-.243h-1.598l-.125.87m-39.36 0c-.032.095-.155.957-.274 1.914-.12.957-.368 2.805-.553 4.106-.185 1.302-.29 2.416-.231 2.476.205.216 2.835.051 2.866-.179.016-.115.14-1.07.276-2.123.293-2.264.267-2.247.975-.658.306.687.596 1.25.645 1.25.084 0 1.545-1.928 1.792-2.366.253-.447.25.01-.008 1.743-.401 2.689-.519 2.433 1.112 2.433.761 0 1.418-.055 1.459-.121.087-.142 1.194-7.864 1.194-8.332 0-.311-.03-.318-1.53-.318h-1.53l-.93 1.397c-.511.767-.972 1.347-1.023 1.287-.052-.06-.24-.515-.417-1.013a16.34 16.34 0 0 0-.512-1.288l-.19-.383H5.02c-1.102 0-1.548.05-1.59.175m11.846 1.856c-.913.29-2.04 1.41-2.358 2.346-1.107 3.248 1.267 5.211 5.125 4.24l.627-.158v-1.928l-.487.075-.973.152c-.542.085-1.602-.153-1.602-.36 0-.073.391-.133.87-.134 1.892-.002 3.027-.79 3.027-2.1 0-1.896-1.92-2.864-4.23-2.133m12.03.063c-1.866.671-2.969 2.455-2.632 4.257.774 4.145 7.778 2.818 7.778-1.473 0-2.38-2.504-3.734-5.146-2.784m21.573-.015c-2.78 1.126-3.556 5.208-1.202 6.326 1.147.544 3.754.56 4.481.029.337-.246.156-1.936-.196-1.834-1.047.302-2.665.184-2.665-.195 0-.057.485-.133 1.078-.168 1.802-.106 2.67-.744 2.778-2.043.153-1.854-2.129-2.983-4.274-2.115m-6.33.044c-.097.295-.653 4.45-.676 5.051-.055 1.409 2.226 2.348 3.433 1.413.372-.288.47-1.765.117-1.765-.455 0-.467-.156-.169-2.186.156-1.057.283-2.093.283-2.304l.001-.383h-1.466c-1.05 0-1.482.05-1.523.174m-25.479 1.914c0 .28-.104.382-.534.522-.811.266-1.046.058-.571-.506.476-.566 1.105-.575 1.105-.016m33.604-.226c.256.308.027.63-.56.788-.862.232-1.069-.045-.476-.637.38-.38.795-.44 1.036-.15m-21.451.532c.374.373.14 1.623-.378 2.02-.786.604-1.622-.56-1.103-1.535.326-.612 1.1-.866 1.48-.485m8.317.067c.297.297.208 1.325-.15 1.72-.54.598-1.443.22-1.452-.606-.011-1.029.99-1.726 1.602-1.114m-13.842 6.503c-.221.123-.481.554-.773 1.283l-.44 1.098-1.871.09c-4.826.232-6.16 1.052-4.465 2.746.75.75 1.457.913 3.43.792.88-.054 1.599-.064 1.599-.022 0 .043-.907 2.795-2.016 6.118-1.109 3.323-2.11 6.378-2.226 6.79-1.562 5.572-1.59 5.784-.884 6.82.599.876 1.13 1.192 1.548.919.334-.22.28-.054 2.464-7.688a696.858 696.858 0 0 0 2.917-10.494c.382-1.408.715-2.58.74-2.606.026-.026 1.077-.114 2.337-.196l4.238-.28a60.323 60.323 0 0 1 2.955-.134c1.58-.003 1.835-.625.673-1.645-.817-.718-2.893-1.076-6.9-1.191a132.12 132.12 0 0 1-2.323-.077c-.015-.006.01-.451.055-.988.112-1.332-.247-1.785-1.058-1.335m14.51 8.14c-2.71 2.167-6.468 7.411-8.566 11.954-.992 2.147-.307-1.321 1.085-5.492 1.147-3.44 1.118-4.626-.132-5.294-1.703-.909-6.78.742-6.77 2.202.005.786.115.802 2.295.343 1.017-.214 2.256-.275 2.633-.13.33.126.273.68-.254 2.438-1.732 5.777-1.716 8.885.06 11.612 1.036 1.59 1.437 1.417 2.202-.946 2.088-6.444 5.404-12.425 8.494-15.321 1.464-1.373.513-2.614-1.047-1.366" fill="#fff" fill-rule="evenodd"/></svg>