<?xml version="1.0" encoding="UTF-8" standalone="no"?>
<!-- Created with Inkscape (http://www.inkscape.org/) -->
<svg
   xmlns:dc="http://purl.org/dc/elements/1.1/"
   xmlns:cc="http://web.resource.org/cc/"
   xmlns:rdf="http://www.w3.org/1999/02/22-rdf-syntax-ns#"
   xmlns:svg="http://www.w3.org/2000/svg"
   xmlns="http://www.w3.org/2000/svg"
   xmlns:xlink="http://www.w3.org/1999/xlink"
   xmlns:sodipodi="http://sodipodi.sourceforge.net/DTD/sodipodi-0.dtd"
   xmlns:inkscape="http://www.inkscape.org/namespaces/inkscape"
   width="188"
   height="181"
   id="svg2"
   sodipodi:version="0.32"
   inkscape:version="0.45.1"
   version="1.0"
   inkscape:output_extension="org.inkscape.output.svg.inkscape">
  <g
     inkscape:label="Layer 1"
     inkscape:groupmode="layer"
     id="layer1"
     transform="translate(-32.821294,-754.96378)">
    <g
       id="g5340"
       transform="matrix(7.8846885,0,0,7.8846885,531.72425,2529.5275)">
                        <g
   id="g5342"
   clip-path="url(#id175)">
                          <g
   id="g5344"
   transform="matrix(0.78075,0,0,-0.78075,-71.2715,-200.30769)">
                            <path
   id="path5346"
   d="M 15.69827,11.42871 C 15.69827,11.24472 15.54889,11.0957 15.3653,11.0957 C 15.18069,11.0957 15.03229,11.24472 15.03229,11.42871 C 15.03229,11.42871 15.03229,13.6734 15.03229,13.8916 C 14.91409,13.71582 14.00879,12.35742 14.00879,12.35742 C 13.9473,12.26471 13.84378,12.20901 13.73151,12.20901 C 13.62018,12.20901 13.51669,12.26471 13.45419,12.35742 C 13.45419,12.35742 12.54889,13.71582 12.43167,13.8916 C 12.43167,13.6734 12.43167,11.42871 12.43167,11.42871 C 12.43167,11.24472 12.28229,11.0957 12.09869,11.0957 C 11.9151,11.0957 11.76468,11.24472 11.76468,11.42871 L 11.76468,14.99222 C 11.76468,15.14069 11.86038,15.26862 12.00198,15.31149 C 12.14362,15.35452 12.29398,15.30032 12.37598,15.17731 C 12.37598,15.17731 13.67389,13.2305 13.73151,13.14362 C 13.7901,13.2305 15.08789,15.17731 15.08789,15.17731 C 15.16898,15.29889 15.3223,15.35352 15.46201,15.31149 C 15.60361,15.26862 15.69827,15.14069 15.69827,14.99222 L 15.69827,11.42871 z M 13.73151,16.69971 C 11.80768,16.69971 10.24219,15.1348 10.24219,13.211 C 10.24219,11.28711 11.80768,9.72171 13.73151,9.72171 C 15.65631,9.72171 17.22079,11.28711 17.22079,13.211 C 17.22079,15.1348 15.65631,16.69971 13.73151,16.69971"
   style="fill:#b8d47d;fill-rule:nonzero;stroke:none" />

                            <path
   id="path5348"
   d="M 38.03418,13.54401 C 38.21878,13.54401 38.36719,13.39459 38.36719,13.211 C 38.36719,13.02689 38.21878,12.8775 38.03418,12.8775 C 38.03418,12.8775 36.35837,12.8775 36.28909,12.8775 C 36.28909,12.8111 36.28909,11.82809 36.28909,11.76221 C 36.35941,11.76221 38.62897,11.76221 38.62897,11.76221 C 38.81259,11.76221 38.96201,11.61279 38.96201,11.42871 C 38.96201,11.24472 38.81259,11.0957 38.62897,11.0957 L 35.95612,11.0957 C 35.77148,11.0957 35.62308,11.24472 35.62308,11.42871 L 35.62308,14.99222 C 35.62308,15.17633 35.77148,15.32571 35.95612,15.32571 L 38.62897,15.32571 C 38.81259,15.32571 38.96201,15.17633 38.96201,14.99222 C 38.96201,14.80862 38.81259,14.65921 38.62897,14.65921 C 38.62897,14.65921 36.35941,14.65921 36.28909,14.65921 C 36.28909,14.5928 36.28909,13.61041 36.28909,13.54401 C 36.35837,13.54401 38.03418,13.54401 38.03418,13.54401 z M 37.29199,16.69971 C 35.36816,16.69971 33.80377,15.1348 33.80377,13.211 C 33.80377,11.28711 35.36816,9.72171 37.29199,9.72171 C 39.21588,9.72171 40.78131,11.28711 40.78131,13.211 C 40.78131,15.1348 39.21588,16.69971 37.29199,16.69971"
   style="fill:#b8d47d;fill-rule:nonzero;stroke:none" />

                            <path
   id="path5350"
   d="M 30,14.69919 C 30,14.69919 28.36139,14.69919 28.29111,14.69919 C 28.29111,14.63281 28.29111,13.5762 28.29111,13.5098 C 28.36139,13.5098 30,13.5098 30,13.5098 C 30.32718,13.5098 30.59378,13.7764 30.59378,14.10501 C 30.59378,14.43262 30.32718,14.69919 30,14.69919"
   style="fill:#b8d47d;fill-rule:nonzero;stroke:none" />

                            <path
   id="path5352"
   d="M 31.2276,11.49121 C 31.25,11.4444 31.26077,11.39502 31.26077,11.34619 C 31.26077,11.2222 31.19238,11.10312 31.07327,11.0459 C 30.90829,10.96539 30.7081,11.03421 30.62799,11.19922 C 30.62799,11.19922 29.84769,12.80371 29.82919,12.84329 C 29.78519,12.84329 28.35941,12.84329 28.29111,12.84329 C 28.29111,12.77441 28.29111,11.32031 28.29111,11.32031 C 28.29111,11.13669 28.1416,10.9873 27.9581,10.9873 C 27.77448,10.9873 27.62497,11.13669 27.62497,11.32031 L 27.62497,15.03271 C 27.62497,15.21683 27.77448,15.36569 27.9581,15.36569 L 30,15.36569 C 30.69537,15.36569 31.26077,14.7998 31.26077,14.10501 C 31.26077,13.60602 30.9668,13.16312 30.51367,12.95853 C 30.61139,12.75732 31.2276,11.49121 31.2276,11.49121 z M 29.44339,31.70905 C 27.51862,31.70905 25.95419,30.14362 25.95419,28.21982 L 25.95419,5.7959 C 25.95419,3.87158 27.51862,2.3067 29.44339,2.3067 C 31.36627,2.3067 32.9317,3.87158 32.9317,5.7959 L 32.9317,28.21982 C 32.9317,30.14362 31.36627,31.70905 29.44339,31.70905"
   style="fill:#b8d47d;fill-rule:nonzero;stroke:none" />

                            <path
   id="path5354"
   d="M 21.5918,14.7598 C 20.73828,14.7598 20.04297,14.065 20.04297,13.211 C 20.04297,12.35651 20.73828,11.66162 21.5918,11.66162 C 22.44629,11.66162 23.14069,12.35651 23.14069,13.211 C 23.14069,14.065 22.44629,14.7598 21.5918,14.7598"
   style="fill:#b8d47d;fill-rule:nonzero;stroke:none" />

                            <path
   id="path5356"
   d="M 21.5918,10.92242 C 20.33008,10.92242 19.3038,11.94922 19.3038,13.211 C 19.3038,14.47269 20.33008,15.49899 21.5918,15.49899 C 22.85361,15.49899 23.88089,14.47269 23.88089,13.211 C 23.88089,11.94922 22.85361,10.92242 21.5918,10.92242 z M 21.5918,24.22272 C 19.66797,24.22272 18.1026,22.65771 18.1026,20.73392 L 18.1026,13.211 C 18.1026,11.28711 19.66797,9.72171 21.5918,9.72171 C 23.51569,9.72171 25.08112,11.28711 25.08112,13.211 L 25.08112,20.73392 C 25.08112,22.65771 23.51569,24.22272 21.5918,24.22272"
   style="fill:#b8d47d;fill-rule:nonzero;stroke:none" />

                          </g>

                        </g>

                      </g>
  </g>
</svg>
