<?xml version="1.0" encoding="UTF-8" standalone="no"?>
<!-- Created with Inkscape (http://www.inkscape.org/) -->
<svg
   xmlns:dc="http://purl.org/dc/elements/1.1/"
   xmlns:cc="http://web.resource.org/cc/"
   xmlns:rdf="http://www.w3.org/1999/02/22-rdf-syntax-ns#"
   xmlns:svg="http://www.w3.org/2000/svg"
   xmlns="http://www.w3.org/2000/svg"
   xmlns:xlink="http://www.w3.org/1999/xlink"
   xmlns:sodipodi="http://sodipodi.sourceforge.net/DTD/sodipodi-0.dtd"
   xmlns:inkscape="http://www.inkscape.org/namespaces/inkscape"
   width="237"
   height="181"
   id="svg2"
   sodipodi:version="0.32"
   inkscape:version="0.45.1"
   version="1.0"
   inkscape:output_extension="org.inkscape.output.svg.inkscape">
  <g
     inkscape:label="Layer 1"
     inkscape:groupmode="layer"
     id="layer1"
     transform="translate(-28.245546,-959.25565)">
    <g
       id="g5364"
       transform="matrix(7.8846885,0,0,7.8846885,551.43276,1621.0204)">
      <g
         id="g5366"
         clip-path="url(#id176)">
        <g
           id="g5368"
           transform="matrix(0.78075,0,0,-0.78075,-71.2715,-59.17352)">
          <path
             id="path5370"
             d="M 11.75348,11.42871 C 11.75348,11.24472 11.60361,11.0957 11.41998,11.0957 C 11.2359,11.0957 11.08698,11.24472 11.08698,11.42871 C 11.08698,11.42871 11.08698,13.6734 11.08698,13.8916 C 10.9693,13.71582 10.064,12.35742 10.064,12.35742 C 10.00201,12.26471 9.89844,12.20901 9.78662,12.20901 C 9.6748,12.20901 9.57129,12.26471 9.50925,12.35742 C 9.50925,12.35742 8.604,13.71582 8.48679,13.8916 C 8.48679,13.6734 8.48679,11.42871 8.48679,11.42871 C 8.48679,11.24472 8.33691,11.0957 8.15332,11.0957 C 7.9697,11.0957 7.81982,11.24472 7.81982,11.42871 L 7.81982,14.99222 C 7.81982,15.14069 7.91504,15.26862 8.05664,15.31149 C 8.19824,15.35452 8.34863,15.30032 8.43066,15.17731 C 8.43066,15.17731 9.729,13.2305 9.78662,13.14362 C 9.8447,13.2305 11.14258,15.17731 11.14258,15.17731 C 11.22369,15.29889 11.37698,15.35352 11.51666,15.31149 C 11.65829,15.26862 11.75348,15.14069 11.75348,14.99222 L 11.75348,11.42871 z M 9.78662,16.69971 C 7.86279,16.69971 6.29736,15.1348 6.29736,13.211 C 6.29736,11.28711 7.86279,9.72171 9.78662,9.72171 C 11.71097,9.72171 13.27591,11.28711 13.27591,13.211 C 13.27591,15.1348 11.71097,16.69971 9.78662,16.69971"
             style="fill:#4fac24;fill-rule:nonzero;stroke:none" />
          <path
             id="path5372"
             d="M 34.08939,13.54401 C 34.2735,13.54401 34.42239,13.39459 34.42239,13.211 C 34.42239,13.02689 34.2735,12.8775 34.08939,12.8775 C 34.08939,12.8775 32.41357,12.8775 32.3443,12.8775 C 32.3443,12.8111 32.3443,11.82809 32.3443,11.76221 C 32.41458,11.76221 34.68359,11.76221 34.68359,11.76221 C 34.86719,11.76221 35.01709,11.61279 35.01709,11.42871 C 35.01709,11.24472 34.86719,11.0957 34.68359,11.0957 L 32.01129,11.0957 C 31.82669,11.0957 31.6778,11.24472 31.6778,11.42871 L 31.6778,14.99222 C 31.6778,15.17633 31.82669,15.32571 32.01129,15.32571 L 34.68359,15.32571 C 34.86719,15.32571 35.01709,15.17633 35.01709,14.99222 C 35.01709,14.80862 34.86719,14.65921 34.68359,14.65921 C 34.68359,14.65921 32.41458,14.65921 32.3443,14.65921 C 32.3443,14.5928 32.3443,13.61041 32.3443,13.54401 C 32.41357,13.54401 34.08939,13.54401 34.08939,13.54401 z M 33.3472,16.69971 C 31.42337,16.69971 29.8584,15.1348 29.8584,13.211 C 29.8584,11.28711 31.42337,9.72171 33.3472,9.72171 C 35.2706,9.72171 36.83649,11.28711 36.83649,13.211 C 36.83649,15.1348 35.2706,16.69971 33.3472,16.69971"
             style="fill:#4fac24;fill-rule:nonzero;stroke:none" />
          <path
             id="path5374"
             d="M 26.05469,14.69919 C 26.05469,14.69919 24.41611,14.69919 24.34619,14.69919 C 24.34619,14.63281 24.34619,13.5762 24.34619,13.5098 C 24.41611,13.5098 26.05469,13.5098 26.05469,13.5098 C 26.38239,13.5098 26.64899,13.7764 26.64899,14.10501 C 26.64899,14.43262 26.38239,14.69919 26.05469,14.69919"
             style="fill:#4fac24;fill-rule:nonzero;stroke:none" />
          <path
             id="path5376"
             d="M 27.28281,11.49121 C 27.30521,11.4444 27.31598,11.39502 27.31598,11.34619 C 27.31598,11.2222 27.24707,11.10312 27.12848,11.0459 C 26.96341,10.96539 26.76318,11.03421 26.6832,11.19922 C 26.6832,11.19922 25.90289,12.80371 25.88379,12.84329 C 25.84039,12.84329 24.41461,12.84329 24.34619,12.84329 C 24.34619,12.77441 24.34619,11.32031 24.34619,11.32031 C 24.34619,11.13669 24.19678,10.9873 24.01266,10.9873 C 23.82919,10.9873 23.67969,11.13669 23.67969,11.32031 L 23.67969,15.03271 C 23.67969,15.21683 23.82919,15.36569 24.01266,15.36569 L 26.05469,15.36569 C 26.75,15.36569 27.31598,14.7998 27.31598,14.10501 C 27.31598,13.60602 27.022,13.16312 26.56888,12.95853 C 26.6666,12.75732 27.28281,11.49121 27.28281,11.49121 z M 25.49808,31.70905 C 23.57379,31.70905 22.00879,30.14362 22.00879,28.21982 L 22.00879,5.7959 C 22.00879,3.87158 23.57379,2.3067 25.49808,2.3067 C 27.42139,2.3067 28.98691,3.87158 28.98691,5.7959 L 28.98691,28.21982 C 28.98691,30.14362 27.42139,31.70905 25.49808,31.70905"
             style="fill:#4fac24;fill-rule:nonzero;stroke:none" />
          <path
             id="path5378"
             d="M 17.647,14.7598 C 16.793,14.7598 16.09818,14.065 16.09818,13.211 C 16.09818,12.35651 16.793,11.66162 17.647,11.66162 C 18.50101,11.66162 19.1958,12.35651 19.1958,13.211 C 19.1958,14.065 18.50101,14.7598 17.647,14.7598"
             style="fill:#4fac24;fill-rule:nonzero;stroke:none" />
          <path
             id="path5380"
             d="M 17.647,10.92242 C 16.38528,10.92242 15.35837,11.94922 15.35837,13.211 C 15.35837,14.47269 16.38528,15.49899 17.647,15.49899 C 18.90869,15.49899 19.93558,14.47269 19.93558,13.211 C 19.93558,11.94922 18.90869,10.92242 17.647,10.92242 z M 17.647,24.22272 C 15.72269,24.22272 14.15778,22.65771 14.15778,20.73392 L 14.15778,13.211 C 14.15778,11.28711 15.72269,9.72171 17.647,9.72171 C 19.5708,9.72171 21.13577,11.28711 21.13577,13.211 L 21.13577,20.73392 C 21.13577,22.65771 19.5708,24.22272 17.647,24.22272"
             style="fill:#4fac24;fill-rule:nonzero;stroke:none" />
          <path
             id="path5382"
             d="M 41.29349,12.8775 L 40.3277,12.8775 L 40.3277,11.84479 C 40.3277,11.65869 40.18069,11.5191 40.00201,11.5191 C 39.82428,11.5191 39.67627,11.65869 39.67627,11.84479 L 39.67627,12.8775 L 38.70947,12.8775 C 38.53131,12.8775 38.38379,13.01663 38.38379,13.20313 C 38.38379,13.38922 38.53131,13.52881 38.70947,13.52881 L 39.67627,13.52881 L 39.67627,14.54541 C 39.67627,14.73151 39.82428,14.87112 40.00201,14.87112 C 40.18069,14.87112 40.3277,14.73151 40.3277,14.54541 L 40.3277,13.52881 L 41.29349,13.52881 C 41.47168,13.52881 41.6192,13.38922 41.6192,13.20313 C 41.6192,13.01663 41.47168,12.8775 41.29349,12.8775"
             style="fill:#4fac24;fill-rule:nonzero;stroke:none" />
          <path
             id="path5384"
             d="M 44.7261,10.91602 C 44.7261,10.72998 44.55518,10.6055 44.3848,10.6055 C 44.2222,10.6055 44.04349,10.72171 44.04349,10.91602 L 44.04349,14.94052 L 43.09769,14.47461 C 43.05127,14.45169 42.96588,14.42819 42.91898,14.42819 C 42.73337,14.42819 42.59329,14.57571 42.59329,14.75394 C 42.59329,14.87012 42.64749,14.98682 42.76471,15.04102 L 44.20612,15.73932 C 44.25299,15.76221 44.3306,15.78519 44.39258,15.78519 C 44.56299,15.78519 44.7261,15.69241 44.7261,15.47513 L 44.7261,10.91602"
             style="fill:#4fac24;fill-rule:nonzero;stroke:none" />
        </g>
      </g>
    </g>
  </g>
</svg>
