<svg xmlns="http://www.w3.org/2000/svg" width="150" height="71.076" viewBox="0 0 39.688 18.806"><path d="M1.975 11.444a6.69 6.69 0 0 1 .907-2.048C3.644 8.252 4.997 7.18 6.226 6.75c1.39-.488 2.8-.43 3.794.225.466.308 1.18 1.136 1.18 1.136l.561-.377c.674-.452 1.455-.857 2.013-1.043.784-.26.775-.26 4.37-.26h3.241s.294-.836.24-1.228c-.087-.622-.924-.922-.924-.922l.109-.437h1.401s.044-.08-.02-.27c-.166-.485.012-1.016.498-1.495.338-.333.572-.478 1.19-.736.701-.293 1.045-.574 1.306-1.068.194-.368.239-.367.239.006 0 .17.024.362.056.437.098.235.336.453.697.64.538.278.808.592.875 1.018.066.414-.088.85-.44 1.243l-.2.225h1.448l-.113.438s-.449.12-.606.194c-.272.126-.657.448-.802.72-.21.394-.412 1.235-.412 1.235h4.3c4.675.017 4.46.017 5.32.261 2.016.57 3.097 2.27 2.893 4.547-.06.681-.13 1.017-.507 2.432-.542 2.037-.509 1.878-.51 2.45 0 .429.015.57.09.816.135.437.34.779.66 1.096.323.322.672.52 1.178.672l.337.1h-5.133c-5.628 0-5.306-.01-6.177-.262-1.308-.377-2.41-1.393-2.846-2.622-.176-.496-.24-.905-.24-1.532.002-.704.05-.988.39-2.268.142-.536.267-1.035.267-1.035h-1.271l-2.072 7.719h-4.545l2.069-7.7-1.429-.019-2.048 7.719h-4.528s.396-1.523.868-3.291c.952-3.563 1.01-3.798 1.011-4.104 0-.19-.013-.227-.134-.348-.12-.12-.159-.135-.348-.134a.858.858 0 0 0-.686.322c-.28.326-.348.513-.785 2.139l-1.472 5.416H6.056l1.677-6.286c.271-1.033.274-1.354.013-1.513-.152-.093-.437-.103-.632-.021-.2.083-.508.348-.61.712l-1.97 7.109L0 18.805zm31.645.993c.047-.603-.197-1.022-.611-1.22-.439-.21-.901-.147-1.278-.033-1.24.375-2.004 1.763-1.538 2.677.105.205.362.464.57.574.178.094.57.124 1.91.145l.466.008s.425-1.43.48-2.15z" fill="#740000"/></svg>