<svg xmlns="http://www.w3.org/2000/svg" width="800" height="379.074" viewBox="0 0 211.669 100.299" ><path d="M10.532 61.035a35.68 35.68 0 0 1 4.837-10.923C19.434 44.011 26.65 38.293 33.204 36c7.413-2.603 14.934-2.293 20.235 1.2 2.485 1.643 6.293 6.059 6.293 6.059l2.992-2.011c3.595-2.411 7.76-4.571 10.736-5.563 4.181-1.387 4.133-1.387 23.307-1.387h17.286s1.568-4.459 1.28-6.549c-.464-3.317-4.928-4.917-4.928-4.917l.581-2.331h7.472s.235-.427-.107-1.44c-.885-2.587.064-5.419 2.656-7.973 1.803-1.776 3.051-2.549 6.347-3.925 3.739-1.563 5.573-3.061 6.965-5.696 1.035-1.963 1.275-1.957 1.275.032 0 .907.128 1.931.299 2.331.523 1.253 1.792 2.416 3.717 3.413 2.869 1.483 4.309 3.157 4.667 5.429.352 2.208-.469 4.533-2.347 6.629l-1.067 1.2h7.723l-.603 2.336s-2.395.64-3.232 1.035c-1.451.672-3.504 2.389-4.277 3.84-1.12 2.101-2.197 6.587-2.197 6.587h22.934c24.934.091 23.787.091 28.374 1.392 10.752 3.04 16.518 12.107 15.43 24.251-.32 3.632-.693 5.424-2.704 12.971-2.891 10.864-2.715 10.016-2.72 13.067 0 2.288.08 3.04.48 4.352a13.42 13.42 0 0 0 3.52 5.845c1.723 1.717 3.584 2.773 6.283 3.584l1.797.533h-27.376c-30.016 0-28.299-.053-32.944-1.397-6.976-2.011-12.853-7.429-15.179-13.984-.939-2.645-1.28-4.827-1.28-8.171.011-3.755.267-5.269 2.08-12.096l1.424-5.52h-6.779l-11.051 41.169h-24.24l11.035-41.067-7.621-.101-10.923 41.169h-24.15l4.629-17.552c5.077-19.003 5.43-20.257 5.392-21.888-.043-1.875-1.283-2.444-2.571-2.571-1.413-.139-2.748.628-3.659 1.717-1.47 1.759-1.856 2.736-4.187 11.408l-7.851 28.886H32.298l8.944-33.526c1.445-5.509 1.461-7.221.069-8.069-.811-.496-2.331-.549-3.371-.112-1.067.443-2.709 1.856-3.253 3.797L24.18 100.299l-24.182-.005zm168.775 5.296c.251-3.216-1.051-5.451-3.259-6.507-2.341-1.12-4.805-.784-6.816-.176-6.613 2-10.688 9.403-8.203 14.278.56 1.093 1.931 2.475 3.04 3.061.949.501 3.04.661 10.187.773l2.485.043s2.267-7.627 2.56-11.467z" fill="#91284b"/></svg>