<?xml version="1.0" encoding="UTF-8"?>
<svg width="416.62" height="450" version="1.1" xmlns="http://www.w3.org/2000/svg">
	<g fill="#ffa0fc">
		<path d="m133.22 169.9v111.01l18.722-14.111v-77.989z"/>
		<path d="m173.44 195.81 24.379-5.5679 9.846-8.0709v-14.635z"/>
		<path d="m170.38 19.27-34.442-15.874 31.134 34.889 11.787-11.634z"/>
		<path d="m-3.1988e-4 289.08h10.817l3.5246 17.649h0.06385l3.5246-17.649h10.817v30.011h-7.1898v-19.258h-0.07662l-4.2781 19.258h-5.6573l-4.2909-19.258h-0.063852v19.258h-7.1898z"/>
		<path d="m53.91 307.48c0 8.3265-3.7036 12.311-11.225 12.311s-11.263-3.9843-11.263-12.311v-18.403h7.5989v16.36c0 3.065 0 6.883 3.6909 6.883 3.6136 0 3.6136-3.818 3.6136-6.883v-16.36h7.5862zm9.8023 1.5129c0 0.75305 0.10171 1.4308 0.28068 1.9794 0.54962 1.8005 2.2093 2.1838 3.6273 2.1838 1.2391 0 3.1413-0.4978 3.1413-2.7325 0-1.5452-1.0601-1.9667-5.3251-3.4356-3.8953-1.3535-8.3647-2.6562-8.3647-8.7099 0-6.9222 4.8909-9.9099 9.9607-9.9099 5.3505 0 10.089 2.4772 10.293 9.7954h-7.1774c0.12812-1.1364-0.28068-1.8904-0.90659-2.4136s-1.4944-0.74033-2.2474-0.74033c-1.0347 0-2.7325 0.33251-2.7325 2.0176 0.14083 2.133 3.6655 2.5926 7.152 3.7799 3.4992 1.1746 6.9476 3.154 6.9476 8.6453 0 7.8287-5.9002 10.344-11.392 10.344-2.8097 0-10.791-1.2264-10.856-10.804zm17.089-19.908h7.5989v30.011h-7.5989zm26.804 11.173c-0.14083-1.0983-0.8303-4.4185-3.9843-4.4185-3.5501 0-4.6865 4.2141-4.6865 8.2502 0 4.0224 1.1364 8.2375 4.6865 8.2375 2.5672 0 3.5755-2.1966 4.0224-5.0063h7.4581c0 6.0537-4.0352 12.477-11.263 12.477-7.9813 0-12.515-6.8449-12.515-15.708 0-9.4502 4.9163-15.721 12.515-15.721 6.7813 0.0381 10.498 4.3677 11.162 11.889zm27.204-3.4924h-6.9094v-7.6879h21.417v7.6879h-6.9094v22.323h-7.5989zm16.716-7.686h20.408v7.6879h-12.809v3.7545h11.634v7.1265h-11.634v3.7545h13.205v7.6879h-20.804zm23.129 0h7.5862v22.323h10.932v7.6879h-18.517zm20.402 0h20.408v7.6879h-12.809v3.7545h11.647v7.1265h-11.647v3.7545h13.192v7.6879h-20.791zm38.667 30.007h-8.4928l-7.3691-30.011h7.6752l4.0479 18.198h0.0509l3.997-18.198h7.7906zm10.555-30.002h7.6116v30.011h-7.6116zm18.172 19.908c0 0.75305 0.10171 1.4308 0.28068 1.9794 0.54963 1.8005 2.2093 2.1838 3.6273 2.1838 1.2391 0 3.1413-0.4978 3.1413-2.7325 0-1.5452-1.0856-1.9667-5.3251-3.4356-3.8953-1.3535-8.3647-2.6562-8.3647-8.7099 0-6.9222 4.8782-9.9099 9.9607-9.9099 5.3505 0 10.076 2.4772 10.281 9.7954h-7.1774c0.14083-1.1364-0.28068-1.8904-0.90658-2.4136-0.6132-0.52322-1.4816-0.74033-2.2347-0.74033-1.0347 0-2.7325 0.33251-2.7325 2.0176 0.14082 2.133 3.6655 2.5926 7.152 3.7799 3.4992 1.1746 6.9476 3.154 6.9476 8.6453 0 7.8287-5.9129 10.344-11.392 10.344-2.8097 0-10.791-1.2264-10.856-10.804zm17.088-19.908h7.5989v30.011h-7.5989zm22.687-0.71783c7.5089 0 12.515 6.5642 12.515 15.721s-5.0063 15.708-12.515 15.708c-7.4835 0-12.502-6.5515-12.502-15.708 0-9.1568 5.019-15.721 12.502-15.721m0 23.958c1.9413 0 4.9163-1.5579 4.9163-8.2375s-2.976-8.2502-4.9163-8.2502c-1.9286 0-4.9036 1.5706-4.9036 8.2502s2.976 8.2375 4.9036 8.2375m15.339-23.245h7.7769l7.1774 16.053h0.0763v-16.053h7.1774v30.011h-7.3818l-7.5735-16.385h-0.0636v16.385h-7.1901zm90.865-251.89c-3.1413-2.1457-8.7735-3.2185-14.341-2.7325-5.2997 0.44694-8.8243 3.0396-11.723 5.4405 0.0381-0.02543-7.5471 7.4835-7.5471 7.4835l-2.0303 3.244c-0.0254 0.03814-6.7686 8.4674-6.7686 8.4674l-0.0763 0.089v-46.742l-20.688-12.439 0.0127 84.899-0.26796 0.4088-4.9554 5.8239v-91.132h-127.89l-45.49 45.259-40.406-45.259h-126.14v280.6h128.28v-123.61l37.763 38.951 46.371-39.525v124.18h127.53l-0.0127-118.41 1.8132-3.0523c0.0127-0.0381 1.0856-1.5834 1.0856-1.5834 0.0636-0.0763 1.1491-1.8132 2.3374-3.7036l0.0127 126.75 20.637-14.252v-149.5l2.2601-3.3711c0.19168-0.31882 3.1804-4.7892 3.1804-4.7892 0-0.0127 4.751-6.9857 4.751-6.9857 0.0509-0.11541 1.8132-2.3501 1.8132-2.3501l4.3931-6.219c0.86844-2.0049 3.3457-3.333 4.2914-3.8307l0.44694-0.24254 0.60048-0.43422 2.2855-2.3119c0.0381-0.05085 3.9716-3.3711 3.9716-3.3711l6.7178-3.1286 6.2708-3.4484c0.0254-0.01271 5.7466-7.062 5.7466-7.062l3.0523-9.4756c0.0127-0.01271 0.89388-9.1823 0.89388-9.1823-0.19169-4.6611-3.7163-10.434-8.1857-13.447m-153.67 76.318c0.14083 0.89388 0.6259 9.195 0.60048 10.561-0.0254 4.1124 0.25525 8.6453 0.12811 10.472-0.10171 1.3917 0.089 6.1936 0.089 6.1936 0.34522 3.7926 1.1618 7.9432 1.2391 8.6845 0.16625 1.9413-0.56234 9.3094-0.34523 10.983 0.0254 0.34523 0.62591 3.4229 0.49779 4.1506-0.33251 1.9159 0.22983 4.2268 0.16626 5.0953-0.10171 1.5198-0.16626 3.2567-0.21711 5.108-0.10171 2.7462-0.19169 5.5804-0.44694 8.0586-0.0763 0.62591 0.0127 4.9554 0.0127 4.9554-0.4978 4.3549-1.0347 8.8497-0.2934 13.358 0.14083 0.90658-0.0381 3.8826 0.0381 4.4058 0.1154 0.67676 1.0728 4.176 1.2137 4.9427 0.20439 1.1491 0.63862 6.4752 1.2137 7.7006 0.56234 1.2391 2.8479 6.6659 3.0523 7.3172 0.67677 2.0557 1.7115 7.0111 0.77945 9.5402-0.88116 2.3882-2.2092 8.0713-3.1413 9.4884-0.80488 1.2391-2.0176 1.9667-2.5926 2.8606-0.54963 0.8303-1.6342 1.5961-2.5418 1.954-2.8097 1.0983-7.7906 1.865-12.106 0.54962-1.7496-0.52321-4.3931-0.35794-7.3691-2.1584-2.4264-1.4689-3.2567-5.4914-3.6009-7.6498-0.16626-1.0093 0.12812-3.7036 0.0636-4.1251-0.0763-0.61319-0.99656-4.5975-0.99656-5.8747-0.0127-0.63862 0.21711-3.333-0.0763-5.108-0.37066-2.2855-1.4816-6.0019-1.4816-6.0019a124.77 124.77 0 0 0-1.1618-4.9163c-0.88116-2.4645-1.3154-4.8654-1.5706-6.9094-0.47236-3.7545 0.45965-6.883 1.29-9.6546 0.47236-1.5961 0.9193-3.0904 1.111-4.5975 0.12812-1.0856-0.7149-6.2317-0.54962-7.9559 0.0508-0.70219 0.6259-2.9369 0.65133-3.2312 0.21711-1.4562 0.26797-5.3378 0.28068-5.9383 0.0127-0.77945 0.53593-4.0479 0.47237-7.4326-0.0254-1.3281-0.16626-2.707 0-4.0997 0.16625-1.4816 0.29339-5.2615 0.0127-7.0111-0.44694-2.6689-0.26797-5.0571-0.28068-5.1725-0.19168-2.797-0.35794-5.7339-0.19168-8.2375 0.0254-0.39608-0.45966-4.6356-0.47237-5.951l-0.12811-6.6405c-1.111-12.937-2.8606-15.414-3.5628-15.886-0.70219-0.45965-2.6053-0.43422-3.6909 0.0763-0.83031 0.38337-2.9887 2.2601-4.8146 3.244-1.7878 0.94473-5.1207 2.5291-6.2581 3.3711-1.3154 0.99656-3.4738 2.6689-7.6752 4.9681-1.0601 0.57505-1.865 1.5579-2.8224 2.4264-1.3917 1.2264-3.997 3.8572-8.2111 5.9892-2.0684 1.0347-3.908 2.2474-5.3896 3.6909-0.61319 0.6132-2.8733 4.3931-4.3295 5.8112-1.4171 1.3535-2.312 3.2567-2.5672 3.8444-0.74033 1.5834-1.5452 3.3584-3.1031 4.5212-2.4137 1.8005-7.6752 2.133-10.856 0.80488-2.0303-0.84302-6.0791-3.5628-7.8414-8.2757-1.775-4.6992-0.2934-10.727 3.2185-14.635 2.3119-2.5672 5.9129-3.6009 9.4121-4.5848 2.1584-0.61319 4.2141-1.2 5.7975-2.0811 0.77945-0.43422 3.2694-2.2982 3.7926-2.6435 0.79216-0.52322 3.6136-1.8904 4.1633-2.2474 0.51051-0.34523 3.4865-2.9369 5.4786-4.0616l7.4581-4.2914s4.5339-2.5545 7.4708-5.3378c0.66405-0.63862 3.4865-1.686 6.5769-3.4356 0.77945-0.44694 4.0097-1.5325 4.8273-1.8904 0.56234-0.26797 2.8097-1.9159 3.4738-2.2601 2.8987-1.5071 4.3549-3.3075 3.5374-7.7906-0.29339-1.5579-0.76576-3.1413-0.60048-5.019 0.0509-0.45965 0.71491-3.2821 1.7878-5.2234 0.53593-0.99656 1.379-0.97016 1.8513-1.8904 0.47236-0.94473 2.133-1.7369 3.2312-2.0176 0.76576-0.74033 2.3501-1.5325 4.2014-1.8513 4.0616-0.67676 9.284 2.2983 10.038 2.4518 1.4308 0.31882 3.8572 0.10171 5.1334-0.26797 0.25525-0.05085 1.9159-1.1364 2.529-1.3662 0.8176-0.30611 3.4356-1.022 3.9716-1.2137 0.80488-0.28068 4.5339-2.2347 5.4786-2.5926 0.97016-0.37066 3.2185-0.77945 4.3295-1.0347 1.775-1.2645 5.108-2.3501 6.3852-3.4484 1.4435-1.2645 3.3965-4.2914 3.8053-4.8273 0.75305-0.99656 4.4312-3.4738 4.9554-3.8699 1.2-0.94473 3.9462-2.8733 5.8112-3.4102 0.89387-0.25525 3.5119 0.28068 5.108 0.26797 1.7877 0 4.2914 0.10171 6.1808 2.9633 0.94473 1.4435 2.5291 2.9114 2.9369 4.9036 1.2264 6.219-3.4229 12.388-6.9476 14.585-0.35794 0.21711-2.0684 0.7149-3.1158 1.0601-1.4689 0.48508-2.9633 1.5579-3.9589 1.8259-1.9794 0.52322-2.9496 1.9032-3.7672 2.3374-0.80488 0.42151-3.5374 2.1075-4.4185 2.5926-0.67676 0.35794-1.7877 1.9413-3.7926 2.5291-1.3535 0.4088-4.176 1.2137-6.4234 3.1931-0.93201 0.81759-4.7256 1.5961-5.8112 1.8386-0.4088 0.10171-5.2488 2.1457-5.7339 4.9809-0.51051 2.976-0.089 3.7672-0.65133 8.0331-0.34523 2.6562-0.16626 5.7848 0.0508 7.4326m157.68-54.378c-0.37066 1.7369-1.3408 6.0273-2.7198 8.5436-0.60048 1.111-2.9887 4.6356-4.8019 5.9892-1.7623 1.3027-4.3168 2.5926-5.3896 2.976-0.99656 0.35794-5.8747 2.6308-7.1901 3.333-2.3628 1.2772-3.6273 2.707-4.8654 4.0743-0.63862 0.7149-1.2645 1.379-2.0176 2.043-0.29339 0.25525-4.6229 2.0303-6.1936 5.6958-0.95744 2.222-5.2742 6.8322-6.0019 8.1603-1.0728 1.9159-2.6562 4.8019-4.2395 6.3471-0.47237 0.45965-0.98287 1.1618-1.5198 1.9794-0.4978 0.74033-1.0093 1.5706-1.5579 2.4772l-0.43422 0.68948c-1.022 1.686-2.1711 3.6009-2.8352 4.3041-1.6479 1.775-2.6053 4.0743-3.3838 5.951-0.30611 0.72762-3.0141 4.5975-4.0352 7.2918-0.44694 1.2137-2.797 5.1461-3.0523 5.7466-0.4978 1.2645-3.5246 4.2014-3.818 4.7765-0.43422 0.88116-0.8303 2.0811-1.2391 3.333-0.35794 1.1364-1.29 3.3711-1.6088 4.2396l-1.4435 2.3628c-0.0254 0.0381-0.0381 0.0636-0.0636 0.089l-1.2137 1.9794-2.529 4.0097c-0.42151 0.53594-0.84302 1.1618-1.2137 1.7242-0.60048 0.88116-4.9936 8.3774-6.0019 10.165-0.44694 0.81759-0.99656 1.6342-1.5579 2.4899-1.3408 2.0049-2.7198 4.0616-3.3838 6.6024-0.42151 1.5834-1.6342 4.2014-1.7242 4.4312-1.7242 4.2396-2.3882 8.7989-2.5672 10.089-0.26796 2.1076-0.2044 4.2396-0.1154 6.2835 0.089 2.2092 0.16626 4.3041-0.19168 6.1554-0.66405 3.4356-2.0049 6.8195-3.7799 9.5265-0.47236 0.74033-2.1457 3.0268-4.1251 4.8654-1.4435 1.3408-3.8053 1.8904-8.1348 1.9286-5.862 0.0254-8.3774-2.1457-11.493-6.7305-0.5105-0.74033-1.5071-2.6689-2.7198-5.2615-1.5579-3.3075-2.8352-6.3344-3.9462-10.319-0.34522-1.2-0.8303-2.529-1.2772-3.818-0.5105-1.4044-1.6088-5.3632-1.6988-6.0146-0.10171-0.65133-1.4816-5.2615-1.5706-5.7085-0.53593-2.8224-1.2772-5.4405-2.0048-7.9686-0.74034-2.6053-1.4435-5.0698-1.8777-7.6116-0.42151-2.4391-1.7242-6.3852-2.6816-9.2458l-2.4264-7.9177c-0.80487-2.8224-3.4356-10.612-3.4356-10.612-0.98287-2.6562-3.3075-8.8889-3.4738-9.8844-1.379-8.0967-1.3662-14.623 0.089-17.471 0.65134-1.3027 2.886-2.5418 4.6865-3.5374 0.60048-0.34522 3.5628-2.2601 4.2014-2.4264 1.8386-0.49779 4.9163-0.65133 7.5089-0.38336 0.34523 0.0381 3.5246 0.0636 4.6738 0.88116 4.2787 2.976 4.5848 6.8194 5.1461 13.805l1.0983 10.331 0.75305 6.3725c0.14083 1.4689 0.21711 3.0777 0.28068 4.6229 0.1154 2.797 1.0728 8.1348 1.0728 8.1348 0.95744 3.2058 1.8777 6.2581 5.6322 7.8414 1.022 0.42151 2.1838 0.34523 3.2821-0.26796 2.5672-1.3662 4.9036-5.5295 5.7975-10.331 0.0509-0.26797 0.43422-0.8176 0.80487-1.3535 0.89388-1.2391 2.1076-2.9496 2.7325-5.7593 0.19168-0.70219 1.9159-3.0777 2.9369-4.4958 1.0474-1.4435 2.0176-2.797 2.5926-3.818 0.19168-0.34523 4.4566-6.9984 4.4566-6.9984l2.3501-5.0317c0.70219-1.3917 1.3154-3.0523 1.379-3.333 0.34523-1.4308 1.0474-4.4312 2.4518-6.0918 1.9159-2.2601 3.997-7.3427 4.0997-7.5598 0.45965-0.86845 1.7115-3.0268 2.8733-4.929 0.0636-0.07628 0.17897-0.24254 0.25526-0.34523v-0.01271c0.0254-0.02543 0.0636-0.07628 0.089-0.10171 0.51051-0.67676 1.1746-1.5706 1.686-2.1838l3.6782-4.3549c0.75305-0.81759 1.5071-1.6606 2.1838-2.5799 0.71491-0.94473 2.2347-3.1804 3.5755-5.1598 0.81759-1.2391 3.1804-4.3168 3.908-5.0826 0.7149-0.74033 6.0791-7.9559 6.9094-9.0541 0.34523-0.44694 2.5418-2.6816 3.8699-4.0224 0-0.01271 0.0127-0.01271 0.0127-0.02543l2.7589-2.8479c1.0728-1.4435 2.2347-2.8479 3.3584-4.2141s2.2728-2.7589 3.3711-4.2268c0.48507-0.61319 1.7242-2.8352 2.0557-3.2694 1.1618-1.5325 6.8449-6.7813 7.0111-6.9221 2.6435-2.1838 5.5676-4.3168 9.859-4.6865 4.6992-0.4088 9.7055 0.48508 12.184 2.1711 3.5501 2.3882 6.5515 7.241 6.705 10.804 0.15354 3.4229-0.10171 4.8146-0.81759 8.3519"/>
		<path d="m353.17 288.13a7.26 7.26 0 0 0-7.244 7.244 7.26 7.26 0 0 0 7.244 7.244 7.26 7.26 0 0 0 7.244-7.244 7.26 7.26 0 0 0-7.244-7.244zm0 1.471a5.773 5.773 0 1 1 0 11.546 5.773 5.773 0 1 1 0-11.546zm-0.397 5.185c0.404 0 0.699-0.081 0.875-0.235 0.176-0.147 0.272-0.397 0.272-0.75 0-0.346-0.096-0.588-0.272-0.743-0.176-0.147-0.471-0.221-0.875-0.221h-0.824v1.949h0.824m-0.824 1.346v2.868h-1.956v-7.582h2.986c1 0 1.728 0.169 2.191 0.507 0.471 0.331 0.699 0.86 0.699 1.588 0 0.5-0.118 0.912-0.36 1.235-0.243 0.316-0.603 0.559-1.096 0.706 0.272 0.066 0.507 0.206 0.721 0.419s0.427 0.537 0.64 0.978l1.066 2.147h-2.081l-0.927-1.883c-0.184-0.375-0.375-0.64-0.566-0.772-0.191-0.14-0.449-0.213-0.765-0.213h-0.552"/>
		<path d="m58.177 333.9h240.15c32.161 0 58.052 25.891 58.052 58.052v2e-3c0 32.161-25.891 58.052-58.052 58.052h-240.15c-32.161 0-58.052-25.891-58.052-58.052v-2e-3c0-32.161 25.891-58.052 58.052-58.052z"/>
	</g>
	<path d="m59.469 340.63h237.58c28.426 0 51.311 22.884 51.311 51.31s-22.885 51.31-51.311 51.31h-237.58c-28.426 0-51.311-22.884-51.311-51.31s22.885-51.31 51.311-51.31z" fill="#fff"/>
	<path d="m59.352 343.5h237.81c26.9 0 48.556 21.609 48.556 48.452s-21.656 48.452-48.556 48.452h-237.81c-26.9 0-48.556-21.609-48.556-48.452s21.656-48.452 48.556-48.452z" fill="#ffa0fc"/>
	<path d="m81.478 365.5c-8.001 0-14.444 6.441-14.444 14.442v27.04c0 8.001 6.443 14.442 14.444 14.442h50.167a14.41 14.41 0 0 0 14.442-14.442v-27.04a14.41 14.41 0 0 0-14.442-14.442zm0.655 14.137h48.855v27.651h-48.855zm84.188-14.137c-8.001 0-14.444 6.441-14.444 14.442v27.04c0 8.001 6.443 14.442 14.444 14.442h50.167a14.41 14.41 0 0 0 14.442-14.442v-27.04a14.41 14.41 0 0 0-14.442-14.442zm0.655 14.137h48.855v27.651h-48.855zm80.807 1.447a12.35 12.35 0 0 0-12.376 12.378v0.97a12.35 12.35 0 0 0 12.376 12.378h33.221c0.808 0 1.459 0.651 1.459 1.459s-0.651 1.457-1.459 1.457h-43.26v12.378h41.952a12.35 12.35 0 0 0 12.376-12.378v-0.97a12.35 12.35 0 0 0-12.376-12.378h-33.22c-0.808 0-1.459-0.651-1.459-1.459s0.651-1.457 1.459-1.457h43.26v-12.378z" fill="#fff"/>
</svg>
