<svg xmlns="http://www.w3.org/2000/svg" xmlns:xlink="http://www.w3.org/1999/xlink" viewBox="0 0 1212 1212"><defs><linearGradient id="A" x1="592.967" y1="406.946" x2="538.067" y2="406.946" spreadMethod="reflect" gradientUnits="userSpaceOnUse"><stop offset="0" stop-color="#d78dbe" stop-opacity=".2"/><stop offset="1" stop-color="#d78dbe" stop-opacity=".25"/></linearGradient><path id="B" d="M357.6 702.7c3.6 4.1 8.3 6.4 13 6.4 4.5 0 6.4-1.8 6.4-4.5 0-2.8-1.4-4.3-6.9-5.7l-5.5-1.4c-7.6-1.9-10.9-6.4-10.9-13.7 0-8 5.9-14.1 16.4-14.1 6.3 0 11.7 1.5 16.3 5.5l-5.6 8c-2.8-2.9-7.7-4.4-11.1-4.4-3.7 0-5.8 1.6-5.8 4.3 0 2.2.9 3.7 5.8 5.1l5.4 1.4c9.2 2.4 12.3 6.4 12.3 13.8 0 8.9-6.6 14.7-17.3 14.7-8.1 0-14-2.6-19-8z"/></defs><g opacity=".49" filter="url(#AI_GaussianBlur_7)" fill="#0bfefa"><path d="M510.1 904.6c5.9-4.8 9.3-12.1 9.3-20.7 0-24.3-21.5-33-41.5-33-20.5 0-41.2 10.3-41.2 33.3 0 8.9 3 15.9 8.7 20.5-7.5 5.5-11.8 14.1-11.8 24.1 0 21.3 15.9 33.5 43.6 33.5 27 0 44.4-13.9 44.4-35.4 0-10-4.1-17.7-11.5-22.3zm-32.4 14.6c2.5 0 8.3.5 8.3 5.1 0 1.4 0 5.8-8.4 5.8-8.2 0-8.2-3.9-8.2-5.2 0-4.9 5.2-5.7 8.3-5.7zm-6.4-32c0-3.5 3.5-4.8 6.7-4.8 7.4 0 7.4 3.3 7.4 5.1 0 3.1-2.6 4.6-7.9 4.6-2.3 0-6.2-.7-6.2-4.9z"/><path d="M671.3 909.6h10.5v-6.7c.1-.7.2-2 .2-3.5 0-16.3-14.3-27.2-35.5-27.2-19.7 0-33.3 8.9-36.5 23.1-3.3-28.4-19-44.4-44.2-44.4-28.2 0-45 20.6-45 55 0 35.3 16.8 56.4 45 56.4 13.8 0 25.2-5 32.9-14.4 7.3-8.9 11.3-21.3 11.9-36.9 2 6.6 6.3 11 11.3 14h-12.7l-.9 5.8c-.1.4-.2 1.6-.2 2.8 0 18.6 14.8 30.7 37.6 30.7 33.4 0 38.4-19.5 38.4-31.1 0-12.4-5.7-19.4-12.8-23.6zm-23-7.5c-2.1-.5-4.2-1.2-5.2-1.7.6-.2 1.6-.4 2.7-.4 2.2-.1 2.5.1 2.5 2.1zm-6.7 29.6c3.3.8 8.5 2.3 9 3.4v.1c0 .5-1.9 1.2-4.4 1.2-4.6 0-4.6-2.2-4.7-3.6v-1.1zm-67-24.4c0 20.5-4.4 22.2-8.9 22.2-3.4 0-8.6 0-8.6-23.1 0-22.6 6.6-22.6 8.7-22.6 2.7 0 8.8 0 8.8 23.5z"/></g><path d="M441.8 886.1c0-21.2 19.7-29.8 37.7-29.8 19.1 0 38 8.1 38 29.5 0 7.5-3.2 17-13.3 21.1 11.7 4 15.4 13 15.4 21.9 0 20.5-17.3 31.9-40.9 31.9-19.8 0-40.1-7-40.1-30 0-11.3 6-19.9 15-24-9.3-4.4-11.8-12.8-11.8-20.6zm37.6 31.6c-7.6 0-11.8 3.7-11.8 9.2 0 6.1 5 8.7 11.7 8.7 7.4 0 11.9-3.2 11.9-9.3 0-5.2-4.4-8.6-11.8-8.6zm.3-36.8c-6 0-10.2 3.2-10.2 8.3 0 4.9 3.5 8.4 9.8 8.4 7 0 11.4-2.8 11.4-8.1-.1-6-4.2-8.6-11-8.6zm87.7 79.8c-24.9 0-41.5-17.6-41.5-52.9 0-33.8 16.5-51.5 41.5-51.5 27.8 0 41.4 20.9 41.4 52.7 0 34-15.9 51.7-41.4 51.7zm.2-78.4c-8.2 0-12.2 8.1-12.2 26.1 0 19.7 3.5 26.6 12.1 26.6 9.2 0 12.4-7.8 12.4-25.7-.1-18.8-3.9-27-12.3-27zm85.9 26.2c-7.8-1.8-12.6-3.1-12.6-6.1 0-3.8 5.5-4 6.6-4 4.3 0 6 1.7 6.1 6v3.7H680v-3.4c0-.6.1-1.9.1-3.2 0-14.2-12.9-23.7-32-23.7-20.4 0-33.7 10.3-33.7 26.2 0 19.3 16.1 23.2 27.9 26.1 9.2 2.2 13.5 3.7 13.5 7.3 0 4.4-6 4.7-7.9 4.7-3.7 0-8.1-1.2-8.2-7.1v-4.4h-25.9l-.5 2.9c0 .2-.2 1.3-.2 2.3 0 16.5 13.4 27.2 34.1 27.2 28.9 0 34.9-15 34.9-27.6.1-20.4-16.5-24.2-28.6-26.9z" fill="#13f8fb"/><g filter="url(#AI_GaussianBlur_7)"><path fill="#d074db" d="M860.4 743.6H255.1c-5.5 0-10 4.5-10 10v307.7c0 5.5 4.5 10 10 10h605.4c5.5 0 9.9-4.5 9.9-10V753.7c0-5.6-4.5-10.1-10-10.1zm-595.6 307.9v-288h585.9v288.1H264.8z"/></g><path d="M230.99 160.837c-3.278-.012-6.582 4.221-6.4 7.36-1.663 1.433-.86 5.063-1.097 7.04-.874 7.298-.183 15.048-.183 22.4v315.84c0 44.118-1.008 88.438.64 132.48l.64-.32c.208 4.432 4.566 9.021 9.28 8.32l2.971.733 10.149-.093h191.04c2.484-1.517 5.721-1.299 7.711-3.875 3.392-4.39 2.849-10.131 2.849-15.325v-167.04c.007-4.256 1.36-9.645.32-13.76h.64l.64-5.12 3.2-2.56v-.64c9.302-.154 15.126 8.118 21.133 14.4l25.133 25.693c4.784 4.819 9.088 10.115 14.64 14.118 6.966 5.021 16.134 4.029 24.214 4.029h40.32c4.08 0 8.48 1.347 12.48.96l1.92.64.64.32 3.056 3.2 2.384 3.52c-.304 3.402.694 7.43.931 10.88.426 6.234.029 12.63.029 18.88v78.4c0 7.914-1.085 16.912.752 24.64.781 3.28 3.136 7.312 6.928 7.36 1.037 1.232 3.59 1.184 5.12 1.286 4.061.278 8.083.314 12.16.314h177.6c6.653 0 13.571.406 20.16-.576 8.72-1.296 16.995-4.438 25.28-7.315 10.784-3.744 21.846-6.89 32.493-11.002 5.347-2.064 10.57-3.446 13.77-8.653 3.763-6.112 2.378-15.798 2.378-22.694v-230.4c.022-4.775 1.437-10.023.96-14.72l1.539-3.52 3.261-7.36.64.32c1.734-5.435 6.995-10.741 10.227-15.396 7.859-11.311 15.13-23.212 26.013-31.911 3.085-2.468 6.326-5.872 10.16-7.093l-.32-.64c4.278-.778 9.37-4.295 13.12-6.486 15.245-8.908 24.966-20.469 27.792-38.178 2.291-14.357-1.965-28.711-16.819-34.203-15.392-5.69-33.213-5.515-45.853 5.962-4.432 4.023-8.266 8.51-12.122 13.067-1.488 1.756-3.891 5.084-6.118 5.759l-2.88 1.6c-1.872 1.53-3.782.383-5.76-.32l-.96-2.24c-2.125-1.275-1.667-4.753-2.24-7.04-1.053-4.214-.32-9.97-.32-15.04 0-5.429-.96-11.439-.96-16.32 0-2.593-.314-5.672-1.92-7.68-2.016-2.52-4.88-4.197-7.36-6.4-.902-.802-3.03-1.129-4.16-1.6-2.192-.914-4.128-2.123-6.4-2.88-6.938-2.312-13.712-6.14-20.48-8.96-7.408-3.087-14.672-6.514-22.08-9.6-3.754-1.564-8.314-3.493-12.48-3.84-15.312-1.276-33.507-.32-49.92-.32H629.71c-9.338 0-19.597-.861-28.16 1.28-4.778 1.194-7.786 5.038-12.16 8.32-6.922 5.191-12.755 12.435-18.88 18.56-3.869 3.867-8.099 7.784-11.84 9.28-.931.373-1.84 1.193-2.88 1.28-7.187.599-12.746-4.977-18.24-8.64-3.494-2.33-7.712-3.424-10.88-4.48-.237-.079-1.091-1.095-1.6-1.28-1.808-.658-5.411-1.881-8.64-2.24-2.669-.296-6.528-2.574-9.28-2.88-4.467-.496-9.219-3.691-13.44-4.16-4.461-.496-9.216-3.691-13.44-4.16-2.41-.268-6.077-2.268-8.64-3.2-1.744-.634-5.235-1.309-7.68-1.92-4.168-1.042-7.799-2.825-11.52-3.84-5.459-1.489-13.031-1.92-19.52-1.92H242.19c-2.656 0-10.876-.02-11.2 1.6m669.76 79.68l-.32.32z" fill="url(#A)"/><g fill="#d074db"><path d="M461.7 176.2l82.1 25.5 78 61.5-156.7 25.5zm71.8 153H668l-34.2 168H527.1z"/><path d="M461.7 176.2H255.1v459.7h210.1V433.4l61.9 63.8 76-64.7v203.4H812l-.1-459.7H602.4l-74.5 74.2z"/></g><g opacity=".6" filter="url(#AI_GaussianBlur_4)"><path fill="#973f93" d="M819.5 643.4H595.6V448.7l-68.9 58.8-53.9-55.6v191.5H247.6V168.7h217.5l63.2 70.7 71.1-70.7h220.1zm-208.9-15h193.9V183.8h-199l-77.9 77.5-69.2-77.5H262.6v444.6h195.1V414.9l69.8 72 83-70.7v212.2z"/></g><path fill="#d074db" d="M811.9 176.2l52.9 29.6v401.3L812 635.9z"/><path d="M766.5 404.1l-.5-8-1.3-11c-.6-4.9-1.9-17.8-1.9-17.8-1-12.1-1.5-18.7-8.9-23.8-2-1.4-7.5-1.5-8.1-1.5-4.5-.5-9.8-.2-13 .7-1.1.3-6.2 3.6-7.3 4.2-3.1 1.7-7 3.9-8.1 6.1-2.5 4.9-2.5 16.2-.2 30.2.3 1.7 4.3 12.5 6 17.1l5.9 18.3c1 3.6 4.2 13.7 4.2 13.7 1.7 4.9 3.9 11.8 4.6 16 .8 4.4 2 8.6 3.2 13.1 1.3 4.4 2.5 8.9 3.5 13.8.2.8 2.5 8.7 2.7 9.9.2 1.1 2.1 8 2.9 10.4.8 2.2 1.6 4.5 2.2 6.6 1.9 6.9 4.1 12.1 6.8 17.8 2.1 4.5 3.8 7.8 4.7 9.1 5.4 7.9 9.7 11.7 19.9 11.6 7.5-.1 11.6-1 14-3.3 3.4-3.2 6.3-7.1 7.1-8.4 3.1-4.7 5.4-10.5 6.5-16.5.6-3.2.5-6.8.3-10.6-.2-3.5-.3-7.2.2-10.9.3-2.2 1.5-10.1 4.4-17.4.2-.4 2.2-4.9 3-7.7 1.1-4.4 3.5-7.9 5.8-11.4 1-1.5 1.9-2.9 2.7-4.3 1.7-3.1 9.3-16 10.4-17.6.6-1 1.4-2.1 2.1-3l4.4-6.9c.7-1.2 1.4-2.3 2.1-3.4 0 0 .1-.1.1-.2l2.5-4.1c.6-1.5 2.2-5.4 2.8-7.3.7-2.2 1.4-4.2 2.1-5.8.5-1 5.7-6.1 6.6-8.2.4-1 4.5-7.8 5.3-9.9 1.8-4.7 6.4-11.3 7-12.6 1.3-3.2 3-7.2 5.8-10.3 1.1-1.2 3.1-4.5 4.9-7.4.3-.4.5-.8.8-1.2a53.82 53.82 0 0 1 2.7-4.3c.9-1.4 1.8-2.6 2.6-3.4 2.7-2.7 5.5-7.7 7.3-11 1.3-2.3 8.7-10.3 10.4-14.1 2.7-6.3 10.2-9.4 10.7-9.8 1.3-1.1 2.4-2.3 3.5-3.5 2.1-2.4 4.3-4.8 8.4-7 2.3-1.2 10.7-5.1 12.4-5.8 1.9-.7 6.3-2.9 9.3-5.1 3.1-2.3 7.3-8.4 8.3-10.3 2.4-4.3 4.1-11.8 4.7-14.8 1.2-6.1 1.7-8.5 1.4-14.4-.3-6.2-5.4-14.5-11.6-18.7-4.3-2.9-12.9-4.5-21-3.7-7.4.6-12.5 4.3-17 8.1-.3.2-10.1 9.3-12.1 12-.6.7-2.7 4.6-3.6 5.6-1.9 2.5-3.9 4.9-5.8 7.3l-5.8 7.3c-.4.6-1.6 1.7-4.8 4.9l-6.7 6.9c-1.4 1.9-10.7 14.4-11.9 15.6-1.3 1.3-5.3 6.6-6.7 8.8-2.3 3.4-4.9 7.3-6.2 8.9-1.2 1.6-2.5 3-3.8 4.5l-6.4 7.5c-.9 1.1-2 2.6-2.9 3.8l-.2.2c-.1.2-.3.5-.4.6l-5 8.5c-.2.4-3.8 9.2-7.1 13.1-2.4 2.9-3.6 8.1-4.2 10.5-.1.5-1.2 3.4-2.4 5.8s-4.1 8.7-4.1 8.7L809 387c-1 1.8-2.7 4.1-4.5 6.6-1.8 2.4-4.7 6.6-5.1 7.8-1.1 4.9-3.2 7.8-4.7 9.9-.6.9-1.3 1.9-1.4 2.3-1.5 8.3-5.6 15.5-10 17.8-1.9 1.1-3.9 1.2-5.7.5-6.5-2.7-8.1-8-9.7-13.5.4-.2-1.2-9.5-1.4-14.3zm-228.9 22.8c5.5 2.3 14.6 1.7 18.7-1.4 2.7-2 4.1-5.1 5.4-7.8.4-1 2-4.3 4.4-6.6 2.5-2.4 6.4-9 7.5-10 2.6-2.5 5.7-4.6 9.3-6.4 7.3-3.7 11.8-8.2 14.2-10.3 1.7-1.5 3-3.2 4.9-4.2 7.3-4 11-6.9 13.3-8.6 2-1.5 7.7-4.2 10.8-5.8 3.2-1.7 6.9-4.9 8.3-5.6 1.9-.9 5.2-.9 6.4-.1s4.2 5.1 6.2 27.4c.1 1.1.2 10 .2 11.5 0 2.3.9 9.6.8 10.3-.3 4.3 0 9.4.3 14.2 0 .2-.3 4.3.5 8.9.5 3 .3 9.6 0 12.1-.3 2.4 0 4.8 0 7.1.1 5.8-.8 11.5-.8 12.8 0 1-.1 7.7-.5 10.3 0 .5-1 4.4-1.1 5.6-.3 3 1.2 11.9.9 13.7-.3 2.6-1.1 5.2-1.9 7.9-1.4 4.8-3 10.2-2.2 16.7.4 3.5 1.2 7.7 2.7 11.9.1.2 1.5 5.9 2 8.5 0 0 1.9 6.4 2.6 10.4.5 3.1.1 7.7.1 8.8 0 2.2 1.6 9.1 1.7 10.1.1.7-.4 5.4-.1 7.1.6 3.7 2 10.7 6.2 13.2 5.1 3.1 9.7 2.8 12.7 3.7 7.5 2.3 16.1.9 20.9-.9 1.6-.6 3.4-1.9 4.4-3.4s3.1-2.8 4.5-4.9c1.6-2.4 3.9-12.3 5.4-16.4 1.6-4.4-.2-12.9-1.3-16.5-.4-1.1-4.3-10.5-5.3-12.6s-1.7-11.3-2.1-13.3c-.2-1.3-1.9-7.4-2.1-8.5-.1-.9.2-6-.1-7.6-1.3-7.8-.4-15.5.5-23.1 0 0-.2-7.5 0-8.6.4-4.3.6-9.2.8-13.9.1-3.2.2-6.2.4-8.8.1-1.5-.9-5.5-.3-8.8.2-1.3-.8-6.6-.9-7.2-.4-2.9.9-15.6.6-19-.1-1.3-1.5-8.4-2.1-15 0 0-.3-8.3-.2-10.7.2-3.2-.3-11-.2-18.1 0-2.4-.8-16.7-1-18.2-.4-2.8-.7-8.2-.1-12.8 1-7.4.2-8.7 1.1-13.9.8-4.9 9.2-8.4 9.9-8.6 1.9-.4 8.4-1.8 10-3.2 3.9-3.4 8.8-4.8 11.1-5.5 3.5-1 5.4-3.7 6.6-4.4 1.5-.8 6.2-3.7 7.6-4.5 1.4-.7 3.1-3.1 6.5-4 1.7-.5 4.3-2.3 6.8-3.2 1.8-.6 4.8-1.5 5.4-1.8 6.1-3.8 14.1-14.4 12-25.2-.7-3.4-3.4-6-5.1-8.5-3.3-4.9-7.6-5.1-10.7-5.1-2.8 0-7.3-.9-8.8-.5-3.2.9-8 4.3-10 5.9-.9.7-7.3 5-8.6 6.7-.7.9-4.1 6.2-6.6 8.3-2.2 1.9-8 3.8-11 6-1.9.4-5.8 1.1-7.5 1.8-1.6.6-8.1 4-9.5 4.5-.9.3-5.4 1.6-6.9 2.1-1.1.4-3.9 2.3-4.4 2.4-2.2.6-6.4 1-8.9.5-1.3-.3-10.3-5.4-17.3-4.2-3.2.6-5.9 1.9-7.3 3.2-1.9.5-4.8 1.9-5.6 3.5s-2.3 1.5-3.2 3.3c-1.9 3.4-3 8.2-3.1 9-.3 3.2.5 6 1 8.7 1.4 7.7-1.1 10.9-6.1 13.5-1.1.6-5 3.4-6 3.9-1.4.6-7 2.5-8.3 3.3-5.3 3-10.2 4.8-11.4 5.9-5.1 4.8-12.9 9.2-12.9 9.2-2.7 1.7-7.2 4.2-12.9 7.4-3.4 1.9-8.6 6.4-9.5 7s-5.8 3-7.2 3.9c-.9.6-5.2 3.8-6.6 4.6-2.7 1.5-6.3 2.5-10 3.6-6 1.7-12.3 3.5-16.3 7.9-6.1 6.7-8.6 17.2-5.6 25.3 3.5 7.9 10.5 12.6 14 14.1z" fill="#89a9e4"/><g opacity=".25" fill="#fff"><path d="M961.1 250.3c-.3-7.4-6.2-17-13.3-21.8-4.2-2.9-11.5-4.6-19.3-4.6-1.5 0-2.9.1-4.3.2-8.6.7-14.4 5-19.3 9-.1.1-10.3 9.5-12.7 12.6-.4.5-.8 1.2-1.7 2.6-.5.9-1.5 2.6-1.8 2.9l-.1.1-5.4 6.8-.5.7c-1.9 2.3-3.8 4.6-5.6 7-.3.4-1.7 1.8-3.9 4l-1.7 1.7c-5.1 5.2-5.7 5.9-5.9 6.2l-1.5 2-10.2 13.3c-1.5 1.6-5.7 7.1-7.2 9.3l-6.1 8.8c-1 1.4-2.1 2.6-3.5 4.1l-6.5 7.7c-.8 1-1.8 2.2-2.6 3.4l-.3.4-1.1 1.1v.4c-1.9 3.1-4.1 6.9-4.9 8.5l-.3.6c-2.4 5.5-4.7 9.8-6.3 11.7-3 3.5-4.3 9.1-5 12v.1c-.2.5-1.1 2.9-2.1 4.9-1.1 2.2-3.5 7.3-4 8.6l-7.7 12c-.9 1.6-2.5 3.8-4.2 6.2l-.2.3c-3.5 4.9-5.1 7.2-5.5 8.8v.2c-.9 4.1-2.7 6.5-4.1 8.5l-.1.1c-1.1 1.6-1.7 2.6-2 3.8-1.5 7.9-5.1 13.5-8 15.1-.8.4-1.6.5-2.2.3-4.5-1.9-5.7-5.2-7.4-10.8-.2-1.4-1.6-9.2-1.8-13.3-.1-2.7-.3-5.6-.5-8.2l-1-8.8-.3-2.3c-.6-4.8-1.9-17.6-1.9-17.7-1-12.4-1.7-20.6-10.6-26.8-2.3-1.7-6.2-2.1-9.7-2.2h-.3c-1.6-.2-3.3-.2-5-.2-3.6 0-7 .4-9.4 1-1.1.3-2.5 1.1-6.9 3.8-.6.4-1.1.7-1.3.8-3.8 2.1-8.1 4.5-9.7 7.8-4 7.8-2 23.8-.5 32.7.2 1.5 1.7 5.7 5.8 16.8l.3.9 5.9 18.1c1 3.6 4.1 13.4 4.2 13.9 1.3 3.9 3.8 11.3 4.5 15.4.8 4.6 2 8.9 3.3 13.5v.1c1.3 4.6 2.5 8.9 3.4 13.4.1.4.3 1.1 1.1 3.8.6 1.9 1.5 5.2 1.6 5.9.3 1.8 2.3 8.8 3.1 11l.5 1.4 1.7 5c2 7.1 4.2 12.5 7 18.4 1.6 3.4 3.7 7.8 5 9.6 5.9 8.7 11.3 13.4 23 13.4h.2c8.6-.1 13.5-1.4 16.7-4.4 3.9-3.6 6.9-7.8 7.7-9.1 3.3-5.1 5.9-11.4 7.1-17.9.7-3.7.6-7.7.4-11.6-.1-3.3-.3-6.9.2-10.1.8-6.1 2.3-11.9 4.2-16.5l.2-.4c1.1-2.4 2.3-5.4 3-7.7 1-3.7 3.1-6.8 5.3-10.2l.3-.5c.9-1.3 1.8-2.7 2.5-4.1l10.2-17.3c.6-.9 1.3-1.9 1.9-2.7l.2-.3c.7-1.1 2.5-3.8 4.4-7 .7-1.1 1.3-2.2 2-3.3.1-.1.1-.2.1-.2l2.8-4.5.1-.4c.2-.5.5-1.2.8-2.1.7-1.9 1.6-4 2-5.4.6-1.8 1.2-3.7 1.8-5 .3-.4 1-1.2 1.5-1.8 2.6-2.9 4.5-5 5.2-6.9.2-.4.9-1.6 1.4-2.6 1.9-3.3 3.4-6 3.9-7.5 1.1-2.8 3.5-6.7 5.1-9.3 1.1-1.7 1.6-2.5 1.9-3.2 1.2-2.9 2.7-6.5 5.1-9.1 1.3-1.4 2.9-4 5.2-7.7l1-1.6 2.6-4.2c.9-1.3 1.6-2.3 2.1-2.8 3-3 5.8-7.9 7.8-11.4l.3-.5c.3-.6 2-2.6 3.2-4.1 2.9-3.5 6.1-7.5 7.3-10.3 1.7-4 6.4-6.5 8.2-7.5.6-.3 1-.6 1.5-.9 1.5-1.4 2.8-2.7 3.8-3.8l.2-.2c2-2.2 3.8-4.2 7.2-6 2.2-1.2 10.4-5 11.9-5.5 2.1-.8 6.9-3.2 10.4-5.7 4-3 8.5-9.9 9.4-11.6 1.9-3.4 3.6-8.7 5.1-15.9 1.4-6.1 1.9-8.9 1.6-15.2zm-9.3 13.8c-1.3 6.2-2.8 11-4.3 13.7-1 1.9-4.8 7.3-7.2 9-2.8 2.1-6.9 4.1-8.3 4.6-2.1.8-10.7 4.8-13 6-4.6 2.5-7.1 5.2-9.3 7.7l-.2.2c-.8 1-1.8 2-2.9 3-.1 0-.1.1-.2.1-2.2 1.2-8.9 4.8-11.8 11.4-.8 1.8-4 5.8-6.2 8.4-2.1 2.6-3.4 4.2-4 5.3l-.2.4c-1.7 3-4.2 7.5-6.4 9.6-.9.9-1.9 2.2-3.2 4.1-.9 1.3-1.7 2.7-2.8 4.4l-1 1.6c-1.3 2.2-3.4 5.5-4.2 6.4-3.3 3.6-5.2 8.1-6.6 11.4-.2.3-.8 1.3-1.3 2.1-1.8 2.8-4.4 7.1-5.8 10.7-.4 1-2.3 4.5-3.4 6.3-1.2 2.1-1.6 2.9-1.8 3.4-.4.9-2.7 3.4-3.8 4.6-1.6 1.7-2.2 2.5-2.7 3.3-.9 1.8-1.6 4.1-2.4 6.3-.4 1.2-1.2 3.3-1.8 4.9-.3.7-.5 1.4-.7 1.9l-2.4 3.9c-.7 1.1-1.3 2.2-2.1 3.4-1.8 3-3.5 5.6-4.2 6.7-.8 1-1.5 2.1-2.1 3-1.2 1.7-8.9 15-10.6 17.9-.6 1.1-1.4 2.3-2.2 3.5l-.3.5c-2.4 3.5-5 7.5-6.4 12.6-.5 2-2 5.4-2.5 6.5-.2.4-.3.6-.3.7-2.7 6.6-4 13.6-4.7 18.4-.5 3.9-.4 7.9-.2 11.5.1 3.4.3 6.9-.3 9.7-1.1 5.4-3.2 10.8-6 15.1-.5.8-3.2 4.6-6.5 7.6-1.6 1.5-5.1 2.2-11.3 2.3h-.2c-8.2 0-11.4-2.6-16.4-9.9-.6-.8-2-3.5-4.4-8.5-2.6-5.6-4.8-10.6-6.6-17.2-.5-1.8-1.2-3.6-1.8-5.4l-.5-1.4c-.8-2.3-2.6-8.7-2.7-9.6-.1-.8-.6-2.5-1.8-6.8-.4-1.3-.8-2.9-.9-3.2-.9-4.9-2.2-9.3-3.6-14.2-1.2-4.4-2.4-8.5-3.1-12.6-.8-4.3-2.9-10.8-4.8-16.5 0-.1-3.2-10.1-4.2-13.6-1.4-4.9-5.8-18-6-18.5l-.4-1.1c-1.4-3.8-5.1-13.8-5.4-15.4-2.7-15.6-1.8-24.6-.2-27.7.6-1.2 4.7-3.4 6.5-4.4.3-.2.9-.5 1.6-1 1.1-.7 4-2.5 4.9-2.9 1.7-.4 4.4-.7 7.2-.7 1.4 0 2.8.1 4.1.2.1 0 .4 0 .8.1 4.1.2 5.2.7 5.4.8 5.5 3.9 6.2 8.4 7.2 21 .1.5 1.3 13.1 1.9 17.9l.3 2.3c.4 2.8.7 5.8 1 8.6.2 2.4.4 5.2.5 7.8.2 5 1.8 14.2 1.9 14.6l.1.4c1.8 5.9 3.8 12.6 12 16.1 2.9 1.2 6.3.9 9.1-.6 5.5-2.9 10.1-10.8 12-20.2.2-.3.6-.8.8-1.2 1.5-2.1 4-5.6 5.3-11.1.6-1.2 3.3-4.9 4.3-6.3l.2-.2c1.9-2.7 3.6-5 4.7-7 .4-.7 4.9-7.7 7.6-11.9l.3-.5c0-.1 2.8-6.3 4-8.5 1.2-2.3 2.5-5.6 2.7-6.6v-.2c.5-2 1.6-6.6 3.4-8.7 2.8-3.3 5.7-9.3 7.6-13.8v-.1l4.7-8c.1-.1.1-.2.2-.3l.7-.9c.8-1 1.7-2.2 2.4-3l6.3-7.5c1.5-1.7 2.8-3.1 4-4.7 1.3-1.7 3.8-5.4 6.3-9.1 1.4-2.1 5.3-7.2 6.3-8.2.9-.9 3.7-4.6 10.8-14a37.4 37.4 0 0 0 1.4-1.9c.3-.4 2.2-2.4 6.4-6.6l1.2-1.2c2.7-2.7 3.5-3.5 4-4.2 1.7-2.3 3.6-4.6 5.4-6.8l.5-.7c1.9-2.3 3.8-4.6 5.6-7.1.6-.7 1.3-2 2.4-3.8.4-.7 1-1.7 1.2-1.9 1.6-2 10.2-10.1 11.5-11.3 4.2-3.5 8.5-6.6 14.8-7.2 1.2-.1 2.4-.2 3.6-.2 6 0 12 1.3 14.8 3.2 5 3.4 9.6 10.6 9.8 15.5.4 5.4.1 7.4-1.1 13.5z"/><path d="M692.7 532.9c-.5-1.2-1.1-6.6-1.4-8.9l-.4-3.5c-.1-.7-.5-2.2-1.1-4.5l-1-3.8v-2.3c.1-2.5.1-4.3-.1-5.5-1.2-7.1-.3-14.5.5-21.6l.1-.7v-.3c-.1-3.3-.1-7.3 0-8.1.4-4.1.6-8.6.7-13v-1.2c.1-3.8.2-6.4.4-8.6.1-.9 0-1.9-.2-3.1-.2-1.7-.4-3.7-.2-5.3.2-1.4 0-3.3-.7-7.2-.1-.4-.1-.8-.2-1v-.1c-.1-1.1.1-5.8.3-8.9.3-5 .5-8.1.3-10 0-.5-.2-1.2-.4-2.7-.5-2.9-1.3-7.7-1.7-12.2-.1-3.1-.3-8.6-.2-10.2.1-1.9 0-4.8-.1-8.6l-.2-9.7c0-2.5-.8-17-1.1-18.8-.4-3-.6-7.9-.1-11.8s.6-6.3.6-8.2c0-1.8.1-3.2.5-5.5.3-1.8 4.7-4.6 7-5.4l.3-.1c6.6-1.4 9.6-2.5 11.3-4 3.1-2.7 7.2-4 9.4-4.6l.2-.1c3.3-1 5.5-3 6.8-4.2.2-.2.5-.5.7-.6.8-.4 2.1-1.2 3.5-2.1 1.5-.9 3.3-2 4-2.3.8-.4 1.5-1 2.2-1.6 1-.9 2-1.7 3.5-2.1 1.3-.3 2.5-1 3.8-1.7 1.1-.6 2.2-1.2 3.2-1.5.5-.2 1.1-.3 1.6-.5 2.7-.8 3.8-1.2 4.6-1.7 7.2-4.5 16.3-16.6 13.8-29.4-.7-3.4-2.7-5.9-4.3-8-.5-.7-1-1.3-1.4-1.9-4.5-6.9-10.9-6.9-14-6.9a24.87 24.87 0 0 1-3.6-.3 29.06 29.06 0 0 0-4-.3c-.9 0-1.6.1-2.3.3-4.6 1.3-10.7 6.1-11.3 6.5-.2.1-.5.4-1 .7-4.4 3.1-7.2 5.2-8.4 6.8-.2.2-.5.6-.8 1.2-1.1 1.5-3.6 5.2-5.2 6.6-.7.6-2.8 1.6-4.5 2.4-1.9.9-3.9 1.8-5.5 2.9-.3.1-.7.2-1.1.2-2.6.6-4.8 1-6.2 1.6-.9.3-2.5 1.1-5.1 2.4-1.5.7-3.7 1.9-4.3 2.1-.3.1-1.5.4-2.3.7-2.1.6-3.7 1.1-4.6 1.4-.8.3-1.8.9-3.2 1.7-.3.2-.8.5-1.1.6-1 .3-2.8.5-4.6.5-1 0-1.6-.1-2-.1-.2-.1-.7-.3-1.2-.5-3.2-1.4-9.1-4-15-4-1 0-1.9.1-2.9.2-3.3.6-6.4 1.9-8.5 3.6-1.8.6-5.6 2.2-7.1 5.1-.1.1-.2.1-.3.2-.7.5-2 1.4-2.9 3.1-2.1 3.8-3.4 9.1-3.6 10.6-.3 3.2.3 5.9.8 8.2l.3 1.5c1.1 5.9-.4 7.3-4 9.2-.7.4-1.8 1.1-3.4 2.2-.8.6-2.1 1.4-2.4 1.6l-2.6 1c-3 1.1-5 1.8-6 2.4-2.4 1.4-4.8 2.5-6.8 3.4-2.7 1.3-4.3 2.1-5.4 3.1-4.6 4.4-12 8.6-12.1 8.6l-.2.1c-2.5 1.6-6.9 4.1-12.7 7.3-2.8 1.6-6.3 4.5-8.5 6.2-.6.5-1 .8-1.3 1-.4.2-1.6.9-2.6 1.4-2.2 1.1-3.7 1.9-4.6 2.5-.3.2-1.1.8-2 1.4-1.3.9-3.6 2.6-4.3 3-2.4 1.3-5.7 2.2-9.2 3.2-6.2 1.8-13.3 3.7-18.1 9.1-7.2 8-9.8 20.1-6.3 29.4 3.5 9.4 11.6 14.8 15.7 16.6 3.4 1.4 7 1.7 9.5 1.7 5.3 0 10.1-1.3 13.2-3.6 3.4-2.6 5.1-6.2 6.5-9.1l.1-.3c.7-1.6 2-3.9 3.6-5.4 1.8-1.8 4-5 5.7-7.5l1.8-2.6c2.1-2 4.9-3.9 8.3-5.6 6.8-3.4 11.3-7.5 14-10 .4-.3.7-.7 1.1-1 .5-.5 1-1 1.5-1.4 1-.9 1.8-1.8 2.6-2.2 7.2-4 11.1-6.9 13.5-8.7l.2-.2c1.1-.8 4.6-2.6 7.2-3.9l3.2-1.6c2-1.1 4.1-2.6 5.8-3.9.8-.6 2-1.5 2.3-1.6s1-.3 1.9-.3h.5c.7 1.3 2.9 6.6 4.4 24.3l.1 7.4c0 1.8 0 3.3.1 3.7 0 1.5.3 4.4.5 7l.3 3.1c-.3 4.6 0 9.8.3 14.4v.1c0 1.3-.2 5.1.5 9.4.4 2.6.2 8.7 0 11-.2 2.1-.2 4.1-.1 5.9 0 .6.1 1.2.1 1.8.1 3.9-.3 7.8-.6 10.2-.1 1.2-.2 1.9-.2 2.5v.4c-.1 6-.3 8.4-.4 9.3v.1c-.1.3-.2.7-.3 1.3-.5 2-.8 3.5-.8 4.4-.2 1.9.1 4.7.5 8.9.2 1.8.4 4.1.4 4.8-.3 2.2-1 4.6-1.7 7.1v.1c-1.5 4.9-3.3 11-2.4 18.3.6 4.7 1.5 8.8 2.9 12.6l2 8.5c0 .1 1.9 6.2 2.4 9.9.3 1.9.2 5 .1 6.6v1.5c0 1.8.6 5 1.4 8.7.2.8.3 1.5.4 1.9 0 .3 0 1-.1 1.6-.1 2.4-.2 4.4 0 5.8 1.3 8.3 4 13.5 8.1 16 4.3 2.6 8.2 3.2 11 3.6 1 .2 2 .3 2.6.5 3 .9 6.3 1.4 9.8 1.4 4.8 0 9.8-.9 13.8-2.4 1.9-.7 4.7-2.5 6.3-4.9.2-.3.8-.8 1.3-1.3 1-.9 2.2-2 3.2-3.6 1.2-1.9 2.3-5.5 4-11.1.7-2.4 1.4-4.7 1.9-6.1 2.2-5.9-.2-15.8-1.3-19.1-.2-1.3-4.3-11-5.2-13zm-.8 29.4c-.6 1.7-1.3 4.1-2.1 6.7-.8 2.9-2.3 7.8-3 8.9-.5.7-1.2 1.4-2 2.1-.9.8-1.8 1.7-2.5 2.8-.4.6-1.6 1.5-2.5 1.9-3 1.2-7.1 1.9-10.8 1.9-2.7 0-5.2-.3-7.5-1-1.2-.4-2.4-.5-3.7-.7-2.6-.4-5.2-.8-8.1-2.6-1.1-.7-3.1-2.9-4.3-10.4-.1-.7 0-2.9.1-4 .1-1.6.1-2.3 0-3-.1-.5-.2-1.1-.5-2.5-.4-1.8-1.2-6-1.2-7.2v-1.1c.1-2.1.2-5.5-.2-8.2-.6-3.8-2.3-9.6-2.6-10.7l-2.1-8.9c-1.2-3.3-2-6.9-2.5-11.1-.7-5.7.7-10.4 2.1-15v-.1c.8-2.9 1.6-5.5 2-8.5.1-1.2 0-3.1-.4-6.6-.3-2.4-.6-6-.5-7.3 0-.5.5-2.4.7-3.3.3-1.2.4-1.7.4-2.1.3-2.3.4-7 .5-10.3v-.4c0-.2.1-1.1.2-1.8.3-2.5.7-6.8.6-11.2 0-.6 0-1.3-.1-2-.1-1.6-.1-3.1 0-4.6.3-2.7.6-9.6 0-13.2-.6-3.5-.5-6.7-.4-7.8v-.8c-.3-4.4-.6-9.5-.3-13.7 0-.6 0-1.2-.3-4.3-.2-2.2-.5-5.2-.5-6.4 0-.5 0-2-.1-3.7l-.2-8c-2-23.6-5.3-28.7-7.9-30.4-1.2-.8-2.9-1.2-4.9-1.2-1.1 0-3.3.1-5.3 1.1-1 .4-2 1.2-3.7 2.4-1.5 1.1-3.3 2.5-4.8 3.2-.8.4-1.9 1-3 1.5-3.9 2-6.8 3.4-8.4 4.6l-.3.2c-2.3 1.7-5.8 4.4-12.5 8-1.8 1-3.2 2.3-4.4 3.5l-1.2 1.2c-.3.3-.7.6-1.1 1-2.5 2.3-6.4 5.8-12.2 8.8-4.1 2.1-7.6 4.5-10.3 7.1-.6.6-1.3 1.7-2.7 3.7s-3.4 5.1-4.7 6.3c-2.9 2.8-4.7 6.4-5.3 7.9l-.1.1c-1.1 2.3-2.2 4.7-4 6.1-1.6 1.2-4.9 2-8.4 2h0c-2.4 0-4.8-.4-6.4-1.1-2.8-1.2-8.8-5.2-11.3-12-2.4-6.5-.4-15.4 4.8-21.2 3.3-3.6 8.9-5.2 14.4-6.7 3.8-1.1 7.7-2.2 10.9-3.9 1-.6 2.8-1.9 5.1-3.5a35.56 35.56 0 0 1 1.7-1.2c.6-.4 2.6-1.4 3.9-2.1l3.4-1.8c.4-.2.8-.6 1.8-1.4 1.8-1.5 5.1-4.2 7.3-5.4l13-7.5c.9-.5 8.4-4.8 13.5-9.7.5-.3 2.1-1.1 3.4-1.7 2-1 4.6-2.2 7.3-3.7.6-.3 3.4-1.3 4.8-1.9 1.5-.6 2.5-.9 3.1-1.2l.1-.1c.7-.4 1.8-1 3.5-2.3.9-.6 2.2-1.5 2.6-1.7 7.3-3.8 9.8-9.1 8.2-17.7l-.3-1.7c-.4-2-.8-3.8-.6-5.8.1-.8 1.1-4.9 2.6-7.6.1-.1.3-.2.4-.3.7-.5 1.9-1.3 2.8-2.9.4-.4 1.8-1.2 3.1-1.5l1-.3.8-.7c.6-.6 2.5-1.7 5.1-2.1.5-.1 1-.1 1.5-.1 4.2 0 9.1 2.2 11.7 3.3 1.2.5 1.9.8 2.5 1 1.1.2 2.4.4 3.8.4 2.4 0 5-.3 6.9-.9.8-.2 1.4-.6 2.8-1.4.6-.3 1.7-1 2-1.1.7-.3 2.6-.8 4-1.2 1.5-.4 2.3-.7 2.8-.8.9-.3 2.6-1.1 5.2-2.4 1.6-.8 3.7-1.9 4.4-2.1.9-.4 3.4-.9 5-1.2.7-.2 1.4-.3 2-.4l.8-.2.6-.5c1.2-.8 3.1-1.7 5-2.6 2.5-1.1 4.8-2.2 6.4-3.6 2.4-2.1 5-5.9 6.5-8 .3-.4.5-.7.6-.9.4-.5 1.9-1.7 6.6-5.1.6-.4 1-.7 1.2-.9 2.6-2 6.4-4.5 8.5-5.1.7 0 2.1.1 3.4.3 1.5.2 3 .3 4.5.3 3 0 5.3.2 7.3 3.3.5.8 1.2 1.6 1.8 2.4 1.2 1.6 2.4 3.1 2.7 4.7 1.7 8.5-4.7 17.5-10 20.9-.5.2-2 .7-2.9 1-.6.2-1.2.4-1.7.6-1.6.5-3.1 1.3-4.5 2-.7.4-1.8.9-2.2 1-3.2.8-5.2 2.6-6.6 3.7-.3.2-.7.6-.8.6-.9.4-2.6 1.5-4.4 2.6-1.3.8-2.7 1.6-3.3 1.9-.8.4-1.5 1-2.2 1.7-1 .9-2.1 2-3.7 2.4l-.2.1c-2.6.8-7.9 2.4-12.3 6.2-.5.3-2.2 1-7.8 2.2l-.6.1c-.1 0-11.5 3.9-12.9 11.8-.5 2.8-.5 4.7-.6 6.6 0 1.8-.1 3.9-.6 7.4-.7 5.2-.3 11.2.1 14 .2 1.4 1 15.4 1 17.6 0 3.4.1 6.9.2 10 .1 3.2.2 6.3.1 7.8-.2 2.6.1 10.3.1 11.1v.2c.4 4.8 1.3 9.9 1.8 12.9.2.9.3 1.9.3 2.1.1 1.3-.1 5.4-.3 8.7-.3 5.2-.5 8.5-.3 10.3 0 .3.1.7.2 1.5.2 1 .6 3.8.6 4.7-.4 2.7-.1 5.4.1 7.4.1.6.2 1.4.2 1.7-.2 2.3-.3 5.1-.4 8.9v1.2c-.2 4.3-.3 8.7-.7 12.4-.1 1.1-.1 5.4 0 8.9v.1c-.9 7.7-1.8 15.6-.4 23.8.1.6 0 2.9 0 4.1 0 1.9-.1 2.8.1 3.6.1.7.5 2.2 1.1 4.6.4 1.5.9 3.5 1 4s.2 1.7.4 3c.7 6.3 1.2 9.6 2 11.3a448.47 448.47 0 0 1 5.1 12.2c1.4 3.8 2.6 10.9 1.5 13.7z"/></g><g fill="#90acaf"><path d="M258.1 717.3v-46.7h14.4l8.6 31.8c1-4.9 1.8-8.5 7.9-31.8h14.4v46.7h-9.3l.1-33.8-9.3 33.8h-8.1l-9.3-33.9c.1 5 .1 9.1.1 33.9zm62.6-46.8v27.3c0 2 .1 4.1.6 5.5 1 3.4 3.2 5.6 7.9 5.6s7-2 8.1-5.3c.5-1.5.7-3.7.7-5.9v-27.3h9.5v27.7c0 2.3-.2 5-.6 7-1.7 8.6-7.4 12.9-17.7 12.9-10 0-15.5-4.1-17.4-12.2-.4-2-.7-4.9-.7-7.4v-27.9z"/><use xlink:href="#B"/><path d="M393.5 717.3v-46.7h9.5v46.7zm37 .8c-14.3 0-21.2-10.4-21.2-24.2 0-14.1 7.9-24.2 21.6-24.2 11.3 0 17.6 6.7 19 16.3l-9.7 1.5c-1.1-5-4-8.5-9.5-8.5-6.8 0-11.3 5.3-11.3 14.9 0 9.8 4.4 15.1 11 15.1 6.4 0 9.2-3.9 10-9.5l9.8 1.6c-1.2 9.1-7.6 17-19.7 17zm47.9-.8v-37.2h-13.3v-9.5h36v9.5h-13.3v37.2zm27.4 0v-46.7h28.8v9.5h-19.3v8.6h18v9.3h-18v9.9h20.3v9.4zm36.7 0v-46.7h9.5v37.3h19.1v9.4zm32.9 0v-46.7h28.8v9.5H585v8.6h18v9.3h-18v9.9h20.3v9.4zm47.8 0l-16.6-46.7h10.7l11 33.6c.7-2.5 1.7-5.8 10.7-33.6h10.5l-16.6 46.7zm30.6 0v-46.7h9.5v46.7z"/><use xlink:href="#B" x="317.1"/><path d="M710.5 717.3v-46.7h9.5v46.7zm37.4.8c-12.8 0-21.6-9.1-21.6-24.4 0-15 9.3-24 21.6-24S769 678.9 769 694c0 15.2-9.2 24.1-21.1 24.1zm-.1-39.2c-6.1 0-11.5 4.7-11.5 14.7 0 10.8 4.9 15.4 11.5 15.4 6.1 0 11.1-4.3 11.1-14.9 0-10.7-5.1-15.2-11.1-15.2zm27.4 38.4v-46.7h11.3l16.2 28.7-.1-28.7h9.3v46.7h-9.5l-17.9-31.7c.1 3.7.1 9.1.1 31.7zm66.8-49.7c-7.6 0-13.4 5.8-13.4 13.5s5.8 13.5 13.4 13.5 13.4-5.8 13.4-13.5c.1-7.8-5.6-13.5-13.4-13.5zm-5.1 6.9v13.3c-1.9-1.5-3-3.8-3-6.7 0-2.7 1.1-5.1 3-6.6zm5.2 8.7h.5l2.3 4.9h1.9c-1.3.9-2.9 1.4-4.7 1.4s-3.4-.5-4.7-1.4h3v-4.9zm-1.8-2.9v-3.2h2.1c.5 0 1.1 0 1.4.2.7.2 1 .6 1 1.4s-.3 1.2-.9 1.5c-.4.2-1.1.2-1.6.2h-2zm7.8 6.7l-2.2-4.4c1.5-.6 2.4-1.9 2.4-4.1 0-1.6-.8-3.2-2.6-4.1-.6-.3-2.1-.5-3.2-.5h-5.1c1.3-.8 2.8-1.3 4.5-1.3 4.8 0 8.2 3.5 8.2 8.4.1 2.5-.6 4.5-2 6z"/></g><path fill="#9a688e" d="M865.7 1068H255.2c-2.5 0-4.6-2.1-4.6-4.6V755.7c0-2.5 2.1-4.6 4.6-4.6h610.5c2.5 0 4.6 2.1 4.6 4.6v307.7c0 2.5-2 4.6-4.6 4.6zm-601.5-9h592.5c2.5 0 4.6-2.1 4.6-4.6V764.7c0-2.5-2.1-4.6-4.6-4.6H264.2c-2.5 0-4.6 2.1-4.6 4.6v289.7c0 2.5 2.1 4.6 4.6 4.6z"/></svg>