<?xml version="1.0" encoding="UTF-8"?>
<svg width="440.64" height="450" version="1.1" xmlns="http://www.w3.org/2000/svg">
	<defs>
		<filter id="filter4811" x="-.10924" y="-.13311" width="1.2185" height="1.2662" color-interpolation-filters="sRGB">
			<feGaussianBlur stdDeviation="13.560231"/>
		</filter>
		<filter id="filter4815" x="-.099944" y="-.15013" width="1.1999" height="1.3003" color-interpolation-filters="sRGB">
			<feGaussianBlur stdDeviation="15.293151"/>
		</filter>
		<filter id="filter4819" x="-.80686" y="-.06482" width="2.6137" height="1.1296" color-interpolation-filters="sRGB">
			<feGaussianBlur stdDeviation="6.728931"/>
		</filter>
		<filter id="filter4823" x="-.11578" y="-.12453" width="1.2316" height="1.2491" color-interpolation-filters="sRGB">
			<feGaussianBlur stdDeviation="1.8669242"/>
		</filter>
		<filter id="filter4827" x="-.10491" y="-.14017" width="1.2098" height="1.2803" color-interpolation-filters="sRGB">
			<feGaussianBlur stdDeviation="2.1751989"/>
		</filter>
		<filter id="filter4831" x="-.41464" y="-.070151" width="1.8293" height="1.1403" color-interpolation-filters="sRGB">
			<feGaussianBlur stdDeviation="3.122207"/>
		</filter>
		<filter id="filter4835" x="-.015937" y="-.048572" width="1.0319" height="1.0971" color-interpolation-filters="sRGB">
			<feGaussianBlur stdDeviation="2.1084132"/>
		</filter>
	</defs>
	<g fill="#ffccfa">
		<path d="m168.03 265.18-18.072 18.2v-106.82l18.072 18.925z" filter="url(#filter4831)"/>
		<path d="m176.62 40.735 21.213 17.332-13.653 13.415-36.11-37.245z" filter="url(#filter4827)"/>
		<path d="m222.61 190.97-8.9881 7.7996-29.51 13.56 38.698-35.979z" filter="url(#filter4823)"/>
		<path d="m337.09 34.236v249.14l20.015-13.741-0.0634-223.45z" filter="url(#filter4819)"/>
	</g>
	<g>
		<path d="m36.807 36.703-0.1035 244.48 110.79-0.26771v-110.51l36.72 38.458 41.145-38.247-1.5157 110.57 110.79-0.26871 2.1527-102.45c0.73944-1.251 1.4112-2.3636 1.4112-2.3636l0.01-0.0159c3e-3 -5e-3 0-3e-3 6e-3 -0.01l6e-3 -6e-3c5e-3 -7e-3 7e-3 -0.0169 0.0159-0.0329 0.0209-0.0318 0.0477-0.0617 0.0816-0.11047 0.0866-0.12739 0.207-0.29856 0.32444-0.46776l0.46775-0.67674-0.0637 0.0846c0.19207-0.22891 0.10649-0.14929 0.1443-0.20801l0.14331-0.22292c0.11644-0.18213 0.27469-0.42496 0.46278-0.72353l1.3776-2.1881c1.5684-2.3029 2.2989-4.367 2.8592-6.1365 0.5623-1.7725 0.96237-3.2165 1.8511-4.568 3.7281-5.6727 8.7599-14.719 13.404-21.652 0.79518-1.1823 1.9795-2.9488 1.9795-2.9488l0.0169-0.0268 0.0159-0.0209c-0.0318 0.0528 0.21199-0.32544 0.4797-0.7295l0.94645-1.4212c0.67674-1.0101 1.3316-1.9924 1.3316-1.9924l0.0159-0.0209c3e-3 -3e-3 9e-3 -6e-3 0.0179-0.0219l0.0268-0.0398 0.11644-0.17117 0.47472-0.69267c0.39012-0.57225 0.90963-1.3406 1.4301-2.1029 1.042-1.5257 2.082-3.0444 2.082-3.0444l0.0209-0.0298c2e-3 -4e-3 0.013-0.0298 0.0319-0.0558l0.0109-0.01c0-2e-3 5e-3 -4e-3 6e-3 -6e-3l0.15924-0.21298c0.14729-0.19108 0.34434-0.44387 0.5394-0.69267 0.38814-0.49761 0.7713-0.98327 0.7713-0.98327l0.0209-0.0219 3.951-5.5682 0.0458-0.11644c0.50059-1.1534 2.3955-2.3248 3.2116-2.7528l6e-3 -4e-3 0.46577-0.25677 0.67674-0.48367 2.0551-2.07 6e-3 -6e-3 0.0268-0.0278 0.0736-0.0617 0.3951-0.33638 1.1913-1.0072 1.5973-1.3445 5.7912-2.6881 5.5035-3.0195 0.29657-0.21198 0.0428-0.0477c9e-3 -0.0103 0.0183-0.0209 0.0268-0.0319l0.0278-0.0268 0.0538-0.0637 0.1632-0.20203 0.57624-0.70361c0.47372-0.58021 1.1067-1.3515 1.7356-2.1228l2.5109-3.0832 0.14431-0.18113 2.7468-8.4991 0.0538-0.22392c3e-3 -0.01394 4e-3 -0.03683 4e-3 -0.03683 3e-3 -0.02289 3e-3 -0.04877 6e-3 -0.07961 8e-3 -0.0637 0.0169-0.14928 0.0278-0.26075l0.0905-0.9156 0.2707-2.7637 0.38813-4.0087 6e-3 -0.08359v-0.08559c-0.19108-4.6496-3.4444-9.8427-7.7159-12.716-3e-3 -1e-3 -4e-3 -4e-3 -6e-3 -5e-3 -3.1618-2.1497-8.2593-3.0404-13.366-2.5975-4.9412 0.415-8.2872 2.8493-10.86 4.9661l-4e-3 -0.0059v0.0059c-0.0298 0.02389-0.0736 0.04479-0.10151 0.06867l0.73646 0.98725-0.13435 0.13236-0.8529-0.83797s0.0737-0.1045 0.0956-0.13236l-0.20204 0.20203-0.74442 0.73447-5.6001 5.5304-0.10151 0.10151-1.8471 2.9389c-0.0209 0.03284-5.8071 7.2352-5.8449 7.281h-6e-3l-6e-3 0.0099-0.01 0.01194-0.0209 0.02488-0.0428 0.04876c-3.3618 4.15-12.015 14.94-18.353 22.824l-2.1895 2.5657-2.1417-75.986h-111.53l-38.951 38.28-37.117-38.28zm366.34 52.091-0.0229 0.11644s0.015-0.05374 0.0169-0.06768c5e-3 -0.02687 5e-3 -0.03981 6e-3 -0.04877zm-7.4372-20.196-0.17316 0.25876s0-2e-3 -2e-3 -2e-3z" fill="#ff69f1" filter="url(#filter4815)"/>
		<path d="m36.807 36.703-0.1035 244.48 110.79-0.26771v-110.51l36.72 38.458 41.145-38.247-1.5157 110.57 110.79-0.26871v-244.22h-111.53l-38.951 38.28-37.117-38.28z" display="none" fill="#ff69f1" filter="url(#filter4811)"/>
		<path d="m45.648 323.39-3.7848-16.931h-0.05573v16.931h-6.3425v-26.383h9.5401l3.1091 15.515h0.05573l3.1091-15.515h9.5401v26.383h-6.3415v-16.931h-0.06768l-3.7729 16.931zm37.366-10.211c0 7.3198-3.2663 10.823-9.9004 10.823-6.6351 0-9.9352-3.5032-9.9352-10.823v-16.178h6.7018v14.382c0 2.694 0 6.0509 3.2553 6.0509 3.1877 0 3.1877-3.3569 3.1877-6.0509v-14.382h6.6908zm8.6454 1.3336c0 0.66281 0.08957 1.257 0.24781 1.7396 0.48467 1.5834 1.9486 1.9208 3.1986 1.9208 1.0927 0 2.7707-0.43789 2.7707-2.4034 0-1.3585-0.93451-1.7287-4.6964-3.0195-3.4355-1.1903-7.3775-2.3358-7.3775-7.6572 0-6.0847 4.3133-8.7121 8.7858-8.7121 4.7193 0 8.8972 2.1785 9.0783 8.6116h-6.3296c0.11246-0.9992-0.24881-1.662-0.80016-2.1228-0.55234-0.45979-1.3177-0.65087-1.9825-0.65087-0.91261 0-2.4104 0.29259-2.4104 1.7745 0.12341 1.874 3.2325 2.279 6.3077 3.323 3.0852 1.033 6.1275 2.7727 6.1275 7.6004 0 6.8819-5.205 9.0933-10.048 9.0933-2.4781 0-9.5182-1.0778-9.574-9.4973zm15.073 8.8773v-26.383h6.7018v26.383zm23.646-16.56c-0.12341-0.96536-0.73248-3.8843-3.5141-3.8843-3.1319 0-4.1341 3.7042-4.1341 7.2521 0 3.537 1.0022 7.2422 4.1341 7.2422 2.2641 0 3.1538-1.9307 3.548-4.4018h6.5784c0 5.3224-3.5599 10.968-9.9352 10.968-7.0402 0-11.039-6.0171-11.039-13.809 0-8.307 4.3372-13.821 11.039-13.821 5.9812 0.0339 9.2585 3.8405 9.8447 10.453zm36.783-9.8327v6.7585h-6.0937v19.626h-6.7018v-19.626h-6.0937v-6.7585zm8.6484 6.7675v3.3011h10.262v6.2639h-10.262v3.3011h11.647v6.7585h-18.349v-26.383h17.999v6.7585zm30.036 12.858v6.7585h-16.332v-26.383h6.6908v19.626zm8.3598-12.858v3.3011h10.273v6.2639h-10.273v3.3011h11.635v6.7585h-18.338v-26.383h17.999v6.7585zm20.183-6.7675 3.5708 15.998h0.0438l3.526-15.998h6.871l-6.7923 26.383h-7.49l-6.4988-26.383zm16.531 26.393v-26.383h6.7127v26.383zm16.023-8.8773c0 0.66281 0.0895 1.257 0.24782 1.7396 0.48466 1.5834 1.9486 1.9208 3.1986 1.9208 1.0928 0 2.7707-0.43789 2.7707-2.4034 0-1.3585-0.9574-1.7287-4.6974-3.0195-3.4345-1.1903-7.3765-2.3358-7.3765-7.6572 0-6.0847 4.3023-8.7121 8.7858-8.7121 4.7193 0 8.8873 2.1785 9.0664 8.6116h-6.3296c0.1234-0.9992-0.2488-1.662-0.80016-2.1228-0.5404-0.45979-1.3067-0.65087-1.9705-0.65087-0.91261 0-2.4104 0.29259-2.4104 1.7745 0.1234 1.874 3.2324 2.279 6.3077 3.323 3.0852 1.033 6.1275 2.7727 6.1275 7.6004 0 6.8819-5.2149 9.0933-10.048 9.0933-2.4781 0-9.5182-1.0778-9.574-9.4973zm15.078 8.8773v-26.383h6.7018v26.383zm20.014-27.01c6.6232 0 11.038 5.7703 11.038 13.821 0 8.0493-4.4148 13.809-11.038 13.809-6.6003 0-11.027-5.7593-11.027-13.809 0-8.0493 4.4267-13.821 11.027-13.821m0 21.062c1.7118 0 4.3362-1.3694 4.3362-7.2412 0-5.8718-2.6244-7.2531-4.3362-7.2531-1.7008 0-4.3252 1.3814-4.3252 7.2531 0 5.8718 2.6244 7.2412 4.3252 7.2412m26.781-6.3226v-14.112h6.3296v26.383h-6.5097l-6.6799-14.404h-0.0558v14.404h-6.3415v-26.383h6.859l6.3306 14.112zm19.357-14.63c1.3704 0 2.6134 0.31748 3.7281 0.95242 1.1146 0.63495 1.9904 1.5078 2.6274 2.6184 0.63694 1.1117 0.95541 2.3427 0.95541 3.6952 0 1.3535-0.32544 2.5915-0.97531 3.7161a7.1675 7.1675 0 0 1-2.6592 2.6602c-1.1216 0.64887-2.3606 0.97331-3.7181 0.97331s-2.5925-0.32444-3.7072-0.97331a7.1357 7.1357 0 0 1-2.6373-2.6493c-0.6449-1.1186-0.96635-2.3467-0.96635-3.6853 0-1.3386 0.32145-2.5677 0.96535-3.6853a7.1128 7.1128 0 0 1 2.6483-2.6493c1.1216-0.64888 2.3686-0.97332 3.739-0.97332zm-0.0428 13.27c1.1077 0 2.1158-0.26572 3.0225-0.79617a5.7653 5.7653 0 0 0 2.1397-2.1746c0.51851-0.91758 0.77827-1.9287 0.77827-3.0334 0-1.1176-0.25279-2.1248-0.75836-3.0225a5.5503 5.5503 0 0 0-2.1079-2.1218c-0.89967-0.51751-1.9108-0.77627-3.0324-0.77627s-2.1327 0.26274-3.0324 0.78622a5.6578 5.6578 0 0 0-2.1188 2.1536c-0.51154 0.91062-0.76831 1.9188-0.76831 3.0225 0 1.1047 0.25677 2.1118 0.76831 3.0225a5.6827 5.6827 0 0 0 2.1089 2.1536c0.89271 0.52349 1.8929 0.78622 3.0006 0.78622zm3.8634-7.1218c0 0.58022-0.12739 1.0798-0.38416 1.5008-0.25576 0.42098-0.63295 0.74941-1.1316 0.98328l1.7655 2.692h-2.1596l-1.5167-2.3188h-1.4331v2.3188h-2.1596v-8.0334h3.5101c1.0937 0 1.9526 0.25875 2.5756 0.77627 0.62302 0.51751 0.93452 1.2112 0.93452 2.081zm-3.6554 1.242c0.48468 0 0.86186-0.10649 1.1316-0.32046 0.27069-0.21397 0.40505-0.52149 0.40505-0.92157 0-0.40007-0.13436-0.71058-0.40505-0.93152-0.26872-0.22094-0.64689-0.33141-1.1316-0.33141h-1.2251v2.505z" fill="#80c1ff"/>
		<path d="m352.89 340.77v104.18h-317.5v-104.18zm-4.9611 4.9582h-307.58v94.258h307.58z" fill="#ff69f1" filter="url(#filter4835)"/>
		<path d="m160.77 391.45c2.7378 1.3585 4.8308 3.1339 6.2798 5.3274 1.449 2.1935 2.1716 4.7273 2.1716 7.5995 0 3.3947-0.97531 6.3594-2.923 8.8922-1.9476 2.5328-4.6855 4.4914-8.2135 5.8758-3.528 1.3834-7.6084 2.076-12.242 2.076-4.6337 0-8.7012-0.69267-12.202-2.076-3.5022-1.3844-6.2131-3.3429-8.1349-5.8758-1.9218-2.5338-2.8831-5.4976-2.8831-8.8922 0-2.8722 0.72353-5.406 2.1716-7.5995 1.448-2.1934 3.5151-3.9699 6.2002-5.3274-2.0531-1.254-3.6325-2.8334-4.7392-4.7402-1.1047-1.9058-1.658-4.0864-1.658-6.5416 0-3.1857 0.8957-5.9544 2.6851-8.3041 1.7914-2.3507 4.2914-4.166 7.5039-5.4448 3.2116-1.2798 6.8968-1.9198 11.057-1.9198 4.2128 0 7.9378 0.63992 11.176 1.9198s5.7523 3.0951 7.5437 5.4438c1.7894 2.3507 2.6851 5.1194 2.6851 8.3051 0 2.4552-0.55334 4.6357-1.659 6.5416-1.1047 1.9068-2.712 3.4862-4.8168 4.7402zm-14.927-17.627c-2.5796 0-4.6477 0.61404-6.2002 1.8412-1.5525 1.2271-2.3298 2.912-2.3298 5.0537 0 2.089 0.76333 3.734 2.29 4.9353 1.5277 1.2012 3.6077 1.8013 6.24 1.8013 2.6324 0 4.7392-0.60012 6.3186-1.8013 1.5794-1.2012 2.3686-2.8463 2.3686-4.9363 0-2.1407-0.78921-3.8256-2.3686-5.0527-1.5794-1.2271-3.6863-1.8412-6.3186-1.8412zm0 38.075c3.2116 0 5.7524-0.71856 7.6214-2.1546 1.87-1.4361 2.8045-3.3559 2.8045-5.7583 0-2.4024-0.93551-4.3093-2.8045-5.7185-1.869-1.4102-4.4088-2.1158-7.6214-2.1158-3.1588 0-5.6608 0.70561-7.5039 2.1158-1.8422 1.4102-2.7637 3.3161-2.7637 5.7185 0 2.4552 0.92156 4.3879 2.7647 5.7971 1.8421 1.4102 4.3441 2.1158 7.5029 2.1158zm52.915 9.3192c-4.581 0-8.6614-1.1226-12.242-3.3688-3.5808-2.2462-6.3843-5.4976-8.4116-9.7531-2.0272-4.2575-3.0404-9.3371-3.0404-15.239 0-5.9016 1.0131-10.981 3.0404-15.237 2.0273-4.2575 4.8308-7.5089 8.4116-9.7541 3.5808-2.2462 7.6612-3.3688 12.242-3.3688 4.581 0 8.6614 1.1226 12.242 3.3688 3.5808 2.2452 6.3843 5.4966 8.4116 9.7531 2.0273 4.2565 3.0404 9.3361 3.0404 15.238 0 5.9016-1.0131 10.981-3.0404 15.238-2.0272 4.2565-4.8308 7.5079-8.4116 9.7541-3.5808 2.2462-7.6612 3.3688-12.242 3.3688zm0-10.733c3.3698 0 6.0161-1.4361 7.9378-4.3093 1.9218-2.8722 2.8822-7.3118 2.8822-13.319 0-6.0061-0.96039-10.446-2.8822-13.319-1.9218-2.8722-4.568-4.3093-7.9378-4.3093-3.317 0-5.9365 1.4371-7.8582 4.3093-1.9228 2.8732-2.8831 7.3128-2.8831 13.319 0 6.0071 0.96038 10.446 2.8831 13.319 1.9208 2.8732 4.5412 4.3093 7.8582 4.3093zm46.835 10.425a41.59 41.59 0 0 1-10.346-1.2928c-3.3698-0.86185-6.0549-1.9456-8.0563-3.2514l4.1073-8.7738c1.8959 1.2002 4.1859 2.1795 6.871 2.9369 2.6861 0.75736 5.3184 1.1365 7.899 1.1365 5.2119 0 7.8184-1.2798 7.8184-3.8386 0-1.2022-0.71058-2.0631-2.1318-2.5856-1.4222-0.52249-3.6076-0.96635-6.5555-1.3316-3.4753-0.52248-6.3455-1.1236-8.6086-1.8023-2.2651-0.67874-4.2267-1.881-5.8847-3.6037-1.659-1.7237-2.488-4.1789-2.488-7.3646 0-2.6642 0.77627-5.0268 2.3288-7.0899 1.5545-2.0631 3.8186-3.6694 6.7933-4.8188 2.9757-1.1485 6.4888-1.7227 10.544-1.7227 3.0016 0 5.9892 0.32643 8.9649 0.97929 2.9747 0.65287 5.4359 1.5525 7.3845 2.702l-4.1072 8.6962c-3.738-2.089-7.8194-3.1329-12.241-3.1329-2.6333 0-4.6078 0.36525-5.9245 1.0967-1.3167 0.73048-1.9745 1.672-1.9745 2.8204 0 1.3057 0.71058 2.2193 2.1327 2.7418 1.4212 0.52249 3.6853 1.0181 6.7924 1.4888 3.4753 0.57424 6.3186 1.1873 8.529 1.8412 2.2124 0.65286 4.1341 1.8412 5.7663 3.5639 1.6322 1.7237 2.4482 4.1262 2.4482 7.2084 0 2.6114-0.78921 4.9363-2.3686 6.9725-1.5804 2.0372-3.8833 3.6166-6.9108 4.7392-3.0284 1.1236-6.6222 1.6849-10.781 1.6849z" fill="#01ffff"/>
		<path d="m34.344 34.238-0.11445 249.42 115.72-0.27865v-106.82l34.156 35.768 38.698-35.979-1.4621 107.03h115.75v-249.14h-115.01l-37.906 37.246-36.11-37.245zm2.4622 2.4651h110.22l37.117 38.28 38.951-38.28h111.53v244.22l-110.79 0.26871 1.5157-110.57-41.145 38.247-36.72-38.458v110.51l-110.79 0.26771z" fill="#9aebff"/>
		<path d="m291.43 84.027c1.5764 0 3.7848 0.08957 5.4518 2.6045 0.833 1.2689 2.2293 2.5597 2.5906 4.3113 1.0818 5.4677-3.0185 10.89-6.1275 12.821-0.31548 0.19108-1.8242 0.62897-2.7488 0.93152-1.2948 0.42794-2.6124 1.3704-3.4912 1.6063-1.7456 0.45979-2.6015 1.672-3.323 2.0541-0.70959 0.37022-3.12 1.8521-3.8973 2.279-0.59713 0.31449-1.5764 1.7068-3.3449 2.2233-1.1942 0.35828-3.6833 1.0659-5.6658 2.8065-0.82304 0.71854-4.168 1.4032-5.1254 1.6162-0.36028 0.0895-4.6298 1.8859-5.0577 4.379-0.44983 2.6154-0.0796 3.3121-0.57424 7.061-0.30353 2.3358-0.1463 5.0856 0.0458 6.5346 0.1234 0.78622 0.55134 8.0831 0.52945 9.2854-0.0229 3.6146 0.22492 7.5995 0.11246 9.2057-0.0895 1.2241 0.0796 5.4438 0.0796 5.4438 0.30354 3.335 1.0251 6.9834 1.0918 7.6353 0.0597 0.70263-0.013 2.2144-0.10648 3.8515l-0.0836 1.4192c-0.10946 1.8909-0.20401 3.6922-0.11445 4.3839 0.0229 0.30354 0.55235 3.0095 0.43989 3.6494-0.29259 1.6839 0.20302 3.7161 0.1463 4.4785-0.0895 1.3366-0.1463 2.8632-0.19108 4.4914-0.0895 2.4134-0.16919 4.9064-0.39511 7.0839-0.013 0.10948-0.0199 0.35032-0.0239 0.66481v1.1067c0.01 1.2142 0.0359 2.5846 0.0359 2.5846-0.43889 3.8286-0.91261 7.7806-0.25876 11.744 0.0458 0.2896 0.0528 0.82005 0.0477 1.4003l-0.015 0.88275c-0.015 0.72652-0.0309 1.3814 0 1.5904 0.10151 0.59514 0.94545 3.6714 1.0698 4.3451 0.18013 1.0102 0.56329 5.6926 1.0698 6.7694 0.49562 1.0888 2.5119 5.8608 2.6921 6.4331 0.59713 1.8073 1.5097 6.1634 0.6867 8.3867-0.77627 2.0999-1.9476 7.0959-2.7707 8.3419-0.70959 1.0888-1.7794 1.7287-2.286 2.5149-0.48466 0.72949-1.4421 1.4032-2.2412 1.7177-2.4781 0.96536-6.871 1.6391-10.679 0.48268-1.5426-0.46079-3.8744-0.31449-6.4988-1.8979-2.1397-1.2908-2.8722-4.8268-3.1757-6.7247-0.14729-0.88674 0.11246-3.2564 0.0558-3.6266-0.0667-0.53841-0.87877-4.0406-0.87877-5.1642-0.01-0.5613 0.19207-2.9299-0.0667-4.4904-0.32643-2.0103-1.3067-5.2766-1.3067-5.2766l-0.0597-0.28761-0.1473-0.6668a116.03 116.03 0 0 0-0.81806-3.3688c-0.77627-2.1666-1.1594-4.2774-1.3853-6.0738-0.416-3.3001 0.40605-6.0509 1.1375-8.4872 0.41799-1.4032 0.8111-2.7169 0.98029-4.0416 0.11246-0.95441-0.63097-5.4787-0.48467-6.9944 0.0458-0.61704 0.55234-2.5826 0.57523-2.8404 0.19109-1.2798 0.23587-4.6934 0.24781-5.2209 0.01-0.6847 0.47273-3.5589 0.416-6.5336-0.0219-1.1674-0.1463-2.3806 0-3.6037 0.1473-1.3027 0.25875-4.6258 0.0109-6.1644-0.39411-2.3457-0.23587-4.4456-0.24781-4.5462-0.16919-2.4582-0.31449-5.0418-0.16919-7.2422 0.0229-0.34832-0.40505-4.0754-0.416-5.2318-0.0229-0.7295-0.0677-5.2985-0.11246-5.8379-0.98029-11.373-2.5239-13.551-3.1429-13.966-0.62002-0.40405-2.298-0.38116-3.2544 0.0677-0.73348 0.33737-2.6373 1.9874-4.2476 2.8513-1.5764 0.83101-4.5163 2.2233-5.5195 2.9647-1.1594 0.8758-3.0633 2.3457-6.7694 4.367-0.93451 0.50556-1.6441 1.3694-2.488 2.1328-1.2281 1.0778-3.526 3.3907-7.2432 5.2657-1.8252 0.90963-3.4474 1.9755-4.7532 3.2444-0.5414 0.53941-2.5348 3.8614-3.8186 5.1084-1.25 1.1903-2.0392 2.8632-2.2641 3.3798-0.65387 1.3913-1.3634 2.9518-2.7368 3.9739-2.1298 1.5824-6.7694 1.875-9.574 0.70661-1.7914-0.74044-5.3622-3.1319-6.9168-7.275-1.5655-4.1301-0.25875-9.4297 2.8384-12.865 2.0392-2.2572 5.2149-3.1668 8.3021-4.0306 1.9028-0.53941 3.7171-1.0549 5.1134-1.8302 0.6867-0.38117 2.8831-2.0203 3.3449-2.3238 0.69864-0.46078 3.1877-1.662 3.6723-1.9755 0.45083-0.30355 3.0752-2.5826 4.8328-3.5708 2.906-1.6162 5.2149-2.919 6.5784-3.7719 0 0 3.9978-2.2452 6.5883-4.6934 0.58619-0.5613 3.0752-1.4819 5.8011-3.0195 0.68669-0.39311 3.537-1.3475 4.2575-1.662 0.49561-0.23587 2.4781-1.6839 3.0643-1.9864 2.5567-1.3256 3.8405-2.908 3.12-6.8491-0.25876-1.3694-0.67675-2.7617-0.52946-4.4118 0.0448-0.40406 0.62997-2.8861 1.5764-4.5919 0.47372-0.87579 1.2172-0.8529 1.6332-1.662 0.41799-0.83001 1.881-1.5267 2.8503-1.7735 0.67575-0.65088 2.072-1.3475 3.7052-1.6282 3.5828-0.59514 8.1886 2.0203 8.8534 2.1556 1.2619 0.28065 3.4016 0.0895 4.5282-0.23587 0.22492-0.0448 1.6899-0.99919 2.2303-1.2012 0.72053-0.2687 3.0294-0.89768 3.5032-1.0659 0.70958-0.24781 3.9988-1.9656 4.8318-2.279 0.85589-0.32643 2.8384-0.68571 3.8186-0.90962 1.5655-1.1117 4.5053-2.0661 5.6319-3.0314 1.0908-0.95242 2.5129-3.0434 3.124-3.9182l0.23287-0.32544c0.66381-0.87579 3.9082-3.0533 4.37-3.4016 1.0589-0.831 3.4803-2.5259 5.1254-2.9976 0.78821-0.22492 3.0971 0.24681 4.5053 0.23587zm102.62-13.416c3.1319 2.0999 5.7782 6.3654 5.9136 9.4983 0.13534 3.0085-0.0895 4.2326-0.72054 7.3417-0.32742 1.5267-1.1833 5.2995-2.3995 7.5109-0.52945 0.9773-2.6353 4.0754-4.2356 5.2647-1.5535 1.1465-3.8067 2.279-4.7531 2.6174-0.87878 0.3135-5.1811 2.3119-6.3415 2.9299-2.083 1.1226-3.1986 2.3796-4.2914 3.5808-0.5633 0.62897-1.1146 1.2122-1.7794 1.7964-0.25876 0.22491-4.0774 1.7854-5.4637 5.0069-0.84394 1.9536-4.6506 6.0071-5.2926 7.1745-0.94645 1.6839-2.3437 4.2217-3.74 5.5802-0.41699 0.40406-0.86782 1.0211-1.3406 1.7396a55.484 55.484 0 0 0-1.3734 2.1785c-0.13634 0.21298-0.2488 0.39212-0.38415 0.60609-0.90067 1.4819-1.9148 3.1658-2.5 3.7828-1.453 1.5605-2.298 3.5818-2.9856 5.2318-0.2697 0.63993-2.6572 4.0416-3.5589 6.4112-0.39411 1.0659-2.4661 4.5242-2.692 5.0517-0.43889 1.1116-3.1081 3.6932-3.3678 4.1998-0.38316 0.77328-0.73248 1.8292-1.0928 2.9289-0.31548 0.9992-1.1375 2.9638-1.4192 3.7281-0.34832 0.57225-0.79915 1.3017-1.2729 2.077-0.0209 0.0328-0.0318 0.0558-0.0558 0.0776a220.56 220.56 0 0 1-3.3001 5.2647 23.073 23.073 0 0 0-1.0708 1.5167c-0.52946 0.77527-4.4038 7.3646-5.2936 8.937-0.3941 0.71856-0.87878 1.4371-1.3734 2.1895-1.1843 1.7615-2.4005 3.5698-2.9857 5.8041-0.3722 1.3923-1.4421 3.6932-1.5207 3.8953-1.5207 3.7271-2.1069 7.7358-2.2641 8.8694-0.23587 1.8521-0.18114 3.7271-0.10053 5.5234 0.0787 1.9427 0.14631 3.7838-0.16819 5.412-0.58518 3.0195-1.7685 5.9952-3.334 8.3747-0.417 0.65186-1.8919 2.6612-3.6375 4.2774-1.2739 1.1793-3.3569 1.662-7.1755 1.6958-5.1701 0.0219-7.3895-1.8869-10.137-5.9166-0.45083-0.65186-1.3286-2.3467-2.3985-4.6258-1.3744-2.908-2.501-5.5682-3.4813-9.0714-0.30353-1.0549-0.73247-2.2233-1.1266-3.3569-0.44984-1.2341-1.4192-4.7153-1.4978-5.2876-0.0895-0.57325-1.3067-4.6258-1.3853-5.0189-0.47273-2.4811-1.1266-4.783-1.7685-7.0063-0.65286-2.289-1.2729-4.4566-1.656-6.6908-0.37121-2.1437-1.5197-5.613-2.3646-8.1279 0 0-1.0629-3.3628-1.7426-5.614l-0.22193-0.74144a52.158 52.158 0 0 1-0.17615-0.60508c-0.25477-0.89371-0.71954-2.3527-1.2092-3.8545l-0.32842-1.0022c-0.76432-2.3258-1.4918-4.4735-1.4918-4.4735-0.86683-2.3348-2.917-7.8134-3.0633-8.6892-1.2172-7.1178-1.2052-12.855 0.0786-15.358 0.57424-1.1445 2.5458-2.2343 4.1341-3.1101 0.52946-0.30254 3.1419-1.9874 3.7052-2.1327 1.6222-0.4379 4.3372-0.57324 6.6232-0.33737 0.30453 0.0339 3.109 0.0568 4.1232 0.77526 3.7729 2.6154 4.0436 5.9952 4.5382 12.137 0 0 0.22293 2.2462 0.47074 4.6108l0.10748 1.0141c0.14431 1.3455 0.28662 2.6304 0.39212 3.4574 0.22491 1.8302 0.47273 3.7271 0.66381 5.6031 0.1244 1.2898 0.19208 2.705 0.2488 4.0635 0.0895 2.2243 0.79119 6.2778 0.92356 7.0292l0.0219 0.12241c0.84493 2.8175 1.656 5.5006 4.9671 6.8929 0.90167 0.37021 1.9267 0.30353 2.8951-0.23587 2.2641-1.2012 4.3252-4.8606 5.1134-9.0823 0.0458-0.23586 0.38316-0.71854 0.70959-1.1903 0.78921-1.0888 1.8591-2.5935 2.4104-5.0627 0.17018-0.61802 1.6899-2.707 2.5905-3.952 0.92456-1.2689 1.7804-2.4582 2.287-3.3569 0.0727-0.12938 0.80513-1.2788 1.6182-2.5487l0.54737-0.85589 1.7655-2.7478s0.45979-1.0201 0.97232-2.1258l0.34535-0.73945a53.045 53.045 0 0 1 0.75437-1.5585c0.62002-1.2241 1.1604-2.6831 1.2171-2.9299 0.30355-1.2579 0.92357-3.8963 2.1626-5.3552 1.6899-1.9875 3.525-6.456 3.6156-6.647 0.40505-0.76333 1.5097-2.6602 2.5338-4.3332 0.0567-0.0677 0.15723-0.21298 0.22591-0.30353v-0.01c0.0219-0.0229 0.0558-0.0677 0.0777-0.0905 0.45083-0.59514 1.036-1.3814 1.4868-1.9198l3.2444-3.8286c0.66481-0.71856 1.3286-1.459 1.9258-2.2681 0.63096-0.83 1.9705-2.7946 3.1548-4.5352 0.71954-1.0888 2.8035-3.7948 3.4454-4.4685 0.48068-0.49562 3.3419-4.2963 5-6.5047l0.55932-0.74442 0.53443-0.71058c0.1871-0.24184 0.99322-1.0788 1.8581-1.9616l0.65087-0.66182c0.32245-0.32743 0.63396-0.64092 0.90465-0.91261l0.0179-0.02289c1.6222-1.6282 2.2193-2.2233 2.4323-2.504 0.94645-1.2679 1.9705-2.503 2.9628-3.7042 0.99124-1.2012 2.0044-2.4253 2.9737-3.7161 0.42794-0.53941 1.5207-2.493 1.8133-2.8742 1.0251-1.3475 6.037-5.9613 6.1833-6.0847 2.3318-1.9208 4.9114-3.7948 8.6962-4.1202 4.1451-0.35927 8.5598 0.42595 10.745 1.9078z" fill="#80c1ff"/>
		<path d="m383.2 67.474c-4.1401 0.35629-7.0014 2.4423-9.373 4.3959l-6e-3 0.0059-6e-3 3e-3c-0.13833 0.11644-0.14928 0.13336-0.30553 0.27568-0.15525 0.14331-0.36822 0.33937-0.623 0.57722-0.50955 0.47372-1.1843 1.1087-1.8909 1.7814-1.4092 1.3485-2.8622 2.7428-3.5499 3.6475-0.31349 0.40804-0.57325 0.89171-0.93252 1.4888-0.36027 0.59912-0.78622 1.2639-0.86584 1.3644l-0.01 0.01393-0.012 0.01394c-0.94544 1.2599-1.9446 2.4681-2.9369 3.6704-0.99024 1.1992-2.0282 2.4482-3.0006 3.752-0.0567 0.07364-0.70162 0.7484-2.3178 2.3706l-0.0487 0.04976-0.0179 0.01991-0.85987 0.87081-0.65285 0.66381c-0.43491 0.44486-0.85589 0.87778-1.1953 1.2361-0.34036 0.35728-0.5613 0.58121-0.75636 0.83399l-8e-3 0.01196c-0.10748 0.14231-0.29558 0.38813-0.53941 0.71356l-0.5593 0.74443a694.43 694.43 0 0 1-2.9359 3.8873c-0.48865 0.64191-0.94048 1.2281-1.2958 1.6809-0.3553 0.45282-0.66978 0.82106-0.66779 0.81907l-2e-3 4e-3 -4e-3 4e-3c-0.86086 0.90265-2.7766 3.4206-3.5828 4.6377-1.1793 1.7357-2.5358 3.7181-3.1071 4.4715l-6e-3 5e-3 -4e-3 8e-3c-0.55135 0.74641-1.1843 1.453-1.8392 2.1616l-0.0199 0.0199-3.2643 3.8515-9.1e-4 4e-3c-0.48765 0.58419-1.0689 1.3634-1.5127 1.9506l-0.34037 0.35031v0.0975l-0.0428 0.0727c-1.036 1.6899-2.1288 3.5639-2.5716 4.3988l-0.014 0.0258-0.012 0.0249c-0.0627 0.13335-0.0696 0.15724-0.13137 0.29856a56.459 56.459 0 0 1-1.0689 2.3358c-0.66282 1.3515-1.5476 2.9269-2.2392 3.742h-2e-3c-1.5824 1.863-2.1198 4.6158-2.4214 5.8618l-2e-3 8e-3v0.01c0.0219-0.0985-0.0249 0.0757-0.0866 0.2488a22.73 22.73 0 0 1-1.03 2.3985l6e-3 -8e-3c-0.20899 0.40704-0.48665 0.98227-0.77627 1.5983l-9.1e-4 2e-3 -0.34633 0.74243v2e-3c-0.49363 1.0649-0.89868 1.9626-0.9355 2.0442l-1.7207 2.6821-0.54935 0.85588c-0.40705 0.63595-0.79319 1.242-1.0878 1.7058-0.29558 0.46476-0.42993 0.66081-0.56528 0.90066-0.44386 0.78622-1.2898 1.9735-2.2094 3.2384l-3e-3 2e-3c-0.44884 0.62201-1.0589 1.463-1.5894 2.2422-0.26473 0.38814-0.50956 0.76134-0.71059 1.0987-0.20203 0.33639-0.35828 0.57125-0.4787 1.0082l-0.01 0.0268-6e-3 0.0298c-0.50158 2.2422-1.4232 3.529-2.2074 4.6098l-6e-3 0.01-8e-3 0.01c-0.16222 0.23487-0.33638 0.48468-0.49164 0.73348-0.15624 0.24881-0.31449 0.40505-0.415 0.92555v5e-3l-2e-3 4e-3c-0.74044 3.9659-2.8573 7.3596-4.4785 8.2205l-0.01 3e-3 -0.013 8e-3c-0.68272 0.38017-1.2759 0.39708-1.8232 0.17217-1.4232-0.60012-2.2114-1.3913-2.8244-2.4084-0.60807-1.0082-1.0002-2.2731-1.4182-3.6654l-4e-3 -0.014v-4e-3c-0.13037-0.74243-0.82403-4.8368-0.90664-6.864-0.0567-1.3634-0.1244-2.7966-0.25278-4.1311v-6e-3c-0.19407-1.8989-0.44387-3.8057-0.66779-5.6289v-4e-3c-0.1025-0.80613-0.24581-2.09-0.38913-3.4315v-2e-3l-0.10748-1.0131c-0.24681-2.3487-0.46476-4.5601-0.46776-4.581l-2e-3 -0.0209c-0.24681-3.0593-0.42596-5.4986-1.0878-7.6333-0.66381-2.1417-1.8959-3.951-3.9739-5.3931-0.9365-0.65983-1.9576-0.7504-2.8901-0.85787-0.46775-0.0538-0.90166-0.0846-1.237-0.10351-0.33539-0.0189-0.67775-0.0398-0.5633-0.0278h-6e-3l-4e-3 -2e-3c-2.4313-0.24979-5.1721-0.13734-7.066 0.37421-0.46776 0.12141-0.6658 0.26671-1.0211 0.46277-0.35828 0.19706-0.76234 0.4379-1.1644 0.67974-0.80513 0.48665-1.6471 1.0131-1.8163 1.1106-0.7902 0.43591-1.7018 0.9375-2.5328 1.5088-0.83399 0.57325-1.6162 1.1793-2.087 2.1148-0.81409 1.5904-1.1007 3.7679-1.1127 6.4998-0.0109 2.7339 0.30056 6.0061 0.9166 9.6178 0.0796 0.47372 0.23387 0.90067 0.46576 1.5894 0.23089 0.6877 0.53044 1.5346 0.8519 2.4253 0.64291 1.7804 1.3734 3.736 1.8063 4.9014 0.01 0.0319 0.71954 2.1268 1.4769 4.4287l0.32642 1.0002a130.74 130.74 0 0 1 1.3764 4.4267v2e-3l0.22193 0.74542v2e-3a574.22 574.22 0 0 0 1.7476 5.6279l4e-3 0.01 4e-3 0.012c0.84294 2.5099 1.9805 6.0012 2.3178 7.9448 0.39809 2.3208 1.032 4.5292 1.6849 6.8192l2e-3 2e-3v2e-3c0.64092 2.2193 1.2808 4.4805 1.7416 6.8949l9.2e-4 6e-3v6e-3c0.0597 0.29658 0.13435 0.51752 0.26273 0.96536l0.45084 1.5724c0.16222 0.56627 0.32444 1.1365 0.44984 1.5933 0.12539 0.4578 0.22392 0.89371 0.21496 0.83598l-4e-3 -0.0229c0.0428 0.31449 0.11843 0.59015 0.23088 1.03 0.11247 0.43989 0.25578 0.97532 0.41203 1.5306 0.3125 1.1117 0.66281 2.282 0.91858 2.9827 0.39709 1.1405 0.81408 2.289 1.0987 3.2743l-2e-3 -0.01c1.0022 3.5828 2.1656 6.3316 3.5529 9.2664 1.0778 2.296 1.9028 3.9361 2.496 4.794 0 9.2e-4 0 3e-3 2e-3 4e-3l2e-3 2e-3c1.4082 2.0651 2.7468 3.6992 4.5143 4.8168 1.7685 1.1206 3.9052 1.6421 6.6431 1.6312h6e-3c3.9182-0.0349 6.3594-0.50259 8.0015-2.0233 1.863-1.7247 3.324-3.7151 3.8346-4.5103 1.666-2.5348 2.8941-5.6389 3.5101-8.8126 0.35331-1.8302 0.26771-3.75 0.18909-5.6946v-6e-3c-0.0796-1.7824-0.12738-3.5848 0.0926-5.3085v-4e-3c0.15525-1.1226 0.73944-5.0238 2.1825-8.5598l4e-3 -0.01 4e-3 -8e-3c-0.0359 0.0926 0.0786-0.18014 0.19705-0.44984 0.11943-0.2697 0.27567-0.62698 0.44187-1.0251 0.3334-0.79517 0.70462-1.7347 0.92257-2.5517l2e-3 -2e-3v-4e-3c0.52149-1.9864 1.6322-3.6654 2.8165-5.4289l2e-3 -4e-3 4e-3 -4e-3c0.48765-0.74144 0.98626-1.4789 1.4172-2.2611l8e-3 -0.014c0.43392-0.76631 1.6222-2.8025 2.7637-4.7332 1.1435-1.9377 2.3318-3.9012 2.4681-4.1003l4e-3 -8e-3 6e-3 -8e-3c0.32146-0.48666 0.67974-1.0141 1.0102-1.4331l0.0359-0.0448 0.0309-0.0498c0.55633-0.85887 1.4032-2.1855 2.2412-3.541l2e-3 -4e-3c0.37619-0.60012 0.72651-1.1754 1.0748-1.7466l-0.209 0.25578c0.18909-0.17715 0.26075-0.32843 0.24681-0.30653l0.01-0.014 8e-3 -0.014c0.47074-0.77129 0.92158-1.4998 1.2739-2.077l0.0627-0.1035 0.0408-0.11147c0.2488-0.67475 1.0718-2.6254 1.4351-3.7709l4e-3 -0.013c0.3553-1.0848 0.69964-2.0979 1.0141-2.7388l2e-3 -2e-3c-0.12939 0.2518 0.11543-0.13933 0.39708-0.45481 0.28165-0.31847 0.65685-0.7265 1.041-1.1594 0.77129-0.86583 1.5625-1.6461 1.9765-2.693l-0.012 0.0319c-0.0199 0.0477 0.17417-0.33539 0.40207-0.74541 0.2289-0.40805 0.52149-0.92357 0.82106-1.46 0.60111-1.0718 1.2012-2.1178 1.4918-2.904l-4e-3 0.0119c0.39112-1.029 1.1863-2.4482 1.9168-3.6524 0.36525-0.60211 0.71457-1.1564 0.99522-1.6083s0.46078-0.70958 0.62898-1.1087l2e-3 -4e-3 2e-3 -2e-3c0.6857-1.6451 1.4908-3.5111 2.7398-4.8566l8e-3 -0.01c0.86584-0.9156 1.7556-2.508 2.6522-3.9828l-0.012 0.0209c0.13833-0.21596 0.2498-0.39808 0.38316-0.60708l0.012-0.0199c0.48168-0.79319 0.92356-1.5078 1.3435-2.1298l7e-3 -0.011c0.45381-0.68969 0.88375-1.258 1.1694-1.5346h2e-3c1.652-1.6063 3.0125-4.1839 3.953-5.8588l4e-3 -5e-3 2e-3 -4e-3c0.0577-0.10549 0.41301-0.60211 0.86285-1.1634s1.0121-1.239 1.5864-1.9486c1.1495-1.4182 2.3288-2.8563 2.8961-4.168l2e-3 -2e-3c0.55931-1.2998 1.6789-2.3616 2.7329-3.1081 0.52746-0.3732 1.03-0.66679 1.4232-0.88076 0.19506-0.10848 0.36126-0.19507 0.50159-0.26971 0.14033-0.0757 0.14928-0.0169 0.48069-0.30553l2e-3 -2e-3 4e-3 -2e-3a21.76 21.76 0 0 0 1.878-1.8939l6e-3 -6e-3c1.0977-1.2062 2.0541-2.293 3.958-3.318 0.51154-0.27169 1.8909-0.9355 3.2096-1.5466 1.3196-0.61107 2.699-1.2152 2.9608-1.3087 1.1873-0.42297 3.3718-1.5326 5.0716-2.7856h2e-3l2e-3 -2e-3c2.0034-1.4908 3.9152-4.4387 4.578-5.6618 1.3853-2.5159 2.1944-6.2947 2.5259-7.8463l2e-3 -0.0059v-0.0059c0.63295-3.115 0.88275-4.5581 0.74441-7.6423-0.11942-2.7617-1.66-5.8121-3.8415-8.1787l0.78125 0.0079-3.3837-2.295c-2.6552-1.8013-7.1695-2.494-11.544-2.1148zm0.21097 2.4572h2e-3c3.9082-0.33837 8.2095 0.53443 9.9302 1.6939l0.014 0.0099c2.7567 1.8481 5.2607 6.039 5.3682 8.527v2e-3c0.13236 2.9269-0.0676 3.9381-0.69566 7.0282-0.32146 1.5028-1.2241 5.2677-2.2731 7.1745l-4e-3 0.0082c-0.39709 0.73247-2.694 3.9749-3.8873 4.8626-1.4092 1.037-3.7261 2.1944-4.4307 2.4452h-2e-3c-0.61803 0.22094-1.8272 0.77228-3.1678 1.3933-1.3406 0.62002-2.6871 1.2619-3.338 1.6083l-2e-3 2e-3 -4e-3 2e-3c-2.2601 1.2181-3.533 2.6433-4.6178 3.8366l-4e-3 4e-3 -2e-3 4e-3a19.373 19.373 0 0 1-1.67 1.6869c0.26871-0.23189 0.0995-0.0747-0.0249-8e-3 -0.1234 0.0657-0.30851 0.16221-0.52746 0.28263-0.43989 0.24184-1.028 0.58221-1.662 1.03-1.2659 0.89569-2.7468 2.2253-3.5738 4.1471-0.27865 0.6439-1.4232 2.2054-2.5468 3.5927-0.56328 0.69366-1.1246 1.3694-1.5963 1.9586-0.47173 0.58718-0.83598 1.037-1.0987 1.5157-0.95142 1.6938-2.3786 4.1809-3.5181 5.2886h2e-3c-0.54537 0.52945-1.0151 1.1923-1.5048 1.9357l-6e-3 0.01-2e-3 2e-3c-0.4578 0.67774-0.91261 1.4182-1.3973 2.2163l0.012-0.0219c-0.13734 0.21696-0.2498 0.39809-0.38316 0.60708l-0.012 0.0199c-0.90365 1.4858-2.0372 3.2544-2.3417 3.5758l-8e-3 8e-3c-1.6521 1.7745-2.5328 3.947-3.2205 5.5991 0.0299-0.0717-0.18311 0.32842-0.45382 0.76432-0.27169 0.43889-0.62698 1.0032-1.0062 1.6282-0.75636 1.248-1.6053 2.714-2.1148 4.0525l-4e-3 0.0119c-0.1035 0.28066-0.73845 1.4978-1.3286 2.5527-0.29557 0.52746-0.58717 1.041-0.82303 1.462-0.23587 0.42098-0.38416 0.66878-0.51752 0.98128l-0.012 0.0309c-0.0258 0.0657-0.78821 1.1296-1.5267 1.9586-0.36923 0.415-0.73944 0.81806-1.044 1.1604-0.30454 0.34335-0.48567 0.4578-0.74841 0.96934l-8e-3 0.016c-0.44785 0.90664-0.79816 1.9914-1.1594 3.0951l-4e-3 0.011c-0.26075 0.82604-1.0201 2.6602-1.3535 3.5509-0.32643 0.53443-0.73546 1.1943-1.1694 1.9038l-0.0159 0.0159-0.0876 0.14232c-0.34933 0.57324-0.69665 1.1405-1.0629 1.7277v2e-3l-2e-3 4e-3a220.34 220.34 0 0 1-2.2163 3.5042 24.975 24.975 0 0 0-1.0539 1.4898c0 2e-3 -7e-3 0.01-8e-3 0.011 0 9.1e-4 0 3e-3 -2e-3 4e-3 -0.3961 0.58221-1.4023 2.285-2.5458 4.2217a408.86 408.86 0 0 0-2.7936 4.789l-4e-3 6e-3 -4e-3 8e-3c-0.35529 0.64888-0.82305 1.3455-1.3236 2.1049-1.1803 1.7586-2.498 3.6903-3.1479 6.1674-0.15325 0.57524-0.50059 1.4799-0.81507 2.2323-0.15725 0.3762-0.30653 0.71855-0.42198 0.98129-0.11146 0.25278-0.15923 0.34832-0.23088 0.52946 0 2e-3 0 4e-3 -2e-3 6e-3 -1.5923 3.9092-2.1825 8.0065-2.3427 9.16v8e-3l-2e-3 6e-3c-0.25279 1.9805-0.18909 3.9251-0.10748 5.7344l-2e-3 -4e-3c0.0776 1.9397 0.12838 3.7012-0.1473 5.1264-0.55533 2.8642-1.6889 5.7086-3.1518 7.9329l-8e-3 0.012c-0.32544 0.50856-1.8113 2.5318-3.4375 4.0376-0.90366 0.83598-2.6294 1.3346-6.3445 1.3684-2.4323 0.01-3.9908-0.41301-5.3125-1.249-1.3197-0.83598-2.4632-2.1676-3.8017-4.1302l-3e-3 -8e-3c-0.30852-0.44387-1.2371-2.1905-2.297-4.4486h-2e-3v-9.2e-4c-1.3615-2.8801-2.4502-5.4538-3.4076-8.8773v-4e-3l-2e-3 -6e-3c-0.32245-1.1186-0.75835-2.299-1.1475-3.4196l-2e-3 -8e-3 -4e-3 -0.01c-0.19507-0.53444-0.55633-1.7217-0.85987-2.8035a66.029 66.029 0 0 1-0.39709-1.4729c-0.10549-0.41301-0.18113-0.78423-0.17814-0.75636l-4e-3 -0.0239c-0.0538-0.34334-0.14033-0.62996-0.27169-1.1057-0.13138-0.47571-0.2936-1.0519-0.45781-1.6202-0.16221-0.56926-0.32543-1.1296-0.45083-1.5694-0.1254-0.44088-0.23288-0.87479-0.21297-0.77428-0.48567-2.5418-1.1505-4.8805-1.7914-7.1018l-3e-3 -4e-3c-0.65285-2.289-1.256-4.4118-1.6242-6.5575v-2e-3c-0.40505-2.3388-1.5595-5.7722-2.4054-8.2902l-4e-3 -0.01c-4e-3 -0.0119-1.0599-3.3539-1.7337-5.5862v-2e-3l-0.22094-0.73447v-4e-3a50.739 50.739 0 0 1-0.16918-0.58817l-3e-3 -2e-3c-0.26572-0.93153-0.7295-2.3915-1.2211-3.8992l-0.32842-1.0022-2e-3 -2e-3c-0.76632-2.3328-1.4948-4.4834-1.4948-4.4834l-6e-3 -0.0179-6e-3 -0.0159c-0.43491-1.1694-1.1624-3.12-1.7984-4.8815-0.31846-0.88076-0.61305-1.7148-0.83399-2.3726-0.22193-0.65784-0.37818-1.247-0.3722-1.2102v-4e-3c-0.59813-3.5032-0.89172-6.658-0.88077-9.1978 0.01-2.5378 0.3742-4.4775 0.84195-5.3901l2e-3 -6e-3 2e-3 -4e-3c0.1045-0.207 0.59415-0.71854 1.2838-1.1942 0.69068-0.47472 1.5496-0.95143 2.3437-1.3893l0.01-4e-3 8e-3 -6e-3c0.36027-0.20601 1.0898-0.67078 1.865-1.1395 0.38814-0.23388 0.77329-0.46178 1.0808-0.63097 0.30652-0.16918 0.64988-0.28861 0.4578-0.23885l0.011-4e-3c1.3475-0.36326 4.0276-0.5195 6.1664-0.30056 0.26672 0.0298 0.38813 0.0219 0.69665 0.0398 0.30653 0.0169 0.69565 0.0438 1.0937 0.0895 0.79617 0.0916 1.6809 0.37321 1.7546 0.42595l6e-3 4e-3 4e-3 4e-3c1.6938 1.1744 2.485 2.3606 3.0235 4.0983 0.53941 1.7376 0.74144 4.0525 0.98924 7.1238l2e-3 0.01v0.012s0.22293 2.2492 0.47074 4.6178l0.10948 1.0161c0.1443 1.3485 0.28463 2.6353 0.3931 3.4832 0.22493 1.8312 0.47174 3.7171 0.66083 5.5632 0.11942 1.249 0.18809 2.6443 0.24382 3.9978 0.0995 2.4214 0.80712 6.4291 0.94248 7.1934l0.0328 0.19407 0.0219 0.0686c0.42197 1.4092 0.8519 2.8861 1.6819 4.2625 0.83099 1.3764 2.1039 2.6204 3.9878 3.4116l6e-3 2e-3 4e-3 2e-3c1.25 0.51453 2.702 0.39809 3.953-0.29458 2.8981-1.5456 4.8984-5.4637 5.7344-9.9302-0.0548 0.28463-0.0219 0.0826 0.0846-0.0866 0.1025-0.16321 0.25577-0.38415 0.41401-0.61305l0.014-0.0219c0.79418-1.0967 2.0014-2.8115 2.6015-5.4956l-0.0159 0.0568c-0.0349 0.12739 0.0597-0.12937 0.21895-0.39709 0.15923-0.26772 0.38416-0.60907 0.63296-0.97531 0.49761-0.73049 1.0967-1.5565 1.5476-2.1805l2e-3 -2e-3c0.92555-1.2719 1.7914-2.4661 2.3616-3.4753-0.0627 0.11047 0.20601-0.33141 0.49761-0.79119 0.29259-0.45979 0.67674-1.0629 1.0828-1.6968l2e-3 -2e-3 0.54737-0.85389 1.7625-2.7458 0.0517-0.0786 0.0368-0.0816s0.4578-1.0151 0.96536-2.1098l2e-3 -5e-3 0.34235-0.73248 2e-3 -4e-3c0.28264-0.6031 0.55532-1.1724 0.73248-1.5147l4e-3 -8e-3c0.33339-0.65884 0.63395-1.3565 0.86384-1.9307 0.11545-0.28762 0.21298-0.5424 0.28762-0.7504 0.0727-0.20302 0.11544-0.30752 0.16421-0.51651l4e-3 -0.0159c0.30852-1.2719 1.0062-3.7788 1.8989-4.8308 0.99821-1.1734 1.876-2.8254 2.5766-4.2526a52.596 52.596 0 0 0 1.1196-2.4452c0.0567-0.13136 0.10251-0.22989 0.0856-0.19705 0.37221-0.69864 1.461-2.5696 2.4612-4.2038l0.17615-0.23687 0.0298-0.0398 3e-3 -3e-3 0.0448-0.0597c0.45381-0.59912 1.035-1.3774 1.444-1.868l6e-3 -6e-3 3.2384-3.8206-0.0349 0.0398c0.67277-0.7275 1.3684-1.5018 2.0103-2.3716 0.69068-0.90863 2.0034-2.8394 3.1847-4.577l8e-3 -0.0119c0.63495-0.95939 2.8762-3.8405 3.3041-4.2914l7e-3 -6e-3c0.23985-0.2488 0.46277-0.53941 0.82802-1.0052 0.36823-0.46775 0.82404-1.0629 1.3177-1.7098 0.98625-1.2938 2.1168-2.7966 2.9468-3.9012l0.55932-0.74443 0.52348-0.69665c-9e-3 0.01196 0.26871-0.30155 0.59415-0.6439 0.32543-0.34136 0.73944-0.77029 1.1684-1.2082l2e-3 -2e-3 0.64688-0.65883 2e-3 -2e-3c0.32045-0.32444 0.63097-0.63594 0.89968-0.90565l0.0487-0.04976 0.0199-0.02488c1.5466-1.5515 2.1198-2.0919 2.488-2.5746l5e-3 -0.0059 4e-3 -3e-3c0.92058-1.2341 1.9307-2.4562 2.924-3.6594 0.98327-1.1913 2.0034-2.4214 2.9886-3.7321l2e-3 -2e-3c0.34733-0.4379 0.67974-1.0191 1.045-1.6262 0.36624-0.60808 0.79916-1.2908 0.77826-1.2629l4e-3 -4e-3c0.33638-0.44287 1.9019-2.0302 3.2912-3.3579a190.16 190.16 0 0 1 2.4801-2.3238c0.14331-0.13137 0.28563-0.25876 0.21497-0.19904l4e-3 -4e-3a0.1244 0.1244 0 0 1 8e-3 -0.0059c2.287-1.882 4.582-3.538 8.0055-3.8316zm-94.338 12.668c-0.86983-0.08957-1.5665-0.25677-2.4841 4e-3h-2e-3c-2.089 0.59912-4.4098 2.3218-5.5463 3.2136-0.1244 0.09256-1.1127 0.7703-2.078 1.4769-0.97332 0.71357-1.8959 1.3346-2.5149 2.1497l-0.01 0.01394-0.24682 0.34434-4e-3 0.0059c-0.62301 0.89271-2.0999 2.9727-2.917 3.6903-0.31448 0.26871-1.3008 0.78224-2.3676 1.2779-0.96039 0.44685-1.9685 0.93849-2.8553 1.5147-0.9355 0.207-2.7309 0.4996-3.8614 0.93053-0.61007 0.22889-1.5545 0.71258-2.5677 1.2112a69.673 69.673 0 0 1-2.2317 1.055l-4e-3 0.0027h-4e-3c-0.0965 0.03386-0.86086 0.26174-1.5914 0.47472-0.72949 0.21297-1.46 0.42196-1.9307 0.59713-0.52448 0.19705-0.95741 0.47969-1.4232 0.75138-0.23189 0.13535-0.44984 0.26373-0.60709 0.35131a4.3153 4.3153 0 0 1-0.13534 0.0726c-0.86086 0.24283-3.0414 0.40406-3.8933 0.21497l-0.01-2e-3 -0.0109-4e-3c0.16122 0.0329-0.012-7e-3 -0.19009-0.0816-0.17815-0.0757-0.42595-0.18611-0.72154-0.31548a33.098 33.098 0 0 0-2.2552-0.90565c-1.7725-0.62897-3.9709-1.2201-6.1345-0.86086l-4e-3 0.0018h-2e-3c-1.6869 0.28961-3.0493 0.92556-4.0227 1.7376a7.7368 7.7368 0 0 0-1.7197 0.70361c-0.65087 0.37321-1.3017 0.81309-1.7078 1.6222l6e-3 -0.012c-0.0696 0.13436-0.0965 0.14729-0.39808 0.35529-0.30155 0.209-0.85091 0.60709-1.2182 1.2808-0.54239 0.97929-0.94047 2.082-1.2251 3.0155-0.28663 0.93551-0.43989 1.5217-0.49761 2.0282l-9.2e-4 0.0159-2e-3 0.014c-0.16919 1.9128 0.30254 3.4624 0.54538 4.7432 0.33141 1.8143 0.17416 2.8732-0.21099 3.6116-0.38614 0.73845-1.0888 1.3127-2.2641 1.9208v-2e-3c-0.4996 0.25876-1.0619 0.66679-1.6919 1.0967-0.624 0.42496-1.3654 0.88475-1.3216 0.86584-0.24681 0.10648-1.1634 0.43789-2.0501 0.76433-0.89669 0.33041-1.6939 0.60011-2.3019 0.94743-1.3127 0.74045-2.5836 1.3406-3.6216 1.8332-1.035 0.49264-1.7357 0.71457-2.4134 1.3605-2.4044 2.2711-6.3485 4.5143-6.3485 4.5143l-0.0249 0.014-0.0239 0.0159c-1.3097 0.82006-3.6206 2.1258-6.5236 3.741l-2e-3 2e-3h-4e-3c-1.0032 0.56329-2.1118 1.4023-3.0623 2.1477-0.47472 0.37222-0.90565 0.72054-1.241 0.99024-0.33042 0.26672-0.61306 0.48368-0.60211 0.47771-0.0418 0.0258-0.87181 0.47074-1.6421 0.86782-0.77328 0.39809-1.5306 0.77826-2.0302 1.1077-0.3334 0.21895-0.94048 0.66879-1.6262 1.1594-0.6867 0.49065-1.463 1.0191-1.6391 1.1176-1.2042 0.66679-2.9498 1.1813-4.8507 1.7197-3.0901 0.86584-6.5266 1.7854-8.8813 4.3919-3.4036 3.7739-4.8467 9.4546-3.0782 14.124 1.7177 4.578 5.4787 7.1038 7.6005 7.9816 1.658 0.68868 3.6624 0.90366 5.5981 0.76731 1.9367-0.13535 3.8027-0.59713 5.1831-1.6232 1.6929-1.26 2.4681-3.0583 3.117-4.4407l8e-3 -0.0159 6e-3 -0.016c0.19307-0.44386 0.96338-2.0074 1.9835-2.9777l6e-3 -4e-3 4e-3 -6e-3c0.80612-0.78323 1.6073-1.9367 2.3437-3.0046 0.36823-0.53344 0.71059-1.04 0.98527-1.4341 0.2707-0.39013 0.53344-0.70859 0.49561-0.67277 1.1883-1.1515 2.7-2.1546 4.4387-3.0215l4e-3 -4e-3c3.8983-1.9666 6.3574-4.4347 7.5009-5.4389l8e-3 -6e-3 6e-3 -6e-3c0.93351-0.84295 1.6023-1.6142 2.2492-1.9636h2e-3l2e-3 -2e-3c3.7649-2.0531 5.7643-3.5907 6.9128-4.4586 0.33439-0.24681 1.3316-0.80612 2.3746-1.3425 1.043-0.53742 2.1696-1.0918 2.9856-1.5227l9e-3 -4e-3c0.9156-0.49063 1.8212-1.1475 2.5975-1.7158s1.5406-1.0838 1.5804-1.1027l8e-3 -4e-3c0.23587-0.10948 0.77726-0.22692 1.254-0.23587 0.47074-0.01 0.90963 0.16222 0.79617 0.0856-0.11942-0.0796 0.38814 0.30155 0.9355 2.1855 0.54737 1.8909 1.1744 5.2169 1.66 10.855 9.1e-4 0.014 0.0418 1.461 0.0607 2.7597 0.0199 1.2878 0.0359 2.5527 0.0497 2.9836 6e-3 0.71755 0.11943 1.9009 0.22592 3.0235 0.0528 0.5623 0.10449 1.0967 0.14132 1.5048 0.0179 0.20502 0.0319 0.37819 0.0398 0.5006 0.01 0.12241 0 0.26472 0.01 0.11146-0.15227 2.297 9.2e-4 4.8885 0.16919 7.3367v0.0159l-2e-3 0.0548c-2e-3 0.0686-8e-3 0.17117-0.012 0.30055-7e-3 0.25875-0.014 0.62399-8e-3 1.0619 0.012 0.8738 0.0737 2.0432 0.28563 3.3021l-2e-3 -8e-3c0.19406 1.2042 0.11047 4.6904-0.0179 5.83-0.1662 1.3973-0.0298 2.6702-8e-3 3.7649 0.0268 1.4162-0.0696 2.8354-0.17815 3.9868-0.10747 1.1515-0.23088 1.9108-0.23984 2.503-6e-3 0.28862-0.0189 1.244-0.0548 2.3069-0.0368 1.0649-0.10549 2.2562-0.17915 2.7518l-5e-3 0.0368-4e-3 0.0398c0.0179-0.19904-0.0189 0.0796-0.0686 0.30254l-0.18511 0.81906c-0.13534 0.60111-0.27666 1.1684-0.31846 1.7098-0.1035 1.0728 0.0767 2.508 0.22989 3.954 0.0776 0.72253 0.15426 1.4212 0.20402 1.9805 0.0487 0.55633 0.0497 1.042 0.0528 1.0211-0.15226 1.1873-0.52148 2.4393-0.93848 3.8445-0.73248 2.4363-1.6312 5.409-1.1783 8.9918 0.23187 1.8491 0.62797 4.0505 1.448 6.3365l2e-3 0.01c0.01 0.0278-0.01-0.0299-4e-3 -6e-3l0.0597 0.23885a135.91 135.91 0 0 1 0.71656 2.9827l0.14629 0.65186 0.0686 0.3324 0.015 0.0508s0.97232 3.2872 1.2709 5.1204v4e-3c0.1045 0.62998 0.1254 1.5685 0.10947 2.3945-0.0159 0.81408-0.0666 1.4331-0.0597 1.8939v4e-3c9.1e-4 0.85787 0.22491 1.9347 0.43789 3.0324 0.21497 1.0997 0.45183 2.291 0.44984 2.281l2e-3 0.016 4e-3 0.0179c-0.0359-0.23885-6e-3 0.0777-0.0199 0.35132-0.013 0.27369-0.0339 0.63395-0.0538 1.0161-0.0398 0.76333-0.0995 1.5366 0.0199 2.2671 0.15725 0.98327 0.42297 2.4174 0.96337 3.8346 0.5394 1.4182 1.3495 2.8822 2.7926 3.752 2.9299 1.7675 5.6349 1.6809 6.7834 2.0233 4.1859 1.2699 8.7231 0.55732 11.478-0.51552h2e-3l2e-3 -2e-3c1.046-0.41102 2.1118-1.1206 2.8165-2.1835l6e-3 -6e-3 4e-3 -8e-3c0.24284-0.37718 1.3814-1.1296 2.279-2.503l2e-3 -2e-3c0.67873-1.031 1.0559-2.497 1.5535-4.1789 0.49761-1.6829 0.99522-3.4733 1.3436-4.4128 0.55234-1.4968 0.46675-3.2454 0.25477-4.9313-0.21099-1.6829-0.59415-3.2583-0.92556-4.2645-0.0955-0.30056-0.23486-0.63197-0.45779-1.1783-0.22492-0.55136-0.51154-1.238-0.80712-1.9407a177.94 177.94 0 0 0-1.4779-3.4434l-4e-3 -6e-3 -4e-3 -8e-3a9.36 9.36 0 0 1-0.25776-1.0649 39.632 39.632 0 0 1-0.2906-1.9765c-0.17915-1.4092-0.30156-2.7388-0.42297-3.4206v-4e-3l-2e-3 -2e-3c-0.0916-0.49761-0.32145-1.3605-0.5603-2.289a88.231 88.231 0 0 1-0.50059-2.0123v-4e-3c0.015 0.10152-6e-3 -0.14729-4e-3 -0.41002 2e-3 -0.26572 8e-3 -0.60708 0.0159-0.97133v-2e-3l0.015-0.89171v-6e-3c5e-3 -0.59613 0.0159-1.1017-0.0617-1.6003v-4e-3l-2e-3 -6e-3c-0.61703-3.739-0.17217-7.5696 0.26771-11.402l0.01-0.0826-2e-3 -0.0816s-0.0278-1.3595-0.0378-2.5607v-0.012l2e-3 -1.0808v-0.015c4e-3 -0.29061 0.0199-0.55732 0.0159-0.5205v-0.01l2e-3 -8e-3c0.23189-2.2442 0.31051-4.7551 0.40108-7.1656v-0.011c0.0448-1.6202 0.1015-3.1349 0.18909-4.4426l-2e-3 8e-3c0.0538-0.72651-0.0876-1.3336-0.16421-2.1069-0.0757-0.77328-0.10749-1.6073 4e-3 -2.2512l-2e-3 2e-3c0.0826-0.46775 0.0339-0.74541-4e-3 -1.1316a23.499 23.499 0 0 0-0.15923-1.2172c-0.0627-0.40903-0.12739-0.80313-0.17915-1.1087-0.0497-0.30553-0.0925-0.63992-0.0816-0.49661l-2e-3 -0.0349-4e-3 -0.0328c-0.0398-0.3115 0.014-2.2661 0.12341-4.152v-2e-3l0.0816-1.4182c0.0946-1.6451 0.18611-3.0901 0.1055-4.0286l-2e-3 -0.011v-0.0119c-0.0558-0.53842-0.24284-1.4829-0.46776-2.8792-0.22292-1.3913-0.47472-3.1051-0.623-4.7193-2e-3 -0.0398-0.0398-1.0281-0.0696-2.2034-0.0309-1.1972-0.0418-2.6065-8e-3 -3.0583v-6e-3c0.13037-1.871-0.13137-5.7195-0.10947-9.2674v-0.0159c0.014-0.79916-0.0935-2.8035-0.21298-4.8785-0.0597-1.04-0.1244-2.0671-0.18212-2.8881-0.0577-0.82106-0.0905-1.3396-0.15028-1.7177l4e-3 0.0298c-0.17715-1.3336-0.32643-4.0555-0.0448-6.2141 0.50755-3.8455 0.14131-4.5422 0.56726-7.0103v-2e-3c0.1055-0.62102 0.97531-1.5764 2.0203-2.2691a12.772 12.772 0 0 1 1.4729-0.83399c0.209-0.0995 0.38714-0.17914 0.51452-0.2309 0.12541-0.0517 0.26772-0.0905 0.13138-0.0568h2e-3c0.46377-0.1035 1.5446-0.32842 2.6373-0.625a17.688 17.688 0 0 0 1.6122-0.50855c0.50457-0.19108 0.94347-0.36226 1.3883-0.7504l2e-3 -2e-3c1.7187-1.5088 3.9759-2.1815 5.197-2.5488l2e-3 -2e-3c1.1097-0.32443 1.9496-0.91559 2.5557-1.4232 0.60707-0.50755 1.1355-0.95341 1.0171-0.89072l0.01-6e-3 0.01-4e-3c0.44486-0.24482 1.2241-0.71357 2.0103-1.1823 0.78721-0.46974 1.5983-0.94645 1.863-1.0848l8e-3 -4e-3c0.65884-0.34832 1.0052-0.76234 1.458-1.1156 0.45283-0.3543 0.9375-0.66182 1.6003-0.83598h6e-3c0.68768-0.18511 1.249-0.51751 1.8471-0.833 0.59813-0.31549 1.2012-0.62699 1.7098-0.79418 0.43989-0.14431 1.049-0.33042 1.5953-0.50557 0.27268-0.0886 0.53044-0.17217 0.75635-0.25478 0.22592-0.0816 0.37819-0.12141 0.65088-0.28662l0.012-8e-3c1.7874-1.1107 3.6773-3.0643 5.0597-5.5294 1.3814-2.4651 2.2392-5.4787 1.6262-8.5788v-0.0089c-0.46278-2.2492-2.072-3.6803-2.7697-4.7412v-2e-3l-2e-3 -2e-3c-1.9367-2.921-4.8546-3.1558-6.4788-3.1558l0.0597 2.4642-0.0696-2.4642c-0.5613 4e-3 -1.4799-0.10151-2.3487-0.19208zm-1.8093 2.3756c-0.12938 0.03582 0.72153-0.0069 1.5555 0.07961 0.83101 0.08659 1.7685 0.209 2.6124 0.20302h0.01c1.5267 0 3.0195-0.04976 4.4138 2.0541l-2e-3 -0.0059c0.96835 1.4749 2.1516 2.6284 2.4114 3.8794 0.46577 2.3656-0.1841 4.795-1.3585 6.8899-1.1734 2.0929-2.8851 3.8137-4.2058 4.6357 0.0916-0.0558-0.0398 0.015-0.20701 0.0757-0.17515 0.0637-0.41102 0.14232-0.67077 0.22492-0.51752 0.1672-1.1266 0.35131-1.6103 0.51054v2e-3c-0.78622 0.25876-1.4898 0.63494-2.0949 0.95541-0.6051 0.32045-1.1405 0.57821-1.3306 0.62897-1.0798 0.28662-1.8959 0.81508-2.486 1.2769-0.59216 0.46278-1.033 0.84593-1.0947 0.87977-0.44586 0.23289-1.1903 0.67973-1.9775 1.1485a97.989 97.989 0 0 1-1.9178 1.1276c-0.71655 0.37818-0.97432 0.78423-1.448 1.1803-0.47373 0.39609-1.0102 0.75835-1.667 0.95043l-6e-3 2e-3 -4e-3 2e-3c-1.1694 0.3513-3.8823 1.0917-6.1256 3.0603 0.0309-0.0268-0.25377 0.15426-0.63693 0.29856-0.38416 0.14631-0.87778 0.29857-1.3834 0.43691-1.0121 0.27467-2.0561 0.49163-2.5587 0.6031l-0.0159 4e-3 -0.013 4e-3c-0.23587 0.0597-0.29857 0.0955-0.47572 0.16918a15.023 15.023 0 0 0-2.4114 1.2878c-1.2858 0.85091-2.7667 2.0392-3.0882 3.9102-0.47571 2.7637-0.0995 3.4574-0.5822 7.1078v2e-3c-0.32743 2.5129-0.16023 5.2936 0.0468 6.857l2e-3 0.015 2e-3 0.014c2e-3 0.015 0.0696 0.70262 0.1254 1.5088 0.0568 0.80612 0.12242 1.8252 0.18213 2.8563 0.11942 2.0651 0.21397 4.2973 0.207 4.7054v0.0159c-0.0229 3.6763 0.20899 7.7896 0.11545 9.1261-0.0568 0.77228-0.0278 2.082 4e-3 3.2991 0.0309 1.2191 0.0737 2.283 0.0737 2.283v0.0319l4e-3 0.0298c0.15625 1.7158 0.41599 3.4833 0.6449 4.9064 0.2289 1.4172 0.43192 2.6075 0.44586 2.7299 0.0398 0.47174-0.0159 2.0402-0.10948 3.6684l-0.0816 1.4172c-0.10947 1.8909-0.24383 3.529-0.10549 4.6029 0.0219 0.24881 0.0517 0.38017 0.0995 0.6648 0.0507 0.30653 0.11445 0.6867 0.17416 1.0728 0.0587 0.38514 0.11146 0.77627 0.14232 1.0868 0.0299 0.30952 5e-3 0.61106 0.0308 0.46278v2e-3l-2e-3 2e-3c-0.18013 1.04-0.11146 2.0611-0.0268 2.916 0.0836 0.8549 0.16322 1.6451 0.15923 1.6819v9e-3c-0.0916 1.3634-0.14928 2.905-0.19506 4.5402l2e-3 -0.012c-0.0895 2.4184-0.16918 4.8905-0.38813 7.0023l2e-3 -0.015c-0.0299 0.25876-0.0299 0.46377-0.0339 0.7912v1.1336c0.01 1.1923 0.0339 2.4562 0.0359 2.5278-0.4369 3.7968-0.92755 7.8353-0.24284 11.989l-2e-3 -8e-3c0.013 0.0816 0.0378 0.63494 0.0339 1.1982l-0.014 0.8718c-7e-3 0.36028-0.0159 0.7076-0.0179 1.0022-2e-3 0.29658-0.0179 0.47174 0.0298 0.79021l4e-3 0.0268c0.0866 0.50955 0.30851 1.3157 0.54837 2.2442 0.23885 0.92754 0.49163 1.9407 0.52448 2.1158 0.0587 0.3334 0.21894 1.8412 0.40205 3.2912 0.0926 0.7265 0.19607 1.461 0.3125 2.1049 0.11744 0.6449 0.20601 1.1485 0.45383 1.6749l-8e-3 -0.013c0.22791 0.4996 0.86385 1.9815 1.45 3.3768 0.29359 0.69666 0.57623 1.3794 0.79617 1.9178 0.21995 0.5384 0.39809 1.0151 0.39212 0.9982l2e-3 8e-3 4e-3 8e-3c0.26472 0.80115 0.63495 2.3049 0.82305 3.8057 0.18808 1.4998 0.14729 3.0394-0.12142 3.7659-0.42894 1.1594-0.90764 2.918-1.3953 4.569-0.48765 1.6511-1.1067 3.3061-1.249 3.5221l-2e-3 2e-3 -2e-3 4e-3c-0.52049 0.79916-1.5187 1.3246-2.289 2.5189l8e-3 -0.014c-0.26274 0.39709-1.1077 1.032-1.661 1.251h-2e-3s0 2e-3 -2e-3 2e-3c-2.1994 0.85588-6.442 1.4898-9.8676 0.44983h-6e-3c-1.9377-0.57821-3.8953-0.3742-6.2151-1.7725-0.69665-0.42098-1.3236-1.3704-1.7615-2.5179-0.4359-1.1475-0.6867-2.4313-0.83399-3.3459l-2e-3 -4e-3v-2e-3c-0.0249-0.15425-0.0288-1.0082 0.01-1.7416 0.0199-0.36624 0.0428-0.72352 0.0568-1.0251 0.015-0.30155 0.0558-0.42097-8e-3 -0.84096-0.0696-0.54836-0.26673-1.3634-0.47273-2.4184-0.208-1.0669-0.39113-2.3009-0.39113-2.5657v-0.0229c-2e-3 -0.0995 0.0418-0.93252 0.0597-1.8212 0.0169-0.88973 0.01-1.9138-0.14331-2.8443v-2e-3c-0.35529-2.1855-1.3435-5.4289-1.3435-5.4289l0.0278 0.10349-0.0597-0.29557-0.15127-0.67775-2e-3 -4e-3a138.63 138.63 0 0 0-0.79718-3.3031c-0.0179-0.0666 0.0388 0.0597-0.0686-0.22691l8e-3 0.0179c-0.73447-2.0482-1.1047-4.0664-1.3236-5.8101v-2e-3c-0.38017-3.0165 0.36326-5.5434 1.0947-7.9776v-2e-3l2e-3 -2e-3c0.416-1.4013 0.83399-2.7756 1.0201-4.2376l2e-3 -4e-3v-6e-3c0.0597-0.50756 0.01-0.93252-0.0448-1.5356-0.0538-0.60411-0.13236-1.3107-0.20899-2.0273-0.15228-1.4331-0.26872-3.0155-0.22692-3.4574v-0.015l2e-3 -0.014c5e-3 -0.0696 0.13535-0.78223 0.26871-1.3734 0.0657-0.29658 0.13435-0.58618 0.1871-0.82404 0.0497-0.22293 0.0816-0.30951 0.10948-0.58717 0.11445-0.78423 0.1662-1.9158 0.20301-2.9966 0.0369-1.0947 0.0517-2.1009 0.0568-2.3437v-8e-3c9.2e-4 -0.0926 0.11644-1.1116 0.2289-2.3119 0.11246-1.2002 0.21695-2.706 0.1871-4.2645-0.0239-1.238-0.13236-2.3865-8e-3 -3.4335v-8e-3c0.1652-1.465 0.30652-4.6278 4e-3 -6.4988v-4e-3l-2e-3 -4e-3a19.638 19.638 0 0 1-0.2498-2.9279c-5e-3 -0.3931 9.1e-4 -0.72153 8e-3 -0.95739 3e-3 -0.11844 7e-3 -0.21199 0.01-0.28762l2e-3 -0.1035c0-0.0339 0.015 0-8e-3 -0.20303l6e-3 0.0528c-0.16819-2.4482-0.30852-4.993-0.16919-7.075v-2e-3c0.015-0.24084 0-0.2916-0.01-0.44387-0.012-0.15226-0.0268-0.33439-0.0458-0.54737-0.0378-0.42396-0.0895-0.96038-0.14232-1.5177-0.1055-1.1166-0.21297-2.3756-0.21695-2.8145v-0.0278c-0.01-0.30951-0.0278-1.668-0.0477-2.9707-0.0199-1.3037-0.0239-2.4044-0.0677-2.9319v-2e-3h-2e-3c-0.49463-5.7344-1.1266-9.1858-1.7496-11.332-0.623-2.1447-1.1903-3.0533-1.9347-3.5529l-6e-3 -6e-3 -6e-3 -4e-3c-0.74543-0.48567-1.4411-0.50059-2.1994-0.48666-0.75536 0.014-1.5286 0.13237-2.2492 0.46875-0.68968 0.31846-1.244 0.79517-2.0034 1.3505-0.76034 0.55732-1.6122 1.1594-2.3079 1.5326-0.75935 0.40008-1.8869 0.95739-2.9548 1.5068-1.0718 0.55234-2.0452 1.0579-2.713 1.5525l-0.0119 7e-3c-1.1724 0.88574-2.9747 2.283-6.6152 4.2695-1.2142 0.65684-1.9606 1.6083-2.713 2.289l-8e-3 7e-3 -6e-3 6e-3c-1.3127 1.1544-3.4444 3.3001-6.9715 5.0796-1.9048 0.95044-3.6325 2.077-5.0557 3.4594l-0.012 0.012c-0.31548 0.31448-0.49362 0.60011-0.78622 1.0201-0.2906 0.41899-0.62996 0.92256-0.98824 1.4431-0.71656 1.039-1.5545 2.1696-2.0322 2.6334l0.01-8e-3c-1.4809 1.4092-2.289 3.1917-2.5448 3.7798l0.014-0.0308c-0.65784 1.4022-1.3027 2.7239-2.3577 3.5081-0.7484 0.55732-2.2671 1.031-3.8833 1.1445-1.6162 0.11444-3.335-0.10948-4.4815-0.5852l-2e-3 -2e-3c-1.459-0.60409-4.8407-2.8622-6.232-6.5684l-2e-3 -3e-3v-2e-3c-1.3614-3.5917-0.18909-8.5061 2.6015-11.601 1.7217-1.9058 4.6357-2.8065 7.7179-3.6704h4e-3c1.9048-0.53941 3.7868-1.0569 5.3762-1.9387 0.51154-0.28364 1.1773-0.76632 1.876-1.2659 0.69963-0.5006 1.4182-1.0221 1.5466-1.1067h2e-3c0.19904-0.13037 1.037-0.5812 1.8033-0.9773 0.76632-0.3951 1.4132-0.70262 1.863-0.99522l0.0159-0.0109c0.24582-0.1662 0.44586-0.33738 0.78323-0.61007 0.33838-0.27268 0.75935-0.61305 1.2162-0.97132 0.9136-0.71657 1.9954-1.5127 2.7498-1.9367 2.8831-1.6043 5.1592-2.8871 6.5764-3.7719l4e-3 -2e-3c6e-3 -4e-3 4.0535-2.2472 6.8292-4.8686l4e-3 -4e-3 2e-3 -4e-3c-0.0945 0.0895 0.74044-0.42794 1.7745-0.91858 1.033-0.49164 2.3686-1.1206 3.7798-1.9168l4e-3 -2e-3 2e-3 -2e-3c0.0796-0.0458 1.051-0.44784 1.9307-0.77229 0.87977-0.32444 1.7217-0.61703 2.2084-0.82901l0.0179-8e-3 0.0199-0.01c0.55534-0.26473 1.0291-0.63097 1.66-1.0609a39.43 39.43 0 0 1 1.4391-0.94446c1.3814-0.71656 2.5995-1.5973 3.3141-2.9657 0.71656-1.3704 0.84096-3.0732 0.45182-5.199v-4e-3l-2e-3 -4e-3c-0.27468-1.453-0.62897-2.6811-0.50955-4.0605-8e-3 0.0846 0.14829-0.74343 0.40008-1.5685 0.25477-0.833 0.62201-1.8232 1.0251-2.5478l3e-3 -5e-3 4e-3 -8e-3c0.10649-0.19606 0.15924-0.22493 0.45183-0.42596 0.2916-0.20102 0.84493-0.5812 1.1923-1.254l4e-3 -9e-3 2e-3 -6e-3c0.01-0.0209 0.30156-0.34334 0.72851-0.58717 0.42794-0.24582 0.96336-0.45282 1.3236-0.54438l0.31648-0.0796 0.23387-0.22691c0.38117-0.36723 1.6451-1.0569 3.0593-1.2998 1.4172-0.23388 3.3091 0.1871 4.8994 0.75039 0.79618 0.28264 1.5167 0.58917 2.09 0.84096 0.28563 0.1254 0.53443 0.23687 0.7494 0.32842 0.21297 0.0895 0.33439 0.15923 0.65286 0.22393 1.6451 0.36225 3.6704 0.14928 5.0676-0.24583 0.23289-0.0538 0.30852-0.0995 0.39511-0.14331a6.24 6.24 0 0 0 0.28762-0.15226c0.19705-0.10948 0.41997-0.24084 0.64887-0.3752 0.4578-0.26672 1.0271-0.56428 1.043-0.57026 0.25079-0.0935 1.036-0.3304 1.7595-0.54139s1.3485-0.38415 1.7257-0.51752c0.63396-0.22193 1.4888-0.67077 2.501-1.1694 1.0151-0.4996 2.1298-1.033 2.3537-1.1176h2e-3v-0.0018c0.54638-0.208 2.6025-0.61902 3.6564-0.85987l0.23885-0.05476 0.19904-0.14132c0.62102-0.44088 1.7118-0.9574 2.7866-1.458 1.0758-0.4996 2.1198-0.94546 2.9339-1.6431l4e-3 -0.0037 6e-3 -0.0018c1.3614-1.1893 2.715-3.2733 3.3141-4.1321l0.21297-0.29657c0.0458-0.05972 1.0768-0.96735 2.0074-1.6491 0.93053-0.68172 1.7715-1.248 2.1228-1.5127l0.01-0.0059 0.01-0.0079c0.98128-0.7703 3.5002-2.4383 4.7004-2.7836z" fill="#9aebff"/>
	</g>
</svg>
