<svg xmlns="http://www.w3.org/2000/svg" width="416.617" height="450"><g fill="#ffa0fc" transform="matrix(.977981 0 0 .977981 -12.316922 -45.610063)"><path d="M0 0v-8.693l1.466 1.105v6.107z" transform="matrix(13.05826 0 0 -13.05826 148.81408 220.3562)" clip-path="none"/><path d="M0 0l1.909.436.771.632v1.146z" transform="matrix(13.05826 0 0 -13.05826 189.94237 246.86316)" clip-path="none"/><path d="M0 0l-2.697 1.243 2.438-2.732.923.911z" transform="matrix(13.05826 0 0 -13.05826 186.81231 66.34055)" clip-path="none"/><path d="M0 0h.847l.276-1.382h.005L1.404 0h.847v-2.35h-.563v1.508h-.006L1.347-2.35H.904L.568-.842H.563V-2.35H0z" transform="matrix(13.05826 0 0 -13.05826 12.59423 342.22763)" clip-path="none"/><path d="M67.718 361.042c0 8.514-3.787 12.588-11.478 12.588s-11.517-4.074-11.517-12.588v-18.817h7.77v16.728c0 3.134 0 7.038 3.774 7.038 3.695 0 3.695-3.904 3.695-7.038v-16.728h7.757zm10.023 1.547c0 .77.104 1.463.287 2.024.562 1.841 2.259 2.233 3.709 2.233 1.267 0 3.212-.509 3.212-2.794 0-1.58-1.084-2.011-5.445-3.513-3.983-1.384-8.553-2.716-8.553-8.906 0-7.078 5.001-10.133 10.185-10.133 5.471 0 10.316 2.533 10.525 10.016h-7.339c.131-1.162-.287-1.933-.927-2.468s-1.528-.757-2.298-.757c-1.058 0-2.794.34-2.794 2.063.144 2.181 3.748 2.651 7.313 3.865 3.578 1.201 7.104 3.225 7.104 8.84 0 8.005-6.033 10.577-11.648 10.577-2.873 0-11.034-1.254-11.1-11.047zm17.474-20.356h7.77v30.687h-7.77zm27.408 11.425c-.144-1.123-.849-4.518-4.074-4.518-3.63 0-4.792 4.309-4.792 8.436 0 4.113 1.162 8.423 4.792 8.423 2.625 0 3.656-2.246 4.113-5.119h7.626c0 6.19-4.126 12.758-11.517 12.758-8.161 0-12.797-6.999-12.797-16.062 0-9.663 5.027-16.075 12.797-16.075 6.934.039 10.734 4.466 11.413 12.157zm27.817-3.571h-7.065v-7.861h21.899v7.861h-7.065v22.826h-7.77zm17.092-7.859h20.867v7.861h-13.097v3.839h11.896v7.287h-11.896v3.839h13.502v7.861h-21.272zm23.65 0h7.757v22.826h11.178v7.861h-18.934zm20.861 0h20.867v7.861h-13.097v3.839h11.909v7.287h-11.909v3.839h13.489v7.861h-21.259zm39.538 30.683h-8.684l-7.535-30.687h7.848l4.139 18.608h.052l4.087-18.608h7.966zm10.793-30.678h7.783v30.687h-7.783zm18.581 20.356c0 .77.104 1.463.287 2.024.562 1.841 2.259 2.233 3.709 2.233 1.267 0 3.212-.509 3.212-2.794 0-1.58-1.11-2.011-5.445-3.513-3.983-1.384-8.553-2.716-8.553-8.906 0-7.078 4.988-10.133 10.185-10.133 5.471 0 10.303 2.533 10.512 10.016h-7.339c.144-1.162-.287-1.933-.927-2.468-.627-.535-1.515-.757-2.285-.757-1.058 0-2.794.34-2.794 2.063.144 2.181 3.748 2.651 7.313 3.865 3.578 1.201 7.104 3.225 7.104 8.84 0 8.005-6.046 10.577-11.648 10.577-2.873 0-11.034-1.254-11.1-11.047zm17.473-20.356h7.77v30.687h-7.77zm23.198-.734c7.678 0 12.797 6.712 12.797 16.075s-5.119 16.062-12.797 16.062c-7.652 0-12.784-6.699-12.784-16.062s5.132-16.075 12.784-16.075m0 24.497c1.985 0 5.027-1.593 5.027-8.423s-3.043-8.436-5.027-8.436c-1.972 0-5.014 1.606-5.014 8.436s3.043 8.423 5.014 8.423m15.684-23.768h7.952l7.339 16.414h.078v-16.414h7.339v30.687h-7.548l-7.744-16.754h-.065v16.754h-7.352zm92.911-257.565c-3.212-2.194-8.971-3.291-14.664-2.794-5.419.457-9.023 3.108-11.987 5.563.039-.026-7.717 7.652-7.717 7.652l-2.076 3.317c-.026.039-6.921 8.658-6.921 8.658l-.078.091V59.356l-21.154-12.719.013 86.811-.274.418-5.067 5.955V46.637H229.529l-46.514 46.278-41.316-46.278H12.722v286.916h131.17V207.162l38.613 39.828 47.415-40.415v126.979h130.4l-.013-121.076 1.854-3.121c.013-.039 1.11-1.619 1.11-1.619.065-.078 1.175-1.854 2.39-3.787l.013 129.603 21.102-14.573V166.107l2.311-3.447c.196-.326 3.252-4.897 3.252-4.897 0-.013 4.858-7.143 4.858-7.143.052-.118 1.854-2.403 1.854-2.403l4.492-6.359c.888-2.05 3.421-3.408 4.388-3.917l.457-.248.614-.444 2.337-2.364c.039-.052 4.061-3.447 4.061-3.447l6.869-3.199 6.412-3.526c.026-.013 5.876-7.221 5.876-7.221l3.121-9.689c.013-.013.914-9.389.914-9.389-.196-4.766-3.8-10.669-8.37-13.75M273.092 162.7c.144.914.64 9.402.614 10.799-.026 4.205.261 8.84.131 10.708-.104 1.423.091 6.333.091 6.333.353 3.878 1.188 8.122 1.267 8.88.17 1.985-.575 9.519-.353 11.23.026.353.64 3.5.509 4.244-.34 1.959.235 4.322.17 5.21-.104 1.554-.17 3.33-.222 5.223-.104 2.808-.196 5.706-.457 8.24-.078.64.013 5.067.013 5.067-.509 4.453-1.058 9.049-.3 13.659.144.927-.039 3.97.039 4.505.118.692 1.097 4.27 1.241 5.054.209 1.175.653 6.621 1.241 7.874.575 1.267 2.912 6.816 3.121 7.482.692 2.102 1.75 7.169.797 9.755-.901 2.442-2.259 8.253-3.212 9.702-.823 1.267-2.063 2.011-2.651 2.925-.562.849-1.671 1.632-2.599 1.998-2.873 1.123-7.966 1.907-12.379.562-1.789-.535-4.492-.366-7.535-2.207-2.481-1.502-3.33-5.615-3.682-7.822-.17-1.032.131-3.787.065-4.218-.078-.627-1.019-4.701-1.019-6.007-.013-.653.222-3.408-.078-5.223-.379-2.337-1.515-6.137-1.515-6.137a127.58 127.58 0 0 0-1.188-5.027c-.901-2.52-1.345-4.975-1.606-7.065-.483-3.839.47-7.038 1.319-9.872.483-1.632.94-3.16 1.136-4.701.131-1.11-.731-6.372-.562-8.135.052-.718.64-3.003.666-3.304.222-1.489.274-5.458.287-6.072.013-.797.548-4.139.483-7.6-.026-1.358-.17-2.768 0-4.192.17-1.515.3-5.38.013-7.169-.457-2.729-.274-5.171-.287-5.289-.196-2.86-.366-5.863-.196-8.423.026-.405-.47-4.74-.483-6.085l-.131-6.79c-1.136-13.228-2.925-15.761-3.643-16.244-.718-.47-2.664-.444-3.774.078-.849.392-3.056 2.311-4.923 3.317-1.828.966-5.236 2.586-6.399 3.447-1.345 1.019-3.552 2.729-7.848 5.08-1.084.588-1.907 1.593-2.886 2.481-1.423 1.254-4.087 3.944-8.396 6.124-2.115 1.058-3.996 2.298-5.511 3.774-.627.627-2.938 4.492-4.427 5.942-1.449 1.384-2.364 3.33-2.625 3.931-.757 1.619-1.58 3.434-3.173 4.623-2.468 1.841-7.848 2.181-11.1.823-2.076-.862-6.216-3.643-8.018-8.462-1.815-4.805-.3-10.969 3.291-14.965 2.364-2.625 6.046-3.682 9.624-4.688 2.207-.627 4.309-1.227 5.928-2.128.797-.444 3.343-2.35 3.878-2.703.81-.535 3.695-1.933 4.257-2.298.522-.353 3.565-3.003 5.602-4.153l7.626-4.388s4.636-2.612 7.639-5.458c.679-.653 3.565-1.724 6.725-3.513.797-.457 4.1-1.567 4.936-1.933.575-.274 2.873-1.959 3.552-2.311 2.964-1.541 4.453-3.382 3.617-7.966-.3-1.593-.783-3.212-.614-5.132.052-.47.731-3.356 1.828-5.341.548-1.019 1.41-.992 1.893-1.933.483-.966 2.181-1.776 3.304-2.063.783-.757 2.403-1.567 4.296-1.893 4.153-.692 9.493 2.35 10.264 2.507 1.463.326 3.944.104 5.249-.274.261-.052 1.959-1.162 2.586-1.397.836-.313 3.513-1.045 4.061-1.241.823-.287 4.636-2.285 5.602-2.651.992-.379 3.291-.797 4.427-1.058 1.815-1.293 5.223-2.403 6.529-3.526 1.476-1.293 3.473-4.388 3.891-4.936.77-1.019 4.531-3.552 5.067-3.957 1.227-.966 4.035-2.938 5.942-3.487.914-.261 3.591.287 5.223.274 1.828 0 4.388.104 6.32 3.03.966 1.476 2.586 2.977 3.003 5.014 1.254 6.359-3.5 12.667-7.104 14.913-.366.222-2.115.731-3.186 1.084-1.502.496-3.03 1.593-4.048 1.867-2.024.535-3.016 1.946-3.852 2.39-.823.431-3.617 2.155-4.518 2.651-.692.366-1.828 1.985-3.878 2.586-1.384.418-4.27 1.241-6.568 3.265-.953.836-4.832 1.632-5.942 1.88-.418.104-5.367 2.194-5.863 5.093-.522 3.043-.091 3.852-.666 8.214-.353 2.716-.17 5.915.052 7.6m161.23-55.602c-.379 1.776-1.371 6.163-2.781 8.736-.614 1.136-3.056 4.74-4.91 6.124-1.802 1.332-4.414 2.651-5.511 3.043-1.019.366-6.007 2.69-7.352 3.408-2.416 1.306-3.709 2.768-4.975 4.166-.653.731-1.293 1.41-2.063 2.089-.3.261-4.727 2.076-6.333 5.824-.979 2.272-5.393 6.986-6.137 8.344-1.097 1.959-2.716 4.91-4.335 6.49-.483.47-1.005 1.188-1.554 2.024-.509.757-1.032 1.606-1.593 2.533l-.444.705c-1.045 1.724-2.22 3.682-2.899 4.401-1.685 1.815-2.664 4.166-3.46 6.085-.313.744-3.082 4.701-4.126 7.456-.457 1.241-2.86 5.262-3.121 5.876-.509 1.293-3.604 4.296-3.904 4.884-.444.901-.849 2.128-1.267 3.408-.366 1.162-1.319 3.447-1.645 4.335l-1.476 2.416c-.026.039-.039.065-.065.091l-1.241 2.024-2.586 4.1c-.431.548-.862 1.188-1.241 1.763-.614.901-5.106 8.566-6.137 10.394-.457.836-1.019 1.671-1.593 2.546-1.371 2.05-2.781 4.153-3.46 6.751-.431 1.619-1.671 4.296-1.763 4.531-1.763 4.335-2.442 8.997-2.625 10.316-.274 2.155-.209 4.335-.118 6.425.091 2.259.17 4.401-.196 6.294-.679 3.513-2.05 6.973-3.865 9.741-.483.757-2.194 3.095-4.218 4.975-1.476 1.371-3.891 1.933-8.318 1.972-5.994.026-8.566-2.194-11.752-6.882-.522-.757-1.541-2.729-2.781-5.38-1.593-3.382-2.899-6.477-4.035-10.551-.353-1.227-.849-2.586-1.306-3.904-.522-1.436-1.645-5.484-1.737-6.15-.104-.666-1.515-5.38-1.606-5.837-.548-2.886-1.306-5.563-2.05-8.148-.757-2.664-1.476-5.184-1.92-7.783-.431-2.494-1.763-6.529-2.742-9.454l-2.481-8.096c-.823-2.886-3.513-10.851-3.513-10.851-1.005-2.716-3.382-9.089-3.552-10.107-1.41-8.279-1.397-14.952.091-17.864.666-1.332 2.951-2.599 4.792-3.617.614-.353 3.643-2.311 4.296-2.481 1.88-.509 5.027-.666 7.678-.392.353.039 3.604.065 4.779.901 4.375 3.043 4.688 6.973 5.262 14.116l1.123 10.564.77 6.516c.144 1.502.222 3.147.287 4.727.118 2.86 1.097 8.318 1.097 8.318.979 3.278 1.92 6.399 5.759 8.018 1.045.431 2.233.353 3.356-.274 2.625-1.397 5.014-5.654 5.928-10.564.052-.274.444-.836.823-1.384.914-1.267 2.155-3.016 2.794-5.889.196-.718 1.959-3.147 3.003-4.597 1.071-1.476 2.063-2.86 2.651-3.904.196-.353 4.557-7.156 4.557-7.156l2.403-5.145c.718-1.423 1.345-3.121 1.41-3.408.353-1.463 1.071-4.531 2.507-6.229 1.959-2.311 4.087-7.508 4.192-7.73.47-.888 1.75-3.095 2.938-5.04.065-.078.183-.248.261-.353v-.013c.026-.026.065-.078.091-.104.522-.692 1.201-1.606 1.724-2.233l3.761-4.453c.77-.836 1.541-1.698 2.233-2.638.731-.966 2.285-3.252 3.656-5.276.836-1.267 3.252-4.414 3.996-5.197.731-.757 6.216-8.135 7.065-9.258.353-.457 2.599-2.742 3.957-4.113 0-.013.013-.013.013-.026l2.821-2.912c1.097-1.476 2.285-2.912 3.434-4.309s2.324-2.821 3.447-4.322c.496-.627 1.763-2.899 2.102-3.343 1.188-1.567 6.999-6.934 7.169-7.078 2.703-2.233 5.693-4.414 10.081-4.792 4.805-.418 9.924.496 12.458 2.22 3.63 2.442 6.699 7.404 6.856 11.047.157 3.5-.104 4.923-.836 8.54"/></g><path d="M353.172 288.126a7.26 7.26 0 0 0-7.244 7.244 7.26 7.26 0 0 0 7.244 7.244 7.26 7.26 0 0 0 7.244-7.244 7.26 7.26 0 0 0-7.244-7.244zm0 1.471a5.773 5.773 0 1 1 0 11.546 5.773 5.773 0 1 1 0-11.546zm-.397 5.185c.404 0 .699-.081.875-.235.176-.147.272-.397.272-.75 0-.346-.096-.588-.272-.743-.176-.147-.471-.221-.875-.221h-.824v1.949h.824m-.824 1.346v2.868h-1.956v-7.582h2.986c1 0 1.728.169 2.191.507.471.331.699.86.699 1.588 0 .5-.118.912-.36 1.235-.243.316-.603.559-1.096.706.272.066.507.206.721.419s.427.537.64.978l1.066 2.147h-2.081l-.927-1.883c-.184-.375-.375-.64-.566-.772-.191-.14-.449-.213-.765-.213h-.552" fill="#ffa0fc"/><g transform="matrix(.977981 0 0 .977981 -12.316922 -45.610063)"><rect width="364.283" height="118.719" x="12.722" y="388.05" rx="59.359" fill="#ffa0fc" paint-order="stroke markers fill"/><rect width="347.855" height="104.932" x="20.936" y="394.943" rx="52.466" fill="#fff" paint-order="stroke markers fill"/><rect width="342.459" height="99.085" x="23.634" y="397.867" rx="49.649" ry="49.543" fill="#ffa0fc" paint-order="stroke markers fill"/></g><path d="M81.478 365.496c-8.001 0-14.444 6.441-14.444 14.442v27.04c0 8.001 6.443 14.442 14.444 14.442h50.167a14.41 14.41 0 0 0 14.442-14.442v-27.04a14.41 14.41 0 0 0-14.442-14.442zm.655 14.137h48.855v27.651H82.133zm84.188-14.137c-8.001 0-14.444 6.441-14.444 14.442v27.04c0 8.001 6.443 14.442 14.444 14.442h50.167a14.41 14.41 0 0 0 14.442-14.442v-27.04a14.41 14.41 0 0 0-14.442-14.442zm.655 14.137h48.855v27.651h-48.855zm80.807 1.447a12.35 12.35 0 0 0-12.376 12.378v.97a12.35 12.35 0 0 0 12.376 12.378h15.365 17.856c.808 0 1.459.651 1.459 1.459s-.651 1.457-1.459 1.457h-43.26V422.1h41.952a12.35 12.35 0 0 0 12.376-12.378v-.97a12.35 12.35 0 0 0-12.376-12.378h-16.547-16.673c-.808 0-1.459-.651-1.459-1.459s.651-1.457 1.459-1.457h43.26V381.08z" paint-order="stroke markers fill" fill="#fff"/></svg>