<svg xmlns="http://www.w3.org/2000/svg" height="353.12" width="600" fill="#fff"><path d="M403.158 353.1c-1.02-8.826-2.296-21.53-2.296-32.7 0-6.938.918-34.844.918-57.342 0-18.978-4.08-52.7-4.08-71.014 0-11.02.816-25.968-.408-31.222 8.775-5.714 16.478-9.336 40.66-24.03 7.857-4.744 22.855-12.754 22.855-22.396 0-4.285-1.173-7.1-7.244-12.1-4.285-3.418-8.826-4.387-13.978-4.387-12.346 0-17.957 12.346-28.264 18.672l-27.396 16.223c-1.326-.612-6.683-3.775-15.304-3.775-9.03 0-19.54 4.03-19.54 15.763 0 5.357 1.683 11.173-5.46 14.947-4.03 2.55-23.672 13.774-44.588 26.376-17.6 10.662-25.815 9.795-33.263 14.284-6.836 4.132-8.673 9.285-8.673 13.774 0 3.98 2.55 8.98 3.418 10.1 4.744 6.07 8.98 9.336 16.427 9.336 12.652 0 23.1-11.02 42.65-24.896 12.142-8.673 23.315-17.65 29.844-17.65 5.816 0 9.897 4.387 9.897 22.498 0 60.557-3.724 70.147-3.724 112.18 0 7.55.306 21.53.56 27.345h-32.13v-99.23l-61.832 52.138-61.832-52.138V353.1H-.025V-.01h195.08L262.2 70.648 329.33-.01h196.05v150.95c-6.224 9.6-25.15 42.037-37.905 75.198-4.183 10.815-6.122 18.62-11.58 18.62-6.07 0-6.58-5.97-7.142-11.275-1.224-11.632-3.826-33.314-5-41.273-2.347-15.457-5.408-31.783-22.65-31.783-12.805 0-26.172 7-26.172 26.07 0 10.815 5.46 29.64 14.845 54.383l26.172 68.67c5.153 13.672 12.397 17.396 23.57 17.396 14.386 0 19.335-5.255 25.253-25.406 5-17.14 13.52-45.15 20.6-62.65v114.18H403.1zm168.2-195.95V353.1h-32.242V209.76c6.887-14.947 23.52-41.12 32.242-52.597m-32.242-26.12v-131l32.242 19.386v71.728c-7.908 8.265-24.488 28.417-32.242 39.895m-259.1-98.872l-17.76 18.673-48.1-50.6 61.02 26.835 4.847 5.102zm2.143 274.93h22.243l6.02-5v-18.774L282.148 307.1zm-68.057 46.017h26.53v-47.445l-26.53-22.345v69.8zm361.036-12.687h10.254v1.94h-4.03v10.713h-2.194V342.38h-4.03v-1.94zm11.7 0h3.112l3.52 9.897 3.418-9.897H600v12.652h-2.143v-9.744l-3.52 9.744H592.5l-3.52-9.744h-.05v9.744h-2.092V340.44z"/></svg>