<svg xmlns="http://www.w3.org/2000/svg" xmlns:xlink="http://www.w3.org/1999/xlink" width="800" height="161.36" xmlns:v="https://vecta.io/nano"><style><![CDATA[.B{dominant-baseline:auto}]]></style><path d="M37.048 0L0 140.65h175l-5.487 20.71h67.107c11.16 0 20.415-6.147 26.128-12.213s9.392-12.458 12.726-17.938l38.422-63.162h5.224l-19.235 72.603h76.943l19.235-72.603h7.314l.39 72.603h91.746L569.13 0H307.75l-4.664 17.602h-84.143L223.58 0h-91.892l-7.504 13.399L123.951 0z" fill="#28166f" paint-order="markers stroke fill" class="B"/><g fill="#979797"><path d="M53.801 20.753L25.596 127.829h42.379l16.791-63.741 3.773 63.741h24.587l38.073-61.376-16.168 61.376h42.379l28.205-107.075h-60.273L112.293 79.76l-1.022-59.007zm152.08 17.601l8.857 71.589c.99 6.31 2.712 14.466 10.404 16.504H200.99l-5.853 22.09h45.295c11.074 0 17.844-11.129 24.512-22.09l53.591-88.093h-45.824l-25.336 55.463-1.249-55.463zm118.593-17.601l-9.132 34.473h29.395l-19.234 72.602h42.216l19.234-72.602h29.392l9.134-34.473z" paint-order="stroke fill markers"/><path d="M423.703 20.753l.578 107.075h64.889l56.045-107.075h-47.062l-34.815 81.317 3.269-81.317z" paint-order="stroke fill markers"/></g><path d="M602.924 46.23l-4.336 16.457a29.76 29.76 0 0 0-3.725-2.328c-4.585-2.413-9.74-3.56-14.788-3.511-4.533.044-8.724 1.123-12.741 2.632H522.81l-25.473 96.702h56.182l2.62-9.936c9.188 2.719 18.912 1.1 26.763-3.058.154-.081.303-.17.456-.253h50.278l1.231-4.673c8.316 5.893 18.68 8.074 30.921 8.074 10.128 0 19.403-1.829 27.246-5.192l12.121 2.658c16.217 3.559 33.106 3.722 49.023 2.486 17.297-1.344 30.315-14.673 32.539-31.246.357-2.66.494-5.622.298-8.676l.936.113 12.052-44.693-16.788-2.185s-16.909-2.761-35.269-1.979c-5.536.236-11.188.822-16.565 1.875l.003-.018h-75.765l3.49-13.25z" fill="#d90b4c" paint-order="stroke fill markers" class="B"/><g fill="#fff" paint-order="markers stroke fill" class="B"><path d="M49.985 16.785L21.781 123.861H64.16l16.79-63.742 3.773 63.741h24.587l38.073-61.376-16.168 61.376h42.379l28.205-107.075h-60.273l-33.048 59.007-1.022-59.007zm152.081 17.601l8.857 71.589c.99 6.31 2.712 14.466 10.404 16.504h-24.152l-5.853 22.09h45.295c11.074 0 17.844-11.129 24.512-22.09l53.591-88.093h-45.824L243.56 89.85l-1.249-55.463zm118.593-17.601l-9.132 34.473h29.395l-19.234 72.602h42.216l19.234-72.602h29.392l9.134-34.473z"/><path d="M419.888 16.785l.578 107.075h64.889L541.4 16.785h-47.062l-34.815 81.317 3.269-81.317z"/></g><g fill="#8e9a95"><path d="M578.383 71.561c-8.145.079-17.03 5.538-23.545 14.466l3.117-11.835h-25.571l-17.676 67.101h25.571l6.279-23.833c1.221 6.352 4.475 11.202 9.176 13.676 10.898 5.735 26.538-2.547 34.932-18.498s6.364-33.531-4.533-39.268c-2.326-1.224-4.95-1.836-7.752-1.809zM561.22 93.99a5.75 5.75 0 0 1 2.596.65c3.656 1.925 4.497 7.52 1.878 12.496-1.258 2.39-3.162 4.316-5.293 5.352s-4.315 1.1-6.071.176c-3.656-1.925-4.497-7.52-1.878-12.496 1.983-3.77 5.481-6.235 8.768-6.178zm51.267-33.047h25.571l-17.676 67.101h-25.571z" paint-order="stroke fill markers"/><use xlink:href="#B" paint-order="stroke fill markers"/><use xlink:href="#C" paint-order="stroke fill markers"/></g><g fill="#fff" paint-order="stroke fill markers" class="B"><path d="M576.705 69.664c-8.145.079-17.031 5.538-23.545 14.466l3.117-11.835h-25.571l-17.676 67.101h25.571l6.279-23.833c1.221 6.352 4.475 11.202 9.176 13.676 10.898 5.734 26.537-2.547 34.932-18.498s6.365-33.532-4.533-39.268c-2.326-1.224-4.95-1.836-7.752-1.809zm-17.163 22.429a5.75 5.75 0 0 1 2.596.65c3.656 1.925 4.497 7.52 1.878 12.496s-7.707 7.453-11.364 5.528-4.497-7.52-1.878-12.496c1.984-3.77 5.481-6.235 8.768-6.178zm51.267-33.047h25.571l-17.676 67.101h-25.571z"/><use xlink:href="#B" x="-1.678" y="-1.897"/><use xlink:href="#C" x="-1.678" y="-1.897"/></g><defs ><path id="B" d="M710.343 74.193l-9.986 37.911c-2.729 10.361-15.068 19.339-36.406 19.339s-30.631-8.979-27.903-19.339l9.986-37.911h25.571l-9.211 34.968c-.674 2.559.307 5.229 6.082 5.1s6.293-2.095 7.017-4.843l9.279-35.225z"/><path id="C" d="M730.988 74.193c-9.463 2.065-15.622 8.924-16.901 18.459-1.288 9.603 1.275 16.507 14.473 16.507s14.159 1.435 13.676 3.427c-.48 1.978-2.826 3.498-7.129 3.83-5.799.447-18.132.948-24.665-2.186l-3.958 15.027c14.153 3.106 29.737 3.349 44.704 2.186 9.657-.75 17.739-8.922 19.017-18.457 1.288-9.603-1.275-16.51-14.108-16.51s-13.794-1.432-13.311-3.424c.48-1.978 3.512-3.51 7.129-3.83 10.305-.91 17.45.001 25.24.941l4.306-15.97s-30.367-3.95-48.475.001z"/></defs></svg>