<svg xmlns="http://www.w3.org/2000/svg" viewBox="0 0 600 303.534" height="404.712" width="800"><defs><clipPath id="A"><path d="M0 0h466.898v236.199H0zm0 0"/></clipPath></defs><g transform="scale(1.285076)"><g clip-path="url(#A)"><path d="M466.898-.004l-32.23 152.426H109.68l-78.922 83.777 17-83.777H0L33.043-.004h433.855" fill="#38a3e1"/></g><path d="M56.352 69.488v21.516h4.043c.891 0 1.133.242 1.133 1.051v5.176c0 .809-.242 1.055-1.133 1.055H42.441c-.809 0-1.051-.246-1.051-1.055v-5.176c0-.809.16-1.051 1.051-1.051h4.043V73.371c0-2.992-.16-4.285-.727-6.633h-3.801c-.891 0-1.133-.242-1.133-1.051v-5.176c0-.809.242-1.051 1.133-1.051h10.918c1.375 0 1.617.484 2.508 4.125 4.367-4.047 7.359-5.5 11.566-5.5s6.875 1.699 8.652 5.5c4.367-4.047 7.602-5.5 11.973-5.5 3.316 0 5.984 1.293 7.277 3.477s1.699 4.449 1.699 9.543l-.082 19.898h4.125c.809 0 1.051.242 1.051 1.051v5.176c0 .891-.242 1.055-1.371 1.055H87.977c-1.133 0-1.293-.164-1.293-1.379V72.078c0-4.367-.969-5.906-3.641-5.906-2.102 0-3.965.973-6.633 3.316v21.516h4.047c.969 0 1.129.16 1.129 1.375v4.852c0 .809-.242 1.055-1.129 1.055H67.918c-1.211 0-1.293-.164-1.293-1.379l-.082-24.102c0-5.176-.727-6.633-3.559-6.633-2.02 0-3.883.891-6.633 3.316m80.094-21.269c0 2.992-2.508 5.418-5.5 5.418a5.42 5.42 0 0 1-5.418-5.418c0-3.074 2.426-5.5 5.418-5.5a5.45 5.45 0 0 1 5.5 5.5zm-13.914 0c0 2.992-2.504 5.418-5.5 5.418a5.42 5.42 0 0 1-5.418-5.418c0-3.074 2.426-5.5 5.418-5.5a5.45 5.45 0 0 1 5.5 5.5zm7.281 40.602V66.738h-4.043c-.891 0-1.051-.16-1.051-1.051v-5.176c0-.809.16-1.051 1.051-1.051h12.781c1.129 0 1.211.16 1.211 1.211V84.37c0 2.996.16 4.449.809 6.633h3.559c.809 0 1.051.242 1.051 1.051v5.176c0 .809-.242 1.055-1.051 1.055h-10.516c-1.375 0-1.617-.324-2.344-3.398-3.883 3.559-6.473 4.77-11.082 4.77-3.559 0-6.469-1.129-8.25-2.992-2.344-2.426-2.992-4.852-2.992-11.242V66.738h-4.047c-.805 0-1.047-.16-1.047-1.051v-5.176c0-.891.242-1.051 1.047-1.051h12.781c1.133 0 1.297.16 1.297 1.211v23.215c0 6.066 1.051 7.844 4.527 7.844 2.184 0 4.125-.887 6.309-2.91m33.184-25.316c4.449-4.043 7.523-5.418 12.051-5.418 7.035 0 10.191 3.801 10.191 12.453v20.465h4.043c.813 0 1.051.242 1.051 1.051v5.176c0 .809-.238 1.055-1.051 1.055h-12.695c-1.215 0-1.379-.164-1.379-1.379v-24.18c0-4.609-1.293-6.555-4.285-6.555-2.348 0-4.207.809-6.793 3.234v21.598h4.043c.809 0 1.051.16 1.051 1.051v5.176c0 .891-.242 1.055-1.051 1.055h-18.117c-.891 0-1.051-.164-1.051-1.055v-5.176c0-.809.242-1.051 1.051-1.051h4.043V73.371c0-2.992-.16-4.285-.73-6.633h-3.801c-.887 0-1.129-.16-1.129-1.051v-5.176c0-.891.242-1.051 1.129-1.051h10.922c1.293 0 1.617.484 2.426 3.637l.082.406m50.409 2.751c-.809-.16-1.133-.242-1.859-.242-5.504 0-7.93 4.043-7.93 13.102 0 8.898 2.426 12.617 8.168 12.617 2.023 0 4.129-.484 6.148-1.453a1.78 1.78 0 0 1 .809-.242.61.61 0 0 1 .566.402l2.023 5.18c.16.484.242.563.242.805 0 .406-.242.727-.809 1.051-2.59 1.375-6.309 2.184-10.191 2.184-11.16 0-17.309-7.117-17.309-20.059 0-13.426 6.875-21.512 18.359-21.512 5.66 0 9.785 1.453 9.785 3.395v10.676c0 .891-.16 1.055-1.051 1.055h-5.902c-.809 0-1.051-.164-1.051-1.055v-5.902m27.951-3.561c3.156-3.074 6.715-4.609 10.758-4.609 4.449 0 7.926 2.02 9.301 5.336.727 1.941 1.051 3.641 1.051 7.039v20.543h4.047c.809 0 1.051.242 1.051 1.051v5.176c0 .809-.242 1.055-1.051 1.055h-12.703c-1.211 0-1.371-.164-1.371-1.379v-24.18c0-4.773-1.211-6.555-4.367-6.555-2.344 0-4.129.809-6.715 3.234v21.598h4.043c.813 0 1.051.242 1.051 1.051v5.176c0 .891-.238 1.055-1.051 1.055h-18.117c-.887 0-1.051-.164-1.051-1.055v-5.176c0-.891.242-1.051 1.051-1.051h4.043V49.188h-4.285c-.891 0-1.051-.16-1.051-1.051v-5.176c0-.809.16-1.051 1.051-1.051h13.184c.891 0 1.133.242 1.133 1.051v19.734m39.166 11.567h12.293c-.16-6.551-1.695-8.977-5.66-8.977-4.125 0-5.902 2.504-6.633 8.977zm-.16 7.277c.16 6.715 2.91 9.949 8.652 9.949 2.992 0 5.984-.809 9.059-2.426.406-.242.727-.324.973-.324.402 0 .727.242.887.73l2.023 4.609c.16.484.246.645.246.891 0 .969-1.137 1.695-4.367 2.91-3.238 1.215-6.312 1.777-9.789 1.777-11.406 0-17.551-7.195-17.551-20.461 0-12.699 6.793-21.109 17.145-21.109s15.609 7.277 15.609 21.512c0 1.539-.32 1.941-1.777 1.941h-21.109m42.027-18.034c4.445-4.043 7.52-5.418 12.051-5.418 7.035 0 10.191 3.801 10.191 12.453v20.465h4.043c.809 0 1.051.242 1.051 1.051v5.176c0 .809-.242 1.055-1.051 1.055h-12.699c-1.215 0-1.375-.164-1.375-1.379v-24.18c0-4.609-1.293-6.555-4.289-6.555-2.344 0-4.203.809-6.789 3.234v21.598h4.043c.809 0 1.051.16 1.051 1.051v5.176c0 .891-.242 1.055-1.051 1.055H309.45c-.891 0-1.051-.164-1.051-1.055v-5.176c0-.809.242-1.051 1.051-1.051h4.043V73.371c0-2.992-.164-4.285-.727-6.633h-3.805c-.887 0-1.133-.16-1.133-1.051v-5.176c0-.891.246-1.051 1.133-1.051h10.922c1.293 0 1.613.484 2.426 3.637l.082.406m48.281 28.552a7.441 7.441 0 1 1-14.883 0 7.441 7.441 0 1 1 14.883 0m5.73-32.594v-9.949c0-1.051.16-1.215 1.293-1.375l7.281-1.051h.242c.242 0 .324-.082.402-.082.57 0 .809.406.809 1.375v11.082h8.977c.973 0 1.297.16 1.297.809v.324c0 .078-.078.16-.078.32l-1.055 4.609c-.164.973-.484 1.137-1.453 1.137h-7.687v20.301c0 2.828.73 3.883 2.914 3.883 1.051 0 2.668-.328 3.801-.809l1.375-.488c.16-.16.484-.16.648-.16.402 0 .648.242.809.809l1.293 5.5.082.406c.082.16.082.238.082.402 0 .645-.324.969-1.133 1.293-2.668 1.133-6.23 1.859-9.223 1.859-5.094 0-8.734-2.262-9.945-6.145-.57-1.699-.73-3.152-.73-6.227V66.66h-5.336c-1.215 0-1.375-.164-1.375-1.297v-4.609c0-1.215.16-1.293 1.375-1.293h5.336m41.687 29.926c.887-4.531 1.938-8.656 2.746-11.406l5.34-17.469c.246-.973.406-1.051 1.457-1.051h8.57c.895 0 1.055.16 1.055 1.051v5.176c0 .891-.16 1.051-1.055 1.051h-2.668l-11.16 32.031c-.324.969-.406 1.051-1.453 1.051h-6.473c-.973 0-1.133-.164-1.457-1.051l-11.078-32.031h-2.59c-.891 0-1.051-.16-1.051-1.051v-5.176c0-.891.16-1.051 1.051-1.051h9.785c1.051 0 1.211.078 1.457 1.133L415.5 77.98c.809 2.832 1.617 6.391 2.59 11.406" fill="#fff"/></g></svg>