<?xml version="1.0" encoding="UTF-8"?>
<svg width="800" height="116.86" version="1.2" viewBox="0 0 600 87.647" xmlns="http://www.w3.org/2000/svg">
 <g transform="matrix(1.5135 0 0 1.5135 -61.787 -63.431)" fill="#38a3e1">
  <path d="m56.352 69.488v21.516h4.043c0.89062 0 1.1328 0.24219 1.1328 1.0508v5.1758c0 0.80859-0.24219 1.0547-1.1328 1.0547h-17.953c-0.80859 0-1.0508-0.24609-1.0508-1.0547v-5.1758c0-0.80859 0.16016-1.0508 1.0508-1.0508h4.043v-17.633c0-2.9922-0.16016-4.2852-0.72656-6.6328h-3.8008c-0.89062 0-1.1328-0.24219-1.1328-1.0508v-5.1758c0-0.80859 0.24219-1.0508 1.1328-1.0508h10.918c1.375 0 1.6172 0.48437 2.5078 4.125 4.3672-4.0469 7.3594-5.5 11.566-5.5 4.2031 0 6.875 1.6992 8.6523 5.5 4.3672-4.0469 7.6016-5.5 11.973-5.5 3.3164 0 5.9844 1.293 7.2773 3.4766 1.2969 2.1836 1.6992 4.4492 1.6992 9.543l-0.08203 19.898h4.125c0.80859 0 1.0508 0.24219 1.0508 1.0508v5.1758c0 0.89062-0.24219 1.0547-1.3711 1.0547h-12.297c-1.1328 0-1.293-0.16406-1.293-1.3789v-24.828c0-4.3672-0.96875-5.9062-3.6406-5.9062-2.1016 0-3.9648 0.97266-6.6328 3.3164v21.516h4.0469c0.96875 0 1.1289 0.16016 1.1289 1.375v4.8516c0 0.80859-0.24219 1.0547-1.1289 1.0547h-12.539c-1.2109 0-1.293-0.16406-1.293-1.3789l-0.08203-24.102c0-5.1758-0.72656-6.6328-3.5586-6.6328-2.0195 0-3.8828 0.89062-6.6328 3.3164"/>
  <path d="m136.45 48.219c0 2.9922-2.5078 5.418-5.5 5.418s-5.418-2.4258-5.418-5.418c0-3.0742 2.4258-5.5 5.418-5.5 3.0742 0 5.5 2.4258 5.5 5.5zm-13.914 0c0 2.9922-2.5039 5.418-5.5 5.418-2.9922 0-5.418-2.4258-5.418-5.418 0-3.0742 2.4258-5.5 5.418-5.5 3.0742 0 5.5 2.4258 5.5 5.5zm7.2812 40.602v-22.082h-4.043c-0.89062 0-1.0508-0.16016-1.0508-1.0508v-5.1758c0-0.80859 0.16016-1.0508 1.0508-1.0508h12.781c1.1289 0 1.2109 0.16016 1.2109 1.2109v23.699c0 2.9961 0.16015 4.4492 0.80859 6.6328h3.5586c0.80859 0 1.0508 0.24219 1.0508 1.0508v5.1758c0 0.80859-0.24219 1.0547-1.0508 1.0547h-10.516c-1.375 0-1.6172-0.32422-2.3438-3.3984-3.8828 3.5586-6.4726 4.7695-11.082 4.7695-3.5586 0-6.4688-1.1289-8.25-2.9922-2.3438-2.4258-2.9922-4.8516-2.9922-11.242v-18.684h-4.0469c-0.80469 0-1.0469-0.16016-1.0469-1.0508v-5.1758c0-0.89062 0.24219-1.0508 1.0469-1.0508h12.781c1.1328 0 1.2969 0.16016 1.2969 1.2109v23.215c0 6.0664 1.0508 7.8438 4.5274 7.8438 2.1836 0 4.125-0.88672 6.3086-2.9102"/>
  <path d="m163 63.504c4.4492-4.043 7.5234-5.418 12.051-5.418 7.0352 0 10.191 3.8008 10.191 12.453v20.465h4.043c0.8125 0 1.0508 0.24219 1.0508 1.0508v5.1758c0 0.80859-0.23828 1.0547-1.0508 1.0547h-12.695c-1.2148 0-1.3789-0.16406-1.3789-1.3789v-24.18c0-4.6094-1.293-6.5547-4.2852-6.5547-2.3476 0-4.207 0.80859-6.793 3.2344v21.598h4.043c0.8086 0 1.0508 0.16016 1.0508 1.0508v5.1758c0 0.89062-0.24219 1.0547-1.0508 1.0547h-18.117c-0.89063 0-1.0508-0.16406-1.0508-1.0547v-5.1758c0-0.80859 0.24218-1.0508 1.0508-1.0508h4.043v-17.633c0-2.9922-0.16016-4.2852-0.73047-6.6328h-3.8008c-0.88672 0-1.1289-0.16016-1.1289-1.0508v-5.1758c0-0.89062 0.24219-1.0508 1.1289-1.0508h10.922c1.293 0 1.6172 0.48437 2.4258 3.6367l0.082 0.40625"/>
  <path d="m213.41 66.254c-0.80859-0.16016-1.1328-0.24219-1.8594-0.24219-5.5039 0-7.9297 4.043-7.9297 13.102 0 8.8984 2.4258 12.617 8.168 12.617 2.0234 0 4.1289-0.48438 6.1484-1.4531 0.24219-0.16406 0.64844-0.24219 0.8086-0.24219 0.24218 0 0.48437 0.16016 0.5664 0.40234l2.0234 5.1797c0.16016 0.48437 0.24219 0.5625 0.24219 0.80469 0 0.40625-0.24219 0.72656-0.8086 1.0508-2.5898 1.375-6.3086 2.1836-10.191 2.1836-11.16 0-17.309-7.1172-17.309-20.059 0-13.426 6.875-21.512 18.359-21.512 5.6602 0 9.7852 1.4531 9.7852 3.3945v10.676c0 0.89062-0.16016 1.0547-1.0508 1.0547h-5.9023c-0.80859 0-1.0508-0.16406-1.0508-1.0547v-5.9023"/>
  <path d="m241.36 62.695c3.1562-3.0742 6.7148-4.6094 10.758-4.6094 4.4492 0 7.9258 2.0195 9.3008 5.3359 0.72656 1.9414 1.0508 3.6406 1.0508 7.0391v20.543h4.0469c0.80859 0 1.0508 0.24219 1.0508 1.0508v5.1758c0 0.80859-0.24219 1.0547-1.0508 1.0547h-12.703c-1.2109 0-1.3711-0.16406-1.3711-1.3789v-24.18c0-4.7734-1.2109-6.5547-4.3672-6.5547-2.3438 0-4.1289 0.80859-6.7148 3.2344v21.598h4.043c0.8125 0 1.0508 0.24219 1.0508 1.0508v5.1758c0 0.89062-0.23828 1.0547-1.0508 1.0547h-18.117c-0.88672 0-1.0508-0.16406-1.0508-1.0547v-5.1758c0-0.89063 0.24219-1.0508 1.0508-1.0508h4.043v-41.816h-4.2852c-0.89062 0-1.0508-0.16016-1.0508-1.0508v-5.1758c0-0.80859 0.16016-1.0508 1.0508-1.0508h13.184c0.89062 0 1.1328 0.24219 1.1328 1.0508v19.734"/>
  <path d="m280.52 74.262h12.293c-0.16016-6.5508-1.6953-8.9766-5.6602-8.9766-4.125 0-5.9023 2.5039-6.6328 8.9766zm-0.16016 7.2773c0.16016 6.7148 2.9102 9.9492 8.6523 9.9492 2.9922 0 5.9844-0.80859 9.0586-2.4258 0.40625-0.24219 0.72656-0.32422 0.97265-0.32422 0.40235 0 0.72657 0.24219 0.88672 0.73047l2.0234 4.6094c0.16016 0.48438 0.24609 0.64453 0.24609 0.89062 0 0.96875-1.1367 1.6953-4.3672 2.9102-3.2383 1.2148-6.3125 1.7773-9.7891 1.7773-11.406 0-17.551-7.1953-17.551-20.461 0-12.699 6.793-21.109 17.145-21.109s15.609 7.2773 15.609 21.512c0 1.5391-0.32031 1.9414-1.7773 1.9414h-21.109"/>
  <path d="m322.39 63.504c4.4453-4.043 7.5195-5.418 12.051-5.418 7.0352 0 10.191 3.8008 10.191 12.453v20.465h4.043c0.80859 0 1.0508 0.24219 1.0508 1.0508v5.1758c0 0.80859-0.24219 1.0547-1.0508 1.0547h-12.699c-1.2148 0-1.375-0.16406-1.375-1.3789v-24.18c0-4.6094-1.293-6.5547-4.2891-6.5547-2.3438 0-4.2031 0.80859-6.7891 3.2344v21.598h4.043c0.80859 0 1.0508 0.16016 1.0508 1.0508v5.1758c0 0.89062-0.24219 1.0547-1.0508 1.0547h-18.117c-0.89063 0-1.0508-0.16406-1.0508-1.0547v-5.1758c0-0.80859 0.24218-1.0508 1.0508-1.0508h4.043v-17.633c0-2.9922-0.16407-4.2852-0.72657-6.6328h-3.8047c-0.88672 0-1.1328-0.16016-1.1328-1.0508v-5.1758c0-0.89062 0.2461-1.0508 1.1328-1.0508h10.922c1.293 0 1.6133 0.48437 2.4258 3.6367l0.082 0.40625"/>
  <path d="m370.67 92.055c0 4.125-3.3164 7.4414-7.4414 7.4414s-7.4414-3.3164-7.4414-7.4414 3.3164-7.4414 7.4414-7.4414 7.4414 3.3164 7.4414 7.4414"/>
  <path d="m376.4 59.461v-9.9492c0-1.0508 0.16016-1.2148 1.293-1.375l7.2812-1.0508h0.24219c0.24219 0 0.32422-0.08203 0.40234-0.08203 0.57032 0 0.8086 0.40625 0.8086 1.375v11.082h8.9766c0.97266 0 1.2969 0.16016 1.2969 0.80859v0.32422c0 0.07813-0.0781 0.16016-0.0781 0.32031l-1.0547 4.6094c-0.16406 0.97266-0.48437 1.1367-1.4531 1.1367h-7.6875v20.301c0 2.8281 0.73047 3.8828 2.9141 3.8828 1.0508 0 2.668-0.32812 3.8008-0.80859l1.375-0.48828c0.16016-0.16016 0.48438-0.16016 0.64844-0.16016 0.40234 0 0.64844 0.24219 0.80859 0.80859l1.293 5.5 0.082 0.40625c0.082 0.16016 0.082 0.23828 0.082 0.40234 0 0.64453-0.32422 0.96875-1.1328 1.293-2.668 1.1328-6.2305 1.8594-9.2227 1.8594-5.0938 0-8.7344-2.2617-9.9453-6.1445-0.57031-1.6992-0.73047-3.1523-0.73047-6.2266v-20.625h-5.3359c-1.2148 0-1.375-0.16406-1.375-1.2969v-4.6094c0-1.2148 0.16015-1.293 1.375-1.293h5.3359"/>
  <path d="m418.09 89.387c0.88672-4.5312 1.9375-8.6562 2.7461-11.406l5.3398-17.469c0.24609-0.97266 0.40625-1.0508 1.457-1.0508h8.5703c0.89454 0 1.0547 0.16016 1.0547 1.0508v5.1758c0 0.89062-0.16015 1.0508-1.0547 1.0508h-2.668l-11.16 32.031c-0.32422 0.96875-0.40625 1.0508-1.4531 1.0508h-6.4726c-0.97266 0-1.1328-0.16406-1.457-1.0508l-11.078-32.031h-2.5898c-0.89063 0-1.0508-0.16016-1.0508-1.0508v-5.1758c0-0.89062 0.16015-1.0508 1.0508-1.0508h9.7852c1.0508 0 1.2109 0.07812 1.457 1.1328l4.9336 17.387c0.80859 2.832 1.6172 6.3906 2.5898 11.406"/>
 </g>
</svg>
