<?xml version="1.0" encoding="UTF-8"?>
<svg width="800pt" height="101.14pt" version="1.2" viewBox="0 0 800 101.14" xmlns="http://www.w3.org/2000/svg">
	<g fill="#38a3e1">
		<path d="m27.119 48.166v37.577h7.0611c1.5555 0 1.9785 0.423 1.9785 1.8352v9.0396c0 1.4122-0.42298 1.842-1.9785 1.842h-31.355c-1.4122 0-1.8352-0.4298-1.8352-1.842v-9.0396c0-1.4122 0.27972-1.8352 1.8352-1.8352h7.0611v-30.796c0-5.2259-0.27972-7.4841-1.269-11.584h-6.6381c-1.5555 0-1.9785-0.423-1.9785-1.8352v-9.0396c0-1.4122 0.42298-1.8352 1.9785-1.8352h19.068c2.4015 0 2.8244 0.84596 4.3799 7.2044 7.6274-7.0679 12.853-9.6058 20.201-9.6058 7.3408 0 12.007 2.9677 15.111 9.6058 7.6274-7.0679 13.276-9.6058 20.91-9.6058 5.7922 0 10.452 2.2582 12.71 6.0718 2.265 3.8137 2.9677 7.7706 2.9677 16.667l-0.14328 34.753h7.2044c1.4122 0 1.8352 0.423 1.8352 1.8352v9.0396c0 1.5555-0.42299 1.842-2.3946 1.842h-21.477c-1.9785 0-2.2582-0.28669-2.2582-2.4083v-43.363c0-7.6274-1.6919-10.315-6.3584-10.315-3.6704 0-6.9247 1.6988-11.584 5.7922v37.577h7.0679c1.6919 0 1.9717 0.27965 1.9717 2.4015v8.4733c0 1.4122-0.42298 1.842-1.9717 1.842h-21.9c-2.1149 0-2.2582-0.28669-2.2582-2.4083l-0.14328-42.094c0-9.0396-1.269-11.584-6.2151-11.584-3.5271 0-6.7814 1.5555-11.584 5.7922"/>
		<path d="m167 11.018c0 5.2259-4.38 9.4626-9.6058 9.4626s-9.4626-4.2367-9.4626-9.4626c0-5.3692 4.2367-9.6058 9.4626-9.6058 5.3692 0 9.6058 4.2367 9.6058 9.6058zm-24.301 0c0 5.2259-4.3731 9.4626-9.6058 9.4626-5.2259 0-9.4626-4.2367-9.4626-9.4626 0-5.3692 4.2367-9.6058 9.4626-9.6058 5.3692 0 9.6058 4.2367 9.6058 9.6058zm12.717 70.911v-38.567h-7.0611c-1.5555 0-1.8352-0.27965-1.8352-1.8352v-9.0396c0-1.4122 0.27965-1.8352 1.8352-1.8352h22.323c1.9716 0 2.1149 0.27965 2.1149 2.1149v41.391c0 5.2327 0.27965 7.7706 1.4122 11.584h6.2151c1.4122 0 1.8352 0.423 1.8352 1.8352v9.0396c0 1.4122-0.423 1.842-1.8352 1.842h-18.366c-2.4014 0-2.8244-0.56623-4.0934-5.9354-6.7814 6.2151-11.305 8.3301-19.355 8.3301-6.2151 0-11.298-1.9716-14.409-5.2259-4.0934-4.2367-5.2259-8.4733-5.2259-19.635v-32.631h-7.0679c-1.4054 0-1.8284-0.27965-1.8284-1.8352v-9.0396c0-1.5555 0.42299-1.8352 1.8284-1.8352h22.323c1.9785 0 2.265 0.27965 2.265 2.1149v40.545c0 10.595 1.8352 13.699 7.9071 13.699 3.8137 0 7.2044-1.5487 11.018-5.0826"/>
		<path d="m213.38 37.714c7.7707-7.0611 13.14-9.4626 21.047-9.4626 12.287 0 17.799 6.6381 17.799 21.75v35.742h7.0611c1.419 0 1.8352 0.423 1.8352 1.8352v9.0396c0 1.4122-0.41615 1.842-1.8352 1.842h-22.173c-2.1218 0-2.4083-0.28669-2.4083-2.4083v-42.23c0-8.0504-2.2582-11.448-7.4841-11.448-4.1002 0-7.3476 1.4122-11.864 5.6489v37.721h7.0611c1.4122 0 1.8352 0.27965 1.8352 1.8352v9.0396c0 1.5555-0.42299 1.842-1.8352 1.842h-31.642c-1.5555 0-1.8352-0.28669-1.8352-1.842v-9.0396c0-1.4122 0.42296-1.8352 1.8352-1.8352h7.0611v-30.796c0-5.2259-0.27965-7.4841-1.2758-11.584h-6.6381c-1.5487 0-1.9717-0.27965-1.9717-1.8352v-9.0396c0-1.5555 0.42296-1.8352 1.9717-1.8352h19.075c2.2582 0 2.8244 0.84596 4.2367 6.3516l0.14317 0.70955"/>
		<path d="m301.42 42.517c-1.4122-0.27964-1.9785-0.42299-3.2474-0.42299-9.6127 0-13.849 7.0611-13.849 22.882 0 15.541 4.2367 22.036 14.266 22.036 3.534 0 7.2112-0.84595 10.738-2.5379 0.42299-0.2867 1.1325-0.423 1.4123-0.423 0.42295 0 0.84595 0.27965 0.98923 0.70271l3.534 9.0464c0.27964 0.84598 0.42299 0.98242 0.42299 1.4054 0 0.70951-0.42299 1.2689-1.4123 1.8352-4.5232 2.4015-11.018 3.8137-17.799 3.8137-19.491 0-30.23-12.43-30.23-35.033 0-23.448 12.007-37.571 32.065-37.571 9.8856 0 17.09 2.5379 17.09 5.9286v18.645c0 1.5555-0.27965 1.842-1.8352 1.842h-10.309c-1.4122 0-1.8352-0.28669-1.8352-1.842v-10.309"/>
		<path d="m350.23 36.302c5.5124-5.3692 11.728-8.0504 18.789-8.0504 7.7706 0 13.842 3.5271 16.244 9.3193 1.269 3.3907 1.8352 6.3584 1.8352 12.294v35.879h7.068c1.4122 0 1.8352 0.423 1.8352 1.8352v9.0396c0 1.4122-0.423 1.842-1.8352 1.842h-22.186c-2.1149 0-2.3946-0.28669-2.3946-2.4083v-42.23c0-8.3369-2.1149-11.448-7.6274-11.448-4.0934 0-7.2112 1.4122-11.728 5.6489v37.721h7.0611c1.419 0 1.8352 0.423 1.8352 1.8352v9.0396c0 1.5555-0.41615 1.842-1.8352 1.842h-31.642c-1.5487 0-1.8352-0.28669-1.8352-1.842v-9.0396c0-1.5555 0.42299-1.8352 1.8352-1.8352h7.0611v-73.033h-7.4841c-1.5555 0-1.8352-0.27965-1.8352-1.8352v-9.0396c0-1.4122 0.27965-1.8352 1.8352-1.8352h23.025c1.5555 0 1.9785 0.42296 1.9785 1.8352v34.466"/>
		<path d="m418.64 56.503h21.47c-0.27965-11.441-2.9609-15.678-9.8856-15.678-7.2044 0-10.309 4.3731-11.584 15.678zm-0.27965 12.71c0.27965 11.728 5.0826 17.376 15.111 17.376 5.2259 0 10.452-1.4122 15.821-4.2367 0.70952-0.42295 1.269-0.56623 1.6988-0.56623 0.70271 0 1.269 0.42299 1.5487 1.2758l3.534 8.0504c0.27964 0.84595 0.4298 1.1257 0.4298 1.5555 0 1.6919-1.9853 2.9609-7.6274 5.0826-5.6557 2.1217-11.025 3.1042-17.097 3.1042-19.921 0-30.653-12.567-30.653-35.735 0-22.179 11.864-36.868 29.943-36.868 18.079 0 27.262 12.71 27.262 37.571 0 2.688-0.55943 3.3907-3.1041 3.3907h-36.868"/>
		<path d="m491.76 37.714c7.7638-7.0611 13.133-9.4626 21.047-9.4626 12.287 0 17.799 6.6381 17.799 21.75v35.742h7.0611c1.4122 0 1.8352 0.423 1.8352 1.8352v9.0396c0 1.4122-0.42299 1.842-1.8352 1.842h-22.179c-2.1217 0-2.4014-0.28669-2.4014-2.4083v-42.23c0-8.0504-2.2582-11.448-7.4909-11.448-4.0934 0-7.3409 1.4122-11.857 5.6489v37.721h7.0611c1.4122 0 1.8352 0.27965 1.8352 1.8352v9.0396c0 1.5555-0.42296 1.842-1.8352 1.842h-31.642c-1.5555 0-1.8352-0.28669-1.8352-1.842v-9.0396c0-1.4122 0.42296-1.8352 1.8352-1.8352h7.0611v-30.796c0-5.2259-0.2867-7.4841-1.269-11.584h-6.645c-1.5487 0-1.9785-0.27965-1.9785-1.8352v-9.0396c0-1.5555 0.4298-1.8352 1.9785-1.8352h19.075c2.2582 0 2.8176 0.84596 4.2366 6.3516l0.14317 0.70955"/>
		<path d="m576.08 87.578c0 7.2044-5.7921 12.997-12.997 12.997-7.2044 0-12.997-5.7922-12.997-12.997 0-7.2044 5.7922-12.997 12.997-12.997 7.2044 0 12.997 5.7922 12.997 12.997"/>
		<path d="m609.57 8.8966c-0.12977 0.0141-0.28 0.14458-0.67668 0.14458h-0.4236l-12.713 1.8338c-1.9785 0.27964-2.2626 0.56683-2.2626 2.402v17.377h-9.3188c-2.1217 0-2.402 0.13576-2.402 2.2574v8.0481c0 1.9785 0.28035 2.2677 2.402 2.2677h9.3188v36.02c0 5.3692 0.27999 7.906 1.2759 10.874 2.1149 6.7814 8.4757 10.734 17.372 10.734 5.2259 0 11.447-1.2707 16.106-3.2492 1.4122-0.56624 1.9784-1.1317 1.9784-2.2574 0-0.28669-1e-3 -0.42281-0.14459-0.70253l-0.13964-0.70772-2.2574-9.6081c-0.27964-0.98926-0.71268-1.4102-1.4154-1.4102-0.28635 0-0.85156-7.4e-4 -1.1313 0.27894l-2.402 0.8523c-1.9785 0.83915-4.8027 1.4102-6.6379 1.4102-3.8137 0-5.0882-1.838-5.0882-6.7774v-35.323h20.626l19.35 55.944c0.56624 1.5487 0.84789 1.8338 2.5467 1.8338h11.302c1.8284 0 1.9701-0.14176 2.5363-1.8338l19.495-55.944h4.6594c1.5623 0 1.839-0.27824 1.839-1.8338v-9.0398c0-1.5555-0.27683-1.8338-1.839-1.8338h-14.97c-1.8352 0-2.1169 0.13506-2.5467 1.8338l-9.324 30.508c-1.4122 4.8029-3.2502 12.01-4.7988 19.924-1.6988-8.7599-3.1078-14.978-4.52-19.924l-8.6163-30.364c-0.42984-1.842-0.71146-1.9785-2.5467-1.9785h-33.194v-19.356c0-1.6919-0.41929-2.402-1.4154-2.402-7e-3 0-0.0176-1e-3 -0.0247 0z"/>
		<path d="m729.4 0.4249v42.937h10.352v-17.93h12.16v17.93h10.321v-42.937h-10.321v17.047h-12.16v-17.047zm36.852 0v42.937c7.2405 0 14.322 0.47878 21.275-1.2638 7.7152-2.6476 12.481-10.771 12.43-18.726 0.30327-5.8448-0.93024-12.033-4.9475-16.496-4.0741-4.8406-10.563-6.4512-16.772-6.4512zm10.352 7.9912c3.3875-7e-3 7.2932-0.34876 9.7828 2.4403 3.4525 3.93 3.112 9.5114 2.9113 14.405-0.2405 4.2278-2.3671 9.1439-7.0118 9.9415-1.8743 0.3403-3.8918 0.19889-5.6823 0.19889z"/>
	</g>
</svg>
