<svg xmlns="http://www.w3.org/2000/svg" viewBox="0 0 723.5 271.5"><path fill="#fff" d="M0 0h435v271.5H0z"/><path d="M0 0v271.5h435V0H0zm172.3 203.7c0 1.7 0 3.2-2.5 3.2-11.7-.1-23.5-.1-35.2-.1-.2 0-.5-.2-1.2-.5V131.7c0-8.7-1.7-10.5-10.5-10.5-6.2 0-12.5.2-18.7-.1-3.7-.2-4.9.7-4.9 4.7.2 25.4.1 50.7.1 76.1 0 5 0 5-5.1 5-10.1 0-20.2-.1-30.4 0-2.6 0-3.5-.8-3.5-3.4.1-38.9.1-77.7 0-116.6 0-2.4.7-3.3 3.2-3.3 27 .1 54-.1 81 .1 15.9.2 27.5 11.8 27.6 27.7.3 30.8.1 61.6.1 92.3zM371.6 107c-12.6 32.2-25.2 64.5-37.7 96.7-1 2.5-2.2 3.4-4.9 3.4-10.5-.1-21-.2-31.5 0-3.3.1-4.5-1.2-5.6-4-10-25.9-20.1-51.7-30.1-77.5-1.3-3.3-2.9-4.6-6.5-4.4-7.1.3-14.2.2-21.4 0-2.4 0-3.6.5-3.6 3.3.1 13.2 0 26.5.1 39.7 0 5.9 2.3 8 8.3 8.1 3.7.1 7.5.1 11.2 0 2.4-.1 3.4.6 3.3 3.2-.1 10-.1 20 0 30 0 2.3-.7 3.4-3.2 3.4-10.1-.1-20.3.3-30.4-.2-17.7-.8-28.3-12-28.4-29.7-.1-43.7 0-87.5-.1-131.2 0-2.6.8-3.7 3.4-4.2 11.6-2.2 23.2-4.5 35.5-7v47.2h4.9c16.1 0 32.2.1 48.4-.1 3.2 0 4.5 1.1 5.5 4 7.4 21.6 14.9 43.2 22.4 64.8.3.9.7 1.8 1.5 3.8 1.1-2.9 2-5 2.7-7.2 7.2-20.6 14.4-41.3 21.4-62 .9-2.6 2.1-3.4 4.8-3.4 12.6.1 25.2.1 38.6.1-2.7 8.1-5.6 15.7-8.6 23.2z" fill="#d61f2c"/><path fill="#f3f2f3" d="M456.2 0h267.5v271.5H456.2z"/><path d="M598.4 85.4v100.7h4.61c.535.065 1.127.1 1.79.1 12.2 0 24.4.2 36.5-.4 14.2-.7 24.4-7.6 28.9-21.5 6.1-18.8 5.8-37.8.5-56.6-3.7-13-13.3-19.4-26.8-21.1-8.062-1-16.242-1.18-24.295-1.174-1.622.001-3.194.014-4.804.025v-.05h-16.4zm20.3 15.5c5.5.2 11-.1 16.5.1 11.3.3 16.7 4.4 18.9 15 2.7 13 2.8 26.1 0 39-2.4 11.3-9.2 16.3-21.2 16.6-11.518.237-16.198.334-18.1-3.52v-66.268c.834-.706 2.097-1.004 3.9-.912zM505.3 85.4h16.4v42.4h43.4V85.4h16.4v100.8h-16.4v-42.4l-43.1-.3v42.7h-16.7z" fill="#9b9696"/></svg>