<?xml version="1.0" encoding="UTF-8"?>
<svg version="1.1" viewBox="0 0 800 217.52" xmlns="http://www.w3.org/2000/svg">
	<g fill="#fff">
		<path d="m369.34 191.24-43.066-96.35-43.066 96.35-68.613-160.58h36.496l35.766 86.861 40.146-91.241 39.416 91.241 36.496-86.861h35.036z"/>
		<rect x="463.5" y="30.657" width="34.307" height="154.01"/>
		<path d="m577.37 156.93h65.694l-10.219 27.737h-89.051v-154.01h33.577z"/>
		<path d="m702.92 58.394v98.54h14.599c29.197 0 48.905-22.628 48.905-48.905 0-27.007-19.708-48.905-48.175-48.905h-15.328zm16.788-27.737c44.526 0 80.292 32.847 80.292 76.642s-35.766 76.642-80.292 76.642h-51.095v-153.28z"/>
	</g>
	<path d="m130.66 195.62h-108.76v-173.72h108.76zm-130.66 21.898h152.55v-217.52h-152.55z" fill="#fc0"/>
</svg>
