<?xml version="1.0" encoding="UTF-8" standalone="no"?>
<!-- Created with Inkscape (http://www.inkscape.org/) -->
<svg
   xmlns:dc="http://purl.org/dc/elements/1.1/"
   xmlns:cc="http://web.resource.org/cc/"
   xmlns:rdf="http://www.w3.org/1999/02/22-rdf-syntax-ns#"
   xmlns:svg="http://www.w3.org/2000/svg"
   xmlns="http://www.w3.org/2000/svg"
   xmlns:sodipodi="http://sodipodi.sourceforge.net/DTD/sodipodi-0.dtd"
   xmlns:inkscape="http://www.inkscape.org/namespaces/inkscape"
   width="287"
   height="173"
   id="svg2"
   sodipodi:version="0.32"
   inkscape:version="0.45.1"
   inkscape:output_extension="org.inkscape.output.svg.inkscape"
   version="1.0">
 <g
     inkscape:label="Layer 1"
     inkscape:groupmode="layer"
     id="layer1"
     transform="translate(-785.45717,36.126491)">
    <g
       clip-path="url(#id118)"
       id="g2484"
       transform="matrix(5.128755,0,0,-5.128755,-1483.0681,2571.9121)">
      <g
         transform="translate(475.4,482.613)"
         id="g2486">
        <path
           style="fill:#003169;fill-rule:evenodd;stroke:none"
           d="M 0,0 L -3.183,0 L -5.564,5.124 L -7.166,5.124 L -7.166,0 L -10.128,0 L -10.128,13.351 L -5.464,13.351 C -2.542,13.351 -0.62,12.39 -0.62,9.187 C -0.62,7.566 -1.261,6.265 -2.822,5.665 L 0,0 z M -3.463,9.348 C -3.463,10.649 -4.163,10.989 -5.344,10.989 L -7.226,10.989 L -7.226,7.546 L -5.344,7.546 C -4.223,7.546 -3.463,8.187 -3.463,9.348"
           id="path2488" />
      </g>
      <path
         style="fill:#003169;fill-rule:nonzero;stroke:none"
         d="M 454.184,508.513 L 452.603,508.513 L 452.603,495.963 L 454.184,495.963 L 454.184,508.513 z "
         id="path2490" />
      <g
         transform="translate(463.911,487.297)"
         id="g2492">
        <path
           style="fill:#003169;fill-rule:evenodd;stroke:none"
           d="M 0,0 C 0,-3.383 -1.761,-4.684 -5.004,-4.684 L -9.727,-4.684 L -9.727,8.667 L -5.004,8.667 C -1.881,8.667 0,7.286 0,4.023 L 0,0 z M -2.882,0.28 L -2.882,3.723 C -2.882,5.344 -3.623,6.145 -5.264,6.145 L -6.685,6.145 L -6.685,-2.162 L -5.264,-2.162 C -3.623,-2.162 -2.882,-1.341 -2.882,0.28"
           id="path2494" />
      </g>
      <g
         transform="translate(452.602,482.613)"
         id="g2496">
        <path
           style="fill:#003169;fill-rule:nonzero;stroke:none"
           d="M 0,0 L 0,13.351 L -2.822,13.351 L -2.822,5.045 L -7.325,13.351 L -10.287,13.351 L -10.287,0 L -7.465,0 L -7.465,7.786 L -3.142,0 L 0,0 z "
           id="path2498" />
      </g>
      <path
         style="fill:#003169;fill-rule:nonzero;stroke:none"
         d="M 454.184,482.613 L 452.603,482.613 L 452.603,476.908 L 454.184,476.908 L 454.184,482.613 z "
         id="path2500" />
      <g
         transform="translate(460.454,474.872)"
         id="g2502">
        <path
           style="fill:#003169;fill-rule:nonzero;stroke:none"
           d="M 0,0 L 0,4.61 L -0.546,4.61 L -0.546,1.237 C -0.546,0.878 -0.532,0.774 -0.512,0.643 C -0.553,0.802 -0.595,0.899 -0.774,1.258 L -2.46,4.61 L -3.193,4.61 L -3.193,0 L -2.64,0 L -2.64,3.269 C -2.64,3.663 -2.64,3.746 -2.675,3.96 C -2.626,3.76 -2.523,3.573 -2.371,3.276 L -0.705,0 L 0,0 z "
           id="path2504" />
      </g>
      <path
         style="fill:#003169;fill-rule:evenodd;stroke:none"
         d="M 462.052,479.648 L 461.444,479.648 L 461.444,478.929 L 462.052,478.929 L 462.052,479.648 z M 462.017,478.438 L 461.485,478.438 L 461.485,474.872 L 462.017,474.872 L 462.017,478.438 z "
         id="path2506" />
      <g
         transform="translate(465.093,477.015)"
         id="g2508">
        <path
           style="fill:#003169;fill-rule:evenodd;stroke:none"
           d="M 0,0 L -1.659,0 C -1.597,0.739 -1.279,1.071 -0.788,1.071 C -0.332,1.071 -0.007,0.684 0,0 M 0.546,-1.348 L 0.096,-1.106 C -0.069,-1.514 -0.318,-1.79 -0.767,-1.79 C -1.369,-1.79 -1.652,-1.375 -1.659,-0.436 L 0.546,-0.436 L 0.546,-0.132 C 0.546,0.705 0.179,1.513 -0.774,1.513 C -1.624,1.513 -2.219,0.919 -2.219,-0.325 C -2.219,-1.541 -1.749,-2.233 -0.774,-2.233 C -0.035,-2.233 0.331,-1.839 0.546,-1.348"
           id="path2510" />
      </g>
      <g
         transform="translate(468.604,475.737)"
         id="g2512">
        <path
           style="fill:#003169;fill-rule:evenodd;stroke:none"
           d="M 0,0 C -0.263,-0.312 -0.504,-0.484 -0.808,-0.484 C -1.361,-0.484 -1.665,-0.028 -1.665,0.897 C -1.665,1.824 -1.368,2.328 -0.822,2.328 C -0.47,2.328 -0.249,2.156 0,1.934 L 0,0 z M 0.532,-0.865 L 0.532,3.911 L 0,3.911 L 0,2.349 C -0.256,2.598 -0.65,2.757 -0.988,2.757 C -1.79,2.757 -2.232,2.093 -2.232,0.904 C -2.232,-0.277 -1.769,-0.927 -0.967,-0.927 C -0.518,-0.927 -0.242,-0.699 0.007,-0.45 L 0.021,-0.865 L 0.532,-0.865 z "
           id="path2514" />
      </g>
      <g
         transform="translate(472.276,477.015)"
         id="g2516">
        <path
           style="fill:#003169;fill-rule:evenodd;stroke:none"
           d="M 0,0 L -1.659,0 C -1.596,0.739 -1.279,1.071 -0.788,1.071 C -0.332,1.071 -0.007,0.684 0,0 M 0.546,-1.348 L 0.096,-1.106 C -0.069,-1.514 -0.318,-1.79 -0.768,-1.79 C -1.369,-1.79 -1.652,-1.375 -1.659,-0.436 L 0.546,-0.436 L 0.546,-0.132 C 0.546,0.705 0.179,1.513 -0.774,1.513 C -1.624,1.513 -2.219,0.919 -2.219,-0.325 C -2.219,-1.541 -1.749,-2.233 -0.774,-2.233 C -0.035,-2.233 0.331,-1.839 0.546,-1.348"
           id="path2518" />
      </g>
      <g
         transform="translate(475.504,477.954)"
         id="g2520">
        <path
           style="fill:#003169;fill-rule:nonzero;stroke:none"
           d="M 0,0 L 0,0.567 C -0.049,0.567 -0.111,0.56 -0.18,0.554 C -0.761,0.498 -0.982,0.187 -1.244,-0.255 L -1.244,0.484 L -1.763,0.484 L -1.763,-3.082 L -1.23,-3.082 L -1.23,-0.932 C -0.954,-0.373 -0.636,-0.089 -0.304,-0.027 C -0.201,-0.006 -0.097,-0.006 0,0"
           id="path2522" />
      </g>
      <g
         transform="translate(478.387,475.805)"
         id="g2524">
        <path
           style="fill:#003169;fill-rule:nonzero;stroke:none"
           d="M 0,0 C 0,1.224 -1.893,1.023 -1.893,1.831 C -1.893,2.129 -1.679,2.295 -1.237,2.295 C -0.684,2.295 -0.518,1.839 -0.518,1.839 L -0.076,2.053 C -0.076,2.053 -0.325,2.723 -1.237,2.723 C -1.976,2.723 -2.419,2.371 -2.419,1.79 C -2.419,0.594 -0.525,0.74 -0.525,-0.062 C -0.525,-0.414 -0.829,-0.601 -1.279,-0.601 C -1.942,-0.601 -2.128,-0.007 -2.128,-0.007 L -2.563,-0.221 C -2.563,-0.221 -2.356,-1.023 -1.271,-1.023 C -0.511,-1.023 0,-0.726 0,0"
           id="path2526" />
      </g>
      <g
         transform="translate(481.019,475.771)"
         id="g2528">
        <path
           style="fill:#003169;fill-rule:evenodd;stroke:none"
           d="M 0,0 C -0.297,-0.443 -0.594,-0.532 -0.912,-0.532 C -1.265,-0.532 -1.478,-0.297 -1.478,0.09 C -1.478,0.802 -0.532,0.932 0,0.995 L 0,0 z M 0.526,-0.899 L 0.526,1.686 C 0.526,2.398 0.125,2.757 -0.677,2.757 C -1.541,2.757 -1.9,2.183 -1.956,2.087 L -1.548,1.824 C -1.527,1.873 -1.251,2.322 -0.691,2.322 C -0.214,2.322 0,2.052 0,1.652 L 0,1.382 C -0.808,1.285 -2.018,1.099 -2.018,0.048 C -2.018,-0.56 -1.631,-0.961 -1.03,-0.961 C -0.567,-0.961 -0.256,-0.83 0.028,-0.471 L 0.035,-0.899 L 0.526,-0.899 z "
           id="path2530" />
      </g>
      <g
         transform="translate(483.762,478.528)"
         id="g2532">
        <path
           style="fill:#003169;fill-rule:nonzero;stroke:none"
           d="M 0,0 C -1.078,0 -1.396,-1.03 -1.396,-1.935 C -1.396,-2.847 -1.057,-3.746 -0.006,-3.746 C 0.505,-3.746 0.927,-3.545 1.175,-3.096 C 1.231,-2.992 1.286,-2.854 1.306,-2.744 L 0.816,-2.571 C 0.761,-2.985 0.429,-3.303 0,-3.303 C -0.725,-3.303 -0.836,-2.46 -0.836,-1.9 C -0.836,-1.34 -0.746,-0.442 0,-0.442 C 0.422,-0.442 0.713,-0.801 0.774,-1.188 L 1.279,-1.057 C 1.258,-0.933 1.21,-0.801 1.148,-0.691 C 0.913,-0.235 0.512,0 0,0"
           id="path2534" />
      </g>
      <g
         transform="translate(488.368,474.872)"
         id="g2536">
        <path
           style="fill:#003169;fill-rule:nonzero;stroke:none"
           d="M 0,0 L 0,2.405 C 0,3.076 -0.09,3.628 -0.968,3.628 C -1.431,3.628 -2.004,3.159 -2.004,3.159 L -2.004,4.776 L -2.537,4.776 L -2.537,0 L -2.004,0 L -2.004,2.751 C -2.004,2.751 -1.486,3.193 -1.072,3.193 C -0.623,3.193 -0.532,2.958 -0.532,2.516 L -0.532,0 L 0,0 z "
           id="path2538" />
      </g>
      <g
         transform="translate(491.591,475.805)"
         id="g2540">
        <path
           style="fill:#003169;fill-rule:nonzero;stroke:none"
           d="M 0,0 C 0,1.224 -1.893,1.023 -1.893,1.831 C -1.893,2.129 -1.679,2.295 -1.237,2.295 C -0.684,2.295 -0.518,1.839 -0.518,1.839 L -0.076,2.053 C -0.076,2.053 -0.324,2.723 -1.237,2.723 C -1.976,2.723 -2.419,2.371 -2.419,1.79 C -2.419,0.594 -0.525,0.74 -0.525,-0.062 C -0.525,-0.414 -0.829,-0.601 -1.279,-0.601 C -1.942,-0.601 -2.129,-0.007 -2.129,-0.007 L -2.564,-0.221 C -2.564,-0.221 -2.356,-1.023 -1.271,-1.023 C -0.511,-1.023 0,-0.726 0,0"
           id="path2542" />
      </g>
      <g
         transform="translate(494.341,477.015)"
         id="g2544">
        <path
           style="fill:#003169;fill-rule:evenodd;stroke:none"
           d="M 0,0 L -1.659,0 C -1.596,0.739 -1.279,1.071 -0.788,1.071 C -0.332,1.071 -0.007,0.684 0,0 M 0.546,-1.348 L 0.097,-1.106 C -0.069,-1.514 -0.318,-1.79 -0.767,-1.79 C -1.369,-1.79 -1.652,-1.375 -1.659,-0.436 L 0.546,-0.436 L 0.546,-0.132 C 0.546,0.705 0.179,1.513 -0.774,1.513 C -1.624,1.513 -2.219,0.919 -2.219,-0.325 C -2.219,-1.541 -1.749,-2.233 -0.774,-2.233 C -0.035,-2.233 0.331,-1.839 0.546,-1.348"
           id="path2546" />
      </g>
      <g
         transform="translate(498.274,474.872)"
         id="g2548">
        <path
           style="fill:#003169;fill-rule:nonzero;stroke:none"
           d="M 0,0 L 0,2.468 C 0,3.324 -0.283,3.622 -0.961,3.622 C -1.292,3.622 -1.645,3.442 -2.025,3.145 L -2.032,3.566 L -2.537,3.566 L -2.537,0 L -2.004,0 L -2.004,2.751 C -1.638,3.041 -1.306,3.193 -1.057,3.193 C -0.684,3.193 -0.532,3.021 -0.532,2.551 L -0.532,0 L 0,0 z "
           id="path2550" />
      </g>
      <g
         transform="translate(479.902,492.25)"
         id="g2552">
        <path
           style="fill:#ee7200;fill-rule:nonzero;stroke:none"
           d="M 0,0 L -1.956,0 L -1.956,1.9 L -1.724,1.945 C -0.817,2.124 -0.317,2.359 0.023,2.622 C 0.196,2.754 0.334,2.899 0.469,3.061 C 0.61,3.232 0.741,3.413 0.889,3.602 L 0.975,3.714 L 2.798,3.714 L 2.798,-7.237 L 4.77,-7.237 L 4.77,-9.637 L -1.981,-9.637 L -1.981,-7.237 L 0,-7.237 L 0,0 z "
           id="path2554" />
      </g>
    </g>
  </g>
</svg>
