<?xml version="1.0" encoding="UTF-8" standalone="no"?>
<svg
   xmlns:dc="http://purl.org/dc/elements/1.1/"
   xmlns:cc="http://creativecommons.org/ns#"
   xmlns:rdf="http://www.w3.org/1999/02/22-rdf-syntax-ns#"
   xmlns:svg="http://www.w3.org/2000/svg"
   xmlns="http://www.w3.org/2000/svg"
   xmlns:sodipodi="http://sodipodi.sourceforge.net/DTD/sodipodi-0.dtd"
   xmlns:inkscape="http://www.inkscape.org/namespaces/inkscape"
   version="1.0"
   width="558.000000pt"
   height="252.000000pt"
   viewBox="0 0 558.000000 252.000000"
   preserveAspectRatio="xMidYMid meet"
   id="svg3013"
   inkscape:version="0.48.4 r9939"
   sodipodi:docname="NDR_Blue.svg">
  <defs
     id="defs3039" />
  <sodipodi:namedview
     pagecolor="#ffffff"
     bordercolor="#666666"
     borderopacity="1"
     objecttolerance="10"
     gridtolerance="10"
     guidetolerance="10"
     inkscape:pageopacity="0"
     inkscape:pageshadow="2"
     inkscape:window-width="1024"
     inkscape:window-height="712"
     id="namedview3037"
     showgrid="false"
     inkscape:zoom="1.2817204"
     inkscape:cx="182.07971"
     inkscape:cy="107.24256"
     inkscape:window-x="-4"
     inkscape:window-y="-4"
     inkscape:window-maximized="1"
     inkscape:current-layer="g3017" />
  <metadata
     id="metadata3015">
Created by potrace 1.11, written by Peter Selinger 2001-2013
<rdf:RDF>
  <cc:Work
     rdf:about="">
    <dc:format>image/svg+xml</dc:format>
    <dc:type
       rdf:resource="http://purl.org/dc/dcmitype/StillImage" />
  </cc:Work>
</rdf:RDF>
</metadata>
  <g
     transform="translate(0.000000,252.000000) scale(0.100000,-0.100000)"
     id="g3017"
     style="fill:#0000ff"
     stroke="none"
     fill="#000000">
    <path
       d="M820 2020 l0 -500 60 0 60 0 0 500 0 500 -60 0 -60 0 0 -500z"
       id="path3019"
       style="fill:#00317d;fill-opacity:0.92156863" />
    <path
       d="M0 991 l0 -531 110 0 110 0 0 297 c0 255 2 295 14 283 8 -8 84 -141 169 -295 l155 -280 126 -3 126 -3 0 531 0 530 -110 0 -110 0 0 -327 c0 -278 -2 -325 -14 -313 -7 8 -60 101 -116 205 -240 445 -228 425 -263 425 -18 0 -69 3 -114 7 l-83 6 0 -532z"
       id="path3021"
       style="fill:#00317d;opacity:1;fill-opacity:0.9197861" />
    <path
       d="M950 992 l0 -532 239 0 c214 0 246 2 306 21 86 26 151 88 186 175 23 57 24 67 24 329 l0 270 -28 60 c-32 68 -85 128 -137 155 -62 31 -140 41 -367 47 l-223 6 0 -531z m384 318 c58 -7 74 -14 102 -41 49 -48 56 -86 52 -303 -3 -217 -12 -248 -76 -288 -30 -18 -55 -23 -134 -26 l-98 -4 0 329 c0 181 3 333 7 336 9 9 63 8 147 -3z"
       id="path3023"
       style="fill:#00317d;fill-opacity:0.92156863" />
    <path
       d="M1830 990 l0 -530 115 0 115 0 0 199 c0 110 3 201 8 203 4 2 35 2 68 0 l61 -4 46 -101 c25 -56 67 -146 92 -199 l46 -98 125 0 124 0 -109 219 -110 219 52 38 c95 72 122 136 115 279 -4 72 -10 100 -31 141 -32 63 -85 108 -149 130 -57 19 -242 33 -430 34 l-138 0 0 -530z m451 330 c58 -16 74 -42 74 -120 0 -59 -3 -72 -25 -95 -43 -46 -72 -55 -175 -55 l-95 0 0 140 0 140 93 0 c50 0 108 -5 128 -10z"
       id="path3025"
       style="fill:#00317d;fill-opacity:0.92156863" />
    <path
       d="M2950 980 l0 -532 263 4 263 3 60 30 c66 34 115 95 135 168 14 54 6 175 -16 216 -20 40 -79 96 -116 112 -34 13 -37 25 -10 34 34 10 71 46 94 88 18 35 21 58 21 132 -2 131 -42 207 -134 249 -41 19 -67 21 -302 24 l-258 4 0 -532z m400 347 c90 -31 94 -196 6 -232 -20 -8 -65 -15 -101 -15 l-65 0 0 130 0 130 63 -1 c34 0 78 -5 97 -12z m67 -459 c22 -23 28 -38 31 -90 3 -54 1 -67 -19 -92 -32 -40 -77 -56 -164 -56 l-75 0 0 136 0 136 100 -4 c93 -3 101 -5 127 -30z"
       id="path3027"
       style="fill:#0000ff" />
    <path
       d="M3830 980 l0 -530 110 0 110 0 0 530 0 530 -110 0 -110 0 0 -530z"
       id="path3029"
       style="fill:#0000ff" />
    <path
       d="M5200 1247 c-143 -32 -230 -144 -252 -326 -25 -205 41 -389 162 -451 85 -43 209 -46 303 -7 71 30 157 149 157 220 0 27 -1 27 -64 27 -35 0 -77 3 -92 6 -28 5 -30 3 -42 -40 -19 -72 -67 -107 -127 -92 -56 14 -85 74 -85 174 l0 52 210 0 210 0 0 28 c-1 64 -21 181 -41 235 -48 128 -198 205 -339 174z m131 -157 c27 -15 49 -63 49 -110 l0 -40 -111 0 -111 0 7 43 c8 46 19 73 43 100 17 19 91 24 123 7z"
       id="path3031"
       style="fill:#0000ff" />
    <path
       d="M4202 913 c5 -343 9 -374 52 -421 36 -41 76 -56 146 -55 76 0 117 18 157 68 15 19 31 35 36 35 4 0 7 -20 7 -45 l0 -45 105 0 105 0 0 395 0 395 -109 0 -110 0 -3 -294 -3 -294 -24 -26 c-18 -19 -35 -26 -62 -26 -68 0 -69 4 -69 342 l0 298 -116 0 -116 0 4 -327z"
       id="path3033"
       style="fill:#0000ff" />
    <path
       d="M820 225 l0 -225 60 0 60 0 -2 222 -3 223 -57 3 -58 3 0 -226z"
       id="path3035"
       style="fill:#00317d;fill-opacity:0.92156863" />
  </g>
</svg>
