<?xml version="1.0" encoding="UTF-8" standalone="no"?>
<!-- Created with Inkscape (http://www.inkscape.org/) -->

<svg
   xmlns:dc="http://purl.org/dc/elements/1.1/"
   xmlns:cc="http://creativecommons.org/ns#"
   xmlns:rdf="http://www.w3.org/1999/02/22-rdf-syntax-ns#"
   xmlns:svg="http://www.w3.org/2000/svg"
   xmlns="http://www.w3.org/2000/svg"
   xmlns:sodipodi="http://sodipodi.sourceforge.net/DTD/sodipodi-0.dtd"
   xmlns:inkscape="http://www.inkscape.org/namespaces/inkscape"
   id="svg3047"
   version="1.1"
   inkscape:version="0.48.2 r9819"
   width="354"
   height="210"
   sodipodi:docname="NDRHD.png">
  <metadata
     id="metadata3053">
    <rdf:RDF>
      <cc:Work
         rdf:about="">
        <dc:format>image/svg+xml</dc:format>
        <dc:type
           rdf:resource="http://purl.org/dc/dcmitype/StillImage" />
        <dc:title></dc:title>
      </cc:Work>
    </rdf:RDF>
  </metadata>
  <defs
     id="defs3051">
    <clipPath
       id="clipPath3077">
      <path
         id="path3079"
         d="M 0,0 L 595.276,0 L 595.276,841.89 L 0,841.89 L 0,0 z" />
    </clipPath>
    <clipPath
       id="clipPath3085">
      <path
         id="path3087"
         d="M 0,0 L 595.276,0 L 595.276,841.89 L 0,841.89 L 0,0 z" />
    </clipPath>
    <clipPath
       id="clipPath3093">
      <path
         id="path3095"
         d="M 21.968,49.299 L 75.578,49.299 L 75.578,62.362 L 21.968,62.362 L 21.968,49.299 z" />
    </clipPath>
    <clipPath
       id="clipPath3101">
      <path
         id="path3103"
         d="M 64.168,12.938 L 124.725,12.938 L 124.725,29.251 L 64.168,29.251 L 64.168,12.938 z" />
    </clipPath>
    <clipPath
       id="clipPath3137">
      <path
         id="path3139"
         d="M 106.095,50.283 L 169.913,50.283 L 169.913,61.489 L 106.095,61.489 L 106.095,50.283 z" />
    </clipPath>
    <clipPath
       id="clipPath3149">
      <path
         id="path3151"
         d="M 201.26,49.639 L 280.113,49.639 L 280.113,63.615 L 201.26,63.615 L 201.26,49.639 z" />
    </clipPath>
    <clipPath
       id="clipPath3197">
      <path
         id="path3199"
         d="M 312.52,46.551 L 356.049,46.551 L 356.049,64.323 L 312.52,64.323 L 312.52,46.551 z" />
    </clipPath>
    <clipPath
       id="clipPath3231">
      <path
         id="path3233"
         d="M 302.791,15.623 L 375.591,15.623 L 375.591,31.725 L 302.791,31.725 L 302.791,15.623 z" />
    </clipPath>
    <clipPath
       id="clipPath3287">
      <path
         id="path3289"
         d="M 442.205,12.323 L 525.995,12.323 L 525.995,38.67 L 442.205,38.67 L 442.205,12.323 z" />
    </clipPath>
    <clipPath
       id="clipPath3347">
      <path
         id="path3349"
         d="M 398.741,42.377 L 432.725,42.377 L 432.725,66.143 L 398.741,66.143 L 398.741,42.377 z" />
    </clipPath>
    <clipPath
       id="clipPath3389">
      <path
         id="path3391"
         d="M 181.417,13.621 L 246.06,13.621 L 246.06,30.308 L 181.417,30.308 L 181.417,13.621 z" />
    </clipPath>
    <clipPath
       id="clipPath3487">
      <path
         id="path3489"
         d="M 471.968,44.595 L 574.293,44.595 L 574.293,62.362 L 471.968,62.362 L 471.968,44.595 z" />
    </clipPath>
    <clipPath
       id="clipPath2440">
      <path
         id="path2442"
         d="M 0.03,419.528 L 595.276,419.528 L 595.276,0.03 L 0.03,0.03 L 0.03,419.528 z" />
    </clipPath>
    <clipPath
       id="clipPath2458">
      <path
         id="path2460"
         d="M 0.03,419.528 L 595.276,419.528 L 595.276,0.03 L 0.03,0.03 L 0.03,419.528 z" />
    </clipPath>
    <clipPath
       id="clipPath2468">
      <path
         id="path2470"
         d="M 127.276,47.369 L 27.354,47.369 L 27.354,18.426 L 127.276,18.426 L 127.276,47.369 z" />
    </clipPath>
    <clipPath
       id="clipPath2476">
      <path
         id="path2478"
         d="M 61.758,30.328 L 97.692,30.229 C 97.692,30.229 99.189,30.235 100.753,30.141 C 102.57,30.032 103.8,29.862 104.969,29.634 C 106.296,29.376 107.263,29.142 108.678,28.472 C 109.731,27.973 110.821,26.907 110.821,26.907 C 110.821,26.907 112.344,26.365 112.669,26.168 C 113.03,25.95 114.475,25.243 114.463,24.66 C 114.454,24.163 113.972,23.748 113.008,23.279 C 111.65,22.62 110.473,22.174 109.2,21.825 C 107.345,21.316 105.723,21.19 104.57,21.15 C 104.087,21.133 103.453,21.1 103.453,21.1 L 90.213,21.058 L 90.162,19.823 L 90.102,19.731 L 89.744,19.458 L 89.662,19.408 C 89.662,19.408 87.825,19.138 86.35,19.132 C 85.236,19.127 84.081,19.237 84.081,19.237 C 84.081,19.237 83.163,19.116 82.359,19.221 C 81.431,19.342 81.125,19.477 81.125,19.477 L 81.087,19.553 L 81.429,19.921 L 81.426,20.358 L 80.812,20.355 L 80.818,20.19 L 80.011,20.491 L 79.15,20.615 L 71.314,20.732 L 69.719,20.985 L 68.947,21.023 C 68.947,21.023 65.909,21.106 64.681,21.169 C 63.453,21.233 61.373,21.444 60.117,21.619 C 57.77,21.946 53.509,22.772 49.009,23.976 C 45.951,24.794 40.687,26.918 40.248,27.283 C 40.172,27.347 40.084,27.816 40.084,27.816 L 39.615,28.475 L 39.527,29.083 L 39.388,29.134 L 36.615,29.957 C 36.615,29.957 37.615,30.135 37.982,30.173 C 38.35,30.211 38.97,30.236 39.096,30.223 C 39.223,30.211 41.299,29.894 41.299,29.894 L 36.97,46.78 L 39.539,46.773 C 39.539,46.773 39.957,46.773 40.223,46.731 C 40.462,46.694 40.547,46.618 40.628,46.564 C 40.799,46.45 49.394,36.112 49.394,36.112 C 49.394,36.112 50.634,34.49 51.685,33.737 C 51.957,33.541 52.767,32.922 53.994,32.505 C 55.108,32.127 56.52,31.795 57.775,31.455 C 59.696,30.935 61.299,30.481 61.299,30.481 L 61.476,30.36 L 61.758,30.328" />
    </clipPath>
    <clipPath
       id="clipPath2488">
      <path
         id="path2490"
         d="M 0.03,419.528 L 595.276,419.528 L 595.276,0.03 L 0.03,0.03 L 0.03,419.528 z" />
    </clipPath>
    <clipPath
       id="clipPath2498">
      <path
         id="path2500"
         d="M 117.116,268.49 L 126.996,228.864 L 263.799,262.972 L 253.919,302.599" />
    </clipPath>
    <clipPath
       id="clipPath2506">
      <path
         id="path2508"
         d="M 170.034,256.903 L 219.267,269.034 C 219.267,269.034 221.315,269.553 223.488,269.959 C 226.012,270.429 227.754,270.616 229.432,270.704 C 231.337,270.803 232.741,270.813 234.908,270.378 C 236.519,270.054 238.375,268.967 238.375,268.967 C 238.375,268.967 240.646,268.746 241.158,268.587 C 241.726,268.411 243.945,267.937 244.129,267.135 C 244.286,266.451 243.768,265.718 242.608,264.747 C 240.975,263.381 239.514,262.369 237.891,261.456 C 235.525,260.126 233.347,259.401 231.783,258.952 C 231.127,258.764 230.27,258.501 230.27,258.501 L 212.158,253.925 L 212.509,252.216 L 212.458,252.07 L 212.062,251.575 L 211.966,251.477 C 211.966,251.477 209.544,250.482 207.526,249.97 C 206.003,249.583 204.384,249.338 204.384,249.338 C 204.384,249.338 203.169,248.86 202.032,248.729 C 200.721,248.577 200.255,248.659 200.255,248.659 L 200.177,248.75 L 200.519,249.37 L 200.366,249.967 L 199.526,249.753 L 199.591,249.53 L 198.384,249.666 L 197.163,249.542 L 186.394,247.027 L 184.124,246.83 L 183.054,246.618 C 183.054,246.618 178.866,245.694 177.163,245.361 C 175.46,245.029 172.541,244.609 170.762,244.42 C 167.437,244.066 161.32,243.743 154.748,243.855 C 150.282,243.931 142.351,245.041 141.625,245.392 C 141.5,245.453 141.218,246.065 141.218,246.065 L 140.352,246.807 L 140.023,247.61 L 139.815,247.632 L 135.738,247.813 C 135.738,247.813 137.047,248.397 137.537,248.575 C 138.026,248.752 138.867,248.998 139.045,249.024 C 139.222,249.05 142.173,249.325 142.173,249.325 L 130.481,270.966 L 134.001,271.834 C 134.001,271.834 134.574,271.976 134.951,272.009 C 135.292,272.04 135.434,271.966 135.563,271.92 C 135.836,271.822 151.133,260.602 151.133,260.602 C 151.133,260.602 153.385,258.805 155.08,258.131 C 155.52,257.957 156.84,257.385 158.662,257.234 C 160.316,257.097 162.363,257.124 164.198,257.087 C 167.005,257.03 169.354,256.955 169.354,256.955 L 169.638,256.851 L 170.034,256.903" />
    </clipPath>
    <clipPath
       id="clipPath2514">
      <path
         id="path2516"
         d="M 117.116,268.49 L 126.996,228.864 L 263.799,262.972 L 253.919,302.599 L 117.116,268.49" />
    </clipPath>
    <clipPath
       id="clipPath2642">
      <path
         id="path2644"
         d="M 317.48,107.008 L 568.926,107.008 L 568.926,27.322 L 317.48,27.322 L 317.48,107.008" />
    </clipPath>
  </defs>
  <sodipodi:namedview
     pagecolor="#ffffff"
     bordercolor="#666666"
     borderopacity="1"
     objecttolerance="10"
     gridtolerance="10"
     guidetolerance="10"
     inkscape:pageopacity="0"
     inkscape:pageshadow="2"
     inkscape:window-width="1920"
     inkscape:window-height="1056"
     id="namedview3049"
     showgrid="false"
     inkscape:zoom="1.0821429"
     inkscape:cx="177"
     inkscape:cy="105"
     inkscape:window-x="0"
     inkscape:window-y="24"
     inkscape:window-maximized="1"
     inkscape:current-layer="svg3047" />
  <path
     style="fill:#999999;fill-opacity:1;fill-rule:nonzero;stroke:none"
     d="m 237.96875,84.674 0,86.757 10.44849,0 0,-40.94679 39.37795,0 0,40.94679 24.5367,0 c 24.82607,0 36.84926,-11.90895 36.86781,-44.30412 C 349.2104,108.36294 345.51049,84.674 310.32377,84.674 l -22.52858,0 0,36.61679 -39.37795,0 0,-36.61679 -10.44849,0 z m 60.65146,8.816896 8.87965,0 c 21.92273,0 30.62746,9.126384 30.59243,35.016564 -0.035,25.8902 -8.88382,34.32628 -30.59243,34.32628 l -8.87965,0 0,-69.342844 z"
     id="rect3429"
     inkscape:connector-curvature="0" />
  <g
     id="g3073"
     transform="matrix(0.76803125,0,0,-0.76803125,162.05147,133.72826)">
    <g
       id="g3075"
       clip-path="url(#clipPath3077)" />
  </g>
  <g
     id="g3081"
     transform="matrix(0.76803125,0,0,-0.76803125,162.05147,133.72826)">
    <g
       id="g3083"
       clip-path="url(#clipPath3085)" />
  </g>
  <g
     id="g3089"
     transform="matrix(0.76803125,0,0,-0.76803125,162.05147,133.72826)">
    <g
       id="g3091"
       clip-path="url(#clipPath3093)" />
  </g>
  <path
     style="fill:#14295e;fill-opacity:1;fill-rule:evenodd;stroke:none"
     d="M 72.8125 3.125 L 72.8125 84.6875 L 83.09375 84.6875 L 83.09375 3.125 L 72.8125 3.125 z M 83.09375 84.6875 L 83.09375 171.4375 L 113.78125 171.4375 C 134.8585 171.4375 146.3125 162.98145 146.3125 141 L 146.3125 114.84375 C 146.3125 93.649574 134.07122 84.6875 113.78125 84.6875 L 83.09375 84.6875 z M 83.09375 171.4375 L 72.8125 171.4375 L 72.8125 208.5 L 83.09375 208.5 L 83.09375 171.4375 z M 72.8125 171.4375 L 72.8125 84.6875 L 54.46875 84.6875 L 54.46875 138.65625 L 25.21875 84.6875 L 5.96875 84.6875 L 5.96875 171.4375 L 24.3125 171.4375 L 24.3125 120.84375 L 52.375 171.4375 L 72.8125 171.4375 z M 155.15625 84.6875 L 155.15625 171.4375 L 174.40625 171.4375 L 174.40625 138.125 L 184.8125 138.125 L 200.28125 171.4375 L 220.96875 171.4375 L 202.625 134.625 C 212.77388 130.71978 216.9375 122.25737 216.9375 111.71875 C 216.9375 90.906524 204.43352 84.6875 185.4375 84.6875 L 155.15625 84.6875 z M 174 100.03125 L 186.21875 100.03125 C 193.88888 100.03125 198.46875 102.2379 198.46875 110.6875 C 198.46875 118.23291 193.49914 122.40625 186.21875 122.40625 L 174 122.40625 L 174 100.03125 z M 102.875 101.0625 L 112.09375 101.0625 C 122.76489 101.0625 127.5625 106.27388 127.5625 116.8125 L 127.5625 139.1875 C 127.5625 149.72613 122.76489 155.03125 112.09375 155.03125 L 102.875 155.03125 L 102.875 101.0625 z "
     id="path3293" />
</svg>
