<?xml version="1.0" encoding="UTF-8" standalone="no"?>
<!-- Created with Inkscape (http://www.inkscape.org/) -->
<svg
   xmlns:dc="http://purl.org/dc/elements/1.1/"
   xmlns:cc="http://creativecommons.org/ns#"
   xmlns:rdf="http://www.w3.org/1999/02/22-rdf-syntax-ns#"
   xmlns:svg="http://www.w3.org/2000/svg"
   xmlns="http://www.w3.org/2000/svg"
   xmlns:sodipodi="http://sodipodi.sourceforge.net/DTD/sodipodi-0.dtd"
   xmlns:inkscape="http://www.inkscape.org/namespaces/inkscape"
   width="662.63257"
   height="398.71777"
   id="svg3300"
   sodipodi:version="0.32"
   inkscape:version="0.46"
   version="1.0"
   sodipodi:docname="NDR Info Spezial Logo.svg"
   inkscape:output_extension="org.inkscape.output.svg.inkscape">
  <defs
     id="defs3302">
    <inkscape:perspective
       sodipodi:type="inkscape:persp3d"
       inkscape:vp_x="0 : 526.18109 : 1"
       inkscape:vp_y="0 : 1000 : 0"
       inkscape:vp_z="744.09448 : 526.18109 : 1"
       inkscape:persp3d-origin="372.04724 : 350.78739 : 1"
       id="perspective3308" />
  </defs>
  <sodipodi:namedview
     id="base"
     pagecolor="#ffffff"
     bordercolor="#666666"
     borderopacity="1.0"
     inkscape:pageopacity="0.0"
     inkscape:pageshadow="2"
     inkscape:zoom="0.96121091"
     inkscape:cx="331.31628"
     inkscape:cy="199.35889"
     inkscape:document-units="px"
     inkscape:current-layer="layer1"
     showgrid="false"
     inkscape:window-width="1024"
     inkscape:window-height="749"
     inkscape:window-x="-4"
     inkscape:window-y="-4" />
  <metadata
     id="metadata3305">
    <rdf:RDF>
      <cc:Work
         rdf:about="">
        <dc:format>image/svg+xml</dc:format>
        <dc:type
           rdf:resource="http://purl.org/dc/dcmitype/StillImage" />
      </cc:Work>
    </rdf:RDF>
  </metadata>
  <g
     inkscape:label="Ebene 1"
     inkscape:groupmode="layer"
     id="layer1"
     transform="translate(-41.540844,-318.7176)">
    <g
       id="g3293"
       transform="translate(-816.60027,195.38569)">
      <g
         transform="matrix(1.1688103,0,0,1.1688103,692.75704,-176.87103)"
         id="g3311">
        <g
           id="g4670">
          <path
             sodipodi:nodetypes="ccccccccccccccccccccccccccccccccccccsccccscccccccccc"
             d="M 234.02767,256.84488 L 234.02767,369.71821 L 248.24621,369.71821 L 248.24621,256.84488 L 234.02767,256.84488 z M 248.24621,369.71821 L 248.24621,489.77893 L 290.74558,489.77893 C 319.90632,489.77893 335.74492,478.07568 335.74491,447.65456 L 335.74491,411.46759 C 335.74491,382.12551 318.82729,369.71822 290.74558,369.71821 L 248.24621,369.71821 z M 248.24621,489.77893 L 234.02767,489.77893 L 234.02767,566.75779 L 248.24621,566.75779 L 248.24621,489.77893 z M 234.02767,489.77893 L 234.02767,369.71821 L 208.65304,369.71821 L 208.65304,444.43585 L 168.12239,369.71821 L 141.49779,369.71821 L 141.49779,489.77893 L 166.87241,489.77893 L 166.87241,419.74872 L 205.77809,489.77893 L 234.02767,489.77893 z M 347.99473,369.71821 L 347.99473,489.77893 L 374.61934,489.77893 L 374.61934,443.71712 L 389.02537,443.71712 L 410.43131,489.77893 L 439.05588,489.77893 L 413.68126,438.84219 C 427.72665,433.43803 433.49346,421.73552 433.49347,407.15516 C 433.49347,378.34804 416.20892,369.71822 389.93161,369.71821 L 347.99473,369.71821 z M 374.08809,390.9679 L 390.99409,390.9679 C 401.61201,390.9679 407.93133,394.01167 407.93134,405.71768 C 407.93134,416.15424 401.07704,421.93619 390.99409,421.93619 L 374.08809,421.93619 L 374.08809,390.9679 z M 275.6208,392.40537 L 288.40186,392.40537 C 303.15451,392.40537 309.80781,399.60595 309.8078,414.1863 L 309.8078,445.15459 C 309.8078,459.73496 303.1545,467.12302 288.40186,467.12302 L 275.6208,467.12302 L 275.6208,392.40537 z"
             id="path2494"
             style="fill:#003366;fill-opacity:1;fill-rule:evenodd;stroke:none" />
          <path
             d="M 617.74074,367.53074 C 596.15125,367.53075 592.74111,380.27764 592.74111,396.78031 L 592.74111,401.87398 L 579.46006,401.87398 L 579.46006,417.68625 L 592.89736,417.68625 L 592.89736,489.96643 L 612.80331,489.96643 L 612.80331,417.49875 L 629.30307,417.49875 L 629.30307,401.68649 L 612.61581,401.68649 L 612.61581,396.78031 C 612.61579,389.46292 614.00032,382.49927 623.86565,382.49927 C 626.24129,382.49927 628.95863,383.00669 631.33429,383.68675 L 632.70927,368.87447 C 627.77661,368.19441 622.6734,367.53074 617.74074,367.53074 z M 461.49305,369.46821 L 461.49305,489.96643 L 482.24274,489.96643 L 482.24274,369.46821 L 461.49305,369.46821 z M 671.36494,398.71778 C 643.24697,398.71779 632.33427,419.24694 632.33427,444.99835 C 632.33427,472.95311 643.94825,491.15391 669.70872,491.15391 C 699.34098,491.15393 708.4269,471.11034 708.4269,444.8421 C 708.42689,414.87437 695.77437,398.71778 671.36494,398.71778 z M 546.67929,399.99901 C 538.01084,399.99901 529.49855,404.07992 519.46094,411.90509 L 518.96095,401.68649 L 500.24248,401.68649 L 500.24248,489.96643 L 520.14843,489.96643 L 520.14843,424.84239 C 527.29355,418.88512 533.903,415.65503 538.83566,415.65503 C 546.15307,415.65502 549.74174,419.71178 549.74174,429.40483 L 549.74174,489.96643 L 569.61645,489.96643 L 569.61645,428.0611 C 569.61643,408.33046 562.83739,399.99901 546.67929,399.99901 z M 670.36496,414.3738 C 682.65128,414.37379 687.8647,423.7897 687.8647,444.99835 C 687.86469,466.38832 682.65129,475.46665 670.36496,475.46665 C 658.40506,475.46665 652.86522,466.06027 652.86522,445.68584 C 652.86521,423.63393 658.06957,414.3738 670.36496,414.3738 z"
             id="path2504"
             style="fill:#ffc300;fill-opacity:1;fill-rule:nonzero;stroke:none" />
        </g>
      </g>
      <path
         id="text2516"
         d="M 1020.9623,481.37204 L 1029.7192,480.55108 L 1029.628,482.87714 C 1029.628,485.46168 1030.2209,487.82575 1031.4068,489.96936 C 1032.5926,492.113 1034.5538,493.77013 1037.2903,494.94075 C 1040.0269,496.11139 1043.2803,496.69671 1047.0507,496.6967 C 1052.4021,496.69671 1056.4841,495.52608 1059.2967,493.1848 C 1062.1093,490.84355 1063.5155,488.16781 1063.5156,485.1576 C 1063.5155,483.0596 1062.7706,481.14402 1061.2807,479.41085 C 1059.7604,477.70814 1055.61,475.39728 1048.8295,472.47827 C 1043.5692,470.19784 1039.9813,468.4495 1038.0657,467.23322 C 1035.0555,465.25686 1032.8358,463.10563 1031.4068,460.77953 C 1029.9777,458.45351 1029.2631,455.80058 1029.2631,452.82074 C 1029.2631,449.38491 1030.2057,446.28349 1032.0909,443.51648 C 1033.9761,440.74959 1036.7354,438.63637 1040.369,437.17681 C 1044.0025,435.71739 1048.0997,434.98765 1052.6606,434.98758 C 1058.1033,434.98765 1062.6946,435.89983 1066.4346,437.72412 C 1070.1745,439.54855 1072.8882,441.98104 1074.5758,445.02158 C 1076.2633,448.06224 1077.107,450.96602 1077.1071,453.73292 C 1077.107,454.00663 1077.0918,454.46272 1077.0615,455.10119 L 1068.4414,455.78533 C 1068.4413,453.9002 1068.2741,452.42551 1067.9397,451.36125 C 1067.3315,449.50653 1066.3889,447.94062 1065.1119,446.66351 C 1063.8348,445.38651 1062.0789,444.36031 1059.8441,443.58489 C 1057.6092,442.8096 1055.1083,442.42192 1052.3414,442.42186 C 1047.4763,442.42192 1043.6908,443.51654 1040.9847,445.70572 C 1038.917,447.37811 1037.8832,449.59775 1037.8833,452.36465 C 1037.8832,454.00663 1038.3089,455.47372 1039.1603,456.76593 C 1040.0117,458.05823 1041.5472,459.32768 1043.7668,460.57429 C 1045.3479,461.45611 1049.1031,463.20445 1055.0323,465.81934 C 1059.8364,467.9478 1063.1507,469.62013 1064.9751,470.83634 C 1067.4075,472.44789 1069.2775,474.40148 1070.585,476.69711 C 1071.8924,478.99279 1072.5461,481.60011 1072.5462,484.51907 C 1072.5461,488.13741 1071.4439,491.47447 1069.2395,494.53027 C 1067.035,497.58609 1063.9868,499.95016 1060.0949,501.62249 C 1056.2029,503.29482 1051.7484,504.13099 1046.7314,504.13099 C 1039.1603,504.13099 1032.9803,502.48146 1028.1913,499.1824 C 1023.4024,495.88335 1020.9927,489.94657 1020.9623,481.37204 L 1020.9623,481.37204 z M 1075.83,521.55367 L 1089.832,454.55389 L 1097.4488,454.55389 L 1096.0349,461.30403 C 1098.8626,458.35469 1101.3939,456.30988 1103.6288,455.16961 C 1105.8636,454.02943 1108.2277,453.45932 1110.721,453.45927 C 1115.3427,453.45932 1119.1739,455.13925 1122.2145,458.49907 C 1125.2551,461.85899 1126.7754,466.67074 1126.7754,472.93436 C 1126.7754,477.98179 1125.9392,482.5807 1124.2669,486.73111 C 1122.5945,490.88155 1120.5421,494.21862 1118.1097,496.74231 C 1115.6772,499.26602 1113.2143,501.12079 1110.721,502.30662 C 1108.2277,503.49246 1105.6736,504.08538 1103.0587,504.08538 C 1097.2511,504.08538 1092.751,501.13599 1089.5584,495.23721 L 1084.0853,521.55367 L 1075.83,521.55367 z M 1092.1581,483.19641 C 1092.1581,486.81474 1092.4165,489.32324 1092.9335,490.72191 C 1093.6936,492.69831 1094.9402,494.29463 1096.6734,495.51087 C 1098.4065,496.72711 1100.4133,497.33524 1102.6938,497.33523 C 1107.4371,497.33524 1111.2683,494.66711 1114.1873,489.33083 C 1117.1062,483.99458 1118.5657,478.5443 1118.5658,472.97997 C 1118.5657,468.87518 1117.5851,465.70535 1115.624,463.47047 C 1113.6628,461.23566 1111.2227,460.11824 1108.3037,460.1182 C 1106.2057,460.11824 1104.2597,460.67315 1102.4658,461.78293 C 1100.6718,462.89279 1099.0071,464.54992 1097.4716,466.75432 C 1095.936,468.9588 1094.6666,471.65733 1093.6632,474.84994 C 1092.6598,478.0426 1092.1581,480.82475 1092.1581,483.19641 L 1092.1581,483.19641 z M 1167.4588,486.52587 L 1175.486,487.34683 C 1174.3305,491.33004 1171.6776,495.11559 1167.5272,498.7035 C 1163.3767,502.29142 1158.4281,504.08538 1152.6814,504.08538 C 1149.0935,504.08538 1145.802,503.25681 1142.807,501.59968 C 1139.812,499.94255 1137.5316,497.53287 1135.9657,494.37064 C 1134.3997,491.20842 1133.6168,487.6053 1133.6168,483.56128 C 1133.6168,478.27065 1134.8406,473.13963 1137.2883,468.1682 C 1139.736,463.19685 1142.9058,459.50252 1146.7978,457.08519 C 1150.6898,454.66796 1154.901,453.45932 1159.4315,453.45927 C 1165.2087,453.45932 1169.8228,455.25327 1173.2739,458.84114 C 1176.725,462.4291 1178.4505,467.32447 1178.4506,473.52727 C 1178.4505,475.89898 1178.2377,478.33146 1177.8121,480.82473 L 1142.1457,480.82473 C 1142.0241,481.76734 1141.9632,482.61871 1141.9633,483.37884 C 1141.9632,487.90936 1143.0047,491.36805 1145.0875,493.75491 C 1147.1703,496.1418 1149.7168,497.33524 1152.727,497.33523 C 1155.5547,497.33524 1158.3369,496.40785 1161.0735,494.55307 C 1163.81,492.69831 1165.9384,490.02258 1167.4588,486.52587 L 1167.4588,486.52587 z M 1143.4684,474.53068 L 1170.6514,474.53068 C 1170.6818,473.67933 1170.697,473.07121 1170.697,472.70631 C 1170.697,468.57112 1169.6632,465.40129 1167.5956,463.19681 C 1165.5279,460.99241 1162.8674,459.89019 1159.614,459.89015 C 1156.0868,459.89019 1152.8714,461.10644 1149.9677,463.53888 C 1147.0639,465.9714 1144.8974,469.63533 1143.4684,474.53068 L 1143.4684,474.53068 z M 1182.601,502.99076 L 1183.9237,496.60548 L 1209.9665,467.27883 C 1211.8212,465.21125 1213.8888,463.06763 1216.1693,460.84794 C 1212.2469,461.24326 1209.4343,461.4409 1207.7316,461.44086 L 1189.716,461.44086 L 1191.1755,454.55389 L 1228.6206,454.55389 L 1227.526,459.75332 L 1201.2551,489.26242 C 1199.7652,490.93476 1197.5456,493.23042 1194.5962,496.14939 C 1199.1875,495.87575 1202.3345,495.73892 1204.0373,495.73891 L 1223.1019,495.73891 L 1221.5968,502.99076 L 1182.601,502.99076 z M 1242.3033,445.47767 L 1244.2645,436.12781 L 1252.4742,436.12781 L 1250.513,445.47767 L 1242.3033,445.47767 z M 1230.2625,502.99076 L 1240.3877,454.55389 L 1248.643,454.55389 L 1238.5178,502.99076 L 1230.2625,502.99076 z M 1285.7447,496.97036 C 1282.8865,499.43325 1280.1347,501.23481 1277.4894,502.37504 C 1274.8441,503.51526 1272.0163,504.08538 1269.0061,504.08538 C 1264.5364,504.08538 1260.9333,502.77032 1258.1968,500.14019 C 1255.4602,497.51007 1254.0919,494.1426 1254.0919,490.03777 C 1254.0919,487.33165 1254.7077,484.93717 1255.9391,482.85434 C 1257.1705,480.77154 1258.8049,479.09921 1260.8421,477.83734 C 1262.8793,476.57551 1265.3726,475.67093 1268.322,475.12359 C 1270.1767,474.75875 1273.6962,474.46989 1278.8805,474.25702 C 1284.0647,474.04421 1287.7818,473.4969 1290.0319,472.61509 C 1290.6704,470.36508 1290.9897,468.4951 1290.9897,467.00517 C 1290.9897,465.08963 1290.2903,463.58453 1288.8917,462.48987 C 1286.9761,460.96961 1284.1787,460.20946 1280.4996,460.20941 C 1277.0333,460.20946 1274.1979,460.97721 1271.9935,462.51267 C 1269.789,464.04822 1268.1851,466.22985 1267.1817,469.05758 L 1258.8353,468.32784 C 1260.538,463.52372 1263.2365,459.84459 1266.9309,457.29043 C 1270.6252,454.73637 1275.2849,453.45932 1280.9101,453.45927 C 1286.9,453.45932 1291.6434,454.8884 1295.1401,457.74652 C 1297.8158,459.87499 1299.1537,462.64194 1299.1537,466.04738 C 1299.1537,468.63193 1298.7736,471.62693 1298.0135,475.03238 L 1295.3226,487.07318 C 1294.4712,490.90436 1294.0455,494.02098 1294.0455,496.42305 C 1294.0455,497.94336 1294.3799,500.13259 1295.0489,502.99076 L 1286.7024,502.99076 C 1286.2463,501.40965 1285.9271,499.40285 1285.7447,496.97036 L 1285.7447,496.97036 z M 1288.8005,478.45306 C 1287.645,478.90917 1286.406,479.25884 1285.0833,479.50207 C 1283.7606,479.74534 1281.5486,480.00379 1278.4472,480.27742 C 1273.643,480.70313 1270.2527,481.24284 1268.2764,481.89655 C 1266.3,482.5503 1264.8101,483.5917 1263.8067,485.02077 C 1262.8033,486.44987 1262.3016,488.03099 1262.3016,489.76412 C 1262.3016,492.07499 1263.0997,493.97537 1264.6961,495.46526 C 1266.2924,496.95516 1268.5652,497.70011 1271.5146,497.7001 C 1274.2511,497.70011 1276.8813,496.97796 1279.405,495.53367 C 1281.9287,494.08939 1283.9203,492.07499 1285.3798,489.49046 C 1286.8392,486.90596 1287.9795,483.22683 1288.8005,478.45306 L 1288.8005,478.45306 z M 1306.1534,502.99076 L 1320.1098,436.12781 L 1328.365,436.12781 L 1314.4086,502.99076 L 1306.1534,502.99076 z"
         style="font-size:93.40745544px;font-style:italic;font-variant:normal;font-weight:normal;font-stretch:normal;text-align:start;line-height:100%;writing-mode:lr-tb;text-anchor:start;fill:#000000;fill-opacity:1;stroke:#000000;stroke-width:0.99199998;stroke-linecap:butt;stroke-linejoin:miter;stroke-miterlimit:4;stroke-opacity:1;font-family:Arial;-inkscape-font-specification:Arial Italic" />
    </g>
  </g>
</svg>
