<svg xmlns="http://www.w3.org/2000/svg" width="752.076" height="450"><path d="M508.357 178.684v190.094h22.893v-89.719h86.281v89.719h53.763c54.396 0 80.742-26.094 80.782-97.075.022-41.114-8.085-93.019-85.181-93.019h-49.363v80.232H531.25v-80.232h-22.89zm132.893 19.319h19.457c48.036 0 67.107 19.996 67.03 76.724s-19.466 75.214-67.03 75.214H641.25v-151.94z" fill="#e0e0e0"/><path fill="#f2f2f2" d="M146.488 178.689V0h22.52v178.689zm0 271.311v-81.22h22.52V450z"/><path fill="#fff" d="M101.745 368.78L40.182 257.925v110.867H0V178.689h42.178l64.128 118.278V178.689h40.182V368.78zM236.26 178.689c47.024 0 71.254 22.52 71.254 66.112v57.286c0 44.743-23.364 66.693-71.254 66.693h-67.252V178.689zm-3.706 154.185c22.805 0 33.911-11.403 33.911-34.766v-49.019c0-23.079-11.403-34.481-33.911-34.481h-20.228v118.267zm193.227 35.906l-33.911-72.953h-22.805v72.953h-42.178V178.689h66.408c46.739 0 68.962 18.529 68.962 58.141 0 26.214-9.692 41.893-31.357 51.3l40.182 80.65zm-30.775-107.446c16.819 0 26.784-9.692 26.784-25.929 0-16.819-7.4-23.079-26.784-23.079H368.21v49.019h26.796z"/></svg>