<?xml version="1.0" encoding="UTF-8"?>
<svg width="800" height="445.44" xmlns="http://www.w3.org/2000/svg">
  <g fill="#003370">
    <path d="M374.88 366.82v9.435h7.958v-9.435zm67.195 0v62.508h7.01V366.82zm-231.16.893c-9.17 0-18.448 3.794-18.448 15.125 0 4.322 1.265 7.168 3.268 9.698 3.532 4.48 9.698 6.958 16.128 9.646 5.481 2.372 13.018 4.744 13.018 12.492 0 6.957-6.692 9.854-12.7 9.854-9.118 0-13.073-4.847-14.654-12.911l-7.114 2.266c2.687 11.752 9.542 16.812 21.609 16.812 11.33-.001 20.448-4.428 20.448-17.075 0-4.006-1.002-7.012-2.636-9.331-3.267-4.796-9.38-6.691-15.706-9.484-4.901-2.214-13.966-5.06-13.966-12.333 0-6.22 4.796-8.591 10.435-8.591 7.221 0 11.28 4.373 13.018 10.857l7.222-1.899c-2.16-8.96-8.75-15.125-19.922-15.125zm200.54 13.755c-12.017 0-16.812 8.591-16.812 8.591l5.904 3.638s3.424-6.533 10.75-6.533c6.218 0 9.486 3.74 9.486 8.958v3.372c-10.595 1.266-26.404 3.69-26.404 17.445 0 7.958 5.058 13.23 12.963 13.23 6.01 0 10.121-1.74 13.81-6.43v5.588l6.537-.003v-33.628c0-9.327-5.693-14.229-16.234-14.229zm-102.09.003c-11.12 0-19.289 8.009-19.289 24.242 0 15.917 6.165 24.825 18.919 24.825 9.698 0 14.81-5.378 17.656-11.755l-6.273-3.002c-2.161 5.323-5.429 8.96-11.28 8.96-7.852 0-11.594-5.43-11.7-17.762h28.884v-3.954c0-10.962-4.426-21.555-16.917-21.555zm-45.174.464c-5.802 0-9.902 3.064-12.857 6.221l-.161-5.531h-6.803v62.82h6.964v-20.66c4.277 3.104 7.489 5.37 13.02 5.37l-.002.016c10.376 0 16.177-8.705 16.177-24.463 0-15.448-5.693-23.773-16.338-23.773zm111.21.695v46.698h6.958V382.63zm-39.474.052v6.063h13.911l6.958-.211-4.953 7.325-18.289 28.672v4.797l31.94-.003v-5.745h-17.763l-5.638.055c1.581-2.056 3.163-4.164 4.586-6.43l18.656-29.463v-5.06zm-26.825 4.586c5.956 0 9.96 5.06 10.013 14.021h-21.713c.843-9.697 5.27-14.02 11.7-14.02zm-46.854.36c7.272 0 10.807 5.964 10.807 18.08 0 12.238-3.749 18.768-10.859 18.768-4.007 0-8.231-2.576-10.862-5.37v-24.88c3.589-4.425 6.96-6.583 10.914-6.583zm158.53 16.93.003 13.017c-3.9 5.798-7.747 6.956-11.911 6.956-4.638 0-7.432-3.057-7.432-8.117 0-9.329 12.384-11.066 19.34-11.857zM150.62 328.72h-20.08v72.416h20.08zM0 159.25V328.7h35.781v-98.763L90.692 328.7h39.844V159.25H94.755v105.46l-57.18-105.46zm291.4.029v169.44h37.578v-65.036h20.289l30.252 65.036h40.372l-35.786-71.883c19.817-7.59 27.935-24.09 27.935-44.695 0-40.634-24.349-52.86-61.453-52.86zm-140.83.05v169.38h60.028c41.163 0 63.456-16.498 63.456-59.45v-51.066c0-41.373-23.874-58.87-63.456-58.87zm177.62 29.931h23.875c15.021 0 23.927 4.323 23.927 20.82 0 14.756-9.698 22.927-23.927 22.927H328.19zm-138.94 2.055h18.026c20.819 0 30.2 10.119 30.2 30.726v43.693c0 20.606-9.383 30.989-30.2 30.989H189.25z"/>
    <path d="M150.62 0h-20.076v159.33h20.076z"/>
  </g>
  <path d="M672.02 155.69c-30.516 0-35.258 17.971-35.258 41.265v7.17h-18.763v22.291h18.974v102.04h28.091v-102.24h23.242v-22.294h-23.505v-6.956c0-10.33 1.898-20.185 15.865-20.185 3.373 0 7.166.736 10.539 1.685l1.95-20.872c-6.957-.949-14.178-1.895-21.135-1.895zm-220.46 2.737v170.03h29.25v-170.03zm296.16 41.284c-39.627 0-55.075 28.983-55.075 65.304 0 39.479 16.392 65.14 52.7 65.14 41.853 0 54.659-28.306 54.659-65.357 0-42.325-17.81-65.088-52.284-65.088zm-175.94 1.779c-12.28 0-24.244 5.745-38.422 16.76l-.737-14.336h-26.406v124.54h28.091v-91.916c10.067-8.38 19.449-12.963 26.406-12.963 10.33 0 15.336 5.745 15.336 19.448v85.432h28.091v-87.33c0-27.881-9.644-39.633-32.359-39.633zm174.51 20.297c17.338 0 24.716 13.276 24.716 43.216 0 30.196-7.325 43.013-24.716 43.013-16.865 0-24.664-13.278-24.664-42.002V266c0-31.153 7.326-44.213 24.664-44.213z" fill="#ffc23d"/>
</svg>
