<svg xmlns="http://www.w3.org/2000/svg" width="471.083" height="450" viewBox="0 -0.096 471.083 450"><path fill="#00d2ff" d="M146.488 178.593V-.096h22.52v178.689zm0 271.311v-81.22h22.52v81.22z"/><path fill="#fff" d="M101.745 368.684L40.182 257.829v110.867H0V178.593h42.178l64.128 118.278V178.593h40.182v190.091zM236.26 178.593c47.024 0 71.254 22.52 71.254 66.112v57.286c0 44.743-23.364 66.693-71.254 66.693h-67.252V178.593zm-3.706 154.185c22.805 0 33.911-11.403 33.911-34.766v-49.019c0-23.079-11.403-34.481-33.911-34.481h-20.228v118.267zm193.227 35.906l-33.911-72.953h-22.805v72.953h-42.178V178.593h66.408c46.739 0 68.962 18.529 68.962 58.141 0 26.214-9.692 41.893-31.357 51.3l40.182 80.65zm-30.775-107.446c16.819 0 26.784-9.692 26.784-25.929 0-16.819-7.4-23.079-26.784-23.079H368.21v49.019h26.796z"/></svg>