<svg xmlns="http://www.w3.org/2000/svg" viewBox="0 0 105.833 87.834" height="331.969" width="400"><path d="M72.134 75.378c-.932 0-1.654.228-2.163.684-.533.47-.8 1.124-.8 1.963 0 .866.267 1.627.8 2.287.428.538.994 1.103 1.7 1.694.762.652 1.295 1.198 1.6 1.637.303.438.455.884.455 1.34 0 .448-.138.8-.413 1.055-.276.255-.659.382-1.147.382-1.108 0-1.662-.608-1.662-1.827v-.74h-1.585v.979c0 .872.232 1.563.698 2.072.57.62 1.414.93 2.531.93.966 0 1.726-.247 2.28-.74.58-.521.87-1.236.87-2.146 0-.587-.135-1.152-.404-1.694-.328-.678-1.086-1.524-2.276-2.539-.729-.626-1.234-1.133-1.515-1.518-.278-.386-.417-.774-.417-1.165 0-.35.102-.634.305-.852.25-.275.625-.414 1.126-.414.59 0 .997.192 1.217.576.163.28.245.686.245 1.216v.397h1.571v-.558c0-.937-.23-1.659-.69-2.164-.515-.57-1.29-.855-2.326-.855zm-33.09.196v12.063h1.584V82.03h3.026v-1.301h-3.026v-3.854h3.496v-1.3zm6.457 0v12.063h5.277V86.34h-3.692v-4.31h3.092v-1.301h-3.092v-3.854h3.51v-1.3zm6.751 0v12.063h1.585V82.21l1.284-.032 2.212 5.46h1.659l-2.392-5.82c.608-.265 1.07-.66 1.39-1.186.317-.526.476-1.158.476-1.897 0-.9-.247-1.621-.74-2.164-.603-.664-1.513-.996-2.728-.996zm8.259 0v12.063h1.554v-5.386l-.036-3.675v-.47c.675 2.544 1.646 5.721 2.911 9.531h2.17V75.574h-1.57v4.541c0 .87.005 2.012.017 3.426l.01.947.008.6c-.73-2.604-1.69-5.776-2.88-9.514zm16.812 0v12.063h5.278V86.34h-3.693v-4.31h3.093v-1.301h-3.093v-3.854h3.51v-1.3zm6.601 0v12.063h1.568v-5.716H88.7v5.716h1.571V75.574h-1.57v5.081h-3.21v-5.08zm8.558 0v12.063h5.278V86.34h-3.693v-4.31h3.093v-1.301h-3.093v-3.854h3.51v-1.3zm6.752 0v12.063h1.553v-5.386l-.035-3.675v-.47c.675 2.544 1.645 5.721 2.91 9.531h2.171V75.574h-1.57v4.541c0 .87.004 2.012.017 3.426l.01.947.007.6c-.729-2.604-1.69-5.776-2.879-9.514zm-45.397 1.301h.796c.811 0 1.387.154 1.729.46.345.313.52.804.52 1.472 0 1.452-.8 2.178-2.396 2.178h-.649z" fill="#00d2ff" stroke-width="2.355"/><g fill="#173e7d"><path d="M26.808 0h4.115v32.695h-4.115zM26.808 67.45h4.115v14.848h-4.115z" fill="#00d2ff"/><path d="M19.435 32.695h7.372V67.45h-8.184L7.373 47.186V67.45H0V32.693h7.691l11.744 21.65z"/><path d="M43.22 32.69c8.356 0 12.43 3.855 12.983 12.113v10.459c-.633 8.842-4.627 12.186-12.982 12.186H30.923V32.695zm-.724 6.58l-3.687-.002V60.9h3.687c3.655 0 6.222-1.528 6.222-6.384v-8.939c0-4.61-2.333-6.307-6.222-6.307M72.208 38.85l-4.893-.001v8.98h4.893c2.984 0 4.928-1.69 4.928-4.709 0-3.02-1.377-4.27-4.928-4.27m-.561 15.247l6.2 13.353h8.304l-7.366-14.734c4.159-1.649 5.807-4.999 5.722-9.502-.128-6.85-3.55-10.52-12.614-10.52H59.78V67.45h7.684V54.122z" fill-rule="evenodd"/></g></svg>