<svg xmlns="http://www.w3.org/2000/svg" viewBox="0 0 144 144" ><path d="M0 0h143.99v143.97H0z" fill="#fff"/><path d="M0 0h72v24.91H0z" fill="#e6e6e6"/><path d="M72 0h72v24.91H72z" fill="#727272"/><path d="M.01 112.76H144V144H.01z" fill="#e60019"/><path d="M14.19 79.53l2.67 17.84h.07l2.84-17.84h4.66l2.84 17.84h.07L30 79.53h4.66l-4.39 24.13h-5.43l-2.7-17.51h-.08l-2.7 17.51h-5.44l-4.4-24.13zm27.91 7.01a11.81 11.81 0 0 1 1.11-4A6.31 6.31 0 0 1 45.7 80a8.74 8.74 0 0 1 4.36-.93 8.74 8.74 0 0 1 4.36.93 6.25 6.25 0 0 1 2.49 2.58 11.37 11.37 0 0 1 1.11 4 46.36 46.36 0 0 1 .25 5 46.1 46.1 0 0 1-.27 5.08 11.31 11.31 0 0 1-1.11 4 5.85 5.85 0 0 1-2.49 2.53 9.12 9.12 0 0 1-4.36.88 9.12 9.12 0 0 1-4.36-.88 5.91 5.91 0 0 1-2.49-2.53 11.75 11.75 0 0 1-1.11-4 51.33 51.33 0 0 1 0-10.12zm4.73 9.2a11.41 11.41 0 0 0 .48 2.77 3 3 0 0 0 1 1.55 2.85 2.85 0 0 0 1.74.5 2.81 2.81 0 0 0 1.74-.5 3 3 0 0 0 1-1.55 11.46 11.46 0 0 0 .47-2.77l.11-4.15-.11-4.12a11.64 11.64 0 0 0-.47-2.77 3.13 3.13 0 0 0-1-1.58 2.87 2.87 0 0 0-1.74-.48 2.91 2.91 0 0 0-1.74.48 3.12 3.12 0 0 0-1 1.58 11.59 11.59 0 0 0-.48 2.77l-.11 4.12.11 4.15zm30.72-16.21a6.81 6.81 0 0 1 4.73 1.53A6 6 0 0 1 84 85.75a7.3 7.3 0 0 1-1 4 4.53 4.53 0 0 1-3 2v.06A4.44 4.44 0 0 1 82.61 93a5 5 0 0 1 1.06 2.94c0 .45.07.94.1 1.47l.06 1.77.21 2.94a1.86 1.86 0 0 0 .88 1.39v.2h-5.27a2.53 2.53 0 0 1-.48-1.17l-.13-1.36-.14-4.68a3.89 3.89 0 0 0-.71-2.23 2.59 2.59 0 0 0-2.19-.82h-2.57v10.21h-4.87V79.53zm-2.1 10.54a4 4 0 0 0 2.71-.82 3.57 3.57 0 0 0 1-2.8c0-2.22-1.14-3.34-3.39-3.34h-2.34v7zm20.24-10.54h4.87v20.14h8.62v4H95.69zm30.81 0a8.54 8.54 0 0 1 4.08.83 5.94 5.94 0 0 1 2.42 2.36 10.81 10.81 0 0 1 1.16 3.7 33.85 33.85 0 0 1 .31 4.84 32.84 32.84 0 0 1-.4 5.52 10.54 10.54 0 0 1-1.33 3.87 5.75 5.75 0 0 1-2.54 2.27 9.4 9.4 0 0 1-4 .74h-7.67V79.53zm-1 20.54a4.3 4.3 0 0 0 2.07-.43 3.07 3.07 0 0 0 1.23-1.46 8.78 8.78 0 0 0 .61-2.66l.15-4.13-.14-3.61a8.68 8.68 0 0 0-.56-2.59 3.21 3.21 0 0 0-1.25-1.56 4.18 4.18 0 0 0-2.21-.52h-2.06v17z" fill="#3f3a3a"/><path d="M32.23 116.92v16.5c0 4.88-2.22 6.87-6.91 6.87-4.88 0-6.06-3.12-6.06-6.71v-1h4.23v.71c0 2.44.39 3.6 2.06 3.6s2.05-1.16 2.05-3.6v-16.37zm13.3 0h5.71l6.07 22.92h-4.82L51.43 135h-6.1l-1.06 4.85h-4.81zm.61 14.29h4.49l-2.21-10.31h-.07zm19.24-14.29h8.09c4.68 0 6.29 3.44 6.29 6.87 0 4.75-2.92 6.9-7.29 6.9H70v9.15h-4.62zM70 127.29h2c1.83 0 3.09-1.09 3.09-3.44s-.9-3.53-3.21-3.53H70zm20.4-10.37h5.71l6.07 22.92h-4.82L96.3 135h-6.1l-1.06 4.85h-4.81zm.6 14.29h4.5l-2.22-10.31h-.06zm23.93-14.29l5.59 15.7h.06v-15.7h4.24v22.92h-5.27l-5.65-16h-.06v16h-4.24v-22.92z" fill="#fff"/><path d="M46.4 35.48A5.2 5.2 0 0 0 40 39l-3.79 13.23-9.36-14.57A5.19 5.19 0 0 0 17.5 39l-6.92 24.26a5.19 5.19 0 0 0 3.56 6.41 5.09 5.09 0 0 0 1.43.2 5.2 5.2 0 0 0 5-3.76l3.76-13.19 9.37 14.57a5.19 5.19 0 0 0 9.3-1.38l7-24.22a5.19 5.19 0 0 0-3.6-6.41zm42.37 0A5.18 5.18 0 0 0 82.36 39l-2.46 8.65H68.21l1.64-5.76a5.199 5.199 0 0 0-10-2.85L53 63.26a5.19 5.19 0 0 0 3.57 6.41 5.09 5.09 0 0 0 1.43.2 5.19 5.19 0 0 0 5-3.76l2.46-8.61h11.62l-1.64 5.76A5.19 5.19 0 0 0 79 69.67a5 5 0 0 0 1.42.2 5.2 5.2 0 0 0 5-3.76l6.92-24.22a5.19 5.19 0 0 0-3.57-6.41zm43.8 1.86a5.19 5.19 0 0 0-7.27-1l-14.65 11.07 1.58-5.52a5.199 5.199 0 0 0-10-2.85l-6.9 24.22a5.19 5.19 0 0 0 3.57 6.41 5 5 0 0 0 1.42.2 5.2 5.2 0 0 0 5-3.76l3-10.41c0 .06.11.1.15.16s.12.16.19.24l11.24 12.1a5.19 5.19 0 1 0 7.6-7.06l-7.33-7.9 11.42-8.64a5.2 5.2 0 0 0 .98-7.26z" fill="#3f3a3a"/></svg>