<?xml version="1.0" encoding="UTF-8"?>
<svg width="800" height="169.6" version="1.1" xmlns="http://www.w3.org/2000/svg">
	<path d="m0 0h800v108.32h-800z" fill="#fff"/>
	<path d="m752.96 0h47.04v108.32h-47.04z" fill="#727171"/>
	<path d="m0 108.32h800v61.28h-800z" fill="#e60019"/>
	<g fill="#3e3a2f">
		<path d="m394.4 16.48 8.16 54.88h0.16l8.8-54.88h14.4l8.64 54.88h0.16l8.32-54.88h14.4l-13.6 74.08h-16.64l-8.32-53.76h-0.32l-8.32 53.76h-16.64l-13.6-74.08z"/>
		<path d="m472.64 37.92c0.48-4.8 1.76-8.8 3.52-12.16s4.32-6.08 7.52-8c3.36-1.92 7.68-2.88 13.44-2.88 5.6 0 10.08 0.96 13.44 2.88s5.92 4.64 7.52 8c1.76 3.36 2.88 7.52 3.52 12.16 0.48 4.8 0.8 9.92 0.8 15.52 0 5.76-0.32 10.88-0.8 15.52-0.48 4.8-1.6 8.64-3.52 12.16-1.76 3.36-4.32 5.92-7.52 7.84-3.36 1.76-7.84 2.72-13.44 2.72s-10.08-0.8-13.44-2.72c-3.36-1.76-5.92-4.32-7.52-7.84-1.76-3.36-2.88-7.52-3.52-12.16-0.48-4.8-0.8-9.92-0.8-15.52s0.32-10.72 0.8-15.52zm14.56 28.32c0.32 3.52 0.8 6.4 1.44 8.48 0.8 2.24 1.76 3.68 3.04 4.8s3.04 1.44 5.28 1.44 4-0.48 5.28-1.44 2.4-2.56 3.04-4.8c0.8-2.08 1.28-4.96 1.44-8.48 0.32-3.52 0.32-7.68 0.32-12.64s-0.16-9.28-0.32-12.64c-0.32-3.52-0.8-6.4-1.44-8.48-0.8-2.24-1.76-3.84-3.04-4.8-1.44-0.96-3.04-1.44-5.28-1.44s-4 0.48-5.28 1.44-2.4 2.56-3.04 4.8c-0.8 2.24-1.28 5.12-1.44 8.48-0.32 3.52-0.32 7.68-0.32 12.64 0 4.8 0.16 9.12 0.32 12.64z"/>
		<path d="m570.4 16.48c6.24 0 11.04 1.6 14.56 4.8 3.52 3.04 5.28 8 5.28 14.4 0 4.96-0.96 9.12-3.04 12.16-1.92 3.2-5.12 5.28-9.28 6.08v0.32c3.68 0.64 6.4 1.76 8.16 3.68s2.88 4.8 3.2 9.12c0.16 1.44 0.32 2.88 0.32 4.48 0.16 1.6 0.16 3.52 0.32 5.44 0.16 4 0.32 7.04 0.64 9.12s1.28 3.52 2.72 4.16v0.48h-16.16c-0.8-0.96-1.28-2.24-1.44-3.68s-0.32-2.72-0.32-4.16l-0.8-14.24c-0.16-2.88-0.8-5.28-2.24-6.88-1.28-1.6-3.52-2.56-6.56-2.56h-8v31.36h-14.88v-74.08zm-6.56 32.32c3.68 0 6.4-0.8 8.32-2.56s2.88-4.64 2.88-8.64c0-6.88-3.52-10.4-10.4-10.4h-7.04v21.44h6.24z"/>
		<path d="m626.08 78.4h26.56v12.16h-41.44v-74.08h14.88z"/>
		<path d="m695.68 16.48c5.28 0 9.44 0.8 12.64 2.56 3.04 1.76 5.6 4.16 7.52 7.2 1.76 3.04 3.04 7.04 3.68 11.52s0.96 9.44 0.96 14.88c0 6.56-0.32 12.16-1.28 17.12-0.8 4.8-2.08 8.8-4.16 12-1.92 3.04-4.48 5.44-7.84 7.04-3.2 1.44-7.36 2.24-12.32 2.24h-23.68v-74.56zm-2.88 63.2c2.56 0 4.8-0.32 6.4-1.44 1.6-0.8 2.88-2.4 3.84-4.48 0.8-2.08 1.44-4.8 1.92-8.16 0.32-3.36 0.48-7.52 0.48-12.64 0-4.16-0.16-8-0.32-11.04-0.32-3.2-0.8-5.92-1.76-8-0.8-2.08-2.08-3.68-3.84-4.8-1.6-1.12-4-1.6-6.88-1.6h-6.4v52z"/>
		<path d="m123.68 16.32c-6.24-2.08-12.96 1.12-15.04 7.36l-10.56 30.4-20-32c-1.44-2.56-3.68-4.64-6.56-5.76-6.24-2.08-12.96 1.12-15.04 7.36l-17.92 51.68c-2.08 6.24 1.12 12.96 7.36 15.04s12.96-1.12 15.04-7.36l10.56-30.4 20 32.16c1.44 2.56 3.68 4.64 6.4 5.6 6.08 2.08 12.96-1.12 15.04-7.36l17.92-51.68c2.24-6.24-0.96-12.96-7.2-15.04z"/>
		<path d="m316.64 70.88-15.04-15.84 27.68-17.6c5.28-3.36 6.88-10.4 3.52-15.68s-10.4-6.88-15.68-3.52l-37.44 23.84 3.68-10.88c2.08-6.24-1.12-12.96-7.36-15.04s-12.96 1.12-15.04 7.36l-17.92 51.68c-2.08 6.08 1.12 12.96 7.36 15.04 6.08 2.08 12.96-1.12 15.04-7.36l8.16-23.52 26.08 27.36c4.48 4.64 11.84 4.8 16.48 0.32 4.64-4.16 4.8-11.52 0.48-16.16z"/>
		<path d="m226.24 16.16c-6.08-2.08-12.96 1.12-15.04 7.36l-6.56 18.88h-27.04l3.84-11.04c2.08-6.24-1.12-12.96-7.36-15.04s-12.96 1.12-15.04 7.36l-17.92 51.68c-2.08 6.08 1.12 12.96 7.36 15.04 6.08 2.08 12.96-1.12 15.04-7.36l6.56-19.2h27.04l-4 11.52c-2.08 6.08 1.12 12.96 7.36 15.04 6.08 2.08 12.96-1.12 15.04-7.36l17.92-51.68c2.24-6.24-1.12-12.96-7.2-15.2z"/>
	</g>
	<g fill="#fff">
		<path d="m416.48 112.48v38.72c0 11.52-5.28 16.16-16.16 16.16-11.52 0-14.24-7.36-14.24-15.84v-2.4h9.92v1.76c0 5.76 0.96 8.48 4.8 8.48s4.8-2.72 4.8-8.48v-38.4z"/>
		<path d="m470.88 112.48h13.44l14.24 53.76h-11.36l-2.56-11.36h-14.4l-2.56 11.36h-11.36zm1.44 33.6h10.56l-5.28-24.16h-0.16z"/>
		<path d="m537.44 112.48h18.88c11.04 0 14.72 8.16 14.72 16.16 0 11.2-6.88 16.16-17.12 16.16h-5.76v21.6h-10.88zm10.88 24.48h4.8c4.32 0 7.2-2.56 7.2-8.16 0-5.28-2.08-8.32-7.52-8.32h-4.64z"/>
		<path d="m612.96 112.48h13.44l14.24 53.76h-11.36l-2.56-11.36h-14.4l-2.56 11.36h-11.36zm1.44 33.6h10.56l-5.28-24.16h-0.16z"/>
		<path d="m687.04 128.8v37.6h-9.92v-53.92h12.48l12.96 36.96h0.16v-36.96h9.92v53.92h-12.16z"/>
	</g>
</svg>
