<?xml version="1.0" encoding="UTF-8" standalone="no"?>
<svg
   xmlns:dc="http://purl.org/dc/elements/1.1/"
   xmlns:cc="http://creativecommons.org/ns#"
   xmlns:rdf="http://www.w3.org/1999/02/22-rdf-syntax-ns#"
   xmlns:svg="http://www.w3.org/2000/svg"
   xmlns="http://www.w3.org/2000/svg"
   viewBox="0 0 300 53.191369"
   version="1.1"
   id="svg9362"
   height="53.191368"
   width="300">
  <defs
     id="defs9364" />
  <metadata
     id="metadata9367">
    <rdf:RDF>
      <cc:Work
         rdf:about="">
        <dc:format>image/svg+xml</dc:format>
        <dc:type
           rdf:resource="http://purl.org/dc/dcmitype/StillImage" />
        <dc:title></dc:title>
      </cc:Work>
    </rdf:RDF>
  </metadata>
  <g
     transform="translate(-512.85719,-771.48076)"
     id="layer1">
    <g
       transform="matrix(2.601172,0,0,2.601172,1639.2975,-1488.044)"
       id="g9333">
      <path
         id="path8634"
         style="fill:#bdf00b;fill-opacity:1;fill-rule:nonzero;stroke:none"
         d="m -374.30869,875.2483 -8.12625,0 c -1.43,10e-4 -2.58875,1.16125 -2.5875,2.5925 0,1.43 1.16125,2.58875 2.5925,2.58875 l 1.46625,0 0.005,7.9025 5.18,-10e-4 -0.005,-7.90125 1.47125,0 c 1.43125,0 2.5925,-1.15875 2.5925,-2.58875 0.001,-1.43125 -1.15875,-2.59125 -2.58875,-2.5925" />
      <path
         id="path8638"
         style="fill:#bdf00b;fill-opacity:1;fill-rule:nonzero;stroke:none"
         d="m -321.47969,881.09167 c -1.95,-0.865 -2.9775,-1.18875 -3.01125,-1.895 -0.03,-0.6275 0.64875,-0.7425 0.8875,-0.7425 1.375,0 1.48,1.3925 1.48,1.7125 l 4.19375,0 c 0,-2.38375 -2.14875,-4.84 -5.82125,-4.83875 -3.15625,-10e-4 -5.29375,2.15 -5.29375,4.18625 0,0.77125 0.34875,2.3125 3.76125,3.8275 1.94875,0.86375 2.9775,1.1875 3.01125,1.89375 0.03,0.62875 -0.64875,0.80625 -0.8875,0.80625 -1.375,0 -1.48,-1.455 -1.48,-1.775 l -4.19375,0 c 0,2.38375 2.14875,4.84 5.82125,4.83875 3.15625,10e-4 5.29375,-2.15125 5.29375,-4.1875 0,-0.77125 -0.34875,-2.31125 -3.76125,-3.82625" />
      <path
         id="path8642"
         style="fill:#ff6700;fill-opacity:1;fill-rule:nonzero;stroke:none"
         d="m -404.54432,884.25317 c -0.30625,0.5625 -0.70125,0.89625 -1.1625,0.89875 -0.4625,-0.003 -0.85625,-0.33625 -1.1625,-0.89875 -0.30125,-0.57125 -0.48,-1.3075 -0.48125,-2.17125 10e-4,-0.8625 0.18,-1.6 0.48125,-2.17 0.30625,-0.5625 0.70125,-0.89625 1.1625,-0.89875 0.46125,0.003 0.85625,0.33625 1.1625,0.89875 0.2225,0.42375 0.37875,0.93875 0.445,1.52875 l 5.18625,0 c -0.1525,-1.625 -0.87875,-3.09875 -1.9675,-4.185 -1.22875,-1.23 -2.95,-1.99875 -4.82625,-1.99875 -1.87625,0 -3.59875,0.76875 -4.82625,1.99875 -1.23125,1.2275 -2,2.95 -1.99875,4.82625 -0.001,1.87625 0.7675,3.59875 1.99875,4.82625 0.002,0.004 0,0.009 0,0.009 1.2275,1.23125 2.95,2 4.82625,1.99875 1.87625,10e-4 3.5975,-0.7675 4.82625,-1.99875 0,0 -0.004,-0.005 0,-0.009 1.08875,-1.08625 1.815,-2.56 1.9675,-4.18375 l -5.18625,0 c -0.0663,0.58875 -0.2225,1.10375 -0.445,1.52875" />
      <path
         id="path8646"
         style="fill:#ff6700;fill-opacity:1;fill-rule:nonzero;stroke:none"
         d="m -426.22607,875.25017 c -1.87625,0 -3.59875,0.76875 -4.82625,1.99875 -1.23,1.22625 -1.99875,2.95 -1.99875,4.825 l 0,6.27125 5.18125,0 0,-2.76375 0,-3.4 c 10e-4,-0.7475 0.18,-1.385 0.4825,-1.88 0.305,-0.4875 0.69875,-0.77625 1.16125,-0.77875 0.4625,0.003 0.8575,0.29125 1.1625,0.77875 0.30125,0.495 0.48,1.1325 0.48125,1.88 l 0,6.16375 5.18,0 0,-6.27125 c 0.002,-1.875 -0.7675,-3.59875 -1.9975,-4.825 -1.2275,-1.23 -2.95,-1.99875 -4.82625,-1.99875" />
      <path
         id="path8650"
         style="fill:#ff6700;fill-opacity:1;fill-rule:nonzero;stroke:none"
         d="m -386.21644,879.07443 c 0.72625,-1.23125 0.3175,-2.82 -0.915,-3.54625 -1.2325,-0.7275 -2.82,-0.3175 -3.5475,0.915 l -2.34625,4.1925 0,-2.795 c 0,-1.43 -1.16,-2.59 -2.59,-2.59 -1.43125,0 -2.59125,1.16 -2.59125,2.59 l 0,10.50375 5.18125,0 0,-4.13375 2.745,4.22125 c 0,0 3.3275,-0.002 4.27875,-0.002 0.7575,0 1.1075,-0.76 0.4875,-1.6925 l -2.6675,-4.09625 1.965,-3.56625 z" />
      <path
         id="path8654"
         style="fill:#ff6700;fill-opacity:1;fill-rule:nonzero;stroke:none"
         d="m -413.82569,873.57267 c 0.52125,-0.52125 0.84375,-1.24125 0.84375,-2.03625 0,-0.79625 -0.3225,-1.515 -0.84375,-2.0375 -0.52125,-0.52 -1.24125,-0.8425 -2.03625,-0.8425 -0.795,0 -1.515,0.3225 -2.03625,0.84375 -0.52125,0.52125 -0.845,1.24 -0.845,2.03625 0,0.795 0.32375,1.515 0.845,2.03625 l 0.63625,0.63625 c 1.06125,1.0625 1.1375,1.34375 0.1275,2.3525 l -0.57875,0.57875 c -0.47375,0.47375 -0.76625,1.12875 -0.76625,1.85125 l 0,9.35375 5.23625,0 0,-9.35375 c 0,-0.7225 -0.29375,-1.3775 -0.7675,-1.85125 l -0.57875,-0.5775 c -1.01,-1.00875 -0.935,-1.29125 0.1275,-2.35375 l 0.63625,-0.63625 z" />
      <path
         id="path8658"
         style="fill:#bdf00b;fill-opacity:1;fill-rule:nonzero;stroke:none"
         d="m -331.90044,877.26692 c -1.22875,-1.23375 -2.95375,-2.005 -4.83375,-2.0025 -1.88,-0.002 -3.605,0.76875 -4.835,2.0025 -1.2325,1.22875 -2.0025,2.95375 -2.00125,4.83375 l 0,6.245 5.19,0 0,-2.7325 0,-3.40625 c 0.001,-0.7475 0.18,-1.3875 0.4825,-1.8825 0.30625,-0.48875 0.70125,-0.7775 1.16375,-0.78 0.4625,0.003 0.85875,0.29125 1.165,0.78 0.30125,0.495 0.48,1.135 0.48125,1.8825 l 0,6.13875 5.19,0 0,-6.245 c 0.001,-1.88 -0.76875,-3.605 -2.0025,-4.83375" />
      <path
         id="path8662"
         style="fill:#bdf00b;fill-opacity:1;fill-rule:nonzero;stroke:none"
         d="m -349.88544,884.28217 c -0.30625,0.565 -0.70125,0.8975 -1.16375,0.90125 -0.46375,-0.004 -0.8575,-0.33625 -1.16375,-0.90125 -0.3025,-0.57125 -0.48125,-1.30875 -0.4825,-2.17375 0.001,-0.865 0.18,-1.60375 0.4825,-2.175 0.30625,-0.56375 0.7,-0.8975 1.16375,-0.90125 0.4625,0.004 0.8575,0.3375 1.16375,0.9025 0.30125,0.57 0.48125,1.30875 0.4825,2.17375 -10e-4,0.86375 -0.18125,1.6025 -0.4825,2.17375 m 3.67,-7.00875 c -1.22875,-1.23375 -2.955,-2.0025 -4.83375,-2.0025 -1.88,0 -3.60625,0.76875 -4.83375,2.0025 -1.2325,1.22875 -2.00375,2.955 -2.0025,4.835 -10e-4,1.87875 0.77,3.605 2.0025,4.83375 0,0 0.001,0 0.001,0 l -0.001,0 c 0.1125,0.11375 0.38375,0.355 0.3975,0.3675 1.19,1.01625 2.75125,1.63625 4.43625,1.635 1.6825,10e-4 3.24,-0.6175 4.43,-1.63125 0.0188,-0.0162 0.29125,-0.25875 0.40375,-0.37125 1.23375,-1.22875 2.005,-2.955 2.00375,-4.83375 10e-4,-1.88 -0.77,-3.60625 -2.00375,-4.835" />
      <path
         id="path8666"
         style="fill:#bdf00b;fill-opacity:1;fill-rule:nonzero;stroke:none"
         d="m -363.95719,884.28217 c -0.30625,0.565 -0.70125,0.8975 -1.16375,0.90125 -0.4625,-0.004 -0.8575,-0.33625 -1.16375,-0.90125 -0.3025,-0.57125 -0.48,-1.30875 -0.4825,-2.17375 0.003,-0.865 0.18,-1.60375 0.4825,-2.175 0.30625,-0.56375 0.70125,-0.8975 1.16375,-0.90125 0.4625,0.004 0.8575,0.3375 1.16375,0.9025 0.3025,0.57 0.48125,1.30875 0.4825,2.17375 -10e-4,0.86375 -0.18,1.6025 -0.4825,2.17375 m 3.67,-7.00875 c -1.22875,-1.23375 -2.955,-2.0025 -4.83375,-2.0025 -1.88,0 -3.605,0.76875 -4.83375,2.0025 -1.2325,1.22875 -2.00375,2.955 -2.0025,4.835 -10e-4,1.87875 0.77,3.605 2.0025,4.83375 0,0 0.001,0 0.001,0 l -0.001,0 c 0.11375,0.11375 0.38375,0.355 0.3975,0.3675 1.19125,1.01625 2.75125,1.63625 4.43625,1.635 1.6825,10e-4 3.24,-0.6175 4.43,-1.63125 0.0188,-0.0162 0.2925,-0.25875 0.40375,-0.37125 1.23375,-1.22875 2.005,-2.955 2.00375,-4.83375 10e-4,-1.88 -0.77,-3.60625 -2.00375,-4.835" />
    </g>
  </g>
</svg>
