<?xml version="1.0" encoding="UTF-8" standalone="no"?>
<!-- Created with Inkscape (http://www.inkscape.org/) -->

<svg
   xmlns:dc="http://purl.org/dc/elements/1.1/"
   xmlns:cc="http://creativecommons.org/ns#"
   xmlns:rdf="http://www.w3.org/1999/02/22-rdf-syntax-ns#"
   xmlns:svg="http://www.w3.org/2000/svg"
   xmlns="http://www.w3.org/2000/svg"
   xmlns:sodipodi="http://sodipodi.sourceforge.net/DTD/sodipodi-0.dtd"
   xmlns:inkscape="http://www.inkscape.org/namespaces/inkscape"
   width="1000"
   height="124.60387"
   id="svg12551"
   version="1.1"
   inkscape:version="0.91pre2 r13516"
   sodipodi:docname="nickelodeon hd.svg">
  <defs
     id="defs12553">
    <clipPath
       clipPathUnits="userSpaceOnUse"
       id="clipPath3563">
      <path
         inkscape:connector-curvature="0"
         d="m 28.764,505.401 100.22,0 0,12.488 -100.22,0 0,-12.488 z"
         id="path3565" />
    </clipPath>
  </defs>
  <sodipodi:namedview
     id="base"
     pagecolor="#ffffff"
     bordercolor="#666666"
     borderopacity="1.0"
     inkscape:pageopacity="0.0"
     inkscape:pageshadow="2"
     inkscape:zoom="0.7"
     inkscape:cx="487.14286"
     inkscape:cy="211.09926"
     inkscape:document-units="px"
     inkscape:current-layer="layer1"
     showgrid="false"
     fit-margin-top="0"
     fit-margin-left="0"
     fit-margin-right="0"
     fit-margin-bottom="0"
     inkscape:window-width="1920"
     inkscape:window-height="1017"
     inkscape:window-x="-8"
     inkscape:window-y="-8"
     inkscape:window-maximized="1" />
  <metadata
     id="metadata12556">
    <rdf:RDF>
      <cc:Work
         rdf:about="">
        <dc:format>image/svg+xml</dc:format>
        <dc:type
           rdf:resource="http://purl.org/dc/dcmitype/StillImage" />
        <dc:title></dc:title>
      </cc:Work>
    </rdf:RDF>
  </metadata>
  <g
     inkscape:label="Ebene 1"
     inkscape:groupmode="layer"
     id="layer1"
     transform="translate(-240.21964,-718.42034)">
    <g
       id="g4260">
      <path
         d="m 1125.977,770.6225 14.8972,0 0,21.4528 20.8641,0 0,-21.4528 14.8773,0 0,57.05448 -14.8773,0 0,-23.16903 -20.8641,0 0,23.16903 -14.8972,0 0,-57.05448 z"
         style="fill:#e4e4e4;fill-opacity:1;fill-rule:nonzero;stroke:none"
         id="path3557"
         inkscape:connector-curvature="0" />
      <path
         d="m 1204.4034,814.8512 6.5556,0 c 8.7807,0 14.2287,-6.99461 14.2287,-16.60347 0,-8.70086 -5.8172,-15.18659 -13.7697,-15.18659 l -7.0146,0 0,31.79006 z m -15.1167,-44.23269 23.8375,0 c 15.3363,0 27.1004,11.39493 27.1004,27.84873 0,16.69328 -11.0956,29.20575 -26.9407,29.20575 l -23.9972,0 0,-57.05448 z"
         style="fill:#e4e4e4;fill-opacity:1;fill-rule:nonzero;stroke:none"
         id="path3569"
         inkscape:connector-curvature="0" />
      <path
         inkscape:connector-curvature="0"
         id="path3571"
         style="fill:#e4e4e4;fill-opacity:1;fill-rule:nonzero;stroke:none"
         d="m 1239.9403,764.5788 -113.9992,0 0,-6.2762 113.9992,0 0,6.2762 z" />
      <path
         inkscape:connector-curvature="0"
         id="path3573"
         style="fill:#e4e4e4;fill-opacity:1;fill-rule:nonzero;stroke:none"
         d="m 1240.06,840.10264 -114.1189,0 0,-6.27619 114.1189,0 0,6.27619 z" />
      <g
         transform="matrix(9.9780483,0,0,-9.9780483,1104.4533,825.92583)"
         id="g3575">
        <path
           inkscape:connector-curvature="0"
           id="path3577"
           style="fill:#f68b1f;fill-opacity:1;fill-rule:nonzero;stroke:none"
           d="M 0,0 0.04,0 0.689,-0.725 1.335,0 l 0.039,0 0,-1.36 -0.243,0 0,0.843 -0.418,-0.5 -0.047,0 -0.423,0.5 0,-0.843 L 0,-1.36 0,0 Z m -0.936,-0.228 -0.408,0 0,0.208 1.054,0 0,-0.208 -0.405,0 0,-1.132 -0.241,0 0,1.132 z" />
      </g>
      <g
         transform="matrix(9.9780483,0,0,-9.9780483,282.15638,759.09386)"
         id="g3579">
        <path
           inkscape:connector-curvature="0"
           id="path3581"
           style="fill:#f68b1f;fill-opacity:1;fill-rule:nonzero;stroke:none"
           d="M 0,0 C -1.156,0 -2.216,-0.473 -2.972,-1.23 -3.73,-1.987 -4.203,-3.048 -4.203,-4.203 l 0,-3.839 3.19,0 0,1.68 0,2.094 c 0.003,0.46 0.112,0.853 0.297,1.158 0.189,0.299 0.433,0.478 0.716,0.478 0.285,0 0.527,-0.179 0.716,-0.478 0.185,-0.305 0.296,-0.698 0.297,-1.158 l 0,-3.774 3.19,0 0,3.839 C 4.204,-3.048 3.73,-1.987 2.972,-1.23 2.216,-0.473 1.157,0 0,0" />
      </g>
      <g
         transform="matrix(9.9780483,0,0,-9.9780483,1044.2538,759.09386)"
         id="g3583">
        <path
           inkscape:connector-curvature="0"
           id="path3585"
           style="fill:#f68b1f;fill-opacity:1;fill-rule:nonzero;stroke:none"
           d="m 0,0 c -1.156,0 -2.216,-0.473 -2.972,-1.23 -0.758,-0.757 -1.232,-1.818 -1.23,-2.973 l 0,-3.839 3.191,0 -0.002,1.68 0,2.094 c 0.002,0.46 0.111,0.853 0.297,1.158 0.188,0.299 0.432,0.478 0.716,0.478 0.285,0 0.529,-0.179 0.717,-0.478 0.185,-0.305 0.295,-0.698 0.297,-1.158 l 0,-3.774 3.189,0 0,3.839 c 0,1.155 -0.472,2.216 -1.231,2.973 C 2.216,-0.473 1.156,0 0,0" />
      </g>
      <g
         transform="matrix(9.9780483,0,0,-9.9780483,358.36372,748.78754)"
         id="g3587">
        <path
           inkscape:connector-curvature="0"
           id="path3589"
           style="fill:#f68b1f;fill-opacity:1;fill-rule:nonzero;stroke:none"
           d="m 0,0 c 0.321,0.321 0.519,0.763 0.519,1.254 0,0.49 -0.198,0.934 -0.519,1.254 -0.322,0.322 -0.765,0.519 -1.255,0.519 -0.489,0 -0.933,-0.197 -1.254,-0.519 -0.32,-0.32 -0.52,-0.764 -0.52,-1.254 0,-0.491 0.2,-0.933 0.52,-1.254 l 0.392,-0.392 c 0.653,-0.654 0.7,-0.827 0.078,-1.449 l -0.355,-0.356 c -0.292,-0.293 -0.473,-0.695 -0.473,-1.14 l 0,-5.738 3.225,0 0,5.738 c 0,0.445 -0.18,0.847 -0.472,1.14 l -0.357,0.356 c -0.621,0.621 -0.575,0.795 0.079,1.45 L 0,0 Z" />
      </g>
      <g
         transform="matrix(9.9780483,0,0,-9.9780483,415.38528,814.40019)"
         id="g3591">
        <path
           inkscape:connector-curvature="0"
           id="path3593"
           style="fill:#f68b1f;fill-opacity:1;fill-rule:nonzero;stroke:none"
           d="m 0,0 c -0.189,-0.347 -0.431,-0.553 -0.716,-0.553 -0.283,0 -0.527,0.206 -0.715,0.553 -0.184,0.35 -0.296,0.805 -0.296,1.335 0,0.532 0.112,0.985 0.296,1.337 0.188,0.347 0.432,0.552 0.715,0.554 C -0.431,3.224 -0.189,3.019 0,2.672 0.139,2.411 0.234,2.094 0.274,1.73 l 3.195,0 C 3.375,2.732 2.928,3.639 2.257,4.308 1.501,5.066 0.44,5.54 -0.716,5.538 -1.87,5.54 -2.931,5.066 -3.687,4.308 -4.445,3.552 -4.919,2.491 -4.918,1.335 c -10e-4,-1.154 0.473,-2.215 1.231,-2.971 0.582,-0.583 1.594,-1.232 2.971,-1.232 1.036,0 1.994,0.38 2.725,1.003 0.534,0.453 1.324,1.363 1.46,2.805 l -3.195,0 C 0.234,0.577 0.139,0.259 0,0" />
      </g>
      <g
         transform="matrix(9.9780483,0,0,-9.9780483,562.91072,793.51613)"
         id="g3595">
        <path
           inkscape:connector-curvature="0"
           id="path3597"
           style="fill:#f68b1f;fill-opacity:1;fill-rule:nonzero;stroke:none"
           d="M 0,0 C 0.057,0.245 0.135,0.461 0.21,0.622 0.352,0.927 0.641,1.174 0.926,1.175 1.213,1.174 1.447,0.971 1.647,0.61 1.733,0.455 1.812,0.185 1.848,0.006 L 0,0 Z M 0.926,3.452 C -0.231,3.453 -1.291,2.98 -2.046,2.222 -2.804,1.466 -3.28,0.405 -3.277,-0.751 c -0.003,-1.155 0.473,-2.216 1.231,-2.971 0.736,-0.738 1.777,-1.232 2.991,-1.232 1.247,0 2.28,0.557 2.977,1.258 0.88,1.008 0.921,2.084 0.921,2.084 l -2.844,0 c 0,0 -0.395,-0.993 -1.073,-0.993 -0.285,10e-4 -0.528,0.206 -0.716,0.554 -0.127,0.24 -0.218,0.53 -0.263,0.859 l 4.953,0 c 0,0 0.339,2.02 -1.016,3.388 -0.788,0.796 -1.79,1.257 -2.958,1.256" />
      </g>
      <g
         transform="matrix(9.9780483,0,0,-9.9780483,860.92309,793.51613)"
         id="g3599">
        <path
           inkscape:connector-curvature="0"
           id="path3601"
           style="fill:#f68b1f;fill-opacity:1;fill-rule:nonzero;stroke:none"
           d="M 0,0 C 0.056,0.245 0.136,0.461 0.21,0.622 0.351,0.927 0.641,1.174 0.926,1.175 1.211,1.174 1.447,0.971 1.648,0.61 1.732,0.455 1.811,0.185 1.848,0.006 L 0,0 Z M 0.926,3.452 C -0.23,3.453 -1.29,2.98 -2.046,2.222 -2.803,1.466 -3.279,0.405 -3.277,-0.751 c -0.002,-1.155 0.474,-2.216 1.231,-2.971 0.737,-0.738 1.778,-1.232 2.99,-1.232 1.249,0 2.282,0.557 2.979,1.258 0.878,1.008 0.92,2.084 0.92,2.084 l -2.844,0 c 0,0 -0.395,-0.993 -1.073,-0.993 -0.285,10e-4 -0.527,0.206 -0.716,0.554 -0.127,0.24 -0.218,0.53 -0.263,0.859 l 4.951,0 c 0,0 0.341,2.02 -1.015,3.388 C 3.097,2.992 2.094,3.453 0.926,3.452" />
      </g>
      <g
         transform="matrix(9.9780483,0,0,-9.9780483,632.24818,718.42134)"
         id="g3603">
        <path
           inkscape:connector-curvature="0"
           id="path3605"
           style="fill:#f68b1f;fill-opacity:1;fill-rule:nonzero;stroke:none"
           d="m 0,0 c -0.883,-0.001 -1.596,-0.715 -1.596,-1.597 l 0.005,-10.522 3.19,0.002 -0.004,10.523 C 1.594,-0.714 0.88,0 0,0" />
      </g>
      <g
         transform="matrix(9.9780483,0,0,-9.9780483,694.53914,819.90508)"
         id="g3607">
        <path
           inkscape:connector-curvature="0"
           id="path3609"
           style="fill:#f68b1f;fill-opacity:1;fill-rule:nonzero;stroke:none"
           d="m 0,0 c -0.559,0 -1.012,0.846 -1.012,1.892 0,1.044 0.453,1.892 1.012,1.892 0.559,0 1.014,-0.848 1.014,-1.892 C 1.014,0.846 0.559,0 0,0 m 0.001,6.095 c -2.322,0 -4.204,-1.883 -4.204,-4.203 0,-2.321 1.882,-4.203 4.204,-4.203 2.321,0 4.203,1.882 4.203,4.203 0,2.32 -1.882,4.203 -4.203,4.203" />
      </g>
      <g
         transform="matrix(9.9780483,0,0,-9.9780483,956.45193,819.90508)"
         id="g3611">
        <path
           inkscape:connector-curvature="0"
           id="path3613"
           style="fill:#f68b1f;fill-opacity:1;fill-rule:nonzero;stroke:none"
           d="m 0,0 c -0.56,0 -1.013,0.846 -1.013,1.892 0,1.044 0.453,1.892 1.013,1.892 0.558,0 1.01,-0.848 1.01,-1.892 C 1.01,0.846 0.558,0 0,0 m 0,6.095 c -2.323,0 -4.204,-1.883 -4.204,-4.203 0,-2.321 1.881,-4.203 4.204,-4.203 2.322,0 4.203,1.882 4.203,4.203 0,2.32 -1.881,4.203 -4.203,4.203" />
      </g>
      <g
         transform="matrix(9.9780483,0,0,-9.9780483,782.25117,819.90508)"
         id="g3615">
        <path
           inkscape:connector-curvature="0"
           id="path3617"
           style="fill:#f68b1f;fill-opacity:1;fill-rule:nonzero;stroke:none"
           d="m 0,0 c -0.56,0 -1.013,0.846 -1.013,1.892 0,1.044 0.453,1.892 1.013,1.892 0.559,0 1.012,-0.848 1.012,-1.892 C 1.012,0.846 0.559,0 0,0 M 4.202,1.891 4.208,1.886 4.204,8.576 c 0,0.881 -0.716,1.596 -1.595,1.595 C 1.727,10.17 1.014,9.456 1.014,8.574 l 0,-2.608 C 0.688,6.047 0.348,6.09 0,6.09 -1.157,6.091 -2.217,5.617 -2.972,4.859 -3.732,4.104 -4.204,3.042 -4.203,1.886 -4.204,0.732 -3.732,-0.328 -2.972,-1.085 -2.489,-1.57 -1.451,-2.317 0,-2.317 c 1.449,0 2.487,0.747 2.971,1.232 0.759,0.757 1.231,1.817 1.231,2.971 l 0,0.005 z" />
      </g>
      <g
         transform="matrix(9.9780483,0,0,-9.9780483,534.83349,833.77556)"
         id="g3619">
        <path
           inkscape:connector-curvature="0"
           id="path3621"
           style="fill:#f68b1f;fill-opacity:1;fill-rule:nonzero;stroke:none"
           d="m 0,0 c 0,0.107 -0.032,0.206 -0.085,0.29 l -1.746,2.642 1.209,2.198 c 0.447,0.758 0.194,1.737 -0.565,2.184 -0.759,0.447 -1.737,0.194 -2.184,-0.564 l -1.445,-2.582 0,1.721 c 0,0.882 -0.714,1.595 -1.596,1.595 -0.88,0 -1.594,-0.713 -1.594,-1.595 l 0,-6.446 3.19,0 0,2.524 1.684,-2.524 2.575,0.001 0,0.002 C -0.25,-0.554 0,-0.306 0,0" />
      </g>
    </g>
  </g>
</svg>
