<?xml version="1.0" encoding="UTF-8"?>
<svg width="800" height="244.39" version="1.1" xmlns="http://www.w3.org/2000/svg">
	<defs>
		<filter id="filter1146" x="-.018731" y="-.033394" width="1.0375" height="1.0668" color-interpolation-filters="sRGB">
			<feGaussianBlur stdDeviation="2.8303222"/>
		</filter>
	</defs>
	<path d="m135.15 138.61c-2.738 5.051-6.685 9.102-11.841 12.155-5.162 3.052-10.793 4.576-16.898 4.576-9.047 0-16.787-3.207-23.207-9.627s-9.627-14.16-9.627-23.207c0-9.053 3.207-16.842 9.627-23.367 6.42-6.525 14.16-9.787 23.207-9.787a31.01 31.01 0 0 1 16.898 4.891c5.156 3.262 9.103 7.314 11.841 12.155l25.575-14.524c-5.267-9.473-12.736-17.101-22.418-22.892-9.689-5.784-20.314-8.683-31.898-8.683-8.418 0-16.417 1.634-23.997 4.896-7.58 3.262-14.153 7.684-19.735 13.26-5.575 5.581-9.997 12.155-13.259 19.735-3.262 7.58-4.897 15.683-4.897 24.317 0 8.627 1.634 16.731 4.897 24.311s7.684 14.153 13.259 19.735c5.581 5.581 12.155 9.996 19.735 13.259 7.58 3.263 15.578 4.897 23.997 4.897 11.372 0 21.948-2.948 31.734-8.844 9.787-5.889 17.311-13.469 22.578-22.732zm93.46-16.73c0 16.842-3.213 32.736-9.633 47.684-6.42 14.942-15.103 27.943-26.05 38.993s-23.891 19.784-38.833 26.205c-14.949 6.419-30.841 9.632-47.683 9.632-22.732 0-43.522-5.791-62.361-17.366-18.839-11.575-33.517-26.735-44.046-45.471l25.575-13.895c7.789 13.895 18.945 25.156 33.47 33.791 14.53 8.628 30.318 12.945 47.363 12.945 12.63 0 24.632-2.424 35.996-7.265 11.364-4.841 21.209-11.415 29.522-19.734 8.319-8.314 14.949-18.1 19.895-29.362 4.946-11.262 7.419-23.311 7.419-36.156v0.635c0-12.846-2.473-24.897-7.419-36.156s-11.576-21.048-19.895-29.362c-8.314-8.319-18.156-14.894-29.522-19.735-11.366-4.841-23.367-7.265-35.996-7.265-17.046 0-32.833 4.317-47.363 12.945-14.523 8.634-25.68 19.895-33.47 33.79l-25.575-13.894c10.527-18.736 25.205-33.894 44.046-45.471 18.841-11.577 39.63-17.367 62.361-17.367 16.842 0 32.736 3.213 47.683 9.633s27.888 15.153 38.833 26.204 19.63 24.051 26.05 38.993c6.42 14.949 9.633 30.842 9.633 47.683z" fill="#fdc600"/>
	<path d="m287.31 17.056c-4.002 0-7.7329 0.58137-11.211 1.7344-3.472 1.159-6.4681 2.689-8.9961 4.582-3.996 3.577-7.1045 8.313-9.3125 14.209-2.214 5.895-3.3164 13.258-3.3164 22.102v11.367c0 9.053 1.1034 16.631 3.3164 22.73 2.208 6.106 5.3155 10.738 9.3125 13.895 2.528 2.109 5.527 3.7365 8.998 4.8965 3.478 1.159 7.2089 1.7324 11.211 1.7324 6.944 0 13-1.6267 18.156-4.8887 5.156-3.262 9.1018-8.263 11.84-14.998l-16.736-7.2656c-1.474 3.577-3.3667 6.1051-5.6797 7.5781a13.84 13.84 0 0 1-7.5801 2.209c-1.893 0-3.6319-0.36351-5.2109-1.1035-1.579-0.734-2.8923-1.8385-3.9473-3.3125-1.474-1.683-2.6257-4.2111-3.4707-7.5781s-1.2637-7.9985-1.2637-13.895v-10.738c0-5.895 0.41868-10.575 1.2637-14.047 0.845-3.472 1.9967-6.0562 3.4707-7.7402h-2e-3c1.055-1.258 2.3683-2.2089 3.9473-2.8379 1.579-0.635 3.3169-0.94922 5.2109-0.94922 2.529 0 5.001 0.68473 7.418 2.0527 2.424 1.369 4.3668 4.0528 5.8418 8.0488l16.736-7.5742c-2.738-7.16-6.7893-12.315-12.154-15.473-5.371-3.157-11.317-4.7363-17.842-4.7363zm71.672 2e-3c-4.415 0-8.2575 0.57942-11.52 1.7324-3.262 1.159-6.264 2.69-9.0019 4.584-3.996 3.577-7.1536 8.312-9.4726 14.207-2.313 5.895-3.4726 13.259-3.4726 22.102v11.367c0 9.053 1.1606 16.633 3.4726 22.732 2.319 6.106 5.4766 10.736 9.4726 13.893a32.48 32.48 0 0 0 9.0019 4.8984c3.263 1.159 7.1045 1.7324 11.52 1.7324 4.003 0 7.6345-0.57342 10.896-1.7324a32.46 32.46 0 0 0 9-4.8984c4.212-3.157 7.3696-7.7866 9.4726-13.893 2.103-6.099 3.1562-13.575 3.1562-22.418v-11.682c0-8.843-1.0532-16.207-3.1562-22.102-2.103-5.895-5.2606-10.63-9.4726-14.207-2.738-1.893-5.737-3.425-9-4.584-3.263-1.159-6.8935-1.7324-10.896-1.7324zm276.6 1.2422 26.519 48.941v45.465h18.945v-45.465l26.52-48.941h-20.521l-15.787 29.676-15.154-29.676zm-222.92 0.0039-11.051 94.408h17.689l5.6738-51.467 14.215 51.467h15.471l13.898-51.467 5.998 51.467h17.365l-10.734-94.408h-17.684l-16.42 59.353-16.422-59.353zm94.101 0.01172v94.404h49.891v-17.365h-31.264v-21.785h27.473v-17.998h-27.473v-19.576h31.264v-17.68zm66.008 0v94.404h30.312c4.841 0 9.312-0.94489 13.418-2.8379 4.108-1.9 7.5247-4.5256 10.262-7.8926 2.738-3.373 4.8956-7.6341 6.4746-12.789 1.579-5.155 2.3672-10.683 2.3672-16.578v-17.051c0-5.26-0.78919-10.206-2.3672-14.838s-3.7356-8.6349-6.4746-12.002c-2.739-3.367-6.1547-5.9434-10.262-7.7324-4.107-1.789-8.578-2.6836-13.418-2.6836zm-213.79 16.424c1.9 0 3.5846 0.31422 5.0586 0.94922 1.473 0.629 2.7321 1.5799 3.7871 2.8379 1.474 1.684 2.6327 4.2663 3.4707 7.7383 0.84498 3.472 1.2637 8.1528 1.2637 14.049v10.736c0 5.896-0.41867 10.529-1.2637 13.896-0.838 3.367-1.9967 5.8951-3.4707 7.5781-1.055 1.474-2.3683 2.5785-3.9473 3.3125-1.579 0.73999-3.2154 1.1035-4.8984 1.1035-2.103 0-3.9947-0.36452-5.6777-1.1035a9.74 9.74 0 0 1-4.1094-3.3125c-1.474-1.683-2.6267-4.2121-3.4707-7.5781s-1.2637-7.9985-1.2637-13.895v-10.738c0-5.895 0.41867-10.576 1.2637-14.049 0.84503-3.473 1.9977-6.0543 3.4707-7.7383 1.055-1.258 2.4254-2.2069 4.1094-2.8359 1.683-0.635 3.5747-0.94922 5.6777-0.94922zm232.73 1.2559h9.1582c2.732 0 5.0494 0.42062 6.9434 1.2656 1.893 0.839 3.4713 2.1031 4.7363 3.7871 1.474 1.893 2.5292 4.1069 3.1582 6.6289 0.629 2.529 0.95118 5.3723 0.95118 8.5293v15.152c0 4.002-0.32118 7.5222-0.95118 10.574-0.63 3.052-1.6842 5.6312-3.1582 7.7402-1.264 1.683-2.8433 3.0536-4.7363 4.1016-1.894 1.055-4.2114 1.5781-6.9434 1.5781h-9.1582zm-304.41 94.41c-4.002 0-7.7329 0.62858-11.211 1.8926-3.472 1.264-6.4681 2.9478-8.9961 5.0508-3.996 3.367-7.1045 7.9995-9.3125 13.895-2.214 5.896-3.3164 13.26-3.3164 22.103v11.68c0 9.053 1.1034 16.528 3.3164 22.418 2.208 5.896 5.3155 10.526 9.3125 13.893 2.528 2.109 5.527 3.6873 8.998 4.7363 3.478 1.055 7.2089 1.5781 11.211 1.5781 6.944 0 13-1.6286 18.156-4.8906 5.156-3.262 9.1018-8.1576 11.84-14.682l-16.736-7.5801c-1.474 3.787-3.3667 6.3161-5.6797 7.5801-2.319 1.264-4.8421 1.8926-7.5801 1.8926-1.893 0-3.6319-0.26506-5.2109-0.78906s-2.8923-1.523-3.9473-2.998c-1.474-1.473-2.6257-3.9468-3.4707-7.4258-0.845-3.472-1.2637-8.1519-1.2637-14.047v-10.422c0-6.315 0.41868-11.156 1.2637-14.523 0.845-3.367 1.9967-5.7858 3.4707-7.2598h-2e-3c1.055-1.473 2.3683-2.472 3.9473-3.002 1.579-0.524 3.3169-0.78906 5.2109-0.78906 2.529 0 5.001 0.63458 7.418 1.8926 2.424 1.264 4.3668 3.7911 5.8418 7.5781l16.736-6.9434c-2.738-7.16-6.7893-12.419-12.154-15.787-5.371-3.367-11.317-5.0508-17.842-5.0508zm170.82 1.5625v17.684h17.682v76.721h18.627v-76.721h17.684v-17.684zm94.096 8e-3 -29.998 2e-3v94.404h18.945v-29.996h8.207l12.631 29.996h18.631l-13.266-33.783c4.003-2.738 7.264-6.4749 9.793-11.211 2.522-4.736 3.7871-10.159 3.7871-16.258v-2.2129c0-8.837-2.6837-16.207-8.0547-22.102-5.365-5.896-12.258-8.8398-20.676-8.8398zm-224.81 6e-3v94.404h47.996v-17.366h-29.051v-21.777h24.633v-17.689h-24.633v-19.889h29.051v-17.684zm61.889 0v94.404h17.049v-54.619l25.576 54.619h16.73v-94.404h-17.365v55.262l-25.576-55.262zm272.8 0v94.404h46.416v-17.365h-27.471l-2e-3 -77.039zm-49.283 0.30663-27.152 94.09h19.574l2.8438-11.994h25.26l2.5293 11.994h19.889l-27.469-94.09zm-71.644 17.371h9.1582c3.367 0 6.2085 1.1036 8.5215 3.3105 2.313 2.214 3.4727 5.6307 3.4727 10.262v0.63672c0 5.26-1.1607 9.0522-3.4727 11.365-2.312 2.313-5.1545 3.4707-8.5215 3.4707h-9.1582zm79.539 8.2031c0 1.264 0.26506 3.1585 0.78906 5.6875l1.4238 6.9434 6.3164 27.467h-17.367l6.6289-27.467 1.418-6.9434c0.53098-2.529 0.791-4.4225 0.791-5.6875z" fill="#f2f2f2"/>
	<path d="m752.9 168.01v12.603h-15.887v20.375h-12.603v-20.375h-15.886v-12.603h15.886v-20.375h12.603v20.375zm13.81-13.89v-18.713l19.842-13.347h13.453v104.14l-18.293 2e-3v-82.092z" fill="#fdc600"/>
	<path d="m421.9 70.615c2.5589-5.0458 3.1807-11.048 1.2738-16.822-1.9115-5.7883-5.9838-10.24-11.041-12.754-4.9014-2.4504-10.717-3.1028-16.353-1.3997l-1.0865 0.35882c-5.5419 1.9864-9.827 5.9732-12.304 10.863-2.5633 5.0299-3.2007 11.037-1.2892 16.825 1.9068 5.7742 5.9944 10.221 11.056 12.75l6.1656 3.0834c10.302 5.1642 11.523 7.0202 6.5737 16.78l-2.8387 5.5959c-2.317 4.6007-2.8954 10.058-1.1584 15.318l22.342 67.656 38.242-12.629-22.342-67.656c-1.737-5.2598-5.434-9.3066-10.035-11.621l-5.6086-2.7902c-9.7899-4.8949-9.9168-7.1279-4.717-17.411zm-86.032 42.129c-13.628 4.4828-24.284 14.191-30.244 26.065-5.9945 11.83-7.4598 26.156-2.9468 39.769l14.923 45.19 37.594-12.415-14.672-44.429c-1.7713-5.42-2.0089-10.466-0.99472-14.78 1.0498-4.2637 3.2165-7.3057 6.5675-8.4275 3.3605-1.0946 6.9138 0.0585 10.296 2.8584 3.3815 2.8624 6.197 7.0576 8.0028 12.466l14.672 44.429 37.609-12.42-14.923-45.19a52.017 52.017 0 0 0-26.067-30.188c-11.86-5.9896-26.2-7.4452-39.817-2.9284zm178.67 12.878c-0.86541 4.804-2.9308 8.1799-6.2561 9.2953-3.3517 1.0878-7.0238-0.39159-10.578-3.7361-3.5378-3.4086-6.6054-8.3249-8.6715-14.581-2.0661-6.2566-2.5235-12.014-1.717-16.876 0.86287-4.8053 2.9303-8.1802 6.2728-9.3009 3.336-1.0831 7.0046 0.39584 10.561 3.7416 2.6311 2.536 4.9842 5.8963 6.871 10.011l37.553-12.401c-4.9893-11.404-13.776-20.343-24.254-25.614-11.836-5.9933-26.151-7.4356-39.72-2.9547-13.584 4.4859-24.227 14.169-30.148 26.028-5.9809 11.839-7.4324 26.158-2.9246 39.751 4.4738 13.604 14.167 24.243 26.023 30.193 9.1043 4.5922 23.531 8.3014 39.719 2.9552 12.15-4.0122 21.933-12.205 28.119-22.372 4.5052-7.4015 10.271-21.167 6.2597-38.677l-37.553 12.401c0.936 4.4312 1.0463 8.5318 0.44349 12.138zm147.8-23.506c-0.41287-1.2502-1.1783-2.2946-2.1168-3.0807l-30.846-24.243 5.7418-30.512c2.3308-10.657-4.4432-21.176-15.12-23.478-10.682-2.3024-21.238 4.4717-23.56 15.145l-7.0049 35.959-6.6818-20.233c-3.417-10.347-14.602-15.957-24.982-12.529s-16.037 14.599-12.62 24.946l25.013 75.742 37.603-12.418-9.7938-29.657 29.626 23.093 30.357-10.044c3.6163-1.198 5.5771-5.0824 4.3857-8.6903z" filter="url(#filter1146)"/>
	<path d="m421.9 70.615c2.5589-5.0458 3.1807-11.048 1.2738-16.822-1.9115-5.7883-5.9838-10.24-11.041-12.754-4.9014-2.4504-10.717-3.1028-16.353-1.3997l-1.0865 0.35882c-5.5419 1.9864-9.827 5.9732-12.304 10.863-2.5633 5.0299-3.2007 11.037-1.2892 16.825 1.9068 5.7742 5.9944 10.221 11.056 12.75l6.1656 3.0834c10.302 5.1642 11.523 7.0202 6.5737 16.78l-2.8387 5.5959c-2.317 4.6007-2.8954 10.058-1.1584 15.318l22.342 67.656 38.242-12.629-22.342-67.656c-1.737-5.2598-5.434-9.3066-10.035-11.621l-5.6086-2.7902c-9.7899-4.8949-9.9168-7.1279-4.717-17.411zm-86.032 42.129c-13.628 4.4828-24.284 14.191-30.244 26.065-5.9945 11.83-7.4598 26.156-2.9468 39.769l14.923 45.19 37.594-12.415-14.672-44.429c-1.7713-5.42-2.0089-10.466-0.99471-14.78 1.0498-4.2637 3.2165-7.3057 6.5675-8.4275 3.3605-1.0946 6.9138 0.0585 10.296 2.8584 3.3815 2.8624 6.197 7.0576 8.0028 12.466l14.672 44.429 37.609-12.42-14.923-45.19a52.017 52.017 0 0 0-26.067-30.188c-11.86-5.9896-26.2-7.4452-39.817-2.9284zm178.67 12.878c-0.86541 4.804-2.9308 8.1799-6.2561 9.2953-3.3517 1.0878-7.0238-0.39159-10.578-3.7361-3.5378-3.4086-6.6054-8.3249-8.6715-14.581-2.0661-6.2566-2.5235-12.014-1.717-16.876 0.86287-4.8053 2.9303-8.1802 6.2728-9.3009 3.336-1.0831 7.0046 0.39584 10.561 3.7416 2.6311 2.536 4.9842 5.8963 6.871 10.011l37.553-12.401c-4.9893-11.404-13.776-20.343-24.254-25.614-11.836-5.9933-26.151-7.4356-39.72-2.9547-13.584 4.4859-24.227 14.169-30.148 26.028-5.9809 11.839-7.4324 26.158-2.9246 39.751 4.4738 13.604 14.167 24.243 26.023 30.193 9.1043 4.5922 23.531 8.3014 39.719 2.9552 12.15-4.0122 21.933-12.205 28.119-22.372 4.5052-7.4015 10.271-21.167 6.2597-38.677l-37.553 12.401c0.936 4.4312 1.0463 8.5318 0.44349 12.138zm147.8-23.506c-0.41287-1.2502-1.1783-2.2946-2.1168-3.0807l-30.846-24.243 5.7418-30.512c2.3308-10.657-4.4432-21.176-15.12-23.478-10.682-2.3024-21.238 4.4717-23.56 15.145l-7.0049 35.959-6.6818-20.233c-3.417-10.347-14.602-15.957-24.982-12.529-10.38 3.428-16.037 14.599-12.62 24.946l25.013 75.742 37.603-12.418-9.7938-29.657 29.626 23.093 30.357-10.044c3.6163-1.198 5.5771-5.0824 4.3857-8.6903z" fill="#f58220"/>
</svg>
