<svg width="800" height="185.17" version="1.1" xmlns="http://www.w3.org/2000/svg">
	<g fill="#f6f6f6">
		<path d="m720.28 88.633 18.921 56.446-66.625 40.091v-96.537h14.135v62.864h17.008v-62.864zm-47.359-17.361h59.745l17.085 57.028 17.293-57.028h18.085l-18.753 57.462 33.626-20.232v-108.5z"/>
		<path d="m40.71 151.66v-44.657c0-5.7871-3.8575-7.678-8.9658-7.678h-11.95c-5.2271 0-9.0891 1.7646-9.0891 7.678v44.657h-10.705v-47.678c0-10.569 6.2238-15.347 16.308-15.347h18.801c10.209 0 16.183 4.6552 16.183 15.347v47.678zm23.897 0v-63.025h10.708v63.025zm5.2286-72.585c-3.8605 0-6.9724-3.1431-6.9724-7.0452 0-3.8991 2.9886-7.2947 6.9724-7.2947s7.0957 3.146 7.0957 7.17c0 3.8991-3.2352 7.17-7.0957 7.17zm59.505 27.295c0-5.2805-3.7328-7.0452-8.4652-7.0452h-11.827c-5.4781 0-9.8347 1.7646-9.8347 8.0523v12.453l30.127-12.453zm-30.002 23.903v1.8879c0 6.2876 2.6128 8.6776 8.7148 8.6776h32.118v10.821h-33.611c-4.8557 0-8.9643-0.254-12.825-3.5233-4.4814-3.7714-5.2286-8.0493-5.2286-13.582v-29.813c0-11.197 6.4733-16.103 17.057-16.103h18.798c11.206 0 15.937 5.79 15.937 16.859v7.923zm93.988-28.304c0-1.6354-1.12-2.5177-2.6128-2.5177h-19.672c-5.3533 0-8.7133 3.2738-8.7133 8.6806v25.66c0 5.4098 3.9823 7.0452 8.7133 7.0452h12.95c4.9775 0 9.3356-2.5148 9.3356-8.0538zm5.6044 45.665c-3.3629 2.7643-7.8458 4.0239-12.201 4.0239h-18.801c-10.708 0-16.308-6.1658-16.308-16.858v-29.561c0-10.065 6.1005-16.605 16.185-16.605h25.52v-22.266h10.705v68.053c1e-3 5.2835-0.86895 9.6847-5.1008 13.212zm59.251-41.264c0-5.2805-3.7342-7.0452-8.4652-7.0452h-11.83c-5.4781 0-9.8347 1.7646-9.8347 8.0523v12.453l30.13-12.453zm-30.002 23.903v1.8879c0 6.2876 2.6128 8.6776 8.7133 8.6776h32.12v10.821h-33.613c-4.8557 0-8.9628-0.254-12.822-3.5233-4.4844-3.7714-5.23-8.0493-5.23-13.582v-29.813c0-11.197 6.4733-16.103 17.055-16.103h18.799c11.204 0 15.935 5.79 15.935 16.859v7.923zm74.066-30.947c-6.7228-0.12477-10.211 1.3859-10.211 9.0579v43.272h-10.705v-46.164c0-11.323 5.4766-16.856 16.681-16.856h7.9706v10.69h-3.7357m55.145 8.8068c0-5.4083-3.3614-8.6806-8.7148-8.6806h-19.669c-1.4958 0-2.6143 0.88232-2.6143 2.5177v30.816c0 5.5375 4.3581 8.0508 9.3356 8.0508h12.948c5.1038 0 8.7148-1.7572 8.7148-7.5443zm-5.5999 43.526h-18.801c-4.3566 0-8.8395-1.2611-12.201-4.0254-4.2334-3.5248-5.1038-7.929-5.1038-13.21v-68.056h10.708v22.266h25.52c10.084 0 16.185 6.5431 16.185 16.605v29.562c0 10.69-5.6044 16.858-16.308 16.858zm70.706-29.944c0-1.6324-1.12-2.0097-2.491-2.0097h-20.417c-5.1038 0-7.5948 2.641-7.5948 7.7968v6.1673c0 4.5289 3.4877 7.167 7.721 7.167h15.313c4.4829 0 7.4685-2.3885 7.4685-7.0437zm-4.3566 29.944h-20.418c-9.3371 0-16.434-5.034-16.434-15.096v-11.323c0-9.9342 6.099-15.723 15.812-15.723h25.519c-0.1218-6.1644-1.12-10.193-8.2142-10.193h-32.867v-10.69h34.361c10.583 0 17.303 4.777 17.303 15.974v31.325c0 9.3074-5.7262 15.726-15.062 15.726zm64.23 22.385h-35.854v-10.941h32.869c7.8428 0 8.0924-5.0295 8.0924-11.446h-24.277c-4.979 0-8.0924-0.50354-11.828-4.1516-3.608-3.5233-4.8528-7.1714-4.8528-12.201v-46.669h10.707v43.648c0 5.536 2.8653 8.5543 8.3404 8.5543h19.172c2.1167 0 2.7376-1.3829 2.7376-3.2723v-48.93h10.708v68.556c-1e-3 9.8139-5.8524 16.853-15.813 16.853zm69.838-67.674c0-5.2805-3.7328-7.0452-8.4637-7.0452h-11.828c-5.4781 0-9.8362 1.7646-9.8362 8.0523v12.453l30.128-12.453zm-30.003 23.903v1.8879c0 6.2876 2.6143 8.6776 8.7148 8.6776h32.118v10.821h-33.613c-4.8542 0-8.9643-0.254-12.822-3.5233-4.4829-3.7714-5.2271-8.0493-5.2271-13.582v-29.813c0-11.197 6.4718-16.103 17.052-16.103h18.802c11.206 0 15.934 5.79 15.934 16.859v7.923zm74.066-30.947c-6.7214-0.12477-10.209 1.3859-10.209 9.0579v43.272h-10.705v-46.164c0-11.323 5.4781-16.856 16.684-16.856h7.9676v10.69h-3.7372m54.031 52.333v-44.657c0-5.7871-3.8605-7.678-8.9673-7.678h-11.95c-5.2271 0-9.0861 1.7646-9.0861 7.678v44.657h-10.708v-47.678c0-10.569 6.2238-15.347 16.31-15.347h18.799c10.209 0 16.182 4.6552 16.182 15.347v47.678z"/>
	</g>
</svg>
