<?xml version="1.0" encoding="UTF-8"?>
<svg width="800" height="189.51" version="1.1" xmlns="http://www.w3.org/2000/svg">
	<path d="m0 0v189.27h43.389v-121.72l73.175 121.49h41.044v-189.04h-43.389v121.49l-73.175-121.49zm182.94 0v189.27h48.08v-189.27zm66.374 0v40.809h37.76v148.23h48.08v-148.23h37.76v-40.809zm139.31 0v189.27l48.08 0.23451v-147.52h48.313c14.54 0 26.27 11.961 26.27 26.971 0 15.01-11.73 26.737-26.27 26.737h-43.857l66.375 93.345h54.881l-49.721-62.621c27.203-7.0358 47.376-32.131 47.376-62.152 0-35.649-28.146-64.263-62.859-64.263zm274.4 0c-53.005 0-95.923 42.451-95.923 94.518 0 52.067 42.918 94.518 95.923 94.518 53.009 0 95.927-42.451 95.927-94.518 0-52.067-42.918-94.518-95.927-94.518zm0 41.747c27.677 0 50.19 23.688 50.19 52.771 0 29.082-22.513 52.536-50.19 52.536-27.672 0-50.19-23.454-50.19-52.536 0-29.082 22.518-52.771 50.19-52.771z" fill="#e6e6e6"/>
	<path d="m800 148.46h-41.042v41.044h41.042z" fill="#b8e637"/>
</svg>
