<?xml version="1.0" encoding="UTF-8"?>
<svg width="800" height="190.12" version="1.1" viewBox="0 0 800 190.12" xmlns="http://www.w3.org/2000/svg">
 <path d="m0 0v189.88h43.529v-122.12l73.412 121.88h41.176v-189.65h-43.529v121.88l-73.412-121.88zm183.53 0v189.88h48.235v-189.88zm66.588 0v40.941h37.882v148.71h48.235v-148.71h37.882v-40.941zm139.76 0v189.88l48.235 0.2353v-148h48.471c14.588 0 26.353 12 26.353 27.059 0 15.059-11.765 26.824-26.353 26.824h-44l66.588 93.647h55.059l-49.882-62.824c27.294-7.0588 47.529-32.235 47.529-62.353 0-35.765-28.235-64.471-63.059-64.471zm275.29 0c-53.176 0-96.235 42.588-96.235 94.824 0 52.235 43.059 94.824 96.235 94.824s96.235-42.588 96.235-94.824c0-52.235-43.059-94.824-96.235-94.824zm0 41.882c27.765 0 50.353 23.765 50.353 52.941 0 29.176-22.588 52.706-50.353 52.706s-50.353-23.529-50.353-52.706c0-29.176 22.588-52.941 50.353-52.941z" fill="#bfbdc2" stroke-width="2.3529"/>
 <path d="m758.82 146.35h41.176v41.176h-41.176z" fill="#bae637" stroke-width="2.3529"/>
</svg>
