<?xml version="1.0" encoding="UTF-8" standalone="no"?>
<!-- Created with Inkscape (http://www.inkscape.org/) -->

<svg
   xmlns:dc="http://purl.org/dc/elements/1.1/"
   xmlns:cc="http://creativecommons.org/ns#"
   xmlns:rdf="http://www.w3.org/1999/02/22-rdf-syntax-ns#"
   xmlns:svg="http://www.w3.org/2000/svg"
   xmlns="http://www.w3.org/2000/svg"
   xmlns:sodipodi="http://sodipodi.sourceforge.net/DTD/sodipodi-0.dtd"
   xmlns:inkscape="http://www.inkscape.org/namespaces/inkscape"
   version="1.0"
   width="602.36218"
   height="190.20473"
   id="svg3873"
   inkscape:version="0.91pre3 r13670"
   sodipodi:docname="nordwestradio.svg">
  <metadata
     id="metadata11">
    <rdf:RDF>
      <cc:Work
         rdf:about="">
        <dc:format>image/svg+xml</dc:format>
        <dc:type
           rdf:resource="http://purl.org/dc/dcmitype/StillImage" />
      </cc:Work>
    </rdf:RDF>
  </metadata>
  <sodipodi:namedview
     pagecolor="#ffffff"
     bordercolor="#666666"
     borderopacity="1"
     objecttolerance="10"
     gridtolerance="10"
     guidetolerance="10"
     inkscape:pageopacity="0"
     inkscape:pageshadow="2"
     inkscape:window-width="1920"
     inkscape:window-height="1017"
     id="namedview9"
     showgrid="false"
     inkscape:zoom="0.58104577"
     inkscape:cx="301.18109"
     inkscape:cy="95.102364"
     inkscape:window-x="-8"
     inkscape:window-y="-8"
     inkscape:window-maximized="1"
     inkscape:current-layer="svg3873" />
  <defs
     id="defs3875" />
  <g
     id="g4148">
    <path
       d="m 256.16586,65.180553 c -0.73666,0.675355 -1.56685,0.466654 -1.85563,-0.472677 l -5.50807,-19.058031 c -0.28311,-0.958464 0.31003,-1.519016 1.35637,-1.268504 l 20.59831,5.128937 c 1.0063,0.243071 1.23413,1.011969 0.49961,1.700787 l -15.09059,13.969488 z m -14.83441,-3.131574 c 0,-13.57937 11.88425,-24.572126 26.54433,-24.572126 14.6374,0 26.50216,10.992756 26.50216,24.572126 0,13.55244 -11.86476,24.546967 -26.50216,24.546967 -14.66008,0 -26.54433,-10.994527 -26.54433,-24.546967 z M 202.81499,43.570278 c 5.75646,-4.845826 9.73205,-6.498779 15.5824,-6.498779 9.11764,0 13.17544,4.554921 13.17544,14.921929 l 0,24.499487 5.22283,0 c 1.0598,0 1.37728,0.28311 1.37728,1.26815 l 0,6.181299 c 0,0.96626 -0.31748,1.275945 -1.37728,1.275945 l -16.4126,0 c -1.56685,0 -1.7752,-0.194882 -1.7752,-1.652953 l 0,-28.960511 c 0,-5.513386 -1.66854,-7.849488 -5.53464,-7.849488 -3.03803,0 -5.44677,0.985394 -8.77358,3.895157 l 0,25.842401 5.21716,0 c 1.04634,0 1.35638,0.202677 1.35638,1.26815 l 0,6.181299 c 0,1.081063 -0.31004,1.275945 -1.35638,1.275945 l -23.43366,0 c -1.1459,0 -1.37551,-0.194882 -1.37551,-1.275945 l 0,-6.181299 c 0,-0.98504 0.34441,-1.26815 1.37551,-1.26815 l 5.22461,0 0,-21.105354 c 0,-3.583346 -0.2087,-5.13496 -0.9528,-7.95685 l -4.89189,0 c -1.16681,0 -1.47862,-0.168307 -1.47862,-1.241575 l 0,-6.215669 c 0,-1.065472 0.31181,-1.249015 1.47862,-1.249015 l 14.10555,0 c 1.67386,0 2.09268,0.573661 3.14504,4.346574 l 0.10134,0.499252 z m 116.08334,8.714055 0,24.208582 5.56725,0 c 1.15335,0 1.34291,0.28311 1.34291,1.26815 l 0,6.181299 c 0,1.081063 -0.18956,1.275945 -1.34291,1.275945 l -23.74937,0 c -1.14803,0 -1.36984,-0.194882 -1.36984,-1.275945 l 0,-6.181299 c 0,-0.98504 0.31004,-1.26815 1.36984,-1.26815 l 5.23027,0 0,-21.105354 c 0,-3.583346 -0.22358,-5.13496 -0.945,-7.95685 l -4.9337,0.101339 c -1.13456,0 -1.43681,-0.269646 -1.43681,-1.342914 l 0,-6.215669 c 0,-1.065472 0.30225,-1.249015 1.43681,-1.249015 l 13.19457,0 c 1.88256,0 2.30705,0.682795 3.76512,5.710393 l 0.945,-1.067598 c 4.28527,-4.642795 7.31551,-6.295748 11.71594,-6.295748 3.13937,0 5.86524,1.059803 5.86524,2.226614 0,0.210472 -0.12047,0.594921 -0.23528,0.878386 l -3.1259,7.646456 c -0.20268,0.681024 -0.42484,0.87626 -0.84366,0.87626 -0.19524,0 -0.42485,0 -0.61406,-0.107008 -1.36984,-0.566575 -2.94236,-0.851456 -4.07693,-0.851456 -2.19224,0 -4.50708,1.350708 -7.75949,4.543582 z m 48.53162,21.981614 c -2.59795,2.429645 -4.81925,3.292441 -8.66622,3.292441 -6.1891,0 -8.37567,-4.069134 -8.37567,-15.394606 0,-11.911181 2.29571,-15.509764 9.62468,-15.509764 2.82012,0 4.69666,0.386575 7.41721,1.660748 l 0,25.951181 z m 1.98956,8.031259 c 0.72319,2.611418 1.14237,2.921103 2.71489,2.921103 l 13.70728,0 c 1.13244,0 1.48465,-0.194882 1.48465,-1.275945 l 0,-6.181299 c 0,-0.98504 -0.35221,-1.26815 -1.48465,-1.26815 l -4.49575,0 c -0.82275,-2.322638 -1.04669,-4.253031 -1.04669,-7.951181 l 0,-49.577951 c 0,-0.958465 -0.19488,-1.25504 -1.35638,-1.25504 l -17.16803,0 c -1.0272,0 -1.34504,0.296575 -1.34504,1.25504 l 0,6.189094 c 0,1.078937 0.20303,1.275945 1.34504,1.275945 l 5.65512,0 0,13.362874 c -3.67122,-2.039174 -6.07394,-2.720197 -10.35957,-2.720197 -6.06047,0 -9.92905,1.652953 -13.58681,5.723858 -4.27748,4.736693 -5.96516,10.744015 -5.96516,21.009685 0,8.050393 1.76776,13.753346 5.55378,18.206928 2.92323,3.489449 6.17563,4.845827 11.82508,4.845827 5.31071,0 9.50244,-1.55126 14.32134,-5.134606 l 0.2009,0.574015 z m 53.46744,-32.247282 c -0.8511,5.628189 -1.15547,7.659921 -1.89,10.744015 l -5.98039,23.729882 c -0.31004,1.276299 -0.50527,1.369842 -1.87689,1.369842 l -8.26086,0 c -1.47119,0 -1.55729,0 -1.88823,-1.369842 l -10.44142,-37.09311 -3.2524,0 c -1.14803,0 -1.47118,-0.168307 -1.47118,-1.241575 l 0,-6.215669 c 0,-0.950669 0.32315,-1.249015 1.47118,-1.249015 l 12.03909,0 c 1.34292,0 1.55906,0.183543 1.87689,1.350354 l 4.58929,20.820472 c 0.83055,3.895157 1.36985,7.748149 2.09304,14.82059 l 0.3157,-2.80063 c 0.52052,-4.373504 1.05414,-8.436614 1.66819,-10.751456 l 4.92626,-22.088976 c 0.30437,-1.249016 0.41918,-1.350354 1.8691,-1.350354 l 9.12543,0 c 1.34327,0 1.55941,0.101338 1.86909,1.452047 l 4.50178,21.111023 c 0.51271,2.226614 1.25503,7.174134 1.76775,11.526378 l 0.31181,2.901968 c 0.83587,-7.929567 1.47685,-12.201732 2.31484,-15.698622 l 4.89934,-19.94244 c 0.33661,-1.166811 0.53185,-1.350354 1.90346,-1.350354 l 11.385,0 c 1.14768,0 1.47862,0.183543 1.47862,1.249015 l 0,6.215669 c 0,1.073268 -0.33094,1.241575 -1.47862,1.241575 l -3.43595,0 -12.03342,37.200472 c -0.42484,1.168937 -0.64098,1.26248 -1.99736,1.26248 l -8.35441,0 c -1.36984,0 -1.57252,-0.09354 -1.8978,-1.369842 l -4.81145,-23.911653 c -0.0882,-0.667914 -0.31748,-1.735158 -0.51272,-2.995866 -0.10913,-1.168937 -0.21614,-2.052993 -0.30437,-2.728347 l -0.33094,-2.509724 -0.18745,-2.328307 z M 481.7838,45.69768 c 5.1176,0 7.0937,2.894527 7.32331,10.749685 l -15.90732,0 c 0.9372,-7.74815 3.23291,-10.749685 8.58401,-10.749685 z m 18.51307,19.482873 c 1.88256,0 2.29571,-0.499252 2.29571,-2.341771 0,-17.04189 -6.80279,-25.767283 -20.17949,-25.767283 -13.39157,0 -22.17862,10.076102 -22.17862,25.281495 0,15.880748 7.94339,24.504803 22.69736,24.504803 4.49575,0 8.47099,-0.673228 12.66839,-2.125276 4.16303,-1.450275 5.64165,-2.333976 5.64165,-3.502913 0,-0.28311 -0.107,-0.464882 -0.33094,-1.065472 l -2.60539,-5.508071 c -0.21437,-0.566221 -0.63355,-0.875906 -1.14024,-0.875906 -0.3235,0 -0.73488,0.101339 -1.2685,0.390118 -3.9678,1.930394 -7.84949,2.902323 -11.71028,2.902323 -7.41685,0 -10.98673,-3.866456 -11.19543,-11.892047 l 27.30578,0 z m 32.5304,-18.708306 c -2.20748,-0.283111 -2.9367,-0.384449 -3.97524,-0.384449 -4.29874,0 -6.60047,1.652953 -6.60047,4.738819 0,2.617086 1.1537,3.495118 6.80315,5.513385 8.67224,3.11067 10.77838,4.170827 13.06665,6.680551 2.09091,2.341772 3.23858,5.345433 3.23858,8.626181 0,9.008858 -6.99236,15.211063 -17.33846,15.211063 -5.1424,0 -11.30457,-1.356378 -16.53484,-3.575551 -1.24725,-0.485788 -1.45028,-0.883701 -1.45028,-1.943504 l 0,-10.265669 c 0,-0.979725 0.20303,-1.25504 1.34327,-1.25504 l 7.00583,0 c 1.15937,0 1.34858,0.194882 1.34858,1.652953 l 0,4.840158 c 3.79382,1.065472 4.93405,1.247244 7.23543,1.247244 3.95433,0 6.28264,-1.733386 6.28264,-4.845827 0,-2.699646 -1.25504,-3.677244 -7.96996,-6.012992 -7.41721,-2.605748 -9.61725,-3.679016 -11.69681,-5.90563 -1.9839,-2.11996 -3.1376,-5.115826 -3.1376,-8.415708 0,-8.909291 7.4172,-15.306732 18.08079,-15.306732 7.63334,0 14.01165,2.044842 14.01165,4.271811 l 0,9.772086 c 0,1.081063 -0.30437,1.364173 -1.35071,1.364173 l -7.00583,0 c -1.16114,0 -1.35637,-0.28311 -1.35637,-1.364173 l 0,-4.643149 z m 24.61996,-7.747795 0,-11.905512 c 0,-1.274173 0.20267,-1.449921 1.65472,-1.666063 l 9.42024,-1.235905 c 0.11445,0 0.20267,0 0.31181,0 0.30968,0 0.42449,-0.114804 0.53185,-0.114804 0.72886,0 1.04067,0.493583 1.04067,1.668189 l 0,13.254095 11.60114,0 c 1.26248,0 1.67953,0.183543 1.67953,0.958464 0,0.10878 0,0.290551 0,0.39189 0,0.101693 -0.10134,0.203031 -0.10134,0.390472 l -1.35638,5.515512 c -0.22181,1.166811 -0.62752,1.369842 -1.89602,1.369842 l -9.92693,0 0,24.296102 c 0,3.401575 0.95067,4.66441 3.77256,4.66441 1.34291,0 3.44161,-0.392245 4.91846,-0.979725 l 1.76988,-0.56622 c 0.22181,-0.210473 0.64063,-0.210473 0.84366,-0.210473 0.51839,0 0.83587,0.290906 1.02544,0.985394 l 1.67953,6.567519 0.1148,0.491812 c 0.1148,0.197007 0.1148,0.290551 0.1148,0.472322 0,0.784488 -0.42484,1.174961 -1.49031,1.55941 -3.43595,1.350708 -8.04473,2.226614 -11.91296,2.226614 -6.56574,0 -11.29677,-2.718425 -12.86362,-7.369016 -0.72886,-2.031732 -0.93153,-3.772913 -0.93153,-7.451574 l 0,-24.686575 -6.90449,0 c -1.56508,0 -1.80036,-0.203031 -1.80036,-1.55374 l 0,-5.519055 c 0,-1.452047 0.23528,-1.553385 1.80036,-1.553385 l 6.90449,0 z m -359.21692,123.048778 6.48708,0 c 0.83622,0 1.1537,0.39791 1.1537,1.0598 l 0,3.68469 c 0,0.66756 -0.31748,1.06547 -1.1537,1.06547 l -19.99771,0 c -0.72886,0 -1.13989,-0.39791 -1.13989,-1.06547 l 0,-3.68469 c 0,-0.66189 0.41103,-1.0598 1.13989,-1.0598 l 5.87728,0 0,-23.54847 c 0,-5.89818 -0.22783,-7.44944 -1.1537,-10.06866 l -5.45244,0 c -0.83764,0 -1.26815,-0.2909 -1.26815,-1.07326 l 0,-3.56989 c 0,-0.77669 0.43051,-1.1537 1.26815,-1.1537 l 9.20586,0 c 1.78122,0 3.23894,2.40874 3.9678,6.57355 l 1.16717,-1.25682 c 4.81322,-5.04106 7.42464,-6.59267 10.98106,-6.59267 1.36984,0 2.9289,0.29657 4.38697,0.88405 0.53362,0.18177 0.7363,0.39189 0.7363,0.66756 0,0.10134 -0.0957,0.39792 -0.20268,0.67536 l -2.51185,5.12893 c -0.12047,0.30437 -0.19524,0.38445 -0.53965,0.38445 0,0 -0.18921,0 -0.30401,-0.0801 -1.88256,-0.48614 -2.40874,-0.58748 -3.03059,-0.58748 -2.29359,0 -4.70233,1.75429 -9.61689,7.16634 l 0,26.45079 z m 45.30011,-4.54961 c -4.70409,3.86079 -8.06563,5.39894 -11.61425,5.39894 -4.2796,0 -7.2085,-3.0763 -7.2085,-7.53201 0,-6.68799 6.15437,-9.89256 18.82275,-9.97476 l 0,12.10783 z m 7.74071,-4.94716 0,-17.72292 c 0,-9.01665 -5.1424,-13.26153 -15.68374,-13.26153 -4.38661,0 -8.28177,0.67535 -12.25736,2.22094 -2.60575,0.85713 -3.66342,1.55906 -3.66342,2.23264 0,0.0822 0,0.38658 0.12047,0.67536 l 1.45204,3.78035 c 0.10701,0.29055 0.41705,0.46488 0.76146,0.46488 0.19701,0 0.40536,-0.0804 0.7154,-0.17433 4.50921,-1.9513 7.95082,-2.81587 11.71594,-2.81587 6.57319,0 9.0985,2.30918 9.0985,8.42315 l 0,3.09189 c -17.89122,0.30969 -26.6935,5.72953 -26.6935,16.47355 0,7.84169 5.16366,12.86362 13.20236,12.86362 5.54811,0 10.02862,-1.8287 14.63917,-5.90563 1.14591,3.60425 2.19225,4.96063 3.86646,4.96063 l 8.68536,0 c 0.84366,0 1.25503,-0.39791 1.25503,-1.06547 l 0,-3.68469 c 0,-0.66189 -0.41137,-1.0598 -1.25503,-1.0598 l -4.81146,0 c -1.05201,-2.92323 -1.14768,-4.38095 -1.14768,-9.49677 z m 41.07402,4.73102 c -4.60843,3.98906 -7.94303,5.4411 -12.02563,5.4411 -6.9176,0 -9.73205,-5.33941 -9.73205,-18.31039 0,-11.91862 3.2524,-16.76445 11.07496,-16.76445 3.56244,0 6.29043,0.78236 10.68272,3.00933 l 0,26.62441 z m 0,-32.92051 c -4.39229,-2.11961 -7.73469,-3.00366 -11.52071,-3.00366 -11.50725,0 -18.49181,8.90185 -18.49181,23.43933 0,15.3124 6.0548,24.32338 16.42783,24.32338 5.00067,0 8.66622,-1.36984 15.67028,-6.01299 0.74232,3.57555 1.58598,4.75016 3.15248,4.75016 l 8.98228,0 c 0.83799,0 1.14768,-0.29091 1.14768,-1.06547 l 0,-3.68469 c 0,-0.66189 -0.30969,-1.0598 -1.14768,-1.0598 l -5.23063,0 c -1.03854,-2.61142 -1.26815,-4.27217 -1.26815,-9.00319 l 0,-51.63661 c 0,-0.87804 -0.18177,-0.95847 -1.14023,-1.05414 l -13.48548,0 c -0.72886,0 -1.1459,0.37878 -1.1459,1.05414 l 0,3.67724 c 0,0.6828 0.41704,1.07291 1.1459,1.07291 l 6.90414,0 0,18.20339 z m 37.12004,37.68626 7.32933,0 c 0.83019,0 1.24157,0.39791 1.24157,1.0598 l 0,3.68469 c 0,0.66756 -0.41138,1.06547 -1.24157,1.06547 l -22.393,0 c -0.74232,0 -1.16716,-0.39791 -1.16716,-1.06547 l 0,-3.68469 c 0,-0.66189 0.42484,-1.0598 1.16716,-1.0598 l 7.41721,0 0,-33.61713 -8.58437,0 c -0.51272,0 -0.72886,-0.2909 -0.72886,-1.07326 l 0,-3.67123 c 0,-0.67535 0.21614,-1.05236 0.72886,-1.05236 l 15.38716,0 c 0.62185,0 0.84367,0.37701 0.84367,1.05236 l 0,38.36162 z m 1.77555,-55.88965 c 0,3.09756 -2.82189,5.71642 -6.17563,5.71642 -3.35374,0 -6.17563,-2.61886 -6.17563,-5.71642 0,-3.19854 2.82189,-5.70862 6.17563,-5.70862 3.35374,0 6.17563,2.61921 6.17563,5.70862 z m 31.88161,57.04299 c -8.15917,0 -12.14043,-6.09484 -12.14043,-18.69484 0,-11.3446 4.20307,-17.24279 12.14043,-17.24279 7.72724,0 11.91862,6.21567 11.91862,17.5337 l 0,0.88405 c -0.30401,11.98559 -4.07657,17.51988 -11.91862,17.51988 z m 0.31783,-41.84326 c -12.98622,0 -20.70566,8.90185 -20.70566,24.11468 0,14.91449 7.22019,23.64803 19.67244,23.64803 13.05885,0 20.88921,-8.90929 20.88921,-24.11468 0,-15.02929 -7.3024,-23.64803 -19.85599,-23.64803 z"
       style="fill:#e4e4e4;fill-opacity:1;fill-rule:evenodd"
       id="_82834504"
       inkscape:connector-curvature="0" />
    <path
       d="m 93.136884,51.459806 c -30.519921,0 -55.25433,22.920944 -55.25433,51.198304 0,25.07917 19.471535,45.94146 45.183543,50.33374 l 0,-50.34685 20.173823,0 0,50.34685 c 25.70066,-4.39228 45.19133,-25.25457 45.19133,-50.33374 0,-28.27736 -24.75567,-51.198304 -55.294366,-51.198304 l 0,0 z m 0,-18.647008 c 41.680626,0 75.433466,31.248779 75.433466,69.845312 0,38.57776 -33.75284,69.83787 -75.433466,69.83787 -41.66185,0 -75.420353,-31.26011 -75.420353,-69.83787 0,-38.596533 33.758503,-69.845312 75.420353,-69.845312 z"
       style="fill:#00afdd;fill-opacity:1;fill-rule:evenodd"
       id="_82864576"
       inkscape:connector-curvature="0" />
  </g>
</svg>
