<?xml version="1.0" encoding="UTF-8"?>
<svg width="439.2" height="450" version="1.1" xmlns="http://www.w3.org/2000/svg">
	<path d="m439.2 44.1a44.1 44.1 0 0 1-44.1 44.1 44.1 44.1 0 0 1-44.1-44.1 44.1 44.1 0 0 1 44.1-44.1 44.1 44.1 0 0 1 44.1 44.1z" fill="#ed1c24"/>
	<path d="m439.2 88.648-103.05 35.55v42.3l28.8-10.35v117.45c0 34.2-38.7 23.4-50.4 14.4-3.6-2.7-30.15-21.15-30.15-21.15 26.1-8.5498 66.6-41.85 46.8-86.849-25.2-45.9-69.3-31.05-69.3-31.05l-121.05 42.3v41.85l17.55-6.3v58.05l-78.302-72.898-80.101 28.35v41.85l24.3-8.9999v118.8l-23.85 8.5498v49.5l91.35-31.95v-103.95l57.6 54v60.75l144-50.4v-34.65c18.45 20.7 58.95 23.85 85.05 16.2 32.4-9.45 60.75-30.15 60.75-72.002v-199.35zm-181.35 144.9c-8.5498 3.15-33.75 12.6-33.75 12.6v-40.05s17.55-6.3 26.1-8.9999c8.5498-2.7 16.2 5.4 16.65 13.95 0.45 6.75 1.8 17.55-8.9999 22.5z" fill="#ed1c24"/>
	<path d="m159.75 414.45 29.25-9.9001v-106.65l-29.25 10.35z" fill="#fff"/>
	<path d="m256.04 341.1c13.95-13.5 27.9-26.55 27.9-45.899 0-25.65-20.7-28.35-42.3-20.7-27.45 9.45-44.1 28.8-45 61.2l27.9-9.9001c0-10.35 3.15-22.05 15.3-26.55 6.3-2.25 12.6-0.89999 12.6 6.75 0 18.45-27.9 35.55-45.45 60.75-8.5498 12.15-10.35 22.05-10.35 34.65l85.953-30.15v-26.1l-48.6 17.1c6.3-6.3 14.4-13.5 22.05-21.15z" fill="#fff"/>
</svg>
