<?xml version="1.0" encoding="UTF-8"?>
<svg width="800" height="299.49" version="1.1" xmlns="http://www.w3.org/2000/svg">
	<path d="m504.92 0h295.08v299.49h-295.08z" fill="#f3f2f3"/>
	<path d="m661.78 94.206v111.08h5.0854c0.59017 0.0717 1.2432 0.11032 1.9746 0.11032 13.458 0 26.916 0.22062 40.264-0.44124 15.664-0.77219 26.916-8.3837 31.88-23.717 6.729-20.739 6.398-41.698 0.55155-62.436-4.0815-14.34-14.671-21.4-29.563-23.276-8.8933-1.1031-17.917-1.3017-26.8-1.2951-1.7892 0.0011-3.5233 0.01544-5.2994 0.02758v-0.05516h-18.091zm22.393 17.098c6.0671 0.22062 12.134-0.11032 18.201 0.11032 12.465 0.33094 18.422 4.8537 20.849 16.547 2.9784 14.34 3.0887 28.791 0 43.021-2.6475 12.465-10.149 17.981-23.386 18.312-12.706 0.26145-17.868 0.36844-19.966-3.883v-73.101c0.91999-0.77879 2.3132-1.1075 4.3021-1.006zm-125.09-17.098h18.091v46.772h47.875v-46.772h18.091v111.19h-18.091v-46.772l-47.544-0.33093v47.103h-18.422z" fill="#9b9696"/>
	<path d="m0 0h480.86v299.49h-480.86z" fill="#dc0028"/>
	<path d="m166.25 92.524h-90.68v135.54h42.458v-94.714h28.942c5.9412 0 8.9988 2.9185 8.9988 9.0334v85.682h42.458v-103.29c0-19.074-13.099-32.242-32.173-32.242zm215.66-0.06949-28.212 81.09-28.143-81.09h-63.199v-51.942l-42.458 8.4078v147.76c0 20.464 12.717 33.215 33.285 33.215h34.57v-39.748h-16.295c-5.4549 0-9.068-2.0151-9.068-9.4507v-47.322h33.111l36.968 94.82h42.631l52.915-135.74z" fill="#fff"/>
</svg>
