<?xml version="1.0" encoding="UTF-8"?>
<svg width="722.51" height="450" version="1.1" xmlns="http://www.w3.org/2000/svg">
	<path d="m0 0h722.51v450h-722.51z" fill="#dc0028"/>
	<path d="m249.8 139.02h-136.25v203.65h63.794v-142.31h43.486c8.9269 0 13.521 4.3852 13.521 13.573v128.74h63.794v-155.2c0-28.66-19.681-48.445-48.341-48.445zm324.03-0.10441-42.39 121.84-42.285-121.84h-94.959v-78.045l-63.794 12.633v222.02c0 30.748 19.107 49.907 50.012 49.907h51.943v-59.722h-24.484c-8.1961 0-13.625-3.0278-13.625-14.2v-71.102h49.751l55.545 142.47h64.055l79.507-203.96z" fill="#fff"/>
</svg>
