<svg xmlns="http://www.w3.org/2000/svg" width="722.506" height="450"><path d="M0 0h722.506v450H0z" fill="#dc0028" fill-rule="evenodd"/><path d="M249.797 139.02H113.544v203.649h63.794V200.36h43.486c8.927 0 13.521 4.385 13.521 13.573v128.736h63.794V187.465c0-28.66-19.681-48.445-48.341-48.445zm324.031-.104l-42.39 121.845-42.285-121.845h-94.959V60.87L330.4 73.504v222.024c0 30.748 19.107 49.907 50.012 49.907h51.943v-59.722h-24.484c-8.196 0-13.625-3.028-13.625-14.2v-71.102h49.751l55.545 142.465h64.055l79.507-203.962z" fill="#fff"/></svg>