<svg xmlns="http://www.w3.org/2000/svg" viewBox="0 0 327.44 204.169" width="328" height="205"><path d="M101.395.002l-4.58.125c-18.448.87-33.702 6.536-46.238 13.87-24.646 14.41-43 37.255-49.016 69.916-3.193 17.313-1.314 36.484 4.066 52.156 9.66 28.135 31.536 49.94 58.266 60.668 13.917 5.59 32.126 9.06 51.23 6.66 17.188-2.16 30.922-8.38 43.28-16.275-6.813-10.203-14.012-20.02-20.902-30.15-10.87 6.438-23.474 11.307-39.578 10.36-14.865-.875-27.38-6.755-36.25-13.687-9.005-7.03-16.473-17.11-20.9-29.043-4.573-12.313-5.417-28.707-.928-42.723 3.927-12.25 10.97-22.07 20.162-29.777 9.354-7.854 20.39-13.4 35.14-14.8 16.66-1.562 29.786 2.64 40.322 8.88 10.63 6.297 18.656 15.105 23.75 24.918 10.677-6.214 23.75-12.65 32.293-17.89-8.865-15.6-20.438-28.464-35.88-37.912-14.12-8.643-31.676-15.44-54.238-15.29zm91.764 57.207l-32.37 17.203c1.776 4.448 3.485 8.97 4.256 14.428H145.07c-6.068 8.042-12.245 17.04-17.943 25.338-.76 1.104-2.146 2.104-2.03 3.516 12.5.12 25.522-.25 37.73.184v54.75h39.766l.37-54.934c9.307.12 19.115-.25 28.115.184l.188 54.75h39.207l56.97-83.787h-34.4c-7.59 10.536-14.723 22.516-22.197 32.553V88.84h-68.434c-1.6-12.026-4.41-22.844-9.25-31.63z" fill="#fff" fill-rule="evenodd"/></svg>