<svg xmlns="http://www.w3.org/2000/svg" viewBox="0 0 625.5 730.3"><path d="M616.9 304.1L474.5 161.8v284.7l142.4-142.4zM396.3 299l1.2-1.2-37.6-37.6v-52.6l80.3-80.3L312.7 0 8.5 304.1l304.3 304.1 84.6-84.5V299h-1.1z" fill="#ba151b"/><path d="M474.5 161.8l-34.4-34.4-80.3 80.3v52.6l37.6 37.6-1.2 1.2h1v224.7l77.2-77.2.1-284.8zM34.4 662.8h12.3v-10.7H34.4v10.7zm-18.4 0h12.3v-10.7H16v10.7zm596.7 66.5h12.8v-59.4h-8.8l-16.9 5.1 2.7 10.6 10.3-2.5v46.2zm-98.9 0h13v-23.7h23.9v23.7h13v-59h-13v23.3h-23.9v-23.3h-13v59zm-35.4 1c11.4 0 18.1-4 24.2-10.5l-8.2-8.3c-4.6 4.2-8.8 6.9-15.5 6.9-10.1 0-17.1-8.4-17.1-18.5v-.2c0-10.1 7.2-18.4 17.1-18.4 5.9 0 10.5 2.5 15.1 6.7l8.2-9.5c-5.5-5.4-12.1-9.1-23.3-9.1-18.1 0-30.7 13.7-30.7 30.5v.2c0 16.9 12.8 30.2 30.2 30.2m-56.2-1h13v-59h-13v59zm-57.9 0h44.9v-11.5h-32v-12.4H405v-11.5h-27.8v-12h31.6v-11.5h-44.5v58.9zM315.6 699v-16.9h12.9c6.3 0 10.2 2.9 10.2 8.4v.2c0 5-3.6 8.3-9.9 8.3h-13.2zm-13 30.3h13v-18.9h10.2l12.6 18.9h15.1l-14.4-21.1c7.5-2.8 12.6-8.8 12.6-18.3v-.2c0-5.6-1.8-10.2-5-13.5-3.9-3.9-9.7-6-17.2-6h-27l.1 59.1zM253.8 699v-16.9h12.9c6.3 0 10.2 2.9 10.2 8.4v.2c0 5-3.6 8.3-9.9 8.3h-13.2zm-13 30.3h13v-18.9H264l12.6 18.9h15.1l-14.4-21.1c7.5-2.8 12.6-8.8 12.6-18.3v-.2c0-5.6-1.8-10.2-5.1-13.5-3.9-3.9-9.7-6-17.2-6h-27v59.1h.2zm-57.2 0h44.9v-11.5h-32v-12.4h27.8v-11.5h-27.8v-12H228v-11.5h-44.5v58.9h.1zm-41.7 0h13v-47h17.9v-11.9H124v11.9h17.9v47zm-46.3.9c12.7 0 21.6-6.6 21.6-18.3v-.2c0-10.3-6.7-14.6-18.7-17.7-10.2-2.6-12.7-3.9-12.7-7.8v-.2c0-2.9 2.6-5.1 7.6-5.1s10.1 2.2 15.3 5.8l6.7-9.8c-6-4.8-13.3-7.5-21.9-7.5-12 0-20.6 7.1-20.6 17.8v.2c0 11.7 7.7 15 19.5 18.1 9.9 2.5 11.9 4.2 11.9 7.5v.2c0 3.5-3.2 5.6-8.5 5.6-6.7 0-12.3-2.8-17.6-7.2l-7.7 9.2c7.2 6.2 16.2 9.4 25.1 9.4m-64.2-11.8c-10.4 0-17.9-8.4-17.9-18.5v-.2c0-10.1 7.3-18.4 17.7-18.4s17.9 8.4 17.9 18.5v.2c0 10.1-7.3 18.4-17.7 18.4m-.2 11.9c18.2 0 31.4-13.7 31.4-30.5v-.2c0-16.8-13.1-30.3-31.3-30.3-18.1.1-31.3 13.8-31.3 30.5v.2c0 16.8 13 30.3 31.2 30.3" fill="#fff"/></svg>