<?xml version="1.0" encoding="UTF-8"?>
<svg width="385.42" height="450" version="1.1" xmlns="http://www.w3.org/2000/svg">
	<path d="m380.11 187.38-87.744-87.682v175.43zm-135.93-3.1426 0.73942-0.73941-23.169-23.169v-32.411l49.48-49.479-78.563-78.439-187.44 187.38 187.51 187.38 52.128-52.067v-138.46z" fill="#ba151b"/>
	<path d="m292.37 99.7-21.197-21.197-49.48 49.479v32.411l23.169 23.169-0.73942 0.73941h0.61618v138.46l47.57-47.569zm-271.18 308.71h7.579v-6.5931h-7.579zm-11.338 0h7.579v-6.5931h-7.579zm367.68 40.976h7.8871v-36.601h-5.4223l-10.414 3.1425 1.6637 6.5315 6.3466-1.5405v28.468zm-60.94 0h8.0103v-14.604h14.727v14.604h8.0103v-36.355h-8.0103v14.357h-14.727v-14.357h-8.0103zm-21.813 0.61618c7.0244 0 11.153-2.4647 14.912-6.4698l-5.0526-5.1142c-2.8344 2.588-5.4223 4.2517-9.5508 4.2517-6.2234 0-10.537-5.176-10.537-11.399v-0.12323c0-6.2234 4.4364-11.338 10.537-11.338 3.6355 0 6.4698 1.5405 9.3043 4.1284l5.0526-5.8537c-3.389-3.3274-7.4557-5.6072-14.357-5.6072-11.153 0-18.917 8.4416-18.917 18.794v0.12324c0 10.414 7.8871 18.609 18.609 18.609m-34.63-0.61618h8.0103v-36.355h-8.0103zm-35.677 0h27.667v-7.086h-19.718v-7.6406h17.13v-7.086h-17.13v-7.3941h19.471v-7.086h-27.42zm-30.008-18.67v-10.414h7.9487c3.882 0 6.285 1.7869 6.285 5.176v0.12324c0 3.0809-2.2183 5.1142-6.1001 5.1142zm-8.0103 18.67h8.0103v-11.646h6.285l7.7638 11.646h9.3043l-8.873-13.002c4.6214-1.7253 7.7638-5.4223 7.7638-11.276v-0.12324c0-3.4506-1.1091-6.285-3.0809-8.3184-2.4031-2.4031-5.9769-3.6971-10.598-3.6971h-16.637zm-30.07-18.67v-10.414h7.9487c3.882 0 6.285 1.7869 6.285 5.176v0.12324c0 3.0809-2.2183 5.1142-6.1001 5.1142zm-8.0103 18.67h8.0103v-11.646h6.285l7.7638 11.646h9.3043l-8.873-13.002c4.6214-1.7253 7.7638-5.4223 7.7638-11.276v-0.12324c0-3.4506-1.1091-6.285-3.1426-8.3184-2.4031-2.4031-5.9769-3.6971-10.598-3.6971h-16.637v36.417zm-35.246 0h27.667v-7.086h-19.718v-7.6406h17.13v-7.086h-17.13v-7.3941h19.41v-7.086h-27.42v36.293zm-25.695 0h8.0103v-28.961h11.03v-7.3325h-30.07v7.3325h11.03zm-28.529 0.55456c7.8255 0 13.31-4.0668 13.31-11.276v-0.12323c0-6.3466-4.1284-8.9962-11.523-10.906-6.285-1.6021-7.8255-2.4031-7.8255-4.8062v-0.12324c0-1.7869 1.6021-3.1426 4.683-3.1426 3.0809 0 6.2234 1.3556 9.4275 3.5739l4.1284-6.0385c-3.6971-2.9577-8.1952-4.6214-13.494-4.6214-7.3941 0-12.693 4.3748-12.693 10.968v0.12324c0 7.2093 4.7446 9.2427 12.016 11.153 6.1001 1.5405 7.3325 2.588 7.3325 4.6214v0.12323c0 2.1566-1.9718 3.4506-5.2375 3.4506-4.1284 0-7.579-1.7253-10.845-4.4364l-4.7446 5.6688c4.4365 3.8204 9.9821 5.792 15.466 5.792m-39.559-7.2709c-6.4082 0-11.03-5.176-11.03-11.399v-0.12323c0-6.2234 4.4982-11.338 10.906-11.338 6.4077 0 11.03 5.176 11.03 11.399v0.12324c0 6.2234-4.4982 11.338-10.906 11.338m-0.12324 7.3325c11.215 0 19.348-8.4416 19.348-18.794v-0.12323c0-10.352-8.0719-18.67-19.287-18.67-11.153 0.0616-19.287 8.5033-19.287 18.794v0.12324c0 10.352 8.0103 18.67 19.225 18.67" fill="#fff"/>
</svg>
