<?xml version="1.0" encoding="utf-8"?>
<!-- Generator: Adobe Illustrator 15.0.0, SVG Export Plug-In . SVG Version: 6.00 Build 0)  -->
<!DOCTYPE svg PUBLIC "-//W3C//DTD SVG 1.1//EN" "http://www.w3.org/Graphics/SVG/1.1/DTD/svg11.dtd">
<svg version="1.1" id="Layer_1" xmlns="http://www.w3.org/2000/svg" xmlns:xlink="http://www.w3.org/1999/xlink" x="0px" y="0px"
	 width="595.28px" height="841.89px" viewBox="0 0 595.28 841.89" enable-background="new 0 0 595.28 841.89" xml:space="preserve">
<g>
	<g>
		<path fill-rule="evenodd" clip-rule="evenodd" d="M110.626,783.676c0,1.654-1.107,2.969-3.371,2.969H96.209v-5.961h11.047
			C109.422,780.684,110.626,782.141,110.626,783.676 M108.813,770.244c0,1.386-0.645,2.566-2.713,2.566h-9.891v-5.22h9.891
			C108.169,767.591,108.813,768.903,108.813,770.244 M119.215,783.968c0-3.687-1.85-6.509-4.453-8.08
			c1.654-1.604,2.604-3.796,2.604-6.254c0-6.593-5.146-10-10.596-10H87.607v35.027h20.367
			C114.167,794.661,119.215,790.512,119.215,783.968"/>
		<path d="M163.331,780.172v-20.538h-8.6v19.247c0,5.426-3.164,8.201-7.153,8.201c-4.004,0-7.143-2.775-7.143-8.201v-19.247h-8.553
			v20.538c0,8.15,6.303,15.23,15.695,15.23C156.98,795.402,163.331,788.322,163.331,780.172"/>
		<path fill-rule="evenodd" clip-rule="evenodd" d="M199.551,772.068c0,2.335-1.167,4.135-4.916,4.135h-8.711v-8.296h8.711
			C198.384,767.907,199.551,769.806,199.551,772.068 M209.843,794.686l-8.662-12.299c4.161-1.17,6.96-5.635,6.96-10.367
			c0-6.983-5.16-12.409-12.945-12.409h-17.861v35.075h8.589v-10.196h6.46l6.751,10.196H209.843z"/>
		<path d="M256.2,778.212c0-1.569-0.088-4.101-0.088-4.101h-19.659v8.348h9.794c-1.546,2.931-4.746,4.843-8.445,4.843
			c-5.451,0-9.854-4.636-9.854-10.172c0-5.524,4.404-10.026,9.854-10.026c3.297,0,6.047,1.631,7.946,4.258l6.898-5.23
			c-3.846-4.877-9.309-7.178-14.845-7.178c-10.802,0-18.711,7.957-18.711,18.177c0,10.318,7.957,18.249,18.711,18.249
			C249.349,795.379,256.2,786.473,256.2,778.212"/>
		<polygon points="295.909,794.686 295.909,786.485 276.005,786.485 276.005,780.804 292.199,780.804 292.199,772.701 
			276.005,772.701 276.005,767.811 295.909,767.811 295.909,759.61 267.403,759.61 267.403,794.686 		"/>
		<polygon points="339.027,796.535 339.027,759.61 330.475,759.61 330.475,777.105 309.512,757.542 309.512,794.686 
			318.077,794.686 318.077,776.959 		"/>
		<polygon points="380.138,794.686 380.138,786.449 361.426,786.449 361.426,759.61 352.824,759.61 352.824,794.686 		"/>
		<path fill-rule="evenodd" clip-rule="evenodd" d="M411.102,781.168h-6.119l3.102-6.301L411.102,781.168z M427.551,794.686
			l-19.272-37.582l-19.844,37.582h9.955l2.844-6.094h13.42l3.032,6.094H427.551z"/>
		<polygon points="465.706,796.535 465.706,759.61 457.151,759.61 457.151,777.105 436.201,757.542 436.201,794.686 
			444.754,794.686 444.754,776.959 		"/>
		<path fill-rule="evenodd" clip-rule="evenodd" d="M505.611,777.153c0,5.087-3.796,9.296-10.11,9.296h-7.446v-18.566h7.446
			C501.815,767.883,505.611,772.092,505.611,777.153 M514.226,777.153c0-9.271-7.155-17.52-18.725-17.52h-15.998v35.027h15.998
			C506.863,794.661,514.226,786.449,514.226,777.153"/>
		<path fill-rule="evenodd" clip-rule="evenodd" d="M109.763,713.548c0,2.372-1.144,4.16-4.855,4.16h-8.699v-8.284h8.699
			C108.619,709.424,109.763,711.298,109.763,713.548 M120.128,736.202l-8.662-12.301c4.148-1.18,6.898-5.633,6.898-10.402
			c0-6.959-5.098-12.386-12.958-12.386h-17.8v35.089h8.602v-10.257h6.46l6.753,10.257H120.128z"/>
		<path fill-rule="evenodd" clip-rule="evenodd" d="M149.231,722.672h-6.157l3.053-6.301L149.231,722.672z M165.619,736.202
			l-19.247-37.607l-19.796,37.607h9.94l2.909-6.107h13.298l3.102,6.107H165.619z"/>
		<path fill-rule="evenodd" clip-rule="evenodd" d="M200.501,718.646c0,5.073-3.81,9.282-10.111,9.282h-7.458v-18.565h7.458
			C196.691,709.362,200.501,713.572,200.501,718.646 M209.077,718.646c0-9.283-7.201-17.508-18.687-17.508h-16.013v35.039h16.013
			C201.68,736.177,209.077,727.928,209.077,718.646"/>
		<rect x="220.149" y="701.113" width="8.602" height="35.063"/>
		<path fill-rule="evenodd" clip-rule="evenodd" d="M268.851,718.646c0,5.523-4.746,9.929-9.794,9.929
			c-5.195,0-9.868-4.405-9.868-9.929c0-5.535,4.673-9.929,9.868-9.929C264.105,708.717,268.851,713.11,268.851,718.646
			 M277.708,718.646c0-10.28-8.286-18.177-18.651-18.177c-10.414,0-18.749,7.896-18.749,18.177c0,10.304,8.335,18.188,18.749,18.188
			C269.422,736.834,277.708,728.949,277.708,718.646"/>
		<rect x="87.656" y="249.458" fill="#FBBA00" width="426.667" height="426.665"/>
		<path fill-rule="evenodd" clip-rule="evenodd" fill="#E30613" d="M352.68,507.021c0,11.352-7.252,20.075-22.752,20.075h-74.933
			v-40.509h74.933C344.722,486.588,352.68,496.413,352.68,507.021 M340.522,415.804c0,9.466-4.561,17.423-18.552,17.423h-66.976
			v-35.18h66.976C335.962,398.047,340.522,406.697,340.522,415.804 M410.931,508.92c0-24.996-12.494-43.908-30.246-54.913
			c11.291-10.598,17.752-25.702,17.752-42.364c0-44.682-35.174-67.737-71.867-67.737H196.741V581.59h137.723
			C376.475,581.59,410.931,553.206,410.931,508.92"/>
	</g>
	<rect x="87.753" y="41.259" fill="#E30613" width="426.666" height="182.692"/>
	<path fill-rule="evenodd" clip-rule="evenodd" fill="#FFFFFF" d="M397.695,183.419h24.939v-34.256h47.157v-23.961h-47.157v-19.527
		h57.875v-23.95h-82.814V183.419z M204.49,132.624c0,16.041-13.747,28.846-28.553,28.846c-14.917,0-28.505-12.805-28.505-28.846
		c0-16.084,13.588-28.872,28.505-28.872C190.743,103.752,204.49,116.539,204.49,132.624 M230.295,132.624
		c0-29.801-24.151-52.863-54.359-52.863c-30.162,0-54.313,23.062-54.313,52.863c0,29.814,24.151,52.845,54.313,52.845
		C206.145,185.468,230.295,162.438,230.295,132.624 M266.26,183.522h25.002v-29.681h18.652l19.611,29.681h31.207l-25.173-35.691
		c11.813-5.177,20.074-16.321,20.074-30.106c0-20.281-14.903-36-37.557-36H266.26V183.522z M316.566,129.855h-25.305v-24.181h25.305
		c10.867,0,14.162,5.371,14.162,12.05C330.729,124.533,327.434,129.855,316.566,129.855"/>
</g>
</svg>
