<?xml version="1.0" encoding="utf-8"?>
<!-- Generator: Adobe Illustrator 15.0.0, SVG Export Plug-In . SVG Version: 6.00 Build 0)  -->
<!DOCTYPE svg PUBLIC "-//W3C//DTD SVG 1.1//EN" "http://www.w3.org/Graphics/SVG/1.1/DTD/svg11.dtd">
<svg version="1.1" id="Layer_1" xmlns="http://www.w3.org/2000/svg" xmlns:xlink="http://www.w3.org/1999/xlink" x="0px" y="0px"
	 width="595.28px" height="841.89px" viewBox="0 0 595.28 841.89" enable-background="new 0 0 595.28 841.89" xml:space="preserve">
<g>
	<g>
		<rect x="77.33" y="233" fill="#153D8A" width="440.967" height="441.006"/>
		<path fill-rule="evenodd" clip-rule="evenodd" d="M106.909,778.478c0,5.714-4.858,10.27-10.195,10.27
			c-5.261,0-10.082-4.556-10.082-10.27c0-5.74,4.821-10.297,10.082-10.297C102.05,768.181,106.909,772.737,106.909,778.478
			 M116.072,778.478c0-10.648-8.597-18.83-19.358-18.83c-10.711,0-19.346,8.182-19.346,18.83c0,10.572,8.635,18.804,19.346,18.804
			C107.475,797.281,116.072,789.05,116.072,778.478 M93.517,755.366c0-2.113-1.724-3.825-3.827-3.825
			c-2.115,0-3.826,1.712-3.826,3.825c0,1.989,1.711,3.752,3.826,3.752C91.792,759.118,93.517,757.355,93.517,755.366
			 M106.858,755.366c0-2.113-1.762-3.825-3.776-3.825c-2.127,0-3.826,1.712-3.826,3.825c0,1.989,1.699,3.752,3.826,3.752
			C105.097,759.118,106.858,757.355,106.858,755.366"/>
		<path d="M160.555,784.695c0-15.582-21.663-8.005-21.663-13.771c0-2.114,1.826-3.397,5.753-3.397c3.448,0,6.103,1.17,9.2,4.229
			l6.369-5.665c-3.259-4.455-8.533-6.468-15.23-6.468c-8.017,0-15.254,4.391-15.254,11.453c0,15.317,21.663,8.307,21.663,14.098
			c0,2.479-2.216,3.65-6.711,3.65c-4.078,0-8.245-2.267-9.777-5.199l-6.672,6.055c4.394,5.222,10.133,7.627,16.2,7.627
			C152.497,797.307,160.555,792.802,160.555,784.695"/>
		<polygon points="202.065,768.885 202.065,760.34 173.556,760.34 173.556,768.885 183.399,768.885 183.399,796.604 
			192.273,796.604 192.273,768.885 		"/>
		<polygon points="246.976,796.604 246.976,788.094 226.358,788.094 226.358,782.229 243.188,782.229 243.188,773.896 
			226.358,773.896 226.358,768.835 246.976,768.835 246.976,760.34 217.484,760.34 217.484,796.604 		"/>
		<path fill-rule="evenodd" clip-rule="evenodd" d="M287.644,773.216c0,2.391-1.095,4.254-4.973,4.254h-8.998v-8.585h8.998
			C286.549,768.885,287.644,770.85,287.644,773.216 M298.343,796.604l-8.938-12.74c4.28-1.222,7.137-5.826,7.137-10.697
			c0-7.276-5.274-12.826-13.404-12.826h-18.352v36.264h8.886V786.03h6.62l6.998,10.573H298.343z"/>
		<path fill-rule="evenodd" clip-rule="evenodd" d="M336.847,773.216c0,2.391-1.134,4.254-5.023,4.254h-9v-8.585h9
			C335.713,768.885,336.847,770.85,336.847,773.216 M347.506,796.604l-8.961-12.74c4.304-1.222,7.2-5.826,7.2-10.697
			c0-7.276-5.324-12.826-13.343-12.826h-18.479v36.264h8.899V786.03h6.622l6.998,10.573H347.506z"/>
		<polygon points="392.631,796.604 392.631,788.094 371.975,788.094 371.975,782.229 388.778,782.229 388.778,773.896 
			371.975,773.896 371.975,768.835 392.631,768.835 392.631,760.34 363.076,760.34 363.076,796.604 		"/>
		<rect x="410.378" y="760.302" width="8.888" height="36.262"/>
		<path d="M470.945,789.842l-7.187-5.209c-1.863,2.529-4.858,4.089-8.182,4.089c-5.69,0-10.183-4.555-10.183-10.294
			c0-5.665,4.442-10.272,10.183-10.272c3.323,0,6.104,1.561,8.081,4.342l7.287-5.398c-3.411-4.971-9.68-7.476-15.368-7.476
			c-11.113,0-19.321,8.231-19.321,18.805c0,10.647,8.105,18.879,19.321,18.879C461.266,797.307,466.979,794.901,470.945,789.842"/>
		<polygon points="518.713,796.604 518.713,760.34 509.814,760.34 509.814,773.781 495.062,773.781 495.062,760.34 486.176,760.34 
			486.176,796.604 495.062,796.604 495.062,782.328 509.814,782.328 509.814,796.604 		"/>
		<path fill-rule="evenodd" clip-rule="evenodd" d="M100.854,712.736c0,2.391-1.07,4.241-4.946,4.241h-9.013v-8.585h9.013
			C99.784,708.393,100.854,710.356,100.854,712.736 M111.566,736.097l-8.95-12.7c4.292-1.208,7.15-5.814,7.15-10.697
			c0-7.251-5.299-12.814-13.355-12.814H77.972v36.212h8.924v-10.535h6.621l6.985,10.535H111.566z"/>
		<path fill-rule="evenodd" clip-rule="evenodd" d="M140.125,722.138h-6.319l3.16-6.52L140.125,722.138z M157.104,736.097
			l-19.925-38.829l-20.491,38.829h10.297l3.007-6.281h13.758l3.198,6.281H157.104z"/>
		<path fill-rule="evenodd" clip-rule="evenodd" d="M191.569,717.984c0,5.237-3.94,9.578-10.473,9.578h-7.702v-19.17h7.702
			C187.629,708.393,191.569,712.736,191.569,717.984 M200.466,717.984c0-9.592-7.364-18.137-19.371-18.137h-16.539v36.249h16.539
			C192.801,736.097,200.466,727.562,200.466,717.984"/>
		<rect x="210.386" y="699.885" width="8.923" height="36.25"/>
		<path fill-rule="evenodd" clip-rule="evenodd" d="M259.196,717.984c0,5.715-4.983,10.271-10.194,10.271
			c-5.287,0-10.208-4.556-10.208-10.271s4.921-10.283,10.208-10.283C254.213,707.701,259.196,712.27,259.196,717.984
			 M268.322,717.984c0-10.649-8.57-18.804-19.32-18.804c-10.787,0-19.36,8.154-19.36,18.804c0,10.599,8.573,18.805,19.36,18.805
			C259.751,736.789,268.322,728.583,268.322,717.984"/>
		<polygon points="326.285,738.022 326.285,699.848 317.449,699.848 317.449,717.935 295.813,697.732 295.813,736.097 
			304.623,736.097 304.623,717.834 		"/>
		<rect x="339.59" y="699.885" width="8.899" height="36.25"/>
		<polygon points="391.271,736.097 391.271,727.638 370.68,727.638 370.68,721.735 387.444,721.735 387.444,713.439 370.68,713.439 
			370.68,708.343 391.271,708.343 391.271,699.885 361.781,699.885 361.781,736.097 		"/>
		<path fill-rule="evenodd" clip-rule="evenodd" d="M429.662,717.984c0,5.237-3.929,9.578-10.449,9.578h-7.702v-19.17h7.702
			C425.733,708.393,429.662,712.736,429.662,717.984 M438.561,717.984c0-9.592-7.339-18.137-19.348-18.137h-16.563v36.249h16.563
			C430.958,736.097,438.561,727.562,438.561,717.984"/>
		<polygon points="476.849,736.097 476.849,727.638 456.258,727.638 456.258,721.735 473.023,721.735 473.023,713.439 
			456.258,713.439 456.258,708.343 476.849,708.343 476.849,699.885 447.359,699.885 447.359,736.097 		"/>
		<path fill-rule="evenodd" clip-rule="evenodd" d="M510.595,712.736c0,2.391-1.159,4.241-5.022,4.241h-9v-8.585h9
			C509.436,708.393,510.595,710.356,510.595,712.736 M521.243,736.097l-8.948-12.7c4.304-1.208,7.186-5.814,7.186-10.697
			c0-7.251-5.311-12.814-13.393-12.814h-18.427v36.212h8.911v-10.535h6.634l6.962,10.535H521.243z"/>
		<rect x="529.524" y="713.654" width="13.406" height="7.88"/>
		<path fill-rule="evenodd" clip-rule="evenodd" fill="#FBBA00" d="M273.623,560.75V385.899h-40.53v82.802l-99.159-92.557v175.87
			h40.505v-83.828L273.623,560.75z M429.888,468.992c0,26.155-22.467,47.036-46.509,47.036c-24.406,0-46.598-20.881-46.598-47.036
			c0-26.182,22.191-47.113,46.598-47.113C407.421,421.879,429.888,442.811,429.888,468.992 M471.94,468.992
			c0-48.718-39.358-86.277-88.562-86.277c-49.227,0-88.648,37.56-88.648,86.277c0,48.636,39.421,86.206,88.648,86.206
			C432.582,555.198,471.94,517.628,471.94,468.992 M441.781,355.168c0-11.907-9.679-21.24-20.957-21.24
			c-11.856,0-21.221,9.333-21.221,21.24c0,11.296,9.364,20.919,21.221,20.919C432.103,376.087,441.781,366.464,441.781,355.168
			 M367.405,355.168c0-11.907-9.614-21.24-21.245-21.24c-11.884,0-21.21,9.333-21.21,21.24c0,11.296,9.326,20.919,21.21,20.919
			C357.791,376.087,367.405,366.464,367.405,355.168"/>
	</g>
	<rect x="77.947" y="18.388" fill="#E30613" width="441.383" height="189.004"/>
	<path fill-rule="evenodd" clip-rule="evenodd" fill="#FFFFFF" d="M398.572,165.46H424.4v-35.439h48.773v-24.789H424.4V85.029
		h59.837V60.252h-85.665V165.46z M198.705,112.909c0,16.596-14.235,29.843-29.53,29.843c-15.444,0-29.502-13.247-29.502-29.843
		c0-16.64,14.059-29.868,29.502-29.868C184.469,83.041,198.705,96.27,198.705,112.909 M225.402,112.909
		c0-30.832-24.986-54.689-56.228-54.689c-31.227,0-56.199,23.858-56.199,54.689c0,30.844,24.973,54.67,56.199,54.67
		C200.416,167.58,225.402,143.753,225.402,112.909 M262.609,165.567h25.852v-30.706h19.308l20.277,30.706h32.285l-26.016-36.924
		c12.22-5.355,20.73-16.886,20.73-31.146c0-20.982-15.406-37.245-38.844-37.245h-53.594V165.567z M314.643,110.045h-26.181V85.029
		h26.181c11.239,0,14.638,5.558,14.638,12.468C329.28,104.539,325.882,110.045,314.643,110.045"/>
</g>
</svg>
