<?xml version="1.0" encoding="utf-8"?>
<!-- Generator: Adobe Illustrator 15.0.0, SVG Export Plug-In . SVG Version: 6.00 Build 0)  -->
<!DOCTYPE svg PUBLIC "-//W3C//DTD SVG 1.1//EN" "http://www.w3.org/Graphics/SVG/1.1/DTD/svg11.dtd">
<svg version="1.1" id="Layer_1" xmlns="http://www.w3.org/2000/svg" xmlns:xlink="http://www.w3.org/1999/xlink" x="0px" y="0px"
	 width="595.28px" height="841.89px" viewBox="0 0 595.28 841.89" enable-background="new 0 0 595.28 841.89" xml:space="preserve">
<g>
	<rect x="69.317" y="18" fill="#E30613" width="456.334" height="195.646"/>
	<path fill-rule="evenodd" clip-rule="evenodd" fill="#FFFFFF" d="M400.801,170.255h26.639v-36.717h50.43v-25.637h-50.43V86.991
		h61.897V61.275h-88.536V170.255z M194.18,115.823c0,17.196-14.69,30.911-30.509,30.911c-15.948,0-30.559-13.715-30.559-30.911
		c0-17.143,14.611-30.911,30.559-30.911C179.49,84.913,194.18,98.68,194.18,115.823 M221.752,115.823
		c0-31.924-25.793-56.626-58.081-56.626c-32.326,0-58.159,24.703-58.159,56.626s25.833,56.626,58.159,56.626
		C195.959,172.45,221.752,147.747,221.752,115.823 M260.234,170.372h26.755v-31.82h19.898l21.039,31.82h33.301l-26.898-38.262
		c12.677-5.506,21.495-17.467,21.495-32.248c0-21.702-15.937-38.586-40.209-38.586h-55.381V170.372z M314.07,112.875h-27.081V86.991
		h27.081c11.596,0,15.065,5.741,15.065,12.871C329.136,107.161,325.666,112.875,314.07,112.875"/>
	<g>
		<path d="M100.928,811.312c0-16.104-22.417-8.299-22.417-14.271c0-2.157,1.871-3.431,5.948-3.431c3.455,0,6.234,1.183,9.456,4.339
			l6.624-5.845c-3.403-4.585-8.806-6.663-15.716-6.663c-8.337,0-15.792,4.546-15.792,11.819c0,15.807,22.416,8.611,22.416,14.572
			c0,2.584-2.286,3.767-6.96,3.767c-4.208,0-8.546-2.364-10.144-5.339l-6.948,6.26c4.546,5.391,10.533,7.858,16.832,7.858
			C92.513,824.379,100.928,819.704,100.928,811.312"/>
		<path fill-rule="evenodd" clip-rule="evenodd" d="M146.438,809.185h-6.585l3.311-6.729L146.438,809.185z M163.984,823.599
			l-20.587-40.157l-21.195,40.157h10.598l3.169-6.441h14.207l3.26,6.441H163.984z"/>
		<polygon points="217.453,823.599 217.453,814.832 197.453,814.832 197.453,786.131 188.271,786.131 188.271,823.599 		"/>
		<polygon points="274.782,786.131 242.493,786.131 242.493,794.936 258.469,794.936 240.415,823.599 273.417,823.599 
			273.417,814.782 256.443,814.782 		"/>
		<path fill-rule="evenodd" clip-rule="evenodd" d="M326.147,811.897c0,1.754-1.13,3.104-3.532,3.104h-11.872v-6.365h11.872
			C324.9,808.637,326.147,810.184,326.147,811.897 M324.212,797.456c0,1.493-0.701,2.791-2.883,2.791h-10.586v-5.585h10.586
			C323.511,794.662,324.212,796.066,324.212,797.456 M335.331,812.171c0-3.961-1.975-6.884-4.741-8.663
			c1.753-1.714,2.767-4.065,2.767-6.664c0-7.076-5.494-10.713-11.339-10.713h-20.48v37.547h21.767
			C329.953,823.678,335.331,819.171,335.331,812.171"/>
		<path d="M396.839,808.105v-21.975h-9.194v20.585c0,5.831-3.3,8.753-7.599,8.753c-4.272,0-7.688-2.922-7.688-8.753v-20.585h-9.104
			v21.975c0,8.728,6.688,16.273,16.792,16.273C390.061,824.379,396.839,816.833,396.839,808.105"/>
		<path fill-rule="evenodd" clip-rule="evenodd" d="M450.557,799.442c0,2.521-1.234,4.429-5.247,4.429h-9.3v-8.936h9.3
			C449.322,794.936,450.557,797.041,450.557,799.442 M461.609,823.599l-9.246-13.077c4.389-1.3,7.375-6.052,7.375-11.156
			c0-7.403-5.494-13.234-13.856-13.234h-19.094v37.468h9.222v-10.87h6.885l7.272,10.87H461.609z"/>
		<path d="M525.481,806.027c0-1.715-0.104-4.391-0.104-4.391h-20.975v8.936h10.43c-1.599,3.079-5.079,5.118-9.04,5.118
			c-5.831,0-10.48-4.922-10.48-10.82c0-5.921,4.649-10.714,10.48-10.714c3.531,0,6.454,1.689,8.507,4.52l7.378-5.532
			c-4.065-5.247-9.949-7.702-15.885-7.702c-11.545,0-19.937,8.494-19.937,19.429c0,11.003,8.43,19.509,19.937,19.509
			C518.21,824.379,525.481,814.832,525.481,806.027"/>
		<path fill-rule="evenodd" clip-rule="evenodd" d="M92.798,736.868c0,2.52-1.247,4.429-5.247,4.429h-9.312v-8.936h9.312
			C91.551,732.361,92.798,734.452,92.798,736.868 M103.864,761.103l-9.3-13.169c4.443-1.286,7.429-6.039,7.429-11.144
			c0-7.402-5.506-13.234-13.844-13.234H69.031v37.547h9.208v-10.975h6.896l7.274,10.975H103.864z"/>
		<path fill-rule="evenodd" clip-rule="evenodd" d="M149.918,746.608h-6.521l3.248-6.753L149.918,746.608z M167.517,761.103
			l-20.587-40.235l-21.234,40.235h10.625l3.103-6.52h14.286l3.26,6.52H167.517z"/>
		<path fill-rule="evenodd" clip-rule="evenodd" d="M219.647,742.323c0,5.416-4.011,9.883-10.739,9.883h-8.027v-19.792h8.027
			C215.636,732.414,219.647,736.921,219.647,742.323 M228.908,742.323c0-9.909-7.688-18.716-20-18.716h-17.171v37.418h17.171
			C220.985,761.025,228.908,752.206,228.908,742.323"/>
		<rect x="255.663" y="723.607" width="9.248" height="37.495"/>
		<path fill-rule="evenodd" clip-rule="evenodd" d="M322.731,742.323c0,5.922-5.092,10.624-10.547,10.624
			c-5.506,0-10.468-4.702-10.468-10.624c0-5.948,4.962-10.65,10.468-10.65C317.64,731.673,322.731,736.375,322.731,742.323
			 M332.187,742.323c0-11.014-8.883-19.481-20.002-19.481c-11.116,0-20.052,8.468-20.052,19.481s8.936,19.415,20.052,19.415
			C323.304,761.738,332.187,753.337,332.187,742.323"/>
		<rect x="69.317" y="240.44" fill="#E30613" width="456.27" height="456.413"/>
		<path fill="#FFFFFF" d="M404.93,512.35c0-109.33-151.799-56.211-151.799-96.706c0-14.664,12.573-23.495,40.068-23.495
			c23.897,0,42.52,8.092,64.354,29.521l44.963-39.665c-23.105-31.209-59.886-45.379-106.902-45.379
			c-56.21,0-106.863,30.807-106.863,80.187c0,107.239,151.838,58.314,151.838,98.797c0,17.363-15.416,25.884-46.95,25.884
			c-28.728,0-57.899-16.209-68.86-36.417l-46.886,42.118c30.755,36.795,71.239,53.393,113.694,53.393
			C348.226,600.588,404.93,569.015,404.93,512.35"/>
	</g>
</g>
</svg>
