<?xml version="1.0" encoding="utf-8"?>
<!-- Generator: Adobe Illustrator 15.0.0, SVG Export Plug-In . SVG Version: 6.00 Build 0)  -->
<!DOCTYPE svg PUBLIC "-//W3C//DTD SVG 1.1//EN" "http://www.w3.org/Graphics/SVG/1.1/DTD/svg11.dtd">
<svg version="1.1" id="Layer_1" xmlns="http://www.w3.org/2000/svg" xmlns:xlink="http://www.w3.org/1999/xlink" x="0px" y="0px"
	 width="595.28px" height="841.89px" viewBox="0 0 595.28 841.89" enable-background="new 0 0 595.28 841.89" xml:space="preserve">
<g>
	<rect x="66.37" y="18.793" fill="#E30613" width="448.163" height="191.908"/>
	<path fill-rule="evenodd" clip-rule="evenodd" fill="#FFFFFF" d="M391.933,168.123h26.199v-35.981h49.523v-25.17h-49.523V86.459
		h60.782V61.301h-86.981V168.123z M188.996,114.767c0,16.851-14.467,30.301-30.008,30.301c-15.667,0-29.956-13.451-29.956-30.301
		c0-16.896,14.289-30.328,29.956-30.328C174.529,84.439,188.996,97.872,188.996,114.767 M216.091,114.767
		c0-31.305-25.381-55.53-57.103-55.53c-31.682,0-57.063,24.225-57.063,55.53c0,31.317,25.382,55.51,57.063,55.51
		C190.709,170.277,216.091,146.084,216.091,114.767 M253.856,168.232h26.263v-31.177h19.591l20.615,31.177h32.781l-26.43-37.491
		c12.396-5.438,21.062-17.144,21.062-31.625c0-21.305-15.655-37.816-39.452-37.816h-54.43V168.232z M306.727,111.859h-26.608v-25.4
		h26.608c11.388,0,14.839,5.643,14.839,12.658C321.565,106.268,318.114,111.859,306.727,111.859"/>
	<path fill-rule="evenodd" clip-rule="evenodd" d="M96.25,791.208c0,5.842-4.971,10.466-10.352,10.466
		c-5.354,0-10.3-4.624-10.3-10.466c0-5.776,4.946-10.39,10.3-10.39C91.279,780.818,96.25,785.432,96.25,791.208 M105.554,791.208
		c0-10.772-8.702-19.066-19.656-19.066c-10.875,0-19.592,8.294-19.592,19.066c0,10.825,8.717,19.183,19.592,19.183
		C96.853,810.391,105.554,802.033,105.554,791.208 M82.652,767.783c0-2.149-1.789-3.886-3.897-3.886
		c-2.135,0-3.873,1.736-3.873,3.886c0,2.046,1.738,3.783,3.873,3.783C80.864,771.566,82.652,769.829,82.652,767.783 M96.213,767.783
		c0-2.149-1.79-3.886-3.835-3.886c-2.159,0-3.847,1.736-3.847,3.886c0,2.046,1.688,3.783,3.847,3.783
		C94.423,771.566,96.213,769.829,96.213,767.783"/>
	<path d="M150.847,797.562c0-15.798-22.007-8.181-22.007-14.008c0-2.121,1.84-3.425,5.829-3.425c3.449,0,6.184,1.201,9.302,4.318
		l6.507-5.75c-3.311-4.499-8.679-6.556-15.452-6.556c-8.141,0-15.49,4.472-15.49,11.617c0,15.539,21.995,8.461,21.995,14.286
		c0,2.507-2.249,3.732-6.837,3.732c-4.127,0-8.396-2.326-9.906-5.317l-6.837,6.163c4.422,5.353,10.302,7.768,16.5,7.768
		C142.63,810.391,150.847,805.815,150.847,797.562"/>
	<polygon points="193.085,781.482 193.085,772.83 164.089,772.83 164.089,781.482 174.057,781.482 174.057,809.652 183.091,809.652 
		183.091,781.482 	"/>
	<polygon points="238.724,809.652 238.724,801.035 217.764,801.035 217.764,794.99 234.84,794.99 234.84,786.594 217.764,786.594 
		217.764,781.38 238.724,781.38 238.724,772.83 208.716,772.83 208.716,809.652 	"/>
	<path fill-rule="evenodd" clip-rule="evenodd" d="M280.093,785.854c0,2.479-1.163,4.369-5.113,4.369h-9.137v-8.741h9.137
		C278.93,781.482,280.093,783.489,280.093,785.854 M290.957,809.652l-9.087-12.922c4.357-1.215,7.247-5.893,7.247-10.94
		c0-7.298-5.369-12.96-13.611-12.96h-18.698v36.822h9.036v-10.713h6.773l7.081,10.713H290.957z"/>
	<path fill-rule="evenodd" clip-rule="evenodd" d="M330.076,785.854c0,2.479-1.188,4.369-5.086,4.369h-9.139v-8.741h9.139
		C328.888,781.482,330.076,783.489,330.076,785.854 M340.965,809.652l-9.099-12.922c4.371-1.215,7.271-5.893,7.271-10.94
		c0-7.298-5.366-12.96-13.597-12.96h-18.736v36.822h9.048v-10.713h6.773l7.094,10.713H340.965z"/>
	<polygon points="386.782,809.652 386.782,801.035 365.861,801.035 365.861,794.99 382.936,794.99 382.936,786.594 365.861,786.594 
		365.861,781.38 386.782,781.38 386.782,772.83 356.825,772.83 356.825,809.652 	"/>
	<rect x="404.841" y="772.83" width="9.036" height="36.822"/>
	<path d="M466.403,802.775l-7.247-5.268c-1.878,2.582-4.92,4.166-8.345,4.166c-5.726,0-10.301-4.624-10.301-10.466
		c0-5.776,4.511-10.39,10.301-10.39c3.425,0,6.249,1.456,8.242,4.396l7.35-5.559c-3.414-5.035-9.752-7.515-15.592-7.515
		c-11.221,0-19.605,8.294-19.605,19.066c0,10.825,8.205,19.183,19.605,19.183C456.651,810.391,462.429,807.976,466.403,802.775"/>
	<polygon points="515.07,809.652 515.07,772.83 505.983,772.83 505.983,786.494 490.993,786.494 490.993,772.83 481.981,772.83 
		481.981,809.652 490.993,809.652 490.993,795.21 505.983,795.21 505.983,809.652 	"/>
	<path fill-rule="evenodd" clip-rule="evenodd" d="M90.436,724.432c0,2.479-1.175,4.32-5.112,4.32h-9.125v-8.664h9.125
		C89.26,720.088,90.436,722.029,90.436,724.432 M101.285,748.191l-9.073-12.935c4.358-1.201,7.258-5.866,7.258-10.876
		c0-7.361-5.354-13.023-13.623-13.023H67.138v36.834h9.061v-10.724h6.773l7.081,10.724H101.285z"/>
	<path fill-rule="evenodd" clip-rule="evenodd" d="M136.189,734.004h-6.417l3.209-6.62L136.189,734.004z M153.479,748.191
		l-20.242-39.453l-20.846,39.453h10.442l3.003-6.403h14.071l3.221,6.403H153.479z"/>
	<path fill-rule="evenodd" clip-rule="evenodd" d="M194.338,729.8c0,5.316-3.975,9.713-10.607,9.713h-7.885v-19.477h7.885
		C190.363,720.036,194.338,724.432,194.338,729.8 M203.374,729.8c0-9.764-7.553-18.442-19.643-18.442h-16.857v36.834h16.857
		C195.604,748.191,203.374,739.513,203.374,729.8"/>
	<rect x="219.298" y="711.357" width="9.048" height="36.873"/>
	<path fill-rule="evenodd" clip-rule="evenodd" d="M274.776,729.8c0,5.776-5.01,10.403-10.352,10.403
		c-5.406,0-10.288-4.627-10.288-10.403c0-5.828,4.882-10.454,10.288-10.454C269.767,719.346,274.776,723.972,274.776,729.8
		 M284.068,729.8c0-10.824-8.716-19.17-19.644-19.17c-10.94,0-19.693,8.346-19.693,19.17c0,10.761,8.753,19.069,19.693,19.069
		C275.352,748.869,284.068,740.561,284.068,729.8"/>
	<path fill-rule="evenodd" clip-rule="evenodd" d="M352.224,729.8c0,5.776-5.06,10.403-10.352,10.403
		c-5.431,0-10.364-4.627-10.364-10.403c0-5.828,4.934-10.454,10.364-10.454C347.164,719.346,352.224,723.972,352.224,729.8
		 M361.503,729.8c0-10.824-8.755-19.17-19.631-19.17c-10.952,0-19.719,8.346-19.719,19.17c0,10.761,8.767,19.069,19.719,19.069
		C352.748,748.869,361.503,740.561,361.503,729.8"/>
	<path fill-rule="evenodd" clip-rule="evenodd" d="M403.806,736.675c0,1.688-1.176,3.042-3.515,3.042h-11.617v-6.249h11.617
		C402.526,733.468,403.806,735.002,403.806,736.675 M401.901,722.489c0,1.482-0.679,2.685-2.838,2.685h-10.39v-5.406h10.39
		C401.223,719.768,401.901,721.136,401.901,722.489 M412.842,736.944c0-3.898-1.956-6.787-4.69-8.499
		c1.736-1.688,2.734-4.014,2.734-6.582c0-6.927-5.42-10.506-11.131-10.506H379.64v36.834h21.379
		C407.536,748.191,412.842,743.832,412.842,736.944"/>
	<polygon points="462.94,748.191 462.94,739.564 442.043,739.564 442.043,733.635 459.118,733.635 459.118,725.122 442.043,725.122 
		442.043,719.984 462.94,719.984 462.94,711.357 432.995,711.357 432.995,748.191 	"/>
	<path fill-rule="evenodd" clip-rule="evenodd" d="M506.559,724.432c0,2.479-1.215,4.32-5.101,4.32h-9.201v-8.664h9.201
		C505.344,720.088,506.559,722.029,506.559,724.432 M517.435,748.191l-9.087-12.935c4.333-1.201,7.233-5.866,7.233-10.876
		c0-7.361-5.406-13.023-13.584-13.023h-18.764v36.834h9.023v-10.724h6.786l7.133,10.724H517.435z"/>
	<rect x="532.783" y="725.326" width="13.599" height="8.053"/>
	<rect x="66.37" y="236.946" fill="#E30613" width="448.126" height="448.15"/>
	<path fill-rule="evenodd" clip-rule="evenodd" fill="#FFFFFF" d="M242.686,476.727c0,26.66-22.863,47.824-47.362,47.824
		c-24.68,0-47.263-21.164-47.263-47.824c0-26.633,22.583-47.849,47.263-47.849C219.822,428.878,242.686,450.094,242.686,476.727
		 M285.435,476.727c0-49.428-40.027-87.614-90.111-87.614c-49.946,0-90.011,38.187-90.011,87.614
		c0,49.435,40.064,87.647,90.011,87.647C245.408,564.374,285.435,526.161,285.435,476.727 M478.954,476.727
		c0-49.428-40.055-87.614-90.024-87.614c-49.997,0-90.063,38.187-90.063,87.614c0,49.435,40.066,87.647,90.063,87.647
		C438.899,564.374,478.954,526.161,478.954,476.727 M436.217,476.727c0,26.66-22.814,47.824-47.287,47.824
		c-24.743,0-47.274-21.164-47.274-47.824c0-26.633,22.531-47.849,47.274-47.849C413.402,428.878,436.217,450.094,436.217,476.727
		 M448.243,361.054c0-12.078-9.764-21.528-21.229-21.528c-12.141,0-21.598,9.451-21.598,21.528c0,11.457,9.457,21.279,21.598,21.279
		C438.479,382.333,448.243,372.51,448.243,361.054 M372.751,361.054c0-12.078-9.816-21.528-21.587-21.528
		c-12.141,0-21.611,9.451-21.611,21.528c0,11.457,9.471,21.279,21.611,21.279C362.935,382.333,372.751,372.51,372.751,361.054"/>
</g>
</svg>
