<?xml version="1.0" encoding="utf-8"?>
<!-- Generator: Adobe Illustrator 15.0.0, SVG Export Plug-In . SVG Version: 6.00 Build 0)  -->
<!DOCTYPE svg PUBLIC "-//W3C//DTD SVG 1.1//EN" "http://www.w3.org/Graphics/SVG/1.1/DTD/svg11.dtd">
<svg version="1.1" id="Layer_1" xmlns="http://www.w3.org/2000/svg" xmlns:xlink="http://www.w3.org/1999/xlink" x="0px" y="0px"
	 width="595.28px" height="841.89px" viewBox="0 0 595.28 841.89" enable-background="new 0 0 595.28 841.89" xml:space="preserve">
<g>
	<g>
		<polygon points="125.035,798.771 110.506,779.362 124.89,763.521 112.901,763.521 101.603,776.597 97.272,776.597 97.272,763.521 
			87.831,763.521 87.831,798.771 97.272,798.771 97.272,784.926 103.364,784.926 113.27,798.771 		"/>
		<path fill-rule="evenodd" clip-rule="evenodd" d="M158.206,785.196h-6.739l3.387-6.336L158.206,785.196z M176.221,798.771
			l-21.135-37.767l-21.708,37.767h10.896l3.181-6.114h14.639l3.351,6.114H176.221z M150.464,759.047c0-2.08-1.86-3.72-4.075-3.72
			c-2.249,0-4.021,1.64-4.021,3.72c0,1.957,1.772,3.644,4.021,3.644C148.604,762.69,150.464,761.004,150.464,759.047
			 M167.012,759.047c0-2.08-1.811-3.72-3.976-3.72c-2.262,0-4.023,1.64-4.023,3.72c0,1.957,1.761,3.644,4.023,3.644
			C165.201,762.69,167.012,761.004,167.012,759.047"/>
		<path fill-rule="evenodd" clip-rule="evenodd" d="M213.281,776.048c0,2.359-1.212,4.132-5.346,4.132h-9.551v-8.365h9.551
			C212.069,771.814,213.281,773.76,213.281,776.048 M224.568,798.771l-9.492-12.353c4.527-1.175,7.584-5.65,7.584-10.42
			c0-7.021-5.625-12.477-14.163-12.477h-19.519v35.249h9.406v-10.262h7.044l7.388,10.262H224.568z"/>
		<polygon points="271.485,800.631 271.485,763.521 262.129,763.521 262.129,781.088 239.196,761.455 239.196,798.771 
			248.564,798.771 248.564,780.988 		"/>
		<polygon points="315.479,771.851 315.479,763.521 285.258,763.521 285.258,771.851 295.603,771.851 295.603,798.771 
			305.072,798.771 305.072,771.851 		"/>
		<polygon points="359.914,798.771 359.914,790.517 338.095,790.517 338.095,784.828 355.9,784.828 355.9,776.732 338.095,776.732 
			338.095,771.767 359.914,771.767 359.914,763.521 328.653,763.521 328.653,798.771 		"/>
		<polygon points="405.486,800.631 405.486,763.521 396.105,763.521 396.105,781.088 373.208,761.455 373.208,798.771 
			382.54,798.771 382.54,780.988 		"/>
		<path fill-rule="evenodd" clip-rule="evenodd" d="M112.108,717.242c0,2.372-1.212,4.146-5.333,4.146h-9.503v-8.367h9.503
			C110.896,713.021,112.108,714.931,112.108,717.242 M123.422,739.966l-9.456-12.327c4.525-1.187,7.546-5.701,7.546-10.47
			c0-7.021-5.577-12.451-14.188-12.451H87.831v35.248h9.442V729.68h7.007l7.437,10.286H123.422z"/>
		<path fill-rule="evenodd" clip-rule="evenodd" d="M155.551,726.391H148.8l3.376-6.36L155.551,726.391z M173.494,739.966
			l-21.063-37.791l-21.72,37.791h10.86l3.167-6.103h14.628l3.364,6.103H173.494z"/>
		<path fill-rule="evenodd" clip-rule="evenodd" d="M211.861,722.354c0,5.088-4.17,9.319-11.068,9.319h-8.195v-18.652h8.195
			C207.691,713.021,211.861,717.242,211.861,722.354 M221.256,722.354c0-9.333-7.781-17.648-20.463-17.648h-17.539v35.26h17.539
			C213.22,739.966,221.256,731.674,221.256,722.354"/>
		<rect x="233.633" y="704.718" width="9.404" height="35.248"/>
		<path fill-rule="evenodd" clip-rule="evenodd" d="M287.129,722.354c0,5.552-5.188,10.005-10.764,10.005
			c-5.638,0-10.75-4.453-10.75-10.005s5.112-10.005,10.75-10.005C281.941,712.35,287.129,716.803,287.129,722.354 M296.877,722.354
			c0-10.335-9.149-18.31-20.512-18.31c-11.375,0-20.474,7.975-20.474,18.31c0,10.323,9.099,18.298,20.474,18.298
			C287.728,740.652,296.877,732.678,296.877,722.354"/>
	</g>
	<rect x="87.573" y="41.259" fill="#E30613" width="428.917" height="183.656"/>
	<path fill-rule="evenodd" clip-rule="evenodd" fill="#FFFFFF" d="M399.124,184.169h25.098v-34.437h47.419v-24.088h-47.419v-19.63
		h58.17V81.938h-83.268V184.169z M204.925,133.104c0,16.127-13.832,29-28.704,29c-14.996,0-28.658-12.873-28.658-29
		c0-16.168,13.662-29.023,28.658-29.023C191.094,104.082,204.925,116.937,204.925,133.104 M230.867,133.104
		c0-29.958-24.278-53.142-54.646-53.142c-30.32,0-54.609,23.185-54.609,53.142c0,29.972,24.29,53.125,54.609,53.125
		C206.589,186.229,230.867,163.076,230.867,133.104 M267.01,184.272h25.145v-29.837h18.738l19.727,29.837h31.372l-25.304-35.879
		c11.875-5.205,20.167-16.407,20.167-30.265c0-20.389-14.982-36.19-37.755-36.19h-52.09V184.272z M317.594,130.322h-25.438v-24.308
		h25.438c10.911,0,14.238,5.399,14.238,12.114C331.832,124.972,328.505,130.322,317.594,130.322"/>
	<rect x="87.831" y="250.703" fill="#E30613" width="428.905" height="428.905"/>
	<polygon fill="#FBBA00" points="447.459,584.563 349.21,452.912 446.652,345.631 365.404,345.631 288.681,434.273 259.268,434.273 
		259.268,345.631 195.411,345.631 195.411,584.563 259.268,584.563 259.268,490.584 300.692,490.584 367.863,584.563 	"/>
</g>
</svg>
