<?xml version="1.0" encoding="utf-8"?>
<!-- Generator: Adobe Illustrator 15.0.0, SVG Export Plug-In . SVG Version: 6.00 Build 0)  -->
<!DOCTYPE svg PUBLIC "-//W3C//DTD SVG 1.1//EN" "http://www.w3.org/Graphics/SVG/1.1/DTD/svg11.dtd">
<svg version="1.1" id="Layer_1" xmlns="http://www.w3.org/2000/svg" xmlns:xlink="http://www.w3.org/1999/xlink" x="0px" y="0px"
	 width="595.28px" height="841.89px" viewBox="0 0 595.28 841.89" enable-background="new 0 0 595.28 841.89" xml:space="preserve">
<g>
	<g>
		<rect x="66.086" y="235.503" fill="#DA5B13" width="450.117" height="450.053"/>
		<rect x="66.086" y="18.793" fill="#E30613" width="450.117" height="192.424"/>
		<path fill="#FFFEFE" d="M393.062,168.491H419.4v-36.059h49.741v-25.235H419.4V86.653h61.039V61.366h-87.377V168.491z
			 M189.29,114.979c0,16.914-14.516,30.392-30.134,30.392c-15.708,0-30.07-13.478-30.07-30.392c0-16.913,14.362-30.403,30.07-30.403
			C174.774,84.576,189.29,98.066,189.29,114.979z M216.514,114.979c0-31.455-25.544-55.652-57.358-55.652
			c-31.814,0-57.294,24.197-57.294,55.652c0,31.379,25.479,55.627,57.294,55.627C190.97,170.606,216.514,146.358,216.514,114.979z
			 M307.494,112.081h-26.723V86.653h26.723c11.489,0,14.875,5.629,14.875,12.58C322.369,106.439,318.983,112.081,307.494,112.081z
			 M254.458,168.619h26.313v-31.314h19.746l20.671,31.314h32.892l-26.544-37.546c12.49-5.539,21.249-17.297,21.249-31.839
			c0-21.287-15.837-37.867-39.765-37.867h-54.562V168.619z"/>
		<polygon fill="#4E2367" points="454.69,337.82 389.216,337.82 343.564,452.138 290.76,347.731 238.737,452.138 192.292,337.82 
			127.611,337.82 235.608,598.616 290.76,477.155 344.373,599.475 		"/>
	</g>
	<g>
		<path d="M67.573,750.249v-37.303h18.979c4.077,0,7.411,1.282,10.04,3.796c2.475,2.5,3.718,5.591,3.718,9.387
			c0,2.449-0.654,4.642-1.975,6.604c-1.372,1.961-3.167,3.423-5.386,4.424l9.22,13.092h-11.4l-7.22-10.861h-6.809v10.861H67.573z
			 M86.039,730.554c3.424,0,5.167-1.45,5.167-4.425c0-2.923-1.744-4.424-5.167-4.424h-9.297v8.849H86.039z"/>
		<path d="M113.775,750.249l21.12-39.982l20.465,39.982h-10.823l-3.039-6.476h-13.733l-3.103,6.476H113.775z M137.408,735.286
			l-2.782-6.04l-2.911,6.04H137.408z"/>
		<path d="M171.837,750.249v-37.303h17.094c5.899,0,10.745,1.835,14.504,5.643c3.577,3.501,5.384,7.86,5.384,12.991
			c0,5.09-1.807,9.438-5.423,13.001c-3.821,3.757-8.604,5.668-14.465,5.668H171.837z M188.931,741.453
			c3.206,0,5.86-0.949,7.849-2.912c1.91-1.795,2.845-4.103,2.845-6.961c0-2.783-0.935-5.131-2.845-6.926
			c-1.989-1.962-4.643-2.949-7.849-2.949h-7.962v19.748H188.931z"/>
		<path d="M227.593,750.249v-37.303h9.182v37.303H227.593z"/>
		<path d="M295.504,731.58c0,5.409-1.948,10.039-5.808,13.758c-3.847,3.757-8.604,5.668-14.145,5.668
			c-5.539,0-10.246-1.911-14.092-5.668c-3.847-3.719-5.783-8.349-5.783-13.758c0-5.451,1.936-10.004,5.783-13.722
			c3.846-3.758,8.553-5.655,14.092-5.655c5.541,0,10.298,1.897,14.145,5.655C293.556,721.576,295.504,726.129,295.504,731.58z
			 M286.054,731.58c0-2.848-1.116-5.375-3.22-7.439c-2.116-2.051-4.526-3.103-7.284-3.103c-2.73,0-5.167,1.052-7.283,3.103
			c-2.09,2.064-3.167,4.592-3.167,7.439c0,2.896,1.077,5.358,3.167,7.475c2.116,2.078,4.553,3.142,7.283,3.142
			c2.758,0,5.168-1.063,7.284-3.142C284.938,736.938,286.054,734.477,286.054,731.58z"/>
		<path d="M355.965,753.25l-16.144-40.304h9.643l6.976,18.312l7.81-16.836l7.861,16.836l6.873-18.312h9.809l-16.516,40.304
			l-8.027-18.862L355.965,753.25z"/>
		<path d="M405.577,750.249v-37.303h9.169v37.303H405.577z"/>
		<path d="M436.16,750.249v-37.303h30.417v8.759h-21.234v5.064h17.323v8.823h-17.323v5.86h21.234v8.796H436.16z"/>
		<path d="M494.416,730.938v19.312h-9.09v-39.982l22.285,21.992v-19.312h9.066v40.009L494.416,730.938z"/>
	</g>
</g>
</svg>
