<?xml version="1.0" encoding="utf-8"?>
<!-- Generator: Adobe Illustrator 15.0.0, SVG Export Plug-In . SVG Version: 6.00 Build 0)  -->
<!DOCTYPE svg PUBLIC "-//W3C//DTD SVG 1.1//EN" "http://www.w3.org/Graphics/SVG/1.1/DTD/svg11.dtd">
<svg version="1.1" id="Layer_1" xmlns="http://www.w3.org/2000/svg" xmlns:xlink="http://www.w3.org/1999/xlink" x="0px" y="0px"
	 width="595.28px" height="841.89px" viewBox="0 0 595.28 841.89" enable-background="new 0 0 595.28 841.89" xml:space="preserve">
<g>
	<rect x="71.18" y="236.208" fill="#007A4C" width="447.967" height="447.98"/>
	<g>
		<rect x="71.224" y="18.388" fill="#E30613" width="448.031" height="191.568"/>
		<path fill-rule="evenodd" clip-rule="evenodd" fill="#FFFFFF" d="M396.697,167.421h26.143v-35.899h49.572v-25.115H422.84V85.975
			h60.815V60.86h-86.958V167.421z M193.84,114.166c0,16.833-14.441,30.232-29.984,30.232c-15.652,0-29.982-13.399-29.982-30.232
			c0-16.833,14.33-30.245,29.982-30.245C179.399,83.92,193.84,97.333,193.84,114.166 M220.94,114.166
			c0-31.253-25.375-55.347-57.084-55.347c-31.674,0-57.083,24.094-57.083,55.347c0,31.254,25.409,55.425,57.083,55.425
			C195.565,169.591,220.94,145.42,220.94,114.166 M258.697,167.549h26.251v-31.165h19.582l20.584,31.165h32.723l-26.366-37.367
			c12.394-5.463,21.05-17.177,21.05-31.649c0-21.223-15.64-37.673-39.478-37.673h-54.346V167.549z M311.511,111.282h-26.562V85.975
			h26.562c11.397,0,14.805,5.603,14.805,12.558C326.315,105.73,322.908,111.282,311.511,111.282"/>
		<path d="M101.847,796.556c0-15.799-22.008-8.143-22.008-14.014c0-2.117,1.844-3.381,5.769-3.381c3.471,0,6.215,1.162,9.354,4.326
			l6.515-5.793c-3.375-4.493-8.671-6.548-15.442-6.548c-8.186,0-15.487,4.467-15.487,11.613c0,15.531,21.995,8.449,21.995,14.319
			c0,2.538-2.246,3.676-6.828,3.676c-4.141,0-8.391-2.322-9.979-5.258l-6.828,6.151c4.467,5.31,10.356,7.732,16.495,7.732
			C93.602,809.381,101.847,804.812,101.847,796.556"/>
		<polygon points="142.283,780.489 142.283,771.875 113.294,771.875 113.294,780.489 123.326,780.489 123.326,808.629 
			132.347,808.629 132.347,780.489 		"/>
		<polygon points="186.802,808.629 186.802,800.079 165.854,800.079 165.854,794.016 182.91,794.016 182.91,785.567 
			165.854,785.567 165.854,780.425 186.802,780.425 186.802,771.824 156.825,771.824 156.825,808.629 		"/>
		<rect x="205.511" y="771.824" width="9.01" height="36.805"/>
		<polygon points="264.515,808.629 264.515,800.079 243.625,800.079 243.625,794.016 260.629,794.016 260.629,785.567 
			243.625,785.567 243.625,780.425 264.515,780.425 264.515,771.824 234.588,771.824 234.588,808.629 		"/>
		<path fill-rule="evenodd" clip-rule="evenodd" d="M305.329,784.902c0,2.478-1.22,4.354-5.111,4.354h-9.183v-8.717h9.183
			C304.109,780.54,305.329,782.542,305.329,784.902 M316.182,808.629l-9.072-12.877c4.351-1.25,7.249-5.921,7.249-10.925
			c0-7.312-5.362-13.003-13.611-13.003h-18.741v36.805h9.029v-10.708h6.84l7.076,10.708H316.182z"/>
		<polygon points="365.647,808.629 365.647,769.884 349.165,786.575 332.631,769.884 332.631,808.629 341.592,808.629 
			341.592,790.265 349.165,797.972 356.618,790.315 356.618,808.629 		"/>
		<path fill-rule="evenodd" clip-rule="evenodd" d="M403.62,794.451h-6.405l3.15-6.613L403.62,794.451z M420.843,808.629
			l-20.151-39.424l-20.865,39.424h10.464l2.986-6.356h14.026l3.247,6.356H420.843z"/>
		<path fill-rule="evenodd" clip-rule="evenodd" d="M457.697,784.902c0,2.478-1.197,4.354-5.136,4.354h-9.138v-8.717h9.138
			C456.5,780.54,457.697,782.542,457.697,784.902 M468.52,808.629l-9.084-12.877c4.371-1.25,7.304-5.921,7.304-10.925
			c0-7.312-5.417-13.003-13.653-13.003h-18.684v36.805h9.021v-10.708h6.764l7.103,10.708H468.52z"/>
		<polygon points="519.518,808.629 505.605,788.362 519.363,771.824 507.865,771.824 496.985,785.466 492.89,785.466 
			492.89,771.824 483.86,771.824 483.86,808.629 492.89,808.629 492.89,794.183 498.715,794.183 508.272,808.629 		"/>
		<path fill-rule="evenodd" clip-rule="evenodd" d="M94.433,723.456c0,2.476-1.155,4.352-5.093,4.352h-9.137v-8.716h9.137
			C93.278,719.092,94.433,721.095,94.433,723.456 M105.299,747.244l-9.073-12.902c4.345-1.289,7.249-5.948,7.249-10.95
			c0-7.3-5.373-13.018-13.604-13.018H71.18v36.87h9.022v-10.759h6.776l7.089,10.759H105.299z"/>
		<path fill-rule="evenodd" clip-rule="evenodd" d="M138.02,733.014h-6.463l3.159-6.624L138.02,733.014z M155.199,747.244
			l-20.223-39.486l-20.788,39.486h10.433l3.064-6.407h13.96l3.26,6.407H155.199z"/>
		<path fill-rule="evenodd" clip-rule="evenodd" d="M193.891,728.828c0,5.284-4.001,9.699-10.604,9.699H175.4v-19.436h7.887
			C189.89,719.092,193.891,723.506,193.891,728.828 M202.927,728.828c0-9.736-7.575-18.402-19.641-18.402h-16.858v36.779h16.858
			C195.147,747.205,202.927,738.527,202.927,728.828"/>
		<rect x="216.632" y="710.374" width="9.023" height="36.87"/>
		<path fill-rule="evenodd" clip-rule="evenodd" d="M269.831,728.828c0,5.818-5.002,10.452-10.298,10.452
			c-5.45,0-10.338-4.634-10.338-10.452c0-5.844,4.888-10.477,10.338-10.477C264.829,718.352,269.831,722.984,269.831,728.828
			 M279.179,728.828c0-10.847-8.728-19.118-19.646-19.118c-10.931,0-19.691,8.271-19.691,19.118c0,10.784,8.76,19.104,19.691,19.104
			C270.451,747.933,279.179,739.612,279.179,728.828"/>
		<path fill-rule="evenodd" clip-rule="evenodd" fill="#FFFFFF" d="M338.923,502.803c0-106.089-147.238-54.595-147.238-93.826
			c0-14.178,12.187-22.792,38.922-22.792c23.086,0,41.157,7.824,62.317,28.612l43.639-38.426
			c-22.364-30.258-58.13-43.978-103.658-43.978c-54.614,0-103.658,29.825-103.658,77.721c0,104.073,147.252,56.572,147.252,95.79
			c0,16.909-14.919,25.127-45.534,25.127c-27.941,0-56.134-15.658-66.783-35.26l-45.527,40.812
			c29.817,35.696,69.142,51.814,110.313,51.814C283.958,588.397,338.923,557.743,338.923,502.803 M347.597,448.77v-58.769h20.265
			v-40.876l60.854-16.974v57.85h28.574v58.769h-28.574v52.924c0,15.11,3.058,18.223,8.571,21.389l29.977,17.101l-27.667,49.273
			c-37.233-17.752-71.735-31.471-71.735-81.242V448.77H347.597z"/>
	</g>
</g>
</svg>
