<?xml version="1.0" encoding="utf-8"?>
<!-- Generator: Adobe Illustrator 15.0.0, SVG Export Plug-In . SVG Version: 6.00 Build 0)  -->
<!DOCTYPE svg PUBLIC "-//W3C//DTD SVG 1.1//EN" "http://www.w3.org/Graphics/SVG/1.1/DTD/svg11.dtd">
<svg version="1.1" id="Layer_1" xmlns="http://www.w3.org/2000/svg" xmlns:xlink="http://www.w3.org/1999/xlink" x="0px" y="0px"
	 width="595.28px" height="841.89px" viewBox="0 0 595.28 841.89" enable-background="new 0 0 595.28 841.89" xml:space="preserve">
<g>
	<rect x="86.316" y="44.259" fill="#E30613" width="423.884" height="181.189"/>
	<path fill-rule="evenodd" clip-rule="evenodd" fill="#FFFFFF" d="M394.239,185.216h24.787v-33.954h46.861v-23.81h-46.861v-19.344
		h57.488V84.346h-82.275V185.216z M202.352,134.83c0,15.854-13.718,28.569-28.364,28.569c-14.802,0-28.361-12.715-28.361-28.569
		c0-15.926,13.559-28.653,28.361-28.653C188.634,106.177,202.352,118.904,202.352,134.83 M227.998,134.83
		c0-29.57-24.003-52.402-54.011-52.402c-30.004,0-53.995,22.833-53.995,52.402c0,29.546,23.99,52.379,53.995,52.379
		C203.995,187.208,227.998,164.376,227.998,134.83 M263.726,185.337h24.836v-29.486h18.478l19.475,29.486h31.006l-24.995-35.426
		c11.774-5.119,19.961-16.215,19.961-29.86c0-20.14-14.792-35.704-37.406-35.704h-51.354V185.337z M313.654,132.101h-25.093v-23.993
		h25.093c10.77,0,14.065,5.35,14.065,11.942C327.72,126.788,324.424,132.101,313.654,132.101"/>
	<rect x="86.316" y="250.261" fill="#E30613" width="423.884" height="423.861"/>
	<polygon fill="#FFFFFF" points="408.258,344.043 345.457,344.043 298.44,459.112 251.085,344.043 188.25,344.043 298.44,594.104 	
		"/>
	<polygon points="117.504,757.062 108.255,757.062 101.36,774.062 94.31,757.062 85.061,757.062 101.36,793.925 	"/>
	<path fill-rule="evenodd" clip-rule="evenodd" d="M152.835,774.496c0,5.46-4.733,9.829-9.793,9.829
		c-5.132,0-9.744-4.369-9.744-9.829c0-5.517,4.612-9.863,9.744-9.863C148.102,764.633,152.835,768.979,152.835,774.496
		 M161.613,774.496c0-10.239-8.248-18.135-18.571-18.135c-10.336,0-18.643,7.896-18.643,18.135c0,10.192,8.306,18.028,18.643,18.028
		C153.365,792.524,161.613,784.688,161.613,774.496"/>
	<path fill-rule="evenodd" clip-rule="evenodd" d="M195.555,769.414c0,2.342-1.099,4.104-4.832,4.104h-8.632v-8.271h8.632
		C194.456,765.247,195.555,767.155,195.555,769.414 M205.84,791.896l-8.596-12.231c4.116-1.145,6.859-5.555,6.859-10.274
		c0-6.969-5.06-12.328-12.873-12.328h-17.689v34.834h8.549v-10.203h6.413l6.699,10.203H205.84z"/>
	<path fill-rule="evenodd" clip-rule="evenodd" d="M236.884,778.469h-6.122l3.056-6.255L236.884,778.469z M253.184,791.896
		l-19.125-37.31l-19.669,37.31h9.889l2.813-6.062h13.271l3.091,6.062H253.184z"/>
	<path fill-rule="evenodd" clip-rule="evenodd" d="M285.436,769.414c0,2.342-1.146,4.104-4.878,4.104h-8.633v-8.271h8.633
		C284.289,765.247,285.436,767.155,285.436,769.414 M295.712,791.896l-8.646-12.231c4.128-1.145,6.906-5.555,6.906-10.274
		c0-6.969-5.121-12.328-12.871-12.328h-17.714v34.834h8.538v-10.203h6.398l6.775,10.203H295.712z"/>
	<polygon points="334.772,791.896 334.772,783.699 316.129,783.699 316.129,757.062 307.58,757.062 307.58,791.896 	"/>
	<path fill-rule="evenodd" clip-rule="evenodd" d="M369.654,780.958c0,1.651-1.099,2.933-3.344,2.933h-10.964v-5.916h10.964
		C368.448,777.975,369.654,779.437,369.654,780.958 M367.855,767.591c0,1.389-0.7,2.525-2.741,2.525h-9.768v-5.097h9.768
		C367.155,765.02,367.855,766.287,367.855,767.591 M378.204,781.259c0-3.671-1.849-6.399-4.479-8.066
		c1.629-1.568,2.631-3.778,2.631-6.192c0-6.559-5.156-9.938-10.542-9.938h-19.015v34.87h20.162
		C373.121,791.932,378.204,787.778,378.204,781.259"/>
	<polygon points="418.738,791.896 418.738,783.746 398.96,783.746 398.96,778.059 415.067,778.059 415.067,770.065 398.96,770.065 
		398.96,765.199 418.738,765.199 418.738,757.062 390.374,757.062 390.374,791.896 	"/>
	<path fill-rule="evenodd" clip-rule="evenodd" d="M454.707,769.414c0,2.342-1.1,4.104-4.83,4.104h-8.632v-8.271h8.632
		C453.607,765.247,454.707,767.155,454.707,769.414 M464.983,791.896l-8.586-12.231c4.129-1.145,6.859-5.555,6.859-10.274
		c0-6.969-5.084-12.328-12.871-12.328h-17.703v34.834h8.562v-10.203h6.41l6.713,10.203H464.983z"/>
	<path d="M510.346,775.549c0-1.584-0.096-4.046-0.096-4.046h-19.477v8.246h9.732c-1.498,2.897-4.77,4.782-8.453,4.782
		c-5.408,0-9.73-4.575-9.73-10.081c0-5.471,4.322-9.987,9.73-9.987c3.225,0,6.027,1.643,7.897,4.227l6.906-5.106
		c-3.816-4.878-9.273-7.186-14.804-7.186c-10.722,0-18.522,7.859-18.522,18.053c0,10.238,7.91,18.121,18.522,18.121
		C503.585,792.571,510.346,783.699,510.346,775.549"/>
	<path fill-rule="evenodd" clip-rule="evenodd" d="M108.364,711.288c0,2.329-1.1,4.14-4.89,4.14h-8.622v-8.258h8.622
		C107.265,707.17,108.364,709.065,108.364,711.288 M118.593,733.771l-8.598-12.243c4.129-1.135,6.905-5.556,6.905-10.264
		c0-6.979-5.106-12.34-12.86-12.34H86.316v34.847h8.536v-10.144h6.412l6.701,10.144H118.593z"/>
	<path fill-rule="evenodd" clip-rule="evenodd" d="M147.304,720.32h-6.098l3.08-6.244L147.304,720.32z M163.666,733.771
		l-19.126-37.321l-19.681,37.321h9.827l2.887-6.097h13.27l3.031,6.097H163.666z"/>
	<path fill-rule="evenodd" clip-rule="evenodd" d="M198.028,716.384c0,4.986-3.765,9.187-10.045,9.187h-7.391v-18.438h7.391
		C194.263,707.133,198.028,711.288,198.028,716.384 M206.589,716.384c0-9.251-7.1-17.413-18.606-17.413h-15.877v34.8h15.877
		C199.285,733.771,206.589,725.57,206.589,716.384"/>
	<rect x="217.422" y="698.924" width="8.549" height="34.847"/>
	<path fill-rule="evenodd" clip-rule="evenodd" d="M265.561,716.384c0,5.444-4.72,9.814-9.744,9.814
		c-5.168,0-9.781-4.37-9.781-9.814c0-5.531,4.613-9.891,9.781-9.891C260.841,706.493,265.561,710.853,265.561,716.384
		 M274.352,716.384c0-10.252-8.199-18.089-18.534-18.089c-10.336,0-18.643,7.837-18.643,18.089c0,10.227,8.306,18.015,18.643,18.015
		C266.152,734.398,274.352,726.61,274.352,716.384"/>
</g>
</svg>
