<?xml version="1.0" encoding="utf-8"?>
<!-- Generator: Adobe Illustrator 15.0.0, SVG Export Plug-In . SVG Version: 6.00 Build 0)  -->
<!DOCTYPE svg PUBLIC "-//W3C//DTD SVG 1.1//EN" "http://www.w3.org/Graphics/SVG/1.1/DTD/svg11.dtd">
<svg version="1.1" id="Layer_1" xmlns="http://www.w3.org/2000/svg" xmlns:xlink="http://www.w3.org/1999/xlink" x="0px" y="0px"
	 width="595.28px" height="841.89px" viewBox="0 0 595.28 841.89" enable-background="new 0 0 595.28 841.89" xml:space="preserve">
<g>
	<rect x="75.36" y="59.388" fill="#E30613" width="441.043" height="188.523"/>
	<path fill-rule="evenodd" clip-rule="evenodd" fill="#FFFFFF" d="M395.766,206.051h25.735v-35.328h48.79v-24.725h-48.79v-20.126
		h59.852v-24.775h-85.587V206.051z M196.054,153.625c0,16.571-14.208,29.775-29.516,29.775c-15.396,0-29.461-13.204-29.461-29.775
		s14.065-29.788,29.461-29.788C181.846,123.837,196.054,137.053,196.054,153.625 M222.689,153.625
		c0-30.768-24.932-54.524-56.151-54.524c-31.169,0-56.189,23.757-56.189,54.524c0,30.742,25.02,54.562,56.189,54.562
		C197.757,208.187,222.689,184.367,222.689,153.625 M259.906,206.177h25.851v-30.68h19.277l20.252,30.68h32.212l-25.955-36.861
		c12.204-5.326,20.74-16.834,20.74-31.069c0-20.905-15.407-37.149-38.932-37.149h-53.445V206.177z M311.905,150.785h-26.148v-24.863
		h26.148c11.208,0,14.58,5.466,14.58,12.325C326.485,145.257,323.113,150.785,311.905,150.785"/>
	<g>
		<path fill-rule="evenodd" clip-rule="evenodd" d="M98.264,753.415c0,2.425-1.144,4.31-5.02,4.31h-9.001v-8.594h9.001
			C97.12,749.131,98.264,751.104,98.264,753.415 M108.955,776.809l-8.945-12.688c4.303-1.231,7.129-5.831,7.129-10.729
			c0-7.186-5.277-12.839-13.374-12.839H75.36v36.257h8.882v-10.554h6.671l6.972,10.554H108.955z"/>
		<path fill-rule="evenodd" clip-rule="evenodd" d="M142.153,762.812h-6.369l3.159-6.494L142.153,762.812z M159.094,776.809
			l-19.899-38.833l-20.472,38.833h10.283l2.946-6.27h13.813l3.197,6.27H159.094z"/>
		<path fill-rule="evenodd" clip-rule="evenodd" d="M198.179,758.716c0,5.19-3.876,9.562-10.396,9.562h-7.752v-19.184h7.752
			C194.303,749.095,198.179,753.415,198.179,758.716 M207.066,758.716c0-9.621-7.381-18.115-19.284-18.115h-16.589v36.208h16.589
			C199.467,776.809,207.066,768.278,207.066,758.716"/>
		<rect x="221.024" y="740.601" width="8.9" height="36.258"/>
		<path fill-rule="evenodd" clip-rule="evenodd" d="M274.486,758.716c0,5.667-4.925,10.215-10.194,10.215
			c-5.321,0-10.119-4.548-10.119-10.215c0-5.752,4.798-10.287,10.119-10.287C269.562,748.429,274.486,752.964,274.486,758.716
			 M283.632,758.716c0-10.664-8.586-18.818-19.34-18.818s-19.385,8.154-19.385,18.818c0,10.642,8.631,18.796,19.385,18.796
			S283.632,769.357,283.632,758.716"/>
		<polygon points="345.915,749.095 345.915,740.601 317.384,740.601 317.384,749.095 327.202,749.095 327.202,776.809 
			336.109,776.809 336.109,749.095 		"/>
		<rect x="362.31" y="740.601" width="8.895" height="36.258"/>
		<path fill-rule="evenodd" clip-rule="evenodd" d="M413.014,753.415c0,2.425-1.135,4.31-5.011,4.31h-8.996v-8.594h8.996
			C411.879,749.131,413.014,751.104,413.014,753.415 M423.719,776.809l-8.945-12.688c4.284-1.231,7.13-5.831,7.13-10.729
			c0-7.186-5.271-12.839-13.393-12.839h-18.404v36.257h8.9v-10.554h6.671l6.979,10.554H423.719z"/>
		<path fill-rule="evenodd" clip-rule="evenodd" d="M465.184,758.716c0,5.667-4.919,10.215-10.189,10.215
			c-5.339,0-10.139-4.548-10.139-10.215c0-5.752,4.8-10.287,10.139-10.287C460.265,748.429,465.184,752.964,465.184,758.716
			 M474.329,758.716c0-10.664-8.586-18.818-19.335-18.818c-10.747,0-19.34,8.154-19.34,18.818c0,10.642,8.593,18.796,19.34,18.796
			C465.743,777.512,474.329,769.357,474.329,758.716"/>
		<polygon points="516.354,776.809 516.354,768.315 496.962,768.315 496.962,740.552 488.08,740.552 488.08,776.809 		"/>
		<rect x="75.36" y="273.766" fill="#E30613" width="440.993" height="441.055"/>
		<polygon fill="#FFFFFF" points="392.292,429.248 392.292,371.306 199.051,371.306 199.051,429.248 265.537,429.248 
			265.537,617.055 325.808,617.055 325.808,429.248 		"/>
	</g>
</g>
</svg>
