<?xml version="1.0" encoding="UTF-8"?>
<svg width="800" height="167.3" version="1.1" xmlns="http://www.w3.org/2000/svg">
	<defs>
		<linearGradient id="e" x1="202.14" x2="392.79" y1="162.88" y2="162.88" gradientTransform="matrix(1.3512 0 0 1.3512 -.61238 -139.17)" gradientUnits="userSpaceOnUse">
			<stop stop-color="#f8ee7c" offset="0"/>
			<stop stop-color="#ffd817" offset="1"/>
		</linearGradient>
	</defs>
	<g>
		<path d="m559.13 127.68c9.3973 0 17.017 7.6179 17.017 17.017 0 9.3973-7.6206 17.015-17.017 17.015-9.396 0-17.018-7.6165-17.018-17.014 0-9.3987 7.6206-17.017 17.017-17.017m-3.2022-127.67v34.071h36.144v125.98h37.173v-125.75h37.869l-9.0582-34.303zm115.66-0.008107h39.24l25.175 106.36 24.761-106.36h39.235l-44.768 159.82h-39.24z" fill="#fff"/>
		<path d="m273.3 159.02c-1.9429-5.064 1.9132-26.467 6.4448-35.761 5.8056-11.91 20.831-26.579 38.901-37.976 30.616-19.312 34.043-22.829 34.043-34.944 0-5.3639-0.68367-7.3338-3.5359-10.186-8.7688-8.7688-24.345-5.2558-39.263 8.8512l-7.1258 6.7393-30.265-21.901 10.652-10.642c16.902-16.881 30.54-22.498 54.646-22.506 26.85-0.009458 43.668 7.8324 52.09 24.29 3.4615 6.7623 4.1587 9.8428 4.5668 20.162 1.008 25.484-6.5988 36.069-41.767 58.11-15.121 9.478-24.874 17.169-27.137 21.399-1.343 2.5103-0.52692 2.5874 27.09 2.5874h28.473l0.016-25.041 37.41-49.747 37.411-49.746h46.991v97.362l26.395 0.77554 0.76201 31.811h-27.157v27.073h-41.963v-27.073h-64.974v27.073h-20.084c-11.046 0-38.439 0.40128-60.87 0.89174-38.868 0.8539-40.833 0.77823-41.75-1.6052zm187.67-81.183c0-12.285-0.45668-22.301-1.0161-22.262-0.55801 0.04053-8.1675 10.09-16.911 22.334l-15.896 22.263h33.822z" fill="url(#e)"/>
		<path d="m292.67 89.946c0-15.521-0.49316-23.158-3.6953-33.997l-26.852-20.447c2.709-3.9412 7.1432-9.6064 10.347-13.303-13.303-12.566-30.794-21.185-52.72-21.185-22.623 0-51.869 10.066-67.903 36.561-0.11349-0.03378-0.22023-0.06756-0.33777-0.10134-15.026-26.853-43.603-36.706-70.211-36.706-38.677 0-81.297 20.691-81.297 83.265 0 62.08 42.866 83.021 81.297 83.021 26.114 0 54.198-9.6064 69.474-35.476 0.13241 0 0.25671-7e-3 0.38913-7e-3 -0.05 0.0838-0.0946 0.17023-0.14458 0.25401 14.538 25.62 41.882 35.475 69.966 35.475 15.273 0 29.808-1.9726 42.128-6.8988 0-5.172-0.24726-14.043 1.4768-23.895 1.9726-11.579 8.3769-21.68 8.3769-21.68-10.84 9.855-29.562 18.722-48.286 18.722-20.203 0.24727-34.737-9.855-37.202-36.46h105.2v-7.1417zm-211.12 43.357c-24.387 0-33.505-22.171-33.505-48.778 0-28.823 10.347-48.285 33.505-48.285 23.65 0 33.01 21.678 33.01 48.285 0 29.07-10.347 48.78-33.01 48.78m106.43-64.544c3.4507-23.404 16.507-33.258 31.288-33.258 17.984 0 28.084 10.84 30.549 33.258z" fill="#fff"/>
	</g>
</svg>
