<svg xmlns="http://www.w3.org/2000/svg" xmlns:xlink="http://www.w3.org/1999/xlink" width="592.088" height="123.827"><defs><path id="c" d="M-29.8-31.404h653.11v178.72H-29.8z"/><linearGradient gradientTransform="matrix(0 100.005 100.005 0 -14435.502 2992.396)" y2="147.316" x2="-28.799" y1="147.316" x1="-29.799" gradientUnits="userSpaceOnUse" id="b"><stop stop-color="#f8ee7c" offset="0"/><stop stop-color="#ffd817" offset="1"/></linearGradient><path d="M-29.8-31.404h653.11v178.72H-29.8z" id="a"/><clipPath id="d"><use xlink:href="#a" overflow="visible" width="100%" height="100%"/></clipPath><linearGradient xlink:href="#b" id="e" x1="202.136" y1="162.878" x2="392.794" y2="162.878" gradientUnits="userSpaceOnUse" gradientTransform="translate(-.449 -103.001)"/></defs><path d="M413.824 94.654c6.955 0 12.594 5.638 12.594 12.594 0 6.955-5.64 12.593-12.594 12.593s-12.595-5.637-12.595-12.592c0-6.956 5.64-12.594 12.594-12.594M411.453.164V25.38h26.75v93.24h27.512V25.552h28.027L487.038.164zM497.05.158h29.042l18.632 78.72L563.05.163h29.038L558.955 118.44h-29.042z" clip-path="url(#d)" transform="translate(0 -.158)" fill="#fff"/><path d="M202.28 117.69c-1.438-3.748 1.416-19.589 4.77-26.468 4.297-8.815 15.418-19.672 28.792-28.107 22.66-14.294 25.196-16.897 25.196-25.863 0-3.97-.506-5.428-2.617-7.539-6.49-6.49-18.019-3.89-29.06 6.551l-5.274 4.988-11.2-8.105-11.2-8.105 7.884-7.876C222.08 4.672 232.175.514 250.017.508c19.873-.007 32.32 5.797 38.554 17.978 2.562 5.005 3.078 7.285 3.38 14.923.746 18.862-4.884 26.696-30.913 43.01-11.191 7.015-18.41 12.707-20.085 15.838-.994 1.858-.39 1.915 20.05 1.915h21.074l.006-9.267.006-9.267 27.688-36.819 27.689-36.818H372.245v72.061l9.768.287 9.768.287.282 11.772.282 11.772h-20.1v20.038h-31.058V98.18h-48.09v20.038h-14.865c-8.175 0-28.45.297-45.053.66-28.767.632-30.222.576-30.9-1.188zm138.907-60.086c0-9.092-.338-16.506-.752-16.477-.413.03-6.045 7.468-12.516 16.53l-11.765 16.478h25.033z" fill="url(#e)"/><path clip-path="url(#b-5)" d="M216.613 66.576c0-11.487-.365-17.14-2.735-25.162L194.004 26.28c2.005-2.917 5.287-7.11 7.658-9.846-9.846-9.3-22.792-15.68-39.02-15.68-16.744 0-38.39 7.45-50.257 27.06-.084-.025-.163-.05-.25-.075C101.014 7.864 79.863.572 60.17.572 31.544.572 0 15.886 0 62.199c0 45.948 31.726 61.446 60.17 61.446 19.328 0 40.114-7.11 51.42-26.257.098 0 .19-.005.288-.005-.037.062-.07.126-.107.188 10.76 18.962 30.998 26.256 51.784 26.256 11.304 0 22.062-1.46 31.18-5.106 0-3.828-.183-10.393 1.093-17.686 1.46-8.57 6.2-16.046 6.2-16.046-8.023 7.294-21.88 13.857-35.738 13.857-14.953.183-25.71-7.294-27.534-26.985h77.857v-5.286zm-156.26 32.09c-18.05 0-24.798-16.41-24.798-36.102 0-21.333 7.658-35.737 24.798-35.737 17.504 0 24.432 16.045 24.432 35.737 0 21.516-7.658 36.103-24.432 36.103m78.768-47.772c2.554-17.322 12.217-24.615 23.157-24.615 13.31 0 20.786 8.023 22.61 24.615H139.12z" fill="#fff"/></svg>