<?xml version="1.0" encoding="UTF-8"?>
<svg width="800" height="440" version="1.1" xmlns="http://www.w3.org/2000/svg">
	<path d="m8.7732 37.223c82.643-13.348 227.1-32.423 387.25-32.423 161.52 0 310.35 19.073 395.2 32.694l3.9776 0.63856v365.34l-3.9872 0.6304c-84.266 13.344-230.92 32.693-386.96 32.693-161.79 0-310.91-19.347-395.47-32.966l-3.9753-0.64v-365.33z"/>
	<path d="m110.79 185.21 187.82 249.41h232.07l136.85-182.95v-66.466z" fill="#fff"/>
	<g>
		<path d="m455.95 191.04-22.584 243.58h20.491l69.294-243.58z" fill="#ffcd00"/>
		<path d="m305.72 191.04 69.488 243.58h20.491l-22.778-243.58z" fill="#cd007d"/>
		<path d="m222.7 191.04 120.92 243.58h22.897l-69.403-243.58z" fill="#004ba0"/>
		<path d="m532.04 191.04-69.403 243.58h22.813l120.73-243.58z" fill="#f07d00"/>
		<path d="m615.06 191.04-120.83 243.58h27.512l145.79-195.82v-47.763z" fill="#0aa537"/>
		<path d="m382.09 191.04 22.619 243.58h19.741l22.619-243.58z" fill="#e1000f"/>
		<path d="m125.79 191.04 181.35 243.58h27.597l-120.64-243.58z" fill="#0aa537"/>
	</g>
	<path d="m661.44 322.94-10.552 12.494 0.8336 1.944 8.608 28.046c0.6752 2.3136 0.5792 4.7824-0.272 7.0368s-2.4128 4.1696-4.448 5.4592l-3.6112 2.2208-1.3872 0.5552c-8.6992 4.0112-18.192 6.0048-27.768 5.832-7.1056 0.088-14.166-1.136-20.827-3.6096-6.2192-2.3776-11.957-5.8576-16.938-10.275v1.1104c0 2.9472-1.1712 5.7712-3.2544 7.8544s-4.9072 3.2544-7.8528 3.2544h-147.17c-1.5024 0.0496-2.9984-0.2224-4.3872-0.7968s-2.6384-1.44-3.6656-2.536c-8.1776 3.4096-16.966 5.1104-25.826 4.9984-7.1968 0.1152-14.354-1.1088-21.102-3.6096-5.4368-2.0304-10.502-4.9392-14.995-8.608v0.5552c-0.0256 2.6624-0.9856 5.2336-2.7104 7.2624s-4.1072 3.3904-6.7312 3.8448l-3.888 0.5552h-3.3312c-5.8912 0.232-11.77-0.704-17.299-2.7536-5.528-2.048-10.595-5.1712-14.912-9.1872-0.2112 2.8-1.4736 5.4144-3.5344 7.3216-2.0608 1.9056-4.7664 2.96-7.5728 2.9536h-106.08c-1.4224 0.8704-3.0512 1.3504-4.72 1.3872h-5.5536c-6.7616 0-13.459-1.32-19.715-3.8864-6.0478-2.352-11.535-5.9472-16.106-10.552-9.5014-9.4-14.893-22.179-14.995-35.544-1.6e-4 -6.7616 1.3203-13.459 3.8875-19.715 2.4184-6.08 6.111-11.571 10.83-16.106 4.5779-4.5376 9.9406-8.2064 15.828-10.829 6.1984-2.784 12.922-4.2048 19.715-4.1664 8.1376-0.0176 16.152 1.9872 23.325 5.832 7.1648 3.8016 13.344 9.2208 18.05 15.827l0.8336 1.6672c0.9488-1.6816 2.0656-3.2624 3.3312-4.7216 2.1312-2.9232 4.6544-5.5392 7.4976-7.7744 3.9168-3.6144 8.5536-6.3584 13.606-8.0528 5.0912-1.7728 10.437-2.712 15.829-2.7776 10.81-0.1392 21.291 3.7168 29.434 10.83l2.776 2.4992v-0.5552c-0.016-1.4976 0.272-2.984 0.8448-4.368 0.5712-1.384 1.4192-2.6368 2.488-3.6848 1.0288-0.9984 2.2464-1.784 3.5808-2.3072 1.3344-0.5248 2.76-0.7792 4.1936-0.7472h39.709c1.4464-0.0384 2.8832 0.2144 4.2304 0.7424 1.3456 0.528 2.5728 1.32 3.608 2.3296 1.0352 1.008 1.8576 2.2144 2.4192 3.5472s0.8512 2.7632 0.8496 4.2096c3.9584-3.3472 8.3488-6.1488 13.051-8.3296 6.2064-2.76 12.925-4.1792 19.715-4.1664 10.923-0.144 21.579 3.376 30.267 9.9968 2.4032 1.8304 4.6336 3.8752 6.6656 6.1088 1.712-1.8976 3.5696-3.6624 5.5536-5.2752 4.0576-3.5648 8.7744-6.3008 13.883-8.0528 5.0016-1.7536 10.251-2.6912 15.55-2.7776 10.901-0.1824 21.485 3.6752 29.712 10.83 2.6928 2.3104 5.1152 4.9184 7.2192 7.7744 0.8944 0.8976 1.6448 1.928 2.2224 3.0544 0.6736-1.064 1.4144-2.0848 2.2208-3.0544 2.2816-2.792 4.7888-5.3936 7.4976-7.7744 4.0576-3.5648 8.7744-6.3008 13.883-8.0528 5.0016-1.7536 10.253-2.6912 15.55-2.7776 10.902-0.1824 21.485 3.6752 29.712 10.83 2.6928 2.3104 5.1152 4.9184 7.2208 7.7744 0.7392 0.8592 1.3888 1.7888 1.9424 2.7776 1.7024-2.256 3.5584-4.3888 5.5536-6.3872 4.6288-4.4752 9.9808-8.136 15.829-10.829 6.2064-2.76 12.923-4.1792 19.715-4.1664 5.376-0.0288 10.722 0.816 15.827 2.4992 5.1584 1.7696 10.026 4.296 14.44 7.4976l6.9424 6.1088c1.9952 2.4848 3.8496 5.0816 5.5536 7.776 1.44 2.0192 2.144 4.4736 1.992 6.9504-0.1504 2.4768-1.1488 4.8256-2.8256 6.656z"/>
	<path d="m219.09 344.88v28.878h-28.88v-36.931c0.0816-0.8432-0.0128-1.6944-0.2768-2.4992 0-0.832-0.2784-1.3888-0.2784-1.944l-0.832-1.6656c-0.8208-1.6192-2.1024-2.9584-3.6848-3.8496-1.5808-0.8896-3.392-1.2896-5.2016-1.1488-1.3616-0.1216-2.7328 0.0928-3.992 0.6256s-2.368 1.3664-3.2272 2.4288c-1.816 2.0752-2.8176 4.7392-2.8176 7.4976s1.0016 5.4224 2.8176 7.4976c0.9776 0.9904 2.1456 1.7712 3.4352 2.296 1.288 0.5264 2.6704 0.784 4.0608 0.7584h2.2224v28.878h-1.944c-5.3296-0.0192-10.608-1.056-15.55-3.0544-4.624-2.0176-8.8542-4.8384-12.495-8.3296-3.5733-3.528-6.4885-7.6656-8.6082-12.219-1.9957-4.8448-3.033-10.032-3.0544-15.272-8e-3 -5.2432 1.031-10.435 3.0544-15.272 1.8432-4.7984 4.6824-9.152 8.3304-12.773 3.6413-3.4928 7.8723-6.3136 12.496-8.3312 4.8048-2.1264 10.019-3.168 15.272-3.0544 6.296-0.0816 12.51 1.448 18.05 4.4432 5.8016 2.7504 10.709 7.0816 14.162 12.496 1.3024 1.88 2.5072 3.8256 3.6096 5.8304 0.8512 2.0624 1.5024 4.2 1.944 6.3872 0.5648 2.56 0.936 5.1584 1.1104 7.7744 0 2.7776 0.2784 6.3872 0.2784 10.552zm77.75 28.878v-37.208c0.032-3.536-0.2464-7.0672-0.8336-10.552-0.32-2.8432-0.9728-5.64-1.944-8.3312-0.9264-2.36-2.1392-4.5984-3.6096-6.664-1.8016-2.08-3.7504-4.0288-5.8304-5.832-6.1456-5.3536-14.067-8.224-22.214-8.0528-4.064-0.056-8.1056 0.6032-11.941 1.944-3.8576 1.3824-7.4336 3.4512-10.552 6.1088-2.08 1.8032-4.0288 3.752-5.832 5.832-1.4704 2.0656-2.6816 4.304-3.6096 6.664-0.9712 2.6912-1.6224 5.488-1.944 8.3312-0.5856 3.4848-0.8656 7.016-0.832 10.552v37.208h28.878v-37.763c-0.1904-2.7568 0.2864-5.52 1.3888-8.0528 0.4608-0.7472 1.12-1.3504 1.9056-1.7424 0.784-0.3936 1.6624-0.5584 2.5376-0.48 0.832-0.0576 1.664 0.1184 2.4016 0.512 0.736 0.3936 1.3472 0.9856 1.7632 1.7104 1.1024 2.5328 1.5776 5.296 1.3888 8.0528v37.763zm48.594-27.49h-3.6096c-2.776 0-4.72-0.5552-5.5536-1.944-1.3872-2.136-1.9776-4.6928-1.6656-7.2192v-9.9968h10.829v-28.602h-39.709v38.043c-0.1488 5.3264 0.4112 10.648 1.6672 15.827 0.9968 4.0704 2.896 7.8656 5.5536 11.107 6.1088 8.0528 15.272 11.941 27.213 11.941h2.4992l2.776-0.5552zm150.5 27.49v-37.208c0.032-3.536-0.2464-7.0672-0.8336-10.552-0.32-2.8432-0.9728-5.64-1.944-8.3312-0.9168-2.4208-2.2304-4.6736-3.8864-6.664-1.6272-2.1472-3.4896-4.1024-5.5536-5.832-4.6976-3.8512-10.302-6.4352-16.282-7.504-5.9792-1.0704-12.133-0.5888-17.874 1.3952-3.8576 1.3824-7.4336 3.4512-10.552 6.1088-2.08 1.8032-4.0288 3.752-5.832 5.832-1.4704 2.0656-2.6816 4.304-3.6096 6.664-1.0656 2.68-1.8112 5.4768-2.2208 8.3312-0.2784 3.0544-0.5552 6.664-0.5552 10.552v37.208h28.878v-37.763c-0.1904-2.7568 0.2864-5.52 1.3888-8.0528 0.4144-0.7248 1.0256-1.3168 1.7632-1.7104 0.736-0.3936 1.568-0.5696 2.4016-0.512 0.8736-0.0784 1.752 0.0864 2.5376 0.48 0.784 0.392 1.4448 0.9952 1.9056 1.7424 1.1024 2.5328 1.5776 5.296 1.3872 8.0528v37.763zm78.029 0v-37.208c0-3.888-0.2784-7.4976-0.5568-10.552-0.4528-2.8192-1.1024-5.6032-1.9424-8.3312-1.024-2.3696-2.3296-4.6064-3.888-6.664-1.704-2.08-3.56-4.0288-5.5536-5.832-6.2304-5.3952-14.253-8.2672-22.493-8.0528-4.0624-0.056-8.104 0.6032-11.939 1.944-3.7744 1.384-7.2576 3.4544-10.275 6.1088-2.08 1.8032-4.0288 3.752-5.8304 5.832-1.5584 2.0576-2.864 4.2944-3.888 6.664-0.8416 2.728-1.4912 5.512-1.944 8.3312-0.2768 3.0544-0.5552 6.664-0.5552 10.552v37.208h28.878v-37.763c-0.2368-2.7344 0.1424-5.4864 1.1104-8.0528 0.5184-0.6912 1.1888-1.2496 1.96-1.6352s1.6208-0.5872 2.4832-0.5872 1.7136 0.2016 2.4848 0.5872 1.4416 0.944 1.9584 1.6352c0.968 2.5664 1.3488 5.3184 1.1104 8.0528v37.763zm-162.72-31.654 8.3296 26.658-2.4992 1.1104-1.6656 0.832c-7.056 3.216-14.738 4.8288-22.493 4.7216-5.8752 0.0304-11.709-1.0048-17.216-3.0544-4.9184-1.8048-9.4432-4.5392-13.328-8.0528-3.664-3.6192-6.6704-7.848-8.8864-12.496-2.1568-4.8928-3.2-10.205-3.0544-15.55-0.1136-5.2528 0.928-10.467 3.0544-15.272 1.92-4.6784 4.752-8.9264 8.3312-12.496 3.64-3.4928 7.872-6.312 12.496-8.3312 4.7056-2.1296 9.8304-3.1728 14.994-3.0544 4.2464-0.0752 8.4736 0.5824 12.496 1.944 4.0064 1.1696 7.7696 3.0496 11.107 5.5536 1.8736 1.4416 3.6368 3.0192 5.2768 4.7216l4.72 6.3856-26.379 31.379 4.4416-0.5568 3.3328-1.1104c2.488-0.7024 4.8368-1.8304 6.9424-3.3312zm-14.162-12.496c-1.3952-1.2208-2.8816-2.3344-4.4432-3.3328l-3.3328-0.5552c-1.3472-3e-3 -2.68 0.2656-3.9216 0.7904-1.24 0.5248-2.3616 1.2944-3.2976 2.264-0.9904 0.9776-1.7712 2.1472-2.2976 3.4352-0.5248 1.2896-0.7824 2.6704-0.7568 4.0624 0.1152 1.3248 0.3952 2.6304 0.8336 3.888 1.4048 1.5536 2.888 3.0368 4.4416 4.4432zm244.08 12.496 8.0528 26.658-2.2224 1.1104-1.6656 0.832c-7.1552 3.2128-14.926 4.824-22.77 4.7216-5.784 3e-3 -11.52-1.0304-16.939-3.0544-4.9792-1.6752-9.5296-4.424-13.328-8.0528-3.7504-3.544-6.7696-7.7904-8.8864-12.496-2.2432-4.8736-3.3808-10.184-3.3312-15.55 0.0208-5.24 1.0576-10.427 3.0544-15.272 2.1168-4.6368 5.0304-8.8656 8.608-12.496 3.488-3.5488 7.64-6.3792 12.218-8.3312 4.8128-2.0992 10.022-3.1408 15.272-3.0544 4.2432-0.0336 8.464 0.624 12.496 1.944 3.984 1.2256 7.7376 3.1024 11.107 5.5536 1.792 1.4352 3.464 3.0144 4.9984 4.7216 1.8304 1.9936 3.5024 4.1296 4.9984 6.3856l-26.658 31.379 4.72-0.5568 3.3328-1.1104c2.4672-0.7568 4.808-1.88 6.9424-3.3312zm-14.44-12.496c-1.248-1.2768-2.6464-2.3952-4.1648-3.3328l-3.3328-0.5552c-1.3472-3e-3 -2.68 0.2656-3.9216 0.7904-1.24 0.5248-2.3616 1.2944-3.2976 2.264-0.9904 0.9776-1.7712 2.1472-2.296 3.4352-0.5264 1.2896-0.784 2.6704-0.7584 4.0624 0.1168 1.3248 0.3952 2.6304 0.8336 3.888l4.4416 4.4432z" fill="#fff"/>
	<path d="m685.87 238.81c0.0368 2.416-0.4112 4.816-1.32 7.0576-0.9072 2.24-2.256 4.2752-3.9648 5.984-1.7088 1.7104-3.7456 3.0592-5.9856 3.9664s-4.64 1.3568-7.0576 1.3184h-52.482c-5.0976 0.1296-10.198-0.0544-15.272-0.5552-4.5904-0.1792-9.1504-0.8304-13.606-1.944-5.8176-1.5344-11.285-4.1744-16.106-7.7744-1.5216 3.112-3.896 5.728-6.8448 7.5472s-6.352 2.7632-9.816 2.7264h-45.818c-2.4176 0.0384-4.8176-0.4112-7.0576-1.3184s-4.2752-2.256-5.9856-3.9664c-1.7088-1.7088-3.0576-3.744-3.9648-5.984-0.9088-2.2416-1.3568-4.6416-1.3184-7.0576v-9.72l-6.1104 5.832c-6.7808 5.5568-14.246 10.222-22.214 13.885l-8.8848 3.3312-8.8864 2.4992c-3.5552 0.8672-7.1776 1.4256-10.829 1.6656l-11.662 0.8336h-77.752c-5.9344 0.048-11.867-0.2304-17.771-0.8336-5.4288-0.7264-10.746-2.1264-15.827-4.1648-4.8768-1.824-9.4592-4.3504-13.606-7.4976-3.9296-3.392-7.4688-7.2096-10.552-11.384-2.4992-3.576-4.6384-7.3888-6.3872-11.386-3.0544 3.888-6.3872 7.776-9.7184 11.386-8.6352 8.5808-18.81 15.458-29.99 20.27-11.51 4.8752-23.874 7.424-36.376 7.4976-12.698 0.0944-25.275-2.4592-36.931-7.4976-11.181-4.8128-21.355-11.69-29.99-20.27-8.7238-8.4096-15.624-18.523-20.271-29.712-5.0322-11.56-7.5861-24.046-7.4974-36.654-0.023-12.753 2.4288-25.39 7.2197-37.209 4.747-11.135 11.634-21.23 20.271-29.712 8.6347-8.5805 18.809-15.457 29.989-20.271 11.656-5.0386 24.234-7.592 36.933-7.4974 12.926-0.02912 25.72 2.6208 37.573 7.7822 11.853 5.1616 22.507 12.723 31.291 22.207v-8.0528c-0.0368-2.417 0.4112-4.817 1.3184-7.0574 0.9088-2.2405 2.2576-4.2758 3.9664-5.9851s3.744-3.0579 5.9856-3.9656c2.24-0.90784 4.64-1.3562 7.0576-1.3187h46.094c3.1088-0.0021 6.168 0.78688 8.888 2.2928s5.0128 3.6792 6.6624 6.3154c1.6288-2.6546 3.9168-4.8424 6.6416-6.3509 2.7248-1.5083 5.7936-2.2861 8.9088-2.2573h33.598c8.3312 0 15.55 0 21.938 0.55536 5.8576 0.22688 11.698 0.7832 17.494 1.6661 5.4864 0.73872 10.885 2.0414 16.104 3.8875 4.712 1.7307 9.2656 3.8677 13.606 6.3867 7.3664 3.8573 14.032 8.9262 19.717 14.995v-9.1635c-0.0384-2.417 0.4096-4.817 1.3184-7.0574 0.9072-2.2405 2.256-4.2758 3.9648-5.9851 1.7104-1.7093 3.7456-3.0579 5.9856-3.9656 2.24-0.90784 4.64-1.3562 7.0576-1.3187h45.818c3.8256-0.0448 7.5712 1.1093 10.709 3.3005 3.136 2.1912 5.5088 5.3094 6.7856 8.9174 3.752-2.9899 7.9744-5.336 12.494-6.9419 3.5824-1.4789 7.304-2.5952 11.107-3.3323 4.3936-0.89712 8.8496-1.4542 13.33-1.6661h59.701c2.4176-0.03744 4.8176 0.41104 7.0576 1.3187 2.24 0.90784 4.2768 2.2563 5.9856 3.9658 1.7088 1.7093 3.0576 3.7446 3.9648 5.985 0.9088 2.2405 1.3568 4.6405 1.32 7.0576z" fill="#fff"/>
	<path d="m553.42 238.81h-45.818v-144.67h45.818zm61.645 0h-13.883c-3.472-0.2176-6.9136-0.776-10.275-1.6672-2.7424-0.7184-5.3632-1.8416-7.7744-3.3312l-6.9424-4.9984c-4.1424-3.7088-7.4544-8.2512-9.7184-13.33-2.2736-5.5488-3.4064-11.498-3.3328-17.493-0.2832-6.9952 1.6608-13.898 5.5536-19.715 4.448-5.3056 9.928-9.6512 16.106-12.774-13.051-5.5533-19.715-15.272-19.715-29.712-0.0256-6.8003 1.696-13.493 4.9984-19.438 3.0432-5.7766 7.5408-10.658 13.051-14.162 2.088-1.6622 4.4336-2.9752 6.9424-3.8875l8.3296-2.4992 10.552-1.1107h58.59v39.986h-37.765c-4.0528-0.30784-8.1248 0.26032-11.939 1.6661-1.0864 0.58704-1.9808 1.4766-2.5712 2.5608-0.592 1.0843-0.856 2.3168-0.7616 3.5482-0.0288 1.6475 0.4672 3.2616 1.416 4.6091 0.9472 1.3475 2.2992 2.359 3.8608 2.8883 3.4928 0.52144 7.0192 0.79984 10.55 0.83312h37.21v31.101h-35.821c-3.5376-0.1952-7.0864 0.0848-10.552 0.832-1.2304 0.7712-2.2544 1.8336-2.9808 3.0912-0.7264 1.2592-1.1328 2.6768-1.184 4.1296-0.1936 1.28 0.0256 2.5888 0.624 3.736 0.6 1.1488 1.5472 2.0768 2.7088 2.6496 2.2208 1.3888 6.3856 1.944 12.218 1.944h34.987v40.542zm-272.13 0c-5.1024 0.0464-10.203-0.232-15.272-0.8336-13.328-1.3888-37.21-11.662-38.042-47.206v-96.632h46.094v87.748c-0.0784 2.7792 0.0144 5.5616 0.2784 8.3296 0.368 1.8608 1.232 3.5872 2.4992 4.9984 1.2944 1.2272 2.9488 2.0064 4.72 2.2224 2.8384 0.5104 5.7264 0.696 8.608 0.5552h4.4432v40.819zm151.06-91.358c-1.5344-6.0667-3.968-11.87-7.2192-17.216-3.0032-5.4706-6.8448-10.436-11.386-14.717-4.28-4.5408-9.2464-8.3824-14.717-11.385-3.5008-1.8933-7.1184-3.5627-10.83-4.9982-4.2-1.2434-8.464-2.2629-12.773-3.0544l-15.827-1.3885c-5.832-0.55536-12.774-0.55536-20.827-0.55536h-33.598v144.67h45.818v-98.855h6.9408c4.1168-0.0688 8.224 0.39792 12.219 1.3883 5.4576 1.549 10.245 4.8706 13.606 9.4413 3.344 4.7122 5.184 10.328 5.2752 16.105-0.0576 5.1408-1.6 10.155-4.4432 14.44-2.8 4.2912-6.88 7.5952-11.662 9.44-1.8624 0.8112-3.8224 1.3712-5.8304 1.6672l-7.2208 0.5552v45.818l9.1632-0.8336c2.8208-0.1456 5.616-0.6112 8.3312-1.3888l7.2192-1.944c2.4784-0.728 4.8928-1.6576 7.2208-2.776 6.3264-2.7392 12.221-6.3872 17.493-10.83 5.3328-4.4272 9.9264-9.6768 13.606-15.549 3.84-5.744 6.8336-12.01 8.8864-18.605 2.1168-6.5456 3.1488-13.394 3.0544-20.272 6e-3 -6.4672-0.8336-12.909-2.4992-19.159zm-215.76 19.716c0.0528 10.013-1.9312 19.933-5.832 29.155-7.96 18.05-22.438 32.429-40.541 40.264-9.2048 3.9888-19.125 6.0672-29.157 6.1088-10.214-0.0128-20.32-2.0912-29.712-6.1088-9.1568-3.7728-17.466-9.344-24.436-16.382-7.0238-6.768-12.598-14.893-16.383-23.882-3.9296-9.3104-5.9139-19.328-5.8312-29.434-0.0514-10.283 1.9304-20.475 5.8312-29.99 3.8445-9.0379 9.4088-17.243 16.383-24.158 6.931-6.8858 15.136-12.356 24.159-16.105 9.3488-4.1504 19.483-6.2341 29.712-6.1091 9.9792-0.0066 19.861 1.9794 29.064 5.8418 9.2032 3.8622 17.541 9.523 24.528 16.651 6.9504 7.0413 12.509 15.332 16.382 24.436 3.9296 9.409 5.9136 19.516 5.832 29.713zm-46.094-1.112c-0.0128-3.9904-0.7648-7.9458-2.2224-11.662-1.5712-3.4904-3.7312-6.6842-6.3872-9.4411-2.7184-2.7725-5.9168-5.0302-9.44-6.6643-3.6576-1.6765-7.64-2.5296-11.662-2.4992-4.0176 0.0285-7.9872 0.87888-11.664 2.4992-3.5216 1.6341-6.7216 3.8918-9.44 6.6643-2.8112 2.7358-4.992 6.0528-6.3872 9.7189-1.6736 3.7568-2.5264 7.8275-2.4992 11.94-0.0304 4.024 0.8224 8.0048 2.4992 11.664 1.4688 3.6288 3.6384 6.9312 6.3872 9.7184 2.7184 2.7728 5.9184 5.0304 9.44 6.664 3.8208 1.4304 7.8624 2.1824 11.941 2.2224 3.992-0.0128 7.9472-0.7648 11.662-2.2224 3.48-1.568 6.6-3.8368 9.1632-6.664 2.8416-2.712 5.0256-6.0352 6.3872-9.7184 1.6096-3.8672 2.3664-8.0336 2.2224-12.219z"/>
	<path d="m4.0215 33.023c83.647-13.595 229.86-33.023 391.96-33.023 163.48 0 314.12 19.427 400 33.3l4.0256 0.6504v372.11l-4.0368 0.6432c-85.288 13.59-233.72 33.298-391.66 33.298-163.76 0-314.68-19.704-400.28-33.578l-4.0236-0.6512v-372.09zm5.5612 8.7925v355.81c85.961 13.782 234.19 32.805 394.72 32.805 154.77 0 300.47-19.016 386.12-32.539v-355.8c-86.213-13.774-234.18-32.53-394.44-32.53-158.83 0-302.41 18.739-386.39 32.249z" fill="#fff"/>
</svg>
