<svg xmlns="http://www.w3.org/2000/svg" xmlns:xlink="http://www.w3.org/1999/xlink" width="563.449" height="250"><defs><linearGradient id="A" x1="585.623" y1="223.661" x2="376.28" y2="420.782" gradientUnits="userSpaceOnUse"><stop offset="0" stop-color="#fff"/><stop offset="1" stop-color="#aa5c83"/></linearGradient><path id="B" d="M451.514 473.47q-3.306 0-5.52-1.11-2.182-1.15-3.306-2.975-1.09-1.825-1.157-3.887 0-.317.198-.555.23-.278.53-.278h4.166q.463 0 .694.198.23.198.463.516.364.912 1.29 1.666.926.714 2.645.714 1.918 0 2.876-.714.992-.714.992-1.944 0-1.31-1.223-1.983-1.223-.674-4.133-1.428-3.77-.912-5.852-2.777-2.05-1.904-2.05-5.632 0-2.42 1.124-4.323 1.124-1.904 3.174-2.975 2.083-1.07 4.893-1.07 2.28 0 4 .754 1.752.714 2.942 1.904 1.2 1.15 1.785 2.5.628 1.35.66 2.578 0 .317-.198.595-.198.238-.496.238h-4.364q-.727 0-1.09-.674-.198-.873-1.058-1.507-.86-.674-2.182-.674-1.455 0-2.28.635-.793.635-.793 1.864 0 1.23 1.025 1.944 1.058.674 3.77 1.388 3.01.674 4.86 1.706 1.85.992 2.71 2.618.893 1.587.893 4.006 0 2.697-1.29 4.64-1.29 1.944-3.538 3.015-2.248 1.03-5.158 1.03z"/><path id="C" d="M481.99 473.072q-.364 0-.595-.278-.23-.278-.23-.714v-25.782q0-.436.23-.714.23-.278.595-.278h4.43q.364 0 .595.278.264.278.264.714v25.782q0 .436-.264.714-.23.278-.595.278z"/><path id="D" d="M615.814 473.072q-.364 0-.595-.278-.23-.278-.23-.714v-25.782q0-.397.23-.674.23-.317.595-.317h15.44q.364 0 .595.317.23.278.23.674v3.73q0 .436-.23.714-.23.278-.595.278h-10.547v5.355h9.82q.364 0 .595.317.23.278.23.714v3.45q0 .397-.23.714-.23.278-.595.278h-9.82v5.513h10.81q.364 0 .595.278.23.278.23.714v3.73q0 .436-.23.714-.23.278-.595.278z"/></defs><g transform="translate(-355.801 -223.469)"><g fill="#fff"><path d="M403.1 401.904l-8.925-2.043c-19.08-4.363-32.14-15.085-36.578-30.028-2.387-8.04-2.4-105.102-.014-113.134 3.396-11.434 12.04-20.703 24.406-26.172 21.192-9.372 58.613-9.415 79.696-.092 12.533 5.542 20.86 14.27 24.366 25.53 1.683 5.408 1.833 10.08 1.833 57.276 0 47.516-.14 51.84-1.865 57.38-4.437 14.255-16.43 24.095-35.817 29.383-4.896 1.335-11.095 1.83-25.782 2.057-10.635.164-20.23.093-21.32-.157zm401.113-2.4c-1.74-1.74-1.983-3.305-1.983-12.702 0-15.424-1.378-14.502 22.23-14.875l19.418-.307V259.656l-2.23.505c-7.47 1.7-30.864 5.482-33.83 5.482-4.87 0-5.588-1.843-5.588-14.358 0-9.595.197-10.718 2.23-12.737 1.904-1.9 7.305-3.144 36.843-8.55l34.612-6.336 1.83 2.26c1.74 2.15 1.83 5.74 1.83 74.043v71.783h17.63c23.13 0 22.036-.737 22.036 14.86 0 9.38-.317 12.1-1.558 13.33-1.38 1.38-7.877 1.558-56.523 1.558-53.642 0-55.012-.048-56.948-1.983zm-300.6-.648c-1.123-1.353-1.414-15.688-1.665-82.057l.32-84.713c.538-3.7 1.1-4.5 4-5.702 4.023-1.68 27.3-1.966 31.832-.4 2.474.862 6.475 6.992 26.374 40.4l26.4 45.838 2.953 6.446.073-44.717c.073-44.155.1-44.74 2.16-46.606 1.874-1.696 3.75-1.9 18.3-1.9 14.25 0 16.437.215 17.993 1.77 1.672 1.672 1.77 6.457 1.77 85.87 0 69.824-.23 84.38-1.36 85.74-1.24 1.494-6.984 1.64-64.582 1.64-57.6 0-63.342-.146-64.582-1.64zm148.43-.565c-1.367-1.952-1.544-11.684-1.544-85.17 0-80.2.063-83.044 1.896-85.307l1.896-2.34h48.146c44.898 0 48.266.12 49.917 1.77 1.538 1.538 1.77 3.67 1.77 16.194 0 13.133-.172 14.55-1.925 15.83-1.557 1.138-7.385 1.408-30.492 1.408H693.15V293.4h26.168c33.303 0 30.85-1.37 30.85 17.23 0 11.574-.245 13.685-1.77 15.2-1.595 1.597-4.396 1.8-28.5 2.064l-26.74.293v37.6h30.1c27.892 0 30.2.132 31.732 1.813 2.366 2.615 2.436 28.982.083 31.335-1.375 1.375-7.42 1.558-51.508 1.558H653.6zm-294.383 74.78q-.364 0-.595-.278-.23-.278-.23-.714v-25.782q0-.397.23-.674.23-.317.595-.317h3.57q.562 0 .827.357.264.317.33.516l5.82 12.494 5.82-12.494q.066-.198.33-.516.264-.357.827-.357h3.538q.364 0 .595.317.264.278.264.674v25.782q0 .436-.264.714-.23.278-.595.278h-3.934q-.364 0-.628-.278-.23-.278-.23-.714v-14.874l-3.703 8.3q-.165.357-.43.635-.264.278-.727.278h-1.72q-.463 0-.727-.278-.264-.278-.43-.635l-3.736-8.3v14.874q0 .436-.23.714-.23.278-.595.278zm54.6.398q-3 0-5.257-1.15-2.215-1.2-3.438-3.6-1.223-2.42-1.223-6.227V446.3q0-.397.23-.674.23-.317.595-.317h4.265q.364 0 .595.317.264.278.264.674v16.144q0 2.618 1.025 3.887 1.025 1.27 2.9 1.27 1.85 0 2.876-1.27 1.058-1.27 1.058-3.887V446.3q0-.397.23-.674.23-.317.595-.317h4.298q.33 0 .562.317.264.278.264.674v16.183q0 3.808-1.223 6.227-1.223 2.42-3.47 3.6-2.215 1.15-5.158 1.15z"/><use xlink:href="#B"/><use xlink:href="#C"/><path d="M515.737 473.47q-4.695 0-7.373-2.737-2.678-2.737-2.843-8.012-.066-1.626-.066-3.5 0-1.864.066-3.57.165-5.196 2.876-7.973 2.744-2.777 7.34-2.777 2.9 0 5.2 1.15 2.314 1.15 3.67 3.292 1.356 2.142 1.4 5.117.033.357-.198.595-.198.238-.496.238h-4.463q-.463 0-.694-.198-.198-.238-.364-.833-.463-2.102-1.52-2.856-1.025-.793-2.546-.793-1.818 0-2.9 1.23-1.058 1.2-1.124 4.006-.1 3.253 0 6.664.066 2.816 1.124 4.046 1.1 1.2 2.9 1.2 1.52 0 2.58-.793 1.058-.793 1.488-2.856.165-.635.364-.833.23-.198.694-.198h4.463q.298 0 .496.238.23.238.198.595-.033 2.975-1.4 5.117-1.356 2.142-3.67 3.292-2.28 1.15-5.2 1.15zm69.966-.398q-.364 0-.595-.278-.23-.278-.23-.714v-20.546h-5.885q-.364 0-.595-.278-.23-.317-.23-.714v-4.244q0-.397.23-.674.23-.317.595-.317h17.787q.364 0 .595.317.23.278.23.674v4.244q0 .397-.23.714-.23.278-.595.278h-5.885v20.546q0 .436-.23.714-.23.278-.595.278z"/><use xlink:href="#D"/><path d="M653.298 473.072q-.364 0-.595-.278-.23-.278-.23-.714v-25.782q0-.436.23-.714.23-.278.595-.278h4.364q.364 0 .595.278.23.278.23.714v20.784h10.018q.33 0 .562.317.264.278.264.714v3.967q0 .436-.264.714-.23.278-.562.278z"/><use xlink:href="#D" x="73.579"/><path d="M732.53 473.072q-.595 0-.926-.357-.298-.357-.43-.833l-6.745-25.386q-.066-.198-.066-.357 0-.317.198-.555.23-.278.53-.278h4.1q.53 0 .827.357.298.357.364.674l4.695 18.325 4.662-18.325q.066-.317.364-.674.298-.357.827-.357h4.133q.264 0 .463.278.23.238.23.555 0 .16-.066.357l-6.745 25.386q-.132.476-.463.833-.298.357-.893.357z"/><use xlink:href="#C" x="284.023"/><use xlink:href="#B" x="349.37"/><use xlink:href="#C" x="349.37"/><path d="M867.057 473.47q-4.596 0-7.307-2.658-2.7-2.697-2.876-8.13-.1-3.372 0-6.862.1-3.57 1.4-6 1.3-2.42 3.538-3.65 2.28-1.27 5.257-1.27 3 0 5.257 1.27 2.248 1.23 3.538 3.65 1.3 2.42 1.4 6 .1 3.5 0 6.862-.165 5.434-2.876 8.13-2.7 2.658-7.307 2.658zm0-5.712q1.752 0 2.843-1.27 1.1-1.27 1.2-4.046.066-3.292 0-6.505-.1-2.777-1.223-4.046-1.1-1.27-2.8-1.27-1.72 0-2.843 1.27-1.1 1.27-1.2 4.046-.066 3.213 0 6.505.1 2.777 1.2 4.046 1.1 1.27 2.843 1.27zm31.268 5.314q-.364 0-.595-.278-.23-.278-.23-.714v-25.782q0-.397.23-.674.23-.317.595-.317h3.505q.562 0 .793.317.23.278.33.436l8.067 15.23v-14.993q0-.397.23-.674.23-.317.595-.317h3.967q.364 0 .595.317.23.278.23.674v25.743q0 .436-.23.754-.23.278-.595.278h-3.538q-.53 0-.793-.278-.23-.317-.298-.476l-8.067-14.676v14.438q0 .436-.23.714-.23.278-.595.278z"/></g><path d="M529.43 225.076l-27.504 35.147.002 42.25 53.807-50.668c-12.336-20.497-15.582-25.085-17.632-25.8-1.415-.493-4.748-.785-8.673-.928zM487.772 278.3l-94.867 121.226 1.27.323 3.478.796 90.226-84.958.004-2.456-.112-34.932z" fill="url(#A)"/></g></svg>