<?xml version="1.0" encoding="UTF-8"?>
<svg width="399.01" height="450" version="1.1" xmlns="http://www.w3.org/2000/svg">
	<path d="m199.51 26.566c-110.04 2e-6 -199.51 77.302-199.51 172.94 0 95.637 89.471 172.94 199.51 172.94 110.04 0 199.51-77.304 199.51-172.94 0-95.637-89.469-172.94-199.51-172.94zm0 3.4961c108.4 0 196.01 75.988 196.01 169.45 0 93.461-87.609 169.45-196.01 169.45-108.4 0-196.02-75.989-196.02-169.45 4.9e-6 -93.456 87.61-169.45 196.02-169.45z" fill="#fff"/>
	<path d="m198.41 0c-95.827-5.1417e-6 -173.29 89.468-173.29 199.51 0 110.04 77.458 199.51 173.29 199.51 95.827 0 173.29-89.466 173.29-199.51 0-110.04-77.462-199.51-173.29-199.51zm0 3.4961c93.649-1e-7 169.79 87.612 169.79 196.02 0 108.4-76.144 196.01-169.79 196.01-93.649 1e-5 -169.79-87.61-169.79-196.01 2e-6 -108.4 76.14-196.02 169.79-196.02z" fill="#a9a9a9"/>
	<path d="m112.29 99.765c-32.604 0-53.792 23.246-53.792 54.254s21.255 54.332 53.829 54.332c32.576 0 54.1-23.324 54.1-54.332s-21.535-54.254-54.139-54.254zm0 6.8623c29.203 0 45.049 21.432 45.049 47.392 0 25.888-15.794 47.392-45.011 47.392-29.217 1e-5 -44.676-21.504-44.676-47.392s15.435-47.392 44.637-47.392zm184.28 22.531c-23.711 0-38.664 16.239-38.664 39.487s13.74 39.698 39.281 39.655c19.343 0 30.78-10.378 34.312-24.411h-7.9051c-3.5314 10.24-10.767 18.128-26.407 18.128-21.347 0-30.754-14.484-30.912-32.612l65.765-0.0256c0.15853-14.336-3.0193-25.163-12.605-32.909-5.7223-4.6872-13.454-7.3129-22.865-7.3129zm-77.249 0.10304c-14.803 0-24.503 6.1405-30.269 14.189h-0.32189v-12.682h-8.1498v75.601h8.2399v-48.847c0-12.576 13.618-22.081 29.084-22.081 12.107 0 19.827 5.271 19.827 17.703v53.16h8.1627v-53.971c0-15.028-11.77-23.072-26.574-23.072zm77.211 6.0383c19.156 0 26.542 13.306 27.076 28.248h-57.164c1.6864-15.937 11.277-28.222 30.101-28.222z" fill="#a9a9a9"/>
	<path d="m191.4 221.7c-0.62347-0.0106-1.2548-1e-3 -1.8798 0.0256-2.5449-7e-3 -5.086 0.1559-7.6091 0.48926-3.3152 0.49037-3.3088 1.454-3.3088 3.502v58.131c-0.0659 0.53817 0.0336 1.0837 0.29611 1.5579 0.91496 0.90357 2.381 0.90357 3.296 0 0.26249-0.47423 0.37509-1.0197 0.30896-1.5579v-27.154c1.3586 0.15708 2.7267 0.21583 4.0942 0.19315 2.478 0.01 4.948-0.15267 7.403-0.48925 0 0 2.6663 4.0925 5.5491 8.1885l13.943 19.506c0.56004 1.2094 1.7838 1.9703 3.1157 1.9441 2.1476 0 2.2419-1.2708 1.2617-2.6265l-19.969-27.784c9.9023-2.7402 14.226-8.9704 14.226-17.162 0-6.8218-3.0262-11.229-8.0854-13.854-3.97-1.8481-8.279-2.8368-12.643-2.9097zm56.676 0c-0.62405-0.0106-1.2542-2e-3 -1.8798 0.0256-2.5402-6e-3 -5.0779 0.15636-7.5962 0.48926-3.3152 0.49037-3.3088 1.454-3.3088 3.502v58.131c-0.0626 0.53638 0.0323 1.0795 0.28325 1.5579 0.91988 0.90527 2.4018 0.90527 3.3217 0 0.25068-0.47832 0.34587-1.0215 0.28326-1.5579l0.0256-27.154c1.3586 0.1563 2.7267 0.21503 4.0942 0.19315 2.478 0.0113 4.9609-0.15188 7.4159-0.48925 0 0 2.6792 4.0925 5.562 8.1885l13.892 19.506c0.56796 1.2092 1.7936 1.9687 3.1286 1.9441 2.1476 0 2.2274-1.2708 1.2617-2.6265l-19.968-27.784c9.9023-2.7402 14.226-8.9704 14.226-17.162 0-6.8218-3.0262-11.229-8.0854-13.854-3.974-1.8496-8.2877-2.8379-12.656-2.9097zm63.01 0.0389c-1.0785 0.033-1.9911 0.80054-2.2273 1.854l-23.059 59.778c-0.21734 0.45267-0.35894 0.94137-0.39914 1.442 0 0.79323 0.39241 1.2617 1.6609 1.2617 1.2684 0 1.7501-0.6729 2.2402-1.8411l9.2571-24.179h24.218l8.9095 24.153c0.49004 1.3701 1.0012 1.8411 2.356 1.8411 1.3549 0 1.8411-0.56948 1.8411-1.2617-0.0481-0.49914-0.17686-0.98639-0.38622-1.442l-22.157-59.752c-0.24681-1.0529-1.1729-1.8174-2.2531-1.854zm-246.34 0.6695c-0.42604 0.0177-0.85106 0.13104-1.236 0.32187-0.47818 0.3157-0.73176 0.8722-0.6695 1.442-0.05471 0.54872 0.20046 1.0752 0.6695 1.3647 0.51674 0.24304 1.0925 0.33744 1.6609 0.28326h20.754v58.027c-0.06263 0.53639 0.03296 1.0795 0.28325 1.5579 0.40508 0.48826 1.0299 0.73409 1.6609 0.66949 0.63164 0.07 1.259-0.17694 1.6609-0.66949 0.26275-0.47423 0.36216-1.0197 0.29611-1.5579v-58.04h20.767c0.56835 0.0528 1.1309-0.0415 1.648-0.28327 0.47066-0.32208 0.73485-0.87386 0.68238-1.442 0.0489-0.54377-0.21834-1.0647-0.68238-1.3518-0.51371-0.25293-1.0781-0.36393-1.648-0.30896h-45.423c-0.14251-0.0139-0.28286-0.0185-0.42485-0.0133zm89.725 0c-0.142-6e-3 -0.28241-8.6e-4 -0.42485 0.0132h-24.166c-1.4558 0-1.957 0.68782-1.957 1.957v59.135c0 1.2547 0.51563 1.9441 1.957 1.9441h27.475c0.56993 0.0548 1.1471-0.0435 1.6609-0.29612 0.47561-0.31785 0.74104-0.87274 0.68238-1.442 0.0349-0.54502-0.22822-1.0748-0.68238-1.3776-0.51714-0.24173-1.0926-0.33606-1.6609-0.28326h-25.531v-29.354h18.733c0.56842 0.0554 1.1446-0.0389 1.6609-0.28326 0.48115-0.3143 0.75128-0.86981 0.69525-1.442 0.0462-0.5468-0.22565-1.0684-0.69525-1.3518-0.51272-0.25597-1.0908-0.3671-1.6609-0.30897h-18.733v-23.51h22.222c0.56829 0.0528 1.1437-0.0415 1.6609-0.28325 0.47559-0.31787 0.72815-0.87275 0.66949-1.442 0.0489-0.54377-0.20541-1.0648-0.66949-1.3518-0.3853-0.18971-0.81005-0.30369-1.236-0.32188zm34.685 2.6391c9.4555 0 18.63 3.2134 18.63 13.943 0 8.8553-6.4456 14.625-20.961 14.625-1.444 0.0105-2.8893-0.0606-4.326-0.206l-0.0646-27.875c2.2244-0.32512 4.4731-0.48794 6.7209-0.48925zm56.676 0c9.4554 0 18.604 3.2134 18.604 13.943 0 8.8553-6.4198 14.625-20.935 14.625-1.444 0.0105-2.8892-0.0612-4.326-0.206l-0.0773-27.875c2.2291-0.32466 4.481-0.48741 6.7336-0.48925zm65.056 3.0127 10.621 28.672h-21.63z" fill="#fff"/>
	<path d="m175.06 450v-14.609h11.59v14.609h8.516v-32.959h-8.516v12.063h-11.59v-12.063h-8.516v32.959zm37.73 0c2.3377 0 4.5426-0.1586 6.6147-0.47594 2.072-0.31727 3.9885-1.0293 5.7494-2.1361 2.11-1.2986 3.8557-3.1617 5.2372-5.5892 1.3814-2.4275 2.072-5.176 2.072-8.2454 0-3.1875-0.64516-5.9581-1.9354-8.3119-1.2903-2.3538-3.0512-4.2242-5.2826-5.6113-1.8216-1.1362-3.7722-1.852-5.852-2.1471-2.0796-0.29512-4.3111-0.44272-6.6944-0.44272h-10.52v32.959zm-1.9354-6.1758h-0.15939v-20.631h0.15939c1.7609 0 3.2751 0.0297 4.5426 0.0886 1.2676 0.0593 2.4781 0.39842 3.6318 1.0183 1.5939 0.87067 2.7742 2.077 3.5408 3.6191 0.7666 1.5421 1.1499 3.3978 1.1499 5.567s-0.36434 4.0065-1.093 5.5117c-0.72864 1.5052-1.7912 2.6857-3.1878 3.5417-1.184 0.72309-2.4326 1.1179-3.7457 1.1842-1.313 0.0664-2.926 0.0996-4.8387 0.0996z" fill="#a9a9a9"/>
</svg>
