<?xml version="1.0" encoding="UTF-8"?>
<svg width="450" height="450" version="1.1" xmlns="http://www.w3.org/2000/svg">
	<path d="m225 29.96c-124.1 3e-6 -225 87.178-225 195.04 0 107.86 100.9 195.04 225 195.04 124.1 0 225-87.181 225-195.04 0-107.86-100.9-195.04-225-195.04zm0 3.9428c122.25 0 221.05 85.696 221.05 191.1 0 105.4-98.802 191.1-221.05 191.1-122.25 0-221.06-85.698-221.06-191.1 5.6e-6 -105.4 98.803-191.1 221.06-191.1z" fill="#fff"/>
	<path d="m223.76 0c-108.07-5.7986e-6 -195.43 100.9-195.43 225 0 124.1 87.354 225 195.43 225 108.07 0 195.43-100.9 195.43-225 0-124.1-87.359-225-195.43-225zm0 3.9428c105.61-1e-7 191.48 98.806 191.48 221.06 0 122.25-85.872 221.05-191.48 221.05-105.61 1e-5 -191.48-98.803-191.48-221.05 2e-6 -122.25 85.868-221.06 191.48-221.06z" fill="#a9a9a9"/>
	<path d="m126.64 112.51c-36.77 0-60.665 26.216-60.665 61.186 0 34.97 23.971 61.274 60.706 61.274 36.738 0 61.012-26.304 61.012-61.274 0-34.97-24.286-61.186-61.056-61.186zm0 7.739c32.934 0 50.805 24.17 50.805 53.447 0 29.196-17.812 53.447-50.762 53.447-32.95 1e-5 -50.384-24.251-50.384-53.447s17.407-53.447 50.34-53.447zm207.82 25.41c-26.74 0-43.604 18.314-43.604 44.532 0 26.218 15.495 44.77 44.3 44.721 21.814 0 34.713-11.704 38.696-27.53h-8.9151c-3.9826 11.548-12.143 20.444-29.781 20.444-24.074 0-34.683-16.335-34.861-36.779l74.167-0.0289c0.17878-16.168-3.405-28.378-14.215-37.114-6.4534-5.286-15.173-8.2472-25.786-8.2472zm-87.119 0.11621c-16.694 0-27.634 6.925-34.136 16.002h-0.36301v-14.302h-9.191v85.26h9.2926v-55.088c0-14.183 15.358-24.902 32.8-24.902 13.654 0 22.36 5.9444 22.36 19.965v59.952h9.2056v-60.866c0-16.948-13.274-26.02-29.969-26.02zm87.076 6.8098c21.603 0 29.933 15.006 30.535 31.857h-64.467c1.9019-17.973 12.718-31.828 33.947-31.828z" fill="#a9a9a9"/>
	<path d="m215.85 250.03c-0.70312-0.0119-1.4151-1e-3 -2.12 0.0289-2.87-8e-3 -5.7358 0.17582-8.5813 0.55177-3.7388 0.55302-3.7315 1.6398-3.7315 3.9494v65.558c-0.0743 0.60693 0.0379 1.2222 0.33394 1.7569 1.0319 1.019 2.6852 1.019 3.7171 0 0.29602-0.53482 0.42301-1.15 0.34843-1.7569v-30.623c1.5322 0.17715 3.0751 0.24341 4.6173 0.21783 2.7946 0.0113 5.5802-0.17218 8.3488-0.55176 0 0 3.007 4.6154 6.2581 9.2347l15.724 21.998c0.63159 1.3639 2.0117 2.222 3.5138 2.1925 2.422 0 2.5283-1.4332 1.4229-2.9621l-22.52-31.334c11.167-3.0903 16.044-10.116 16.044-19.355 0-7.6934-3.4128-12.664-9.1184-15.624-4.4772-2.0842-9.3368-3.1992-14.258-3.2814zm63.917 0c-0.70378-0.0119-1.4144-2e-3 -2.12 0.0289-2.8647-7e-3 -5.7267 0.17634-8.5667 0.55177-3.7388 0.55302-3.7316 1.6398-3.7316 3.9494v65.558c-0.0706 0.60491 0.0364 1.2174 0.31944 1.7569 1.0374 1.0209 2.7087 1.0209 3.7461 0 0.28271-0.53943 0.39006-1.152 0.31945-1.7569l0.0289-30.623c1.5322 0.17627 3.0751 0.24251 4.6173 0.21783 2.7946 0.0127 5.5947-0.17128 8.3634-0.55176 0 0 3.0215 4.6154 6.2726 9.2347l15.667 21.998c0.64053 1.3637 2.0228 2.2202 3.5283 2.1925 2.422 0 2.512-1.4332 1.4229-2.9621l-22.519-31.334c11.167-3.0903 16.044-10.116 16.044-19.355 0-7.6934-3.4128-12.664-9.1184-15.624-4.4817-2.0859-9.3466-3.2005-14.273-3.2814zm71.06 0.0439c-1.2163 0.0372-2.2455 0.90282-2.5119 2.0909l-26.005 67.415c-0.24511 0.51051-0.4048 1.0616-0.45013 1.6262 0 0.89457 0.44254 1.4229 1.8731 1.4229 1.4304 0 1.9737-0.75887 2.5264-2.0763l10.44-27.268h27.312l10.048 27.239c0.55265 1.5452 1.1291 2.0763 2.657 2.0763 1.528 0 2.0763-0.64224 2.0763-1.4229-0.0542-0.56291-0.19945-1.1124-0.43556-1.6262l-24.988-67.386c-0.27834-1.1874-1.3228-2.0496-2.541-2.0909zm-277.81 0.75504c-0.48047 0.02-0.95979 0.14778-1.3939 0.36299-0.53927 0.35604-0.82525 0.98364-0.75504 1.6262-0.0617 0.61882 0.22607 1.2126 0.75504 1.539 0.58276 0.2741 1.2321 0.38056 1.8731 0.31945h23.406v65.441c-0.07063 0.60492 0.03717 1.2174 0.31944 1.7569 0.45683 0.55064 1.1615 0.82788 1.8731 0.75503 0.71234 0.0789 1.4199-0.19955 1.8731-0.75503 0.29632-0.53482 0.40843-1.15 0.33394-1.7569v-65.455h23.42c0.64097 0.0596 1.2754-0.0468 1.8586-0.31946 0.53079-0.36323 0.82873-0.9855 0.76956-1.6262 0.0551-0.61325-0.24624-1.2007-0.76956-1.5245-0.57935-0.28525-1.2158-0.41043-1.8586-0.34844h-51.226c-0.16072-0.0157-0.319-0.0209-0.47913-0.015zm101.19 0c-0.16014-7e-3 -0.31849-9.7e-4 -0.47913 0.0149h-27.254c-1.6418 0-2.207 0.77569-2.207 2.207v66.69c0 1.415 0.58151 2.1925 2.207 2.1925h30.985c0.64275 0.0618 1.2937-0.0491 1.8731-0.33396 0.53638-0.35845 0.83572-0.98424 0.76956-1.6262 0.0394-0.61465-0.25737-1.2121-0.76956-1.5536-0.58321-0.27261-1.2322-0.37899-1.8731-0.31945h-28.793v-33.104h21.126c0.64104 0.0625 1.2908-0.0439 1.8731-0.31945 0.54262-0.35446 0.84726-0.98094 0.78407-1.6262 0.0521-0.61666-0.25447-1.2049-0.78407-1.5245-0.57823-0.28867-1.2302-0.414-1.8731-0.34844h-21.126v-26.514h25.061c0.6409 0.0596 1.2898-0.0468 1.8731-0.31944 0.53636-0.35848 0.82118-0.98425 0.75503-1.6262 0.0551-0.61325-0.23165-1.2008-0.75503-1.5245-0.43452-0.21395-0.91354-0.34249-1.3939-0.36301zm39.116 2.9763c10.664 0 21.01 3.624 21.01 15.724 0 9.9867-7.2691 16.494-23.639 16.494-1.6285 0.0118-3.2584-0.0683-4.8787-0.23232l-0.0728-31.436c2.5086-0.36666 5.0446-0.55028 7.5796-0.55176zm63.917 0c10.663 0 20.981 3.624 20.981 15.724 0 9.9867-7.24 16.494-23.61 16.494-1.6285 0.0118-3.2583-0.069-4.8787-0.23232l-0.0872-31.436c2.5139-0.36614 5.0535-0.54968 7.5939-0.55176zm73.368 3.3976 11.978 32.335h-24.394z" fill="#fff"/>
	<path d="m197.43 507.49v-16.475h13.071v16.475h9.604v-37.17h-9.604v13.604h-13.071v-13.604h-9.604v37.17zm42.55 0c2.6364 0 5.123-0.17886 7.4598-0.53675 2.3367-0.3578 4.4981-1.1608 6.484-2.409 2.3796-1.4645 4.3483-3.5656 5.9063-6.3033 1.5579-2.7376 2.3367-5.8373 2.3367-9.2988 0-3.5948-0.72758-6.7193-2.1827-9.3739-1.4552-2.6545-3.441-4.7639-5.9575-6.3282-2.0543-1.2814-4.2542-2.0886-6.5997-2.4214-2.3453-0.33283-4.8619-0.49929-7.5497-0.49929h-11.864v37.17zm-2.1827-6.9648h-0.17975v-23.267h0.17975c1.9859 0 3.6935 0.0335 5.123 0.0999 1.4296 0.0669 2.7947 0.44932 4.0958 1.1484 1.7975 0.98191 3.1286 2.3424 3.9932 4.0815s1.2968 3.8319 1.2968 6.2783c0 2.4463-0.41088 4.5184-1.2326 6.2159-0.82173 1.6975-2.02 3.0288-3.5951 3.9942-1.3353 0.81547-2.7434 1.2607-4.2243 1.3355-1.4808 0.0749-3.2998 0.11233-5.4569 0.11233z" display="none" fill="#a9a9a9"/>
</svg>
