<?xml version="1.0" encoding="UTF-8"?>
<svg enable-background="new 0 0 439.9 137" version="1.1" viewBox="0 0 800 242.81" xmlns="http://www.w3.org/2000/svg">
	<linearGradient id="k" x1="-828.89" x2="-827.89" y1="311.94" y2="311.94" gradientTransform="matrix(243.44 668.86 -668.86 243.44 411030 478190)" gradientUnits="userSpaceOnUse">
		<stop stop-color="#f6c617" offset="0"/>
		<stop stop-color="#f6c617" offset=".2349"/>
		<stop stop-color="#f4bd20" offset=".2831"/>
		<stop stop-color="#eea639" offset=".3626"/>
		<stop stop-color="#e38062" offset=".4638"/>
		<stop stop-color="#d54b9b" offset=".5825"/>
		<stop stop-color="#c50ddd" offset=".7054"/>
		<stop stop-color="#c50ddd" offset="1"/>
	</linearGradient>
	<path d="m743.81 107.69v-68.229l-68.229 24.08v16.722l22.074-8.0268v50.837zm-26.755-107.69c-45.485 0-82.943 36.79-82.943 82.943 0 45.485 36.79 82.943 82.943 82.943 45.485 0 82.943-36.79 82.943-82.943-0.6689-46.154-38.127-82.943-82.943-82.943m0 149.83c-37.458 0-68.229-30.769-68.229-68.229 0-37.458 30.769-68.229 68.229-68.229 37.458 0 68.229 30.769 68.229 68.229-0.6689 38.127-30.769 68.229-68.229 68.229m-619.4 92.978c-58.863 0-97.659-26.088-97.659-96.99 0-66.89 46.824-109.03 107.69-109.03 64.215 0 96.99 36.121 96.99 98.328 0 64.884-47.491 107.69-107.02 107.69m5.3512-144.48c-14.047 0-28.094 11.371-28.094 38.796 0 30.769 8.0268 42.81 26.755 42.81 18.73 0 28.094-16.054 28.094-40.802 0.6689-28.094-6.689-40.802-26.755-40.802m229.44 139.13v-123.75c0-10.033-2.6755-16.054-11.371-16.054-15.385 0-31.438 22.743-31.438 44.816v95.653h-71.573v-197.32h66.89c0 4.6824-0.6689 17.391-2.0066 26.088h0.66888c12.04-17.391 32.777-31.438 62.876-31.438 43.479 0 58.193 28.094 58.193 62.207v139.8zm271.57-75.585h-111.04c1.3378 14.047 14.047 24.749 42.81 24.749 18.73 0 38.127-3.3444 58.193-12.04l6.689 53.512c-24.08 9.3645-51.505 14.047-75.585 14.047-66.221 0-103.68-31.438-103.68-100.33 0-60.87 34.783-106.36 97.659-106.36 60.87 0 88.295 40.802 88.295 95.653-1.3378 10.033-2.0066 20.066-3.3444 30.769m-87.626-73.579c-14.047 0-23.411 11.371-24.08 27.425h44.816c0-18.73-8.0268-27.425-20.736-27.425" fill="url(#k)"/>
</svg>
