<?xml version="1.0" encoding="UTF-8"?>
<svg width="800" height="232.92" version="1.1" xmlns="http://www.w3.org/2000/svg">
	<path d="m0 1.66h537.53v229.62h-537.53z" fill="#d8001a"/>
	<path d="m147.3 116.62a35.92 35.92 0 1 1-35.92-36.269 36.779 36.779 0 0 1 35.92 36.269m32.296 0a68.468 68.468 0 1 0-68.203 66.233 66.757 66.757 0 0 0 68.203-66.233m128.04-18.312c0 8.8815-4.037 15.308-17.757 15.308h-31.876v-30.242h31.876c13.719 0 17.757 6.8597 17.757 14.934m37.929 82.73-31.876-44.944a40.881 40.881 0 0 0 25.417-37.78c0-25.43-18.971-45.215-47.211-45.215h-65.381v127.89h31.476v-37.328h23.402l25.023 37.328zm149.21-97.735v-30.268h-104.14v127.89h31.476v-42.941h59.328v-30.1h-59.315v-24.61z" fill="#fff"/>
	<g fill="#aeb0b4">
		<path d="m713.08 0v232.92l-53.405-18.868v-195.02z"/>
		<path d="m800 0v232.92l-53.405-18.868v-195.02z"/>
		<path d="m626.21 0v232.92l-53.405-18.874v-195.01z"/>
	</g>
</svg>
