<?xml version="1.0" encoding="UTF-8"?>
<svg width="800" height="122.89" version="1.1" xmlns="http://www.w3.org/2000/svg">
	<g>
		<path class="b" d="m677.12 0h122.88v122.88h-122.88z" fill="#f69306"/>
		<path class="c" d="m774.07 52.788h-27.287v-27.287h-16.852v27.287h-27.287v16.855h27.287v27.284h16.852v-27.284h27.287z" fill="#fff"/>
		<path class="d" d="m287.01 0.0034293h390.11v122.88h-390.11z" fill="#141312"/>
	</g>
	<g fill="#fff">
		<path class="c" d="m362.01 29.328-3.4945 12.229a52.534 52.534 0 0 0-16.272-2.9424c-8.8236 0-11.859 3.6728-11.859 7.9972 0 9.7426 27.778 6.3443 27.778 25.559 0 15.264-12.047 25.01-29.053 25.01a41.258 41.258 0 0 1-20.689-5.144l3.8614-12.596a35.593 35.593 0 0 0 18.388 5.0583c7.445 0 11.859-3.2167 11.859-8.9161 0-10.202-27.675-6.7078-27.675-25.741 0-12.966 9.2831-24.088 28.227-24.088a50.068 50.068 0 0 1 18.937 3.5836"/>
		<path class="c" d="m393.82 61.43h9.0122c7.9972 0 11.128-2.4828 12.322-11.128a29.149 29.149 0 0 0 0.27435-3.7723c0-5.703-2.8498-7.4485-9.4683-7.4485h-9.0122zm13.885-34.478c16.828 0 24.273 5.6995 24.273 17.929 0 17.832-9.4718 28.12-30.802 28.12h-8.9162l-3.1241 22.894h-15.909l9.6535-68.957z"/>
		<path class="c" d="m491.11 50.658c0-9.5609-3.4945-12.136-11.492-12.136-10.288 0-14.523 4.4135-17.099 22.894a82.149 82.149 0 0 0-0.91906 10.391c0 9.8386 3.5836 12.689 11.584 12.689 10.288 0 14.434-4.6879 17.009-23.076a73.655 73.655 0 0 0 0.91906-10.758m-19.674 46.522c-18.206 0-26.389-7.9972-26.389-25.47a70.178 70.178 0 0 1 0.73731-10.288c3.4945-24.643 13.974-35.583 35.665-35.583 18.206 0 26.3 7.8154 26.3 25.01a74.735 74.735 0 0 1-0.82989 10.573c-3.4945 25.099-13.882 35.764-35.49 35.764"/>
		<path class="c" d="m542.68 58.748h9.3791c6.8038 0 11.217-2.6646 11.217-13.055 0-5.144-2.5754-6.7078-8.275-6.7078h-9.5609zm13.974-31.81c15.432 0 23.169 5.3326 23.169 16.828 0 12.136-5.8813 20.778-14.345 23.169l11.955 28.957h-18.573l-8.364-26.111h-9.3792l-3.5871 26.111h-15.902l9.6535-68.957z"/>
		<path class="c" d="m629.58 39.9-7.8154 55.994h-15.998l7.8154-55.994h-18.388l2.205-12.963h52.126l-1.5638 12.963z"/>
	</g>
	<g fill="#d8001a">
		<path class="e" d="m153.93 43.35h-17.023v16.245h17.023c7.3112 0 9.4957-3.6008 9.4957-8.172 0-4.4581-2.1845-8.0725-9.4957-8.0725"/>
		<path class="e" d="m59.36 42.04a19.407 19.407 0 1 0 19.204 19.407 19.633 19.633 0 0 0-19.204-19.407"/>
		<path class="e" d="m264.21 43.34h-38.926v13.124h31.728v16.118h-31.728v23.045h-16.804v-68.415h55.727zm-101.55 52.338-13.206-19.962h-12.544v19.952h-16.804v-68.456h34.804c15.281 0 25.322 10.573 25.322 24.204a22.003 22.003 0 0 1-13.532 20.281l16.913 23.985zm-103.31 1.3066a35.559 35.559 0 1 1 36.55-35.542 35.72 35.72 0 0 1-36.55 35.535m-59.355 25.898h287.01v-122.87h-287.01z"/>
	</g>
	<g fill="#fff">
		<path class="c" d="m59.356 80.849a19.407 19.407 0 1 1 19.204-19.407 19.626 19.626 0 0 1-19.204 19.407m0-54.952a35.559 35.559 0 1 0 36.56 35.545 35.723 35.723 0 0 0-36.55-35.545"/>
		<path class="c" d="m208.49 95.636h16.804v-23.048h31.735v-16.118h-31.735v-13.124h38.919v-16.118h-55.727z"/>
		<path class="c" d="m153.93 59.591h-17.013v-16.245h17.02c7.3148 0 9.4991 3.6008 9.4991 8.0725 0 4.5782-2.1845 8.172-9.4991 8.172m26.303-8.172c0-13.628-10.038-24.204-25.319-24.204h-34.808v68.466h16.804v-19.955h12.548l13.203 19.955h20.953l-16.913-23.985a21.996 21.996 0 0 0 13.532-20.281"/>
	</g>
</svg>
