<svg xmlns="http://www.w3.org/2000/svg" width="800" height="168.114" ><path d="M620.456 0H800v168.112H620.456z" opacity=".2"/><path d="M651.501 55.757h55.813v111.57h55.757V0h-111.57z" fill="#fff"/><path d="M229.651 0h390.861v167.328H229.651z" fill="#d32824"/><path d="M310.457 35.248c-27.626 0-49.761 21.07-49.761 48.416 0 27.29 22.135 48.416 49.761 48.416s49.761-21.07 49.761-48.416c0-27.29-22.135-48.416-49.761-48.416zm0 74.866c-13.673 0-26.169-11.712-26.169-26.45 0-14.682 12.496-26.45 26.169-26.45 13.505 0 26.169 11.712 26.169 26.45 0 14.682-12.664 26.45-26.169 26.45zm164.582-40.123c0-18.548-13.673-32.95-34.463-32.95h-47.408v93.246h22.863v-27.178h17.091l17.988 27.178h28.523l-23.031-32.67c10.871-4.763 18.436-14.962 18.436-27.626zm-35.808 11.151h-23.199V59.007h23.199c9.975 0 12.945 4.875 12.945 10.983 0 6.276-2.97 11.151-12.945 11.151zm150.18-22.135V37.041h-75.875v93.19H536.4V98.85h43.205V76.883H536.4V59.007z" fill="#fff"/><path d="M176.471 84.048c0 13.646-10.183 24.909-27.156 24.909h-20.092v-49.8h20.092c16.971 0 27.156 11.253 27.156 24.89m23.093 0c0-24.889-19.209-47.08-50.25-47.08h-43.009v94.172h43.009c30.453 0 50.25-22.182 50.25-47.09m-114.996 47.09V36.967H61.474v34.925h-38.38V36.967H0v94.172h23.094V94.105h38.379v37.034zm-61.356 9.858h-9.555v27.116h168.11V131.54c-2.982 1.825-6.142 3.433-9.555 4.719v22.299H23.209zM172.215 32.004c3.414 1.276 6.573 2.854 9.555 4.631V.002H13.66v27.449h9.555V9.558h149.003v22.446z" fill="#e2001a"/></svg>