<svg xmlns="http://www.w3.org/2000/svg" width="800" height="235.803" ><path opacity=".2" d="M548.163 0H800v235.803H548.163z"/><path fill="#fff" d="M748.202 234.702V0H591.708v78.208h78.286v156.494z"/><path d="M0 0h548.241v234.702H0z" fill="#d32824"/><path d="M113.342 49.44c-38.75 0-69.798 29.554-69.798 67.911 0 38.279 31.047 67.911 69.798 67.911s69.798-29.554 69.798-67.911c0-38.279-31.047-67.911-69.798-67.911zm0 105.011c-19.179 0-36.707-16.428-36.707-37.1 0-20.593 17.528-37.1 36.707-37.1 18.943 0 36.707 16.428 36.707 37.1 0 20.593-17.764 37.1-36.707 37.1zm230.851-56.278c0-26.017-19.179-46.217-48.34-46.217h-66.496v130.792h32.069v-38.121H285.4l25.231 38.121h40.008l-32.305-45.824c15.249-6.681 25.86-20.986 25.86-38.75zm-50.226 15.642h-32.541V82.767h32.541c13.991 0 18.157 6.838 18.157 15.406 0 8.803-4.166 15.642-18.157 15.642zm210.65-31.047V51.955H398.192v130.713h32.069v-44.017h60.601V107.84h-60.601V82.767z" fill="#fff"/></svg>