<?xml version="1.0" encoding="UTF-8"?>
<svg width="800" height="235.13" version="1.1" xmlns="http://www.w3.org/2000/svg">
	<g stroke-width="1.4429">
		<path d="m548.32 0.0016076h-548.32v235.13h548.32z" fill="#d8001a"/>
		<path d="m294.26 114.01h-32.558v-31.077h32.538c13.971 0 18.159 6.88 18.159 15.439 0 8.763-4.1874 15.636-18.159 15.636m-64.667 69.064h32.13v-38.187h23.979l25.236 38.187h40.048l-32.3-45.883a42.07 42.07 0 0 0 25.862-38.805c0-26.091-19.184-46.318-48.392-46.318h-66.535zm-46.271-65.516a69.901 69.901 0 1 0-69.868 68.017 68.301 68.301 0 0 0 69.922-68.017m-33.156 0a36.712 36.712 0 1 1-36.712-37.132 37.692 37.692 0 0 1 36.712 37.132m248.38 65.43h32.11v-44.111h60.664v-30.851h-60.664v-25.118h74.397v-30.851h-106.53z" fill="#fff"/>
		<path d="m548.32 235.13h251.68v-235.13h-251.68z" fill="#f50020"/>
		<path d="m724.29 59.161c0-7.5114-6.1036-13.387-13.428-13.387-7.5523 0-13.436 5.8758-13.436 13.387 0 7.1291 5.884 13.233 13.436 13.233 7.3243 0 13.428-6.1036 13.428-13.233m46.941 0c0-7.5114-6.071-13.387-13.2-13.387-7.552 0-13.428 5.8758-13.428 13.387 0 7.1291 5.8758 13.233 13.428 13.233 7.1292 0 13.2-6.1036 13.2-13.233m-7.479 71.942c0 16.57-14.185 29.729-29.403 29.729-15.39 0-29.396-13.16-29.396-29.729 0-16.57 14.006-29.762 29.396-29.762 15.218 0 29.403 13.192 29.403 29.762m26.579 0c0-30.746-24.911-54.494-55.983-54.494-31.087 0-56.006 23.747-56.006 54.494 0 30.737 24.918 54.494 56.006 54.494 31.072 0 55.983-23.755 55.983-54.494m-120.34 0c0-30.746-24.894-54.494-56.038-54.494-31.064 0-55.973 23.747-55.973 54.494 0 30.737 24.911 54.494 55.973 54.494 31.144 0 56.038-23.755 56.038-54.494m-26.588 0c0 16.57-14.217 29.729-29.452 29.729-15.349 0-29.387-13.16-29.387-29.729 0-16.57 14.038-29.762 29.387-29.762 15.235 0 29.452 13.192 29.452 29.762" fill="#fff"/>
	</g>
</svg>
