<?xml version="1.0" encoding="UTF-8"?>
<svg width="800" height="235.13" version="1.1" xmlns="http://www.w3.org/2000/svg">
	<path d="m548.32 0.0024734h-548.32v235.13h548.32z" fill="#d8001a"/>
	<path d="m294.26 114.01h-32.558v-31.077h32.538c13.971 0 18.159 6.88 18.159 15.439 0 8.763-4.1874 15.636-18.159 15.636m-64.667 69.064h32.13v-38.187h23.979l25.236 38.187h40.048l-32.3-45.883a42.07 42.07 0 0 0 25.862-38.805c0-26.091-19.184-46.318-48.392-46.318h-66.535zm-46.271-65.516a69.901 69.901 0 1 0-69.868 68.017 68.301 68.301 0 0 0 69.922-68.017m-33.156 0a36.712 36.712 0 1 1-36.712-37.132 37.692 37.692 0 0 1 36.712 37.132m248.38 65.43h32.11v-44.111h60.664v-30.851h-60.664v-25.118h74.397v-30.851h-106.53z" fill="#fff"/>
	<path d="m548.32 235.13h251.68v-235.13h-251.68z" fill="#312f90"/>
	<path d="m713.9 58.869c0-7.3415-5.9272-13.094-13.102-13.094-7.3256 0-13.071 5.7523-13.071 13.094 0 6.9601 5.7445 12.895 13.071 12.895 7.1745 0 13.102-5.9351 13.102-12.895m45.844 0c0-7.3415-5.967-13.094-12.919-13.094-7.3096 0-13.078 5.7523-13.078 13.094 0 6.9601 5.7683 12.895 13.078 12.895 6.9522 0 12.919-5.9351 12.919-12.895m18.593 70.165c0-30.032-24.265-53.186-54.592-53.186-30.344 0-54.647 23.154-54.647 53.186 0 29.977 24.305 53.14 54.647 53.14 30.328 0 54.592-23.161 54.592-53.14m-25.926 0c0 16.121-13.849 28.992-28.667 28.992-15.04 0-28.72-12.871-28.72-28.992 0-16.137 13.682-29.039 28.72-29.039 14.818 0 28.667 12.903 28.667 29.039m-96.33 56.563v-107.79h-24.982v51.042l-61.124-57.055v108.41h24.965v-51.678l61.139 57.063" fill="#e8b900"/>
</svg>
