<?xml version="1.0" encoding="UTF-8"?>
<svg width="800" height="175.52" version="1.1" xmlns="http://www.w3.org/2000/svg">
	<g>
		<path d="m532.36 114.24h-39.716l23.296-17.669c10.012-7.5052 16.71-16.71 16.71-27.832 0-17.359-14.228-32.211-36.742-32.211-17.049 0-31.587 7.9718-42.065 25.021l22.357 8.6007a20.961 20.961 0 0 1 18.764-12.198 12.489 12.489 0 0 1 13.599 10.474 13.338 13.338 0 0 1-6.3892 10.812l-44.724 35.337v22.047h74.898z" fill="#d8001a"/>
		<path d="m409.56 7.5593h168.09l-0.24574 160.4h-167.84zm175.52-7.5593h-585.08v175.52h585.08z" fill="#d8001a"/>
		<path d="m219.66 85.108h-24.304v-23.198h24.289c10.429 0 13.555 5.1359 13.555 11.525 0 6.5415-3.1258 11.672-13.555 11.672m-48.273 51.556h23.984v-28.506h17.9l18.838 28.506h29.896l-24.112-34.251a31.405 31.405 0 0 0 19.306-28.967c0-19.477-14.321-34.575-36.124-34.575h-49.668zm-34.541-48.907a52.18 52.18 0 1 0-52.156 50.774 50.986 50.986 0 0 0 52.195-50.774m-24.75 0a27.405 27.405 0 1 1-27.405-27.719 28.137 28.137 0 0 1 27.405 27.719m185.41 48.843h23.969v-32.929h45.285v-23.03h-45.285v-18.75h55.537v-23.03h-79.52z" fill="#fff"/>
	</g>
	<g fill="#d8001a">
		<path d="m678.96 137.67v-99.131h-24.311v36.782h-40.408v-36.782h-24.31v99.131h24.31v-38.988h40.408v38.988zm121.04-49.566c0-26.204-20.208-49.566-52.881-49.566h-45.306v99.131h45.306c32.043 0 52.881-23.362 52.881-49.566m-24.31 0c0 14.363-10.735 26.204-28.57 26.204h-21.153v-52.408h21.153c17.835 0 28.57 11.841 28.57 26.204"/>
		<path d="m770.88 10.065v23.623c3.6008 1.3372 6.9245 2.9991 10.064 4.8788v-38.568h-176.95v28.9h10.065v-18.834"/>
		<path d="m603.99 175.52h176.96v-38.487c-3.1477 1.9044-6.4751 3.6009-10.066 4.962v23.46h-156.84v-18.472h-10.066"/>
	</g>
</svg>
