<?xml version="1.0" encoding="UTF-8"?>
<svg width="800" height="235.13" version="1.1" xmlns="http://www.w3.org/2000/svg">
	<path d="m548.32 0.0016076h-548.32v235.13h548.32z" fill="#d8001a"/>
	<path d="m294.26 114.01h-32.558v-31.077h32.538c13.971 0 18.159 6.88 18.159 15.439 0 8.763-4.1874 15.636-18.159 15.636m-64.667 69.064h32.13v-38.187h23.979l25.236 38.187h40.048l-32.3-45.883a42.07 42.07 0 0 0 25.862-38.805c0-26.091-19.184-46.318-48.392-46.318h-66.535zm-46.271-65.516a69.901 69.901 0 1 0-69.868 68.017 68.301 68.301 0 0 0 69.922-68.017m-33.156 0a36.712 36.712 0 1 1-36.712-37.132 37.692 37.692 0 0 1 36.712 37.132m248.38 65.43h32.11v-44.111h60.664v-30.851h-60.664v-25.118h74.397v-30.851h-106.53z" fill="#fff"/>
	<path d="m548.32 235.13h251.68v-235.13h-251.68z" fill="#f50020"/>
	<path d="m743.22 182.98-53.838-72.141 53.398-58.787h-44.527l-42.041 48.574h-16.114v-48.574h-34.993v130.93h34.993v-51.498h22.695l36.812 51.498h43.614" fill="#eda901"/>
</svg>
