<?xml version="1.0" encoding="UTF-8"?>
<svg width="800" height="162.96" version="1.1" xmlns="http://www.w3.org/2000/svg">
	<path d="m380.02 0.0011142h-380.02v162.96h380.02z" fill="#d8001a"/>
	<path d="m203.94 79.018h-22.565v-21.538h22.551c9.6826 0 12.585 4.7683 12.585 10.7 0 6.0733-2.9021 10.837-12.585 10.837m-44.818 47.866h22.268v-26.466h16.619l17.49 26.466h27.756l-22.386-31.8a29.157 29.157 0 0 0 17.924-26.894c0-18.083-13.296-32.101-33.539-32.101h-46.113zm-32.069-45.407a48.446 48.446 0 1 0-48.423 47.14 47.337 47.337 0 0 0 48.46-47.14m-22.979 0a25.444 25.444 0 1 1-25.444-25.735 26.123 26.123 0 0 1 25.444 25.735m172.14 45.347h22.254v-30.572h42.044v-21.382h-42.044v-17.408h51.562v-21.382h-73.829z" fill="#fff"/>
	<g fill="#d8001a">
		<path d="m687.62 127.82v-92.036h-22.571v34.15h-37.516v-34.15h-22.57v92.036h22.57v-36.198h37.516v36.198zm112.38-46.019c0-24.329-18.762-46.019-49.096-46.019h-42.064v92.036h42.064c29.75 0 49.096-21.69 49.096-46.019m-22.57 0c0 13.335-9.9667 24.329-26.525 24.329h-19.639v-48.657h19.639c16.559 0 26.525 10.994 26.525 24.329"/>
		<path d="m772.96 9.3458v21.932c3.3431 1.2415 6.4289 2.7845 9.3438 4.5296v-35.808h-164.29v26.832h9.3447v-17.486"/>
		<path d="m618.02 162.96h164.3v-35.733c-2.9224 1.7681-6.0117 3.3432-9.3456 4.6069v21.781h-145.62v-17.15h-9.3456"/>
	</g>
	<path d="m380.02 162.96h174.43v-162.96h-174.43z" fill="#f50020"/>
	<path d="m508.91 96.234c0-40.138-55.727-20.638-55.727-35.5 0-5.3852 4.6187-8.627 14.71-8.627 8.7736 0 15.608 2.9685 23.626 10.839l16.508-14.564c-8.4855-11.454-21.986-16.658-39.244-16.658-20.638 0-39.234 11.313-39.234 29.436 0 39.371 55.742 21.409 55.742 36.271 0 6.3764-5.6586 9.5011-17.235 9.5011-10.546 0-21.253-5.9467-25.276-13.368l-17.215 15.462c11.288 13.509 26.155 19.603 41.739 19.603 20.794 0 41.608-11.591 41.608-32.394" fill="#fff"/>
</svg>
