<?xml version="1.0" encoding="UTF-8"?>
<svg width="800" height="162.96" version="1.1" xmlns="http://www.w3.org/2000/svg">
	<path d="m380.02 0.0017142h-380.02v162.96h380.02z" fill="#d8001a"/>
	<path d="m203.94 79.019h-22.565v-21.538h22.551c9.6826 0 12.585 4.7683 12.585 10.7 0 6.0733-2.9021 10.837-12.585 10.837m-44.818 47.866h22.268v-26.466h16.619l17.49 26.466h27.756l-22.386-31.8a29.157 29.157 0 0 0 17.924-26.894c0-18.083-13.296-32.101-33.539-32.101h-46.113zm-32.069-45.407a48.446 48.446 0 1 0-48.423 47.14 47.337 47.337 0 0 0 48.46-47.14m-22.979 0a25.444 25.444 0 1 1-25.444-25.735 26.123 26.123 0 0 1 25.444 25.735m172.14 45.347h22.254v-30.572h42.044v-21.382h-42.044v-17.408h51.562v-21.382h-73.829z" fill="#fff"/>
	<g fill="#d8001a">
		<path d="m687.62 127.82v-92.036h-22.571v34.15h-37.516v-34.15h-22.57v92.036h22.57v-36.198h37.516v36.198zm112.38-46.019c0-24.329-18.762-46.019-49.096-46.019h-42.064v92.036h42.064c29.75 0 49.096-21.69 49.096-46.019m-22.57 0c0 13.335-9.9667 24.329-26.525 24.329h-19.639v-48.657h19.639c16.559 0 26.525 10.994 26.525 24.329"/>
		<path d="m772.96 9.3464v21.932c3.3431 1.2415 6.4289 2.7845 9.3438 4.5296v-35.808h-164.29v26.832h9.3447v-17.486"/>
		<path d="m618.02 162.96h164.3v-35.733c-2.9224 1.7681-6.0117 3.3432-9.3456 4.6069v21.781h-145.62v-17.15h-9.3456"/>
	</g>
	<path d="m380.02 162.96h174.43v-162.96h-174.43z" fill="#312f90"/>
	<path d="m494.78 40.8c0-5.0881-4.1079-9.075-9.0805-9.075-5.0771 0-9.0587 3.9867-9.0587 9.075 0 4.8238 3.9813 8.9372 9.0587 8.9372 4.9724 0 9.0805-4.1134 9.0805-8.9372m31.773 0c0-5.0881-4.1355-9.075-8.9538-9.075-5.066 0-9.0642 3.9867-9.0642 9.075 0 4.8238 3.9978 8.9372 9.0642 8.9372 4.8183 0 8.9538-4.1134 8.9538-8.9372m12.886 48.629c0-20.814-16.817-36.861-37.836-36.861-21.03 0-37.874 16.047-37.874 36.861 0 20.776 16.845 36.829 37.874 36.829 21.019 0 37.836-16.052 37.836-36.829m-17.968 0c0 11.173-9.5983 20.093-19.868 20.093-10.424 0-19.905-8.9207-19.905-20.093 0-11.184 9.4824-20.126 19.905-20.126 10.27 0 19.868 8.9428 19.868 20.126m-66.763 39.202v-74.703h-17.314v35.375l-42.363-39.543v75.137h17.302v-35.816l42.373 39.548" fill="#e8b900"/>
</svg>
