<?xml version="1.0" encoding="UTF-8"?>
<svg width="800" height="235.13" version="1.1" xmlns="http://www.w3.org/2000/svg">
	<path d="m548.32 0.0016076h-548.32v235.13h548.32z" fill="#d8001a"/>
	<path d="m294.26 114.01h-32.558v-31.077h32.538c13.971 0 18.159 6.88 18.159 15.439 0 8.763-4.1874 15.636-18.159 15.636m-64.667 69.064h32.13v-38.187h23.979l25.236 38.187h40.048l-32.3-45.883a42.07 42.07 0 0 0 25.862-38.805c0-26.091-19.184-46.318-48.392-46.318h-66.535zm-46.271-65.516a69.901 69.901 0 1 0-69.868 68.017 68.301 68.301 0 0 0 69.922-68.017m-33.156 0a36.712 36.712 0 1 1-36.712-37.132 37.692 37.692 0 0 1 36.712 37.132m248.38 65.43h32.11v-44.111h60.664v-30.851h-60.664v-25.118h74.397v-30.851h-106.53z" fill="#fff"/>
	<path d="m548.32 235.13h251.68v-235.13h-251.68z" fill="#00683f"/>
	<path d="m703.85 109.15v-31.934h11.014v-22.212l33.071-9.2243v31.436h15.522v31.934h-15.522v28.759c0 8.2089 1.6545 9.8988 4.6512 11.624l16.29 9.2882-15.033 26.778c-20.23-9.6504-38.978-17.107-38.978-44.148v-32.303zm-4.7152 29.364c0-57.647-80.007-29.668-80.007-50.985 0-7.7048 6.6254-12.384 21.154-12.384 12.541 0 22.362 4.2536 33.858 15.544l23.716-20.877c-12.157-16.439-31.586-23.895-56.325-23.895-29.683 0-56.333 16.205-56.333 42.23 0 56.553 80.023 30.74 80.023 52.052 0 9.1888-8.1094 13.655-24.748 13.655-15.182 0-30.499-8.5072-36.287-19.158l-24.741 22.177c16.205 19.394 37.572 28.156 59.94 28.156 29.882 0 59.749-16.659 59.749-46.511" fill="#fff"/>
</svg>
