<?xml version="1.0" encoding="UTF-8"?>
<svg width="800" height="162.96" version="1.1" xmlns="http://www.w3.org/2000/svg">
	<path d="m380.02 0.0011142h-380.02v162.96h380.02z" fill="#d8001a"/>
	<path d="m203.94 79.018h-22.565v-21.538h22.551c9.6826 0 12.585 4.7683 12.585 10.7 0 6.0733-2.9021 10.837-12.585 10.837m-44.818 47.866h22.268v-26.466h16.619l17.49 26.466h27.756l-22.386-31.8a29.157 29.157 0 0 0 17.924-26.894c0-18.083-13.296-32.101-33.539-32.101h-46.113zm-32.069-45.407a48.446 48.446 0 1 0-48.423 47.14 47.337 47.337 0 0 0 48.46-47.14m-22.979 0a25.444 25.444 0 1 1-25.444-25.735 26.123 26.123 0 0 1 25.444 25.735m172.14 45.347h22.254v-30.572h42.044v-21.382h-42.044v-17.408h51.562v-21.382h-73.829z" fill="#fff"/>
	<g fill="#d8001a">
		<path d="m687.62 127.82v-92.036h-22.571v34.15h-37.516v-34.15h-22.57v92.036h22.57v-36.198h37.516v36.198zm112.38-46.019c0-24.329-18.762-46.019-49.096-46.019h-42.064v92.036h42.064c29.75 0 49.096-21.69 49.096-46.019m-22.57 0c0 13.335-9.9667 24.329-26.525 24.329h-19.639v-48.657h19.639c16.559 0 26.525 10.994 26.525 24.329"/>
		<path d="m772.96 9.3458v21.932c3.3431 1.2415 6.4289 2.7845 9.3438 4.5296v-35.808h-164.29v26.832h9.3447v-17.486"/>
		<path d="m618.02 162.96h164.3v-35.733c-2.9224 1.7681-6.0117 3.3432-9.3456 4.6069v21.781h-145.62v-17.15h-9.3456"/>
	</g>
	<path d="m380.02 162.96h174.43v-162.96h-174.43z" fill="#00683f"/>
	<path d="m487.81 75.645v-22.132h7.6332v-15.394l22.92-6.393v21.787h10.758v22.132h-10.758v19.932c0 5.6893 1.1467 6.8605 3.2236 8.0565l11.29 6.4373-10.419 18.559c-14.021-6.6883-27.014-11.856-27.014-30.597v-22.388zm-3.2679 20.351c0-39.953-55.45-20.562-55.45-35.336 0-5.3399 4.5918-8.5831 14.661-8.5831 8.6914 0 15.498 2.948 23.466 10.773l16.437-14.469c-8.4256-11.393-21.891-16.561-39.037-16.561-20.572 0-39.042 11.231-39.042 29.268 0 39.195 55.461 21.305 55.461 36.075 0 6.3684-5.6203 9.4639-17.152 9.4639-10.522 0-21.138-5.896-25.149-13.278l-17.147 15.37c11.231 13.441 26.04 19.514 41.542 19.514 20.71 0 41.41-11.546 41.41-32.235" fill="#fff"/>
</svg>
