<?xml version="1.0" encoding="UTF-8"?>
<svg width="591.82" height="450" version="1.1" xmlns="http://www.w3.org/2000/svg">
	<defs>
		<linearGradient id="a" x1="111.98" x2="365.62" y1="599.13" y2="120.52" gradientTransform="matrix(.87549 0 0 .87549 -.0087549 0)" gradientUnits="userSpaceOnUse">
			<stop stop-color="#008cd1" offset="0"/>
			<stop stop-color="#005ca9" offset="1"/>
		</linearGradient>
		<linearGradient id="b" x1="530.64" x2="473.64" y1="531.49" y2="107.96" gradientTransform="matrix(.87549 0 0 .87549 -.0087549 0)" gradientUnits="userSpaceOnUse">
			<stop stop-color="#fd0" offset="0"/>
			<stop stop-color="#f9b111" offset="1"/>
		</linearGradient>
	</defs>
	<path d="m347.05 222.48 67.598-127.96 177.16 354.59-46.566 0.69952c-75.14 0.8825-89.756-11.388-102.03-37.221l-20.179-40.395c-3.9607-8.487-5.6653-12.177-7.9267-13.988-4.6646-3.7366-7.8646 4.5342-7.8646 4.5342l-49.781 87.26h-126.98l51.285-100.66c6.5329-13.997 16.854-27.058 46.627-27.058l58.772-0.71528c11.159 0.25127 4.163-11.409 4.163-11.409z" fill="url(#b)"/>
	<path d="m389.29 74.492c-40.838-45.702-100.19-74.492-166.28-74.492-123.16 0-223.01 99.894-223.01 223.11 0 115.64 87.935 210.71 200.55 221.98l51.929-101.96c-9.4457 2.313-19.309 3.5668-29.469 3.5668-68.225 0-123.53-55.333-123.53-123.58 0-68.256 55.306-123.58 123.53-123.58 51.703 0 95.963 31.79 114.37 76.887zm-90.832 103.97-38.446 75.106-25.552-68.221c-1.5522-4.142-5.5077-6.8849-9.9272-6.8849h-92.662v21.214h34.539v92.216h21.203v-92.216h29.571l31.396 83.822c1.4735 3.9327 5.1278 6.6257 9.3205 6.8674 0.20487 0.0114 0.40886 0.0184 0.6111 0.0184 3.9581 0 7.615-2.2185 9.4326-5.7739l54.336-106.14z" fill="url(#a)"/>
</svg>
