<svg xmlns="http://www.w3.org/2000/svg" width="450" height="341.014" viewBox="0 0 119.063 90.227"><defs><linearGradient id="A" x1="52.346" y1="66.884" x2="92.777" y2="90.227" gradientUnits="userSpaceOnUse"><stop offset="0" stop-color="#f9b111"/><stop offset="1" stop-color="#fd0"/></linearGradient><linearGradient id="B" x1="-34.455" y1="90.227" x2="-34.455" y2="58.488" gradientUnits="userSpaceOnUse"><stop offset="0" stop-color="#08c"/><stop offset="1" stop-color="#005ca9"/></linearGradient></defs><path d="M83.342 19.078L70.009 44.877l9.041 18.008L89.973 84.64c2.156 4.294 8.127 5.587 14.319 5.587h14.771zM79.05 62.885c.553 1.101-.11 1.765-.75 1.765H66.25c-6.461 0-7.57 2.147-8.934 4.786L46.57 90.227h26.285l9.396-18.18c.393-.761 1.015-.761 1.397 0z" fill="url(#A)"/><path d="M45.115 0a45.114 45.114 0 0 0-5.187 89.892l10.378-20.08a25.275 25.275 0 0 1-5.191.577 25.275 25.275 0 0 1 0-50.551 25.275 25.275 0 0 1 23.147 15.233l10.394-20.11A45.114 45.114 0 0 0 45.115 0zM26.107 36.065v4.345h7.332v18.078h4.345V40.41h6.04l5.971 16.044c1.047 2.812 3.283 2.611 4.632 0l10.537-20.388h-4.968l-7.649 14.799-4.486-12.053c-1.022-2.746-1.022-2.747-2.746-2.747z" fill="url(#B)"/></svg>