<svg xmlns="http://www.w3.org/2000/svg" width="500" height="269.522" ><defs><linearGradient id="A" x1="243.811" y1="4.356" x2="243.811" y2="266.209" gradientUnits="userSpaceOnUse"><stop offset="0" stop-color="#22b0ff"/><stop offset="1" stop-color="#000a97"/></linearGradient></defs><path d="M377.468 134.76a134.761 134.761 0 1 1-269.522 0 134.761 134.761 0 1 1 269.522 0z" fill="url(#A)"/><g fill="#fff"><path d="M410.3 84.795l-25.274 6.2-2.832 12.32-8.322.006-3.606 17.573h8.156l-5.54 27.952c-.55 3.835-.54 8.95.02 10.828 1.662 5.6 6.2 9.156 13.352 10.452 2.427.44 10.646.527 13.838.147 2.06-.28 4.1-.702 6.102-1.264l3.186-17.952-4.036-.267c-4.2-.267-5.356-.36-6.425-1.825-.677-.928-.86-3.365-.445-6.055.474-3.104 4.93-22.016 4.93-22.016h13.95l3.656-17.58h-14.15zm13.217 18.5L435.265 169h25.5L500 103.305h-27.633l-19.197 42.352-4.033-42.352zm-75.955 38.442c-1.52.06-3.043.337-4.516.822-8.083 2.664-12.926 10.88-10.84 18.4l.094.326c2.277 7.447 10.623 11.237 18.68 8.482s12.797-11.017 10.615-18.495c-1.73-5.932-7.4-9.787-14.033-9.527zM9.535 150.725c4.86-23.92 5.996-30.1 7.422-40.33l1.003-7.1H39.8l-.392 3.638c-.6 5.4-.7 5.193 1.26 3.24 3.352-3.352 7.868-5.92 12.807-7.28 2.446-.674 3.02-.73 7.303-.715 4.262.016 4.84.075 6.983.73 6.413 1.96 10.618 5.597 13.446 11.634 3.437 7.34 3.528 17.516.248 27.698-1.07 3.318-3.866 8.812-6.008 11.8-6.143 8.57-15.58 14.287-26.162 15.842-6.008.88-13.2.207-17.366-1.63l-1.377-.605-.232 1.104-1.543 7.698-3.5 20.498H0l9.532-46.23zm36.635 1.58c2.355-1.1 4.114-2.57 5.895-4.898 3.685-4.826 6.05-11.866 6.05-18.015 0-4.133-1.348-6.946-3.982-8.325-1.348-.706-1.637-.756-3.738-.66-3.104.14-4.76.953-7.444 3.656-1.624 1.64-2.286 2.568-3.38 4.757-1.907 3.804-2.55 6.096-4.014 14.258-1.424 7.946-1.45 7.463.46 8.645 2.872 1.775 7.103 2.016 10.154.58zm69.558 17.66c-4.898-.555-10.182-2.117-13.54-4.004-8.485-4.766-12.825-13.587-12.386-25.17.392-10.317 4.428-19.646 11.602-26.808 7.818-7.802 18.36-11.96 30.33-11.954 6.06 0 10.712.978 15.196 3.186 5.607 2.763 9.138 6.892 10.67 12.477.354 1.298.467 2.643.448 5.44-.02 3.27-.107 3.976-.724 5.864-1.148 3.487-3.308 6.46-6.384 8.77-6.297 4.735-17.153 7.23-31.938 7.353-6.617.053-6.344-.044-5.384 1.94.718 1.48 2.32 2.897 4.334 3.835 2.822 1.317 4.468 1.63 9.238 1.77 6.82.2 12.076-.57 17.96-2.634 1.656-.583 3.042-1.02 3.08-.97l1.06 16.13c-.956.878-8.77 3.155-13.647 3.98-6.03 1.016-14.832 1.367-19.912.793zm6.582-41.392c5.193-.314 7.86-.815 10.066-1.88 1.907-.916 2.75-1.938 2.93-3.537.157-1.373-.376-2.52-1.6-3.42-1.308-.972-2.433-1.245-5.102-1.245-3.998 0-7.378 1.34-9.956 3.945-1.515 1.53-2.995 4.004-3.324 5.544l-.18.865 1.414-.003c.778 0 3.362-.122 5.738-.267zm56.86 41.305c-10.097-2.1-16.4-10.097-16.908-21.43-.52-11.74 3.782-23.478 11.6-31.646 6.726-7.027 14.87-11.323 25.488-13.45 9.467-1.894 20.445-1.756 31.5.395 4.67.9 7.526 1.725 7.526 2.145 0 .198-1.6 8.106-3.575 17.576l-4.102 20.4a172.49 172.49 0 0 0-2.045 20.627l-.182 4.516h-22.22c.022-1.98.18-3.888.288-5.503.157-2.34.248-4.672.198-5.183l-.088-.925-1.32 1.856c-3.56 5.002-8.855 8.717-14.613 10.248-2.712.72-8.95.93-11.555.386zm19.423-18.774c3.396-1.8 6.375-6.272 8.304-12.44.844-2.697 4.274-19.072 4.045-19.3-.05-.047-1.214-.16-2.584-.248-3.23-.207-5.136.16-7.94 1.53-1.88.916-2.678 1.524-4.78 3.653-3.57 3.612-5.767 7.573-7.212 12.985-.75 2.813-.822 7.84-.14 9.8 1.646 4.72 5.895 6.38 10.307 4.03zm40.185 17.23l7.723-37.887c1.725-10.14 3.543-27.143 3.543-27.143h21.038l-.793 12.8c.066.42.5-.025 1.812-1.903 2.273-3.23 5.3-6.22 8.285-8.184 4.403-2.904 8.504-4.06 13.9-3.935l3.214.078-2.076 9.558-2.36 10.913-.285 1.36-3.772.15c-4.196.17-6 .564-8.818 1.922-3.612 1.747-6.372 4.597-8.6 8.884-2.157 4.146-2.8 6.573-6.422 24.5l-1.935 9.56h-24.616l.157-.665zm73.518-93.92h24.53L317.275 169h-24.528z"/><path d="M352.433 56.525l-13.353-11.13-1.86 17.23-1.56-17.26-13.5 10.867 11.1-13.308-17.23-1.86 17.26-1.56-10.975-13.477c4.332 2.932 12.406 10.072 13.416 11.078l1.86-17.23 1.56 17.26 13.5-10.867-11.1 13.308 17.23 1.86-17.26 1.56c4.23 4.463 10.183 12.33 10.912 13.528z" opacity="1"/></g></svg>