<?xml version="1.0" encoding="UTF-8"?>
<!-- Created with Inkscape (http://www.inkscape.org/) -->
<svg width="800" height="174.72" version="1.1" viewBox="0 0 800 174.72" xml:space="preserve" xmlns="http://www.w3.org/2000/svg" xmlns:xlink="http://www.w3.org/1999/xlink"><defs><linearGradient id="linearGradient9376"><stop stop-color="#c16d53" offset="0"/><stop stop-color="#843c25" offset="1"/></linearGradient><linearGradient id="linearGradient9378" x1="12.107" x2="11.235" y1="220.73" y2="208.26" gradientUnits="userSpaceOnUse" spreadMethod="reflect" xlink:href="#linearGradient9376"/></defs><g transform="matrix(3.4295 0 0 3.4295 -40.073 -561.58)" fill="url(#linearGradient9378)"><g transform="scale(.99031 1.0098)" aria-label="PENTHOUSE"><path d="m11.799 163.01v31.211h4.1905v-13.102h9c2.4286 0 4.3809-0.42114 5.8571-1.2166 2.7143-1.4974 4.2381-4.3985 4.2381-7.9547 0-5.6619-3.7143-8.9374-10.143-8.9374zm12.333 14.506h-8.0476v-10.903h8.0476c1.9048 0 3.0476 0.18717 4.1428 0.74868 1.5714 0.88906 2.5714 2.6204 2.5714 4.6324 0 1.7313-0.71428 3.2755-2 4.3517-1 0.79547-2.5714 1.1698-4.7143 1.1698z" stroke-width=".70806"/><path d="m36.21 163.01v31.211h23.378v-3.7902h-19.141v-10.622h17.427v-3.603h-17.427v-9.5924h18.855v-3.603z" stroke-width=".70802"/><path d="m60.613 163.01v31.211h4.185v-25.549l15.551 25.549h5.374v-31.211h-4.185v25.549l-15.551-25.549z" stroke-width=".7076"/><path d="m101.69 194.22v-27.608h10.697v-3.603h-25.625v3.603h10.697v27.608z" stroke-width=".70749"/><path d="m113.43 163.01v31.211h4.1854v-14.646h16.599v14.646h4.1854v-31.211h-4.1854v12.868h-16.599v-12.868z" stroke-width=".70763"/><path d="m154.84 162.16c-9.5315 0-15.222 6.1766-15.222 16.471 0 10.154 5.7379 16.377 15.08 16.377 5.3585 0 9.4367-1.7781 12.187-5.3343 2.0391-2.8076 3.2246-6.6445 3.2246-11.09 0-10.248-5.7379-16.424-15.269-16.424zm-0.0476 3.603c6.876 0 10.907 4.6792 10.907 12.774 0 2.9947-0.66389 5.8023-1.802 8.0015-1.7071 3.1351-5.0266 4.8664-9.0573 4.8664-3.4617 0-6.6863-1.4506-8.3934-3.837-1.5174-2.1992-2.4184-5.4279-2.4184-8.9841 0-8.0483 3.9833-12.821 10.764-12.821z" stroke-width=".70658"/><path d="m196.17 183.83v-20.823h-4.1864v19.887c0 5.2875-2.9971 8.329-8.135 8.329-5.0903 0-8.135-3.0883-8.135-8.329v-19.887h-4.1864v20.823c0 2.5268 0.57088 4.6324 1.665 6.2702 2.1408 3.1819 6.0418 4.9132 10.656 4.9132 7.4689 0 12.321-4.3517 12.321-11.183z" stroke-width=".70772"/><path d="m217.39 172.32h4.0901c-0.0476-1.9185-0.33292-3.2287-0.85608-4.4921-1.6646-3.5562-5.612-5.6619-10.891-5.6619-3.6145 0-6.6583 0.93585-8.5607 2.7608-1.7121 1.6377-2.806 4.1645-2.806 6.6445 0 1.8249 0.28538 2.9011 0.90363 4.0241 0.9512 1.6377 3.0438 2.8076 5.5645 3.5094 1.0939 0.28076 2.7109 0.6551 4.8511 1.123 3.7572 0.79547 5.612 1.357 6.7059 2.1057 1.189 0.74868 1.7597 1.9653 1.7597 3.6498 0 3.2287-3.1865 5.4747-7.8949 5.4747-2.806 0-5.3267-0.79547-6.8486-2.0589-1.2841-1.0762-1.7597-2.3864-2.0926-5.2408h-3.995c0 6.7849 4.4706 10.903 11.937 10.903 4.6133 0 8.0376-0.98264 10.273-2.9947 1.6646-1.4974 2.806-4.1645 2.806-6.6445 0-3.7902-2.1877-6.2234-6.5157-7.3464-1.0939-0.32755-2.7109-0.6083-4.8511-1.123-6.9912-1.4974-8.418-2.5268-8.418-5.7555 0-3.3223 2.7584-5.4279 7.1339-5.4279 2.6633 0 5.1364 0.88905 6.2779 2.246 0.80852 1.0294 1.2841 2.48 1.4268 4.3049z" stroke-width=".70762"/><path d="m223.97 163.01v31.211h23.378v-3.7902h-19.141v-10.622h17.427v-3.603h-17.427v-9.5924h18.855v-3.603z" stroke-width=".70802"/></g><path d="m11.686 198.38v16.311h233.27v-16.311zm7.2969 1.7852a4.7399 4.7399 0 0 1 4.7227 4.3555h3.2559v-3.8047c-2e-6 -0.3047 0.24413-0.55078 0.54883-0.55078s0.55078 0.24608 0.55078 0.55078v3.8047h17.943c0.30353 0 0.54688 0.2453 0.54688 0.54883v4e-3c0 0.30353-0.24335 0.54688-0.54688 0.54688h-17.943v3.4766c0 0.3047-0.24608 0.54883-0.55078 0.54883s-0.54883-0.24413-0.54883-0.54883v-3.4767h-3.293a4.7399 4.7399 0 0 1-4.6855 4.0254 4.7399 4.7399 0 0 1-4.7383-4.7402 4.7399 4.7399 0 0 1 4.7383-4.7402zm204.83 0.49414c1.2017 0 2.1542 0.3509 2.8574 1.0508v-0.96875h1.4023v4.582h-2.4805v-1.832c-0.38833-0.28754-0.83924-0.43164-1.3535-0.43164-1.2385 0-1.8574 1.1207-1.8574 3.3613v0.041c0 2.322 0.59075 3.4824 1.7715 3.4824 0.44081 0 0.80256-0.16992 1.0859-0.51172 0.28861-0.34722 0.44384-0.8379 0.46484-1.4727h2.6445c-0.021 1.454-0.42059 2.5608-1.1973 3.3203-0.77141 0.75413-1.8894 1.1309-3.3535 1.1309-1.6425 0-2.9241-0.50694-3.8477-1.5215-0.9236-1.02-1.3867-2.4638-1.3867-4.3301v-0.0332c0-1.8338 0.47081-3.2684 1.4102-4.3047 0.93934-1.0417 2.2183-1.5625 3.8398-1.5625zm-39.652 0.23633h5.8242c1.2017 0 2.144 0.25564 2.8262 0.76563 0.6822 0.50998 1.0234 1.2146 1.0234 2.1152 0 0.67818-0.20653 1.234-0.6211 1.668-0.41456 0.43403-1.0028 0.69917-1.7637 0.79687 0.88162 0.0868 1.5718 0.36785 2.0703 0.83985 0.49854 0.47201 0.74805 1.0862 0.74805 1.8457 0 1.0471-0.34636 1.849-1.0391 2.4023-0.6927 0.55338-1.6959 0.83008-3.0078 0.83008h-6.0606v-2.3359h0.95313v-6.5996h-0.95313zm11.289 0h5.7539v2.3281h-1.2363v6.5996h2.4648v-2.166h2.1562v4.502h-9.1387v-2.3359h0.95313v-6.5996h-0.95313zm12.779 0h7.6914v2.3281h-0.77149l1.6602 6.5996h0.69336v2.3359h-4.8106v-2.3359h0.67773l-0.20507-0.98437h-2.3691l-0.2129 0.98437h0.69336v2.3359h-4.6445v-2.3359h0.73243l1.6211-6.5996h-0.75586zm21.385 0h5.3672v2.3281h-0.84961v3.084l3.5274-3.166h-1.6465v-2.2461h5.3066v2.3281h-1.1582l-2.5332 2.2207 2.6445 4.3789h1.1094v2.3359h-4.1094l-2.3379-4.3301-0.80274 0.69922v1.2949h0.84961v2.3359h-5.3672v-2.3359h0.95117v-6.5996h-0.95117zm-210.63 0.37109a3.64 3.64 0 0 0-3.6387 3.6387 3.64 3.64 0 0 0 3.6387 3.6406 3.64 3.64 0 0 0 3.6406-3.6406 3.64 3.64 0 0 0-3.6406-3.6387zm169.54 1.957v2.4492h0.73828c0.85013 0 1.2754-0.40451 1.2754-1.2129 0-0.82466-0.45604-1.2363-1.3691-1.2363zm23.422 0.18554-0.78711 3.7207h1.6152zm-170.99 2.6953h5.0215c0.31691-3e-5 0.57031 0.25535 0.57031 0.57226v5.0195h0.58008c0.15846 0 0.28711 0.12866 0.28711 0.28711 0 0.15846-0.12866 0.28516-0.28711 0.28516h-7.3242c-0.15846 0-0.28711-0.1267-0.28711-0.28516 0-0.15845 0.12866-0.28711 0.28711-0.28711h0.58008v-5.0195c0-0.31691 0.25536-0.5723 0.57226-0.57226zm147.57 1.0742v2.6445h0.81055c0.99707 0 1.4961-0.44617 1.4961-1.3359 0-0.42318-0.13471-0.74436-0.40234-0.9668-0.26764-0.22786-0.64991-0.3418-1.1484-0.3418z" stroke-dashoffset="3.402" stroke-linecap="square" stroke-linejoin="round" stroke-miterlimit="0" stroke-width="5.5" style="paint-order:stroke markers fill"/><path d="m42.871 206.7v0.80859h1.7109l-0.92383 0.92383a1.7703 1.7703 0 0 0-0.92969-0.26758 1.7703 1.7703 0 0 0-1.7695 1.7695 1.7703 1.7703 0 0 0 1.7695 1.7695 1.7703 1.7703 0 0 0 1.7715-1.7695 1.7703 1.7703 0 0 0-0.26758-0.93164l0.92188-0.92188v1.7109h0.80859v-3.0918zm-0.14258 2.2734a0.96077 0.96077 0 0 1 0.96094 0.96094 0.96077 0.96077 0 0 1-0.96094 0.96094 0.96077 0.96077 0 0 1-0.96094-0.96094 0.96077 0.96077 0 0 1 0.96094-0.96094z" stroke-dashoffset="3.402" stroke-linecap="square" stroke-linejoin="round" stroke-miterlimit="0" stroke-width="5.3167" style="paint-order:stroke markers fill"/></g></svg>
