<?xml version="1.0" encoding="UTF-8"?>
<svg width="800" height="306" version="1.1" xmlns="http://www.w3.org/2000/svg">
	<g fill="#ec0177">
		<path d="m646.45 185.18c0 41.057 34.47 74.528 76.803 74.528 42.334 0 76.75-33.472 76.75-74.528 0-41.144-34.42-74.555-76.75-74.555s-76.803 33.412-76.803 74.555m9.0712-0.0302c0-36.314 30.338-65.79 67.68-65.79 37.544 0 67.933 29.476 67.933 65.79 0 36.37-30.388 65.881-67.933 65.881-37.342 0-67.68-29.511-67.68-65.881"/>
		<path d="m688.32 224.68 26.887-38.203-24.878-35.298h15.592l11.295 17.234q3.1877 4.9141 5.128 8.2363 3.0491-4.5679 5.613-8.098l12.404-17.372h14.899l-25.432 34.606 27.372 38.899h-15.315l-15.107-22.84-4.0191-6.1598-19.334 29z"/>
		<path d="m238.78 0h-33.78v34.692h37.706v-34.692z"/>
		<path d="m238.8 55.489h-33.785v189.31h37.706v-189.31z"/>
		<path d="m309.27 76.556v-21.025h-35.987v189.28h37.706v-106.43c0-7.7106 1.0885-14.967 3.1547-21.413 2.0662-6.3447 5.1855-11.918 9.2878-16.686 4.0316-4.6212 9.1113-8.3051 15.209-10.931 6.1682-2.5601 13.702-3.8551 22.219-3.8551 10.527 0 18.439 2.8372 24.336 8.688 5.8458 5.856 8.6177 13.637 8.6177 23.902v126.72h37.695v-123.22c0-10.094-1.0583-19.417-3.0741-27.793-2.0662-8.6226-5.7955-16.192-11.137-22.501-5.2913-6.2339-12.397-11.213-20.813-14.751-8.4158-3.4722-18.999-5.2259-31.386-5.2259-24.038 0-42.72 8.5519-55.827 25.233"/>
		<path d="m496.21 1.8797h-33.765v242.93h37.695v-70.964c2.0158-1.9251 18.444-17.069 23.434-21.69 4.6866 7.0752 60.725 92.655 60.725 92.655h47.372s-75.893-113.47-79.423-118.83c4.5354-4.2784 76.902-70.548 76.902-70.548h-51.655s-66.168 63.326-77.355 74.086v-127.63h-3.9307"/>
		<path d="m92.344 51.328c-13.108 0-25.303 2.419-36.274 7.1864-7.4282 3.2202-13.491 7.8867-18.364 13.702v-16.68h-37.706v250.46h37.706v-78.606c2.0007 2.1367 4.1726 4.1726 6.5563 5.9565 5.0494 3.8906 10.477 6.904 16.121 9.1113 5.6039 2.2123 11.354 3.82 17.104 4.8378 5.6746 0.98271 10.895 1.4362 15.522 1.4362 14.332 0 27.057-2.6608 37.958-7.7457 10.825-5.1855 20.042-12.337 27.299-21.342 7.1459-8.8645 12.583-19.412 16.086-31.26 3.5024-11.843 5.2562-24.497 5.2562-37.635 0-13.209-1.789-25.862-5.4327-37.675-3.573-11.878-9.0761-22.496-16.227-31.643-7.2869-9.1819-16.399-16.575-27.299-21.901-10.865-5.4327-23.761-8.2042-38.305-8.2042zm-4.3086 34.173c8.8645 0 16.68 1.7134 23.197 5.1855 6.5563 3.4319 11.989 8.0934 16.192 13.874 4.2081 5.9618 7.4282 12.76 9.5346 20.364 2.0662 7.675 3.19 15.668 3.19 23.726 0 8.547-0.91214 17.028-2.7011 25.122-1.789 7.9574-4.6968 15.073-8.6177 21.171-3.8551 6.0272-8.94 10.86-15.244 14.574-6.2388 3.578-14.267 5.3971-23.761 5.3971-9.6052 0-17.805-1.7487-24.467-5.2913-6.6572-3.573-12.16-8.3051-16.328-14.191-4.2433-5.8204-7.3625-12.79-9.3584-20.536-2.0007-7.9574-3.0136-16.333-3.0136-24.88 0-8.0934 0.94238-16.157 2.8372-23.973 1.8898-7.7053 4.9436-14.68 9.0459-20.642 4.1325-5.9214 9.4238-10.789 15.869-14.473 6.3798-3.6083 14.302-5.4274 23.625-5.4274z"/>
	</g>
</svg>
