<?xml version="1.0" encoding="UTF-8"?>
<svg width="545.73" height="450" version="1.1" xmlns="http://www.w3.org/2000/svg">
	<path d="m69.831 239.57-26.362 3.2374v43.936l25.899-3.2374c4.6248 0 8.3247-3.6999 8.3247-8.3247v-28.674c0.46248-5.0873-1.8499-7.3998-7.8622-6.9373zm475.9-58.273v-31.911c0-5.5498-4.1624-10.175-10.175-10.637h-0.92498v-19.887c0-5.5498-4.1624-10.637-10.175-10.637h-1.8499l-31.911 3.6999c-6.9373 0.92496-12.025 6.4748-12.025 13.412v26.824c-6.9373-4.1624-15.724-5.5498-23.587-4.1624l-47.173 6.0123-6.4748 0.92496c4.1624-12.025 6.0123-24.974 6.4748-37.924-0.46248-64.748-53.648-117.47-119.32-117.01-64.748 0.46248-117.01 53.186-117.47 117.93 0 22.662 6.4748 44.398 18.499 63.36l-21.737 2.3124c-1.3874 0-2.3124 0.46249-3.6999 0.92496v-20.349c0-5.5498-4.1624-10.637-10.175-10.637h-1.8499l-31.911 3.6999c-6.9373 0.92496-12.025 6.4748-12.025 13.412v27.287c-7.3998-4.1624-16.187-5.5498-24.512-4.1624l-71.685 9.2496c-6.9373 0.92497-11.562 6.9373-12.025 13.875v140.6c0 5.5498 4.1624 10.637 10.175 10.637h1.8499l31.911-3.6999c1.8499-0.46249 3.6999-0.92498 5.5498-2.3124v77.235c0 5.5498 4.1624 10.637 10.175 10.637h1.8499l32.374-3.6999c6.9373-0.92497 12.025-6.4748 12.025-13.412v-65.21l17.112-2.3124c2.3124-0.46248 4.6248-1.3874 6.4748-2.7749-5.0873 8.3247-7.8622 18.499-7.3998 28.212v12.95c0 23.587 13.875 35.611 36.536 32.836l47.173-6.0123c9.7122-0.92496 18.499-5.0873 25.437-11.1 1.8499 4.6248 6.4748 7.3998 11.1 6.4748l72.61-8.7872c9.2496-0.92495 18.037-4.6248 25.437-10.637 1.8499 4.6248 6.4748 7.3998 11.1 6.4748l31.911-3.6999c5.0873-0.92497 9.2497-4.1624 11.1-9.2496 7.8622 4.6248 16.649 6.0123 25.437 4.6248l47.173-6.0123c23.124-2.7749 36.536-18.037 36.536-41.624v-56.886c0-15.724-6.4748-26.824-17.574-30.986 0.46248-0.92497 0.46248-2.3124 0.92496-3.6999 6.4748 6.4748 16.649 9.2496 29.599 7.3997l16.649-2.3124c6.9373-0.92496 12.025-6.4748 12.025-13.412v-31.911c0-5.5498-4.1624-10.175-10.175-10.637h-0.92496v-20.349c6.4748-0.46247 11.562-6.0123 11.562-12.95zm-368.6-63.36c-0.46248-61.973 49.486-112.38 111.46-112.85 61.973-0.46248 112.38 49.486 112.85 111.46v1.3874c0 13.875-2.7749 27.287-7.3998 40.236-7.8622 2.7749-13.875 8.3246-18.037 15.262-0.92495-0.92497-1.8499-2.3124-3.2374-3.2374-0.92497-0.92497-2.3124-1.8499-3.6999-2.7749-2.7749-1.8499-5.5498-3.2374-8.7872-4.1624-5.0873-1.3874-10.175-1.8499-15.262-0.92497l-47.173 6.0123c-5.0873 0.46248-10.175 2.3124-14.799 5.0873-4.6248 2.3124-8.3247 5.5498-12.025 9.2496-1.3875 1.3875-2.3124 2.7749-3.6999 4.6248-6.4748-9.2496-17.112-12.95-31.911-11.1l-19.424 2.3124-20.349 1.8499c-12.025-18.499-18.499-40.236-18.499-62.435zm-133.2 201.18v32.374l-31.911 3.6999v-140.13l72.61-8.7872c16.649-2.3124 25.437 5.0873 25.437 22.199v56.886c0 17.112-8.7872 26.824-25.437 29.136zm78.16 34.224-22.199 2.7749c-4.1624 0-7.3997 3.6999-7.3997 8.3247v68.91l-32.374 3.6999v-82.322c0-3.6999 0.46248-6.9373 1.8499-10.637 1.3875-3.2374 2.7749-6.0123 5.0873-8.3247 2.3124-2.7749 5.0873-4.6248 7.8622-6.4748 3.2374-1.8499 6.4748-2.7749 10.175-3.2374l35.611-4.6248v31.911zm-0.92497-43.474v-140.13l31.911-3.6999v140.13zm110.07 80.935c0 16.649-8.7872 26.824-25.899 28.674l-47.173 6.0123c-16.649 2.3124-24.974-5.5498-24.974-22.199v-13.412c0-19.424 7.8622-30.061 24.049-32.374l42.086-5.0873v-2.7749c0-3.6999-2.3124-5.5498-6.0123-5.0873l-55.961 6.9373v-31.449l67.985-8.7872c17.112-2.3124 25.899 5.0873 25.899 22.199zm4.6248-95.272-47.173 6.0123c-16.649 2.3124-24.974-5.5498-24.974-22.199v-12.95c0-19.424 7.8622-30.061 24.049-32.374l42.086-5.0873v-2.7749c0-3.6999-2.3124-5.5498-6.0123-5.0873l-55.961 6.9373v-32.374l67.985-8.3247c17.112-2.3124 25.899 5.0873 25.899 22.199v57.348c0 17.112-8.7872 26.362-25.899 28.674zm104.52 82.322c0 16.649-8.7872 26.362-25.437 28.212l-72.61 8.7872v-107.76l72.61-8.7872c16.649-2.3124 25.437 5.5498 25.437 22.662zm-1.3874-95.272v-67.523c0-5.0873-2.7749-7.8622-8.3247-6.9373l-18.499 2.3124c-4.1624 0-7.3998 3.6999-7.3998 8.3247v68.91l-32.374 3.6999v-82.785c0-3.6999 0.46249-6.9373 1.8499-10.637 1.3875-3.2374 2.7749-6.0123 5.0873-8.3247 2.3124-2.7749 5.0873-4.6248 7.8622-6.4748 3.2374-1.8499 6.4748-2.7749 10.175-3.2374l47.173-6.0123c3.6999-0.46248 6.9373 0 10.637 0.92496 2.7749 0.92497 5.5498 2.3124 7.8622 4.1624 2.3124 1.8499 3.6999 4.6248 5.0873 7.3998 1.3874 3.2374 1.8499 6.4748 1.8499 9.7122v82.785zm44.398 115.16-31.911 3.6999v-108.22l31.911-3.6999zm-1.3874-145.22v-57.81c0-16.649 8.7872-26.824 25.899-28.674l47.173-6.0123c16.187-1.8499 24.974 5.5498 24.974 22.662v12.95c0 19.424-7.8622 30.061-24.049 32.374l-41.624 5.0873v2.7749c0 3.6999 2.3124 5.5498 6.0123 5.0873l55.961-6.9373v31.911l-67.985 8.3247c-18.037 2.3124-26.362-5.0873-26.362-21.737zm110.07 49.023v57.348c0 17.112-8.3247 26.362-24.974 28.212l-47.173 5.5498c-17.112 2.3124-25.899-5.0873-25.899-21.274v-58.273c0-16.649 8.3247-26.824 25.437-28.674l47.636-6.0123c16.649-1.3874 24.974 6.0123 24.974 23.124zm42.086-118.86-11.1 1.3875v37.924c0 4.1624 1.8499 6.0123 5.0873 5.5498l6.4748-0.92496v31.911l-16.649 2.3124c-17.574 2.3124-26.362-4.6248-26.362-20.812v-115.62l31.911-3.6999v31.911l11.1-1.3875zm-115.62 23.124 24.974-3.2374c3.2374-0.46249 5.0873-1.8499 5.0873-4.6248v-0.92497c0-2.7749-1.8499-3.6999-5.0873-3.6999l-24.974 3.2374c-3.2374 0.46249-4.6248 1.8499-4.6248 4.6248v0.92496c0 2.7749 1.3874 4.1624 4.6248 3.6999zm-223.84 173.89-24.974 3.2374c-3.2374 0.46247-5.0873 1.8499-5.0873 4.6248v0.92496c0 2.7749 1.8499 3.6999 5.0873 3.6999l24.974-3.2374c3.2374-0.46249 4.6248-1.8499 4.6248-4.6248v-0.92497c0-2.7749-1.3875-4.1624-4.6248-3.6999zm257.14-66.598-18.037 2.3124c-4.1624 0.46247-7.8622 4.1624-7.3997 8.3246v27.749c0 6.0123 2.3124 8.7872 7.3997 7.8622l18.499-2.3124c4.6248 0 8.7872-4.1624 8.3247-8.7872v-28.674c0-5.0873-2.7749-7.3997-8.7872-6.4748zm-226.15-57.348-24.974 3.2374c-3.2374 0.46248-5.0873 1.8499-5.0873 4.6248v0.92496c0 2.7749 1.8499 3.6999 5.0873 3.6999l24.974-3.2374c3.2374-0.46248 4.6248-1.8499 4.6248-4.6248v-0.92496c-0.46248-2.7749-1.8499-4.1624-4.6248-3.6999zm74.46 75.847-25.899 3.2374v44.398l26.362-3.2374c4.6248 0 8.3247-4.1624 7.8622-8.7872v-28.211c0-5.5498-2.7749-7.8622-8.3247-7.3998z" fill="#333"/>
	<path d="m216.44 177.6 19.424-2.3124c14.799-1.8499 25.437 2.3124 31.911 11.1 0.92497-1.8499 2.3124-3.2374 3.6999-4.6248 3.2374-3.6999 7.3997-6.9373 12.025-9.2497 4.6253-2.3124 9.7122-4.1624 14.8-5.0873l47.636-5.5498c5.0873-0.92497 10.175-0.46248 15.262 0.92495 3.2374 0.92498 6.0123 2.3124 8.7872 4.1624 9.2497-14.799 13.875-32.374 13.875-49.948-0.92496-51.336-43.011-93.422-95.272-92.959-52.261 0.463-93.884 42.549-93.884 94.809 0.46248 21.274 7.8622 42.086 21.737 58.735zm107.3-121.17c14.799 0 26.824 12.025 26.824 26.824s-12.025 26.824-26.824 26.824c-14.799 0-26.824-12.025-26.824-26.824s12.025-26.824 26.824-26.824z" fill="#dc0000"/>
	<path d="m110.07 285.36v-57.348c0-16.649-8.7872-24.049-25.437-22.199l-72.61 9.2496v140.6l31.911-3.6999v-32.374l41.161-5.0873c16.187-2.3124 24.974-12.025 24.974-29.136zm-31.911-10.637c0.46249 4.6248-3.2374 8.7872-7.8622 9.2496h-0.46249l-25.899 3.2374v-43.936l26.362-3.2374c3.2374-0.92496 6.9373 0.92497 7.8622 4.1624 0.46249 0.92497 0.46249 1.8499 0 2.7749zm292.75 4.1624v-82.785c0-3.2374-0.46248-6.4748-1.8499-9.7122-0.92496-2.7749-2.7749-5.5498-5.0873-7.3998-2.3124-2.3124-5.0873-3.6999-7.8622-4.1624-3.2374-0.92496-6.9373-1.3874-10.637-0.92496l-47.173 6.0123c-3.6999 0.46247-6.9373 1.3874-10.175 3.2374-3.2374 1.3875-5.5498 3.6999-7.8622 6.4748-2.3124 2.3124-3.6999 5.5498-5.0873 8.3247-1.8499 3.2374-2.3124 6.9373-2.3124 10.637v82.785l32.374-3.6999v-68.91c-0.46249-4.1624 2.3124-7.8622 6.4748-8.7872h0.92497l18.499-2.3124c5.0873-0.92497 8.3247 1.8499 8.3247 6.9373v67.985zm-154.47-101.28c-33.299-40.236-27.287-99.434 12.487-132.73 39.774-33.299 99.434-27.287 132.73 12.95 13.875 17.112 21.737 37.924 21.737 60.123 0 17.574-5.0873 34.686-13.875 49.948 1.3874 0.92496 2.3124 1.8499 3.6999 2.7749l3.2374 3.2374c4.1624-6.9373 10.637-12.487 18.037-15.262 5.0873-12.95 7.3998-26.362 7.3998-40.236-0.92496-62.435-51.336-112.38-112.85-112.38s-111.92 50.873-111.92 112.85c0 22.199 6.4748 43.474 18.962 61.973zm-140.6 151.69c-3.2374 1.3875-5.5498 3.6999-7.8622 6.4748-2.3124 2.3124-3.6999 5.5498-5.0873 8.3247-1.3875 3.2374-1.8499 6.9373-1.8499 10.637v82.785l32.374-3.6999v-68.91c-0.46248-4.1624 2.3124-7.8622 6.4748-8.7872h0.92495l22.199-2.7749v-31.911l-35.611 4.6248c-4.1624 0.46248-7.8622 1.3874-11.562 3.2374zm247.89-219.68c14.799 0 26.824-12.025 26.824-26.824 0-14.799-12.025-26.824-26.824-26.824-14.799 0-26.824 12.025-26.824 26.824 0 14.799 12.025 26.824 26.824 26.824zm-170.66 56.423-31.911 3.6999v140.13l31.911-3.6999zm254.37 108.22 67.985-8.3247v-31.911l-55.961 6.9373c-3.6999 0.46248-6.0123-1.3874-6.0123-5.0873v-2.7749l41.624-5.0873c16.187-2.3124 24.049-12.487 24.049-32.374v-12.487c0-16.649-8.3246-24.512-24.974-22.199l-47.173 5.5498c-17.112 2.3124-25.899 11.562-25.899 28.674v57.348c0.92496 16.649 9.2496 24.049 26.362 21.737zm6.4748-72.61c0-2.7749 1.3874-4.1624 4.6248-4.6248l24.974-3.2374c3.2374-0.46248 5.0873 0.92496 5.0873 3.6999v0.92496c0 2.7749-1.8499 4.1624-5.0873 4.6248l-24.974 3.2374c-3.2374 0.46248-4.6248-0.92496-4.6248-3.6999zm-62.898 199.79 31.911-3.6999v-108.22l-31.911 3.6999zm116.08-122.56-47.636 6.0123c-16.649 2.3124-25.437 11.562-25.437 28.674v58.273c0 16.649 8.7872 23.587 25.899 21.274l47.173-6.0123c16.649-2.3124 24.974-11.1 24.974-28.212v-57.348c0-17.112-8.3247-24.512-24.974-22.662zm-6.4748 68.91c0.46247 5.0873-2.7749 9.2497-7.8622 9.7122h-0.46248l-18.499 2.3124c-5.0873 0.92497-7.3997-2.3124-7.3997-7.8622v-26.824c0-5.5498 2.3124-8.7872 7.3997-9.2497l18.037-2.3124c6.0123-0.92496 8.7872 1.3875 8.7872 6.9373zm-255.29-36.536-67.985 8.3247v31.911l55.961-6.9373c3.6999-0.46248 6.0123 1.3874 6.0123 5.0873v2.7749l-42.086 5.0873c-16.187 2.3124-24.049 12.487-24.049 32.374v12.95c0 16.649 8.3247 24.512 24.974 22.199l47.173-6.0123c17.112-2.3124 25.899-11.562 25.899-28.674v-56.886c0-17.112-8.7872-24.512-25.899-22.199zm-6.0123 72.61c0 2.7749-1.3875 4.1624-4.6248 4.6248l-24.974 3.2374c-3.2374 0.46248-5.0873-0.92497-5.0873-3.6999v-0.92496c0-2.7749 1.8499-4.1624 5.0873-4.6248l24.974-3.2374c3.2374-0.46248 4.6248 0.92496 4.6248 3.6999zm334.84-201.18v-31.911l-11.1 1.3874v-31.911l-31.911 3.6999v116.08c0 15.724 8.7872 22.662 26.362 20.812l16.649-2.3124v-31.911l-6.9373 1.3874c-3.2374 0.46248-5.0873-1.3874-5.0873-5.5498v-38.386zm-219.22 115.16-72.61 8.7872v107.76l72.61-8.7872c16.649-2.3124 25.437-11.562 25.437-28.212v-56.886c0-17.112-8.7872-24.512-25.437-22.662zm-6.4748 68.91c0.46249 4.6248-2.7749 8.3247-7.3997 9.2496h-0.92497l-26.362 3.2374v-43.936l25.899-3.2374c5.5498-0.92496 8.3247 1.8499 8.3247 6.9373zm-46.711-99.896v-57.348c0-16.649-8.7872-24.512-25.899-22.199l-67.985 8.3247v31.911l55.961-6.9373c3.6999-0.46248 6.0123 1.3875 6.0123 5.0873v2.7749l-42.086 5.0873c-16.187 2.3124-24.049 12.487-24.049 32.374v12.95c0 16.649 8.3247 24.512 24.974 22.199l47.173-5.5498c17.112-2.3124 25.899-11.562 25.899-28.674zm-31.911-6.9373c0 2.7749-1.3874 4.1624-4.6248 4.6248l-24.974 3.2374c-3.2374 0.46247-5.0873-0.92497-5.0873-3.6999v-0.92495c0-2.7749 1.8499-4.1624 5.0873-4.6248l24.974-3.2374c3.2374-0.46249 4.6248 0.92496 4.6248 3.6999z" fill="#fff"/>
</svg>
