<svg xmlns="http://www.w3.org/2000/svg" width="394.346" height="450"><path d="M0 0h394.346v393.891H0z" fill="#fff"/><path d="M0 393.891v-43.993h248.336v-56.489c-28.264-4.588-68.689-9.691-68.84-44.431V48.743H0V0h394.346v101.506c-.292-.146-.877-.146-1.023-.292-11.473-23.458-31.862-35.514-55.978-41.947-46.843-12.495-94.709-9.5-142.868-10.816v62.409c22.399-.444 44.581-.238 64.966 4.458 14.561 3.354 21.34 11.761 22.143 24.408.951 14.976-5.239 28.296-19.293 31.643-23.837 5.677-45.535 7.23-67.743 7.162v53.932h39.974c32.739-.731 65.542-.618 97.34-8.916 32.827-8.587 48.18-22.064 62.482-43.847v214.192c-131.468-.146-263.098 0-394.346 0zm0-101.432V105.89c20.389.877 40.161 3.789 56.579 16.516 8.283 6.42 12.35 15.346 12.35 25.87v101.652c0 13.081-6.346 22.601-17.246 29.304-15.48 9.52-33.194 12.058-51.683 13.227zm394.345 139.14v15.931h-57.22l-.292-6.504c10.377-4.896 11.912-8.039 10.085-21.12-.877-7.015-6.577-6.065-11.473-7.6l-.877 8.769c-2.558.146-4.896.292-8.185.585 2.412-8.916-13.666-5.627-9.354-16.369h45.455l1.023 18.562 16.808-8.331v20.827c-5.481-2.265-10.669-4.165-16.662-6.358v9.5c5.042 0 9.939.292 14.835-.146 2.046-.146 5.481-1.608 5.919-3.289 1.754-6.212 5.481-5.335 9.939-4.458zm-200.818-16.954l11.327 20.681 11.035-20.535-7.162-2.704v-7.308h26.6v7.308c-.438-.438-.877-.731-1.169-1.169-3.435 3.435-7.308 6.723-10.231 10.523-3.581 4.604-6.358 9.939-9.792 14.835-1.169 1.608-3.289 2.704-4.165 3.435-1.169 2.996-2.412 7.892-3.435 7.892-4.458 0-10.816.146-13.227-2.704-5.335-6.212-8.623-14.396-13.227-21.412-2.996-4.458-7.015-8.331-10.523-12.496-.438.292-1.023.731-1.462 1.023v-7.162h34.201c.146 2.265.146 4.312.292 6.869l-9.062 2.923zm-64.528-2.631v-7.015h35.662l.292 6.577c-10.816 5.042-11.327 5.189-9.5 20.389.438 3.435 4.75 6.358 7.454 9.646.585-.438 1.169-.731 1.9-1.169v7.454h-35.37c-.731-4.312-1.754-8.039 4.604-9.208 1.9-.292 4.312-3.435 4.75-5.627.731-4.312 1.169-9.208-.146-13.227-1.023-3.289-4.896-5.627-7.6-8.331-.731.073-1.315.365-2.046.512zM.674 447.53c-1.169-4.312-1.462-7.892 4.604-9.062 1.754-.292 4.019-3.581 4.458-5.773.731-4.019 1.169-8.769-.146-12.496-1.169-3.435-4.896-6.065-7.6-9.062-.585.292-1.023.731-1.608 1.023v-7.308h25.723c0 9.062-.438 17.685.292 26.308.146 2.704 3.142 5.335 5.042 7.746 1.754 2.412 4.019 4.312 6.065 6.504l-1.608 2.046-35.224.073zm113.563-22.288l5.042 14.981 5.627-6.504c.731 1.023 2.558 2.412 2.265 2.996-1.462 3.873-2.265 9.354-5.189 11.181-8.769 5.335-18.562 0-19.95-10.085-.731-5.335-3.289-7.454-8.331-7.015-1.9.146-3.873 0-6.577 0v-8.623c3.581-.146 7.308 0 10.816-.585 1.754-.292 3.289-2.265 4.896-3.435-1.754-1.315-3.289-3.581-5.189-3.873-3.289-.585-6.869-.146-10.669-.146v-9.354h16.808c5.773 0 11.035 1.462 13.666 7.162 2.777 5.554.658 10.304-3.215 13.3zm-20.17 22.581H58.99v-8.039c5.481-.731 9.646-2.412 9.5-9.5-.292-14.689.146-14.689-9.646-18.27v-7.015h25.724c0 8.623-.438 17.246.292 25.724.146 2.85 2.704 7.162 4.896 7.6 5.627 1.462 5.335 4.75 4.312 9.5zm189.931-.146h-33.762v-7.454l8.185-2.412-12.643-22.873c-1.754-3.289-5.773-6.723-.731-10.085 3.142-2.265 12.643 0 14.543 3.142 4.75 7.892 9.062 15.931 13.958 23.604 1.608 2.704 3.873 5.773 6.577 6.723 5.7 1.754 4.75 5.189 3.873 9.354zm39.973 0h-35.37c-.731-4.312-1.754-7.6 4.165-9.062 2.265-.585 4.896-4.75 5.042-7.454.585-8.623.292-17.246.292-26.308h16.37c0 8.916-.438 17.539.292 26.016.146 2.704 2.558 6.212 4.896 7.746 4.823 2.777 5.115 2.339 4.312 9.062zM28.663 412.745v-8.477c6.869.585 13.373.731 19.95 1.754 6.358 1.023 9.646 5.335 9.646 12.058s-3.727 10.669-9.939 11.766c-5.919 1.023-12.204 1.023-18.562 1.608-1.462-4.165-2.996-7.454 3.142-8.477 2.85-.585 5.335-3.142 8.039-4.75-2.704-1.462-5.335-3.142-8.039-4.604-1.315-.585-2.631-.585-4.239-.877zm212.365.146c10.669 10.085-4.165 16.223-4.019 21.997l9.062 12.789h-29.304c-.146-2.265-.438-4.604-.585-6.869 14.177-4.165 15.346-19.293 24.847-27.916zm123.867-7.892h29.304v15.931c-4.312.877-8.039 1.754-9.792-4.165-.438-1.608-4.165-2.996-6.577-3.435-3.873-.585-7.892-.146-12.496-.146l-.438-8.185zm-68.84 0v7.308c-.438-.292-.877-.731-1.315-1.023-2.558 2.85-4.896 5.919-7.892 8.185-2.265 1.462-5.335 1.754-8.623 2.704v-17.1l17.831-.073zm-43.262 29.45h-12.935c2.996-3.142 5.042-6.723 6.723-6.504 2.558.292 4.896 3.142 7.308 4.896-.365.438-.804 1.023-1.096 1.608z" fill="#cc221e"/></svg>