<?xml version="1.0" encoding="UTF-8"?>
<svg width="800" height="150.77" version="1.1" xml:space="preserve" xmlns="http://www.w3.org/2000/svg"><style>.st0{fill:#e5e6d7}</style><path class="st0" d="m150.76 51.557s-43.77-2.4316-89.971 26.261c-47.174 28.207-59.332 69.545-60.791 72.949h150.76zm-150.76-51.551h150.76v42.797h-150.76zm163.4 24.316v125.47h86.08zm73.436-24.316h-73.436v18.48l89.971 131.31h86.08zm214.47 0h-85.594l103.59 149.79h85.594zm116.23 0h-85.594l103.59 149.79h85.594zm-279.64 0-23.343 34.529 79.758 115.26h8.7539v-149.79zm374.96 87.539-15.076 21.884 27.72 40.366h30.152zm12.644-87.539h-77.326l-12.644 18.48 38.42 56.414zm124.5 0h-77.326l-12.644 18.48 38.907 56.414zm-262.61 87.539-10.213 16.049 32.097 46.202h21.884zm-120.61 62.25 24.316-34.529-75.381-109.42v143.95zm275.74-149.79-43.284 62.25 60.791 87.539h86.08l-103.59-149.79" stroke-width="4.8633"/></svg>
