<?xml version="1.0" encoding="UTF-8"?>
<svg width="800" height="295.22" version="1.1" xml:space="preserve" xmlns="http://www.w3.org/2000/svg"><path d="M150.76 51.557s-43.77-2.432-89.971 26.261C13.615 106.025 1.457 147.363-.002 150.767h150.76zM0 .006h150.76v42.797H0zm163.4 24.316v125.47h86.08zM236.836.006H163.4v18.48l89.971 131.31h86.08zm214.47 0h-85.594l103.59 149.79h85.594zm116.23 0h-85.594l103.59 149.79h85.594zm-279.64 0-23.343 34.529 79.758 115.26h8.754V.005zm374.96 87.539-15.076 21.884 27.72 40.366h30.152zM675.5.006h-77.326l-12.644 18.48L623.95 74.9zm124.5 0h-77.326l-12.644 18.48L748.937 74.9zM537.39 87.545l-10.213 16.049 32.097 46.202h21.884zm-120.61 62.25 24.316-34.529-75.381-109.42v143.95zM692.52.005l-43.284 62.25 60.791 87.539h86.08L692.517.004" fill="#e5e6d7"/><path d="M648.64 295.21v-41.702h-41.128v41.702h-22.314V191.32h22.314v41.128h41.121v-41.121h22.278v103.89h-22.272m86.149-103.9h-39.519v20.609h30.194v.042h9.325c18.214 0 30.55 12.9 30.55 31.277v.333c0 18.378-12.335 30.986-30.55 30.986H717.54v-39.852h-22.272v60.497h39.519c31.839 0 53.827-22.708 53.827-51.964v-.242c0-29.269-21.988-51.686-53.827-51.686" fill="#e5e6d7"/></svg>
