<svg xmlns="http://www.w3.org/2000/svg" height="184.507" width="500" viewBox="0 0 132.292 48.817"><g fill="#fff"><path d="M0 7.114h24.893V0H0zM24.893 8.536s-7.23-.45-14.936 4.269C2.113 17.603.207 24.357 0 24.895h24.893V8.537M27.027 4.15v20.745h14.225L27.027 4.15M39.118 0h-12.09v3.113l14.935 21.782H56.19L39.118 0M74.68 0H60.457l17.06 24.88.01.015H91.75l-.001-.002L74.681 0M93.884 0H79.66l17.07 24.894 14.224-.001L93.884 0M47.653.002L43.74 5.707 56.9 24.896h1.422V0h-10.67M109.53 14.523l-2.488 3.629 4.624 6.743h4.979l-7.115-10.373M114.51 0l-7.112 10.373 9.958 14.521 14.225-.002L114.51.001M111.675.003L98.864 0 96.73 3.113l6.401 9.349 8.543-12.46M132.291.003V0H119.49l-2.133 3.112 6.392 9.349L132.29.002M88.904 14.523l-1.777 2.591 5.333 7.779h.001l3.557.002-7.114-10.373M68.99 24.895l.002-.002 3.915-5.71-12.45-18.145v23.857h8.534"/><path d="M107.262 48.817v-6.896h-6.801v6.896h-3.69v-17.18h3.69v6.801h6.8v-6.8h3.684v17.18h-3.683M121.508 31.637h-6.535v3.408h4.993v.007h1.542c3.012 0 5.052 2.133 5.052 5.172v.055c0 3.039-2.04 5.124-5.052 5.124h-2.852v-6.59h-3.683v10.004h6.535c5.265 0 8.901-3.755 8.901-8.593v-.04c0-4.84-3.636-8.547-8.901-8.547" stroke-width="1.369"/></g></svg>