<?xml version="1.0" encoding="utf-8"?>
<!-- Generator: Adobe Illustrator 15.0.2, SVG Export Plug-In . SVG Version: 6.00 Build 0)  -->
<!DOCTYPE svg PUBLIC "-//W3C//DTD SVG 1.1//EN" "http://www.w3.org/Graphics/SVG/1.1/DTD/svg11.dtd">
<svg version="1.1" xmlns="http://www.w3.org/2000/svg" x="0px" y="0px" width="1024px" height="639.032px" viewBox="0 0 1024 639.032" enable-background="new 0 0 1024 639.032" xml:space="preserve">
	<g>
		<path fill="#EF001E" d="M867.186,0v36.531h59.824c12.813,0,28.659,1.195,38.899,9.796c11.838,9.945,19.101,26.893,18.92,42.355 c-0.184,15.632-8.082,32.398-20.131,42.356c-10.006,8.27-24.875,9.794-37.688,9.794h-23.059v-67.77h-36.766v104.036h59.824 c17.078,0,37.678-2.436,58.481-15.353c20.8-12.918,38.509-38.028,38.509-73.063c0-35.036-17.705-60.149-38.509-73.065 C964.688,2.703,944.084,0,927.01,0H867.186z"/>
		<path fill="#EF001E" d="M681.56,0v177.099h36.768v-70.011h70.587v70.011h36.768V0h-36.768v70.32h-70.587V0H681.56z"/>
	</g>
	<g>
		<path fill="#EF001E" d="M639.033,210.051v428.981H0c0,0,78.4-208.573,284.016-331.351 C479.276,189.342,639.033,210.051,639.033,210.051L639.033,210.051z"/>
		<polygon fill="#EF001E" points="0,0 639.033,0 639.033,177.099 0,177.099"/>
	</g>
</svg>