<?xml version="1.0" encoding="UTF-8"?>
<svg version="1.1" viewBox="0 0 715.06 450" xmlns="http://www.w3.org/2000/svg">
	<g fill="#e20011">
		<path d="m603 0v26.106h42.752c9.1565 0 20.481 0.85398 27.798 7.0005 8.4598 7.107 13.65 19.218 13.521 30.268-0.13149 11.171-5.7756 23.152-14.387 30.269-7.1506 5.91-17.776 6.9991-26.933 6.9991h-16.478v-48.43h-26.274v74.347h42.752c12.205 0 26.926-1.7408 41.792-10.971 14.864-9.2316 27.519-27.175 27.519-52.213 0-25.038-12.652-42.984-27.519-52.215-14.866-9.2287-29.589-11.16-41.791-11.16z"/>
		<path d="m470.35 0v126.56h26.276v-50.032h50.443v50.032h26.276v-126.56h-26.276v50.252h-50.443v-50.252z"/>
		<path d="m450 152.61v297.39h-450s55.209-143.24 200-227.42c129.84-75.487 250-69.973 250-69.973zm0-152.61v126.56h-450v-126.56z"/>
	</g>
</svg>
