<svg xmlns="http://www.w3.org/2000/svg" width="1517.152" height="377.479"><path d="M206.236 91.728c-13.917-13.41-31.885-20.244-54.153-20.244H46.56L0 302.267h60.998l35.414-175.364h47.827c12.905 0 22.014 9.109 22.014 21.002 0 14.171-11.892 27.583-26.317 27.583h-37.6l-11.183 55.417h46.759c25.052 0 46.308-8.602 63.516-26.317 17.207-17.713 26.064-38.463 26.064-61.49 0-21.003-7.085-37.958-21.256-51.37m326.56-20.338h-61.287l-46.6 230.943h159.239l11.508-57.033h-97.879l35.019-173.91m-77.003 0h-61.396l-27.293 135.494c-5.836 28.416-18.61 42.356-42.133 42.356-22.594 0-39.515-12.86-32.28-48.695L318.732 71.39h-61.397l-23.791 117.974c-2.03 11.164-4.116 21.565-4.116 30.19.761 43.13 20.673 65.038 44.916 76.914 17.076 8.364 30.465 9.6 44.927 9.6 63.904 0 95.249-31.967 108.696-96.662L455.793 71.39m320.748 56.991l11.471-56.992h-78.028c-87.964 0-96.99 56.09-96.99 73.43 0 20.774 14.291 55.172 72.002 68.792 17.08 4.032 28.039 10.685 25.785 21.92-1.905 9.5-11.546 9.818-30.344 9.818l-69.233-.004-11.44 56.992h75.701c92.89 0 97.484-57.108 97.484-74.45 0-14.439-6.766-53.068-69.493-67.983-22.536-5.357-28.619-13.572-25.884-21.912 2.008-6.128 9.588-9.613 30.873-9.613l68.096.002" fill="#fff"/><path d="M1218.325 377.479h-377.48V0h377.48v377.479" fill="#ec0677"/><path d="M974.875 217.597L1165.58 44.124h-89.274l-182.902 166.69 18.968 63.638-.002.003h139.176l-11.878 58.9h67.563l23.355-115.758H974.875" fill="#171921"/><path d="M1066.301 202.135h67.59l26.645-132.566-82.881 75.523-11.354 57.043" fill="#171921"/><path style="line-height:1.25;-inkscape-font-specification:'Adobe Courier Bold'" d="M1343.75 200.046v-55.21h-55.214v55.21h-28.409V71.225h28.409v52.2h55.213v-52.2h28.315v128.82zm58.207-128.989v128.82h31.125V92.557h15.305c24.818 0 37.226 13.3 37.226 39.902v5.928c0 12.858-3.206 22.768-9.617 29.728-5.584 6.076-13.495 9.473-23.728 10.2v21.47c18.579-.74 33.8-6.337 45.652-16.806 12.823-11.325 19.232-26.19 19.232-44.592v-5.752c0-18.403-6.41-33.267-19.232-44.592-12.754-11.325-29.265-16.986-49.533-16.986z" font-weight="700" font-size="192" font-family="Adobe Courier" letter-spacing="0" word-spacing="0" fill="#fff"/></svg>