<?xml version="1.0" encoding="UTF-8"?>
<svg width="800" height="416.1" version="1.1" viewBox="0 0 800 416.1" xml:space="preserve" xmlns="http://www.w3.org/2000/svg"><g stroke-width="9.1313"><path d="m320.11 292.65c-16.372-0.27394-24.682-8.556-32.279-16.875 17.706-20.847 26.463-47.848 24.618-74.74-3.616-52.815-46.323-94.92-99.431-97.385-29.75-1.3788-58.751 10.108-79.598 31.375-20.829 21.267-31.677 49.546-29.649 80.264 3.4973 53.044 47.528 97.44 104.36 97.404 12.327 0 24.792-2.1002 37.612-7.0037 1.598-0.63007 1.6162-2.5385 0.88573-3.5521-2.575-3.8169-7.5242-8.9761-10.172-10.83-2.1824-1.5432-7.9808-5.771-16.939-4.7026-3.2964 0.42004-5.4514 0.71224-11.414 0.72138-43.556 0.0274-77.077-34.379-79.132-75.169-1.1597-22.974 7.7799-45.328 24.408-61.235 16.61-15.898 39.31-23.796 62.294-21.632 37.493 3.5247 67.49 33.238 71.206 70.594 0.4383 4.4196 0.57527 8.8117 0.32873 13.158-0.72137 10.674-3.6799 28.645-19.313 46.999-2.8946-1.3332-6.1636-1.8536-8.209-1.9906-12.473-0.83095-18.728 5.3966-20.838 8.1086-1.2145 1.5797-0.13697 3.5521 1.6802 3.9082 2.4381 0.45657 9.2135 2.3194 18.107 9.9531 2.8398 2.4837 5.5975 5.4879 8.1725 8.4099 10.939 12.419 25.075 28.846 53.299 29.211h9e-3c1.3058 0 2.365-1.0592 2.365-2.365v-20.262c0-1.3058-1.0592-2.365-2.365-2.365z" fill="#fff"/><path d="m0 413.27c0 1.5615 1.2601 2.8216 2.8216 2.8216h410.46c1.5614 0 2.8216-1.2601 2.8216-2.8216v-410.45c0-1.5615-1.2601-2.8216-2.8216-2.8216h-410.46c-1.5523 0-2.8124 1.251-2.8216 2.8033zm391.86-21.422h-367.62v-367.6h367.62z" fill="#f25346"/><path d="m800 241.57v8.3643h-58.568v-83.661h57.372v8.3734h-48.405v27.485h38.845v8.3643h-38.845v31.074zm-125.5 8.3661v-83.661h8.9578v75.297h43.036v8.3643zm-50.204-38.842 25.102-44.816h10.154l-31.074 54.377v29.284h-8.967v-29.284l-31.074-54.377h10.163l25.093 44.816zm-40.641-44.817v8.3643h-26.298v75.297h-8.9578v-75.297h-26.298v-8.3643zm-121.91 21.512c0-12.19 10.282-22.71 26.892-22.71 16.016 0 24.499 10.757 24.499 10.757l-5.9719 5.981s-6.0997-8.3734-18.527-8.3734c-11.478 0-17.925 6.812-17.925 14.345 0 21.513 45.41 9.5605 45.41 39.438 0 13.743-10.154 23.906-28.088 23.906-19.121 0-28.079-12.546-28.079-12.546l5.497-6.0997s7.0494 10.282 22.582 10.282c12.556 0 19.13-6.5746 19.13-15.541 0-21.513-45.419-9.5605-45.419-39.438" fill="#fff"/></g></svg>
