<?xml version="1.0" encoding="UTF-8"?>
<svg width="450" height="450" version="1.1" viewBox="0 0 450 450" xml:space="preserve" xmlns="http://www.w3.org/2000/svg"><path d="m346.2 316.43c-17.703-0.29703-26.693-9.2574-34.911-18.248 19.149-22.545 28.614-51.743 26.624-80.822-3.9109-57.129-50.099-102.66-107.53-105.33-32.158-1.495-63.525 10.931-86.069 33.931-22.535 23-34.257 53.584-32.069 86.802 3.7822 57.366 51.396 105.38 112.86 105.35 13.327-0.01 26.812-2.2772 40.673-7.5743 1.7228-0.68317 1.7525-2.7525 0.97029-3.8515-2.7921-4.1287-8.1386-9.703-11.01-11.713-2.3663-1.6634-8.6337-6.2376-18.317-5.0891-3.5644 0.46534-5.901 0.78217-12.347 0.78217-47.099 0.0396-83.356-37.178-85.574-81.287-1.2574-24.842 8.4059-49.02 26.386-66.218 17.97-17.198 42.525-25.733 67.376-23.396 40.545 3.8119 72.99 35.941 77.01 76.347 0.47524 4.7822 0.61386 9.5248 0.35643 14.228-0.79208 11.545-3.9802 30.98-20.891 50.822-3.1287-1.4356-6.6634-2-8.8812-2.1485-13.485-0.90099-20.248 5.8317-22.535 8.7624-1.3069 1.7129-0.14851 3.8416 1.8218 4.2376 2.6337 0.48515 9.9604 2.505 19.584 10.752 3.0693 2.6931 6.0495 5.9406 8.8416 9.099 11.832 13.436 27.109 31.198 57.634 31.594h0.01c1.4158 0 2.5644-1.1386 2.5644-2.5544v-21.921c0-1.406-1.1485-2.5545-2.5644-2.5545z" fill="#fff" stroke-width="9.901"/><path d="m0 446.95c0 1.6832 1.3663 3.0496 3.0495 3.0496h443.89c1.6931 0 3.0594-1.3664 3.0594-3.0496v-443.9c0-1.6832-1.3663-3.0496-3.0594-3.0496h-443.89c-1.6832 0-3.0396 1.3565-3.0495 3.0298zm423.77-23.169h-397.55v-397.56h397.55z" fill="#d95a41" stroke-width="9.9012"/></svg>
