<svg xmlns="http://www.w3.org/2000/svg" width="639.926" height="450"><path d="M.104.017L0 308.063h80.373V204.33l91.612.006 70.888 103.723h88.523l-73.754-110.773c47.753-23.701 63.64-66.792 61.785-98.825.619-19.637-7.653-44.47-16.79-55.574-6.036-7.671-14.122-18.286-26.526-24.428C254.298 4.269 227.565-.318 201.959.017zm426.914.616c-20.083 2.555-39.212 8.21-56.609 19.847-15.969 11.481-29.146 28.014-34.73 47.25-6.203 18.39-5.418 38.66-2.522 57.639 4.491 16.078 11.912 32.244 24.129 43.621 7.024 8.217 17.321 15.821 28.035 21.04 15.277 8.496 32.463 12.06 49.603 13.543 33.854 2.934 67.641.474 101.353-1.852 8.856-.614 26.444-3.176 26.444-3.176s-9.809 35.786-23.862 39.552c-14.253 4.287-30.362 1.735-45.31 2.686-21.121-.455-42.46 1.199-63.419-1.722-15.888-2.84-23.169-19.341-27.959-30.917l-73.165 19.144c-1.651 12.77 8.396 27.599 15.668 39.007 8.998 11.129 20.257 20.907 32.524 27.169 12.661 7.224 27.12 12.359 42.08 13.484 42.802 1.384 85.687 1.263 128.494.011 18.847-1.785 37.322-9.509 52.6-20.326 11.668-8.588 22.119-19.526 29.081-32.649 14.064-23.347 9.422-51.377 10.351-77.284-.628-33.478 1.458-67.118-1.574-100.487-5.927-30.376-28.739-55.663-57.41-66.726C564.743 2.758 547.741.633 530.196.633zM80.373 67.451l122.66.076c16.513.209 35.11 8.978 37.759 27.016 4.658 19.838-11.697 41.049-32.382 40.396H80.373zm363.038 0H528.3a33.584 33.584 0 0 1 33.657 33.663v.169A33.584 33.584 0 0 1 528.3 134.94h-84.889a33.584 33.584 0 0 1-33.657-33.657v-.169a33.584 33.584 0 0 1 33.657-33.663z" fill="#f9f9f9"/><defs><linearGradient id="A" x1="0" y1="154.032" x2="639.926" y2="154.032" gradientUnits="userSpaceOnUse"><stop offset="0" stop-color="#b11d22"/><stop offset="1" stop-color="#821619" stop-opacity=".996"/></linearGradient></defs><path d="M.104.017l-.087 252.02c23.282-37.456 53.126-77.884 87.499-117.097h-7.142V67.451l72.484.044c25.602-23.741 52.648-45.807 80.558-65.053C223.011.624 212.399-.12 201.959.017zm559.38 113.954c-5.145 12.695-17.485 20.993-31.184 20.969h-84.889c-13.254-.045-25.242-7.882-30.601-20.005-24.544 6.575-48.888 16.615-72.822 29.223 4.293 9.306 9.908 17.95 17.297 24.832 7.024 8.217 17.321 15.821 28.035 21.04 15.277 8.496 32.463 12.06 49.603 13.543 33.854 2.934 67.641.474 101.353-1.852 8.856-.614 26.444-3.176 26.444-3.176s-9.809 35.786-23.862 39.552c-14.253 4.287-30.362 1.735-45.31 2.686-21.121-.455-42.46 1.199-63.419-1.722-15.888-2.84-23.169-19.341-27.959-30.917l-73.165 19.144c-1.651 12.77 8.396 27.599 15.668 39.007 8.998 11.129 20.257 20.907 32.524 27.169 12.661 7.224 27.12 12.359 42.08 13.484 42.802 1.384 85.687 1.263 128.494.011 18.847-1.785 37.322-9.509 52.6-20.326 11.668-8.588 22.119-19.526 29.081-32.649 14.064-23.347 9.422-51.377 10.351-77.284-.249-13.276-.083-26.578.033-39.879-26.562-10.714-53.495-18.022-80.351-22.848zm-301.82 83.353c-19.893 15.063-39.221 31.177-57.911 47.637l43.12 63.098h88.523z" fill="url(#A)"/><path d="M42.139 450c-8.605 0-16.017-1.634-22.236-4.901-6.219-3.341-10.99-8.168-14.313-14.48S.606 416.734.606 407.897c0-8.911 1.661-16.559 4.984-22.945 3.408-6.46 8.221-11.361 14.441-14.702 6.305-3.416 13.717-5.124 22.236-5.124 8.434 0 15.719 1.708 21.853 5.124 6.219 3.341 10.99 8.205 14.313 14.591 3.408 6.386 5.112 14.034 5.112 22.945 0 8.836-1.661 16.41-4.984 22.722s-8.094 11.138-14.313 14.48S50.658 450 42.139 450zm.128-9.913c8.52 0 14.824-2.599 18.914-7.797 4.175-5.198 6.262-13.329 6.262-24.393 0-11.213-2.087-19.492-6.262-24.838-4.175-5.421-10.479-8.131-18.914-8.131-8.52 0-14.909 2.71-19.169 8.131-4.26 5.346-6.39 13.626-6.39 24.838 0 10.99 2.087 19.121 6.262 24.393 4.26 5.198 10.692 7.797 19.297 7.797zm-4.217-82.416c0 .668-.213 1.151-.639 1.448-.341.297-.937.446-1.789.446h-8.307c-.767 0-1.321-.111-1.661-.334-.256-.297-.383-.743-.383-1.337v-9.802c0-1.04.511-1.559 1.534-1.559h9.712c1.022 0 1.534.483 1.534 1.448zm20.958 0c0 .668-.213 1.151-.639 1.448-.341.297-.937.446-1.789.446h-8.307c-.767 0-1.321-.111-1.661-.334-.255-.297-.383-.743-.383-1.337v-9.802c0-1.04.511-1.559 1.534-1.559h9.712c1.022 0 1.534.483 1.534 1.448zm82.044 42.233q-2.684-3.492-7.029-5.539-4.345-2.168-10.096-2.168-6.39 0-10.479 2.529-4.089 2.408-4.089 6.623 0 2.408 2.045 4.335 2.045 1.927 7.412 3.372l15.719 4.215q8.946 2.168 13.163 6.744 4.345 4.456 4.345 10.597 0 5.78-3.706 10.236-3.578 4.335-10.096 6.744Q131.723 450 123.544 450q-10.224 0-18.019-3.613-7.795-3.733-11.118-9.634-.383-.602-.383-1.084 0-.723.639-1.084l6.262-3.131q.767-.361 1.278-.361.639 0 1.022.482 6.773 9.634 20.064 9.634 7.029 0 11.629-2.408 4.601-2.529 4.601-6.744 0-3.011-2.684-5.058-2.556-2.168-8.562-3.613l-13.035-3.131q-9.457-2.168-13.802-6.382-4.345-4.215-4.345-10.597 0-5.78 3.323-10.115 3.45-4.456 9.457-6.864 6.134-2.529 14.185-2.529 8.69 0 15.591 3.131 6.901 3.131 10.351 8.189.511.723.511 1.204 0 .482-.639.843l-6.645 3.251q-.256.12-.767.12-.767 0-1.406-.602zm46.389-5.78q-1.15 0-1.15 1.204v35.284q0 5.058 1.917 6.984 2.045 1.927 6.39 1.927h8.179q1.534 0 1.534 1.445v5.178q0 1.686-1.917 2.047-4.089.602-13.035.602-8.434 0-12.524-3.613-4.089-3.733-4.089-11.44v-38.174q0-1.445-1.278-1.445h-9.585q-1.661 0-1.661-1.445v-6.382q0-1.325 1.534-1.325h10.224q1.022 0 1.022-1.084l1.534-18.906q.256-1.686 1.534-1.686h8.818q1.661 0 1.661 1.927v18.665q0 1.084 1.15 1.084h15.335q1.534 0 1.534 1.325v6.382q0 1.445-1.789 1.445zm40.472 27.215c0 3.613.895 6.904 2.684 9.875 1.874 2.89 4.388 5.218 7.54 6.984 3.152 1.686 6.603 2.529 10.351 2.529 3.919 0 7.412-.763 10.479-2.288s5.879-3.894 8.434-7.105c.256-.321.554-.482.895-.482.426 0 .767.08 1.022.241l6.518 2.89c.426.241.639.562.639.963 0 .241-.128.562-.383.963-3.578 4.977-7.668 8.59-12.268 10.838-4.601 2.168-10.181 3.251-16.741 3.251-6.39 0-12.098-1.365-17.124-4.094s-8.946-6.543-11.757-11.44c-2.811-4.977-4.217-10.597-4.217-16.859 0-6.744 1.448-12.684 4.345-17.822s6.816-9.072 11.757-11.801c5.027-2.81 10.607-4.215 16.741-4.215 6.305 0 11.842 1.325 16.613 3.974 4.771 2.569 8.434 6.342 10.99 11.32 2.641 4.977 3.962 10.878 3.962 17.702v.482c0 .723-.128 1.284-.383 1.686-.17.321-.682.482-1.534.482h-47.284c-.852 0-1.278.642-1.278 1.927zm34.888-9.513c.852 0 1.406-.12 1.661-.361.341-.241.511-.682.511-1.325 0-3.131-.724-6.061-2.172-8.791-1.363-2.73-3.408-4.897-6.134-6.503-2.641-1.686-5.793-2.529-9.457-2.529-3.834 0-7.199.923-10.096 2.77a18.62 18.62 0 0 0-6.773 7.105c-1.534 2.89-2.258 6.061-2.172 9.513zm29.303 36.97q-2.045 0-2.045-1.927v-60.091q0-1.806 1.661-1.806h9.84q1.534 0 1.534 1.565v7.587q0 .723.383.843.511.12 1.022-.482 4.728-5.178 9.712-7.948 5.112-2.77 9.968-2.77 4.473 0 4.473 1.686v9.393q0 1.445-1.406 1.204-2.428-.602-6.773-.602-3.578 0-7.54 1.927-3.962 1.806-6.645 4.817-2.684 3.011-2.684 6.142v38.415q0 2.047-2.428 2.047zm49.756 0c-1.363 0-2.045-.642-2.045-1.927v-60.091c0-1.204.554-1.806 1.661-1.806h9.84c1.022 0 1.534.522 1.534 1.565v7.587c0 .482.128.763.383.843.341.08.682-.08 1.022-.482 3.152-3.452 6.39-6.101 9.712-7.948 3.408-1.846 6.731-2.77 9.968-2.77 2.982 0 4.473.562 4.473 1.686v9.393c0 .963-.469 1.365-1.406 1.204-1.619-.401-3.876-.602-6.773-.602-2.385 0-4.899.642-7.54 1.927-2.641 1.204-4.856 2.81-6.645 4.817s-2.684 4.054-2.684 6.142v38.415c0 1.365-.809 2.047-2.428 2.047zm54.908-27.457c0 3.613.895 6.904 2.684 9.875 1.874 2.89 4.388 5.218 7.54 6.984 3.152 1.686 6.603 2.529 10.351 2.529 3.919 0 7.412-.763 10.479-2.288s5.879-3.894 8.434-7.105c.256-.321.554-.482.895-.482.426 0 .767.08 1.022.241l6.518 2.89c.426.241.639.562.639.963 0 .241-.128.562-.383.963-3.578 4.977-7.668 8.59-12.268 10.838-4.601 2.168-10.181 3.251-16.741 3.251-6.39 0-12.098-1.365-17.124-4.094s-8.946-6.543-11.757-11.44c-2.811-4.977-4.217-10.597-4.217-16.859 0-6.744 1.448-12.684 4.345-17.822s6.816-9.072 11.757-11.801c5.027-2.81 10.607-4.215 16.741-4.215 6.305 0 11.842 1.325 16.613 3.974 4.771 2.569 8.434 6.342 10.99 11.32 2.641 4.977 3.962 10.878 3.962 17.702v.482c0 .723-.128 1.284-.383 1.686-.17.321-.681.482-1.534.482h-47.284c-.852 0-1.278.642-1.278 1.927zm34.888-9.513c.852 0 1.406-.12 1.661-.361.341-.241.511-.682.511-1.325 0-3.131-.724-6.061-2.173-8.791-1.363-2.73-3.408-4.897-6.134-6.503-2.641-1.686-5.793-2.529-9.457-2.529-3.834 0-7.199.923-10.096 2.77a18.62 18.62 0 0 0-6.773 7.105c-1.534 2.89-2.258 6.061-2.172 9.513zm38.045-39.619c0 .883-.213 1.525-.639 1.927-.341.401-.98.602-1.917.602h-9.457c-.852 0-1.448-.161-1.789-.482-.341-.401-.511-1.004-.511-1.806V361.49c0-1.365.639-2.047 1.917-2.047h10.607c.511 0 .937.201 1.278.602.341.321.511.763.511 1.325zm-.383 74.3c0 .883-.213 1.485-.639 1.806-.341.321-.98.482-1.917.482h-8.69c-.852 0-1.448-.12-1.789-.361-.341-.321-.511-.843-.511-1.565v-60.091c0-.642.128-1.084.383-1.325.255-.321.724-.482 1.406-.482h10.224c1.022 0 1.534.562 1.534 1.686zm44.515-62.739c6.645 0 12.268 1.485 16.869 4.456s8.051 6.824 10.351 11.56a2.28 2.28 0 0 1 .256 1.084c0 .482-.383.803-1.15.963l-9.073 1.445h-.383c-.511 0-.937-.321-1.278-.963-2.386-3.292-4.686-5.7-6.901-7.225-2.215-1.606-4.899-2.408-8.051-2.408-5.964 0-10.692 2.127-14.185 6.382s-5.24 10.196-5.24 17.822c0 7.707 1.789 13.688 5.367 17.943s8.434 6.382 14.569 6.382c3.834 0 7.114-.923 9.84-2.77 2.811-1.846 5.41-4.616 7.795-8.309.256-.321.511-.522.767-.602s.596-.04 1.022.12l6.773 1.927c.767.241.937.843.511 1.806-2.386 4.737-5.921 8.711-10.607 11.922-4.601 3.131-10.351 4.696-17.252 4.696-6.305 0-11.928-1.365-16.869-4.094-4.941-2.81-8.818-6.703-11.629-11.681-2.726-4.977-4.089-10.677-4.089-17.1s1.406-12.163 4.217-17.22 6.688-8.992 11.629-11.801c4.941-2.89 10.522-4.335 16.741-4.335zm40.58 65.028c-.767 0-1.321-.161-1.661-.482-.256-.321-.383-.803-.383-1.445v-85.62c0-1.204.511-1.806 1.534-1.806h10.096c1.022 0 1.534.522 1.534 1.565v31.791c0 .963.426 1.084 1.278.361 4.515-3.372 8.477-5.78 11.885-7.225s7.114-2.168 11.118-2.168c6.56 0 11.587 1.646 15.08 4.937s5.24 7.827 5.24 13.608v44.315c0 1.445-.724 2.168-2.172 2.168h-9.457c-1.278 0-1.917-.642-1.917-1.927V404.72c0-3.613-.98-6.382-2.939-8.309-1.96-2.007-4.941-3.011-8.946-3.011-3.323 0-6.347.682-9.073 2.047-2.641 1.365-5.879 3.693-9.712 6.984v44.315c0 1.365-.809 2.047-2.428 2.047zm84.951-1.927c0 .723-.17 1.244-.511 1.565-.341.241-.937.361-1.789.361h-8.946c-.682 0-1.193-.12-1.534-.361-.256-.241-.383-.682-.383-1.325v-10.356c0-1.044.469-1.565 1.406-1.565h10.479c.852 0 1.278.482 1.278 1.445z" fill="#f9f9f9"/></svg>