<?xml version="1.0" encoding="UTF-8" standalone="no"?>
<!-- Created with Inkscape (http://www.inkscape.org/) -->
<svg
   xmlns:svg="http://www.w3.org/2000/svg"
   xmlns="http://www.w3.org/2000/svg"
   version="1.0"
   width="602.36218"
   height="122.20866"
   id="svg7639">
  <defs
     id="defs7641" />
  <g
     id="layer1">
    <g
       transform="matrix(3.543307e-5,0,0,3.543307e-5,-3.691406e-6,-3.367201e-3)"
       style="fill-rule:evenodd"
       id="Layer_x0020_1">
  
  <g
   id="_112452944">
   <path
   d="M 9925810,1096150 L 9502440,1096150 L 9502440,636460 L 9925810,636460 L 9925810,1096150 z M 13102310,1853830 C 13471190,1920190 13727580,2060830 13727580,2399370 C 13727580,2764650 13472750,2944860 13102310,2944520 L 11170900,2944520 L 11170900,1719900 C 11170900,1588160 11100950,1514750 10961330,1514750 L 9925810,1514750 L 9925810,1096150 L 10961330,1096150 C 11379600,1096150 11589510,1362300 11589510,1719900 L 11589510,2524020 L 13099060,2524020 C 13276540,2524020 13311890,2479290 13311890,2415320 C 13311890,2345850 13231960,2297820 13102310,2278620 L 12565860,2187560 C 12206900,2112260 11940600,1979890 11940600,1641340 C 11940600,1276060 12195430,1096150 12565860,1096150 L 13557090,1096150 L 13557090,1514750 L 12565860,1514750 C 12388380,1514750 12356290,1561420 12356290,1625540 C 12356290,1695010 12445790,1734970 12565860,1760200 L 13102310,1853830 z M 7666700,1707700 L 7666700,1833760 L 8683160,1833760 L 8683160,1675960 C 8683160,1590060 8602020,1503090 8492300,1503090 L 7862370,1503280 C 7764260,1503280 7666700,1587330 7666700,1707700 z M 9925810,1514750 L 9925810,2362670 C 9925810,2783320 9693440,2947440 9344100,2947440 L 7852930,2947440 C 7524500,2947440 7259700,2738400 7259700,2349640 L 7259700,1712320 C 7259700,1350490 7520420,1100960 7862370,1100960 L 8492300,1100960 C 8915040,1100960 9090100,1444120 9090100,1680620 L 9090100,2205890 L 7666700,2205890 L 7666700,2349640 C 7666700,2475650 7748510,2528830 7852930,2528830 L 9344100,2528830 C 9514250,2528830 9507200,2475840 9507200,2362670 L 9507200,1514750 L 9925810,1514750 z M 15585930,1229250 C 15585930,1052390 15554040,1012430 15554040,1012430 C 15554040,1012430 15405670,930810 15102120,930810 C 15036790,931350 14960460,935820 14882970,946420 L 14882970,667030 L 14751430,667030 L 14751430,1497250 C 14751430,1497250 14961830,1523360 15141740,1523360 C 15469980,1523360 15555060,1455110 15555060,1455110 C 15555060,1455110 15585930,1411550 15585930,1229250 z M 15453550,1235030 C 15453550,1283740 15449420,1331290 15445970,1360260 C 15403970,1371730 15310000,1391130 15143790,1391470 C 15070910,1391470 14984330,1386120 14882970,1377420 L 14882970,1079860 C 15163860,1037660 15366240,1084820 15444120,1109510 C 15447520,1138340 15453550,1186370 15453550,1235030 z M 16500000,1229250 C 16500000,1052390 16467920,1012430 16467920,1012430 C 16467920,1012430 16319410,930810 16016060,930810 C 15950720,931350 15874540,935820 15796860,946420 L 15796860,667030 L 15665170,667030 L 15665170,1497250 C 15665170,1497250 15875760,1523360 16055680,1523360 C 16383920,1523360 16468990,1455110 16468990,1455110 C 16468990,1455110 16500000,1411550 16500000,1229250 z M 16367290,1235030 C 16367290,1283740 16363300,1331290 16359900,1360260 C 16317900,1371730 16223730,1391130 16057520,1391470 C 15984850,1391470 15898220,1386120 15796860,1377420 L 15796860,1079860 C 16077800,1037660 16279790,1084820 16358000,1109510 C 16361260,1138340 16367290,1186370 16367290,1235030 z M 14664990,933390 C 14158050,936160 13956350,1055500 13956350,1055500 L 13956350,1514750 L 14090960,1514750 L 14090960,1142080 C 14154600,1121040 14333160,1069750 14664990,1065280 L 14664990,933390 z "
   style="fill:#f5821f"
   id="_85448864" />

   <path
   d="M 4241000,500000 L 4241000,1266780 C 4151170,1135570 3971780,1056380 3785540,1056380 C 3365380,1056380 3140540,1332110 3140540,1866670 L 3140540,2138660 C 3140540,2673210 3365380,2949190 3785540,2949190 C 3971780,2949190 4151170,2869610 4241000,2738740 L 4241000,2911080 L 4595830,2911080 L 4595830,500000 L 4241000,500000 L 4241000,500000 z M 4241000,2159420 C 4241000,2452700 4106250,2621630 3868530,2621630 C 3633920,2621630 3495710,2490770 3495710,2125290 L 3495710,1880420 C 3495710,1514410 3633920,1383740 3868530,1383740 C 4106250,1383740 4241000,1552480 4241000,1845910 L 4241000,2159420 z M 6311350,1056380 L 6143980,1056380 C 5723280,1056380 5498780,1332110 5498780,1866670 L 5498780,2138660 C 5498780,2673210 5723280,2949190 6143980,2949190 L 6311350,2949190 C 6731520,2949190 6956360,2673210 6956360,2138660 L 6956360,1866670 C 6956360,1332110 6731520,1056380 6311350,1056380 z M 6600990,2125290 C 6600990,2490770 6462930,2621630 6228320,2621630 L 6226810,2621630 C 5992210,2621630 5853950,2490770 5853950,2125290 L 5853950,1880420 C 5853950,1514410 5992210,1383740 6226810,1383740 L 6228320,1383740 C 6462930,1383740 6600990,1514410 6600990,1880420 L 6600990,2125290 z M 4892720,2911080 L 5248180,2911080 L 5248180,1100960 L 4892720,1100960 L 4892720,2911080 z M 5248080,500000 L 4892620,500000 L 4892620,822740 L 5248080,822740 L 5248080,500000 z M 4892720,500000 L 5248080,500000 M 1267760,1098720 C 1088710,1098720 937480,1187880 854640,1308780 L 854640,1100080 L 500000,1100080 L 500000,2908890 L 854640,2908890 L 854640,1911780 C 854640,1604980 985850,1448400 1209270,1448400 C 1208930,1448740 1477180,1448740 1477180,1448740 L 1477180,1098720 C 1477180,1098720 1267950,1098870 1267760,1098720 z M 2234140,1100420 L 1700660,1100420 L 1700660,1449950 L 2223890,1449950 C 2444400,1449950 2565010,1560210 2565010,1756750 L 2565010,1821750 C 2465150,1777170 2330880,1752960 2161810,1752960 C 1751410,1752960 1441360,1935450 1441360,2338990 C 1441360,2783510 1775910,2948990 2068860,2948990 C 2265210,2948990 2441140,2856050 2565010,2732030 L 2565010,2911080 L 2913270,2911080 L 2913270,1707020 C 2913270,1296630 2637680,1100420 2234140,1100420 z M 2565010,2397480 C 2482320,2511180 2316980,2628630 2127340,2628630 C 1892880,2628630 1779170,2507730 1779170,2328540 C 1779170,2163210 1923940,2059610 2151500,2059610 C 2344590,2059610 2468410,2090820 2565010,2138850 L 2565010,2397480 z "
   style="fill:#614e4a"
   id="_85159784" />

  </g>

 </g>
  </g>
</svg>
