<svg xmlns="http://www.w3.org/2000/svg" id="Warstwa_1" width="150" height="123.787"><style id="style2">.st0{fill:#e50046}</style><path class="st0" d="M145.834 3.07c-11.247-10.122-41.988 5.624-68.23 34.866-11.622 13.121-20.62 26.617-25.868 38.239l8.247 24.368V70.552h4.499c3.749-8.623 10.497-18.37 19.12-28.118 19.12-21.369 41.613-32.615 49.86-25.492 8.248 7.498-.75 30.741-20.244 52.11-.375.375-.75 1.125-1.124 1.5 1.124-.375 2.624-.375 4.498-.375 2.25 0 4.124.375 5.249.75 23.618-27.743 34.865-58.11 23.993-67.857" id="path4" fill="#e50046" stroke-width="3.749"/><path class="st0" d="M125.59 24.065c-6.748-5.999-24.743 3.374-40.489 20.619-7.873 8.622-13.496 17.62-16.495 25.493h4.873c3 0 4.5.375 4.5.375.374-5.249 4.873-13.872 11.62-21.744 9.748-10.872 20.62-16.496 24.744-12.747 4.124 3.75-.375 15.371-10.122 25.868-2.624 3-5.624 5.623-8.248 7.873h4.499v4.873c3-2.624 5.623-5.248 8.622-8.622 15.746-16.87 22.87-35.99 16.496-41.988" id="path6" fill="#e50046" stroke-width="3.749"/><path class="st0" d="M95.973 53.306c2.624-2.999 5.998-4.873 6.748-3.749 1.125.75-.375 4.124-2.999 7.123-2.624 3-5.998 4.874-6.748 3.75-1.125-1.125 0-4.124 3-7.124M86.6 67.178c2.624 2.249 9.372-1.125 15.37-7.873 5.999-6.748 8.998-13.871 6.374-16.12-2.625-2.25-9.373 1.124-15.371 7.872-5.998 6.373-8.997 13.871-6.373 16.12M17.995 80.3c0 2.624-2.624 2.999-4.499 2.999H9.747v-5.623h3.75c.749 0 1.874 0 2.623.375 1.5.374 1.875 1.124 1.875 2.249m10.497 20.994l-5.998-13.121c3.749-1.5 5.623-4.124 5.623-7.873 0-3-1.125-5.624-3.749-7.123-2.25-1.5-5.248-1.875-8.248-1.875H0v29.992h9.747V89.671h3l4.498 11.622zm17.245-12.746H40.49l2.624-8.623zm3.374 12.746h10.122L49.111 71.301H38.99l-9.747 29.992h7.873l1.874-5.998h8.623zm29.617-15.37c0 1.874-.375 4.123-1.5 5.623-.374.75-1.124 1.5-2.249 1.874-1.125.75-1.874.375-3.374.375h-1.5V77.3h1.125c2.25 0 3.749 0 5.249 1.874 1.5 2.25 2.249 4.874 2.249 6.748m5.623 11.247c3-2.999 4.5-7.123 4.5-10.872 0-4.499-1.5-8.622-4.874-11.622-3.375-2.999-7.123-3.748-11.622-3.748H60.733v29.991h10.122s.375 0 .375-.375c2.25-1.5 4.124-2.25 5.249-2.25.75 0 1.124 0 1.5.376.374.375.374.75.374 1.124 1.875-1.124 3.374-1.5 4.124-1.5.75 0 1.5-.374 1.874-1.124m5.624 4.124h9.747V71.301h-9.747zm30.741-14.996c0 3-.375 8.623-4.873 8.623-4.5 0-4.874-5.624-4.874-8.623 0-2.999.375-8.997 4.874-8.997 4.498 0 4.873 5.998 4.873 8.997m10.497 0c0-8.997-5.623-15.745-15.37-15.745-9.748 0-15.371 6.748-15.371 15.745 0 8.623 5.623 15.37 15.37 15.37 9.748 0 15.371-6.747 15.371-15.37" id="path8" fill="#e50046" stroke-width="3.749"/><path class="st0" d="M115.843 112.165c0-.75.75-1.875 1.124-2.624.75-1.125 2.25-1.875 3-1.875.374 0 .75.375.75.375v.375h-.376c-.375 0-.75.375-.75.75s-.374.75-1.499 1.5c-.375.374-1.5 1.499-2.25 1.499 0 .375 0 0 0 0m4.874-6.748c-.75 0-1.5.375-2.25.75-.749.375-2.248 1.5-3.373 2.999-1.125 1.5-1.875 2.999-1.875 4.124 0 .75.375 1.5 1.125 1.5s1.875-.75 2.25-.75c.75-.375 1.499-1.125 1.874-1.5h.375c0 .375 0 1.125-.375 2.25-.375 1.499-.75 3.373-1.875 4.873-1.124 1.5-2.249 2.25-2.999 2.25-.375 0-.75-.376-1.124-.75-.375-.375-.75-.75-1.125-.75s-1.5.75-1.5 1.5c0 .749 1.125 1.124 1.875 1.124h1.874c.75 0 2.25-.75 3.374-1.5 1.125-1.124 2.625-2.999 3.374-5.998.375-1.125 1.125-3.749 1.5-6.373v-1.125c.375-.375.75-.75.75-1.5 0 0-.375-1.124-1.875-1.124m-14.996-.375c-.374 0-1.124.375-1.5 1.125-.374.75-1.124 3.374-1.874 6.373v1.125c.375.374.375.374.75.374 0 0 .375 0 .75-.374 1.125-1.875 2.624-3.375 3.749-4.874.375-.375.375-.375.75-.375v.375c0 .375-.375 1.125-.375 2.25-.375 2.624.375 3.748 1.5 3.748 1.499 0 3.373-1.124 5.623-4.873.375-.75.375-1.125.375-1.125h-.375c-1.5 1.874-3.75 4.124-4.499 4.124-.375 0-.75-.375-.375-1.875l1.125-3.374c.375-.375.375-1.124.75-1.124 0-.375.375-.75-.375-1.125-.375 0-.375-.375-.75-.375s-.375 0-.75.375c0 .375-.375.375-.375.375-.375 0-.375.375-1.124.75-.75.75-2.25 1.874-3 2.624-.374.375-.374.375-.374 0s.374-1.5.75-1.875c.374-.375.374-.75.75-.75 0 0 .374 0 .374-.374 0-.375-.75-1.125-1.5-1.125m-6.748 7.498c-.375 0-.375-.375-.375-.75 0-1.125.75-2.624 1.125-3.749.375-.375.375-.75.375-1.125.375-.75-.375-1.5-1.125-1.5-.375 0-.75.376-1.124.75-.375.75-1.5 2.625-2.625 4.124-1.124 1.5-1.874 1.875-2.249 1.875s-.375-.375 0-1.125c.375-1.124.375-1.5.75-1.874 0-.375.375-.375.75-.75.374-.375.75-1.125.75-1.5 0-.374-.75-1.124-1.5-1.124-.375 0-.75.375-.75.75L91.1 110.29c-.75 1.875-.75 2.625-.75 3 0 .75.375 1.5 1.124 1.5.375 0 .75 0 1.5-.376 1.5-1.124 3.374-2.624 3.749-2.999 0 0 .375 0 .375.375s0 .75-.375 1.125c-.375 1.5 0 2.25 1.125 2.25.375 0 1.124 0 1.874-.376.75-.375 2.25-1.5 4.499-4.124.375-.375.375-1.124.375-1.5 0-.374-.375-.374-.375 0-2.25 1.5-4.499 3.375-5.249 3.375m-16.495-7.498c-.375 0-1.125.375-1.5 1.125s-1.124 3.374-1.874 6.373v1.125c.375.374.375.374.75.374 0 0 .375 0 .75-.374 1.124-1.875 2.624-3.375 3.748-4.874.375-.375.375-.375.75-.375v.375c0 .375-.375 1.125-.375 2.25-.375 2.624.375 3.748 1.5 3.748s3.374-1.124 5.623-4.873c.375-.75.375-1.125.375-1.125h-.375c-1.5 1.874-3.749 4.124-4.498 4.124-.375 0-.75-.375-.375-1.875l1.124-3.374c.375-.375.375-1.124.75-1.124 0-.375.375-.75-.375-1.125-.375 0-.375-.375-.75-.375-.374 0-.374 0-.75.375 0 .375-.374.375-.374.375-.375 0-.375.375-1.125.75-.75.75-2.25 1.874-3 2.624-.374.375-.374.375-.374 0s.375-1.5.75-1.875.375-.75.75-.75c0 0 .375 0 .375-.374-.375-.375-.75-1.125-1.5-1.125m-.75-5.623c-.75 0-1.874.374-3.374 1.5-1.5 1.124-2.624 2.998-3.374 5.248 0 .375 0 .375-.375.375s-.75 0-1.125.374c-.374 0-.374.375-.374.75s.374.75 1.124.75c.375 0 .375 0 .375.375-.375 2.25-1.5 5.998-1.874 7.498-1.125 3.749-1.5 4.124-3 4.873-.374 0-.75.375-1.124 1.125-.375.375-.375.75 0 1.125 0 0 .375.375.75.375h.75c1.499-.75 2.999-2.625 3.748-4.124.75-1.5 1.5-3.75 2.25-7.123.375-1.5.75-3 1.124-3.75 0-.374 0-.374.375-.374.75 0 3-.375 4.499-1.5.375-.374.75-.75 0-.75-1.125.376-2.25.376-4.124.75 0 0-.375 0 0-.374 1.125-3.375 2.624-4.5 4.124-4.5.375 0 .75-.374 1.125-.749s.375-.75 0-1.125c-.75-.375-1.125-.75-1.5-.75m-5.998 0c-.75 0-1.875.375-3.374 1.5-1.5 1.125-2.625 3-3.374 5.249 0 .375 0 .375-.375.375s-.75 0-1.125.374c-.375 0-.375.375-.375.75s.375.75 1.125.75c.375 0 .375 0 .375.375-.375 2.25-1.5 5.998-1.875 7.498-1.124 3.749-1.5 4.124-2.999 4.873-.375 0-.75.375-1.125 1.125-.374.375-.374.75 0 1.125 0 0 .375.375.75.375h.75c1.5-.75 3-2.625 3.749-4.124.75-1.5 1.5-3.75 2.25-7.123.374-1.5.75-3 1.124-3.75 0-.374 0-.374.375-.374.75 0 3-.375 4.499-1.5.375-.374.75-.75 0-.75-1.125.376-2.25.376-4.124.75 0 0-.375 0 0-.374 1.125-3.375 2.624-4.5 4.124-4.5.375 0 .75-.374 1.124-.749.375-.375.375-.75 0-1.125-.75-.375-1.124-.75-1.5-.75m-13.87 13.122c0-1.125 1.124-3 2.25-4.499 0-.375.374-.375.749-.375s.75.75.75 1.5-.75 2.999-1.5 3.749c-.375.375-.75.75-1.125.75-1.124-.375-1.124-.75-1.124-1.125m-2.625.375c0 1.124.75 2.25 1.875 2.25 1.874 0 3.374-1.126 4.874-2.625 1.124-1.125 1.5-2.25 1.5-3.374 0-1.125-.376-2.25-1.126-2.624 0 0-.374 0-.374-.375s0-1.125-1.125-1.125c-.375 0-.75 0-1.125.375s-.375.375-.75.375-.375 0-.75.375c0 .375-.374.375-.374.75 0 .374-.375.75-.375 1.124-.375.375-1.125 1.5-1.5 2.25-.75 1.124-.75 1.874-.75 2.624m-.75-10.497c-.75 0-.75 0-1.124.75-.375.75-1.5 4.123-1.875 4.873 0 0 0 .375-.374.375h-3.75s-.374 0 0-.375c0-.375 1.125-2.624 1.125-2.999.75-1.875-.75-2.25-1.124-2.25-.375 0-.75.375-.75.75-.375 1.125-1.5 4.124-1.875 4.5 0 .374 0 .374-.375.374-.374 0-1.124.375-1.124.75s.375.375.375.75v.375c0 .374-.75 2.249-.75 2.999 0 1.124 0 1.874.75 1.874s1.124-.375 1.5-.75l1.124-1.124c.375-.75 0-.75-.375-1.125 0 0-.375 0 0-.375.375-.75.75-1.5.75-1.874 0-.375.375-.375.375-.375h4.124c.374 0 .374 0 0 .375 0 .375-.75 2.624-.75 3.374 0 1.124.375 1.874.75 1.874 0 0 .374 0 .75-.375.374-.375 1.499-1.5 1.874-2.624 0-.375 0-.75-.375-.75s-.375 0 0-.375c.375-.75.375-1.124.375-1.124l.375-.375c1.124 0 2.25-.375 2.624-.75.375-.375.375-.75-.375-.375h-1.874c-.375 0-.375 0 0-.375.375-1.125.75-1.874 1.124-2.999.375-.75.375-1.125.375-1.5-.375-.75-.75-1.124-1.5-1.124m-20.619 7.498c-.374 0-.374 0-.374-.375.374-.75 1.124-1.875 1.5-1.875.374 0 .749.375.749.75 0 0-1.125 1.5-1.875 1.5m-3.749 2.624c0 1.5 1.125 2.624 2.25 2.624 2.999 0 6.373-2.25 7.873-4.499.375-.374.375-.75.375-1.124 0 0-.375-.375-.75 0-2.625 2.624-4.874 3.374-6.373 3.374-.75 0-1.125-.375-1.125-1.125 0-.375 0-.75.375-.75 0 0 0-.375.375 0 .375 0 .375.375.75.375 1.499 0 2.249-.75 2.999-1.124.374-.75 1.124-1.5 1.124-2.25 0-1.125-.75-1.5-1.5-1.5 0 0-.374 0-.374-.374 0-.375-.375-.375-.75-.375-1.125 0-2.25 1.5-3 2.25-1.499 1.124-2.249 2.998-2.249 4.498m-3.374 0c-.374 0-.374-.375-.374-.75 0-1.125.75-2.624 1.124-3.749.375-.375.375-.75.375-1.125.375-.75-.375-1.5-1.125-1.5-.374 0-.75.376-1.124.75-.375.75-1.5 2.625-2.625 4.125-1.124 1.5-1.874 1.874-2.249 1.874s-.375-.375 0-1.125c.375-1.124.375-1.5.75-1.874 0-.375.375-.375.75-.75s.75-1.125.75-1.5c0-.374-.75-1.124-1.5-1.124-.375 0-.75.375-.75.75l-1.874 3.749c-.375 1.874-.375 2.624-.375 2.999 0 .75.375 1.5 1.124 1.5.375 0 .75 0 1.5-.376 1.5-1.124 3.374-2.624 3.749-2.999 0 0 .375 0 .375.375s0 .75-.375 1.125c-.375 1.5 0 2.25 1.125 2.25.375 0 1.124 0 1.874-.376.75-.375 2.25-1.5 4.499-4.124.375-.374.375-1.124.375-1.5 0-.374-.375-.374-.375 0-2.624 1.5-4.499 3.375-5.624 3.375m-13.87-2.624c-.376 0-.376 0-.376-.375.375-.75 1.125-1.875 1.5-1.875.75-.375.75 0 .75 0 0 .75-1.125 2.25-1.875 2.25m-3.374 2.624c0 1.5 1.125 2.624 2.25 2.624 2.999 0 6.373-2.25 7.872-4.499.375-.375.375-.75.375-1.124 0 0-.375-.375-.75 0-2.624 2.624-4.873 3.374-6.373 3.374-.75 0-1.124-.375-1.124-1.125 0-.375 0-.75.374-.75 0 0 0-.375.375 0 .375 0 .375.375.75.375 1.5 0 2.25-.75 3-1.125.374-.75 1.124-1.5 1.124-2.249 0-1.125-.75-1.5-1.5-1.5 0 0-.374 0-.374-.374 0-.375-.375-.375-.75-.375-1.125 0-2.25 1.5-3 2.25-1.499 1.124-2.249 2.998-2.249 4.498m-7.498-9.747c-.375 0-.75 0-.75.374l-.374.375s0 .375-.375.375l-.75.75c0 .375 0 .75.375.75 0 0 .375.375 0 .75 0 .75-1.5 4.498-2.624 6.373 0 .375-.375 1.125-.375 1.125 0 .75.75 1.124 1.124 1.124.375 0 .75 0 1.125-.75.75-.75.75-1.124.75-2.249v-.75c.375-.75 1.125-2.624 1.5-3.374 0 0 .374-.375.374 0 .375.75 1.5 2.625 2.25 4.124.75 1.125 1.124 1.875 1.124 1.875.375.374.75.75 1.125.75s.75-.376.75-.376c.375-.374.375-.75 0-.75 0-.374-.375-.374-.375-.75 0-.374 0-.749.375-1.499.75-2.25 1.125-3.749 2.25-5.998 0-.375.374-.75.749-.75s.75-.375.75-.375c0-.375-.375-1.874-1.125-1.874-.375 0-.75 0-1.125.375-.374.375-.75 1.124-1.5 2.624 0 1.874-.374 3.374-1.124 4.874 0 .375 0 .375-.375 0s-2.624-4.124-2.624-4.874c0-.375-.375-.375-.375-.75v-.375s.375-.375 0-.75c0 0 0-.374-.75-.374" id="path10" fill="#e50046" stroke-width="3.749"/></svg>