<svg xmlns="http://www.w3.org/2000/svg" width="150" height="67.335"><path d="M.005 60.284V38.175c0-.574.066-1.21.197-1.91.126-.7.428-1.31.892-1.83.287-.337.725-.654 1.325-.952.595-.297 1.36-.448 2.298-.448h15.064c1.088 0 2.126.11 3.114.332.983.217 1.855.746 2.606 1.578.65.67 1.149 1.587 1.501 2.741.348 1.155.525 2.717.525 4.692 0 .47-.02 1.084-.06 1.85a15.978 15.978 0 0 1-.308 2.394 13.37 13.37 0 0 1-.741 2.414c-.328.776-.771 1.41-1.346 1.905-.645.544-1.42.927-2.313 1.149-.897.222-1.718.332-2.474.332H8.805v7.862zM15.109 45.65c.544 0 1.078-.02 1.597-.06.52-.04.958-.252 1.32-.64.47-.52.701-1.31.701-2.38 0-.362-.035-.735-.116-1.128-.075-.388-.297-.726-.66-1.008a2.26 2.26 0 0 0-1.265-.544c-.478-.056-.982-.08-1.502-.08h-4.863c-.363 0-.645.06-.836.176a1.363 1.363 0 0 0-.449.408 1.24 1.24 0 0 0-.196.504 3.708 3.708 0 0 0-.036.509v4.243h6.305" fill="#3da9d1"/><path d="M.005 60.284V38.175c0-.574.066-1.21.197-1.91.126-.7.428-1.31.892-1.83.287-.337.725-.654 1.325-.952.595-.297 1.36-.448 2.298-.448h15.064c1.088 0 2.126.11 3.114.332.983.217 1.855.746 2.606 1.578.65.67 1.149 1.587 1.501 2.741.348 1.155.525 2.717.525 4.692 0 .47-.02 1.084-.06 1.85a15.978 15.978 0 0 1-.308 2.394 13.37 13.37 0 0 1-.741 2.414c-.328.776-.771 1.41-1.346 1.905-.645.544-1.42.927-2.313 1.149-.897.222-1.718.332-2.474.332H8.805v7.862z" fill="none" stroke="#3da9d1" stroke-width=".0100793"/><path d="M15.109 45.65c.544 0 1.078-.021 1.597-.061.52-.036.958-.252 1.32-.64.47-.52.701-1.31.701-2.374 0-.363-.035-.74-.116-1.129-.075-.388-.297-.726-.66-1.013a2.26 2.26 0 0 0-1.265-.544c-.478-.056-.982-.08-1.502-.08h-4.863c-.363 0-.645.06-.836.176a1.363 1.363 0 0 0-.449.408 1.262 1.262 0 0 0-.196.509 3.638 3.638 0 0 0-.036.504v4.243z" fill="none" stroke="#3da9d1" stroke-width=".0100793"/><path d="M43.296 39.652c1.27 0 2.328.186 3.17.564.846.378 1.486.787 1.93 1.225.413.418.75.877 1.013 1.386.257.504.458 1.008.6 1.517.146.504.236 1.013.272 1.517.04.504.06.967.06 1.38v8.644c0 .544-.05 1.108-.156 1.693-.101.585-.388 1.124-.857 1.618-.494.519-1.048.826-1.673.932-.62.1-1.23.156-1.83.156H33.68c-.65 0-1.305-.055-1.966-.156-.66-.106-1.264-.413-1.809-.932a4.397 4.397 0 0 1-.937-1.285 6.697 6.697 0 0 1-.504-1.538c-.1-.534-.166-1.058-.197-1.577-.025-.519-.035-.988-.035-1.401 0-.443.02-.902.056-1.386.04-.479.115-.952.236-1.416.116-.469.293-.912.525-1.325.231-.419.559-.782.972-1.089.57-.443 1.174-.7 1.81-.781a15.706 15.706 0 0 1 1.849-.116h9.031v-.313c0-.18-.02-.393-.055-.64a1.584 1.584 0 0 0-.333-.72c-.287-.388-.65-.625-1.089-.7a6.95 6.95 0 0 0-1.25-.117h-10.35v-5.14zm-5.998 12.534c-.126 0-.302.02-.524.06-.221.04-.418.136-.604.292a.929.929 0 0 0-.252.449 2.531 2.531 0 0 0-.056.524c0 .156.02.312.056.464a.94.94 0 0 0 .252.428c.13.131.292.222.488.277.197.05.383.076.565.076h3.971c.207 0 .413-.02.62-.06.212-.036.378-.107.509-.212a.788.788 0 0 0 .333-.47 2.85 2.85 0 0 0 .055-.543v-1.285h-5.413" fill="#3da9d1"/><path d="M43.296 39.652c1.27 0 2.328.186 3.17.564.846.378 1.486.787 1.93 1.225.413.418.75.877 1.013 1.386.257.504.458 1.008.6 1.517.146.504.236 1.013.272 1.517.04.504.06.967.06 1.38v8.644c0 .544-.05 1.108-.156 1.693-.101.585-.388 1.124-.857 1.618-.494.519-1.048.826-1.673.932-.62.1-1.23.156-1.83.156H33.68c-.65 0-1.305-.055-1.966-.156-.66-.106-1.264-.413-1.809-.932a4.397 4.397 0 0 1-.937-1.285 6.697 6.697 0 0 1-.504-1.538c-.1-.534-.166-1.058-.197-1.577-.025-.519-.035-.988-.035-1.401 0-.443.02-.902.056-1.386.04-.479.115-.952.236-1.416.116-.469.293-.912.525-1.325.231-.419.559-.782.972-1.089.57-.443 1.174-.7 1.81-.781a15.706 15.706 0 0 1 1.849-.116h9.031v-.313c0-.18-.02-.393-.055-.64a1.584 1.584 0 0 0-.333-.72c-.287-.388-.65-.625-1.089-.7a6.95 6.95 0 0 0-1.25-.117h-10.35v-5.14z" fill="none" stroke="#3da9d1" stroke-width=".0100793"/><path d="M37.298 52.186c-.13 0-.302.02-.524.06a1.213 1.213 0 0 0-.604.292.896.896 0 0 0-.252.444c-.04.171-.06.348-.06.529 0 .151.02.307.06.464.04.156.12.297.252.428.13.131.292.222.488.272.192.056.378.08.565.08h3.966c.212 0 .418-.02.625-.06.207-.04.378-.11.504-.211a.788.788 0 0 0 .333-.47c.04-.18.06-.362.06-.543v-1.285z" fill="none" stroke="#3da9d1" stroke-width=".0100793"/><path d="M52.674 60.284h7.63v-27.25h-7.63z" fill="#3da9d1" stroke-width="4.032"/><path d="M52.674 33.035h7.63v27.25h-7.63z" fill="none" stroke="#3da9d1" stroke-width=".01"/><path d="M74.083 39.42c.806 0 1.633.02 2.49.06.856.036 1.688.122 2.494.253.801.13 1.562.337 2.278.62.71.287 1.356.675 1.925 1.169.65.57 1.154 1.24 1.517 2.005.363.766.635 1.538.816 2.314.182.78.293 1.532.333 2.257.04.731.06 1.351.06 1.87 0 .52-.02 1.144-.06 1.87-.04.726-.151 1.481-.333 2.258a11.57 11.57 0 0 1-.816 2.318 6.162 6.162 0 0 1-1.517 2 6.815 6.815 0 0 1-1.925 1.17 10.76 10.76 0 0 1-2.278.625c-.806.126-1.638.211-2.495.252a52.445 52.445 0 0 1-5 0 23.103 23.103 0 0 1-2.473-.252 10.76 10.76 0 0 1-2.278-.625 6.815 6.815 0 0 1-1.925-1.17 6.162 6.162 0 0 1-1.517-2 11.57 11.57 0 0 1-.817-2.318 13.144 13.144 0 0 1-.332-2.258c-.04-.726-.06-1.35-.06-1.87 0-.519.02-1.139.06-1.87.04-.725.15-1.476.332-2.257.182-.776.454-1.548.817-2.314a6.128 6.128 0 0 1 1.517-2.005 6.815 6.815 0 0 1 1.925-1.17 11.062 11.062 0 0 1 2.278-.62 20.774 20.774 0 0 1 2.474-.251c.842-.04 1.678-.06 2.51-.06zm-4.128 10.548c0 1.144.086 1.98.252 2.51.172.534.333.902.49 1.114.024.05.11.15.251.307.146.156.353.312.625.469.272.156.61.297 1.013.428.398.131.902.197 1.497.197 1.038 0 1.809-.172 2.318-.51.504-.337.847-.634 1.028-.891.313-.444.52-.968.625-1.578.1-.61.156-1.29.156-2.046 0-1.088-.07-1.905-.216-2.45-.142-.549-.318-.962-.525-1.249-.206-.257-.559-.544-1.053-.857-.489-.307-1.27-.463-2.333-.463-1.064 0-1.845.156-2.334.463-.493.313-.846.6-1.053.857-.13.212-.287.575-.469 1.094-.181.519-.272 1.385-.272 2.605" fill="#3da9d1"/><path d="M74.083 39.42c.806 0 1.633.02 2.49.06.856.036 1.688.122 2.494.253.801.13 1.562.337 2.278.62.71.287 1.356.675 1.925 1.169.65.57 1.154 1.24 1.517 2.005.363.766.635 1.538.816 2.314.182.78.293 1.532.333 2.257.04.731.06 1.351.06 1.87 0 .52-.02 1.144-.06 1.87-.04.726-.151 1.481-.333 2.258a11.57 11.57 0 0 1-.816 2.318 6.162 6.162 0 0 1-1.517 2 6.815 6.815 0 0 1-1.925 1.17 10.76 10.76 0 0 1-2.278.625c-.806.126-1.638.211-2.495.252a52.445 52.445 0 0 1-5 0 23.103 23.103 0 0 1-2.473-.252 10.76 10.76 0 0 1-2.278-.625 6.815 6.815 0 0 1-1.925-1.17 6.162 6.162 0 0 1-1.517-2 11.57 11.57 0 0 1-.817-2.318 13.144 13.144 0 0 1-.332-2.258c-.04-.726-.06-1.35-.06-1.87 0-.519.02-1.139.06-1.87.04-.725.15-1.476.332-2.257.182-.776.454-1.548.817-2.314a6.128 6.128 0 0 1 1.517-2.005 6.815 6.815 0 0 1 1.925-1.17 11.062 11.062 0 0 1 2.278-.62 20.774 20.774 0 0 1 2.474-.251c.842-.04 1.678-.06 2.51-.06z" fill="none" stroke="#3da9d1" stroke-width=".0100793"/><path d="M69.955 49.968c0 1.144.086 1.98.252 2.51.172.534.333.902.49 1.109.024.055.11.156.251.312.141.156.353.312.625.469.272.156.61.297 1.008.428.403.131.902.192 1.502.192 1.038 0 1.809-.167 2.313-.504.509-.338.852-.635 1.033-.897.313-.439.52-.968.625-1.573.1-.615.156-1.295.156-2.046 0-1.088-.075-1.91-.216-2.454-.142-.545-.318-.958-.525-1.245-.206-.257-.559-.544-1.053-.857-.494-.312-1.27-.463-2.333-.463-1.064 0-1.845.15-2.339.463-.493.313-.841.6-1.048.857-.13.207-.287.57-.469 1.089-.181.519-.272 1.39-.272 2.61z" fill="none" stroke="#3da9d1" stroke-width=".0100793"/><path d="M87.866 43.351c0-.312.046-.675.136-1.089.091-.418.293-.821.605-1.209.52-.675 1.119-1.073 1.81-1.205a12.18 12.18 0 0 1 2.277-.196h17.71c1.169 0 2.338.161 3.502.489 1.17.322 2.142.846 2.923 1.577.726.67 1.27 1.527 1.633 2.565.363 1.039.544 2.041.544 2.999v13.002h-7.63V48.84a9.41 9.41 0 0 0-.136-1.497 2.65 2.65 0 0 0-.68-1.42c-.207-.238-.52-.444-.933-.626-.418-.181-.922-.272-1.517-.272h-.856v15.26h-7.63v-15.26H96.7c-.338 0-.575.04-.721.116-.141.08-.237.146-.287.197-.08.105-.131.252-.156.448-.03.192-.04.393-.04.6v13.9h-7.63V43.35" fill="#3da9d1"/><path d="M87.866 43.351c0-.312.046-.675.136-1.089.091-.418.293-.821.605-1.209.52-.675 1.119-1.073 1.81-1.205a12.18 12.18 0 0 1 2.277-.196h17.71c1.169 0 2.338.161 3.502.489 1.17.322 2.142.846 2.923 1.577.726.67 1.27 1.527 1.633 2.565.363 1.039.544 2.041.544 2.999v13.002h-7.63V48.84a9.41 9.41 0 0 0-.136-1.497 2.65 2.65 0 0 0-.68-1.42c-.207-.238-.52-.444-.933-.626-.418-.181-.922-.272-1.517-.272h-.856v15.26h-7.63v-15.26H96.7c-.338 0-.575.04-.721.116-.141.08-.237.146-.287.197-.08.105-.131.252-.156.448-.03.192-.04.393-.04.6v13.9h-7.63z" fill="none" stroke="#3da9d1" stroke-width=".0100793"/><path d="M135.94 39.652c1.27 0 2.328.186 3.174.564.842.378 1.482.787 1.926 1.225.413.418.75.877 1.012 1.386.258.504.46 1.008.6 1.517.146.504.237 1.013.277 1.517.036.504.056.967.056 1.38v8.644c0 .544-.05 1.108-.156 1.693-.101.585-.388 1.124-.857 1.618-.494.519-1.048.826-1.673.932-.62.1-1.23.156-1.83.156h-12.145c-.65 0-1.306-.055-1.966-.156-.66-.106-1.265-.413-1.809-.932a4.292 4.292 0 0 1-.932-1.285 6.476 6.476 0 0 1-.51-1.538c-.1-.534-.166-1.058-.19-1.577-.031-.519-.041-.988-.041-1.401 0-.443.02-.902.055-1.386.04-.479.121-.952.237-1.416.116-.469.292-.912.524-1.325.232-.419.56-.782.973-1.089.57-.443 1.174-.7 1.81-.781a15.706 15.706 0 0 1 1.849-.116h9.03v-.313c0-.18-.02-.393-.055-.64a1.584 1.584 0 0 0-.332-.72c-.288-.388-.65-.625-1.089-.7a6.95 6.95 0 0 0-1.25-.117h-10.351v-5.14zm-5.993 12.534c-.13 0-.307.02-.529.06a1.24 1.24 0 0 0-.6.292.899.899 0 0 0-.257.449 2.531 2.531 0 0 0-.055.524c0 .156.02.312.055.464.04.156.126.302.257.428.126.131.288.222.484.277.197.05.383.076.565.076h3.97c.207 0 .414-.02.626-.06a1.07 1.07 0 0 0 .504-.212.788.788 0 0 0 .332-.47 2.85 2.85 0 0 0 .056-.543v-1.285h-5.408" fill="#3da9d1"/><path d="M135.94 39.652c1.27 0 2.328.186 3.174.564.842.378 1.482.787 1.926 1.225.413.418.75.877 1.012 1.386.258.504.46 1.008.6 1.517.146.504.237 1.013.277 1.517.036.504.056.967.056 1.38v8.644c0 .544-.05 1.108-.156 1.693-.101.585-.388 1.124-.857 1.618-.494.519-1.048.826-1.673.932-.62.1-1.23.156-1.83.156h-12.145c-.65 0-1.306-.055-1.966-.156-.66-.106-1.265-.413-1.809-.932a4.292 4.292 0 0 1-.932-1.285 6.476 6.476 0 0 1-.51-1.538c-.1-.534-.166-1.058-.19-1.577-.031-.519-.041-.988-.041-1.401 0-.443.02-.902.055-1.386.04-.479.121-.952.237-1.416.116-.469.292-.912.524-1.325.232-.419.56-.782.973-1.089.57-.443 1.174-.7 1.81-.781a15.706 15.706 0 0 1 1.849-.116h9.03v-.313c0-.18-.02-.393-.055-.64a1.584 1.584 0 0 0-.332-.72c-.288-.388-.65-.625-1.089-.7a6.95 6.95 0 0 0-1.25-.117h-10.351v-5.14z" fill="none" stroke="#3da9d1" stroke-width=".0100793"/><path d="M129.947 52.186c-.13 0-.307.02-.524.06a1.213 1.213 0 0 0-.605.292.896.896 0 0 0-.252.444c-.04.171-.06.348-.06.529 0 .151.02.307.06.464.04.156.121.297.252.428s.293.222.49.272c.19.056.382.08.564.08h3.966c.212 0 .418-.02.625-.06.206-.04.378-.11.504-.211a.788.788 0 0 0 .332-.47c.04-.18.06-.362.06-.543v-1.285z" fill="none" stroke="#3da9d1" stroke-width=".0100793"/><path d="M147.944 57.502c-.066.056-.182.081-.343.081h-.64v-.665h.64c.161 0 .277.025.343.075.07.046.1.126.1.242 0 .121-.03.212-.1.267zm.836 1.21c-.02-.403-.181-.655-.493-.756.347-.121.524-.383.524-.781a.68.68 0 0 0-.373-.635c-.172-.096-.474-.146-.902-.146h-1.27v2.756h.695v-1.033h.252c.282 0 .479.046.59.136.11.086.186.252.211.49.02.196.046.332.07.407h.782a1.665 1.665 0 0 1-.086-.438" fill="#f47216"/><path d="M147.944 57.502c-.066.056-.182.081-.343.081h-.64v-.665h.64c.161 0 .277.025.343.075.07.046.1.126.1.242 0 .121-.03.212-.1.267z" fill="none" stroke="#f47216" stroke-width=".0100793"/><path d="M148.78 58.712c-.02-.408-.181-.66-.493-.756.347-.121.524-.383.524-.786a.678.678 0 0 0-.373-.63c-.172-.101-.474-.146-.902-.146h-1.27v2.756h.695v-1.033h.252c.282 0 .479.046.59.131.11.09.186.252.211.494.02.197.046.333.07.408h.782c-.04-.1-.065-.242-.086-.438z" fill="none" stroke="#f47216" stroke-width=".0100793"/><path d="M148.896 59.216c-.388.393-.856.59-1.406.59a1.896 1.896 0 0 1-1.4-.585 1.945 1.945 0 0 1-.595-1.426c0-.565.196-1.044.59-1.437a1.97 1.97 0 0 1 2.307-.363c.338.177.6.424.792.741.196.323.292.676.292 1.054a1.95 1.95 0 0 1-.58 1.426zm.827-2.555a2.533 2.533 0 0 0-.922-.993 2.442 2.442 0 0 0-1.275-.368c-.424 0-.817.09-1.17.272-.428.212-.766.52-1.003.912a2.413 2.413 0 0 0-.372 1.31c0 .399.09.777.272 1.13.221.418.529.75.932.997.403.242.837.363 1.305.363.403 0 .781-.09 1.14-.277.417-.212.75-.514.997-.917a2.474 2.474 0 0 0 .096-2.43" fill="#f47216"/><path d="M148.896 59.216c-.388.393-.856.59-1.406.59a1.896 1.896 0 0 1-1.4-.585 1.945 1.945 0 0 1-.595-1.426c0-.565.196-1.044.59-1.437a1.97 1.97 0 0 1 2.307-.363c.338.177.6.424.792.741.196.323.292.676.292 1.054a1.95 1.95 0 0 1-.58 1.426z" fill="none" stroke="#f47216" stroke-width=".0100793"/><path d="M149.723 56.66a2.43 2.43 0 0 0-.922-.992 2.428 2.428 0 0 0-1.275-.368c-.424 0-.812.09-1.165.272-.433.212-.766.52-1.008.912a2.457 2.457 0 0 0-.372 1.31c0 .399.09.777.277 1.13a2.502 2.502 0 0 0 2.232 1.355c.408 0 .786-.09 1.144-.272.419-.212.746-.514.993-.917.247-.398.368-.832.368-1.295 0-.398-.09-.776-.272-1.134z" fill="none" stroke="#f47216" stroke-width=".0100793"/><path d="M71.654 28.005c.09.036.473-.11 1.154-.438.675-.333 1.154-.524 1.431-.59l.67-.14.59-.157.62-.056.685.06c.08.041.151.127.222.263l.025.383c-.04.207-.126.353-.267.443-.524.157-.978.268-1.376.333-.398.056-.831.217-1.31.484l-.59.348-.58.332c-.392.212-.74.49-1.048.837l-.685.776-.64.781a17.88 17.88 0 0 0-1.134 1.628.85.85 0 0 1-.504.282l-.59.035c-.11.02-.196-.01-.257-.09l-.126-.242-.08-.383.075-.363.111-.323.131-.378.419-.987.433-1.008c.106-.298.217-.625.328-.978.171-.524.292-.902.352-1.134.111-.257.187-.544.227-.852.005-.267.131-.529.378-.786.101-.1.328-.186.675-.247l.192.005c.207.005.363.07.474.202.126.232.181.469.176.71l-.075.308-.096.443-.01.5" fill="#f47216"/><path d="M71.654 28.005c.09.036.473-.11 1.154-.438.675-.333 1.154-.524 1.431-.59l.67-.14.59-.157.62-.056.685.06c.08.041.151.127.222.263l.025.383c-.04.207-.126.353-.267.443-.524.157-.978.268-1.376.333-.398.056-.831.217-1.31.484l-.59.348-.58.332c-.392.212-.74.49-1.048.837l-.685.776-.64.781a17.88 17.88 0 0 0-1.134 1.628.85.85 0 0 1-.504.282l-.59.035c-.11.02-.196-.01-.257-.09l-.126-.242-.08-.383.075-.363.111-.323.131-.378.419-.987.433-1.008c.106-.298.217-.625.328-.978.171-.524.292-.902.352-1.134.111-.257.187-.544.227-.852.005-.267.131-.529.378-.786.101-.1.328-.186.675-.247l.192.005c.207.005.363.07.474.202.126.232.181.469.176.71l-.075.308-.096.443z" fill="none" stroke="#f47216" stroke-width=".0100793"/><path d="M84.64 28.812a.723.723 0 0 1-.397.262l-.469.06c-.181-.005-.348-.096-.494-.277a.876.876 0 0 0-.438-.378l-.378-.045a1.669 1.669 0 0 0-1.003.327l-.615.469-.575.448-.76.777c-.222.236-.333.433-.338.594 0 .09.035.177.106.242.075.07.171.09.302.06l.312-.166c.404-.126.817-.352 1.235-.68l.56-.363.695-.312.343-.06c.222.004.443.105.665.307l.791.776c.172.196.353.378.55.529.201.156.438.307.725.463l.696.313.786.277c.136.035.247.192.333.474l.03.358c-.005.156-.02.252-.046.292-.07.096-.15.146-.241.151h-.258l-.176-.005c-.413-.01-.771-.096-1.073-.262a14.221 14.221 0 0 1-1.31-.771c-.182-.096-.44-.302-.777-.62-.337-.317-.625-.474-.851-.484l-.207-.02c-.595-.01-1.215.262-1.86.822-.64.559-1.305.892-1.98 1.008a2.64 2.64 0 0 1-.69.085 1.842 1.842 0 0 1-.822-.222.488.488 0 0 1-.212-.438l.01-.534c.368-1.184 1.043-2.288 2.031-3.301a14.833 14.833 0 0 1 3.15-2.384c.252-.13.71-.252 1.38-.368l.293.01c.449.005.781.167.998.474.217.307.323.66.312 1.058a2.01 2.01 0 0 1-.332 1.054" fill="#f47216"/><path d="M84.64 28.812a.723.723 0 0 1-.397.262l-.469.06c-.181-.005-.348-.096-.494-.277a.876.876 0 0 0-.438-.378l-.378-.045a1.669 1.669 0 0 0-1.003.327l-.615.469-.575.448-.76.777c-.222.236-.333.433-.338.594 0 .09.035.177.106.242.075.07.171.09.302.06l.312-.166c.404-.126.817-.352 1.235-.68l.56-.363.695-.312.343-.06c.222.004.443.105.665.307l.791.776c.172.196.353.378.55.529.201.156.438.307.725.463l.696.313.786.277c.136.035.247.192.333.474l.03.358c-.005.156-.02.252-.046.292-.07.096-.15.146-.241.151h-.258l-.176-.005c-.413-.01-.771-.096-1.073-.262a14.221 14.221 0 0 1-1.31-.771c-.182-.096-.44-.302-.777-.62-.337-.317-.625-.474-.851-.484l-.207-.02c-.595-.01-1.215.262-1.86.822-.64.559-1.305.892-1.98 1.008a2.64 2.64 0 0 1-.69.085 1.842 1.842 0 0 1-.822-.222.488.488 0 0 1-.212-.438l.01-.534c.368-1.184 1.043-2.288 2.031-3.301a14.833 14.833 0 0 1 3.15-2.384c.252-.13.71-.252 1.38-.368l.293.01c.449.005.781.167.998.474.217.307.323.66.312 1.058a2.01 2.01 0 0 1-.332 1.054z" fill="none" stroke="#f47216" stroke-width=".0100793"/><path d="M100.97 22.583l-.616 1.365-.559 1.346a34.41 34.41 0 0 0-1.008 2.731 27.838 27.838 0 0 0-1.078 4.657l-.131.499-.066.494c-.005.358-.191.6-.544.73-.242.026-.444-.025-.605-.15-.196-.232-.292-.615-.282-1.145l.005-.272.04-.327c.01-.424.035-.756.076-.998.035-.237.106-.514.206-.822-.045-.055-.085-.085-.12-.085a22.422 22.422 0 0 1-2.661 2.197 6.936 6.936 0 0 1-1.497.791 4.01 4.01 0 0 1-1.537.257 2.128 2.128 0 0 1-.882-.186c-.242-.121-.484-.338-.716-.655a1.882 1.882 0 0 1-.176-1.568c.12-.529.368-1.008.756-1.446.534-.746 1.224-1.426 2.076-2.036a15.304 15.304 0 0 1 2.474-1.462l.57-.196.867-.222.398-.045.242.005c.272.01.56.065.851.171l.323.207.192.12c.433-1.219.745-2.181.927-2.882.181-.7.635-1.436 1.36-2.197a.549.549 0 0 1 .454-.217.93.93 0 0 1 .393.111c.09.086.177.257.267.524l.01.222-.005.292zm-4.254 5.765l.11-.393c.041-.096-.02-.202-.18-.318l-.414-.01a1.78 1.78 0 0 0-.585.091l-.937.252a9.52 9.52 0 0 0-2.65 1.648l-.807.826a3.629 3.629 0 0 0-.585.918c-.015.035-.055.15-.13.347-.071.202-.112.348-.112.439a.696.696 0 0 0 .036.282c.03.066.146.096.352.1.157.006.383-.02.67-.075.288-.06.62-.191.988-.388l1.029-.57c.7-.423 1.315-.876 1.864-1.37a6.13 6.13 0 0 0 1.35-1.779" fill="#f47216"/><path d="M100.97 22.583l-.616 1.365-.559 1.346a34.41 34.41 0 0 0-1.008 2.731 27.838 27.838 0 0 0-1.078 4.657l-.131.499-.066.494c-.005.358-.191.6-.544.73-.242.026-.444-.025-.605-.15-.196-.232-.292-.615-.282-1.145l.005-.272.04-.327c.01-.424.035-.756.076-.998.035-.237.106-.514.206-.822-.045-.055-.085-.085-.12-.085a22.422 22.422 0 0 1-2.661 2.197 6.936 6.936 0 0 1-1.497.791 4.01 4.01 0 0 1-1.537.257 2.128 2.128 0 0 1-.882-.186c-.242-.121-.484-.338-.716-.655a1.882 1.882 0 0 1-.176-1.568c.12-.529.368-1.008.756-1.446.534-.746 1.224-1.426 2.076-2.036a15.304 15.304 0 0 1 2.474-1.462l.57-.196.867-.222.398-.045.242.005c.272.01.56.065.851.171l.323.207.192.12c.433-1.219.745-2.181.927-2.882.181-.7.635-1.436 1.36-2.197a.549.549 0 0 1 .454-.217.93.93 0 0 1 .393.111c.09.086.177.257.267.524l.01.222-.005.292z" fill="none" stroke="#f47216" stroke-width=".0100793"/><path d="M96.716 28.348l.11-.393c.041-.09-.024-.197-.18-.318l-.414-.01a1.829 1.829 0 0 0-.59.091l-.932.257a9.39 9.39 0 0 0-2.65 1.643l-.807.826a3.629 3.629 0 0 0-.585.918 6.98 6.98 0 0 0-.13.352c-.076.197-.112.343-.112.434a.738.738 0 0 0 .036.287c.03.06.146.096.352.101.157 0 .383-.025.67-.08.288-.061.62-.187.988-.389l1.029-.564a12.183 12.183 0 0 0 1.86-1.376 6.145 6.145 0 0 0 1.355-1.779z" fill="none" stroke="#f47216" stroke-width=".0100793"/><path d="M105.056 27.053l-.493.61-.514.695a9.575 9.575 0 0 0-.812 1.366 9.95 9.95 0 0 0-.705 1.85l-.242.942-.242.922a.835.835 0 0 1-.494.575c-.141.035-.302-.005-.484-.116-.222-.197-.333-.48-.322-.847l.055-.963c.227-.982.499-1.91.806-2.787a15.22 15.22 0 0 1 1.094-2.419c.07-.136.166-.297.277-.483.111-.187.227-.353.348-.5.186-.251.408-.392.66-.438.343.01.62.136.821.383.106.151.212.363.308.64l.015.278c-.005.136-.03.236-.076.292" fill="#f47216"/><path d="M105.056 27.053l-.493.61-.514.695a9.575 9.575 0 0 0-.812 1.366 9.95 9.95 0 0 0-.705 1.85l-.242.942-.242.922a.835.835 0 0 1-.494.575c-.141.035-.302-.005-.484-.116-.222-.197-.333-.48-.322-.847l.055-.963c.227-.982.499-1.91.806-2.787a15.22 15.22 0 0 1 1.094-2.419c.07-.136.166-.297.277-.483.111-.187.227-.353.348-.5.186-.251.408-.392.66-.438.343.01.62.136.821.383.106.151.212.363.308.64l.015.278c-.005.136-.03.236-.076.292z" fill="none" stroke="#f47216" stroke-width=".0100793"/><path d="M107.48 23.077c-.105.17-.332.282-.675.347a.924.924 0 0 1-.685-.312c-.131-.197-.222-.449-.272-.761l-.046-.408a1.06 1.06 0 0 1 .202-.62.792.792 0 0 1 .665-.348.96.96 0 0 1 .68.292c.142.187.247.398.313.645l.025.393a1.514 1.514 0 0 1-.206.772" fill="#f47216"/><path d="M107.48 23.077c-.105.17-.332.282-.675.347a.924.924 0 0 1-.685-.312c-.131-.197-.222-.449-.272-.761l-.046-.408a1.06 1.06 0 0 1 .202-.62.792.792 0 0 1 .665-.348.96.96 0 0 1 .68.292c.142.187.247.398.313.645l.025.393a1.514 1.514 0 0 1-.206.772z" fill="none" stroke="#f47216" stroke-width=".0100793"/><path d="M113.548 27.29c.272.04.545.15.817.332.272.141.473.348.604.63.111.323.162.625.157.902a2.385 2.385 0 0 1-.06.464c-.041.151-.107.312-.202.494-.323.55-.676 1.053-1.069 1.532-.63.56-1.38 1.063-2.253 1.517-.76.378-1.617.64-2.56.791l-.297.045-.307-.005-.293-.005-.307-.075a5.07 5.07 0 0 1-1.094-.383c-.68-.383-1.013-.867-1.003-1.452.005-.216.07-.473.192-.77.443-.953.902-1.71 1.376-2.258.534-.595 1.275-1.16 2.202-1.694a11.854 11.854 0 0 1 2.616-.978l.383-.04c.16.005.302.035.428.096.237.106.423.302.554.58zm-.489 3.532c.328-.347.494-.705.504-1.073.005-.378-.16-.75-.509-1.114a3.052 3.052 0 0 0-1.013-.206 3.115 3.115 0 0 0-.932.13 5.595 5.595 0 0 0-1.739.878c-.267.201-.559.468-.877.816-.317.343-.564.71-.745 1.109a1.27 1.27 0 0 0-.167.564c0 .09.03.237.096.434.066.196.439.302 1.124.317.378.005.75-.04 1.119-.131.358-.096.74-.257 1.134-.474l1.043-.514c.358-.186.68-.433.962-.736" fill="#f47216"/><path d="M113.548 27.29c.272.04.545.15.817.332.272.141.473.348.604.63.111.323.162.625.157.902a2.385 2.385 0 0 1-.06.464c-.041.151-.107.312-.202.494-.323.55-.676 1.053-1.069 1.532-.63.56-1.38 1.063-2.253 1.517-.76.378-1.617.64-2.56.791l-.297.045-.307-.005-.293-.005-.307-.075a5.07 5.07 0 0 1-1.094-.383c-.68-.383-1.013-.867-1.003-1.452.005-.216.07-.473.192-.77.443-.953.902-1.71 1.376-2.258.534-.595 1.275-1.16 2.202-1.694a11.854 11.854 0 0 1 2.616-.978l.383-.04c.16.005.302.035.428.096.237.106.423.302.554.58z" fill="none" stroke="#f47216" stroke-width=".0100793"/><path d="M113.06 30.822c.327-.347.498-.705.503-1.073.01-.378-.16-.746-.509-1.114a3.052 3.052 0 0 0-1.013-.206 3.274 3.274 0 0 0-.927.136 5.582 5.582 0 0 0-1.739.872 6.59 6.59 0 0 0-.882.816c-.312.343-.564.71-.745 1.114a1.3 1.3 0 0 0-.167.56c0 .095.03.236.096.433.066.196.444.302 1.129.317.378.01.75-.035 1.114-.131.358-.096.74-.252 1.134-.474l1.043-.514a3.4 3.4 0 0 0 .962-.736z" fill="none" stroke="#f47216" stroke-width=".0100793"/><path d="M.005 64.366c0-.07.005-.15.02-.237a.394.394 0 0 1 .146-.226.68.68 0 0 1 .257-.126c.106-.036.227-.05.348-.05h2.308c.282 0 .565.035.837.105.272.07.494.182.675.328.177.146.297.322.358.539.065.217.096.479.096.786 0 .353-.03.635-.096.847a1.19 1.19 0 0 1-.292.509c-.126.126-.313.232-.56.317-.247.091-.544.131-.897.131H.837c-.076 0-.172-.005-.288-.02a.707.707 0 0 1-.312-.11.58.58 0 0 1-.166-.167.414.414 0 0 1-.066-.232zm1.633 1.77c0 .035.005.075.01.11s.025.07.06.096c.046.03.101.05.162.055.06.005.1.005.11.005h.222c.182 0 .363-.01.535-.035a.756.756 0 0 0 .413-.166.398.398 0 0 0 .065-.066c.025-.03.046-.075.07-.126a.894.894 0 0 0 .061-.211c.02-.091.026-.197.026-.323a.99.99 0 0 0-.096-.474.736.736 0 0 0-.242-.267.883.883 0 0 0-.393-.126 4.029 4.029 0 0 0-.524-.03H1.99c-.04 0-.086.005-.126.01a.361.361 0 0 0-.126.035c-.046.026-.076.056-.086.096a.443.443 0 0 0-.015.1v1.316" fill="#f47216"/><path d="M.005 64.366c0-.07.005-.15.02-.237a.394.394 0 0 1 .146-.226.68.68 0 0 1 .257-.126c.106-.036.227-.05.348-.05h2.308c.282 0 .565.035.837.105.272.07.494.182.675.328.177.146.297.322.358.539.065.217.096.479.096.786 0 .353-.03.635-.096.847a1.19 1.19 0 0 1-.292.509c-.126.126-.313.232-.56.317-.247.091-.544.131-.897.131H.837c-.076 0-.172-.005-.288-.02a.707.707 0 0 1-.312-.11.58.58 0 0 1-.166-.167.414.414 0 0 1-.066-.232z" fill="none" stroke="#f47216" stroke-width=".0100793"/><path d="M1.638 66.135c0 .036 0 .076.005.111.005.04.03.07.065.096.046.035.096.05.162.055.06.005.095.01.106.01h.226c.182 0 .363-.015.535-.035a.775.775 0 0 0 .413-.171.398.398 0 0 0 .065-.066c.02-.03.046-.075.07-.126a.894.894 0 0 0 .061-.211c.02-.086.026-.192.026-.318 0-.201-.03-.358-.096-.474a.714.714 0 0 0-.242-.272.883.883 0 0 0-.393-.126 4.1 4.1 0 0 0-.524-.025H1.99c-.04 0-.086 0-.131.005a.367.367 0 0 0-.121.035.172.172 0 0 0-.086.096.443.443 0 0 0-.015.1z" fill="none" stroke="#f47216" stroke-width=".0100793"/><path d="M7.313 67.29h1.633v-3.567H7.313z" fill="#f47216" stroke-width="4.032"/><path d="M8.945 67.29H7.312v-3.567h1.633z" fill="none" stroke="#f47216" stroke-width=".0100793"/><path d="M12.201 67.29c-.106 0-.212-.006-.312-.02a.741.741 0 0 1-.303-.102c-.116-.07-.181-.14-.201-.211a.897.897 0 0 1-.03-.237v-2.45c0-.065.014-.135.035-.206a.412.412 0 0 1 .181-.197.792.792 0 0 1 .312-.12c.111-.016.212-.026.303-.026h3.638v.867H13.32a.672.672 0 0 0-.252.05.158.158 0 0 0-.07.086c-.006.035-.01.066-.01.09v.268h2.76v.776h-2.76v.388a.144.144 0 0 0 .075.131c.035.025.085.04.14.046h2.642v.866H12.2" fill="#f47216"/><path d="M12.201 67.29c-.106 0-.212-.006-.312-.02a.741.741 0 0 1-.303-.102c-.116-.07-.181-.14-.201-.211a.897.897 0 0 1-.03-.237v-2.45c0-.065.014-.135.035-.206a.412.412 0 0 1 .181-.197.792.792 0 0 1 .312-.12c.111-.016.212-.026.303-.026h3.638v.867H13.32a.672.672 0 0 0-.252.05.158.158 0 0 0-.07.086c-.006.035-.01.066-.01.09v.268h2.76v.776h-2.76v.388a.144.144 0 0 0 .075.131c.035.025.085.04.14.046h2.642v.866z" fill="none" stroke="#f47216" stroke-width=".0100793"/><path d="M21.232 66.402h2.802c.121 0 .202-.01.232-.035.035-.025.05-.05.05-.076 0-.06-.03-.1-.1-.12a4.417 4.417 0 0 0-.222-.06l-1.96-.389a1.23 1.23 0 0 1-.364-.116 1.936 1.936 0 0 1-.216-.151.757.757 0 0 1-.227-.383 1.994 1.994 0 0 1-.045-.413c0-.111.015-.232.045-.363.03-.126.12-.242.272-.348.08-.06.192-.11.333-.156.14-.046.317-.07.534-.07h3.341v.886h-2.575c-.096 0-.161 0-.197.005a.536.536 0 0 0-.07.015c-.05.02-.08.056-.08.096 0 .06.05.1.14.131.096.025.192.046.288.066l1.703.317c.11.025.237.056.368.096.13.04.242.09.338.156a.818.818 0 0 1 .186.187c.045.07.08.14.106.211.02.076.035.146.04.217a1.855 1.855 0 0 1-.025.554.645.645 0 0 1-.207.353.964.964 0 0 1-.231.161 1.52 1.52 0 0 1-.258.081 2.55 2.55 0 0 1-.267.03c-.09.005-.176.005-.267.005h-3.467v-.887" fill="#f47216"/><path d="M21.232 66.402h2.802c.121 0 .202-.01.232-.035.035-.025.05-.05.05-.076 0-.06-.03-.1-.1-.12a4.417 4.417 0 0 0-.222-.06l-1.96-.389a1.23 1.23 0 0 1-.364-.116 1.936 1.936 0 0 1-.216-.151.757.757 0 0 1-.227-.383 1.994 1.994 0 0 1-.045-.413c0-.111.015-.232.045-.363.03-.126.12-.242.272-.348.08-.06.192-.11.333-.156.14-.046.317-.07.534-.07h3.341v.886h-2.575c-.096 0-.161 0-.197.005a.536.536 0 0 0-.07.015c-.05.02-.08.056-.08.096 0 .06.05.1.14.131.096.025.192.046.288.066l1.703.317c.11.025.237.056.368.096.13.04.242.09.338.156a.818.818 0 0 1 .186.187c.045.07.08.14.106.211.02.076.035.146.04.217a1.855 1.855 0 0 1-.025.554.645.645 0 0 1-.207.353.964.964 0 0 1-.231.161 1.52 1.52 0 0 1-.258.081 2.55 2.55 0 0 1-.267.03c-.09.005-.176.005-.267.005h-3.467z" fill="none" stroke="#f47216" stroke-width=".0100793"/><path d="M30.203 67.29c-.197 0-.378-.006-.545-.02a2.45 2.45 0 0 1-.851-.197 1.322 1.322 0 0 1-.333-.222 1.37 1.37 0 0 1-.202-.217 1.306 1.306 0 0 1-.146-.277 1.905 1.905 0 0 1-.085-.353 3.013 3.013 0 0 1-.03-.453c0-.298.03-.56.085-.781.055-.227.176-.419.358-.585.116-.106.247-.187.388-.247.146-.06.297-.11.453-.141a2.97 2.97 0 0 1 .474-.06c.161-.01.313-.016.454-.016h2.142v.887h-1.351c-.136 0-.262 0-.378.005-.116 0-.222.01-.317.03a1.06 1.06 0 0 0-.263.081.697.697 0 0 0-.201.166.574.574 0 0 0-.09.152.951.951 0 0 0-.046.171c-.01.06-.015.116-.02.171-.005.056-.01.101-.01.147 0 .1.005.18.015.251.01.066.02.126.035.172.01.045.025.08.035.106.015.03.03.05.04.065a.53.53 0 0 0 .202.161c.086.036.182.066.287.081.106.015.222.025.348.03.126.005.257.005.388.005h1.406v.887h-2.242" fill="#f47216"/><path d="M30.203 67.29c-.197 0-.378-.006-.545-.02a2.45 2.45 0 0 1-.851-.197 1.322 1.322 0 0 1-.333-.222 1.37 1.37 0 0 1-.202-.217 1.306 1.306 0 0 1-.146-.277 1.905 1.905 0 0 1-.085-.353 3.013 3.013 0 0 1-.03-.453c0-.298.03-.56.085-.781.055-.227.176-.419.358-.585.116-.106.247-.187.388-.247.146-.06.297-.11.453-.141a2.97 2.97 0 0 1 .474-.06c.161-.01.313-.016.454-.016h2.142v.887h-1.351c-.136 0-.262 0-.378.005-.116 0-.222.01-.317.03a1.06 1.06 0 0 0-.263.081.697.697 0 0 0-.201.166.574.574 0 0 0-.09.152.951.951 0 0 0-.046.171c-.01.06-.015.116-.02.171-.005.056-.01.101-.01.147 0 .1.005.18.015.251.01.066.02.126.035.172.01.045.025.08.035.106.015.03.03.05.04.065a.53.53 0 0 0 .202.161c.086.036.182.066.287.081.106.015.222.025.348.03.126.005.257.005.388.005h1.406v.887z" fill="none" stroke="#f47216" stroke-width=".0100793"/><path d="M39.607 67.29h-1.633v-1.417h-1.835v1.416h-1.638v-3.568h1.638v1.265h1.835v-1.265h1.633v3.568" fill="#f47216"/><path d="M39.607 67.29h-1.633v-1.417h-1.835v1.416h-1.638v-3.568h1.638v1.265h1.835v-1.265h1.633z" fill="none" stroke="#f47216" stroke-width=".0100793"/><path d="M44.651 63.681c.192 0 .388.005.595.01.202.005.398.015.595.04.196.026.378.06.554.111.176.05.333.116.469.207.136.086.242.191.317.307.076.121.136.247.172.373.04.131.065.262.07.398.005.131.01.257.01.378s-.005.247-.01.378-.03.262-.07.393a1.353 1.353 0 0 1-.172.368 1.058 1.058 0 0 1-.317.318c-.136.09-.293.156-.469.206a3.72 3.72 0 0 1-.554.111 5.892 5.892 0 0 1-.6.04c-.207.006-.403.01-.59.01-.186 0-.383-.004-.59-.01a5.796 5.796 0 0 1-.6-.04 3.596 3.596 0 0 1-.553-.11 1.654 1.654 0 0 1-.47-.207 1.022 1.022 0 0 1-.322-.318 1.336 1.336 0 0 1-.166-.368 1.537 1.537 0 0 1-.07-.393c-.006-.13-.01-.257-.01-.378 0-.12.004-.247.01-.378.004-.136.03-.267.07-.398.035-.126.09-.252.166-.373a.997.997 0 0 1 .323-.307c.136-.09.292-.156.469-.207.17-.05.357-.085.554-.11.196-.026.393-.036.595-.041.206-.005.403-.01.594-.01zm-1.103 1.824c0 .141.01.267.03.378.02.111.075.212.156.298.05.06.11.105.176.14a.767.767 0 0 0 .212.081c.07.015.156.026.242.03.09.006.186.01.287.01.106 0 .202-.004.293-.01.09-.004.17-.015.241-.03a.704.704 0 0 0 .202-.08.68.68 0 0 0 .181-.141.543.543 0 0 0 .162-.303c.02-.106.025-.232.025-.373V65.3a1.46 1.46 0 0 0-.02-.172.39.39 0 0 0-.056-.15.675.675 0 0 0-.11-.152.71.71 0 0 0-.384-.212 2.672 2.672 0 0 0-.534-.045c-.106 0-.201 0-.287.005-.09.005-.171.02-.247.04a.757.757 0 0 0-.212.076.728.728 0 0 0-.171.136.56.56 0 0 0-.161.302c-.02.101-.025.227-.025.378" fill="#f47216"/><path d="M44.651 63.681c.192 0 .388.005.595.01.202.005.398.015.595.04.196.026.378.06.554.111.176.05.333.116.469.207.136.086.242.191.317.307.076.121.136.247.172.373.04.131.065.262.07.398.005.131.01.257.01.378s-.005.247-.01.378-.03.262-.07.393a1.353 1.353 0 0 1-.172.368 1.058 1.058 0 0 1-.317.318c-.136.09-.293.156-.469.206a3.72 3.72 0 0 1-.554.111 5.892 5.892 0 0 1-.6.04c-.207.006-.403.01-.59.01-.186 0-.383-.004-.59-.01a5.796 5.796 0 0 1-.6-.04 3.596 3.596 0 0 1-.553-.11 1.654 1.654 0 0 1-.47-.207 1.022 1.022 0 0 1-.322-.318 1.336 1.336 0 0 1-.166-.368 1.537 1.537 0 0 1-.07-.393c-.006-.13-.01-.257-.01-.378 0-.12.004-.247.01-.378.004-.136.03-.267.07-.398.035-.126.09-.252.166-.373a.997.997 0 0 1 .323-.307c.136-.09.292-.156.469-.207.17-.05.357-.085.554-.11.196-.026.393-.036.595-.041.206-.005.403-.01.594-.01z" fill="none" stroke="#f47216" stroke-width=".0100793"/><path d="M43.548 65.505c0 .141.01.267.03.378a.67.67 0 0 0 .156.303.767.767 0 0 0 .388.217c.076.014.156.03.247.035.086.005.181.005.282.005.106 0 .207 0 .298-.005.085-.005.166-.02.241-.036a.767.767 0 0 0 .202-.08c.06-.036.121-.08.182-.136a.59.59 0 0 0 .16-.308c.016-.106.026-.232.026-.373 0-.075 0-.146-.005-.206 0-.066-.01-.121-.015-.172a.492.492 0 0 0-.056-.15.7.7 0 0 0-.11-.147.705.705 0 0 0-.384-.217 2.691 2.691 0 0 0-.539-.045c-.106 0-.201 0-.287.005-.086.01-.166.02-.247.04a.835.835 0 0 0-.207.076.66.66 0 0 0-.176.141.53.53 0 0 0-.161.297c-.015.101-.025.227-.025.378z" fill="none" stroke="#f47216" stroke-width=".0100793"/><path d="M55.22 66.695a.77.77 0 0 1-.02.15.456.456 0 0 1-.132.218.934.934 0 0 1-.327.186c-.152.055-.353.08-.62.08-.096 0-.192 0-.288-.01-.1-.004-.191-.02-.287-.045a1.062 1.062 0 0 1-.524-.292l-1.83-1.82c-.02-.02-.04-.035-.065-.055-.025-.02-.045-.035-.07-.035-.01 0-.03.005-.06.015-.026.01-.041.04-.041.09v2.112h-1.26v-2.973c0-.116.03-.212.096-.292a.667.667 0 0 1 .252-.197c.106-.05.226-.09.368-.11.136-.02.277-.036.418-.036.07 0 .151.005.242.01.09.005.186.02.282.04.096.02.191.056.287.101.096.045.182.106.262.182l1.84 1.834c.02.02.04.035.065.055.02.02.046.03.076.03.035 0 .06-.01.065-.03.01-.025.01-.04.01-.055v-2.122h1.26v2.969" fill="#f47216"/><path d="M55.22 66.695a.77.77 0 0 1-.02.15.456.456 0 0 1-.132.218.934.934 0 0 1-.327.186c-.152.055-.353.08-.62.08-.096 0-.192 0-.288-.01-.1-.004-.191-.02-.287-.045a1.062 1.062 0 0 1-.524-.292l-1.83-1.82c-.02-.02-.04-.035-.065-.055-.025-.02-.045-.035-.07-.035-.01 0-.03.005-.06.015-.026.01-.041.04-.041.09v2.112h-1.26v-2.973c0-.116.03-.212.096-.292a.667.667 0 0 1 .252-.197c.106-.05.226-.09.368-.11.136-.02.277-.036.418-.036.07 0 .151.005.242.01.09.005.186.02.282.04.096.02.191.056.287.101.096.045.182.106.262.182l1.84 1.834c.02.02.04.035.065.055.02.02.046.03.076.03.035 0 .06-.01.065-.03.01-.025.01-.04.01-.055v-2.122h1.26z" fill="none" stroke="#f47216" stroke-width=".0100793"/><path d="M57.462 66.402h2.802c.121 0 .202-.01.232-.035.035-.025.05-.05.05-.076 0-.06-.03-.1-.1-.12a4.417 4.417 0 0 0-.222-.06l-1.96-.389a1.23 1.23 0 0 1-.364-.116 1.936 1.936 0 0 1-.216-.151.757.757 0 0 1-.227-.383 1.994 1.994 0 0 1-.045-.413c0-.111.015-.232.045-.363.03-.126.12-.242.272-.348.08-.06.192-.11.333-.156.14-.046.317-.07.534-.07h3.341v.886h-2.575c-.096 0-.161 0-.197.005a.536.536 0 0 0-.07.015c-.05.02-.08.056-.08.096 0 .06.05.1.14.131.096.025.192.046.288.066l1.703.317c.11.025.237.056.368.096.13.04.242.09.338.156a.818.818 0 0 1 .186.187c.045.07.08.14.106.211.02.076.035.146.04.217a1.855 1.855 0 0 1-.025.554.645.645 0 0 1-.207.353.964.964 0 0 1-.231.161 1.39 1.39 0 0 1-.258.081 2.55 2.55 0 0 1-.267.03c-.09.005-.176.005-.267.005h-3.467v-.887" fill="#f47216"/><path d="M57.462 66.402h2.802c.121 0 .202-.01.232-.035.035-.025.05-.05.05-.076 0-.06-.03-.1-.1-.12a4.417 4.417 0 0 0-.222-.06l-1.96-.389a1.23 1.23 0 0 1-.364-.116 1.936 1.936 0 0 1-.216-.151.757.757 0 0 1-.227-.383 1.994 1.994 0 0 1-.045-.413c0-.111.015-.232.045-.363.03-.126.12-.242.272-.348.08-.06.192-.11.333-.156.14-.046.317-.07.534-.07h3.341v.886h-2.575c-.096 0-.161 0-.197.005a.536.536 0 0 0-.07.015c-.05.02-.08.056-.08.096 0 .06.05.1.14.131.096.025.192.046.288.066l1.703.317c.11.025.237.056.368.096.13.04.242.09.338.156a.818.818 0 0 1 .186.187c.045.07.08.14.106.211.02.076.035.146.04.217a1.855 1.855 0 0 1-.025.554.645.645 0 0 1-.207.353.964.964 0 0 1-.231.161 1.39 1.39 0 0 1-.258.081 2.55 2.55 0 0 1-.267.03c-.09.005-.176.005-.267.005h-3.467z" fill="none" stroke="#f47216" stroke-width=".0100793"/><path d="M65.757 67.29v-2.682h-1.809v-.887H69.2v.887H67.39v2.681h-1.633" fill="#f47216"/><path d="M65.757 67.29v-2.682h-1.809v-.887H69.2v.887H67.39v2.681z" fill="none" stroke="#f47216" stroke-width=".0100793"/><path d="M72.017 67.29c-.106 0-.212-.006-.313-.02a.741.741 0 0 1-.302-.102c-.116-.07-.182-.14-.202-.211a.897.897 0 0 1-.03-.237v-2.45c0-.065.015-.135.035-.206a.412.412 0 0 1 .182-.197.792.792 0 0 1 .312-.12c.11-.016.212-.026.302-.026h3.639v.867h-2.505a.672.672 0 0 0-.252.05.158.158 0 0 0-.07.086c-.005.035-.01.066-.01.09v.268h2.761v.776h-2.761v.388c0 .035.01.066.025.086.01.02.03.035.05.045.036.025.086.04.141.046h2.641v.866h-3.643" fill="#f47216"/><path d="M72.017 67.29c-.106 0-.212-.006-.313-.02a.741.741 0 0 1-.302-.102c-.116-.07-.182-.14-.202-.211a.897.897 0 0 1-.03-.237v-2.45c0-.065.015-.135.035-.206a.412.412 0 0 1 .182-.197.792.792 0 0 1 .312-.12c.11-.016.212-.026.302-.026h3.639v.867h-2.505a.672.672 0 0 0-.252.05.158.158 0 0 0-.07.086c-.005.035-.01.066-.01.09v.268h2.761v.776h-2.761v.388c0 .035.01.066.025.086.01.02.03.035.05.045.036.025.086.04.141.046h2.641v.866z" fill="none" stroke="#f47216" stroke-width=".0100793"/><path d="M83.37 66.695a.77.77 0 0 1-.02.15.456.456 0 0 1-.13.218.934.934 0 0 1-.328.186c-.151.055-.353.08-.62.08-.096 0-.191 0-.287-.01a1.42 1.42 0 0 1-.564-.15 1.062 1.062 0 0 1-.247-.187l-1.83-1.82c-.02-.02-.04-.035-.065-.055-.026-.02-.046-.035-.07-.035-.011 0-.031.005-.061.015-.026.01-.04.04-.04.09v2.112h-1.26v-2.973c0-.116.035-.212.095-.292a.667.667 0 0 1 .252-.197c.106-.05.227-.09.368-.11.136-.02.277-.036.418-.036.07 0 .152.005.242.01s.187.02.282.04c.096.02.192.056.288.101.095.045.181.106.262.182l1.84 1.834c.02.02.04.035.065.055.02.02.045.03.075.03.036 0 .06-.01.066-.03.01-.025.01-.04.01-.055v-2.122h1.26v2.969" fill="#f47216"/><path d="M83.37 66.695a.77.77 0 0 1-.02.15.456.456 0 0 1-.13.218.934.934 0 0 1-.328.186c-.151.055-.353.08-.62.08-.096 0-.191 0-.287-.01a1.42 1.42 0 0 1-.564-.15 1.062 1.062 0 0 1-.247-.187l-1.83-1.82c-.02-.02-.04-.035-.065-.055-.026-.02-.046-.035-.07-.035-.011 0-.031.005-.061.015-.026.01-.04.04-.04.09v2.112h-1.26v-2.973c0-.116.035-.212.095-.292a.667.667 0 0 1 .252-.197c.106-.05.227-.09.368-.11.136-.02.277-.036.418-.036.07 0 .152.005.242.01s.187.02.282.04c.096.02.192.056.288.101.095.045.181.106.262.182l1.84 1.834c.02.02.04.035.065.055.02.02.045.03.075.03.036 0 .06-.01.066-.03.01-.025.01-.04.01-.055v-2.122h1.26z" fill="none" stroke="#f47216" stroke-width=".0100793"/><path d="M93.627 66.85a1.05 1.05 0 0 1-.101.182c-.04.06-.091.111-.162.157a.973.973 0 0 1-.277.1c-.11.026-.257.04-.438.04a2.01 2.01 0 0 1-.434-.04.973.973 0 0 1-.277-.1.532.532 0 0 1-.161-.157.796.796 0 0 1-.1-.181l-.782-1.724c-.015-.03-.03-.06-.045-.085-.02-.03-.036-.04-.056-.04-.035 0-.05.014-.055.045 0 .03-.005.055-.005.07l.05 2.172h-1.638v-2.983c0-.156.05-.272.157-.358.105-.086.231-.146.367-.186.136-.04.273-.066.414-.071.136-.005.237-.01.302-.01.106 0 .222.005.348.015.12.01.242.035.363.076.12.04.231.095.332.176.101.076.187.187.252.323l.817 1.733c.005.01.015.025.025.04.01.02.02.036.035.056.015.02.03.035.045.045.016.015.036.026.046.026.015 0 .03-.01.05-.026a.192.192 0 0 0 .046-.045.339.339 0 0 0 .035-.055c.01-.016.02-.03.025-.04l.816-1.734a.811.811 0 0 1 .247-.323 1.14 1.14 0 0 1 .338-.176c.121-.04.242-.066.363-.076.126-.01.242-.015.353-.015.287 0 .514.02.68.065.161.046.287.101.368.167.086.06.141.13.161.206.02.07.03.136.03.187v2.983h-1.647l.06-2.172a.17.17 0 0 0-.02-.09c-.015-.02-.03-.026-.046-.026-.015 0-.03.01-.045.03l-.055.096-.781 1.724" fill="#f47216"/><path d="M93.627 66.85a1.05 1.05 0 0 1-.101.182c-.04.06-.091.111-.162.157a.973.973 0 0 1-.277.1c-.11.026-.257.04-.438.04a2.01 2.01 0 0 1-.434-.04.973.973 0 0 1-.277-.1.532.532 0 0 1-.161-.157.796.796 0 0 1-.1-.181l-.782-1.724c-.015-.03-.03-.06-.045-.085-.02-.03-.036-.04-.056-.04-.035 0-.05.014-.055.045 0 .03-.005.055-.005.07l.05 2.172h-1.638v-2.983c0-.156.05-.272.157-.358.105-.086.231-.146.367-.186.136-.04.273-.066.414-.071.136-.005.237-.01.302-.01.106 0 .222.005.348.015.12.01.242.035.363.076.12.04.231.095.332.176.101.076.187.187.252.323l.817 1.733c.005.01.015.025.025.04.01.02.02.036.035.056.015.02.03.035.045.045.016.015.036.026.046.026.015 0 .03-.01.05-.026a.192.192 0 0 0 .046-.045.339.339 0 0 0 .035-.055c.01-.016.02-.03.025-.04l.816-1.734a.811.811 0 0 1 .247-.323 1.14 1.14 0 0 1 .338-.176c.121-.04.242-.066.363-.076.126-.01.242-.015.353-.015.287 0 .514.02.68.065.161.046.287.101.368.167.086.06.141.13.161.206.02.07.03.136.03.187v2.983h-1.647l.06-2.172a.17.17 0 0 0-.02-.09c-.015-.02-.03-.026-.046-.026-.015 0-.03.01-.045.03l-.055.096z" fill="none" stroke="#f47216" stroke-width=".0100793"/><path d="M99.417 67.29c-.106 0-.212-.006-.312-.02a.741.741 0 0 1-.303-.102c-.116-.07-.181-.14-.201-.211a.897.897 0 0 1-.03-.237v-2.45c0-.065.015-.135.035-.206a.412.412 0 0 1 .181-.197.792.792 0 0 1 .313-.12c.11-.016.211-.026.302-.026h3.634v.867h-2.5a.672.672 0 0 0-.252.05.158.158 0 0 0-.07.086c-.006.035-.01.066-.01.09v.268h2.761v.776h-2.762v.388c0 .035.01.066.025.086.01.02.03.035.05.045.036.025.087.04.142.046h2.641v.866h-3.644" fill="#f47216"/><path d="M99.417 67.29c-.106 0-.212-.006-.312-.02a.741.741 0 0 1-.303-.102c-.116-.07-.181-.14-.201-.211a.897.897 0 0 1-.03-.237v-2.45c0-.065.015-.135.035-.206a.412.412 0 0 1 .181-.197.792.792 0 0 1 .313-.12c.11-.016.211-.026.302-.026h3.634v.867h-2.5a.672.672 0 0 0-.252.05.158.158 0 0 0-.07.086c-.006.035-.01.066-.01.09v.268h2.761v.776h-2.762v.388c0 .035.01.066.025.086.01.02.03.035.05.045.036.025.087.04.142.046h2.641v.866z" fill="none" stroke="#f47216" stroke-width=".0100793"/><path d="M106.024 67.29a2.03 2.03 0 0 1-.297-.026.674.674 0 0 1-.252-.086.531.531 0 0 1-.156-.146.322.322 0 0 1-.066-.201v-3.11h1.633v2.465c0 .02 0 .045.01.08.005.036.03.066.065.091a.31.31 0 0 0 .126.04c.046.005.091.005.136.005h2.626v.887h-3.825" fill="#f47216"/><path d="M106.024 67.29a2.03 2.03 0 0 1-.297-.026.674.674 0 0 1-.252-.086.531.531 0 0 1-.156-.146.322.322 0 0 1-.066-.201v-3.11h1.633v2.465c0 .02 0 .045.01.08.005.036.03.066.065.091a.31.31 0 0 0 .126.04c.046.005.091.005.136.005h2.626v.887z" fill="none" stroke="#f47216" stroke-width=".0100793"/><path d="M114.39 63.681c.191 0 .388.005.595.01.201.005.398.015.594.04.197.026.378.06.555.111.176.05.332.116.468.207.136.086.242.191.318.307.075.121.136.247.171.373.04.131.066.262.07.398.006.131.01.257.01.378s-.004.247-.01.378c-.004.131-.03.262-.07.393a1.353 1.353 0 0 1-.171.368 1.058 1.058 0 0 1-.318.318c-.136.09-.292.156-.468.206a3.72 3.72 0 0 1-.555.111 5.796 5.796 0 0 1-.6.04c-.206.006-.403.01-.59.01-.186 0-.382-.004-.589-.01a5.796 5.796 0 0 1-.6-.04 3.72 3.72 0 0 1-.554-.11 1.654 1.654 0 0 1-.469-.207 1.022 1.022 0 0 1-.322-.318 1.336 1.336 0 0 1-.166-.368 1.537 1.537 0 0 1-.07-.393c-.006-.13-.011-.257-.011-.378 0-.12.005-.247.01-.378.005-.136.03-.267.07-.398.036-.126.091-.252.167-.373a.997.997 0 0 1 .322-.307c.137-.09.293-.156.47-.207a3.72 3.72 0 0 1 .554-.11c.196-.026.393-.036.594-.041.207-.005.403-.01.595-.01zm-1.104 1.824c0 .141.01.267.03.378.02.111.076.212.157.298.05.06.11.105.176.14a.767.767 0 0 0 .212.081c.07.015.156.026.242.03.09.006.186.01.287.01.106 0 .201-.004.292-.01.09-.004.172-.015.242-.03a.704.704 0 0 0 .202-.08.68.68 0 0 0 .181-.141.543.543 0 0 0 .161-.303c.02-.106.026-.232.026-.373V65.3a1.46 1.46 0 0 0-.02-.172.39.39 0 0 0-.056-.15.675.675 0 0 0-.11-.152.71.71 0 0 0-.384-.212 2.672 2.672 0 0 0-.534-.045c-.106 0-.202 0-.287.005-.091.005-.172.02-.247.04a.757.757 0 0 0-.212.076.728.728 0 0 0-.171.136.56.56 0 0 0-.162.302c-.02.101-.025.227-.025.378" fill="#f47216"/><path d="M114.39 63.681c.191 0 .388.005.595.01.201.005.398.015.594.04.197.026.378.06.555.111.176.05.332.116.468.207.136.086.242.191.318.307.075.121.136.247.171.373.04.131.066.262.07.398.006.131.01.257.01.378s-.004.247-.01.378c-.004.131-.03.262-.07.393a1.353 1.353 0 0 1-.171.368 1.058 1.058 0 0 1-.318.318c-.136.09-.292.156-.468.206a3.72 3.72 0 0 1-.555.111 5.796 5.796 0 0 1-.6.04c-.206.006-.403.01-.59.01-.186 0-.382-.004-.589-.01a5.796 5.796 0 0 1-.6-.04 3.72 3.72 0 0 1-.554-.11 1.654 1.654 0 0 1-.469-.207 1.022 1.022 0 0 1-.322-.318 1.336 1.336 0 0 1-.166-.368 1.537 1.537 0 0 1-.07-.393c-.006-.13-.011-.257-.011-.378 0-.12.005-.247.01-.378.005-.136.03-.267.07-.398.036-.126.091-.252.167-.373a.997.997 0 0 1 .322-.307c.137-.09.293-.156.47-.207a3.72 3.72 0 0 1 .554-.11c.196-.026.393-.036.594-.041.207-.005.403-.01.595-.01z" fill="none" stroke="#f47216" stroke-width=".0100793"/><path d="M113.286 65.505c0 .141.01.267.03.378a.67.67 0 0 0 .157.303.767.767 0 0 0 .388.217c.075.014.156.03.247.035.085.005.181.005.282.005.106 0 .207 0 .297-.005.086-.005.167-.02.242-.036a.767.767 0 0 0 .202-.08c.06-.036.12-.08.181-.136a.59.59 0 0 0 .161-.308c.016-.106.026-.232.026-.373 0-.075 0-.146-.005-.206 0-.066-.01-.121-.016-.172a.492.492 0 0 0-.055-.15.7.7 0 0 0-.11-.147.705.705 0 0 0-.384-.217 2.691 2.691 0 0 0-.54-.045c-.105 0-.2 0-.286.005-.086.01-.167.02-.247.04a.835.835 0 0 0-.207.076.66.66 0 0 0-.176.141.53.53 0 0 0-.162.297c-.015.101-.025.227-.025.378z" fill="none" stroke="#f47216" stroke-width=".0100793"/><path d="M119.435 64.366c0-.07.005-.15.02-.237a.394.394 0 0 1 .146-.226.68.68 0 0 1 .257-.126c.106-.036.227-.05.348-.05h2.308c.282 0 .564.035.836.105.272.07.494.182.676.328.176.146.297.322.357.539.066.217.096.479.096.786 0 .353-.03.635-.096.847a1.19 1.19 0 0 1-.292.509c-.126.126-.312.232-.56.317-.246.091-.544.131-.896.131h-2.369c-.076 0-.171-.005-.287-.02a.707.707 0 0 1-.313-.11.58.58 0 0 1-.166-.167.414.414 0 0 1-.065-.232zm1.632 1.77c0 .035.005.075.01.11.006.035.026.07.06.096.046.03.102.05.162.055.06.005.101.005.111.005h.222c.181 0 .363-.01.534-.035a.756.756 0 0 0 .413-.166.398.398 0 0 0 .066-.066c.025-.03.045-.075.07-.126a.894.894 0 0 0 .06-.211c.021-.091.026-.197.026-.323a.99.99 0 0 0-.096-.474.736.736 0 0 0-.242-.267.883.883 0 0 0-.393-.126 4.029 4.029 0 0 0-.524-.03h-.126c-.04 0-.086.005-.126.01a.361.361 0 0 0-.126.035c-.045.026-.075.056-.085.096a.443.443 0 0 0-.016.1v1.316" fill="#f47216"/><path d="M119.435 64.366c0-.07.005-.15.02-.237a.394.394 0 0 1 .146-.226.68.68 0 0 1 .257-.126c.106-.036.227-.05.348-.05h2.308c.282 0 .564.035.836.105.272.07.494.182.676.328.176.146.297.322.357.539.066.217.096.479.096.786 0 .353-.03.635-.096.847a1.19 1.19 0 0 1-.292.509c-.126.126-.312.232-.56.317-.246.091-.544.131-.896.131h-2.369c-.076 0-.171-.005-.287-.02a.707.707 0 0 1-.313-.11.58.58 0 0 1-.166-.167.414.414 0 0 1-.065-.232z" fill="none" stroke="#f47216" stroke-width=".0100793"/><path d="M121.067 66.135c0 .036 0 .076.005.111.005.04.03.07.066.096.045.035.096.05.161.055l.106.01h.227c.181 0 .363-.015.534-.035a.775.775 0 0 0 .413-.171.398.398 0 0 0 .066-.066c.02-.03.045-.075.07-.126a.894.894 0 0 0 .06-.211c.021-.086.026-.192.026-.318 0-.201-.03-.358-.096-.474a.714.714 0 0 0-.242-.272.883.883 0 0 0-.393-.126 4.1 4.1 0 0 0-.524-.025h-.126c-.04 0-.086 0-.13.005a.367.367 0 0 0-.122.035.172.172 0 0 0-.085.096.443.443 0 0 0-.016.1z" fill="none" stroke="#f47216" stroke-width=".0100793"/><path d="M126.742 67.29h1.634v-3.567h-1.634z" fill="#f47216" stroke-width="4.032"/><g><path d="M128.375 67.29h-1.634v-3.567h1.634z" fill="none" stroke="#f47216" stroke-width=".0100793"/></g><g><path d="M131.625 67.29c-.105 0-.211-.006-.312-.02a.741.741 0 0 1-.302-.102c-.116-.07-.182-.14-.202-.211a.897.897 0 0 1-.03-.237v-2.45c0-.065.015-.135.035-.206a.412.412 0 0 1 .182-.197.792.792 0 0 1 .312-.12c.11-.016.212-.026.302-.026h3.639v.867h-2.505a.672.672 0 0 0-.252.05c-.04.026-.06.056-.065.086a.339.339 0 0 0-.015.09v.268h2.761v.776h-2.761v.388a.144.144 0 0 0 .075.131c.036.025.086.04.141.046h2.641v.866h-3.644" fill="#f47216"/></g><g><path d="M131.625 67.29c-.105 0-.211-.006-.312-.02a.741.741 0 0 1-.302-.102c-.116-.07-.182-.14-.202-.211a.897.897 0 0 1-.03-.237v-2.45c0-.065.015-.135.035-.206a.412.412 0 0 1 .182-.197.792.792 0 0 1 .312-.12c.11-.016.212-.026.302-.026h3.639v.867h-2.505a.672.672 0 0 0-.252.05c-.04.026-.06.056-.065.086a.339.339 0 0 0-.015.09v.268h2.761v.776h-2.761v.388a.144.144 0 0 0 .075.131c.036.025.086.04.141.046h2.641v.866z" fill="none" stroke="#f47216" stroke-width=".0100793"/></g><g><path d="M142.98 66.695a.77.77 0 0 1-.02.15.456.456 0 0 1-.131.218.934.934 0 0 1-.328.186c-.146.055-.353.08-.62.08-.096 0-.191 0-.287-.01a1.42 1.42 0 0 1-.287-.045 1.052 1.052 0 0 1-.273-.106.99.99 0 0 1-.252-.186l-1.829-1.82c-.02-.02-.04-.035-.065-.055-.02-.02-.046-.035-.071-.035-.01 0-.03.005-.06.015-.026.01-.04.04-.04.09v2.112h-1.26v-2.973c0-.116.035-.212.095-.292a.667.667 0 0 1 .252-.197c.106-.05.227-.09.368-.11.136-.02.277-.036.418-.036.07 0 .151.005.242.01.09.005.187.02.282.04.096.02.192.056.288.101.095.045.181.106.262.182l1.84 1.834c.02.02.04.035.065.055.02.02.045.03.075.03.036 0 .06-.01.066-.03.01-.025.01-.04.01-.055v-2.122h1.26v2.969" fill="#f47216"/></g><g><path d="M142.98 66.695a.77.77 0 0 1-.02.15.456.456 0 0 1-.131.218.934.934 0 0 1-.328.186c-.146.055-.353.08-.62.08-.096 0-.191 0-.287-.01a1.42 1.42 0 0 1-.287-.045 1.052 1.052 0 0 1-.273-.106.99.99 0 0 1-.252-.186l-1.829-1.82c-.02-.02-.04-.035-.065-.055-.02-.02-.046-.035-.071-.035-.01 0-.03.005-.06.015-.026.01-.04.04-.04.09v2.112h-1.26v-2.973c0-.116.035-.212.095-.292a.667.667 0 0 1 .252-.197c.106-.05.227-.09.368-.11.136-.02.277-.036.418-.036.07 0 .151.005.242.01.09.005.187.02.282.04.096.02.192.056.288.101.095.045.181.106.262.182l1.84 1.834c.02.02.04.035.065.055.02.02.045.03.075.03.036 0 .06-.01.066-.03.01-.025.01-.04.01-.055v-2.122h1.26z" fill="none" stroke="#f47216" stroke-width=".0100793"/></g><g><path d="M42.948 62.275h1.134l.005.947h-1.14v-.947" fill="#f47216"/></g><g><path d="M42.948 62.275h1.134l.005.947h-1.14z" fill="none" stroke="#f47216" stroke-width=".0100793"/></g><g><path d="M45.155 62.275h1.134l.005.947h-1.139v-.947" fill="#f47216"/></g><g><path d="M45.155 62.275h1.134l.005.947h-1.139z" fill="none" stroke="#f47216" stroke-width=".0100793"/></g><g><path d="M37.016 20.491c18.697-31.805 48.063 2.142 69.84-19.1-23.132 37.933-46.799 3.165-69.84 19.1" fill="#f47216" fill-rule="evenodd"/></g><g><path d="M37.016 20.491c18.697-31.805 48.063 2.142 69.84-19.1-23.132 37.933-46.799 3.165-69.84 19.1z" fill="none" stroke="#f47216" stroke-width=".0100793"/></g><g><path d="M49.69 5.84c14.253-13.112 31.085.63 44.698-3.905-14.752 9.288-26.151-4.268-44.697 3.906" fill="#f47216" fill-rule="evenodd"/></g><g><path d="M49.69 5.84c14.253-13.112 31.085.63 44.698-3.905-14.752 9.288-26.151-4.268-44.697 3.906z" fill="none" stroke="#f47216" stroke-width=".0100793"/></g></svg>