<?xml version="1.0" encoding="UTF-8"?>
<svg version="1.0" viewBox="0 0 500 456.93" xmlns="http://www.w3.org/2000/svg" xmlns:cc="http://creativecommons.org/ns#" xmlns:dc="http://purl.org/dc/elements/1.1/" xmlns:rdf="http://www.w3.org/1999/02/22-rdf-syntax-ns#">
<metadata>
<rdf:RDF>
<cc:Work rdf:about="">
<dc:format>image/svg+xml</dc:format>
<dc:type rdf:resource="http://purl.org/dc/dcmitype/StillImage"/>
</cc:Work>
</rdf:RDF>
</metadata>
<defs>
<clipPath id="c">
<path d="m230.32 544.38h152.01v138.92h-152.01z"/>
</clipPath>
<linearGradient id="d" x2="1" gradientTransform="translate(14.65 169.54) scale(287.28)" gradientUnits="userSpaceOnUse">
<stop stop-color="#7c4e9a" offset="0"/>
<stop stop-color="#622b87" offset="1"/>
</linearGradient>
<radialGradient id="e" cx="0" cy="0" r="1" gradientTransform="translate(156.23 159.9) scale(121.3)" gradientUnits="userSpaceOnUse">
<stop stop-color="#fff" offset="0"/>
<stop stop-color="#9185be" offset="1"/>
</radialGradient>
<clipPath id="f">
<path d="m230.32 544.38h152.01v138.92h-152.01z"/>
</clipPath>
<linearGradient id="g" x2="1" gradientTransform="translate(5.536 244.06) scale(488.4)" gradientUnits="userSpaceOnUse">
<stop stop-color="#00b6ed" offset="0"/>
<stop stop-color="#009ee3" offset="1"/>
</linearGradient>
<radialGradient id="h" cx="0" cy="0" r="1" gradientTransform="translate(250 238.76) scale(196.89)" gradientUnits="userSpaceOnUse">
<stop stop-color="#00b1eb" offset="0"/>
<stop stop-color="#dff2fd" offset=".484"/>
<stop stop-color="#70cbf3" offset="1"/>
</radialGradient>
<clipPath id="i">
<path d="m230.32 544.38h152.01v138.92h-152.01z"/>
</clipPath>
<clipPath id="j">
<path d="m230.32 544.38h152.01v138.92h-152.01z"/>
</clipPath>
<linearGradient id="k" x2="1" gradientTransform="translate(31.17 260.2) scale(453.36)" gradientUnits="userSpaceOnUse">
<stop stop-color="#006f9d" offset="0"/>
<stop stop-color="#005477" offset="1"/>
</linearGradient>
<linearGradient id="l" x2="1" gradientTransform="translate(105.96 228.5) scale(317.34)" gradientUnits="userSpaceOnUse">
<stop stop-color="#78bc68" offset="0"/>
<stop stop-color="#0aa537" offset="1"/>
</linearGradient>
<linearGradient id="m" x2="1" gradientTransform="translate(99.8 217.72) scale(328.82)" gradientUnits="userSpaceOnUse">
<stop stop-color="#9ccc8f" offset="0"/>
<stop stop-color="#b6d7a4" offset="1"/>
</linearGradient>
<clipPath id="n">
<path d="m230.32 544.38h152.01v138.92h-152.01z"/>
</clipPath>
<linearGradient id="o" x2="1" gradientTransform="translate(126.84 245.12) scale(292.43)" gradientUnits="userSpaceOnUse">
<stop stop-color="#03611d" offset="0"/>
<stop stop-color="#015a19" offset="1"/>
</linearGradient>
<clipPath id="p">
<path d="m230.32 544.38h152.01v138.92h-152.01z"/>
</clipPath>
<linearGradient id="q" x2="1" gradientTransform="translate(97.524 295.48) scale(285.89)" gradientUnits="userSpaceOnUse">
<stop stop-color="#fff265" offset="0"/>
<stop stop-color="#fe0" offset="1"/>
</linearGradient>
<radialGradient id="r" cx="0" cy="0" r="1" gradientTransform="translate(240.12 289.42) scale(120.49)" gradientUnits="userSpaceOnUse">
<stop stop-color="#fff041" offset="0"/>
<stop stop-color="#fff8bd" offset=".484"/>
<stop stop-color="#fff6a6" offset="1"/>
</radialGradient>
<clipPath id="s">
<path d="m230.32 544.38h152.01v138.92h-152.01z"/>
</clipPath>
<linearGradient id="t" x2="1" gradientTransform="translate(122.14 312.23) scale(260.52)" gradientUnits="userSpaceOnUse">
<stop stop-color="#a99c00" offset="0"/>
<stop stop-color="#867c00" offset="1"/>
</linearGradient>
<clipPath id="u">
<path d="m230.32 544.38h152.01v138.92h-152.01z"/>
</clipPath>
<linearGradient id="v" x2="1" gradientTransform="translate(154.46 318.97) scale(134.91)" gradientUnits="userSpaceOnUse">
<stop stop-color="#ee6f43" offset="0"/>
<stop stop-color="#e8451d" offset="1"/>
</linearGradient>
<radialGradient id="w" cx="0" cy="0" r="1" gradientTransform="matrix(60.502 0 0 60.502 216.75 309.82)" gradientUnits="userSpaceOnUse">
<stop stop-color="#f28e66" offset="0"/>
<stop stop-color="#fcddcb" offset=".5"/>
<stop stop-color="#f9bd95" offset="1"/>
</radialGradient>
<clipPath id="x">
<path d="m230.32 544.38h152.01v138.92h-152.01z"/>
</clipPath>
<linearGradient id="a" x2="1" gradientTransform="translate(177.54 334.94) scale(116.67)" gradientUnits="userSpaceOnUse">
<stop stop-color="#8a2100" offset="0"/>
<stop stop-color="#781d00" offset="1"/>
</linearGradient>
<clipPath id="b">
<path d="m230.32 544.38h152.01v138.92h-152.01z"/>
</clipPath>
</defs>
<g transform="matrix(3.2893,0,0,-3.2893,-757.57,2247.5)" clip-path="url(#c)">
<path d="m258.81 674.3c2.592 0 3.685 0.688 3.685 2.495v1.568c0 1.926-0.832 2.543-4.254 2.543h-10.601v-6.606zm-13.5 8.508h13.762c4.968 0 5.752-1.64 5.752-4.873v-1.402c0-2.424-1.378-3.09-3.161-3.256v-0.048c2.377-0.427 2.947-1.663 2.947-3.232v-4.397h-2.186v3.78c0 2.685-1.307 3.018-3.423 3.018h-11.361v-6.798h-2.33zm36.247-1.901-5.776-9.768h11.552zm-1.45 1.902h2.9l10.22-17.208h-2.638l-2.14 3.636h-13.785l-2.14-3.636h-2.637zm37.434-7.773c0 4.967-1.545 5.87-4.397 5.87h-12.193v-13.404h11.813c2.828 0 4.777 0.618 4.777 5.775zm-18.919 7.772h13.904c5.776 0 7.344-1.806 7.344-8.604 0-6.322-1.568-8.604-7.415-8.604h-13.833zm28.331 0h2.329v-17.208h-2.329zm29.257-5.372c0 2.995-1.805 3.66-4.04 3.66h-9.435c-2.234 0-4.041-0.665-4.041-3.66v-6.465c0-2.994 1.807-3.66 4.04-3.66h9.436c2.235 0 4.04 0.666 4.04 3.66zm-19.845-0.879c0 4.35 1.474 6.441 6.132 6.441h9.91c4.66 0 6.133-2.092 6.133-6.44v-4.707c0-4.35-1.473-6.44-6.132-6.44h-9.911c-4.658 0-6.132 2.09-6.132 6.44zm-87.41-123.67h0.716c1.32 0 1.545 0.358 1.545 1.41v2.439c0 0.828-0.336 1.209-1.142 1.209h-1.12v-5.058zm-3.715 7.833h4.588c3.984 0 5.103-0.828 5.103-3.871v-1.948c0-2.461-0.963-3.021-2.53-3.29v-0.044c1.657-0.358 2.53-0.65 2.53-2.641v-4.41h-3.715v4.634c0 0.67-0.381 0.962-1.634 0.962h-0.627v-5.595h-3.715zm12.04 1e-3h7.14v-2.91h-3.425v-3.559h3.178v-2.776h-3.178v-4.05h3.693v-2.91h-7.408v16.204zm9.31-3.157c0 2.641 1.701 3.335 4.812 3.335 2.932 0 4.812-0.492 4.812-3.827v-1.589h-3.58v1.701c0 0.738-0.27 0.94-1.21 0.94-0.716 0-0.985-0.202-0.985-1.007v-9.4c0-0.403 0.27-0.604 1.008-0.604 0.917 0 1.186 0.201 1.186 0.536v2.552h-1.142v3.043h4.723v-5.214c0-3.133-1.254-3.693-4.812-3.693-3.11 0-4.812 0.694-4.812 3.335zm11.862 3.157h7.139v-2.91h-3.424v-3.559h3.178v-2.776h-3.178v-4.05h3.693v-2.91h-7.408v16.204zm12.913-3.582h-0.045l0.224-12.622h-3.424v16.203h5.416l2.73-12.623 0.045 0.045-0.268 12.578h3.446v-16.203h-5.416zm14.435-9.848h1.097c0.917 0 1.141 0.27 1.141 1.5v1.208c0 1.21-0.269 1.477-1.14 1.477h-1.098zm0 6.826h0.895c1.074 0 1.21 0.36 1.21 1.433v0.984c0 1.052-0.135 1.41-1.21 1.41h-0.895zm-3.715 6.603h5.484c3.223 0 4.05-0.672 4.05-3.917 0-2.127-0.157-3.469-2.417-3.85v-0.045c2.306-0.178 2.686-1.812 2.686-3.782 0-3.4-0.783-4.61-3.715-4.61h-6.087v16.204zm17.591-3.358c0 0.605-0.269 0.761-0.962 0.761-0.694 0-0.963-0.156-0.963-0.76v-9.49c0-0.604 0.27-0.76 0.963-0.76s0.962 0.156 0.962 0.76v9.49zm-5.774 0.202c0 2.641 1.701 3.335 4.812 3.335 3.11 0 4.811-0.694 4.811-3.335v-9.892c0-2.64-1.7-3.335-4.81-3.335-3.112 0-4.813 0.694-4.813 3.335zm11.638 0c0 2.641 1.7 3.335 4.812 3.335 2.932 0 4.812-0.492 4.812-3.827v-1.589h-3.581v1.701c0 0.738-0.27 0.94-1.21 0.94-0.715 0-0.984-0.202-0.984-1.007v-9.4c0-0.403 0.269-0.604 1.008-0.604 0.917 0 1.186 0.201 1.186 0.536v2.552h-1.142v3.043h4.723v-5.214c0-3.133-1.254-3.693-4.812-3.693-3.111 0-4.812 0.694-4.812 3.335zm11.861 3.157h7.14v-2.91h-3.425v-3.559h3.178v-2.776h-3.178v-4.05h3.693v-2.91h-7.408v16.204zm12.914-3.582h-0.045l0.224-12.622h-3.424v16.203h5.416l2.73-12.623 0.045 0.045-0.268 12.578h3.446v-16.203h-5.416zm-109.1-12.771h-1.674v138.92h1.674zm122.86 0h-1.674v138.92h1.674z" fill="#fffaf1"/>
</g>
<path d="M292.529 78.403c-6.378.869-12.621 1.773-18.374 2.81-55.99 10.094-102.382 29.708-143.206 55.016C85.9 164.15 48.11 199.56 17.463 242.039c-.78 1.075-2.813 4.108-2.813 4.108 1.648 1.115 1.418.95 2.701 1.835 5.625 3.888 10.614 7.394 16.213 11.243l3.184 2.21s15.397-21.36 22.867-29.883c24.725-28.19 51.96-50.71 84.176-71.019 21.84-13.775 46.671-26.074 72.216-35.478 25.88-9.526 53.905-15.525 85.926-20.604-.675-6.144-1.27-13.657-1.944-20.104-.247-2.31-.76-6.7-.76-6.7s-4.829.5-6.7.756" fill="url(#d)"/>
<path d="m8.404 246.93 6.246-0.78s2.033-3.032 2.813-4.108c30.646-42.477 68.437-77.887 113.49-105.81 40.824-25.307 87.216-44.92 143.21-55.016 5.753-1.036 11.996-1.94 18.374-2.809 1.871-0.256 6.7-0.756 6.7-0.756l4.829-4.766c-124.9 11.775-228.79 79.715-295.65 174.04" fill="url(#e)"/>
<g transform="matrix(3.2893 0 0 -3.2893 -757.57 2247.5)" clip-path="url(#f)">
<path d="M322.108 651.537c-9.735-1.544-18.255-3.368-26.123-6.264-7.767-2.86-15.315-6.599-21.954-10.786-9.794-6.175-18.076-13.02-25.593-21.592-2.27-2.59-6.951-9.085-6.951-9.085l-.968.673c-1.702 1.17-3.219 2.236-4.928 3.417-.391.27-.321.22-.822.56l-1.902-.243 2.37-1.636 6.072-4.19.534-.316c18.543 26.866 48.979 45.043 81.942 48.162zm-80.798-49.146h-.002z" fill="#38094c"/>
<path d="M281.935 643.136c-.283-1.985-.556-4.397-.556-4.397s-5.002-2.772-7.349-4.252c-9.793-6.175-18.075-13.02-25.592-21.592-2.27-2.59-6.95-9.084-6.95-9.084l-.969.672c-1.702 1.17-3.219 2.236-4.929 3.417-.39.27-.32.22-.82.56 0 0 .617.92.853 1.247 9.318 12.915 20.807 23.68 34.502 32.17 1.712 1.06 4.242 2.567 6.61 3.836a155.986 155.986 0 0 0 6.291 3.181s-.689-2.94-1.09-5.758" fill="#5b2282" fill-rule="evenodd"/>
<path d="M322.108 651.537l1.677-1.3-1.031 10.897-1.468-1.448s.156-1.335.231-2.037c.205-1.96.386-4.244.591-6.112" fill="#5b2282"/>
</g>
<path d="m330.54 120.8c-43.198 1.612-78.886 9.914-111.76 22.012-34.521 12.707-65.595 30.173-92.406 50.688-54.04 41.35-95.32 95.274-120.84 165.37 7.555 2.556 25.637 8.706 25.637 8.706s2.51-7.766 2.934-8.858c15.36-39.218 36.451-72.883 62.374-101.12 27.656-30.13 59.618-55.494 98.846-74.769 34.492-16.953 72.97-30.662 119.97-34.501 6.8-0.556 13.78-0.592 21.075-0.868 28.883-1.08 58.513 3.516 82.163 8.578 26.564 5.684 64.058 21.946 64.058 21.946l11.335-24.16s-24.275-10.68-34.126-14.035c-33.376-11.361-71.575-19.249-115.42-19.249-4.556 0-9.174 0.086-13.852 0.263" fill="url(#g)"/>
<path d="m0 361.36 5.536-2.483c25.518-70.098 66.799-124.02 120.84-165.37 26.811-20.515 57.885-37.981 92.406-50.688 32.87-12.098 68.558-20.4 111.76-22.012 49.698-1.861 92.426 6.444 129.27 18.986 9.851 3.355 34.126 14.035 34.126 14.035l6.066-2.328v-6e-3a365.39 365.39 0 0 0-122.76-33.743 369.25 369.25 0 0 0-34.267-1.595c-156.58-6e-3 -293.71 100.29-342.97 245.21" fill="url(#h)"/>
<g transform="matrix(3.2893 0 0 -3.2893 -757.57 2247.5)" clip-path="url(#i)">
<path d="M380.48 636.526l-3.447-7.345.588-1.824 4.704 9.878-1.846-.709z" fill="#006894"/>
</g>
<g transform="matrix(3.2893 0 0 -3.2893 -757.57 2247.5)" clip-path="url(#j)">
<path d="M280.705 628.34c0 2.335.036 4.065.036 4.065l-.093-.053a105.662 105.662 0 0 1-11.914-7.89c-16.428-12.57-28.977-28.964-36.736-50.274 2.297-.778 7.793-2.647 7.793-2.647s.763 2.36.894 2.692c4.668 11.923 11.08 22.159 18.962 30.744 6.216 6.77 13.15 12.748 21.162 17.772l.1.062c-.097 1.557-.204 3.006-.204 5.53" fill="#009ee3" fill-rule="evenodd"/>
<path d="m232 574.19-1.683-0.755 10.256-3.572-0.78 1.68s-5.496 1.869-7.793 2.647" fill="#005477"/>
</g>
<path d="m336.38 147.46c-7.296 0.276-14.276 0.312-21.075 0.868-47.003 3.839-85.481 17.548-119.97 34.501-39.228 19.275-71.19 44.639-98.846 74.769-25.923 28.242-47.014 61.907-62.374 101.12-0.425 1.092-2.934 8.858-2.934 8.858l2.565 5.523c47.583-139.93 186.51-234 340.16-219.62a329.12 329.12 0 0 1 110.64 30.505l-1.935-6s-37.494-16.262-64.058-21.946c-21.292-4.556-47.432-8.736-73.51-8.736-2.887 0-5.775 0.052-8.653 0.158" fill="url(#k)"/>
<path d="M331.638 165.48a228.141 228.141 0 0 0-10.16.652c-46.738 3.65-84.68 15.407-118.46 32.386-37.3 18.755-68.329 43.132-94.57 72.85-.586.668-2.484 2.922-2.484 2.922l20.88 17.42s8.378-10.043 11.543-13.21c12.453-12.453 25.459-22.884 39.99-33.15 19.164-13.545 40.715-25.61 64.849-34.48 23.972-8.806 50.891-15.658 82.034-17.753 15.348-1.036 32.739-.668 47.563.638 12.845 1.128 25.528 3.447 37.156 6.19 1.155.27 6.2 1.533 6.2 1.533s5.026-18.397 7.122-26.133c-23.581-6.115-51.053-10.059-80.4-10.059-3.724 0-7.483.066-11.263.194" fill="url(#l)"/>
<path d="m99.8 274.62 6.164-0.325s1.898-2.254 2.484-2.921c26.241-29.719 57.27-54.096 94.57-72.851 33.78-16.98 71.722-28.735 118.46-32.386 3.319-0.264 6.68-0.53 10.16-0.652 33.57-1.158 65.089 2.974 91.663 9.865l5.318-2.901c-17.64-4.829-36.294-8.46-55.102-10.217a324.39 324.39 0 0 0-30.14-1.404c-96.619-6e-3 -184.85 43.514-243.58 113.79" fill="url(#m)"/>
<g transform="matrix(3.2893 0 0 -3.2893 -757.57 2247.5)" clip-path="url(#n)">
<path d="m262.53 599.9-1.873-0.1 8.34-7.025-0.12 1.828z" fill="#076e22"/>
<path d="M356.84 622.04l.942-1.615 2.84 10.44-1.615-.881c-.638-2.351-2.166-7.944-2.166-7.944" fill="#097525"/>
</g>
<path d="M325.26 193.117c-31.143 2.095-58.062 8.947-82.034 17.752-24.134 8.871-45.685 20.936-64.848 34.482-14.532 10.265-27.538 20.696-39.991 33.149-3.165 3.167-11.543 13.21-11.543 13.21l.392 6.012c57.595-68.834 146.86-108.73 242.95-99.767 16.725 1.566 33.445 4.556 49.085 8.832l-3.092-5.309s-5.045-1.263-6.2-1.533c-11.628-2.743-24.311-5.062-37.156-6.19-8.976-.79-18.893-1.237-28.728-1.237-6.411 0-12.78.19-18.835.599" fill="url(#o)"/>
<g transform="matrix(3.2893 0 0 -3.2893 -757.57 2247.5)" clip-path="url(#p)">
<path d="M282.366 612.299c-.396 2.15-.684 4.618-.705 4.604-6.889-4.606-12.968-9.986-18.376-16.111-.179-.204-.756-.888-.756-.888l6.348-5.297s2.548 3.053 3.51 4.016c3.432 3.432 7.002 6.359 10.93 9.2.033.025-.514 2.104-.95 4.476" fill="#09a537" fill-rule="evenodd"/>
</g>
<path d="m317.36 211.14a272.27 272.27 0 0 0-22.048 3.243c-42.356 7.954-77.134 24.005-106.78 44.961-39.57 27.97-70.496 64.911-91.008 111.33 8.164 3.365 16.39 7.135 24.617 10.44 5.023-11.545 11.025-22.887 17.6-33.123 6.523-10.154 13.803-19.828 21.723-28.547 31.988-35.222 70.858-62.467 125.1-75.427 26.258-6.273 62.012-8.723 92.445-4.184 1.352-8.917 2.983-17.463 4.417-26.294-12.936-2.017-27.827-3.694-42.063-3.694-8.394 0-16.334 0.496-23.995 1.3" fill="url(#q)"/>
<path d="m91.64 373.02 5.884-2.345c20.512-46.415 51.438-83.357 91.008-111.33 29.65-20.956 64.427-37.007 106.78-44.96a272.26 272.26 0 0 1 22.048-3.244c7.66-0.803 15.6-1.3 23.995-1.3 14.236 0 29.127 1.678 42.063 3.695l5.174-4.017s-13.19-1.884-19.7-2.493a277.77 277.77 0 0 0-25.764-1.197c-111.45-6e-3 -209.81 67.555-251.49 167.19" fill="url(#r)"/>
<g transform="matrix(3.2893 0 0 -3.2893 -757.57 2247.5)" clip-path="url(#s)">
<path d="m259.96 570.6-1.789-0.713 10.007-4.239-0.734 1.778c-2.5 1.005-5.002 2.151-7.484 3.174" fill="#8a8000"/>
</g>
<path d="m286.56 244.02c-54.237 12.96-93.107 40.205-125.1 75.427-7.92 8.72-15.2 18.393-21.722 28.547-6.576 10.236-12.578 21.578-17.601 33.123l2.414 5.849c38.972-93.087 135.19-154.11 241.01-144.2a247.41 247.41 0 0 1 17.091 2.164l-3.651-5.092c-10.74-1.602-22.147-2.332-33.564-2.332-20.926 0-41.889 2.457-58.881 6.516" fill="url(#t)"/>
<g transform="matrix(3.2893 0 0 -3.2893 -757.57 2247.5)" clip-path="url(#u)">
<path d="M345.54 610.379l1.11-1.548 1.804 10.764-1.573-1.222c-.435-2.685-.93-5.283-1.342-7.994" fill="#c7b600"/>
<path d="M286.203 597.968c-.77 2-1.431 4.366-1.452 4.35-10.656-8.22-19.057-18.753-24.786-31.717 2.48-1.023 4.983-2.169 7.483-3.174 1.527 3.51 3.353 6.958 5.35 10.07 1.984 3.086 4.198 6.027 6.606 8.68 2.636 2.901 5.424 5.625 8.419 8.132.03.026-.85 1.66-1.62 3.66" fill="#ffed00" fill-rule="evenodd"/>
</g>
<path d="m154.46 359.76c6.223 3.727 23.067 14.177 23.067 14.177s14.157-20.446 21.443-27.732c8.121-8.121 15.884-15.62 25.183-22.739 16.943-12.966 35.185-23.163 58.062-31.166 0.635-0.224 7.151-2.18 7.151-2.18s-5.417-19.776-7.309-26.104c-57.983 17.522-98.82 50.414-127.6 95.744" fill="url(#v)"/>
<path d="m148.35 361.22 6.115-1.467c28.777-45.33 69.614-78.222 127.6-95.744l3.092-5.592c-57.227 15.41-106.49 52.457-136.8 102.8" fill="url(#w)"/>
<g transform="matrix(3.2893 0 0 -3.2893 -757.57 2247.5)" clip-path="url(#x)">
<path d="m277.27 573.92-1.859-0.447 9.295-5.634-0.422 1.771s-5.122 3.177-7.014 4.31" fill="#822000"/>
</g>
<path d="m282.22 292.3c-22.877 8.003-41.12 18.2-58.062 31.166-9.299 7.118-17.062 14.618-25.183 22.739-7.286 7.286-21.443 27.732-21.443 27.732l1.388 5.825c25.525-42.422 67.128-73.647 115.28-86.6l-4.829-3.043s-6.516 1.957-7.15 2.181" fill="url(#a)"/>
<g transform="matrix(3.2893 0 0 -3.2893 -757.57 2247.5)" clip-path="url(#b)">
<path d="M316.068 603.028c.575-1.924 2.22-7.936 2.22-7.936l1.469-.926-2.75 10.562-.94-1.7z" fill="#dc300d"/>
<path d="M292.663 585.782c-1.081 1.608-2.096 3.619-2.135 3.586-5.159-4.421-9.537-9.593-13.254-15.448 1.893-1.132 7.015-4.31 7.015-4.31s4.303 6.217 6.518 8.43c1.486 1.488 2.932 2.906 4.465 4.27.031.029-1.335 1.576-2.609 3.472" fill="#e5320e" fill-rule="evenodd"/>
</g>
</svg>
