<?xml version="1.0" encoding="UTF-8" standalone="no"?>
<!-- Created with Inkscape (http://www.inkscape.org/) -->

<svg
   xmlns:dc="http://purl.org/dc/elements/1.1/"
   xmlns:cc="http://creativecommons.org/ns#"
   xmlns:rdf="http://www.w3.org/1999/02/22-rdf-syntax-ns#"
   xmlns:svg="http://www.w3.org/2000/svg"
   xmlns="http://www.w3.org/2000/svg"
   xmlns:sodipodi="http://sodipodi.sourceforge.net/DTD/sodipodi-0.dtd"
   xmlns:inkscape="http://www.inkscape.org/namespaces/inkscape"
   width="20.41375"
   height="24.827499"
   id="svg6082"
   version="1.1"
   inkscape:version="0.47 r22583"
   sodipodi:docname="New document 3">
  <defs
     id="defs6084">
    <inkscape:perspective
       sodipodi:type="inkscape:persp3d"
       inkscape:vp_x="0 : 526.18109 : 1"
       inkscape:vp_y="0 : 1000 : 0"
       inkscape:vp_z="744.09448 : 526.18109 : 1"
       inkscape:persp3d-origin="372.04724 : 350.78739 : 1"
       id="perspective6090" />
    <inkscape:perspective
       id="perspective5954"
       inkscape:persp3d-origin="0.5 : 0.33333333 : 1"
       inkscape:vp_z="1 : 0.5 : 1"
       inkscape:vp_y="0 : 1000 : 0"
       inkscape:vp_x="0 : 0.5 : 1"
       sodipodi:type="inkscape:persp3d" />
  </defs>
  <sodipodi:namedview
     id="base"
     pagecolor="#ffffff"
     bordercolor="#666666"
     borderopacity="1.0"
     inkscape:pageopacity="0.0"
     inkscape:pageshadow="2"
     inkscape:zoom="9.5055886"
     inkscape:cx="10.206875"
     inkscape:cy="12.413749"
     inkscape:document-units="px"
     inkscape:current-layer="layer1"
     showgrid="false"
     inkscape:window-width="550"
     inkscape:window-height="481"
     inkscape:window-x="44"
     inkscape:window-y="58"
     inkscape:window-maximized="0" />
  <metadata
     id="metadata6087">
    <rdf:RDF>
      <cc:Work
         rdf:about="">
        <dc:format>image/svg+xml</dc:format>
        <dc:type
           rdf:resource="http://purl.org/dc/dcmitype/StillImage" />
        <dc:title></dc:title>
      </cc:Work>
    </rdf:RDF>
  </metadata>
  <g
     inkscape:label="Layer 1"
     inkscape:groupmode="layer"
     id="layer1"
     transform="translate(-406.93598,-539.94843)">
    <g
       id="g320"
       transform="matrix(1.25,0,0,-1.25,412.61473,553.44093)">
      <path
         d="m 0,0 0.246,0 0,-0.133 0.005,0 c 0.042,0.1 0.133,0.166 0.238,0.166 0.058,0 0.108,-0.015 0.143,-0.038 L 0.539,-0.263 c -0.025,0.02 -0.073,0.035 -0.098,0.035 -0.095,0 -0.18,-0.073 -0.18,-0.183 l 0,-0.803 L 0,-1.214 0,0"
         style="fill:#3155ad;fill-opacity:1;fill-rule:nonzero;stroke:none"
         id="path322" />
    </g>
    <g
       id="g324"
       transform="matrix(1.25,0,0,-1.25,412.61473,553.44093)">
      <path
         d="m 0,0 0.246,0 0,-0.133 0.005,0 c 0.042,0.1 0.133,0.166 0.238,0.166 0.058,0 0.108,-0.015 0.143,-0.038 L 0.539,-0.263 c -0.025,0.02 -0.073,0.035 -0.098,0.035 -0.095,0 -0.18,-0.073 -0.18,-0.183 l 0,-0.803 L 0,-1.214 0,0 z"
         style="fill:none;stroke:#3155ad;stroke-width:0.003;stroke-linecap:butt;stroke-linejoin:miter;stroke-miterlimit:4;stroke-opacity:1;stroke-dasharray:none"
         id="path326" />
    </g>
    <g
       id="g328"
       transform="matrix(1.25,0,0,-1.25,414.31598,554.69218)">
      <path
         d="M 0,0 C 0.206,0 0.381,0.176 0.381,0.394 0.381,0.612 0.206,0.787 0,0.787 -0.211,0.787 -0.386,0.612 -0.386,0.394 -0.386,0.176 -0.211,0 0,0 z m 0.371,-0.065 -0.005,0 c -0.083,-0.111 -0.233,-0.181 -0.399,-0.181 -0.398,0 -0.629,0.326 -0.629,0.64 0,0.298 0.248,0.639 0.642,0.639 0.181,0 0.318,-0.078 0.386,-0.18 l 0.005,0 0,0.148 0.261,0 0,-1.214 -0.261,0 0,0.148"
         style="fill:#3155ad;fill-opacity:1;fill-rule:nonzero;stroke:none"
         id="path330" />
    </g>
    <g
       id="g332"
       transform="matrix(1.25,0,0,-1.25,414.31598,554.69218)">
      <path
         d="M 0,0 C 0.206,0 0.381,0.176 0.381,0.394 0.381,0.612 0.206,0.787 0,0.787 -0.211,0.787 -0.386,0.612 -0.386,0.394 -0.386,0.176 -0.211,0 0,0 z"
         style="fill:none;stroke:#3155ad;stroke-width:0.003;stroke-linecap:butt;stroke-linejoin:miter;stroke-miterlimit:4;stroke-opacity:1;stroke-dasharray:none"
         id="path334" />
      <g
         id="g336"
         transform="translate(0.371,-0.065)">
        <path
           d="m 0,0 -0.005,0 c -0.083,-0.11 -0.233,-0.181 -0.399,-0.181 -0.399,0 -0.629,0.327 -0.629,0.64 0,0.298 0.248,0.639 0.642,0.639 0.18,0 0.318,-0.077 0.386,-0.18 l 0.005,0 0,0.148 0.261,0 0,-1.214 L 0,-0.148 0,0 z"
           style="fill:none;stroke:#3155ad;stroke-width:0.003;stroke-linecap:butt;stroke-linejoin:miter;stroke-miterlimit:4;stroke-opacity:1;stroke-dasharray:none"
           id="path338" />
      </g>
    </g>
    <g
       id="g340"
       transform="matrix(1.25,0,0,-1.25,416.23473,554.69218)">
      <path
         d="M 0,0 C 0.206,0 0.381,0.176 0.381,0.394 0.381,0.612 0.206,0.787 0,0.787 -0.211,0.787 -0.386,0.612 -0.386,0.394 -0.386,0.176 -0.211,0 0,0 z m 0.371,-0.065 -0.005,0 c -0.083,-0.111 -0.233,-0.181 -0.399,-0.181 -0.398,0 -0.629,0.326 -0.629,0.64 0,0.298 0.248,0.639 0.642,0.639 0.181,0 0.318,-0.078 0.386,-0.18 l 0.005,0 0,0.509 0.261,0 0,-1.575 -0.261,0 0,0.148"
         style="fill:#3155ad;fill-opacity:1;fill-rule:nonzero;stroke:none"
         id="path342" />
    </g>
    <g
       id="g344"
       transform="matrix(1.25,0,0,-1.25,416.23473,554.69218)">
      <path
         d="M 0,0 C 0.206,0 0.381,0.176 0.381,0.394 0.381,0.612 0.206,0.787 0,0.787 -0.211,0.787 -0.386,0.612 -0.386,0.394 -0.386,0.176 -0.211,0 0,0 z"
         style="fill:none;stroke:#3155ad;stroke-width:0.003;stroke-linecap:butt;stroke-linejoin:miter;stroke-miterlimit:4;stroke-opacity:1;stroke-dasharray:none"
         id="path346" />
      <g
         id="g348"
         transform="translate(0.371,-0.065)">
        <path
           d="m 0,0 -0.005,0 c -0.083,-0.11 -0.233,-0.181 -0.399,-0.181 -0.399,0 -0.629,0.327 -0.629,0.64 0,0.298 0.248,0.639 0.642,0.639 0.18,0 0.318,-0.077 0.386,-0.18 l 0.005,0 0,0.509 0.261,0 0,-1.575 L 0,-0.148 0,0 z"
           style="fill:none;stroke:#3155ad;stroke-width:0.003;stroke-linecap:butt;stroke-linejoin:miter;stroke-miterlimit:4;stroke-opacity:1;stroke-dasharray:none"
           id="path350" />
      </g>
    </g>
    <g
       id="g352"
       transform="matrix(1.25,0,0,-1.25,417.44473,553.44093)">
      <path
         d="m 0,0 0.26083,0 0,-1.2139 L 0,-1.2139 0,0 z m 0.13,0.394 c 0.081,0 0.146,-0.065 0.146,-0.146 0,-0.08 -0.065,-0.145 -0.146,-0.145 -0.08,0 -0.145,0.065 -0.145,0.145 0,0.081 0.065,0.146 0.145,0.146"
         style="fill:#3155ad;fill-opacity:1;fill-rule:nonzero;stroke:none"
         id="path354" />
    </g>
    <g
       id="g356"
       transform="matrix(1.25,0,0,-1.25,417.44473,553.44093)">
      <path
         d="m 0,0 0.26083,0 0,-1.2139 L 0,-1.2139 0,0 z"
         style="fill:none;stroke:#3155ad;stroke-width:0.003;stroke-linecap:butt;stroke-linejoin:miter;stroke-miterlimit:4;stroke-opacity:1;stroke-dasharray:none"
         id="path358" />
      <g
         id="g360"
         transform="translate(0.13,0.394)">
        <path
           d="M 0,0 C 0.08,0 0.145,-0.065 0.145,-0.145 0.145,-0.226 0.08,-0.291 0,-0.291 c -0.08,0 -0.146,0.065 -0.146,0.146 C -0.146,-0.065 -0.08,0 0,0 z"
           style="fill:none;stroke:#3155ad;stroke-width:0.003;stroke-linecap:butt;stroke-linejoin:miter;stroke-miterlimit:4;stroke-opacity:1;stroke-dasharray:none"
           id="path362" />
      </g>
    </g>
    <g
       id="g364"
       transform="matrix(1.25,0,0,-1.25,418.91598,554.69218)">
      <path
         d="M 0,0 C 0.228,0 0.394,0.176 0.394,0.394 0.394,0.612 0.228,0.787 0,0.787 -0.228,0.787 -0.394,0.612 -0.394,0.394 -0.394,0.176 -0.228,0 0,0 z m 0,1.033 c 0.424,0 0.67,-0.318 0.67,-0.639 0,-0.321 -0.246,-0.64 -0.67,-0.64 -0.424,0 -0.67,0.319 -0.67,0.64 0,0.321 0.246,0.639 0.67,0.639"
         style="fill:#3155ad;fill-opacity:1;fill-rule:nonzero;stroke:none"
         id="path366" />
    </g>
    <g
       id="g368"
       transform="matrix(1.25,0,0,-1.25,418.91598,554.69218)">
      <path
         d="M 0,0 C 0.228,0 0.394,0.176 0.394,0.394 0.394,0.612 0.228,0.787 0,0.787 -0.228,0.787 -0.394,0.612 -0.394,0.394 -0.394,0.176 -0.228,0 0,0 z"
         style="fill:none;stroke:#3155ad;stroke-width:0.003;stroke-linecap:butt;stroke-linejoin:miter;stroke-miterlimit:4;stroke-opacity:1;stroke-dasharray:none"
         id="path370" />
      <g
         id="g372"
         transform="translate(0,1.033)">
        <path
           d="m 0,0 c 0.424,0 0.67,-0.318 0.67,-0.64 0,-0.321 -0.246,-0.639 -0.67,-0.639 -0.424,0 -0.67,0.318 -0.67,0.639 C -0.67,-0.318 -0.424,0 0,0 z"
           style="fill:none;stroke:#3155ad;stroke-width:0.003;stroke-linecap:butt;stroke-linejoin:miter;stroke-miterlimit:4;stroke-opacity:1;stroke-dasharray:none"
           id="path374" />
      </g>
    </g>
    <g
       id="g376"
       transform="matrix(1.25,0,0,-1.25,412.59848,555.41968)">
      <path
         d="m 0,0 0.311,0 0,-0.613 0.006,0 c 0.087,0.134 0.246,0.221 0.443,0.221 0.305,0 0.563,-0.254 0.563,-0.613 l 0,-0.874 -0.312,0 0,0.805 c 0,0.263 -0.137,0.371 -0.344,0.371 -0.2,0 -0.356,-0.129 -0.356,-0.365 l 0,-0.811 L 0,-1.879 0,0"
         style="fill:#3155ad;fill-opacity:1;fill-rule:nonzero;stroke:none"
         id="path378" />
    </g>
    <g
       id="g380"
       transform="matrix(1.25,0,0,-1.25,412.59848,555.41968)">
      <path
         d="m 0,0 0.311,0 0,-0.613 0.006,0 c 0.087,0.134 0.246,0.221 0.443,0.221 0.305,0 0.563,-0.254 0.563,-0.613 l 0,-0.874 -0.312,0 0,0.805 c 0,0.263 -0.137,0.371 -0.344,0.371 -0.2,0 -0.356,-0.129 -0.356,-0.365 l 0,-0.811 L 0,-1.879 0,0 z"
         style="fill:none;stroke:#3155ad;stroke-width:0.003;stroke-linecap:butt;stroke-linejoin:miter;stroke-miterlimit:4;stroke-opacity:1;stroke-dasharray:none"
         id="path382" />
    </g>
    <g
       id="g384"
       transform="matrix(1.25,0,0,-1.25,415.60973,557.45093)">
      <path
         d="M 0,0 C 0.272,0 0.47,0.209 0.47,0.47 0.47,0.73 0.272,0.94 0,0.94 -0.272,0.94 -0.47,0.73 -0.47,0.47 -0.47,0.209 -0.272,0 0,0 z m 0,1.233 c 0.506,0 0.799,-0.38 0.799,-0.763 0,-0.383 -0.293,-0.763 -0.799,-0.763 -0.506,0 -0.799,0.38 -0.799,0.763 0,0.383 0.293,0.763 0.799,0.763"
         style="fill:#3155ad;fill-opacity:1;fill-rule:nonzero;stroke:none"
         id="path386" />
    </g>
    <g
       id="g388"
       transform="matrix(1.25,0,0,-1.25,415.60973,557.45093)">
      <path
         d="M 0,0 C 0.272,0 0.47,0.209 0.47,0.47 0.47,0.73 0.272,0.94 0,0.94 -0.272,0.94 -0.47,0.73 -0.47,0.47 -0.47,0.209 -0.272,0 0,0 z"
         style="fill:none;stroke:#3155ad;stroke-width:0.003;stroke-linecap:butt;stroke-linejoin:miter;stroke-miterlimit:4;stroke-opacity:1;stroke-dasharray:none"
         id="path390" />
      <g
         id="g392"
         transform="translate(0,1.233)">
        <path
           d="m 0,0 c 0.506,0 0.799,-0.38 0.799,-0.763 0,-0.383 -0.293,-0.763 -0.799,-0.763 -0.506,0 -0.799,0.38 -0.799,0.763 C -0.799,-0.38 -0.506,0 0,0 z"
           style="fill:none;stroke:#3155ad;stroke-width:0.003;stroke-linecap:butt;stroke-linejoin:miter;stroke-miterlimit:4;stroke-opacity:1;stroke-dasharray:none"
           id="path394" />
      </g>
    </g>
    <g
       id="g396"
       transform="matrix(1.25,0,0,-1.25,416.96723,555.95843)">
      <path
         d="m 0,0 0.293,0 0,-0.159 0.006,0 c 0.051,0.12 0.159,0.198 0.285,0.198 0.068,0 0.128,-0.018 0.17,-0.045 L 0.643,-0.314 c -0.03,0.024 -0.086,0.042 -0.116,0.042 -0.114,0 -0.216,-0.087 -0.216,-0.219 l 0,-0.957 L 0,-1.448 0,0"
         style="fill:#3155ad;fill-opacity:1;fill-rule:nonzero;stroke:none"
         id="path398" />
    </g>
    <g
       id="g400"
       transform="matrix(1.25,0,0,-1.25,416.96723,555.95843)">
      <path
         d="m 0,0 0.293,0 0,-0.159 0.006,0 c 0.051,0.12 0.159,0.198 0.285,0.198 0.068,0 0.128,-0.018 0.17,-0.045 L 0.643,-0.314 c -0.03,0.024 -0.086,0.042 -0.116,0.042 -0.114,0 -0.216,-0.087 -0.216,-0.219 l 0,-0.957 L 0,-1.448 0,0 z"
         style="fill:none;stroke:#3155ad;stroke-width:0.003;stroke-linecap:butt;stroke-linejoin:miter;stroke-miterlimit:4;stroke-opacity:1;stroke-dasharray:none"
         id="path402" />
    </g>
    <g
       id="g404"
       transform="matrix(1.25,0,0,-1.25,419.45473,556.67718)">
      <path
         d="M 0,0 C -0.066,0.221 -0.23,0.338 -0.428,0.338 -0.625,0.338 -0.787,0.215 -0.838,0 L 0,0 z m 0.287,-0.56 c -0.173,-0.218 -0.413,-0.35 -0.673,-0.353 -0.506,0 -0.799,0.38 -0.799,0.763 0,0.383 0.293,0.763 0.799,0.763 0.302,0 0.751,-0.248 0.751,-0.814 l 0,-0.056 -1.203,0 c 0.018,-0.222 0.225,-0.38 0.443,-0.38 0.168,0 0.311,0.08 0.419,0.224 L 0.287,-0.56"
         style="fill:#3155ad;fill-opacity:1;fill-rule:nonzero;stroke:none"
         id="path406" />
    </g>
    <g
       id="g408"
       transform="matrix(1.25,0,0,-1.25,419.45473,556.67718)">
      <path
         d="M 0,0 C -0.066,0.221 -0.23,0.338 -0.428,0.338 -0.625,0.338 -0.787,0.215 -0.838,0 L 0,0 z"
         style="fill:none;stroke:#3155ad;stroke-width:0.003;stroke-linecap:butt;stroke-linejoin:miter;stroke-miterlimit:4;stroke-opacity:1;stroke-dasharray:none"
         id="path410" />
      <g
         id="g412"
         transform="translate(0.287,-0.56)">
        <path
           d="m 0,0 c -0.174,-0.218 -0.413,-0.35 -0.673,-0.353 -0.506,0 -0.799,0.38 -0.799,0.763 0,0.383 0.293,0.763 0.799,0.763 0.302,0 0.751,-0.248 0.751,-0.814 l 0,-0.057 -1.203,0 c 0.018,-0.221 0.224,-0.38 0.443,-0.38 0.167,0 0.311,0.081 0.419,0.225 L 0,0 z"
           style="fill:none;stroke:#3155ad;stroke-width:0.003;stroke-linecap:butt;stroke-linejoin:miter;stroke-miterlimit:4;stroke-opacity:1;stroke-dasharray:none"
           id="path414" />
      </g>
    </g>
    <g
       id="g416"
       transform="matrix(1.25,0,0,-1.25,421.25473,556.27718)">
      <path
         d="m 0,0 c -0.26,0 -0.452,-0.2 -0.452,-0.47 0,-0.269 0.192,-0.47 0.452,-0.47 0.26,0 0.452,0.201 0.452,0.47 C 0.452,-0.2 0.26,0 0,0 z m -0.763,0.685 0.311,0 0,-0.607 0.006,0 c 0.075,0.12 0.269,0.215 0.473,0.215 0.377,0 0.754,-0.278 0.754,-0.763 0,-0.485 -0.377,-0.763 -0.754,-0.763 -0.204,0 -0.398,0.096 -0.473,0.216 l -0.006,0 0,-0.177 -0.311,0 0,1.879"
         style="fill:#3155ad;fill-opacity:1;fill-rule:nonzero;stroke:none"
         id="path418" />
    </g>
    <g
       id="g420"
       transform="matrix(1.25,0,0,-1.25,421.25473,556.27718)">
      <path
         d="m 0,0 c -0.26,0 -0.452,-0.2 -0.452,-0.47 0,-0.269 0.192,-0.47 0.452,-0.47 0.26,0 0.452,0.201 0.452,0.47 C 0.452,-0.2 0.26,0 0,0 z"
         style="fill:none;stroke:#3155ad;stroke-width:0.003;stroke-linecap:butt;stroke-linejoin:miter;stroke-miterlimit:4;stroke-opacity:1;stroke-dasharray:none"
         id="path422" />
      <g
         id="g424"
         transform="translate(-0.763,0.685)">
        <path
           d="m 0,0 0.311,0 0,-0.607 0.006,0 c 0.075,0.119 0.27,0.215 0.473,0.215 0.377,0 0.754,-0.278 0.754,-0.763 0,-0.485 -0.377,-0.763 -0.754,-0.763 -0.203,0 -0.398,0.096 -0.473,0.215 l -0.006,0 0,-0.176 L 0,-1.879 0,0 z"
           style="fill:none;stroke:#3155ad;stroke-width:0.003;stroke-linecap:butt;stroke-linejoin:miter;stroke-miterlimit:4;stroke-opacity:1;stroke-dasharray:none"
           id="path426" />
      </g>
    </g>
    <g
       id="g428"
       transform="matrix(1.25,0,0,-1.25,408.94598,564.57218)">
      <path
         d="m 0,0 c 0.042,-0.009 0.082,-0.013 0.122,-0.013 0.127,0 0.254,0.004 0.403,0.013 0.073,0.004 0.109,0.031 0.126,0.093 l 0.051,0.169 0.08,0 C 0.749,0.125 0.729,0 0.707,-0.124 0.589,-0.127 0.469,-0.131 0.347,-0.131 l -0.06,0 C 0.142,-0.129 0,-0.124 -0.145,-0.124 c -0.115,0 -0.208,-0.005 -0.3,-0.007 l 0.009,0.071 0.063,0.007 c 0.051,0.004 0.082,0.017 0.102,0.133 l 0.182,0.998 c 0.016,0.087 0.02,0.131 0.02,0.165 -0.002,0.04 -0.024,0.057 -0.084,0.062 l -0.116,0.007 0.009,0.077 c 0.115,-0.002 0.224,-0.006 0.331,-0.006 0.12,0 0.242,0.004 0.36,0.006 L 0.422,1.312 0.322,1.305 C 0.256,1.3 0.236,1.294 0.22,1.207 L 0,0"
         style="fill:#3155ad;fill-opacity:1;fill-rule:nonzero;stroke:none"
         id="path430" />
    </g>
    <g
       id="g432"
       transform="matrix(1.25,0,0,-1.25,408.94598,564.57218)">
      <path
         d="m 0,0 c 0.042,-0.009 0.082,-0.013 0.122,-0.013 0.127,0 0.254,0.004 0.403,0.013 0.073,0.004 0.109,0.031 0.126,0.093 l 0.051,0.169 0.08,0 C 0.749,0.125 0.729,0 0.707,-0.124 0.589,-0.127 0.469,-0.131 0.347,-0.131 l -0.06,0 C 0.142,-0.129 0,-0.124 -0.145,-0.124 c -0.115,0 -0.208,-0.005 -0.3,-0.007 l 0.009,0.071 0.063,0.007 c 0.051,0.004 0.082,0.017 0.102,0.133 l 0.182,0.998 c 0.016,0.087 0.02,0.131 0.02,0.165 -0.002,0.04 -0.024,0.057 -0.084,0.062 l -0.116,0.007 0.009,0.077 c 0.115,-0.002 0.224,-0.006 0.331,-0.006 0.12,0 0.242,0.004 0.36,0.006 L 0.422,1.312 0.322,1.305 C 0.256,1.3 0.236,1.294 0.22,1.207 L 0,0 z"
         style="fill:none;stroke:#3155ad;stroke-width:0.003;stroke-linecap:butt;stroke-linejoin:miter;stroke-miterlimit:4;stroke-opacity:1;stroke-dasharray:none"
         id="path434" />
    </g>
    <g
       id="g436"
       transform="matrix(1.25,0,0,-1.25,410.54973,564.08593)">
      <path
         d="m 0,0 c 0.142,0.04 0.293,0.142 0.293,0.309 0,0.062 -0.035,0.113 -0.102,0.113 -0.155,0 -0.22,-0.197 -0.251,-0.32 L -0.091,-0.027 0,0 z m -0.309,0.033 c 0.049,0.158 0.091,0.254 0.233,0.352 0.056,0.037 0.138,0.084 0.205,0.111 0.047,0.017 0.111,0.033 0.162,0.033 0.118,0 0.211,-0.064 0.211,-0.187 C 0.502,0.178 0.398,0.091 0.265,0.027 0.169,-0.02 0.042,-0.053 -0.1,-0.084 c -0.007,-0.049 -0.011,-0.101 -0.011,-0.147 0,-0.111 0.055,-0.178 0.171,-0.178 0.105,0 0.265,0.091 0.351,0.149 l 0.023,-0.062 c -0.163,-0.103 -0.33,-0.229 -0.523,-0.229 -0.184,0 -0.276,0.098 -0.276,0.278 0,0.082 0.032,0.226 0.056,0.306"
         style="fill:#3155ad;fill-opacity:1;fill-rule:nonzero;stroke:none"
         id="path438" />
    </g>
    <g
       id="g440"
       transform="matrix(1.25,0,0,-1.25,410.54973,564.08593)">
      <path
         d="m 0,0 c 0.142,0.04 0.293,0.142 0.293,0.309 0,0.062 -0.035,0.113 -0.102,0.113 -0.155,0 -0.22,-0.197 -0.251,-0.32 L -0.091,-0.027 0,0 z"
         style="fill:none;stroke:#3155ad;stroke-width:0.003;stroke-linecap:butt;stroke-linejoin:miter;stroke-miterlimit:4;stroke-opacity:1;stroke-dasharray:none"
         id="path442" />
      <g
         id="g444"
         transform="translate(-0.309,0.033)">
        <path
           d="M 0,0 C 0.049,0.158 0.091,0.253 0.233,0.351 0.289,0.389 0.371,0.436 0.438,0.462 0.485,0.48 0.549,0.496 0.6,0.496 0.718,0.496 0.811,0.431 0.811,0.309 0.811,0.145 0.707,0.058 0.574,-0.007 0.478,-0.053 0.351,-0.087 0.209,-0.118 0.202,-0.167 0.198,-0.218 0.198,-0.265 c 0,-0.111 0.055,-0.177 0.171,-0.177 0.105,0 0.265,0.091 0.351,0.149 L 0.742,-0.356 C 0.58,-0.458 0.413,-0.585 0.22,-0.585 c -0.184,0 -0.276,0.098 -0.276,0.278 0,0.082 0.032,0.227 0.056,0.307 z"
           style="fill:none;stroke:#3155ad;stroke-width:0.003;stroke-linecap:butt;stroke-linejoin:miter;stroke-miterlimit:4;stroke-opacity:1;stroke-dasharray:none"
           id="path446" />
      </g>
    </g>
    <g
       id="g448"
       transform="matrix(1.25,0,0,-1.25,411.80223,563.76093)">
      <path
         d="m 0,0 c -0.091,-0.096 -0.113,-0.14 -0.156,-0.262 -0.029,-0.083 -0.046,-0.165 -0.046,-0.252 0,-0.102 0.04,-0.195 0.16,-0.195 0.113,0 0.204,0.138 0.244,0.229 0.056,0.129 0.098,0.298 0.098,0.438 0,0.04 -0.018,0.164 -0.084,0.164 C 0.14,0.122 0.051,0.053 0,0 z m -0.142,-0.082 0.004,-0.005 c 0.102,0.165 0.296,0.356 0.531,0.356 0.123,0 0.16,-0.133 0.16,-0.236 0,-0.289 -0.079,-0.531 -0.317,-0.7 -0.107,-0.075 -0.274,-0.144 -0.407,-0.144 -0.142,0 -0.276,0.064 -0.276,0.242 0,0.058 0.011,0.104 0.02,0.162 l 0.162,0.958 c 0.005,0.025 0.007,0.045 0.007,0.063 0,0.04 -0.015,0.062 -0.075,0.062 l -0.1,0 0.015,0.062 c 0.149,0.022 0.307,0.047 0.44,0.102 L 0.044,0.82 C 0.033,0.774 0.024,0.725 0.013,0.676 l -0.155,-0.758"
         style="fill:#3155ad;fill-opacity:1;fill-rule:nonzero;stroke:none"
         id="path450" />
    </g>
    <g
       id="g452"
       transform="matrix(1.25,0,0,-1.25,411.80223,563.76093)">
      <path
         d="m 0,0 c -0.091,-0.096 -0.113,-0.14 -0.156,-0.262 -0.029,-0.083 -0.046,-0.165 -0.046,-0.252 0,-0.102 0.04,-0.195 0.16,-0.195 0.113,0 0.204,0.138 0.244,0.229 0.056,0.129 0.098,0.298 0.098,0.438 0,0.04 -0.018,0.164 -0.084,0.164 C 0.14,0.122 0.051,0.053 0,0 z"
         style="fill:none;stroke:#3155ad;stroke-width:0.003;stroke-linecap:butt;stroke-linejoin:miter;stroke-miterlimit:4;stroke-opacity:1;stroke-dasharray:none"
         id="path454" />
      <g
         id="g456"
         transform="translate(-0.142,-0.082)">
        <path
           d="M 0,0 0.004,-0.004 C 0.107,0.16 0.3,0.351 0.536,0.351 c 0.122,0 0.16,-0.133 0.16,-0.235 0,-0.289 -0.08,-0.532 -0.318,-0.701 -0.107,-0.075 -0.274,-0.144 -0.407,-0.144 -0.142,0 -0.276,0.064 -0.276,0.242 0,0.058 0.012,0.105 0.02,0.162 l 0.163,0.959 c 0.004,0.024 0.006,0.044 0.006,0.062 0,0.04 -0.015,0.062 -0.075,0.062 l -0.1,0 0.015,0.062 c 0.149,0.022 0.307,0.047 0.44,0.102 L 0.187,0.903 C 0.176,0.856 0.167,0.807 0.156,0.758 L 0,0 z"
           style="fill:none;stroke:#3155ad;stroke-width:0.003;stroke-linecap:butt;stroke-linejoin:miter;stroke-miterlimit:4;stroke-opacity:1;stroke-dasharray:none"
           id="path458" />
      </g>
    </g>
    <g
       id="g460"
       transform="matrix(1.25,0,0,-1.25,413.00848,564.08593)">
      <path
         d="m 0,0 c 0.142,0.04 0.293,0.142 0.293,0.309 0,0.062 -0.035,0.113 -0.102,0.113 -0.155,0 -0.22,-0.197 -0.251,-0.32 L -0.091,-0.027 0,0 z m -0.309,0.033 c 0.049,0.158 0.091,0.254 0.233,0.352 0.056,0.037 0.138,0.084 0.205,0.111 0.047,0.017 0.111,0.033 0.162,0.033 0.118,0 0.211,-0.064 0.211,-0.187 C 0.502,0.178 0.398,0.091 0.265,0.027 0.169,-0.02 0.042,-0.053 -0.1,-0.084 c -0.007,-0.049 -0.011,-0.101 -0.011,-0.147 0,-0.111 0.055,-0.178 0.171,-0.178 0.105,0 0.265,0.091 0.351,0.149 l 0.023,-0.062 c -0.163,-0.103 -0.33,-0.229 -0.523,-0.229 -0.184,0 -0.276,0.098 -0.276,0.278 0,0.082 0.032,0.226 0.056,0.306"
         style="fill:#3155ad;fill-opacity:1;fill-rule:nonzero;stroke:none"
         id="path462" />
    </g>
    <g
       id="g464"
       transform="matrix(1.25,0,0,-1.25,413.00848,564.08593)">
      <path
         d="m 0,0 c 0.142,0.04 0.293,0.142 0.293,0.309 0,0.062 -0.035,0.113 -0.102,0.113 -0.155,0 -0.22,-0.197 -0.251,-0.32 L -0.091,-0.027 0,0 z"
         style="fill:none;stroke:#3155ad;stroke-width:0.003;stroke-linecap:butt;stroke-linejoin:miter;stroke-miterlimit:4;stroke-opacity:1;stroke-dasharray:none"
         id="path466" />
      <g
         id="g468"
         transform="translate(-0.309,0.033)">
        <path
           d="M 0,0 C 0.049,0.158 0.091,0.253 0.233,0.351 0.289,0.389 0.371,0.436 0.438,0.462 0.485,0.48 0.549,0.496 0.6,0.496 0.718,0.496 0.811,0.431 0.811,0.309 0.811,0.145 0.707,0.058 0.574,-0.007 0.478,-0.053 0.351,-0.087 0.209,-0.118 0.202,-0.167 0.198,-0.218 0.198,-0.265 c 0,-0.111 0.055,-0.177 0.171,-0.177 0.105,0 0.265,0.091 0.351,0.149 L 0.742,-0.356 C 0.58,-0.458 0.413,-0.585 0.22,-0.585 c -0.184,0 -0.276,0.098 -0.276,0.278 0,0.082 0.032,0.227 0.056,0.307 z"
           style="fill:none;stroke:#3155ad;stroke-width:0.003;stroke-linecap:butt;stroke-linejoin:miter;stroke-miterlimit:4;stroke-opacity:1;stroke-dasharray:none"
           id="path470" />
      </g>
    </g>
    <g
       id="g472"
       transform="matrix(1.25,0,0,-1.25,413.67223,563.73218)">
      <path
         d="m 0,0 0.187,0.138 c 0.129,0.095 0.191,0.109 0.222,0.109 0.053,0 0.064,-0.034 0.064,-0.067 0,-0.069 -0.015,-0.136 -0.075,-0.349 l -0.033,-0.12 0.004,0 c 0.12,0.236 0.327,0.402 0.425,0.462 0.095,0.058 0.153,0.074 0.191,0.074 0.042,0 0.089,-0.025 0.089,-0.098 0,-0.036 -0.023,-0.129 -0.036,-0.18 L 0.931,-0.44 C 0.914,-0.509 0.903,-0.567 0.903,-0.618 c 0,-0.018 0.006,-0.033 0.022,-0.033 0.018,0 0.04,0.004 0.102,0.049 l 0.064,0.044 0.029,-0.06 C 1,-0.703 0.849,-0.834 0.72,-0.834 c -0.046,0 -0.08,0.038 -0.08,0.096 0,0.082 0.058,0.289 0.096,0.427 0.013,0.046 0.066,0.229 0.066,0.289 0,0.033 -0.013,0.049 -0.046,0.049 -0.038,0 -0.085,-0.018 -0.2,-0.149 C 0.451,-0.242 0.365,-0.425 0.338,-0.534 0.311,-0.642 0.291,-0.734 0.285,-0.787 0.227,-0.789 0.093,-0.809 0.049,-0.825 L 0.027,-0.8 c 0.046,0.135 0.102,0.331 0.129,0.449 0.022,0.095 0.06,0.271 0.06,0.335 0,0.029 -0.007,0.043 -0.023,0.043 -0.02,0 -0.044,-0.005 -0.093,-0.038 L 0.029,-0.06 0,0"
         style="fill:#3155ad;fill-opacity:1;fill-rule:nonzero;stroke:none"
         id="path474" />
    </g>
    <g
       id="g476"
       transform="matrix(1.25,0,0,-1.25,413.67223,563.73218)">
      <path
         d="m 0,0 0.187,0.138 c 0.129,0.095 0.191,0.109 0.222,0.109 0.053,0 0.064,-0.034 0.064,-0.067 0,-0.069 -0.015,-0.136 -0.075,-0.349 l -0.033,-0.12 0.004,0 c 0.12,0.236 0.327,0.402 0.425,0.462 0.095,0.058 0.153,0.074 0.191,0.074 0.042,0 0.089,-0.025 0.089,-0.098 0,-0.036 -0.023,-0.129 -0.036,-0.18 L 0.931,-0.44 C 0.914,-0.509 0.903,-0.567 0.903,-0.618 c 0,-0.018 0.006,-0.033 0.022,-0.033 0.018,0 0.04,0.004 0.102,0.049 l 0.064,0.044 0.029,-0.06 C 1,-0.703 0.849,-0.834 0.72,-0.834 c -0.046,0 -0.08,0.038 -0.08,0.096 0,0.082 0.058,0.289 0.096,0.427 0.013,0.046 0.066,0.229 0.066,0.289 0,0.033 -0.013,0.049 -0.046,0.049 -0.038,0 -0.085,-0.018 -0.2,-0.149 C 0.451,-0.242 0.365,-0.425 0.338,-0.534 0.311,-0.642 0.291,-0.734 0.285,-0.787 0.227,-0.789 0.093,-0.809 0.049,-0.825 L 0.027,-0.8 c 0.046,0.135 0.102,0.331 0.129,0.449 0.022,0.095 0.06,0.271 0.06,0.335 0,0.029 -0.007,0.043 -0.023,0.043 -0.02,0 -0.044,-0.005 -0.093,-0.038 L 0.029,-0.06 0,0 z"
         style="fill:none;stroke:#3155ad;stroke-width:0.003;stroke-linecap:butt;stroke-linejoin:miter;stroke-miterlimit:4;stroke-opacity:1;stroke-dasharray:none"
         id="path478" />
    </g>
    <g
       id="g480"
       transform="matrix(1.25,0,0,-1.25,416.14598,564.11343)">
      <path
         d="M 0,0 0.004,-0.004 C 0.08,0.173 0.4,0.551 0.605,0.551 0.671,0.551 0.691,0.5 0.691,0.44 0.691,0.396 0.674,0.32 0.649,0.236 L 0.582,0 0.587,-0.004 C 0.64,0.118 0.72,0.222 0.814,0.32 0.898,0.409 1.089,0.551 1.216,0.551 1.271,0.551 1.298,0.502 1.298,0.451 1.298,0.4 1.289,0.345 1.276,0.293 L 1.165,-0.116 C 1.143,-0.198 1.12,-0.289 1.12,-0.318 c 0,-0.018 0.011,-0.029 0.027,-0.029 0.027,0 0.082,0.036 0.133,0.071 L 1.334,-0.238 1.36,-0.293 C 1.218,-0.418 1.036,-0.529 0.947,-0.529 c -0.049,0 -0.089,0.024 -0.089,0.095 0,0.083 0.076,0.378 0.091,0.427 0.016,0.047 0.076,0.254 0.076,0.3 0,0.023 -0.014,0.038 -0.04,0.038 C 0.918,0.331 0.816,0.224 0.776,0.18 0.687,0.08 0.625,-0.027 0.582,-0.14 0.542,-0.247 0.514,-0.362 0.507,-0.482 0.453,-0.485 0.32,-0.505 0.276,-0.52 L 0.253,-0.496 C 0.3,-0.36 0.349,-0.176 0.38,-0.047 0.402,0.047 0.44,0.184 0.44,0.273 0.44,0.305 0.427,0.331 0.402,0.331 0.367,0.331 0.322,0.322 0.273,0.273 0.176,0.176 0.044,0.011 -0.024,-0.225 -0.056,-0.331 -0.073,-0.434 -0.08,-0.482 -0.133,-0.485 -0.267,-0.505 -0.311,-0.52 l -0.022,0.024 c 0.046,0.136 0.095,0.32 0.126,0.449 0.027,0.111 0.058,0.292 0.058,0.336 0,0.036 -0.013,0.042 -0.027,0.042 -0.017,0 -0.042,-0.006 -0.093,-0.044 l -0.082,-0.063 -0.031,0.058 0.186,0.151 c 0.094,0.076 0.192,0.118 0.243,0.118 0.042,0 0.055,-0.033 0.055,-0.066 C 0.102,0.442 0.093,0.4 0.06,0.256 L 0,0"
         style="fill:#3155ad;fill-opacity:1;fill-rule:nonzero;stroke:none"
         id="path482" />
    </g>
    <g
       id="g484"
       transform="matrix(1.25,0,0,-1.25,416.14598,564.11343)">
      <path
         d="M 0,0 0.004,-0.004 C 0.08,0.173 0.4,0.551 0.605,0.551 0.671,0.551 0.691,0.5 0.691,0.44 0.691,0.396 0.674,0.32 0.649,0.236 L 0.582,0 0.587,-0.004 C 0.64,0.118 0.72,0.222 0.814,0.32 0.898,0.409 1.089,0.551 1.216,0.551 1.271,0.551 1.298,0.502 1.298,0.451 1.298,0.4 1.289,0.345 1.276,0.293 L 1.165,-0.116 C 1.143,-0.198 1.12,-0.289 1.12,-0.318 c 0,-0.018 0.011,-0.029 0.027,-0.029 0.027,0 0.082,0.036 0.133,0.071 L 1.334,-0.238 1.36,-0.293 C 1.218,-0.418 1.036,-0.529 0.947,-0.529 c -0.049,0 -0.089,0.024 -0.089,0.095 0,0.083 0.076,0.378 0.091,0.427 0.016,0.047 0.076,0.254 0.076,0.3 0,0.023 -0.014,0.038 -0.04,0.038 C 0.918,0.331 0.816,0.224 0.776,0.18 0.687,0.08 0.625,-0.027 0.582,-0.14 0.542,-0.247 0.514,-0.362 0.507,-0.482 0.453,-0.485 0.32,-0.505 0.276,-0.52 L 0.253,-0.496 C 0.3,-0.36 0.349,-0.176 0.38,-0.047 0.402,0.047 0.44,0.184 0.44,0.273 0.44,0.305 0.427,0.331 0.402,0.331 0.367,0.331 0.322,0.322 0.273,0.273 0.176,0.176 0.044,0.011 -0.024,-0.225 -0.056,-0.331 -0.073,-0.434 -0.08,-0.482 -0.133,-0.485 -0.267,-0.505 -0.311,-0.52 l -0.022,0.024 c 0.046,0.136 0.095,0.32 0.126,0.449 0.027,0.111 0.058,0.292 0.058,0.336 0,0.036 -0.013,0.042 -0.027,0.042 -0.017,0 -0.042,-0.006 -0.093,-0.044 l -0.082,-0.063 -0.031,0.058 0.186,0.151 c 0.094,0.076 0.192,0.118 0.243,0.118 0.042,0 0.055,-0.033 0.055,-0.066 C 0.102,0.442 0.093,0.4 0.06,0.256 L 0,0 z"
         style="fill:none;stroke:#3155ad;stroke-width:0.003;stroke-linecap:butt;stroke-linejoin:miter;stroke-miterlimit:4;stroke-opacity:1;stroke-dasharray:none"
         id="path486" />
    </g>
    <g
       id="g488"
       transform="matrix(1.25,0,0,-1.25,418.71348,562.95218)">
      <path
         d="m 0,0 c 0,-0.091 -0.056,-0.167 -0.151,-0.167 -0.078,0 -0.122,0.049 -0.122,0.127 0,0.084 0.06,0.164 0.151,0.164 C -0.053,0.124 0,0.069 0,0 z m -0.247,-1.045 c -0.022,-0.082 -0.044,-0.173 -0.044,-0.202 0,-0.018 0.011,-0.029 0.026,-0.029 0.027,0 0.085,0.033 0.136,0.067 l 0.06,0.037 0.027,-0.062 c -0.127,-0.086 -0.294,-0.224 -0.436,-0.224 -0.027,0 -0.067,0.024 -0.067,0.095 0,0.038 0.007,0.089 0.014,0.116 l 0.131,0.536 c 0.006,0.024 0.013,0.053 0.018,0.082 0,0.018 -0.003,0.031 -0.025,0.031 -0.024,0 -0.127,-0.058 -0.151,-0.076 l -0.049,-0.035 -0.029,0.058 0.14,0.104 c 0.191,0.138 0.287,0.169 0.334,0.169 0.029,0 0.055,-0.029 0.055,-0.082 0,-0.051 -0.006,-0.096 -0.02,-0.149 l -0.12,-0.436"
         style="fill:#3155ad;fill-opacity:1;fill-rule:nonzero;stroke:none"
         id="path490" />
    </g>
    <g
       id="g492"
       transform="matrix(1.25,0,0,-1.25,418.71348,562.95218)">
      <path
         d="m 0,0 c 0,-0.091 -0.056,-0.167 -0.151,-0.167 -0.078,0 -0.122,0.049 -0.122,0.127 0,0.084 0.06,0.164 0.151,0.164 C -0.053,0.124 0,0.069 0,0 z"
         style="fill:none;stroke:#3155ad;stroke-width:0.003;stroke-linecap:butt;stroke-linejoin:miter;stroke-miterlimit:4;stroke-opacity:1;stroke-dasharray:none"
         id="path494" />
      <g
         id="g496"
         transform="translate(-0.247,-1.045)">
        <path
           d="m 0,0 c -0.022,-0.082 -0.044,-0.173 -0.044,-0.202 0,-0.018 0.011,-0.029 0.026,-0.029 0.027,0 0.085,0.033 0.136,0.066 l 0.06,0.038 0.027,-0.062 c -0.127,-0.087 -0.294,-0.224 -0.436,-0.224 -0.027,0 -0.067,0.024 -0.067,0.095 0,0.038 0.007,0.089 0.013,0.116 l 0.132,0.535 c 0.006,0.025 0.013,0.054 0.017,0.083 0,0.017 -0.002,0.031 -0.024,0.031 -0.024,0 -0.127,-0.058 -0.151,-0.076 L -0.36,0.336 -0.389,0.393 -0.249,0.498 C -0.058,0.636 0.038,0.667 0.084,0.667 0.113,0.667 0.14,0.638 0.14,0.585 0.14,0.534 0.133,0.489 0.12,0.436 L 0,0 z"
           style="fill:none;stroke:#3155ad;stroke-width:0.003;stroke-linecap:butt;stroke-linejoin:miter;stroke-miterlimit:4;stroke-opacity:1;stroke-dasharray:none"
           id="path498" />
      </g>
    </g>
    <g
       id="g500"
       transform="matrix(1.25,0,0,-1.25,418.80473,563.61343)">
      <path
         d="m 0,0 0.016,0.06 0.255,0.071 c 0.018,0.1 0.036,0.205 0.036,0.271 l 0,0.036 C 0.353,0.445 0.396,0.456 0.434,0.469 L 0.58,0.522 0.602,0.496 C 0.578,0.409 0.553,0.325 0.533,0.238 L 0.505,0.113 0.802,0.125 0.816,0.113 0.785,-0.011 C 0.72,-0.002 0.649,0 0.58,0 L 0.476,0 0.362,-0.527 c -0.011,-0.053 -0.02,-0.104 -0.02,-0.158 0,-0.046 0.014,-0.064 0.047,-0.064 l 0.007,0 c 0.026,0 0.06,0.002 0.12,0.047 L 0.64,-0.613 0.669,-0.671 0.498,-0.798 C 0.387,-0.88 0.291,-0.929 0.211,-0.929 c -0.064,0 -0.129,0.02 -0.129,0.142 0,0.038 0.014,0.096 0.022,0.136 L 0.242,0 0,0"
         style="fill:#3155ad;fill-opacity:1;fill-rule:nonzero;stroke:none"
         id="path502" />
    </g>
    <g
       id="g504"
       transform="matrix(1.25,0,0,-1.25,418.80473,563.61343)">
      <path
         d="m 0,0 0.016,0.06 0.255,0.071 c 0.018,0.1 0.036,0.205 0.036,0.271 l 0,0.036 C 0.353,0.445 0.396,0.456 0.434,0.469 L 0.58,0.522 0.602,0.496 C 0.578,0.409 0.553,0.325 0.533,0.238 L 0.505,0.113 0.802,0.125 0.816,0.113 0.785,-0.011 C 0.72,-0.002 0.649,0 0.58,0 L 0.476,0 0.362,-0.527 c -0.011,-0.053 -0.02,-0.104 -0.02,-0.158 0,-0.046 0.014,-0.064 0.047,-0.064 l 0.007,0 c 0.026,0 0.06,0.002 0.12,0.047 L 0.64,-0.613 0.669,-0.671 0.498,-0.798 C 0.387,-0.88 0.291,-0.929 0.211,-0.929 c -0.064,0 -0.129,0.02 -0.129,0.142 0,0.038 0.014,0.096 0.022,0.136 L 0.242,0 0,0 z"
         style="fill:none;stroke:#3155ad;stroke-width:0.003;stroke-linecap:butt;stroke-linejoin:miter;stroke-miterlimit:4;stroke-opacity:1;stroke-dasharray:none"
         id="path506" />
    </g>
    <g
       id="g508"
       transform="matrix(1.25,0,0,-1.25,421.73973,564.17218)">
      <path
         d="m 0,0 c 0.004,0.018 0.007,0.033 0.007,0.047 0,0.053 -0.036,0.064 -0.098,0.066 l -0.134,0.005 0.012,0.073 c 0.111,-0.002 0.222,-0.006 0.331,-0.006 0.109,0 0.22,0.004 0.329,0.006 L 0.436,0.118 0.38,0.113 C 0.322,0.109 0.296,0.084 0.28,0.013 L 0.236,-0.2 C 0.229,-0.233 0.222,-0.267 0.222,-0.302 L 0.229,-0.338 C 0.055,-0.4 -0.149,-0.482 -0.394,-0.482 c -0.397,0 -0.666,0.175 -0.666,0.595 0,0.478 0.282,0.81 0.726,0.947 0.087,0.027 0.183,0.04 0.272,0.04 C 0.091,1.1 0.249,1.071 0.385,1.005 0.349,0.878 0.313,0.756 0.3,0.631 l -0.078,0 0.011,0.196 0,0.004 c 0,0.025 -0.02,0.045 -0.046,0.063 -0.051,0.031 -0.198,0.069 -0.332,0.069 -0.117,0 -0.273,-0.032 -0.373,-0.118 -0.169,-0.147 -0.236,-0.483 -0.236,-0.72 0,-0.285 0.114,-0.503 0.427,-0.503 0.073,0 0.196,0.024 0.256,0.065 L 0,0"
         style="fill:#3155ad;fill-opacity:1;fill-rule:nonzero;stroke:none"
         id="path510" />
    </g>
    <g
       id="g512"
       transform="matrix(1.25,0,0,-1.25,421.73973,564.17218)">
      <path
         d="m 0,0 c 0.004,0.018 0.007,0.033 0.007,0.047 0,0.053 -0.036,0.064 -0.098,0.066 l -0.134,0.005 0.012,0.073 c 0.111,-0.002 0.222,-0.006 0.331,-0.006 0.109,0 0.22,0.004 0.329,0.006 L 0.436,0.118 0.38,0.113 C 0.322,0.109 0.296,0.084 0.28,0.013 L 0.236,-0.2 C 0.229,-0.233 0.222,-0.267 0.222,-0.302 L 0.229,-0.338 C 0.055,-0.4 -0.149,-0.482 -0.394,-0.482 c -0.397,0 -0.666,0.175 -0.666,0.595 0,0.478 0.282,0.81 0.726,0.947 0.087,0.027 0.183,0.04 0.272,0.04 C 0.091,1.1 0.249,1.071 0.385,1.005 0.349,0.878 0.313,0.756 0.3,0.631 l -0.078,0 0.011,0.196 0,0.004 c 0,0.025 -0.02,0.045 -0.046,0.063 -0.051,0.031 -0.198,0.069 -0.332,0.069 -0.117,0 -0.273,-0.032 -0.373,-0.118 -0.169,-0.147 -0.236,-0.483 -0.236,-0.72 0,-0.285 0.114,-0.503 0.427,-0.503 0.073,0 0.196,0.024 0.256,0.065 L 0,0 z"
         style="fill:none;stroke:#3155ad;stroke-width:0.003;stroke-linecap:butt;stroke-linejoin:miter;stroke-miterlimit:4;stroke-opacity:1;stroke-dasharray:none"
         id="path514" />
    </g>
    <g
       id="g516"
       transform="matrix(1.25,0,0,-1.25,422.71473,564.39468)">
      <path
         d="m 0,0 c 0,-0.107 0.067,-0.207 0.178,-0.207 0.255,0 0.324,0.454 0.324,0.678 0,0.107 -0.066,0.207 -0.177,0.207 C 0.069,0.678 0,0.227 0,0 z m -0.253,0.053 c 0,0.083 0.026,0.203 0.053,0.283 0.033,0.098 0.058,0.155 0.133,0.226 0.136,0.127 0.298,0.214 0.485,0.214 0.231,0 0.338,-0.131 0.338,-0.358 C 0.756,0.336 0.731,0.216 0.705,0.136 0.671,0.038 0.647,-0.02 0.571,-0.091 0.438,-0.22 0.273,-0.304 0.087,-0.304 c -0.249,0 -0.34,0.12 -0.34,0.357"
         style="fill:#3155ad;fill-opacity:1;fill-rule:nonzero;stroke:none"
         id="path518" />
    </g>
    <g
       id="g520"
       transform="matrix(1.25,0,0,-1.25,422.71473,564.39468)">
      <path
         d="m 0,0 c 0,-0.107 0.067,-0.207 0.178,-0.207 0.255,0 0.324,0.454 0.324,0.678 0,0.107 -0.066,0.207 -0.177,0.207 C 0.069,0.678 0,0.227 0,0 z"
         style="fill:none;stroke:#3155ad;stroke-width:0.003;stroke-linecap:butt;stroke-linejoin:miter;stroke-miterlimit:4;stroke-opacity:1;stroke-dasharray:none"
         id="path522" />
      <g
         id="g524"
         transform="translate(-0.253,0.053)">
        <path
           d="M 0,0 C 0,0.082 0.027,0.202 0.053,0.282 0.087,0.38 0.111,0.438 0.187,0.509 0.322,0.636 0.485,0.722 0.671,0.722 0.903,0.722 1.009,0.591 1.009,0.365 1.009,0.282 0.985,0.162 0.958,0.082 0.925,-0.016 0.9,-0.073 0.825,-0.144 0.691,-0.273 0.527,-0.358 0.34,-0.358 0.091,-0.358 0,-0.238 0,0 z"
           style="fill:none;stroke:#3155ad;stroke-width:0.003;stroke-linecap:butt;stroke-linejoin:miter;stroke-miterlimit:4;stroke-opacity:1;stroke-dasharray:none"
           id="path526" />
      </g>
    </g>
    <g
       id="g528"
       transform="matrix(1.25,0,0,-1.25,423.81473,563.61343)">
      <path
         d="m 0,0 0.016,0.06 0.255,0.071 c 0.018,0.1 0.036,0.205 0.036,0.271 l 0,0.036 C 0.353,0.445 0.396,0.456 0.433,0.469 L 0.58,0.522 0.602,0.496 C 0.578,0.409 0.553,0.325 0.533,0.238 L 0.505,0.113 0.802,0.125 0.816,0.113 0.785,-0.011 C 0.72,-0.002 0.649,0 0.58,0 L 0.476,0 0.362,-0.527 c -0.011,-0.053 -0.02,-0.104 -0.02,-0.158 0,-0.046 0.014,-0.064 0.047,-0.064 l 0.007,0 c 0.026,0 0.06,0.002 0.12,0.047 L 0.64,-0.613 0.669,-0.671 0.498,-0.798 C 0.387,-0.88 0.291,-0.929 0.211,-0.929 c -0.064,0 -0.129,0.02 -0.129,0.142 0,0.038 0.014,0.096 0.022,0.136 L 0.242,0 0,0"
         style="fill:#3155ad;fill-opacity:1;fill-rule:nonzero;stroke:none"
         id="path530" />
    </g>
    <g
       id="g532"
       transform="matrix(1.25,0,0,-1.25,423.81473,563.61343)">
      <path
         d="m 0,0 0.016,0.06 0.255,0.071 c 0.018,0.1 0.036,0.205 0.036,0.271 l 0,0.036 C 0.353,0.445 0.396,0.456 0.433,0.469 L 0.58,0.522 0.602,0.496 C 0.578,0.409 0.553,0.325 0.533,0.238 L 0.505,0.113 0.802,0.125 0.816,0.113 0.785,-0.011 C 0.72,-0.002 0.649,0 0.58,0 L 0.476,0 0.362,-0.527 c -0.011,-0.053 -0.02,-0.104 -0.02,-0.158 0,-0.046 0.014,-0.064 0.047,-0.064 l 0.007,0 c 0.026,0 0.06,0.002 0.12,0.047 L 0.64,-0.613 0.669,-0.671 0.498,-0.798 C 0.387,-0.88 0.291,-0.929 0.211,-0.929 c -0.064,0 -0.129,0.02 -0.129,0.142 0,0.038 0.014,0.096 0.022,0.136 L 0.242,0 0,0 z"
         style="fill:none;stroke:#3155ad;stroke-width:0.003;stroke-linecap:butt;stroke-linejoin:miter;stroke-miterlimit:4;stroke-opacity:1;stroke-dasharray:none"
         id="path534" />
    </g>
    <g
       id="g536"
       transform="matrix(1.25,0,0,-1.25,424.78473,563.61343)">
      <path
         d="m 0,0 0.016,0.06 0.255,0.071 c 0.018,0.1 0.036,0.205 0.036,0.271 l 0,0.036 C 0.353,0.445 0.396,0.456 0.433,0.469 L 0.58,0.522 0.602,0.496 C 0.578,0.409 0.554,0.325 0.534,0.238 L 0.505,0.113 0.803,0.125 0.816,0.113 0.785,-0.011 C 0.72,-0.002 0.649,0 0.58,0 L 0.476,0 0.362,-0.527 c -0.011,-0.053 -0.02,-0.104 -0.02,-0.158 0,-0.046 0.014,-0.064 0.047,-0.064 l 0.007,0 c 0.026,0 0.06,0.002 0.12,0.047 L 0.64,-0.613 0.669,-0.671 0.498,-0.798 C 0.387,-0.88 0.291,-0.929 0.211,-0.929 c -0.064,0 -0.129,0.02 -0.129,0.142 0,0.038 0.014,0.096 0.023,0.136 L 0.242,0 0,0"
         style="fill:#3155ad;fill-opacity:1;fill-rule:nonzero;stroke:none"
         id="path538" />
    </g>
    <g
       id="g540"
       transform="matrix(1.25,0,0,-1.25,424.78473,563.61343)">
      <path
         d="m 0,0 0.016,0.06 0.255,0.071 c 0.018,0.1 0.036,0.205 0.036,0.271 l 0,0.036 C 0.353,0.445 0.396,0.456 0.433,0.469 L 0.58,0.522 0.602,0.496 C 0.578,0.409 0.554,0.325 0.534,0.238 L 0.505,0.113 0.803,0.125 0.816,0.113 0.785,-0.011 C 0.72,-0.002 0.649,0 0.58,0 L 0.476,0 0.362,-0.527 c -0.011,-0.053 -0.02,-0.104 -0.02,-0.158 0,-0.046 0.014,-0.064 0.047,-0.064 l 0.007,0 c 0.026,0 0.06,0.002 0.12,0.047 L 0.64,-0.613 0.669,-0.671 0.498,-0.798 C 0.387,-0.88 0.291,-0.929 0.211,-0.929 c -0.064,0 -0.129,0.02 -0.129,0.142 0,0.038 0.014,0.096 0.023,0.136 L 0.242,0 0,0 z"
         style="fill:none;stroke:#3155ad;stroke-width:0.003;stroke-linecap:butt;stroke-linejoin:miter;stroke-miterlimit:4;stroke-opacity:1;stroke-dasharray:none"
         id="path542" />
    </g>
    <g
       id="g544"
       transform="matrix(1.25,0,0,-1.25,408.52223,555.33218)">
      <path
         d="m 0,0 2.424,0 c 0,0 -0.224,3.502 3.353,4.699 L 8.725,1.841 10.85,3.622 c 0,0 1.436,-1.093 1.571,-3.637 l 1.392,0 c 0,0 0.18,3.831 -3.457,5.941 L 9.069,4.789 6.51,7.303 C 6.51,7.303 0.224,6.839 0,0"
         style="fill:#3155ad;fill-opacity:1;fill-rule:nonzero;stroke:none"
         id="path546" />
    </g>
    <g
       id="g548"
       transform="matrix(1.25,0,0,-1.25,408.52223,555.33218)">
      <path
         d="m 0,0 2.424,0 c 0,0 -0.224,3.502 3.353,4.699 L 8.725,1.841 10.85,3.622 c 0,0 1.436,-1.093 1.571,-3.637 l 1.392,0 c 0,0 0.18,3.831 -3.457,5.941 L 9.069,4.789 6.51,7.303 C 6.51,7.303 0.224,6.839 0,0 z"
         style="fill:none;stroke:#3155ad;stroke-width:0.003;stroke-linecap:butt;stroke-linejoin:miter;stroke-miterlimit:4;stroke-opacity:1;stroke-dasharray:none"
         id="path550" />
    </g>
    <g
       id="g552"
       transform="matrix(1.25,0,0,-1.25,424.26473,556.29968)">
      <path
         d="m 0,0 -0.017,-0.019 c -1.43,-1.636 -3.496,-2.574 -5.666,-2.574 -2.171,0 -4.236,0.938 -5.666,2.574 L -11.366,0 l -0.852,0 0.072,-0.092 c 1.56,-2.006 3.911,-3.157 6.449,-3.157 2.538,0 4.888,1.151 6.449,3.157 L 0.823,0 0,0"
         style="fill:#3155ad;fill-opacity:1;fill-rule:nonzero;stroke:none"
         id="path554" />
    </g>
    <g
       id="g556"
       transform="matrix(1.25,0,0,-1.25,424.26473,556.29968)">
      <path
         d="m 0,0 -0.017,-0.019 c -1.43,-1.636 -3.496,-2.574 -5.666,-2.574 -2.171,0 -4.236,0.938 -5.666,2.574 L -11.366,0 l -0.852,0 0.072,-0.092 c 1.56,-2.006 3.911,-3.157 6.449,-3.157 2.538,0 4.888,1.151 6.449,3.157 L 0.823,0 0,0 z"
         style="fill:none;stroke:#3155ad;stroke-width:0.003;stroke-linecap:butt;stroke-linejoin:miter;stroke-miterlimit:4;stroke-opacity:1;stroke-dasharray:none"
         id="path558" />
    </g>
    <g
       id="g560"
       transform="matrix(1.25,0,0,-1.25,406.93598,550.15468)">
      <path
         d="m 0,0 c 0,-1.08 0.208,-2.13 0.618,-3.121 l 0.085,-0.206 0.025,0.221 c 0.031,0.288 0.1,0.647 0.204,1.068 l 0.003,0.015 -0.004,0.014 c -0.183,0.656 -0.275,1.337 -0.275,2.023 0,0.627 0.077,1.25 0.23,1.853 0.804,2.334 3.009,3.905 5.484,3.905 2.22,0 4.275,-1.295 5.235,-3.299 L 11.613,2.456 12.442,1.972 12.369,2.173 C 11.53,4.7 9.177,6.398 6.512,6.398 5.528,6.398 4.579,6.19 3.718,5.793 4.756,6.425 5.954,6.77 7.182,6.77 c 1.697,0 3.314,-0.638 4.553,-1.796 1.233,-1.152 1.978,-2.71 2.099,-4.387 l 0.002,-0.025 0.581,-0.706 0.004,0.472 c 0,3.866 -3.145,7.011 -7.011,7.011 -0.549,0 -1.087,-0.065 -1.611,-0.188 0.764,0.254 1.569,0.387 2.381,0.387 4.148,0 7.523,-3.375 7.523,-7.524 0,-0.705 -0.097,-1.403 -0.29,-2.075 l -0.004,-0.017 0.005,-0.017 c 0.098,-0.301 0.291,-1.049 0.291,-1.049 l 0.065,0.166 c 0.372,0.949 0.561,1.951 0.561,2.978 0,4.502 -3.663,8.165 -8.166,8.165 C 3.663,8.165 0,4.502 0,0"
         style="fill:#3155ad;fill-opacity:1;fill-rule:nonzero;stroke:none"
         id="path562" />
    </g>
    <g
       id="g564"
       transform="matrix(1.25,0,0,-1.25,406.93598,550.15468)">
      <path
         d="m 0,0 c 0,-1.08 0.208,-2.13 0.618,-3.121 l 0.085,-0.206 0.025,0.221 c 0.031,0.288 0.1,0.647 0.204,1.068 l 0.003,0.015 -0.004,0.014 c -0.183,0.656 -0.275,1.337 -0.275,2.023 0,0.627 0.077,1.25 0.23,1.853 0.804,2.334 3.009,3.905 5.484,3.905 2.22,0 4.275,-1.295 5.235,-3.299 L 11.613,2.456 12.442,1.972 12.369,2.173 C 11.53,4.7 9.177,6.398 6.512,6.398 5.528,6.398 4.579,6.19 3.718,5.793 4.756,6.425 5.954,6.77 7.182,6.77 c 1.697,0 3.314,-0.638 4.553,-1.796 1.233,-1.152 1.978,-2.71 2.099,-4.387 l 0.002,-0.025 0.581,-0.706 0.004,0.472 c 0,3.866 -3.145,7.011 -7.011,7.011 -0.549,0 -1.087,-0.065 -1.611,-0.188 0.764,0.254 1.569,0.387 2.381,0.387 4.148,0 7.523,-3.375 7.523,-7.524 0,-0.705 -0.097,-1.403 -0.29,-2.075 l -0.004,-0.017 0.005,-0.017 c 0.098,-0.301 0.291,-1.049 0.291,-1.049 l 0.065,0.166 c 0.372,0.949 0.561,1.951 0.561,2.978 0,4.502 -3.663,8.165 -8.166,8.165 C 3.663,8.165 0,4.502 0,0 z"
         style="fill:none;stroke:#3155ad;stroke-width:0.003;stroke-linecap:butt;stroke-linejoin:miter;stroke-miterlimit:4;stroke-opacity:1;stroke-dasharray:none"
         id="path566" />
    </g>
  </g>
</svg>
