<svg xmlns="http://www.w3.org/2000/svg" width="800" height="122.46"  fill-rule="evenodd"><path d="M471.293 29.808h-21.168V6.824h21.168zm158.82 37.884c18.444 3.318 31.264 10.35 31.264 27.277 0 18.264-12.742 27.274-31.264 27.258h-96.57V60.996c0-6.587-3.497-10.258-10.479-10.258h-51.776v-20.93h51.776c20.914 0 31.409 13.308 31.409 31.188v40.206h75.478c8.874 0 10.642-2.237 10.642-5.435 0-3.474-3.996-5.875-10.479-6.835l-26.822-4.553c-17.948-3.765-31.263-10.384-31.263-27.311 0-18.264 12.742-27.26 31.263-27.26h49.562v20.93h-49.562c-8.874 0-10.478 2.334-10.478 5.54 0 3.474 4.475 5.472 10.478 6.733zm-271.78-7.307v6.303h50.823v-7.89c0-4.295-4.057-8.644-9.543-8.644l-31.497.01c-4.906 0-9.784 4.203-9.784 10.221zm112.96-9.648v42.396c0 21.032-11.619 29.238-29.086 29.238h-74.559c-16.422 0-29.662-10.452-29.662-29.89V60.616c0-18.092 13.036-30.568 30.134-30.568h31.497c21.137 0 29.89 17.158 29.89 28.983v26.264h-71.17v7.188c0 6.301 4.091 8.959 9.312 8.959h74.559c8.507 0 8.155-2.649 8.155-8.308V50.738zm283.01-14.275c0-8.843-1.595-10.841-1.595-10.841s-7.418-4.081-22.596-4.081c-3.266.027-7.083.251-10.958.781V8.351h-6.577v41.511s10.52 1.305 19.515 1.305c16.412 0 20.666-3.412 20.666-3.412s1.543-2.178 1.543-11.293zm-6.619.289c0 2.435-.207 4.813-.379 6.261-2.1.574-6.798 1.544-15.109 1.56-3.644 0-7.973-.267-13.041-.703V28.993c14.044-2.11 24.164.248 28.058 1.483.17 1.441.472 3.843.472 6.276zm52.322-.289c0-8.843-1.604-10.841-1.604-10.841s-7.426-4.081-22.593-4.081c-3.267.027-7.076.251-10.96.781V8.351h-6.585v41.511s10.53 1.305 19.526 1.305c16.412 0 20.666-3.412 20.666-3.412s1.551-2.178 1.551-11.293zm-6.635.289c0 2.435-.199 4.813-.369 6.261-2.1.574-6.808 1.544-15.119 1.56-3.634 0-7.965-.267-13.033-.703V28.993c14.047-2.11 24.146.248 28.057 1.483.163 1.441.464 3.843.464 6.276zM708.256 21.67c-25.347.139-35.432 6.105-35.432 6.105v22.962h6.731V32.103c3.182-1.052 12.11-3.617 28.702-3.84z" fill="#f5821f"/><path d="M187.053 0v38.339c-4.491-6.56-13.461-10.52-22.773-10.52-21.008 0-32.25 13.787-32.25 40.515v13.599c0 26.728 11.242 40.527 32.25 40.527 9.312 0 18.282-3.979 22.773-10.522v8.617h17.741V.005zm0 82.971c0 14.664-6.738 23.11-18.624 23.11-11.73 0-18.641-6.543-18.641-24.817V69.02c0-18.3 6.911-24.834 18.641-24.834 11.886 0 18.624 8.437 18.624 23.108zm103.52-55.152h-8.368c-21.035 0-32.26 13.787-32.26 40.515v13.599c0 26.728 11.225 40.527 32.26 40.527h8.368c21.009 0 32.251-13.799 32.251-40.527V68.334c0-26.728-11.242-40.515-32.251-40.515zm14.482 53.446c0 18.274-6.903 24.817-18.634 24.817h-.075c-11.73 0-18.643-6.543-18.643-24.817V69.021c0-18.3 6.913-24.834 18.643-24.834h.075c11.731 0 18.634 6.534 18.634 24.834zm-85.414 39.289h17.773V30.048h-17.773zM237.409.004h-17.773v16.137h17.773zm-17.768 0h17.768M38.389 29.94c-8.952 0-16.514 4.458-20.656 10.503V30.008H.001v90.441h17.732V70.593c0-15.34 6.56-23.169 17.732-23.169-.017.017 13.396.017 13.396.017V29.94H38.39zm48.319.085H60.034v17.477h26.161c11.026 0 17.056 5.513 17.056 15.34v3.25c-4.993-2.229-11.706-3.439-20.16-3.439-20.52 0-36.022 9.124-36.022 29.302 0 22.226 16.728 30.5 31.375 30.5 9.817 0 18.614-4.647 24.807-10.848v8.952h17.413V60.356c0-20.52-13.78-30.33-33.957-30.33zm16.544 64.853c-4.135 5.685-12.402 11.558-21.883 11.558-11.723 0-17.408-6.045-17.408-15.004 0-8.266 7.239-13.447 18.616-13.447 9.654 0 15.846 1.561 20.676 3.962z" fill="#e7e5e4"/></svg>