<svg xmlns="http://www.w3.org/2000/svg" width="504.359" height="121.509" viewBox="0 0 133.445 32.149"><path d="M53.28 4.04v21.146h4.445V4.04zm14.77 6.507c-4.974 0-7.776 3.17-7.776 7.467 0 4.09 2.688 7.439 7.748 7.439 4.602 0 7.775-2.875 7.775-7.468 0-4.327-2.858-7.438-7.747-7.438zm19.147 0c-1.778 0-3.378 1.452-4.444 3.674v-3.407h-4.446v14.372h4.446v-6.609c.652-2.46 1.807-3.645 3.348-3.645.83 0 1.63.415 2.43 1.186l1.778-4.356c-1.186-.86-2.075-1.215-3.112-1.215zm17.738 0c-2.311 0-4.445.592-6.163 1.955v3.705c1.54-1.66 3.437-2.579 5.334-2.579 1.452 0 2.34.504 2.34 2.194v.326c-5.481 1.778-8.119 2.726-8.119 5.69 0 2.133 1.482 3.615 4.09 3.615 1.57 0 2.963-.416 4.237-1.512.296 1.037 1.037 1.512 2.311 1.512 1.245 0 2.371-.297 3.912-1.008v-2.727c-.592.356-.978.504-1.333.504-.534 0-.652-.533-.652-1.215v-5.926c0-2.786-2.075-4.534-5.957-4.534zm-61.196.267c-4.356 0-6.905 1.955-6.905 5.363 0 2.134 1.364 3.852 3.735 4.564-1.452.326-2.223 1.303-2.223 2.37 0 .77.533 1.482 1.304 1.808-2.549.415-3.467 1.837-3.467 3.319 0 2.37 2.43 3.911 7.17 3.911 4.624 0 7.172-1.6 7.172-4.533 0-2.282-1.511-3.764-5.008-4.149-2.252-.267-3.17-.445-3.17-1.185 0-.652.859-.949 2.015-1.067 3.289-.238 5.334-2.104 5.334-4.653 0-1.126-.415-2.133-1.364-2.934h2.608v-2.814zm47.558 0v14.372h4.444V10.814zm-48.002 2.903c1.392 0 2.519 1.067 2.519 2.46 0 1.363-1.038 2.43-2.608 2.43-1.393 0-2.49-.978-2.49-2.37 0-1.127.919-2.52 2.579-2.52zm24.698.267c1.973 0 3.345 1.423 3.345 4 0 2.46-1.258 4.031-3.288 4.031-2.001 0-3.287-1.511-3.287-4.03 0-2.52 1.286-4.001 3.23-4.001zm38.454 4.238v3.645c-.77.652-1.512 1.037-2.163 1.037-.92 0-1.57-.652-1.57-1.63 0-1.482 1.451-2.104 3.733-3.052zm-63.093 8.03c2.193 0 3.526.593 3.526 1.72 0 1.155-1.274 1.777-3.378 1.777-2.282 0-3.437-.593-3.437-1.748 0-1.275 1.244-1.749 3.289-1.749z" style="line-height:1.25;-inkscape-font-specification:'Gill Sans Nova'" font-weight="400" font-size="112" font-family="Gill Sans Nova" letter-spacing="0" word-spacing="0" fill="#e60c1e"/><path d="M29.984.39a1.467 1.467 0 0 0-1.467 1.467 1.467 1.467 0 0 0 1.467 1.467 1.467 1.467 0 0 0 1.467-1.467A1.467 1.467 0 0 0 29.984.389zm-6.111.218v4.533c-.648-.396-1.331-.576-2.213-.576-2.68 0-4.192 2.051-4.192 4.408 0 2.68 1.626 5.34 5.128 4.48.445-.11 1.277-.489 1.277-.489v.489h2.68V.608zM5.398 4.565c-1.08 0-2.051.881-2.699 2.23V4.728H0v8.726h2.7V9.44c.395-1.494 1.096-2.214 2.032-2.214.504 0 .99.252 1.475.72l1.08-2.645c-.72-.521-1.26-.737-1.89-.737zm6.293 0c-1.403 0-2.698.36-3.742 1.187V8c.936-1.008 2.087-1.565 3.239-1.565.882 0 1.421.306 1.421 1.331v.198c-3.328 1.08-4.93 1.656-4.93 3.455 0 1.295.9 2.194 2.483 2.194.954 0 1.8-.252 2.573-.917.18.63.63.917 1.403.917.756 0 1.44-.18 2.375-.611v-1.656c-.36.216-.594.306-.81.306-.323 0-.395-.323-.395-.737V7.317c0-1.691-1.26-2.752-3.617-2.752zm26.01 0c-3.071 0-4.801 1.925-4.801 4.533 0 2.483 1.66 4.516 4.784 4.516 2.842 0 4.802-1.745 4.802-4.534 0-2.626-1.766-4.515-4.784-4.515zm-9.067.162v8.726h2.7V4.727zm-6.362 1.889c.576 0 1.08.126 1.601.486v4.046s-.866.435-1.308.435c-1.89 0-2.272-.919-2.272-2.628 0-1.422.828-2.34 1.979-2.34zm15.394.036c1.219 0 2.066.863 2.066 2.428 0 1.494-.777 2.447-2.03 2.447-1.236 0-2.03-.917-2.03-2.447 0-1.529.794-2.428 1.994-2.428zM12.61 9.225v2.212c-.468.396-.918.63-1.314.63-.557 0-.953-.396-.953-.99 0-.899.882-1.277 2.267-1.852z" style="line-height:1.25;-inkscape-font-specification:'Gill Sans Nova'" font-weight="400" font-size="68" font-family="Gill Sans Nova" letter-spacing="0" word-spacing="0" fill="#e60c1e"/><circle cx="116.387" cy="24.662" r=".79" fill="#e60c1e"/><path d="M122.682 17.263c-2.408 0-4.24 1.72-4.24 4.047 0 1.95 1.445 3.979 4.217 3.979.987 0 1.915-.206 2.808-.654v-.951a5.23 5.23 0 0 1-2.785.802c-2.044 0-3.324-1.444-3.324-3.199 0-1.72 1.292-3.221 3.336-3.221.94 0 1.868.275 2.714.745v-.929c-.905-.4-1.821-.619-2.726-.619zm4.525.103v7.82h.83v-3.543h4.579v3.542h.83v-7.819h-.83v3.486h-4.58v-3.486z" style="line-height:1.25;-inkscape-font-specification:'Gill Sans Nova'" font-weight="400" font-size="43.333" font-family="Gill Sans Nova" letter-spacing="0" word-spacing="0" fill="#e60c1e"/><circle style="line-height:1.25;-inkscape-font-specification:'Droid Sans'" cx="93.519" cy="4.711" r="4.711" font-weight="400" font-size="113.333" font-family="Droid Sans" letter-spacing="0" word-spacing="0" fill="#e60c1e"/><path d="M92.719 1.96v1.95h-1.95v1.6h1.95v1.95h1.6V5.51h1.95v-1.6h-1.95V1.96z" fill="#fff"/></svg>