<svg width="800" height="131.17" version="1.1" xmlns="http://www.w3.org/2000/svg">
	<g fill="#fff">
		<path d="m164.17 112.95h7.3876v-41.042c0-11.984 5.4176-17.074 17.074-17.074v-7.8802c-7.2235 0-12.641 1.97-17.402 11.164h-0.32834c-0.16417-2.6267-0.32834-6.5668-0.49251-10.343h-6.8951c0.16417 6.731 0.49251 13.462 0.49251 20.193v44.983z"/>
		<path d="m236.57 68.459c0-4.7609 0-21.506-20.029-21.506-7.2235 0-11.82 2.4625-17.895 5.7459l1.1492 7.8802c0.82085-0.65668 7.716-6.731 16.253-6.731 13.462 0 13.462 11.82 13.462 19.865h-4.5968c-9.3577 0-31.356 0.32834-31.356 21.178 0 10.507 8.0443 18.88 18.059 18.88 8.3727 0 13.79-3.1192 18.223-10.179h0.32834l0.49251 9.3577h6.5668c-0.32834-4.9251-0.82085-9.686-0.82085-14.611v-29.879zm-6.8951 19.372c0 17.73-12.805 19.208-16.253 19.208-7.8802 0-11.984-6.5668-11.984-11.984 0-14.775 12.805-14.775 28.237-14.775z"/>
		<path d="m297.15 17.238h-7.3876v39.072h-0.32834c-3.2834-6.0743-8.2085-9.3577-16.417-9.3577-16.253 0-21.506 18.551-21.506 31.028 0 9.0293 0.82085 35.789 21.999 35.789 8.2085 0 12.313-3.7759 17.074-9.8502h0.32834v8.8652h6.8951c-0.32834-5.5818-0.49251-11.328-0.49251-21.506v-74.041zm-37.759 63.205c0-15.104 3.7759-26.596 14.939-26.596 15.924 0 15.924 18.551 15.924 27.252 0 13.298-3.4476 25.775-16.089 25.775-14.775 0-14.775-21.178-14.775-26.431"/>
		<path d="m315.86 112.95h7.3876v-65.175h-7.3876zm-0.65668-79.458h8.8652v-11.492h-8.8652z"/>
		<path d="m363.47 106.87c-16.417 0-16.417-21.342-16.417-26.596s0-26.596 16.417-26.596c16.417 0 16.417 21.342 16.417 26.596s0 26.596-16.417 26.596m0 6.8951c19.044 0 24.297-17.074 24.297-33.491 0-16.417-5.4176-33.491-24.297-33.491-19.044 0-24.297 17.074-24.297 33.491 0 16.417 5.2534 33.491 24.297 33.491"/>
		<path d="m403.04 17.238v84.548c0 4.7609-0.16417 8.8652-0.49251 11.164h14.775c0.32834-1.97 0.49251-5.7459 0.49251-10.179h0.32834c2.4625 5.5818 7.2235 11.164 17.402 11.164 16.253 0 23.148-15.596 23.148-33.819 0-21.506-8.5368-33.983-22.655-33.983-9.5219 0-14.611 5.4176-16.91 10.507h-0.32834v-39.401zm15.76 62.713c-2.6267-12.969 1.97-22.163 12.313-21.999 8.8652 0 11.82 8.5368 11.82 21.67 0 15.104-2.4626 22.82-11.656 22.82-9.1935-0.16417-12.477-10.179-12.477-22.491"/>
		<path d="m473.14 112.95h15.76v-35.953c0-12.313 7.2235-16.253 13.626-16.253 1.6417 0 3.1192 0.32834 4.4326 0.65668v-14.775c-0.82085-0.16417-1.6417-0.32834-2.6267-0.32834-9.8502 0-14.775 7.8802-16.745 12.969h-0.32834c0-3.9401-0.32834-8.0443-0.49251-11.984h-14.283c0.32834 2.9551 0.49251 6.731 0.49251 10.835v54.833z"/>
		<path d="m562.45 97.189c-2.9551 2.1342-7.5518 5.0893-17.238 5.0893-12.313 0-16.745-6.731-16.745-18.059h37.923v-3.1192c0-26.76-12.149-35.132-26.267-35.132-16.745 0-27.088 15.268-27.088 34.804 0 17.73 9.1935 32.998 30.371 32.998 9.5219 0 16.253-2.7909 19.7-4.2684zm-33.983-22.82c0-8.701 3.4476-17.402 11.656-17.402 7.2235 0 10.999 5.9101 10.999 17.402z"/>
		<path d="m580.83 112.95h15.76v-39.893c0-7.2235 3.7759-13.954 10.671-13.954 5.9101 0 8.3727 4.1042 8.3727 12.313v41.535h15.76v-39.893c0-7.2235 3.7759-13.954 10.671-13.954 5.9101 0 8.3727 4.1042 8.3727 12.313v41.535h15.76v-40.55c0-15.924-4.5968-26.103-18.88-26.103-9.686 0-14.447 5.9101-17.566 10.507-1.97-3.6117-5.4176-10.507-16.581-10.507-9.0294 0-14.119 6.2385-16.581 11.328h-0.32834c0-3.4476-0.32834-6.8951-0.49251-10.343h-15.76c0.32834 2.4625 0.49251 6.0743 0.49251 10.671v54.997z"/>
		<path d="m729.24 97.189c-2.9551 2.1342-7.5518 5.0893-17.238 5.0893-12.313 0-16.745-6.731-16.745-18.059h38.087v-3.1192c0-26.76-12.149-35.132-26.267-35.132-16.745 0-27.088 15.268-27.088 34.804 0 17.73 9.1935 32.998 30.371 32.998 9.5218 0 16.417-2.7909 19.7-4.2684zm-33.819-22.82c0-8.701 3.4476-17.402 11.656-17.402 7.2235 0 10.999 5.9101 10.999 17.402z"/>
		<path d="m748.29 112.95h15.76v-38.252c0-8.3727 2.9551-15.432 11.164-15.432 6.5668 0 9.0294 4.2684 9.0294 14.283v39.401h15.76v-42.356c0-13.298-4.4326-24.297-19.372-24.297-10.671 0-15.268 7.2235-17.566 11.164h0.16417-0.32834c0-3.2834-0.32834-6.731-0.49251-10.014h-14.775c0.32834 2.9551 0.49251 6.731 0.49251 10.835v54.669z"/>
	</g>
	<path d="m65.504 0c36.282 0 65.668 29.386 65.668 65.504 0 36.282-29.386 65.668-65.504 65.668-36.282 0-65.668-29.386-65.668-65.668 0-36.117 29.386-65.504 65.504-65.504m0 17.566c-26.596 0-48.102 21.506-48.102 48.102 0 23.64 16.91 43.177 39.237 47.281v-47.445h17.566v47.281c22.327-4.1042 39.237-23.64 39.237-47.281 0.16417-26.431-21.342-47.938-47.938-47.938" fill="#f08009"/>
</svg>
