<svg xmlns="http://www.w3.org/2000/svg" width="379.655" height="450" ><path d="M213.366.825C113.156-8.465 23.652 61.764 13.443 157.224c-5.861 54.801 15.694 106.223 54.048 141.868l-.111.212c.21.094.427.172.637.266 28.395 26.18 65.878 43.765 108.301 47.698 94.001 8.715 178.582-52.549 197.13-138.966.083-.151.177-.293.259-.444l-.163-.073c1.172-5.544 2.092-11.184 2.706-16.922C386.46 95.402 313.577 10.116 213.366.825zm-1.723 16.17a171.96 171.96 0 0 1 33.191 6.402c-5.715 8.033-12.475 15.591-20.103 22.479-15.443-11.677-32.929-21.219-52.361-28.027 12.751-1.73 25.903-2.094 39.272-.854zm49.87 12.368c19.104 7.963 36.209 19.237 50.564 33.047-10.078 15.042-22.397 28.483-36.444 40.151-10.353-16.872-22.992-32.354-37.846-45.77 9.06-8.316 17.076-17.514 23.727-27.428zm-107.422-.042c21.518 5.852 40.596 15.244 57.221 27.344-12.199 8.795-25.806 16.039-40.108 21.198zm-16.381 5.671l16.864 47.837c-14.061 3.378-28.405 4.737-42.478 3.683 5.971-18.335 14.515-35.754 25.614-51.52zm-20.767.341c-9.524 15.215-16.976 31.543-22.33 48.54-9.221-2.098-18.202-5.341-26.789-9.848 13.623-15.789 30.324-28.947 49.119-38.692zM324.03 75.287c12.383 14.864 21.953 31.881 28.054 50.299-12.189 20.631-28.036 38.418-46.515 53.333-3.382-16.326-8.348-32.339-14.957-47.638-2.021-4.679-4.254-9.264-6.583-13.802 15.207-12.231 28.761-26.308 40.001-42.192zm-99.197-7.731c14.697 13.095 27.075 28.486 37.122 45.446-20.087 14.091-42.864 24.966-66.948 32.375l-18.354-52.058c17.343-6.142 33.72-14.911 48.18-25.763zM57.551 87.322c10.465 5.689 21.469 9.683 32.719 12.248-4.232 17.934-6.206 36.378-6.038 54.801-17.331-2.479-34.292-6.86-50.442-13.25 4.457-19.64 12.649-37.776 23.761-53.798zm102.479 10.964l18.213 51.668c-24.975 5.876-50.957 8.056-76.521 6.281-.307-18.119 1.622-36.286 5.841-53.871 17.534 1.699 35.335.137 52.468-4.078zm110.021 29.626c1.52 3.108 2.987 6.247 4.363 9.433 7.3 16.898 12.487 34.812 15.556 53.068-20.488 13.803-43.445 24.539-67.753 32.148l-21.655-61.412c24.886-7.655 48.472-18.807 69.488-33.236zm87.653 20.392c2.191 13.229 2.668 26.952 1.171 40.944-.493 4.613-1.232 9.148-2.12 13.621-11.827 20.909-28.136 38.874-47.438 53.588 2.134-19.359 1.929-39.104-.587-58.631 18.76-13.886 35.354-30.397 48.973-49.522zM183.82 165.768l21.68 61.487c-28.113 7.007-57.573 10.001-86.726 8.962-6.066-13.934-10.536-28.611-13.392-43.681-1.239-6.538-2.117-13.152-2.739-19.79 27.205 1.74 54.735-.65 81.177-6.977zM30.979 157.64c17.373 6.51 35.493 10.962 53.932 13.407.662 8.16 1.754 16.279 3.276 24.311 2.564 13.531 6.443 26.803 11.486 39.633-21.353-2.078-42.303-6.407-62.224-12.93-6.49-19.799-8.988-41.182-6.631-63.223.043-.403.115-.796.161-1.197zm261.313 51.339c1.802 20.405 1.031 40.946-2.496 60.721-13.694 8.179-28.455 14.918-43.845 20.177l-18.196-51.595c22.876-7.141 44.65-16.92 64.537-29.304zm-81.247 34.006l18.296 51.901c-19.756 5.232-40.268 8.058-60.759 8.325-17.121-14.251-30.986-31.389-41.552-50.405 28.323.312 56.759-2.961 84.015-9.82zm122.925 15.07c-8.752 13.197-19.456 25.008-31.687 35.12 1.236-4.427 2.314-8.909 3.279-13.42 10.081-6.503 19.62-13.718 28.407-21.7zM45.35 241.511c20.003 5.498 40.789 8.996 61.832 10.485 9.123 18.302 20.963 35.304 35.519 50.207-22.474-2.136-44.462-7.533-64.91-16.349-13.373-12.827-24.368-27.832-32.442-44.343zm239.267 50.269c-1.778 6.081-3.858 12.037-6.19 17.86-6.982 3.968-14.28 7.449-21.841 10.413l-5.045-14.32c11.402-3.871 22.458-8.555 33.076-13.953zm-49.693 18.944l5.226 14.81a170.69 170.69 0 0 1-25.962 5.095c-8.435-3.456-16.354-7.503-23.847-11.985a267.12 267.12 0 0 0 44.583-7.92zm-72.587 9.023c5.235 4.046 10.746 7.847 16.506 11.395-.265-.023-.527-.026-.792-.05-20.197-1.873-39.16-7.17-56.348-15.208 13.382 2.379 26.992 3.661 40.634 3.864z" fill="#004993"/><path d="M153.165 313.795c-9.11 0-18.882 2.074-29.399 6.296-10.516 4.147-20.218 6.296-29.179 6.296-9.11 0-17.259-.741-24.295-2.222l-50.365 47.323c18.664 3.63 34.515 5.408 47.551 5.408 9.702 0 22.368-2.59 38.069-7.774 15.702-5.258 30.513-7.85 44.585-7.85 16.516 0 28.295 5.548 35.331 16.732l1.994-46.875c-6.666-11.554-18.072-17.332-34.292-17.332zm73.105 0c-16.22 0-27.554 5.778-34.072 17.332l2.003 46.875c7.037-11.184 18.807-16.732 35.323-16.732 14.072 0 28.891 2.592 44.593 7.85 15.701 5.185 28.359 7.774 38.061 7.774 13.036 0 28.816-1.779 47.331-5.408l-50.145-47.323c-7.036 1.482-15.177 2.222-24.287 2.222-8.961 0-18.738-2.148-29.256-6.296-10.591-4.222-20.442-6.296-29.551-6.296zm-76.139 52.731c-13.184 0-27.845 2.518-43.917 7.555-16.146 5.036-29.186 7.551-39.185 7.403-15.776-.148-31.476-1.772-47.103-4.808v46.216h136.72c7.036-9.851 18.15-14.814 33.185-14.814s26.069 4.963 32.957 14.814h136.72v-46.216c-7.258 1.481-22.887 3.031-46.883 4.808-9.999.149-23.031-2.367-39.176-7.403-16.072-5.037-30.742-7.555-43.926-7.555-17.923 0-31.174 7.924-39.692 23.847-8.518-15.923-21.777-23.847-39.7-23.847z" fill="#f9f9f9" paint-order="stroke fill markers"/><path d="M153.165 310.085c-10.443 0-21.102 2.15-32.137 6.372-10.962 4.296-19.633 6.448-26.002 6.448-9.703 0-18.883-1.042-27.549-3.042l-55.545 50.956v46.368L0 433.927v9.329h153.165c12.591 4.518 24.816 6.743 36.667 6.743s23.996-2.225 36.438-6.743h153.385v-9.329l-12.143-16.74v-46.368l-55.334-50.956c-8.813 2-18.065 3.042-27.768 3.042-6.369 0-15.032-2.152-25.994-6.448-11.035-4.222-21.703-6.372-32.146-6.372-17.923 0-30.069 6.74-36.438 20.146-6.666-13.406-18.891-20.146-36.667-20.146zm0 3.71c16.22 0 27.626 5.778 34.292 17.332l-1.994 46.875c-7.037-11.184-18.816-16.732-35.331-16.732-14.072 0-28.883 2.592-44.585 7.85-15.701 5.185-28.367 7.774-38.069 7.774-13.036 0-28.887-1.779-47.551-5.408l50.365-47.323c7.036 1.482 15.185 2.222 24.295 2.222 8.961 0 18.663-2.148 29.179-6.296 10.517-4.222 20.289-6.296 29.399-6.296zm73.105 0c9.11 0 18.961 2.074 29.551 6.296 10.517 4.147 20.294 6.296 29.256 6.296 9.11 0 17.251-.741 24.287-2.222l50.145 47.323c-18.515 3.63-34.295 5.408-47.331 5.408-9.702 0-22.36-2.59-38.061-7.774-15.702-5.258-30.521-7.85-44.593-7.85-16.516 0-28.286 5.548-35.323 16.732l-2.003-46.875c6.518-11.554 17.852-17.332 34.072-17.332zm-76.139 52.731c17.923 0 31.183 7.924 39.7 23.847 8.518-15.923 21.769-23.847 39.692-23.847 13.184 0 27.854 2.518 43.926 7.555 16.146 5.036 29.178 7.551 39.176 7.403 23.996-1.777 39.625-3.327 46.883-4.808v9.422c-18.515 3.63-34.295 5.408-47.331 5.408-9.702 0-22.36-2.59-38.061-7.774-15.702-5.258-30.521-7.85-44.593-7.85-16.516 0-28.286 5.548-35.323 16.732l-4.369 6.422-4.369-6.422c-7.037-11.184-18.816-16.732-35.331-16.732-14.072 0-28.883 2.592-44.585 7.85-15.701 5.185-28.367 7.774-38.069 7.774-13.036 0-28.887-1.779-47.551-5.408v-9.422c15.627 3.036 31.327 4.661 47.103 4.808 9.998.149 23.039-2.367 39.185-7.403 16.072-5.037 30.734-7.555 43.917-7.555zm0 12.98c17.923 0 31.183 7.924 39.7 23.847 8.518-15.923 21.769-23.847 39.692-23.847 13.184 0 27.854 2.518 43.926 7.555 16.146 5.036 29.178 7.551 39.176 7.403 23.996-1.777 39.625-3.327 46.883-4.808v9.422c-18.515 3.63-34.295 5.408-47.331 5.408-9.702 0-22.36-2.59-38.061-7.774-15.702-5.258-30.521-7.85-44.593-7.85-16.516 0-28.286 5.548-35.323 16.732l-1.766 2.594c-.869-.035-1.705-.11-2.603-.11s-1.735.075-2.603.11l-1.766-2.594c-7.037-11.184-18.816-16.732-35.331-16.732-14.072 0-28.883 2.592-44.585 7.85-15.701 5.185-28.367 7.774-38.069 7.774-13.036 0-28.887-1.779-47.551-5.408v-9.422c15.627 3.036 31.327 4.661 47.103 4.808 9.998.149 23.039-2.367 39.185-7.403 16.072-5.037 30.734-7.555 43.917-7.555zm0 12.98c14.559 0 25.989 5.322 34.351 15.819-12.348 1.066-21.661 5.941-27.836 14.586H19.926v-20.256c15.627 3.036 31.327 4.661 47.103 4.808 9.998.149 23.039-2.367 39.185-7.403 16.072-5.037 30.734-7.555 43.917-7.555zm79.392 0c13.184 0 27.854 2.518 43.926 7.555 16.146 5.036 29.178 7.551 39.176 7.403 23.996-1.777 39.625-3.327 46.883-4.808v20.256h-136.72c-6.043-8.642-15.28-13.518-27.608-14.586 8.361-10.498 19.784-15.819 34.343-15.819z" fill="#004993" fill-rule="evenodd" image-rendering="optimizeQuality" shape-rendering="geometricPrecision" text-rendering="geometricPrecision"/><path d="M171.207 63.306c-3.509 28.585-5.183 58.504-5.78 89.212-29.719 1.14-59.444 4.338-89.186 9.659v37.25c29.76 3.067 59.453 4.876 89.085 5.527.858 61.006 4.468 124.009 5.882 185.42h37.25l5.873-185.513c29.758-.656 59.462-2.404 89.093-5.434v-37.25c-29.715-5.308-59.448-8.485-89.186-9.625-.596-30.719-2.27-60.65-5.78-89.245z" fill="#e3000b" paint-order="stroke fill markers"/></svg>