<?xml version="1.0" encoding="UTF-8"?>
<svg width="800" height="321.25" enable-background="new -80.062 -13 224.123 90" version="1.1" xmlns="http://www.w3.org/2000/svg">
	<path d="m491.26 0c88.719 0 160.62 71.91 160.62 160.63 0 88.715-71.896 160.63-160.62 160.63-88.715 0-160.63-71.91-160.63-160.63 0-88.715 71.914-160.63 160.63-160.63z" fill="#fef1d4"/>
	<g fill="#fff">
		<path d="m0 207.14v-59.596c0-17.951 10.808-28.666 28.87-28.666h18.536v17.058h-18.522c-7.5315 0-11.633 4.0513-11.633 11.419v59.746z"/>
		<path d="m182.21 170.48c0 14.285-6.5607 22.513-18.133 22.513-11.572 0-18.165-6.3715-18.165-24.169v-11.926c0-17.822 6.7284-24.187 18.165-24.187 11.433 0 18.133 8.2097 18.133 22.523zm0-80.823v37.354c-4.3619-6.3893-13.114-10.255-22.173-10.255-20.478 0-31.383 13.428-31.383 39.471v13.25c0 26.036 10.948 39.482 31.383 39.482 9.0593 0 17.812-3.8836 22.173-10.255v8.3989h17.251v-117.45z"/>
		<path d="m297.17 168.82c0 17.797-6.7248 24.169-18.151 24.169h-0.075c-11.44 0-18.165-6.3715-18.165-24.169v-11.926c0-17.822 6.7248-24.187 18.165-24.187h0.075c11.426 0 18.151 6.3679 18.151 24.187zm-14.124-52.064h-8.1419c-20.489 0-31.383 13.428-31.383 39.471v13.25c0 26.036 10.937 39.482 31.383 39.482h8.1419c20.478 0 31.383-13.446 31.383-39.482v-13.246c0.0393-26.057-10.905-39.475-31.383-39.475z"/>
		<path d="m213.96 89.661v15.723h17.308v-15.723zm0 117.44h17.308v-88.165h-17.308z"/>
		<path d="m100.59 182.09c-4.0263 5.5326-12.072 11.294-21.338 11.294-11.412 0-16.955-5.8824-16.955-14.599 0-8.0705 7.0497-13.114 18.133-13.114 9.4198 0 15.441 1.542 20.085 3.8586zm-16.12-63.211h-25.982v17.033h25.493c10.748 0 16.619 5.372 16.619 14.938v3.1732c-4.8723-2.1667-11.408-3.341-19.639-3.341-19.982 0-35.148 8.8737-35.148 28.538 0 21.656 16.32 29.716 30.576 29.716 9.1378-0.19989 17.812-4.0049 24.165-10.573v8.7237h16.955v-58.639c0.0357-19.996-13.382-29.569-33.039-29.569z"/>
	</g>
	<path d="m604.9 72.76v85.67h176.88l18.215-85.67z" fill="#e31818"/>
	<path d="m707.89 130.44c0.2677-2.3166 0.41405-4.6688 0.41405-6.9997-0.025-2.363-0.18561-4.726-0.48901-7.0675-4.2012-1.3671-15.113-4.0156-30.298-1.6598v16.726c5.4648 0.48545 10.144 0.78528 14.085 0.78528 8.9593 0 14.06-1.1065 16.309-1.7455m52.624 0c0.257-2.3201 0.38907-4.6724 0.40335-6.9997-0.0357-2.363-0.19632-4.7045-0.50329-7.0461-4.212-1.3671-15.134-4.0156-30.308-1.6527v16.659c5.4684 0.48545 10.134 0.78528 14.089 0.78528 8.9558 0 14.049-1.1065 16.305-1.7455m7.5351-7.3424c0 10.216-1.6741 12.65-1.6741 12.65s-4.5903 3.7658-22.316 3.7658c-7.0568-0.0964-14.085-0.58539-21.092-1.4528v-46.446h7.1282v15.616c3.9086-0.55326 7.8635-0.8531 11.818-0.87809 16.384 0 24.411 4.5653 24.411 4.5653s1.7348 2.2523 1.7348 12.14m-52.61 0c0 10.216-1.6634 12.65-1.6634 12.65s-4.5868 3.7658-22.338 3.7658c-7.0461-0.0964-14.074-0.59253-21.081-1.4599v-46.435h7.1175v15.656c3.9193-0.55326 7.8742-0.8531 11.826-0.87809 16.394 0 24.415 4.5653 24.415 4.5653s1.724 2.2488 1.724 12.136m-52.981-9.2413c-17.929 0.257-27.62 3.1304-31.026 4.319v20.91h-7.2531v-25.721s10.89-6.6927 38.282-6.8426v7.3352z" fill="#fff"/>
	<path d="m436.06 72.63v25.126h56.923l-41.286 60.137h30.48l17.338-25.126h-0.13942l41.286-60.137zm75.809 61.266-16.453 23.996h5.2914c18.094 0 32.794 14.715 32.794 32.801 0 18.094-14.694 32.794-32.794 32.794h-76.806v25.14h76.806c31.922 0 57.934-25.955 57.934-57.927 0-28.084-20.137-51.622-46.772-56.804z" fill="#003340"/>
</svg>
