<?xml version="1.0" encoding="UTF-8" standalone="no"?>
<svg
   xmlns:dc="http://purl.org/dc/elements/1.1/"
   xmlns:cc="http://web.resource.org/cc/"
   xmlns:rdf="http://www.w3.org/1999/02/22-rdf-syntax-ns#"
   xmlns:svg="http://www.w3.org/2000/svg"
   xmlns="http://www.w3.org/2000/svg"
   xmlns:sodipodi="http://sodipodi.sourceforge.net/DTD/sodipodi-0.dtd"
   xmlns:inkscape="http://www.inkscape.org/namespaces/inkscape"
   version="1.0"
   id="Radio-Berlin-Logo"
   width="754.09998"
   height="212.7"
   viewBox="0 0 150.818 42.539"
   overflow="visible"
   enable-background="new 0 0 150.818 42.539"
   xml:space="preserve"
   sodipodi:version="0.32"
   inkscape:version="0.45.1"
   sodipodi:docname="Radio-Berlin-Logo.svg"
   inkscape:output_extension="org.inkscape.output.svg.inkscape"
   sodipodi:docbase="C:\Home\xavax\Desktop"><metadata
   id="metadata10"><rdf:RDF><cc:Work
       rdf:about=""><dc:format>image/svg+xml</dc:format><dc:type
         rdf:resource="http://purl.org/dc/dcmitype/StillImage" /></cc:Work></rdf:RDF></metadata><defs
   id="defs8" /><sodipodi:namedview
   inkscape:window-height="977"
   inkscape:window-width="1280"
   inkscape:pageshadow="2"
   inkscape:pageopacity="0.0"
   guidetolerance="10.0"
   gridtolerance="10.0"
   objecttolerance="10.0"
   borderopacity="1.0"
   bordercolor="#666666"
   pagecolor="#ffffff"
   id="base"
   inkscape:zoom="4.7540747"
   inkscape:cx="75.408998"
   inkscape:cy="21.269501"
   inkscape:window-x="-4"
   inkscape:window-y="-4"
   inkscape:current-layer="Radio-Berlin-Logo"
   width="754.1px"
   height="212.7px" />
<path
   id="radio"
   d="M 29.873,13.974 C 29.162,12.938 27.742,12.31 26.268,12.31 C 22.948,12.31 21.166,14.492 21.166,18.722 L 21.166,20.873 C 21.166,25.102 22.947,27.283 26.268,27.283 C 27.743,27.283 29.163,26.655 29.873,25.619 L 29.873,26.981 L 32.68,26.981 L 32.68,7.909 L 29.873,7.909 L 29.873,13.974 z M 29.873,21.035 C 29.873,23.355 28.807,24.695 26.924,24.695 C 25.07,24.695 23.975,23.655 23.975,20.767 L 23.975,18.829 C 23.975,15.935 25.071,14.901 26.924,14.901 C 28.807,14.901 29.873,16.235 29.873,18.557 L 29.873,21.035 L 29.873,21.035 z M 46.25,12.31 L 44.924,12.31 C 41.598,12.31 39.822,14.492 39.822,18.722 L 39.822,20.873 C 39.822,25.102 41.597,27.283 44.924,27.283 L 46.25,27.283 C 49.574,27.283 51.352,25.101 51.352,20.873 L 51.352,18.722 C 51.352,14.491 49.574,12.31 46.25,12.31 M 48.543,20.768 C 48.543,23.656 47.449,24.696 45.592,24.696 L 45.58,24.696 C 43.726,24.696 42.633,23.656 42.633,20.768 L 42.633,18.83 C 42.633,15.936 43.727,14.902 45.58,14.902 L 45.592,14.902 C 47.449,14.902 48.543,15.936 48.543,18.83 L 48.543,20.768 z M 35.029,7.907 L 37.842,7.907 L 37.842,10.462 L 35.029,10.462 L 35.029,7.907 z M 35.029,12.661 L 37.842,12.661 L 37.842,26.981 L 35.029,26.981 L 35.029,12.661 z M 3.082,26.964 L 0.279,26.964 L 0.279,12.653 L 3.082,12.653 L 3.082,14.307 C 3.736,13.351 4.934,12.643 6.35,12.643 L 8.006,12.643 L 8.006,15.413 L 5.889,15.411 C 4.121,15.411 3.082,16.649 3.082,19.077 L 3.082,26.964 L 3.082,26.964 z M 13.996,12.657 L 9.777,12.657 L 9.777,15.424 L 13.914,15.424 C 15.66,15.424 16.613,16.296 16.613,17.85 L 16.613,18.366 C 15.822,18.012 14.758,17.822 13.422,17.822 C 10.176,17.822 7.725,19.264 7.725,22.456 C 7.725,25.975 10.373,27.284 12.69,27.284 C 14.243,27.284 15.631,26.551 16.614,25.566 L 16.614,26.982 L 19.372,26.982 L 19.372,17.456 C 19.371,14.21 17.189,12.657 13.996,12.657 M 16.613,22.92 C 15.961,23.819 14.652,24.752 13.15,24.752 C 11.296,24.752 10.396,23.791 10.396,22.373 C 10.396,21.067 11.542,20.245 13.341,20.245 C 14.87,20.245 15.847,20.493 16.612,20.873 L 16.612,22.92 L 16.613,22.92 z "
   style="fill:#483a2c" />
<path
   id="BERLiN"
   d="M 60.533,27.254 L 53.685,27.254 L 53.685,12.184 L 60.595,12.184 C 63.523,12.184 65.374,13.582 65.374,16.168 C 65.374,17.455 64.769,18.489 63.784,19.094 C 64.987,19.634 65.889,20.73 65.889,22.39 C 65.891,25.552 63.758,27.254 60.533,27.254 M 60.465,14.962 L 56.633,14.962 L 56.633,17.823 L 60.617,17.823 C 61.867,17.823 62.318,17.243 62.318,16.403 C 62.318,15.455 61.779,14.962 60.465,14.962 M 60.639,20.493 L 56.633,20.493 L 56.633,24.389 L 60.639,24.389 C 62.102,24.389 62.793,23.617 62.793,22.429 C 62.793,21.138 62.102,20.493 60.639,20.493 M 78.775,27.254 L 78.775,24.304 L 71.004,24.304 L 71.004,20.668 L 75.332,20.668 L 75.332,17.739 L 71.004,17.739 L 71.004,15.132 L 78.453,15.132 L 78.453,12.184 L 67.99,12.184 L 67.99,27.254 L 78.775,27.254 L 78.775,27.254 z M 89.592,27.254 L 86.903,21.825 L 83.868,21.825 L 83.868,27.254 L 80.852,27.254 L 80.852,12.184 L 87.872,12.184 C 90.712,12.184 93.06,13.756 93.06,16.964 C 93.06,19.224 92.091,20.644 90.175,21.398 L 93.06,27.254 L 89.592,27.254 L 89.592,27.254 z M 87.807,15.111 L 83.868,15.111 L 83.868,18.985 L 87.807,18.985 C 89.205,18.985 89.959,18.341 89.959,17.027 C 89.959,15.672 89.141,15.111 87.807,15.111 M 106.305,27.254 L 106.305,24.281 L 98.746,24.281 L 98.746,12.184 L 95.73,12.184 L 95.73,27.254 L 106.305,27.254 L 106.305,27.254 z M 110.08,8.002 L 110.08,0 L 109.262,0 L 109.262,8.002 C 108.258,8.191 107.498,9.073 107.498,10.136 C 107.498,11.338 108.471,12.31 109.672,12.31 C 110.873,12.31 111.848,11.338 111.848,10.136 C 111.848,9.073 111.086,8.191 110.08,8.002 M 108.164,13.464 L 108.164,27.252 L 111.18,27.252 L 111.18,13.464 L 108.164,13.464 z M 125.854,27.254 L 125.854,12.184 L 122.881,12.184 L 122.881,18.558 C 122.881,19.396 122.924,21.289 122.924,21.85 C 122.733,21.462 122.238,20.71 121.873,20.148 L 116.533,12.184 L 113.648,12.184 L 113.648,27.254 L 116.619,27.254 L 116.619,20.623 C 116.619,19.783 116.576,17.888 116.576,17.329 C 116.771,17.718 117.264,18.47 117.633,19.029 L 123.164,27.254 L 125.854,27.254 L 125.854,27.254 z "
   style="fill:#e32420" />
<path
   id="RBB"
   d="M 141.361,10.636 C 141.361,11.075 141.32,11.506 141.291,11.768 C 140.91,11.87 140.061,12.046 138.559,12.05 C 137.899,12.05 137.12,12 136.202,11.922 L 136.202,9.232 C 138.741,8.852 140.569,9.278 141.276,9.503 C 141.305,9.762 141.361,10.193 141.361,10.636 M 142.557,10.584 C 142.557,8.983 142.266,8.621 142.266,8.621 C 142.266,8.621 140.924,7.886 138.18,7.886 C 137.59,7.89 136.903,7.932 136.201,8.026 L 136.201,5.5 L 135.012,5.5 L 135.012,13.006 C 135.012,13.006 136.914,13.241 138.541,13.241 C 141.506,13.241 142.277,12.623 142.277,12.623 C 142.277,12.623 142.557,12.231 142.557,10.584 M 149.619,10.636 C 149.619,11.075 149.584,11.506 149.553,11.768 C 149.17,11.87 148.321,12.046 146.819,12.05 C 146.161,12.05 145.38,12 144.464,11.922 L 144.464,9.232 C 147.003,8.852 148.827,9.278 149.538,9.503 C 149.566,9.762 149.619,10.193 149.619,10.636 M 150.818,10.584 C 150.818,8.983 150.529,8.621 150.529,8.621 C 150.529,8.621 149.183,7.886 146.445,7.886 C 145.851,7.89 145.164,7.932 144.463,8.026 L 144.463,5.5 L 143.272,5.5 L 143.272,13.006 C 143.272,13.006 145.174,13.241 146.803,13.241 C 149.772,13.241 150.539,12.623 150.539,12.623 C 150.539,12.623 150.818,12.231 150.818,10.584 M 134.229,7.909 C 129.647,7.933 127.825,9.013 127.825,9.013 L 127.825,13.162 L 129.044,13.162 L 129.044,9.796 C 129.618,9.604 131.232,9.142 134.23,9.1 L 134.23,7.909 L 134.229,7.909 z "
   style="fill:#e32420" />
<path
   id="_x38_8_x2C_8"
   d="M 3.75,41.069 C 1.434,41.069 0,40.007 0,38.241 C 0,37 0.742,36.359 1.42,36.065 C 0.783,35.719 0.385,35.155 0.385,34.491 C 0.385,32.725 1.869,31.827 3.75,31.827 C 5.516,31.827 7.117,32.661 7.117,34.413 C 7.117,35.054 6.769,35.682 6.08,36.065 C 6.769,36.385 7.5,37.011 7.5,38.151 C 7.5,39.955 6.066,41.069 3.75,41.069 M 3.75,36.936 C 2.406,36.936 1.793,37.434 1.793,38.202 C 1.793,39.02 2.611,39.494 3.75,39.494 C 4.979,39.494 5.709,39.034 5.709,38.217 C 5.709,37.396 5.107,36.936 3.75,36.936 M 3.75,33.378 C 2.637,33.378 2.176,33.863 2.176,34.44 C 2.176,35.017 2.713,35.464 3.75,35.464 C 4.85,35.464 5.324,35.041 5.324,34.451 C 5.324,33.878 4.928,33.378 3.75,33.378 M 11.967,41.069 C 9.651,41.069 8.217,40.007 8.217,38.241 C 8.217,37 8.959,36.359 9.637,36.065 C 8.998,35.72 8.6,35.155 8.6,34.491 C 8.6,32.725 10.086,31.827 11.967,31.827 C 13.733,31.827 15.332,32.661 15.332,34.413 C 15.332,35.054 14.986,35.682 14.297,36.065 C 14.986,36.385 15.717,37.011 15.717,38.151 C 15.717,39.955 14.283,41.069 11.967,41.069 M 11.967,36.936 C 10.625,36.936 10.008,37.434 10.008,38.202 C 10.008,39.02 10.826,39.494 11.967,39.494 C 13.196,39.494 13.924,39.034 13.924,38.217 C 13.924,37.396 13.324,36.936 11.967,36.936 M 11.967,33.378 C 10.854,33.378 10.393,33.863 10.393,34.44 C 10.393,35.017 10.93,35.464 11.967,35.464 C 13.069,35.464 13.543,35.041 13.543,34.451 C 13.543,33.878 13.145,33.378 11.967,33.378 M 18.877,38.766 L 16.791,38.766 L 16.598,42.539 L 17.803,42.539 L 18.877,38.766 z M 23.434,41.069 C 21.118,41.069 19.682,40.007 19.682,38.241 C 19.682,37 20.426,36.359 21.104,36.065 C 20.465,35.719 20.067,35.155 20.067,34.491 C 20.067,32.725 21.553,31.827 23.434,31.827 C 25.202,31.827 26.799,32.661 26.799,34.413 C 26.799,35.054 26.455,35.682 25.762,36.065 C 26.455,36.385 27.184,37.011 27.184,38.151 C 27.184,39.955 25.75,41.069 23.434,41.069 M 23.434,36.936 C 22.09,36.936 21.477,37.434 21.477,38.202 C 21.477,39.02 22.295,39.494 23.434,39.494 C 24.663,39.494 25.391,39.034 25.391,38.217 C 25.391,37.396 24.791,36.936 23.434,36.936 M 23.434,33.378 C 22.321,33.378 21.862,33.863 21.862,34.44 C 21.862,35.017 22.399,35.464 23.434,35.464 C 24.536,35.464 25.008,35.041 25.008,34.451 C 25.008,33.878 24.611,33.378 23.434,33.378"
   style="fill:#483a2c" />
</svg>