<svg xmlns="http://www.w3.org/2000/svg" xmlns:xlink="http://www.w3.org/1999/xlink" width="800" height="177.29"><g fill="#f7f8f7"><path d="M712.14 1.398v9.073h34.202c24.703 0 44.588 19.356 44.588 43.404s-19.885 43.408-44.588 43.408H712.14v9.073h34.202c29.443 0 53.661-23.431 53.661-52.481S775.785 1.398 746.342 1.398zm0 16.346v9.073h34.202c15.647 0 28.242 12.066 28.242 27.058s-12.595 27.062-28.242 27.062H712.14v9.073h34.202c20.312 0 37.315-16.061 37.315-36.135s-17.003-36.131-37.315-36.131zm0 16.346v9.073h34.202c6.591 0 11.896 4.689 11.896 10.714s-5.305 10.714-11.896 10.714H712.14v9.073h34.202c10.895 0 20.969-8.253 20.969-19.787S757.237 34.09 746.342 34.09z" dominant-baseline="auto" paint-order="stroke markers fill"/><path d="M8.271 62.613v43.743H0V1.464h33.197c6.715 0 12.473 2.755 17.274 8.265 4.914 5.51 7.371 12.947 7.371 22.309 0 7.851-1.808 14.466-5.458 19.823-3.627 5.323-12.172 8.705-17.949 10.167l27.608 44.326h-9.565L25.884 62.611zm23.294-52.446H8.271v44.326h23.294c4.666 0 9.644-2.34 12.717-5.852 3.745-4.281 5.008-10.624 5.008-16.312s-1.263-12.031-5.008-16.312c-3.072-3.512-8.05-5.852-12.717-5.852zm63.463 64.734l-10.736 31.454H74.41L111.925 1.464h10.736l37.455 104.892h-9.882l-10.736-31.454zm41.847-7.827L117.293 9.581 97.651 67.075zm75.612 39.281h-35.176V1.464h35.176q20.072 0 32.893 14.41 12.755 14.337 12.755 38.037 0 23.7-12.755 38.037-12.822 14.41-32.893 14.41zm-.537-95.895h-24.77v86.897h24.771q16.648 0 26.247-11.85 9.801-12.142 9.801-31.6 0-19.311-9.801-31.454-9.667-11.996-26.247-11.996zm75.431 95.895h-9.646V1.464h9.646zM357.041 0q16.777 0 31.823 12.142 7.923 6.144 12.583 17.189 4.727 10.972 4.727 24.577 0 13.532-4.727 24.503-4.66 10.972-12.583 17.336-15.113 12.069-31.823 12.069-4.394 0-8.988-.878-4.594-.878-9.454-2.853-4.86-2.048-9.321-4.974-4.461-2.999-8.455-7.388-3.994-4.389-6.924-9.802-2.929-5.413-4.66-12.581-1.664-7.241-1.664-15.434 0-11.045 3.196-20.554 3.196-9.509 8.522-15.653 7.656-8.851 17.776-13.239 10.186-4.462 19.972-4.462zm0 8.997q-5.859 0-11.451 1.756-5.592 1.682-10.652 5.413-5.06 3.657-8.921 8.851-3.795 5.193-6.058 12.654-2.264 7.461-2.264 16.239 0 10.899 3.395 19.676 3.462 8.778 9.121 14.19 5.726 5.413 12.583 8.265 6.924 2.853 14.247 2.853 7.257 0 14.047-2.853 6.857-2.853 12.45-8.265 5.659-5.413 9.054-14.19 3.462-8.778 3.462-19.676 0-14.337-5.992-25.017-5.659-10.094-14.247-14.995-8.522-4.901-18.774-4.901z"/></g><path d="M513.156 106.355l-11.971.005V58.282h-62.073v48.079l-11.971-.005V1.463l11.971.005v46.449h62.073V1.469l11.971-.005zm89.774-78.486c0 11.655-4.739 19.481-14.216 23.48 5.357 2.097 9.642 5.413 12.856 9.948 3.255 4.535 4.883 9.972 4.883 16.312 0 8.826-2.658 15.873-7.973 21.139-5.151 5.072-11.27 7.607-18.357 7.607h-39.742V1.464H576.6c7.128 0 13.33 2.267 18.604 6.803 5.151 4.291 7.726 10.826 7.726 19.603zm-29.709 30.413h-20.869v37.713h22.908c4.982 0 10.334-2.097 13.845-5.632 3.41-3.434 5.578-8.65 5.377-13.485-.2-4.797-2.875-9.66-6.428-12.889-3.92-3.563-9.536-5.705-14.834-5.705zm-.742-46.453h-20.127v36.082h20.127c4.752 0 10.062-1.458 13.412-4.828 3.574-3.594 5.197-9.27 5.068-14.337-.111-4.383-1.828-9.143-5.006-12.163-3.453-3.28-8.711-4.755-13.474-4.755zm68.631 50.784v43.743h-11.971V1.464h36.15c7.312 0 13.55 2.786 18.81 8.265 5.319 5.541 8.027 12.947 8.027 22.309 0 7.851-1.969 14.467-5.943 19.823-3.951 5.324-10.577 8.705-16.867 10.167l28.944 44.333h-13.923l-27.841-43.747zm19.744-50.785H641.11v40.419h19.744c5.011 0 10.357-2.256 13.847-5.852 3.502-3.608 5.419-9.037 5.453-14.065.035-5.211-1.85-10.886-5.453-14.65-3.465-3.62-8.836-5.852-13.847-5.852z" fill="#c41718"/><g fill="#f7f8f7"><path d="M35.454 176.655h-4.701v-21.6H4.67v21.6H0v-45.551h4.67v20.171h26.083v-20.171h4.701zm38.189 0H51.259v-45.551h22.384v3.78H55.928v16.582h16.413v3.653H55.928v17.757h17.715zm40.036-15.755v-29.797h4.265v30.081q0 7.37-5.106 11.753-5.048 4.352-11.865 4.352-6.905 0-11.952-4.352-5.048-4.352-5.048-11.753v-30.081h4.265V160.9q0 5.718 3.8 9.117 3.8 3.399 8.935 3.399 5.048 0 8.848-3.399 3.858-3.462 3.858-9.117zm29.883-8.222l19.543 23.978h-5.845l-16.615-20.377-2.483 3.065v17.312h-4.67v-45.551h4.67v23.157l17.636-23.157h5.241zm51.939 23.977h-22.384v-45.551h22.384v3.78h-17.715v16.582h16.413v3.653h-16.413v17.757h17.715zm34.916 0h-22.262v-45.551h4.67v41.772h17.593z"/><use xlink:href="#B"/><use xlink:href="#C"/><path d="M340.234 130.469a24.82 24.82 0 0 0-6.037.761c-2.012.508-4.043 1.366-6.097 2.573-2.054 1.186-3.865 2.649-5.433 4.386s-2.847 3.958-3.842 6.669-1.494 5.717-1.494 9.021c0 4.828.982 8.928 2.952 12.295 1.969 3.346 4.565 5.971 7.784 7.877 3.833 2.16 7.888 3.242 12.166 3.242 3.198 0 6.322-.605 9.371-1.812.365-.147.705-.328 1.059-.491v-3.947c-2.957 1.568-6.28 2.372-9.987 2.372-4.955 0-9.304-1.694-13.052-5.082-3.642-3.367-5.465-8.185-5.465-14.454 0-4.066.887-7.644 2.666-10.736 1.8-3.092 4.121-5.325 6.959-6.701 2.753-1.377 5.715-2.066 8.892-2.066 3.708 0 7.03.808 9.987 2.376v-3.939c-.364-.166-.716-.351-1.091-.499-3.028-1.228-6.141-1.844-9.339-1.844zm55.96 46.186h-4.701v-21.6H365.41v21.6h-4.67v-45.551h4.67v20.171h26.083v-20.171h4.701z"/><use xlink:href="#B" x="190.107"/><path d="M474.505 176.655h-4.67v-45.551h4.67z"/><use xlink:href="#B" x="249.696"/><path d="M552.218 176.655h-22.384v-45.551h22.384v3.78h-17.715v16.582h16.413v3.653h-16.413v17.757h17.715zm36.558 0h-22.262v-45.551h4.67v41.772h17.593zm1.711-15.831h11.661v2.224h-11.661zm30.269-3.165v18.996h-4.67v-45.551h12.43c3.791 0 7.041 1.196 9.752 3.59 2.774 2.393 4.161 5.622 4.161 9.688 0 3.41-1.027 6.279-3.081 8.608-2.054 2.308-4.712 3.78-7.973 4.415l12.103 19.25h-5.4l-11.531-18.996zm6.839-22.776h-6.839v19.25h6.839c2.923 0 5.315-.847 7.179-2.541 1.885-1.694 2.827-4.055 2.827-7.084s-.942-5.39-2.827-7.084c-1.864-1.694-4.257-2.541-7.179-2.541z"/><use xlink:href="#C" x="374.235"/><path d="M706.819 176.655h-12.226v-45.551h12.226c6.332 0 11.52 2.086 15.565 6.258 4.024 4.151 6.035 9.657 6.035 16.518s-2.012 12.367-6.035 16.518c-4.045 4.172-9.233 6.258-15.565 6.258zm-.254-41.644h-7.302v37.737h7.302c5.252 0 9.392-1.715 12.42-5.146 3.092-3.515 4.638-8.09 4.638-13.723 0-5.591-1.546-10.144-4.638-13.659-3.05-3.473-7.19-5.21-12.42-5.21zm39.905 41.644h-4.67v-45.551h4.67zm32.743-46.186q7.104 0 13.475 5.273 3.355 2.668 5.328 7.465 2.002 4.765 2.002 10.673 0 5.877-2.002 10.641-1.973 4.765-5.328 7.528-6.399 5.241-13.475 5.241-1.861 0-3.806-.381-1.945-.381-4.003-1.239-2.058-.889-3.947-2.16-1.889-1.302-3.58-3.208-1.691-1.906-2.932-4.257-1.24-2.351-1.973-5.464-.705-3.145-.705-6.702 0-4.797 1.353-8.926 1.353-4.13 3.608-6.798 3.242-3.844 7.527-5.75 4.313-1.938 8.457-1.938zm0 3.907q-2.481 0-4.849.762-2.368.731-4.51 2.351-2.143 1.588-3.778 3.844-1.607 2.255-2.565 5.495-.958 3.24-.958 7.052 0 4.733 1.438 8.545 1.466 3.812 3.862 6.162 2.424 2.351 5.328 3.59 2.932 1.239 6.033 1.239 3.073 0 5.948-1.239 2.904-1.239 5.272-3.59 2.396-2.351 3.834-6.162 1.466-3.812 1.466-8.545 0-6.226-2.537-10.864-2.396-4.384-6.033-6.512-3.608-2.128-7.95-2.128z"/></g><defs ><path id="B" d="M266.954 142.57c0 5.061-2.435 8.46-7.306 10.197 2.753.911 4.955 2.351 6.607 4.32 1.673 1.969 2.51 4.331 2.51 7.084 0 3.833-1.366 6.893-4.098 9.18-2.647 2.202-5.792 3.304-9.434 3.304h-14.441v-45.551h12.63c3.664 0 6.851.985 9.561 2.954 2.647 1.864 3.971 4.701 3.971 8.513zm-13.945 11.976h-7.548v18.583h8.596c2.923 0 5.294-.815 7.115-2.446 1.842-1.631 2.764-3.907 2.764-6.83 0-2.944-1.101-5.22-3.304-6.83-2.202-1.652-4.744-2.478-7.624-2.478zm-.381-19.853h-7.166v16.582h7.166c2.859 0 5.157-.699 6.893-2.097s2.605-3.473 2.605-6.226-.858-4.818-2.573-6.194-4.024-2.065-6.925-2.065z"/><path id="C" d="M281.264 162.995l-4.599 13.659h-5.146l16.71-45.551h5.146l16.684 45.551h-5.146l-4.599-13.659zm17.927-3.399l-8.388-24.968-8.415 24.968z"/></defs></svg>