<svg xmlns="http://www.w3.org/2000/svg" xmlns:xlink="http://www.w3.org/1999/xlink" width="1000" height="346.622"><path d="M.5 346.122V.5h786.34l-73.624 345.622z" fill="#e0131a"/><g fill="#fff"><use xlink:href="#A"/><path d="M232.668 136.508C122.185 138.126 78.08 164.25 78.08 164.25v104.723h30.65V184.02c14.063-4.667 52.735-15.825 123.976-17.42"/><use xlink:href="#A" x="-210.919"/></g><path d="M895.232 110.935V77.2h17.383v87.94h-17.383V128h-36.3v37.12H841.55V77.2h17.383v33.744zM927.954 77.2v87.94h25.564c28.093 0 45.983-16.92 45.983-44.545 0-26.142-13.462-43.395-43.938-43.395h-27.6zm17.383 16.36h9.203c19.37 0 26.938 10.2 26.938 27.45 0 18.918-12.4 27.77-26.938 27.77h-9.203V93.552z" fill="#dcdcde"/><defs><path id="A" d="M628.986 205.2c0 11.063-.87 21.905-1.592 28.5-9.156 2.63-29.614 7.043-65.665 7.104-15.868.007-34.64-1.18-56.62-3.188V169.83c61-9.637 104.866 1.144 121.866 6.7.717 6.6 2.012 17.55 2.012 28.68zm28.814-1.36c0-40.292-6.97-49.4-6.97-49.4s-32.26-18.6-98.166-18.6c-14.177.098-30.733 1.114-47.558 3.543v-63.68H476.46V265s45.732 5.923 84.828 5.923c71.293 0 89.768-15.596 89.768-15.596s6.74-9.912 6.74-51.466"/></defs></svg>