<svg xmlns="http://www.w3.org/2000/svg" width="210.981" height="92.488" fill-rule="nonzero" stroke-linejoin="round" stroke-miterlimit="1.41420996"><path d="M210.98 0H0v92.488h190.75z" fill="#e31818"/><path d="M110.98 62.427c0-1.732.577-4.624.577-7.512 0-2.892-.577-5.78-.577-7.517-4.624-1.732-16.183-4.624-32.948-1.732v17.92c5.784.577 10.986.577 15.028.577 10.41 0 15.61-1.155 17.92-1.737m57.225 0c0-1.732.577-4.624.577-7.512 0-2.892-.577-5.78-.577-7.517-4.624-1.732-16.183-4.624-32.948-1.732v17.92c5.784.577 10.986.577 15.033.577 9.826 0 15.028-1.155 17.915-1.737m8.094-8.09c0 10.98-1.732 13.873-1.732 13.873s-5.202 4.042-24.277 4.042c-10.41 0-22.545-1.732-22.545-1.732V20.235h7.512v16.76c4.624-.577 9.25-1.155 12.718-1.155 17.92 0 26.592 5.202 26.592 5.202s1.732 2.3 1.732 13.296m-57.225 0c0 10.98-1.732 13.873-1.732 13.873s-5.202 4.042-24.282 4.042c-10.404 0-22.54-1.732-22.54-1.732V20.235h7.512v16.76c4.624-.577 9.25-1.155 12.718-1.155 17.92 0 26.592 5.202 26.592 5.202s1.732 2.3 1.732 13.296M61.85 44.512c-19.653 0-30.056 3.465-33.526 4.624v22.54H20.23V43.935s11.564-6.94 41.62-7.517z" fill="#fff"/></svg>