<?xml version="1.0" encoding="UTF-8"?>
<svg width="800" height="351.28" version="1.1" xmlns="http://www.w3.org/2000/svg">
	<path d="m800 0h-800v351.28h725.34z" fill="#e31818"/>
	<path d="m422.35 236.49a268.16 268.16 0 0 0 1.6263-28.72 255.23 255.23 0 0 0-2.0328-28.883c-17.287-5.6107-62.059-16.458-124.26-6.7816v68.304c22.426 2.0166 41.6 3.2526 57.765 3.2526 36.738 0 57.619-4.5211 66.921-7.1719m215.74 0a278.96 278.96 0 0 0 1.6263-28.72 261.26 261.26 0 0 0-2.0816-28.883c-17.304-5.6107-62.059-16.458-124.25-6.7816v68.304c22.426 2.0166 41.568 3.2526 57.733 3.2526 36.77 0 57.619-4.5211 66.954-7.1719m30.997-30.086c0 41.877-6.8629 51.846-6.8629 51.846s-18.832 15.694-91.527 15.694c-39.844 0-86.469-5.9522-86.469-5.9522v-190.67h29.273v64.157a364.08 364.08 0 0 1 48.496-3.5941c67.182 0 100.1 18.735 100.1 18.735s7.0906 9.1722 7.0906 49.764m-215.73 0c0 41.877-6.8629 51.846-6.8629 51.846s-18.8 15.694-91.511 15.694c-39.844 0-86.469-5.9522-86.469-5.9522v-190.65h28.997v64.157a364.63 364.63 0 0 1 48.496-3.5941c67.214 0 100.1 18.735 100.1 18.735s7.0906 9.1722 7.0906 49.764m-217.24-37.648c-73.492 1.0083-113.04 12.799-127.16 17.661v85.591h-29.761v-105.51s44.641-27.419 156.94-28.021z" fill="#fff"/>
</svg>
