<?xml version="1.0" encoding="UTF-8"?>
<svg width="800" height="366.26" version="1.0" xmlns="http://www.w3.org/2000/svg">
	<g fill="#e31818">
		<path d="m312.15 365.23h-17.844v-62.909h17.844z"/>
		<path d="m380.67 365.23h-14.184l-14.984-20.818c-0.68629-0.91505-1.6014-2.1733-2.5164-3.5458-0.91506-1.3726-1.9445-2.8596-2.8596-4.2322-0.91505-1.3726-1.8301-2.7452-2.6308-4.0034-0.80067-1.2582-1.3726-2.2877-1.8301-2.974 0.11438 0.68628 0.22877 1.7158 0.22877 2.974 0.11437 1.2582 0.11437 2.7452 0.22876 4.2322 0.11438 1.487 0.11438 3.0884 0.11438 4.6896v23.562h-16.7v-62.909h15.327l13.84 18.645c0.68628 0.91505 1.6014 2.1733 2.5164 3.5459 1.0295 1.487 1.9445 2.8596 2.8596 4.3465 0.91509 1.4869 1.8301 2.7452 2.6308 4.0034 0.80067 1.2582 1.3726 2.1733 1.7158 2.8596-0.11437-0.68628-0.22876-1.7158-0.22876-2.974-0.11438-1.2582-0.11438-2.7452-0.22876-4.2321-0.11438-1.487-0.11438-3.0884-0.11438-4.6896v-21.504h16.7v63.023z"/>
		<path d="m443.24 317.07h-32.485v8.693h19.674v14.756h-19.674v24.593h-17.386v-62.909h49.87z"/>
		<path d="m506.15 333.66c0 5.2614-0.68628 9.8368-2.1733 13.955-1.487 4.1178-3.4315 7.4347-6.0622 10.18-2.6308 2.7452-5.719 4.804-9.2649 6.2909-3.5458 1.487-7.5491 2.1733-11.782 2.1733-4.2322 0-8.121-0.68629-11.782-2.0589-3.5459-1.3726-6.6341-3.4315-9.1505-6.1765-2.5164-2.7452-4.5753-6.0622-5.9478-10.18-1.487-4.0034-2.1733-8.693-2.1733-13.84 0-5.2615 0.68629-9.8368 2.1733-13.955 1.487-4.1178 3.4314-7.4347 6.0622-10.18 2.6308-2.7451 5.719-4.804 9.2649-6.291 3.5459-1.487 7.5491-2.1733 11.782-2.1733 4.2326 0 8.121 0.68629 11.782 2.0589 3.5458 1.3726 6.6341 3.4314 9.1505 6.1766s4.5754 6.0622 5.9478 10.18c1.3726 4.1178 2.1733 8.5786 2.1733 13.84zm-18.073 0.11438c0-5.6046-1.0294-9.9512-2.974-12.925-1.9445-2.974-4.6896-4.4609-8.121-4.4609s-6.1766 1.487-8.121 4.3465c-1.9445 2.8596-2.8596 7.206-2.8596 12.811s1.0294 9.9512 2.974 12.925c1.9445 2.974 4.6896 4.4609 8.2354 4.4609 3.4315 0 6.1766-1.487 8.121-4.3465 1.8301-2.8596 2.7452-7.206 2.7452-12.811z"/>
		<path d="m570.32 365.23h-19.56l-10.295-21.275h-6.9772v21.275h-17.158v-62.909h28.138c7.3204 0 13.269 1.6014 17.729 4.6896 4.5754 3.0884 6.7484 8.3498 6.7484 15.785 0 4.6896-1.0294 8.5786-3.0884 11.553-2.059 2.9742-4.804 5.3759-8.2354 6.8628zm-18.645-42.092c0-1.9445-0.57189-3.5458-1.7158-4.804-1.1438-1.2582-3.0884-1.9445-5.8334-1.9445h-10.523v13.726h10.295c2.8596 0 4.804-0.5719 6.0622-1.8301 1.2582-1.2582 1.7158-2.8596 1.7158-5.1472z"/>
		<path d="m638.95 365.23h-18.873l-3.4315-11.095h-18.873l-3.4315 11.095h-18.759l22.877-62.909h17.615zm-26.537-24.936-1.1438-4.1178c-1.1438-4.0034-1.9445-7.0916-2.5164-9.2649s-1.0294-4.3465-1.487-6.4053c-0.45753 2.0589-0.91506 4.2322-1.487 6.5197-0.57192 2.1733-1.487 5.2614-2.5164 9.2649l-1.1438 4.1177h10.295z"/>
		<path d="m702.32 333.31c0 5.8334-0.68629 10.866-2.1733 14.87-1.487 4.1178-3.6603 7.3204-6.4053 9.8368-2.8596 2.5164-6.4053 4.2322-10.638 5.3758-4.2322 1.1438-9.1505 1.7158-14.756 1.7158h-20.475v-62.909h22.076c4.9184 0 9.3793 0.45753 13.383 1.487 4.0034 1.0295 7.4348 2.7452 10.18 5.1472 2.745 2.4021 4.9184 5.6046 6.5197 9.608 1.6014 4.1178 2.2877 9.0361 2.2877 14.87zm-17.844 0.34315c0-5.719-1.0294-9.9512-3.2028-12.582-2.1733-2.6308-5.9478-3.889-11.324-3.889h-4.3466v33.057h3.7746c5.3759 0 9.2649-1.2582 11.553-3.6602 2.4021-2.4021 3.5458-6.7484 3.5458-12.925z"/>
		<path d="m731.14 365.23h-17.844v-62.909h17.844z"/>
		<path d="m800 333.66c0 5.2614-0.68629 9.8368-2.1733 13.955-1.487 4.1178-3.4315 7.4347-6.0622 10.18-2.6308 2.7452-5.719 4.804-9.2649 6.2909-3.5459 1.487-7.5491 2.1733-11.782 2.1733-4.2322 0-8.121-0.68629-11.782-2.0589-3.5458-1.3726-6.6341-3.4315-9.1505-6.1765-2.5164-2.7452-4.5754-6.0622-5.9478-10.18-1.487-4.0034-2.1733-8.693-2.1733-13.84 0-5.2615 0.68628-9.8368 2.1733-13.955 1.487-4.1178 3.4315-7.4347 6.0622-10.18 2.6308-2.7451 5.719-4.804 9.2649-6.291 3.5459-1.487 7.5491-2.1733 11.782-2.1733 4.2326 0 8.121 0.68629 11.782 2.0589 3.5458 1.3726 6.6341 3.4314 9.1505 6.1766s4.5753 6.0622 5.9478 10.18c1.487 3.889 2.1733 8.5786 2.1733 13.84zm-18.073 0.11438c0-5.6046-1.0294-9.9512-2.974-12.925-1.9445-2.974-4.6896-4.4609-8.121-4.4609-3.4314 0-6.1766 1.487-8.121 4.3465-1.9445 2.8596-2.8596 7.206-2.8596 12.811s1.0294 9.9512 2.974 12.925c1.9445 2.974 4.6896 4.4609 8.2354 4.4609 3.4315 0 6.1766-1.487 8.121-4.3465 1.8301-2.8596 2.7452-7.206 2.7452-12.811z"/>
		<path d="m334.46 259.54 55.132-259.54h410.4v259.54z"/>
		<path d="m326.79 209.09 33.743-158.65h-360.54v158.65z"/>
	</g>
	<g fill="#fff">
		<path d="m561.4 203.6h-118.73c1.2582-48.955 24.249-72.632 60.621-88.874 15.327-6.8628 17.615-9.1505 17.615-14.984 0-6.4053-4.5753-9.9512-16.242-9.9512-14.527 0-28.596 5.0328-43.236 14.756l-18.53-29.74c18.53-11.782 37.403-18.873 62.337-18.873 36.145 0 55.018 14.527 55.018 40.948 0 19.102-6.6341 30.769-34.43 43.579-29.053 13.497-37.175 21.619-40.262 30.312h75.834z"/>
		<path d="m714.9 178.67h-18.645v24.936h-36.145v-25.965h-82.011v-29.511l78.236-89.904h39.92v86.358h18.645zm-54.217-79.723c-3.889 6.0621-7.8923 11.21-17.386 22.648l-2.0589 2.5164c-7.6635 9.3793-13.726 16.014-19.102 21.161 7.3204-0.45753 17.272-0.57191 27.223-0.57191h10.752v-14.298c0-8.5786 0.22877-24.593 0.57191-31.456z"/>
		<path d="m190.34 157.16c0.34315-2.974 0.80067-7.8923 0.80067-12.925 0-5.0328-0.57191-9.9512-0.91505-13.04-7.7779-2.5164-27.91-7.4347-55.933-3.0884v30.884c10.066 0.91505 18.759 1.487 26.08 1.487 16.357-0.11438 25.736-2.0589 29.969-3.317m97.11 0c0.34314-2.974 0.68629-7.8923 0.68629-12.925 0-5.0328-0.57191-9.9512-0.91505-13.04-7.7779-2.5164-27.91-7.4347-55.933-3.0884v30.884c10.066 0.91505 18.759 1.487 25.965 1.487 16.586-0.11438 25.965-2.0589 30.197-3.317m13.955-13.497c0 18.873-3.0884 23.334-3.0884 23.334s-8.4642 7.0916-41.292 7.0916c-17.958 0-39.005-2.6308-39.005-2.6308v-86.015h13.154v28.939c7.7779-1.1438 15.327-1.6014 21.847-1.6014 30.312 0 45.066 8.4642 45.066 8.4642s3.3171 4.1178 3.3171 22.419m-97.11 0c0 18.873-3.0884 23.334-3.0884 23.334s-8.4642 7.0916-41.177 7.0916c-17.958 0-39.005-2.6308-39.005-2.6308v-86.015h13.154v28.939c7.7779-1.1438 15.327-1.6014 21.847-1.6014 30.312 0 45.066 8.4642 45.066 8.4642s3.2028 4.1178 3.2028 22.419m-97.91-17.043c-33.057 0.45753-50.9 5.719-57.304 8.0067v38.547h-13.383v-47.583s20.132-12.353 70.687-12.582z"/>
	</g>
</svg>
