<?xml version="1.0" encoding="UTF-8"?>
<svg width="800" height="366.26" version="1.0" xmlns="http://www.w3.org/2000/svg">
	<g fill="#e31818">
		<path d="m312.15 365.23h-17.844v-62.911h17.844z"/>
		<path d="m380.67 365.23h-14.184l-14.984-20.818c-0.68631-0.91507-1.6014-2.1733-2.5164-3.5459-0.91507-1.3726-1.9445-2.8596-2.8596-4.2322-0.91507-1.3726-1.8301-2.7452-2.6308-4.0034-0.80068-1.2582-1.3726-2.2877-1.8301-2.974 0.11439 0.6863 0.22877 1.7158 0.22877 2.974 0.11438 1.2582 0.11438 2.7452 0.22877 4.2322 0.11438 1.487 0.11438 3.0884 0.11438 4.6897v23.563h-16.7v-62.911h15.327l13.84 18.645c0.6863 0.91507 1.6014 2.1733 2.5164 3.5459 1.0295 1.487 1.9445 2.8596 2.8596 4.3466s1.8301 2.7452 2.6308 4.0034c0.80068 1.2582 1.3726 2.1733 1.7158 2.8596-0.11438-0.6863-0.22877-1.7158-0.22877-2.974-0.11438-1.2582-0.11438-2.7452-0.22876-4.2322-0.11439-1.487-0.11439-3.0884-0.11439-4.6897v-21.505h16.7v63.025z"/>
		<path d="m443.24 317.07h-32.485v8.6932h19.674v14.756h-19.674v24.592h-17.386v-62.911h49.871z"/>
		<path d="m506.15 333.66c0 5.2616-0.68631 9.837-2.1733 13.955-1.487 4.1178-3.4315 7.4349-6.0623 10.18-2.6308 2.7452-5.7192 4.8041-9.2651 6.2911s-7.5493 2.1733-11.782 2.1733c-4.2322 0-8.1212-0.6863-11.782-2.0589-3.5459-1.3726-6.6343-3.4315-9.1507-6.1767s-4.5754-6.0623-5.948-10.18c-1.487-4.0034-2.1733-8.6932-2.1733-13.84 0-5.2616 0.6863-9.837 2.1733-13.955 1.487-4.1178 3.4315-7.4349 6.0623-10.18s5.7192-4.8041 9.2651-6.2911 7.5493-2.1733 11.782-2.1733 8.1212 0.6863 11.782 2.0589c3.5459 1.3726 6.6343 3.4315 9.1507 6.1767s4.5754 6.0623 5.948 10.18c1.3726 4.1178 2.1733 8.5788 2.1733 13.84zm-18.073 0.11438c0-5.6048-1.0294-9.9514-2.974-12.925-1.9445-2.974-4.6897-4.461-8.1212-4.461s-6.1767 1.487-8.1212 4.3466-2.8596 7.2062-2.8596 12.811 1.0294 9.9514 2.974 12.925c1.9445 2.974 4.6897 4.461 8.2356 4.461 3.4315 0 6.1767-1.487 8.1212-4.3466 1.8301-2.8596 2.7452-7.2062 2.7452-12.811z"/>
		<path d="m570.32 365.23h-19.56l-10.295-21.275h-6.9774v21.275h-17.158v-62.911h28.138c7.3206 0 13.269 1.6014 17.729 4.6897 4.5754 3.0884 6.7486 8.35 6.7486 15.785 0 4.6897-1.0294 8.5788-3.0884 11.553-2.0589 2.974-4.8041 5.376-8.2356 6.863zm-18.645-42.093c0-1.9445-0.57192-3.5459-1.7158-4.8041-1.1438-1.2582-3.0884-1.9445-5.8336-1.9445h-10.523v13.726h10.295c2.8596 0 4.8041-0.57191 6.0623-1.8301 1.2582-1.2582 1.7158-2.8596 1.7158-5.1473z"/>
		<path d="m638.95 365.23h-18.873l-3.4315-11.095h-18.873l-3.4315 11.095h-18.759l22.877-62.911h17.615zm-26.537-24.936-1.1438-4.1178c-1.1438-4.0034-1.9445-7.0918-2.5164-9.2651s-1.0295-4.3466-1.487-6.4055c-0.45754 2.0589-0.91507 4.2322-1.487 6.5199-0.57192 2.1733-1.487 5.2617-2.5164 9.2651l-1.1438 4.1178h10.295z"/>
		<path d="m702.32 333.31c0 5.8336-0.6863 10.866-2.1733 14.87-1.487 4.1178-3.6603 7.3206-6.4055 9.837-2.8596 2.5164-6.4055 4.2322-10.638 5.376s-9.1507 1.7158-14.756 1.7158h-20.475v-62.911h22.076c4.9185 0 9.3795 0.45753 13.383 1.487 4.0034 1.0294 7.4349 2.7452 10.18 5.1473 2.7452 2.402 4.9185 5.6048 6.5199 9.6082 1.6014 4.1178 2.2877 9.0363 2.2877 14.87zm-17.844 0.34315c0-5.7192-1.0294-9.9514-3.2027-12.582-2.1733-2.6308-5.948-3.889-11.324-3.889h-4.3466v33.057h3.7747c5.376 0 9.2651-1.2582 11.553-3.6603 2.4021-2.4021 3.5459-6.7486 3.5459-12.925z"/>
		<path d="m731.14 365.23h-17.844v-62.911h17.844z"/>
		<path d="m800 333.66c0 5.2616-0.6863 9.837-2.1733 13.955-1.487 4.1178-3.4315 7.4349-6.0623 10.18s-5.7192 4.8041-9.2651 6.2911-7.5493 2.1733-11.782 2.1733-8.1212-0.6863-11.782-2.0589c-3.5459-1.3726-6.6343-3.4315-9.1507-6.1767s-4.5754-6.0623-5.948-10.18c-1.487-4.0034-2.1733-8.6932-2.1733-13.84 0-5.2616 0.68631-9.837 2.1733-13.955 1.487-4.1178 3.4315-7.4349 6.0623-10.18 2.6308-2.7452 5.7192-4.8041 9.2651-6.2911s7.5493-2.1733 11.782-2.1733c4.2322 0 8.1212 0.6863 11.782 2.0589 3.5459 1.3726 6.6343 3.4315 9.1507 6.1767s4.5754 6.0623 5.948 10.18c1.487 3.889 2.1733 8.5788 2.1733 13.84zm-18.073 0.11438c0-5.6048-1.0295-9.9514-2.974-12.925-1.9445-2.974-4.6897-4.461-8.1212-4.461s-6.1767 1.487-8.1212 4.3466-2.8596 7.2062-2.8596 12.811 1.0294 9.9514 2.974 12.925c1.9445 2.974 4.6897 4.461 8.2356 4.461 3.4315 0 6.1767-1.487 8.1212-4.3466 1.8301-2.8596 2.7452-7.2062 2.7452-12.811z"/>
		<path d="m389.59 0h410.41v259.54h-465.54z"/>
	</g>
	<path d="m561.4 203.6h-118.73c1.2582-48.956 24.249-72.634 60.623-88.876 15.327-6.863 17.615-9.1507 17.615-14.984 0-6.4055-4.5754-9.9514-16.242-9.9514-14.527 0-28.596 5.0329-43.237 14.756l-18.53-29.74c18.53-11.782 37.403-18.873 62.339-18.873 36.145 0 55.019 14.527 55.019 40.949 0 19.102-6.6342 30.769-34.43 43.58-29.053 13.497-37.175 21.619-40.263 30.312h75.836z" fill="#fff"/>
	<path d="m714.9 178.67h-18.645v24.936h-36.145v-25.965h-82.013v-29.511l78.238-89.906h39.92v86.36h18.645zm-54.218-79.725c-3.889 6.0623-7.8925 11.21-17.386 22.648l-2.0589 2.5164c-7.6637 9.3795-13.726 16.014-19.102 21.161 7.3206-0.45753 17.272-0.57192 27.223-0.57192h10.752v-14.298c0-8.5788 0.22877-24.592 0.57192-31.456z" fill="#fff"/>
	<path d="m360.54 50.443h-360.54v158.65h326.79z" fill="#e31818"/>
	<path d="m190.33 157.16c0.34315-2.974 0.80069-7.8925 0.80069-12.925 0-5.0329-0.57192-9.9514-0.91507-13.04-7.7781-2.5164-27.91-7.4349-55.934-3.0884v30.884c10.066 0.91507 18.759 1.487 26.08 1.487 16.357-0.11438 25.736-2.0589 29.969-3.3171m97.112 0c0.34315-2.974 0.68631-7.8925 0.68631-12.925 0-5.0329-0.57192-9.9514-0.91507-13.04-7.7781-2.5164-27.91-7.4349-55.934-3.0884v30.884c10.066 0.91507 18.759 1.487 25.965 1.487 16.586-0.11438 25.965-2.0589 30.197-3.3171m13.955-13.497c0 18.873-3.0884 23.334-3.0884 23.334s-8.4644 7.0918-41.293 7.0918c-17.958 0-39.005-2.6308-39.005-2.6308v-86.017h13.154v28.939c7.7781-1.1438 15.327-1.6014 21.847-1.6014 30.312 0 45.067 8.4644 45.067 8.4644s3.3171 4.1178 3.3171 22.419m-97.112 0c0 18.873-3.0884 23.334-3.0884 23.334s-8.4644 7.0918-41.178 7.0918c-17.958 0-39.005-2.6308-39.005-2.6308v-86.017h13.154v28.939c7.7781-1.1438 15.327-1.6014 21.847-1.6014 30.312 0 45.067 8.4644 45.067 8.4644s3.2027 4.1178 3.2027 22.419m-97.912-17.043c-33.057 0.45753-50.901 5.7192-57.306 8.0069v38.547h-13.383v-47.584s20.132-12.353 70.689-12.582z" fill="#fff"/>
</svg>
