<?xml version="1.0" encoding="UTF-8" standalone="no"?>
<!-- Created with Inkscape (http://www.inkscape.org/) -->
<svg
   xmlns:svg="http://www.w3.org/2000/svg"
   xmlns="http://www.w3.org/2000/svg"
   version="1.0"
   width="708.66144"
   height="115.9355"
   id="svg4339">
  <defs
     id="defs4341" />
  <g
     transform="translate(-118.18182,-377.50115)"
     id="layer1">
    <g
       id="g4360">
      <path
         d="M 242.5163,410.64701 L 242.5163,444.01788 C 242.5163,460.06585 236.44207,464.19034 226.16834,464.19034 C 215.89461,464.19034 209.82037,460.06585 209.82037,444.01788 L 209.82037,410.64701 L 194.22234,410.64701 L 194.22234,444.16782 C 194.22234,467.63989 204.42107,478.13862 226.09334,478.13862 L 226.16834,478.13862 C 247.9156,478.13862 258.11433,467.63989 258.11433,444.16782 L 258.11433,410.64701 L 242.5163,410.64701"
         style="fill:#b4195c;fill-rule:nonzero;stroke:none"
         id="path3756" />
      <path
         d="M 270.26281,395.42392 L 285.8609,395.42392 L 285.8609,476.63875 L 270.26281,476.63875 L 270.26281,395.42392 z "
         style="fill:#b4195c;fill-rule:nonzero;stroke:none"
         id="path3758" />
      <path
         d="M 618.51931,449.26718 C 618.51931,459.99085 613.56988,466.14008 604.87102,466.14008 C 596.32204,466.14008 591.29768,461.34072 591.29768,447.99237 L 591.29768,439.06845 C 591.29768,425.72017 596.32204,420.99574 604.87102,420.99574 C 613.56988,420.99574 618.51931,427.14498 618.51931,437.86864 L 618.51931,449.26718 z M 618.51931,388.67475 L 618.51931,416.72125 C 615.21969,411.92189 608.62052,408.99721 601.87135,408.99721 C 586.49831,408.99721 578.32433,419.046 578.32433,438.61852 L 578.32433,448.51731 C 578.32433,468.01483 586.49831,478.13862 601.87135,478.13862 C 608.62052,478.13862 615.21969,475.21394 618.51931,470.41457 L 618.51931,476.71375 L 631.41766,476.71375 L 631.41766,388.67475 L 618.51931,388.67475"
         style="fill:#483a2c;fill-rule:nonzero;stroke:none"
         id="path3760" />
      <path
         d="M 704.60856,447.99237 C 704.60856,461.34072 699.58414,466.14008 691.03522,466.14008 L 690.96022,466.14008 C 682.4113,466.14008 677.38693,461.34072 677.38693,447.99237 L 677.38693,439.06845 C 677.38693,425.72017 682.4113,420.99574 690.96022,420.99574 L 691.03522,420.99574 C 699.58414,420.99574 704.60856,425.72017 704.60856,439.06845 L 704.60856,447.99237 z M 694.03483,408.99721 L 687.9606,408.99721 C 672.58751,408.99721 664.41358,419.046 664.41358,438.61852 L 664.41358,448.51731 C 664.41358,468.01483 672.58751,478.13862 687.9606,478.13862 L 694.03483,478.13862 C 709.40793,478.13862 717.58191,468.01483 717.58191,448.51731 L 717.58191,438.61852 C 717.58191,419.046 709.40793,408.99721 694.03483,408.99721"
         style="fill:#483a2c;fill-rule:nonzero;stroke:none"
         id="path3762" />
      <path
         d="M 642.29132,400.44829 L 655.26473,400.44829 L 655.26473,388.67475 L 642.29132,388.67475 L 642.29132,400.44829 z M 642.29132,476.71375 L 655.26473,476.71375 L 655.26473,410.64701 L 642.29132,410.64701 L 642.29132,476.71375 z "
         style="fill:#483a2c;fill-rule:nonzero;stroke:none"
         id="path3764" />
      <path
         d="M 509.93285,410.57201 C 503.40868,410.57201 497.85938,413.79663 494.85976,418.22106 L 494.85976,410.64701 L 481.88635,410.64701 L 481.88635,476.63875 L 494.85976,476.63875 L 494.85976,440.26833 C 494.85976,429.01972 499.65913,423.32042 507.75811,423.32042 C 507.75811,423.32042 517.5819,423.32042 517.5819,423.32042 L 517.5819,410.57201 C 517.5819,410.57201 509.93285,410.57201 509.93285,410.57201"
         style="fill:#483a2c;fill-rule:nonzero;stroke:none"
         id="path3766" />
      <path
         d="M 557.32694,457.9661 C 554.25232,462.09059 548.25308,466.44008 541.27897,466.44008 C 532.72999,466.44008 528.6055,462.01559 528.6055,455.49142 C 528.6055,449.41718 533.85487,445.66763 542.17885,445.66763 C 549.22796,445.66763 553.80238,446.7925 557.32694,448.51731 L 557.32694,457.9661 z M 545.25347,410.64701 L 525.75588,410.64701 L 525.75588,423.39542 L 544.80353,423.39542 C 552.90251,423.39542 557.32694,427.36992 557.32694,434.56903 L 557.32694,436.96871 C 553.65239,435.31896 548.70302,434.41903 542.55378,434.41903 C 527.63063,434.41903 516.30709,441.0932 516.30709,455.86636 C 516.30709,472.06432 528.45556,478.13862 539.17923,478.13862 C 546.37834,478.13862 552.75251,474.689 557.32694,470.18957 L 557.32694,476.71375 L 570.00035,476.71375 L 570.00035,432.76928 C 570.00035,417.77112 559.95162,410.64701 545.25347,410.64701"
         style="fill:#483a2c;fill-rule:nonzero;stroke:none"
         id="path3768" />
      <path
         d="M 390.92273,410.64701 L 390.92273,444.01788 C 390.92273,460.06585 384.8485,464.19034 374.57477,464.19034 C 364.2261,464.19034 358.22681,460.06585 358.22681,444.01788 L 358.22681,410.64701 L 342.62878,410.64701 L 342.62878,444.16782 C 342.62878,467.63989 352.8275,478.13862 374.49977,478.13862 L 374.57477,478.13862 C 396.32204,478.13862 406.52076,467.63989 406.52076,444.16782 L 406.52076,410.64701 L 390.92273,410.64701 z M 313.00746,410.64701 L 313.00746,395.42392 L 297.40943,395.42392 L 297.40943,455.56642 C 297.40943,469.73964 304.75848,476.63875 318.48177,476.63875 L 332.43005,476.63875 L 332.43005,462.69053 L 318.48177,462.69053 C 314.58227,462.69053 313.00746,461.11572 313.00746,455.64142 L 313.00746,424.5203 L 332.43005,424.5203 L 332.43005,410.64701 L 313.00746,410.64701"
         style="fill:#b4195c;fill-rule:nonzero;stroke:none"
         id="path3770" />
      <path
         d="M 204.42107,493.43665 L 159.95161,428.19485 C 166.32584,427.29492 173.74989,426.39504 182.44881,425.87011 L 182.44881,410.64701 C 160.1766,411.84689 144.35358,415.14644 134.07985,418.14606 L 134.07985,388.37481 L 118.18182,388.37481 L 118.18182,476.63875 L 134.07985,476.63875 L 134.07985,434.04409 C 136.10459,433.36921 139.17921,432.46928 143.3037,431.41941 L 185.52342,493.43665 L 204.42107,493.43665"
         style="fill:#b4195c;fill-rule:nonzero;stroke:none"
         id="path3772" />
      <path
         d="M 430.96771,423.32042 L 448.89049,423.32042 C 457.36441,423.32042 459.38921,427.14498 459.38921,434.49403 C 459.38921,441.91813 457.21447,444.76775 448.89049,444.76775 L 430.96771,444.76775 L 430.96771,423.32042 z M 472.06262,436.59377 L 472.06262,431.64441 C 472.06262,417.39619 461.5639,410.64701 451.06523,410.64701 L 417.01949,410.64701 L 417.01949,476.63875 L 430.81777,476.63875 L 430.81777,456.91623 L 442.96625,456.91623 L 456.16459,476.63875 L 471.76262,476.63875 L 458.48928,456.54129 C 464.41358,455.19148 472.06262,448.89224 472.06262,436.59377"
         style="fill:#b4195c;fill-rule:nonzero;stroke:none"
         id="path3774" />
      <path
         d="M 782.82377,401.42316 C 782.82377,403.44791 782.67377,405.39771 782.52377,406.67252 C 780.72402,407.12246 776.74953,407.94739 769.77536,407.94739 C 766.70074,407.94739 763.10125,407.7224 758.82676,407.42246 L 758.82676,394.89899 C 770.67529,393.09924 779.14921,395.04898 782.44883,396.09886 C 782.59877,397.29867 782.82377,399.32341 782.82377,401.42316 z M 788.37307,401.12322 C 788.37307,393.69917 787.02326,392.04937 787.02326,392.04937 C 787.02326,392.04937 780.79902,388.59981 768.05061,388.59981 C 765.27593,388.59981 762.05137,388.82475 758.82676,389.27469 L 758.82676,377.50115 L 753.27746,377.50115 L 753.27746,412.44682 C 753.27746,412.44682 762.12631,413.49669 769.70042,413.49669 C 783.49864,413.49669 787.0982,410.64701 787.0982,410.64701 C 787.0982,410.64701 788.37307,408.84727 788.37307,401.12322"
         style="fill:#483a2c;fill-rule:nonzero;stroke:none"
         id="path3776" />
      <path
         d="M 821.21894,401.42316 C 821.21894,403.44791 821.069,405.39771 820.919,406.67252 C 819.19419,407.12246 815.2197,407.94739 808.24559,407.94739 C 805.17097,407.94739 801.49642,407.7224 797.29693,407.42246 L 797.29693,394.89899 C 809.07046,393.09924 817.54444,395.04898 820.844,396.09886 C 820.994,397.29867 821.21894,399.32341 821.21894,401.42316 z M 826.84324,401.12322 C 826.84324,393.69917 825.49343,392.04937 825.49343,392.04937 C 825.49343,392.04937 819.19419,388.59981 806.52078,388.59981 C 803.74616,388.59981 800.52154,388.82475 797.29693,389.27469 L 797.29693,377.50115 L 791.74763,377.50115 L 791.74763,412.44682 C 791.74763,412.44682 800.59654,413.49669 808.17059,413.49669 C 821.96887,413.49669 825.49343,410.64701 825.49343,410.64701 C 825.49343,410.64701 826.84324,408.84727 826.84324,401.12322"
         style="fill:#483a2c;fill-rule:nonzero;stroke:none"
         id="path3778" />
      <path
         d="M 749.6029,388.67475 C 728.30557,388.82475 719.83165,393.84911 719.83165,393.84911 L 719.83165,413.1217 L 725.53089,413.1217 L 725.53089,397.44867 C 728.15557,396.62379 735.72962,394.44905 749.6029,394.22405 L 749.6029,388.67475"
         style="fill:#483a2c;fill-rule:nonzero;stroke:none"
         id="path3780" />
    </g>
  </g>
</svg>
