<svg xmlns="http://www.w3.org/2000/svg" width="800" height="211.876"><path fill="#fff" d="M523.261 79.692v79.119h34.622V59.92l-34.622 19.772m92.544 3.269c-12.608 0-13.156 7.496-13.156 28.163 0 20.475.548 27.977 13.156 27.977s13.334-7.501 13.334-27.977c0-20.666-.725-28.163-13.334-28.163zm0 78.444c-42.555 0-48.048-21.947-48.048-50.282 0-28.529 5.493-50.469 48.048-50.469s48.212 21.941 48.212 50.469c.001 28.336-5.658 50.282-48.212 50.282M312.243 85.359s-2.264.161-3.853.161c-10.043 0-19.167 1.286-19.167 1.286v69.479 2.745h-34.53v-2.745-81.555c0-6.586 6.386-8.413 17.899-10.608 8.952-1.826 21.002-3.105 32.516-3.105h3.283l3.753.051.083 4.149v15.91l.017 4.232M464.495 139.1c-12.593 0-13.146-7.501-13.146-27.977 0-20.666.553-28.163 13.146-28.163 12.599 0 13.336 7.496 13.336 28.163 0 20.476-.737 27.977-13.336 27.977zm48.222-27.976c0-28.529-5.652-50.469-48.222-50.469-42.553 0-48.034 21.941-48.034 50.469 0 28.335 5.482 50.282 48.034 50.282 5.177 0 9.791-.335 13.925-.944-.055 6.299-2.608 10.627-8.752 12.794-3.841 1.463-9.323 2.196-16.447 2.196-10.96 0-21.365-3.475-24.293-4.197l-2.687-.756-4.633 19.143s1.663.984 2.93 1.356c5.121 2.184 17.722 6.398 34.897 6.398 31.316 0 48.502-9.064 52.198-36.982 0 .005.61-27.097.952-42.655.096-2.168.133-4.39.133-6.637m-105.583 17.569l-.934.521s-22.297 10.782-33.259 10.782c-7.127 0-12.275-1.157-16.115-2.621-6.205-2.201-8.743-6.681-8.743-13.088 0 0 0-27.978.552-31.64.913-6.402 4.015-10.052 13.872-10.052 6.586 0 10.784 2.74 12.249 11.152.201 1.415.393 2.124.536 3.625l-8.536 4.84c-6.742 4.019-7.612 4.968-7.631 12.652l-.005.038-.041 14.821 49.543-26.634c-.181-8.128-.974-11.998-2.757-17.862l.017-.011c-.084-.318-.195-.617-.295-.914-.063-.179-.114-.357-.171-.536-1.672-4.885-4.037-8.998-7.289-12.326-7.124-7.32-18.813-10.785-36.337-10.785-35.08 0-47.682 13.158-47.682 51.201 0 37.854 17.348 49.551 52.961 49.551 15.251 0 32.977-7.946 40.144-11.512l-.079-21.202M531.857 26.601a8.71 8.71 0 0 0-8.596 8.469V67.29l34.33-19.603V26.576l-25.734.025M800 29.473a2.6 2.6 0 0 0-2.544-2.602v-.002h-.03l-.03-.002-.02.002-3.036.014-17.286.128c-2.132.017-4.264 1.736-4.727 3.819l-13.294 59.235-13.736-58.59c-.613-2.598-3.299-4.717-5.963-4.706l-19.759.084h-60.689c-2.133 0-3.88 1.746-3.88 3.882V41.1c0 2.136 1.746 3.885 3.88 3.885h17.434c2.133 0 3.879 1.746 3.879 3.882v55.036c0 2.135 1.746 3.882 3.882 3.882h18.481c2.132 0 3.881-1.748 3.881-3.882V48.869a3.89 3.89 0 0 1 3.881-3.882h11.645l17.537 58.147c.765 2.556 3.58 4.648 6.244 4.651l7.693.001v.002h2.242l.805-.002 2.001.002v-.003l3.318-.012 12.148-.047c2.141-.008 4.363-1.695 4.947-3.75l20.102-70.673.895-3.131v-.004c.062-.224.102-.452.102-.694"/><path fill="#f47116" d="M138.674 26.484L92.451 52.969l46.224 26.484 46.224-26.484z"/><path fill="#2f3192" d="M138.674 79.453l-46.224 26.484 46.224 26.484 46.224-26.484z"/><path d="M138.674 132.422L92.45 158.906l46.224 26.484 46.224-26.484zM46.226 79.453l46.225-26.484-46.225-26.484L0 52.969z" fill="#f89a0f"/><path fill="#f9af0e" d="M92.451 52.969l46.224-26.484L92.451 0 46.226 26.484z"/><path fill="#2d3494" d="M46.226 132.422l46.225-26.484-46.225-26.484L0 105.938z"/><path fill="#333b9a" d="M92.451 52.969L46.226 79.453l46.225 26.484z"/><path fill="#f9af0e" d="M184.899 105.938l-46.224 26.484 46.224 26.484z"/><path fill="#5162b7" d="M184.899 52.969l-46.224 26.484 46.224 26.484z"/><path fill="#f89a0f" d="M184.899 52.969V0l-46.224 26.484z"/><path fill="#5d86cd" d="M0 158.906l46.226-26.484L0 105.938z"/><path fill="#3f51ab" d="M0 105.938l46.226-26.484L0 52.969z"/><path fill="#fdda04" d="M0 52.969l46.226-26.484L0 0z"/><path fill="#2b3693" d="M92.451 52.969v52.969l46.224-26.484z"/><path fill="#242872" d="M92.451 105.938l-46.225 26.484 46.225 26.484z"/><path fill="#18182e" d="M92.451 105.938v52.968l46.224-26.484z"/><path fill="#f47116" d="M92.451 158.906l-46.225-26.484L0 158.906l46.226 26.484z"/><path fill="#f9af0e" d="M92.451 158.906L46.226 185.39l46.225 26.485 46.224-26.485z"/></svg>