<svg xmlns="http://www.w3.org/2000/svg" height="306.31" width="600" viewBox="0 0 158.75 81.044" xmlns:v="https://vecta.io/nano"><g fill="#e5007c"><path d="M51.6 53.196c0 .455-.368.816-.816.816H28.992a.81.81 0 0 1-.816-.816V32.57a.81.81 0 0 1 .816-.816h21.803c.448 0 .816.36.816.816zM23.435 80.223c0 .454-.367.815-.815.815H.82a.81.81 0 0 1-.82-.815V59.596a.81.81 0 0 1 .82-.816h21.8c.448 0 .815.36.815.816zm-11.07-48.476c-.034 0-.067.006-.1.006h.2c-.033 0-.067-.006-.1-.006"/><path d="M22.72 31.752H12.262C5.535 31.805.1 37.275.1 44.014v9.18c0 .455.37.822.82.822h21.8c.454 0 .815-.367.815-.822V32.568c0-.448-.36-.816-.815-.816M29 58.776a.82.82 0 0 0-.815.815v20.626a.82.82 0 0 0 .815.824l10.458-.005c-.02 0-.038.003-.057.005h.056a12.27 12.27 0 0 0 12.162-12.263V59.6c0-.447-.36-.815-.816-.815H32.26zM39.4 81.04h-.1l.046.003.043-.003zm-8.355-19.404h17.712v7.14c0 5.14-4.18 9.354-9.3 9.394h-8.4V63.737z"/></g><path d="M112.382.001c-4.904.026-8.72.652-8.72.652-9.267 1.84-11.52 5.175-11.52 5.175-3.4 3.6-2.768 12.035-2.768 12.035-19.302.434-26.376 5.155-26.376 5.155v32.32s10.617.58 14.67-.542V27.745s4.38-2.848 11.694-2.848v30.588s14.623 1.224 14.67-1.243V24.85h11.265s-3.303 3.263-3.303 12.764c0 0-.515 7.4 3.5 12.943 0 0 2.748 3.404 7.823 4.474 0 0 6.987.755 11.553.755 0 0 6.005.268 10.76-.85 0 0 6.846-1.952 10.01-6.238 0 0 3.12-4.098 3.12-12.202 0 0 .235-8.525-3.302-13.132 0 0-3.364-4.767-12.397-5.576h-39.1V12.42c.208-5.055 6.693-5.416 6.693-5.416 5.115-.51 11.862.562 11.862.562 2.246.407 2.507-2.5 2.507-2.5.816-3.122-.495-3.464-.495-3.464-3.847-1.28-8.32-1.622-12.133-1.6zM133.14 23.2h4.673s4.968.153 4.968 12.55c0 0 .67 14.696-4.453 14.696h-5.696c-5.12 0-4.46-14.696-4.46-14.696 0-12.396 4.967-12.55 4.967-12.55z" fill="#fff"/></svg>