<?xml version="1.0" encoding="UTF-8"?>
<svg width="800" height="129.52" version="1.0" xmlns="http://www.w3.org/2000/svg">
	<path d="m14.072 22.51c-0.47226 0.1889 25.407-26.824 69.894-21.913 47.225 5.1948 69.705 47.698 69.705 47.698l-22.763 34.38s-24.935-27.863-57.898-47.037c-18.229-10.673-44.392-19.362-58.937-13.129z" fill="#fff"/>
	<g fill="#ccc">
		<path d="m8.4996 46.878c-5.856-30.98 26.824-21.535 31.736-19.835-24.368 7.8394-31.641 20.59-31.736 19.835z"/>
		<path d="m139.6 106.38c0.47226-0.1889-25.407 26.824-69.894 21.913-47.226-5.1004-69.705-47.698-69.705-47.698l22.763-34.38s24.935 27.863 57.898 47.037c18.229 10.579 44.392 19.362 58.937 13.129z"/>
		<path d="m145.17 82.297c5.856 30.98-26.824 21.535-31.736 19.835 24.368-7.745 31.641-20.496 31.736-19.835z"/>
		<path d="m215.73 72.569-0.66115 13.79c-10.012-2.0779-15.112 4.4392-15.112 19.551v22.196h-13.979v-54.309h13.223c0 1.4168-0.0944 3.1169-0.28336 5.1004-0.1889 1.9835-0.3778 3.8725-0.7556 5.856h0.1889c1.3223-3.5891 3.3058-6.5171 6.1393-8.9728 2.8335-2.3613 6.5171-3.4947 11.24-3.2113z"/>
		<path d="m275.32 128.39h-13.884v-34.758c0-2.8335-0.37781-5.1004-1.4168-6.706-0.94451-1.6057-2.7391-2.3613-5.2892-2.4557-3.5891 0.1889-6.6116 1.889-8.9728 5.1948-2.3613 3.3058-3.5891 7.4616-3.6836 12.373v26.352h-13.979v-79.811h13.979v23.329c0 1.7001-0.0944 3.5891-0.1889 5.5726-0.1889 1.9835-0.3778 3.8725-0.75561 5.4782l0.1889 0.09445c1.6057-3.1169 3.8725-5.5726 6.9894-7.3672 3.0224-1.7946 6.6116-2.7391 10.862-2.8335 6.0449 0.09445 10.295 1.7946 12.656 5.1004 2.4557 3.3058 3.5891 7.3672 3.4947 12.279z"/>
		<path d="m335.02 97.126c0 1.889-0.0944 3.9669-0.47226 6.3282h-33.719c-0.0944 10.106 4.9114 15.112 15.018 15.112 2.7391 0 5.4782-0.28335 8.2172-0.85005 2.7391-0.5667 5.2893-1.4168 7.6505-2.5502l1.3223 10.862c-2.928 1.1334-6.0449 1.9835-9.3506 2.6446-3.3058 0.5667-6.706 0.85006-10.106 0.85006-8.6895 0-15.301-2.1724-19.929-6.706-4.6281-4.5336-6.8949-11.523-6.9894-21.063 0-5.5726 1.039-10.579 3.0224-14.829 1.9835-4.3447 4.817-7.745 8.6895-10.201 3.778-2.4557 8.4061-3.778 13.884-3.778 5.2892 0.09445 9.634 1.1334 12.94 3.3058 3.4002 2.1724 5.856 5.1004 7.4616 8.6895 1.6057 3.5891 2.4557 7.6505 2.3613 12.184zm-13.884-3.1169c0.0944-3.4002-0.75561-6.0449-2.3613-7.9339-1.7001-1.889-3.967-2.8335-6.9894-2.8335-2.928 0-5.2892 1.039-7.1783 2.928-1.8891 1.889-3.0224 4.5336-3.4002 7.8394z"/>
		<path d="m363.54 58.495c-0.0944 2.3613-0.94451 4.4392-2.5502 6.0449-1.6057 1.6057-3.6836 2.4557-6.1393 2.4557-2.4557-0.09445-4.5336-0.85006-6.1393-2.4557-1.6057-1.6057-2.4557-3.5891-2.5502-6.0449 0.0944-2.3613 0.85005-4.3447 2.5502-5.9504 1.6057-1.6057 3.6836-2.4557 6.1393-2.4557 2.4557 0.09445 4.5336 0.85006 6.1393 2.4557 1.6057 1.6057 2.5502 3.5891 2.5502 5.9504zm-1.7001 69.894h-13.979v-54.309h13.979z"/>
		<path d="m423.99 128.39h-13.884v-34.758c0-2.8335-0.47226-5.1004-1.4168-6.706-0.94454-1.6056-2.7391-2.3613-5.2892-2.4557-3.6836 0.1889-6.6116 1.889-8.9728 5.1948-2.3613 3.3058-3.5891 7.4616-3.6836 12.373v26.352h-13.979v-54.309h13.223c0 1.3223-0.0944 2.928-0.18889 4.7226-0.0944 1.7946-0.28335 3.4947-0.5667 4.9115l0.0944 0.09445c1.7001-3.3058 4.0614-5.9504 7.1783-7.9339s6.8949-3.0224 11.334-3.0224c6.0449 0.09445 10.295 1.7946 12.656 5.1004 2.4557 3.3058 3.5891 7.3672 3.4947 12.279v38.158z"/>
	</g>
	<g fill="#fff">
		<path d="m518.72 128.39h-13.979v-34.475c0.0945-2.928-0.3778-5.1948-1.3223-6.8949-0.9445-1.7001-2.6446-2.4557-5.1948-2.5502-3.2113 0.09445-6.0449 1.7001-8.5006 4.9115-2.4557 3.2113-3.778 7.4616-3.9669 12.94v26.068h-13.79v-34.475c0.0945-2.7391-0.3778-5.0059-1.2279-6.706-0.8501-1.7001-2.6446-2.6446-5.1948-2.7391-3.3058 0.09445-6.2338 1.7946-8.6895 5.1004s-3.6836 7.5561-3.778 12.751v26.068h-13.979v-54.309h13.223c0 1.3223-0.0945 2.8335-0.18891 4.6281-0.0944 1.7946-0.28335 3.4947-0.5667 5.1004h0.1889c1.7001-3.4002 4.0614-6.0449 7.1783-7.9339 3.1169-1.9835 6.706-2.928 10.767-2.928 4.7226 0.09445 8.3117 1.3223 10.579 3.4947 2.3613 2.1724 3.778 4.7226 4.3448 7.4616 1.2279-2.8335 3.4002-5.2893 6.3282-7.4616s6.8005-3.3058 11.334-3.4947c5.2892 0 9.2562 1.5112 12.09 4.4392 2.7391 3.0224 4.1558 7.5561 4.2503 13.695v37.308z"/>
		<path d="m576.25 128.39h-13.223c0-3.2113 0.1889-6.3282 0.56671-9.1617l-0.0945-0.0944c-1.3223 3.1169-3.5891 5.5726-6.6116 7.4616-3.0224 1.889-6.6116 2.8335-10.767 2.928-4.9114-0.0944-8.7839-1.3223-11.429-3.8725-2.6446-2.5502-4.0614-6.0449-4.0614-10.484 0-4.3447 1.4168-8.0283 4.0614-10.956 2.6446-2.9277 6.3282-5.1948 11.051-6.706s10.106-2.2668 16.34-2.2668v-2.928c0.0945-2.8335-0.75561-5.0059-2.3613-6.4227-1.6057-1.4168-4.3448-2.1724-8.2172-2.1724-2.5502 0-5.2893 0.3778-8.1228 1.1334-2.928 0.75561-5.5726 1.7946-7.9339 3.1169l-1.2279-11.712c2.7391-1.039 5.856-1.7946 9.1617-2.4557 3.3058-0.66116 6.8005-0.94451 10.295-0.94451 5.7615 0 10.295 0.75561 13.601 2.2668 3.3058 1.5112 5.5726 3.6836 6.8949 6.5171 1.3223 2.8335 1.9835 6.2338 1.889 10.201v22.668c0 2.2668 0 4.5336 0.0944 6.9894-0.0944 2.2668 0 4.6281 0.0945 6.8949zm-14.357-22.763v-1.3223c-4.9114 0-8.595 0.47225-11.24 1.2279-2.6446 0.85006-4.4392 1.889-5.3837 3.2113-0.9445 1.3223-1.4168 2.7391-1.4168 4.1558 0 1.7946 0.5667 3.2113 1.7001 4.2503 1.1334 1.039 2.7391 1.6057 4.7226 1.6057 3.4947-0.0945 6.3282-1.5112 8.4061-4.0614 2.0779-2.6446 3.2113-5.5726 3.2113-9.0673z"/>
		<path d="m606.94 58.495c-0.0944 2.3613-0.94451 4.4392-2.5502 6.0449s-3.6836 2.4557-6.1393 2.4557c-2.4557-0.09445-4.5336-0.85006-6.1393-2.4557-1.6057-1.6056-2.4557-3.5891-2.5502-6.0449 0.0945-2.3613 0.9445-4.3447 2.5502-5.9504 1.6057-1.6057 3.6836-2.4557 6.1393-2.4557 2.4557 0.09445 4.5336 0.85006 6.1393 2.4557s2.4557 3.5891 2.5502 5.9504zm-1.7946 69.894h-13.979v-54.309h13.979z"/>
		<path d="m667.39 128.39h-13.884v-34.758c0-2.8335-0.3778-5.1004-1.4168-6.706-0.9445-1.6057-2.7391-2.3613-5.2893-2.4557-3.5891 0.1889-6.6116 1.889-8.9728 5.1948-2.3613 3.3058-3.5891 7.4616-3.6836 12.373v26.352h-13.979v-54.309h13.223c0 1.3223-0.0944 2.928-0.1889 4.7226-0.0944 1.7946-0.28336 3.4947-0.56671 4.9115l0.0944 0.09445c1.6057-3.3058 4.0614-5.9504 7.1783-7.9339s6.8949-3.0224 11.334-3.0224c6.0449 0.09445 10.295 1.7946 12.656 5.1004 2.4557 3.3058 3.5891 7.3672 3.4947 12.279v38.158z"/>
	</g>
	<path d="m731.05 73.985-1.9835 8.1228h-19.551l-8.0283 32.208c-0.5667 2.1724-0.5667 3.6836 0 4.4392 0.56671 0.75561 1.7946 1.1334 3.5891 1.039h8.2172c2.8335 0 5.3837-0.0944 7.4616-0.3778 2.0779-0.28335 3.4947-0.56671 4.1558-0.94451l-4.3447 9.8229h-29.658c-4.0614 0-6.9894-1.2279-8.6895-3.6836-1.7001-2.4557-1.889-6.4227-0.66115-11.712l7.745-30.885h-10.484l1.9835-8.1228h10.484l2.7391-11.145 20.779-2.6446-3.4002 13.79h19.646z" fill="#ccc"/>
	<path d="m759.39 128.39h-20.118l-3.9669-17.379c-0.85005-3.5891-1.7001-7.4616-2.6446-11.523-0.94451-4.0614-1.889-8.0283-2.8335-11.712-0.9445-3.6837-1.7946-6.8005-2.5502-9.3506-0.7556-2.5501-1.4168-3.9669-1.889-4.4392h24.746c-0.0944 0.28335-0.28335 0.85006-0.47225 1.6057-0.18891 0.75561-0.28336 1.7946-0.0945 3.1169 0.18891 1.3223 0.56671 3.4002 1.1334 6.2338 0.66115 2.8335 1.5112 6.8005 2.7391 11.995 1.2279 5.1948 2.7391 12.09 4.7226 20.496 8.595-12.09 15.584-21.724 20.874-28.808 5.2892-7.1783 8.0283-11.429 8.4061-12.845 0.1889-0.66116 0.1889-1.3223 0.1889-1.889h12.373c-1.039 0.75561-2.1724 1.9835-3.4947 3.4947-1.3223 1.5112-3.2113 3.9669-5.5726 7.3672z" fill="#ccc"/>
</svg>
