<svg xmlns="http://www.w3.org/2000/svg" width="292" height="381" viewBox="0 0 77.155 100.782" stroke-width=".254" stroke="#000"><path d="M38.853.128c-2.38-.02-4.743.28-6.645.905-1.843.606-4.767 2.038-6.412 3.14C19.16 8.623 13.632 15.42 9.038 24.777 2.26 38.58-.888 54.234.416 67.638.6 69.43 1.5 73.256 2.237 75.218c3.196 8.615 9.026 15.63 16.825 20.246 4.57 2.705 10.01 4.536 14.576 4.906 1.057.086 1.992.18 2.076.214v-.002c.337.13 4.88.077 6.69-.075 5.82-.492 12.67-2.95 17.685-6.348 7.9-5.36 13.583-13.43 15.904-22.625 1.678-6.645 1.29-17.415-.994-27.57-3.332-14.82-10.068-28.087-18.18-35.808-3.6-3.427-7.16-5.65-11.22-7.007C43.63.5 41.233.15 38.853.13zM18.446 47.17c1.154-.003 2.222.037 3.054.13 6.047.668 10.997 3.162 12.976 6.54.935 1.595 1.378 3.715 1.143 5.462-.285 2.1-1.604 3.865-4.243 5.644-.742.5-1.368 1.012-1.393 1.138-.062.32.44 1.026 3.427 4.825l2.66 3.455c.076.218-3.174.336-7.656.286l-4.227-.05-1.463-2.334c-.805-1.283-1.595-2.477-1.756-2.652-.38-.4-.812-.404-.945.017-.106.332.018 3.465.185 4.704l.083.646-1.132-.034-5.086-.075-3.953-.042-.075-.497c-.092-.58-.353-6.27-.53-11.57-.067-2.03-.092-6.132-.05-9.116.066-5.058.09-5.436.353-5.576.937-.502 5.17-.9 8.63-.898zm23.867 1.543c1.077-.018 2.04.34 2.8.943.01.008.02.017.03.025.058.047.115.095.17.146.023.02.044.043.067.065.01.008.017.017.026.025.062.06.122.12.18.185l.067.073.025.027a4.26 4.26 0 0 1 .164.203 4.42 4.42 0 0 1 .152.213l.001.001c.048.072.095.146.14.22.024.042.046.084.07.126.008.016.017.03.025.046.01.02.022.04.032.06l.001.001a4.37 4.37 0 0 1 .112.238c.01.024.018.047.028.07.006.016.013.032.02.048l.05.128a4.82 4.82 0 0 1 .062.191c.006.02.015.04.02.062v.001l.01.034.01.033c.032.115.06.23.082.35l.02.107v.002c.007.044.012.088.018.132.017.13.03.26.037.39l.002.02c.006.14.005.28-.002.42a4.5 4.5 0 0 1-.042.423v.001a4.81 4.81 0 0 1-.051.285V54a4.77 4.77 0 0 1-.069.286v.001c-.026.096-.056.19-.09.287-.036.106-.082.215-.138.325s-.12.223-.194.335-.153.226-.24.336a5.21 5.21 0 0 1-.276.326c-.097.106-.2.21-.304.307s-.213.2-.322.276a3.72 3.72 0 0 1-.664.425c-.503.244-1.423.366-2.256.344-.01 0-.02-.002-.03-.002-.49-.015-.946-.078-1.268-.196a3.76 3.76 0 0 1-1.012-.577c-.107-.084-.21-.173-.31-.268s-.197-.193-.29-.297c-.017-.02-.032-.04-.05-.06a5.02 5.02 0 0 1-.216-.265c-.027-.037-.05-.075-.075-.11-.054-.078-.1-.155-.16-.235a4.39 4.39 0 0 1-.2-.362v-.001c-.02-.04-.035-.078-.053-.116l-.064-.14c-.015-.035-.026-.068-.04-.102-.02-.053-.042-.106-.06-.16-.03-.087-.057-.174-.08-.26v-.001a4.26 4.26 0 0 1-.063-.261c-.003-.016-.005-.03-.008-.046a4.24 4.24 0 0 1-.066-.468l-.001-.01a4.19 4.19 0 0 1-.012-.259 3.58 3.58 0 0 1 .004-.259 4.38 4.38 0 0 1 .019-.256v-.001c.01-.085.02-.17.035-.252s.03-.167.05-.25a4.23 4.23 0 0 1 .143-.486 4.04 4.04 0 0 1 .093-.236c.033-.077.07-.153.106-.228a4.1 4.1 0 0 1 .12-.222c.042-.073.086-.145.132-.215s.095-.14.145-.206a4.21 4.21 0 0 1 .327-.388 4.28 4.28 0 0 1 .576-.506 4.29 4.29 0 0 1 .669-.402 4.4 4.4 0 0 1 .243-.108 4.36 4.36 0 0 1 .512-.173c.264-.072.54-.12.83-.143.1-.008.2-.013.297-.015zm22.77 3.054c-.006 0-.022.003-.035.005.012-.002.028-.005.035-.005zm.053.005zm-43.69 4.145c-1.23 0-1.386.033-1.73.377-.357.36-.378.47-.374 2.192.004 2.048.16 2.94.565 3.24.772.57 3.822-.938 4.412-2.18.368-.775.323-1.935-.1-2.568-.54-.81-1.198-1.06-2.772-1.06zm19.37 3.876c2.097.012 4.876.12 5.007.25.144.143-.1 14.383-.26 14.625-.056.086-.148.153-.207.136s-1.678-.072-3.6-.123-3.535-.138-3.594-.197c-.133-.133.195-14.367.336-14.596.047-.076 1.06-.103 2.317-.096zm.485 15.05l2.388.074-2.388-.074z" fill="#0065a4"/><path d="M18.356 47.018c-4.172-.004-8.715.51-8.947 1.242-.224.705-.132 14.898.132 20.344l.343 5.998.076.462 2.732.01.736-.016 1.224-.002 1.173.02c.08.002.136.006.213.01l4.41.014c.001-.004.001-.018.002-.023l-.1-.994c-.217-2.425-.262-4.255-.11-4.476.27-.396.6-.025 2.085 2.35.777 1.243 1.53 2.4 1.674 2.55.198.218.568.312 1.525.384 1.407.107 10.543-.133 10.69-.28s-.174-.596-2.968-4.16c-2.926-3.73-3.22-4.148-3.077-4.377.06-.09.63-.518 1.28-.954 3.987-2.68 5.23-5.786 3.898-9.734-1.315-3.894-5.72-6.838-11.98-8.008-1.303-.244-3.123-.352-5.02-.354zm46.727 4.75c-.42.017-3.308.772-4.687 1.225-2.172.714-5.552 2.435-7.126 3.627-2.79 2.114-4.268 4.536-4.944 8.1-.297 1.564-.298 3.95-.004 5.082.3 1.19.992 2.497 1.754 3.36 1.08 1.226 3.113 2.382 4.83 2.748 1.17.25 4.936.058 6.878-.355 2.204-.465 5.7-1.553 6.138-1.916l.313-.254c.001-.02.004-.04.004-.063 0-.006-.002-.02-.003-.026V73.296l-1-3.458c-.556-1.942-1.067-3.586-1.135-3.655s-.534.06-1.035.283c-2.82 1.26-5.247 1.728-6.416 1.24-.45-.19-.654-.407-.9-.962-1.094-2.473 1.626-5 7.52-6.986 1.468-.494 2.038-.755 2.038-.93 0-.282-1.608-6.008-1.865-6.64-.085-.208-.217-.38-.312-.416-.018-.002-.036-.004-.056-.005zM40.72 59.613c-1.286-.005-2.324.038-2.392.148-.16.258-.47 14.73-.32 14.88.06.06 1.544.153 3.292.202l2.384.074.31-.001H44.108l.585-.002.82-.003c.105-.03.187-.068.216-.113.068-.103.174-3.438.243-7.41.106-6.027.093-7.258-.084-7.433-.2-.2-3.026-.332-5.17-.34z" fill="#fff"/><path d="M21.333 56.07c-1.043 0-1.276.048-1.552.325-.308.305-.317.452-.266 2.432.047 1.712.11 2.188.337 2.535.248.382.342.416.834.324.698-.13 2.143-.855 2.785-1.395.665-.56.94-1.146.94-2.003 0-1.54-.94-2.217-3.078-2.217z" fill="#0065a4"/><path d="M42.312 48.714c1.077-.018 2.04.34 2.8.943l.2.17.067.065.026.025.18.185.067.073.025.027.164.203.152.213.14.222.07.126.025.046.032.06.112.24.047.118.05.128.062.19.02.062.01.035.01.033.082.35.02.107.018.134.037.39.002.023c.01.275-.003.556-.044.84l-.05.286-.07.287-.09.288c-.072.21-.186.436-.332.66-.29.45-.705.9-1.143 1.245a3.72 3.72 0 0 1-.664.425c-.503.244-1.423.366-2.256.344l-.03-.002c-.49-.015-.946-.078-1.268-.196-.348-.128-.692-.326-1.012-.577l-.31-.268-.29-.297-.05-.06-.216-.265-.075-.11-.16-.234-.2-.362-.053-.117-.064-.14-.1-.26-.08-.26-.063-.262-.008-.046a4.22 4.22 0 0 1-.066-.468l-.013-.27.004-.26.02-.256.035-.253.05-.25c.038-.165.086-.328.143-.486l.093-.236.106-.228.12-.222.132-.215.145-.206c.1-.136.2-.265.327-.388a4.28 4.28 0 0 1 1.245-.908l.243-.108a4.38 4.38 0 0 1 .512-.173c.264-.072.54-.12.83-.143l.297-.015z" fill="#f8e854"/></svg>