<?xml version="1.0" encoding="UTF-8"?>
<svg width="800" height="440.56" version="1.1" xml:space="preserve" xmlns="http://www.w3.org/2000/svg">
	<path d="m794.97 402.42v-364.22c-85.573-13.822-235.99-33.362-399.15-33.362-161.85 0-307.61 19.288-391.05 33.111v364.53c85.573 13.822 236.05 33.488 399.47 33.488 157.51-0.12559 305.79-19.728 390.73-33.551" fill="#004898"/>
	<path d="m257.16 267.27v22.116h31.664v71.06h24.566v-71.06h31.539v-22.116zm-177.12 0.0625-34.617 93.051h24.941l5.4658-15.017h38.516l5.5908 15.017h24.944l-34.617-93.051zm76.463 0v93.051h24.566v-54.473l4.7731 7.2886 37.76 47.184h21.238v-93.051h-24.566v55.918l-3.7706-5.7782-39.081-50.14zm297.12 0v93.051h24.566v-54.473l4.7757 7.2886 37.758 47.184h21.238v-93.051h-24.566v55.918l-3.7706-5.7782-39.081-50.14zm107.56 0v93.051h24.566v-54.473l4.7757 7.2886 37.758 47.184h21.238v-93.051h-24.566v55.918l-3.7706-5.7782-39.081-50.14zm-202.69 0.12759v92.986h78.096v-22.116h-53.593v-13.382h30.222v-22.116h-30.222v-13.257h53.593v-22.116zm309.49 0v92.986h78.161v-22.116h-53.595v-13.382h30.222v-22.116h-30.222v-13.257h53.595v-22.116zm-572.81 20.92 11.372 34.998h-22.871z" fill="#fff"/>
	<path d="m395.82 9.5488c-155 0-294.92 17.467-386.27 32.357v187.29h780.65v-186.98c-94.495-15.142-238.37-32.672-394.38-32.672z" fill="#e6001e"/>
	<path d="m404.24 440.56c-159.02 0-305.47-18.283-400.16-33.488l-4.0839-0.62829v-372.64l4.0839-0.69112c91.542-15.142 233.91-33.111 391.86-33.111 158.83 0 305.16 18.158 399.97 33.488l4.0839 0.62829v372.45l-4.0839 0.62829c-94.118 15.205-238.31 33.362-391.68 33.362zm-394.69-42.284c78.536 12.503 230.77 32.797 394.69 32.797 150.6 0 292.28-17.529 385.96-32.671v-356.18c-94.495-15.142-238.37-32.671-394.38-32.671-155 0-294.92 17.466-386.27 32.357z" fill="#fff"/>
	<path d="m335.26 55.856c-40.21 0-72.755 32.608-72.755 72.755 0 40.21 32.608 72.755 72.755 72.755 40.148 0 72.755-32.608 72.755-72.755 0-40.21-32.608-72.755-72.755-72.755zm154.87 5.7809c-38.074 0-67.792 29.843-67.792 66.975 0 37.006 29.718 66.975 67.792 66.975 19.288 0 36.63-8.0415 48.504-20.733l-25.069-22.303c-5.9059 6.5342-13.948 10.679-23.561 10.616-19.1 0-33.112-15.204-33.112-34.492s14.012-34.492 33.112-34.492c9.6128 0 17.467 4.0204 23.436 10.429l25.194-22.241c-11.875-12.691-29.216-20.733-48.504-20.733zm-359.51 2.7003v128.61h33.927v-48.002h29.969l15.707 48.002h36l-18.66-53.405c11.875-6.8483 18.85-19.79 18.975-34.492 0-22.053-15.455-40.713-39.896-40.713zm424.03 0v128.49h33.927v-54.6l45.549 54.725h43.729l-57.551-65.782 57.363-62.829h-43.729l-45.361 52.4v-52.4zm-390.11 30.534h40.966c5.8431 0 10.176 4.0846 10.176 10.179s-4.3961 9.6123-10.176 9.4238h-40.966z" fill="#fff"/>
	<path d="m403.74 92.673-50.514 6.7227-12.503-62.138-26.765 67.415-47.31 6.4085 34.807 32.357-33.928 76.211 66.913-52.776 42.724 18.472-10.43-42.347z" fill="#004898"/>
</svg>
