<?xml version="1.0" encoding="UTF-8"?>
<svg width="776.83" height="450" version="1.1" xmlns="http://www.w3.org/2000/svg">
	<g fill="#dc3773">
		<path d="m337.06 387.3c-1.1838 0-2.1374 0.95176-2.1374 2.1355v58.422c0 1.1838 0.95366 2.1374 2.1374 2.1374h106.37c1.1838 0 2.1355-0.95366 2.1355-2.1374v-58.422c0-1.1838-0.95177-2.1355-2.1355-2.1355zm12.923 7.5977c0.84978 0 1.5655 0.31265 2.1469 0.9388 0.62615 0.58143 0.9388 1.2971 0.9388 2.1469v17.847h25.427v-17.847c0-0.84979 0.2891-1.5655 0.87052-2.1469 0.58143-0.62615 1.2971-0.9388 2.1469-0.9388 0.84977 0 1.5655 0.31265 2.1469 0.9388 0.62615 0.58143 0.9407 1.2971 0.9407 2.1469v41.395c0 0.84977-0.31455 1.5655-0.9407 2.1469-0.58143 0.58143-1.2972 0.87053-2.1469 0.87053-0.84979 0-1.5655-0.2891-2.1469-0.87053-0.58142-0.58142-0.87052-1.2971-0.87052-2.1469v-17.847h-25.427v17.847c0 0.84977-0.31265 1.5655-0.9388 2.1469-0.58143 0.58143-1.2971 0.87053-2.1469 0.87053s-1.5655-0.2891-2.1469-0.87053c-0.58143-0.58142-0.87242-1.2971-0.87242-2.1469v-41.395c0-0.84979 0.29099-1.5655 0.87242-2.1469 0.58143-0.62615 1.2971-0.9388 2.1469-0.9388zm50.652 0.3357h13.485c5.0987 0 9.4146 1.1404 12.948 3.4214 3.578 2.2362 6.26 5.1443 8.049 8.7223 1.789 3.578 2.6836 7.3336 2.6836 11.269 0 3.9358-0.89464 7.6933-2.6836 11.271-1.789 3.578-4.471 6.5077-8.049 8.7887-3.5333 2.2362-7.8492 3.355-12.948 3.355h-13.485c-0.84977 0-1.5655-0.29101-2.1469-0.87243s-0.87242-1.2971-0.87242-2.1469v-40.723c0-0.84978 0.29099-1.5655 0.87242-2.1469 0.58143-0.62615 1.2972-0.93879 2.1469-0.93879zm3.0857 5.703v35.422h9.6611c3.6674 0 6.8863-0.73737 9.6592-2.2133 2.773-1.5206 4.9201-3.601 6.4408-6.2397 1.5206-2.6835 2.2816-5.7705 2.2816-9.2591 0-3.4886-0.76092-6.552-2.2816-9.1908-1.5207-2.6835-3.6678-4.7619-6.4408-6.2378-2.773-1.5206-5.9918-2.2816-9.6592-2.2816z"/>
		<path d="m328.31 0.0077381c-38.761 0.57366-72.525 33.007-61.83 84.246l-4e-3 -0.0038c6.8119 32.591 28.741 59.358 54.286 83.189 6.5575-17.569 14.142-37.582 20.944-55.052 7.0469-17.909 14.192-38.95 18.107-53.337-9.6405 2.9364-19.916 8.7601-29.312 16.639-6.2632 5.2844-10.914 12.136-12.724 18.791-0.44037 2.5936-2.2022 4.5495-4.4532 4.9899-2.8872 0.53806-5.7242-1.3703-6.2625-4.2085-0.0489-0.2447-0.14793-0.83217-0.14793-1.5173 0.0489-0.53796 1.3223-12.038 1.3712-12.821 0.48922-4.3064 1.0281-4.7458 4.2578-7.2904 10.277-8.1238 23.929-16.737 37.141-22.315 11.499-4.7949 25.298-8.8564 38.903-11.499 15.659-2.9361 35.331-5.529 49.032 1.3219 6.7045 3.3278 11.402 9.5903 12.87 17.175 1.7615 9.1511-1.32 19.378-8.9537 29.556-5.6767 7.5848-14.045 15.121-22.364 20.259-6.606 4.0124-14.778 7.7815-22.901 10.473 10.618 12.527 28.185 31.317 44.236 45.802 2.8869 2.6424 5.7757 5.0891 8.5649 7.389 27.503-24.957 51.773-52.994 58.966-87.542 15.556-74.526-62.932-109.27-114.07-64.055-2.3001 2.0553-4.5024 4.208-6.7044 6.6058-2.202-2.3977-4.4045-4.5505-6.7044-6.6058-15.979-14.131-34.63-20.452-52.249-20.191zm73.5 49.703c-2.1531 0.09788-5.4797 0.43959-7.7797 0.88001-3.8169 0.73402-6.3125 2.1523-7.6337 4.3545-8.0254 13.701-17.176 39.344-25.886 64.935-2.202 6.5574-4.5502 13.262-6.8011 19.77-4.2085 12.233-10.032 29.068-15.072 43.701 14.191 12.087 28.625 23.537 41.592 34.793 2.3978 2.0552 4.9425 4.3052 4.9425 4.3052 1.1744 1.0276 3.0828 1.0276 4.2085 0 0 0 2.5446-2.2501 4.9425-4.3052 11.352-9.8357 23.833-19.819 36.262-30.292-7.8786-6.3126-15.953-13.848-24.418-22.706h-2e-3c-7.1446-7.5358-15.951-17.714-23.732-26.766-4.1593-4.7957-8.1239-9.3472-11.452-13.164-1.3212-1.3212-2.2019-2.8392-2.4466-4.3071-0.63614-3.1318 1.5652-6.2131 4.8438-6.9471 1.3212-0.3915 2.8386-0.83261 4.5025-1.3219 3.1808-0.88083 6.7053-1.9087 9.7882-2.7406 16.002-4.6977 26.963-12.184 33.52-22.803 3.9637-6.5081 5.3332-14.436 3.8652-22.266-0.92974-4.6977-3.9632-9.2966-7.3397-11.205l-0.19535-0.09862c-4.0617-2.4957-9.9355-3.9627-15.709-3.8159z"/>
		<path d="m113.33 278.42 4e-3 2e-3c-21.883 0-36.771 17.371-36.771 37.188v0.19534c0 19.818 14.675 36.949 36.558 36.949 21.879 0 36.763-17.323 36.763-37.142v-0.24465c0-19.818-14.676-36.947-36.555-36.947zm362.5 0.0114c-21.188 0-36.408 16.833-36.408 37.19v0.19535c0 20.652 15.317 36.947 36.065 36.947 11.793 0 19.624-4.1102 26.719-10.57 0.734-0.58719 1.32-1.6158 1.32-2.8392 0-2.1042-1.8593-3.9145-3.9145-3.9145-1.0277 0-1.958 0.49043-2.5452 1.1266-6.1652 5.6274-12.429 8.7091-21.384 8.7091-15.806 0-27.844-13.066-27.844-29.655v-0.24466c0-16.491 11.94-29.458 27.844-29.458 8.8569 0 15.12 3.2772 20.65 8.2197 0.63613 0.39145 1.5657 0.93121 2.6912 0.93121 2.1532 0 4.0624-1.86 4.0624-4.0131 0-1.4191-0.78212-2.5452-1.614-3.2792-6.6546-5.5297-14.044-9.3463-25.642-9.3463zm-176.98 0.385-0.43811 4e-3c-2.5446 0-4.1122 1.3205-5.1397 3.6206l-29.164 63.761c-0.40125 0.83191-0.50449 1.5654-0.50449 2.1526 0 2.0552 1.6434 3.7192 3.6888 3.7192 1.8546 0 3.1867-1.0283 3.9012-2.7899l7.501-16.735h39.435l7.5351 16.54c0.6851 1.6148 2.0065 2.9852 3.9638 2.9852 2.1531 0 3.9145-1.7613 3.9145-3.9145 0-0.63613-0.19417-1.3219-0.53674-2.0559l-29.116-63.664c-0.92975-2.2999-2.5945-3.6225-5.0411-3.6225zm415.99 0.34139c-2.2999 0-4.1099 1.909-4.1099 4.0132 0 0.68507 0.0971 1.2221 0.3907 1.8093l27.747 64.007c0.78285 2.0553 2.349 3.3778 4.6978 3.3778h0.39258c2.3977 0 3.8155-1.3226 4.7452-3.3778l27.844-64.3c0.19562-0.53825 0.29397-1.0272 0.29397-1.6633 0-2.0551-1.7622-3.8652-4.0132-3.8652-1.8105 0-3.2772 1.4182-4.0112 2.8373l-24.91 59.797-24.858-59.554c-0.7342-1.7617-2.2022-3.0819-4.2085-3.0819zm-303.39 8e-3c-2.2509 0-4.0131 1.8111-4.0131 4.0132v54.217l-43.648-55.686c-1.1255-1.4191-2.2522-2.3498-4.1118-2.3498h-1.1247c-2.153 0-4.0132 1.8107-4.0132 3.9638v64.741c0 2.153 1.7614 4.0132 3.9145 4.0132 2.2509 0 4.0131-1.8601 4.0131-4.0132v-55.687l44.53 57.007c1.2723 1.4192 2.4961 2.4959 4.2578 2.4959h0.39069c2.153 0 3.7192-1.6628 3.7192-3.8159v-64.887c0-2.2019-1.7614-4.0131-3.9145-4.0131zm-233.6 0.19535c-2.1481 0-4.0074 1.8107-4.0074 3.9638l2e-3 64.74c0 2.2509 1.7511 4.0132 3.8994 4.0132 2.2558 0 4.0075-1.7622 4.0075-4.0132v-53.629l22.892 33.715c0.92976 1.3212 2.0691 2.054 3.503 2.054 1.4338-1e-5 2.4681-0.73279 3.393-2.054l22.998-33.814v53.631c0 2.1532 1.8558 4.1099 4.1118 4.1099 2.1531 0 4.0074-1.8589 4.0074-4.1099v-64.643c0-2.1531-1.8544-3.9638-4.0074-3.9638h-0.92553c-1.6444 0-2.9748 0.78436-3.7969 2.1545l-25.678 38.608-25.676-38.609c-0.82199-1.2234-2.0462-2.1545-3.7932-2.1545zm351.8 0.28828c-2.1531-1e-5 -3.9638 1.8589-3.9638 4.1099v63.713h2e-3c0 2.2511 1.8107 4.0606 3.9638 4.0606h45.216c2.1042 0 3.7679-1.7121 3.6699-3.8652-0.0977-2.0064-1.8588-3.5238-3.8652-3.5238h-40.911v-25.153h35.722c1.3213 0 2.6438-0.63495 3.3778-1.8093 1.5659-2.4957-0.4417-5.5797-3.1331-5.5797h-35.967v-24.564h40.566c2.1041 0 3.8172-1.714 3.7192-3.8671-0.098-2.0063-1.9082-3.5219-3.9145-3.5219zm-498.73 4e-3 -26.897 2e-3c-2.1482-7.5e-4 -4.0037 1.8582-4.0037 4.1091v64.201c0 2.251 1.8553 4.1099 4.0037 4.1099 2.2559 0 4.1099-1.8589 4.1099-4.1099v-24.369h20.64l20.24 26.277c0.92486 1.2723 2.1472 2.2019 3.7912 2.2019 2.0454 0 4.1118-1.8582 4.1118-4.0112 0-1.1255-0.50546-2.0554-1.3276-2.9852l-17.881-23c11.196-2.1531 19.207-9.0538 19.207-20.847v-0.24466c0-5.6274-2.0643-10.666-5.5437-14.141-4.5362-4.5021-11.617-7.1937-20.451-7.1937zm607.87 2e-3c-2.0553 0-3.7685 1.7607-3.7685 3.8159 0 2.0552 1.7133 3.6699 3.7685 3.6699h20.845v60.825c0 2.251 1.8608 4.1099 4.1118 4.1099s4.1099-1.8589 4.1099-4.1099v-60.825h20.847c2.0552 0 3.8159-1.6147 3.8159-3.6699 0-2.0552-1.7607-3.8159-3.8159-3.8159zm-525.65 6.253c16.442 0 28.352 13.36 28.352 29.704v0.19534c0 16.344-11.724 29.459-28.141 29.459-16.447 0-28.358-13.359-28.358-29.655v-0.24466c0-16.295 11.725-29.459 28.147-29.459zm-105.01 1.2339h22.179c11.617 0 18.383 5.3331 18.383 14.19v0.19534c0 9.2486-7.6974 14.778-18.488 14.778h-22.074zm290.29 1.2195 16.538 36.799h-33.069z"/>
	</g>
</svg>
