<svg xmlns="http://www.w3.org/2000/svg" width="800" height="293.198" ><path d="M615.919 163.354c-1.29 0-2.639-.293-3.87-.586l-163.442-50.689c-4.925-1.407-7.798-4.779-7.564-10.114V61.653c-.205-5.482 2.639-8.942 7.593-10.349L612.167.557C613.251.322 614.6 0 615.919 0c1.994 0 3.87.616 5.13 1.906 1.29 1.261 1.964 3.049 1.964 4.955v28.496c-.029 4.485-3.371 8.326-7.652 9.557l-25.506 7.036v61.829l25.506 7.212c4.28 1.261 7.593 5.043 7.652 9.323v26.18c0 1.906-.674 3.753-1.964 4.955-1.29 1.29-3.108 1.906-5.072 1.906zM554.148 62.093l-72.501 20.375 72.501 21.108zM0 5.775h392.084v287.394H0z" fill="#ff9120"/><path d="M98.505 147.2l-2.111 8.883c-.616 2.551-.821 3.811-.821 4.661 0 2.14.586 3.87 2.082 6.332l25.213 45.353c2.111 3.577 3.811 5.072 8.912 5.072h23.072c2.961 0 6.567-1.876 3.137-7.212l-30.9-51.217c10.408-6.567 22.046-15.89 22.046-36.382 0-26.532-14.834-41.366-47.435-41.366H54.442c-4.222 0-5.482 1.495-5.482 5.805v124.685c0 4.251 1.29 5.717 5.482 5.717h19.496c4.222 0 5.512-1.466 5.512-5.717V106.567h20.11c12.724 0 18.821 4.632 18.821 16.505 0 10.759-4.837 14.16-9.733 16.271-6.069 2.58-8.238-.176-10.144 7.857m80.652 48.49l-2.551 16.33c-.381 3.166 1.085 4.456 3.87 4.896 6.098.792 21.548 1.876 36.617 1.876 33.685 0 58.253-10.994 58.253-42.363 0-18.44-8.033-32.219-36.001-39.402l-15.655-4.016c-10.613-2.726-15.45-6.127-15.45-13.984 0-11.023 10.144-13.134 19.906-13.134 13.163 0 26.473 1.026 31.78 1.466 5.482.41 6.977-.205 7.857-4.867l2.551-15.919c.381-3.166-1.085-4.427-3.87-4.837-6.127-.85-19.701-1.906-36.822-1.906-34.916 0-51.862 15.245-51.862 39.373 0 21.812 11.844 34.711 32.395 40.018l15.567 4.075c12.899 3.401 18.44 7.212 18.44 15.245 0 11.873-8.033 13.984-27.529 13.984-8.854 0-24.333-1.261-29.639-1.7-5.512-.41-7.007.205-7.857 4.867m130.607 16.123c0 4.222 1.261 5.717 5.482 5.717h19.496c4.251 0 5.482-1.495 5.482-5.717V87.101c0-4.251-1.261-5.775-5.482-5.775h-19.496c-4.251 0-5.482 1.495-5.482 5.775z" fill="#fff"/><path d="M789.886 5.746h-25.388c-4.016 0-9.352 1.026-12.811 1.906l-86.778 27.001c-5.687 1.466-10.29 7.241-10.29 12.899v31.135c0 6.186 5.013 11.697 13.984 9.411L735.27 67.43v215.42c0 5.687 4.603 10.32 10.261 10.32h44.005c5.687 0 10.466-4.632 10.466-10.32V16.007c0-5.629-4.398-10.261-10.114-10.261M580.827 179.83c-.029-1.906.645-3.694 1.964-4.955 1.349-1.29 3.137-1.906 5.101-1.906 1.349 0 2.668.264 3.87.586l23.629 7.329c4.251 1.231 7.564 5.013 7.622 9.352v94.782c0 4.544-3.606 8.121-8.091 8.179H449.194c-4.515-.059-8.15-3.635-8.15-8.179V256.67c0-4.573 3.635-8.15 8.15-8.15h131.604z" fill="#ff9120"/></svg>