<svg xmlns="http://www.w3.org/2000/svg" width="800" height="276.781"  xmlns:v="https://vecta.io/nano"><path d="M581.964 0c-1.033 0-2.582.516-3.615.516l-156.464 48.54c-4.647 1.549-7.229 4.647-7.229 9.811v36.147c0 5.164 2.582 8.262 7.229 9.295l156.464 48.54c1.033 0 2.066.516 3.615.516 2.066 0 3.615-.516 4.647-1.549s2.066-3.098 2.066-4.647v-23.754c0-4.131-3.098-7.746-7.229-9.295l-24.786-6.713V48.024l24.786-6.713c4.131-1.033 7.229-4.647 7.229-9.295V6.197c0-2.066-.516-3.615-2.066-4.647C585.579.516 584.029 0 581.964 0zm125.998.516c-25.303 0-51.122 4.647-72.81 13.426-4.647 1.549-10.844 4.647-10.844 12.91v26.852c0 8.262 5.68 10.844 12.393 9.295 17.041-4.647 40.794-11.877 65.064-11.36 35.63 1.033 40.278 22.721 40.278 34.081 0 20.139-6.197 29.434-22.204 40.794s-40.278 27.368-60.933 44.925c-27.368 22.721-38.729 43.376-38.729 68.679v26.336c0 5.68 4.647 10.328 10.328 10.328H783.87c5.68 0 9.295-4.647 10.328-10.328l5.68-29.434c1.033-5.68-4.647-10.328-10.328-10.328H683.175c.516-8.779 8.779-22.204 35.63-40.278 31.499-21.172 41.827-28.917 57.835-44.409 12.91-12.393 23.237-41.827 23.237-60.417 0-24.27-10.328-44.925-23.754-57.319C762.182 10.328 738.428.516 707.961.516zM0 5.164v269.552h373.345V5.164zm523.613 52.671v40.278l-70.228-20.655zm35.114 103.793c-4.131 0-7.746 3.615-7.746 7.746v65.581H422.401c-4.131 0-7.746 3.615-7.746 7.746v24.27c0 4.131 3.615 7.746 7.746 7.746h158.53c4.131 0 7.746-3.615 7.746-7.746v-97.596c0-4.131-3.615-7.746-7.746-7.746z" fill="#ffc92f"/><path d="M225.143 71.777c-33.049 0-49.056 14.459-49.056 37.18 0 20.655 10.844 32.532 30.467 37.696l14.975 3.615c12.393 3.098 17.557 6.713 17.557 14.459 0 11.36-7.746 12.91-25.819 12.91-8.262 0-22.721-1.033-27.885-1.549s-6.713 0-7.229 4.647l-2.582 15.491c-.516 3.098 1.033 4.131 3.615 4.647 5.68 1.033 20.139 2.066 34.598 2.066 32.016 0 54.737-10.328 54.737-40.278 0-17.557-7.746-30.467-34.081-37.18l-14.975-3.615c-9.811-2.582-14.459-5.68-14.459-12.91 0-10.328 9.295-12.393 18.59-12.393 12.393 0 24.786 1.033 29.95 1.549s6.713 0 7.229-4.647l2.066-14.975c.516-3.098-1.033-4.131-3.615-4.647-4.647-1.033-17.557-2.066-34.081-2.066zM54.22 73.326c-4.131 0-5.164 1.549-5.164 5.164v117.735c0 4.131 1.033 5.164 5.164 5.164h18.073c4.131 0 4.647-1.549 5.164-5.164V97.08h19.106c11.877 0 17.557 4.131 17.557 15.491 0 10.328-4.647 13.426-9.295 15.491-5.68 2.582-7.746 0-9.811 7.229l-2.066 8.262v4.647c0 2.066.516 3.615 2.066 6.197l23.754 42.86c2.066 3.615 3.615 4.647 8.262 4.647h21.688c2.582 0 6.197-1.549 3.098-6.713l-29.434-48.54c9.811-6.197 20.655-14.975 20.655-34.598 0-24.786-13.942-38.729-44.925-38.729H54.22zm246.831 0c-4.131 0-5.164 1.549-5.164 5.164v117.735c0 4.131 1.033 5.164 5.164 5.164h18.59c4.131 0 5.164-1.549 5.164-5.164V78.49c0-4.131-1.033-5.164-5.164-5.164z" fill="#fff"/></svg>