<?xml version="1.0" encoding="UTF-8" standalone="no"?>
<!-- Created with Inkscape (http://www.inkscape.org/) -->
<svg
   xmlns:dc="http://purl.org/dc/elements/1.1/"
   xmlns:cc="http://web.resource.org/cc/"
   xmlns:rdf="http://www.w3.org/1999/02/22-rdf-syntax-ns#"
   xmlns:svg="http://www.w3.org/2000/svg"
   xmlns="http://www.w3.org/2000/svg"
   xmlns:sodipodi="http://sodipodi.sourceforge.net/DTD/sodipodi-0.dtd"
   xmlns:inkscape="http://www.inkscape.org/namespaces/inkscape"
   width="232"
   height="50"
   id="svg2"
   sodipodi:version="0.32"
   inkscape:version="0.45.1"
   version="1.0"
   inkscape:output_extension="org.inkscape.output.svg.inkscape">
  <g
     inkscape:label="Layer 1"
     inkscape:groupmode="layer"
     id="layer1"
     transform="translate(-262.18889,-530.94591)">
    <g
       id="g19022"
       transform="matrix(1.1791858,0,0,1.1791858,-179.94813,-260.89903)">
      <path
         style="fill:#780030;fill-rule:nonzero;stroke:none"
         d="M 552.28368,689.86524 L 550.65558,697.54144 C 549.32463,703.63906 544.51462,704.58621 541.67319,704.62335 C 536.55985,704.66668 533.53271,700.76049 534.44271,696.44572 L 536.03366,689.18428 C 537.43271,682.82666 541.90224,681.87951 545.69081,681.87951 C 550.88463,681.87951 553.26797,685.36476 552.28368,689.86524 z M 530.25175,680.46189 C 528.32032,680.46189 527.0327,679.21142 527.37318,677.6576 C 527.67651,676.10379 529.49032,674.85332 531.42794,674.85332 C 533.35937,674.85332 534.6408,676.10379 534.34366,677.6576 C 533.99699,679.21142 532.18318,680.46189 530.25175,680.46189 z M 528.54318,704.1343 L 522.33412,704.1343 L 526.99556,682.75237 L 533.20461,682.75237 L 528.54318,704.1343 z M 520.55126,687.03 L 516.53983,687.03 C 515.85888,687.03 515.21507,687.22809 514.98602,688.09476 C 514.8684,688.47238 515.06031,689.07286 515.47507,689.53095 C 517.33221,691.56762 519.72174,694.48334 519.30079,697.20096 C 518.58269,701.93668 515.36364,704.58621 511.30887,704.70382 C 508.80792,704.74097 506.83934,704.01668 505.28553,701.89954 L 506.23268,697.01524 C 506.99411,698.03667 508.51077,699.73287 509.87268,699.73287 C 510.81982,699.73287 511.50078,699.42953 511.95268,698.48858 C 512.93697,696.44572 510.10173,694.36572 508.51077,691.64191 C 507.7122,690.28619 507.40887,688.50952 508.1703,686.20047 C 508.65935,684.60952 510.59078,682.48618 514.98602,682.48618 L 521.57888,682.48618 L 520.55126,687.03 z M 503.25505,687.03 L 499.24362,687.03 C 498.56267,687.03 497.91267,687.22809 497.68981,688.09476 C 497.57219,688.47238 497.7641,689.07286 498.17886,689.53095 C 500.036,691.56762 502.42553,694.48334 502.00458,697.20096 C 501.28648,701.93668 498.06743,704.58621 494.01266,704.70382 C 491.51171,704.74097 489.54314,704.01668 487.98932,701.89954 L 488.93647,697.01524 C 489.6979,698.03667 491.21457,699.73287 492.57647,699.73287 C 493.52362,699.73287 494.20457,699.42953 494.65647,698.48858 C 495.64076,696.44572 492.79933,694.36572 491.21457,691.64191 C 490.41599,690.28619 490.11266,688.50952 490.8679,686.20047 C 491.36314,684.60952 493.29457,682.48618 497.68981,682.48618 L 504.27648,682.48618 L 503.25505,687.03 z M 486.08266,687.67381 L 482.47979,704.1343 L 477.93598,704.1343 L 477.32931,702.35763 C 475.13169,704.89573 471.94978,704.58621 471.94978,704.58621 C 467.33168,704.1343 466.72502,699.78239 467.55454,696.11762 L 469.30026,688.43524 C 470.2474,684.30618 473.46645,681.91666 478.12788,681.91666 C 480.28836,681.91666 482.2136,683.12999 483.24122,683.95952 C 484.86932,685.32761 486.83789,685.21618 486.83789,685.21618 C 486.83789,685.21618 486.42313,686.16333 486.08266,687.67381 z M 561.76131,683.43333 C 563.69274,682.1457 565.89036,681.53904 568.35417,682.02809 C 569.75322,682.28809 570.90465,682.9319 571.69703,683.9719 L 571.69703,671.48569 L 444.88499,671.48569 L 444.88499,706.48668 L 449.42262,686.99285 C 449.42262,686.99285 449.60833,686.04571 449.45976,685.21618 C 451.42833,685.63095 454.95072,683.47047 454.95072,683.47047 C 457.1112,682.10237 458.88786,681.76189 460.59644,681.9538 C 463.24596,682.25713 466.16168,684.79523 465.21454,689.23381 L 463.28311,698.0862 C 462.29882,702.66716 459.45739,704.71001 456.6531,704.71001 C 456.6531,704.71001 453.27929,704.48097 452.4869,702.28954 L 449.67643,713.87812 L 571.69703,713.87812 L 571.69703,694.25429 L 569.56132,704.1343 L 563.16036,704.1343 L 566.30512,689.64238 C 566.57131,688.31762 566.6456,686.84428 565.13512,686.77 C 563.54417,686.68952 562.9375,687.97714 562.59702,689.64238 L 559.45226,704.1343 L 553.16273,704.1343 C 556.72226,687.37666 556.83987,686.95571 556.83987,686.95571 C 556.9513,686.23761 556.83987,685.21618 556.83987,685.21618 C 556.83987,685.21618 558.35035,685.66809 561.76131,683.43333 z M 457.22262,696.9162 L 458.77644,689.79714 C 459.11691,688.16904 458.54739,687.03 457.48881,686.99285 C 456.43024,686.99285 455.4831,688.09476 455.14262,689.79714 L 453.58881,696.9162 C 453.24833,698.5381 453.81167,699.7143 454.87643,699.7143 C 455.97215,699.7143 456.88215,698.61858 457.22262,696.9162 z M 544.8551,686.73285 C 543.75938,686.73285 542.84938,687.07333 542.43462,689.03571 L 540.61462,697.2381 C 540.34843,698.33382 540.80652,699.69572 542.13129,699.69572 C 543.34462,699.69572 544.06272,699.1262 544.40319,697.62191 L 546.26034,689.11619 C 546.56367,687.71095 545.95701,686.73285 544.8551,686.73285 z M 477.97312,686.68952 C 476.91455,686.68952 475.96741,687.18476 475.43502,689.53095 L 473.76978,697.13286 C 473.39217,698.87239 474.18455,699.7081 475.24931,699.7081 C 476.30788,699.7081 477.32931,698.76096 477.70693,697.13286 L 479.37836,689.56809 C 479.75598,687.82857 479.18646,686.68952 477.97312,686.68952"
         id="path8662" />
      <path
         style="fill:#ffffff;fill-rule:nonzero;stroke:none"
         d="M 479.37836,689.56809 L 477.70693,697.13286 C 477.32931,698.76096 476.30788,699.7081 475.24931,699.7081 C 474.18455,699.7081 473.39217,698.87239 473.76978,697.13286 L 475.43502,689.53095 C 475.96741,687.18476 476.91455,686.68952 477.97312,686.68952 C 479.18646,686.68952 479.75598,687.82857 479.37836,689.56809 z M 483.24122,683.95952 C 482.2136,683.12999 480.28836,681.91666 478.12788,681.91666 C 473.46645,681.91666 470.2474,684.30618 469.30026,688.43524 L 467.55454,696.11762 C 466.72502,699.78239 467.33168,704.1343 471.94978,704.58621 C 471.94978,704.58621 475.13169,704.89573 477.32931,702.35763 L 477.93598,704.1343 L 482.47979,704.1343 L 486.08266,687.67381 C 486.42313,686.16333 486.83789,685.21618 486.83789,685.21618 C 486.83789,685.21618 484.86932,685.32761 483.24122,683.95952 z M 458.77644,689.79714 L 457.22262,696.9162 C 456.88215,698.61858 455.97215,699.7143 454.87643,699.7143 C 453.81167,699.7143 453.24833,698.5381 453.58881,696.9162 L 455.14262,689.79714 C 455.4831,688.09476 456.43024,686.99285 457.48881,686.99285 C 458.54739,687.03 459.11691,688.16904 458.77644,689.79714 z M 460.59644,681.9538 C 458.88786,681.76189 457.1112,682.10237 454.95072,683.47047 C 454.95072,683.47047 451.42833,685.63095 449.45976,685.21618 C 449.60833,686.04571 449.42262,686.99285 449.42262,686.99285 L 444.88499,706.48668 L 444.88499,713.87812 L 449.67643,713.87812 L 452.4869,702.28954 C 453.27929,704.48097 456.6531,704.71001 456.6531,704.71001 C 459.45739,704.71001 462.29882,702.66716 463.28311,698.0862 L 465.21454,689.23381 C 466.16168,684.79523 463.24596,682.25713 460.59644,681.9538 z M 568.35417,682.02809 C 565.89036,681.53904 563.69274,682.1457 561.76131,683.43333 C 558.35035,685.66809 556.83987,685.21618 556.83987,685.21618 C 556.83987,685.21618 556.9513,686.23761 556.83987,686.95571 C 556.83987,686.95571 556.72226,687.37666 553.16273,704.1343 L 559.45226,704.1343 L 562.59702,689.64238 C 562.9375,687.97714 563.54417,686.68952 565.13512,686.77 C 566.6456,686.84428 566.57131,688.31762 566.30512,689.64238 L 563.16036,704.1343 L 569.56132,704.1343 L 571.69703,694.25429 L 571.69703,683.9719 C 570.90465,682.9319 569.75322,682.28809 568.35417,682.02809 z M 546.26034,689.11619 L 544.40319,697.62191 C 544.06272,699.1262 543.34462,699.69572 542.13129,699.69572 C 540.80652,699.69572 540.34843,698.33382 540.61462,697.2381 L 542.43462,689.03571 C 542.84938,687.07333 543.75938,686.73285 544.8551,686.73285 C 545.95701,686.73285 546.56367,687.71095 546.26034,689.11619 z M 545.69081,681.87951 C 541.90224,681.87951 537.43271,682.82666 536.03366,689.18428 L 534.44271,696.44572 C 533.53271,700.76049 536.55985,704.66668 541.67319,704.62335 C 544.51462,704.58621 549.32463,703.63906 550.65558,697.54144 L 552.28368,689.86524 C 553.26797,685.36476 550.88463,681.87951 545.69081,681.87951 z M 522.33412,704.1343 L 528.54318,704.1343 L 533.20461,682.75237 L 526.99556,682.75237 L 522.33412,704.1343 z M 531.42794,674.85332 C 529.49032,674.85332 527.67651,676.10379 527.37318,677.6576 C 527.0327,679.21142 528.32032,680.46189 530.25175,680.46189 C 532.18318,680.46189 533.99699,679.21142 534.34366,677.6576 C 534.6408,676.10379 533.35937,674.85332 531.42794,674.85332 z M 508.1703,686.20047 C 507.40887,688.50952 507.7122,690.28619 508.51077,691.64191 C 510.10173,694.36572 512.93697,696.44572 511.95268,698.48858 C 511.50078,699.42953 510.81982,699.73287 509.87268,699.73287 C 508.51077,699.73287 506.99411,698.03667 506.23268,697.01524 L 505.28553,701.89954 C 506.83934,704.01668 508.80792,704.74097 511.30887,704.70382 C 515.36364,704.58621 518.58269,701.93668 519.30079,697.20096 C 519.72174,694.48334 517.33221,691.56762 515.47507,689.53095 C 515.06031,689.07286 514.8684,688.47238 514.98602,688.09476 C 515.21507,687.22809 515.85888,687.03 516.53983,687.03 L 520.55126,687.03 L 521.57888,682.48618 L 514.98602,682.48618 C 510.59078,682.48618 508.65935,684.60952 508.1703,686.20047 z M 490.8679,686.20047 C 490.11266,688.50952 490.41599,690.28619 491.21457,691.64191 C 492.79933,694.36572 495.64076,696.44572 494.65647,698.48858 C 494.20457,699.42953 493.52362,699.73287 492.57647,699.73287 C 491.21457,699.73287 489.6979,698.03667 488.93647,697.01524 L 487.98932,701.89954 C 489.54314,704.01668 491.51171,704.74097 494.01266,704.70382 C 498.06743,704.58621 501.28648,701.93668 502.00458,697.20096 C 502.42553,694.48334 500.036,691.56762 498.17886,689.53095 C 497.7641,689.07286 497.57219,688.47238 497.68981,688.09476 C 497.91267,687.22809 498.56267,687.03 499.24362,687.03 L 503.25505,687.03 L 504.27648,682.48618 L 497.68981,682.48618 C 493.29457,682.48618 491.36314,684.60952 490.8679,686.20047"
         id="path8664" />
      <path
         style="fill:#ee2e78;fill-rule:nonzero;stroke:none"
         d="M 374.95111,713.87193 L 442.52023,713.87193 L 442.52023,671.48569 L 374.95111,671.48569 L 374.95111,713.87193 z "
         id="path8666" />
      <path
         style="fill:#8c0642;fill-rule:nonzero;stroke:none"
         d="M 381.54397,706.20811 C 379.75492,704.84621 376.72158,703.31097 375.6073,701.80049 C 375.35968,701.47239 375.14301,701.1443 374.95111,700.83477 L 374.95111,704.31382 C 375.00682,704.36335 375.06254,704.40668 375.11825,704.45621 C 376.88254,705.79954 381.24064,707.86097 382.81921,708.95669 C 385.15302,710.59097 386.48398,712.36145 387.37541,713.87193 L 392.08017,713.87193 C 390.38398,712.38621 388.28541,710.50431 387.39398,710.10812 C 385.93302,709.45192 383.32683,707.5824 381.54397,706.20811 z M 395.68922,710.04621 C 395.68922,710.04621 397.18732,711.38955 401.91066,712.28098 C 402.9878,712.48526 404.17019,713.20955 405.15447,713.87193 L 408.65829,713.87193 C 408.01448,713.30241 407.07352,712.64621 405.69923,712.02098 C 402.17685,710.41145 401.38447,711.92812 395.68922,710.04621 z M 385.56778,705.62621 C 381.68635,702.75382 381.2654,699.87525 381.01159,696.99667 C 380.75159,694.1181 380.05206,692.41572 381.01159,690.26143 C 381.96492,688.12571 382.94302,686.72666 383.12254,684.4919 C 383.76016,676.58665 391.04636,674.76665 391.04636,674.76665 C 392.84779,674.55617 394.61208,672.66808 396.24018,671.68379 C 396.35161,671.6095 396.46303,671.5476 396.56827,671.48569 L 391.00922,671.48569 C 390.69969,671.64046 390.36541,671.78903 389.96922,671.93141 C 386.60779,673.1076 383.5435,676.80332 382.91207,681.06856 C 382.42921,684.30618 380.62778,686.78238 379.95302,688.02047 C 377.20444,693.04095 379.84778,694.74953 379.6373,698.70525 C 379.27825,705.3724 385.49969,706.54859 389.05922,709.35907 C 390.61303,710.59097 392.03065,712.3924 393.28113,713.87193 L 395.45399,713.87193 C 395.12589,713.52526 392.4516,710.73335 385.56778,705.62621 z M 429.74926,695.16429 C 429.58212,696.42096 428.15212,697.67144 425.37878,698.11096 C 423.55878,698.39572 421.99878,698.63096 420.56877,699.59668 C 418.22258,701.18144 421.63354,702.50001 420.04258,703.96716 C 419.07687,704.86478 416.68734,704.97621 414.41543,704.95763 C 412.24877,704.94525 409.97067,704.10335 408.74495,703.73811 C 406.73924,703.13763 405.80447,702.60525 404.72733,702.06049 C 403.64399,701.50954 402.56066,701.02049 401.69399,700.14144 C 400.82732,699.26239 400.39399,698.6681 399.96066,697.2381 C 399.52732,695.82048 399.13732,695.05905 399.4097,693.79 C 400.12161,690.44714 401.47733,690.19333 402.96923,689.80333 C 403.75542,689.59286 406.59066,689.99524 403.86685,690.48429 C 401.8178,691.1281 401.59494,692.51476 401.80542,694.05 C 401.94161,695.07762 402.28209,695.56048 403.42114,696.43953 C 403.42114,696.43953 409.04829,700.79144 415.06544,699.08906 C 416.50782,698.68668 418.07401,698.46382 419.42354,697.73953 C 424.84021,694.83 421.7883,689.91476 421.73878,689.82809 C 419.30592,685.50095 420.39544,688.98 420.39544,688.98 C 420.62449,689.79714 420.68639,691.6481 418.71782,694.15524 C 417.91306,695.18286 415.23877,696.22286 414.26067,696.50763 C 412.95448,696.88524 412.19924,696.85429 411.56162,696.82334 C 410.57734,696.78001 410.70734,696.78001 409.48781,696.58191 C 403.22304,695.55429 409.24638,696.03715 410.05114,696.04953 C 411.20257,696.06191 412.15591,695.97524 413.10924,695.65334 C 413.70972,695.44905 414.3102,695.32524 415.02829,694.61953 C 415.77734,693.88286 415.20782,693.19572 415.61639,692.24238 C 415.85782,691.66048 417.22591,691.22095 417.42401,689.59286 C 417.5602,688.50333 416.70591,687.40762 415.62877,686.92476 C 414.39067,686.36761 413.97591,686.28095 413.18972,685.9838 C 412.00115,685.5319 410.64543,684.64047 408.34876,684.21333 C 402.43066,683.12999 400.64161,683.5819 400.64161,683.5819 C 399.0878,683.74285 397.2678,684.15142 395.39827,685.20999 C 392.94065,686.60904 392.61255,686.24999 394.14779,684.15142 C 394.14779,684.15142 395.15684,682.69047 397.21208,681.14904 C 397.21208,681.14904 402.34399,676.62379 411.74115,680.95094 C 413.97591,681.97237 416.54496,683.34047 417.89449,684.78904 C 419.23782,686.23761 419.42354,686.03952 418.77973,684.73333 C 418.27211,683.70571 417.15782,682.82047 416.47687,682.20761 C 415.97544,681.76189 414.96639,680.79618 413.51781,680.08427 C 412.38496,679.52713 408.98638,678.22094 412.46543,678.48713 C 414.17401,678.62332 417.15782,680.21427 419.28115,681.43999 C 420.76068,682.28809 421.7883,683.47666 423.17497,684.67142 C 424.65449,685.94047 425.37259,686.46666 426.85831,688.46619 C 428.10878,690.15619 430.1145,692.42191 429.74926,695.16429 z M 395.62732,692.40953 C 393.46065,694.65667 393.45446,696.04334 393.45446,697.91906 C 393.45446,700.27144 393.72065,701.33001 394.89065,702.58049 C 397.64542,705.52097 397.31732,705.62621 395.60256,704.35097 C 393.39255,702.90858 392.29684,701.44763 391.71493,700.00525 C 390.91636,698.04286 391.03398,696.23524 391.19493,695.03429 C 391.43636,693.23286 391.6716,692.19286 392.22874,691.36952 C 393.20684,689.92714 394.06732,689.57428 395.68922,688.75095 C 397.31732,687.93381 399.42828,686.86904 401.87352,686.39857 C 401.87352,686.39857 403.8359,685.56904 407.81019,685.91571 C 408.35495,685.85999 410.38543,686.10761 411.30781,686.32428 C 412.23019,686.54095 413.36924,686.91238 414.00067,687.00523 C 416.56972,687.38904 417.12068,689.07905 416.74925,689.78476 C 416.44591,690.36667 415.98782,690.9981 414.9602,691.38191 C 413.93258,691.76572 414.0502,692.90476 413.31353,693.70953 C 412.53353,694.57619 411.06019,694.99715 410.03257,695.1581 C 409.1721,695.29429 406.64638,695.17667 405.32781,694.83619 C 401.22352,693.92619 403.08066,691.76572 403.08066,691.76572 C 403.08066,691.76572 403.91019,690.89905 403.81114,691.54286 C 403.74304,691.95762 403.99685,692.35381 404.97495,692.40953 C 405.94685,692.46524 406.22543,692.46524 407.22828,692.22381 C 408.37352,691.94524 409.37019,691.93905 410.62686,691.3881 C 412.2921,690.65762 413.53639,689.71667 413.15877,688.94905 C 412.77496,688.18143 411.69781,687.98333 410.44114,687.77285 C 409.14733,687.55619 405.69923,687.71714 403.3159,688.70143 C 400.93256,689.68571 397.7878,690.16857 395.62732,692.40953 z M 438.08165,702.58668 C 438.08165,702.58668 436.02641,697.88191 436.53403,690.81857 C 436.83736,686.55952 433.6245,682.96285 431.68069,681.29761 C 429.73688,679.63237 427.44021,676.15951 425.40354,674.30236 C 424.18402,673.19427 423.44116,672.29046 422.83449,671.48569 L 398.6978,671.48569 C 398.64208,671.8695 398.46875,672.32141 398.42542,672.59998 C 398.42542,672.59998 397.83732,673.46046 396.56208,674.62427 C 394.66779,676.3576 392.45779,677.50284 391.03398,680.51142 C 389.61017,683.52618 386.9916,688.07 388.02541,692.78095 C 389.05922,697.48572 388.70636,699.60906 392.19779,702.49382 C 395.68922,705.3724 396.14113,706.0224 399.37875,707.58859 C 402.61018,709.16097 404.50447,709.09907 408.00209,709.22907 C 411.49353,709.35907 409.30829,709.23526 414.89829,709.74288 C 420.07973,710.21335 423.39783,708.44288 420.6802,708.57288 C 417.96258,708.70907 417.70258,709.75526 412.39734,708.31288 C 407.09209,706.87668 407.35209,704.9143 404.50447,705.0443 C 401.66304,705.1743 398.16542,702.16573 397.00161,699.94334 C 395.8378,697.71477 394.77303,696.76143 395.42303,695.45524 C 396.07303,694.14905 396.06065,695.6162 396.45684,696.74286 C 396.96446,698.17906 397.28637,698.56287 400.79637,701.16906 C 403.13638,702.90858 404.12066,702.42573 406.83828,703.86811 C 409.54972,705.3043 411.10353,706.22049 415.50496,706.87668 C 419.9002,707.52668 420.5502,707.79288 423.65164,707.00668 C 426.75926,706.22049 427.66307,705.4343 425.72545,707.39668 C 423.78164,709.35907 423.13783,709.09907 420.0302,710.66526 C 417.73353,711.82907 416.0002,712.56574 414.84258,713.87193 L 425.86164,713.87193 C 426.23926,713.45098 426.63545,712.96193 427.07497,712.37383 C 429.32212,709.3405 434.42308,710.03383 433.25926,704.05382 C 433.25926,704.05382 432.56593,702.77239 433.20355,701.03906 C 433.64307,699.8443 433.59974,699.17572 433.55022,698.08001 C 433.52546,697.52905 434.2126,698.28429 434.58403,699.67715 C 435.02974,701.3362 435.49403,702.69192 435.66736,703.57097 C 436.65165,708.5605 435.36403,711.69288 433.73593,713.87193 L 438.69451,713.87193 C 439.14641,713.20955 439.47451,712.70812 439.63546,712.10764 C 440.40927,709.17954 438.75022,704.35097 438.08165,702.58668"
         id="path8668" />
    </g>
  </g>
</svg>
