<svg xmlns="http://www.w3.org/2000/svg" width="800" height="81.416" fill-rule="evenodd"><path fill="#6e0ced" d="M330.938 81.416h150.457V0H330.938z"/><path fill="#fffffe" d="M377.696 18.715h10.446v35.313h46.496v8.673h-56.938V18.715"/><path fill="#ec33ec" d="M165.451 81.416h150.457V0H165.451z"/><path fill="#fffffe" d="M235.455 27.388h-26.446v-8.673h63.345v8.673h-26.45v35.313h-10.45V27.388"/><path fill="#9629bc" d="M0 81.416h150.425V0H0z"/><path fill="#fffffe" d="M81.43 39.073c6.467 0 9.6-2.011 9.6-6.096s-3.133-6.032-9.6-6.032H53.154v12.127zM42.704 18.715h40.099c12.212 0 19.002 5.274 19.002 14.138 0 7.604-5.094 12.694-13.777 13.887l19.653 15.961h-15.08L74.124 47.303H53.158v15.398H42.712V18.715z"/><path fill="#fdfeff" d="M531.458 40.329c2.644 0 4.665-.637 6.053-1.911s2.085-3.122 2.085-5.543c0-2.301-.708-4.074-2.117-5.327s-3.419-1.876-6.021-1.876h-11.657v14.655h11.657zm-19.989 22.177V18.648h21.097c3.08 0 5.791.598 8.138 1.788a13.044 13.044 0 0 1 5.434 5.012c1.281 2.152 1.922 4.627 1.922 7.427 0 2.839-.641 5.356-1.922 7.547s-3.09 3.894-5.434 5.108-5.062 1.816-8.142 1.816h-12.761v15.161zm57.685-35.773l-7.225 19.108h14.715l-7.228-19.108zm-4.814-8.081h10.088l17.582 43.228v.627h-9.115l-3.646-9.646H559.26l-3.646 9.646h-8.726v-.627zm35.805 40.63c-3.469-2.609-5.335-6.276-5.596-10.995h8.333c.478 5.179 4.538 7.766 12.177 7.766 3.296 0 5.784-.51 7.455-1.533s2.506-2.478 2.506-4.354c0-1.628-.531-2.874-1.593-3.727s-2.984-1.536-5.759-2.039l-7.816-1.441c-4.779-.92-8.273-2.379-10.485-4.386s-3.32-4.719-3.32-8.142c0-3.844 1.593-6.885 4.789-9.119 3.186-2.234 7.582-3.352 13.182-3.352 3.646 0 6.857.595 9.639 1.788 2.775 1.189 4.945 2.839 6.51 4.949 1.558 2.11 2.386 4.52 2.471 7.235h-8.333c-.219-2.212-1.235-3.904-3.058-5.076s-4.453-1.752-7.883-1.752c-5.943 0-8.92 1.773-8.92 5.324 0 1.338.556 2.435 1.664 3.292s2.874 1.494 5.31 1.912l7.419 1.31c5.211.966 8.945 2.467 11.2 4.513s3.384 4.888 3.384 8.524c0 4.177-1.593 7.423-4.786 9.742-3.186 2.319-7.823 3.476-13.897 3.476-6.255 0-11.115-1.306-14.591-3.915m44.439 0c-3.48-2.609-5.345-6.276-5.6-10.995h8.329c.474 5.179 4.538 7.766 12.177 7.766 3.299 0 5.784-.51 7.455-1.533s2.506-2.478 2.506-4.354c0-1.628-.531-2.874-1.593-3.727s-2.984-1.536-5.763-2.039l-7.812-1.441c-4.779-.92-8.273-2.379-10.485-4.386s-3.317-4.719-3.317-8.142c0-3.844 1.593-6.885 4.782-9.119s7.586-3.352 13.186-3.352c3.646 0 6.86.595 9.635 1.788s4.952 2.839 6.513 4.949 2.386 4.52 2.471 7.235h-8.336c-.212-2.212-1.232-3.904-3.055-5.076s-4.453-1.752-7.88-1.752c-5.947 0-8.92 1.773-8.92 5.324 0 1.338.552 2.435 1.66 3.292s2.874 1.494 5.306 1.912l7.423 1.31c5.207.966 8.942 2.467 11.196 4.513 2.262 2.05 3.384 4.888 3.384 8.524 0 4.177-1.593 7.423-4.782 9.742s-7.823 3.476-13.901 3.476c-6.251 0-11.111-1.306-14.584-3.915m43.366 3.225h8.329V18.648h-8.329zm51.108-10.619c2.602-2.775 3.904-6.549 3.904-11.306 0-4.765-1.303-8.531-3.904-11.31s-6.319-4.166-11.136-4.166-8.524 1.381-11.129 4.135-3.908 6.538-3.908 11.342c0 4.761 1.303 8.531 3.908 11.306s6.315 4.166 11.129 4.166 8.531-1.388 11.136-4.166zm-23.635 8.46a19.696 19.696 0 0 1-8.17-7.989c-1.887-3.423-2.832-7.352-2.832-11.777s.945-8.354 2.832-11.781a19.71 19.71 0 0 1 8.17-7.989c3.561-1.897 7.727-2.85 12.499-2.85 4.733 0 8.871.952 12.407 2.85a19.982 19.982 0 0 1 8.17 7.989c1.912 3.427 2.864 7.352 2.864 11.781s-.956 8.354-2.864 11.777a19.965 19.965 0 0 1-8.17 7.989c-3.54 1.901-7.674 2.85-12.407 2.85-4.772 0-8.938-.949-12.499-2.85zm52.609 2.159h-8.333V18.648h9.635l22.138 31.766h.258V18.651H800V62.51h-9.575l-22.138-31.579h-.258v31.575"/></svg>