<svg xmlns="http://www.w3.org/2000/svg" width="800" height="90.498" fill-rule="evenodd"><path fill="#008d49" d="M361.061 90.498h164.134V0H361.061z"/><path fill="#fffffe" d="M412.069 20.8h11.395v39.254h50.722v9.64h-62.118V20.8"/><path fill="#edc00c" d="M180.529 90.498h164.138V0H180.525z"/><path fill="#fffffe" d="M256.898 30.443h-28.851v-9.64h69.104v9.64h-28.854v39.254h-11.399V30.443"/><path fill="#0caaed" d="M0 90.498h164.138V0H0z"/><path fill="#fffffe" d="M88.869 43.432c7.055 0 10.476-2.233 10.476-6.776s-3.421-6.704-10.472-6.704H58.024v13.481h30.849zM46.624 20.8h43.743c13.321 0 20.731 5.868 20.731 15.718 0 8.452-5.557 14.11-15.033 15.435l21.444 17.741h-16.456L80.89 52.583H58.027v17.111H46.632V20.8z"/><path fill="#fdfeff" d="M593.303 69.481h-35.301V20.731h9.093V61.68h26.208v7.801m7.815 0h9.09V20.731h-9.09zm45.882 0h-10.226l-19.251-48.054v-.695h9.875l14.346 38.302h.29l14.129-38.302h10.089v.695l-19.251 48.054m26.708 0h9.093V20.731h-9.093zm32.601 0h-9.093V20.731h10.512l24.152 35.309h.29V20.731h9.014v48.749h-10.436l-24.152-35.099h-.29v35.099m56.898-2.295a20.869 20.869 0 0 1-8.702-8.742c-2.013-3.786-3.015-8.206-3.015-13.267 0-5.108 1.003-9.553 3.015-13.336a21.133 21.133 0 0 1 8.67-8.778c3.761-2.063 8.224-3.099 13.386-3.099 4.261 0 8.054.709 11.367 2.125s5.969 3.414 7.953 5.987c1.991 2.577 3.171 5.564 3.555 8.952h-9.162a10.016 10.016 0 0 0-4.337-6.686c-2.367-1.629-5.491-2.44-9.376-2.44-5.115 0-9.032 1.52-11.754 4.561s-4.087 7.28-4.087 12.713 1.365 9.643 4.091 12.637c2.719 2.997 6.661 4.492 11.826 4.492 4.163 0 7.479-1.01 9.944-3.026s3.881-4.749 4.261-8.185h-12.434v-7.732H800v4.807c0 4.413-.941 8.275-2.809 11.595s-4.568 5.897-8.094 7.732-7.685 2.751-12.463 2.751c-5.166 0-9.64-1.024-13.43-3.066"/></svg>