<?xml version="1.0" encoding="UTF-8" standalone="no"?>
<!-- Created with Inkscape (http://www.inkscape.org/) -->
<svg
   xmlns:svg="http://www.w3.org/2000/svg"
   xmlns="http://www.w3.org/2000/svg"
   version="1.0"
   width="602.36218"
   height="157.57086"
   id="svg1894">
  <defs
     id="defs1896" />
  <g
     id="layer1">
    <g
       transform="matrix(1.249999,0,0,1.249999,-109.5334,-622.381)"
       id="g6348">
      <rect
         width="265"
         height="79"
         x="275.36993"
         y="520.20612"
         style="fill:white"
         id="rect3" />
      <path
         d="M 263.0625,512.09375 L 263.0625,609.78125 L 555.34375,609.78125 L 555.34375,512.09375 L 263.0625,512.09375 z M 314.0625,526.46875 C 325.2065,526.46872 335.15025,533.294 332.65625,544.625 L 331.5625,549.59375 L 316.1875,549.59375 L 317,545.28125 C 318.004,540.03724 315.72375,538.46875 312.59375,538.46875 C 310.28975,538.46873 306.77475,539.18625 305.21875,546.28125 L 299.0625,574.375 C 298.0515,579.08002 298.9615,582.57125 303.5625,583.03125 C 308.5375,583.49724 310.01225,578.35575 310.65625,575.21875 L 311.75,569.6875 L 327.125,569.6875 L 325.5625,577.25 C 322.9835,589.58897 313.79325,594.46875 302.65625,594.46875 C 299.51924,594.46872 293.6955,593.733 288.8125,589.125 C 285.5895,586.08699 280.34375,586.71875 280.34375,586.71875 C 280.34374,586.71878 281.45225,585.153 281.90625,582.75 L 289.9375,546 C 293.80351,528.13203 306.0555,526.46875 314.0625,526.46875 z M 346.5,527.59375 L 365.75,527.59375 C 379.65701,527.59372 387.481,537.529 385,550 C 382.88001,560.37203 377.0785,565.537 372.9375,567.375 L 375.78125,593.25 L 359.84375,593.25 L 358.5625,570.21875 L 352.75,570.34375 L 347.875,593.25 L 332.3125,593.25 L 346.5,527.59375 z M 399.96875,527.59375 L 415.34375,527.59375 L 401.0625,593.25 L 385.6875,593.25 L 399.96875,527.59375 z M 428.90625,527.59375 L 450.90625,527.59375 L 451.65625,567.125 L 465.84375,527.59375 L 488.84375,527.59375 L 474.65625,593.25 L 460.125,593.25 L 469.0625,554.8125 C 469.33749,553.4345 467.86875,552.968 467.21875,554.625 L 452.1875,593.25 L 440.03125,593.25 L 439.40625,554.90625 C 439.30725,552.60328 437.74375,553.25075 437.46875,554.71875 L 429.0625,593.25 L 414.34375,593.25 L 428.90625,527.59375 z M 502.40625,527.59375 C 529.48024,527.59476 536.53125,527.59375 536.53125,527.59375 L 534.125,539.28125 L 515.6875,539.28125 L 512.375,553.65625 L 528.71875,553.65625 L 525.96875,565.53125 L 509.875,565.53125 L 506.46875,581.5625 L 522.21875,581.5625 L 519.90625,593.25 L 488.40625,593.25 L 502.40625,527.59375 z M 359.125,539.375 L 354.96875,558.53125 L 362.34375,558.53125 C 368.05176,557.80324 370.4375,550.375 370.4375,550.375 C 372.37449,542.58497 368.22475,539.375 365.09375,539.375 C 365.09374,539.37498 359.952,539.375 359.125,539.375 z M 101.84375,549.21875 L 101.84375,609.75 L 257.625,609.75 L 257.625,549.21875 L 101.84375,549.21875 z "
         style="fill:#012557;fill-opacity:1"
         id="path17" />
      <path
         d="M 105.50093,576.77311 C 106.70193,576.10611 108.33693,576.40011 109.47093,575.77511 C 113.47793,573.64911 116.17393,568.54611 119.87393,566.02811 C 121.19693,565.02311 122.99893,566.13811 124.02193,564.95011 C 125.27193,563.90811 124.32193,562.68211 125.73693,561.48211 C 129.16793,558.86611 132.79993,557.51211 136.14593,554.98211 C 137.85493,553.69811 139.60693,551.20811 141.30493,549.21711 L 138.97693,549.21711 C 135.62593,552.40611 132.31093,555.57911 128.98493,558.23211 C 126.20993,560.45311 122.69893,561.24911 119.87493,563.43111 C 116.54793,566.00411 113.58893,570.18211 110.11593,572.53511 C 108.15593,573.90711 106.21293,573.35611 104.90793,574.47711 C 104.01893,575.03511 102.91693,576.33911 101.85093,577.31311 L 101.85093,580.04511 C 103.14793,578.89311 104.23293,577.45411 105.50093,576.77311 M 139.40393,607.61411 C 138.81593,608.41111 138.70593,609.28111 140.05293,609.56211 C 140.24293,609.61811 140.43893,609.68511 140.63493,609.75211 L 145.00293,609.75211 C 143.34893,609.13311 142.06793,608.41011 141.35193,607.61311 C 140.80093,606.97111 139.71093,606.97111 139.40393,607.61411 z M 151.69993,564.72911 C 150.33393,564.69211 149.63593,565.16411 150.17493,565.73411 C 150.63393,566.43811 151.79193,565.16411 151.76093,566.02811 C 151.06893,572.09211 142.35693,581.72311 146.47393,590.66911 C 151.60193,599.25811 153.42193,596.16411 158.68993,599.92611 C 160.80993,601.18811 163.05793,600.77811 163.47493,600.46511 C 164.28993,600.05511 164.13693,599.45411 163.47493,599.16611 C 156.66193,596.57411 150.09493,595.82711 147.86493,588.77011 C 146.63393,584.50611 147.70493,579.65411 148.51393,577.72411 C 151.26393,571.16211 155.93293,564.13511 160.87693,559.53111 C 165.51493,555.20911 170.30593,551.94011 175.68493,549.21711 L 169.39293,549.21711 C 167.97693,550.06011 166.64793,550.90511 165.43493,551.73511 C 161.02493,554.73611 157.73493,564.30611 151.69993,564.72911 z M 117.27593,596.57411 C 116.49793,595.53311 116.49793,596.23111 116.62693,597.21811 C 117.47893,603.41211 122.79593,605.42111 125.73693,609.56311 C 125.77993,609.62511 125.82193,609.68611 125.87193,609.75311 L 127.68493,609.75311 C 123.92893,605.40911 120.46793,600.61811 117.92493,597.21811 C 117.70493,597.00311 117.48993,596.78311 117.27593,596.57411 z M 257.64593,576.25811 C 257.52293,576.36211 257.38893,576.43011 257.19193,576.42411 C 256.54293,576.42411 256.19293,576.66211 255.62993,576.45411 C 255.12793,576.32511 254.80893,575.98811 254.58793,575.77411 C 253.96293,574.93411 253.74193,574.20011 254.57593,573.47011 C 254.99293,573.13311 255.49493,573.10911 256.22393,573.25511 C 256.56093,573.35411 256.97693,573.61011 257.19193,573.83111 C 257.36993,573.97211 257.51693,574.17411 257.64593,574.40711 L 257.64593,567.72411 C 254.36193,564.90711 250.67393,556.92011 248.08293,554.33811 C 246.21393,552.46611 244.21693,550.77211 242.09693,549.21611 L 237.66793,549.21611 C 240.58393,551.97011 243.38393,554.88311 246.78393,556.28611 C 248.22393,556.88911 247.93593,558.97211 245.44193,558.33811 C 240.18593,555.90611 238.71493,552.40411 235.06393,549.78811 C 234.79393,549.59211 234.51893,549.40511 234.23093,549.21511 L 229.34193,549.21511 C 237.69193,553.05611 247.62893,563.77811 250.68593,569.27911 C 252.83593,573.15111 252.19293,578.14411 255.23793,580.97411 C 256.00393,581.61211 256.11393,582.62211 255.23793,582.92211 C 254.15393,583.13711 251.99093,583.68811 251.88093,581.28011 C 251.72193,563.96711 237.21993,556.24111 225.84993,549.67911 C 225.48193,549.51611 225.17593,549.35711 224.91893,549.21311 L 217.08293,549.21311 C 231.62693,552.67811 242.18293,561.59211 247.42693,573.82911 C 251.69793,583.77811 252.99593,597.05511 251.72193,609.74911 L 252.92293,609.74911 C 253.78693,606.48911 255.77193,602.63611 253.93993,599.81711 C 252.42693,597.90611 253.93993,595.91511 253.93993,593.96111 C 253.84793,592.61311 254.63793,592.46611 255.23893,593.96111 C 256.76393,598.47011 256.43293,604.41311 255.53893,609.74911 L 257.64593,609.74911 L 257.63393,592.68611 C 257.44993,591.38711 256.95393,590.22911 255.89393,588.76511 C 254.25193,586.36411 254.68693,585.28611 255.89393,586.16711 C 256.51893,586.57111 257.11993,587.57611 257.64593,588.89411 L 257.64593,576.25811 L 257.64593,576.25811 z M 255.35393,589.86011 C 255.73993,591.26211 255.68493,592.44511 255.23793,592.66611 C 254.82693,592.83811 254.43493,592.43311 254.23293,591.77711 C 253.49193,589.03911 253.44893,588.26711 252.89793,586.23311 C 252.28493,584.04011 254.64993,587.70311 255.35393,589.86011 z M 250.31193,564.19011 C 250.15893,566.24911 249.22793,563.40611 248.08193,562.78111 C 247.33393,562.10311 246.83193,561.78211 247.81193,561.06211 C 248.28993,560.52311 248.08193,559.96211 248.08193,559.53011 C 248.32093,558.18211 249.58893,558.18211 250.02993,559.53011 C 250.31193,560.36611 250.76493,560.61211 251.35293,561.21811 C 252.33893,561.94711 251.86093,561.94711 250.84493,562.60611 C 250.63093,562.79911 250.31193,563.40611 250.31193,564.19011 z M 255.23793,570.58011 C 254.55793,572.05711 253.69393,571.39411 253.28993,570.58011 C 252.73193,569.36711 253.55293,568.28911 251.99093,567.32711 C 250.84493,566.55511 250.15893,565.92411 251.33493,566.02811 C 251.54993,566.02811 251.75793,566.16911 251.99093,566.02811 C 252.16193,565.85011 251.99093,565.59911 251.99093,565.37911 C 251.64793,563.39411 254.36793,566.11411 255.23793,567.32711 C 255.85693,567.89011 256.19993,569.43411 255.23793,570.58011 z M 249.55893,549.21611 L 245.52793,549.21611 C 248.58493,551.48911 251.28693,554.09911 253.28993,556.93211 C 254.93193,559.26011 255.95493,561.88311 257.64593,563.98011 L 257.64593,559.64911 C 255.15193,556.18811 252.54193,552.87911 250.03093,549.78811 C 249.80393,549.53811 249.65093,549.35511 249.55893,549.21611 z M 250.18993,549.21611 C 252.33493,550.32211 255.00493,553.03311 257.64593,556.28611 L 257.64593,552.29711 C 255.85693,551.60811 254.30693,550.50211 252.87393,549.21511 L 250.18993,549.21511 L 250.18993,549.21611 z M 247.42593,586.17111 C 246.51893,585.06811 248.71293,584.37011 248.08193,582.27511 C 247.36493,579.61611 245.68593,574.75711 244.17293,571.87911 C 231.77293,548.24011 190.13093,541.27111 169.33793,562.12911 C 168.91493,562.57211 168.35193,563.19711 167.32793,562.38611 C 165.20793,560.17111 160.68693,568.11211 160.01893,573.41711 C 159.94493,578.45911 159.30793,580.91511 161.52593,583.57411 C 161.74693,583.79511 161.88793,583.93511 162.23093,584.16211 C 164.44893,585.51611 162.80693,581.40511 164.77993,581.62611 C 165.80893,581.94411 168.08793,582.83911 169.98793,582.27511 C 170.89493,582.00511 172.33393,579.83111 173.88993,580.32111 C 177.81693,581.24611 184.59293,580.67011 191.80993,578.30511 C 196.27593,577.10411 199.15593,577.10411 201.77193,577.97411 C 203.13193,578.32911 203.29693,579.76311 203.13193,581.01911 C 201.72893,590.42911 194.29193,587.37311 189.79493,593.19211 C 187.94493,595.26311 187.39993,591.61211 185.05993,591.89311 C 184.07393,592.10211 184.12793,592.92211 182.17393,593.67611 C 175.79593,595.71611 166.03693,596.57311 159.57293,593.96411 C 157.01793,593.03911 155.08193,591.93011 154.36493,588.76911 C 153.56193,585.32611 152.77193,580.92711 153.06593,578.37811 C 153.31093,576.25811 156.79693,574.24211 157.62393,572.53311 C 163.49993,560.33311 173.76793,553.79011 186.36993,549.21611 L 180.01593,549.21611 C 171.15093,553.50811 163.67693,559.18711 159.57193,564.72911 C 152.64893,574.09011 147.17193,585.38711 155.08093,593.79211 C 159.54093,597.37011 175.81293,600.29911 182.99893,594.61911 C 184.73293,593.19111 186.24593,593.28411 186.36193,594.38711 C 186.41093,595.03011 186.30693,595.91211 184.83693,596.40311 C 180.48093,598.35111 175.73293,599.46611 166.59793,599.22111 C 164.69893,599.38611 164.58193,600.31111 167.30893,600.47011 C 186.79093,601.80611 199.80993,591.50711 204.26993,582.86311 C 205.51993,580.52911 206.28593,577.37411 203.50993,576.18511 C 197.18093,573.63611 189.79293,574.65411 181.19093,578.45811 C 179.17493,579.38311 177.00093,579.43711 175.84293,579.02111 C 174.49493,578.73311 175.25493,577.48311 176.49193,577.07911 C 180.61493,575.55911 181.96893,574.97211 186.09193,573.45811 C 190.44193,572.59511 193.81793,574.05911 197.32193,573.17711 C 203.01993,572.43011 209.76493,574.76411 208.30093,577.15911 C 206.25493,580.02611 208.03093,583.81811 205.77693,587.47011 C 204.74093,589.14911 201.72093,589.27111 200.56893,590.72311 C 199.58893,591.99711 200.40893,592.92211 199.53293,594.16611 C 198.45493,595.74611 194.39893,596.86811 192.76293,597.86611 C 191.04093,598.68111 191.96693,599.33011 193.41193,599.16511 C 200.65293,598.87711 212.08493,588.13111 209.20593,580.01911 C 208.46493,577.55611 209.39593,577.18911 210.19193,577.00511 C 211.59493,576.67411 211.73593,577.98511 211.63193,580.31911 C 211.31293,598.38011 192.64593,605.33411 176.63693,609.75111 L 187.84793,609.75111 C 189.27493,608.67911 190.43893,607.44111 191.45593,606.96311 C 199.56793,603.16511 206.50293,599.22011 210.98093,592.02111 C 212.33493,589.84611 213.27793,585.74211 213.39493,583.27911 C 213.76893,575.15511 209.76193,572.01811 206.61293,571.89611 C 204.49893,571.73711 204.19893,570.79911 203.16993,570.57911 C 199.68993,569.83811 198.36093,572.26411 193.73493,572.14211 C 192.31893,572.01911 191.82293,571.77411 191.45593,571.22311 C 191.02093,570.47511 191.32793,569.74011 192.37493,569.25011 C 197.92593,566.90911 197.17793,570.22911 203.16993,568.62511 C 207.54493,567.27611 214.60793,573.86911 215.53293,579.02111 C 215.98693,581.61911 214.12993,588.37011 212.92893,590.72211 C 206.92493,602.51611 202.87493,604.24311 192.28293,609.75111 L 199.32293,609.75111 C 200.39493,609.61611 201.46093,609.43811 202.52693,608.91111 C 203.80693,608.18211 204.09493,606.03211 205.13093,605.01511 C 211.42293,598.76611 216.89993,594.50211 216.83893,581.62411 C 216.92393,579.98211 217.19993,578.48711 218.11893,580.03711 C 218.53593,580.74211 218.66393,581.18311 218.79293,582.27311 C 219.07493,584.33211 219.72393,586.94111 218.70093,592.04411 C 217.92293,596.51111 212.70893,603.18911 205.74993,609.75011 L 209.08893,609.75011 C 212.10293,606.59511 214.70693,603.43411 216.83893,600.46211 C 226.54893,586.92911 217.18793,571.98611 208.02293,565.64611 C 206.31993,564.56811 206.70593,563.53211 208.12093,563.55611 C 209.19893,563.63611 210.39993,563.74111 211.63193,564.72711 C 213.67793,566.19711 211.81593,568.08411 214.23593,569.92211 C 229.04393,581.19411 222.71493,597.72411 212.92493,609.75011 L 216.86993,609.75011 C 224.58293,596.78611 230.54393,577.90411 215.53493,567.32411 C 214.07693,566.34411 213.95393,565.76711 215.53493,566.02511 C 225.71093,567.86311 225.03693,577.83711 227.24893,588.11711 C 227.40793,588.83411 228.54793,591.60911 227.90493,593.31811 C 225.81593,598.83911 223.26693,604.51111 220.14893,609.75011 L 222.64293,609.75011 C 225.89593,603.78911 226.60693,599.27911 226.81493,598.17711 C 226.98693,596.77411 227.71593,596.25911 228.55493,597.86411 C 230.15993,600.69511 225.64493,605.44211 224.64593,607.61111 C 224.31493,608.34611 224.05793,609.05111 223.83693,609.75011 L 226.92493,609.75011 C 227.18193,608.86111 227.47593,607.94211 227.90493,606.96211 C 230.20793,601.66311 231.70293,585.01111 228.11893,578.95211 C 227.38393,577.50611 227.02193,576.36611 227.65293,575.63211 C 228.02693,575.30711 228.68193,575.00711 229.30693,575.93811 C 233.22793,584.46011 234.61293,597.67511 231.15693,607.61211 C 230.90593,608.33611 230.58693,609.04011 230.22593,609.75111 L 232.43193,609.75111 C 233.72393,605.76311 234.47793,601.45511 234.41693,598.51511 C 234.32493,596.65911 235.79493,596.63411 236.36493,598.51511 C 236.84293,600.31011 235.84993,603.14111 237.01393,605.01511 C 237.40593,605.50511 238.11693,605.48111 238.58893,603.90111 C 241.97093,595.56911 240.71393,583.26611 235.95393,577.26211 C 235.43893,576.50211 235.43893,575.93911 235.05893,575.12411 C 234.64893,574.46911 233.74193,574.57211 234.04193,576.91311 C 235.21793,584.52111 237.06793,585.59411 237.52793,595.24911 C 237.69893,597.77311 234.88193,596.38911 235.05893,594.83311 C 235.02893,587.26111 235.05293,580.15311 231.57293,575.60711 C 230.99693,574.79311 230.61693,574.00311 230.17593,573.57411 C 228.65693,572.40311 227.81093,574.46911 227.18693,573.10811 C 223.95193,566.85911 219.49193,567.42211 213.59193,562.24011 C 213.26093,561.97611 212.99793,561.71311 212.77693,561.49211 C 212.37893,561.15511 212.01093,560.65911 213.58593,560.82711 C 221.26893,561.55611 227.81193,567.75311 231.18793,572.97311 C 231.92293,573.97811 233.08093,574.94611 233.88293,573.94711 C 234.56293,572.91811 233.99293,572.07911 233.30693,571.61311 C 225.41593,566.93811 223.15593,560.06211 211.63193,558.88311 C 209.60993,558.69011 212.25093,561.54511 210.11193,561.18611 C 206.59493,560.84611 207.36093,559.66111 205.77493,557.57811 C 205.45593,557.01511 205.83593,556.91911 206.42993,556.93211 C 227.41293,558.15811 236.92793,568.81411 241.57193,586.17111 C 243.70393,594.16611 240.71393,602.08811 239.83793,609.75211 L 242.51493,609.75211 C 249.54793,584.73711 237.37493,562.82311 218.92193,556.48811 C 215.68093,555.55311 216.06093,553.71011 218.05793,553.97311 C 237.36893,558.73311 249.87893,579.98911 244.81893,603.71711 C 244.22493,605.85611 245.64593,606.56011 244.81893,609.56211 C 244.80693,609.62411 244.78793,609.68511 244.76993,609.75211 L 247.02393,609.75211 C 247.23793,608.15211 247.37293,606.57211 247.42193,605.01611 L 247.42193,590.06811 C 247.42193,588.88511 247.71593,588.96511 248.07793,590.06811 C 249.99493,595.54511 250.01393,602.48611 248.76993,609.75311 L 249.82993,609.75311 C 251.30693,602.79911 252.47093,593.56111 250.02593,588.12011 C 249.60193,586.82711 248.15593,587.06011 247.42593,586.17111 z M 199.92193,552.38411 C 201.25693,551.86611 201.85793,552.05311 202.53193,552.38411 C 203.75693,553.47811 203.57393,555.02811 202.52593,555.21511 C 201.38593,555.43611 200.31493,555.11711 199.64693,554.45511 C 198.61093,553.78411 199.16793,552.56211 199.92193,552.38411 z M 205.13493,560.18311 C 205.50893,560.46511 205.31293,560.66111 205.13493,560.82911 C 204.61993,561.28311 203.82993,561.25511 203.17493,560.82911 C 202.40893,560.27811 202.40893,559.48111 203.17493,559.53011 C 204.14293,559.48111 204.71293,559.79411 205.13493,560.18311 z M 201.87593,560.18311 C 201.65593,560.39811 200.81593,560.90611 200.02593,560.83611 C 197.02993,560.79311 197.45893,560.49311 196.22793,560.20811 C 194.32893,559.41711 194.16893,559.10511 193.85093,558.72211 C 192.98693,557.26111 194.21793,556.57211 196.03793,556.79511 C 197.55793,556.79511 198.62893,556.82611 200.52893,557.11011 C 201.31293,557.26611 201.99293,557.97411 202.20793,558.62611 C 202.42693,558.84111 202.11493,559.85811 201.87593,560.18311 z M 163.47493,573.83311 C 162.78893,575.89211 163.75693,577.90111 162.86893,579.32211 C 162.58693,579.66511 162.42193,580.08211 162.67893,580.84211 C 163.40793,582.98711 161.73593,581.63211 161.52693,580.32111 C 160.80993,576.23411 162.96693,573.46611 162.23193,570.25511 C 161.79093,568.35711 163.38993,569.26911 165.52793,565.61111 C 166.70393,564.09111 168.21693,563.96911 168.03993,564.72911 C 167.51893,568.65011 164.54193,570.67111 163.47493,573.83311 z M 176.49393,571.22311 C 175.70993,572.35011 175.29293,576.30111 173.88993,577.72311 C 172.73193,578.90611 171.56793,578.31711 169.33793,580.32111 C 167.92893,581.31311 165.17793,580.87211 165.43593,579.67711 C 165.58893,574.44511 170.44693,564.96111 173.24093,562.12811 C 175.09693,560.25311 177.06393,560.19511 178.76093,558.11811 C 179.58193,557.17211 180.46393,558.08711 181.70193,557.57911 C 183.19093,556.73411 181.35893,555.40411 183.25193,555.15311 C 189.96693,554.32311 189.33493,552.83111 195.40093,552.59211 C 198.06593,552.43611 197.74093,553.91511 195.62793,554.61311 C 192.58293,555.75311 190.27393,555.45911 186.90993,556.93211 C 185.34193,557.77411 186.41293,559.57611 183.65093,560.18211 C 181.16393,560.74011 179.92593,560.01411 177.79993,561.48111 C 172.84993,564.66711 172.72693,573.50711 167.83893,576.91911 C 167.39193,577.33611 166.76693,577.64811 166.91993,578.24811 C 167.17093,578.56111 167.55693,578.53611 168.04093,578.37711 C 171.93693,576.90611 171.94993,574.05811 173.89193,570.57811 C 176.01793,566.77311 182.94093,562.10811 187.55993,560.82811 C 189.45293,560.06211 188.20293,562.15811 190.81293,561.48111 C 191.60393,561.27611 192.01393,560.32611 194.06593,560.18211 C 195.72593,560.04411 196.09993,561.78111 194.06593,562.12811 C 187.19693,563.82811 179.96793,566.23611 176.49393,571.22311 z M 197.24493,566.78811 C 189.18793,566.78811 184.92493,570.01711 180.40293,573.83311 C 179.80193,574.36011 179.12293,574.66611 178.87793,574.17611 C 178.20393,573.49611 178.90793,571.86611 179.12293,571.64611 C 183.44193,565.79511 189.83793,563.94611 196.69293,563.65211 C 200.02593,563.46611 200.15493,566.60311 197.24493,566.78811 z M 205.69893,564.44711 C 203.97093,565.05311 204.56493,565.47611 203.85493,565.92911 C 203.05193,566.29711 201.99893,566.47511 201.44093,566.29711 C 199.93393,566.06411 199.52993,564.75311 200.02593,563.89511 C 200.34393,563.36911 200.80393,563.17211 201.20193,563.03211 C 203.22993,562.29111 203.53593,563.17311 205.48393,563.39311 C 206.34893,563.50911 206.56293,564.19011 205.69893,564.44711 z M 207.08393,554.33811 C 205.24593,556.89611 203.67793,556.22511 203.83093,553.68211 C 203.98993,552.19611 205.43593,552.02811 206.63693,552.98711 C 206.85093,553.20211 207.48193,553.89711 207.08393,554.33811 z M 211.72793,555.21411 C 211.15193,556.36211 209.20393,556.13011 208.38293,554.98111 C 207.71593,553.99211 207.86793,553.10611 208.21693,552.89211 C 208.43793,552.67511 209.08693,552.48511 209.37493,552.48511 C 209.90193,552.46111 210.28793,552.54911 210.98593,553.04011 C 211.77693,553.75311 211.96093,554.36911 211.72793,555.21411 z M 214.67993,554.35611 C 213.38193,554.06511 213.42993,553.71011 212.93393,553.03911 C 212.44993,552.38311 212.73793,551.74011 214.60593,552.35911 C 215.39593,552.58011 215.64093,553.22611 215.70893,553.68211 C 215.73493,553.96711 215.51993,554.54311 214.67993,554.35611 z M 257.49893,549.21611 L 255.30593,549.21611 C 256.05893,549.82011 256.83093,550.39611 257.64593,550.94411 L 257.64593,549.35411 C 257.59093,549.31211 257.54793,549.26211 257.49893,549.21611 z M 144.60593,568.62611 C 144.17093,569.23811 144.67893,569.77711 145.51893,569.29311 C 148.72293,566.82411 153.06693,558.93711 156.96893,555.63411 C 159.01493,553.90411 162.23193,551.62111 166.12193,549.21711 L 162.26193,549.21711 C 159.67693,550.92411 157.25093,552.65111 155.02093,554.33911 C 150.26693,557.91911 148.59993,564.27511 144.60593,568.62611 z M 144.67893,551.79611 C 147.47893,551.33011 149.79493,550.40211 151.84693,549.21611 L 146.87793,549.21611 C 146.05093,549.62711 145.22393,550.05211 144.40893,550.53911 C 143.31993,551.30611 143.66893,552.06511 144.67893,551.79611 z M 148.51493,555.63411 C 148.26393,555.88511 148.03093,556.27411 148.51493,556.28711 C 151.83493,555.56111 155.77493,552.48511 159.60393,549.21711 L 155.22893,549.21711 C 152.79093,551.35711 150.51793,553.53911 148.51493,555.63411 z M 116.68093,555.94311 C 112.09793,559.29111 108.56293,560.92411 102.95793,563.43011 C 101.33393,564.16411 102.03893,566.24811 103.60693,566.02811 C 107.28293,565.23111 108.80793,562.55411 111.41793,560.82911 C 113.96693,559.14711 116.81493,558.78011 119.22293,556.93311 C 121.29993,555.34711 122.53693,552.23411 124.43093,550.43611 C 124.77393,550.11411 125.27693,549.69511 125.88893,549.21711 L 122.89293,549.21711 C 121.72893,550.30411 120.68093,551.38911 119.87193,552.38411 C 118.80093,553.56611 118.91793,554.41811 116.68093,555.94311 z M 110.76893,551.08811 C 112.53993,549.92111 116.38693,550.21511 118.40893,549.21611 L 111.12493,549.21611 C 107.97593,550.28811 104.82693,551.06011 101.84993,552.22711 L 101.84993,555.30911 C 104.23893,554.63211 106.06493,555.19011 108.71093,553.60311 C 109.49493,553.15611 109.78893,551.74711 110.76893,551.08811 z M 107.50993,571.22311 C 111.42493,569.11611 117.10393,562.25311 121.17793,559.53011 C 122.96093,558.33911 125.47893,558.35711 127.03493,556.93211 C 128.79293,555.32711 129.63293,552.51811 131.58693,551.08711 C 132.29793,550.56611 133.38793,549.93211 134.62593,549.21511 L 130.26993,549.21511 C 129.71793,550.10011 130.22693,550.72811 128.98293,551.73311 C 125.09193,554.98011 120.74293,557.14011 116.62593,560.18111 C 113.06593,562.52811 112.20893,565.47411 110.11393,566.67611 C 108.93093,567.69311 105.50093,568.91811 101.84893,570.54811 L 101.84893,573.04711 C 102.19193,572.85111 102.54093,572.65511 102.93293,572.45911 C 104.45893,571.56611 106.06393,572.16711 107.50993,571.22311 z M 116.79193,550.88611 C 112.98093,554.96311 107.59593,557.26711 101.84993,559.24911 L 101.84993,561.89011 C 108.11093,559.42411 113.81493,554.70611 118.57493,551.73511 C 121.00693,549.99511 118.09693,549.73111 116.79193,550.88611 z M 140.94793,552.93811 C 137.29693,558.85411 123.87993,568.04311 117.27593,571.22311 C 115.67693,571.74911 115.37693,573.57611 117.27593,573.17711 C 119.26693,572.59511 121.48493,571.44311 123.78193,569.96011 L 123.78193,569.92411 C 123.78793,569.93611 123.80593,569.93611 123.80593,569.94811 C 130.83893,565.40811 138.66293,557.76811 143.30693,553.68211 C 144.93693,552.33511 142.00193,551.58111 140.94793,552.93811 z M 148.51493,553.68311 C 148.80293,552.81311 148.23893,552.45411 147.20993,552.38411 C 146.26693,552.34711 145.18193,553.38911 145.91093,554.33911 C 146.70093,554.96911 148.09193,554.77011 148.51493,553.68311 z M 141.80593,556.47611 C 141.29693,558.07511 141.08293,557.89411 140.05393,558.88411 C 139.65593,559.30111 139.39193,559.84011 140.05393,560.18211 C 140.88093,560.62311 143.09293,559.97111 143.95693,558.23111 C 144.33693,557.43511 144.53893,557.05211 144.60593,556.28611 C 144.78293,554.80111 142.17993,555.04611 141.80593,556.47611 z M 144.53893,559.68711 C 143.86493,561.81611 145.07793,561.55311 143.82193,562.91611 C 143.34393,563.44211 143.53993,563.89511 143.95693,564.08011 C 145.68993,564.61911 148.01893,563.16111 147.86593,561.48211 C 147.93293,559.84011 147.94593,559.07411 148.51493,558.23211 C 149.26793,557.20311 147.57693,556.69111 146.54793,556.99111 C 145.60493,557.40411 144.93093,558.13011 144.53893,559.68711 z M 181.86093,558.69111 C 182.52893,559.21211 182.78593,559.28511 183.72993,559.12911 C 184.74093,558.69111 185.46393,557.83711 184.01193,557.07711 C 183.06193,556.70311 183.05593,557.34111 181.70193,557.57911 C 181.10093,557.96211 181.51193,558.24411 181.86093,558.69111 z M 136.31693,561.86511 C 134.42393,564.31811 132.06593,564.85711 130.28893,567.32711 C 126.18993,573.04911 123.73993,578.63711 118.06693,582.64911 C 115.64093,584.10111 116.95193,586.41711 117.92593,587.47011 C 118.14693,587.69111 119.29193,588.00911 120.29693,585.85311 C 123.13293,578.47011 122.94993,580.59611 127.68593,575.77511 C 129.24793,574.18811 128.86793,571.77411 130.28993,569.92411 C 132.49593,567.08111 136.12293,566.73711 137.76993,563.35011 C 138.17393,562.38511 138.88493,562.34811 139.47893,561.94111 C 142.24693,560.47711 137.62193,559.22411 136.31693,561.86511 z M 142.00193,561.48211 C 140.41493,563.77911 133.74993,568.29511 134.84593,570.58011 C 135.12793,570.86111 135.20093,571.02711 135.83893,570.86111 C 139.73493,569.45911 139.64293,565.02311 142.65793,562.78111 C 144.74093,561.00411 142.79893,560.15211 142.00193,561.48211 z M 143.95693,567.32711 C 145.10293,566.75111 145.72793,565.02311 144.27493,564.71711 C 143.98093,564.66811 143.04993,564.36211 142.60793,565.11011 C 142.02593,566.16411 141.08893,564.91411 140.59893,566.53111 C 140.44593,566.82511 140.42693,567.10711 140.21293,567.49911 C 139.96193,568.03211 140.46993,568.56511 140.70293,568.62711 C 142.19793,569.03011 142.59093,568.05511 143.95693,567.32711 z M 143.95693,580.97611 C 145.31693,577.36811 146.41893,572.81611 149.15793,570.58011 C 149.89293,569.91211 150.68293,567.75611 149.26193,568.45411 C 148.56393,568.84611 147.99393,569.15211 147.33193,569.87511 C 145.53093,571.51811 142.58393,577.77811 142.32693,580.01511 C 142.07593,581.91411 143.53393,582.32411 143.95693,580.97611 z M 140.16393,571.83511 C 141.49893,570.57311 140.69093,569.75811 139.40393,569.92411 C 138.04393,570.19411 137.96493,571.76211 138.74893,572.53311 C 139.25093,572.85211 139.94393,572.05611 140.16393,571.83511 z M 138.09993,584.87311 C 137.54193,579.55611 145.10793,575.48711 143.42993,571.36411 C 142.90293,570.19411 136.48893,579.70211 136.73393,583.66611 C 137.05193,592.48211 140.47093,596.31711 143.84693,601.96611 C 144.77793,603.63211 145.81293,603.27111 145.61793,601.80711 C 144.42193,595.59411 138.87193,592.27311 138.09993,584.87311 z M 134.27093,574.36011 C 134.63893,573.53911 135.23893,572.94411 135.05493,572.16711 C 134.78493,571.64611 134.49093,571.56611 133.63393,571.79911 C 127.37293,573.45311 129.87793,581.73711 126.38593,586.17211 C 125.76693,586.95611 123.68993,586.11011 123.78193,588.12011 C 123.99593,590.72411 124.21693,593.32111 124.43093,595.91911 C 124.62093,596.94211 126.48293,597.12611 126.38593,595.91911 C 126.01793,592.91111 126.01193,591.13511 126.38593,588.12011 C 126.55693,587.15211 127.30493,587.26811 127.68493,588.76911 C 127.86293,589.71811 130.76693,589.68811 130.28893,588.12011 C 129.53593,585.70611 127.82593,587.01111 128.34093,585.52211 C 129.68193,581.42911 132.70793,578.02311 134.27093,574.36011 z M 138.74893,573.17711 C 138.38693,572.94411 137.85993,572.80311 136.89793,573.23911 C 136.67093,573.33111 136.29193,573.61211 136.07093,573.85711 C 135.45793,574.59811 134.94393,576.01411 136.14393,576.42411 C 136.80593,576.63211 137.74893,575.91511 138.89493,575.29711 C 139.60693,574.88611 139.71693,573.80811 138.74893,573.17711 z M 116.62593,573.83311 C 112.23993,574.72811 107.20893,578.74011 103.60693,580.97711 C 102.07493,582.01911 102.93893,583.10311 103.60693,582.92511 C 109.45793,581.95711 112.31893,577.69911 116.62593,575.12611 C 117.31893,574.69011 117.75893,573.83311 116.62593,573.83311 z M 120.52893,577.08011 C 122.79593,575.69511 122.27493,574.10211 120.52893,575.12611 C 116.55893,577.23911 114.33493,581.36211 110.76893,583.57411 C 107.60793,585.53511 104.96093,586.84511 101.84893,587.66711 L 101.84893,589.83611 C 106.92793,588.34711 111.42493,585.82211 115.97593,582.27511 C 117.76593,580.87211 118.46393,578.45911 120.52893,577.08011 z M 135.49593,577.72311 C 134.36293,577.90711 133.54193,578.42711 132.89193,579.02211 C 132.19993,579.66511 131.43393,580.90311 132.89193,581.62611 C 133.57793,581.84111 133.97593,581.76111 134.63793,581.57711 C 135.04193,581.45411 135.83893,581.02511 136.04693,580.81111 C 137.23593,579.65311 136.99693,577.32511 135.49593,577.72311 z M 171.72193,590.74811 C 167.47593,590.80411 165.20893,590.64411 162.83193,588.76911 C 158.05993,585.62011 157.67993,575.40111 156.32593,577.72311 C 155.44993,580.29611 155.90893,586.04911 157.62493,588.11911 C 163.01593,595.71011 186.40093,591.13411 194.53093,587.43211 C 197.22693,586.24411 199.86093,584.49211 201.22693,582.27411 C 202.04193,580.47311 200.73693,579.16811 197.58193,579.43711 C 187.96893,580.74311 183.74193,585.31311 173.30293,583.13811 C 171.88193,582.86211 171.28693,582.53111 170.63793,583.57311 C 170.63793,584.00211 170.09293,584.65711 173.30293,585.25211 C 183.38093,587.21211 188.04993,584.66411 196.27693,581.33711 C 198.34193,580.36311 199.53593,581.23311 198.17593,582.59311 C 195.02093,585.52811 184.15293,589.62611 177.65793,589.16711 C 174.86993,588.97111 171.01693,587.31611 168.78093,585.63211 C 166.71693,584.33311 163.44493,583.95311 164.80493,586.55711 C 166.65493,589.07611 168.94693,589.06311 173.08193,589.71211 C 174.76693,590.04311 175.74693,590.85211 171.72193,590.74811 z M 127.68493,579.67711 C 128.49393,578.59911 126.33093,577.77811 125.73693,579.02211 C 124.53593,580.91511 123.29893,583.67111 121.82793,585.52211 C 121.67493,585.85311 121.52793,586.11011 121.71093,586.56311 C 121.93193,587.13311 122.83193,586.82111 123.13193,586.17111 C 124.46193,583.79411 125.77893,581.46611 127.68493,579.67711 z M 141.35293,582.27511 C 139.98693,581.52811 141.97793,586.49611 142.65793,588.76911 C 145.67193,598.92611 146.54793,600.38511 156.32593,603.71711 C 158.61793,604.48911 164.13093,606.10711 166.73493,604.36111 C 167.88093,603.30111 169.95193,604.63111 171.94293,604.36111 C 172.83793,604.17211 173.38293,603.46111 171.94293,603.06211 C 161.74293,601.30411 151.54193,603.46011 145.91193,595.27511 C 143.64993,591.98611 144.47093,584.72511 141.35293,582.27511 z M 132.24293,584.22311 C 129.99993,594.63811 138.15493,600.42711 143.30693,606.96411 C 144.12093,608.05511 144.88093,608.32411 144.60593,606.96411 C 143.68093,602.86011 140.75793,603.16611 138.74893,600.46411 C 136.00393,596.77611 133.52293,589.72511 134.19093,584.87211 C 134.38093,582.98611 132.79393,582.56911 132.24293,584.22311 z M 148.51493,584.87311 C 148.17793,586.49611 148.31293,586.81511 148.50193,587.78911 C 148.93093,589.12511 150.39493,588.95911 150.46893,587.47111 C 150.46893,585.16711 148.87593,583.40211 148.51493,584.87311 z M 114.67193,586.82111 C 115.00893,586.38011 114.99693,585.44211 114.78193,585.44211 C 112.95593,584.81111 107.50993,592.51811 106.21093,593.32111 C 105.13893,593.97611 103.20893,593.90911 101.84893,594.27111 L 101.84893,596.42711 C 108.56393,595.58211 112.20893,592.02211 114.67193,586.82111 z M 113.89393,598.60811 C 115.21693,596.03511 118.35993,587.40911 116.31393,589.71811 C 114.75193,592.31611 114.02293,594.09911 112.07493,596.57311 C 110.98393,597.67711 111.24193,598.64411 112.07493,599.16511 C 112.39893,599.50211 113.36693,599.65011 113.89393,598.60811 z M 121.11693,598.42411 C 121.45393,599.20811 121.90093,599.77211 122.12193,599.99211 C 122.56893,600.69011 123.19993,601.10711 123.13293,600.46411 C 122.14093,596.31711 121.20893,594.24511 121.82793,589.42411 C 121.82793,587.63511 119.96493,587.78811 119.87293,589.42411 C 119.98393,594.25811 119.05793,593.89111 121.11693,598.42411 z M 129.63893,592.66611 L 129.63893,591.36711 C 129.57793,589.83611 128.30893,590.27611 128.33993,591.36711 C 128.90993,597.59211 132.50593,603.57111 136.14493,606.96511 C 136.60393,607.40611 138.32593,608.54611 138.09993,607.61411 C 137.22393,603.47211 133.46793,601.70911 131.58693,598.51611 C 130.65593,597.05211 129.61393,595.04211 129.63893,592.66611 z M 127.61093,597.55411 C 127.52493,596.59811 126.40393,596.45711 126.31193,597.55411 C 126.37893,600.06611 126.03693,600.22511 127.18793,601.47511 C 127.52493,601.87911 127.61093,602.53611 127.61093,602.74911 C 127.37193,603.37411 128.41993,603.88911 128.26693,602.74911 C 128.04593,601.02211 127.83193,599.28211 127.61093,597.55411 z M 109.46993,598.51611 C 106.95193,597.29711 105.86193,599.28211 101.84893,599.31311 L 101.84893,601.64711 C 105.11393,602.08811 107.05693,600.47011 109.72193,602.59011 C 110.45693,603.22111 111.28393,603.00011 111.41893,602.41811 C 111.68793,600.61811 110.60993,599.05511 109.46993,598.51611 z M 189.51293,599.82111 C 189.40893,598.16811 186.02693,601.10811 184.30493,601.76311 C 181.55993,602.80511 176.65293,601.99511 174.41093,602.40711 C 173.65793,602.57811 172.63993,603.46111 173.88993,603.71811 C 175.56293,603.79211 175.85693,603.51611 177.10693,603.30211 C 178.57693,603.02611 179.81493,603.06311 180.40293,603.06311 C 182.06293,603.00111 181.16893,603.89011 180.21293,604.41711 C 173.10593,608.19611 151.92093,607.93411 147.20993,603.06311 C 146.75693,602.51111 145.86793,602.50011 145.97293,603.46111 C 146.27893,605.08411 146.87293,607.18611 150.10793,607.92111 C 160.25293,610.20011 187.48493,609.35411 189.51293,599.82111 z M 114.02293,601.12011 C 112.25193,600.69811 112.28293,602.66411 113.37393,603.71811 C 115.38293,605.72811 117.39893,607.73811 119.41493,609.75311 L 121.58993,609.75311 C 120.35693,607.69411 115.13693,601.56111 114.02293,601.12011 z M 107.99993,603.55211 C 107.48493,603.06211 106.32793,603.07411 105.56193,603.71711 C 105.02293,604.11011 104.83893,604.71011 105.56193,605.66511 C 105.78293,605.88011 105.99093,606.10111 106.21093,606.31411 C 106.95893,606.93911 108.37393,607.20311 109.46993,606.31411 C 110.05193,605.45811 109.04793,604.37411 107.99993,603.55211 z M 134.19093,608.26311 C 132.23093,606.93411 131.48893,605.21211 128.98293,604.36111 C 126.64293,603.76011 130.77193,607.46711 132.24193,609.56211 C 132.30893,609.62911 132.37693,609.69711 132.45593,609.75211 L 133.95693,609.75211 C 134.04193,609.69611 134.11593,609.62911 134.18993,609.56211 C 134.65093,609.22511 134.78493,608.68011 134.19093,608.26311 z M 108.28793,609.75211 C 105.78793,608.55111 103.74193,607.25211 101.84893,605.70811 L 101.84893,609.75211 L 108.28793,609.75211 z M 114.33493,609.75211 L 115.99493,609.75211 C 115.02693,609.14611 114.03493,608.54511 112.99293,607.95011 C 110.64693,606.75111 112.09893,608.01211 114.33493,609.75211 z M 235.71893,607.61411 C 235.43093,608.33811 235.11793,609.04811 234.81193,609.75311 L 237.23193,609.75311 C 237.09093,609.15811 236.99893,608.47311 237.01793,607.61411 C 237.15293,605.77611 236.28193,605.91111 235.71893,607.61411 z "
         style="fill:#2f92cb"
         id="path25" />
      <path
         d="M 101.8125,512.09375 L 101.8125,543.875 L 152.15625,543.875 L 152.15625,512.09375 L 101.8125,512.09375 z M 154.53125,512.09375 L 154.53125,543.875 L 204.90625,543.875 L 204.90625,512.09375 L 154.53125,512.09375 z M 207.28125,512.09375 L 207.28125,543.875 L 257.625,543.875 L 257.625,512.09375 L 207.28125,512.09375 z "
         style="fill:#025fa5;fill-opacity:1"
         id="rect5" />
      <path
         d="M 109.8125,519.4375 L 109.78125,536.4375 L 122.40625,536.4375 L 122.40625,530.875 L 124.96875,530.875 L 131.5,536.4375 L 144.6875,536.4375 L 136.375,530.5625 L 136.71875,530.53125 C 139.39575,530.59525 141.97475,528.22048 141.96875,525.1875 C 141.96875,521.1095 138.92524,519.43749 136.15625,519.4375 L 109.8125,519.4375 z M 195.625,519.4375 L 163.1875,519.46875 L 163.1875,523.4375 L 172.75,523.4375 L 172.75,536.4375 L 186.1875,536.4375 L 186.21875,523.4375 L 195.625,523.4375 L 195.625,519.4375 z M 216,519.46875 L 216,536.4375 L 248.9375,536.4375 L 248.9375,532.5 L 230.4375,532.5 L 230.4375,519.46875 L 216,519.46875 z M 122.40625,523.34375 L 128.1875,523.34375 C 129.33951,523.34372 130,524.33375 130,525.21875 C 130,526.25076 129.3045,527.04925 128.3125,527.15625 L 122.40625,527.125 L 122.40625,523.34375 z "
         style="fill:white;fill-rule:evenodd"
         id="path11" />
      <rect
         width="453.543"
         height="97.698997"
         x="101.79993"
         y="512.08411"
         style="fill:none"
         id="rect21" />
    </g>
  </g>
</svg>
