<?xml version="1.0" encoding="UTF-8" standalone="no"?>
<!-- Created with Inkscape (http://www.inkscape.org/) -->

<svg
   xmlns:dc="http://purl.org/dc/elements/1.1/"
   xmlns:cc="http://creativecommons.org/ns#"
   xmlns:rdf="http://www.w3.org/1999/02/22-rdf-syntax-ns#"
   xmlns:svg="http://www.w3.org/2000/svg"
   xmlns="http://www.w3.org/2000/svg"
   xmlns:xlink="http://www.w3.org/1999/xlink"
   version="1.0"
   width="879.7373"
   height="130"
   id="svg1894">
  <title
     id="title3464">RTL Crime HD Logo</title>
  <metadata
     id="metadata14">
    <rdf:RDF>
      <cc:Work
         rdf:about="">
        <dc:format>image/svg+xml</dc:format>
        <dc:type
           rdf:resource="http://purl.org/dc/dcmitype/StillImage" />
        <dc:title>RTL Crime HD Logo</dc:title>
      </cc:Work>
    </rdf:RDF>
  </metadata>
  <defs
     id="defs1896">
    <linearGradient
       x1="-126.56869"
       y1="1032.7726"
       x2="-142.97276"
       y2="870.41803"
       id="linearGradient3258"
       xlink:href="#linearGradient3733"
       gradientUnits="userSpaceOnUse" />
    <linearGradient
       x1="-166.33357"
       y1="859.03809"
       x2="-165.73274"
       y2="817.64807"
       id="linearGradient3256"
       xlink:href="#linearGradient3694"
       gradientUnits="userSpaceOnUse" />
    <linearGradient
       id="linearGradient3742">
      <stop
         id="stop3744"
         style="stop-color:#01086a;stop-opacity:0"
         offset="0" />
      <stop
         id="stop3746"
         style="stop-color:#30599b;stop-opacity:1"
         offset="0.2631796" />
      <stop
         id="stop3748"
         style="stop-color:#010653;stop-opacity:1"
         offset="0.82551301" />
      <stop
         id="stop3750"
         style="stop-color:#01086a;stop-opacity:0"
         offset="1" />
    </linearGradient>
    <linearGradient
       id="linearGradient3726">
      <stop
         id="stop3728"
         style="stop-color:#01086a;stop-opacity:0"
         offset="0" />
      <stop
         id="stop3736"
         style="stop-color:#30599b;stop-opacity:1"
         offset="0.19410537" />
      <stop
         id="stop3734"
         style="stop-color:#010653;stop-opacity:1"
         offset="0.79517871" />
      <stop
         id="stop3730"
         style="stop-color:#01086a;stop-opacity:0"
         offset="1" />
    </linearGradient>
    <linearGradient
       id="linearGradient3710">
      <stop
         id="stop3713"
         style="stop-color:#e48315;stop-opacity:0"
         offset="0" />
      <stop
         id="stop3722"
         style="stop-color:#e48315;stop-opacity:1"
         offset="0.17614871" />
      <stop
         id="stop3720"
         style="stop-color:#e48315;stop-opacity:1"
         offset="0.83696228" />
      <stop
         id="stop3715"
         style="stop-color:#e48315;stop-opacity:0"
         offset="1" />
    </linearGradient>
    <linearGradient
       id="linearGradient3694">
      <stop
         id="stop3696"
         style="stop-color:#d8745e;stop-opacity:1"
         offset="0" />
      <stop
         id="stop3702"
         style="stop-color:#d8745e;stop-opacity:0"
         offset="0.66019446" />
      <stop
         id="stop3698"
         style="stop-color:#d8745e;stop-opacity:0"
         offset="1" />
    </linearGradient>
    <linearGradient
       id="linearGradient3743">
      <stop
         id="stop3745"
         style="stop-color:#d8745e;stop-opacity:0"
         offset="0" />
      <stop
         id="stop3747"
         style="stop-color:#d8745e;stop-opacity:1"
         offset="0.47583359" />
      <stop
         id="stop3749"
         style="stop-color:#d8745e;stop-opacity:0"
         offset="1" />
    </linearGradient>
    <linearGradient
       id="linearGradient3733">
      <stop
         id="stop3735"
         style="stop-color:#e89f82;stop-opacity:1"
         offset="0" />
      <stop
         id="stop3753"
         style="stop-color:#9f0121;stop-opacity:1"
         offset="0.15345897" />
      <stop
         id="stop3751"
         style="stop-color:#9f0121;stop-opacity:0"
         offset="1" />
    </linearGradient>
    <linearGradient
       id="linearGradient3717">
      <stop
         id="stop3719"
         style="stop-color:#d8745e;stop-opacity:0"
         offset="0" />
      <stop
         id="stop3725"
         style="stop-color:#d8745e;stop-opacity:1"
         offset="0.32610384" />
      <stop
         id="stop3721"
         style="stop-color:#d8745e;stop-opacity:0"
         offset="1" />
    </linearGradient>
    <filter
       x="-0.059893075"
       y="-0.98074913"
       width="1.1197861"
       height="2.9614983"
       color-interpolation-filters="sRGB"
       id="filter4982-1">
      <feGaussianBlur
         id="feGaussianBlur4984-7"
         stdDeviation="3.2079156" />
    </filter>
    <filter
       x="-0.87625688"
       y="-0.039319217"
       width="2.7525136"
       height="1.0786384"
       color-interpolation-filters="sRGB"
       id="filter4844-4">
      <feGaussianBlur
         id="feGaussianBlur4846-0"
         stdDeviation="2.507867" />
    </filter>
    <filter
       x="-1.0571429"
       y="-0.20460829"
       width="3.1142857"
       height="1.4092166"
       color-interpolation-filters="sRGB"
       id="filter4706-9">
      <feGaussianBlur
         id="feGaussianBlur4708-4"
         stdDeviation="2.593343" />
    </filter>
    <filter
       x="-0.025674433"
       y="-1.096665"
       width="1.0513489"
       height="3.19333"
       color-interpolation-filters="sRGB"
       id="filter4512-8">
      <feGaussianBlur
         id="feGaussianBlur4514-8"
         stdDeviation="3.1386803" />
    </filter>
    <filter
       x="-1.3379791"
       y="-0.065802254"
       width="3.6759582"
       height="1.1316046"
       color-interpolation-filters="sRGB"
       id="filter4422-2">
      <feGaussianBlur
         id="feGaussianBlur4424-4"
         stdDeviation="3.2822798" />
    </filter>
    <filter
       color-interpolation-filters="sRGB"
       id="filter4726-5">
      <feGaussianBlur
         id="feGaussianBlur4728-5"
         stdDeviation="2.6719221" />
    </filter>
    <linearGradient
       id="linearGradient3539-1">
      <stop
         id="stop3541-7"
         style="stop-color:#f1bd51;stop-opacity:1"
         offset="0" />
      <stop
         id="stop3547-1"
         style="stop-color:#e37e14;stop-opacity:1"
         offset="0.3534528" />
      <stop
         id="stop3543-1"
         style="stop-color:#e99c1b;stop-opacity:1"
         offset="1" />
    </linearGradient>
    <linearGradient
       x1="1239.0182"
       y1="437.86652"
       x2="1250.9811"
       y2="646.35468"
       id="linearGradient5018"
       xlink:href="#linearGradient3539-1"
       gradientUnits="userSpaceOnUse"
       gradientTransform="translate(-480.22634,15.380915)" />
    <linearGradient
       id="linearGradient3524-5">
      <stop
         id="stop3526-2"
         style="stop-color:#fbedc3;stop-opacity:1"
         offset="0" />
      <stop
         id="stop3528-7"
         style="stop-color:#f5d78f;stop-opacity:1"
         offset="1" />
    </linearGradient>
    <linearGradient
       x1="787.8446"
       y1="441.77405"
       x2="801.51654"
       y2="643.43494"
       id="linearGradient5016"
       xlink:href="#linearGradient3524-5"
       gradientUnits="userSpaceOnUse" />
    <linearGradient
       id="linearGradient3708-6">
      <stop
         id="stop3710-1"
         style="stop-color:#3664ae;stop-opacity:1"
         offset="0" />
      <stop
         id="stop3712-4"
         style="stop-color:#01086a;stop-opacity:1"
         offset="1" />
    </linearGradient>
    <linearGradient
       x1="1246.1075"
       y1="-204.73146"
       x2="1249.2721"
       y2="-134.15576"
       id="linearGradient5014"
       xlink:href="#linearGradient3708-6"
       gradientUnits="userSpaceOnUse"
       gradientTransform="translate(0.2535393,678.46924)" />
    <linearGradient
       id="linearGradient3693-2">
      <stop
         id="stop3695-3"
         style="stop-color:#a4c2ee;stop-opacity:1"
         offset="0" />
      <stop
         id="stop3697-2"
         style="stop-color:#738ecf;stop-opacity:1"
         offset="1" />
    </linearGradient>
    <linearGradient
       x1="1213.3833"
       y1="481.08084"
       x2="1256.108"
       y2="602.41919"
       id="linearGradient5012"
       xlink:href="#linearGradient3693-2"
       gradientUnits="userSpaceOnUse" />
    <linearGradient
       id="linearGradient3264-2">
      <stop
         id="stop3266-1"
         style="stop-color:#d8745e;stop-opacity:1"
         offset="0" />
      <stop
         id="stop3522-6"
         style="stop-color:#900120;stop-opacity:1"
         offset="0.59232187" />
      <stop
         id="stop3268-8"
         style="stop-color:#a00122;stop-opacity:1"
         offset="1" />
    </linearGradient>
    <linearGradient
       x1="775.52448"
       y1="414.7554"
       x2="777.23346"
       y2="543.20825"
       id="linearGradient5010"
       xlink:href="#linearGradient3264-2"
       gradientUnits="userSpaceOnUse"
       gradientTransform="translate(-474.91644,47.129114)" />
    <linearGradient
       id="linearGradient3251-5">
      <stop
         id="stop3253-7"
         style="stop-color:#f6c8b2;stop-opacity:1"
         offset="0" />
      <stop
         id="stop3255-6"
         style="stop-color:#e49374;stop-opacity:1"
         offset="1" />
    </linearGradient>
    <linearGradient
       x1="387.94083"
       y1="472.53586"
       x2="324.70819"
       y2="634.88995"
       id="linearGradient5008"
       xlink:href="#linearGradient3251-5"
       gradientUnits="userSpaceOnUse" />
    <linearGradient
       x1="387.94083"
       y1="472.53586"
       x2="324.70819"
       y2="634.88995"
       id="linearGradient3463"
       xlink:href="#linearGradient3251-5"
       gradientUnits="userSpaceOnUse" />
    <linearGradient
       x1="775.52448"
       y1="414.7554"
       x2="777.23346"
       y2="543.20825"
       id="linearGradient3465"
       xlink:href="#linearGradient3264-2"
       gradientUnits="userSpaceOnUse"
       gradientTransform="translate(-474.91644,47.129114)" />
    <linearGradient
       x1="1213.3833"
       y1="481.08084"
       x2="1256.108"
       y2="602.41919"
       id="linearGradient3467"
       xlink:href="#linearGradient3693-2"
       gradientUnits="userSpaceOnUse" />
    <linearGradient
       x1="1246.1075"
       y1="-204.73146"
       x2="1249.2721"
       y2="-134.15576"
       id="linearGradient3469"
       xlink:href="#linearGradient3708-6"
       gradientUnits="userSpaceOnUse"
       gradientTransform="translate(0.2535393,678.46924)" />
    <linearGradient
       x1="787.8446"
       y1="441.77405"
       x2="801.51654"
       y2="643.43494"
       id="linearGradient3471"
       xlink:href="#linearGradient3524-5"
       gradientUnits="userSpaceOnUse" />
    <linearGradient
       x1="1239.0182"
       y1="437.86652"
       x2="1250.9811"
       y2="646.35468"
       id="linearGradient3473"
       xlink:href="#linearGradient3539-1"
       gradientUnits="userSpaceOnUse"
       gradientTransform="translate(-480.22634,15.380915)" />
    <linearGradient
       x1="387.94083"
       y1="472.53586"
       x2="324.70819"
       y2="634.88995"
       id="linearGradient2492-1"
       xlink:href="#linearGradient3251-5"
       gradientUnits="userSpaceOnUse" />
    <linearGradient
       x1="775.52448"
       y1="414.7554"
       x2="777.23346"
       y2="543.20825"
       id="linearGradient2494-8"
       xlink:href="#linearGradient3264-2"
       gradientUnits="userSpaceOnUse"
       gradientTransform="translate(-474.91644,47.129114)" />
    <linearGradient
       x1="1213.3833"
       y1="481.08084"
       x2="1256.108"
       y2="602.41919"
       id="linearGradient2496-9"
       xlink:href="#linearGradient3693-2"
       gradientUnits="userSpaceOnUse" />
    <linearGradient
       x1="1246.1075"
       y1="-204.73146"
       x2="1249.2721"
       y2="-134.15576"
       id="linearGradient2498-2"
       xlink:href="#linearGradient3708-6"
       gradientUnits="userSpaceOnUse"
       gradientTransform="translate(0.2535393,678.46924)" />
    <linearGradient
       x1="787.8446"
       y1="441.77405"
       x2="801.51654"
       y2="643.43494"
       id="linearGradient2500-7"
       xlink:href="#linearGradient3524-5"
       gradientUnits="userSpaceOnUse" />
    <linearGradient
       x1="1239.0182"
       y1="437.86652"
       x2="1250.9811"
       y2="646.35468"
       id="linearGradient2502-9"
       xlink:href="#linearGradient3539-1"
       gradientUnits="userSpaceOnUse"
       gradientTransform="translate(-480.22634,15.380915)" />
    <filter
       x="-0.071692258"
       y="-0.1252926"
       width="1.1433845"
       height="1.2505852"
       color-interpolation-filters="sRGB"
       id="filter3306-5">
      <feGaussianBlur
         id="feGaussianBlur3308-4"
         stdDeviation="2.1294937" />
    </filter>
    <linearGradient
       x1="387.94083"
       y1="472.53586"
       x2="324.70819"
       y2="634.88995"
       id="linearGradient3705"
       xlink:href="#linearGradient3251-5"
       gradientUnits="userSpaceOnUse"
       gradientTransform="matrix(0.8550877,0,0,0.8682988,-459.66072,464.28657)" />
    <linearGradient
       x1="787.8446"
       y1="441.77405"
       x2="801.51654"
       y2="643.43494"
       id="linearGradient3707"
       xlink:href="#linearGradient3524-5"
       gradientUnits="userSpaceOnUse"
       gradientTransform="matrix(0.8550877,0,0,0.87010487,-459.66072,464.47665)" />
    <linearGradient
       x1="1213.3833"
       y1="481.08084"
       x2="1256.108"
       y2="602.41919"
       id="linearGradient3709"
       xlink:href="#linearGradient3693-2"
       gradientUnits="userSpaceOnUse"
       gradientTransform="matrix(0.8550877,0,0,0.87041118,-459.66072,461.985)" />
    <linearGradient
       x1="-166.0193"
       y1="832.48474"
       x2="-167.39336"
       y2="972.07928"
       id="linearGradient3723"
       xlink:href="#linearGradient3717"
       gradientUnits="userSpaceOnUse" />
    <linearGradient
       x1="-126.56869"
       y1="1032.7726"
       x2="-142.97276"
       y2="870.41803"
       id="linearGradient3739"
       xlink:href="#linearGradient3733"
       gradientUnits="userSpaceOnUse" />
    <linearGradient
       x1="-166.0193"
       y1="832.48474"
       x2="-176.49734"
       y2="1000.9086"
       id="linearGradient3741"
       xlink:href="#linearGradient3743"
       gradientUnits="userSpaceOnUse" />
    <linearGradient
       x1="-166.33357"
       y1="859.03809"
       x2="-165.73274"
       y2="817.64807"
       id="linearGradient3700"
       xlink:href="#linearGradient3694"
       gradientUnits="userSpaceOnUse" />
    <linearGradient
       x1="260.5278"
       y1="806.95251"
       x2="271.43567"
       y2="1055.7949"
       id="linearGradient3718"
       xlink:href="#linearGradient3710"
       gradientUnits="userSpaceOnUse" />
    <linearGradient
       x1="749.43854"
       y1="811.54901"
       x2="758.8291"
       y2="1008.8021"
       id="linearGradient3732"
       xlink:href="#linearGradient3726"
       gradientUnits="userSpaceOnUse" />
    <linearGradient
       x1="749.43854"
       y1="811.54901"
       x2="758.8291"
       y2="1008.8021"
       id="linearGradient3740"
       xlink:href="#linearGradient3742"
       gradientUnits="userSpaceOnUse" />
    <linearGradient
       id="linearGradient3539">
      <stop
         id="stop3541"
         style="stop-color:#f1bd51;stop-opacity:1"
         offset="0" />
      <stop
         id="stop3547"
         style="stop-color:#e37e14;stop-opacity:1"
         offset="0.3534528" />
      <stop
         id="stop3543"
         style="stop-color:#e99c1b;stop-opacity:1"
         offset="1" />
    </linearGradient>
    <linearGradient
       id="linearGradient3524">
      <stop
         id="stop3526"
         style="stop-color:#fbedc3;stop-opacity:1"
         offset="0" />
      <stop
         id="stop3528"
         style="stop-color:#f5d78f;stop-opacity:1"
         offset="1" />
    </linearGradient>
    <linearGradient
       id="linearGradient3708">
      <stop
         id="stop3710"
         style="stop-color:#3664ae;stop-opacity:1"
         offset="0" />
      <stop
         id="stop3712"
         style="stop-color:#01086a;stop-opacity:1"
         offset="1" />
    </linearGradient>
    <linearGradient
       id="linearGradient3693">
      <stop
         id="stop3695"
         style="stop-color:#a4c2ee;stop-opacity:1"
         offset="0" />
      <stop
         id="stop3697"
         style="stop-color:#738ecf;stop-opacity:1"
         offset="1" />
    </linearGradient>
    <linearGradient
       id="linearGradient3264">
      <stop
         id="stop3266"
         style="stop-color:#d8745e;stop-opacity:1"
         offset="0" />
      <stop
         id="stop3522"
         style="stop-color:#900120;stop-opacity:1"
         offset="0.59232187" />
      <stop
         id="stop3268"
         style="stop-color:#a00122;stop-opacity:1"
         offset="1" />
    </linearGradient>
    <linearGradient
       id="linearGradient3251">
      <stop
         id="stop3253"
         style="stop-color:#f6c8b2;stop-opacity:1"
         offset="0" />
      <stop
         id="stop3255"
         style="stop-color:#e49374;stop-opacity:1"
         offset="1" />
    </linearGradient>
  </defs>
  <g
     transform="matrix(0.98261066,0,0,0.98261066,-12.40833,-12.415419)"
     id="layer1">
    <g
       transform="matrix(1.249999,0,0,1.249999,-109.5334,-622.381)"
       id="g6348">
      <rect
         width="265"
         height="79"
         x="275.36993"
         y="520.20612"
         id="rect3"
         style="fill:#ffffff" />
      <path
         d="m 263.0625,512.09375 0,97.6875 292.28125,0 0,-97.6875 -292.28125,0 z m 51,14.375 c 11.144,-3e-5 21.08775,6.82525 18.59375,18.15625 l -1.09375,4.96875 -15.375,0 0.8125,-4.3125 c 1.004,-5.24401 -1.27625,-6.8125 -4.40625,-6.8125 -2.304,-2e-5 -5.819,0.7175 -7.375,7.8125 L 299.0625,574.375 c -1.011,4.70502 -0.101,8.19625 4.5,8.65625 4.975,0.46599 6.44975,-4.6755 7.09375,-7.8125 l 1.09375,-5.53125 15.375,0 -1.5625,7.5625 c -2.579,12.33897 -11.76925,17.21875 -22.90625,17.21875 -3.13701,-3e-5 -8.96075,-0.73575 -13.84375,-5.34375 -3.223,-3.03801 -8.46875,-2.40625 -8.46875,-2.40625 -10e-6,3e-5 1.1085,-1.56575 1.5625,-3.96875 L 289.9375,546 c 3.86601,-17.86797 16.118,-19.53125 24.125,-19.53125 z m 32.4375,1.125 19.25,0 c 13.90701,-3e-5 21.731,9.93525 19.25,22.40625 -2.11999,10.37203 -7.9215,15.537 -12.0625,17.375 l 2.84375,25.875 -15.9375,0 -1.28125,-23.03125 -5.8125,0.125 -4.875,22.90625 -15.5625,0 14.1875,-65.65625 z m 53.46875,0 15.375,0 -14.28125,65.65625 -15.375,0 14.28125,-65.65625 z m 28.9375,0 22,0 0.75,39.53125 14.1875,-39.53125 23,0 -14.1875,65.65625 -14.53125,0 8.9375,-38.4375 c 0.27499,-1.378 -1.19375,-1.8445 -1.84375,-0.1875 l -15.03125,38.625 -12.15625,0 -0.625,-38.34375 c -0.099,-2.30297 -1.6625,-1.6555 -1.9375,-0.1875 l -8.40625,38.53125 -14.71875,0 14.5625,-65.65625 z m 73.5,0 c 27.07399,10e-4 34.125,0 34.125,0 l -2.40625,11.6875 -18.4375,0 -3.3125,14.375 16.34375,0 -2.75,11.875 -16.09375,0 -3.40625,16.03125 15.75,0 -2.3125,11.6875 -31.5,0 14,-65.65625 z M 359.125,539.375 l -4.15625,19.15625 7.375,0 c 5.70801,-0.72801 8.09375,-8.15625 8.09375,-8.15625 1.93699,-7.79003 -2.21275,-11 -5.34375,-11 -10e-6,-2e-5 -5.14175,0 -5.96875,0 z m -257.28125,9.84375 0,60.53125 155.78125,0 0,-60.53125 -155.78125,0 z"
         id="path17"
         style="fill:#012557;fill-opacity:1" />
      <path
         d="m 105.50093,576.77311 c 1.201,-0.667 2.836,-0.373 3.97,-0.998 4.007,-2.126 6.703,-7.229 10.403,-9.747 1.323,-1.005 3.125,0.11 4.148,-1.078 1.25,-1.042 0.3,-2.268 1.715,-3.468 3.431,-2.616 7.063,-3.97 10.409,-6.5 1.709,-1.284 3.461,-3.774 5.159,-5.765 l -2.328,0 c -3.351,3.189 -6.666,6.362 -9.992,9.015 -2.775,2.221 -6.286,3.017 -9.11,5.199 -3.327,2.573 -6.286,6.751 -9.759,9.104 -1.96,1.372 -3.903,0.821 -5.208,1.942 -0.889,0.558 -1.991,1.862 -3.057,2.836 l 0,2.732 c 1.297,-1.152 2.382,-2.591 3.65,-3.272 m 33.903,30.841 c -0.588,0.797 -0.698,1.667 0.649,1.948 0.19,0.056 0.386,0.123 0.582,0.19 l 4.368,0 c -1.654,-0.619 -2.935,-1.342 -3.651,-2.139 -0.551,-0.642 -1.641,-0.642 -1.948,10e-4 z m 12.296,-42.885 c -1.366,-0.037 -2.064,0.435 -1.525,1.005 0.459,0.704 1.617,-0.57 1.586,0.294 -0.692,6.064 -9.404,15.695 -5.287,24.641 5.128,8.589 6.948,5.495 12.216,9.257 2.12,1.262 4.368,0.852 4.785,0.539 0.815,-0.41 0.662,-1.011 0,-1.299 -6.813,-2.592 -13.38,-3.339 -15.61,-10.396 -1.231,-4.264 -0.16,-9.116 0.649,-11.046 2.75,-6.562 7.419,-13.589 12.363,-18.193 4.638,-4.322 9.429,-7.591 14.808,-10.314 l -6.292,0 c -1.416,0.843 -2.745,1.688 -3.958,2.518 -4.41,3.001 -7.7,12.571 -13.735,12.994 z m -34.424,31.845 c -0.778,-1.041 -0.778,-0.343 -0.649,0.644 0.852,6.194 6.169,8.203 9.11,12.345 0.043,0.062 0.085,0.123 0.135,0.19 l 1.813,0 c -3.756,-4.344 -7.217,-9.135 -9.76,-12.535 -0.22,-0.215 -0.435,-0.435 -0.649,-0.644 z m 140.37,-20.316 c -0.123,0.104 -0.257,0.172 -0.454,0.166 -0.649,0 -0.999,0.238 -1.562,0.03 -0.502,-0.129 -0.821,-0.466 -1.042,-0.68 -0.625,-0.84 -0.846,-1.574 -0.012,-2.304 0.417,-0.337 0.919,-0.361 1.648,-0.215 0.337,0.099 0.753,0.355 0.968,0.576 0.178,0.141 0.325,0.343 0.454,0.576 l 0,-6.683 c -3.284,-2.817 -6.972,-10.804 -9.563,-13.386 -1.869,-1.872 -3.866,-3.566 -5.986,-5.122 l -4.429,0 c 2.916,2.754 5.716,5.667 9.116,7.07 1.44,0.603 1.152,2.686 -1.342,2.052 -5.256,-2.432 -6.727,-5.934 -10.378,-8.55 -0.27,-0.196 -0.545,-0.383 -0.833,-0.573 l -4.889,0 c 8.35,3.841 18.287,14.563 21.344,20.064 2.15,3.872 1.507,8.865 4.552,11.695 0.766,0.638 0.876,1.648 0,1.948 -1.084,0.215 -3.247,0.766 -3.357,-1.642 -0.159,-17.313 -14.661,-25.039 -26.031,-31.601 -0.368,-0.163 -0.674,-0.322 -0.931,-0.466 l -7.836,0 c 14.544,3.465 25.1,12.379 30.344,24.616 4.271,9.949 5.569,23.226 4.295,35.92 l 1.201,0 c 0.864,-3.26 2.849,-7.113 1.017,-9.932 -1.513,-1.911 0,-3.902 0,-5.856 -0.092,-1.348 0.698,-1.495 1.299,0 1.525,4.509 1.194,10.452 0.3,15.788 l 2.107,0 -0.012,-17.063 c -0.184,-1.299 -0.68,-2.457 -1.74,-3.921 -1.642,-2.401 -1.207,-3.479 0,-2.598 0.625,0.404 1.226,1.409 1.752,2.727 l 0,-12.636 0,0 z m -2.292,13.602 c 0.386,1.402 0.331,2.585 -0.116,2.806 -0.411,0.172 -0.803,-0.233 -1.005,-0.889 -0.741,-2.738 -0.784,-3.51 -1.335,-5.544 -0.613,-2.193 1.752,1.47 2.456,3.627 z m -5.042,-25.67 c -0.153,2.059 -1.084,-0.784 -2.23,-1.409 -0.748,-0.678 -1.25,-0.999 -0.27,-1.719 0.478,-0.539 0.27,-1.1 0.27,-1.532 0.239,-1.348 1.507,-1.348 1.948,0 0.282,0.836 0.735,1.082 1.323,1.688 0.986,0.729 0.508,0.729 -0.508,1.388 -0.214,0.193 -0.533,0.8 -0.533,1.584 z m 4.926,6.39 c -0.68,1.477 -1.544,0.814 -1.948,0 -0.558,-1.213 0.263,-2.291 -1.299,-3.253 -1.146,-0.772 -1.832,-1.403 -0.656,-1.299 0.215,0 0.423,0.141 0.656,0 0.171,-0.178 0,-0.429 0,-0.649 -0.343,-1.985 2.377,0.735 3.247,1.948 0.619,0.563 0.962,2.107 0,3.253 z m -5.679,-21.364 -4.031,0 c 3.057,2.273 5.759,4.883 7.762,7.716 1.642,2.328 2.665,4.951 4.356,7.048 l 0,-4.331 c -2.494,-3.461 -5.104,-6.77 -7.615,-9.861 -0.227,-0.25 -0.38,-0.433 -0.472,-0.572 z m 0.631,0 c 2.145,1.106 4.815,3.817 7.456,7.07 l 0,-3.989 c -1.789,-0.689 -3.339,-1.795 -4.772,-3.082 l -2.684,0 0,10e-4 z m -2.764,36.955 c -0.907,-1.103 1.287,-1.801 0.656,-3.896 -0.717,-2.659 -2.396,-7.518 -3.909,-10.396 -12.4,-23.639 -54.042,-30.608 -74.835,-9.75 -0.423,0.443 -0.986,1.068 -2.01,0.257 -2.12,-2.215 -6.641,5.726 -7.309,11.031 -0.074,5.042 -0.711,7.498 1.507,10.157 0.221,0.221 0.362,0.361 0.705,0.588 2.218,1.354 0.576,-2.757 2.549,-2.536 1.029,0.318 3.308,1.213 5.208,0.649 0.907,-0.27 2.346,-2.444 3.902,-1.954 3.927,0.925 10.703,0.349 17.92,-2.016 4.466,-1.201 7.346,-1.201 9.962,-0.331 1.36,0.355 1.525,1.789 1.36,3.045 -1.403,9.41 -8.84,6.354 -13.337,12.173 -1.85,2.071 -2.395,-1.58 -4.735,-1.299 -0.986,0.209 -0.932,1.029 -2.886,1.783 -6.378,2.04 -16.137,2.897 -22.601,0.288 -2.555,-0.925 -4.491,-2.034 -5.208,-5.195 -0.803,-3.443 -1.593,-7.842 -1.299,-10.391 0.245,-2.12 3.731,-4.136 4.558,-5.845 5.876,-12.2 16.144,-18.743 28.746,-23.317 l -6.354,0 c -8.865,4.292 -16.339,9.971 -20.444,15.513 -6.923,9.361 -12.4,20.658 -4.491,29.063 4.46,3.578 20.732,6.507 27.918,0.827 1.734,-1.428 3.247,-1.335 3.363,-0.232 0.049,0.643 -0.055,1.525 -1.525,2.016 -4.356,1.948 -9.104,3.063 -18.239,2.818 -1.899,0.165 -2.016,1.09 0.711,1.249 19.482,1.336 32.501,-8.963 36.961,-17.607 1.25,-2.334 2.016,-5.489 -0.76,-6.678 -6.329,-2.549 -13.717,-1.531 -22.319,2.273 -2.016,0.925 -4.19,0.979 -5.348,0.563 -1.348,-0.288 -0.588,-1.538 0.649,-1.942 4.123,-1.52 5.477,-2.107 9.6,-3.621 4.35,-0.863 7.726,0.601 11.23,-0.281 5.698,-0.747 12.443,1.587 10.979,3.982 -2.046,2.867 -0.27,6.659 -2.524,10.311 -1.036,1.679 -4.056,1.801 -5.208,3.253 -0.98,1.274 -0.16,2.199 -1.036,3.443 -1.078,1.58 -5.134,2.702 -6.77,3.7 -1.722,0.815 -0.796,1.464 0.649,1.299 7.241,-0.288 18.673,-11.034 15.794,-19.146 -0.741,-2.463 0.19,-2.83 0.986,-3.014 1.403,-0.331 1.544,0.98 1.44,3.314 -0.319,18.061 -18.986,25.015 -34.995,29.432 l 11.211,0 c 1.427,-1.072 2.591,-2.31 3.608,-2.788 8.112,-3.798 15.047,-7.743 19.525,-14.942 1.354,-2.175 2.297,-6.279 2.414,-8.742 0.374,-8.124 -3.633,-11.261 -6.782,-11.383 -2.114,-0.159 -2.414,-1.097 -3.443,-1.317 -3.48,-0.741 -4.809,1.685 -9.435,1.563 -1.416,-0.123 -1.912,-0.368 -2.279,-0.919 -0.435,-0.748 -0.128,-1.483 0.919,-1.973 5.551,-2.341 4.803,0.979 10.795,-0.625 4.375,-1.349 11.438,5.244 12.363,10.396 0.454,2.598 -1.403,9.349 -2.604,11.701 -6.004,11.794 -10.054,13.521 -20.646,19.029 l 7.04,0 c 1.072,-0.135 2.138,-0.313 3.204,-0.84 1.28,-0.729 1.568,-2.879 2.604,-3.896 6.292,-6.249 11.769,-10.513 11.708,-23.391 0.085,-1.642 0.361,-3.137 1.28,-1.587 0.417,0.705 0.545,1.146 0.674,2.236 0.282,2.059 0.931,4.668 -0.092,9.771 -0.778,4.467 -5.992,11.145 -12.951,17.706 l 3.339,0 c 3.014,-3.155 5.618,-6.316 7.75,-9.288 9.71,-13.533 0.349,-28.476 -8.816,-34.816 -1.703,-1.078 -1.317,-2.114 0.098,-2.09 1.078,0.08 2.279,0.185 3.511,1.171 2.046,1.47 0.184,3.357 2.604,5.195 14.808,11.272 8.479,27.802 -1.311,39.828 l 3.945,0 c 7.713,-12.964 13.674,-31.846 -1.335,-42.426 -1.458,-0.98 -1.581,-1.557 0,-1.299 10.176,1.838 9.502,11.812 11.714,22.092 0.159,0.717 1.299,3.492 0.656,5.201 -2.089,5.521 -4.638,11.193 -7.756,16.432 l 2.494,0 c 3.253,-5.961 3.964,-10.471 4.172,-11.573 0.172,-1.403 0.901,-1.918 1.74,-0.313 1.605,2.831 -2.91,7.578 -3.909,9.747 -0.331,0.735 -0.588,1.44 -0.809,2.139 l 3.088,0 c 0.257,-0.889 0.551,-1.808 0.98,-2.788 2.303,-5.299 3.798,-21.951 0.214,-28.01 -0.735,-1.446 -1.097,-2.586 -0.466,-3.32 0.374,-0.325 1.029,-0.625 1.654,0.306 3.921,8.522 5.306,21.737 1.85,31.674 -0.251,0.724 -0.57,1.428 -0.931,2.139 l 2.206,0 c 1.292,-3.988 2.046,-8.296 1.985,-11.236 -0.092,-1.856 1.378,-1.881 1.948,0 0.478,1.795 -0.515,4.626 0.649,6.5 0.392,0.49 1.103,0.466 1.575,-1.114 3.382,-8.332 2.125,-20.635 -2.635,-26.639 -0.515,-0.76 -0.515,-1.323 -0.895,-2.138 -0.41,-0.655 -1.317,-0.552 -1.017,1.789 1.176,7.608 3.026,8.681 3.486,18.336 0.171,2.524 -2.646,1.14 -2.469,-0.416 -0.03,-7.572 -0.006,-14.68 -3.486,-19.226 -0.576,-0.814 -0.956,-1.604 -1.397,-2.033 -1.519,-1.171 -2.365,0.895 -2.989,-0.466 -3.235,-6.249 -7.695,-5.686 -13.595,-10.868 -0.331,-0.264 -0.594,-0.527 -0.815,-0.748 -0.398,-0.337 -0.766,-0.833 0.809,-0.665 7.683,0.729 14.226,6.926 17.602,12.146 0.735,1.005 1.893,1.973 2.695,0.974 0.68,-1.029 0.11,-1.868 -0.576,-2.334 -7.891,-4.675 -10.151,-11.551 -21.675,-12.73 -2.022,-0.193 0.619,2.662 -1.52,2.303 -3.517,-0.34 -2.751,-1.525 -4.337,-3.608 -0.319,-0.563 0.061,-0.659 0.655,-0.646 20.983,1.226 30.498,11.882 35.142,29.239 2.132,7.995 -0.858,15.917 -1.734,23.581 l 2.677,0 c 7.033,-25.015 -5.14,-46.929 -23.593,-53.264 -3.241,-0.935 -2.861,-2.778 -0.864,-2.515 19.311,4.76 31.821,26.016 26.761,49.744 -0.594,2.139 0.827,2.843 0,5.845 -0.012,0.062 -0.031,0.123 -0.049,0.19 l 2.254,0 c 0.214,-1.6 0.349,-3.18 0.398,-4.736 l 0,-14.948 c 0,-1.183 0.294,-1.103 0.656,0 1.917,5.477 1.936,12.418 0.692,19.685 l 1.06,0 c 1.477,-6.954 2.641,-16.192 0.196,-21.633 -0.424,-1.293 -1.87,-1.06 -2.6,-1.949 z m -47.504,-33.787 c 1.335,-0.518 1.936,-0.331 2.61,0 1.225,1.094 1.042,2.644 -0.006,2.831 -1.14,0.221 -2.211,-0.098 -2.879,-0.76 -1.036,-0.671 -0.479,-1.893 0.275,-2.071 z m 5.213,7.799 c 0.374,0.282 0.178,0.478 0,0.646 -0.515,0.454 -1.305,0.426 -1.96,0 -0.766,-0.551 -0.766,-1.348 0,-1.299 0.968,-0.049 1.538,0.264 1.96,0.653 z m -3.259,0 c -0.22,0.215 -1.06,0.723 -1.85,0.653 -2.996,-0.043 -2.567,-0.343 -3.798,-0.628 -1.899,-0.791 -2.059,-1.103 -2.377,-1.486 -0.864,-1.461 0.367,-2.15 2.187,-1.927 1.52,0 2.591,0.031 4.491,0.315 0.784,0.156 1.464,0.864 1.679,1.516 0.219,0.215 -0.093,1.232 -0.332,1.557 z m -38.401,13.65 c -0.686,2.059 0.282,4.068 -0.606,5.489 -0.282,0.343 -0.447,0.76 -0.19,1.52 0.729,2.145 -0.943,0.79 -1.152,-0.521 -0.717,-4.087 1.44,-6.855 0.705,-10.066 -0.441,-1.898 1.158,-0.986 3.296,-4.644 1.176,-1.52 2.689,-1.642 2.512,-0.882 -0.521,3.921 -3.498,5.942 -4.565,9.104 z m 13.019,-2.61 c -0.784,1.127 -1.201,5.078 -2.604,6.5 -1.158,1.183 -2.322,0.594 -4.552,2.598 -1.409,0.992 -4.16,0.551 -3.902,-0.644 0.153,-5.232 5.011,-14.716 7.805,-17.549 1.856,-1.875 3.823,-1.933 5.52,-4.01 0.821,-0.946 1.703,-0.031 2.941,-0.539 1.489,-0.845 -0.343,-2.175 1.55,-2.426 6.715,-0.83 6.083,-2.322 12.149,-2.561 2.665,-0.156 2.34,1.323 0.227,2.021 -3.045,1.14 -5.354,0.846 -8.718,2.319 -1.568,0.842 -0.497,2.644 -3.259,3.25 -2.487,0.558 -3.725,-0.168 -5.851,1.299 -4.95,3.186 -5.073,12.026 -9.961,15.438 -0.447,0.417 -1.072,0.729 -0.919,1.329 0.251,0.313 0.637,0.288 1.121,0.129 3.896,-1.471 3.909,-4.319 5.851,-7.799 2.126,-3.805 9.049,-8.47 13.668,-9.75 1.893,-0.766 0.643,1.33 3.253,0.653 0.791,-0.205 1.201,-1.155 3.253,-1.299 1.66,-0.138 2.034,1.599 0,1.946 -6.869,1.7 -14.098,4.108 -17.572,9.095 z m 20.751,-4.435 c -8.057,0 -12.32,3.229 -16.842,7.045 -0.601,0.527 -1.28,0.833 -1.525,0.343 -0.674,-0.68 0.03,-2.31 0.245,-2.53 4.319,-5.851 10.715,-7.7 17.57,-7.994 3.333,-0.186 3.462,2.951 0.552,3.136 z m 8.454,-2.341 c -1.728,0.606 -1.134,1.029 -1.844,1.482 -0.803,0.368 -1.856,0.546 -2.414,0.368 -1.507,-0.233 -1.911,-1.544 -1.415,-2.402 0.318,-0.526 0.778,-0.723 1.176,-0.863 2.028,-0.741 2.334,0.141 4.282,0.361 0.865,0.116 1.079,0.797 0.215,1.054 z m 1.385,-10.109 c -1.838,2.558 -3.406,1.887 -3.253,-0.656 0.159,-1.486 1.605,-1.654 2.806,-0.695 0.214,0.215 0.845,0.91 0.447,1.351 z m 4.644,0.876 c -0.576,1.148 -2.524,0.916 -3.345,-0.233 -0.667,-0.989 -0.515,-1.875 -0.166,-2.089 0.221,-0.217 0.87,-0.407 1.158,-0.407 0.527,-0.024 0.913,0.064 1.611,0.555 0.791,0.713 0.975,1.329 0.742,2.174 z m 2.952,-0.858 c -1.298,-0.291 -1.25,-0.646 -1.746,-1.317 -0.484,-0.656 -0.196,-1.299 1.672,-0.68 0.79,0.221 1.035,0.867 1.103,1.323 0.026,0.285 -0.189,0.861 -1.029,0.674 z m 42.819,-5.14 -2.193,0 c 0.753,0.604 1.525,1.18 2.34,1.728 l 0,-1.59 c -0.055,-0.042 -0.098,-0.092 -0.147,-0.138 z m -112.893,19.41 c -0.435,0.612 0.073,1.151 0.913,0.667 3.204,-2.469 7.548,-10.356 11.45,-13.659 2.046,-1.73 5.263,-4.013 9.153,-6.417 l -3.86,0 c -2.585,1.707 -5.011,3.434 -7.241,5.122 -4.754,3.58 -6.421,9.936 -10.415,14.287 z m 0.073,-16.83 c 2.8,-0.466 5.116,-1.394 7.168,-2.58 l -4.969,0 c -0.827,0.411 -1.654,0.836 -2.469,1.323 -1.089,0.767 -0.74,1.526 0.27,1.257 z m 3.836,3.838 c -0.251,0.251 -0.484,0.64 0,0.653 3.32,-0.726 7.26,-3.802 11.089,-7.07 l -4.375,0 c -2.438,2.14 -4.711,4.322 -6.714,6.417 z m -31.834,0.309 c -4.583,3.348 -8.118,4.981 -13.723,7.487 -1.624,0.734 -0.919,2.818 0.649,2.598 3.676,-0.797 5.201,-3.474 7.811,-5.199 2.549,-1.682 5.397,-2.049 7.805,-3.896 2.077,-1.586 3.314,-4.699 5.208,-6.497 0.343,-0.322 0.846,-0.741 1.458,-1.219 l -2.996,0 c -1.164,1.087 -2.212,2.172 -3.021,3.167 -1.071,1.182 -0.954,2.034 -3.191,3.559 z m -5.912,-4.855 c 1.771,-1.167 5.618,-0.873 7.64,-1.872 l -7.284,0 c -3.149,1.072 -6.298,1.844 -9.275,3.011 l 0,3.082 c 2.389,-0.677 4.215,-0.119 6.861,-1.706 0.784,-0.447 1.078,-1.856 2.058,-2.515 z m -3.259,20.135 c 3.915,-2.107 9.594,-8.97 13.668,-11.693 1.783,-1.191 4.301,-1.173 5.857,-2.598 1.758,-1.605 2.598,-4.414 4.552,-5.845 0.711,-0.521 1.801,-1.155 3.039,-1.872 l -4.356,0 c -0.552,0.885 -0.043,1.513 -1.287,2.518 -3.891,3.247 -8.24,5.407 -12.357,8.448 -3.56,2.347 -4.417,5.293 -6.512,6.495 -1.183,1.017 -4.613,2.242 -8.265,3.872 l 0,2.499 c 0.343,-0.196 0.692,-0.392 1.084,-0.588 1.526,-0.893 3.131,-0.292 4.577,-1.236 z m 9.282,-20.337 c -3.811,4.077 -9.196,6.381 -14.942,8.363 l 0,2.641 c 6.261,-2.466 11.965,-7.184 16.725,-10.155 2.432,-1.74 -0.478,-2.004 -1.783,-0.849 z m 24.156,2.052 c -3.651,5.916 -17.068,15.105 -23.672,18.285 -1.599,0.526 -1.899,2.353 0,1.954 1.991,-0.582 4.209,-1.734 6.506,-3.217 l 0,-0.036 c 0.006,0.012 0.024,0.012 0.024,0.024 7.033,-4.54 14.857,-12.18 19.501,-16.266 1.63,-1.347 -1.305,-2.101 -2.359,-0.744 z m 7.567,0.745 c 0.288,-0.87 -0.276,-1.229 -1.305,-1.299 -0.943,-0.037 -2.028,1.005 -1.299,1.955 0.79,0.63 2.181,0.431 2.604,-0.656 z m -6.709,2.793 c -0.509,1.599 -0.723,1.418 -1.752,2.408 -0.398,0.417 -0.662,0.956 0,1.298 0.827,0.441 3.039,-0.211 3.903,-1.951 0.38,-0.796 0.582,-1.179 0.649,-1.945 0.177,-1.485 -2.426,-1.24 -2.8,0.19 z m 2.733,3.211 c -0.674,2.129 0.539,1.866 -0.717,3.229 -0.478,0.526 -0.282,0.979 0.135,1.164 1.733,0.539 4.062,-0.919 3.909,-2.598 0.067,-1.642 0.08,-2.408 0.649,-3.25 0.753,-1.029 -0.938,-1.541 -1.967,-1.241 -0.943,0.413 -1.617,1.139 -2.009,2.696 z m 37.322,-0.996 c 0.668,0.521 0.925,0.594 1.869,0.438 1.011,-0.438 1.734,-1.292 0.282,-2.052 -0.95,-0.374 -0.956,0.264 -2.31,0.502 -0.601,0.383 -0.19,0.665 0.159,1.112 z m -45.544,3.174 c -1.893,2.453 -4.251,2.992 -6.028,5.462 -4.099,5.722 -6.549,11.31 -12.222,15.322 -2.426,1.452 -1.115,3.768 -0.141,4.821 0.221,0.221 1.366,0.539 2.371,-1.617 2.836,-7.383 2.653,-5.257 7.389,-10.078 1.562,-1.587 1.182,-4.001 2.604,-5.851 2.206,-2.843 5.833,-3.187 7.48,-6.574 0.404,-0.965 1.115,-1.002 1.709,-1.409 2.768,-1.464 -1.857,-2.717 -3.162,-0.076 z m 5.685,-0.383 c -1.587,2.297 -8.252,6.813 -7.156,9.098 0.282,0.281 0.355,0.447 0.993,0.281 3.896,-1.402 3.804,-5.838 6.819,-8.08 2.083,-1.777 0.141,-2.629 -0.656,-1.299 z m 1.955,5.845 c 1.146,-0.576 1.771,-2.304 0.318,-2.61 -0.294,-0.049 -1.225,-0.355 -1.667,0.393 -0.582,1.054 -1.519,-0.196 -2.009,1.421 -0.153,0.294 -0.172,0.576 -0.386,0.968 -0.251,0.533 0.257,1.066 0.49,1.128 1.495,0.403 1.888,-0.572 3.254,-1.3 z m 0,13.649 c 1.36,-3.608 2.462,-8.16 5.201,-10.396 0.735,-0.668 1.525,-2.824 0.104,-2.126 -0.698,0.392 -1.268,0.698 -1.93,1.421 -1.801,1.643 -4.748,7.903 -5.005,10.14 -0.251,1.899 1.207,2.309 1.63,0.961 z m -3.793,-9.141 c 1.335,-1.262 0.527,-2.077 -0.76,-1.911 -1.36,0.27 -1.439,1.838 -0.655,2.609 0.502,0.319 1.195,-0.477 1.415,-0.698 z m -2.064,13.038 c -0.558,-5.317 7.008,-9.386 5.33,-13.509 -0.527,-1.17 -6.941,8.338 -6.696,12.302 0.318,8.816 3.737,12.651 7.113,18.3 0.931,1.666 1.966,1.305 1.771,-0.159 -1.196,-6.213 -6.746,-9.534 -7.518,-16.934 z m -3.829,-10.513 c 0.368,-0.821 0.968,-1.416 0.784,-2.193 -0.27,-0.521 -0.564,-0.601 -1.421,-0.368 -6.261,1.654 -3.756,9.938 -7.248,14.373 -0.619,0.784 -2.696,-0.062 -2.604,1.948 0.214,2.604 0.435,5.201 0.649,7.799 0.19,1.023 2.052,1.207 1.955,0 -0.368,-3.008 -0.374,-4.784 0,-7.799 0.171,-0.968 0.919,-0.852 1.299,0.649 0.178,0.949 3.082,0.919 2.604,-0.649 -0.753,-2.414 -2.463,-1.109 -1.948,-2.598 1.341,-4.093 4.367,-7.499 5.93,-11.162 z m 4.478,-1.183 c -0.362,-0.233 -0.889,-0.374 -1.851,0.062 -0.227,0.092 -0.606,0.373 -0.827,0.618 -0.613,0.741 -1.127,2.157 0.073,2.567 0.662,0.208 1.605,-0.509 2.751,-1.127 0.712,-0.411 0.822,-1.489 -0.146,-2.12 z m -22.123,0.656 c -4.386,0.895 -9.417,4.907 -13.019,7.144 -1.532,1.042 -0.668,2.126 0,1.948 5.851,-0.968 8.712,-5.226 13.019,-7.799 0.693,-0.436 1.133,-1.293 0,-1.293 z m 3.903,3.247 c 2.267,-1.385 1.746,-2.978 0,-1.954 -3.97,2.113 -6.194,6.236 -9.76,8.448 -3.161,1.961 -5.808,3.271 -8.92,4.093 l 0,2.169 c 5.079,-1.489 9.576,-4.014 14.127,-7.561 1.79,-1.403 2.488,-3.816 4.553,-5.195 z m 14.967,0.643 c -1.133,0.184 -1.954,0.704 -2.604,1.299 -0.692,0.643 -1.458,1.881 0,2.604 0.686,0.215 1.084,0.135 1.746,-0.049 0.404,-0.123 1.201,-0.552 1.409,-0.766 1.189,-1.158 0.95,-3.486 -0.551,-3.088 z m 36.226,13.025 c -4.246,0.056 -6.513,-0.104 -8.89,-1.979 -4.772,-3.149 -5.152,-13.368 -6.506,-11.046 -0.876,2.573 -0.417,8.326 1.299,10.396 5.391,7.591 28.776,3.015 36.906,-0.687 2.696,-1.188 5.33,-2.94 6.696,-5.158 0.815,-1.801 -0.49,-3.106 -3.645,-2.837 -9.613,1.306 -13.84,5.876 -24.279,3.701 -1.421,-0.276 -2.016,-0.607 -2.665,0.435 0,0.429 -0.545,1.084 2.665,1.679 10.078,1.96 14.747,-0.588 22.974,-3.915 2.065,-0.974 3.259,-0.104 1.899,1.256 -3.155,2.935 -14.023,7.033 -20.518,6.574 -2.788,-0.196 -6.641,-1.851 -8.877,-3.535 -2.064,-1.299 -5.336,-1.679 -3.976,0.925 1.85,2.519 4.142,2.506 8.277,3.155 1.685,0.331 2.665,1.14 -1.36,1.036 z m -44.037,-11.071 c 0.809,-1.078 -1.354,-1.899 -1.948,-0.655 -1.201,1.893 -2.438,4.649 -3.909,6.5 -0.153,0.331 -0.3,0.588 -0.117,1.041 0.221,0.57 1.121,0.258 1.421,-0.392 1.33,-2.377 2.647,-4.705 4.553,-6.494 z m 13.668,2.598 c -1.366,-0.747 0.625,4.221 1.305,6.494 3.014,10.157 3.89,11.616 13.668,14.948 2.292,0.772 7.805,2.39 10.409,0.644 1.146,-1.06 3.217,0.27 5.208,0 0.895,-0.189 1.44,-0.9 0,-1.299 -10.2,-1.758 -20.401,0.398 -26.031,-7.787 -2.262,-3.289 -1.441,-10.55 -4.559,-13 z m -9.11,1.948 c -2.243,10.415 5.912,16.204 11.064,22.741 0.814,1.091 1.574,1.36 1.299,0 -0.925,-4.104 -3.848,-3.798 -5.857,-6.5 -2.745,-3.688 -5.226,-10.739 -4.558,-15.592 0.19,-1.886 -1.397,-2.303 -1.948,-0.649 z m 16.272,0.65 c -0.337,1.623 -0.202,1.942 -0.013,2.916 0.429,1.336 1.893,1.17 1.967,-0.318 0,-2.304 -1.593,-4.069 -1.954,-2.598 z m -33.843,1.948 c 0.337,-0.441 0.325,-1.379 0.11,-1.379 -1.826,-0.631 -7.272,7.076 -8.571,7.879 -1.072,0.655 -3.002,0.588 -4.362,0.95 l 0,2.156 c 6.715,-0.845 10.36,-4.405 12.823,-9.606 z m -0.778,11.787 c 1.323,-2.573 4.466,-11.199 2.42,-8.89 -1.562,2.598 -2.291,4.381 -4.239,6.855 -1.091,1.104 -0.833,2.071 0,2.592 0.324,0.337 1.292,0.485 1.819,-0.557 z m 7.223,-0.184 c 0.337,0.784 0.784,1.348 1.005,1.568 0.447,0.698 1.078,1.115 1.011,0.472 -0.992,-4.147 -1.924,-6.219 -1.305,-11.04 0,-1.789 -1.863,-1.636 -1.955,0 0.111,4.834 -0.815,4.467 1.244,9 z m 8.522,-5.758 0,-1.299 c -0.061,-1.531 -1.33,-1.091 -1.299,0 0.57,6.225 4.166,12.204 7.805,15.598 0.459,0.441 2.181,1.581 1.955,0.649 -0.876,-4.142 -4.632,-5.905 -6.513,-9.098 -0.931,-1.464 -1.973,-3.474 -1.948,-5.85 z m -2.028,4.888 c -0.086,-0.956 -1.207,-1.097 -1.299,0 0.067,2.512 -0.275,2.671 0.876,3.921 0.337,0.404 0.423,1.061 0.423,1.274 -0.239,0.625 0.809,1.14 0.656,0 -0.221,-1.727 -0.435,-3.467 -0.656,-5.195 z m -18.141,0.962 c -2.518,-1.219 -3.608,0.766 -7.621,0.797 l 0,2.334 c 3.265,0.441 5.208,-1.177 7.873,0.943 0.735,0.631 1.562,0.41 1.697,-0.172 0.269,-1.8 -0.809,-3.363 -1.949,-3.902 z m 80.043,1.305 c -0.104,-1.653 -3.486,1.287 -5.208,1.942 -2.745,1.042 -7.652,0.232 -9.894,0.644 -0.753,0.171 -1.771,1.054 -0.521,1.311 1.673,0.074 1.967,-0.202 3.217,-0.416 1.47,-0.276 2.708,-0.239 3.296,-0.239 1.66,-0.062 0.766,0.827 -0.19,1.354 -7.107,3.779 -28.292,3.517 -33.003,-1.354 -0.453,-0.552 -1.342,-0.563 -1.237,0.398 0.306,1.623 0.9,3.725 4.135,4.46 10.145,2.279 37.377,1.433 39.405,-8.1 z m -75.49,1.299 c -1.771,-0.422 -1.74,1.544 -0.649,2.598 2.009,2.01 4.025,4.02 6.041,6.035 l 2.175,0 c -1.233,-2.059 -6.453,-8.192 -7.567,-8.633 z m -6.023,2.432 c -0.515,-0.49 -1.672,-0.478 -2.438,0.165 -0.539,0.393 -0.723,0.993 0,1.948 0.221,0.215 0.429,0.436 0.649,0.649 0.748,0.625 2.163,0.889 3.259,0 0.582,-0.856 -0.422,-1.94 -1.47,-2.762 z m 26.191,4.711 c -1.96,-1.329 -2.702,-3.051 -5.208,-3.902 -2.34,-0.601 1.789,3.106 3.259,5.201 0.067,0.067 0.135,0.135 0.214,0.19 l 1.501,0 c 0.085,-0.056 0.159,-0.123 0.233,-0.19 0.461,-0.337 0.595,-0.882 0.001,-1.299 z m -25.903,1.489 c -2.5,-1.201 -4.546,-2.5 -6.439,-4.044 l 0,4.044 6.439,0 z m 6.047,0 1.66,0 c -0.968,-0.606 -1.96,-1.207 -3.002,-1.802 -2.346,-1.199 -0.894,0.062 1.342,1.802 z m 121.384,-2.138 c -0.288,0.724 -0.601,1.434 -0.907,2.139 l 2.42,0 c -0.141,-0.595 -0.233,-1.28 -0.214,-2.139 0.135,-1.838 -0.736,-1.703 -1.299,0 z"
         id="path25"
         style="fill:#2f92cb" />
      <path
         d="m 101.8125,512.09375 0,31.78125 50.34375,0 0,-31.78125 -50.34375,0 z m 52.71875,0 0,31.78125 50.375,0 0,-31.78125 -50.375,0 z m 52.75,0 0,31.78125 50.34375,0 0,-31.78125 -50.34375,0 z"
         id="rect5"
         style="fill:#025fa5;fill-opacity:1" />
      <path
         d="m 109.8125,519.4375 -0.0312,17 12.625,0 0,-5.5625 2.5625,0 6.53125,5.5625 13.1875,0 -8.3125,-5.875 0.34375,-0.0312 c 2.677,0.064 5.256,-2.31077 5.25,-5.34375 0,-4.078 -3.04351,-5.75001 -5.8125,-5.75 l -26.34375,0 z m 85.8125,0 -32.4375,0.0312 0,3.96875 9.5625,0 0,13 13.4375,0 0.0312,-13 9.40625,0 0,-4 z m 20.375,0.0312 0,16.96875 32.9375,0 0,-3.9375 -18.5,0 0,-13.03125 -14.4375,0 z m -93.59375,3.875 5.78125,0 c 1.15201,-3e-5 1.8125,0.99 1.8125,1.875 0,1.03201 -0.6955,1.8305 -1.6875,1.9375 l -5.90625,-0.0312 0,-3.78125 z"
         id="path11"
         style="fill:#ffffff;fill-rule:evenodd" />
      <rect
         width="453.543"
         height="97.698997"
         x="101.79993"
         y="512.08411"
         id="rect21"
         style="fill:none" />
    </g>
  </g>
  <path
     d="m 588.91101,64.999954 0,-59.9999539 16.44622,0 16.44624,0 0.31852,23.8235289 0.31849,23.823527 30.29405,0.313957 30.29417,0.313959 0,-24.137437 0,-24.1375349 17.05882,0 17.05886,0 0,59.9999539 0,60.000046 -17.05886,0 -17.05882,0 0,-24.13757 0,-24.137493 -30.29417,0.313957 -30.29405,0.314058 -0.31849,23.823498 -0.31852,23.82355 -16.44624,0 -16.44622,0 0,-60.000046 z m 151.76475,0 0,-59.9999539 40.88236,0.020173 c 45.20837,0.022657 51.7346,0.7349958 64.59843,7.0516399 12.46025,6.118407 24.1078,21.178949 27.38996,35.415742 1.81103,7.855466 1.50114,27.806626 -0.55455,35.698553 -4.1385,15.888647 -14.20902,28.419522 -27.93589,34.760582 -13.40228,6.19116 -21.33499,7.05303 -64.9189,7.05303 l -39.46141,0 0,-59.999989 z m 78.98047,34.774828 c 7.73627,-2.783565 14.3272,-8.875291 17.52129,-16.194221 2.17643,-4.987168 2.73695,-8.453889 2.81391,-17.40409 0.11646,-13.577191 -1.78381,-20.689617 -7.22827,-27.050126 -7.85636,-9.178446 -17.01588,-11.773431 -41.55709,-11.773431 l -16.41268,0 0,37.797551 0,37.797485 19.70593,-0.60591 c 14.15194,-0.43516 21.24223,-1.15868 25.15691,-2.567258 z"
     id="path2929"
     style="fill:#bbbcc1;fill-opacity:1" />
</svg>
