<svg xmlns="http://www.w3.org/2000/svg" width="800" height="138.614"><path fill="#ff8a00" d="M549.98 138.614H800V0H549.98z"/><path fill="#fffffe" d="M627.679 31.861h17.362v60.127h77.263v14.76h-94.626V31.861" fill-rule="evenodd"/><path fill="#d4000d" d="M274.99 138.614h250.02V0H274.99z"/><path fill="#fffffe" d="M391.319 46.626h-43.952v-14.76h105.259v14.76h-43.949v60.127h-17.362V46.626" fill-rule="evenodd"/><path fill="#0c75ed" d="M0 138.614h250.02V0H0z"/><path fill="#fffffe" d="M135.37 66.523c10.745 0 15.952-3.422 15.952-10.376s-5.208-10.269-15.952-10.269H88.384v20.646zM71.022 31.861h66.63c20.293 0 31.576 8.99 31.576 24.071 0 12.947-8.463 21.612-22.895 23.644l32.661 27.172h-25.069l-30.705-26.21H88.384v26.21H71.022z" fill-rule="evenodd"/></svg>