<svg xmlns="http://www.w3.org/2000/svg" width="800" height="110.113"><path fill="#ff8a00" d="M436.897 110.113H635.51V0H436.897z"/><path fill="#fffffe" d="M498.62 25.31h13.792v47.764h61.377v11.725h-75.17V25.31" fill-rule="evenodd"/><path fill="#d4000d" d="M218.448 110.113h198.613V0H218.448z"/><path fill="#fffffe" d="M310.859 37.039h-34.915V25.314h83.616v11.725h-34.913v47.764h-13.792V37.039" fill-rule="evenodd"/><path fill="#0c75ed" d="M0 110.113h198.613V0H0z"/><path d="M107.536 52.845c8.536 0 12.672-2.718 12.672-8.243s-4.137-8.158-12.672-8.158H70.211v16.401zM56.419 25.31h52.93c16.12 0 25.084 7.142 25.084 19.122 0 10.285-6.723 17.168-18.187 18.782l25.945 21.585h-19.914L97.884 63.978H70.211v20.821H56.419z" fill-rule="evenodd" fill="#fffffe"/><path d="M670.558 23.404V86.71h13.767V60.174h27.624V86.71h13.765V23.404h-13.765v25.358h-27.624V23.404zm70.93 0V86.71h23.734c10.928 0 19.442-2.687 25.54-8.06C796.921 73.215 800 65.246 800 54.74c0-6.4-1.39-11.956-4.167-16.665s-6.731-8.333-11.863-10.869-11.14-3.803-18.023-3.803zm13.767 11.502h11.596c3.925 0 7.336.846 10.234 2.537a16.6 16.6 0 0 1 6.613 7.064c1.509 3.019 2.264 6.43 2.264 10.234 0 6.4-1.72 11.412-5.162 15.034s-8.392 5.433-14.853 5.433h-10.692z" fill="#fdfeff"/></svg>