<?xml version="1.0" encoding="UTF-8"?>
<svg width="800" height="92.302" version="1.1" xmlns="http://www.w3.org/2000/svg">
	<path d="m574.98 21.659c-12.223 0-19.393 5.4783-19.393 13.978 0 7.5862 4.495 12.012 14.892 14.049l8.428 1.6161c6.0392 1.1241 7.9386 2.8049 7.9386 6.4578 0 4.2146-3.5825 6.6059-10.746 6.6059-8.5017 0-12.643-3.0917-13.135-8.7113h-8.9945c0.56367 10.537 8.1472 16.721 21.775 16.721 13.275 0 20.165-5.6192 20.165-14.821 0-8.1483-4.4318-12.438-15.742-14.615l-8.003-1.4744c-5.2678-0.98335-7.5201-2.8062-7.5201-5.8268 0-3.8635 3.0226-5.9749 9.6255-5.9749 7.5193 0 11.383 2.8085 11.802 7.6553h8.9945c-0.2802-9.202-8.0789-15.658-20.088-15.658zm30.428 0.77262v30.203c0 12.222 8.2232 19.74 21.356 19.74 13.278 0 21.35-7.4474 21.35-19.74v-30.203h-8.9173v29.92c0 7.8674-4.353 12.014-12.433 12.014-8.0072 0-12.362-4.1468-12.362-12.014v-29.92zm55.036 0v49.171h8.9881v-17.004h13.765c10.044 0 16.721-6.5313 16.721-16.225 0-9.5531-6.6071-15.942-16.721-15.942zm49.596 0v49.171h36.313v-7.8678h-27.325v-13.559h25.149v-7.797h-25.149v-12.085h27.325v-7.8614zm47.535 0v49.171h8.9881v-18.195h11.171l12.156 18.195h10.115v-0.70823l-12.858-18.401c6.4611-2.0372 10.54-7.3746 10.54-14.751 0-8.7804-6.253-15.311-16.367-15.311zm-88.143 7.8614h12.574c5.6205 0 8.7821 2.8824 8.7821 8.0803 0 5.4089-3.0198 8.3571-8.7821 8.3571h-12.574zm97.131 0h14.197c4.9151 0 7.8614 2.8135 7.8614 7.4493 0 4.8472-2.8771 7.797-7.8614 7.797h-14.197z" fill="#fff"/>
	<path d="m164.09 0h-164.09v92.302h164.09z" fill="#edc00c"/>
	<path d="m344.57 0h-164.09v92.302h164.09z" fill="#ff8a00"/>
	<path d="m525.03 0h-164.09v92.302h164.09z" fill="#9629bc"/>
	<g fill="#fff">
		<path d="m46.865 21.223h43.73c13.316 0 20.726 5.9811 20.726 16.023 0 8.6187-5.5533 14.386-15.028 15.739l21.437 18.088h-16.451l-20.153-17.451h-22.86v17.451h-11.395v-49.85zm42.232 23.074c7.0512 0 10.47-2.2792 10.47-6.9068 0-4.6275-3.4185-6.8371-10.47-6.8371h-30.837v13.744z"/>
		<path d="m412.08 21.223h11.396v40.028h50.707v9.8279h-62.103z"/>
		<path d="m256.75 31.051h-28.841v-9.8277h69.083v9.8277h-28.847v40.028h-11.395z"/>
	</g>
</svg>
