<?xml version="1.0" encoding="UTF-8"?>
<svg width="800" height="79.833" version="1.1" xmlns="http://www.w3.org/2000/svg">
	<path d="m497.3 18.733c-10.572 0-16.773 4.7383-16.773 12.09 0 6.5614 3.8878 10.389 12.88 12.151l7.2894 1.3977c5.2234 0.97225 6.8662 2.426 6.8662 5.5854 0 3.6452-3.0986 5.7135-9.2942 5.7135-7.3532 0-10.935-2.6741-11.36-7.5345h-7.7795c0.48752 9.1132 7.0466 14.462 18.833 14.462 11.482 0 17.441-4.8601 17.441-12.819 0-7.0475-3.8331-10.757-13.616-12.641l-6.9219-1.2752c-4.5562-0.85051-6.5043-2.4272-6.5043-5.0397 0-3.3416 2.6143-5.1678 8.3252-5.1678 6.5036 0 9.8454 2.4291 10.207 6.6212h7.7795c-0.24234-7.9589-6.9875-13.543-17.374-13.543zm26.318 0.66825v26.123c0 10.571 7.1123 17.074 18.471 17.074 11.485 0 18.466-6.4414 18.466-17.074v-26.123h-7.7127v25.878c0 6.8046-3.765 10.391-10.753 10.391-6.9255 0-10.692-3.5866-10.692-10.391v-25.878zm47.601 0v42.528h7.774v-14.707h11.906c8.6875 0 14.462-5.649 14.462-14.033 0-8.2626-5.7146-13.788-14.462-13.788zm42.896 0v42.528h31.408v-6.805h-23.634v-11.728h21.751v-6.7437h-21.751v-10.452h23.634v-6.7994zm41.114 0v42.528h7.7739v-15.737h9.6617l10.514 15.737h8.7484v-0.61256l-11.121-15.915c5.5883-1.762 9.116-6.3784 9.116-12.758 0-7.5943-5.4083-13.242-14.156-13.242zm-76.236 6.7994h10.876c4.8613 0 7.5957 2.493 7.5957 6.9887 0 4.6782-2.6119 7.2282-7.5957 7.2282h-10.876zm84.01 0h12.279c4.2511 0 6.7994 2.4334 6.7994 6.443 0 4.1924-2.4884 6.7437-6.7994 6.7437h-12.279z" fill="#fff"/>
	<path d="m141.93 0h-141.93v79.833h141.93z" fill="#edc00c"/>
	<path d="m298.02 0h-141.93v79.833h141.93z" fill="#ff8a00"/>
	<path d="m454.11 0h-141.92v79.833h141.92z" fill="#9629bc"/>
	<g fill="#fff">
		<path d="m40.534 18.356h37.823c11.517 0 17.926 5.1731 17.926 13.858 0 7.4544-4.8031 12.442-12.998 13.613l18.541 15.644h-14.229l-17.43-15.094h-19.772v15.094h-9.856v-43.116zm36.527 19.957c6.0987 0 9.0554-1.9713 9.0554-5.9738 0-4.0023-2.9567-5.9135-9.0554-5.9135h-26.671v11.887z"/>
		<path d="m356.42 18.356h9.8565v34.621h43.857v8.5002h-53.713z"/>
		<path d="m222.06 26.856h-24.945v-8.5001h59.751v8.5001h-24.95v34.621h-9.856z"/>
	</g>
	<path d="m714.76 19.401v42.528h7.7741v-17.825h21.39v17.825h7.7741v-42.528h-7.7741v17.036h-21.39v-17.036zm48.305 0v42.528h17.3c0.38568 0 0.76692-0.0061 1.142-0.02027 0.37503-0.0141 0.74379-0.036 1.1082-0.06419 0.36437-0.0282 0.72404-0.06244 1.0778-0.10474 0.35372-0.04229 0.7009-0.09226 1.044-0.14866 0.34308-0.05639 0.68115-0.12038 1.0136-0.19089 0.33242-0.07049 0.65971-0.14683 0.98147-0.23143 0.32178-0.08459 0.63827-0.17665 0.94937-0.27535 0.31112-0.09871 0.61683-0.20478 0.91729-0.31759 0.30045-0.11281 0.59538-0.23291 0.88518-0.35982 0.28981-0.1269 0.57563-0.26104 0.85478-0.40205 0.27916-0.14101 0.5525-0.28918 0.82099-0.44428 0.2685-0.1551 0.53106-0.31731 0.7889-0.48651s0.51129-0.34544 0.75848-0.52874c0.24718-0.1833 0.48818-0.37358 0.7247-0.57098 0.23653-0.1974 0.46843-0.40171 0.6943-0.61321s0.4453-0.42986 0.66051-0.65544c0.21737-0.22819 0.42802-0.46295 0.63179-0.70443 0.20378-0.24148 0.40106-0.4902 0.59125-0.74497 0.19019-0.25478 0.37411-0.51575 0.55071-0.78383 0.1766-0.26809 0.34546-0.54298 0.50847-0.82437 0.16302-0.28139 0.32019-0.56853 0.46962-0.86322 0.14943-0.29469 0.29154-0.59746 0.42739-0.90546 0.13585-0.308 0.26459-0.62131 0.38685-0.94262 0.12225-0.3213 0.23762-0.65024 0.3463-0.98485 0.10868-0.33461 0.21067-0.67578 0.30575-1.0237 0.0951-0.34793 0.18371-0.70132 0.26522-1.0626 0.0815-0.36123 0.15677-0.73024 0.22468-1.1048 0.0679-0.37455 0.12811-0.75577 0.18244-1.1436 0.0543-0.38786 0.10284-0.78133 0.14359-1.1825 0.0407-0.40118 0.0742-0.81023 0.10136-1.2247 0.0543-0.82899 0.081-1.6837 0.081-2.566 0-0.53742-0.011-1.0665-0.0355-1.5862-0.0246-0.5197-0.0625-1.0302-0.11149-1.5322-0.049-0.50198-0.11058-0.99558-0.18413-1.4798-0.0735-0.48424-0.15871-0.95926-0.25678-1.4258-0.0981-0.46649-0.20853-0.92465-0.33109-1.3734-0.12256-0.44873-0.2567-0.88835-0.40374-1.3193-0.14706-0.43098-0.30653-0.85207-0.47807-1.2653-0.17153-0.4132-0.35637-0.81748-0.55239-1.2129-0.19601-0.39542-0.4015-0.77945-0.61828-1.1521-0.21679-0.37263-0.44491-0.73468-0.68247-1.0845-0.23756-0.34984-0.48496-0.68822-0.74329-1.0153s-0.52668-0.64346-0.80579-0.94769c-0.27911-0.30423-0.56839-0.59701-0.86828-0.87843-0.29989-0.28142-0.61012-0.55056-0.93079-0.80917-0.32068-0.2586-0.65185-0.50581-0.9933-0.7416-0.34145-0.23578-0.69357-0.46108-1.0558-0.67402-0.36224-0.21295-0.73217-0.41169-1.1099-0.598-0.3777-0.18632-0.764-0.35891-1.1572-0.51861-0.39315-0.1597-0.79247-0.30615-1.2011-0.43921-0.4086-0.13308-0.82601-0.25336-1.2501-0.35982s-0.85618-0.1989-1.2957-0.27873c-0.4395-0.07983-0.88634-0.1478-1.3413-0.20102-0.45494-0.05319-0.91651-0.09165-1.3869-0.11825-0.4704-0.02664-0.95005-0.04054-1.4359-0.04054zm7.7741 7.7268h10.447c0.27704 0 0.54965 0.0093 0.81762 0.02703 0.26798 0.01773 0.52999 0.04385 0.7889 0.0794s0.51371 0.08018 0.76355 0.13345c0.24985 0.05328 0.49575 0.1148 0.73653 0.18582 0.24078 0.07101 0.47609 0.1511 0.70781 0.23988 0.23172 0.08877 0.4598 0.18573 0.68246 0.29225 0.22267 0.10651 0.44015 0.22204 0.65376 0.3463 0.2136 0.12425 0.42386 0.25837 0.62841 0.40036 0.20455 0.14199 0.4023 0.29005 0.59462 0.44597 0.19233 0.15592 0.37908 0.32005 0.55916 0.48989 0.18009 0.16984 0.35413 0.34666 0.52199 0.53044 0.16784 0.18378 0.32922 0.37326 0.48482 0.57098 0.15561 0.19771 0.30431 0.40325 0.44766 0.6149 0.14336 0.21166 0.28108 0.42984 0.41219 0.65544 0.13109 0.2256 0.25617 0.45811 0.37502 0.69767 0.11885 0.23955 0.23128 0.48638 0.33785 0.7399 0.1066 0.25351 0.20745 0.51026 0.3007 0.772 0.0933 0.26175 0.17855 0.52906 0.25845 0.79903 0.0799 0.26997 0.15303 0.54278 0.21961 0.82099 0.0666 0.27821 0.12751 0.56157 0.18076 0.84802 0.0533 0.28645 0.0986 0.57698 0.13852 0.87167 0.04 0.29469 0.0747 0.59237 0.10136 0.89532 0.0533 0.60589 0.0794 1.2294 0.0794 1.8683 0 0.53742-0.0152 1.0594-0.0456 1.5677-0.0304 0.50829-0.0761 1.0024-0.13683 1.4815-0.0607 0.47915-0.13697 0.94366-0.22805 1.3937-0.0911 0.45-0.19614 0.88497-0.31758 1.3058-0.12145 0.42085-0.25868 0.82798-0.4105 1.2197-0.15181 0.39169-0.31953 0.76929-0.50172 1.1318-0.18219 0.36253-0.37867 0.71061-0.59124 1.044-0.21257 0.33336-0.44122 0.65194-0.68417 0.95613s-0.49905 0.58862-0.76862 0.85478c-0.26956 0.26616-0.55184 0.51346-0.84802 0.7416-0.29619 0.22814-0.60629 0.43661-0.92911 0.62672-0.32282 0.19012-0.65904 0.36145-1.0085 0.51354-0.34944 0.1521-0.71182 0.2863-1.0879 0.40036-0.37608 0.11407-0.76454 0.20775-1.1673 0.2838-0.40274 0.07603-0.819 0.13428-1.2484 0.17231-0.42939 0.03806-0.87342 0.05574-1.3295 0.05574h-9.9347z" fill="#fff"/>
</svg>
