<?xml version="1.0" encoding="UTF-8" standalone="no"?>
<!-- Created with Inkscape (http://www.inkscape.org/) -->
<svg
   xmlns:svg="http://www.w3.org/2000/svg"
   xmlns="http://www.w3.org/2000/svg"
   version="1.0"
   width="602.36218"
   height="157.57086"
   id="svg9339">
  <defs
     id="defs9341" />
  <g
     id="layer1">
    <g
       transform="matrix(0.999985,0,0,0.999993,-50.25114,-390.7146)"
       id="g14697">
      <rect
         width="194.784"
         height="75.662003"
         x="68.024574"
         y="454.90704"
         style="fill:#f7ef6e;fill-opacity:1"
         id="rect9314" />
      <path
         d="M 67.96875,408.5 L 67.96875,448.21875 L 130.90625,448.21875 L 130.90625,408.5 L 67.96875,408.5 z M 133.90625,408.5 L 133.90625,448.21875 L 196.84375,448.21875 L 196.84375,408.5 L 133.90625,408.5 z M 199.8125,408.5 L 199.8125,448.21875 L 262.75,448.21875 L 262.75,408.5 L 199.8125,408.5 z M 68.03125,454.90625 L 68.03125,483.28125 C 71.08725,483.67924 74.18025,483.6685 77.28125,483.0625 C 80.061247,482.52651 82.7875,481.55125 85.4375,480.28125 C 86.425498,483.60426 88.9705,491.45725 92.1875,496.28125 C 93.022497,497.51425 94.0545,498.8145 95.1875,500.0625 C 93.893498,502.49049 92.6325,504.925 91.4375,507.375 C 89.660498,506.70901 87.897,506.16475 86.25,505.84375 C 80.138998,504.62576 71.09525,505.53125 68.03125,505.90625 L 68.03125,507.5 C 70.77325,508.978 77.6605,512.54225 83.3125,513.90625 C 77.729497,517.95723 72.56525,522.26675 68.03125,526.96875 L 68.03125,529.875 C 73.19325,524.224 79.2665,519.12425 85.9375,514.40625 C 86.657498,514.49822 87.40625,514.579 88.15625,514.625 C 86.456251,518.66001 84.95175,522.7575 83.71875,526.9375 C 82.416749,528.07152 81.1395,529.3065 79.9375,530.5625 L 92.96875,530.5625 C 98.688752,526.09052 104.56875,518.44675 104.84375,518.09375 L 105.625,517.125 L 104.40625,517.4375 C 103.93925,517.55951 92.93975,520.46425 86.84375,524.53125 C 86.705751,524.62326 86.54425,524.7205 86.40625,524.8125 C 87.509253,521.40549 88.80175,518.058 90.21875,514.75 C 96.574748,514.957 103.17125,514.1085 103.53125,514.0625 L 104.75,513.875 L 103.6875,513.25 C 103.4275,513.10398 99.35775,510.73925 94.59375,508.65625 C 96.477748,507.47626 98.413747,506.3285 100.34375,505.1875 C 103.22275,507.7915 105.65175,509.6585 105.84375,509.8125 L 106.8125,510.5625 L 106.5,509.34375 C 106.438,509.11475 105.70175,506.31925 104.46875,502.78125 C 106.09975,501.86225 107.75225,500.93525 109.40625,500.03125 C 109.55225,504.68724 110.05575,508.592 110.09375,508.875 L 110.25,510.09375 L 110.90625,509.03125 C 111.07425,508.72424 114.06825,503.544 116.28125,498 C 117.66725,499.807 119.05025,501.656 120.40625,503.5 C 116.94525,507.16101 114.27775,510.6995 114.09375,510.9375 L 113.34375,511.90625 L 114.53125,511.59375 C 114.82225,511.51775 119.2055,510.3215 123.9375,508.4375 C 125.3545,510.48149 126.7225,512.54325 128.0625,514.65625 C 121.7755,514.51027 115.32875,515.42275 114.96875,515.46875 L 113.75,515.625 L 114.84375,516.25 C 115.25775,516.487 125.1295,522.1305 132.3125,523.5625 C 132.66449,523.63153 133.0625,523.69 133.4375,523.75 C 134.6325,525.97899 135.77175,528.2345 136.84375,530.5625 L 138.96875,530.5625 C 137.95775,528.3275 136.876,526.145 135.75,524 C 142.727,524.58198 151.12425,523.4845 151.53125,523.4375 L 152.78125,523.28125 L 151.71875,522.65625 C 151.29776,522.41126 141.441,516.69 134.25,515.25 C 133.07099,515.02103 131.7775,514.849 130.4375,514.75 C 128.92849,512.33802 127.358,510.0155 125.75,507.6875 C 128.017,506.70751 130.27975,505.585 132.09375,504.375 C 138.25875,500.248 145.30275,491.10175 145.59375,490.71875 L 146.34375,489.75 L 145.15625,490.03125 C 144.68925,490.15425 133.6515,493.08825 127.5625,497.15625 C 125.6245,498.45024 123.64225,500.24075 121.78125,502.09375 C 120.24225,500.01074 118.66375,497.94325 117.09375,495.90625 C 117.10175,495.89126 117.08575,495.85975 117.09375,495.84375 C 119.55175,494.52775 122.042,493.20825 124.5,491.90625 C 132.817,487.49526 141.177,483.0445 149.125,478.3125 C 157.028,488.45251 160.673,508.7765 176.25,517.4375 C 188.074,524.00848 203.4385,522.5925 216.6875,519.0625 C 218.3495,522.79952 219.879,526.6035 221.25,530.5625 L 223.28125,530.5625 C 221.85725,526.42752 220.2785,522.43625 218.5625,518.53125 C 233.72551,514.21223 245.6875,507.4375 245.6875,507.4375 C 235.2955,509.5425 223.173,505.7745 209.25,500.0625 C 206.256,494.68651 203.1485,489.443 200.0625,484.25 C 199.76349,483.74401 199.45425,483.21675 199.15625,482.71875 C 209.37226,481.79976 219.50575,481.85675 229.46875,470.09375 C 232.85375,466.08875 235.13075,461.14775 236.59375,455.71875 C 239.24275,457.84774 241.9785,459.9145 244.8125,461.9375 C 241.40451,478.3785 246.08075,495.47375 249.34375,508.09375 C 243.38574,515.14776 238.14,522.5605 234.25,530.5625 L 236.25,530.5625 C 239.811,523.42552 244.51525,516.7525 249.90625,510.3125 C 250.28125,511.7835 250.61525,513.175 250.90625,514.5 C 250.90625,514.49998 254.76625,508.604 258.28125,501 C 259.75926,499.437 261.2815,497.8675 262.8125,496.3125 L 262.8125,454.90625 L 244.78125,454.90625 L 245.84375,457.84375 C 245.64474,458.52576 245.44925,459.22425 245.28125,459.90625 C 243.03025,458.27425 240.8245,456.59925 238.6875,454.90625 L 215.75,454.90625 C 214.847,456.53825 213.878,458.1075 212.875,459.5625 C 207.384,467.4965 201.29675,473.50825 196.21875,477.78125 C 191.77774,470.23025 187.544,462.71025 183.875,454.90625 L 181.75,454.90625 C 185.57901,463.14625 190.03975,471.08925 194.71875,479.03125 C 189.71075,483.08224 185.9525,485.27625 185.1875,485.78125 C 189.1465,484.08124 193.08725,483.3745 197.03125,482.9375 C 197.49025,483.7035 197.95525,484.45975 198.40625,485.21875 C 201.07925,489.70573 203.764,494.23475 206.375,498.84375 C 195.209,494.14975 182.925,488.4095 169.5,483.5625 C 164.02399,481.60151 156.901,478.8655 151.625,476.8125 C 162.285,470.31049 172.08575,463.20025 179.84375,454.90625 L 177.40625,454.90625 C 169.72526,462.77924 160.0825,469.5665 149.4375,475.9375 C 146.38149,474.74351 144.34375,473.96875 144.34375,473.96875 C 145.63775,474.71175 146.787,475.695 147.875,476.875 C 140.13999,481.439 131.91875,485.80775 123.59375,490.21875 C 121.70275,491.22175 119.80525,492.20775 117.90625,493.21875 C 118.06725,492.65275 118.2055,492.0975 118.3125,491.5625 C 119.7755,484.25551 118.16175,472.7945 118.09375,472.3125 L 117.90625,471.0625 L 117.3125,472.15625 C 117.0985,472.52426 112.46125,480.71675 110.53125,487.59375 C 109.82625,486.72075 109.10325,485.84175 108.40625,484.96875 C 107.92425,484.35674 107.45175,483.737 106.96875,483.125 C 107.03775,483.01 107.08725,482.89725 107.15625,482.78125 C 112.43225,473.72125 117.7795,464.53325 122.3125,454.90625 L 120.1875,454.90625 C 115.8225,464.08124 110.70325,472.87025 105.65625,481.53125 C 103.03725,478.25426 100.47275,474.9725 97.96875,471.6875 C 103.47475,466.76349 108.462,460.82525 112.75,454.90625 L 68.03125,454.90625 z M 128.28125,454.90625 C 134.20825,462.85525 138.02525,470.2025 138.90625,475.5625 C 138.90525,475.56251 138.5285,466.47725 136.0625,454.90625 L 128.28125,454.90625 z M 96.5,472.9375 C 99.134002,476.3995 101.86,479.8515 104.625,483.3125 C 102.909,486.23749 101.23975,489.1525 99.59375,492.0625 C 99.531749,491.9705 99.4905,491.86625 99.4375,491.78125 C 96.236498,486.98025 89.974,481.7115 87.125,479.4375 C 90.387001,477.69151 93.498,475.4645 96.5,472.9375 z M 105.90625,484.90625 C 106.24325,485.32024 106.57725,485.74325 106.90625,486.15625 C 107.91725,487.42025 108.9265,488.6655 109.9375,489.9375 C 109.4935,492.31949 109.359,495.14775 109.375,497.84375 C 107.506,498.86974 105.6505,499.8965 103.8125,500.9375 C 102.9325,498.6095 101.89875,496.14375 100.71875,493.96875 C 102.41875,490.95874 104.14425,487.93125 105.90625,484.90625 z M 96.5625,501.53125 C 97.312497,502.31225 98.11,503.0845 98.875,503.8125 C 97.183,504.8075 95.49775,505.81775 93.84375,506.84375 C 94.716749,505.07473 95.6285,503.29225 96.5625,501.53125 z M 109.34375,510.59375 C 107.42689,510.60557 105.694,511.93663 105.3125,513.90625 C 104.8685,516.14225 106.3185,518.34425 108.5625,518.78125 C 110.7985,519.23322 113.0005,517.745 113.4375,515.5 C 113.8815,513.27097 112.40025,511.08525 110.15625,510.65625 C 109.87763,510.60075 109.61759,510.59206 109.34375,510.59375 z M 112.21875,518.5625 L 112.53125,519.75 C 112.61525,520.06302 114.06825,525.3255 116.28125,530.5625 L 125.34375,530.5625 C 120.80175,525.01851 113.5395,519.5655 113.1875,519.3125 L 112.21875,518.5625 z M 108.53125,518.96875 L 107.90625,520.0625 C 107.73825,520.35348 104.9725,525.2025 102.8125,530.5625 L 109.5,530.5625 C 109.4,525.25549 108.75675,520.4935 108.71875,520.1875 L 108.53125,518.96875 z "
         style="fill:#fbac33;fill-opacity:1"
         id="polyline9316" />
      <path
         d="M 269.53125,408.5 L 269.53125,530.5625 L 634.90625,530.5625 L 634.90625,408.5 L 269.53125,408.5 z M 77.96875,417.6875 L 77.96875,438.9375 L 93.6875,438.9375 L 93.6875,431.96875 L 96.9375,431.96875 L 105.09375,438.9375 L 121.5625,438.9375 L 111.1875,431.59375 L 111.625,431.53125 C 114.971,431.60725 118.1955,428.666 118.1875,424.875 C 118.1875,419.783 114.36725,417.68749 110.90625,417.6875 L 77.96875,417.6875 z M 185.25,417.6875 L 144.71875,417.71875 L 144.71875,422.6875 L 156.65625,422.6875 L 156.625,438.9375 L 173.46875,438.9375 L 173.46875,422.6875 L 185.25,422.6875 L 185.25,417.6875 z M 210.71875,417.71875 L 210.71875,438.9375 L 251.90625,438.9375 L 251.90625,434.03125 L 228.75,434.03125 L 228.75,417.71875 L 210.71875,417.71875 z M 100.9375,422.5625 C 102.3775,422.5625 103.21875,423.772 103.21875,424.875 C 103.21875,426.17001 102.365,427.1905 101.125,427.3125 L 93.71875,427.3125 L 93.71875,422.59375 L 100.9375,422.5625 z "
         style="fill:white"
         id="rect9312" />
      <path
         d="M 269.53125,408.4375 L 269.53125,530.5625 L 559.0625,530.5625 L 561.4375,520.125 C 561.43551,520.125 569.355,524.5135 577.625,524.0625 C 581.09401,523.83348 586.27175,522.17375 587.71875,516.46875 L 593.21875,501.0625 C 593.21876,501.06249 584.268,511.44825 572.75,505.40625 C 562.68698,500.15225 565.36775,489.544 566.59375,483.625 L 571.0625,463.28125 C 573.63451,451.09024 583.37,444.03125 597.125,444.03125 C 603.49597,444.03124 609.20075,447.6125 612.21875,450.0625 C 617.02873,454.09049 622.84375,453.75 622.84375,453.75 C 622.84372,453.75001 621.513,457.00325 620.625,461.03125 L 607.15625,515.21875 C 606.45223,518.39772 604.80075,525.1255 599.59375,530.5625 L 634.90625,530.5625 L 634.90625,408.4375 L 269.53125,408.4375 z M 372.9375,424.625 C 378.63451,424.62501 382.42725,428.32625 381.53125,432.90625 C 380.52024,437.48525 375.16575,441.15625 369.46875,441.15625 C 363.76276,441.15625 359.96575,437.48625 360.96875,432.90625 C 361.86477,428.32625 367.2325,424.625 372.9375,424.625 z M 480.625,424.625 C 486.33,424.62501 490.139,428.32625 489.25,432.90625 C 488.239,437.48525 482.85425,441.15625 477.15625,441.15625 C 471.45125,441.15625 467.65325,437.48625 468.65625,432.90625 C 469.54425,428.32625 474.927,424.625 480.625,424.625 z M 305.03125,429.8125 L 323.8125,429.8125 L 309.625,495.34375 L 332.65625,495.34375 L 329.40625,509.5625 L 287.90625,509.5625 L 305.03125,429.8125 z M 533.34375,443.875 C 535.06316,443.85225 536.83925,444.01125 538.65625,444.375 C 548.38022,446.15901 554.20775,454.19225 550.96875,469.15625 L 542.25,509.5625 L 523.34375,509.5625 L 532.625,466.8125 C 533.41398,462.90751 533.62125,458.56575 529.15625,458.34375 C 524.45423,458.12075 522.66025,461.9035 521.65625,466.8125 L 512.375,509.5625 L 493.8125,509.5625 C 504.32749,460.12949 504.65625,458.90625 504.65625,458.90625 C 504.98625,456.77726 504.65625,453.75 504.65625,453.75 C 504.65625,453.75001 509.1255,455.101 519.1875,448.5 C 523.47299,445.65075 528.18553,443.94325 533.34375,443.875 z M 394.25,445.6875 L 413.15625,445.6875 L 414.40625,481.0625 C 414.51324,482.8465 415.60725,482.83 416.28125,481.375 L 432.375,445.6875 L 451.96875,445.6875 L 418.0625,509.5625 L 399.5,509.5625 L 394.25,445.6875 z M 359.84375,446.5 L 378.1875,446.5 L 364.4375,509.5625 L 346.09375,509.5625 L 359.84375,446.5 z M 467.53125,446.5 L 485.875,446.5 L 472.125,509.5625 L 453.78125,509.5625 L 467.53125,446.5 z M 595.5625,458.21875 C 591.64952,458.21874 590.1885,461.92975 589.0625,466.96875 L 585.5,483.28125 C 584.04503,490.09627 586.59675,492.78125 589.84375,492.78125 C 594.43073,492.78126 595.77725,488.648 596.78125,483.625 L 600.375,466.625 C 601.38602,461.81501 600.0425,458.21875 595.5625,458.21875 z "
         style="fill:#85c555;fill-opacity:1"
         id="path9330" />
    </g>
  </g>
</svg>
