<svg xmlns="http://www.w3.org/2000/svg" width="800" height="92.035" fill-rule="evenodd"><path fill="#6e0ced" d="M367.926 92.035h167.257V0H367.926z"/><path fill="#fff" d="M419.901 21.154h11.614v39.922h51.688v9.805H419.9V21.154"/><path fill="#d4000d" d="M183.965 92.035h167.257V0H183.965z"/><path fill="#fff" d="M261.784 30.959h-29.402v-9.805h70.414v9.805h-29.402v39.922H261.78V30.959"/><path fill="#0c39ed" d="M0 92.035h167.257V0H0z"/><path fill="#fff" d="M90.559 44.17c7.186 0 10.673-2.273 10.673-6.888s-3.483-6.821-10.673-6.821H59.126v13.71zM47.515 21.154h44.57c13.575 0 21.126 5.968 21.126 15.982 0 8.595-5.664 14.35-15.317 15.699l21.851 18.042h-16.772L82.432 53.476H59.129v17.402H47.512V21.154z"/><path fill="#fdfeff" d="M577.614 68.304a21.267 21.267 0 0 1-8.825-8.885c-2.053-3.848-3.076-8.343-3.076-13.487 0-5.189 1.027-9.71 3.076-13.558a21.494 21.494 0 0 1 8.825-8.92c3.837-2.099 8.358-3.15 13.568-3.15 4.389 0 8.294.768 11.717 2.301s6.142 3.692 8.142 6.478 3.172 5.993 3.511 9.628h-9.335c-.389-3.161-1.823-5.674-4.304-7.54s-5.731-2.796-9.735-2.796c-5.111 0-9.065 1.558-11.862 4.673s-4.198 7.409-4.198 12.885 1.398 9.745 4.198 12.814 6.75 4.602 11.865 4.602c3.904 0 7.065-.86 9.476-2.584s3.954-4.142 4.63-7.257h9.264a19.136 19.136 0 0 1-3.727 9.381c-2.053 2.715-4.75 4.814-8.106 6.301s-7.196 2.23-11.54 2.23c-5.204 0-9.727-1.037-13.565-3.115M632.7 29.013v15.363h14.619c2.556 0 4.545-.697 5.968-2.088s2.135-3.317 2.135-5.77c0-2.361-.726-4.198-2.173-5.522s-3.427-1.982-5.933-1.982zm34.442 40.92v.708h-10.418l-12.52-18.336H632.7v18.336h-9.26V21.083h24.46c3.423 0 6.4.662 8.931 1.982a14.336 14.336 0 0 1 5.862 5.487c1.37 2.336 2.06 4.991 2.06 7.965 0 3.681-.963 6.821-2.896 9.416-1.926 2.595-4.581 4.414-7.958 5.451zm7.43.708h9.26V21.083h-9.26zm30.336 0h-9.264V21.083h10.853l16.644 26.336h.283l17.005-26.336h10.35v49.558h-9.189V34.959h-.294l-17.724 27.257h-.726l-17.653-27.469h-.283v35.894m95.087 0h-37.409V21.083H800v7.929h-28.149v12.177h25.904v7.858h-25.904v13.664H800v7.929"/></svg>