<svg xmlns="http://www.w3.org/2000/svg" id="logo_full" class="hoo" version="1.1" width="500" height="325.497"><style id="style2">.st0{fill:#00bcf6}.name{transition:opacity .2s ease-out}.logo{transition:all .2s ease-out;transform-origin:top center}</style><g id="name" class="name" transform="scale(1.00472)" fill="#00bcf6" fill-opacity="1"><path class="st0" d="M32.6 255.1c11.8 0 20.4 6.5 20.4 17.9 0 8.6-3.9 15.1-11.9 17.4v.2c4.5 1 7.6 3 9.2 8.3.8 2.4 1.2 5.9 1.3 10.1.4 8.1 1.3 11.6 3.7 14.7h-10c-1.2-1.2-1.5-3.7-1.6-5.3l-.4-8.2c0-.9-.7-6.5-2.1-10.2-1.4-3.6-4.7-5.7-9.5-5.7H9.1v29.3H0v-68.5zm-4.1 31.6c10.1 0 15.4-3.6 15.4-12.2 0-7.5-4.5-11.7-12-11.7H9.1v23.9zm81-31.6v7.7H86.6v60.8h-9.1v-60.8H54.7v-7.7zm13.8 0V316h36.3v7.7h-45.4v-68.5h9.1zm102.8 0v15.4L194 306.1h33.7v17.6h-61.2v-16.5l31.9-34.4h-30v-17.6h57.7zm26 0l8.3 42.3h.2l8.3-42.3h18.6l8.1 42.9h.2l8.5-42.9h20.8l-19.2 68.5h-20.5l-7.4-41.7h-.2l-7.2 41.7H250l-18.6-68.5zm135.1 0v17.6h-35.6v8.5h32.3v16.3h-32.3v8.5h36.7v17.6h-57.8v-68.5zm30.9 0v68.5H397v-68.5z" id="path4" fill="#00bcf6" fill-opacity="1"/></g><g id="logo" class="logo" transform="scale(1.00472)" fill="#00bcf6" fill-opacity="1"><g id="bars" class="bars" fill="#00bcf6" fill-opacity="1"><path class="st0" d="M200.5 69.7l-34 6.6v85l34-6.6zm17-3.3v85l34-6.6v-85z" id="path7" fill="#00bcf6" fill-opacity="1"/></g><g id="border" class="border" fill="#00bcf6" fill-opacity="1"><path class="st0" d="M132.5 34h85V0h-119v221.1h68v-34h-34zm119-34v34h34.1v153.1h-85.1v34h119.1V0z" id="path10" fill="#00bcf6" fill-opacity="1"/></g></g><g aria-label="HD" style="line-height:1.25" id="text868" transform="scale(1.00472)" font-style="normal" font-weight="400" font-size="54.47" font-family="Nimbus Sans L" letter-spacing="0" word-spacing="0" opacity="1" fill="#00bcf6" fill-opacity="1" stroke="none" stroke-width="1.362" font-variant="normal" font-stretch="normal"><path d="M453.97 305.884v18.084h5.066v-39.709h-5.066v17.158h-20.426V284.26h-5.065v39.709h5.12v-18.084z" style="-inkscape-font-specification:'Nimbus Sans L'" id="path870"/><path d="M466.168 323.968h15.306c10.023 0 16.178-7.517 16.178-19.882 0-12.31-6.1-19.827-16.178-19.827h-15.306zm5.066-4.467v-30.775h9.369c7.843 0 11.983 5.284 11.983 15.415 0 10.022-4.14 15.36-11.983 15.36z" style="-inkscape-font-specification:'Nimbus Sans L'" id="path872" opacity="1"/></g></svg>