<?xml version="1.0" encoding="UTF-8" standalone="no"?>
<!-- Created with Inkscape (http://www.inkscape.org/) -->

<svg
   xmlns:dc="http://purl.org/dc/elements/1.1/"
   xmlns:cc="http://creativecommons.org/ns#"
   xmlns:rdf="http://www.w3.org/1999/02/22-rdf-syntax-ns#"
   xmlns:svg="http://www.w3.org/2000/svg"
   xmlns="http://www.w3.org/2000/svg"
   xmlns:sodipodi="http://sodipodi.sourceforge.net/DTD/sodipodi-0.dtd"
   xmlns:inkscape="http://www.inkscape.org/namespaces/inkscape"
   width="494"
   height="91.09375"
   id="svg2"
   version="1.1"
   inkscape:version="0.48.1 "
   sodipodi:docname="RTL_NITRO.svg">
  <defs
     id="defs4" />
  <sodipodi:namedview
     id="base"
     pagecolor="#ffffff"
     bordercolor="#666666"
     borderopacity="1.0"
     inkscape:pageopacity="0.0"
     inkscape:pageshadow="2"
     inkscape:zoom="1.1548016"
     inkscape:cx="202.59146"
     inkscape:cy="-52.704879"
     inkscape:document-units="px"
     inkscape:current-layer="layer1"
     showgrid="false"
     fit-margin-top="5"
     fit-margin-left="5"
     fit-margin-right="5"
     fit-margin-bottom="5"
     inkscape:window-width="1618"
     inkscape:window-height="1028"
     inkscape:window-x="-8"
     inkscape:window-y="-8"
     inkscape:window-maximized="1" />
  <metadata
     id="metadata7">
    <rdf:RDF>
      <cc:Work
         rdf:about="">
        <dc:format>image/svg+xml</dc:format>
        <dc:type
           rdf:resource="http://purl.org/dc/dcmitype/StillImage" />
        <dc:title />
      </cc:Work>
    </rdf:RDF>
  </metadata>
  <g
     inkscape:label="Ebene 1"
     inkscape:groupmode="layer"
     id="layer1"
     transform="translate(-117.35717,-380.14792)">
    <path
       style="fill:#d2d2d2;stroke:none;fill-opacity:1"
       d="m 122.35717,385.14792 0,81 12,0 0,-70.22464 20.5,0 c 8.31,0 15,6.69 15,15 0,8.31 -6.69508,14.70942 -15,15 l -17.5,0 28,40.22464 16,0 -22.40625,-29.25 c 12.70644,-1.68237 22.4375,-12.47351 22.4375,-25.65625 l 0,-0.1875 c 0,-14.35833 -11.54792,-25.90625 -25.90625,-25.90625 l -3.125,0 -1.15625,0 z m 62.5,0 0,11 15.3125,0 0,70 11,0 0,-70 15.6875,0 0,-11 z m 50.3125,0 0,81 42.6875,0 0,-9 -31.6875,0 0,-72 z"
       id="path3050"
       inkscape:connector-curvature="0"
       sodipodi:nodetypes="ccccsssccccsssccccccccccccccccccc" />
    <path
       style="fill:#bae637;stroke:none;fill-opacity:1"
       d="m 165,16 0,81 19,0 0,-52 32,52 18,0 0,-81 -19,0 0,52 -32,-52 -18,0 z m 80,0 0,81 21,0 0,-81 -21,0 z m 29,0 0,17.5 16.5,0 0,63.5 21,0 0,-63.5 16.5,0 0,-17.5 -54,0 z m 61,0 0,81 21,0.09375 L 356,34 l 21.15625,0 c 6.371,0 11.5,5.129 11.5,11.5 0,6.371 -5.129,11.5 -11.5,11.5 L 358,57 387,97 411,97 389.28125,70.15625 C 401.21033,67.14732 410,56.389268 410,43.5 410,28.265 397.735,16 382.5,16 L 335,16 z m 120,0 c -23.19596,0 -42,18.132467 -42,40.5 0,22.367533 18.80404,40.5 42,40.5 23.19596,0 42,-18.132467 42,-40.5 C 497,34.132467 478.19596,16 455,16 z m 0,17.90625 c 12.15026,0 22,10.110972 22,22.5625 C 477,68.920278 467.15026,79 455,79 442.84974,79 433,68.920278 433,56.46875 c 0,-12.451528 9.84974,-22.5625 22,-22.5625 z"
       transform="translate(109.35717,369.14792)"
       id="path3843"
       inkscape:connector-curvature="0" />
  </g>
</svg>
