<?xml version="1.0" encoding="UTF-8" standalone="no"?>
<!-- Created with Inkscape (http://www.inkscape.org/) -->

<svg
   xmlns:dc="http://purl.org/dc/elements/1.1/"
   xmlns:cc="http://creativecommons.org/ns#"
   xmlns:rdf="http://www.w3.org/1999/02/22-rdf-syntax-ns#"
   xmlns:svg="http://www.w3.org/2000/svg"
   xmlns="http://www.w3.org/2000/svg"
   xmlns:xlink="http://www.w3.org/1999/xlink"
   version="1.1"
   width="653.46875"
   height="91.25"
   id="svg2">
  <defs
     id="defs4">
    <clipPath
       id="clipPath3577">
      <path
         d="m 132.246,26.208 32.022,0 0,15.282 -32.022,0 0,-15.282 z"
         id="path3579" />
    </clipPath>
    <filter
       x="-0.78241152"
       y="-1.0024648"
       width="2.5648232"
       height="3.0049295"
       color-interpolation-filters="sRGB"
       id="filter5310-7">
      <feGaussianBlur
         id="feGaussianBlur5312-6"
         stdDeviation="16.152231" />
    </filter>
    <filter
       x="-0.94995868"
       y="-0.50466543"
       width="2.8999174"
       height="2.009331"
       color-interpolation-filters="sRGB"
       id="filter4704-5">
      <feGaussianBlur
         id="feGaussianBlur4706-2"
         stdDeviation="8.1314327" />
    </filter>
    <filter
       x="-0.15716863"
       y="-0.39802468"
       width="1.3143373"
       height="1.7960494"
       color-interpolation-filters="sRGB"
       id="filter4222-0">
      <feGaussianBlur
         id="feGaussianBlur4224-5"
         stdDeviation="9.8621658" />
    </filter>
    <filter
       x="-0.27287644"
       y="-0.73836923"
       width="1.5457529"
       height="2.4767385"
       color-interpolation-filters="sRGB"
       id="filter3800-8">
      <feGaussianBlur
         id="feGaussianBlur3802-2"
         stdDeviation="8.9382381" />
    </filter>
    <linearGradient
       id="linearGradient2489-0">
      <stop
         id="stop2491-8"
         style="stop-color:#cf2027;stop-opacity:1"
         offset="0" />
      <stop
         id="stop3267-9"
         style="stop-color:#eb1d2b;stop-opacity:1"
         offset="0.49652803" />
      <stop
         id="stop2493-2"
         style="stop-color:#f16276;stop-opacity:1"
         offset="1" />
    </linearGradient>
    <linearGradient
       x1="677.43103"
       y1="122.54211"
       x2="681.38068"
       y2="186.00531"
       id="linearGradient5522-2"
       xlink:href="#linearGradient2489-0"
       gradientUnits="userSpaceOnUse" />
    <filter
       x="-0.067884304"
       y="-0.55653518"
       width="1.1357687"
       height="2.1130705"
       color-interpolation-filters="sRGB"
       id="filter9024-8">
      <feGaussianBlur
         id="feGaussianBlur9026-0"
         stdDeviation="5.26385" />
    </filter>
    <filter
       color-interpolation-filters="sRGB"
       id="filter8914-2">
      <feGaussianBlur
         id="feGaussianBlur8916-7"
         stdDeviation="1.092609" />
    </filter>
    <filter
       x="-0.078180373"
       y="-1.042405"
       width="1.1563607"
       height="3.08481"
       color-interpolation-filters="sRGB"
       id="filter8708-7">
      <feGaussianBlur
         id="feGaussianBlur8710-8"
         stdDeviation="3.936508" />
    </filter>
    <filter
       color-interpolation-filters="sRGB"
       id="filter8402-7">
      <feGaussianBlur
         id="feGaussianBlur8404-5"
         stdDeviation="0.85876777" />
    </filter>
    <filter
       color-interpolation-filters="sRGB"
       id="filter8388-6">
      <feGaussianBlur
         id="feGaussianBlur8390-2"
         stdDeviation="2.1401553" />
    </filter>
    <filter
       x="-0.20042227"
       y="-0.071945429"
       width="1.4008445"
       height="1.1438909"
       color-interpolation-filters="sRGB"
       id="filter8330-8">
      <feGaussianBlur
         id="feGaussianBlur8332-2"
         stdDeviation="2.1977863" />
    </filter>
    <filter
       x="-0.11453728"
       y="-0.082293883"
       width="1.2290746"
       height="1.1645879"
       color-interpolation-filters="sRGB"
       id="filter8212-2">
      <feGaussianBlur
         id="feGaussianBlur8214-3"
         stdDeviation="3.7503856" />
    </filter>
    <filter
       x="-0.16690984"
       y="-0.04691216"
       width="1.3338197"
       height="1.0938243"
       color-interpolation-filters="sRGB"
       id="filter8010-6">
      <feGaussianBlur
         id="feGaussianBlur8012-6"
         stdDeviation="3.841596" />
    </filter>
    <filter
       x="-0.11266174"
       y="-0.45093343"
       width="1.2253236"
       height="1.9018669"
       color-interpolation-filters="sRGB"
       id="filter7884-9">
      <feGaussianBlur
         id="feGaussianBlur7886-8"
         stdDeviation="9.466444" />
    </filter>
    <filter
       x="-0.34850127"
       y="-0.23637477"
       width="1.6970025"
       height="1.4727495"
       color-interpolation-filters="sRGB"
       id="filter7618-8">
      <feGaussianBlur
         id="feGaussianBlur7620-6"
         stdDeviation="19.356524" />
    </filter>
    <filter
       x="-0.30315325"
       y="-0.34136584"
       width="1.6063066"
       height="1.6827317"
       color-interpolation-filters="sRGB"
       id="filter7464-8">
      <feGaussianBlur
         id="feGaussianBlur7466-3"
         stdDeviation="28.92647" />
    </filter>
    <filter
       color-interpolation-filters="sRGB"
       id="filter9158-9">
      <feGaussianBlur
         id="feGaussianBlur9160-9"
         stdDeviation="7.4624129" />
    </filter>
    <filter
       x="-0.61356997"
       y="-1.2473481"
       width="2.2271399"
       height="3.4946961"
       color-interpolation-filters="sRGB"
       id="filter6765-5">
      <feGaussianBlur
         id="feGaussianBlur6767-2"
         stdDeviation="8.0564496" />
    </filter>
    <filter
       x="-0.035500027"
       y="-0.70704252"
       width="1.0710001"
       height="2.4140849"
       color-interpolation-filters="sRGB"
       id="filter6675-2">
      <feGaussianBlur
         id="feGaussianBlur6677-4"
         stdDeviation="1.5104107" />
    </filter>
    <filter
       color-interpolation-filters="sRGB"
       id="filter6341-9">
      <feGaussianBlur
         id="feGaussianBlur6343-8"
         stdDeviation="1.2892527" />
    </filter>
    <filter
       x="-0.020179942"
       y="-0.86197168"
       width="1.0403599"
       height="2.7239432"
       color-interpolation-filters="sRGB"
       id="filter6307-1">
      <feGaussianBlur
         id="feGaussianBlur6309-4"
         stdDeviation="1.0741366" />
    </filter>
    <filter
       color-interpolation-filters="sRGB"
       id="filter6235-1">
      <feGaussianBlur
         id="feGaussianBlur6237-2"
         stdDeviation="1.3949526" />
    </filter>
    <filter
       x="-0.1690141"
       y="-0.11267605"
       width="1.3380282"
       height="1.225352"
       color-interpolation-filters="sRGB"
       id="filter6215-8">
      <feGaussianBlur
         id="feGaussianBlur6217-8"
         stdDeviation="8.1697269" />
    </filter>
    <filter
       x="-0.14677659"
       y="-0.18421961"
       width="1.2935532"
       height="1.3684392"
       color-interpolation-filters="sRGB"
       id="filter6125-4">
      <feGaussianBlur
         id="feGaussianBlur6127-5"
         stdDeviation="12.85554" />
    </filter>
    <filter
       color-interpolation-filters="sRGB"
       id="filter5775-6">
      <feGaussianBlur
         id="feGaussianBlur5777-2"
         stdDeviation="2.3571652" />
    </filter>
    <filter
       x="-0.025466667"
       y="-0.41672727"
       width="1.0509332"
       height="1.8334545"
       color-interpolation-filters="sRGB"
       id="filter5799-0">
      <feGaussianBlur
         id="feGaussianBlur5801-3"
         stdDeviation="1.632086" />
    </filter>
    <filter
       x="-0.95997339"
       y="-0.18474557"
       width="2.9199467"
       height="1.3694911"
       color-interpolation-filters="sRGB"
       id="filter5623-4">
      <feGaussianBlur
         id="feGaussianBlur5625-6"
         stdDeviation="5.1305867" />
    </filter>
    <filter
       x="-0.53834122"
       y="-0.44046092"
       width="2.0766823"
       height="1.8809218"
       color-interpolation-filters="sRGB"
       id="filter5213-4">
      <feGaussianBlur
         id="feGaussianBlur5215-9"
         stdDeviation="10.350224" />
    </filter>
    <filter
       x="-0.22640026"
       y="-0.096388228"
       width="1.4528005"
       height="1.1927764"
       color-interpolation-filters="sRGB"
       id="filter5297-6">
      <feGaussianBlur
         id="feGaussianBlur5299-0"
         stdDeviation="6.9322431" />
    </filter>
    <filter
       x="-0.491864"
       y="-0.47661293"
       width="1.9837281"
       height="1.9532259"
       color-interpolation-filters="sRGB"
       id="filter4649-1">
      <feGaussianBlur
         id="feGaussianBlur4651-2"
         stdDeviation="8.4745708" />
    </filter>
    <filter
       x="-0.23717386"
       y="-0.31451318"
       width="1.4743477"
       height="1.6290263"
       color-interpolation-filters="sRGB"
       id="filter3723-7">
      <feGaussianBlur
         id="feGaussianBlur3725-7"
         stdDeviation="10.302083" />
    </filter>
    <filter
       x="-0.058017898"
       y="-0.10847204"
       width="1.1160358"
       height="1.2169441"
       color-interpolation-filters="sRGB"
       id="filter3537-8">
      <feGaussianBlur
         id="feGaussianBlur3539-2"
         stdDeviation="8.9236833" />
    </filter>
    <filter
       color-interpolation-filters="sRGB"
       id="filter6890-6">
      <feGaussianBlur
         id="feGaussianBlur6892-8"
         stdDeviation="6.9653947" />
    </filter>
    <filter
       x="-0.14496784"
       y="-0.18715034"
       width="1.2899357"
       height="1.3743007"
       color-interpolation-filters="sRGB"
       id="filter7121-3">
      <feGaussianBlur
         id="feGaussianBlur7123-1"
         stdDeviation="4.8089191" />
    </filter>
    <filter
       color-interpolation-filters="sRGB"
       id="filter5412-5">
      <feGaussianBlur
         id="feGaussianBlur5414-2"
         stdDeviation="3.6105433" />
    </filter>
    <linearGradient
       id="linearGradient2489">
      <stop
         id="stop2491"
         style="stop-color:#cf2027;stop-opacity:1"
         offset="0" />
      <stop
         id="stop3267"
         style="stop-color:#eb1d2b;stop-opacity:1"
         offset="0.49652803" />
      <stop
         id="stop2493"
         style="stop-color:#f16276;stop-opacity:1"
         offset="1" />
    </linearGradient>
  </defs>
  <metadata
     id="metadata7">
    <rdf:RDF>
      <cc:Work
         rdf:about="">
        <dc:format>image/svg+xml</dc:format>
        <dc:type
           rdf:resource="http://purl.org/dc/dcmitype/StillImage" />
        <dc:title></dc:title>
      </cc:Work>
    </rdf:RDF>
  </metadata>
  <path
     d="m 513.8125,5 0,81.25 11.5,0 0,-34.875 34.5,0 0,34.875 11.5,0 0,-81.25 -11.5,0 0,34.875 -34.5,0 0,-34.875 -11.5,0 z m 66.5,0 0,81.25 30.78125,0 c 20.70945,0 37.375,-18.11875 37.375,-40.625 C 648.46875,23.11875 631.8032,5 611.09375,5 L 580.3125,5 z M 5,5.0625 l 0,81 12,0 0,-70.21875 20.5,0 c 8.31,0 15,6.69 15,15 0,8.31 -6.69508,14.70942 -15,15 l -17.5,0 28,40.21875 16,0 -22.40625,-29.25 c 12.70644,-1.68237 22.4375,-12.47351 22.4375,-25.65625 l 0,-0.1875 C 64.03125,16.61042 52.48333,5.0625 38.125,5.0625 l -3.125,0 -1.15625,0 L 5,5.0625 z m 62.5,0 0,11 15.3125,0 0,70 11,0 0,-70 15.6875,0 0,-11 -42,0 z m 50.3125,0 0,81 42.6875,0 0,-9 -31.6875,0 0,-72 -11,0 z m 474,10.8125 18.15625,0 c 15.17008,0 27.375,13.263657 27.375,29.75 0,16.486342 -12.20492,29.75 -27.375,29.75 l -18.15625,0 0,-59.5 z"
     id="path3050"
     style="fill:#d2d2d2;fill-opacity:1;stroke:none" />
  <path
     d="m 157,5.06275 0,81 19,0 0,-52 32,52 18,0 0,-81 -19,0 0,52 -32,-52 -18,0 z m 80,0 0,81 21,0 0,-81 -21,0 z m 29,0 0,17.5 16.5,0 0,63.5 21,0 0,-63.5 16.5,0 0,-17.5 -54,0 z m 61,0 0,81 21,0.09375 0,-63.09375 21.15625,0 c 6.371,0 11.5,5.129 11.5,11.5 0,6.371 -5.129,11.5 -11.5,11.5 l -19.15625,0 29,40 24,0 L 381.28125,59.219 C 393.21033,56.21007 402,45.452018 402,32.56275 c 0,-15.235 -12.265,-27.5 -27.5,-27.5 l -47.5,0 z m 120,0 c -23.19596,0 -42,18.132467 -42,40.5 0,22.367533 18.80404,40.5 42,40.5 23.19596,0 42,-18.132467 42,-40.5 0,-22.367533 -18.80404,-40.5 -42,-40.5 z m 0,17.90625 c 12.15026,0 22,10.110972 22,22.5625 0,12.451528 -9.84974,22.53125 -22,22.53125 -12.15026,0 -22,-10.079722 -22,-22.53125 0,-12.451528 9.84974,-22.5625 22,-22.5625 z"
     id="path3843"
     style="fill:#bae637;fill-opacity:1;stroke:none" />
</svg>
