<svg xmlns="http://www.w3.org/2000/svg" width="800" height="133" viewBox="0 0 211.587 34.956"><g fill="#f5281b"><rect width="38.677" height="21.014" x="80.128" y="6.672" ry="4.372"/><rect ry="4.372" y="6.617" x="40.19" height="21.014" width="38.677"/><rect width="38.677" height="21.014" y="6.65" ry="4.372"/></g><g stroke="#000" fill="#fff"><path d="M152.753 1.228c-.336-.005-.674.02-.955.07s-.506.13-.615.24c-.06.06-.11.3-.15.766l-.098 2.13-.07 9.495.055 8.583.132 3.68c.052.052.278.1.602.1s.744.022 1.184 0l1.598-.077.07-12.14-.016-9.432-.08-2.236c-.036-.5-.08-.768-.134-.833-.093-.112-.306-.2-.58-.258s-.607-.092-.943-.097zm29.634 6.9a17.07 17.07 0 0 0-.905.027l-1.645.08-.132 7.197-.178 5.702-.128 1.312c-.05.297-.105.462-.17.527s-.235.122-.547.166-.77.08-1.413.105l-6.462.072c-3.845 0-5.87-.006-6.976-.073-.554-.034-.878-.082-1.087-.154a.71.71 0 0 1-.39-.287c-.075-.103-.137-.27-.186-.548s-.087-.667-.115-1.212l-.145-10.393-.156-2.23c-.075-.118-.253-.198-.546-.242s-.7-.05-1.236-.023l-1.563.08v6.747l.05 4.486.224 2.7a6.37 6.37 0 0 0 .212.892 3.86 3.86 0 0 0 .298.693c.23.414.526.75.907 1.114l.527.458c.18.134.368.25.59.35s.474.184.78.255.664.13 1.097.175c.866.092 2.03.14 3.662.16l6.47.002 10.054-.05.074-8.467-.074-9.074c-.034-.14-.068-.25-.124-.33s-.132-.137-.252-.173-.284-.05-.513-.053zm-59.965.106l-.07 12.303.063 12.647c.046.12.193.2.463.243s.66.05 1.194.02l1.524-.08.066-2.9.203-3.506.138-.595h7.92l5.206-.044 3.22-.177s1.396-.21 1.857-.378.8-.38 1.118-.648c.403-.34.71-.62.947-.945a2.69 2.69 0 0 0 .301-.534 3.76 3.76 0 0 0 .209-.68c.112-.518.174-1.185.207-2.105s.04-2.09.04-3.62l-.086-4.915c-.04-.44-.097-.747-.18-1.01s-.19-.485-.333-.75a4.18 4.18 0 0 0-1.72-1.72c-.278-.148-.492-.26-.822-.344s-.775-.14-1.514-.178l-9.368-.077zm76.73 0c-2.45 0-4.28-.002-5.67.028s-2.342.09-3.04.217c-.35.063-.635.142-.88.24s-.45.22-.636.363c-.374.288-.678.674-1.096 1.19a4.09 4.09 0 0 0-.457.707 4.77 4.77 0 0 0-.319.799c-.084.278-.145.566-.183.86s-.054.59-.047.888a5.84 5.84 0 0 0 .089.886 5.48 5.48 0 0 0 .223.853c.097.275.216.54.357.79s.305.48.5.692c.4.456.733.804 1.126 1.07.197.133.408.245.652.34s.518.173.84.237c.644.127 1.478.197 2.63.236s2.624.046 4.543.048l4.422.04 2.476.192c.287.05.52.113.712.19s.345.165.47.27a1.48 1.48 0 0 1 .311.365c.086.14.16.297.234.476.093.224.146.448.16.67a1.89 1.89 0 0 1-.076.659c-.064.217-.167.43-.31.64s-.32.41-.54.607c-.14.126-.273.222-.52.297s-.613.128-1.214.168l-7.423.144-8.572.08v1.265c0 .348.022.686.056.95s.082.453.134.505 1.083.09 2.7.11h6.23l7.71-.15c.633-.043 1.035-.103 1.347-.188s.534-.196.807-.342a5.08 5.08 0 0 0 1.083-.769c.316-.295.586-.63.81-1s.4-.777.53-1.22a6.59 6.59 0 0 0 .242-1.429 7.41 7.41 0 0 0-.012-1.231c-.04-.375-.113-.718-.23-1.046a4.4 4.4 0 0 0-.483-.953c-.206-.313-.46-.625-.767-.953-.153-.164-.31-.3-.478-.44s-.353-.247-.562-.348c-.418-.203-.94-.352-1.656-.46s-1.63-.174-2.834-.214-2.696-.053-4.572-.053h-6.785l-.62-.66a2.41 2.41 0 0 1-.447-.698c-.11-.256-.172-.523-.172-.76s.063-.503.172-.76a2.41 2.41 0 0 1 .447-.698l.62-.66 8.1-.004 5.815-.067 2.622-.157c.115-.073.195-.238.24-.49s.053-.596.026-1.026l-.083-1.298zm-61.086 2.826l2.45.035 1.46.094s.563.094.69.16l.66.34.07 5.446-.014 4.593c-.026.405-.066.67-.124.853a.72.72 0 0 1-.232.367c-.088.073-.255.133-.55.182a12.25 12.25 0 0 1-1.308.12l-6.02.112c-2.044.013-3.978.003-5.445-.023s-2.468-.068-2.65-.12c-.298-.086-.53-.198-.712-.397-.1-.1-.167-.22-.233-.373s-.12-.334-.163-.555c-.088-.44-.137-1.033-.16-1.843s-.016-1.837.003-3.144l.14-4.07c.038-.372.088-.626.153-.812a1.02 1.02 0 0 1 .25-.408c.107-.107.234-.2.473-.256s.59-.114 1.14-.15l6.455-.133 3.662-.016z" stroke-width=".35" stroke-opacity=".745"/><path d="M97.286 10.237l-10.98.143-.07 6.08-.002 5 .062 1.428c.115.264 2.85.334 12.968.334h12.832l.01-1.19v-1.19h-6.897c-4.248 0-7.093-.105-7.408-.274-.478-.256-.512-.6-.512-5.297v-.283zm-50.535.006v2.386h3.325c1.83 0 3.555.123 3.836.274.478.256.512.6.512 5.292v4.8c.405.168 1.768.204 5.087.157l4.967-.07V18.2c0-3.72.085-5.067.33-5.226.182-.118 1.88-.273 3.77-.346l3.44-.132V10.38l-12.634-.068zm-41 .005v12.978l9.393-.145.265-4.233 1.085-.08c1.018-.075 1.25.058 3.78 2.183l2.686 2.255c.01.002.02.005.03.007h4.467c2.47 0 4.483-.09 4.475-.198s-1.11-.975-2.447-1.925-2.433-1.9-2.433-2.1.468-.526 1.04-.724c2.04-.706 2.917-2.067 2.736-4.245-.137-1.648-.763-2.65-2.076-3.32-.82-.418-1.96-.463-11.954-.463zm12.457 2.646c1.017 0 1.608.015 2.018.088 1.342.13 1.666.56 1.66 1.606-.005.967-.19 1.295-.97 1.705-.66.348-4.803.408-5.324.078-.168-.107-.257-.425-.275-.982a4.61 4.61 0 0 1 .04-1.366l.052-.997.684-.02c.363-.09.97-.113 2.115-.113z" stroke-width=".05" stroke-opacity=".176"/></g></svg>