<?xml version="1.0" encoding="UTF-8"?>
<svg width="691.69" height="450" version="1.1" xmlns="http://www.w3.org/2000/svg">
	<g fill="#00bcf6">
		<path d="m45.32 354.63c16.404 0 28.36 9.0364 28.36 24.884 0 11.956-5.4217 20.992-16.543 24.189v0.27803c6.2559 1.3902 10.565 4.1705 12.79 11.538 1.1121 3.3364 1.6682 8.2022 1.8072 14.041 0.55608 11.26 1.8072 16.126 5.1437 20.436h-13.902c-1.6682-1.6682-2.0853-5.1436-2.2243-7.368l-0.55608-11.399c0-1.2512-0.97314-9.0364-2.9194-14.18-1.9462-5.0046-6.5339-7.9242-13.207-7.9242h-31.418v40.732h-12.651v-95.229zm-5.6998 43.93c14.041 0 21.409-5.0046 21.409-16.96 0-10.426-6.2559-16.265-16.682-16.265h-31.696v33.225zm112.6-43.93v10.704h-31.835v84.525h-12.651v-84.525h-31.696v-10.704zm19.184 0v84.664h50.463v10.704h-63.115v-95.229h12.651zm142.91 0v21.409l-44.625 49.49h46.849v24.467h-85.081v-22.938l44.347-47.822h-41.705v-24.467h80.215zm36.145 0 11.538 58.805h0.27805l11.538-58.805h25.857l11.26 59.64h0.27803l11.816-59.64h28.916l-26.691 95.229h-28.499l-10.287-57.971h-0.27805l-10.009 57.971h-28.638l-25.857-95.229zm187.81 0v24.467h-49.49v11.816h44.903v22.66h-44.903v11.816h51.019v24.467h-80.354v-95.229zm42.956 0v95.229h-29.333v-95.229z"/>
		<path d="m278.73 96.897-47.266 9.1754v118.16l47.266-9.1754zm23.633-4.5876v118.16l47.266-9.1754v-118.16z"/>
		<path d="m184.2 47.266h118.16v-47.266h-165.43v307.37h94.534v-47.266h-47.266zm165.43-47.266v47.266h47.405v212.84h-118.3v47.266h165.57v-307.37z"/>
		<path d="m630.98 424.73v25.134h7.0412v-55.19h-7.0412v23.847h-28.389v-23.845h-7.0392v55.189h7.1163v-25.134zm16.954 25.134h21.273c13.93 0 22.485-10.447 22.485-27.634 0-17.109-8.4781-27.556-22.485-27.556h-21.273zm7.0412-6.2087v-42.773h13.022c10.901 0 16.655 7.3444 16.655 21.425 0 13.929-5.7544 21.348-16.655 21.348z"/>
	</g>
</svg>
