<svg xmlns="http://www.w3.org/2000/svg" width="691.249" height="450" fill="#00bcf6"><path d="M630.574 424.88v25.119h7.037v-55.157h-7.037v23.833h-28.372v-23.831h-7.035V450h7.112v-25.119zm16.944 25.119h21.26c13.922 0 22.472-10.441 22.472-27.617 0-17.099-8.473-27.54-22.472-27.54h-21.26zm7.037-6.205v-42.747h13.014c10.894 0 16.645 7.34 16.645 21.412 0 13.921-5.751 21.335-16.645 21.335z" letter-spacing="0" word-spacing="0"/><path d="M45.282 354.34c16.39 0 28.336 9.028 28.336 24.863 0 11.946-5.417 20.975-16.529 24.169v.278c6.251 1.389 10.556 4.168 12.779 11.528 1.111 3.333 1.667 8.195 1.805 14.029.556 11.251 1.805 16.113 5.14 20.419h-13.89c-1.667-1.667-2.083-5.14-2.222-7.362l-.556-11.39c0-1.25-.972-9.028-2.917-14.168-1.944-5.001-6.529-7.917-13.196-7.917H12.64v40.698H0V354.34zm-5.695 43.894c14.029 0 21.391-5.001 21.391-16.946 0-10.417-6.251-16.251-16.668-16.251H12.64v33.197zm112.51-43.894v10.695h-31.809v84.453h-12.64v-84.453H75.98V354.34zm19.168 0v84.592h50.421v10.695h-63.062v-95.148h12.64zm142.791 0v21.391l-44.588 49.449h46.81v24.447H231.27v-22.919l44.31-47.782h-41.67v-24.447h80.146zm36.115 0l11.528 58.755h.278l11.528-58.755h25.836l11.251 59.589h.278l11.806-59.589h28.892L424.9 449.487h-28.475l-10.278-57.922h-.278l-10.001 57.922h-28.614l-25.836-95.148zm187.657 0v24.447H488.38v11.806h44.866v22.641H488.38v11.806h50.977v24.447h-80.285v-95.148zm42.92 0v95.148H551.44V354.34zM278.499 96.815l-47.227 9.168V224.05l47.227-9.168zm23.613-4.584v118.067l47.227-9.168V83.064zM184.045 47.227h118.067V0H136.819v307.113h94.453v-47.227h-47.227zM349.339 0v47.227h47.366v212.659H278.499v47.227h165.432V0z"/></svg>