<?xml version="1.0" encoding="UTF-8"?>
<!-- Created with Inkscape (http://www.inkscape.org/) -->
<svg width="800" height="228.58" version="1.1" xmlns="http://www.w3.org/2000/svg" xmlns:cc="http://creativecommons.org/ns#" xmlns:dc="http://purl.org/dc/elements/1.1/" xmlns:rdf="http://www.w3.org/1999/02/22-rdf-syntax-ns#" xmlns:xlink="http://www.w3.org/1999/xlink">
 <metadata>
  <rdf:RDF>
   <cc:Work rdf:about="">
    <dc:format>image/svg+xml</dc:format>
    <dc:type rdf:resource="http://purl.org/dc/dcmitype/StillImage"/>
   </cc:Work>
  </rdf:RDF>
 </metadata>
 <defs>
  <radialGradient id="radialGradient4030" cx="1296.1" cy="328.87" r="114.6" gradientTransform="matrix(.10382 .30512 -.19166 .065217 312.43 -318.69)" gradientUnits="userSpaceOnUse">
   <stop stop-color="#852510" stop-opacity=".77255" offset="0"/>
   <stop stop-color="#852510" stop-opacity="0" offset="1"/>
  </radialGradient>
  <linearGradient id="linearGradient4024" x1="1343.2" x2="1477.6" y1="467.63" y2="369.89" gradientTransform="matrix(.2929 0 0 .2929 4.341 4.4491)" gradientUnits="userSpaceOnUse" xlink:href="#linearGradient5455"/>
  <linearGradient id="linearGradient4014" x1="1207.1" x2="1368.1" y1="323.93" y2="214.75" gradientTransform="matrix(.2929 0 0 .2929 4.341 4.4491)" gradientUnits="userSpaceOnUse" xlink:href="#linearGradient5455"/>
  <linearGradient id="linearGradient4004" x1="1173.7" x2="1390.1" y1="99.168" y2="99.22" gradientTransform="matrix(.2929 0 0 .2929 4.341 4.4491)" gradientUnits="userSpaceOnUse">
   <stop stop-color="#e88a05" offset="0"/>
   <stop stop-color="#a54316" offset=".4411"/>
   <stop stop-color="#a54316" offset=".69399"/>
   <stop stop-color="#e88a05" offset="1"/>
  </linearGradient>
  <linearGradient id="linearGradient3973" x1="1123.6" x2="1177.9" y1="215.97" y2="161.43" gradientTransform="matrix(.2929 0 0 .2929 4.341 4.4491)" gradientUnits="userSpaceOnUse">
   <stop stop-color="#852510" stop-opacity="0" offset="0"/>
   <stop stop-color="#852510" stop-opacity=".77124" offset="1"/>
  </linearGradient>
  <linearGradient id="linearGradient3969" x1="1095" x2="1215.7" y1="332" y2="330.86" gradientTransform="matrix(.2929 0 0 .2929 4.341 4.4491)" gradientUnits="userSpaceOnUse" xlink:href="#linearGradient5455"/>
  <linearGradient id="linearGradient3957" x1="559.09" x2="877.6" y1="261.22" y2="261.22" gradientTransform="matrix(.2929 0 0 -.2929 90.562 197.47)" gradientUnits="userSpaceOnUse" xlink:href="#linearGradient3907"/>
  <linearGradient id="linearGradient3951" x1="766" x2="852.46" y1="397.97" y2="316.8" gradientTransform="matrix(0 .2929 .2929 0 160.5 -150.34)" gradientUnits="userSpaceOnUse" xlink:href="#linearGradient3907"/>
  <linearGradient id="linearGradient3941" x1="802.59" x2="1002.5" y1="329.5" y2="329.5" gradientTransform="matrix(.2929 0 0 .2929 4.341 4.4491)" gradientUnits="userSpaceOnUse" xlink:href="#linearGradient5455"/>
  <linearGradient id="linearGradient3929-7" x1="559.09" x2="877.6" y1="261.22" y2="261.22" gradientTransform="matrix(.2929 0 0 .2929 4.341 4.4491)" gradientUnits="userSpaceOnUse" xlink:href="#linearGradient3907"/>
  <linearGradient id="linearGradient3905-5" x1="678.55" x2="852.46" y1="330.52" y2="316.8" gradientTransform="matrix(.2929 0 0 .2929 4.341 4.4491)" gradientUnits="userSpaceOnUse" xlink:href="#linearGradient3907"/>
  <linearGradient id="linearGradient3894" x1="492.85" x2="715.8" y1="157.15" y2="146" gradientTransform="matrix(.2929 0 0 .2929 4.341 4.4491)" gradientUnits="userSpaceOnUse" xlink:href="#linearGradient5455"/>
  <linearGradient id="linearGradient3874-6" x1="566.18" x2="743.78" y1="173.45" y2="345.81" gradientTransform="matrix(.2929 0 0 .2929 4.341 4.4491)" gradientUnits="userSpaceOnUse">
   <stop stop-color="#e88a05" offset="0"/>
   <stop stop-color="#a54316" offset=".32709"/>
   <stop stop-color="#a54316" offset=".68639"/>
   <stop stop-color="#e88a05" offset="1"/>
  </linearGradient>
  <linearGradient id="linearGradient5485" x1="322.23" x2="500.09" y1="270.29" y2="428.57" gradientTransform="matrix(.2929 0 0 .2929 4.341 4.4491)" gradientUnits="userSpaceOnUse">
   <stop stop-color="#b35313" offset="0"/>
   <stop stop-color="#e88a05" offset=".57301"/>
   <stop stop-color="#a54316" offset="1"/>
  </linearGradient>
  <linearGradient id="linearGradient5476" x1="264.76" x2="500.48" y1="228.2" y2="194.31" gradientTransform="matrix(.2929 0 0 .2929 4.341 4.4491)" gradientUnits="userSpaceOnUse" xlink:href="#linearGradient5455"/>
  <linearGradient id="linearGradient5455">
   <stop stop-color="#ff9300" offset="0"/>
   <stop stop-color="#ffc28d" offset="1"/>
  </linearGradient>
  <linearGradient id="linearGradient3907">
   <stop stop-color="#ff9300" offset="0"/>
   <stop stop-color="#852510" offset="1"/>
  </linearGradient>
 </defs>
 <g transform="matrix(1.5242 0 0 1.5242 -7.621 -7.6742)">
  <path d="m415.42 48.677h29.583l-51.653 69.936-2.3265 0.13647-23.033 34.2h-29.583l47.725-64.617 4.9461-3.987z" fill="url(#linearGradient4004)"/>
  <path d="m297.83 154.71c-24.364 0-43.36-20.829-43.36-46.525 0-2.9165 0.25468-5.7721 0.74141-8.5399h15.078c0.18975 18.884 13.445 29.428 27.541 29.4 16.996-0.0344 27.081-15.271 27.24-26.224 0 0 17.58 5.4739 17.627 5.3639 0 25.696-20.503 46.525-44.867 46.525z" fill="url(#linearGradient3957)"/>
  <path d="m252.54 48.552-8.0338 54.161 25.782 1.7574v-55.918z" fill="url(#linearGradient3951)"/>
  <path d="m203.23 96.485 54.161-8.0338 1.7574 25.614h-55.918z" fill="url(#linearGradient3905-5)"/>
  <path d="m213.14 47.213c-24.364 0-44.896 20.829-44.896 46.525 0 2.9165 0.25468 5.7721 0.74141 8.5399h14.608c0.18975-18.884 13.409-30.027 27.505-29.986 11.639 0.03436 21.954 7.6529 26.382 18.522 1.4372 3.528 8.6567 23.894 8.6567 23.894l9.592-12.431c0.48673-2.7678 0.7414-5.6234 0.7414-8.5399 0-25.696-18.967-46.525-43.331-46.525z" fill="url(#linearGradient3929-7)"/>
  <g>
   <path d="m158.11 5.0349v97.216h0.0366c0.69102 29.076 24.244 52.429 53.198 52.429 9.8282 0 18.777-2.0928 26.929-4.1464v-17.72s-11.222 1.8883-26.7 0.19221c-15.363-1.6835-27.576-14.421-27.981-30.755v-97.216h-25.482z" fill="url(#linearGradient3874-6)"/>
   <path d="m141.15 66.297c-18.185 0.65923-25.393 3.9629-36.086 11.317-10.305 7.1352-21.499 21.131-21.67 39.007-0.08669 9.0581 3.9129 17.524 10.142 23.414 6.5379 6.1816 16.084 10.151 23.954 10.151 8.4368 0 17.35-2.6198 27.716-12.384 11.256-10.604 12.817-26.735 12.897-35.569-0.38093 15.036-12.689 27.112-27.816 27.112-15.368 0-27.826-12.458-27.826-27.826 0-17.877 9.9547-27.962 21.839-31.944 7.1609-2.3996 16.865-2.4431 26.489-2.4439v-0.02744c-2.9404-0.06193-6.2069-0.79891-9.6383-0.80548z" fill="url(#linearGradient5485)"/>
   <path d="m130.29 46.627c-19.843 0-37.146 11.02-46.324 27.368h-78.964v53.29h78.772c2.4856 4.504 5.5912 8.6007 9.1898 12.192-5.8629-5.8596-9.0632-14.08-8.9792-22.855 0.17108-17.876 11.534-31.738 21.839-38.873 4.0802-2.8251 11.496-7.5927 21.949-9.7298 8.0992-1.6558 16.391-1.0546 23.02-0.91532v-17.492s-8.7955-2.9839-20.503-2.9839zm-62.543 41.125c3.1864 0 5.7067 0.19014 6.8466 0.34782 0.51245 0.07884 0.78363 0.31652 0.70479 0.90616l-0.46681 2.9473c-0.15767 0.86722-0.43374 0.99251-1.4554 0.91531-0.98383-0.08048-3.4647-0.28375-5.9038-0.28375-1.81 0-3.6979 0.39739-3.6979 2.4439 0 1.4552 0.90807 2.0795 2.8741 2.5903l2.9107 0.75056c5.1918 1.337 6.6818 3.8905 6.6818 7.3134 0 5.8225-4.5554 7.8717-10.81 7.8717-2.7938 0-5.6684-0.1993-6.8099-0.35697-0.5108-0.0789-0.78199-0.31488-0.70479-0.90617l0.47596-3.0297c0.15603-0.86722 0.42459-0.97585 1.4462-0.89701 0.98383 0.0788 3.8562 0.3112 5.5102 0.3112 3.6183 0 5.1075-0.39696 5.1075-2.5995 0-1.4946-1.0145-2.1993-3.4141-2.8283l-2.9107-0.75056c-3.8171-0.98219-6.0228-3.3788-6.0228-7.4324 0-4.4839 3.1489-7.3134 9.6383-7.3134zm-52.31 0.26544h8.7687c6.059 0 8.8145 2.7545 8.8145 7.6703 0 3.8154-2.1724 5.5546-4.1006 6.7733l5.7482 9.5193c0.62906 0.98548-0.04309 1.3364-0.59496 1.3364h-4.2837c-0.94277 0-1.2642-0.27264-1.6567-0.94277l-4.6681-8.4209c-0.27593-0.47303-0.39358-0.78821-0.39358-1.1808 0-0.15603 0.03734-0.38901 0.1556-0.86039l0.39358-1.6476c0.35313-1.4963 0.73817-0.99148 1.8764-1.4645 0.90664-0.39255 1.8123-1.0259 1.8123-3.0297 0-2.2042-1.1363-3.0663-3.4965-3.0663h-3.7345v19.551c0 0.79003-0.23677 1.0618-1.0252 1.0618h-3.6155c-0.78509 0-1.0252-0.27173-1.0252-1.0618v-23.176c0-0.78673 0.24006-1.0618 1.0252-1.0618zm20.622 0h19.039c0.78838 0 1.0252 0.27503 1.0252 1.0618v2.6819c0 0.78673-0.23678 1.0618-1.0252 1.0618h-6.6909v19.432c0 0.78838-0.23677 1.0618-1.0252 1.0618h-3.6155c-0.78674 0-1.016-0.27338-1.016-1.0618v-19.432h-6.6909c-0.78838 0-1.0252-0.27503-1.0252-1.0618v-2.6819c0-0.78673 0.23678-1.0618 1.0252-1.0618z" fill="url(#linearGradient5476)"/>
   <path d="m92.962 139.48c9.6151 9.5956 22.786 15.524 37.327 15.524 29.441 0 53.308-24.26 53.308-54.187 0-19.56 4.5858-53.601 29.546-53.601-41.627 0-54.783 34.483-55.029 54.48v0.57665c-3e-3 0.1281-0.0132 0.25677-0.0183 0.38443-0.14393 8.9181-2.3926 24.71-13.473 35.148-10.365 9.7644-18.693 11.798-27.13 11.798-7.8699 0-17.416-3.3834-23.954-9.565-0.19465-0.18405-0.38752-0.36932-0.57665-0.55834z" fill="url(#linearGradient3894)"/>
  </g>
  <path d="m213.45 47.213c12.462 0 31.083 8.0368 31.14 54.715 0.0444 36.461 33.292 52.779 53.24 52.779-13.929-0.0427-22.327-7.9094-25.903-22.739-2.0458-8.4839-1.5784-19.652-1.6375-30.543-0.0876-16.143-24.181-54.213-56.839-54.213z" fill="url(#linearGradient3941)"/>
  <path d="m297.83 154.71c24.034 0 52.722-19.745 52.722-52.429v-51.601c-8.4941-1.0251-16.988-1.9469-25.482-2v53.601c0 14.722 0.13321 23.94-2.486 32.787-4.1122 13.889-14.172 19.642-24.754 19.642z" fill="url(#linearGradient3969)"/>
  <path d="m297.83 154.71c24.034 0 52.722-19.745 52.722-52.429v-51.601l-25.482-2v53.601c0 14.722 0.13321 23.94-2.486 32.787-4.1122 13.889-14.172 19.642-24.754 19.642z" fill="url(#linearGradient3973)"/>
  <path d="m412.68 152.95h31.307l-37.334-52.696c-6.603-9.3199-8.4914-22.923-2.5113-34.991l-27.289 39.176z" fill="url(#linearGradient4024)"/>
  <path d="m412.68 152.95h31.307l-37.334-52.696c-6.603-9.3199-8.4914-22.923-2.5113-34.991l-27.289 39.176z" fill="url(#radialGradient4030)"/>
  <path d="m325.07 48.677h41.737l25.113 33.83c14.108 19.004-2.3506 38.066-12.672 53.742 3.2475-7.8129 2.8974-22.045-4.5726-32.479l-31.642-44.199c-4.9833-6.9608-11.101-10.894-17.963-10.894z" fill="url(#linearGradient4014)"/>
 </g>
 <path d="m668.87 105.4v80.622h15.056v-33.754h30.112v33.754h15.056v-80.622h-15.056v31.812h-30.112v-31.812zm70.422 0v80.622h32.464c15.647 0 28.245-12.598 28.245-28.245v-24.132c0-15.647-12.598-28.245-28.245-28.245zm15.056 15.056h16.255c7.9476 0 14.342 6.3948 14.342 14.342v21.825c0 7.9477-6.3948 14.342-14.342 14.342h-16.255z" fill="#e0e0e0"/>
</svg>
