<?xml version="1.0" encoding="UTF-8"?>
<svg width="800" height="331.99" version="1.1" viewBox="0 0 800 331.99" xmlns="http://www.w3.org/2000/svg">
 <linearGradient id="a" x1="8230.8" x2="15182" y1="3788.2" y2="-6458.4" gradientTransform="matrix(.025127 0 0 -.025127 218.52 134.29)" gradientUnits="userSpaceOnUse">
  <stop stop-color="#00b1ff" offset="0"/>
  <stop stop-color="#003332" offset=".5"/>
  <stop stop-color="#00b1ff" offset="1"/>
 </linearGradient>
 <path d="m471.82 4.77h55.528l23.766 152.86v170.53h-54.911l-24.383-154.76z" fill="url(#a)" stroke-width=".14029"/>
 <linearGradient id="b" x1="2590.4" x2="10854" y1="-4131.6" y2="-4131.6" gradientTransform="matrix(.025127 0 0 -.025127 218.52 134.29)" gradientUnits="userSpaceOnUse">
  <stop stop-color="#0092d4" offset="0"/>
  <stop stop-color="#00446d" offset="1"/>
 </linearGradient>
 <path d="m302.73 144.26c-12.037 19.417-19.108 43.211-19.108 68.842 0 65.658 46.409 118.89 103.66 118.89 57.254 0 103.66-53.228 103.66-118.89 0-25.632 3.1145-43.309-8.9227-62.726l-10.185 18.252c0 46.69-37.851 84.555-84.555 84.555-46.704 0-84.555-37.851-84.555-84.555z" fill="url(#b)" stroke-width=".14029"/>
 <linearGradient id="c" x1="12474" x2="20738" y1="1608.6" y2="1608.6" gradientTransform="matrix(.025127 0 0 -.025127 218.52 134.29)" gradientUnits="userSpaceOnUse">
  <stop stop-color="#0092d4" offset="0"/>
  <stop stop-color="#00446d" offset="1"/>
 </linearGradient>
 <path d="m720.59 187.73c12.037-19.417 19.108-43.211 19.108-68.842 0-65.658-46.409-118.89-103.66-118.89s-103.66 53.228-103.66 118.89c0 25.632-3.1145 43.309 8.9227 62.726l10.185-18.252c0-46.69 37.851-84.555 84.555-84.555 46.69 0 84.555 37.851 84.555 84.555z" fill="url(#c)" stroke-width=".14029"/>
 <linearGradient id="d" x1="-1621.9" x2="23138" y1="-1255.8" y2="-1266.8" gradientTransform="matrix(.025127 0 0 -.025127 218.52 134.29)" gradientUnits="userSpaceOnUse">
  <stop stop-color="#0096ff" offset="0"/>
  <stop stop-color="#69d2df" offset=".338"/>
  <stop stop-color="#0096ff" offset=".338"/>
  <stop stop-color="#34b4ef" offset=".556"/>
  <stop stop-color="#69d2df" offset=".735"/>
  <stop stop-color="#0096ff" offset=".735"/>
  <stop stop-color="#34b4ef" offset=".939"/>
  <stop stop-color="#69d2df" offset="1"/>
 </linearGradient>
 <path d="m631.09 0.16835c-88.385 2.5674-159.25 74.917-159.25 163.92 0 1.2767 0.0561 2.5674 0.0842 3.83h-0.0842v0.67341c0 121.16-35.438 160.78-79.996 163.25 87.291-2.2728 157.66-72.588 159.75-159.92-0.28059-2.8059-0.42088-5.696-0.42088-8.586-0.01403-121.14 35.354-160.68 79.912-163.16zm9.1612 0c44.571 2.4692 79.996 42.004 79.996 163.16 0 0 1.6414 163.86 0.42088 164.83h79.336v-164.07c0-89.171-71.143-161.6-159.75-163.92zm-416.83 3.6617v79.336h-223.42v164.24h244c27.259 49.117 79.884 82.689 139.66 84.415-44.614-2.4832-80.922-42.102-80.922-163.25v-164.75zm-30.5 122c9.7925 0 17.579 0.60326 21.086 1.0803 1.5713 0.2385 2.4131 1.0242 2.1605 2.834l-1.5012 9.0069c-0.49103 2.6656-1.2767 3.0724-4.4193 2.8339-3.0163-0.25253-10.676-0.82773-18.168-0.82773-5.5556 0-11.336 1.2065-11.336 7.5057 0 4.4754 2.7919 6.3413 8.8385 7.9126l8.9227 2.3289c15.951 4.1106 20.581 11.981 20.581 22.503 0 17.888-14.043 24.173-33.25 24.173-8.586 0-17.411-0.60327-20.918-1.0803-1.5713-0.2385-2.399-1.0101-2.1605-2.8339l1.417-9.2454c0.477-2.6656 1.3609-3.0724 4.5034-2.8339 3.0163 0.2385 11.841 0.99609 16.919 0.99609 11.111 0 15.671-1.2346 15.671-7.9968 0-4.5876-3.1286-6.7341-10.494-8.6702l-8.9227-2.3289c-11.729-3.0163-18.505-10.382-18.505-22.84-0.014-13.791 9.6382-22.517 29.574-22.517zm-160.66 0.84176h26.922c18.617 0 27.077 8.4878 27.077 23.583 0 11.715-6.664 17.088-12.584 20.834l17.663 29.237c1.9361 3.0304-0.14029 4.0826-1.8379 4.0826h-13.174c-2.8901 0-3.8721-0.8558-5.0787-2.9181l-14.338-25.828c-0.84177-1.4591-1.2486-2.4552-1.2486-3.6617 0-0.477 0.14029-1.2206 0.50506-2.6656l1.2486-4.9945c1.0803-4.6016 2.2587-3.0444 5.7521-4.5034 2.7919-1.2065 5.5837-3.1847 5.5837-9.3296 0-6.7762-3.4933-9.4138-10.747-9.4138h-11.504v60.088c0 2.4271-0.74356 3.2548-3.1706 3.2548h-11.083c-2.4131 0-3.1707-0.82774-3.1707-3.2548v-71.185c0.01403-2.4131 0.77162-3.325 3.1847-3.325zm63.329 0h58.503c2.4271 0 3.1706 0.91192 3.1706 3.339v8.1651c0 2.4131-0.74356 3.2548-3.1706 3.2548h-20.497v59.751c0 2.4271-0.74356 3.2548-3.1706 3.2548h-11.167c-2.4131 0-3.0865-0.82774-3.0865-3.2548v-59.765h-20.581c-2.4271 0-3.1706-0.82773-3.1706-3.2548v-8.1651c0-2.4131 0.74356-3.325 3.1706-3.325z" fill="url(#d)" stroke-width=".14029"/>
</svg>
