<?xml version="1.0" encoding="UTF-8"?>
<svg width="800" height="272.67" version="1.1" viewBox="0 0 800 272.67" xmlns="http://www.w3.org/2000/svg">
 <linearGradient id="a" x1="17958" x2="23252" y1="-1185.8" y2="-1187.1" gradientTransform="matrix(.021777 0 0 -.021777 232.75 148.3)" gradientUnits="userSpaceOnUse">
  <stop stop-color="#e88a05" offset="0"/>
  <stop stop-color="#a54316" offset=".441"/>
  <stop stop-color="#a54316" offset=".694"/>
  <stop stop-color="#e88a05" offset="1"/>
 </linearGradient>
 <path d="m746.22 79.352h53.784l-93.91 127.16-4.2304 0.24535-41.881 62.185h-53.791l86.78-117.49 8.9962-7.249z" fill="url(#a)" stroke-width=".074349"/>
 <linearGradient id="b" x1="9834.1" x2="17623" y1="7478" y2="7478" gradientTransform="matrix(.021777 0 0 .021777 239.16 59.227)" gradientUnits="userSpaceOnUse">
  <stop stop-color="#ff9300" offset="0"/>
  <stop stop-color="#852510" offset="1"/>
 </linearGradient>
 <path d="m532.42 272.13c-44.297 0-78.839-37.873-78.839-84.594 0-5.3011 0.46096-10.498 1.3457-15.524h27.412c0.34201 34.334 24.446 53.509 50.074 53.457 30.899-0.0595 49.241-27.762 49.524-47.68 0 0 31.963 9.9553 32.052 9.7546 7e-3 46.721-37.271 84.587-81.568 84.587z" fill="url(#b)" stroke-width=".074349"/>
 <linearGradient id="c" x1="5719.2" x2="7833.4" y1="-4107.7" y2="-2122.8" gradientTransform="matrix(0 .021777 -.021777 0 392.35 -11.197)" gradientUnits="userSpaceOnUse">
  <stop stop-color="#ff9300" offset="0"/>
  <stop stop-color="#852510" offset="1"/>
 </linearGradient>
 <path d="m450.07 79.122-14.61 98.475 46.877 3.197v-101.67z" fill="url(#c)" stroke-width=".074349"/>
 <linearGradient id="d" x1="5879.5" x2="10132" y1="-1585.1" y2="-1249.6" gradientTransform="matrix(.021777 0 0 -.021777 232.75 148.3)" gradientUnits="userSpaceOnUse">
  <stop stop-color="#ff9300" offset="0"/>
  <stop stop-color="#852510" offset="1"/>
 </linearGradient>
 <path d="m360.43 166.27 98.475-14.602 3.197 46.572h-101.67z" fill="url(#d)" stroke-width=".074349"/>
 <linearGradient id="e" x1="2929.7" x2="10719" y1="470.84" y2="470.84" gradientTransform="matrix(.021777 0 0 -.021777 232.75 148.3)" gradientUnits="userSpaceOnUse">
  <stop stop-color="#ff9300" offset="0"/>
  <stop stop-color="#852510" offset="1"/>
 </linearGradient>
 <path d="m378.44 76.691c-44.297 0-81.627 37.873-81.627 84.594 0 5.3011 0.46096 10.498 1.3457 15.524h26.557c0.34201-34.334 24.379-54.594 50.007-54.52 21.16 0.0595 39.918 13.918 47.97 33.68 2.6096 6.4163 15.74 43.442 15.74 43.442l17.442-22.602c0.88475-5.0334 1.3457-10.223 1.3457-15.524 7e-3 -46.728-34.483-84.594-78.78-84.594z" fill="url(#e)" stroke-width=".074349"/>
 <linearGradient id="f" x1="2747.9" x2="7091.2" y1="2251.5" y2="-1963.8" gradientTransform="matrix(.021777 0 0 -.021777 232.75 148.3)" gradientUnits="userSpaceOnUse">
  <stop stop-color="#e88a05" offset="0"/>
  <stop stop-color="#a54316" offset=".327"/>
  <stop stop-color="#a54316" offset=".686"/>
  <stop stop-color="#e88a05" offset="1"/>
 </linearGradient>
 <path d="m278.39 0v176.76h0.0669c1.2565 52.869 44.081 95.33 96.728 95.33 17.866 0 34.141-3.8067 48.959-7.539v-32.223s-20.401 3.4349-48.542 0.34944c-27.933-3.0632-50.141-26.223-50.877-55.918v-176.76z" fill="url(#f)" stroke-width=".074349"/>
 <linearGradient id="g" x1="-2825.5" x2="1524" y1="290.99" y2="-3579.7" gradientTransform="matrix(.021777 0 0 -.021777 232.75 148.3)" gradientUnits="userSpaceOnUse">
  <stop stop-color="#b35313" offset="0"/>
  <stop stop-color="#e88a05" offset=".573"/>
  <stop stop-color="#a54316" offset="1"/>
 </linearGradient>
 <path d="m247.55 111.39c-33.063 1.197-46.171 7.2044-65.613 20.58-18.736 12.974-39.093 38.416-39.397 70.921-0.15614 16.468 7.1152 31.866 18.438 42.572 11.888 11.242 29.241 18.453 43.554 18.453 15.338 0 31.546-4.7658 50.394-22.52 20.468-19.279 23.301-48.609 23.45-64.669-0.69145 27.338-23.07 49.293-50.572 49.293-27.94 0-50.594-22.654-50.594-50.594 0-32.505 18.096-50.84 39.71-58.081 13.018-4.3643 30.661-4.4386 48.163-4.446v-0.052c-5.3531-0.11152-11.294-1.4498-17.531-1.4572z" fill="url(#g)" stroke-width=".074349"/>
 <linearGradient id="h" x1="-3965.3" x2="1799.2" y1="-829.21" y2="-.528" gradientTransform="matrix(.021777 0 0 -.021777 232.75 148.3)" gradientUnits="userSpaceOnUse">
  <stop stop-color="#ff9300" offset="0"/>
  <stop stop-color="#ffc28d" offset="1"/>
 </linearGradient>
 <path d="m227.8 75.62c-36.081 0-67.538 20.037-84.23 49.762h-143.57v96.891h143.23c4.5204 8.1858 10.163 15.636 16.706 22.171-10.662-10.654-16.476-25.598-16.327-41.554 0.31227-32.505 20.974-57.71 39.71-70.676 7.42-5.1375 20.899-13.807 39.91-17.688 14.728-3.0111 29.799-1.9182 41.858-1.6654v-31.806c-7e-3 -0.0074-16-5.4349-37.286-5.4349zm-113.72 74.773c5.7918 0 10.379 0.34201 12.446 0.63197 0.92935 0.14126 1.4275 0.57248 1.2788 1.6505l-0.84757 5.3606c-0.28996 1.5762-0.7881 1.8067-2.6468 1.6654-1.7918-0.1487-6.2973-0.51301-10.736-0.51301-3.2936 0-6.7211 0.72118-6.7211 4.4461 0 2.6468 1.6505 3.7844 5.2267 4.7063l5.2936 1.368c9.4423 2.4312 12.149 7.0706 12.149 13.294 0 10.587-8.2824 14.312-19.658 14.312-5.078 0-10.305-0.36431-12.379-0.64683-0.92936-0.14127-1.4201-0.57249-1.2788-1.6506l0.86245-5.5092c0.28252-1.5762 0.77323-1.7769 2.6319-1.6282 1.7918 0.14127 7.0111 0.56506 10.022 0.56506 6.5799 0 9.2862-0.72119 9.2862-4.7286 0-2.7212-1.8438-4-6.2081-5.1449l-5.2936-1.368c-6.9367-1.7844-10.952-6.1412-10.952-13.517 0-8.1486 5.7249-13.294 17.524-13.294zm-95.107 0.48327h15.94c11.018 0 16.03 5.0111 16.03 13.948 0 6.9367-3.9479 10.097-7.4572 12.312l10.453 17.308c1.145 1.7918-0.08178 2.4312-1.0781 2.4312h-7.7917c-1.7175 0-2.2974-0.49813-3.0111-1.7174l-8.4906-15.308c-0.49814-0.86245-0.71375-1.4349-0.71375-2.1487 0-0.28252 0.06691-0.70631 0.28253-1.5613l0.71375-2.9963c0.6394-2.7212 1.3457-1.7992 3.4126-2.6617 1.6505-0.71375 3.2936-1.8662 3.2936-5.5092 0-4.0074-2.0669-5.5762-6.3568-5.5762h-6.788v35.546c0 1.4349-0.43122 1.9331-1.8662 1.9331h-6.5724c-1.4275 0-1.8662-0.4907-1.8662-1.9331v-42.141c0-1.4201 0.43866-1.9256 1.8662-1.9256zm37.494 0h34.617c1.4349 0 1.8662 0.49814 1.8662 1.9331v4.8773c0 1.4275-0.43122 1.9331-1.8662 1.9331h-12.163v35.331c0 1.4349-0.43122 1.9331-1.8662 1.9331h-6.5724c-1.4275 0-1.8438-0.49814-1.8438-1.9331v-35.331h-12.171c-1.4349 0-1.8662-0.49813-1.8662-1.9331v-4.8773c0-1.4275 0.43122-1.9331 1.8662-1.9331z" fill="url(#h)" stroke-width=".074349"/>
 <linearGradient id="i" x1="1525.3" x2="6977.7" y1="-1295.5" y2="-1022.7" gradientTransform="matrix(.021777 0 0 -.021777 232.75 148.3)" gradientUnits="userSpaceOnUse">
  <stop stop-color="#ff9300" offset="0"/>
  <stop stop-color="#ffc28d" offset="1"/>
 </linearGradient>
 <path d="m159.93 244.44c17.479 17.45 41.427 28.223 67.866 28.223 53.531 0 96.921-44.111 96.921-98.52 0-35.561 8.3345-97.456 53.717-97.456-75.687 0-99.605 62.698-100.05 99.055v1.0483c-7e-3 0.23048-0.0223 0.46839-0.0297 0.69887-0.26022 16.215-4.3494 44.929-24.498 63.903-18.847 17.754-33.985 21.45-49.33 21.45-14.312 0-31.665-6.1486-43.554-17.39-0.34944-0.33457-0.69888-0.66914-1.0409-1.0112z" fill="url(#i)" stroke-width=".074349"/>
 <linearGradient id="j" x1="8884.3" x2="13773" y1="-1198.9" y2="-1198.9" gradientTransform="matrix(.021777 0 0 -.021777 232.75 148.3)" gradientUnits="userSpaceOnUse">
  <stop stop-color="#ff9300" offset="0"/>
  <stop stop-color="#ffc28d" offset="1"/>
 </linearGradient>
 <path d="m379 76.691c22.661 0 56.512 14.61 56.617 99.486 0.0818 66.297 60.535 95.962 96.802 95.962-25.323-0.0743-40.594-14.379-47.1-41.345-3.7174-15.427-2.8699-35.732-2.974-55.531-0.16357-29.353-43.97-98.572-103.34-98.572z" fill="url(#j)" stroke-width=".074349"/>
 <linearGradient id="k" x1="16035" x2="18986" y1="-1249.4" y2="-1221.4" gradientTransform="matrix(.021777 0 0 -.021777 232.75 148.3)" gradientUnits="userSpaceOnUse">
  <stop stop-color="#ff9300" offset="0"/>
  <stop stop-color="#ffc28d" offset="1"/>
 </linearGradient>
 <path d="m532.42 272.13c43.702 0 95.858-35.903 95.858-95.33v-93.813c-15.442-1.8662-30.884-3.539-46.334-3.6357v97.456c0 26.766 0.24535 43.531-4.5204 59.613-7.472 25.249-25.762 35.71-45.003 35.71z" fill="url(#k)" stroke-width=".074349"/>
 <linearGradient id="l" x1="17684" x2="19013" y1="630.53" y2="1964.2" gradientTransform="matrix(.021777 0 0 -.021777 232.75 148.3)" gradientUnits="userSpaceOnUse">
  <stop stop-color="#852510" stop-opacity="0" offset="0"/>
  <stop stop-color="#852510" stop-opacity=".771" offset="1"/>
 </linearGradient>
 <path d="m532.42 272.13c43.702 0 95.858-35.903 95.858-95.33v-93.813l-46.334-3.6357v97.456c0 26.766 0.24535 43.531-4.5204 59.613-7.472 25.249-25.762 35.71-45.003 35.71z" fill="url(#l)" stroke-width=".074349"/>
 <linearGradient id="m" x1="21582" x2="24867" y1="-3857.1" y2="-1466.8" gradientTransform="matrix(.021777 0 0 -.021777 232.75 148.3)" gradientUnits="userSpaceOnUse">
  <stop stop-color="#ff9300" offset="0"/>
  <stop stop-color="#ffc28d" offset="1"/>
 </linearGradient>
 <path d="m741.23 268.94h56.921l-67.88-95.813c-12.007-16.944-15.442-41.68-4.565-63.62l-49.62 71.234z" fill="url(#m)" stroke-width=".074349"/>
 <radialGradient id="n" cx="12780" cy="21503" r="2802.6" gradientTransform="matrix(.0077174 .022684 .014253 -.004849 283.97 -16.216)" gradientUnits="userSpaceOnUse">
  <stop stop-color="#852510" stop-opacity=".772" offset="0"/>
  <stop stop-color="#852510" stop-opacity="0" offset="1"/>
 </radialGradient>
 <path d="m741.23 268.94h56.921l-67.88-95.813c-12.007-16.944-15.442-41.68-4.565-63.62l-49.62 71.234z" fill="url(#n)" stroke-width=".074349"/>
 <linearGradient id="o" x1="18359" x2="22296" y1="-447.19" y2="2222.7" gradientTransform="matrix(.021777 0 0 -.021777 232.75 148.3)" gradientUnits="userSpaceOnUse">
  <stop stop-color="#ff9300" offset="0"/>
  <stop stop-color="#ffc28d" offset="1"/>
 </linearGradient>
 <path d="m581.94 79.352h75.888l45.658 61.509c25.65 34.557-4.2751 69.211-23.041 97.709 5.9033-14.208 5.2713-40.081-8.3122-59.055l-57.531-80.364c-9.0557-12.654-20.178-19.799-32.661-19.799z" fill="url(#o)" stroke-width=".074349"/>
</svg>
