<svg xmlns="http://www.w3.org/2000/svg" viewBox="0 0 5702.3 2366.4"><linearGradient id="a" gradientUnits="userSpaceOnUse" x1="8230.799" y1="3788.151" x2="15181.592" y2="-6458.437" gradientTransform="matrix(.1791 0 0 -.1791 1557.617 957.213)"><stop offset="0" stop-color="#00b1ff"/><stop offset=".5" stop-color="#003332"/><stop offset="1" stop-color="#00b1ff"/></linearGradient><path d="M3363.1 34h395.8l169.4 1089.6v1215.5h-391.4L3363.1 1236V34z" fill="url(#a)"/><linearGradient id="b" gradientUnits="userSpaceOnUse" x1="2590.368" y1="-4131.649" x2="10854.079" y2="-4131.649" gradientTransform="matrix(.1791 0 0 -.1791 1557.617 957.213)"><stop offset="0" stop-color="#0092d4"/><stop offset="1" stop-color="#00446d"/></linearGradient><path d="M2157.8 1028.3c-85.8 138.4-136.2 308-136.2 490.7 0 468 330.8 847.4 738.9 847.4 408.1 0 738.9-379.4 738.9-847.4 0-182.7 22.2-308.7-63.6-447.1l-72.6 130.1c0 332.8-269.8 602.7-602.7 602.7s-602.7-269.8-602.7-602.7v-173.7z" fill="url(#b)"/><linearGradient id="c" gradientUnits="userSpaceOnUse" x1="12474.32" y1="1608.647" x2="20738.031" y2="1608.647" gradientTransform="matrix(.1791 0 0 -.1791 1557.617 957.213)"><stop offset="0" stop-color="#0092d4"/><stop offset="1" stop-color="#00446d"/></linearGradient><path d="M5136.3 1338.1c85.8-138.4 136.2-308 136.2-490.7 0-468-330.8-847.4-738.9-847.4-408.1 0-738.9 379.4-738.9 847.4 0 182.7-22.2 308.7 63.6 447.1l72.6-130.1c0-332.8 269.8-602.7 602.7-602.7 332.8 0 602.7 269.8 602.7 602.7v173.7z" fill="url(#c)"/><linearGradient id="d" gradientUnits="userSpaceOnUse" x1="-1621.91" y1="-1255.791" x2="23137.584" y2="-1266.799" gradientTransform="matrix(.1791 0 0 -.1791 1557.617 957.213)"><stop offset="0" stop-color="#0096ff"/><stop offset=".338" stop-color="#69d2df"/><stop offset=".338" stop-color="#0096ff"/><stop offset=".556" stop-color="#34b4ef"/><stop offset=".735" stop-color="#69d2df"/><stop offset=".735" stop-color="#0096ff"/><stop offset=".939" stop-color="#34b4ef"/><stop offset="1" stop-color="#69d2df"/></linearGradient><path d="M4498.3 1.2c-630 18.3-1135.1 534-1135.1 1168.4 0 9.1.4 18.3.6 27.3h-.6v4.8c0 863.6-252.6 1146-570.2 1163.6 622.2-16.2 1123.8-517.4 1138.7-1139.9-2-20-3-40.6-3-61.2-.1-863.5 252-1145.3 569.6-1163zm65.3 0c317.7 17.6 570.2 299.4 570.2 1163 0 0 11.7 1168 3 1174.9h565.5V1169.6C5702.3 534 5195.2 17.7 4563.6 1.2zM1592.5 27.3v565.5H0v1170.7h1739.2c194.3 350.1 569.4 589.4 995.5 601.7-318-17.7-576.8-300.1-576.8-1163.6V27.3h-565.4zm-217.4 869.6c69.8 0 125.3 4.3 150.3 7.7 11.2 1.7 17.2 7.3 15.4 20.2l-10.7 64.2c-3.5 19-9.1 21.9-31.5 20.2-21.5-1.8-76.1-5.9-129.5-5.9-39.6 0-80.8 8.6-80.8 53.5 0 31.9 19.9 45.2 63 56.4l63.6 16.6c113.7 29.3 146.7 85.4 146.7 160.4 0 127.5-100.1 172.3-237 172.3-61.2 0-124.1-4.3-149.1-7.7-11.2-1.7-17.1-7.2-15.4-20.2l10.1-65.9c3.4-19 9.7-21.9 32.1-20.2 21.5 1.7 84.4 7.1 120.6 7.1 79.2 0 111.7-8.8 111.7-57 0-32.7-22.3-48-74.8-61.8l-63.6-16.6c-83.6-21.5-131.9-74-131.9-162.8-.1-98.3 68.7-160.5 210.8-160.5zm-1145.2 6h191.9c132.7 0 193 60.5 193 168.1 0 83.5-47.5 121.8-89.7 148.5L651 1427.9c13.8 21.6-1 29.1-13.1 29.1H544c-20.6 0-27.6-6.1-36.2-20.8l-102.2-184.1c-6-10.4-8.9-17.5-8.9-26.1 0-3.4 1-8.7 3.6-19l8.9-35.6c7.7-32.8 16.1-21.7 41-32.1 19.9-8.6 39.8-22.7 39.8-66.5 0-48.3-24.9-67.1-76.6-67.1h-82V1434c0 17.3-5.3 23.2-22.6 23.2h-79c-17.2 0-22.6-5.9-22.6-23.2V926.6c.1-17.2 5.5-23.7 22.7-23.7zm451.4 0h417c17.3 0 22.6 6.5 22.6 23.8v58.2c0 17.2-5.3 23.2-22.6 23.2H952.2V1434c0 17.3-5.3 23.2-22.6 23.2H850c-17.2 0-22-5.9-22-23.2v-426H681.3c-17.3 0-22.6-5.9-22.6-23.2v-58.2c0-17.2 5.3-23.7 22.6-23.7z" fill="url(#d)"/></svg>