<svg xmlns="http://www.w3.org/2000/svg" xmlns:xlink="http://www.w3.org/1999/xlink" width="300" height="89.677"><defs><linearGradient x1="902.049" y1="79.202" x2="1267.734" y2="618.281" id="d" xlink:href="#a" gradientUnits="userSpaceOnUse" gradientTransform="translate(4.418 4.463) scale(.17913)"/><linearGradient x1="597" y1="501.5" x2="1031.758" y2="501.5" id="e" xlink:href="#b" gradientUnits="userSpaceOnUse" gradientTransform="translate(4.418 4.463) scale(.17913)"/><linearGradient x1="1117" y1="199.5" x2="1551.758" y2="199.5" id="f" xlink:href="#b" gradientUnits="userSpaceOnUse" gradientTransform="translate(4.418 4.463) scale(.17913)"/><linearGradient x1="375.39" y1="349.921" x2="1678" y2="350.5" id="g" xlink:href="#c" gradientUnits="userSpaceOnUse" gradientTransform="translate(4.418 4.463) scale(.17913)"/><linearGradient id="c"><stop offset="0" stop-color="#0096ff"/><stop offset=".338" stop-color="#69d2df"/><stop offset=".338" stop-color="#0096ff"/><stop offset=".556" stop-color="#34b4ef"/><stop offset=".735" stop-color="#69d2df"/><stop offset=".735" stop-color="#0096ff"/><stop offset=".939" stop-color="#34b4ef"/><stop offset="1" stop-color="#69d2df"/></linearGradient><linearGradient id="b"><stop offset="0" stop-color="#0092d4"/><stop offset="1" stop-color="#00446d"/></linearGradient><linearGradient id="a"><stop offset="0" stop-color="#00b1ff"/><stop offset=".5" stop-color="#003332"/><stop offset="1" stop-color="#00b1ff"/></linearGradient></defs><path d="M227.514 22.535v44.566h8.322V48.442h16.645v18.659h8.323V22.535h-8.323V40.12h-16.645V22.535zm38.928 0v44.566h17.945A15.58 15.58 0 0 0 300 51.488v-13.34a15.58 15.58 0 0 0-15.613-15.613zm8.322 8.323h8.985a7.91 7.91 0 0 1 7.929 7.928V50.85a7.91 7.91 0 0 1-7.929 7.928h-8.985z" fill="#e0e0e0"/><path d="M181.937 6.791h20.823l8.913 57.322v63.95h-20.595l-9.141-58.038z" fill="url(#d)" transform="translate(-3.602 -3.602) scale(.72032)"/><path d="M118.524 59.098c-4.512 7.281-7.165 16.203-7.165 25.817 0 24.622 17.404 44.581 38.872 44.581s38.871-19.959 38.871-44.581c0-9.614 1.168-16.243-3.344-23.524l-3.821 6.842c0 17.511-14.196 31.707-31.706 31.707-17.511 0-31.707-14.196-31.707-31.707z" fill="url(#e)" transform="translate(-3.602 -3.602) scale(.72032)"/><path d="M275.22 75.399c4.513-7.282 7.166-16.204 7.166-25.818C282.386 24.96 264.983 5 243.515 5c-21.468 0-38.872 19.959-38.872 44.581 0 9.614-1.167 16.243 3.345 23.525l3.82-6.843c0-17.511 14.196-31.706 31.707-31.706 17.51 0 31.706 14.195 31.706 31.706z" fill="url(#f)" transform="translate(-3.602 -3.602) scale(.72032)"/><path d="M241.656 5.063c-33.143.96-59.719 28.093-59.719 61.468 0 .479.021.962.032 1.438h-.031v.25c0 45.436-13.288 60.29-30 61.219 32.732-.85 59.123-27.22 59.906-59.97a32.423 32.423 0 0 1-.156-3.218c0-45.432 13.259-60.256 29.968-61.188zm3.438 0c16.712.928 30 15.75 30 61.187 0 0 .616 61.447.156 61.813H305V66.53c0-33.436-26.68-60.601-59.906-61.469zM88.78 6.438v29.75H5V97.78h91.5c10.224 18.417 29.958 31.009 52.375 31.656-16.73-.93-30.344-15.787-30.344-61.218V6.438zm-11.437 45.75c3.67 0 6.593.224 7.906.406.59.09.903.383.813 1.062l-.563 3.375c-.182 1-.48 1.152-1.656 1.063-1.134-.093-4.003-.313-6.813-.313-2.085 0-4.25.455-4.25 2.813 0 1.676 1.048 2.38 3.313 2.968l3.344.876c5.98 1.54 7.718 4.494 7.718 8.437 0 6.707-5.263 9.063-12.469 9.063-3.218 0-6.528-.225-7.843-.407-.589-.09-.902-.381-.813-1.062L66.562 77c.18-.999.511-1.153 1.688-1.063 1.133.091 4.438.376 6.344.376 4.168 0 5.875-.463 5.875-3 0-1.722-1.173-2.526-3.938-3.25l-3.344-.876c-4.397-1.131-6.937-3.892-6.937-8.562 0-5.165 3.618-8.438 11.094-8.438zm-60.25.312h10.093c6.98 0 10.157 3.18 10.157 8.844 0 4.395-2.498 6.408-4.719 7.812l6.625 10.969c.725 1.135-.052 1.531-.688 1.531h-4.937c-1.086 0-1.454-.322-1.906-1.094l-5.375-9.687c-.318-.545-.469-.923-.469-1.375 0-.18.051-.457.188-1l.468-1.875c.407-1.724.845-1.143 2.157-1.688 1.044-.452 2.093-1.191 2.093-3.5 0-2.539-1.312-3.53-4.031-3.53h-4.313v22.53c0 .91-.279 1.22-1.187 1.22h-4.156c-.905 0-1.188-.31-1.188-1.22V53.75c0-.906.283-1.25 1.188-1.25zm23.75 0H62.78c.908 0 1.188.344 1.188 1.25v3.063c0 .906-.28 1.218-1.188 1.218h-7.687v22.407c0 .908-.28 1.218-1.188 1.218H49.72c-.907 0-1.157-.31-1.157-1.219V58.032h-7.718c-.908 0-1.188-.312-1.188-1.218V53.75c0-.906.28-1.25 1.188-1.25z" fill="url(#g)" transform="translate(-3.602 -3.602) scale(.72032)"/></svg>