<?xml version="1.0" encoding="UTF-8"?>
<svg width="800" height="239.14" version="1.1" xmlns="http://www.w3.org/2000/svg" xmlns:xlink="http://www.w3.org/1999/xlink">
 <defs>
  <linearGradient id="d" x1="902.05" x2="1267.7" y1="79.202" y2="618.28" gradientTransform="matrix(.34408 0 0 .34408 -1.1179 -1.0315)" gradientUnits="userSpaceOnUse">
   <stop stop-color="#00b1ff" offset="0"/>
   <stop stop-color="#003332" offset=".5"/>
   <stop stop-color="#00b1ff" offset="1"/>
  </linearGradient>
  <linearGradient id="e" x1="597" x2="1031.8" y1="501.5" y2="501.5" gradientTransform="matrix(.34408 0 0 .34408 -1.1179 -1.0315)" gradientUnits="userSpaceOnUse" xlink:href="#b"/>
  <linearGradient id="f" x1="1117" x2="1551.8" y1="199.5" y2="199.5" gradientTransform="matrix(.34408 0 0 .34408 -1.1179 -1.0315)" gradientUnits="userSpaceOnUse" xlink:href="#b"/>
  <linearGradient id="g" x1="375.39" x2="1678" y1="349.92" y2="350.5" gradientTransform="matrix(.34408 0 0 .34408 -1.1179 -1.0315)" gradientUnits="userSpaceOnUse">
   <stop stop-color="#0096ff" offset="0"/>
   <stop stop-color="#69d2df" offset=".338"/>
   <stop stop-color="#0096ff" offset=".338"/>
   <stop stop-color="#34b4ef" offset=".556"/>
   <stop stop-color="#69d2df" offset=".735"/>
   <stop stop-color="#0096ff" offset=".735"/>
   <stop stop-color="#34b4ef" offset=".939"/>
   <stop stop-color="#69d2df" offset="1"/>
  </linearGradient>
  <linearGradient id="b">
   <stop stop-color="#0092d4" offset="0"/>
   <stop stop-color="#00446d" offset="1"/>
  </linearGradient>
 </defs>
 <path d="m606.7 60.094v118.84h22.192v-49.757h44.387v49.757h22.195v-118.84h-22.195v46.893h-44.387v-46.893zm103.81 0v118.84h47.853a41.547 41.547 0 0 0 41.635-41.635v-35.573a41.547 41.547 0 0 0-41.635-41.635zm22.192 22.195h23.96a21.093 21.093 0 0 1 21.144 21.141v32.171a21.093 21.093 0 0 1-21.144 21.141h-23.96z" fill="#e0e0e0" stroke-width="2.6667"/>
 <g stroke-width="1.9208">
  <path d="m339.87 3.4402h39.998l17.121 110.11v122.84h-39.56l-17.558-111.48z" fill="url(#d)"/>
  <path d="m218.06 103.91c-8.6669 13.986-13.763 31.124-13.763 49.591 0 47.295 33.43 85.633 74.667 85.633s74.665-38.338 74.665-85.633c0-18.467 2.2436-31.2-6.4233-45.186l-7.3396 13.142c0 33.636-27.268 60.904-60.902 60.904-33.636 0-60.904-27.268-60.904-60.904z" fill="url(#e)"/>
  <path d="m519.05 135.23c8.6688-13.988 13.765-31.125 13.765-49.593 0-47.293-33.429-85.633-74.665-85.633s-74.667 38.338-74.667 85.633c0 18.467-2.2416 31.2 6.4252 45.188l7.3376-13.144c0-33.636 27.268-60.902 60.904-60.902 33.634 0 60.902 27.266 60.902 60.902z" fill="url(#f)"/>
  <path d="m454.58 0.12101c-63.663 1.844-114.71 53.962-114.71 118.07 0 0.92008 0.0403 1.8478 0.0615 2.7622h-0.0596v0.48021c0 87.276-25.524 115.81-57.626 117.59 62.873-1.6327 113.57-52.286 115.07-115.19a62.28 62.28 0 0 1-0.29965-6.1813c0-87.268 25.469-115.74 57.564-117.53zm6.6039 0c32.101 1.7825 57.626 30.253 57.626 117.53 0 0 1.1832 118.03 0.29965 118.73h57.145v-118.2c0-64.226-51.248-116.41-115.07-118.07zm-300.26 2.6412v57.145h-160.93v118.31h175.76c19.639 35.376 57.545 59.564 100.6 60.806-32.136-1.7864-58.286-30.324-58.286-117.59v-118.67zm-21.969 87.879c7.0495 0 12.664 0.43027 15.186 0.77986 1.1333 0.17288 1.7345 0.73569 1.5616 2.0399l-1.0814 6.4829c-0.3496 1.9209-0.92201 2.2128-3.1809 2.0419-2.1782-0.17864-7.6892-0.60123-13.087-0.60123-4.005 0-8.1636 0.87399-8.1636 5.4034 0 3.2193 2.013 4.5716 6.3638 5.7011l6.4233 1.6827c11.487 2.9581 14.825 8.6323 14.825 16.206 0 12.883-10.109 17.409-23.951 17.409-6.1813 0-12.539-0.43219-15.065-0.78179-1.1314-0.17287-1.7326-0.73184-1.5616-2.0399l1.0219-6.6634c0.34575-1.9189 0.98156-2.2147 3.2424-2.0419 2.1763 0.17479 8.5247 0.72224 12.186 0.72224 8.0061 0 11.285-0.88936 11.285-5.7626 0-3.3077-2.2532-4.8521-7.5643-6.2428l-6.4233-1.6827c-8.446-2.1725-13.325-7.476-13.325-16.446 0-9.9212 6.9496-16.208 21.31-16.208zm-115.73 0.5993h19.387c13.408 0 19.51 6.1083 19.51 16.988 0 8.4421-4.7983 12.309-9.0645 15.006l12.726 21.07c1.3926 2.1802-0.09988 2.9408-1.3215 2.9408h-9.4832c-2.086 0-2.7929-0.61851-3.6611-2.1014l-10.325-18.607c-0.61083-1.0469-0.90088-1.773-0.90088-2.6412 0-0.34575 0.09796-0.87783 0.36112-1.9208l0.89896-3.6016c0.78179-3.3116 1.6231-2.1955 4.1433-3.2424 2.0054-0.86823 4.0203-2.2877 4.0203-6.723 0-4.877-2.5202-6.7806-7.7429-6.7806h-8.2846v43.277c0 1.748-0.53592 2.3434-2.28 2.3434h-7.9831c-1.7384 0-2.282-0.59546-2.282-2.3434v-51.262c0-1.7403 0.5436-2.4011 2.282-2.4011zm45.62 0h42.138c1.7441 0 2.282 0.66077 2.282 2.4011v5.8836c0 1.7403-0.53784 2.3396-2.282 2.3396h-14.766v43.04c0 1.7441-0.53784 2.3396-2.282 2.3396h-8.0388c-1.7422 0-2.2224-0.59546-2.2224-2.3415v-43.037h-14.825c-1.7441 0-2.282-0.59931-2.282-2.3396v-5.8855c0-1.7403 0.53784-2.4011 2.282-2.4011z" fill="url(#g)"/>
 </g>
</svg>
