<svg xmlns="http://www.w3.org/2000/svg" viewBox="0 0 10760.2 3667.4"><linearGradient id="a" gradientUnits="userSpaceOnUse" x1="17958.18" y1="-1185.83" x2="23251.732" y2="-1187.108" gradientTransform="matrix(.2929 0 0 -.2929 3130.492 1994.672)"><stop offset="0" stop-color="#e88a05"/><stop offset=".441" stop-color="#a54316"/><stop offset=".694" stop-color="#a54316"/><stop offset="1" stop-color="#e88a05"/></linearGradient><path d="M10036.7 1067.3h723.4L9497 2777.6l-56.9 3.3-563.3 836.4h-723.5L9320.5 2037l121-97.5 595.2-872.2z" fill="url(#a)"/><linearGradient id="b" gradientUnits="userSpaceOnUse" x1="9834.117" y1="7478.013" x2="17623.244" y2="7478.013" gradientTransform="translate(3216.713 796.604) scale(.2929)"><stop offset="0" stop-color="#ff9300"/><stop offset="1" stop-color="#852510"/></linearGradient><path d="M7161.1 3660.2c-595.8 0-1060.4-509.4-1060.4-1137.8 0-71.3 6.2-141.2 18.1-208.8h368.7c4.6 461.8 328.8 719.7 673.5 719 415.6-.8 662.3-373.4 666.1-641.3 0 0 429.9 133.9 431.1 131.2.1 628.4-501.3 1137.7-1097.1 1137.7z" fill="url(#b)"/><linearGradient id="c" gradientUnits="userSpaceOnUse" x1="5719.16" y1="-4107.741" x2="7833.373" y2="-2122.831" gradientTransform="rotate(90 2713.872 2563.267) scale(.2929)"><stop offset="0" stop-color="#ff9300"/><stop offset="1" stop-color="#852510"/></linearGradient><path d="M6053.5 1064.2L5857 2388.7l630.5 43V1064.2h-434z" fill="url(#c)"/><linearGradient id="d" gradientUnits="userSpaceOnUse" x1="5879.473" y1="-1585.081" x2="10132.356" y2="-1249.604" gradientTransform="matrix(.2929 0 0 -.2929 3130.492 1994.672)"><stop offset="0" stop-color="#ff9300"/><stop offset="1" stop-color="#852510"/></linearGradient><path d="M4847.8 2236.4L6172.3 2040l43 626.4H4847.8v-430z" fill="url(#d)"/><linearGradient id="e" gradientUnits="userSpaceOnUse" x1="2929.695" y1="470.842" x2="10718.823" y2="470.842" gradientTransform="matrix(.2929 0 0 -.2929 3130.492 1994.672)"><stop offset="0" stop-color="#ff9300"/><stop offset="1" stop-color="#852510"/></linearGradient><path d="M5090.1 1031.5c-595.8 0-1097.9 509.4-1097.9 1137.8 0 71.3 6.2 141.2 18.1 208.8h357.2c4.6-461.8 327.9-734.3 672.6-733.3 284.6.8 536.9 187.2 645.2 453 35.1 86.3 211.7 584.3 211.7 584.3l234.6-304c11.9-67.7 18.1-137.5 18.1-208.8.1-628.5-463.8-1137.8-1059.6-1137.8z" fill="url(#e)"/><linearGradient id="f" gradientUnits="userSpaceOnUse" x1="2747.861" y1="2251.481" x2="7091.201" y2="-1963.764" gradientTransform="matrix(.2929 0 0 -.2929 3130.492 1994.672)"><stop offset="0" stop-color="#e88a05"/><stop offset=".327" stop-color="#a54316"/><stop offset=".686" stop-color="#a54316"/><stop offset="1" stop-color="#e88a05"/></linearGradient><path d="M3744.4 0v2377.4h.9c16.9 711.1 592.9 1282.2 1301 1282.2 240.3 0 459.2-51.2 658.5-101.4v-433.4s-274.4 46.2-652.9 4.7c-375.7-41.2-674.4-352.7-684.3-752.1V0h-623.2z" fill="url(#f)"/><linearGradient id="g" gradientUnits="userSpaceOnUse" x1="-2825.477" y1="290.987" x2="1524.049" y2="-3579.689" gradientTransform="matrix(.2929 0 0 -.2929 3130.492 1994.672)"><stop offset="0" stop-color="#b35313"/><stop offset=".573" stop-color="#e88a05"/><stop offset="1" stop-color="#a54316"/></linearGradient><path d="M3329.6 1498.2c-444.7 16.1-621 96.9-882.5 276.8-252 174.5-525.8 516.7-529.9 953.9-2.1 221.5 95.7 428.6 248 572.6 159.9 151.2 393.3 248.2 585.8 248.2 206.3 0 424.3-64.1 677.8-302.9 275.3-259.3 313.4-653.8 315.4-869.8-9.3 367.7-310.3 663-680.2 663-375.8 0-680.5-304.7-680.5-680.5 0-437.2 243.4-683.8 534.1-781.2 175.1-58.7 412.4-59.7 647.8-59.8v-.7c-72-1.5-151.9-19.5-235.8-19.6z" fill="url(#g)"/><linearGradient id="h" gradientUnits="userSpaceOnUse" x1="-3965.263" y1="-829.21" x2="1799.188" y2="-.528" gradientTransform="matrix(.2929 0 0 -.2929 3130.492 1994.672)"><stop offset="0" stop-color="#ff9300"/><stop offset="1" stop-color="#ffc28d"/></linearGradient><path d="M3063.9 1017.1c-485.3 0-908.4 269.5-1132.9 669.3H0v1303.2h1926.4c60.8 110.1 136.7 210.3 224.7 298.2-143.4-143.3-221.6-344.3-219.6-558.9 4.2-437.2 282.1-776.2 534.1-950.6 99.8-69.1 281.1-185.7 536.8-237.9 198.1-40.5 400.8-25.8 563-22.4v-427.8c-.1-.1-215.2-73.1-501.5-73.1zM1534.4 2022.8c77.9 0 139.6 4.6 167.4 8.5 12.5 1.9 19.2 7.7 17.2 22.2l-11.4 72.1c-3.9 21.2-10.6 24.3-35.6 22.4-24.1-2-84.7-6.9-144.4-6.9-44.3 0-90.4 9.7-90.4 59.8 0 35.6 22.2 50.9 70.3 63.3l71.2 18.4c127 32.7 163.4 95.1 163.4 178.8 0 142.4-111.4 192.5-264.4 192.5-68.3 0-138.6-4.9-166.5-8.7-12.5-1.9-19.1-7.7-17.2-22.2l11.6-74.1c3.8-21.2 10.4-23.9 35.4-21.9 24.1 1.9 94.3 7.6 134.8 7.6 88.5 0 124.9-9.7 124.9-63.6 0-36.6-24.8-53.8-83.5-69.2l-71.2-18.4c-93.3-24-147.3-82.6-147.3-181.8 0-109.6 77-178.8 235.7-178.8zm-1279.2 6.5h214.4c148.2 0 215.6 67.4 215.6 187.6 0 93.3-53.1 135.8-100.3 165.6l140.6 232.8c15.4 24.1-1.1 32.7-14.5 32.7H606.2c-23.1 0-30.9-6.7-40.5-23.1L451.5 2419c-6.7-11.6-9.6-19.3-9.6-28.9 0-3.8.9-9.5 3.8-21l9.6-40.3c8.6-36.6 18.1-24.2 45.9-35.8 22.2-9.6 44.3-25.1 44.3-74.1 0-53.9-27.8-75-85.5-75h-91.3V2622c0 19.3-5.8 26-25.1 26h-88.4c-19.2 0-25.1-6.6-25.1-26v-566.8c0-19.1 5.9-25.9 25.1-25.9zm504.3 0h465.6c19.3 0 25.1 6.7 25.1 26v65.6c0 19.2-5.8 26-25.1 26h-163.6v475.2c0 19.3-5.8 26-25.1 26H948c-19.2 0-24.8-6.7-24.8-26v-475.2H759.5c-19.3 0-25.1-6.7-25.1-26v-65.6c0-19.2 5.8-26 25.1-26z" fill="url(#h)"/><linearGradient id="i" gradientUnits="userSpaceOnUse" x1="1525.332" y1="-1295.465" x2="6977.662" y2="-1022.734" gradientTransform="matrix(.2929 0 0 -.2929 3130.492 1994.672)"><stop offset="0" stop-color="#ff9300"/><stop offset="1" stop-color="#ffc28d"/></linearGradient><path d="M2151.1 3287.8c235.1 234.7 557.2 379.6 912.8 379.6 720 0 1303.6-593.3 1303.6-1325.1 0-478.3 112.1-1310.8 722.5-1310.8-1018 0-1339.7 843.3-1345.7 1332.3v14.1c-.1 3.1-.3 6.3-.4 9.4-3.5 218.1-58.5 604.3-329.5 859.5-253.5 238.8-457.1 288.5-663.5 288.5-192.5 0-425.9-82.7-585.8-233.9-4.7-4.5-9.4-9-14-13.6z" fill="url(#i)"/><linearGradient id="j" gradientUnits="userSpaceOnUse" x1="8884.271" y1="-1198.935" x2="13773.179" y2="-1198.935" gradientTransform="matrix(.2929 0 0 -.2929 3130.492 1994.672)"><stop offset="0" stop-color="#ff9300"/><stop offset="1" stop-color="#ffc28d"/></linearGradient><path d="M5097.6 1031.5c304.8 0 760.1 196.5 761.5 1338.1 1.1 891.7 814.2 1290.7 1302 1290.7-340.6-1-546-193.4-633.5-556.1-50-207.5-38.6-480.6-40-746.9-2.2-394.8-591.4-1325.8-1390-1325.8z" fill="url(#j)"/><linearGradient id="k" gradientUnits="userSpaceOnUse" x1="16035.162" y1="-1249.383" x2="18985.707" y2="-1221.426" gradientTransform="matrix(.2929 0 0 -.2929 3130.492 1994.672)"><stop offset="0" stop-color="#ff9300"/><stop offset="1" stop-color="#ffc28d"/></linearGradient><path d="M7161.1 3660.2c587.8 0 1289.3-482.9 1289.3-1282.2V1116.2c-207.7-25.1-415.4-47.6-623.2-48.9v1310.8c0 360 3.3 585.5-60.8 801.8-100.5 339.6-346.5 480.3-605.3 480.3z" fill="url(#k)"/><linearGradient id="l" gradientUnits="userSpaceOnUse" x1="17684.408" y1="630.526" x2="19013.477" y2="1964.155" gradientTransform="matrix(.2929 0 0 -.2929 3130.492 1994.672)"><stop offset="0" stop-color="#852510" stop-opacity="0"/><stop offset="1" stop-color="#852510" stop-opacity=".771"/></linearGradient><path d="M7161.1 3660.2c587.8 0 1289.3-482.9 1289.3-1282.2V1116.2l-623.2-48.9v1310.8c0 360 3.3 585.5-60.8 801.8-100.5 339.6-346.5 480.3-605.3 480.3z" fill="url(#l)"/><linearGradient id="m" gradientUnits="userSpaceOnUse" x1="21582.178" y1="-3857.126" x2="24867.063" y2="-1466.848" gradientTransform="matrix(.2929 0 0 -.2929 3130.492 1994.672)"><stop offset="0" stop-color="#ff9300"/><stop offset="1" stop-color="#ffc28d"/></linearGradient><path d="M9969.7 3617.3h765.6l-913-1288.7c-161.5-227.9-207.7-560.6-61.4-855.7L9093.5 2431l876.2 1186.3z" fill="url(#m)"/><radialGradient id="n" cx="12779.842" cy="21502.9" r="2802.635" gradientTransform="matrix(.1038 .3051 .1917 -.06522 3819.37 -218.111)" gradientUnits="userSpaceOnUse"><stop offset="0" stop-color="#852510" stop-opacity=".772"/><stop offset="1" stop-color="#852510" stop-opacity="0"/></radialGradient><path d="M9969.7 3617.3h765.6l-913-1288.7c-161.5-227.9-207.7-560.6-61.4-855.7L9093.5 2431l876.2 1186.3z" fill="url(#n)"/><linearGradient id="o" gradientUnits="userSpaceOnUse" x1="18359.389" y1="-447.187" x2="22296.268" y2="2222.657" gradientTransform="matrix(.2929 0 0 -.2929 3130.492 1994.672)"><stop offset="0" stop-color="#ff9300"/><stop offset="1" stop-color="#ffc28d"/></linearGradient><path d="M7827.2 1067.3h1020.7l614.1 827.3c345 464.8-57.5 930.9-309.9 1314.2 79.4-191.1 70.9-539.1-111.8-794.3l-773.8-1080.9c-121.8-170.2-271.4-266.3-439.3-266.3z" fill="url(#o)"/></svg>