<?xml version="1.0" encoding="UTF-8"?>
<svg width="800" height="196.95" version="1.1" xmlns="http://www.w3.org/2000/svg">
	<g fill="#fff">
		<path d="m282.69 81.892q-8.9072 0-17.072-2.855-8.1658-2.855-12.619-7.5376l3.3116-6.51q4.3392 4.3392 11.533 7.0225 7.1955 2.6846 14.846 2.6846 10.735 0 16.103-3.9398 5.3667-3.9411 5.3667-10.222 0-4.797-2.9123-7.652-2.9123-2.8563-7.137-4.3977-4.2247-1.5413-11.762-3.3688-9.0217-2.284-14.39-4.3977-5.3667-2.1124-9.192-6.4528-3.8254-4.3404-3.8254-11.764 0-6.0535 3.1984-11.021 3.1959-4.9699 9.819-7.9394 6.6245-2.9695 16.445-2.9695 6.8521 0 13.418 1.8847 6.566 1.8847 11.363 5.1976l-2.855 6.7377q-5.0246-3.3129-10.735-4.9674-5.7088-1.6571-11.191-1.6571-10.506 0-15.817 4.0543-5.3108 4.0556-5.3108 10.451 0 4.7957 2.9135 7.7093 2.9123 2.9123 7.3087 4.4549 4.3964 1.5413 11.82 3.3688 8.7928 2.1709 14.217 4.2832 5.4239 2.1124 9.1934 6.3956 3.7682 4.2832 3.7682 11.593 0 6.0535-3.2556 11.021-3.2531 4.9687-9.992 7.8809-6.7364 2.9123-16.558 2.9123zm107.92-0.68419-9.594-21.359h-44.535l-9.594 21.359h-8.7928l36.543-79.95h8.3362l36.542 79.95zm-51.046-28.211h38.37l-19.184-42.944zm106.77 28.895q-11.875 0-21.411-5.2535-9.5355-5.2535-14.961-14.563-5.424-9.3078-5.424-20.842 0-11.536 5.424-20.845 5.4252-9.3091 15.017-14.563 9.5926-5.2535 21.469-5.2535 8.9072 0 16.445 2.9695 7.5363 2.9695 12.79 8.6809l-5.368 5.368q-9.3638-9.4795-23.638-9.4795-9.4782 0-17.245 4.3392-7.7652 4.3404-12.162 11.878-4.3964 7.5388-4.3964 16.905 0 9.3651 4.3964 16.903 4.3964 7.5388 12.162 11.878 7.7665 4.3404 17.245 4.3404 14.387 0 23.638-9.594l5.368 5.368q-5.2535 5.7101-12.847 8.7381-7.5948 3.0255-16.502 3.0255zm105.86-80.634h8.3375v79.95h-8.3375v-36.892h-50.019v36.892h-8.4494v-79.95h8.4494v35.635h50.019zm56.414 80.634q-8.9072 0-17.073-2.855-8.1645-2.855-12.618-7.5376l3.3103-6.51q4.3392 4.3392 11.535 7.0225 7.1942 2.6846 14.846 2.6846 10.735 0 16.1-3.9398 5.368-3.9411 5.368-10.222 0-4.797-2.9123-7.652-2.9123-2.8563-7.137-4.3977-4.226-1.5413-11.762-3.3688-9.0217-2.284-14.388-4.3977-5.368-2.1124-9.1934-6.4528t-3.8254-11.764q0-6.0535 3.1971-11.021 3.1972-4.9699 9.8216-7.9394 6.6232-2.9695 16.444-2.9695 6.8521 0 13.418 1.8847 6.5672 1.8847 11.363 5.1976l-2.855 6.7377q-5.0246-3.3129-10.735-4.9674-5.7101-1.6571-11.191-1.6571-10.505 0-15.815 4.0543-5.3108 4.0556-5.3108 10.451 0 4.7957 2.911 7.7093 2.9136 2.9123 7.3087 4.4549 4.3977 1.5413 11.821 3.3688 8.7928 2.1709 14.217 4.2832 5.4252 2.1124 9.1934 6.3956t3.7682 11.593q0 6.0535-3.2544 11.021-3.2556 4.9687-9.992 7.8809-6.7389 2.9123-16.558 2.9123zm56.641-7.9941h48.078v7.3099h-56.529v-79.95h54.814v7.3099h-46.364v28.44h41.34v7.1942h-41.34zm126.42-72.64h8.335v79.95h-6.9653l-51.388-64.874v64.874h-8.4507v-79.95h6.9666l51.503 64.874z"/>
		<path d="m329.76 157.01h-70.426c0.31412 20.901 15.323 35.302 35.757 35.302 10.522 0 20.436-3.8686 26.62-11.919l3.2493 3.407c-7.273 8.6682-18.108 13.155-29.878 13.155-23.684 0-40.704-16.875-40.704-40.712 0-23.844 16.098-40.718 37.769-40.718 21.359 0 37.613 16.562 37.613 40.093zm-70.268-4.1815h65.478c-1.2374-18.887-14.704-32.661-32.813-32.661-18.275 0-31.585 13.774-32.664 32.661z"/>
		<path d="m354.48 116.14h5.1035v80.349h-5.1035z"/>
		<path d="m462.12 149.27v47.218h-5.1047v-46.904c0-19.192-10.217-29.264-27.709-29.264-20.121 0-32.35 13.007-32.35 32.818v43.35h-5.1048v-80.349h4.956v19.662c5.106-12.379 16.716-20.28 32.97-20.28 19.652 0 32.343 11.605 32.343 33.749z"/>
		<path d="m483.6 186.27 2.4735-4.025c6.0369 5.4189 16.873 10.22 29.408 10.22 18.11 0 25.383-6.8127 25.383-16.718 0-25.386-54.327-7.432-54.327-38.855 0-11.457 9.2848-21.361 29.406-21.361 9.903 0 20.741 3.2493 26.933 8.2065l-2.63 4.025c-6.4973-5.106-15.636-7.5884-24.459-7.5884-16.717 0-23.989 7.2743-23.989 16.561 0 26.163 54.171 8.5116 54.171 39.013 0 12.535-10.375 21.205-30.644 21.205-13.154 0-25.531-4.4956-31.725-10.681z"/>
		<path d="m87.133 52.255c6.786-2.2472 13.807-3.5024 20.626-3.5024 6.8737 0 13.946 1.1764 20.775 3.3103l19.922-44.562c-13.154-4.8428-27.029-7.5007-40.697-7.5007-13.623 0-27.455 2.7355-40.565 7.6673z"/>
		<path d="m48.659 82.093c5.382-9.9755 15.233-18.809 26.784-24.873l-19.904-44.518c-24.781 12.197-45.679 32.244-55.539 55.984z"/>
		<path d="m140.32 56.848c11.708 5.9237 21.637 14.723 26.907 25.15l48.519-13.371c-9.7554-24.159-30.697-44.11-55.584-56.159z"/>
		<path d="m75.382 139.61c-11.594-6.0636-21.411-14.914-26.767-24.925l-48.397 13.338c10.078 23.436 31.177 43.281 55.514 55.53z"/>
		<path d="m167.26 114.78c-5.2446 10.454-15.139 19.28-26.89 25.202l19.59 43.814c24.441-12.111 45.592-31.868 55.565-55.715z"/>
		<path d="m128.59 144.74c-6.8114 2.1174-13.901 3.276-20.818 3.276-6.8724 0-13.91-1.2463-20.678-3.4667l-19.747 44.16c13.292 5.1658 27.152 8.0501 40.426 8.0501 13.319 0 27.229-2.8054 40.557-7.8848z"/>
		<path d="m76.95 98.384c0 17.023 13.797 30.823 30.818 30.823 17.021 0 30.819-13.8 30.819-30.823s-13.798-30.823-30.819-30.823c-17.021 0-30.818 13.8-30.818 30.823z"/>
	</g>
</svg>
