<svg width="800" height="214.22" version="1.1" xmlns="http://www.w3.org/2000/svg">
	<path d="m800 107.11c0-57.46-46.261-104.04-103.32-104.04h-80.332v208.08h82.27c56.233-1.3958 101.39-47.42 101.39-104.04zm-103.32 76.149h-52.631v-152.3h52.631c41.55 0 75.623 34.03 75.623 76.148 0 41.84-34.073 76.149-75.623 76.149zm-97.231 27.894h-144.87v-208.08h27.7v180.19h117.17zm-371.47-117.99c6.6475-52.439 51.245-93.163 105.26-93.163s98.615 40.724 105.26 93.163h-27.977c-6.6492-37.098-38.782-65.27-77.286-65.27s-70.637 28.172-77.285 65.27zm210.8 27.893c-6.9253 52.44-51.245 93.163-105.26 93.163-54.017 0-98.615-40.723-105.54-93.163h27.977c6.6475 37.098 38.78 65.27 77.285 65.27s70.915-28.172 77.286-65.27zm-156.23-3.0684 3.5999-7.2522c3.0476 2.5104 6.3714 3.3472 10.249 3.3472 2.4936 0 3.8794-0.27899 3.8794-1.3946 0-0.8368-0.83178-1.1158-5.5413-1.6736-6.0936-1.1158-11.633-1.9526-11.633-8.368 0-6.4155 5.2618-9.7627 12.465-9.7627 6.6475 0 10.803 2.7894 12.189 6.4155l-6.9253 3.3472c-0.83178-1.9526-3.0476-2.5104-5.5413-2.5104-3.0459 0-3.5999 0.8368-3.5999 1.6736 0 0.8368 0.8301 1.1156 5.2618 1.6736 6.0952 0.8368 11.635 2.2314 11.635 8.9258 0 6.4154-5.5396 9.4837-13.297 9.4837-4.9856-0.27899-9.1412-1.3948-12.741-3.9052zm59.002 2.7894v0.27899h-9.419l-1.3841-3.6262h-10.527l-1.3857 3.6262h-9.4173v-0.27899l11.357-27.614h9.6951zm-13.297-10.599-2.7698-7.8102-2.7698 7.8102zm35.457-8.9259h-8.3094v19.804h-8.5872v-19.804h-8.3111v-8.089h25.208zm-2.4936 15.62c0-2.7894 2.2175-4.742 4.9873-4.742 2.7698 0 4.9856 2.2316 4.9856 4.742 0 2.7892-2.2158 4.7418-4.9856 4.7418-2.7698 0-4.9873-1.9526-4.9873-4.7418zm23.824-23.709v27.893h-8.5872v-19.804h-5.2634v-8.089h6.6492zm-173.13 0c0.55395 4.463 0.8301 9.2048 0.8301 13.947 0 59.133-47.645 107.11-106.37 107.11-58.726 0-106.37-47.977-106.37-107.11 0-59.134 47.645-107.11 106.37-107.11 44.044 0 81.717 26.777 97.784 65.27h-31.025c-13.85-22.314-38.504-37.377-66.759-37.377-43.49 0-78.67 35.424-78.67 79.217 0 43.792 35.18 79.216 78.67 79.216 38.781 0 70.914-28.172 77.285-65.27h-50.139v-27.893z" fill="#bba880"/>
</svg>
