<svg xmlns="http://www.w3.org/2000/svg" width="250" height="250"><defs><linearGradient spreadMethod="reflect" y2="52.989" x2="174.61" y1="181.836" x1="45.762" id="A" gradientUnits="userSpaceOnUse"><stop offset="0" stop-color="#bebebe" stop-opacity=".15"/><stop offset="1" stop-color="#c8c8c8" stop-opacity=".112"/></linearGradient></defs><ellipse ry="124.75" rx="123.815" cy="125" cx="125" fill="#fffffe"/><path d="M45.762 181.836s13.07-5.01 25.454-11.227c36.955-18.558 76.413-41.52 113.237-65.902 28.466-18.847 47.88-34.074 49.786-38.96-11.625-21.758-29.4-39.556-51.05-51.146-1.42-.265-2.893-.18-5.2-.033-12.07.768-26.17 9.892-45.964 29.738-31.915 32-64.887 86.198-80.62 124.405z" fill="#9e003e"/><path d="M63.93 191.588c60.983 30.368 131.713 30.445 164.07.176 2-1.88 3.882-4.018 5.633-6.4 10.122-18.488 15.43-39.26 15.432-60.374 0-7.765-.72-15.513-2.146-23.144-.07.244-.105.603-.105 1.113 0 3.308-7.648 14.015-13.703 19.186-26.472 22.604-84.574 45.56-141.92 56.07-13.523 2.48-45.43 3.61-45.43 3.61z" fill="#f57d21"/><path d="M52.908 193.954c18.955 32.14 37.845 51.006 61.896 55.02 3.764.63 7.767.958 11.92 1.012 25.616-.358 50.494-8.698 71.218-23.874-.998.364-2.443.95-4.118 1.686-10.585 4.657-18.934 6.164-34.378 6.2-10.006.03-17.08-.514-22.9-1.76-28.7-6.14-56.92-22.658-83.582-44.515l-7.192-5.896z" fill="#ffdb00"/><path d="M43.12 190.37c-2.4 7.785-5.132 14.944-5.146 20.234-.005 1.778.11 2.964.6 4.076a123.96 123.96 0 0 0 41.41 26.801c.046-.023.086-.05.118-.083-2.465-2-5.9-4.49-7.954-6.382-10.313-9.548-18.066-23.853-22.898-42.248l-3.49-10.932z" fill="#b0d136"/><path d="M33.16 178.66c-10.444-2.633-18.877-7.68-23.877-12.56l-2.154-2.102c4.106 12.598 10.174 24.458 17.98 35.134l9.463-7.27 11.19-10.023z" fill="#00a894"/><path d="M36.797 167.656C19.482 141.41 11.08 117.63 11.08 94.866c0-9.474 2.152-22.448 4.76-28.693.252-.604.45-1.175.618-1.713C6.277 83 .936 103.82.936 125c0 4.54.246 9.077.736 13.6.54 1.423 1.28 2.987 2.308 5.137 5.777 12.096 17.29 24.4 33.567 33.5l8.215 4.598s-4.932-8.068-8.965-14.18z" fill="#195eab"/><path d="M125.768.006C99.43-.173 72.96 8.26 51.907 24.132c-19.495 18.078-26.98 45.703-26.7 71.59-.838 18.414 3.195 36.553 9.06 53.895 3.53 10.845 7.56 21.517 11.497 32.22 2.61-28.036 7.072-56.023 16.118-82.77 10.917-32.698 27.294-65.233 54.823-87.025 7.566-5.67 16.616-8.562 25.65-10.813C136.86.45 131.315.034 125.768.006z" fill="#730054"/><ellipse cx="125" cy="125" rx="124.064" ry="125" fill="url(#A)"/></svg>