<?xml version="1.0" encoding="UTF-8"?>
<svg width="562.76" height="563.83" version="1.1" viewBox="0 0 562.76 563.83" xmlns="http://www.w3.org/2000/svg" xmlns:cc="http://creativecommons.org/ns#" xmlns:dc="http://purl.org/dc/elements/1.1/" xmlns:rdf="http://www.w3.org/1999/02/22-rdf-syntax-ns#" xmlns:xlink="http://www.w3.org/1999/xlink">
 <metadata>
  <rdf:RDF>
   <cc:Work rdf:about="">
    <dc:format>image/svg+xml</dc:format>
    <dc:type rdf:resource="http://purl.org/dc/dcmitype/StillImage"/>
    <dc:title/>
   </cc:Work>
  </rdf:RDF>
 </metadata>
 <defs>
  <linearGradient id="linearGradient948">
   <stop stop-opacity=".5" offset="0"/>
   <stop stop-opacity="0" offset=".55718"/>
   <stop stop-color="#fff" stop-opacity="0" offset="1"/>
  </linearGradient>
  <radialGradient id="radialGradient954" cx="112.82" cy="420.82" r="278.07" gradientTransform="matrix(2.1542,2.5981e-8,-1.2289e-8,2.1542,-130.21,-485.69)" gradientUnits="userSpaceOnUse" xlink:href="#linearGradient948"/>
  <radialGradient id="radialGradient972" cx="112.82" cy="448.77" r="210.86" gradientTransform="matrix(2.8408,1.361e-8,-1.361e-8,2.8408,-207.67,-854.03)" gradientUnits="userSpaceOnUse" xlink:href="#linearGradient948"/>
  <radialGradient id="radialGradient982" cx="112.82" cy="459.38" r="226.24" gradientTransform="matrix(2.6476,-8.4049e-8,1.9915e-8,2.6476,-185.88,-795.47)" gradientUnits="userSpaceOnUse" xlink:href="#linearGradient948"/>
  <radialGradient id="radialGradient992" cx="112.82" cy="306.08" r="187.06" gradientTransform="matrix(3.2021,6.4152e-8,-9.9852e-8,3.2021,-248.44,-559.31)" gradientUnits="userSpaceOnUse" xlink:href="#linearGradient948"/>
  <radialGradient id="radialGradient1002" cx="112.82" cy="426.45" r="58.728" gradientTransform="matrix(10.2,-1.3774e-6,1.0152e-6,10.2,-1037.9,-3928.9)" gradientUnits="userSpaceOnUse" xlink:href="#linearGradient948"/>
  <radialGradient id="radialGradient1012" cx="112.82" cy="415.42" r="52.877" gradientTransform="matrix(11.328,-3.0471e-6,2.595e-6,11.328,-1165.2,-4285.2)" gradientUnits="userSpaceOnUse" xlink:href="#linearGradient948"/>
  <radialGradient id="radialGradient1022" cx="112.82" cy="299.01" r="60.723" gradientTransform="matrix(9.8646,-1.0103e-7,-2.3871e-7,9.8646,-1000.1,-2528.8)" gradientUnits="userSpaceOnUse" xlink:href="#linearGradient948"/>
  <radialGradient id="radialGradient1032" cx="112.82" cy="372.88" r="161.64" gradientTransform="matrix(3.7058,1.0885e-7,-1.5667e-7,3.7058,-305.26,-960.99)" gradientUnits="userSpaceOnUse" xlink:href="#linearGradient948"/>
 </defs>
 <path d="m559.05 281.87a278.07 278.07 0 0 1-278.07 278.07 278.07 278.07 0 0 1-278.07-278.07 278.07 278.07 0 0 1 278.07-278.07 278.07 278.07 0 0 1 278.07 278.07z" fill="#fff"/>
 <g transform="translate(-2.5436 -1.6512)">
  <circle cx="283.52" cy="283.52" r="278.07" fill="url(#radialGradient954)"/>
  <path d="m440.44 54.998c-67.806-0.10746-257.8 211.1-327.62 365.82 105.89-24.148 445-207.36 420.46-267.95a281.86 281.86 0 0 0-78.379-93.129 281.86 281.86 0 0 0-1.2832-0.97656c-3.6246-2.539-8.0481-3.7575-13.174-3.7656z" fill="#9e003e"/>
  <path d="m440.44 54.998c-67.806-0.10746-257.8 211.1-327.62 365.82 105.89-24.148 445-207.36 420.46-267.95a281.86 281.86 0 0 0-78.379-93.129 281.86 281.86 0 0 0-1.2832-0.97656c-3.6246-2.539-8.0481-3.7575-13.174-3.7656z" fill="url(#radialGradient972)"/>
  <path d="m552.34 212.39c10.585 37.599-14.647 74.006-42.566 96.747-65.321 53.431-147.41 80.888-228.59 99.484-55.114 12.018-112.06 18.392-168.36 12.197 87.669 63.242 202.81 94.371 309.06 66.686 51.235-13.13 102.65-44.527 122.02-96.057 21.764-52.677 27.565-112.3 14.467-167.88-1.4555-3.9966-3.6521-7.6688-6.026-11.176z" fill="#f57d21"/>
  <path d="m552.34 212.39c10.585 37.599-14.647 74.006-42.566 96.747-65.321 53.431-147.41 80.888-228.59 99.484-55.114 12.018-112.06 18.392-168.36 12.197 87.669 63.242 202.81 94.371 309.06 66.686 51.235-13.13 102.65-44.527 122.02-96.057 21.764-52.677 27.565-112.3 14.467-167.88-1.4555-3.9966-3.6521-7.6688-6.026-11.176z" fill="url(#radialGradient982)"/>
  <path d="m112.82 420.82c16.546 42.376 40.536 82.96 76.338 111.88 27.987 24.655 66.145 34.43 102.83 32.558 66.522-1.8962 132.66-27.832 181.12-73.564 4.4132-4.1643 13.25-17.639 13.837-18.549-109.92 111.09-255.52 60.715-374.13-52.326z" fill="#ffdb00"/>
  <path d="m112.82 420.82c16.546 42.376 40.536 82.96 76.338 111.88 27.987 24.655 66.145 34.43 102.83 32.558 66.522-1.8962 132.66-27.832 181.12-73.564 4.4132-4.1643 13.25-17.639 13.837-18.549-109.92 111.09-255.52 60.715-374.13-52.326z" fill="url(#radialGradient992)"/>
  <path d="m112.82 420.82c-11.097 17.991-26.838 40.84-27.703 57.533-0.16821 3.2448 1.5262 6.629 3.7305 9.0059 6.17e-4 6.6e-4 0.0013 1e-3 2e-3 2e-3a281.86 281.86 0 0 0 89.416 57.635c3e-3 1e-3 6e-3 3e-3 0.01 4e-3 10.304 3.7594 17.05 3.9058 24.285 4.5488-46.035-13.94-74.459-37.922-89.74-128.73z" fill="#b0d136"/>
  <path d="m112.82 420.82c-11.097 17.991-26.838 40.84-27.703 57.533-0.16821 3.2448 1.5262 6.629 3.7305 9.0059 6.17e-4 6.6e-4 0.0013 1e-3 2e-3 2e-3a281.86 281.86 0 0 0 89.416 57.635c3e-3 1e-3 6e-3 3e-3 0.01 4e-3 10.304 3.7594 17.05 3.9058 24.285 4.5488-46.035-13.94-74.459-37.922-89.74-128.73z" fill="url(#radialGradient1002)"/>
  <path d="m7.8927 320.31c-1.1095 7.7791-1.1978 15.863 0.31112 23.609 7.5047 34.286 21.499 67.134 41.023 96.3 4.8458 4.876 12.241 2.0511 17.936 0.54277 15.893-4.9548 30.913-12.293 45.655-19.941-54.624-18.601-94.392-36.246-104.93-100.51z" fill="#00a894"/>
  <path d="m7.8927 320.31c-1.1095 7.7791-1.1978 15.863 0.31112 23.609 7.5047 34.286 21.499 67.134 41.023 96.3 4.8458 4.876 12.241 2.0511 17.936 0.54277 15.893-4.9548 30.913-12.293 45.655-19.941-54.624-18.601-94.392-36.246-104.93-100.51z" fill="url(#radialGradient1012)"/>
  <path d="m123.99 55.758c-12.101 7.2377-13.974 5.9698-35.141 23.92-3e-3 0.0025-0.0048 0.0053-0.0078 0.0078a281.86 281.86 0 0 0-86.297 181.43c-7.5e-6 3e-3 7.5e-6 5e-3 0 8e-3 -0.23395 82.395 63.061 131.77 110.27 159.69-29.07-41.148-151.79-253.8 11.176-365.06z" fill="#195eab"/>
  <path d="m123.99 55.758c-12.101 7.2377-13.974 5.9698-35.141 23.92-3e-3 0.0025-0.0048 0.0053-0.0078 0.0078a281.86 281.86 0 0 0-86.297 181.43c-7.5e-6 3e-3 7.5e-6 5e-3 0 8e-3 -0.23395 82.395 63.061 131.77 110.27 159.69-29.07-41.148-151.79-253.8 11.176-365.06z" fill="url(#radialGradient1022)"/>
  <path d="m283.52 1.6562a281.86 281.86 0 0 0-86.209 13.508c-181.14 80.401-118 347.16-84.492 405.65-9.2738-37.819 114.36-464.98 284.83-390.87-4.4066-3.8495-11.1-8.2125-18.43-11.549a281.86 281.86 0 0 0-4e-3 -2e-3 281.86 281.86 0 0 0-95.695-16.742z" fill="#730054"/>
  <path d="m283.52 1.6562a281.86 281.86 0 0 0-86.209 13.508c-181.14 80.401-118 347.16-84.492 405.65-9.2738-37.819 114.36-464.98 284.83-390.87-4.4066-3.8495-11.1-8.2125-18.43-11.549a281.86 281.86 0 0 0-4e-3 -2e-3 281.86 281.86 0 0 0-95.695-16.742z" fill="url(#radialGradient1032)"/>
 </g>
</svg>
