<?xml version="1.0" encoding="UTF-8"?>
<svg width="800" height="212.74" version="1.1" viewBox="0 0 800 212.74" xmlns="http://www.w3.org/2000/svg">
 <path d="m799.99 106.37c0-57.064-46.26-103.32-103.32-103.32h-80.332v206.65h82.271c56.233-1.385 101.39-47.091 101.39-103.32zm-103.32 75.623h-52.632v-151.25h52.632c41.551 0 75.623 33.795 75.623 75.623 0 41.551-34.072 75.623-75.623 75.623zm-97.23 27.701h-144.88v-206.65h27.701v178.95h117.17zm-371.47-117.17c6.6482-52.078 51.247-92.521 105.26-92.521 54.013 0 98.614 40.443 105.26 92.521h-27.978c-6.6482-36.842-38.781-64.82-77.285-64.82s-70.637 27.978-77.285 64.82zm210.8 27.701c-6.9252 52.078-51.247 92.521-105.26 92.521-54.013 0-98.614-40.443-105.54-92.521h27.978c6.6482 36.842 38.781 64.82 77.285 64.82s70.914-27.978 77.285-64.82zm-156.23-3.0471 3.6011-7.2022c3.0471 2.4931 6.3712 3.3241 10.249 3.3241 2.4931 0 3.8781-0.27701 3.8781-1.385 0-0.83103-0.83103-1.108-5.5402-1.662-6.0942-1.108-11.634-1.9391-11.634-8.3102 0-6.3712 5.2632-9.6952 12.465-9.6952 6.6482 0 10.803 2.7701 12.188 6.3712l-6.9252 3.3241c-0.83102-1.9391-3.0471-2.4931-5.5402-2.4931-3.0471 0-3.6011 0.83103-3.6011 1.662 0 0.83103 0.83103 1.108 5.2632 1.662 6.0942 0.83102 11.634 2.2161 11.634 8.8642 0 6.3712-5.5402 9.4182-13.296 9.4182-4.9862-0.27701-9.1412-1.385-12.742-3.8781zm59.003 2.7701v0.27701h-9.4182l-1.385-3.6011h-10.526l-1.385 3.6011h-9.4182v-0.27701l11.357-27.424h9.6952zm-13.296-10.526-2.7701-7.7562-2.7701 7.7562zm35.457-8.8642h-8.3102v19.668h-8.5873v-19.668h-8.3102v-8.0332h25.208zm-2.4931 15.512c0-2.7701 2.2161-4.7091 4.9862-4.7091 2.7701 0 4.9862 2.2161 4.9862 4.7091 0 2.7701-2.2161 4.7091-4.9862 4.7091-2.7701 0-4.9862-1.939-4.9862-4.7091zm23.823-23.546v27.701h-8.5873v-19.668h-5.2632v-8.0332zm-173.13 0c0.55401 4.4321 0.83102 9.1413 0.83102 13.85 0 58.726-47.645 106.37-106.37 106.37-58.726 0-106.37-47.645-106.37-106.37 0-58.726 47.645-106.37 106.37-106.37 44.044 0 81.717 26.593 97.784 64.82h-31.025c-13.85-22.161-38.504-37.119-66.759-37.119-43.49 0-78.67 35.18-78.67 78.67 0 43.49 35.18 78.67 78.67 78.67 38.781 0 70.914-27.978 77.285-64.82h-50.138v-27.701z" fill="#bba880" stroke-width="2.7701"/>
</svg>
