<svg xmlns="http://www.w3.org/2000/svg" width="553.947" height="425.96"><g stroke-width=".1"><path d="M425.961 212.979c0 117.626-95.354 212.981-212.981 212.981C95.355 425.96 0 330.605 0 212.979 0 95.353 95.355-.001 212.98-.001c117.627 0 212.981 95.354 212.981 212.98M528.219 249.55h2.858c4.431 0 8.576-2.858 8.576-10.291v-52.602c0-7.433-4.145-10.29-8.576-10.29h-2.858c-2.86 0-2.86 0-2.86 2.857v67.325c0 3.002 0 3.002 2.86 3.002zm25.728-59.462v45.74c0 19.724-11.007 27.157-22.87 27.157h-17.154c-2.142 0-2.858-.714-2.858-2.858v-94.338c0-2.145.716-2.858 2.858-2.858h17.154c11.863 0 22.87 7.432 22.87 27.157zm-74.34 26.87h-8.576c-2.858 0-2.858 0-2.858 2.86v40.309c0 2.144-.716 2.858-2.86 2.858h-8.576c-2.144 0-2.858-.714-2.858-2.858v-94.338c0-2.145.714-2.858 2.858-2.858h8.576c2.144 0 2.86.713 2.86 2.858v34.876c0 2.859 0 2.859 2.858 2.859h8.576c2.86 0 2.86 0 2.86-2.859V165.79c0-2.145.714-2.858 2.858-2.858h8.576c2.144 0 2.858.713 2.858 2.858v94.338c0 2.144-.714 2.858-2.858 2.858h-8.576c-2.144 0-2.858-.714-2.858-2.858v-40.308c0-2.86 0-2.86-2.86-2.86" fill="#b3ab7c"/><path d="M205.761 219.685v-13.398h-6.704v3.828h2.494v9.57zm47.055-56.7h-13.399v99.924h70.071v-13.398h-56.672zm-72.033-1.432c-26.132 0-47.696 19.498-50.978 44.735h13.563c3.163-17.801 18.705-31.323 37.415-31.323s34.25 13.522 37.413 31.323h13.564c-3.281-25.237-24.845-44.735-50.977-44.735zm-96.667 44.735v13.399h24.262c-3.17 17.793-18.708 31.306-37.411 31.306-20.995 0-38.014-17.02-38.014-38.014 0-20.994 17.02-38.014 38.014-38.014 13.615 0 25.547 7.166 32.257 17.924h15.094c-7.825-18.417-26.078-31.336-47.351-31.336-28.402 0-51.425 23.026-51.425 51.426 0 28.402 23.023 51.425 51.425 51.425 28.4 0 51.425-23.023 51.425-51.425 0-2.268-.163-4.499-.448-6.691zm308.89 6.659c0-20.152-16.395-36.548-36.549-36.548l-25.393-.006v73.118h25.393v-.015c20.154 0 36.548-16.396 36.548-36.55zm13.413 0c0 27.241-21.802 49.389-48.91 49.949v.013h-39.844v-99.924h38.792c27.594 0 49.962 22.368 49.962 49.962zm-228.11 1.57l-1.321-3.733-1.321 3.733zm.995-8.23l5.436 13.206v.192h-4.593l-.614-1.722h-5.09l-.614 1.722h-4.593v-.192l5.436-13.206zm-16.561 10.068c-1.876 0-3.486-.46-4.92-1.608l-1.704 3.482c1.798 1.15 3.809 1.763 6.297 1.763 3.81 0 6.47-1.495 6.47-4.575 0-3.158-2.718-3.79-5.609-4.23-2.181-.326-2.602-.479-2.602-.862 0-.421.325-.785 1.761-.785 1.148 0 2.296.23 2.66 1.225l3.33-1.665c-.785-1.761-2.755-3.12-5.953-3.12-3.502 0-6.009 1.723-6.009 4.747 0 3.158 2.641 3.6 5.588 4.077 2.183.345 2.623.46 2.623.861 0 .555-.708.69-1.932.69zm18.04 34.638c-18.704 0-34.242-13.513-37.412-31.306h-13.564c3.29 25.229 24.85 44.717 50.976 44.717 26.126 0 47.685-19.488 50.974-44.717h-13.564c-3.169 17.793-18.706 31.306-37.41 31.306zm2.422-40.878h4.019v9.57h4.21v-9.57h4.02v-3.828h-12.249zm13.372 5.282c1.339 0 2.354 1.015 2.354 2.298 0 1.282-1.015 2.297-2.354 2.297-1.34 0-2.356-1.015-2.356-2.297 0-1.283 1.016-2.298 2.356-2.298" fill="#fff"/></g></svg>