<?xml version="1.0" encoding="UTF-8"?>
<!-- Created with Inkscape (http://www.inkscape.org/) -->
<svg width="800" height="170.3" version="1.1" viewBox="0 0 800 170.3" xml:space="preserve" xmlns="http://www.w3.org/2000/svg" xmlns:cc="http://creativecommons.org/ns#" xmlns:dc="http://purl.org/dc/elements/1.1/" xmlns:rdf="http://www.w3.org/1999/02/22-rdf-syntax-ns#"><metadata><rdf:RDF><cc:Work rdf:about=""><dc:format>image/svg+xml</dc:format><dc:type rdf:resource="http://purl.org/dc/dcmitype/StillImage"/></cc:Work></rdf:RDF></metadata>

<path d="m774.26 127.52h2.859c4.4325 0 8.579-2.859 8.579-10.295v-52.62c0-7.4356-4.1465-10.294-8.579-10.294h-2.859c-2.861 0-2.861 0-2.861 2.858v67.349c0 3.003 0 3.003 2.861 3.003zm25.737-59.483v45.756c0 19.731-11.011 27.166-22.878 27.166h-17.16c-2.1428 0-2.859-0.71425-2.859-2.859v-94.371c0-2.1458 0.7162-2.859 2.859-2.859h17.16c11.867 0 22.878 7.4346 22.878 27.167zm-74.366 26.879h-8.5791c-2.859 0-2.859 0-2.859 2.861v40.323c0 2.1447-0.7162 2.859-2.861 2.859h-8.579c-2.1448 0-2.859-0.71425-2.859-2.859v-94.371c0-2.1458 0.71425-2.859 2.859-2.859h8.579c2.1448 0 2.861 0.71325 2.861 2.859v34.888c0 2.86 0 2.86 2.859 2.86h8.5791c2.861 0 2.861 0 2.861-2.86v-34.887c0-2.1458 0.71418-2.859 2.859-2.859h8.579c2.1447 0 2.859 0.71325 2.859 2.859v94.371c0 2.1448-0.71427 2.859-2.859 2.859h-8.579c-2.1448 0-2.859-0.71425-2.859-2.859v-40.322c0-2.861 0-2.861-2.861-2.861" fill="#bba880" stroke-width=".10004"/><path d="m640.39 85.145c0-45.679-37.031-82.706-82.706-82.706h-64.305v165.42h65.857c45.014-1.1087 81.161-37.696 81.161-82.706zm-82.706 60.535h-42.131v-121.07h42.131c33.261 0 60.535 27.052 60.535 60.535 0 33.261-27.274 60.535-60.535 60.535zm-77.831 22.174h-115.97v-165.42h22.174v143.25h93.793zm-297.36-93.793c5.3218-41.688 41.023-74.062 84.259-74.062s78.94 32.374 84.259 74.062h-22.396c-5.3218-29.492-31.044-51.888-61.866-51.888-30.822 0-56.544 22.396-61.866 51.888zm168.74 22.174c-5.5435 41.688-41.023 74.062-84.259 74.062-43.237 0-78.94-32.374-84.483-74.062h22.396c5.3218 29.492 31.044 51.888 61.866 51.888s56.766-22.396 61.866-51.888zm-125.06-2.4392 2.8826-5.7653c2.4392 1.9957 5.1001 2.6609 8.2042 2.6609 1.9957 0 3.1044-0.22175 3.1044-1.1087 0-0.66523-0.66523-0.88694-4.4349-1.3304-4.8783-0.88694-9.3129-1.5522-9.3129-6.6522 0-5.1001 4.2131-7.761 9.9781-7.761 5.3218 0 8.6477 2.2174 9.7563 5.1001l-5.5435 2.6609c-0.66522-1.5522-2.4392-1.9957-4.4349-1.9957-2.4392 0-2.8826 0.66522-2.8826 1.3304 0 0.66523 0.66524 0.88694 4.2131 1.3304 4.8783 0.66522 9.3129 1.774 9.3129 7.0958 0 5.1001-4.4349 7.5392-10.643 7.5392-3.9914-0.22174-7.3175-1.1087-10.2-3.1044zm47.231 2.2174v0.22174h-7.5392l-1.1087-2.8826h-8.4259l-1.1087 2.8826h-7.5392v-0.22174l9.0911-21.953h7.761zm-10.643-8.4259-2.2174-6.2087-2.2174 6.2087zm28.383-7.0958h-6.6522v15.744h-6.874v-15.744h-6.6522v-6.4305h20.179zm-1.9957 12.417c0-2.2174 1.774-3.7696 3.9914-3.7696 2.2174 0 3.9914 1.774 3.9914 3.7696 0 2.2174-1.774 3.7696-3.9914 3.7696-2.2174 0-3.9914-1.5522-3.9914-3.7696zm19.07-18.848v22.174h-6.874v-15.744h-4.2131v-6.4305zm-138.59 0c0.44348 3.5478 0.66522 7.3175 0.66522 11.087 0 47.009-38.139 85.148-85.148 85.148-47.009 0-85.148-38.139-85.148-85.148 0-47.009 38.139-85.148 85.148-85.148 35.257 0 65.413 21.287 78.275 51.888h-24.835c-11.087-17.74-30.822-29.713-53.44-29.713-34.813 0-62.974 28.161-62.974 62.974 0 34.813 28.161 62.974 62.974 62.974 31.044 0 56.766-22.396 61.866-51.888h-40.135v-22.174z" fill="#bba880" stroke-width="2.2174"/></svg>
