<?xml version="1.0" encoding="UTF-8" standalone="no"?>
<!-- Created with Inkscape (http://www.inkscape.org/) -->
<svg
   xmlns:svg="http://www.w3.org/2000/svg"
   xmlns="http://www.w3.org/2000/svg"
   version="1.0"
   width="708.66144"
   height="217.18698"
   id="svg6091">
  <defs
     id="defs6093" />
  <g
     transform="translate(-30.796393,-96.199385)"
     id="layer1">
    <g
       id="g7068">
      <path
         d="M 54.556494,96.253888 L 219.78731,96.210286 L 221.53117,96.199385 C 236.89894,96.199385 248.01605,100.16666 248.01605,114.48808 L 248.01605,116.84234 L 248.01605,292.74341 L 248.01605,295.09758 C 248.01605,309.41899 236.89894,313.38636 221.53117,313.38636 L 57.281285,313.38636 C 42.240478,313.38636 31.341351,309.5934 30.796393,296.03494 L 30.796393,116.84234 L 30.796393,114.48808 C 30.796393,101.06034 40.605613,96.733425 54.556494,96.253888"
         id="path1697"
         style="fill:#b6242d;fill-opacity:1;fill-rule:nonzero;stroke:none" />
      <path
         d="M 638.53191,254.23671 C 645.83432,254.23671 650.30294,254.22581 653.02773,253.41934 C 655.20749,252.7654 656.07945,251.70813 656.07945,248.74361 L 656.07945,223.03251 C 656.07945,220.0462 655.20749,218.98893 653.02773,218.33498 C 650.30294,217.53933 645.83432,217.51762 638.53191,217.51762 L 625.77988,217.51762 L 625.77988,254.23671 L 638.53191,254.23671 z M 618.36847,206.66206 L 638.53191,206.64026 C 662.29198,206.64026 668.61343,210.58573 668.61343,223.03251 L 668.61343,248.74361 C 668.61343,261.19039 662.29198,265.10317 638.53191,265.10317 L 618.1505,265.10317 C 615.42571,264.97236 613.35488,262.52009 613.24588,259.8825 L 613.24588,212.07894 C 613.24588,209.22334 615.42571,206.66206 618.36847,206.66206 z M 391.55759,217.55023 L 386.65298,217.55023 C 375.64486,217.63744 374.00999,218.5748 374.00999,223.04341 L 374.00999,247.63184 C 374.00999,255.07597 382.6203,255.05416 387.85189,255.05416 L 390.24969,255.05416 C 395.59026,255.04326 404.30957,255.06507 404.30957,247.63184 L 404.30957,223.04341 C 404.30957,218.5639 402.56571,217.63744 391.55759,217.55023 z M 416.73458,223.04341 L 416.84357,247.63184 C 416.84357,261.82254 405.83544,265.85522 390.68566,265.92062 L 387.96088,265.92062 C 372.5931,265.92062 361.47599,261.95335 361.47599,247.64275 L 361.47599,223.04341 C 361.47599,205.52857 378.8056,206.32414 391.55759,206.66206 C 411.394,207.1961 416.73458,211.55571 416.73458,223.04341 z M 348.833,212.07894 C 348.833,214.95625 346.65317,217.50672 343.7104,217.50672 L 327.79767,217.51762 C 320.49526,217.51762 316.02662,217.53933 313.30183,218.33498 C 311.12201,218.98893 310.25008,220.0462 310.25008,223.03251 L 310.25008,246.82529 C 310.25008,254.25851 318.8604,254.23671 324.20097,254.23671 L 343.7104,254.23671 C 346.76217,254.23671 348.833,256.80889 348.833,259.65359 C 348.833,262.46558 346.76217,265.10317 343.7104,265.10317 L 324.20097,265.10317 C 308.83319,265.10317 297.71608,261.14679 297.71608,246.82529 L 297.71608,222.67288 C 297.71608,210.54213 304.03757,206.64026 327.79767,206.64026 L 343.7104,206.66206 C 346.65317,206.66206 348.833,209.21244 348.833,212.07894 z M 739.45781,248.74361 C 739.45781,261.17949 733.24528,265.10317 709.3762,265.10317 L 690.19374,265.10317 C 687.35995,265.10317 685.07118,262.54189 685.07118,259.65359 C 685.07118,256.78718 687.14202,254.22581 690.19374,254.22581 L 709.3762,254.23671 C 716.67861,254.23671 721.14723,254.22581 723.87202,253.41934 C 726.05187,252.7763 726.92383,251.70813 726.92383,248.74361 L 726.92383,246.82529 C 726.92383,242.34577 725.28892,241.4194 714.17183,241.32129 L 709.3762,241.26679 C 687.68697,240.79815 684.09022,236.68917 684.09022,224.95075 L 684.09022,212.07894 C 684.09022,208.6784 687.14202,206.48765 690.30275,206.48765 C 693.46348,206.48765 696.5152,208.6348 696.5152,211.89363 L 696.6242,224.93985 C 696.6242,227.90445 697.49616,228.97253 699.67601,229.62648 C 702.4008,230.42213 706.86942,230.44393 714.17183,230.44393 L 718.96747,230.44393 C 722.67313,230.44393 725.28892,230.95617 726.92383,231.4903 L 726.92383,212.06804 C 726.92383,208.6893 729.97555,206.48765 733.13627,206.48765 C 736.29708,206.48765 739.3488,208.6457 739.3488,211.89363 C 739.45781,212.07894 739.45781,248.74361 739.45781,248.74361 z M 472.42913,222.70558 C 453.46464,213.09251 447.03416,218.5748 447.03416,223.03251 L 447.03416,260.37294 C 447.03416,263.62087 443.9824,265.81162 440.82165,265.81162 C 437.6609,265.81162 434.50016,263.66447 434.50016,260.39474 L 434.50016,223.03251 C 434.50016,206.07351 450.84885,201.50679 478.64163,213.09251 C 506.43441,201.63751 522.8921,205.07075 522.8921,223.03251 L 522.8921,260.39474 C 522.8921,263.66447 519.73135,265.81162 516.5706,265.81162 C 513.40986,265.81162 510.35811,263.66447 510.35811,260.39474 L 510.35811,223.03251 C 510.35811,218.5748 503.92761,213.24512 484.96313,222.71648 L 484.96313,260.44924 C 484.74514,263.72987 481.80238,265.81162 478.64163,265.81162 C 475.48088,265.81162 472.42913,263.66447 472.42913,260.39474 L 472.42913,222.70558 z M 561.03905,230.44393 L 565.83467,230.44393 C 573.13709,230.44393 577.60573,230.42213 580.33052,229.62648 C 582.51034,228.97253 583.38227,227.90445 583.38227,224.95075 L 583.38227,223.03251 C 583.38227,218.50939 581.7474,217.60473 570.41231,217.52843 L 565.72568,217.52843 C 554.71756,217.62653 553.08269,218.5639 553.08269,223.03251 L 553.08269,231.4903 C 554.71756,230.95617 557.33335,230.44393 561.03905,230.44393 z M 595.91626,223.03251 L 595.91626,224.95075 C 595.91626,236.68917 592.42855,240.79815 570.73928,241.26679 L 565.83467,241.32129 C 554.82655,241.4194 553.08269,242.34577 553.08269,246.82529 L 553.08269,248.74361 C 553.08269,251.70813 553.95462,252.7763 556.13445,253.41934 C 558.85923,254.22581 563.32787,254.23671 570.63029,254.23671 L 589.48578,254.23671 C 592.42855,254.23671 594.60837,256.77628 594.60837,259.65359 C 594.60837,262.44378 592.64653,265.10317 589.59477,265.10317 L 570.63029,265.10317 C 546.87018,265.10317 540.54869,261.20129 540.54869,249.00514 L 540.54869,222.67288 C 540.54869,205.44137 558.42327,206.36774 570.84827,206.70566 C 590.79367,207.2506 595.91626,211.55571 595.91626,223.03251 z M 319.40535,144.53699 L 333.13825,144.53699 L 333.13825,150.15008 L 319.40535,150.15008 C 309.05118,150.15008 305.56345,150.15008 305.56345,155.26174 L 305.56345,160.71132 C 305.56345,165.17994 308.28824,165.73578 315.91763,165.80119 L 319.40535,165.85569 C 333.68321,166.22631 336.62597,169.16902 336.62597,176.53684 L 336.62597,182.17173 C 336.62597,189.86648 333.24725,192.68937 315.91763,192.68937 L 302.07573,192.68937 L 302.18472,187.08718 L 315.91763,187.08718 C 326.38079,187.08718 329.75952,187.08718 329.75952,181.97552 L 329.75952,176.53684 C 329.75952,172.04642 327.14373,171.49058 319.40535,171.42518 L 315.91763,171.38157 C 300.44086,171.04366 298.80599,168.25346 298.80599,160.71132 L 298.80599,155.26174 C 298.80599,147.38169 301.96674,144.53699 319.40535,144.53699 z M 380.54946,173.43062 C 380.54946,173.43062 378.8056,174.82571 373.57402,174.82571 L 370.0863,174.82571 C 359.73213,174.82571 356.3534,174.82571 356.3534,179.93738 L 356.3534,182.40056 C 356.3534,186.93458 358.96919,187.4578 366.81656,187.51231 L 370.30428,187.51231 C 377.82468,187.436 380.54946,186.88016 380.54946,182.40056 L 380.54946,173.43062 z M 366.59858,193.08171 C 352.32072,192.68937 349.48695,189.72477 349.48695,182.40056 L 349.48695,179.92648 C 349.48695,171.85021 351.44879,169.22353 370.0863,169.22353 C 377.82468,169.15812 380.54946,168.59138 380.54946,164.10096 C 380.54946,158.28076 377.06175,158.28076 366.70757,158.28076 L 352.97467,158.28076 L 352.97467,152.67866 L 366.70757,152.67866 C 383.92819,152.67866 387.30693,155.50156 387.30693,163.1963 L 387.30693,182.66217 C 387.30693,189.75747 384.36416,192.68937 370.1953,193.08171 L 366.59858,193.08171 z M 439.94972,192.85288 L 439.94972,184.74391 L 448.12407,184.74391 L 448.12407,192.85288 L 439.94972,192.85288 z M 461.63899,192.61307 L 461.63899,164.6568 C 461.63899,158.82579 456.08044,158.16094 450.52188,158.16094 L 447.90609,158.16094 L 447.90609,152.54785 L 450.41289,152.54785 C 461.53,152.54785 468.39645,155.38165 468.39645,164.6677 L 468.50544,192.61307 L 461.63899,192.61307 z M 406.3804,158.32436 L 398.20606,158.32436 L 398.20606,152.71136 L 406.3804,152.71136 L 406.3804,142.19372 L 413.24685,140.78772 L 413.24685,152.71136 L 430.68546,152.64596 L 430.68546,158.24815 L 413.24685,158.32436 L 413.35584,180.64583 C 413.35584,186.46594 418.80542,187.08718 424.36397,187.08718 L 427.08875,187.08718 L 427.08875,192.68937 L 424.47296,192.75478 C 413.35584,192.75478 406.4894,189.92098 406.4894,180.64583 L 406.3804,158.32436"
         id="path1699"
         style="fill:#939598;fill-opacity:1;fill-rule:nonzero;stroke:none" />
      <path
         d="M 84.093141,187.26159 C 84.093141,207.87184 100.33284,228.89623 103.3846,232.75459 C 100.76881,225.90991 96.736131,211.25058 96.736131,195.52317 C 96.736131,186.53134 98.044023,177.21259 101.74973,168.86389 C 106.32737,158.54238 113.95675,151.22906 124.41992,147.07647 C 105.01947,149.61595 90.959594,165.15814 86.272965,175.19625 C 84.747088,179.10902 84.093141,183.18531 84.093141,187.26159"
         id="path1701"
         style="fill:#ffffff;fill-rule:nonzero;stroke:none" />
      <path
         d="M 104.36552,234.02978 C 106.54535,237.76815 123.00303,262.91242 155.80942,262.31298 C 173.466,259.98061 188.17982,244.54742 193.08444,232.70009 C 163.65679,266.66178 109.27013,238.32399 104.36552,234.02978"
         id="path1703"
         style="fill:#ffffff;fill-rule:nonzero;stroke:none" />
      <path
         d="M 103.60258,234.05158 C 102.40368,235.5883 97.826047,241.11418 94.556307,246.02972 C 96.518146,248.95064 103.3846,254.73814 108.2892,256.9833 C 103.92956,253.19043 103.05763,246.50926 103.05763,241.33219 C 103.05763,237.97526 103.49359,235.18507 103.60258,234.05158"
         id="path1705"
         style="fill:#ffffff;fill-rule:nonzero;stroke:none" />
      <path
         d="M 80.387432,221.80092 C 81.36836,229.51747 87.362881,238.08426 90.414636,241.72453 L 96.191173,238.22588 C 98.806966,236.60196 101.31376,235.07606 103.3846,233.72456 C 98.915954,234.05158 86.381953,233.82267 80.387432,221.80092"
         id="path1707"
         style="fill:#ffffff;fill-rule:nonzero;stroke:none" />
      <path
         d="M 78.425593,205.68109 C 78.425593,210.92356 78.861554,214.52031 78.861554,214.68382 C 83.112222,226.13882 99.678898,232.01344 103.16661,233.16872 C 92.267487,224.39491 80.93239,211.09797 80.93239,193.70295 C 80.93239,190.17169 81.477348,186.47684 82.567264,182.61857 C 79.188527,190.53132 78.425593,199.31604 78.425593,205.68109"
         id="path1709"
         style="fill:#ffffff;fill-rule:nonzero;stroke:none" />
      <path
         d="M 100.8778,209.63747 C 100.8778,219.94809 103.3846,230.29133 103.92956,232.87441 C 110.46904,201.85552 143.16643,156.82035 160.82301,153.00559 C 164.09275,152.27534 168.56139,151.59968 171.61315,155.22904 C 169.65131,148.40617 142.62147,140.73322 132.04931,145.38715 C 109.59711,155.20724 100.8778,188.51498 100.8778,209.63747"
         id="path1711"
         style="fill:#ffffff;fill-rule:nonzero;stroke:none" />
      <path
         d="M 118.64338,261.75714 C 127.58067,265.35388 136.19098,266.42196 145.45524,265.15767 C 117.66246,264.26391 106.32737,240.16592 104.14754,234.47662 C 104.91048,239.56648 108.50719,257.89886 118.64338,261.75714"
         id="path1713"
         style="fill:#ffffff;fill-rule:nonzero;stroke:none" />
      <path
         d="M 117.33549,212.8963 C 110.905,221.60471 105.12846,231.51201 104.36552,233.04882 C 121.91312,228.79821 172.15811,206.95628 193.73838,179.11992 C 191.77654,172.01372 182.07631,159.52334 175.42785,156.46063 C 173.13903,157.11458 153.5206,164.5587 117.33549,212.8963"
         id="path1715"
         style="fill:#ffffff;fill-rule:nonzero;stroke:none" />
      <path
         d="M 195.15527,192.23155 C 188.72478,209.13613 142.83944,233.65916 104.47451,233.65916 C 122.89404,242.77089 164.85569,251.54462 192.32149,229.14694 C 198.96996,221.23418 200.27786,210.05169 200.49585,205.36506 C 201.0408,190.18259 195.91821,183.69755 194.8283,182.89108 C 194.8283,182.89108 197.44409,186.12811 195.15527,192.23155"
         id="path1717"
         style="fill:#ffffff;fill-rule:nonzero;stroke:none" />
    </g>
  </g>
</svg>
