<svg width="800" height="171.49" version="1.1" xmlns="http://www.w3.org/2000/svg">
	<path d="m774.26 127.52h2.859c4.4325 0 8.579-2.859 8.579-10.295v-52.62c0-7.4356-4.1465-10.294-8.579-10.294h-2.859c-2.861 0-2.861 0-2.861 2.858v67.349c0 3.003 0 3.003 2.861 3.003zm25.737-59.483v45.756c0 19.731-11.011 27.166-22.878 27.166h-17.16c-2.1428 0-2.859-0.71426-2.859-2.859v-94.371c0-2.1458 0.71619-2.859 2.859-2.859h17.16c11.867 0 22.878 7.4346 22.878 27.167zm-74.366 26.879h-8.5791c-2.859 0-2.859 0-2.859 2.861v40.323c0 2.1447-0.71619 2.859-2.861 2.859h-8.579c-2.1448 0-2.859-0.71426-2.859-2.859v-94.371c0-2.1458 0.71426-2.859 2.859-2.859h8.579c2.1448 0 2.861 0.71325 2.861 2.859v34.888c0 2.86 0 2.86 2.859 2.86h8.5791c2.861 0 2.861 0 2.861-2.86v-34.887c0-2.1458 0.71419-2.859 2.859-2.859h8.579c2.1447 0 2.859 0.71325 2.859 2.859v94.371c0 2.1448-0.71428 2.859-2.859 2.859h-8.579c-2.1448 0-2.859-0.71425-2.859-2.859v-40.322c0-2.861 0-2.861-2.861-2.861" fill="#bba880"/>
	<path d="m640.42 85.744c0-45.998-37.033-83.288-82.714-83.288h-64.308v166.58h65.859c45.016-1.1174 81.162-37.96 81.162-83.289zm-82.714 60.959h-42.132v-121.92h42.132c33.262 0 60.538 27.242 60.538 60.959 0 33.494-27.276 60.959-60.538 60.959zm-77.835 22.33h-115.98v-166.58h22.174v144.25h93.801zm-297.37-94.453c5.3215-41.979 41.023-74.579 84.265-74.579s78.943 32.601 84.266 74.579h-22.397c-5.3228-29.698-31.046-52.25-61.87-52.25-30.824 0-56.547 22.552-61.868 52.25zm168.75 22.329c-5.5439 41.979-41.023 74.58-84.265 74.58s-78.943-32.6-84.487-74.58h22.397c5.3215 29.698 31.045 52.25 61.868 52.25 30.824 0 56.769-22.552 61.87-52.25zm-125.07-2.4563 2.8818-5.8055c2.4397 2.0096 5.1004 2.6795 8.2046 2.6795 1.9962 0 3.1055-0.22334 3.1055-1.1164 0-0.66988-0.66586-0.89322-4.4359-1.3398-4.878-0.8932-9.3126-1.5631-9.3126-6.6987 0-5.1358 4.2122-7.8153 9.9784-7.8153 5.3215 0 8.6481 2.233 9.7574 5.1358l-5.5439 2.6795c-0.66586-1.5631-2.4397-2.0096-4.4359-2.0096-2.4384 0-2.8818 0.66988-2.8818 1.3397 0 0.66988 0.66451 0.89309 4.2122 1.3398 4.8794 0.66987 9.314 1.7863 9.314 7.1453 0 5.1356-4.4346 7.592-10.644 7.592-3.9911-0.22335-7.3177-1.1166-10.2-3.1262zm47.233 2.233v0.22334h-7.5401l-1.108-2.9028h-8.427l-1.1093 2.9028h-7.5388v-0.22334l9.0915-22.106h7.7612zm-10.644-8.485-2.2173-6.2522-2.2173 6.2522zm28.384-7.1454h-6.6518v15.854h-6.8743v-15.854h-6.6532v-6.4754h20.179zm-1.9962 12.504c0-2.233 1.7752-3.796 3.9925-3.796s3.9911 1.7864 3.9911 3.796c0 2.2328-1.7738 3.7959-3.9911 3.7959s-3.9925-1.5631-3.9925-3.7959zm19.071-18.98v22.329h-6.8742v-15.854h-4.2135v-6.4754h5.3228zm-138.59 0c0.44344 3.5727 0.6645 7.3686 0.6645 11.165 0 47.338-38.141 85.744-85.152 85.744-47.011 0-85.153-38.407-85.153-85.744 0-47.338 38.141-85.744 85.153-85.744 35.259 0 65.417 21.436 78.278 52.25h-24.836c-11.087-17.863-30.823-29.921-53.442-29.921-34.815 0-62.978 28.358-62.978 63.415 0 35.057 28.162 63.415 62.978 63.415 31.045 0 56.768-22.552 61.869-52.25h-40.137v-22.329z" fill="#bba880"/>
</svg>
