<svg xmlns="http://www.w3.org/2000/svg" width="788.4" height="450"><defs><linearGradient id="A" x1="474.08" y1="285.762" x2="710.475" y2="285.762" gradientUnits="userSpaceOnUse"><stop offset="0" stop-color="#fff"/><stop offset="1" stop-color="#fff" stop-opacity=".748"/></linearGradient></defs><path d="M44 0h700.4c24.376 0 44 19.624 44 44v362c0 24.376-19.624 44-44 44H44c-24.376 0-44-19.624-44-44V44C0 19.624 19.624 0 44 0z" fill="#fff" paint-order="stroke fill markers"/><path d="M56 12h676.4c24.376 0 44 19.624 44 44v338c0 24.376-19.624 44-44 44H56c-24.376 0-44-19.624-44-44V56c0-24.376 19.624-44 44-44z" fill="#e20717" paint-order="stroke fill markers"/><g fill="#fff"><path d="M289.804 56.854c-21.518 0-32.151 19.002-32.573 33.156 0 22.589 33.725 45.342 62.93 74.548 2.786-2.786 5.613-5.512 8.448-8.186-9.143-10.131-15.512-20.151-15.512-31.03v-.055l.002-.056c.237-7.967 3.241-16.932 9.238-24.173s15.227-12.631 27.093-12.631h.002c11.99 0 22.981 6.013 29.678 15.657 2.54-4.735 3.982-9.408 3.982-14.073-.423-14.154-11.055-33.156-32.573-33.156-13.433 0-25.489 8.395-30.358 21.139-4.869-12.744-16.924-21.139-30.358-21.139zm59.627 35.332c-21.518 0-32.151 19.002-32.573 33.156 0 22.589 33.725 45.342 62.93 74.548 25.011-25.011 53.332-45.289 60.953-64.784-.569.207-1.185.303-1.82.253-2.392-.189-4.229-2.342-4.039-4.734.812-10.227-2.8-17.871-8.566-23.317-5.752-5.432-13.806-8.457-21.452-8.448-2.399.003-4.401-1.995-4.405-4.395 0-.274.029-.541.078-.802-9.338 2.936-17.082 10.065-20.749 19.663-4.869-12.744-16.924-21.139-30.358-21.139z" paint-order="stroke fill markers"/><path d="M404.857 92.658a1.8 1.8 0 0 0 .005 3.6c8.323-.01 16.965 3.232 23.24 9.158s10.243 14.458 9.373 25.413a1.8 1.8 0 1 0 3.589.285c.95-11.978-3.499-21.712-10.491-28.316s-16.464-10.151-25.716-10.141zm-.606-6.704a2.27 2.27 0 0 0-2.257 2.263c0 1.243 1.021 2.259 2.263 2.257 22.908-.027 41.712 17.033 39.841 40.602a2.27 2.27 0 0 0 2.073 2.432 2.27 2.27 0 0 0 2.432-2.073c2.075-26.146-19.16-45.51-44.353-45.48z"/></g><path d="M433.385 268.182c-8.474 4.529-24.817-.001-30.584 2.465-9.254-8.015-28.699 5.382-29.616-1.357-10.352-1.601-20.202 4.296-30.489 2.248-16.696 2.243-18.285-2.874-38.166-1.564-12.233-1.695-17.26 4.416-26.805 1.069-11.973-3.227-22.888 3.281-34.208-.264-13.51.133-26.819-.059-40.192.345-14.255.048-29.781-.008-43.778 1.534-11.158.374-25.911 1.711-38.266 1.205-8.202 1.584-19.544 2.928-28.623 4.82-19.586 1.522 12.466 5.028 20.857 3.061 4.711-1.105 4.892 3.754 4.398 3.881-48.615-8.105-43.021 8.23-19.588 8.633 10.577-3.183 7.965 1.841 14.288 1.13-1.621-3.742 3.268-8.171 8.742-6.835 2.213.966 7.236 5.41 12.153 3.957 6.578-1.943-.821 1.89.527 2.588 1.309.677 4.077-1.659 5.905-2.143.805-3.887 7.032-1.693 7.016-6.22 4.015.758 10.643 4.647 17.067-.93 3.667-.015 8.42 4.236 12.547 3.799 2.619-.277 21.871-4.653 24.958-3.402-5.612 10.419-46.419-.044-9.224 11.384 3.729 1.146 8.255-2.08 13.93-2.026-1.571 2.325 16.725-2.996 6.469-4.533 6.152-8.203 20.907-1.665 10.393 3.143 7.786.293 15.378.147 18.133-1.188 1.375-.666 1.454 2.759 3.192 3.303 7.296-.855 2.025-2.852 3.53-3.127 2.385-.437 20.109-1.564 27.057-1.489 1.288.014-7.396 3.307-6.986 4.668 11.734.309 10.732-4.337 15.623-5.662 3.022 6.611 26.909 7.588 22.957 1.132 1.177-5.105 12.794-.962 16.795 3.245 8.023 4.117 18.343.724 25.016-4.574 1.497 2.279 13.094 3.6 9.897 3.78-4.454.25 4.191 4.399 4.39.145 4.144-1.133 19.226-4.181 18.607 2.321 4.21 5.37 19.513-1.586 28.412 2.112 10.253-.003-3.021-8.477 3.997-5.712 4.88 3.051 21.008 6.129 30.482 2.041-7.633 4.768 16.406 5.182 28.369 2.214 3.334 2.042 27.212 4.303 16.085-.727-1.741-.216 14.809-3.517 20.277.341.922 4.013 5.474 3.986 16.53 1.832 8.148.039 16.372-6.787 20.66-3.791 5.94 3.04 8.501 8.337 17.202 5.535 2.849-1.606 21.296-3.693 24.36-3.013 1.027.228-13.024 2.814-12.108 3.094 5.394 1.646 9.504 3.65 14.19-1.984-1.587-7.483 19.617-.274 6.848-.123-2.207 7.415 18.87 2.583 24.554 2.495 3.947-2.238 1-4.423-3.454-2.548-4.093 1.723-9.379.772-9.65-.156-.004-.049 10.963-2.496 17.556-2.815 4.151-.201 5.393-3.266 3.837-3.634 2.658.728 4.398.079 5.359.532 1.483.698-1.002 1.839.156 2.035 7.269 1.231-3.025 1.014-7.261 2.949-1.176.537.022 2.321-.121 3.036 5.954 5.256 11.859-6.574 13.409-.698 6.533-.286 14.812-.646 18.119-5.93 4.973-1.856 11.37-11.314 13.366-7.99 6.665 1.47 11.404 6.614 17.986 2.052 2.986-11.099 13.657-2.491 19.856-9.006-5.228-5.02-9.954-3.125-16.719-2.41-4.174-4.577-19.613-3.497-27.704-1.729-8.707-4.001-16.007-3.672-25.199-3.904-3.452 3.25-9.479 1.293-15.529-.272-9.171-2.44-12.193 6.002-17.674 3.68-8.064-4.783-19.209-3.392-26.602-5.033-6.421 8.905-13.308.336-20.824.794-10.435.677-25.789 1.773-31.785-.075-7.701 4.343-17.235 5.816-20.998.586-9.082-2.447-26.081-.2-31.059-.377-10.103.747-19.519-.825-31.724-.948-2.304.428-7.626-1.103-11.127-.995zm-45.251 22.728c10.598 1.788-12.467.237 0 0zm-202.206-19.209c2.689.365-2.966.294 0 0zm273.664.001c9.839 1.488-2.372.408 0 0zm153.555 2.663c1.57.656-2.306.27 0 0zm-219.328 1.096c6.485-4.19 4.242 4.28 0 0zm-15.169.166c10.305 2.456-9.865 2.628 0 0zm-17.02 12.413c2.79 2.457-3.345.834 0 0zm293.988-9.751c5.384 4.067-5.174 6.467-8.365 2.933-1.947-1.979 6.594-2.127 8.365-2.933zm39.173 3.545c2.372.409-2.372.409 0 0zm-72.624.455c17.582 2.337-5.074 2.438 0 0zm-142.359 4.265c1.398-1.113 5.787-1.882 5.787-1.882 2.137-4.747 14.943-.027-5.787 1.882zm190.747-1.084c-.353.213-.893.668 0 0zm-518.697.627c3.239.329-3.237.331 0 0zm-52.773-.354c7.902 1.112-2.644 3.345 0 0zm420.687-.776c2.078 1.453 3.92 1.655 3.501 2.31-.456.714-3.488 1.46-4.318.786-.479-.389.634-1.407.817-3.096zm-374.892 2.197c1.567.657-2.306.269 0 0zm195.517-.17c.28 3.843-8.029 1.465 0 0zm-134.146 3.688c1.833 1.244-1.017 1.536 0 0zm464.953-1.738c-10.529 5.349 11.714 4.74 0 0zm-470.103 1.677c2.491.881-.92 1.852 0 0zm34.481-2.46c11.792 4.089-4.175 3.225 0 0zm174.982.638c13.7-.971-6.773 3.528 0 0zm156.809.529c1.47.214.958 2.196 2.14 2.279 13.459.944 9.986 4.669-3.202 4.037-11.286 5.214-10.587 1.048-2.183-.671 2.651-.542 2.941-5.108 3.246-5.645zm-356.753 1.719c1.016 1.536-1.831 1.244 0 0zm247.486-.96c-8.3 7.294-6.03-2.361 0 0zm49.838.775c-.998 2.951-14.289-.681 0 0zm107.976.502c14.854 1.867-5.926 2.894 0 0zm-327.115-1.865c3.379 1.582-5.881 1.51 0 0zm-123.356 2.714c-15.639 2.641 10.998 3.882 0 0zm476.105-1.516c2.635-4.623 4.308 1.256 0 0zm-352.172-4.877c3.495 1.981-3.776 1.09 0 0zm74.071 4.151c8.751-.328-2.378 2.449 0 0zm57.204 4.059c3.713.378-3.713 1.218 0 0zm-38.47 1.664c3.589.351-3.853.283 0 0zm51.647-9.735c11.73-1.081.09 2.966 0 0zm-106.042 10.273c2.793.58-2.958.167 0 0zm68.267 0c2.793.582-2.96.165 0 0zm92.864.534c2.374.41-2.376.407 0 0zm-28.825-9.213c2.609.86-4.488 2.585 0 0z" fill="url(#A)"/><path d="M114.323 252.218h-3.979q-16.514 0-24.473-3.581-7.859-3.581-10.446-11.54-1.293-3.78.796-6.168 2.089-2.388 6.367-2.388h4.875q1.89 0 3.183.696 1.094.497 3.382 2.189 2.288 1.691 2.686 1.99 3.382 1.89 13.629 1.89h3.979q8.556 0 12.236-1.393 3.78-1.393 3.78-4.676 0-2.388-2.487-3.183-2.686-.796-19.598-1.194h-1.194q-16.514-.398-24.97-5.273-3.382-1.89-5.372-5.074-2.885-4.775-2.885-11.441 0-11.441 8.257-17.012 8.456-5.571 28.751-5.571h3.979q16.216 0 23.975 3.581 7.859 3.382 10.446 11.54 1.194 3.78-.895 6.168-2.089 2.388-6.367 2.388h-4.875q-1.89 0-3.283-.597-.995-.497-3.183-2.189-2.089-1.791-2.786-2.189-3.084-1.791-13.032-1.791h-3.979q-9.749 0-13.331 1.194-3.482 1.094-3.482 4.477 0 1.791.995 2.686 1.094.895 3.283 1.492 2.089.398 5.074.497 1.194.099 3.084.099.895 0 3.581.099 2.786 0 3.88 0 19.2.597 28.154 3.979 4.079 1.492 5.969 4.477 1.89 2.786 2.388 5.372.597 2.487.597 7.461.099 11.838-8.058 17.31-8.158 5.472-28.651 5.671zm83.565-.099h-3.979q-18.205 0-27.059-5.074-4.079-2.587-6.267-7.063-3.78-7.959-3.78-23.677 0-10.048.995-16.415.995-6.466 4.676-11.142 3.78-4.377 11.142-6.267 7.461-1.99 20.294-1.99h3.979q18.404 0 26.263 4.377 7.76 4.278 9.749 14.723.696 3.88-1.393 6.168-1.99 2.189-6.068 2.189h-4.278q-2.288 0-3.88-.995-1.592-.995-2.288-1.99-.796-.995-2.388-3.88-1.393-2.089-4.775-2.885-3.382-.796-10.943-.796h-3.979q-11.341 0-14.226 2.089-2.786 1.99-2.885 8.257-.099.895-.099 8.556v4.576q0 2.288.099 3.78.099 1.194.398 3.084.895 3.581 1.691 4.278 1.592 1.89 4.974 2.587 3.482.696 10.048.597h3.979q7.561 0 10.844-.696 3.283-.796 4.676-2.885l2.388-3.78q2.189-2.984 6.267-2.984h4.278q4.178 0 6.168 2.288 2.089 2.288 1.194 6.168-2.089 10.247-10.048 14.624-7.859 4.178-25.766 4.178zm103.418-70.633h3.979q7.959 0 7.959 7.959v53.721q0 7.959-7.959 7.959h-3.979q-7.959 0-7.959-7.959v-18.603q-1.791.497-3.283.497h-23.577q-1.89 0-2.984-.398v18.504q0 7.959-7.959 7.959h-3.979q-7.959 0-7.959-7.959v-53.721q0-7.959 7.959-7.959h3.979q7.959 0 7.959 7.959v20.096q1.094-.398 2.984-.398h23.577q1.492 0 3.283.497v-20.195q0-7.959 7.959-7.959zm33.47 0c-5.306 0-7.959 2.653-7.959 7.959v54.02c0 5.173 2.653 7.846 7.959 8.058 24.168.967 66.856.588 66.856.588 8.301.304 10.044-16.512 10.044-16.512h32.83c0 8.857-1.943 15.526 6.912 15.526h4.874c8.404 0 8.543.004 8.205-12.152l.195-52.08c-1.857-3.847-2.912-5.407-7.289-5.407h-30.804c-28.474.288-28.24 30.473-35.727 55.067l-44.158-.038v-47.071c0-5.306-2.653-7.959-7.959-7.959zm109.03 14.653l.312 23.363c-6.035.265-28.388 0-28.388 0 6.171-23.03 4.784-23.363 28.077-23.363zm72.639 55.98h-3.979q-18.205 0-27.059-5.074-4.079-2.587-6.267-7.063-3.78-7.959-3.78-23.677 0-10.048.995-16.415.995-6.466 4.676-11.142 3.78-4.377 11.142-6.267 7.461-1.99 20.294-1.99h4.775q16.713 0 24.572 3.581 7.859 3.382 10.446 11.54 1.194 3.78-.895 6.168-1.99 2.388-6.267 2.388h-4.875q-1.89 0-3.283-.597-.995-.497-3.183-2.189-2.089-1.791-2.786-2.189-3.183-1.791-13.729-1.791h-4.775q-11.341 0-14.226 2.089-2.786 1.99-2.885 8.257-.099.895-.099 8.556v4.576q0 2.288.099 3.78.099 1.194.398 3.084.895 3.581 1.691 4.278 1.592 1.89 4.974 2.587 3.482.696 10.048.597h3.979q9.351 0 12.833-1.293 3.581-1.393 3.78-6.068h-8.456q-7.959 0-7.959-7.959 0-7.959 7.959-7.959h20.891q7.959 0 7.959 7.959l-.099 8.953q-.199 12.833-8.456 18.006-8.456 5.273-28.452 5.273zm56.517-.796c-5.306-.133-7.959-2.819-7.959-8.058v-53.92c0-5.239 2.653-7.925 7.959-8.058 19.764-.663 34.74-.73 50.326-.199 5.107.199 7.66 2.918 7.66 8.158v.995c0 5.372-2.719 7.959-8.158 7.76-13.132-.597-23.963-.464-37.89.398v9.55h33.114c5.306 0 7.959 2.653 7.959 7.959v.995c0 5.306-2.653 7.959-7.959 7.959H584.9v9.351c14.326.862 25.488.995 38.885.398 5.438-.199 8.158 2.388 8.158 7.76v.995c0 5.173-1.559 7.826-4.676 7.959-13.065.663-29.368.663-54.305 0zm80.618-.199h-3.979c-5.306 0-7.959-2.653-7.959-7.959v-53.82c0-5.306 2.62-7.992 7.859-8.058 11.208-.265 22.576-.199 36.172.199 10.611.398 17.774 2.819 21.488 7.262 3.449 3.78 5.04 9.465 5.173 15.42.302 13.534-15.447 17.731-15.447 17.731 3.478 1.681 10.311 12.755 15.291 20.228 4.131 6.199 5.681 8.996-4.353 8.996h-7.76c-4.51 0-7.395-1.426-8.655-4.278l-7.727-12.634c-3.328-5.195-5.439-7.063-9.55-7.362h-12.595v16.315c0 5.306-2.653 7.959-7.959 7.959zm7.959-52.726v11.54h24.035c3.847 0 5.77-1.923 5.77-5.77 0-3.581-1.923-5.505-5.77-5.77-8.357-.531-15.679-.531-24.035 0zM240.454 318.307v49.113h8.633v-13.411h25.163l10.606 13.411h14.376c-7.28-6.54-15.87-14.618-14.528-15.183 0 0 3.584-2.921 4.963-4.405 1.413-1.485 2.412-3.184 2.998-5.1.62-1.963.93-4.143.93-6.537 0-2.778-.431-5.267-1.292-7.47-.827-2.203-2.239-4.071-4.238-5.603-1.999-1.58-4.653-2.778-7.961-3.592-3.274-.814-7.358-1.221-12.252-1.221zm8.633 8.98h18.765c3.171 0 5.841.191 8.013.574 2.206.335 3.98.886 5.324 1.652 1.344.718 2.309 1.652 2.895 2.802.586 1.101.878 2.394.878 3.879s-.292 2.777-.878 3.879-1.551 2.035-2.895 2.802c-1.344.718-3.119 1.269-5.324 1.652-2.171.335-4.842.503-8.013.503h-18.765zm126.525 40.133h-10.375l-7.301-12.215h-29.299l-7.256 12.215h-10.375l26.782-44.329c4.123-6.871 6.937-6.871 11.005 0zm-42.371-19.889h20.152l-10.008-16.906zm58.514-29.223h21.097c5.525 0 10.314.593 14.365 1.78 4.093 1.146 7.469 2.783 10.129 4.911 2.701 2.128 4.686 4.707 5.955 7.735 1.31 3.029 1.965 6.405 1.965 10.129s-.655 7.101-1.965 10.129c-1.269 2.988-3.254 5.566-5.955 7.735-2.66 2.128-6.037 3.786-10.129 4.973-4.052 1.146-8.84 1.719-14.365 1.719h-21.097zm21.097 41.439c7.326 0 12.851-1.473 16.576-4.42s5.587-7.101 5.587-12.462c0-5.28-1.883-9.413-5.648-12.401-3.724-2.988-9.229-4.482-16.514-4.482h-10.844v33.765zm50.368 7.673v-49.113h10.252v49.113zm58.962 0c-5.198 0-8.023.634-12.034-.553-4.011-1.228-7.387-2.947-10.129-5.157-2.701-2.251-4.748-4.973-6.139-8.165s-2.087-6.753-2.087-10.682.696-7.49 2.087-10.682a21.35 21.35 0 0 1 6.139-8.104c2.742-2.251 6.119-3.97 10.129-5.157 4.011-1.228 6.836-.614 12.034-.614s7.68-.614 11.691.614c4.011 1.187 7.367 2.906 10.068 5.157a21.09 21.09 0 0 1 6.2 8.104c1.391 3.193 2.087 6.753 2.087 10.682s-.696 7.49-2.087 10.682-3.458 5.914-6.2 8.165c-2.701 2.21-6.057 3.929-10.068 5.157-4.011 1.187-6.493.553-11.691.553zm0-7.674c7.367 0 10.729-.286 14.331-3.315 3.643-3.07 5.464-7.592 5.464-13.567 0-5.934-1.821-10.436-5.464-13.506-3.602-3.07-6.964-3.376-14.331-3.376s-11.092.307-14.735 3.376c-3.602 3.07-5.402 7.572-5.402 13.506 0 5.975 1.801 10.498 5.402 13.567 3.643 3.029 7.368 3.315 14.735 3.315z" fill="#fff"/></svg>