<?xml version="1.0" encoding="UTF-8"?>
<svg width="800" height="207.81" version="1.1" xmlns="http://www.w3.org/2000/svg" xmlns:xlink="http://www.w3.org/1999/xlink">
	<defs>
		<filter id="filter3-9" x="-.0037553" y="-.00386" width="1.0075" height="1.0077" color-interpolation-filters="sRGB">
			<feGaussianBlur result="blur" stdDeviation="0.05 0.05"/>
		</filter>
		<linearGradient id="linearGradient4" x1="10.219" x2="22.515" y1="32.17" y2="20.207" gradientTransform="translate(86.419 -8.8503)" gradientUnits="userSpaceOnUse">
			<stop stop-color="#1d71b8" offset="0"/>
			<stop stop-color="#9300ff" offset=".33042"/>
			<stop stop-color="#ec6608" offset="1"/>
		</linearGradient>
	</defs>
	<g>
		<path d="m30.72 71.12q0.09911 4.162 2.3783 7.5312 2.3783 3.2701 6.1439 6.243 3.8647 2.9729 8.7204 5.8466 4.8557 2.7747 9.9095 5.9457 5.153 3.0719 10.009 6.7385 4.8557 3.6665 8.7204 8.324 3.8647 4.6575 6.243 10.504 2.3783 5.8466 2.5765 13.279v0.79276q0 8.1258-1.9819 14.171-1.9819 6.0448-5.252 10.405-3.2701 4.3602-7.6303 7.2339-4.3602 2.7747-9.2159 4.4593-4.7566 1.6846-9.7113 2.3783-4.8557 0.69366-9.2159 0.79277h-0.99095q-8.4231 0-14.765-1.6846-6.3421-1.6846-10.9-4.4593-4.5584-2.8738-7.6303-6.5402-2.9729-3.6665-4.7566-7.5312-1.7837-3.9638-2.5765-7.8285-0.79276-3.8647-0.79276-7.234 0-3.4684 1.1891-6.0448 1.1891-2.5765 3.072-4.162 1.9819-1.6846 4.4593-2.4774 2.5765-0.79278 5.3511-0.79278 2.5765 0 5.252 0.79278 2.7747 0.79276 4.9548 2.4774 2.2792 1.5855 3.6665 4.162 1.4864 2.4774 1.5855 5.8466 0.19819 7.4322 3.3692 10.207 3.171 2.6756 9.1168 2.6756 2.9729-0.0991 5.4502-0.69369 2.5765-0.69367 4.3602-2.2792 1.7837-1.6846 2.7747-4.3602 1.09-2.7746 1.09-6.9367 0-5.153-2.3783-9.315-2.2792-4.162-6.0448-7.7294-3.7656-3.5674-8.6213-6.7385-4.8557-3.2701-9.9095-6.4412-5.0539-3.2701-9.9095-6.7385-4.7566-3.5674-8.6213-7.7294-3.8647-4.162-6.243-9.2159-2.2792-5.0539-2.3783-11.495v-1.5855q0.099095-10.603 2.7747-17.639 2.7747-7.0358 8.0267-11.198 5.3511-4.162 13.081-5.8466 7.7294-1.7837 17.738-1.7837h2.5765q9.1168 0 15.459 1.9819 6.3421 1.9819 10.504 5.0539 4.2611 3.072 6.6394 6.9367 2.4774 3.8647 3.6665 7.6303 1.1891 3.7656 1.4864 7.0358 0.29728 3.2701 0.29728 5.252 0 2.9729-1.1891 5.4502-1.09 2.3783-3.072 4.0629-1.8828 1.6846-4.5584 2.6756-2.5765 0.89186-5.6484 0.89186-2.3783 0-4.7566-0.89186-2.3783-0.99096-4.2611-2.4774-1.8828-1.4864-3.072-3.3692-1.1891-1.9819-1.1891-3.9638 0-8.1258-2.9729-11.297-2.8738-3.171-8.5222-3.171-2.6756 0-5.252 0.29728-2.4774 0.29729-4.4593 1.6846-1.8828 1.2882-3.072 4.0629-1.09 2.7747-1.09 7.8285zm122.52-34.882q3.9638 0 8.0267 0.29728 4.0629 0.29729 7.3331 1.6846 3.2701 1.3873 5.3512 4.2611 2.081 2.7747 2.081 7.8285 0 5.0539-2.081 7.9276-2.081 2.7747-5.3512 4.162-3.2701 1.3873-7.3331 1.6846-4.0629 0.29728-8.0267 0.29728h-23.585v26.954h12.486q3.9638 0 7.9276 0.29728 4.0629 0.19819 7.1348 1.5855 3.1711 1.2882 5.153 4.0629 1.9819 2.6756 1.9819 7.5313 0 4.9547-1.9819 7.6303-1.9819 2.6756-5.153 4.0629-3.0719 1.2882-7.1348 1.5855-3.9638 0.19818-7.9276 0.19818h-12.486v28.539h23.585q3.9638 0 8.0267 0.29727 4.0629 0.2973 7.3331 1.6846 3.2701 1.2883 5.3512 4.162 2.081 2.7746 2.081 7.7294 0 5.1529-2.1801 8.0267-2.081 2.8738-5.3512 4.2611-3.2701 1.3873-7.3331 1.6846-4.0629 0.29729-7.9276 0.29729h-38.845q-5.5494 0-8.6213-1.9819-2.9729-1.9819-4.3602-5.153-1.3873-3.2701-1.6846-7.333-0.19819-4.0629-0.19819-8.324v-93.15q0-4.2611 0.19819-8.324 0.2973-4.0629 1.6846-7.234 1.3873-3.2701 4.3602-5.252 3.0719-1.9819 8.6213-1.9819zm38.094 22.594q0-4.2611 0.19818-8.324 0.29731-4.0629 1.6846-7.2339 1.3873-3.171 4.3602-5.0539 3.0719-1.9819 8.6213-1.9819h32.701q12.189 0.59457 21.801 5.153 4.0629 1.9819 7.9276 4.9548 3.9638 2.8738 7.0358 7.234 3.0719 4.2611 4.9547 10.108 1.8828 5.8466 1.8828 13.576 0 1.5855-0.29726 4.2611-0.2973 2.5765-1.2882 5.7475-0.99095 3.072-2.6756 6.4412-1.6846 3.3692-4.4593 6.4412-2.7747 3.072-6.8376 5.6484-3.9638 2.5765-9.4141 4.162 3.4683 1.3873 7.0358 3.6665 3.5674 2.1801 6.4412 5.6484 2.8738 3.4684 4.6575 8.324 1.8828 4.8557 1.8828 11.297v14.072q0 1.1891 0.59455 1.9819 0.59458 0.79275 1.1892 1.3873 2.3783 2.3783 2.7746 4.162 0.39638 1.6846 0.39638 2.7747 0 3.4683-1.3873 5.8466-1.3874 2.3783-3.6665 3.8647-2.1801 1.4864-5.0539 2.081-2.7747 0.69371-5.7475 0.69371-3.2701 0-6.6394-0.99097-3.3692-1.09-6.1439-3.072-2.7747-1.9819-4.5584-4.9548-1.6846-2.9728-1.6846-6.8376v-21.008q0-4.3602-0.59458-8.0268-0.59456-3.6665-2.2792-6.3421-1.6846-2.6756-4.6575-4.162-2.9729-1.4864-7.7294-1.4864h-11.099v33.098q0 4.3602-0.2973 8.5222-0.19818 4.162-1.5855 7.4321-1.3873 3.1711-4.4593 5.153-3.072 1.8828-8.7204 1.8828-5.5493 0-8.6213-1.8828-2.9729-1.9819-4.3602-5.153-1.3873-3.2701-1.6846-7.4321-0.19818-4.162-0.19818-8.5222zm43.404 37.854q4.9548-0.19819 8.9186-2.3783 1.6846-0.89186 3.2702-2.2792 1.5855-1.3873 2.8738-3.4683 1.2882-2.081 1.9819-4.8557 0.79277-2.7747 0.79277-6.4412 0-3.2701-0.79277-5.7475-0.69367-2.5765-1.8828-4.4593-1.1892-1.8828-2.7747-3.171-1.4864-1.2882-3.0719-2.081-3.7657-1.8828-8.5222-2.1801h-14.27v37.062zm66.237-37.656q0-4.2611 0.39637-8.324 0.49548-4.0629 2.081-7.234 1.6846-3.2701 4.9547-5.252 3.2702-1.9819 9.0177-1.9819 5.7475 0 9.0176 1.9819 3.2701 1.9819 4.8557 5.252 1.6846 3.171 2.081 7.234 0.49547 4.0629 0.49547 8.324v93.15q0 4.3602-0.39637 8.4231-0.39641 4.0629-2.081 7.333-1.5855 3.1711-4.9548 5.153-3.2702 1.8828-9.0176 1.8828-5.7475 0-9.0177-1.8828-3.2701-1.9819-4.9547-5.153-1.5856-3.2701-2.081-7.333-0.39637-4.0629-0.39637-8.4231zm110.83-22.792q3.9638 0 8.0267 0.29728 4.0629 0.29729 7.333 1.6846 3.2701 1.3873 5.3511 4.2611 2.081 2.7747 2.081 7.8285 0 5.0539-2.081 7.9276-2.081 2.7747-5.3511 4.162-3.2701 1.3873-7.333 1.6846-4.0629 0.29728-8.0267 0.29728h-23.585v26.954h12.486q3.9638 0 7.9276 0.29728 4.0629 0.19819 7.1349 1.5855 3.171 1.2882 5.153 4.0629 1.9819 2.6756 1.9819 7.5313 0 4.9547-1.9819 7.6303-1.9819 2.6756-5.153 4.0629-3.072 1.2882-7.1349 1.5855-3.9638 0.19818-7.9276 0.19818h-12.486v28.539h23.585q3.9638 0 8.0267 0.29727 4.0629 0.2973 7.333 1.6846 3.2701 1.2883 5.3511 4.162 2.081 2.7746 2.081 7.7294 0 5.1529-2.1801 8.0267-2.081 2.8738-5.3511 4.2611-3.2702 1.3873-7.3331 1.6846-4.0629 0.29729-7.9276 0.29729h-38.845q-5.5493 0-8.6213-1.9819-2.9729-1.9819-4.3602-5.153-1.3873-3.2701-1.6846-7.333-0.19818-4.0629-0.19818-8.324v-93.15q0-4.2611 0.19818-8.324 0.29729-4.0629 1.6846-7.234 1.3873-3.2701 4.3602-5.252 3.072-1.9819 8.6213-1.9819zm114.79 97.708h2.3783v-82.249q0-3.171 0.39637-5.9457 0.39639-2.8738 1.6846-4.9548 1.3873-2.081 3.9638-3.2701 2.6756-1.2882 7.234-1.2882 5.0539 0 7.9276 1.2882 2.9729 1.1891 4.4593 3.2701 1.4864 2.081 1.8828 4.9548 0.39638 2.7747 0.39638 5.9457v100.48q0 4.3602-0.2973 8.4231-0.19816 4.0629-1.5855 7.333-1.2882 3.1711-4.3602 5.153-2.9728 1.8828-8.4231 1.8828h-13.081q-4.6575 0-7.8286-1.7837-3.0719-1.8828-5.153-4.4593-2.081-2.6756-3.3692-5.5493-1.1892-2.8738-1.8828-4.8557l-29.927-81.06h-2.3783v82.249q0 3.171-0.39638 6.0448-0.39638 2.7747-1.7837 4.8557-1.2882 2.081-3.9638 3.3692-2.5765 1.1891-7.1348 1.1891-5.153 0-8.1258-1.1891-2.9728-1.2882-4.4593-3.3692-1.4864-2.081-1.8828-4.8557-0.39636-2.8738-0.39636-6.0448v-100.48q0-4.2611 0.1982-8.324 0.29727-4.162 1.6846-7.3331 1.3874-3.2701 4.3602-5.153 3.0719-1.9819 8.6213-1.9819h13.081q4.9547 0 8.0267 1.9819 3.171 1.8828 5.153 4.162 2.1801 2.6756 3.4683 6.1439z" fill="#fff"/>
		<path d="m818.59 58.499q0-4.3098 0.40091-8.4191 0.40089-4.1093 1.9043-7.3166 1.6037-3.3075 4.6105-5.3121 3.0068-2.0045 8.3189-2.0045 5.2118 0 8.2187 2.0045 3.107 2.0045 4.6104 5.3121 1.6036 3.2073 2.0046 7.3166 0.40093 4.1093 0.40093 8.4191v31.471h27.462v-31.471q0-4.3098 0.40092-8.4191 0.40092-4.1093 1.9043-7.3166 1.6036-3.3075 4.6104-5.3121 3.0068-2.0045 8.3189-2.0045 5.2118 0 8.2187 2.0045 3.1071 2.0045 4.6105 5.3121 1.6036 3.2073 2.0046 7.3166 0.40088 4.1093 0.40088 8.4191v94.214q0 4.41-0.40088 8.5193-0.40092 4.1093-2.0046 7.4168-1.5034 3.2073-4.6105 5.2118-3.0068 1.9043-8.2187 1.9043-5.3121 0-8.3189-1.9043-3.0068-2.0046-4.6104-5.2118-1.5034-3.3075-1.9043-7.4168-0.40092-4.1093-0.40092-8.5193v-33.276h-27.462v33.276q0 4.41-0.40093 8.5193-0.4009 4.1093-2.0046 7.4168-1.5034 3.2073-4.6104 5.2118-3.0068 1.9043-8.2187 1.9043-5.312 0-8.3189-1.9043-3.0068-2.0046-4.6105-5.2118-1.5034-3.3075-1.9043-7.4168-0.40091-4.1093-0.40091-8.5193zm148.49-23.052q9.1207 0 16.938 2.3052 7.918 2.3052 13.731 6.9157 5.9135 4.5102 9.221 11.326 3.4076 6.8155 3.4076 15.936v62.141q0 7.8177-1.704 13.831-1.7036 5.9134-4.5101 10.323-2.706 4.3098-6.214 7.4168-3.508 3.0068-7.1162 4.9112-8.6196 4.6105-19.544 5.2118h-33.276q-5.713 0-8.82-1.9043-3.107-2.0046-4.5102-5.2118-1.4032-3.3075-1.7038-7.4168-0.20046-4.1093-0.20046-8.5193v-94.414q0-4.3098 0.20046-8.4191 0.30068-4.1093 1.7038-7.3166 1.4032-3.2073 4.5102-5.1116 3.1071-2.0045 8.82-2.0045zm-13.831 23.453v93.011h13.03q4.3098-0.20044 7.7175-2.0045 1.4032-0.7016 2.8063-1.9043 1.4032-1.2028 2.5057-2.8064 1.1025-1.7039 1.7038-4.0091 0.7016-2.3052 0.7016-5.3121v-59.134q0-3.3075-0.7016-5.8132-0.60138-2.6059-1.7038-4.5102-1.1025-1.9043-2.5057-3.2073-1.4032-1.303-2.8063-2.1048-3.4077-1.9043-7.7175-2.205z" display="none" fill="#ec6608"/>
		<path transform="matrix(6.6333 0 0 6.6333 .0010516 0)" d="m99.105 30.394-1.9082-0.81402-2.1946-1.4913-4.2826-4.7939-1.7252-3.4135-0.46522-4.1502 0.80641-5.1225 1.6852-3.3139 2.9724-4.2117 1.5894-0.97236 2.0495-1.3488 4.6173-0.64221 2.6422 0.3819 2.4482 0.60158 2.032 1.9735h0.61066v0.56356l0.39402-0.1512 0.39403-0.1512 5.5497 5.1207 2.1154 2.7906 1.6522 4.1912 0.39654 2.7196-0.49155 1.6947-0.49154 1.6947-0.93687 2.0014-1.6 1.7646v0.52339l0.87273-0.7243v0.55473l-4.2182 4.0797-1.1636 0.60982-4.0727 0.71877-7.3695 0.13054zm8.8413 0.02809 0.43637-0.282h-2.0364l0.43637 0.282 0.43636 0.282h0.29091zm1.3375-2.6951 0.21403-0.21402h1.6311l3.599-1.8289 1.112-1.0046 1.112-1.0046 1.2606-2.0398 0.12263-2.1291 0.12264-2.1291-0.95044-2.8095-1.7915-3.2-0.53896-1.0288-0.53895-1.0288-2.7643-2.7077-3.418-2.0478-3.7334-1.2424-3.6122-0.08368-3.2 0.99016-1.7455 1.7199-1.4545 1.9146-0.67694 1.7691-1.0113 2.6182-0.13419 2.6487-0.13419 2.6487 0.69466 1.298 0.16456-0.16456 0.16456-0.16456 1.3267 2.8636 1.3209 1.7866 4.234 3.243 3.0694 1.1675 2.3273 0.43989 3.0144-0.06594zm-3.9557-2.6648v-0.42546l-0.84189-0.49731-0.84188-0.49732-0.1731-1.0464-0.17309-1.0464-3e-3 -1.3818-3e-3 -1.3818-6.2545-9e-3 -0.32819-0.21364-0.32819-0.21373 0.121-3.3434 0.19044-0.19044 0.19045-0.19044-1.0092-0.7663 1.4903-0.0186 0.56394-0.50909 0.56395-0.50909 4.3256-0.1775 0.2372-0.1466 0.23721-0.1466v-3.9908l0.17658-0.46016 0.17658-0.46016h1.3634l0.52072-0.93047 2.3631 1.2056 0.89152 2.4885 0.1767 1.3534 0.17669 1.3534 5.1808 0.20233 0.7557 0.76844-1.6526-0.40834 0.76312 1.222 1.6167 0.35509v0.53559h-0.62805l0.35918 1.6353-1.0402 0.90642-4.9418 0.39277-0.51684 0.51683-0.0923 1.1107-0.0924 1.1107-0.34288 2.3855-0.78871 0.73342-0.78872 0.73342-1.6 0.37694zm4.0727-21.518v-0.11433l-0.45148-0.17325-0.45147-0.17325 0.17773 0.28758 0.17774 0.28758h0.54748z" fill="url(#linearGradient4)" filter="url(#filter3-9)" stroke-width=".15076"/>
	</g>
</svg>
