<svg xmlns="http://www.w3.org/2000/svg" width="641.978" height="285.127" xmlns:v="https://vecta.io/nano"><path d="M382.545 73.773a38.25 38.25 0 0 0-4.029.205c-17.8 1.893-29 15.262-36.4 24.115l-.05.06-.04.074c-2.5 5.013-4.445 8.68-6.873 13.074-5.8 10.45-14.38 26.3-21.424 36.383l-1.56 2.246c-1.873 2.73-4.515 5.695-6.363 7.94-6.144 7.47-11.1 10.22-19.148 10.672-10.973-8.86-2.7-30.07 2.145-40.213l.754-1.584c20-7.8 32.673-14.865 41.314-31.5 1.798-2.32 2.458-5.276 1.8-8.1a9.17 9.17 0 0 0-4.69-6.068c-2.597-.848-5.235-1.275-7.857-1.275-8.037 0-15.9 3.35-18.867 5.758-10.973 8.905-17.74 21.96-24.12 35.393-1.943.515-3.723 1.186-5.445 1.848-1.308.5-2.654 1.006-4.037 1.434l-.422.13-.08.398c-.385 1.848-.164 3.25.7 4.27 1 1.22 2.7 1.653 4.4 1.842-2.56 5.645-5.83 21.108-4.3 32.396.423 3.075 1.66 7.553 3.785 10.086 2.465 2.93 5.05 5.622 9.54 6.3 1.754.264 3.495.4 5.174.4 14.87 0 23.914-10.464 31.9-19.695 2.194-2.54 5.8-9.5 7.94-11.627-1.396 7.37-1.666 17.666.88 25.23l.1.32.346.125 1.662.584c2.175.756 4.426 1.535 6.143 2.7l1.088.725.113-1.238c.094-1.03.624-1.654 1.246-2.363.453-.522.923-1.066 1.238-1.795l.03-.074.014-.074c.88-4.874 1.37-10.358 1.855-15.672.617-6.822 1.258-13.853 2.703-19.928l.977.54.803.258.176-.768c.65-2.684 1.234-5.47 1.8-8.162 1.736-8.256 3.54-16.8 7.215-23.58 1.742-3.226 4.314-5.986 6.797-8.66 1.458-1.558 2.955-3.174 4.238-4.834 1.74-.567 3.194-1.583 4.73-2.66.993-.7 2.03-1.434 3.15-2.025 3.12-1.635 6.35-2.4 9.77-3.232l1.654-.395c.913-.226 1.76-.597 2.576-.955 1.16-.504 2.247-.984 3.436-1.04l.338-.006c1.793 0 3.25.692 4.8 1.428 1.346.642 2.742 1.3 4.48 1.6l.873.146.02-.826c.05-3.3-2.712-4.928-5.152-6.375-1.383-.824-2.815-1.68-3.703-2.78l-.174-.227-.305-.05c-2.747-.435-6.035-.88-9.602-.88zm45.1 1.88l-.2.145c-15.702 11.144-23.827 29.28-31.687 46.816l-6.623 14.236-.043.082-.02.088c-.672 3.597-2.294 8.244-4.12 11.898-.665-3.094-.338-6.127-.018-9.082.276-2.552.566-5.187.195-7.816-.107-.8-.46-1.477-.8-2.137l-.654-1.598c-.44-2.25-.322-4.63-.195-7.15.12-2.522.252-5.132-.156-7.854l-.227-.785-1.176-.498-.05-.006c.15-1.968-.006-3.673-.15-5.314-.1-1.112-.202-2.252-.207-3.46v-.527l-.547-.145c-3.565-.945-1.944-6.66-1.076-9.73l.145-.502.15-.56-.56-.246-.84-.412c-.888-.447-1.8-.912-3.04-.912a6.04 6.04 0 0 0-1.754.283l-.36.1-.12.332c-5.816 15.7-7.684 39.812-5.117 66.12.754 7.727 1.942 14.815 8.13 16.72l.197.063.2-.043c1.333-.264 2.56-.3 4.12-.316 1.535-.037 3.283-.067 5.6-.338l.2-.03.158-.107c.806-.565 1.313-1.327 1.8-2.062l.164-.252.654.088 1.5-.572c5.697-6.357 8.482-15.086 11.174-23.53 1.264-3.973 2.577-8.08 4.137-11.846l.787-1.334c1.943-3.24 4.112-6.88 4.074-10.6.483-.043 1.113-.28 1.598-1.074.68-1.112.867-3.1.584-4.1 1.578-3.6 3.4-7.043 5.188-10.4l3.057-5.873c1.276-3.697 3.427-6.723 5.502-9.646 2.17-3.05 4.413-6.213 5.746-10.174l.104-.314-.2-.277-.543-.723c-.873-1.144-1.503-1.974-.836-3.697l.37-.937h-3.98zm96.693 1.9c-1.522 0-3.025.24-4.617.5l-2.066.303-.365.043-.2.297c-7.192 11.558-9.35 17.262-14.852 29.12-8.17 17.6-14.2 30.873-26.457 45.625l-.1.115-.145.082c-.823.396-2.043 1.206-2.94 1.785-1.283.816-2.675 1.174-3.44 1.3l-.27.045-1.508.156-2.553.385 1.86-2.207a99.87 99.87 0 0 1 1.283-2.725c1.057-2.175 2.144-4.426 2.805-6.834.162-.592 2.823-6.1 3.012-6.924.132-.622 1.735-6.237 2.553-8.797.843-2.654 2.347-6.948 2.932-9.8l1.238-5.873c1.47-6.765 2.985-9.974 3.477-16.268.1-1.107.112-2.2.125-3.256l.008-.252c.025-2.14 1.282-4.095.805-6.05-.157-.617 1.3-2.4 1.326-3.205.068-2.27-.076-4.342-2.768-4.73l-.207-.025-.2.076-.803.37c-2.283 1.264-4.662 3.35-5.453 5.465-.584 1.528.14.188-1.3.62l-.27.082-.15.227c-2.37 3.635-5.15 6.044-5.785 9.912-.4 2.358-.8 3.8-1.553 5.998-.736 2.226-1.165 1.452-2.277 3.967-1.647 3.73-4.7 9.6-5.375 13.18-.146.75-.012 4.98-.465 5.785-.768 1.378-4.17 10.616-5.348 14.018-2.9 8.42-6.425 13.57-11.613 20.035l-.416.5-.6-.342c-8.05-4.615-10.037-15.267-6.074-32.56 1.3-5.647 3.867-12.583 5.37-15.268.722-1.3.174-2.125-.3-2.633l-.326-.348.213-.408c.283-.56 1.804-3.415 3.8-4.768l.295-.2.012-.326c.315-5.78 3.428-12.204 7.754-15.984l.32-.283-.1-.402c-.132-.44-.188-.963-.258-1.572-.12-1.07-.26-2.295-.994-3.074l-.14-.152-.213-.062-.178-.05c-.8-.234-1.8-.523-2.98-.523-.968 0-1.923.207-2.828.617-1.7.76-6.252 5.9-7.943 8.678l-.3 1.6-.012.592-.014.107-.057.1c-.3.592-.773 1.132-1.238 1.654-.445.522-.923 1.06-1.28 1.678-.423.75-.744 1.504-1.1 2.38-.232.547-.464 1.113-.746 1.697l-.484 1.006c-3.886 8-9.22 18.947-11.168 28.027-2.743 12.74-1.34 29.843 8.225 37.28 2.918 2.27 6.943 3.465 11.652 3.465 7.244 0 11.714-.987 16.13-4.502 0 0 1.5.844 2.207 1.05 2.754.818 2.56 1.426 3.898 2.105 0 0 6.823-.566 9.6-1.05 3.905-.692 6.293-3.145 10.475-6.453l.164-.125.445-.5c.547-1.6 1.945-.885 3.102-2.25.64-.76 1.554-1.3 2.246-2.113 8.52-10.1 13.9-21.487 19.404-33.7l5.445-11.76.78-1.6.625 1.666c1.993 5.346 5.544 9.7 8.984 13.94 5.816 7.15 13.683 13.57 11.922 24.53l-.025.113-.05.096c-.44.816-.95 1.545-1.578 2.438-.818 1.164-1.667 2.37-2.234 3.86l-.057.15-.125.115c-7.602 6.986-18.393 13.556-25.2 16.713l-.893.422c-1.24.585-2.93 1.383-3.943 1.734-6.873 2.4-11.22 5.113-11.73 6.666l1.094.598 2.807.012c.458.208 4.458-.818 6.564-.818v.002l4.314 1.232c4.874 0 2.904-.082 6.04-1.156l.145-.082c.824-.453 1.673-.873 2.334-.873 1.918 0 5.98-2.66 10.352-3.428 3.5-.617 5.885-2.9 8.1-3.816l.7-.3c7.823-3.194 13.018-7.363 16.695-13.625 2.848-4.868 3.584-12.183 1.875-18.64l-.78-3.156c-.63-2.684-1.124-4.808-2.547-7.4l-.15-.283-.32-.08c-.843-.202-1.396-.7-1.98-1.27l-.102-.102-.05-.133c-1.918-4.608-6.974-7.293-9.842-10.537-1.27-1.428-2.577-2.9-3.855-4.56-3.45-4.508-6.174-9.162-6.3-10.318-.134-1.396.35-2.86.873-4.44.766-2.314 1.56-4.702.383-7.117l-.1-.232.066-.246c.736-2.5-.37-.843.523-2.955 1.453-3.453 1.452-4.257 1.994-9.232l.05-.484-.48-.22c-1.264-.572-2.66-.85-4.264-.85zM321.166 89.475c-5.037 9.74-14.2 17.67-24.645 22.97 6.1-12.854 14.8-23.053 24.645-22.97zm239.58 26.62v10.3h10.582v45.232h13.477v-45.232h9.62l16.053 45.232h11.03l18.9-55.543h-14.104l-8.23 26.518c-1.082 3.244-1.358 6.413-2.074 9.645h-.184c-.817-3.162-1.27-6.325-2.447-9.494l-8.137-26.668zm-124.48 80.5c-13.287-.085-26.512.32-39.693 1.238-20.123 1.4-50.904 3.496-70.768 6.27-40.466 5.64-69.2 9.206-108.096 16.418-18.864 3.508-37.804 8.174-56.467 12.7-18.77 4.552-37.6 8.77-55.514 14.6-18.23 5.943-36.677 11.508-54.813 15.123-9.232 1.843-18.57 4.15-27.412 7.564-4.194 1.622-7.77 4.057-11.9 6.445C7.86 279.142-.465 280.9.02 284.357c.485 3.465 31.3-5.578 45.3-10.805 14.294-5.326 28.246-10.633 44.043-13.633 1.6-.283-.85 1.938 1.352 1.48 3.635-1.547 6.672-2.038 10.445-1.963 3.86.077 8.928-2.113 13.87-3.54 4.597-1.326 9.327-2.74 13.867-3.53 10.15-1.786 20.242-4.925 28.768-6.082 1.982-.27 3.558.345 5.143-.076 1.836-.478 3.44-2.176 5.326-2.346 1.25-.112 2.66.724 3.988.762 2.734.082 5.665-1.58 8.615-2.1l24.598-4.566c12.018-2.438 23.268-3.113 35.674-5.094 5.12-.8 10.13-2.577 15.33-3.428 15.192-2.5 23.795-3.017 37.787-4 2.314-.17 4.627-1.485 7.117-1.762 5.244-.58 11.508-.4 17.344-.982 3.722-.37 18.568.115 20.568.2 1.107.037 2.25-1.025 3.4-1.125 1.025-.077 2.516.74 3.62.736 3.686-.012 7.516-2.2 10.805-1.937 1.848.15 3.32 1.3 5.043 1.3 2.025 0 4.25-1.233 6.352-1.357 10.563-.6 22.82 1.948 34.113.754 1.96-.207 4.03-1.285 5.986-1.385 1.83-.087 3.646.66 5.482.416 1.517-.2 2.963-1.478 4.516-1.5 4.12-.025 7.547 2.214 11.627 1.8 1.585-.157 3.233-1.358 4.887-1.465 2.226-.14 4.288 1.162 6.54.955 1.182-.114 2.742-1.25 3.8-1.54 9.105-2.547 24.486-1.346 25.852-1.717 1.585-.428 36.46 1.558 52.273 3.508 8.175-.925 19.405 2.112 28.02 3.5 5.577-1.592 14.707 1.746 18.996 1.438-3.22.48 4.712 2.335 7.496 2.87 3.3.635 48.42 12.512 48.42 12.512l-6.213-4.475 6.213-.674-17.156-7.207 32.764 8.238-44.6-17.482c-20.633-7.394-49.527-14.765-72.316-15.13-30.04-4.592-59.573-7.137-88.805-7.324z" fill="#e4e4e4"/><path fill="#bd141d" d="M187.6 209.17c-7.06 1.2-24.46 4.68-40.785 2.585-15.715-2.025-44.427-9.38-53.644-22.058-4.14-5.684-10.527-13.8-12.86-23.217-.257-6.866-2.76-17.688-.615-23.8 3.968-22.142 20.078-37.68 37.842-47.615 3.105-2.993 6.747-4.37 11.998-5.503 6.57-1.413 12.695-5.702 22.46-4.766-.378 1.975-.485 4.2-.4 6.604-8.577 1.78-15.6 5.023-21.292 9.538-5.206 3.012-14.1 11.77-17.205 15.746-3.087 3.968-7.413 11.362-9 14.173-2.963 5.313-3.37 9.157-4.874 19.45-.038 1.428 1.358 10.683 3.6 14.463 8.433 18.8 21.625 29.648 44.138 33.4 3.533-.535 4.677 1.2 8.125.73-4.246-2.665-8.226-3.7-11.823-6.9-8.155-7.264-15.946-22.752-16.43-35.66-1.082-28.36 16.3-49.362 37.17-55.764.202 1.282 1.05 7.627 1.654 8.526-1.717.818-1.276 4.642-3.114 5.346.574 4.515-7.023 5.413-6.2 10.162-5.32 6.948-7.76 9.846-11.098 18.663.112.963-1.102 3.9-1.843 4.057.6 5.8-.88 12.028 1.226 16.832 5.062 20.777 26.964 31.732 57.97 23.53 12.3-3.25 22.903-8.777 32.334-17.95 4.855-4.73 11.212-11.132 13.35-18.406 3.615-12.33-8.886-26.72-15.167-33.36-7.968-8.408-19.582-15.425-30.43-23.085-14.438-10.205-28.46-20.876-27.177-45.248.3-5.433 4.552-13.973 6.98-17.752 7.558-11.74 18.404-17.533 32.616-23.965 5.76-2.602 12.262-4.344 19.135-5.66C240.158 1.13 248.512.077 254.918 0h1.392c5.88.07 11.88 1.34 16.165 2.54 8.77 4.9 10.848 4.488 9.622 17.1-3.37 9.483-8.993 15.682-18.368 20.67-5.697 3.03-9.38 4.672-15.695 6.533-3.037.893-6.207 2.547-9.955 3.26-5.597 1.068-7.067.627-15.752.396-1.17-.768-.535-2.766-.535-2.766l-6.105-3.78 1.9-3.886c5.012.296 8.923.535 18.966-2.458 8.955-2.667 14.5-5.383 22.185-11.075 4.528-3.35 6.478-1.6 5.7-6.444-.975-5.937-6.445-5.955-13.23-6.176-10.595-.35-16.996 1.617-23.12 4.2-6.126 2.6-12.76 4.314-16.816 7.854-1.86.296-3.754 2.44-6.068 2.3-1.717 2.12-2.993 4.346-6.068 5.176-1.012 4.118-4.07 7.57-6.07 10.35-2.1 2.918.077 7.73 1.144 14.83s7.094 12.242 11.9 17.707c8.3 5.3 14.43 11.092 22.436 17.016 2.453 1.8 5.22 3.276 7.652 5.082 4.56 3.363 8.055 8.752 11.866 13.053 2.642 2.98 6.044 6.137 8.03 11.338.56 1.446 1.968 3.78 2.333 4.873 1.848 5.483 3.157 14.356 3.037 21.02-.445 25.588-27.304 44-41.086 50.193-6.754 3.043-25.714 9.06-32.782 10.274z"/><path fill="#eceded" d="M158.356 92.33c-2.724-1.572-6.774-1.007-6.774-1.007-8.577 1.773-15.6 5.018-21.292 9.54-5.207 3.005-14.105 11.765-17.198 15.74-3.094 3.968-7.42 11.363-9.012 14.174-2.968 5.312-3.376 9.155-4.88 19.454-.037 1.428 1.358 10.68 3.597 14.463 8.426 18.8 21.618 29.65 44.136 33.4 3.527-.535 4.68 1.182 8.124.73-4.25-2.667-8.232-3.692-11.82-6.898-8.162-7.262-15.948-22.75-16.438-35.66-1.082-28.36 16.3-49.362 37.17-55.764 0 0-2.886-6.597-5.615-8.162z"/></svg>