<?xml version="1.0" encoding="UTF-8"?>
<svg width="800" height="360.34" version="1.1" xmlns="http://www.w3.org/2000/svg">
	<path d="m322.46 2.6753c4.4682 1.421 8.6104 3.3621 11.66 6.7124 4.035 4.4294 3.1857 10.319 1.5806 15.173-4.138 12.515-13.726 20.196-25.272 25.772-8.3065 4.0122-17.068 6.8451-25.853 9.3992-6.2396 1.8153-12.941 0.93299-19.448 0.4247-0.57921-0.0456-1.3889-0.11314-1.3231-0.81309 0.34786-3.6407-2.9906-3.8712-4.9081-5.375-0.83592-0.65689-2.6791-0.6991-1.9648-2.2316 0.66364-1.4193 1.0503-3.6847 3.1882-3.6003 6.6787 0.26765 13.077-0.78776 19.536-2.5583 9.6211-2.6394 18.501-6.5918 26.606-12.363 1.7469-1.242 3.4364-2.6681 5.3682-3.5149 1.654-0.72612 3.2904-0.99124 3.266-3.3081-0.0312-2.831-0.20602-5.674-2.7973-7.3608-1.3728-0.89245-2.9948-1.4016-4.8093-1.6372-7.3431-0.95409-14.646-0.66618-21.946 0.13425-4.4952 0.4931-8.6687 2.2856-12.862 3.8545-4.9158 1.8398-10.09 3.3435-14.522 6.0319-5.8951 3.5766-12.369 5.9745-17.748 10.812-4.9242 4.4303-6.3461 10.828-10.973 15.188-1.4269 1.3425-0.84854 3.9347-0.41372 5.7347 1.0073 4.1592 1.7005 8.3757 2.6774 12.53 1.6017 6.8255 6.5926 11.502 11.018 16.517 4.1829 4.7367 9.8575 7.5847 14.58 11.661 5.1775 4.469 10.763 8.4762 16.268 12.552 4.2267 3.1308 9.2817 5.2348 12.586 9.4971 5.7836 7.4579 12.775 13.915 17.724 22.082 4.6674 7.6986 6.7404 16.15 7.398 24.872 0.59018 7.8202 0.61129 15.703-2.2375 23.357-2.8876 7.7636-7.1793 14.632-12.644 20.666-9.0385 9.9775-19.627 17.934-31.941 23.675-11.276 5.2577-23.066 8.7236-35.046 11.844-12.305 3.2051-24.799 4.8059-37.448 5.2517-10.955 0.38587-21.737-0.84095-32.452-3.4254-9.0512-2.1826-17.946-4.7046-26.527-8.2676-10.533-4.3736-19.794-10.322-26.058-20.329-3.6357-5.8073-7.6378-11.337-10.005-17.874-1.8888-5.2129-2.229-10.671-2.8901-16.047-1.3712-11.138 0.48042-21.989 4.979-32.177 3.5757-8.1056 8.6206-15.336 14.727-21.927 8.591-9.2732 19.273-15.603 29.547-22.569 3.7404-2.5355 8.1326-3.2735 12.277-4.4842 4.1871-1.2243 8.2828-2.7272 12.479-3.9168 2.2468-0.63748 4.4108-1.2901 6.796-1.258 6.5385 0.0827 6.4979 0.0169 5.6578 6.601-0.16803 1.3036-0.63832 1.6346-1.9048 1.8685-8.6096 1.589-16.169 5.5641-23.309 10.476-7.3119 5.0297-13.802 11.057-19.58 17.676-4.7519 5.4434-8.4602 11.799-11.692 18.325-6.4515 13.025-7.8439 26.437-2.05 40.014 5.7271 13.418 14.288 24.77 27.247 31.893 8.4542 4.6472 17.543 8.1647 27.504 8.1064 2.4891-0.0144 4.5594 1.9132 7.3811 1.2547-3.0211-2.5558-6.6787-3.6146-9.8491-5.5076-5.5658-3.3216-9.1821-8.233-12.536-13.464-4.2318-6.6002-7.6175-13.65-9.2724-21.318-1.4185-6.569-2.2206-13.213-1.3087-20.056 1.1652-8.7516 2.9551-17.198 7.0468-25.13 7.1853-13.928 17.851-24.068 32.245-30.192 1.4185-0.60453 3.0336-1.0418 4.7021-1.5958 1.4083 5.7119 2.2417 11.013-1.1854 16.611-1.5215 2.4832-3.1932 4.5197-5.0508 6.6677-3.3191 3.8341-4.9334 8.8335-8.2938 12.783-4.8861 5.7432-7.7788 12.925-9.3822 19.96-1.4126 6.2007-1.123 13.166 0.74302 19.673 2.4984 8.7025 6.785 16.209 14.106 21.812 6.2024 4.7451 13.214 7.5003 20.844 8.7228 10.584 1.6979 21.167 0.93215 31.481-1.5029 12.538-2.961 24.28-7.9182 34.444-16.2 6.7783-5.5227 12.97-11.498 18.217-18.546 7.192-9.6617 7.0857-19.357 1.4134-29.59-6.4904-11.707-15.317-21.248-25.842-29.422-11.814-9.177-24.654-16.898-36.378-26.218-10.596-8.4264-18.2-18.737-20.648-32.051-2.224-12.098 0.42048-23.512 7.2021-34 6.6364-10.261 15.711-17.448 26.414-23.016 6.493-3.3773 13.023-6.6026 19.93-9.009 8.6408-3.0109 17.545-4.816 26.664-5.6063 1.269-0.10976 8.3074-1.5569 15.546-1.3847 7.4892 0.17816 15.198 1.9884 17.316 2.6613" fill="#bd2029"/>
	<g fill="#e8e8e6">
		<path d="m800 283.19c-6.1688-0.91778-11.732-1.6464-17.251-2.6225a29.492 29.492 0 0 0-5.8968-0.461c-1.0875 0.0279-2.5397-0.45509-2.9484 1.1052-0.32086 1.2226-0.23811 2.4671 0.67546 3.5968 1.5603 1.9293 2.9906 3.9666 4.6337 6.1712-2.6082 0.68138-4.2368-0.89753-5.9138-1.5164-8.9313-3.3013-18.292-4.6168-27.502-6.6703-9.0766-2.0238-18.424-2.5507-27.276-6.0631-5.3134-2.1084-11.513-2.3092-17.254-1.649-6.8459 0.78691-13.069-1.6042-19.577-2.4452-6.7757-0.87641-13.465-1.9673-20.375-1.9673-7.0586 0-14.109-1.3172-21.177-1.8499-14.624-1.1018-29.257-1.9605-43.926-2.4063-7.4943-0.22798-14.93-1.9504-22.426-2.6453-5.0786-0.46946-10.176-0.13764-14.782 2.5836-1.5105 0.89246-3.493 0.91865-4.7333 0.29889-3.6466-1.8195-6.9699-0.78016-10.332 0.4112-2.7896 0.98788-5.2458-0.0236-7.6124-1.123-2.506-1.1652-4.887-2.5532-7.746-2.641-0.45929-0.0135-1.1407 0.0473-1.3366-0.21446-2.6512-3.5352-3.509-0.85277-4.4378 1.2818-0.7582 1.7427-1.7832 2.1513-3.4938 1.2141-2.5127-1.3754-5.2028-1.3619-7.6834-0.0861-3.3072 1.6989-6.8602 0.85952-10.253 1.4168-10.286 1.6903-20.693 1.009-31.024 1.8322-4.0156 0.31917-7.7121 1.0014-11.072 3.1747-1.3687 0.88485-2.6824 1.2175-4.2284 0.54375-4.0401-1.7613-8.0988-1.3602-12.103 0.0988-1.1331 0.41204-2.2518 0.49395-3.417 0.55051-10.279 0.48973-20.559 0.53701-30.852 0.54039-9.882 3e-3 -20.005-0.14861-29.585 1.8541-13.53 2.8251-27.3 2.3092-40.769 4.6861-7.9578 1.4041-16.042 1.9284-23.875 4.4116-8.602 2.7272-17.727 3.2676-26.658 4.4631-9.9826 1.3366-19.978 2.5608-29.882 4.3956-7.0417 1.3053-14.013 3.0117-21.077 4.1516-6.0555 0.97773-11.959 2.5338-17.915 3.9025-1.0537 0.24148-2.0213-0.0356-3.0565-0.179-2.5862-0.36222-5.1732-0.90682-7.5669 1.2403-1.2986 1.1626-3.3022 1.5502-5.2492 1.4506-6.4388-0.32506-12.613 1.3129-18.776 2.8015-6.2767 1.5139-12.597 2.788-18.896 4.1727-6.1696 1.3568-12.383 2.6765-18.419 4.7341-8.2626 2.815-16.609 5.5506-25.497 5.5768-1.4456 4e-3 -2.7052 0.46186-4.0359 0.8359-1.3754 0.38585-3.0582 2.305-4.03-0.62481-0.0718-0.217-1.3273-0.19167-1.9808-0.0447a281.9 281.9 0 0 0-25.939 7.1101c-14.612 4.7655-28.768 10.821-43.395 15.478-11.909 3.791-23.948 7.3549-36.377 9.2141-1.9073 0.28623-4.5036 1.1348-5.4594-0.88655-1.0807-2.2822 1.7655-3.075 3.151-4.16 1.7942-1.4075 4.209-1.7866 6.2007-2.831 8.13-4.2682 16.936-6.6221 25.521-9.6491 10.48-3.6939 21.261-5.9231 32.057-8.3487 8.917-2.0036 17.68-4.8211 26.424-7.6462 11.525-3.7235 22.783-8.1791 34.297-11.929 6.4397-2.099 12.928-4.111 19.393-6.1188 7.3373-2.2788 14.924-3.7463 22.407-5.5515 5.4856-1.3256 10.97-2.652 16.466-3.927 8.5193-1.9757 17.053-3.8873 25.57-5.8664 5.505-1.28 10.961-2.793 16.498-3.916 9.5975-1.9454 19.075-4.4412 28.775-5.95 6.9674-1.0858 13.813-2.934 20.772-4.0933 11.409-1.9014 22.716-4.4286 34.243-5.6266 4.6092-0.47959 9.1289-1.5941 13.708-2.305 9.9673-1.5519 20.013-2.5076 29.957-4.3018 8.7692-1.5823 17.73-2.0711 26.588-3.1882 6.5579-0.8266 13.079-1.9412 19.629-2.8268 10.567-1.4286 21.185-2.5305 31.71-4.2216 11.826-1.8997 23.786-2.5625 35.627-4.3035 6.4321-0.94565 12.944-1.454 19.436-1.8432 19.875-1.1888 39.761-2.3776 59.681-2.3726 19.099 8e-3 38.172 0.76665 57.245 2.05 13.116 0.88234 26.136 2.446 39.178 3.8484 10.136 1.0892 20.204 2.8471 30.293 4.3652 8.4602 1.2741 16.951 2.4072 25.351 4.0021 12.571 2.3861 25.136 4.8633 37.589 7.7906 10.183 2.392 20.336 4.9562 30.399 7.8996 10.332 3.0228 20.31 6.964 30.452 10.467 0.26681 0.0912 0.42807 0.48971 1.1398 1.3509m-330.38-106.74c2.6816-3.2464 3.8155-7.0653 4.8296-10.687 1.4193-5.0693 4.5661-9.156 6.6634-13.814 2.5228-5.603 5.6004-10.96 8.5277-16.375 8.5025-15.71 17.678-30.907 32.692-41.472 1.1652-0.819 2.2358-2.0323 3.9177-1.9504 1.9428 0.09541 4.2588-0.2761 3.2152 3.0041-0.0675 0.20939-0.0878 0.52011 0.0203 0.68644 3.8003 5.8791-1.1398 9.6903-3.9886 13.09-5.57 6.6423-9.085 14.43-13.685 21.591-1.5823 2.4621-3.222 4.9478-4.4276 7.7138-0.70248 1.6076-6.9547 12.081-9.5949 17.694-2.8361 6.0268-6.2303 17.326-8.5818 23.025-3.0311 7.3457-5.7051 15.046-11.266 21.047-3.3452 3.6104-7.0375 6.8542-12.623 5.8782-0.90934-0.16042-1.8592-0.0988-2.7914-0.11652-8.1427-0.15198-11.674-3.6357-12.419-11.874-1.5004-16.622-1.6212-33.196 0.48972-49.801 1.4776-11.622 2.8302-12.023 6.5149-23.13 1.1635-3.5116 5.6924-4.5442 8.3201-1.9208 0.63747 0.63579 0.73794 1.1348 0.41879 2.1042-0.68053 2.0711-0.51168 1.3442-0.77848 3.5132-0.13509 1.0951-0.10131 2.7905 0.56148 3.3098 3.84 2.999 0.94566 9.9166 2.077 13.425 2.2611 7.0131-0.0438 3.7201 1.8111 10.214 2.4232 8.4787-1.112 16.34 0.0979 24.846"/>
		<path d="m641.29 90.229c-13.151 0.22848-15.71 4.6785-16.694 6.062-4.2406 5.9642-6.3261 12.094-8.3636 17.586-4.2011 11.32-11.647 26.526-15.515 35.097-5.3525 11.863-20.946 36.58-25.885 38.885-1.5806 0.73738-3.6085 0.85855-2.3251-2.7416 4.5146-12.675 6.8133-19.688 13.555-42.483 6.2366-21.077 7.3688-44.897 5.8997-45.85-1.4602-0.94785-3.2658-0.21362-4.9904 1.0247-2.3168 1.6616-3.4449 4.1963-5.4578 5.9603-4.3552 3.8246-9.88 8.8549-10.818 14.764-0.4233 2.6827-0.27358 5.8372-0.67661 8.6257l2e-3 2e-3c-1.655 11.442-18.573 65.585-29.553 65.221-13.716-0.45655-13.536-18.669-11.154-29.937 0.65637-3.1056 0.61059-7.2335 1.5292-10.319 2.2796-7.6352 5.9395-13.849 8.0234-18.319 0.58202-1.2485 0.34652-2.2386 0.70789-2.8668 0.24095-0.41881 0.85649-1.9518 1.1616-2.6419 1.3644-3.0688 3.521-3.9966 3.7428-6.2752 0.62816-6.4186 3.7111-11.747 8.1837-16.293 0.72499-0.73739 0.97623-1.49 0.9582-2.4796-0.0303-1.7877-0.0547-3.6416-1.8773-4.5602-2.5398-1.2833-5.3531-1.4035-7.6734 0.18382-3.5506 2.4293-7.0378 5.4349-8.4731 9.4313-1.585 4.4134-4.5956 7.8825-6.3788 12.122l-1.9457 3.7037c-7.3041 11.657-9.506 19.524-12.351 32.205-2.5228 11.226-1.5336 21.693 1.8166 32.393 1.6865 5.3867 5.4544 10.39 11.14 13.739 4.5169 2.6612 9.5877 3.1256 12.994 3.031 12.927-0.35693 16.579-2.352 19.745-4.832 3.1139-2.4396 2.6768-4.0923 5.579-4.0811 2.7806 0.0112 3.0085 2.8999 4.6893 3.8523 6.1254 4.166 24.265-9.0032 40.79-51.465 2.6016-5.6566 4.5882-9.7446 7.2314-15.542 1.0322 2.9336 1.6953 4.8148 2.7964 6.9615 3.9378 7.6823 10.894 13.221 16.027 20.081 6.0812 8.1268 7.2527 15.632 2.941 22.248-2.0186 3.0947-4.1825 5.9114-7.2197 8.2541-10.554 8.1388-21.772 14.972-34.278 19.711-3.9647 1.5029-8.1964 2.9115-10.97 6.9811 2.7018 1.3002 5.2414 1.049 7.6831 0.3207 2.6769-0.79929 5.2458-0.97245 7.7731 0.3031 2.1199 1.0717 4.5916 1.1227 6.4727 0.40674 6.8493-2.6129 13.917-4.6818 20.664-7.3781 6.5759-2.6274 13.262-5.6659 19.054-10.01 5.7931-4.3432 10.656-9.8811 11.576-17.103 1.5479-12.151 0.30794-23.809-9.1145-33.343-5.8691-5.9402-16.442-15.342-18.638-23.544-2.3033-8.6034 1.0885-19.724 7.5716-25.766 3.6598-3.4086 5.1134-6.3371 3.8875-6.3495-3.9368 1.4803-1.512-5.0172-3.8445-4.9767zm-115.06 1.9125c-1.6808-0.0812-2.7528 1.132-3.9168 1.9516-15.014 10.565-24.191 25.762-32.692 41.472-2.9292 5.4145-6.006 10.774-8.5298 16.377-2.0973 4.6589-5.2436 8.7443-6.6643 13.814-1.0143 3.6216-2.1485 7.4409-4.8301 10.689-1.2104-8.5066 2.3247-16.367-0.0978-24.846-1.8552-6.4938 0.45205-3.2-1.8108-10.214-1.1314-3.5094 1.7621-10.427-2.0767-13.426-0.6642-0.51903-0.6952-2.2164-0.56123-3.3106 0.2668-2.1693 0.0952-1.4406 0.77633-3.512 0.31971-0.97048 0.21984-1.4681-0.41848-2.1041-2.6276-2.6241-7.1555-1.5929-8.3206 1.9183-3.6846 11.109-5.0365 11.51-6.5157 23.131-2.1107 16.607-1.9906 33.181-0.48888 49.804 0.74491 8.2394 4.2768 11.724 12.419 11.876 0.93203 0.018 1.8828-0.0444 2.7924 0.11537 5.5863 0.97598 9.2769-2.268 12.623-5.8782 5.5612-6.0032 8.2347-13.701 11.268-21.047 2.3516-5.7009 5.748-17 8.5826-23.026 2.6398-5.6158 8.8931-16.088 9.5956-17.697 1.2056-2.7648 2.8455-5.2513 4.4272-7.7144 4.6008-7.1606 8.1174-14.949 13.686-21.593 2.8492-3.3984 7.7888-7.2095 3.9872-13.088-0.10703-0.16773-0.086-0.47895-0.0195-0.68833 1.0448-3.2793-1.2706-2.9091-3.2148-3.0036zm-135.03 0.97579c-13.446 0.1281-29.933 10.435-38.64 19.893-11.406 12.39-11.565 17.953-17.801 30.588-0.27243 0.55387-0.34596 0.67171-0.97187 1.5116-1.9565 2.6252-5.3652 3.8265-8.1368 4.4468-2.0702 0.46382-5.2276 1.8031-3.4984 3.4084 2.462 2.2875 0.91498 4.9532 3.6235 4.9532 3.4482 0 0.80263 4.6279 0.30505 6.3808-3.3322 11.771-4.8279 23.632-1.8323 35.678 1.5074 6.0644 4.9554 10.822 10.761 13.598 7.9951 3.8242 21.564 1.27 29.174-1.9575 19.646-8.334 41.568-39.355 42.151-43.646-2.0466 12.495-4.9996 22.956-6.588 34.458-0.62367 4.5132 3.7626 6.704 9.3316 7.9862 2.301 0.52911 6.9006-4.2159 8.7547-2.0826 0.67433 0.779 2.2743-0.88167 2.2292-2.0513-0.0912-2.3764-0.56417-2.6436-0.92103-8.3578-0.13621-2.1637 0.53522-10.464 1.0227-12.85 0.43229-2.1288 3.3618-16.445 3.1288-18.966-0.36137-3.9346 0.8177-4.3321 1.2691-9.8381 1.5715-19.143 11.088-30.011 15.429-34.141 22.344-21.247 41.529-16.526 42.518-15.793 2.7648 2.0522 3.8708-3.7911 2.4131-5.1938-1.611-1.5501-0.5608-3.1665-0.84673-3.557l-2e-3 2e-3c-2.685-3.6744-22.732-4.8623-38.721 2.6712-13.206 6.222-17.582 10.695-18.241 12.089-0.22177 0.46718 0.58938-2.8534 0.10755-4.658-0.22852-0.86347-2.1561-0.61651-3.2266-0.54559-1.6571 0.11032-1.4718-0.65069-3.6783 0.45369-0.71148 0.35461-3.2166-1.2869-3.471 0.0392-0.67658 3.5461-1.1889 13.875-4.2238 22.744-5.1819 15.152-21.46 39.984-37.045 55.655-4.8801 4.9071-20.749 20.235-32.911 12.623-2.784-1.7426-2.8705-5.8403-3.1386-9.3042-0.90171-11.663 2.8078-19.123 7.3096-29.54 0.81617-1.8845 1.5762-2.0026 3.4573-2.812 2.8234-1.2136 5.6403-2.4773 8.4986-3.6176 7.9556-3.1757 15.306-6.4415 22.208-11.555 7.8341-5.801 14.254-10.049 20.617-20.714 5.4745-9.1759 6.4997-26.482-7.7692-27.885-0.86618-0.08521-1.7494-0.12196-2.6458-0.11342zm-5.0178 13.952c0.93798-8e-3 1.6744 0.21031 2.1588 0.67075 12.898 12.253-37.768 38.347-32.735 27.31 7.6527-16.781 24.01-27.925 30.576-27.981z"/>
		<path d="m178.36 109.85c0.3895-0.0709 0.69571-0.15761 0.949-0.27243-0.59664 0.13846-0.949 0.27243-0.949 0.27243-2.0276 0.37488-3.9953 0.88597-5.9158 1.5062-6.2298 2.0128-11.935 5.2156-17.395 8.971-7.3117 5.0298-13.803 11.057-19.581 17.676-4.7518 5.4441-8.46 11.801-11.692 18.327-6.4528 13.026-7.8453 26.438-2.05 40.017 5.7266 13.419 14.289 24.771 27.247 31.896 8.4566 4.6471 17.546 8.1651 27.507 8.1065 2.4879-0.0146 4.5581 1.9126 7.3804 1.2541-3.0204-2.5554-6.6791-3.6159-9.8502-5.5084-5.5657-3.3221-9.1815-8.2338-12.535-13.466-4.2328-6.6002-7.619-13.648-9.2739-21.317-1.4184-6.5687-2.2211-13.214-1.3092-20.058 1.1674-8.7504 2.9551-17.198 7.0483-25.13 7.1856-13.929 17.851-24.068 32.246-30.194 1.4196-0.60452 3.0339-1.0424 4.7022-1.5952 0 3e-3 0 4e-3 8.4e-4 6e-3 0.0361-0.0169-0.21051-0.55836-0.29157-0.8049 0 0-3.5641-7.0471-7.0844-8.8158-3.4099-1.8822-6.6566-1.4995-8.2055-1.1415"/>
		<path d="m746.47 134.16-9.8177 31.63c-1.2946 3.8658-1.6244 7.6483-2.4778 11.507h-0.22515c-0.96588-3.7758-1.5119-7.5503-2.9055-11.333l-9.7118-31.804h-53.054v12.302h12.615v53.944h16.07v-53.944h11.477l19.151 53.944h13.151l22.541-66.247h-16.813"/>
		<path d="m435.75 310.36c-10.92 0-17.85 5.8105-17.85 14.98 0 3.92 1.3996 7.1406 3.8496 9.3106 2.03 1.68 5.5307 3.0091 11.971 4.6191l5.4609 1.4004c1.33 0.49 2.7996 0.97906 3.8496 1.5391 1.89 1.05 2.8691 2.5195 2.8691 4.2695 0 3.29-3.9893 6.0215-9.0293 6.0215-3.29 0-6.5807-1.1914-8.4707-2.9414-1.12-1.12-1.6099-2.1684-2.1699-4.8984h-9.2402c0.21 3.99 0.77086 6.0894 2.3809 8.6094 3.15 4.41 9.3791 7.0703 17.289 7.0703 6.72 0 11.341-1.6104 14.631-4.9004 2.8-2.87 4.1992-6.5093 4.1992-10.779 0-7.49-3.779-10.64-15.959-13.65l-2.3809-0.56055-2.3789-0.56054-2.4512-0.5586c-1.19-0.35-2.4488-0.76976-3.2188-1.2598-1.33-0.84-2.0312-2.0306-2.0312-3.6406 0-3.57 3.3597-5.8809 8.6797-5.8809 5.81 0 8.2616 1.9609 9.1016 7.2109h9.2402c-0.21-3.99-0.84048-6.3006-2.7305-8.8906-3.29-4.2-8.6113-6.5098-15.611-6.5098zm54.771 0.49024c-12.88 0-21.631 9.7297-21.631 24.43 0 6.16 1.4693 12.25 3.7793 15.82 3.57 5.6 10.642 9.0996 17.852 9.0996 11.2 0 18.619-6.4391 19.949-17.289h-9.7305c-0.77001 3.01-1.2598 4.1996-2.5898 5.5996-1.89 2.03-4.4802 3.2188-7.4902 3.2188-7.49 0-11.898-5.8787-11.898-15.889 0-10.29 4.69-16.66 12.25-16.66 5.04 0 8.6785 3.0795 9.7285 8.1895h9.5898c-0.35-4.27-1.3996-6.4402-3.8496-9.6602-3.57-4.55-8.889-6.8594-15.959-6.8594zm-281.66 1.1191v46.691h19.389c6.23 0 10.851-1.4705 13.861-4.4805 4.2-3.92 6.4395-10.92 6.4395-18.83 0-8.12-2.2395-15.051-6.4395-18.971-3.01-2.94-7.6313-4.4102-13.861-4.4102zm55.5 0v46.691h35.35v-8.1211h-25.83v-12.32h22.75v-7.8398h-22.75v-10.289h24.99v-8.1211zm52.35 0v31.15c0 4.2 0.56094 6.6502 1.9609 9.2402 2.87 5.04 8.8892 7.9805 16.449 7.9805 6.79 0 11.97-2.1698 15.4-6.5098 2.31-2.87 3.2891-6.5804 3.2891-11.9v-29.961h-9.5195v28.141c0 4.2-0.49102 6.4394-1.541 8.1894-1.47 2.31-4.2686 3.7109-7.5586 3.7109-3.01 0-5.8112-1.3294-7.2812-3.3594-1.12-1.68-1.8184-4.6202-1.8184-7.9102v-28.771zm51.99 0v8.1211h14v38.57h9.5898v-38.57h14.279v-8.1211zm158.02 0v46.691h9.3809v-20.932h18.689v20.932h9.5195v-46.691h-9.5195v17.641h-18.689v-17.641zm55.211 0v46.691h32.549v-8.1211h-23.17v-38.57zm61.049 0-16.799 46.691h10.5l3.1484-9.5898h17.361l3.0098 9.5898h10.709l-16.379-46.691zm41.711 0v46.691h9.3789v-31.221l18.48 31.221h10.359v-46.691h-9.5195v30.59l-18.199-30.59zm53.963 0v46.691h19.389c6.23 0 10.851-1.4705 13.861-4.4805 4.2-3.92 6.4394-10.92 6.4394-18.83 0-8.12-2.2394-15.051-6.4394-18.971-3.01-2.94-7.6313-4.4102-13.861-4.4102zm-520.27 7.7715h8.541c7.91 0 11.76 4.9691 11.76 15.539 0 10.29-3.9198 15.4-11.76 15.4h-8.541zm529.79 0h8.5391c7.91 0 11.76 4.9691 11.76 15.539 0 10.29-3.9198 15.4-11.76 15.4h-8.5391zm-99.803 1.959 6.0898 19.391h-12.25z"/>
	</g>
</svg>
