<?xml version="1.0" encoding="UTF-8" standalone="no"?>
<!-- Created with Inkscape (http://www.inkscape.org/) -->

<svg
   xmlns:dc="http://purl.org/dc/elements/1.1/"
   xmlns:cc="http://creativecommons.org/ns#"
   xmlns:rdf="http://www.w3.org/1999/02/22-rdf-syntax-ns#"
   xmlns:svg="http://www.w3.org/2000/svg"
   xmlns="http://www.w3.org/2000/svg"
   xmlns:sodipodi="http://sodipodi.sourceforge.net/DTD/sodipodi-0.dtd"
   xmlns:inkscape="http://www.inkscape.org/namespaces/inkscape"
   version="1.0"
   width="645.97998"
   height="309.13"
   id="svg2"
   inkscape:version="0.91pre2 r13516"
   sodipodi:docname="servus tv hd.svg">
  <metadata
     id="metadata16">
    <rdf:RDF>
      <cc:Work
         rdf:about="">
        <dc:format>image/svg+xml</dc:format>
        <dc:type
           rdf:resource="http://purl.org/dc/dcmitype/StillImage" />
        <dc:title></dc:title>
      </cc:Work>
    </rdf:RDF>
  </metadata>
  <sodipodi:namedview
     pagecolor="#ffffff"
     bordercolor="#666666"
     borderopacity="1"
     objecttolerance="10"
     gridtolerance="10"
     guidetolerance="10"
     inkscape:pageopacity="0"
     inkscape:pageshadow="2"
     inkscape:window-width="1920"
     inkscape:window-height="1017"
     id="namedview14"
     showgrid="false"
     inkscape:zoom="0.55292833"
     inkscape:cx="-143.34133"
     inkscape:cy="145.01526"
     inkscape:window-x="-8"
     inkscape:window-y="-8"
     inkscape:window-maximized="1"
     inkscape:current-layer="svg2" />
  <defs
     id="defs4" />
  <g
     id="g4182">
    <g
       id="g4166">
      <path
         d="m 202.62009,189.67648 c 14.45051,-4.67896 22.89604,-8.7788 32.32192,-17.95317 4.86082,-4.72352 11.22415,-11.12463 13.35597,-18.40063 3.60953,-12.33109 -8.88566,-26.71224 -15.16694,-33.35217 -7.96791,-8.40803 -19.58256,-15.42549 -30.4289,-23.08325 -14.43106,-10.20632 -28.45385,-20.87108 -27.16505,-45.24482 0.28336,-5.4329 4.54531,-13.9712 6.9729,-17.75187 7.55965,-11.73927 18.40599,-17.52517 32.61064,-23.95645 5.76644,-2.59705 12.26173,-4.3457 19.13511,-5.65959 6.30807,-1.20844 15.38799,-2.32778 21.92106,-2.26349 5.92321,0.0499 11.98542,1.33137 16.31138,2.5398 8.76639,4.91609 10.84126,4.49034 9.61478,17.09069 -3.37072,9.47747 -8.99252,15.67699 -18.36849,20.66441 -5.68975,3.03012 -9.37428,4.67191 -15.6877,6.53278 -3.03745,0.8983 -6.20657,2.5525 -9.9551,3.26358 -5.60235,1.06238 -7.06764,0.62931 -15.75199,0.39585 -1.16389,-0.77367 -0.53458,-2.77354 -0.53458,-2.77354 l -6.10506,-3.77193 1.91077,-3.89288 c 5.01223,0.3014 8.92316,0.53486 18.96566,-2.45804 8.94797,-2.66669 14.49506,-5.37764 22.18468,-11.06739 4.52756,-3.35831 6.47048,-1.6167 5.6844,-6.45271 -0.96794,-5.92857 -6.44538,-5.94802 -13.22431,-6.16907 -10.59512,-0.35131 -16.99595,1.6167 -23.12047,4.20134 -6.12481,2.58463 -12.75373,4.31355 -16.80902,7.85344 -1.86087,0.28899 -3.75389,2.44027 -6.07462,2.29592 -1.71115,2.12477 -2.98754,4.34569 -6.06757,5.17463 -1.00712,4.12464 -4.06938,7.57205 -6.06221,10.35631 -2.09968,2.91254 0.0747,7.72346 1.14444,14.82127 1.06944,7.09443 7.0871,12.24397 11.91042,17.709 8.2992,5.28883 14.43105,11.08544 22.43618,17.0157 2.44564,1.81096 5.21213,3.26893 7.65213,5.07482 4.55265,3.36338 8.04996,8.75201 11.85375,13.05316 2.64694,2.9819 6.04247,6.13157 8.03529,11.33834 0.55431,1.4402 1.9697,3.77334 2.33342,4.86618 1.84847,5.48477 3.15671,14.35605 3.03717,21.02248 -0.44548,25.58049 -27.30405,43.99184 -41.08634,50.186 -6.74848,3.0428 -25.7068,9.06216 -32.77445,10.2689 -7.06228,1.21408 -24.46114,4.67925 -40.77985,2.58464 -15.70716,-2.01961 -44.41956,-9.37597 -53.63848,-22.05301 -4.13733,-5.68412 -10.52576,-13.81584 -12.8589,-23.20957 -0.25122,-6.86633 -2.76114,-17.68955 -0.60957,-23.80167 3.96055,-22.13477 20.0709,-37.67276 37.82981,-47.60841 3.10681,-2.9929 6.75383,-4.36881 11.99782,-5.50084 6.57029,-1.40975 12.69481,-5.6985 22.461,-4.76637 -0.37782,1.97337 -0.48468,4.18724 -0.39022,6.60243 -8.57749,1.77882 -15.6003,5.02294 -21.29175,9.53809 -5.20677,3.01235 -14.10484,11.77142 -17.19755,15.74635 -3.0944,3.96083 -7.41331,11.35639 -9.01225,14.16743 -2.96076,5.31363 -3.36902,9.15464 -4.87323,19.45569 -0.0375,1.42074 1.35816,10.67181 3.59148,14.45614 8.42608,18.78916 21.6253,29.64988 44.13084,33.38403 3.64702,0.55431 6.39575,0.27828 8.17993,0.28336 24.66951,-2.16905 33.00086,-6.07462 47.45165,-10.75189 l 0,0 z"
         id="path2391"
         style="fill:#efeeec"
         inkscape:connector-curvature="0" />
      <path
         d="m 609.21558,230.30549 17.15469,7.20665 -6.21192,0.67358 6.21192,4.47596 c 0,0 -45.11851,-11.87856 -48.41958,-12.51323 -2.78425,-0.53458 -10.71438,-2.3884 -7.49536,-2.868 -4.28874,0.30845 -13.41857,-3.03012 -18.99583,-1.43851 -8.61498,-1.39734 -19.84618,-4.43479 -28.02076,-3.50971 -15.8143,-1.94997 -50.68872,-3.93546 -52.27328,-3.50775 -1.36548,0.37077 -16.74642,-0.83062 -25.85144,1.71652 -1.05703,0.28871 -2.61678,1.42582 -3.79843,1.54001 -2.25137,0.20667 -4.31356,-1.09453 -6.53984,-0.95553 -1.6542,0.10714 -3.30135,1.30853 -4.88591,1.46529 -4.0801,0.41532 -7.50777,-1.82337 -11.62706,-1.79856 -1.5527,0.0127 -2.99826,1.2888 -4.51515,1.49011 -1.83606,0.24445 -3.65238,-0.50243 -5.4828,-0.41531 -1.95561,0.0998 -4.02484,1.17658 -5.9858,1.38325 -11.2938,1.19434 -23.55017,-1.36352 -34.11315,-0.75394 -2.10165,0.1249 -4.32793,1.35815 -6.3529,1.35815 -1.72187,0 -3.19421,-1.15684 -5.04268,-1.30824 -3.28866,-0.25122 -7.11726,1.92515 -10.80348,1.93756 -1.10524,0.005 -2.59704,-0.81286 -3.62193,-0.73617 -1.13739,0.0998 -2.28182,1.16219 -3.38876,1.12469 -1.99987,-0.0747 -16.84624,-0.55967 -20.56798,-0.1889 -5.8358,0.59181 -12.09961,0.4029 -17.3436,0.98231 -2.49018,0.27631 -4.80386,1.58992 -7.11755,1.76106 -13.99234,0.99275 -22.59463,1.52028 -37.78695,4.01046 -5.19945,0.85036 -10.21195,2.61678 -15.33104,3.42767 -12.40609,1.98042 -23.65534,2.65428 -35.6729,5.09258 -8.50079,1.73625 -16.95873,3.19619 -24.59845,4.56675 -2.95005,0.52048 -5.88035,2.18173 -8.61471,2.09996 -1.32798,-0.0375 -2.73604,-0.87348 -3.98734,-0.76126 -1.88596,0.16945 -3.49026,1.8682 -5.32632,2.34582 -1.58456,0.42067 -3.16207,-0.19426 -5.14418,0.0747 -8.5256,1.15684 -18.61801,4.29579 -28.76737,6.08195 -4.54024,0.79143 -9.26911,2.20682 -13.86602,3.53283 -4.94287,1.4278 -10.01064,3.61686 -13.87139,3.54017 -3.77362,-0.075 -6.81078,0.41531 -10.4454,1.96237 -2.20147,0.45986 0.25855,-1.76106 -1.35111,-1.4777 -15.79654,2.99995 -29.74968,8.30653 -44.04343,13.63257 -13.99093,5.22623 -44.81541,14.26865 -45.30008,10.80377 -0.48495,-3.45812 7.84103,-5.21383 11.59492,-7.38315 4.11929,-2.38868 7.69695,-4.82332 11.89096,-6.44566 8.84111,-3.41329 18.17958,-5.72162 27.41119,-7.56472 18.13504,-3.61489 36.5836,-9.17974 54.81337,-15.12268 17.90327,-5.82876 36.74233,-10.04786 55.51372,-14.60023 18.66256,-4.5346 37.60341,-9.20116 56.46728,-12.70918 38.88685,-7.212 67.62941,-10.77867 108.09545,-16.41852 19.86395,-2.77354 50.64417,-4.86787 70.76667,-6.26916 42.18058,-2.94271 84.80355,-0.59153 128.49933,6.0873 22.78918,0.36372 51.68315,7.73418 72.3157,15.12804 10.88384,3.89993 44.58872,17.4826 44.58872,17.4826 l -32.76204,-8.23859 0,0 z"
         id="path2393"
         style="fill:#e4e4e4;fill-opacity:1"
         inkscape:connector-curvature="0" />
      <path
         d="m 500.66196,183.85139 c -2.10673,0 -6.10676,1.02658 -6.56493,0.81822 l -2.80568,-0.0127 -1.09425,-0.59689 c 0.50976,-1.5527 4.85546,-4.2566 11.72856,-6.66671 1.01248,-0.35103 2.70418,-1.14951 3.94307,-1.73427 l 0.89294,-0.42236 c 6.79669,-3.157 17.58777,-9.727 25.18999,-16.7126 l 0.1249,-0.11419 0.057,-0.15141 c 0.56701,-1.4901 1.41539,-2.69685 2.23361,-3.86102 0.62734,-0.89294 1.13711,-1.62206 1.57751,-2.43831 l 0.0499,-0.0944 0.0248,-0.11419 c 1.76106,-10.96053 -6.10507,-17.3811 -11.92113,-24.53051 -3.44036,-4.23178 -6.99265,-8.59525 -8.98547,-13.94102 l -0.62396,-1.66661 -0.77902,1.60966 c -1.93052,3.95547 -3.79844,8.09958 -5.44559,11.75901 -5.51494,12.21182 -10.88553,23.60035 -19.40578,33.69981 -0.69163,0.80384 -1.6043,1.3511 -2.24432,2.11237 -1.15656,1.3652 -2.55419,0.66117 -3.10146,2.25109 l -0.44548,0.50976 -0.16409,0.12491 c -4.1816,3.3084 -6.57029,5.76108 -10.47558,6.45271 -2.76649,0.48298 -9.58997,1.0497 -9.58997,1.0497 -1.33841,-0.67922 -1.14415,-1.2888 -3.89824,-2.10673 -0.71643,-0.20696 -2.20654,-1.04999 -2.20654,-1.04999 -4.41534,3.51508 -8.88594,4.50247 -16.1298,4.50247 -4.70942,0 -8.73426,-1.19406 -11.65216,-3.46517 -9.56487,-7.43813 -10.96758,-24.54292 -8.22448,-37.28255 1.94827,-9.07992 7.28164,-20.03509 11.16748,-28.02584 l 0.48467,-1.00713 c 0.28167,-0.58476 0.51512,-1.14979 0.74689,-1.69706 0.34595,-0.87517 0.66653,-1.6291 1.08917,-2.37768 0.35836,-0.61691 0.83598,-1.15684 1.28146,-1.6793 0.46522,-0.52217 0.93777,-1.06239 1.23889,-1.65392 l 0.057,-0.0998 0.0127,-0.10714 0.0124,-0.59181 0.30845,-1.58992 c 1.69142,-2.7789 6.25112,-7.91772 7.94254,-8.67701 0.90562,-0.40996 1.86115,-0.61691 2.8288,-0.61691 1.16953,0 2.16933,0.28872 2.9805,0.52245 l 0.1765,0.0499 0.21372,0.0623 0.139,0.15141 c 0.73448,0.77903 0.87348,2.00523 0.99303,3.07494 0.0694,0.60958 0.12659,1.13175 0.25826,1.57216 l 0.1125,0.40262 -0.32086,0.28167 c -4.32624,3.78067 -7.43841,10.2066 -7.75391,15.98545 l -0.0124,0.32621 -0.29408,0.20132 c -1.9948,1.35307 -3.51507,4.20669 -3.79843,4.76636 l -0.214,0.40996 0.32622,0.34595 c 0.46521,0.50807 1.01248,1.32601 0.2904,2.63454 -1.5042,2.68445 -4.08179,9.62014 -5.37058,15.26704 -3.96253,17.29369 -1.97506,27.94577 6.0749,32.56073 l 0.58984,0.34031 0.41531,-0.50976 c 5.18873,-6.46512 8.7038,-11.61466 11.61465,-20.0351 1.17658,-3.40116 4.57746,-12.63785 5.34578,-14.01574 0.45281,-0.80581 0.31916,-5.03732 0.46521,-5.7859 0.68458,-3.57033 3.72908,-9.45097 5.37595,-13.17976 1.11229,-2.51527 1.54001,-1.7416 2.27618,-3.96788 0.74153,-2.20683 1.16417,-3.6397 1.5527,-5.99793 0.63636,-3.86807 3.41526,-6.27621 5.7859,-9.91083 l 0.15141,-0.2264 0.26926,-0.0818 c 1.44725,-0.43336 0.72376,0.90534 1.30825,-0.62226 0.79143,-2.11406 3.1694,-4.20134 5.45263,-5.46504 l 0.80384,-0.37077 0.18919,-0.075 0.20667,0.0251 c 2.69149,0.38853 2.83585,2.45804 2.76818,4.72887 -0.0268,0.80384 -1.48474,2.58999 -1.32798,3.20662 0.47762,1.9556 -0.77903,3.91093 -0.80384,6.0498 l -0.007,0.2515 c -0.0127,1.05506 -0.0251,2.14959 -0.1249,3.25652 -0.49201,6.29398 -2.00692,9.50257 -3.47758,16.26712 -0.42236,1.98211 -0.85036,3.94279 -1.23888,5.8733 -0.58477,2.8429 -2.08728,7.137 -2.93031,9.791 -0.81822,2.55982 -2.42083,8.17458 -2.5525,8.79656 -0.18919,0.81286 -2.85023,6.33317 -3.01263,6.92498 -0.66118,2.40813 -1.74838,4.65951 -2.80541,6.83419 -0.45281,0.93748 -0.88589,1.83578 -1.28174,2.72364 l -1.86257,2.20654 2.55419,-0.38317 1.50787,-0.15677 0.27095,-0.0445 c 0.76663,-0.1266 2.15692,-0.48496 3.44036,-1.3012 0.89829,-0.57941 2.11942,-1.3903 2.94271,-1.78616 l 0.14464,-0.082 0.0998,-0.1139 c 12.25638,-14.75192 18.28644,-28.02613 26.45567,-45.6263 5.50254,-11.85911 7.65917,-17.56296 14.85144,-29.12066 l 0.18919,-0.29576 0.3654,-0.0445 c 0.70403,-0.0944 1.39566,-0.2016 2.06754,-0.30141 1.59189,-0.25121 3.09441,-0.49003 4.61666,-0.49003 1.6026,0 2.99994,0.27632 4.26365,0.84839 l 0.4779,0.21936 -0.0499,0.48467 c -0.54191,4.97501 -0.54191,5.77885 -1.9948,9.23161 -0.89294,2.11209 0.214,0.46522 -0.52217,2.9554 l -0.0677,0.24587 0.11221,0.23176 c 1.17658,2.41518 0.38317,4.80386 -0.38317,7.11755 -0.52245,1.5792 -1.00712,3.04449 -0.87348,4.44015 0.12491,1.15684 2.84855,5.81071 6.29933,10.31881 1.27808,1.66125 2.58464,3.13162 3.85539,4.55941 2.868,3.24412 7.92336,5.93054 9.84119,10.53817 l 0.0499,0.13196 0.10179,0.1015 c 0.58448,0.57236 1.1371,1.06943 1.98013,1.27103 l 0.32086,0.0801 0.14972,0.28336 c 1.42243,2.59197 1.9181,4.71646 2.54713,7.40091 0.22641,0.93777 0.47255,1.98211 0.78072,3.157 1.70947,6.45778 0.9733,13.77129 -1.87497,18.63944 -3.67747,6.26183 -8.87156,10.43103 -16.69483,13.62524 l -0.71136,0.29069 c -2.2243,0.91775 -4.62003,3.19957 -8.11029,3.81619 -4.37051,0.76634 -8.43285,3.42767 -10.35096,3.42767 -0.66117,0 -1.50956,0.42067 -2.33313,0.87348 l -0.14436,0.082 c -3.13726,1.07479 -1.16925,1.15684 -6.04276,1.15684 l -4.31355,-1.23353 0,0 z"
         id="path2395"
         style="fill:#e4e4e4;fill-opacity:1"
         inkscape:connector-curvature="0" />
      <path
         d="m 626.3074,118.0978 -8.23154,26.51797 c -1.08212,3.2444 -1.35843,6.41352 -2.07487,9.64524 l -0.18355,0 c -0.81653,-3.16207 -1.26934,-6.32612 -2.44563,-9.49524 l -8.13709,-26.66797 -44.48919,0 0,10.31176 10.58272,0 0,45.23242 13.47552,0 0,-45.23242 9.62183,0 16.05312,45.23242 11.03017,0 18.90137,-55.54418 -14.10286,0 0,0 z"
         id="path2397"
         style="fill:#e4e4e4;fill-rule:nonzero;fill-opacity:1"
         inkscape:connector-curvature="0" />
      <path
         d="m 376.7336,175.80735 -0.19596,-0.0623 c -6.18711,-1.90542 -7.37581,-8.9928 -8.13003,-16.71992 -2.56659,-26.30933 -0.69867,-50.41212 5.11768,-66.12126 l 0.11926,-0.33326 0.36005,-0.0998 c 0.62762,-0.18891 1.1997,-0.28336 1.75401,-0.28336 1.23889,0 2.14987,0.46522 3.03745,0.91239 l 0.84134,0.41362 0.55967,0.24614 -0.14971,0.55967 -0.14436,0.50272 c -0.86812,3.06931 -2.49018,8.78388 1.07479,9.72869 l 0.54727,0.14436 0,0.52753 c 0.005,1.20674 0.10686,2.34582 0.20667,3.45812 0.14436,1.64179 0.30309,3.34562 0.15169,5.31363 l 0.0499,0.007 1.1763,0.49736 0.2264,0.78607 c 0.40827,2.72195 0.27632,5.3314 0.15677,7.85372 -0.12631,2.52036 -0.24586,4.89832 0.19454,7.14941 l 0.65413,1.59725 c 0.34031,0.65948 0.69162,1.34575 0.79848,2.13718 0.37077,2.62919 0.082,5.26373 -0.19426,7.81622 -0.32086,2.95541 -0.64708,5.98722 0.0178,9.08162 1.82535,-3.65408 3.4474,-8.3009 4.11929,-11.89801 l 0.0197,-0.0874 0.0426,-0.082 c 2.27647,-4.52727 4.3832,-9.24373 6.62217,-14.2365 7.86077,-17.53787 15.98516,-35.6729 31.68724,-46.81726 l 0.20132,-0.14436 0.25685,0 2.89817,0 1.08212,0 -0.37076,0.93777 c -0.66681,1.72356 -0.0375,2.55249 0.83598,3.69693 l 0.54163,0.72348 0.18918,0.27631 -0.10178,0.3155 c -1.33334,3.96084 -3.57738,7.1246 -5.74671,10.17446 -2.07487,2.92326 -4.22615,5.9483 -5.50254,9.64495 -1.01248,2.03765 -2.03201,3.95548 -3.0569,5.8733 -1.77882,3.3459 -3.60952,6.79866 -5.18704,10.38845 0.28336,1.00008 0.0945,2.99995 -0.58476,4.11225 -0.48467,0.79312 -1.11399,1.03193 -1.59697,1.07479 0.0375,3.71103 -2.13182,7.351 -4.07474,10.58976 l -0.78608,1.33335 c -1.55974,3.76629 -2.87335,7.87317 -4.13733,11.84641 -2.6915,8.44526 -5.47745,17.17415 -11.17425,23.53072 l -1.49011,0.57207 -0.6544,-0.0874 -0.16382,0.2515 c -0.49736,0.73589 -1.00543,1.49715 -1.81096,2.06218 l -0.15705,0.10686 -0.20131,0.0321 c -2.32609,0.27096 -4.07474,0.30141 -5.6094,0.33862 -1.55975,0.0251 -2.78623,0.0519 -4.11957,0.31551 l -0.19962,0.0428 0,0 z"
         id="path2399"
         style="fill:#e4e4e4;fill-opacity:1"
         inkscape:connector-curvature="0" />
      <path
         d="m 321.16687,91.4772 c -9.8536,-0.082 -18.54499,10.11749 -24.6447,22.97104 10.44541,-5.30123 19.60738,-13.23136 24.6447,-22.97104 l 0,0 z m 15.28649,88.93355 -1.08889,-0.72348 c -1.7168,-1.15684 -3.96789,-1.93587 -6.14257,-2.6915 l -1.66125,-0.58476 -0.34595,-0.12491 -0.0998,-0.32086 c -2.54714,-7.56472 -2.27619,-17.85872 -0.88053,-25.22917 -2.13183,2.12646 -5.74671,9.08697 -7.94085,11.62705 -7.97496,9.23162 -17.01738,19.69479 -31.88884,19.69479 -1.67901,0 -3.42062,-0.13731 -5.17435,-0.40094 -4.49034,-0.68626 -7.07469,-3.37804 -9.54006,-6.30835 -2.12478,-2.53304 -3.36339,-7.01041 -3.78603,-10.08536 -1.52027,-11.28843 1.74866,-26.75142 4.30848,-32.39663 -1.69875,-0.18891 -3.38876,-0.62396 -4.38855,-1.84311 -0.85572,-1.01953 -1.07677,-2.42054 -0.69163,-4.26901 l 0.0801,-0.39754 0.42265,-0.13196 c 1.38324,-0.42772 2.72899,-0.94284 4.03724,-1.43315 1.72187,-0.66117 3.50267,-1.33334 5.44559,-1.84847 6.38109,-13.43266 13.14761,-26.48583 24.12055,-35.39122 2.9678,-2.40814 10.82858,-5.75911 18.86585,-5.75911 2.62213,0 5.26175,0.42771 7.85908,1.2761 2.40813,1.25863 4.07474,3.45276 4.69136,6.06757 0.66682,2.82345 0.007,5.77885 -1.79122,8.09986 -8.64178,16.64465 -21.30613,23.71934 -41.31472,31.51075 l -0.75394,1.58456 c -4.83573,10.14231 -13.11717,31.35229 -2.14423,40.21285 8.04798,-0.45281 13.00326,-3.20126 19.14752,-10.67181 1.84846,-2.24404 4.49005,-5.21185 6.36333,-7.94084 0.51512,-0.74858 1.03758,-1.50251 1.55975,-2.24602 7.04255,-10.0924 15.62511,-25.93151 21.4237,-36.38228 2.42759,-4.3956 4.36346,-8.06208 6.87338,-13.07459 l 0.0372,-0.0747 0.0499,-0.0572 c 7.40091,-8.85352 18.60025,-22.22218 36.40907,-24.1152 1.28879,-0.13731 2.64723,-0.20667 4.03019,-0.20667 3.56695,0 6.85562,0.44548 9.60238,0.88053 l 0.30309,0.0499 0.17453,0.22641 c 0.88786,1.0996 2.32102,1.95532 3.70398,2.7789 2.44028,1.44725 5.20142,3.08707 5.15151,6.37573 l -0.0197,0.82555 -0.87319,-0.14633 c -1.73625,-0.28872 -3.13191,-0.9482 -4.47765,-1.58992 -1.54735,-0.73617 -3.00531,-1.42779 -4.79851,-1.42779 l -0.33863,0.007 c -1.18898,0.0553 -2.27618,0.53317 -3.43499,1.03757 -0.81625,0.35808 -1.66464,0.72885 -2.57731,0.95525 l -1.6542,0.39586 c -3.42062,0.82358 -6.65233,1.59697 -9.77155,3.23171 -1.11934,0.59153 -2.15692,1.3153 -3.14966,2.02469 -1.53466,1.07676 -2.98755,2.0946 -4.72887,2.66132 -1.28344,1.65956 -2.78087,3.27626 -4.23884,4.83404 -2.48313,2.67373 -5.05508,5.43318 -6.79669,8.65953 -3.67381,6.77865 -5.47744,15.32399 -7.21369,23.58034 -0.56503,2.69149 -1.1498,5.47773 -1.79856,8.16217 l -0.1765,0.76803 -0.80384,-0.25826 -0.97499,-0.54022 c -1.44556,6.0749 -2.08727,13.10476 -2.70418,19.92655 -0.48467,5.31363 -0.97498,10.79812 -1.85551,15.67163 l -0.0124,0.0747 -0.0305,0.075 c -0.3155,0.72885 -0.78608,1.27075 -1.23861,1.79321 -0.62226,0.70938 -1.15148,1.33334 -1.24594,2.36359 l -0.11249,1.2386 0,0 z"
         id="path2401"
         style="fill:#e4e4e4;fill-opacity:1"
         inkscape:connector-curvature="0" />
      <path
         d="m 187.60963,211.17236 c -7.06032,1.20872 -24.46087,4.67924 -40.78493,2.58463 -15.7145,-2.02468 -44.42689,-9.38104 -53.64412,-22.05808 -4.13875,-5.6844 -10.52717,-13.80907 -12.86059,-23.2169 -0.25658,-6.86634 -2.75916,-17.68758 -0.61493,-23.79998 3.96788,-22.14182 20.07795,-37.67981 37.84222,-47.61545 3.10511,-2.9929 6.74678,-4.3708 11.99782,-5.50254 6.57028,-1.41342 12.69509,-5.70216 22.46127,-4.76637 -0.37781,1.97506 -0.48495,4.18893 -0.3905,6.60412 -8.5772,1.77882 -15.6003,5.02294 -21.29174,9.53809 -5.20649,3.01235 -14.1102,11.77142 -17.2046,15.74635 -3.08707,3.96788 -7.41331,11.36174 -9.01028,14.17279 -2.96273,5.31335 -3.37071,9.15661 -4.87351,19.45033 -0.0375,1.42779 1.35844,10.68252 3.59007,14.46319 8.43285,18.78916 21.62501,29.64819 44.13789,33.38938 3.53283,-0.53457 4.67727,1.18899 8.12467,0.72913 -4.24589,-2.66471 -8.22618,-3.6896 -11.8233,-6.89115 -8.15484,-7.2636 -15.94625,-22.75168 -16.43092,-35.6602 -1.08213,-28.35939 16.29897,-49.36242 37.17005,-55.76354 0.20159,1.28175 1.04998,7.62732 1.6542,8.52561 -1.71651,0.81822 -1.27639,4.64175 -3.11414,5.34578 0.57405,4.51515 -7.02281,5.41344 -6.19924,10.16204 -5.31899,6.9481 -7.75926,9.84627 -11.09784,18.66256 0.11222,0.96258 -1.10157,3.91065 -1.8431,4.05698 0.60957,5.80902 -0.88053,12.02828 1.2262,16.83186 5.06241,20.77691 26.96373,31.73208 57.97007,23.53072 12.28852,-3.24948 22.90337,-8.77683 32.33433,-17.95149 4.85546,-4.72887 11.21202,-11.13167 13.3509,-18.40598 3.61488,-12.33109 -8.88566,-26.71929 -15.16723,-33.35922 -7.96763,-8.40803 -19.58228,-15.42549 -30.4289,-23.08494 -14.4381,-10.20463 -28.46089,-20.87644 -27.17746,-45.24849 0.28872,-5.4329 4.55237,-13.97288 6.98024,-17.75186 7.55768,-11.74125 18.4043,-17.53251 32.61599,-23.96548 5.76081,-2.6024 12.26173,-4.34372 19.13483,-5.6593 5.91447,-1.13203 14.26893,-2.1854 20.67512,-2.26209 l 1.39227,0 c 5.87866,0.0696 11.88025,1.34039 16.16533,2.54009 8.77147,4.91072 10.84831,4.48836 9.62183,17.09041 -3.37071,9.48282 -8.99252,15.68234 -18.36849,20.66976 -5.6968,3.0304 -9.38132,4.67191 -15.69475,6.53278 -3.03745,0.89322 -6.20657,2.54742 -9.95538,3.2585 -5.59699,1.06775 -7.06736,0.62734 -15.75171,0.39558 -1.16924,-0.76803 -0.53486,-2.76621 -0.53486,-2.76621 l -6.10506,-3.78067 1.91106,-3.88584 c 5.01222,0.29577 8.92315,0.53458 18.96565,-2.45804 8.95502,-2.66669 14.50042,-5.38328 22.18469,-11.07472 4.52755,-3.35098 6.47752,-1.60965 5.69144,-6.44369 -0.97498,-5.93731 -6.44538,-5.95535 -13.23135,-6.17612 -10.59513,-0.35131 -16.99596,1.61671 -23.12048,4.20106 -6.12649,2.58999 -12.75909,4.31384 -16.81607,7.85372 -1.86087,0.29605 -3.75388,2.44028 -6.06756,2.30128 -1.71652,2.11942 -2.99291,4.3457 -6.06757,5.17632 -1.01248,4.1176 -4.06939,7.57008 -6.06954,10.34898 -2.09969,2.91818 0.0767,7.7291 1.14443,14.8286 1.06944,7.09979 7.09443,12.24228 11.9107,17.70732 8.3009,5.28854 14.43106,11.09248 22.43619,17.01569 2.45268,1.81096 5.21889,3.27598 7.65212,5.08187 4.5597,3.36338 8.05504,8.75201 11.86587,13.05316 2.64188,2.98021 6.04445,6.13693 8.03023,11.33834 0.55967,1.44556 1.96801,3.7787 2.33342,4.87323 1.84818,5.48308 3.15671,14.35605 3.03716,21.02079 -0.44548,25.58782 -27.30405,43.99916 -41.08633,50.19304 -6.75384,3.04281 -25.71414,9.06047 -32.78178,10.27427 l 0,0 z"
         id="path2403"
         style="fill:#bd141d;fill-opacity:1"
         inkscape:connector-curvature="0" />
      <path
         d="m 158.35561,94.33279 c -2.72364,-1.57216 -6.77357,-1.00713 -6.77357,-1.00713 -8.57721,1.77347 -15.6003,5.01759 -21.29175,9.53978 -5.20677,3.00531 -14.10483,11.76466 -17.19754,15.73959 -3.09441,3.9676 -7.42037,11.36315 -9.01226,14.1742 -2.96781,5.31194 -3.37579,9.15492 -4.87858,19.45399 -0.0375,1.4278 1.35815,10.67886 3.59712,14.4632 8.4258,18.78915 21.61796,29.64987 44.13619,33.39135 3.52748,-0.53486 4.67896,1.18165 8.12439,0.72912 -4.25124,-2.66668 -8.23153,-3.69157 -11.82132,-6.89819 -8.16189,-7.26191 -15.94795,-22.74999 -16.43797,-35.66049 -1.08213,-28.35939 16.29897,-49.36242 37.17004,-55.76353 0,0 -2.88575,-6.59679 -5.61475,-8.16189 l 0,0 z"
         id="path2405"
         style="fill:#eceded"
         inkscape:connector-curvature="0" />
    </g>
    <g
       id="g4176">
      <rect
         style="fill:#e4e4e4;fill-opacity:1;stroke:none"
         id="rect3004"
         width="126.28543"
         height="65.060974"
         x="519.21991"
         y="244.04184" />
      <g
         transform="matrix(1.0163754,0,-0.12700434,0.98388844,0,0)"
         style="font-size:70.56472015px;font-style:normal;font-weight:normal;line-height:125%;letter-spacing:0px;word-spacing:0px;fill:#000000;fill-opacity:1;stroke:none;font-family:Sans"
         id="text3006">
        <path
           d="m 606.94438,304.74075 -12.23168,0 0,-19.57068 -17.64118,0 0,19.57068 -12.23167,0 0,-47.03166 12.23167,0 0,18.15801 17.64118,0 0,-18.15801 12.23168,0 z"
           style="font-variant:normal;font-weight:bold;font-stretch:normal;fill:#000000;font-family:Aharoni;-inkscape-font-specification:Aharoni Bold;fill-opacity:1"
           id="path2995" />
        <path
           d="m 658.04179,281.20769 c -5e-5,4.89269 -1.47589,9.42358 -4.42753,13.59267 -2.95172,4.16911 -6.72458,7.05763 -11.31861,8.66554 -2.43487,0.8499 -4.91566,1.27485 -7.44237,1.27485 l -18.05464,0 0,-47.03166 18.05464,0 c 4.41027,5e-5 8.49898,1.22896 12.26613,3.68673 3.69818,2.38895 6.53501,5.58182 8.5105,9.57861 1.60787,3.30775 2.41183,6.71884 2.41188,10.23326 z m -12.71406,0 c -3e-5,-3.23878 -0.90736,-6.06412 -2.72198,-8.47603 -2.41191,-3.19284 -6.00675,-4.78927 -10.78455,-4.78931 l -2.79089,0 0,26.56514 2.79089,0 c 4.80077,10e-6 8.39561,-1.59642 10.78455,-4.7893 1.81462,-2.43484 2.72195,-5.27166 2.72198,-8.5105 z"
           style="font-variant:normal;font-weight:bold;font-stretch:normal;fill:#000000;font-family:Aharoni;-inkscape-font-specification:Aharoni Bold;fill-opacity:1"
           id="path2997" />
      </g>
    </g>
  </g>
</svg>
