<?xml version="1.0" encoding="UTF-8"?>
<!-- Created with Inkscape (http://www.inkscape.org/) -->
<svg width="800" height="353.71" version="1.1" viewBox="0 0 211.67 93.586" xmlns="http://www.w3.org/2000/svg">
 <g transform="matrix(1 0 0 1 30.88 -111.61)" stroke-width=".18521">
  <path d="m54.444 112.31c1.1819 0.37041 2.2767 0.889 3.0845 1.7746 1.0671 1.1726 0.84296 2.7305 0.41857 4.0142-1.0964 3.3126-3.6327 5.3446-6.6876 6.8191-2.1968 1.0615-4.5146 1.81-6.8395 2.4863-1.6505 0.47969-3.4234 0.24818-5.1443 0.11298-0.15346-0.0132-0.37042-0.0296-0.35004-0.21484 0.09075-0.96334-0.7911-1.0245-1.2967-1.4229-0.22225-0.1741-0.70961-0.18521-0.52044-0.59082 0.17595-0.37041 0.27781-0.97446 0.8427-0.95223a16.824 16.824 0 0 0 5.1702-0.67628 21.987 21.987 0 0 0 7.0395-3.2716c0.46302-0.32782 0.90964-0.70564 1.4208-0.92604 0.43736-0.18521 0.87074-0.26141 0.86333-0.87445 0-0.74083-0.05371-1.5023-0.74083-1.9471a2.9863 2.9863 0 0 0-1.2726-0.43338c-1.9434-0.254-3.8753-0.18521-5.8057 0.0352-1.1893 0.12965-2.2934 0.60377-3.4031 1.0186-1.297 0.48736-2.6696 0.88583-3.842 1.597-1.56 0.94667-3.2716 1.5804-4.6964 2.8601-1.2965 1.1726-1.6782 2.8657-2.9025 4.018-0.37042 0.35587-0.22437 1.0411-0.10954 1.5174 0.26696 1.1001 0.45032 2.2228 0.70961 3.316 0.42413 1.8042 1.7433 3.0419 2.9139 4.3683 1.1112 1.2541 2.6083 2.0082 3.8587 3.0864 1.369 1.1819 2.8472 2.2413 4.3034 3.3216 1.1112 0.82814 2.4564 1.3838 3.3345 2.512 1.5301 1.9727 3.379 3.6809 4.6887 5.8409 1.2338 2.0376 1.7841 4.2738 1.9579 6.582 0.15214 2.0746 0.15214 4.1497-0.58896 6.1762a16.834 16.834 0 0 1-3.3457 5.4668 26.305 26.305 0 0 1-8.4492 6.2632c-2.9845 1.3912-6.1039 2.3082-9.2736 3.1345a45.598 45.598 0 0 1-9.907 1.389 31.679 31.679 0 0 1-8.5955-0.90381c-2.3934-0.57785-4.7479-1.2449-7.0173-2.1878-2.7787-1.1578-5.2369-2.7305-6.895-5.3724-0.9615-1.5375-2.0209-3.0012-2.6472-4.7294-0.50006-1.3801-0.58896-2.8231-0.76491-4.246a16.048 16.048 0 0 1 1.3171-8.5214 21.061 21.061 0 0 1 3.8902-5.8002c2.2728-2.4527 5.098-4.1291 7.8176-5.9706 0.98928-0.67045 2.1508-0.86704 3.2475-1.1874 1.0967-0.32041 2.1915-0.72046 3.3012-1.0356 0.59452-0.16854 1.1668-0.34078 1.7986-0.33337 1.7304 0.0222 1.7193 0 1.497 1.7468-0.04472 0.34476-0.1688 0.4318-0.50403 0.49478-2.2786 0.42068-4.2775 1.4727-6.1669 2.7786a27.972 27.972 0 0 0-5.1869 4.6757c-1.256 1.4412-2.2378 3.1234-3.0919 4.8498-1.7079 3.4457-2.0767 6.9929-0.54266 10.585 1.5153 3.5512 3.779 6.5542 7.208 8.4381 2.2378 1.23 4.6424 2.16 7.2766 2.1452 0.65934 0 1.206 0.50562 1.9526 0.33152-0.79851-0.67627-1.7656-0.95594-2.6048-1.456-1.4727-0.88001-2.4286-2.1786-3.316-3.5642-1.1115-1.7452-2.0156-3.6105-2.4545-5.6391-0.37042-1.7378-0.58737-3.4957-0.3466-5.3054 0.30956-2.3156 0.78184-4.5498 1.8656-6.649 1.9008-3.6843 4.722-6.3685 8.5214-7.9878 0.37042-0.1614 0.80222-0.27596 1.243-0.42254 0.37042 1.5118 0.59478 2.9138-0.313 4.3942a13.003 13.003 0 0 1-1.3356 1.7637c-0.87815 1.0152-1.2967 2.3379-2.1952 3.3827-1.2967 1.519-2.0582 3.4197-2.4823 5.2811a10.652 10.652 0 0 0 0.19632 5.2038c0.66146 2.3027 1.7949 4.2886 3.7327 5.7724a12.041 12.041 0 0 0 5.515 2.3064c2.8009 0.45006 5.6002 0.24818 8.3362-0.39634 3.3179-0.7837 6.4243-2.0955 9.1125-4.2868a27.66 27.66 0 0 0 4.8165-4.9072c1.9024-2.5567 1.8748-5.1202 0.37042-7.829-1.7171-3.0972-4.0531-5.6203-6.8376-7.7803-3.1253-2.4268-6.5228-4.4701-9.6329-6.9358-2.8046-2.223-4.8165-4.9572-5.4631-8.4788-0.58896-3.2015 0.11112-6.2206 1.9045-8.9958 1.756-2.7157 4.1571-4.6164 6.9895-6.0891 1.7171-0.89482 3.4457-1.747 5.2721-2.3842a28.953 28.953 0 0 1 7.0543-1.4822c0.33523-0.0278 2.1987-0.41116 4.1124-0.37042a19.735 19.735 0 0 1 4.5831 0.70591" fill="#bd1212"/>
  <g fill="#e9e9e9">
   <path class="cls-2" d="m180.78 186.53c-1.6319-0.24262-3.103-0.43524-4.5646-0.69479a7.8954 7.8954 0 0 0-1.5597-0.12039c-0.28707 0-0.67072-0.12038-0.77999 0.29104a1.0171 1.0171 0 0 0 0.18521 0.95198c0.41328 0.51143 0.7911 1.0504 1.2245 1.6341-0.68897 0.18521-1.1112-0.23918-1.5637-0.40216-2.3635-0.87419-4.8384-1.2208-7.2763-1.7653-2.4082-0.53552-4.8739-0.67443-7.2247-1.6044-1.406-0.55562-3.0475-0.60933-4.5667-0.43524-1.8098 0.20744-3.4565-0.42412-5.1866-0.64664-1.7912-0.23151-3.5624-0.52043-5.3909-0.52043-1.8674 0-3.7309-0.3482-5.602-0.48895-3.8682-0.2929-7.7398-0.51859-11.621-0.63739-1.9841-0.0609-3.9513-0.51673-5.928-0.70008-1.3449-0.12436-2.6934-0.037-3.9105 0.68342a1.4004 1.4004 0 0 1-1.2523 0.0796c-0.9652-0.48154-1.8526-0.20743-2.7342 0.10743-0.74083 0.26326-1.3875 0-2.0137-0.29634-0.66331-0.30744-1.2967-0.67627-2.0505-0.6985-0.12065 0-0.3003 0.0132-0.35216-0.0574-0.70219-0.9353-0.92603-0.22596-1.1745 0.33919-0.20003 0.46117-0.47228 0.57045-0.92604 0.32227a2.0934 2.0934 0 0 0-2.0378-0.0241c-0.8763 0.45006-1.8156 0.22781-2.7138 0.37042-2.7212 0.44661-5.4742 0.26696-8.2066 0.48365-1.0636 0.0852-2.0378 0.2667-2.9305 0.84085-0.36142 0.23363-0.70961 0.32253-1.1115 0.14473-1.0689-0.46699-2.1415-0.37042-3.2015 0.0238a2.9771 2.9771 0 0 1-0.90382 0.14658c-2.7194 0.12964-5.439 0.14261-8.1624 0.14261-2.6154 0-5.2922-0.0389-7.8285 0.4908-3.579 0.74083-7.2247 0.61119-10.785 1.2393-2.1061 0.37042-4.2442 0.51144-6.3169 1.1689-2.2767 0.72072-4.6905 0.86333-7.0525 1.18-2.6416 0.35375-5.2869 0.67813-7.9065 1.1634-1.8637 0.34449-3.705 0.7964-5.5761 1.0986-1.6026 0.25744-3.1644 0.67072-4.7405 1.0319a2.1601 2.1601 0 0 1-0.80777-0.0482c-0.68527-0.0944-1.369-0.23891-2.0026 0.32967-0.34264 0.30772-0.87418 0.40958-1.3891 0.38365-1.7026-0.0873-3.3348 0.34634-4.9668 0.74083-1.6671 0.40005-3.3345 0.74084-5.0017 1.1115-1.6319 0.35745-3.2753 0.70776-4.872 1.2523-2.1878 0.74083-4.396 1.469-6.7469 1.4819a3.8902 3.8902 0 0 0-1.0671 0.22225c-0.37042 0.10213-0.80962 0.6096-1.0671-0.16668-0.018521-0.0556-0.35004-0.05-0.52387-0.0111q-3.4756 0.77814-6.8546 1.8822c-3.8661 1.2597-7.6118 2.862-11.486 4.0939-3.1493 1.0022-6.3354 1.9471-9.6237 2.4379-0.50562 0.0759-1.1912 0.30003-1.4449-0.23337-0.28522-0.60589 0.46672-0.81491 0.83344-1.1022 0.4744-0.37042 1.1115-0.47228 1.6415-0.74083 2.1508-1.1303 4.4812-1.7526 6.7524-2.553 2.7787-0.97816 5.6242-1.5671 8.4807-2.2082 2.3582-0.53155 4.6776-1.2764 6.9913-2.0227 3.0493-0.98557 6.0261-2.1656 9.0773-3.1493 1.7042-0.55563 3.4197-1.0874 5.1313-1.6192 1.9394-0.60193 3.9476-0.99113 5.928-1.469 1.4504-0.35005 2.9009-0.70221 4.3553-1.0393 2.2542-0.52229 4.5127-1.0282 6.7654-1.5523 1.4579-0.33707 2.9009-0.74083 4.3646-1.0356 2.54-0.51488 5.048-1.1745 7.6136-1.5745 1.8526-0.28734 3.655-0.77629 5.4964-1.0822 3.0178-0.50376 6.0095-1.1724 9.0588-1.4817 1.2208-0.12621 2.4082-0.42069 3.6272-0.6096 2.6379-0.40931 5.2943-0.66331 7.9251-1.1374 2.3212-0.41857 4.6924-0.55562 7.0395-0.84481 1.7338-0.21855 3.4586-0.51303 5.1869-0.74083 2.7953-0.37041 5.6057-0.67071 8.3899-1.1115 3.129-0.50403 6.2984-0.67813 9.4255-1.1393 1.7005-0.25004 3.4234-0.38524 5.1424-0.48737 5.2591-0.31485 10.518-0.6297 15.789-0.62785 5.0535 0 10.1 0.20373 15.146 0.54266 3.4698 0.23362 6.9154 0.64664 10.374 1.0171 2.6824 0.28919 5.3464 0.75406 8.0158 1.1562 2.2378 0.33708 4.4849 0.63711 6.7061 1.0575 3.3345 0.63183 6.6506 1.2967 9.9459 2.0619 2.6935 0.63368 5.3724 1.3115 8.0417 2.0897 2.7342 0.80037 5.3724 1.8524 8.0584 2.7787 0.0704 0.0238 0.11297 0.12964 0.30003 0.35745m-87.415-28.29c0.70961-0.85963 1.0096-1.8693 1.2782-2.8268 0.37042-1.3414 1.2078-2.4231 1.7619-3.655 0.6686-1.4819 1.4817-2.899 2.2561-4.3331 2.249-4.1553 4.6778-8.177 8.6492-10.972 0.30771-0.21696 0.59108-0.5371 1.0356-0.51488 0.51514 0.0238 1.1282-0.0741 0.85037 0.79455a0.254 0.254 0 0 0 0 0.1852c1.0059 1.5563-0.30004 2.5638-1.0541 3.4623-1.4819 1.7582-2.4082 3.8179-3.6216 5.7132a14.635 14.635 0 0 0-1.1708 2.0378c-0.18521 0.42439-1.8394 3.1956-2.5379 4.6813-0.74084 1.5933-1.6486 4.5831-2.2712 6.091-0.80222 1.9434-1.5097 3.9809-2.9808 5.5687-0.88556 0.95409-1.8616 1.8137-3.3345 1.5542a4.6739 4.6739 0 0 0-0.74083-0.0296c-2.1545-0.0408-3.0882-0.96308-3.2864-3.1493-0.39661-4.3979-0.4281-8.7826 0.12964-13.177 0.39079-3.0734 0.74083-3.1808 1.7227-6.1132a1.3338 1.3338 0 0 1 2.2027-0.50747 0.45191 0.45191 0 0 1 0.10927 0.55562 2.7138 2.7138 0 0 0-0.20558 0.92631c-0.03519 0.28919-0.02593 0.74083 0.15002 0.8763 1.0152 0.79295 0.24818 2.6231 0.55562 3.5512 0.59849 1.8526-0.01111 0.98372 0.47995 2.7027 0.64082 2.2434-0.29448 4.322 0.02593 6.5728"/>
   <path class="cls-2" d="m97.204 137.42c-0.71146-0.97075-6.015-1.2859-10.244 0.70776-3.4938 1.6449-4.6516 2.8284-4.8165 3.1975-0.05927 0.12409 0.15558-0.75407 0.02778-1.2319-0.06112-0.22807-0.57044-0.16325-0.85407-0.14473-0.43709 0.0296-0.38894-0.17039-0.97234 0.12065-0.18521 0.0945-0.85037-0.34105-0.9263 0.0111-0.18521 0.93716-0.31485 3.6698-1.1115 6.0166-1.3708 4.009-5.678 10.578-9.7996 14.724-1.2967 1.2965-5.489 5.3538-8.7066 3.3346-0.74083-0.45958-0.75935-1.5433-0.83185-2.4604-0.23707-3.0864 0.74083-5.0588 1.9341-7.8158 0.21669-0.49821 0.41857-0.5297 0.91519-0.74084 0.74083-0.32041 1.493-0.6559 2.249-0.95779 2.1042-0.84111 4.0473-1.7042 5.874-3.0567 2.073-1.5356 3.7716-2.6583 5.4557-5.4795 1.447-2.4289 1.7193-7.0062-2.0561-7.3766-3.6661-0.37069-8.4659 2.5638-10.93 5.2311-3.0176 3.279-3.0586 4.7498-4.7088 8.0936a1.91 1.91 0 0 1-0.2577 0.39819c-0.51673 0.6948-1.419 1.0134-2.1524 1.1782-0.55562 0.12224-1.3838 0.47625-0.92631 0.90038 0.65193 0.6059 0.24262 1.3097 0.95964 1.3097 0.91308 0 0.21299 1.2245 0.08149 1.6896-0.88186 3.1141-1.2782 6.2521-0.48551 9.4477 0.39846 1.6042 1.3097 2.862 2.8472 3.5975 2.114 1.0115 5.7039 0.33522 7.7179-0.51858 5.1977-2.2048 10.996-10.411 11.15-11.547-0.54081 3.3068-1.3227 6.0724-1.7412 9.1162-0.16484 1.1933 0.99483 1.7727 2.4675 2.1119 0.60933 0.14076 1.8264-1.1112 2.3175-0.55562 0.18521 0.20558 0.60007-0.23363 0.58896-0.54293-0.02381-0.62785-0.15002-0.6985-0.24448-2.2119a24.586 24.586 0 0 1 0.2704-3.3994c0.11483-0.55563 0.88926-4.3497 0.82814-5.0165-0.09631-1.0411 0.21696-1.1467 0.33523-2.6027 0.41698-5.0646 2.9342-7.9399 4.0754-9.0329 5.9113-5.6206 10.987-4.372 11.248-4.1775 0.73184 0.54266 1.0245-1.0022 0.63923-1.3745-0.42598-0.40957-0.15002-0.8374-0.2241-0.94112m-25.32 2.6842c3.4123 3.2419-9.9907 10.144-8.6603 7.2247 2.3138-5.0721 7.6359-8.1973 8.6603-7.2247m48.071 5.139c0.10742-0.74083 0.0667-1.5727 0.18521-2.2823 0.24818-1.5637 1.71-2.8935 2.862-3.9068 0.53182-0.46673 0.83-1.1374 1.443-1.5764 0.45773-0.32808 0.92631-0.52069 1.3208-0.2704 0.39476 0.25003 0.0892 6.5542-1.5616 12.13-1.7986 6.0299-2.3971 7.8843-3.601 11.237-0.33919 0.95383 0.19791 0.92605 0.61648 0.72602 1.297-0.60933 5.4319-7.1488 6.8546-10.287 1.0245-2.2675 2.9938-6.2984 4.105-9.2848 0.53896-1.4523 1.0911-3.0752 2.2119-4.6535 0.26114-0.37042 0.93715-1.543 4.4164-1.6023 0.61674-0.0111-0.0241 1.7079 1.0168 1.315 0.32623 0-0.0593 0.7784-1.0279 1.6804-1.7156 1.5989-2.6122 4.5405-2.0029 6.8173 0.57996 2.1696 3.3774 4.6572 4.9297 6.2283 2.4934 2.521 2.8212 5.6055 2.4082 8.8212-0.24262 1.91-1.5301 3.3753-3.0623 4.5238-1.5319 1.1486-3.3012 1.9545-5.0406 2.649-1.7859 0.71332-3.655 1.2597-5.4668 1.9508a2.1786 2.1786 0 0 1-1.7137-0.10742c-0.6686-0.33708-1.3467-0.29104-2.0561-0.0796-0.64664 0.18521-1.3171 0.25929-2.0378-0.0852 0.74083-1.0763 1.8526-1.4488 2.9027-1.8526 3.3086-1.2523 6.2762-3.0604 9.0681-5.2147a8.5011 8.5011 0 0 0 1.91-2.1841c1.1393-1.7489 0.82972-3.7346-0.77814-5.8854-1.3578-1.8134-3.1994-3.279-4.2405-5.311a13.873 13.873 0 0 1-0.74083-1.8431c-0.70036 1.5338-1.2266 2.6157-1.9137 4.1124-4.372 11.234-9.1718 14.718-10.791 13.616-0.4445-0.25215-0.50589-1.0171-1.2412-1.0208-0.76702 0-0.65219 0.43524-1.4819 1.08-0.83 0.64452-1.8045 1.1837-5.2239 1.2779-0.90223 0.0262-2.2437-0.0979-3.4383-0.80169a6.4836 6.4836 0 0 1-2.9474-3.6348c-0.88529-2.8305-1.1483-5.6002-0.48154-8.5696 0.75406-3.3549 1.3356-5.4353 3.2679-8.5214l0.51514-0.98002c0.47229-1.1208 1.269-2.0376 1.6875-3.2068 0.37967-1.0578 1.2967-1.8524 2.2416-2.495 0.61304-0.42068 1.3578-0.38734 2.0378-0.0484 0.48154 0.24263 0.4871 0.74084 0.49636 1.206a0.83185 0.83185 0 0 1-0.254 0.65591c-1.1816 1.2023-1.9987 2.6138-2.1654 4.3108-0.0574 0.60378-0.62812 0.84826-0.98928 1.6671-0.0815 0.18521-0.24448 0.58923-0.30745 0.6985-0.0945 0.16669-0.0333 0.42968-0.1852 0.75935-0.55563 1.1819-1.5192 2.8268-2.123 4.8461-0.24262 0.81704-0.22966 1.9082-0.40376 2.7305-0.6297 2.9808-0.67812 7.7991 2.9512 7.9195 2.9046 0.0963 7.3803-14.227 7.8176-17.254"/>
   <path d="m16.323 140.67a1.0911 1.0911 0 0 0 0.25188-0.0722 2.1582 2.1582 0 0 0-0.25188 0.0722 12.258 12.258 0 0 0-1.5653 0.3982c-1.647 0.53181-3.1493 1.3801-4.6016 2.3733a27.845 27.845 0 0 0-5.1869 4.6773c-1.2578 1.4393-2.2378 3.1216-3.0938 4.848-1.7063 3.4457-2.0749 6.9932-0.54292 10.585 1.5153 3.5512 3.7809 6.5542 7.2099 8.4381 2.236 1.2303 4.6408 2.1601 7.2766 2.1452 0.65775 0 1.206 0.50589 1.9526 0.33153-0.80036-0.67601-1.7674-0.95568-2.6064-1.456-1.4729-0.87974-2.4289-2.1786-3.316-3.5624-1.1115-1.7468-2.0156-3.6124-2.4527-5.6409-0.37042-1.7375-0.58923-3.4957-0.3466-5.3054 0.30745-2.3156 0.78184-4.5498 1.8637-6.6487 1.9005-3.6846 4.722-6.3669 8.5214-7.9878 0.37042-0.15954 0.80195-0.27623 1.2449-0.42254a1.7674 1.7674 0 0 0-0.07779-0.21299s-0.94297-1.8656-1.873-2.3323a3.0715 3.0715 0 0 0-2.1526-0.3003"/>
   <path class="cls-2" d="m166.62 147.1-2.5934 8.3677c-0.34263 1.0226-0.42995 2.0249-0.6559 3.0456h-0.0593c-0.25558-0.99852-0.40005-1.9971-0.76861-2.9993l-2.5808-8.414h-14.029v3.2549h3.3345v14.264h4.2608v-14.264h3.0364l5.0668 14.264h3.4788l5.9669-17.519z"/>
  </g>
 </g>
</svg>
