<svg xmlns="http://www.w3.org/2000/svg" xmlns:xlink="http://www.w3.org/1999/xlink" width="800.115" height="210.832" fill="none"><g fill="#000"><use xlink:href="#B"/><use xlink:href="#C"/></g><g stroke="#fff" stroke-width=".5"><use xlink:href="#D"/><use xlink:href="#E"/><use xlink:href="#F"/><use xlink:href="#G"/><path d="M391.267 43.997l-.26-.6a68.72 68.72 0 0 1-15.745 6.91l-1.53.433-1.276.324-.281.07-1.217.276-.184.038-1.081.211-.238.043-1.141.189-.238.032-1.022.141h-.141l-1.081.103h-.243l-1.081.065h-.027-.979-.216-1-.173c-.324 0-.643-.038-.957-.07h-.054a16.73 16.73 0 0 1-.946-.119h-.162l-.892-.168-.108-.027a13.14 13.14 0 0 1-.854-.216l-.822-.27-.114-.038-.762-.319-.06-.027-.725-.373a8.65 8.65 0 0 1-2.368-1.925h0l-.103-.119c-1.373-1.676-2.098-3.871-2.163-6.488a6.68 6.68 0 0 0-2.624 1.368c-.761.646-1.368 1.455-1.775 2.367s-.605 1.903-.579 2.902.277 1.978.732 2.867a6.68 6.68 0 0 0 1.899 2.269 6.67 6.67 0 0 0 5.651 1.167 6.67 6.67 0 0 0 2.643-1.331 4.85 4.85 0 0 0 .249-.222c2 .603 4.081.894 6.169.865a40.59 40.59 0 0 0 9.387-1.244v21.212c-.043 1.622-.184 2.66-1.254 3.536L301.29 135.38a3.65 3.65 0 0 1-5.126-.508l-39.082-47.717c-.609-.748-.898-1.708-.802-2.668s.567-1.844 1.311-2.458l70.248-57.536c1.13-.919 2.163-.811 3.893-.449l22.79 4.569a3.5 3.5 0 0 0 .119-.249 64.61 64.61 0 0 1 10.641-15.518 74.38 74.38 0 0 0-14.231-7.029C341.678 2.339 331.451.602 320.371.606c-10.962 0-21.087 1.737-30.376 5.212-8.945 3.259-17.132 8.308-24.061 14.837a67.59 67.59 0 0 0-15.842 23.358c-3.807 9.159-5.711 19.42-5.715 30.782 0 11.095 1.905 21.221 5.715 30.376a70.04 70.04 0 0 0 39.904 39.103c9.285 3.659 19.415 5.499 30.387 5.521 11.095 0 21.321-1.837 30.679-5.51a72.39 72.39 0 0 0 24.261-15.442c6.881-6.71 12.309-14.764 15.945-23.661 3.807-9.156 5.711-19.281 5.715-30.376 0-11.376-1.905-21.646-5.715-30.809z"/><use xlink:href="#C"/></g><use xlink:href="#D" fill="url(#A)"/><use xlink:href="#E" fill="url(#A)"/><use xlink:href="#F" fill="url(#A)"/><use xlink:href="#H" fill="url(#A)"/><use xlink:href="#H" fill="url(#A)"/><use xlink:href="#H" fill="url(#A)"/><use xlink:href="#I" fill="url(#A)"/><use xlink:href="#I" fill="url(#A)"/><use xlink:href="#G" fill="url(#A)"/><use xlink:href="#B" fill="url(#A)"/><use xlink:href="#C" fill="url(#A)"/><defs><linearGradient id="A" x1="400.189" y1="154.348" x2="400.189" y2="31.663" gradientUnits="userSpaceOnUse"><stop stop-color="#0b9cf5"/><stop offset=".99" stop-color="#1c35b0"/></linearGradient><path id="B" d="M391.267 43.997l-.26-.6a68.72 68.72 0 0 1-15.745 6.91l-1.53.433-1.276.324-.281.07-1.217.276-.184.038-1.081.211-.238.043-1.141.189-.238.032-1.022.141h-.141l-1.081.103h-.243l-1.081.065h-.027-.979-.216-1-.173c-.324 0-.643-.038-.957-.07h-.054a16.73 16.73 0 0 1-.946-.119h-.162l-.892-.168-.108-.027a13.14 13.14 0 0 1-.854-.216l-.822-.27-.114-.038-.762-.319-.06-.027-.725-.373a8.65 8.65 0 0 1-2.368-1.925l-.103-.119c-1.373-1.676-2.098-3.871-2.163-6.488a6.68 6.68 0 0 0-2.624 1.368c-.761.646-1.368 1.455-1.775 2.367s-.605 1.903-.579 2.902.277 1.978.732 2.867a6.68 6.68 0 0 0 1.899 2.269 6.67 6.67 0 0 0 5.651 1.167 6.67 6.67 0 0 0 2.643-1.331 4.85 4.85 0 0 0 .249-.222c2 .603 4.081.894 6.169.865a40.59 40.59 0 0 0 9.387-1.244v21.212c-.043 1.622-.184 2.66-1.254 3.536L301.29 135.38a3.65 3.65 0 0 1-5.126-.508l-39.082-47.717c-.609-.748-.898-1.708-.802-2.668s.567-1.844 1.311-2.458l70.248-57.536c1.13-.919 2.163-.811 3.893-.449l22.79 4.569a3.5 3.5 0 0 0 .119-.249 64.61 64.61 0 0 1 10.641-15.518c-4.479-2.844-9.25-5.2-14.231-7.029-9.372-3.478-19.599-5.216-30.679-5.212-10.962 0-21.087 1.737-30.376 5.212-8.945 3.259-17.132 8.308-24.061 14.837a67.59 67.59 0 0 0-15.842 23.358c-3.807 9.159-5.711 19.42-5.715 30.782 0 11.095 1.905 21.221 5.715 30.376a70.04 70.04 0 0 0 39.904 39.103c9.285 3.659 19.415 5.499 30.387 5.521 11.095 0 21.321-1.837 30.679-5.51a72.39 72.39 0 0 0 24.261-15.442c6.881-6.71 12.309-14.764 15.945-23.661 3.807-9.156 5.711-19.281 5.715-30.376 0-11.376-1.905-21.646-5.715-30.809z"/><path id="C" d="M358.533 29.414l10.976 2.195c.957.104 1.833.58 2.441 1.326s.896 1.701.803 2.659v9.192c-3.097.925-6.302 1.444-9.533 1.541-1.968 0-3.531-.303-4.553-.865-.784-1.52-2.121-2.681-3.736-3.244a6.58 6.58 0 0 0 1.244 3.785l.032.043a4.67 4.67 0 0 0 .93.854c.362.256.752.47 1.163.638h.027l.649.238h.065l.703.195.752.146h.06l.762.097h.13l.789.059h.108.795.816.541.205l.454-.032h.222l.465-.043h.205l.541-.059h.151c7.267-.93 16.405-4.423 22.59-8.354-3.489-7.182-8.252-13.671-14.058-19.152-2.117-1.995-4.362-3.85-6.721-5.553a59.83 59.83 0 0 0-10.019 14.334z"/><path id="D" d="M407.824 12.955c0-4.596 2.406-7.002 7.029-7.878 13.541-2.052 27.219-3.075 40.915-3.06 29.738 0 58.639 7.873 58.639 49.009 0 33.258-21.877 47.263-50.761 47.263a111.51 111.51 0 0 1-23.412-2.622v47.479c0 4.596-1.968 6.564-6.564 6.564h-19.281c-4.596 0-6.564-1.968-6.564-6.564zm47.7 62.797c15.096 0 27.787-4.158 27.787-23.85 0-21.882-14.226-26.694-27.576-26.694a79.97 79.97 0 0 0-15.534 1.752v47.479c5.039 1.098 10.289 1.314 15.323 1.314z"/><path id="E" d="M3.748 123.452c.876-4.374 3.72-5.034 7.002-3.72 9.408 3.72 23.85 8.11 37.416 8.11 14.22 0 22.32-4.818 22.32-17.302 0-12.912-8.316-17.302-23.634-22.758C22.348 79.029.25 71.372.25 42.05.25 13.826 25.192.914 53.855.914a115.62 115.62 0 0 1 33.48 5.056c4.374 1.314 5.688 3.936 4.596 8.316l-2.628 11.149c-1.081 4.374-3.504 5.466-7.44 4.153s-14.004-4.374-25.164-4.374c-13.782 0-26.035 1.314-26.035 16.848 0 13.35 13.128 16.194 27.576 21.222 24.948 8.538 42.234 21.882 42.234 45.078 0 26.694-21.006 43.98-49.89 43.98-19.254 0-35.01-3.504-44.635-7.224-3.942-1.53-5.472-4.812-4.596-9.192z"/><path id="F" d="M200.893 10.111c0-4.596 1.974-6.564 6.564-6.564h19.038c4.596 0 6.564 1.968 6.564 6.564v133.012c0 4.596-1.968 6.564-6.564 6.564h-19.038c-4.591 0-6.564-1.968-6.564-6.564V86.696h-54.481v56.449c0 4.596-1.968 6.564-6.564 6.564H120.81c-4.596 0-6.564-1.968-6.564-6.564V10.133c0-4.596 1.968-6.564 6.564-6.564h19.038c4.596 0 6.564 1.968 6.564 6.564v51.199h54.481z"/><path id="G" d="M15.844 173.462c0-1.022.438-1.514 1.514-1.757a57.47 57.47 0 0 1 9.527-.822c6.743 0 13.285 1.763 13.285 11.138 0 7.57-5.029 10.749-11.625 10.749-1.311.005-2.619-.109-3.909-.341v9.965c0 1.027-.438 1.465-1.465 1.465h-5.861c-1.027 0-1.465-.438-1.465-1.465zm8.792 13.193c.731.081 1.466.114 2.201.097 2.639 0 4.834-.784 4.834-4.542 0-4.255-2.493-5.18-4.785-5.18-.754-.012-1.508.053-2.249.195zm19.249-13.242c0-1.022.541-1.563 1.622-1.757 3.114-.507 6.264-.766 9.419-.773 6.737 0 13.285 1.763 13.285 11.138 0 5.326-2.395 8.548-6.007 10.068l6.986 10.549c.584.881.389 1.222-.638 1.222h-6.542a2.28 2.28 0 0 1-2.201-1.271l-5.764-9.624a10.25 10.25 0 0 1-1.368-.195v9.624c0 1.027-.438 1.465-1.465 1.465H45.35c-1.027 0-1.465-.438-1.465-1.465zm8.792 13.631c.735.049 1.514.146 2.201.146 2.633 0 4.834-.833 4.834-4.98 0-4.255-2.493-5.18-4.785-5.18-.751-.019-1.503.013-2.249.097zm43.797 15.34c0 1.027-.438 1.465-1.465 1.465H74.856c-1.027 0-1.465-.438-1.465-1.465v-29.701c0-1.027.438-1.465 1.465-1.465h19.736c1.022 0 1.465.438 1.465 1.465v3.661c0 1.027-.443 1.465-1.465 1.465H82.155v5.915H93.78c1.027 0 1.465.438 1.465 1.465v3.536c0 1.027-.438 1.465-1.465 1.465H82.182v7.029h12.847c1.027 0 1.465.443 1.465 1.465zm13.48 0c0 1.027-.438 1.465-1.465 1.465h-5.84c-1.027 0-1.465-.438-1.465-1.465v-29.701c0-1.027.438-1.465 1.465-1.465h5.861c1.027 0 1.465.438 1.465 1.465zm5.131-5.764c.195-1.027.833-1.222 1.622-.881 1.271.541 5.407 2.249 8.5 2.249 2.163 0 3.715-.833 3.715-3.179 0-2.487-1.514-3.32-4.299-4.326-5.472-2.001-10.408-3.785-10.408-10.403 0-6.451 5.667-9.43 12.214-9.43a26.49 26.49 0 0 1 7.975 1.314c1.022.341 1.319.93 1.125 1.909l-.843 3.644c-.195.979-.784 1.173-1.709.833-.687-.243-3.785-1.368-6.488-1.368-2.201 0-3.909.73-3.909 3.077s2.639 3.244 5.715 4.445c4.104 1.622 8.943 3.617 8.943 9.868 0 6.056-4.866 10.014-11.479 10.014-3.519.045-7.016-.568-10.311-1.806a1.77 1.77 0 0 1-1.081-2.103zm46.095-22.763a1.86 1.86 0 0 1 1.947 1.352l5.18 15.486 1.514-18.027c.049-1.027.541-1.465 1.563-1.465h5.229c1.022 0 1.417.438 1.319 1.465l-3.244 29.701c-.097 1.027-.584 1.465-1.622 1.465h-6.478a1.77 1.77 0 0 1-1.903-1.417l-5.715-17.394-5.569 17.394a1.77 1.77 0 0 1-1.898 1.449h-6.488c-1.027 0-1.514-.438-1.622-1.465l-3.174-29.701c-.097-1.027.292-1.465 1.319-1.465h5.126c1.027 0 1.514.438 1.563 1.465l1.514 18.076 5.18-15.567c.101-.423.353-.795.71-1.045s.793-.358 1.225-.307zm44.451 28.527c0 1.027-.438 1.465-1.465 1.465h-20.179c-1.027 0-1.465-.438-1.465-1.465v-29.701c0-1.027.438-1.465 1.465-1.465h19.736c1.022 0 1.465.438 1.465 1.465v3.661c0 1.027-.443 1.465-1.465 1.465h-12.409v5.915h11.625c1.027 0 1.465.438 1.465 1.465v3.536c0 1.027-.438 1.465-1.465 1.465h-11.625v7.029h12.847c1.027 0 1.465.443 1.465 1.465zm4.688-28.971c0-1.022.541-1.563 1.622-1.757 3.112-.507 6.26-.765 9.414-.773 6.743 0 13.29 1.763 13.29 11.138 0 5.326-2.395 8.548-6.013 10.068l6.986 10.549c.589.881.395 1.222-.633 1.222h-6.548c-.451.031-.9-.074-1.292-.3s-.706-.564-.904-.971l-5.769-9.624c-.46-.035-.917-.1-1.368-.195v9.624c0 1.027-.438 1.465-1.465 1.465h-5.861c-1.022 0-1.465-.438-1.465-1.465zm8.792 13.631c.735.049 1.519.146 2.201.146 2.639 0 4.839-.833 4.839-4.98 0-4.255-2.493-5.18-4.791-5.18-.751-.019-1.503.013-2.249.097zm17.589-14.361c0-1.027.438-1.465 1.465-1.465h23.45c1.022 0 1.465.438 1.465 1.465v3.606c0 1.027-.443 1.465-1.465 1.465h-7.435v24.623c0 1.027-.438 1.465-1.465 1.465h-5.861c-1.027 0-1.465-.438-1.465-1.465V177.76h-7.229c-1.027 0-1.465-.438-1.465-1.465zm52.756 29.701c0 1.027-.438 1.465-1.465 1.465H267.81c-1.027 0-1.465-.438-1.465-1.465v-29.701c0-1.027.438-1.465 1.465-1.465h19.736c1.027 0 1.465.438 1.465 1.465v3.661c0 1.027-.438 1.465-1.465 1.465h-12.436v5.915h11.625c1.027 0 1.465.438 1.465 1.465v3.536c0 1.027-.438 1.465-1.465 1.465h-11.625v7.029h12.847c1.027 0 1.465.443 1.465 1.465zm35.805-.881a31.29 31.29 0 0 1 7.862 2.904c.833.443.979 1.027.389 1.86l-2.639 3.661c-.584.833-1.217.784-1.757.341-3.707-3.026-8.132-5.045-12.847-5.861-11.895-.049-14.118-8.305-14.118-16.854s2.493-16.902 14.41-16.902c12.02 0 14.312 8.305 14.312 16.902 0 5.304-1.66 11.068-5.618 13.95zm-2.979-13.972c0-5.667-.681-10.273-5.764-10.273s-5.813 4.591-5.813 10.273c0 5.569.784 9.965 5.813 9.965s5.758-4.396 5.758-9.965zm26.716 16.875c-9.381 0-12.977-4.007-12.977-12.701v-19.022c0-1.027.438-1.465 1.465-1.465h5.948c1.027 0 1.465.438 1.465 1.465v18.746c0 3.812.341 6.153 4.201 6.153 3.666 0 4.104-2.098 4.104-6.153v-18.746c0-1.027.438-1.465 1.465-1.465h5.948c1.027 0 1.465.438 1.465 1.465v19c.005 8.451-3.168 12.723-13.085 12.723zm38.692-.541c-.437.042-.874-.079-1.227-.341s-.595-.645-.682-1.075l-1.903-6.056h-8.451l-1.855 6.056c-.087.43-.329.814-.682 1.075s-.79.383-1.227.341h-6.007c-1.027 0-1.319-.438-.979-1.368l10.014-29.895c.115-.421.374-.788.731-1.038s.792-.367 1.226-.33h6.218c.437-.042.874.079 1.227.341s.595.645.682 1.075l9.765 29.798c.297.979 0 1.417-1.022 1.417zm-8.013-23.466l-2.347 9.733h4.645zm39.617 21.985c0 1.027-.438 1.465-1.465 1.465h-18.66c-1.027 0-1.465-.438-1.465-1.465v-29.701c0-1.027.438-1.465 1.465-1.465h5.867c1.027 0 1.465.438 1.465 1.465v24.521h11.355c1.027 0 1.465.443 1.465 1.465zm12.063 0c0 1.027-.438 1.465-1.465 1.465h-5.861c-1.022 0-1.465-.438-1.465-1.465v-29.701c0-1.027.443-1.465 1.465-1.465h5.877c1.027 0 1.465.438 1.465 1.465zm3.277-29.701c0-1.027.438-1.465 1.465-1.465h23.445c1.027 0 1.465.438 1.465 1.465v3.606c0 1.027-.438 1.465-1.465 1.465h-7.424v24.623c0 1.027-.438 1.465-1.465 1.465h-5.861c-1.027 0-1.465-.438-1.465-1.465V177.76h-7.229c-1.027 0-1.465-.438-1.465-1.465zm47.873 31.182a1.77 1.77 0 0 1-1.909-1.417l-1.903-6.056h-8.451l-1.855 6.056c-.087.43-.329.814-.682 1.075s-.79.383-1.227.341h-6.007c-1.027 0-1.319-.438-.979-1.368l10.014-29.895c.115-.421.374-.788.731-1.038s.792-.367 1.226-.33h6.202c.437-.042.874.079 1.227.341s.595.645.682 1.075l9.765 29.798c.297.979 0 1.417-1.022 1.417zm-16.221-41.228c0-1.027.438-1.471 1.465-1.471h4.153c1.027 0 1.465.443 1.465 1.471v3.904c0 1.027-.438 1.465-1.465 1.465h-4.147c-1.027 0-1.465-.438-1.465-1.465zm8.208 17.778l-2.347 9.733h4.645zm1.222-17.778c0-1.027.438-1.471 1.465-1.471h4.153c1.022 0 1.465.443 1.465 1.471v3.904c0 1.027-.443 1.465-1.465 1.465h-4.153c-1.027 0-1.465-.438-1.465-1.465zm12.16 10.062c0-1.027.443-1.465 1.465-1.465h23.45c1.027 0 1.465.438 1.465 1.465v3.59c0 1.027-.438 1.465-1.465 1.465h-7.424v24.623c0 1.027-.438 1.465-1.465 1.465h-5.867c-1.027 0-1.471-.438-1.471-1.465V177.76h-7.229c-1.022 0-1.465-.438-1.465-1.465z"/><path id="H" d="M762.527 170.061c8.397-.061 16.789-.554 25.137-1.476 6.213-.595 9.192 1.774 9.468 7.986l.887 15.08c.292 6.213-2.666 9.468-8.873 10.354a277.35 277.35 0 0 1-38.157 2.958c-52.345 0-97.007-21.59-97.326-103.225C653.663 23.953 703.645 0 753.336 0c17.448 0 30.463 2.958 39.633 5.32 6.207 1.779 7.986 5.029 6.802 10.944l-3.244 14.788c-1.184 5.915-4.731 7.689-10.057 5.915-7.094-2.071-15.967-4.434-28.981-4.434-32.831 0-58.855 15.972-59.152 68.317.297 57.082 28.7 69.209 64.192 69.209z"/><path id="I" d="M660.033 194.673c0 6.396-2.741 9.138-9.132 9.138H538.846c-6.396 0-9.138-2.741-9.138-9.138V9.549c0-6.391 2.741-9.132 9.138-9.132h27.1c6.391 0 9.132 2.741 9.132 9.132v158.966H650.9c6.391 0 9.132 2.741 9.132 9.132z"/></defs></svg>