<?xml version="1.0" encoding="UTF-8"?>
<svg xmlns="http://www.w3.org/2000/svg" width="800" height="210.61">
	<linearGradient id="A" y1="154.327" y2="31.661" x1="400.131" x2="400.131" gradientUnits="userSpaceOnUse">
		<stop stop-color="#0b9cf5" offset="0"/>
		<stop stop-color="#1c35b0" offset=".99"/>
	</linearGradient>
	<g fill="url(#A)">
		<path d="M407.63 12.954c0-4.597 2.406-7.003 7.03-7.88a271.285 271.285 0 0 1 40.921-3.06c29.743 0 58.648 7.874 58.648 49.017 0 33.264-21.88 47.27-50.769 47.27a111.525 111.525 0 0 1-23.416-2.623v47.486c0 4.597-1.968 6.565-6.565 6.565h-19.285c-4.597 0-6.565-1.968-6.565-6.565zm47.708 62.807c15.099 0 27.791-4.159 27.791-23.854 0-21.886-14.228-26.698-27.58-26.698a79.995 79.995 0 0 0-15.537 1.752v47.486c5.04 1.098 10.291 1.314 15.326 1.314zM3.499 123.462c.876-4.375 3.72-5.035 7.003-3.72 9.41 3.72 23.854 8.111 37.422 8.111 14.222 0 22.324-4.818 22.324-17.305 0-12.914-8.317-17.305-23.638-22.762C22.102 79.032 0 71.373 0 42.046 0 13.818 24.946.904 53.613.904A115.635 115.635 0 0 1 87.098 5.96c4.375 1.315 5.69 3.937 4.597 8.318l-2.628 11.15c-1.082 4.376-3.505 5.468-7.442 4.154s-14.006-4.375-25.169-4.375c-13.784 0-26.039 1.314-26.039 16.851 0 13.352 13.13 16.197 27.58 21.225 24.951 8.54 42.241 21.886 42.241 45.086 0 26.698-21.009 43.987-49.898 43.987-19.258 0-35.016-3.504-44.64-7.225-3.943-1.53-5.473-4.813-4.597-9.193zM200.67 10.11c0-4.597 1.974-6.565 6.565-6.565h19.041c4.597 0 6.565 1.968 6.565 6.565v133.03c0 4.597-1.968 6.565-6.565 6.565h-19.04c-4.592 0-6.566-1.968-6.566-6.565V86.704h-54.489v56.458c0 4.597-1.969 6.565-6.565 6.565h-19.041c-4.597 0-6.565-1.968-6.565-6.565V10.132c0-4.597 1.968-6.565 6.565-6.565h19.04c4.597 0 6.566 1.968 6.566 6.565v51.206h54.489zm561.74 159.972a245.198 245.198 0 0 0 25.141-1.476c6.214-.595 9.193 1.773 9.47 7.987l.886 15.083c.292 6.214-2.666 9.47-8.874 10.356a277.387 277.387 0 0 1-38.163 2.958c-52.354 0-97.023-21.593-97.342-103.24C653.528 23.952 703.518 0 753.217 0c17.45 0 30.468 2.958 39.64 5.322 6.208 1.779 7.987 5.029 6.803 10.945l-3.245 14.79c-1.184 5.916-4.732 7.69-10.059 5.916-7.095-2.071-15.97-4.435-28.986-4.435-32.837 0-58.865 15.975-59.162 68.33.298 57.09 28.705 69.221 64.202 69.221z"/>
		<path d="M762.41 170.082a245.198 245.198 0 0 0 25.141-1.476c6.214-.595 9.193 1.773 9.47 7.987l.886 15.083c.292 6.214-2.666 9.47-8.874 10.356a277.387 277.387 0 0 1-38.163 2.958c-52.354 0-97.023-21.593-97.342-103.24C653.528 23.952 703.518 0 753.217 0c17.45 0 30.468 2.958 39.64 5.322 6.208 1.779 7.987 5.029 6.803 10.945l-3.245 14.79c-1.184 5.916-4.732 7.69-10.059 5.916-7.095-2.071-15.97-4.435-28.986-4.435-32.837 0-58.865 15.975-59.162 68.33.298 57.09 28.705 69.221 64.202 69.221z"/>
		<path d="M762.41 170.082a245.198 245.198 0 0 0 25.141-1.476c6.214-.595 9.193 1.773 9.47 7.987l.886 15.083c.292 6.214-2.666 9.47-8.874 10.356a277.387 277.387 0 0 1-38.163 2.958c-52.354 0-97.023-21.593-97.342-103.24C653.528 23.952 703.518 0 753.217 0c17.45 0 30.468 2.958 39.64 5.322 6.208 1.779 7.987 5.029 6.803 10.945l-3.245 14.79c-1.184 5.916-4.732 7.69-10.059 5.916-7.095-2.071-15.97-4.435-28.986-4.435-32.837 0-58.865 15.975-59.162 68.33.298 57.09 28.705 69.221 64.202 69.221zm-102.51 24.62c0 6.398-2.742 9.14-9.134 9.14h-112.07c-6.397 0-9.14-2.743-9.14-9.14V9.542c0-6.392 2.743-9.134 9.14-9.134H565.8c6.392 0 9.134 2.742 9.134 9.134v158.99h75.835c6.392 0 9.134 2.742 9.134 9.134z"/>
		<path d="M659.9 194.702c0 6.398-2.742 9.14-9.134 9.14h-112.07c-6.397 0-9.14-2.743-9.14-9.14V9.542c0-6.392 2.743-9.134 9.14-9.134H565.8c6.392 0 9.134 2.742 9.134 9.134v158.99h75.835c6.392 0 9.134 2.742 9.134 9.134zm-644.304-21.22c0-1.022.438-1.514 1.514-1.758a57.475 57.475 0 0 1 9.529-.822c6.744 0 13.287 1.763 13.287 11.14 0 7.572-5.03 10.752-11.626 10.752a21.626 21.626 0 0 1-3.91-.341v9.967c0 1.027-.438 1.465-1.465 1.465h-5.862c-1.028 0-1.466-.438-1.466-1.465zm8.793 13.195c.73.081 1.466.114 2.201.097 2.64 0 4.835-.784 4.835-4.542 0-4.256-2.493-5.181-4.786-5.181a11.053 11.053 0 0 0-2.25.195zm19.252-13.244c0-1.022.541-1.563 1.623-1.758a59.493 59.493 0 0 1 9.42-.773c6.738 0 13.287 1.763 13.287 11.14 0 5.327-2.396 8.55-6.008 10.07l6.987 10.55c.584.882.39 1.222-.638 1.222h-6.544a2.279 2.279 0 0 1-2.2-1.27l-5.765-9.627a10.37 10.37 0 0 1-1.369-.194v9.626c0 1.027-.438 1.465-1.465 1.465h-5.862c-1.028 0-1.466-.438-1.466-1.465zm8.793 13.633c.736.049 1.515.146 2.201.146 2.634 0 4.835-.833 4.835-4.98 0-4.257-2.493-5.181-4.786-5.181-.751-.02-1.503.013-2.25.097zm43.803 15.342c0 1.028-.438 1.466-1.465 1.466H74.617c-1.028 0-1.466-.439-1.466-1.466v-29.705c0-1.027.438-1.465 1.466-1.465h19.739c1.022 0 1.465.438 1.465 1.465v3.661c0 1.028-.443 1.466-1.465 1.466H81.918v5.916h11.626c1.027 0 1.465.438 1.465 1.465v3.537c0 1.028-.438 1.466-1.465 1.466h-11.6v7.03h12.85c1.027 0 1.465.443 1.465 1.465zm13.482 0c0 1.028-.438 1.466-1.465 1.466h-5.84c-1.028 0-1.466-.439-1.466-1.466v-29.705c0-1.027.438-1.465 1.465-1.465h5.863c1.027 0 1.465.438 1.465 1.465zm5.132-5.765c.195-1.027.833-1.222 1.623-.881 1.27.54 5.408 2.25 8.501 2.25 2.163 0 3.715-.833 3.715-3.18 0-2.488-1.514-3.32-4.3-4.327-5.472-2-10.41-3.785-10.41-10.405 0-6.451 5.668-9.431 12.218-9.431 2.71.028 5.4.47 7.977 1.314 1.022.34 1.32.93 1.124 1.909l-.843 3.645c-.195.979-.784 1.174-1.71.833-.686-.244-3.785-1.368-6.489-1.368-2.2 0-3.91.73-3.91 3.077s2.64 3.244 5.717 4.445c4.104 1.622 8.944 3.618 8.944 9.87 0 6.056-4.867 10.014-11.48 10.014a28.294 28.294 0 0 1-10.313-1.806 1.772 1.772 0 0 1-1.081-2.104zm46.102-22.767a1.858 1.858 0 0 1 1.947 1.352l5.181 15.488 1.514-18.029c.049-1.027.541-1.465 1.563-1.465h5.23c1.022 0 1.416.438 1.319 1.465l-3.245 29.705c-.097 1.028-.584 1.466-1.622 1.466h-6.479a1.771 1.771 0 0 1-1.903-1.417l-5.716-17.397-5.57 17.397a1.768 1.768 0 0 1-1.899 1.45h-6.49c-1.027 0-1.513-.439-1.622-1.466l-3.174-29.705c-.097-1.028.292-1.466 1.32-1.466h5.126c1.028 0 1.514.438 1.563 1.466l1.514 18.078 5.181-15.57a1.773 1.773 0 0 1 1.936-1.351zm44.457 28.532c0 1.028-.438 1.466-1.465 1.466h-20.182c-1.028 0-1.466-.438-1.466-1.466v-29.705c0-1.027.438-1.465 1.466-1.465h19.739c1.022 0 1.465.438 1.465 1.465v3.661c0 1.028-.443 1.466-1.465 1.466H191.09v5.916h11.626c1.027 0 1.465.438 1.465 1.466v3.536c0 1.028-.438 1.466-1.465 1.466H191.09v7.03h12.849c1.027 0 1.465.444 1.465 1.466zm4.689-28.975c0-1.022.54-1.563 1.622-1.757a59.553 59.553 0 0 1 9.415-.774c6.744 0 13.292 1.763 13.292 11.14 0 5.327-2.395 8.55-6.013 10.07l6.987 10.55c.59.882.394 1.223-.633 1.223h-6.549a2.274 2.274 0 0 1-2.196-1.271l-5.77-9.626a10.5 10.5 0 0 1-1.368-.195v9.626c0 1.028-.438 1.466-1.466 1.466h-5.862c-1.022 0-1.465-.438-1.465-1.466zm8.793 13.633c.736.049 1.52.146 2.201.146 2.64 0 4.84-.833 4.84-4.98 0-4.256-2.493-5.181-4.791-5.181a16.29 16.29 0 0 0-2.25.097zm17.591-14.363c0-1.027.438-1.465 1.466-1.465h23.454c1.022 0 1.465.438 1.465 1.465v3.607c0 1.028-.443 1.466-1.465 1.466h-7.436v24.626c0 1.027-.438 1.465-1.466 1.465h-5.862c-1.027 0-1.465-.438-1.465-1.465v-24.62h-7.23c-1.028 0-1.466-.438-1.466-1.466zm52.764 29.705c0 1.028-.438 1.466-1.465 1.466H267.6c-1.028 0-1.466-.438-1.466-1.466v-29.705c0-1.027.438-1.465 1.466-1.465h19.739c1.027 0 1.465.438 1.465 1.465v3.661c0 1.028-.438 1.466-1.465 1.466H274.9v5.916h11.626c1.027 0 1.465.438 1.465 1.466v3.536c0 1.028-.438 1.466-1.465 1.466H274.9v7.03h12.849c1.027 0 1.465.444 1.465 1.466zm35.811-.881a31.298 31.298 0 0 1 7.863 2.904c.833.443.979 1.027.39 1.86l-2.64 3.661c-.583.833-1.216.784-1.757.34a27.833 27.833 0 0 0-12.849-5.861c-11.898-.049-14.12-8.307-14.12-16.856s2.493-16.905 14.412-16.905c12.022 0 14.314 8.306 14.314 16.905 0 5.305-1.66 11.07-5.619 13.952zm-2.98-13.974c0-5.668-.681-10.275-5.764-10.275s-5.814 4.591-5.814 10.275c0 5.57.784 9.966 5.814 9.966s5.759-4.396 5.759-9.966zm26.72 16.878c-9.382 0-12.979-4.007-12.979-12.703v-19.026c0-1.028.438-1.466 1.466-1.466h5.949c1.027 0 1.465.438 1.465 1.466v18.749c0 3.812.34 6.154 4.202 6.154 3.666 0 4.104-2.098 4.104-6.154v-18.749c0-1.027.438-1.465 1.466-1.465h5.949c1.027 0 1.465.438 1.465 1.466v19.003c.005 8.452-3.169 12.725-13.087 12.725zm38.7-.541a1.774 1.774 0 0 1-1.91-1.417l-1.903-6.057h-8.453l-1.855 6.057a1.775 1.775 0 0 1-1.909 1.417h-6.008c-1.027 0-1.32-.438-.979-1.368l10.015-29.9a1.866 1.866 0 0 1 1.958-1.368h6.219a1.773 1.773 0 0 1 1.91 1.416l9.766 29.803c.297.98 0 1.417-1.022 1.417zm-8.015-23.47l-2.347 9.734h4.645zm39.623 21.989c0 1.027-.438 1.465-1.466 1.465h-18.663c-1.027 0-1.465-.438-1.465-1.465v-29.705c0-1.028.438-1.466 1.465-1.466h5.868c1.027 0 1.465.438 1.465 1.466v24.524h11.356c1.028 0 1.466.443 1.466 1.465zm12.065 0c0 1.027-.438 1.465-1.466 1.465h-5.862c-1.022 0-1.465-.438-1.465-1.465v-29.705c0-1.028.443-1.466 1.465-1.466h5.879c1.027 0 1.465.438 1.465 1.466zm3.277-29.705c0-1.028.438-1.466 1.466-1.466h23.448c1.027 0 1.465.438 1.465 1.466v3.607c0 1.027-.438 1.465-1.465 1.465h-7.425v24.627c0 1.028-.438 1.466-1.466 1.466h-5.862c-1.028 0-1.466-.438-1.466-1.466v-24.62h-7.23c-1.028 0-1.466-.439-1.466-1.466zm47.881 31.187a1.77 1.77 0 0 1-1.909-1.417l-1.904-6.057h-8.452l-1.855 6.057a1.775 1.775 0 0 1-1.909 1.417h-6.008c-1.027 0-1.32-.438-.979-1.368l10.015-29.9a1.866 1.866 0 0 1 1.958-1.368h6.203a1.774 1.774 0 0 1 1.909 1.416l9.766 29.803c.298.98 0 1.417-1.022 1.417zm-16.224-41.234c0-1.028.438-1.471 1.466-1.471h4.153c1.027 0 1.465.443 1.465 1.47v3.905c0 1.028-.438 1.466-1.465 1.466h-4.148c-1.027 0-1.465-.438-1.465-1.466zm8.21 17.78l-2.348 9.735h4.646zm1.222-17.78c0-1.028.438-1.471 1.465-1.471h4.153c1.022 0 1.466.443 1.466 1.47v3.905c0 1.028-.444 1.466-1.466 1.466h-4.153c-1.027 0-1.465-.438-1.465-1.466zm12.163 10.064c0-1.028.443-1.466 1.465-1.466h23.454c1.028 0 1.466.438 1.466 1.466v3.59c0 1.028-.439 1.466-1.466 1.466h-7.425v24.627c0 1.028-.438 1.466-1.466 1.466h-5.867c-1.028 0-1.471-.438-1.471-1.466v-24.62h-7.23c-1.022 0-1.466-.439-1.466-1.466zM391.08 44l-.26-.6a68.729 68.729 0 0 1-15.748 6.911l-1.53.433-1.276.324-.282.07-1.216.276-.184.038-1.082.211-.238.043c-.384.07-.762.13-1.14.19l-.239.032c-.346.054-.686.097-1.022.14h-.14a24.08 24.08 0 0 1-1.082.103h-.243l-1.082.065h-2.395c-.325 0-.644-.038-.957-.07h-.055c-.324-.033-.638-.07-.946-.12h-.162c-.303-.048-.6-.102-.893-.167l-.108-.027a13.137 13.137 0 0 1-.854-.216c-.281-.081-.54-.173-.822-.27l-.114-.038c-.26-.103-.513-.206-.762-.32l-.06-.026a10.138 10.138 0 0 1-.724-.374 8.65 8.65 0 0 1-2.369-1.925c-.032-.038-.07-.075-.103-.119-1.373-1.676-2.098-3.872-2.163-6.49a6.681 6.681 0 0 0-4.978 6.638 6.686 6.686 0 0 0 2.632 5.137 6.673 6.673 0 0 0 5.651 1.167 6.672 6.672 0 0 0 2.644-1.33 4.85 4.85 0 0 0 .249-.222 20.42 20.42 0 0 0 6.17.865 40.598 40.598 0 0 0 9.388-1.244V74.3c-.043 1.623-.184 2.66-1.255 3.537l-70.243 57.561a3.65 3.65 0 0 1-5.126-.508l-39.088-47.724a3.657 3.657 0 0 1 .508-5.127l70.26-57.545c1.13-.92 2.163-.811 3.894-.449l22.794 4.57c.043-.081.081-.162.119-.249a64.652 64.652 0 0 1 10.642-15.52 74.392 74.392 0 0 0-14.233-7.031c-9.374-3.48-19.602-5.217-30.684-5.213-10.963 0-21.09 1.737-30.381 5.213a70.071 70.071 0 0 0-24.065 14.839 67.598 67.598 0 0 0-15.845 23.362c-3.807 9.16-5.712 19.424-5.716 30.787 0 11.097 1.905 21.224 5.716 30.38a70.06 70.06 0 0 0 39.909 39.11c9.287 3.66 19.418 5.5 30.392 5.522 11.097 0 21.324-1.837 30.684-5.51a72.397 72.397 0 0 0 24.265-15.445 70.086 70.086 0 0 0 15.948-23.665c3.807-9.157 5.712-19.285 5.716-30.381 0-11.378-1.905-21.65-5.716-30.814z"/>
		<path d="M358.34 29.416l10.978 2.196a3.657 3.657 0 0 1 3.245 3.985v9.194a37.226 37.226 0 0 1-9.534 1.541c-1.969 0-3.532-.303-4.554-.865a6.678 6.678 0 0 0-3.737-3.245 6.58 6.58 0 0 0 1.244 3.786l.032.043c.27.325.583.613.93.854a5.87 5.87 0 0 0 1.163.638h.027l.65.238h.064l.703.195.752.146h.06l.762.097h.13l.79.06h2.465l.454-.033h.222l.465-.043h.206l.54-.06h.152c7.268-.93 16.407-4.423 22.594-8.355a65.994 65.994 0 0 0-20.782-24.708 59.85 59.85 0 0 0-10.021 14.336z"/>
	</g>
</svg>
