<?xml version="1.0" encoding="UTF-8"?>
<svg width="800" height="159.56" fill="none" version="1.1" viewBox="0 0 800 159.56" xmlns="http://www.w3.org/2000/svg">
 <path d="m3.9172 129.03c0.91822-4.5854 3.8996-5.2769 7.3401-3.8996 9.8624 3.8996 25.002 8.502 39.223 8.502 14.907 0 23.398-5.0502 23.398-18.138 0-13.535-8.7174-18.138-24.775-23.857-25.687-9.1765-48.853-17.202-48.853-47.94 0-29.587 26.147-43.122 56.193-43.122 11.895 0.034716 23.721 1.8204 35.096 5.2996 4.5854 1.3773 5.9628 4.1263 4.8178 8.7174l-2.7547 11.687c-1.1336 4.5854-3.6729 5.7304-7.7992 4.353-4.1263-1.3773-14.68-4.5854-26.379-4.5854-14.448 0-27.292 1.3773-27.292 17.662 0 13.994 13.762 16.976 28.907 22.247 26.152 8.9498 44.273 22.938 44.273 47.254 0 27.983-22.02 46.104-52.299 46.104-20.184 0-36.7-3.6729-46.79-7.5725-4.132-1.604-5.736-5.0445-4.8178-9.6356z" fill="url(#paint1_linear)" stroke-width=".5668"/>
 <path d="m210.58 10.214c0-4.8178 2.0688-6.881 6.881-6.881h19.957c4.8178 0 6.881 2.0632 6.881 6.881v139.43c0 4.8178-2.0632 6.881-6.881 6.881h-19.957c-4.8122 0-6.881-2.0632-6.881-6.881v-59.151h-57.111v59.174c0 4.8178-2.0632 6.881-6.881 6.881h-19.957c-4.8178 0-6.881-2.0632-6.881-6.881v-139.43c0-4.8178 2.0632-6.881 6.881-6.881h19.957c4.8178 0 6.881 2.0632 6.881 6.881v53.67h57.111z" fill="url(#paint1_linear)" stroke-width=".5668"/>
 <g fill="url(#paint0_linear)" stroke-width=".5668">
  <path d="m410.14 45.736-0.27207-0.62915c-5.1766 3.0961-10.722 5.5297-16.505 7.2437-0.56681 0.1587-1.0713 0.31174-1.604 0.45344l-1.3376 0.34008-0.29474 0.07368-1.2753 0.28907-0.19272 0.03968-1.1336 0.22105-0.24939 0.04534c-0.40243 0.07368-0.79919 0.13603-1.196 0.19838l-0.24938 0.034c-0.36276 0.05668-0.71984 0.10202-1.0713 0.14737h-0.14737c-0.37976 0.04534-0.75951 0.07935-1.1336 0.10769h-0.25507l-1.1336 0.06801h-0.0283-1.0259-0.22672-1.0486-0.18138c-0.34007 0-0.67448-0.03967-1.0032-0.07368h-0.0567c-0.34009-0.03401-0.66883-0.07368-0.99191-0.1247h-0.17004c-0.3174-0.05101-0.62915-0.10769-0.93522-0.17571l-0.11336-0.02834c-0.30607-0.06802-0.60648-0.1417-0.89555-0.22672-0.29473-0.08502-0.5668-0.18138-0.86154-0.2834l-0.11903-0.03968c-0.27206-0.10769-0.53846-0.21538-0.79919-0.33441l-0.0623-0.02834c-0.26074-0.1247-0.51579-0.24939-0.75952-0.39109-0.94032-0.52015-1.7815-1.2034-2.4826-2.0178-0.034-0.03967-0.0737-0.07935-0.1077-0.1247-1.4397-1.7571-2.1992-4.0583-2.2672-6.8016-1.0123 0.26617-1.9526 0.75606-2.7507 1.4336-0.79806 0.6775-1.434 1.5254-1.8608 2.4813-0.4268 0.95586-0.63425 1.9953-0.60648 3.0419 0.0284 1.0465 0.2902 2.0734 0.76746 3.0052 0.4778 0.93171 1.158 1.7445 1.9912 2.3785 0.83264 0.63431 1.7973 1.073 2.8227 1.285 1.0253 0.21198 2.0853 0.19101 3.101-0.06121 1.0163-0.25166 1.9628-0.72834 2.7705-1.3949 0.0907-0.07369 0.17571-0.15304 0.26073-0.23239 2.0966 0.63176 4.2776 0.93749 6.4672 0.90688 3.3198-0.04931 6.622-0.48666 9.8397-1.3036v22.236c-0.0453 1.7004-0.1927 2.7887-1.315 3.7069l-73.622 60.33c-0.78388 0.63993-1.7894 0.94317-2.7966 0.84341-1.0072-0.0998-1.9334-0.59458-2.5767-1.3762l-40.968-50.02c-0.63823-0.78446-0.9409-1.79-0.84114-2.7966 0.0998-1.0066 0.59401-1.9328 1.3739-2.5767l73.639-60.313c1.1846-0.96356 2.2672-0.8502 4.081-0.47045l23.891 4.7895c0.0454-0.08502 0.085-0.17004 0.1247-0.26073 2.9043-5.9376 6.6628-11.418 11.155-16.267-4.6954-2.9813-9.6968-5.4514-14.918-7.3684-9.8244-3.6464-20.545-5.4677-32.16-5.464-11.491 0-22.105 1.8213-31.843 5.464-9.3772 3.4167-17.959 8.7087-25.223 15.553-7.1973 6.9023-12.856 15.246-16.607 24.486-3.9903 9.6016-5.9871 20.358-5.9911 32.268 0 11.631 1.9968 22.245 5.9911 31.843 3.7868 9.3369 9.4548 17.794 16.652 24.846 7.1961 7.0522 15.767 12.548 25.178 16.145 9.7337 3.8356 20.352 5.7644 31.854 5.787 11.631 0 22.351-1.9254 32.16-5.7757 9.4747-3.6406 18.123-9.1454 25.432-16.188 7.2137-7.034 12.903-15.477 16.715-24.803 3.9903-9.5977 5.9871-20.212 5.9911-31.843 0-11.926-1.9968-22.691-5.9911-32.296z"/>
  <path d="m375.83 30.449 11.506 2.3012c1.0027 0.10871 1.9215 0.60824 2.5586 1.3902 0.63651 0.78202 0.93919 1.7834 0.84226 2.7871v9.6356c-3.2466 0.97014-6.6061 1.5132-9.9927 1.6154-2.0632 0-3.7012-0.31741-4.7725-0.90688-0.82187-1.5933-2.2236-2.8106-3.9166-3.4008 0.0142 1.4255 0.46932 2.8116 1.3036 3.9676l0.034 0.04534c0.28283 0.34127 0.61101 0.64253 0.9749 0.89555 0.37919 0.26849 0.78842 0.49289 1.2186 0.66883h0.0283c0.21539 0.09069 0.44211 0.17571 0.68017 0.24939h0.068c0.23806 0.07368 0.48178 0.1417 0.73684 0.20405 0.25507 0.05668 0.51579 0.10769 0.78786 0.15304h0.0623c0.26074 0.0416 0.52713 0.07555 0.7992 0.10202h0.13603c0.27206 0.02834 0.5668 0.05101 0.82754 0.06235h0.11335 0.8332 1.6381l0.47611-0.03401h0.23239l0.48745-0.04534h0.21539l0.5668-0.06235h0.15871c7.6178-0.9749 17.197-4.6364 23.681-8.7571-3.657-7.5288-8.65-14.331-14.737-20.076-2.2196-2.0916-4.573-4.036-7.0454-5.8211-4.2181 4.4672-7.7567 9.5299-10.503 15.026z"/>
 </g>
 <path d="m427.5 13.196c0-4.8178 2.5223-7.3401 7.3684-8.2583 14.195-2.1506 28.533-3.223 42.89-3.2081 31.174 0 61.47 8.2526 61.47 51.375 0 34.864-22.933 49.544-53.211 49.544-8.2549-0.047-16.481-0.96867-24.543-2.749v49.771c0 4.8178-2.0632 6.881-6.881 6.881h-20.212c-4.8178 0-6.881-2.0632-6.881-6.881zm50.003 65.828c15.825 0 29.128-4.3587 29.128-25.002 0-22.938-14.913-27.983-28.907-27.983-5.4747 0.07884-10.929 0.69394-16.284 1.8364v49.771c5.2826 1.1506 10.786 1.3773 16.063 1.3773z" fill="url(#paint0_linear)" stroke-width=".5668"/>
 <path d="m691.41 151.48c0 4.9583-2.125 7.0833-7.0791 7.0833h-86.861c-4.9584 0-7.0834-2.125-7.0834-7.0833v-143.5c0-4.9541 2.125-7.0791 7.0834-7.0791h21.007c4.9541 0 7.0791 2.125 7.0791 7.0791v123.22h58.775c4.9541 0 7.0791 2.125 7.0791 7.0791z" fill="url(#paint5_linear)" stroke-width=".41913"/>
 <path d="m770.86 132.4c6.5092-0.0474 13.014-0.42919 19.485-1.1442 4.8158-0.46103 7.1253 1.3748 7.339 6.1906l0.68736 11.69c0.22633 4.8158-2.0663 7.339-6.8779 8.0264-9.7952 1.4443-19.678 2.2105-29.578 2.2926-40.576 0-75.196-16.736-75.444-80.016 0-60.296 38.745-78.864 77.263-78.864 13.525 0 23.614 2.2927 30.722 4.1243 4.8116 1.3789 6.1906 3.8979 5.2727 8.4832l-2.5147 11.463c-0.91788 4.5853-3.6674 5.9601-7.7959 4.5853-5.499-1.6053-12.377-3.4369-22.465-3.4369-25.45 0-45.622 12.381-45.853 52.957 0.23058 44.248 22.248 53.649 49.759 53.649z" fill="url(#paint5_linear)" stroke-width=".41913"/>
 <defs>
  <linearGradient id="paint0_linear" x1="740.67" x2="740.67" y1="285.46" y2="58.56" gradientTransform="matrix(.5668 0 0 .5668 -.31684 -.38486)" gradientUnits="userSpaceOnUse">
   <stop stop-color="#0B9CF5" offset="0"/>
   <stop stop-color="#1C35B0" offset=".99"/>
  </linearGradient>
  <linearGradient id="paint1_linear" x1="740.67" x2="740.67" y1="285.46" y2="58.56" gradientTransform="matrix(.5668 0 0 .5668 -.31684 -.38486)" gradientUnits="userSpaceOnUse">
   <stop stop-color="#0B9CF5" offset="0"/>
   <stop stop-color="#1C35B0" offset=".99"/>
  </linearGradient>
  <linearGradient id="paint5_linear" x1="740.67" x2="740.67" y1="285.46" y2="58.56" gradientTransform="matrix(.41913 0 0 .41913 179.55 .57307)" gradientUnits="userSpaceOnUse">
   <stop stop-color="#0B9CF5" offset="0"/>
   <stop stop-color="#1C35B0" offset=".99"/>
  </linearGradient>
 </defs>
</svg>
