<svg xmlns="http://www.w3.org/2000/svg" width="345.432" height="135.124" viewBox="0 0 91.396 35.752"><circle r="17.726" cy="17.876" cx="41.245" fill="#ffb613" stroke="#000" stroke-width=".3"/><circle cx="41.245" cy="17.876" r="14.822" opacity=".75" fill="red" stroke="#000" stroke-width=".3"/><path style="line-height:1.25;-inkscape-font-specification:'Droid Sans Bold Italic'" d="M49.706 2.222l-8.763 17.55-.757 4.955h6.973l-1.063 6.965h4.81l1.062-6.965h1.914l.757-4.956h-1.914l2.68-17.549h-5.7zm-12.483.001c-1.947 0-3.048.401-4.43 1.615-1.306 1.147-1.949 2.453-2.736 5.557-.957 3.77-.902 3.544-.902 3.544h5.037s.328-1.782.458-2.679c.29-2.002.858-2.947 1.765-2.947 1.222 0 1.439.947.798 3.484-.64 2.525-1.732 4.725-6.457 12.992h-.001c-1.325 2.32-4.46 7.903-4.46 7.903h12.41l.758-4.957h-4.64l3.291-6.4c1.602-2.963 3.17-6.268 3.652-7.7 2.163-6.422.422-10.412-4.543-10.412zm11.93 9.442l-1.237 8.106h-2.81l4.047-8.106zm-39.618.45L7.393 22.836h2.1l.724-3.624c.084-.41.18-.772.29-1.089.11-.317.24-.583.393-.799.151-.216.33-.38.537-.49.206-.11.445-.165.716-.165.359 0 .595.14.71.42.12.276.125.692.014 1.247l-.902 4.5h2.101l1.006-5.023c.097-.497.12-.921.069-1.275-.046-.358-.156-.652-.33-.882a1.503 1.503 0 0 0-.696-.503 2.757 2.757 0 0 0-1-.166 2.9 2.9 0 0 0-1.24.27c-.386.174-.73.461-1.034.861h-.11c.055-.202.112-.409.172-.62.05-.18.101-.375.152-.586.05-.215.097-.42.138-.613l.434-2.184H9.535zm58.263 0c-.157 0-.308.016-.455.048a1.117 1.117 0 0 0-.71.49 1.451 1.451 0 0 0-.186.488c-.037.193-.04.355-.007.489a.646.646 0 0 0 .18.324.81.81 0 0 0 .33.173 2.033 2.033 0 0 0 .882 0 1.33 1.33 0 0 0 .4-.173c.12-.083.223-.19.31-.324.092-.133.156-.295.193-.488.041-.198.044-.361.007-.49a.638.638 0 0 0-.187-.317.706.706 0 0 0-.33-.172 1.768 1.768 0 0 0-.427-.048zm-62.4.503a4.66 4.66 0 0 0-1.364.193c-.417.128-.79.316-1.116.565a3.25 3.25 0 0 0-.813.902c-.22.354-.377.756-.47 1.206-.09.46-.09.854 0 1.185.093.326.231.606.415.84.188.23.397.423.627.579.23.157.438.29.627.4.225.133.427.259.606.379.183.12.335.243.455.372.12.125.204.26.255.407.05.142.058.308.02.496-.032.156-.085.3-.158.434a1.15 1.15 0 0 1-.296.338 1.42 1.42 0 0 1-.448.22c-.18.05-.386.076-.62.076-.23 0-.457-.023-.682-.069a4.83 4.83 0 0 1-.655-.186 7.541 7.541 0 0 1-.634-.262 43.339 43.339 0 0 1-.606-.31l-.393 1.984c.345.202.733.354 1.164.455.433.101.892.152 1.379.152.555 0 1.06-.07 1.515-.207.46-.137.861-.333 1.207-.586a3.36 3.36 0 0 0 .86-.923c.23-.363.389-.77.476-1.22.078-.396.09-.74.034-1.033a1.926 1.926 0 0 0-.33-.786 2.679 2.679 0 0 0-.621-.634 8.343 8.343 0 0 0-.833-.565 11.133 11.133 0 0 1-.648-.407 2.402 2.402 0 0 1-.42-.35.875.875 0 0 1-.2-.366 1.017 1.017 0 0 1 .007-.454c.06-.317.204-.57.434-.758.23-.193.524-.29.882-.29.166 0 .326.014.482.042.16.023.32.06.475.11.162.05.325.113.49.186.165.073.342.158.53.254l1.02-1.66a8.195 8.195 0 0 0-.648-.303 5.76 5.76 0 0 0-.64-.22 4.988 4.988 0 0 0-1.365-.186zm52.086.144l-2.012 10.074h2.652a7.37 7.37 0 0 0 2.24-.324 5.415 5.415 0 0 0 1.805-.965 5.592 5.592 0 0 0 1.323-1.605c.363-.643.63-1.39.8-2.239.16-.809.188-1.52.082-2.136-.1-.616-.321-1.13-.661-1.544a3.118 3.118 0 0 0-1.344-.944c-.55-.211-1.196-.317-1.936-.317h-2.949zm32.8.73H88.94l-.93 1.627-1.296.703-.179.889h1.006l-.744 3.713c-.101.496-.124.91-.069 1.24.06.326.175.588.345.786.174.193.397.328.668.406.276.08.58.118.916.118.345 0 .669-.035.972-.104a3.6 3.6 0 0 0 .785-.248l.318-1.564c-.207.069-.41.126-.607.172a2.58 2.58 0 0 1-.6.07c-.238 0-.418-.072-.537-.215-.12-.142-.149-.362-.09-.661l.745-3.713h1.274l.317-1.579H89.96l.324-1.64zm-31.01 1.02h.986c.4 0 .74.065 1.02.193.285.129.508.326.668.593.161.266.258.604.29 1.013.032.405-.01.887-.124 1.447h.001c-.221 1.106-.614 1.936-1.18 2.487-.56.551-1.29.827-2.19.827h-.786l1.316-6.56zm-39.222.476c-.55 0-1.063.087-1.536.262a3.907 3.907 0 0 0-1.268.77 4.464 4.464 0 0 0-.95 1.248 6.324 6.324 0 0 0-.586 1.702c-.129.643-.156 1.213-.083 1.71.078.495.236.913.476 1.253.243.34.56.6.95.78.395.174.848.261 1.357.261.547 0 1.057-.087 1.53-.262.473-.18.896-.44 1.268-.78.377-.34.696-.757.958-1.252a6.27 6.27 0 0 0 .585-1.71c.129-.638.154-1.205.076-1.702-.073-.496-.232-.912-.476-1.247a2.232 2.232 0 0 0-.95-.771c-.39-.175-.841-.262-1.351-.262zm8.627 0c-.253 0-.49.032-.71.096-.22.06-.423.143-.607.248a2.661 2.661 0 0 0-.503.36 3.673 3.673 0 0 0-.413.44h-.097l-.096-.999h-1.709l-2.218 11.092h2.1l.622-3.12c.013-.07.027-.166.04-.29.014-.128.026-.252.035-.372l.042-.455h.11c.069.129.151.253.248.373.096.115.213.218.35.31.139.092.302.165.49.22.188.055.409.083.662.083v-.001c.4 0 .783-.085 1.15-.254a3.19 3.19 0 0 0 1.013-.758c.308-.34.579-.758.813-1.254.234-.5.416-1.08.545-1.737.133-.652.183-1.226.15-1.722-.026-.496-.125-.912-.295-1.247a1.739 1.739 0 0 0-.69-.758c-.288-.17-.633-.255-1.032-.255zm45.137 0s-.494.032-.71.096c-.21.06-.406.147-.585.262-.18.11-.35.246-.51.407-.16.16-.317.34-.47.537h-.102l-.076-1.157h-1.592l-1.543 7.702h2.101l.786-3.92a3.192 3.192 0 0 1 .317-.916 1.935 1.935 0 0 1 .496-.607 1.891 1.891 0 0 1 .655-.337c.243-.069.771-.103.771-.103l.462-1.964zm3.536 0c-.457 0-.887.085-1.292.255a3.24 3.24 0 0 0-1.094.765 4.59 4.59 0 0 0-.842 1.26 7.123 7.123 0 0 0-.535 1.77c-.116.667-.136 1.248-.06 1.744.076.492.233.9.47 1.227a2.182 2.182 0 0 0 .919.723c.376.162.806.242 1.286.242h.001a6.47 6.47 0 0 0 .69-.035 3.994 3.994 0 0 0 .602-.096c.188-.046.368-.101.54-.166.177-.068.353-.151.529-.248l.283-1.626a7.36 7.36 0 0 1-.566.269c-.18.073-.36.136-.54.186-.18.05-.365.09-.553.117a4.876 4.876 0 0 1-.589.034c-.245 0-.455-.043-.632-.13a1.108 1.108 0 0 1-.42-.372 1.5 1.5 0 0 1-.205-.599 2.864 2.864 0 0 1 .019-.8s2.012.315 2.942 0c1.164-.41 1.607-1.288 1.391-2.508-.06-.437-.19-.804-.39-1.103a1.853 1.853 0 0 0-.794-.675c-.328-.156-.715-.234-1.16-.234zm7.482 0a5.56 5.56 0 0 0-1.522.2c-.468.133-.89.356-1.268.668-.377.312-.703.728-.979 1.247-.275.515-.489 1.155-.64 1.922-.143.694-.179 1.292-.11 1.792.068.496.227.905.474 1.226a2.225 2.225 0 0 0 1 .703c.413.152.896.228 1.447.228.202 0 .392-.012.572-.034.184-.02.36-.05.53-.09a4.722 4.722 0 0 0 .518-.16v-1.625c-.345.101-.91.207-1.31.207-.492 0-.815-.184-.972-.552-.156-.367-.156-.937 0-1.708.156-.777.389-1.358.696-1.744.308-.39.717-.585 1.227-.585a2.43 2.43 0 0 1 .77.131c.263.082.361.171.361.171l.35-1.852a4.463 4.463 0 0 0-1.144-.145zm-18.69.145l-1.543 7.703h2.1l1.545-7.703h-2.102zm11.1 1.356c.174.005.587.095.687.463.352 1.287-.937 1.104-2.292 1.157.133-.56.326-.973.583-1.233.26-.263.553-.4 1.022-.387zm-49.613.18c.427 0 .7.19.82.572.12.377.103.944-.048 1.702-.152.757-.366 1.336-.642 1.736-.275.395-.622.593-1.04.593-.248 0-.445-.05-.592-.152a.83.83 0 0 1-.317-.44 2.213 2.213 0 0 1-.069-.731c.014-.29.06-.62.138-.992l.04-.228a6.9 6.9 0 0 1 .263-.902c.1-.262.217-.478.35-.648a1.338 1.338 0 0 1 1.097-.51zm-7.944.014c.492 0 .807.19.944.572.143.377.136.948-.02 1.715-.152.763-.375 1.34-.67 1.73-.293.39-.68.585-1.163.585-.487 0-.8-.193-.937-.578-.138-.39-.132-.97.02-1.737.156-.767.38-1.338.669-1.715a1.38 1.38 0 0 1 1.157-.572z" font-style="italic" font-weight="700" font-size="14.111" font-family="Droid Sans" letter-spacing="0" word-spacing="0" fill="#fff" stroke="#000" stroke-width=".26511918"/></svg>