<?xml version="1.0" encoding="UTF-8"?>
<svg width="800" height="210.8" fill="none" version="1.1" viewBox="0 0 800 210.8" xmlns="http://www.w3.org/2000/svg">
	<g stroke="#fff" stroke-width=".49993">
		<path d="m407.76 12.953c0-4.5953 2.4058-7.001 7.0281-7.8768 13.539-2.0513 27.215-3.0742 40.909-3.0599 29.734 0 58.63 7.8714 58.63 49.002 0 33.254-21.874 47.256-50.754 47.256-7.8736-0.04487-15.72-0.92392-23.409-2.622v47.472c0 4.5953-1.9679 6.5631-6.5632 6.5631h-19.279c-4.5953 0-6.5632-1.9678-6.5632-6.5631zm47.694 62.788c15.094 0 27.783-4.1574 27.783-23.847 0-21.879-14.224-26.69-27.572-26.69-5.2219 0.0752-10.424 0.66188-15.532 1.7516v47.472c5.0386 1.0975 10.288 1.3137 15.321 1.3137z"/>
		<path d="m3.7478 123.43c0.87581-4.3736 3.7195-5.0332 7.001-3.7195 9.4068 3.7195 23.847 8.1093 37.411 8.1093 14.218 0 22.317-4.8169 22.317-17.3 0-12.91-8.3148-17.3-23.631-22.755-24.501-8.7527-46.596-16.408-46.596-45.726 0-28.22 24.939-41.13 53.597-41.13 11.346 0.033113 22.626 1.7363 33.475 5.0548 4.3736 1.3137 5.6873 3.9357 4.5953 8.3148l-2.6274 11.148c-1.0812 4.3736-3.5032 5.4657-7.439 4.152-3.9357-1.3137-14.002-4.3736-25.161-4.3736-13.78 0-26.031 1.3137-26.031 16.846 0 13.348 13.126 16.192 27.572 21.219 24.944 8.5364 42.228 21.879 42.228 45.072 0 26.69-21.003 43.974-49.883 43.974-19.252 0-35.005-3.5032-44.628-7.2227-3.9411-1.53-5.4711-4.8115-4.5953-9.1906z"/>
		<path d="m200.86 10.11c0-4.5953 1.9733-6.5632 6.5632-6.5632h19.035c4.5953 0 6.5632 1.9679 6.5632 6.5632v132.99c0 4.5953-1.9679 6.5631-6.5632 6.5631h-19.035c-4.5899 0-6.5632-1.9679-6.5632-6.5631v-56.419h-54.473v56.441c0 4.5953-1.9679 6.5631-6.5632 6.5631h-19.035c-4.5953 0-6.5631-1.9678-6.5631-6.5631v-132.99c0-4.5953 1.9679-6.5632 6.5631-6.5632h19.035c4.5953 0 6.5632 1.9679 6.5632 6.5632v51.191h54.473z"/>
		<path d="m15.841 173.44c0-1.0218 0.4379-1.5138 1.5137-1.757 3.1468-0.53793 6.3332-0.8131 9.5258-0.82175 6.7415 0 13.283 1.7624 13.283 11.137 0 7.5687-5.0278 10.748-11.623 10.748-1.3106 5e-3 -2.6189-0.10866-3.9087-0.34059v9.9636c0 1.0272-0.4379 1.4651-1.4651 1.4651h-5.8603c-1.0272 0-1.4651-0.4379-1.4651-1.4651zm8.7905 13.191c0.73049 0.0811 1.4655 0.11354 2.2003 0.0973 2.6382 0 4.8332-0.7839 4.8332-4.5412 0-4.2547-2.4923-5.1792-4.7845-5.1792-0.75438-0.0119-1.508 0.053-2.249 0.19463zm19.246-13.24c0-1.0218 0.54062-1.5624 1.6219-1.757 3.1137-0.50709 6.2629-0.76552 9.4176-0.77308 6.7361 0 13.283 1.7624 13.283 11.137 0 5.3251-2.395 8.5472-6.0063 10.066l6.9848 10.548c0.58387 0.88121 0.38925 1.2218-0.63793 1.2218h-6.5415c-0.45142 0.0308-0.9023-0.0735-1.2937-0.2995-0.39195-0.22652-0.70767-0.56441-0.90662-0.97096l-5.763-9.6231c-0.4598-0.0341-0.91679-0.099-1.3678-0.19463v9.6231c0 1.0272-0.43785 1.4651-1.465 1.4651h-5.8603c-1.0272 0-1.4651-0.4379-1.4651-1.4651zm8.7904 13.629c0.73524 0.0487 1.5138 0.14597 2.2004 0.14597 2.6328 0 4.8332-0.83257 4.8332-4.9791 0-4.2547-2.4923-5.1792-4.7845-5.1792-0.75092-0.0195-1.5025 0.013-2.249 0.0973zm43.79 15.337c0 1.0272-0.4379 1.4651-1.4651 1.4651h-20.149c-1.0272 0-1.4651-0.43789-1.4651-1.4651v-29.696c0-1.0272 0.4379-1.4651 1.4651-1.4651h19.733c1.0218 0 1.4651 0.43789 1.4651 1.4651v3.66c0 1.0272-0.44331 1.4651-1.4651 1.4651h-12.434v5.9144h11.623c1.0272 0 1.4651 0.4379 1.4651 1.4651v3.5357c0 1.0272-0.4379 1.4651-1.4651 1.4651h-11.596v7.0281h12.845c1.0272 0 1.4651 0.44331 1.4651 1.4651zm13.478 0c0 1.0272-0.43791 1.4651-1.4651 1.4651h-5.8387c-1.0272 0-1.4651-0.43789-1.4651-1.4651v-29.696c0-1.0272 0.4379-1.4651 1.4651-1.4651h5.8603c1.0272 0 1.4651 0.43789 1.4651 1.4651zm5.1305-5.763c0.19463-1.0272 0.83256-1.2218 1.6219-0.88121 1.2705 0.54062 5.4062 2.249 8.4986 2.249 2.1625 0 3.7141-0.83256 3.7141-3.1789 0-2.4869-1.5137-3.3194-4.298-4.325-5.4711-2.0003-10.407-3.7843-10.407-10.402 0-6.4496 5.6657-9.4284 12.213-9.4284 2.7096 0.0276 5.3992 0.47034 7.9742 1.3137 1.0218 0.34059 1.3191 0.92988 1.1245 1.9084l-0.84337 3.6438c-0.19462 0.97853-0.7839 1.1732-1.7084 0.83256-0.6866-0.24328-3.7844-1.3678-6.4875-1.3678-2.2003 0-3.9087 0.72984-3.9087 3.0761 0 2.3463 2.6382 3.2437 5.7144 4.4439 4.1033 1.6219 8.9419 3.6168 8.9419 9.8663 0 6.055-4.8656 10.012-11.477 10.012-3.5189 0.0449-7.0151-0.56766-10.31-1.8057-0.40763-0.15624-0.74281-0.45683-0.9423-0.84499-0.19949-0.38817-0.24923-0.8358-0.13894-1.258zm46.088-22.76c0.43088-0.0362 0.8612 0.0789 1.2164 0.32599 0.35519 0.24653 0.61308 0.60928 0.72985 1.0256l5.1792 15.483 1.5137-18.024c0.0487-1.0272 0.54062-1.4651 1.5624-1.4651h5.2278c1.0218 0 1.4164 0.4379 1.3191 1.4651l-3.2437 29.696c-0.0973 1.0272-0.58387 1.4651-1.6219 1.4651h-6.4766c-0.43628 0.0416-0.87256-0.08-1.2245-0.34167-0.35141-0.26167-0.59361-0.64496-0.67848-1.0748l-5.7144-17.392-5.5684 17.392c-0.0779 0.4352-0.31627 0.82499-0.66713 1.0931-0.3514 0.26815-0.79039 0.39521-1.2304 0.35573h-6.4875c-1.0272 0-1.5137-0.4379-1.6219-1.4651l-3.1734-29.696c-0.0973-1.0272 0.29193-1.4651 1.3191-1.4651h5.1251c1.0272 0 1.5137 0.4379 1.5624 1.4651l1.5137 18.073 5.1792-15.564c0.10055-0.4233 0.35302-0.79525 0.71036-1.0445 0.35682-0.24923 0.79256-0.35843 1.2251-0.30707zm44.444 28.523c0 1.0272-0.43791 1.4651-1.4651 1.4651h-20.176c-1.0272 0-1.4651-0.43789-1.4651-1.4651v-29.696c0-1.0272 0.4379-1.4651 1.4651-1.4651h19.733c1.0218 0 1.4651 0.43789 1.4651 1.4651v3.66c0 1.0272-0.4433 1.4651-1.4651 1.4651h-12.407v5.9144h11.623c1.0272 0 1.4651 0.4379 1.4651 1.4651v3.5357c0 1.0272-0.43791 1.4651-1.4651 1.4651h-11.623v7.0281h12.845c1.0272 0 1.4651 0.44331 1.4651 1.4651zm4.6872-28.966c0-1.0218 0.54062-1.5624 1.6218-1.757 3.1118-0.50655 6.2593-0.76497 9.4122-0.77308 6.7416 0 13.288 1.7624 13.288 11.137 0 5.3251-2.395 8.5472-6.0117 10.066l6.9848 10.548c0.58928 0.88121 0.39465 1.2218-0.63252 1.2218h-6.5469c-0.45088 0.0308-0.90013-0.0741-1.2916-0.30004-0.39086-0.22652-0.70551-0.56441-0.90338-0.97042l-5.7684-9.6231c-0.45953-0.0346-0.91689-0.0995-1.3678-0.19463v9.6231c0 1.0272-0.43791 1.4651-1.4651 1.4651h-5.8603c-1.0218 0-1.4651-0.4379-1.4651-1.4651zm8.7905 13.629c0.73525 0.0487 1.5192 0.14597 2.2003 0.14597 2.6382 0 4.8386-0.83257 4.8386-4.9791 0-4.2547-2.4923-5.1792-4.7899-5.1792-0.75092-0.0195-1.5024 0.013-2.249 0.0973zm17.586-14.359c0-1.0272 0.43791-1.4651 1.4651-1.4651h23.447c1.0218 0 1.4651 0.43789 1.4651 1.4651v3.6059c0 1.0272-0.44331 1.4651-1.4651 1.4651h-7.4335v24.62c0 1.0272-0.43791 1.4651-1.4651 1.4651h-5.8603c-1.0272 0-1.4651-0.43791-1.4651-1.4651v-24.614h-7.2281c-1.0272 0-1.4651-0.43791-1.4651-1.4651zm52.748 29.696c0 1.0272-0.4379 1.4651-1.4651 1.4651h-20.176c-1.0272 0-1.4651-0.43789-1.4651-1.4651v-29.696c0-1.0272 0.43789-1.4651 1.4651-1.4651h19.733c1.0272 0 1.4651 0.43789 1.4651 1.4651v3.66c0 1.0272-0.4379 1.4651-1.4651 1.4651h-12.434v5.9144h11.623c1.0272 0 1.4651 0.4379 1.4651 1.4651v3.5357c0 1.0272-0.4379 1.4651-1.4651 1.4651h-11.623v7.0281h12.845c1.0272 0 1.4651 0.44331 1.4651 1.4651zm35.8-0.88121c2.7388 0.6109 5.3824 1.5873 7.8606 2.9031 0.83255 0.44332 0.97852 1.0272 0.38925 1.8598l-2.6382 3.66c-0.58387 0.83256-1.2164 0.7839-1.757 0.34059-3.7065-3.0253-8.131-5.044-12.845-5.8603-11.894-0.0487-14.116-8.3039-14.116-16.851s2.4923-16.9 14.408-16.9c12.018 0 14.31 8.304 14.31 16.9 0 5.3035-1.6597 11.067-5.617 13.948zm-2.9788-13.97c0-5.6657-0.68118-10.272-5.763-10.272-5.0818 0-5.8117 4.5899-5.8117 10.272 0 5.5684 0.78391 9.9636 5.8117 9.9636 5.0278 0 5.7576-4.3952 5.7576-9.9636zm26.712 16.873c-9.3798 0-12.975-4.006-12.975-12.699v-19.019c0-1.0272 0.4379-1.4651 1.4651-1.4651h5.9468c1.0272 0 1.4651 0.43789 1.4651 1.4651v18.743c0 3.8114 0.34059 6.1523 4.2006 6.1523 3.6654 0 4.1033-2.0976 4.1033-6.1523v-18.743c0-1.0272 0.4379-1.4651 1.4651-1.4651h5.9468c1.0272 0 1.4651 0.43789 1.4651 1.4651v18.997c5e-3 8.4499-3.168 12.721-13.083 12.721zm38.687-0.54062c-0.43683 0.0422-0.87418-0.0795-1.2267-0.34113-0.35248-0.26165-0.59523-0.64496-0.68173-1.0753l-1.903-6.055h-8.4499l-1.8543 6.055c-0.0865 0.43033-0.32925 0.81364-0.68173 1.0753s-0.78984 0.38331-1.2267 0.34113h-6.0063c-1.0272 0-1.3191-0.4379-0.97853-1.3678l10.012-29.891c0.1146-0.42061 0.37356-0.78823 0.73091-1.038 0.35735-0.24978 0.79147-0.36655 1.2261-0.32978h6.2171c0.43683-0.0422 0.87419 0.0795 1.2267 0.34113 0.35249 0.26166 0.59522 0.64495 0.68172 1.0753l9.7636 29.794c0.29733 0.97852 0 1.4164-1.0218 1.4164zm-8.012-23.463-2.3463 9.7312h4.6439zm39.611 21.982c0 1.0272-0.4379 1.4651-1.4651 1.4651h-18.657c-1.0272 0-1.4651-0.43789-1.4651-1.4651v-29.696c0-1.0272 0.4379-1.4651 1.4651-1.4651h5.8657c1.0272 0 1.4651 0.43789 1.4651 1.4651v24.517h11.353c1.0272 0 1.4651 0.44331 1.4651 1.4651zm12.061 0c0 1.0272-0.43789 1.4651-1.4651 1.4651h-5.8603c-1.0218 0-1.4651-0.43789-1.4651-1.4651v-29.696c0-1.0272 0.4433-1.4651 1.4651-1.4651h5.8766c1.0272 0 1.4651 0.43789 1.4651 1.4651zm3.2762-29.696c0-1.0272 0.4379-1.4651 1.4651-1.4651h23.441c1.0272 0 1.4651 0.43789 1.4651 1.4651v3.6059c0 1.0272-0.43791 1.4651-1.4651 1.4651h-7.4227v24.62c0 1.0272-0.43789 1.4651-1.4651 1.4651h-5.8603c-1.0272 0-1.4651-0.43791-1.4651-1.4651v-24.614h-7.2281c-1.0272 0-1.4651-0.43791-1.4651-1.4651zm47.867 31.178c-0.43736 0.0433-0.87472-0.0779-1.2278-0.3395-0.35303-0.2622-0.59523-0.64605-0.68064-1.0769l-1.903-6.055h-8.4499l-1.8543 6.055c-0.0865 0.43033-0.32924 0.81364-0.68172 1.0753-0.35249 0.26166-0.78986 0.38331-1.2267 0.34113h-6.0063c-1.0272 0-1.3191-0.4379-0.97852-1.3678l10.012-29.891c0.11461-0.42061 0.37357-0.78823 0.73092-1.038 0.35735-0.24978 0.79147-0.36655 1.2261-0.32978h6.2009c0.43682-0.0422 0.87418 0.0795 1.2267 0.34113 0.35248 0.26166 0.59523 0.64495 0.68172 1.0753l9.7636 29.794c0.29735 0.97852 0 1.4164-1.0218 1.4164zm-16.219-41.222c0-1.0272 0.4379-1.4705 1.4651-1.4705h4.152c1.0272 0 1.4651 0.44332 1.4651 1.4705v3.9033c0 1.0272-0.43789 1.4651-1.4651 1.4651h-4.1466c-1.0272 0-1.4651-0.43791-1.4651-1.4651zm8.2066 17.776-2.3463 9.7312h4.6439zm1.2218-17.776c0-1.0272 0.43789-1.4705 1.4651-1.4705h4.152c1.0218 0 1.4651 0.44332 1.4651 1.4705v3.9033c0 1.0272-0.44332 1.4651-1.4651 1.4651h-4.152c-1.0272 0-1.4651-0.43791-1.4651-1.4651zm12.159 10.061c0-1.0272 0.44331-1.4651 1.4651-1.4651h23.447c1.0272 0 1.4651 0.4379 1.4651 1.4651v3.5897c0 1.0272-0.4379 1.4651-1.4651 1.4651h-7.4227v24.62c0 1.0272-0.4379 1.4651-1.4651 1.4651h-5.8658c-1.0272 0-1.4705-0.43791-1.4705-1.4651v-24.614h-7.2281c-1.0218 0-1.4651-0.43791-1.4651-1.4651z"/>
		<path d="m391.21 43.99-0.25951-0.60009c-4.9375 2.9531-10.227 5.2743-15.743 6.9091-0.54062 0.15137-1.0218 0.29734-1.53 0.4325l-1.2759 0.32437-0.28112 0.07028-1.2164 0.27572-0.18381 0.03784-1.0812 0.21084-0.23787 0.04325c-0.38385 0.07028-0.76228 0.12975-1.1407 0.18922l-0.23786 0.03243c-0.34601 0.05406-0.6866 0.09732-1.0218 0.14056h-0.14057c-0.36221 0.04325-0.72442 0.07569-1.0812 0.10272h-0.24329l-1.0812 0.06487h-2.3949c-0.32437 0-0.64335-0.03785-0.9569-0.07028h-0.0541c-0.32438-0.03243-0.63794-0.07028-0.94609-0.11894h-0.16218c-0.30275-0.04865-0.6001-0.10272-0.89204-0.16759l-0.10812-0.02703c-0.29193-0.06487-0.57846-0.13516-0.85418-0.21625-0.28112-0.08109-0.54062-0.173-0.82174-0.27031l-0.11353-0.03784c-0.25951-0.10272-0.51359-0.20544-0.76228-0.31897l-0.0595-0.02703c-0.24868-0.11894-0.49197-0.23787-0.72443-0.37303-0.89689-0.49613-1.6992-1.1478-2.3679-1.9246-0.0324-0.03784-0.0703-0.07569-0.10272-0.11894-1.3732-1.6759-2.0976-3.8708-2.1625-6.4875-0.96555 0.25388-1.8624 0.72114-2.6236 1.3673-0.7612 0.6462-1.3678 1.455-1.7749 2.3667-0.40708 0.9117-0.60495 1.9032-0.57846 2.9014 0.027 0.99815 0.2768 1.9776 0.732 2.8664 0.45575 0.88867 1.1045 1.6639 1.8992 2.2686 0.79417 0.60501 1.7143 1.0234 2.6923 1.2256 0.97798 0.20219 1.989 0.18219 2.9577-0.05839 0.96934-0.24004 1.8722-0.6947 2.6426-1.3305 0.0865-0.07028 0.16759-0.14597 0.24868-0.22166 1.9998 0.60258 4.0801 0.89419 6.1685 0.86499 3.1664-0.04703 6.3161-0.46418 9.3852-1.2434v21.209c-0.0433 1.6219-0.18381 2.6599-1.2542 3.5357l-70.221 57.544c-0.74768 0.61036-1.7067 0.89959-2.6674 0.80445-0.96069-0.0952-1.8441-0.56712-2.4577-1.3126l-39.076-47.71c-0.60873-0.74822-0.89743-1.7073-0.80227-2.6674 0.0952-0.96014 0.56657-1.8435 1.3105-2.4577l70.238-57.528c1.1299-0.91906 2.1625-0.81093 3.8925-0.44872l22.787 4.5683c0.0433-0.0811 0.0811-0.16219 0.11894-0.24869 2.7702-5.6634 6.355-10.891 10.639-15.516-4.479-2.8436-9.249-5.1996-14.229-7.0281-9.3706-3.478-19.596-5.2152-30.675-5.2116-10.96 0-21.084 1.7372-30.372 5.2116-8.944 3.2589-17.13 8.3065-24.058 14.835-6.8648 6.5835-12.262 14.542-15.84 23.355-3.806 9.1581-5.7106 19.418-5.7144 30.778 0 11.094 1.9046 21.218 5.7144 30.372 3.6119 8.9057 9.0181 16.972 15.882 23.699 6.8637 6.7264 15.038 11.968 24.015 15.399 9.2841 3.6584 19.412 5.4981 30.383 5.5197 11.094 0 21.318-1.8365 30.675-5.5089 9.037-3.4724 17.286-8.7229 24.258-15.44 6.8805-6.7091 12.307-14.762 15.943-23.658 3.806-9.1543 5.7106-19.279 5.7144-30.372 0-11.375-1.9046-21.643-5.7144-30.805z"/>
		<path d="m358.48 29.41 10.975 2.1949c0.95636 0.10369 1.8327 0.58014 2.4404 1.326 0.60712 0.7459 0.89581 1.7011 0.80336 2.6584v9.1906c-3.0967 0.92533-6.3009 1.4433-9.5312 1.5408-1.9679 0-3.5302-0.30275-4.552-0.86499-0.7839-1.5197-2.1209-2.6808-3.7357-3.2437 0.0135 1.3597 0.44764 2.6817 1.2434 3.7844l0.0324 0.04325c0.26977 0.32551 0.58279 0.61285 0.92987 0.85418 0.36167 0.25609 0.75201 0.47012 1.1623 0.63793h0.027c0.20544 0.0865 0.42169 0.16759 0.64875 0.23787h0.0649c0.22706 0.07028 0.45953 0.13516 0.7028 0.19462 0.24329 0.05406 0.49197 0.10272 0.75147 0.14597h0.0595c0.2487 0.03968 0.50278 0.07206 0.76229 0.09732h0.12975c0.25949 0.02703 0.54062 0.04865 0.7893 0.05947h2.4652l0.45412-0.03243h0.22166l0.46494-0.04325h0.20544l0.54061-0.05947h0.15138c7.2659-0.92987 16.402-4.4223 22.587-8.3526-3.4881-7.181-8.2504-13.669-14.056-19.149-2.1171-1.9949-4.3617-3.8496-6.7199-5.5522-4.0233 4.2609-7.3984 9.0897-10.018 14.332z"/>
	</g>
	<g fill="url(#paint0_linear)" stroke-width=".54062">
		<g>
			<path d="m407.76 12.953c0-4.5953 2.4058-7.001 7.0281-7.8768 13.539-2.0513 27.215-3.0742 40.909-3.0599 29.734 0 58.63 7.8714 58.63 49.002 0 33.254-21.874 47.256-50.754 47.256-7.8736-0.04487-15.72-0.92392-23.409-2.622v47.472c0 4.5953-1.9679 6.5631-6.5632 6.5631h-19.279c-4.5953 0-6.5632-1.9678-6.5632-6.5631zm47.694 62.788c15.094 0 27.783-4.1574 27.783-23.847 0-21.879-14.224-26.69-27.572-26.69-5.2219 0.0752-10.424 0.66188-15.532 1.7516v47.472c5.0386 1.0975 10.288 1.3137 15.321 1.3137z"/>
			<path d="m3.7478 123.43c0.87581-4.3736 3.7195-5.0332 7.001-3.7195 9.4068 3.7195 23.847 8.1093 37.411 8.1093 14.218 0 22.317-4.8169 22.317-17.3 0-12.91-8.3148-17.3-23.631-22.755-24.501-8.7527-46.596-16.408-46.596-45.726 0-28.22 24.939-41.13 53.597-41.13 11.346 0.033113 22.626 1.7363 33.475 5.0548 4.3736 1.3137 5.6873 3.9357 4.5953 8.3148l-2.6274 11.148c-1.0812 4.3736-3.5032 5.4657-7.439 4.152-3.9357-1.3137-14.002-4.3736-25.161-4.3736-13.78 0-26.031 1.3137-26.031 16.846 0 13.348 13.126 16.192 27.572 21.219 24.944 8.5364 42.228 21.879 42.228 45.072 0 26.69-21.003 43.974-49.883 43.974-19.252 0-35.005-3.5032-44.628-7.2227-3.9411-1.53-5.4711-4.8115-4.5953-9.1906z"/>
			<path d="m200.86 10.11c0-4.5953 1.9733-6.5632 6.5632-6.5632h19.035c4.5953 0 6.5632 1.9679 6.5632 6.5632v132.99c0 4.5953-1.9679 6.5631-6.5632 6.5631h-19.035c-4.5899 0-6.5632-1.9679-6.5632-6.5631v-56.419h-54.473v56.441c0 4.5953-1.9679 6.5631-6.5632 6.5631h-19.035c-4.5953 0-6.5631-1.9678-6.5631-6.5631v-132.99c0-4.5953 1.9679-6.5632 6.5631-6.5632h19.035c4.5953 0 6.5632 1.9679 6.5632 6.5632v51.191h54.473z"/>
		</g>
		<g>
			<path d="m762.42 170.04c8.3958-0.0611 16.786-0.55359 25.133-1.4759 6.2118-0.59468 9.1906 1.7732 9.4663 7.985l0.88662 15.078c0.29194 6.2117-2.6653 9.4663-8.8716 10.353-12.634 1.863-25.382 2.8512-38.152 2.9572-52.338 0-96.993-21.587-97.312-103.21 0-77.774 49.975-101.72 99.658-101.72 17.446 0 30.459 2.9572 39.628 5.3197 6.2063 1.7786 7.985 5.0278 6.801 10.942l-3.2437 14.786c-1.184 5.9144-4.7304 7.6876-10.056 5.9144-7.093-2.0706-15.965-4.4331-28.977-4.4331-32.827 0-58.847 15.97-59.144 68.308 0.29735 57.073 28.696 69.2 64.183 69.2z"/>
			<path d="m762.42 170.04c8.3958-0.0611 16.786-0.55359 25.133-1.4759 6.2118-0.59468 9.1906 1.7732 9.4663 7.985l0.88662 15.078c0.29194 6.2117-2.6653 9.4663-8.8716 10.353-12.634 1.863-25.382 2.8512-38.152 2.9572-52.338 0-96.993-21.587-97.312-103.21 0-77.774 49.975-101.72 99.658-101.72 17.446 0 30.459 2.9572 39.628 5.3197 6.2063 1.7786 7.985 5.0278 6.801 10.942l-3.2437 14.786c-1.184 5.9144-4.7304 7.6876-10.056 5.9144-7.093-2.0706-15.965-4.4331-28.977-4.4331-32.827 0-58.847 15.97-59.144 68.308 0.29735 57.073 28.696 69.2 64.183 69.2z"/>
			<path d="m762.42 170.04c8.3958-0.0611 16.786-0.55359 25.133-1.4759 6.2118-0.59468 9.1906 1.7732 9.4663 7.985l0.88662 15.078c0.29194 6.2117-2.6653 9.4663-8.8716 10.353-12.634 1.863-25.382 2.8512-38.152 2.9572-52.338 0-96.993-21.587-97.312-103.21 0-77.774 49.975-101.72 99.658-101.72 17.446 0 30.459 2.9572 39.628 5.3197 6.2063 1.7786 7.985 5.0278 6.801 10.942l-3.2437 14.786c-1.184 5.9144-4.7304 7.6876-10.056 5.9144-7.093-2.0706-15.965-4.4331-28.977-4.4331-32.827 0-58.847 15.97-59.144 68.308 0.29735 57.073 28.696 69.2 64.183 69.2z"/>
			<path d="m659.94 194.65c0 6.3956-2.7409 9.1365-9.1311 9.1365h-112.04c-6.3955 0-9.1365-2.741-9.1365-9.1365v-185.1c0-6.3901 2.741-9.1311 9.1365-9.1311h27.096c6.3901 0 9.1311 2.7409 9.1311 9.1311v158.94h75.811c6.3901 0 9.1311 2.741 9.1311 9.1311z"/>
			<path d="m659.94 194.65c0 6.3956-2.7409 9.1365-9.1311 9.1365h-112.04c-6.3955 0-9.1365-2.741-9.1365-9.1365v-185.1c0-6.3901 2.741-9.1311 9.1365-9.1311h27.096c6.3901 0 9.1311 2.7409 9.1311 9.1311v158.94h75.811c6.3901 0 9.1311 2.741 9.1311 9.1311z"/>
		</g>
		<g>
			<path d="m15.841 173.44c0-1.0218 0.4379-1.5138 1.5137-1.757 3.1468-0.53793 6.3332-0.8131 9.5258-0.82175 6.7415 0 13.283 1.7624 13.283 11.137 0 7.5687-5.0278 10.748-11.623 10.748-1.3106 5e-3 -2.6189-0.10866-3.9087-0.34059v9.9636c0 1.0272-0.4379 1.4651-1.4651 1.4651h-5.8603c-1.0272 0-1.4651-0.4379-1.4651-1.4651zm8.7905 13.191c0.73049 0.0811 1.4655 0.11354 2.2003 0.0973 2.6382 0 4.8332-0.7839 4.8332-4.5412 0-4.2547-2.4923-5.1792-4.7845-5.1792-0.75438-0.0119-1.508 0.053-2.249 0.19463zm19.246-13.24c0-1.0218 0.54062-1.5624 1.6219-1.757 3.1137-0.50709 6.2629-0.76552 9.4176-0.77308 6.7361 0 13.283 1.7624 13.283 11.137 0 5.3251-2.395 8.5472-6.0063 10.066l6.9848 10.548c0.58387 0.88121 0.38925 1.2218-0.63793 1.2218h-6.5415c-0.45142 0.0308-0.9023-0.0735-1.2937-0.2995-0.39195-0.22652-0.70767-0.56441-0.90662-0.97096l-5.763-9.6231c-0.4598-0.0341-0.91679-0.099-1.3678-0.19463v9.6231c0 1.0272-0.43785 1.4651-1.465 1.4651h-5.8603c-1.0272 0-1.4651-0.4379-1.4651-1.4651zm8.7904 13.629c0.73524 0.0487 1.5138 0.14597 2.2004 0.14597 2.6328 0 4.8332-0.83257 4.8332-4.9791 0-4.2547-2.4923-5.1792-4.7845-5.1792-0.75092-0.0195-1.5025 0.013-2.249 0.0973zm43.79 15.337c0 1.0272-0.4379 1.4651-1.4651 1.4651h-20.149c-1.0272 0-1.4651-0.43789-1.4651-1.4651v-29.696c0-1.0272 0.4379-1.4651 1.4651-1.4651h19.733c1.0218 0 1.4651 0.43789 1.4651 1.4651v3.66c0 1.0272-0.44331 1.4651-1.4651 1.4651h-12.434v5.9144h11.623c1.0272 0 1.4651 0.4379 1.4651 1.4651v3.5357c0 1.0272-0.4379 1.4651-1.4651 1.4651h-11.596v7.0281h12.845c1.0272 0 1.4651 0.44331 1.4651 1.4651zm13.478 0c0 1.0272-0.43791 1.4651-1.4651 1.4651h-5.8387c-1.0272 0-1.4651-0.43789-1.4651-1.4651v-29.696c0-1.0272 0.4379-1.4651 1.4651-1.4651h5.8603c1.0272 0 1.4651 0.43789 1.4651 1.4651zm5.1305-5.763c0.19463-1.0272 0.83256-1.2218 1.6219-0.88121 1.2705 0.54062 5.4062 2.249 8.4986 2.249 2.1625 0 3.7141-0.83256 3.7141-3.1789 0-2.4869-1.5137-3.3194-4.298-4.325-5.4711-2.0003-10.407-3.7843-10.407-10.402 0-6.4496 5.6657-9.4284 12.213-9.4284 2.7096 0.0276 5.3992 0.47034 7.9742 1.3137 1.0218 0.34059 1.3191 0.92988 1.1245 1.9084l-0.84337 3.6438c-0.19462 0.97853-0.7839 1.1732-1.7084 0.83256-0.6866-0.24328-3.7844-1.3678-6.4875-1.3678-2.2003 0-3.9087 0.72984-3.9087 3.0761 0 2.3463 2.6382 3.2437 5.7144 4.4439 4.1033 1.6219 8.9419 3.6168 8.9419 9.8663 0 6.055-4.8656 10.012-11.477 10.012-3.5189 0.0449-7.0151-0.56766-10.31-1.8057-0.40763-0.15624-0.74281-0.45683-0.9423-0.84499-0.19949-0.38817-0.24923-0.8358-0.13894-1.258zm46.088-22.76c0.43088-0.0362 0.8612 0.0789 1.2164 0.32599 0.35519 0.24653 0.61308 0.60928 0.72985 1.0256l5.1792 15.483 1.5137-18.024c0.0487-1.0272 0.54062-1.4651 1.5624-1.4651h5.2278c1.0218 0 1.4164 0.4379 1.3191 1.4651l-3.2437 29.696c-0.0973 1.0272-0.58387 1.4651-1.6219 1.4651h-6.4766c-0.43628 0.0416-0.87256-0.08-1.2245-0.34167-0.35141-0.26167-0.59361-0.64496-0.67848-1.0748l-5.7144-17.392-5.5684 17.392c-0.0779 0.4352-0.31627 0.82499-0.66713 1.0931-0.3514 0.26815-0.79039 0.39521-1.2304 0.35573h-6.4875c-1.0272 0-1.5137-0.4379-1.6219-1.4651l-3.1734-29.696c-0.0973-1.0272 0.29193-1.4651 1.3191-1.4651h5.1251c1.0272 0 1.5137 0.4379 1.5624 1.4651l1.5137 18.073 5.1792-15.564c0.10055-0.4233 0.35302-0.79525 0.71036-1.0445 0.35682-0.24923 0.79256-0.35843 1.2251-0.30707zm44.444 28.523c0 1.0272-0.43791 1.4651-1.4651 1.4651h-20.176c-1.0272 0-1.4651-0.43789-1.4651-1.4651v-29.696c0-1.0272 0.4379-1.4651 1.4651-1.4651h19.733c1.0218 0 1.4651 0.43789 1.4651 1.4651v3.66c0 1.0272-0.4433 1.4651-1.4651 1.4651h-12.407v5.9144h11.623c1.0272 0 1.4651 0.4379 1.4651 1.4651v3.5357c0 1.0272-0.43791 1.4651-1.4651 1.4651h-11.623v7.0281h12.845c1.0272 0 1.4651 0.44331 1.4651 1.4651zm4.6872-28.966c0-1.0218 0.54062-1.5624 1.6218-1.757 3.1118-0.50655 6.2593-0.76497 9.4122-0.77308 6.7416 0 13.288 1.7624 13.288 11.137 0 5.3251-2.395 8.5472-6.0117 10.066l6.9848 10.548c0.58928 0.88121 0.39465 1.2218-0.63252 1.2218h-6.5469c-0.45088 0.0308-0.90013-0.0741-1.2916-0.30004-0.39086-0.22652-0.70551-0.56441-0.90338-0.97042l-5.7684-9.6231c-0.45953-0.0346-0.91689-0.0995-1.3678-0.19463v9.6231c0 1.0272-0.43791 1.4651-1.4651 1.4651h-5.8603c-1.0218 0-1.4651-0.4379-1.4651-1.4651zm8.7905 13.629c0.73525 0.0487 1.5192 0.14597 2.2003 0.14597 2.6382 0 4.8386-0.83257 4.8386-4.9791 0-4.2547-2.4923-5.1792-4.7899-5.1792-0.75092-0.0195-1.5024 0.013-2.249 0.0973zm17.586-14.359c0-1.0272 0.43791-1.4651 1.4651-1.4651h23.447c1.0218 0 1.4651 0.43789 1.4651 1.4651v3.6059c0 1.0272-0.44331 1.4651-1.4651 1.4651h-7.4335v24.62c0 1.0272-0.43791 1.4651-1.4651 1.4651h-5.8603c-1.0272 0-1.4651-0.43791-1.4651-1.4651v-24.614h-7.2281c-1.0272 0-1.4651-0.43791-1.4651-1.4651zm52.748 29.696c0 1.0272-0.4379 1.4651-1.4651 1.4651h-20.176c-1.0272 0-1.4651-0.43789-1.4651-1.4651v-29.696c0-1.0272 0.43789-1.4651 1.4651-1.4651h19.733c1.0272 0 1.4651 0.43789 1.4651 1.4651v3.66c0 1.0272-0.4379 1.4651-1.4651 1.4651h-12.434v5.9144h11.623c1.0272 0 1.4651 0.4379 1.4651 1.4651v3.5357c0 1.0272-0.4379 1.4651-1.4651 1.4651h-11.623v7.0281h12.845c1.0272 0 1.4651 0.44331 1.4651 1.4651zm35.8-0.88121c2.7388 0.6109 5.3824 1.5873 7.8606 2.9031 0.83255 0.44332 0.97852 1.0272 0.38925 1.8598l-2.6382 3.66c-0.58387 0.83256-1.2164 0.7839-1.757 0.34059-3.7065-3.0253-8.131-5.044-12.845-5.8603-11.894-0.0487-14.116-8.3039-14.116-16.851s2.4923-16.9 14.408-16.9c12.018 0 14.31 8.304 14.31 16.9 0 5.3035-1.6597 11.067-5.617 13.948zm-2.9788-13.97c0-5.6657-0.68118-10.272-5.763-10.272-5.0818 0-5.8117 4.5899-5.8117 10.272 0 5.5684 0.78391 9.9636 5.8117 9.9636 5.0278 0 5.7576-4.3952 5.7576-9.9636zm26.712 16.873c-9.3798 0-12.975-4.006-12.975-12.699v-19.019c0-1.0272 0.4379-1.4651 1.4651-1.4651h5.9468c1.0272 0 1.4651 0.43789 1.4651 1.4651v18.743c0 3.8114 0.34059 6.1523 4.2006 6.1523 3.6654 0 4.1033-2.0976 4.1033-6.1523v-18.743c0-1.0272 0.4379-1.4651 1.4651-1.4651h5.9468c1.0272 0 1.4651 0.43789 1.4651 1.4651v18.997c5e-3 8.4499-3.168 12.721-13.083 12.721zm38.687-0.54062c-0.43683 0.0422-0.87418-0.0795-1.2267-0.34113-0.35248-0.26165-0.59523-0.64496-0.68173-1.0753l-1.903-6.055h-8.4499l-1.8543 6.055c-0.0865 0.43033-0.32925 0.81364-0.68173 1.0753s-0.78984 0.38331-1.2267 0.34113h-6.0063c-1.0272 0-1.3191-0.4379-0.97853-1.3678l10.012-29.891c0.1146-0.42061 0.37356-0.78823 0.73091-1.038 0.35735-0.24978 0.79147-0.36655 1.2261-0.32978h6.2171c0.43683-0.0422 0.87419 0.0795 1.2267 0.34113 0.35249 0.26166 0.59522 0.64495 0.68172 1.0753l9.7636 29.794c0.29733 0.97852 0 1.4164-1.0218 1.4164zm-8.012-23.463-2.3463 9.7312h4.6439zm39.611 21.982c0 1.0272-0.4379 1.4651-1.4651 1.4651h-18.657c-1.0272 0-1.4651-0.43789-1.4651-1.4651v-29.696c0-1.0272 0.4379-1.4651 1.4651-1.4651h5.8657c1.0272 0 1.4651 0.43789 1.4651 1.4651v24.517h11.353c1.0272 0 1.4651 0.44331 1.4651 1.4651zm12.061 0c0 1.0272-0.43789 1.4651-1.4651 1.4651h-5.8603c-1.0218 0-1.4651-0.43789-1.4651-1.4651v-29.696c0-1.0272 0.4433-1.4651 1.4651-1.4651h5.8766c1.0272 0 1.4651 0.43789 1.4651 1.4651zm3.2762-29.696c0-1.0272 0.4379-1.4651 1.4651-1.4651h23.441c1.0272 0 1.4651 0.43789 1.4651 1.4651v3.6059c0 1.0272-0.43791 1.4651-1.4651 1.4651h-7.4227v24.62c0 1.0272-0.43789 1.4651-1.4651 1.4651h-5.8603c-1.0272 0-1.4651-0.43791-1.4651-1.4651v-24.614h-7.2281c-1.0272 0-1.4651-0.43791-1.4651-1.4651zm47.867 31.178c-0.43736 0.0433-0.87472-0.0779-1.2278-0.3395-0.35303-0.2622-0.59523-0.64605-0.68064-1.0769l-1.903-6.055h-8.4499l-1.8543 6.055c-0.0865 0.43033-0.32924 0.81364-0.68172 1.0753-0.35249 0.26166-0.78986 0.38331-1.2267 0.34113h-6.0063c-1.0272 0-1.3191-0.4379-0.97852-1.3678l10.012-29.891c0.11461-0.42061 0.37357-0.78823 0.73092-1.038 0.35735-0.24978 0.79147-0.36655 1.2261-0.32978h6.2009c0.43682-0.0422 0.87418 0.0795 1.2267 0.34113 0.35248 0.26166 0.59523 0.64495 0.68172 1.0753l9.7636 29.794c0.29735 0.97852 0 1.4164-1.0218 1.4164zm-16.219-41.222c0-1.0272 0.4379-1.4705 1.4651-1.4705h4.152c1.0272 0 1.4651 0.44332 1.4651 1.4705v3.9033c0 1.0272-0.43789 1.4651-1.4651 1.4651h-4.1466c-1.0272 0-1.4651-0.43791-1.4651-1.4651zm8.2066 17.776-2.3463 9.7312h4.6439zm1.2218-17.776c0-1.0272 0.43789-1.4705 1.4651-1.4705h4.152c1.0218 0 1.4651 0.44332 1.4651 1.4705v3.9033c0 1.0272-0.44332 1.4651-1.4651 1.4651h-4.152c-1.0272 0-1.4651-0.43791-1.4651-1.4651zm12.159 10.061c0-1.0272 0.44331-1.4651 1.4651-1.4651h23.447c1.0272 0 1.4651 0.4379 1.4651 1.4651v3.5897c0 1.0272-0.4379 1.4651-1.4651 1.4651h-7.4227v24.62c0 1.0272-0.4379 1.4651-1.4651 1.4651h-5.8658c-1.0272 0-1.4705-0.43791-1.4705-1.4651v-24.614h-7.2281c-1.0218 0-1.4651-0.43791-1.4651-1.4651z"/>
			<path d="m391.21 43.99-0.25951-0.60009c-4.9375 2.9531-10.227 5.2743-15.743 6.9091-0.54062 0.15137-1.0218 0.29734-1.53 0.4325l-1.2759 0.32437-0.28112 0.07028-1.2164 0.27572-0.18381 0.03784-1.0812 0.21084-0.23787 0.04325c-0.38385 0.07028-0.76228 0.12975-1.1407 0.18922l-0.23786 0.03243c-0.34601 0.05406-0.6866 0.09732-1.0218 0.14056h-0.14057c-0.36221 0.04325-0.72442 0.07569-1.0812 0.10272h-0.24329l-1.0812 0.06487h-2.3949c-0.32437 0-0.64335-0.03785-0.9569-0.07028h-0.0541c-0.32438-0.03243-0.63794-0.07028-0.94609-0.11894h-0.16218c-0.30275-0.04865-0.6001-0.10272-0.89204-0.16759l-0.10812-0.02703c-0.29193-0.06487-0.57846-0.13516-0.85418-0.21625-0.28112-0.08109-0.54062-0.173-0.82174-0.27031l-0.11353-0.03784c-0.25951-0.10272-0.51359-0.20544-0.76228-0.31897l-0.0595-0.02703c-0.24868-0.11894-0.49197-0.23787-0.72443-0.37303-0.89689-0.49613-1.6992-1.1478-2.3679-1.9246-0.0324-0.03784-0.0703-0.07569-0.10272-0.11894-1.3732-1.6759-2.0976-3.8708-2.1625-6.4875-0.96555 0.25388-1.8624 0.72114-2.6236 1.3673-0.7612 0.6462-1.3678 1.455-1.7749 2.3667-0.40708 0.9117-0.60495 1.9032-0.57846 2.9014 0.027 0.99815 0.2768 1.9776 0.732 2.8664 0.45575 0.88867 1.1045 1.6639 1.8992 2.2686 0.79417 0.60501 1.7143 1.0234 2.6923 1.2256 0.97798 0.20219 1.989 0.18219 2.9577-0.05839 0.96934-0.24004 1.8722-0.6947 2.6426-1.3305 0.0865-0.07028 0.16759-0.14597 0.24868-0.22166 1.9998 0.60258 4.0801 0.89419 6.1685 0.86499 3.1664-0.04703 6.3161-0.46418 9.3852-1.2434v21.209c-0.0433 1.6219-0.18381 2.6599-1.2542 3.5357l-70.221 57.544c-0.74768 0.61036-1.7067 0.89959-2.6674 0.80445-0.96069-0.0952-1.8441-0.56712-2.4577-1.3126l-39.076-47.71c-0.60873-0.74822-0.89743-1.7073-0.80227-2.6674 0.0952-0.96014 0.56657-1.8435 1.3105-2.4577l70.238-57.528c1.1299-0.91906 2.1625-0.81093 3.8925-0.44872l22.787 4.5683c0.0433-0.0811 0.0811-0.16219 0.11894-0.24869 2.7702-5.6634 6.355-10.891 10.639-15.516-4.4785-2.8436-9.249-5.1996-14.229-7.0281-9.3706-3.478-19.596-5.2152-30.675-5.2116-10.96 0-21.084 1.7372-30.372 5.2116-8.944 3.2589-17.13 8.3065-24.058 14.835-6.8648 6.5835-12.262 14.542-15.84 23.355-3.806 9.1581-5.7106 19.418-5.7144 30.778 0 11.094 1.9046 21.218 5.7144 30.372 3.6119 8.9057 9.0181 16.972 15.882 23.699 6.8637 6.7264 15.038 11.968 24.015 15.399 9.2841 3.6584 19.412 5.4981 30.383 5.5197 11.094 0 21.318-1.8365 30.675-5.5089 9.037-3.4724 17.286-8.7229 24.258-15.44 6.8805-6.7091 12.307-14.762 15.943-23.658 3.806-9.1543 5.7106-19.279 5.7144-30.372 0-11.375-1.9046-21.643-5.7144-30.805z"/>
			<path d="m358.48 29.41 10.975 2.1949c0.95636 0.10369 1.8327 0.58014 2.4404 1.326 0.60712 0.7459 0.89581 1.7011 0.80336 2.6584v9.1906c-3.0967 0.92533-6.3009 1.4433-9.5312 1.5408-1.9679 0-3.5302-0.30275-4.552-0.86499-0.7839-1.5197-2.1209-2.6808-3.7357-3.2437 0.0135 1.3597 0.44764 2.6817 1.2434 3.7844l0.0324 0.04325c0.26977 0.32551 0.58279 0.61285 0.92987 0.85418 0.36167 0.25609 0.75201 0.47012 1.1623 0.63793h0.027c0.20544 0.0865 0.42169 0.16759 0.64875 0.23787h0.0649c0.22706 0.07028 0.45953 0.13516 0.7028 0.19462 0.24329 0.05406 0.49197 0.10272 0.75147 0.14597h0.0595c0.2487 0.03968 0.50278 0.07206 0.76229 0.09732h0.12975c0.25949 0.02703 0.54062 0.04865 0.7893 0.05947h2.4652l0.45412-0.03243h0.22166l0.46494-0.04325h0.20544l0.54061-0.05947h0.15138c7.2659-0.92987 16.402-4.4223 22.587-8.3526-3.4881-7.181-8.2504-13.669-14.056-19.149-2.1171-1.9949-4.3617-3.8496-6.7199-5.5522-4.0233 4.2609-7.3984 9.0897-10.018 14.332z"/>
		</g>
	</g>
	<defs>
		<linearGradient id="paint0_linear" x1="740.67" x2="740.67" y1="285.46" y2="58.56" gradientTransform="matrix(.54062 0 0 .54062 -.29066 0)" gradientUnits="userSpaceOnUse">
			<stop stop-color="#0B9CF5" offset="0"/>
			<stop stop-color="#1C35B0" offset=".99"/>
		</linearGradient>
	</defs>
</svg>
