<?xml version="1.0" encoding="UTF-8"?>
<svg width="800" height="177.78" fill="none" version="1.1" viewBox="0 0 800 177.78" xmlns="http://www.w3.org/2000/svg">
	<g transform="translate(0 .00043518)" fill="#09e804" stroke-width="7.4073">
		<path d="m195.06 35.842c-15.923 0-28.831 12.722-28.831 28.412v52.658c0 32.302-26.576 58.495-59.359 58.495h-89.907c-9.366 0-16.96-7.4836-16.96-16.712 0-9.231 7.5935-16.715 16.96-16.715h86.512c15.924 0 28.832-12.725 28.832-28.416v-52.651c0-32.306 26.577-58.499 59.359-58.499h42.403c9.3666 0 16.961 7.4837 16.961 16.713 0 9.2294-7.594 16.714-16.961 16.714z"/>
		<path d="m301.91 0.050374c-9.3666 0-16.96 7.4837-16.96 16.713v144.29c0 9.2303 7.5932 16.713 16.96 16.713s16.96-7.4829 16.96-16.713v-144.29c0-9.2294-7.5932-16.713-16.96-16.713z"/>
		<path d="m794.17 148.45-69.2-59.563 69.2-59.56c7.0666-6.0566 7.8147-16.613 1.674-23.58-6.1481-6.9648-16.859-7.7034-23.926-1.6474l-72.73 62.597-72.727-62.597c-7.0703-6.056-17.783-5.3174-23.928 1.6474-6.1451 6.9672-5.3955 17.524 1.6763 23.58l69.198 59.56-69.202 59.563c-7.0681 6.0548-7.8177 16.611-1.6726 23.578 6.1451 6.9651 16.858 7.7044 23.928 1.6481l72.727-62.601 72.73 62.601c7.0666 6.0562 17.785 5.317 23.926-1.6481 6.1407-6.9673 5.3925-17.524-1.674-23.578"/>
		<path d="m558.68 148.45-69.202-59.563 69.198-59.56c7.0725-6.0566 7.8221-16.613 1.677-23.58-6.1473-6.9648-16.862-7.7034-23.93-1.6474l-72.727 62.597-72.726-62.597c-7.0703-6.056-17.783-5.3174-23.928 1.6474-6.1451 6.9672-5.3955 17.524 1.6763 23.58l69.198 59.56-69.202 59.563c-7.0681 6.0548-7.8177 16.611-1.6726 23.578 6.1451 6.9651 16.858 7.7044 23.928 1.6481l72.726-62.601 72.73 62.601c7.0688 6.0562 17.783 5.317 23.926-1.6481 6.1451-6.9673 5.3955-17.524-1.6726-23.578z"/>
	</g>
</svg>
