<svg xmlns="http://www.w3.org/2000/svg" width="542.073" height="122.241"><g fill="#8cd024"><path d="M132.168 24.645c-10.789 0-19.535 8.748-19.535 19.537V80.39c0 22.21-18.008 40.221-40.222 40.221h-60.92C5.146 120.611 0 115.466 0 109.12c0-6.347 5.145-11.493 11.492-11.493h58.62c10.79 0 19.536-8.75 19.536-19.54V41.886c0-22.214 18.008-40.225 40.221-40.225h28.732c6.347 0 11.492 5.146 11.492 11.493 0 6.346-5.145 11.492-11.492 11.492h-26.433M204.57.035c-6.347 0-11.493 5.146-11.493 11.492v99.217c0 6.347 5.146 11.492 11.492 11.492 6.347 0 11.492-5.145 11.492-11.492V11.527c0-6.346-5.145-11.492-11.492-11.492M538.121 102.075l-46.89-40.955 46.888-40.954c4.792-4.165 5.298-11.423 1.134-16.214-4.164-4.79-11.424-5.297-16.213-1.133l-49.279 43.042L424.483 2.82c-4.791-4.164-12.05-3.656-16.214 1.133-4.164 4.79-3.656 12.05 1.136 16.214l46.888 40.954-46.89 40.955c-4.79 4.164-5.298 11.422-1.134 16.213 4.164 4.79 11.423 5.298 16.214 1.133l49.278-43.044 49.282 43.044c4.789 4.165 12.049 3.657 16.21-1.133 4.164-4.79 3.658-12.05-1.132-16.213M378.561 102.075l-46.89-40.955 46.888-40.954c4.792-4.165 5.3-11.423 1.136-16.214-4.166-4.79-11.426-5.297-16.215-1.133l-49.279 43.042L264.923 2.82c-4.791-4.164-12.05-3.656-16.214 1.133-4.164 4.79-3.656 12.05 1.136 16.214l46.888 40.954-46.89 40.955c-4.79 4.164-5.298 11.422-1.134 16.213 4.164 4.79 11.423 5.298 16.214 1.133L314.2 76.377l49.282 43.044c4.789 4.165 12.049 3.657 16.212-1.133 4.164-4.79 3.656-12.05-1.134-16.213"/></g></svg>