<?xml version="1.0" encoding="UTF-8"?>
<svg version="1.1" viewBox="0 0 800 193.09" xmlns="http://www.w3.org/2000/svg" xmlns:xlink="http://www.w3.org/1999/xlink">
	<defs>
		<linearGradient id="b">
			<stop stop-color="#00d670" offset="0"/>
			<stop stop-color="#00ea81" offset=".519"/>
			<stop stop-color="#00fd8c" offset="1"/>
		</linearGradient>
		<linearGradient id="d" x1="622.33" x2="629.64" y1="87.048" y2="87.048" gradientTransform="matrix(-.30848 -8.8533 -8.8327 .3092 1101.8 5584.6)" gradientUnits="userSpaceOnUse">
			<stop stop-color="#fff" stop-opacity=".675" offset="0"/>
			<stop stop-color="#fff" stop-opacity=".325" offset=".5"/>
			<stop stop-color="#fff" stop-opacity=".2" offset="1"/>
		</linearGradient>
		<linearGradient id="e" x1="1033.9" x2="1033.9" y1="249.56" gradientTransform="matrix(.77374 0 0 .77374 0 .00039)" gradientUnits="userSpaceOnUse">
			<stop stop-color="#00ff8d" offset="0"/>
			<stop stop-color="#00ce72" offset=".616"/>
			<stop stop-color="#00b15e" offset="1"/>
		</linearGradient>
		<linearGradient id="u" x1="923.95" x2="931.26" y1="251.76" y2="251.76" gradientTransform="matrix(-.4589 -13.141 13.141 -.4589 -2134.3 12341)" gradientUnits="userSpaceOnUse">
			<stop stop-color="#fff" offset="0"/>
			<stop stop-color="#fff" stop-opacity=".733" offset=".209"/>
			<stop stop-color="#fff" stop-opacity=".51" offset=".419"/>
			<stop stop-color="#fff" stop-opacity=".4" offset=".566"/>
			<stop stop-color="#fff" stop-opacity=".176" offset="1"/>
		</linearGradient>
		<linearGradient id="c" x1="180.51" x2="180.56" y1="14.349" y2="235.56" gradientTransform="matrix(.77364 0 0 .77377 0 .03901)" gradientUnits="userSpaceOnUse" xlink:href="#b"/>
		<linearGradient id="p" x1="180.51" x2="180.56" y1="14.349" y2="235.56" gradientTransform="matrix(.77396 0 0 .77235 0 -.01815)" gradientUnits="userSpaceOnUse" xlink:href="#b"/>
		<filter id="n-3" x="-.018781" y="-.073515" width="1.0376" height="1.147" color-interpolation-filters="sRGB">
			<feGaussianBlur stdDeviation="1.126"/>
		</filter>
		<filter id="m-6" x="-.060309" y="-.22969" width="1.1206" height="1.4594" color-interpolation-filters="sRGB">
			<feGaussianBlur stdDeviation="3.664"/>
		</filter>
		<filter id="l-6" x="-.14766" y="-.48277" width="1.2953" height="1.9655" color-interpolation-filters="sRGB">
			<feGaussianBlur stdDeviation="9.449"/>
		</filter>
		<filter id="k-8" x="-.44519" y="-1.8717" width="1.8904" height="4.7434" color-interpolation-filters="sRGB">
			<feGaussianBlur stdDeviation="27.169"/>
		</filter>
		<filter id="j-9" x="-.27144" y="-1.0935" width="1.5429" height="3.187" color-interpolation-filters="sRGB">
			<feGaussianBlur stdDeviation="16.491"/>
		</filter>
		<filter id="i-0" x="-.41687" y="-1.3214" width="1.8337" height="3.6428" color-interpolation-filters="sRGB">
			<feGaussianBlur stdDeviation="24.662"/>
		</filter>
		<filter id="h-3" x="-.44975" y="-.95002" width="1.8995" height="2.9" color-interpolation-filters="sRGB">
			<feGaussianBlur stdDeviation="29.695"/>
		</filter>
		<filter id="g-5" x="-.53241" y="-.87938" width="2.0648" height="2.7588" color-interpolation-filters="sRGB">
			<feGaussianBlur stdDeviation="23.699"/>
		</filter>
		<filter id="f-2" x="-.7882" y="-.9358" width="2.5764" height="2.8716" color-interpolation-filters="sRGB">
			<feGaussianBlur stdDeviation="62.595"/>
		</filter>
	</defs>
	<path d="m192.84 179.51c2.316 1.1605 7.0016 2.5079 12.791 2.74 10.113 0.2321 15.617-3.5916 19.709-12.645l33.11-73.931c6.9877-15.604 13.732-30.571 20.965-46.813-2.2387-1.1609-7.2101-2.4643-11.225-2.6191-6.9475-0.15448-16.294 1.3389-22.239 15.577l-17.504 41.228-34.295-55.895c-2.2387-0.61906-7.6427-1.6598-11.579-1.6598-11.995 0-18.984 4.4763-26.009 12.137l-33.373 36.519 26.804 42.185c5.0178 7.7377 11.452 11.761 22.028 11.761 7.0248 0 12.989-1.5749 15.614-2.8902l-32.336-48.764 22.895-24.304c5.2356 8.3062 10.507 16.565 15.785 24.816l21.768 34.212zm-70.905-45.653c-3e-3 8.8982-3.3965 14.005-20.765 14.005-2.3164 0-4.362-0.15448-6.2922-0.4642v-117.92c0-8.9758 2.9648-18.439 20.534-18.377 2.2387 8e-3 4.5547 0.2321 6.5617 0.6963zm-35.78-17.797c0 16.636-10.847 28.745-32.848 31.067-15.98 1.7023-39.023-0.27034-50.062-1.5861-0.38619-1.7796-0.6179-3.9461-0.6179-5.8033 0-14.469 7.7972-17.797 15.131-17.797 7.6427 0 19.685 1.393 28.563 1.393 9.5111 0 12.815-3.3274 12.815-6.4996 0-4.1786-3.9372-5.9199-11.579-7.3897l-21.036-4.0241c-17.369-3.4815-26.517-15.358-26.517-28.126 0-15.356 10.776-28.506 32.577-30.873 16.289-1.7799 36.205 0.23172 47.09 1.5475 0.38619 1.8572 0.6179 3.6367 0.6179 5.5712 0 14.469-7.5654 17.584-14.976 17.584-5.6357 0-14.436-1.0253-24.394-1.0253-10.19 0-14.409 2.8632-14.409 6.2678 0 3.6364 4.1805 5.2035 10.588 6.2095l19.723 3.6947c20.742 3.8441 29.335 15.475 29.335 29.79" fill="url(#c)"/>
	<path d="m94.875 29.48v80.859c0-3.714 2.9335-6.732 6.639-6.8093 2.9335-0.0772 11.116-0.38696 13.587-0.4642 2.7022-0.0772 6.7934-1.9348 6.8707-6.8865v-84.341a30.972 30.972 0 0 0-6.5613-0.6963c-17.586-0.0772-20.535 9.2851-20.535 18.339m61.687 28.153-33.373 36.52 2.6968 4.2268c1.1582 1.5475 3.4182 4.1052 7.8956 3.9507 1.6212-0.0776 17.696-0.52097 19.008-0.59821 4.1689-0.15447 6.8649 1.5536 8.4861 3.7202l-5.9759-9.0075 22.895-24.304 15.412 24.233c2.779 3.6367 6.9502 3.6738 7.8763 3.6738 0.77238 0 20.998-0.6963 21.847-0.77392 1.3895-0.0772 3.1038 0.73414 4.3388 2.5141l-33.519-54.631c-2.2387-0.6963-7.6427-1.6598-11.579-1.6598-12.004 0.0336-18.984 4.4763-26.009 12.137m-123.99-11.286c-21.619 2.4608-32.577 15.321-32.577 30.873 0 7.9702 3.5213 15.63 10.469 21.124 5.2495 3.4819 10.76 4.8749 16.087 5.8033 4.4002 0.77392 14.667 1.4698 22.31 1.1605 2.3928-0.0772 19.994-0.6963 23.776-0.85116 8.9546-0.30934 13.791 7.4241 13.328 15.085v-0.38697c0.07724-1.006 0.18151-2.085 0.18151-3.0907 0-14.315-8.5541-26.016-29.335-29.868l-19.723-3.617c-6.4243-1.0273-10.588-2.5732-10.588-6.2099 0-3.4043 4.296-6.2675 14.409-6.2675 10.036 0 18.759 1.0253 24.394 1.0253 7.3337 0 14.976-3.2691 14.976-17.739 0-1.8568-0.23171-3.5591-0.6179-5.4163-7.7972-0.85116-20.303-2.3986-32.731-2.3986-4.8637 0.15447-9.7269 0.38696-14.359 0.77353m213.37 15.476-17.288 40.717s1.2312-3.5081 4.5508-3.663c0 0 16.829-0.61906 18.064-0.61906 5.5824-0.1595 7.706-3.9005 8.3235-5.1386l19.813-44.254c-2.2387-1.1609-7.2932-2.5438-11.308-2.6214l-0.84923-9e-3c-6.8703 0.0772-15.594 1.8923-21.306 15.588" fill="url(#d)" opacity=".5"/>
	<rect x="315.82" y=".7945" width="482.18" height="191.51" rx="12.747" ry="12.747"/>
	<path d="m326.64 3.9e-4c-7.0962 0-12.827 5.7608-12.827 12.853v167.39c0 7.092 5.7504 12.854 12.827 12.854h460.53c7.0769 0 12.827-5.7619 12.827-12.854v-167.39c0-7.1113-5.7504-12.853-12.827-12.853zm3e-3 3.8549h1.0952l458.28 0.0386h1.0952c4.5756 0.0842 8.9831 3.507 8.9576 9.5852v166.16c0.0255 6.0786-4.3821 9.5014-8.9576 9.5852h-1.0952l-458.28-0.0382h-1.0952c-4.576-0.0838-8.9835-3.507-8.958-9.5852v-166.16c-0.0255-6.0786 4.3821-9.5014 8.958-9.5852" fill="url(#e)"/>
	<g fill="#02e313">
		<g>
			<path transform="matrix(.42947 0 0 .30846 -63.394 17.436)" d="m1584.3 148.67c-23.634 8.64-66.027 6.44-81.955 25.921-20.97 25.648-31.547 62.34-28.209 95.3 1.599 15.786 17.055 24.364 31.956 29.815 4.472 1.636 87.003-50.862 92.03-44.25l10.56 13.895 9.207 36.888s24.903-4.356 32.486-8.227c12.013-6.132 8.178-18.29 12.18-31.17 7.71-24.818-14.867-83.38-26.684-102.16-6.136-9.751-38.806-25.584-51.571-16.01" filter="url(#f-2)" opacity=".37087"/>
			<path transform="matrix(.42909 0 0 .49812 -62.447 -57.437)" d="m1462.3 337.62 111.97-4.822v43.102l-16.9 10.086-13.6 5.016-76.012 6.475z" filter="url(#g-5)" opacity=".20582"/>
			<path transform="matrix(.44387 0 0 .54952 -64.215 -76.141)" d="m1467.4 332.18 51.785 37.778 55.046-37.163-19.271 68.72-52.429-3.84-14.784-23.813-20.15-1.354z" filter="url(#g-5)" opacity=".14175"/>
			<path transform="matrix(.48032 0 0 .48284 -141.38 -105.88)" d="m1467.4 332.18 106.83 0.615v65.294l-106.51-0.615z" filter="url(#g-5)" opacity=".16311"/>
			<path transform="matrix(.49404 0 0 .44446 -121.9 -86.735)" d="m1467.4 332.18 106.83 0.615v65.294l-106.51-0.615z" filter="url(#g-5)" opacity=".16311"/>
			<path transform="matrix(.46705 0 0 .47619 -78.446 -49.809)" d="m1467.4 332.18 106.83 0.615-19.27 68.72-52.429-3.84-14.784-23.813-20.15-1.354z" filter="url(#g-5)" opacity=".16311"/>
			<path transform="matrix(.46705 0 0 .47619 -51.233 -72.113)" d="m1467.4 332.18 106.83 0.615-19.27 68.72-52.429-3.84-14.784-23.813-20.15-1.354z" filter="url(#g-5)" opacity=".081553"/>
		</g>
		<path transform="matrix(.5206 0 0 .39731 -205.82 -1.8514)" d="m1486.5 215.04c52.22 42.63 103.52 37.303 154.28 3.285-57.2 19.87-49.858 44.19 4.181 71.732-52.727-31.72-105.45-44.126-158.18-12.743 43.503-20.758 30.423-41.516-0.279-62.273" filter="url(#h-3)" opacity=".6"/>
		<path transform="matrix(.46241 0 0 .35291 -114.88 9.3628)" d="m1492 230.15 134.51 7.602 7.475 37.19-65.145-23.65 13.311 0.16-29.318 1.285-56.16 11.62z" filter="url(#i-0)"/>
	</g>
	<path transform="matrix(.48961 0 0 .54915 -157.13 -41.466)" d="m1492 230.15h145.81l-2.285 27.206-3.622 8.988-21.775-7.28-41.986-23.737-33.338 27.558-33.344 1.74z" fill="#00e110" filter="url(#j-9)" opacity=".93398"/>
	<path transform="matrix(.42607 0 0 .36788 -60.437 15.861)" d="m1492 230.15h145.81l-1.92 34.838-67.05-13.695 13.311 0.16-29.318 1.284-38.083 4.435-14.098-3.834-9.31 7.094 5.9-14.052z" fill="#00e110" filter="url(#k-8)"/>
	<path transform="matrix(.42712 0 0 .55498 -59.143 -42.472)" d="m1492 230.15c51.043-3.347 100.11-3.511 145.81 0l2.04 39.487c-32.914-3.733-54.91 2.305-77.08 3.08-17.077 0.596-34.108-3.888-55.056-6.827l-21.446 8.662 7.843-16.55z" fill="#00ed11" filter="url(#l-6)" opacity=".62136"/>
	<path transform="matrix(.39462 0 0 .41467 -7.7056 -7.1935)" d="m1492 229.92h145.81v38.285h-145.81z" fill="#d7efdf" filter="url(#m-6)"/>
	<path transform="matrix(.38237 0 0 .38096 11.387 1.2041)" d="m1493 230.68h143.89v36.76h-143.89z" fill="#b2f7bb" filter="url(#n-3)" opacity=".54175"/>
	<path transform="matrix(.38237 0 0 .38096 11.387 1.2041)" d="m1493 230.68h143.89v36.76h-143.89z" fill="#ebfdf5" filter="url(#n-3)"/>
	<g fill="url(#p)">
		<path d="m353.91 60.708c-0.25527 0.38696-0.49162 0.76156-0.72411 1.1246-2.2708 3.7596-3.2845 8.0107-3.2845 12.425 0 1.4304 0.11508 2.9041 0.35297 4.2628 0.99289 5.7334 4.1268 10.651 9.9892 14.652 4.956 3.2787 9.6516 5.0819 15.745 6.6911l16.247 4.3898c14.497 3.9978 16.771 8.6425 16.771 13.919 0 4.632-2.3612 8.5309-8.0026 10.851-3.41 1.3625-7.9972 2.2075-13.959 2.2075-15.424 0-26.389-4.9081-30.785-4.9081-4.2805 0-6.7726 3.2903-6.4513 9.6567 0.0498 1.0659 0.11624 2.1588 0.29929 2.9285 7.4357 2.9003 21.445 6.269 36.304 6.464 8.2938 0 15.531-1.208 21.114-3.4467 12.51-4.8969 17.769-14.289 17.769-24.367 0-12.463-7.3785-21.218-26.351-26.603l-16.916-4.6501c-13.346-3.5954-15.867-8.0528-15.867-12.686 0-5.5175 3.5128-9.9088 12.936-11.369 2.3631-0.3607 4.7714-0.49393 7.2086-0.48273 14.011-0.1008 23.878 4.0627 28.099 4.0627 0.31127 0 0.70171-7e-3 0.99251-0.0413 4.5393-0.61907 6.3659-4.6906 4.998-12.289-8.3915-3.3556-22.546-5.8457-33.973-5.8457-6.3856-0.0205-12.34 0.67583-17.646 2.4975-6.1161 2.0993-11.398 5.5445-14.867 10.556"/>
		<path d="m439.39 96.502c0-28.13 20.553-48.886 47.775-48.886 12.693 0 24.488 3.6452 32.711 7.4117 1.3648 8.7213-1.2868 12.387-5.2784 12.387-6.7853 0-12.742-5.7001-26.872-5.7001-17.456 0-32.131 13.089-32.131 34.586 0 21.398 14.53 34.779 32.092 34.779 14.13 0 20.115-5.9357 26.262-5.8921 4.2006 0.0297 6.9282 3.3826 5.9693 12.438-7.6226 3.9608-19.557 7.6774-32.251 7.6774-27.063 0.56075-48.278-20.751-48.278-48.801"/>
		<path d="m550.92 22.533c-4.9625-0.0379-8.9943 4.0032-8.9561 8.9766 0 4.6459 4.1307 8.9781 8.9557 8.9781 4.9664-0.0193 9.014-4.0017 9.1264-8.9781 0-5.1969-3.9623-8.9766-9.126-8.9766m0.59087 26.061c-6.4748 0-8.6317 2.3507-8.6317 6.0659v88.966l-0.0154 0.0108c2.4523 0.51903 4.951 0.77353 7.4573 0.78319 6.4463 0 8.4104-2.1256 8.4104-6.0578v-89.001a34.371 34.371 0 0 0-7.2206-0.7662"/>
		<path d="m682.21 52.581v5.7098h31.907c0.33714 2.1314 0.53603 4.3782 0.59473 6.5351 0 5.6492-2.1882 7.6172-5.9164 7.6172h-26.585l-0.0386 65.451c-4e-3 3.9109-2.1495 6.0941-8.5977 6.0941-2.4886-8e-3 -5.0857-0.27226-7.5191-0.78976l0.0386-70.756h-14.097a42.481 42.481 0 0 1-0.59511-6.4486c0-5.6492 2.3415-7.7114 5.8488-7.7037h8.843v-4.4566c0-21.619 13.242-31.923 30.606-31.923 8.1949 0 17.802 1.9734 23.084 4.123 0.28964 1.3382 0.41708 2.6284 0.37924 3.9967 0 6.0554-2.5334 8.5425-5.6615 8.5425-2.5288 0-8.1331-2.5678-16.894-2.5678-9.452 0-15.397 4.7076-15.397 16.575"/>
		<path d="m746.85 22.533c-4.9579-0.0382-8.9866 4.0032-8.9484 8.9766 0 4.6455 4.1272 8.9665 8.948 8.9665 4.9621-0.0193 9.0063-3.9901 9.1187-8.9665 0-5.1969-3.9592-8.9766-9.1183-8.9766m0.59048 26.061c-6.4694 0-8.6244 2.3511-8.6244 6.0663v88.954l-0.0154 0.0108a36.688 36.688 0 0 0 7.4511 0.79477c6.4405 0 8.4031-2.126 8.4031-6.0578v-89.002a34.371 34.371 0 0 0-7.2144-0.7662"/>
	</g>
	<path d="m326.7 3.9e-4c-6.2122 0-11.42 4.3794-12.629 10.291a12.937 12.937 0 0 0-0.25721 2.5616v92.77c0.01-1.4864 0.60787-8.9905 9.257-9.8347 0.43833-0.0807 0.87472-0.068 1.235-0.0772 155.37-5.4406 309.89-10.826 465.27-16.27 4.864-0.15525 10.427-3.8368 10.427-9.8718v-56.717c0-0.0328-0.01-0.0633-0.01-0.0965-0.12478-7.0761-5.8883-12.756-12.884-12.756z" fill="url(#u)" opacity=".34"/>
</svg>
