<?xml version="1.0" encoding="UTF-8" standalone="no"?>
<svg
   xmlns:dc="http://purl.org/dc/elements/1.1/"
   xmlns:cc="http://creativecommons.org/ns#"
   xmlns:rdf="http://www.w3.org/1999/02/22-rdf-syntax-ns#"
   xmlns:svg="http://www.w3.org/2000/svg"
   xmlns="http://www.w3.org/2000/svg"
   xmlns:sodipodi="http://sodipodi.sourceforge.net/DTD/sodipodi-0.dtd"
   xmlns:inkscape="http://www.inkscape.org/namespaces/inkscape"
   width="6763.314"
   height="829.25171"
   version="1.1"
   viewBox="0 0 6763.5264 829.25173"
   id="svg28"
   sodipodi:docname="sky serien &amp; shows hd.svg"
   inkscape:version="0.92.4 5da689c313, 2019-01-14">
  <metadata
     id="metadata34">
    <rdf:RDF>
      <cc:Work
         rdf:about="">
        <dc:format>image/svg+xml</dc:format>
        <dc:type
           rdf:resource="http://purl.org/dc/dcmitype/StillImage" />
        <dc:title></dc:title>
      </cc:Work>
    </rdf:RDF>
  </metadata>
  <defs
     id="defs32" />
  <sodipodi:namedview
     pagecolor="#ffffff"
     bordercolor="#666666"
     borderopacity="1"
     objecttolerance="10"
     gridtolerance="10"
     guidetolerance="10"
     inkscape:pageopacity="0"
     inkscape:pageshadow="2"
     inkscape:window-width="1920"
     inkscape:window-height="1015"
     id="namedview30"
     showgrid="false"
     inkscape:zoom="0.23989701"
     inkscape:cx="4165.4724"
     inkscape:cy="316.37727"
     inkscape:window-x="0"
     inkscape:window-y="0"
     inkscape:window-maximized="1"
     inkscape:current-layer="svg28"
     showguides="true"
     inkscape:guide-bbox="true"
     inkscape:snap-bbox="true"
     inkscape:bbox-paths="true"
     inkscape:pagecheckerboard="true"
     inkscape:snap-smooth-nodes="true"
     fit-margin-top="0"
     fit-margin-left="0"
     fit-margin-right="0"
     fit-margin-bottom="0">
    <sodipodi:guide
       position="1484.5158,532.02195"
       orientation="0,1"
       id="guide36"
       inkscape:locked="false" />
    <sodipodi:guide
       position="1542.1125,121.52194"
       orientation="0,1"
       id="guide38"
       inkscape:locked="false" />
    <sodipodi:guide
       position="5970.9352,121.52194"
       orientation="1,0"
       id="guide65"
       inkscape:locked="false" />
    <sodipodi:guide
       position="2509.8064,469.7039"
       orientation="1,0"
       id="guide69"
       inkscape:locked="false" />
    <sodipodi:guide
       position="2393.199,667.15227"
       orientation="1,0"
       id="guide71"
       inkscape:locked="false" />
    <sodipodi:guide
       position="6087.5426,698.64302"
       orientation="1,0"
       id="guide73"
       inkscape:locked="false" />
    <sodipodi:guide
       position="3185.29,624.63439"
       orientation="1,0"
       id="guide75"
       inkscape:locked="false" />
    <sodipodi:guide
       position="6763.0262,828.75175"
       orientation="1,0"
       id="guide79"
       inkscape:locked="false" />
    <sodipodi:guide
       position="2509.841,173.5332"
       orientation="0,1"
       id="guide81"
       inkscape:locked="false" />
    <sodipodi:guide
       position="44.389015,667.15406"
       orientation="0,1"
       id="guide83"
       inkscape:locked="false" />
    <sodipodi:guide
       position="40.100586,0.49997998"
       orientation="0,1"
       id="guide85"
       inkscape:locked="false" />
    <sodipodi:guide
       position="0.50001567,622.63411"
       orientation="0,1"
       id="guide89"
       inkscape:locked="false" />
    <sodipodi:guide
       position="3124.8545,220.50129"
       orientation="0,1"
       id="guide899"
       inkscape:locked="false" />
  </sodipodi:namedview>
  <path
     style="display:inline;fill:#ffffff;fill-opacity:1;stroke:#1e87f0;stroke-width:1.00003135;stroke-opacity:1"
     d="M 45.021313,162.09232 H 6718.5051 c 24.6648,0 44.5213,19.8565 44.5213,44.5213 v 577.63239 c 0,24.6648 -19.8565,44.52129 -44.5213,44.52129 H 45.021313 c -24.664798,0 -44.52129732,-19.85649 -44.52129732,-44.52129 V 206.61362 c 0,-24.6648 19.85649932,-44.5213 44.52129732,-44.5213 z"
     id="rect897"
     inkscape:connector-curvature="0" />
  <path
     d="m 1109.899,162.09411 h 4861.0362 v 666.67 H 1109.899 Z"
     id="path4"
     inkscape:connector-curvature="0"
     style="display:inline;fill:#0082dc;stroke-width:10.8126297"
     inkscape:label="BGblue" />
  <path
     d="m 507.16902,226.53772 c -55,0 -64.443,28.889 -64.443,57.223 v 370 c 6.1111,1.1111 12.221,1.666 19.443,1.666 54.444,0 65.557,-16.111 65.557,-43.889 v -382.78 c -6.6667,-1.6667 -13.89,-2.2227 -20.557,-2.2227 z m 210.56,108.33 c -37.778,0 -59.444,13.888 -81.666,37.777 l -104.45,114.45 84.445,132.78 c 15.556,24.444 36.11,36.666 69.443,36.666 21.667,0 40.001,-4.9998 48.334,-8.8887 l -101.67,-153.33 72.221,-76.111 118.33,185.56 -72.223,151.11 c 7.2222,3.8889 21.668,8.334 40.557,8.334 31.667,0.5555 48.888,-11.667 61.666,-40 l 169.99998,-378.89 c -7.2222,-3.889 -22.77798,-7.7765 -34.99998,-8.3321 -21.667,-0.5555 -51.111,3.8886 -70,48.889 l -55,130 -108.33,-175 c -7.2223,-2.2222 -23.888,-5 -36.666,-5 z m -426.84,0.01 c -14.891,0.047 -29.739,0.6937 -43.715,2.2129 -67.778,7.7777 -102.22,48.332 -102.22,97.221 0,40 28.888,77.778 83.332,88.334 l 65,11.666 c 24.444,5 36.668,10.001 36.668,23.334 0,10 -8.8889,20.555 -40,20.555 -28.333,0 -66.111,-3.8887 -90,-3.8887 -23.333,0 -47.779,10.556 -47.779,56.111 0,5.5556 1.1116,12.778 2.2227,18.334 34.444,3.8889 107.22,10.556 157.22,5 69.444,-7.7778 103.33,-45.555 103.33,-97.777 0,-45 -27.224,-81.666 -91.668,-93.889 l -62.777,-11.668 c -20,-3.3334 -32.777,-8.3322 -32.777,-19.443 0,-10.556 12.778,-19.445 45,-19.445 31.667,0 58.888,3.3339 76.666,3.3339 23.333,0 47.223,-9.4445 47.223,-55 0,-6.1112 -0.5549,-11.666 -1.666,-17.777 -23.299,-3.0556 -60.252,-6.8989 -97.682,-7.1973 -2.1267,-0.017 -4.2555,-0.022 -6.3828,-0.016 z"
     id="path18"
     inkscape:label="sky"
     inkscape:connector-curvature="0"
     style="fill:#0082dc;stroke-width:5.55560017" />
  <g
     transform="matrix(2.6667,0,0,2.6667,5970.9006,162.09584)"
     id="g24"
     style="fill:#0082dc"
     inkscape:label="HD">
    <path
       d="m 47.72,66.75 c 4.27,-1.63 9.01,-0.77 13.3,0.33 v 50.41 h 57.96 V 73.97 c -0.2,-3.08 1.41,-6.38 4.46,-7.41 4.18,-1.36 8.6398,-0.52 12.8,0.5 V 179 c 0.19,2.95 -1.6798,5.81 -4.4798,6.78 -4.19,1.35 -8.66,0.5 -12.78,-0.69 v -51.58 h -57.96 v 45.56 c 0.17,2.76 -1.52,5.48 -4.09,6.53 -4.28,1.62 -8.94,0.68 -13.19,-0.49 V 74.03 c -0.16,-2.92 1.16,-6.08 3.98,-7.28 z"
       id="path20"
       inkscape:connector-curvature="0" />
    <path
       d="m 163.6,67.6 c 1.9354,-1.2505 4.1828,-1.4231 6.4468,-1.407 h 20.664 c 9.4196,-0.02864 18.815,0.35498 27.86,3.307 14.45,4.25 27.14,14.48 33.54,28.21 5.52,11.92 6.78,25.54 4.66,38.43 -2.52,15.09 -11.04,29.21 -23.67,37.96 -10.48,7.39 -23.33,11.21 -36.12,11.18 h -27.04 c -2.47,-0.06 -5.46,0.0498 -7.15,-2.1002 -1.87,-2.29 -1.55,-5.41 -1.57,-8.16 v -100.06 c -0.01,-2.57 0.12,-5.67 2.38,-7.36 m 14.9,14.359 v 87.541 h 18.52 c 10.64,-0.21 21.64,-3.5602 29.54,-10.93 9.32,-8.38 13.81,-21.17 13.46,-33.53 0.39,-9.74 -2.69,-19.54 -8.69,-27.24 -5.52,-7 -13.5,-11.82 -22.09,-14.05 -5.1447,-1.3914 -10.41,-1.7905 -15.703,-1.7905 z"
       id="path22"
       inkscape:connector-curvature="0" />
  </g>
  <g
     aria-label="SERIEN &amp; SHOWS"
     transform="matrix(1.8245017,0,0,1.8245017,2124.143,-1552.9844)"
     style="font-style:normal;font-weight:normal;font-size:40px;line-height:1.25;font-family:sans-serif;letter-spacing:0px;word-spacing:0px;display:inline;opacity:1;fill:#f3ffff;fill-opacity:1;stroke:none"
     id="flowRoot52"
     inkscape:label="Text">
    <path
       d="m -305.16732,1237.7589 q -16.33333,0 -35.66666,-3.3333 -19,-3.3333 -39,-10 0,-1.3333 -0.33334,-2.3333 0,-1 0,-2.3334 0,-11 4,-17.6666 4,-7 13,-7 4.33334,0 10.33334,1.3333 6,1.3333 13.33333,3 7.66667,1.6667 16.66667,3 9.33333,1.3333 20.33333,1.3333 23,0 32.66667,-8.3333 10,-8.3333 10,-21 0,-6.3333 -2.33333,-10.6667 -2.33334,-4.6666 -6.66667,-7.6666 -4.33333,-3.3334 -10.66667,-5.6667 -6,-2.3333 -14,-4.6667 l -27.66667,-7.6666 q -32.66666,-9 -45.66666,-25 -12.66667,-16 -12.66667,-36.6667 0,-10.3333 3.66667,-21 3.66666,-11 12.66666,-19.6667 9,-8.6666 24,-14.3333 15,-5.6667 37.66667,-5.6667 15.33334,0 32.66667,3 17.66667,3 36.66667,9.6667 v 4.6667 q 0,11.3333 -4,17.6666 -3.66667,6.3334 -12.33334,6.3334 -4.33333,0 -9.66666,-1 -5,-1.3334 -11.66667,-2.3334 -6.33333,-1.3333 -14.66667,-2.3333 -8.33333,-1.3333 -18.66667,-1.3333 -11.66666,0 -19.33333,2.3333 -7.66667,2 -12.33333,5.6667 -4.66667,3.6666 -6.66667,8.3333 -2,4.3333 -2,9 0,11 7.33333,16.6667 7.66667,5.6666 27,11 l 29.33334,8.3333 q 58.33333,15.3333 58.33333,60.6667 0,14.6666 -5,26.6666 -4.66666,12 -15,20.6667 -10.33333,8.6667 -26,13.6667 -15.66666,4.6666 -37.66667,4.6666 z"
       style="font-style:normal;font-variant:normal;font-weight:normal;font-stretch:normal;font-size:333.33334351px;font-family:'Sky Text';-inkscape-font-specification:'Sky Text';fill:#f3ffff;fill-opacity:1"
       id="path40"
       inkscape:connector-curvature="0"
       inkscape:label="S" />
    <path
       d="m -171.50071,1234.7589 q -12.33333,0 -16,-4.6666 -3.33333,-5 -3.33333,-12.6667 v -182 q 0,-7.6667 3.33333,-12.3333 3.66667,-5 16,-5 h 112.000008 q 0.666666,2.6666 1,7.3333 0.666666,4.6667 0.666666,9.3333 0,9.6667 -4.333333,13.6667 -4,3.6667 -10,3.6667 h -81.333341 v 58 h 86.000007 q 0.333334,2.6666 0.666667,7 0.666667,4 0.666667,8.6666 0,9.3334 -4,13 -3.666667,3.6667 -9.333334,3.6667 h -74.000007 v 58.3333 h 97.000008 q 0.333333,2.6667 0.666666,7 0.666667,4 0.666667,8.6667 0,10 -4,14.3333 -4,4 -10,4 z"
       style="font-style:normal;font-variant:normal;font-weight:normal;font-stretch:normal;font-size:333.33334351px;font-family:'Sky Text';-inkscape-font-specification:'Sky Text';fill:#f3ffff;fill-opacity:1"
       id="path42"
       inkscape:connector-curvature="0"
       inkscape:label="E" />
    <path
       d="m -2.8341459,1236.7589 q -5.3333335,0 -10.6666671,-0.6666 -5,-0.3334 -7.666667,-1 v -199.6667 q 0,-7.6667 3.333334,-12.3333 3.666666,-5 16.0000001,-5 H 52.499189 q 37.333335,0 58.000001,18 20.66667,17.6666 20.66667,49 0,13 -4.33334,24.3333 -4,11 -11.66666,19.6667 -7.66667,8.6666 -18.66667,14.3333 -11,5.6667 -25,7.3333 l 67.33334,80 q -5.33334,3 -11.66667,4.3334 -6.33334,1.6666 -12,1.6666 -10.66667,0 -17.000003,-3 -6,-3.3333 -12.666667,-11.6666 l -54.333335,-69.6667 h -15 v 68.6667 q 0,6.6666 -4.333334,11.3333 -3.9999999,4.3333 -14.6666669,4.3333 z M 16.165855,1120.4256 h 30.666667 q 25.333334,0 36.000001,-9.3333 11.000001,-9.6667 11.000001,-26 0,-16 -10.000001,-24.3334 -9.666667,-8.6666 -31.000001,-8.6666 H 16.165855 Z"
       style="font-style:normal;font-variant:normal;font-weight:normal;font-stretch:normal;font-size:333.33334351px;font-family:'Sky Text';-inkscape-font-specification:'Sky Text';fill:#f3ffff;fill-opacity:1"
       id="path44"
       inkscape:connector-curvature="0"
       inkscape:label="R" />
    <path
       d="m 189.55049,1236.7589 q -5.33333,0 -10.66667,-0.6666 -5,-0.3334 -7.66666,-1 v -202 q 0,-6.6667 4,-11 4.33333,-4.6667 15,-4.6667 5.33333,0 10.33333,0.6667 5.33333,0.3333 8,1 v 202 q 0,6.6666 -4.33333,11.3333 -4,4.3333 -14.66667,4.3333 z"
       style="font-style:normal;font-variant:normal;font-weight:normal;font-stretch:normal;font-size:333.33334351px;font-family:'Sky Text';-inkscape-font-specification:'Sky Text';fill:#f3ffff;fill-opacity:1"
       id="path46"
       inkscape:connector-curvature="0"
       inkscape:label="I" />
    <path
       d="m 277.89049,1234.7589 q -12.33333,0 -16,-4.6666 -3.33333,-5 -3.33333,-12.6667 v -182 q 0,-7.6667 3.33333,-12.3333 3.66667,-5 16,-5 H 389.8905 q 0.66666,2.6666 1,7.3333 0.66666,4.6667 0.66666,9.3333 0,9.6667 -4.33333,13.6667 -4,3.6667 -10,3.6667 h -81.33334 v 58 h 86.00001 q 0.33333,2.6666 0.66666,7 0.66667,4 0.66667,8.6666 0,9.3334 -4,13 -3.66667,3.6667 -9.33333,3.6667 h -74.00001 v 58.3333 h 97.00001 q 0.33333,2.6667 0.66666,7 0.66667,4 0.66667,8.6667 0,10 -4,14.3333 -4,4 -10,4 z"
       style="font-style:normal;font-variant:normal;font-weight:normal;font-stretch:normal;font-size:333.33334351px;font-family:'Sky Text';-inkscape-font-specification:'Sky Text';fill:#f3ffff;fill-opacity:1"
       id="path48"
       inkscape:connector-curvature="0"
       inkscape:label="E" />
    <path
       d="m 446.65332,1236.7589 q -5,0 -10,-0.3333 -4.66667,-0.3333 -7.33334,-1 v -214.6667 q 3.66667,-1.6666 9.33334,-2.3333 5.66667,-1 10.33333,-1 13.33334,0 19,3.6667 6,3.3333 10.33334,10 l 97,150 -2,-149 q 0,-6 3.66667,-10.3334 4,-4.3333 14,-4.3333 4.66666,0 9.33333,0.6667 5,0.3333 7.66667,1 v 214.6666 q -7.66667,3 -18,3 -12,0 -17.66667,-3.3333 -5.66667,-3.6667 -9.33333,-9.3333 l -100.33334,-156.3334 2,154.3334 q 0,6.3333 -4,10.6666 -3.66667,4 -14,4 z"
       style="font-style:normal;font-variant:normal;font-weight:normal;font-stretch:normal;font-size:333.33334351px;font-family:'Sky Text';-inkscape-font-specification:'Sky Text';fill:#f3ffff;fill-opacity:1"
       id="path50"
       inkscape:connector-curvature="0"
       inkscape:label="N" />
    <path
       d="m 733.2389,1190.5577 q -11.47772,0 -20.19228,-3.1882 -8.71457,-3.4009 -14.45343,-9.1397 -5.73885,-5.7388 -8.71455,-13.1782 -2.97571,-7.6517 -2.97571,-15.9412 0,-13.3906 7.22672,-23.1679 7.43926,-9.9899 22.10522,-14.8786 -5.9514,-6.5891 -9.13966,-12.9657 -3.18825,-6.589 -3.18825,-14.4533 0,-6.3765 2.5506,-12.5404 2.55061,-6.3766 7.65181,-11.0526 5.10121,-4.8888 12.75303,-7.8645 7.86435,-2.9756 18.49187,-2.9756 11.05261,0 19.97973,2.5506 8.92711,2.3381 16.36638,5.7388 0.21255,1.2754 0.21255,2.5507 0.21254,1.2753 0.21254,2.338 0,6.164 -2.97569,9.5647 -2.76316,3.1883 -7.43926,3.1883 -2.55061,0 -4.88867,-0.6376 -2.33805,-0.8502 -5.31376,-1.7004 -2.76315,-1.0629 -6.58906,-1.7004 -3.61336,-0.8503 -8.92711,-0.8503 -10.20241,0 -14.45342,4.6762 -4.03846,4.4636 -4.03846,11.0526 0,4.6761 2.33806,9.1397 2.33805,4.4636 8.71456,10.84 l 33.15786,33.583 14.87852,-27.6316 q 1.91295,-3.6133 5.31375,-5.1011 3.40081,-1.7005 7.43926,-1.7005 2.97571,0 6.16396,0.8502 3.4008,0.6377 5.73887,1.7004 l -25.2935,45.9109 31.45745,32.7328 q -3.18825,1.7004 -7.43925,2.5506 -4.25102,1.0627 -7.86437,1.0627 -6.37651,0 -9.98987,-2.1255 -3.61335,-2.1255 -8.07691,-7.0141 l -9.56476,-10.415 q -6.37652,8.7145 -16.36638,14.4534 -9.77731,5.7388 -24.86839,5.7388 z m 1.06276,-20.8299 q 10.20242,0 16.36636,-3.6133 6.37652,-3.6134 10.20242,-9.7773 l -32.73275,-33.3705 q -18.27932,7.4393 -18.27932,23.8057 0,4.676 1.70041,8.9271 1.70039,4.0385 4.67609,7.2267 3.18826,3.1883 7.65181,5.1012 4.67612,1.7004 10.41498,1.7004 z"
       style="font-style:normal;font-variant:normal;font-weight:normal;font-stretch:normal;font-size:333.33334351px;font-family:'Sky Text';-inkscape-font-specification:'Sky Text';fill:#f3ffff;fill-opacity:1;stroke-width:0.63765103"
       id="path52"
       inkscape:connector-curvature="0"
       inkscape:label="&amp;" />
    <path
       d="m 943.44726,1237.7589 q -16.3337,0 -35.66736,-3.3333 -19.00032,-3.3333 -39.00032,-10 0,-1.3333 -0.33333,-2.3333 0,-1 0,-2.3334 0,-11 4,-17.6666 4,-7 13,-7 4.33333,0 10.33343,1.3333 6.00012,1.3333 13.33356,3 7.66684,1.6667 16.667,3 9.33346,1.3333 20.33366,1.3333 23.00042,0 32.6673,-8.3333 10.00018,-8.3333 10.00018,-21 0,-6.3333 -2.33334,-10.6667 -2.33344,-4.6666 -6.66682,-7.6666 -4.33338,-3.3334 -10.6669,-5.6667 -6.0001,-2.3333 -14.00024,-4.6667 l -27.66712,-7.6666 q -32.66728,-9 -45.66738,-25 -12.66666,-16 -12.66666,-36.6667 0,-10.3333 3.66666,-21 3.66667,-11 12.66667,-19.6667 9.00011,-8.6666 24.00039,-14.3333 15.00028,-5.6667 37.66728,-5.6667 15.33368,0 32.6673,3 17.66702,3 36.66708,9.6667 v 4.6667 q 0,11.3333 -4,17.6666 -3.6667,6.3334 -12.3334,6.3334 -4.33338,0 -9.66678,-1 -5.0001,-1.3334 -11.66692,-2.3334 -6.33342,-1.3333 -14.66696,-2.3333 -8.33346,-1.3333 -18.66694,-1.3333 -11.66692,0 -19.33376,2.3333 -7.66674,2 -12.33352,5.6667 -4.66678,3.6666 -6.66682,8.3333 -2.00004,4.3333 -2.00004,9 0,11 7.33354,16.6667 7.66674,5.6666 27.00048,11 l 29.33384,8.3333 q 58.33388,15.3333 58.33388,60.6667 0,14.6666 -5,26.6666 -4.6666,12 -15,20.6667 -10.33336,8.6667 -26.00036,13.6667 -15.66688,4.6666 -37.66728,4.6666 z"
       style="font-style:normal;font-variant:normal;font-weight:normal;font-stretch:normal;font-size:333.33334351px;font-family:'Sky Text';-inkscape-font-specification:'Sky Text';fill:#f3ffff;fill-opacity:1"
       id="path54"
       inkscape:connector-curvature="0"
       inkscape:label="S" />
    <path
       d="m 1079.2111,1236.7589 q -5.3333,0 -10.6667,-0.6666 -5,-0.3334 -7.6666,-1 v -202 q 0,-6.6667 4,-11 4.3333,-4.6667 15,-4.6667 5.3333,0 10.3333,0.6667 5.3333,0.3333 8,1 v 91 h 101.3333 v -77 q 0,-6.6667 4,-11 4.3334,-4.6667 15,-4.6667 5.3334,0 10.6667,0.6667 5.3333,0.3333 8,1 v 202 q 0,6.6666 -4.3333,11.3333 -4,4.3333 -14.6667,4.3333 -5.3333,0 -10.6667,-0.6666 -5.3333,-0.3334 -8,-1 v -92.6667 h -101.3333 v 78.6667 q 0,6.6666 -4.3333,11.3333 -4,4.3333 -14.6667,4.3333 z"
       style="font-style:normal;font-variant:normal;font-weight:normal;font-stretch:normal;font-size:333.33334351px;font-family:'Sky Text';-inkscape-font-specification:'Sky Text';fill:#f3ffff;fill-opacity:1"
       id="path56"
       inkscape:connector-curvature="0"
       inkscape:label="H" />
    <path
       d="m 1378.4991,1239.0923 q -23.6667,0 -43.3333,-8.6667 -19.6667,-9 -33.6667,-24.3333 -14,-15.6667 -22,-36 -7.6667,-20.6667 -7.6667,-44.3334 0,-23.3333 7.6667,-43.6666 8,-20.6667 22,-35.6667 14,-15 33.6667,-23.6667 19.6666,-8.6666 43.3333,-8.6666 23.6667,0 43.3333,8.6666 19.6667,8.6667 33.6667,23.6667 14,15 21.6667,35.3333 8,20.3334 8,44 0,23.6667 -8,44.3334 -7.6667,20.3333 -21.6667,36 -14,15.3333 -33.6667,24.3333 -19.6666,8.6667 -43.3333,8.6667 z m -0.3333,-33.3334 q 14,0 26.3333,-6 12.3333,-6.3333 21.6667,-17 9.3333,-10.6666 14.6666,-25.3333 5.3334,-14.6667 5.3334,-31.3333 0,-16.6667 -5.3334,-31 -5,-14.6667 -14.3333,-25 -9,-10.6667 -21.3333,-16.6667 -12.3334,-6 -26.6667,-6 -14,0 -26.3333,6 -12.3334,5.6667 -21.6667,16.3333 -9,10.3334 -14.3333,24.6667 -5.3334,14.3333 -5.3334,31.3333 0,17.3334 5,32 5.3334,14.6667 14.3334,25.3334 9.3333,10.6666 21.6666,16.6666 12.3334,6 26.3334,6 z"
       style="font-style:normal;font-variant:normal;font-weight:normal;font-stretch:normal;font-size:333.33334351px;font-family:'Sky Text';-inkscape-font-specification:'Sky Text';fill:#f3ffff;fill-opacity:1"
       id="path58"
       inkscape:connector-curvature="0"
       inkscape:label="O" />
    <path
       d="m 1572.8385,1237.0923 q -5.3333,0 -12.6666,-0.6667 -7,-0.6667 -11.6667,-2.3333 l -45,-212.3334 q 3.6667,-1.6666 8.3333,-3 5,-1.3333 11.3334,-1.3333 8,0 13.3333,3 5.3333,3 7,11.3333 l 16.6667,90.3334 q 3.6666,20.3333 7.3333,41.6666 3.6667,21 6.3333,39.3334 2.6667,-18.6667 7,-39 4.3334,-20.3334 10,-43.3334 l 21.3334,-87.6666 q 2,-8.6667 9,-12 7.3333,-3.6667 18.3333,-3.6667 11,0 20,2.6667 l 24,100.6666 q 5,21 9.3333,42.6667 4.6667,21.3333 8,39.6667 1.3334,-9 3,-19.6667 2,-11 4,-22 2,-11.3333 4,-22 2,-10.6667 3.6667,-19.6667 l 15.6667,-89 q 1.3333,-7.6666 6.3333,-10.3333 5,-3 12.6667,-3 5.6666,0 10.3333,1.3333 4.6667,1 8,2.3334 l -41.3333,199.3333 q -2.3334,10.6667 -9.3334,13.6667 -7,3 -18,3 -5,0 -11.6666,-0.6667 -6.6667,-0.3333 -11.3334,-2 l -28,-114.6667 q -1.3333,-6 -3,-13 -1.3333,-7.3333 -3,-15.3333 -1.3333,-8 -3,-16.3333 -1.6666,-8.3334 -3.6666,-16 -3.3334,16 -7,32.3333 -3.3334,16 -6.3334,28.3333 l -24.3333,100.6667 q -2.6667,10.3333 -9,13.6667 -6,3 -16.6667,3 z"
       style="font-style:normal;font-variant:normal;font-weight:normal;font-stretch:normal;font-size:333.33334351px;font-family:'Sky Text';-inkscape-font-specification:'Sky Text';fill:#f3ffff;fill-opacity:1"
       id="path60"
       inkscape:connector-curvature="0"
       inkscape:label="W" />
    <path
       d="m 1859.0753,1237.7589 q -16.3333,0 -35.6667,-3.3333 -19,-3.3333 -39,-10 0,-1.3333 -0.3333,-2.3333 0,-1 0,-2.3334 0,-11 4,-17.6666 4,-7 13,-7 4.3333,0 10.3333,1.3333 6,1.3333 13.3334,3 7.6666,1.6667 16.6666,3 9.3334,1.3333 20.3334,1.3333 23,0 32.6666,-8.3333 10,-8.3333 10,-21 0,-6.3333 -2.3333,-10.6667 -2.3333,-4.6666 -6.6667,-7.6666 -4.3333,-3.3334 -10.6666,-5.6667 -6,-2.3333 -14,-4.6667 l -27.6667,-7.6666 q -32.6667,-9 -45.6667,-25 -12.6666,-16 -12.6666,-36.6667 0,-10.3333 3.6666,-21 3.6667,-11 12.6667,-19.6667 9,-8.6666 24,-14.3333 15,-5.6667 37.6667,-5.6667 15.3333,0 32.6666,3 17.6667,3 36.6667,9.6667 v 4.6667 q 0,11.3333 -4,17.6666 -3.6667,6.3334 -12.3333,6.3334 -4.3334,0 -9.6667,-1 -5,-1.3334 -11.6667,-2.3334 -6.3333,-1.3333 -14.6666,-2.3333 -8.3334,-1.3333 -18.6667,-1.3333 -11.6667,0 -19.3333,2.3333 -7.6667,2 -12.3334,5.6667 -4.6666,3.6666 -6.6666,8.3333 -2,4.3333 -2,9 0,11 7.3333,16.6667 7.6667,5.6666 27,11 l 29.3333,8.3333 q 58.3334,15.3333 58.3334,60.6667 0,14.6666 -5,26.6666 -4.6667,12 -15,20.6667 -10.3334,8.6667 -26,13.6667 -15.6667,4.6666 -37.6667,4.6666 z"
       style="font-style:normal;font-variant:normal;font-weight:normal;font-stretch:normal;font-size:333.33334351px;font-family:'Sky Text';-inkscape-font-specification:'Sky Text';fill:#f3ffff;fill-opacity:1"
       id="path62"
       inkscape:connector-curvature="0"
       inkscape:label="S" />
  </g>
  <path
     d="M 94.872779,162.09411 H 6668.6546 c 51.9039,0 94.3716,20 94.3716,44.444 v 212.22 l -6626.86636,123.89 c -75.49901,1.1111 -135.66082432,30.556 -135.66082432,66.111 v -402.22 c 0,-24.444 42.46766232,-44.444 94.37163932,-44.444 z"
     id="path26"
     inkscape:label="glow"
     inkscape:connector-curvature="0"
     style="display:inline;opacity:0.2;fill:#ffffff;stroke-width:8.09552765" />
</svg>
