<?xml version="1.0" encoding="UTF-8"?>
<svg width="800" height="193.44" version="1.1" xmlns="http://www.w3.org/2000/svg">
	<path d="m328.71 142c-1.2123 0-2.254 0.43762-3.127 1.3106-0.87293 0.87287-1.3106 1.9403-1.3106 3.2012 0 1.2123 0.43762 2.254 1.3106 3.127 0.87293 0.87294 1.9146 1.3086 3.127 1.3086 1.2609 0 2.3283-0.43566 3.2012-1.3086 0.87293-0.87293 1.3086-1.9146 1.3086-3.127 0-1.2609-0.43566-2.3283-1.3086-3.2012-0.87287-0.87293-1.9403-1.3106-3.2012-1.3106zm141.33 0.00586c-1.2124 0-2.256 0.4357-3.1289 1.3086s-1.3086 1.9403-1.3086 3.2012c0 1.2124 0.43569 2.254 1.3086 3.127s1.9166 1.3106 3.1289 1.3106c1.2608 0 2.3283-0.43765 3.2012-1.3106s1.3086-1.9146 1.3086-3.127c0-1.2609-0.43569-2.3283-1.3086-3.2012s-1.9403-1.3086-3.2012-1.3086zm-26.703 6.0391c-1.0184 0-1.8422 0.1208-2.4726 0.36328-0.58194 0.24248-1.0434 0.58308-1.3828 1.0195-0.29096 0.43643-0.50881 0.92164-0.65429 1.4551-0.09699 0.5334-0.14453 1.0899-0.14453 1.6719v5.0195h-3.1289c-0.7759 0-1.4314 0.24357-1.9648 0.72852-0.48494 0.48493-0.72657 1.3326-0.72657 2.5449 0 0.53343 0.0238 1.0662 0.07227 1.5996 0.04849 0.53347 0.12176 0.97109 0.21875 1.3106h5.5293v17.24c0 1.7943 0.26538 3.442 0.79882 4.9453 0.5334 1.4549 1.3097 2.7401 2.3281 3.8555 1.0184 1.0668 2.2542 1.9165 3.709 2.5469 1.5033 0.58193 3.2005 0.87304 5.0918 0.87304h0.00195c2.0853 0 3.9033-0.24357 5.4551-0.72851 1.6003-0.48494 3.1034-1.1385 4.5098-1.9629 0.04846-0.24247 0.07226-0.48605 0.07226-0.72852v-0.79883c0-1.3578-0.26539-2.352-0.79882-2.9824-0.53341-0.63043-1.2622-0.94726-2.1836-0.94726-0.38795 0-0.79988 0.07326-1.2363 0.21875-0.38792 0.14548-0.82365 0.31578-1.3086 0.50976-0.43647 0.19397-0.94541 0.36233-1.5273 0.50781-0.58194 0.14548-1.2374 0.21875-1.9648 0.21875-1.6973 0-2.9826-0.50894-3.8555-1.5273-0.87293-1.0183-1.3086-2.4482-1.3086-4.291v-16.949h9.6016c0.77593 0 1.4057-0.24357 1.8906-0.72852 0.53344-0.48493 0.80078-1.3326 0.80078-2.5449 0-1.2124-0.12081-2.1828-0.36328-2.9102h-11.93v-9.0195c-0.9214-0.33946-1.965-0.50976-3.1289-0.50976zm-139.07 8.8672c-2.4732 0-4.7031 0.55843-6.6914 1.6738-1.9398 1.0669-3.5162 2.4492-4.7285 4.1465l-0.07227-1.0195c0-1.3578-0.34059-2.4233-1.0195-3.1992-0.6304-0.8244-1.6959-1.2363-3.1992-1.2363-0.67894 0-1.3106 0.07131-1.8926 0.21679-0.53343 0.097-1.0662 0.21781-1.5996 0.36329v34.916c0.388 0.09701 0.94447 0.17028 1.6719 0.21875 0.77593 0.09699 1.5285 0.14648 2.2559 0.14648v-0.00195c1.5518 0 2.5935-0.31488 3.127-0.94531 0.58194-0.63047 0.87305-1.4305 0.87305-2.4004v-21.312c0.8244-1.4548 2.0126-2.6193 3.5644-3.4922 1.6003-0.87293 3.1767-1.3086 4.7285-1.3086 2.4732 0 4.3882 0.72684 5.7461 2.1816 1.3579 1.4548 2.0371 3.7342 2.0371 6.8379v20.076c0.388 0.09701 0.94643 0.17028 1.6738 0.21875 0.77593 0.09699 1.5265 0.14648 2.2539 0.14648 1.5518 1e-5 2.5955-0.31488 3.1289-0.94531 0.58194-0.63046 0.87305-1.4325 0.87305-2.4023v-17.967c0-4.8011-1.1407-8.4864-3.4199-11.057-2.2792-2.5702-5.3825-3.8555-9.3106-3.8555zm54.41 0c-2.0367 0-3.928 0.5585-5.6738 1.6738-1.7457 1.0669-3.1281 2.3997-4.1465 4l-0.07226-0.87305c0-1.3578-0.3406-2.4233-1.0195-3.1992-0.6304-0.8244-1.6959-1.2363-3.1992-1.2363-0.67893 0-1.3106 0.07131-1.8926 0.21679-0.53343 0.09699-1.0662 0.21781-1.5996 0.36329v34.916c0.38793 0.09701 0.94643 0.17028 1.6738 0.21875 0.77593 0.09699 1.5265 0.14648 2.2539 0.14648v-0.00195c1.5518 0 2.5955-0.31489 3.1289-0.94531 0.58194-0.63047 0.87305-1.4305 0.87305-2.4004v-21.531c0.63047-1.2124 1.5513-2.256 2.7637-3.1289 1.2609-0.9214 2.667-1.3809 4.2188-1.3809 2.0367 0 3.5874 0.62976 4.6543 1.8906 1.1153 1.2123 1.6738 3.0066 1.6738 5.3828v21.75c0.38793 0.09701 0.94642 0.17028 1.6738 0.21875 0.77594 0.09699 1.5265 0.14453 2.2539 0.14453 1.5518 0 2.5955-0.31489 3.1289-0.94531 0.58192-0.63047 0.87304-1.4305 0.87304-2.4004v-21.459c0.63047-1.2609 1.5513-2.3283 2.7637-3.2012 1.2123-0.9214 2.6917-1.3809 4.4375-1.3809 1.8428 0 3.3222 0.60603 4.4375 1.8184 1.1153 1.1639 1.6719 2.9819 1.6719 5.4551v21.75c0.38793 0.09701 0.94643 0.17028 1.6738 0.21875 0.77593 0.09699 1.5265 0.14453 2.2539 0.14453 1.5518 0 2.5955-0.31489 3.1289-0.94531 0.58193-0.63047 0.87305-1.4305 0.87305-2.4004v-19.566c0-4.122-0.94663-7.3718-2.8379-9.748-1.8427-2.3762-4.6787-3.5645-8.5098-3.5645-2.3277 0-4.4131 0.60603-6.2559 1.8184-1.7943 1.1639-3.3944 2.9106-4.8008 5.2383-0.8244-2.3277-2.183-4.0744-4.0742-5.2383-1.8428-1.2123-3.9519-1.8184-6.3281-1.8184zm183.09 0c-2.4732 0-4.7031 0.55843-6.6914 1.6738-1.9398 1.0669-3.5162 2.4492-4.7285 4.1465l-0.07227-1.0195c0-1.3578-0.34059-2.4233-1.0195-3.1992-0.6304-0.8244-1.6959-1.2363-3.1992-1.2363-0.67893 0-1.3106 0.07131-1.8926 0.21679-0.53343 0.097-1.0662 0.21781-1.5996 0.36329v34.916c0.388 0.09701 0.94447 0.17028 1.6719 0.21875 0.77593 0.09699 1.5285 0.14648 2.2559 0.14648v-0.00195c1.5518 0 2.5935-0.31488 3.127-0.94531 0.58194-0.63047 0.87305-1.4305 0.87305-2.4004v-21.312c0.8244-1.4548 2.0126-2.6193 3.5644-3.4922 1.6003-0.87293 3.1767-1.3086 4.7285-1.3086 2.4732 0 4.3882 0.72684 5.7461 2.1816 1.3579 1.4548 2.0371 3.7342 2.0371 6.8379v20.076c0.388 0.09701 0.94643 0.17028 1.6738 0.21875 0.77593 0.09699 1.5265 0.14648 2.2539 0.14648 1.5518 1e-5 2.5955-0.31488 3.1289-0.94531 0.58194-0.63046 0.87305-1.4325 0.87305-2.4023v-17.967c0-4.8011-1.1407-8.4864-3.4199-11.057-2.2792-2.5702-5.3825-3.8555-9.3106-3.8555zm-279.4 0.00586c-2.9097 0-5.5515 0.24162-7.9277 0.72656-2.3762 0.43644-4.3645 0.92165-5.9648 1.4551-0.04847 0.24248-0.07227 0.48409-0.07227 0.72656v0.65626c1e-5 1.2608 0.24163 2.3263 0.72656 3.1992 0.48494 0.87294 1.2375 1.3106 2.2559 1.3106 0.58191 0 1.1879-0.07326 1.8184-0.21875 0.67893-0.19397 1.4295-0.38805 2.2539-0.58203 0.87293-0.24247 1.8433-0.43655 2.9102-0.58203 1.0669-0.19398 2.3026-0.29102 3.709-0.29102 2.7642 0 4.6812 0.50895 5.748 1.5274 1.0669 0.96993 1.5996 2.6433 1.5996 5.0195v1.8184c-3.2006-0.58194-6.0622-0.87305-8.584-0.87305-2.6672 0-4.9704 0.29111-6.9102 0.87305-1.8913 0.58193-3.4676 1.4058-4.7285 2.4726-1.2608 1.0184-2.2055 2.2561-2.8359 3.7109-0.58193 1.4548-0.87305 3.055-0.87305 4.8008 0 1.4549 0.24163 2.8372 0.72657 4.1465 0.53346 1.2609 1.286 2.3758 2.2559 3.3457 1.0184 0.96987 2.2542 1.7462 3.709 2.3281 1.5033 0.53344 3.2005 0.79883 5.0918 0.79883v0.00196c1.6488 0 3.1044-0.19408 4.3652-0.58204 1.3093-0.33944 2.4738-0.82465 3.4922-1.4551 1.0184-0.6304 1.8898-1.3592 2.6172-2.1836 0.77593-0.87286 1.4552-1.77 2.0371-2.6914h0.07226c0.04849 0.9214 0.12176 1.7947 0.21875 2.6191 0.14549 0.82437 0.38906 1.5512 0.72852 2.1816 0.33946 0.58191 0.79892 1.0671 1.3809 1.4551 0.63046 0.33946 1.4305 0.50976 2.4004 0.50976 0.8729 0 1.6254-0.07327 2.2559-0.21875 0.67895-0.14549 1.2354-0.31384 1.6719-0.50781-0.33946-1.1639-0.60485-2.2313-0.79883-3.2012-0.19397-1.0184-0.36428-2.0363-0.50976-3.0547-0.09702-1.0184-0.17029-2.1096-0.21875-3.2734v-11.566c0-2.3277-0.24162-4.3655-0.72657-6.1113-0.43646-1.7943-1.2365-3.2974-2.4004-4.5098-1.1154-1.2608-2.6185-2.2055-4.5098-2.8359-1.8428-0.63043-4.1717-0.94531-6.9844-0.94531zm151.67 0c-2.9097 0-5.5515 0.24162-7.9277 0.72656-2.3762 0.43644-4.3645 0.92165-5.9648 1.4551-0.04847 0.24248-0.07227 0.48409-0.07227 0.72656v0.65626c0 1.2608 0.24162 2.3263 0.72656 3.1992 0.48494 0.87294 1.2375 1.3106 2.2559 1.3106 0.58191 0 1.1879-0.07326 1.8184-0.21875 0.67894-0.19397 1.4295-0.38805 2.2539-0.58203 0.87293-0.24247 1.8433-0.43655 2.9102-0.58203 1.0669-0.19398 2.3026-0.29102 3.709-0.29102 2.7642 0 4.6812 0.50895 5.748 1.5274 1.0669 0.96993 1.5996 2.6433 1.5996 5.0195v1.8184c-3.2006-0.58194-6.0622-0.87305-8.584-0.87305-2.6671 0-4.9704 0.29111-6.9102 0.87305-1.8913 0.58193-3.4676 1.4058-4.7285 2.4726-1.2608 1.0184-2.2055 2.2561-2.8359 3.7109-0.58193 1.4548-0.87304 3.055-0.87304 4.8008 0 1.4549 0.24161 2.8372 0.72656 4.1465 0.53346 1.2609 1.286 2.3758 2.2559 3.3457 1.0184 0.96987 2.2542 1.7462 3.709 2.3281 1.5033 0.53344 3.2005 0.79883 5.0918 0.79883v0.00196c1.6488 0 3.1044-0.19408 4.3652-0.58204 1.3093-0.33944 2.4738-0.82465 3.4922-1.4551 1.0184-0.6304 1.8898-1.3592 2.6172-2.1836 0.77593-0.87286 1.4552-1.77 2.0371-2.6914h0.07226c0.0485 0.9214 0.12176 1.7947 0.21875 2.6191 0.14548 0.82437 0.38906 1.5512 0.72852 2.1816 0.33947 0.58191 0.79892 1.0671 1.3809 1.4551 0.63046 0.33946 1.4305 0.50976 2.4004 0.50976 0.87291 0 1.6254-0.07327 2.2559-0.21875 0.67894-0.14549 1.2374-0.31384 1.6738-0.50781-0.33946-1.1639-0.6068-2.2313-0.80079-3.2012-0.19398-1.0184-0.36428-2.0363-0.50976-3.0547-0.09702-1.0184-0.17028-2.1096-0.21875-3.2734v-11.566c0-2.3277-0.24162-4.3655-0.72656-6.1113-0.43647-1.7943-1.2365-3.2974-2.4004-4.5098-1.1154-1.2608-2.6185-2.2055-4.5098-2.8359-1.8428-0.63043-4.1717-0.94531-6.9844-0.94531zm84.379 0.07617c-2.6672 0-5.1169 0.48522-7.3476 1.4551-2.2307 0.96987-4.1458 2.2789-5.7461 3.9277s-2.8598 3.5896-3.7812 5.8203c-0.87286 2.1823-1.3106 4.5092-1.3105 6.9824-1e-5 2.5702 0.43768 4.9704 1.3105 7.2012 0.87287 2.2307 2.1086 4.1715 3.709 5.8203 1.6003 1.6003 3.5154 2.8856 5.7461 3.8555 2.2307 0.9214 4.7043 1.3809 7.4199 1.3809 2.7157 0 5.1892-0.48521 7.4199-1.4551 2.2307-0.96987 4.122-2.2789 5.6738-3.9277 1.6003-1.6488 2.8123-3.5876 3.6367-5.8184 0.87287-2.2307 1.3086-4.5834 1.3086-7.0566s-0.43572-4.8002-1.3086-6.9824c-0.87287-2.2307-2.1086-4.1715-3.709-5.8203-1.5518-1.6488-3.4431-2.9579-5.6738-3.9277-2.2307-0.96986-4.6805-1.4551-7.3477-1.4551zm-169.71 0.28125c-1.5033-4e-5 -2.545 0.3168-3.127 0.94727s-0.87305 1.4305-0.87305 2.4004v32.15c0.388 0.09701 0.94643 0.17028 1.6738 0.21875 0.7274 0.09699 1.4542 0.14648 2.1816 0.14648 1.5518 1e-5 2.6192-0.31488 3.2012-0.94531 0.58194-0.63046 0.8711-1.4325 0.8711-2.4023v-32.15c-0.38794-0.09702-0.94448-0.17029-1.6719-0.21875-0.7274-0.09699-1.4799-0.14649-2.2559-0.14649zm141.33 0.00586c-1.5033 0-2.547 0.31489-3.1289 0.94532-0.58193 0.63042-0.87109 1.4305-0.87109 2.4004v32.152c0.38795 0.09701 0.94446 0.17028 1.6719 0.21875 0.72742 0.09699 1.4542 0.14453 2.1816 0.14453 1.5518 0 2.6192-0.31488 3.2012-0.94531 0.58193-0.63043 0.87304-1.4305 0.87304-2.4004v-32.152c-0.38796-0.09702-0.94641-0.16833-1.6738-0.21679-0.72742-0.09699-1.478-0.14649-2.2539-0.14649zm28.371 6.2598c1.3579 0 2.6431 0.26735 3.8555 0.80078 1.2124 0.5334 2.2541 1.3097 3.127 2.3281 0.92137 0.96993 1.6502 2.1819 2.1836 3.6367 0.53344 1.4549 0.79883 3.0788 0.79883 4.873 0 1.9883-0.29112 3.7093-0.87305 5.1641-0.58193 1.4549-1.3563 2.6688-2.3262 3.6387-0.9214 0.96986-1.9888 1.6967-3.2012 2.1816-1.1639 0.48494-2.3521 0.72656-3.5645 0.72656-1.2608-1e-5 -2.4966-0.24163-3.709-0.72656-1.2124-0.48494-2.3036-1.2118-3.2734-2.1816-0.9214-1.0183-1.6739-2.2561-2.2559-3.7109-0.58193-1.4549-0.87305-3.1521-0.87305-5.0918 0-1.7943 0.26734-3.4182 0.80079-4.873 0.58193-1.4549 1.3325-2.6668 2.2539-3.6367 0.96993-1.0184 2.0611-1.7947 3.2734-2.3281 1.2124-0.53343 2.4739-0.80078 3.7832-0.80078zm-235.54 12.508c1.9398 0 4.1459 0.21785 6.6191 0.6543v3.0547c-0.96987 2.0367-2.3265 3.7339-4.0723 5.0918-1.6973 1.3579-3.7113 2.0371-6.0391 2.0371-1.7943 0-3.248-0.41193-4.3633-1.2363s-1.6738-2.0126-1.6738-3.5644c0-1.9397 0.77633-3.4191 2.3281-4.4375 1.6003-1.0669 4.0005-1.5996 7.2012-1.5996zm151.67 0c1.9398 0 4.1459 0.21785 6.6191 0.6543v3.0547c-0.96986 2.0367-2.3265 3.7339-4.0723 5.0918-1.6973 1.3579-3.7113 2.0371-6.0391 2.0371-1.7943 0-3.2479-0.41193-4.3633-1.2363-1.1153-0.8244-1.6738-2.0126-1.6738-3.5644 0-1.9397 0.77633-3.4191 2.3281-4.4375 1.6003-1.0669 4.0005-1.5996 7.2012-1.5996z" fill="#fff"/>
	<path d="m793.75 0c3.4608 0 6.2502 2.8171 6.2502 6.2502v116.24a6.2779 6.2779 0 0 1-6.2502 6.2502h-163.07c-3.4607 0-6.2502-2.8164-6.2502-6.2502v-116.21c0-3.4607 2.8171-6.2502 6.2502-6.2502h163.07" fill="#fff"/>
	<path d="m714.58 38.576v49.548c0 2.1728-1.0998 3.3801-4.4799 3.3801-1.5292 0-2.9508-0.21427-4.0506-0.42933v-22.802h-28.274v19.878c0 2.1728-1.0998 3.3801-4.4799 3.3801-1.6367 0-3.2726-0.21427-4.0506-0.42933v-49.575c0-2.0921 1.0998-3.3801 4.5874-3.3801 1.5292 0 3.0314 0.21427 3.9162 0.42933v22.051h28.141v-19.1c0-2.0921 1.2074-3.3801 4.695-3.3801 1.6098 0 3.1121 0.21427 3.9968 0.42933m58.003 26.182c0 14.861-10.381 26.101-26.638 26.101h-15.157c-3.2726 0-4.4799-1.3141-4.4799-3.3801v-45.309c0-2.0652 1.2074-3.3801 4.4799-3.3801h15.157c16.257 0 26.638 11.133 26.638 25.968m-8.638 0c0-11.133-6.9745-18.349-18-18.349h-11.133v36.779h11.133c11.026 0.02688 18-7.1895 18-18.43" fill="#9c001f"/>
	<path d="m57.492 77.171c0 11.076-7.2122 19.112-21.946 20.709-10.612 1.1333-26.016-0.20606-33.331-1.0303-0.25758-1.1849-0.46364-2.6788-0.46364-3.8637 0-9.6335 5.2031-11.849 10.097-11.849 5.1001 0 13.137 0.87577 19.061 0.87577 6.594 0 8.5516-2.2152 8.5516-4.3273 0-2.7819-2.6273-3.9152-7.7274-4.894l-13.961-2.6788c-11.591-2.2152-17.773-10.2-17.773-18.7 0-10.303 7.3153-18.958 21.74-20.555 10.87-1.1849 24.161 0.15455 31.425 1.0303 0.25758 1.2364 0.41213 2.4212 0.41213 3.7091 0 9.6335-5.1001 11.694-9.9941 11.694-3.7607 0-9.582-0.66971-16.279-0.66971-6.8001 0-9.582 1.8546-9.582 4.1213 0 2.4212 2.6788 3.4 6.9031 4.1728l13.291 2.4728c13.703 2.5243 19.576 10.252 19.576 19.782m23.852 11.849c0 5.9243-2.3182 9.3244-13.909 9.3244-1.5455 0-2.8849-0.10303-4.1728-0.3091v-78.459c0-5.9758 2.0091-12.209 13.703-12.209 1.494 0 2.9879 0.15455 4.3789 0.46364zm47.343 30.394c1.5455 0.77274 4.6364 1.7515 8.5516 1.8031 6.7486 0.15454 10.406-2.4212 13.137-8.4486l36.061-80.21c-1.494-0.77274-4.791-1.7-7.4698-1.7515-4.6364-0.10303-10.87 0.82425-14.837 10.303l-11.746 27.458-22.925-37.246c-1.494-0.46364-5.1001-1.0818-7.7274-1.0818-8.1395 0-12.621 2.9879-17.309 8.0365l-22.255 24.315 17.928 28.179c3.297 5.1516 7.6759 7.7789 14.734 7.7789 4.6364 0 8.5001-1.0818 10.303-1.9061l-21.585-32.455 15.3-16.228 25.088 39.307z" fill="#ff0031"/>
	<path d="m624.84 3.9533e-6h-410.63c-4.7395 0-8.6032 3.8637-8.6032 8.6032v111.53c0 4.7395 3.8637 8.6032 8.6032 8.6032h410.58c4.7395 0 8.6032-3.8637 8.6032-8.6032v-111.58c-0.0515-4.7395-3.8122-8.5516-8.5516-8.5516" fill="url(#A)"/>
	<path d="m63.313 19.576v53.834c0-2.1637 1.6485-4.4304 4.4304-4.5334l9.0668-0.3091c1.8031-0.05152 4.5334-1.2879 4.5849-4.5849v-56.152c-1.3909-0.3091-2.8849-0.46364-4.3788-0.46364-11.694 0.051516-13.703 6.2334-13.703 12.209m41.213 18.752-22.255 24.315 1.8031 2.7819c0.77274 1.0303 2.2667 2.7819 5.2546 2.6788l12.673-0.46364c2.7819-0.10303 4.5334 1.0818 5.6152 2.5243l-3.9667-5.9758 15.3-16.228 10.252 16.124c1.8546 2.4212 4.6364 2.4728 5.2546 2.4728 0.51516 0 14.012-0.46364 14.579-0.51516 0.92728-0.05152 2.0091 0.46364 2.8334 1.6485l-22.306-36.267c-1.494-0.46364-5.1001-1.0818-7.7274-1.0818-8.1395-0.05152-12.621 2.8849-17.309 7.985m-82.786-7.4698c-14.424 1.597-21.74 10.2-21.74 20.555 0 5.3061 2.4212 10.406 7.0577 14.064 3.5031 2.3182 7.1092 3.194 10.664 3.8122 2.9364 0.51516 9.788 0.9788 14.888 0.77274l15.867-0.56668c5.9758-0.20606 9.1698 4.894 8.8607 9.9941v-0.25758c0.05151-0.6697 0.10303-1.3394 0.10303-2.0091 0-9.5304-5.8728-17.309-19.525-19.834l-13.291-2.4728c-4.2758-0.72122-6.9031-1.7515-6.9031-4.1728 0-2.2667 2.8334-4.1728 9.582-4.1728 6.6971 0 12.518 0.66971 16.279 0.66971 4.894 0 9.9941-2.0606 9.9941-11.694 0-1.2879-0.15455-2.4728-0.41213-3.7091-5.2031-0.61819-13.549-1.494-21.843-1.494-3.2455 0.05151-6.491 0.20606-9.582 0.51516m142.29 10.252-11.385 26.84c0-0.05151 0.72122-2.1122 2.9364-2.2152l12.055-0.41213c3.6576-0.15455 5.1001-2.6273 5.5122-3.4516l13.188-29.416c-1.494-0.77274-4.791-1.7-7.4698-1.7515h-0.56668c-4.5849 0.05151-10.458 1.2879-14.27 10.406" enable-background="new" fill="url(#B)" opacity=".3"/>
	<path d="m214.2 3.9533e-6c-4.7395 0-8.6032 3.8637-8.6032 8.6032v61.922c0-0.92728 0.36061-6.0274 6.1819-6.594 0 0 0.3091-0.05152 0.82426-0.05152l414.39-14.527c3.2455-0.10303 6.388-2.5243 6.388-6.5425v-34.155c0-4.7395-3.8637-8.6032-8.6032-8.6032z" enable-background="new" fill="url(#C)" opacity=".3"/>
	<path d="m298.63 14.578c-3.4516 0-6.3887 2.6796-6.3887 6.3887 0 3.2455 2.8856 6.2852 6.3887 6.2852s6.2852-2.9882 6.2852-6.2852c0-3.6061-2.7306-6.3887-6.2852-6.3887zm117.36 19.113c-16.588 0-30.035 13.137-30.035 31.219 0 18.752 12.93 31.527 31.682 31.527 8.654 0 16.795-2.5756 22.102-4.9453 0.6181-5.4607-1.2374-7.8301-3.7617-7.8301-1.0818 0-2.421 0.51413-4.9453 1.4414-3.8642 1.1848-7.8301 2.3711-13.033 2.3711-12.106 0-20.35-6.7494-21.844-18.443h46.932c0.36061-2.2667 0.51676-4.2755 0.56836-6.1816 0-14.373-9.1701-29.158-27.664-29.158zm-155.37 0.050782c-17.411-1e-6 -30.702 13.343-30.703 31.27 0 17.927 13.291 31.426 30.703 31.684 8.242 1e-6 15.711-2.2667 21.018-4.791 0.5152-5.4607-1.4952-7.7285-4.0195-7.7285-3.503 0-7.4689 3.8633-16.639 3.8633-11.591 1e-6 -21.018-8.912-21.018-22.873 0-13.96 9.4266-22.613 21.018-22.613 9.1702 0 13.084 3.8633 16.639 3.8633 2.5242 0 4.5347-2.2678 4.0195-7.7285-5.203-2.6788-12.672-4.9453-21.018-4.9453zm320.48 0c-8.448 0-17.465 2.0106-23.492 4.2773-0.6181 5.3061 0.97982 7.8301 3.7617 7.8301 0.9788 0 2.4208-0.46336 4.2754-0.97852 3.606-1.1849 8.9126-2.5254 15.043-2.5254 11.849 0 14.889 5.5643 14.889 14.889v1.6484c-26.737-1.751-42.553 4.6346-42.553 19.266 0 9.6853 7.4686 18.342 21.018 18.342 9.016 0 15.817-3.5546 21.535-9.582v5.0469c0 2.5243 1.597 3.8125 5.2031 3.8125 1.7515 0 3.5029-0.25609 4.5332-0.51367v-38.381h-0.00196c0-14.27-6.5409-23.079-24.211-23.131zm-230.84 0.001953c-9.118 0-15.815 4.4302-20.193 9.7363v-5.2031c0-2.2667-1.3394-3.7598-5.2031-3.7598-1.7515 0-3.6059 0.41234-4.5332 0.66992v60.119c0.9273 0.25758 2.7817 0.51367 4.5332 0.51367 3.9152 0 5.2031-1.3901 5.2031-3.7598v-38.586c3.194-5.8214 10.921-10.869 18.082-10.869 9.0156 0 15.146 5.8723 15.146 18.236v34.361c0.9788 0.25758 2.9362 0.51562 4.5332 0.51562 3.9667 0 5.2031-1.392 5.2031-3.7617v-32.455h-0.00196c0-17.825-10.355-25.706-22.77-25.758zm133.63 0c-7.4179 0-13.548 3.8653-17.412 9.0684v-4.2773c0-2.5242-1.2882-4.0176-5.0488-4.0176-1.597 0-3.5029 0.41234-4.5332 0.66992v60.016c0.8242 0.25758 2.7817 0.51562 4.5332 0.51562 3.9667 0 5.2031-1.3901 5.2031-3.7598v-39.617c2.267-4.894 8.0886-9.8398 14.889-9.8398 8.1397 0 12.26 5.3066 12.26 14.219v38.482c1.0303 0.25758 2.8852 0.51367 4.6367 0.51367 3.9667 0 5.2031-1.3901 5.2031-3.7598v-39.615c2.267-4.894 8.0886-9.8398 14.889-9.8398 7.9852 0 12.26 5.3046 12.26 14.217v38.482c0.9788 0.25758 2.9382 0.51562 4.5352 0.51562 3.9667 0 5.3047-1.392 5.3047-3.7617v-36.316c0-12.003-6.9047-21.843-19.887-21.895-8.912 0-15.299 4.8945-19.42 10.922-3.194-6.7997-9.4271-10.922-17.412-10.922zm-184.95 0.82226c-4.0697 0-5.3047 1.4931-5.3047 3.7598v56.873c0.9788 0.25758 2.8847 0.51486 4.5332 0.56641 3.9667 0 5.3047-1.3901 5.3047-3.7598v-56.77c-0.9788-0.25758-2.9362-0.66992-4.5332-0.66992zm117.1 7.8828c10.87 0 17.516 8.1391 17.928 18.494h-37.762c1.597-12.106 10.149-18.597 19.834-18.494zm173.04 23.691c2.0777 0.00644 4.2161 0.063564 6.3926 0.16016v11.592c-4.637 6.1822-11.591 10.354-19.834 10.354-8.0876 0-12.621-4.9459-12.621-10.252 0-9.4209 11.518-11.899 26.062-11.854z" fill="#fff"/>
	<defs>
		<linearGradient id="A" x1="414.37" x2="1244.6" y1="289.84" y2="289.84" gradientTransform="matrix(.51516 0 0 .51516 -7.7785 -84.95)" gradientUnits="userSpaceOnUse">
			<stop stop-color="#ff0031" offset="0"/>
			<stop stop-color="#9b001f" offset="1"/>
		</linearGradient>
		<linearGradient id="B" x1="197.48" x2="194.59" y1="295.14" y2="212.24" gradientTransform="matrix(.51516 0 0 .51516 -7.7785 -84.95)" gradientUnits="userSpaceOnUse">
			<stop stop-color="#fff" offset="0"/>
			<stop stop-color="#fff" stop-opacity=".25" offset=".515"/>
		</linearGradient>
		<linearGradient id="C" x1="830.55" x2="826.25" y1="276.73" y2="153.47" gradientTransform="matrix(.51516 0 0 .51516 -7.7785 -84.95)" gradientUnits="userSpaceOnUse">
			<stop stop-color="#fff" offset="0"/>
			<stop stop-color="#fff" stop-opacity=".25" offset=".515"/>
		</linearGradient>
	</defs>
</svg>
