<?xml version="1.0" encoding="UTF-8" standalone="no"?>
<!-- Created with Inkscape (http://www.inkscape.org/) -->

<svg
   xmlns:dc="http://purl.org/dc/elements/1.1/"
   xmlns:cc="http://creativecommons.org/ns#"
   xmlns:rdf="http://www.w3.org/1999/02/22-rdf-syntax-ns#"
   xmlns:svg="http://www.w3.org/2000/svg"
   xmlns="http://www.w3.org/2000/svg"
   xmlns:sodipodi="http://sodipodi.sourceforge.net/DTD/sodipodi-0.dtd"
   xmlns:inkscape="http://www.inkscape.org/namespaces/inkscape"
   width="691.77985"
   height="83.890869"
   id="svg2"
   version="1.1"
   inkscape:version="0.92.3 (unknown)"
   sodipodi:docname="sky bundesliga 2.svg">
  <defs
     id="defs4">
    <clipPath
       id="clipPath22542"
       clipPathUnits="userSpaceOnUse">
      <path
         inkscape:connector-curvature="0"
         id="path22544"
         d="M 0,0 H 226.772 V 595.276 H 0 Z" />
    </clipPath>
    <clipPath
       id="clipPath22542-6"
       clipPathUnits="userSpaceOnUse">
      <path
         inkscape:connector-curvature="0"
         id="path22544-4"
         d="M 0,0 H 226.772 V 595.276 H 0 Z" />
    </clipPath>
    <clipPath
       clipPathUnits="userSpaceOnUse"
       id="clipPath22542-6-9">
      <path
         d="M 0,0 H 226.772 V 595.276 H 0 Z"
         id="path22544-4-4"
         inkscape:connector-curvature="0" />
    </clipPath>
    <clipPath
       clipPathUnits="userSpaceOnUse"
       id="clipPath22542-4">
      <path
         d="M 0,0 H 226.772 V 595.276 H 0 Z"
         id="path22544-0"
         inkscape:connector-curvature="0" />
    </clipPath>
    <clipPath
       clipPathUnits="userSpaceOnUse"
       id="clipPath22542-6-2">
      <path
         d="M 0,0 H 226.772 V 595.276 H 0 Z"
         id="path22544-4-3"
         inkscape:connector-curvature="0" />
    </clipPath>
    <clipPath
       clipPathUnits="userSpaceOnUse"
       id="clipPath22542-3">
      <path
         d="M 0,0 H 226.772 V 595.276 H 0 Z"
         id="path22544-1"
         inkscape:connector-curvature="0" />
    </clipPath>
    <clipPath
       clipPathUnits="userSpaceOnUse"
       id="clipPath22542-1">
      <path
         d="M 0,0 H 226.772 V 595.276 H 0 Z"
         id="path22544-3"
         inkscape:connector-curvature="0" />
    </clipPath>
  </defs>
  <sodipodi:namedview
     id="base"
     pagecolor="#ffffff"
     bordercolor="#666666"
     borderopacity="1.0"
     inkscape:pageopacity="0.0"
     inkscape:pageshadow="2"
     inkscape:zoom="1.14"
     inkscape:cx="520.91907"
     inkscape:cy="56.00194"
     inkscape:document-units="px"
     inkscape:current-layer="layer1"
     showgrid="false"
     inkscape:window-width="1920"
     inkscape:window-height="1013"
     inkscape:window-x="0"
     inkscape:window-y="0"
     inkscape:window-maximized="1"
     inkscape:snap-global="false"
     fit-margin-top="0"
     fit-margin-left="0"
     fit-margin-right="0"
     fit-margin-bottom="0">
    <inkscape:grid
       type="xygrid"
       id="grid30758"
       empspacing="5"
       visible="true"
       enabled="true"
       snapvisiblegridlinesonly="true"
       originx="-0.99993205"
       originy="0.89036986"
       spacingx="1"
       spacingy="1" />
  </sodipodi:namedview>
  <metadata
     id="metadata7">
    <rdf:RDF>
      <cc:Work
         rdf:about="">
        <dc:format>image/svg+xml</dc:format>
        <dc:type
           rdf:resource="http://purl.org/dc/dcmitype/StillImage" />
        <dc:title></dc:title>
        <cc:license
           rdf:resource="http://creativecommons.org/publicdomain/zero/1.0/" />
      </cc:Work>
      <cc:License
         rdf:about="http://creativecommons.org/publicdomain/zero/1.0/">
        <cc:permits
           rdf:resource="http://creativecommons.org/ns#Reproduction" />
        <cc:permits
           rdf:resource="http://creativecommons.org/ns#Distribution" />
        <cc:permits
           rdf:resource="http://creativecommons.org/ns#DerivativeWorks" />
      </cc:License>
    </rdf:RDF>
  </metadata>
  <g
     inkscape:label="Ebene 1"
     inkscape:groupmode="layer"
     id="layer1"
     transform="translate(8.795373e-5,-969.36167)">
    <path
       sodipodi:nodetypes="ccscsc"
       inkscape:connector-curvature="0"
       d="M 148.15824,972.52041 648.1311,972.52 c 0,0 11.95394,4.1e-4 11.95393,11.95454 l -5e-5,52.80476 c 0,0 7e-5,11.9246 -11.95406,11.9246 H 148.15824"
       style="fill:#ffffff;fill-opacity:1;stroke:#881f16;stroke-width:6.31650066;stroke-linecap:butt;stroke-linejoin:miter;stroke-miterlimit:10;stroke-dasharray:none;stroke-opacity:1"
       id="path22548-5" />
    <path
       sodipodi:nodetypes="ccscsc"
       inkscape:connector-curvature="0"
       d="M 153.08374,972.52041 H 15.112371 c 0,0 -11.954125,0 -11.954125,11.95412 v 52.80477 c 0,0 0,11.9246 11.954125,11.9246 H 153.08374"
       style="fill:#881f16;fill-opacity:1;stroke:#881f16;stroke-width:6.31650066;stroke-linecap:butt;stroke-linejoin:miter;stroke-miterlimit:10;stroke-dasharray:none;stroke-opacity:1"
       id="path22548" />
    <g
       transform="matrix(20.141613,0,0,-20.141613,114.13793,1044.5056)"
       id="g22178">
      <path
         id="path22180"
         style="fill:#ffffff;fill-opacity:1;fill-rule:nonzero;stroke:none"
         d="m 0,0 c -0.014,-0.03 -0.037,-0.075 -0.111,-0.075 h -0.344 c -0.034,0 -0.075,0.03 -0.075,0.075 0,0.033 0.007,0.052 0.019,0.074 L -0.123,0.863 -0.978,2.14 -1.419,1.67 -0.855,0.829 c 0.033,-0.044 0.041,-0.067 0.041,-0.09 0,-0.036 -0.041,-0.07 -0.09,-0.07 h -0.388 c -0.056,0 -0.09,0.037 -0.127,0.089 l -0.654,0.945 0.725,0.781 c 0.052,0.06 0.101,0.09 0.19,0.09 h 0.418 c 0.09,0 0.139,-0.034 0.184,-0.105 L 0.127,1.382 0.613,2.484 C 0.635,2.54 0.669,2.574 0.74,2.574 H 1.087 C 1.128,2.574 1.166,2.54 1.166,2.499 1.166,2.476 1.158,2.451 1.143,2.424 Z M -2.106,0.863 C -2.106,0.739 -2.2,0.669 -2.3,0.669 h -0.296 c -0.033,0 -0.075,0.034 -0.075,0.089 v 2.447 c 0,0.149 0.075,0.198 0.207,0.198 H -2.2 c 0.056,0 0.094,-0.038 0.094,-0.09 z m -1.252,0.933 c 0.355,-0.082 0.523,-0.265 0.523,-0.567 0,-0.31 -0.212,-0.56 -0.721,-0.56 H -4.52 c -0.048,0 -0.071,0.034 -0.071,0.089 v 0.183 c 0,0.105 0.057,0.191 0.195,0.191 h 0.87 c 0.098,0 0.135,0.044 0.135,0.078 0,0.052 -0.037,0.086 -0.154,0.112 l -0.553,0.12 c -0.343,0.074 -0.526,0.261 -0.526,0.549 0,0.329 0.228,0.583 0.664,0.583 h 0.968 c 0.053,0 0.089,-0.034 0.089,-0.09 V 2.301 c 0,-0.105 -0.055,-0.194 -0.197,-0.194 h -0.837 c -0.112,0 -0.145,-0.038 -0.145,-0.072 0,-0.055 0.033,-0.078 0.161,-0.108 l 0.563,-0.131"
         inkscape:connector-curvature="0" />
    </g>
    <g
       transform="matrix(39.243907,0,0,-39.243907,-324.48087,13053.423)"
       id="g31676"
       style="fill:#881f16;fill-opacity:1">
      <g
         id="g22032"
         transform="translate(13.3457,306.3202)"
         style="fill:#881f16;fill-opacity:1">
        <path
           inkscape:connector-curvature="0"
           d="m 0,0 h -0.732 v 1.039 h 0.711 c 0.148,0 0.267,-0.118 0.267,-0.266 V 0.688 C 0.246,0.628 0.228,0.577 0.193,0.533 0.241,0.485 0.266,0.421 0.266,0.349 V 0.264 C 0.266,0.116 0.147,0 0,0 m 0.055,0.773 c 0,0.041 -0.035,0.075 -0.076,0.075 H -0.542 V 0.614 h 0.521 c 0.041,0 0.076,0.033 0.076,0.074 z M 0.077,0.349 C 0.077,0.389 0.041,0.424 0,0.424 H -0.542 V 0.19 H 0 c 0.041,0 0.077,0.032 0.077,0.074 v 0.085"
           style="fill:#881f16;fill-opacity:1;fill-rule:nonzero;stroke:none"
           id="path22034" />
      </g>
      <g
         id="g22036"
         transform="translate(13.8,307.3591)"
         style="fill:#881f16;fill-opacity:1">
        <path
           inkscape:connector-curvature="0"
           d="m 0,0 h 0.192 v -0.69 c 0,-0.086 0.069,-0.158 0.158,-0.158 h 0.342 c 0.087,0 0.158,0.072 0.158,0.158 V 0 h 0.192 v -0.688 c 0,-0.192 -0.156,-0.351 -0.35,-0.351 H 0.35 C 0.156,-1.039 0,-0.88 0,-0.688 V 0"
           style="fill:#881f16;fill-opacity:1;fill-rule:nonzero;stroke:none"
           id="path22038" />
      </g>
      <g
         id="g22040"
         transform="translate(15.9901,306.3202)"
         style="fill:#881f16;fill-opacity:1">
        <path
           inkscape:connector-curvature="0"
           d="M 0,0 C -0.024,0 -0.047,0.011 -0.067,0.03 L -0.731,0.709 V 0 h -0.191 v 0.948 c 0,0.056 0.049,0.094 0.099,0.094 0.024,0 0.047,-0.011 0.065,-0.031 l 0.665,-0.682 v 0.71 h 0.19 V 0.095 C 0.097,0.038 0.048,0 0,0"
           style="fill:#881f16;fill-opacity:1;fill-rule:nonzero;stroke:none"
           id="path22042" />
      </g>
      <g
         id="g22044"
         transform="translate(16.3206,307.3591)"
         style="fill:#881f16;fill-opacity:1">
        <path
           inkscape:connector-curvature="0"
           d="m 0,0 h 0.69 c 0.193,0 0.352,-0.157 0.352,-0.352 v -0.335 c 0,-0.195 -0.159,-0.352 -0.352,-0.352 H 0 Z M 0.192,-0.848 H 0.69 c 0.087,0 0.16,0.074 0.16,0.161 v 0.335 c 0,0.088 -0.073,0.162 -0.16,0.162 H 0.192 v -0.658"
           style="fill:#881f16;fill-opacity:1;fill-rule:nonzero;stroke:none"
           id="path22046" />
      </g>
      <g
         id="g22048"
         transform="translate(18.517,307.3591)"
         style="fill:#881f16;fill-opacity:1">
        <path
           inkscape:connector-curvature="0"
           d="m 0,0 v -0.192 h -0.67 c -0.041,0 -0.076,-0.032 -0.076,-0.074 v -0.158 h 0.704 v -0.191 h -0.704 v -0.158 c 0,-0.041 0.035,-0.075 0.076,-0.075 H 0 v -0.191 h -0.67 c -0.147,0 -0.266,0.118 -0.266,0.266 v 0.507 C -0.936,-0.118 -0.817,0 -0.67,0 H 0"
           style="fill:#881f16;fill-opacity:1;fill-rule:nonzero;stroke:none"
           id="path22050" />
      </g>
      <g
         id="g22052"
         transform="translate(19.4182,306.3202)"
         style="fill:#881f16;fill-opacity:1">
        <path
           inkscape:connector-curvature="0"
           d="M 0,0 H -0.676 V 0.19 H 0 c 0.044,0 0.081,0.035 0.081,0.08 v 0.041 c 0,0.047 -0.049,0.06 -0.072,0.065 L -0.492,0.474 C -0.628,0.501 -0.72,0.602 -0.72,0.728 V 0.77 c 0,0.149 0.122,0.269 0.272,0.269 H 0.229 V 0.848 h -0.677 c -0.044,0 -0.08,-0.036 -0.08,-0.08 v -0.04 c 0,-0.047 0.051,-0.061 0.074,-0.065 L 0.044,0.565 C 0.178,0.537 0.272,0.438 0.272,0.311 V 0.27 C 0.272,0.119 0.151,0 0,0"
           style="fill:#881f16;fill-opacity:1;fill-rule:nonzero;stroke:none"
           id="path22054" />
      </g>
      <g
         id="g22056"
         transform="translate(20.1004,306.3202)"
         style="fill:#881f16;fill-opacity:1">
        <path
           inkscape:connector-curvature="0"
           d="M 0,0 C -0.124,0 -0.222,0.098 -0.222,0.222 V 1.039 H -0.03 V 0.22 C -0.03,0.204 -0.017,0.19 0,0.19 H 0.628 V 0 H 0"
           style="fill:#881f16;fill-opacity:1;fill-rule:nonzero;stroke:none"
           id="path22058" />
      </g>
      <path
         inkscape:connector-curvature="0"
         d="m 20.894,306.32 h 0.19 v 1.039 h -0.19 z"
         style="fill:#881f16;fill-opacity:1;fill-rule:nonzero;stroke:none"
         id="path22060" />
      <g
         id="g22062"
         transform="translate(21.6777,306.3202)"
         style="fill:#881f16;fill-opacity:1">
        <path
           inkscape:connector-curvature="0"
           d="m 0,0 c -0.196,0 -0.352,0.157 -0.352,0.349 v 0.338 c 0,0.195 0.156,0.352 0.352,0.352 H 0.69 V 0.848 H 0 c -0.089,0 -0.163,-0.072 -0.163,-0.16 V 0.349 C -0.163,0.261 -0.088,0.19 0,0.19 H 0.501 V 0.424 H 0.159 v 0.19 H 0.69 V 0 H 0"
           style="fill:#881f16;fill-opacity:1;fill-rule:nonzero;stroke:none"
           id="path22064" />
      </g>
      <g
         id="g22066"
         transform="translate(22.8173,306.5544)"
         style="fill:#881f16;fill-opacity:1">
        <path
           inkscape:connector-curvature="0"
           d="m 0,0 -0.092,-0.234 h -0.207 c 0.35,0.888 0.352,0.886 0.352,0.889 0.024,0.053 0.065,0.15 0.183,0.15 h 0.078 c 0.118,0 0.159,-0.097 0.183,-0.15 0,-0.003 0.001,-0.001 0.35100033,-0.889 L 0.642,-0.234 0.549,0 Z M 0.477,0.186 0.32,0.577 C 0.308,0.607 0.304,0.611 0.299,0.611 H 0.251 C 0.246,0.611 0.241,0.607 0.229,0.577 L 0.072,0.186 h 0.405"
           style="fill:#881f16;fill-opacity:1;fill-rule:nonzero;stroke:none"
           id="path22068"
           sodipodi:nodetypes="ccccsscccccccssccc" />
      </g>
    </g>
    <path
       sodipodi:nodetypes="cscsccc"
       inkscape:connector-curvature="0"
       d="m 680.72628,969.81361 c 0,0 11.15133,-0.43822 11.0528,12.5002 l -0.4386,57.59299 c 0,0 -5.70227,13.4229 -11.49139,13.3454 l -65.5015,-0.8772 v -82.99999 z"
       style="fill:#221f20;fill-opacity:1;stroke:none"
       id="path22548-1" />
    <g
       transform="matrix(27.513487,0,0,-27.513487,636.22966,1031.1279)"
       id="g22534"
       style="fill:#ffffff;fill-opacity:1">
      <path
         id="path22536"
         style="fill:#ffffff;fill-opacity:1;fill-rule:nonzero;stroke:none"
         d="M 0,0 V 0.474 C 0,0.652 0.136,0.809 0.323,0.853 L 0.762,0.956 C 0.794,0.964 0.87,0.986 0.87,1.05 v 0.052 c 0,0.063 -0.052,0.114 -0.115,0.114 H 0 V 1.487 H 0.755 C 0.971,1.487 1.143,1.313 1.143,1.1 V 1.05 C 1.143,0.876 1.003,0.738 0.822,0.689 L 0.377,0.566 C 0.34,0.555 0.271,0.534 0.271,0.474 V 0.271 H 1.145 V 0 H 0"
         inkscape:connector-curvature="0" />
    </g>
  </g>
</svg>
