<?xml version="1.0" encoding="UTF-8"?>
<svg width="800" height="157.77" version="1.1" xmlns="http://www.w3.org/2000/svg" xmlns:xlink="http://www.w3.org/1999/xlink">
	<linearGradient id="a" x1="800.81" x2="2535.5" y1="250" y2="250" gradientTransform="matrix(.31553 0 0 .31553 0 .032001)" gradientUnits="userSpaceOnUse">
		<stop stop-color="#00396e" offset="0"/>
		<stop stop-color="#276d9d" offset="1"/>
	</linearGradient>
	<path d="m789.49 0.032001h-526.28c-5.806 0-10.539 4.733-10.539 10.539v136.66c0 5.837 4.733 10.539 10.539 10.539h526.24c5.837 0 10.539-4.733 10.539-10.54v-136.66c0.032-5.805-4.701-10.538-10.507-10.538z" fill="url(#a)"/>
	<g transform="matrix(.31553 0 0 .31553 0 .032001)" fill="#fff">
		<path d="m500.6 465c6 3.1 18.1 6.7 33.3 7.1 26.2 0.6 40.4-9.4 51-32.9l140.4-312.5c-5.8-3.1-18.7-6.6-29.1-6.8-18.1-0.4-42.4 3.3-57.8 40.2l-45.4 107-89.1-144.9c-5.8-1.7-19.8-4.2-30-4.2-31.6 0-49.1 11.5-67.4 31.3l-86.7 94.7 69.7 109.5c12.9 20 29.8 30.2 57.4 30.2 18.1 0 33.1-4.2 40.1-7.5l-84-126.3 59.5-63 97.6 153zm-184.1-118.2c0 23.1-9.1 36.3-54.1 36.3-6 0-11.2-0.4-16.2-1.1v-305.6c0-23.3 7.9-47.5 53.3-47.5 5.8 0 11.5 0.6 16.9 1.8v316.1zm-93-46.1c0 43.1-28.1 74.4-85.3 80.5-41.4 4.4-101.3-0.8-129.8-4.1-1-4.6-1.7-10.4-1.7-15 0-37.5 20.2-46.1 39.3-46.1 19.8 0 51 3.4 74.1 3.4 25.6 0 33.3-8.6 33.3-16.9 0-10.8-10.2-15.2-30-19l-54.3-10.4c-45-8.5-69.1-39.7-69.1-72.7 0-40.2 28.5-73.8 84.5-79.9 42.4-4.6 93.9 0.6 122.3 4 1 4.8 1.5 9.4 1.5 14.4 0 37.5-19.8 45.6-38.9 45.6-14.6 0-37.3-2.7-63.3-2.7-26.4 0-37.3 7.3-37.3 16.1 0 9.4 10.4 13.3 26.9 16.2l51.8 9.6c53.1 9.7 76 39.9 76 77"/>
		<use width="100%" height="100%" xlink:href="#b"/>
		<use width="100%" height="100%" xlink:href="#c"/>
		<path d="m1335.5 371.8v-305.9c0-9.3 5.4-15.2 21.7-15.2 6.9 0 14.7 1 18.7 2v305.9c0 9.8-5.4 15.3-21.6 15.3-7-0.1-14.9-1.1-18.8-2.1"/>
		<use x="532.09998" width="100%" height="100%" xlink:href="#b"/>
		<path d="m1897.2 231.2v127.4c0 9.3-5.4 15.2-21.6 15.2-6.9 0-14.7-1-18.7-2v-135.2c0-47.2-23.1-69.8-58-69.8-27 0-56.6 18.7-68.4 40.8v151c0 9.3-5.4 15.2-21.6 15.2-6.9 0-14.7-1-18.7-2v-236.6c3.9-1 11.8-2 18.7-2 16.2 0 21.6 5.9 21.6 15.2v20.2c17.2-21.2 43.3-37.9 78.2-37.9 48.2 0.1 88.5 30.6 88.5 100.5"/>
		<use x="800.90002" width="100%" height="100%" xlink:href="#c"/>
		<path d="m2131 81.6c0-14.7 11.8-25.6 25.6-25.6 14.7 0 26.1 10.8 26.1 25.6 0 13.3-11.3 25.6-26.1 25.6-13.8 0-25.6-12.3-25.6-25.6m5.4 290.2v-223.3c0-9.4 5.4-15.2 21.6-15.2 6.9 0 14.3 1 18.2 2v223.3c0 9.8-4.9 15.3-21.1 15.3-6.9-0.1-14.8-1.1-18.7-2.1m88.7-118.5c0-70.3 51.6-122.5 120-122.5 32 0 61.5 8.9 82.1 18.7 3.5 22.1-3.4 31-13.3 31-17.2 0-32-14.3-67.4-14.3-44.3 0-80.7 33-80.7 87.1 0 53.6 36.4 87.1 80.7 87.1 35.4 0 50.2-14.8 65.9-14.8 10.3 0 17.7 9.4 14.7 31.5-20.6 10.3-50.2 19.2-82.1 19.2-68.3 0-119.9-53.2-119.9-123"/>
	</g>
	<linearGradient id="d" x1="1670.7" x2="1662" y1="226.42" y2="-22.629" gradientTransform="matrix(.31553 0 0 .31553 0 .032001)" gradientUnits="userSpaceOnUse">
		<stop stop-color="#fff" offset="0"/>
		<stop stop-color="#fff" stop-opacity=".835" offset=".12"/>
		<stop stop-color="#fff" stop-opacity=".658" offset=".269"/>
		<stop stop-color="#fff" stop-opacity=".511" offset=".42"/>
		<stop stop-color="#fff" stop-opacity=".397" offset=".568"/>
		<stop stop-color="#fff" stop-opacity=".315" offset=".716"/>
		<stop stop-color="#fff" stop-opacity=".266" offset=".86"/>
		<stop stop-color="#fff" stop-opacity=".25" offset="1"/>
	</linearGradient>
	<path d="m260.25 78.283 1.01-0.063 530.88-18.364c4.386-0.032 7.888-3.629 7.856-7.983v-41.366a10.503 10.503 0 0 0-10.506-10.507h-526.31a10.503 10.503 0 0 0-10.506 10.507v75.98c-0.127-4.323 3.25-7.983 7.572-8.204z" fill="url(#d)" opacity=".3"/>
	<linearGradient id="e" x1="366.13" x2="360.27" y1="263.8" y2="95.924" gradientTransform="matrix(.31553 0 0 .31553 0 .032001)" gradientUnits="userSpaceOnUse">
		<stop stop-color="#fff" offset="0"/>
		<stop stop-color="#fff" stop-opacity=".835" offset=".12"/>
		<stop stop-color="#fff" stop-opacity=".658" offset=".269"/>
		<stop stop-color="#fff" stop-opacity=".511" offset=".42"/>
		<stop stop-color="#fff" stop-opacity=".397" offset=".568"/>
		<stop stop-color="#fff" stop-opacity=".315" offset=".716"/>
		<stop stop-color="#fff" stop-opacity=".266" offset=".86"/>
		<stop stop-color="#fff" stop-opacity=".25" offset="1"/>
	</linearGradient>
	<path d="m228.86 40.041-16.218 36.128a7.515 7.515 0 0 1-6.752 4.228l-14.798 0.505c-1.61 0.095-3.03 1.167-3.597 2.682v-0.032l13.978-32.973c4.859-11.643 12.527-12.81 18.206-12.684a24.892 24.892 0 0 1 9.182 2.146zm-42.502 43.133-27.388-44.522a40.085 40.085 0 0 0-9.498-1.325c-9.97 0-15.493 3.628-21.235 9.908l-27.356 29.849 2.177 3.439c1.42 2.145 3.88 3.376 6.468 3.25l15.587-0.537a7.784 7.784 0 0 1 6.879 3.093l-4.891-7.384 18.774-19.91 12.62 19.784a7.954 7.954 0 0 0 6.438 2.998l17.922-0.631c1.451 0.031 2.777 0.789 3.502 1.988zm-91.851-74.024c-14.325 0-16.818 7.667-16.818 14.988v66.136c0-3.03 2.43-5.49 5.459-5.585l11.107-0.379a5.629 5.629 0 0 0 5.616-5.616v-69.007c-1.798-0.379-3.565-0.568-5.364-0.536zm-47.961 61.434-16.345-3.03c-5.206-0.914-8.52-2.113-8.52-5.08 0-2.776 3.472-5.08 11.802-5.08 8.203 0 15.366 0.853 19.973 0.853 5.995 0 12.274-2.556 12.274-14.388 0-1.515-0.158-3.061-0.474-4.544-8.93-1.104-25.21-2.714-38.59-1.262-17.67 1.925-26.662 12.527-26.662 25.179a21.746 21.746 0 0 0 8.646 17.26 33.114 33.114 0 0 0 13.126 4.67 110.64 110.64 0 0 0 18.269 0.946l19.5-0.694c7.289-0.252 11.296 5.964 10.886 12.243 0-0.094 0-0.158 0.031-0.252v-0.063c0.064-0.82 0.095-1.641 0.095-2.462 0-11.675-7.257-21.204-24.012-24.296z" fill="url(#e)" opacity=".3"/>
	<defs>
		<path id="b" d="m1095.6 220.3v151.5c-3.9 1-11.3 2-18.2 2-14.8 0-21.6-5.4-21.6-15.3v-20.7c-21.2 24.1-48.7 38.4-83.6 38.4-52.6 0-81.7-34.4-81.7-71.8 0-57.1 61-82.1 164.8-75.3v-8.4c0-38.8-11.8-55.1-56.6-55.1-18.7 0-43.8 5.4-57.1 8.9-7.9 2-13.8 3.9-18.7 3.9-11.3 0-18.7-9.8-14.8-30.5 24.1-8.9 59-17.2 92.5-17.2 69.4 0.1 95 31.1 95 89.6m-40.4 82.7v-44.8c-67.9-4.9-124.4 3.9-124.4 44.8 0 20.7 17.2 39.3 48.2 39.3 31.5 0 59-15.7 76.2-39.3"/>
		<path id="c" d="m1298.8 360c-20.7 9.8-44.3 16.2-67.9 16.2-46.7 0-74.8-27.5-74.8-73.3v-203.1c0-10.3 5.9-17.2 21.6-17.2 6.9 0 14.7 1.5 18.7 2.5v51.1h92c0.5 3.4 1.5 10.3 1.5 16.2 0 14.3-5.9 19.2-14.7 19.2h-78.7v128.4c0 27.5 12.8 40.8 38.9 40.8 23.6 0 36.9-10.3 48.2-10.3 11.7 0 17.6 9.8 15.2 29.5"/>
	</defs>
</svg>
