<?xml version="1.0" encoding="UTF-8"?>
<svg width="800" height="244.01" version="1.1" xmlns="http://www.w3.org/2000/svg">
	<defs>
		<linearGradient id="A" x1="414.37" x2="1244.6" y1="289.84" y2="289.84" gradientTransform="matrix(.65067 0 0 .65067 -9.8251 -107.3)" gradientUnits="userSpaceOnUse">
			<stop stop-color="#ff0031" offset="0"/>
			<stop stop-color="#9b001f" offset="1"/>
		</linearGradient>
		<linearGradient id="B" x1="197.48" x2="194.59" y1="295.14" y2="212.24" gradientTransform="matrix(.65067 0 0 .65067 -9.8251 -107.3)" gradientUnits="userSpaceOnUse">
			<stop stop-color="#fff" offset="0"/>
			<stop stop-color="#fff" stop-opacity=".25" offset=".515"/>
		</linearGradient>
		<linearGradient id="C" x1="830.55" x2="826.25" y1="276.73" y2="153.47" gradientTransform="matrix(.65067 0 0 .65067 -9.8251 -107.3)" gradientUnits="userSpaceOnUse">
			<stop stop-color="#fff" offset="0"/>
			<stop stop-color="#fff" stop-opacity=".25" offset=".515"/>
		</linearGradient>
	</defs>
	<path d="m72.615 97.471c0 13.989-9.1094 24.14-27.719 26.157-13.404 1.4315-32.859-0.26027-42.098-1.3013-0.32534-1.4965-0.5856-3.3835-0.5856-4.88 0-12.168 6.5718-14.965 12.753-14.965 6.4416 0 16.592 1.1062 24.075 1.1062 8.3286 0 10.801-2.7979 10.801-5.4656 0-3.5136-3.3184-4.9451-9.7601-6.1814l-17.633-3.3835c-14.64-2.7979-22.448-12.883-22.448-23.619 0-13.013 9.2395-23.945 27.458-25.962 13.729-1.4965 30.516 0.1952 39.691 1.3013 0.32534 1.5616 0.52054 3.0582 0.52054 4.6848 0 12.168-6.4416 14.77-12.623 14.77-4.7499 0-12.102-0.84587-20.561-0.84587-8.5889 0-12.102 2.3424-12.102 5.2054 0 3.0582 3.3835 4.2944 8.719 5.2704l16.787 3.1232c17.308 3.1883 24.725 12.948 24.725 24.986m30.126 14.965c0 7.4827-2.928 11.777-17.568 11.777-1.952 0-3.6438-0.13013-5.2704-0.3904v-99.097c0-7.5478 2.5376-15.421 17.308-15.421 1.8869 0 3.7739 0.1952 5.5307 0.5856zm59.797 38.39c1.952 0.97601 5.856 2.2123 10.801 2.2774 8.5238 0.1952 13.144-3.0582 16.592-10.671l45.547-101.31c-1.887-0.97601-6.0512-2.1472-9.4347-2.2123-5.856-0.13013-13.729 1.0411-18.739 13.013l-14.835 34.681-28.955-47.044c-1.8869-0.5856-6.4416-1.3664-9.7601-1.3664-10.281 0-15.941 3.7739-21.863 10.15l-28.109 30.712 22.643 35.592c4.1643 6.5067 9.695 9.8251 18.609 9.8251 5.856 0 10.736-1.3664 13.013-2.4075l-27.263-40.992 19.325-20.496 31.688 49.646z" fill="#ff0031"/>
	<path d="m789.2 0h-518.65c-5.9862 0-10.866 4.88-10.866 10.866v140.87c0 5.9862 4.88 10.866 10.866 10.866h518.58c5.9862 0 10.866-4.88 10.866-10.866v-140.94c-0.0651-5.9862-4.815-10.801-10.801-10.801" fill="url(#A)"/>
	<path d="m79.967 24.725v67.995c0-2.7328 2.0821-5.5958 5.5958-5.7259l11.452-0.3904c2.2773-0.06507 5.7259-1.6267 5.791-5.791v-70.923c-1.7568-0.3904-3.6437-0.5856-5.5307-0.5856-14.77 0.065067-17.308 7.8731-17.308 15.421m52.054 23.684-28.109 30.712 2.2774 3.5136c0.976 1.3013 2.863 3.5136 6.6368 3.3835l16.007-0.5856c3.5136-0.13014 5.7259 1.3664 7.0923 3.1883l-5.0102-7.5478 19.325-20.496 12.948 20.366c2.3424 3.0582 5.856 3.1232 6.6368 3.1232 0.65067 0 17.698-0.5856 18.414-0.65067 1.1712-0.06507 2.5376 0.5856 3.5787 2.0821l-28.174-45.807c-1.8869-0.5856-6.4416-1.3664-9.7601-1.3664-10.281-0.06507-15.941 3.6438-21.863 10.085m-104.56-9.4347c-18.219 2.0171-27.458 12.883-27.458 25.962 0 6.7019 3.0582 13.144 8.9142 17.763 4.4246 2.928 8.9793 4.0342 13.469 4.815 3.7088 0.65067 12.363 1.2363 18.804 0.97601l20.041-0.71574c7.5478-0.26027 11.582 6.1814 11.192 12.623v-0.32533c0.06507-0.84587 0.13013-1.6917 0.13013-2.5376 0-12.037-7.4176-21.863-24.66-25.051l-16.787-3.1232c-5.4006-0.91094-8.719-2.2123-8.719-5.2704 0-2.863 3.5787-5.2704 12.102-5.2704 8.4587 0 15.811 0.84587 20.561 0.84587 6.1814 0 12.623-2.6027 12.623-14.77 0-1.6267-0.1952-3.1232-0.52054-4.6848-6.5718-0.78081-17.113-1.8869-27.588-1.8869-4.0992 0.06507-8.1985 0.26027-12.102 0.65067m179.72 12.948-14.38 33.9c0-0.06507 0.91094-2.6678 3.7088-2.7979l15.226-0.52054c4.6198-0.1952 6.4416-3.3184 6.9622-4.3595l16.657-37.153c-1.887-0.97601-6.0512-2.1472-9.4347-2.2123h-0.71574c-5.791 0.06507-13.209 1.6267-18.024 13.144" enable-background="new" fill="url(#B)" opacity=".3"/>
	<path d="m270.55 0c-5.9862 0-10.866 4.88-10.866 10.866v78.211c0-1.1712 0.45547-7.6129 7.808-8.3286 0 0 0.3904-0.06507 1.0411-0.06507l523.4-18.349c4.0992-0.13013 8.0683-3.1883 8.0683-8.2635v-43.139c0-5.9862-4.88-10.866-10.866-10.866z" enable-background="new" fill="url(#C)" opacity=".3"/>
	<path d="m377.19 18.412c-4.3595 0-8.0684 3.3836-8.0684 8.0684 0 4.0992 3.6438 7.9375 8.0684 7.9375s7.9375-3.7732 7.9375-7.9375c0-4.5547-3.4479-8.0684-7.9375-8.0684zm148.23 24.141c-20.952 0-37.936 16.591-37.936 39.43 0 23.684 16.334 39.822 40.018 39.822 10.931 0 21.212-3.253 27.914-6.2461 0.7808-6.8971-1.5617-9.8906-4.75-9.8906-1.3664 0-3.0597 0.65106-6.248 1.8223-4.88 1.4965-9.8891 2.9922-16.461 2.9922-15.29 0-25.701-8.523-27.588-23.293h59.275v-0.001953c0.45547-2.863 0.64974-5.3991 0.71484-7.8066 0-18.154-11.58-36.828-34.939-36.828zm-196.25 0.064454c-21.993-1e-6 -38.779 16.853-38.779 39.496 0 22.643 16.786 39.69 38.779 40.016 10.41 0 19.847-2.8625 26.549-6.0508 0.6507-6.8971-1.8879-9.7598-5.0762-9.7598-4.425 0-9.4356 4.8809-21.018 4.8809-14.64 0-26.547-11.258-26.547-28.891s11.907-28.564 26.547-28.564c11.582 0 16.528 4.8809 21.018 4.8809 3.1882 0 5.7268-2.8646 5.0762-9.7617-6.571-3.3834-16.008-6.2461-26.549-6.2461zm113.22 0c-11.517 0-19.975 5.5969-25.506 12.299v-6.5723c0-2.863-1.6923-4.75-6.5723-4.75-2.2123 0-4.5554 0.52036-5.7266 0.8457v75.934c1.1712 0.32533 3.5143 0.65039 5.7266 0.65039 4.9451 0 6.5723-1.7569 6.5723-4.75v-48.734c4.035-7.3524 13.794-13.729 22.838-13.729 11.387 0 19.131 7.4172 19.131 23.033v43.4c1.2363 0.32534 3.7095 0.65039 5.7266 0.65039 5.0102 0 6.5703-1.7569 6.5703-4.75v-40.992c0-22.514-13.079-32.47-28.76-32.535zm168.78 0.001953c-9.37 0-17.112 4.8794-21.992 11.451v-5.4004c0-3.1883-1.6271-5.0742-6.377-5.0742-2.0171 0-4.4253 0.52036-5.7266 0.8457v75.803c1.0411 0.32534 3.5143 0.65039 5.7266 0.65039 5.0102 0 6.5723-1.7569 6.5723-4.75v-50.037c2.863-6.1816 10.214-12.428 18.803-12.428 10.281-1e-6 15.486 6.702 15.486 17.959v48.605c1.3013 0.32534 3.6432 0.65039 5.8555 0.65039 5.0102 0 6.5723-1.7569 6.5723-4.75v-50.037c2.863-6.1816 10.216-12.428 18.805-12.428 10.085-1e-6 15.486 6.702 15.486 17.959v48.605c1.2363 0.32534 3.7075 0.65039 5.7246 0.65039 5.0102 0 6.7031-1.7569 6.7031-4.75v-45.871c0-15.161-8.7182-27.589-25.115-27.654-11.256 0-19.324 6.1801-24.529 13.793-4.034-8.5886-11.909-13.793-21.994-13.793zm122.79 0c-10.671 0-22.059 2.5374-29.672 5.4004-0.7808 6.7019 1.2364 9.8906 4.75 9.8906 1.2363 0 3.058-0.58566 5.4004-1.2363 4.555-1.4966 11.257-3.1895 19-3.1895 14.965 0 18.805 7.0277 18.805 18.805v2.082c-33.769-2.212-53.744 5.8569-53.744 24.336 0 12.233 9.4339 23.162 26.547 23.162 11.387 0 19.975-4.4888 27.197-12.102v6.377c0 3.1883 2.0176 4.8144 6.5723 4.8144 2.2123 0 4.4233-0.32506 5.7246-0.65039v-48.475h0.00196c0-18.023-8.264-29.15-30.582-29.215zm-356.38 1.0391c-5.1403 0-6.7012 1.887-6.7012 4.75v71.834c1.2363 0.32534 3.6424 0.65169 5.7246 0.71679 5.0102 0 6.7031-1.7569 6.7031-4.75v-71.705c-1.2363-0.32533-3.7095-0.8457-5.7266-0.8457zm147.9 9.9551c13.729 0 22.122 10.281 22.643 23.359h-47.693c2.017-15.291 12.818-23.49 25.051-23.359zm218.55 29.924c2.6243 0.008135 5.327 0.081124 8.0762 0.20312v14.641c-5.856 7.8076-14.64 13.078-25.051 13.078-10.215 0-15.941-6.2454-15.941-12.947 0-11.899 14.546-15.032 32.916-14.975z" fill="#fff"/>
	<path d="m329.03 179.36c-5.5566 0.06563-11.059 3.0703-16.518 8.9648-2.6384 2.8332-4.9942 6.1212-7.1562 9.8242-1.7287 2.8332-2.9357 5.2918-3.5469 7.332l-1.5586 4.6094c-1.1215 3.7779-1.8593 7.4803-2.2168 11.109-1.1185 11.297 1.9762 18.441 9.2324 21.387 7.2232 2.985 14.658 0.68078 22.152-6.875 4.5009-4.7236 8.0707-9.7876 10.641-15.344l1.6387-3.9648c2.1631-6.0468 3.1319-12.358 2.9531-18.895l-0.0332-0.60547c-0.36151-9.0308-3.7486-14.549-10.014-16.627-1.8645-0.63315-3.722-0.93789-5.5742-0.91602zm45.625 0.15625c-5.5502 0.02959-11.077 2.9974-16.59 8.9219-2.6294 2.8721-4.9473 6.1612-7.1074 9.8652-1.7287 2.8332-2.9345 5.2897-3.5527 7.293l-1.5137 4.6465c-1.1594 3.7799-1.8993 7.4833-2.2129 11.148-1.1624 11.262 1.8921 18.401 9.1094 21.35 7.3041 2.985 14.746 0.71778 22.271-6.877 4.5069-4.6847 7.9898-9.7866 10.561-15.342l1.6758-3.9668c2.186-6.0628 3.1879-12.491 2.9492-18.932l0.02344-0.53125c-0.40844-9.0688-3.7556-14.587-10.055-16.627-1.856-0.64262-3.7085-0.95908-5.5586-0.94922zm25.023 0.4961-7.2441 17.27h8.1758l5.0273-9.1445h19.748c-0.56723 4.421-6.4887 12.811-17.645 25.129-10.368 11.902-16.383 21.69-18.107 29.475h14.85l1.3867-3.627 0.13672-0.11328-0.02344-0.11719 0.1211-0.41602c3.6631-8.1989 9.1521-16.133 16.48-23.729 14.068-15.607 20.471-27.133 19.111-34.727h-42.018zm46.031 0.33984c-0.33554 4.6098-1.2948 8.6151-3.0684 12.055h29.66c0.35052-1.0955 0.75674-1.8899 1.1602-2.4941 0.2956-0.53028 1.0973-0.6791 2.3906-0.5293h21.719c3.3784-3.0978 4.9158-6.1222 4.5762-9.0312h-56.438zm-115.02 4.4863c0.4082-0.0153 0.80547 0.03923 1.1934 0.16211 4.7156 1.5878 3.2694 11.523-4.2734 29.738-1.8705 4.421-4.412 9.0702-7.416 13.982-4.6986 7.2932-8.3133 10.391-10.812 9.2578-2.5925-1.2094-2.792-5.9346-0.53907-14.059l5.1641-14.623c1.5619-4.3831 3.7867-9.0313 6.5879-13.98 3.8815-6.8787 7.2383-10.371 10.096-10.479zm45.6 0.14844c0.40855-0.01343 0.80536 0.04131 1.1934 0.16406 4.7156 1.5878 3.2642 11.486-4.2656 29.777-1.9574 4.3821-4.458 9.0312-7.4629 13.943-4.7056 7.2562-8.2722 10.391-10.773 9.2578-2.5925-1.2094-2.785-5.8946-0.53711-14.059l5.1641-14.621c1.5609-4.3831 3.8118-9.1082 6.6191-14.02 3.8405-6.911 7.2026-10.349 10.062-10.443zm65.195 10.141c-5.162 6.5002-4.8013 11.033 1.0508 13.643 0.55824 0.0349 0.63909-0.37862 0.22266-1.3613-0.62216-1.2473-0.67676-2.609-0.19141-4.043 0.33954-1.1714 0.85596-2.0021 1.541-2.5703h11.256l-8.9785 12.357c-1.2363 0.79293-2.8301 1.132-4.7695 0.90625h-12.953l-3.0703 3.0625h16.191c3.5113 0.18974 6.0568-0.56743 7.5039-2.1543l8.8262-12.318c1.0805-1.8515 2.1634-2.8341 3.3418-2.873l6.5703-1.209 2.6445-3.4394h-29.186zm-26.992 42.33-0.17773 0.75h1.1719l-1.1035 4.6152h0.96875l1.1035-4.6152h1.1797l0.17969-0.75h-3.3223zm4.0274 0-1.2832 5.3652h0.90234l0.71289-2.9766c0.03997-0.1751 0.07544-0.35527 0.10937-0.54102 0.03334-0.18574 0.06515-0.35659 0.09375-0.51171h0.02539l0.22266 4.0273h0.86524l2.166-4.0352h0.02539c-0.03928 0.13516-0.0835 0.2854-0.13476 0.45118-0.04528 0.16111-0.08898 0.31948-0.12891 0.4746l-0.73828 3.1113h0.93555l1.2832-5.3652h-1.3848l-2.1328 4.0273h-0.02539l-0.21289-4.0273h-1.3008z" fill="#fff"/>
</svg>
