<?xml version="1.0" encoding="UTF-8"?>
<svg width="800" height="196.35" version="1.1" xmlns="http://www.w3.org/2000/svg" xmlns:xlink="http://www.w3.org/1999/xlink">
	<defs>
		<linearGradient id="a" x1="50.37" x2="50.37" y2="32" gradientTransform="matrix(6.136 0 0 6.136 .00114 4e-4)" gradientUnits="userSpaceOnUse">
			<stop stop-color="#e90e10" offset=".4"/>
			<stop stop-color="#bc0000" offset="1"/>
		</linearGradient>
		<linearGradient id="b">
			<stop stop-color="#fff" offset="0"/>
			<stop stop-color="#fff" stop-opacity=".25" offset="1"/>
		</linearGradient>
		<linearGradient id="c" x1="36.675" x2="36.618" y1="16.772" y2="6.0527" gradientTransform="matrix(6.136 0 0 6.136 .00114 4e-4)" gradientUnits="userSpaceOnUse" xlink:href="#b"/>
	</defs>
	<g>
		<path d="m787.1 4e-4h-465.07c-7.0956 0-12.901 5.8905-12.901 13.09v170.17c0 7.1993 5.8052 13.09 12.901 13.09h465.07c7.0932 0 12.898-5.8905 12.898-13.09v-170.17c0-7.1995-5.8046-13.09-12.898-13.09z" fill="url(#a)"/>
		<path d="m318.32 97.357h1.2904c38.218-1.3094 470.72-16.69 470.72-16.69 4.8351-0.16383 9.6703-3.7638 9.6703-9.9814v-57.596c0-7.1995-5.8046-13.09-12.898-13.09h-465.07c-7.0956 0-12.901 5.8905-12.901 13.09v94.576c0-1.1456 0.16138-9.3267 9.1917-10.308z" fill="url(#c)" opacity=".35"/>
		<path d="m122.23 135.97c0 8.9996-3.5478 14.235-20.964 14.235-2.2574 0-4.3541-0.16383-6.2894-0.49087v-119.77c0-9.163 3.0643-18.653 20.641-18.653 2.2574 0 4.5148 0.16365 6.6115 0.65452zm71.115 46.306c2.2574 1.145 6.9336 2.6176 12.9 2.7814 10.159 0.16383 15.642-3.7632 19.674-12.927l54.183-122.39c-2.258-1.1454-7.257-2.618-11.288-2.618-6.9342-0.16358-16.287 1.309-22.254 15.708l-17.577 41.888-34.348-56.778c-2.2574-0.65452-7.7405-1.6363-11.61-1.6363-12.256 0-19.029 4.5815-25.962 12.272l-33.542 36.979 26.93 42.87c4.9996 7.854 11.45 11.781 22.093 11.781 6.9342 0 12.739-1.6365 15.481-2.9453l-32.413-49.251 22.899-24.707 37.734 59.887zm-139.97-32.889c22.092-2.4544 32.897-14.726 32.897-31.58 0-14.562-8.8695-26.344-29.188-29.78l-19.996-3.7638c-6.4504-1.145-10.482-2.6176-10.482-6.3814 0-3.5994 4.1928-6.3814 14.352-6.3814 5.8208 0 11.165 0.32214 15.73 0.59764 3.4023 0.20494 6.3712 0.38411 8.7814 0.38411 7.4184 0 14.998-3.1085 14.998-17.835 0-1.9635-0.32275-3.927-0.6455-5.7269-10.966-1.4726-30.961-3.4361-47.249-1.6363-21.609 2.2908-32.574 15.545-32.574 31.253 0 12.927 9.353 25.199 26.769 28.471l20.964 4.0908c7.7404 1.6358 11.611 3.2723 11.611 7.5264 0 3.1091-3.0639 6.5452-12.901 6.5452-4.7129 0-10.26-0.3565-15.565-0.69766-4.8596-0.31232-9.5155-0.61113-13.139-0.61113-7.4179 0-15.158 3.2723-15.158 17.999 0 1.7997 0.32252 4.0908 0.64503 5.8905 10.966 1.3088 34.187 3.4361 50.151 1.6365z" fill="#ebebeb"/>
		<path d="m115.62 11.29c-17.577 0-20.48 9.4903-20.48 18.653v82.14c0-3.2729 2.5802-6.709 6.6115-6.8723 1.3886-0.0785 3.9939-0.15646 6.5992-0.23501h1e-3c2.8416-0.0853 5.6837-0.17057 6.9453-0.25586 2.7416-0.16383 6.7729-1.9635 6.9342-7.0361v-85.74c-2.0958-0.32729-4.3538-0.65452-6.6113-0.65452zm79.016 36.652 33.542 55.306c-1.2898-1.8003-2.9023-2.6182-4.3541-2.6182-0.5056 0-6.2556 0.22397-11.744 0.43688h-6.2e-4c-5.01 0.19513-9.8016 0.38105-10.186 0.38105-0.96703 0-5.1597 0-7.9013-3.7632l-15.481-24.544-22.899 24.708 5.9666 9.1628c-1.6125-2.1273-4.1927-3.927-8.3854-3.7632-0.60868 0-4.524 0.14603-8.6584 0.30004h-2e-3c-4.6222 0.17181-9.5163 0.35405-10.367 0.35405-4.5155 0.16383-6.7729-2.4544-7.9019-4.0902l-2.7416-4.2547 33.542-36.979c6.9336-7.6904 13.706-12.272 25.962-12.272 3.87 0 9.353 0.98175 11.61 1.6363zm65.632 46.633 19.835-44.833c-2.258-1.309-7.257-2.618-11.127-2.618-6.9342-0.16365-16.287 1.309-22.254 15.708l-17.018 40.726c-0.0123 0.0282-0.0233 0.0528-0.0325 0.0748-7e-3 0.0166-0.0135 0.0319-0.019 0.0448l-0.0233 0.0607 0.0749-0.18039c0.29944-0.66514 1.5248-2.9526 4.2786-3.0925 0 0 16.771-0.65409 18.061-0.65409 5.3751-0.16076 7.4957-3.9387 8.1848-5.1659zm-223.34-10.635 19.996 3.7632c20.48 3.7632 29.349 15.544 29.51 30.107 0 1.0222 0 1.9144-0.11474 2.7925 0.25157-7.565-4.7044-14.726-13.27-14.41-1.5843 0.0675-5.4665 0.18899-9.6654 0.32091-6.0568 0.19021-12.772 0.40067-14.201 0.49762-7.7404 0.32704-17.9-0.32766-22.415-1.1456-5.4828-0.98176-10.804-2.4544-16.126-5.8905-7.0954-5.5635-10.643-13.417-10.643-21.435 0-15.708 10.966-28.962 32.413-31.58 16.448-1.7999 36.283 0.32729 47.248 1.6363 0.48413 1.9635 0.6455 3.7634 0.6455 5.7269 0 14.726-7.5791 17.835-14.998 17.835-2.4212 0-5.436-0.18101-8.879-0.38718-4.5825-0.27489-9.9232-0.59457-15.632-0.59457-10.159 0-14.352 2.9453-14.352 6.3814 0 3.7632 4.0314 5.2358 10.482 6.3814zm49.391 36.663c-0.0135 0.10554-0.02884 0.21107-0.04602 0.316v0.49088c0.02209-0.26876 0.03743-0.53813 0.04602-0.80688z" fill="url(#c)"/>
	</g>
	<g fill="#fff">
		<path d="m430.56 90.648v49.906c0 3.5994-2.096 6.0537-8.3854 6.0537-2.5802 0-5.6438-0.32704-7.2564-0.81792v-53.015c0-18.489-8.8695-27.325-22.415-27.325-10.481 0-21.77 7.3631-26.446 16.035v59.232c0 3.6-2.0967 6.0544-8.3854 6.0544-2.5802 0-5.6445-0.32704-7.257-0.81792v-92.939c1.4518-0.32723 4.5154-0.81811 7.257-0.81811 6.2887 0 8.3854 2.2907 8.3854 6.0542v7.8537c6.6115-8.3446 16.771-14.89 30.155-14.89 18.706 0 34.348 11.944 34.348 39.433z"/>
		<path d="m465.07 105.05h70.631c0.48413-3.2723 0.6455-6.5452 0.32275-9.3267 0-22.416-13.868-44.506-41.927-44.506-24.834 0-45.153 19.962-45.153 47.778 0 28.962 19.19 48.434 47.733 48.434 13.223 0 25.64-4.0908 33.864-7.6908 0.80627-8.5081-2.0966-12.108-6.4507-12.108-1.3168 0-2.6329 0.43626-5.2665 1.3088-0.59212 0.19635-1.2505 0.41479-1.9899 0.6547-5.6445 1.9635-11.772 3.4361-19.512 3.4361-18.061 0-30.155-9.9814-32.252-27.98zm56.118-12.272h-56.118c2.4188-18.326 15.158-28.144 29.349-28.144 16.126 0 26.124 12.272 26.769 28.144z"/>
		<path d="m679.55 54.488-24.194 85.249c-1.4481 5.3996-5.4794 6.7084-11.284 6.7084-3.2275 0-6.4489-0.65471-9.1917-1.3088l-23.061-74.941-21.608 69.541c-1.7739 5.3996-5.9666 6.7084-10.966 6.7084-3.2257 0-6.7729-0.65471-9.5144-1.3088l-25.801-90.649c2.2574-1.1454 6.4501-2.2907 9.8366-2.2907 4.3541 0 6.6115 1.309 7.7405 5.5632l18.222 71.177h0.16138l22.576-74.45c2.5802-1.4726 6.128-2.2907 9.6758-2.2907 5.9691 0 9.1904 1.309 10.804 6.8723l20.96 69.704h0.16567l17.739-71.177c1.129-4.2543 3.387-5.5633 7.7374-5.5633 3.8718 0.16365 7.7436 1.309 10.002 2.4544z"/>
		<path d="m689.87 141.05c-1.129-8.0178 1.2886-12.272 5.9642-12.272 4.3565 0 14.996 4.7449 29.833 4.7449 15.641 0 21.445-5.5635 21.445-12.927 0-5.2358-2.258-9.8175-16.285-13.745l-16.125-4.4179c-17.899-4.7449-24.832-13.908-24.832-25.035 0-13.908 10.799-26.18 35.312-26.18 10.965 0 24.673 2.4544 33.061 5.7269 1.4481 7.854-0.96949 12.108-5.6451 12.108-4.197 0-13.708-4.0902-27.09-4.0902-14.518 0-19.838 5.072-19.838 11.617 0 4.5817 2.0985 8.8358 14.996 12.599l16.45 4.5817c18.383 5.2358 25.802 13.908 25.802 26.18 0 14.399-10.965 27.325-37.577 27.325-11.928 0.16383-26.606-2.7814-35.472-6.2176z"/>
	</g>
</svg>
