<?xml version="1.0" encoding="UTF-8"?>
<svg width="800" height="261.13" version="1.1" xmlns="http://www.w3.org/2000/svg">
	<defs>
		<linearGradient id="a" x1="414.37" x2="1244.6" y1="289.84" y2="289.84" gradientTransform="matrix(.65067 0 0 .65067 -9.825 -107.3)" gradientUnits="userSpaceOnUse">
			<stop stop-color="#ff0031" offset="0"/>
			<stop stop-color="#9b001f" offset="1"/>
		</linearGradient>
		<linearGradient id="b" x1="197.48" x2="194.59" y1="295.14" y2="212.24" gradientTransform="matrix(.65067 0 0 .65067 -9.825 -107.3)" gradientUnits="userSpaceOnUse">
			<stop stop-color="#fff" offset="0"/>
			<stop stop-color="#fff" stop-opacity=".25" offset=".515"/>
		</linearGradient>
		<linearGradient id="c" x1="830.55" x2="826.25" y1="276.73" y2="153.47" gradientTransform="matrix(.65067 0 0 .65067 -9.825 -107.3)" gradientUnits="userSpaceOnUse">
			<stop stop-color="#fff" offset="0"/>
			<stop stop-color="#fff" stop-opacity=".25" offset=".515"/>
		</linearGradient>
	</defs>
	<path d="m72.615 97.471c0 13.989-9.11 24.14-27.719 26.157-13.404 1.431-32.859-0.26-42.098-1.301-0.325-1.497-0.586-3.384-0.586-4.88 0-12.168 6.572-14.965 12.753-14.965 6.442 0 16.592 1.106 24.075 1.106 8.329 0 10.801-2.798 10.801-5.466 0-3.513-3.318-4.945-9.76-6.181l-17.633-3.384c-14.64-2.797-22.448-12.883-22.448-23.619 0-13.013 9.24-23.945 27.458-25.962 13.73-1.496 30.516 0.196 39.691 1.302 0.326 1.561 0.52 3.058 0.52 4.684 0 12.168-6.44 14.77-12.622 14.77-4.75 0-12.102-0.845-20.561-0.845-8.59 0-12.102 2.342-12.102 5.205 0 3.058 3.383 4.294 8.719 5.27l16.787 3.124c17.308 3.188 24.725 12.948 24.725 24.986m30.126 14.965c0 7.482-2.928 11.777-17.568 11.777-1.952 0-3.644-0.13-5.27-0.39v-99.099c0-7.548 2.537-15.42 17.307-15.42 1.887 0 3.774 0.194 5.531 0.585zm59.797 38.39c1.952 0.976 5.856 2.212 10.8 2.277 8.525 0.195 13.145-3.058 16.593-10.671l45.547-101.31c-1.887-0.976-6.051-2.147-9.435-2.212-5.856-0.13-13.729 1.04-18.739 13.013l-14.835 34.68-28.955-47.043c-1.887-0.586-6.441-1.367-9.76-1.367-10.281 0-15.941 3.774-21.863 10.15l-28.109 30.712 22.643 35.592c4.164 6.507 9.695 9.825 18.609 9.825 5.856 0 10.736-1.366 13.013-2.407l-27.263-40.992 19.325-20.496 31.688 49.646z" fill="#ff0031"/>
	<path d="m270.55 0c-5.986 0-10.866 4.88-10.866 10.866v140.87c0 5.986 4.88 10.866 10.866 10.866h518.58c5.986 0 10.866-4.88 10.866-10.866v-140.94c-0.065-5.986-4.815-10.801-10.798-10.798z" fill="url(#a)"/>
	<path d="m79.967 24.725v67.995c0-2.733 2.082-5.596 5.596-5.726l11.452-0.39c2.277-0.065 5.726-1.627 5.79-5.791v-70.923a25.724 25.724 0 0 0-5.53-0.586c-14.77 0.065-17.308 7.873-17.308 15.421m52.054 23.684-28.109 30.712 2.277 3.514c0.977 1.301 2.863 3.513 6.637 3.383l16.007-0.585c3.514-0.13 5.726 1.366 7.093 3.188l-5.01-7.548 19.324-20.496 12.948 20.366c2.343 3.058 5.856 3.123 6.637 3.123 0.65 0 17.698-0.585 18.414-0.65 1.171-0.065 2.538 0.585 3.579 2.082l-28.174-45.808c-1.887-0.586-6.442-1.367-9.76-1.367-10.281-0.065-15.941 3.644-21.863 10.085m-104.56-9.433c-18.22 2.017-27.457 12.883-27.457 25.962 0 6.702 3.058 13.144 8.914 17.763 4.425 2.928 8.98 4.034 13.469 4.815 3.709 0.65 12.363 1.236 18.804 0.976l20.041-0.716c7.548-0.26 11.582 6.181 11.192 12.623v-0.325c0.065-0.846 0.13-1.692 0.13-2.538 0-12.037-7.417-21.863-24.66-25.051l-16.787-3.123c-5.4-0.911-8.719-2.213-8.719-5.27 0-2.864 3.579-5.271 12.102-5.271 8.459 0 15.811 0.846 20.561 0.846 6.182 0 12.623-2.603 12.623-14.77 0-1.627-0.195-3.123-0.52-4.685-6.572-0.78-17.113-1.887-27.588-1.887-4.1 0.065-8.199 0.26-12.102 0.65m179.72 12.949-14.38 33.9c0-0.065 0.91-2.668 3.708-2.798l15.226-0.52c4.62-0.196 6.442-3.319 6.963-4.36l16.657-37.153c-1.887-0.976-6.052-2.147-9.435-2.212h-0.716c-5.79 0.065-13.209 1.626-18.024 13.144" fill="url(#b)" opacity=".3"/>
	<path d="m270.55 0c-5.986 0-10.866 4.88-10.866 10.866v78.211c0-1.171 0.455-7.613 7.808-8.329 0 0 0.39-0.065 1.041-0.065l523.4-18.349c4.1-0.13 8.068-3.188 8.068-8.263v-43.141c0-5.985-4.88-10.865-10.866-10.865z" fill="url(#c)" opacity=".3"/>
	<path d="m377.19 18.414c-4.36 0-8.068 3.384-8.068 8.068 0 4.1 3.643 7.938 8.068 7.938s7.938-3.773 7.938-7.938c0-4.554-3.448-8.068-7.938-8.068zm148.22 24.141c-20.952 0-37.936 16.591-37.936 39.43 0 23.684 16.333 39.82 40.018 39.82 10.931 0 21.212-3.253 27.914-6.246 0.78-6.897-1.562-9.89-4.75-9.89-1.366 0-3.06 0.65-6.248 1.822-4.88 1.496-9.89 2.994-16.461 2.994-15.291 0-25.701-8.525-27.588-23.295h59.275c0.455-2.863 0.65-5.401 0.715-7.809 0-18.154-11.58-36.826-34.94-36.826zm-196.24 0.064c-21.993 0-38.781 16.853-38.781 39.496s16.789 39.69 38.781 40.016c10.411 0 19.845-2.862 26.547-6.05 0.65-6.897-1.888-9.76-5.076-9.76-4.425 0-9.434 4.879-21.016 4.879-14.64 0-26.55-11.255-26.55-28.89 0-17.632 11.91-28.563 26.55-28.563 11.582 0 16.526 4.879 21.016 4.879 3.188 0 5.727-2.863 5.076-9.76-6.572-3.384-16.006-6.246-26.547-6.246zm113.22 0c-11.517 0-19.977 5.595-25.508 12.297v-6.57c0-2.863-1.69-4.75-6.57-4.75-2.213 0-4.556 0.52-5.727 0.846v75.934c1.171 0.325 3.514 0.65 5.727 0.65 4.945 0 6.57-1.757 6.57-4.75v-48.736c4.034-7.352 13.796-13.729 22.84-13.729 11.387 0 19.129 7.417 19.129 23.033v43.4c1.236 0.326 3.71 0.65 5.727 0.65 5.01 0 6.57-1.756 6.57-4.75v-40.99c0-22.513-13.077-32.468-28.758-32.533zm168.78 0c-9.37 0-17.112 4.88-21.992 11.451v-5.4c0-3.188-1.627-5.074-6.377-5.074-2.017 0-4.425 0.52-5.727 0.846v75.803c1.042 0.325 3.515 0.65 5.727 0.65 5.01 0 6.572-1.757 6.572-4.75v-50.037c2.863-6.181 10.214-12.428 18.803-12.428 10.281 0 15.486 6.702 15.486 17.959v48.605c1.302 0.325 3.645 0.65 5.858 0.65 5.01 0 6.57-1.757 6.57-4.75v-50.037c2.863-6.181 10.216-12.428 18.805-12.428 10.085 0 15.486 6.703 15.486 17.96v48.604c1.236 0.326 3.71 0.65 5.727 0.65 5.01 0 6.7-1.756 6.7-4.75v-45.871c0-15.161-8.718-27.587-25.114-27.652-11.257 0-19.326 6.182-24.531 13.795-4.034-8.59-11.907-13.795-21.992-13.795zm122.78 0c-10.671 0-22.057 2.538-29.67 5.4-0.78 6.703 1.236 9.891 4.75 9.891 1.236 0 3.058-0.585 5.4-1.236 4.555-1.496 11.257-3.19 19-3.19 14.965 0 18.803 7.028 18.803 18.806v2.082c-33.77-2.213-53.744 5.857-53.744 24.336 0 12.233 9.435 23.164 26.547 23.164 11.387 0 19.975-4.491 27.197-12.104v6.377c0 3.188 2.018 4.814 6.573 4.814 2.212 0 4.425-0.325 5.726-0.65v-48.475c0-18.024-8.264-29.15-30.582-29.215zm-356.37 1.041c-5.14 0-6.701 1.887-6.701 4.75v71.834c1.236 0.326 3.644 0.65 5.726 0.715 5.01 0 6.702-1.757 6.702-4.75v-71.703c-1.237-0.325-3.71-0.845-5.727-0.845zm147.9 9.956c13.729 0 22.122 10.28 22.643 23.359h-47.693c2.017-15.291 12.818-23.49 25.051-23.36zm218.55 29.922c2.624 8e-3 5.327 0.083 8.076 0.205v14.639c-5.856 7.808-14.64 13.078-25.05 13.078-10.217 0-15.942-6.246-15.942-12.947 0-11.9 14.546-15.032 32.916-14.975z" fill="#fff"/>
	<path d="m520.88 179.37c-2.5319 0-4.2732 0.5144-5.2226 1.543-0.87033 1.0286-1.3047 2.3336-1.3047 3.916v25.043c-2.1363-2.4527-4.7083-4.4322-7.7148-5.9355-2.9275-1.5033-6.4082-2.2539-10.443-2.2539-3.0066 0-6.053 0.59249-9.1387 1.7793-3.0857 1.1868-5.8939 3.0062-8.4258 5.459-2.4527 2.4527-4.4703 5.5392-6.0527 9.2578-1.5824 3.6396-2.375 7.951-2.375 12.936 0 4.9846 0.75257 9.338 2.2559 13.057 1.5033 3.7187 3.4808 6.8431 5.9336 9.375s5.1829 4.4313 8.1894 5.6973c3.0857 1.2659 6.1721 1.8984 9.2578 1.8984 4.0352 0 7.674-0.79063 10.918-2.373 3.3231-1.5824 6.0913-4.1544 8.3066-7.7148h0.11914v3.3223c0 1.1077 0.15813 2.1365 0.47461 3.0859 0.3956 0.94944 1.0281 1.742 1.8984 2.375 0.94945 0.55384 2.3345 0.83008 4.1543 0.83008 1.345 0 2.572-0.0801 3.6797-0.23829 1.1077-0.15824 1.9784-0.31637 2.6113-0.47461-0.23737-3.7978-0.43551-7.4366-0.59375-10.918-0.0791-3.4813-0.11914-7.3584-0.11914-11.631v-57.441c-0.63297-0.15824-1.5817-0.27635-2.8477-0.35547-1.1868-0.15824-2.3737-0.23828-3.5606-0.23828zm-271.9 3.0859c-1.3451 0-2.7702 0.0781-4.2734 0.23633-1.4242 0.15824-2.8873 0.43643-4.3906 0.83203l-26.229 75.836c0.7912 0.47472 1.86 0.83099 3.2051 1.0684 1.4242 0.23736 2.6892 0.35743 3.7969 0.35743 1.7406 0 3.2058-0.23817 4.3926-0.71289 1.1868-0.47473 2.0956-1.5816 2.7285-3.3223l5.5781-16.973h30.383l5.6973 16.973c0.63296 1.8198 1.6217 2.9267 2.9668 3.3223 1.3451 0.47472 2.9263 0.71289 4.7461 0.71289 1.0286 0 2.1374-0.15813 3.3242-0.47461 1.2659-0.31648 2.3728-0.67276 3.3223-1.0684l-23.855-69.43c-0.47472-1.345-0.98912-2.4519-1.543-3.3223-0.55384-0.94944-1.2644-1.702-2.1348-2.2558-0.79121-0.63297-1.82-1.0673-3.0859-1.3047-1.1868-0.31649-2.73-0.47461-4.6289-0.47461zm0.11914 11.512 11.393 34.418h-22.904zm147.52 7.7148c-4.7472 0-9.0586 0.39434-12.936 1.1856-3.8769 0.71208-7.1214 1.5047-9.7324 2.375-0.0791 0.3956-0.11914 0.78994-0.11914 1.1855v1.0684c0 2.0571 0.39629 3.7985 1.1875 5.2227 0.7912 1.4242 2.0182 2.1367 3.6797 2.1367 0.94944 0 1.9382-0.12006 2.9668-0.35742 1.1077-0.31648 2.3327-0.63274 3.6777-0.94922 1.4242-0.39561 3.0074-0.71186 4.748-0.94922 1.7407-0.31649 3.7582-0.47461 6.0527-0.47461 4.5099 0 7.6344 0.83066 9.375 2.4922 1.7406 1.5824 2.6113 4.3125 2.6113 8.1894v2.9668c-5.222-0.94945-9.8896-1.4238-14.004-1.4238-4.3516 0-8.1106 0.47438-11.275 1.4238-3.0857 0.94944-5.6558 2.2945-7.7129 4.0352-2.0571 1.6615-3.6003 3.6791-4.6289 6.0527-0.94944 2.3736-1.4238 4.9856-1.4238 7.834 0 2.3736 0.39435 4.6274 1.1856 6.7637 0.87033 2.0571 2.0973 3.8766 3.6797 5.459 1.6615 1.5824 3.6791 2.8494 6.0527 3.7988 2.4527 0.87033 5.2229 1.3047 8.3086 1.3047 2.6901 0 5.062-0.31625 7.1191-0.94921 2.1362-0.55385 4.0357-1.3445 5.6973-2.373 1.6615-1.0286 3.0866-2.2155 4.2734-3.5606 1.2659-1.4242 2.3728-2.8873 3.3223-4.3906h0.11914c0.0791 1.5033 0.19723 2.9264 0.35547 4.2715 0.23736 1.345 0.63366 2.532 1.1875 3.5606 0.55384 0.94944 1.3045 1.7401 2.2539 2.373 1.0286 0.55384 2.3356 0.83204 3.918 0.83204 1.4242 0 2.6492-0.12007 3.6777-0.35743 1.1077-0.23736 2.0184-0.51359 2.7305-0.83007-0.55384-1.8989-0.99016-3.6402-1.3066-5.2227-0.31648-1.6615-0.59272-3.3228-0.83008-4.9844-0.15823-1.6615-0.27634-3.4409-0.35546-5.3398v-18.871c0-3.7978-0.3963-7.1204-1.1875-9.9688-0.71209-2.9275-2.0171-5.3794-3.916-7.3574-1.8198-2.0571-4.2717-3.6003-7.3574-4.6289-3.0066-1.0286-6.8055-1.543-11.395-1.543zm164.73 0.23633c-4.1934 0-7.7542 0.47633-10.682 1.4258-2.9275 0.87033-5.3414 2.0553-7.2402 3.5586-1.8198 1.5033-3.1648 3.2446-4.0352 5.2227-0.87032 1.978-1.3047 4.0356-1.3047 6.1719 0 3.956 1.265 7.2786 3.7969 9.9687 2.5319 2.611 7.0033 4.8267 13.412 6.6465l8.4258 2.373c3.4022 0.94944 5.776 1.9002 7.1211 2.8496 1.345 0.87032 2.0176 2.1754 2.0176 3.916-1e-5 0.87033-0.15813 1.701-0.47461 2.4922-0.23736 0.71208-0.75177 1.3846-1.543 2.0176-0.79121 0.55384-1.9381 1.0282-3.4414 1.4238-1.4242 0.31648-3.3236 0.4746-5.6973 0.4746-2.1362 0-4.1538-0.15812-6.0527-0.4746s-3.6402-0.67276-5.2227-1.0684c-1.5033-0.47472-2.9264-0.86906-4.2715-1.1856-1.2659-0.31648-2.3748-0.47656-3.3242-0.47656-1.5824 0-2.8074 0.63445-3.6777 1.9004-0.87033 1.2659-1.3066 2.9272-1.3066 4.9844v1.3047l0.23828 1.1875c3.7978 1.345 7.7129 2.4139 11.748 3.2051 4.1143 0.71208 8.0714 1.0664 11.869 1.0664 4.7472 0 8.6643-0.5144 11.75-1.543 3.1648-1.0286 5.6568-2.3336 7.4766-3.916 1.8198-1.6615 3.0848-3.521 3.7969-5.5781 0.79121-2.1362 1.1875-4.272 1.1875-6.4082 0-4.1143-1.345-7.5169-4.0352-10.207-2.611-2.6901-7.1606-4.9439-13.648-6.7637l-8.9004-2.4922c-1.8198-0.47472-3.2849-0.91103-4.3926-1.3066-1.0286-0.47472-1.8592-0.9491-2.4922-1.4238-0.55384-0.47472-0.94818-0.98913-1.1855-1.543-0.15824-0.55384-0.23829-1.1864-0.23829-1.8984 0-1.6615 0.75257-2.9666 2.2559-3.916 1.5824-0.94945 4.2725-1.4258 8.0703-1.4258 4.1143 0 7.4769 0.43631 10.088 1.3066 2.6901 0.79121 4.9039 1.1856 6.6445 1.1856s3.0076-0.63251 3.7988-1.8984c0.87032-1.345 1.3047-3.1645 1.3047-5.459 0-0.31648-0.0381-0.59271-0.11718-0.83007v-1.0684c-7.5956-2.5319-14.835-3.7988-21.719-3.7988zm-98.15 0.11914c-3.5604 0-6.6849 0.98878-9.375 2.9668-2.6901 1.8989-4.8278 4.7872-6.4102 8.6641h-0.23633v-4.1543c0-2.2154-0.55442-3.9548-1.6621-5.2207-1.0286-1.345-2.768-2.0176-5.2207-2.0176-1.1077 0-2.1365 0.11811-3.0859 0.35547-0.87032 0.15825-1.741 0.35639-2.6113 0.59375v56.967c0.63297 0.15824 1.5417 0.27635 2.7285 0.35547 1.2659 0.15823 2.4929 0.23828 3.6797 0.23828 2.5318 0 4.2332-0.51441 5.1035-1.543 0.94945-1.0286 1.4238-2.3356 1.4238-3.918v-28.363c0-4.5099 1.227-7.8344 3.6797-9.9707 2.5318-2.1362 5.8545-3.2031 9.9688-3.2031h2.1367c4.4308 0 6.6465-2.2157 6.6465-6.6465 0-1.345-0.23816-2.8482-0.71289-4.5098-0.87033-0.15824-1.8191-0.27635-2.8477-0.35547-0.94945-0.15824-2.0183-0.23828-3.2051-0.23828zm-171.85 0.23828c-1.5033 0-2.8083 0.15813-3.916 0.47461-1.1077 0.31649-2.0965 0.67276-2.9668 1.0684l13.648 56.018c0.87033 0.3956 2.0553 0.67184 3.5586 0.83008 1.5824 0.15824 2.8894 0.23632 3.918 0.23632 2.2945 0 4.192-0.35432 5.6953-1.0664 1.5824-0.79121 2.6913-2.2963 3.3242-4.5117l10.207-37.383 11.154 42.012c0.79121 0.31648 1.9401 0.55466 3.4434 0.7129s2.8083 0.23632 3.916 0.23632c2.1362 0 4.0357-0.35432 5.6973-1.0664 1.6615-0.79121 2.7684-2.2163 3.3223-4.2734l12.699-51.982c-0.79121-0.31648-1.7419-0.59271-2.8496-0.83008-1.0286-0.31648-2.2155-0.47461-3.5606-0.47461-1.8198 0-3.2429 0.35627-4.2715 1.0684-1.0286 0.63297-1.7411 1.8179-2.1367 3.5586l-5.1035 23.262c-0.7912 3.6396-1.4637 6.9241-2.0176 9.8516-0.55385 2.9275-1.0682 5.6576-1.543 8.1895-0.55385-2.5319-1.3045-5.5002-2.2539-8.9024-0.87033-3.4022-1.741-6.7648-2.6113-10.088l-7.002-26.109c-0.79121-0.23737-1.7019-0.43551-2.7305-0.59375s-2.0574-0.23633-3.0859-0.23633c-2.2945 0-4.1139 0.43436-5.459 1.3047-1.2659 0.7912-2.2147 2.3344-2.8477 4.6289l-5.8164 21.006c-0.3956 1.1868-0.82997 2.6119-1.3047 4.2734-0.47473 1.6615-0.94911 3.3629-1.4238 5.1035-0.39561 1.7406-0.7919 3.48-1.1875 5.2207-0.39561 1.6615-0.75188 3.1266-1.0684 4.3926-0.55385-2.7692-1.1063-5.6175-1.6602-8.5449-0.55384-2.9275-1.1883-6.0939-1.9004-9.4961l-4.8652-22.904c-0.39561-1.8989-1.1862-3.2039-2.373-3.916s-2.73-1.0684-4.6289-1.0684zm208.64 10.205c2.9275 0 5.6976 0.67253 8.3086 2.0176 2.611 1.2659 4.6686 3.2454 6.1719 5.9355v21.48c-1.5033 2.7692-3.6009 4.8268-6.291 6.1719-2.611 1.345-5.3411 2.0176-8.1894 2.0176-2.611 0-4.9448-0.47439-7.002-1.4238-1.978-0.94945-3.6794-2.2564-5.1035-3.918-1.4242-1.7406-2.5311-3.7963-3.3223-6.1699-0.71209-2.3736-1.0684-4.9456-1.0684-7.7148 0-2.611 0.35627-5.0248 1.0684-7.2402 0.7912-2.2945 1.8981-4.232 3.3223-5.8144 1.4242-1.6615 3.1655-2.9666 5.2227-3.916 2.0571-0.94945 4.351-1.4258 6.8828-1.4258zm-102.54 20.414c3.1648 0 6.7656 0.35627 10.801 1.0684v4.9844c-1.5824 3.3231-3.7981 6.0913-6.6465 8.3066-2.7692 2.2154-6.0518 3.3242-9.8496 3.3242-2.9275 0-5.3013-0.67252-7.1211-2.0176-1.8198-1.3451-2.7305-3.2846-2.7305-5.8164 0-3.1648 1.267-5.5768 3.7988-7.2383 2.611-1.7406 6.5261-2.6113 11.748-2.6113z" fill="#fff"/>
</svg>
