<?xml version="1.0" encoding="UTF-8"?>
<svg width="800" height="116.57" version="1.1" xmlns="http://www.w3.org/2000/svg">
	<defs>
		<linearGradient id="A" x1="1456.7" x2="1456.7" y2="500" gradientTransform="matrix(.23313 0 0 .23313 .0030899 0)" gradientUnits="userSpaceOnUse">
			<stop stop-color="red" offset=".4"/>
			<stop stop-color="#d42321" offset="1"/>
		</linearGradient>
		<linearGradient id="B" x1="1459.5" x2="1450.8" y1="233.73" y2="-15.325" gradientTransform="matrix(.23313 0 0 .23313 .0030899 0)" gradientUnits="userSpaceOnUse">
			<stop stop-color="#fff" offset="0"/>
			<stop stop-color="#fff" stop-opacity=".835" offset=".12"/>
			<stop stop-color="#fff" stop-opacity=".658" offset=".269"/>
			<stop stop-color="#fff" stop-opacity=".511" offset=".42"/>
			<stop stop-color="#fff" stop-opacity=".397" offset=".568"/>
			<stop stop-color="#fff" stop-opacity=".315" offset=".716"/>
			<stop stop-color="#fff" stop-opacity=".266" offset=".86"/>
			<stop stop-color="#fff" stop-opacity=".25" offset="1"/>
		</linearGradient>
		<linearGradient id="C" x1="361.92" x2="361.92" y1="28.806" y2="471.22" gradientTransform="matrix(.23313 0 0 .23313 .0030899 0)" gradientUnits="userSpaceOnUse">
			<stop stop-color="#cbcbcb" offset="0"/>
			<stop stop-color="#d4d4d4" offset=".8"/>
		</linearGradient>
		<linearGradient id="D" x1="365.45" x2="359.6" y1="263.25" y2="95.751" gradientTransform="matrix(.23313 0 0 .23313 .0030899 0)" gradientUnits="userSpaceOnUse">
			<stop stop-color="#fff" offset="0"/>
			<stop stop-color="#fff" stop-opacity=".835" offset=".12"/>
			<stop stop-color="#fff" stop-opacity=".658" offset=".269"/>
			<stop stop-color="#fff" stop-opacity=".511" offset=".42"/>
			<stop stop-color="#fff" stop-opacity=".397" offset=".568"/>
			<stop stop-color="#fff" stop-opacity=".315" offset=".716"/>
			<stop stop-color="#fff" stop-opacity=".266" offset=".86"/>
			<stop stop-color="#fff" stop-opacity=".25" offset="1"/>
		</linearGradient>
	</defs>
	<g>
		<path d="m485.22 0v116.57h307.01c4.2896 0 7.7631-3.4739 7.7631-7.7636v-101.04c0-4.2896-3.4735-7.7636-7.7631-7.7636z" fill="#cbcbcb"/>
		<path d="m485.22 2.3313v111.9h307.01c2.9841 0 5.4322-2.4243 5.4322-5.4318v-101.04c0-2.9841-2.4248-5.4322-5.4322-5.4322z" fill="#fff"/>
		<path d="m730.04 20.773c-2.6576 0-4.9423 2.0981-4.9423 4.9423 0 2.5411 2.2846 4.919 4.9423 4.9423 2.8674 0 5.0354-2.3779 5.0354-4.9423 0-2.8441-2.1912-4.9423-5.0354-4.9423zm-68.845 5.152c-3.0307 0-4.1736 1.3047-4.1736 3.3096v39.166c0 8.8125 5.4087 14.128 14.431 14.128 4.5458 0 9.0913-1.235 13.077-3.1466h2e-3c0.46618-3.7767-0.67563-5.6898-2.937-5.6665-2.1914 0-4.7562 2.0053-9.3023 2.0053-5.0123 0-7.4833-2.564-7.4833-7.8793v-24.758h15.176c1.7019 0 2.8438-0.95469 2.8438-3.7057 0-1.1423-0.18628-2.4727-0.27951-3.1254h-17.74v-9.8613c-0.76933-0.1865-2.2858-0.46586-3.6146-0.46586zm-129.18 9.2303c-6.4576 0-13.194 1.61-17.834 3.3118-0.76933 3.9865 0.67573 5.874 2.8438 5.874 0.9325 0 2.076-0.37236 3.5913-0.74536 2.5644-0.65276 7.3892-1.7025 11.002-1.7025 8.6491 0 10.911 3.1465 10.911 10.63v1.6093c-20.026-1.3056-31.776 3.5204-31.776 14.524 0 7.2037 5.5941 13.848 15.758 13.848 6.7142 0 12.03-2.7509 16.11-7.3901v3.9852c0 1.8883 1.3274 2.9391 4.1716 2.9391 1.3289 0 2.752-0.1883 3.5214-0.3748v-29.211c0-11.283-4.9434-17.275-18.302-17.298zm231.91 0c-6.4576 0-13.194 1.61-17.834 3.3118-0.76932 3.9865 0.67572 5.874 2.8438 5.874 0.93252 0 2.0738-0.37236 3.5892-0.74536 2.5644-0.65276 7.3912-1.7025 11.004-1.7025 8.6491 0 10.909 3.1465 10.909 10.63v1.6093c-20.026-1.3056-31.776 3.5204-31.776 14.524 0 7.2037 5.5963 13.848 15.761 13.848 6.7142 0 12.028-2.7509 16.108-7.3901v3.9852c0 1.8883 1.3294 2.9391 4.1736 2.9391 1.3289 0 2.752-0.1883 3.5214-0.3748v-29.211c0-11.283-4.9434-17.275-18.302-17.298zm-134.68 0.04871c-12.239 0-17.649 6.0607-17.649 12.892 0 5.5017 3.4968 9.9545 12.426 12.332l8.0678 2.1683c7.0405 1.8884 8.1588 4.1735 8.1588 6.7379 0 3.5901-2.9366 6.3399-10.7 6.3399-7.413 0-12.728-2.378-14.896-2.378-2.2614 0-3.4964 2.0993-2.937 6.0858 4.4529 1.7248 11.773 3.1467 17.6 3.1234 13.288 0 18.789-6.3633 18.789-13.474 0-6.0612-3.6828-10.329-12.892-12.894l-8.2519-2.2615c-6.4344-1.8184-7.4834-3.8922-7.4834-6.1768 0-3.2172 2.6576-5.6877 9.8613-5.6877 6.7377 0 11.468 2.0032 13.567 2.0032 2.3546 0 3.5899-2.0739 2.8438-5.9672-4.173-1.6086-11.002-2.8438-16.504-2.8438zm-63.364 0.46586c-3.1239 0-4.1736 1.142-4.1736 2.937v24.549c0 13.474 7.7632 19.35 17.065 19.35 6.7369 0 11.773-3.2173 15.083-7.297v3.892c0 1.8185 1.0497 2.9391 4.1736 2.9391 1.3522 0 2.8431-0.1883 3.6125-0.3748v-45.622c-0.76933-0.18651-2.2836-0.37268-3.6125-0.37268-3.1239 0-4.1736 1.142-4.1736 2.937v29.118c-2.2616 4.2662-7.9488 7.8793-13.17 7.8793-6.7369 0-11.189-4.3584-11.189-13.474v-26.087c-0.76932-0.18651-2.2858-0.37268-3.6146-0.37268zm129.34 0c-1.3289 0-2.8431 0.18618-3.6125 0.37268v45.624c0.76933 0.18651 2.2836 0.37268 3.6125 0.37268 3.1239 0 4.1736-1.0254 4.1736-2.937v-25.715c3.4032-7.1104 8.9049-10.141 15.456-10.141 3.2164 0 4.5457-0.6536 4.5464-3.7988v-0.0022c-3.2e-4 -1.398-0.30279-2.8436-0.37269-3.496-8.4403-1.1423-15.176 2.262-19.629 8.9995v-6.342c1e-5 -1.7952-1.0497-2.937-4.1736-2.937zm35.087 0c-3.1239 0-4.1736 1.1186-4.1736 2.937v43.06c0.74602 0.18651 2.2624 0.37268 3.5913 0.37268 3.1239 0 4.0783-1.0487 4.0783-2.937v-43.06c-0.74591-0.18651-2.1672-0.37268-3.496-0.37268zm-194.86 23.85c2.2435-0.03204 4.6203 0.05159 7.0725 0.23081v8.6267c-3.3104 4.5693-8.6278 7.5998-14.712 7.5765-5.9914 0-9.3001-3.59-9.3001-7.5765 0-6.3834 7.2184-8.7188 16.94-8.8576zm231.91 0c2.2435-0.03204 4.6203 0.05159 7.0725 0.23081v8.6267c-3.3104 4.5693-8.6258 7.5998-14.71 7.5765-5.9914 0-9.3001-3.59-9.3001-7.5765 0-6.3834 7.2162-8.7188 16.938-8.8576z" fill="#002a91"/>
		<path d="m193.99 0h291.23c4.2896 0 7.7633 3.4737 7.7633 7.7633v101.04c0 4.2896-3.4737 7.7633-7.7633 7.7633h-291.23c-4.2896 0-7.7633-3.4737-7.7633-7.7633v-101.04c0-4.2896 3.4737-7.7633 7.7633-7.7633z" fill="url(#A)"/>
		<path d="m191.83 57.818 0.74602-0.04663 294.61-10.281c3.2406-0.02331 5.8284-2.681 5.8051-5.8983v-33.827c0-4.2896-3.4737-7.7633-7.7633-7.7633h-291.23c-4.2896 0-7.7633 3.4737-7.7633 7.7633v56.116c-0.0933-3.194 2.4012-5.8983 5.5952-6.0615z" fill="url(#B)" opacity=".4"/>
		<path d="m116.48 108.2c2.448 1.0724 5.0824 1.6552 7.74 1.6552 6.0848 0.13988 9.4186-2.1914 11.866-7.6468l32.662-72.714c-2.1215-0.95585-4.4295-1.492-6.7609-1.562-4.2197-0.09325-9.8616 0.76934-13.429 9.3487l-10.561 24.899-20.749-33.711c-2.2847-0.60615-4.6394-0.93254-6.994-0.97916-7.3437 0-11.424 2.681-15.666 7.2971l-20.166 22.008 16.203 25.505c3.0074 4.6394 6.9474 7.0173 13.358 7.0173 3.194 0.04663 6.3645-0.53621 9.3254-1.7485l-19.537-29.374 13.848-14.664 22.707 35.6zm-42.827-27.487c0 5.3621-2.0982 8.4394-12.589 8.4394-1.2589 0-2.5179-0.09325-3.7535-0.25645v-71.129c0-5.4087 1.8418-11.051 12.403-11.051 1.3289 0 2.6577 0.13988 3.94 0.39633zm-21.635-10.747c0 10.025-6.5511 17.299-19.839 18.744-9.6284 1.0258-23.57-0.18651-30.191-0.93254-0.23313-1.1424-0.37301-2.308-0.39633-3.497 0-8.7192 4.7093-10.724 9.1388-10.724 4.6161 0 11.866 0.81597 17.252 0.81597 5.9449 0 7.74-2.005 7.74-3.94 0-2.4946-2.378-3.5436-6.994-4.4296l-12.636-2.4246c-10.491-2.005-16.086-9.2554-16.086-16.949 0-9.3487 6.621-17.159 19.653-18.604 9.8616-1.0724 21.868 0.13988 28.442 0.93254 0.23313 1.0958 0.3497 2.2147 0.3497 3.3571 0 8.7192-4.6161 10.608-9.0456 10.608-3.4038 0-8.6959-0.62946-14.734-0.62946-6.1314 0-8.6959 1.7019-8.6959 3.7535 0 2.1914 2.4246 3.0774 6.2713 3.7535l12.053 2.2381c12.379 2.2614 17.719 9.3021 17.719 17.928z" fill="url(#C)"/>
		<path d="m168.76 29.492-11.959 26.624c-0.93253 1.9117-2.8675 3.124-4.989 3.124l-10.911 0.37302c-1.189 0.06994-2.2381 0.8626-2.6577 1.9816v-0.02331l10.304-24.293c3.5902-8.5794 9.2321-9.4419 13.429-9.3487 2.3546 0.06994 4.6394 0.60615 6.7842 1.562zm-31.334 31.823-20.189-32.825c-2.2847-0.60615-4.6394-0.93254-6.994-0.97916-7.3437 0-11.424 2.681-15.666 7.2971l-20.166 22.008 1.6086 2.5412c1.0491 1.5853 2.8675 2.4946 4.7792 2.4013l11.493-0.39633a5.7514 5.7514 0 0 1 5.0823 2.2847l-3.6135-5.432 13.848-14.664 9.3021 14.571c1.1424 1.4454 2.9141 2.2614 4.7559 2.2147l13.218-0.46627c1.0258 0 2.005 0.55952 2.5412 1.4454zm-67.725-54.577c-10.561 0-12.403 5.6418-12.403 11.051v48.725c0-2.2381 1.7952-4.0565 4.0332-4.1265l8.183-0.27976c2.2847 0 4.1498-1.8651 4.1498-4.1498v-50.823c-1.3289-0.27976-2.6344-0.41964-3.9633-0.39633zm-35.389 45.275-12.053-2.2381c-3.8467-0.67609-6.2713-1.562-6.2713-3.7535 0-2.0516 2.5645-3.7535 8.6959-3.7535 6.0382 0 11.331 0.62946 14.734 0.62946 4.4296 0 9.0456-1.8884 9.0456-10.608 0-1.1191-0.11657-2.2614-0.3497-3.3571-6.5744-0.81597-18.58-2.005-28.442-0.93254-13.056 1.4454-19.677 9.2788-19.677 18.604 0.023313 4.989 2.3779 9.6983 6.3645 12.705 2.9374 1.8185 6.248 3.0074 9.675 3.4504 4.4762 0.60615 8.9756 0.83928 13.475 0.6994l14.385-0.5129c5.3854-0.18651 8.3228 4.4062 8.0198 9.0222 0-0.06994 0-0.11657 0.02331-0.18651v-0.04664c0.04664-0.60615 0.06994-1.2123 0.06994-1.8185 0-8.5794-5.3388-15.62-17.695-17.905z" fill="url(#D)" opacity=".25"/>
		<path d="m208.52 83.765c-0.6994-4.8025 0.79265-7.3204 3.5436-7.3204 2.6111 0 9.0222 2.8675 17.952 2.8675 9.3953 0 12.938-3.3338 12.938-7.6701 0-3.0774-1.3755-5.8284-9.8382-8.1364l-9.7216-2.6111c-10.747-2.8675-14.991-8.2529-14.991-14.898 0-8.2296 6.5278-15.573 21.286-15.573 6.6443 0 14.898 1.492 19.91 3.4504 0.90923 4.686-0.58282 7.2039-3.4271 7.2039-2.5179 0-8.2296-2.4013-16.366-2.4013-8.6959 0-11.913 2.9608-11.913 6.8541 0 2.7277 1.2589 5.2688 9.0456 7.437l9.9548 2.751c11.12 3.0774 15.573 8.2296 15.573 15.55 0 8.6027-6.6443 16.25-22.66 16.25-7.0872 0.02331-15.923-1.7019-21.285-3.7535m109.85-24.829c0 17.952-12.589 28.606-26.437 28.606-8.2296 0-14.991-3.8934-19-9.372v23.126c0 2.1681-1.2589 3.5436-4.9191 3.5436-1.8418 0-3.5436-0.23313-4.4529-0.44295v-72.924c0.90922-0.23313 2.6111-0.46627 4.4529-0.46627 3.6602 0 4.9191 1.3755 4.9191 3.5436v5.2455c4.0099-5.4786 10.771-9.372 19-9.372 13.848 0 26.437 10.654 26.437 28.513m-9.4886 0c0-12.006-7.9965-20.259-18.767-20.259-7.3204 0-14.081 4.243-17.159 10.421v19.793c3.0773 6.178 9.8382 10.421 17.159 10.421 10.747-0.02331 18.767-8.2529 18.767-20.376m18.278 0c0-16.366 12.006-28.489 28.14-28.489 16.25 0 28.256 12.123 28.256 28.489 0 16.25-12.006 28.606-28.256 28.606-16.132-0.023307-28.14-12.379-28.14-28.606m46.907 0c0-12.589-8.486-20.259-18.767-20.259-10.165 0-18.651 7.6701-18.651 20.259 0 12.472 8.486 20.352 18.651 20.352 10.281 0 18.767-7.88 18.767-20.352m54.857-23.36c0 3.7768-1.5853 4.5694-5.502 4.5694-7.88 0-14.525 3.6602-18.651 12.239v31.03c0 2.2847-1.259 3.5436-5.0356 3.5436-1.6086 0-3.4504-0.23314-4.3596-0.44296v-55.066c0.90922-0.23313 2.7277-0.44295 4.3596-0.44295 3.7534 0 5.0356 1.3755 5.0356 3.5436v7.6701c5.3621-8.1364 13.498-12.239 23.686-10.864 0.11655 0.79266 0.46626 2.5179 0.46626 4.2197m41.149 48.189c-4.8026 2.2847-10.304 3.7768-15.783 3.7768-10.864 0-17.392-6.4111-17.392-17.042v-47.256c0-2.4013 1.3755-4.0099 5.0356-4.0099 1.5853 0 3.4271 0.32639 4.3596 0.58284v11.89h21.379c0.11658 0.79266 0.34971 2.4013 0.34971 3.7768 0 3.3105-1.3755 4.4529-3.4271 4.4529h-18.301v29.887c0 6.3878 2.9608 9.4885 9.0222 9.4885 5.5019 0 8.5794-2.4013 11.214-2.4013 2.751-0.02331 4.1265 2.2614 3.5436 6.8541" fill="#fff"/>
	</g>
</svg>
