<?xml version="1.0" encoding="UTF-8"?>
<svg width="800" height="114.2" version="1.1" xmlns="http://www.w3.org/2000/svg">
	<defs>
		<linearGradient id="A" x1="1456.7" x2="1456.7" y2="500" gradientTransform="matrix(.22841 0 0 .22841 .016024 .0003462)" gradientUnits="userSpaceOnUse">
			<stop stop-color="red" offset=".4"/>
			<stop stop-color="#d42321" offset="1"/>
		</linearGradient>
		<linearGradient id="B" x1="1459.5" x2="1450.8" y1="233.73" y2="-15.325" gradientTransform="matrix(.22841 0 0 .22841 .016024 .0003462)" gradientUnits="userSpaceOnUse">
			<stop stop-color="#fff" offset="0"/>
			<stop stop-color="#fff" stop-opacity=".835" offset=".12"/>
			<stop stop-color="#fff" stop-opacity=".658" offset=".269"/>
			<stop stop-color="#fff" stop-opacity=".511" offset=".42"/>
			<stop stop-color="#fff" stop-opacity=".397" offset=".568"/>
			<stop stop-color="#fff" stop-opacity=".315" offset=".716"/>
			<stop stop-color="#fff" stop-opacity=".266" offset=".86"/>
			<stop stop-color="#fff" stop-opacity=".25" offset="1"/>
		</linearGradient>
		<linearGradient id="C" x1="361.92" x2="361.92" y1="28.806" y2="471.22" gradientTransform="matrix(.22841 0 0 .22841 .016024 .0003462)" gradientUnits="userSpaceOnUse">
			<stop stop-color="#cbcbcb" offset="0"/>
			<stop stop-color="#d4d4d4" offset=".8"/>
		</linearGradient>
		<linearGradient id="D" x1="365.45" x2="359.6" y1="263.25" y2="95.751" gradientTransform="matrix(.22841 0 0 .22841 .016024 .0003462)" gradientUnits="userSpaceOnUse">
			<stop stop-color="#fff" offset="0"/>
			<stop stop-color="#fff" stop-opacity=".835" offset=".12"/>
			<stop stop-color="#fff" stop-opacity=".658" offset=".269"/>
			<stop stop-color="#fff" stop-opacity=".511" offset=".42"/>
			<stop stop-color="#fff" stop-opacity=".397" offset=".568"/>
			<stop stop-color="#fff" stop-opacity=".315" offset=".716"/>
			<stop stop-color="#fff" stop-opacity=".266" offset=".86"/>
			<stop stop-color="#fff" stop-opacity=".25" offset="1"/>
		</linearGradient>
	</defs>
	<path d="m475.38 0.0012697v114.2h317.02c4.2025 0 7.6047-3.4021 7.6047-7.6046v-98.987c0.0228-4.2025-3.3793-7.6061-7.6047-7.6061z" fill="#cbcbcb"/>
	<path d="m475.38 2.2849v109.63h317.02c2.9406 4e-3 5.3256-2.3803 5.321-5.321v-98.987c0-2.9234-2.3747-5.3225-5.321-5.3225z" fill="#fff"/>
	<g fill="#002a91">
		<path d="m691.72 33.818c-1.5816 0-2.6929 0.32932-3.3355 0.98978-0.59308 0.61324-0.88984 1.3917-0.88984 2.3351v42.881c0.39539 0.09433 0.96417 0.16469 1.7055 0.21188 0.79076 0.09434 1.5806 0.14073 2.3715 0.14073 1.5816 0 2.6697-0.30536 3.2628-0.91859 0.64251-0.66041 0.96398-1.4629 0.96398-2.4062v-16.699h22.537v19.672c0.39538 0.09433 0.98893 0.16469 1.7797 0.21188 0.79076 0.09434 1.5806 0.14073 2.3715 0.14073 1.5816 0 2.6697-0.30536 3.2628-0.91859 0.64252-0.66041 0.96248-1.4629 0.96248-2.4062v-42.88c-0.3954-0.09435-0.98743-0.16622-1.7782-0.21338-0.79078-0.09435-1.5822-0.14074-2.3729-0.14074-1.5816 0-2.6929 0.32931-3.3355 0.98978-0.59309 0.61324-0.88984 1.3917-0.88984 2.3351v16.346h-22.537v-19.317c-0.39539-0.09435-0.98893-0.16622-1.7797-0.21338-0.74136-0.09435-1.508-0.14074-2.2988-0.14074zm48.782 0.14074c-1.8286 0-3.0142 0.35479-3.5579 1.0623-0.49422 0.66041-0.74154 1.5331-0.74154 2.6181v38.635c0 1.085 0.24732 1.9801 0.74154 2.6877 0.54368 0.66041 1.7292 0.99128 3.5579 0.99128h9.9354c4.1021 0 7.7593-0.61376 10.972-1.8402 3.2621-1.2264 6.0288-2.8776 8.3021-4.9532 2.2735-2.1228 4.0046-4.5987 5.1909-7.429s1.7782-5.8737 1.7782-9.1284c0-3.4436-0.61674-6.5558-1.8523-9.3388-1.1862-2.7831-2.9173-5.1664-5.1909-7.1476-2.2241-1.9812-4.9414-3.4902-8.1538-4.528-3.2126-1.085-6.8202-1.6284-10.824-1.6284zm4.0043 7.2187h6.4484c2.3724 0 4.5966 0.32932 6.6724 0.98978 2.0758 0.66041 3.8812 1.6515 5.4132 2.9722 1.5322 1.2736 2.7424 2.8769 3.6321 4.8109 0.88964 1.887 1.3348 4.0575 1.3348 6.5104 0 2.7359-0.44514 5.1176-1.3348 7.1461-0.88966 2.0285-2.0999 3.7274-3.6321 5.0955-1.532 1.3208-3.3374 2.3343-5.4132 3.0419-2.0264 0.66041-4.2012 0.99128-6.524 0.99128h-6.5967z"/>
		<path d="m662.35 100q-1.176 0-2.6289-0.70418v-81.886q0-1.1066 0.48426-2.1125 0.48425-1.1066 1.9371-1.1066 1.1761 0 2.6289 0.70419v81.886q0 1.1066-0.48427 2.1125-0.48427 1.1066-1.9371 1.1066z"/>
		<path d="m585.47 18.772c-2.8366 0-5.0556 2.2207-5.0556 5.0573 0 2.4666 2.3424 4.9323 5.0556 5.0556 2.9599 0 5.1803-2.4656 5.1803-5.0556 0-2.9599-2.3436-5.0573-5.1803-5.0573zm58.333 7.5236c-0.4933 0.24667-0.86317 0.37122-1.2332 0.74121-6.9066 3.083-11.715 8.6322-16.895 13.935-0.24668 0.24666-0.36993 0.36992-0.61659 0.61658l0.12298 0.12463c-0.49328 0.12325-0.74017 0.73888-1.1102 0.98555l0.12299 0.12299-0.12299 0.12463c-0.74002 0.24667-1.2338 0.98547-1.6038 1.6021-1.9733 1.7266-3.4533 3.9465-5.3033 5.9198h-0.24597c-1.2333-1.48-2.4672-2.7128-3.3305-4.3161l-0.12299 0.12299s-0.12265-0.24564-0.24598-0.36896l0.12299-0.12463c-1.6033-1.85-2.8368-3.9462-4.0701-6.0428-1.11-1.85-2.3429-3.5766-3.6995-5.3033-0.12333-0.24667-0.49456-0.24728-0.74122-0.3706-0.24666 0.24666-0.49291 0.49359-0.73957 0.49359-0.12333 0.12333-0.36966 0.37026-0.12299 0.49359-0.73996 0.12334-0.98744 0.98746-1.4808 1.4808-0.12332 0.24666-0.49264 0.36992-0.24597 0.61658-0.36993 0.12334-1.1095 0.6165-1.3562 1.2332-0.49332 0.86328-0.49462 1.849-0.12462 2.7123 0.12333 1e-6 0.12462 0.12463 0.12462 0.12463 1.3566 2.22 2.7122 4.6854 3.9455 6.9054-0.12334-0.37-0.36964-0.4929-0.12299-0.73957 0.9867 1.7266 2.0969 2.96 2.8369 4.6867 0.61663 0.49335 0.61616 1.4801 1.3562 1.7268 0.24667 0.98662 1.2334 1.8503 1.7268 2.8369l-0.12299-0.74121c0-0.12334 0.12264-0.24632 0.24597-0.12299 0.12332 0.49326 0.61727 0.98616 0.37061 1.3562l-0.12299-0.12299c0 0.12333-3.4e-4 0.12428 0.12299 0.24762 0.12334 0 0.12266-0.0013 0.24598-0.12463 0.12333 0.36993-0.1223 0.86481-0.36897 1.2348-3.3297 4.193-5.7965 9.0019-8.8798 13.442-0.37 1.2333-1.3574 1.9733-2.0974 2.9599-0.24667 0.37001-0.49326 0.73984-0.61659 1.2332l0.12463 0.12299-0.24761 0.24762c0.12333-0.12334 0.12428-3.4e-4 0.24761 0.12299 0.12334 0.12333-2e-3 0.12429-0.12463 0.24762l-0.12298-0.12463c-0.12332 0.36996-0.24598 0.86351-0.24598 1.1102-0.24667 0.12337-0.49455 0.61753-0.74121 0.8642-0.49332 0.37001 0.12401 0.86283-0.24598 1.3562 0.61665 0.12337 0.73949 0.86256 1.3562 0.86256 0.36993 0.24667 1.1098 9.24e-4 1.2332 0.24762 0.12334 0 0.24728 0.24667 0.37061 0l0.12299 0.12299c1.11 0 2.0976-0.98638 2.591-1.8497 1.6033-1.11 2.7128-2.5901 3.6995-4.0701 1.3566-2.2199 2.4671-4.5628 3.9471-6.6594 0.24668-0.49335 0.73958-0.98746 0.73958-1.4808-0.12334-0.12334-3.3e-4 -0.12265 0.12299-0.24598l0.12298 0.12299c0.12333-0.24671 0.24659-0.61589 0.61659-0.86256 0.12333-0.4933 0.49394-0.86481 0.3706-1.2348 0.24666-0.37004 0.86324-0.36924 0.61659-0.86256 0.36998 0 0.49289-0.61753 0.73957-0.8642l0.3706 0.49359 0.12299-0.12299c0.49327 0.24668 1.2341 0.74079 1.4808 1.4808-0.1233-0.49326-0.61754-0.9878-0.8642-1.3578 0-0.24667-0.24598-0.4929-0.24598-0.73957 0.24663 0.37001 0.61556 0.86283 0.98555 1.3562 0.98661 1.48 2.3446 2.2212 3.0846 3.7011 0.86328 1.7266 1.603 3.453 3.0829 4.8097 0.49335 0.74002 1.1101 1.6033 1.7268 2.3433l-0.12299 0.12299c-0.24666-0.24667-0.49454-0.61624-0.74121-0.73957l-0.12299 0.12299c0.61668 1.11 1.2328 1.8503 1.9727 2.8369 0 0.12334 0.12463 0.12265 0.12463 0.24598 0.24668 0.36996 0.86352 0.61719 1.1102 0.98719l0.24598 0.49359-0.12299-0.74121c0.24665 0.49332 0.1223-0.3687 0.36896 0.12463 0.49331 0.98662 0.61653 1.9719 1.2332 2.8353 0.37001 0.86336 1.2347 1.3574 1.8514 2.0974 0 0.74002 1.1098 0.98639 1.2332 1.8497 0.74003-0.36999 1.3561 0.7393 1.9727 0.24598 0.73997 0.24667 0.73985-0.49264 1.2332-0.24598 0.24667 0 0.74026 0.12402 0.4936-0.24598l0.24597 0.12298c0.37-0.12329 0.1243-0.4942 0.24762-0.86419h0.12299c0.12334-0.49327 0.24598-0.98616 0.24598-1.3562 0-0.61669 6.8e-4 -1.2331-0.24598-1.8497 0 0-0.12299 3.4e-4 -0.12299-0.12299 0 0-0.12299-0.12429-0.12299-0.24762-0.24667-0.61669-0.86352-1.7261-1.1102-1.9727 0-0.12334-0.12462-0.12265-0.12462-0.24598 0 0 6.8e-4 -0.37121-0.24598-0.74121 0 0-0.12264-0.12265-0.24597-0.24598-0.36996-0.6166-0.98753-1.2341-0.8642-1.4808 0.36995-0.24667-0.36958-0.98582-0.73958-1.4791-0.12332-0.12333-0.24727-0.24728-0.3706-0.37061-0.24666-0.2467-0.4929-0.61589-0.73957-0.86256-0.61668-0.98662-1.3568-1.7273-1.7268-2.7139-0.73994-1.85-2.0966-2.96-2.9599-4.6867-0.37001-0.86328-0.86377-2.3426-1.6038-3.2059-0.49335-0.74002-1.2321-1.2344-1.6021-1.9744-0.12334-0.24667-0.12395-0.4929-0.37061-0.73957l-0.24598-1.1102c-0.12333-0.24667-0.24727-0.4929-0.37061-0.73957 0-0.12333-0.12298-0.12265-0.12298-0.24598-0.12334-0.24666-0.12299-0.24694-0.12299-0.49359h-0.12463c-0.12334-0.12333-0.12265-0.24727-0.24598-0.3706-0.24667-0.37004-0.36992-0.49256-0.61658-0.86256 0 0-6.8e-4 -0.12333 0.24598 0l-0.73957-0.98719s-0.12299-0.24632-0.12299-0.12299c-0.12332-0.24666-0.24761-0.36992-0.24761-0.61658 0.61668-1.48 1.9733-2.2208 2.3433-3.8241-0.12333 0.24671-0.4929 0.4942-0.73957 0.8642l-0.12299-0.12299c0-0.12334-3.3e-4 -0.12429 0.12299-0.24762l-0.12299-0.12299c0.24668-1.3566 1.4794-2.0972 1.9727-3.3305-0.36996 0.4933-0.74018 0.73984-1.1102 1.2332l-0.12298-0.12299c0.86336-0.98661 1.1111-1.9733 1.9744-2.9599 0.95568-0.47784 1.1073-1.7578 2.0121-2.1744-0.049-0.0034-0.0769-0.08346-0.16234-0.1689-0.12334-0.12334-3.4e-4 -0.12265 0.12298-0.24598 0 0.12333 0.12265 0.12299 0.24598 0.12299l-0.24598-0.24598c-0.12332-0.12334-3.4e-4 -0.12429 0.12299-0.24762l0.24762 0.24762c0.36999-0.24667-0.24735-0.49325 0.24598-0.61658 0.12332 0 0.12298 0.36966 0.12298 0.12299l0.24762-0.24762-0.12463-0.12299s0.12429-0.12265 0.24762-0.24598l0.12299 0.12299c0-0.12333 3.4e-4 -0.12264-0.12299-0.24598l0.12299-0.12463c0.12333-0.12333 0.12427 0.0013 0.24761 0.12463 0.12333-0.24667 0.86194-0.24789 0.49196-0.74121 0.12332-0.12334 0.12428-0.24598 0.24761-0.24598h0.123l-0.123-0.12299 0.24598-0.24762c0.12333 0 0.24631 0.12429 0.12299 0.24762 0.24671-0.49329 0.49387-0.74018 0.98719-1.1102l-0.12299-0.12299c0.37-0.24659 0.49325-0.74018 0.61658-1.1102 1.48-1.48 2.9594-3.2074 4.3161-4.4407l-0.12298-0.12299 0.49359-0.3706c0.12332 0 0.24666-0.12265 0-0.24598 1.11-0.86328 1.973-1.974 3.0829-2.7139 0.24665-0.12333 0.1236-0.61563 0.49359-0.36896 0.98661-0.74002 2.096-1.3564 3.2059-1.8497 0.74002-0.74002 1.8494-1.9734 1.9727-1.7268-0.24666-0.12333 0-0.12394 0-0.37061zm-17.473 17.435c0.0217 0.0015 0.0458-0.0081 0.0836-0.04592-0.031 0.01163-0.0542 0.03239-0.0836 0.04592zm-71.487-10.037c-0.31-0.0071-0.62466-6e-3 -0.94455 0.0017-6.9066 0-11.718 3.5763-14.924 8.3862-2.4667-5.3033-7.2752-8.3862-13.442-8.3862-5.6728 0-10.361 2.8358-13.32 6.7824v-3.2059c0-1.9733-1.1102-3.2059-4.0701-3.2059-1.6033 0-3.0825 0.1223-3.8225 0.36896v46.621c0.86336 0.12333 2.3429 0.36897 3.6995 0.36897 3.2066 0 4.3161-0.98661 4.3161-2.9599v-30.585c1.7262-3.7 5.9202-7.2776 11.1-7.2776 6.1667 0 9.3734 3.9479 9.3734 10.731v29.599c0.86336 0.12333 2.3429 0.36896 3.6995 0.36896 3.2067 0 4.3177-0.98661 4.3177-2.9599v-30.585c1.7262-3.7 5.9186-7.2776 11.098-7.2776 6.1667 0 9.3734 3.9479 9.3734 10.731v29.599c0.86337 0.12333 2.3445 0.36896 3.7011 0.36896 3.2066 0 4.3161-0.98661 4.3161-2.9599v-27.997c0-9.0805-4.8614-16.309-14.472-16.528zm30.996 0.24926c-3.2067 0-4.3177 1.1099-4.3177 2.9599v44.028c0.74003 0.12334 2.3445 0.37094 3.7011 0.24762 3.2066 0 4.1931-0.98661 4.1931-2.9599v-43.907c-0.74002-0.12333-2.2199-0.36897-3.5765-0.36897z"/>
	</g>
	<g>
		<path d="m190.05 3.462e-4h285.32c4.2025 0 7.6056 3.4031 7.6056 7.6056v98.989c0 4.2025-3.4032 7.6056-7.6056 7.6056h-285.32c-4.2025 0-7.6056-3.4031-7.6056-7.6056v-98.989c0-4.2025 3.4032-7.6056 7.6056-7.6056z" fill="url(#A)"/>
		<path d="m187.93 56.642 0.73086-0.04568 288.64-10.073c3.1747-0.02285 5.71-2.6266 5.6871-5.7785v-33.14c0-4.2025-3.4032-7.6056-7.6056-7.6056h-285.32c-4.2025 0-7.6056 3.4031-7.6056 7.6056v54.976c-0.0914-3.1291 2.3526-5.7785 5.4815-5.9383z" fill="url(#B)" opacity=".4"/>
		<path d="m114.11 106c2.3982 1.0506 4.9791 1.6217 7.5827 1.6217 5.9612 0.13703 9.2272-2.147 11.626-7.4913l31.998-71.236c-2.0785-0.93649-4.3396-1.4617-6.6235-1.5303-4.1339-0.09136-9.6613 0.75369-13.156 9.1584l-10.346 24.393-20.328-33.027c-2.2384-0.59382-4.5451-0.91357-6.8519-0.95933-7.1944 0-11.191 2.6266-15.349 7.1488l-19.756 21.562 15.874 24.987c2.9464 4.5451 6.8061 6.8747 13.087 6.8747 3.129 0.04568 6.2353-0.52531 9.1357-1.713l-19.14-28.779 13.567-14.366 22.245 34.876zm-41.957-26.929c0 5.2531-2.0556 8.268-12.334 8.268-1.2334 0-2.4667-0.09136-3.6771-0.25124v-69.683c0-5.2988 1.8043-10.826 12.151-10.826 1.3019 0 2.6039 0.13704 3.8599 0.38827zm-21.195-10.529c0 9.8217-6.418 16.947-19.437 18.364-9.4329 1.0049-23.092-0.18272-29.577-0.91357-0.2284-1.1191-0.36544-2.2612-0.38827-3.4259 0-8.5421 4.6136-10.506 8.9535-10.506 4.5223 0 11.626 0.79938 16.902 0.79938 5.8241 0 7.5827-1.9642 7.5827-3.8599 0-2.4439-2.3297-3.4716-6.8519-4.3396l-12.379-2.3754c-10.278-1.9642-15.759-9.0669-15.759-16.604 0-9.1584 6.4864-16.81 19.255-18.226 9.6613-1.0506 21.424 0.13704 27.866 0.91357 0.2284 1.0734 0.34259 2.1698 0.34259 3.289 0 8.5421-4.5223 10.393-8.862 10.393-3.3346 0-8.5194-0.61667-14.435-0.61667-6.0068 0-8.5194 1.6673-8.5194 3.6771 0 2.147 2.3754 3.0148 6.1439 3.6771l11.809 2.1926c12.128 2.2155 17.358 9.113 17.358 17.564z" fill="url(#C)"/>
		<path d="m165.34 28.893-11.717 26.082c-0.91357 1.8728-2.8094 3.0606-4.8877 3.0606l-10.69 0.36544c-1.1649 0.06852-2.1927 0.84506-2.6038 1.9414v-0.02284l10.095-23.799c3.5173-8.4052 9.0442-9.2499 13.156-9.1584 2.3068 0.06853 4.5451 0.59383 6.6463 1.5303zm-30.697 31.176-19.778-32.159c-2.2384-0.59382-4.5451-0.91357-6.8519-0.95933-7.1944 0-11.191 2.6266-15.349 7.1488l-19.756 21.562 1.5759 2.4896c1.0278 1.5531 2.8094 2.4439 4.6821 2.3526l11.26-0.38827a5.6345 5.6345 0 0 1 4.979 2.2383l-3.5401-5.3216 13.567-14.366 9.113 14.276c1.1191 1.416 2.855 2.2155 4.6593 2.1698l12.951-0.4568c1.005 0 1.9642 0.54816 2.4896 1.4161zm-66.349-53.467c-10.346 0-12.151 5.5272-12.151 10.826v47.736c0-2.1926 1.7587-3.9742 3.9512-4.0427l8.0167-0.27409c2.2383 0 4.0654-1.8272 4.0654-4.0654v-49.79c-1.3019-0.27409-2.5809-0.41112-3.8827-0.38827zm-34.67 44.354-11.809-2.1926c-3.7685-0.66235-6.1439-1.5303-6.1439-3.6771 0-2.0099 2.5124-3.6771 8.5194-3.6771 5.9155 0 11.1 0.61667 14.435 0.61667 4.3396 0 8.862-1.8501 8.862-10.393 0-1.0964-0.11419-2.2155-0.34259-3.2889-6.4407-0.79938-18.203-1.9642-27.866-0.91357-12.79 1.4161-19.277 9.0904-19.277 18.226 0.022841 4.8877 2.3297 9.5018 6.2353 12.448 2.8779 1.7815 6.121 2.9464 9.4783 3.3802 4.3852 0.59382 8.7931 0.82223 13.202 0.68519l14.093-0.50248c5.2759-0.18272 8.1537 4.3167 7.8567 8.8393 0-0.06852 0-0.1142 0.02284-0.18272v-0.04568c0.04568-0.59383 0.06852-1.1876 0.06852-1.7815 0-8.4052-5.2303-15.303-17.335-17.541z" fill="url(#D)" opacity=".25"/>
		<path d="m204.29 82.063c-0.68518-4.705 0.77656-7.1715 3.4717-7.1715 2.5581 0 8.8385 2.8094 17.587 2.8094 9.2045 0 12.676-3.266 12.676-7.5142 0-3.0148-1.3476-5.71-9.6378-7.971l-9.5244-2.5581c-10.529-2.8094-14.686-8.0852-14.686-14.595 0-8.0624 6.3951-15.256 20.853-15.256 6.5093 0 14.595 1.4617 19.506 3.3801 0.89073 4.5908-0.571 7.0574-3.3574 7.0574-2.4667 0-8.0624-2.3526-16.034-2.3526-8.5194 0-11.671 2.9007-11.671 6.7148 0 2.6724 1.2334 5.1618 8.862 7.2858l9.7528 2.6951c10.895 3.0148 15.256 8.0624 15.256 15.235 0 8.4279-6.5093 15.919-22.201 15.919-6.9432 0.02284-15.6-1.6673-20.853-3.6771m107.61-24.324c0 17.587-12.334 28.024-25.9 28.024-8.0624 0-14.686-3.8142-18.615-9.181v22.657c0 2.1241-1.2334 3.4716-4.8191 3.4716-1.8043 0-3.4716-0.22839-4.3623-0.43395v-71.442c0.89073-0.2284 2.5581-0.4568 4.3623-0.4568 3.5858 0 4.8191 1.3475 4.8191 3.4716v5.1389c3.9284-5.3673 10.552-9.181 18.615-9.181 13.567 0 25.9 10.439 25.9 27.934m-9.2961 0c0-11.763-7.834-19.848-18.386-19.848-7.1715 0-13.795 4.1568-16.81 10.21v19.391c3.0148 6.0525 9.6378 10.21 16.81 10.21 10.529-0.02284 18.386-8.0852 18.386-19.962m17.907 0c0-16.034 11.763-27.91 27.568-27.91 15.919 0 27.682 11.876 27.682 27.91 0 15.919-11.763 28.024-27.682 28.024-15.805-0.02284-27.568-12.128-27.568-28.024m45.953 0c0-12.334-8.3136-19.848-18.386-19.848-9.9585 0-18.272 7.5142-18.272 19.848 0 12.22 8.3136 19.94 18.272 19.94 10.073 0 18.386-7.7197 18.386-19.94m53.742-22.887c0 3.7-1.5531 4.4766-5.3901 4.4766-7.7197 0-14.23 3.5859-18.272 11.991v30.4c0 2.2383-1.2334 3.4716-4.9334 3.4716-1.5759 0-3.3802-0.2284-4.271-0.43396v-53.948c0.89073-0.2284 2.6724-0.43396 4.271-0.43396 3.6771 0 4.9334 1.3475 4.9334 3.4716v7.5142c5.2531-7.971 13.225-11.991 23.206-10.644 0.1142 0.77655 0.45678 2.4667 0.45678 4.1339m40.311 47.21c-4.705 2.2383-10.095 3.7-15.463 3.7-10.644 0-17.039-6.281-17.039-16.696v-46.296c0-2.3526 1.3476-3.9284 4.9334-3.9284 1.5531 0 3.3575 0.31975 4.271 0.57099v11.649h20.945c0.11421 0.77655 0.3426 2.3526 0.3426 3.7 0 3.2432-1.3475 4.3623-3.3575 4.3623h-17.93v29.28c0 6.258 2.9007 9.2961 8.8385 9.2961 5.3902 0 8.4052-2.3526 10.985-2.3526 2.6951-0.02284 4.0427 2.2155 3.4716 6.7148" fill="#fff"/>
	</g>
</svg>
