<?xml version="1.0" encoding="UTF-8"?>
<svg width="800" height="244.15" version="1.1" xmlns="http://www.w3.org/2000/svg" xmlns:xlink="http://www.w3.org/1999/xlink">
	<defs>
		<linearGradient id="linearGradient8801" x1="414.37" x2="1244.6" y1="289.84" y2="289.84" gradientTransform="matrix(.65067 0 0 .65067 -9.825 -107.29)" gradientUnits="userSpaceOnUse">
			<stop stop-color="#ff0031" offset="0"/>
			<stop stop-color="#9b001f" offset="1"/>
		</linearGradient>
		<linearGradient id="linearGradient8803" x1="197.48" x2="194.59" y1="295.14" y2="212.24" gradientTransform="matrix(.65067 0 0 .65067 -9.825 -107.29)" gradientUnits="userSpaceOnUse">
			<stop stop-color="#fff" offset="0"/>
			<stop stop-color="#fff" stop-opacity=".25" offset=".515"/>
		</linearGradient>
		<linearGradient id="linearGradient8805" x1="830.55" x2="826.25" y1="276.73" y2="153.47" gradientTransform="matrix(.65067 0 0 .65067 -9.825 -107.29)" gradientUnits="userSpaceOnUse">
			<stop stop-color="#fff" offset="0"/>
			<stop stop-color="#fff" stop-opacity=".25" offset=".515"/>
		</linearGradient>
	</defs>
	<path d="m72.615 97.476c0 13.989-9.11 24.14-27.72 26.157-13.403 1.431-32.858-0.26-42.097-1.301-0.326-1.497-0.586-3.384-0.586-4.88 0-12.168 6.572-14.965 12.753-14.965 6.442 0 16.592 1.106 24.075 1.106 8.329 0 10.801-2.798 10.801-5.466 0-3.513-3.318-4.945-9.76-6.181l-17.633-3.384c-14.64-2.798-22.448-12.882-22.448-23.619 0-13.013 9.24-23.945 27.458-25.962 13.729-1.496 30.516 0.196 39.691 1.302 0.325 1.561 0.52 3.058 0.52 4.684 0 12.168-6.441 14.77-12.622 14.77-4.75 0-12.102-0.845-20.561-0.845-8.59 0-12.102 2.342-12.102 5.205 0 3.058 3.383 4.294 8.719 5.27l16.787 3.124c17.308 3.188 24.725 12.948 24.725 24.986m30.126 14.965c0 7.482-2.928 11.777-17.568 11.777-1.952 0-3.644-0.13-5.27-0.38999v-99.099c0-7.548 2.537-15.42 17.307-15.42 1.887 0 3.774 0.194 5.53 0.585zm59.797 38.39c1.952 0.976 5.856 2.212 10.8 2.277 8.524 0.195 13.145-3.058 16.593-10.671l45.547-101.31c-1.887-0.976-6.052-2.147-9.435-2.212-5.856-0.13-13.73 1.04-18.74 13.013l-14.834 34.68-28.955-47.043c-1.887-0.586-6.442-1.367-9.76-1.367-10.281 0-15.941 3.774-21.863 10.15l-28.11 30.712 22.644 35.592c4.164 6.507 9.695 9.825 18.609 9.825 5.856 0 10.736-1.366 13.013-2.407l-27.263-40.992 19.325-20.496 31.688 49.646z" fill="#ff0031"/>
	<path d="m270.55 5e-3c-5.986 0-10.866 4.88-10.866 10.866v140.87c0 5.986 4.88 10.866 10.866 10.866h518.58c5.986 0 10.866-4.88 10.866-10.866v-140.94c-0.065-5.986-4.88-10.801-10.866-10.801" fill="url(#linearGradient8801)"/>
	<path d="m79.967 24.73v67.995c0-2.733 2.082-5.596 5.596-5.726l11.452-0.39c2.277-0.065 5.726-1.627 5.79-5.791v-70.923a25.724 25.724 0 0 0-5.53-0.586c-14.77 0.065-17.308 7.873-17.308 15.421m52.054 23.684-28.109 30.712 2.277 3.514c0.977 1.301 2.863 3.513 6.637 3.383l16.007-0.585c3.514-0.13 5.726 1.366 7.093 3.188l-5.01-7.548 19.324-20.496 12.948 20.366c2.343 3.058 5.856 3.123 6.637 3.123 0.65 0 17.698-0.585 18.414-0.65 1.171-0.065 2.538 0.585 3.579 2.082l-28.174-45.808c-1.887-0.586-6.442-1.367-9.76-1.367-10.281-0.065-15.941 3.644-21.863 10.085m-104.56-9.433c-18.22 2.017-27.457 12.883-27.457 25.962 0 6.702 3.058 13.144 8.914 17.763 4.425 2.928 8.98 4.034 13.469 4.815 3.709 0.65 12.363 1.236 18.804 0.976l20.041-0.716c7.548-0.26 11.582 6.181 11.192 12.623v-0.325c0.065-0.84599 0.13-1.692 0.13-2.538 0-12.037-7.417-21.863-24.66-25.051l-16.787-3.123c-5.4-0.911-8.719-2.213-8.719-5.27 0-2.864 3.579-5.271 12.102-5.271 8.459 0 15.811 0.846 20.561 0.846 6.182 0 12.623-2.603 12.623-14.77 0-1.627-0.195-3.123-0.52-4.685-6.572-0.78-17.113-1.887-27.588-1.887-4.1 0.065-8.199 0.26-12.102 0.65m179.72 12.949-14.38 33.9c0-0.065 0.91-2.668 3.708-2.798l15.226-0.52c4.62-0.196 6.442-3.319 6.963-4.36l16.657-37.153c-1.887-0.976-6.052-2.147-9.435-2.212h-0.716c-5.79 0.065-13.209 1.626-18.024 13.144" fill="url(#linearGradient8803)" opacity=".3"/>
	<path d="m270.55 5e-3c-5.986 0-10.866 4.88-10.866 10.866v78.211c0-1.171 0.45499-7.613 7.808-8.329 0 0 349.69-12.288 524.44-18.414 4.1-0.13 8.068-3.188 8.068-8.263v-43.141c0-5.985-4.88-10.865-10.866-10.865z" fill="url(#linearGradient8805)" opacity=".3"/>
	<path d="m377.19 18.42c-4.36 0-8.067 3.382-8.067 8.067 0 4.1 3.642 7.939 8.067 7.939 4.424 0 7.938-3.775 7.938-7.939 0-4.555-3.449-8.067-7.938-8.067zm148.22 24.139c-20.952 0-37.933 16.593-37.933 39.431 0 23.684 16.332 39.821 40.016 39.821 10.93 0 21.212-3.254 27.913-6.247 0.77999-6.897-1.563-9.89-4.752-9.89-1.366 0-3.057 0.651-6.245 1.822-4.88 1.497-9.89 2.992-16.462 2.992-15.291 0-25.701-8.524-27.588-23.295h59.275c0.455-2.863 0.65-5.4 0.716-7.807 0-18.154-11.582-36.827-34.941-36.827zm-196.24 0.064c-21.993 0-38.78 16.852-38.78 39.495 0 22.643 16.787 39.691 38.78 40.016 10.41 0 19.846-2.862 26.548-6.05 0.64999-6.897-1.887-9.76-5.075-9.76-4.425 0-9.435 4.88-21.017 4.88-14.64 0-26.548-11.256-26.548-28.89s11.908-28.564 26.548-28.564c11.582 0 16.527 4.88 21.017 4.88 3.188 0 5.725-2.863 5.075-9.76-6.572-3.384-16.007-6.248-26.548-6.248zm113.22 0c-11.517 0-19.976 5.596-25.507 12.298v-6.57c0-2.864-1.693-4.75-6.573-4.75-2.213 0-4.554 0.519-5.725 0.844v75.935c1.171 0.326 3.512 0.65 5.725 0.65 4.945 0 6.573-1.757 6.573-4.75v-48.735c4.034-7.352 13.794-13.73 22.838-13.73 11.387 0 19.128 7.418 19.128 23.033v43.4c1.236 0.326 3.71 0.652 5.726 0.652 5.01 0 6.572-1.758 6.572-4.751v-40.991c0-22.513-13.077-32.47-28.758-32.534zm168.78 0c-9.37 0-17.114 4.882-21.994 11.453v-5.4c0-3.189-1.627-5.076-6.377-5.076-2.017 0-4.425 0.52-5.726 0.845v75.804c1.041 0.325 3.514 0.651 5.727 0.651 5.01 0 6.57-1.758 6.57-4.751v-50.036c2.864-6.182 10.217-12.43 18.806-12.43 10.28 0 15.487 6.704 15.487 17.96v48.605c1.301 0.325 3.643 0.651 5.855 0.651 5.01 0 6.571-1.758 6.571-4.751v-50.036c2.863-6.181 10.216-12.43 18.805-12.43 10.085 0 15.487 6.704 15.487 17.96v48.605c1.237 0.325 3.708 0.651 5.725 0.651 5.01 0 6.702-1.758 6.702-4.751v-45.872c0-15.161-8.718-27.589-25.115-27.654-11.257 0-19.326 6.183-24.531 13.796-4.034-8.589-11.906-13.796-21.992-13.796zm122.78 0c-10.671 0-22.058 2.538-29.671 5.401-0.781 6.702 1.235 9.891 4.75 9.891 1.235 0 3.058-0.586 5.4-1.236 4.555-1.497 11.257-3.19 19-3.19 14.965 0 18.805 7.028 18.805 18.805v2.084c-33.77-2.213-53.746 5.855-53.746 24.334 0 12.233 9.435 23.164 26.548 23.164 11.387 0 19.975-4.49 27.198-12.103v6.376c0 3.188 2.016 4.815 6.571 4.815 2.212 0 4.425-0.326 5.727-0.651v-48.474c0-18.024-8.264-29.151-30.582-29.216zm-356.37 1.042c-5.14 0-6.702 1.886-6.702 4.75v71.834c1.236 0.326 3.642 0.651 5.724 0.716 5.01 0 6.702-1.756 6.702-4.75v-71.702c-1.236-0.326-3.707-0.847-5.724-0.847zm147.9 9.955c13.729 0 22.123 10.281 22.643 23.36h-47.693c2.017-15.292 12.818-23.49 25.05-23.36zm218.55 29.922c2.624 8e-3 5.326 0.081 8.075 0.203v14.64c-5.856 7.808-14.64 13.08-25.05 13.08-10.216 0-15.941-6.247-15.941-12.949 0-11.899 14.546-15.03 32.916-14.974z" fill="#fff"/>
	<path d="m345.72 179.51c-1.5282 0-2.8436 0.54914-3.9439 1.6494-1.1003 1.1003-1.6495 2.4457-1.6495 4.035 0 1.5282 0.54915 2.8412 1.6495 3.9415s2.4157 1.6519 3.9439 1.6519c1.5893 0 2.9347-0.5516 4.035-1.6519 1.1003-1.1003 1.6495-2.4132 1.6495-3.9415 0-1.5893-0.54914-2.9347-1.6495-4.035-1.1003-1.1003-2.4457-1.6494-4.035-1.6494zm-83.44 1.5584c-1.9561 0-3.3015 0.39687-4.035 1.1916-0.67242 0.79467-1.0094 1.8031-1.0094 3.0256v58.226c0.48901 0.12227 1.1929 0.21464 2.1098 0.27573 0.97805 0.12227 1.9241 0.18218 2.841 0.18218 1.9561 0 3.2715-0.39688 3.9439-1.1916 0.73355-0.79467 1.1005-1.8031 1.1005-3.0256v-26.866c0.91691-1.7727 2.3522-3.2104 4.3083-4.3107 2.0172-1.1614 4.0965-1.7406 6.2359-1.7406 3.1176 0 5.5337 0.94602 7.2453 2.841 1.7116 1.8339 2.5653 4.7068 2.5653 8.619v25.217c0.48903 0.12227 1.1929 0.21464 2.1098 0.27573 0.91694 0.12227 1.833 0.18218 2.7499 0.18218 1.9561 0 3.3015-0.39688 4.035-1.1916 0.73355-0.79467 1.1005-1.8031 1.1005-3.0256v-22.558c0-3.301-0.42683-6.1415-1.2826-8.5255-0.8558-2.384-2.0189-4.3409-3.486-5.8691-1.4671-1.5282-3.1769-2.6589-5.133-3.3925-1.895-0.73354-3.9442-1.1004-6.1448-1.1004-3.301 0-6.1439 0.73383-8.5279 2.2009-2.384 1.406-4.3085 3.1182-5.7756 5.1355v-24.117c-0.48904-0.12227-1.2229-0.21456-2.2009-0.27575-0.91692-0.12226-1.833-0.18217-2.7499-0.18217zm-29.525 2.196c-4.1568 0-8.0081 0.79375-11.554 2.3831-3.5455 1.5282-6.633 3.6673-9.2616 6.4181-2.5674 2.7508-4.5842 5.9906-6.0513 9.7195-1.4671 3.7289-2.2009 7.7325-2.2009 12.012 0 4.4013 0.73382 8.4673 2.2009 12.196 1.4671 3.7289 3.4839 6.9388 6.0513 9.6284 2.6285 2.6897 5.7161 4.7988 9.2616 6.327 3.5455 1.4671 7.3968 2.1984 11.554 2.1984 3.4843 0 6.6019-0.27456 9.3527-0.82471 2.7508-0.61129 5.4091-1.4674 7.9765-2.5678 0.12227-0.48904 0.18464-0.91586 0.18464-1.2826v-1.1916c0-1.9561-0.45926-3.4238-1.3762-4.4018-0.91694-1.0392-2.14-1.5584-3.6682-1.5584-0.67241 0-1.3438 0.12226-2.0163 0.36682-0.67242 0.24451-1.4686 0.51908-2.3856 0.82473-0.91693 0.30564-2.0177 0.58021-3.3014 0.82473-1.2226 0.24452-2.6878 0.36683-4.3994 0.36683-2.6285 0-5.0746-0.4568-7.3364-1.3737-2.2618-0.91693-4.2486-2.2623-5.9602-4.035-1.6505-1.8338-2.9634-4.0354-3.9415-6.6028-0.91694-2.6285-1.3762-5.5938-1.3762-8.8948 0-3.1787 0.45926-6.0516 1.3762-8.619 0.97806-2.6285 2.291-4.86 3.9415-6.6938 1.7116-1.8339 3.6984-3.2391 5.9602-4.2172 2.2618-1.0392 4.7079-1.5584 7.3364-1.5584 1.7116 0 3.2092 0.12227 4.4929 0.36682 1.2837 0.24451 2.3845 0.51908 3.3014 0.82473 0.97807 0.30564 1.8318 0.58022 2.5653 0.82474 0.73352 0.24451 1.4074 0.36681 2.0187 0.36681 1.2837 0 2.352-0.54914 3.2078-1.6495 0.8558-1.1003 1.2851-2.6279 1.2851-4.584 0-0.36678-0.03-0.70373-0.0911-1.0094 0-0.36678-0.0325-0.76366-0.0935-1.1916-2.5674-1.0392-5.2856-1.8654-8.1587-2.4767-2.8119-0.61129-5.7772-0.91582-8.8948-0.91582zm179.72 3.8553c-1.2837 0-2.3221 0.15227-3.1167 0.45791-0.73354 0.30565-1.3151 0.73493-1.743 1.2851-0.36677 0.55016-0.64134 1.1617-0.82473 1.8341-0.12227 0.67242-0.18218 1.3738-0.18218 2.1074v6.327h-3.9439c-0.97807 0-1.8018 0.30701-2.4742 0.91829-0.61129 0.61128-0.91828 1.6796-0.91828 3.2078 0 0.67242 0.03 1.3463 0.0911 2.0187s0.15347 1.2216 0.27573 1.6495h6.9696v21.731c0 2.2618 0.3345 4.341 1.0069 6.236 0.67242 1.8339 1.6509 3.4538 2.9346 4.8597 1.2837 1.3448 2.8437 2.4132 4.6776 3.2078 1.895 0.73354 4.0341 1.1004 6.4181 1.1004 2.6285 0 4.9199-0.30452 6.876-0.9158 2.0172-0.6113 3.9142-1.4375 5.687-2.4766 0.0611-0.30566 0.0911-0.61019 0.0911-0.91583v-1.0094c0-1.7116-0.33695-2.9646-1.0094-3.7593-0.67242-0.79467-1.5885-1.1915-2.7499-1.1915-0.48903 0-1.0082 0.0924-1.5584 0.27573-0.48903 0.18338-1.0406 0.39557-1.6519 0.64008-0.55016 0.24452-1.1916 0.45916-1.9252 0.64256-0.73354 0.18337-1.5597 0.27573-2.4766 0.27573-2.1395 0-3.7594-0.64149-4.8598-1.9252-1.1003-1.2837-1.6495-3.0883-1.6495-5.4112v-21.364h12.103c0.97806 0 1.7743-0.30454 2.3856-0.91583 0.67242-0.61128 1.0069-1.6821 1.0069-3.2103 0-1.5282-0.15226-2.7513-0.45791-3.6682h-15.037v-11.369c-1.1614-0.4279-2.4768-0.64255-3.9439-0.64255zm120.58 11.182c-3.6677 0-6.9999 0.30454-9.9952 0.91582-2.9953 0.55016-5.5014 1.1617-7.5186 1.8341-0.0611 0.30566-0.0911 0.61265-0.0911 0.91828v0.82473c0 1.5894 0.30453 2.9347 0.9158 4.035 0.6113 1.1003 1.5598 1.6495 2.8435 1.6495 0.73355 0 1.4973-0.0924 2.292-0.27573 0.8558-0.24451 1.8018-0.48913 2.841-0.73364 1.1003-0.30565 2.3234-0.55025 3.6682-0.73364 1.3448-0.24452 2.9048-0.36683 4.6776-0.36683 3.4843 0 5.898 0.64394 7.2428 1.9277 1.3448 1.2226 2.0188 3.3317 2.0188 6.327v2.292c-4.0345-0.73355-7.6413-1.1005-10.82-1.1005-3.3621 0-6.2674 0.36691-8.7126 1.1005-2.384 0.73355-4.3709 1.7719-5.9602 3.1167-1.5894 1.2837-2.78 2.8412-3.5746 4.6751-0.73354 1.8339-1.1005 3.8531-1.1005 6.0538 0 1.8339 0.30453 3.5761 0.91581 5.2266 0.67242 1.5893 1.6209 2.9946 2.8435 4.2172 1.2837 1.2226 2.8412 2.201 4.6751 2.9346 1.895 0.67242 4.0366 1.0069 6.4206 1.0069 2.0784 0 3.9105-0.24213 5.4998-0.73117 1.6505-0.4279 3.1181-1.0394 4.4018-1.8341 1.2837-0.79469 2.3844-1.7132 3.3014-2.7524 0.97805-1.1003 1.8342-2.231 2.5677-3.3924h0.0911c0.0611 1.1614 0.15347 2.2622 0.27573 3.3014 0.18339 1.0392 0.48791 1.9552 0.91582 2.7499 0.4279 0.73354 1.0095 1.3451 1.743 1.8341 0.79467 0.42789 1.8031 0.64254 3.0256 0.64254 1.1003 0 2.0488-0.0924 2.8435-0.27573 0.85579-0.18339 1.5572-0.39556 2.1074-0.64009-0.42789-1.4671-0.76485-2.8124-1.0094-4.035-0.24452-1.2837-0.45671-2.5691-0.64008-3.8528-0.12227-1.2837-0.21465-2.659-0.27574-4.1261v-14.579c0-2.9342-0.30453-5.5001-0.91581-7.7008-0.55017-2.2618-1.561-4.1563-3.0281-5.6845-1.406-1.5894-3.3005-2.7824-5.6845-3.5771-2.3229-0.79467-5.2558-1.1916-8.8012-1.1916zm-69.78 5e-3c-2.5674-1e-5 -4.9511 0.70387-7.1518 2.1098-2.2006 1.3448-3.9429 3.0247-5.2266 5.0419l-0.0911-1.1004c0-1.7116-0.42929-3.057-1.2851-4.035-0.79467-1.0392-2.1376-1.5584-4.0326-1.5584-0.8558 0-1.652 0.0924-2.3856 0.27573-0.67242 0.12227-1.3439 0.27451-2.0163 0.45791v44.014c0.48904 0.12226 1.1929 0.21463 2.1098 0.27573 0.97805 0.12226 1.9241 0.18217 2.841 0.18217 1.9561 0 3.2715-0.39687 3.9439-1.1916 0.73355-0.79467 1.1005-1.8031 1.1005-3.0256v-27.142c0.79468-1.5282 1.9554-2.8412 3.4836-3.9415 1.5894-1.1614 3.3615-1.743 5.3177-1.743 2.5674 0 4.5243 0.79375 5.8691 2.3831 1.406 1.5282 2.1074 3.7921 2.1074 6.7874v27.416c0.48901 0.12226 1.1929 0.21463 2.1098 0.27573 0.97806 0.12226 1.9265 0.18217 2.8435 0.18217 1.9561 0 3.269-0.39687 3.9415-1.1916 0.73355-0.79467 1.1005-1.8031 1.1005-3.0256v-27.051c0.79466-1.5893 1.9553-2.9322 3.4836-4.0326 1.5282-1.1614 3.3928-1.743 5.5934-1.743 2.3229 0 4.1874 0.76379 5.5934 2.292 1.406 1.4671 2.1098 3.7609 2.1098 6.8785v27.416c0.48903 0.12227 1.1929 0.21464 2.1098 0.27573 0.97808 0.12227 1.9241 0.18218 2.841 0.18218 1.9561 0 3.2715-0.39688 3.9439-1.1916 0.73354-0.79467 1.1005-1.8031 1.1005-3.0256v-24.666c0-5.1959-1.1931-9.2919-3.5771-12.287-2.3229-2.9953-5.8972-4.4929-10.726-4.4929-2.9342-1e-5 -5.565 0.76379-7.8879 2.292-2.2618 1.4671-4.2786 3.6686-6.0513 6.6028-1.0392-2.9342-2.749-5.1357-5.133-6.6028-2.3229-1.5282-4.9836-2.292-7.979-2.292zm-86.284 0.18218c-3.2398 0-5.9904 0.36692-8.2522 1.1004-2.2618 0.67242-4.1263 1.5909-5.5934 2.7524-1.406 1.1614-2.4443 2.5068-3.1168 4.035s-1.0094 3.1157-1.0094 4.7662c0 3.0564 0.97845 5.6248 2.9346 7.7032 1.9561 2.0172 5.4106 3.7295 10.362 5.1355l6.5092 1.8316c2.6285 0.73354 4.4631 1.4674 5.5023 2.2009 1.0392 0.67242 1.5584 1.6808 1.5584 3.0257-1e-5 0.67241-0.12227 1.3164-0.36683 1.9276-0.18339 0.55017-0.58026 1.0694-1.1916 1.5584-0.61128 0.42791-1.4974 0.79482-2.6588 1.1005-1.1003 0.24451-2.568 0.36682-4.4018 0.36682-1.6505 0-3.208-0.12227-4.6751-0.36682-1.4671-0.24452-2.8124-0.51909-4.035-0.82473-1.1614-0.36678-2.2622-0.67377-3.3014-0.91829-0.97806-0.24451-1.8342-0.36681-2.5677-0.36681-1.2226 0-2.1686 0.48922-2.841 1.4673-0.67241 0.97806-1.0094 2.261-1.0094 3.8504v1.0094c0.0611 0.30564 0.12114 0.61017 0.18218 0.91581 2.9342 1.0392 5.9618 1.8654 9.0794 2.4767 3.1787 0.55016 6.2339 0.82472 9.168 0.82472 3.6677 0 6.6929-0.39687 9.077-1.1915 2.4451-0.79467 4.3721-1.8031 5.778-3.0256 1.406-1.2837 2.3844-2.7214 2.9346-4.3108 0.61129-1.6505 0.91582-3.3004 0.91582-4.9508 0-3.1787-1.0384-5.807-3.1168-7.8854-2.0172-2.0784-5.5317-3.8206-10.544-5.2266l-6.8785-1.9252c-1.406-0.36678-2.5367-0.70373-3.3925-1.0094-0.79466-0.36678-1.4362-0.73369-1.9252-1.1005-0.4279-0.36678-0.73244-0.76365-0.91582-1.1916-0.12227-0.4279-0.18464-0.91712-0.18464-1.4673 0-1.2837 0.58157-2.2921 1.743-3.0256 1.2226-0.73354 3.2993-1.1005 6.2335-1.1005 3.1787 0 5.7771 0.33696 7.7943 1.0094 2.0784 0.61129 3.7906 0.91582 5.1355 0.91582 1.3448 0 2.3233-0.48922 2.9346-1.4673 0.67242-1.0392 1.0094-2.4445 1.0094-4.2172 0-0.24451-0.0325-0.45917-0.0935-0.64255v-0.82473c-5.8684-1.9561-11.462-2.9346-16.78-2.9346zm200.35 0c-3.2398 0-5.9905 0.36692-8.2522 1.1004-2.2618 0.67242-4.1263 1.5909-5.5934 2.7524-1.406 1.1614-2.4443 2.5068-3.1167 4.035-0.67242 1.5282-1.0094 3.1157-1.0094 4.7662 0 3.0564 0.97843 5.6248 2.9346 7.7032 1.9561 2.0172 5.4106 3.7295 10.362 5.1355l6.5092 1.8316c2.6285 0.73354 4.4631 1.4674 5.5023 2.2009 1.0392 0.67242 1.5584 1.6808 1.5584 3.0257 0 0.67241-0.12227 1.3164-0.36683 1.9276-0.18338 0.55017-0.58026 1.0694-1.1915 1.5584-0.61129 0.42791-1.4974 0.79482-2.6588 1.1005-1.1003 0.24451-2.568 0.36682-4.4018 0.36682-1.6505 0-3.2105-0.12227-4.6776-0.36682-1.4671-0.24452-2.81-0.51909-4.0326-0.82473-1.1614-0.36678-2.2622-0.67377-3.3014-0.91829-0.97806-0.24451-1.8342-0.36681-2.5677-0.36681-1.2226 0-2.171 0.48922-2.8435 1.4673s-1.0069 2.261-1.0069 3.8504v1.0094c0.0611 0.30564 0.121 0.61017 0.18218 0.91581 2.9342 1.0392 5.9594 1.8654 9.077 2.4767 3.1787 0.55016 6.2363 0.82472 9.1705 0.82472 3.6677 0 6.6929-0.39687 9.077-1.1915 2.4451-0.79467 4.3721-1.8031 5.778-3.0256 1.406-1.2837 2.3844-2.7214 2.9346-4.3108 0.61128-1.6505 0.91581-3.3004 0.91581-4.9508 0-3.1787-1.0384-5.807-3.1167-7.8854-2.0172-2.0784-5.5341-3.8206-10.547-5.2266l-6.876-1.9252c-1.406-0.36678-2.5367-0.70373-3.3925-1.0094-0.79468-0.36678-1.4362-0.73369-1.9252-1.1005-0.4279-0.36678-0.7349-0.76365-0.91828-1.1916-0.12227-0.4279-0.18218-0.91712-0.18218-1.4673-1e-5 -1.2837 0.58157-2.2921 1.743-3.0256 1.2226-0.73354 3.2993-1.1005 6.2335-1.1005 3.1787 0 5.7771 0.33696 7.7943 1.0094 2.0784 0.61129 3.7906 0.91582 5.1355 0.91582 1.3448 0 2.3233-0.48922 2.9346-1.4673 0.67242-1.0392 1.0069-2.4445 1.0069-4.2172 0-0.24451-0.0299-0.45917-0.0911-0.64255v-0.82473c-5.8684-1.9561-11.462-2.9346-16.78-2.9346zm-247.2 0.0935c-2.7508 1e-5 -5.1645 0.7638-7.2428 2.292-2.0784 1.4671-3.7283 3.6985-4.9508 6.6939h-0.18464v-3.2103c0-1.7116-0.42684-3.057-1.2826-4.035-0.79466-1.0392-2.14-1.5584-4.035-1.5584-0.85581 0-1.652 0.0924-2.3856 0.27573-0.67242 0.12227-1.3439 0.27451-2.0163 0.45791v44.013c0.48903 0.12227 1.1929 0.21464 2.1098 0.27573 0.97806 0.12227 1.9241 0.18218 2.841 0.18218 1.9561 0 3.2715-0.39687 3.9439-1.1916 0.73354-0.79467 1.1005-1.8031 1.1005-3.0256v-21.916c0-3.4844 0.94602-6.0503 2.841-7.7008 1.9561-1.6505 4.5245-2.4766 7.7032-2.4766h1.6495c3.4232 0 5.1355-1.7123 5.1355-5.1355 0-1.0392-0.18222-2.1999-0.54899-3.4836-0.67242-0.12227-1.4063-0.21465-2.2009-0.27573-0.73354-0.12227-1.5597-0.18219-2.4766-0.18219zm15.589 0.18219c-1.895 0-3.2104 0.39688-3.9439 1.1916-0.73355 0.79467-1.1005 1.8031-1.1005 3.0256v40.53c0.48905 0.12227 1.1929 0.21464 2.1098 0.27573 0.91693 0.12227 1.833 0.18218 2.7499 0.18218 1.9561 0 3.3015-0.39687 4.035-1.1916 0.73355-0.79467 1.1005-1.8031 1.1005-3.0256v-40.53c-0.48903-0.12227-1.1929-0.21218-2.1098-0.27327-0.91692-0.12227-1.8629-0.18464-2.841-0.18464zm187.97 23.651c2.4452 0 5.2282 0.27703 8.3458 0.82719v3.8504c-1.2226 2.5674-2.9348 4.7065-5.1355 6.4181-2.1395 1.7116-4.6755 2.5677-7.6097 2.5677-2.2618 0-4.0964-0.51917-5.5023-1.5584-1.406-1.0392-2.1098-2.5368-2.1098-4.4929 0-2.4451 0.97845-4.3097 2.9346-5.5934 2.0172-1.3448 5.0425-2.0187 9.077-2.0187z" fill="#fff"/>
</svg>
