<svg xmlns="http://www.w3.org/2000/svg" viewBox="0 0 801.08 262.5" ><g transform="translate(26.208 .743)"><g transform="matrix(.65155 0 0 .65155 -36.045995 -108.183683)"><path d="M126.7 314.7c0 21.5-14 37.1-42.6 40.2-20.6 2.2-50.5-.4-64.7-2-.5-2.3-.9-5.2-.9-7.5 0-18.7 10.1-23 19.6-23 9.9 0 25.5 1.7 37 1.7 12.8 0 16.6-4.3 16.6-8.4 0-5.4-5.1-7.6-15-9.5L49.6 301c-22.5-4.3-34.5-19.8-34.5-36.3 0-20 14.2-36.8 42.2-39.9 21.1-2.3 46.9.3 61 2 .5 2.4.8 4.7.8 7.2 0 18.7-9.9 22.7-19.4 22.7-7.3 0-18.6-1.3-31.6-1.3-13.2 0-18.6 3.6-18.6 8 0 4.7 5.2 6.6 13.4 8.1l25.8 4.8c26.6 4.9 38 19.9 38 38.4m46.3 23c0 11.5-4.5 18.1-27 18.1-3 0-5.6-.2-8.1-.6V202.9c0-11.6 3.9-23.7 26.6-23.7 2.9 0 5.8.3 8.5.9zm91.9 59c3 1.5 9 3.4 16.6 3.5 13.1.3 20.2-4.7 25.5-16.4l70-155.7c-2.9-1.5-9.3-3.3-14.5-3.4-9-.2-21.1 1.6-28.8 20L310.9 298l-44.5-72.3c-2.9-.9-9.9-2.1-15-2.1-15.8 0-24.5 5.8-33.6 15.6l-43.2 47.2 34.8 54.7c6.4 10 14.9 15.1 28.6 15.1 9 0 16.5-2.1 20-3.7l-41.9-63 29.7-31.5 48.7 76.3z" fill="#ff0031"/><linearGradient id="A" x1="414.37" x2="1244.631" y1="289.839" y2="289.839" gradientUnits="userSpaceOnUse"><stop stop-color="#ff0031" offset="0"/><stop stop-color="#9b001f" offset="1"/></linearGradient><path d="M1228 164.9H430.9c-9.2 0-16.7 7.5-16.7 16.7v216.5c0 9.2 7.5 16.7 16.7 16.7h797c9.2 0 16.7-7.5 16.7-16.7V181.5c-.1-9.2-7.4-16.6-16.6-16.6" fill="url(#A)"/><linearGradient id="B" x1="197.483" x2="194.588" y1="295.135" y2="212.243" gradientUnits="userSpaceOnUse"><stop stop-color="#fff" offset="0"/><stop stop-color="#fff" stop-opacity=".25" offset=".515"/></linearGradient><path d="M138 202.9v104.5c0-4.2 3.2-8.6 8.6-8.8l17.6-.6c3.5-.1 8.8-2.5 8.9-8.9v-109c-2.7-.6-5.6-.9-8.5-.9-22.7.1-26.6 12.1-26.6 23.7m80 36.4l-43.2 47.2 3.5 5.4c1.5 2 4.4 5.4 10.2 5.2l24.6-.9c5.4-.2 8.8 2.1 10.9 4.9l-7.7-11.6L246 258l19.9 31.3c3.6 4.7 9 4.8 10.2 4.8 1 0 27.2-.9 28.3-1 1.8-.1 3.9.9 5.5 3.2l-43.3-70.4c-2.9-.9-9.9-2.1-15-2.1-15.8-.1-24.5 5.6-33.6 15.5M57.3 224.8c-28 3.1-42.2 19.8-42.2 39.9 0 10.3 4.7 20.2 13.7 27.3 6.8 4.5 13.8 6.2 20.7 7.4 5.7 1 19 1.9 28.9 1.5l30.8-1.1c11.6-.4 17.8 9.5 17.2 19.4v-.5c.1-1.3.2-2.6.2-3.9 0-18.5-11.4-33.6-37.9-38.5l-25.8-4.8c-8.3-1.4-13.4-3.4-13.4-8.1 0-4.4 5.5-8.1 18.6-8.1 13 0 24.3 1.3 31.6 1.3 9.5 0 19.4-4 19.4-22.7 0-2.5-.3-4.8-.8-7.2-10.1-1.2-26.3-2.9-42.4-2.9-6.3.1-12.6.4-18.6 1m276.2 19.9l-22.1 52.1c0-.1 1.4-4.1 5.7-4.3l23.4-.8c7.1-.3 9.9-5.1 10.7-6.7l25.6-57.1c-2.9-1.5-9.3-3.3-14.5-3.4h-1.1c-8.9.1-20.3 2.5-27.7 20.2" fill="url(#B)" opacity=".3" enable-background="new"/><linearGradient id="C" x1="830.555" x2="826.25" y1="276.73" y2="153.473" gradientUnits="userSpaceOnUse"><stop stop-color="#fff" offset="0"/><stop stop-color="#fff" stop-opacity=".25" offset=".515"/></linearGradient><path d="M430.9 164.9c-9.2 0-16.7 7.5-16.7 16.7v120.2c0-1.8.7-11.7 12-12.8 0 0 .6-.1 1.6-.1l804.4-28.2c6.3-.2 12.4-4.9 12.4-12.7v-66.3c0-9.2-7.5-16.7-16.7-16.7z" fill="url(#C)" opacity=".3" enable-background="new"/><g fill="#fff"><path d="M1190.1 275.3v74.5c-2 .5-5.4 1-8.8 1-7 0-10.1-2.5-10.1-7.4v-9.8c-11.1 11.7-24.3 18.6-41.8 18.6-26.3 0-40.8-16.8-40.8-35.6 0-28.4 30.7-40.8 82.6-37.4V276c0-18.1-5.9-28.9-28.9-28.9-11.9 0-22.2 2.6-29.2 4.9-3.6 1-6.4 1.9-8.3 1.9-5.4 0-8.5-4.9-7.3-15.2 11.7-4.4 29.2-8.3 45.6-8.3 34.3.1 47 17.2 47 44.9m-19.1 40.8v-22.5c-33.8-1.5-63 1.8-63 22.7 0 10.3 8.8 19.9 24.5 19.9 16 0 29.5-8.1 38.5-20.1m-709.6-25c0-34.8 25.8-60.7 59.6-60.7 16.2 0 30.7 4.4 40.8 9.6 1 10.6-2.9 15-7.8 15-6.9 0-14.5-7.5-32.3-7.5-22.5 0-40.8 16.8-40.8 43.9s18.3 44.4 40.8 44.4c17.8 0 25.5-7.5 32.3-7.5 4.9 0 8.8 4.4 7.8 15-10.3 4.9-24.8 9.3-40.8 9.3-33.8-.5-59.6-26.7-59.6-61.5m413.8 7.8h-91.1c2.9 22.7 18.9 35.8 42.4 35.8 10.1 0 17.8-2.3 25.3-4.6 4.9-1.8 7.5-2.8 9.6-2.8 4.9 0 8.5 4.6 7.3 15.2-10.3 4.6-26.1 9.6-42.9 9.6-36.4 0-61.5-24.8-61.5-61.2 0-35.1 26.1-60.6 58.3-60.6 35.9 0 53.7 28.7 53.7 56.6-.1 3.7-.4 7.6-1.1 12m-91-15.7h73.3c-.8-20.1-13.7-35.9-34.8-35.9-18.8-.2-35.4 12.4-38.5 35.9m-201.8-77.6c0-7.2 5.7-12.4 12.4-12.4 6.9 0 12.2 5.4 12.2 12.4 0 6.4-5.4 12.2-12.2 12.2s-12.4-5.9-12.4-12.2m2.7 144.1V239.3c0-4.4 2.4-7.3 10.3-7.3 3.1 0 6.9.8 8.8 1.3v110.2c0 4.6-2.6 7.3-10.3 7.3-3.2-.1-6.9-.6-8.8-1.1"/><path d="M1064.5 272.9v70.5c0 4.6-2.6 7.3-10.3 7.3-3.1 0-6.9-.5-8.8-1V275c0-17.3-8.3-27.6-23.8-27.6-13.2 0-24.5 9.6-28.9 19.1v76.9c0 4.6-2.4 7.3-10.1 7.3-3.4 0-7-.5-9-1V275c0-17.3-8-27.6-23.8-27.6-13.2 0-24.5 9.6-28.9 19.1v76.9c0 4.6-2.4 7.3-10.1 7.3-3.4 0-7.2-.5-8.8-1V233.2c2-.5 5.7-1.3 8.8-1.3 7.3 0 9.8 2.9 9.8 7.8v8.3c7.5-10.1 19.4-17.6 33.8-17.6 15.5 0 27.6 8 33.8 21.2 8-11.7 20.4-21.2 37.7-21.2 25.2.1 38.6 19.2 38.6 42.5m-325.3 7.5v63c0 4.6-2.4 7.3-10.1 7.3-3.1 0-6.9-.5-8.8-1V283c0-24-11.9-35.4-29.4-35.4-13.9 0-28.9 9.8-35.1 21.1v74.9c0 4.6-2.5 7.3-10.1 7.3-3.4 0-7-.5-8.8-1V233.2c1.8-.5 5.4-1.3 8.8-1.3 7.5 0 10.1 2.9 10.1 7.3v10.1c8.5-10.3 21.5-18.9 39.2-18.9 24.1.1 44.2 15.4 44.2 50"/></g></g><g fill="#fff"><path d="M388.732 242.41l1.106-4.621h-1.174l.179-.752h3.326l-.179.752h-1.182l-1.106 4.621zm2.858 0l1.285-5.373h1.302l.213 4.033h.026l2.135-4.033h1.387l-1.285 5.373h-.936l.74-3.115q.06-.233.128-.475.077-.249.136-.452h-.026l-2.169 4.041h-.867l-.222-4.033h-.026q-.043.233-.093.512-.051.279-.111.542l-.714 2.98z"/><path d="M374.942 196.812l5.034-9.157h19.774c-.568 4.427-6.496 12.827-17.667 25.162-10.382 11.918-16.406 21.719-18.132 29.515h14.87l1.388-3.632.136-.114-.022-.117.121-.417c3.668-8.21 9.164-16.154 16.502-23.76 14.087-15.628 20.5-27.169 19.138-34.773h-42.076l-7.254 17.292zm97.092-7.91c3.383-3.102 4.922-6.13 4.582-9.043h-56.513c-.336 4.616-1.298 8.627-3.074 12.071h29.7c.351-1.097.758-1.893 1.162-2.498.296-.531 1.099-.681 2.394-.531zm-36.166 10.406l6.578-1.21 2.649-3.444H415.87c-5.169 6.509-4.807 11.048 1.053 13.661.559.035.64-.379.223-1.363-.623-1.249-.679-2.612-.193-4.048.34-1.173.858-2.005 1.544-2.574h11.271l-8.991 12.373c-1.238.794-2.835 1.134-4.777.908h-12.97l-3.073 3.066h16.212c3.516.19 6.065-.568 7.514-2.157l8.838-12.335c1.082-1.854 2.166-2.838 3.346-2.877zm-71.283-2.686c-.409-9.081-3.76-14.607-10.068-16.649-7.434-2.574-14.817.074-22.178 7.984-2.633 2.876-4.954 6.168-7.117 9.877-1.731 2.837-2.939 5.297-3.558 7.303l-1.516 4.654c-1.161 3.785-1.901 7.492-2.215 11.162-1.164 11.277 1.894 18.427 9.121 21.38 7.314 2.989 14.766.718 22.301-6.887 4.513-4.691 8.001-9.8 10.575-15.363l1.679-3.973c2.189-6.071 3.192-12.507 2.953-18.957zm-30.702 12.373c1.563-4.389 3.816-9.119 6.627-14.037 4.395-7.909 8.164-11.277 11.272-10.294 4.722 1.59 3.267 11.503-4.273 29.818-1.96 4.388-4.463 9.042-7.472 13.961-4.712 7.266-8.284 10.406-10.789 9.271-2.596-1.211-2.788-5.902-.537-14.077zm-15.008-12.563c-.362-9.043-3.754-14.569-10.028-16.649-7.468-2.536-14.835.19-22.123 8.06-2.642 2.837-5 6.13-7.165 9.838-1.731 2.837-2.939 5.298-3.551 7.341l-1.562 4.616c-1.123 3.783-1.862 7.491-2.22 11.125-1.12 11.312 1.979 18.465 9.245 21.415 7.233 2.989 14.679.681 22.183-6.885 4.507-4.73 8.081-9.8 10.654-15.364l1.641-3.971c2.166-6.055 3.137-12.374 2.958-18.92zm-30.655 12.411c1.564-4.389 3.791-9.043 6.596-13.999 4.442-7.872 8.198-11.315 11.305-10.331 4.722 1.59 3.273 11.541-4.28 29.78-1.873 4.427-4.417 9.081-7.425 14-4.705 7.303-8.325 10.406-10.828 9.271-2.596-1.211-2.795-5.942-.539-14.077z" fill-rule="evenodd"/></g></g></svg>