<?xml version="1.0" encoding="UTF-8"?>
<svg width="800" height="193.29" version="1.1" xmlns="http://www.w3.org/2000/svg">
	<defs>
		<linearGradient id="a" x1="414.37" x2="1244.6" y1="289.84" y2="289.84" gradientTransform="translate(-7.779 -84.95) scale(.51516)" gradientUnits="userSpaceOnUse">
			<stop stop-color="#ff0031" offset="0"/>
			<stop stop-color="#9b001f" offset="1"/>
		</linearGradient>
		<linearGradient id="b" x1="197.48" x2="194.59" y1="295.14" y2="212.24" gradientTransform="translate(-7.779 -84.95) scale(.51516)" gradientUnits="userSpaceOnUse">
			<stop stop-color="#fff" offset="0"/>
			<stop stop-color="#fff" stop-opacity=".25" offset=".515"/>
		</linearGradient>
		<linearGradient id="c" x1="830.55" x2="826.25" y1="276.73" y2="153.47" gradientTransform="translate(-7.779 -84.95) scale(.51516)" gradientUnits="userSpaceOnUse">
			<stop stop-color="#fff" offset="0"/>
			<stop stop-color="#fff" stop-opacity=".25" offset=".515"/>
		</linearGradient>
	</defs>
	<path d="m793.75 0c3.46 0 6.25 2.817 6.25 6.25v116.24c-0.0153 3.4454-2.8046 6.2347-6.25 6.25h-168.96v-128.71" fill="#fff"/>
	<path d="M714.58 38.576v49.548c0 2.173-1.1 3.38-4.48 3.38-1.53 0-2.95-.214-4.05-.43V68.274h-28.274V88.15c0 2.173-1.1 3.38-4.48 3.38-1.637 0-3.273-.214-4.051-.43V41.528c0-2.093 1.1-3.38 4.587-3.38 1.53 0 3.032.214 3.917.429v22.05h28.14v-19.1c0-2.091 1.208-3.38 4.696-3.38 1.61 0 3.112.215 3.996.43m58.003 26.182c0 14.861-10.38 26.101-26.638 26.101H730.79c-3.272 0-4.48-1.314-4.48-3.38v-45.31c0-2.064 1.208-3.38 4.48-3.38h15.157c16.257 0 26.638 11.134 26.638 25.969m-8.638 0c0-11.133-6.974-18.35-18-18.35h-11.133v36.78h11.133c11.026.027 18-7.19 18-18.43" fill="#9c001f"/>
	<path d="M57.492 77.171c0 11.076-7.212 19.112-21.946 20.709-10.612 1.133-26.016-.206-33.331-1.03-.258-1.185-.464-2.68-.464-3.864 0-9.633 5.203-11.849 10.097-11.849 5.1 0 13.137.876 19.061.876 6.594 0 8.552-2.215 8.552-4.328 0-2.781-2.627-3.915-7.727-4.894l-13.961-2.678C6.182 67.897 0 59.913 0 51.413 0 41.11 7.315 32.455 21.74 30.858c10.87-1.185 24.16.154 31.425 1.03.257 1.236.412 2.421.412 3.71 0 9.633-5.1 11.693-9.994 11.693-3.761 0-9.582-.67-16.28-.67-6.8 0-9.581 1.855-9.581 4.122 0 2.42 2.678 3.4 6.903 4.172l13.29 2.473C51.62 59.913 57.493 67.64 57.493 77.17m23.852 11.85c0 5.924-2.319 9.324-13.91 9.324-1.545 0-2.884-.103-4.172-.31V19.577c0-5.976 2.009-12.21 13.703-12.21 1.494 0 2.988.155 4.379.464zm47.343 30.393c1.545.773 4.636 1.752 8.551 1.803 6.749.155 10.406-2.42 13.137-8.448l36.061-80.21c-1.494-.773-4.79-1.7-7.47-1.752-4.636-.103-10.87.825-14.837 10.303l-11.746 27.458-22.925-37.246c-1.494-.463-5.1-1.082-7.727-1.082-8.14 0-12.62 2.988-17.309 8.037L82.167 62.591l17.928 28.179c3.297 5.152 7.676 7.779 14.734 7.779 4.636 0 8.5-1.082 10.303-1.906l-21.585-32.455 15.3-16.228 25.088 39.307z" fill="#ff0031"/>
	<path d="m214.21 0c-4.74 0-8.603 3.864-8.603 8.603v111.53c0 4.74 3.864 8.603 8.603 8.603h410.58c4.74 0 8.603-3.863 8.603-8.603v-111.58c-0.051-4.74-3.864-8.551-8.603-8.551" fill="url(#a)"/>
	<path d="M63.313 19.576V73.41c0-2.164 1.649-4.43 4.43-4.533l9.067-.31c1.803-.051 4.534-1.287 4.585-4.584V7.83a20.366 20.366 0 0 0-4.379-.464c-11.694.051-13.703 6.233-13.703 12.209m41.213 18.752L82.271 62.643l1.803 2.782c.773 1.03 2.267 2.782 5.255 2.679l12.673-.464c2.782-.103 4.533 1.082 5.615 2.524l-3.966-5.975 15.3-16.228 10.252 16.124c1.854 2.42 4.636 2.472 5.254 2.472.515 0 14.012-.463 14.58-.515.926-.051 2.008.464 2.833 1.649l-22.306-36.267c-1.494-.464-5.1-1.082-7.728-1.082-8.14-.052-12.62 2.885-17.309 7.985m-82.786-7.47C7.317 32.454.001 41.057.001 51.412c0 5.306 2.421 10.406 7.058 14.064 3.503 2.318 7.109 3.194 10.664 3.812 2.936.515 9.788.98 14.888.773l15.867-.567c5.976-.206 9.17 4.894 8.86 9.994v-.257c.052-.67.104-1.34.104-2.01 0-9.53-5.873-17.308-19.525-19.833l-13.291-2.473c-4.276-.721-6.904-1.752-6.904-4.173 0-2.267 2.834-4.173 9.582-4.173 6.698 0 12.518.67 16.28.67 4.893 0 9.994-2.06 9.994-11.694 0-1.288-.155-2.473-.413-3.71-5.203-.617-13.549-1.493-21.843-1.493-3.245.051-6.49.206-9.582.515M164.03 41.11l-11.385 26.84c0-.051.722-2.112 2.937-2.215l12.055-.412c3.657-.155 5.1-2.628 5.512-3.452l13.188-29.416c-1.494-.773-4.791-1.7-7.47-1.751h-.566c-4.585.051-10.458 1.288-14.27 10.406" fill="url(#b)" opacity=".3"/>
	<path d="m214.2 0c-4.74 0-8.603 3.864-8.603 8.603v61.922c0-0.927 0.36-6.027 6.182-6.594 0 0 276.86-9.7277 415.21-14.578 3.245-0.103 6.388-2.525 6.388-6.543v-34.155c0-4.74-3.864-8.603-8.603-8.603z" fill="url(#c)" opacity=".3"/>
	<path d="m298.64 14.58c-3.452 0-6.387 2.678-6.387 6.387 0 3.246 2.884 6.285 6.387 6.285s6.285-2.988 6.285-6.285c0-3.606-2.73-6.387-6.285-6.387zm117.35 19.112c-16.588 0-30.033 13.137-30.033 31.219 0 18.752 12.93 31.528 31.682 31.528 8.655 0 16.794-2.577 22.1-4.946 0.618-5.461-1.238-7.83-3.762-7.83-1.082 0-2.42 0.515-4.945 1.443-3.863 1.185-7.83 2.369-13.034 2.369-12.106 0-20.348-6.75-21.842-18.443h46.93c0.361-2.267 0.516-4.276 0.567-6.182 0-14.373-9.17-29.157-27.664-29.157zm-155.37 0.051c-17.412 0-30.703 13.342-30.703 31.27s13.291 31.425 30.703 31.682c8.242 0 15.713-2.266 21.019-4.79 0.515-5.461-1.494-7.728-4.018-7.728-3.503 0-7.47 3.864-16.64 3.864-11.591 0-21.02-8.911-21.02-22.872s9.429-22.616 21.02-22.616c9.17 0 13.085 3.864 16.64 3.864 2.524 0 4.533-2.267 4.018-7.728-5.203-2.679-12.673-4.946-21.019-4.946zm89.639 0c-9.118 0-15.816 4.43-20.194 9.737v-5.203c0-2.267-1.34-3.76-5.204-3.76-1.752 0-3.605 0.41-4.533 0.668v60.12c0.928 0.258 2.781 0.515 4.533 0.515 3.915 0 5.204-1.391 5.204-3.76v-38.587c3.194-5.821 10.921-10.87 18.082-10.87 9.015 0 15.145 5.873 15.145 18.236v34.362c0.979 0.258 2.937 0.516 4.534 0.516 3.967 0 5.203-1.392 5.203-3.762v-32.453c0-17.824-10.353-25.707-22.77-25.758zm133.63 0c-7.418 0-13.55 3.865-17.413 9.068v-4.276c0-2.524-1.288-4.018-5.048-4.018-1.597 0-3.504 0.41-4.534 0.668v60.017c0.824 0.258 2.782 0.516 4.534 0.516 3.966 0 5.202-1.392 5.202-3.762v-39.615c2.267-4.894 8.089-9.84 14.888-9.84 8.14 0 12.262 5.308 12.262 14.22v38.482c1.03 0.258 2.885 0.516 4.636 0.516 3.967 0 5.203-1.392 5.203-3.762v-39.615c2.267-4.894 8.088-9.84 14.888-9.84 7.985 0 12.262 5.307 12.262 14.22v38.482c0.979 0.258 2.935 0.516 4.532 0.516 3.967 0 5.306-1.392 5.306-3.762v-36.318c0-12.003-6.902-21.843-19.884-21.895-8.912 0-15.3 4.895-19.422 10.923-3.194-6.8-9.426-10.923-17.412-10.923zm97.21 0c-8.449 0-17.464 2.01-23.491 4.276-0.618 5.306 0.978 7.831 3.76 7.831 0.98 0 2.422-0.464 4.276-0.979 3.607-1.185 8.913-2.525 15.043-2.525 11.85 0 14.888 5.564 14.888 14.888v1.65c-26.737-1.752-42.552 4.635-42.552 19.265 0 9.685 7.47 18.34 21.02 18.34 9.015 0 15.814-3.554 21.532-9.582v5.048c0 2.525 1.597 3.813 5.203 3.813 1.752 0 3.504-0.258 4.534-0.516v-38.378c0-14.27-6.543-23.08-24.213-23.132zm-282.15 0.825c-4.07 0-5.306 1.493-5.306 3.76v56.874c0.979 0.257 2.884 0.515 4.532 0.567 3.967 0 5.306-1.39 5.306-3.76v-56.77c-0.978-0.258-2.935-0.67-4.532-0.67zm117.09 7.882c10.87 0 17.515 8.14 17.927 18.494h-37.76c1.597-12.106 10.148-18.597 19.833-18.494zm173.04 23.69c2.078 7e-3 4.217 0.065 6.393 0.161v11.591c-4.636 6.182-11.59 10.356-19.833 10.356-8.088 0-12.62-4.946-12.62-10.252 0-9.42 11.516-11.9 26.06-11.855z" fill="#fff"/>
	<path d="m356.94 142.01c-1.2124 0-2.256 0.43566-3.1289 1.3086s-1.3086 1.9403-1.3086 3.2012c0 1.2124 0.43566 2.254 1.3086 3.127 0.87293 0.87294 1.9165 1.3106 3.1289 1.3106 1.2609 0 2.3282-0.43761 3.2012-1.3106 0.87293-0.87293 1.3086-1.9145 1.3086-3.127 0-1.2609-0.43566-2.3282-1.3086-3.2012s-1.9403-1.3086-3.2012-1.3086zm-66.197 1.2363c-1.5519 0-2.6192 0.31486-3.2012 0.94532-0.53346 0.63045-0.80078 1.4305-0.80078 2.4004v46.193c0.38796 0.097 0.94638 0.17028 1.6738 0.21875 0.77594 0.097 1.5265 0.14453 2.2539 0.14453 1.5519 0 2.5954-0.31486 3.1289-0.94532 0.58196-0.63045 0.87305-1.4305 0.87305-2.4004v-21.314c0.72743-1.4064 1.8661-2.547 3.418-3.4199 1.6004-0.92143 3.2499-1.3809 4.9473-1.3809 2.4733 0 4.3902 0.75052 5.748 2.2539 1.3579 1.4549 2.0352 3.7341 2.0352 6.8379v20.006c0.38797 0.097 0.94639 0.17028 1.6738 0.21875 0.72745 0.097 1.4542 0.14453 2.1816 0.14453 1.5519 0 2.6192-0.31486 3.2012-0.94532 0.58196-0.63045 0.87305-1.4305 0.87305-2.4004v-17.896c0-2.6188-0.33862-4.8723-1.0176-6.7637-0.67894-1.8914-1.6017-3.4438-2.7656-4.6562-1.1639-1.2124-2.5204-2.1094-4.0723-2.6914-1.5034-0.58195-3.1291-0.87304-4.875-0.87304-2.6188 0-4.8743 0.58218-6.7656 1.7461-1.8914 1.1154-3.4181 2.4738-4.582 4.0742v-19.133c-0.38798-0.097-0.97016-0.17022-1.7461-0.21876-0.72744-0.097-1.4542-0.14453-2.1816-0.14453zm-23.424 1.7422c-3.2977 0-6.3532 0.62972-9.166 1.8906-2.8128 1.2124-5.2623 2.9095-7.3477 5.0918-2.0368 2.1823-3.6369 4.7527-4.8008 7.7109-1.1639 2.9583-1.7461 6.1346-1.7461 9.5293 0 3.4917 0.58218 6.7175 1.7461 9.6758 1.1639 2.9583 2.7639 5.5048 4.8008 7.6387 2.0854 2.1338 4.5349 3.8071 7.3477 5.0195 2.8128 1.1639 5.8683 1.7441 9.166 1.7441 2.7643 0 5.2376-0.21783 7.4199-0.65429 2.1823-0.48496 4.2913-1.1642 6.3281-2.0371 0.097-0.38798 0.14648-0.7266 0.14648-1.0176v-0.94531c0-1.5519-0.36435-2.7162-1.0918-3.4922-0.72745-0.82444-1.6978-1.2363-2.9102-1.2363-0.53346 0-1.0662 0.097-1.5996 0.29102-0.53346 0.19398-1.1651 0.41181-1.8926 0.65429-0.72744 0.24248-1.6007 0.46031-2.6191 0.6543-0.96992 0.19399-2.1323 0.29102-3.4902 0.29102-2.0853 0-4.026-0.3624-5.8203-1.0898-1.7944-0.72744-3.3706-1.7948-4.7285-3.2012-1.3094-1.4549-2.351-3.2014-3.127-5.2383-0.72745-2.0853-1.0918-4.4378-1.0918-7.0566 0-2.5218 0.36435-4.801 1.0918-6.8379 0.77594-2.0853 1.8176-3.8557 3.127-5.3106 1.3579-1.4549 2.9342-2.5698 4.7285-3.3457 1.7944-0.82444 3.735-1.2363 5.8203-1.2363 1.3579 0 2.546 0.097 3.5644 0.29101 1.0184 0.19398 1.8917 0.41181 2.6191 0.6543 0.77595 0.24248 1.4532 0.46031 2.0352 0.6543 0.58195 0.19398 1.1166 0.29101 1.6016 0.29101 1.0184 0 1.866-0.43566 2.5449-1.3086s1.0195-2.0848 1.0195-3.6367c0-0.29098-0.0238-0.5583-0.0723-0.80078 0-0.29098-0.0258-0.60584-0.0742-0.94531-2.0368-0.82444-4.1933-1.4799-6.4727-1.9648-2.2308-0.48496-4.5833-0.72656-7.0566-0.72656zm142.58 3.0586c-1.0184 0-1.8422 0.1208-2.4727 0.36328-0.58195 0.24248-1.0433 0.58306-1.3828 1.0195-0.29098 0.43646-0.50881 0.92162-0.6543 1.4551-0.097 0.53346-0.14453 1.0899-0.14453 1.6719v5.0195h-3.1289c-0.77595 0-1.4294 0.24356-1.9629 0.72852-0.48496 0.48496-0.72851 1.3325-0.72851 2.5449 0 0.53346 0.0238 1.0681 0.0723 1.6016s0.12176 0.96912 0.21875 1.3086h5.5293v17.24c0 1.7944 0.26537 3.4439 0.79883 4.9473 0.53346 1.4549 1.3097 2.74 2.3281 3.8555 1.0184 1.0669 2.2561 1.9145 3.7109 2.5449 1.5034 0.58195 3.2004 0.87304 5.0918 0.87304 2.0853 0 3.9032-0.2416 5.4551-0.72656 1.6004-0.48497 3.1053-1.1404 4.5117-1.9648 0.0485-0.24249 0.0723-0.48409 0.0723-0.72657v-0.80078c0-1.3579-0.26732-2.352-0.80078-2.9824s-1.2602-0.94531-2.1816-0.94531c-0.38797 0-0.79986 0.0733-1.2363 0.21875-0.38797 0.14549-0.82559 0.31383-1.3106 0.50781-0.43646 0.19399-0.94538 0.36427-1.5273 0.50977-0.58195 0.14548-1.2374 0.21875-1.9648 0.21875-1.6974 0-2.9825-0.50892-3.8555-1.5274-0.87293-1.0184-1.3086-2.4501-1.3086-4.293v-16.949h9.6016c0.77594 0 1.4076-0.24161 1.8926-0.72657 0.53346-0.48496 0.79883-1.3345 0.79883-2.5469 0-1.2124-0.1208-2.1827-0.36328-2.9102h-11.93v-9.0195c-0.92143-0.33947-1.965-0.50976-3.1289-0.50976zm95.66 8.8711c-2.9098 0-5.5534 0.2416-7.9297 0.72656-2.3763 0.43647-4.3645 0.92162-5.9648 1.4551-0.0485 0.24249-0.0723 0.48604-0.0723 0.72851v0.6543c0 1.2609 0.2416 2.3282 0.72656 3.2012 0.48497 0.87294 1.2374 1.3086 2.2559 1.3086 0.58196 0 1.1879-0.0733 1.8184-0.21875 0.67894-0.19398 1.4295-0.38805 2.2539-0.58203 0.87294-0.24248 1.8432-0.43654 2.9102-0.58203 1.0669-0.19399 2.3045-0.29102 3.7109-0.29102 2.7643 0 4.6792 0.51087 5.7461 1.5293 1.0669 0.96992 1.6016 2.6432 1.6016 5.0195v1.8184c-3.2008-0.58196-6.0622-0.87305-8.584-0.87305-2.6673 0-4.9723 0.29109-6.9121 0.87305-1.8914 0.58196-3.4676 1.4057-4.7285 2.4726-1.2609 1.0184-2.2055 2.2541-2.8359 3.709-0.58195 1.4549-0.87305 3.0569-0.87305 4.8027 0 1.4549 0.2416 2.8371 0.72656 4.1465 0.53346 1.2609 1.2859 2.3758 2.2559 3.3457 1.0184 0.96993 2.2541 1.7462 3.709 2.3281 1.5034 0.53346 3.2024 0.79883 5.0938 0.79883 1.6489 0 3.1024-0.1921 4.3633-0.58008 1.3094-0.33947 2.4738-0.82462 3.4922-1.4551 1.0184-0.63046 1.8917-1.3592 2.6191-2.1836 0.77594-0.87293 1.4552-1.77 2.0371-2.6914h0.0723c0.0485 0.92143 0.12176 1.7947 0.21875 2.6191 0.14549 0.82444 0.38708 1.5512 0.72656 2.1816 0.33948 0.58195 0.80086 1.0671 1.3828 1.4551 0.63045 0.33947 1.4305 0.50976 2.4004 0.50976 0.87293 0 1.6254-0.0733 2.2559-0.21875 0.67894-0.14549 1.2354-0.31382 1.6719-0.50781-0.33947-1.1639-0.60679-2.2312-0.80078-3.2012-0.19399-1.0184-0.36233-2.0382-0.50781-3.0566-0.097-1.0184-0.17029-2.1095-0.21875-3.2734v-11.566c0-2.3278-0.2416-4.3635-0.72656-6.1094-0.43647-1.7944-1.2384-3.2974-2.4024-4.5098-1.1154-1.2609-2.6184-2.2074-4.5098-2.8379-1.8429-0.63045-4.1696-0.94531-6.9824-0.94531zm-55.359 4e-3c-2.0368-1e-5 -3.928 0.55841-5.6738 1.6738-1.7459 1.0669-3.1281 2.3996-4.1465 4l-0.0723-0.87304c0-1.3579-0.34058-2.4252-1.0195-3.2012-0.63045-0.82443-1.6958-1.2363-3.1992-1.2363-0.67894 0-1.3106 0.0733-1.8926 0.21875-0.53346 0.097-1.0662 0.21778-1.5996 0.36328v34.918c0.38798 0.097 0.94639 0.17028 1.6738 0.21875 0.77594 0.097 1.5265 0.14453 2.2539 0.14453 1.5519 0 2.5954-0.31486 3.1289-0.94532 0.58196-0.63045 0.87305-1.4305 0.87305-2.4004v-21.533c0.63045-1.2124 1.5513-2.254 2.7637-3.127 1.2609-0.92143 2.6669-1.3828 4.2188-1.3828 2.0368 0 3.5893 0.62972 4.6562 1.8906 1.1154 1.2124 1.6719 3.0084 1.6719 5.3848v21.75c0.38796 0.097 0.94638 0.17028 1.6738 0.21875 0.77594 0.097 1.5284 0.14453 2.2559 0.14453 1.5519 0 2.5935-0.31486 3.127-0.94532 0.58196-0.63045 0.87305-1.4305 0.87305-2.4004v-21.461c0.63044-1.2609 1.5513-2.3263 2.7637-3.1992 1.2124-0.92143 2.6916-1.3828 4.4375-1.3828 1.8429 0 3.3221 0.60595 4.4375 1.8184 1.1154 1.1639 1.6738 2.9837 1.6738 5.457v21.75c0.38797 0.097 0.94638 0.17028 1.6738 0.21875 0.77595 0.097 1.5265 0.14453 2.2539 0.14453 1.5519 0 2.5954-0.31486 3.1289-0.94532 0.58195-0.63045 0.87304-1.4305 0.87304-2.4004v-19.568c0-4.1222-0.94653-7.3717-2.8379-9.748-1.8429-2.3763-4.6786-3.5644-8.5098-3.5644-2.3278-1e-5 -4.415 0.60595-6.2578 1.8184-1.7944 1.1639-3.3944 2.9105-4.8008 5.2383-0.82443-2.3278-2.1809-4.0744-4.0723-5.2383-1.8429-1.2124-3.9538-1.8184-6.3301-1.8184zm-68.453 0.14453c-2.5703 0-4.7525 0.29109-6.5469 0.87304-1.7944 0.53346-3.2736 1.2622-4.4375 2.1836-1.1154 0.92142-1.9392 1.9888-2.4727 3.2012s-0.80078 2.4718-0.80078 3.7812c0 2.4248 0.77625 4.4624 2.3281 6.1113 1.5519 1.6004 4.2925 2.9588 8.2207 4.0742l5.1641 1.4531c2.0853 0.58195 3.5408 1.1641 4.3652 1.7461 0.82444 0.53346 1.2363 1.3335 1.2363 2.4004-1e-5 0.53346-0.097 1.0443-0.29102 1.5293-0.14549 0.43647-0.46035 0.84836-0.94531 1.2363-0.48496 0.33948-1.188 0.63057-2.1094 0.87305-0.87293 0.19398-2.0373 0.29101-3.4922 0.29101-1.3094 0-2.5451-0.097-3.709-0.29101-1.1639-0.19399-2.2312-0.41182-3.2012-0.6543-0.92143-0.29098-1.7947-0.53453-2.6191-0.72852-0.77594-0.19398-1.4552-0.29101-2.0371-0.29101-0.96993 0-1.7204 0.38812-2.2539 1.1641s-0.80078 1.7938-0.80078 3.0547v0.80078c0.0485 0.24248 0.0961 0.48408 0.14453 0.72656 2.3278 0.82444 4.7298 1.4799 7.2031 1.9648 2.5218 0.43646 4.9456 0.65429 7.2734 0.65429 2.9098 0 5.3098-0.31486 7.2012-0.94531 1.9398-0.63045 3.4686-1.4305 4.584-2.4004 1.1154-1.0184 1.8917-2.159 2.3281-3.4199 0.48496-1.3094 0.72656-2.6183 0.72656-3.9277 0-2.5218-0.82379-4.607-2.4727-6.2559-1.6004-1.6489-4.3885-3.0311-8.3652-4.1465l-5.457-1.5273c-1.1154-0.29098-2.0125-0.5583-2.6914-0.80078-0.63045-0.29098-1.1394-0.58207-1.5273-0.87305-0.33948-0.29098-0.58108-0.60584-0.72657-0.94531-0.097-0.33948-0.14648-0.7276-0.14648-1.1641 0-1.0184 0.46139-1.8184 1.3828-2.4004 0.96993-0.58195 2.6175-0.87304 4.9453-0.87304 2.5218 0 4.5832 0.26732 6.1836 0.80078 1.6489 0.48496 3.0073 0.72656 4.0742 0.72656 1.0669 0 1.8432-0.38812 2.3281-1.1641 0.53346-0.82444 0.80078-1.9393 0.80078-3.3457 0-0.19398-0.0258-0.36428-0.0742-0.50976v-0.6543c-4.6556-1.5519-9.0933-2.3281-13.312-2.3281zm158.95 0c-2.5703 0-4.7525 0.29109-6.5469 0.87304-1.7944 0.53346-3.2736 1.2622-4.4375 2.1836-1.1154 0.92142-1.9392 1.9888-2.4726 3.2012s-0.80078 2.4718-0.80078 3.7812c0 2.4248 0.77624 4.4624 2.3281 6.1113 1.5519 1.6004 4.2925 2.9588 8.2207 4.0742l5.1641 1.4531c2.0853 0.58195 3.5408 1.1641 4.3652 1.7461 0.82444 0.53346 1.2363 1.3335 1.2363 2.4004 0 0.53346-0.097 1.0443-0.29102 1.5293-0.14549 0.43647-0.46035 0.84836-0.94531 1.2363-0.48496 0.33948-1.188 0.63057-2.1094 0.87305-0.87293 0.19398-2.0373 0.29101-3.4922 0.29101-1.3094 0-2.547-0.097-3.7109-0.29101-1.1639-0.19399-2.2293-0.41182-3.1992-0.6543-0.92143-0.29098-1.7947-0.53453-2.6191-0.72852-0.77594-0.19398-1.4552-0.29101-2.0371-0.29101-0.96992 0-1.7224 0.38812-2.2559 1.1641s-0.79882 1.7938-0.79882 3.0547v0.80078c0.0485 0.24248 0.096 0.48408 0.14453 0.72656 2.3278 0.82444 4.7279 1.4799 7.2012 1.9648 2.5218 0.43646 4.9476 0.65429 7.2754 0.65429 2.9098 0 5.3098-0.31486 7.2012-0.94531 1.9398-0.63045 3.4686-1.4305 4.584-2.4004 1.1154-1.0184 1.8917-2.159 2.3281-3.4199 0.48496-1.3094 0.72656-2.6183 0.72656-3.9277 0-2.5218-0.82378-4.607-2.4726-6.2559-1.6004-1.6489-4.3905-3.0311-8.3672-4.1465l-5.4551-1.5273c-1.1154-0.29098-2.0125-0.5583-2.6914-0.80078-0.63046-0.29098-1.1394-0.58207-1.5274-0.87305-0.33947-0.29098-0.58303-0.60584-0.72851-0.94531-0.097-0.33948-0.14453-0.7276-0.14453-1.1641-1e-5 -1.0184 0.46138-1.8184 1.3828-2.4004 0.96992-0.58195 2.6175-0.87304 4.9453-0.87304 2.5218 0 4.5832 0.26732 6.1836 0.80078 1.6489 0.48496 3.0073 0.72656 4.0742 0.72656s1.8432-0.38812 2.3281-1.1641c0.53346-0.82444 0.79883-1.9393 0.79883-3.3457 0-0.19398-0.0237-0.36428-0.0723-0.50976v-0.6543c-4.6556-1.5519-9.0933-2.3281-13.312-2.3281zm-196.12 0.0742c-2.1823 1e-5 -4.0972 0.60596-5.7461 1.8184-1.6489 1.1639-2.9578 2.9342-3.9277 5.3106h-0.14648v-2.5469c0-1.3579-0.33863-2.4252-1.0176-3.2012-0.63045-0.82443-1.6978-1.2363-3.2012-1.2363-0.67896 0-1.3106 0.0733-1.8926 0.21875-0.53346 0.097-1.0662 0.21778-1.5996 0.36328v34.918c0.38797 0.097 0.94639 0.17028 1.6738 0.21875 0.77594 0.097 1.5265 0.14453 2.2539 0.14453 1.5519 0 2.5954-0.31486 3.1289-0.94532 0.58195-0.63045 0.87305-1.4305 0.87305-2.4004v-17.387c0-2.7643 0.75052-4.8 2.2539-6.1094 1.5519-1.3094 3.5895-1.9648 6.1113-1.9648h1.3086c2.7158 0 4.0742-1.3584 4.0742-4.0742 0-0.82443-0.14456-1.7452-0.43554-2.7637-0.53346-0.097-1.1156-0.17029-1.7461-0.21875-0.58196-0.097-1.2374-0.14454-1.9648-0.14454zm12.367 0.14454c-1.5034 0-2.547 0.31486-3.1289 0.94531-0.58196 0.63045-0.87305 1.4305-0.87305 2.4004v32.154c0.38798 0.097 0.94639 0.17028 1.6738 0.21875 0.72744 0.097 1.4542 0.14453 2.1816 0.14453 1.5519 0 2.6192-0.31486 3.2012-0.94532 0.58196-0.63045 0.87305-1.4305 0.87305-2.4004v-32.154c-0.38797-0.097-0.94638-0.16833-1.6738-0.2168-0.72744-0.097-1.478-0.14648-2.2539-0.14648zm149.12 18.764c1.9398 0 4.1478 0.21978 6.6211 0.65625v3.0547c-0.96993 2.0368-2.3284 3.7339-4.0742 5.0918-1.6974 1.3579-3.7093 2.0371-6.0371 2.0371-1.7944 0-3.2498-0.41189-4.3652-1.2363-1.1154-0.82443-1.6738-2.0126-1.6738-3.5644 0-1.9398 0.77625-3.4191 2.3281-4.4375 1.6004-1.0669 4.0004-1.6016 7.2012-1.6016z" fill="#fff"/>
</svg>
