<?xml version="1.0" encoding="UTF-8"?>
<svg width="800" height="130.99" version="1.1" xmlns="http://www.w3.org/2000/svg" xmlns:xlink="http://www.w3.org/1999/xlink">
	<path d="m791.27 1.7767e-5h-573.19c-4.795 0-8.7257 3.9306-8.7257 8.7257v113.54c0 4.795 3.9306 8.7257 8.7257 8.7257h573.19c4.7954 0 8.7257-3.9306 8.7257-8.7257l1.2e-4 -113.54c3e-5 -4.795-3.9306-8.7257-8.7257-8.7257z" fill="#efefef" stroke-width=".99997"/>
	<defs>
		<linearGradient id="linearGradient2624" x1="365.41" x2="359.57" y1="1091.1" y2="923.62" gradientTransform="matrix(.26198 0 0 .26198 .00065351 -216.93)" gradientUnits="userSpaceOnUse">
			<stop stop-color="#fff" offset="0"/>
			<stop stop-color="#fff" stop-opacity=".8347" offset=".1203"/>
			<stop stop-color="#fff" stop-opacity=".6576" offset=".2693"/>
			<stop stop-color="#fff" stop-opacity=".5107" offset=".4195"/>
			<stop stop-color="#fff" stop-opacity=".3965" offset=".5684"/>
			<stop stop-color="#fff" stop-opacity=".3152" offset=".7156"/>
			<stop stop-color="#fff" stop-opacity=".2664" offset=".8603"/>
			<stop stop-color="#fff" stop-opacity=".25" offset="1"/>
		</linearGradient>
		<linearGradient id="linearGradient2224-7-1" x1="1281.7" x2="1273" y1="1266" y2="1016.9" gradientTransform="matrix(.26198 0 0 .26198 158.27 -268.79)" gradientUnits="userSpaceOnUse">
			<stop stop-color="#fff" offset="0"/>
			<stop stop-color="#fff" stop-opacity=".8347" offset=".1203"/>
			<stop stop-color="#fff" stop-opacity=".6576" offset=".2693"/>
			<stop stop-color="#fff" stop-opacity=".5107" offset=".4195"/>
			<stop stop-color="#fff" stop-opacity=".3965" offset=".5684"/>
			<stop stop-color="#fff" stop-opacity=".3152" offset=".7156"/>
			<stop stop-color="#fff" stop-opacity=".2664" offset=".8603"/>
			<stop stop-color="#fff" stop-opacity=".25" offset="1"/>
		</linearGradient>
		<linearGradient id="linearGradient2835" x1="211.22" x2="807.74" y1="66.147" y2="66.147" gradientUnits="userSpaceOnUse">
			<stop stop-color="#ff9e00" offset="0"/>
			<stop stop-color="#ff9600" offset=".044283"/>
			<stop stop-color="#be006e" offset=".49911"/>
			<stop stop-color="#056af1" offset=".95417"/>
			<stop stop-color="#0071ff" offset="1"/>
		</linearGradient>
		<linearGradient id="linearGradient308" x1="211.22" x2="807.74" y1="66.147" y2="66.147" gradientTransform="matrix(.99018 0 0 .99018 .17724 2.0027e-5)" gradientUnits="userSpaceOnUse" xlink:href="#linearGradient2835"/>
	</defs>
	<g fill="url(#linearGradient308)">
		<path d="m744.56 35.199c-8.7344 0-15.985 2.9898-21.751 8.9683-5.8514 5.978-8.7759 13.526-8.7759 22.641 0 9.5821 3.0098 17.383 9.0307 23.402 5.9784 5.9784 13.736 8.9683 23.277 8.9683 7.8016 0 15.348-1.6957 22.641-5.0875 0.085-0.84804 0.12812-1.6109 0.12812-2.2893 0-3.8585-1.3774-5.789-4.1336-5.789-0.93278 0-2.6084 0.44651-5.0252 1.3368-5.2153 1.7383-9.6025 2.6078-13.164 2.6078-12.889 0-20.204-6.1696-21.943-18.508h47.576c0.33902-1.9928 0.50909-4.1763 0.50909-6.551 0-8.0559-2.3536-14.862-7.06-20.416-5.2576-6.19-12.36-9.285-21.306-9.285zm0 9.1588c5.3 0 9.604 1.7806 12.911 5.3419 3.1376 3.4343 4.8116 7.8231 5.0237 13.165h-37.779c0.76315-5.8514 3.0535-10.451 6.8696-13.801 3.5615-3.1376 7.8855-4.7066 12.973-4.7066z"/>
		<path d="m616.81 35.623c-8.0559 0-15.858 1.4625-23.405 4.388-0.12737 1.0176-0.19048 1.9303-0.19048 2.7359 0 3.604 1.2925 5.4062 3.8789 5.4062 0.46634 0 1.8872-0.31804 4.2617-0.95413 5.851-1.5263 10.918-2.291 15.2-2.291 5.0879 0 8.692 1.1659 10.813 3.498 2.1624 2.2896 3.2434 6.0007 3.2434 11.131v1.5255c-2.756-0.16962-5.3861-0.25443-7.8874-0.25443-9.2858 0-16.833 1.2942-22.641 3.8808-7.4626 3.3919-11.193 8.6705-11.193 15.836 0 5.2576 1.8022 9.6463 5.4062 13.165 3.9008 3.8161 9.1161 5.7233 15.645 5.7233 8.395 0 15.286-3.0315 20.671-9.0949v4.5785c0 2.4592 1.9704 3.69 5.9137 3.69 1.696 0 3.2434-0.15004 4.6427-0.44673v-39.114c0-15.603-8.0333-23.405-24.103-23.405zm8.395 32.944c1.7383 0 3.5406 0.04339 5.4062 0.1282v11.511c-4.7062 7.1232-11.024 10.684-18.953 10.684-3.6888 0-6.6783-1.016-8.9683-3.0512-2.1624-1.908-3.2434-4.2617-3.2434-7.0601 0-8.1406 8.5866-12.212 25.758-12.212z"/>
		<path d="m389.97 35.33c-9.0734 0-16.62 3.0315-22.641 9.0945-6.063 6.1054-9.0945 13.738-9.0945 22.896 0 9.1584 3.0098 16.81 9.0307 22.958 6.063 6.1477 13.632 9.2227 22.706 9.2227 9.1161 0 16.704-3.0532 22.768-9.1588 6.063-6.1477 9.0945-13.822 9.0945-23.022 0-9.1584-3.0098-16.771-9.0307-22.833-6.0634-6.1054-13.673-9.1569-22.832-9.1569zm0 9.285c5.978 0 10.939 2.0354 14.882 6.1057 4.1552 4.1979 6.2324 9.731 6.2324 16.599 0 6.8684-2.0771 12.422-6.2324 16.661-3.9431 4.0705-8.9033 6.1057-14.882 6.1057-5.8937 0-10.833-2.0355-14.82-6.1057-4.1128-4.2825-6.1681-9.8357-6.1681-16.661 0-6.8688 2.0554-12.402 6.1681-16.599 3.9431-4.0705 8.8833-6.1057 14.82-6.1057z"/>
		<path d="m432.94 36.014c1.574 0 2.9681 0.31805 4.1824 0.95413 1.1692 0.63597 2.0227 1.782 2.5624 3.4357l11.334 45.407 15.651-48.717 0.67426-0.25444c1.7539-0.55105 3.5074-0.8277 5.261-0.8277 2.5634 0 4.3392 0.36147 5.3287 1.0823 0.98936 0.67838 1.7995 2.0342 2.4291 4.0694l13.76 44.647 12.008-45.856c0.6746-2.6288 2.6527-3.9431 5.9353-3.9431 1.9338 0 3.8687 0.40312 5.8022 1.2087l-16.46 56.605c-0.49469 1.8232-1.5744 3.0975-3.2383 3.8184-1.619 0.63608-3.2152 0.95413-4.789 0.95413-0.58461 0-1.6419-0.08481-3.1709-0.25443-1.2592-0.12756-2.18-0.27726-2.7646-0.44673l-0.67596-0.25281-14.772-46.744-13.896 42.674c-0.62962 2.0352-1.7318 3.3926-3.3058 4.0712-1.484 0.63601-3.1252 0.95243-4.9243 0.95243-0.3598 0-1.417-0.08319-3.1709-0.25281-1.7089-0.29684-2.7437-0.52996-3.1035-0.69958l-0.53945-0.25443-0.13455-0.57316-16.527-59.338 1.0115-0.38097c0.40474-0.16963 1.215-0.4027 2.4291-0.69954 0.98939-0.25444 2.0242-0.38267 3.1035-0.38267z"/>
		<path d="m678.98 35.33c8.3526 0 15.836 1.2709 22.451 3.8146 0.12736 0.93277 0.19199 1.7806 0.19199 2.5438 0 3.7312-1.2942 5.5963-3.8808 5.5963-0.42402 0-2.756-0.52966-6.9958-1.5896-4.2402-1.0176-8.1606-1.5257-11.765-1.5257-8.9887 0-13.484 2.6917-13.484 8.0764 0 3.6464 3.4562 6.4232 10.367 8.3307l11.193 3.117c11.744 3.2223 17.616 8.9672 17.616 17.235 0 5.3-2.0138 9.6256-6.0419 12.975-4.5792 3.7312-11.109 5.597-19.589 5.597h-1.0165c-7.8443 0-15.519-1.4208-23.025-4.2617-0.0847-0.84804-0.12661-1.6109-0.12661-2.2893 0-3.9431 1.3991-5.9152 4.1979-5.9152 0.46635 0 2.9882 0.52966 7.5676 1.5896 4.6215 1.06 8.884 1.5896 12.784 1.5896 9.6671 0 14.499-2.8616 14.499-8.5854 0-3.9008-3.7309-6.9104-11.193-9.0307l-10.811-2.9888c-11.321-3.0528-16.982-8.6293-16.982-16.728 0-5.0456 1.9089-9.1365 5.7248-12.274 4.2821-3.5192 10.387-5.278 18.315-5.278z"/>
		<path d="m557.02 35.33c7.0574 0 13.939 1.5474 20.647 4.6427 0.0877 0.72078 0.13152 1.377 0.13152 1.9706 0 3.9431-1.4914 5.9152-4.4722 5.9152-0.65755 0-2.695-0.55131-6.114-1.6537-3.463-1.06-6.8605-1.5896-10.192-1.5896-5.9179 0-10.917 2.0354-14.993 6.1057-4.2523 4.2821-6.3771 9.8157-6.3771 16.599 0 6.7838 2.125 12.337 6.3771 16.661 4.0765 4.0705 9.0753 6.1057 14.993 6.1057 3.3316 0 6.729-0.52966 10.192-1.5896 3.4193-1.06 5.4564-1.5896 6.114-1.5896 2.9809 0 4.4722 1.9504 4.4722 5.8514 0 0.63597-0.0438 1.2922-0.13152 1.9706-6.707 3.1799-13.589 4.7704-20.647 4.7704-9.2495-0.12722-16.966-3.2654-23.147-9.4131-6.181-6.1477-9.2699-13.78-9.2699-22.896 0-9.1161 3.1109-16.704 9.3353-22.768 6.181-6.063 13.875-9.0945 23.081-9.0945z"/>
		<path d="m258.63 35.33c8.3526 0 15.837 1.2709 22.451 3.8146 0.12721 0.93277 0.19048 1.7806 0.19048 2.5438 0 3.7312-1.2926 5.5963-3.8789 5.5963-0.42398 0-2.756-0.52966-6.9958-1.5896-4.2398-1.0176-8.1625-1.5257-11.766-1.5257-8.9887 0-13.482 2.6917-13.482 8.0764 0 3.6464 3.4562 6.4232 10.367 8.3307l11.193 3.117c11.744 3.2223 17.616 8.9672 17.616 17.235 0 5.3-2.0138 9.6256-6.0419 12.975-4.5792 3.7312-11.109 5.597-19.589 5.597h-1.0182c-7.8439 0-15.518-1.4208-23.022-4.2617-0.0848-0.84804-0.12642-1.6109-0.12642-2.2893 0-3.9431 1.3991-5.9152 4.1975-5.9152 0.46639 0 2.9881 0.52966 7.5676 1.5896 4.6215 1.06 8.8825 1.5896 12.783 1.5896 9.6668 0 14.501-2.8616 14.501-8.5854 0-3.9008-3.7312-6.9104-11.193-9.0307l-10.811-2.9888c-11.321-3.0528-16.982-8.6293-16.982-16.728 0-5.0456 1.9089-9.1365 5.7248-12.274 4.2821-3.5192 10.387-5.278 18.315-5.278z"/>
		<path d="m299.14 14.257c3.4768 0 5.2142 1.3991 5.2142 4.1975v26.265c5.724-6.2751 12.7-9.4116 20.925-9.4116 6.7414 0 12.168 2.0987 16.281 6.2962 4.5792 4.6639 6.8696 11.363 6.8696 20.097v32.817c0 2.7135-1.9088 4.0712-5.7248 4.0712-1.8232 0-3.4556-0.15004-4.8971-0.44673v-35.169c0-12.253-5.0868-18.38-15.263-18.38-8.0983 0-14.12 3.5827-18.063 10.748v39.178c0 2.7135-1.8655 4.0712-5.597 4.0712-2.2472 0-3.838-0.19147-4.7704-0.57316v-83.25c1.4416-0.33913 3.1172-0.5091 5.0252-0.5091z"/>
	</g>
	<g>
		<path d="m22.111 31.49c-14.645 1.5981-22.111 10.401-22.111 20.907 0 8.6455 6.2875 16.793 18.076 19.046l14.199 2.7247c5.1873 0.99551 7.8594 2.1483 7.8594 4.9776 0 2.1483-2.0173 4.4276-8.6977 4.4276-6.0517 0-14.199-0.91694-19.386-0.91694-4.9776 0-10.27 2.253-10.27 12.051 0 1.2051 0.20959 2.7247 0.47156 3.9299 7.4663 0.86455 23.107 2.2269 33.953 1.0479 14.96-1.5981 22.32-9.8244 22.32-21.064 0-9.6932-5.9995-17.579-19.885-20.146l-13.544-2.515c-4.349-0.75975-7.0472-1.7553-7.0472-4.2179 0-2.3316 2.8557-4.2179 9.7718-4.2179 6.7853 0 12.758 0.70736 16.557 0.70736 4.9776 0 10.165-2.122 10.165-11.921 0-1.3099-0.15719-2.515-0.41918-3.7726-5.3181-0.65494-13.78-1.5195-22.216-1.5195-3.3534-0.02619-6.6806 0.13099-9.7983 0.47156m84.203 7.5714-22.661 24.731 18.208 28.66c3.3795 5.2399 7.8072 7.8859 15.012 7.8859 4.7156 0 8.6455-1.1003 10.479-1.9649l-21.954-33.009 15.562-16.478 25.517 40.006-15.562 32.748c1.5719 0.78594 4.7156 1.7553 8.6977 1.8339 6.8639 0.15719 10.558-2.4627 13.361-8.593l36.704-81.739c-1.5195-0.81213-4.899-1.729-7.5975-1.7553-4.7156-0.10479-11.082 0.83836-15.116 10.506l-11.868 28.006-23.317-37.882c-1.5195-0.47156-5.1873-1.1003-7.8594-1.1003-8.2525-0.02619-12.838 2.9865-17.605 8.1478m-41.918-19.073v79.906c1.3099 0.20961 2.6723 0.28818 4.2179 0.28818 11.789 0 14.147-3.4582 14.147-9.4838v-82.68c-1.4148-0.28818-2.908-0.47156-4.4276-0.47156-11.894 0.026192-13.938 6.3401-13.938 12.444" fill="#ff9d00"/>
		<path d="m6.5351e-4 52.395c0-10.506 7.4663-19.308 22.111-20.907 3.1175-0.34058 6.4448-0.49776 9.7457-0.41918 8.4358 0 16.898 0.86455 22.216 1.5195 0.26199 1.2575 0.41918 2.4627 0.41918 3.7726 0 9.7983-5.1873 11.921-10.165 11.921-3.7987 0-9.7718-0.70737-16.557-0.70737-6.9164 0-9.7718 1.8863-9.7718 4.2179 0 2.4627 2.6984 3.4582 7.0472 4.2179l13.544 2.515c13.885 2.5674 19.885 10.453 19.885 20.146 0 0.70737-0.02608 1.3885-0.07858 2.0435v0.18338h-0.02608c0.28819-5.1612-2.9866-10.296-9.0121-10.086-2.5937 0.078575-14.566 0.49776-16.164 0.55014-5.1612 0.20961-12.129-0.26199-15.143-0.78594-3.6417-0.62875-7.3095-1.5457-10.872-3.8774-4.7156-3.7202-7.1783-8.9075-7.1783-14.304zm68.926 17.763c1.9649-0.05238 7.545-0.26199 9.1955-0.31438 1.8076-0.05238 4.611-1.3099 4.6635-4.6896v-57.112c-0.05238 0-0.07858-0.026192-0.131-0.026192h-9.248c-7.5714 1.5457-9.0382 6.8378-9.0382 11.972v54.78c0.02608-2.2006 1.729-4.5323 4.5584-4.611zm62.509-4.8989c1.8862 2.4627 4.7421 2.515 5.3446 2.4888 0.55014 0 14.226-0.49776 14.854-0.52399 0.96932-0.02608 2.0435 0.49776 2.8818 1.6766l-22.74-36.913c-1.5195-0.47156-5.1873-1.1003-7.8594-1.1003-8.2525 0-12.838 3.0128-17.605 8.1739l-22.661 24.731 1.8076 2.8557c0.75975 1.0479 2.3316 2.8294 5.3706 2.6984 1.0741-0.02608 12.025-0.41918 12.916-0.44537 2.8294-0.1048 4.611 1.1003 5.7112 2.5413l-4.0346-6.0781 15.562-16.478zm58.211-32.119c-1.5195-0.81213-4.899-1.729-7.5714-1.7553-0.20958-0.02619-0.39296-0.02619-0.57637-0.02619-4.6631 0.02619-10.663 1.2838-14.54 10.531l-11.58 27.325c0.0261-0.02608 0.75974-2.122 3.0128-2.2269 0 0 11.396-0.39299 12.26-0.41918 3.7202-0.131 5.2134-2.6984 5.58-3.5106l13.414-29.892z" fill="url(#linearGradient2624)" opacity=".35"/>
		<path d="m218.05 0c-4.795 0-8.7257 3.9306-8.7257 8.7257v113.54c0 4.7954 3.9306 8.7257 8.7257 8.7257h573.19c4.795 0 8.7257-3.9306 8.7257-8.7257v-113.54c0-4.7954-3.9306-8.7257-8.7257-8.7257zm0 4.4537h573.19c2.7509 0 4.2719 1.551 4.2719 4.2719v113.54c0 2.721-1.5212 4.2719-4.2719 4.2719h-573.19c-2.7509 0-4.2719-1.551-4.2719-4.2719v-113.54c0-2.7211 1.5212-4.2719 4.2719-4.2719z" fill="url(#linearGradient308)"/>
		<path d="m215.59 64.973s0.28819-0.02608 0.83836-0.05238c25.832-0.91694 577.05-8.2264 577.05-8.2264 3.6416-0.02608 6.5494-3.0128 6.5234-6.6281v-41.287c0-4.8468-3.9299-8.7763-8.7763-8.7763h-573.19c-4.8203 0-8.7242 3.9034-8.7242 8.7242v63.06c-0.10481-3.5892 2.6984-6.6281 6.2875-6.8117z" fill="url(#linearGradient2224-7-1)" opacity=".3"/>
	</g>
</svg>
