<svg xmlns="http://www.w3.org/2000/svg" xmlns:xlink="http://www.w3.org/1999/xlink" width="1904.765" height="500.134" viewBox="0 0 1428.574 375.101"><defs><linearGradient gradientUnits="userSpaceOnUse" gradientTransform="matrix(-2.9812 0 0 -2.9812 -24493 -13655)" y2="-4591.4" y1="-4687.6" x2="-8600.5" x1="-8600.5" id="b"><stop offset="0" stop-color="#054147"/><stop offset=".381" stop-color="#174a4f"/><stop offset="1" stop-color="#004c54"/></linearGradient><linearGradient id="a" x1="-8600.5" x2="-8600.5" y1="-4687.6" y2="-4591.4" gradientTransform="matrix(-2.9812 0 0 -2.9812 -24493 -13655)" gradientUnits="userSpaceOnUse"><stop stop-color="#054147" offset="0"/><stop stop-color="#174a4f" offset=".381"/><stop stop-color="#004c54" offset="1"/></linearGradient><linearGradient xlink:href="#a" id="d" gradientUnits="userSpaceOnUse" gradientTransform="rotate(179.944 -16624.41 -9103.318) scale(3.97493)" x1="-8600.5" y1="-4687.6" x2="-8600.5" y2="-4591.4"/><linearGradient xlink:href="#b" id="e" gradientUnits="userSpaceOnUse" gradientTransform="matrix(-2.9812 0 0 -2.9812 -24493 -13655)" x1="-8600.5" y1="-4687.6" x2="-8600.5" y2="-4591.4"/><linearGradient gradientUnits="userSpaceOnUse" gradientTransform="matrix(-2.9812 0 0 -2.9812 -24493 -13655)" y2="-4591.4" y1="-4687.6" x2="-8600.5" x1="-8600.5" id="c"><stop offset="0" stop-color="#a80000"/><stop offset=".381" stop-color="#a1000c"/><stop offset="1" stop-color="#b90019"/></linearGradient></defs><path d="M832.283.012l-.008 500.105s683.79.016 1039.149.016c18.337 0 33.341-15.005 33.341-33.342V33.354c0-18.338-15.004-33.342-33.341-33.342z" transform="scale(.75)" fill="url(#d)" stroke-width="1.333"/><path d="M624.206 375.089h-599.2C11.253 375.089 0 363.836 0 350.083V24.693C0 11.565 10.94 0 24.693 0h599.52zM719.5 182.856l67.314-62.332c2.148-1.805 3.953-2.88 7.174-2.88 5.757 0 9.666 4.339 9.666 9.322 0 2.876-1.072 5.026-3.566 7.174l-68.431 61.258 79.558 66.627c2.835 2.492 3.565 4.296 3.565 7.131 0 5.026-3.952 9.322-9.665 9.322-3.22 0-5.027-1.072-7.174-2.88L719.5 208.283v59.797c0 5.757-4.64 10.396-10.396 10.396-5.714 0-10.396-4.64-10.396-10.396V44.614c0-5.757 4.296-10.396 10.396-10.396 5.756 0 10.396 3.952 10.396 10.396v138.238m192.665-46.219h-.343c-28.653 0-44.075 29.383-44.075 69.12v62.33c0 5.37-4.296 10.397-10.396 10.397-6.057 0-10.396-5.026-10.396-10.396V127.698c0-6.1 4.34-10.396 10.396-10.396 6.1 0 10.396 4.296 10.396 10.396v26.118c4.682-20.405 22.553-36.514 44.075-36.514h.687c6.1 0 10.052 3.22 10.052 9.322 0 5.713-3.608 10.009-10.396 10.009m50.132 141.847c-5.713 0-10.396-4.64-10.396-10.396V127.698c0-5.714 4.683-10.396 10.396-10.396 5.714 0 10.396 4.682 10.396 10.396v140.386c0 5.756-4.682 10.396-10.396 10.396zm0-219.558c7.905 0 13.962 6.1 13.962 13.961 0 7.905-6.057 13.962-13.962 13.962-7.861 0-13.961-6.057-13.961-13.962 0-7.86 6.1-13.96 13.961-13.96m56.919 68.775c0-5.714 4.296-10.396 10.396-10.396 6.1 0 10.396 4.682 10.396 10.396v20.405c10.396-21.823 28.997-32.219 53.01-32.219 26.118 0 44.762 13.618 53.697 36.17 11.857-23.282 31.531-36.17 59.11-36.17 37.975 0 59.84 27.923 59.84 70.193v82.007c0 5.756-4.682 10.396-10.395 10.396a10.377 10.377 0 0 1-10.396-10.396V186.42c0-32.949-13.961-51.55-43.688-51.55-29.383 0-48.37 24.358-48.37 57.306v75.907c0 5.756-4.64 10.396-10.396 10.396-5.714 0-10.353-4.64-10.353-10.396V186.42c0-32.949-14.005-51.55-43.688-51.55-29.384 0-48.371 24.358-48.371 57.306v75.907c0 5.756-4.64 10.396-10.396 10.396-5.713 0-10.396-4.64-10.396-10.396V127.698M1320.78 278.48a10.377 10.377 0 0 1-10.395-10.396V127.698c0-5.714 4.64-10.396 10.396-10.396 5.713 0 10.395 4.682 10.395 10.396v140.386c0 5.756-4.682 10.396-10.395 10.396zm0-219.558c7.862 0 13.962 6.1 13.962 13.961 0 7.905-6.1 13.962-13.961 13.962-7.862 0-14.005-6.057-14.005-13.962 0-7.86 6.143-13.96 14.005-13.96" fill="#fff"/><path transform="translate(-.004 -.001)" d="M421.97 333.52c4.064 2.188 12.19 4.689 22.818 4.689 17.817.312 27.507-6.565 34.696-22.505l95.648-213.18c-4.063-2.188-12.816-4.376-19.692-4.689-12.19-.313-28.757 2.188-39.384 27.507l-30.945 73.142-60.952-98.461c-4.063-1.25-13.441-2.813-20.63-2.813-21.255 0-33.445 7.814-45.948 21.255l-58.764 64.39 47.511 74.705c8.752 13.753 20.317 20.63 39.072 20.63 12.19 0 22.505-2.813 27.194-5.001l-57.201-86.27 40.635-42.823 66.578 104.4zm-125.34-80.644c0 15.629-6.252 24.693-36.884 24.693-4.064 0-7.502-.313-10.94-.938V68.461c0-15.94 5.314-32.195 36.258-32.195 3.75 0 7.814.313 11.565 1.25zm-63.452-31.257c0 29.382-19.067 50.637-58.139 55.013-28.132 3.126-69.079-.625-88.458-2.813-.625-3.126-1.25-7.19-1.25-10.315 0-25.631 13.753-31.57 26.88-31.57 13.442 0 34.697 2.188 50.638 2.188 17.504 0 22.505-5.94 22.505-11.565 0-7.502-6.877-10.315-20.63-13.128l-36.571-6.564c-30.632-5.94-46.886-27.194-46.886-49.7 0-27.505 19.38-50.323 57.513-54.7 28.757-3.125 64.078.313 83.145 2.814.625 3.438.937 6.564.937 10.002 0 25.631-13.44 30.945-26.569 30.945-10.002 0-25.318-1.875-43.135-1.875-18.129 0-25.318 5-25.318 10.94 0 6.251 7.19 9.064 18.442 10.94l35.321 6.564c36.26 6.876 51.575 27.507 51.575 52.825" fill="url(#e)"/><path d="M19.08.005C8.588.005 0 11.258 0 25.011v226.3c0-20.005 12.211-36.509 27.476-37.259l1401.1-69.266V25.006c0-13.753-8.587-25.006-19.081-25.006z" opacity=".2" fill="#fff" stroke-width=".874"/></svg>