<svg xmlns="http://www.w3.org/2000/svg" width="800" height="204.32"><g transform="scale(.40855918)"><path fill="#1a4e54" d="M1924.7 0H831.8c-18.4 0-33.3 14.9-33.3 33.4v433.3c0 18.4 14.9 33.4 33.3 33.4h1092.9c18.4 0 33.3-15 33.3-33.4V33.4c.1-18.5-14.9-33.4-33.3-33.4"/><path d="M499.5 464c5.9 3.1 18 6.8 33.2 7.1 26.2.6 40.4-9.4 50.9-32.8l140.1-311.8c-5.8-3.1-18.6-6.5-29-6.7-18.1-.4-42.3 3.2-57.7 40.1l-45.3 106.8-89-144.6c-5.7-1.7-19.8-4.2-29.9-4.2-31.5 0-49 11.5-67.3 31.2l-86.4 94.4 69.5 109.3c12.9 20 29.8 30.1 57.2 30.1 18 0 33.1-4.3 40-7.5l-83.8-126 59.4-62.8 97.4 152.6L499.5 464M315.8 346.1c0 23-9.1 36.2-54 36.2-6 0-11.1-.4-16.1-1.1v-305c0-23.2 7.9-47.4 53.2-47.4 5.8 0 11.6.6 17 1.7v315.6M223 300c0 43-28.1 74.2-85.1 80.4-41.3 4.4-101-.8-129.5-4-1-4.6-1.7-10.4-1.7-14.9 0-37.4 20.2-46.1 39.2-46.1 19.8 0 50.9 3.4 74 3.4 25.6 0 33.3-8.6 33.3-16.8 0-10.8-10.2-15.2-30-19L69 272.6C24 264 0 232.9 0 199.9c0-40.1 28.4-73.6 84.3-79.8 42.3-4.6 93.7.6 122 4 1 4.8 1.5 9.4 1.5 14.4C207.8 176 188 184 169 184c-14.6 0-37.2-2.7-63.2-2.7-26.3 0-37.3 7.3-37.3 16.1 0 9.4 10.4 13.3 26.9 16.1l51.7 9.6c53 9.8 75.9 39.9 75.9 76.9m883.9 64.6c-8.4 4.9-18.6 8.4-28.5 8.4-11.8 0-19.1-3.5-29-12.8L945.9 258.6v99.2c0 9.8-5.4 15.2-21.6 15.2-6.9 0-14.7-1-18.6-2V65.7c0-9.3 5.4-15.2 21.6-15.2 6.9 0 14.8 1 18.6 2v189.4l96.2-96.2c8.9-8.8 17.2-12.7 28.5-12.7 9.8 0 19.7 3 29 8.4l-112 107.9zm178-212c0 16.2-6.9 19.7-23.5 19.7-33.9 0-62.3 15.7-80 52.5v133c0 9.8-5.4 15.2-21.6 15.2-6.9 0-14.8-1-18.7-2V134.9c3.9-1 11.8-2 18.7-2 16.2 0 21.6 5.9 21.6 15.2V181c23.1-34.9 57.9-52.5 101.6-46.6.4 3.5 1.9 10.9 1.9 18.2m29.5-71.1c0-14.7 11.8-25.6 25.5-25.6 14.7 0 26 10.8 26 25.6 0 13.3-11.3 25.5-26 25.5-13.8-.1-25.5-12.3-25.5-25.5m5.4 289.5V148.2c0-9.3 5.4-15.2 21.6-15.2 6.9 0 14.2 1 18.1 2v222.8c0 9.8-4.9 15.2-21.1 15.2-6.9 0-14.7-1-18.6-2m430.9-155.1v141.9c0 9.8-5.4 15.2-21.6 15.2-6.9 0-14.7-1-18.6-2V220.8c0-34.3-16.2-54.5-47.1-54.5-26 0-47.6 18.2-56.4 36.8v154.6c0 9.8-5.4 15.2-21.6 15.2-6.9 0-14.7-1-18.6-2V220.8c0-34.3-16.2-54.5-47.1-54.5-26 0-47.6 18.2-56.4 36.8v154.6c0 9.8-5.4 15.2-21.6 15.2-6.9 0-14.7-1-18.6-2v-236c3.9-1 11.8-2 19.1-2 15.2 0 20.6 5.9 20.6 16.2v16.2c15.2-20.1 38.8-34.9 67.2-34.9 31.4 0 56 15.7 68.2 42.7 16.2-24.5 40.7-42.7 75.6-42.7 50.4.1 76.9 37.9 76.9 85.5m56.4-134.4c0-14.7 11.8-25.6 25.5-25.6 14.7 0 26 10.8 26 25.6 0 13.3-11.3 25.5-26 25.5-13.7-.1-25.5-12.3-25.5-25.5m5.4 289.5V148.2c0-9.3 5.4-15.2 21.6-15.2 6.9 0 14.2 1 18.1 2v222.8c0 9.8-4.9 15.2-21.1 15.2-6.9 0-14.7-1-18.6-2" fill="#fff"/><linearGradient id="A" gradientUnits="userSpaceOnUse" x1="1381.318" y1="236.558" x2="1372.621" y2="-12.496"><stop offset="0" stop-color="#fff"/><stop offset=".12" stop-color="#fff" stop-opacity=".835"/><stop offset=".269" stop-color="#fff" stop-opacity=".658"/><stop offset=".42" stop-color="#fff" stop-opacity=".511"/><stop offset=".568" stop-color="#fff" stop-opacity=".397"/><stop offset=".716" stop-color="#fff" stop-opacity=".315"/><stop offset=".86" stop-color="#fff" stop-opacity=".266"/><stop offset="1" stop-color="#fff" stop-opacity=".25"/></linearGradient><path opacity=".25" fill="url(#A)" d="M822.8 248.2l3.2-.2 1107.2-39.1c13.9-.1 25-11.5 24.9-25.3V33.4c0-18.4-14.9-33.3-33.3-33.3H832.1c-18.4 0-33.3 14.9-33.3 33.3V274c-.4-13.6 10.3-25.1 24-25.8z"/><linearGradient id="B" gradientUnits="userSpaceOnUse" x1="365.449" y1="263.249" x2="359.6" y2="95.752"><stop offset="0" stop-color="#fff"/><stop offset=".12" stop-color="#fff" stop-opacity=".835"/><stop offset=".269" stop-color="#fff" stop-opacity=".658"/><stop offset=".42" stop-color="#fff" stop-opacity=".511"/><stop offset=".568" stop-color="#fff" stop-opacity=".397"/><stop offset=".716" stop-color="#fff" stop-opacity=".315"/><stop offset=".86" stop-color="#fff" stop-opacity=".266"/><stop offset="1" stop-color="#fff" stop-opacity=".25"/></linearGradient><path opacity=".25" fill="url(#B)" d="M723.9 126.5l-51.3 114.2c-4 8.2-12.3 13.4-21.4 13.4l-46.8 1.6c-5.1.3-9.6 3.7-11.4 8.5v-.1l44.2-104.2c15.4-36.8 39.6-40.5 57.6-40.1 10.1.3 19.9 2.6 29.1 6.7zM589.5 263l-86.6-140.8c-9.8-2.6-19.9-4-30-4.2-31.5 0-49 11.5-67.2 31.3l-86.5 94.4 6.9 10.9c4.5 6.8 12.3 10.7 20.5 10.3l49.3-1.7a24.67 24.67 0 0 1 21.8 9.8h0l-15.5-23.3 59.4-62.9 39.9 62.5h0c4.9 6.2 12.5 9.7 20.4 9.5l56.7-2c4.4 0 8.6 2.4 10.9 6.2zM299 28.9c-45.3 0-53.2 24.2-53.2 47.4v209c0-9.6 7.7-17.4 17.3-17.7l35.1-1.2c9.8 0 17.8-8 17.8-17.8h0v-218c-5.7-1.2-11.3-1.8-17-1.7zM147.2 223.1l-51.7-9.6c-16.5-2.9-26.9-6.7-26.9-16.1 0-8.8 11-16.1 37.3-16.1 25.9 0 48.6 2.7 63.2 2.7 19 0 38.8-8.1 38.8-45.5 0-4.8-.5-9.7-1.5-14.4-28.2-3.5-79.7-8.6-122-4-56 6.2-84.4 39.8-84.4 79.8.1 21.4 10.2 41.6 27.3 54.5 12.6 7.8 26.8 12.9 41.5 14.8 19.2 2.6 38.5 3.6 57.8 3l61.7-2.2c23.1-.8 35.7 18.9 34.4 38.7 0-.3 0-.5.1-.8v-.2c.2-2.6.3-5.2.3-7.8 0-36.8-22.9-67-75.9-76.8z"/></g></svg>