<svg xmlns="http://www.w3.org/2000/svg" width="450" height="96.154"><linearGradient id="A" gradientUnits="userSpaceOnUse" x1="153.573" y1="48.077" x2="449.989" y2="48.077"><stop offset="0" stop-color="#2b6300"/><stop offset="1" stop-color="#3e8f00"/></linearGradient><path d="M443.59 0H160.016a6.43 6.43 0 0 0-6.41 6.41v83.333a6.43 6.43 0 0 0 6.41 6.41H443.59a6.43 6.43 0 0 0 6.41-6.41V6.41A6.43 6.43 0 0 0 443.59 0z" fill="url(#A)"/><path d="M96.074 89.263c1.122.561 3.446 1.282 6.41 1.362 5.048.08 7.772-1.843 9.776-6.33l26.923-59.936c-1.122-.561-3.606-1.282-5.609-1.282-3.446-.08-8.093.641-11.058 7.692l-8.734 20.513-17.067-27.804c-1.122-.321-3.846-.801-5.769-.801-6.09 0-9.455 2.244-12.901 6.01L61.378 46.795 74.76 67.788c2.484 3.846 5.689 5.769 10.978 5.769 3.446 0 6.33-.801 7.692-1.442L77.324 47.997l11.378-12.099 18.75 29.327zM60.737 66.587c0 4.407-1.763 6.971-10.417 6.971-1.122 0-2.163-.08-3.125-.24V14.663c0-4.487 1.522-9.135 10.256-9.135 1.122 0 2.244.08 3.285.321zm-17.869-8.894c0 8.253-5.369 14.263-16.346 15.465-7.933.881-19.471-.16-24.92-.801-.16-.881-.321-2.003-.321-2.885 0-7.212 3.846-8.814 7.532-8.814 3.766 0 9.776.641 14.263.641 4.888 0 6.41-1.683 6.41-3.205 0-2.083-1.923-2.885-5.769-3.686l-10.417-2.003C4.647 50.801 0 44.792 0 38.462c0-7.692 5.449-14.183 16.186-15.304 8.093-.881 18.029.08 23.478.801.16.881.321 1.843.321 2.804 0 7.212-3.766 8.734-7.452 8.734-2.804 0-7.131-.481-12.179-.481s-7.131 1.362-7.131 3.125c0 1.843 2.003 2.564 5.208 3.125l9.936 1.843c10.096 1.683 14.503 7.452 14.503 14.583z" fill="#2b6300"/><linearGradient id="B" gradientUnits="userSpaceOnUse" x1="70.259" y1="50.615" x2="69.134" y2="18.41"><stop offset="0" stop-color="#fff"/><stop offset="1" stop-color="#fff" stop-opacity=".25"/></linearGradient><path d="M139.183 24.359l-9.856 21.955c-.321.561-1.362 2.484-4.087 2.564l-8.974.321c-1.603.08-2.163 1.603-2.163 1.603l8.494-20.032c2.965-7.051 7.612-7.772 11.058-7.692 1.923 0 4.407.641 5.529 1.282zm-25.801 26.202L96.715 23.478c-1.122-.321-3.846-.801-5.769-.801-6.09 0-9.455 2.244-12.901 6.01L61.378 46.795l1.362 2.083c.561.801 1.683 2.083 3.926 2.003.801 0 8.814-.321 9.455-.321 2.083-.08 3.365.801 4.167 1.843l-2.965-4.487 11.378-12.099 7.692 12.019c1.362 1.843 3.446 1.843 3.926 1.843.401 0 10.417-.401 10.897-.401.721 0 1.522.401 2.163 1.282zM57.452 5.529c-8.734 0-10.176 4.647-10.176 9.135v40.224c0-1.603 1.282-3.285 3.285-3.365 1.442-.08 5.529-.16 6.731-.24 1.362-.08 3.365-.962 3.446-3.446V5.849c-1.042-.16-2.163-.321-3.285-.321zm-29.167 37.42l-9.936-1.843c-3.205-.561-5.208-1.282-5.208-3.125 0-1.683 2.083-3.125 7.131-3.125 4.968 0 9.375.481 12.179.481 3.686 0 7.452-1.522 7.452-8.734 0-.962-.08-1.843-.321-2.804-5.449-.641-15.304-1.683-23.478-.801C5.449 24.279 0 30.769 0 38.462c0 3.926 1.763 7.772 5.288 10.497 2.644 1.683 5.288 2.404 8.013 2.885 2.244.401 7.292.721 11.138.561 1.202-.08 9.936-.321 11.859-.401 4.407-.16 6.891 3.606 6.571 7.452v-.24c.08-.481.08-.962.08-1.522-.08-7.131-4.487-12.901-14.663-14.744z" opacity=".3" fill="url(#B)"/><path d="M213.942 44.391V68.83c0 1.763-1.042 2.965-4.167 2.965-1.282 0-2.804-.16-3.606-.401V45.433c0-9.054-4.407-13.381-11.138-13.381-5.208 0-10.817 3.606-13.141 7.853V68.91c0 1.763-1.042 2.965-4.167 2.965-1.282 0-2.804-.16-3.606-.401V25.962c.721-.16 2.244-.401 3.606-.401 3.125 0 4.167 1.122 4.167 2.965v3.846c3.285-4.087 8.333-7.292 14.984-7.292 9.295 0 17.067 5.849 17.067 19.311zm47.837-2.083v29.006c-.721.16-2.163.401-3.526.401-2.804 0-4.167-1.042-4.167-2.965v-3.926c-4.087 4.647-9.375 7.372-16.026 7.372-10.096 0-15.705-6.571-15.705-13.782 0-10.978 11.699-15.785 31.651-14.423v-1.603c0-7.452-2.244-10.577-10.817-10.577-3.606 0-8.413 1.042-10.978 1.683-1.522.401-2.644.721-3.606.721-2.163 0-3.606-1.923-2.804-5.849 4.647-1.683 11.298-3.285 17.708-3.285 13.301 0 18.269 5.929 18.269 17.228zm-7.772 15.865v-8.654c-13.061-.962-23.878.721-23.878 8.574 0 3.926 3.285 7.532 9.215 7.532 6.09.08 11.378-2.965 14.663-7.452zm46.715 10.897c-3.926 1.923-8.494 3.125-13.061 3.125-8.974 0-14.343-5.288-14.343-14.103V19.151c0-2.003 1.122-3.285 4.167-3.285 1.282 0 2.804.321 3.606.481v9.856h17.628c.08.641.321 2.003.321 3.125 0 2.724-1.122 3.686-2.804 3.686H281.17v24.599c0 5.288 2.484 7.853 7.452 7.853 4.567 0 7.051-2.003 9.215-2.003 2.244 0 3.365 1.843 2.885 5.609zm45.593-43.109v45.353c-.721.16-2.244.401-3.606.401-3.125 0-4.167-1.122-4.167-2.965v-3.846c-3.285 4.087-8.333 7.292-14.984 7.292-9.215 0-16.987-5.849-16.987-19.231V28.526c0-1.763 1.042-2.965 4.167-2.965 1.282 0 2.804.16 3.606.401v25.962c0 9.054 4.407 13.381 11.138 13.381 5.208 0 10.817-3.606 13.141-7.853V28.526c0-1.763 1.042-2.965 4.167-2.965 1.282 0 2.804.24 3.526.401zm39.904 3.365c0 3.125-1.282 3.766-4.567 3.766-6.49 0-12.019 3.045-15.385 10.096V68.75c0 1.923-1.042 2.965-4.167 2.965-1.282 0-2.804-.16-3.606-.401V25.962c.721-.16 2.244-.401 3.606-.401 3.125 0 4.167 1.122 4.167 2.965v6.33c4.407-6.731 11.138-10.096 19.551-8.974.08.641.401 2.083.401 3.446zm45.673 22.115h-35.096c1.042 8.814 7.051 13.702 16.026 13.702 3.846 0 6.891-.721 9.696-1.683 2.003-.641 2.804-.962 3.606-.962 2.163 0 3.606 1.763 3.205 5.929-4.087 1.763-10.256 3.766-16.827 3.766-14.183 0-23.718-9.535-23.718-23.718 0-13.622 10.096-23.397 22.436-23.397 13.942 0 20.833 10.817 20.833 21.795.08 1.362 0 2.965-.16 4.567zm-35.096-6.01h27.885c-.321-7.772-5.288-13.782-13.301-13.782-7.051 0-13.381 4.808-14.583 13.782z" fill="#fff"/><linearGradient id="C" gradientUnits="userSpaceOnUse" x1="302.295" y1="44.201" x2="300.623" y2="-3.684"><stop offset="0" stop-color="#fff"/><stop offset="1" stop-color="#fff" stop-opacity=".25"/></linearGradient><path d="M158.173 47.676h.641L445.192 37.66c2.404-.08 4.808-1.843 4.808-4.888V6.41A6.43 6.43 0 0 0 443.59 0H160.016a6.43 6.43 0 0 0-6.41 6.41v46.314c0-.561.08-4.567 4.567-5.048z" opacity=".3" fill="url(#C)"/></svg>