<?xml version="1.0" encoding="UTF-8"?>
<svg width="800" height="146.22" version="1.1" xmlns="http://www.w3.org/2000/svg">
	<defs>
		<linearGradient id="A" x1="1456.7" x2="1456.7" y2="500" gradientTransform="matrix(.29244 0 0 .29244 -.0033911 0)" gradientUnits="userSpaceOnUse">
			<stop stop-color="red" offset=".4"/>
			<stop stop-color="#d42321" offset="1"/>
		</linearGradient>
		<linearGradient id="B" x1="1459.5" x2="1450.8" y1="233.73" y2="-15.325" gradientTransform="matrix(.29244 0 0 .29244 -.0033911 0)" gradientUnits="userSpaceOnUse">
			<stop stop-color="#fff" offset="0"/>
			<stop stop-color="#fff" stop-opacity=".835" offset=".12"/>
			<stop stop-color="#fff" stop-opacity=".658" offset=".269"/>
			<stop stop-color="#fff" stop-opacity=".511" offset=".42"/>
			<stop stop-color="#fff" stop-opacity=".397" offset=".568"/>
			<stop stop-color="#fff" stop-opacity=".315" offset=".716"/>
			<stop stop-color="#fff" stop-opacity=".266" offset=".86"/>
			<stop stop-color="#fff" stop-opacity=".25" offset="1"/>
		</linearGradient>
		<linearGradient id="C" x1="361.92" x2="361.92" y1="28.806" y2="471.22" gradientTransform="matrix(.29244 0 0 .29244 -.0033911 0)" gradientUnits="userSpaceOnUse">
			<stop stop-color="#cbcbcb" offset="0"/>
			<stop stop-color="#d4d4d4" offset=".8"/>
		</linearGradient>
		<linearGradient id="D" x1="365.45" x2="359.6" y1="263.25" y2="95.751" gradientTransform="matrix(.29244 0 0 .29244 -.0033911 0)" gradientUnits="userSpaceOnUse">
			<stop stop-color="#fff" offset="0"/>
			<stop stop-color="#fff" stop-opacity=".835" offset=".12"/>
			<stop stop-color="#fff" stop-opacity=".658" offset=".269"/>
			<stop stop-color="#fff" stop-opacity=".511" offset=".42"/>
			<stop stop-color="#fff" stop-opacity=".397" offset=".568"/>
			<stop stop-color="#fff" stop-opacity=".315" offset=".716"/>
			<stop stop-color="#fff" stop-opacity=".266" offset=".86"/>
			<stop stop-color="#fff" stop-opacity=".25" offset="1"/>
		</linearGradient>
	</defs>
	<path d="m243.34 0h365.31c5.3808 0 9.7384 4.3573 9.7384 9.7384v126.74c0 5.3808-4.3573 9.7384-9.7384 9.7384h-365.31c-5.3808 0-9.7384-4.3573-9.7384-9.7384v-126.74c0-5.3808 4.3573-9.7384 9.7384-9.7384z" fill="url(#A)"/>
	<path d="m240.61 72.524 0.93575-0.05848 369.55-12.896c4.0648-0.02925 7.3109-3.363 7.2816-7.3987v-42.432c0-5.3808-4.3573-9.7384-9.7384-9.7384h-365.31c-5.3808 0-9.7384 4.3573-9.7384 9.7384v70.389c-0.11698-4.0064 3.0121-7.3987 7.0185-7.6033z" fill="url(#B)" opacity=".4"/>
	<path d="m146.1 135.72c3.0705 1.3452 6.3751 2.0763 9.7087 2.0763 7.6326 0.17548 11.815-2.7489 14.885-9.5916l40.971-91.211c-2.6612-1.199-5.5562-1.8716-8.4807-1.9593-5.293-0.11698-12.37 0.96502-16.844 11.727l-13.247 31.232-26.027-42.286c-2.8659-0.76034-5.8195-1.1698-8.773-1.2282-9.2117 0-14.329 3.363-19.652 9.1532l-25.296 27.606 20.324 31.992c3.7725 5.8194 8.7146 8.8023 16.757 8.8023 4.0064 0.0585 7.9835-0.6726 11.698-2.1932l-24.506-36.847 17.371-18.394 28.483 44.655zm-53.72-34.478c0 6.726-2.6319 10.586-15.791 10.586-1.5791 0-3.1583-0.11696-4.7082-0.32167v-89.222c0-6.7845 2.3102-13.862 15.557-13.862 1.6669 0 3.3337 0.17546 4.9421 0.49714zm-27.138-13.482c0 12.575-8.2175 21.699-24.887 23.512-12.078 1.2867-29.566-0.23395-37.87-1.1698-0.29244-1.433-0.46789-2.8951-0.49714-4.3866 0-10.937 5.9072-13.452 11.464-13.452 5.7902 0 14.885 1.0235 21.641 1.0235 7.4571 0 9.7087-2.515 9.7087-4.9421 0-3.1291-2.9828-4.445-8.773-5.5562l-15.85-3.0414c-13.159-2.515-20.178-11.61-20.178-21.26 0-11.727 8.3052-21.524 24.653-23.336 12.37-1.3452 27.431 0.17546 35.677 1.1698 0.29243 1.3745 0.43866 2.7782 0.43866 4.2111 0 10.937-5.7902 13.306-11.347 13.306-4.2696 0-10.908-0.78958-18.482-0.78958-7.691 0-10.908 2.1348-10.908 4.7082 0 2.7489 3.0414 3.8602 7.8665 4.7082l15.119 2.8073c15.528 2.8366 22.225 11.668 22.225 22.488z" fill="url(#C)"/>
	<path d="m790.26 0h-181.62v146.22h181.62c5.3808 0 9.7384-4.3573 9.7384-9.7384v-126.74c0.02925-5.3808-4.328-9.7384-9.7384-9.7384" fill="#cbcbcb"/>
	<path d="m790.26 2.9244c3.7724 0 6.8137 3.0705 6.8137 6.8137v126.74c7e-3 3.7658-3.0479 6.8202-6.8137 6.8137h-181.62v-140.37h181.62" fill="#fff"/>
	<path d="m211.69 36.993-15.002 33.396c-1.1698 2.398-3.597 3.9186-6.2582 3.9186l-13.686 0.4679c-1.4914 0.08773-2.8074 1.082-3.3338 2.4857v-0.02925l12.926-30.472c4.5035-10.761 11.581-11.844 16.844-11.727 2.9536 0.08773 5.8194 0.76032 8.5099 1.9593zm-39.303 39.917-25.325-41.175c-2.8659-0.76033-5.8194-1.1698-8.773-1.2282-9.2117 0-14.329 3.363-19.651 9.1532l-25.296 27.606 2.0178 3.1875c1.3159 1.9886 3.597 3.1291 5.9949 3.0121l14.417-0.49714a7.2144 7.2144 0 0 1 6.3751 2.8659l-4.5328-6.8137 17.371-18.394 11.668 18.277c1.433 1.8131 3.6555 2.8366 5.9657 2.7782l16.581-0.58487c1.2868 0 2.515 0.70184 3.1875 1.8131zm-84.952-68.459c-13.247 0-15.557 7.0769-15.557 13.862v61.119c0-2.8073 2.2518-5.0884 5.0591-5.1761l10.264-0.35092c2.8659 0 5.2053-2.3395 5.2053-5.2053v-63.751c-1.6669-0.35092-3.3045-0.52639-4.9714-0.49714zm-44.391 56.791-15.119-2.8073c-4.8252-0.84806-7.8665-1.9593-7.8665-4.7082 0-2.5734 3.2168-4.7082 10.908-4.7082 7.5741 0 14.213 0.78957 18.482 0.78957 5.5562 0 11.347-2.3687 11.347-13.306 0-1.4037-0.14622-2.8366-0.43866-4.2111-8.2467-1.0235-23.307-2.515-35.677-1.1698-16.377 1.8131-24.681 11.639-24.681 23.336 0.029244 6.2582 2.9828 12.165 7.9835 15.938 3.6847 2.281 7.8373 3.7725 12.136 4.328 5.6148 0.76034 11.258 1.0528 16.902 0.8773l18.043-0.64336c6.7553-0.23395 10.44 5.5271 10.06 11.317 0-0.08772 0-0.14622 0.02925-0.23394v-0.05849c0.05849-0.76032 0.08773-1.5207 0.08773-2.281 0-10.761-6.6968-19.593-22.196-22.459z" fill="url(#D)" opacity=".25"/>
	<path d="m261.56 105.08c-0.87731-6.0242 0.99428-9.1825 4.445-9.1825 3.2753 0 11.317 3.597 22.518 3.597 11.785 0 16.23-4.1818 16.23-9.6214 0-3.8602-1.7254-7.3109-12.341-10.206l-12.195-3.2753c-13.482-3.597-18.803-10.353-18.803-18.686 0-10.323 8.1882-19.534 26.699-19.534 8.3344 0 18.686 1.8716 24.974 4.328 1.1404 5.878-0.73108 9.0362-4.2988 9.0362-3.1584 0-10.323-3.0121-20.529-3.0121-10.908 0-14.943 3.7139-14.943 8.5976 0 3.4215 1.5791 6.6091 11.347 9.3287l12.487 3.4507c13.949 3.8602 19.534 10.323 19.534 19.506 0 10.791-8.3344 20.383-28.425 20.383-8.8901 0.0293-19.973-2.1348-26.699-4.7082m137.8-31.144c0 22.518-15.791 35.882-33.162 35.882-10.323 0-18.803-4.8837-23.833-11.756v29.01c0 2.7196-1.5791 4.445-6.1704 4.445-2.3103 0-4.445-0.29244-5.5856-0.55563v-91.473c1.1405-0.29243 3.2753-0.58487 5.5856-0.58487 4.5912 0 6.1704 1.7254 6.1704 4.445v6.5798c5.0299-6.8723 13.51-11.756 23.833-11.756 17.371 0 33.162 13.365 33.162 35.765m-11.902 0c0-15.06-10.03-25.413-23.541-25.413-9.1825 0-17.663 5.3223-21.524 13.072v24.828c3.8602 7.7496 12.341 13.072 21.524 13.072 13.482-0.0293 23.541-10.353 23.541-25.558m22.927 0c0-20.529 15.06-35.735 35.297-35.735 20.383 0 35.444 15.207 35.444 35.735 0 20.383-15.06 35.882-35.444 35.882-20.237-0.0293-35.297-15.528-35.297-35.882m58.838 0c0-15.791-10.644-25.413-23.541-25.413-12.75 0-23.395 9.6214-23.395 25.413 0 15.645 10.644 25.53 23.395 25.53 12.896 0 23.541-9.8843 23.541-25.53m68.81-29.302c0 4.7375-1.9886 5.7317-6.9015 5.7317-9.8843 0-18.219 4.5912-23.395 15.353v38.923c0 2.8659-1.5791 4.445-6.3166 4.445-2.0178 0-4.328-0.29244-5.4685-0.55563v-69.074c1.1405-0.29243 3.4214-0.55562 5.4685-0.55562 4.7082 0 6.3166 1.7254 6.3166 4.445v9.6214c6.726-10.206 16.932-15.353 29.711-13.627 0.1462 0.99428 0.58484 3.1583 0.58484 5.2931m51.615 60.447c-6.0242 2.8659-12.926 4.7375-19.798 4.7375-13.627 0-21.815-8.042-21.815-21.377v-59.277c0-3.0121 1.7254-5.0299 6.3166-5.0299 1.9886 0 4.2988 0.40941 5.4686 0.73109v14.914h26.816c0.14621 0.99428 0.43863 3.0121 0.43863 4.7375 0 4.1526-1.7254 5.5855-4.2988 5.5855h-22.956v37.49c0 8.0128 3.7139 11.902 11.317 11.902 6.9014 0 10.761-3.0121 14.066-3.0121 3.4507-0.0293 5.1761 2.8366 4.445 8.5976" fill="#fff"/>
	<path d="m730.46 36.038c-4.1925 0-8.0535 0.77258-11.584 2.3172-3.5305 1.5446-6.5829 3.8623-9.1573 6.9516-2.5008 3.0892-4.4864 6.9502-5.9574 11.584-1.3975 4.6338-2.0961 10.04-2.0961 16.218 0 6.1784 0.69855 11.585 2.0961 16.218 1.4711 4.6338 3.4566 8.4949 5.9574 11.584 2.5744 3.0892 5.6267 5.407 9.1573 6.9516s7.3916 2.3172 11.584 2.3172 8.0554-0.77256 11.586-2.3172c3.6041-1.5446 6.6925-3.8624 9.2669-6.9516 2.6479-3.0892 4.6714-6.9502 6.0689-11.584 1.4711-4.6338 2.2057-10.04 2.2057-16.218 0-6.1785-0.73464-11.585-2.2057-16.218-1.3975-4.6338-3.421-8.4949-6.0689-11.584-2.5744-3.0892-5.6628-5.407-9.2669-6.9516-3.5306-1.5446-7.3934-2.3172-11.586-2.3172zm-54.832 1.2153-15.888 7.7227c-2.5744 1.4711-3.8614 3.4927-3.8614 6.0671 0 1.1033 0.29422 2.2441 0.88265 3.421 0.58842 1.1768 1.3971 2.1696 2.4268 2.9787l13.571-6.3997v58.034c0.58843 0.14711 1.4711 0.25721 2.648 0.33076 1.1768 0.1471 2.3538 0.22113 3.5306 0.22113 2.3537 0 3.971-0.47835 4.8536-1.4345 0.95619-1.0298 1.4345-2.2807 1.4345-3.7517v-67.189zm54.832 9.1573c5.0752 0 9.1222 2.1697 12.138 6.5093 3.0157 4.3396 4.5229 11.069 4.5229 20.189 0 9.1206-1.5072 15.852-4.5229 20.191-3.0157 4.3396-7.0627 6.5093-12.138 6.5093-5.0752 0-9.0463-2.1336-11.915-6.3997-2.8686-4.2661-4.3036-11.033-4.3036-20.301 0-9.2677 1.435-16.035 4.3036-20.301 2.8686-4.2661 6.8397-6.3978 11.915-6.3978z" fill="#002a91"/>
</svg>
