<?xml version="1.0" encoding="UTF-8"?>
<svg width="800" height="139.75" version="1.1" xmlns="http://www.w3.org/2000/svg">
	<path d="m790.69 0h-308.04c-5.1148 0-9.2794 4.1645-9.2794 9.3073v121.13c0 5.1428 4.1645 9.3073 9.2794 9.3073h308.04c5.1428 0 9.3073-4.1645 9.3073-9.3073v-121.13c0.02795-5.1428-4.1366-9.3073-9.3073-9.3073m0 2.795c3.6055 0 6.5123 2.9347 6.5123 6.5123v121.13a6.5011 6.5011 0 0 1-6.5123 6.5123h-308.04c-3.5776 0-6.5123-2.9068-6.5123-6.5123v-121.13c0-3.5776 2.9347-6.5123 6.5123-6.5123h308.04" fill="#cbcbcb"/>
	<path d="m790.69 2.795c3.6055 0 6.5123 2.9347 6.5123 6.5123v121.13a6.5011 6.5011 0 0 1-6.5123 6.5123h-308.04c-3.5776 0-6.5123-2.9068-6.5123-6.5123v-121.13c0-3.5776 2.9347-6.5123 6.5123-6.5123h308.04" fill="#fff"/>
	<linearGradient id="A" x1="1456.7" x2="1456.7" y2="500" gradientTransform="scale(.2795)" gradientUnits="userSpaceOnUse">
		<stop stop-color="red" offset=".4"/>
		<stop stop-color="#d42321" offset="1"/>
	</linearGradient>
	<path d="m232.57 0h349.15c5.1428 0 9.3073 4.1645 9.3073 9.3073v121.13c0 5.1428-4.1645 9.3073-9.3073 9.3073h-349.15c-5.1428 0-9.3073-4.1645-9.3073-9.3073v-121.13c0-5.1428 4.1645-9.3073 9.3073-9.3073z" fill="url(#A)"/>
	<linearGradient id="B" x1="1459.5" x2="1450.8" y1="233.73" y2="-15.325" gradientTransform="scale(.2795)" gradientUnits="userSpaceOnUse">
		<stop stop-color="#fff" offset="0"/>
		<stop stop-color="#fff" stop-opacity=".835" offset=".12"/>
		<stop stop-color="#fff" stop-opacity=".658" offset=".269"/>
		<stop stop-color="#fff" stop-opacity=".511" offset=".42"/>
		<stop stop-color="#fff" stop-opacity=".397" offset=".568"/>
		<stop stop-color="#fff" stop-opacity=".315" offset=".716"/>
		<stop stop-color="#fff" stop-opacity=".266" offset=".86"/>
		<stop stop-color="#fff" stop-opacity=".25" offset="1"/>
	</linearGradient>
	<path d="m229.97 69.316 0.89439-0.0559 353.2-12.326c3.885-0.02795 6.9875-3.2142 6.9595-7.0713v-40.555c0-5.1428-4.1645-9.3073-9.3073-9.3073h-349.15c-5.1428 0-9.3073 4.1645-9.3073 9.3073v67.275c-0.11179-3.8291 2.8788-7.0713 6.708-7.267z" fill="url(#B)" opacity=".4"/>
	<linearGradient id="C" x1="361.92" x2="361.92" y1="28.806" y2="471.22" gradientTransform="scale(.2795)" gradientUnits="userSpaceOnUse">
		<stop stop-color="#cbcbcb" offset="0"/>
		<stop stop-color="#d4d4d4" offset=".8"/>
	</linearGradient>
	<path d="m139.64 129.72c2.9347 1.2857 6.0931 1.9844 9.2793 1.9844 7.2949 0.1677 11.292-2.6273 14.226-9.1676l39.158-87.176c-2.5434-1.1459-5.3105-1.7888-8.1055-1.8726-5.0589-0.1118-11.823 0.92234-16.099 11.208l-12.661 29.85-24.875-40.415c-2.7391-0.7267-5.562-1.118-8.385-1.1739-8.8042 0-13.695 3.2142-18.782 8.7483l-24.177 26.385 19.425 30.577c3.6055 5.562 8.3291 8.4129 16.015 8.4129 3.8291 0.0559 7.6303-0.64284 11.18-2.0962l-23.422-35.217 16.602-17.58 27.223 42.679zm-51.344-32.953c0 6.4285-2.5155 10.118-15.093 10.118-1.5093 0-3.0186-0.11179-4.4999-0.30744v-85.275c0-6.4844 2.208-13.248 14.869-13.248 1.5931 0 3.1863 0.1677 4.7235 0.47515zm-25.937-12.885c0 12.018-7.8539 20.739-23.785 22.472-11.543 1.2298-28.257-0.2236-36.195-1.118-0.2795-1.3695-0.4472-2.767-0.47515-4.1925 0-10.453 5.6459-12.857 10.956-12.857 5.5341 0 14.226 0.97824 20.683 0.97824 7.1272 0 9.2793-2.4037 9.2793-4.7235 0-2.9906-2.8509-4.2484-8.385-5.3105l-15.149-2.9068c-12.577-2.4037-19.285-11.096-19.285-20.32 0-11.208 7.9378-20.571 23.562-22.304 11.823-1.2857 26.217 0.1677 34.099 1.118 0.2795 1.3136 0.41925 2.6552 0.41925 4.0248 0 10.453-5.5341 12.717-10.845 12.717-4.0807 0-10.425-0.75465-17.664-0.75465-7.3508 0-10.425 2.0403-10.425 4.4999 0 2.6273 2.9068 3.6894 7.5185 4.4999l14.45 2.6832c14.841 2.7111 21.242 11.152 21.242 21.493z" fill="url(#C)"/>
	<linearGradient id="D" x1="365.45" x2="359.6" y1="263.25" y2="95.751" gradientTransform="scale(.2795)" gradientUnits="userSpaceOnUse">
		<stop stop-color="#fff" offset="0"/>
		<stop stop-color="#fff" stop-opacity=".835" offset=".12"/>
		<stop stop-color="#fff" stop-opacity=".658" offset=".269"/>
		<stop stop-color="#fff" stop-opacity=".511" offset=".42"/>
		<stop stop-color="#fff" stop-opacity=".397" offset=".568"/>
		<stop stop-color="#fff" stop-opacity=".315" offset=".716"/>
		<stop stop-color="#fff" stop-opacity=".266" offset=".86"/>
		<stop stop-color="#fff" stop-opacity=".25" offset="1"/>
	</linearGradient>
	<g>
		<path d="m202.33 35.357-14.338 31.919c-1.118 2.2919-3.4378 3.7453-5.9813 3.7453l-13.081 0.4472c-1.4254 0.08385-2.6832 1.0341-3.1863 2.3757v-0.02795l12.354-29.124c4.3043-10.286 11.068-11.32 16.099-11.208 2.8229 0.08385 5.562 0.7267 8.1334 1.8726zm-37.565 38.152-24.205-39.353c-2.7391-0.7267-5.562-1.118-8.385-1.1739-8.8042 0-13.695 3.2142-18.782 8.7483l-24.177 26.385 1.9285 3.0465c1.2577 1.9006 3.4378 2.9906 5.7297 2.8788l13.779-0.47515a6.8952 6.8952 0 0 1 6.0931 2.7391l-4.3322-6.5123 16.602-17.58 11.152 17.469c1.3696 1.7329 3.4937 2.7111 5.7018 2.6552l15.848-0.559c1.2298 0 2.4037 0.6708 3.0465 1.7329zm-81.194-65.431c-12.661 0-14.869 6.7639-14.869 13.248v58.415c0-2.6832 2.1521-4.8633 4.8353-4.9471l9.8104-0.3354c2.7391 0 4.9751-2.236 4.9751-4.9751v-60.931c-1.5931-0.3354-3.1583-0.5031-4.7515-0.47515zm-42.428 54.279-14.45-2.6832c-4.6117-0.81055-7.5185-1.8726-7.5185-4.4999 0-2.4596 3.0745-4.4999 10.425-4.4999 7.239 0 13.584 0.75465 17.664 0.75465 5.3105 0 10.845-2.2639 10.845-12.717 0-1.3416-0.13975-2.7111-0.41925-4.0248-7.8819-0.97824-22.276-2.4037-34.099-1.118-15.652 1.7329-23.59 11.124-23.59 22.304 0.02795 5.9813 2.8509 11.627 7.6303 15.233 3.5217 2.1801 7.4906 3.6055 11.599 4.1366 5.3664 0.7267 10.761 1.0062 16.155 0.8385l17.245-0.6149c6.4564-0.2236 9.9781 5.2825 9.6147 10.817 0-0.08385 0-0.13975 0.02795-0.2236v-0.0559c0.0559-0.7267 0.08385-1.4534 0.08385-2.1801 0-10.286-6.4005-18.726-21.214-21.465z" fill="url(#D)" opacity=".25"/>
		<path d="m249.98 100.42c-0.83849-5.7577 0.9503-8.7762 4.2484-8.7762 3.1304 0 10.817 3.4378 21.521 3.4378 11.264 0 15.512-3.9968 15.512-9.1955 0-3.6894-1.649-6.9875-11.795-9.7545l-11.655-3.1304c-12.885-3.4378-17.972-9.8942-17.972-17.86 0-9.8663 7.826-18.67 25.518-18.67 7.9657 0 17.86 1.7888 23.869 4.1366 1.09 5.6179-0.69875 8.6365-4.1086 8.6365-3.0186 0-9.8663-2.8788-19.621-2.8788-10.425 0-14.282 3.5496-14.282 8.2173 0 3.2701 1.5093 6.3167 10.845 8.916l11.935 3.2981c13.332 3.6894 18.67 9.8663 18.67 18.643 0 10.313-7.9657 19.481-27.167 19.481-8.4968 0.028-19.09-2.0403-25.518-4.4999m131.7-29.767c0 21.521-15.093 34.294-31.695 34.294-9.8663 0-17.972-4.6676-22.779-11.236v27.726c0 2.5993-1.5093 4.2484-5.8974 4.2484-2.208 0-4.2484-0.2795-5.3384-0.53105v-87.427c1.09-0.2795 3.1304-0.559 5.3384-0.559 4.3881 0 5.8974 1.649 5.8974 4.2484v6.2887c4.8074-6.5682 12.913-11.236 22.779-11.236 16.602 0 31.695 12.773 31.695 34.183m-11.376 0c0-14.394-9.5868-24.288-22.5-24.288-8.7762 0-16.882 5.0869-20.571 12.494v23.729c3.6894 7.4067 11.795 12.494 20.571 12.494 12.885-0.02795 22.5-9.8942 22.5-24.428m21.913 0c0-19.621 14.394-34.155 33.735-34.155 19.481 0 33.875 14.534 33.875 34.155 0 19.481-14.394 34.294-33.875 34.294-19.341-0.028-33.735-14.841-33.735-34.294m56.235 0c0-15.093-10.174-24.288-22.5-24.288-12.186 0-22.36 9.1955-22.36 24.288 0 14.953 10.174 24.4 22.36 24.4 12.326 0 22.5-9.447 22.5-24.4m65.766-28.006c0 4.5279-1.9006 5.4782-6.5962 5.4782-9.447 0-17.413 4.3881-22.36 14.674v37.201c0 2.7391-1.5093 4.2484-6.0372 4.2484-1.9285 0-4.1366-0.2795-5.2266-0.53105v-66.018c1.09-0.2795 3.2701-0.53105 5.2266-0.53105 4.4999 0 6.0372 1.649 6.0372 4.2484v9.1955c6.4285-9.7545 16.183-14.674 28.397-13.025 0.13975 0.95029 0.559 3.0186 0.559 5.0589m49.331 57.772c-5.7577 2.7391-12.354 4.5279-18.922 4.5279-13.025 0-20.851-7.6862-20.851-20.431v-56.654c0-2.8788 1.649-4.8074 6.0372-4.8074 1.9006 0 4.1086 0.3913 5.2266 0.69875v14.254h25.63c0.13975 0.9503 0.41925 2.8788 0.41925 4.5279 0 3.9689-1.649 5.3384-4.1086 5.3384h-21.941v35.832c0 7.6583 3.5496 11.376 10.817 11.376 6.5962 0 10.286-2.8788 13.444-2.8788 3.2981-0.02795 4.9471 2.7111 4.2484 8.2173" fill="#fff"/>
		<path d="m632.21 101.76q-6.0559 0-10.714-2.0496-4.565-2.0496-7.7329-5.59-3.1676-3.6335-4.8446-8.385-1.5839-4.7515-1.5839-10.248v-31.304q0-1.8634 1.118-3.0745 1.2111-1.3044 4.1925-1.3044 1.4906 0 2.888 0.18642 1.4906 0.09307 2.236 0.2795v35.496q0 7.5465 3.7266 12.112 3.8199 4.472 10.807 4.472 6.708 0 10.621-4.472 4.006-4.565 4.006-12.112v-31.583q0-1.8634 1.118-3.0745 1.2111-1.3044 4.1925-1.3044 1.4906 0 2.888 0.18642 1.3975 0.09307 2.1429 0.2795v35.217q0 5.4969-1.677 10.248-1.677 4.7515-4.8446 8.385-3.1676 3.5404-7.919 5.59-4.6584 2.0496-10.621 2.0496zm41.738-0.65207q-1.4906 0-2.9814-0.18642-1.3975-0.0931-2.1429-0.2795v-56.459q0-1.8634 1.118-3.0745 1.2111-1.3044 4.1925-1.3044 1.4906 0 2.8881 0.18642 1.4906 0.09307 2.236 0.2795v25.434h28.322v-21.521q0-1.8634 1.118-3.0745 1.2111-1.3044 4.1925-1.3044 1.4906 0 2.9814 0.18642 1.4906 0.09307 2.236 0.2795v56.459q0 1.8634-1.2111 3.1676-1.118 1.2111-4.0994 1.2111-1.4906 0-2.9814-0.18642-1.4906-0.0931-2.236-0.2795v-25.9h-28.322v21.987q0 1.8634-1.2111 3.1676-1.118 1.2111-4.0994 1.2111zm61.489-0.559q-3.447 0-4.472-1.3044-0.93157-1.3975-0.93157-3.5404v-50.869q0-2.1429 0.93157-3.4471 1.0249-1.3975 4.472-1.3975h12.764q7.5464 0 13.602 2.1429 6.0559 2.0496 10.248 5.9625 4.2856 3.913 6.5215 9.4099 2.3291 5.4969 2.3291 12.298 0 6.4285-2.236 12.018t-6.5215 9.7824q-4.2855 4.0994-10.435 6.5215-6.0559 2.4224-13.788 2.4224zm5.031-9.5029h8.2919q4.3789 0 8.1985-1.3044 3.913-1.3975 6.801-4.006 2.8881-2.7019 4.565-6.708 1.677-4.006 1.677-9.4099 0-4.8445-1.677-8.5714-1.677-3.8199-4.565-6.3354-2.888-2.6086-6.801-3.913t-8.385-1.3044h-8.1055z" fill="#002a91"/>
	</g>
</svg>
