<?xml version="1.0" encoding="UTF-8"?>
<svg width="800" height="206.75" version="1.1" viewBox="0 0 800 206.75" xmlns="http://www.w3.org/2000/svg">
	<g>
		<path d="m793.75 6.7683e-5c3.4608 0 6.2502 2.8171 6.2502 6.2502v116.24a6.2779 6.2779 0 0 1-6.2502 6.2502h-163.07c-3.4607 0-6.2502-2.8164-6.2502-6.2502v-116.21c0-3.4607 2.8171-6.2502 6.2502-6.2502h163.07" fill="#fff"/>
		<path d="m714.58 38.576v49.548c0 2.1728-1.0998 3.3801-4.4799 3.3801-1.5292 0-2.9508-0.21427-4.0506-0.42933v-22.802h-28.274v19.878c0 2.1728-1.0998 3.3801-4.4799 3.3801-1.6367 0-3.2726-0.21427-4.0506-0.42933v-49.575c0-2.0921 1.0998-3.3801 4.5874-3.3801 1.5292 0 3.0314 0.21427 3.9162 0.42933v22.051h28.141v-19.1c0-2.0921 1.2074-3.3801 4.695-3.3801 1.6098 0 3.1121 0.21427 3.9968 0.42933m58.003 26.182c0 14.861-10.381 26.101-26.638 26.101h-15.157c-3.2726 0-4.4799-1.3141-4.4799-3.3801v-45.309c0-2.0652 1.2074-3.3801 4.4799-3.3801h15.157c16.257 0 26.638 11.133 26.638 25.968m-8.638 0c0-11.133-6.9745-18.349-18-18.349h-11.133v36.779h11.133c11.026 0.02688 18-7.1895 18-18.43" fill="#9c001f"/>
		<path d="m57.492 77.171c0 11.076-7.2122 19.112-21.946 20.709-10.612 1.1333-26.016-0.20606-33.331-1.0303-0.25758-1.1849-0.46364-2.6788-0.46364-3.8637 0-9.6335 5.2031-11.849 10.097-11.849 5.1001 0 13.137 0.87577 19.061 0.87577 6.594 0 8.5516-2.2152 8.5516-4.3273 0-2.7819-2.6273-3.9152-7.7274-4.894l-13.961-2.6788c-11.591-2.2152-17.773-10.2-17.773-18.7 0-10.303 7.3153-18.958 21.74-20.555 10.87-1.1849 24.161 0.15455 31.425 1.0303 0.25758 1.2364 0.41213 2.4212 0.41213 3.7091 0 9.6335-5.1001 11.694-9.9941 11.694-3.7607 0-9.582-0.66971-16.279-0.66971-6.8001 0-9.582 1.8546-9.582 4.1213 0 2.4212 2.6788 3.4 6.9031 4.1728l13.291 2.4728c13.703 2.5243 19.576 10.252 19.576 19.782m23.852 11.849c0 5.9243-2.3182 9.3244-13.909 9.3244-1.5455 0-2.8849-0.10303-4.1728-0.3091v-78.459c0-5.9758 2.0091-12.209 13.703-12.209 1.494 0 2.9879 0.15455 4.3788 0.46364zm47.343 30.394c1.5455 0.77273 4.6364 1.7515 8.5516 1.803 6.7486 0.15455 10.406-2.4212 13.137-8.4486l36.061-80.21c-1.494-0.77274-4.791-1.7-7.4698-1.7515-4.6364-0.10303-10.87 0.82425-14.837 10.303l-11.746 27.458-22.925-37.246c-1.494-0.46364-5.1001-1.0818-7.7274-1.0818-8.1395 0-12.621 2.9879-17.309 8.0365l-22.255 24.315 17.928 28.179c3.297 5.1516 7.6759 7.7789 14.734 7.7789 4.6364 0 8.5001-1.0818 10.303-1.9061l-21.585-32.455 15.3-16.228 25.088 39.307z" fill="#ff0031"/>
		<path d="m624.84 0h-410.63c-4.7395 0-8.6032 3.8637-8.6032 8.6032v111.53c0 4.7395 3.8637 8.6032 8.6032 8.6032h410.58c4.7395 0 8.6032-3.8637 8.6032-8.6032v-111.58c-0.05152-4.7395-3.8122-8.5516-8.5516-8.5516" fill="url(#A)"/>
		<path d="m63.313 19.576v53.834c0-2.1637 1.6485-4.4304 4.4304-4.5334l9.0668-0.3091c1.8031-0.05151 4.5334-1.2879 4.5849-4.5849v-56.152c-1.3909-0.3091-2.8849-0.46364-4.3788-0.46364-11.694 0.051516-13.703 6.2334-13.703 12.209m41.213 18.752-22.255 24.315 1.8031 2.7819c0.77274 1.0303 2.2667 2.7819 5.2546 2.6788l12.673-0.46364c2.7819-0.10303 4.5334 1.0818 5.6152 2.5243l-3.9667-5.9758 15.3-16.228 10.252 16.124c1.8546 2.4212 4.6364 2.4728 5.2546 2.4728 0.51516 0 14.012-0.46364 14.579-0.51516 0.92729-0.05152 2.0091 0.46364 2.8334 1.6485l-22.306-36.267c-1.494-0.46364-5.1001-1.0818-7.7274-1.0818-8.1395-0.05151-12.621 2.8849-17.309 7.985m-82.786-7.4698c-14.424 1.597-21.74 10.2-21.74 20.555 0 5.3061 2.4212 10.406 7.0577 14.064 3.5031 2.3182 7.1092 3.194 10.664 3.8122 2.9364 0.51516 9.788 0.9788 14.888 0.77274l15.867-0.56668c5.9758-0.20606 9.1698 4.894 8.8607 9.9941v-0.25758c0.05152-0.66971 0.10303-1.3394 0.10303-2.0091 0-9.5304-5.8728-17.309-19.525-19.834l-13.291-2.4728c-4.2758-0.72122-6.9031-1.7515-6.9031-4.1728 0-2.2667 2.8334-4.1728 9.582-4.1728 6.6971 0 12.518 0.66971 16.279 0.66971 4.894 0 9.9941-2.0606 9.9941-11.694 0-1.2879-0.15455-2.4728-0.41213-3.7091-5.2031-0.61819-13.549-1.494-21.843-1.494-3.2455 0.05152-6.491 0.20606-9.582 0.51516m142.29 10.252-11.385 26.84c0-0.05152 0.72122-2.1122 2.9364-2.2152l12.055-0.41213c3.6576-0.15455 5.1001-2.6273 5.5122-3.4516l13.188-29.416c-1.494-0.77274-4.791-1.7-7.4698-1.7515h-0.56667c-4.5849 0.05152-10.458 1.2879-14.27 10.406" enable-background="new" fill="url(#B)" opacity=".3"/>
		<path d="m214.2 0c-4.7395 0-8.6032 3.8637-8.6032 8.6032v61.922c0-0.92729 0.36061-6.0274 6.1819-6.594 0 0 0.30909-0.05152 0.82425-0.05152l414.39-14.527c3.2455-0.10303 6.388-2.5243 6.388-6.5425v-34.155c0-4.7395-3.8637-8.6032-8.6032-8.6032z" enable-background="new" fill="url(#C)" opacity=".3"/>
		<path d="m298.64 14.578c-3.4516 0-6.3887 2.6795-6.3887 6.3887 0 3.2455 2.8856 6.2852 6.3887 6.2852s6.2852-2.9881 6.2852-6.2852c0-3.6061-2.7306-6.3887-6.2852-6.3887zm117.35 19.113c-16.588 0-30.033 13.137-30.033 31.219 0 18.752 12.93 31.527 31.682 31.527 8.6547 0 16.795-2.5756 22.102-4.9453 0.61819-5.4607-1.2374-7.8301-3.7617-7.8301-1.0818 0-2.421 0.51412-4.9453 1.4414-3.8637 1.1849-7.8301 2.3711-13.033 2.3711-12.106 0-20.348-6.7493-21.842-18.443h46.93c0.36061-2.2667 0.51491-4.2756 0.56641-6.1816 0-14.373-9.1699-29.158-27.664-29.158zm-155.37 0.05078c-17.412 0-30.703 13.344-30.703 31.271s13.291 31.424 30.703 31.682c8.2425 1e-6 15.713-2.2667 21.02-4.791 0.51516-5.4607-1.4953-7.7266-4.0195-7.7266-3.5031 0-7.4688 3.8633-16.639 3.8633-11.591 0-21.02-8.9122-21.02-22.873 0-13.961 9.4285-22.615 21.02-22.615 9.1698 0 13.084 3.8633 16.639 3.8633 2.5243 0 4.5347-2.2678 4.0195-7.7285-5.2031-2.6788-12.674-4.9453-21.02-4.9453zm89.639 0c-9.1183 0-15.816 4.4302-20.195 9.7363v-5.2031c0-2.2667-1.3394-3.7598-5.2031-3.7598-1.7516 0-3.6059 0.41234-4.5332 0.66992v60.119c0.92728 0.25758 2.7817 0.51562 4.5332 0.51562 3.9152 0 5.2031-1.392 5.2031-3.7617v-38.586c3.194-5.8213 10.921-10.869 18.082-10.869 9.0153 0 15.146 5.8725 15.146 18.236v34.361c0.9788 0.25758 2.9362 0.51562 4.5332 0.51562 3.9667 0 5.2031-1.392 5.2031-3.7617v-32.455c0-17.824-10.354-25.706-22.77-25.758zm133.63 0c-7.4183 0-13.548 3.8653-17.412 9.0684v-4.2773c0-2.5243-1.2882-4.0176-5.0488-4.0176-1.597 0-3.5029 0.41234-4.5332 0.66992v60.016c0.82426 0.25758 2.7817 0.51562 4.5332 0.51562 3.9667 0 5.2031-1.392 5.2031-3.7617v-39.615c2.2667-4.894 8.0886-9.8398 14.889-9.8398 8.1395 0 12.26 5.3065 12.26 14.219v38.482c1.0303 0.25758 2.8852 0.51562 4.6367 0.51562 3.9667 0 5.2031-1.392 5.2031-3.7617v-39.615c2.2667-4.894 8.0886-9.8398 14.889-9.8398 7.985 0 12.26 5.3065 12.26 14.219v38.482c0.9788 0.25758 2.9382 0.51562 4.5352 0.51562 3.9667 0 5.3047-1.392 5.3047-3.7617v-36.318c0-12.003-6.9028-21.843-19.885-21.895-8.9122 0-15.301 4.8945-19.422 10.922-3.194-6.8001-9.4272-10.922-17.412-10.922zm97.211 0c-8.4486-1e-6 -17.465 2.0106-23.492 4.2773-0.61819 5.3061 0.97986 7.8301 3.7617 7.8301 0.9788 0 2.4208-0.46336 4.2754-0.97852 3.6061-1.1849 8.9126-2.5254 15.043-2.5254 11.849 0 14.889 5.5643 14.889 14.889v1.6484c-26.737-1.7515-42.553 4.6371-42.553 19.268 0 9.685 7.4689 18.338 21.018 18.338 9.0153 0 15.817-3.5547 21.535-9.582v5.0488c0 2.5243 1.597 3.8125 5.2031 3.8125 1.7515 0 3.5029-0.25804 4.5332-0.51562v-38.379c0-14.27-6.5429-23.079-24.213-23.131zm-282.15 0.82422c-4.0698 0-5.3066 1.495-5.3066 3.7617v56.873c0.97881 0.25758 2.8847 0.51489 4.5332 0.56641 3.9667 0 5.3066-1.39 5.3066-3.7598v-56.771c-0.97881-0.25758-2.9362-0.66992-4.5332-0.66992zm117.1 7.8828c10.87 0 17.516 8.1394 17.928 18.494h-37.762c1.597-12.106 10.149-18.597 19.834-18.494zm173.04 23.691c2.0778 0.0064 4.218 0.06356 6.3945 0.16016v11.592c-4.6364 6.1819-11.591 10.354-19.834 10.354-8.088 0-12.621-4.9458-12.621-10.252 0-9.421 11.516-11.899 26.061-11.854z" fill="#fff"/>
		<path d="m410.65 142.01c-1.2124 0-2.2541 0.43764-3.127 1.3105-0.87289 0.8729-1.3105 1.9384-1.3105 3.1992 0 1.2124 0.43765 2.256 1.3105 3.1289 0.8729 0.87289 1.9146 1.3086 3.127 1.3086 1.2608 0 2.3283-0.4357 3.2012-1.3086 0.8729-0.8729 1.3086-1.9166 1.3086-3.1289 0-1.2608-0.43569-2.3263-1.3086-3.1992-0.87289-0.8729-1.9403-1.3105-3.2012-1.3105zm-84.889 14.912c-2.4247 0-4.6804 0.46141-6.7656 1.3828-2.0852 0.92138-3.9033 2.2067-5.4551 3.8555-1.5033 1.6003-2.6916 3.5154-3.5644 5.7461-0.87289 2.1822-1.3086 4.5825-1.3086 7.2012 0 2.6187 0.41192 5.0684 1.2363 7.3477 0.8729 2.2307 2.1087 4.1696 3.709 5.8184 1.6003 1.6488 3.5649 2.9341 5.8926 3.8555s4.9715 1.3828 7.9297 1.3828c2.7642 0 5.2377-0.29111 7.4199-0.87305 2.1822-0.63042 4.0002-1.2859 5.4551-1.9648 0.0485-0.29097 0.0723-0.58208 0.0723-0.87305 0.0485-0.29097 0.0723-0.55831 0.0723-0.80078 0-1.3093-0.29112-2.351-0.87304-3.127-0.53344-0.77591-1.2365-1.1641-2.1094-1.1641-0.63042 0-1.2602 0.097-1.8906 0.29102-0.63043 0.19398-1.3335 0.43755-2.1094 0.72852-0.7759 0.24246-1.6492 0.46031-2.6191 0.65429-0.96988 0.19398-2.1086 0.29102-3.418 0.29102-3.0551 0-5.5286-0.72877-7.4199-2.1836-1.8428-1.5033-2.934-3.66-3.2734-6.4726h25.24c0.24247-1.2124 0.36523-2.4244 0.36523-3.6367 0-2.1822-0.36438-4.3171-1.0918-6.4023-0.67892-2.0852-1.7226-3.9528-3.1289-5.6016-1.3578-1.6488-3.0788-2.9578-5.1641-3.9277-2.0853-1.0184-4.4855-1.5273-7.2012-1.5273zm40.371 0c-2.0368 0-3.928 0.55846-5.6738 1.6738-1.7458 1.0669-3.1281 2.3997-4.1465 4l-0.0723-0.87304c0-1.3578-0.33866-2.4253-1.0176-3.2012-0.63042-0.8244-1.6978-1.2363-3.2012-1.2363-0.67891 0-1.3087 0.0733-1.8906 0.21875-0.53344 0.097-1.0681 0.2178-1.6016 0.36328v34.916c0.38796 0.097 0.94642 0.17029 1.6738 0.21875 0.77591 0.097 1.5265 0.14453 2.2539 0.14453 1.5518 0 2.5955-0.31488 3.1289-0.94531 0.58193-0.63042 0.87305-1.4305 0.87305-2.4004v-21.531c0.63043-1.2124 1.5513-2.254 2.7637-3.127 1.2609-0.92139 2.6669-1.3828 4.2188-1.3828 2.0368 0 3.5894 0.62977 4.6562 1.8906 1.1154 1.2124 1.6719 3.0066 1.6719 5.3828v21.75c0.38795 0.097 0.94641 0.17029 1.6738 0.21875 0.7759 0.097 1.5284 0.14453 2.2558 0.14453 1.5518 0 2.5935-0.31488 3.127-0.94531 0.58193-0.63042 0.87304-1.4305 0.87304-2.4004v-21.459c0.63043-1.2608 1.5513-2.3263 2.7637-3.1992 1.2124-0.92139 2.6917-1.3828 4.4375-1.3828 1.8428 0 3.3221 0.606 4.4375 1.8184 1.1154 1.1639 1.6738 2.9819 1.6738 5.4551v21.75c0.38796 0.097 0.94447 0.17029 1.6719 0.21875 0.77591 0.097 1.5284 0.14453 2.2559 0.14453 1.5518 0 2.5935-0.31488 3.127-0.94531 0.58193-0.63042 0.87305-1.4305 0.87305-2.4004v-19.566c0-4.122-0.94466-7.3718-2.8359-9.748-1.8428-2.3762-4.6807-3.5645-8.5117-3.5644-2.3277 0-4.4131 0.60599-6.2559 1.8184-1.7943 1.1639-3.3944 2.9106-4.8008 5.2383-0.8244-2.3277-2.1829-4.0744-4.0742-5.2383-1.8428-1.2124-3.9519-1.8184-6.3281-1.8184zm71.797 0c-2.4247 0-4.6804 0.46141-6.7656 1.3828-2.0852 0.92138-3.9033 2.2067-5.4551 3.8555-1.5033 1.6003-2.6916 3.5154-3.5644 5.7461-0.8729 2.1822-1.3106 4.5825-1.3106 7.2012 0 2.6187 0.41388 5.0684 1.2383 7.3477 0.8729 2.2307 2.1087 4.1696 3.709 5.8184 1.6003 1.6488 3.5648 2.9341 5.8926 3.8555s4.9696 1.3828 7.9277 1.3828c2.7642 0 5.2377-0.29111 7.4199-0.87305 2.1822-0.63042 4.0002-1.2859 5.4551-1.9648 0.0485-0.29097 0.0742-0.58208 0.0742-0.87305 0.0485-0.29097 0.0723-0.55831 0.0723-0.80078 0-1.3093-0.29111-2.351-0.87304-3.127-0.53344-0.77591-1.2365-1.1641-2.1094-1.1641-0.63042 0-1.2602 0.097-1.8906 0.29102-0.63043 0.19398-1.3354 0.43755-2.1113 0.72852-0.77591 0.24246-1.6473 0.46031-2.6172 0.65429-0.96988 0.19398-2.1106 0.29102-3.4199 0.29102-3.0551 0-5.5286-0.72877-7.4199-2.1836-1.8428-1.5033-2.934-3.66-3.2734-6.4726h25.242c0.24247-1.2124 0.36328-2.4244 0.36328-3.6367 0-2.1822-0.36243-4.3171-1.0898-6.4023-0.67892-2.0852-1.7226-3.9528-3.1289-5.6016-1.3578-1.6488-3.0788-2.9578-5.1641-3.9277-2.0853-1.0184-4.4855-1.5273-7.2012-1.5273zm62.266 0c-2.4247 0-4.6804 0.46141-6.7656 1.3828-2.0852 0.92138-3.9033 2.2067-5.4551 3.8555-1.5033 1.6003-2.6916 3.5154-3.5645 5.7461-0.87289 2.1822-1.3086 4.5825-1.3086 7.2012 0 2.6187 0.41193 5.0684 1.2363 7.3477 0.87289 2.2307 2.1087 4.1696 3.709 5.8184s3.5649 2.9341 5.8926 3.8555c2.3277 0.92139 4.9715 1.3828 7.9297 1.3828 2.7642 0 5.2377-0.29111 7.4199-0.87305 2.1822-0.63042 4.0002-1.2859 5.4551-1.9648 0.0485-0.29097 0.0723-0.58208 0.0723-0.87305 0.0485-0.29097 0.0723-0.55831 0.0723-0.80078 0-1.3093-0.29112-2.351-0.87305-3.127-0.53344-0.77591-1.2365-1.1641-2.1094-1.1641-0.63043 0-1.2602 0.097-1.8906 0.29102-0.63043 0.19398-1.3335 0.43755-2.1094 0.72852-0.77591 0.24246-1.6493 0.46031-2.6191 0.65429-0.96989 0.19398-2.1086 0.29102-3.418 0.29102-3.0551 0-5.5286-0.72877-7.4199-2.1836-1.8428-1.5033-2.934-3.66-3.2734-6.4726h25.24c0.24248-1.2124 0.36524-2.4244 0.36524-3.6367 0-2.1822-0.36439-4.3171-1.0918-6.4023-0.67892-2.0852-1.7206-3.9528-3.127-5.6016-1.3578-1.6488-3.0808-2.9578-5.166-3.9277-2.0852-1.0184-4.4855-1.5273-7.2012-1.5273zm41.973 0c-2.4732 0-4.7051 0.55846-6.6934 1.6738-1.9398 1.0669-3.5162 2.4492-4.7285 4.1465l-0.0723-1.0195c0-1.3578-0.33865-2.4253-1.0176-3.2012-0.63042-0.8244-1.6979-1.2363-3.2012-1.2363-0.67892 0-1.3087 0.0733-1.8906 0.21875-0.53343 0.097-1.0681 0.2178-1.6016 0.36328v34.916c0.38795 0.097 0.94641 0.17029 1.6738 0.21875 0.77591 0.097 1.5265 0.14453 2.2539 0.14453 1.5518 0 2.5955-0.31488 3.1289-0.94531 0.58193-0.63042 0.87304-1.4305 0.87304-2.4004v-21.312c0.8244-1.4548 2.0126-2.6193 3.5645-3.4922 1.6003-0.87289 3.1767-1.3086 4.7285-1.3086 2.4732 0 4.3883 0.72681 5.7461 2.1816 1.3578 1.4548 2.0371 3.7343 2.0371 6.8379v20.076c0.38795 0.097 0.94446 0.17029 1.6719 0.21875 0.77591 0.097 1.5284 0.14453 2.2559 0.14453 1.5518 0 2.5935-0.31488 3.127-0.94531 0.58193-0.63042 0.87305-1.4305 0.87305-2.4004v-17.967c0-4.8009-1.1387-8.4864-3.418-11.057-2.2792-2.5702-5.3825-3.8555-9.3105-3.8555zm-277.58 0.0723c-2.8127 0-5.1634 0.58223-7.0547 1.7461-1.8428 1.1154-3.3954 2.571-4.6562 4.3652l-0.0723-1.3828c-0.097-1.3578-0.4376-2.4253-1.0195-3.2012-0.58193-0.8244-1.6474-1.2363-3.1992-1.2363-0.67892 0-1.3106 0.0733-1.8926 0.21875-0.53343 0.097-1.0662 0.2178-1.5996 0.36328v48.52c0.38796 0.097 0.94642 0.16833 1.6738 0.2168 0.77591 0.097 1.5265 0.14648 2.2539 0.14648 1.5518 0 2.5955-0.31489 3.1289-0.94531 0.58194-0.63043 0.87305-1.4305 0.87305-2.4004v-15.131c1.1154 1.3093 2.5928 2.4976 4.4356 3.5644 1.8428 1.0184 4.0747 1.5273 6.6934 1.5273 1.8428 0 3.7103-0.36438 5.6016-1.0918 1.9398-0.72742 3.6607-1.8424 5.1641-3.3457 1.5518-1.5033 2.8133-3.3946 3.7832-5.6738 0.96989-2.2792 1.4531-4.9944 1.4531-8.1465 0-2.9096-0.45947-5.4802-1.3809-7.7109-0.8729-2.2792-2.0374-4.1705-3.4922-5.6738-1.4548-1.5518-3.1282-2.7163-5.0195-3.4922-1.8428-0.82441-3.7341-1.2363-5.6738-1.2363zm39.789 0.14648c-2.1822 0-4.0973 0.60601-5.7461 1.8184-1.6488 1.1639-2.9578 2.9343-3.9277 5.3106h-0.14453v-2.5469c0-1.3578-0.34061-2.4253-1.0195-3.2012-0.63042-0.8244-1.6979-1.2363-3.2012-1.2363-0.67892 0-1.3087 0.0733-1.8906 0.21875-0.53343 0.097-1.0662 0.2178-1.5996 0.36328v34.916c0.38795 0.097 0.94446 0.17029 1.6719 0.21875 0.77591 0.097 1.5284 0.14453 2.2559 0.14453 1.5518 0 2.5935-0.31488 3.127-0.94531 0.58193-0.63042 0.87304-1.4305 0.87304-2.4004v-17.385c0-2.7642 0.75254-4.802 2.2559-6.1113 1.5518-1.3093 3.5877-1.9629 6.1094-1.9629h1.3105c2.7157 0 4.0723-1.3585 4.0723-4.0742 0-0.8244-0.14459-1.7453-0.43555-2.7637-0.53344-0.097-1.1157-0.17029-1.7461-0.21875-0.58193-0.097-1.2374-0.14454-1.9648-0.14454zm174.44 0c-2.1822 0-4.0992 0.60601-5.748 1.8184-1.6488 1.1639-2.9579 2.9343-3.9277 5.3106h-0.14453v-2.5469c0-1.3578-0.34061-2.4253-1.0195-3.2012-0.63042-0.8244-1.6959-1.2363-3.1992-1.2363-0.67892 0-1.3106 0.0733-1.8926 0.21875-0.53343 0.097-1.0662 0.2178-1.5996 0.36328v34.916c0.38796 0.097 0.94446 0.17029 1.6719 0.21875 0.7759 0.097 1.5284 0.14453 2.2559 0.14453 1.5518 0 2.5935-0.31488 3.127-0.94531 0.58193-0.63042 0.87305-1.4305 0.87305-2.4004v-17.385c0-2.7642 0.75254-4.802 2.2559-6.1113 1.5518-1.3093 3.5877-1.9629 6.1094-1.9629h1.3106c2.7157 0 4.0723-1.3585 4.0723-4.0742 0-0.8244-0.14458-1.7453-0.43554-2.7637-0.53344-0.097-1.1157-0.17029-1.7461-0.21875-0.58193-0.097-1.2355-0.14454-1.9629-0.14454zm-68.16 0.14454c-1.5033 0-2.545 0.31488-3.127 0.94531-0.58193 0.63042-0.87304 1.4305-0.87304 2.4004v32.152c0.38795 0.097 0.94641 0.17029 1.6738 0.21875 0.72742 0.097 1.4542 0.14453 2.1816 0.14453 1.5518 0 2.6192-0.31488 3.2012-0.94531 0.58193-0.63042 0.87109-1.4305 0.87109-2.4004v-32.152c-0.38795-0.097-0.94446-0.16833-1.6719-0.2168-0.72742-0.097-1.48-0.14648-2.2559-0.14648zm-84.889 5.8203c2.8127 0 4.9713 0.89713 6.4746 2.6914 1.5518 1.7458 2.4489 3.9282 2.6914 6.5469h-18.258c0.24247-2.7642 1.1396-4.9961 2.6914-6.6934 1.6003-1.6973 3.7332-2.5449 6.4004-2.5449zm112.17 0c2.8127 0 4.9693 0.89713 6.4727 2.6914 1.5518 1.7458 2.4489 3.9282 2.6914 6.5469h-18.258c0.24247-2.7642 1.1396-4.9961 2.6914-6.6934 1.6003-1.6973 3.7352-2.5449 6.4023-2.5449zm62.266 0c2.8127 0 4.9713 0.89713 6.4746 2.6914 1.5518 1.7458 2.4489 3.9282 2.6914 6.5469h-18.258c0.24248-2.7642 1.1396-4.9961 2.6914-6.6934 1.6003-1.6973 3.7332-2.5449 6.4004-2.5449zm-238.3 0.58203c1.6973 0 3.1766 0.33866 4.4375 1.0176 1.2608 0.63042 2.3045 1.5038 3.1289 2.6191 0.8729 1.0669 1.5027 2.3026 1.8906 3.709 0.43645 1.3578 0.6543 2.7896 0.6543 4.293 0 1.6973-0.24163 3.248-0.72657 4.6543s-1.1642 2.6183-2.0371 3.6367c-0.87289 1.0184-1.9403 1.8184-3.2012 2.4004-1.2608 0.53344-2.6432 0.80078-4.1465 0.80078-2.0368 0-3.831-0.45947-5.3828-1.3809-1.5518-0.96989-2.7143-2.1581-3.4902-3.5644v-13.094c0.92139-1.6973 2.1809-2.9588 3.7812-3.7832 1.6488-0.87289 3.346-1.3086 5.0918-1.3086z" fill="#fff"/>
	</g>
	<defs>
		<linearGradient id="A" x1="414.37" x2="1244.6" y1="289.84" y2="289.84" gradientTransform="matrix(.51516 0 0 .51516 -7.7789 -84.95)" gradientUnits="userSpaceOnUse">
			<stop stop-color="#ff0031" offset="0"/>
			<stop stop-color="#9b001f" offset="1"/>
		</linearGradient>
		<linearGradient id="B" x1="197.48" x2="194.59" y1="295.14" y2="212.24" gradientTransform="matrix(.51516 0 0 .51516 -7.7789 -84.95)" gradientUnits="userSpaceOnUse">
			<stop stop-color="#fff" offset="0"/>
			<stop stop-color="#fff" stop-opacity=".25" offset=".515"/>
		</linearGradient>
		<linearGradient id="C" x1="830.55" x2="826.25" y1="276.73" y2="153.47" gradientTransform="matrix(.51516 0 0 .51516 -7.7789 -84.95)" gradientUnits="userSpaceOnUse">
			<stop stop-color="#fff" offset="0"/>
			<stop stop-color="#fff" stop-opacity=".25" offset=".515"/>
		</linearGradient>
	</defs>
</svg>
