<?xml version="1.0" encoding="UTF-8"?>
<svg width="800" height="114.63" version="1.1" xmlns="http://www.w3.org/2000/svg">
	<g>
		<path d="m792.37 4.52e-4h-316.01c-4.2184 0-7.6342 3.416-7.6342 7.6342v99.36c0 4.2184 3.416 7.6342 7.6342 7.6342h316.01c4.2184 0 7.6342-3.416 7.6342-7.6342v-99.36c0-4.2184-3.416-7.6342-7.6342-7.6342m0 2.2926c2.9574 0 5.3417 2.4072 5.3417 5.3417v99.36c0 2.9574-2.4072 5.3417-5.3417 5.3417h-316.01c-2.9345 0-5.3417-2.3843-5.3417-5.3417v-99.36c0-2.9345 2.4072-5.3417 5.3417-5.3417h316.01" fill="#cbcbcb"/>
		<path d="m792.37 2.293c2.9574 0 5.3417 2.4072 5.3417 5.3417v99.36c0 2.9574-2.4072 5.3417-5.3417 5.3417h-316.01c-2.9345 0-5.3417-2.3843-5.3417-5.3417v-99.36c0-2.9345 2.4072-5.3417 5.3417-5.3417h316.01" fill="#fff"/>
		<path d="m721.75 20.428c-2.6136 0-4.8613 2.0624-4.8613 4.8594 0 2.4989 2.2478 4.8384 4.8613 4.8613 2.8199 0 4.9512-2.3395 4.9512-4.8613 0-2.797-2.1542-4.8594-4.9512-4.8594zm-67.701 5.0664c-2.9804 0-4.1035 1.2842-4.1035 3.2559v38.516c0 8.6659 5.3191 13.893 14.191 13.893 4.4706 0 8.9409-1.2158 12.861-3.0957 0.45852-3.714-0.66485-5.5932-2.8887-5.5703-2.155-1e-6 -4.6759 1.9707-9.1464 1.9707-4.9291 0-7.3593-2.5209-7.3593-7.7479v-24.348h14.924c1.6736-1e-6 2.7969-0.93926 2.7969-3.6445 0-1.1234-0.18173-2.4303-0.27343-3.0723h-17.447v-9.6991c-0.75656-0.18341-2.2479-0.45703-3.5547-0.45703zm-127.03 9.078c-6.3505 0-12.977 1.5823-17.539 3.2559-0.75654 3.9203 0.66477 5.7773 2.7969 5.7773 0.91703 0 2.0411-0.36756 3.5312-0.73438 2.5218-0.64192 7.2668-1.6738 10.82-1.6738 8.5054 0 10.73 3.0959 10.73 10.455v1.582c-19.693-1.2839-31.248 3.4622-31.248 14.283 0 7.0841 5.5024 13.617 15.498 13.617 6.6026 0 11.83-2.7053 15.842-7.2675v3.9199c0 1.857 1.3066 2.8887 4.1035 2.8887 1.3068 0 2.7044-0.18378 3.4609-0.36719v-28.725c0-11.096-4.8596-16.989-17.996-17.012zm228.07 0c-6.3504 0-12.977 1.5823-17.539 3.2559-0.75655 3.9203 0.66671 5.7773 2.7988 5.7773 0.91703 0 2.0391-0.36756 3.5293-0.73438 2.5218-0.64192 7.2688-1.6738 10.822-1.6738 8.5054 0 10.729 3.0959 10.729 10.455v1.582c-19.693-1.2839-31.248 3.4622-31.248 14.283 0 7.0841 5.5023 13.617 15.498 13.617 6.6027 0 11.83-2.7053 15.842-7.2675v3.9199c0 1.857 1.3066 2.8887 4.1035 2.8887 1.3068 0 2.7063-0.18378 3.4629-0.36719v-28.725c0-11.096-4.8615-16.989-17.998-17.012zm-132.44 0.04492c-12.036-1e-6 -17.354 5.9624-17.354 12.68 0 5.4105 3.4381 9.7884 12.219 12.127l7.9315 2.1328c6.9236 1.857 8.0253 4.1031 8.0253 6.625 0 3.5306-2.8891 6.2363-10.523 6.2363-7.2904 0-12.518-2.3398-14.65-2.3398-2.2238 0-3.4389 2.064-2.8887 5.9844 4.3788 1.6965 11.579 3.0952 17.311 3.0723 13.068 0 18.477-6.2595 18.477-13.252 0-5.9607-3.622-10.156-12.678-12.678l-8.1152-2.2227c-6.3276-1.7882-7.3593-3.8294-7.3593-6.0762 0-3.1638 2.6132-5.5938 9.6972-5.5938 6.6256 0 11.28 1.9707 13.344 1.9707 2.3155 0 3.5305-2.0386 2.7969-5.8672-4.1037-1.5819-10.822-2.7988-16.232-2.7988zm-62.312 0.45898c-3.0721 0-4.1035 1.1234-4.1035 2.8887v24.141c0 13.251 7.6338 19.029 16.781 19.029 6.6256 0 11.578-3.1637 14.834-7.1758v3.8281c0 1.7882 1.0314 2.8887 4.1035 2.8887 1.3297 0 2.7962-0.18378 3.5527-0.36719v-44.865c-0.75656-0.18341-2.246-0.36719-3.5527-0.36719-3.0721 0-4.1035 1.1234-4.1035 2.8887v28.635c-2.2238 4.1954-7.8176 7.7499-12.953 7.7499-6.6256 0-11.004-4.2879-11.004-13.252v-25.654c-0.75654-0.18341-2.2479-0.36719-3.5547-0.36719zm127.19 0c-1.3068 0-2.7962 0.18378-3.5527 0.36719v44.865c0.75655 0.18341 2.246 0.36719 3.5527 0.36719 3.0721 0 4.1035-1.0087 4.1035-2.8887v-25.287c3.3472-6.9924 8.7569-9.9726 15.199-9.9726 3.1638 0 4.4707-0.64133 4.4707-3.7363 0-1.3756-0.29644-2.7975-0.36524-3.4395-8.2991-1.1234-14.926 2.224-19.305 8.8495v-6.2363c0-1.7653-1.0314-2.8887-4.1035-2.8887zm34.504 0c-3.0721 0-4.1035 1.1004-4.1035 2.8887v42.344c0.73363 0.18341 2.2225 0.36719 3.5293 0.36719 3.0721 0 4.0137-1.0317 4.0137-2.8887v-42.344c-0.73362-0.18341-2.1327-0.36719-3.4394-0.36719zm-191.62 23.455c2.2062-0.0315 4.5436 0.05227 6.9551 0.22852v8.4823c-3.2555 4.4935-8.483 7.474-14.467 7.4511-5.892 0-9.1483-3.5308-9.1483-7.4511 0-6.2774 7.0998-8.5743 16.66-8.7108zm228.07 0c2.2062-0.0315 4.5436 0.05227 6.955 0.22852v8.4823c-3.2555 4.4935-8.483 7.474-14.467 7.4511-5.892 0-9.1464-3.5308-9.1464-7.4511 0-6.2774 7.0978-8.5743 16.658-8.7108z" fill="#002a91"/>
	</g>
	<linearGradient id="A" x1="1456.7" x2="1456.7" y2="500" gradientTransform="matrix(.22926 0 0 .22926 .00129 .000452)" gradientUnits="userSpaceOnUse">
		<stop stop-color="red" offset=".4"/>
		<stop stop-color="#d42321" offset="1"/>
	</linearGradient>
	<path d="m190.77 4.52e-4h286.39c4.2184 0 7.6342 3.416 7.6342 7.6342v99.36c0 4.2184-3.416 7.6342-7.6342 7.6342h-286.39c-4.2184 0-7.6342-3.416-7.6342-7.6342v-99.36c0-4.2184 3.416-7.6342 7.6342-7.6342z" fill="url(#A)"/>
	<linearGradient id="B" x1="1459.5" x2="1450.8" y1="233.73" y2="-15.325" gradientTransform="matrix(.22926 0 0 .22926 .00129 .000452)" gradientUnits="userSpaceOnUse">
		<stop stop-color="#fff" offset="0"/>
		<stop stop-color="#fff" stop-opacity=".835" offset=".12"/>
		<stop stop-color="#fff" stop-opacity=".658" offset=".269"/>
		<stop stop-color="#fff" stop-opacity=".511" offset=".42"/>
		<stop stop-color="#fff" stop-opacity=".397" offset=".568"/>
		<stop stop-color="#fff" stop-opacity=".315" offset=".716"/>
		<stop stop-color="#fff" stop-opacity=".266" offset=".86"/>
		<stop stop-color="#fff" stop-opacity=".25" offset="1"/>
	</linearGradient>
	<path d="m188.63 56.856 0.73363-0.04585 289.71-10.11c3.1867-0.02293 5.7315-2.6365 5.7086-5.8003v-33.266c0-4.2184-3.416-7.6342-7.6342-7.6342h-286.39c-4.2184 0-7.6342 3.416-7.6342 7.6342v55.183c-0.0917-3.1409 2.3614-5.8003 5.5022-5.9607z" fill="url(#B)" opacity=".4"/>
	<linearGradient id="C" x1="361.92" x2="361.92" y1="28.806" y2="471.22" gradientTransform="matrix(.22926 0 0 .22926 .00129 .000452)" gradientUnits="userSpaceOnUse">
		<stop stop-color="#cbcbcb" offset="0"/>
		<stop stop-color="#d4d4d4" offset=".8"/>
	</linearGradient>
	<path d="m114.54 106.4c2.4072 1.0546 4.9978 1.6277 7.6114 1.6277 5.9836 0.13754 9.262-2.155 11.669-7.5196l32.119-71.506c-2.0863-0.93995-4.3559-1.4673-6.6484-1.536-4.1496-0.0917-9.6976 0.75656-13.205 9.1932l-10.385 24.485-20.404-33.151c-2.2467-0.59606-4.5622-0.91703-6.8778-0.96288-7.2216 0-11.234 2.6365-15.406 7.1758l-19.831 21.642 15.934 25.081c2.9574 4.5623 6.8319 6.9007 13.137 6.9007 3.1408 0.04585 6.2588-0.5273 9.1703-1.7194l-19.212-28.887 13.618-14.42 22.33 35.008zm-42.115-27.03c0 5.273-2.0633 8.2991-12.38 8.2991-1.238 0-2.476-0.0917-3.6911-0.25218v-69.947c0-5.3188 1.8111-10.867 12.197-10.867 1.3068 0 2.6136 0.13756 3.8745 0.38974zm-21.275-10.569c0 9.858-6.4422 17.011-19.51 18.432-9.4683 1.0087-23.178-0.18341-29.689-0.91703-0.22926-1.1234-0.36681-2.2697-0.38974-3.4389 0-8.5742 4.631-10.546 8.9869-10.546 4.5393 0 11.669 0.8024 16.965 0.8024 5.8461 0 7.6113-1.9716 7.6113-3.8745 0-2.4531-2.3384-3.4847-6.8778-4.3559l-12.426-2.3843c-10.317-1.9716-15.819-9.1015-15.819-16.667 0-9.1932 6.511-16.873 19.327-18.295 9.6976-1.0546 21.505 0.13756 27.97 0.91703 0.22926 1.0775 0.34389 2.178 0.34389 3.3013 0 8.5742-4.5393 10.431-8.8952 10.431-3.3472 0-8.5513-0.619-14.489-0.619-6.0295 0-8.5513 1.6736-8.5513 3.6911 0 2.155 2.3843 3.0262 6.1671 3.6911l11.853 2.2009c12.174 2.2238 17.424 9.1473 17.424 17.63z" fill="url(#C)"/>
	<linearGradient id="D" x1="365.45" x2="359.6" y1="263.25" y2="95.751" gradientTransform="matrix(.22926 0 0 .22926 .00129 .000452)" gradientUnits="userSpaceOnUse">
		<stop stop-color="#fff" offset="0"/>
		<stop stop-color="#fff" stop-opacity=".835" offset=".12"/>
		<stop stop-color="#fff" stop-opacity=".658" offset=".269"/>
		<stop stop-color="#fff" stop-opacity=".511" offset=".42"/>
		<stop stop-color="#fff" stop-opacity=".397" offset=".568"/>
		<stop stop-color="#fff" stop-opacity=".315" offset=".716"/>
		<stop stop-color="#fff" stop-opacity=".266" offset=".86"/>
		<stop stop-color="#fff" stop-opacity=".25" offset="1"/>
	</linearGradient>
	<path d="m165.96 29.001-11.761 26.181c-0.91702 1.8799-2.8199 3.0721-4.9061 3.0721l-10.729 0.36682c-1.1692 0.06878-2.2009 0.84825-2.6136 1.9487v-0.02293l10.133-23.889c3.5306-8.4366 9.0786-9.2849 13.205-9.1932 2.3155 0.06878 4.5622 0.59607 6.6714 1.536zm-30.812 31.294-19.854-32.28c-2.2467-0.59607-4.5622-0.91703-6.8778-0.96288-7.2216 0-11.234 2.6365-15.406 7.1758l-19.831 21.642 1.5819 2.4989c1.0317 1.559 2.8199 2.4531 4.6998 2.3614l11.302-0.38974a5.6558 5.6558 0 0 1 4.9978 2.2467l-3.5535-5.3417 13.618-14.42 9.1473 14.329c1.1234 1.4214 2.8657 2.2238 4.6769 2.178l12.999-0.45852c1.0087 0 1.9716 0.55022 2.4989 1.4214zm-66.6-53.67c-10.385 0-12.197 5.5481-12.197 10.867v47.915c0-2.2009 1.7653-3.9891 3.9662-4.0579l8.0469-0.27511c2.2467 0 4.0808-1.8341 4.0808-4.0808v-49.979c-1.3068-0.27511-2.5906-0.41267-3.8974-0.38974zm-34.802 44.522-11.853-2.2009c-3.7828-0.66484-6.1671-1.536-6.1671-3.6911 0-2.0175 2.5219-3.6911 8.5513-3.6911 5.9378 0 11.142 0.619 14.489 0.619 4.3559 0 8.8952-1.857 8.8952-10.431 0-1.1004-0.11463-2.2238-0.34389-3.3013-6.4651-0.8024-18.272-1.9716-27.97-0.91703-12.839 1.4214-19.349 9.1244-19.349 18.295 0.022926 4.9061 2.3384 9.5371 6.2588 12.495 2.8887 1.7882 6.1441 2.9574 9.5142 3.393 4.4018 0.59607 8.8264 0.82532 13.251 0.68778l14.145-0.50437c5.2959-0.18341 8.1845 4.333 7.8864 8.8722 0-0.06878 0-0.11463 0.02293-0.18341v-0.04585c0.04585-0.59607 0.06878-1.1921 0.06878-1.7882 0-8.4366-5.25-15.36-17.401-17.607z" fill="url(#D)" opacity=".25"/>
	<path d="m205.05 82.373c-0.68777-4.7227 0.77948-7.1986 3.4847-7.1986 2.5677 0 8.8722 2.8199 17.653 2.8199 9.2391 0 12.724-3.2784 12.724-7.5425 0-3.0262-1.3526-5.7315-9.6746-8.001l-9.56-2.5677c-10.569-2.8199-14.741-8.1157-14.741-14.65 0-8.0927 6.4192-15.315 20.931-15.315 6.5339 0 14.65 1.4673 19.579 3.393 0.89411 4.6081-0.57314 7.0841-3.3701 7.0841-2.476 0-8.0927-2.3614-16.094-2.3614-8.5513 0-11.715 2.9116-11.715 6.7402 0 2.6823 1.238 5.1813 8.8952 7.3133l9.7893 2.7053c10.936 3.0262 15.315 8.0927 15.315 15.292 0 8.4596-6.5339 15.979-22.284 15.979-6.9694 0.02293-15.658-1.6736-20.931-3.6911m108.03-24.416c0 17.653-12.38 28.13-25.998 28.13-8.0927 0-14.741-3.8286-18.685-9.2161v22.743c0 2.1321-1.238 3.4847-4.8374 3.4847-1.8111 0-3.4847-0.22926-4.3788-0.4356v-71.711c0.8941-0.22926 2.5677-0.45852 4.3788-0.45852 3.5994 0 4.8374 1.3526 4.8374 3.4847v5.1583c3.9433-5.3876 10.592-9.2161 18.685-9.2161 13.618 0 25.998 10.477 25.998 28.038m-9.3307 0c0-11.807-7.8636-19.923-18.455-19.923-7.1986 0-13.847 4.1725-16.873 10.248v19.464c3.0262 6.0754 9.6746 10.248 16.873 10.248 10.569-0.02293 18.455-8.1157 18.455-20.037m17.974 0c0-16.094 11.807-28.015 27.672-28.015 15.979 0 27.786 11.921 27.786 28.015 0 15.979-11.807 28.13-27.786 28.13-15.865-0.02293-27.672-12.174-27.672-28.13m46.127 0c0-12.38-8.3449-19.923-18.455-19.923-9.9956 0-18.341 7.5425-18.341 19.923 0 12.265 8.3449 20.014 18.341 20.014 10.11 0 18.455-7.7489 18.455-20.014m53.945-22.972c0 3.714-1.559 4.4935-5.4105 4.4935-7.749 0-14.283 3.5994-18.341 12.036v30.514c0 2.2467-1.238 3.4847-4.952 3.4847-1.5819 0-3.393-0.22926-4.2871-0.43559v-54.151c0.89411-0.22926 2.6823-0.43559 4.2871-0.43559 3.6911 0 4.952 1.3526 4.952 3.4847v7.5425c5.273-8.001 13.274-12.036 23.293-10.683 0.11463 0.77947 0.45851 2.476 0.45851 4.1496m40.464 47.388c-4.7227 2.2467-10.133 3.714-15.521 3.714-10.683 0-17.103-6.3046-17.103-16.759v-46.471c0-2.3614 1.3526-3.9433 4.952-3.9433 1.559 0 3.3701 0.32096 4.2872 0.57315v11.692h21.023c0.11463 0.77948 0.34388 2.3614 0.34388 3.714 0 3.2555-1.3526 4.3789-3.3701 4.3789h-17.997v29.391c0 6.2817 2.9116 9.3307 8.8722 9.3307 5.4105 0 8.4366-2.3614 11.027-2.3614 2.7053-0.02293 4.0579 2.2238 3.4847 6.7402" fill="#fff"/>
</svg>
