<?xml version="1.0" encoding="UTF-8"?>
<svg width="800" height="111.39" version="1.1" xmlns="http://www.w3.org/2000/svg">
	<defs>
		<linearGradient id="A" x1="1456.7" x2="1456.7" y2="500" gradientTransform="matrix(.22278 0 0 .22278 .016121 4.9632e-6)" gradientUnits="userSpaceOnUse">
			<stop stop-color="red" offset=".4"/>
			<stop stop-color="#d42321" offset="1"/>
		</linearGradient>
		<linearGradient id="B" x1="1459.5" x2="1450.8" y1="233.73" y2="-15.325" gradientTransform="matrix(.22278 0 0 .22278 .016121 4.9632e-6)" gradientUnits="userSpaceOnUse">
			<stop stop-color="#fff" offset="0"/>
			<stop stop-color="#fff" stop-opacity=".835" offset=".12"/>
			<stop stop-color="#fff" stop-opacity=".658" offset=".269"/>
			<stop stop-color="#fff" stop-opacity=".511" offset=".42"/>
			<stop stop-color="#fff" stop-opacity=".397" offset=".568"/>
			<stop stop-color="#fff" stop-opacity=".315" offset=".716"/>
			<stop stop-color="#fff" stop-opacity=".266" offset=".86"/>
			<stop stop-color="#fff" stop-opacity=".25" offset="1"/>
		</linearGradient>
		<linearGradient id="C" x1="361.92" x2="361.92" y1="28.806" y2="471.22" gradientTransform="matrix(.22278 0 0 .22278 .016121 4.9632e-6)" gradientUnits="userSpaceOnUse">
			<stop stop-color="#cbcbcb" offset="0"/>
			<stop stop-color="#d4d4d4" offset=".8"/>
		</linearGradient>
		<linearGradient id="D" x1="365.45" x2="359.6" y1="263.25" y2="95.751" gradientTransform="matrix(.22278 0 0 .22278 .016121 4.9632e-6)" gradientUnits="userSpaceOnUse">
			<stop stop-color="#fff" offset="0"/>
			<stop stop-color="#fff" stop-opacity=".835" offset=".12"/>
			<stop stop-color="#fff" stop-opacity=".658" offset=".269"/>
			<stop stop-color="#fff" stop-opacity=".511" offset=".42"/>
			<stop stop-color="#fff" stop-opacity=".397" offset=".568"/>
			<stop stop-color="#fff" stop-opacity=".315" offset=".716"/>
			<stop stop-color="#fff" stop-opacity=".266" offset=".86"/>
			<stop stop-color="#fff" stop-opacity=".25" offset="1"/>
		</linearGradient>
	</defs>
	<path d="m463.69 8.2627e-4v111.39h328.89c4.0992 0 7.4178-3.3185 7.4178-7.4177v-96.554c0.0223-4.0992-3.2962-7.4192-7.4178-7.4192z" fill="#cbcbcb"/>
	<path d="m463.69 2.2283v106.94h328.89c2.8683 4e-3 5.1947-2.3218 5.1902-5.1902v-96.554c0-2.8516-2.3163-5.1917-5.1902-5.1917z" fill="#fff"/>
	<g fill="#002a91">
		<path d="m694.38 32.989c-1.5427 0-2.6267 0.32122-3.2535 0.96545-0.5785 0.59817-0.86797 1.3575-0.86797 2.2777v41.827c0.38567 0.09201 0.94047 0.16064 1.6636 0.20667 0.77133 0.09202 1.5418 0.13727 2.3132 0.13727 1.5427 0 2.6041-0.29786 3.1826-0.89601 0.62672-0.64418 0.94029-1.4269 0.94029-2.3471v-16.289h21.983v19.189c0.38567 0.09201 0.96463 0.16064 1.736 0.20667 0.77133 0.09202 1.5418 0.13727 2.3132 0.13727 1.5427 0 2.6041-0.29786 3.1826-0.89601 0.62673-0.64418 0.93882-1.4269 0.93882-2.3471v-41.826c-0.38567-0.09203-0.96315-0.16213-1.7345-0.20814-0.77135-0.09203-1.5433-0.13728-2.3146-0.13728-1.5427 0-2.6267 0.32122-3.2535 0.96545-0.57851 0.59817-0.86797 1.3575-0.86797 2.2777v15.944h-21.983v-18.842c-0.38567-0.09203-0.96462-0.16213-1.736-0.20814-0.72314-0.09203-1.4709-0.13728-2.2423-0.13728zm47.583 0.13728c-1.7837 0-2.9401 0.34607-3.4705 1.0362-0.48208 0.64418-0.72331 1.4954-0.72331 2.5538v37.685c0 1.0583 0.24123 1.9314 0.72331 2.6216 0.53031 0.64418 1.6867 0.96692 3.4705 0.96692h9.6912c4.0013 0 7.5686-0.59868 10.702-1.795 3.1819-1.1963 5.8806-2.8069 8.0981-4.8315 2.2176-2.0706 3.9062-4.4857 5.0633-7.2464s1.7345-5.7293 1.7345-8.9041c0-3.359-0.60159-6.3947-1.8068-9.1093-1.157-2.7147-2.8456-5.0394-5.0633-6.9719-2.1694-1.9325-4.82-3.4044-7.9534-4.4167-3.1336-1.0583-6.6526-1.5884-10.558-1.5884zm3.9059 7.0413h6.2899c2.3141 0 4.4836 0.32123 6.5084 0.96545 2.0248 0.64418 3.7858 1.6109 5.2802 2.8992 1.4945 1.2423 2.675 2.8062 3.5428 4.6927 0.86778 1.8406 1.302 3.9578 1.302 6.3504 0 2.6687-0.4342 4.9918-1.302 6.9705-0.8678 1.9786-2.0483 3.6358-3.5428 4.9703-1.4944 1.2883-3.2554 2.2769-5.2802 2.9671-1.9766 0.64418-4.0979 0.96692-6.3637 0.96692h-6.4346z"/>
		<path d="m665.73 97.547q-1.1471 0-2.5643-0.68688v-79.874q0-1.0794 0.47235-2.0606 0.47236-1.0794 1.8895-1.0794 1.1472 0 2.5643 0.68688v79.874q0 1.0794-0.47236 2.0606-0.47237 1.0794-1.8895 1.0794z"/>
		<path d="m601.38 18.007c-3.034 0-4.0776 1.0428-4.0776 2.8442v57.648c0.75851 0.1896 2.1814 0.38007 3.5087 0.28525 3.034 0 4.0776-0.94799 4.0776-2.8442v-57.554c-0.75852-0.18963-2.1814-0.37923-3.5087-0.37923zm30.955 0.09563c-8.249 0-14.506 4.8351-14.506 15.075v2.0858h-4.1715c-1.6118 0-2.7502 0.94794-2.7502 3.6027 0 1.0429 0.19043 2.465 0.28525 3.0338h6.6365v36.218c0.7585 0.18968 2.1813 0.37923 3.5087 0.37923 3.034 0 4.0759-0.94799 4.0759-2.8442v-33.847h12.612c1.7066 0 2.7486-0.94794 2.7486-3.6027 0-1.0429-0.18878-2.3701-0.28359-3.0338h-15.075v-2.6546h-2e-3c0-5.5939 2.75-7.8699 7.301-7.6802 4.1717 0 6.7312 1.2317 7.9638 1.2317 1.4222 0 2.6546-1.1376 2.6546-3.9819 0-0.47402-3e-5 -1.2316-0.18962-1.9901-2.4646-1.0429-6.9207-1.9918-10.808-1.9918zm-67.554 14.981c-12.99 0-22.755 9.7657-22.755 23.039 0 13.179 9.7666 23.23 22.755 23.135 13.084 0 22.849-9.9559 22.849-23.135 0-13.18-9.6707-23.039-22.849-23.039zm-53.811 0.09563c-10.808 0-20.764 8.5323-20.764 22.375 0 13.748 9.956 22.376 20.67 22.376 7.3006 0 12.705-3.3181 15.265-6.8261v3.0338c0 8.5334-5.6887 12.704-14.506 12.704-4.4561 0-8.2489-1.3264-10.714-2.3694-1.8962-0.75845-2.9398-1.3273-4.0776-1.3273-1.8962 0-3.3183 1.7063-2.8442 6.0677 4.8356 2.2755 11.568 4.1715 17.825 4.1715 13.369 0 21.995-7.3954 21.995-19.057v-40.39c-0.75843-0.18962-2.1796-0.38006-3.6967-0.28525-2.8444 0-3.8879 1.1384-3.8879 2.9399v3.6027c-2.7496-3.6976-8.1538-7.0158-15.265-7.0158zm1.6109 6.3513c6.0684 0 11.284 3.4128 13.654 8.5327v14.79c-2.4651 5.0251-7.6807 8.5343-13.654 8.5343-8.2487 0-14.6-5.8791-14.6-15.929 0-10.05 6.3516-15.928 14.6-15.928zm52.294 0.18962c8.3437 0 15.171 6.2578 15.171 16.403 0 10.145-6.9221 16.498-15.171 16.498-8.2483 0-15.075-6.448-15.075-16.498 0-10.24 6.8265-16.403 15.075-16.403z"/>
	</g>
	<g>
		<path d="m185.38 4.4877e-6h278.31c4.0992 0 7.4186 3.3194 7.4186 7.4186v96.551c0 4.0992-3.3195 7.4186-7.4186 7.4186h-278.31c-4.0992 0-7.4186-3.3194-7.4186-7.4186v-96.551c0-4.0992 3.3195-7.4186 7.4186-7.4186z" fill="url(#A)"/>
		<path d="m183.31 55.249 0.71288-0.04456 281.54-9.8248c3.0967-0.02228 5.5695-2.5621 5.5472-5.6364v-32.324c0-4.0992-3.3195-7.4186-7.4186-7.4186h-278.31c-4.0992 0-7.4186 3.3194-7.4186 7.4186v53.624c-0.0891-3.0521 2.2947-5.6364 5.3467-5.7924z" fill="url(#B)" opacity=".4"/>
		<path d="m111.3 103.4c2.3393 1.0248 4.8567 1.5818 7.3963 1.5818 5.8146 0.13366 9-2.0942 11.34-7.3071l31.211-69.484c-2.0274-0.91342-4.2329-1.4259-6.4607-1.4926-4.0322-0.08912-9.4238 0.73516-12.833 8.9333l-10.092 23.794-19.828-32.214c-2.1834-0.57922-4.4333-0.89114-6.6834-0.93571-7.0175 0-10.916 2.5621-14.972 6.973l-19.27 21.032 15.484 24.373c2.874 4.4333 6.6388 6.7056 12.765 6.7056 3.052 0.04457 6.0819-0.5124 8.9114-1.6708l-18.669-28.071 13.234-14.013 21.698 34.019zm-40.924-26.267c0 5.124-2.0051 8.0646-12.031 8.0646-1.2031 0-2.4061-0.08912-3.5867-0.24507v-67.97c0-5.1684 1.76-10.559 11.853-10.559 1.2698 0 2.5398 0.13367 3.765 0.37872zm-20.674-10.27c0 9.58-6.2602 16.53-18.959 17.912-9.2009 0.9802-22.523-0.17823-28.851-0.89114-0.22278-1.0916-0.35645-2.2056-0.37872-3.3417 0-8.332 4.5002-10.248 8.7332-10.248 4.411 0 11.34 0.77972 16.486 0.77972 5.6809 0 7.3963-1.9159 7.3963-3.765 0-2.3839-2.2724-3.3862-6.6834-4.2329l-12.075-2.317c-10.025-1.9159-15.372-8.8447-15.372-16.196 0-8.9333 6.3269-16.397 18.781-17.778 9.4238-1.0248 20.897 0.13367 27.18 0.89114 0.22278 1.0471 0.33417 2.1164 0.33417 3.2081 0 8.332-4.411 10.137-8.6438 10.137-3.2525 0-8.3098-0.60151-14.08-0.60151-5.8592 0-8.3098 1.6264-8.3098 3.5867 0 2.0942 2.317 2.9407 5.9928 3.5867l11.518 2.1388c11.83 2.1611 16.931 8.8886 16.931 17.132z" fill="url(#C)"/>
		<path d="m161.27 28.182-11.429 25.442c-0.89114 1.8268-2.7403 2.9853-4.7675 2.9853l-10.427 0.35645c-1.1362 0.06684-2.1387 0.82428-2.5398 1.8936v-0.02228l9.8467-23.214c3.4308-8.1983 8.8219-9.0228 12.833-8.9333 2.2501 0.06684 4.4333 0.57924 6.4829 1.4926zm-29.942 30.41-19.292-31.369c-2.1834-0.57922-4.4334-0.89114-6.6834-0.93571-7.0175 0-10.915 2.5621-14.972 6.973l-19.27 21.032 1.5372 2.4283c1.0025 1.5148 2.7403 2.3839 4.567 2.2947l10.983-0.37872a5.496 5.496 0 0 1 4.8565 2.1833l-3.453-5.1908 13.234-14.013 8.8886 13.924c1.0916 1.3812 2.7848 2.1611 4.5447 2.1164l12.632-0.44557c0.98028 0 1.9159 0.53467 2.4283 1.3812zm-64.717-52.152c-10.092 0-11.853 5.3913-11.853 10.559v46.562c0-2.1388 1.7154-3.8764 3.8541-3.9433l7.8196-0.26735c2.1833 0 3.9655-1.7823 3.9655-3.9655v-48.565c-1.2698-0.26735-2.5175-0.401-3.7872-0.37872zm-33.817 43.264-11.518-2.1388c-3.6758-0.64607-5.9928-1.4926-5.9928-3.5867 0-1.9605 2.4507-3.5867 8.3098-3.5867 5.77 0 10.828 0.60151 14.08 0.60151 4.2329 0 8.6438-1.8046 8.6438-10.137 0-1.0693-0.11139-2.1611-0.33417-3.208-6.2824-0.77972-17.755-1.9159-27.18-0.89114-12.476 1.3812-18.803 8.8666-18.803 17.778 0.022278 4.7675 2.2724 9.2676 6.082 12.142 2.8071 1.7377 5.9705 2.874 9.2457 3.297 4.2774 0.57922 8.5771 0.80202 12.877 0.66834l13.746-0.49013c5.1462-0.17823 7.9532 4.2105 7.6636 8.6218 0-0.06684 0-0.11139 0.02228-0.17823v-0.04456c0.04456-0.57924 0.06684-1.1584 0.06684-1.7377 0-8.1983-5.1017-14.926-16.909-17.109z" fill="url(#D)" opacity=".25"/>
		<path d="m199.26 80.044c-0.66834-4.5893 0.75746-6.9952 3.3862-6.9952 2.4952 0 8.6218 2.7403 17.154 2.7403 8.9781 0 12.365-3.1857 12.365-7.3294 0-2.9407-1.3144-5.5695-9.401-7.775l-9.2904-2.4952c-10.27-2.7403-14.325-7.8863-14.325-14.236 0-7.8641 6.2379-14.882 20.34-14.882 6.3493 0 14.236 1.4259 19.027 3.297 0.86885 4.4779-0.55696 6.8839-3.2748 6.8839-2.406 0-7.8641-2.2947-15.64-2.2947-8.3098 0-11.385 2.8294-11.385 6.5497 0 2.6066 1.203 5.0348 8.6438 7.1066l9.5124 2.6288c10.627 2.9407 14.882 7.8641 14.882 14.86 0 8.2206-6.3493 15.527-21.655 15.527-6.7725 0.02228-15.216-1.6264-20.34-3.5867m104.97-23.726c0 17.154-12.031 27.335-25.264 27.335-7.8641 0-14.325-3.7205-18.157-8.9553v22.1c0 2.0719-1.203 3.3862-4.7006 3.3862-1.76 0-3.3862-0.22278-4.2551-0.42327v-69.685c0.86885-0.22278 2.4952-0.44557 4.2551-0.44557 3.4976 0 4.7006 1.3144 4.7006 3.3862v5.0125c3.8318-5.2353 10.292-8.9553 18.157-8.9553 13.234 0 25.264 10.182 25.264 27.247m-9.0676 0c0-11.474-7.6414-19.36-17.934-19.36-6.9952 0-13.456 4.0546-16.397 9.959v18.913c2.9407 5.9037 9.401 9.959 16.397 9.959 10.27-0.02228 17.934-7.8863 17.934-19.471m17.466 0c0-15.64 11.474-27.224 26.89-27.224 15.527 0 27.001 11.584 27.001 27.224 0 15.527-11.474 27.335-27.001 27.335-15.417-0.022278-26.89-11.83-26.89-27.335m44.823 0c0-12.031-8.1092-19.36-17.934-19.36-9.7134 0-17.823 7.3294-17.823 19.36 0 11.918 8.1092 19.449 17.823 19.449 9.8248 0 17.934-7.5299 17.934-19.449m52.421-22.324c0 3.609-1.5148 4.3665-5.2575 4.3665-7.5299 0-13.879 3.4976-17.823 11.696v29.653c0 2.1833-1.203 3.3862-4.8121 3.3862-1.5372 0-3.2972-0.22278-4.166-0.42328v-52.621c0.86885-0.22278 2.6066-0.42329 4.166-0.42329 3.5867 0 4.8121 1.3144 4.8121 3.3862v7.3294c5.124-7.775 12.899-11.696 22.635-10.382 0.11138 0.75745 0.44553 2.4061 0.44553 4.0323m39.32 46.049c-4.5893 2.1833-9.8467 3.609-15.083 3.609-10.382 0-16.621-6.1265-16.621-16.285v-45.157c0-2.2947 1.3144-3.8318 4.8121-3.8318 1.5148 0 3.2749 0.31189 4.166 0.55694v11.362h20.43c0.1114 0.75745 0.33418 2.2947 0.33418 3.609 0 3.1635-1.3144 4.2551-3.275 4.2551h-17.489v28.561c0 6.1042 2.8294 9.0675 8.6218 9.0675 5.2576 0 8.1984-2.2947 10.715-2.2947 2.6288-0.02228 3.9432 2.1611 3.3862 6.5497" fill="#fff"/>
	</g>
</svg>
