<?xml version="1.0" encoding="UTF-8"?>
<svg width="800" height="118.84" version="1.1" xmlns="http://www.w3.org/2000/svg">
	<defs>
		<linearGradient id="A" x1="1456.7" x2="1456.7" y2="500" gradientTransform="matrix(.23769 0 0 .23769 .014281 2.0393e-6)" gradientUnits="userSpaceOnUse">
			<stop stop-color="red" offset=".4"/>
			<stop stop-color="#d42321" offset="1"/>
		</linearGradient>
		<linearGradient id="B" x1="1459.5" x2="1450.8" y1="233.73" y2="-15.325" gradientTransform="matrix(.23769 0 0 .23769 .014281 2.0393e-6)" gradientUnits="userSpaceOnUse">
			<stop stop-color="#fff" offset="0"/>
			<stop stop-color="#fff" stop-opacity=".835" offset=".12"/>
			<stop stop-color="#fff" stop-opacity=".658" offset=".269"/>
			<stop stop-color="#fff" stop-opacity=".511" offset=".42"/>
			<stop stop-color="#fff" stop-opacity=".397" offset=".568"/>
			<stop stop-color="#fff" stop-opacity=".315" offset=".716"/>
			<stop stop-color="#fff" stop-opacity=".266" offset=".86"/>
			<stop stop-color="#fff" stop-opacity=".25" offset="1"/>
		</linearGradient>
		<linearGradient id="C" x1="361.92" x2="361.92" y1="28.806" y2="471.22" gradientTransform="matrix(.23769 0 0 .23769 .014281 2.0393e-6)" gradientUnits="userSpaceOnUse">
			<stop stop-color="#cbcbcb" offset="0"/>
			<stop stop-color="#d4d4d4" offset=".8"/>
		</linearGradient>
		<linearGradient id="D" x1="365.45" x2="359.6" y1="263.25" y2="95.751" gradientTransform="matrix(.23769 0 0 .23769 .014281 2.0393e-6)" gradientUnits="userSpaceOnUse">
			<stop stop-color="#fff" offset="0"/>
			<stop stop-color="#fff" stop-opacity=".835" offset=".12"/>
			<stop stop-color="#fff" stop-opacity=".658" offset=".269"/>
			<stop stop-color="#fff" stop-opacity=".511" offset=".42"/>
			<stop stop-color="#fff" stop-opacity=".397" offset=".568"/>
			<stop stop-color="#fff" stop-opacity=".315" offset=".716"/>
			<stop stop-color="#fff" stop-opacity=".266" offset=".86"/>
			<stop stop-color="#fff" stop-opacity=".25" offset="1"/>
		</linearGradient>
	</defs>
	<g>
		<path d="m494.7 0h299.53c3.1957 0 5.7684 2.5727 5.7684 5.7684v107.3c0 3.1957-2.5727 5.7684-5.7684 5.7684h-299.53z" fill="#cbcbcb" fill-rule="evenodd" stop-color="#000000"/>
		<path d="m494.7 2.3769h297.39c3.0679 0 5.5377 2.4698 5.5377 5.5377v103.01c0 3.0679-2.4698 5.5377-5.5377 5.5377h-297.39z" fill="#fafafa" fill-rule="evenodd" stop-color="#000000"/>
		<path d="m725.47 20.149c-1.5798 0-2.9387 0.56959-4.0762 1.707-1.1374 1.1374-1.707 2.5269-1.707 4.1699 0 1.5798 0.56959 2.9387 1.707 4.0762 1.1375 1.1374 2.4964 1.707 4.0762 1.707 1.643 0 3.0325-0.56959 4.1699-1.707 1.1374-1.1375 1.707-2.4964 1.707-4.0762 0-1.643-0.5696-3.0325-1.707-4.1699-1.1375-1.1374-2.5269-1.707-4.1699-1.707zm-190.67 3.8692c-1.327 0-2.4011 0.15865-3.2227 0.47461-0.75831 0.31594-1.3584 0.75745-1.8008 1.3262-0.37915 0.56876-0.66393 1.2014-0.85351 1.8965-0.12643 0.69511-0.18946 1.4214-0.18946 2.1797v37.063c0 2.3381 0.34786 4.4864 1.043 6.4453 0.6951 1.8958 1.7062 3.57 3.0332 5.0235 1.3271 1.3902 2.9382 2.4968 4.834 3.3184 1.9584 0.75812 4.173 1.1365 6.6368 1.1367 2.7164-1.56e-4 5.0858-0.3155 7.1074-0.94727 2.0854-0.6319 4.0444-1.4863 5.877-2.5606 0.0633-0.31596 0.0957-0.63131 0.0957-0.94727v-1.043c0-1.7693-0.34789-3.0652-1.043-3.8867-0.6951-0.82153-1.6431-1.2305-2.8438-1.2305-0.5055 0-1.0426 0.09363-1.6113 0.2832-0.50552 0.18958-1.0751 0.41129-1.707 0.66407-0.56876 0.25277-1.2319 0.47449-1.9902 0.66406-0.75831 0.18958-1.6107 0.2832-2.5586 0.2832-2.2118 0-3.886-0.66324-5.0235-1.9902-1.1374-1.3271-1.707-3.1905-1.707-5.5918v-22.086h12.514c1.0111 0 1.831-0.31534 2.4629-0.94727 0.6951-0.63197 1.043-1.7386 1.043-3.3184 0-1.5798-0.15864-2.8431-0.47462-3.791h-15.545v-11.754c-1.2006-0.44235-2.5596-0.66407-4.0762-0.66407zm49.381 11.564c-3.1596 0-6.0972 0.60013-8.8145 1.8008-2.7172 1.2007-5.0872 2.8749-7.1094 5.0235-1.959 2.0853-3.5071 4.5815-4.6446 7.4883-1.1374 2.8436-1.707 5.9724-1.707 9.3848s0.53712 6.6022 1.6114 9.5723c1.1374 2.9069 2.7486 5.4355 4.834 7.584 2.0854 2.1485 4.6465 3.8228 7.6797 5.0235 3.0335 1.2007 6.4773 1.8008 10.332 1.8008 3.602 0 6.8244-0.37841 9.668-1.1367 2.8436-0.82153 5.2136-1.6759 7.1094-2.5606 0.0633-0.37917 0.0938-0.75757 0.0938-1.1367 0.0633-0.37914 0.0957-0.72701 0.0957-1.043 0-1.7062-0.38036-3.0651-1.1387-4.0762-0.69511-1.0111-1.6106-1.5156-2.7481-1.5156-0.82153 0-1.6434 0.12614-2.4649 0.37891-0.82146 0.25277-1.737 0.56812-2.748 0.94727-1.011 0.31596-2.1483 0.60075-3.4121 0.85352-1.2639 0.25277-2.7489 0.37891-4.4551 0.37891-3.9811 0-7.2054-0.948-9.67-2.8438-2.4013-1.959-3.8233-4.7704-4.2656-8.4356h32.893c0.31595-1.5798 0.47265-3.1605 0.47265-4.7403 0-2.8436-0.474-5.6226-1.4219-8.3399-0.88474-2.7173-2.2417-5.1503-4.0742-7.2989-1.7694-2.1485-4.0132-3.8553-6.7305-5.1192-2.7173-1.3271-5.8461-1.9902-9.3848-1.9902zm55.656 0c-3.2228 0-6.1279 0.72627-8.7188 2.1797-2.5277 1.3902-4.5824 3.1906-6.1621 5.4024l-0.0957-1.3262c0-1.7693-0.44152-3.1608-1.3262-4.1719-0.82145-1.0743-2.211-1.6113-4.1699-1.6113-0.88468 0-1.7065 0.09558-2.4648 0.28516-0.69512 0.12639-1.3908 0.28503-2.086 0.47461v45.496c0.50554 0.12639 1.2318 0.22197 2.1797 0.28516 1.0111 0.12639 1.9916 0.18945 2.9395 0.18945 2.0222 0 3.3811-0.4109 4.0762-1.2324 0.75833-0.82146 1.1367-1.8631 1.1367-3.127v-27.774c1.0742-1.8958 2.6224-3.4134 4.6446-4.5508 2.0853-1.1374 4.1399-1.7051 6.1621-1.7051 3.2228 0 5.7189 0.948 7.4883 2.8438 1.7694 1.8958 2.6543 4.8659 2.6543 8.9102v26.162c0.50554 0.12639 1.2318 0.22001 2.1797 0.2832 1.0111 0.12639 1.9896 0.18945 2.9375 0.18945 2.0222 0 3.3811-0.4109 4.0762-1.2324 0.75833-0.82146 1.1387-1.8631 1.1387-3.127v-23.412c0-6.256-1.485-11.059-4.4551-14.408-2.9703-3.3492-7.0162-5.0235-12.135-5.0235zm54.752 0c-3.2228 0-6.1299 0.72627-8.7207 2.1797-2.5277 1.3902-4.5804 3.1906-6.1602 5.4024l-0.0957-1.3262c0-1.7693-0.44152-3.1608-1.3262-4.1719-0.82146-1.0743-2.2129-1.6113-4.1719-1.6113-0.88468 0-1.7046 0.09558-2.4629 0.28516-0.69512 0.12639-1.3908 0.28503-2.086 0.47461v45.496c0.50554 0.12639 1.2318 0.22197 2.1797 0.28516 1.0111 0.12639 1.9916 0.18945 2.9395 0.18945 2.0222 0 3.3811-0.4109 4.0762-1.2324 0.75832-0.82146 1.1367-1.8631 1.1367-3.127v-27.774c1.0742-1.8958 2.6224-3.4134 4.6446-4.5508 2.0853-1.1374 4.14-1.7051 6.1621-1.7051 3.2228 0 5.7189 0.948 7.4883 2.8438 1.7694 1.8958 2.6524 4.8659 2.6524 8.9102v26.162c0.50555 0.12639 1.2338 0.22001 2.1816 0.2832 1.0111 0.12639 1.9896 0.18945 2.9375 0.18945 2.0222 0 3.3811-0.4109 4.0762-1.2324 0.75832-0.82146 1.1367-1.8631 1.1367-3.127v-23.412c2.1e-4 -6.256-1.4848-11.059-4.4551-14.408-2.9703-3.3492-7.0143-5.0235-12.133-5.0235zm63.211 0.18945c-3.3492 0-6.1932 0.3784-8.5313 1.1367-2.3381 0.69511-4.2646 1.6431-5.7813 2.8438-1.4534 1.2007-2.5276 2.5902-3.2227 4.1699-0.69512 1.5798-1.043 3.2235-1.043 4.9297 0 3.1596 1.011 5.8144 3.0332 7.9629 2.0225 2.0853 5.5924 3.8532 10.711 5.3067l6.7305 1.8965c2.7173 0.75832 4.6133 1.5171 5.6875 2.2754 1.0742 0.69511 1.6113 1.7367 1.6113 3.127 0 0.69515-0.12614 1.3603-0.3789 1.9922-0.1896 0.56876-0.60051 1.1058-1.2324 1.6113-0.63191 0.44236-1.5494 0.82076-2.75 1.1367-1.1375 0.25277-2.6531 0.37891-4.5489 0.37891-1.7063-8e-6 -3.3174-0.12614-4.834-0.37891-1.5166-0.25277-2.908-0.53756-4.1719-0.85352-1.2006-0.37915-2.3378-0.6945-3.4121-0.94727-1.0111-0.25277-1.896-0.37891-2.6543-0.37891-1.2639 0-2.2424 0.50454-2.9375 1.5156s-1.043 2.3394-1.043 3.9824v1.041c0.0631 0.31596 0.12625 0.63326 0.18945 0.94922 3.0332 1.0743 6.162 1.9267 9.3848 2.5586 3.286 0.56873 6.4454 0.85352 9.4786 0.85352 3.7915 0 6.9183-0.4109 9.3828-1.2324 2.5277-0.82146 4.5193-1.8651 5.9727-3.1289 1.4534-1.3271 2.4645-2.8121 3.0332-4.4551 0.63192-1.7062 0.94726-3.411 0.94726-5.1172 0-3.286-1.0741-6.0038-3.2227-8.1524-2.085-2.1485-5.7187-3.9489-10.9-5.4024l-7.1094-1.9902c-1.4534-0.37915-2.6232-0.72701-3.5078-1.043-0.82147-0.37917-1.4847-0.75952-1.9902-1.1387-0.44235-0.37918-0.75769-0.79008-0.94727-1.2324-0.12639-0.44236-0.18946-0.9469-0.18946-1.5156 0-1.327 0.60014-2.3706 1.8008-3.1289 1.2639-0.75832 3.4122-1.1367 6.4454-1.1367 3.286 0 5.9714 0.34786 8.0567 1.043 2.1485 0.63193 3.9184 0.94727 5.3086 0.94727 1.3902 0 2.4013-0.50454 3.0332-1.5156 0.6951-1.0743 1.043-2.5288 1.043-4.3613 0-0.25277-0.0325-0.47254-0.0957-0.66211v-0.85352c-6.0667-2.0222-11.848-3.0332-17.346-3.0332zm-32.326 0.2832c-1.959 0-3.3179 0.4109-4.0762 1.2324-0.75833 0.82146-1.1367 1.8651-1.1367 3.1289v41.895c0.50555 0.12639 1.2318 0.22196 2.1797 0.28516 0.94788 0.12639 1.8959 0.18945 2.8438 0.18945 2.0221 0 3.4116-0.4109 4.1699-1.2324 0.75832-0.82146 1.1387-1.8631 1.1387-3.127v-41.897c-0.50554-0.12639-1.2338-0.22196-2.1816-0.28516-0.94787-0.12639-1.9264-0.18945-2.9375-0.18945zm-141.29 7.584c3.6652 0 6.4786 1.1697 8.4375 3.5078 2.0222 2.2749 3.1899 5.1169 3.5059 8.5293h-23.791c0.31592-3.602 1.4856-6.509 3.5078-8.7207 2.0853-2.2117 4.8643-3.3164 8.3399-3.3164z" fill="#002a91"/>
		<path d="m197.78 2.0393e-6h296.92c4.3734 0 7.9148 3.5414 7.9148 7.9148v103.01c0 4.3734-3.5415 7.9148-7.9148 7.9148h-296.92c-4.3734 0-7.9148-3.5414-7.9148-7.9148v-103.01c0-4.3734 3.5415-7.9148 7.9148-7.9148z" fill="url(#A)"/>
		<path d="m195.57 58.945 0.76058-0.04754 300.37-10.482c3.3038-0.02377 5.9421-2.7334 5.9183-6.0134v-34.487c0-4.3734-3.5415-7.9148-7.9148-7.9148h-296.92c-4.3734 0-7.9148 3.5414-7.9148 7.9148v57.211c-0.0951-3.2563 2.4482-6.0134 5.7044-6.1798z" fill="url(#B)" opacity=".4"/>
		<path d="m118.75 110.31c2.4957 1.0933 5.1815 1.6876 7.891 1.6876 6.2035 0.14261 9.6024-2.2343 12.099-7.7959l33.299-74.132c-2.163-0.97456-4.516-1.5212-6.8928-1.5925-4.302-0.09508-10.054 0.78434-13.691 9.531l-10.767 25.385-21.154-34.369c-2.3294-0.61797-4.7299-0.95072-7.1305-0.99833-7.4869 0-11.646 2.7334-15.973 7.4394l-20.559 22.438 16.52 26.003c3.0662 4.7299 7.0829 7.1542 13.619 7.1542 3.2562 0.04754 6.4888-0.54667 9.5072-1.7826l-19.918-29.949 14.119-14.95 23.15 36.294zm-43.662-28.024c0 5.4667-2.1392 8.6041-12.835 8.6041-1.2835 0-2.567-0.09508-3.8266-0.26146v-72.516c0-5.5142 1.8777-11.266 12.645-11.266 1.3548 0 2.7097 0.14261 4.0168 0.40406zm-22.057-10.957c0 10.221-6.6789 17.636-20.227 19.11-9.8162 1.0458-24.03-0.19015-30.78-0.95071-0.23769-1.1646-0.38029-2.3531-0.40406-3.5652 0-8.8893 4.8012-10.933 9.3171-10.933 4.7061 0 12.099 0.83188 17.589 0.83188 6.0609 0 7.891-2.0441 7.891-4.0168 0-2.5433-2.4244-3.6127-7.1305-4.516l-12.882-2.472c-10.695-2.0441-16.4-9.4359-16.4-17.279 0-9.531 6.7501-17.494 20.037-18.967 10.054-1.0933 22.295 0.14261 28.998 0.95072 0.23769 1.1171 0.35652 2.258 0.35652 3.4227 0 8.8893-4.7061 10.815-9.2221 10.815-3.4701 0-8.8656-0.64174-15.022-0.64174-6.2511 0-8.8656 1.7351-8.8656 3.8266 0 2.2343 2.472 3.1374 6.3937 3.8266l12.289 2.2818c12.621 2.3056 18.064 9.4835 18.064 18.278z" fill="url(#C)"/>
		<path d="m172.06 30.067-12.193 27.143c-0.95076 1.949-2.9236 3.185-5.0864 3.185l-11.124 0.38029c-1.2122 0.07131-2.2818 0.87942-2.7097 2.0203v-0.02377l10.505-24.767c3.6603-8.7467 9.4122-9.6263 13.691-9.531 2.4006 0.07131 4.7299 0.61798 6.9165 1.5925zm-31.945 32.444-20.583-33.467c-2.3294-0.61797-4.7299-0.95072-7.1305-0.99833-7.4869 0-11.646 2.7334-15.973 7.4394l-20.559 22.438 1.64 2.5908c1.0695 1.6162 2.9236 2.5433 4.8725 2.4482l11.718-0.40406a5.8636 5.8636 0 0 1 5.1814 2.3293l-3.684-5.538 14.119-14.95 9.4835 14.856c1.1646 1.4736 2.9711 2.3056 4.8487 2.258l13.477-0.47537c1.0459 0 2.0441 0.57044 2.5908 1.4736zm-69.046-55.641c-10.767 0-12.645 5.7519-12.645 11.266v49.676c0-2.2818 1.8302-4.1357 4.1119-4.207l8.3426-0.28523c2.3293 0 4.2307-1.9015 4.2307-4.2307v-51.814c-1.3548-0.28523-2.6859-0.42783-4.0406-0.40406zm-36.079 46.158-12.289-2.2818c-3.9217-0.68928-6.3937-1.5925-6.3937-3.8266 0-2.0916 2.6146-3.8266 8.8656-3.8266 6.156 0 11.552 0.64174 15.022 0.64174 4.516 0 9.2221-1.9253 9.2221-10.815 0-1.1409-0.11884-2.3056-0.35652-3.4226-6.7026-0.83188-18.943-2.0441-28.998-0.95072-13.31 1.4736-20.061 9.4597-20.061 18.967 0.023769 5.0864 2.4244 9.8878 6.4888 12.954 2.9949 1.8539 6.3699 3.0662 9.864 3.5176 4.5635 0.61797 9.1508 0.85566 13.739 0.71305l14.666-0.52291c5.4904-0.19015 8.4852 4.4922 8.1762 9.1983 0-0.07131 0-0.11884 0.02377-0.19015v-0.04754c0.04754-0.61798 0.07131-1.2359 0.07131-1.8539 0-8.7467-5.4429-15.925-18.04-18.254z" fill="url(#D)" opacity=".25"/>
		<path d="m212.59 85.399c-0.71304-4.8963 0.80813-7.4631 3.6128-7.4631 2.6621 0 9.1982 2.9236 18.302 2.9236 9.5786 0 13.192-3.3988 13.192-7.8197 0-3.1374-1.4023-5.9421-10.03-8.2951l-9.9117-2.6621c-10.957-2.9236-15.283-8.4139-15.283-15.188 0-8.3902 6.6551-15.877 21.701-15.877 6.774 0 15.188 1.5212 20.299 3.5176 0.92693 4.7774-0.59422 7.3443-3.4939 7.3443-2.567 0-8.3902-2.4482-16.686-2.4482-8.8656 0-12.146 3.0187-12.146 6.9878 0 2.781 1.2835 5.3716 9.2221 7.582l10.149 2.8047c11.338 3.1374 15.877 8.3902 15.877 15.854 0 8.7705-6.774 16.566-23.103 16.566-7.2255 0.02377-16.234-1.7351-21.701-3.8266m111.99-25.313c0 18.302-12.835 29.164-26.953 29.164-8.3902 0-15.283-3.9693-19.372-9.5547v23.579c0 2.2105-1.2835 3.6127-5.015 3.6127-1.8777 0-3.6127-0.23768-4.5397-0.45159v-74.347c0.92698-0.23769 2.6621-0.47537 4.5397-0.47537 3.7316 0 5.015 1.4023 5.015 3.6127v5.3478c4.0881-5.5855 10.981-9.5547 19.372-9.5547 14.119 0 26.953 10.863 26.953 29.069m-9.674 0c0-12.241-8.1525-20.655-19.134-20.655-7.4631 0-14.356 4.3258-17.494 10.625v20.179c3.1374 6.2986 10.03 10.625 17.494 10.625 10.957-0.02377 19.134-8.4139 19.134-20.774m18.635 0c0-16.686 12.241-29.045 28.689-29.045 16.566 0 28.807 12.359 28.807 29.045 0 16.566-12.241 29.164-28.807 29.164-16.448-0.02377-28.689-12.621-28.689-29.164m47.821 0c0-12.835-8.6516-20.655-19.134-20.655-10.363 0-19.015 7.8197-19.015 20.655 0 12.716 8.6516 20.75 19.015 20.75 10.482 0 19.134-8.0336 19.134-20.75m55.927-23.817c0 3.8504-1.6162 4.6586-5.6092 4.6586-8.0336 0-14.808 3.7316-19.015 12.479v31.636c0 2.3293-1.2835 3.6127-5.134 3.6127-1.64 0-3.5177-0.23769-4.4447-0.4516v-56.141c0.92697-0.23769 2.781-0.4516 4.4447-0.4516 3.8266 0 5.134 1.4023 5.134 3.6127v7.8197c5.4667-8.2951 13.762-12.479 24.149-11.076 0.11884 0.80812 0.47534 2.567 0.47534 4.302m41.95 49.129c-4.8963 2.3293-10.505 3.8504-16.092 3.8504-11.076 0-17.732-6.5363-17.732-17.375v-48.178c0-2.4482 1.4023-4.0881 5.134-4.0881 1.6162 0 3.494 0.33275 4.4447 0.5942v12.122h21.796c0.11885 0.80812 0.35653 2.4482 0.35653 3.8504 0 3.3751-1.4023 4.5397-3.494 4.5397h-18.659v30.471c0 6.5125 3.0187 9.674 9.1982 9.674 5.6093 0 8.7467-2.4482 11.432-2.4482 2.8047-0.02377 4.207 2.3056 3.6127 6.9878" fill="#fff"/>
	</g>
</svg>
