<?xml version="1.0" encoding="UTF-8"?>
<svg width="800" height="193.51" version="1.1" xmlns="http://www.w3.org/2000/svg">
	<defs>
		<linearGradient id="linearGradient7090" x1="414.37" x2="1244.6" y1="289.84" y2="289.84" gradientTransform="matrix(.51516 0 0 .51516 -7.7772 -84.949)" gradientUnits="userSpaceOnUse">
			<stop stop-color="#ff0031" offset="0"/>
			<stop stop-color="#9b001f" offset="1"/>
		</linearGradient>
		<linearGradient id="linearGradient7092" x1="197.48" x2="194.59" y1="295.14" y2="212.24" gradientTransform="matrix(.51516 0 0 .51516 -7.7772 -84.949)" gradientUnits="userSpaceOnUse">
			<stop stop-color="#fff" offset="0"/>
			<stop stop-color="#fff" stop-opacity=".25" offset=".515"/>
		</linearGradient>
		<linearGradient id="linearGradient7094" x1="830.55" x2="826.25" y1="276.73" y2="153.47" gradientTransform="matrix(.51516 0 0 .51516 -7.7772 -84.949)" gradientUnits="userSpaceOnUse">
			<stop stop-color="#fff" offset="0"/>
			<stop stop-color="#fff" stop-opacity=".25" offset=".515"/>
		</linearGradient>
	</defs>
	<path d="m624.79 0.0154h168.98c3.4541 0 6.2348 2.7807 6.2348 6.2348v116.26c0 3.4541-2.7807 6.2348-6.2348 6.2348h-168.98z" fill="#fff"/>
	<path d="m714.58 38.576v49.548c0 2.1728-1.0998 3.3801-4.4799 3.3801-1.5292 0-2.9508-0.21427-4.0506-0.42933v-22.802h-28.274v19.878c0 2.1728-1.0998 3.3801-4.4799 3.3801-1.6367 0-3.2726-0.21427-4.0506-0.42933v-49.575c0-2.0921 1.0998-3.3801 4.5874-3.3801 1.5292 0 3.0314 0.21427 3.9162 0.42933v22.051h28.141v-19.1c0-2.0921 1.2074-3.3801 4.695-3.3801 1.6098 0 3.1121 0.21427 3.9968 0.42933m58.003 26.182c0 14.861-10.381 26.101-26.638 26.101h-15.157c-3.2726 0-4.4799-1.3141-4.4799-3.3801v-45.309c0-2.0652 1.2074-3.3801 4.4799-3.3801h15.157c16.257 0 26.638 11.133 26.638 25.968m-8.6379 0c0-11.133-6.9745-18.349-18-18.349h-11.133v36.779h11.133c11.026 0.02688 18-7.1895 18-18.43" fill="#9c001f"/>
	<path d="m57.492 77.17c0 11.076-7.2122 19.112-21.946 20.709-10.612 1.1333-26.016-0.20606-33.331-1.0303-0.25758-1.1849-0.46364-2.6788-0.46364-3.8637 0-9.6334 5.2031-11.849 10.097-11.849 5.1001 0 13.137 0.87576 19.061 0.87576 6.594 0 8.5515-2.2152 8.5515-4.3273 0-2.7819-2.6273-3.9152-7.7274-4.894l-13.961-2.6788c-11.591-2.2152-17.773-10.2-17.773-18.7 0-10.303 7.3153-18.958 21.74-20.555 10.87-1.1849 24.161 0.15455 31.425 1.0303 0.25758 1.2364 0.41213 2.4212 0.41213 3.7091 0 9.6334-5.1001 11.694-9.994 11.694-3.7607 0-9.5819-0.6697-16.279-0.6697-6.8001 0-9.5819 1.8546-9.5819 4.1213 0 2.4212 2.6788 3.4 6.9031 4.1728l13.291 2.4728c13.703 2.5243 19.576 10.252 19.576 19.782m23.852 11.849c0 5.9243-2.3182 9.3243-13.909 9.3243-1.5455 0-2.8849-0.10303-4.1728-0.3091v-78.458c0-5.9758 2.0091-12.209 13.703-12.209 1.494 0 2.9879 0.15455 4.3789 0.46364zm47.343 30.394c1.5455 0.77273 4.6364 1.7515 8.5515 1.8031 6.7486 0.15454 10.406-2.4212 13.137-8.4486l36.061-80.209c-1.494-0.77274-4.791-1.7-7.4698-1.7515-4.6364-0.10303-10.87 0.82424-14.837 10.303l-11.746 27.458-22.925-37.246c-1.494-0.46364-5.1001-1.0818-7.7274-1.0818-8.1394 0-12.621 2.9879-17.309 8.0364l-22.255 24.315 17.928 28.179c3.297 5.1516 7.6758 7.7788 14.734 7.7788 4.6364 0 8.5-1.0818 10.303-1.9061l-21.585-32.455 15.3-16.228 25.088 39.307z" fill="#ff0031"/>
	<path d="m214.21 0c-4.7395 0-8.6032 3.8637-8.6032 8.6031v111.53c0 4.7395 3.8637 8.6032 8.6032 8.6032h410.58c4.7395 0 8.6031-3.8637 8.6031-8.6032v-111.58c-0.0515-4.7395-3.8122-8.5515-8.5523-8.5523z" fill="url(#linearGradient7090)"/>
	<path d="m63.313 19.576v53.834c0-2.1637 1.6485-4.4304 4.4304-4.5334l9.0667-0.3091c1.8031-0.05152 4.5334-1.2879 4.5849-4.5849v-56.152c-1.3909-0.3091-2.8849-0.46364-4.3788-0.46364-11.694 0.051516-13.703 6.2334-13.703 12.209m41.213 18.752-22.255 24.315 1.8031 2.7819c0.77274 1.0303 2.2667 2.7819 5.2546 2.6788l12.673-0.46364c2.7819-0.10303 4.5334 1.0818 5.6152 2.5243l-3.9667-5.9758 15.3-16.228 10.252 16.124c1.8546 2.4212 4.6364 2.4728 5.2546 2.4728 0.51516 0 14.012-0.46364 14.579-0.51516 0.92728-0.05152 2.0091 0.46364 2.8334 1.6485l-22.306-36.267c-1.494-0.46364-5.1001-1.0818-7.7274-1.0818-8.1394-0.05152-12.621 2.8849-17.309 7.9849m-82.785-7.4698c-14.424 1.597-21.74 10.2-21.74 20.555 0 5.3061 2.4212 10.406 7.0577 14.064 3.5031 2.3182 7.1092 3.194 10.664 3.8122 2.9364 0.51516 9.7879 0.97879 14.888 0.77274l15.867-0.56668c5.9758-0.20606 9.1697 4.894 8.8606 9.994v-0.25758c0.05151-0.6697 0.10303-1.3394 0.10303-2.0091 0-9.5303-5.8728-17.309-19.525-19.834l-13.291-2.4728c-4.2758-0.72122-6.9031-1.7515-6.9031-4.1728 0-2.2667 2.8334-4.1728 9.5819-4.1728 6.6971 0 12.518 0.66971 16.279 0.66971 4.894 0 9.994-2.0606 9.994-11.694 0-1.2879-0.15455-2.4728-0.41213-3.7091-5.2031-0.61818-13.549-1.494-21.843-1.494-3.2455 0.05151-6.491 0.20606-9.5819 0.51516m142.29 10.252-11.385 26.84c0-0.05151 0.72122-2.1122 2.9364-2.2152l12.055-0.41213c3.6576-0.15455 5.1001-2.6273 5.5122-3.4516l13.188-29.416c-1.494-0.77274-4.791-1.7-7.4698-1.7515h-0.56668c-4.5849 0.05151-10.458 1.2879-14.27 10.406" fill="url(#linearGradient7092)" opacity=".3"/>
	<path d="m214.2 0c-4.7395 0-8.6032 3.8637-8.6032 8.6031v61.922c0-0.92727 0.36061-6.0274 6.1819-6.594 0 0 0.3091-0.05152 0.82426-0.05152l414.39-14.527c3.2455-0.10303 6.388-2.5243 6.388-6.5425v-34.155c0-4.7395-3.8637-8.6031-8.6031-8.6031z" fill="url(#linearGradient7094)" opacity=".3"/>
	<path d="m298.64 14.579c-3.4516 0-6.387 2.678-6.387 6.3871 0 3.2455 2.884 6.2852 6.387 6.2852 3.5031 0 6.2852-2.9882 6.2852-6.2852 0-3.6061-2.7306-6.3871-6.2852-6.3871zm117.35 19.112c-16.588 0-30.033 13.137-30.033 31.219 0 18.752 12.93 31.528 31.682 31.528 8.6546 0 16.794-2.5766 22.1-4.9463 0.61819-5.4607-1.2376-7.8293-3.7618-7.8293-1.0818 0-2.4205 0.51506-4.9448 1.4423-3.8637 1.1849-7.8304 2.3689-13.034 2.3689-12.106 0-20.348-6.7476-21.842-18.442h46.93c0.36062-2.2667 0.51518-4.2772 0.56673-6.1833 0-14.373-9.1697-29.157-27.664-29.157zm-155.37 0.05096c-17.412 0-30.703 13.344-30.703 31.271s13.291 31.425 30.703 31.682c8.2424-8e-6 15.713-2.2676 21.019-4.7919 0.51516-5.4607-1.4939-7.7274-4.0182-7.7274-3.5031 0-7.4696 3.8638-16.64 3.8638-11.591 0-21.019-8.9113-21.019-22.872 0-13.961 9.4279-22.616 21.019-22.616 9.1697 0 13.085 3.8638 16.64 3.8638 2.5243 0 4.5334-2.2668 4.0182-7.7274-5.2031-2.6788-12.673-4.9463-21.019-4.9463zm89.638 0c-9.1182 0-15.816 4.4305-20.194 9.7365v-5.2026c0-2.2667-1.3405-3.7603-5.2042-3.7603-1.7515 0-3.6052 0.41109-4.5324 0.66867v60.12c0.92728 0.25758 2.7809 0.51424 4.5324 0.51424 3.9152 0 5.2042-1.3906 5.2042-3.7603v-38.585c3.194-5.8213 10.921-10.87 18.082-10.87 9.0152 0 15.145 5.8725 15.145 18.236v34.362c0.97879 0.25758 2.937 0.51578 4.534 0.51578 3.9667 0 5.2026-1.3921 5.2026-3.7618v-32.454c0-17.824-10.353-25.707-22.769-25.758zm133.63 0c-7.4182 0-13.55 3.8649-17.413 9.0679v-4.2761c0-2.5243-1.2876-4.0182-5.0482-4.0182-1.597 0-3.5037 0.41109-4.534 0.66867v60.017c0.82425 0.25758 2.7824 0.51578 4.534 0.51578 3.9667 0 5.2026-1.3921 5.2026-3.7618v-39.615c2.2667-4.894 8.0882-9.84 14.888-9.84 8.1394 0 12.262 5.3074 12.262 14.22v38.482c1.0303 0.25758 2.8844 0.51578 4.6359 0.51578 3.9667 0 5.2026-1.3921 5.2026-3.7618v-39.615c2.2667-4.894 8.0882-9.84 14.888-9.84 7.985 0 12.262 5.3074 12.262 14.22v38.482c0.97878 0.25758 2.9354 0.51578 4.5324 0.51578 3.9667 0 5.3061-1.3921 5.3061-3.7618v-36.318c0-12.003-6.902-21.843-19.884-21.895-8.9121 0-15.301 4.8953-19.422 10.923-3.194-6.8001-9.4266-10.923-17.412-10.923zm97.209 0c-8.4485 0-17.464 2.0094-23.491 4.2761-0.61819 5.3061 0.97843 7.8309 3.7603 7.8309 0.97881 0 2.4215-0.46391 4.2761-0.97906 3.6061-1.1849 8.9123-2.5249 15.043-2.5249 11.849 0 14.888 5.5639 14.888 14.888v1.6493c-26.737-1.7515-42.552 4.6358-42.552 19.266 0 9.6849 7.4704 18.34 21.019 18.34 9.0152 0 15.815-3.5548 21.533-9.5821v5.0482c0 2.5243 1.5965 3.8128 5.2026 3.8128 1.7515 0 3.5037-0.25821 4.534-0.51579v-38.378c0-14.27-6.5427-23.08-24.213-23.132zm-282.15 0.82464c-4.0698 0-5.3061 1.4936-5.3061 3.7603v56.874c0.97876 0.25758 2.8839 0.5152 4.5324 0.56675 3.9667 0 5.3061-1.3906 5.3061-3.7603v-56.77c-0.97878-0.25758-2.9354-0.6702-4.5324-0.67022zm117.09 7.8819c10.87 0 17.515 8.1394 17.927 18.494h-37.76c1.597-12.106 10.148-18.597 19.833-18.494zm173.04 23.691c2.0777 0.0064 4.2167 0.06401 6.3933 0.1606v11.591c-4.6364 6.1819-11.591 10.356-19.833 10.356-8.088 0-12.621-4.9463-12.621-10.252 0-9.4209 11.517-11.9 26.061-11.855z" fill="#fff"/>
	<path d="m476.14 142c-1.5948 0-2.6917 0.32402-3.2898 0.97193-0.54824 0.64791-0.82184 1.47-0.82184 2.4667v15.775c-1.3457-1.545-2.9658-2.7919-4.8597-3.7388-1.844-0.94694-4.0366-1.4198-6.5784-1.4198-1.8939 0-3.8128 0.37322-5.7566 1.1208-1.9437 0.74759-3.7126 1.8937-5.3075 3.4387-1.545 1.545-2.8159 3.4892-3.8127 5.8316-0.99677 2.2926-1.496 5.0084-1.496 8.1482s0.47405 5.8821 1.421 8.2245 2.1926 4.3106 3.7376 5.9054c1.545 1.5948 3.2648 2.7914 5.1586 3.5888 1.9437 0.79743 3.8879 1.1958 5.8316 1.1958 2.5418 0 4.8339-0.49803 6.8773-1.4948 2.0932-0.99677 3.837-2.6169 5.2324-4.8597h0.0751v2.0927c0 0.69775 0.0997 1.3458 0.29897 1.9439 0.24919 0.59806 0.64761 1.0973 1.1958 1.496 0.59808 0.34888 1.4706 0.52288 2.6168 0.52288 0.84726 0 1.6201-0.0505 2.3179-0.1501s1.2462-0.19929 1.6449-0.29896c-0.14953-2.3923-0.27433-4.6844-0.37401-6.8773-0.0498-2.1929-0.0751-4.6351-0.0751-7.3264v-36.183c-0.39871-0.0997-0.99635-0.17408-1.7938-0.22392-0.74759-0.09967-1.4952-0.15009-2.2428-0.15009zm-171.27 1.9439c-0.84726 0-1.7449 0.0492-2.6919 0.14887-0.8971 0.0996-1.8188 0.27491-2.7657 0.5241l-16.522 47.77c0.49839 0.29904 1.1716 0.52346 2.0189 0.67297 0.8971 0.14951 1.694 0.22515 2.3917 0.22515 1.0964 0 2.0193-0.15002 2.7669-0.44906 0.74758-0.29904 1.32-0.99628 1.7187-2.0927l3.5137-10.691h19.138l3.5888 10.691c0.3987 1.1463 1.0215 1.8435 1.8688 2.0927 0.84728 0.29904 1.8433 0.44906 2.9896 0.44906 0.6479 0 1.3464-0.0997 2.094-0.29897 0.79742-0.19935 1.4947-0.42378 2.0927-0.67297l-15.027-43.734c-0.29902-0.84726-0.62306-1.5445-0.97193-2.0927-0.34886-0.59806-0.79648-1.0721-1.3447-1.421-0.49839-0.39871-1.1464-0.67232-1.9439-0.82183-0.74759-0.19936-1.7197-0.29896-2.9158-0.29896zm0.075 7.2513 7.1763 21.68h-14.428zm92.924 4.8597c-2.9903 0-5.7061 0.2484-8.1482 0.74679-2.4421 0.44855-4.4859 0.94781-6.1305 1.496-0.0498 0.2492-0.0751 0.4976-0.0751 0.74679v0.67297c0 1.2958 0.24964 2.3927 0.74803 3.2898 0.49838 0.89709 1.2712 1.3459 2.3179 1.3459 0.59806 0 1.2209-0.0757 1.8688-0.22514 0.69774-0.19935 1.4694-0.39857 2.3166-0.59793 0.8971-0.2492 1.8944-0.4484 2.9908-0.59792 1.0965-0.19936 2.3674-0.29896 3.8127-0.29896 2.8408 0 4.809 0.52324 5.9054 1.5698 1.0964 0.99679 1.6449 2.7165 1.6449 5.1586v1.8688c-3.2894-0.59807-6.2296-0.89688-8.8212-0.89688-2.7411 0-5.1089 0.29881-7.1025 0.89688-1.9437 0.59806-3.5626 1.4453-4.8584 2.5418-1.2958 1.0466-2.2679 2.3175-2.9158 3.8127-0.59807 1.4952-0.89689 3.1405-0.89689 4.9347 0 1.4952 0.24841 2.9149 0.74679 4.2605 0.54823 1.2958 1.3211 2.4419 2.3179 3.4387 1.0466 0.99678 2.3175 1.7949 3.8127 2.3929 1.545 0.54822 3.29 0.82183 5.2337 0.82183 1.6945 0 3.1886-0.19921 4.4844-0.59792 1.3456-0.34887 2.5422-0.84691 3.5888-1.4948 1.0466-0.6479 1.9443-1.3956 2.6919-2.2428 0.79742-0.8971 1.4947-1.8188 2.0927-2.7657h0.0751c0.0498 0.94694 0.12423 1.8434 0.22391 2.6906 0.14951 0.84726 0.39914 1.5949 0.74802 2.2428 0.34886 0.59806 0.82169 1.0961 1.4198 1.4948 0.6479 0.34887 1.4712 0.52411 2.468 0.52411 0.8971 0 1.6687-0.0757 2.3166-0.22515 0.69774-0.14951 1.2714-0.32351 1.7199-0.52287-0.34887-1.1961-0.62371-2.293-0.82307-3.2898-0.19935-1.0466-0.37336-2.0931-0.52287-3.1397-0.0997-1.0466-0.17407-2.1675-0.2239-3.3636v-11.887c0-2.3923-0.24964-4.4852-0.74803-6.2794-0.44855-1.844-1.2706-3.3886-2.4667-4.6345-1.1463-1.2958-2.6908-2.2679-4.6345-2.9158-1.8939-0.64792-4.2869-0.97194-7.1775-0.97194zm103.77 0.14887c-2.6415 0-4.8844 0.30005-6.7285 0.89811-1.844 0.54823-3.3646 1.2947-4.5607 2.2416-1.1463 0.94695-1.9936 2.0438-2.5418 3.2898-0.54822 1.246-0.82183 2.5421-0.82183 3.8877 0 2.492 0.79685 4.5849 2.3917 6.2794 1.5948 1.6447 4.4115 3.0404 8.4484 4.1867l5.3075 1.4948c2.1431 0.59807 3.6384 1.1969 4.4856 1.795 0.84726 0.54822 1.2709 1.3703 1.2709 2.4667-1e-5 0.54823-0.0997 1.0715-0.29896 1.5699-0.14952 0.44854-0.47355 0.87218-0.97194 1.2709-0.4984 0.34887-1.2208 0.6477-2.1678 0.89688-0.8971 0.19937-2.0936 0.29896-3.5888 0.29896-1.3456 0-2.6165-0.0996-3.8127-0.29896-1.1961-0.19935-2.293-0.42377-3.2898-0.67297-0.94694-0.29902-1.8434-0.54742-2.6906-0.74678-0.79742-0.19935-1.4959-0.30019-2.094-0.30019-0.99678 0-1.7684 0.39964-2.3166 1.1971-0.54822 0.79741-0.82306 1.8439-0.82306 3.1397v0.82183l0.15009 0.74802c2.3923 0.84726 4.8584 1.5205 7.4002 2.0189 2.5916 0.44855 5.0842 0.67175 7.4765 0.67175 2.9903 0 5.4577-0.32404 7.4014-0.97194 1.9936-0.6479 3.5633-1.47 4.7096-2.4667 1.1463-1.0466 1.9431-2.2179 2.3917-3.5137 0.4984-1.3456 0.74802-2.6909 0.74802-4.0366 0-2.5916-0.84726-4.735-2.5418-6.4295-1.6447-1.6945-4.5105-3.1142-8.5973-4.2605l-5.6064-1.5699c-1.1463-0.29903-2.0692-0.57386-2.7669-0.82306-0.64791-0.29904-1.1712-0.59785-1.5699-0.89689-0.34886-0.29903-0.59726-0.62306-0.74677-0.97194-0.0997-0.34886-0.15011-0.74729-0.15011-1.1958 0-1.0466 0.47406-1.8687 1.421-2.4667 0.99678-0.59808 2.6913-0.89812 5.0836-0.89812 2.5916 0 4.7098 0.27484 6.3545 0.82307 1.6945 0.49839 3.089 0.74679 4.1855 0.74679 1.0964 0 1.8945-0.39843 2.3929-1.1958 0.54822-0.84725 0.82182-1.9933 0.82182-3.4387 0-0.19936-0.024-0.37335-0.0738-0.52287v-0.67297c-4.7845-1.5948-9.3449-2.3929-13.681-2.3929zm-61.826 0.075c-2.2428 0-4.2109 0.62285-5.9054 1.8688-1.6945 1.1961-3.041 3.0155-4.0378 5.4576h-0.14887v-2.6168c0-1.3955-0.34922-2.4912-1.047-3.2886-0.6479-0.84727-1.7436-1.2709-3.2886-1.2709-0.69775 0-1.3458 0.0744-1.9439 0.22391-0.54823 0.0996-1.0967 0.2245-1.6449 0.37402v35.884c0.39871 0.0997 0.97114 0.17408 1.7187 0.22391 0.79742 0.0997 1.5703 0.1501 2.3179 0.1501 1.5948 0 2.6665-0.32403 3.2148-0.97193 0.59808-0.64792 0.89689-1.4712 0.89689-2.468v-17.866c0-2.8408 0.77287-4.935 2.3179-6.2806 1.5948-1.3456 3.6878-2.0177 6.2794-2.0177h1.3459c2.791 0 4.1867-1.3957 4.1867-4.1867 0-0.84726-0.15002-1.7941-0.44906-2.8408-0.54822-0.0997-1.1459-0.17407-1.7938-0.22391-0.59807-0.0997-1.2713-0.1501-2.0189-0.1501zm-108.25 0.1501c-0.94695 0-1.769 0.0996-2.4667 0.29896-0.69774 0.19936-1.3206 0.42378-1.8688 0.67297l8.5973 35.286c0.54824 0.2492 1.2947 0.4232 2.2416 0.52288 0.99677 0.0996 1.82 0.14887 2.468 0.14887 1.4453 0 2.6406-0.2232 3.5876-0.67175 0.99677-0.49839 1.6952-1.4465 2.094-2.842l6.4295-23.548 7.0262 26.464c0.49839 0.19935 1.2221 0.34938 2.169 0.44906 0.94694 0.0996 1.769 0.14887 2.4668 0.14887 1.3456 0 2.5421-0.2232 3.5888-0.67175 1.0466-0.49839 1.7439-1.3961 2.0927-2.6919l7.9994-32.744c-0.4984-0.19935-1.0973-0.37335-1.795-0.52288-0.64791-0.19935-1.3956-0.29896-2.2428-0.29896-1.1463 0-2.0428 0.22442-2.6906 0.67297-0.6479 0.39871-1.0967 1.1451-1.3459 2.2416l-3.2148 14.653c-0.49839 2.2926-0.92203 4.3616-1.2709 6.2056-0.34888 1.844-0.67291 3.5638-0.97193 5.1586-0.34888-1.5948-0.8217-3.4646-1.4198-5.6077-0.54823-2.1431-1.0967-4.2612-1.6449-6.3545l-4.4106-16.447c-0.49839-0.14952-1.072-0.27433-1.72-0.374-0.64791-0.0997-1.296-0.14887-1.9439-0.14887-1.4453 0-2.5914 0.27361-3.4387 0.82184-0.79743 0.49838-1.3951 1.4705-1.7938 2.9158l-3.6638 13.232c-0.24919 0.74758-0.5228 1.6453-0.82183 2.6919-0.29903 1.0466-0.59785 2.1183-0.89689 3.2148-0.2492 1.0964-0.49882 2.1921-0.74801 3.2886-0.2492 1.0466-0.47362 1.9695-0.67297 2.7669-0.34888-1.7444-0.69688-3.5385-1.0458-5.3825-0.34886-1.844-0.74852-3.8386-1.1971-5.9817l-3.0647-14.428c-0.2492-1.1961-0.74722-2.0182-1.4948-2.4667-0.74758-0.44855-1.7196-0.67297-2.9158-0.67297zm131.42 6.4283c1.844 0 3.589 0.42364 5.2337 1.2709 1.6447 0.79742 2.9408 2.0443 3.8877 3.7388v13.531c-0.94694 1.7444-2.2682 3.0405-3.9628 3.8877-1.6447 0.84725-3.3644 1.2709-5.1586 1.2709-1.6447 0-3.1148-0.29883-4.4106-0.89689-1.246-0.59807-2.3176-1.4214-3.2148-2.468-0.8971-1.0964-1.5943-2.3913-2.0927-3.8865-0.44855-1.4952-0.67297-3.1153-0.67297-4.8597 0-1.6447 0.22442-3.1652 0.67297-4.5607 0.49839-1.4453 1.1956-2.6658 2.0927-3.6626 0.8971-1.0466 1.994-1.8687 3.2898-2.4667 1.2958-0.59807 2.7407-0.89812 4.3355-0.89812zm-64.592 12.859c1.9935 0 4.2617 0.22442 6.8035 0.67297v3.1397c-0.99679 2.0932-2.3925 3.8369-4.1867 5.2324-1.7444 1.3955-3.8121 2.094-6.2044 2.094-1.844 0-3.3394-0.42363-4.4856-1.2709-1.1463-0.84727-1.72-2.069-1.72-3.6638 0-1.9936 0.79808-3.5129 2.3929-4.5595 1.6447-1.0964 4.1108-1.6449 7.4002-1.6449z" fill="#fff"/>
</svg>
