<svg xmlns="http://www.w3.org/2000/svg" xmlns:xlink="http://www.w3.org/1999/xlink" width="800" height="450" viewBox="0 0 211.67 119.06"><defs><linearGradient id="A" gradientUnits="userSpaceOnUse"><stop stop-color="#f30" offset="0"/><stop stop-color="#ff9600" offset="1"/></linearGradient><filter id="B" x="-.011" y="-.041" width="1.021" height="1.082" color-interpolation-filters="sRGB"><feGaussianBlur stdDeviation="9.541"/></filter><linearGradient id="C" x1="259.67" x2="259.67" y1="168.49" y2="98.44" xlink:href="#A"/><linearGradient id="D" x1="628.95" x2="628.95" y1="158.56" y2="35.602" gradientUnits="userSpaceOnUse"><stop stop-color="#ff5901" offset="0"/><stop stop-color="#ffa90f" offset="1"/></linearGradient><linearGradient id="E" x1="259.67" x2="259.67" y1="168.49" y2="27.881" xlink:href="#A"/><linearGradient id="F" x1="995.28" x2="991.76" y1="376.42" y2="273.73" gradientUnits="userSpaceOnUse"><stop stop-color="#fff" stop-opacity=".388" offset="0"/><stop stop-color="#fff" stop-opacity=".133" offset="1"/></linearGradient><path id="G" d="M161.22 113.45c0 13.633-8.912 23.59-27.015 25.56-13.117 1.402-32.106-.251-41.111-1.283-.344-1.481-.608-3.306-.608-4.747 0-11.927 6.466-14.651 12.496-14.651 6.268 0 16.159 1.084 23.511 1.084 8.079 0 10.539-2.737 10.539-5.355 0-3.412-3.266-4.84-9.534-6.043l-17.164-3.306C98.04 101.972 90.41 92.081 90.41 81.595c0-12.747 9.018-23.418 26.777-25.388 13.421-1.455 29.752.185 38.717 1.283.331 1.547.502 3.002.502 4.602 0 11.888-6.268 14.453-12.311 14.453-4.655 0-11.848-.873-20.073-.873-8.383 0-11.848 2.327-11.848 5.144 0 2.975 3.306 4.205 8.555 5.117l16.41 3.041c16.859 3.107 24.079 12.694 24.079 24.476m29.461 14.638c0 7.312-2.883 11.531-17.15 11.531-1.891 0-3.544-.132-5.131-.37V42.244c0-7.365 2.512-15.048 16.926-15.048a26.47 26.47 0 0 1 5.355.542zm58.34 37.527c1.864.952 5.712 2.116 10.552 2.248 8.278.185 12.813-3.002 16.159-10.42l44.469-99.2c-1.825-.992-5.884-2.089-9.216-2.169-5.712-.092-13.395 1.071-18.301 12.774l-14.4 33.997-28.245-46.016c-1.825-.555-6.268-1.349-9.534-1.349-9.957 0-15.537 3.676-21.316 9.944l-27.464 30.03 22.096 34.764c4.073 6.334 9.454 9.56 18.195 9.56 5.712 0 10.473-1.296 12.668-2.354L218.09 97.333l18.843-19.967 30.916 48.516z"/></defs><g transform="matrix(.25224 0 0 .24968 -22.805 35.19)"><use xlink:href="#G" fill="url(#E)"/><path d="M354.5 18.149h564.15a10.47 10.47 0 0 1 10.49 10.49v137.77a10.47 10.47 0 0 1-10.49 10.49H354.5a10.47 10.47 0 0 1-10.49-10.49V28.639a10.47 10.47 0 0 1 10.49-10.49z" fill="url(#D)"/><path d="M543.3 60.252c-2.063-.024-4.553.236-6.422.702v75.103c2.717.678 6.752.919 8.87.487 2.6-.529 3.924-1.97 3.924-4.384V65.276c0-2.413-1.324-4.279-3.924-4.809-.662-.135-1.511-.204-2.448-.215zm39.22 28.18v47.625c2.717.678 6.752.919 8.87.487 2.6-.529 3.924-1.97 3.924-4.384V87.77c0-20.401-12.746-28.108-23.406-28.108-9.223 0-13.416 2.746-17.605 5.997-1.245.966-3.451 3.248-1.993 6.193 1.415 2.856 4.384 2.716 6.331 1.654 5.863-3.199 13.074-2.996 17.66.109 4.374 2.962 6.218 8.527 6.218 14.816zm45.64 0v47.625c2.717.678 6.752.919 8.87.487 2.6-.529 3.924-1.97 3.924-4.384V87.204c0-20.401-12.746-27.541-23.406-27.541-9.223 0-13.649 2.312-19.175 6.698-1.234.98-3.752 3.616-2.293 6.561 1.415 2.856 4.462 2.849 6.331 1.654 7.199-4.603 14.945-4.065 19.531-.96 4.374 2.962 6.218 8.527 6.218 14.816zM485.13 59.498c-23.324 0-38.459 17.435-38.459 38.942 0 5.131.81 10.049 2.492 14.515 1.434 3.809 5.11 5.198 8.531 3.841s4.692-4.751 3.417-8.662c-.978-3.001-1.424-6.281-1.424-9.693 0-15.185 9.654-27.495 25.443-27.495s25.442 12.31 25.442 27.495-9.653 27.494-25.442 27.494c-6.986 0-12.654-2.54-17.049-6.414-2.05-1.807-6.024-1.976-8.407 1.18s-1.488 6.38.74 8.301c6.277 5.412 14.83 8.381 24.716 8.381 23.324 0 38.459-17.435 38.459-38.942s-15.135-38.942-38.459-38.942zm338.89 2.524l-.721.345 25.817 55.365a6.4 6.4 0 0 0 8.501 3.094 6.4 6.4 0 0 0 3.094-8.501l-22.489-48.228c-2.643-5.669-10.329-3.818-14.202-2.075zm19.87 96.768c11.14 4.227 13.38 1.373 15.494-3.246l42.66-93.228a16.25 16.25 0 0 0-.706-.327c-3.791-1.648-11.309-3.563-13.811 1.987l-24.298 53.893c-6.067 13.456-11.483 24.935-19.339 40.921zM806.73 34.199c1.5-.017 3.569.114 5.438.58v101.28c-2.717.678-6.752.919-8.87.487-2.6-.529-3.924-1.97-3.924-4.384v-92.87c0-2.413 1.324-4.279 3.924-4.809.662-.135 1.932-.265 3.433-.282zM411.54 59.498c-22.367 0-37.832 17.435-37.832 38.942s15.466 38.942 37.832 38.942c8.082 0 17.959-1.662 26.379-6.071.465-4.198.131-8.301-2.724-9.617s-6.662.764-10.018 1.999c-4.05 1.491-8.34 2.323-12.548 2.323-16.234 0-25.92-12.346-25.92-27.576s9.686-27.576 25.92-27.576c4.207 0 8.497.832 12.548 2.323 3.356 1.235 7.871 3.079 10.396 1.857s3.095-5.466 2.346-9.475c-8.42-4.409-18.297-6.071-26.379-6.071zm363.39 0c-19.824 0-35.894 15.734-35.894 38.942s15.692 38.942 35.894 38.942c7.406 0 14.533-2.093 20.098-6.463 1.713-1.345 3.002-3.888 1.779-6.318s-4.096-3.193-6.195-2.052c-3.816 2.076-8.148 3.59-12.742 3.59-14.288 0-25.871-10.881-25.871-27.7s11.583-27.432 25.871-27.432c4.594 0 8.832 1.389 12.647 3.465 2.099 1.142 4.972.379 6.195-2.052s-.065-4.973-1.779-6.318c-5.565-4.37-12.598-6.604-20.003-6.604zm-83.39 0c-22.43 0-37.395 18.335-37.395 39.374 0 21.613 15.341 38.51 38.093 38.51 15.767 0 23.006-4.012 28.992-6.036.564-8.444-2.68-11.127-7.884-9.622-5.323 1.539-9.437 3.875-20.482 3.875-15.895 0-25.622-11.002-25.622-27.128s9.078-27.93 23.921-27.93 22.05 11.428 22.05 22.45h-37.521a5.078 5.078 0 1 0 0 10.156h49.548c3.521-24.835-10.419-43.652-33.699-43.652z" fill="#09166c"/><g fill="#ffed1f"><path d="M357.897 23.799c-4.664 0-8.242 3.578-8.242 8.242v130.964c0 4.664 3.578 8.242 8.242 8.242h557.338c4.664 0 8.242-3.578 8.242-8.242V32.04c0-4.664-3.578-8.242-8.242-8.242zm0 4.4h557.338c2.302 0 3.842 1.539 3.842 3.842v130.964c0 2.302-1.539 3.842-3.842 3.842H357.897c-2.302 0-3.844-1.54-3.844-3.842V32.041c0-2.302 1.541-3.842 3.844-3.842z" dominant-baseline="auto"/><path transform="scale(.26458)" d="M1352.7 89.949c-17.627 0-31.15 13.523-31.15 31.15v494.99c0 17.627 13.523 31.152 31.15 31.152h2106.5c17.627 0 31.15-13.525 31.15-31.152v-494.99c0-17.627-13.523-31.15-31.15-31.15zm0 16.631h2106.5c8.702 0 14.52 5.818 14.52 14.52v494.99c0 8.702-5.818 14.521-14.52 14.521H1352.7c-8.702 0-14.527-5.82-14.527-14.521V121.1c0-8.702 5.825-14.52 14.527-14.52z" dominant-baseline="auto" filter="url(#B)"/></g><use xlink:href="#G" fill="url(#C)"/><path transform="scale(.26458)" d="M1339.8 68.596c-21.965 0-39.648 17.683-39.648 39.648v284.88c0-7.531 9.574-25.841 27.156-26.455l2155.9-75.322c13.869-.485 28.504-10.88 28.504-29.568v-153.53c0-21.965-17.683-39.648-39.648-39.648zm-639.39 34.207c-54.475 0-63.971 29.038-63.971 56.875v251.13c0-12.48 11.657-20.408 20.662-20.723l41.605-1.453c9.073-.317 21.945-7.54 21.945-20.23v-263.55c-6.447-1.349-13.395-2.049-20.242-2.049zm208.55 106.9c-37.633 0-58.723 13.893-80.562 37.582l-103.8 113.5 9.531 14.996c5.063 7.966 14.155 11.115 20.48 10.895l64.084-2.238c11.658-.407 18.435 4.933 23.596 10.643l-18.037-27.197 71.217-75.467 48.131 75.531c3.054 4.792 10.694 11.752 22.617 11.336l70.709-2.471c5.407-.189 7.66 1.718 11.584 6.633L945 214.806c-6.897-2.099-23.689-5.098-36.033-5.098zm-422.8.582c-14.721.035-29.413.663-43.283 2.166-67.119 7.447-101.2 47.779-101.2 95.957 0 25.464 11.905 49.999 34.746 67.031 32.12 19.999 85.705 21.454 105.91 20.748l85.604-2.992c22.071-.771 41.24 16.822 41.24 40.965.691-22.742-3.329-31.949-7.248-42.152-11.906-26.961-38.701-47.431-83.637-55.713l-62.021-11.494c-19.841-3.448-32.336-8.097-32.336-19.342 0-10.645 13.094-19.441 44.779-19.441 31.086 0 58.273 3.299 75.865 3.299 22.84 0 46.529-9.696 46.529-54.625 0-6.047-.651-11.545-1.9-17.393-23.296-2.852-59.748-6.671-96.74-6.994l-6.309-.019zm685.05 1.666c-21.048.357-47.654 6.814-65.037 48.279l-52.465 123.87c3.385-7.991 10.38-8.235 14.652-8.385l56.256-1.965c8.367-.292 18.835-4.751 22.57-13.084l62.99-140.52c-6.897-3.748-22.24-7.897-34.834-8.197-1.349-.022-2.73-.024-4.133 0z" fill="url(#F)"/></g></svg>