<?xml version="1.0" encoding="UTF-8"?>
<svg width="800" height="206.75" version="1.1" xmlns="http://www.w3.org/2000/svg">
	<defs>
		<linearGradient id="A" x1="414.37" x2="1244.6" y1="289.84" y2="289.84" gradientTransform="matrix(.51516 0 0 .51516 -7.7789 -84.95)" gradientUnits="userSpaceOnUse">
			<stop stop-color="#ff0031" offset="0"/>
			<stop stop-color="#9b001f" offset="1"/>
		</linearGradient>
		<linearGradient id="B" x1="197.48" x2="194.59" y1="295.14" y2="212.24" gradientTransform="matrix(.51516 0 0 .51516 -7.7789 -84.95)" gradientUnits="userSpaceOnUse">
			<stop stop-color="#fff" offset="0"/>
			<stop stop-color="#fff" stop-opacity=".25" offset=".515"/>
		</linearGradient>
		<linearGradient id="C" x1="830.55" x2="826.25" y1="276.73" y2="153.47" gradientTransform="matrix(.51516 0 0 .51516 -7.7789 -84.95)" gradientUnits="userSpaceOnUse">
			<stop stop-color="#fff" offset="0"/>
			<stop stop-color="#fff" stop-opacity=".25" offset=".515"/>
		</linearGradient>
	</defs>
	<path d="m800 6.2503v116.24c-0.0152 3.4456-2.8046 6.235-6.2502 6.2502h-169.32v-128.74l169.32 0.014997c3.4608-0.015 6.2502 2.8021 6.2502 6.2352z" fill="#fff"/>
	<path d="m714.58 38.576v49.548c0 2.1728-1.0998 3.3801-4.4799 3.3801-1.5292 0-2.9508-0.21427-4.0506-0.42933v-22.802h-28.274v19.878c0 2.1728-1.0998 3.3801-4.4799 3.3801-1.6367 0-3.2726-0.21427-4.0506-0.42933v-49.575c0-2.0921 1.0998-3.3801 4.5874-3.3801 1.5292 0 3.0314 0.21427 3.9162 0.42933v22.051h28.141v-19.1c0-2.0921 1.2074-3.3801 4.695-3.3801 1.6098 0 3.1121 0.21427 3.9968 0.42933m58.003 26.182c0 14.861-10.381 26.101-26.638 26.101h-15.157c-3.2726 0-4.4799-1.3141-4.4799-3.3801v-45.309c0-2.0652 1.2074-3.3801 4.4799-3.3801h15.157c16.257 0 26.638 11.133 26.638 25.968m-8.638 0c0-11.133-6.9745-18.349-18-18.349h-11.133v36.779h11.133c11.026 0.02688 18-7.1895 18-18.43" fill="#9c001f"/>
	<path d="m57.492 77.171c0 11.076-7.2122 19.112-21.946 20.709-10.612 1.1333-26.016-0.20606-33.331-1.0303-0.25758-1.1849-0.46364-2.6788-0.46364-3.8637 0-9.6335 5.2031-11.849 10.097-11.849 5.1001 0 13.137 0.87577 19.061 0.87577 6.594 0 8.5516-2.2152 8.5516-4.3273 0-2.7819-2.6273-3.9152-7.7274-4.894l-13.961-2.6788c-11.591-2.2152-17.773-10.2-17.773-18.7 0-10.303 7.3153-18.958 21.74-20.555 10.87-1.1849 24.161 0.15455 31.425 1.0303 0.25758 1.2364 0.41213 2.4212 0.41213 3.7091 0 9.6335-5.1001 11.694-9.9941 11.694-3.7607 0-9.582-0.66971-16.279-0.66971-6.8001 0-9.582 1.8546-9.582 4.1213 0 2.4212 2.6788 3.4 6.9031 4.1728l13.291 2.4728c13.703 2.5243 19.576 10.252 19.576 19.782m23.852 11.849c0 5.9243-2.3182 9.3244-13.909 9.3244-1.5455 0-2.8849-0.10303-4.1728-0.3091v-78.459c0-5.9758 2.0091-12.209 13.703-12.209 1.494 0 2.9879 0.15455 4.3789 0.46364zm47.343 30.394c1.5455 0.77274 4.6364 1.7515 8.5516 1.8031 6.7486 0.15455 10.406-2.4212 13.137-8.4486l36.061-80.21c-1.494-0.77274-4.791-1.7-7.4698-1.7515-4.6364-0.10303-10.87 0.82425-14.837 10.303l-11.746 27.458-22.925-37.246c-1.494-0.46364-5.1001-1.0818-7.7274-1.0818-8.1395 0-12.621 2.9879-17.309 8.0365l-22.255 24.315 17.928 28.179c3.297 5.1516 7.6759 7.7789 14.734 7.7789 4.6364 0 8.5001-1.0818 10.303-1.9061l-21.585-32.455 15.3-16.228 25.088 39.307z" fill="#ff0031"/>
	<path d="m214.21 0c-4.7395 0-8.6032 3.8637-8.6032 8.6032v111.53c0 4.7395 3.8637 8.6032 8.6032 8.6032h410.58c4.7395 0 8.6032-3.8637 8.6032-8.6032v-111.58c-0.0515-4.7395-3.8122-8.5516-8.5524-8.5524z" fill="url(#A)"/>
	<path d="m63.313 19.576v53.834c0-2.1637 1.6485-4.4304 4.4304-4.5334l9.0668-0.3091c1.8031-0.05152 4.5334-1.2879 4.5849-4.5849v-56.152c-1.3909-0.3091-2.8849-0.46364-4.3788-0.46364-11.694 0.051516-13.703 6.2334-13.703 12.209m41.213 18.752-22.255 24.315 1.8031 2.7819c0.77274 1.0303 2.2667 2.7819 5.2546 2.6788l12.673-0.46364c2.7819-0.10303 4.5334 1.0818 5.6152 2.5243l-3.9667-5.9758 15.3-16.228 10.252 16.124c1.8546 2.4212 4.6364 2.4728 5.2546 2.4728 0.51516 0 14.012-0.46364 14.579-0.51516 0.92728-0.05152 2.0091 0.46364 2.8334 1.6485l-22.306-36.267c-1.494-0.46364-5.1001-1.0818-7.7274-1.0818-8.1395-0.05151-12.621 2.8849-17.309 7.985m-82.786-7.4698c-14.424 1.597-21.74 10.2-21.74 20.555 0 5.3061 2.4212 10.406 7.0577 14.064 3.5031 2.3182 7.1092 3.194 10.664 3.8122 2.9364 0.51516 9.788 0.9788 14.888 0.77274l15.867-0.56668c5.9758-0.20606 9.1698 4.894 8.8607 9.9941v-0.25758c0.05151-0.6697 0.10303-1.3394 0.10303-2.0091 0-9.5304-5.8728-17.309-19.525-19.834l-13.291-2.4728c-4.2758-0.72122-6.9031-1.7515-6.9031-4.1728 0-2.2667 2.8334-4.1728 9.582-4.1728 6.6971 0 12.518 0.66971 16.279 0.66971 4.894 0 9.9941-2.0606 9.9941-11.694 0-1.2879-0.15455-2.4728-0.41213-3.7091-5.2031-0.61819-13.549-1.494-21.843-1.494-3.2455 0.05151-6.491 0.20606-9.582 0.51516m142.29 10.252-11.385 26.84c0-0.05151 0.72122-2.1122 2.9364-2.2152l12.055-0.41213c3.6576-0.15455 5.1001-2.6273 5.5122-3.4516l13.188-29.416c-1.494-0.77274-4.791-1.7-7.4698-1.7515h-0.56668c-4.5849 0.05151-10.458 1.2879-14.27 10.406" fill="url(#B)" opacity=".3"/>
	<path d="m214.2 0c-4.7395 0-8.6032 3.8637-8.6032 8.6032v61.922c0-0.92729 0.36061-6.0274 6.1819-6.594 0 0 0.3091-0.05152 0.82426-0.05152l414.39-14.527c3.2455-0.10303 6.388-2.5243 6.388-6.5425v-34.155c0-4.7395-3.8637-8.6032-8.6032-8.6032z" fill="url(#C)" opacity=".3"/>
	<path d="m298.64 14.58c-3.4516 0-6.3871 2.678-6.3871 6.3871 0 3.2455 2.884 6.2852 6.3871 6.2852s6.2852-2.9882 6.2852-6.2852c0-3.6061-2.7306-6.3871-6.2852-6.3871zm117.35 19.112c-16.588 0-30.033 13.137-30.033 31.219 0 18.752 12.93 31.528 31.682 31.528 8.6547 0 16.794-2.5766 22.1-4.9463 0.61819-5.4607-1.2376-7.8294-3.7618-7.8294-1.0818 0-2.4205 0.51506-4.9448 1.4424-3.8637 1.1849-7.8305 2.3689-13.034 2.3689-12.106 0-20.348-6.7491-21.842-18.443h46.93c0.36062-2.2667 0.51519-4.2756 0.56674-6.1817 0-14.373-9.1698-29.157-27.664-29.157zm-155.37 0.05096c-17.412 0-30.703 13.342-30.703 31.27s13.291 31.425 30.703 31.682c8.2425 0 15.713-2.266 21.019-4.7903 0.51517-5.4607-1.4939-7.7275-4.0182-7.7275-3.5031 0-7.4697 3.8638-16.64 3.8638-11.591 0-21.019-8.9114-21.019-22.872 0-13.961 9.428-22.616 21.019-22.616 9.1698 0 13.085 3.8638 16.64 3.8638 2.5243 0 4.5334-2.2668 4.0182-7.7275-5.2031-2.6788-12.673-4.9463-21.019-4.9463zm89.639 0c-9.1183 0-15.816 4.4305-20.194 9.7366v-5.2026c0-2.2667-1.3405-3.7603-5.2042-3.7603-1.7515 0-3.6052 0.41109-4.5324 0.66867v60.12c0.92728 0.25758 2.7809 0.51424 4.5324 0.51424 3.9152 0 5.2042-1.3906 5.2042-3.7603v-38.585c3.194-5.8213 10.921-10.87 18.082-10.87 9.0153 1e-6 15.145 5.8725 15.145 18.236v34.362c0.9788 0.25758 2.937 0.51578 4.534 0.51578 3.9667 0 5.2026-1.3921 5.2026-3.7618v-32.454c0-17.824-10.353-25.707-22.769-25.758zm133.63 0c-7.4183 0-13.55 3.8649-17.413 9.068v-4.2761c0-2.5243-1.2876-4.0182-5.0482-4.0182-1.597 0-3.5037 0.41109-4.534 0.66867v60.017c0.82426 0.25758 2.7824 0.51578 4.534 0.51578 3.9667 0 5.2026-1.3921 5.2026-3.7618v-39.615c2.2667-4.894 8.0882-9.8401 14.888-9.8401 8.1395 0 12.262 5.3074 12.262 14.22v38.482c1.0303 0.25758 2.8844 0.51578 4.6359 0.51578 3.9667 0 5.2026-1.3921 5.2026-3.7618v-39.615c2.2667-4.894 8.0882-9.8401 14.888-9.8401 7.985 0 12.262 5.3074 12.262 14.22v38.482c0.97881 0.25758 2.9354 0.51578 4.5324 0.51578 3.9667 0 5.3061-1.3921 5.3061-3.7618v-36.318c0-12.003-6.902-21.843-19.884-21.895-8.9122 0-15.301 4.8953-19.422 10.923-3.194-6.8001-9.4267-10.923-17.412-10.923zm97.21 0c-8.4486 0-17.464 2.0094-23.491 4.2761-0.61819 5.3061 0.97844 7.831 3.7603 7.831 0.97881 0 2.4215-0.46391 4.2761-0.97907 3.6061-1.1849 8.9124-2.5249 15.043-2.5249 11.849 0 14.888 5.5639 14.888 14.888v1.6493c-26.737-1.7515-42.552 4.6358-42.552 19.266 0 9.685 7.4704 18.34 21.019 18.34 9.0153 0 15.815-3.5548 21.533-9.5822v5.0482c0 2.5243 1.5965 3.8128 5.2026 3.8128 1.7515 0 3.5037-0.25821 4.534-0.51579v-38.378c0-14.27-6.5427-23.08-24.213-23.132zm-282.15 0.82464c-4.0698 0-5.3061 1.4936-5.3061 3.7603v56.874c0.9788 0.25758 2.8839 0.5152 4.5324 0.56675 3.9667 0 5.3061-1.3906 5.3061-3.7603v-56.77c-0.97879-0.25758-2.9354-0.67021-4.5324-0.67021zm117.09 7.882c10.87 0 17.515 8.1395 17.927 18.494h-37.76c1.597-12.106 10.148-18.597 19.833-18.494zm173.04 23.691c2.0777 0.0064 4.2167 0.06401 6.3933 0.1606v11.591c-4.6364 6.1819-11.591 10.356-19.833 10.356-8.088 0-12.621-4.9463-12.621-10.252 0-9.421 11.517-11.9 26.061-11.855z" fill="#fff"/>
	<path d="m313.55 142.01c-1.2124 0-2.256 0.4357-3.1289 1.3086-0.8729 0.8729-1.3086 1.9403-1.3086 3.2012 0 1.2124 0.43569 2.256 1.3086 3.1289 0.8729 0.8729 1.9166 1.3086 3.1289 1.3086 1.2608 0 2.3283-0.43569 3.2012-1.3086 0.8729-0.87289 1.3086-1.9166 1.3086-3.1289 0-1.2608-0.43569-2.3283-1.3086-3.2012-0.8729-0.87289-1.9403-1.3086-3.2012-1.3086zm148.32 0c-1.2124 0-2.256 0.4357-3.1289 1.3086-0.87289 0.8729-1.3086 1.9403-1.3086 3.2012 0 1.2124 0.4357 2.256 1.3086 3.1289 0.8729 0.8729 1.9166 1.3086 3.1289 1.3086 1.2608 0 2.3263-0.43569 3.1992-1.3086 0.8729-0.87289 1.3105-1.9166 1.3105-3.1289 0-1.2608-0.43764-2.3283-1.3105-3.2012-0.8729-0.87289-1.9384-1.3086-3.1992-1.3086zm-164.69 1.2363c-1.5518 0-2.6192 0.31489-3.2012 0.94532-0.53344 0.63042-0.79883 1.4305-0.79883 2.4004v15.35c-1.3094-1.5033-2.8857-2.7153-4.7285-3.6367-1.7943-0.92139-3.9291-1.3828-6.4023-1.3828-1.8428-1e-5 -3.7083 0.36437-5.5996 1.0918-1.8913 0.72741-3.6142 1.8424-5.166 3.3457-1.5033 1.5033-2.7391 3.3946-3.709 5.6738-0.96989 2.2307-1.4551 4.8726-1.4551 7.9277 0 3.0551 0.46142 5.7227 1.3828 8.002 0.9214 2.2792 2.1334 4.1943 3.6367 5.7461 1.5033 1.5518 3.1768 2.7163 5.0195 3.4922 1.8913 0.77591 3.7826 1.1641 5.6738 1.1641 2.4732 0 4.7031-0.48519 6.6914-1.4551 2.0368-0.96989 3.734-2.5463 5.0918-4.7285h0.0723v2.0371c0 0.67892 0.097 1.3087 0.29102 1.8906 0.24247 0.58193 0.63062 1.0671 1.1641 1.4551 0.58193 0.33946 1.4315 0.50977 2.5469 0.50977 0.82441 0 1.575-0.0476 2.2539-0.14453 0.67892-0.097 1.2136-0.19403 1.6016-0.29102-0.14548-2.3277-0.26824-4.5596-0.36523-6.6934-0.0485-2.1337-0.0723-4.5102-0.0723-7.1289v-35.207c-0.38795-0.097-0.97019-0.16834-1.7461-0.2168-0.72742-0.097-1.4542-0.14649-2.1816-0.14649zm183.67 4.8008c-1.0184-1e-5 -1.8422 0.1208-2.4726 0.36328-0.58194 0.24247-1.0434 0.58308-1.3828 1.0195-0.29096 0.43644-0.50881 0.92164-0.65429 1.4551-0.097 0.53344-0.14453 1.0899-0.14453 1.6719v5.0195h-3.1289c-0.77591 0-1.4295 0.24358-1.9629 0.72852-0.48495 0.48494-0.72852 1.3326-0.72852 2.5449 0 0.53343 0.0258 1.0681 0.0742 1.6016 0.0485 0.53343 0.11981 0.96913 0.2168 1.3086h5.5293v17.24c0 1.7943 0.26538 3.442 0.79882 4.9453 0.53344 1.4548 1.3098 2.7401 2.3281 3.8555 1.0184 1.0669 2.2561 1.9164 3.7109 2.5469 1.5033 0.58192 3.2005 0.87304 5.0918 0.87304 2.0852 0 3.9033-0.24357 5.4551-0.72851 1.6003-0.48495 3.1034-1.1385 4.5098-1.9629 0.0485-0.24248 0.0723-0.48605 0.0723-0.72852v-0.80078c0-1.3578-0.26539-2.352-0.79883-2.9824s-1.2622-0.94531-2.1836-0.94531c-0.38795 0-0.79988 0.0733-1.2363 0.21875-0.38795 0.14548-0.82365 0.31578-1.3086 0.50976-0.43645 0.19398-0.94541 0.36233-1.5273 0.50781-0.58194 0.14549-1.2374 0.21875-1.9648 0.21875-1.6973 0-2.9826-0.50895-3.8555-1.5273-0.8729-1.0184-1.3086-2.4482-1.3086-4.291v-16.949h9.6016c0.77591 0 1.4057-0.24357 1.8906-0.72852 0.53344-0.48494 0.80078-1.3326 0.80078-2.5449s-0.12081-2.1828-0.36328-2.9102h-11.93v-9.0195c-0.92139-0.33946-1.965-0.50976-3.1289-0.50976zm-106.42 8.875c-2.4247 0-4.6804 0.46142-6.7656 1.3828-2.0853 0.92139-3.9033 2.2067-5.4551 3.8555-1.5033 1.6003-2.6916 3.5154-3.5645 5.7461-0.87289 2.1822-1.3086 4.5825-1.3086 7.2012s0.41193 5.0684 1.2363 7.3477c0.8729 2.2307 2.1087 4.1696 3.709 5.8184 1.6003 1.6488 3.5649 2.9341 5.8926 3.8555 2.3277 0.92139 4.9696 1.3828 7.9277 1.3828h2e-3c2.7642 0 5.2357-0.29112 7.418-0.87305 2.1822-0.63042 4.0022-1.2859 5.457-1.9648 0.0485-0.29097 0.0723-0.58208 0.0723-0.87305 0.0485-0.29097 0.0723-0.55831 0.0723-0.80078 0-1.3094-0.29111-2.351-0.87305-3.127-0.53343-0.77591-1.2365-1.1641-2.1094-1.1641-0.63043 0-1.2602 0.097-1.8906 0.29102-0.63042 0.19398-1.3335 0.4356-2.1094 0.72656-0.77591 0.24248-1.6493 0.46228-2.6191 0.65625-0.96989 0.19398-2.1106 0.29102-3.4199 0.29102-3.0551 0-5.5267-0.72876-7.418-2.1836-1.8428-1.5033-2.934-3.66-3.2734-6.4726h25.24c0.24248-1.2124 0.36329-2.4263 0.36328-3.6387 1e-5 -2.1822-0.36243-4.3151-1.0898-6.4004-0.67892-2.0853-1.7226-3.9528-3.1289-5.6016-1.3578-1.6488-3.0788-2.9578-5.1641-3.9277-2.0853-1.0184-4.4855-1.5273-7.2012-1.5273zm61.902 0.14453c-2.5702 0-4.7526 0.29111-6.5469 0.87304-1.7943 0.53344-3.2736 1.2622-4.4375 2.1836-1.1154 0.92139-1.9392 1.9869-2.4727 3.1992-0.53343 1.2124-0.80078 2.4738-0.80078 3.7832 0 2.4247 0.77632 4.4625 2.3281 6.1113 1.5518 1.6003 4.2927 2.9569 8.2207 4.0723l5.1641 1.4551c2.0852 0.58193 3.5408 1.1642 4.3652 1.7461 0.8244 0.53344 1.2363 1.3335 1.2363 2.4004 0 0.53344-0.097 1.0424-0.29101 1.5274-0.14549 0.43645-0.46037 0.84837-0.94531 1.2363-0.48495 0.33946-1.188 0.63057-2.1094 0.87304-0.8729 0.19398-2.0374 0.29102-3.4922 0.29102-1.3093 0-2.5451-0.097-3.709-0.29102-1.1639-0.19398-2.2313-0.41182-3.2012-0.65429-0.92139-0.29097-1.7947-0.53259-2.6191-0.72657-0.77592-0.19398-1.4552-0.29101-2.0371-0.29101-0.96989 0-1.7205 0.3862-2.2539 1.1621s-0.80078 1.7958-0.80078 3.0566v0.79883c0.0485 0.24247 0.096 0.48604 0.14453 0.72851 2.3277 0.8244 4.7299 1.478 7.2031 1.9629 2.5217 0.43645 4.9457 0.65625 7.2734 0.65625 2.9097 0 5.3099-0.31684 7.2012-0.94726 1.9398-0.63043 3.4667-1.4305 4.582-2.4004 1.1154-1.0184 1.8917-2.1571 2.3281-3.418 0.48495-1.3094 0.72852-2.6184 0.72852-3.9277 0-2.5217-0.82581-4.607-2.4746-6.2559-1.6003-1.6488-4.3887-3.0311-8.3652-4.1465l-5.4551-1.5273c-1.1154-0.29097-2.0125-0.55831-2.6914-0.80078-0.63043-0.29097-1.1394-0.58209-1.5273-0.87305-0.33946-0.29097-0.58303-0.60585-0.72852-0.94531-0.097-0.33946-0.14453-0.72762-0.14453-1.1641 0-1.0184 0.46142-1.8184 1.3828-2.4004 0.96989-0.58193 2.6176-0.87304 4.9453-0.87304 2.5217 0 4.5833 0.26734 6.1836 0.80078 1.6488 0.48494 3.0073 0.72656 4.0742 0.72656 1.0669 0 1.8412-0.38816 2.3262-1.1641 0.53344-0.82441 0.80078-1.9394 0.80078-3.3457 0-0.19398-0.0238-0.36428-0.0723-0.50976v-0.6543c-4.6554-1.5518-9.0935-2.3281-13.312-2.3281zm-21.021 0.0742c-2.1822 1e-5 -4.0973 0.60601-5.7461 1.8184-1.6488 1.1639-2.9598 2.9343-3.9297 5.3106h-0.14453v-2.5469c0-1.3578-0.34061-2.4253-1.0195-3.2012-0.63043-0.8244-1.6959-1.2363-3.1992-1.2363-0.67892 0-1.3106 0.0733-1.8926 0.21875-0.53344 0.097-1.0662 0.2178-1.5996 0.36328v34.916c0.38795 0.097 0.94641 0.17029 1.6738 0.21875 0.7759 0.097 1.5265 0.14453 2.2539 0.14453 1.5518 0 2.5955-0.31488 3.1289-0.94531 0.58193-0.63042 0.87305-1.4305 0.87305-2.4004v-17.385c0-2.7642 0.75059-4.802 2.2539-6.1113 1.5518-1.3094 3.5896-1.9629 6.1113-1.9629h1.3086c2.7157 0 4.0742-1.3585 4.0742-4.0742 0-0.8244-0.14653-1.7453-0.4375-2.7637-0.53344-0.097-1.1157-0.17029-1.7461-0.21875-0.58193-0.097-1.2355-0.14454-1.9629-0.14454zm-101.77 0.14454c-1.5033 0-2.547 0.31488-3.1289 0.94531-0.58193 0.63042-0.87305 1.4305-0.87305 2.4004v32.152c0.38796 0.097 0.94642 0.17029 1.6738 0.21875 0.72741 0.097 1.4542 0.14453 2.1816 0.14453 1.5518 0 2.6192-0.31488 3.2012-0.94531 0.58194-0.63042 0.87305-1.4305 0.87305-2.4004v-32.152c-0.38796-0.097-0.94642-0.16827-1.6738-0.2168-0.72741-0.097-1.478-0.14648-2.2539-0.14648zm12.512 0c-0.72741 0-1.5037 0.097-2.3281 0.29101-0.77591 0.19398-1.4314 0.41183-1.9648 0.6543l12.73 34.334c0.63043 0.24248 1.2859 0.41278 1.9648 0.50977 0.72742 0.097 1.4304 0.14648 2.1094 0.14648 1.5033 0 2.6421-0.2198 3.418-0.65625 0.77591-0.43644 1.3819-1.2365 1.8184-2.4004l12.002-32.006c-0.48494-0.24247-1.1385-0.43655-1.9629-0.58203-0.7759-0.19398-1.479-0.29101-2.1094-0.29101-0.96989 0-1.8432 0.1703-2.6191 0.50976-0.72742 0.29097-1.2602 0.92074-1.5996 1.8906l-4.8008 14.33c-0.67892 2.0853-1.3582 4.026-2.0371 5.8203-0.63043 1.7458-1.2127 3.6371-1.7461 5.6738h-0.14648c-0.53343-2.0368-1.1137-3.9538-1.7441-5.748-0.58193-1.7943-1.2137-3.7093-1.8926-5.7461l-4.873-14.402c-0.38796-1.0669-0.97018-1.7224-1.7461-1.9648-0.72741-0.24248-1.5513-0.36328-2.4727-0.36328zm135.81 0c-1.5033 0-2.547 0.31488-3.1289 0.94531-0.58193 0.63042-0.87305 1.4305-0.87305 2.4004v32.152c0.38796 0.097 0.94642 0.17029 1.6738 0.21875 0.72742 0.097 1.4542 0.14453 2.1816 0.14453 1.5518 0 2.6192-0.31488 3.2012-0.94531 0.58193-0.63042 0.87304-1.4305 0.87304-2.4004v-32.152c-0.38795-0.097-0.94641-0.16827-1.6738-0.2168-0.72741-0.097-1.478-0.14648-2.2539-0.14648zm42.262 0c-0.82441 0-1.6245 0.097-2.4004 0.29101-0.77592 0.19398-1.4295 0.41183-1.9629 0.6543l13.602 34.334-5.8906 13.457c0.48494 0.19398 1.0414 0.36428 1.6719 0.50977 0.67892 0.14548 1.479 0.21875 2.4004 0.21875 2.2792 0 3.8081-1.0437 4.584-3.1289l17.748-45.463c-0.48494-0.24247-1.1147-0.43655-1.8906-0.58203-0.7759-0.19398-1.4789-0.29101-2.1094-0.29101-0.96989 0-1.8195 0.1703-2.5469 0.50976-0.67891 0.29097-1.1879 0.89697-1.5273 1.8184l-8.8027 24.514-8.582-24.441c-0.24248-0.77591-0.7039-1.3581-1.3828-1.7461-0.67892-0.43645-1.6493-0.65429-2.9102-0.65429zm-129.7 5.8203c2.8127 0 4.9713 0.89711 6.4746 2.6914 1.5518 1.7458 2.4489 3.9282 2.6914 6.5469h-18.26c0.24247-2.7642 1.1396-4.996 2.6914-6.6934 1.6003-1.6973 3.7352-2.5449 6.4023-2.5449zm-90.055 0.43555c1.7943 0 3.4915 0.41192 5.0918 1.2363 1.6003 0.77591 2.8618 1.9879 3.7832 3.6367v13.168c-0.92139 1.6973-2.2067 2.9568-3.8555 3.7812-1.6003 0.82441-3.2737 1.2363-5.0195 1.2363-1.6003 0-3.0302-0.29111-4.291-0.87305-1.2124-0.58193-2.256-1.382-3.1289-2.4004-0.87289-1.0669-1.5522-2.3264-2.0371-3.7812-0.43644-1.4548-0.6543-3.0312-0.6543-4.7285 1e-5 -1.6003 0.21786-3.0797 0.6543-4.4375 0.48495-1.4063 1.1642-2.5946 2.0371-3.5645 0.8729-1.0184 1.9403-1.8184 3.2012-2.4004 1.2609-0.58193 2.6669-0.87304 4.2188-0.87304z" fill="#fff"/>
</svg>
