<?xml version="1.0" encoding="UTF-8"?>
<svg width="800" height="124.76" version="1.1" xmlns="http://www.w3.org/2000/svg">
	<defs>
		<linearGradient id="A" x1="1456.7" x2="1456.7" y2="500" gradientTransform="matrix(.24952 0 0 .24952 .0072311 .00062541)" gradientUnits="userSpaceOnUse">
			<stop stop-color="red" offset=".4"/>
			<stop stop-color="#d42321" offset="1"/>
		</linearGradient>
		<linearGradient id="B" x1="1459.5" x2="1450.8" y1="233.73" y2="-15.325" gradientTransform="matrix(.24952 0 0 .24952 .0072311 .00062541)" gradientUnits="userSpaceOnUse">
			<stop stop-color="#fff" offset="0"/>
			<stop stop-color="#fff" stop-opacity=".835" offset=".12"/>
			<stop stop-color="#fff" stop-opacity=".658" offset=".269"/>
			<stop stop-color="#fff" stop-opacity=".511" offset=".42"/>
			<stop stop-color="#fff" stop-opacity=".397" offset=".568"/>
			<stop stop-color="#fff" stop-opacity=".315" offset=".716"/>
			<stop stop-color="#fff" stop-opacity=".266" offset=".86"/>
			<stop stop-color="#fff" stop-opacity=".25" offset="1"/>
		</linearGradient>
		<linearGradient id="C" x1="361.92" x2="361.92" y1="28.806" y2="471.22" gradientTransform="matrix(.24952 0 0 .24952 .0072311 .00062541)" gradientUnits="userSpaceOnUse">
			<stop stop-color="#cbcbcb" offset="0"/>
			<stop stop-color="#d4d4d4" offset=".8"/>
		</linearGradient>
		<linearGradient id="D" x1="365.45" x2="359.6" y1="263.25" y2="95.751" gradientTransform="matrix(.24952 0 0 .24952 .0072311 .00062541)" gradientUnits="userSpaceOnUse">
			<stop stop-color="#fff" offset="0"/>
			<stop stop-color="#fff" stop-opacity=".835" offset=".12"/>
			<stop stop-color="#fff" stop-opacity=".658" offset=".269"/>
			<stop stop-color="#fff" stop-opacity=".511" offset=".42"/>
			<stop stop-color="#fff" stop-opacity=".397" offset=".568"/>
			<stop stop-color="#fff" stop-opacity=".315" offset=".716"/>
			<stop stop-color="#fff" stop-opacity=".266" offset=".86"/>
			<stop stop-color="#fff" stop-opacity=".25" offset="1"/>
		</linearGradient>
	</defs>
	<g>
		<path d="m519.33 6.2541e-4v124.76h272.36c4.5911 0 8.3079-3.7167 8.3079-8.3079v-108.14c0.025-4.5911-3.6918-8.3096-8.3079-8.3096z" fill="#cbcbcb"/>
		<path d="m519.33 2.4954v119.77h272.36c3.2125 5e-3 5.8182-2.6004 5.813-5.813v-108.14c0-3.1938-2.5942-5.8148-5.813-5.8148z" fill="#fff"/>
		<path d="m562.69 106.44c0 1.7965-0.84835 2.7447-3.094 2.7447h-5.2148v-10.081h5.0152c2.3454 0 3.1439 0.92319 3.1439 2.6199 0 1.2975-0.49903 1.8963-1.8714 2.2457l-0.24952 0.0748 0.22458 0.0499c1.5471 0.34932 2.046 0.92317 2.046 2.3454zm-5.9386-3.119h2.1208c0.84836 0 1.2227-0.37428 1.2227-1.2227 0-0.87334-0.34933-1.2726-1.2227-1.2726h-2.0959zm3.4932 2.8694c0-0.92318-0.37427-1.3225-1.2227-1.3225h-2.2457v2.595h2.2457c0.89829 0 1.2227-0.37427 1.2227-1.2726zm4.0671-0.29942v-6.812h2.5202v6.712c0 1.0978 0.49905 1.5221 1.8714 1.5221 1.3474 0 1.8714-0.42419 1.8714-1.5221v-6.712h2.5202v6.787c0 2.3704-1.3723 3.4434-4.3665 3.4434-3.0441 0.025-4.3915-1.048-4.4165-3.4184zm20.535-6.787v10.055h-3.069l-4.2917-7.286v7.286h-2.3454v-10.081h3.069l4.2667 7.286v-7.286zm2.071 0h4.4914c3.5182 0 4.4414 1.4471 4.4414 5.0152 0 3.4933-1.023 5.0402-4.4414 5.0402h-4.4914zm4.4165 8.1593c1.4721 0 1.9462-0.7735 1.9462-3.119 0-2.3454-0.47409-3.094-1.9462-3.094h-1.8963v6.238zm6.3628-8.1593h7.0364v1.9213h-4.5412v2.1208h3.7677v1.8963h-3.7677v2.1958h4.6411v1.9213h-7.1612v-10.055zm8.6334 9.6813v-1.9712c1.073 0.37427 2.2207 0.54894 3.3685 0.54894s1.6717-0.29942 1.6717-1.0978c0-0.67369-0.22457-0.87331-1.1477-1.073l-1.6717-0.34933c-1.7467-0.37428-2.3205-1.0729-2.3205-2.7946 0-2.1958 1.2975-3.1689 3.9174-3.1689 1.098 0 2.1708 0.17466 3.1938 0.54894v1.9712c-0.97313-0.34933-2.0211-0.52398-3.069-0.52398-1.2476 0-1.6717 0.32437-1.6717 1.0978 0 0.64873 0.29943 0.84833 1.0978 1.023l1.6218 0.34932c1.8963 0.39923 2.4203 1.048 2.4203 2.8445 0 2.1458-1.3225 3.1439-4.0421 3.1439-1.1228 0-2.2706-0.17466-3.3685-0.54893zm9.1574-9.6813h2.5202v8.1343h4.3166v1.9213h-6.8369zm8.4088 0h2.5202v10.055h-2.5202zm12.925 4.2418v5.4646c-1.1228 0.34932-2.2955 0.52399-3.4933 0.52399-3.4932 0-5.1401-1.5471-5.1401-5.2148 0-3.6678 1.6468-5.215 5.1401-5.215 1.1228-0.02498 2.2457 0.17467 3.3185 0.5739v1.9462c-0.99809-0.34933-2.046-0.52399-3.119-0.52399-2.1208 0-2.7697 0.84835-2.7697 3.2438 0 2.4952 0.69866 3.2937 2.6948 3.2937 0.44913 0 0.87332-0.025 1.3225-0.0999v-2.2457h-1.8714v-1.7217zm8.2091 3.7178h-3.9424l-0.69865 2.1208h-2.4952l3.5931-10.055h3.1938l3.5681 10.055h-2.5202zm-1.9712-6.3876-1.4721 4.5412h2.8944z"/>
		<path d="m554.53 15.596h93.571v74.856h-93.571z" fill="#d20515"/>
		<path d="m631.68 55.019c0.05 0.17467-0.12477 0.32437-0.44914 0.54894l-0.19961 0.12476 0.0749 0.12476c0.0499 0.09981-0.025 0.22457-0.17467 0.29942l-0.2994 0.14971c-0.14971 0.07485-0.29943 0.0499-0.34935-0.02496l-0.0748-0.12476-0.39924 0.19961 0.05 0.12476c0.0499 0.09981-0.05 0.22457-0.17467 0.27447l-0.29942 0.14971c-0.14972 0.07486-0.29943 0.0499-0.34934-0.0499l-0.0499-0.12476c-1.1977 0.5739-2.5451 1.1727-3.9174 1.7965l0.0749 0.17467c0.0499 0.09981-0.05 0.22457-0.17466 0.27447l-0.32439 0.14971c-0.14971 0.07486-0.29942 0.0499-0.32438-0.0499l-0.0748-0.17467-0.44913 0.22457 0.0749 0.17467c0.0499 0.09981-0.0499 0.22457-0.17467 0.27447l-0.29941 0.14971c-0.14971 0.07485-0.29942 0.0499-0.34932-0.0499l-0.0749-0.17467c-0.62381 0.24952-1.3225 0.37428-1.8214-0.5739-0.22457-0.42418-0.22457-1.4223-0.39923-1.9462-0.0749-0.17467-0.22456-0.29942-0.39923-0.32437-6.0883-1.1727-8.1592 0.12476-12.077-0.82341-1.2227-0.29942-1.8963-1.4223-3.4184-1.4472l-7.8599-0.17467-0.17466 0.6238-12.575-0.0499 1.9213 0.94815 0.6238 5.5392s-0.49904 0.14971-0.64874 0.17467c0.12474 1.0978 0.2495 2.595 0.29941 3.9424 0.0499 1.2227 0.12475 2.4702 0.0998 3.2687 0 0.52398-0.12476 1.048-0.37427 1.4971-0.2495 0.39922-0.54894 0.74856-0.94816 1.023-0.12475 0.07486-0.59884 0.42418-1.1727 0.72361-0.54895 0.32437-1.2476 0.6737-1.572 0.84835 0.0499 0.14971 0.0998 0.29942 0.17465 0.42417-7.6352 3.6929-17.117 4.9654-20.186 10.829-0.37428 0.6737-1.5968 0.32438-1.6468-0.39922v-1.1977h-0.0998c-0.0998 0-0.17465-0.12476-0.17465-0.29942v-0.34933c0-0.14971 0.0998-0.27447 0.1996-0.27447h0.12476c0.0499-0.34932 0.0998-0.6737 0.19962-0.99809l-0.12476-0.0499c-0.0998-0.02495-0.12477-0.17467-0.0749-0.32438l0.12476-0.32437c0.0499-0.14971 0.17466-0.24952 0.27446-0.22457l0.12475 0.0499c0.54895-1.2725 1.5969-1.8464 2.0959-3.0441l-0.0748-0.02496c-0.0999-0.02496-0.12477-0.17467-0.0749-0.32437l0.12476-0.32438c0.05-0.14971 0.17466-0.24952 0.27447-0.19961l0.0749 0.02496c0.0749-0.17467 0.14971-0.37428 0.24951-0.54894l-0.0998-0.07486c-0.0998-0.0499-0.0998-0.19961 0-0.34933l0.17467-0.29942c0.0748-0.12476 0.22455-0.19962 0.29941-0.14971l0.05 0.02495h0.0499c0.025 0 0.025 0 0.05-0.02495l0.1497-0.14971c0.47409-0.34932 1.1228-0.37428 1.6218-0.02495 0.47407 0.29942 2.3704 1.3723 4.1669-0.27447 2.9942-2.6698 6.4626-6.3129 9.0829-6.4376-0.72359-1.5221-1.9462-4.7408-2.096-5.9386l-0.84834-0.17467c-0.44913-0.9981-1.572-5.5392-1.8963-8.983 0 0-0.37426-3.6929 0-4.9903-0.19961-0.02495-0.57388 0.27447-0.6737 0.27447-0.47407-1.1727 1.073-11.129 2.62-14.023l2.3704-0.94815c-0.24951-0.02496-1.9462-0.09981-6.4626-0.47408-2.5202 2.2457-5.4394 4.6411-6.9117 5.9386-0.24952 0.17467-0.6737 1.5969-0.6737 1.5969s-0.7236 0.64876-1.4223 1.1228c-0.89829 0.64876-3.1439 1.1228-3.618 0.37428-0.0998-0.17467-0.0998-0.27447 0-0.37428 0.34932-0.37428 1.6468-0.97313 2.0959-1.7965-0.72361 0.37428-1.4971 0.72361-2.1208 0.6737-0.27447 0-0.39923-0.6737-0.0499-0.79847 0.94816-0.39922 1.6967-0.5739 2.2457-1.3474 0.54896-0.77347 1.1977-1.2476 2.046-1.2725 0 0 4.1919-5.4644 6.6373-8.0595 0.67369-0.72361 1.9462-0.47408 1.9462-0.47408l0.22458-0.8234s8.4337-0.9981 12.376 0.29942c-0.0998-2.3954 0.97312-5.5642 4.7159-5.5642 1.9213 0 4.7408 1.6967 5.1402 3.7677 0.12475 0.6238-0.24952 1.048-0.44914 1.8714-0.32437 1.2227 0.12477 2.57 0 2.9942-0.0998 0.34932-0.49903 0.32437-0.84835 0.79846-0.29943 0.47408-0.54894 0.94815-0.7735 1.4721l-0.49903 1.1477-2.6448-0.19961c-0.97311 2.071-2.9444 6.3129-3.6429 10.504 2.071 0.17467 11.453 1.5221 11.453 1.5221l0.22457 0.77351s3.9424 0.47408 7.1861 2.0211c0.72359 0.17467 2.5451-0.09981 3.7428 0.44914 0.0748-0.0499 0.27447-0.24952 0.37426-0.29942 4.2169 1.2975 7.7101 3.5182 11.753 4.4912l2.5451 0.59885c1.073 0.19961 2.1708 0.34932 3.2687 0.42417 1.2975 0.09981 2.0211 0.07486 2.9692 0.14971 0.67371 0.0499 1.4971-0.07485 1.7716 0.92318m6.0384-12.825c-2.8694 0-5.2148 2.3204-5.2148 5.1899s2.3205 5.2149 5.19 5.2149c2.8694 0 5.2148-2.3204 5.2148-5.1899 0-2.8944-2.3454-5.2149-5.1899-5.2149z" fill="#fff"/>
		<path d="m207.64 6.2541e-4h311.69c4.5911 0 8.3091 3.7178 8.3091 8.3091v108.14c0 4.5911-3.7178 8.3091-8.3091 8.3091h-311.69c-4.5911 0-8.3091-3.7178-8.3091-8.3091v-108.14c0-4.5911 3.7178-8.3091 8.3091-8.3091z" fill="url(#A)"/>
		<path d="m205.3 61.88 0.79845-0.0499 315.32-11.003c3.4684-0.02496 6.238-2.8694 6.213-6.3129v-36.205c0-4.5911-3.7178-8.3091-8.3091-8.3091h-311.69c-4.5911 0-8.3091 3.7178-8.3091 8.3091v60.06c-0.0998-3.4184 2.57-6.3129 5.9885-6.4876z" fill="url(#B)" opacity=".4"/>
		<path d="m124.67 115.8c2.62 1.1477 5.4396 1.7716 8.284 1.7716 6.5124 0.14971 10.081-2.3454 12.701-8.1843l34.957-77.825c-2.2706-1.023-4.7408-1.5969-7.2361-1.6717-4.5162-0.09981-10.555 0.8234-14.373 10.005l-11.303 26.648-22.207-36.08c-2.4453-0.64876-4.9654-0.9981-7.4855-1.048-7.86 0-12.227 2.8694-16.767 7.81l-21.583 23.554 17.341 27.298c3.2188 4.9654 7.4357 7.5106 14.298 7.5106 3.4184 0.04986 6.812-0.5739 9.981-1.8714l-20.91-31.439 14.821-15.695 24.302 38.101zm-45.837-29.418c0 5.7389-2.2457 9.0329-13.474 9.0329-1.3474 0-2.6948-0.0998-4.0172-0.27447v-76.129c0-5.7888 1.9712-11.827 13.275-11.827 1.4223 0 2.8445 0.14971 4.2169 0.42418zm-23.155-11.503c0 10.73-7.0116 18.514-21.234 20.061-10.305 1.0978-25.226-0.19961-32.312-0.9981-0.24952-1.2227-0.39922-2.4702-0.42418-3.7428 0-9.3317 5.0402-11.477 9.7811-11.477 4.9405 0 12.701 0.87333 18.464 0.87333 6.3628 0 8.2841-2.1458 8.2841-4.2169 0-2.6698-2.5451-3.7927-7.4856-4.7408l-13.523-2.595c-11.228-2.1458-17.217-9.9056-17.217-18.14 0-10.005 7.0864-18.364 21.035-19.911 10.555-1.1477 23.405 0.14971 30.441 0.9981 0.24952 1.1727 0.37428 2.3704 0.37428 3.5931 0 9.3317-4.9405 11.353-9.6813 11.353-3.6429 0-9.3071-0.6737-15.769-0.6737-6.5624 0-9.3071 1.8214-9.3071 4.0172 0 2.3454 2.595 3.2936 6.7121 4.0172l12.899 2.3954c13.249 2.4203 18.963 9.9555 18.963 19.188z" fill="url(#C)"/>
		<path d="m180.63 31.564-12.801 28.495c-0.99811 2.0461-3.069 3.3435-5.3396 3.3435l-11.678 0.39922c-1.2726 0.07486-2.3954 0.92318-2.8445 2.1208v-0.02495l11.029-26c3.8425-9.1819 9.8811-10.105 14.373-10.005 2.5202 0.07485 4.9654 0.64876 7.261 1.6717zm-33.535 34.059-21.608-35.132c-2.4452-0.64876-4.9654-0.9981-7.4855-1.048-7.8599 0-12.227 2.8694-16.767 7.81l-21.583 23.554 1.7217 2.7198c1.1228 1.6967 3.069 2.6698 5.1151 2.57l12.301-0.42418a6.1556 6.1556 0 0 1 5.4396 2.4453l-3.8675-5.8139 14.821-15.695 9.9555 15.595c1.2227 1.5471 3.119 2.4203 5.0902 2.3704l14.148-0.49904c1.0978 0 2.1458 0.59885 2.7198 1.5471zm-72.486-58.413c-11.303 0-13.275 6.0384-13.275 11.827v52.149c0-2.3954 1.9213-4.3416 4.3166-4.4165l8.7578-0.29942c2.4453 0 4.4415-1.9961 4.4415-4.4415v-54.395c-1.4223-0.29942-2.8195-0.44912-4.2418-0.42418zm-37.877 48.457-12.899-2.3954c-4.1171-0.72361-6.7121-1.6717-6.7121-4.0172 0-2.1958 2.7447-4.0172 9.3071-4.0172 6.4626 0 12.127 0.6737 15.769 0.6737 4.7408 0 9.6813-2.0211 9.6813-11.353 0-1.1977-0.12476-2.4203-0.37428-3.5931-7.0365-0.87333-19.886-2.1458-30.441-0.99809-13.973 1.5471-21.059 9.931-21.059 19.911 0.024952 5.3396 2.5451 10.38 6.812 13.598 3.1439 1.9462 6.6871 3.2188 10.355 3.6929 4.7907 0.64876 9.6068 0.8983 14.422 0.74855l15.395-0.54894c5.7638-0.19961 8.9077 4.7159 8.5835 9.6567 0-0.07486 0-0.12476 0.02496-0.19961v-0.0499c0.0499-0.64876 0.07486-1.2975 0.07486-1.9462 0-9.1819-5.7139-16.717-18.938-19.163z" fill="url(#D)" opacity=".25"/>
		<path d="m223.17 89.652c-0.74854-5.1401 0.84835-7.835 3.7927-7.835 2.7946 0 9.6567 3.069 19.213 3.069 10.055 0 13.848-3.5681 13.848-8.2092 0-3.2936-1.4721-6.238-10.529-8.7079l-10.405-2.7945c-11.503-3.069-16.045-8.8332-16.045-15.945 0-8.8078 6.9866-16.668 22.781-16.668 7.1114 0 15.945 1.5969 21.308 3.6929 0.97313 5.0152-0.62379 7.7101-3.6679 7.7101-2.6948 0-8.8078-2.57-17.516-2.57-9.3071 0-12.75 3.1689-12.75 7.336 0 2.9194 1.3474 5.6392 9.6814 7.9597l10.655 2.9444c11.902 3.2936 16.668 8.8078 16.668 16.643 0 9.2073-7.1114 17.391-24.253 17.391-7.5855 0.02498-17.042-1.8214-22.781-4.0172m117.57-26.574c0 19.213-13.474 30.616-28.295 30.616-8.8078 0-16.045-4.1669-20.336-10.031v24.752c0 2.3205-1.3474 3.7927-5.2648 3.7927-1.9712 0-3.7926-0.24953-4.7658-0.47409v-78.049c0.97313-0.24952 2.7946-0.49903 4.7658-0.49903 3.9175 0 5.2648 1.4721 5.2648 3.7927v5.6142c4.2917-5.8637 11.528-10.031 20.336-10.031 14.821 0 28.295 11.403 28.295 30.516m-10.155 0c0-12.851-8.5589-21.682-20.087-21.682-7.835 0-15.071 4.5412-18.364 11.153v21.184c3.2936 6.6123 10.529 11.153 18.364 11.153 11.503-0.02498 20.087-8.8331 20.087-21.808m19.562 0c0-17.516 12.851-30.491 30.116-30.491 17.391 0 30.242 12.975 30.242 30.491 0 17.391-12.851 30.616-30.242 30.616-17.266-0.02498-30.116-13.249-30.116-30.616m50.203 0c0-13.474-9.0829-21.682-20.087-21.682-10.879 0-19.961 8.2092-19.961 21.682 0 13.349 9.0828 21.782 19.961 21.782 11.003 0 20.087-8.4337 20.087-21.782m58.712-25.002c0 4.0421-1.6967 4.8905-5.8886 4.8905-8.4337 0-15.545 3.9175-19.961 13.1v33.211c0 2.4453-1.3474 3.7927-5.3896 3.7927-1.7217 0-3.6929-0.24952-4.666-0.47408v-58.937c0.97312-0.24952 2.9194-0.47408 4.666-0.47408 4.0172 0 5.3896 1.4721 5.3896 3.7927v8.2092c5.739-8.7079 14.447-13.1 25.35-11.627 0.12477 0.84836 0.49904 2.6948 0.49904 4.5162m44.04 51.575c-5.1402 2.4453-11.029 4.0421-16.893 4.0421-11.627 0-18.614-6.8618-18.614-18.24v-50.577c0-2.57 1.4721-4.2917 5.3896-4.2917 1.6967 0 3.6679 0.34933 4.666 0.6238v12.725h22.88c0.12476 0.84836 0.37429 2.57 0.37429 4.0421 0 3.5431-1.4721 4.7658-3.6679 4.7658h-19.587v31.987c0 6.8369 3.1689 10.155 9.6567 10.155 5.8886 0 9.1819-2.57 12.002-2.57 2.9444-0.02496 4.4165 2.4203 3.7926 7.336" fill="#fff"/>
		<path d="m741.9 31.227c-3.523 0-6.7674 0.65006-9.7342 1.948-2.9668 1.298-5.5324 3.2441-7.6958 5.8402-2.1015 2.5959-3.7705 5.8403-5.0066 9.7342-1.1743 3.8939-1.7613 8.4364-1.7613 13.628 0 5.1919 0.58693 9.7364 1.7613 13.63 1.2362 3.8939 2.9052 7.1383 5.0066 9.7342 2.1633 2.5959 4.7289 4.5421 7.6958 5.8402 2.9668 1.298 6.2112 1.948 9.7342 1.948 3.523-1e-6 6.7674-0.65007 9.7342-1.948 3.0286-1.298 5.6248-3.2441 7.7882-5.8402 2.2251-2.5959 3.9247-5.8403 5.099-9.7342 1.2362-3.8939 1.8536-8.4384 1.8536-13.63 0-5.1919-0.61749-9.7344-1.8536-13.628-1.1744-3.8939-2.8739-7.1383-5.099-9.7342-2.1633-2.5959-4.7595-4.5421-7.7882-5.8402-2.9668-1.298-6.2112-1.948-9.7342-1.948zm-46.078 1.0202-13.351 6.4888c-2.1633 1.2362-3.2454 2.9377-3.2454 5.101 0 0.92713 0.2486 1.8849 0.74308 2.8738 0.49446 0.98894 1.1731 1.8224 2.0384 2.5023l11.405-5.3762v48.765c0.49447 0.12361 1.2362 0.21734 2.2252 0.27915 0.98894 0.12362 1.9773 0.18476 2.9662 0.18476 1.9778 0 3.3371-0.40146 4.0788-1.205 0.80351-0.86532 1.205-1.9168 1.205-3.153v-56.461zm46.078 7.6958c4.2647 0 7.664 1.8219 10.198 5.4685 2.5341 3.6467 3.8017 9.3019 3.8017 16.966 0 7.6643-1.2676 13.321-3.8017 16.968-2.5341 3.6467-5.9334 5.4685-10.198 5.4685-4.2648 0-7.6029-1.7913-10.013-5.3762-2.4105-3.5849-3.6149-9.2726-3.6149-17.06 0-7.7879 1.2044-13.473 3.6149-17.058 2.4105-3.5849 5.7486-5.3762 10.013-5.3762z" fill="#002a91"/>
	</g>
</svg>
