<?xml version="1.0" encoding="UTF-8" standalone="no"?>
<svg
   xmlns:dc="http://purl.org/dc/elements/1.1/"
   xmlns:cc="http://creativecommons.org/ns#"
   xmlns:rdf="http://www.w3.org/1999/02/22-rdf-syntax-ns#"
   xmlns:svg="http://www.w3.org/2000/svg"
   xmlns="http://www.w3.org/2000/svg"
   xmlns:sodipodi="http://sodipodi.sourceforge.net/DTD/sodipodi-0.dtd"
   xmlns:inkscape="http://www.inkscape.org/namespaces/inkscape"
   height="80.242"
   width="600"
   version="1.1"
   viewBox="0 0 158.75 21.230579"
   id="svg226"
   sodipodi:docname="sky sport 12 hd.svg"
   inkscape:version="0.92.4 (5da689c313, 2019-01-14)">
  <metadata
     id="metadata230">
    <rdf:RDF>
      <cc:Work
         rdf:about="">
        <dc:format>image/svg+xml</dc:format>
        <dc:type
           rdf:resource="http://purl.org/dc/dcmitype/StillImage" />
        <dc:title></dc:title>
      </cc:Work>
    </rdf:RDF>
  </metadata>
  <sodipodi:namedview
     pagecolor="#ffffff"
     bordercolor="#666666"
     borderopacity="1"
     objecttolerance="10"
     gridtolerance="10"
     guidetolerance="10"
     inkscape:pageopacity="0"
     inkscape:pageshadow="2"
     inkscape:window-width="1920"
     inkscape:window-height="1013"
     id="namedview228"
     showgrid="false"
     showguides="true"
     inkscape:guide-bbox="true"
     inkscape:snap-bbox="true"
     inkscape:snap-bbox-midpoints="false"
     inkscape:snap-bbox-edge-midpoints="true"
     inkscape:snap-smooth-nodes="true"
     inkscape:zoom="8"
     inkscape:cx="429.60692"
     inkscape:cy="28.512711"
     inkscape:window-x="0"
     inkscape:window-y="0"
     inkscape:window-maximized="1"
     inkscape:current-layer="g222">
    <sodipodi:guide
       position="129.498,17.267873"
       orientation="0,1"
       id="guide1043"
       inkscape:locked="false" />
    <sodipodi:guide
       position="127.872,4.5223423"
       orientation="0,1"
       id="guide1045"
       inkscape:locked="false" />
  </sodipodi:namedview>
  <defs
     id="defs192">
    <linearGradient
       id="a"
       gradientUnits="userSpaceOnUse"
       x2=".99201"
       gradientTransform="matrix(0 20.31 20.31 0 210.26 433.23)"
       x1=".0084819"
       y1="0"
       y2="0">
      <stop
         stop-color="#0f1c4d"
         offset="0"
         id="stop2" />
      <stop
         stop-color="#101e51"
         offset=".0039062"
         id="stop4" />
      <stop
         stop-color="#101f54"
         offset=".0078125"
         id="stop6" />
      <stop
         stop-color="#112157"
         offset=".011719"
         id="stop8" />
      <stop
         stop-color="#12225a"
         offset=".015625"
         id="stop10" />
      <stop
         stop-color="#13245d"
         offset=".019531"
         id="stop12" />
      <stop
         stop-color="#132560"
         offset=".023438"
         id="stop14" />
      <stop
         stop-color="#142662"
         offset=".027344"
         id="stop16" />
      <stop
         stop-color="#142764"
         offset=".03125"
         id="stop18" />
      <stop
         stop-color="#142764"
         offset=".0625"
         id="stop20" />
      <stop
         stop-color="#142764"
         offset=".125"
         id="stop22" />
      <stop
         stop-color="#142764"
         offset=".25"
         id="stop24" />
      <stop
         stop-color="#142764"
         offset=".5"
         id="stop26" />
      <stop
         stop-color="#142764"
         offset=".75"
         id="stop28" />
      <stop
         stop-color="#142764"
         offset=".875"
         id="stop30" />
      <stop
         stop-color="#142764"
         offset=".89062"
         id="stop32" />
      <stop
         stop-color="#142764"
         offset=".89844"
         id="stop34" />
      <stop
         stop-color="#142763"
         offset=".90234"
         id="stop36" />
      <stop
         stop-color="#142763"
         offset=".90625"
         id="stop38" />
      <stop
         stop-color="#132662"
         offset=".91016"
         id="stop40" />
      <stop
         stop-color="#132661"
         offset=".91406"
         id="stop42" />
      <stop
         stop-color="#132560"
         offset=".91797"
         id="stop44" />
      <stop
         stop-color="#13255f"
         offset=".92188"
         id="stop46" />
      <stop
         stop-color="#12245d"
         offset=".92578"
         id="stop48" />
      <stop
         stop-color="#12245c"
         offset=".92969"
         id="stop50" />
      <stop
         stop-color="#12235b"
         offset=".93359"
         id="stop52" />
      <stop
         stop-color="#12235a"
         offset=".9375"
         id="stop54" />
      <stop
         stop-color="#112259"
         offset=".94141"
         id="stop56" />
      <stop
         stop-color="#112258"
         offset=".94531"
         id="stop58" />
      <stop
         stop-color="#112157"
         offset=".94922"
         id="stop60" />
      <stop
         stop-color="#112056"
         offset=".95312"
         id="stop62" />
      <stop
         stop-color="#102055"
         offset=".95703"
         id="stop64" />
      <stop
         stop-color="#102054"
         offset=".96094"
         id="stop66" />
      <stop
         stop-color="#101f53"
         offset=".96484"
         id="stop68" />
      <stop
         stop-color="#101e52"
         offset=".96875"
         id="stop70" />
      <stop
         stop-color="#0f1d50"
         offset=".97266"
         id="stop72" />
      <stop
         stop-color="#0f1d4f"
         offset=".97656"
         id="stop74" />
      <stop
         stop-color="#0f1c4e"
         offset=".98047"
         id="stop76" />
      <stop
         stop-color="#0f1c4d"
         offset=".98438"
         id="stop78" />
      <stop
         stop-color="#0e1b4c"
         offset=".98828"
         id="stop80" />
      <stop
         stop-color="#0e1b4b"
         offset=".99219"
         id="stop82" />
      <stop
         stop-color="#0e1a4a"
         offset=".99609"
         id="stop84" />
      <stop
         stop-color="#0e1949"
         offset="1"
         id="stop86" />
    </linearGradient>
    <linearGradient
       id="b"
       gradientUnits="userSpaceOnUse"
       gradientTransform="matrix(0 -19.975 19.975 0 206.93 453.37)"
       x1="7.105e-15"
       x2="1"
       y1="0"
       y2="0">
      <stop
         stop-color="#552227"
         offset="0"
         id="stop89" />
      <stop
         stop-color="#5a2227"
         offset=".0039062"
         id="stop91" />
      <stop
         stop-color="#602228"
         offset=".0078125"
         id="stop93" />
      <stop
         stop-color="#662329"
         offset=".011719"
         id="stop95" />
      <stop
         stop-color="#6c232a"
         offset=".015625"
         id="stop97" />
      <stop
         stop-color="#71232a"
         offset=".019531"
         id="stop99" />
      <stop
         stop-color="#77232a"
         offset=".023438"
         id="stop101" />
      <stop
         stop-color="#7d232a"
         offset=".027344"
         id="stop103" />
      <stop
         stop-color="#84222b"
         offset=".03125"
         id="stop105" />
      <stop
         stop-color="#8a212b"
         offset=".035156"
         id="stop107" />
      <stop
         stop-color="#90202b"
         offset=".039062"
         id="stop109" />
      <stop
         stop-color="#961f2b"
         offset=".042969"
         id="stop111" />
      <stop
         stop-color="#9d1d2b"
         offset=".046875"
         id="stop113" />
      <stop
         stop-color="#a31a2a"
         offset=".050781"
         id="stop115" />
      <stop
         stop-color="#a9172a"
         offset=".054688"
         id="stop117" />
      <stop
         stop-color="#b01329"
         offset=".058594"
         id="stop119" />
      <stop
         stop-color="#b70f29"
         offset=".0625"
         id="stop121" />
      <stop
         stop-color="#bd0829"
         offset=".066406"
         id="stop123" />
      <stop
         stop-color="#c40228"
         offset=".070312"
         id="stop125" />
      <stop
         stop-color="#c70028"
         offset=".074219"
         id="stop127" />
      <stop
         stop-color="#ca0027"
         offset=".078125"
         id="stop129" />
      <stop
         stop-color="#ca0027"
         offset=".09375"
         id="stop131" />
      <stop
         stop-color="#ca0027"
         offset=".125"
         id="stop133" />
      <stop
         stop-color="#ca0027"
         offset=".25"
         id="stop135" />
      <stop
         stop-color="#ca0027"
         offset=".5"
         id="stop137" />
      <stop
         stop-color="#ca0027"
         offset=".75"
         id="stop139" />
      <stop
         stop-color="#ca0027"
         offset=".875"
         id="stop141" />
      <stop
         stop-color="#ca0027"
         offset=".90625"
         id="stop143" />
      <stop
         stop-color="#ca0027"
         offset=".91406"
         id="stop145" />
      <stop
         stop-color="#cb0028"
         offset=".91797"
         id="stop147" />
      <stop
         stop-color="#cc0029"
         offset=".92188"
         id="stop149" />
      <stop
         stop-color="#ce002a"
         offset=".92578"
         id="stop151" />
      <stop
         stop-color="#cf012a"
         offset=".92969"
         id="stop153" />
      <stop
         stop-color="#d1052b"
         offset=".93359"
         id="stop155" />
      <stop
         stop-color="#d2092c"
         offset=".9375"
         id="stop157" />
      <stop
         stop-color="#d40b2d"
         offset=".94141"
         id="stop159" />
      <stop
         stop-color="#d50d2e"
         offset=".94531"
         id="stop161" />
      <stop
         stop-color="#d60f2f"
         offset=".94922"
         id="stop163" />
      <stop
         stop-color="#d71130"
         offset=".95312"
         id="stop165" />
      <stop
         stop-color="#d91431"
         offset=".95703"
         id="stop167" />
      <stop
         stop-color="#da1732"
         offset=".96094"
         id="stop169" />
      <stop
         stop-color="#dc1933"
         offset=".96484"
         id="stop171" />
      <stop
         stop-color="#dd1a34"
         offset=".96875"
         id="stop173" />
      <stop
         stop-color="#df1c35"
         offset=".97266"
         id="stop175" />
      <stop
         stop-color="#e01d35"
         offset=".97656"
         id="stop177" />
      <stop
         stop-color="#e12036"
         offset=".98047"
         id="stop179" />
      <stop
         stop-color="#e22237"
         offset=".98438"
         id="stop181" />
      <stop
         stop-color="#e42439"
         offset=".98828"
         id="stop183" />
      <stop
         stop-color="#e6253a"
         offset=".99219"
         id="stop185" />
      <stop
         stop-color="#e7273a"
         offset=".99609"
         id="stop187" />
      <stop
         stop-color="#e8283b"
         offset="1"
         id="stop189" />
    </linearGradient>
  </defs>
  <g
     transform="translate(-133.45,-432.77)"
     id="g224">
    <path
       d="m 136.35,433.4 c -1.5801,0 -2.1356,0.93656 -2.1356,2.4774 v 15.017 c 0,1.5506 0.55569,2.4774 2.1356,2.4774 h 152.82 c 1.5702,0 2.1356,-0.92678 2.1356,-2.4774 v -15.017 c 0,-1.5408 -0.56556,-2.4774 -2.1356,-2.4774 z"
       id="path194"
       inkscape:connector-curvature="0"
       style="display:inline;fill:url(#a);stroke-width:0.96850997" />
    <path
       d="m 248.34,441 c -0.1617,-0.13385 -0.29645,-0.25009 -0.4851,-0.58643 -0.53002,-0.83636 -0.54799,-1.9417 0.539,-2.3456 l 3.9437,-1.3353 h 1.9314 v 11.275 c 0,0.8651 -0.23357,1.4706 -1.617,1.4706 -0.55697,0 -1.2128,-0.0584 -1.4733,-0.11589 v -9.314 l -2.8388,0.95179"
       id="path196"
       inkscape:connector-curvature="0"
       style="display:inline;fill:#ffffff;stroke-width:0.95043999" />
    <path
       d="m 171.13,433.4 c -0.008,6.5492 0.008,13.746 0.005,19.971 h 71.575 c 0.002,-6.7746 0.005,-14.054 0.005,-19.971 z"
       id="path198"
       inkscape:connector-curvature="0"
       style="fill:url(#b);stroke-width:0.96850997" />
    <g
       id="g212"
       style="fill:#ffffff;stroke-width:0.96850997">
      <path
         d="m 187.03,445.72 c 0,-2.0772 -1.3458,-3.0816 -3.5011,-3.5596 l -3.7643,-0.84836 c -0.6829,-0.15633 -1.2483,-0.37082 -1.2483,-1.0533 0,-0.74115 0.58526,-1.0239 2.1649,-1.0239 1.8626,0 2.3015,0.0976 3.9886,0.0976 0.78014,0 1.5798,-0.36092 1.5798,-1.9017 0,-0.18548 -0.0203,-0.39984 -0.0565,-0.58524 -1.141,-0.0976 -3.1695,-0.21437 -5.6855,-0.21437 -3.7741,0 -5.2175,1.6384 -5.2175,3.7253 0,1.9602 1.2289,3.0427 3.4132,3.5596 l 3.7643,0.86792 c 0.87767,0.20448 1.3555,0.59515 1.3555,1.1411 0,0.74108 -0.67299,1.0239 -2.243,1.0239 -1.8626,0 -2.7208,-0.12669 -4.4177,-0.12669 -0.77044,0 -1.5701,0.36092 -1.5701,1.9016 0,0.18548 0.0203,0.38996 0.0497,0.58527 1.1508,0.11681 3.5985,0.244 6.1048,0.244 3.7838,0 5.2857,-1.6091 5.2857,-3.8326"
         id="path200"
         inkscape:connector-curvature="0" />
      <path
         d="m 218.07,444.89 h 1.5799 l 3.0426,3.6278 c 0.56545,0.702 1.1214,1.063 2.4088,1.063 0.87767,0 1.4628,-0.10743 1.9406,-0.34111 l -3.9593,-4.5737 c 2.2234,-0.47768 3.345,-1.9212 3.345,-4.0568 0,-2.6135 -1.5994,-3.9106 -4.8273,-3.9106 l -4.6128,-0.0203 c -1.5019,0.0565 -1.9992,0.57536 -1.9992,1.9407 v 10.756 c 0.23413,0.0355 0.49749,0.0568 0.76068,0.0568 1.9017,0 2.3405,-0.55625 2.3405,-1.5408 l -0.0203,-3.0035 m 0.0203,-2.5063 v -3.1792 h 2.9842 c 1.2678,0 2.282,0.19536 2.282,1.5214 0,1.1214 -0.76068,1.6578 -2.282,1.6578 h -2.9842"
         id="path202"
         inkscape:connector-curvature="0" />
      <path
         d="m 188.4,449.37 c 0.22425,0.0352 0.49749,0.0494 0.76068,0.0494 1.9017,0 2.3405,-0.54632 2.3405,-1.5311 v -2.6038 h 3.228 c 3.5205,0 5.2661,-1.5213 5.2661,-4.369 0,-2.7598 -1.7456,-4.2227 -5.0614,-4.2227 h -4.5348 c -1.5213,0 -1.9992,0.58527 -1.9992,1.9407 v 10.737 m 3.1012,-6.6509 v -3.501 h 3.0914 c 1.5408,0 2.3015,0.56545 2.3015,1.6969 0,1.1897 -0.76071,1.804 -2.3015,1.804 h -3.0914"
         id="path204"
         inkscape:connector-curvature="0" />
      <path
         d="m 207.21,449.41 c 1.9991,0 3.54,-0.47767 4.6225,-1.4433 1.0825,-0.95571 1.6383,-2.6624 1.6383,-5.1004 -0.0203,-2.3892 -0.57533,-4.0666 -1.6968,-5.0516 -1.1215,-0.9752 -2.6428,-1.4628 -4.5639,-1.4628 -1.9212,0 -3.4327,0.48759 -4.5542,1.4628 -1.1214,0.98498 -1.6774,2.6622 -1.6968,5.0516 0,2.438 0.55625,4.1447 1.6384,5.1004 1.0825,0.96542 2.6233,1.4433 4.6128,1.4433 m 3.0621,-6.5437 c 0,1.4629 -0.24426,2.4869 -0.74114,3.1012 -0.46778,0.62416 -1.258,0.90696 -2.321,0.90696 -1.0825,-0.0203 -1.853,-0.322 -2.3503,-0.90696 -0.49749,-0.59517 -0.74114,-1.6188 -0.74114,-3.1012 0,-1.4627 0.26324,-2.4868 0.7606,-3.0816 0.48759,-0.60437 1.2678,-0.8875 2.3308,-0.8875 1.0629,0 1.8236,0.28305 2.321,0.8875 0.49749,0.59515 0.74114,1.6188 0.74114,3.0816"
         id="path206"
         inkscape:connector-curvature="0" />
      <path
         d="m 234.6,439.3 h 2.4868 c 0.81911,0 1.6578,-0.38002 1.6578,-1.9992 0,-0.18547 -0.0203,-0.41965 -0.0568,-0.60434 h -9.6738 c -0.80946,0 -1.6481,0.38002 -1.6481,1.9991 0,0.18547 0.0203,0.40974 0.0567,0.60437 h 4.0764 v 10.074 c 0.23413,0.0355 0.49747,0.0568 0.77037,0.0568 1.892,0 2.3308,-0.55623 2.3308,-1.5409 v -8.5916"
         id="path208"
         inkscape:connector-curvature="0" />
      <path
         d="m 147.07,445.3 c 0,1.7163 -1.1214,2.9646 -3.3937,3.2084 -1.6383,0.1756 -4.0277,-0.0284 -5.1491,-0.16546 -0.0497,-0.17559 -0.0778,-0.40975 -0.0778,-0.58524 0,-1.5018 0.80946,-1.8431 1.5604,-1.8431 0.7899,0 2.0285,0.13658 2.9548,0.13658 1.0142,0 1.3166,-0.34111 1.3166,-0.67302 0,-0.42885 -0.40977,-0.60434 -1.1897,-0.7509 l -2.1551,-0.41965 c -1.7945,-0.34111 -2.7501,-1.5798 -2.7501,-2.8964 0,-1.5993 1.1312,-2.9451 3.3644,-3.1889 1.6774,-0.18548 3.7253,0.0203 4.8468,0.16546 0.0497,0.18548 0.0707,0.37083 0.0707,0.57533 0,1.492 -0.78998,1.8138 -1.5506,1.8138 -0.57536,0 -1.4824,-0.10769 -2.5161,-0.10769 -1.0435,0 -1.4823,0.28306 -1.4823,0.64327 0,0.37083 0.41966,0.5265 1.0727,0.644 l 2.0576,0.38002 c 2.1162,0.38994 3.0231,1.5895 3.0231,3.0622 m 3.696,1.8432 c 0,0.91674 -0.3609,1.4433 -2.1552,1.4433 -0.23438,0 -0.43873,-0.0203 -0.64397,-0.0494 v -12.161 c 0,-0.92642 0.31209,-1.8918 2.126,-1.8918 0.22425,0 0.45857,0.0203 0.67299,0.0707 v 12.59 m 7.3141,4.7006 c 0.23438,0.1267 0.72162,0.27318 1.3263,0.28308 1.0337,0.0284 1.6091,-0.37082 2.0284,-1.3068 l 5.5784,-12.443 c -0.23438,-0.1267 -0.74115,-0.26324 -1.1606,-0.27315 -0.71185,-0.008 -1.6773,0.13657 -2.2918,1.6091 l -1.804,4.2616 -3.5498,-5.7732 c -0.22425,-0.0707 -0.78015,-0.16572 -1.1897,-0.16572 -1.258,0 -1.9504,0.45858 -2.672,1.2482 l -3.4523,3.7643 2.7697,4.3592 c 0.5166,0.79968 1.1897,1.1995 2.282,1.1995 0.72164,0 1.3165,-0.16572 1.5896,-0.29228 l -3.3353,-5.0321 2.3697,-2.5062 3.8716,6.0853 -2.36,4.9834"
         id="path210"
         inkscape:connector-curvature="0" />
    </g>
    <path
       d="m 136.49,432.77 c -2.3307,0 -3.0417,1.4538 -3.0417,2.9068 v 15.418 c 0,1.4531 0.71097,2.9056 3.0417,2.9056 h 152.66 c 2.3307,0 3.0522,-1.4524 3.0522,-2.9056 v -15.418 c 0,-1.453 -0.72146,-2.9068 -3.0522,-2.9068 z m 0.10744,0.19638 h 152.44 c 1.57,0 2.6332,0.9268 2.6332,2.4774 v 15.886 c 0,1.5506 -1.0632,2.4774 -2.6332,2.4774 h -152.44 c -1.5701,0 -2.6332,-0.92673 -2.6332,-2.4774 v -15.886 c 0,-1.5506 1.0632,-2.4774 2.6332,-2.4774 z"
       id="path214"
       inkscape:connector-curvature="0"
       style="display:inline;fill:#a1a19c;stroke-width:0.96850997" />
    <g
       id="g222"
       style="display:inline;fill:#ffffff">
      <path
         d="m 258.57976,446.826 c 0.21444,-0.62418 1.9504,-1.258 2.82806,-1.67737 2.65255,-1.25799 4.31035,-2.15521 4.31035,-4.53466 0,-1.81391 -1.33606,-3.8813 -5.22714,-3.8813 -1.61887,0 -3.96905,0.53642 -5.09059,1.11166 -0.0567,1.52133 0.70202,2.21372 1.38487,2.21372 1.13122,0 2.12588,-0.63407 3.82281,-0.63407 1.27747,0 1.9406,0.59514 1.9406,1.27745 0,1.2092 -1.44326,1.58963 -3.21816,2.56483 -2.35028,1.28724 -4.06658,2.32102 -4.06658,4.67121 0,0.47769 0.0566,1.10197 0.15568,1.5408 h 8.65985 c 0.8192,0 1.65779,-0.38001 1.65779,-1.99919 0,-0.19462 -0.0212,-0.45857 -0.0566,-0.65319 h -7.09947"
         id="path196-3"
         inkscape:connector-curvature="0"
         style="display:inline;fill:#ffffff;stroke-width:0.96851021" />
      <path
         d="m 136.37,433.81 c -1.439,0 -1.9926,0.5559 -1.9926,2.1943 v 14.178 c 0,0.8777 0.0512,1.4738 0.18117,1.4738 0.0512,-0.27302 0.0884,-1.6372 1.6379,-2.8854 0.56378,-0.41938 1.3612,-0.82038 2.3774,-1.2104 3.1932,-1.0635 6.2416,-1.7689 8.899,-2.2565 0.31549,-0.0418 0.65143,-0.11326 0.92455,-0.1609 0.97517,-0.17103 1.9981,-0.32912 2.8872,-0.47187 0.37684,-0.0426 0.77381,-0.1158 1.0982,-0.16445 1.053,-0.14848 2.1149,-0.28921 3.0079,-0.40959 1.3186,-0.16622 2.6476,-0.32375 3.7627,-0.45708 1.0619,-0.12518 2.1432,-0.23084 3.0495,-0.32563 h 0.005 v 0.005 c 0.24173,-0.0291 0.49441,-0.0565 0.73591,-0.0768 1.038,-0.11579 2.1084,-0.21334 3.0004,-0.30005 2.2042,-0.18092 4.4815,-0.37613 6.3665,-0.51913 1.6488,-0.12594 3.3164,-0.24452 4.7212,-0.34382 2.0884,-0.12517 4.2426,-0.25574 6.0345,-0.35829 2.4638,-0.12821 4.9567,-0.2571 7.0573,-0.34379 1.1087,-0.0461 2.2505,-0.0879 3.2002,-0.12441 l 5.5665,-0.19384 c 1.0667,-0.0312 2.1234,-0.0595 3.2003,-0.0879 0.38413,0.005 0.81334,-0.0152 1.1548,-0.0228 1.1515,-0.0284 2.3387,-0.0509 3.3323,-0.0694 1.9523,-0.039 3.9161,-0.0679 5.8684,-0.0879 1.1171,-0.008 2.2341,-0.0177 3.3512,-0.0256 0.57763,-0.008 1.1743,-0.003 1.7587,-0.003 h 3.2002 l 5.4344,0.0291 c 1.0566,0.0203 2.1234,0.0296 3.1701,0.0509 1.7612,0.0203 3.5047,0.056 5.2457,0.095 1.0729,0.0312 2.136,0.0595 3.1889,0.0879 2.8481,0.0879 5.6445,0.206 8.3819,0.33282 3.3109,0.15608 6.5137,0.34257 9.5932,0.56684 1.0968,0.0826 2.2463,0.1756 3.2003,0.25237 2.3649,0.19511 4.6482,0.41082 6.8119,0.6546 3.7034,0.39984 7.105,0.87886 10.114,1.4153 0.51923,0.0907 1.0664,0.20118 1.5208,0.28878 0.87027,0.16419 1.7677,0.36644 2.5209,0.52666 1.202,0.28797 2.4644,0.64215 3.5248,0.93648 0.97774,0.2943 1.9625,0.69543 2.8078,1.0168 1.2781,0.54609 2.2756,1.1313 2.97,1.7553 1.3988,1.3457 1.5906,2.6124 1.6417,2.8854 0.12999,0 0.18117,-0.59609 0.18117,-1.4738 v -14.178 c 0,-1.6383 -0.55357,-2.1942 -1.9926,-2.1942 -0.48346,0 -0.96735,0.25237 -1.6114,0.25237 h -149.49 c -0.5578,-0.0291 -1.1134,-0.18396 -1.6118,-0.26149 z"
         id="path218"
         inkscape:connector-curvature="0"
         style="opacity:0.4;stroke-width:2.53609991" />
      <path
         d="m 274.07,442.11 v -2.8281 c 0,-0.76068 0.30216,-1.2483 1.8821,-1.2483 0.1946,0 0.36092,0.0203 0.54632,0.0494 v 9.2547 c 0,0.76068 -0.30218,1.2385 -1.8821,1.2385 -0.1946,0 -0.36092,-0.008 -0.54632,-0.0423 v -4.2032 h -4.9248 v 3.0036 c 0,0.76068 -0.30219,1.2385 -1.8821,1.2385 -0.1946,0 -0.35101,-0.008 -0.55626,-0.0423 v -9.2548 c 0,-0.76065 0.3121,-1.2483 1.8919,-1.2483 0.1946,0 0.35102,0.0203 0.54635,0.0494 v 4.0276 h 4.9247 m 13.984,1.1897 c 0,-3.15 -2.2624,-5.2759 -6.0073,-5.2759 h -2.5452 c -1.2288,0 -1.5213,0.64329 -1.5213,1.4823 v 7.5968 c 0,0.80946 0.29225,1.4629 1.5213,1.4629 h 2.5452 c 3.7449,0 6.0073,-2.126 6.0073,-5.2661 m -7.6261,3.0133 v -6.0365 h 1.7651 c 2.4478,0 3.3547,1.5896 3.3547,3.0231 0,1.4238 -0.90696,3.0133 -3.3547,3.0133 h -1.7651"
         id="path220"
         inkscape:connector-curvature="0"
         style="stroke-width:0.96850997" />
    </g>
  </g>
</svg>
