<svg xmlns="http://www.w3.org/2000/svg" viewBox="0 0 3516.4 1000" ><g transform="translate(-15.061 -164.858)"><linearGradient id="A" gradientUnits="userSpaceOnUse" x1="738.861" y1="222.059" x2="738.861" y2="1106.509"><stop offset=".4" stop-color="#19a5f5"/><stop offset="1" stop-color="#0282dc"/></linearGradient><path fill="url(#A)" d="M461.5 764.5c0 86-56 148.4-170.4 160.8-82.4 8.8-202-1.6-258.8-8-2-9.2-3.6-20.8-3.6-30 0-74.8 40.4-92 78.4-92 39.6 0 102 6.8 148 6.8 51.2 0 66.4-17.2 66.4-33.6 0-21.6-20.4-30.4-60-38l-108.4-20.8c-90-17.2-138-79.2-138-145.2 0-80 56.8-147.2 168.8-159.6 84.4-9.2 187.6 1.2 244 8 2 9.6 3.2 18.8 3.2 28.8 0 74.8-39.6 90.8-77.6 90.8-29.2 0-74.4-5.2-126.4-5.2-52.8 0-74.4 14.4-74.4 32 0 18.8 20.8 26.4 53.6 32.4l103.2 19.2c106.4 19.2 152 79.6 152 153.6m185.2 92c0 46-18 72.4-108 72.4-12 0-22.4-.8-32.4-2.4V316.9c0-46.4 15.6-94.8 106.4-94.8 11.6 0 23.2 1.2 34 3.6v630.8zm367.6 236c12 6 36 13.6 66.4 14 52.4 1.2 80.8-18.8 102-65.6l280-623.2c-11.6-6-37.2-13.2-58-13.6-36-.8-84.4 6.4-115.2 80l-91.2 213.2-178-289.2c-11.6-3.6-39.6-8.4-60-8.4-63.2 0-98 23.2-134.4 62.4L653.1 650.9l139.2 218.8c25.6 40 59.6 60.4 114.4 60.4 36 0 66-8.4 80-14.8l-167.6-252 118.8-126 194.8 305.2-118.4 250z"/><linearGradient id="B" gradientUnits="userSpaceOnUse" x1="1611.861" y1="664.857" x2="3531.459" y2="664.857"><stop offset="0" stop-color="#0186e0"/><stop offset="1" stop-color="#54dcf7"/></linearGradient><path fill="url(#B)" d="M3465.1 164.9H1678.7c-36.8 0-66.8 30-66.8 66.8v866.4c0 36.8 30 66.8 66.8 66.8h1786c36.8 0 66.8-30 66.8-66.8V231.3a66.24 66.24 0 0 0-66.4-66.4"/><linearGradient id="C" gradientUnits="userSpaceOnUse" x1="-194.837" y1="2843.586" x2="-185.952" y2="2843.586" gradientTransform="matrix(-1.3157 -37.6778 -37.6778 1.3157 107629.3125 -10391.9141)"><stop offset="0" stop-color="#fff"/><stop offset=".515" stop-color="#fff" stop-opacity=".25"/></linearGradient><path opacity=".3" fill="url(#C)" d="M506.7 316.9v418c0-16.8 12.8-34.4 34.4-35.2h0l70.4-2.4c14-.4 35.2-10 35.6-35.6h0v-436c-10.8-2.4-22.4-3.6-34-3.6h0c-90.8.4-106.4 48.4-106.4 94.8m320 145.6L653.9 651.3l14 21.6c6 8 17.6 21.6 40.8 20.8h0l98.4-3.6c21.6-.8 35.2 8.4 43.6 19.6h0l-30.8-46.4 118.8-126 79.6 125.2c14.4 18.8 36 19.2 40.8 19.2h0c4 0 108.8-3.6 113.2-4h0c7.2-.4 15.6 3.6 22 12.8h0l-173.2-281.6c-11.6-3.6-39.6-8.4-60-8.4h0c-63.2-.4-98 22.4-134.4 62m-642.8-58c-112 12.4-168.8 79.2-168.8 159.6h0c0 41.2 18.8 80.8 54.8 109.2h0c27.2 18 55.2 24.8 82.8 29.6h0c22.8 4 76 7.6 115.6 6h0l123.2-4.4c46.4-1.6 71.2 38 68.8 77.6h0v-2c.4-5.2.8-10.4.8-15.6h0c0-74-45.6-134.4-151.6-154h0l-103.2-19.2c-33.2-5.6-53.6-13.6-53.6-32.4h0c0-17.6 22-32.4 74.4-32.4h0c52 0 97.2 5.2 126.4 5.2h0c38 0 77.6-16 77.6-90.8h0c0-10-1.2-19.2-3.2-28.8h0c-40.4-4.8-105.2-11.6-169.6-11.6h0c-25.2.4-50.4 1.6-74.4 4m1105.2 79.6l-88.4 208.4c0-.4 5.6-16.4 22.8-17.2h0l93.6-3.2c28.4-1.2 39.6-20.4 42.8-26.8h0l102.4-228.4c-11.6-6-37.2-13.2-58-13.6h0-4.4c-35.6.4-81.2 10-110.8 80.8"/><linearGradient id="D" gradientUnits="userSpaceOnUse" x1="-193.177" y1="2823.342" x2="-184.291" y2="2823.342" gradientTransform="matrix(-1.9565 -56.0258 -56.0258 1.9565 160379.75 -15702.2666)"><stop offset="0" stop-color="#fff"/><stop offset=".515" stop-color="#fff" stop-opacity=".25"/></linearGradient><path opacity=".3" fill="url(#D)" d="M1678.7 164.9c-36.8 0-66.8 30-66.8 66.8h0v480.8c0-7.2 2.8-46.8 48-51.2h0s2.4-.4 6.4-.4h0l1815.6-63c25.2-.8 49.6-19.6 49.6-50.8h0V231.7c0-36.8-30-66.8-66.8-66.8h0-1786z"/><path d="M3341.6 701h-366.7c11.8 91.6 75.9 143.9 170.5 143.9 40.4 0 72-8.9 101.6-18.7 19.7-6.9 30.6-10.8 38.4-10.8 19.8 0 34.5 18.7 29.6 61.1-41.5 18.7-105.5 38.5-172.6 38.5-146.9 0-247.5-99.6-247.5-246.5 0-140.9 105.5-243.5 234.7-243.5 144.9 0 215.9 115.3 215.9 227.7.1 14.8-1 30.6-3.9 48.3m-366.7-64.1h294.8c-3-80.8-55.2-144.9-140-144.9-75 0-142 50.3-154.8 144.9m-177.8-10.8v253.4c0 18.7-9.8 29.5-40.4 29.5-12.8 0-27.6-1.9-35.5-3.9V635.9c0-96.6-48.3-142.9-118.3-142.9-56.2 0-116.3 39.5-140.9 84.8v301.7c0 18.7-9.8 29.5-40.4 29.5-13.8 0-28.6-1.9-35.5-3.9V435.8c7-2 21.7-5 35.5-5 30.6 0 40.4 11.8 40.4 29.6v40.4c34.5-41.5 86.8-76 157.7-76 96.6.2 177.4 62.3 177.4 201.3m-997.4 43.4c0-140 103.5-244.5 242.5-244.5s242.5 104.5 242.5 244.5c0 140.9-103.5 245.5-242.5 245.5s-242.5-104.6-242.5-245.5m407.1 0c0-108.4-74-176.5-164.6-176.5-90.8 0-164.6 68-164.6 176.5 0 109.4 73.9 178.5 164.6 178.5 90.6-.1 164.6-69.1 164.6-178.5" fill="#fff"/></g></svg>