<?xml version="1.0" encoding="UTF-8"?>
<svg width="800" height="101.56" version="1.1" xmlns="http://www.w3.org/2000/svg">
	<path d="m389.06 0h406.01c2.731 0 4.9296 2.1986 4.9296 4.9296v91.697c0 2.731-2.1986 4.9296-4.9296 4.9296h-406.01z" fill="#cbcbcb" stop-color="#000000"/>
	<path d="m389.06 2.0313h404.18c2.6218 0 4.7325 2.1107 4.7325 4.7325v88.031c0 2.6218-2.1107 4.7325-4.7325 4.7325h-404.18z" fill="#fafafa" stop-color="#000000"/>
	<g fill="#002a91">
		<path d="m470.54 70.837q-3.0821 0-5.532-0.94834-2.3708-1.0274-4.0304-2.766-1.6596-1.8176-2.5289-4.1885-0.86932-2.4499-0.86932-5.3739v-18.73h-6.0061q-0.15805-0.5532-0.23708-1.4225-0.079-0.86931-0.079-1.7386 0-1.9757 0.79028-2.766 0.86932-0.79028 2.1338-0.79028h3.3982v-5.4529q0-0.94834 0.15805-1.8176 0.23709-0.86931 0.71126-1.5806 0.55319-0.71125 1.5015-1.1064 1.0274-0.39514 2.687-0.39514 1.8967 0 3.3982 0.5532v9.7995h12.961q0.39513 1.1854 0.39513 3.1611 0 1.9757-0.8693 2.766-0.79029 0.79028-2.0547 0.79028h-10.432v18.414q0 3.0031 1.4225 4.6627 1.4225 1.6596 4.1885 1.6596 1.1854 0 2.1338-0.23708 0.94833-0.23708 1.6596-0.5532 0.79028-0.31611 1.4225-0.5532 0.71126-0.23708 1.3435-0.23708 1.5015 0 2.3708 1.0274 0.8693 1.0274 0.8693 3.2402 0 0.39514 0 0.86931 0 0.39514-0.079 0.79028-2.2918 1.3435-4.8997 2.1338-2.5289 0.79028-5.9271 0.79028z"/>
		<path d="m504.29 71.074q-4.4256 0-8.0609-1.5015-3.6353-1.5806-6.2432-4.1885-2.6079-2.687-4.0304-6.3223-1.4225-3.6353-1.4225-7.8238 0-4.0304 1.4225-7.5867 1.5015-3.6353 4.1095-6.3223t6.2432-4.2675q3.6353-1.5806 7.9818-1.5806t7.9818 1.5806q3.6353 1.5806 6.1642 4.2675 2.6079 2.687 4.0304 6.3223 1.4225 3.5563 1.4225 7.5867t-1.4225 7.6657q-1.3435 3.6353-3.9514 6.3223-2.5289 2.687-6.1642 4.2675-3.6353 1.5806-8.0609 1.5806zm0-7.1125q1.9757 0 3.8724-0.79028 1.9757-0.79028 3.4772-2.3708 1.5806-1.5806 2.5289-3.9514 0.94834-2.3708 0.94834-5.611 0-2.924-0.86931-5.2949-0.86931-2.3708-2.3708-3.9514-1.4225-1.6596-3.3982-2.5289-1.9757-0.86931-4.1885-0.86931-2.1338 0-4.1095 0.86931-1.9757 0.86931-3.5563 2.5289-1.5015 1.5806-2.4499 3.9514-0.8693 2.3708-0.8693 5.2949 0 3.1611 0.94833 5.532 0.94834 2.3708 2.4499 4.0304 1.5806 1.5806 3.5563 2.3708 1.9757 0.79028 4.0304 0.79028z"/>
		<path d="m534.79 85.536q-1.1854 0-2.4499-0.15806-1.1854-0.07903-1.8176-0.23708v-52.712q0.86932-0.23708 1.7386-0.39514 0.94834-0.23708 2.0547-0.23708 2.5289 0 3.4772 1.3435 0.94834 1.2644 1.1064 3.4772l0.0791 1.5015q2.0547-2.924 5.0578-4.7417 3.0821-1.8967 7.6657-1.8967 3.1611 0 6.1642 1.3435 3.0821 1.2645 5.4529 3.7934 2.3708 2.4499 3.7934 6.1642 1.5015 3.6353 1.5015 8.377 0 5.1368-1.5806 8.8512-1.5806 3.7143-4.1095 6.1642-2.4499 2.4499-5.611 3.6353-3.0821 1.1854-6.0852 1.1854-4.2675 0-7.2706-1.6596-3.0031-1.7386-4.8207-3.8724v16.438q0 1.5806-0.94834 2.6079-0.86931 1.0274-3.3982 1.0274zm13.988-21.654q2.4499 0 4.5046-0.86931 2.0547-0.94834 3.4772-2.6079 1.4225-1.6596 2.2128-3.9514t0.79028-5.0578q0-2.4499-0.71124-4.6627-0.63223-2.2918-2.0547-4.0304-1.3435-1.8176-3.3982-2.845-2.0547-1.1064-4.8207-1.1064-2.845 0-5.532 1.4225-2.6079 1.3435-4.1095 4.1095v14.225q1.2644 2.2918 3.7934 3.8724 2.5289 1.5015 5.8481 1.5015z"/>
		<path d="m609.08 71.153q-4.8207 0-8.6141-1.5015-3.7934-1.5015-6.4013-4.1885-2.6079-2.687-4.0304-6.3223-1.3435-3.7143-1.3435-7.9818t1.4225-7.8238q1.4225-3.6353 3.8724-6.2432 2.5289-2.687 5.9271-4.1885t7.3496-1.5015q4.4256 0 7.8238 1.6596 3.3982 1.5806 5.611 4.2675 2.2918 2.687 3.3982 6.0852 1.1854 3.3982 1.1854 6.9545 0 1.9757-0.39513 3.9514h-27.423q0.5532 4.5836 3.5563 7.0335 3.0821 2.3708 8.0609 2.3708 2.1338 0 3.7143-0.31611 1.5806-0.31611 2.845-0.71125 1.2644-0.47417 2.2918-0.79028 1.0274-0.31611 2.0547-0.31611 1.4225 0 2.2918 1.2645 0.94834 1.2645 0.94834 3.3982 0 0.39514-0.079 0.86931 0 0.47417-0.0791 0.94834-2.3708 1.1064-5.9271 2.1338-3.5563 0.94834-8.0609 0.94834zm8.1399-22.997q-0.39514-4.2675-2.924-7.1125-2.4499-2.924-7.0335-2.924-4.3466 0-6.9545 2.766-2.5289 2.766-2.924 7.2706z"/>
		<path d="m645.2 70.837q-1.1064 0-2.2918-0.15806-1.1064-0.15806-2.1338-0.5532l-13.83-37.301q0.86931-0.39514 2.1338-0.71125 1.3435-0.31611 2.5289-0.31611 1.5015 0 2.687 0.39514 1.2644 0.39514 1.8967 2.1338l5.2949 15.648q1.1064 3.3192 2.0547 6.2432 1.0274 2.924 1.8967 6.2432h0.15805q0.86931-3.3192 1.8967-6.1642 1.1064-2.924 2.2128-6.3223l5.2159-15.569q0.55319-1.5806 1.7386-2.0547 1.2644-0.5532 2.845-0.5532 1.0274 0 2.2918 0.31611 1.3435 0.23708 2.1338 0.63223l-13.04 34.772q-0.71125 1.8967-1.9757 2.6079-1.2645 0.71125-3.7143 0.71125z"/>
		<path d="m685.98 71.153q-4.8207 0-8.6141-1.5015-3.7934-1.5015-6.4013-4.1885-2.6079-2.687-4.0304-6.3223-1.3435-3.7143-1.3435-7.9818t1.4225-7.8238q1.4225-3.6353 3.8724-6.2432 2.5289-2.687 5.9271-4.1885t7.3496-1.5015q4.4256 0 7.8238 1.6596 3.3982 1.5806 5.611 4.2675 2.2918 2.687 3.3982 6.0852 1.1854 3.3982 1.1854 6.9545 0 1.9757-0.39514 3.9514h-27.423q0.5532 4.5836 3.5563 7.0335 3.0821 2.3708 8.0609 2.3708 2.1338 0 3.7143-0.31611 1.5806-0.31611 2.845-0.71125 1.2644-0.47417 2.2918-0.79028t2.0547-0.31611q1.4225 0 2.2918 1.2645 0.94834 1.2645 0.94834 3.3982 0 0.39514-0.0791 0.86931 0 0.47417-0.079 0.94834-2.3708 1.1064-5.9271 2.1338-3.5563 0.94834-8.0609 0.94834zm8.1399-22.997q-0.39514-4.2675-2.924-7.1125-2.4499-2.924-7.0335-2.924-4.3466 0-6.9545 2.766-2.5289 2.766-2.924 7.2706z"/>
		<path d="m713.16 70.758q-1.1854 0-2.4499-0.15806-1.1854-0.07902-1.8176-0.23708v-37.934q0.86932-0.23708 1.7386-0.39514 0.94834-0.23708 2.0547-0.23708 2.4499 0 3.4772 1.3435 1.1064 1.2644 1.1064 3.4772l0.079 1.1064q1.9757-2.766 5.1368-4.5046 3.2402-1.8176 7.2706-1.8176 6.4013 0 10.116 4.1885 3.7143 4.1885 3.7143 12.012v19.52q0 1.5806-0.94834 2.6079-0.86931 1.0274-3.3982 1.0274-1.1854 0-2.4499-0.15806-1.1854-0.07902-1.8176-0.23708v-21.812q0-5.0578-2.2128-7.4286t-6.2432-2.3708q-2.5289 0-5.1368 1.4225-2.5289 1.4225-3.8724 3.7934v23.155q0 1.5806-0.94833 2.6079-0.86932 1.0274-3.3982 1.0274z"/>
		<path d="m767.06 70.837q-3.0821 0-5.532-0.94834-2.3708-1.0274-4.0304-2.766-1.6596-1.8176-2.5289-4.1885-0.86931-2.4499-0.86931-5.3739v-18.73h-6.0061q-0.15806-0.5532-0.23708-1.4225-0.079-0.86931-0.079-1.7386 0-1.9757 0.79028-2.766 0.86931-0.79028 2.1338-0.79028h3.3982v-5.4529q0-0.94834 0.15806-1.8176 0.23709-0.86931 0.71125-1.5806 0.5532-0.71125 1.5015-1.1064 1.0274-0.39514 2.687-0.39514 1.8967 0 3.3982 0.5532v9.7995h12.961q0.39514 1.1854 0.39514 3.1611 0 1.9757-0.86931 2.766-0.79028 0.79028-2.0547 0.79028h-10.432v18.414q0 3.0031 1.4225 4.6627 1.4225 1.6596 4.1885 1.6596 1.1854 0 2.1338-0.23708 0.94834-0.23708 1.6596-0.5532 0.79028-0.31611 1.4225-0.5532 0.71126-0.23708 1.3435-0.23708 1.5015 0 2.3708 1.0274 0.86931 1.0274 0.86931 3.2402 0 0.39514 0 0.86931 0 0.39514-0.079 0.79028-2.2918 1.3435-4.8998 2.1338-2.5289 0.79028-5.9271 0.79028z"/>
	</g>
	<linearGradient id="A" x1="1456.7" x2="1456.7" y2="500" gradientTransform="matrix(.20313 0 0 .20313 .012204 4.8724e-6)" gradientUnits="userSpaceOnUse">
		<stop stop-color="red" offset=".4"/>
		<stop stop-color="#d42321" offset="1"/>
	</linearGradient>
	<path d="m169.02 4.8724e-6h253.74c3.7375 0 6.7639 3.0264 6.7639 6.7639v88.031c0 3.7375-3.0265 6.7639-6.7639 6.7639h-253.74c-3.7375 0-6.7639-3.0264-6.7639-6.7639v-88.031c0-3.7375 3.0265-6.7639 6.7639-6.7639z" fill="url(#A)"/>
	<linearGradient id="B" x1="1459.5" x2="1450.8" y1="233.73" y2="-15.325" gradientTransform="matrix(.20313 0 0 .20313 .012204 4.8724e-6)" gradientUnits="userSpaceOnUse">
		<stop stop-color="#fff" offset="0"/>
		<stop stop-color="#fff" stop-opacity=".835" offset=".12"/>
		<stop stop-color="#fff" stop-opacity=".658" offset=".269"/>
		<stop stop-color="#fff" stop-opacity=".511" offset=".42"/>
		<stop stop-color="#fff" stop-opacity=".397" offset=".568"/>
		<stop stop-color="#fff" stop-opacity=".315" offset=".716"/>
		<stop stop-color="#fff" stop-opacity=".266" offset=".86"/>
		<stop stop-color="#fff" stop-opacity=".25" offset="1"/>
	</linearGradient>
	<path d="m167.13 50.374 0.64997-0.04063 256.69-8.9578c2.8234-0.02031 5.0781-2.3359 5.0577-5.139v-29.472c0-3.7375-3.0265-6.7639-6.7639-6.7639h-253.74c-3.7375 0-6.7639 3.0264-6.7639 6.7639v48.892c-0.0813-2.7828 2.0922-5.139 4.8749-5.2812z" fill="url(#B)" opacity=".4"/>
	<linearGradient id="C" x1="361.92" x2="361.92" y1="28.806" y2="471.22" gradientTransform="matrix(.20313 0 0 .20313 .012204 4.8724e-6)" gradientUnits="userSpaceOnUse">
		<stop stop-color="#cbcbcb" offset="0"/>
		<stop stop-color="#d4d4d4" offset=".8"/>
	</linearGradient>
	<path d="m101.48 94.27c2.1328 0.93432 4.428 1.4422 6.7436 1.4422 5.3014 0.12187 8.2061-1.9094 10.34-6.6623l28.457-63.352c-1.8485-0.83285-3.8593-1.3-5.8905-1.3609-3.6764-0.08125-8.592 0.67029-11.7 8.1451l-9.2014 21.694-18.078-29.371c-1.9907-0.52811-4.0421-0.81248-6.0937-0.85316-6.3982 0-9.9526 2.3359-13.65 6.3576l-17.57 19.175 14.118 22.222c2.6203 4.0421 6.053 6.1139 11.639 6.1139 2.7827 0.04063 5.5453-0.46718 8.1248-1.5234l-17.022-25.594 12.066-12.776 19.784 31.016zm-37.313-23.949c0 4.6718-1.8281 7.353-10.969 7.353-1.0969 0-2.1937-0.08125-3.2702-0.22344v-61.971c0-4.7124 1.6047-9.6278 10.806-9.6278 1.1578 0 2.3157 0.12187 3.4327 0.34531zm-18.85-9.3637c0 8.7348-5.7077 15.072-17.286 16.331-8.3888 0.89373-20.536-0.1625-26.304-0.81247-0.20313-0.99526-0.32499-2.0109-0.34531-3.0468 0-7.5967 4.1031-9.3432 7.9623-9.3432 4.0218 0 10.34 0.71092 15.031 0.71092 5.1796 0 6.7436-1.7469 6.7436-3.4327 0-2.1735-2.0719-3.0874-6.0937-3.8593l-11.009-2.1125c-9.1398-1.7469-14.015-8.0638-14.015-14.766 0-8.1451 5.7686-14.95 17.123-16.209 8.592-0.93432 19.053 0.12187 24.781 0.81248 0.20313 0.95466 0.30468 1.9297 0.30468 2.925 0 7.5967-4.0218 9.2424-7.8811 9.2424-2.9655 0-7.5764-0.54842-12.838-0.54842-5.3421 0-7.5764 1.4828-7.5764 3.2702 0 1.9094 2.1125 2.6812 5.464 3.2702l10.502 1.95c10.786 1.9703 15.437 8.1045 15.437 15.62z" fill="url(#C)"/>
	<linearGradient id="D" x1="365.45" x2="359.6" y1="263.25" y2="95.751" gradientTransform="matrix(.20313 0 0 .20313 .012204 4.8724e-6)" gradientUnits="userSpaceOnUse">
		<stop stop-color="#fff" offset="0"/>
		<stop stop-color="#fff" stop-opacity=".835" offset=".12"/>
		<stop stop-color="#fff" stop-opacity=".658" offset=".269"/>
		<stop stop-color="#fff" stop-opacity=".511" offset=".42"/>
		<stop stop-color="#fff" stop-opacity=".397" offset=".568"/>
		<stop stop-color="#fff" stop-opacity=".315" offset=".716"/>
		<stop stop-color="#fff" stop-opacity=".266" offset=".86"/>
		<stop stop-color="#fff" stop-opacity=".25" offset="1"/>
	</linearGradient>
	<path d="m147.04 25.695-10.42 23.196c-0.8125 1.6656-2.4985 2.7219-4.3468 2.7219l-9.5064 0.32499c-1.0359 0.06094-1.95 0.75154-2.3157 1.7265v-0.02031l8.9775-21.166c3.128-7.4748 8.0436-8.2265 11.7-8.1451 2.0515 0.06094 4.0421 0.52812 5.9108 1.3609zm-27.3 27.726-17.59-28.601c-1.9907-0.52811-4.0421-0.81248-6.0937-0.85316-6.3982 0-9.9526 2.3359-13.65 6.3576l-17.57 19.175 1.4015 2.2141c0.91398 1.3812 2.4985 2.1735 4.164 2.0922l10.014-0.3453a5.011 5.011 0 0 1 4.428 1.9906l-3.1483-4.7327 12.066-12.776 8.1045 12.696c0.99525 1.2593 2.5391 1.9703 4.1436 1.9297l11.517-0.40625c0.89381 0 1.7469 0.48749 2.2141 1.2593zm-59.006-47.55c-9.2014 0-10.806 4.9155-10.806 9.6278v42.453c0-1.95 1.5641-3.5343 3.514-3.5953l7.1295-0.24375c1.9906 0 3.6155-1.625 3.6155-3.6155v-44.28c-1.1578-0.24375-2.2953-0.36562-3.4531-0.34531zm-30.833 39.446-10.502-1.95c-3.3514-0.58905-5.464-1.3609-5.464-3.2702 0-1.7875 2.2344-3.2702 7.5764-3.2702 5.2609 0 9.8722 0.54842 12.838 0.54842 3.8593 0 7.8811-1.6453 7.8811-9.2424 0-0.975-0.10156-1.9703-0.30468-2.9249-5.728-0.71092-16.188-1.7469-24.781-0.81248-11.375 1.2593-17.144 8.0842-17.144 16.209 0.020313 4.3468 2.0719 8.45 5.5453 11.07 2.5594 1.5843 5.4437 2.6203 8.4297 3.0061 3.8999 0.52811 7.8202 0.73124 11.741 0.60936l12.533-0.44687c4.692-0.1625 7.2514 3.839 6.9873 7.8608 0-0.06094 0-0.10156 0.02031-0.1625v-0.04063c0.04063-0.52812 0.06094-1.0562 0.06094-1.5843 0-7.4748-4.6514-13.609-15.417-15.6z" fill="url(#D)" opacity=".25"/>
	<path d="m181.68 72.981c-0.60935-4.1843 0.69062-6.3779 3.0875-6.3779 2.275 0 7.8607 2.4985 15.641 2.4985 8.1858 0 11.274-2.9046 11.274-6.6826 0-2.6812-1.1984-5.0781-8.5715-7.0889l-8.4704-2.275c-9.3637-2.4985-13.061-7.1904-13.061-12.98 0-7.1702 5.6874-13.568 18.545-13.568 5.789 0 12.98 1.3 17.347 3.0061 0.79214 4.0827-0.50782 6.2764-2.9858 6.2764-2.1937 0-7.1702-2.0922-14.26-2.0922-7.5764 0-10.38 2.5798-10.38 5.9717 0 2.3766 1.0969 4.5905 7.8811 6.4795l8.6732 2.3969c9.6893 2.6812 13.568 7.1702 13.568 13.549 0 7.4952-5.789 14.157-19.744 14.157-6.1748 0.02031-13.873-1.4828-18.545-3.2702m95.705-21.632c0 15.641-10.969 24.923-23.034 24.923-7.1702 0-13.061-3.3921-16.555-8.1653v20.15c0 1.8891-1.0969 3.0874-4.2858 3.0874-1.6047 0-3.0874-0.20312-3.8796-0.38592v-63.536c0.79218-0.20313 2.275-0.40625 3.8796-0.40625 3.189 0 4.2858 1.1984 4.2858 3.0874v4.5702c3.4936-4.7733 9.3842-8.1653 16.555-8.1653 12.066 0 23.034 9.2834 23.034 24.842m-8.2673 0c0-10.461-6.967-17.652-16.352-17.652-6.3779 0-12.268 3.6968-14.95 9.08v17.245c2.6812 5.3827 8.5715 9.08 14.95 9.08 9.3637-0.02031 16.352-7.1904 16.352-17.753m15.925 0c0-14.26 10.461-24.822 24.517-24.822 14.157 0 24.618 10.562 24.618 24.822 0 14.157-10.461 24.923-24.618 24.923-14.056-0.02031-24.517-10.786-24.517-24.923m40.867 0c0-10.969-7.3936-17.652-16.352-17.652-8.8561 0-16.25 6.6826-16.25 17.652 0 10.867 7.3936 17.733 16.25 17.733 8.9578 0 16.352-6.8654 16.352-17.733m47.795-20.354c0 3.2905-1.3812 3.9812-4.7936 3.9812-6.8654 0-12.655 3.189-16.25 10.664v27.036c0 1.9906-1.0969 3.0874-4.3875 3.0874-1.4015 0-3.0062-0.20313-3.7984-0.38593v-47.978c0.79217-0.20313 2.3766-0.38593 3.7984-0.38593 3.2702 0 4.3875 1.1984 4.3875 3.0874v6.6826c4.6718-7.0889 11.761-10.664 20.637-9.4654 0.10156 0.69061 0.40622 2.1937 0.40622 3.6764m35.85 41.985c-4.1843 1.9906-8.9775 3.2905-13.752 3.2905-9.4654 0-15.154-5.5859-15.154-14.848v-41.172c0-2.0922 1.1984-3.4936 4.3875-3.4936 1.3812 0 2.9859 0.28436 3.7984 0.5078v10.359h18.627c0.10157 0.69061 0.30469 2.0922 0.30469 3.2905 0 2.8843-1.1984 3.8796-2.9859 3.8796h-15.946v26.04c0 5.5655 2.5798 8.2673 7.8607 8.2673 4.7936 0 7.4748-2.0922 9.7697-2.0922 2.3969-0.02031 3.5952 1.9703 3.0874 5.9717" fill="#fff"/>
</svg>
