<svg xmlns="http://www.w3.org/2000/svg" width="2496.267" height="807" viewBox="0 0 1872.2 605.25" ><defs><linearGradient id="A" x1="1146.811" x2="1146.811" y1="319.673" y2="32.882" gradientUnits="userSpaceOnUse"><stop stop-color="#a80000" offset="0"/><stop stop-color="#a1000c" offset=".381"/><stop stop-color="#b90019" offset="1"/></linearGradient></defs><path d="M624.21 0h1223c13.753 0 25.006 11.253 25.006 25.006v325.08c0 13.753-11.253 25.006-25.006 25.006h-1223z" fill="url(#A)"/><path d="M624.21 375.09H25.01c-13.753 0-25.006-11.253-25.006-25.006V24.694C.004 11.566 10.944.001 24.697.001h599.52zM897.744 34.998c6.061-1.793 13.082-.458 17.778 3.871 6.721 5.881 8.071 16.855 2.925 24.169-3.811 5.941-11.274 9.279-18.228 7.996-8.709-1.358-15.978-9.549-15.648-18.468-.143-7.936 5.551-15.422 13.172-17.568zm-134.572 65.113c16.03-4.351 32.975-3.743 49.2-.825 12.422 2.408 24.769 6.098 35.961 12.054.615 5.588.48 11.649-2.258 16.713-1.838 3.428-5.551 5.776-9.474 5.603-5.753-.173-10.922-2.993-16.195-4.966-11.012-4.538-22.976-6.819-34.888-6.294-11.154.555-22.249 3.976-31.445 10.382-8.499 5.768-15.257 13.945-19.661 23.201-4.988 10.539-7.059 22.331-6.714 33.943.345 10.802 2.648 21.663 7.644 31.303 5.963 11.934 16.128 21.746 28.37 27.117 15.745 6.991 34.025 6.339 50.206 1.163 6.654-2.033 12.812-5.521 19.623-7.029 4.216-1.05 9.159.27 11.679 3.968 3.638 5.213 3.758 12.032 3.105 18.115-10.554 5.266-21.956 8.754-33.478 11.162-19.098 3.766-39.396 4.321-57.932-2.348-18.715-6.504-34.941-19.788-45.075-36.801-8.829-14.635-13.262-31.798-13.127-48.848-.195-19.121 5.348-38.406 16.383-54.099 11.409-16.383 28.775-28.43 48.075-33.515zm270.868-1.365c15.28-3.263 31.753-2.175 46.05 4.343 11.162 5.086 20.493 13.93 26.367 24.679 7.314 13.12 9.729 28.332 9.939 43.184l-.038 94.65c.128 4.021-2.115 8.191-6.113 9.414-7.179 2.28-14.905 1.148-22.166-.135l-.038-102.646c-.435-13.442-3.541-27.769-13.06-37.829-8.266-8.979-20.943-12.64-32.87-12.017-12.324.728-24.086 5.896-33.845 13.3-6.068 4.658-11.477 10.299-15.34 16.93-.855 1.223-.683 2.753-.72 4.163l.038 19.256-.008 90.307c.158 4.021-2.595 7.756-6.466 8.814-7.029 2.04-14.522 1.013-21.603-.195l.015-174.103c6.804-1.455 14.012-2.573 20.853-.735 3.683.945 6.939 4.043 7.111 8.004.263 5.566-.008 11.139.113 16.713 10.749-12.767 25.347-22.571 41.782-26.097zm150.474 13.772c23.059-16.405 54.391-20.051 80.765-9.977 12.437 4.846 23.419 13.27 31.415 23.951 8.154 10.757 13.352 23.584 15.835 36.816 2.258 11.882 2.145 24.139.203 36.051l-135.682.03c1.658 12.782 6.579 25.467 15.58 34.888 7.786 8.334 18.363 13.727 29.427 16.195 16.578 3.691 33.965 1.8 50.048-3.278 5.881-1.658 11.492-4.246 17.485-5.528 4.178-1.065 8.791.975 10.937 4.696 3.188 5.378 2.805 11.904 2.378 17.905-14.68 6.474-30.26 10.967-46.177 13.037-14.477 1.898-29.345 1.68-43.567-1.823-12.489-3.045-24.439-8.626-34.416-16.78-10.547-8.491-18.776-19.736-23.989-32.21-7.396-17.823-9.166-37.799-5.986-56.769 3.893-22.729 16.72-43.995 35.743-57.204m13.022 22.706c-10.232 8.634-16.54 21.093-19.496 34.003l-.968 6.128h108.85c-.225-3.683-.638-7.344-1.328-10.974-2.49-12.429-8.911-24.371-19.068-32.18-19.593-15.167-49.53-12.977-67.991 3.023zm212.166-35.331c15.94-5.153 34.265-3.601 48.593 5.326 8.934 5.483 15.783 13.87 20.321 23.254 6.856-9.842 15.602-18.565 26.269-24.221 13.375-7.171 29.337-8.956 44.115-5.783 10.547 2.265 20.426 7.801 27.567 15.933 9.234 10.344 13.937 24.064 15.182 37.724.728 7.779.3 15.602.413 23.411l-.045 90.389c.128 4.321-2.88 8.289-7.074 9.316-7.051 1.905-14.522.953-21.596-.39l-.015-96.33c-.173-8.416.495-16.893-.698-25.257-1.095-7.456-3.773-14.882-8.821-20.583-4.621-5.281-11.229-8.559-18.093-9.699-20.268-3.773-40.942 8.799-50.056 26.659-.908 2.093-.428 4.456-.518 6.669l-.015 109.322c.21 4.238-2.415 8.469-6.616 9.572-7.194 1.988-14.83.975-22.054-.33l-.008-66.296-.195-50.948c-.548-6.969-2.138-13.997-5.693-20.081-3.436-5.971-9.009-10.704-15.527-12.97-11.207-3.938-23.944-2.573-34.34 3.03-7.749 4.096-14.447 10.172-19.271 17.485-1.335 2.235-3.226 4.441-3.181 7.186-.075 2.813.023 5.626.015 8.439l-.008 104.852c.225 4.186-2.288 8.409-6.436 9.564-7.111 2.048-14.725 1.125-21.873-.27l.008-173.9c6.489-1.433 13.307-2.58 19.901-1.088 3.788.803 7.194 3.773 7.734 7.741.645 5.063.143 10.194.3 15.28 8.101-10.457 19.046-18.926 31.715-23.006zm282.495-2.46c12.895-.923 26.022-.645 38.646 2.378 10.307 2.453 20.358 7.134 27.807 14.822 8.139 8.094 12.67 19.158 14.665 30.32 2.138 10.817 1.373 21.881 1.508 32.833l-.023 97.126c-6.714 1.238-13.712 2.1-20.448.6-4.006-.818-7.524-4.231-7.636-8.446-.12-5.401.008-10.802-.038-16.195-7.246 7.644-15.527 14.41-24.971 19.143-12.64 6.436-27.034 9.001-41.137 8.394-11.454-.473-22.984-3.308-32.795-9.369-10.787-6.579-19.151-17.178-22.541-29.397-3.593-12.872-2.415-27.387 4.628-38.909 5.086-8.319 12.985-14.567 21.573-18.986 12.489-6.361 26.359-9.467 40.191-11.237 18.13-2.235 36.471-2.108 54.684-.945-.068-7.861-.135-15.843-2.205-23.486-1.613-5.971-4.733-11.672-9.549-15.64-5.363-4.411-12.174-6.624-18.956-7.621-18.858-2.505-38.016.855-56.011 6.541-3.781 1.035-7.501 2.385-11.402 2.828-3.938.383-7.981-1.68-9.797-5.213-2.828-5.393-2.64-11.762-1.913-17.635 17.913-6.489 36.726-10.464 55.719-11.904m18.978 93.788c-13.052.788-26.322 2.243-38.519 7.216-7.006 2.933-13.772 7.576-17.253 14.53-5.258 10.434-2.715 24.071 5.986 31.895 5.963 5.633 14.005 8.589 22.076 9.422a66.53 66.53 0 0 0 36.313-7.126c9.782-4.906 18.25-12.197 25.077-20.711.6-.855 1.553-1.658 1.433-2.828l.038-32.248a339.16 339.16 0 0 0-35.151-.15zm-816.205-90.774c7.239-2.318 15.025-1.073 22.294.518l.008 163.864c.023 3.06-.728 6.414-3.256 8.401-3.173 2.528-7.456 2.933-11.364 3.053-4.733.09-9.437-.503-14.065-1.403l.008-165.371c-.09-4.021 2.49-7.876 6.376-9.061z" fill="#fff"/><path d="M421.97 333.52c4.063 2.188 12.19 4.689 22.818 4.689 17.817.313 27.507-6.564 34.696-22.505l95.648-213.18c-4.063-2.188-12.816-4.376-19.692-4.689-12.19-.313-28.757 2.188-39.384 27.507l-30.945 73.142-60.952-98.461c-4.063-1.25-13.441-2.813-20.63-2.813-21.255 0-33.445 7.814-45.948 21.255l-58.764 64.39 47.511 74.705c8.752 13.753 20.317 20.63 39.072 20.63 12.19 0 22.505-2.813 27.194-5.001l-57.201-86.27 40.635-42.823 66.578 104.4zm-125.34-80.644c0 15.629-6.252 24.693-36.884 24.693-4.064 0-7.502-.313-10.94-.938V68.461c0-15.941 5.314-32.195 36.258-32.195 3.751 0 7.814.313 11.565 1.25zm-63.452-31.257c0 29.382-19.067 50.637-58.139 55.013-28.132 3.126-69.079-.625-88.458-2.813-.625-3.126-1.25-7.189-1.25-10.315 0-25.631 13.753-31.57 26.881-31.57 13.441 0 34.696 2.188 50.637 2.188 17.504 0 22.505-5.939 22.505-11.565 0-7.502-6.877-10.315-20.63-13.128l-36.571-6.564c-30.632-5.939-46.886-27.194-46.886-49.699 0-27.506 19.38-50.324 57.513-54.7 28.757-3.126 64.078.313 83.145 2.813.625 3.438.938 6.564.938 10.002 0 25.631-13.441 30.945-26.569 30.945-10.002 0-25.318-1.875-43.135-1.875-18.129 0-25.318 5.001-25.318 10.94 0 6.251 7.189 9.065 18.442 10.94l35.321 6.564c36.259 6.877 51.575 27.507 51.575 52.825" fill="url(#A)"/><g fill="#fff"><path d="M25.006 0C11.253 0 0 11.253 0 25.006v226.3c0-20.005 16.003-36.509 36.008-37.259l1836.2-69.266V25.001c0-13.753-11.253-25.006-25.006-25.006z" opacity=".2"/><path d="M807.983 459.724c4.291-1.395 9.45-.845 12.882 2.285 5.159 4.148 6.064 12.52 1.893 17.664-2.775 3.65-7.565 5.551-12.082 4.857-6.562-.732-11.751-7.323-10.929-13.877.332-4.85 3.748-9.186 8.236-10.929zm-190.37 3.5c5.596-1.471 11.464-.513 17.098.279l-.023 54.062c5.973-7.587 14.353-13.749 24.007-15.461 10.71-1.825 22.672-.204 31.141 7.074 9.397 7.866 13.003 20.56 13.274 32.416l.045 53.413c.098 3.748-1.931 7.859-5.777 8.87-5.574 1.493-11.434.573-17.045-.226l-.008-59.153c-.211-6.056-1.471-12.512-5.589-17.188-3.711-4.261-9.413-6.283-14.956-6.411-8.719-.468-17.55 3.507-23.026 10.303-.882 1.252-2.097 2.519-2.036 4.156l-.03 59.703c.038 3.779-1.968 8.01-5.936 8.915-5.536 1.327-11.313.475-16.872-.332l.008-131.579c-.098-3.711 1.87-7.859 5.724-8.839zm-96.848 16.178c10.77-7.67 23.969-11.841 37.198-11.683 13.357-.264 26.593 2.745 38.985 7.58.837 5.898.754 13.078-4.163 17.271-3.424 3.032-8.364 2.036-12.233.535-9.556-3.462-20.009-5.068-30.063-3.024-11.343 2.338-21.352 9.986-26.85 20.145-6.396 11.502-7.58 25.304-5.37 38.11 2.044 11.487 8.176 22.619 18.146 29.037 11.404 7.369 26.133 7.881 38.872 4.035 4.005-1.086 7.821-3.364 12.105-3.009 4.284.008 8.281 2.987 9.609 7.037 1.282 3.899 1.086 8.108.641 12.135-11.781 5.053-24.572 7.685-37.401 7.64-12.859.43-25.892-2.738-36.851-9.548-13.938-8.432-23.818-22.694-28.064-38.314-3.258-12.158-3.515-25.123-.882-37.424 3.545-16.05 12.784-31.028 26.322-40.524zm436.695-2.255c5.129-1.629 10.77-1.109 15.876.407l.015 25.628 33.932.015c1.011 4.239 1.433 8.756.422 13.033-.747 3.055-3.922 4.842-6.909 4.827l-27.446.045-.008 49.039c.06 4.525 1.395 9.397 4.985 12.414 3.869 3.243 9.345 3.507 14.111 2.625 3.688-.596 6.946-2.579 10.544-3.5 3.507-.898 7.791.52 9.352 3.967 1.644 3.59 1.433 7.685 1.192 11.532-8.259 4.767-17.641 7.716-27.227 7.655-9.066.332-18.561-2.225-25.236-8.606-4.744-4.525-7.859-10.597-9.179-16.985-1.003-4.721-1.018-9.571-.98-14.375v-43.767c-5.242-.008-10.484.008-15.718-.008-.724-3.937-.988-7.995-.468-11.969.377-2.896 2.791-5.302 5.679-5.702 3.477-.468 6.999-.158 10.506-.234.113-5.641-.256-11.298.234-16.917.287-3.869 2.421-7.904 6.32-9.126zm113.901 24.851c9.232-1.667 19.3.241 26.737 6.139 4.276 3.334 7.188 8.085 9.133 13.086 5.415-9.201 13.976-17.354 24.821-19.255 7.512-1.063 15.529-.694 22.445 2.685 5.061 2.429 9.051 6.743 11.615 11.69 3.447 6.531 4.699 14.006 4.834 21.337l.008 57.343c.173 3.779-1.893 8.055-5.845 8.945-5.513 1.35-11.268.49-16.796-.309l-.008-60.721c-.083-6.004-.686-12.724-5.197-17.181-3.824-4.043-9.729-5.204-15.069-4.54-7.527.694-14.074 6.079-17.317 12.724l-.151 61.657c-.008 3.635-2.172 7.497-5.905 8.372-5.536 1.342-11.321.483-16.879-.324l.008-62.924c-.008-6.494-2.142-13.779-8.055-17.271-6.524-3.62-15.175-3.153-21.254 1.177-3.447 2.451-6.735 5.581-8.326 9.563l-.083 61.589c.038 3.537-2.089 7.331-5.717 8.161-5.543 1.388-11.351.52-16.909-.294l.015-99.578c5.581-1.493 12.007-2.896 17.347.083 4.307 2.783 4.789 8.409 4.902 13.063 5.091-7.399 12.761-13.334 21.646-15.212zm124.693 5.604c12.905-4.005 26.39-6.479 39.935-6.117 11.147-.143 23.441 1.622 31.79 9.699 7.271 7.044 9.156 17.581 9.541 27.28.385 12.58.008 25.168.196 37.741.287 8.93 1.765 17.807 4.299 26.367-4.45 1.727-9.314 2.459-14.066 1.878a10.87 10.87 0 0 1-8.221-5.687c-2.187-4.058-2.142-8.794-2.64-13.251-3.326 4.948-7.059 9.812-12.15 13.055-8.915 5.981-20.175 7.414-30.644 5.966-7.074-1.071-14.051-4.148-18.923-9.496-5.287-5.596-7.768-13.463-7.474-21.08-.068-8.666 3.251-17.588 10.008-23.23 8.274-6.976 19.361-9.36 29.927-9.752 9.443-.385 18.885.769 28.17 2.406-.128-5.981.354-12.603-3.273-17.754-2.745-3.831-7.693-5.023-12.113-5.536-10.137-1.161-20.281.867-30.002 3.605-3.65.852-8.379 1.87-11.26-1.237-3.394-4.088-3.53-9.82-3.1-14.858m30.772 49.212c-4.45.784-8.93 2.391-12.294 5.498-4.374 4.156-5.596 11.147-3.138 16.608 1.863 3.937 6.011 6.185 10.106 7.12 7.527 1.599 15.786.06 22.03-4.503 5.264-3.997 9.775-9.224 12.331-15.348.302-2.76.045-5.551.106-8.319-9.594-1.622-19.474-2.715-29.143-1.056zm-499.905-52.756c5.174-1.365 10.868-2.632 16.035-.581 3.764 1.456 5.574 5.589 5.913 9.367.241 3.243.023 6.501.121 9.744 2.949-6.909 7.338-13.644 14.164-17.241 7.391-4.216 16.336-3.771 24.421-2.24 1.116 4.88 2.097 10.37-.445 14.979-1.878 3.409-6.019 4.684-9.692 4.533-6.245-.053-12.874.181-18.35 3.552-4.043 2.21-6.976 6.117-8.281 10.506-1.441 4.721-1.275 9.722-1.275 14.602l-.008 44.551c.015 3.432-2.006 7.15-5.513 8.04-5.581 1.508-11.479.573-17.105-.219l.015-99.593zm80.021-.95c5.468-1.342 11.2-.513 16.698.302l-.015 92.323c.038 3.515-2.149 7.225-5.694 8.138-5.521 1.516-11.343.566-16.917-.204l-.015-91.652c-.234-3.839 2.051-7.942 5.943-8.907zm67.17-.762c16.08-1.757 32.333 1.056 47.613 6.049.332 4.42.468 9.284-2.067 13.138-1.358 2.149-3.892 3.319-6.396 3.19-6.554.287-12.512-2.957-18.931-3.65-5.89-.709-11.879-.973-17.777-.204-3.032.415-6.207 1.229-8.455 3.432-3.213 3.07-3.032 9.224.89 11.63 4.691 3.017 10.318 3.945 15.582 5.543 10.808 3.183 22.279 5.415 31.684 11.984 5.966 4.073 9.865 10.906 10.348 18.116.626 8.047-1.463 16.857-7.497 22.566-6.275 6.185-15.129 8.968-23.682 10.076-17.686 2.006-35.652-1.056-52.365-6.863-.649-4.744-.634-10.182 2.602-14.058 1.923-2.338 5.204-2.76 8.032-2.315 6.132.852 11.939 3.168 18.026 4.239 5.921 1.244 12.015 1.32 18.041 1.003 4.163-.437 8.726-1.237 11.796-4.344 3.364-3.809 3.047-10.898-1.622-13.553-5.687-3.326-12.248-4.586-18.486-6.464-10.325-2.949-21.291-5.415-29.837-12.294-11.072-9.005-11.245-27.785-.89-37.394 6.245-6.026 14.941-8.771 23.388-9.827zm430.896 8.462c8.726-7.022 20.364-9.066 31.3-8.952 13.025-.151 25.922 2.534 38.261 6.554.407 4.917.437 10.725-3.281 14.481-3.884 3.183-9.367 1.606-13.81.641-8.688-2.874-17.98-3.665-27.069-2.798-3.273.37-6.758 1.071-9.254 3.364-3.515 3.055-3.303 9.646.898 12.007 4.563 2.828 9.948 3.771 15.024 5.287 9.85 2.881 20.115 4.978 29.082 10.189 5.189 2.926 9.661 7.437 11.743 13.101 2.519 6.916 1.999 14.715-.603 21.525-2.459 6.124-7.61 10.868-13.538 13.591-10.106 4.94-21.684 5.4-32.718 4.857-11.977-.716-23.78-3.364-35.108-7.233-.671-4.85-.777-10.574 2.828-14.375 2.881-3.122 7.542-2.263 11.245-1.448 8.145 2.051 16.268 4.699 24.761 4.752 6.019.053 12.52.226 17.852-3.032 3.696-2.232 4.699-7.21 3.417-11.102-1.237-3.462-4.925-4.902-8.047-6.169-9.503-3.447-19.481-5.385-29.014-8.749-6.494-2.413-13.161-5.43-17.664-10.898-8.44-10.28-6.773-27.295 3.696-35.591z"/></g></svg>