<?xml version="1.0" encoding="UTF-8"?>
<svg width="800" height="261.14" version="1.1" viewBox="0 0 800 261.14" xmlns="http://www.w3.org/2000/svg">
	<defs>
		<linearGradient id="A" x1="414.37" x2="1244.6" y1="289.84" y2="289.84" gradientTransform="matrix(.65067 0 0 .65067 -9.825 -107.29)" gradientUnits="userSpaceOnUse">
			<stop stop-color="#ff0031" offset="0"/>
			<stop stop-color="#9b001f" offset="1"/>
		</linearGradient>
		<linearGradient id="B" x1="197.48" x2="194.59" y1="295.14" y2="212.24" gradientTransform="matrix(.65067 0 0 .65067 -9.825 -107.29)" gradientUnits="userSpaceOnUse">
			<stop stop-color="#fff" offset="0"/>
			<stop stop-color="#fff" stop-opacity=".25" offset=".515"/>
		</linearGradient>
		<linearGradient id="C" x1="830.55" x2="826.25" y1="276.73" y2="153.47" gradientTransform="matrix(.65067 0 0 .65067 -9.825 -107.29)" gradientUnits="userSpaceOnUse">
			<stop stop-color="#fff" offset="0"/>
			<stop stop-color="#fff" stop-opacity=".25" offset=".515"/>
		</linearGradient>
	</defs>
	<g>
		<path d="m72.615 97.475c0 13.989-9.1094 24.14-27.719 26.157-13.404 1.4315-32.859-0.26027-42.098-1.3013-0.32534-1.4965-0.5856-3.3835-0.5856-4.88 0-12.168 6.5718-14.965 12.753-14.965 6.4416 0 16.592 1.1061 24.075 1.1061 8.3286 0 10.801-2.7979 10.801-5.4656 0-3.5136-3.3184-4.9451-9.7601-6.1814l-17.633-3.3835c-14.64-2.7979-22.448-12.883-22.448-23.619 0-13.013 9.2395-23.945 27.458-25.962 13.729-1.4965 30.516 0.1952 39.691 1.3013 0.32534 1.5616 0.52054 3.0582 0.52054 4.6848 0 12.168-6.4416 14.77-12.623 14.77-4.7499 0-12.102-0.84587-20.561-0.84587-8.5889 0-12.102 2.3424-12.102 5.2054 0 3.0582 3.3835 4.2944 8.719 5.2704l16.787 3.1232c17.308 3.1883 24.725 12.948 24.725 24.986m30.126 14.965c0 7.4827-2.928 11.777-17.568 11.777-1.952 0-3.6438-0.13014-5.2704-0.39041v-99.097c0-7.5478 2.5376-15.421 17.308-15.421 1.8869 0 3.7739 0.1952 5.5307 0.5856zm59.797 38.39c1.952 0.97601 5.856 2.2123 10.801 2.2774 8.5238 0.1952 13.144-3.0582 16.592-10.671l45.547-101.31c-1.887-0.97601-6.0512-2.1472-9.4347-2.2123-5.856-0.13013-13.729 1.0411-18.739 13.013l-14.835 34.681-28.955-47.044c-1.8869-0.5856-6.4416-1.3664-9.7601-1.3664-10.281 0-15.941 3.7739-21.863 10.15l-28.109 30.712 22.643 35.592c4.1643 6.5067 9.695 9.8251 18.609 9.8251 5.856 0 10.736-1.3664 13.013-2.4075l-27.263-40.992 19.325-20.496 31.688 49.646z" fill="#ff0031"/>
		<path d="m789.2 5e-3h-518.65c-5.9862 0-10.866 4.88-10.866 10.866v140.87c0 5.9862 4.88 10.866 10.866 10.866h518.58c5.9862 0 10.866-4.88 10.866-10.866v-140.94c-0.0651-5.9862-4.815-10.801-10.801-10.801" fill="url(#A)"/>
		<path d="m79.968 24.73v67.995c0-2.7328 2.0821-5.5958 5.5958-5.7259l11.452-0.3904c2.2773-0.06507 5.7259-1.6267 5.791-5.791v-70.923c-1.7568-0.3904-3.6438-0.5856-5.5307-0.5856-14.77 0.065067-17.308 7.8731-17.308 15.421m52.054 23.684-28.109 30.712 2.2774 3.5136c0.97601 1.3013 2.863 3.5136 6.6368 3.3835l16.007-0.5856c3.5136-0.13013 5.7259 1.3664 7.0923 3.1883l-5.0102-7.5478 19.325-20.496 12.948 20.366c2.3424 3.0582 5.856 3.1232 6.6368 3.1232 0.65067 0 17.698-0.5856 18.414-0.65067 1.1712-0.06507 2.5376 0.5856 3.5787 2.0821l-28.174-45.807c-1.887-0.5856-6.4416-1.3664-9.7601-1.3664-10.281-0.06507-15.941 3.6438-21.863 10.085m-104.56-9.4347c-18.219 2.0171-27.458 12.883-27.458 25.962 0 6.7019 3.0582 13.144 8.9142 17.763 4.4246 2.928 8.9793 4.0342 13.469 4.815 3.7088 0.65067 12.363 1.2363 18.804 0.97601l20.041-0.71574c7.5478-0.26027 11.582 6.1814 11.192 12.623v-0.32534c0.06507-0.84587 0.13013-1.6917 0.13013-2.5376 0-12.037-7.4176-21.863-24.66-25.051l-16.787-3.1232c-5.4006-0.91094-8.719-2.2123-8.719-5.2704 0-2.863 3.5787-5.2704 12.102-5.2704 8.4587 0 15.811 0.84587 20.561 0.84587 6.1814 0 12.623-2.6027 12.623-14.77 0-1.6267-0.1952-3.1232-0.52054-4.6848-6.5718-0.7808-17.113-1.8869-27.588-1.8869-4.0992 0.06507-8.1985 0.26027-12.102 0.65067m179.72 12.948-14.38 33.9c0-0.06507 0.91093-2.6678 3.7088-2.7979l15.226-0.52054c4.6198-0.1952 6.4416-3.3184 6.9622-4.3595l16.657-37.153c-1.8869-0.97601-6.0512-2.1472-9.4347-2.2123h-0.71573c-5.791 0.06507-13.209 1.6267-18.024 13.144" enable-background="new" fill="url(#B)" opacity=".3"/>
		<path d="m270.55 5e-3c-5.9862 0-10.866 4.88-10.866 10.866v78.211c0-1.1712 0.45547-7.6129 7.808-8.3286 0 0 0.3904-0.06507 1.0411-0.06507l523.4-18.349c4.0992-0.13013 8.0683-3.1883 8.0683-8.2635v-43.139c0-5.9862-4.88-10.866-10.866-10.866z" enable-background="new" fill="url(#C)" opacity=".3"/>
		<path d="m377.2 18.419c-4.3595 0-8.0684 3.3835-8.0684 8.0684 0 4.0992 3.6438 7.9375 8.0684 7.9375 4.4246 0 7.9375-3.7732 7.9375-7.9375 0-4.5547-3.4479-8.0684-7.9375-8.0684zm148.22 24.141c-20.952 0-37.936 16.591-37.936 39.43 0 23.684 16.333 39.82 40.018 39.82 10.931 0 21.212-3.253 27.914-6.2461 0.78081-6.8971-1.5617-9.8906-4.75-9.8906-1.3664 0-3.0598 0.65104-6.248 1.8223-4.88 1.4965-9.8892 2.9942-16.461 2.9942-15.291-1e-5 -25.701-8.5247-27.588-23.295h59.275c0.45547-2.863 0.64974-5.4011 0.71484-7.8086 0-18.154-11.58-36.826-34.939-36.826zm-196.24 0.06445c-21.993 0-38.781 16.853-38.781 39.496 0 22.643 16.789 39.69 38.781 40.016 10.411 0 19.845-2.8625 26.547-6.0508 0.65067-6.8971-1.8879-9.7598-5.0762-9.7598-4.4246 0-9.4337 4.8789-21.016 4.8789-14.64 0-26.549-11.255-26.549-28.889 0-17.633 11.909-28.564 26.549-28.564 11.582 0 16.526 4.8789 21.016 4.8789 3.1883 0 5.7268-2.8627 5.0762-9.7598-6.5718-3.3835-16.006-6.2461-26.547-6.2461zm113.22 0c-11.517 0-19.977 5.595-25.508 12.297v-6.5703c0-2.863-1.6903-4.75-6.5703-4.75-2.2123 0-4.5554 0.52037-5.7266 0.8457v75.934c1.1712 0.32533 3.5143 0.65038 5.7266 0.65038 4.9451 0 6.5703-1.7569 6.5703-4.75v-48.736c4.0342-7.3526 13.796-13.729 22.84-13.729 11.387 0 19.129 7.4171 19.129 23.033v43.4c1.2363 0.32534 3.7095 0.65038 5.7266 0.65038 5.0102 0 6.5703-1.7569 6.5703-4.75v-40.992c0-22.513-13.077-32.468-28.758-32.533zm168.78 0c-9.3697 0-17.112 4.8794-21.992 11.451v-5.4004c0-3.1883-1.627-5.0742-6.377-5.0742-2.0171 0-4.4252 0.52037-5.7266 0.8457v75.803c1.0411 0.32534 3.5143 0.65038 5.7266 0.65038 5.0102 0 6.5723-1.7569 6.5723-4.75v-50.037c2.863-6.1814 10.214-12.428 18.803-12.428 10.281-1e-6 15.486 6.7024 15.486 17.959v48.605c1.3014 0.32534 3.6451 0.65038 5.8574 0.65038 5.0102 0 6.5703-1.7569 6.5703-4.75v-50.037c2.863-6.1814 10.216-12.428 18.805-12.428 10.085-1e-6 15.486 6.7024 15.486 17.959v48.605c1.2363 0.32534 3.7095 0.65038 5.7266 0.65038 5.0102 0 6.7012-1.7569 6.7012-4.75v-45.873c0-15.161-8.7183-27.587-25.115-27.652-11.257 0-19.326 6.1821-24.531 13.795-4.0342-8.5889-11.907-13.795-21.992-13.795zm122.78 0c-10.671 0-22.057 2.5374-29.67 5.4004-0.7808 6.7019 1.2364 9.8906 4.75 9.8906 1.2363 0 3.058-0.58566 5.4004-1.2363 4.5547-1.4965 11.257-3.1895 19-3.1895 14.965 0 18.803 7.0275 18.803 18.805v2.082c-33.77-2.2123-53.744 5.8569-53.744 24.336 0 12.233 9.4342 23.164 26.547 23.164 11.387 0 19.975-4.4907 27.197-12.104v6.377c0 3.1883 2.0176 4.8144 6.5723 4.8144 2.2123 0 4.4252-0.32505 5.7266-0.65038v-48.475c0-18.024-8.264-29.15-30.582-29.215zm-356.37 1.041c-5.1403 0-6.7012 1.887-6.7012 4.75v71.834c1.2363 0.32534 3.6444 0.64973 5.7266 0.71483 5.0102 0 6.7012-1.7569 6.7012-4.75v-71.703c-1.2363-0.32534-3.7095-0.8457-5.7266-0.8457zm147.9 9.9551c13.729 0 22.122 10.281 22.643 23.359h-47.693c2.0171-15.291 12.818-23.49 25.051-23.359zm218.55 29.922c2.6243 0.0081 5.3271 0.08308 8.0762 0.20508v14.639c-5.856 7.8081-14.64 13.078-25.051 13.078-10.216 0-15.941-6.2454-15.941-12.947 0-11.899 14.546-15.032 32.916-14.975z" fill="#fff"/>
		<path d="m285.94 244.05q-4.41 0-9.1876-0.82689-4.6857-0.91875-9.0957-2.4806-0.0919-0.45938-0.18375-0.91876 0-0.55126 0-1.0106 0-2.3888 1.0106-3.8588t2.8482-1.47q1.1025 0 2.5725 0.3675 1.5619 0.36751 3.3075 0.91876 1.8375 0.45938 4.0425 0.82689 2.205 0.3675 4.6857 0.3675 2.7563 0 4.41-0.3675 1.7456-0.45938 2.6644-1.1025 0.91876-0.73501 1.1944-1.5619 0.3675-0.91876 0.3675-1.9294 0-2.0213-1.5619-3.0319-1.5619-1.1025-5.5126-2.205l-6.5232-1.8375q-7.442-2.1132-10.382-5.145-2.94-3.1238-2.94-7.7176 0-2.4806 1.0106-4.7775 1.0106-2.2969 3.1238-4.0425 2.205-1.7456 5.6044-2.7563 3.3994-1.1025 8.2688-1.1025 7.9932 0 16.813 2.94 0 0.45938 0 0.82688 0.0919 0.27563 0.0919 0.64313 0 2.6644-1.0106 4.2263-0.91876 1.47-2.94 1.47t-5.145-0.91875q-3.0319-1.0106-7.8094-1.0106-4.41 0-6.2476 1.1025-1.7456 1.1025-1.7456 3.0319 0 0.82688 0.18375 1.47 0.27563 0.64313 0.91876 1.1944 0.73501 0.55126 1.9294 1.1025 1.2863 0.45938 3.3994 1.0106l6.8907 1.9294q7.5338 2.1132 10.566 5.2369 3.1238 3.1238 3.1238 7.9013 0 2.4806-0.91876 4.9613-0.82688 2.3888-2.94 4.3182-2.1131 1.8375-5.7882 3.0319-3.5832 1.1944-9.0957 1.1944zm31.881 17.089q-1.3781 0-2.8482-0.18375-1.3781-0.0919-2.1132-0.27563v-61.281q1.0106-0.27563 2.0213-0.45938 1.1025-0.27563 2.3888-0.27563 2.94 0 4.0425 1.5619 1.1025 1.47 1.2863 4.0425l0.0919 1.7456q2.3888-3.3994 5.8801-5.5126 3.5832-2.205 8.912-2.205 3.675 0 7.1663 1.5619 3.5832 1.47 6.3394 4.41 2.7563 2.8482 4.41 7.1663 1.7456 4.2263 1.7456 9.7388 0 5.9719-1.8375 10.29-1.8375 4.3181-4.7775 7.1663-2.8482 2.8482-6.5232 4.2263-3.5832 1.3781-7.0744 1.3781-4.9613 0-8.4526-1.9294-3.4913-2.0213-5.6044-4.5019v19.11q0 1.8375-1.1025 3.0319-1.0106 1.1944-3.9507 1.1944zm16.262-25.174q2.8482 0 5.2369-1.0106 2.3888-1.1025 4.0425-3.0319 1.6538-1.9294 2.5725-4.5938 0.91869-2.6644 0.91875-5.8801 0-2.8482-0.82687-5.4207-0.73501-2.6644-2.3888-4.6857-1.5619-2.1131-3.9507-3.3075-2.3888-1.2863-5.6044-1.2863-3.3075 0-6.4313 1.6538-3.0319 1.5619-4.7775 4.7776v16.538q1.47 2.6644 4.41 4.5019 2.94 1.7456 6.7988 1.7456zm51.726 8.4526q-5.6044 0-10.014-1.7456-4.41-1.7456-7.4419-4.8694-3.0319-3.1238-4.6857-7.3501-1.5619-4.3182-1.5619-9.2795 0-4.9613 1.6538-9.0957 1.6538-4.2263 4.5019-7.2582 2.94-3.1238 6.8907-4.8694 3.9507-1.7456 8.5445-1.7456 5.145 0 9.0957 1.9294 3.9507 1.8375 6.5232 4.9613 2.6644 3.1238 3.9507 7.0744 1.3781 3.9507 1.3781 8.0851 0 2.2969-0.45938 4.5938h-31.881q0.64313 5.3288 4.1344 8.177 3.5832 2.7563 9.3713 2.7563 2.4806 0 4.3182-0.36751 1.8375-0.3675 3.3075-0.82688 1.47-0.55125 2.6644-0.91876 1.1944-0.3675 2.3888-0.3675 1.6538 0 2.6644 1.47 1.1025 1.47 1.1025 3.9507 0 0.45938-0.0919 1.0106 0 0.55126-0.0919 1.1025-2.7563 1.2863-6.8907 2.4806-4.1344 1.1025-9.3713 1.1025zm9.4632-26.736q-0.45938-4.9613-3.3994-8.2688-2.8482-3.3994-8.177-3.3994-5.0532 0-8.0851 3.2157-2.94 3.2156-3.3994 8.4526zm36.934 26.46q-5.0532 0-9.1876-1.7456-4.1344-1.8375-7.0744-4.8694-2.94-3.1238-4.5938-7.2582-1.5619-4.1344-1.5619-8.912 0-4.7775 1.5619-8.912 1.6538-4.1344 4.5938-7.2582t7.0744-4.8694q4.1344-1.8375 9.1876-1.8375 4.9613 0 8.3607 1.0106 3.4913 1.0106 6.2476 2.5725 0.0919 0.45938 0.0919 0.91876 0 0.3675 0 0.735 0 2.5725-1.1025 4.1344-1.1025 1.47-2.8482 1.47-0.82689 0-1.8375-0.27562-0.91876-0.36751-2.1132-0.735-1.1025-0.45938-2.6644-0.82688-1.47-0.36751-3.4913-0.36751-2.6644 0-4.9613 0.91876-2.2969 0.91875-4.0425 2.7563-1.7456 1.8375-2.7563 4.5019-1.0106 2.6644-1.0106 6.0638 0 3.3994 1.0106 6.0638t2.7563 4.5019q1.8375 1.7456 4.2263 2.7563 2.3888 0.91876 5.145 0.91876 1.9294 0 3.4913-0.36751 1.5619-0.3675 2.7563-0.82688 1.2863-0.45938 2.2969-0.82688 1.0106-0.36751 1.8375-0.36751 1.8375 0 2.94 1.2863t1.1025 3.8588q0 0.45938-0.0919 1.0106 0 0.55125-0.0919 1.1025-3.2156 1.7456-6.8907 2.7563-3.5832 0.91876-8.3607 0.91876zm27.103-0.18375q-1.3781 0-2.7563-0.18375-1.3781-0.0919-2.1132-0.27563v-40.609q0-1.8375 1.1025-3.0319 1.1025-1.1944 3.9507-1.1944 1.47 0 2.8482 0.18375 1.3781 0.0919 2.1131 0.27563v40.609q0 1.8375-1.1025 3.0319-1.1025 1.1944-4.0425 1.1944zm0.18376-53.288q-2.2969 0-3.9507-1.6538-1.6538-1.6538-1.6538-3.9507 0-2.3888 1.6538-4.0425 1.6538-1.6538 3.9507-1.6538 2.3888 0 4.0425 1.6538 1.6538 1.6538 1.6538 4.0425 0 2.2969-1.6538 3.9507-1.6538 1.6538-4.0425 1.6538zm27.93 53.472q-3.5832 0-6.4313-1.0106-2.7563-1.1025-4.6857-2.94-1.8375-1.8375-2.8482-4.2263-0.91876-2.4806-0.91876-5.2369 0-3.3075 1.1025-6.0638 1.1944-2.7563 3.5832-4.6857 2.3888-2.0213 5.9719-3.1238 3.675-1.1025 8.7282-1.1025 4.7776 0 10.841 1.1025v-2.2969q0-4.5019-2.0213-6.3394-2.0213-1.9294-7.2582-1.9294-2.6644 0-4.6857 0.3675-2.0213 0.27563-3.675 0.73501-1.5619 0.3675-2.8482 0.73501-1.1944 0.27561-2.2969 0.27561-1.9294 0-2.8482-1.6538-0.91876-1.6538-0.91876-4.0425 0-0.45938 0-0.82688 0-0.45938 0.0919-0.91875 3.0319-1.0106 7.5338-1.8375 4.5019-0.91876 10.014-0.91876 5.3288 0 8.8201 1.1944 3.5832 1.1944 5.6963 3.5832 2.205 2.2969 3.0319 5.6963 0.91876 3.3075 0.91876 7.7176v9.647q0 2.7563 0 4.9613 0.0919 2.205 0.27563 4.1344 0.27562 1.9294 0.64313 3.8588 0.3675 1.8375 1.0106 4.0425-0.82688 0.36751-2.1131 0.64313-1.1944 0.27563-2.8482 0.27563-1.8375 0-3.0319-0.64313-1.1025-0.73501-1.7456-1.8375-0.64313-1.1944-0.91876-2.7563-0.18375-1.5619-0.27563-3.3075h-0.0919q-1.1025 1.7456-2.5725 3.3994-1.3781 1.5619-3.3075 2.7563t-4.41 1.8375q-2.3888 0.735-5.5126 0.735zm2.6644-8.0851q4.41 0 7.6257-2.5725 3.3075-2.5725 5.145-6.4313v-3.8588q-4.6857-0.82687-8.3607-0.82687-6.0638 0-9.0957 2.0213-2.94 1.9294-2.94 5.6044 0 2.94 2.1131 4.5019 2.1132 1.5619 5.5126 1.5619zm37.393 7.9013q-1.3781 0-2.8482-0.18375-1.3781-0.0919-2.1132-0.27563v-58.341q0-1.8375 1.0106-3.0319 1.1025-1.1944 4.0425-1.1944 1.3781 0 2.7563 0.18376 1.47 0.0919 2.205 0.27562v58.341q0 1.8375-1.1025 3.0319-1.0106 1.1944-3.9507 1.1944z" fill="#fff"/>
	</g>
</svg>
