<svg xmlns="http://www.w3.org/2000/svg" viewBox="0 0 1011.8 262.5" ><path d="M1003.9 0c4.377 0 7.905 3.563 7.905 7.905v147.01a7.94 7.94 0 0 1-7.905 7.905H797.65c-4.377 0-7.905-3.562-7.905-7.905V7.935c0-4.377 3.563-7.905 7.905-7.905h206.25" fill="#fff"/><path d="M903.77 48.789v62.666c0 2.748-1.391 4.275-5.666 4.275-1.934 0-3.732-.271-5.123-.543V86.348h-35.76v25.141c0 2.748-1.391 4.275-5.666 4.275-2.07 0-4.139-.271-5.123-.543v-62.7c0-2.646 1.391-4.275 5.802-4.275 1.934 0 3.834.271 4.953.543v27.889h35.591V52.521c0-2.646 1.527-4.275 5.938-4.275 2.036 0 3.936.271 5.055.543m73.359 33.114c0 18.796-13.13 33.012-33.691 33.012h-19.17c-4.139 0-5.666-1.662-5.666-4.275V53.335c0-2.612 1.527-4.275 5.666-4.275h19.17c20.561 0 33.691 14.08 33.691 32.843m-10.925 0c0-14.08-8.821-23.207-22.766-23.207h-14.08v46.516h14.08c13.945.034 22.766-9.093 22.766-23.309" fill="#9c001f"/><g transform="translate(26.208 .743)"><g transform="matrix(.65155 0 0 .65155 -36.045995 -108.183683)"><path d="M126.7 314.7c0 21.5-14 37.1-42.6 40.2-20.6 2.2-50.5-.4-64.7-2-.5-2.3-.9-5.2-.9-7.5 0-18.7 10.1-23 19.6-23 9.9 0 25.5 1.7 37 1.7 12.8 0 16.6-4.3 16.6-8.4 0-5.4-5.1-7.6-15-9.5L49.6 301c-22.5-4.3-34.5-19.8-34.5-36.3 0-20 14.2-36.8 42.2-39.9 21.1-2.3 46.9.3 61 2 .5 2.4.8 4.7.8 7.2 0 18.7-9.9 22.7-19.4 22.7-7.3 0-18.6-1.3-31.6-1.3-13.2 0-18.6 3.6-18.6 8 0 4.7 5.2 6.6 13.4 8.1l25.8 4.8c26.6 4.9 38 19.9 38 38.4m46.3 23c0 11.5-4.5 18.1-27 18.1-3 0-5.6-.2-8.1-.6V202.9c0-11.6 3.9-23.7 26.6-23.7 2.9 0 5.8.3 8.5.9zm91.9 59c3 1.5 9 3.4 16.6 3.5 13.1.3 20.2-4.7 25.5-16.4l70-155.7c-2.9-1.5-9.3-3.3-14.5-3.4-9-.2-21.1 1.6-28.8 20L310.9 298l-44.5-72.3c-2.9-.9-9.9-2.1-15-2.1-15.8 0-24.5 5.8-33.6 15.6l-43.2 47.2 34.8 54.7c6.4 10 14.9 15.1 28.6 15.1 9 0 16.5-2.1 20-3.7l-41.9-63 29.7-31.5 48.7 76.3z" fill="#ff0031"/><linearGradient id="A" x1="414.37" x2="1244.631" y1="289.839" y2="289.839" gradientUnits="userSpaceOnUse"><stop stop-color="#ff0031" offset="0"/><stop stop-color="#9b001f" offset="1"/></linearGradient><path d="M1228 164.9H430.9c-9.2 0-16.7 7.5-16.7 16.7v216.5c0 9.2 7.5 16.7 16.7 16.7h797c9.2 0 16.7-7.5 16.7-16.7V181.5c-.1-9.2-7.4-16.6-16.6-16.6" fill="url(#A)"/><linearGradient id="B" x1="197.483" x2="194.588" y1="295.135" y2="212.243" gradientUnits="userSpaceOnUse"><stop stop-color="#fff" offset="0"/><stop stop-color="#fff" stop-opacity=".25" offset=".515"/></linearGradient><path d="M138 202.9v104.5c0-4.2 3.2-8.6 8.6-8.8l17.6-.6c3.5-.1 8.8-2.5 8.9-8.9v-109c-2.7-.6-5.6-.9-8.5-.9-22.7.1-26.6 12.1-26.6 23.7m80 36.4l-43.2 47.2 3.5 5.4c1.5 2 4.4 5.4 10.2 5.2l24.6-.9c5.4-.2 8.8 2.1 10.9 4.9l-7.7-11.6L246 258l19.9 31.3c3.6 4.7 9 4.8 10.2 4.8 1 0 27.2-.9 28.3-1 1.8-.1 3.9.9 5.5 3.2l-43.3-70.4c-2.9-.9-9.9-2.1-15-2.1-15.8-.1-24.5 5.6-33.6 15.5M57.3 224.8c-28 3.1-42.2 19.8-42.2 39.9 0 10.3 4.7 20.2 13.7 27.3 6.8 4.5 13.8 6.2 20.7 7.4 5.7 1 19 1.9 28.9 1.5l30.8-1.1c11.6-.4 17.8 9.5 17.2 19.4v-.5c.1-1.3.2-2.6.2-3.9 0-18.5-11.4-33.6-37.9-38.5l-25.8-4.8c-8.3-1.4-13.4-3.4-13.4-8.1 0-4.4 5.5-8.1 18.6-8.1 13 0 24.3 1.3 31.6 1.3 9.5 0 19.4-4 19.4-22.7 0-2.5-.3-4.8-.8-7.2-10.1-1.2-26.3-2.9-42.4-2.9-6.3.1-12.6.4-18.6 1m276.2 19.9l-22.1 52.1c0-.1 1.4-4.1 5.7-4.3l23.4-.8c7.1-.3 9.9-5.1 10.7-6.7l25.6-57.1c-2.9-1.5-9.3-3.3-14.5-3.4h-1.1c-8.9.1-20.3 2.5-27.7 20.2" fill="url(#B)" opacity=".3" enable-background="new"/><linearGradient id="C" x1="830.555" x2="826.25" y1="276.73" y2="153.473" gradientUnits="userSpaceOnUse"><stop stop-color="#fff" offset="0"/><stop stop-color="#fff" stop-opacity=".25" offset=".515"/></linearGradient><path d="M430.9 164.9c-9.2 0-16.7 7.5-16.7 16.7v120.2c0-1.8.7-11.7 12-12.8 0 0 .6-.1 1.6-.1l804.4-28.2c6.3-.2 12.4-4.9 12.4-12.7v-66.3c0-9.2-7.5-16.7-16.7-16.7z" fill="url(#C)" opacity=".3" enable-background="new"/><g fill="#fff"><path d="M1190.1 275.3v74.5c-2 .5-5.4 1-8.8 1-7 0-10.1-2.5-10.1-7.4v-9.8c-11.1 11.7-24.3 18.6-41.8 18.6-26.3 0-40.8-16.8-40.8-35.6 0-28.4 30.7-40.8 82.6-37.4V276c0-18.1-5.9-28.9-28.9-28.9-11.9 0-22.2 2.6-29.2 4.9-3.6 1-6.4 1.9-8.3 1.9-5.4 0-8.5-4.9-7.3-15.2 11.7-4.4 29.2-8.3 45.6-8.3 34.3.1 47 17.2 47 44.9m-19.1 40.8v-22.5c-33.8-1.5-63 1.8-63 22.7 0 10.3 8.8 19.9 24.5 19.9 16 0 29.5-8.1 38.5-20.1m-709.6-25c0-34.8 25.8-60.7 59.6-60.7 16.2 0 30.7 4.4 40.8 9.6 1 10.6-2.9 15-7.8 15-6.9 0-14.5-7.5-32.3-7.5-22.5 0-40.8 16.8-40.8 43.9s18.3 44.4 40.8 44.4c17.8 0 25.5-7.5 32.3-7.5 4.9 0 8.8 4.4 7.8 15-10.3 4.9-24.8 9.3-40.8 9.3-33.8-.5-59.6-26.7-59.6-61.5m413.8 7.8h-91.1c2.9 22.7 18.9 35.8 42.4 35.8 10.1 0 17.8-2.3 25.3-4.6 4.9-1.8 7.5-2.8 9.6-2.8 4.9 0 8.5 4.6 7.3 15.2-10.3 4.6-26.1 9.6-42.9 9.6-36.4 0-61.5-24.8-61.5-61.2 0-35.1 26.1-60.6 58.3-60.6 35.9 0 53.7 28.7 53.7 56.6-.1 3.7-.4 7.6-1.1 12m-91-15.7h73.3c-.8-20.1-13.7-35.9-34.8-35.9-18.8-.2-35.4 12.4-38.5 35.9m-201.8-77.6c0-7.2 5.7-12.4 12.4-12.4 6.9 0 12.2 5.4 12.2 12.4 0 6.4-5.4 12.2-12.2 12.2s-12.4-5.9-12.4-12.2m2.7 144.1V239.3c0-4.4 2.4-7.3 10.3-7.3 3.1 0 6.9.8 8.8 1.3v110.2c0 4.6-2.6 7.3-10.3 7.3-3.2-.1-6.9-.6-8.8-1.1"/><path d="M1064.5 272.9v70.5c0 4.6-2.6 7.3-10.3 7.3-3.1 0-6.9-.5-8.8-1V275c0-17.3-8.3-27.6-23.8-27.6-13.2 0-24.5 9.6-28.9 19.1v76.9c0 4.6-2.4 7.3-10.1 7.3-3.4 0-7-.5-9-1V275c0-17.3-8-27.6-23.8-27.6-13.2 0-24.5 9.6-28.9 19.1v76.9c0 4.6-2.4 7.3-10.1 7.3-3.4 0-7.2-.5-8.8-1V233.2c2-.5 5.7-1.3 8.8-1.3 7.3 0 9.8 2.9 9.8 7.8v8.3c7.5-10.1 19.4-17.6 33.8-17.6 15.5 0 27.6 8 33.8 21.2 8-11.7 20.4-21.2 37.7-21.2 25.2.1 38.6 19.2 38.6 42.5m-325.3 7.5v63c0 4.6-2.4 7.3-10.1 7.3-3.1 0-6.9-.5-8.8-1V283c0-24-11.9-35.4-29.4-35.4-13.9 0-28.9 9.8-35.1 21.1v74.9c0 4.6-2.5 7.3-10.1 7.3-3.4 0-7-.5-8.8-1V233.2c1.8-.5 5.4-1.3 8.8-1.3 7.5 0 10.1 2.9 10.1 7.3v10.1c8.5-10.3 21.5-18.9 39.2-18.9 24.1.1 44.2 15.4 44.2 50"/></g></g><path d="M479.237 196.985l1.878 14.493 1.112 9.548c-1.039-.546-2.014-1.287-3.182-1.53-.011.551.096 1.094.183 1.636.764 4.507 1.486 9.025 2.021 13.566.071.642.184 1.282.197 1.931-.126-.047-.26-.078-.348-.185l-1.953-2.049 3.901 23.726c.214 1.259.365 2.429.623 3.631.221-.768.24-1.576.365-2.363.453-4.854.718-9.724 1.089-14.585.414.864.871 1.706 1.308 2.56.283.514.511 1.06.848 1.543l.303.056.028-6.511c.052-1.237-.046-2.476.067-3.71l.04-7.199 2.411 4.85c.123-.164.359-.302.309-.539l-.747-12.382c-.092-.829-.073-1.668-.101-2.5.193.071.286.262.393.424l2.983 4.867c.139.212.434.151.651.151 1.12-.107 2.21-.425 3.27-.794 1.586-.575 3.163-1.329 4.336-2.573.837.163 1.659.446 2.441.791l-.014 8.279c.064 1.551-.124 3.142.32 4.653.34 1.082 1.233 1.847 2.04 2.59 1.438 1.259 2.946 2.437 4.454 3.612.653.529 1.551.446 2.335.401.94-.071 1.773-.539 2.615-.918a35.158 35.158 0 0 0 2.338-1.19c1.016-.561 1.886-1.39 2.481-2.386.377-.611.466-1.337.586-2.029a28.852 28.852 0 0 0 .317-4.499c.053-2.716-.415-5.406-.673-8.102l-.053-.084c-.018-.532-.117-1.056-.188-1.583-.107-.705-.182-1.43-.489-2.082-.279-.622-.717-1.16-1.212-1.622-1.317-1.217-2.752-2.326-4.347-3.154-.674-.386-1.455-.046-2.113.202-2.297.973-4.419 2.307-6.514 3.651-.493.296-.907.755-1.05 1.322-.121.478-.366.911-.651 1.308-.774-.077-1.473-.439-2.214-.648l.954-11.335c.04-.718.221-1.486-.092-2.17-.334-.799-.922-1.448-1.445-2.124l-5.868-7.081c-.428-.063-.848.042-1.243.197l-3.912 1.406c-.185.064-.382.085-.573.112-.194-1.133.07-2.274.09-3.41-1.862-.023-3.73.086-5.593-.014-1.318-.082-2.638-.101-3.957-.155zm14.133 4.855c.175-.005.346.053.5.146.107.191.145.407.166.623.588 3.182.772 6.417.951 9.643.053.742-.013 1.496.09 2.231a125.333 125.333 0 0 1 .028 4.639c-.349.063-.703.025-1.05-.023-1.015-.101-2.032.053-3.028.23-.512.057-1.018.155-1.53.205-.12-4.412-.052-8.826-.098-13.238v-3.023c0-.252.078-.59.376-.634 1.118-.338 2.279-.508 3.415-.775a.744.744 0 0 1 .177-.025zm20.285 15.789c.149.533.013 1.09-.157 1.6-.375.821-1.042 1.461-1.762 1.981-.643.495-1.514.557-2.113 1.123a.691.691 0 0 1-.109-.418c0-.493-.035-.993.095-1.473 1.293-1.014 2.684-1.896 4.047-2.812zm-22.76 3.188c.374.018.757-.005 1.123.095 1.001.081 1.993.26 2.966.511l.098.244a5.996 5.996 0 0 0 .019.281c-.374.606-.827 1.156-1.271 1.709-.424.155-.642-.287-.901-.522-.693-.76-1.381-1.526-2.034-2.318zm23.167 2.004c.31 2.308.619 4.618.797 6.94.067.823.01 1.652.098 2.472.052.677-.071 1.349-.05 2.026-.013 1.314-.139 2.625-.295 3.929-.109.679-.17 1.382-.446 2.021-.633.364-1.263.74-1.953.985-.17.076-.356.085-.536.07-.484-.497-1.035-.961-1.375-1.574-.227-2.482-.436-4.974-.522-7.468-.103-.777-.062-1.565-.093-2.346-.136-1.96-.081-3.929-.098-5.894a13.22 13.22 0 0 1 .875-.368c.54-.254 1.103-.454 1.636-.727.651-.058 1.307-.059 1.962-.067zM453.7 202.688c.282-.073.652.008.78.296.107 1.471.063 2.956.176 4.425l.064.308c.127-.012.264-.011.369-.099.758-.52 1.501-1.061 2.274-1.557.368-.225.739-.468 1.16-.581.393-.057.682.279.88.573.573.849 1.007 1.782 1.444 2.707.492 1.139 1.069 2.261 1.347 3.478.144.47-.34.741-.65.978-1.558 1.091-3.163 2.12-4.825 3.049-.383.244-.574-.349-.834-.533a23.812 23.812 0 0 1 1.007-1.124c.137-.124.048-.322.019-.475l-1.165-3.897-.045-.273c-.363-.092-.736-.034-1.066.135l-.121.229c-.077 2.062.01 4.126-.01 6.189l.011 7.638c.086.707.036 1.42.048 2.131l.048 5.523c.325.81 1.115 1.28 1.616 1.95-.459.024-.915-.025-1.366-.094-.671-.011-1.349-.062-2.014-.067-1.08-.103-2.175-.03-3.245.115-.483.061-.976.009-1.454.111-.624.001-1.289.119-1.875-.154-.305-.139-.613-.277-.928-.393l.062-.147c.565-.328 1.054-.768 1.524-1.216.414-.42.837-.887.953-1.485.346-1.656.386-3.352.494-5.034l.138-14.714c-.015-.185.04-.393-.055-.561.159-.418.034-.906.073-1.352a23.06 23.06 0 0 0-.832.26l-.378.013-.178-.284c.19-.247.442-.43.674-.636l4.963-4.906c.235-.276.566-.442.913-.527zm-49.291 1.098c.955.09 1.907.268 2.873.249 1.572.08 3.15.093 4.721-.028 1.254-.048 2.501-.266 3.756-.235-.06.402-.454.59-.641.919-.551.927-.995 1.93-1.239 2.982a17.989 17.989 0 0 0-.149 2.332l.038 12.445c-.043.193.165.271.317.199 2.392-.596 4.869-.78 7.328-.707.884.038 1.805-.035 2.657.24l-.048.29c-.267.098-.546.189-.761.382-.674.558-1.29 1.184-1.924 1.787-.159.174-.423.347-.342.622.245 1.371.303 2.768.571 4.135l1.627 5.702c.203 0 .392-.074.53-.227.296-.304.652-.542.967-.826.117-1.236.16-2.481.192-3.723.084-.856.054-1.717.081-2.575.033-4.512-.055-9.035-.6-13.518-.25.059-.504.116-.735.23a29.25 29.25 0 0 0-3.445 1.82c-.298.174-.576.418-.685.756-.25.781-.18 1.618-.137 2.425l-.54.174c-.942-1.517-1.918-3.029-2.585-4.693-.191-.57-.488-1.15-.375-1.768.459-.219.833-.57 1.252-.852 1.674-1.184 3.438-2.263 5.338-3.046.258-.088.621-.268.834-.003 1.759 1.763 3.462 3.581 5.148 5.413.908 1.015 1.903 2.072 2.176 3.457.258 1.616.296 3.255.303 4.889-.015 1.869.047 3.742-.088 5.607l-.053 4.303c.644.293 1.391.32 2.07.14-.029.206-.189.348-.332.483l-2.854 2.531c-.656.55-.982 1.385-1.635 1.939-.696.613-1.74.666-2.59.393-.87-.451-.868-1.542-.938-2.39-1.135.816-2.248 1.665-3.356 2.516-.523.404-1.216.175-1.798.063-.426-.118-.97-.285-1.087-.772l-1.472-4.475c-.536-1.675-1.164-3.327-1.524-5.053-.154-.554.12-1.096.395-1.559.742-1.196 1.807-2.136 2.815-3.097-1.57.3-3.205.55-4.607 1.366l.023 11.584c.075 1.648-.01 3.298.052 4.946l.065 5.825c.116 1.515.359 3.163 1.41 4.338.378.469.992.626 1.413 1.042a2.887 2.887 0 0 1-.217.508c-.19.001-.378.012-.566-.012-2.085-.338-4.187-.581-6.298-.666-1.987-.015-3.983-.09-5.96.149-.099-.325-.428-.579-.404-.93 1.101-.616 2.162-1.473 2.596-2.702.55-1.559.622-3.231.758-4.863.14-2.956.184-5.917.1-8.875-.075-1.981-.058-3.972-.308-5.942-2.067 1.618-4.625 2.434-7.154 2.995l.105 12.336c.042.863-.04 1.733.062 2.593.252.943 1.179 1.427 1.952 1.891.178.118.464.372.304.587-.322.04-.619-.116-.925-.182-.985-.212-1.991-.277-2.991-.366-3.327-.223-6.665-.279-9.999-.298-.119-.036-.448-.151-.202-.26l.035-.384c1.189-.469 2.384-1.152 3.045-2.289.403-.679.413-1.488.481-2.25.093-1.498.066-2.999.124-4.499l-.073-6.227c-1.577-.731-3.157-1.461-4.695-2.272-1.072-.529-1.832-1.501-2.483-2.473-.546-.859-1.036-1.759-1.419-2.705v-.23c1.715-.778 3.604-1.047 5.455-1.301 0 .183.054.424-.141.53-1.153.69-2.371 1.273-3.495 2.015.377.441.848.785 1.318 1.118 1.3.9 2.708 1.633 4.131 2.317.389.174.771.41 1.21.414.07-.726.025-1.458.033-2.187-.05-1.493-.011-2.991-.124-4.481-.037-1.125 0-2.253-.101-3.373l-.397-11.236c-.229-1.174-1.259-1.975-2.341-2.34.019-.223.153-.448.384-.498.38-.035.762.006 1.142.03.521.076 1.047.028 1.572.039.783-.01 1.57.036 2.352-.052l3.592-.058c1.024-.08 2.052-.094 3.079-.099l-.109.661c-.636.326-1.039.971-1.209 1.649-.124.704-.107 1.422-.116 2.135l.063 5.612c.039 1.572.013 3.147.119 4.716l.071 3.598c.091 1.528.092 3.062.205 4.592.739-.102 1.403-.474 2.062-.799 1.787-.986 3.528-2.08 5.112-3.371.017-6.361-.159-12.726-.663-19.065-.024-.663-.553-1.139-1.113-1.407-.312-.126-.407-.46-.371-.769zm124.983-.13c.341-.065.424.303.413.565l.094 4.666c.052.915-.035 1.842.098 2.748 1.087-.012 2.173.037 3.261.033l.067.594c.093.325.042.669.139.992a22.178 22.178 0 0 1 .091 1.058l-3.135.05c-.145-.01-.281.031-.41.082-.197 3.158-.035 6.322-.1 9.484l-.262 8.205c-.092.402-.038.819-.067 1.228l-.394 9.312c-.046.791-.214 1.702.303 2.381.839.849 1.809 1.564 2.804 2.218-.206.233-.394.497-.652.674-.202.001-.375-.127-.552-.197-2.051-1.018-4.123-2-6.1-3.159-.503-.295-.996-.643-1.313-1.142-.312-.458-.401-1.023-.405-1.565l.195-8.754c.097-2.886.416-5.757.474-8.644.057-2.989.03-5.994-.274-8.966-.023-.434-.082-.864-.173-1.289-1.594.007-3.187-.023-4.78-.023-.02-.281-.032-.561-.01-.842 1.932-1.077 3.709-2.422 5.376-3.874a31.35 31.35 0 0 0 4.401-4.811c.277-.364.543-.744.911-1.025zm-92.298 2.072c.255-.14.497-.385.81-.357.458.075.869.303 1.301.458.241 1.102.239 2.255.414 3.37l.04.393.159.12c.597-.481 1.261-.871 1.906-1.283.596-.373 1.293-.699 2.014-.588.456.11.699.557.918.93.492.996.917 2.024 1.325 3.057.462 1.121.957 2.248 1.18 3.444-.027.38-.206.733-.539.934-1.469.954-2.972 1.853-4.477 2.749-.168.093-.331.223-.533.208a2.43 2.43 0 0 0-.402-.518c.365-.36.702-.748 1.041-1.131l-.092-.064c-.096-.579-.287-1.137-.439-1.704l-1.075-3.736c-.074-.346-.487-.749-.817-.433-.093.363-.034.742-.031 1.112l.238 7.653c.129.884.01 1.792.147 2.676.102 1.656.325 3.303.419 4.96.228 2.019.216 4.067.538 6.078.205.56.796.833 1.291 1.089l.128.218-.08.263c-3.127.076-6.257.062-9.387.065-.332 0-.667.017-.997-.038.173-.429.473-.81.875-1.044.405-.228.814-.469 1.137-.807.118-.117.165-.277.151-.439l-.01-9.545c.035-.451-.08-.895-.061-1.346l-.054-7.195c-.129-1.4-.013-2.817-.203-4.213-1.139-.001-2.288-.055-3.421.089-.2-.054-.504-.173-.524-.409zm102.22 1.045c.153-.302.317-.626.643-.777l.293.162c.116.946.094 1.901.147 2.85.084.365.038.742.064 1.114l.258 5.526c.532-.012 1.068.013 1.6-.034.375.072.749-.037 1.126-.03a36.677 36.677 0 0 0 1.766-.02c-.036.74.015 1.494-.129 2.224-1.419.057-2.84.122-4.255.248l.015 5.003c.074.25.042.513.047.77l.054 8.309c.107 1.268.047 2.545.09 3.818l.144 6.95c.078 1.256.036 2.52.17 3.773l3.554 1.874c.322.127.635.468.998.361.802-.544 1.515-1.209 2.253-1.834.185-.116.066-.337.023-.496-1.217-.375-2.485-.537-3.724-.814-.43-.118-1.006-.084-1.237-.542.804-.217 1.647-.093 2.468-.064l5.717.339c.201.038.516.042.525.328.045.373-.319.541-.54.761-.884.807-1.669 1.712-2.504 2.567-.502.508-.831 1.181-1.447 1.57-.213.182-.518.156-.766.082-2.025-.626-4.036-1.305-6.008-2.079-1.814-.725-3.666-1.454-5.247-2.626-.212-.2-.504-.393-.52-.712-.174-2.995-.129-5.995-.134-8.994l.074-3.48c.015-4.99-.112-9.978-.216-14.966a17.67 17.67 0 0 1-2.411-.03c-.35-.013-.521-.445-.386-.732a2.42 2.42 0 0 1 .376-.462c1.566-1.583 3.035-3.27 4.294-5.112 1.08-1.521 1.986-3.158 2.822-4.824zm27.818 4.461c.314-.236.651.067.701.393.186.986.176 1.997.342 2.986l3.501-2.114c.256-.156.46-.42.777-.458.211-.039.505-.028.629.183.523.731.967 1.517 1.436 2.283.725 1.27 1.467 2.538 2 3.903.189.446.219.951.129 1.423-.339.688-1.015 1.104-1.566 1.606l-4.796 3.773c-.151-.231-.359-.413-.557-.598.433-.666.945-1.279 1.4-1.93.033-.151-.018-.302-.057-.446l-1.74-5.56c-.414.287-.83.576-1.259.842l.273 10.118c.118 1.154.048 2.326.115 3.487.115.998.021 2.015.13 3.015.057 2.554.192 5.104.313 7.655.11.882.779 1.558 1.51 1.995.923.552 1.963.879 3.006 1.119.18.048.363.08.548.132.434.057.867.147 1.307.191l-.025.741c-.949.054-1.898-.011-2.846.005-.409-.026-.822.02-1.221-.062a16.05 16.05 0 0 1-3.819-.446c-1.251-.276-2.485-.617-3.709-.992-1.542-.453-3.156-.791-4.769-.598-.107-.248-.218-.495-.287-.754 1.348-.119 2.282-1.266 2.988-2.313.549-1.127.548-2.418.573-3.644.037-3.52-.047-7.04-.07-10.56-.099-.924-.034-1.866-.073-2.796.01-1.942-.134-3.877-.1-5.82-.558-.031-1.112.076-1.669.054l-.027-.409c.243-.367.45-.767.787-1.06zm-14.802 2.726a3.875 3.875 0 0 0-.887.12l-6.379 5.096c-.23 1.077-.252 2.192-.399 3.281-.012.723-.293 1.413-.286 2.136.127 2.953.097 5.908.138 8.863-.011.723-.244 1.418-.272 2.139.42.437.807.905 1.224 1.347 1.495 1.538 2.995 3.1 4.768 4.322.276.214.634.256.968.317.853.078 1.714.178 2.571.048.415.026.729-.29.96-.598.779-1.145 1.662-2.216 2.504-3.314.449-.63 1.005-1.193 1.341-1.895-.739-1.066-1.298-2.278-2.2-3.216l-.41.036c-.076.701-.241 1.386-.393 2.074-.437 1.79-.912 3.587-1.715 5.254-.091.167-.188.504-.435.337-1.242-.698-2.156-1.969-2.475-3.354-.193-1.153-.13-2.329-.227-3.491l-.059-4.372c-.01-.189.017-.391-.078-.561.11-.173.065-.374.023-.558.052-.791-.191-1.651.222-2.388 1.189-.013 2.334.341 3.483.606l2.06.525c.145.044.289.076.441.112l1.501.382c.181.04.42.095.553-.082.998-.93 1.613-2.18 2.24-3.368-.216-.745-.545-1.464-.8-2.2l-1.134-3.017c-.237-.573-.404-1.175-.663-1.737-.762-.481-1.582-.875-2.369-1.319l-.887-.455c-.78-.385-1.549-.818-2.388-1.058-.178-.011-.358-.016-.539-.011zm-.197 1.967c.211.005.395.112.438.362l1.325 3.36 1.706 4.255a6.085 6.085 0 0 0-.01.286c-.685.035-1.367-.094-2.043-.168-.97-.056-1.934-.194-2.902-.275.01-1.145.126-2.284.168-3.427.139-1.341.036-2.758.612-4.011.112-.229.427-.388.699-.382zm-83.65.326c.951.187 1.931.063 2.892.175.861.017 1.715.11 2.567.218.479.017.967.04 1.439-.072l-.031.284c-.407.665-.798 1.347-1.092 2.071-1.042 2.25-2.26 4.41-3.468 6.574-1.087 1.918-2.053 3.901-3.123 5.828-2.822 5.071-5.899 10.015-9.425 14.628-1.918.037-3.835-.128-5.739-.355-1.807-.282-3.608-.638-5.365-1.153a29.51 29.51 0 0 1-1.796-.565c-.414-.149-.833-.285-1.24-.451-.426-.162-.842-.342-1.259-.521-.745-.325-1.471-.686-2.183-1.071-.05-.418.258-.785.437-1.143.752-1.183 1.749-2.181 2.762-3.139 1.464.099 2.923.274 4.385.395.363.105.791-.046 1.11.192-.035.208-.252.227-.408.285l-3.618.99c-.254.047-.287.34-.388.533-.194.53-.457 1.058-.472 1.633.864.413 1.842.473 2.774.638 3.065.415 6.177.605 9.26.292l3.424-5.459c.339-.496.62-1.032.997-1.501.173-.216.071-.518.025-.762-.787-2.773-1.656-5.522-2.51-8.275l-1.117-3.484-.564-1.685c-.21-.569-.377-1.156-.643-1.703-.325-.402-.889-.485-1.373-.535a1.262 1.262 0 0 1 .212-.414 24.76 24.76 0 0 0 1.161-.039c1.226-.121 2.469-.058 3.699-.143 1.599.023 3.19-.202 4.783-.254-.31.671-1.23.59-1.631 1.174-.202.226-.228.546-.147.829l1.922 7.134c.098.267.121.585.353.779 1.131-1.769 2.111-3.629 3.147-5.456l1.222-2.306c.186-.378.203-.808.351-1.199.14-.455.291-.907.451-1.355l.235-.586c-.777-.074-1.438-.542-2.017-1.029z" fill="#fff"/></g></svg>