<svg xmlns="http://www.w3.org/2000/svg" viewBox="0 0 1229.8 250" ><g transform="translate(-15.061 -164.858)"><path fill="#ff0031" d="M126.6 314.8c0 21.5-14 37.1-42.6 40.2-20.6 2.2-50.5-.4-64.7-2-.5-2.3-.9-5.2-.9-7.5 0-18.7 10.1-23 19.6-23 9.9 0 25.5 1.7 37 1.7 12.8 0 16.6-4.3 16.6-8.4 0-5.4-5.1-7.6-15-9.5l-27.1-5.2C27 296.8 15 281.3 15 264.8c0-20 14.2-36.8 42.2-39.9 21.1-2.3 46.9.3 61 2 .5 2.4.8 4.7.8 7.2 0 18.7-9.9 22.7-19.4 22.7-7.3 0-18.6-1.3-31.6-1.3-13.2 0-18.6 3.6-18.6 8 0 4.7 5.2 6.6 13.4 8.1l25.8 4.8c26.6 4.8 38 19.9 38 38.4m46.3 23c0 11.5-4.5 18.1-27 18.1-3 0-5.6-.2-8.1-.6V202.9c0-11.6 3.9-23.7 26.6-23.7 2.9 0 5.8.3 8.5.9v157.7zm91.9 59c3 1.5 9 3.4 16.6 3.5 13.1.3 20.2-4.7 25.5-16.4l70-155.8c-2.9-1.5-9.3-3.3-14.5-3.4-9-.2-21.1 1.6-28.8 20L310.8 298l-44.5-72.3c-2.9-.9-9.9-2.1-15-2.1-15.8 0-24.5 5.8-33.6 15.6l-43.2 47.2 34.8 54.7c6.4 10 14.9 15.1 28.6 15.1 9 0 16.5-2.1 20-3.7l-41.9-63 29.7-31.5 48.7 76.3-29.6 62.5z"/><linearGradient id="A" gradientUnits="userSpaceOnUse" x1="414.201" y1="289.858" x2="1244.849" y2="289.858"><stop offset="0" stop-color="#ff0031"/><stop offset="1" stop-color="#9b001f"/></linearGradient><path fill="url(#A)" d="M1228.3 164.9H430.9c-9.2 0-16.7 7.5-16.7 16.7v216.6c0 9.2 7.5 16.7 16.7 16.7h797.3c9.2 0 16.7-7.5 16.7-16.7V181.5c-.1-9.2-7.4-16.6-16.6-16.6"/><linearGradient id="B" gradientUnits="userSpaceOnUse" x1="197.673" y1="296.29" x2="194.751" y2="212.596"><stop offset="0" stop-color="#fff"/><stop offset=".515" stop-color="#fff" stop-opacity=".25"/></linearGradient><path opacity=".3" fill="url(#B)" d="M137.9 202.9v104.5c0-4.2 3.2-8.6 8.6-8.8h0l17.6-.6c3.5-.1 8.8-2.5 8.9-8.9h0v-109c-2.7-.6-5.6-.9-8.5-.9h0c-22.7.1-26.6 12.1-26.6 23.7m80 36.4l-43.2 47.2 3.5 5.4c1.5 2 4.4 5.4 10.2 5.2h0l24.6-.9c5.4-.2 8.8 2.1 10.9 4.9h0l-7.7-11.6 29.7-31.5 19.9 31.3c3.6 4.7 9 4.8 10.2 4.8h0c1 0 27.2-.9 28.3-1h0c1.8-.1 3.9.9 5.5 3.2h0l-43.3-70.4c-2.9-.9-9.9-2.1-15-2.1h0c-15.8-.1-24.5 5.6-33.6 15.5M57.2 224.8c-28 3.1-42.2 19.8-42.2 39.9h0c0 10.3 4.7 20.2 13.7 27.3h0c6.8 4.5 13.8 6.2 20.7 7.4h0c5.7 1 19 1.9 28.9 1.5h0l30.8-1.1c11.6-.4 17.8 9.5 17.2 19.4h0v-.5c.1-1.3.2-2.6.2-3.9h0c0-18.5-11.4-33.6-37.9-38.5h0l-25.8-4.8c-8.3-1.4-13.4-3.4-13.4-8.1h0c0-4.4 5.5-8.1 18.6-8.1h0c13 0 24.3 1.3 31.6 1.3h0c9.5 0 19.4-4 19.4-22.7h0c0-2.5-.3-4.8-.8-7.2h0c-10.1-1.2-26.3-2.9-42.4-2.9h0c-6.3.1-12.6.4-18.6 1m276.3 19.9l-22.1 52.1c0-.1 1.4-4.1 5.7-4.3h0l23.4-.8c7.1-.3 9.9-5.1 10.7-6.7h0l25.6-57.1c-2.9-1.5-9.3-3.3-14.5-3.4h0-1.1c-8.9.1-20.3 2.5-27.7 20.2"/><linearGradient id="C" gradientUnits="userSpaceOnUse" x1="830.824" y1="278.694" x2="826.478" y2="154.233"><stop offset="0" stop-color="#fff"/><stop offset=".515" stop-color="#fff" stop-opacity=".25"/></linearGradient><path opacity=".3" fill="url(#C)" d="M430.9 164.9c-9.2 0-16.7 7.5-16.7 16.7h0v120.2c0-1.8.7-11.7 12-12.8h0s.6-.1 1.6-.1h0l804.7-28.2c6.3-.2 12.4-4.9 12.4-12.7h0v-66.3c0-9.2-7.5-16.7-16.7-16.7h0l-797.3-.1z"/><g fill="#fff"><path d="M1190.4 275.3v74.5c-2 .5-5.4 1-8.8 1-7 0-10.1-2.5-10.1-7.4v-9.8c-11.1 11.7-24.3 18.6-41.8 18.6-26.3 0-40.8-16.8-40.8-35.6 0-28.4 30.7-40.8 82.6-37.4V276c0-18.1-5.9-28.9-28.9-28.9-11.9 0-22.2 2.6-29.2 4.9-3.6 1-6.4 1.9-8.3 1.9-5.4 0-8.5-4.9-7.3-15.2 11.7-4.4 29.2-8.3 45.6-8.3 34.3.1 47 17.2 47 44.9m-19.1 40.9v-22.5c-33.8-1.5-63 1.8-63 22.7 0 10.3 8.8 19.9 24.5 19.9 16 0 29.5-8.1 38.5-20.1m-709.9-25c0-34.8 25.8-60.7 59.6-60.7 16.2 0 30.7 4.4 40.8 9.6 1 10.6-2.9 15-7.8 15-6.9 0-14.5-7.5-32.3-7.5-22.5 0-40.8 16.8-40.8 43.9s18.3 44.4 40.8 44.4c17.8 0 25.5-7.5 32.3-7.5 4.9 0 8.8 4.4 7.8 15-10.3 4.9-24.8 9.3-40.8 9.3-33.8-.5-59.6-26.7-59.6-61.5m414 7.8h-91.1c2.9 22.7 18.9 35.8 42.4 35.8 10.1 0 17.8-2.3 25.3-4.6 4.9-1.8 7.5-2.8 9.6-2.8 4.9 0 8.5 4.6 7.3 15.2-10.3 4.6-26.1 9.6-42.9 9.6-36.4 0-61.5-24.8-61.5-61.2 0-35.1 26.1-60.6 58.3-60.6 35.9 0 53.7 28.7 53.7 56.6-.1 3.7-.4 7.6-1.1 12m-91.1-15.8h73.3c-.8-20.1-13.7-35.9-34.8-35.9-18.7-.2-35.4 12.4-38.5 35.9m-201.8-77.6c0-7.2 5.7-12.4 12.4-12.4 6.9 0 12.2 5.4 12.2 12.4 0 6.4-5.4 12.2-12.2 12.2s-12.4-5.9-12.4-12.2m2.7 144.2V239.3c0-4.4 2.4-7.3 10.3-7.3 3.1 0 6.9.8 8.8 1.3v110.2c0 4.6-2.6 7.3-10.3 7.3-3.2 0-6.9-.5-8.8-1"/><path d="M1064.8 272.9v70.5c0 4.6-2.6 7.3-10.3 7.3-3.1 0-6.9-.5-8.8-1V275c0-17.3-8.3-27.6-23.8-27.6-13.2 0-24.5 9.6-28.9 19.1v76.9c0 4.6-2.4 7.3-10.1 7.3-3.4 0-7-.5-9-1V275c0-17.3-8-27.6-23.8-27.6-13.2 0-24.5 9.6-28.9 19.1v76.9c0 4.6-2.4 7.3-10.1 7.3-3.4 0-7.2-.5-8.8-1V233.2c2-.5 5.7-1.3 8.8-1.3 7.3 0 9.8 2.9 9.8 7.8v8.3c7.5-10.1 19.4-17.6 33.8-17.6 15.5 0 27.6 8 33.8 21.2 8-11.7 20.4-21.2 37.7-21.2 25.2.1 38.6 19.2 38.6 42.5m-325.5 7.5v63c0 4.6-2.4 7.3-10.1 7.3-3.1 0-6.9-.5-8.8-1V283c0-24-11.9-35.4-29.4-35.4-13.9 0-28.9 9.8-35.1 21.1v74.9c0 4.6-2.5 7.3-10.1 7.3-3.4 0-7-.5-8.8-1V233.2c1.8-.5 5.4-1.3 8.8-1.3 7.5 0 10.1 2.9 10.1 7.3v10.1c8.5-10.3 21.5-18.9 39.2-18.9 24.1.1 44.2 15.4 44.2 50"/></g></g></svg>