<?xml version="1.0" encoding="UTF-8"?>
<svg width="800" height="244.41" version="1.1" xmlns="http://www.w3.org/2000/svg">
	<defs>
		<linearGradient id="A" x1="414.37" x2="1244.6" y1="289.84" y2="289.84" gradientTransform="matrix(.65067 0 0 .65067 -9.8251 -107.3)" gradientUnits="userSpaceOnUse">
			<stop stop-color="#ff0031" offset="0"/>
			<stop stop-color="#9b001f" offset="1"/>
		</linearGradient>
		<linearGradient id="B" x1="197.48" x2="194.59" y1="295.14" y2="212.24" gradientTransform="matrix(.65067 0 0 .65067 -9.8251 -107.3)" gradientUnits="userSpaceOnUse">
			<stop stop-color="#fff" offset="0"/>
			<stop stop-color="#fff" stop-opacity=".25" offset=".515"/>
		</linearGradient>
		<linearGradient id="C" x1="830.55" x2="826.25" y1="276.73" y2="153.47" gradientTransform="matrix(.65067 0 0 .65067 -9.8251 -107.3)" gradientUnits="userSpaceOnUse">
			<stop stop-color="#fff" offset="0"/>
			<stop stop-color="#fff" stop-opacity=".25" offset=".515"/>
		</linearGradient>
	</defs>
	<path d="m42.599 179.36-23.082 62.651h26.979l5.9962-16.487h36.572l6.894-18.287h-36.271l2.696-7.195h36.273l7.7918-20.682zm293.07 0c-2.5454 0-5.3739 0.28203-8.485 0.56485-3.111 0.28284-6.2217 0.84936-9.0499 1.9807-2.8281 1.1313-5.3739 2.5439-7.6365 4.5237-1.9798 1.9798-3.3925 4.5255-3.6751 7.6365 0 1.6969-9e-4 3.9589 0.5648 6.5043 0.5656 2.5454 1.4143 5.0927 2.5455 7.3553-2.2625 0.56564-4.2417 1.1314-6.5043 1.697-1.9797 0.56565-4.2435 1.1297-6.2232 1.9782-1.9798 0.84847-3.9589 1.6978-5.6558 2.8292-1.697 1.1313-3.3933 2.2635-4.8074 3.6776-1.6969 1.4141-2.8292 3.1104-3.6776 4.8073-0.8486 1.9798-1.4141 3.9581-1.697 6.2207-0.2827 2.8282 0 5.0919 0.84841 7.0717 0.8486 1.9797 1.9808 3.676 3.6777 4.8073 1.4141 1.1313 3.3933 1.9798 5.6559 2.5455 2.2626 0.56564 4.5238 0.8485 7.0691 0.8485 1.9799 0 3.6786-0.28203 5.6584-0.56484 1.9797-0.28284 3.676-0.85017 5.6558-1.4158 1.9798-0.84846 3.6777-1.4134 5.3747-2.2618 1.6969-0.84846 3.3931-1.697 4.8073-2.5455l1.9782 4.5261h24.042l-5.6559-14.708 20.929-14.422h-23.758l-2.2618 1.697-1.6971-4.5262c3.6766-1.4141 7.0702-2.8284 9.8984-4.2425 2.8282-1.4141 5.0893-2.8284 7.0692-4.2425 1.9797-1.4141 3.3949-2.8292 4.526-4.5262 0.8486-1.6969 1.4141-3.3916 1.6971-5.0885 0.2829-2.8282-0.2821-5.0911-1.4134-6.788-1.4141-1.6969-3.1111-3.1128-5.091-3.9613-1.9797-0.84847-4.5262-1.4142-7.0717-1.697-2.5453-0.28284-5.0909-0.28119-7.6364-0.28119zm66.511 0-23.082 62.651h26.979l5.9938-16.487h36.273l6.8941-18.287h-36.271l2.6959-7.195h36.572l7.7943-20.682zm-68.773 8.2014c1.4142 0 2.8293 0.2837 3.6777 1.1322 0.8485 0.56565 1.4127 1.6971 1.1297 3.394 0 0.84847-0.2829 1.697-0.8485 2.5455s-1.4125 1.6946-1.9781 2.543c-0.5657 0.84846-1.6971 1.6987-2.5455 2.2643-1.1315 0.84847-1.9808 1.4142-2.8293 1.697-0.5656-1.4141-1.1313-2.5456-1.6969-4.2425-0.5657-1.4141-0.5649-2.8276-0.5649-3.9588 0-1.4141 0.5657-2.83 1.697-3.9613 0.8485-0.84848 2.2619-1.4133 3.9588-1.4133zm306.66 10.254c-2.7161 0-5.4326 7.4e-4 -7.9398 0.20967-2.5073 0.20893-4.8054 0.62619-7.1038 1.253-2.2983 0.6268-4.3871 1.6717-6.2674 2.9253-1.8806 1.2536-3.7617 2.9252-5.2242 5.0145-1.2537 1.8805-2.5073 3.7606-3.5519 5.641-1.0448 2.0894-1.88 3.971-2.7157 6.0604-0.6268 1.8805-1.4617 3.9678-1.8796 5.8482-0.6268 1.8805-0.8372 3.5527-1.0458 5.2242-0.4179 3.343-0.2078 6.0609 1.0458 8.3592 1.0447 1.8805 2.5058 3.3426 4.5953 4.1784 1.8804 0.83577 4.3881 1.461 7.3134 1.6699 2.9251 0.20894 6.0595 0.20966 9.4025 0.20966 2.0894 0 4.3867-7.2e-4 6.8941-0.20966 2.2983-0.20894 4.8053-0.41653 7.1036-1.0434 2.5074-0.62682 4.5976-1.4638 6.6869-2.5085 2.0895-1.2536 3.7617-2.7148 5.2242-4.5952 1.2537-1.8805 2.7169-3.971 3.7615-6.0604 1.0448-2.0894 2.0896-4.3878 2.9254-6.4772 0.8358-2.0894 1.4623-4.1782 2.0892-6.2676 0.6268-2.0894 0.8347-3.7599 1.0434-5.4314 0.4179-3.343 5e-4 -6.0594-1.253-7.9399-1.2537-1.8805-2.9259-3.3451-5.2242-4.1808-2.2984-0.83575-4.8045-1.4609-7.5207-1.6699-2.7162-0.20895-5.643-0.20967-8.3592-0.20967zm-451.94 0.20967c-1.2535 0-2.5078 0.2072-3.7615 0.2072-1.2537 0.20896-2.5079 0.2104-3.7615 0.41932-1.0447 0.20893-2.2975 0.41758-3.3421 0.62651-1.8806 0.41786-3.5528 1.2549-5.2244 2.5085-1.6715 1.2536-3.1343 2.714-4.3879 4.3856-1.2537 1.6715-2.2968 3.5541-3.1326 5.6435-0.8358 2.0894-1.4637 4.3861-1.6723 6.6844-0.2089 1.6715-3e-4 3.1337 0.6265 4.1784 0.6268 1.0447 1.4638 2.0913 2.5085 2.7181 1.0446 0.62683 2.0893 1.2537 3.5519 1.4627 1.2536 0.20895 2.7157 0.41686 4.1784 0.41686h6.4771c1.4627 0.20894 2.7161 0.20792 3.5519 0.41685s1.2538 0.4183 1.4627 0.83616c0.209 0.20894 0.2071 0.62867 0.2071 1.2555 0 0.62683-0.4158 1.252-0.8337 1.6699-0.6269 0.41787-1.2552 0.62722-1.8821 0.83616-0.6267 0-1.2534 0.20965-2.089 0.20965h-1.8796c-3.552 0-7.1053-0.2104-10.448-0.41931-3.552-0.20894-6.894-0.62548-10.446-1.0434l-3.9711 11.492c3.9697 0.62681 8.149 1.2537 12.328 1.4627 4.1788 0.20894 8.7761 0.41686 13.791 0.41686 2.9251 0 5.6414-7.3e-4 7.9398-0.20967 2.2984-0.20893 4.3871-0.41652 6.2676-1.0434 1.8804-0.62682 3.3447-1.2541 4.8073-2.2988 1.4627-1.0447 2.7143-2.2989 3.7591-3.7615 0.4179-0.62682 0.8376-1.2534 1.2554-2.0892 0.4179-0.83575 0.8352-1.671 1.2531-2.7157 0.4179-1.0447 0.8346-1.8806 1.0433-2.9254 0.4181-0.83577 0.6265-1.8799 0.6265-2.7157 0.4179-2.2983 0.2101-4.1802-0.4168-5.4339-0.4179-1.4626-1.4614-2.2961-2.5061-2.9229-1.0447-0.62683-2.5086-0.8369-3.9711-1.0458-1.6715-0.20896-3.3431-0.20965-5.0146-0.20965h-5.8507c-1.4626-0.20892-2.5065-0.20791-3.3421-0.41685-0.8358-0.20893-1.2541-0.41757-1.4627-0.6265-0.209-0.20895-0.2096-0.62795-0.2096-1.0458 0-0.62682 0.2107-1.0448 0.4194-1.4627 0.2088-0.41787 0.8357-0.83442 1.4626-1.0434 0.8357-0.20895 1.6717-0.41758 2.9254-0.62652 1.2536-0.20891 2.7147-0.20966 4.5952-0.20966 3.1341 0 6.0606 0.20793 8.9857 0.41686 2.9251 0.41788 5.8484 0.62795 8.7736 1.0458l5.2242-13.581c-2.0894-0.41789-4.3886-0.62724-6.6869-0.83617-2.2984-0.20895-4.5951-0.21039-6.6844-0.41932-2.2983 0-4.3895-0.2072-6.27-0.2072h-5.2218zm563.94 0c-1.2537 0-2.5053 0.2072-3.759 0.2072-1.2537 0.20896-2.5078 0.2104-3.7615 0.41932-1.0447 0.20893-2.3001 0.41758-3.3447 0.62651-1.8805 0.41786-3.5502 1.2549-5.2218 2.5085-1.6714 1.2536-3.1343 2.714-4.388 4.3856-1.2537 1.6715-2.2992 3.5541-3.135 5.6435-0.8358 2.0894-1.4609 4.3861-1.6698 6.6844-0.209 1.6715-4e-4 3.1337 0.6265 4.1784 0.6268 1.0447 1.4613 2.0913 2.506 2.7181 1.2537 0.62683 2.2989 1.2537 3.7615 1.4627 1.2537 0.20895 2.7159 0.41686 4.1784 0.41686h6.4773c1.4625 0.20894 2.7161 0.20792 3.5517 0.41685 0.8358 0.20893 1.2538 0.4183 1.4627 0.83616 0.2086 0.20894 0.2096 0.62867 0.2096 1.2555 0 0.62683-0.4184 1.252-0.8363 1.6699-0.6267 0.41787-1.255 0.62722-1.8819 0.83616-0.6268 0-1.2533 0.20965-2.0891 0.20965h-1.8796c-3.552 0-7.1028-0.2104-10.446-0.41931-3.5518-0.20894-6.8964-0.62548-10.448-1.0434l-4.1785 11.492c3.9698 0.62681 8.1491 1.2537 12.328 1.4627 4.1789 0.20894 8.7761 0.41686 13.791 0.41686 2.9252 0 5.6391-7.3e-4 7.9374-0.20967 2.2984-0.20893 4.3896-0.41652 6.27-1.0434 1.8805-0.62682 3.3424-1.2541 4.805-2.2988 1.4625-1.0447 2.7167-2.2989 3.7615-3.7615 0.41789-0.62682 0.8351-1.2534 1.253-2.0892 0.41779-0.83575 0.8351-1.671 1.253-2.7157 0.4178-1.0447 0.8373-1.8806 1.0459-2.9254 0.4181-0.83577 0.6265-1.8799 0.6265-2.7157 0.4178-2.2983 0.2098-4.1802-0.4169-5.4339-0.4179-1.4626-1.4638-2.2961-2.5085-2.9229-1.0448-0.62683-2.5062-0.8369-3.9687-1.0458-1.6716-0.20896-3.343-0.20965-5.0146-0.20965h-5.8507c-1.4626-0.20892-2.5089-0.20791-3.3447-0.41685-0.8357-0.20893-1.2536-0.41757-1.4626-0.6265-0.2087-0.20895-0.2072-0.62795-0.2072-1.0458 0-0.62682 0.208-1.0448 0.4169-1.4627 0.2089-0.41787 0.8358-0.83442 1.4627-1.0434 0.8358-0.20895 1.6717-0.41758 2.9254-0.62652 1.2535-0.20891 2.7171-0.20966 4.5977-0.20966 3.1339 0 6.058 0.20793 8.9832 0.41686 2.9251 0.41788 5.8509 0.62795 8.776 1.0458l5.2242-13.581c-2.0894-0.41789-4.3885-0.62724-6.6868-0.83617-2.2984-0.20895-4.5976-0.21039-6.6869-0.41932-2.2984 0-4.3872-0.2072-6.2676-0.2072h-5.2242zm-283.32 0.62651-10.446 26.952c-0.4179 1.2536-0.8372 2.2992-1.0458 3.135-0.209 0.83576-0.4179 1.4624-0.6265 2.0892-0.2093 0.62683-0.4169 1.0448-0.4169 1.4627 0 0.41786-0.2095 0.83513-0.2095 1.253-0.209 1.6715 0 3.1337 0.4169 4.1784 0.6267 1.2536 1.254 2.0896 2.2988 2.9254 1.0447 0.83575 2.2982 1.4641 3.5518 1.882 1.4626 0.41788 2.7158 0.83446 4.1784 1.0434 1.4626 0.20894 2.9255 0.4193 4.388 0.4193h3.9712c3.9699 0 7.5215-0.21038 10.656-0.4193 3.1341-0.41788 5.8495-1.0438 8.3567-1.8795 2.2983-0.83575 4.3888-2.09 6.0604-3.7615 1.6715-1.6715 3.1336-3.9707 4.1784-6.6869l12.328-31.967h-18.805l-11.282 29.044c-0.6269 1.4626-1.4632 2.7161-2.2989 3.5519s-2.2997 1.253-3.9713 1.253c-1.0446 0-2.0888-0.4183-2.7155-0.83616-0.6272-0.62683-1.0448-1.4614-0.8362-2.506 0.2089-0.62682 0.2086-1.2542 0.6265-2.2988 0.4178-1.0447 0.6279-1.8824 1.0458-2.7182l9.8194-26.116zm208.1 0-10.446 26.952c-0.4179 1.2536-0.8372 2.2992-1.046 3.135s-0.4175 1.4624-0.6263 2.0892c-0.2093 0.62683-0.4169 1.0448-0.4169 1.4627 0 0.41786-0.2095 0.83513-0.2095 1.253-0.2091 1.6715 0 3.1337 0.4167 4.1784 0.6269 1.2536 1.2542 2.0896 2.2989 2.9254 1.0447 0.83575 2.2982 1.4641 3.5518 1.882 1.4627 0.41788 2.7159 0.83446 4.1784 1.0434 1.4626 0.20894 2.9254 0.4193 4.3881 0.4193h3.9711c3.9699 0 7.5214-0.21038 10.656-0.4193 3.1341-0.41788 5.8494-1.0438 8.3568-1.8795 2.2983-0.83575 4.3888-2.09 6.0603-3.7615s3.1337-3.9707 4.1783-6.6869l12.328-31.967h-18.805l-11.282 29.044c-0.6267 1.4626-1.463 2.7161-2.2988 3.5519-0.8357 0.83576-2.2996 1.253-3.9712 1.253-1.0446 0-2.0888-0.4183-2.7156-0.83616-0.6271-0.62683-1.0454-1.4614-0.8363-2.506 0.209-0.62682 0.2112-1.2542 0.6291-2.2988 0.4179-1.0447 0.6255-1.8824 1.0434-2.7182l9.8194-26.116zm-558.73 0.41685-30.714 43.878h20.894l4.3856-6.4772h15.463l-0.6265 6.4772h18.805l4.5952-43.878zm105.11 0-5.4337 14.417h12.328l-10.446 29.251h19.012l10.656-29.251h12.328l5.4338-14.417zm302.76 0-16.714 43.878h18.803l5.434-15.253 7.5205 15.253h21.94l-10.865-17.969h3.3421c1.8806 0 3.7607-0.41654 5.6411-1.0434 1.8805-0.62682 3.3448-1.6717 4.8074-2.9254 1.4625-1.2536 2.7161-2.9251 3.5518-5.0145 1.0447-1.8805 1.6703-4.3875 1.8796-7.1037 0.2086-1.6715 0.2086-2.9272 0-4.1808-0.209-1.2536-0.6263-2.2968-1.253-3.1326-0.6268-0.83576-1.6717-1.4641-2.9254-1.882-1.2537-0.41788-2.9251-0.6265-5.0146-0.6265zm60.803 0-16.089 43.878h18.386l16.506-43.878zm-455.93 11.075-1.6724 15.67h-9.8194zm408.92 1.0434h8.1495c1.2536 0 2.2986 0.4183 2.9254 0.83618 0.6268 0.41789 1.0448 1.2541 0.8361 2.2988-0.209 0.62683-0.211 1.4624-0.6289 2.0892-0.209 0.62681-0.6262 1.2552-1.253 1.882-0.6269 0.62681-1.2536 1.0423-2.0892 1.4602-0.6269 0.41788-1.6711 0.62897-2.7157 0.62897h-8.3592zm94.65 1.0458h2.0892c2.0893 0 3.5522 0.419 4.3879 1.0458 0.8358 0.83576 1.2548 2.0875 1.0459 3.759-0.209 1.2536-0.4184 2.2982-0.8362 3.5519-0.4179 1.2536-0.8351 2.3-1.253 3.3446s-0.8377 1.8792-1.2554 2.506c-0.4179 0.62681-0.6252 1.2537-0.8338 1.4627-0.6268 0.83576-1.0454 1.4624-1.6723 2.0892-0.6268 0.62681-1.2528 1.0441-1.8796 1.253-0.6268 0.20893-1.463 0.42004-2.2988 0.62897-0.8357 0.20895-1.8806 0.2072-2.9254 0.2072-0.6268 0-1.2552 1e-3 -1.882-0.2072-0.6267-0.20893-1.252-0.41828-1.6699-0.83616-0.4177-0.41789-0.8368-1.0455-1.0458-1.6723-0.2092-0.62683-0.4185-1.671-0.2095-2.7157 0-0.62681 0.2104-1.2534 0.4193-2.0892 0.4179-0.83577 0.6255-1.671 1.0434-2.7157 0.4179-1.0447 0.8377-1.8806 1.2554-2.9254 0.4179-0.83574 1.0449-1.6727 1.4627-2.5085 0.6268-1.0447 1.2528-1.8792 1.8796-2.506 0.8358-0.62683 1.4624-1.0466 2.0892-1.2555 0.6267-0.20897 1.4623-0.41686 2.0892-0.41686zm-320.82 5.8754 3.6753 9.331c-1.4142 0.84847-3.1096 1.415-4.5237 1.9806-1.6969 0.56564-3.112 0.8485-4.5262 0.8485-1.1313 0-1.9807-0.56651-2.8291-1.1322-0.5655-0.84846-0.8486-1.6954-0.8486-2.8267 0-1.1313 0.2846-1.9798 0.5673-2.5455 0.2828-0.56564 0.8478-1.415 1.4135-1.9806 0.8484-0.56565 1.6978-1.1314 2.8291-1.697s2.5456-1.1297 4.2424-1.9782z" fill="#fff"/>
	<path d="m72.615 97.471c0 13.989-9.1094 24.14-27.719 26.157-13.404 1.4315-32.859-0.26027-42.098-1.3013-0.32534-1.4966-0.5856-3.3835-0.5856-4.88 0-12.168 6.5718-14.965 12.753-14.965 6.4416 0 16.592 1.1061 24.075 1.1061 8.3286 0 10.801-2.7979 10.801-5.4656 0-3.5136-3.3184-4.9451-9.7601-6.1814l-17.633-3.3835c-14.64-2.7979-22.448-12.883-22.448-23.619 0-13.013 9.2395-23.945 27.458-25.962 13.729-1.4965 30.516 0.1952 39.691 1.3013 0.32534 1.5616 0.52054 3.0582 0.52054 4.6848 0 12.168-6.4416 14.77-12.623 14.77-4.7499 0-12.102-0.84587-20.561-0.84587-8.5889 0-12.102 2.3424-12.102 5.2054 0 3.0582 3.3835 4.2944 8.719 5.2704l16.787 3.1232c17.308 3.1883 24.725 12.948 24.725 24.986m30.126 14.965c0 7.4827-2.928 11.777-17.568 11.777-1.952 0-3.6438-0.13013-5.2704-0.3904v-99.097c0-7.5478 2.5376-15.421 17.308-15.421 1.8869 0 3.7739 0.1952 5.5307 0.5856zm59.797 38.39c1.952 0.976 5.856 2.2123 10.801 2.2773 8.5238 0.19521 13.144-3.0582 16.592-10.671l45.547-101.31c-1.8869-0.97601-6.0512-2.1472-9.4347-2.2123-5.856-0.13013-13.729 1.0411-18.739 13.013l-14.835 34.681-28.955-47.044c-1.8869-0.5856-6.4416-1.3664-9.7601-1.3664-10.281 0-15.941 3.7739-21.863 10.15l-28.109 30.712 22.643 35.592c4.1643 6.5067 9.695 9.8251 18.609 9.8251 5.856 0 10.736-1.3664 13.013-2.4075l-27.263-40.992 19.325-20.496 31.688 49.646z" fill="#ff0031"/>
	<path d="m789.2 0h-518.65c-5.9862 0-10.866 4.88-10.866 10.866v140.87c0 5.9862 4.88 10.866 10.866 10.866h518.58c5.9862 0 10.866-4.88 10.866-10.866v-140.94c-0.0651-5.9862-4.815-10.801-10.801-10.801" fill="url(#A)"/>
	<path d="m79.967 24.725v67.995c0-2.7328 2.0821-5.5958 5.5958-5.7259l11.452-0.3904c2.2773-0.06507 5.7259-1.6267 5.791-5.791v-70.923c-1.7568-0.3904-3.6438-0.5856-5.5307-0.5856-14.77 0.065067-17.308 7.8731-17.308 15.421m52.054 23.684-28.109 30.712 2.2774 3.5136c0.976 1.3013 2.863 3.5136 6.6368 3.3835l16.007-0.5856c3.5136-0.13013 5.7259 1.3664 7.0923 3.1883l-5.0102-7.5478 19.325-20.496 12.948 20.366c2.3424 3.0582 5.856 3.1232 6.6368 3.1232 0.65067 0 17.698-0.5856 18.414-0.65067 1.1712-0.06507 2.5376 0.5856 3.5787 2.0821l-28.174-45.807c-1.887-0.5856-6.4416-1.3664-9.7601-1.3664-10.281-0.06507-15.941 3.6438-21.863 10.085m-104.56-9.4347c-18.219 2.0171-27.458 12.883-27.458 25.962 0 6.7019 3.0582 13.144 8.9142 17.763 4.4246 2.928 8.9793 4.0342 13.469 4.815 3.7088 0.65067 12.363 1.2363 18.804 0.97601l20.041-0.71574c7.5478-0.26027 11.582 6.1814 11.192 12.623v-0.32533c0.06507-0.84587 0.13013-1.6917 0.13013-2.5376 0-12.037-7.4176-21.863-24.66-25.051l-16.787-3.1232c-5.4006-0.91094-8.719-2.2123-8.719-5.2704 0-2.863 3.5787-5.2704 12.102-5.2704 8.4587 0 15.811 0.84587 20.561 0.84587 6.1814 0 12.623-2.6027 12.623-14.77 0-1.6267-0.1952-3.1232-0.52054-4.6848-6.5718-0.78081-17.113-1.8869-27.588-1.8869-4.0992 0.06507-8.1985 0.26027-12.102 0.65067m179.72 12.948-14.38 33.9c0-0.06507 0.91094-2.6678 3.7088-2.7979l15.226-0.52054c4.6198-0.1952 6.4416-3.3184 6.9622-4.3595l16.657-37.153c-1.887-0.97601-6.0512-2.1472-9.4347-2.2123h-0.71574c-5.791 0.06507-13.209 1.6267-18.024 13.144" fill="url(#B)" opacity=".3"/>
	<path d="m270.55 0c-5.9862 0-10.866 4.88-10.866 10.866v78.211c0-1.1712 0.45547-7.6129 7.808-8.3286 0 0 0.3904-0.06507 1.0411-0.06507l523.4-18.349c4.0992-0.13014 8.0683-3.1883 8.0683-8.2635v-43.139c0-5.9862-4.88-10.866-10.866-10.866z" fill="url(#C)" opacity=".3"/>
	<path d="m377.19 18.414c-4.3595 0-8.0684 3.3835-8.0684 8.0684 0 4.0992 3.6438 7.9375 8.0684 7.9375s7.9375-3.7732 7.9375-7.9375c0-4.5547-3.4479-8.0684-7.9375-8.0684zm148.22 24.141c-20.952-1e-6 -37.936 16.591-37.936 39.43 0 23.684 16.333 39.82 40.018 39.82 10.931 0 21.212-3.253 27.914-6.2461 0.7808-6.8971-1.5617-9.8887-4.75-9.8887-1.3664 0-3.0598 0.6491-6.248 1.8203-4.88 1.4965-9.8892 2.9942-16.461 2.9942-15.291-1e-5 -25.701-8.5247-27.588-23.295h59.275c0.45547-2.863 0.64974-5.3992 0.71484-7.8066 0-18.154-11.58-36.828-34.939-36.828zm-196.24 0.06445c-21.993 0-38.781 16.853-38.781 39.496s16.789 39.69 38.781 40.016c10.411 0 19.845-2.8625 26.547-6.0508 0.65067-6.8971-1.8879-9.7598-5.0762-9.7598-4.4246 0-9.4337 4.8789-21.016 4.8789-14.64 0-26.549-11.255-26.549-28.889s11.909-28.564 26.549-28.564c11.582 0 16.526 4.8789 21.016 4.8789 3.1883 0 5.7268-2.8627 5.0762-9.7598-6.5718-3.3835-16.006-6.2461-26.547-6.2461zm113.22 0c-11.517 0-19.977 5.595-25.508 12.297v-6.5703c0-2.863-1.6903-4.75-6.5703-4.75-2.2123 0-4.5554 0.52037-5.7266 0.8457v75.934c1.1712 0.32534 3.5143 0.65039 5.7266 0.65039 4.9451 0 6.5703-1.7569 6.5703-4.75v-48.736c4.0342-7.3526 13.796-13.729 22.84-13.729 11.387 0 19.129 7.4171 19.129 23.033v43.4c1.2363 0.32533 3.7095 0.65039 5.7266 0.65039 5.0102 0 6.5703-1.7569 6.5703-4.75v-40.992c0-22.513-13.077-32.468-28.758-32.533zm168.78 0c-9.3697 0-17.112 4.8794-21.992 11.451v-5.4004c0-3.1883-1.627-5.0742-6.377-5.0742-2.0171 0-4.4252 0.52037-5.7266 0.8457v75.803c1.0411 0.32533 3.5143 0.65039 5.7266 0.65039 5.0102 0 6.5723-1.7569 6.5723-4.75v-50.037c2.863-6.1814 10.214-12.428 18.803-12.428 10.281-1e-6 15.486 6.7024 15.486 17.959v48.605c1.3014 0.32533 3.6451 0.65039 5.8574 0.65039 5.0102 0 6.5703-1.7569 6.5703-4.75v-50.037c2.863-6.1814 10.216-12.428 18.805-12.428 10.085-1e-6 15.486 6.7024 15.486 17.959v48.605c1.2363 0.32533 3.7095 0.65039 5.7266 0.65039 5.0102 0 6.7012-1.7569 6.7012-4.75v-45.871c0-15.161-8.7183-27.589-25.115-27.654-11.257 0-19.326 6.1821-24.531 13.795-4.0342-8.5889-11.907-13.795-21.992-13.795zm122.78 0c-10.671 0-22.057 2.5374-29.67 5.4004-0.7808 6.7019 1.2364 9.8906 4.75 9.8906 1.2363 0 3.058-0.58566 5.4004-1.2363 4.5547-1.4965 11.257-3.1895 19-3.1895 14.965 0 18.803 7.0275 18.803 18.805v2.082c-33.77-2.2123-53.744 5.8569-53.744 24.336 0 12.233 9.4342 23.164 26.547 23.164 11.387 0 19.975-4.4907 27.197-12.104v6.377c0 3.1883 2.0176 4.8144 6.5723 4.8144 2.2123 0 4.4252-0.32506 5.7266-0.65039v-48.475c0-18.024-8.264-29.15-30.582-29.215zm-356.37 1.041c-5.1403 0-6.7012 1.887-6.7012 4.75v71.834c1.2363 0.32533 3.6444 0.64974 5.7266 0.71484 5.0102 0 6.7012-1.7569 6.7012-4.75v-71.703c-1.2363-0.32534-3.7095-0.8457-5.7266-0.8457zm147.9 9.9551c13.729 0 22.122 10.281 22.643 23.359h-47.693c2.0171-15.291 12.818-23.49 25.051-23.359zm218.55 29.922c2.6243 0.0081 5.3271 0.08308 8.0762 0.20508v14.639c-5.856 7.8081-14.64 13.078-25.051 13.078-10.216 0-15.941-6.2454-15.941-12.947 0-11.899 14.546-15.032 32.916-14.975z" fill="#fff"/>
</svg>
