<?xml version="1.0" encoding="UTF-8"?>
<svg width="800" height="193.2" version="1.1" xmlns="http://www.w3.org/2000/svg">
	<defs>
		<linearGradient id="A" x1="414.37" x2="1244.6" y1="289.84" y2="289.84" gradientTransform="matrix(.51516 0 0 .51516 -7.7782 -84.947)" gradientUnits="userSpaceOnUse">
			<stop stop-color="#ff0031" offset="0"/>
			<stop stop-color="#9b001f" offset="1"/>
		</linearGradient>
		<linearGradient id="B" x1="197.48" x2="194.59" y1="295.14" y2="212.24" gradientTransform="matrix(.51516 0 0 .51516 -7.7782 -84.947)" gradientUnits="userSpaceOnUse">
			<stop stop-color="#fff" offset="0"/>
			<stop stop-color="#fff" stop-opacity=".25" offset=".515"/>
		</linearGradient>
		<linearGradient id="C" x1="830.55" x2="826.25" y1="276.73" y2="153.47" gradientTransform="matrix(.51516 0 0 .51516 -7.7782 -84.947)" gradientUnits="userSpaceOnUse">
			<stop stop-color="#fff" offset="0"/>
			<stop stop-color="#fff" stop-opacity=".25" offset=".515"/>
		</linearGradient>
	</defs>
	<path d="m793.75 0c3.4608 0 6.2502 2.8171 6.2502 6.2502v116.24a6.2779 6.2779 0 0 1-6.2502 6.2502h-163.07c-3.4607 0-6.2502-2.8164-6.2502-6.2502v-116.21c0-3.4607 2.8171-6.2502 6.2502-6.2502h163.07" fill="#fff"/>
	<path d="m714.58 38.576v49.548c0 2.1728-1.0998 3.3801-4.4799 3.3801-1.5292 0-2.9508-0.21427-4.0506-0.42933v-22.802h-28.274v19.878c0 2.1728-1.0998 3.3801-4.4799 3.3801-1.6367 0-3.2726-0.21427-4.0506-0.42933v-49.575c0-2.0921 1.0998-3.3801 4.5874-3.3801 1.5292 0 3.0314 0.21427 3.9162 0.42933v22.051h28.141v-19.1c0-2.0921 1.2074-3.3801 4.695-3.3801 1.6098 0 3.1121 0.21427 3.9968 0.42933m58.003 26.182c0 14.861-10.381 26.101-26.638 26.101h-15.157c-3.2726 0-4.4799-1.3141-4.4799-3.3801v-45.309c0-2.0652 1.2074-3.3801 4.4799-3.3801h15.157c16.257 0 26.638 11.133 26.638 25.968m-8.638 0c0-11.133-6.9745-18.349-18-18.349h-11.133v36.779h11.133c11.026 0.02688 18-7.1895 18-18.43" fill="#9c001f"/>
	<path d="m57.492 77.174c0 11.076-7.2123 19.112-21.946 20.709-10.612 1.1334-26.016-0.20606-33.331-1.0303-0.25758-1.1849-0.46364-2.6788-0.46364-3.8637 0-9.6335 5.2031-11.849 10.097-11.849 5.1001 0 13.137 0.87577 19.061 0.87577 6.5941 0 8.5517-2.2152 8.5517-4.3274 0-2.7819-2.6273-3.9152-7.7274-4.894l-13.961-2.6788c-11.591-2.2152-17.773-10.2-17.773-18.7 0-10.303 7.3153-18.958 21.74-20.555 10.87-1.1849 24.161 0.15455 31.425 1.0303 0.25758 1.2364 0.41213 2.4213 0.41213 3.7092 0 9.6335-5.1001 11.694-9.9941 11.694-3.7607 0-9.582-0.66971-16.279-0.66971-6.8001 0-9.582 1.8546-9.582 4.1213 0 2.4213 2.6788 3.4001 6.9032 4.1728l13.291 2.4728c13.703 2.5243 19.576 10.252 19.576 19.782m23.852 11.849c0 5.9244-2.3182 9.3244-13.909 9.3244-1.5455 0-2.8849-0.10303-4.1728-0.3091v-78.459c0-5.9759 2.0091-12.209 13.703-12.209 1.494 0 2.9879 0.15455 4.3789 0.46364zm47.343 30.394c1.5455 0.77275 4.6364 1.7516 8.5517 1.8031 6.7486 0.15455 10.406-2.4213 13.137-8.4486l36.061-80.211c-1.494-0.77274-4.791-1.7-7.4698-1.7515-4.6364-0.10303-10.87 0.82426-14.837 10.303l-11.746 27.458-22.925-37.246c-1.494-0.46364-5.1001-1.0818-7.7274-1.0818-8.1395 0-12.621 2.9879-17.309 8.0365l-22.255 24.316 17.928 28.179c3.297 5.1516 7.6759 7.7789 14.734 7.7789 4.6364 0 8.5002-1.0818 10.303-1.9061l-21.585-32.455 15.3-16.228 25.088 39.307z" fill="#ff0031"/>
	<path d="m624.84 0.0028345h-410.63c-4.7395 0-8.6032 3.8637-8.6032 8.6032v111.53c0 4.7395 3.8637 8.6032 8.6032 8.6032h410.58c4.7395 0 8.6032-3.8637 8.6032-8.6032v-111.58c-0.0515-4.7395-3.8122-8.5517-8.5517-8.5517" fill="url(#A)"/>
	<path d="m63.314 19.579v53.834c0-2.1637 1.6485-4.4304 4.4304-4.5334l9.0668-0.3091c1.8031-0.05152 4.5334-1.2879 4.5849-4.5849v-56.153c-1.3909-0.3091-2.8849-0.46364-4.3789-0.46364-11.694 0.051516-13.703 6.2334-13.703 12.209m41.213 18.752-22.255 24.316 1.8031 2.7819c0.77274 1.0303 2.2667 2.7819 5.2546 2.6788l12.673-0.46364c2.7819-0.10303 4.5334 1.0818 5.6152 2.5243l-3.9667-5.9759 15.3-16.228 10.252 16.125c1.8546 2.4213 4.6364 2.4728 5.2546 2.4728 0.51516 0 14.012-0.46364 14.579-0.51516 0.92729-0.05152 2.0091 0.46364 2.8334 1.6485l-22.306-36.267c-1.494-0.46364-5.1001-1.0818-7.7274-1.0818-8.1396-0.05152-12.621 2.8849-17.309 7.985m-82.786-7.4698c-14.425 1.597-21.74 10.2-21.74 20.555 0 5.3062 2.4213 10.406 7.0577 14.064 3.5031 2.3182 7.1092 3.194 10.664 3.8122 2.9364 0.51516 9.7881 0.97881 14.888 0.77274l15.867-0.56668c5.9759-0.20606 9.1699 4.894 8.8608 9.9941v-0.25758c0.05152-0.66971 0.10303-1.3394 0.10303-2.0091 0-9.5305-5.8728-17.309-19.525-19.834l-13.291-2.4728c-4.2758-0.72122-6.9032-1.7515-6.9032-4.1728 0-2.2667 2.8334-4.1728 9.582-4.1728 6.6971 0 12.518 0.66971 16.279 0.66971 4.894 0 9.9941-2.0606 9.9941-11.694 0-1.2879-0.15455-2.4728-0.41213-3.7092-5.2031-0.61819-13.549-1.494-21.843-1.494-3.2455 0.05152-6.491 0.20606-9.582 0.51516m142.29 10.252-11.385 26.84c0-0.05152 0.72122-2.1122 2.9364-2.2152l12.055-0.41213c3.6576-0.15455 5.1001-2.6273 5.5122-3.4516l13.188-29.416c-1.494-0.77274-4.791-1.7-7.4698-1.7515h-0.56667c-4.5849 0.05152-10.458 1.2879-14.27 10.406" enable-background="new" fill="url(#B)" opacity=".3"/>
	<path d="m214.2 0.0028345c-4.7395 0-8.6032 3.8637-8.6032 8.6032v61.922c0-0.92729 0.36061-6.0274 6.1819-6.5941 0 0 0.3091-0.05152 0.82426-0.05152l414.4-14.528c3.2455-0.10303 6.388-2.5243 6.388-6.5425v-34.155c0-4.7395-3.8637-8.6032-8.6032-8.6032z" enable-background="new" fill="url(#C)" opacity=".3"/>
	<path d="m298.63 14.584c-3.4516 0-6.3887 2.6775-6.3887 6.3867 0 3.2455 2.8856 6.2852 6.3887 6.2852s6.2832-2.9882 6.2832-6.2852c0-3.6061-2.7286-6.3867-6.2832-6.3867zm117.36 19.111c-16.588 1e-6 -30.035 13.137-30.035 31.219 0 18.752 12.93 31.529 31.682 31.529 8.654 0 16.795-2.5756 22.102-4.9453 0.6182-5.4607-1.2374-7.832-3.7617-7.832-1.0819 0-2.421 0.51607-4.9453 1.4434-3.8641 1.1848-7.8301 2.3691-13.033 2.3691-12.106 0-20.35-6.7494-21.844-18.443h46.932c0.36061-2.2667 0.51686-4.2755 0.56836-6.1816 0-14.373-9.1701-29.158-27.664-29.158zm-155.37 0.050782c-17.413 0-30.703 13.343-30.703 31.271 0 17.927 13.291 31.424 30.703 31.682 8.243 0 15.713-2.2667 21.02-4.791 0.5152-5.4607-1.4952-7.7266-4.0195-7.7266-3.503 0-7.4688 3.8633-16.639 3.8633-11.592 0-21.02-8.9117-21.02-22.873s9.4285-22.615 21.02-22.615c9.1702 0 13.084 3.8633 16.639 3.8633 2.5242 0 4.5347-2.2678 4.0195-7.7285-5.204-2.6788-12.674-4.9453-21.02-4.9453zm89.646 0c-9.118 0-15.816 4.4301-20.195 9.7363v-5.2031c0-2.2667-1.3394-3.7598-5.2031-3.7598-1.7515 0-3.6059 0.41234-4.5332 0.66992v60.119c0.9273 0.25758 2.7817 0.51562 4.5332 0.51562 3.9152 0 5.2031-1.392 5.2031-3.7617v-38.586c3.194-5.8214 10.921-10.869 18.082-10.869 9.0156 0 15.146 5.8723 15.146 18.236v34.361c0.9788 0.25758 2.9362 0.51562 4.5332 0.51562 3.9667 0 5.2031-1.392 5.2031-3.7617v-32.455c0-17.824-10.355-25.706-22.77-25.758zm133.63 0c-7.4179 0-13.548 3.8633-17.412 9.0664v-4.2754c0-2.5243-1.2881-4.0176-5.0488-4.0176-1.597 0-3.5029 0.41234-4.5332 0.66992v60.016c0.8242 0.25758 2.7817 0.51562 4.5332 0.51562 3.9667 0 5.2031-1.392 5.2031-3.7617v-39.615c2.267-4.8941 8.0886-9.8398 14.889-9.8398 8.1397 0 12.26 5.3064 12.26 14.219v38.482c1.0303 0.25758 2.8851 0.51562 4.6367 0.51562 3.9667 0 5.2031-1.392 5.2031-3.7617v-39.615c2.267-4.8941 8.0886-9.8398 14.889-9.8398 7.9852 0 12.26 5.3045 12.26 14.217v38.484c0.9788 0.25758 2.9382 0.51367 4.5352 0.51367 3.9668 0 5.3047-1.3901 5.3047-3.7598v-36.318c0-12.003-6.9028-21.843-19.885-21.895-8.913 0-15.301 4.8945-19.422 10.922-3.194-6.7997-9.4271-10.922-17.412-10.922zm97.205 0c-8.448 0-17.463 2.0087-23.49 4.2754-0.6182 5.3061 0.97786 7.8301 3.7598 7.8301 0.9788 1e-6 2.4208-0.46336 4.2754-0.97852 3.606-1.1849 8.9126-2.5234 15.043-2.5234 11.849 0 14.889 5.5623 14.889 14.887v1.6484c-26.737-1.752-42.553 4.6366-42.553 19.268 0 9.6853 7.4705 18.34 21.02 18.34 9.016 0 15.817-3.5546 21.535-9.582v5.0488c0 2.5243 1.597 3.8125 5.2031 3.8125 1.7515 0 3.5029-0.25804 4.5332-0.51562v-38.379h-0.00196c0-14.27-6.5429-23.079-24.213-23.131zm-282.16 0.82617c-4.0698 0-5.3066 1.4931-5.3066 3.7598v56.875c0.9788 0.25758 2.8847 0.51489 4.5332 0.56641 3.9668-1e-6 5.3066-1.392 5.3066-3.7617v-56.77c-0.9788-0.25758-2.9362-0.66992-4.5332-0.66992zm117.1 7.8809c10.87 0 17.518 8.1391 17.93 18.494h-37.762-0.00195c1.597-12.106 10.149-18.597 19.834-18.494zm173.04 23.691c2.0777 0.00644 4.2161 0.063564 6.3926 0.16016v11.592c-4.637 6.1822-11.591 10.354-19.834 10.354-8.0876 0-12.621-4.9458-12.621-10.252 0-9.4209 11.518-11.899 26.062-11.854z" fill="#fff"/>
	<path d="m343.81 142.01c-4.3995 0.05196-8.7566 2.4327-13.078 7.0996-2.089 2.2431-3.9542 4.8455-5.666 7.7773-1.3686 2.2431-2.3227 4.1894-2.8066 5.8047l-1.2363 3.6504c-0.88792 2.9911-1.4708 5.9216-1.7539 8.7949-0.88555 8.9441 1.5635 14.6 7.3086 16.932 5.7189 2.3633 11.606 0.53888 17.539-5.4434 3.5636-3.7399 6.3894-7.749 8.4238-12.148l1.2988-3.1387c1.7126-4.7875 2.4794-9.7838 2.3379-14.959l-0.02539-0.47852c-0.28623-7.15-2.9671-11.519-7.9277-13.164-1.4762-0.50128-2.9476-0.74389-4.4141-0.72656zm36.121 0.125c-4.3942 0.02341-8.7678 2.3738-13.133 7.0644-2.0818 2.274-3.9168 4.876-5.627 7.8086-1.3686 2.2431-2.325 4.1873-2.8144 5.7734l-1.1973 3.6816c-0.91797 2.9927-1.5038 5.9224-1.752 8.8242-0.92033 8.9164 1.4967 14.571 7.2109 16.906 5.783 2.3633 11.675 0.56769 17.633-5.4453 3.5683-3.709 6.3262-7.75 8.3613-12.148l1.3281-3.1406c1.7308-4.8002 2.5249-9.8882 2.3359-14.988l0.01758-0.42187c-0.32338-7.1801-2.9733-11.547-7.9609-13.162-1.4694-0.5088-2.9376-0.75976-4.4023-0.75195zm19.812 0.39257-5.7344 13.672h6.4727l3.9805-7.2402h15.635c-0.4491 3.5003-5.136 10.143-13.969 19.896-8.2087 9.4232-12.972 17.172-14.336 23.336h11.756l1.0976-2.8711 0.10742-0.08984-0.01757-0.09375 0.0957-0.32813c2.9002-6.4914 7.2465-12.773 13.049-18.787 11.138-12.357 16.208-21.482 15.131-27.494h-33.268zm36.445 0.26758c-0.26567 3.6497-1.0255 6.8218-2.4297 9.5449h23.482c0.27752-0.86736 0.59854-1.4962 0.91797-1.9746 0.23404-0.41985 0.87057-0.53852 1.8945-0.41992h17.195c2.6748-2.4527 3.8919-4.8472 3.623-7.1504h-44.684zm-91.066 3.5527c0.32317-0.01214 0.63824 0.0297 0.94532 0.12695 3.7335 1.2572 2.5892 9.126-3.3828 23.547-1.4809 3.5003-3.4928 7.1795-5.8711 11.068-3.7201 5.7743-6.5834 8.2275-8.5625 7.3301-2.0526-0.9575-2.2095-4.6971-0.42578-11.129l4.0879-11.578c1.2366-3.4702 2.9989-7.1494 5.2168-11.068 3.0732-5.4462 5.73-8.2119 7.9922-8.2969zm36.102 0.11718c0.32345-0.01065 0.64009 0.03176 0.94726 0.12891 3.7336 1.2572 2.5827 9.0953-3.3789 23.576-1.5497 3.4695-3.5291 7.1493-5.9082 11.039-3.7256 5.745-6.5506 8.2275-8.5312 7.3301-2.0526-0.9575-2.2036-4.6654-0.42383-11.129l4.0898-11.578c1.2358-3.4703 3.0157-7.2088 5.2383-11.098 3.0406-5.4717 5.7026-8.195 7.9668-8.2695zm51.619 8.0293c-4.087 5.1465-3.8014 8.7351 0.83203 10.801 0.44198 0.0277 0.50549-0.30008 0.17578-1.0781-0.49259-0.98755-0.53661-2.0658-0.15234-3.2012 0.26883-0.92744 0.67829-1.5852 1.2207-2.0352h8.9121l-7.1094 9.7832c-0.97885 0.62779-2.2419 0.89744-3.7773 0.71875h-10.254l-2.4297 2.4238h12.818c2.78 0.15023 4.7957-0.44868 5.9414-1.7051l6.9863-9.7539c0.8555-1.4659 1.7135-2.2425 2.6465-2.2734l5.2012-0.95703 2.0957-2.7227h-23.107zm-21.375 33.508-0.14063 0.59375h0.92774l-0.87305 3.6543h0.76562l0.875-3.6543h0.9336l0.14258-0.59375h-2.6309zm3.1894 0-1.0156 4.248h0.7129l0.56445-2.3555c0.03167-0.13863 0.06102-0.28262 0.08789-0.42969 0.02633-0.14706 0.05155-0.28147 0.07422-0.40429h0.01953l0.17578 3.1894h0.68555l1.7148-3.1953h0.02149c-0.03109 0.107-0.06683 0.22617-0.10743 0.35742-0.03586 0.12756-0.06996 0.25218-0.10156 0.375l-0.58594 2.4629h0.74024l1.0156-4.248h-1.0957l-1.6875 3.1895h-0.02148l-0.16797-3.1895h-1.0293z" fill="#fff"/>
</svg>
