<svg xmlns="http://www.w3.org/2000/svg" height="63.862" width="600" viewBox="0 0 158.75 16.897"><defs><linearGradient id="a" gradientUnits="userSpaceOnUse" x2=".992" gradientTransform="matrix(0 16.165 16.97978 0 145.352 295)" x1=".009"><stop stop-color="#0f1c4e" offset="0"/><stop stop-color="#101e51" offset=".004"/><stop stop-color="#101f54" offset=".008"/><stop stop-color="#112157" offset=".012"/><stop stop-color="#12225a" offset=".016"/><stop stop-color="#13245d" offset=".02"/><stop stop-color="#132560" offset=".023"/><stop stop-color="#142662" offset=".027"/><stop stop-color="#142764" offset=".031"/><stop stop-color="#142764" offset=".063"/><stop stop-color="#142764" offset=".125"/><stop stop-color="#142764" offset=".25"/><stop stop-color="#142764" offset=".5"/><stop stop-color="#142764" offset=".75"/><stop stop-color="#142764" offset=".875"/><stop stop-color="#142764" offset=".891"/><stop stop-color="#142764" offset=".898"/><stop stop-color="#142763" offset=".902"/><stop stop-color="#142763" offset=".906"/><stop stop-color="#132662" offset=".91"/><stop stop-color="#132661" offset=".914"/><stop stop-color="#132560" offset=".918"/><stop stop-color="#13255f" offset=".922"/><stop stop-color="#12245d" offset=".926"/><stop stop-color="#12245c" offset=".93"/><stop stop-color="#12235b" offset=".934"/><stop stop-color="#12235a" offset=".938"/><stop stop-color="#112259" offset=".941"/><stop stop-color="#112258" offset=".945"/><stop stop-color="#112157" offset=".949"/><stop stop-color="#112056" offset=".953"/><stop stop-color="#102055" offset=".957"/><stop stop-color="#102054" offset=".961"/><stop stop-color="#101f53" offset=".965"/><stop stop-color="#101e52" offset=".969"/><stop stop-color="#0f1d50" offset=".973"/><stop stop-color="#0f1d4f" offset=".977"/><stop stop-color="#0f1c4e" offset=".98"/><stop stop-color="#0f1c4d" offset=".984"/><stop stop-color="#0e1b4c" offset=".988"/><stop stop-color="#0e1b4b" offset=".992"/><stop stop-color="#0e1a4a" offset=".996"/><stop stop-color="#0e1949" offset="1"/></linearGradient><linearGradient id="b" gradientUnits="userSpaceOnUse" x2=".992" gradientTransform="matrix(0 -16.165 -16.97978 0 228.029 311.18)" x1=".009"><stop stop-color="#612228" offset="0"/><stop stop-color="#672329" offset=".004"/><stop stop-color="#6d232a" offset=".008"/><stop stop-color="#72232a" offset=".012"/><stop stop-color="#78232a" offset=".016"/><stop stop-color="#7d222b" offset=".02"/><stop stop-color="#84222b" offset=".023"/><stop stop-color="#8a212b" offset=".027"/><stop stop-color="#90202b" offset=".031"/><stop stop-color="#961e2b" offset=".035"/><stop stop-color="#9d1d2b" offset=".039"/><stop stop-color="#a31a2a" offset=".043"/><stop stop-color="#a9172a" offset=".047"/><stop stop-color="#af1329" offset=".051"/><stop stop-color="#b61029" offset=".055"/><stop stop-color="#bd0929" offset=".059"/><stop stop-color="#c30228" offset=".063"/><stop stop-color="#c70128" offset=".066"/><stop stop-color="#ca0027" offset=".07"/><stop stop-color="#ca0027" offset=".078"/><stop stop-color="#ca0027" offset=".094"/><stop stop-color="#ca0027" offset=".125"/><stop stop-color="#ca0027" offset=".25"/><stop stop-color="#ca0027" offset=".5"/><stop stop-color="#ca0027" offset=".75"/><stop stop-color="#ca0027" offset=".875"/><stop stop-color="#ca0027" offset=".906"/><stop stop-color="#ca0027" offset=".922"/><stop stop-color="#cc0028" offset=".926"/><stop stop-color="#cd0029" offset=".93"/><stop stop-color="#ce002a" offset=".934"/><stop stop-color="#d0022a" offset=".938"/><stop stop-color="#d1062b" offset=".941"/><stop stop-color="#d2092c" offset=".945"/><stop stop-color="#d40b2d" offset=".949"/><stop stop-color="#d50d2e" offset=".953"/><stop stop-color="#d60f2f" offset=".957"/><stop stop-color="#d71130" offset=".961"/><stop stop-color="#d91431" offset=".965"/><stop stop-color="#da1732" offset=".969"/><stop stop-color="#dc1933" offset=".973"/><stop stop-color="#dd1a34" offset=".977"/><stop stop-color="#df1c35" offset=".98"/><stop stop-color="#e01d35" offset=".984"/><stop stop-color="#e12036" offset=".988"/><stop stop-color="#e22237" offset=".992"/><stop stop-color="#e42338" offset=".996"/><stop stop-color="#e6253a" offset="1"/></linearGradient></defs><path d="M131.696 295.14c-1.31 0-1.779.744-1.779 1.974v11.96c0 1.229.469 1.966 1.78 1.966h32.908v-15.9h-32.909z" fill="url(#a)" transform="matrix(.952 0 0 .952 -123.065 -279.687)"/><path d="M160.782 311.04v-15.901H293.49c1.31 0 1.78.745 1.78 1.975v11.96c0 1.23-.47 1.965-1.78 1.965" fill="url(#b)" transform="matrix(.952 0 0 .952 -123.065 -279.687)"/><g fill="#fff"><path d="M11.388 10.303c0 1.294-.852 2.243-2.572 2.43-1.241.133-3.05-.02-3.91-.125a2.606 2.606 0 0 1-.052-.443c0-1.135.612-1.392 1.188-1.392.594 0 1.534.097 2.235.097.762 0 1.002-.257 1.002-.505 0-.329-.31-.462-.905-.577l-1.631-.31c-1.366-.266-2.084-1.206-2.084-2.2 0-1.214.851-2.225 2.545-2.411 1.268-.143 2.829.019 3.68.115.026.15.045.284.045.443 0 1.126-.594 1.375-1.17 1.375-.444 0-1.127-.09-1.907-.09-.798 0-1.126.223-1.126.498 0 .274.31.399.807.478l1.57.293c1.595.293 2.287 1.206 2.287 2.323m2.793 1.393c0 .7-.265 1.1-1.622 1.1-.186 0-.338-.02-.488-.04V3.534c0-.7.24-1.427 1.605-1.427.168 0 .345.019.505.051v9.533m5.551 3.564c.177.098.541.204 1.002.213.79.026 1.215-.283 1.534-.984l4.23-9.435a2.458 2.458 0 0 0-.878-.204c-.541-.007-1.277.106-1.738 1.215L22.51 9.295l-2.678-4.371c-.177-.065-.603-.133-.905-.133-.949 0-1.48.346-2.03.94l-2.608 2.864 2.093 3.299c.39.602.905.904 1.73.904.549 0 1.001-.115 1.205-.222L16.79 8.772l1.791-1.907 2.944 4.611-1.791 3.778M124.693 9.846h1.188l2.306 2.766c.425.533.842.816 1.827.816.656 0 1.1-.08 1.463-.257l-2.997-3.459c1.684-.354 2.536-1.445 2.536-3.059 0-1.977-1.215-2.962-3.654-2.962l-3.476-.006c-1.135.045-1.498.425-1.498 1.463v8.131c.204.033.363.045.558.045 1.437 0 1.765-.434 1.765-1.188l-.02-2.288m0-1.888V5.654h2.27c.958 0 1.72.098 1.72 1.1 0 .85-.576 1.206-1.72 1.206h-2.27M118.077 5.647h1.933c.62 0 1.26-.23 1.26-1.463 0-.142-.008-.23-.046-.399h-7.378c-.62 0-1.259.23-1.259 1.463 0 .143.007.4.045.4h3.086v7.767c.169.026.373.045.577.045 1.454 0 1.782-.425 1.782-1.18V5.649M133.937 13.454c-.204 0-.408-.007-.603-.032a5.34 5.34 0 0 1-.506-.071V4.882c0-.283.09-.523.258-.718.177-.204.514-.302.993-.302.213 0 .417.007.612.026a3.3 3.3 0 0 1 .506.08v8.46c0 .283-.09.522-.266.726-.169.195-.505.302-.993.302M142.886 9.227l-.922-2.9c-.107-.39-.338-.372-.763-.328l-.984 3.219 2.669.007m-6.323 4.017l3.015-9.178c2.634-.497 3.99-.065 4.354 1.108l2.536 7.936c-.603.488-2.27.347-2.438-.168l-.532-1.676h-3.884l-.435 1.454c-.284.674-.984.913-2.616.523M89.183 9.274l-.93-2.926c-.116-.39-.338-.372-.772-.328l-.993 3.246 2.695.006M82.8 13.325l3.041-9.258c2.66-.506 4.026-.064 4.399 1.117l2.554 8.008c-.603.487-2.288.345-2.466-.177l-.532-1.685h-3.91l-.453 1.463c-.274.683-.984.922-2.633.532M111.917 10.645c0-1.57-1.02-2.332-2.642-2.686l-2.341-.648c-.524-.115-.95-.275-.95-.789 0-.568.444-.78 1.641-.78.852 0 1.233.106 2.51.106.594 0 1.188-.275 1.188-1.446 0-.142-.007-.301-.045-.443-.86-.07-1.889-.186-3.786-.186-2.865 0-3.955 1.233-3.955 2.82 0 1.48.94 2.297 2.589 2.687l2.341.656c.665.16 1.02.452 1.02.869 0 .559-.328.771-1.517.771-1.002 0-1.729-.097-3.006-.097-.594 0-1.197.265-1.197 1.436 0 .142.02.302.045.444.86.088 2.395.186 4.283.186 2.864 0 3.822-1.224 3.822-2.9M95.619 9.132c0 2.075 1.188 2.527 2.261 2.527 1.055 0 2.128-.488 2.128-2.421V4.822c0-1.419 1.88-1.01 2.51-.922v4.974c0 1.783-.408 4.665-4.638 4.665-4.442 0-4.673-3.166-4.673-4.611V4.893c0-1.508 1.862-1.126 2.403-1.01l.007 5.249M40.603 10.626c0-1.57-1.02-2.332-2.643-2.687l-2.855-.656c-.514-.106-.949-.266-.949-.789 0-.559.444-.78 1.64-.78 1.41 0 1.748.08 3.025.08.593 0 1.197-.275 1.197-1.446a2.6 2.6 0 0 0-.045-.443 54.97 54.97 0 0 0-4.31-.16c-2.864 0-3.955 1.233-3.955 2.82 0 1.49.931 2.305 2.59 2.696l2.855.665c.665.15 1.02.443 1.02.86 0 .558-.506.78-1.694.78-1.42 0-2.067-.106-3.343-.106-.594 0-1.198.275-1.198 1.445 0 .143.02.302.046.444.86.089 2.722.186 4.62.186 2.864 0 3.999-1.224 3.999-2.909M149.803 7.075c-.11-.095-.214-.184-.368-.441-.39-.632-.404-1.463.412-1.765l2.97-1.007h1.463v8.491c0 .647-.184 1.103-1.235 1.103-.412 0-.904-.04-1.103-.08V6.36l-2.14.714M64.117 9.988h1.197l2.306 2.75c.434.532.851.806 1.827.806.665 0 1.108-.089 1.472-.265L67.92 9.81c1.685-.354 2.537-1.454 2.537-3.068 0-1.986-1.215-2.962-3.663-2.962l-3.494-.019c-1.135.045-1.516.434-1.516 1.472v8.15c.177.025.382.044.577.044 1.445 0 1.773-.417 1.773-1.17l-.02-2.27m.02-1.907V5.678h2.261c.967 0 1.73.142 1.73 1.153 0 .851-.577 1.25-1.73 1.25h-2.26M41.64 13.387c.178.026.382.045.577.045 1.446 0 1.774-.417 1.774-1.17v-1.969h2.447c2.67 0 3.99-1.153 3.99-3.316 0-2.084-1.32-3.193-3.83-3.193h-3.44c-1.154 0-1.517.444-1.517 1.463v8.141m2.35-5.037V5.7h2.35c1.161 0 1.738.434 1.738 1.277 0 .913-.577 1.374-1.738 1.374h-2.35M55.901 13.416c1.517 0 2.678-.355 3.503-1.091.816-.718 1.233-2.013 1.233-3.857-.007-1.818-.426-3.086-1.277-3.831-.852-.736-2.004-1.109-3.459-1.109-1.454 0-2.607.373-3.458 1.109-.842.745-1.268 2.013-1.277 3.83 0 1.845.417 3.14 1.242 3.858.815.736 1.986 1.09 3.493 1.09m2.315-4.947c0 1.108-.186 1.88-.559 2.34-.354.48-.948.692-1.755.692-.825-.006-1.41-.24-1.783-.691-.372-.444-.567-1.224-.567-2.341 0-1.109.204-1.89.576-2.333.382-.461.967-.682 1.774-.682s1.383.222 1.755.682c.373.444.559 1.224.559 2.333M76.646 5.762h1.888c.621 0 1.25-.293 1.25-1.517 0-.142-.019-.319-.044-.461h-7.325c-.62 0-1.26.293-1.26 1.516 0 .142.02.31.046.462h3.095v7.626c.177.025.372.045.576.045 1.446 0 1.774-.417 1.774-1.17v-6.5"/></g><path d="M156.318 16.9c1.863 0 2.43-1.1 2.43-2.2V3.014c0-1.1-.568-2.199-2.43-2.199H2.43c-1.863 0-2.431 1.1-2.431 2.2V14.7c0 1.1.568 2.199 2.431 2.199h153.888M2.52 16.75c-1.248 0-2.105-.701-2.105-1.872V2.836c0-1.17.857-1.87 2.105-1.87h153.708c1.248 0 2.105.7 2.105 1.87v12.042c0 1.17-.857 1.871-2.105 1.871H2.51" fill="#9ea1a1"/><path d="M2.28 1.592c-1.109 0-1.527.416-1.527 1.666L.74 13.998c0 .674.047 1.124.15 1.124.034-.213.074-1.248 1.257-2.188.401-.293 1.015-.576 1.834-.851 1.584-.532 3.903-1.029 6.846-1.49.25-.045.52-.077.737-.11l2.215-.316c.375-.045.754-.093 1.072-.133a126.91 126.91 0 0 1 2.358-.276c1.02-.118 2.049-.22 2.913-.31.824-.085 1.657-.157 2.358-.222.791-.076 1.65-.15 2.369-.213a949.77 949.77 0 0 1 5.148-.4c1.323-.088 2.664-.177 4.052-.265 2.135-.123 4.295-.26 6.113-.353 1.229-.072 2.513-.128 3.573-.18.047-3.734.004-3.683.004 0 .818-.031 1.638-.083 2.466-.116 1.388-.064 2.786-.112 4.202-.166l2.54-.1h.003c.287-.006.568-.019.856-.025.878-.02 1.783-.058 2.536-.086h.006l4.688-.134c.847-.019 1.702-.045 2.55-.064.438-.007.875-.02 1.313-.026a226.07 226.07 0 0 0 2.47-.051c1.45-.032 2.936-.052 4.18-.074.849-.012 1.719-.025 2.45-.038 1.405-.02 2.833-.032 4.04-.045.86-.007 1.737-.013 2.47-.02 3.005-.019 5.913-.019 8.69-.006.84-.002 1.694.002 2.415.004.43.006.883.012 1.257.012.862.007 1.748.013 2.487.02.848.006 1.695.019 2.543.038.847.007 1.687.013 2.525.033l4.608.09c.92.019 1.855.045 2.644.064.392.007.792.02 1.128.026 1.137.038 2.294.068 3.27.096 3.28.116 6.632.25 9.473.39.858.038 1.738.087 2.48.126 1.546.09 3.055.175 4.527.273v.004c2.962.195 5.747.417 8.355.665.894.08 1.761.169 2.609.266a136.955 136.955 0 0 1 5.17.638c3.548.506 6.453 1.09 8.568 1.746 1.537.488 2.664 1.012 3.297 1.58 1.076 1.015 1.227 1.963 1.268 2.18.097-.012.137-.453.137-1.12V3.258c0-1.25-.429-1.666-1.537-1.666-.373 0-.744.193-1.247.193H3.528c-.442-.013-.884-.137-1.252-.194z" opacity=".4" fill="#fff"/></svg>