<?xml version="1.0" encoding="UTF-8"?>
<svg width="800" height="244.41" version="1.1" xmlns="http://www.w3.org/2000/svg">
	<g>
		<path d="m72.615 97.471c0 13.989-9.1094 24.14-27.719 26.157-13.404 1.4315-32.859-0.26027-42.098-1.3013-0.32534-1.4965-0.5856-3.3835-0.5856-4.88 0-12.168 6.5718-14.965 12.753-14.965 6.4416 0 16.592 1.1061 24.075 1.1061 8.3286 0 10.801-2.7979 10.801-5.4656 0-3.5136-3.3184-4.9451-9.7601-6.1814l-17.633-3.3835c-14.64-2.7979-22.448-12.883-22.448-23.619 0-13.013 9.2395-23.945 27.458-25.962 13.729-1.4965 30.516 0.1952 39.691 1.3013 0.32534 1.5616 0.52054 3.0582 0.52054 4.6848 0 12.168-6.4416 14.77-12.623 14.77-4.7499 0-12.102-0.84587-20.561-0.84587-8.5889 0-12.102 2.3424-12.102 5.2054 0 3.0582 3.3835 4.2944 8.719 5.2704l16.787 3.1232c17.308 3.1883 24.725 12.948 24.725 24.986m30.126 14.965c0 7.4827-2.928 11.777-17.568 11.777-1.952 0-3.6438-0.13014-5.2704-0.3904v-99.097c0-7.5478 2.5376-15.421 17.308-15.421 1.8869 0 3.7739 0.1952 5.5307 0.5856zm59.797 38.39c1.952 0.97601 5.856 2.2123 10.801 2.2774 8.5238 0.1952 13.144-3.0582 16.592-10.671l45.547-101.31c-1.8869-0.97601-6.0512-2.1472-9.4347-2.2123-5.856-0.13013-13.729 1.0411-18.739 13.013l-14.835 34.681-28.955-47.044c-1.8869-0.5856-6.4416-1.3664-9.7601-1.3664-10.281 0-15.941 3.7739-21.863 10.15l-28.109 30.712 22.643 35.592c4.1643 6.5067 9.695 9.8251 18.609 9.8251 5.856 0 10.736-1.3664 13.013-2.4075l-27.263-40.992 19.325-20.496 31.688 49.646z" fill="#ff0031"/>
		<path d="m789.2 0h-518.65c-5.9862 0-10.866 4.88-10.866 10.866v140.87c0 5.9862 4.88 10.866 10.866 10.866h518.58c5.9862 0 10.866-4.88 10.866-10.866v-140.94c-0.06507-5.9862-4.815-10.801-10.801-10.801" fill="url(#A)"/>
		<path d="m79.967 24.725v67.995c0-2.7328 2.0821-5.5958 5.5958-5.7259l11.452-0.3904c2.2773-0.06507 5.7259-1.6267 5.791-5.791v-70.923c-1.7568-0.3904-3.6438-0.5856-5.5307-0.5856-14.77 0.065067-17.308 7.8731-17.308 15.421m52.054 23.684-28.109 30.712 2.2774 3.5136c0.97601 1.3013 2.863 3.5136 6.6368 3.3835l16.007-0.5856c3.5136-0.13013 5.7259 1.3664 7.0923 3.1883l-5.0102-7.5478 19.325-20.496 12.948 20.366c2.3424 3.0582 5.856 3.1232 6.6368 3.1232 0.65067 0 17.698-0.5856 18.414-0.65067 1.1712-0.06507 2.5376 0.5856 3.5787 2.0821l-28.174-45.807c-1.8869-0.5856-6.4416-1.3664-9.7601-1.3664-10.281-0.06506-15.941 3.6438-21.863 10.085m-104.56-9.4347c-18.219 2.0171-27.458 12.883-27.458 25.962 0 6.7019 3.0582 13.144 8.9142 17.763 4.4246 2.928 8.9793 4.0342 13.469 4.815 3.7088 0.65067 12.363 1.2363 18.804 0.97601l20.041-0.71574c7.5478-0.26027 11.582 6.1814 11.192 12.623v-0.32534c0.06506-0.84586 0.13014-1.6917 0.13014-2.5376 0-12.037-7.4176-21.863-24.66-25.051l-16.787-3.1232c-5.4006-0.91094-8.719-2.2123-8.719-5.2704 0-2.863 3.5787-5.2704 12.102-5.2704 8.4587 0 15.811 0.84587 20.561 0.84587 6.1814 0 12.623-2.6027 12.623-14.77 0-1.6267-0.1952-3.1232-0.52054-4.6848-6.5718-0.7808-17.113-1.8869-27.588-1.8869-4.0992 0.06506-8.1985 0.26027-12.102 0.65067m179.72 12.948-14.38 33.9c0-0.06506 0.91094-2.6678 3.7088-2.7979l15.226-0.52054c4.6198-0.1952 6.4416-3.3184 6.9622-4.3595l16.657-37.153c-1.887-0.97601-6.0512-2.1472-9.4347-2.2123h-0.71574c-5.791 0.06506-13.209 1.6267-18.024 13.144" enable-background="new" fill="url(#B)" opacity=".3"/>
		<path d="m270.55 0c-5.9862 0-10.866 4.88-10.866 10.866v78.211c0-1.1712 0.45548-7.6129 7.8081-8.3286 0 0 0.39041-0.06507 1.0411-0.06507l523.4-18.349c4.0992-0.13013 8.0683-3.1883 8.0683-8.2635v-43.139c0-5.9862-4.88-10.866-10.866-10.866z" enable-background="new" fill="url(#C)" opacity=".3"/>
		<path d="m377.19 18.415c-4.3595 0-8.0672 3.3824-8.0672 8.0672 0 4.0992 3.6427 7.9385 8.0672 7.9385 4.4246 0 7.9385-3.7742 7.9385-7.9385 0-4.5547-3.4489-8.0672-7.9385-8.0672zm148.22 24.139c-20.952 0-37.933 16.593-37.933 39.431 0 23.684 16.332 39.821 40.016 39.821 10.931 0 21.212-3.2543 27.913-6.2474 0.7808-6.8971-1.5631-9.889-4.7514-9.889-1.3664 0-3.0572 0.65055-6.2455 1.8218-4.88 1.4966-9.8904 2.992-16.462 2.992-15.291 0-25.701-8.5245-27.588-23.295h59.275c0.45548-2.863 0.65071-5.4003 0.71583-7.8078 0-18.154-11.582-36.827-34.941-36.827zm-196.24 0.06437c-21.993 0-38.78 16.852-38.78 39.495 0 22.643 16.787 39.691 38.78 40.016 10.411 0 19.846-2.8621 26.548-6.0504 0.65068-6.8971-1.8869-9.7603-5.0752-9.7603-4.4246 0-9.4346 4.8801-21.017 4.8801-14.64 0-26.548-11.256-26.548-28.889s11.908-28.565 26.548-28.565c11.582 0 16.527 4.8801 21.017 4.8801 3.1883 0 5.7258-2.8631 5.0752-9.7603-6.5718-3.3835-16.007-6.2474-26.548-6.2474zm113.22 0c-11.517 0-19.976 5.5959-25.507 12.298v-6.5712c0-2.863-1.6931-4.7494-6.5732-4.7494-2.2123 0-4.5535 0.51923-5.7247 0.84456v75.935c1.1712 0.32533 3.5124 0.64952 5.7247 0.64952 4.9451 0 6.5732-1.7564 6.5732-4.7494v-48.735c4.0342-7.3526 13.794-13.73 22.838-13.73 11.387 1e-6 19.128 7.4172 19.128 23.033v43.4c1.2363 0.32534 3.7096 0.65146 5.7266 0.65146 5.0102 0 6.5712-1.7583 6.5712-4.7514v-40.991c0-22.513-13.077-32.469-28.758-32.534zm168.78 0c-9.3697 0-17.114 4.8815-21.994 11.453v-5.4009c0-3.1883-1.6263-5.0752-6.3762-5.0752-2.0171 0-4.4253 0.51923-5.7266 0.84456v75.804c1.0411 0.32534 3.5144 0.65146 5.7266 0.65146 5.0102 0 6.5712-1.7583 6.5712-4.7514v-50.036c2.863-6.1814 10.216-12.429 18.805-12.429 10.281 0 15.487 6.7035 15.487 17.96v48.604c1.3013 0.32534 3.6431 0.65146 5.8554 0.65146 5.0102 0 6.5712-1.7583 6.5712-4.7514v-50.036c2.863-6.1814 10.216-12.429 18.805-12.429 10.085 0 15.487 6.7035 15.487 17.96v48.604c1.2363 0.32534 3.7076 0.65146 5.7247 0.65146 5.0102 0 6.7019-1.7583 6.7019-4.7514v-45.872c0-15.161-8.7176-27.589-25.115-27.654-11.257 0-19.326 6.183-24.531 13.796-4.0342-8.5889-11.906-13.796-21.992-13.796zm122.78 0c-10.671 0-22.058 2.538-29.671 5.4009-0.7808 6.7019 1.2358 9.8909 4.7494 9.8909 1.2363 0 3.0585-0.58594 5.4009-1.2366 4.5547-1.4965 11.257-3.1891 19-3.1891 14.965 0 18.805 7.0275 18.805 18.805v2.0831c-33.77-2.2123-53.746 5.8553-53.746 24.334 0 12.233 9.4355 23.164 26.548 23.164 11.387 0 19.975-4.4899 27.198-12.103v6.3761c0 3.1883 2.0165 4.8158 6.5712 4.8158 2.2123 0 4.4253-0.32613 5.7266-0.65147v-48.474c0-18.024-8.2637-29.151-30.582-29.216zm-356.37 1.0416c-5.1403 0-6.7019 1.8865-6.7019 4.7494v71.835c1.2363 0.32534 3.6425 0.65073 5.7247 0.71583 5.0102 0 6.7019-1.7564 6.7019-4.7494v-71.704c-1.2363-0.32534-3.7076-0.84651-5.7247-0.84651zm147.9 9.9553c13.729 0 22.123 10.281 22.643 23.359h-47.693c2.0171-15.291 12.818-23.489 25.05-23.359zm218.55 29.922c2.6243 0.0081 5.3259 0.08085 8.075 0.20285v14.64c-5.856 7.808-14.639 13.08-25.05 13.08-10.216 0-15.941-6.2474-15.941-12.949 0-11.899 14.546-15.031 32.916-14.974z" fill="#fff"/>
		<path d="m454.94 179.37c-1.5313 0-2.8492 0.55151-3.9517 1.654s-1.654 2.4508-1.654 4.0434c0 1.5313 0.5515 2.8472 1.654 3.9497s2.4204 1.654 3.9517 1.654c1.5925 0 2.9389-0.55151 4.0414-1.654s1.654-2.4185 1.654-3.9497c0-1.5925-0.55151-2.9409-1.654-4.0434-1.1025-1.1025-2.4489-1.654-4.0414-1.654zm-33.718 7.6264c-1.2863 0-2.3284 0.15212-3.1247 0.45836-0.73501 0.30626-1.3169 0.73608-1.7457 1.2873-0.3675 0.55126-0.64326 1.1636-0.82701 1.8374-0.1225 0.67376-0.18334 1.3774-0.18334 2.1124v6.341h-3.9517c-0.98002 0-1.8053 0.30617-2.4791 0.91868-0.61251 0.6125-0.91868 1.6831-0.91868 3.2144 0 0.67375 0.0304 1.3489 0.0917 2.0226 0.0613 0.67375 0.15252 1.2233 0.27502 1.6521h6.9828v21.775c0 2.2663 0.33659 4.3486 1.0104 6.2474 0.67375 1.8375 1.6531 3.4616 2.9394 4.8704 1.2862 1.3475 2.8495 2.4182 4.687 3.2144 1.8988 0.73501 4.042 1.104 6.4308 1.104 2.6338 0 4.9311-0.30812 6.8911-0.92062 2.0213-0.61252 3.9192-1.4378 5.6954-2.4791 0.0613-0.30626 0.0917-0.61244 0.0917-0.91869v-1.0123c0-1.715-0.3366-2.9701-1.0104-3.7664s-1.5923-1.1937-2.756-1.1937c-0.49 0-1.0111 0.0913-1.5624 0.27501-0.48999 0.18376-1.0415 0.39866-1.654 0.64366-0.55126 0.245-1.194 0.45991-1.929 0.64366-0.73501 0.18376-1.5623 0.27503-2.481 0.27503-2.1438 0-3.7659-0.64278-4.8684-1.929s-1.654-3.0929-1.654-5.4204v-21.409h12.128c0.98001 0 1.7749-0.30616 2.3874-0.91868 0.67376-0.6125 1.0123-1.6831 1.0123-3.2144s-0.15407-2.756-0.46032-3.6747h-15.068v-11.393c-1.1638-0.42875-2.4797-0.64366-3.9498-0.64366zm-161.24 11.209c-3.0625 0-5.9113 0.58192-8.5451 1.7457-2.6338 1.1638-4.9291 2.7859-6.8891 4.8684-1.8988 2.0213-3.4012 4.4402-4.5037 7.2578-1.1025 2.7563-1.6521 5.7895-1.6521 9.0971 0 3.3075 0.51912 6.3997 1.5604 9.2785 1.1025 2.8175 2.6658 5.2669 4.687 7.3494 2.0213 2.0825 4.5011 3.7066 7.4411 4.8704 2.94 1.1638 6.2775 1.7457 10.014 1.7457 3.4913 0 6.6158-0.36703 9.3721-1.102 2.7563-0.79625 5.0536-1.6235 6.8911-2.481 0.0613-0.36751 0.0917-0.73453 0.0917-1.102 0.0613-0.36751 0.0917-0.70605 0.0917-1.0123 0-1.6538-0.36703-2.9697-1.102-3.9497-0.67376-0.98001-1.5619-1.4707-2.6644-1.4707-0.79626 0-1.5931 0.12364-2.3894 0.36864-0.79625 0.245-1.6844 0.55117-2.6644 0.91868-0.98 0.30625-2.083 0.582-3.308 0.82701-1.225 0.245-2.6646 0.36669-4.3184 0.36669-3.8588 0-6.9814-0.91852-9.3702-2.756-2.3275-1.8988-3.7063-4.6239-4.135-8.1765h31.881c0.30625-1.5313 0.46031-3.0621 0.46031-4.5934 0-2.7563-0.46024-5.453-1.379-8.0867-0.8575-2.6338-2.1735-4.9919-3.9497-7.0744-1.715-2.0825-3.8906-3.7351-6.5244-4.9601-2.6338-1.2863-5.6651-1.929-9.0951-1.929zm50.992 0c-2.5725 0-4.9611 0.70362-7.1661 2.1124-2.205 1.3475-3.9508 3.0325-5.2371 5.0537l-0.0917-1.104c0-1.715-0.42982-3.0614-1.2873-4.0414-0.79626-1.0413-2.1426-1.5624-4.0414-1.5624-0.8575 0-1.6543 0.0913-2.3894 0.27502-0.67375 0.1225-1.347 0.27656-2.0207 0.46032v44.101c0.49 0.1225 1.1936 0.21377 2.1124 0.27502 0.98 0.1225 1.929 0.18334 2.8477 0.18334 1.96 0 3.2779-0.39744 3.9517-1.1937 0.73501-0.79625 1.102-1.806 1.102-3.0311v-27.196c0.79626-1.5313 1.9601-2.8492 3.4914-3.9517 1.5925-1.1638 3.3687-1.7457 5.3287-1.7457 2.5725 0 4.5332 0.79685 5.8807 2.3894 1.4088 1.5313 2.1124 3.7981 2.1124 6.7994v27.471c0.49 0.1225 1.1936 0.21377 2.1124 0.27502 0.98001 0.1225 1.9309 0.18334 2.8497 0.18334 1.96 0 3.276-0.39744 3.9497-1.1937 0.73501-0.79625 1.102-1.806 1.102-3.0311v-27.104c0.79626-1.5925 1.9601-2.9408 3.4914-4.0434 1.5313-1.1638 3.4007-1.7457 5.6057-1.7457 2.3275 0 4.195 0.76642 5.6038 2.2977 1.4088 1.47 2.1124 3.7673 2.1124 6.8911v27.471c0.49001 0.1225 1.1956 0.21377 2.1143 0.27502 0.98001 0.1225 1.929 0.18334 2.8477 0.18334 1.96 0 3.276-0.39744 3.9498-1.1937 0.73501-0.79625 1.104-1.806 1.104-3.0311v-24.715c0-5.2063-1.1943-9.3102-3.583-12.311-2.3275-3.0013-5.9123-4.5017-10.751-4.5017-2.94 0-5.5739 0.76445-7.9014 2.2957-2.2663 1.47-4.2859 3.676-6.0621 6.6161-1.0413-2.94-2.7566-5.146-5.1454-6.6161-2.3275-1.5313-4.9918-2.2957-7.9931-2.2957zm234.56 0c-3.1238 0-5.9402 0.70362-8.4515 2.1124-2.45 1.3475-4.4411 3.0933-5.9724 5.2371l-0.0917-1.2873c0-1.715-0.42981-3.0614-1.2873-4.0414-0.79625-1.0413-2.1426-1.5624-4.0414-1.5624-0.8575 0-1.6543 0.0913-2.3893 0.27502-0.67376 0.1225-1.347 0.27656-2.0207 0.46032v44.101c0.49001 0.1225 1.1936 0.21377 2.1124 0.27502 0.98001 0.1225 1.929 0.18334 2.8477 0.18334 1.96 0 3.2779-0.39744 3.9517-1.1937 0.73501-0.79625 1.102-1.806 1.102-3.0311v-26.921c1.0413-1.8375 2.5417-3.3075 4.5017-4.41 2.0213-1.1025 4.0124-1.654 5.9724-1.654 3.1238 0 5.5428 0.91852 7.2578 2.756 1.715 1.8375 2.5727 4.7167 2.5727 8.6368v25.358c0.49001 0.1225 1.1936 0.21377 2.1124 0.27502 0.98001 0.1225 1.9309 0.18334 2.8497 0.18334 1.96 0 3.276-0.39744 3.9498-1.1937 0.735-0.79625 1.102-1.806 1.102-3.0311v-22.694c0-6.0638-1.4377-10.719-4.3164-13.966-2.8788-3.2463-6.8002-4.8684-11.761-4.8684zm-163.17 0.0917c-3.3688 0-6.4629 0.61235-9.2804 1.8374-2.8175 1.225-5.2365 2.8776-7.2578 4.9601-2.0213 2.0825-3.615 4.5339-4.7787 7.3514-1.1025 2.7563-1.6521 5.6963-1.6521 8.8201 0 3.2463 0.54956 6.2776 1.6521 9.0951s2.6658 5.2669 4.687 7.3494c2.0213 2.0213 4.4402 3.6454 7.2578 4.8704 2.8175 1.1638 5.9421 1.7457 9.3721 1.7457s6.5526-0.61234 9.3702-1.8374c2.8175-1.225 5.2061-2.8795 7.1661-4.962 2.0213-2.0825 3.5521-4.5319 4.5934-7.3494 1.1025-2.8175 1.654-5.788 1.654-8.9118 0-3.1238-0.55151-6.0638-1.654-8.8201-1.1025-2.8175-2.6638-5.2689-4.6851-7.3514-1.96-2.0825-4.3486-3.7351-7.1661-4.9601-2.8175-1.225-5.9097-1.8374-9.2785-1.8374zm108.41 0c-3.3688 0-6.461 0.61235-9.2785 1.8374-2.8175 1.225-5.2365 2.8776-7.2578 4.9601-2.0213 2.0825-3.6149 4.5339-4.7787 7.3514-1.1025 2.7563-1.654 5.6963-1.654 8.8201 0 3.2463 0.5515 6.2776 1.654 9.0951 1.1025 2.8175 2.6638 5.2669 4.6851 7.3494 2.0213 2.0213 4.4422 3.6454 7.2597 4.8704 2.8175 1.1638 5.9401 1.7457 9.3702 1.7457 3.43 0 6.5546-0.61234 9.3721-1.8374 2.8175-1.225 5.2061-2.8795 7.1661-4.962 2.0213-2.0825 3.5522-4.5319 4.5934-7.3494 1.1025-2.8175 1.654-5.788 1.654-8.9118 0-3.1238-0.55151-6.0638-1.654-8.8201-1.1025-2.8175-2.6638-5.2689-4.6851-7.3514-1.96-2.0825-4.3486-3.7351-7.1661-4.9601-2.8175-1.225-5.9116-1.8374-9.2804-1.8374zm-35.831 0.3667c-1.8988 0-3.2167 0.39743-3.9517 1.1937-0.73501 0.79624-1.102 1.808-1.102 3.033v40.609c0.49001 0.1225 1.1936 0.21377 2.1124 0.27502 0.91876 0.1225 1.8373 0.18334 2.756 0.18334 1.96 0 3.3084-0.39744 4.0434-1.1937 0.73501-0.79625 1.102-1.806 1.102-3.0311v-40.609c-0.49001-0.1225-1.1936-0.21572-2.1124-0.27697-0.91876-0.1225-1.8677-0.18334-2.8477-0.18334zm-194.96 7.3494c3.5525 0 6.2777 1.1334 8.1764 3.3997 1.96 2.205 3.0934 4.9625 3.3997 8.2701h-23.061c0.30626-3.4913 1.4397-6.3097 3.3997-8.4534 2.0213-2.1438 4.716-3.2164 8.0848-3.2164zm122.38 0.55198c1.715 0 3.3372 0.33661 4.8684 1.0104 1.5313 0.67376 2.8472 1.6551 3.9497 2.9414 1.1638 1.225 2.0842 2.7559 2.758 4.5934s1.0104 3.8895 1.0104 6.1558c0 2.5113-0.36702 4.6849-1.102 6.5224-0.73501 1.8375-1.7163 3.3684-2.9413 4.5934-1.1638 1.225-2.5101 2.1435-4.0414 2.756-1.47 0.61251-2.9705 0.91867-4.5017 0.91867-1.5925 0-3.1558-0.30616-4.687-0.91867-1.5313-0.6125-2.9081-1.531-4.1331-2.756-1.1638-1.2863-2.1146-2.8476-2.8497-4.6851s-1.102-3.9807-1.102-6.4308c0-2.2663 0.33659-4.3182 1.0104-6.1558 0.73501-1.8375 1.684-3.3684 2.8477-4.5934 1.225-1.2863 2.6038-2.2676 4.135-2.9414 1.5313-0.67375 3.1249-1.0104 4.7787-1.0104zm108.41 0c1.715 0 3.3391 0.33661 4.8704 1.0104 1.5313 0.67376 2.8472 1.6551 3.9497 2.9414 1.1638 1.225 2.0823 2.7559 2.756 4.5934 0.67376 1.8375 1.0104 3.8895 1.0104 6.1558 0 2.5113-0.36702 4.6849-1.102 6.5224-0.73501 1.8375-1.7144 3.3684-2.9394 4.5934-1.1638 1.225-2.5121 2.1435-4.0434 2.756-1.47 0.61251-2.9705 0.91867-4.5017 0.91867-1.5925 0-3.1538-0.30616-4.6851-0.91867-1.5313-0.6125-2.91-1.531-4.135-2.756-1.1638-1.2863-2.1127-2.8476-2.8477-4.6851s-1.102-3.9807-1.102-6.4308c0-2.2663 0.3366-4.3182 1.0104-6.1558 0.735-1.8375 1.684-3.3684 2.8477-4.5934 1.225-1.2863 2.6038-2.2676 4.135-2.9414 1.5313-0.67375 3.123-1.0104 4.7768-1.0104z" fill="#fff"/>
	</g>
	<defs>
		<linearGradient id="A" x1="414.37" x2="1244.6" y1="289.84" y2="289.84" gradientTransform="matrix(.65067 0 0 .65067 -9.8251 -107.3)" gradientUnits="userSpaceOnUse">
			<stop stop-color="#ff0031" offset="0"/>
			<stop stop-color="#9b001f" offset="1"/>
		</linearGradient>
		<linearGradient id="B" x1="197.48" x2="194.59" y1="295.14" y2="212.24" gradientTransform="matrix(.65067 0 0 .65067 -9.8251 -107.3)" gradientUnits="userSpaceOnUse">
			<stop stop-color="#fff" offset="0"/>
			<stop stop-color="#fff" stop-opacity=".25" offset=".515"/>
		</linearGradient>
		<linearGradient id="C" x1="830.55" x2="826.25" y1="276.73" y2="153.47" gradientTransform="matrix(.65067 0 0 .65067 -9.8251 -107.3)" gradientUnits="userSpaceOnUse">
			<stop stop-color="#fff" offset="0"/>
			<stop stop-color="#fff" stop-opacity=".25" offset=".515"/>
		</linearGradient>
	</defs>
</svg>
