<?xml version="1.0" encoding="UTF-8"?>
<svg width="800" height="96.696" version="1.1" xmlns="http://www.w3.org/2000/svg">
	<path d="m793.55 0h-632.64c-3.5454 0-6.4461 2.9007-6.4461 6.4461v83.803c0 3.5454 2.9007 6.4461 6.4461 6.4461h632.64c3.5454 0 6.4461-2.9007 6.4461-6.4461v-83.803c0-3.5454-2.9007-6.4461-6.4461-6.4461z" fill="#e90000"/>
	<path d="m214.59 9.75c-3.1426 0-4.2715 1.2073-4.2715 2.9805v20.467c-3.4654-4.6729-8.946-7.8965-15.795-7.8965-11.604 0-21.918 8.785-21.918 23.611s10.314 23.689 21.918 23.689c6.8499 0 12.41-3.2226 15.795-7.8965v3.7891c0 2.4179 1.0469 3.625 4.1895 3.625 1.3694 0 2.9022-0.24062 3.5469-0.5625v-61.404a16.329 16.329 0 0 0-3.4648-0.4023zm466.4 1.1289c-2.6598 0-4.916 2.0934-4.916 4.9141 0 2.4988 2.2572 4.916 4.916 4.916 2.8198 0 4.9941-2.3372 4.9941-4.916 0-2.8207-2.1734-4.9141-4.9941-4.9141zm-118.29 5.0762c-3.0616 0-4.1895 1.2886-4.1895 3.3027v39.162c0 8.8631 5.3989 14.182 14.424 14.182 4.5929 0 9.1846-1.2085 13.133-3.1426 0.48377-3.7873-0.64439-5.6406-2.9004-5.6406-2.176 0-4.6727 2.0156-9.2656 2.0156-4.9958 0-7.4941-2.5779-7.4941-7.8965v-24.738h15.148c1.6922 0 2.8203-0.96727 2.8203-3.707 0-1.1285-0.23941-2.4979-0.32031-3.1426h-17.729v-9.9102c-0.80565-0.16188-2.3375-0.48438-3.627-0.48438zm-161.24 9.2656c-5.4795 0-9.993 2.9013-12.975 6.7695v-3.1426c0-2.0141-0.96562-3.1426-3.9473-3.1426-1.4504 0-2.9814 0.2414-3.707 0.40234v45.609c0.80564 0.24188 2.3376 0.40234 3.627 0.40234 3.1426 0 4.1894-1.0464 4.1894-2.9805v-29.896c1.6922-3.5454 5.8831-7.0898 10.879-7.0898 5.9633 0 9.1055 3.9467 9.1055 10.555v29.01c0.80564 0.24188 2.3376 0.40234 3.627 0.40234 3.1426 0 4.1894-1.0464 4.1894-2.9805v-29.896c1.6922-3.5454 5.8832-7.0898 10.879-7.0898 5.9633 0 9.1055 3.9467 9.1055 10.555v29.01c0.80563 0.24188 2.3375 0.40234 3.627 0.40234 3.1426 0 4.1894-1.0464 4.1894-2.9805v-27.398h-2e-3c0-9.1859-5.0768-16.52-14.988-16.52-6.6889 0-11.441 3.4668-14.584 8.2207-2.4169-5.1576-7.1716-8.2207-13.215-8.2207zm361.16 0c-12.248 0-17.648 6.0436-17.648 12.893 0 5.4795 3.4662 9.9912 12.41 12.328l8.0586 2.1777c7.0099 1.9341 8.1387 4.1888 8.1387 6.7676 0 3.6264-2.9003 6.3672-10.717 6.3672-7.4136 0-12.732-2.3379-14.908-2.3379-2.3369 0-3.5462 2.0947-2.9824 6.043l-2e-3 2e-3c4.432 1.6922 11.765 3.1415 17.729 3.0605 13.296 0 18.775-6.3662 18.775-13.457 0-6.0442-3.7067-10.314-12.893-12.893l-8.2188-2.2559c-6.4461-1.8532-7.4941-3.9471-7.4941-6.2031 0-3.2235 2.6603-5.7227 9.9121-5.7227 6.6889 0 11.442 2.0137 13.537 2.0137 2.3369 0 3.546-2.0947 2.8203-5.9629-4.1901-1.6122-11.038-2.8203-16.518-2.8203zm-286.38 2e-3c-12.409 0-22.562 9.8305-22.562 23.529 0 14.263 9.589 23.852 23.852 23.852 6.6071 0 12.813-2.0139 16.922-3.7871 0.40282-4.1901-1.0486-5.9629-3.2246-5.9629-0.80565 0-1.6128 0.32014-3.627 0.96484-2.8207 0.96659-5.8818 1.6934-9.75 1.6934-9.0249 0-15.068-4.9153-16.115-13.779h35.293l2e-3 2e-3c0.16095-1.6113 0.24301-3.2243 0.16211-4.5938 0-11.04-6.9305-21.918-20.951-21.918zm53.584 0c-6.688 0-11.765 3.2229-15.068 7.332v-3.8672c0-1.8532-1.0488-2.9824-4.1914-2.9824-1.3704 0-2.8994 0.2414-3.625 0.40234v45.77c0.80565 0.24188 2.3356 0.4043 3.625 0.4043 3.1426 0 4.1914-1.2092 4.1914-2.9824v-29.17c2.3369-4.2701 7.9772-7.8965 13.215-7.8965 6.7689 0 11.201 4.3511 11.201 13.457v26.107c0.80565 0.24188 2.3356 0.4043 3.625 0.4043 3.1426 0 4.1914-1.2092 4.1914-2.9824v-24.576h-2e-3c0-13.538-7.8144-19.42-17.162-19.42zm186.95 0c-12.409 0-22.562 9.8305-22.562 23.529 0 14.263 9.589 23.852 23.852 23.852 6.607 0 12.813-2.0139 16.922-3.7871 0.40282-4.1901-1.0486-5.9629-3.2246-5.9629-0.80565 0-1.6109 0.32014-3.625 0.96484-2.8207 0.96659-5.8837 1.6934-9.752 1.6934-9.0249 0-15.068-4.9153-16.115-13.779h35.295l2e-3 2e-3c0.16094-1.6113 0.24106-3.2243 0.16016-4.5938 0-11.04-6.9305-21.918-20.951-21.918zm-465.67 0.07813c-13.377 0-23.369 10.073-23.369 23.611 0 13.457 9.9931 23.689 23.369 23.689 13.457 0 23.449-10.233 23.449-23.689 0-13.538-9.9923-23.611-23.449-23.611zm53.586 0c-13.134 0-23.126 10.072-23.127 23.609v2e-3c9.7e-4 13.456 9.9125 23.689 23.127 23.77 6.2042 0 11.925-1.691 15.873-3.7051 0.56377-4.2701-0.8062-6.043-2.8203-6.043-3.0616 0-5.8815 2.8203-12.73 2.8203-8.5412 0-15.553-6.4474-15.553-16.762 0-10.475 7.0116-16.84 15.553-16.84 6.769 0 9.6691 2.7383 12.973 2.7383 1.9341 0 3.2228-1.6918 2.5781-5.9629-4.0282-1.9341-9.6688-3.627-15.873-3.627zm307.41 2e-3c-6.4461 0-13.133 1.6125-17.807 3.3047-0.80565 3.9482 0.64431 5.8828 2.8203 5.8828 0.96753 0 2.0956-0.32374 3.627-0.72656 2.5779-0.64471 7.4127-1.6914 11.039-1.6914 8.6221 0 10.877 3.1411 10.877 10.635v1.6113c-20.064-1.3694-31.828 3.4668-31.828 14.506 0 7.2518 5.6396 13.859 15.793 13.859 6.688 0 12.008-2.7402 16.117-7.4141v3.9492c0 1.9341 1.3688 2.9805 4.1894 2.9805a17.958 17.958 0 0 0 3.5449-0.40234v-29.25c0-11.281-4.9161-17.325-18.373-17.244zm-279.29 0.40234c-3.1426 0-4.1914 1.2073-4.1914 2.9805v24.578c0 13.457 7.8172 19.34 17.084 19.34 6.688 0 11.765-3.2229 15.068-7.332v3.9473c0 1.8532 1.0469 2.9824 4.1895 2.9824 1.3704 0 2.9013-0.24336 3.627-0.4043v-45.69c-0.72471-0.16094-2.2555-0.40234-3.5449-0.40234-3.1426 0-4.1914 1.2073-4.1914 2.9805v29.09c-2.3369 4.2701-7.9772 7.8965-13.215 7.8965-6.7689 0-11.201-4.3511-11.201-13.457v-26.107c-0.80566-0.24188-2.3356-0.40234-3.625-0.40234zm313.29 0c-1.3704 0-2.8994 0.2414-3.625 0.40234v45.609c0.80565 0.24188 2.3356 0.4043 3.625 0.4043 3.1426 0 4.1914-1.0483 4.1914-2.9824v-25.705c3.3845-7.0918 8.9436-10.154 15.471-10.154 3.3028 0 4.5912-0.64442 4.5918-3.7852v-2e-3c-2.3e-4 -1.3698-0.24148-2.8205-0.40234-3.4648-8.4602-1.1285-15.228 2.2564-19.66 9.0254v-6.3652c0-1.8532-1.0488-2.9824-4.1914-2.9824zm35.213 0c-3.1426 0-4.1895 1.2073-4.1895 2.9805v43.111c0.72565 0.16094 2.2575 0.3214 3.627 0.40234 3.1426 0 4.1094-1.0464 4.1094-2.9805v-43.111c-0.80564-0.24188-2.2575-0.40234-3.5469-0.40234zm-204.91 6.125c8.0574 0 13.053 6.0429 13.375 13.859h-28.041c1.2085-9.0249 7.5752-13.859 14.666-13.859zm240.53 0c8.0574 0 13.055 6.0429 13.377 13.859h-28.041c1.2085-9.0249 7.5732-13.859 14.664-13.859zm-520.87 0.24023c6.2052 0 11.765 3.4663 14.344 8.623v16.438c-2.5788 5.1576-8.1395 8.6222-14.344 8.7031-8.944 0-15.471-6.8494-15.471-16.922 0-9.9925 6.5267-16.842 15.471-16.842zm55.037 0c8.5412 0 15.553 6.3665 15.553 16.842 1e-5 10.313-7.0116 16.841-15.553 16.922-8.4602 0-15.471-6.6075-15.471-16.922 0-10.475 7.0095-16.842 15.471-16.842zm366.83 17.496c1.5544 0.03081 3.161 0.10964 4.8027 0.23047v8.703c-3.3035 4.512-8.6238 7.5751-14.748 7.4941-5.9633 0-9.2656-3.626-9.2656-7.5742 0-6.9094 8.3298-9.0692 19.211-8.8535z" fill="#d5d5d5"/>
	<linearGradient id="A" x1="507.36" x2="505.58" y1="40.795" y2="-10.371" gradientTransform="scale(.94118)" gradientUnits="userSpaceOnUse">
		<stop stop-color="#fff" offset="0"/>
		<stop stop-color="#fff" stop-opacity=".25" offset="1"/>
	</linearGradient>
	<path d="m159.07 47.945h0.64471l635.46-22.16c2.4169-0.080941 4.8348-1.8532 4.8348-4.9158v-14.424c0-3.5454-2.9007-6.4461-6.4461-6.4461h-632.64c-3.5454 0-6.4461 2.9007-6.4461 6.4461v46.575c0-0.56376 0.0809-4.5929 4.5929-5.0767z" fill="url(#A)" opacity=".3"/>
	<path d="m96.616 89.767c1.1285 0.56376 3.4654 1.2894 6.4461 1.3694 5.0767 0.08094 7.8165-1.8532 9.8306-6.3661l27.075-60.274c-1.1285-0.56376-3.6264-1.2894-5.6405-1.2894-3.4645-0.08094-8.1384 0.64471-11.12 7.7355l-8.7831 20.629-17.163-27.961c-1.1285-0.32188-3.8682-0.80565-5.8014-0.80565-6.1242 0-9.5087 2.256-12.973 6.0433l-16.761 18.212 13.457 21.112c2.4979 3.8682 5.7214 5.8014 11.039 5.8014 3.4654 0 6.3661-0.80565 7.7355-1.4504l-16.196-24.255 11.443-12.168 18.856 29.493zm-35.536-22.805c0 4.432-1.7732 7.0108-10.475 7.0108-1.1285 0-2.176-0.08094-3.1426-0.24188v-58.984c0-4.5129 1.5313-9.1859 10.314-9.1859 1.1285 0 2.256 0.080941 3.3035 0.32188zm-17.969-8.944c0 8.2993-5.3986 14.344-16.439 15.552-7.9774 0.88659-19.581-0.16094-25.061-0.80565-0.16094-0.88659-0.32188-2.0141-0.32188-2.9007 0-7.2518 3.8682-8.864 7.5746-8.864 3.7873 0 9.8306 0.64471 14.344 0.64471 4.9158 0 6.4461-1.6922 6.4461-3.2235 0-2.0951-1.9341-2.9007-5.8014-3.7064l-10.475-2.0141c-8.7031-1.6122-13.377-7.6555-13.377-14.022 0-7.7355 5.4795-14.263 16.278-15.391 8.1384-0.88659 18.131 0.080942 23.61 0.80565 0.16094 0.88659 0.32188 1.8532 0.32188 2.8207 0 7.2518-3.7873 8.7831-7.4936 8.7831-2.8207 0-7.1718-0.48376-12.248-0.48376s-7.1718 1.3694-7.1718 3.1426c0 1.8532 2.0141 2.5788 5.2376 3.1426l9.9915 1.8532c10.153 1.6922 14.585 7.4936 14.585 14.665z" fill="#e90000"/>
	<linearGradient id="B" x1="75.071" x2="73.869" y1="54.086" y2="19.676" gradientTransform="scale(.94118)" gradientUnits="userSpaceOnUse">
		<stop stop-color="#fff" offset="0"/>
		<stop stop-color="#fff" stop-opacity=".25" offset="1"/>
	</linearGradient>
	<path d="m139.97 24.496-9.9115 22.079c-0.32188 0.56376-1.3694 2.4979-4.1092 2.5788l-9.0249 0.32188c-1.6113 0.08094-2.176 1.6113-2.176 1.6113l8.5412-20.145c2.9816-7.0908 7.6555-7.8165 11.12-7.7355 1.9341 0 4.432 0.64471 5.5605 1.2894zm-25.946 26.35-16.76-27.236c-1.1285-0.32188-3.8682-0.80565-5.8014-0.80565-6.1242 0-9.5087 2.256-12.973 6.0433l-16.762 18.211 1.3694 2.0951c0.56376 0.80565 1.6922 2.0951 3.9482 2.0141 0.80565 0 8.864-0.32188 9.5087-0.32188 2.0951-0.08094 3.3845 0.80565 4.1901 1.8532l-2.9816-4.5129 11.443-12.168 7.7355 12.087c1.3694 1.8532 3.4654 1.8532 3.9482 1.8532 0.40282 0 10.475-0.40282 10.959-0.40282 0.72564 0 1.5313 0.40282 2.176 1.2894zm-56.246-45.286c-8.7831 0-10.233 4.6739-10.233 9.1859v40.451c0-1.6113 1.2894-3.3035 3.3035-3.3845 1.4504-0.08094 5.5605-0.16094 6.7689-0.24188 1.3694-0.08094 3.3845-0.96659 3.4654-3.4654v-42.223c-1.0475-0.16094-2.176-0.32188-3.3035-0.32188zm-29.331 37.63-9.9915-1.8532c-3.2235-0.56376-5.2376-1.2894-5.2376-3.1426 0-1.6922 2.0951-3.1426 7.1718-3.1426 4.9958 0 9.4278 0.48376 12.248 0.48376 3.7064 0 7.4936-1.5313 7.4936-8.7831 0-0.96659-0.08094-1.8532-0.32188-2.8207-5.4795-0.64471-15.391-1.6922-23.61-0.80565-10.718 1.2894-16.198 7.8165-16.198 15.552 0 3.9482 1.7732 7.8165 5.3186 10.556 2.6588 1.6922 5.3186 2.4169 8.0584 2.9007 2.256 0.40282 7.3327 0.72565 11.201 0.56376 1.2085-0.08094 9.9915-0.32188 11.926-0.40282 4.432-0.16094 6.9299 3.6264 6.608 7.4936v-0.24188c0.08094-0.48376 0.08094-0.96659 0.08094-1.5313-0.08094-7.1718-4.5129-12.973-14.746-14.826z" fill="url(#B)" opacity=".3"/>
</svg>
