<?xml version="1.0" encoding="UTF-8"?>
<svg width="800" height="107.52" version="1.1" xmlns="http://www.w3.org/2000/svg">
	<path d="m437.92 0c-3.9566 0-7.1604 3.2042-7.1604 7.1609v93.195c0 3.9566 3.2038 7.1609 7.1604 7.1609h354.92c3.9566 0 7.1604-3.2042 7.1604-7.1609v-93.195c0-3.9566-3.2038-7.1609-7.1604-7.1609zm0 2.1503h354.92c2.774 0 5.0101 2.2581 5.0101 5.0105v93.195c0 2.774-2.2576 5.0105-5.0101 5.0105h-354.92c-2.7524 0-5.0101-2.2366-5.0101-5.0105v-93.195c0-2.7524 2.2576-5.0105 5.0101-5.0105z" fill="#cbcbcb"/>
	<path d="m437.92 2.1503c-2.7524 0-5.0101 2.2581-5.0101 5.0105v93.195c0 2.774 2.2576 5.0105 5.0101 5.0105h354.92c2.7524 0 5.0105-2.2361 5.0105-5.0101v-93.196c0-2.7524-2.2366-5.0105-5.0105-5.0105z" fill="#fff"/>
	<g fill="#002a91">
		<path d="m676.96 19.16c-2.4513 0-4.5586 1.9352-4.5586 4.5586 0 2.3438 2.1072 4.5371 4.5586 4.5586 2.6448 0 4.6445-2.1933 4.6445-4.5586 0-2.6233-2.0211-4.5586-4.6445-4.5586zm-63.5 4.752c-2.7954 0-3.8496 1.2034-3.8496 3.0527v36.125c0 8.1283 4.9888 13.031 13.311 13.031 4.1929 0 8.3855-1.1391 12.062-2.9023h2e-3c0.42999-3.4835-0.62319-5.2481-2.709-5.2266-2.0213 0-4.387 1.8496-8.5801 1.8496-4.6232 0-6.9023-2.3649-6.9023-7.2676v-22.836h13.998c1.5698 0 2.623-0.88057 2.623-3.418 0-1.0536-0.17181-2.2807-0.25781-2.8828h-16.363v-9.0957c-0.7096-0.17202-2.1083-0.42969-3.334-0.42969zm-119.15 8.5137c-5.9563 0-12.17 1.485-16.449 3.0547-0.7096 3.677 0.62327 5.418 2.623 5.418 0.86011 0 1.9148-0.34345 3.3125-0.6875 2.3653-0.60208 6.8155-1.5703 10.148-1.5703 7.9776 0 10.064 2.9022 10.064 9.8047v1.4844c-18.471-1.2042-29.309 3.2471-29.309 13.396 0 6.6444 5.1598 12.773 14.535 12.773 6.1929 0 11.096-2.5373 14.859-6.8164v3.6758c0 1.7417 1.2243 2.7109 3.8477 2.7109 1.2257 0 2.5384-0.17368 3.248-0.3457v-26.943c0-10.407-4.5596-15.934-16.881-15.955zm213.91 0c-5.9563 0-12.17 1.485-16.449 3.0547-0.7096 3.677 0.62326 5.418 2.623 5.418 0.86012 0 1.9128-0.34345 3.3106-0.6875 2.3653-0.60208 6.8174-1.5703 10.15-1.5703 7.9776 0 10.062 2.9022 10.062 9.8047v1.4844c-18.471-1.2042-29.309 3.2471-29.309 13.396 0 6.6444 5.1618 12.773 14.537 12.773 6.1929 0 11.094-2.5373 14.857-6.8164v3.6758c0 1.7417 1.2262 2.7109 3.8496 2.7109 1.2257 0 2.5384-0.17368 3.248-0.3457v-26.943c0-10.407-4.5596-15.934-16.881-15.955zm-124.22 0.044922c-11.289 0-16.279 5.5902-16.279 11.891 0 5.0746 3.2253 9.1817 11.461 11.375l7.4414 2c6.4939 1.7418 7.5254 3.8495 7.5254 6.2148 0 3.3114-2.7086 5.8477-9.8691 5.8477-6.8375 0-11.74-2.1934-13.74-2.1934-2.0858 0-3.225 1.9363-2.709 5.6133 4.1072 1.5909 10.859 2.9024 16.234 2.8809 12.256 0 17.33-5.8693 17.33-12.428 0-5.5906-3.3969-9.5273-11.891-11.893l-7.6113-2.0859c-5.9349-1.6772-6.9024-3.59-6.9024-5.6973 0-2.9674 2.4513-5.2461 9.0957-5.2461 6.2146 0 10.578 1.8477 12.514 1.8477 2.1718 0 3.3112-1.9129 2.623-5.5039-3.849-1.4837-10.148-2.623-15.223-2.623zm-58.445 0.42969c-2.8814 0-3.8496 1.0533-3.8496 2.709v22.643c0 12.428 7.1605 17.848 15.74 17.848 6.2139 0 10.859-2.9675 13.912-6.7305v3.5898c0 1.6773 0.96821 2.7109 3.8496 2.7109 1.2472 0 2.6224-0.17368 3.332-0.3457v-42.08c-0.7096-0.17203-2.1063-0.34375-3.332-0.34375-2.8814 0-3.8496 1.0533-3.8496 2.709v26.857c-2.086 3.935-7.3317 7.2676-12.148 7.2676-6.2139 0-10.32-4.02-10.32-12.428v-24.062c-0.7096-0.17203-2.1083-0.34375-3.334-0.34375zm119.3 0c-1.2257 0-2.6224 0.17173-3.332 0.34375v42.082c0.7096 0.17203 2.1063 0.34375 3.332 0.34375 2.8814 0 3.8496-0.94578 3.8496-2.709v-23.719c3.139-6.5584 8.2136-9.3535 14.256-9.3535 2.9667 0 4.1928-0.60286 4.1934-3.5039v-2e-3c-2.9e-4 -1.2895-0.27928-2.6228-0.34375-3.2246-7.785-1.0536-13.998 2.0864-18.105 8.3008v-5.8496c1e-5 -1.6558-0.9682-2.709-3.8496-2.709zm32.363 0c-2.8814 0-3.8496 1.0318-3.8496 2.709v39.717c0.6881 0.17203 2.0868 0.34375 3.3125 0.34375 2.8814 0 3.7617-0.96728 3.7617-2.709v-39.717c-0.688-0.17203-1.9989-0.34375-3.2246-0.34375zm-179.73 21.998c2.0693-0.02955 4.2616 0.04759 6.5234 0.21289v7.957c-3.0534 4.2146-7.958 7.0098-13.57 6.9883-5.5263 0-8.5781-3.3113-8.5781-6.9883 0-5.8878 6.658-8.0419 15.625-8.1699zm213.91 0c2.0693-0.02955 4.2616 0.04759 6.5234 0.21289v7.957c-3.0534 4.2146-7.9561 7.0098-13.568 6.9883-5.5263 0-8.5781-3.3113-8.5781-6.9883 0-5.8878 6.656-8.0419 15.623-8.1699z"/>
		<path d="m767.16 75.787q-1.3854 0-2.7707-0.1731-1.3854-0.08666-2.078-0.25976v-45.543l-10.65 5.022q-1.2121-0.95237-1.905-2.3378-0.69261-1.3854-0.69261-2.6842 0-3.0304 3.0304-4.7623l12.468-6.0611h7.5329v52.73q0 1.7316-1.1257 2.944-1.039 1.1257-3.8097 1.1257z"/>
	</g>
	<linearGradient id="A" x1="1456.7" x2="1456.7" y2="500" gradientTransform="scale(.21503)" gradientUnits="userSpaceOnUse">
		<stop stop-color="red" offset=".4"/>
		<stop stop-color="#d42321" offset="1"/>
	</linearGradient>
	<path d="m178.93 0h268.62c3.9566 0 7.1606 3.204 7.1606 7.1606v93.196c0 3.9566-3.204 7.1606-7.1606 7.1606h-268.62c-3.9566 0-7.1606-3.204-7.1606-7.1606v-93.196c0-3.9566 3.204-7.1606 7.1606-7.1606z" fill="url(#A)"/>
	<linearGradient id="B" x1="1459.5" x2="1450.8" y1="233.73" y2="-15.325" gradientTransform="scale(.21503)" gradientUnits="userSpaceOnUse">
		<stop stop-color="#fff" offset="0"/>
		<stop stop-color="#fff" stop-opacity=".835" offset=".12"/>
		<stop stop-color="#fff" stop-opacity=".658" offset=".269"/>
		<stop stop-color="#fff" stop-opacity=".511" offset=".42"/>
		<stop stop-color="#fff" stop-opacity=".397" offset=".568"/>
		<stop stop-color="#fff" stop-opacity=".315" offset=".716"/>
		<stop stop-color="#fff" stop-opacity=".266" offset=".86"/>
		<stop stop-color="#fff" stop-opacity=".25" offset="1"/>
	</linearGradient>
	<path d="m176.93 53.329 0.68811-0.04301 271.74-9.483c2.989-0.0215 5.3759-2.4729 5.3544-5.4404v-31.201c0-3.9566-3.204-7.1606-7.1606-7.1606h-268.62c-3.9566 0-7.1606 3.204-7.1606 7.1606v51.759c-0.086-2.946 2.2148-5.4404 5.1608-5.5909z" fill="url(#B)" opacity=".4"/>
	<linearGradient id="C" x1="361.92" x2="361.92" y1="28.806" y2="471.22" gradientTransform="scale(.21503)" gradientUnits="userSpaceOnUse">
		<stop stop-color="#cbcbcb" offset="0"/>
		<stop stop-color="#d4d4d4" offset=".8"/>
	</linearGradient>
	<path d="m107.43 99.797c2.2579 0.98916 4.6878 1.5267 7.1391 1.5267 5.6124 0.12902 8.6874-2.0213 10.945-7.0531l30.126-67.069c-1.9568-0.88164-4.0856-1.3762-6.236-1.4407-3.8921-0.08601-9.096 0.70961-12.386 8.6229l-9.7411 22.966-19.138-31.094c-2.1073-0.55909-4.2792-0.86014-6.451-0.90314-6.7736 0-10.537 2.4729-14.45 6.7306l-18.6 20.299 14.945 23.525c2.7739 4.2792 6.408 6.4725 12.321 6.4725 2.946 0.04301 5.8704-0.49458 8.6014-1.6128l-18.02-27.094 12.773-13.526 20.944 32.836zm-39.502-25.353c0 4.9458-1.9353 7.7842-11.612 7.7842-1.1612 0-2.3224-0.08601-3.4621-0.23654v-65.607c0-4.9888 1.6988-10.193 11.44-10.193 1.2257 0 2.4514 0.12902 3.6341 0.36556zm-19.955-9.9131c0 9.2465-6.0425 15.956-18.299 17.289-8.8809 0.94615-21.74-0.17203-27.847-0.86014-0.21503-1.0537-0.34405-2.1288-0.36556-3.2255 0-8.0423 4.3437-9.8916 8.4293-9.8916 4.2577 0 10.945 0.75262 15.913 0.75262 5.4834 0 7.1391-1.8493 7.1391-3.6341 0-2.3009-2.1934-3.2685-6.451-4.0857l-11.655-2.2364c-9.6765-1.8493-14.837-8.5369-14.837-15.633 0-8.6229 6.107-15.827 18.127-17.16 9.096-0.98916 20.17 0.12902 26.234 0.86014 0.21503 1.0107 0.32255 2.0428 0.32255 3.0965 0 8.0423-4.2577 9.7841-8.3433 9.7841-3.1395 0-8.0208-0.58059-13.59-0.58059-5.6554 0-8.0208 1.5698-8.0208 3.4621 0 2.0213 2.2364 2.8385 5.7844 3.4621l11.117 2.0643c11.418 2.0858 16.343 8.5799 16.343 16.536z" fill="url(#C)"/>
	<linearGradient id="D" x1="365.45" x2="359.6" y1="263.25" y2="95.751" gradientTransform="scale(.21503)" gradientUnits="userSpaceOnUse">
		<stop stop-color="#fff" offset="0"/>
		<stop stop-color="#fff" stop-opacity=".835" offset=".12"/>
		<stop stop-color="#fff" stop-opacity=".658" offset=".269"/>
		<stop stop-color="#fff" stop-opacity=".511" offset=".42"/>
		<stop stop-color="#fff" stop-opacity=".397" offset=".568"/>
		<stop stop-color="#fff" stop-opacity=".315" offset=".716"/>
		<stop stop-color="#fff" stop-opacity=".266" offset=".86"/>
		<stop stop-color="#fff" stop-opacity=".25" offset="1"/>
	</linearGradient>
	<path d="m155.66 27.202-11.031 24.557c-0.86014 1.7633-2.6449 2.8815-4.6017 2.8815l-10.064 0.34406c-1.0967 0.06451-2.0643 0.79563-2.4514 1.8278v-0.0215l9.5045-22.407c3.3115-7.9133 8.5154-8.7089 12.386-8.6229 2.1718 0.06451 4.2792 0.55909 6.2575 1.4407zm-28.901 29.352-18.622-30.277c-2.1073-0.55909-4.2792-0.86014-6.451-0.90314-6.7736 0-10.537 2.4729-14.45 6.7306l-18.6 20.299 1.4837 2.3439c0.96765 1.4622 2.6449 2.3009 4.4082 2.2149l10.601-0.36556a5.3049 5.3049 0 0 1 4.6877 2.1073l-3.333-5.0103 12.773-13.526 8.5799 13.44c1.0537 1.3332 2.6879 2.0858 4.3867 2.0428l12.192-0.43007c0.94615 0 1.8493 0.51608 2.3439 1.3332zm-62.467-50.34c-9.7411 0-11.44 5.2038-11.44 10.193v44.942c0-2.0643 1.6558-3.7416 3.7201-3.8061l7.5477-0.25804c2.1073 0 3.8276-1.7203 3.8276-3.8276v-46.877c-1.2257-0.25804-2.4299-0.38706-3.6556-0.36556zm-32.642 41.76-11.117-2.0643c-3.5481-0.6236-5.7844-1.4407-5.7844-3.4621 0-1.8923 2.3654-3.4621 8.0208-3.4621 5.5694 0 10.451 0.58059 13.59 0.58059 4.0857 0 8.3433-1.7418 8.3433-9.7841 0-1.0322-0.10752-2.0858-0.32255-3.0965-6.064-0.75262-17.138-1.8493-26.234-0.86014-12.042 1.3332-18.149 8.5584-18.149 17.16 0.021503 4.6017 2.1933 8.9454 5.8704 11.719 2.7094 1.6773 5.7629 2.7739 8.9239 3.1825 4.1287 0.55909 8.2788 0.77412 12.429 0.6451l13.268-0.47308c4.9673-0.17203 7.6767 4.0641 7.3972 8.3218 0-0.06451 0-0.10752 0.0215-0.17203v-0.04301c0.04301-0.55909 0.06451-1.1182 0.06451-1.6773 0-7.9133-4.9243-14.407-16.321-16.515z" fill="url(#D)" opacity=".25"/>
	<path d="m192.33 77.262c-0.6451-4.4297 0.73112-6.7521 3.2685-6.7521 2.4084 0 8.3218 2.6449 16.558 2.6449 8.6659 0 11.934-3.075 11.934-7.0746 0-2.8385-1.2687-5.3759-9.0744-7.5047l-8.9669-2.4084c-9.9131-2.6449-13.827-7.6122-13.827-13.741 0-7.5907 6.021-14.364 19.633-14.364 6.1285 0 13.741 1.3762 18.364 3.1825 0.83864 4.3222-0.53758 6.6446-3.161 6.6446-2.3224 0-7.5907-2.2149-15.095-2.2149-8.0208 0-10.988 2.7309-10.988 6.322 0 2.5159 1.1612 4.8598 8.3433 6.8596l9.182 2.5374c10.257 2.8385 14.364 7.5907 14.364 14.343 0 7.9348-6.1285 14.988-20.901 14.988-6.537 0.0215-14.687-1.5698-19.633-3.4621m101.32-22.901c0 16.558-11.612 26.385-24.385 26.385-7.5907 0-13.827-3.5911-17.525-8.6444v21.331c0 1.9998-1.1612 3.2685-4.5372 3.2685-1.6988 0-3.2685-0.21503-4.1072-0.40856v-67.263c0.83863-0.21503 2.4084-0.43007 4.1072-0.43007 3.376 0 4.5372 1.2687 4.5372 3.2685v4.8383c3.6986-5.0533 9.9346-8.6444 17.525-8.6444 12.773 0 24.385 9.8271 24.385 26.299m-8.7519 0c0-11.074-7.3757-18.686-17.31-18.686-6.7521 0-12.988 3.9136-15.827 9.612v18.256c2.8384 5.6984 9.0744 9.612 15.827 9.612 9.9131-0.0215 17.31-7.6122 17.31-18.794m16.859 0c0-15.095 11.074-26.277 25.955-26.277 14.988 0 26.062 11.182 26.062 26.277 0 14.988-11.074 26.385-26.062 26.385-14.88-0.0215-25.955-11.418-25.955-26.385m43.265 0c0-11.612-7.8272-18.686-17.31-18.686-9.3755 0-17.203 7.0746-17.203 18.686 0 11.504 7.8272 18.772 17.203 18.772 9.483 0 17.31-7.2682 17.31-18.772m50.598-21.546c0 3.4836-1.4622 4.2147-5.0748 4.2147-7.2682 0-13.397 3.376-17.203 11.289v28.621c0 2.1073-1.1612 3.2685-4.6447 3.2685-1.4837 0-3.1825-0.21504-4.0211-0.40857v-50.791c0.83863-0.21503 2.5159-0.40856 4.0211-0.40856 3.462 0 4.6447 1.2687 4.6447 3.2685v7.0746c4.9458-7.5047 12.45-11.289 21.847-10.021 0.10751 0.73112 0.43006 2.3224 0.43006 3.8921m37.954 44.448c-4.4297 2.1073-9.5045 3.4836-14.558 3.4836-10.021 0-16.042-5.9134-16.042-15.719v-43.587c0-2.2149 1.2687-3.6986 4.6447-3.6986 1.4622 0 3.161 0.30105 4.0211 0.53759v10.967h19.719c0.10752 0.73112 0.32255 2.2149 0.32255 3.4836 0 3.0535-1.2687 4.1072-3.161 4.1072h-16.88v27.567c0 5.8919 2.7309 8.7519 8.3218 8.7519 5.0748 0 7.9133-2.2149 10.343-2.2149 2.5374-0.0215 3.8061 2.0858 3.2685 6.322" fill="#fff"/>
</svg>
