<?xml version="1.0" encoding="UTF-8"?>
<svg width="800" height="261.13" version="1.1" xmlns="http://www.w3.org/2000/svg">
	<defs>
		<linearGradient id="a" x1="414.37" x2="1244.6" y1="289.84" y2="289.84" gradientTransform="translate(-9.825 -107.3) scale(.65067)" gradientUnits="userSpaceOnUse">
			<stop stop-color="#ff0031" offset="0"/>
			<stop stop-color="#9b001f" offset="1"/>
		</linearGradient>
		<linearGradient id="b" x1="197.48" x2="194.59" y1="295.14" y2="212.24" gradientTransform="translate(-9.825 -107.3) scale(.65067)" gradientUnits="userSpaceOnUse">
			<stop stop-color="#fff" offset="0"/>
			<stop stop-color="#fff" stop-opacity=".25" offset=".515"/>
		</linearGradient>
		<linearGradient id="c" x1="830.55" x2="826.25" y1="276.73" y2="153.47" gradientTransform="translate(-9.825 -107.3) scale(.65067)" gradientUnits="userSpaceOnUse">
			<stop stop-color="#fff" offset="0"/>
			<stop stop-color="#fff" stop-opacity=".25" offset=".515"/>
		</linearGradient>
	</defs>
	<path d="M72.615 97.471c0 13.989-9.11 24.14-27.719 26.157-13.404 1.431-32.859-.26-42.098-1.301-.325-1.497-.586-3.384-.586-4.88 0-12.168 6.572-14.965 12.753-14.965 6.442 0 16.592 1.106 24.075 1.106 8.329 0 10.801-2.798 10.801-5.466 0-3.513-3.318-4.945-9.76-6.181l-17.633-3.384C7.808 85.76 0 75.674 0 64.938c0-13.013 9.24-23.945 27.458-25.962 13.73-1.496 30.516.196 39.691 1.302.326 1.561.52 3.058.52 4.684 0 12.168-6.44 14.77-12.622 14.77-4.75 0-12.102-.845-20.561-.845-8.59 0-12.102 2.342-12.102 5.205 0 3.058 3.383 4.294 8.719 5.27l16.787 3.124c17.308 3.188 24.725 12.948 24.725 24.986m30.126 14.965c0 7.482-2.928 11.777-17.568 11.777-1.952 0-3.644-.13-5.27-.39V24.725c0-7.548 2.537-15.42 17.307-15.42 1.887 0 3.774.194 5.531.585zm59.797 38.39c1.952.976 5.856 2.212 10.8 2.277 8.525.195 13.145-3.058 16.593-10.671l45.547-101.31c-1.887-.976-6.051-2.147-9.435-2.212-5.856-.13-13.729 1.04-18.739 13.013l-14.835 34.68-28.955-47.043c-1.887-.586-6.441-1.367-9.76-1.367-10.281 0-15.941 3.774-21.863 10.15l-28.109 30.712 22.643 35.592c4.164 6.507 9.695 9.825 18.609 9.825 5.856 0 10.736-1.366 13.013-2.407l-27.263-40.992 19.325-20.496 31.688 49.646z" fill="#ff0031"/>
	<path d="m270.55 0c-5.986 0-10.866 4.88-10.866 10.866v140.87c0 5.986 4.88 10.866 10.866 10.866h518.58c5.986 0 10.866-4.88 10.866-10.866v-140.94c-0.065-5.986-4.815-10.801-10.798-10.798z" fill="url(#a)"/>
	<path d="M79.967 24.725V92.72c0-2.733 2.082-5.596 5.596-5.726l11.452-.39c2.277-.065 5.726-1.627 5.79-5.791V9.89a25.724 25.724 0 0 0-5.53-.586c-14.77.065-17.308 7.873-17.308 15.421m52.054 23.684-28.109 30.712 2.277 3.514c.977 1.301 2.863 3.513 6.637 3.383l16.007-.585c3.514-.13 5.726 1.366 7.093 3.188l-5.01-7.548 19.324-20.496 12.948 20.366c2.343 3.058 5.856 3.123 6.637 3.123.65 0 17.698-.585 18.414-.65 1.171-.065 2.538.585 3.579 2.082L163.644 39.69c-1.887-.586-6.442-1.367-9.76-1.367-10.281-.065-15.941 3.644-21.863 10.085M27.46 38.975C9.24 40.992.003 51.858.003 64.937c0 6.702 3.058 13.144 8.914 17.763 4.425 2.928 8.98 4.034 13.469 4.815 3.709.65 12.363 1.236 18.804.976l20.041-.716c7.548-.26 11.582 6.181 11.192 12.623v-.325c.065-.846.13-1.692.13-2.538 0-12.037-7.417-21.863-24.66-25.051l-16.787-3.123c-5.4-.911-8.719-2.213-8.719-5.27 0-2.864 3.579-5.271 12.102-5.271 8.459 0 15.811.846 20.561.846 6.182 0 12.623-2.603 12.623-14.77 0-1.627-.195-3.123-.52-4.685-6.572-.78-17.113-1.887-27.588-1.887-4.1.065-8.199.26-12.102.65m179.72 12.949-14.38 33.9c0-.065.91-2.668 3.708-2.798l15.226-.52c4.62-.196 6.442-3.319 6.963-4.36l16.657-37.153c-1.887-.976-6.052-2.147-9.435-2.212h-.716c-5.79.065-13.209 1.626-18.024 13.144" fill="url(#b)" opacity=".3"/>
	<path d="M270.55 0c-5.986 0-10.866 4.88-10.866 10.866v78.211c0-1.171.455-7.613 7.808-8.329 0 0 .39-.065 1.041-.065l523.4-18.349c4.1-.13 8.068-3.188 8.068-8.263V10.93c0-5.985-4.88-10.865-10.866-10.865z" fill="url(#c)" opacity=".3"/>
	<path d="M377.19 18.414c-4.36 0-8.068 3.384-8.068 8.068 0 4.1 3.643 7.938 8.068 7.938s7.938-3.773 7.938-7.938c0-4.554-3.448-8.068-7.938-8.068zm148.22 24.141c-20.952 0-37.936 16.591-37.936 39.43 0 23.684 16.333 39.82 40.018 39.82 10.931 0 21.212-3.253 27.914-6.246.78-6.897-1.562-9.89-4.75-9.89-1.366 0-3.06.65-6.248 1.822-4.88 1.496-9.89 2.994-16.461 2.994-15.291 0-25.701-8.525-27.588-23.295h59.275c.455-2.863.65-5.401.715-7.809 0-18.154-11.58-36.826-34.94-36.826zm-196.24.064c-21.993 0-38.781 16.853-38.781 39.496s16.789 39.69 38.781 40.016c10.411 0 19.845-2.862 26.547-6.05.65-6.897-1.888-9.76-5.076-9.76-4.425 0-9.434 4.879-21.016 4.879-14.64 0-26.55-11.255-26.55-28.89 0-17.632 11.91-28.563 26.55-28.563 11.582 0 16.526 4.879 21.016 4.879 3.188 0 5.727-2.863 5.076-9.76-6.572-3.384-16.006-6.246-26.547-6.246zm113.22 0c-11.517 0-19.977 5.595-25.508 12.297v-6.57c0-2.863-1.69-4.75-6.57-4.75-2.213 0-4.556.52-5.727.846v75.934c1.171.325 3.514.65 5.727.65 4.945 0 6.57-1.757 6.57-4.75V67.54c4.034-7.352 13.796-13.729 22.84-13.729 11.387 0 19.129 7.417 19.129 23.033v43.4c1.236.326 3.71.65 5.727.65 5.01 0 6.57-1.756 6.57-4.75V75.154c0-22.513-13.077-32.468-28.758-32.533zm168.78 0c-9.37 0-17.112 4.88-21.992 11.451v-5.4c0-3.188-1.627-5.074-6.377-5.074-2.017 0-4.425.52-5.727.846v75.803c1.042.325 3.515.65 5.727.65 5.01 0 6.572-1.757 6.572-4.75V66.108c2.863-6.181 10.214-12.428 18.803-12.428 10.281 0 15.486 6.702 15.486 17.959v48.605c1.302.325 3.645.65 5.858.65 5.01 0 6.57-1.757 6.57-4.75V66.107c2.863-6.181 10.216-12.428 18.805-12.428 10.085 0 15.486 6.703 15.486 17.96v48.604c1.236.326 3.71.65 5.727.65 5.01 0 6.7-1.756 6.7-4.75V70.272c0-15.161-8.718-27.587-25.114-27.652-11.257 0-19.326 6.182-24.531 13.795-4.034-8.59-11.907-13.795-21.992-13.795zm122.78 0c-10.671 0-22.057 2.538-29.67 5.4-.78 6.703 1.236 9.891 4.75 9.891 1.236 0 3.058-.585 5.4-1.236 4.555-1.496 11.257-3.19 19-3.19 14.965 0 18.803 7.028 18.803 18.806v2.082c-33.77-2.213-53.744 5.857-53.744 24.336 0 12.233 9.435 23.164 26.547 23.164 11.387 0 19.975-4.491 27.197-12.104v6.377c0 3.188 2.018 4.814 6.573 4.814 2.212 0 4.425-.325 5.726-.65V71.834c0-18.024-8.264-29.15-30.582-29.215zM377.58 43.66c-5.14 0-6.701 1.887-6.701 4.75v71.834c1.236.326 3.644.65 5.726.715 5.01 0 6.702-1.757 6.702-4.75V44.506c-1.237-.325-3.71-.845-5.727-.845zm147.9 9.956c13.729 0 22.122 10.28 22.643 23.359H500.43c2.017-15.291 12.818-23.49 25.051-23.36zm218.55 29.922c2.624.008 5.327.083 8.076.205v14.639c-5.856 7.808-14.64 13.078-25.05 13.078-10.217 0-15.942-6.246-15.942-12.947 0-11.9 14.546-15.032 32.916-14.975z" fill="#fff"/>
	<path d="m304.19 179.37a40.88 40.88 0 0 0-40.88 40.88 40.88 40.88 0 0 0 40.88 40.88 40.88 40.88 0 0 0 40.88-40.88 40.88 40.88 0 0 0-40.88-40.88zm0 3.1115a37.769 37.769 0 0 1 37.769 37.769 37.769 37.769 0 0 1-37.769 37.769 37.769 37.769 0 0 1-27.167-11.659l2.6232-0.67171 6.4247-0.49439 1.7388-0.42076 1.1897-1.1897c0.62231-0.84193 1.3176-1.3179 2.0862-1.5375l3.0751-0.91516 0.27455-1.263 0.89691 0.69566 1.1164 0.0733 0.42112-0.34783 0.34748-0.49441 1.1897-0.20125 2.4345 0.27454 1.391 2.3794 0.27454-1.1897-0.14619-1.3177-0.76895-0.62237-0.49404-0.97021c-0.49418-0.56739-1.263-0.62229-2.0867-0.27454-0.97006 0.42098-1.6654 0.62245-2.0316 0.42112 0.0732-0.97006 0.84188-1.5375 2.3061-1.5375 0.49418 0 1.1164 0.20154 1.6837 0.4944l1.3913 0.49404c-0.27454-1.2629-1.5375-2.0865-3.8437-2.654-2.7272-0.5491-3.8988-0.0732-3.4229 1.5375l-0.96984 0.34782c-0.0732 0.5491-0.27484 0.91501-0.84223 1.0431l-1.4642 0.2195c-0.0732 0.27454-0.14619 0.42118-0.34746 0.49438l-0.69567 0.20128-0.5491 1.263-1.1897 0.14619c-0.5674-0.0732-0.89679 0.14667-1.1164 0.56768l-1.263-0.62238-0.49404 0.49404c-0.5491-0.0732-0.69574-0.56747-0.4944-1.5375 0.27454-1.0433 0.76866-1.2627 1.391-0.6953 0.14651-0.49419 0.54939-0.62253 1.1168-0.4944l1.391 0.27454c0.14636-0.20133 0.62217-0.42083 1.3177-0.49404l1.4642-0.54908c0.62229-0.49419 1.0433-1.1899 1.4642-2.1599-0.56739-0.20133-0.76866-0.49412-0.56732-0.84187 0.14651-0.34777 0.42097-0.54888 0.91515-0.42075l-0.0733-1.1168c0.34775 0.20134 0.76872 0.14651 1.1897-0.20126l1.1164-0.91515 1.4642 0.0733 1.318 0.27454c0.34777-1.1897-0.54908-1.8119-2.654-1.6656l-2.0316 0.27455-0.49439 0.62237-0.69532 0.49406-0.34783-1.8121c0.34777 0.27456 0.69546 0.27456 1.1164 0l0.97022-0.69529 1.5372 0.27454 1.1897-0.20162c-0.91516-1.8853-2.7272-2.0313-5.5825-0.34747-1.391 0.84194-1.8851 1.5373-1.6837 2.2329l0.54909 0.49404c0.42098 0.20133 0.56733 0.34776 0.56733 0.5491l-0.62238 1.1897 0.62238 0.76893-1.391 0.84187-1.8121 0.27455-0.76858 1.1164-0.69566 0.14651c-0.20132-0.0732-0.42082 0.0732-0.49404 0.27454l-1.7388-0.14651-0.49441-0.62237-0.69529-0.56733c-0.49418-0.20134-0.84194 0.14667-1.1897 0.76893l-0.69566 1.391c-1.3178-0.97007-1.9584-2.654-1.8121-5.0152l1.4642 0.49404-0.62201-1.2626-0.34783-1.5375c0.27454-1.391 0.96992-2.0316 1.9583-2.0316v-2.9284c0.69552-0.97007 0.97021-0.49447 0.97021 1.2626 0.0732 1.1897-0.0735 3.0751-0.49441 5.729l2.3794-4.2648 0.20162-2.3794c0.0732-1.1165 0.42075-1.5373 0.96985-1.0432 0.49419 0.34777 0.62244 1.1896 0.42111 2.5073l-2.4345 6.0768c0.34777 0.0732 0.84195-0.49419 1.4642-1.7388l1.263-2.5077 0.84187-0.96984 0.14651-1.263 1.0431-2.3794c0.34776 0.0732 0.49427 0.54895 0.34784 1.3177l-0.27455 2.3794 2.0134-6.0764h0.49404l0.20162 3.8437c0.56739-0.69552 0.96992-1.684 1.0431-2.7272l-0.0733-1.8121 0.14651-1.6105c0.97006-0.27455 1.3911 0.42105 1.263 2.0867-0.14635 1.6838-2.8e-4 2.4343 0.34749 2.3794 0-1.9584 0.27454-3.2034 0.91514-3.7707 0.20133 0.20133 0.56761 1.0435 1.0435 2.5076l1.391 2.3061 6.9734 4.6674 2.9285 1.1897c0.62231 0.42097 1.4642 1.1166 2.3061 2.0867l2.0867 2.3061c1.7388 1.5375 3.7705 2.3061 5.9302 2.5073l1.6108-0.20127 0.84187-0.20126c0.0732 0 0.14635 0.0733 0.20127 0.14651l0.27454 0.1462c1.4642-0.14651 2.2329-0.62239 2.3061-1.5375l-1.1897-0.42077-0.76858-0.91514-2.8005-0.97021-2.5073-1.5375-1.9218-2.1596-2.3061-1.6654 0.14619-0.34783-2.654-3.6975c-1.0433-2.4343-1.0432-3.697 0.0733-3.9716l0.91514 0.42112 1.1164-0.0733-1.885-3.075-1.5375-1.0431c-0.91514-0.49418-1.4644-0.69572-1.6842-0.49439l-0.20127-0.69531 2.1599-0.27454 0.62238-0.56733 0.7686-0.20162c0.42095-0.14635 0.84201 8e-5 1.263 0.34783l1.0431 0.4944 1.7388-0.4944c0.69552-0.14635 1.2628 0.14635 1.6654 0.84187 0.42098 0.62231 0.84217 1.1165 1.318 1.1897l1.8121 0.34783 1.3177 1.0435c1.0433-0.0732 1.7386 0.1462 1.9583 0.62203l1.8854 0.20162 2.0867 0.6953 2.1596 0.0733c1.0433 0.0732 1.6657 0.27461 1.9586 0.62238l0.84187-0.0733 0.76859 0.34783 1.3913-0.14651c1.1897 0.14651 1.7388 0.84203 1.7388 2.0867 0.91514 0.34775 1.6107 0.20147 2.3061-0.49404l0.84187-1.3913 0.56732-1.391c0.34775-0.91515 0.27455-1.7386-0.27456-2.434l-1.6105-2.5077c-0.69552-1.1897-1.263-1.9583-1.8854-2.4342l-2.654-1.7388-2.782-0.91516-3.2762-2.8556-0.76895-0.20126-0.62203-0.49403-4.7406-3.3496c-2.0865-1.3178-3.4961-2.5073-3.8986-3.6239l-1.263-0.56767h-0.62202l-0.62238-0.20126-0.0733-1.0431c0.0732-0.54909-0.14635-1.0435-0.49406-1.318l-2.7823-0.6953-1.4642-1.5375c-0.49418-0.0732-1.2629 0.20126-2.3794 0.84187l-1.0431 0.27455-1.1897 0.0733-2.0316 1.0431-2.2332 0.27454c-0.34775 0-0.76864 0.20148-1.391 0.69566l-1.4642 0.7686c-0.62231 0.14636-1.6108-0.0732-3.0751-0.91515l-0.76858-0.54911c-0.34775-0.20132-0.62223 8e-5 -0.84187 0.34783l0.84187 1.1897 0.34783 0.20128 0.34783 0.27454-0.14651 0.76895 0.49404 0.76858c0.20134 0.20134 0.20134 0.49439 0 0.76894l-1.6654-0.49439-1.3177-0.91516-1.6654-0.20126c-0.69552 0.0732-1.1166 0.4209-1.263 0.84187l1.5375 0.97021c0.69552 0.34775 0.91508 0.76865 0.84187 1.391 0.91516 0 1.1166 0.34776 0.62238 0.91515l-1.5375 0.20126c-0.49418 0.0732-1.2628-0.20119-2.3061-0.76858-1.3178-0.69552-2.0318-0.62238-2.0867 0.20126l0.62237 0.9702 0.62203 1.1897c0.49418 1.6107 0.27475 2.2329-0.69531 2.0316l-1.0435-0.62237-1.2626-0.20126c-0.76873 0.34775-0.76873 0.97014 0 1.8121 1.0433 1.0433 1.4642 1.8118 1.391 2.1596l-1.263-0.42075c-0.42098-0.20134-0.62246-0.14636-0.69566 0.27454l0.54908 1.1164c0.42098 0.42098 0.6226 0.76875 0.56768 1.1897l-1.4642-0.62237c-0.49418-0.49418-0.97034-0.62215-1.3913-0.49404l1.1168 2.7269c0 0.91514-0.20134 1.1166-0.54909 0.69566l-1.1168-1.1897c-0.6955-0.14635-0.96998 0.14635-0.84187 0.84187l0.54911 1.4642c0.14635 0.6223-0.14651 1.4642-0.89694 2.3794l-0.6953-0.62239c-0.20133-0.34776-0.42111-0.49396-0.69566-0.42076-0.34775 0.0732-0.49424 0.20134-0.34783 0.54911l0.49441 0.76858c0.62229 1.1897 0.56731 1.5374-0.34783 1.1897l-0.84187-1.5375c-0.49419-0.0732-0.54911 0.27477-0.27455 1.0435 0.27455 0.76873 0.14635 1.3178-0.42112 1.391-0.54908 0.0732-1.1163-0.76874-1.6105-2.654-0.42097 0.20134-0.62237 0.76881-0.62237 1.5375-0.0732 0.91516-0.14651 1.3908-0.34783 1.6105-0.42098 0.62231-0.7686 0.69552-1.0432 0.27455l-0.9702-1.3177-0.69566-0.20128-0.42076-0.62237c-0.42097-0.14635-0.84215 8e-5 -1.0435 0.34783v1.4642l0.20162 1.6105-0.69566-0.1462-2.3794-1.6108c-0.0579-0.0386-0.11365-0.0579-0.17767-0.0922a37.769 37.769 0 0 1-0.0159-0.21556 37.769 37.769 0 0 1 37.769-37.769zm7.4868 17.211h0.34783l1.318 2.7823c0.34776 1.1897 0.4209 2.2327 0.20126 3.0746l-1.4642 2.7823c-0.84194 1.0433-1.5374 1.1896-2.3061 0.20128-0.76873-0.97007-0.76873-1.7389 0-2.1599 1.1165-0.69552 1.7384-1.1895 1.8118-1.885 0.0916-0.54909-0.10968-0.897-0.67705-1.2448l-0.97021-1.1164c-0.0732-0.42098 0.0733-0.84187 0.62237-1.391 0.49419-0.42098 0.97027-0.56761 1.318-0.49441l-0.27454-0.27454zm5.8588 4.3505c0.3998-0.024 0.79447 0.39466 1.2612 1.2869l3.5508 4.3928c0.54909 0.91514 0.42112 1.7388-0.49404 2.5807-1.1897 1.1165-2.0319 1.6656-2.581 1.4642l-2.0134-1.94c-0.97007-1.1897-1.3178-1.8853-1.1897-2.0867l0.69567-0.2195 0.54908-0.34783c0.14636-0.27454 0.14636-0.76887-0.0551-1.6108l-0.54908-1.4643-0.20128-1.6105 0.62239-0.27454c0.13731-0.10524 0.27104-0.16251 0.40431-0.17051zm7.6673 8.7544-1.0431 0.42111c2.1048-0.34776 3.0015 0.14651 2.8002 1.5375l-2.0316-0.14651-1.6105 0.14651c-0.84193-0.14635-0.91543-0.6223-0.20162-1.4642 0.20133-0.34776 0.97014-0.49439 2.0867-0.49439zm-7.1279 4.9894c-0.35134-0.0295-0.63961 0.44913-0.81577 1.362l0.76895-0.5491c0.34775-0.42096 0.42089-0.71403 0.20125-0.76893-0.0527-0.0252-0.10428-0.0397-0.15444-0.044zm1.1429 0.52013-0.76895 0.62201-0.6953 1.263 0.89692-0.54909 0.84187-0.91515zm1.1186 0.43757c-0.17587-5e-3 -0.43699 0.14349-0.6978 0.4043l-1.1897 2.3794 1.5375-1.1897c0.6223-0.69552 0.76895-1.1898 0.49439-1.5375-0.0367-0.0367-0.0859-0.0551-0.14445-0.0565zm1.5354 0.53227c-0.62231 0.0732-0.97 0.27463-1.1164 0.62238l-0.42112 0.97021-1.0431 1.8303 1.7388-1.4642 0.91516-1.1897zm1.391 0.43936-0.34783 0.14651-2.3794 3.2759c1.5374-0.71383 2.5077-1.4824 3.0018-2.5256l0.14651-0.34783-0.14651-0.27454zm1.6234 0.50726c-0.26426 0.0257-0.53901 0.25239-0.85474 0.6642l-1.9583 2.654c1.6838-0.49418 2.7272-1.391 3.2762-2.654 0.0732-0.34775 8e-5 -0.56747-0.20125-0.62237-0.087-0.0367-0.17396-0.0503-0.26204-0.0419zm1.3602 0.38966-0.34781 0.27454c-0.56741 1.2629-1.1897 2.0865-1.7388 2.5807l2.4342-1.8121 0.29314-0.6953-0.14651-0.34783zm2.4767 0.32853c-0.10302 3e-3 -0.22315 0.0373-0.35355 0.0922-0.20133 0.0732-0.34783 0.42118-0.34783 0.76895l-0.54909 1.4642c0.32945 0 0.6772-0.27455 1.0982-0.91516l0.49404-1.1164c-0.0457-0.21735-0.16999-0.29903-0.34175-0.29384zm1.0621 0.23951c-0.19734 3e-3 -0.44099 0.17773-0.592 0.54837-0.49418 1.0433-1.1898 2.0316-2.1599 2.654 0.62231 0 1.4642-0.42097 2.3061-1.1897 0.5491-1.1897 0.82371-1.8118 0.62237-1.9583-0.0503-0.0367-0.11079-0.0552-0.17659-0.0543zm1.3524 0.11222c-0.20251 1e-3 -0.36105 0.0997-0.49832 0.36285l-0.42112 1.0435c-0.27455 0.84195-0.84209 1.6107-1.6108 2.3794l2.3794-1.8121c0.43928-0.42097 0.64069-0.76866 0.7139-1.1164 0.14635-0.42097 0.0735-0.69574-0.14619-0.76895-0.15794-0.0549-0.29532-0.089-0.41683-0.0882zm-3.9029 0.16159-0.20127 0.0733-0.20126 0.27454-0.34783 0.84187-0.91515 1.263 1.5375-1.1164c0.54909-0.91514 0.54894-1.3363 0.12794-1.3363zm5.6961 0.22736c-0.38135-0.0452-0.79745 0.36284-1.1017 1.1636l-0.97021 1.7388 1.8121-1.3177c0.6406-0.91516 0.76851-1.3911 0.42076-1.5375-0.0527-0.0252-0.10636-0.0408-0.16088-0.0472zm-22.224 0.12047-1.0435 0.42076v0.4944c0.20133 0.27455 0.47602 0.12794 0.69566-0.21986zm23.231 0.15763c-0.16462 0.0111-0.35355 0.15587-0.5709 0.46472l-0.49404 1.0431c1.2629-0.6223 1.684-1.0432 1.3363-1.391-0.0824-0.0824-0.17256-0.12366-0.27134-0.11683zm-22.461 0.68421-0.91514 0.62238c-0.34777 0.27454-0.5674 0.49424-0.27454 0.62237 0.34775 0.27455 0.76872-0.12825 1.1897-1.2448zm23.329 0.46258c-0.37382 0.0316-1.1834 0.73614-2.5367 2.0448 0.6223 0 1.2632-0.2195 2.0319-0.76859 0.69552-0.49418 0.96985-0.89685 0.69529-1.1897-0.0411-0.0652-0.10428-0.0938-0.19052-0.0865zm-22.432 0.36106-1.263 0.62237c-0.56739 0.42097-0.62231 0.76866-0.27454 1.1164 0.21964 0.29287 0.76881-0.27454 1.5375-1.7388zm0.6406 0.91515-1.263 0.84187-0.62239 0.62238 0.4944 0.42112c0.56739 0.14635 1.0432-0.49435 1.391-1.8854zm1.6656 0.54909-2.3794 1.9583 0.14651 0.76895c0.20133 0.20134 0.42097 0.27434 0.5491 0.1462l0.91516-1.1164zm-36.096 1.2766c0.0938 0 0.23137 0.0871 0.44185 0.26095l0.27454 0.27455 0.0729 0.49404-0.14619 0.42111-0.20126 0.27455 0.0729 0.34783v0.14619l-0.0729 0.20127-0.0733 0.0733h-0.27455l-0.27454-0.14619v-0.69565l0.14619-0.20127c0.0732-0.0732 3.7e-4 -0.27469-0.0729-0.42112l-0.14651-0.42075 0.0733-0.34783c0.0367-0.17388 0.0867-0.26096 0.18052-0.26096zm36.791 0.0597-1.318 1.391c-0.62231 0.49418-0.76872 0.76852-0.27454 0.96985 0.27454 0.14636 0.6958-0.14635 1.1168-0.84187 0.32947-0.5491 0.47582-1.0431 0.47582-1.5189zm-38.034 0.49404 0.34783 0.0733 0.0733 0.20126-0.0733 0.14651 0.0733 0.20126v0.42075l-0.0733 0.20162-0.27454 0.0729-0.0733-0.14619-0.20126-0.27455-0.0733-0.62237zm39.297 0.40253-1.7573 1.6842-0.20126 0.69531 0.54909 0.42111 0.84187-1.263zm4.6486 0.14651-2.0862 3.148-0.47616 0.97021c-0.0732 0.34777 3.6e-4 0.49418 0.20162 0.5491l0.69529-0.34783 1.0435-2.0867zm-3.2031 0.64061-1.94 2.2878-0.0733 0.76859c0.0732 0.27455 0.34783 0.3479 0.62238 0.14651 0.76873-0.84193 1.1896-1.8121 1.391-3.2031zm-42.224 0.54909 0.49404 0.62237h0.20162l1.4274 2.0316-0.0733 0.49404v0.42112l0.34783-0.34783 0.20127-0.42075c0.20132 0.0732 0.27483 0.27454 0.20161 0.54909l-0.27455 0.84187 0.34749 1.391c-0.14636 0.34777-0.62211-0.0732-1.6105-1.4642l-0.9702-0.69566-0.49404-1.0431 1.4642 0.76858c0.0732-0.27454-0.0733-0.54901-0.4211-0.84187l-0.69531-0.76858c-0.6223-1.0433-0.62244-1.5375-0.14651-1.5375zm42.939 0.69566c-1.391 1.8119-1.9583 2.7272-1.6105 2.9285 0.54909 0.34777 0.91488-0.0733 1.2626-0.97021zm4.6672 0.62203-1.7388 1.8121c-1.0433 1.2629-1.3909 1.9583-1.0431 2.3061 0.42096 0.34775 1.0434-0.27434 1.8121-1.6105 0.62229-1.2446 1.0431-2.16 0.96984-2.5077zm-1.8121 0.69566-3.0746 2.0867c-0.27455 0.14635-0.3479 0.2744-0.14651 0.49404l0.69566 0.27454c0.49418 0 1.1164-0.42105 1.6656-1.263zm2.6726 0.56731c-1.6838 2.0865-2.398 3.3497-2.0319 3.6975 0.62232 0.42097 1.2632-0.76895 2.0319-3.6975zm0.62203 1.391c-1.6107 1.6107-2.1778 2.5808-1.6105 3.0751 0.84193 0.6223 1.3176-0.42113 1.6105-3.0751zm-50.266 2.0862c0.12953 0.0532 0.22572 0.26583 0.28063 0.62274v0.62237l0.29278 0.36607 0.14651 0.34783c0.0732 0.54909-0.27442 0.49418-1.0431-0.27456l-0.14651-0.27454-0.49404-0.21985 0.27454-0.76858 0.34747-0.14651 0.20162-0.27455c0.0503-0.0182 0.097-0.0181 0.14016-3.6e-4zm2.073 1.5547c0.1732 8e-3 0.34926 0.29207 0.5323 0.89836 1.2446 0.34775 1.8851 1.1898 1.6654 2.7272-0.0732 0.49419-0.20148 0.6221-0.42112 0.42076l-0.54909-0.69531-0.49404-0.0733-0.20125-0.27456-0.49441-0.49404-0.34783-2.0867v-0.14651c0.10302-0.18532 0.20602-0.28048 0.30994-0.27599zm3.2631 2.7572c0.081-6e-3 0.18838 0.0262 0.32566 0.0994l0.0733 0.0733 0.69531 0.97021-0.62202 1.1164c-0.49419 0.49419-0.76902 0.49419-0.84224 0l0.20162-0.56732 0.073-0.54909c-0.15095-0.74128-0.1473-1.1223 0.0954-1.1429z" fill="#fff"/>
	<path d="m366.87 192.62c0.32843 6.938 0.6158 12.07 0.82108 15.6 0.16421 2.5453 0.24644 3.7772 0.36961 6.2815 0.1642 2.9969 0.28754 5.9939 0.36964 9.0319 0.0411 2.1348-0.0414 4.2285-0.1235 6.3633-0.0821 1.3958-0.24632 2.7507-0.41053 4.1055-0.12317 0.94424-1.4783 2.504-2.792 2.3397-1.1906-0.12318-1.7242-0.12302-5.3779-0.45142-0.49266-0.0411-0.86185-0.0825-1.1082-0.0825 0.20527 3.7359 0.41054 7.4314 0.61582 11.126 2.5043 0.41053 4.6801 0.61531 6.3633 0.73847 3.2023 0.28737 4.5155 0.24617 5.8702 0.0411 1.2316-0.20526 2.5043-0.41022 3.9001-1.3134 1.8473-1.1906 3.1202-2.9561 3.654-5.0909 0.41055-1.7653 0.65716-3.6124 0.73927-5.4188 0.16421-3.9412 0.16408-7.9236 0.24619-11.865 0.12318-6.1991 0.24629-12.357 0.41055-18.556 0.0411-1.7653 0.16388-3.5308 0.28704-5.2961 0.0821-1.519 0.24649-3.0378 0.36965-4.5567 0-0.24632-0.0406-0.45176-0.1227-0.57492-0.16421-0.24632-0.45175-0.28787-0.57491-0.28787-0.57476-0.0821-5.9941-0.94391-13.507-2.1345zm107.74 4.0693c-0.22067 0.0362-0.4261 0.24151-0.75454 0.61101-1.1906 1.3548-2.3807 2.7091-3.6123 4.0228-1.8475 2.0116-3.531 4.0236-4.434 6.6922-0.94429 2.7505-0.82108 5.4601 0.41053 8.0055 0.90314 1.8884 2.1759 3.6124 3.2843 5.4188 1.0263 1.6011 2.053 3.2026 2.5867 5.0499 0.49265 1.6832 0.36887 3.3254-0.45221 4.9264-0.9853 2.0116-2.6683 3.3666-4.3924 4.6804-0.36953 0.32843-0.73884 0.20543-0.86201-0.24616-0.16421-0.57476-0.28737-1.1907-0.41053-1.8065-0.16423-0.90317-0.28721-1.848-0.45144-2.7512-0.36948-2.0527-0.7803-4.0637-1.1498-6.1163-0.61581-3.4485-1.2318-6.9384-1.8065-10.387l-1.3543-8.2517c-0.41055-2.6275-0.78019-5.2137-1.1907-7.8411 0-0.0821-0.0416-0.49315-0.28783-0.6984-0.16421-0.12318-0.32826-0.16439-0.45142-0.16439-0.49264-0.0411-5.8704-0.0411-13.219 0-1.0674 6.4044-2.2992 12.932-3.6539 19.665-1.3959 6.7739-2.8326 13.383-4.3516 19.746-0.65685-0.57476-4.1877-11.166-4.0645-11.987 0.20527-0.16423 0.45155-0.28705 0.6158-0.49231 1.519-1.5601 2.8326-3.2435 3.7358-5.2552 1.1084-2.5864 1.519-5.2547 1.2316-8.0463-0.28737-2.9559-1.3139-5.6244-3.0381-8.0055-1.3137-1.7653-2.6683-2.792-2.9556-2.9972-2.0116-1.519-4.064-2.0932-5.4188-2.3807 0 0-0.69852-0.12318-1.4785-0.20527-1.4369-0.12318-5.7474-0.16488-11.536-0.0418v1.1089c-0.20527 21.43-0.12333 29.888-0.16438 44.544 0 0.32843 0.12318 0.61547 0.20527 0.90285 4.2285-0.0411 7.1847-0.0411 7.9238 0 0.12317 0.0411 0.57472 0.0819 0.82107-0.16438 0.12318-0.12318 0.16434-0.41037 0.16434-0.86197 0-3.1612-1.1e-4 -6.2812 0.0411-9.4424 0.0411-0.32841 0.12349-0.73896 0.32875-1.0263 0.49264-0.65687 1.3957-0.53353 1.683 0.16437 0.49266 1.1495 0.98513 2.34 1.4778 3.4896 1.0674 2.4223 2.1351 4.8032 3.2026 7.1844 0.16421 0.3695 0.36887 0.6976 0.57414 1.1081 1.8473-0.16421 3.408-1.2725 5.2142-1.4778 0.12317 0.41055 0.24649 0.73881 0.36965 1.0672 0.32844-0.0411 0.53325-0.0817 0.73852-0.0817 2.5042-0.0821 5.0088-0.12333 7.5131-0.16438 0.69791-0.0411 0.94407-0.28754 1.0672-0.98546 0.12318-0.90317 0.28737-1.8062 0.41053-2.7094 0.20528-1.7653 0.41071-3.5308 0.57493-5.2961 0.0821-0.90319 0.20494-1.1081 1.1082-1.1081 2.5453 0.0411 5.0906 0.0822 7.6358 0.16439 0.24632 0 0.53399 0.0413 0.73926 0.16438 0.16421 0.12318 0.36948 0.3281 0.41053 0.49231 0.12318 0.73896 0.24604 1.4372 0.28709 2.1762 0.12317 2.3812 0.20556 4.8031 0.32872 7.2254 0 0.65685 0.20511 0.86197 0.86196 0.86197 1.6421 0 3.2843 0.0411 4.9264 0.0411 1.1085 0 2.2583 1.6e-4 3.4078-0.0411 0.94424-0.0411 1.2316-0.45193 1.0264-1.3551-0.0821-0.45158-0.24666-0.94357-0.32877-1.3952-0.0411-0.28737 0.0416-0.61596 0.0825-0.98546 0.28737 0.12317 0.41021 0.12317 0.49233 0.20527 1.3548 0.86213 2.7096 1.7648 4.1053 2.5859 0.24634 0.16421 0.69809 0.24666 0.98546 0.1235 0.32843-0.12318 0.57475-0.49282 0.82108-0.78019 1.3958-1.6832 2.8329-3.3253 4.0645-5.1317 0.28739-0.41053 3.9816-5.953 4.8439-8.3752 0.36943-1.0674 0.45142-2.0935 0.45142-2.0935 0-0.16422 0.0411-0.65638 0-1.149-0.12318-1.3958-0.90321-2.4229-1.2316-2.9154-1.0674-1.6832-2.2575-3.2843-3.407-4.9264-0.94422-1.3548-1.848-2.7505-2.1353-4.3515-0.45159-2.4632 0.24645-4.6802 1.8065-6.5277 1.2316-1.478 2.6688-2.8323 4.0236-4.228 0.32842-0.36949 0.36949-0.77986 0-1.0672-2.3811-1.8884-4.7624-3.8182-7.1436-5.7066-0.39001-0.30791-0.62607-0.44166-0.84674-0.40574zm-100.56 0.73368s0.20511 0 0.45143 0.45224c0.41053 0.86213 0.24648 12.932 0.16439 18.556v14.82c0 1.3548 0.0406 2.7505-0.1235 4.1055-0.16422 1.6011-0.36932 3.2431-1.4778 4.5569-1.1906 1.4369-2.7505 2.0942-4.5569 2.1353-2.0116 0.0411-1.9704-0.12366-3.7767-0.0825-0.16422 0-0.57493 1.6e-4 -0.78019-0.24616-0.12317-0.12317-0.24644-0.36899-0.16433-0.5332 0.12317-0.36949 0.90314-0.28787 2.6684-0.28787 1.8884 0.0411 2.4629-0.0822 3.1608-0.16439 1.6011-0.16421 2.5867-1.1492 3.2026-2.545 0.61581-1.3137 0.73925-2.7505 0.73925-4.1462 0.0411-5.4601 0.0819-10.92 0.0411-16.381 0-6.2401-0.12334-12.439-0.16437-18.638 0-0.41054 3.6e-4 -0.82125 0.12349-1.1907 0.0411-0.16421 0.32812-0.41053 0.49233-0.41053zm10.592 0.12349c-0.69791 0-0.9038 0.24616-0.86274 0.86197 0.20526 2.5043 0.45158 4.968 0.6158 7.4723 0.0821 1.2727 0.0824 2.5858 0.1235 3.8585 0.12317 2.5043 0.28749 5.0498 0.36959 7.5541 0.16423 6.3223 0.32861 12.603 0.36966 18.926 0.0411 1.7243 0.86184 2.7512 2.1345 3.5721 1.1495 0.73898 2.3808 1.355 3.5713 2.0118 1.7243 0.94424 3.4901 1.888 5.2144 2.7912 0.5337 0.28737 1.1492 0.45191 1.724 0.12349 1.1084-0.65685 2.2167-1.4374 3.3251-2.1353 0.20528-0.16421 0.41053-0.24566 0.61581-0.36883 0.12317 0.0821 0.24665 0.20527 0.32875 0.41054 0.0411 0.16421 0 0.24615 0 0.45142 0 0-0.0411 0.28706 0 0.6976 0.0411 0.41053 0.0411 0.73946 0.24616 0.90367 0.16421 0.12317 0.41037 0.16389 0.86197 0.0817 2.6684-0.41053 5.3371-0.8209 8.2108-1.2725 0.0411-0.53371 0.0825-1.3139 0.0825-2.4223 0.12318-3.7769 1.8e-4 -6.5684-0.0411-7.4716-0.16421-3.8591-0.0825-8.745 0.1227-11.947 0.45159-7.5539 0.65703-15.148 0.98546-22.702 0.0411-0.82106-0.20527-1.1089-1.0264-1.1089-2.8327 0-5.6242-0.0411-8.457-0.0411-0.82107-0.0411-0.98546 0.16421-0.98546 1.0263 0.0821 3.5307 0.24617 7.0201 0.24617 10.51 0 5.7887-0.12302 11.577-0.24617 17.365-0.0411 1.7653-0.16392 3.5716-0.28708 5.3369-0.0411 0.9853-0.3701 1.3139-1.2733 1.1907-1.8475-0.28739-3.7769-0.20544-5.5423-0.98546-0.53371-0.24633-0.86214-0.57476-0.82108-1.2316 0.0821-1.4779 0.16421-2.997 0.20526-4.475 0.0821-2.0527 0.16439-4.0645 0.16439-6.1172 0-7.2255 0.20571-14.45-0.32798-21.677-0.0411-0.73896-0.28783-0.98544-1.1089-0.98544-1.6011-0.0411-3.202-0.0406-4.8029-0.0817-1.2316 0-2.5042-0.0824-3.7358-0.12349zm108.03 0.0362c-0.18987 5e-3 -0.36424 0.14826-0.63109 0.45623-1.2316 1.3958-2.4632 2.7923-3.6948 4.147-1.6011 1.7243-3.161 3.4889-4.1462 5.7058-1.4369 3.2432-1.5601 6.405 0.20526 9.4841 1.3137 2.34 2.7915 4.5975 4.1462 6.8966 0.86214 1.4779 1.4778 3.0385 1.4778 4.8037-0.0411 0.90317-0.16438 1.7646-0.57491 2.6267-0.49264 1.0264-1.0259 1.9708-1.765 2.792-1.7243 1.8475-3.7362 3.3258-5.871 4.6394-0.20527 0.0821-0.32858 0.28672-0.57493 0.57409 2.9969 2.1348 5.9115 4.1877 8.8674 6.3225 0.2874-0.20526 0.53386-0.32792 0.7802-0.5332 0.82105-0.86212 1.6424-1.7245 2.3813-2.6277 2.1759-2.6684 2.5038-2.7916 4.4334-5.7476 0.12318-0.20527 1.7245-2.7094 2.8329-5.5831 0.20529-0.53371 0.45187-1.3142 0.53399-2.3405 0.041-0.65687 0-1.5599-0.3287-2.7094-0.2874-1.0674-0.73901-1.9297-2.4632-4.475-1.9707-2.9148-2.4629-3.4897-3.1608-5.0909-1.1906-2.6685-0.57522-5.0902 0.94379-7.3071 1.2316-1.8475 2.8332-3.4074 4.5985-4.7621 0.41055-0.32843 0.41055-0.82157 0-1.109-0.12317-0.0821-0.28722-0.16388-0.4514-0.28704-2.258-1.8475-4.5577-3.654-6.8157-5.5014-0.32842-0.24633-0.53338-0.37958-0.72324-0.37445zm36.477 0.29267c-0.26172-0.01-0.52828 0.0819-0.77458 0.24617-0.90319 0.57475-1.8064 1.1904-2.6685 1.8883-2.4632 1.9705-4.4337 4.3518-5.9937 7.1436-1.3548 2.5043-2.3404 5.0906-2.9972 7.8411-0.61582 2.6684-0.98562 5.3366-0.94457 8.0873 0 0.65686-0.0819 1.3142-0.0411 1.93 0.41054 2.9559 1.0674 5.8709 2.4632 8.5804 1.3548 2.7507 3.0794 5.2134 5.2553 7.3071 1.3547 1.3137 2.9145 2.5042 4.3924 3.7358 0.90319 0.73898 1.1495 0.78003 2.0527 0 1.3137-1.0674 2.5867-2.1348 3.8183-3.2843 0.94423-0.86212 1.8473-1.8061 2.7094-2.7502 0.45158-0.53369 0.32812-0.90284-0.32877-1.1081-0.0821-0.0411-0.20495-0.0416-0.28705-0.0825-3.1612-1.478-5.8706-3.4896-7.8411-6.3633-1.5601-2.258-2.5045-4.8032-2.8329-7.5949-0.36947-3.5716 0.0824-6.9379 1.7656-10.099 0.90319-1.6832 2.0113-3.1612 3.3661-4.516 1.4369-1.4369 3.038-2.6277 4.7212-3.654 0.61583-0.36949 0.7388-0.90335 0.24616-1.396-1.7653-1.8473-3.5307-3.6948-5.3369-5.5423-0.22583-0.24632-0.4824-0.35856-0.74409-0.36883zm-22.769 0.0243c-1.6157-0.0127-2.9669 0.0527-3.3364 0.22211v0.6567c0.16423 1.56 0.3701 3.1612 0.45223 4.7212 0.20529 3.2843 0.36947 6.5277 0.41052 9.8121 0.0821 6.1991 0.1636 12.398-0.24691 18.556-0.12318 1.8064-0.0816 3.6132-0.16361 5.4196-0.0821 2.0527-0.24665 4.0637-0.3287 6.1163-0.0411 0.6158 0.20537 0.78018 0.78012 0.78018h8.9494c-0.28739-15.354-0.57414-30.543 0.45219-45.693-0.84674-0.33356-4.2758-0.5709-6.9687-0.59176zm-99.711 3.1905c0.0449 0 0.0938 8e-3 0.14508 0.0279 0.28738 0.0821 0.36948 0.49295 0.41054 0.73927 0.0821 0.53369-0.0417 0.98544-0.0417 0.98544-0.0411 2.8327-0.1227 5.7061-0.1227 8.5387 0 5.5012-0.0411 17.654 0.0411 21.881 0.0411 1.519 0.0411 2.2988 0.0411 2.3397 0 0 0.0819 0.94485 0.0411 2.7102 0 0.12318 0 0.36948-0.16356 0.6158-0.12317 0.20528-0.24649 0.32844-0.36965 0.41053-0.12318-0.0821-0.28737-0.16454-0.41053-0.32875-0.24632-0.32843-0.20543-0.78031-0.16439-1.1498 0.0411-0.4516 0.0821-1.1082 0-1.9292-0.45159 0.20526-0.78002 0.28724-1.0263 0.45147-1.1906 0.86212-2.3397 1.7656-3.5713 2.5867-0.82108 0.53371-1.7246 0.9438-2.5867 1.3543-0.65686 0.32843-1.2728-0.12318-1.8065-0.41053-1.9705-1.1085-3.8998-2.2984-5.8293-3.448-0.6158-0.36949-1.1498-0.78035-1.7656-1.1498-0.4516-0.28737-0.61581-0.65702-0.61581-1.1907 0.0411-3.9823 0.0825-8.0052 0.0825-11.987-0.0411-5.5012-0.0824-11.044-0.12349-16.545-0.0411-0.82108-0.20494-1.6421-0.28705-2.4632-0.0411-0.24632-0.0827-0.49219-0.0418-0.73852 0.0411-0.20527 0.24648-0.53402 0.36964-0.53402 0.20528 0 0.53387 0.20543 0.57492 0.36964 0.16422 0.69792 0.2877 1.3957 0.32876 2.0935 0.36949 6.1171 0.32842 12.234 0.20526 18.351-0.0821 3.6539-0.0822 7.2671-0.16437 10.921 0 0.78003 0.57458 1.0668 1.0672 1.3952 1.7653 1.1085 3.5307 2.2169 5.3371 3.2843 0.53369 0.28738 1.1083 0.53386 1.683 0.78018 0.65687 0.24634 1.2321-0.0413 1.7248-0.36964 1.2727-0.82107 2.4632-1.6419 3.6948-2.5042 0.82108-0.57476 1.6008-1.1497 2.545-1.8065 0-0.98528-1.6e-4 -1.9296 0.0411-2.8737 0-9.196 0.0411-18.351 0.0411-27.546 0-0.73898 0.12333-1.4364 0.16438-2.1754 0-0.12317 0.0416-0.45159 0.28786-0.61581 0.0308 0 0.13064-0.0697 0.26542-0.0697zm44.113 0.15158c1.5601 0 3.1612 3.7e-4 4.7212 0.1235 1.1906 0.0821 1.3133 0.3281 1.5596 1.5187 0.28739 1.6011 0.69792 3.2018 1.0264 4.8029 0.28739 1.2727 0.49298 2.5864 0.7393 3.9001 0.28738 1.519 0.57475 3.0796 0.82108 4.5985 0.24632 1.4779 0.49292 2.997 0.73926 4.475 0.41053 2.4223 0.82046 4.844 1.1899 7.2662 0.32843 2.0937 0.5752 4.1461 0.90363 6.2398 0.32844 2.258 0.69792 4.475 1.0264 6.733 0.0821 0.4516 0.0406 0.86262-0.4931 0.90368-0.49264 0.0411-0.61564-0.32877-0.65669-0.7393-0.20528-1.6011-0.45131-3.161-0.69763-4.7621-0.12318-1.0264-0.28721-2.0118-0.45142-3.0382-0.16423-1.0674-0.32906-2.1351-0.45222-3.2026 0-0.12317-0.0411-0.41054-0.24616-0.6158-0.20527-0.20527-0.49264-0.20527-0.6158-0.20527-0.53371 0-3.3254-0.0816-7.1436-0.1227-2.34 0-4.6798 0.0411-7.0609 0-0.28738 0-0.5334 0.0411-0.69763 0.20527-0.12318 0.12318-0.24676 0.28688-0.28783 0.5332-0.0821 0.28739-2.4223 10.346-2.8737 10.838-0.16423 0.16423-0.2871 0.16439-0.2871 0.16439-0.0821 0-0.20572-0.0414-0.28783-0.1235-0.12318-0.12317-0.20482-0.3693-0.1227-0.65669 0.90318-3.7359 1.8064-7.4304 2.6684-11.166 0.36948-1.56 0.61596-3.1202 0.98544-4.6802 0.32844-1.3958 0.69792-2.7507 1.0264-4.1055 0.32844-1.4779 0.57443-2.9562 0.90291-4.4342 0.57475-2.6275 1.1492-5.2955 1.724-7.923 0.41053-1.8475 0.82124-3.6948 1.1907-5.5423 0.12317-0.61582 0.49294-0.98546 1.1498-0.98546zm-30.913 0.20526c2.1759-0.0411 4.352 0.0824 6.4868 0.53404 1.7653 0.36948 3.4075 1.0672 4.9264 2.0935 2.6684 1.8064 4.1053 4.3518 4.3515 7.5541 0.16423 2.0116 0.12334 4.0232-0.45146 5.9528-0.41054 1.4369-1.1086 2.7096-2.0118 3.9001-0.98534 1.2727-2.1346 2.4223-3.5305 3.2843-0.41055 0.20527-0.49282 0.53322-0.36961 0.94375 0.16421 0.5337 0.36961 1.0268 0.57486 1.5195 0.9853 2.5453 1.9296 5.0907 2.8737 7.595l1.8475 4.6794c0.0411 0.0411 0.12333 0.20525 0.16438 0.41053 0.0411 0.16422 0 0.24681 0 0.28787-0.0411 0.0411-0.0821 0.20494-0.20527 0.28704-0.16423 0.12318-0.3701 0.0825-0.45221 0.0825-0.0411 0-0.12318-0.0416-0.20528-0.0825 0 0-0.12317-0.0821-0.20525-0.20526-0.12318-0.20527-0.57476-1.4779-0.61582-1.6421 0-0.0411-0.0402-0.20494-0.16359-0.49232-0.24632-0.65685-0.45188-1.1498-0.534-1.3551-0.32843-0.86213-0.32843-1.0262-0.82107-2.2988-0.20528-0.57475-0.32844-0.94408-0.61581-1.683-0.78002-2.0937-1.5598-4.1469-2.3397-6.2407-0.24633-0.6979-0.57476-0.90252-1.2316-0.57409-2.0937 1.1084-4.3523 1.6418-6.6103 2.1345-0.45159 0.0821-0.53324 0.41054-0.53324 0.82109v6.2398c0 1.6011 1.5e-4 3.2028-0.0411 4.8037 0 0.41053-0.0413 0.82107-0.53399 0.82107-0.49264-0.0411-0.49236-0.49248-0.49236-0.86196v-18.68h0.0819c-0.0411-6.1171-0.12334-12.234-0.36966-18.227 0-0.28738-1.6e-4 -0.5337 0.0411-0.82107 0.0821-0.57476 0.49281-0.78021 0.98545-0.78021zm56.131 0.50838c0.15397-0.0362 0.31844 5e-3 0.4827 0.14825 0.36948 0.28737 0.16434 0.57525-0.0411 0.90367-1.0674 1.519-2.217 2.9967-3.2434 4.5569-1.519 2.258-1.6829 4.762-0.69762 7.2662 0.53369 1.4369 1.3137 2.8332 2.0527 4.188 1.8884 3.4485 2.6269 4.1461 3.2426 6.0345 0.36948 1.2316 0.53387 2.2576 0.57492 2.9556 0 0.41053-0.0411 1.0267-0.20528 1.7656-0.16421 0.9853-0.49231 1.7243-0.69758 2.258-1.1084 2.6685-3.0381 4.7209-4.8856 6.8557-0.28737 0.28737-0.61614 0.41086-0.94457 0.12349-0.32842-0.28737-0.16372-0.61564 0.0825-0.86197 0.45156-0.53369 0.94436-1.0268 1.396-1.5195 1.3548-1.519 2.5453-3.1196 3.2843-5.0491 0.65686-1.7243 0.94378-3.4486 0.53325-5.2961-0.36948-1.5601-1.1493-2.8742-1.8883-4.229-1.1495-2.1348-2.4223-4.2283-3.4486-6.4042-0.53369-1.1084-0.77957-2.4223-0.94377-3.654-0.16423-1.6421 0.49235-3.202 1.3134-4.5977 1.0264-1.7653 2.0935-3.531 3.5305-5.0499 0.0411 0 0.0416-0.0406 0.0825-0.0817 0.12318-0.16421 0.26624-0.27679 0.42018-0.31271zm32.259 0.18922c0.20527 0 0.32857 0.16421 0.36965 0.20527 0.12318 0.12318 0.12255 0.24648 0.16359 0.36964 0.0411 0.24633 0.0416 0.45209 0.0416 0.49314-0.0411 0.41054 0.0411 0.82107 0 1.2316-0.0411 1.1495 0.16426 29.066 0.20528 32.924 0 0.94424 0.0411 1.9294 0 2.9146 0 0.41053-0.0413 0.90368-0.5749 0.90368-0.57477 0-0.6567-0.45208-0.6567-0.90368 0-4.3516-0.0416-8.662-0.0416-13.014v-5.7476h-0.1227v-18.515c0-0.0411-1.3e-4 -0.16454 0.041-0.32875 0-0.0821 0.0413-0.2056 0.1644-0.32875 0.0411-0.0821 0.20524-0.20527 0.41051-0.20527zm-56.737 0.20527c-0.53371 0-0.82064 0.24664-0.9438 0.7393-0.28737 1.2727-0.57458 2.504-0.86196 3.7766l-1.2316 5.9118c-0.6158 2.8327-1.2316 5.7066-1.8475 8.5804-0.28737 1.3958-0.61609 2.7913-0.94452 4.1872-0.16421 0.73897-0.28708 1.4781-0.49236 2.4223 5.1317 0 10.099 1.6e-4 15.107-0.0411 0.0411-0.20525 0.0819-0.41053 0.0411-0.6158-0.20527-1.1085-0.36888-2.2576-0.57413-3.3661l-0.98546-5.9118c-0.24632-1.3958-0.45204-2.8331-0.69836-4.229-0.32844-1.8064-0.65687-3.5715-1.0264-5.3779l-1.1082-5.2961c-0.12317-0.41053-0.32859-0.6567-0.78014-0.6567-1.2316-0.0411-2.4223-0.0824-3.654-0.12349zm-29.635 0.12826c-0.62093 5e-3 -1.1748 0.0362-1.647 0.077 0 8.0876 1.2e-4 16.092-0.0411 24.221 0.41055 0 0.69805 0.0411 0.98541 0 3.2023-0.49265 6.1576-1.6827 8.744-3.6123 1.9705-1.4369 3.3662-3.3258 4.1463-5.6248 0.90317-2.6275 1.0263-5.2953 0.20525-7.9638-0.28737-1.0264-0.78001-2.0945-1.4369-2.9154-1.6011-1.9705-3.6534-2.7916-5.0082-3.2843-1.6421-0.57475-2.9559-0.73896-3.9001-0.82107-0.73898-0.0616-1.427-0.0821-2.048-0.077zm108.1 0.0254c0.0411-0.01 0.0924-0.01 0.15397 0.01 0.12318 0.0411 0.20526 0.16421 0.20526 0.20526 0.0821 0.20527 0 0.45159-0.0817 0.6158l-0.0819 0.16438c-0.36948 0.4516-0.82106 0.82108-1.2316 1.2316-0.86215 0.90317-1.7657 1.7243-2.5458 2.6684-1.3137 1.6011-2.3812 3.2843-3.2843 5.1317-1.8475 3.8591-2.381 7.9234-1.8883 12.111 0.16426 1.6011 0.69776 3.2023 1.2725 4.6802 0.94423 2.34 2.2991 4.4334 4.0645 6.2807 1.0674 1.0674 2.1759 2.0943 3.2434 3.1616 0.24634 0.28737 0.61571 0.5332 0.24619 0.94375-0.36946 0.41053-0.69807 0.12381-0.98542-0.16356-0.8211-0.73898-1.6832-1.4369-2.4632-2.258-1.56-1.6832-3.0378-3.4486-4.1462-5.5014-0.90319-1.6832-1.5602-3.4486-2.0118-5.2961-0.65684-2.6275-0.73882-5.2961-0.24616-7.9646 0.20527-1.0264 0.45172-2.668 1.1907-4.6386 0.8621-2.34 1.9292-3.9413 2.5451-4.8856 0.4516-0.69791 0.86243-1.2728 1.7656-2.4223 0.12317-0.16422 0.86199-1.1085 1.8883-2.258 0.12318-0.12317 0.41066-0.41086 0.98541-0.94457 0 0 0.49237-0.45158 1.3134-0.82107 0.0205-0.0205 0.0511-0.0411 0.0922-0.0513zm-36.158 0.34961c0.0514 0 0.10255 0.01 0.1435 0.0303 0.0411 0 0.0411 0.0413 0.20527 0.16437 0.0821 0.0821 0.20512 0.20494 0.24615 0.28705v0.16461c-0.041 0.0821-0.0817 0.20527-0.0817 0.20527-0.0411 0.12318-0.12318 0.16389-0.20526 0.28705-1.2727 1.8473-2.5864 3.6128-3.6948 5.5423-1.2727 2.258-1.026 4.6394 0.1235 6.8974 1.2316 2.3812 2.5453 4.721 3.9001 7.0201 0.94422 1.6011 1.601 3.3669 1.6422 5.2144 0.041 1.1495-0.24651 2.381-0.57496 3.5305-0.65686 2.2989-2.0942 4.1048-3.5721 5.8702-0.45157 0.53369-0.90273 1.0677-1.3543 1.5604-0.1642 0.16421-0.32871 0.36948-0.53399 0.41053-0.20525 0.0411-0.57444-1.6e-4 -0.69759-0.16437-0.0821-0.12317 0-0.53337 0.1227-0.69759 1.1495-1.4369 2.3813-2.751 3.4486-4.229 0.61582-0.82107 1.0264-1.8061 1.4369-2.7502 0.24633-0.57475 0.36993-1.2316 0.49309-1.8475 0.32847-1.9296-0.0411-3.7772-0.98546-5.4604-1.1084-1.9296-2.2988-3.8178-3.3251-5.7885-0.98529-1.8473-1.4782-2.7918-1.7656-4.0645-0.20529-0.78001-0.57481-2.5866 0-4.6802 0.45154-1.6832 1.355-2.9559 1.5603-3.2843 0.24632-0.36948 0.69775-0.98513 1.0672-1.4778 0.41052-0.53371 0.69789-0.94392 1.0263-1.3134 0.32844-0.36948 0.53351-0.61614 0.65672-0.7393 0.0411 0 0.12302-0.12302 0.24615-0.24614 0.0411-0.0821 0.0824-0.12334 0.12349-0.16439 0 0 0.0406-0.0822 0.1227-0.16438l0.0825-0.0817c0.041-0.0205 0.0922-0.0303 0.1435-0.0303zm-69.895 3.3148c0.73896 0.24632 2.1757 0.7388 3.5305 2.0935 0.32843 0.32844 1.437 1.4369 2.0118 3.2843 0.61581 1.9705 0.45187 4.0648-0.2871 6.2407-0.49264 1.4779-1.7243 2.4218-3.0791 3.1608-0.53371 0.28737-1.1091 0.53338-1.8891 0.90286-0.16422-0.32843-0.45143-0.6562-0.45143-0.98463 0-2.7507-1.6e-4 -5.5428 0.0411-8.2933 0-1.6011-0.0816-2.8327 0.0825-5.5423 0-0.36948 0.0411-0.65669 0.0411-0.86196zm29.067 3.8183h0.2871c0.16421 0.57476 0.36933 1.108 0.45142 1.7648 0.78003 3.818 1.5599 7.6771 2.2989 11.495 0.12318 0.65687-0.12318 0.90368-0.82108 0.90368h-4.6796c-0.94424 0-1.1498-0.28754-0.94453-1.1907l2.0935-8.6212c0.28737-1.2316 0.65702-2.4223 0.98546-3.654 0.0821-0.24632 0.20554-0.45126 0.3287-0.69758z" fill="#fff"/>
</svg>
