<?xml version="1.0" encoding="UTF-8"?>
<svg width="800" height="227.51" version="1.1" xmlns="http://www.w3.org/2000/svg">
	<defs>
		<linearGradient id="A" x1="738.86" x2="738.86" y1="222.06" y2="1106.5" gradientTransform="matrix(.22751 0 0 .22751 -3.4341 -37.512)" gradientUnits="userSpaceOnUse">
			<stop stop-color="#19a5f5" offset=".4"/>
			<stop stop-color="#0282dc" offset="1"/>
		</linearGradient>
		<linearGradient id="B" x1="1611.9" x2="3531.5" y1="664.86" y2="664.86" gradientTransform="matrix(.22751 0 0 .22751 -3.4341 -37.512)" gradientUnits="userSpaceOnUse">
			<stop stop-color="#0186e0" offset="0"/>
			<stop stop-color="#54dcf7" offset="1"/>
		</linearGradient>
		<linearGradient id="C" x1="-194.84" x2="-185.95" y1="2843.6" y2="2843.6" gradientTransform="matrix(-.29933 -8.5719 -8.5719 .29933 24483 -2401.7)" gradientUnits="userSpaceOnUse">
			<stop stop-color="#fff" offset="0"/>
			<stop stop-color="#fff" stop-opacity=".25" offset=".515"/>
		</linearGradient>
		<linearGradient id="D" x1="-193.18" x2="-184.29" y1="2823.3" y2="2823.3" gradientTransform="matrix(-.44511 -12.746 -12.746 .44511 36484 -3609.9)" gradientUnits="userSpaceOnUse">
			<stop stop-color="#fff" offset="0"/>
			<stop stop-color="#fff" stop-opacity=".25" offset=".515"/>
		</linearGradient>
	</defs>
	<g>
		<path d="m101.56 136.41c0 19.565-12.74 33.762-38.767 36.583-18.746 2.002-45.956-0.36401-58.878-1.82-0.45501-2.093-0.81902-4.7321-0.81902-6.8252 0-17.017 9.1912-20.93 17.836-20.93 9.0092 0 23.206 1.547 33.671 1.547 11.648 0 15.106-3.9131 15.106-7.6442 0-4.9141-4.6411-6.9162-13.65-8.6452l-24.662-4.7321c-20.475-3.9131-31.396-18.018-31.396-33.034 0-18.2 12.922-33.489 38.403-36.31 19.201-2.093 42.68 0.27301 55.511 1.82 0.45501 2.1841 0.72802 4.2771 0.72802 6.5522 0 17.017-9.0092 20.657-17.654 20.657-6.6432 0-16.926-1.183-28.757-1.183-12.012 0-16.926 3.2761-16.926 7.2802 0 4.2771 4.7321 6.0061 12.194 7.3712l23.479 4.3681c24.207 4.3681 34.581 18.109 34.581 34.945m42.134 20.93c0 10.465-4.0951 16.471-24.571 16.471-2.7301 0-5.0961-0.18201-7.3712-0.54602v-138.69c0-10.556 3.5491-21.568 24.207-21.568 2.6391 0 5.2781 0.27301 7.7352 0.81902zm83.631 53.691c2.7301 1.365 8.1902 3.0941 15.106 3.1851 11.921 0.27301 18.382-4.2771 23.206-14.924l63.702-141.78c-2.6391-1.365-8.4632-3.0031-13.195-3.0941-8.1902-0.182-19.201 1.456-26.209 18.2l-20.748 48.504-40.496-65.795c-2.6391-0.81902-9.0092-1.911-13.65-1.911-14.378 0-22.296 5.2781-30.577 14.196l-39.313 42.953 31.669 49.778c5.8241 9.1002 13.559 13.741 26.027 13.741 8.1902 0 15.015-1.911 18.2-3.3671l-38.13-57.331 27.028-28.666 44.318 69.435z" fill="url(#A)"/>
		<path d="m784.89 4e-3h-406.42c-8.3722 0-15.197 6.8252-15.197 15.197v197.11c0 8.3722 6.8252 15.197 15.197 15.197h406.32c8.3722 0 15.197-6.8252 15.197-15.197v-197.2a15.07 15.07 0 0 0-15.106-15.106" fill="url(#B)"/>
		<path d="m111.84 34.585v95.097c0-3.8221 2.9121-7.8262 7.8262-8.0082l16.016-0.54602c3.1851-0.091 8.0082-2.275 8.0992-8.0992v-99.191c-2.4571-0.54601-5.0961-0.81902-7.7352-0.81902-20.657 0.091-24.207 11.011-24.207 21.568m72.802 33.125-39.313 42.953 3.1851 4.9141c1.365 1.82 4.0041 4.9141 9.2822 4.7321l22.387-0.81901c4.9141-0.182 8.0082 1.911 9.9191 4.4591l-7.0072-10.556 27.028-28.666 18.109 28.484c3.2761 4.2771 8.1902 4.3681 9.2822 4.3681 0.91002 0 24.753-0.81902 25.754-0.91002 1.638-0.091 3.5491 0.81902 5.0051 2.9121l-39.404-64.066c-2.6391-0.81902-9.0092-1.911-13.65-1.911-14.378-0.091-22.296 5.0961-30.577 14.105m-146.24-13.195c-25.481 2.8211-38.403 18.018-38.403 36.31 0 9.3732 4.2771 18.382 12.467 24.844 6.1881 4.0951 12.558 5.6421 18.837 6.7342 5.1871 0.91003 17.29 1.729 26.3 1.365l28.029-1.001c10.556-0.36401 16.198 8.6452 15.652 17.654v-0.45501c0.091-1.183 0.182-2.3661 0.182-3.5491 0-16.835-10.374-30.577-34.49-35.036l-23.479-4.3681c-7.5532-1.274-12.194-3.0941-12.194-7.3712 0-4.0041 5.0051-7.3712 16.926-7.3712 11.83 0 22.114 1.183 28.757 1.183 8.6452 0 17.654-3.6401 17.654-20.657 0-2.2751-0.27301-4.3681-0.72802-6.5522-9.1912-1.092-23.934-2.6391-38.585-2.6391-5.7331 0.091-11.466 0.36401-16.926 0.91002m251.44 18.109-20.111 47.412c0-0.091 1.274-3.7311 5.1871-3.9131l21.295-0.72801c6.4612-0.273 9.0092-4.6411 9.7371-6.0972l23.297-51.962c-2.6391-1.365-8.4632-3.0031-13.195-3.0941h-1.001c-8.0992 0.091-18.473 2.2751-25.208 18.382" fill="url(#C)" opacity=".3"/>
		<path d="m378.48 4e-3c-8.3722 0-15.197 6.8252-15.197 15.197v109.38c0-1.638 0.637-10.647 10.92-11.648 0 0 0.546-0.091 1.456-0.091l413.06-14.333c5.7331-0.182 11.284-4.4591 11.284-11.557v-71.755c0-8.3722-6.8252-15.197-15.197-15.197z" fill="url(#D)" opacity=".3"/>
		<path d="m756.8 121.97h-83.426c2.6846 20.84 17.268 32.738 38.79 32.738 9.1912 0 16.38-2.0248 23.115-4.2544 4.4819-1.5698 6.9617-2.4571 8.7362-2.4571 4.5046 0 7.8489 4.2544 6.7342 13.901-9.4414 4.2544-24.002 8.759-39.267 8.759-33.421 0-56.308-22.66-56.308-56.08 0-32.056 24.002-55.398 53.396-55.398 32.966 0 49.118 26.231 49.118 51.803 0.0227 3.3671-0.22749 6.9617-0.88727 10.989m-83.426-14.583h67.069c-0.68252-18.382-12.558-32.966-31.851-32.966-17.063 0-32.306 11.444-35.218 32.966m-40.45-2.4571v57.65c0 4.2544-2.2296 6.7114-9.1912 6.7114-2.9121 0-6.2792-0.43225-8.0764-0.88726v-61.244c0-21.977-10.989-32.511-26.914-32.511-12.786 0-26.459 8.9865-32.056 19.292v68.638c0 4.2544-2.2296 6.7114-9.1911 6.7114-3.1396 0-6.5066-0.43225-8.0764-0.88726v-106.77c1.5925-0.45501 4.9369-1.1375 8.0764-1.1375 6.9617 0 9.1911 2.6846 9.1911 6.7342v9.1912c7.8489-9.4415 19.747-17.29 35.878-17.29 21.977 0.0455 40.359 14.174 40.359 45.797m-226.91 9.8736c0-31.851 23.547-55.625 55.17-55.625 31.623 0 55.17 23.774 55.17 55.625 0 32.056-23.547 55.853-55.17 55.853-31.623 0-55.17-23.797-55.17-55.853m92.617 0c0-24.662-16.835-40.155-37.447-40.155-20.657 0-37.447 15.47-37.447 40.155 0 24.889 16.813 40.61 37.447 40.61 20.612-0.0228 37.447-15.721 37.447-40.61" fill="#fff"/>
	</g>
</svg>
