<svg xmlns="http://www.w3.org/2000/svg" viewBox="0 0 801.08 262.5" ><g transform="matrix(.65155 0 0 .65155 -9.837995 -107.440593)"><path d="M126.7 314.7c0 21.5-14 37.1-42.6 40.2-20.6 2.2-50.5-.4-64.7-2-.5-2.3-.9-5.2-.9-7.5 0-18.7 10.1-23 19.6-23 9.9 0 25.5 1.7 37 1.7 12.8 0 16.6-4.3 16.6-8.4 0-5.4-5.1-7.6-15-9.5L49.6 301c-22.5-4.3-34.5-19.8-34.5-36.3 0-20 14.2-36.8 42.2-39.9 21.1-2.3 46.9.3 61 2 .5 2.4.8 4.7.8 7.2 0 18.7-9.9 22.7-19.4 22.7-7.3 0-18.6-1.3-31.6-1.3-13.2 0-18.6 3.6-18.6 8 0 4.7 5.2 6.6 13.4 8.1l25.8 4.8c26.6 4.9 38 19.9 38 38.4m46.3 23c0 11.5-4.5 18.1-27 18.1-3 0-5.6-.2-8.1-.6V202.9c0-11.6 3.9-23.7 26.6-23.7 2.9 0 5.8.3 8.5.9zm91.9 59c3 1.5 9 3.4 16.6 3.5 13.1.3 20.2-4.7 25.5-16.4l70-155.7c-2.9-1.5-9.3-3.3-14.5-3.4-9-.2-21.1 1.6-28.8 20L310.9 298l-44.5-72.3c-2.9-.9-9.9-2.1-15-2.1-15.8 0-24.5 5.8-33.6 15.6l-43.2 47.2 34.8 54.7c6.4 10 14.9 15.1 28.6 15.1 9 0 16.5-2.1 20-3.7l-41.9-63 29.7-31.5 48.7 76.3z" fill="#ff0031"/><linearGradient id="A" x1="414.37" x2="1244.631" y1="289.839" y2="289.839" gradientUnits="userSpaceOnUse"><stop stop-color="#ff0031" offset="0"/><stop stop-color="#9b001f" offset="1"/></linearGradient><path d="M1228 164.9H430.9c-9.2 0-16.7 7.5-16.7 16.7v216.5c0 9.2 7.5 16.7 16.7 16.7h797c9.2 0 16.7-7.5 16.7-16.7V181.5c-.1-9.2-7.4-16.6-16.6-16.6" fill="url(#A)"/><linearGradient id="B" x1="197.483" x2="194.588" y1="295.135" y2="212.243" gradientUnits="userSpaceOnUse"><stop stop-color="#fff" offset="0"/><stop stop-color="#fff" stop-opacity=".25" offset=".515"/></linearGradient><path d="M138 202.9v104.5c0-4.2 3.2-8.6 8.6-8.8l17.6-.6c3.5-.1 8.8-2.5 8.9-8.9v-109c-2.7-.6-5.6-.9-8.5-.9-22.7.1-26.6 12.1-26.6 23.7m80 36.4l-43.2 47.2 3.5 5.4c1.5 2 4.4 5.4 10.2 5.2l24.6-.9c5.4-.2 8.8 2.1 10.9 4.9l-7.7-11.6L246 258l19.9 31.3c3.6 4.7 9 4.8 10.2 4.8 1 0 27.2-.9 28.3-1 1.8-.1 3.9.9 5.5 3.2l-43.3-70.4c-2.9-.9-9.9-2.1-15-2.1-15.8-.1-24.5 5.6-33.6 15.5M57.3 224.8c-28 3.1-42.2 19.8-42.2 39.9 0 10.3 4.7 20.2 13.7 27.3 6.8 4.5 13.8 6.2 20.7 7.4 5.7 1 19 1.9 28.9 1.5l30.8-1.1c11.6-.4 17.8 9.5 17.2 19.4v-.5c.1-1.3.2-2.6.2-3.9 0-18.5-11.4-33.6-37.9-38.5l-25.8-4.8c-8.3-1.4-13.4-3.4-13.4-8.1 0-4.4 5.5-8.1 18.6-8.1 13 0 24.3 1.3 31.6 1.3 9.5 0 19.4-4 19.4-22.7 0-2.5-.3-4.8-.8-7.2-10.1-1.2-26.3-2.9-42.4-2.9-6.3.1-12.6.4-18.6 1m276.2 19.9l-22.1 52.1c0-.1 1.4-4.1 5.7-4.3l23.4-.8c7.1-.3 9.9-5.1 10.7-6.7l25.6-57.1c-2.9-1.5-9.3-3.3-14.5-3.4h-1.1c-8.9.1-20.3 2.5-27.7 20.2" fill="url(#B)" opacity=".3" enable-background="new"/><linearGradient id="C" x1="830.555" x2="826.25" y1="276.73" y2="153.473" gradientUnits="userSpaceOnUse"><stop stop-color="#fff" offset="0"/><stop stop-color="#fff" stop-opacity=".25" offset=".515"/></linearGradient><path d="M430.9 164.9c-9.2 0-16.7 7.5-16.7 16.7v120.2c0-1.8.7-11.7 12-12.8 0 0 .6-.1 1.6-.1l804.4-28.2c6.3-.2 12.4-4.9 12.4-12.7v-66.3c0-9.2-7.5-16.7-16.7-16.7z" fill="url(#C)" opacity=".3" enable-background="new"/><g fill="#fff"><path d="M1190.1 275.3v74.5c-2 .5-5.4 1-8.8 1-7 0-10.1-2.5-10.1-7.4v-9.8c-11.1 11.7-24.3 18.6-41.8 18.6-26.3 0-40.8-16.8-40.8-35.6 0-28.4 30.7-40.8 82.6-37.4V276c0-18.1-5.9-28.9-28.9-28.9-11.9 0-22.2 2.6-29.2 4.9-3.6 1-6.4 1.9-8.3 1.9-5.4 0-8.5-4.9-7.3-15.2 11.7-4.4 29.2-8.3 45.6-8.3 34.3.1 47 17.2 47 44.9m-19.1 40.8v-22.5c-33.8-1.5-63 1.8-63 22.7 0 10.3 8.8 19.9 24.5 19.9 16 0 29.5-8.1 38.5-20.1m-709.6-25c0-34.8 25.8-60.7 59.6-60.7 16.2 0 30.7 4.4 40.8 9.6 1 10.6-2.9 15-7.8 15-6.9 0-14.5-7.5-32.3-7.5-22.5 0-40.8 16.8-40.8 43.9s18.3 44.4 40.8 44.4c17.8 0 25.5-7.5 32.3-7.5 4.9 0 8.8 4.4 7.8 15-10.3 4.9-24.8 9.3-40.8 9.3-33.8-.5-59.6-26.7-59.6-61.5m413.8 7.8h-91.1c2.9 22.7 18.9 35.8 42.4 35.8 10.1 0 17.8-2.3 25.3-4.6 4.9-1.8 7.5-2.8 9.6-2.8 4.9 0 8.5 4.6 7.3 15.2-10.3 4.6-26.1 9.6-42.9 9.6-36.4 0-61.5-24.8-61.5-61.2 0-35.1 26.1-60.6 58.3-60.6 35.9 0 53.7 28.7 53.7 56.6-.1 3.7-.4 7.6-1.1 12m-91-15.7h73.3c-.8-20.1-13.7-35.9-34.8-35.9-18.8-.2-35.4 12.4-38.5 35.9m-201.8-77.6c0-7.2 5.7-12.4 12.4-12.4 6.9 0 12.2 5.4 12.2 12.4 0 6.4-5.4 12.2-12.2 12.2s-12.4-5.9-12.4-12.2m2.7 144.1V239.3c0-4.4 2.4-7.3 10.3-7.3 3.1 0 6.9.8 8.8 1.3v110.2c0 4.6-2.6 7.3-10.3 7.3-3.2-.1-6.9-.6-8.8-1.1"/><path d="M1064.5 272.9v70.5c0 4.6-2.6 7.3-10.3 7.3-3.1 0-6.9-.5-8.8-1V275c0-17.3-8.3-27.6-23.8-27.6-13.2 0-24.5 9.6-28.9 19.1v76.9c0 4.6-2.4 7.3-10.1 7.3-3.4 0-7-.5-9-1V275c0-17.3-8-27.6-23.8-27.6-13.2 0-24.5 9.6-28.9 19.1v76.9c0 4.6-2.4 7.3-10.1 7.3-3.4 0-7.2-.5-8.8-1V233.2c2-.5 5.7-1.3 8.8-1.3 7.3 0 9.8 2.9 9.8 7.8v8.3c7.5-10.1 19.4-17.6 33.8-17.6 15.5 0 27.6 8 33.8 21.2 8-11.7 20.4-21.2 37.7-21.2 25.2.1 38.6 19.2 38.6 42.5m-325.3 7.5v63c0 4.6-2.4 7.3-10.1 7.3-3.1 0-6.9-.5-8.8-1V283c0-24-11.9-35.4-29.4-35.4-13.9 0-28.9 9.8-35.1 21.1v74.9c0 4.6-2.5 7.3-10.1 7.3-3.4 0-7-.5-8.8-1V233.2c1.8-.5 5.4-1.3 8.8-1.3 7.5 0 10.1 2.9 10.1 7.3v10.1c8.5-10.3 21.5-18.9 39.2-18.9 24.1.1 44.2 15.4 44.2 50"/></g></g><path d="M524.653 208.142c1.871-4.203 6.376-6.608 10.792-7.127 4.983-.522 10.051.277 14.776 1.874-.057 2.106.172 4.779-1.747 6.182-2.09 1.295-4.556.146-6.758-.15-2.154-.15-4.572-.42-6.443.904-1.359.859-2.03 2.431-2.265 3.964-.312 2.119-.207 4.27-.22 6.405l13.141-.004c.42 1.759.592 3.627.207 5.403-.302 1.371-1.721 2.176-3.054 2.148-3.43.032-6.863-.004-10.293.013v29.024c.004 1.26.156 2.657-.646 3.735-.719 1.149-2.144 1.489-3.408 1.575-1.839.102-3.697-.016-5.498-.395l.016-33.92c-1.966-.048-3.933-.004-5.899-.025-.286-2.062-.741-4.362.286-6.284 1.282-1.779 3.729-1.158 5.6-1.27.048-4.038-.391-8.298 1.413-12.052zm-45.853-7.09c6.408-.705 13.117.485 18.623 3.925 4.722 2.833 8.457 7.185 10.736 12.179 2.8 5.89 3.46 12.628 2.604 19.046-1.099 7.552-4.902 14.819-10.93 19.58-9.792 7.818-24.916 7.893-34.806.216-4.889-3.732-8.326-9.169-10.136-15.006-2.158-7.273-1.922-15.301.905-22.364 1.827-4.63 4.85-8.798 8.775-11.871 4.096-3.171 9.07-5.201 14.229-5.706m1.515 9.008a16.75 16.75 0 0 0-7.155 2.614c-4.401 2.843-7.277 7.637-8.46 12.671-.859 3.876-.81 7.949.049 11.818 1.171 5.112 4.099 9.972 8.595 12.805 3.915 2.571 8.985 3.338 13.465 1.931 4.345-1.335 8.034-4.46 10.356-8.333 3.437-5.693 4.188-12.819 2.456-19.193-1.259-4.716-4.119-9.084-8.267-11.736-3.223-2.132-7.205-3.033-11.038-2.578zm-77.222-4.344c2.162-.519 4.457-.356 6.598.203.15 3.752.08 7.513.033 11.268 5.022.286 10.071.05 15.106.12.306 1.849.669 3.778.183 5.634-.326 1.344-1.676 2.301-3.05 2.238l-12.106.02-.037 21.272c-.04 2.072.516 4.274 2.092 5.717 1.51 1.407 3.732 1.58 5.694 1.367 1.61-.146 3.073-.878 4.566-1.45 1.573-.615 3.622-.299 4.62 1.167 1.084 1.603.758 3.635.762 5.458-4.746 2.83-10.46 4.031-15.927 3.1-2.744-.456-5.378-1.706-7.357-3.672-2.119-2.032-3.416-4.806-3.974-7.663-.412-2.085-.309-4.224-.316-6.339l-.004-18.954c-2.331-.023-4.663.03-6.994-.03-.22-2.168-.792-4.606.372-6.595 1.616-2.009 4.423-1.014 6.625-1.3.04-2.458-.083-4.922.06-7.38.116-1.816 1.194-3.705 3.053-4.181zm-48.268 17.142c2.524-3.126 6.507-4.638 10.373-5.228 7.231-.946 14.599.265 21.467 2.566.101 2.052.17 4.403-1.254 6.059-1.588 1.624-4.105.917-6.056.511-4.242-1.388-8.832-1.774-13.238-1.041-2.016.272-4.105 1.967-3.709 4.193.111 1.83 1.974 2.681 3.463 3.237 4.566 1.516 9.326 2.432 13.823 4.164 2.835 1.146 5.719 2.694 7.421 5.336 2.085 3.254 2.102 7.49.789 11.035-1.002 2.782-3.319 4.91-5.954 6.141-4.282 2.085-9.169 2.327-13.846 2.124-5.329-.295-10.606-1.421-15.637-3.195-.242-2.105-.275-4.56 1.264-6.216 1.352-1.391 3.47-.936 5.152-.556 3.453.903 6.917 1.99 10.521 2 2.593.033 5.388.085 7.686-1.296 1.627-.939 2.066-3.116 1.519-4.802-.491-1.427-1.974-2.088-3.264-2.619-5.486-2.066-11.457-2.799-16.671-5.584-2.442-1.277-4.583-3.306-5.499-5.954-1.234-3.591-.756-7.869 1.65-10.874zm-39.318-3.608c4.007-1.979 8.633-2.303 12.996-1.612 5.246.869 9.995 4.146 12.779 8.662 3.095 4.993 4.088 11.15 3.014 16.902-10.281.007-20.562-.039-30.84.023.23 3.15 1.791 6.281 4.425 8.094 1.58 1.158 3.484 1.804 5.405 2.128 3.78.591 7.676.117 11.257-1.2 1.807-.616 3.864-1.447 5.723-.581 2.226 1.489 2.388 4.561 1.937 6.949-2.813 1.414-5.895 2.274-8.964 2.959-6.151.951-12.808.96-18.456-1.985-4.376-2.122-7.825-5.986-9.6-10.498-1.937-4.86-2.239-10.313-1.119-15.404 1.476-6.158 5.625-11.767 11.442-14.437m2.251 7.767c-2.767 2.17-4.146 5.658-4.483 9.081 7.387.136 14.784.007 22.174.065-.068-2.926-1.268-5.784-3.17-7.994-1.509-1.775-3.75-2.832-6.047-3.092-2.92-.36-6.115.049-8.474 1.94zm-61.431 35.122c-2.326 0-3.818-.456-4.478-1.367s-.99-2.09-.99-3.536v-51.477c0-1.446.33-2.624.99-3.536s2.153-1.367 4.478-1.367h15.556c3.897 0 7.244.393 10.041 1.179s5.091 1.886 6.882 3.3 3.096 3.096 3.913 5.044 1.226 4.086 1.226 6.411c0 3.206-.911 6.003-2.734 8.391s-4.337 4.117-7.542 5.185c4.211 1.006 7.338 2.828 9.381 5.468s3.064 5.563 3.064 8.768c0 5.72-1.948 10.072-5.845 13.058s-9.9 4.478-18.008 4.478zm4.808-35.732h10.371c2.263 0 4.164-.22 5.704-.66s2.766-1.037 3.677-1.791 1.571-1.65 1.98-2.687.613-2.153.613-3.347c0-5.154-3.928-7.731-11.785-7.731h-10.559zm0 26.399h9.994c4.903 0 8.485-.676 10.748-2.027s3.394-3.63 3.394-6.835a9.45 9.45 0 0 0-.566-3.253c-.377-1.037-1.053-1.948-2.027-2.734s-2.341-1.43-4.101-1.933-4.054-.754-6.882-.754h-10.559z" fill="#fff"/></svg>