<?xml version="1.0" encoding="UTF-8"?>
<svg width="800" height="261.54" version="1.1" xmlns="http://www.w3.org/2000/svg">
	<g>
		<path d="m467.36 179.36c-2.0084-1e-5 -3.3894 0.40869-4.1426 1.2246-0.69039 0.8159-1.0352 1.8522-1.0352 3.1074v59.781c0.5021 0.12548 1.2246 0.21845 2.166 0.28125 1.0042 0.12552 1.9765 0.18945 2.918 0.18945 2.0084 0 3.3584-0.4087 4.0488-1.2246 0.75315-0.81591 1.1289-1.8522 1.1289-3.1074v-17.793l16.004 18.547c0.69038 0.75315 1.6317 1.5376 2.8242 2.3535 1.1925 0.81591 2.7304 1.2246 4.6133 1.2246 1.318 0 2.5731-0.12591 3.7656-0.37695 1.2552-0.25105 2.3864-0.62876 3.3906-1.1309l-20.43-22.594 19.205-20.807c-0.87868-0.31381-1.851-0.56367-2.918-0.75196-1.067-0.25105-2.1652-0.37695-3.2949-0.37695-1.8829 0-3.3588 0.25181-4.4258 0.75391-1.067 0.5021-2.0393 1.2226-2.918 2.1641l-15.816 17.228v-38.223c-0.50209-0.12556-1.2556-0.21852-2.2598-0.28125-0.94143-0.12553-1.8828-0.18945-2.8242-0.18945zm-193.46 2.166c-4.2678 0-7.8144 0.53265-10.639 1.5996s-5.0828 2.417-6.7773 4.0488c-1.6946 1.6318-2.8877 3.4835-3.5781 5.5547-0.69039 2.0084-1.0352 3.986-1.0352 5.9316 0 3.8913 1.1932 7.3429 3.5781 10.355 2.4477 3.0126 6.7458 5.366 12.896 7.0605l7.8144 2.166c1.5063 0.43933 2.8234 0.87706 3.9531 1.3164 1.1925 0.43933 2.1978 0.97393 3.0137 1.6016 0.81591 0.56486 1.4435 1.2854 1.8828 2.1641 0.43933 0.8159 0.6582 1.8212 0.6582 3.0137 0 2.385-0.94135 4.3626-2.8242 5.9316-1.8201 1.5691-4.896 2.3535-9.2266 2.3535-2.0712 0-3.9848-0.1259-5.7422-0.37696-1.6946-0.25104-3.2635-0.53384-4.707-0.84765-1.3808-0.31382-2.6359-0.59661-3.7656-0.84766-1.1297-0.25105-2.1021-0.37695-2.918-0.37695-1.6946 0-2.9187 0.66051-3.6719 1.9785-0.75315 1.2552-1.1289 2.9171-1.1289 4.9883v0.66016c0.0627 0.18829 0.0937 0.40716 0.0937 0.6582 3.7657 1.2552 7.4362 2.1966 11.014 2.8242 3.6402 0.62762 6.9988 0.9414 10.074 0.9414 4.1423 0 7.6888-0.43968 10.639-1.3184 2.9498-0.94144 5.3962-2.2276 7.3418-3.8594 1.9456-1.6318 3.3576-3.5765 4.2363-5.8359 0.94143-2.2594 1.4121-4.7717 1.4121-7.5332 0-8.5357-5.4912-14.246-16.475-17.133l-8.2851-2.3535c-3.6402-1.0042-6.1815-2.0405-7.625-3.1074-1.3808-1.067-2.0703-2.6359-2.0703-4.707 0-0.87867 0.18788-1.7251 0.56446-2.541 0.37658-0.87867 1.0041-1.6631 1.8828-2.3535 0.87867-0.69038 2.0389-1.225 3.4824-1.6016 1.4435-0.43934 3.2642-0.6582 5.4609-0.6582 1.9456 0 3.7024 0.1259 5.2715 0.37695 1.5691 0.18829 2.9501 0.40716 4.1426 0.6582 1.2552 0.18829 2.3535 0.40715 3.2949 0.65821 1.0042 0.18828 1.9146 0.2832 2.7305 0.2832 1.6318 0 2.794-0.59658 3.4844-1.7891 0.75314-1.1925 1.1289-2.8563 1.1289-4.9902v-1.3164c-3.5774-1.2552-7.0291-2.1656-10.355-2.7305-3.2636-0.56486-6.3395-0.84766-9.2266-0.84766zm56.109 15.627c-3.6402 0-6.6831 0.75347-9.1308 2.2598-2.385 1.4435-4.3936 3.3262-6.0254 5.6484l-0.0937-1.7891c-0.12553-1.7573-0.56522-3.1364-1.3184-4.1406-0.75315-1.067-2.1342-1.6016-4.1426-1.6016-0.87867 0-1.6941 0.0949-2.4473 0.2832-0.69038 0.12553-1.3819 0.28242-2.0723 0.4707v62.793c0.50209 0.12556 1.2246 0.22047 2.166 0.28321 1.0042 0.12552 1.9765 0.1875 2.918 0.1875 2.0084 0 3.3584-0.40675 4.0488-1.2227 0.75315-0.8159 1.1289-1.8522 1.1289-3.1074v-19.582c1.4435 1.6946 3.3572 3.2325 5.7422 4.6133 2.385 1.318 5.2729 1.9766 8.6621 1.9766 2.385 0 4.8003-0.47067 7.248-1.4121 2.5105-0.94143 4.7399-2.3844 6.6855-4.3301 2.0084-1.9456 3.6393-4.3939 4.8945-7.3437 1.2552-2.9498 1.8828-6.4634 1.8828-10.543 0-3.7657-0.59658-7.0934-1.7891-9.9804-1.1297-2.9498-2.6347-5.3981-4.5176-7.3437-1.8829-2.0084-4.0484-3.5134-6.4961-4.5176-2.385-1.067-4.8333-1.6016-7.3437-1.6016zm48.768 0c-3.4519 0-6.6227 0.62757-9.5098 1.8828-2.8871 1.2552-5.3663 2.9501-7.4375 5.084-2.0712 2.1339-3.702 4.6442-4.8945 7.5312-1.1297 2.8243-1.6953 5.8382-1.6953 9.039-1e-5 3.3264 0.56559 6.4332 1.6953 9.3203 1.1297 2.8871 2.7296 5.3973 4.8008 7.5312 2.0712 2.0712 4.5504 3.733 7.4375 4.9883 2.887 1.1925 6.0888 1.789 9.6035 1.789 3.5147 0 6.7145-0.62756 9.6016-1.8828 2.8871-1.2552 5.3354-2.9501 7.3438-5.084 2.0711-2.1339 3.6401-4.6442 4.707-7.5312 1.1297-2.887 1.6934-5.93 1.6934-9.1308 0-3.2009-0.56364-6.2148-1.6934-9.039-1.1297-2.8871-2.7296-5.3973-4.8008-7.5312-2.0084-2.1339-4.4567-3.8287-7.3438-5.084-2.8871-1.2552-6.0559-1.8828-9.5078-1.8828zm52.154 0c-3.4519 0-6.6207 0.62757-9.5078 1.8828-2.8871 1.2552-5.3663 2.9501-7.4375 5.084-2.0712 2.1339-3.704 4.6442-4.8965 7.5312-1.1297 2.8243-1.6934 5.8382-1.6934 9.039 0 3.3264 0.56364 6.4332 1.6934 9.3203 1.1298 2.8871 2.7316 5.3973 4.8027 7.5312 2.0712 2.0712 4.5504 3.733 7.4375 4.9883 2.8871 1.1925 6.0869 1.789 9.6016 1.789 3.5147 0 6.7164-0.62756 9.6035-1.8828 2.8871-1.2552 5.3334-2.9501 7.3418-5.084 2.0712-2.1339 3.642-4.6442 4.709-7.5312 1.1297-2.887 1.6934-5.93 1.6934-9.1308 0-3.2009-0.56364-6.2148-1.6934-9.039-1.1297-2.8871-2.7316-5.3973-4.8027-7.5312-2.0084-2.1339-4.4547-3.8287-7.3418-5.084-2.8871-1.2552-6.0578-1.8828-9.5098-1.8828zm78.892 0.37696c-1.067 0-2.1032 0.1259-3.1074 0.37695s-1.8506 0.53385-2.541 0.84766l17.605 44.435-7.6269 17.416c0.62762 0.25104 1.3501 0.47186 2.166 0.66014 0.87868 0.18829 1.915 0.28126 3.1074 0.28126 2.9498 0 4.9255-1.3481 5.9297-4.0469l22.971-58.84c-0.62761-0.31382-1.4431-0.56562-2.4473-0.75391-1.0042-0.25105-1.9146-0.37695-2.7305-0.37695-1.2552 0-2.3535 0.22082-3.2949 0.66015-0.87867 0.37658-1.5372 1.161-1.9766 2.3535l-11.391 31.727-11.109-31.633c-0.31382-1.0042-0.9104-1.7577-1.7891-2.2598-0.87867-0.56486-2.1338-0.84765-3.7656-0.84765zm-131.05 8.0976c1.7573 0 3.4192 0.34477 4.9883 1.0352 1.569 0.69039 2.9191 1.6937 4.0488 3.0117 1.1925 1.2552 2.1338 2.8242 2.8242 4.707 0.69039 1.8829 1.0352 3.9864 1.0352 6.3086 0 2.5732-0.37575 4.8007-1.1289 6.6836-0.75314 1.8828-1.7584 3.4518-3.0137 4.707-1.1925 1.2552-2.5735 2.1966-4.1426 2.8242-1.5063 0.62762-3.0423 0.9414-4.6113 0.9414-1.6318 0-3.2337-0.31378-4.8027-0.9414-1.5691-0.62763-2.9811-1.569-4.2363-2.8242-1.1925-1.318-2.1648-2.9179-2.918-4.8008-0.75314-1.8829-1.1289-4.0794-1.1289-6.5898 0-2.3222 0.34477-4.4257 1.0352-6.3086 0.75315-1.8829 1.7255-3.4518 2.918-4.707 1.2552-1.318 2.6673-2.3213 4.2363-3.0117 1.5691-0.69039 3.2019-1.0352 4.8965-1.0352zm52.154 0c1.7574 0 3.4212 0.34477 4.9902 1.0352 1.569 0.69039 2.9191 1.6937 4.0488 3.0117 1.1925 1.2552 2.1338 2.8242 2.8242 4.707 0.69039 1.8829 1.0352 3.9864 1.0352 6.3086 0 2.5732-0.37771 4.8007-1.1309 6.6836-0.75315 1.8828-1.7565 3.4518-3.0117 4.707-1.1925 1.2552-2.5735 2.1966-4.1426 2.8242-1.5063 0.62762-3.0442 0.9414-4.6133 0.9414-1.6318 0-3.2317-0.31378-4.8008-0.9414-1.5691-0.62763-2.9811-1.569-4.2363-2.8242-1.1925-1.318-2.1648-2.9179-2.918-4.8008-0.75314-1.8829-1.1309-4.0794-1.1309-6.5898 0-2.3222 0.34477-4.4257 1.0352-6.3086 0.75315-1.8829 1.7274-3.4518 2.9199-4.707 1.2552-1.318 2.6673-2.3213 4.2363-3.0117 1.569-0.69039 3.1999-1.0352 4.8945-1.0352zm-104.4 0.1875c2.1967 0 4.1104 0.43969 5.7422 1.3184 1.6318 0.81591 2.9819 1.9451 4.0488 3.3887 1.1297 1.3808 1.9452 2.9807 2.4473 4.8008 0.56486 1.7573 0.84765 3.609 0.84765 5.5547 0 2.1967-0.31379 4.2053-0.9414 6.0254-0.62763 1.8201-1.507 3.389-2.6367 4.707s-2.5108 2.3543-4.1426 3.1074c-1.6318 0.69038-3.4196 1.0352-5.3652 1.0352-2.636 0-4.9584-0.59657-6.9668-1.7891-2.0084-1.2552-3.5153-2.7932-4.5195-4.6133v-16.945c1.1925-2.1967 2.8253-3.8276 4.8965-4.8945 2.1339-1.1297 4.3304-1.6953 6.5898-1.6953z" fill="#fff"/>
		<path d="m72.615 97.473c0 13.989-9.11 24.14-27.719 26.157-13.404 1.431-32.859-0.26-42.098-1.301-0.325-1.497-0.586-3.384-0.586-4.88 0-12.168 6.572-14.965 12.753-14.965 6.442 0 16.592 1.106 24.075 1.106 8.329 0 10.801-2.798 10.801-5.466 0-3.513-3.318-4.945-9.76-6.181l-17.633-3.384c-14.64-2.797-22.448-12.883-22.448-23.619 0-13.013 9.24-23.945 27.458-25.962 13.73-1.496 30.516 0.196 39.691 1.302 0.326 1.561 0.52 3.058 0.52 4.684 0 12.168-6.44 14.77-12.622 14.77-4.75 0-12.102-0.845-20.561-0.845-8.59 0-12.102 2.342-12.102 5.205 0 3.058 3.383 4.294 8.719 5.27l16.787 3.124c17.308 3.188 24.725 12.948 24.725 24.986m30.126 14.965c0 7.482-2.928 11.777-17.568 11.777-1.952 0-3.644-0.13-5.27-0.38999v-99.099c0-7.548 2.537-15.42 17.307-15.42 1.887 0 3.774 0.194 5.531 0.585zm59.797 38.39c1.952 0.976 5.856 2.212 10.8 2.277 8.525 0.195 13.145-3.058 16.593-10.671l45.547-101.31c-1.887-0.976-6.051-2.147-9.435-2.212-5.856-0.13-13.729 1.04-18.739 13.013l-14.835 34.68-28.955-47.043c-1.887-0.586-6.441-1.367-9.76-1.367-10.281 0-15.941 3.774-21.863 10.15l-28.109 30.712 22.643 35.592c4.164 6.507 9.695 9.825 18.609 9.825 5.856 0 10.736-1.366 13.013-2.407l-27.263-40.992 19.325-20.496 31.688 49.646z" fill="#ff0031"/>
		<path d="m270.55 0.002501c-5.986 0-10.866 4.88-10.866 10.866v140.87c0 5.986 4.88 10.866 10.866 10.866h518.58c5.986 0 10.866-4.88 10.866-10.866v-140.94c-0.065-5.986-4.815-10.801-10.798-10.798z" fill="url(#a)"/>
		<path d="m79.967 24.727v67.995c0-2.733 2.082-5.596 5.596-5.726l11.452-0.39c2.277-0.065 5.726-1.627 5.79-5.791v-70.923a25.724 25.724 0 0 0-5.53-0.586c-14.77 0.065-17.308 7.873-17.308 15.421m52.054 23.684-28.109 30.712 2.277 3.514c0.976 1.301 2.863 3.513 6.637 3.383l16.007-0.585c3.514-0.13 5.726 1.366 7.093 3.188l-5.01-7.548 19.324-20.496 12.948 20.366c2.343 3.058 5.856 3.123 6.637 3.123 0.65 0 17.698-0.585 18.414-0.65 1.171-0.065 2.538 0.585 3.579 2.082l-28.174-45.808c-1.887-0.586-6.442-1.367-9.76-1.367-10.281-0.065-15.941 3.644-21.863 10.085m-104.56-9.433c-18.22 2.017-27.457 12.883-27.457 25.962 0 6.702 3.058 13.144 8.914 17.763 4.425 2.928 8.98 4.034 13.469 4.815 3.709 0.65 12.363 1.236 18.804 0.976l20.041-0.716c7.548-0.26 11.582 6.181 11.192 12.623v-0.325c0.065-0.84599 0.13-1.692 0.13-2.538 0-12.037-7.417-21.863-24.66-25.051l-16.787-3.123c-5.4-0.911-8.719-2.213-8.719-5.27 0-2.864 3.579-5.271 12.102-5.271 8.459 0 15.811 0.846 20.561 0.846 6.182 0 12.623-2.603 12.623-14.77 0-1.627-0.195-3.123-0.52-4.685-6.572-0.78-17.113-1.887-27.588-1.887-4.1 0.065-8.199 0.26-12.102 0.65m179.72 12.949-14.38 33.9c0-0.065 0.91-2.668 3.708-2.798l15.226-0.52c4.62-0.196 6.442-3.319 6.963-4.36l16.657-37.153c-1.887-0.976-6.052-2.147-9.435-2.212h-0.716c-5.79 0.065-13.209 1.626-18.024 13.144" fill="url(#b)" opacity=".3"/>
		<path d="m270.55 0.002501c-5.986 0-10.866 4.88-10.866 10.866v78.211c0-1.171 0.45498-7.613 7.808-8.329 0 0 0.39-0.065 1.041-0.065l523.4-18.349c4.1-0.13 8.068-3.188 8.068-8.263v-43.141c0-5.985-4.88-10.865-10.866-10.865z" fill="url(#c)" opacity=".3"/>
		<path d="m377.19 18.416c-4.36 0-8.068 3.384-8.068 8.068 0 4.1 3.643 7.938 8.068 7.938 4.425 0 7.94-3.773 7.94-7.938 0-4.554-3.45-8.068-7.94-8.068zm148.22 24.141c-20.952 0-37.934 16.591-37.934 39.43 0 23.684 16.331 39.82 40.016 39.82 10.931 0 21.212-3.253 27.914-6.246 0.77998-6.897-1.562-9.889-4.75-9.889-1.366 0-3.058 0.65-6.246 1.82-4.88 1.497-9.89 2.995-16.461 2.995-15.291 0-25.703-8.525-27.59-23.295h59.277c0.455-2.863 0.65-5.4 0.715-7.807 0-18.154-11.582-36.828-34.941-36.828zm-196.24 0.064c-21.993 0-38.779 16.853-38.779 39.496 0 22.643 16.787 39.69 38.779 40.016 10.411 0 19.847-2.862 26.549-6.05 0.64998-6.897-1.888-9.76-5.076-9.76-4.425 0-9.434 4.879-21.016 4.879-14.64 0-26.55-11.255-26.55-28.89s11.91-28.563 26.55-28.563c11.582 0 16.526 4.879 21.016 4.879 3.188 0 5.727-2.863 5.076-9.76-6.572-3.384-16.008-6.246-26.549-6.246zm113.22 0c-11.517 0-19.975 5.595-25.506 12.297v-6.57c0-2.863-1.692-4.75-6.572-4.75-2.213 0-4.554 0.52-5.725 0.846v75.934c1.171 0.325 3.512 0.65 5.725 0.65 4.945 0 6.572-1.757 6.572-4.75v-48.736c4.034-7.352 13.794-13.729 22.838-13.729 11.387 0 19.131 7.417 19.131 23.033v43.4c1.236 0.326 3.708 0.65 5.725 0.65 5.01 0 6.572-1.756 6.572-4.75v-40.99c0-22.513-13.08-32.468-28.76-32.533zm168.79 0c-9.37 0-17.114 4.88-21.994 11.451v-5.4c0-3.188-1.625-5.074-6.375-5.074-2.017 0-4.425 0.52-5.727 0.846v75.803c1.042 0.325 3.515 0.65 5.727 0.65 5.01 0 6.57-1.757 6.57-4.75v-50.037c2.863-6.181 10.216-12.428 18.805-12.428 10.281 0 15.486 6.702 15.486 17.959v48.605c1.302 0.325 3.643 0.65 5.856 0.65 5.01 0 6.572-1.757 6.572-4.75v-50.037c2.863-6.181 10.216-12.428 18.805-12.428 10.085 0 15.486 6.703 15.486 17.96v48.604c1.236 0.326 3.708 0.65 5.725 0.65 5.01 0 6.703-1.756 6.703-4.75v-45.87c0-15.161-8.719-27.59-25.115-27.654-11.257 0-19.326 6.182-24.531 13.795-4.034-8.59-11.907-13.795-21.992-13.795zm122.78 0c-10.671 0-22.057 2.538-29.67 5.4-0.78 6.703 1.236 9.891 4.75 9.891 1.236 0 3.058-0.585 5.4-1.236 4.555-1.496 11.255-3.19 18.998-3.19 14.965 0 18.805 7.028 18.805 18.806v2.082c-33.77-2.213-53.744 5.857-53.744 24.336 0 12.233 9.435 23.164 26.547 23.164 11.387 0 19.975-4.491 27.197-12.104v6.377c0 3.188 2.018 4.814 6.573 4.814 2.212 0 4.425-0.325 5.726-0.65v-48.475c0-18.024-8.264-29.15-30.582-29.215zm-356.37 1.041c-5.14 0-6.701 1.887-6.701 4.75v71.834c1.236 0.326 3.642 0.65 5.724 0.715 5.01 0 6.703-1.757 6.703-4.75v-71.703c-1.236-0.325-3.709-0.845-5.726-0.845zm147.9 9.956c13.729 0 22.122 10.28 22.643 23.359h-47.693c2.017-15.291 12.818-23.49 25.051-23.36zm218.55 29.922c2.624 8e-3 5.327 0.083 8.076 0.205v14.639c-5.856 7.808-14.64 13.078-25.05 13.078-10.217 0-15.942-6.246-15.942-12.947 0-11.9 14.546-15.032 32.916-14.975z" fill="#fff"/>
	</g>
	<defs>
		<linearGradient id="a" x1="414.37" x2="1244.6" y1="289.84" y2="289.84" gradientTransform="matrix(.65067 0 0 .65067 -9.825 -107.29)" gradientUnits="userSpaceOnUse">
			<stop stop-color="#ff0031" offset="0"/>
			<stop stop-color="#9b001f" offset="1"/>
		</linearGradient>
		<linearGradient id="b" x1="197.48" x2="194.59" y1="295.14" y2="212.24" gradientTransform="matrix(.65067 0 0 .65067 -9.825 -107.29)" gradientUnits="userSpaceOnUse">
			<stop stop-color="#fff" offset="0"/>
			<stop stop-color="#fff" stop-opacity=".25" offset=".515"/>
		</linearGradient>
		<linearGradient id="c" x1="830.55" x2="826.25" y1="276.73" y2="153.47" gradientTransform="matrix(.65067 0 0 .65067 -9.825 -107.29)" gradientUnits="userSpaceOnUse">
			<stop stop-color="#fff" offset="0"/>
			<stop stop-color="#fff" stop-opacity=".25" offset=".515"/>
		</linearGradient>
	</defs>
</svg>
