<?xml version="1.0" encoding="UTF-8"?>
<svg width="800" height="157.38" version="1.1" xmlns="http://www.w3.org/2000/svg">
	<path d="m789.52 0h-346.9c-5.7602 0-10.45 4.69-10.45 10.482v136.42c0 5.7917 4.69 10.482 10.45 10.482h346.9c5.7917 0 10.482-4.69 10.482-10.482v-136.42c0.03148-5.7917-4.6585-10.482-10.482-10.482m0 3.1477c4.0605 0 7.334 3.305 7.334 7.334v136.42a7.3214 7.3214 0 0 1-7.334 7.334h-346.9c-4.029 0-7.334-3.2736-7.334-7.334v-136.42c0-4.029 3.305-7.334 7.334-7.334h346.9" fill="#cbcbcb"/>
	<path d="m789.52 3.1477c4.0605 0 7.334 3.305 7.334 7.334v136.42a7.3214 7.3214 0 0 1-7.334 7.334h-346.9c-4.029 0-7.334-3.2736-7.334-7.334v-136.42c0-4.029 3.305-7.334 7.334-7.334h346.9" fill="#fff"/>
	<linearGradient id="A" x1="1456.7" x2="1456.7" y2="500" gradientTransform="scale(.31477)" gradientUnits="userSpaceOnUse">
		<stop stop-color="red" offset=".4"/>
		<stop stop-color="#d42321" offset="1"/>
	</linearGradient>
	<path d="m261.92 0h393.2c5.7917 0 10.482 4.69 10.482 10.482v136.42c0 5.7917-4.69 10.482-10.482 10.482h-393.2c-5.7917 0-10.482-4.69-10.482-10.482v-136.42c0-5.7917 4.69-10.482 10.482-10.482z" fill="url(#A)"/>
	<linearGradient id="B" x1="1459.5" x2="1450.8" y1="233.73" y2="-15.325" gradientTransform="scale(.31477)" gradientUnits="userSpaceOnUse">
		<stop stop-color="#fff" offset="0"/>
		<stop stop-color="#fff" stop-opacity=".835" offset=".12"/>
		<stop stop-color="#fff" stop-opacity=".658" offset=".269"/>
		<stop stop-color="#fff" stop-opacity=".511" offset=".42"/>
		<stop stop-color="#fff" stop-opacity=".397" offset=".568"/>
		<stop stop-color="#fff" stop-opacity=".315" offset=".716"/>
		<stop stop-color="#fff" stop-opacity=".266" offset=".86"/>
		<stop stop-color="#fff" stop-opacity=".25" offset="1"/>
	</linearGradient>
	<path d="m258.99 78.062 1.0072-0.06295 397.77-13.881c4.3752-0.03148 7.8691-3.6198 7.8376-7.9636v-45.672c0-5.7917-4.69-10.482-10.482-10.482h-393.2c-5.7917 0-10.482 4.69-10.482 10.482v75.764c-0.12591-4.3123 3.2421-7.9636 7.5544-8.1839z" fill="url(#B)" opacity=".4"/>
	<linearGradient id="C" x1="361.92" x2="361.92" y1="28.806" y2="471.22" gradientTransform="scale(.31477)" gradientUnits="userSpaceOnUse">
		<stop stop-color="#cbcbcb" offset="0"/>
		<stop stop-color="#d4d4d4" offset=".8"/>
	</linearGradient>
	<path d="m157.26 146.08c3.305 1.4479 6.8619 2.2348 10.45 2.2348 8.2154 0.18886 12.717-2.9588 16.022-10.324l44.099-98.175c-2.8644-1.2905-5.9805-2.0145-9.1282-2.1089-5.6972-0.12591-13.315 1.0387-18.13 12.622l-14.259 33.617-28.014-45.515c-3.0847-0.81839-6.2638-1.2591-9.443-1.322-9.9151 0-15.423 3.6198-21.152 9.8521l-27.227 29.714 21.876 34.435c4.0605 6.2638 9.38 9.4744 18.036 9.4744 4.3123 0.063 8.5931-0.72396 12.591-2.3607l-26.377-39.66 18.697-19.799 30.658 48.065zm-57.822-37.111c0 7.2396-2.8329 11.394-16.997 11.394-1.6997 0-3.3995-0.1259-5.0677-0.34624v-96.035c0-7.3025 2.4866-14.92 16.745-14.92 1.7942 0 3.5883 0.18886 5.3195 0.5351zm-29.21-14.511c0 13.535-8.8449 23.356-26.787 25.307-13 1.385-31.823-0.25181-40.762-1.2591-0.31476-1.5424-0.50362-3.1162-0.5351-4.7215 0-11.772 6.3583-14.479 12.339-14.479 6.2323 0 16.022 1.1017 23.293 1.1017 8.0265 0 10.45-2.707 10.45-5.3195 0-3.368-3.2106-4.7844-9.443-5.9805l-17.06-3.2736c-14.164-2.707-21.719-12.496-21.719-22.883 0-12.622 8.9393-23.167 26.535-25.118 13.315-1.4479 29.525 0.18886 38.401 1.2591 0.31476 1.4794 0.47215 2.9903 0.47215 4.5326 0 11.772-6.2323 14.322-12.213 14.322-4.5956 0-11.741-0.84987-19.893-0.84987-8.2783 0-11.741 2.2978-11.741 5.0677 0 2.9588 3.2736 4.1549 8.4672 5.0677l16.273 3.0217c16.714 3.0532 23.922 12.559 23.922 24.205z" fill="url(#C)"/>
	<linearGradient id="D" x1="365.45" x2="359.6" y1="263.25" y2="95.751" gradientTransform="scale(.31477)" gradientUnits="userSpaceOnUse">
		<stop stop-color="#fff" offset="0"/>
		<stop stop-color="#fff" stop-opacity=".835" offset=".12"/>
		<stop stop-color="#fff" stop-opacity=".658" offset=".269"/>
		<stop stop-color="#fff" stop-opacity=".511" offset=".42"/>
		<stop stop-color="#fff" stop-opacity=".397" offset=".568"/>
		<stop stop-color="#fff" stop-opacity=".315" offset=".716"/>
		<stop stop-color="#fff" stop-opacity=".266" offset=".86"/>
		<stop stop-color="#fff" stop-opacity=".25" offset="1"/>
	</linearGradient>
	<g>
		<path d="m227.86 39.818-16.147 35.946c-1.2591 2.5811-3.8716 4.2179-6.736 4.2179l-14.731 0.50362c-1.6053 0.09443-3.0218 1.1646-3.5883 2.6755v-0.03148l13.913-32.799c4.8474-11.583 12.465-12.748 18.13-12.622 3.1791 0.09443 6.2638 0.81839 9.1597 2.1089zm-42.304 42.965-27.259-44.319c-3.0847-0.81839-6.2638-1.2591-9.443-1.322-9.9151 0-15.423 3.6198-21.152 9.8521l-27.227 29.714 2.1719 3.4309c1.4164 2.1404 3.8716 3.368 6.4527 3.2421l15.518-0.5351a7.7653 7.7653 0 0 1 6.8619 3.0847l-4.8789-7.334 18.697-19.799 12.559 19.673c1.5423 1.9515 3.9346 3.0532 6.4212 2.9903l17.847-0.62953c1.385 0 2.707 0.75544 3.4309 1.9515zm-91.439-73.686c-14.259 0-16.745 7.6173-16.745 14.92v65.786c0-3.0217 2.4237-5.4769 5.4454-5.5713l11.048-0.37772c3.0847 0 5.6028-2.5181 5.6028-5.6028v-68.619c-1.7942-0.37772-3.5568-0.56658-5.351-0.5351zm-47.781 61.127-16.273-3.0217c-5.1936-0.91282-8.4672-2.1089-8.4672-5.0677 0-2.7699 3.4624-5.0677 11.741-5.0677 8.1524 0 15.298 0.84986 19.893 0.84986 5.9805 0 12.213-2.5496 12.213-14.322 0-1.5109-0.15738-3.0532-0.47215-4.5326-8.8764-1.1017-25.087-2.707-38.401-1.2591-17.627 1.9515-26.566 12.528-26.566 25.118 0.031476 6.736 3.2106 13.094 8.5931 17.155 3.966 2.4552 8.4357 4.0605 13.063 4.6585 6.0435 0.81839 12.118 1.1332 18.193 0.9443l19.421-0.69248c7.2711-0.25181 11.237 5.9491 10.828 12.181 0-0.09443 0-0.15738 0.03148-0.25181v-0.06295c0.06295-0.81839 0.09443-1.6368 0.09443-2.4552 0-11.583-7.2081-21.089-23.891-24.174z" fill="url(#D)" opacity=".25"/>
		<path d="m281.53 113.1c-0.94429-6.4842 1.0702-9.8836 4.7844-9.8836 3.5254 0 12.181 3.8716 24.237 3.8716 12.685 0 17.469-4.5011 17.469-10.356 0-4.1549-1.8571-7.8691-13.283-10.985l-13.126-3.5254c-14.511-3.8716-20.239-11.143-20.239-20.113 0-11.111 8.8134-21.026 28.738-21.026 8.9708 0 20.113 2.0145 26.881 4.6585 1.2276 6.3268-0.78692 9.7262-4.627 9.7262-3.3995 0-11.111-3.2421-22.096-3.2421-11.741 0-16.084 3.9975-16.084 9.2541 0 3.6828 1.6997 7.1137 12.213 10.041l13.44 3.7142c15.014 4.1549 21.026 11.111 21.026 20.995 0 11.615-8.9708 21.939-30.595 21.939-9.5689 0.0315-21.498-2.2978-28.738-5.0677m148.32-33.522c0 24.237-16.997 38.622-35.694 38.622-11.111 0-20.239-5.2566-25.653-12.654v31.225c0 2.9273-1.6997 4.7844-6.6416 4.7844-2.4866 0-4.7844-0.31477-6.012-0.59806v-98.458c1.2276-0.31476 3.5254-0.62953 6.012-0.62953 4.9418 0 6.6416 1.8571 6.6416 4.7844v7.0822c5.414-7.397 14.542-12.654 25.653-12.654 18.697 0 35.694 14.385 35.694 38.496m-12.811 0c0-16.21-10.796-27.353-25.339-27.353-9.8836 0-19.012 5.7287-23.167 14.07v26.724c4.1549 8.3413 13.283 14.07 23.167 14.07 14.511-0.0315 25.339-11.143 25.339-27.51m24.678 0c0-22.097 16.21-38.464 37.992-38.464 21.939 0 38.15 16.368 38.15 38.464 0 21.939-16.21 38.622-38.15 38.622-21.782-0.0315-37.992-16.714-37.992-38.622m63.331 0c0-16.997-11.457-27.353-25.339-27.353-13.724 0-25.181 10.356-25.181 27.353 0 16.84 11.457 27.479 25.181 27.479 13.881 0 25.339-10.639 25.339-27.479m74.064-31.539c0 5.0992-2.1404 6.1694-7.4285 6.1694-10.639 0-19.61 4.9418-25.181 16.525v41.895c0 3.0847-1.6997 4.7844-6.7989 4.7844-2.1719 0-4.6585-0.31476-5.8861-0.59805v-74.347c1.2276-0.31476 3.6828-0.59805 5.8861-0.59805 5.0677 0 6.7989 1.8571 6.7989 4.7844v10.356c7.2396-10.985 18.225-16.525 31.98-14.668 0.15738 1.0702 0.62953 3.3995 0.62953 5.6972m55.556 65.062c-6.4842 3.0847-13.913 5.0992-21.31 5.0992-14.668 0-23.481-8.656-23.481-23.009v-63.803c0-3.2421 1.8571-5.414 6.7989-5.414 2.1404 0 4.627 0.44067 5.8861 0.78691v16.053h28.864c0.15739 1.0702 0.47215 3.2421 0.47215 5.0992 0 4.4697-1.8571 6.012-4.627 6.012h-24.709v40.353c0 8.6246 3.9975 12.811 12.181 12.811 7.4284 0 11.583-3.2421 15.14-3.2421 3.7142-0.0315 5.5713 3.0532 4.7844 9.2541" fill="#fff"/>
		<path d="m710.98 113.86q-1.6786 0-3.3576-0.20995-1.6786-0.10482-2.5181-0.31476v-55.189l-12.905 6.0854q-1.469-1.1542-2.3082-2.8329-0.83947-1.6786-0.83947-3.2525 0-3.6724 3.6724-5.7706l15.109-7.3444h9.1282v63.897q0 2.0985-1.3639 3.5672-1.2591 1.3639-4.6167 1.3639zm44.277 0.5244q-7.6592 0-13.22-1.7838-5.4558-1.7838-9.9677-4.5115 0.10482-3.9871 1.5738-6.0854 1.469-2.0985 3.7772-2.0985 1.5738 0 3.1476 0.62953 1.5738 0.62953 3.5672 1.3639 1.9934 0.62953 4.6167 1.2591 2.6229 0.62953 6.2953 0.62953 6.6101 0 9.8625-2.9377t3.2525-7.6592q0-4.0919-3.0428-7.0296-3.0428-2.9377-10.597-2.9377h-8.3938q-1.6786 0-2.8329-1.1542-1.1542-1.1542-1.1542-3.882 0-2.6229 0.52472-4.5115h10.912q6.9248 0 9.9677-2.4133 3.0428-2.4133 3.0428-7.1348 0-1.7838-0.62953-3.4624-0.52471-1.6786-1.8886-2.9377-1.3639-1.2591-3.5672-1.9934-2.0985-0.83948-5.351-0.83948-3.3576 0-5.7706 0.52471-2.3082 0.52471-4.1968 1.1542t-3.3576 1.1542q-1.469 0.52471-2.9377 0.52471-2.4133 0-3.882-2.2034-1.469-2.2034-1.5738-6.0854 4.092-2.3082 9.6529-3.9871 5.561-1.6786 12.905-1.6786 5.7706 0 9.9677 1.469 4.1968 1.3639 6.82 3.7772 2.7281 2.4133 3.9871 5.7706 1.2591 3.2525 1.2591 7.0296 0 5.6658-3.1476 9.6529-3.1476 3.882-8.4986 5.561 5.9805 1.0491 9.9677 5.351 3.9871 4.3019 3.9871 11.017 0 4.7215-1.7838 8.6035-1.7838 3.7772-5.0362 6.4001-3.2525 2.6229-7.9739 4.092-4.6167 1.3639-10.282 1.3639z" fill="#002a91"/>
	</g>
</svg>
