<?xml version="1.0" encoding="UTF-8"?>
<svg width="800" height="193.51" version="1.1" xmlns="http://www.w3.org/2000/svg">
	<defs>
		<linearGradient id="linearGradient7090" x1="414.37" x2="1244.6" y1="289.84" y2="289.84" gradientTransform="matrix(.51516 0 0 .51516 -7.7772 -84.949)" gradientUnits="userSpaceOnUse">
			<stop stop-color="#ff0031" offset="0"/>
			<stop stop-color="#9b001f" offset="1"/>
		</linearGradient>
		<linearGradient id="linearGradient7092" x1="197.48" x2="194.59" y1="295.14" y2="212.24" gradientTransform="matrix(.51516 0 0 .51516 -7.7772 -84.949)" gradientUnits="userSpaceOnUse">
			<stop stop-color="#fff" offset="0"/>
			<stop stop-color="#fff" stop-opacity=".25" offset=".515"/>
		</linearGradient>
		<linearGradient id="linearGradient7094" x1="830.55" x2="826.25" y1="276.73" y2="153.47" gradientTransform="matrix(.51516 0 0 .51516 -7.7772 -84.949)" gradientUnits="userSpaceOnUse">
			<stop stop-color="#fff" offset="0"/>
			<stop stop-color="#fff" stop-opacity=".25" offset=".515"/>
		</linearGradient>
	</defs>
	<g>
		<path d="m624.79 0.0154h168.98c3.4541 0 6.2348 2.7807 6.2348 6.2348v116.26c0 3.4541-2.7807 6.2348-6.2348 6.2348h-168.98z" fill="#fff"/>
		<path d="m714.58 38.576v49.548c0 2.1728-1.0998 3.3801-4.4799 3.3801-1.5292 0-2.9508-0.21427-4.0506-0.42933v-22.802h-28.274v19.878c0 2.1728-1.0998 3.3801-4.4799 3.3801-1.6367 0-3.2726-0.21427-4.0506-0.42933v-49.575c0-2.0921 1.0998-3.3801 4.5874-3.3801 1.5292 0 3.0314 0.21427 3.9162 0.42933v22.051h28.141v-19.1c0-2.0921 1.2074-3.3801 4.695-3.3801 1.6098 0 3.1121 0.21427 3.9968 0.42933m58.003 26.182c0 14.861-10.381 26.101-26.638 26.101h-15.157c-3.2726 0-4.4799-1.3141-4.4799-3.3801v-45.309c0-2.0652 1.2074-3.3801 4.4799-3.3801h15.157c16.257 0 26.638 11.133 26.638 25.968m-8.6379 0c0-11.133-6.9745-18.349-18-18.349h-11.133v36.779h11.133c11.026 0.02688 18-7.1895 18-18.43" fill="#9c001f"/>
		<path d="m57.492 77.17c0 11.076-7.2122 19.112-21.946 20.709-10.612 1.1333-26.016-0.20606-33.331-1.0303-0.25758-1.1849-0.46364-2.6788-0.46364-3.8637 0-9.6334 5.2031-11.849 10.097-11.849 5.1001 0 13.137 0.87576 19.061 0.87576 6.594 0 8.5515-2.2152 8.5515-4.3273 0-2.7819-2.6273-3.9152-7.7274-4.894l-13.961-2.6788c-11.591-2.2152-17.773-10.2-17.773-18.7 0-10.303 7.3153-18.958 21.74-20.555 10.87-1.1849 24.161 0.15455 31.425 1.0303 0.25758 1.2364 0.41213 2.4212 0.41213 3.7091 0 9.6334-5.1001 11.694-9.994 11.694-3.7607 0-9.5819-0.6697-16.279-0.6697-6.8001 0-9.5819 1.8546-9.5819 4.1213 0 2.4212 2.6788 3.4 6.9031 4.1728l13.291 2.4728c13.703 2.5243 19.576 10.252 19.576 19.782m23.852 11.849c0 5.9243-2.3182 9.3243-13.909 9.3243-1.5455 0-2.8849-0.10303-4.1728-0.3091v-78.458c0-5.9758 2.0091-12.209 13.703-12.209 1.494 0 2.9879 0.15455 4.3789 0.46364zm47.343 30.394c1.5455 0.77273 4.6364 1.7515 8.5515 1.8031 6.7486 0.15454 10.406-2.4212 13.137-8.4486l36.061-80.209c-1.494-0.77274-4.791-1.7-7.4698-1.7515-4.6364-0.10303-10.87 0.82424-14.837 10.303l-11.746 27.458-22.925-37.246c-1.494-0.46364-5.1001-1.0818-7.7274-1.0818-8.1394 0-12.621 2.9879-17.309 8.0364l-22.255 24.315 17.928 28.179c3.297 5.1516 7.6758 7.7788 14.734 7.7788 4.6364 0 8.5-1.0818 10.303-1.9061l-21.585-32.455 15.3-16.228 25.088 39.307z" fill="#ff0031"/>
		<path d="m214.21 0c-4.7395 0-8.6032 3.8637-8.6032 8.6031v111.53c0 4.7395 3.8637 8.6032 8.6032 8.6032h410.58c4.7395 0 8.6031-3.8637 8.6031-8.6032v-111.58c-0.0515-4.7395-3.8122-8.5515-8.5523-8.5523z" fill="url(#linearGradient7090)"/>
		<path d="m63.313 19.576v53.834c0-2.1637 1.6485-4.4304 4.4304-4.5334l9.0667-0.3091c1.8031-0.05152 4.5334-1.2879 4.5849-4.5849v-56.152c-1.3909-0.3091-2.8849-0.46364-4.3788-0.46364-11.694 0.051516-13.703 6.2334-13.703 12.209m41.213 18.752-22.255 24.315 1.8031 2.7819c0.77274 1.0303 2.2667 2.7819 5.2546 2.6788l12.673-0.46364c2.7819-0.10303 4.5334 1.0818 5.6152 2.5243l-3.9667-5.9758 15.3-16.228 10.252 16.124c1.8546 2.4212 4.6364 2.4728 5.2546 2.4728 0.51516 0 14.012-0.46364 14.579-0.51516 0.92728-0.05152 2.0091 0.46364 2.8334 1.6485l-22.306-36.267c-1.494-0.46364-5.1001-1.0818-7.7274-1.0818-8.1394-0.05152-12.621 2.8849-17.309 7.9849m-82.785-7.4698c-14.424 1.597-21.74 10.2-21.74 20.555 0 5.3061 2.4212 10.406 7.0577 14.064 3.5031 2.3182 7.1092 3.194 10.664 3.8122 2.9364 0.51516 9.7879 0.97879 14.888 0.77274l15.867-0.56668c5.9758-0.20606 9.1697 4.894 8.8606 9.994v-0.25758c0.05151-0.6697 0.10303-1.3394 0.10303-2.0091 0-9.5303-5.8728-17.309-19.525-19.834l-13.291-2.4728c-4.2758-0.72122-6.9031-1.7515-6.9031-4.1728 0-2.2667 2.8334-4.1728 9.5819-4.1728 6.6971 0 12.518 0.66971 16.279 0.66971 4.894 0 9.994-2.0606 9.994-11.694 0-1.2879-0.15455-2.4728-0.41213-3.7091-5.2031-0.61818-13.549-1.494-21.843-1.494-3.2455 0.05151-6.491 0.20606-9.5819 0.51516m142.29 10.252-11.385 26.84c0-0.05151 0.72122-2.1122 2.9364-2.2152l12.055-0.41213c3.6576-0.15455 5.1001-2.6273 5.5122-3.4516l13.188-29.416c-1.494-0.77274-4.791-1.7-7.4698-1.7515h-0.56668c-4.5849 0.05151-10.458 1.2879-14.27 10.406" fill="url(#linearGradient7092)" opacity=".3"/>
		<path d="m214.2 0c-4.7395 0-8.6032 3.8637-8.6032 8.6031v61.922c0-0.92727 0.36061-6.0274 6.1819-6.594 0 0 0.3091-0.05152 0.82426-0.05152l414.39-14.527c3.2455-0.10303 6.388-2.5243 6.388-6.5425v-34.155c0-4.7395-3.8637-8.6031-8.6031-8.6031z" fill="url(#linearGradient7094)" opacity=".3"/>
		<path d="m298.64 14.579c-3.4516 0-6.387 2.678-6.387 6.3871 0 3.2455 2.884 6.2852 6.387 6.2852 3.5031 0 6.2852-2.9882 6.2852-6.2852 0-3.6061-2.7306-6.3871-6.2852-6.3871zm117.35 19.112c-16.588 0-30.033 13.137-30.033 31.219 0 18.752 12.93 31.528 31.682 31.528 8.6546 0 16.794-2.5766 22.1-4.9463 0.61819-5.4607-1.2376-7.8293-3.7618-7.8293-1.0818 0-2.4205 0.51506-4.9448 1.4423-3.8637 1.1849-7.8304 2.3689-13.034 2.3689-12.106 0-20.348-6.7476-21.842-18.442h46.93c0.36062-2.2667 0.51518-4.2772 0.56673-6.1833 0-14.373-9.1697-29.157-27.664-29.157zm-155.37 0.05096c-17.412 0-30.703 13.344-30.703 31.271s13.291 31.425 30.703 31.682c8.2424-8e-6 15.713-2.2676 21.019-4.7919 0.51516-5.4607-1.4939-7.7274-4.0182-7.7274-3.5031 0-7.4696 3.8638-16.64 3.8638-11.591 0-21.019-8.9113-21.019-22.872 0-13.961 9.4279-22.616 21.019-22.616 9.1697 0 13.085 3.8638 16.64 3.8638 2.5243 0 4.5334-2.2668 4.0182-7.7274-5.2031-2.6788-12.673-4.9463-21.019-4.9463zm89.638 0c-9.1182 0-15.816 4.4305-20.194 9.7365v-5.2026c0-2.2667-1.3405-3.7603-5.2042-3.7603-1.7515 0-3.6052 0.41109-4.5324 0.66867v60.12c0.92728 0.25758 2.7809 0.51424 4.5324 0.51424 3.9152 0 5.2042-1.3906 5.2042-3.7603v-38.585c3.194-5.8213 10.921-10.87 18.082-10.87 9.0152 0 15.145 5.8725 15.145 18.236v34.362c0.97879 0.25758 2.937 0.51578 4.534 0.51578 3.9667 0 5.2026-1.3921 5.2026-3.7618v-32.454c0-17.824-10.353-25.707-22.769-25.758zm133.63 0c-7.4182 0-13.55 3.8649-17.413 9.0679v-4.2761c0-2.5243-1.2876-4.0182-5.0482-4.0182-1.597 0-3.5037 0.41109-4.534 0.66867v60.017c0.82425 0.25758 2.7824 0.51578 4.534 0.51578 3.9667 0 5.2026-1.3921 5.2026-3.7618v-39.615c2.2667-4.894 8.0882-9.84 14.888-9.84 8.1394 0 12.262 5.3074 12.262 14.22v38.482c1.0303 0.25758 2.8844 0.51578 4.6359 0.51578 3.9667 0 5.2026-1.3921 5.2026-3.7618v-39.615c2.2667-4.894 8.0882-9.84 14.888-9.84 7.985 0 12.262 5.3074 12.262 14.22v38.482c0.97878 0.25758 2.9354 0.51578 4.5324 0.51578 3.9667 0 5.3061-1.3921 5.3061-3.7618v-36.318c0-12.003-6.902-21.843-19.884-21.895-8.9121 0-15.301 4.8953-19.422 10.923-3.194-6.8001-9.4266-10.923-17.412-10.923zm97.209 0c-8.4485 0-17.464 2.0094-23.491 4.2761-0.61819 5.3061 0.97843 7.8309 3.7603 7.8309 0.97881 0 2.4215-0.46391 4.2761-0.97906 3.6061-1.1849 8.9123-2.5249 15.043-2.5249 11.849 0 14.888 5.5639 14.888 14.888v1.6493c-26.737-1.7515-42.552 4.6358-42.552 19.266 0 9.6849 7.4704 18.34 21.019 18.34 9.0152 0 15.815-3.5548 21.533-9.5821v5.0482c0 2.5243 1.5965 3.8128 5.2026 3.8128 1.7515 0 3.5037-0.25821 4.534-0.51579v-38.378c0-14.27-6.5427-23.08-24.213-23.132zm-282.15 0.82464c-4.0698 0-5.3061 1.4936-5.3061 3.7603v56.874c0.97876 0.25758 2.8839 0.5152 4.5324 0.56675 3.9667 0 5.3061-1.3906 5.3061-3.7603v-56.77c-0.97878-0.25758-2.9354-0.6702-4.5324-0.67022zm117.09 7.8819c10.87 0 17.515 8.1394 17.927 18.494h-37.76c1.597-12.106 10.148-18.597 19.833-18.494zm173.04 23.691c2.0777 0.0064 4.2167 0.06401 6.3933 0.1606v11.591c-4.6364 6.1819-11.591 10.356-19.833 10.356-8.088 0-12.621-4.9463-12.621-10.252 0-9.4209 11.517-11.9 26.061-11.855z" fill="#fff"/>
		<path d="m300.02 142c-1.2886 0-2.5668 0.51745-3.8336 1.5514-1.208 0.97955-2.0562 2.1764-2.5455 3.5913l-10.198 28.815c-0.27874 0.76188-0.21932 1.143 0.17716 1.143 0.19824 0 0.4852-0.0816 0.85999-0.24484l14.049-6.5305-4.8954 13.877h-4.61l2.3179-6.6117c0.20131-0.59861 0.15341-0.89813-0.14395-0.89813-0.14868 0-0.33066 0.0548-0.54749 0.16363l-8.0757 3.7549c-0.65046 0.32652-1.0897 0.87075-1.3189 1.6326l-2.249 6.2044c-0.48934 1.4149-0.47002 2.6117 0.0566 3.5913 0.57618 0.97954 1.5079 1.469 2.7965 1.469h12.341c1.2886 0 2.5358-0.48944 3.7438-1.469 1.2575-0.97955 2.1312-2.1764 2.6205-3.5913l11.048-31.182c0.30661-0.92512 0.21139-1.3878-0.2842-1.3878-0.14868 0-0.35616 0.0536-0.62254 0.1624l-14.064 6.6129 4.0465-11.511h4.6087l-1.4259 4.001c-0.2106 0.65303-0.14268 0.97932 0.20423 0.97932 0.14868 0 0.3604-0.0816 0.63607-0.24483l7.5873-3.5101c0.80843-0.38093 1.3611-1.0067 1.6584-1.8774l1.2414-3.3477c0.48934-1.4149 0.44576-2.6117-0.13041-3.5913-0.51736-1.034-1.4206-1.5514-2.7092-1.5514zm22.153 0c-0.50488 0.0544-0.85374 0.35393-1.0458 0.89812l-2.6193 7.5098c-0.19202 0.54419-0.0701 0.84371 0.36663 0.89812h5.7984l-14.573 41.386c-0.19202 0.54419-0.0404 0.81569 0.45522 0.81569h6.9131c0.4956 0 0.84021-0.2715 1.0322-0.81569l14.573-41.386h5.7984c0.604-0.0544 1.0014-0.35393 1.1934-0.89812l2.6206-7.5098c0.19202-0.54419 0.0204-0.8437-0.5155-0.89812zm52.428 0c-0.50489 0.0544-0.85374 0.35393-1.0458 0.89812l-17.57 49.794c-0.19202 0.54419-0.0404 0.81569 0.45521 0.81569h6.9881c0.4956 0 0.83897-0.2715 1.031-0.81569l5.6446-16.081 0.47981 15.918c0.0868 0.65302 0.42768 0.97932 1.0224 0.97932h8.1766c0.39648 0 0.64765-0.16314 0.75295-0.48966 0.0278-0.16326 0.0316-0.3264 0.01-0.48966l-0.7308-23.591 3.5494-1.6326c1.1244-0.48977 2.16-1.3323 3.1078-2.5295 1.0066-1.2516 1.7068-2.4497 2.1001-3.5925l5.0738-14.04c0.48934-1.4149 0.44576-2.6117-0.13042-3.5913-0.51748-1.034-1.4208-1.5514-2.7093-1.5514h-4.7576c-0.39648 0-1.0644 0.13637-2.0029 0.40846-0.93853 0.2721-1.6671 0.62641-2.1875 1.0618l0.17101-0.5721c0.19203-0.54419 0.0459-0.8437-0.44045-0.89812zm46.385 0c-0.50489 0.0544-0.85375 0.35393-1.0458 0.89812l-2.6193 7.5098c-0.19202 0.54419-0.0701 0.84371 0.36663 0.89812h5.7984l-14.573 41.386c-0.19202 0.54419-0.0404 0.81569 0.45521 0.81569h6.9131c0.49559 0 0.83897-0.2715 1.031-0.81569l14.574-41.386h5.7984c0.60401-0.0544 1.0014-0.35393 1.1934-0.89812l2.6206-7.5098c0.19202-0.54419 0.0204-0.8437-0.51549-0.89812zm25.333 0c-0.50489 0.0544-0.8525 0.35393-1.0445 0.89812l-17.57 49.794c-0.19202 0.54419-0.0404 0.81569 0.45522 0.81569h6.9881c0.4956 0 0.83898-0.2715 1.031-0.81569l5.6446-16.081 0.4786 15.918c0.0867 0.65302 0.42766 0.97932 1.0224 0.97932h8.1778c0.39648 0 0.64764-0.16314 0.75295-0.48966 0.0279-0.16326 0.0303-0.3264 9e-3 -0.48966l-0.72958-23.591 3.5494-1.6326c1.1244-0.48977 2.16-1.3323 3.1078-2.5295 1.0066-1.2516 1.7068-2.4497 2.1001-3.5925l5.0726-14.04c0.48933-1.4149 0.44698-2.6117-0.12919-3.5913-0.51769-1.034-1.421-1.5514-2.7095-1.5514h-4.7576c-0.39647 0-1.0644 0.13637-2.0029 0.40846-0.93853 0.2721-1.6684 0.62641-2.1887 1.0618l0.17225-0.5721c0.19202-0.54419 0.0446-0.8437-0.44168-0.89812zm27.524 0c-0.50489 0.0544-0.85251 0.35393-1.0445 0.89812l-17.57 49.794c-0.19202 0.54419-0.0404 0.81569 0.45521 0.81569h17.693c0.4956 0 0.83898-0.2715 1.031-0.81569l2.7227-7.6734c0.19203-0.54419 0.0404-0.81692-0.45521-0.81692h-9.9618l3.9025-11.101 12.126-5.7135c0.4832-0.21768 0.84601-0.59877 1.0876-1.143l2.9909-8.8164c0.16414-0.38093 0.14779-0.57086-0.0504-0.57086-0.0991 0-0.20286 0.0267-0.31126 0.0812l-12.127 5.7148 3.9444-11.347h9.9618c0.55446-0.0544 0.92756-0.35393 1.1196-0.89812l2.6206-7.5098c0.19201-0.54419 0.0446-0.8437-0.44168-0.89812zm24.434 0c-0.5049 0.0544-0.85252 0.35393-1.0445 0.89812l-17.57 49.794c-0.19201 0.54419-0.0404 0.81569 0.45522 0.81569h6.9869c0.4956 0 0.8402-0.2715 1.0322-0.81569l4.8819-13.795 2.5049-3.3464-0.39001 17.142c7e-3 0.54419 0.28162 0.81569 0.82677 0.81569h7.5836c0.4956 0 0.80075-0.18993 0.91535-0.57086 0.0588-0.0544 0.0971-0.136 0.11564-0.24483l0.62131-29.387 15.824-20.407c0.18584-0.21767 0.28777-0.38082 0.30635-0.48966 0.096-0.27209-0.0781-0.40846-0.52412-0.40846h-7.3597c-0.60401 0.0544-1.1506 0.35393-1.64 0.89812l-11.137 14.285 5.0406-14.285c0.19202-0.54419 0.0446-0.8437-0.44168-0.89812zm-145.84 0.0824c-1.2886 0-2.5614 0.48944-3.8189 1.469-1.208 0.97955-2.0562 2.1764-2.5455 3.5913l-16.102 45.55c-0.19202 0.54419-0.0404 0.81569 0.45521 0.81569h6.9881c0.4956 0 0.83898-0.2715 1.031-0.81569l6.9131-19.591 5.4872-2.5307-7.7915 22.122c-0.19203 0.54419-0.0392 0.81569 0.45645 0.81569h6.9131c0.54515 0 0.91403-0.2715 1.106-0.81569l16.101-45.55c0.48935-1.4149 0.44699-2.6117-0.12918-3.5913-0.52661-0.97954-1.4353-1.469-2.7239-1.469zm26.6 9.2236h4.6087l-3.0524 8.734-5.5007 2.6132zm71.719 0h4.6087l-3.0524 8.734-5.5007 2.6132zm-97.753 0.0812h4.6087l-3.0376 8.6528-5.5007 2.6132z" fill="#fff"/>
	</g>
</svg>
