<?xml version="1.0" encoding="UTF-8"?>
<svg width="800" height="131.03" version="1.1" xmlns="http://www.w3.org/2000/svg">
	<defs>
		<linearGradient id="A" x1="813.46" x2="2463.9" y1="414.86" y2="414.86" gradientTransform="matrix(.26203 0 0 .26203 -3.9567 -43.198)" gradientUnits="userSpaceOnUse">
			<stop stop-color="#ff0031" offset="0"/>
			<stop stop-color="#9b001f" offset="1"/>
		</linearGradient>
		<linearGradient id="B" x1="858.58" x2="863.02" y1="-1058.8" y2="-1058.8" gradientTransform="matrix(-.34476 -9.8728 -9.8728 .34476 -10061 8910.4)" gradientUnits="userSpaceOnUse">
			<stop stop-color="#fff" offset="0"/>
			<stop stop-color="#fff" stop-opacity=".4" offset=".5"/>
			<stop stop-color="#fff" stop-opacity=".25" offset="1"/>
		</linearGradient>
		<linearGradient id="C" x1="868.54" x2="872.98" y1="-1081.4" y2="-1081.4" gradientTransform="matrix(-.51267 -14.681 -14.681 .51267 -15004 13365)" gradientUnits="userSpaceOnUse">
			<stop stop-color="#fff" offset="0"/>
			<stop stop-color="#fff" stop-opacity=".4" offset=".5"/>
			<stop stop-color="#fff" stop-opacity=".25" offset="1"/>
		</linearGradient>
	</defs>
	<g>
		<path d="m791.27 0h-159.29c-4.8214 0-8.7257 3.9043-8.7257 8.7257v113.54c0 4.8214 3.8781 8.7257 8.7257 8.7257h159.29c4.8214 0 8.7257-3.9043 8.7257-8.7257v-113.51c0-4.8476-3.8781-8.7519-8.7257-8.7519m0 2.6203c3.3802 0 6.1054 2.7513 6.1054 6.1053v113.54c0 3.354-2.7513 6.1054-6.1054 6.1054h-159.29c-3.3802 0-6.1053-2.7513-6.1053-6.1054v-113.51c0-3.3802 2.7513-6.1053 6.1053-6.1053h159.29" fill="#9b001f"/>
		<path d="m791.27 2.6203c3.3802 0 6.1054 2.7513 6.1054 6.1053v113.54c0 3.354-2.7513 6.1054-6.1054 6.1054h-159.29c-3.3802 0-6.1053-2.7513-6.1053-6.1054v-113.51c0-3.3802 2.7513-6.1053 6.1053-6.1053h159.29" fill="#fff"/>
		<path d="m713.97 40.301v48.397c0 2.1225-1.0743 3.3016-4.3759 3.3016-1.4936 0-2.8824-0.20963-3.9567-0.41925v-22.273h-27.618v19.417c0 2.1225-1.0743 3.3016-4.3759 3.3016-1.5984 0-3.1968-0.20962-3.9567-0.41925v-48.424c0-2.0439 1.0743-3.3016 4.4808-3.3016 1.4936 0 2.961 0.20963 3.8257 0.41925v21.539h27.487v-18.657c0-2.0439 1.1791-3.3016 4.5856-3.3016 1.5722 0 3.0396 0.20963 3.9043 0.41925m56.651 25.574c0 14.517-10.141 25.496-26.02 25.496h-14.805c-3.1968 0-4.3759-1.284-4.3759-3.3016v-44.257c0-2.0176 1.1792-3.3016 4.3759-3.3016h14.805c15.879 0 26.02 10.874 26.02 25.365m-8.4374 0c0-10.874-6.8128-17.923-17.582-17.923h-10.874v35.925h10.874c10.77 0.0262 17.582-7.0225 17.582-18.002" fill="#b2002b"/>
		<path d="m58.486 78.568c0 11.267-7.3369 19.443-22.325 21.067-10.796 1.1529-26.465-0.20963-33.907-1.0481-0.26203-1.2053-0.47166-2.7251-0.47166-3.9305 0-9.8 5.293-12.053 10.272-12.053 5.1882 0 13.364 0.89091 19.39 0.89091 6.708 0 8.6995-2.2535 8.6995-4.4021 0-2.8299-2.6727-3.9829-7.861-4.9786l-14.202-2.7251c-11.791-2.2535-18.08-10.376-18.08-19.024 0-10.481 7.4417-19.286 22.116-20.91 11.058-1.2053 24.579 0.15722 31.968 1.0481 0.26203 1.2578 0.41925 2.4631 0.41925 3.7733 0 9.8-5.1882 11.896-10.167 11.896-3.8257 0-9.7476-0.68128-16.56-0.68128-6.9176 0-9.7476 1.8866-9.7476 4.1925 0 2.4631 2.7251 3.4588 7.0225 4.2449l13.521 2.5155c13.94 2.5155 19.914 10.429 19.914 20.124m24.264 12.053c0 6.0267-2.3583 9.4856-14.15 9.4856-1.5722 0-2.9348-0.10481-4.2449-0.31444v-79.867c0-6.0791 2.0438-12.42 13.94-12.42 1.5198 0 3.0396 0.15722 4.4545 0.47166zm48.162 30.92c1.5722 0.78609 4.7166 1.7818 8.6995 1.8342 6.8652 0.15722 10.586-2.4631 13.364-8.5946l36.684-81.649c-1.5198-0.7861-4.8738-1.7294-7.5989-1.7818-4.7166-0.10481-11.058 0.8385-15.093 10.481l-11.949 27.933-23.321-37.89c-1.5198-0.47166-5.1882-1.1005-7.861-1.1005-8.2802 0-12.84 3.0396-17.609 8.1754l-22.64 24.736 18.237 28.666c3.354 5.2406 7.8086 7.9134 14.988 7.9134 4.7166 0 8.6471-1.1005 10.481-1.939l-21.958-33.016 15.565-16.508 25.522 39.986z" fill="#ff0031"/>
		<path d="m632.96 0.011005h-415.01c-4.8214 0-8.7519 3.9305-8.7519 8.7519v113.51c0 4.8214 3.9305 8.7519 8.7519 8.7519h414.95c4.8214 0 8.7519-3.9305 8.7519-8.7519v-113.56c-0.0524-4.8214-3.8781-8.6995-8.6995-8.6995" fill="url(#A)"/>
		<path d="m64.407 19.925v54.765c0-2.2011 1.677-4.507 4.507-4.6118l9.2235-0.31444c1.8342-0.05241 4.6118-1.3102 4.6642-4.6642v-57.123c-1.415-0.31444-2.9348-0.47166-4.4545-0.47166-11.896 0.052406-13.94 6.3412-13.94 12.42m41.925 19.076-22.64 24.736 1.8342 2.8299c0.7861 1.0481 2.3059 2.8299 5.3455 2.7251l12.892-0.47166c2.83-0.10481 4.6118 1.1005 5.7123 2.5679l-4.0353-6.0791 15.565-16.508 10.429 16.403c1.8866 2.4631 4.7166 2.5155 5.3455 2.5155 0.52406 0 14.255-0.47166 14.831-0.52406 0.94331-0.05241 2.0438 0.47166 2.8824 1.677l-22.692-36.894c-1.5198-0.47166-5.1882-1.1005-7.861-1.1005-8.2802-0.05241-12.84 2.9348-17.609 8.123m-84.217-7.5989c-14.674 1.6246-22.116 10.376-22.116 20.91 0 5.3979 2.4631 10.586 7.1797 14.307 3.5636 2.3583 7.2321 3.2492 10.848 3.8781 2.9872 0.52406 9.9572 0.99572 15.145 0.7861l16.141-0.57647c6.0791-0.20962 9.3283 4.9786 9.0139 10.167v-0.26203c0.05241-0.68128 0.10481-1.3626 0.10481-2.0439 0-9.6952-5.9743-17.609-19.862-20.176l-13.521-2.5155c-4.3497-0.73369-7.0225-1.7818-7.0225-4.2449 0-2.3059 2.8824-4.2449 9.7476-4.2449 6.8128 0 12.735 0.68128 16.56 0.68128 4.9786 0 10.167-2.0963 10.167-11.896 0-1.3102-0.15722-2.5155-0.41925-3.7733-5.293-0.62888-13.783-1.5198-22.22-1.5198-3.3016 0.05241-6.6032 0.20963-9.7476 0.52406m144.8 10.429-11.582 27.304c0-0.05241 0.73369-2.1487 2.9872-2.2535l12.263-0.41925c3.7209-0.15722 5.1882-2.6727 5.6075-3.5112l13.416-29.924c-1.5198-0.7861-4.8738-1.7294-7.5989-1.7818h-0.57647c-4.6642 0.05241-10.638 1.3102-14.517 10.586" fill="url(#B)" opacity=".3"/>
		<path d="m217.96 0.011005c-4.8214 0-8.7519 3.9305-8.7519 8.7519v62.993c0-0.94332 0.36685-6.1316 6.2888-6.708 0 0 0.31444-0.05241 0.83851-0.05241l418.83-14.779c3.3016-0.10481 6.4984-2.5679 6.4984-6.6556v-34.745c0-4.8214-3.9305-8.7519-8.7519-8.7519z" fill="url(#C)" opacity=".3"/>
		<path d="m232.32 66.227c0-18.395 13.495-32.02 31.365-32.02 8.3588 0 16.089 2.3059 21.487 4.8738 0.89091 5.7909-0.91711 8.0968-3.485 8.0968-4.507 0-8.3588-3.7209-17.609-3.7209-11.582 0-21.094 8.6209-21.094 22.771 0 14.019 9.5118 22.771 21.094 22.771 9.2497 0 13.128-3.8519 17.242-3.8519 2.6989 0 4.6118 2.4369 3.8519 8.2278-5.3979 2.6989-13.128 5.0048-21.487 5.0048-17.871 0-31.365-13.888-31.365-32.151m316.67-9.6428v37.182c0 2.5679-1.415 3.9829-5.6599 3.9829-1.808 0-3.8519-0.26203-4.8738-0.52406v-39.357c0-9.0139-4.2449-14.281-12.342-14.281-6.8128 0-12.473 4.7428-14.779 9.6428v40.51c0 2.5679-1.415 3.9829-5.6599 3.9829-1.808 0-3.8519-0.26203-4.8738-0.52406v-39.331c0-9.0139-4.2449-14.281-12.342-14.281-6.8128 0-12.473 4.7428-14.779 9.6428v40.51c0 2.5679-1.415 3.9829-5.6599 3.9829-1.7818 0-3.8519-0.26203-4.8738-0.52406v-61.84c1.0219-0.26203 3.092-0.52406 5.0048-0.52406 3.9829 0 5.3979 1.546 5.3979 4.2449v4.2449c3.9829-5.2668 10.167-9.1449 17.635-9.1449 8.2278 0 14.648 4.1139 17.871 11.189 4.2449-6.4198 10.665-11.189 19.81-11.189 13.18 0.0262 20.124 9.931 20.124 22.404m-99.415 13.495h-47.847c1.415 11.975 9.6428 18.657 21.853 18.657 5.2668 0 9.3808-1.0481 13.259-2.3059 2.6989-0.91711 3.8519-1.284 4.8738-1.284 2.961 0 4.8738 2.4369 4.3759 8.0968-5.5289 2.4369-14.019 5.1358-22.902 5.1358-19.286 0-32.282-12.971-32.282-32.282 0-18.526 13.783-31.889 30.605-31.889 19.05 0 28.43 14.779 28.43 29.714 0.0262 1.808-0.10482 3.9829-0.36685 6.1578m-47.847-8.2278h37.942c-0.39305-10.534-7.2059-18.788-18.133-18.788-9.5118 0.0262-18.133 6.577-19.81 18.788m-23.321-1.415v33.304c0 2.4369-1.415 3.9829-5.6599 3.9829-1.7818 0-3.8519-0.26203-4.8738-0.52406v-35.374c0-12.342-6.0529-18.264-15.172-18.264-7.0749 0-14.779 4.9-17.871 10.665v39.488c0 2.4369-1.415 3.9829-5.6599 3.9829-1.808 0-3.8519-0.26203-4.8738-0.52406v-61.813c1.0219-0.26203 3.092-0.52406 4.8738-0.52406 4.2449 0 5.6599 1.546 5.6599 3.9829v5.2668c4.507-5.5289 11.32-9.9048 20.439-9.9048 12.604 0.0262 23.137 7.992 23.137 26.256m236.33-2.8299v39.619c-1.0219 0.26203-2.961 0.52406-4.7428 0.52406-3.8519 0-5.6599-1.415-5.6599-3.9829v-5.4241c-5.5289 6.315-12.735 10.036-21.88 10.036-13.757 0-21.356-8.9877-21.356-18.788 0-14.91 15.958-21.487 43.078-19.679v-2.1749c0-10.167-3.092-14.412-14.779-14.412-4.8738 0-11.451 1.415-14.91 2.3059-2.0701 0.52406-3.616 1.0219-4.8738 1.0219-2.961 0-4.9-2.5679-3.8781-7.9658 6.315-2.3059 15.434-4.507 24.186-4.507 18.133 0.0262 24.814 8.123 24.814 23.426m-10.534 21.618v-11.713c-17.74-1.284-32.544 1.0219-32.544 11.713 0 5.3979 4.507 10.272 12.604 10.272 8.2278 0 15.434-4.0877 19.941-10.272m-308.52-57.883c0-3.8519 3.092-6.6818 6.6818-6.6818 3.8781 0 6.8128 2.8299 6.8128 6.6818 0 3.485-2.961 6.6818-6.8128 6.6818-3.5898 0-6.6818-3.1968-6.6818-6.6818m1.415 75.884v-58.381c0-2.4369 1.415-3.9829 5.6599-3.9829 1.808 0 3.7209 0.26203 4.7428 0.52406v58.381c0 2.5679-1.284 3.9829-5.5289 3.9829-1.7818 0-3.8257-0.26203-4.8738-0.52406" fill="#fff"/>
	</g>
</svg>
