<svg xmlns="http://www.w3.org/2000/svg" height="53.251" width="600" viewBox="0 0 158.75 14.089"><defs><linearGradient id="a" gradientUnits="userSpaceOnUse" x2=".992" gradientTransform="matrix(0 14.103 14.75273 0 220.235 306.05)" x1=".009"><stop stop-color="#0f1c4e" offset="0"/><stop stop-color="#101e51" offset=".004"/><stop stop-color="#101f54" offset=".008"/><stop stop-color="#112157" offset=".012"/><stop stop-color="#12225a" offset=".016"/><stop stop-color="#13245d" offset=".02"/><stop stop-color="#132560" offset=".023"/><stop stop-color="#142662" offset=".027"/><stop stop-color="#142764" offset=".031"/><stop stop-color="#142764" offset=".063"/><stop stop-color="#142764" offset=".125"/><stop stop-color="#142764" offset=".25"/><stop stop-color="#142764" offset=".5"/><stop stop-color="#142764" offset=".75"/><stop stop-color="#142764" offset=".875"/><stop stop-color="#142764" offset=".891"/><stop stop-color="#142764" offset=".898"/><stop stop-color="#142763" offset=".902"/><stop stop-color="#142763" offset=".906"/><stop stop-color="#132662" offset=".91"/><stop stop-color="#132661" offset=".914"/><stop stop-color="#132560" offset=".918"/><stop stop-color="#13255f" offset=".922"/><stop stop-color="#12245d" offset=".926"/><stop stop-color="#12245c" offset=".93"/><stop stop-color="#12235b" offset=".934"/><stop stop-color="#12235a" offset=".938"/><stop stop-color="#112259" offset=".941"/><stop stop-color="#112258" offset=".945"/><stop stop-color="#112157" offset=".949"/><stop stop-color="#112056" offset=".953"/><stop stop-color="#102055" offset=".957"/><stop stop-color="#102054" offset=".961"/><stop stop-color="#101f53" offset=".965"/><stop stop-color="#101e52" offset=".969"/><stop stop-color="#0f1d50" offset=".973"/><stop stop-color="#0f1d4f" offset=".977"/><stop stop-color="#0f1c4e" offset=".98"/><stop stop-color="#0f1c4d" offset=".984"/><stop stop-color="#0e1b4c" offset=".988"/><stop stop-color="#0e1b4b" offset=".992"/><stop stop-color="#0e1a4a" offset=".996"/><stop stop-color="#0e1949" offset="1"/></linearGradient><linearGradient id="b" gradientUnits="userSpaceOnUse" x2="1" gradientTransform="matrix(0 -13.87 14.509 0 223.007 320.04)"><stop stop-color="#552227" offset="0"/><stop stop-color="#5a2227" offset=".004"/><stop stop-color="#602228" offset=".008"/><stop stop-color="#662329" offset=".012"/><stop stop-color="#6c232a" offset=".016"/><stop stop-color="#71232a" offset=".02"/><stop stop-color="#77232a" offset=".023"/><stop stop-color="#7d232a" offset=".027"/><stop stop-color="#84222b" offset=".031"/><stop stop-color="#8a212b" offset=".035"/><stop stop-color="#90202b" offset=".039"/><stop stop-color="#961f2b" offset=".043"/><stop stop-color="#9d1d2b" offset=".047"/><stop stop-color="#a31a2a" offset=".051"/><stop stop-color="#a9172a" offset=".055"/><stop stop-color="#b01329" offset=".059"/><stop stop-color="#b70f29" offset=".063"/><stop stop-color="#bd0829" offset=".066"/><stop stop-color="#c40228" offset=".07"/><stop stop-color="#c70028" offset=".074"/><stop stop-color="#ca0027" offset=".078"/><stop stop-color="#ca0027" offset=".094"/><stop stop-color="#ca0027" offset=".125"/><stop stop-color="#ca0027" offset=".25"/><stop stop-color="#ca0027" offset=".5"/><stop stop-color="#ca0027" offset=".75"/><stop stop-color="#ca0027" offset=".875"/><stop stop-color="#ca0027" offset=".906"/><stop stop-color="#ca0027" offset=".914"/><stop stop-color="#cb0028" offset=".918"/><stop stop-color="#cc0029" offset=".922"/><stop stop-color="#ce002a" offset=".926"/><stop stop-color="#cf012a" offset=".93"/><stop stop-color="#d1052b" offset=".934"/><stop stop-color="#d2092c" offset=".938"/><stop stop-color="#d40b2d" offset=".941"/><stop stop-color="#d50d2e" offset=".945"/><stop stop-color="#d60f2f" offset=".949"/><stop stop-color="#d71130" offset=".953"/><stop stop-color="#d91431" offset=".957"/><stop stop-color="#da1732" offset=".961"/><stop stop-color="#dc1933" offset=".965"/><stop stop-color="#dd1a34" offset=".969"/><stop stop-color="#df1c35" offset=".973"/><stop stop-color="#e01d35" offset=".977"/><stop stop-color="#e12036" offset=".98"/><stop stop-color="#e22237" offset=".984"/><stop stop-color="#e42439" offset=".988"/><stop stop-color="#e6253a" offset=".992"/><stop stop-color="#e7263a" offset=".996"/><stop stop-color="#e8283b" offset="1"/></linearGradient></defs><path d="M139.353 320.04c-1.14 0-1.546-.646-1.546-1.718v-10.435c0-1.07.406-1.717 1.546-1.717h161.775c1.14 0 1.545.646 1.545 1.717v10.435c0 1.072-.406 1.718-1.545 1.718" fill="url(#a)" transform="translate(-131.201 -292.277) scale(.95596)"/><path d="M164.626 306.17v13.869h116.762c.002-4.701.004-9.76.004-13.869z" fill="url(#b)" transform="translate(-131.201 -292.277) scale(.95596)"/><g fill="#fff"><path d="M145.793 6.184V4.312c0-.503.203-.83 1.245-.83.133 0 .247.007.37.032V9.65c0 .503-.202.83-1.253.83-.123 0-.238-.007-.362-.026v-2.79h-3.266v1.987c0 .503-.203.83-1.253.83-.124 0-.23-.007-.362-.026V4.31c0-.504.203-.83 1.244-.83.133 0 .248.006.371.038v2.666h3.267m9.286.795c0-2.092-1.5-3.505-3.99-3.505h-1.695c-.803 0-.997.423-.997.989v5.04c0 .54.194.98.997.98h1.695c2.49 0 3.99-1.42 3.99-3.504m-5.067 2.004V4.975h1.174c1.633 0 2.225 1.051 2.225 2.004 0 .945-.591 2.004-2.225 2.004h-1.174M9.038 8.315c0 1.13-.741 1.96-2.242 2.128-1.094.115-2.675-.02-3.425-.106a1.41 1.41 0 0 1-.051-.397c0-.998.539-1.218 1.041-1.218.521 0 1.342.088 1.96.088.671 0 .874-.23.874-.441 0-.292-.273-.406-.794-.504l-1.43-.282c-1.192-.23-1.828-1.05-1.828-1.925 0-1.06.76-1.95 2.234-2.11 1.12-.123 2.48.02 3.222.106.025.124.045.247.045.38 0 .998-.521 1.21-1.024 1.21-.389 0-.99-.08-1.678-.08-.697 0-.98.194-.98.432 0 .248.274.345.707.424l1.368.256c1.404.256 2.004 1.06 2.004 2.04m2.454 1.218c0 .609-.238.962-1.421.962-.159 0-.3-.02-.433-.032V2.386c0-.609.212-1.253 1.413-1.253.15 0 .3.019.441.045v8.36m4.856 3.125c.158.079.476.176.882.185.689.019 1.069-.248 1.342-.865l3.708-8.263a1.97 1.97 0 0 0-.768-.177c-.477-.007-1.112.088-1.527 1.06l-1.201 2.833-2.348-3.831a3.117 3.117 0 0 0-.795-.115c-.83 0-1.289.309-1.774.83l-2.287 2.498 1.837 2.896c.344.53.794.794 1.518.794.477 0 .874-.106 1.06-.194l-2.216-3.337 1.57-1.668 2.57 4.043-1.572 3.31M109.233 7.904h1.041l2.013 2.428c.38.46.742.715 1.598.715.583 0 .971-.07 1.289-.23l-2.622-3.027c1.474-.309 2.216-1.271 2.216-2.675 0-1.74-1.06-2.595-3.196-2.595l-3.054-.02c-.99.045-1.307.38-1.307 1.29v7.123c.177.026.318.039.495.039 1.253 0 1.545-.38 1.545-1.033l-.02-2.013m0-1.65V4.233h1.987c.847 0 1.51.08 1.51.962 0 .741-.504 1.06-1.51 1.06h-1.987M103.45 4.224h1.685c.547 0 1.113-.203 1.113-1.28 0-.124-.02-.203-.045-.353H99.74c-.547 0-1.112.203-1.112 1.28 0 .124.019.353.044.353h2.702v6.797c.15.032.335.045.512.045 1.27 0 1.562-.37 1.562-1.033V4.225M117.33 11.059a4.964 4.964 0 0 1-.971-.09V3.554c0-.247.07-.46.229-.636.15-.176.441-.256.874-.256.177 0 .353.007.53.02.176.019.317.044.441.063v7.425c0 .247-.08.459-.23.635-.158.168-.45.256-.873.256M130.816 5.473c-.096-.084-.187-.161-.322-.386-.34-.553-.353-1.28.36-1.544l2.6-.881h1.28v7.429c0 .566-.162.965-1.081.965-.36 0-.791-.036-.965-.071V4.848l-1.872.624M125.169 7.36l-.804-2.534c-.105-.344-.3-.327-.67-.292l-.866 2.825h2.34m-5.544 3.523l2.648-8.043c2.304-.432 3.496-.044 3.814.98l2.224 6.948c-.53.423-1.995.3-2.145-.15l-.46-1.465h-3.398l-.388 1.27c-.247.592-.865.804-2.295.46M78.116 7.407l-.812-2.56c-.097-.344-.292-.336-.67-.291l-.875 2.851h2.357m-5.588 3.549l2.666-8.113c2.33-.432 3.531-.051 3.85.98l2.241 7.018c-.538.424-2.004.3-2.162-.159l-.46-1.474H75.23l-.388 1.28c-.248.6-.874.812-2.313.468M98.038 8.602c0-1.368-.891-2.04-2.321-2.357l-2.048-.565c-.45-.097-.83-.238-.83-.688 0-.495.388-.68 1.439-.68.75 0 1.077.088 2.198.088.52 0 1.042-.238 1.042-1.262 0-.124-.007-.265-.032-.388-.75-.064-1.66-.168-3.32-.168-2.507 0-3.46 1.086-3.46 2.472 0 1.297.812 2.012 2.26 2.357l2.057.574c.574.141.891.388.891.759 0 .485-.282.68-1.333.68-.874 0-1.51-.089-2.63-.089-.521 0-1.051.238-1.051 1.254 0 .132.02.264.045.397.75.07 2.092.159 3.752.159 2.507 0 3.345-1.068 3.345-2.543M83.756 7.283c0 1.818 1.042 2.207 1.987 2.207.927 0 1.862-.424 1.862-2.119V3.505c0-1.245 1.651-.892 2.198-.804v4.352c0 1.563-.352 4.088-4.06 4.088-3.893 0-4.096-2.772-4.096-4.035v-3.54c0-1.315 1.633-.98 2.11-.882v4.599M35.566 8.593c0-1.378-.891-2.04-2.313-2.357l-2.498-.565c-.46-.107-.838-.239-.838-.698 0-.494.397-.68 1.438-.68 1.236 0 1.528.065 2.649.065.52 0 1.05-.239 1.05-1.263 0-.123-.006-.264-.032-.388-.759-.064-2.11-.142-3.778-.142-2.507 0-3.47 1.086-3.47 2.472 0 1.307.822 2.022 2.278 2.366l2.49.574c.582.142.9.397.9.76 0 .494-.441.679-1.492.679-1.236 0-1.8-.088-2.922-.088-.52 0-1.05.238-1.05 1.262 0 .124.019.264.032.388.759.08 2.392.168 4.052.168 2.515 0 3.504-1.077 3.504-2.551M56.167 8.038h1.042l2.03 2.401c.371.468.742.715 1.598.715.583 0 .971-.08 1.28-.229l-2.622-3.046c1.475-.308 2.225-1.27 2.225-2.683 0-1.74-1.06-2.596-3.204-2.596l-3.064-.019c-.997.039-1.324.38-1.324 1.29v7.14c.15.026.327.033.503.033 1.254 0 1.545-.362 1.545-1.024l-.007-1.987m.007-1.668v-2.11h1.986c.839 0 1.51.133 1.51 1.015 0 .742-.503 1.095-1.51 1.095h-1.986M36.475 11.02c.158.02.335.04.503.04 1.271 0 1.554-.363 1.554-1.025v-1.73h2.145c2.34 0 3.496-1.007 3.496-2.896 0-1.827-1.157-2.798-3.355-2.798h-3.02c-1.006 0-1.323.388-1.323 1.28v7.133M38.532 6.6V4.288h2.057c1.024 0 1.527.38 1.527 1.121 0 .795-.504 1.192-1.527 1.192h-2.057M48.969 11.03c1.324 0 2.348-.308 3.063-.953.724-.627 1.086-1.766 1.086-3.381-.007-1.59-.38-2.702-1.121-3.355-.742-.644-1.757-.97-3.028-.97-1.271 0-2.278.326-3.028.97-.742.654-1.112 1.766-1.121 3.355 0 1.615.362 2.754 1.086 3.38.715.645 1.739.954 3.063.954m2.03-4.334c0 .97-.159 1.65-.494 2.057-.309.415-.83.609-1.536.609-.715-.02-1.236-.221-1.563-.61-.327-.388-.494-1.076-.494-2.056 0-.971.176-1.651.503-2.048.336-.397.848-.592 1.554-.592.706 0 1.21.195 1.536.592.336.397.494 1.077.494 2.048M67.142 4.329h1.65c.548 0 1.104-.247 1.104-1.324 0-.124-.02-.274-.045-.397h-6.418c-.538 0-1.094.247-1.094 1.324 0 .123.006.273.038.397h2.71v6.692c.15.025.327.038.504.038 1.262 0 1.553-.362 1.553-1.024V4.332"/><path d="M1.985.677c-.96 0-1.34.371-1.34 1.457v9.421c0 .583.033.98.128.98h.003c.027-.185.054-1.096 1.098-1.917.333-.247.867-.485 1.597-.715 2.013-.498 4.12-.937 5.96-1.214.21-.025.463-.066.654-.093.677-.092 1.368-.177 1.943-.251.35-.052.72-.09 1.021-.126.721-.083 1.457-.16 2.071-.229.877-.103 1.799-.185 2.552-.258h.004v.004c1.247-.115 2.549-.229 3.907-.335l.003-.003c1.467-.124 3-.239 4.585-.345V.846H3.081C2.7.836 2.324.73 1.993.677zm24.189.169V7.05a374.07 374.07 0 0 1 3.785-.249c.198-7.225-1.536-2.218.007 0 1.833-.114 3.73-.22 5.682-.317l.014.003c.822-.044 1.653-.09 2.493-.125.245-4.04.007-3.954.007 0v.004c.71-.034 1.43-.074 2.15-.1 1.163-.052 2.346-.105 3.536-.149.81-.031 1.632-.068 2.32-.096.25-.015.522-.02.741-.03.747-.022 1.533-.052 2.213-.076 1.446-.052 2.928-.097 4.166-.136.761-.015 1.552-.04 2.21-.06l1.125-.026c.733-.02 1.486-.04 2.147-.06 1.261-.032 2.548-.058 3.63-.082.74-.012 1.509-.03 2.146-.043a491.62 491.62 0 0 1 3.536-.063c0-.004.007-.002.013-.004.718-.006 1.435-.026 2.144-.033 2.639-.034 5.316-.063 7.574-.08.716-.004 1.454-.012 2.102-.016h1.108c.756-.007 1.526-.005 2.171-.007.765-.015 1.558-.01 2.22-.01.75.007 1.435.004 2.213.004 1.392-.005 2.822.007 4.02.013.8.007 1.617.009 2.303.01.323 0 .636.01.95.01.813.008 1.65.013 2.347.017 2.99.046 6.1.087 8.8.143.753.007 1.525.029 2.171.043 1.33.027 2.642.06 3.944.096.73.013 1.485.042 2.116.062 1.2.03 2.437.077 3.47.113l2.237.08c.6.03 1.227.052 1.746.072.738.037 1.522.069 2.167.097.97.044 1.922.098 2.864.142.702.035 1.395.08 2.078.112l1.783.106c.764.044 1.54.1 2.196.143 2.768.175 5.334.4 7.896.635 1.531.15 2.981.31 4.328.477l.776.1c.586.076 1.187.16 1.694.228l1.035.159c.59.097 1.155.194 1.69.291.723.114 1.486.303 2.084.434.822.185 1.543.376 2.161.58 1.109.361 1.914.743 2.376 1.158.94.89 1.07 1.722 1.098 1.91.086-.01.124-.398.124-.973l-.006-9.422c0-1.086-.36-1.456-1.33-1.456-.376.039-.757.116-1.09.167H26.175zm41.915 4.595h-.007l.007.004z" opacity=".4"/></g><path d="M156.635 14.09c1.625 0 2.115-.963 2.115-1.934V1.924c0-.962-.49-1.924-2.115-1.924H2.115C.49 0 0 .962 0 1.924v10.232c0 .971.49 1.933 2.115 1.933h154.52m-154.45-.123c-1.09 0-1.838-.618-1.838-1.651V1.766C.347.742 1.095.124 2.185.124h154.37c1.09 0 1.829.618 1.829 1.642v10.549c0 1.033-.739 1.65-1.829 1.65H2.185" fill="#9ea1a1"/></svg>