<?xml version="1.0" encoding="UTF-8"?>
<svg width="800" height="118.84" version="1.1" xmlns="http://www.w3.org/2000/svg">
	<path d="m319.14 0h475.09c3.1957 0 5.7684 2.5727 5.7684 5.7684v107.3c0 3.1957-2.5727 5.7684-5.7684 5.7684h-475.09z" fill="#cbcbcb" fill-rule="evenodd" stop-color="#000000"/>
	<path d="m319.14 2.3769h472.95c3.0679 0 5.5377 2.4698 5.5377 5.5377v103.01c0 3.0679-2.4698 5.5377-5.5377 5.5377h-472.95z" fill="#fafafa" fill-rule="evenodd" stop-color="#000000"/>
	<g fill="#002a91">
		<path d="m550.61 82.89q-3.6065 0-6.4732-1.1097-2.7742-1.2022-4.7162-3.2366-1.942-2.1269-2.9592-4.9011-1.0172-2.8667-1.0172-6.2882v-21.916h-7.028q-0.18495-0.64732-0.27742-1.6645-0.0925-1.0172-0.0925-2.0344 0-2.3118 0.92474-3.2366 1.0172-0.92474 2.4968-0.92474h3.9764v-6.3807q0-1.1097 0.18494-2.1269 0.27742-1.0172 0.83226-1.8495 0.64732-0.83226 1.757-1.2946 1.2022-0.46237 3.1441-0.46237 2.2194 0 3.9764 0.64732v11.467h15.166q0.46238 1.3871 0.46238 3.699 0 2.3118-1.0172 3.2366-0.92473 0.92474-2.4043 0.92474h-12.207v21.546q0 3.514 1.6645 5.456 1.6645 1.9419 4.9011 1.9419 1.3871 0 2.4968-0.27742 1.1097-0.27742 1.942-0.64732 0.92473-0.3699 1.6645-0.64732 0.83227-0.27742 1.572-0.27742 1.757 0 2.7742 1.2022t1.0172 3.7914q0 0.46237 0 1.0172 0 0.46237-0.0925 0.92474-2.6817 1.5721-5.7334 2.4968-2.9592 0.92474-6.9355 0.92474z"/>
		<path d="m590.84 83.26q-5.6409 0-10.08-1.757-4.4387-1.757-7.4904-4.9011t-4.7162-7.3979q-1.572-4.3463-1.572-9.3399t1.6645-9.1549q1.6645-4.2538 4.5312-7.3054 2.9592-3.1441 6.9355-4.9011 3.9764-1.757 8.6001-1.757 5.1785 0 9.1549 1.942 3.9764 1.8495 6.5656 4.9936 2.6817 3.1441 3.9764 7.1205 1.3871 3.9764 1.3871 8.1377 0 2.3118-0.46237 4.6237h-32.088q0.64732 5.3635 4.1613 8.2302 3.6065 2.7742 9.4323 2.7742 2.4968 0 4.3463-0.3699 1.8495-0.3699 3.329-0.83226 1.4796-0.55484 2.6817-0.92474t2.4043-0.3699q1.6645 0 2.6817 1.4796 1.1097 1.4796 1.1097 3.9764 0 0.46237-0.0925 1.0172 0 0.55484-0.0925 1.1097-2.7742 1.2946-6.9355 2.4968-4.1613 1.1097-9.4323 1.1097zm9.5248-26.91q-0.46236-4.9936-3.4215-8.3226-2.8667-3.4215-8.2302-3.4215-5.0861 0-8.1377 3.2366-2.9592 3.2366-3.4215 8.5076z"/>
		<path d="m622.65 82.797q-1.3871 0-2.8667-0.18495-1.3871-0.09247-2.1269-0.27742v-44.387q1.0172-0.27742 2.0344-0.46237 1.1097-0.27742 2.4043-0.27742 2.8667 0 4.0688 1.5721 1.2946 1.4796 1.2946 4.0688l0.0925 1.2946q2.3118-3.2366 6.0108-5.271 3.7914-2.1269 8.5076-2.1269 7.4904 0 11.837 4.9011 4.3463 4.9011 4.3463 14.056v22.841q0 1.8495-1.1097 3.0516-1.0172 1.2022-3.9764 1.2022-1.3871 0-2.8667-0.18495-1.3871-0.09247-2.1269-0.27742v-25.523q0-5.9183-2.5893-8.6925-2.5893-2.7742-7.3054-2.7742-2.9592 0-6.0108 1.6645-2.9592 1.6645-4.5312 4.4387v27.095q0 1.8495-1.1097 3.0516-1.0172 1.2022-3.9764 1.2022z"/>
		<path d="m673.05 82.797q-1.3871 0-2.8667-0.18495-1.3871-0.09247-2.1269-0.27742v-44.387q1.0172-0.27742 2.0344-0.46237 1.1097-0.27742 2.4043-0.27742 2.8667 0 4.0688 1.5721 1.2946 1.4796 1.2946 4.0688l0.0925 1.2946q2.3118-3.2366 6.0108-5.271 3.7914-2.1269 8.5076-2.1269 7.4904 0 11.837 4.9011t4.3463 14.056v22.841q0 1.8495-1.1097 3.0516-1.0172 1.2022-3.9764 1.2022-1.3871 0-2.8667-0.18495-1.3871-0.09247-2.1269-0.27742v-25.523q0-5.9183-2.5893-8.6925-2.5893-2.7742-7.3054-2.7742-2.9592 0-6.0108 1.6645-2.9592 1.6645-4.5312 4.4387v27.095q0 1.8495-1.1097 3.0516-1.0172 1.2022-3.9764 1.2022z"/>
		<path d="m723.35 82.797q-1.3871 0-2.7742-0.18495-1.3871-0.09247-2.1269-0.27742v-40.873q0-1.8495 1.1097-3.0516 1.1097-1.2022 3.9764-1.2022 1.4796 0 2.8667 0.18495 1.3871 0.09247 2.1269 0.27742v40.873q0 1.8495-1.1097 3.0516-1.1097 1.2022-4.0688 1.2022zm0.18495-53.635q-2.3118 0-3.9764-1.6645-1.6645-1.6645-1.6645-3.9764 0-2.4043 1.6645-4.0688 1.6645-1.6645 3.9764-1.6645 2.4043 0 4.0688 1.6645 1.6645 1.6645 1.6645 4.0688 0 2.3118-1.6645 3.9764-1.6645 1.6645-4.0688 1.6645z"/>
		<path d="m755.35 82.89q-4.4387 0-9.2474-0.83226-4.7162-0.92474-9.1549-2.4968-0.0925-0.46237-0.18495-0.92474 0-0.55484 0-1.0172 0-2.4043 1.0172-3.8839 1.0172-1.4796 2.8667-1.4796 1.1097 0 2.5893 0.3699 1.5721 0.3699 3.3291 0.92474 1.8495 0.46237 4.0688 0.83226t4.7162 0.3699q2.7742 0 4.4388-0.3699 1.757-0.46237 2.6817-1.1097 0.92474-0.73979 1.2022-1.5721 0.36989-0.92474 0.36989-1.942 0-2.0344-1.572-3.0516-1.572-1.1097-5.5484-2.2194l-6.5656-1.8495q-7.4904-2.1269-10.45-5.1785-2.9592-3.1441-2.9592-7.7678 0-2.4968 1.0172-4.8086 1.0172-2.3118 3.1441-4.0688 2.2194-1.757 5.6409-2.7742 3.4215-1.1097 8.3226-1.1097 8.0452 0 16.923 2.9592 0 0.46237 0 0.83226 0.0925 0.27742 0.0925 0.64732 0 2.6817-1.0172 4.2538-0.92473 1.4796-2.9592 1.4796-2.0344 0-5.1785-0.92474-3.0516-1.0172-7.8603-1.0172-4.4387 0-6.2882 1.1097-1.757 1.1097-1.757 3.0516 0 0.83226 0.18495 1.4796 0.27742 0.64732 0.92474 1.2022 0.73978 0.55484 1.9419 1.1097 1.2946 0.46237 3.4215 1.0172l6.9355 1.9419q7.5828 2.1269 10.634 5.271 3.1441 3.1441 3.1441 7.9527 0 2.4968-0.92474 4.9936-0.83226 2.4043-2.9592 4.3463-2.1269 1.8495-5.8258 3.0516-3.6065 1.2022-9.1549 1.2022z"/>
	</g>
	<linearGradient id="A" x1="1456.7" x2="1456.7" y2="500" gradientTransform="matrix(.23769 0 0 .23769 .015761 2.0393e-6)" gradientUnits="userSpaceOnUse">
		<stop stop-color="red" offset=".4"/>
		<stop stop-color="#d42321" offset="1"/>
	</linearGradient>
	<path d="m197.78 2.0393e-6h296.92c4.3734 0 7.9148 3.5414 7.9148 7.9148v103.01c0 4.3734-3.5415 7.9148-7.9148 7.9148h-296.92c-4.3734 0-7.9148-3.5414-7.9148-7.9148v-103.01c0-4.3734 3.5415-7.9148 7.9148-7.9148z" fill="url(#A)"/>
	<linearGradient id="B" x1="1459.5" x2="1450.8" y1="233.73" y2="-15.325" gradientTransform="matrix(.23769 0 0 .23769 .015761 2.0393e-6)" gradientUnits="userSpaceOnUse">
		<stop stop-color="#fff" offset="0"/>
		<stop stop-color="#fff" stop-opacity=".835" offset=".12"/>
		<stop stop-color="#fff" stop-opacity=".658" offset=".269"/>
		<stop stop-color="#fff" stop-opacity=".511" offset=".42"/>
		<stop stop-color="#fff" stop-opacity=".397" offset=".568"/>
		<stop stop-color="#fff" stop-opacity=".315" offset=".716"/>
		<stop stop-color="#fff" stop-opacity=".266" offset=".86"/>
		<stop stop-color="#fff" stop-opacity=".25" offset="1"/>
	</linearGradient>
	<path d="m195.57 58.945 0.76057-0.04754 300.37-10.482c3.3038-0.02377 5.9421-2.7334 5.9183-6.0134v-34.487c0-4.3734-3.5415-7.9148-7.9148-7.9148h-296.92c-4.3734 0-7.9148 3.5414-7.9148 7.9148v57.211c-0.0951-3.2563 2.4482-6.0134 5.7044-6.1798z" fill="url(#B)" opacity=".4"/>
	<linearGradient id="C" x1="361.92" x2="361.92" y1="28.806" y2="471.22" gradientTransform="matrix(.23769 0 0 .23769 .015761 2.0393e-6)" gradientUnits="userSpaceOnUse">
		<stop stop-color="#cbcbcb" offset="0"/>
		<stop stop-color="#d4d4d4" offset=".8"/>
	</linearGradient>
	<path d="m118.75 110.31c2.4957 1.0933 5.1815 1.6876 7.891 1.6876 6.2035 0.14261 9.6024-2.2343 12.099-7.7959l33.299-74.132c-2.163-0.97456-4.516-1.5212-6.8928-1.5925-4.302-0.09508-10.054 0.78434-13.691 9.531l-10.767 25.385-21.154-34.369c-2.3294-0.61797-4.7299-0.95072-7.1305-0.99833-7.4869 0-11.646 2.7334-15.973 7.4394l-20.559 22.438 16.52 26.003c3.0662 4.7299 7.0829 7.1542 13.619 7.1542 3.2562 0.04754 6.4888-0.54667 9.5072-1.7826l-19.918-29.949 14.119-14.95 23.15 36.294zm-43.662-28.024c0 5.4667-2.1392 8.6041-12.835 8.6041-1.2835 0-2.567-0.09508-3.8266-0.26146v-72.516c0-5.5142 1.8777-11.266 12.645-11.266 1.3548 0 2.7097 0.14261 4.0168 0.40406zm-22.057-10.957c0 10.221-6.6789 17.636-20.227 19.11-9.8162 1.0458-24.03-0.19015-30.78-0.95071-0.23769-1.1646-0.38029-2.3531-0.40406-3.5652 0-8.8893 4.8012-10.933 9.3171-10.933 4.7061 0 12.099 0.83188 17.589 0.83188 6.0609 0 7.891-2.0441 7.891-4.0168 0-2.5433-2.4244-3.6127-7.1305-4.516l-12.882-2.472c-10.695-2.0441-16.4-9.4359-16.4-17.279 0-9.531 6.7501-17.494 20.037-18.967 10.054-1.0933 22.295 0.14261 28.998 0.95072 0.23769 1.1171 0.35652 2.258 0.35652 3.4227 0 8.8893-4.7061 10.815-9.2221 10.815-3.4701 0-8.8656-0.64174-15.022-0.64174-6.2511 0-8.8656 1.7351-8.8656 3.8266 0 2.2343 2.472 3.1374 6.3937 3.8266l12.289 2.2818c12.621 2.3056 18.064 9.4835 18.064 18.278z" fill="url(#C)"/>
	<linearGradient id="D" x1="365.45" x2="359.6" y1="263.25" y2="95.751" gradientTransform="matrix(.23769 0 0 .23769 .015761 2.0393e-6)" gradientUnits="userSpaceOnUse">
		<stop stop-color="#fff" offset="0"/>
		<stop stop-color="#fff" stop-opacity=".835" offset=".12"/>
		<stop stop-color="#fff" stop-opacity=".658" offset=".269"/>
		<stop stop-color="#fff" stop-opacity=".511" offset=".42"/>
		<stop stop-color="#fff" stop-opacity=".397" offset=".568"/>
		<stop stop-color="#fff" stop-opacity=".315" offset=".716"/>
		<stop stop-color="#fff" stop-opacity=".266" offset=".86"/>
		<stop stop-color="#fff" stop-opacity=".25" offset="1"/>
	</linearGradient>
	<path d="m172.06 30.067-12.193 27.143c-0.95075 1.949-2.9236 3.185-5.0864 3.185l-11.124 0.38029c-1.2122 0.07131-2.2818 0.87942-2.7097 2.0203v-0.02377l10.505-24.767c3.6603-8.7467 9.4122-9.6263 13.691-9.531 2.4006 0.07131 4.7299 0.61798 6.9165 1.5925zm-31.945 32.444-20.583-33.467c-2.3294-0.61797-4.7299-0.95072-7.1305-0.99833-7.4869 0-11.646 2.7334-15.973 7.4394l-20.559 22.438 1.64 2.5908c1.0695 1.6162 2.9236 2.5433 4.8725 2.4482l11.718-0.40406a5.8636 5.8636 0 0 1 5.1814 2.3293l-3.684-5.538 14.119-14.95 9.4835 14.856c1.1646 1.4736 2.9711 2.3056 4.8487 2.258l13.477-0.47537c1.0459 0 2.0441 0.57044 2.5908 1.4736zm-69.046-55.641c-10.767 0-12.645 5.7519-12.645 11.266v49.676c0-2.2818 1.8302-4.1357 4.1119-4.207l8.3426-0.28523c2.3293 0 4.2307-1.9015 4.2307-4.2307v-51.814c-1.3548-0.28523-2.6859-0.42783-4.0406-0.40406zm-36.079 46.158-12.289-2.2818c-3.9217-0.68928-6.3937-1.5925-6.3937-3.8266 0-2.0916 2.6146-3.8266 8.8656-3.8266 6.156 0 11.552 0.64174 15.022 0.64174 4.516 0 9.2221-1.9253 9.2221-10.815 0-1.1409-0.11884-2.3056-0.35652-3.4226-6.7026-0.83188-18.943-2.0441-28.998-0.95072-13.31 1.4736-20.061 9.4597-20.061 18.967 0.023769 5.0864 2.4244 9.8878 6.4888 12.954 2.9949 1.8539 6.3699 3.0662 9.864 3.5176 4.5635 0.61797 9.1508 0.85566 13.739 0.71305l14.666-0.52291c5.4904-0.19015 8.4852 4.4922 8.1762 9.1983 0-0.07131 0-0.11884 0.02377-0.19015v-0.04754c0.04754-0.61798 0.07131-1.2359 0.07131-1.8539 0-8.7467-5.4429-15.925-18.04-18.254z" fill="url(#D)" opacity=".25"/>
	<path d="m212.59 85.399c-0.71304-4.8963 0.80813-7.4631 3.6128-7.4631 2.6621 0 9.1982 2.9236 18.302 2.9236 9.5786 0 13.192-3.3988 13.192-7.8197 0-3.1374-1.4023-5.9421-10.03-8.2951l-9.9117-2.6621c-10.957-2.9236-15.283-8.4139-15.283-15.188 0-8.3902 6.6551-15.877 21.701-15.877 6.774 0 15.188 1.5212 20.299 3.5176 0.92693 4.7774-0.59422 7.3443-3.4939 7.3443-2.567 0-8.3902-2.4482-16.686-2.4482-8.8656 0-12.146 3.0187-12.146 6.9878 0 2.781 1.2835 5.3716 9.2221 7.582l10.149 2.8047c11.338 3.1374 15.877 8.3902 15.877 15.854 0 8.7705-6.774 16.566-23.103 16.566-7.2255 0.02377-16.234-1.7351-21.701-3.8266m111.99-25.313c0 18.302-12.835 29.164-26.953 29.164-8.3902 0-15.283-3.9693-19.372-9.5547v23.579c0 2.2105-1.2835 3.6127-5.015 3.6127-1.8777 0-3.6127-0.23768-4.5397-0.45159v-74.347c0.92697-0.23769 2.6621-0.47537 4.5397-0.47537 3.7316 0 5.015 1.4023 5.015 3.6127v5.3478c4.0881-5.5855 10.981-9.5547 19.372-9.5547 14.119 0 26.953 10.863 26.953 29.069m-9.674 0c0-12.241-8.1525-20.655-19.134-20.655-7.4631 0-14.356 4.3258-17.494 10.625v20.179c3.1374 6.2986 10.03 10.625 17.494 10.625 10.957-0.02377 19.134-8.4139 19.134-20.774m18.635 0c0-16.686 12.241-29.045 28.689-29.045 16.566 0 28.807 12.359 28.807 29.045 0 16.566-12.241 29.164-28.807 29.164-16.448-0.02377-28.689-12.621-28.689-29.164m47.821 0c0-12.835-8.6516-20.655-19.134-20.655-10.363 0-19.015 7.8197-19.015 20.655 0 12.716 8.6516 20.75 19.015 20.75 10.482 0 19.134-8.0336 19.134-20.75m55.927-23.817c0 3.8504-1.6162 4.6586-5.6092 4.6586-8.0336 0-14.808 3.7316-19.015 12.479v31.636c0 2.3293-1.2835 3.6127-5.134 3.6127-1.64 0-3.5177-0.23769-4.4447-0.4516v-56.141c0.92696-0.23769 2.781-0.4516 4.4447-0.4516 3.8266 0 5.134 1.4023 5.134 3.6127v7.8197c5.4667-8.2951 13.762-12.479 24.149-11.076 0.11884 0.80812 0.47534 2.567 0.47534 4.302m41.95 49.129c-4.8963 2.3293-10.505 3.8504-16.092 3.8504-11.076 0-17.732-6.5363-17.732-17.375v-48.178c0-2.4482 1.4023-4.0881 5.134-4.0881 1.6162 0 3.494 0.33275 4.4447 0.5942v12.122h21.796c0.11885 0.80812 0.35653 2.4482 0.35653 3.8504 0 3.3751-1.4023 4.5397-3.494 4.5397h-18.659v30.471c0 6.5125 3.0187 9.674 9.1982 9.674 5.6093 0 8.7467-2.4482 11.432-2.4482 2.8047-0.02377 4.207 2.3056 3.6127 6.9878" fill="#fff"/>
</svg>
