<?xml version="1.0" encoding="UTF-8"?>
<svg width="800" height="147.38" version="1.1" xmlns="http://www.w3.org/2000/svg">
	<g>
		<path d="m790.18 0h-177.77c-5.4237 0-9.8158 4.392-9.8158 9.8158v127.75c0 5.4237 4.392 9.8158 9.8158 9.8158h177.77c5.4237 0 9.8158-4.392 9.8158-9.8158v-127.75c0.02948-5.4237-4.3626-9.8158-9.8158-9.8158m0 2.9477c3.8025 0 6.8681 3.0951 6.8681 6.8681v127.75a6.8563 6.8563 0 0 1-6.8681 6.8681h-177.77c-3.773 0-6.8681-3.0656-6.8681-6.8681v-127.75c0-3.773 3.0951-6.8681 6.8681-6.8681h177.77" fill="#cbcbcb"/>
		<path d="m790.18 2.9477c3.8025 0 6.8681 3.0951 6.8681 6.8681v127.75a6.8563 6.8563 0 0 1-6.8681 6.8681h-177.77c-3.773 0-6.8681-3.0656-6.8681-6.8681v-127.75c0-3.773 3.0951-6.8681 6.8681-6.8681h177.77" fill="#fff"/>
		<path d="m642.89 6.1312h134.83v135.09h-134.83z" fill="#fff"/>
		<path d="m664.73 125.75c0 2.1223-1.0022 3.2424-3.6551 3.2424h-6.1606v-11.909h5.9248c2.7708 0 3.7141 1.0906 3.7141 3.0951 0 1.5328-0.58953 2.2402-2.2108 2.6529l-0.29477 0.0884 0.2653 0.0589c1.8276 0.41268 2.4171 1.0906 2.4171 2.7708zm-7.0155-3.6846h2.5055c1.0022 0 1.4444-0.44215 1.4444-1.4444 0-1.0317-0.41268-1.5033-1.4444-1.5033h-2.476zm4.1268 3.3898c0-1.0906-0.44215-1.5623-1.4444-1.5623h-2.6529v3.0656h2.6529c1.0612 0 1.4444-0.44215 1.4444-1.5033zm4.8047-0.35372v-8.0472h2.9772v7.9292c0 1.297 0.58953 1.7981 2.2108 1.7981 1.5917 0 2.2108-0.50111 2.2108-1.7981v-7.9292h2.9772v8.0177c0 2.8003-1.6212 4.0678-5.1584 4.0678-3.5962 0.0295-5.1879-1.238-5.2174-4.0383zm24.259-8.0177v11.879h-3.6256l-5.07-8.6072v8.6072h-2.7708v-11.909h3.6256l5.0405 8.6072v-8.6072zm2.4466 0h5.3058c4.1562 0 5.2469 1.7096 5.2469 5.9248 0 4.1268-1.2085 5.9543-5.2469 5.9543h-5.3058zm5.2174 9.6389c1.7391 0 2.2992-0.91378 2.2992-3.6846 0-2.7708-0.56006-3.6551-2.2992-3.6551h-2.2402v7.3692zm7.5166-9.6389h8.3124v2.2697h-5.3648v2.5055h4.451v2.2402h-4.451v2.594h5.4827v2.2697h-8.4598v-11.879zm10.199 11.437v-2.3287c1.2675 0.44215 2.6234 0.64849 3.9794 0.64849s1.9749-0.35372 1.9749-1.297c0-0.79587-0.26529-1.0317-1.3559-1.2675l-1.9749-0.41267c-2.0634-0.44216-2.7413-1.2675-2.7413-3.3014 0-2.594 1.5328-3.7436 4.6278-3.7436 1.297 0 2.5645 0.20633 3.773 0.64848v2.3287c-1.1496-0.41267-2.3876-0.61901-3.6256-0.61901-1.4738 0-1.9749 0.3832-1.9749 1.297 0 0.76639 0.35372 1.0022 1.297 1.2085l1.916 0.41268c2.2402 0.47163 2.8592 1.238 2.8592 3.3604 0 2.535-1.5623 3.7141-4.7752 3.7141-1.3265 0-2.6824-0.20634-3.9794-0.64849zm10.818-11.437h2.9772v9.6094h5.0995v2.2697h-8.0766zm9.9337 0h2.9772v11.879h-2.9772zm15.269 5.011v6.4554c-1.3265 0.41268-2.7119 0.61902-4.1268 0.61902-4.1268 0-6.0722-1.8276-6.0722-6.1606s1.9455-6.1606 6.0722-6.1606c1.3265-0.0295 2.6529 0.20634 3.9204 0.67797v2.2992c-1.1791-0.41268-2.4171-0.61902-3.6846-0.61902-2.5055 0-3.2719 1.0022-3.2719 3.832 0 2.9477 0.82535 3.8909 3.1835 3.8909 0.53059 0 1.0317-0.0295 1.5623-0.11791v-2.6529h-2.2108v-2.0339zm9.6979 4.392h-4.6573l-0.82535 2.5055h-2.9477l4.2447-11.879h3.773l4.2152 11.879h-2.9772zm-2.3287-7.5461-1.7391 5.3648h3.4193z"/>
		<path d="m655.09 18.423h110.54v88.43h-110.54z" fill="#d20515"/>
		<path d="m746.23 64.996c0.059 0.20634-0.14738 0.3832-0.53058 0.64849l-0.23581 0.14738 0.0884 0.14738c0.0589 0.11791-0.0295 0.26529-0.20634 0.35372l-0.35372 0.17686c-0.17686 0.08843-0.35372 0.05895-0.41268-0.02948l-0.0884-0.14738-0.47163 0.23581 0.059 0.14738c0.0589 0.11791-0.059 0.26529-0.20634 0.32424l-0.35372 0.17686c-0.17686 0.08843-0.35372 0.05895-0.41268-0.05895l-0.0589-0.14738c-1.4149 0.67797-3.0066 1.3854-4.6278 2.1223l0.0884 0.20634c0.0589 0.11791-0.059 0.26529-0.20634 0.32424l-0.3832 0.17686c-0.17686 0.08843-0.35372 0.05895-0.3832-0.05895l-0.0884-0.20634-0.53058 0.26529 0.0884 0.20634c0.0589 0.11791-0.0589 0.26529-0.20634 0.32424l-0.35372 0.17686c-0.17686 0.08843-0.35372 0.05895-0.41267-0.05895l-0.0884-0.20634c-0.73692 0.29477-1.5623 0.44215-2.1518-0.67797-0.26529-0.50111-0.26529-1.6802-0.47163-2.2992-0.0884-0.20634-0.26529-0.35372-0.47163-0.3832-7.1923-1.3854-9.6389 0.14738-14.267-0.97273-1.4444-0.35372-2.2402-1.6802-4.0383-1.7097l-9.2852-0.20634-0.20634 0.73692-14.856-0.05895 2.2697 1.1201 0.73692 6.5438s-0.58953 0.17686-0.76639 0.20634c0.14738 1.297 0.29476 3.0656 0.35372 4.6573 0.0589 1.4444 0.14738 2.9182 0.1179 3.8615 0 0.61901-0.14738 1.238-0.44215 1.7686-0.29476 0.47163-0.64849 0.8843-1.1201 1.2085-0.14739 0.08843-0.70745 0.50111-1.3854 0.85483-0.64849 0.3832-1.4738 0.79587-1.857 1.0022 0.0589 0.17686 0.11791 0.35372 0.20634 0.5011-9.0199 4.3626-20.221 5.8659-23.847 12.793-0.44215 0.79587-1.8865 0.3832-1.9455-0.47163v-1.4149h-0.1179c-0.11791 0-0.20634-0.14738-0.20634-0.35372v-0.41268c0-0.17686 0.11791-0.32424 0.23581-0.32424h0.14739c0.0589-0.41268 0.1179-0.79587 0.23581-1.1791l-0.14738-0.05895c-0.11791-0.02948-0.14739-0.20634-0.0884-0.3832l0.14738-0.3832c0.0589-0.17686 0.20634-0.29477 0.32425-0.26529l0.14738 0.05895c0.64849-1.5033 1.8865-2.1813 2.476-3.5962l-0.0884-0.02948c-0.11791-0.02948-0.14739-0.20634-0.0884-0.3832l0.14738-0.3832c0.059-0.17686 0.20634-0.29477 0.32425-0.23581l0.0884 0.02948c0.0884-0.20634 0.17686-0.44215 0.29476-0.64849l-0.1179-0.08843c-0.11791-0.05895-0.11791-0.23581 0-0.41268l0.20634-0.35372c0.0884-0.14738 0.26529-0.23582 0.35372-0.17686l0.059 0.02948h0.0589c0.0295 0 0.0295 0 0.059-0.02948l0.17686-0.17686c0.56006-0.41268 1.3264-0.44215 1.916-0.02948 0.56006 0.35372 2.8003 1.6212 4.9226-0.32424 3.5372-3.154 7.6345-7.4576 10.73-7.605-0.85483-1.7981-2.2992-5.6006-2.476-7.0155l-1.0022-0.20634c-0.53058-1.1791-1.857-6.5438-2.2402-10.612 0 0-0.44215-4.3626 0-5.8954-0.23581-0.02948-0.67796 0.32424-0.79587 0.32424-0.56006-1.3854 1.2675-13.147 3.0951-16.566l2.8003-1.1201c-0.29477-0.02948-2.2992-0.11791-7.6345-0.56006-2.9772 2.6529-6.4259 5.4827-8.1651 7.0155-0.29477 0.20634-0.79587 1.8865-0.79587 1.8865s-0.85483 0.7664-1.6802 1.3265c-1.0612 0.7664-3.7141 1.3265-4.2741 0.44215-0.11791-0.20634-0.11791-0.32424 0-0.44215 0.41267-0.44215 1.9455-1.1496 2.476-2.1223-0.85483 0.44215-1.7686 0.85483-2.5055 0.79587-0.32424 0-0.47163-0.79587-0.0589-0.94326 1.1201-0.47163 2.0044-0.67797 2.6529-1.5917s1.4149-1.4738 2.4171-1.5033c0 0 4.9521-6.4554 7.8408-9.521 0.79587-0.85483 2.2992-0.56006 2.2992-0.56006l0.26529-0.97273s9.9632-1.1791 14.62 0.35372c-0.1179-2.8298 1.1496-6.5733 5.5711-6.5733 2.2697 0 5.6006 2.0044 6.0722 4.451 0.14739 0.73692-0.29477 1.238-0.53058 2.2108-0.3832 1.4444 0.14738 3.0361 0 3.5372-0.11791 0.41268-0.58954 0.3832-1.0022 0.94326-0.35372 0.56006-0.64849 1.1201-0.91378 1.7391l-0.58954 1.3559-3.1245-0.23581c-1.1496 2.4466-3.4783 7.4576-4.3036 12.41 2.4466 0.20634 13.53 1.7981 13.53 1.7981l0.26529 0.91378s4.6573 0.56006 8.4893 2.3876c0.85483 0.20634 3.0066-0.11791 4.4215 0.53058 0.0884-0.05895 0.32424-0.29477 0.44215-0.35372 4.9816 1.5328 9.1083 4.1562 13.884 5.3058l3.0066 0.70744c1.2675 0.23581 2.5645 0.41267 3.8614 0.5011 1.5328 0.11791 2.3876 0.08843 3.5077 0.17686 0.79587 0.05895 1.7686-0.08843 2.0928 1.0906m7.1334-15.151c-3.3898 0-6.1606 2.7413-6.1606 6.1312s2.7413 6.1606 6.1312 6.1606 6.1606-2.7413 6.1606-6.1312c0-3.4193-2.7708-6.1606-6.1312-6.1606z" fill="#fff"/>
	</g>
	<linearGradient id="A" x1="1456.7" x2="1456.7" y2="500" gradientTransform="scale(.29477)" gradientUnits="userSpaceOnUse">
		<stop stop-color="red" offset=".4"/>
		<stop stop-color="#d42321" offset="1"/>
	</linearGradient>
	<path d="m245.28 0h368.22c5.4237 0 9.8158 4.392 9.8158 9.8158v127.75c0 5.4237-4.392 9.8158-9.8158 9.8158h-368.22c-5.4237 0-9.8158-4.392-9.8158-9.8158v-127.75c0-5.4237 4.392-9.8158 9.8158-9.8158z" fill="url(#A)"/>
	<linearGradient id="B" x1="1459.5" x2="1450.8" y1="233.73" y2="-15.325" gradientTransform="scale(.29477)" gradientUnits="userSpaceOnUse">
		<stop stop-color="#fff" offset="0"/>
		<stop stop-color="#fff" stop-opacity=".835" offset=".12"/>
		<stop stop-color="#fff" stop-opacity=".658" offset=".269"/>
		<stop stop-color="#fff" stop-opacity=".511" offset=".42"/>
		<stop stop-color="#fff" stop-opacity=".397" offset=".568"/>
		<stop stop-color="#fff" stop-opacity=".315" offset=".716"/>
		<stop stop-color="#fff" stop-opacity=".266" offset=".86"/>
		<stop stop-color="#fff" stop-opacity=".25" offset="1"/>
	</linearGradient>
	<path d="m242.53 73.102 0.94326-0.05895 372.5-12.999c4.0973-0.02948 7.3692-3.3898 7.3397-7.4576v-42.771c0-5.4237-4.392-9.8158-9.8158-9.8158h-368.22c-5.4237 0-9.8158 4.392-9.8158 9.8158v70.951c-0.11791-4.0383 3.0361-7.4576 7.0744-7.664z" fill="url(#B)" opacity=".4"/>
	<linearGradient id="C" x1="361.92" x2="361.92" y1="28.806" y2="471.22" gradientTransform="scale(.29477)" gradientUnits="userSpaceOnUse">
		<stop stop-color="#cbcbcb" offset="0"/>
		<stop stop-color="#d4d4d4" offset=".8"/>
	</linearGradient>
	<path d="m147.27 136.8c3.0951 1.3559 6.4259 2.0928 9.7863 2.0928 7.6934 0.17687 11.909-2.7708 15.004-9.6684l41.297-91.938c-2.6824-1.2085-5.6006-1.8865-8.5483-1.9749-5.3353-0.11791-12.469 0.97273-16.979 11.82l-13.353 31.481-26.234-42.623c-2.8887-0.7664-5.8659-1.1791-8.843-1.238-9.2852 0-14.444 3.3898-19.808 9.2262l-25.497 27.826 20.486 32.248c3.8025 5.8659 8.7841 8.8725 16.89 8.8725 4.0383 0.0589 8.0472-0.67797 11.791-2.2108l-24.702-37.141 17.509-18.541 28.71 45.011zm-54.149-34.753c0 6.7797-2.6529 10.671-15.917 10.671-1.5917 0-3.1835-0.1179-4.7458-0.32424v-89.934c0-6.8386 2.3287-13.972 15.682-13.972 1.6802 0 3.3604 0.17686 4.9816 0.50111zm-27.354-13.589c0 12.675-8.283 21.872-25.085 23.699-12.174 1.297-29.801-0.23581-38.172-1.1791-0.29477-1.4444-0.47163-2.9182-0.50111-4.4215 0-11.024 5.9543-13.559 11.555-13.559 5.8364 0 15.004 1.0317 21.813 1.0317 7.5166 0 9.7863-2.535 9.7863-4.9816 0-3.154-3.0066-4.4805-8.843-5.6006l-15.976-3.0656c-13.265-2.535-20.339-11.702-20.339-21.43 0-11.82 8.3714-21.695 24.849-23.522 12.469-1.3559 27.649 0.17686 35.962 1.1791 0.29477 1.3854 0.44215 2.8003 0.44215 4.2447 0 11.024-5.8364 13.412-11.437 13.412-4.3036 0-10.995-0.79587-18.629-0.79587-7.7524 0-10.995 2.1518-10.995 4.7458 0 2.7708 3.0656 3.8909 7.9293 4.7458l15.239 2.8298c15.652 2.8592 22.402 11.761 22.402 22.668z" fill="url(#C)"/>
	<linearGradient id="D" x1="365.45" x2="359.6" y1="263.25" y2="95.751" gradientTransform="scale(.29477)" gradientUnits="userSpaceOnUse">
		<stop stop-color="#fff" offset="0"/>
		<stop stop-color="#fff" stop-opacity=".835" offset=".12"/>
		<stop stop-color="#fff" stop-opacity=".658" offset=".269"/>
		<stop stop-color="#fff" stop-opacity=".511" offset=".42"/>
		<stop stop-color="#fff" stop-opacity=".397" offset=".568"/>
		<stop stop-color="#fff" stop-opacity=".315" offset=".716"/>
		<stop stop-color="#fff" stop-opacity=".266" offset=".86"/>
		<stop stop-color="#fff" stop-opacity=".25" offset="1"/>
	</linearGradient>
	<g>
		<path d="m213.38 37.288-15.122 33.662c-1.1791 2.4171-3.6256 3.9499-6.308 3.9499l-13.795 0.47163c-1.5033 0.08843-2.8298 1.0906-3.3604 2.5055v-0.02948l13.029-30.715c4.5394-10.847 11.673-11.938 16.979-11.82 2.9772 0.08843 5.8659 0.7664 8.5777 1.9749zm-39.617 40.236-25.527-41.503c-2.8887-0.7664-5.8659-1.1791-8.843-1.238-9.2852 0-14.444 3.3898-19.808 9.2262l-25.497 27.826 2.0339 3.213c1.3265 2.0044 3.6256 3.154 6.0427 3.0361l14.532-0.5011a7.2719 7.2719 0 0 1 6.4259 2.8887l-4.5689-6.8681 17.509-18.541 11.761 18.423c1.4444 1.8276 3.6846 2.8592 6.0133 2.8003l16.713-0.58954c1.297 0 2.535 0.70744 3.213 1.8276zm-85.63-69.005c-13.353 0-15.682 7.1334-15.682 13.972v61.606c0-2.8298 2.2697-5.129 5.0995-5.2174l10.346-0.35372c2.8887 0 5.2469-2.3581 5.2469-5.2469v-64.259c-1.6802-0.35372-3.3309-0.53058-5.0111-0.50111zm-44.746 57.244-15.239-2.8298c-4.8637-0.85483-7.9293-1.9749-7.9293-4.7458 0-2.594 3.2424-4.7458 10.995-4.7458 7.6345 0 14.326 0.79587 18.629 0.79587 5.6006 0 11.437-2.3876 11.437-13.412 0-1.4149-0.14738-2.8592-0.44215-4.2447-8.3125-1.0317-23.493-2.535-35.962-1.1791-16.507 1.8276-24.878 11.732-24.878 23.522 0.029477 6.308 3.0066 12.262 8.0472 16.065 3.7141 2.2992 7.8998 3.8025 12.233 4.3626 5.6595 0.7664 11.349 1.0612 17.038 0.8843l18.187-0.64849c6.8091-0.23581 10.523 5.5711 10.14 11.408 0-0.08843 0-0.14738 0.02948-0.23581v-0.05895c0.05895-0.7664 0.08843-1.5328 0.08843-2.2992 0-10.847-6.7502-19.749-22.373-22.638z" fill="url(#D)" opacity=".25"/>
		<path d="m263.64 105.91c-0.8843-6.0722 1.0022-9.2557 4.4805-9.2557 3.3014 0 11.408 3.6256 22.697 3.6256 11.879 0 16.36-4.2152 16.36-9.6979 0-3.8909-1.7391-7.3692-12.439-10.287l-12.292-3.3014c-13.589-3.6256-18.954-10.435-18.954-18.836 0-10.405 8.2535-19.69 26.912-19.69 8.4009 0 18.836 1.8865 25.173 4.3626 1.1496 5.9248-0.73692 9.1083-4.3331 9.1083-3.1835 0-10.405-3.0361-20.693-3.0361-10.995 0-15.063 3.7436-15.063 8.6662 0 3.4488 1.5918 6.6618 11.437 9.4031l12.587 3.4783c14.06 3.8909 19.69 10.405 19.69 19.661 0 10.877-8.4009 20.545-28.651 20.545-8.961 0.0295-20.133-2.1518-26.912-4.7458m138.89-31.393c0 22.697-15.917 36.168-33.427 36.168-10.405 0-18.954-4.9226-24.024-11.85v29.241c0 2.7413-1.5917 4.4805-6.2196 4.4805-2.3287 0-4.4805-0.29477-5.6301-0.56006v-92.203c1.1496-0.29477 3.3014-0.58954 5.6301-0.58954 4.6279 0 6.2196 1.7391 6.2196 4.4805v6.6323c5.07-6.927 13.618-11.85 24.024-11.85 17.509 0 33.427 13.471 33.427 36.05m-11.997 0c0-15.181-10.111-25.615-23.729-25.615-9.2557 0-17.804 5.3648-21.695 13.176v25.026c3.8909 7.8113 12.439 13.176 21.695 13.176 13.589-0.0295 23.729-10.435 23.729-25.763m23.11 0c0-20.693 15.181-36.021 35.578-36.021 20.545 0 35.726 15.328 35.726 36.021 0 20.545-15.181 36.168-35.726 36.168-20.398-0.0295-35.578-15.652-35.578-36.168m59.307 0c0-15.917-10.73-25.615-23.729-25.615-12.852 0-23.581 9.6979-23.581 25.615 0 15.77 10.73 25.733 23.581 25.733 12.999 0 23.729-9.9631 23.729-25.733m69.359-29.536c0 4.7752-2.0044 5.7774-6.9565 5.7774-9.9632 0-18.364 4.6279-23.581 15.475v39.234c0 2.8887-1.5917 4.4805-6.367 4.4805-2.0339 0-4.3626-0.29477-5.5122-0.56006v-69.624c1.1496-0.29477 3.4488-0.56006 5.5122-0.56006 4.7458 0 6.367 1.7391 6.367 4.4805v9.6979c6.7797-10.287 17.067-15.475 29.948-13.736 0.14739 1.0022 0.58954 3.1835 0.58954 5.3353m52.027 60.929c-6.0722 2.8887-13.029 4.7752-19.956 4.7752-13.736 0-21.99-8.1061-21.99-21.548v-59.749c0-3.0361 1.7391-5.07 6.367-5.07 2.0044 0 4.3331 0.41268 5.5122 0.73692v15.033h27.03c0.14738 1.0022 0.44215 3.0361 0.44215 4.7752 0 4.1857-1.7391 5.6301-4.3331 5.6301h-23.139v37.789c0 8.0766 3.7436 11.997 11.408 11.997 6.9565 0 10.847-3.0361 14.178-3.0361 3.4783-0.02948 5.2174 2.8592 4.4805 8.6662" fill="#fff"/>
		<path d="m717.07 99.674q-1.7627 0-3.1186-0.59661-1.3288-0.59661-2.2508-1.6271-0.92204-1.0576-1.4102-2.4407-0.46102-1.383-0.46102-2.983v-9.1119q0-0.54237 0.32542-0.89492 0.35255-0.37966 1.2203-0.37966 0.4339 0 0.84068 0.05424 0.4339 0.02712 0.65085 0.08136v10.332q0 2.1966 1.0847 3.5254 1.1119 1.3017 3.1458 1.3017 1.9525 0 3.0915-1.3017 1.1661-1.3288 1.1661-3.5254v-9.1932q0-0.54237 0.32543-0.89492 0.35254-0.37966 1.2203-0.37966 0.4339 0 0.84068 0.05424 0.40678 0.02712 0.62373 0.08136v10.251q0 1.6-0.48813 2.983-0.48814 1.3831-1.4102 2.4407-0.92204 1.0305-2.3051 1.6271-1.3559 0.59661-3.0915 0.59661zm12.149-0.18983q-0.4339 0-0.8678-0.05424-0.40678-0.02712-0.62373-0.08136v-16.434q0-0.54237 0.32543-0.89492 0.35254-0.37966 1.2203-0.37966 0.4339 0 0.84068 0.05424 0.4339 0.02712 0.65085 0.08136v7.4034h8.2441v-6.2644q0-0.54237 0.32542-0.89492 0.35254-0.37966 1.2203-0.37966 0.4339 0 0.86779 0.05424 0.4339 0.02712 0.65085 0.08136v16.434q0 0.54237-0.35254 0.92203-0.32542 0.35254-1.1932 0.35254-0.4339 0-0.8678-0.05424-0.43389-0.02712-0.65084-0.08136v-7.539h-8.2441v6.4q0 0.54237-0.35254 0.92203-0.32543 0.35254-1.1932 0.35254zm17.898-0.16271q-1.0034 0-1.3017-0.37966-0.27118-0.40678-0.27118-1.0305v-14.807q0-0.62373 0.27118-1.0034 0.29831-0.40678 1.3017-0.40678h3.7152q2.1966 0 3.9593 0.62373 1.7627 0.59661 2.983 1.7356 1.2475 1.139 1.8983 2.739 0.67796 1.6 0.67796 3.5797 0 1.8712-0.65084 3.4983-0.65085 1.6271-1.8983 2.8475-1.2474 1.1932-3.0373 1.8983-1.7627 0.70508-4.0136 0.70508zm1.4644-2.7661h2.4136q1.2746 0 2.3864-0.37966 1.139-0.40678 1.9797-1.1661 0.84067-0.78644 1.3288-1.9525 0.48813-1.1661 0.48813-2.739 0-1.4102-0.48813-2.4949-0.48814-1.1119-1.3288-1.8441-0.84068-0.75932-1.9797-1.139-1.139-0.37966-2.4407-0.37966h-2.3593z"/>
	</g>
</svg>
