<?xml version="1.0" encoding="UTF-8"?>
<svg width="800" height="153.69" version="1.1" xmlns="http://www.w3.org/2000/svg">
	<defs>
		<linearGradient id="A" x1="1456.7" x2="1456.7" y2="500" gradientTransform="matrix(.30738 0 0 .30738 -.0035643 0)" gradientUnits="userSpaceOnUse">
			<stop stop-color="red" offset=".4"/>
			<stop stop-color="#d42321" offset="1"/>
		</linearGradient>
		<linearGradient id="B" x1="1459.5" x2="1450.8" y1="233.73" y2="-15.325" gradientTransform="matrix(.30738 0 0 .30738 -.0035643 0)" gradientUnits="userSpaceOnUse">
			<stop stop-color="#fff" offset="0"/>
			<stop stop-color="#fff" stop-opacity=".835" offset=".12"/>
			<stop stop-color="#fff" stop-opacity=".658" offset=".269"/>
			<stop stop-color="#fff" stop-opacity=".511" offset=".42"/>
			<stop stop-color="#fff" stop-opacity=".397" offset=".568"/>
			<stop stop-color="#fff" stop-opacity=".315" offset=".716"/>
			<stop stop-color="#fff" stop-opacity=".266" offset=".86"/>
			<stop stop-color="#fff" stop-opacity=".25" offset="1"/>
		</linearGradient>
		<linearGradient id="C" x1="361.92" x2="361.92" y1="28.806" y2="471.22" gradientTransform="matrix(.30738 0 0 .30738 -.0035643 0)" gradientUnits="userSpaceOnUse">
			<stop stop-color="#cbcbcb" offset="0"/>
			<stop stop-color="#d4d4d4" offset=".8"/>
		</linearGradient>
		<linearGradient id="D" x1="365.45" x2="359.6" y1="263.25" y2="95.751" gradientTransform="matrix(.30738 0 0 .30738 -.0035643 0)" gradientUnits="userSpaceOnUse">
			<stop stop-color="#fff" offset="0"/>
			<stop stop-color="#fff" stop-opacity=".835" offset=".12"/>
			<stop stop-color="#fff" stop-opacity=".658" offset=".269"/>
			<stop stop-color="#fff" stop-opacity=".511" offset=".42"/>
			<stop stop-color="#fff" stop-opacity=".397" offset=".568"/>
			<stop stop-color="#fff" stop-opacity=".315" offset=".716"/>
			<stop stop-color="#fff" stop-opacity=".266" offset=".86"/>
			<stop stop-color="#fff" stop-opacity=".25" offset="1"/>
		</linearGradient>
	</defs>
	<g>
		<path d="m789.76 0h-150.03v153.69h150.03c5.6557 0 10.236-4.5799 10.236-10.236v-133.22c0.03074-5.6557-4.5491-10.236-10.236-10.236" fill="#cbcbcb"/>
		<path d="m789.76 3.0738c3.9651 0 7.1618 3.2274 7.1618 7.1618v133.22c7e-3 3.9582-3.2036 7.1686-7.1618 7.1618h-150.03v-147.54h150.03" fill="#fff"/>
		<path d="m255.77 0h383.97c5.6557 0 10.236 4.5799 10.236 10.236v133.22c0 5.6557-4.5799 10.236-10.236 10.236h-383.97c-5.6557 0-10.236-4.5799-10.236-10.236v-133.22c0-5.6557 4.5799-10.236 10.236-10.236z" fill="url(#A)"/>
		<path d="m252.9 76.229 0.98354-0.06147 388.43-13.555c4.2725-0.03074 7.6843-3.5348 7.6535-7.7766v-44.599c0-5.6557-4.5798-10.236-10.236-10.236h-383.97c-5.6557 0-10.236 4.5799-10.236 10.236v73.985c-0.12295-4.211 3.166-7.7766 7.377-7.9917z" fill="url(#B)" opacity=".4"/>
		<path d="m153.56 142.65c3.2274 1.4139 6.7008 2.1823 10.205 2.1823 8.0225 0.18444 12.418-2.8893 15.646-10.082l43.063-95.869c-2.7971-1.2602-5.84-1.9672-8.9138-2.0594-5.5634-0.12295-13.002 1.0143-17.704 12.326l-13.924 32.828-27.356-44.446c-3.0123-0.79917-6.1167-1.2295-9.2211-1.291-9.6822 0-15.061 3.5348-20.655 9.6207l-26.588 29.016 21.362 33.626c3.9652 6.1167 9.1597 9.2519 17.612 9.2519 4.211 0.0615 8.3913-0.70695 12.295-2.3053l-25.758-38.729 18.258-19.334 29.938 46.936zm-56.464-36.239c0 7.0696-2.7664 11.126-16.598 11.126-1.6598 0-3.3197-0.12294-4.9487-0.3381v-93.78c0-7.131 2.4282-14.57 16.352-14.57 1.7521 0 3.504 0.18442 5.1946 0.52253zm-28.524-14.17c0 13.217-8.6372 22.808-26.158 24.713-12.695 1.3525-31.076-0.2459-39.805-1.2295-0.30738-1.5062-0.49179-3.043-0.52253-4.6106 0-11.496 6.209-14.139 12.049-14.139 6.0859 0 15.646 1.0758 22.746 1.0758 7.838 0 10.205-2.6434 10.205-5.1946 0-3.2889-3.1352-4.672-9.2211-5.8401l-16.659-3.1967c-13.831-2.6434-21.209-12.203-21.209-22.346 0-12.326 8.7294-22.623 25.912-24.528 13.002-1.4139 28.832 0.18442 37.499 1.2295 0.30737 1.4447 0.46106 2.9201 0.46106 4.4262 0 11.496-6.0859 13.986-11.926 13.986-4.4877 0-11.465-0.82991-19.426-0.82991-8.0839 0-11.465 2.2438-11.465 4.9487 0 2.8893 3.1967 4.0573 8.2684 4.9487l15.891 2.9507c16.321 2.9815 23.36 12.264 23.36 23.637z" fill="url(#C)"/>
		<path d="m222.51 38.883-15.768 35.102c-1.2295 2.5205-3.7807 4.1187-6.5778 4.1187l-14.385 0.4918c-1.5676 0.09221-2.9508 1.1373-3.504 2.6127v-0.03074l13.586-32.029c4.7336-11.311 12.172-12.449 17.704-12.326 3.1044 0.09221 6.1167 0.79916 8.9446 2.0594zm-41.311 41.956-26.619-43.278c-3.0122-0.79917-6.1167-1.2295-9.2211-1.291-9.6822 0-15.061 3.5348-20.655 9.6207l-26.588 29.016 2.1209 3.3503c1.3831 2.0901 3.7807 3.2889 6.3012 3.166l15.154-0.52253a7.5829 7.5829 0 0 1 6.7008 3.0123l-4.7643-7.1618 18.258-19.334 12.264 19.211c1.5062 1.9057 3.8422 2.9815 6.2704 2.9201l17.428-0.61475c1.3525 0 2.6434 0.73769 3.3503 1.9057zm-89.292-71.956c-13.924 0-16.352 7.4384-16.352 14.57v64.241c0-2.9507 2.3668-5.3483 5.3175-5.4405l10.789-0.36885c3.0123 0 5.4712-2.459 5.4712-5.4712v-67.008c-1.7521-0.36885-3.4733-0.55327-5.2253-0.52253zm-46.659 59.691-15.891-2.9507c-5.0716-0.89138-8.2684-2.0594-8.2684-4.9487 0-2.7049 3.3811-4.9487 11.465-4.9487 7.9609 0 14.939 0.8299 19.426 0.8299 5.8401 0 11.926-2.4897 11.926-13.986 0-1.4754-0.15368-2.9815-0.46106-4.4262-8.6679-1.0758-24.498-2.6434-37.499-1.2295-17.213 1.9057-25.942 12.234-25.942 24.528 0.030738 6.5778 3.1352 12.786 8.3913 16.752 3.8729 2.3975 8.2376 3.9651 12.756 4.5491 5.9016 0.79917 11.833 1.1066 17.766 0.92211l18.965-0.67622c7.1003-0.2459 10.973 5.8094 10.574 11.895 0-0.0922 0-0.15368 0.03074-0.24589v-0.06148c0.06148-0.79916 0.09221-1.5984 0.09221-2.3975 0-11.311-7.0388-20.594-23.33-23.606z" fill="url(#D)" opacity=".25"/>
		<path d="m274.91 110.44c-0.92212-6.3319 1.0451-9.6515 4.672-9.6515 3.4426 0 11.895 3.7807 23.668 3.7807 12.387 0 17.059-4.3954 17.059-10.113 0-4.0573-1.8135-7.6843-12.971-10.727l-12.818-3.4426c-14.17-3.7807-19.764-10.881-19.764-19.641 0-10.85 8.6064-20.532 28.063-20.532 8.7601 0 19.641 1.9672 26.25 4.5491 1.1987 6.1782-0.76843 9.4978-4.5183 9.4978-3.3197 0-10.85-3.166-21.578-3.166-11.465 0-15.706 3.9036-15.706 9.0368 0 3.5963 1.6598 6.9466 11.926 9.8052l13.124 3.627c14.661 4.0573 20.532 10.85 20.532 20.502 0 11.342-8.7601 21.424-29.876 21.424-9.3442 0.0308-20.993-2.2438-28.063-4.9487m144.84-32.735c0 23.668-16.598 37.715-34.856 37.715-10.85 0-19.764-5.1332-25.051-12.357v30.492c0 2.8586-1.6598 4.672-6.4855 4.672-2.4283 0-4.672-0.30738-5.8709-0.58402v-96.146c1.1988-0.30737 3.4426-0.61475 5.8709-0.61475 4.8257 0 6.4855 1.8135 6.4855 4.672v6.9159c5.2868-7.2233 14.2-12.357 25.051-12.357 18.258 0 34.856 14.047 34.856 37.592m-12.51 0c0-15.829-10.542-26.711-24.744-26.711-9.6515 0-18.566 5.5942-22.623 13.74v26.096c4.0573 8.1454 12.971 13.74 22.623 13.74 14.17-0.0308 24.744-10.881 24.744-26.864m24.098 0c0-21.577 15.829-37.561 37.1-37.561 21.424 0 37.254 15.984 37.254 37.561 0 21.424-15.829 37.715-37.254 37.715-21.27-0.0308-37.1-16.321-37.1-37.715m61.844 0c0-16.598-11.188-26.711-24.744-26.711-13.402 0-24.59 10.113-24.59 26.711 0 16.445 11.188 26.834 24.59 26.834 13.555 0 24.744-10.389 24.744-26.834m72.325-30.798c0 4.9794-2.0901 6.0245-7.254 6.0245-10.389 0-19.149 4.8257-24.59 16.137v40.911c0 3.0123-1.6598 4.672-6.6392 4.672-2.1209 0-4.5491-0.30737-5.7479-0.58401v-72.602c1.1988-0.30737 3.5962-0.584 5.7479-0.584 4.9487 0 6.6392 1.8135 6.6392 4.672v10.113c7.0696-10.727 17.797-16.137 31.229-14.324 0.15367 1.0451 0.61472 3.3197 0.61472 5.5635m54.251 63.534c-6.3319 3.0123-13.586 4.9794-20.81 4.9794-14.324 0-22.93-8.4527-22.93-22.469v-62.305c0-3.166 1.8135-5.2869 6.6392-5.2869 2.0901 0 4.5183 0.43032 5.7479 0.76843v15.676h28.186c0.15368 1.0451 0.46103 3.166 0.46103 4.9794 0 4.3647-1.8135 5.8708-4.5183 5.8708h-24.129v39.405c0 8.4221 3.9036 12.51 11.895 12.51 7.254 0 11.311-3.166 14.784-3.166 3.627-0.0308 5.4405 2.9815 4.672 9.0368" fill="#fff"/>
		<path d="m697.59 114.94q-0.23193-0.92772-0.34789-2.2033-0.11597-1.3916-0.11597-2.8991 0-1.9714 0.81176-4.6386 0.81176-2.6672 2.7832-4.2907l20.874-18.786q3.363-2.8991 5.9142-5.3344 2.5512-2.4353 4.2907-4.7546 1.7395-2.3193 2.6672-4.6386t0.92772-4.9865q0-5.5663-3.363-8.8134-3.363-3.363-10.321-3.363-3.479 0-6.2621 0.92772-2.6672 0.92772-4.8705 2.0874-2.0874 1.1597-3.8268 2.0874-1.7395 0.92772-3.247 0.92772-2.5512 0-4.1747-2.3193-1.5075-2.4353-1.7395-6.61 4.0588-3.247 10.321-5.9142 6.3781-2.6672 14.38-2.6672 12.524 0 19.366 6.3781 6.8419 6.3781 6.8419 16.815 0 4.0588-1.2756 7.5377-1.1596 3.479-3.363 6.61-2.2033 3.1311-5.1025 5.9142-2.8991 2.7832-6.3781 5.4504l-18.091 15.655h34.906q0.57983 2.0874 0.57983 5.5663 0 3.5949-1.5076 4.9865-1.3916 1.2756-3.5949 1.2756z" fill="#002a91"/>
	</g>
</svg>
