<?xml version="1.0" encoding="UTF-8"?>
<svg width="800" height="193.44" xmlns="http://www.w3.org/2000/svg">
  <path d="M328.71 142c-1.212 0-2.254.438-3.127 1.31-.873.873-1.31 1.94-1.31 3.202 0 1.212.437 2.254 1.31 3.127.873.873 1.915 1.308 3.127 1.308 1.26 0 2.328-.435 3.201-1.308.873-.873 1.309-1.915 1.309-3.127 0-1.261-.436-2.329-1.309-3.201-.873-.873-1.94-1.311-3.201-1.311zm141.33.006c-1.212 0-2.256.436-3.129 1.309-.873.872-1.309 1.94-1.309 3.2 0 1.213.436 2.255 1.31 3.128s1.916 1.31 3.128 1.31c1.26 0 2.328-.437 3.201-1.31s1.309-1.915 1.309-3.127c0-1.261-.436-2.328-1.309-3.201-.873-.873-1.94-1.309-3.201-1.309zm-26.703 6.04c-1.018 0-1.842.12-2.473.362-.582.243-1.043.583-1.382 1.02a4.95 4.95 0 0 0-.655 1.455 9.326 9.326 0 0 0-.144 1.672v5.02h-3.13c-.775 0-1.43.243-1.964.728-.485.485-.726 1.332-.726 2.545 0 .533.023 1.066.072 1.6.048.533.122.97.219 1.31h5.529v17.24c0 1.794.265 3.442.799 4.945a11.558 11.558 0 0 0 2.328 3.856c1.018 1.067 2.254 1.916 3.709 2.547 1.503.582 3.2.873 5.092.873h.002c2.085 0 3.903-.244 5.455-.729a20.82 20.82 0 0 0 4.51-1.963 3.71 3.71 0 0 0 .072-.728V189c0-1.358-.266-2.352-.799-2.982-.533-.63-1.262-.948-2.184-.948-.388 0-.8.074-1.236.22-.388.145-.824.315-1.309.509a9.383 9.383 0 0 1-1.527.508 8.119 8.119 0 0 1-1.965.218c-1.697 0-2.982-.509-3.855-1.527-.873-1.018-1.309-2.448-1.309-4.29v-16.95h9.602c.776 0 1.406-.243 1.89-.728.534-.485.801-1.333.801-2.545 0-1.213-.12-2.183-.363-2.91h-11.93v-9.02c-.921-.34-1.965-.51-3.129-.51zm-139.07 8.866c-2.473 0-4.703.559-6.691 1.674-1.94 1.067-3.517 2.45-4.729 4.147l-.072-1.02c0-1.358-.34-2.423-1.02-3.2-.63-.823-1.696-1.235-3.199-1.235-.679 0-1.31.07-1.892.216-.534.097-1.067.218-1.6.364v34.916c.388.097.944.17 1.672.218.776.097 1.528.147 2.256.147v-.002c1.551 0 2.593-.315 3.127-.945.582-.63.873-1.43.873-2.4v-21.313c.824-1.455 2.012-2.62 3.564-3.492 1.6-.873 3.177-1.309 4.729-1.309 2.473 0 4.388.727 5.746 2.182 1.358 1.455 2.037 3.734 2.037 6.838v20.076c.388.097.946.17 1.674.219a18.17 18.17 0 0 0 2.254.146c1.551 0 2.595-.315 3.128-.945.582-.63.873-1.433.873-2.402v-17.967c0-4.802-1.14-8.487-3.42-11.057-2.279-2.57-5.382-3.856-9.31-3.856zm54.41 0c-2.037 0-3.928.559-5.674 1.674-1.745 1.067-3.128 2.4-4.146 4l-.073-.873c0-1.358-.34-2.423-1.02-3.2-.63-.824-1.695-1.235-3.198-1.235-.68 0-1.31.07-1.893.216-.533.097-1.066.218-1.6.364v34.916c.388.097.947.17 1.674.218a18.17 18.17 0 0 0 2.254.147v-.002c1.552 0 2.596-.315 3.13-.945.581-.63.872-1.431.872-2.4V168.26c.63-1.212 1.551-2.256 2.764-3.129a6.98 6.98 0 0 1 4.219-1.38c2.036 0 3.587.63 4.654 1.89 1.115 1.212 1.674 3.007 1.674 5.383v21.75c.388.097.946.17 1.674.219.775.097 1.526.144 2.253.144 1.552 0 2.596-.315 3.13-.945.581-.63.872-1.43.872-2.4v-21.46c.63-1.26 1.552-2.328 2.764-3.2 1.212-.922 2.692-1.382 4.438-1.382 1.842 0 3.322.606 4.437 1.819 1.115 1.164 1.672 2.982 1.672 5.455v21.75c.388.097.946.17 1.674.218.776.097 1.526.145 2.254.145 1.551 0 2.595-.315 3.129-.945.582-.63.873-1.43.873-2.4v-19.567c0-4.122-.947-7.372-2.838-9.748-1.843-2.376-4.679-3.564-8.51-3.564-2.328 0-4.413.606-6.256 1.818-1.794 1.164-3.394 2.91-4.8 5.238-.825-2.327-2.184-4.074-4.075-5.238-1.843-1.212-3.952-1.818-6.328-1.818zm183.09 0c-2.473 0-4.703.559-6.691 1.674-1.94 1.067-3.517 2.45-4.729 4.147l-.072-1.02c0-1.358-.34-2.423-1.02-3.2-.63-.823-1.696-1.235-3.199-1.235-.679 0-1.31.07-1.893.216-.533.097-1.066.218-1.6.364v34.916c.389.097.945.17 1.673.218.776.097 1.528.147 2.256.147v-.002c1.551 0 2.593-.315 3.127-.945.582-.63.873-1.43.873-2.4v-21.313c.824-1.455 2.012-2.62 3.564-3.492 1.6-.873 3.177-1.309 4.729-1.309 2.473 0 4.388.727 5.746 2.182 1.358 1.455 2.037 3.734 2.037 6.838v20.076c.388.097.946.17 1.674.219a18.17 18.17 0 0 0 2.254.146c1.551 0 2.595-.315 3.128-.945.582-.63.874-1.433.874-2.402v-17.967c0-4.802-1.141-8.487-3.42-11.057-2.28-2.57-5.383-3.856-9.311-3.856zm-279.4.006c-2.91 0-5.551.242-7.928.727-2.376.436-4.364.922-5.964 1.455a3.691 3.691 0 0 0-.073.727v.656c0 1.26.242 2.326.727 3.199.485.873 1.237 1.31 2.256 1.31.582 0 1.188-.073 1.818-.218.679-.194 1.43-.388 2.254-.582a22.034 22.034 0 0 1 2.91-.582c1.067-.194 2.303-.291 3.71-.291 2.763 0 4.68.509 5.747 1.527 1.067.97 1.6 2.643 1.6 5.02v1.818c-3.2-.582-6.062-.873-8.584-.873-2.667 0-4.97.291-6.91.873-1.892.582-3.468 1.406-4.729 2.473a9.637 9.637 0 0 0-2.836 3.71c-.582 1.455-.873 3.056-.873 4.801 0 1.455.242 2.838.727 4.147a10.445 10.445 0 0 0 2.256 3.346c1.018.97 2.254 1.746 3.709 2.328 1.503.533 3.2.798 5.091.798v.002c1.65 0 3.105-.194 4.366-.582 1.309-.339 2.473-.824 3.492-1.455 1.018-.63 1.89-1.359 2.617-2.183a20.668 20.668 0 0 0 2.037-2.692h.072c.049.922.122 1.795.22 2.62.145.824.388 1.55.728 2.181.34.582.799 1.067 1.38 1.455.631.34 1.431.51 2.401.51.873 0 1.625-.073 2.256-.219.679-.145 1.235-.314 1.672-.508a38.446 38.446 0 0 1-.8-3.2 66.852 66.852 0 0 1-.509-3.056 61.667 61.667 0 0 1-.219-3.273v-11.566c0-2.328-.241-4.365-.726-6.111-.437-1.795-1.237-3.298-2.4-4.51-1.116-1.26-2.62-2.206-4.51-2.836-1.843-.63-4.172-.945-6.985-.945zm151.67 0c-2.91 0-5.551.242-7.928.727-2.376.436-4.364.922-5.964 1.455a3.691 3.691 0 0 0-.073.727v.656c0 1.26.242 2.326.727 3.199.485.873 1.237 1.31 2.256 1.31.582 0 1.188-.073 1.818-.218.679-.194 1.43-.388 2.254-.582a22.035 22.035 0 0 1 2.91-.582c1.067-.194 2.303-.291 3.71-.291 2.763 0 4.68.509 5.747 1.527 1.067.97 1.6 2.643 1.6 5.02v1.818c-3.2-.582-6.062-.873-8.584-.873-2.667 0-4.97.291-6.91.873-1.892.582-3.468 1.406-4.729 2.473a9.637 9.637 0 0 0-2.836 3.71c-.582 1.455-.873 3.056-.873 4.801 0 1.455.242 2.838.727 4.147a10.445 10.445 0 0 0 2.256 3.346c1.018.97 2.254 1.746 3.709 2.328 1.503.533 3.2.798 5.091.798v.002c1.65 0 3.105-.194 4.366-.582 1.309-.339 2.473-.824 3.492-1.455 1.018-.63 1.89-1.359 2.617-2.183a20.668 20.668 0 0 0 2.037-2.692h.072c.049.922.122 1.795.22 2.62.145.824.388 1.55.728 2.181.34.582.799 1.067 1.38 1.455.631.34 1.431.51 2.401.51.873 0 1.625-.073 2.256-.219.679-.145 1.237-.314 1.674-.508a38.514 38.514 0 0 1-.801-3.2 66.838 66.838 0 0 1-.51-3.056 61.678 61.678 0 0 1-.219-3.273v-11.566c0-2.328-.241-4.365-.726-6.111-.437-1.795-1.237-3.298-2.4-4.51-1.116-1.26-2.62-2.206-4.51-2.836-1.843-.63-4.172-.945-6.985-.945zm84.379.076c-2.667 0-5.117.486-7.348 1.456-2.23.97-4.145 2.278-5.746 3.927s-2.86 3.59-3.78 5.82c-.874 2.183-1.311 4.51-1.311 6.983 0 2.57.437 4.97 1.31 7.201.873 2.23 2.109 4.172 3.71 5.82 1.6 1.6 3.515 2.886 5.745 3.856 2.23.921 4.705 1.38 7.42 1.38 2.716 0 5.19-.484 7.42-1.454 2.23-.97 4.122-2.28 5.674-3.928 1.6-1.649 2.812-3.587 3.637-5.818.872-2.231 1.308-4.584 1.308-7.057s-.436-4.8-1.309-6.982c-.872-2.231-2.108-4.172-3.708-5.82-1.552-1.65-3.444-2.958-5.674-3.928-2.231-.97-4.68-1.455-7.348-1.455zm-169.71.282c-1.503 0-2.545.317-3.127.947s-.873 1.43-.873 2.4v32.15c.388.097.946.17 1.674.22.727.096 1.454.146 2.181.146 1.552 0 2.62-.315 3.202-.946.581-.63.87-1.432.87-2.402v-32.15c-.387-.097-.944-.17-1.671-.219a17.06 17.06 0 0 0-2.256-.146zm141.33.006c-1.503 0-2.547.315-3.129.945-.582.63-.871 1.43-.871 2.4v32.152c.388.097.944.17 1.672.22.727.096 1.454.144 2.182.144 1.551 0 2.619-.315 3.2-.946.583-.63.874-1.43.874-2.4v-32.152c-.388-.097-.947-.168-1.674-.217a17.03 17.03 0 0 0-2.254-.146zm28.371 6.26c1.358 0 2.643.267 3.856.8a8.672 8.672 0 0 1 3.127 2.328c.92.97 1.65 2.182 2.183 3.637.534 1.455.799 3.079.799 4.873 0 1.988-.291 3.71-.873 5.164-.582 1.455-1.356 2.669-2.326 3.639a8.965 8.965 0 0 1-3.202 2.182 9.188 9.188 0 0 1-3.564.726 9.904 9.904 0 0 1-3.709-.726 9.687 9.687 0 0 1-3.273-2.182c-.922-1.018-1.674-2.256-2.256-3.711-.582-1.455-.873-3.152-.873-5.092 0-1.794.267-3.418.8-4.873.582-1.455 1.333-2.667 2.254-3.636.97-1.019 2.061-1.795 3.274-2.329a9.3 9.3 0 0 1 3.783-.8zm-235.54 12.508c1.94 0 4.146.217 6.62.654v3.055c-.97 2.036-2.327 3.733-4.073 5.091-1.697 1.358-3.711 2.037-6.04 2.037-1.794 0-3.247-.411-4.363-1.236s-1.673-2.012-1.673-3.564c0-1.94.776-3.42 2.328-4.438 1.6-1.067 4-1.6 7.2-1.6zm151.67 0c1.94 0 4.146.217 6.62.654v3.055c-.97 2.036-2.327 3.733-4.073 5.091-1.697 1.358-3.711 2.037-6.04 2.037-1.794 0-3.247-.411-4.363-1.236-1.115-.824-1.673-2.012-1.673-3.564 0-1.94.776-3.42 2.328-4.438 1.6-1.067 4-1.6 7.2-1.6zM793.75 0c3.46 0 6.25 2.817 6.25 6.25v116.24a6.278 6.278 0 0 1-6.25 6.25H630.68c-3.46 0-6.25-2.816-6.25-6.25V6.28c0-3.46 2.817-6.25 6.25-6.25h163.07" fill="#fff"/>
  <path d="M714.58 38.576v49.548c0 2.173-1.1 3.38-4.48 3.38-1.53 0-2.95-.214-4.05-.43V68.274h-28.274V88.15c0 2.173-1.1 3.38-4.48 3.38-1.637 0-3.273-.214-4.051-.43V41.528c0-2.093 1.1-3.38 4.587-3.38 1.53 0 3.032.214 3.917.429v22.05h28.14v-19.1c0-2.091 1.208-3.38 4.696-3.38 1.61 0 3.112.215 3.996.43m58.003 26.182c0 14.861-10.38 26.101-26.638 26.101H730.79c-3.272 0-4.48-1.314-4.48-3.38v-45.31c0-2.064 1.208-3.38 4.48-3.38h15.157c16.257 0 26.638 11.134 26.638 25.969m-8.638 0c0-11.133-6.974-18.35-18-18.35h-11.133v36.78h11.133c11.026.027 18-7.19 18-18.43" fill="#9c001f"/>
  <path d="M57.492 77.171c0 11.076-7.212 19.112-21.946 20.709-10.612 1.133-26.016-.206-33.331-1.03-.258-1.185-.464-2.68-.464-3.864 0-9.633 5.203-11.849 10.097-11.849 5.1 0 13.137.876 19.061.876 6.594 0 8.552-2.215 8.552-4.328 0-2.781-2.627-3.915-7.727-4.894l-13.961-2.678C6.182 67.897 0 59.913 0 51.413 0 41.11 7.315 32.455 21.74 30.858c10.87-1.185 24.16.154 31.425 1.03.257 1.236.412 2.421.412 3.71 0 9.633-5.1 11.693-9.994 11.693-3.761 0-9.582-.67-16.28-.67-6.8 0-9.581 1.855-9.581 4.122 0 2.42 2.678 3.4 6.903 4.172l13.29 2.473C51.62 59.913 57.493 67.64 57.493 77.17m23.852 11.85c0 5.924-2.319 9.324-13.91 9.324-1.545 0-2.884-.103-4.172-.31V19.577c0-5.976 2.009-12.21 13.703-12.21 1.494 0 2.988.155 4.379.464zm47.343 30.393c1.545.773 4.636 1.752 8.551 1.803 6.749.155 10.406-2.42 13.137-8.448l36.061-80.21c-1.494-.773-4.79-1.7-7.47-1.752-4.636-.103-10.87.825-14.837 10.303l-11.746 27.458-22.925-37.246c-1.494-.463-5.1-1.082-7.727-1.082-8.14 0-12.62 2.988-17.309 8.037L82.167 62.591l17.928 28.179c3.297 5.152 7.676 7.779 14.734 7.779 4.636 0 8.5-1.082 10.303-1.906l-21.585-32.455 15.3-16.228 25.088 39.307z" fill="#ff0031"/>
  <path d="M624.84 0H214.21c-4.74 0-8.603 3.864-8.603 8.603v111.53c0 4.74 3.864 8.603 8.603 8.603h410.58c4.74 0 8.603-3.863 8.603-8.603V8.553c-.051-4.74-3.812-8.551-8.551-8.551" fill="url(#a)"/>
  <path d="M63.313 19.576V73.41c0-2.164 1.649-4.43 4.43-4.533l9.067-.31c1.803-.051 4.534-1.287 4.585-4.584V7.83a20.366 20.366 0 0 0-4.379-.464c-11.694.051-13.703 6.233-13.703 12.209m41.213 18.752L82.271 62.643l1.803 2.782c.773 1.03 2.267 2.782 5.255 2.679l12.673-.464c2.782-.103 4.533 1.082 5.615 2.524l-3.966-5.975 15.3-16.228 10.252 16.124c1.854 2.42 4.636 2.472 5.254 2.472.515 0 14.012-.463 14.58-.515.926-.051 2.008.464 2.833 1.649l-22.306-36.267c-1.494-.464-5.1-1.082-7.728-1.082-8.14-.052-12.62 2.885-17.309 7.985m-82.786-7.47C7.317 32.454.001 41.057.001 51.412c0 5.306 2.421 10.406 7.058 14.064 3.503 2.318 7.109 3.194 10.664 3.812 2.936.515 9.788.98 14.888.773l15.867-.567c5.976-.206 9.17 4.894 8.86 9.994v-.257c.052-.67.104-1.34.104-2.01 0-9.53-5.873-17.308-19.525-19.833l-13.291-2.473c-4.276-.721-6.904-1.752-6.904-4.173 0-2.267 2.834-4.173 9.582-4.173 6.698 0 12.518.67 16.28.67 4.893 0 9.994-2.06 9.994-11.694 0-1.288-.155-2.473-.413-3.71-5.203-.617-13.549-1.493-21.843-1.493-3.245.051-6.49.206-9.582.515M164.03 41.11l-11.385 26.84c0-.051.722-2.112 2.937-2.215l12.055-.412c3.657-.155 5.1-2.628 5.512-3.452l13.188-29.416c-1.494-.773-4.791-1.7-7.47-1.751h-.566c-4.585.051-10.458 1.288-14.27 10.406" fill="url(#b)" opacity=".3"/>
  <path d="M214.2 0c-4.74 0-8.603 3.864-8.603 8.603v61.922c0-.927.36-6.027 6.182-6.594 0 0 .309-.051.824-.051l414.39-14.527c3.245-.103 6.388-2.525 6.388-6.543V8.655c0-4.74-3.864-8.603-8.603-8.603z" fill="url(#c)" opacity=".3"/>
  <path d="M298.63 14.578c-3.452 0-6.389 2.68-6.389 6.389 0 3.245 2.886 6.285 6.389 6.285s6.285-2.988 6.285-6.285c0-3.606-2.73-6.389-6.285-6.389zm117.36 19.113c-16.588 0-30.035 13.137-30.035 31.219 0 18.752 12.93 31.527 31.682 31.527 8.654 0 16.795-2.576 22.102-4.945.618-5.461-1.237-7.83-3.762-7.83-1.082 0-2.42.514-4.945 1.441-3.864 1.185-7.83 2.371-13.033 2.371-12.106 0-20.35-6.75-21.844-18.443h46.932a46.71 46.71 0 0 0 .568-6.182c0-14.373-9.17-29.158-27.664-29.158zm-155.37.05c-17.411 0-30.702 13.344-30.703 31.27 0 17.928 13.291 31.427 30.703 31.685 8.242 0 15.711-2.267 21.018-4.791.515-5.46-1.495-7.729-4.02-7.729-3.502 0-7.468 3.864-16.638 3.864-11.591 0-21.018-8.912-21.018-22.873 0-13.96 9.426-22.613 21.018-22.613 9.17 0 13.084 3.863 16.639 3.863 2.524 0 4.534-2.268 4.019-7.729-5.203-2.678-12.672-4.945-21.018-4.945zm320.48 0c-8.448 0-17.465 2.011-23.492 4.278-.618 5.306.98 7.83 3.762 7.83.979 0 2.42-.463 4.275-.978 3.606-1.185 8.913-2.526 15.043-2.526 11.85 0 14.89 5.565 14.89 14.89v1.648c-26.738-1.751-42.554 4.634-42.554 19.266 0 9.685 7.469 18.342 21.018 18.342 9.016 0 15.817-3.555 21.535-9.582v5.047c0 2.524 1.597 3.812 5.203 3.812 1.752 0 3.503-.256 4.533-.514v-38.38h-.002c0-14.27-6.54-23.08-24.21-23.132zm-230.84.003c-9.118 0-15.815 4.43-20.193 9.736v-5.203c0-2.267-1.34-3.76-5.203-3.76-1.752 0-3.606.413-4.533.67v60.12c.927.257 2.781.513 4.533.513 3.915 0 5.203-1.39 5.203-3.76V53.474c3.194-5.821 10.921-10.869 18.082-10.869 9.016 0 15.146 5.872 15.146 18.236v34.361c.979.258 2.936.516 4.533.516 3.967 0 5.203-1.392 5.203-3.762V59.5h-.002c0-17.825-10.355-25.706-22.77-25.758zm133.63 0c-7.418 0-13.548 3.865-17.412 9.068v-4.277c0-2.524-1.288-4.018-5.049-4.018-1.597 0-3.503.413-4.533.67v60.016c.824.258 2.782.516 4.533.516 3.967 0 5.203-1.39 5.203-3.76V52.342c2.267-4.894 8.089-9.84 14.89-9.84 8.139 0 12.26 5.307 12.26 14.22v38.481c1.03.258 2.885.514 4.636.514 3.967 0 5.203-1.39 5.203-3.76V52.342c2.267-4.894 8.089-9.84 14.89-9.84 7.984 0 12.26 5.305 12.26 14.217v38.482c.978.258 2.937.516 4.534.516 3.967 0 5.305-1.392 5.305-3.762V55.64c0-12.003-6.905-21.843-19.887-21.895-8.912 0-15.299 4.895-19.42 10.922-3.194-6.8-9.427-10.922-17.412-10.922zm-184.95.822c-4.07 0-5.305 1.493-5.305 3.76v56.873c.98.257 2.885.515 4.533.566 3.967 0 5.305-1.39 5.305-3.76v-56.77c-.979-.257-2.936-.67-4.533-.67zm117.1 7.883c10.87 0 17.516 8.139 17.928 18.494h-37.762c1.597-12.106 10.149-18.597 19.834-18.494zm173.04 23.69c2.078.007 4.216.064 6.393.161v11.592c-4.637 6.182-11.591 10.354-19.834 10.354-8.088 0-12.621-4.946-12.621-10.252 0-9.42 11.518-11.899 26.062-11.854z" fill="#fff"/>
  <defs>
    <linearGradient id="a" x1="414.37" x2="1244.6" y1="289.84" y2="289.84" gradientTransform="translate(-7.778 -84.95) scale(.51516)" gradientUnits="userSpaceOnUse">
      <stop stop-color="#ff0031" offset="0"/>
      <stop stop-color="#9b001f" offset="1"/>
    </linearGradient>
    <linearGradient id="b" x1="197.48" x2="194.59" y1="295.14" y2="212.24" gradientTransform="translate(-7.778 -84.95) scale(.51516)" gradientUnits="userSpaceOnUse">
      <stop stop-color="#fff" offset="0"/>
      <stop stop-color="#fff" stop-opacity=".25" offset=".515"/>
    </linearGradient>
    <linearGradient id="c" x1="830.55" x2="826.25" y1="276.73" y2="153.47" gradientTransform="translate(-7.778 -84.95) scale(.51516)" gradientUnits="userSpaceOnUse">
      <stop stop-color="#fff" offset="0"/>
      <stop stop-color="#fff" stop-opacity=".25" offset=".515"/>
    </linearGradient>
  </defs>
</svg>
