<?xml version="1.0" encoding="UTF-8"?>
<svg width="800" height="244.14" xmlns="http://www.w3.org/2000/svg">
  <path d="M72.615 97.471c0 13.989-9.11 24.14-27.719 26.157-13.404 1.431-32.859-.26-42.098-1.301-.325-1.497-.586-3.384-.586-4.88 0-12.168 6.572-14.965 12.753-14.965 6.442 0 16.592 1.106 24.075 1.106 8.329 0 10.801-2.798 10.801-5.466 0-3.513-3.318-4.945-9.76-6.181l-17.633-3.384C7.808 85.76 0 75.674 0 64.938c0-13.013 9.24-23.945 27.458-25.962 13.73-1.496 30.516.196 39.691 1.302.326 1.561.52 3.058.52 4.684 0 12.168-6.44 14.77-12.622 14.77-4.75 0-12.102-.845-20.561-.845-8.59 0-12.102 2.342-12.102 5.205 0 3.058 3.383 4.294 8.719 5.27l16.787 3.124c17.308 3.188 24.725 12.948 24.725 24.986m30.126 14.965c0 7.482-2.928 11.777-17.568 11.777-1.952 0-3.644-.13-5.27-.39V24.725c0-7.548 2.537-15.42 17.307-15.42 1.887 0 3.774.194 5.531.585zm59.797 38.39c1.952.976 5.856 2.212 10.8 2.277 8.525.195 13.145-3.058 16.593-10.671l45.547-101.31c-1.887-.976-6.051-2.147-9.435-2.212-5.856-.13-13.729 1.04-18.739 13.013l-14.835 34.68-28.955-47.043c-1.887-.586-6.441-1.367-9.76-1.367-10.281 0-15.941 3.774-21.863 10.15l-28.109 30.712 22.643 35.592c4.164 6.507 9.695 9.825 18.609 9.825 5.856 0 10.736-1.366 13.013-2.407l-27.263-40.992 19.325-20.496 31.688 49.646z" fill="#ff0031"/>
  <path d="M789.2 0H270.55c-5.986 0-10.866 4.88-10.866 10.866v140.87c0 5.986 4.88 10.866 10.866 10.866h518.58c5.986 0 10.866-4.88 10.866-10.866V10.796c-.065-5.986-4.815-10.801-10.801-10.801" fill="url(#a)"/>
  <path d="M79.967 24.725V92.72c0-2.733 2.082-5.596 5.596-5.726l11.452-.39c2.277-.065 5.726-1.627 5.79-5.791V9.89a25.724 25.724 0 0 0-5.53-.586c-14.77.065-17.308 7.873-17.308 15.421m52.054 23.684-28.109 30.712 2.277 3.514c.977 1.301 2.863 3.513 6.637 3.383l16.007-.585c3.514-.13 5.726 1.366 7.093 3.188l-5.01-7.548 19.324-20.496 12.948 20.366c2.343 3.058 5.856 3.123 6.637 3.123.65 0 17.698-.585 18.414-.65 1.171-.065 2.538.585 3.579 2.082L163.644 39.69c-1.887-.586-6.442-1.367-9.76-1.367-10.281-.065-15.941 3.644-21.863 10.085M27.46 38.975C9.24 40.992.003 51.858.003 64.937c0 6.702 3.058 13.144 8.914 17.763 4.425 2.928 8.98 4.034 13.469 4.815 3.709.65 12.363 1.236 18.804.976l20.041-.716c7.548-.26 11.582 6.181 11.192 12.623v-.325c.065-.846.13-1.692.13-2.538 0-12.037-7.417-21.863-24.66-25.051l-16.787-3.123c-5.4-.911-8.719-2.213-8.719-5.27 0-2.864 3.579-5.271 12.102-5.271 8.459 0 15.811.846 20.561.846 6.182 0 12.623-2.603 12.623-14.77 0-1.627-.195-3.123-.52-4.685-6.572-.78-17.113-1.887-27.588-1.887-4.1.065-8.199.26-12.102.65m179.72 12.949-14.38 33.9c0-.065.91-2.668 3.708-2.798l15.226-.52c4.62-.196 6.442-3.319 6.963-4.36l16.657-37.153c-1.887-.976-6.052-2.147-9.435-2.212h-.716c-5.79.065-13.209 1.626-18.024 13.144" fill="url(#b)" opacity=".3"/>
  <path d="M270.55 0c-5.986 0-10.866 4.88-10.866 10.866v78.211c0-1.171.455-7.613 7.808-8.329 0 0 .39-.065 1.041-.065l523.4-18.349c4.1-.13 8.068-3.188 8.068-8.263V10.93c0-5.985-4.88-10.865-10.866-10.865z" fill="url(#c)" opacity=".3"/>
  <path d="M377.19 18.415c-4.36 0-8.067 3.382-8.067 8.067 0 4.1 3.642 7.939 8.067 7.939 4.425 0 7.939-3.775 7.939-7.939 0-4.555-3.45-8.067-7.939-8.067zm148.22 24.139c-20.952 0-37.933 16.593-37.933 39.431 0 23.684 16.332 39.821 40.016 39.821 10.931 0 21.212-3.254 27.913-6.247.78-6.897-1.563-9.89-4.751-9.89-1.367 0-3.058.651-6.246 1.822-4.88 1.497-9.89 2.992-16.462 2.992-15.29 0-25.7-8.524-27.588-23.295h59.275c.456-2.863.65-5.4.716-7.807 0-18.154-11.582-36.827-34.941-36.827zm-196.24.064c-21.993 0-38.78 16.852-38.78 39.495 0 22.643 16.787 39.691 38.78 40.016 10.411 0 19.846-2.862 26.548-6.05.65-6.897-1.887-9.76-5.075-9.76-4.425 0-9.435 4.88-21.017 4.88-14.64 0-26.548-11.256-26.548-28.89s11.908-28.564 26.548-28.564c11.582 0 16.527 4.88 21.017 4.88 3.188 0 5.726-2.863 5.075-9.76-6.572-3.384-16.007-6.248-26.548-6.248zm113.22 0c-11.517 0-19.976 5.596-25.507 12.298v-6.57c0-2.864-1.693-4.75-6.573-4.75-2.213 0-4.554.519-5.725.844v75.935c1.171.326 3.513.65 5.725.65 4.945 0 6.573-1.757 6.573-4.75V67.54c4.034-7.352 13.794-13.73 22.838-13.73 11.387 0 19.128 7.418 19.128 23.033v43.4c1.236.326 3.71.652 5.727.652 5.01 0 6.57-1.758 6.57-4.751V75.153c0-22.513-13.076-32.47-28.757-32.534zm168.78 0c-9.37 0-17.114 4.882-21.994 11.453v-5.4c0-3.189-1.626-5.076-6.376-5.076-2.017 0-4.426.52-5.727.845v75.804c1.041.325 3.515.651 5.727.651 5.01 0 6.571-1.758 6.571-4.751V66.108c2.863-6.182 10.216-12.43 18.805-12.43 10.281 0 15.487 6.704 15.487 17.96v48.605c1.301.325 3.643.651 5.855.651 5.01 0 6.572-1.758 6.572-4.751V66.107c2.863-6.181 10.216-12.43 18.805-12.43 10.085 0 15.487 6.704 15.487 17.96v48.605c1.236.325 3.707.651 5.724.651 5.01 0 6.702-1.758 6.702-4.751V70.27c0-15.161-8.717-27.589-25.115-27.654-11.257 0-19.326 6.183-24.53 13.796-4.035-8.589-11.907-13.796-21.993-13.796zm122.78 0c-10.671 0-22.058 2.538-29.671 5.401-.78 6.702 1.236 9.891 4.75 9.891 1.236 0 3.058-.586 5.4-1.236 4.555-1.497 11.257-3.19 19-3.19 14.965 0 18.805 7.028 18.805 18.805v2.084c-33.77-2.213-53.746 5.855-53.746 24.334 0 12.233 9.436 23.164 26.548 23.164 11.387 0 19.975-4.49 27.198-12.103v6.376c0 3.188 2.017 4.815 6.571 4.815 2.213 0 4.426-.326 5.727-.651V71.834c0-18.024-8.264-29.151-30.582-29.216zM377.58 43.66c-5.14 0-6.702 1.886-6.702 4.75v71.834c1.236.326 3.643.651 5.725.716 5.01 0 6.702-1.756 6.702-4.75V44.508c-1.237-.326-3.708-.847-5.725-.847zm147.9 9.955c13.729 0 22.123 10.281 22.643 23.36H500.43c2.017-15.292 12.818-23.49 25.05-23.36zm218.55 29.922c2.624.008 5.326.081 8.075.203v14.64c-5.856 7.808-14.639 13.08-25.05 13.08-10.216 0-15.941-6.247-15.941-12.949 0-11.899 14.546-15.03 32.916-14.974zM455.58 179.37c-1.531 0-2.847.552-3.95 1.654s-1.654 2.45-1.654 4.043c0 1.532.552 2.848 1.654 3.95s2.419 1.654 3.95 1.654c1.593 0 2.94-.551 4.043-1.654 1.103-1.102 1.654-2.418 1.654-3.95 0-1.592-.551-2.94-1.654-4.043-1.102-1.103-2.45-1.654-4.043-1.654zm-153.71 1.562c-1.96 0-3.306.398-4.041 1.194-.674.796-1.01 1.808-1.01 3.033V243.5c.49.123 1.193.214 2.112.275.98.123 1.929.183 2.847.183 1.96 0 3.278-.397 3.952-1.193.735-.796 1.102-1.806 1.102-3.031v-58.341c-.49-.123-1.224-.216-2.204-.277a20.856 20.856 0 0 0-2.758-.184zm34.178 17.274c-3.675 0-7.013.307-10.014.92-3.001.55-5.513 1.163-7.535 1.836a4.67 4.67 0 0 0-.091.92v.826c0 1.593.306 2.94.918 4.042.613 1.102 1.562 1.654 2.848 1.654.735 0 1.501-.092 2.298-.275.857-.245 1.806-.49 2.847-.736a27.811 27.811 0 0 1 3.675-.735c1.348-.245 2.91-.367 4.687-.367 3.491 0 5.91.643 7.258 1.93 1.347 1.224 2.02 3.337 2.02 6.338v2.298c-4.042-.735-7.655-1.104-10.84-1.104-3.37 0-6.279.369-8.729 1.104-2.389.735-4.38 1.775-5.972 3.123a12.174 12.174 0 0 0-3.583 4.687c-.735 1.837-1.102 3.857-1.102 6.062 0 1.837.306 3.583.918 5.237a13.193 13.193 0 0 0 2.848 4.227c1.286 1.225 2.85 2.204 4.687 2.939 1.899.674 4.042 1.012 6.43 1.012 2.083 0 3.92-.245 5.513-.735 1.654-.429 3.124-1.041 4.41-1.837 1.286-.797 2.39-1.715 3.308-2.756a26.112 26.112 0 0 0 2.573-3.4h.092c.06 1.164.152 2.265.275 3.306.183 1.041.49 1.962.918 2.758a5.552 5.552 0 0 0 1.746 1.837c.796.43 1.808.642 3.033.642 1.102 0 2.051-.091 2.848-.275.857-.184 1.56-.399 2.112-.644a48.592 48.592 0 0 1-1.01-4.041 84.526 84.526 0 0 1-.644-3.86 77.947 77.947 0 0 1-.275-4.133v-14.61c0-2.94-.306-5.512-.919-7.717-.551-2.267-1.56-4.164-3.03-5.696-1.41-1.592-3.31-2.786-5.698-3.583-2.328-.796-5.268-1.193-8.82-1.193zm44.376.184c-3.246 0-6.002.367-8.268 1.102-2.266.674-4.134 1.592-5.604 2.756-1.409 1.164-2.45 2.512-3.125 4.043a11.737 11.737 0 0 0-1.01 4.777c0 3.062.98 5.636 2.94 7.718 1.96 2.021 5.42 3.737 10.381 5.145l6.523 1.838c2.634.735 4.473 1.469 5.514 2.204 1.041.674 1.56 1.685 1.56 3.033 0 .674-.121 1.316-.366 1.929-.184.551-.582 1.072-1.194 1.562-.613.429-1.5.796-2.665 1.102-1.102.245-2.572.367-4.41.367a28.52 28.52 0 0 1-4.687-.367 51.907 51.907 0 0 1-4.041-.827 46.07 46.07 0 0 0-3.308-.918c-.98-.245-1.838-.367-2.573-.367-1.225 0-2.174.489-2.847 1.469-.674.98-1.01 2.267-1.01 3.86v1.01l.183.919a64.205 64.205 0 0 0 9.095 2.48c3.185.552 6.248.828 9.188.828 3.675 0 6.707-.4 9.096-1.196 2.45-.796 4.378-1.806 5.787-3.031 1.408-1.286 2.39-2.726 2.941-4.318.612-1.654.919-3.309.919-4.962 0-3.185-1.043-5.82-3.125-7.902-2.021-2.082-5.543-3.828-10.566-5.237l-6.89-1.929c-1.408-.367-2.541-.704-3.399-1.01-.796-.368-1.439-.735-1.929-1.102-.429-.368-.737-.767-.92-1.196a5.351 5.351 0 0 1-.184-1.469c0-1.286.582-2.298 1.746-3.033 1.225-.735 3.307-1.102 6.247-1.102 3.185 0 5.789.337 7.81 1.01 2.083.613 3.798.92 5.145.92 1.348 0 2.327-.49 2.94-1.47.674-1.04 1.01-2.45 1.01-4.226 0-.245-.03-.46-.091-.644v-.827c-5.88-1.96-11.484-2.94-16.813-2.94zm42.907 0c-3.246 0-6.002.367-8.268 1.102-2.266.674-4.136 1.592-5.606 2.756-1.409 1.164-2.449 2.512-3.123 4.043a11.737 11.737 0 0 0-1.01 4.777c0 3.062.98 5.636 2.94 7.718 1.96 2.021 5.42 3.737 10.381 5.145l6.523 1.838c2.634.735 4.47 1.469 5.512 2.204 1.041.674 1.562 1.685 1.562 3.033 0 .674-.121 1.316-.366 1.929-.184.551-.584 1.072-1.196 1.562-.613.429-1.5.796-2.664 1.102-1.103.245-2.573.367-4.41.367-1.654 0-3.216-.122-4.686-.367a51.967 51.967 0 0 1-4.043-.827 46.02 46.02 0 0 0-3.306-.918c-.98-.245-1.838-.367-2.573-.367-1.225 0-2.176.489-2.85 1.469-.673.98-1.01 2.267-1.01 3.86v1.01l.185.919a64.205 64.205 0 0 0 9.096 2.48c3.185.552 6.246.828 9.186.828 3.675 0 6.709-.4 9.097-1.196 2.45-.796 4.379-1.806 5.788-3.031 1.408-1.286 2.388-2.726 2.939-4.318.612-1.654.919-3.309.919-4.962 0-3.185-1.04-5.82-3.123-7.902-2.021-2.082-5.543-3.828-10.566-5.237l-6.891-1.929c-1.409-.367-2.542-.704-3.4-1.01-.796-.368-1.439-.735-1.929-1.102-.429-.368-.735-.767-.919-1.196a5.351 5.351 0 0 1-.183-1.469c0-1.286.582-2.298 1.746-3.033 1.225-.735 3.307-1.102 6.247-1.102 3.185 0 5.789.337 7.81 1.01 2.083.613 3.798.92 5.145.92s2.327-.49 2.94-1.47c.674-1.04 1.01-2.45 1.01-4.226 0-.245-.03-.46-.091-.644v-.827c-5.88-1.96-11.484-2.94-16.813-2.94zm105.47 0c-3.246 0-6.002.367-8.268 1.102-2.266.674-4.134 1.592-5.604 2.756-1.409 1.164-2.45 2.512-3.125 4.043a11.737 11.737 0 0 0-1.01 4.777c0 3.062.98 5.636 2.94 7.718 1.96 2.021 5.42 3.737 10.381 5.145l6.523 1.838c2.634.735 4.473 1.469 5.514 2.204 1.041.674 1.56 1.685 1.56 3.033 0 .674-.122 1.316-.367 1.929-.183.551-.58 1.072-1.193 1.562-.613.429-1.5.796-2.665 1.102-1.102.245-2.572.367-4.41.367a28.52 28.52 0 0 1-4.687-.367 51.907 51.907 0 0 1-4.041-.827 46.07 46.07 0 0 0-3.308-.918c-.98-.245-1.838-.367-2.573-.367-1.225 0-2.174.489-2.848 1.469-.673.98-1.01 2.267-1.01 3.86v1.01l.183.919a64.205 64.205 0 0 0 9.096 2.48c3.185.552 6.248.828 9.188.828 3.675 0 6.707-.4 9.095-1.196 2.45-.796 4.379-1.806 5.788-3.031 1.408-1.286 2.39-2.726 2.94-4.318.613-1.654.92-3.309.92-4.962 0-3.185-1.043-5.82-3.125-7.902-2.021-2.082-5.543-3.828-10.566-5.237l-6.89-1.929c-1.408-.367-2.541-.704-3.399-1.01-.796-.368-1.441-.735-1.931-1.102-.429-.368-.735-.767-.919-1.196a5.351 5.351 0 0 1-.183-1.469c0-1.286.582-2.298 1.746-3.033 1.225-.735 3.307-1.102 6.247-1.102 3.185 0 5.789.337 7.81 1.01 2.082.613 3.798.92 5.145.92 1.348 0 2.327-.49 2.94-1.47.673-1.04 1.01-2.45 1.01-4.226 0-.245-.03-.46-.092-.644v-.827c-5.88-1.96-11.484-2.94-16.813-2.94zm-254.22.091c-3.369 0-6.433.613-9.189 1.838-2.756 1.164-5.114 2.788-7.074 4.87-1.96 2.083-3.491 4.502-4.594 7.258-1.04 2.756-1.562 5.727-1.562 8.912 0 3.185.521 6.155 1.562 8.912 1.103 2.756 2.634 5.175 4.594 7.257 1.96 2.022 4.318 3.646 7.074 4.87 2.756 1.165 5.82 1.747 9.189 1.747 3.185 0 5.971-.307 8.36-.92a32.394 32.394 0 0 0 6.89-2.757c.062-.368.093-.735.093-1.102.06-.368.091-.704.091-1.01 0-1.716-.367-3.001-1.102-3.859-.735-.857-1.716-1.287-2.941-1.287-.551 0-1.164.124-1.837.369-.674.245-1.439.52-2.296.827-.796.306-1.715.582-2.756.827-1.041.245-2.205.366-3.492.366-1.837 0-3.552-.306-5.145-.918a14.001 14.001 0 0 1-4.227-2.756c-1.163-1.225-2.082-2.726-2.756-4.502-.673-1.776-1.01-3.798-1.01-6.064s.337-4.288 1.01-6.064c.674-1.776 1.593-3.277 2.756-4.502s2.512-2.143 4.044-2.756 3.184-.919 4.96-.919c1.347 0 2.511.122 3.491.367 1.042.245 1.93.52 2.665.827.796.245 1.501.49 2.114.735.674.184 1.286.276 1.837.276 1.164 0 2.113-.49 2.848-1.47.735-1.04 1.102-2.42 1.102-4.134v-.736c0-.306-.03-.612-.092-.918-1.837-1.042-3.92-1.9-6.247-2.573-2.266-.674-5.052-1.01-8.36-1.01zm216.27 0c-3.369 0-6.43.613-9.187 1.838-2.756 1.164-5.114 2.788-7.074 4.87-1.96 2.083-3.491 4.502-4.594 7.258-1.04 2.756-1.562 5.727-1.562 8.912 0 3.185.521 6.155 1.562 8.912 1.103 2.756 2.634 5.175 4.594 7.257 1.96 2.022 4.318 3.646 7.074 4.87 2.756 1.165 5.818 1.747 9.187 1.747 3.185 0 5.973-.307 8.362-.92a32.394 32.394 0 0 0 6.89-2.757c.062-.368.093-.735.093-1.102.06-.368.091-.704.091-1.01 0-1.716-.367-3.001-1.102-3.859-.735-.857-1.716-1.287-2.941-1.287-.551 0-1.164.124-1.837.369-.674.245-1.439.52-2.296.827-.796.306-1.717.582-2.758.827s-2.205.366-3.492.366c-1.837 0-3.55-.306-5.143-.918a14.001 14.001 0 0 1-4.227-2.756c-1.163-1.225-2.082-2.726-2.756-4.502-.673-1.776-1.01-3.798-1.01-6.064s.337-4.288 1.01-6.064c.674-1.776 1.593-3.277 2.756-4.502s2.51-2.143 4.042-2.756c1.531-.612 3.186-.919 4.962-.919 1.347 0 2.511.122 3.491.367 1.042.245 1.93.52 2.665.827.796.245 1.5.49 2.112.735.674.184 1.286.276 1.837.276 1.164 0 2.115-.49 2.85-1.47.735-1.04 1.102-2.42 1.102-4.134v-.736c0-.306-.03-.612-.092-.918-1.837-1.042-3.92-1.9-6.247-2.573-2.266-.674-5.054-1.01-8.362-1.01zm-35.28.184c-1.899 0-3.215.397-3.95 1.193-.735.797-1.102 1.808-1.102 3.033v40.61c.49.122 1.194.213 2.113.274.918.123 1.837.184 2.756.184 1.96 0 3.308-.398 4.043-1.194.735-.796 1.102-1.806 1.102-3.031v-40.609c-.49-.122-1.194-.216-2.112-.277a21.561 21.561 0 0 0-2.85-.183zm-118.89 23.704c2.45 0 5.236.276 8.36.827v3.858c-1.225 2.572-2.94 4.718-5.146 6.433-2.143 1.715-4.684 2.57-7.624 2.57-2.266 0-4.103-.519-5.512-1.56-1.409-1.041-2.115-2.542-2.115-4.502 0-2.45.982-4.32 2.942-5.606 2.021-1.347 5.052-2.02 9.095-2.02z" fill="#fff"/>
  <defs>
    <linearGradient id="a" x1="414.37" x2="1244.6" y1="289.84" y2="289.84" gradientTransform="translate(-9.825 -107.3) scale(.65067)" gradientUnits="userSpaceOnUse">
      <stop stop-color="#ff0031" offset="0"/>
      <stop stop-color="#9b001f" offset="1"/>
    </linearGradient>
    <linearGradient id="b" x1="197.48" x2="194.59" y1="295.14" y2="212.24" gradientTransform="translate(-9.825 -107.3) scale(.65067)" gradientUnits="userSpaceOnUse">
      <stop stop-color="#fff" offset="0"/>
      <stop stop-color="#fff" stop-opacity=".25" offset=".515"/>
    </linearGradient>
    <linearGradient id="c" x1="830.55" x2="826.25" y1="276.73" y2="153.47" gradientTransform="translate(-9.825 -107.3) scale(.65067)" gradientUnits="userSpaceOnUse">
      <stop stop-color="#fff" offset="0"/>
      <stop stop-color="#fff" stop-opacity=".25" offset=".515"/>
    </linearGradient>
  </defs>
</svg>
