<svg id="Livello_1" xmlns="http://www.w3.org/2000/svg" viewBox="0 0 8024 1105.3"><style>.st3{fill:#fff}</style><linearGradient id="SVGID_1_" gradientUnits="userSpaceOnUse" x1="4008.988" y1="32.624" x2="4008.988" y2="1072.536"><stop offset="0" stop-color="#141c4b"/><stop offset=".036" stop-color="#1a2b68"/><stop offset=".895" stop-color="#1a2b68"/><stop offset="1" stop-color="#141c4b"/></linearGradient><path d="M7866.7 1072.5H151.3c-82 0-111.1-48.3-111.1-128.9v-782c0-80.5 29.1-128.9 111.1-128.9h7715.4c82 0 111.1 48.5 111.1 128.9v782.1c0 80.5-29.1 128.8-111.1 128.8" fill="url(#SVGID_1_)"/><path d="M164.5 1095.2c-82 0-137.4-48.4-137.4-128.9V139.1c0-80.6 55.4-128.9 137.4-128.9h7695c81.9 0 137.4 48.4 137.4 128.9v827.2c0 80.6-55.5 128.9-137.4 128.9h-7695m7700.6 10.1c121.8 0 158.8-75.6 158.8-151.3V151.3c0-75.6-37-151.3-158.8-151.3H158.8C37.2 0 0 75.6 0 151.3V954c0 75.6 37.2 151.3 158.8 151.3h7706.3" fill="#a0a09d"/><linearGradient id="SVGID_2_" gradientUnits="userSpaceOnUse" x1="3825.633" y1="1072.536" x2="3825.633" y2="32.624"><stop offset="0" stop-color="#5a242a"/><stop offset=".074" stop-color="#cb082a"/><stop offset=".915" stop-color="#cb082a"/><stop offset="1" stop-color="#e6333f"/></linearGradient><path fill="url(#SVGID_2_)" d="M5688.9 1072.5H1962.3V32.6h3726.6v1039.9"/><path class="st3" d="M1282.8 992.9c12.2 6.2 37.4 13.8 69 14.7 54.1 1.2 83.6-19.6 105.5-68.1l290.4-647.8c-12-6.5-38.5-13.6-60.3-14.2-37.3-.6-87.3 7-119.4 83.4l-94 222-184.4-300.5c-12-3.6-40.9-8.8-62.3-8.8-65.1 0-101.5 24-139.3 65L908.8 534.7 1053 761.8c26.6 41.3 61.7 62.4 118.8 62.4 37.3 0 68.4-8.4 82.7-15.3L1080.9 547 1204 416.6l202 316.9-123.2 259.4M901.9 747.7c0 47.8-18.7 75.4-111.9 75.4-12.3 0-23.3-.9-33.5-2.5V187.3c0-48.2 16.4-98.4 110.5-98.4 11.8 0 23.8 1.3 35 3.6v655.2m-192.5-95.5c0 89-58.2 154-176.4 166.9-85.7 9.2-209.6-1.6-268.5-8.4-2.2-9.5-3.9-21.4-3.9-30.9 0-77.9 42.1-95.7 81.5-95.7 40.9 0 105.5 7.1 153.6 7.1 52.6 0 68.8-17.9 68.8-35 0-22.4-21.3-31.7-62.3-39.5l-112.2-21.6C296.8 577.3 247 512.7 247 444.2c0-83.3 59-153 174.8-165.8 87.7-9.5 194.3 1.2 252.9 8.4 2.2 10 3.3 19.5 3.3 29.9 0 77.7-40.9 94.5-80.5 94.5-30.3 0-77.3-5.7-131-5.7-54.7 0-77.3 15.1-77.3 33.5 0 19.5 21.6 27.6 55.8 33.5l107.2 19.9c110.1 20.3 157.3 82.9 157.3 159.8M2790 674.2c0-107.9-70.2-160.3-182.1-185.1L2412 444.6c-35.6-7.9-65.2-18.8-65.2-54.5 0-38.6 30.7-53.4 112.8-53.4 96.8 0 119.7 4.9 207.7 4.9 40.6 0 82.1-18.7 82.1-98.9 0-9.9-1-20.8-3-30.7-59.4-4.9-165.2-10.9-295.8-10.9-196.8 0-272 85.1-272 193.9 0 101.9 64.3 158.4 178.1 185.1l195.9 45.5c45.5 10.8 70.3 30.7 70.3 59.4 0 38.6-34.7 53.4-116.9 53.4-96.8 0-141.4-6.9-229.5-6.9-40.5 0-82 18.7-82 98.9 0 9.9.9 20.7 2.9 30.7 59.4 5.8 187 12.9 317.7 12.9 196.8.1 274.9-84 274.9-199.8M4406.6 500V334.8h155.3c66.3 0 118.7 9.9 118.7 79.2 0 58.4-39.5 86-118.7 86h-155.3m-1 130.6h82.1l158.4 189c29.6 36.5 58.4 55.4 125.7 55.4 45.5 0 76.2-5.8 100.9-17.8l-206-238.4c115.8-24.7 174.2-100 174.2-210.8 0-136.5-83.2-203.8-251.2-203.8l-240.4-.9c-78.1 3-103.8 29.6-103.8 100.9v560.1c11.8 1.9 25.7 2.9 39.6 2.9 98.9 0 121.7-28.6 121.7-80.1l-1.2-156.5M3022.5 517.8V335.7h161.2c80.2 0 119.8 29.6 119.8 88.1 0 62.3-39.6 94-119.8 94h-161.2m-161.3 346.3c12 2 25.7 2.9 39.6 2.9 98.9 0 121.7-28.6 121.7-80.1V651.3h168.2c183 0 274-79 274-227.5 0-143.5-91-219.7-263.1-219.7H2965c-79.2 0-103.8 30.7-103.8 100.9v559.1M4000.1 525.6c0 76.3-12.9 129.6-38.6 161.3-24.7 32.6-65.4 47.6-120.7 47.6-56.4-1-96.8-16.9-122.7-47.6-25.6-30.7-38.5-84.1-38.5-161.3 0-76.2 13.8-129.6 39.5-160.3 25.7-31.6 66.3-46.4 121.7-46.4 55.4 0 95 14.8 120.7 46.4 25.7 30.7 38.6 84.1 38.6 160.3M3840.7 866c103.8 0 184-24.7 240.4-75.1 56.4-49.5 85.1-138.6 85.1-265.3-1-124.5-29.8-211.6-88.1-263.1-58.4-50.6-137.5-76.2-237.5-76.2s-179.1 25.6-237.5 76.2c-58.4 51.5-87.1 138.5-88 263.1 0 126.7 28.6 215.8 85 265.3 56.6 50.4 136.8 75.1 240.6 75.1M5266.4 339.7H5396c42.6 0 86-19.8 86-104 0-9.9-.9-21.7-3-31.6h-503.5c-42.5 0-86 19.8-86 103.9 0 9.9.9 21.7 3 31.7h212.6V864c12 1.9 25.7 3 39.6 3 98.9 0 121.7-28.7 121.7-80.2V339.7M6260 845.8c-37.6 0-71.2-6.4-100.8-19.2-29.6-12.8-54.7-30.3-75.2-52.5s-36.2-48-47-77.3c-10.8-29.3-16.2-60.8-16.2-94.4V335.7c0-16.5 5.1-30.6 15.4-42.3 10.3-11.7 29.6-17.5 58.1-17.5 12 0 23.8.6 35.5 1.7s21.5 2.6 29.5 4.3v321.3c0 37 9.1 65.9 27.3 86.7 18.2 20.8 43 31.2 74.3 31.2 30.8 0 55.5-10.4 74.3-31.2 18.8-20.8 28.2-49.7 28.2-86.7V335.7c0-16.5 5.1-30.6 15.4-42.3 10.3-11.7 29.6-17.5 58.1-17.5 12 0 23.6.6 35 1.7 11.4 1.1 21.1 2.6 29.1 4.3v320.4c0 33.6-5.8 65.1-17.5 94.4-11.7 29.3-27.8 55.1-48.3 77.3-20.5 22.2-45.6 39.7-75.2 52.5-29.7 12.8-63 19.3-100 19.3zM6656.4 836.4c-12 0-23.8-.6-35.5-1.7s-21.5-2.6-29.5-4.3V335.7c0-16.5 5.1-30.6 15.4-42.3 10.3-11.7 29.6-17.5 58.1-17.5 12 0 23.8.6 35.5 1.7s21.5 2.6 29.5 4.3v215.3h205.9V335.7c0-16.5 5.1-30.6 15.4-42.3 10.3-11.7 29.6-17.5 58.1-17.5 12 0 23.8.6 35.5 1.7s21.5 2.6 29.5 4.3v494.7c0 16.5-5.1 30.6-15.4 42.3-10.3 11.7-29.6 17.5-58.1 17.5-12 0-23.8-.6-35.5-1.7s-21.5-2.6-29.5-4.3V614.2h-205.9v162.3c0 16.5-5.1 30.6-15.4 42.3-10.2 11.7-29.6 17.6-58.1 17.6zM7251.1 832.9c-16 0-28.9-1.7-38.9-5.1-10-3.4-17.7-8.1-23.1-14.1-5.4-6-9.1-13.2-11.1-21.8-2-8.5-3-17.6-3-27.3V345.9c0-9.7 1-18.8 3-27.3s5.7-15.8 11.1-21.8c5.4-6 13.1-10.7 23.1-14.1 10-3.4 22.9-5.1 38.9-5.1H7357c48.4 0 91.6 6.4 129.4 19.2 37.9 12.8 70.1 31.2 96.5 55.1 26.5 23.9 46.7 52.7 60.7 86.3 14 33.6 20.9 71.2 20.9 112.8 0 39.3-7 76-20.9 110.2-14 34.2-34.3 63.9-61.1 89.3-26.8 25.4-59.5 45.4-98.3 60.2-38.7 14.8-83.2 22.2-133.3 22.2h-99.8zm62.4-120.4h50.4c22.2 0 43-3.4 62.4-10.3 19.4-6.8 36.2-17.1 50.4-30.8 14.2-13.7 25.5-30.6 33.7-50.8 8.3-20.2 12.4-43.7 12.4-70.5 0-24.5-4.1-46.1-12.4-64.9-8.3-18.8-19.5-34.6-33.7-47.4-14.2-12.8-31.2-22.6-50.8-29.5-19.7-6.8-40.9-10.3-63.7-10.3h-48.7v314.5z"/><path d="M7881 832.8c70.1 70.1 80.2 135.6 82.5 150.3 6.8 0 9-30.5 9-76.9v-738c0-85.9-28.3-114.1-100.6-114.1-24.9 0-48.6 13.6-81.4 13.6l-7558.8.1c-32.8 0-57.6-13.6-81.4-13.6C78 54.2 49.7 83.6 49.7 168.4v738c0 46.3 2.3 76.9 9 76.9 2.3-14.7 4.5-85.9 82.5-150.3C764 352.6 7209.7 205.6 7881 832.8" opacity=".4" fill="#fff"/></svg>