<svg xmlns="http://www.w3.org/2000/svg" viewBox="0 0 801.08 262.5" ><g transform="translate(26.208 .743)"><g transform="matrix(.65155 0 0 .65155 -36.045995 -108.183683)"><path d="M126.7 314.7c0 21.5-14 37.1-42.6 40.2-20.6 2.2-50.5-.4-64.7-2-.5-2.3-.9-5.2-.9-7.5 0-18.7 10.1-23 19.6-23 9.9 0 25.5 1.7 37 1.7 12.8 0 16.6-4.3 16.6-8.4 0-5.4-5.1-7.6-15-9.5L49.6 301c-22.5-4.3-34.5-19.8-34.5-36.3 0-20 14.2-36.8 42.2-39.9 21.1-2.3 46.9.3 61 2 .5 2.4.8 4.7.8 7.2 0 18.7-9.9 22.7-19.4 22.7-7.3 0-18.6-1.3-31.6-1.3-13.2 0-18.6 3.6-18.6 8 0 4.7 5.2 6.6 13.4 8.1l25.8 4.8c26.6 4.9 38 19.9 38 38.4m46.3 23c0 11.5-4.5 18.1-27 18.1-3 0-5.6-.2-8.1-.6V202.9c0-11.6 3.9-23.7 26.6-23.7 2.9 0 5.8.3 8.5.9zm91.9 59c3 1.5 9 3.4 16.6 3.5 13.1.3 20.2-4.7 25.5-16.4l70-155.7c-2.9-1.5-9.3-3.3-14.5-3.4-9-.2-21.1 1.6-28.8 20L310.9 298l-44.5-72.3c-2.9-.9-9.9-2.1-15-2.1-15.8 0-24.5 5.8-33.6 15.6l-43.2 47.2 34.8 54.7c6.4 10 14.9 15.1 28.6 15.1 9 0 16.5-2.1 20-3.7l-41.9-63 29.7-31.5 48.7 76.3z" fill="#ff0031"/><linearGradient id="A" x1="414.37" x2="1244.631" y1="289.839" y2="289.839" gradientUnits="userSpaceOnUse"><stop stop-color="#ff0031" offset="0"/><stop stop-color="#9b001f" offset="1"/></linearGradient><path d="M1228 164.9H430.9c-9.2 0-16.7 7.5-16.7 16.7v216.5c0 9.2 7.5 16.7 16.7 16.7h797c9.2 0 16.7-7.5 16.7-16.7V181.5c-.1-9.2-7.4-16.6-16.6-16.6" fill="url(#A)"/><linearGradient id="B" x1="197.483" x2="194.588" y1="295.135" y2="212.243" gradientUnits="userSpaceOnUse"><stop stop-color="#fff" offset="0"/><stop stop-color="#fff" stop-opacity=".25" offset=".515"/></linearGradient><path d="M138 202.9v104.5c0-4.2 3.2-8.6 8.6-8.8l17.6-.6c3.5-.1 8.8-2.5 8.9-8.9v-109c-2.7-.6-5.6-.9-8.5-.9-22.7.1-26.6 12.1-26.6 23.7m80 36.4l-43.2 47.2 3.5 5.4c1.5 2 4.4 5.4 10.2 5.2l24.6-.9c5.4-.2 8.8 2.1 10.9 4.9l-7.7-11.6L246 258l19.9 31.3c3.6 4.7 9 4.8 10.2 4.8 1 0 27.2-.9 28.3-1 1.8-.1 3.9.9 5.5 3.2l-43.3-70.4c-2.9-.9-9.9-2.1-15-2.1-15.8-.1-24.5 5.6-33.6 15.5M57.3 224.8c-28 3.1-42.2 19.8-42.2 39.9 0 10.3 4.7 20.2 13.7 27.3 6.8 4.5 13.8 6.2 20.7 7.4 5.7 1 19 1.9 28.9 1.5l30.8-1.1c11.6-.4 17.8 9.5 17.2 19.4v-.5c.1-1.3.2-2.6.2-3.9 0-18.5-11.4-33.6-37.9-38.5l-25.8-4.8c-8.3-1.4-13.4-3.4-13.4-8.1 0-4.4 5.5-8.1 18.6-8.1 13 0 24.3 1.3 31.6 1.3 9.5 0 19.4-4 19.4-22.7 0-2.5-.3-4.8-.8-7.2-10.1-1.2-26.3-2.9-42.4-2.9-6.3.1-12.6.4-18.6 1m276.2 19.9l-22.1 52.1c0-.1 1.4-4.1 5.7-4.3l23.4-.8c7.1-.3 9.9-5.1 10.7-6.7l25.6-57.1c-2.9-1.5-9.3-3.3-14.5-3.4h-1.1c-8.9.1-20.3 2.5-27.7 20.2" fill="url(#B)" opacity=".3" enable-background="new"/><linearGradient id="C" x1="830.555" x2="826.25" y1="276.73" y2="153.473" gradientUnits="userSpaceOnUse"><stop stop-color="#fff" offset="0"/><stop stop-color="#fff" stop-opacity=".25" offset=".515"/></linearGradient><path d="M430.9 164.9c-9.2 0-16.7 7.5-16.7 16.7v120.2c0-1.8.7-11.7 12-12.8 0 0 .6-.1 1.6-.1l804.4-28.2c6.3-.2 12.4-4.9 12.4-12.7v-66.3c0-9.2-7.5-16.7-16.7-16.7z" fill="url(#C)" opacity=".3" enable-background="new"/><g fill="#fff"><path d="M1190.1 275.3v74.5c-2 .5-5.4 1-8.8 1-7 0-10.1-2.5-10.1-7.4v-9.8c-11.1 11.7-24.3 18.6-41.8 18.6-26.3 0-40.8-16.8-40.8-35.6 0-28.4 30.7-40.8 82.6-37.4V276c0-18.1-5.9-28.9-28.9-28.9-11.9 0-22.2 2.6-29.2 4.9-3.6 1-6.4 1.9-8.3 1.9-5.4 0-8.5-4.9-7.3-15.2 11.7-4.4 29.2-8.3 45.6-8.3 34.3.1 47 17.2 47 44.9m-19.1 40.8v-22.5c-33.8-1.5-63 1.8-63 22.7 0 10.3 8.8 19.9 24.5 19.9 16 0 29.5-8.1 38.5-20.1m-709.6-25c0-34.8 25.8-60.7 59.6-60.7 16.2 0 30.7 4.4 40.8 9.6 1 10.6-2.9 15-7.8 15-6.9 0-14.5-7.5-32.3-7.5-22.5 0-40.8 16.8-40.8 43.9s18.3 44.4 40.8 44.4c17.8 0 25.5-7.5 32.3-7.5 4.9 0 8.8 4.4 7.8 15-10.3 4.9-24.8 9.3-40.8 9.3-33.8-.5-59.6-26.7-59.6-61.5m413.8 7.8h-91.1c2.9 22.7 18.9 35.8 42.4 35.8 10.1 0 17.8-2.3 25.3-4.6 4.9-1.8 7.5-2.8 9.6-2.8 4.9 0 8.5 4.6 7.3 15.2-10.3 4.6-26.1 9.6-42.9 9.6-36.4 0-61.5-24.8-61.5-61.2 0-35.1 26.1-60.6 58.3-60.6 35.9 0 53.7 28.7 53.7 56.6-.1 3.7-.4 7.6-1.1 12m-91-15.7h73.3c-.8-20.1-13.7-35.9-34.8-35.9-18.8-.2-35.4 12.4-38.5 35.9m-201.8-77.6c0-7.2 5.7-12.4 12.4-12.4 6.9 0 12.2 5.4 12.2 12.4 0 6.4-5.4 12.2-12.2 12.2s-12.4-5.9-12.4-12.2m2.7 144.1V239.3c0-4.4 2.4-7.3 10.3-7.3 3.1 0 6.9.8 8.8 1.3v110.2c0 4.6-2.6 7.3-10.3 7.3-3.2-.1-6.9-.6-8.8-1.1"/><path d="M1064.5 272.9v70.5c0 4.6-2.6 7.3-10.3 7.3-3.1 0-6.9-.5-8.8-1V275c0-17.3-8.3-27.6-23.8-27.6-13.2 0-24.5 9.6-28.9 19.1v76.9c0 4.6-2.4 7.3-10.1 7.3-3.4 0-7-.5-9-1V275c0-17.3-8-27.6-23.8-27.6-13.2 0-24.5 9.6-28.9 19.1v76.9c0 4.6-2.4 7.3-10.1 7.3-3.4 0-7.2-.5-8.8-1V233.2c2-.5 5.7-1.3 8.8-1.3 7.3 0 9.8 2.9 9.8 7.8v8.3c7.5-10.1 19.4-17.6 33.8-17.6 15.5 0 27.6 8 33.8 21.2 8-11.7 20.4-21.2 37.7-21.2 25.2.1 38.6 19.2 38.6 42.5m-325.3 7.5v63c0 4.6-2.4 7.3-10.1 7.3-3.1 0-6.9-.5-8.8-1V283c0-24-11.9-35.4-29.4-35.4-13.9 0-28.9 9.8-35.1 21.1v74.9c0 4.6-2.5 7.3-10.1 7.3-3.4 0-7-.5-8.8-1V233.2c1.8-.5 5.4-1.3 8.8-1.3 7.5 0 10.1 2.9 10.1 7.3v10.1c8.5-10.3 21.5-18.9 39.2-18.9 24.1.1 44.2 15.4 44.2 50"/></g></g><path d="M537.041 222.893c2.762-3.656 6.93-6.329 11.51-6.92 3.712-.429 7.665-.073 10.942 1.858 3.537 2.043 5.917 5.722 6.831 9.655 1 3.732.716 7.619.752 11.437l-.004 18.192c-.02 1.485-.878 3.125-2.406 3.511-2.442.67-5.016.248-7.481-.076l-.01-16.334c-.066-3.716.155-7.441-.158-11.143-.271-2.937-1.531-6.078-4.263-7.52-5.026-2.762-11.744-.7-14.994 3.848-.244.379-.574.766-.538 1.244l-.017 26.454c-.02 1.528-.914 3.191-2.495 3.561-2.425.61-4.963.224-7.398-.115l-.004-43.574c2.429-.67 5.237-1.27 7.566.026 1.967 1.234 2.112 3.808 2.165 5.897zm-55.445 3.126c3.061-5.291 8.557-9.109 14.612-10.028 4.634-.618 9.581-.142 13.693 2.228 3.474 1.894 6.263 4.934 7.988 8.481 2.366 4.73 3.031 10.256 2.043 15.435-10.484-.004-20.967-.004-31.448 0 .321 2.631 1.312 5.275 3.256 7.139 2.601 2.631 6.445 3.573 10.047 3.527 2.882.083 5.728-.559 8.425-1.547 1.765-.565 3.764-1.345 5.576-.539 2.386 1.491 2.485 4.72 2.052 7.208-4.971 2.115-10.305 3.622-15.755 3.467-5.407.162-10.979-1.22-15.342-4.511-4.273-3.176-7.007-8.134-7.959-13.326-1.091-5.926-.331-12.321 2.813-17.533m10.725.142c-2.442 2.251-3.652 5.533-3.946 8.782l22.673-.004c-.311-3.209-1.534-6.425-3.883-8.696-1.907-1.95-4.723-2.707-7.384-2.713-2.69-.056-5.486.744-7.46 2.631zm-42.033-9.252c2.181-.582 4.538-1.107 6.752-.393 1.259.377 2.188 1.467 2.591 2.694.618 1.844.331 3.824.41 5.731 1.302-2.961 3.17-5.876 6.111-7.436 3.242-1.874 7.175-1.702 10.738-1.044.509 2.013.856 4.25.017 6.22-.681 1.636-2.545 2.403-4.221 2.347-3.057-.043-6.369.102-8.924 1.996-2.472 1.656-3.444 4.743-3.477 7.595l-.004 22.137c.013 1.028-.258 2.076-.912 2.882-.668.886-1.828 1.157-2.872 1.272-2.076.185-4.164-.043-6.21-.38V216.91zm-34.327-.595c3.444-.783 7.076-.754 10.52.017a19.24 19.24 0 0 1 12.097 9.056c2.902 5.001 3.847 11.075 2.756 16.744-10.494.004-20.991-.004-31.484.004.393 2.918 1.59 5.857 3.926 7.747 2.76 2.31 6.491 3.044 10.008 2.915 3.094.05 6.065-.902 8.95-1.91 1.643-.519 3.758-.982 5.143.35 1.686 1.712 1.785 4.488 1.253 6.656-4.997 2.31-10.513 3.646-16.04 3.497-5.9.126-12.011-1.669-16.403-5.721-3.725-3.368-5.966-8.167-6.676-13.098-.77-5.222-.136-10.748 2.366-15.445 2.677-5.344 7.76-9.426 13.584-10.811m-2.281 9.872c-2.429 2.244-3.622 5.516-3.913 8.752l22.693.004c-.337-3.001-1.391-5.992-3.451-8.246-1.874-2.155-4.786-3.146-7.585-3.166-2.786-.099-5.691.707-7.744 2.657zm-28.688-9.833c2.277-.38 4.611-.102 6.875.268v40.154c.079 1.633-.853 3.421-2.512 3.864-2.423.644-4.971.264-7.407-.093l-.004-40.474c-.066-1.772 1.272-3.467 3.047-3.718zm.198-18.945c3.011-1.031 6.637.886 7.271 4.049.863 3.12-1.54 6.59-4.753 6.891-3.07.516-6.233-2.016-6.339-5.143-.264-2.515 1.438-5.02 3.821-5.797zm-56.929 18.578c4.009-.704 8.395.096 11.621 2.667 1.904 1.451 3.193 3.55 4.039 5.761 2.363-3.956 5.995-7.509 10.672-8.388 3.094-.519 6.379-.37 9.32.797 2.449.978 4.459 2.895 5.681 5.215 1.672 3.021 2.218 6.521 2.274 9.932l.007 24.474c.013 1.22-.235 2.552-1.15 3.427-.823.826-2.043 1.001-3.153 1.081-1.91.086-3.827-.093-5.705-.426l.007-27.584c-.01-2.485-.625-5.212-2.594-6.891-1.986-1.732-4.835-2.003-7.324-1.458-2.634.582-4.806 2.499-6.19 4.753-.486.668-.317 1.52-.344 2.29l-.007 24.815c.056 1.649-.615 3.609-2.343 4.138-2.485.73-5.136.311-7.648-.066l.007-27.26c-.033-2.505-.542-5.248-2.456-7.027-1.821-1.755-4.551-2.128-6.964-1.765-2.826.496-5.212 2.462-6.732 4.829-.522.674-.357 1.553-.38 2.343l.01 25.109c.076 1.649-.816 3.517-2.535 3.92-2.419.602-4.958.225-7.387-.129l.017-43.664c2.426-.618 5.202-1.249 7.522.033 1.927 1.177 2.178 3.682 2.155 5.724 2.31-3.209 5.638-5.86 9.581-6.65zm-53.116.274c3.632-.77 7.469-.701 11.059.268a19.32 19.32 0 0 1 11.68 9.472c2.628 4.885 3.451 10.685 2.413 16.129-10.497.007-20.994-.007-31.491.007.387 2.895 1.573 5.807 3.877 7.701 2.733 2.314 6.442 3.077 9.945 2.961 3.123.063 6.128-.886 9.039-1.907 1.629-.509 3.708-.992 5.11.294 1.679 1.577 1.715 4.095 1.487 6.227.053.535-.549.661-.909.849-4.66 1.927-9.654 3.229-14.731 3.123-5.344.178-10.857-1.107-15.23-4.28-4.164-2.994-6.974-7.641-8.074-12.619-1.339-6.085-.711-12.741 2.456-18.181 2.803-5.011 7.754-8.782 13.369-10.044m-2.218 9.664c-2.608 2.244-3.903 5.655-4.204 9.016h22.693c-.324-2.942-1.348-5.87-3.328-8.114-1.6-1.904-4.019-2.978-6.465-3.219-3.041-.337-6.339.261-8.696 2.317zm-42.917-9.029c2.228-.592 4.65-1.114 6.894-.321 1.682.605 2.591 2.413 2.733 4.105l.046 4.33c1.302-2.968 3.173-5.847 6.065-7.466 3.262-1.914 7.238-1.742 10.831-1.087.532 2.105.922 4.482-.119 6.498-.8 1.52-2.611 2.158-4.247 2.076-3.11-.063-6.504.172-9.033 2.198-2.178 1.619-3.117 4.399-3.179 7.027l-.017 22.537c.023 1.672-.899 3.54-2.657 3.907-2.413.552-4.925.205-7.337-.175l.02-43.627zm-47.266-14.414c.995-.935 2.459-.998 3.748-1.081h14.506c5.324.093 10.811 1.299 15.17 4.488 3.563 2.585 6.012 6.564 6.894 10.861 1.302 6.028.152 12.781-3.913 17.557-4.026 4.799-10.348 7.185-16.502 7.403-3.609.023-7.215-.004-10.824.01v15.045c.056 1.712-1.025 3.503-2.753 3.913-2.459.588-5.024.215-7.493-.139v-54.385c.03-1.289.274-2.684 1.167-3.672m9.079 8.253v21.972c3.173-.033 6.349.089 9.519-.079 3.176-.212 6.59-.958 8.874-3.341 2.446-2.469 3.17-6.187 2.72-9.542-.271-2.505-1.481-4.954-3.513-6.494-2.479-1.914-5.708-2.446-8.762-2.515a2575.75 2575.75 0 0 0-8.838 0z" fill="#fff"/></g></svg>