<?xml version="1.0" encoding="UTF-8"?>
<svg width="800" height="162.61" version="1.1" viewBox="0 0 800 162.61" xmlns="http://www.w3.org/2000/svg">
	<defs>
		<linearGradient id="A" x1="414.2" x2="1244.8" y1="289.86" y2="289.86" gradientTransform="matrix(.65046 0 0 .65046 -9.7569 -107.26)" gradientUnits="userSpaceOnUse">
			<stop stop-color="#ff0031" offset="0"/>
			<stop stop-color="#9b001f" offset="1"/>
		</linearGradient>
		<linearGradient id="B" x1="197.67" x2="194.75" y1="296.29" y2="212.6" gradientTransform="matrix(.65046 0 0 .65046 -9.7569 -107.26)" gradientUnits="userSpaceOnUse">
			<stop stop-color="#fff" offset="0"/>
			<stop stop-color="#fff" stop-opacity=".25" offset=".515"/>
		</linearGradient>
		<linearGradient id="C" x1="830.82" x2="826.48" y1="278.69" y2="154.23" gradientTransform="matrix(.65046 0 0 .65046 -9.7569 -107.26)" gradientUnits="userSpaceOnUse">
			<stop stop-color="#fff" offset="0"/>
			<stop stop-color="#fff" stop-opacity=".25" offset=".515"/>
		</linearGradient>
	</defs>
	<g>
		<path d="m72.591 97.504c0 13.985-9.1064 24.132-27.71 26.148-13.399 1.431-32.848-0.26018-42.085-1.3009-0.32523-1.496-0.58541-3.3824-0.58541-4.8784 0-12.164 6.5696-14.961 12.749-14.961 6.4395 0 16.587 1.1058 24.067 1.1058 8.3259 0 10.798-2.797 10.798-5.4639 0-3.5125-3.3173-4.9435-9.7569-6.1794l-17.627-3.3824c-14.635-2.797-22.441-12.879-22.441-23.612 0-13.009 9.2365-23.937 27.449-25.953 13.725-1.4961 30.507 0.19514 39.678 1.3009 0.32523 1.5611 0.52037 3.0572 0.52037 4.6833 0 12.164-6.4395 14.765-12.619 14.765-4.7484 0-12.099-0.8456-20.555-0.8456-8.5861 0-12.099 2.3417-12.099 5.2037 0 3.0572 3.3824 4.293 8.7162 5.2687l16.782 3.1222c17.302 3.1222 24.717 12.944 24.717 24.978m30.116 14.961c0 7.4803-2.9271 11.773-17.562 11.773-1.9514 0-3.6426-0.13009-5.2687-0.39028v-99.13c0-7.5453 2.5368-15.416 17.302-15.416 1.8863 0 3.7727 0.19514 5.5289 0.58541zm59.777 38.377c1.9514 0.97569 5.8541 2.2116 10.798 2.2766 8.521 0.19514 13.139-3.0572 16.587-10.668l45.532-101.34c-1.8863-0.97569-6.0493-2.1465-9.4317-2.2116-5.8541-0.13009-13.725 1.0407-18.733 13.009l-14.83 34.669-28.945-47.028c-1.8863-0.58541-6.4395-1.366-9.7569-1.366-10.277 0-15.936 3.7727-21.855 10.147l-28.1 30.702 22.636 35.58c4.1629 6.5046 9.6918 9.8219 18.603 9.8219 5.8541 0 10.733-1.366 13.009-2.4067l-27.254-40.979 19.319-20.489 31.677 49.63z" fill="#ff0031"/>
		<path d="m789.2 0h-518.68c-5.9842 0-10.863 4.8784-10.863 10.863v140.89c0 5.9842 4.8784 10.863 10.863 10.863h518.61c5.9842 0 10.863-4.8784 10.863-10.863v-140.95c-0.06504-5.9842-4.8134-10.798-10.798-10.798" fill="url(#A)"/>
		<path d="m79.941 24.717v67.973c0-2.7319 2.0815-5.594 5.594-5.724l11.448-0.39028c2.2766-0.06505 5.724-1.6261 5.7891-5.7891v-70.9c-1.7562-0.39028-3.6426-0.58541-5.5289-0.58541-14.765 0.065046-17.302 7.8706-17.302 15.416m52.037 23.677-28.1 30.702 2.2766 3.5125c0.97569 1.3009 2.862 3.5125 6.6347 3.3824l16.001-0.58541c3.5125-0.13009 5.724 1.366 7.09 3.1873l-5.0085-7.5453 19.319-20.489 12.944 20.359c2.3417 3.0572 5.8541 3.1222 6.6347 3.1222 0.65046 0 17.692-0.58541 18.408-0.65046 1.1708-0.06505 2.5368 0.58541 3.5775 2.0815l-28.165-45.792c-1.8863-0.58541-6.4396-1.366-9.7569-1.366-10.277-0.06504-15.936 3.6426-21.855 10.082m-104.53-9.4317c-18.213 2.0164-27.449 12.879-27.449 25.953 0 6.6997 3.0572 13.139 8.9113 17.758 4.4231 2.9271 8.9763 4.0328 13.465 4.8134 3.7076 0.65046 12.359 1.2359 18.798 0.97569l20.034-0.7155c7.5453-0.26018 11.578 6.1794 11.188 12.619v-0.32523c0.06505-0.8456 0.13009-1.6912 0.13009-2.5368 0-12.033-7.4152-21.855-24.652-25.043l-16.782-3.1222c-5.3988-0.91064-8.7162-2.2116-8.7162-5.2687 0-2.862 3.5775-5.2687 12.099-5.2687 8.456 0 15.806 0.8456 20.555 0.8456 6.1794 0 12.619-2.6018 12.619-14.765 0-1.6261-0.19514-3.1222-0.52037-4.6833-6.5696-0.78055-17.107-1.8863-27.579-1.8863-4.0979 0.06505-8.1958 0.26018-12.099 0.65046m179.72 12.944-14.375 33.889c0-0.06505 0.91065-2.6669 3.7076-2.797l15.221-0.52037c4.6183-0.19514 6.4396-3.3173 6.9599-4.3581l16.652-37.141c-1.8863-0.97569-6.0493-2.1465-9.4317-2.2116h-0.71551c-5.7891 0.06505-13.204 1.6261-18.018 13.139" fill="url(#B)" opacity=".3"/>
		<path d="m270.53 0c-5.9842 0-10.863 4.8784-10.863 10.863v78.185c0-1.1708 0.45532-7.6104 7.8055-8.3259 0 0 0.39028-0.06505 1.0407-0.06505l523.42-18.343c4.0979-0.13009 8.0657-3.1873 8.0657-8.2608v-43.125c0-5.9842-4.8784-10.863-10.863-10.863z" fill="url(#C)" opacity=".3"/>
		<path d="m377.2 18.408c-4.3581 0-8.0664 3.3831-8.0664 8.0664 0 4.0979 3.6433 7.9355 8.0664 7.9355s7.9356-3.7726 7.9356-7.9355c0-4.5532-3.4474-8.0664-7.9356-8.0664zm65.176 24.197c-11.513 0-19.969 5.5932-25.498 12.293v-6.5684c0-2.862-1.6899-4.75-6.5684-4.75-2.2116 0-4.5538 0.52047-5.7246 0.8457v75.91c1.1708 0.32523 3.513 0.65039 5.7246 0.65039 4.9435 0 6.5684-1.7579 6.5684-4.75v-48.719c4.0328-7.3502 13.791-13.725 22.832-13.725 11.383 0 19.123 7.4144 19.123 23.025v43.387c1.2359 0.32523 3.7082 0.65039 5.7246 0.65039 5.0085 0 6.5684-1.7559 6.5684-4.748v-40.979c0-22.506-13.074-32.458-28.75-32.523zm83.064 0c-20.945 0-37.922 16.587-37.922 39.418 0 23.677 16.327 39.807 40.004 39.807 10.928 0 21.205-3.252 27.904-6.2441 0.78055-6.8949-1.5608-9.8867-4.748-9.8867-1.366 0-3.0588 0.65143-6.2461 1.8223-4.8784 1.4961-9.8854 2.9922-16.455 2.9922-15.286 0-25.694-8.5217-27.58-23.287h59.256c0.45532-2.862 0.65179-5.398 0.71679-7.8047 0-18.148-11.578-36.816-34.93-36.816zm85.795 0c-9.3666 0-17.106 4.8776-21.984 11.447v-5.3984c0-3.1873-1.6266-5.0742-6.375-5.0742-2.0164 0-4.4237 0.52047-5.7246 0.8457v75.779c1.0407 0.32523 3.513 0.65039 5.7246 0.65039 5.0085 0 6.5703-1.7559 6.5703-4.748v-50.021c2.862-6.1794 10.211-12.424 18.797-12.424 10.277 0 15.48 6.7002 15.48 17.953v48.59c1.3009 0.32523 3.6439 0.65039 5.8555 0.65039 5.0085 0 6.5684-1.7559 6.5684-4.748v-50.021c2.862-6.1794 10.213-12.424 18.799-12.424 10.082 0 15.48 6.7002 15.48 17.953v48.59c1.2359 0.32523 3.7082 0.65039 5.7246 0.65039 5.0085 0 6.6992-1.7559 6.6992-4.748v-45.857c0-15.156-8.7158-27.579-25.107-27.645-11.253 0-19.318 6.1787-24.521 13.789-4.0328-8.5861-11.904-13.789-21.986-13.789zm122.74 0c-10.668 0-22.05 2.5364-29.66 5.3984-0.78055 6.6997 1.2356 9.8867 4.748 9.8867 1.2359 0 3.0568-0.58587 5.3984-1.2363 4.5532-1.4961 11.254-3.1875 18.994-3.1875 14.961 0 18.797 7.0255 18.797 18.799v2.082c-33.759-2.2116-53.727 5.8531-53.727 24.326 0 12.229 9.43 23.156 26.537 23.156 11.383 0 19.969-4.4873 27.189-12.098v6.375c0 3.1873 2.0171 4.8125 6.5703 4.8125 2.2116 0 4.4237-0.32516 5.7246-0.65039v-48.459c0-18.018-8.2615-29.14-30.572-29.205zm-404.85 0.06445c-21.986 0-38.768 16.846-38.768 39.482 0 22.636 16.782 39.679 38.768 40.004 10.407 0 19.839-2.8616 26.539-6.0488 0.65046-6.8949-1.887-9.7578-5.0742-9.7578-4.4231 0-9.4316 4.8789-21.01 4.8789-14.635 0-26.539-11.253-26.539-28.881 0-17.627 11.904-28.555 26.539-28.555 11.578 0 16.522 4.8789 21.01 4.8789 3.1872 0 5.7247-2.8629 5.0742-9.7578-6.5696-3.3824-16.002-6.2441-26.539-6.2441zm48.459 0.97656c-5.1386 0-6.6992 1.886-6.6992 4.748v71.875c1.2359 0.32523 3.6412 0.65039 5.7226 0.65039 5.0085 0 6.7012-1.7559 6.7012-4.748v-71.68c-1.2359-0.32523-3.7082-0.8457-5.7246-0.8457zm147.85 9.9512c13.725 0 22.114 10.277 22.635 23.352h-47.678c2.0164-15.286 12.879-23.482 25.043-23.352zm218.61 29.979c2.6234 0.0081 5.326 0.08116 8.0742 0.20312v14.635c-5.8541 7.8055-14.636 13.074-25.043 13.074-10.212 0-15.938-6.2436-15.938-12.943 0-11.895 14.542-15.026 32.906-14.969z" fill="#fff"/>
	</g>
</svg>
