<?xml version="1.0" encoding="UTF-8"?>
<svg width="800" height="105.73" version="1.1" xmlns="http://www.w3.org/2000/svg">
	<defs>
		<linearGradient id="A" x1="1456.7" x2="1456.7" y2="500" gradientTransform="matrix(.21146 0 0 .21146 .0028027 0)" gradientUnits="userSpaceOnUse">
			<stop stop-color="red" offset=".4"/>
			<stop stop-color="#d42321" offset="1"/>
		</linearGradient>
		<linearGradient id="B" x1="1459.5" x2="1450.8" y1="233.73" y2="-15.325" gradientTransform="matrix(.21146 0 0 .21146 .0028027 0)" gradientUnits="userSpaceOnUse">
			<stop stop-color="#fff" offset="0"/>
			<stop stop-color="#fff" stop-opacity=".835" offset=".12"/>
			<stop stop-color="#fff" stop-opacity=".658" offset=".269"/>
			<stop stop-color="#fff" stop-opacity=".511" offset=".42"/>
			<stop stop-color="#fff" stop-opacity=".397" offset=".568"/>
			<stop stop-color="#fff" stop-opacity=".315" offset=".716"/>
			<stop stop-color="#fff" stop-opacity=".266" offset=".86"/>
			<stop stop-color="#fff" stop-opacity=".25" offset="1"/>
		</linearGradient>
		<linearGradient id="C" x1="361.92" x2="361.92" y1="28.806" y2="471.22" gradientTransform="matrix(.21146 0 0 .21146 .0028027 0)" gradientUnits="userSpaceOnUse">
			<stop stop-color="#cbcbcb" offset="0"/>
			<stop stop-color="#d4d4d4" offset=".8"/>
		</linearGradient>
		<linearGradient id="D" x1="365.45" x2="359.6" y1="263.25" y2="95.751" gradientTransform="matrix(.21146 0 0 .21146 .0028027 0)" gradientUnits="userSpaceOnUse">
			<stop stop-color="#fff" offset="0"/>
			<stop stop-color="#fff" stop-opacity=".835" offset=".12"/>
			<stop stop-color="#fff" stop-opacity=".658" offset=".269"/>
			<stop stop-color="#fff" stop-opacity=".511" offset=".42"/>
			<stop stop-color="#fff" stop-opacity=".397" offset=".568"/>
			<stop stop-color="#fff" stop-opacity=".315" offset=".716"/>
			<stop stop-color="#fff" stop-opacity=".266" offset=".86"/>
			<stop stop-color="#fff" stop-opacity=".25" offset="1"/>
		</linearGradient>
	</defs>
	<g>
		<path d="m440.12 0v105.73h352.83c3.8909 0 7.0415-3.151 7.0415-7.042v-91.648c0-3.8909-3.1506-7.042-7.0415-7.042z" fill="#cbcbcb"/>
		<path d="m440.12 2.1146v101.5h352.83c2.7067 0 4.9273-2.199 4.9273-4.9269v-91.649c0-2.7067-2.1995-4.9273-4.9273-4.9273z" fill="#fff"/>
		<path d="m662.19 18.842c-2.4106 0-4.4829 1.9031-4.4829 4.4829 0 2.3049 2.0722 4.4618 4.4829 4.4829 2.6009 0 4.5674-2.1569 4.5674-4.4829 0-2.5798-1.9876-4.4829-4.5674-4.4829zm-62.446 4.6731c-2.749 0-3.7857 1.1834-3.7857 3.002v35.525c0 7.9934 4.906 12.815 13.09 12.815 4.1233 0 8.2463-1.1202 11.862-2.8541h2e-3c0.42285-3.4257-0.61284-5.161-2.664-5.1398-1.9878 0-4.3142 1.8189-8.4377 1.8189-4.5465 0-6.7877-2.3256-6.7877-7.147v-22.457h13.766c1.5437 0 2.5795-0.86595 2.5795-3.3613 0-1.0361-0.16896-2.2428-0.25353-2.8349h-16.091v-8.9447c-0.69782-0.16916-2.0733-0.42256-3.2786-0.42256zm-117.17 8.3724c-5.8574 0-11.968 1.4603-16.176 3.004-0.69782 3.616 0.61292 5.3281 2.5795 5.3281 0.84583 0 1.883-0.33775 3.2575-0.67609 2.326-0.59209 6.7024-1.5442 9.9795-1.5442 7.8452 0 9.8969 2.854 9.8969 9.6419v1.4598c-18.164-1.1842-28.822 3.1932-28.822 13.174 0 6.5341 5.0742 12.561 14.294 12.561 6.0901 0 10.912-2.4952 14.612-6.7032v3.6148c0 1.7128 1.204 2.6659 3.7838 2.6659 1.2054 0 2.4963-0.1708 3.1941-0.33996v-26.496c0-10.234-4.4839-15.669-16.601-15.69zm210.36 0c-5.8574 0-11.968 1.4603-16.176 3.004-0.69782 3.616 0.61291 5.3281 2.5795 5.3281 0.84584 0 1.881-0.33775 3.2556-0.67609 2.326-0.59209 6.7042-1.5442 9.9815-1.5442 7.8452 0 9.895 2.854 9.895 9.6419v1.4598c-18.164-1.1842-28.822 3.1932-28.822 13.174 0 6.5341 5.0761 12.561 14.296 12.561 6.0901 0 10.91-2.4952 14.61-6.7032v3.6148c0 1.7128 1.2058 2.6659 3.7857 2.6659 1.2054 0 2.4963-0.1708 3.1941-0.33996v-26.496c0-10.234-4.4839-15.669-16.601-15.69zm-122.16 0.04418c-11.102 0-16.009 5.4974-16.009 11.694 0 4.9904 3.1718 9.0293 11.271 11.186l7.3179 1.9668c6.3861 1.7129 7.4005 3.7856 7.4005 6.1116 0 3.2564-2.6636 5.7506-9.7053 5.7506-6.724 0-11.545-2.157-13.512-2.157-2.0512 0-3.1715 1.9042-2.664 5.5201 4.039 1.5645 10.679 2.8542 15.965 2.8331 12.053 0 17.042-5.7719 17.042-12.222 0-5.4978-3.3405-9.3691-11.694-11.696l-7.485-2.0513c-5.8364-1.6494-6.7878-3.5304-6.7878-5.6027 0-2.9181 2.4106-5.159 8.9447-5.159 6.1114 0 10.402 1.817 12.306 1.817 2.1358 0 3.2562-1.8811 2.5795-5.4125-3.7851-1.4591-9.9796-2.5795-14.97-2.5795zm-57.475 0.42256c-2.8336 0-3.7857 1.0358-3.7857 2.664v22.267c0 12.222 7.0416 17.552 15.479 17.552 6.1108 0 10.679-2.9182 13.681-6.6188v3.5302c0 1.6495 0.95214 2.6659 3.7857 2.6659 1.2265 0 2.5789-0.1708 3.2767-0.33996v-41.381c-0.69782-0.16917-2.0713-0.33804-3.2767-0.33804-2.8336 0-3.7857 1.0358-3.7857 2.664v26.411c-2.0514 3.8697-7.21 7.147-11.946 7.147-6.1108 0-10.149-3.9533-10.149-12.222v-23.663c-0.69782-0.16918-2.0733-0.33804-3.2786-0.33804zm117.32 0c-1.2054 0-2.5789 0.16888-3.2767 0.33804v41.383c0.69782 0.16918 2.0713 0.33804 3.2767 0.33804 2.8336 0 3.7857-0.93008 3.7857-2.664v-23.325c3.0869-6.4495 8.0772-9.1982 14.019-9.1982 2.9174 0 4.1232-0.59285 4.1238-3.4457v-2e-3c-2.9e-4 -1.2681-0.27465-2.5793-0.33805-3.1711-7.6558-1.0361-13.766 2.0518-17.804 8.163v-5.7525c1e-5 -1.6283-0.95212-2.664-3.7857-2.664zm31.826 0c-2.8336 0-3.7857 1.0147-3.7857 2.664v39.058c0.67668 0.16918 2.0522 0.33804 3.2575 0.33804 2.8336 0 3.6993-0.95122 3.6993-2.664v-39.058c-0.67658-0.16918-1.9657-0.33804-3.1711-0.33804zm-176.75 21.633c2.035-0.02906 4.1909 0.0468 6.4151 0.20936v7.8249c-3.0027 4.1446-7.8259 6.8934-13.345 6.8723-5.4346 0-8.4357-3.2563-8.4357-6.8723 0-5.7901 6.5475-7.9084 15.366-8.0343zm210.36 0c2.035-0.02906 4.1909 0.0468 6.4151 0.20936v7.8249c-3.0027 4.1446-7.824 6.8934-13.343 6.8723-5.4346 0-8.4357-3.2563-8.4357-6.8723 0-5.7901 6.5455-7.9084 15.364-8.0343z" fill="#002a91"/>
		<path d="m175.96 0h264.16c3.8909 0 7.0417 3.1508 7.0417 7.0417v91.649c0 3.8909-3.1508 7.0417-7.0417 7.0417h-264.16c-3.8909 0-7.0417-3.1508-7.0417-7.0417v-91.649c0-3.8909 3.1508-7.0417 7.0417-7.0417z" fill="url(#A)"/>
	</g>
	<path d="m752.99 75.255q-5.8063 0-10.022-1.3522-4.136-1.3522-7.5561-3.4201 0.0795-3.0225 1.1931-4.6132 1.1135-1.5908 2.8634-1.5908 1.1931 0 2.3862 0.47723 1.1931 0.47723 2.7043 1.034 1.5112 0.47723 3.4997 0.95446 1.9885 0.47723 4.7723 0.47723 5.0109 0 7.4766-2.2271 2.4657-2.2271 2.4657-5.8063 0-3.102-2.3066-5.3291t-8.0334-2.2271h-6.3631q-1.2726 0-2.1475-0.87492-0.87492-0.87492-0.87492-2.9429 0-1.9885 0.39769-3.4201h8.272q5.2495 0 7.5561-1.8294t2.3066-5.4086q0-1.3522-0.47723-2.6248-0.39769-1.2726-1.4317-2.2271-1.034-0.95446-2.7043-1.5112-1.5908-0.63631-4.0564-0.63631-2.5452 0-4.3746 0.39769-1.7498 0.39769-3.1815 0.87492-1.4317 0.47723-2.5452 0.87492-1.1135 0.39769-2.2271 0.39769-1.8294 0-2.9429-1.6703-1.1135-1.6703-1.1931-4.6132 3.102-1.7498 7.3175-3.0225t9.7832-1.2726q4.3746 0 7.5561 1.1135 3.1815 1.034 5.17 2.8634 2.068 1.8294 3.0225 4.3746 0.95445 2.4657 0.95445 5.3291 0 4.2951-2.3861 7.3175-2.3862 2.9429-6.4426 4.2155 4.5337 0.79538 7.5561 4.0565 3.0225 3.2611 3.0225 8.3515 0 3.5792-1.3522 6.5221-1.3522 2.8634-3.8178 4.8518-2.4657 1.9885-6.0449 3.102-3.4997 1.034-7.7948 1.034z" fill="#002a91"/>
	<g>
		<path d="m174 52.444 0.67668-0.0423 267.23-9.3256c2.9394-0.02114 5.2867-2.4319 5.2655-5.3501v-30.683c0-3.8909-3.1508-7.0417-7.0417-7.0417h-264.16c-3.8909 0-7.0417 3.1508-7.0417 7.0417v50.9c-0.0846-2.8971 2.178-5.3501 5.0751-5.4981z" fill="url(#B)" opacity=".4"/>
		<path d="m105.65 98.14c2.2204 0.97274 4.61 1.5014 7.0206 1.5014 5.5192 0.12688 8.5432-1.9877 10.763-6.936l29.626-65.956c-1.9243-0.867-4.0178-1.3534-6.1325-1.4168-3.8275-0.08458-8.945 0.69783-12.18 8.4798l-9.5794 22.585-18.82-30.578c-2.0723-0.54981-4.2082-0.84586-6.3439-0.88815-6.6612 0-10.362 2.4318-14.21 6.6189l-18.291 19.962 14.697 23.134c2.7279 4.2082 6.3016 6.3651 12.116 6.3651 2.8971 0.0423 5.773-0.48637 8.4586-1.586l-17.721-26.644 12.561-13.301 20.596 32.291zm-38.846-24.932c0 4.8637-1.9032 7.655-11.419 7.655-1.1419 0-2.2838-0.08458-3.4046-0.23261v-64.518c0-4.906 1.6706-10.024 11.25-10.024 1.2054 0 2.4107 0.12688 3.5738 0.35949zm-19.624-9.7485c0 9.093-5.9422 15.691-17.995 17.002-8.7335 0.93044-21.379-0.16917-27.385-0.84586-0.21146-1.0362-0.33834-2.0935-0.35949-3.172 0-7.9088 4.2716-9.7274 8.2894-9.7274 4.187 0 10.763 0.74013 15.649 0.74013 5.3924 0 7.0206-1.8186 7.0206-3.5738 0-2.2627-2.157-3.2142-6.3439-4.0179l-11.462-2.1993c-9.5159-1.8186-14.591-8.3952-14.591-15.373 0-8.4798 6.0056-15.564 17.826-16.875 8.945-0.97274 19.835 0.12688 25.799 0.84586 0.21146 0.99392 0.3172 2.0089 0.3172 3.0451 0 7.9088-4.187 9.6217-8.2048 9.6217-3.0874 0-7.8877-0.57095-13.364-0.57095-5.5615 0-7.8877 1.5437-7.8877 3.4046 0 1.9877 2.1993 2.7914 5.6884 3.4046l10.932 2.03c11.228 2.0512 16.072 8.4375 16.072 16.262z" fill="url(#C)"/>
		<path d="m153.08 26.75-10.848 24.149c-0.84586 1.734-2.601 2.8337-4.5253 2.8337l-9.8969 0.33835c-1.0785 0.06344-2.03 0.78242-2.4107 1.7975v-0.02114l9.3467-22.035c3.2565-7.7819 8.374-8.5643 12.18-8.4798 2.1358 0.06344 4.2082 0.54981 6.1536 1.4168zm-28.421 28.865-18.313-29.774c-2.0723-0.54981-4.2082-0.84586-6.3439-0.88815-6.6612 0-10.362 2.4318-14.21 6.6189l-18.291 19.962 1.4591 2.305c0.95159 1.4379 2.601 2.2627 4.335 2.1781l10.425-0.35949a5.2168 5.2168 0 0 1 4.6099 2.0723l-3.2777-4.9271 12.561-13.301 8.4375 13.217c1.0362 1.3111 2.6433 2.0512 4.3139 2.0089l11.99-0.42293c0.93044 0 1.8186 0.50751 2.305 1.3111zm-61.43-49.504c-9.5794 0-11.25 5.1174-11.25 10.024v44.196c0-2.03 1.6283-3.6795 3.6583-3.7429l7.4224-0.25376c2.0723 0 3.7641-1.6917 3.7641-3.7641v-46.099c-1.2054-0.25376-2.3896-0.38063-3.5949-0.35949zm-32.1 41.067-10.932-2.03c-3.4892-0.61325-5.6884-1.4168-5.6884-3.4046 0-1.8609 2.3261-3.4046 7.8877-3.4046 5.4769 0 10.278 0.57095 13.364 0.57095 4.0179 0 8.2048-1.7129 8.2048-9.6217 0-1.0151-0.10574-2.0512-0.3172-3.0451-5.9633-0.74013-16.854-1.8186-25.799-0.84586-11.842 1.3111-17.848 8.4163-17.848 16.875 0.021146 4.5253 2.1569 8.7969 5.773 11.524 2.6644 1.6495 5.6672 2.7279 8.7758 3.1297 4.0602 0.54981 8.1414 0.76127 12.223 0.63439l13.048-0.46523c4.8848-0.16918 7.5493 3.9966 7.2744 8.1837 0-0.06344 0-0.10574 0.02114-0.16917v-0.0423c0.0423-0.54981 0.06344-1.0996 0.06344-1.6495 0-7.7819-4.8426-14.168-16.05-16.241z" fill="url(#D)" opacity=".25"/>
		<path d="m189.14 75.979c-0.63439-4.3562 0.71898-6.64 3.2142-6.64 2.3684 0 8.1837 2.601 16.283 2.601 8.522 0 11.736-3.024 11.736-6.9572 0-2.7914-1.2476-5.2867-8.9238-7.3801l-8.818-2.3684c-9.7485-2.601-13.597-7.4858-13.597-13.513 0-7.4647 5.921-14.126 19.307-14.126 6.0268 0 13.513 1.3534 18.059 3.1297 0.82472 4.2505-0.52865 6.5343-3.1085 6.5343-2.2838 0-7.4647-2.1781-14.844-2.1781-7.8877 0-10.806 2.6856-10.806 6.2171 0 2.4741 1.1419 4.7791 8.2048 6.7457l9.0296 2.4953c10.087 2.7914 14.126 7.4647 14.126 14.105 0 7.8031-6.0268 14.739-20.554 14.739-6.4285 0.02114-14.443-1.5437-19.307-3.4046m99.638-22.521c0 16.283-11.419 25.947-23.98 25.947-7.4647 0-13.597-3.5315-17.234-8.5009v20.977c0 1.9666-1.1419 3.2142-4.4619 3.2142-1.6706 0-3.2142-0.21146-4.039-0.40178v-66.146c0.82471-0.21146 2.3684-0.42293 4.039-0.42293 3.32 0 4.4619 1.2476 4.4619 3.2142v4.758c3.6372-4.9694 9.7697-8.5009 17.234-8.5009 12.561 0 23.98 9.664 23.98 25.862m-8.6066 0c0-10.89-7.2533-18.376-17.023-18.376-6.64 0-12.772 3.8486-15.564 9.4524v17.953c2.7913 5.6038 8.9238 9.4524 15.564 9.4524 9.7486-0.02114 17.023-7.4858 17.023-18.482m16.579 0c0-14.844 10.89-25.841 25.524-25.841 14.739 0 25.629 10.996 25.629 25.841 0 14.739-10.89 25.947-25.629 25.947-14.633-0.02114-25.524-11.228-25.524-25.947m42.547 0c0-11.419-7.6973-18.376-17.023-18.376-9.2199 0-16.917 6.9572-16.917 18.376 0 11.313 7.6973 18.46 16.917 18.46 9.3256 0 17.023-7.1475 17.023-18.46m49.758-21.188c0 3.4258-1.4379 4.1447-4.9906 4.1447-7.1476 0-13.175 3.32-16.917 11.102v28.146c0 2.0723-1.1419 3.2142-4.5676 3.2142-1.4591 0-3.1297-0.21147-3.9544-0.40179v-49.948c0.82471-0.21146 2.4741-0.40178 3.9544-0.40178 3.4045 0 4.5676 1.2476 4.5676 3.2142v6.9572c4.8637-7.3801 12.243-11.102 21.484-9.8547 0.10572 0.71898 0.42292 2.2838 0.42292 3.8275m37.324 43.71c-4.3562 2.0723-9.3467 3.4258-14.316 3.4258-9.8546 0-15.776-5.8152-15.776-15.458v-42.863c0-2.1781 1.2476-3.6372 4.5676-3.6372 1.4379 0 3.1085 0.29605 3.9544 0.52867v10.785h19.392c0.10574 0.71898 0.3172 2.1781 0.3172 3.4258 0 3.0028-1.2476 4.039-3.1085 4.039h-16.6v27.109c0 5.7941 2.6856 8.6066 8.1837 8.6066 4.9906 0 7.7819-2.1781 10.171-2.1781 2.4953-0.02114 3.7429 2.0512 3.2142 6.2171" fill="#fff"/>
	</g>
</svg>
