<?xml version="1.0" encoding="UTF-8"?>
<svg width="800" height="188.62" version="1.1" xmlns="http://www.w3.org/2000/svg">
	<g stroke-width=".99999">
		<path d="m10.443 1.9889c-4.7919 0-8.6833 3.9678-8.6833 8.8359v166.97c0 4.8682 3.8915 8.8359 8.6833 8.8359l306.7 0.0151v-184.62z" fill="#fff"/>
		<path d="m12.58 188.62h304.65v-3.9373h-304.65c-4.7766 0-8.6375-3.861-8.6375-8.6376v-163.47c0-4.7766 3.861-8.6528 8.6375-8.6528h304.65v-3.922h-304.65c-6.9436 0-12.575 5.6312-12.575 12.575v163.47c0 6.9437 5.6312 12.575 12.575 12.575" fill="#918f90"/>
		<path d="m787.36 5e-3h-473.53v188.62h473.53c6.9131 0 12.575-5.6618 12.575-12.575v-163.47c0-6.9131-5.6617-12.575-12.575-12.575" fill="#b01220"/>
	</g>
	<g fill="#fff" stroke-width=".99999">
		<path d="m467.5 88.211h54.847c-0.54936-15.047-10.27-26.966-26.05-26.966-13.933 0-26.416 9.3548-28.797 26.966m68.246 11.919h-68.246c2.1976 17.062 14.131 26.798 31.742 26.798 7.5234 0 13.384-1.6634 18.893-3.4947 3.6626-1.2819 5.6923-2.0144 7.1573-2.0144 3.6626 0 6.4248 3.4795 5.4939 11.369-7.7066 3.4947-19.625 7.1573-32.093 7.1573-27.347 0-46.057-18.527-46.057-45.859 0-26.233 19.641-45.324 43.661-45.324 26.981 0 40.182 21.472 40.182 42.379 0 2.7622-0.18331 5.6923-0.73252 8.9885"/>
		<path d="m436.06 86.227v47.156c0 3.4794-1.8313 5.4939-7.5236 5.4939-2.3807 0-5.1276-0.36624-6.6079-0.73251v-50.086c0-17.977-8.9885-26.6-22.006-26.6-10.454 0-21.655 7.3404-26.233 15.78v56.144c0 3.4794-1.8466 5.4939-7.5236 5.4939-2.5638 0-5.326-0.36624-6.6079-0.73251v-87.321c1.2819-0.36628 4.0441-0.91564 6.6079-0.91564 5.677 0 7.5236 2.1976 7.5236 5.4939v7.5236c6.4095-7.7067 16.146-14.116 29.346-14.116 17.977 0 33.024 11.552 33.024 37.419"/>
		<path d="m686.49 134.14c-0.91563-7.3404 1.465-11.186 5.326-11.186 4.0288 0 14.299 4.7614 28.797 4.7614 15.413 0 21.273-5.677 21.273-13.017 0-4.9597-2.1976-9.1716-16.131-13.033l-15.78-4.3951c-16.878-4.5935-23.669-13.033-23.669-23.669 0-12.85 10.27-24.768 33.757-24.768 10.637 0 23.853 2.5638 31.742 5.6923 0.73252 7.142-1.4803 11.003-5.1429 11.003-3.6626 0-13.399-4.4104-26.416-4.4104-14.315 0-19.625 5.1429-19.625 11.934 0 4.3951 2.0144 8.4391 14.849 12.102l15.963 4.4104c17.611 5.1276 24.951 13.384 24.951 24.768 0 13.567-10.82 25.684-36.138 25.684-11.369 0-25.501-2.5791-33.757-5.8754"/>
		<path d="m674.74 52.197-23.486 80.53c-1.465 4.9598-5.1276 6.2417-10.27 6.2417-2.9301 0-5.8754-0.54939-8.4391-1.2819l-22.555-71.542-21.289 66.583c-1.6482 5.1429-5.5091 6.2417-10.27 6.2417-2.9453 0-6.0585-0.54939-8.6223-1.2819l-24.951-85.49c2.0144-1.0988 5.6923-2.1976 8.9886-2.1976 3.8457 0 6.0585 1.2819 7.1572 5.1276l17.977 67.514h0.18331l22.189-70.444c2.396-1.2819 5.6923-2.1976 9.0038-2.1976 5.4939 0 8.4391 1.465 10.087 6.6079l20.541 66.033h0.22904l17.382-67.514c1.0988-3.8457 3.1285-5.1276 7.1573-5.1276 3.2964 0 6.9742 1.0988 8.9885 2.1976"/>
	</g>
	<path d="m117.26 111.4c0 14.727-9.6295 25.501-29.194 27.622-14.177 1.5261-34.688-0.2747-44.424-1.3887-0.36624-1.5871-0.65621-3.571-0.65621-5.1276 0-12.895 6.9742-15.825 13.506-15.825 6.7758 0 17.458 1.1751 25.409 1.1751 8.7138 0 11.385-2.9758 11.385-5.7991 0-3.6931-3.5252-5.2344-10.316-6.5316l-18.542-3.571c-15.444-2.9453-23.685-13.643-23.685-24.967 0-13.78 9.7515-25.318 28.934-27.454 14.498-1.5566 32.154 0.21366 41.845 1.3887 0.35101 1.6787 0.53413 3.2505 0.53413 4.975 0 12.85-6.7758 15.627-13.307 15.627-5.0208 0-12.804-0.94616-21.686-0.94616-9.0495 0-12.804 2.5028-12.804 5.5549 0 3.22 3.571 4.5477 9.2327 5.5397l17.748 3.2811c18.221 3.3574 26.02 13.704 26.02 26.447m31.834 15.81c0 7.9051-3.0979 12.468-18.527 12.468-2.0449 0-3.8304-0.15262-5.5397-0.39678v-104.83c0-7.9661 2.7012-16.268 18.282-16.268 1.9686 0 3.9373 0.19839 5.7838 0.59517zm63.058 40.563c2.0144 1.0377 6.1654 2.2891 11.4 2.4265 8.9428 0.19838 13.842-3.2353 17.458-11.262l48.056-107.21c-1.9839-1.0683-6.3637-2.2433-9.9652-2.3349-6.1806-0.10681-14.467 1.1598-19.778 13.811l-15.551 36.733-30.522-49.72c-1.9686-0.61043-6.7758-1.465-10.316-1.465-10.744 0-16.787 3.9678-23.028 10.744l-29.667 32.46 23.853 37.557c4.4104 6.8521 10.24 10.347 19.671 10.347 6.1806 0 11.323-1.404 13.689-2.5485l-28.721-43.341 20.358-21.579 33.406 52.436z" fill="#231f20" stroke-width=".99999"/>
	<path d="m12.58 5e-3h774.85c6.9436 0 12.575 5.6312 12.575 12.575v63.866l-781.89 31.162c-10.118 0.39677-18.115 8.7138-18.115 18.847v-113.88c0-6.9436 5.6312-12.575 12.575-12.575" fill="#fff" opacity=".2" stroke-width=".99999"/>
</svg>
