<?xml version="1.0" encoding="UTF-8"?>
<svg width="800" height="261.13" version="1.1" viewBox="0 0 800 261.13" xmlns="http://www.w3.org/2000/svg">
	<defs>
		<linearGradient id="A" x1="414.37" x2="1244.6" y1="289.84" y2="289.84" gradientTransform="matrix(.65067 0 0 .65067 -9.8251 -107.3)" gradientUnits="userSpaceOnUse">
			<stop stop-color="#ff0031" offset="0"/>
			<stop stop-color="#9b001f" offset="1"/>
		</linearGradient>
		<linearGradient id="B" x1="197.48" x2="194.59" y1="295.14" y2="212.24" gradientTransform="matrix(.65067 0 0 .65067 -9.8251 -107.3)" gradientUnits="userSpaceOnUse">
			<stop stop-color="#fff" offset="0"/>
			<stop stop-color="#fff" stop-opacity=".25" offset=".515"/>
		</linearGradient>
		<linearGradient id="C" x1="830.55" x2="826.25" y1="276.73" y2="153.47" gradientTransform="matrix(.65067 0 0 .65067 -9.8251 -107.3)" gradientUnits="userSpaceOnUse">
			<stop stop-color="#fff" offset="0"/>
			<stop stop-color="#fff" stop-opacity=".25" offset=".515"/>
		</linearGradient>
	</defs>
	<g>
		<path d="m72.615 97.471c0 13.989-9.1094 24.14-27.719 26.157-13.404 1.4315-32.859-0.26027-42.098-1.3013-0.32534-1.4965-0.5856-3.3835-0.5856-4.88 0-12.168 6.5718-14.965 12.753-14.965 6.4416 0 16.592 1.1061 24.075 1.1061 8.3286 0 10.801-2.7979 10.801-5.4656 0-3.5136-3.3184-4.9451-9.7601-6.1814l-17.633-3.3835c-14.64-2.7979-22.448-12.883-22.448-23.619 0-13.013 9.2395-23.945 27.458-25.962 13.729-1.4965 30.516 0.1952 39.691 1.3013 0.32534 1.5616 0.52054 3.0582 0.52054 4.6848 0 12.168-6.4416 14.77-12.623 14.77-4.7499 0-12.102-0.84587-20.561-0.84587-8.5889 0-12.102 2.3424-12.102 5.2054 0 3.0582 3.3835 4.2944 8.719 5.2704l16.787 3.1232c17.308 3.1883 24.725 12.948 24.725 24.986m30.126 14.965c0 7.4827-2.928 11.777-17.568 11.777-1.952 0-3.6438-0.13014-5.2704-0.39041v-99.097c0-7.5478 2.5376-15.421 17.308-15.421 1.8869 0 3.7739 0.1952 5.5307 0.5856zm59.797 38.39c1.952 0.97601 5.856 2.2123 10.801 2.2774 8.5238 0.1952 13.144-3.0582 16.592-10.671l45.547-101.31c-1.887-0.97601-6.0512-2.1472-9.4347-2.2123-5.856-0.13013-13.729 1.0411-18.739 13.013l-14.835 34.681-28.955-47.044c-1.8869-0.5856-6.4416-1.3664-9.7601-1.3664-10.281 0-15.941 3.7739-21.863 10.15l-28.109 30.712 22.643 35.592c4.1643 6.5067 9.695 9.8251 18.609 9.8251 5.856 0 10.736-1.3664 13.013-2.4075l-27.263-40.992 19.325-20.496 31.688 49.646z" fill="#ff0031"/>
		<path d="m789.2 0h-518.65c-5.9862 0-10.866 4.88-10.866 10.866v140.87c0 5.9862 4.88 10.866 10.866 10.866h518.58c5.9862 0 10.866-4.88 10.866-10.866v-140.94c-0.06507-5.9862-4.815-10.801-10.801-10.801" fill="url(#A)"/>
		<path d="m79.967 24.725v67.995c0-2.7328 2.0821-5.5958 5.5958-5.7259l11.452-0.3904c2.2773-0.06507 5.7259-1.6267 5.791-5.791v-70.923c-1.7568-0.3904-3.6438-0.5856-5.5307-0.5856-14.77 0.065067-17.308 7.8731-17.308 15.421m52.054 23.684-28.109 30.712 2.2774 3.5136c0.97601 1.3013 2.863 3.5136 6.6368 3.3835l16.007-0.5856c3.5136-0.13013 5.7259 1.3664 7.0923 3.1883l-5.0102-7.5478 19.325-20.496 12.948 20.366c2.3424 3.0582 5.856 3.1232 6.6368 3.1232 0.65067 0 17.698-0.5856 18.414-0.65067 1.1712-0.06507 2.5376 0.5856 3.5787 2.0821l-28.174-45.807c-1.887-0.5856-6.4416-1.3664-9.7601-1.3664-10.281-0.06507-15.941 3.6438-21.863 10.085m-104.56-9.4347c-18.219 2.0171-27.458 12.883-27.458 25.962 0 6.7019 3.0582 13.144 8.9142 17.763 4.4246 2.928 8.9793 4.0342 13.469 4.815 3.7088 0.65067 12.363 1.2363 18.804 0.97601l20.041-0.71574c7.5478-0.26027 11.582 6.1814 11.192 12.623v-0.32534c0.06507-0.84587 0.13013-1.6917 0.13013-2.5376 0-12.037-7.4176-21.863-24.66-25.051l-16.787-3.1232c-5.4006-0.91094-8.719-2.2123-8.719-5.2704 0-2.863 3.5787-5.2704 12.102-5.2704 8.4587 0 15.811 0.84587 20.561 0.84587 6.1814 0 12.623-2.6027 12.623-14.77 0-1.6267-0.1952-3.1232-0.52054-4.6848-6.5718-0.7808-17.113-1.8869-27.588-1.8869-4.0992 0.06507-8.1985 0.26027-12.102 0.65067m179.72 12.948-14.38 33.9c0-0.06507 0.91094-2.6678 3.7088-2.7979l15.226-0.52054c4.6198-0.1952 6.4416-3.3184 6.9622-4.3595l16.657-37.153c-1.8869-0.97601-6.0512-2.1472-9.4347-2.2123h-0.71573c-5.791 0.06507-13.209 1.6267-18.024 13.144" enable-background="new" fill="url(#B)" opacity=".3"/>
		<path d="m270.55 0c-5.9862 0-10.866 4.88-10.866 10.866v78.211c0-1.1712 0.45547-7.6129 7.808-8.3286 0 0 0.3904-0.06507 1.0411-0.06507l523.4-18.349c4.0992-0.13013 8.0683-3.1883 8.0683-8.2635v-43.139c0-5.9862-4.88-10.866-10.866-10.866z" enable-background="new" fill="url(#C)" opacity=".3"/>
		<path d="m377.19 18.414c-4.3595 0-8.0684 3.3835-8.0684 8.0684 0 4.0992 3.6438 7.9375 8.0684 7.9375 4.4246 0 7.9375-3.7732 7.9375-7.9375 0-4.5547-3.4479-8.0684-7.9375-8.0684zm148.22 24.141c-20.952 0-37.936 16.591-37.936 39.43 0 23.684 16.333 39.82 40.018 39.82 10.931 0 21.212-3.253 27.914-6.2461 0.78081-6.8971-1.5617-9.8906-4.75-9.8906-1.3664 0-3.0598 0.65105-6.248 1.8223-4.88 1.4965-9.8892 2.9942-16.461 2.9942-15.291-1e-5 -25.701-8.5247-27.588-23.295h59.275c0.45547-2.863 0.64974-5.4011 0.71484-7.8086 0-18.154-11.58-36.826-34.939-36.826zm-196.24 0.06445c-21.993 0-38.781 16.853-38.781 39.496 0 22.643 16.789 39.69 38.781 40.016 10.411 0 19.845-2.8625 26.547-6.0508 0.65067-6.8971-1.8879-9.7598-5.0762-9.7598-4.4246 0-9.4337 4.8789-21.016 4.8789-14.64 0-26.549-11.255-26.549-28.889 0-17.633 11.909-28.564 26.549-28.564 11.582 0 16.526 4.8789 21.016 4.8789 3.1883 0 5.7268-2.8627 5.0762-9.7598-6.5718-3.3835-16.006-6.2461-26.547-6.2461zm113.22 0c-11.517 0-19.977 5.595-25.508 12.297v-6.5703c0-2.863-1.6903-4.75-6.5703-4.75-2.2123 0-4.5554 0.52037-5.7266 0.8457v75.934c1.1712 0.32533 3.5143 0.65039 5.7266 0.65039 4.9451 0 6.5703-1.7569 6.5703-4.75v-48.736c4.0342-7.3526 13.796-13.729 22.84-13.729 11.387 0 19.129 7.4171 19.129 23.033v43.4c1.2363 0.32534 3.7095 0.65039 5.7266 0.65039 5.0102 0 6.5703-1.7569 6.5703-4.75v-40.992c0-22.513-13.077-32.468-28.758-32.533zm168.78 0c-9.3697 0-17.112 4.8794-21.992 11.451v-5.4004c0-3.1883-1.627-5.0742-6.377-5.0742-2.0171 0-4.4252 0.52037-5.7266 0.8457v75.803c1.0411 0.32534 3.5143 0.65039 5.7266 0.65039 5.0102 0 6.5723-1.7569 6.5723-4.75v-50.037c2.863-6.1814 10.214-12.428 18.803-12.428 10.281-1e-6 15.486 6.7024 15.486 17.959v48.605c1.3014 0.32534 3.6451 0.65039 5.8574 0.65039 5.0102 0 6.5703-1.7569 6.5703-4.75v-50.037c2.863-6.1814 10.216-12.428 18.805-12.428 10.085-1e-6 15.486 6.7024 15.486 17.959v48.605c1.2363 0.32534 3.7095 0.65039 5.7266 0.65039 5.0102 0 6.7012-1.7569 6.7012-4.75v-45.873c0-15.161-8.7183-27.587-25.115-27.652-11.257 0-19.326 6.1821-24.531 13.795-4.0342-8.5889-11.907-13.795-21.992-13.795zm122.78 0c-10.671 0-22.057 2.5374-29.67 5.4004-0.7808 6.7019 1.2364 9.8906 4.75 9.8906 1.2363 0 3.058-0.58566 5.4004-1.2363 4.5547-1.4965 11.257-3.1895 19-3.1895 14.965 0 18.803 7.0275 18.803 18.805v2.082c-33.77-2.2123-53.744 5.8569-53.744 24.336 0 12.233 9.4342 23.164 26.547 23.164 11.387 0 19.975-4.4907 27.197-12.104v6.377c0 3.1883 2.0176 4.8144 6.5723 4.8144 2.2123 0 4.4252-0.32506 5.7266-0.65039v-48.475c0-18.024-8.264-29.15-30.582-29.215zm-356.37 1.041c-5.1403 0-6.7012 1.887-6.7012 4.75v71.834c1.2363 0.32534 3.6444 0.64974 5.7266 0.71484 5.0102 0 6.7012-1.7569 6.7012-4.75v-71.703c-1.2363-0.32534-3.7095-0.8457-5.7266-0.8457zm147.9 9.9551c13.729 0 22.122 10.281 22.643 23.359h-47.693c2.0171-15.291 12.818-23.49 25.051-23.359zm218.55 29.922c2.6243 0.0081 5.3271 0.08308 8.0762 0.20508v14.639c-5.856 7.8081-14.64 13.078-25.051 13.078-10.216 0-15.941-6.2454-15.941-12.947 0-11.899 14.546-15.032 32.916-14.975z" fill="#fff"/>
		<path d="m399.42 179.37 2.3708 18.297 1.4041 12.055c-1.3122-0.68907-2.5426-1.6248-4.0176-1.9314-0.014 0.69606 0.12083 1.3811 0.23068 2.0652 0.9647 5.6903 1.8765 11.395 2.5516 17.127 0.0899 0.81091 0.23268 1.6188 0.24866 2.4377-0.15878-0.0589-0.32856-0.0989-0.43941-0.23368l-2.4657-2.5865 4.9253 29.955c0.27064 1.5898 0.46038 3.0668 0.78694 4.5838 0.27862-0.96969 0.30259-1.9893 0.46038-2.983 0.57222-6.1287 0.90677-12.276 1.3751-18.414 0.52229 1.0905 1.0995 2.1541 1.6518 3.2316 0.35751 0.64913 0.64513 1.3382 1.0706 1.9484l0.38248 0.0709 0.035-8.2199c0.0659-1.5619-0.0579-3.1258 0.0849-4.6837l0.0509-9.0887 3.0439 6.1227c0.15479-0.20672 0.45339-0.38148 0.39047-0.68008l-0.94272-15.633c-0.11585-1.0466-0.0919-2.1062-0.12783-3.1567 0.24367 0.0899 0.36151 0.33056 0.49633 0.53528l3.7659 6.1447c0.17577 0.26764 0.54826 0.19074 0.82189 0.19074 1.4141-0.13481 2.7902-0.53627 4.1284-1.0026 2.0023-0.72602 3.9936-1.6777 5.4746-3.2486 1.0566 0.20572 2.0942 0.56324 3.0818 0.99865l-0.018 10.453c0.0809 1.9584-0.15679 3.9666 0.40445 5.8741 0.42942 1.3662 1.5569 2.3318 2.5755 3.2696 1.8156 1.5899 3.719 3.0768 5.6234 4.5598 0.82488 0.6681 1.9584 0.56324 2.948 0.50632 1.1864-0.0899 2.238-0.68008 3.3015-1.1594a44.388 44.388 0 0 0 2.952-1.502c1.2823-0.70805 2.3808-1.7546 3.1328-3.0119 0.47635-0.77095 0.5882-1.6877 0.74-2.5615a36.426 36.426 0 0 0 0.40046-5.6803c0.0669-3.4294-0.5243-6.8248-0.84986-10.229l-0.0669-0.10586c-0.023-0.67209-0.1478-1.3332-0.23768-1.9983-0.13481-0.8898-0.22969-1.8056-0.61716-2.6284-0.35253-0.78494-0.90478-1.464-1.5299-2.0482-1.6628-1.5369-3.4743-2.937-5.4886-3.9816-0.85085-0.48735-1.8365-0.0579-2.6674 0.25465-2.9001 1.2283-5.5795 2.9131-8.2239 4.6098-0.62216 0.3735-1.1454 0.95272-1.3252 1.6688-0.15279 0.60319-0.46237 1.1504-0.82189 1.6518-0.97768-0.0969-1.8595-0.55425-2.7952-0.8179l1.2044-14.311c0.0509-0.90678 0.27863-1.8765-0.11584-2.7393-0.42143-1.0086-1.1644-1.8285-1.8245-2.6814l-7.408-8.9399c-0.54027-0.0799-1.0706 0.0529-1.5689 0.24866l-4.9393 1.7756c-0.23368 0.0809-0.48235 0.10686-0.72302 0.14181-0.24467-1.4301 0.0889-2.8711 0.11385-4.3052-2.3508-0.029-4.7096 0.10885-7.0615-0.018-1.6638-0.10386-3.3305-0.12783-4.9963-0.19574zm17.843 6.1297c0.22071-6e-3 0.43641 0.0669 0.63115 0.18475 0.13482 0.24068 0.18275 0.51431 0.20972 0.78694 0.74199 4.0176 0.97468 8.1021 1.2004 12.175 0.0669 0.93674-0.016 1.8884 0.11384 2.8162a158.24 158.24 0 0 1 0.035 5.8571c-0.4404 0.0799-0.8878 0.0319-1.3252-0.029-1.2813-0.12783-2.5655 0.0669-3.8228 0.2906-0.64613 0.0719-1.2853 0.19574-1.9314 0.25865-0.1518-5.5705-0.0659-11.143-0.12383-16.713v-3.8168c0-0.31857 0.0989-0.74499 0.47435-0.80092 1.4111-0.42642 2.8771-0.64113 4.3112-0.97868a0.93973 0.93973 0 0 1 0.2237-0.032zm25.61 19.934c0.18774 0.6731 0.016 1.3762-0.19774 2.0203-0.47336 1.0366-1.3152 1.8445-2.225 2.5006-0.8119 0.62515-1.9114 0.70305-2.6674 1.4181a0.87282 0.87282 0 0 1-0.13781-0.52729c0-0.62216-0.0439-1.2533 0.11984-1.8595 1.6328-1.2803 3.3884-2.3938 5.1091-3.5502zm-28.735 4.0246c0.47237 0.023 0.95571-6e-3 1.4181 0.11984 1.2633 0.10186 2.5166 0.32855 3.7449 0.64512l0.12383 0.30759a7.5698 7.5698 0 0 0 0.024 0.35452c-0.47236 0.76497-1.0446 1.459-1.6048 2.1581-0.53528 0.19574-0.81091-0.36251-1.1375-0.6591-0.87481-0.95971-1.7436-1.9264-2.5675-2.926zm29.248 2.5306c0.39147 2.9141 0.78195 5.8301 1.0066 8.7622 0.0849 1.0386 0.013 2.0852 0.12384 3.1208 0.0659 0.85484-0.0899 1.7027-0.0629 2.5575-0.016 1.6588-0.17576 3.3145-0.3725 4.9603-0.13781 0.85684-0.21471 1.7446-0.56324 2.5516-0.79892 0.45938-1.5948 0.93474-2.4657 1.2433-0.21471 0.0959-0.4494 0.10686-0.67709 0.0889-0.61117-0.62715-1.3062-1.2134-1.7357-1.9873-0.28661-3.1338-0.55025-6.2795-0.6591-9.4283-0.12983-0.98068-0.0779-1.9753-0.11785-2.962-0.17176-2.4747-0.10186-4.9603-0.12383-7.441a16.69 16.69 0 0 1 1.1045-0.46437c0.68208-0.32057 1.3921-0.57323 2.0652-0.91776 0.82189-0.0729 1.6498-0.0749 2.4766-0.0849zm-76.208-25.419c0.35652-0.0919 0.82289 0.01 0.98467 0.37349 0.13482 1.8575 0.0799 3.732 0.2217 5.5865l0.0809 0.38847c0.16079-0.015 0.33355-0.014 0.46537-0.12483 0.95671-0.65611 1.8954-1.3392 2.8711-1.9654 0.46437-0.28361 0.93274-0.5912 1.465-0.734 0.49633-0.0719 0.86083 0.35252 1.1115 0.72302 0.72302 1.0716 1.2713 2.25 1.8235 3.4174 0.62116 1.4381 1.3492 2.8542 1.7007 4.3911 0.18176 0.5932-0.42942 0.93574-0.82089 1.2343-1.9673 1.3771-3.9936 2.6764-6.0918 3.8498-0.48334 0.30759-0.72502-0.4404-1.0526-0.67309a30.063 30.063 0 0 1 1.2713-1.4191c0.17276-0.15679 0.0609-0.40645 0.024-0.60019l-1.471-4.9204-0.0569-0.34454c-0.45838-0.11584-0.92875-0.0429-1.3462 0.17077l-0.1528 0.28961c-0.0969 2.6035 0.013 5.209-0.013 7.8134l0.014 9.643c0.10886 0.89279 0.0459 1.7926 0.0609 2.6904l0.0609 6.9726c0.41044 1.0226 1.4081 1.6158 2.0402 2.4617-0.57922 0.03-1.1554-0.032-1.7247-0.11884-0.84685-0.014-1.7027-0.0779-2.5426-0.0849-1.3632-0.12982-2.7463-0.0379-4.0965 0.14481-0.61018 0.0769-1.2323 0.011-1.8355 0.13981-0.78794 1e-3 -1.6278 0.1498-2.3668-0.19474-0.38548-0.17576-0.77396-0.34952-1.1714-0.49633l0.0779-0.18575c0.71304-0.41444 1.3302-0.96969 1.9244-1.5349 0.52229-0.53029 1.0566-1.1195 1.2034-1.8745 0.43641-2.0912 0.48734-4.2323 0.62416-6.3554l0.17376-18.577c-0.019-0.23368 0.0509-0.49633-0.0699-0.70804 0.20072-0.52729 0.0429-1.1435 0.0919-1.7067a29.114 29.114 0 0 0-1.0506 0.32856l-0.47735 0.016-0.2247-0.35852c0.23968-0.31158 0.55825-0.54326 0.85085-0.80291l6.2655-6.1936c0.2966-0.34852 0.71503-0.55824 1.1524-0.6651zm-62.231 1.3861c1.2054 0.11385 2.4078 0.33855 3.6271 0.31458 1.9843 0.10086 3.9766 0.11784 5.96-0.035 1.5829-0.0609 3.1577-0.33555 4.7416-0.2966-0.0759 0.50731-0.57322 0.74499-0.8089 1.1604-0.69606 1.1704-1.2563 2.4367-1.5639 3.7649a22.711 22.711 0 0 0-0.18775 2.944l0.0479 15.712c-0.0539 0.24367 0.20872 0.34254 0.40046 0.25166 3.0199-0.75198 6.1477-0.98467 9.2515-0.89279 1.1165 0.0479 2.2789-0.0439 3.3545 0.30259l-0.0609 0.3665c-0.33754 0.12384-0.68907 0.23868-0.9607 0.48235-0.85085 0.70405-1.6288 1.495-2.4287 2.256-0.20073 0.2197-0.53428 0.4384-0.43142 0.78493 0.30958 1.7307 0.38248 3.4943 0.72103 5.221l2.0542 7.1993c0.25666 0 0.49533-0.0939 0.6691-0.28662 0.37349-0.38348 0.82289-0.68407 1.2214-1.0426 0.1478-1.5609 0.20173-3.1328 0.24267-4.7006 0.10586-1.0805 0.0679-2.1681 0.10186-3.2506 0.0419-5.6963-0.0699-11.407-0.75797-17.067-0.31558 0.0749-0.63614 0.1468-0.92775 0.29061a36.929 36.929 0 0 0-4.3491 2.2979c-0.3765 0.21971-0.72702 0.52729-0.86484 0.95471-0.31557 0.98567-0.22769 2.0432-0.17276 3.0619l-0.68208 0.2197c-1.1894-1.9154-2.4217-3.8238-3.2636-5.925-0.24068-0.72002-0.61617-1.452-0.47336-2.232 0.57921-0.27663 1.0516-0.72003 1.5809-1.0756 2.1132-1.495 4.3401-2.8571 6.7389-3.8458 0.32556-0.11085 0.78394-0.33855 1.0526-4e-3 2.221 2.226 4.3711 4.5209 6.4992 6.8338 1.1464 1.2813 2.4028 2.6155 2.7473 4.3641 0.32556 2.0402 0.3735 4.1094 0.38249 6.1727-0.019 2.3598 0.0589 4.7246-0.11085 7.0794l-0.0669 5.4327c0.8129 0.3695 1.7566 0.40446 2.6135 0.17677-0.0369 0.25964-0.23868 0.4394-0.41944 0.61017l-3.6031 3.1957c-0.82788 0.69407-1.2393 1.7486-2.0642 2.4477-0.87881 0.77395-2.197 0.84086-3.2696 0.49633-1.0985-0.56923-1.0955-1.9464-1.1844-3.0179-1.4331 1.0306-2.8382 2.1022-4.2373 3.1767-0.66011 0.51031-1.5349 0.2207-2.2699 0.0799-0.53828-0.14879-1.2244-0.35951-1.3722-0.97468l-1.8585-5.6494c-0.67708-2.1151-1.47-4.2003-1.9244-6.3794-0.19474-0.69906 0.1518-1.3841 0.49833-1.9683 0.93673-1.51 2.2809-2.6964 3.5542-3.9097-1.9823 0.37849-4.0465 0.69406-5.8162 1.7247l0.029 14.625c0.0949 2.0802-0.013 4.1634 0.0659 6.2446l0.0819 7.3541c0.1468 1.9124 0.45338 3.9936 1.7806 5.4766 0.47736 0.5922 1.2523 0.78993 1.7836 1.3152a3.6451 3.6451 0 0 1-0.27363 0.64113c-0.23968 1e-3 -0.47736 0.015-0.71503-0.015-2.6324-0.42642-5.2859-0.73401-7.9513-0.84086-2.5086-0.019-5.0282-0.11385-7.5248 0.18774-0.12483-0.41044-0.54027-0.73101-0.51031-1.1744 1.3901-0.77795 2.7293-1.8595 3.2776-3.4114 0.69407-1.9683 0.78494-4.0795 0.95671-6.1397a148.05 148.05 0 0 0 0.12583-11.205c-0.0949-2.5006-0.0729-5.0152-0.38847-7.5019-2.6095 2.0432-5.8391 3.0728-9.0318 3.7809l0.13282 15.574c0.0529 1.0895-0.0509 2.188 0.0779 3.2736 0.31857 1.1904 1.489 1.8016 2.4647 2.3878 0.2247 0.1488 0.58621 0.46937 0.38349 0.741-0.40646 0.0509-0.78195-0.1468-1.1674-0.22969-1.2433-0.26764-2.5136-0.34953-3.7759-0.46238-4.2003-0.28162-8.4146-0.35252-12.624-0.37649-0.1498-0.0459-0.56524-0.19074-0.25466-0.32855l0.0439-0.48435c1.501-0.5922 3.0099-1.454 3.8448-2.8901 0.50831-0.85685 0.52129-1.8785 0.60718-2.8412 0.11784-1.8914 0.0829-3.7859 0.15679-5.6803l-0.0919-7.8614c-1.9913-0.92276-3.9856-1.8445-5.928-2.8681-1.3532-0.6681-2.3129-1.8954-3.1348-3.1218-0.68907-1.0845-1.3082-2.221-1.7916-3.4154v-0.2906c2.1651-0.98268 4.5499-1.3222 6.8867-1.6428 0 0.23069 0.0679 0.53528-0.17776 0.6691-1.456 0.87082-2.993 1.6068-4.412 2.5436 0.47636 0.55725 1.0706 0.99067 1.6638 1.4111 1.6418 1.1365 3.4194 2.0612 5.216 2.925 0.49133 0.2197 0.97368 0.5173 1.5279 0.52229 0.0889-0.91676 0.032-1.8405 0.042-2.7613-0.0629-1.8844-0.014-3.7759-0.15679-5.6574-0.0469-1.4201 0-2.8442-0.12783-4.2582l-0.50132-14.186c-0.28861-1.482-1.5898-2.4936-2.956-2.954 0.024-0.28162 0.19274-0.56524 0.48435-0.62915 0.47935-0.0439 0.9617 7e-3 1.442 0.0379 0.65811 0.0959 1.3222 0.0349 1.9843 0.0489 0.98866-0.013 1.9823 0.0459 2.969-0.0659l4.5349-0.0729c1.2932-0.10086 2.5905-0.11884 3.8878-0.12483l-0.13781 0.83487c-0.80292 0.41145-1.3122 1.2264-1.5259 2.0822-0.15679 0.8888-0.13482 1.7956-0.14681 2.6954l0.0799 7.0854c0.0489 1.9843 0.016 3.9736 0.14979 5.954l0.0899 4.5429c0.11485 1.9294 0.11585 3.8658 0.25865 5.7972 0.93274-0.12882 1.7716-0.59819 2.6035-1.0086 2.256-1.2453 4.454-2.6264 6.4543-4.2562 0.022-8.0312-0.20073-16.067-0.83687-24.069-0.03-0.83687-0.69806-1.4381-1.4051-1.7766-0.39347-0.15878-0.51431-0.58121-0.46837-0.97069zm157.79-0.16377c0.43041-0.0819 0.53527 0.38248 0.52129 0.71303l0.11884 5.891c0.0659 1.1554-0.0439 2.3259 0.12383 3.4693 1.3722-0.015 2.7433 0.0469 4.1174 0.0419l0.0849 0.74999c0.11784 0.41044 0.0529 0.84486 0.17576 1.2523a28 28 0 0 1 0.11484 1.3362l-3.9576 0.0629c-0.18275-0.013-0.35452 0.0389-0.5173 0.10386-0.24866 3.9866-0.0439 7.9812-0.12583 11.974l-0.33055 10.359c-0.11585 0.50731-0.0479 1.0336-0.0849 1.5499l-0.49733 11.756c-0.0579 0.99865-0.27063 2.1491 0.38249 3.0059 1.0596 1.0716 2.2839 1.9743 3.5402 2.8002-0.25965 0.2946-0.49732 0.62715-0.82288 0.85085-0.25466 1e-3 -0.47337-0.16078-0.69706-0.24867-2.5895-1.2853-5.205-2.5246-7.7016-3.9886-0.63514-0.37249-1.2573-0.8119-1.6578-1.442-0.39347-0.57822-0.50632-1.2912-0.51131-1.9763l0.24667-11.052c0.12283-3.6441 0.52529-7.2682 0.59819-10.913 0.0719-3.7739 0.0379-7.5678-0.34553-11.32-0.029-0.54826-0.10386-1.0905-0.21871-1.6278-2.0123 8e-3 -4.0236-0.029-6.0348-0.029-0.025-0.35452-0.0399-0.70804-0.013-1.0626 2.4387-1.3602 4.6827-3.0579 6.7868-4.8914a39.58 39.58 0 0 0 5.5565-6.0738c0.34953-0.45938 0.68507-0.93973 1.1504-1.2942zm-116.53 2.6155c0.32157-0.17676 0.62716-0.48634 1.0226-0.45039 0.57822 0.0949 1.0975 0.38248 1.6428 0.57822 0.30459 1.3911 0.3016 2.8472 0.5223 4.2542l0.0509 0.49633 0.20073 0.1518c0.75398-0.60718 1.5918-1.0995 2.4068-1.6198 0.75198-0.47137 1.6328-0.88281 2.5426-0.742 0.57522 0.13881 0.88281 0.70305 1.1594 1.1744 0.62117 1.2573 1.1574 2.5556 1.6728 3.8598 0.58321 1.4151 1.2084 2.8382 1.49 4.3481-0.034 0.47936-0.25965 0.92575-0.68008 1.1794-1.8545 1.2044-3.7519 2.3398-5.6524 3.4703-0.21172 0.11784-0.41744 0.28162-0.67309 0.26265a3.0679 3.0679 0 0 0-0.50732-0.65412c0.46038-0.45439 0.8858-0.94472 1.3142-1.4281l-0.11585-0.0809c-0.12083-0.73101-0.36251-1.4351-0.55425-2.1511l-1.3572-4.7166c-0.0939-0.43641-0.61516-0.94573-1.0316-0.54626-0.11784 0.45838-0.0429 0.93673-0.0389 1.4041l0.30059 9.662c0.16279 1.1165 0.013 2.2619 0.18575 3.3784 0.12883 2.0912 0.41045 4.1704 0.52929 6.2625 0.28761 2.5486 0.27263 5.1351 0.67908 7.6736 0.25865 0.70704 1.0046 1.0516 1.6298 1.3751l0.16178 0.27563-0.10086 0.33155c-3.9477 0.0959-7.8993 0.0779-11.851 0.0819-0.41944 0-0.84187 0.022-1.2583-0.0479 0.2187-0.54127 0.59719-1.0226 1.1045-1.3182 0.51131-0.28761 1.0276-0.5922 1.4351-1.0186 0.1488-0.1478 0.20871-0.34953 0.19074-0.55425l-0.013-12.051c0.0439-0.56923-0.10087-1.1295-0.0769-1.6997l-0.0679-9.0837c-0.16278-1.7676-0.016-3.5562-0.25665-5.3188-1.4381-1e-3 -2.8891-0.0699-4.3192 0.11285-0.25266-0.0679-0.63614-0.21871-0.6611-0.51631zm129.05 1.3192c0.19274-0.38148 0.40046-0.78993 0.81191-0.98067l0.3695 0.20472c0.1468 1.1944 0.11884 2.3998 0.18575 3.5981 0.10585 0.46038 0.0479 0.93673 0.0809 1.4061l0.32556 6.9766c0.67209-0.015 1.3482 0.016 2.0203-0.0429 0.47336 0.0909 0.94572-0.0469 1.4221-0.0379a46.305 46.305 0 0 0 2.23-0.025c-0.0459 0.93473 0.019 1.8864-0.16278 2.8082-1.7916 0.0719-3.5852 0.1538-5.3717 0.31358l0.019 6.3165c0.0939 0.31557 0.0529 0.64812 0.0589 0.97168l0.0679 10.49c0.13482 1.6008 0.0589 3.2127 0.11385 4.8205l0.18175 8.7742c0.0989 1.5859 0.0459 3.1817 0.21471 4.7636l4.4869 2.3658c0.40645 0.16078 0.80192 0.5912 1.2603 0.45538 1.0126-0.68707 1.9124-1.5259 2.8442-2.3159 0.23368-0.1468 0.0839-0.42542 0.029-0.62615-1.5369-0.47336-3.1378-0.67809-4.7016-1.0276-0.54327-0.14879-1.2703-0.10585-1.5619-0.68407 1.0146-0.27363 2.0792-0.11784 3.1158-0.0809l7.2182 0.42842c0.25366 0.0479 0.65112 0.0529 0.6631 0.41444 0.0569 0.47136-0.40245 0.68308-0.68207 0.9607-1.1165 1.0186-2.1072 2.1611-3.1617 3.2406-0.63415 0.64114-1.0496 1.491-1.8265 1.9823-0.26863 0.22969-0.65411 0.19673-0.96669 0.10386-2.5566-0.78994-5.0951-1.6478-7.5848-2.6245-2.2899-0.91576-4.6288-1.8355-6.624-3.3155-0.26764-0.25266-0.63615-0.49633-0.65612-0.89879-0.2197-3.7809-0.16278-7.5688-0.16877-11.355l0.0939-4.3941c0.019-6.2995-0.14181-12.597-0.27263-18.894a22.309 22.309 0 0 1-3.0439-0.0379c-0.4414-0.016-0.65811-0.56225-0.48734-0.92376a3.0549 3.0549 0 0 1 0.47436-0.58321c1.9773-1.9983 3.8318-4.1284 5.4217-6.4543 1.3632-1.9204 2.5076-3.9866 3.5632-6.0908zm35.121 5.6324c0.39646-0.2976 0.82189 0.0849 0.8848 0.49633 0.23469 1.2453 0.2227 2.5216 0.43142 3.7699l4.42-2.6694c0.32356-0.19673 0.58121-0.53028 0.98067-0.57821 0.26664-0.0489 0.63714-0.035 0.79393 0.23068 0.66011 0.92276 1.2214 1.9154 1.8126 2.8821 0.91577 1.6038 1.8525 3.2047 2.5246 4.9273 0.23868 0.56324 0.27663 1.2004 0.16278 1.7966-0.42842 0.86882-1.2813 1.3941-1.9773 2.0273l-6.0548 4.7636c-0.19074-0.2916-0.45338-0.52129-0.70305-0.75498 0.54627-0.84086 1.1934-1.6148 1.7676-2.4367 0.0419-0.19075-0.023-0.38149-0.0719-0.56324l-2.197-7.0195c-0.52229 0.36251-1.0476 0.72702-1.5898 1.0626l0.34453 12.774c0.1488 1.457 0.0609 2.937 0.14481 4.402 0.1448 1.2603 0.026 2.5436 0.16378 3.8069 0.0719 3.2246 0.24267 6.4443 0.39546 9.6649 0.13881 1.1135 0.98367 1.9673 1.9064 2.5186 1.1654 0.69706 2.4786 1.1095 3.7949 1.4131 0.22769 0.0609 0.45838 0.10086 0.69207 0.16678 0.54825 0.0719 1.0945 0.18574 1.6498 0.24067l-0.032 0.93574c-1.1984 0.0679-2.3968-0.014-3.5932 6e-3 -0.5163-0.033-1.0376 0.025-1.5419-0.0779a20.264 20.264 0 0 1-4.8215-0.56324 60.478 60.478 0 0 1-4.6827-1.2523c-1.9464-0.57223-3.9846-0.99866-6.0209-0.75498-0.13482-0.31358-0.27563-0.62516-0.36251-0.95172 1.7017-0.1498 2.8811-1.5988 3.7729-2.92 0.69307-1.4231 0.69207-3.0529 0.72303-4.6008 0.0469-4.444-0.0589-8.888-0.0889-13.332-0.12484-1.1664-0.0429-2.3558-0.0919-3.5302 0.013-2.4517-0.16877-4.8944-0.12583-7.3481-0.70405-0.0389-1.4041 0.0959-2.1072 0.0679l-0.034-0.51631c0.30659-0.46337 0.56823-0.96869 0.99366-1.3382zm-18.688 3.4414a4.8924 4.8924 0 0 0-1.1195 0.1518l-8.0541 6.4333c-0.29061 1.3602-0.31857 2.7673-0.50332 4.1424-0.015 0.91277-0.3695 1.7836-0.36151 2.6964 0.16078 3.728 0.12283 7.4589 0.17376 11.19-0.014 0.91277-0.30758 1.7906-0.34354 2.7004 0.53029 0.55126 1.0186 1.1425 1.5449 1.7007 1.8874 1.9414 3.7809 3.9137 6.0199 5.4566 0.34852 0.27063 0.80091 0.32356 1.2223 0.40045 1.0766 0.0989 2.1641 0.2247 3.2456 0.0609 0.52429 0.033 0.92076-0.3665 1.2124-0.75498 0.98367-1.446 2.0982-2.7982 3.1617-4.1844 0.56723-0.79492 1.2693-1.506 1.6927-2.3928-0.93274-1.3462-1.6388-2.8761-2.7772-4.0605l-0.51731 0.0459c-0.0959 0.88481-0.30458 1.7496-0.49633 2.6185-0.55125 2.26-1.1514 4.5289-2.1651 6.633-0.11485 0.21072-0.23768 0.63614-0.54926 0.42543-1.5679-0.88081-2.7223-2.4856-3.1248-4.2343-0.24367-1.456-0.16378-2.94-0.28661-4.407l-0.0749-5.5195c-0.013-0.23868 0.022-0.49334-0.0989-0.70805 0.13882-0.2187 0.0819-0.47236 0.029-0.70404 0.0659-0.99866-0.24068-2.0842 0.28062-3.0149 1.501-0.016 2.947 0.43042 4.3971 0.76496l2.6005 0.66311c0.18276 0.0559 0.36451 0.0959 0.55725 0.14181l1.8954 0.48235c0.22869 0.0499 0.53028 0.11983 0.69806-0.10386 1.2603-1.1744 2.0362-2.7523 2.8282-4.2523-0.27264-0.94073-0.68807-1.8485-1.0096-2.7772l-1.4321-3.8088c-0.2996-0.72303-0.51032-1.483-0.83687-2.193-0.96171-0.60718-1.9973-1.1045-2.991-1.6658l-1.1195-0.57422c-0.98467-0.48635-1.9554-1.0326-3.0149-1.3362-0.2247-0.014-0.45239-0.02-0.68008-0.014zm-0.24866 2.4836c0.26664 6e-3 0.49833 0.14181 0.55325 0.45738l1.6727 4.2423 2.1541 5.3717a7.6826 7.6826 0 0 0-0.013 0.36151c-0.86483 0.0439-1.7257-0.11884-2.5795-0.21171-1.2244-0.0709-2.4417-0.24467-3.664-0.34753 0.013-1.446 0.15878-2.8831 0.21171-4.3272 0.17576-1.6927 0.0459-3.4823 0.77295-5.0642 0.14181-0.28961 0.53928-0.49034 0.88281-0.48235zm-105.61 0.41144c1.2004 0.23568 2.4377 0.0799 3.6511 0.2207 1.0875 0.022 2.1651 0.13882 3.2406 0.27563 0.60518 0.022 1.2214 0.0499 1.8165-0.0909l-0.0389 0.35852c-0.51431 0.83987-1.0076 1.7007-1.3791 2.6145-1.3152 2.8412-2.8532 5.5675-4.3781 8.2998-1.3721 2.4217-2.5915 4.9253-3.9427 7.3581-3.5632 6.4024-7.4479 12.644-11.899 18.468-2.4217 0.0469-4.8415-0.16178-7.2452-0.4484-2.2809-0.35652-4.5548-0.80591-6.7738-1.456a37.257 37.257 0 0 1-2.2679-0.71304c-0.5223-0.18774-1.0516-0.35951-1.5659-0.56923-0.53827-0.20472-1.0626-0.43141-1.5898-0.65811-0.94073-0.41044-1.8575-0.86583-2.7563-1.3522-0.0629-0.52729 0.32556-0.99066 0.55126-1.443 0.94972-1.494 2.208-2.7533 3.4873-3.9626 1.8485 0.12483 3.69 0.34553 5.5365 0.49833 0.45838 0.13282 0.99865-0.0579 1.4011 0.24267-0.0439 0.26264-0.31857 0.28661-0.51531 0.35951l-4.5678 1.2503c-0.32056 0.0589-0.36251 0.42942-0.49034 0.6731-0.24466 0.66909-0.57722 1.3362-0.59619 2.0612 1.0905 0.5213 2.3259 0.59719 3.5023 0.80591 3.8698 0.52429 7.7985 0.76397 11.691 0.3685l4.3232-6.8917c0.42842-0.62615 0.78294-1.3032 1.2583-1.8954 0.2187-0.27264 0.0899-0.65412 0.0319-0.96171-0.99366-3.5013-2.0912-6.9716-3.1687-10.447l-1.4101-4.3991-0.71204-2.1271c-0.26464-0.71803-0.47636-1.459-0.8119-2.1501-0.41045-0.50732-1.1225-0.61218-1.7337-0.67509a1.5928 1.5928 0 0 1 0.26764-0.52229 31.26 31.26 0 0 0 1.466-0.0489c1.5479-0.15279 3.1168-0.0729 4.6697-0.18075 2.0193 0.029 4.0276-0.25466 6.0388-0.32057-0.39147 0.84685-1.5529 0.74499-2.0592 1.482-0.25465 0.28561-0.28761 0.68907-0.18575 1.0466l2.4267 9.0068c0.12384 0.33754 0.1528 0.739 0.4454 0.98367 1.4281-2.233 2.6654-4.5818 3.9736-6.8887l1.5429-2.9111c0.23468-0.47736 0.25665-1.0206 0.4434-1.514a40.535 40.535 0 0 1 0.56923-1.7107l0.2966-0.74c-0.98067-0.0939-1.8156-0.68407-2.5466-1.2992z" fill="#fff"/>
	</g>
</svg>
