<svg xmlns="http://www.w3.org/2000/svg" viewBox="0 0 1011.8 262.5" ><path d="M1003.9 0c4.377 0 7.905 3.563 7.905 7.905v147.01a7.94 7.94 0 0 1-7.905 7.905H797.65c-4.377 0-7.905-3.562-7.905-7.905V7.935c0-4.377 3.563-7.905 7.905-7.905h206.25" fill="#fff"/><path d="M903.77 48.789v62.666c0 2.748-1.391 4.275-5.666 4.275-1.934 0-3.732-.271-5.123-.543V86.348h-35.76v25.141c0 2.748-1.391 4.275-5.666 4.275-2.07 0-4.139-.271-5.123-.543v-62.7c0-2.646 1.391-4.275 5.802-4.275 1.934 0 3.834.271 4.953.543v27.889h35.591V52.521c0-2.646 1.527-4.275 5.938-4.275 2.036 0 3.936.271 5.055.543m73.359 33.114c0 18.796-13.13 33.012-33.691 33.012h-19.17c-4.139 0-5.666-1.662-5.666-4.275V53.335c0-2.612 1.527-4.275 5.666-4.275h19.17c20.561 0 33.691 14.08 33.691 32.843m-10.925 0c0-14.08-8.821-23.207-22.766-23.207h-14.08v46.516h14.08c13.945.034 22.766-9.093 22.766-23.309" fill="#9c001f"/><g transform="translate(26.208 .743)"><g transform="matrix(.65155 0 0 .65155 -36.045995 -108.183683)"><path d="M126.7 314.7c0 21.5-14 37.1-42.6 40.2-20.6 2.2-50.5-.4-64.7-2-.5-2.3-.9-5.2-.9-7.5 0-18.7 10.1-23 19.6-23 9.9 0 25.5 1.7 37 1.7 12.8 0 16.6-4.3 16.6-8.4 0-5.4-5.1-7.6-15-9.5L49.6 301c-22.5-4.3-34.5-19.8-34.5-36.3 0-20 14.2-36.8 42.2-39.9 21.1-2.3 46.9.3 61 2 .5 2.4.8 4.7.8 7.2 0 18.7-9.9 22.7-19.4 22.7-7.3 0-18.6-1.3-31.6-1.3-13.2 0-18.6 3.6-18.6 8 0 4.7 5.2 6.6 13.4 8.1l25.8 4.8c26.6 4.9 38 19.9 38 38.4m46.3 23c0 11.5-4.5 18.1-27 18.1-3 0-5.6-.2-8.1-.6V202.9c0-11.6 3.9-23.7 26.6-23.7 2.9 0 5.8.3 8.5.9zm91.9 59c3 1.5 9 3.4 16.6 3.5 13.1.3 20.2-4.7 25.5-16.4l70-155.7c-2.9-1.5-9.3-3.3-14.5-3.4-9-.2-21.1 1.6-28.8 20L310.9 298l-44.5-72.3c-2.9-.9-9.9-2.1-15-2.1-15.8 0-24.5 5.8-33.6 15.6l-43.2 47.2 34.8 54.7c6.4 10 14.9 15.1 28.6 15.1 9 0 16.5-2.1 20-3.7l-41.9-63 29.7-31.5 48.7 76.3z" fill="#ff0031"/><linearGradient id="A" x1="414.37" x2="1244.631" y1="289.839" y2="289.839" gradientUnits="userSpaceOnUse"><stop stop-color="#ff0031" offset="0"/><stop stop-color="#9b001f" offset="1"/></linearGradient><path d="M1228 164.9H430.9c-9.2 0-16.7 7.5-16.7 16.7v216.5c0 9.2 7.5 16.7 16.7 16.7h797c9.2 0 16.7-7.5 16.7-16.7V181.5c-.1-9.2-7.4-16.6-16.6-16.6" fill="url(#A)"/><linearGradient id="B" x1="197.483" x2="194.588" y1="295.135" y2="212.243" gradientUnits="userSpaceOnUse"><stop stop-color="#fff" offset="0"/><stop stop-color="#fff" stop-opacity=".25" offset=".515"/></linearGradient><path d="M138 202.9v104.5c0-4.2 3.2-8.6 8.6-8.8l17.6-.6c3.5-.1 8.8-2.5 8.9-8.9v-109c-2.7-.6-5.6-.9-8.5-.9-22.7.1-26.6 12.1-26.6 23.7m80 36.4l-43.2 47.2 3.5 5.4c1.5 2 4.4 5.4 10.2 5.2l24.6-.9c5.4-.2 8.8 2.1 10.9 4.9l-7.7-11.6L246 258l19.9 31.3c3.6 4.7 9 4.8 10.2 4.8 1 0 27.2-.9 28.3-1 1.8-.1 3.9.9 5.5 3.2l-43.3-70.4c-2.9-.9-9.9-2.1-15-2.1-15.8-.1-24.5 5.6-33.6 15.5M57.3 224.8c-28 3.1-42.2 19.8-42.2 39.9 0 10.3 4.7 20.2 13.7 27.3 6.8 4.5 13.8 6.2 20.7 7.4 5.7 1 19 1.9 28.9 1.5l30.8-1.1c11.6-.4 17.8 9.5 17.2 19.4v-.5c.1-1.3.2-2.6.2-3.9 0-18.5-11.4-33.6-37.9-38.5l-25.8-4.8c-8.3-1.4-13.4-3.4-13.4-8.1 0-4.4 5.5-8.1 18.6-8.1 13 0 24.3 1.3 31.6 1.3 9.5 0 19.4-4 19.4-22.7 0-2.5-.3-4.8-.8-7.2-10.1-1.2-26.3-2.9-42.4-2.9-6.3.1-12.6.4-18.6 1m276.2 19.9l-22.1 52.1c0-.1 1.4-4.1 5.7-4.3l23.4-.8c7.1-.3 9.9-5.1 10.7-6.7l25.6-57.1c-2.9-1.5-9.3-3.3-14.5-3.4h-1.1c-8.9.1-20.3 2.5-27.7 20.2" fill="url(#B)" opacity=".3" enable-background="new"/><linearGradient id="C" x1="830.555" x2="826.25" y1="276.73" y2="153.473" gradientUnits="userSpaceOnUse"><stop stop-color="#fff" offset="0"/><stop stop-color="#fff" stop-opacity=".25" offset=".515"/></linearGradient><path d="M430.9 164.9c-9.2 0-16.7 7.5-16.7 16.7v120.2c0-1.8.7-11.7 12-12.8 0 0 .6-.1 1.6-.1l804.4-28.2c6.3-.2 12.4-4.9 12.4-12.7v-66.3c0-9.2-7.5-16.7-16.7-16.7z" fill="url(#C)" opacity=".3" enable-background="new"/><g fill="#fff"><path d="M1190.1 275.3v74.5c-2 .5-5.4 1-8.8 1-7 0-10.1-2.5-10.1-7.4v-9.8c-11.1 11.7-24.3 18.6-41.8 18.6-26.3 0-40.8-16.8-40.8-35.6 0-28.4 30.7-40.8 82.6-37.4V276c0-18.1-5.9-28.9-28.9-28.9-11.9 0-22.2 2.6-29.2 4.9-3.6 1-6.4 1.9-8.3 1.9-5.4 0-8.5-4.9-7.3-15.2 11.7-4.4 29.2-8.3 45.6-8.3 34.3.1 47 17.2 47 44.9m-19.1 40.8v-22.5c-33.8-1.5-63 1.8-63 22.7 0 10.3 8.8 19.9 24.5 19.9 16 0 29.5-8.1 38.5-20.1m-709.6-25c0-34.8 25.8-60.7 59.6-60.7 16.2 0 30.7 4.4 40.8 9.6 1 10.6-2.9 15-7.8 15-6.9 0-14.5-7.5-32.3-7.5-22.5 0-40.8 16.8-40.8 43.9s18.3 44.4 40.8 44.4c17.8 0 25.5-7.5 32.3-7.5 4.9 0 8.8 4.4 7.8 15-10.3 4.9-24.8 9.3-40.8 9.3-33.8-.5-59.6-26.7-59.6-61.5m413.8 7.8h-91.1c2.9 22.7 18.9 35.8 42.4 35.8 10.1 0 17.8-2.3 25.3-4.6 4.9-1.8 7.5-2.8 9.6-2.8 4.9 0 8.5 4.6 7.3 15.2-10.3 4.6-26.1 9.6-42.9 9.6-36.4 0-61.5-24.8-61.5-61.2 0-35.1 26.1-60.6 58.3-60.6 35.9 0 53.7 28.7 53.7 56.6-.1 3.7-.4 7.6-1.1 12m-91-15.7h73.3c-.8-20.1-13.7-35.9-34.8-35.9-18.8-.2-35.4 12.4-38.5 35.9m-201.8-77.6c0-7.2 5.7-12.4 12.4-12.4 6.9 0 12.2 5.4 12.2 12.4 0 6.4-5.4 12.2-12.2 12.2s-12.4-5.9-12.4-12.2m2.7 144.1V239.3c0-4.4 2.4-7.3 10.3-7.3 3.1 0 6.9.8 8.8 1.3v110.2c0 4.6-2.6 7.3-10.3 7.3-3.2-.1-6.9-.6-8.8-1.1"/><path d="M1064.5 272.9v70.5c0 4.6-2.6 7.3-10.3 7.3-3.1 0-6.9-.5-8.8-1V275c0-17.3-8.3-27.6-23.8-27.6-13.2 0-24.5 9.6-28.9 19.1v76.9c0 4.6-2.4 7.3-10.1 7.3-3.4 0-7-.5-9-1V275c0-17.3-8-27.6-23.8-27.6-13.2 0-24.5 9.6-28.9 19.1v76.9c0 4.6-2.4 7.3-10.1 7.3-3.4 0-7.2-.5-8.8-1V233.2c2-.5 5.7-1.3 8.8-1.3 7.3 0 9.8 2.9 9.8 7.8v8.3c7.5-10.1 19.4-17.6 33.8-17.6 15.5 0 27.6 8 33.8 21.2 8-11.7 20.4-21.2 37.7-21.2 25.2.1 38.6 19.2 38.6 42.5m-325.3 7.5v63c0 4.6-2.4 7.3-10.1 7.3-3.1 0-6.9-.5-8.8-1V283c0-24-11.9-35.4-29.4-35.4-13.9 0-28.9 9.8-35.1 21.1v74.9c0 4.6-2.5 7.3-10.1 7.3-3.4 0-7-.5-8.8-1V233.2c1.8-.5 5.4-1.3 8.8-1.3 7.5 0 10.1 2.9 10.1 7.3v10.1c8.5-10.3 21.5-18.9 39.2-18.9 24.1.1 44.2 15.4 44.2 50"/></g></g><path d="M479.116 178.865l2.374 18.322 1.406 12.071c-1.314-.69-2.546-1.627-4.023-1.934-.014.697.121 1.383.231 2.068.966 5.698 1.879 11.41 2.555 17.15.09.812.233 1.621.249 2.441-.159-.059-.329-.099-.44-.234L479 226.16l4.932 29.995c.271 1.592.461 3.071.788 4.59.279-.971.303-1.992.461-2.987.573-6.137.908-12.293 1.377-18.439.523 1.092 1.101 2.157 1.654 3.236.358.65.646 1.34 1.072 1.951l.383.071.035-8.231c.066-1.564-.058-3.13.085-4.69l.051-9.101 3.048 6.131c.155-.207.454-.382.391-.681l-.944-15.654c-.116-1.048-.092-2.109-.128-3.161.244.09.362.331.497.536l3.771 6.153c.176.268.549.191.823.191 1.416-.135 2.794-.537 4.134-1.004 2.005-.727 3.999-1.68 5.482-3.253 1.058.206 2.097.564 3.086 1l-.018 10.467c.081 1.961-.157 3.972.405 5.882.43 1.368 1.559 2.335 2.579 3.274 1.818 1.592 3.724 3.081 5.631 4.566.826.669 1.961.564 2.952.507 1.188-.09 2.241-.681 3.306-1.161a44.448 44.448 0 0 0 2.956-1.504c1.284-.709 2.384-1.757 3.137-3.016.477-.772.589-1.69.741-2.565a36.475 36.475 0 0 0 .401-5.688c.067-3.434-.525-6.834-.851-10.243l-.067-.106c-.023-.673-.148-1.335-.238-2.001-.135-.891-.23-1.808-.618-2.632-.353-.786-.906-1.466-1.532-2.051-1.665-1.539-3.479-2.941-5.496-3.987-.852-.488-1.839-.058-2.671.255-2.904 1.23-5.587 2.917-8.235 4.616-.623.374-1.147.954-1.327 1.671-.153.604-.463 1.152-.823 1.654-.979-.097-1.862-.555-2.799-.819l1.206-14.33c.051-.908.279-1.879-.116-2.743-.422-1.01-1.166-1.831-1.827-2.685l-7.418-8.952c-.541-.08-1.072.053-1.571.249l-4.946 1.778c-.234.081-.483.107-.724.142-.245-1.432.089-2.875.114-4.311-2.354-.029-4.716.109-7.071-.018-1.666-.104-3.335-.128-5.003-.196zm17.867 6.138c.221-.006.437.067.632.185.135.241.183.515.21.788.743 4.023.976 8.113 1.202 12.191.067.938-.016 1.891.114 2.82a158.449 158.449 0 0 1 .035 5.865c-.441.08-.889.032-1.327-.029-1.283-.128-2.569.067-3.828.291-.647.072-1.287.196-1.934.259-.152-5.578-.066-11.158-.124-16.736v-3.822c0-.319.099-.746.475-.802 1.413-.427 2.881-.642 4.317-.98a.941.941 0 0 1 .224-.032zm25.645 19.961c.188.674.016 1.378-.198 2.023-.474 1.038-1.317 1.847-2.228 2.504-.813.626-1.914.704-2.671 1.42a.874.874 0 0 1-.138-.528c0-.623-.044-1.255.12-1.862 1.635-1.282 3.393-2.397 5.116-3.555zm-28.774 4.03c.473.023.957-.006 1.42.12 1.265.102 2.52.329 3.75.646l.124.308a7.58 7.58 0 0 0 .024.355c-.473.766-1.046 1.461-1.607 2.161-.536.196-.812-.363-1.139-.66-.876-.961-1.746-1.929-2.571-2.93zm29.288 2.534c.392 2.918.783 5.838 1.008 8.774.085 1.04.013 2.088.124 3.125.066.856-.09 1.705-.063 2.561-.016 1.661-.176 3.319-.373 4.967-.138.858-.215 1.747-.564 2.555-.8.46-1.597.936-2.469 1.245-.215.096-.45.107-.678.089-.612-.628-1.308-1.215-1.738-1.99-.287-3.138-.551-6.288-.66-9.441-.13-.982-.078-1.978-.118-2.966-.172-2.478-.102-4.967-.124-7.451a16.713 16.713 0 0 1 1.106-.465c.683-.321 1.394-.574 2.068-.919.823-.073 1.652-.075 2.48-.085zm-76.311-25.453c.357-.092.824.01.986.374.135 1.86.08 3.737.222 5.594l.081.389c.161-.015.334-.014.466-.125.958-.657 1.898-1.341 2.875-1.968.465-.284.934-.592 1.467-.735.497-.072.862.353 1.113.724.724 1.073 1.273 2.253 1.826 3.422.622 1.44 1.351 2.858 1.703 4.397.182.594-.43.937-.822 1.236-1.97 1.379-3.999 2.68-6.1 3.855-.484.308-.726-.441-1.054-.674a30.104 30.104 0 0 1 1.273-1.421c.173-.157.061-.407.024-.601l-1.473-4.927-.057-.345c-.459-.116-.93-.043-1.348.171l-.153.29c-.097 2.607.013 5.216-.013 7.824l.014 9.656c.109.894.046 1.795.061 2.694l.061 6.982c.411 1.024 1.41 1.618 2.043 2.465-.58.03-1.157-.032-1.727-.119-.848-.014-1.705-.078-2.546-.085-1.365-.13-2.75-.038-4.102.145-.611.077-1.234.011-1.838.14-.789.001-1.63.15-2.37-.195-.386-.176-.775-.35-1.173-.497l.078-.186c.714-.415 1.332-.971 1.927-1.537.523-.531 1.058-1.121 1.205-1.877.437-2.094.488-4.238.625-6.364l.174-18.602c-.019-.234.051-.497-.07-.709.201-.528.043-1.145.092-1.709a29.153 29.153 0 0 0-1.052.329l-.478.016-.225-.359c.24-.312.559-.544.852-.804l6.274-6.202c.297-.349.716-.559 1.154-.666zm-62.315 1.388c1.207.114 2.411.339 3.632.315 1.987.101 3.982.118 5.968-.035 1.585-.061 3.162-.336 4.748-.297-.076.508-.574.746-.81 1.162-.697 1.172-1.258 2.44-1.566 3.77a22.742 22.742 0 0 0-.188 2.948l.048 15.733c-.054.244.209.343.401.252 3.024-.753 6.156-.986 9.264-.894 1.118.048 2.282-.044 3.359.303l-.061.367c-.338.124-.69.239-.962.483-.852.705-1.631 1.497-2.432 2.259-.201.22-.535.439-.432.786.31 1.733.383 3.499.722 5.228l2.057 7.209c.257 0 .496-.094.67-.287.374-.384.824-.685 1.223-1.044.148-1.563.202-3.137.243-4.707.106-1.082.068-2.171.102-3.255.042-5.704-.07-11.422-.759-17.09-.316.075-.637.147-.929.291a36.979 36.979 0 0 0-4.355 2.301c-.377.22-.728.528-.866.956-.316.987-.228 2.046-.173 3.066l-.683.22c-1.191-1.918-2.425-3.829-3.268-5.933-.241-.721-.617-1.454-.474-2.235.58-.277 1.053-.721 1.583-1.077 2.116-1.497 4.346-2.861 6.748-3.851.326-.111.785-.339 1.054-.004 2.224 2.229 4.377 4.527 6.508 6.843 1.148 1.283 2.406 2.619 2.751 4.37.326 2.043.374 4.115.383 6.181-.019 2.363.059 4.731-.111 7.089l-.067 5.44c.814.37 1.759.405 2.617.177-.037.26-.239.44-.42.611l-3.608 3.2c-.829.695-1.241 1.751-2.067 2.451-.88.775-2.2.842-3.274.497-1.1-.57-1.097-1.949-1.186-3.022-1.435 1.032-2.842 2.105-4.243 3.181-.661.511-1.537.221-2.273.08-.539-.149-1.226-.36-1.374-.976l-1.861-5.657c-.678-2.118-1.472-4.206-1.927-6.388-.195-.7.152-1.386.499-1.971.938-1.512 2.284-2.7 3.559-3.915-1.985.379-4.052.695-5.824 1.727l.029 14.645c.095 2.083-.013 4.169.066 6.253l.082 7.364c.147 1.915.454 3.999 1.783 5.484.478.593 1.254.791 1.786 1.317a3.65 3.65 0 0 1-.274.642c-.24.001-.478.015-.716-.015-2.636-.427-5.293-.735-7.962-.842-2.512-.019-5.035-.114-7.535.188-.125-.411-.541-.732-.511-1.176 1.392-.779 2.733-1.862 3.282-3.416.695-1.971.786-4.085.958-6.148a148.25 148.25 0 0 0 .126-11.22c-.095-2.504-.073-5.022-.389-7.512-2.613 2.046-5.847 3.077-9.044 3.786l.133 15.595c.053 1.091-.051 2.191.078 3.278.319 1.192 1.491 1.804 2.468 2.391.225.149.587.47.384.742-.407.051-.783-.147-1.169-.23-1.245-.268-2.517-.35-3.781-.463-4.206-.282-8.426-.353-12.641-.377-.15-.046-.566-.191-.255-.329l.044-.485c1.503-.593 3.014-1.456 3.85-2.894.509-.858.522-1.881.608-2.845.118-1.894.083-3.791.157-5.688l-.092-7.872c-1.994-.924-3.991-1.847-5.936-2.872-1.355-.669-2.316-1.898-3.139-3.126-.69-1.086-1.31-2.224-1.794-3.42v-.291c2.168-.984 4.556-1.324 6.896-1.645 0 .231.068.536-.178.67-1.458.872-2.997 1.609-4.418 2.547.477.558 1.072.992 1.666 1.413 1.644 1.138 3.424 2.064 5.223 2.929.492.22.975.518 1.53.523.089-.918.032-1.843.042-2.765-.063-1.887-.014-3.781-.157-5.665-.047-1.422 0-2.848-.128-4.264l-.502-14.205c-.289-1.484-1.592-2.497-2.96-2.958.024-.282.193-.566.485-.63.48-.044.963.007 1.444.038.659.096 1.324.035 1.987.049.99-.013 1.985.046 2.973-.066l4.541-.073c1.295-.101 2.594-.119 3.893-.125l-.138.836c-.804.412-1.314 1.228-1.528 2.085-.157.89-.135 1.798-.147 2.699l.08 7.095c.049 1.987.016 3.979.15 5.962l.09 4.549c.115 1.932.116 3.871.259 5.805.934-.129 1.774-.599 2.607-1.01 2.259-1.247 4.46-2.63 6.463-4.262.022-8.042-.201-16.089-.838-24.102-.03-.838-.699-1.44-1.407-1.779-.394-.159-.515-.582-.469-.972zm158.007-.164c.431-.082.536.383.522.714l.119 5.899c.066 1.157-.044 2.329.124 3.474 1.374-.015 2.747.047 4.123.042l.085.751c.118.411.053.846.176 1.254a28.038 28.038 0 0 1 .115 1.338l-3.963.063c-.183-.013-.355.039-.518.104-.249 3.992-.044 7.992-.126 11.99l-.331 10.373c-.116.508-.048 1.035-.085 1.552l-.498 11.772c-.058 1-.271 2.152.383 3.01 1.061 1.073 2.287 1.977 3.545 2.804-.26.295-.498.628-.824.852-.255.001-.474-.161-.698-.249-2.593-1.287-5.212-2.528-7.712-3.994-.636-.373-1.259-.813-1.66-1.444-.394-.579-.507-1.293-.512-1.979l.247-11.067c.123-3.649.526-7.278.599-10.928.072-3.779.038-7.578-.346-11.335-.029-.549-.104-1.092-.219-1.63-2.015.008-4.029-.029-6.043-.029-.025-.355-.04-.709-.013-1.064 2.442-1.362 4.689-3.062 6.796-4.898a39.633 39.633 0 0 0 5.564-6.082c.35-.46.686-.941 1.152-1.296zm-116.685 2.619c.322-.177.628-.487 1.024-.451.579.095 1.099.383 1.645.579.305 1.393.302 2.851.523 4.26l.051.497.201.152c.755-.608 1.594-1.101 2.41-1.622.753-.472 1.635-.884 2.546-.743.576.139.884.704 1.161 1.176.622 1.259 1.159 2.559 1.675 3.865.584 1.417 1.21 2.842 1.492 4.354-.034.48-.26.927-.681 1.181-1.857 1.206-3.757 2.343-5.66 3.475-.212.118-.418.282-.674.263a3.072 3.072 0 0 0-.508-.655c.461-.455.887-.946 1.316-1.43l-.116-.081c-.121-.732-.363-1.437-.555-2.154l-1.359-4.723c-.094-.437-.616-.947-1.033-.547-.118.459-.043.938-.039 1.406l.301 9.675c.163 1.118.013 2.265.186 3.383.129 2.094.411 4.176.53 6.271.288 2.552.273 5.142.68 7.684.259.708 1.006 1.053 1.632 1.377l.162.276-.101.332c-3.953.096-7.91.078-11.867.082-.42 0-.843.022-1.26-.048.219-.542.598-1.024 1.106-1.32.512-.288 1.029-.593 1.437-1.02.149-.148.209-.35.191-.555l-.013-12.067c.044-.57-.101-1.131-.077-1.702l-.068-9.096c-.163-1.77-.016-3.561-.257-5.326-1.44-.001-2.893-.07-4.325.113-.253-.068-.637-.219-.662-.517zm129.229 1.321c.193-.382.401-.791.813-.982l.37.205c.147 1.196.119 2.403.186 3.603.106.461.048.938.081 1.408l.326 6.986c.673-.015 1.35.016 2.023-.043.474.091.947-.047 1.424-.038a46.368 46.368 0 0 0 2.233-.025c-.045.936.019 1.889-.163 2.812-1.794.072-3.59.154-5.379.314l.019 6.325c.094.316.053.649.059.973l.068 10.504c.135 1.603.059 3.217.114 4.827l.182 8.786c.099 1.588.045 3.186.215 4.77l4.493 2.369c.407.161.803.592 1.262.456 1.014-.688 1.915-1.528 2.848-2.319.234-.147.083-.426.029-.627-1.539-.474-3.142-.679-4.708-1.029-.544-.149-1.272-.106-1.564-.685 1.016-.274 2.082-.118 3.12-.081l7.228.429c.254.048.652.053.664.415.057.472-.403.684-.683.962-1.118 1.02-2.11 2.164-3.166 3.245-.635.642-1.051 1.493-1.829 1.985-.269.23-.655.197-.968.104-2.56-.791-5.102-1.65-7.595-2.628-2.293-.917-4.635-1.838-6.633-3.32-.268-.253-.637-.497-.657-.9-.22-3.786-.163-7.579-.169-11.37l.094-4.4c.019-6.308-.142-12.614-.273-18.92a22.339 22.339 0 0 1-3.048-.038c-.442-.016-.659-.563-.488-.925a3.059 3.059 0 0 1 .475-.584c1.98-2.001 3.837-4.134 5.429-6.463 1.365-1.923 2.511-3.992 3.568-6.099zm35.168 5.64c.397-.298.823.085.886.497.235 1.247.223 2.525.432 3.775l4.426-2.673c.324-.197.582-.531.982-.579.267-.049.638-.035.795.231.661.924 1.223 1.918 1.815 2.886.917 1.606 1.855 3.209 2.528 4.934.239.564.277 1.202.163 1.799-.429.87-1.283 1.396-1.98 2.03l-6.063 4.77c-.191-.292-.454-.522-.704-.756.547-.842 1.195-1.617 1.77-2.44.042-.191-.023-.382-.072-.564l-2.2-7.029c-.523.363-1.049.728-1.592 1.064l.345 12.791c.149 1.459.061 2.941.145 4.408.145 1.262.027 2.547.164 3.812.072 3.229.243 6.453.396 9.678.139 1.115.985 1.97 1.909 2.522 1.167.698 2.482 1.111 3.8 1.415.228.061.459.101.693.167.549.072 1.096.186 1.652.241l-.032.937c-1.2.068-2.4-.014-3.598.006-.517-.033-1.039.025-1.544-.078a20.291 20.291 0 0 1-4.828-.564 60.56 60.56 0 0 1-4.689-1.254c-1.949-.573-3.99-1-6.029-.756-.135-.314-.276-.626-.363-.953 1.704-.15 2.885-1.601 3.778-2.924.694-1.425.693-3.057.724-4.607.047-4.45-.059-8.9-.088-13.35-.125-1.168-.043-2.359-.092-3.535.013-2.455-.169-4.901-.126-7.358-.705-.039-1.406.096-2.11.068l-.034-.517c.307-.464.569-.97.995-1.34zm-18.713 3.446a4.899 4.899 0 0 0-1.121.152l-8.064 6.442c-.291 1.362-.319 2.771-.504 4.148-.015.914-.37 1.786-.362 2.7.161 3.733.123 7.469.174 11.205-.014.914-.308 1.793-.344 2.704.531.552 1.02 1.144 1.547 1.703 1.89 1.944 3.786 3.919 6.028 5.464.349.271.802.324 1.224.401 1.078.099 2.167.225 3.25.061.525.033.922-.367 1.214-.756.985-1.448 2.101-2.802 3.166-4.19.568-.796 1.271-1.508 1.695-2.396-.934-1.348-1.641-2.88-2.781-4.066l-.518.046c-.096.886-.305 1.752-.497 2.622-.552 2.263-1.153 4.535-2.168 6.642-.115.211-.238.637-.55.426-1.57-.882-2.726-2.489-3.129-4.24-.244-1.458-.164-2.944-.287-4.413l-.075-5.527c-.013-.239.021-.494-.099-.709.139-.219.082-.473.029-.705.066-1-.241-2.087.281-3.019 1.503-.016 2.951.431 4.403.766l2.604.664c.183.056.365.096.558.142l1.898.483c.229.05.531.12.699-.104 1.262-1.176 2.039-2.756 2.832-4.258-.273-.942-.689-1.851-1.011-2.781l-1.434-3.814c-.3-.724-.511-1.485-.838-2.196-.963-.608-2-1.106-2.995-1.668l-1.121-.575c-.986-.487-1.958-1.034-3.019-1.338-.225-.014-.453-.02-.681-.014zm-.249 2.487c.267.006.499.142.554.458l1.675 4.248 2.157 5.379a7.693 7.693 0 0 0-.013.362c-.866.044-1.728-.119-2.583-.212-1.226-.071-2.445-.245-3.669-.348.013-1.448.159-2.887.212-4.333.176-1.695.045-3.487.774-5.071.142-.29.54-.491.884-.483zm-105.752.412c1.202.236 2.441.08 3.656.221 1.089.022 2.168.139 3.245.276.606.022 1.223.05 1.819-.091l-.039.359c-.515.841-1.009 1.703-1.381 2.618-1.317 2.845-2.857 5.575-4.384 8.311-1.374 2.425-2.595 4.932-3.948 7.368-3.568 6.411-7.458 12.661-11.915 18.493-2.425.047-4.848-.162-7.255-.449-2.284-.357-4.561-.807-6.783-1.458a37.307 37.307 0 0 1-2.271-.714c-.523-.188-1.053-.36-1.568-.57-.539-.205-1.064-.432-1.592-.659-.942-.411-1.86-.867-2.76-1.354-.063-.528.326-.992.552-1.445.951-1.496 2.211-2.757 3.492-3.968 1.851.125 3.695.346 5.544.499.459.133 1-.058 1.403.243-.044.263-.319.287-.516.36l-4.574 1.252c-.321.059-.363.43-.491.674-.245.67-.578 1.338-.597 2.064 1.092.522 2.329.598 3.507.807 3.875.525 7.809.765 11.707.369l4.329-6.901c.429-.627.784-1.305 1.26-1.898.219-.273.09-.655.032-.963-.995-3.506-2.094-6.981-3.173-10.461l-1.412-4.405-.713-2.13c-.265-.719-.477-1.461-.813-2.153-.411-.508-1.124-.613-1.736-.676a1.595 1.595 0 0 1 .268-.523 31.302 31.302 0 0 0 1.468-.049c1.55-.153 3.121-.073 4.676-.181 2.022.029 4.033-.255 6.047-.321-.392.848-1.555.746-2.062 1.484-.255.286-.288.69-.186 1.048l2.43 9.019c.124.338.153.74.446.985 1.43-2.236 2.669-4.588 3.979-6.898l1.545-2.915c.235-.478.257-1.022.444-1.516a40.59 40.59 0 0 1 .57-1.713l.297-.741c-.982-.094-1.818-.685-2.55-1.301z" fill="#fff"/></g></svg>