<?xml version="1.0" encoding="UTF-8"?>
<svg width="800" height="129.44" version="1.1" xmlns="http://www.w3.org/2000/svg">
	<linearGradient id="A" x1="1456.7" x2="1456.7" y2="500" gradientTransform="matrix(.25889 0 0 .25889 .020447 .001)" gradientUnits="userSpaceOnUse">
		<stop stop-color="red" offset=".4"/>
		<stop stop-color="#d42321" offset="1"/>
	</linearGradient>
	<linearGradient id="B" x1="1459.5" x2="1450.8" y1="233.73" y2="-15.325" gradientTransform="matrix(.25889 0 0 .25889 .020447 .001)" gradientUnits="userSpaceOnUse">
		<stop stop-color="#fff" offset="0"/>
		<stop stop-color="#fff" stop-opacity=".835" offset=".12"/>
		<stop stop-color="#fff" stop-opacity=".658" offset=".269"/>
		<stop stop-color="#fff" stop-opacity=".511" offset=".42"/>
		<stop stop-color="#fff" stop-opacity=".397" offset=".568"/>
		<stop stop-color="#fff" stop-opacity=".315" offset=".716"/>
		<stop stop-color="#fff" stop-opacity=".266" offset=".86"/>
		<stop stop-color="#fff" stop-opacity=".25" offset="1"/>
	</linearGradient>
	<linearGradient id="C" x1="361.92" x2="361.92" y1="28.806" y2="471.22" gradientTransform="matrix(.25889 0 0 .25889 .020447 .001)" gradientUnits="userSpaceOnUse">
		<stop stop-color="#cbcbcb" offset="0"/>
		<stop stop-color="#d4d4d4" offset=".8"/>
	</linearGradient>
	<linearGradient id="D" x1="365.45" x2="359.6" y1="263.25" y2="95.751" gradientTransform="matrix(.25889 0 0 .25889 .020447 .001)" gradientUnits="userSpaceOnUse">
		<stop stop-color="#fff" offset="0"/>
		<stop stop-color="#fff" stop-opacity=".835" offset=".12"/>
		<stop stop-color="#fff" stop-opacity=".658" offset=".269"/>
		<stop stop-color="#fff" stop-opacity=".511" offset=".42"/>
		<stop stop-color="#fff" stop-opacity=".397" offset=".568"/>
		<stop stop-color="#fff" stop-opacity=".315" offset=".716"/>
		<stop stop-color="#fff" stop-opacity=".266" offset=".86"/>
		<stop stop-color="#fff" stop-opacity=".25" offset="1"/>
	</linearGradient>
	<g>
		<path d="m485.35 1e-3v129.44h306.03c4.7634 0 8.6197-3.8562 8.6197-8.6196v-112.2c0.0259-4.7634-3.8303-8.6214-8.6197-8.6214z" fill="#cbcbcb"/>
		<path d="m485.35 2.5894v124.26h306.03c3.3331 5e-3 6.0364-2.698 6.0312-6.0311v-112.2c0-3.3137-2.6916-6.0329-6.0312-6.0329z" fill="#fff"/>
		<path d="m583.81 110.44c0 1.864-0.88017 2.8477-3.2101 2.8477h-5.4105v-10.459h5.2035c2.4334 0 3.2619 0.9578 3.2619 2.7183 0 1.3462-0.51774 1.9674-1.9416 2.33l-0.25888 0.0777 0.233 0.0517c1.6052 0.36244 2.1228 0.95782 2.1228 2.4334zm-6.1614-3.236h2.2004c0.88019 0 1.2686-0.38833 1.2686-1.2686 0-0.90608-0.36242-1.3203-1.2686-1.3203h-2.1745zm3.6243 2.9771c0-0.9578-0.38831-1.3722-1.2686-1.3722h-2.33v2.6924h2.33c0.932 0 1.2686-0.38831 1.2686-1.3203zm4.2197-0.31064v-7.0675h2.6148v6.9638c0 1.1391 0.51777 1.5792 1.9416 1.5792 1.398 0 1.9416-0.44011 1.9416-1.5792v-6.9638h2.6148v7.0416c0 2.4594-1.4238 3.5726-4.5304 3.5726-3.1583 0.0259-4.5563-1.0873-4.5822-3.5467zm21.306-7.0416v10.433h-3.1842l-4.4527-7.5593v7.5593h-2.4334v-10.459h3.1842l4.4268 7.5593v-7.5593zm2.1487 0h4.6599c3.6503 0 4.6081 1.5015 4.6081 5.2035 0 3.6244-1.0614 5.2294-4.6081 5.2294h-4.6599zm4.5822 8.4654c1.5274 0 2.0193-0.80253 2.0193-3.236 0-2.4334-0.49186-3.2101-2.0193-3.2101h-1.9674v6.472zm6.6015-8.4654h7.3004v1.9934h-4.7116v2.2004h3.9091v1.9674h-3.9091v2.2782h4.8152v1.9934h-7.4298v-10.433zm8.9573 10.045v-2.0452c1.1132 0.38832 2.304 0.56954 3.4949 0.56954 1.1909 0 1.7344-0.31066 1.7344-1.139 0-0.69896-0.233-0.90607-1.1908-1.1132l-1.7344-0.36243c-1.8122-0.38833-2.4076-1.1131-2.4076-2.8994 0-2.2782 1.3462-3.2879 4.0644-3.2879 1.1392 0 2.2523 0.18121 3.3137 0.56953v2.0452c-1.0096-0.36243-2.097-0.54364-3.1842-0.54364-1.2944 0-1.7344 0.33654-1.7344 1.139 0 0.67308 0.31066 0.88018 1.139 1.0614l1.6827 0.36243c1.9674 0.41421 2.5111 1.0873 2.5111 2.9513 0 2.2264-1.3722 3.2619-4.1938 3.2619-1.165 0-2.3558-0.18122-3.4949-0.56953zm9.501-10.045h2.6148v8.4395h4.4786v1.9934h-7.0933zm8.7243 0h2.6148v10.433h-2.6148zm13.41 4.401v5.6696c-1.165 0.36243-2.3817 0.54366-3.6244 0.54366-3.6243 0-5.333-1.6052-5.333-5.4105 0-3.8055 1.7086-5.4106 5.333-5.4106 1.165-0.0259 2.33 0.18122 3.4431 0.59543v2.0193c-1.0355-0.36244-2.1228-0.54365-3.236-0.54365-2.2004 0-2.8736 0.88016-2.8736 3.3655 0 2.5889 0.72488 3.4173 2.796 3.4173 0.46599 0 0.90608-0.0259 1.3722-0.10359v-2.33h-1.9416v-1.7863zm8.5171 3.8573h-4.0903l-0.72485 2.2004h-2.5889l3.7279-10.433h3.3137l3.702 10.433h-2.6148zm-2.0452-6.6274-1.5274 4.7116h3.003z"/>
		<path d="m575.35 16.182h97.081v77.664h-97.081z" fill="#d20515"/>
		<path d="m655.39 57.084c0.0519 0.18122-0.12944 0.33654-0.46598 0.56954l-0.2071 0.12944 0.0777 0.12944c0.0517 0.10356-0.0259 0.233-0.18122 0.31066l-0.31064 0.15533c-0.15533 0.07766-0.31066 0.05177-0.36245-0.02589l-0.0777-0.12944-0.41421 0.2071 0.0519 0.12944c0.0517 0.10356-0.0519 0.233-0.18122 0.28477l-0.31066 0.15533c-0.15533 0.07766-0.31065 0.05177-0.36244-0.05177l-0.0517-0.12944c-1.2426 0.59543-2.6406 1.2167-4.0644 1.864l0.0777 0.18122c0.0517 0.10356-0.0518 0.233-0.18121 0.28477l-0.33655 0.15533c-0.15533 0.07767-0.31066 0.05177-0.33656-0.05177l-0.0777-0.18122-0.46597 0.233 0.0777 0.18122c0.0517 0.10356-0.0517 0.233-0.18121 0.28477l-0.31064 0.15533c-0.15533 0.07767-0.31066 0.05177-0.36243-0.05177l-0.0777-0.18122c-0.64721 0.25889-1.3722 0.38833-1.8898-0.59543-0.23299-0.4401-0.23299-1.4756-0.41422-2.0193-0.0777-0.18122-0.23298-0.31066-0.4142-0.33654-6.3167-1.2167-8.4653 0.12944-12.53-0.85431-1.2686-0.31066-1.9674-1.4756-3.5467-1.5016l-8.1547-0.18122-0.1812 0.6472-13.047-0.05177 1.9934 0.98372 0.64719 5.7471s-0.51775 0.15533-0.67307 0.18122c0.12943 1.1391 0.25886 2.6924 0.31065 4.0903 0.0517 1.2686 0.12944 2.563 0.10359 3.3913 0 0.54365-0.12944 1.0873-0.38832 1.5533-0.25886 0.41421-0.56953 0.77664-0.98373 1.0614-0.12944 0.07766-0.6213 0.4401-1.2167 0.75076-0.56955 0.33654-1.2944 0.69898-1.631 0.88018 0.0517 0.15533 0.10359 0.31066 0.1812 0.44009-7.9216 3.8315-17.76 5.1517-20.944 11.236-0.38831 0.69898-1.6568 0.33655-1.7086-0.41421v-1.2426h-0.10359c-0.10359 0-0.18121-0.12944-0.18121-0.31066v-0.36244c0-0.15533 0.10359-0.28477 0.20709-0.28477h0.12945c0.0517-0.36243 0.10359-0.69898 0.20711-1.0355l-0.12944-0.05177c-0.10359-0.02589-0.12945-0.18122-0.0777-0.33655l0.12944-0.33654c0.0517-0.15533 0.18121-0.25889 0.28476-0.233l0.12944 0.05177c0.56953-1.3203 1.6568-1.9157 2.1745-3.1583l-0.0777-0.02589c-0.10359-0.02589-0.12945-0.18122-0.0777-0.33654l0.12944-0.33655c0.0519-0.15533 0.18123-0.25889 0.28478-0.2071l0.0777 0.02589c0.0777-0.18122 0.15533-0.38833 0.25887-0.56954l-0.10358-0.07766c-0.10359-0.05177-0.10359-0.2071 0-0.36244l0.18121-0.31066c0.0777-0.12944 0.23298-0.20711 0.31065-0.15533l0.0519 0.02589h0.0517c0.0259 0 0.0259 0 0.0518-0.02589l0.15532-0.15533c0.49188-0.36243 1.165-0.38832 1.6827-0.02589 0.49186 0.31066 2.4594 1.4238 4.3233-0.28477 3.1066-2.77 6.705-6.5497 9.4236-6.6791-0.75075-1.5792-2.0193-4.9187-2.1746-6.1614l-0.88016-0.18122c-0.46597-1.0356-1.631-5.7471-1.9674-9.32 0 0-0.38831-3.8315 0-5.1776-0.20709-0.02589-0.5954 0.28477-0.69896 0.28477-0.49186-1.2167 1.1132-11.546 2.7183-14.549l2.4594-0.98372c-0.25887-0.02589-2.0193-0.10356-6.705-0.49187-2.6148 2.33-5.6435 4.8152-7.171 6.1614-0.25889 0.18122-0.69898 1.6568-0.69898 1.6568s-0.75074 0.67309-1.4756 1.165c-0.93201 0.6731-3.2619 1.165-3.7538 0.38833-0.10359-0.18122-0.10359-0.28477 0-0.38833 0.36242-0.38832 1.7086-1.0096 2.1745-1.864-0.75075 0.38832-1.5533 0.75076-2.2004 0.69898-0.28477 0-0.41421-0.69898-0.0517-0.82842 0.98371-0.41421 1.7604-0.59543 2.33-1.398 0.56954-0.80249 1.2426-1.2944 2.1228-1.3203 0 0 4.3492-5.6694 6.8863-8.3619 0.69898-0.75076 2.0193-0.49187 2.0193-0.49187l0.23299-0.8543s8.7501-1.0356 12.84 0.31066c-0.10359-2.4853 1.0096-5.773 4.8929-5.773 1.9934 0 4.9187 1.7604 5.333 3.9091 0.12942 0.6472-0.25888 1.0873-0.46597 1.9416-0.33655 1.2686 0.12943 2.6664 0 3.1066-0.10359 0.36243-0.51777 0.33654-0.88019 0.82841-0.31066 0.49187-0.56954 0.98372-0.80251 1.5274l-0.51776 1.1908-2.7441-0.2071c-1.0096 2.1487-3.0549 6.5497-3.7797 10.899 2.1487 0.18122 11.882 1.5792 11.882 1.5792l0.23299 0.80253s4.0903 0.49187 7.4558 2.097c0.75074 0.18122 2.6406-0.10356 3.8833 0.46599 0.0777-0.05177 0.28477-0.25889 0.38829-0.31066 4.3752 1.3462 7.9994 3.6503 12.194 4.6598l2.6406 0.62131c1.1132 0.2071 2.2523 0.36243 3.3913 0.44009 1.3462 0.10356 2.097 0.07766 3.0807 0.15533 0.69897 0.05177 1.5533-0.07767 1.838 0.95782m6.265-13.307c-2.9771 0-5.4105 2.4075-5.4105 5.3847s2.4076 5.4106 5.3847 5.4106c2.9771 0 5.4105-2.4075 5.4105-5.3847 0-3.003-2.4334-5.4106-5.3847-5.4106z" fill="#fff"/>
		<path d="m215.43 1e-3h323.39c4.7634 0 8.6208 3.8573 8.6208 8.6208v112.2c0 4.7634-3.8573 8.6208-8.6208 8.6208h-323.39c-4.7634 0-8.6208-3.8573-8.6208-8.6208v-112.2c0-4.7634 3.8573-8.6208 8.6208-8.6208z" fill="url(#A)"/>
		<path d="m213.01 64.203 0.82842-0.05177 327.15-11.416c3.5985-0.02589 6.472-2.9771 6.4461-6.5497v-37.564c0-4.7634-3.8573-8.6208-8.6208-8.6208h-323.39c-4.7634 0-8.6208 3.8573-8.6208 8.6208v62.313c-0.10359-3.5467 2.6664-6.5497 6.2131-6.7309z" fill="url(#B)" opacity=".4"/>
		<path d="m129.35 120.15c2.7183 1.1908 5.6436 1.838 8.5948 1.838 6.7568 0.15533 10.459-2.4334 13.177-8.4913l36.269-80.745c-2.3559-1.0614-4.9187-1.6568-7.5076-1.7345-4.6857-0.10356-10.951 0.8543-14.912 10.381l-11.728 27.648-23.04-37.434c-2.537-0.6731-5.1517-1.0356-7.7663-1.0873-8.1548 0-12.686 2.9771-17.397 8.103l-22.393 24.438 17.992 28.322c3.3396 5.1517 7.7147 7.7923 14.834 7.7923 3.5467 0.05173 7.0675-0.59543 10.356-1.9416l-21.695-32.619 15.377-16.284 25.215 39.531zm-47.557-30.522c0 5.9543-2.33 9.3718-13.98 9.3718-1.398 0-2.7959-0.10355-4.168-0.28477v-78.985c0-6.006 2.0452-12.271 13.773-12.271 1.4756 0 2.9513 0.15533 4.3752 0.4401zm-24.024-11.935c0 11.132-7.2746 19.209-22.031 20.814-10.692 1.1391-26.173-0.2071-33.525-1.0356-0.25889-1.2686-0.41421-2.563-0.4401-3.8833 0-9.6818 5.2294-11.908 10.148-11.908 5.1259 0 13.177 0.9061 19.157 0.9061 6.6015 0 8.5949-2.2264 8.5949-4.3752 0-2.77-2.6406-3.935-7.7664-4.9187l-14.031-2.6924c-11.65-2.2264-17.863-10.277-17.863-18.821 0-10.381 7.3523-19.054 21.824-20.658 10.951-1.1908 24.283 0.15533 31.583 1.0355 0.25889 1.2167 0.38832 2.4594 0.38832 3.7279 0 9.6818-5.1259 11.779-10.045 11.779-3.7797 0-9.6563-0.69898-16.361-0.69898-6.8086 0-9.6563 1.8898-9.6563 4.168 0 2.4334 2.6924 3.4172 6.9639 4.168l13.383 2.4853c13.746 2.5111 19.674 10.329 19.674 19.908z" fill="url(#C)"/>
		<path d="m187.4 32.748-13.281 29.564c-1.0356 2.1229-3.1842 3.469-5.54 3.469l-12.116 0.41421c-1.3203 0.07766-2.4853 0.95782-2.9513 2.2004v-0.025889l11.443-26.976c3.9867-9.5264 10.252-10.484 14.912-10.381 2.6148 0.07766 5.1517 0.6731 7.5334 1.7345zm-34.794 35.338-22.419-36.45c-2.537-0.67309-5.1517-1.0355-7.7663-1.0873-8.1548 0-12.686 2.9771-17.397 8.103l-22.393 24.438 1.7863 2.8219c1.165 1.7604 3.1842 2.77 5.307 2.6664l12.762-0.4401a6.3866 6.3866 0 0 1 5.6436 2.537l-4.0127-6.032 15.377-16.284 10.329 16.181c1.2686 1.6052 3.236 2.5111 5.2812 2.4594l14.678-0.51776c1.139 0 2.2264 0.62131 2.8219 1.6052zm-75.205-60.604c-11.728 0-13.773 6.265-13.773 12.271v54.106c0-2.4853 1.9934-4.5046 4.4787-4.5822l9.0864-0.31066c2.537 0 4.6082-2.071 4.6082-4.6082v-56.436c-1.4756-0.31066-2.9254-0.46598-4.401-0.4401zm-39.299 50.275-13.383-2.4853c-4.2716-0.75076-6.9639-1.7345-6.9639-4.168 0-2.2782 2.8477-4.168 9.6563-4.168 6.705 0 12.582 0.69898 16.361 0.69898 4.9187 0 10.045-2.097 10.045-11.779 0-1.2426-0.12944-2.5111-0.38832-3.7279-7.3005-0.9061-20.632-2.2264-31.583-1.0355-14.497 1.6052-21.85 10.304-21.85 20.658 0.025889 5.54 2.6406 10.77 7.0675 14.109 3.2619 2.0193 6.938 3.3396 10.744 3.8315 4.9705 0.6731 9.9673 0.932 14.963 0.77663l15.973-0.56954c5.9801-0.2071 9.2419 4.8929 8.9056 10.019 0-0.07766 0-0.12944 0.02589-0.2071v-0.05177c0.05177-0.67309 0.07767-1.3462 0.07767-2.0193 0-9.5264-5.9284-17.345-19.649-19.882z" fill="url(#D)" opacity=".25"/>
		<path d="m231.55 93.017c-0.77662-5.333 0.88018-8.1289 3.935-8.1289 2.8994 0 10.019 3.1842 19.934 3.1842 10.433 0 14.368-3.702 14.368-8.5172 0-3.4172-1.5274-6.472-10.924-9.0347l-10.795-2.8994c-11.935-3.1842-16.647-9.1646-16.647-16.543 0-9.1382 7.2487-17.293 23.636-17.293 7.3782 0 16.543 1.6568 22.108 3.8315 1.0096 5.2035-0.6472 7.9994-3.8056 7.9994-2.796 0-9.1382-2.6664-18.173-2.6664-9.6562 0-13.229 3.2879-13.229 7.6112 0 3.0289 1.398 5.8508 10.045 8.2583l11.054 3.0549c12.349 3.4172 17.293 9.1382 17.293 17.268 0 9.5527-7.3782 18.043-25.163 18.043-7.8701 0.02591-17.682-1.8898-23.636-4.168m121.98-27.571c0 19.934-13.98 31.765-29.357 31.765-9.1382 0-16.647-4.3233-21.1-10.407v25.681c0 2.4076-1.398 3.935-5.4624 3.935-2.0452 0-3.935-0.25885-4.9446-0.49185v-80.978c1.0096-0.25889 2.8994-0.51776 4.9446-0.51776 4.0645 0 5.4624 1.5274 5.4624 3.935v5.8249c4.4527-6.0837 11.96-10.407 21.1-10.407 15.377 0 29.357 11.831 29.357 31.661m-10.536 0c0-13.333-8.8801-22.496-20.84-22.496-8.1289 0-15.637 4.7117-19.054 11.572v21.979c3.4172 6.8604 10.924 11.572 19.054 11.572 11.935-0.02591 20.84-9.1645 20.84-22.626m20.296 0c0-18.173 13.333-31.636 31.246-31.636 18.043 0 31.377 13.462 31.377 31.636 0 18.043-13.333 31.765-31.377 31.765-17.914-0.02591-31.246-13.746-31.246-31.765m52.087 0c0-13.98-9.4236-22.496-20.841-22.496-11.287 0-20.71 8.5172-20.71 22.496 0 13.85 9.4236 22.6 20.71 22.6 11.416 0 20.841-8.7501 20.841-22.6m60.915-25.94c0 4.1938-1.7604 5.0741-6.1096 5.0741-8.75 0-16.128 4.0645-20.71 13.591v34.458c0 2.537-1.398 3.935-5.5919 3.935-1.7863 0-3.8315-0.25889-4.8412-0.49187v-61.147c1.0096-0.25889 3.0289-0.49187 4.8412-0.49187 4.168 0 5.5919 1.5274 5.5919 3.935v8.5172c5.9543-9.0347 14.989-13.591 26.302-12.064 0.12945 0.88019 0.51777 2.7959 0.51777 4.6857m45.693 53.511c-5.333 2.537-11.443 4.1938-17.527 4.1938-12.064 0-19.313-7.1193-19.313-18.924v-52.475c0-2.6664 1.5274-4.4527 5.5919-4.4527 1.7604 0 3.8056 0.36244 4.8412 0.6472v13.203h23.739c0.12944 0.88019 0.38831 2.6664 0.38831 4.1938 0 3.6761-1.5274 4.9446-3.8056 4.9446h-20.322v33.188c0 7.0933 3.2879 10.536 10.019 10.536 6.1096 0 9.5264-2.6664 12.452-2.6664 3.0549-0.02589 4.5822 2.5111 3.935 7.6112" fill="#fff"/>
		<path d="m731.07 96.895q-4.3286 0-8.561-0.86572-4.1362-0.96192-7.5029-2.5972-0.0962-0.96192-0.0962-1.2505 0-6.7334 5.002-6.7334 1.2505 0 2.4048 0.28857 1.2505 0.28857 2.501 0.57715 1.3467 0.28857 2.7895 0.57715 1.5391 0.28857 3.4629 0.28857 7.8877 0 11.928-4.521 4.1362-4.521 4.6172-15.294-3.0781 2.7896-6.7334 4.4248-3.6553 1.6353-8.8496 1.6353-5.1943 0-9.042-1.6353-3.8477-1.6353-6.4448-4.3286-2.501-2.7896-3.7515-6.3486-1.2505-3.6553-1.2505-7.6953 0-4.4248 1.5391-8.1763 1.5391-3.8477 4.4248-6.6372 2.8858-2.8857 7.022-4.4248 4.1362-1.6353 9.4268-1.6353 11.351 0 17.795 7.9839 6.541 7.8877 6.541 23.855 0 16.256-7.2144 24.433-7.2144 8.0801-20.008 8.0801zm2.8858-31.839q4.3286 0 7.4067-1.3467 3.1743-1.3467 5.8677-4.04-0.0962-4.04-0.96192-7.3106-0.76952-3.3667-2.4048-5.7715-1.5391-2.4048-4.04-3.6553-2.4048-1.3467-5.8677-1.3467-5.1944 0-8.4648 3.2705-3.2705 3.2705-3.2705 8.561 0 5.1943 2.8857 8.4649 2.9819 3.1743 8.8496 3.1743z" fill="#002a91"/>
	</g>
</svg>
