<svg xmlns="http://www.w3.org/2000/svg" xmlns:xlink="http://www.w3.org/1999/xlink" width="850" height="102.74"><path d="M843.151 0H170.976c-3.767 0-6.849 3.082-6.849 6.849V95.89c0 3.767 3.082 6.849 6.849 6.849h672.175c3.767 0 6.849-3.082 6.849-6.849V6.849C850 3.082 846.918 0 843.151 0z" fill="#e90000"/><g fill="#d5d5d5"><path d="M231.678 10.788v65.24c-.685.342-2.312.599-3.767.599-3.339 0-4.452-1.284-4.452-3.853V68.75c-3.596 4.966-9.503 8.39-16.781 8.39-12.329 0-23.288-9.418-23.288-25.171s10.959-25.086 23.288-25.086c7.277 0 13.099 3.425 16.781 8.39V13.527c0-1.884 1.199-3.168 4.538-3.168a17.35 17.35 0 0 1 3.682.428zm-8.134 49.914V43.236c-2.74-5.479-8.647-9.161-15.24-9.161-9.503 0-16.438 7.277-16.438 17.894 0 10.702 6.935 17.979 16.438 17.979 6.592-.086 12.5-3.767 15.24-9.247zm18.408-8.733c0-14.384 10.616-25.086 24.829-25.086 14.298 0 24.914 10.702 24.914 25.086 0 14.298-10.616 25.171-24.914 25.171-14.212 0-24.829-10.873-24.829-25.171zm41.353 0c0-11.13-7.449-17.894-16.524-17.894-8.99 0-16.438 6.764-16.438 17.894 0 10.959 7.449 17.979 16.438 17.979 9.075-.086 16.524-7.021 16.524-17.979zm15.839 0c0-14.384 10.616-25.086 24.572-25.086 6.592 0 12.586 1.798 16.866 3.853.685 4.538-.685 6.336-2.74 6.336-3.51 0-6.592-2.911-13.784-2.911-9.075 0-16.524 6.764-16.524 17.894 0 10.959 7.449 17.808 16.524 17.808 7.277 0 10.274-2.997 13.527-2.997 2.14 0 3.596 1.884 2.997 6.421-4.195 2.14-10.274 3.938-16.866 3.938-14.041-.086-24.572-10.959-24.572-25.257zM391.61 27.74v48.545c-.771.171-2.397.428-3.853.428-3.339 0-4.452-1.199-4.452-3.168V69.35c-3.51 4.366-8.904 7.791-16.01 7.791-9.846 0-18.151-6.25-18.151-20.548V30.479c0-1.884 1.113-3.168 4.452-3.168 1.37 0 2.997.171 3.853.428v27.74c0 9.675 4.709 14.298 11.901 14.298 5.565 0 11.558-3.853 14.041-8.39V30.479c0-1.884 1.113-3.168 4.452-3.168 1.37 0 2.997.257 3.767.428zm80.393 16.609v29.11c0 2.055-1.113 3.168-4.452 3.168-1.37 0-2.997-.171-3.853-.428V45.377c0-7.021-3.339-11.216-9.675-11.216-5.308 0-9.76 3.767-11.558 7.534v31.764c0 2.055-1.113 3.168-4.452 3.168-1.37 0-2.997-.171-3.853-.428V45.377c0-7.021-3.339-11.216-9.675-11.216-5.308 0-9.76 3.767-11.558 7.534v31.764c0 2.055-1.113 3.168-4.452 3.168-1.37 0-2.997-.171-3.853-.428V27.74c.771-.171 2.397-.428 3.938-.428 3.168 0 4.195 1.199 4.195 3.339v3.339c3.168-4.11 7.962-7.192 13.784-7.192 6.421 0 11.473 3.253 14.041 8.733 3.339-5.051 8.39-8.733 15.497-8.733 10.531 0 15.925 7.791 15.925 17.551z"/><use xlink:href="#D"/><path d="M581.164 47.432v26.113c0 1.884-1.113 3.168-4.452 3.168-1.37 0-2.997-.171-3.853-.428v-27.74c0-9.675-4.709-14.298-11.901-14.298-5.565 0-11.558 3.853-14.041 8.39V73.63c0 1.884-1.113 3.168-4.452 3.168-1.37 0-2.997-.171-3.853-.428V27.74c.771-.171 2.397-.428 3.853-.428 3.339 0 4.452 1.199 4.452 3.168v4.11c3.51-4.366 8.904-7.791 16.01-7.791 9.932 0 18.236 6.25 18.236 20.634zm41.524 26.369c-4.195 2.055-9.075 3.339-13.955 3.339-9.589 0-15.325-5.651-15.325-15.068v-41.61c0-2.14 1.199-3.51 4.452-3.51 1.37 0 2.997.342 3.853.514v10.531h18.836c.086.685.342 2.14.342 3.339 0 2.911-1.199 3.938-2.997 3.938h-16.096v26.284c0 5.651 2.654 8.39 7.962 8.39 4.88 0 7.534-2.14 9.846-2.14 2.397 0 3.596 1.969 3.082 5.993zm47.175-28.596v31.079a19.08 19.08 0 0 1-3.767.428c-2.997 0-4.452-1.113-4.452-3.168v-4.195c-4.366 4.966-10.017 7.877-17.123 7.877-10.788 0-16.781-7.021-16.781-14.726 0-11.729 12.5-16.866 33.818-15.411v-1.712c0-7.962-2.397-11.301-11.558-11.301-3.853 0-8.99 1.113-11.729 1.798-1.627.428-2.825.771-3.853.771-2.312 0-3.853-2.055-2.997-6.25 4.966-1.798 12.072-3.51 18.921-3.51 14.298-.086 19.521 6.336 19.521 18.322zm-8.219 16.952V52.91c-13.955-1.027-25.514.771-25.514 9.161 0 4.195 3.51 8.048 9.846 8.048 6.507.086 12.158-3.168 15.668-7.962zm50.599-30.821c0 3.339-1.37 4.024-4.88 4.024-6.935 0-12.842 3.253-16.438 10.788V73.46c0 2.055-1.113 3.168-4.452 3.168-1.37 0-2.997-.171-3.853-.428V27.74c.771-.171 2.397-.428 3.853-.428 3.339 0 4.452 1.199 4.452 3.168v6.764c4.709-7.192 11.901-10.788 20.89-9.589.171.685.428 2.226.428 3.682zm6.079-14.555c0-2.997 2.397-5.223 5.223-5.223 2.997 0 5.308 2.226 5.308 5.223 0 2.74-2.312 5.223-5.308 5.223-2.825 0-5.223-2.568-5.223-5.223zm1.113 59.503V30.479c0-1.884 1.113-3.168 4.452-3.168 1.37 0 2.911.171 3.767.428v45.805c0 2.055-1.027 3.168-4.366 3.168-1.455-.086-3.082-.257-3.853-.428z"/><use xlink:href="#D" x="255.565"/><path d="M791.524 73.801c-.599-4.195.685-6.421 3.168-6.421 2.312 0 7.962 2.483 15.839 2.483 8.305 0 11.387-2.911 11.387-6.764 0-2.74-1.199-5.137-8.647-7.192l-8.562-2.312c-9.503-2.483-13.185-7.277-13.185-13.099 0-7.277 5.736-13.699 18.75-13.699 5.822 0 13.099 1.284 17.551 2.997.771 4.11-.514 6.336-2.997 6.336-2.226 0-7.277-2.14-14.384-2.14-7.705 0-10.531 2.654-10.531 6.079 0 2.397 1.113 4.623 7.962 6.592l8.733 2.397c9.76 2.74 13.699 7.277 13.699 13.699 0 7.534-5.822 14.298-19.949 14.298-6.336.086-14.127-1.455-18.836-3.253z"/></g><linearGradient id="A" gradientUnits="userSpaceOnUse" x1="507.363" y1="40.795" x2="505.576" y2="-10.371"><stop offset="0" stop-color="#fff"/><stop offset="1" stop-color="#fff" stop-opacity=".25"/></linearGradient><path d="M169.007 50.942h.685l675.171-23.545c2.568-.086 5.137-1.969 5.137-5.223V6.849C850 3.082 846.918 0 843.151 0H170.976c-3.767 0-6.849 3.082-6.849 6.849v49.486c0-.599.086-4.88 4.88-5.394z" opacity=".3" fill="url(#A)"/><path d="M102.654 95.377c1.199.599 3.682 1.37 6.849 1.455 5.394.086 8.305-1.969 10.445-6.764l28.767-64.041c-1.199-.599-3.853-1.37-5.993-1.37-3.681-.086-8.647.685-11.815 8.219l-9.332 21.918-18.236-29.709c-1.199-.342-4.11-.856-6.164-.856-6.507 0-10.103 2.397-13.784 6.421L65.582 50 79.88 72.432c2.654 4.11 6.079 6.164 11.729 6.164 3.682 0 6.764-.856 8.219-1.541L82.62 51.284l12.158-12.928 20.034 31.336zM64.897 71.147c0 4.709-1.884 7.449-11.13 7.449-1.199 0-2.312-.086-3.339-.257V15.668c0-4.795 1.627-9.76 10.959-9.76 1.199 0 2.397.086 3.51.342zm-19.092-9.503c0 8.818-5.736 15.24-17.466 16.524-8.476.942-20.805-.171-26.627-.856-.171-.942-.342-2.14-.342-3.082 0-7.705 4.11-9.418 8.048-9.418 4.024 0 10.445.685 15.24.685 5.223 0 6.849-1.798 6.849-3.425 0-2.226-2.055-3.082-6.164-3.938l-11.13-2.14C4.966 54.281 0 47.86 0 41.096c0-8.219 5.822-15.154 17.295-16.353 8.647-.942 19.264.086 25.086.856.171.942.342 1.969.342 2.997 0 7.705-4.024 9.332-7.962 9.332-2.997 0-7.62-.514-13.014-.514s-7.62 1.455-7.62 3.339c0 1.969 2.14 2.74 5.565 3.339l10.616 1.969c10.788 1.798 15.497 7.962 15.497 15.582z" fill="#e90000"/><linearGradient id="B" gradientUnits="userSpaceOnUse" x1="75.071" y1="54.086" x2="73.869" y2="19.676"><stop offset="0" stop-color="#fff"/><stop offset="1" stop-color="#fff" stop-opacity=".25"/></linearGradient><path d="M148.716 26.027l-10.531 23.459c-.342.599-1.455 2.654-4.366 2.74l-9.589.342c-1.712.086-2.312 1.712-2.312 1.712l9.075-21.404c3.168-7.534 8.134-8.305 11.815-8.219 2.055 0 4.709.685 5.908 1.37zm-27.568 27.997l-17.808-28.938c-1.199-.342-4.11-.856-6.164-.856-6.507 0-10.103 2.397-13.784 6.421L65.582 50l1.455 2.226c.599.856 1.798 2.226 4.195 2.14.856 0 9.418-.342 10.103-.342 2.226-.086 3.596.856 4.452 1.969l-3.168-4.795 12.158-12.928 8.219 12.842c1.455 1.969 3.682 1.969 4.195 1.969.428 0 11.13-.428 11.644-.428.771 0 1.627.428 2.312 1.37zM61.387 5.908c-9.332 0-10.873 4.966-10.873 9.76v42.979c0-1.712 1.37-3.51 3.51-3.596 1.541-.086 5.908-.171 7.192-.257 1.455-.086 3.596-1.027 3.682-3.682V6.25c-1.113-.171-2.312-.342-3.51-.342zM30.223 45.89l-10.616-1.969c-3.425-.599-5.565-1.37-5.565-3.339 0-1.798 2.226-3.339 7.62-3.339 5.308 0 10.017.514 13.014.514 3.938 0 7.962-1.627 7.962-9.332 0-1.027-.086-1.969-.342-2.997-5.822-.685-16.353-1.798-25.086-.856C5.822 25.942 0 32.877 0 41.096c0 4.195 1.884 8.305 5.651 11.216 2.825 1.798 5.651 2.568 8.562 3.082 2.397.428 7.791.771 11.901.599 1.284-.086 10.616-.342 12.671-.428 4.709-.171 7.363 3.853 7.021 7.962v-.257c.086-.514.086-1.027.086-1.627-.086-7.62-4.795-13.784-15.668-15.753z" opacity=".3" fill="url(#B)"/><defs ><path id="D" d="M528.082 54.966h-37.5c1.113 9.418 7.534 14.64 17.123 14.64 4.11 0 7.363-.771 10.36-1.798 2.14-.685 2.997-1.027 3.853-1.027 2.312 0 3.853 1.884 3.425 6.336-4.366 1.884-10.959 4.024-17.979 4.024-15.154 0-25.342-10.188-25.342-25.342 0-14.555 10.788-25 23.973-25 14.897 0 22.26 11.558 22.26 23.288.086 1.455 0 3.168-.171 4.88zm-37.5-6.421h29.795c-.342-8.305-5.651-14.726-14.212-14.726-7.534 0-14.298 5.137-15.582 14.726z"/></defs></svg>