<svg xmlns="http://www.w3.org/2000/svg" width="4913.071" height="600.012" viewBox="0 0 1299.917 158.753" ><defs><linearGradient id="A" x1="-112.376" y1="144.212" x2="-115.137" y2="65.152" gradientUnits="userSpaceOnUse" spreadMethod="pad"><stop offset="0" stop-color="#fff"/><stop offset="1" stop-opacity=".25" stop-color="#fff"/></linearGradient><linearGradient x1="-411.453" y1="151.902" x2="-413.31" y2="98.732" gradientUnits="userSpaceOnUse" spreadMethod="pad" id="B"><stop offset="0" stop-color="#fff"/><stop offset="1" stop-opacity=".25" stop-color="#fff"/></linearGradient><linearGradient id="C" x1="-420.008" y1="217.927" x2="-420.008" y2="152.043" gradientUnits="userSpaceOnUse"><stop offset="0" stop-color="#0182dc"/><stop offset="1" stop-color="#0398f0"/></linearGradient><linearGradient id="D" x1="-273.901" y1="147.705" x2="772.464" y2="147.705" gradientUnits="userSpaceOnUse"><stop offset="0" stop-color="#0086e0"/><stop offset="1" stop-color="#54dcf7"/></linearGradient></defs><g transform="translate(527.452 -68.329)"><path d="M-456.63 163.601c0 13.641-8.907 23.565-27.024 25.516-13.115 1.4-32.087-.245-41.115-1.282-.303-1.458-.548-3.285-.548-4.747 0-11.876 6.404-14.616 12.443-14.616 6.284 0 16.166 1.096 23.487 1.096 8.111 0 10.551-2.741 10.551-5.357 0-3.409-3.233-4.809-9.514-6.029l-17.203-3.289c-14.277-2.741-21.898-12.603-21.898-23.076 0-12.727 9.027-23.386 26.776-25.334 13.422-1.462 29.768.183 38.736 1.279.303 1.52.486 2.982.486 4.568 0 11.872-6.28 14.43-12.319 14.43-4.636 0-11.833-.852-20.068-.852-8.359 0-11.837 2.313-11.837 5.112 0 2.985 3.295 4.202 8.541 5.116l16.407 3.047c16.838 3.106 24.097 12.665 24.097 24.417m29.441 14.613c0 7.308-2.868 11.51-17.141 11.51-1.892 0-3.537-.124-5.122-.362V92.54c0-7.367 2.499-15.044 16.894-15.044 1.83 0 3.661.183 5.37.551zm58.344 37.451c1.889.972 5.732 2.13 10.551 2.254 8.297.183 12.812-2.982 16.166-10.414l44.469-99.012c-1.83-.975-5.915-2.072-9.21-2.134-5.732-.117-13.419 1.038-18.3 12.731l-14.394 33.914-28.244-45.911c-1.83-.551-6.284-1.341-9.517-1.341-10.003 0-15.556 3.654-21.35 9.925l-27.448 29.963 22.081 34.707c4.088 6.333 9.455 9.559 18.179 9.559 5.736 0 10.489-1.338 12.685-2.372l-26.596-40.009 18.851-19.973 30.926 48.472z" fill="url(#C)"/><path d="M761.88 68.329l-1025.198.006a10.59 10.59 0 0 0-10.584 10.584v137.585c0 5.847 4.741 10.578 10.584 10.578H761.88c5.847 0 10.584-4.741 10.584-10.584V78.912c0-5.843-4.738-10.584-10.584-10.584z" fill="url(#D)"/><path d="M-243.338 130.945q0-6.602 3.555-11.39 3.555-4.788 10.012-7.327 6.529-2.612 15.235-2.612 7.835 0 14.8 1.306 6.965 1.306 12.551 3.41.798 4.498-.145 6.747-.871 2.249-2.902 2.829-1.959.508-4.426-.073-3.047-.798-6.167-1.451-3.047-.653-6.384-1.016-3.265-.435-7.037-.435-7.908 0-11.971 2.394-4.063 2.394-4.063 6.892 0 2.539 1.233 4.28 1.306 1.741 3.627 2.975 2.322 1.233 5.369 2.249 3.12.943 6.82 1.959l4.063 1.088q3.7 1.016 7.4 2.249 3.7 1.161 6.965 2.757 3.337 1.596 5.949 3.918 2.612 2.322 4.063 5.586 1.524 3.265 1.524 7.763 0 5.586-2.249 9.794-2.249 4.208-6.384 7.037-4.135 2.757-9.794 4.135-5.586 1.451-12.261 1.451-5.514 0-10.955-.798-5.369-.798-10.084-1.959-4.716-1.161-8.198-2.394-.435-2.394-.073-4.933.363-2.539 1.886-4.063 1.596-1.524 4.861-.871 2.322.508 4.498 1.088 2.612.653 5.296 1.306 2.757.58 5.876 1.016 3.12.363 6.892.363 5.369 0 9.359-1.161 3.99-1.161 6.167-3.482 2.176-2.322 2.176-5.876 0-2.394-1.233-4.208-1.233-1.814-3.41-3.192-2.104-1.378-4.861-2.394-2.757-1.016-5.804-1.814-3.047-.871-11.1-2.902-3.047-.798-6.022-1.959-2.975-1.233-5.586-2.829-2.612-1.669-4.643-3.845-2.031-2.249-3.265-5.078-1.161-2.902-1.161-6.529zm108.343-21.33q7.835 0 14.147 2.757 6.312 2.684 10.81 7.545 4.498 4.788 6.892 11.318 2.394 6.529 2.394 14.22 0 1.886-.073 3.99-.073 2.031-.435 3.627h-57.894q.58 4.788 2.394 8.924 1.886 4.063 5.151 7.182 3.265 3.047 7.98 4.788 4.716 1.741 11.1 1.741 5.296 0 9.649-1.016 4.426-1.016 8.851-2.612 4.28-1.596 6.747.58 2.467 2.104 1.886 8.416-2.539 1.378-6.965 2.829-4.426 1.451-9.867 2.467-5.441 1.088-10.81 1.088-8.851 0-16.033-2.829-7.182-2.829-12.333-7.98-5.151-5.224-7.98-12.406-2.757-7.255-2.757-15.961 0-8.271 2.829-15.308 2.829-7.037 7.835-12.261 5.078-5.224 11.826-8.126 6.82-2.975 14.655-2.975zm-.145 10.81q-6.094 0-11.173 2.757-5.078 2.757-8.416 7.835-3.337 5.078-4.353 12.188h45.924q0-3.192-.871-6.457-.871-3.265-2.684-6.167-1.741-2.902-4.353-5.151-2.612-2.322-6.167-3.627-3.482-1.378-7.908-1.378zm55.966-9.939q3.627 0 5.296 1.233 1.669 1.233 1.669 3.482v10.592q5.151-7.545 11.753-11.318 6.602-3.845 15.163-3.845 2.829 0 5.369.29.653 3.627.653 6.022 0 2.902-1.016 4.135-1.016 1.161-2.757 1.596-1.669.363-4.063.363-5.731 0-10.52 2.031-4.716 2.031-8.416 5.804-3.627 3.7-6.167 8.996v42.151q0 2.031-1.306 3.192-1.233 1.161-3.99 1.378-2.757.218-7.327-.58v-74.871q3.265-.653 5.659-.653zm51.48 75.524v-70.808q0-2.031 1.306-3.192 1.378-1.233 4.135-1.451 2.829-.29 7.182.58v70.881q0 2.031-1.306 3.192-1.233 1.088-3.99 1.306-2.757.218-7.327-.508zm6.457-100.046q3.41 0 5.804 2.394 2.394 2.394 2.394 5.731 0 3.41-2.394 5.804-2.394 2.322-5.804 2.322-3.41 0-5.804-2.322-2.394-2.394-2.394-5.804 0-3.337 2.394-5.731 2.394-2.394 5.804-2.394zm58.979 23.651q7.835 0 14.147 2.757 6.312 2.684 10.81 7.545 4.498 4.788 6.892 11.318 2.394 6.529 2.394 14.22 0 1.886-.073 3.99-.073 2.031-.435 3.627H13.583q.58 4.788 2.394 8.924 1.886 4.063 5.151 7.182 3.265 3.047 7.98 4.788 4.716 1.741 11.1 1.741 5.296 0 9.649-1.016 4.426-1.016 8.851-2.612 4.28-1.596 6.747.58 2.467 2.104 1.886 8.416-2.539 1.378-6.965 2.829-4.426 1.451-9.867 2.467-5.441 1.088-10.81 1.088-8.851 0-16.033-2.829-7.182-2.829-12.333-7.98-5.151-5.224-7.98-12.406-2.757-7.254-2.757-15.96 0-8.271 2.829-15.308 2.829-7.037 7.835-12.261 5.078-5.224 11.826-8.126 6.82-2.975 14.655-2.975zm-.145 10.81q-6.094 0-11.173 2.757-5.078 2.757-8.416 7.835-3.337 5.078-4.353 12.188h45.924q0-3.192-.871-6.457-.871-3.265-2.684-6.167-1.741-2.902-4.353-5.151-2.612-2.322-6.167-3.627-3.482-1.378-7.908-1.378zm87.799-10.81q5.731 0 10.737 1.886 5.078 1.886 8.924 5.659 3.845 3.773 6.022 9.504 2.176 5.731 2.176 13.494v41.861q0 2.031-1.233 3.192-1.233 1.161-4.063 1.378-2.757.218-7.255-.508v-43.167q0-7.182-2.322-12.043-2.249-4.861-6.384-7.327-4.135-2.467-9.722-2.467-3.555 0-7.835 1.596-4.28 1.524-8.053 4.498-3.7 2.975-5.949 7.255v47.592q0 2.031-1.233 3.192-1.233 1.161-4.063 1.378-2.757.218-7.255-.508v-75.016q3.265-.653 5.659-.653 3.627 0 5.224 1.233 1.669 1.233 1.669 3.482v6.529q2.104-2.467 4.571-4.571 2.539-2.176 5.586-3.845 3.12-1.669 6.747-2.612 3.7-1.016 8.053-1.016zm105.09 20.967l7.037-2.829q2.829-1.088 5.006-2.757 2.176-1.741 3.41-3.99 1.306-2.249 1.306-5.006 0-5.514-4.426-8.706-3.99-2.757-9.431-2.757-4.063 0-7.11 1.378-2.975 1.378-4.643 3.845-1.669 2.467-1.669 5.586 0 4.861 4.063 8.924zm-1.669 45.488q4.788 0 8.778-1.524 4.063-1.524 7.255-4.063 3.192-2.539 5.514-5.659l-23.216-22.055q-16.831 6.022-16.831 17.992 0 4.28 2.249 7.763 2.249 3.482 6.384 5.514 4.208 2.031 9.867 2.031zm-.145 11.245q-13.277 0-21.765-7.255-8.488-7.255-8.488-19.298 0-9.359 6.094-16.396 5.514-6.384 14.22-9.577-4.861-4.861-6.529-7.255-4.135-5.586-4.135-12.769 0-8.633 6.965-14.728 6.965-6.167 18.137-6.167 7.473 0 13.204 2.829 5.731 2.757 8.924 7.69 3.265 4.861 3.265 11.1 0 7.4-4.861 12.986-4.861 5.586-14.873 9.722l18.065 16.977 10.665-17.63q2.394-3.845 6.965-3.845 3.337 0 7.4 1.959l-16.904 27.206 22.273 20.894q-3.99 2.757-9.214 2.757-4.571 0-7.255-2.539l-12.406-11.608q-3.482 4.571-7.835 7.908-4.28 3.337-9.722 5.224-5.369 1.814-12.188 1.814zm93.589-56.37q0-6.602 3.555-11.39 3.555-4.788 10.012-7.327 6.529-2.612 15.235-2.612 7.835 0 14.8 1.306 6.965 1.306 12.551 3.41.798 4.498-.145 6.747-.871 2.249-2.902 2.829-1.959.508-4.426-.073-3.047-.798-6.167-1.451-3.047-.653-6.384-1.016-3.265-.435-7.037-.435-7.908 0-11.971 2.394-4.063 2.394-4.063 6.892 0 2.539 1.233 4.28 1.306 1.741 3.627 2.975 2.322 1.233 5.369 2.249 3.12.943 6.82 1.959l4.063 1.088q3.7 1.016 7.4 2.249 3.7 1.161 6.965 2.757 3.337 1.596 5.949 3.918 2.612 2.322 4.063 5.586 1.524 3.265 1.524 7.763 0 5.586-2.249 9.794-2.249 4.208-6.384 7.037-4.135 2.757-9.794 4.135-5.586 1.451-12.261 1.451-5.514 0-10.955-.798-5.369-.798-10.084-1.959-4.716-1.161-8.198-2.394-.435-2.394-.073-4.933.363-2.539 1.886-4.063 1.596-1.524 4.861-.871 2.322.508 4.498 1.088 2.612.653 5.296 1.306 2.757.58 5.877 1.016 3.12.363 6.892.363 5.369 0 9.359-1.161 3.99-1.161 6.167-3.482 2.176-2.322 2.176-5.876 0-2.394-1.233-4.208-1.233-1.814-3.41-3.192-2.104-1.378-4.861-2.394-2.757-1.016-5.804-1.814-3.047-.871-11.1-2.902-3.047-.798-6.022-1.959-2.975-1.233-5.586-2.829-2.612-1.669-4.643-3.845-2.031-2.249-3.265-5.078-1.161-2.902-1.161-6.529zm75.669-42.006q0-2.249 1.596-3.482 1.669-1.233 5.296-1.233 2.394 0 5.659.653v36.783q2.104-2.467 4.571-4.571 2.539-2.176 5.586-3.845 3.12-1.669 6.747-2.612 3.7-1.016 8.053-1.016 5.731 0 10.737 1.886 5.078 1.886 8.924 5.659 3.845 3.773 6.022 9.504 2.176 5.731 2.176 13.494v41.861q0 2.031-1.233 3.192-1.233 1.161-4.063 1.378-2.757.218-7.255-.508v-43.167q0-7.182-2.322-12.043-2.249-4.861-6.384-7.327-4.135-2.467-9.722-2.467-3.555 0-7.835 1.596-4.28 1.524-8.053 4.498-3.7 2.975-5.949 7.255v47.592q0 2.031-1.233 3.192-1.233 1.161-4.063 1.378-2.757.218-7.255-.508zm118.763 20.676q8.633 0 15.671 3.047 7.11 3.047 12.116 8.416 5.078 5.296 7.835 12.406 2.757 7.037 2.757 15.09 0 8.053-2.829 15.09-2.757 7.037-7.908 12.406-5.078 5.296-12.116 8.343-7.037 3.047-15.526 3.047-8.561 0-15.598-3.047-7.037-3.047-12.188-8.343-5.078-5.369-7.908-12.406-2.757-7.037-2.757-15.09 0-8.053 2.757-15.09 2.757-7.11 7.763-12.406 5.078-5.369 12.116-8.416 7.11-3.047 15.816-3.047zm0 11.318q-5.804 0-10.52 2.176-4.643 2.104-8.053 5.949-3.337 3.773-5.151 8.778-1.814 5.006-1.814 10.737 0 5.731 1.814 10.737 1.886 5.006 5.224 8.778 3.41 3.773 8.126 5.949 4.716 2.176 10.375 2.176 5.659 0 10.302-2.176 4.716-2.176 8.053-5.949 3.41-3.773 5.224-8.778 1.886-5.006 1.886-10.737 0-5.731-1.814-10.737-1.814-5.006-5.224-8.778-3.337-3.845-8.053-5.949-4.643-2.176-10.375-2.176zm59.871-6.022l15.018 57.749 18.573-60.434q1.814-.871 3.773-1.306 1.959-.435 4.208-.435 3.047 0 4.788.725 1.814.653 2.757 2.031.943 1.306 1.524 3.265l16.977 56.081 14.582-57.749q.435-1.886 1.378-2.829 1.016-.943 2.322-1.233 1.306-.29 2.684-.29 2.322 0 4.208.508 1.886.508 3.7 1.306l-19.661 68.487q-.726 2.539-2.104 3.845-1.306 1.233-3.192 1.596-1.814.363-4.063.363-1.959 0-3.918-.29-1.886-.29-3.482-.798l-18.79-60.434-17.702 55.718q-.435 1.596-1.378 2.902-.871 1.306-2.684 2.104-1.741.798-5.006.798-2.176 0-4.135-.29-1.959-.29-3.7-.798L562.054 112.3q1.596-.725 3.7-1.233 2.104-.58 4.498-.58 1.669 0 2.902.363 1.233.363 2.104 1.378.871.943 1.306 2.684zm104.761 16.034q0-6.602 3.555-11.39 3.555-4.788 10.012-7.327 6.529-2.612 15.235-2.612 7.835 0 14.8 1.306 6.965 1.306 12.551 3.41.798 4.498-.145 6.747-.871 2.249-2.902 2.829-1.959.508-4.426-.073-3.047-.798-6.167-1.451-3.047-.653-6.384-1.016-3.265-.435-7.037-.435-7.908 0-11.971 2.394-4.063 2.394-4.063 6.892 0 2.539 1.233 4.28 1.306 1.741 3.627 2.975 2.322 1.233 5.369 2.249 3.12.943 6.82 1.959l4.063 1.088q3.7 1.016 7.4 2.249 3.7 1.161 6.965 2.757 3.337 1.596 5.949 3.918 2.612 2.322 4.063 5.586 1.524 3.265 1.524 7.763 0 5.586-2.249 9.794-2.249 4.208-6.384 7.037-4.135 2.757-9.794 4.135-5.586 1.451-12.261 1.451-5.514 0-10.955-.798-5.369-.798-10.084-1.959-4.716-1.161-8.198-2.394-.435-2.394-.072-4.933.363-2.539 1.886-4.063 1.596-1.524 4.861-.871 2.322.508 4.498 1.088 2.612.653 5.296 1.306 2.757.58 5.876 1.016 3.12.363 6.892.363 5.369 0 9.359-1.161 3.99-1.161 6.167-3.482 2.176-2.322 2.176-5.876 0-2.394-1.233-4.208-1.233-1.814-3.41-3.192-2.104-1.378-4.861-2.394-2.757-1.016-5.804-1.814-3.047-.871-11.1-2.902-3.047-.798-6.022-1.959-2.975-1.233-5.586-2.829-2.612-1.669-4.643-3.845-2.031-2.249-3.265-5.078-1.161-2.902-1.161-6.529z" fill="#fff"/><path d="M-263.317 68.336a10.59 10.59 0 0 0-10.584 10.584v76.327c0-4.267 2.702-7.992 8.618-8.199l1029.832-35.966c3.984-.139 7.915-3.322 7.915-8.039v-24.13c0-5.843-4.738-10.584-10.584-10.584z" opacity=".35" fill="url(#A)"/><path d="M-432.562 77.497c-14.391 0-16.89 7.678-16.89 15.044v66.357c0-2.669 2.052-5.49 5.481-5.608l11.145-.392c2.196-.075 5.589-1.566 5.638-5.66V78.045c-1.71-.365-3.54-.549-5.374-.549zm55.235 28.257c-10.003 0-15.552 3.651-21.347 9.925l-27.451 29.959 2.192 3.445c.936 1.282 2.818 3.406 6.492 3.275l15.651-.548c3.424-.121 5.594 1.347 6.925 3.094l-4.906-7.382 18.848-19.969 12.662 19.843c2.3 2.995 5.742 3.047 6.477 3.021l17.989-.63c1.152-.039 2.489.594 3.491 2.019l-27.503-44.717c-1.834-.548-6.287-1.337-9.52-1.337zm-111.517.15c-4.023 0-8.042.167-11.83.581-17.748 1.948-26.779 12.607-26.779 25.331 0 6.535 2.972 12.834 8.678 17.314 4.333 2.842 8.73 3.941 13.171 4.705 3.644.63 12.085 1.195 18.356.963l19.578-.682c7.341-.248 11.318 6.016 10.91 12.29l.019-.251c.005-.023.006-.049.011-.072a30.92 30.92 0 0 0 .098-2.479c0-11.752-7.26-21.315-24.091-24.418l-16.411-3.047c-5.246-.914-8.541-2.131-8.541-5.116 0-2.799 3.478-5.116 11.833-5.116 8.238 0 15.435.855 20.072.855 6.036 0 12.319-2.561 12.319-14.43 0-1.582-.182-3.048-.485-4.572-6.437-.786-16.675-1.856-26.907-1.856zm181.257.445c-5.644 0-12.9 1.527-17.581 12.741l.001.001-14.054 33.112c.029-.046.917-2.603 3.625-2.698l14.873-.522c4.499-.157 6.31-3.262 6.786-4.244l16.277-36.248c-1.83-.972-5.916-2.068-9.211-2.13l-.717-.011zm-87.277 48.56l.005.005v-.005z" opacity=".35" fill="url(#B)"/></g></svg>