<svg xmlns="http://www.w3.org/2000/svg" viewBox="0 0 801.08 262.5" ><g transform="translate(26.208 .743)"><g transform="matrix(.65155 0 0 .65155 -36.045995 -108.183683)"><path d="M126.7 314.7c0 21.5-14 37.1-42.6 40.2-20.6 2.2-50.5-.4-64.7-2-.5-2.3-.9-5.2-.9-7.5 0-18.7 10.1-23 19.6-23 9.9 0 25.5 1.7 37 1.7 12.8 0 16.6-4.3 16.6-8.4 0-5.4-5.1-7.6-15-9.5L49.6 301c-22.5-4.3-34.5-19.8-34.5-36.3 0-20 14.2-36.8 42.2-39.9 21.1-2.3 46.9.3 61 2 .5 2.4.8 4.7.8 7.2 0 18.7-9.9 22.7-19.4 22.7-7.3 0-18.6-1.3-31.6-1.3-13.2 0-18.6 3.6-18.6 8 0 4.7 5.2 6.6 13.4 8.1l25.8 4.8c26.6 4.9 38 19.9 38 38.4m46.3 23c0 11.5-4.5 18.1-27 18.1-3 0-5.6-.2-8.1-.6V202.9c0-11.6 3.9-23.7 26.6-23.7 2.9 0 5.8.3 8.5.9zm91.9 59c3 1.5 9 3.4 16.6 3.5 13.1.3 20.2-4.7 25.5-16.4l70-155.7c-2.9-1.5-9.3-3.3-14.5-3.4-9-.2-21.1 1.6-28.8 20L310.9 298l-44.5-72.3c-2.9-.9-9.9-2.1-15-2.1-15.8 0-24.5 5.8-33.6 15.6l-43.2 47.2 34.8 54.7c6.4 10 14.9 15.1 28.6 15.1 9 0 16.5-2.1 20-3.7l-41.9-63 29.7-31.5 48.7 76.3z" fill="#ff0031"/><linearGradient id="A" x1="414.37" x2="1244.631" y1="289.839" y2="289.839" gradientUnits="userSpaceOnUse"><stop stop-color="#ff0031" offset="0"/><stop stop-color="#9b001f" offset="1"/></linearGradient><path d="M1228 164.9H430.9c-9.2 0-16.7 7.5-16.7 16.7v216.5c0 9.2 7.5 16.7 16.7 16.7h797c9.2 0 16.7-7.5 16.7-16.7V181.5c-.1-9.2-7.4-16.6-16.6-16.6" fill="url(#A)"/><linearGradient id="B" x1="197.483" x2="194.588" y1="295.135" y2="212.243" gradientUnits="userSpaceOnUse"><stop stop-color="#fff" offset="0"/><stop stop-color="#fff" stop-opacity=".25" offset=".515"/></linearGradient><path d="M138 202.9v104.5c0-4.2 3.2-8.6 8.6-8.8l17.6-.6c3.5-.1 8.8-2.5 8.9-8.9v-109c-2.7-.6-5.6-.9-8.5-.9-22.7.1-26.6 12.1-26.6 23.7m80 36.4l-43.2 47.2 3.5 5.4c1.5 2 4.4 5.4 10.2 5.2l24.6-.9c5.4-.2 8.8 2.1 10.9 4.9l-7.7-11.6L246 258l19.9 31.3c3.6 4.7 9 4.8 10.2 4.8 1 0 27.2-.9 28.3-1 1.8-.1 3.9.9 5.5 3.2l-43.3-70.4c-2.9-.9-9.9-2.1-15-2.1-15.8-.1-24.5 5.6-33.6 15.5M57.3 224.8c-28 3.1-42.2 19.8-42.2 39.9 0 10.3 4.7 20.2 13.7 27.3 6.8 4.5 13.8 6.2 20.7 7.4 5.7 1 19 1.9 28.9 1.5l30.8-1.1c11.6-.4 17.8 9.5 17.2 19.4v-.5c.1-1.3.2-2.6.2-3.9 0-18.5-11.4-33.6-37.9-38.5l-25.8-4.8c-8.3-1.4-13.4-3.4-13.4-8.1 0-4.4 5.5-8.1 18.6-8.1 13 0 24.3 1.3 31.6 1.3 9.5 0 19.4-4 19.4-22.7 0-2.5-.3-4.8-.8-7.2-10.1-1.2-26.3-2.9-42.4-2.9-6.3.1-12.6.4-18.6 1m276.2 19.9l-22.1 52.1c0-.1 1.4-4.1 5.7-4.3l23.4-.8c7.1-.3 9.9-5.1 10.7-6.7l25.6-57.1c-2.9-1.5-9.3-3.3-14.5-3.4h-1.1c-8.9.1-20.3 2.5-27.7 20.2" fill="url(#B)" opacity=".3" enable-background="new"/><linearGradient id="C" x1="830.555" x2="826.25" y1="276.73" y2="153.473" gradientUnits="userSpaceOnUse"><stop stop-color="#fff" offset="0"/><stop stop-color="#fff" stop-opacity=".25" offset=".515"/></linearGradient><path d="M430.9 164.9c-9.2 0-16.7 7.5-16.7 16.7v120.2c0-1.8.7-11.7 12-12.8 0 0 .6-.1 1.6-.1l804.4-28.2c6.3-.2 12.4-4.9 12.4-12.7v-66.3c0-9.2-7.5-16.7-16.7-16.7z" fill="url(#C)" opacity=".3" enable-background="new"/><g fill="#fff"><path d="M1190.1 275.3v74.5c-2 .5-5.4 1-8.8 1-7 0-10.1-2.5-10.1-7.4v-9.8c-11.1 11.7-24.3 18.6-41.8 18.6-26.3 0-40.8-16.8-40.8-35.6 0-28.4 30.7-40.8 82.6-37.4V276c0-18.1-5.9-28.9-28.9-28.9-11.9 0-22.2 2.6-29.2 4.9-3.6 1-6.4 1.9-8.3 1.9-5.4 0-8.5-4.9-7.3-15.2 11.7-4.4 29.2-8.3 45.6-8.3 34.3.1 47 17.2 47 44.9m-19.1 40.8v-22.5c-33.8-1.5-63 1.8-63 22.7 0 10.3 8.8 19.9 24.5 19.9 16 0 29.5-8.1 38.5-20.1m-709.6-25c0-34.8 25.8-60.7 59.6-60.7 16.2 0 30.7 4.4 40.8 9.6 1 10.6-2.9 15-7.8 15-6.9 0-14.5-7.5-32.3-7.5-22.5 0-40.8 16.8-40.8 43.9s18.3 44.4 40.8 44.4c17.8 0 25.5-7.5 32.3-7.5 4.9 0 8.8 4.4 7.8 15-10.3 4.9-24.8 9.3-40.8 9.3-33.8-.5-59.6-26.7-59.6-61.5m413.8 7.8h-91.1c2.9 22.7 18.9 35.8 42.4 35.8 10.1 0 17.8-2.3 25.3-4.6 4.9-1.8 7.5-2.8 9.6-2.8 4.9 0 8.5 4.6 7.3 15.2-10.3 4.6-26.1 9.6-42.9 9.6-36.4 0-61.5-24.8-61.5-61.2 0-35.1 26.1-60.6 58.3-60.6 35.9 0 53.7 28.7 53.7 56.6-.1 3.7-.4 7.6-1.1 12m-91-15.7h73.3c-.8-20.1-13.7-35.9-34.8-35.9-18.8-.2-35.4 12.4-38.5 35.9m-201.8-77.6c0-7.2 5.7-12.4 12.4-12.4 6.9 0 12.2 5.4 12.2 12.4 0 6.4-5.4 12.2-12.2 12.2s-12.4-5.9-12.4-12.2m2.7 144.1V239.3c0-4.4 2.4-7.3 10.3-7.3 3.1 0 6.9.8 8.8 1.3v110.2c0 4.6-2.6 7.3-10.3 7.3-3.2-.1-6.9-.6-8.8-1.1"/><path d="M1064.5 272.9v70.5c0 4.6-2.6 7.3-10.3 7.3-3.1 0-6.9-.5-8.8-1V275c0-17.3-8.3-27.6-23.8-27.6-13.2 0-24.5 9.6-28.9 19.1v76.9c0 4.6-2.4 7.3-10.1 7.3-3.4 0-7-.5-9-1V275c0-17.3-8-27.6-23.8-27.6-13.2 0-24.5 9.6-28.9 19.1v76.9c0 4.6-2.4 7.3-10.1 7.3-3.4 0-7.2-.5-8.8-1V233.2c2-.5 5.7-1.3 8.8-1.3 7.3 0 9.8 2.9 9.8 7.8v8.3c7.5-10.1 19.4-17.6 33.8-17.6 15.5 0 27.6 8 33.8 21.2 8-11.7 20.4-21.2 37.7-21.2 25.2.1 38.6 19.2 38.6 42.5m-325.3 7.5v63c0 4.6-2.4 7.3-10.1 7.3-3.1 0-6.9-.5-8.8-1V283c0-24-11.9-35.4-29.4-35.4-13.9 0-28.9 9.8-35.1 21.1v74.9c0 4.6-2.5 7.3-10.1 7.3-3.4 0-7-.5-8.8-1V233.2c1.8-.5 5.4-1.3 8.8-1.3 7.5 0 10.1 2.9 10.1 7.3v10.1c8.5-10.3 21.5-18.9 39.2-18.9 24.1.1 44.2 15.4 44.2 50"/></g></g><path d="M373.907 201.258l1.752 13.523 1.037 8.909c-.969-.51-1.879-1.201-2.969-1.427-.01.514.09 1.021.17 1.527.712 4.206 1.387 8.421 1.885 12.659.066.599.172 1.196.183 1.802-.117-.044-.243-.073-.325-.173l-1.823-1.912 3.64 22.138c.2 1.175.341 2.267.581 3.388.206-.717.224-1.471.341-2.205.422-4.529.67-9.074 1.016-13.609.386.807.813 1.592 1.22 2.388.264.48.476.989.791 1.44l.283.053.026-6.075c.049-1.154-.043-2.311.062-3.462l.037-6.717 2.25 4.525c.115-.153.335-.282.288-.503l-.697-11.554c-.086-.774-.068-1.556-.094-2.333.18.066.267.245.366.395l2.784 4.541c.13.198.405.14.607.141 1.046-.1 2.062-.396 3.051-.741 1.48-.536 2.951-1.24 4.046-2.401.781.152 1.548.416 2.278.738l-.014 7.725c.06 1.448-.116 2.932.298 4.342.317 1.01 1.151 1.724 1.904 2.417 1.342 1.175 2.749 2.274 4.156 3.37.61.493 1.447.417 2.179.374.877-.066 1.654-.503 2.44-.856a32.806 32.806 0 0 0 2.182-1.11c.948-.524 1.76-1.297 2.315-2.226.352-.57.435-1.247.547-1.893a26.922 26.922 0 0 0 .296-4.198c.049-2.535-.388-5.044-.629-7.56l-.05-.079c-.017-.497-.11-.986-.176-1.477-.1-.658-.17-1.334-.456-1.943-.26-.58-.669-1.082-1.131-1.514-1.229-1.136-2.568-2.17-4.056-2.943-.629-.36-1.358-.043-1.972.188-2.143.908-4.124 2.153-6.078 3.407-.46.276-.846.705-.979 1.233-.113.446-.341.85-.607 1.22-.722-.072-1.375-.41-2.066-.605l.89-10.577c.037-.67.206-1.386-.086-2.024-.311-.746-.86-1.351-1.349-1.982l-5.476-6.607c-.399-.059-.791.04-1.16.183l-3.65 1.312c-.173.06-.356.08-.534.105-.181-1.057.064-2.121.084-3.182-1.738-.021-3.48.08-5.219-.013-1.23-.077-2.462-.094-3.692-.144zm13.188 4.53a.86.86 0 0 1 .466.136c.1.178.135.379.155.581.549 2.969.72 5.987.888 8.998.049.693-.013 1.396.084 2.082a116.947 116.947 0 0 1 .026 4.329c-.325.059-.656.023-.979-.021-.947-.094-1.896.049-2.826.215-.478.053-.95.145-1.427.191-.112-4.117-.049-8.236-.092-12.352v-2.82c0-.236.073-.551.351-.592 1.043-.315 2.127-.474 3.187-.723a.694.694 0 0 1 .165-.024zm18.928 14.733c.139.498.013 1.017-.147 1.493-.35.766-.972 1.363-1.645 1.849-.6.462-1.412.519-1.972 1.048a.645.645 0 0 1-.102-.39c0-.46-.032-.926.089-1.375 1.207-.946 2.505-1.769 3.776-2.624zm-21.237 2.975c.349.017.706-.004 1.048.089.934.076 1.86.243 2.768.476l.092.228a5.595 5.595 0 0 0 .019.262c-.349.566-.772 1.079-1.186 1.595-.396.145-.599-.268-.841-.487a57.74 57.74 0 0 1-1.899-2.163zm21.617 1.87c.289 2.154.577 4.309.744 6.476.062.768 0 1.541.092 2.307.048.632-.066 1.259-.047 1.891-.013 1.226-.129 2.449-.275 3.666-.102.634-.159 1.289-.417 1.886-.591.339-1.178.691-1.823.919-.158.071-.333.079-.5.065-.452-.464-.966-.897-1.283-1.469-.212-2.316-.407-4.641-.487-6.968-.097-.725-.059-1.46-.086-2.189-.127-1.829-.076-3.666-.092-5.499a12.37 12.37 0 0 1 .817-.343c.504-.237 1.029-.424 1.527-.678.608-.054 1.22-.055 1.831-.063zm-56.324-18.786c.263-.068.609.008.728.276.1 1.372.059 2.758.164 4.129l.06.287c.118-.012.246-.01.345-.092.707-.485 1.401-.99 2.122-1.453.343-.209.689-.437 1.082-.543.366-.053.637.26.821.534.534.792.94 1.662 1.347 2.526.459 1.063.997 2.11 1.257 3.245.134.439-.317.691-.607.912-1.454 1.018-2.952 1.978-4.502 2.845-.357.227-.535-.326-.778-.498a22.219 22.219 0 0 1 .94-1.048c.128-.115.045-.301.017-.443l-1.087-3.636-.042-.255c-.339-.086-.687-.031-.995.126l-.113.214c-.072 1.924.01 3.85-.01 5.775l.01 7.127c.08.66.033 1.325.045 1.988l.045 5.154c.303.756 1.04 1.194 1.507 1.819-.428.022-.854-.023-1.275-.088-.626-.01-1.259-.057-1.879-.063-1.008-.096-2.029-.028-3.028.107-.45.057-.911.008-1.357.104-.582.001-1.202.111-1.749-.143-.285-.13-.572-.259-.866-.367l.058-.137c.527-.306.983-.717 1.422-1.134.386-.392.781-.828.889-1.386.323-1.545.36-3.128.461-4.697l.129-13.729c-.015-.173.038-.367-.051-.524.149-.39.031-.845.068-1.261a21.517 21.517 0 0 0-.776.243l-.353.012-.166-.265c.177-.231.413-.401.628-.593l4.631-4.577c.219-.258.528-.413.852-.491zm-45.992 1.024c.891.084 1.78.25 2.681.233 1.466.074 2.939.087 4.404-.026 1.17-.045 2.334-.248 3.505-.219-.056.375-.423.551-.598.858-.514.865-.928 1.8-1.156 2.782a16.785 16.785 0 0 0-.139 2.176l.035 11.612c-.041.18.154.252.295.186 2.232-.556 4.543-.728 6.838-.66.825.036 1.684-.033 2.479.224l-.045.27c-.249.091-.509.176-.71.356-.629.521-1.204 1.105-1.795 1.668-.149.162-.395.324-.319.58.228 1.279.283 2.583.533 3.858l1.518 5.32a.65.65 0 0 0 .494-.212c.276-.284.609-.506.902-.771.109-1.153.15-2.315.179-3.474.078-.799.051-1.602.075-2.403.03-4.21-.051-8.43-.56-12.614-.233.055-.47.108-.686.215-1.105.5-2.186 1.056-3.215 1.698-.278.162-.537.39-.639.705-.233.729-.168 1.51-.128 2.262l-.504.162c-.879-1.415-1.79-2.826-2.412-4.379-.178-.532-.456-1.073-.35-1.65.429-.204.777-.532 1.168-.795 1.562-1.105 3.208-2.112 4.981-2.842.241-.082.579-.25.778-.003 1.641 1.645 3.231 3.341 4.804 5.051.848.947 1.776 1.933 2.03 3.225.241 1.508.276 3.038.283 4.562-.014 1.744.044 3.491-.082 5.232l-.049 4.015c.601.274 1.298.298 1.931.131-.027.193-.176.325-.31.45l-2.663 2.362c-.612.513-.917 1.293-1.525 1.809-.65.572-1.624.621-2.417.367-.812-.421-.81-1.439-.876-2.23-1.059.762-2.097 1.553-3.132 2.348-.488.377-1.134.163-1.678.059-.397-.11-.905-.266-1.014-.721l-1.373-4.175c-.5-1.563-1.086-3.105-1.422-4.715-.143-.517.112-1.022.369-1.455.693-1.116 1.686-1.993 2.627-2.89-1.465.28-2.991.513-4.299 1.275l.021 10.809c.07 1.538 0 3.077.049 4.615l.061 5.435c.108 1.413.335 2.952 1.316 4.048.353.438.926.584 1.319.972a2.694 2.694 0 0 1-.202.474c-.177.001-.353.012-.528-.012-1.945-.315-3.907-.543-5.877-.621-1.854-.014-3.716-.084-5.561.139-.092-.303-.399-.541-.377-.867 1.028-.575 2.017-1.374 2.422-2.521.513-1.455.58-3.014.707-4.538.131-2.758.172-5.521.094-8.281-.07-1.849-.055-3.706-.287-5.544-1.928 1.51-4.316 2.271-6.676 2.795l.098 11.511c.039.805-.037 1.617.058 2.42.235.88 1.1 1.331 1.821 1.765.166.11.433.347.284.548-.301.038-.577-.108-.863-.17-.919-.198-1.858-.259-2.791-.341-3.105-.208-6.219-.261-9.33-.278-.111-.034-.418-.14-.188-.243l.033-.358c1.109-.438 2.225-1.075 2.841-2.136.376-.634.385-1.388.449-2.099.087-1.398.062-2.799.116-4.198l-.068-5.81c-1.471-.682-2.945-1.363-4.381-2.12-1-.493-1.709-1.4-2.317-2.307-.51-.801-.967-1.641-1.324-2.524v-.215c1.6-.726 3.363-.977 5.09-1.214 0 .171.051.396-.132.494-1.076.644-2.212 1.188-3.261 1.88.352.412.791.732 1.23 1.043 1.213.84 2.526 1.524 3.855 2.162.362.162.719.382 1.129.386.064-.678.023-1.361.03-2.041-.047-1.393-.011-2.791-.115-4.181-.035-1.05 0-2.102-.095-3.148l-.371-10.484c-.214-1.095-1.174-1.843-2.184-2.183.018-.208.143-.418.358-.465.354-.033.711.005 1.065.028.486.071.977.026 1.467.037.731-.01 1.465.034 2.195-.048l3.352-.054c.955-.074 1.915-.088 2.873-.092l-.102.617c-.594.304-.97.906-1.128 1.539-.115.657-.1 1.327-.108 1.992l.059 5.236c.037 1.467.013 2.936.111 4.4l.066 3.357c.085 1.426.086 2.857.192 4.284.689-.095 1.31-.442 1.924-.746 1.668-.92 3.292-1.941 4.77-3.145.016-5.935-.149-11.874-.619-17.789-.022-.619-.517-1.063-1.038-1.312-.291-.117-.38-.429-.346-.717zm116.621-.121c.318-.061.396.283.385.527l.088 4.354c.049.854-.032 1.719.092 2.564 1.014-.012 2.028.035 3.043.031l.062.554c.087.303.039.624.13.926a20.694 20.694 0 0 1 .085.988l-2.926.046a.87.87 0 0 0-.382.076c-.183 2.947-.032 5.899-.094 8.849l-.244 7.656c-.086.375-.035.764-.062 1.146l-.368 8.689c-.043.738-.2 1.588.283 2.221.783.792 1.688 1.459 2.616 2.07-.193.218-.368.464-.609.629-.188.001-.35-.118-.515-.183-1.914-.95-3.848-1.866-5.692-2.948-.469-.276-.929-.6-1.226-1.065-.291-.427-.374-.954-.378-1.46l.182-8.168c.09-2.693.388-5.372.442-8.065.054-2.789.027-5.593-.256-8.366a7.69 7.69 0 0 0-.161-1.202c-1.488.006-2.974-.021-4.46-.021a5.42 5.42 0 0 1-.01-.786c1.803-1.005 3.461-2.26 5.016-3.615a29.252 29.252 0 0 0 4.106-4.489c.259-.339.507-.695.85-.956zm-86.122 1.933c.238-.131.464-.359.755-.333.427.07.811.283 1.214.427.225 1.029.223 2.105.386 3.145l.037.367.149.112c.558-.448 1.176-.813 1.779-1.197.556-.348 1.207-.652 1.879-.549.425.102.652.519.857.868.459.929.856 1.888 1.236 2.852.431 1.046.893 2.097 1.101 3.214-.025.355-.193.684-.503.871-1.37.89-2.774 1.729-4.177 2.565-.157.087-.309.208-.498.194-.102-.179-.231-.339-.375-.483.34-.336.654-.698.971-1.055l-.086-.06c-.09-.54-.268-1.061-.409-1.59l-1.003-3.486c-.069-.323-.455-.699-.762-.404-.087.338-.031.693-.029 1.037l.222 7.141c.121.824 0 1.672.137 2.497.096 1.545.303 3.082.391 4.628.213 1.883.202 3.795.502 5.671.192.523.743.777 1.205 1.016l.119.203-.074.245c-2.918.071-5.838.057-8.759.061-.31 0-.622.016-.93-.036.161-.4.441-.756.816-.974s.76-.438 1.061-.753c.11-.109.154-.259.141-.41l-.01-8.907c.032-.421-.074-.835-.057-1.256l-.051-6.713c-.121-1.306-.013-2.628-.19-3.931-1.063-.001-2.135-.051-3.192.083-.186-.05-.47-.161-.489-.381zm95.381.975c.143-.282.296-.584.6-.725l.274.151c.108.883.088 1.774.137 2.66.078.34.035.693.06 1.039l.241 5.156c.497-.012.996.012 1.493-.031.35.067.699-.035 1.05-.028a34.223 34.223 0 0 0 1.647-.019c-.033.69.015 1.394-.121 2.075-1.324.053-2.65.114-3.97.231l.014 4.669c.069.233.039.479.044.719l.051 7.753c.1 1.183.044 2.375.084 3.562l.134 6.485c.073 1.172.033 2.352.159 3.521l3.316 1.748c.301.118.593.437.931.337.748-.508 1.414-1.128 2.102-1.712.173-.108.062-.314.023-.463-1.136-.35-2.318-.501-3.474-.76-.401-.11-.938-.079-1.154-.506.75-.202 1.537-.087 2.303-.06l5.335.317c.188.036.482.039.49.306.042.348-.298.505-.504.71-.824.753-1.557 1.598-2.337 2.395-.468.474-.775 1.102-1.35 1.465-.199.17-.483.145-.714.076-1.89-.584-3.766-1.217-5.606-1.94-1.693-.677-3.421-1.357-4.896-2.45-.198-.186-.47-.367-.485-.664-.162-2.795-.121-5.593-.125-8.392l.069-3.247c.014-4.656-.104-9.31-.201-13.965-.75.038-1.503.037-2.25-.028-.327-.012-.486-.415-.36-.683.094-.16.22-.298.351-.431 1.461-1.477 2.832-3.051 4.007-4.77 1.008-1.419 1.853-2.947 2.633-4.501zm25.956 4.163c.293-.22.608.063.654.367.174.92.164 1.864.319 2.786l3.267-1.972c.239-.145.429-.392.725-.427.197-.037.471-.026.587.171.488.682.902 1.415 1.34 2.131.677 1.185 1.369 2.368 1.867 3.642.176.416.204.887.121 1.328-.317.642-.947 1.031-1.461 1.499l-4.475 3.521c-.14-.216-.335-.386-.519-.558.404-.621.882-1.193 1.306-1.8.031-.141-.018-.282-.054-.416l-1.624-5.188c-.386.268-.774.537-1.174.786l.255 9.441c.11 1.077.045 2.17.107 3.253.107.931.019 1.88.122 2.814.054 2.383.179 4.763.292 7.143.103.823.727 1.454 1.409 1.861.861.515 1.832.82 2.805 1.044.168.045.338.074.511.123.405.053.809.137 1.219.178l-.024.691c-.885.05-1.771-.01-2.655.004-.381-.024-.767.019-1.14-.058a14.97 14.97 0 0 1-3.564-.416c-1.167-.258-2.319-.576-3.461-.926-1.439-.423-2.945-.738-4.449-.558-.1-.231-.203-.462-.268-.704 1.258-.111 2.129-1.181 2.788-2.159.512-1.052.511-2.256.535-3.4.035-3.285-.044-6.569-.064-9.854-.092-.862-.031-1.741-.068-2.609.01-1.812-.125-3.618-.094-5.43-.521-.029-1.038.071-1.557.05l-.025-.381c.226-.343.42-.715.734-.989zm-13.812 2.544a3.616 3.616 0 0 0-.828.112l-5.952 4.755c-.215 1.005-.235 2.045-.372 3.061-.012.674-.274 1.318-.267 1.993.118 2.756.091 5.513.129 8.27-.011.674-.228 1.323-.254 1.995.392.407.753.844 1.142 1.257 1.395 1.435 2.794 2.893 4.449 4.033.258.2.591.238.903.296.796.073 1.6.166 2.399.045.387.024.68-.271.895-.558.727-1.069 1.55-2.067 2.336-3.093.419-.588.938-1.113 1.252-1.768-.689-.994-1.211-2.125-2.053-3.001l-.382.034c-.071.655-.225 1.293-.367 1.935-.407 1.67-.851 3.347-1.6 4.902-.085.156-.176.47-.406.314-1.159-.652-2.012-1.837-2.309-3.129-.18-1.076-.121-2.174-.212-3.257l-.055-4.08c-.01-.176.016-.364-.073-.524.103-.161.061-.349.021-.521.049-.738-.178-1.541.207-2.229 1.109-.012 2.178.319 3.25.566l1.922.49c.135.041.27.071.411.105l1.401.356c.169.038.392.088.516-.076.931-.867 1.505-2.034 2.09-3.143-.201-.695-.509-1.366-.746-2.053l-1.058-2.815c-.221-.534-.377-1.096-.618-1.621-.711-.448-1.476-.816-2.21-1.231l-.828-.424c-.728-.359-1.445-.763-2.228-.987-.166-.01-.334-.015-.503-.01zm-.183 1.836c.197.005.369.104.409.338l1.236 3.135 1.592 3.97a5.678 5.678 0 0 0 0 .267c-.639.033-1.276-.088-1.906-.157-.905-.053-1.805-.181-2.708-.257 0-1.069.117-2.131.157-3.198.13-1.252.033-2.573.571-3.742.105-.214.399-.362.652-.356zm-78.053.304c.887.175 1.802.059 2.698.163.803.016 1.6.102 2.395.203.447.016.902.038 1.343-.067l-.029.265c-.38.62-.745 1.257-1.019 1.933-.972 2.099-2.109 4.114-3.236 6.134-1.014 1.789-1.916 3.64-2.914 5.438-2.633 4.731-5.505 9.345-8.795 13.65-1.79.035-3.578-.119-5.354-.331-1.686-.263-3.367-.595-5.006-1.076-.566-.152-1.122-.339-1.676-.527-.386-.139-.777-.266-1.157-.421-.397-.151-.786-.319-1.174-.486-.695-.303-1.372-.64-2.037-.999-.047-.39.241-.732.407-1.066.702-1.104 1.632-2.035 2.577-2.929 1.366.092 2.728.256 4.091.369.338.098.738-.043 1.036.179-.033.194-.236.212-.38.266l-3.376.924c-.237.044-.268.317-.363.498-.181.494-.426.987-.44 1.524.807.386 1.719.441 2.588.595 2.86.388 5.764.564 8.64.272l3.195-5.094c.317-.463.578-.963.93-1.4.161-.201.066-.483.024-.711-.734-2.587-1.545-5.153-2.342-7.721l-1.042-3.25-.526-1.572c-.196-.531-.352-1.079-.6-1.589-.303-.375-.83-.452-1.281-.499a1.178 1.178 0 0 1 .198-.386 23.103 23.103 0 0 0 1.083-.037c1.144-.113 2.303-.054 3.451-.134 1.492.021 2.977-.188 4.463-.237-.289.626-1.148.551-1.522 1.095-.188.211-.213.51-.137.773l1.793 6.657c.091.249.113.546.33.727 1.055-1.651 1.969-3.386 2.936-5.091l1.141-2.152c.174-.353.19-.754.328-1.119.131-.424.272-.846.421-1.264l.219-.547c-.725-.069-1.342-.506-1.882-.96z" fill="#fff"/></g></svg>