<?xml version="1.0" encoding="UTF-8"?>
<svg width="601.2" height="450" version="1.1" viewBox="0 0 601.2 450" xmlns="http://www.w3.org/2000/svg">
	<defs>
		<linearGradient id="a" x1="1267.5" x2="1267.5" y2="1897.5" gradientTransform="scale(.23716)" gradientUnits="userSpaceOnUse">
			<stop stop-color="#ffed00" offset="0"/>
			<stop stop-color="#ffe100" offset=".45"/>
			<stop stop-color="#fd0" offset=".586"/>
			<stop stop-color="#fd0" offset="1"/>
		</linearGradient>
	</defs>
	<path d="m26.491 0c-2.6135 0-9.9726 0.55495-16.819 6.3132-2.5068 2.1084-4.729 4.7432-6.446 7.8927-1.8095 3.3202-3.2254 7.582-3.2254 12.785v396.02c0 5.2033 1.4158 9.4627 3.2254 12.783 1.717 3.1519 3.9392 5.7867 6.446 7.895 6.8468 5.7582 14.206 6.312 16.819 6.312h548.22c2.6135 0 9.9726-0.55377 16.819-6.312 2.5092-2.1084 4.729-4.7432 6.446-7.895 1.8072-3.3202 3.2254-7.5796 3.2254-12.783v-396.02c0-5.2033-1.4182-9.465-3.2254-12.785-1.717-3.1495-3.9369-5.7843-6.446-7.8927-6.8468-5.7582-14.206-6.3132-16.819-6.3132z" fill="url(#a)"/>
	<g fill="#182935">
		<path d="m387.26 277.44c3.292 1.6829 9.9534 3.7085 18.354 3.9172 14.432 0.32183 22.267-5.1981 28.111-18.132l77.369-172.56c-3.1758-1.7059-10.548-3.6238-16.019-3.7116-9.9657-0.20799-23.339 1.8095-31.829 22.192l-25.049 59.122-49.143-80.034c-3.1765-0.96856-10.919-2.3408-16.534-2.3408-17.402 0-27.069 6.3639-37.147 17.293l-47.765 52.222 38.419 60.499c7.1117 11.044 16.457 16.646 31.624 16.646 9.9659 0 18.239-2.3228 22.061-4.1211l-46.282-69.733 32.809-34.821 53.819 84.49zm-101.51-65.274c0 12.727-4.9955 20.059-29.83 20.059-3.2887 0-6.1436-0.20775-8.9049-0.64578v-168.72c0-12.842 4.3498-26.214 29.389-26.214 3.176 0 6.3217 0.32254 9.2919 0.96856v174.58zm-51.234-25.477c0 11.886-3.8723 22.163-11.686 29.884-7.8137 7.7207-19.569 12.885-35.335 14.591-22.808 2.4442-55.813-0.41503-71.532-2.2362-0.52934-2.5362-0.93915-5.7179-0.93915-8.2774 0-20.704 11.14-25.46 21.658-25.46 10.518 0 28.12 1.9262 40.848 1.9262 14.109 0 18.366-4.7847 18.366-9.3498 0-5.9487-5.6157-8.3924-16.548-10.514l-29.944-5.7407c-24.857-4.7498-38.09-21.967-38.09-40.228 0-22.18 15.72-40.739 46.607-44.128 23.338-2.5594 51.761 0.32491 67.366 2.2386 0.52934 2.6512 0.8514 5.1867 0.8514 7.9304 0 20.681-10.956 25.178-21.451 25.178-8.0554 0-20.599-1.5017-34.915-1.5017-14.315 0-20.599 4.0353-20.599 8.9231 0 5.2104 5.7431 7.332 14.88 8.9224l28.528 5.3029c14.649 2.7088 25.124 8.2254 31.945 15.626 6.8214 7.401 9.9896 16.687 9.9896 26.935z"/>
		<path d="m258.9 314.94c0-4.3426 3.4632-7.5308 7.5225-7.5308 4.3419 0 7.6795 3.1758 7.6795 7.5308 0 3.9117-3.3376 7.5286-7.6795 7.5286-4.0592 0-7.5225-3.629-7.5225-7.5286m1.5695 85.485v-65.777c0-2.7556 1.5989-4.4902 6.3715-4.4902 2.0296 0 4.2134 0.29527 5.3695 0.5782v65.777c0 2.9033-1.4578 4.4901-6.2428 4.4901-2.0296 0-4.3422-0.29526-5.5106-0.57819z"/>
		<path d="m459.72 369.85h-53.912c1.5904 13.513 10.873 21.024 24.649 21.024 5.9411 0 10.579-1.1685 14.921-2.6201 3.038-1.0207 4.3419-1.4514 5.5106-1.4514 3.3335 0 5.5106 2.7556 4.9201 9.128-6.2364 2.7556-15.794 5.8057-25.794 5.8057-21.791 0-36.372-14.651-36.372-36.388 0-20.765 15.475-35.92 34.467-35.92 21.44 0 32.042 16.655 32.042 33.459 0 2.0298-0.14752 4.4902-0.43045 6.9504zm-53.901-9.2751h42.744c-0.21724-5.9994-2.2905-11.299-5.827-15.089-3.536-3.7903-8.5354-6.0713-14.604-6.0713-5.1625 0-10.259 1.7592-14.306 5.2887s-7.0436 8.829-8.0068 15.872"/>
		<path d="m133.56 365.59c0-10.406 3.8064-19.437 10.131-25.878 6.3243-6.4406 15.166-10.28 25.238-10.28 9.3913 0 17.953 2.6024 24.178 5.4841 1.0101 6.4519-0.95195 9.1527-3.9051 9.1527-5.0211 0-9.4032-4.2172-19.859-4.2172-6.4579 0-12.381 2.3934-16.709 6.8024-4.3282 4.409-7.0614 10.834-7.0614 18.786 0 15.831 10.748 25.731 23.743 25.731 10.455 0 14.86-4.392 19.408-4.3597 3.1084 0.0223 5.2199 2.6337 4.4176 9.2412-2.7344 1.4206-6.193 2.7537-10.101 3.8002-4.152 1.1113-8.8114 1.8544-13.649 1.8544-9.2815 0.19257-17.718-3.1649-23.867-8.6129-7.3761-6.5359-11.964-16.293-11.964-27.505"/>
		<path d="m249.76 335.96c0 4.7861-2.0306 5.7936-6.9542 5.7936-10.006 0-18.413 4.6388-23.632 15.501v39.268c0 2.9028-1.5876 4.4894-6.3756 4.4894-2.0306 0-4.3448-0.29455-5.514-0.57867v-69.701c1.1573-0.29622 3.4834-0.57844 5.514-0.57844 4.788 0 6.3756 1.7339 6.3756 4.4894v9.707c6.8188-10.284 17.108-15.501 30.007-13.765 0.14775 1.0079 0.57867 3.1848 0.57867 5.3622z"/>
		<path d="m382.8 354.66v41.873c0 2.9031-1.5992 4.4897-6.3725 4.4897-2.0298 0-4.3426-0.29503-5.5111-0.5782v-44.346c0-10.149-4.7856-16.09-13.914-16.09-7.6766 0-14.061 5.3636-16.669 10.862v45.649c0 2.9033-1.5992 4.4902-6.3725 4.4902-2.0299 0-4.3426-0.29526-5.5116-0.57843v-44.346c0-10.148-4.7852-16.09-13.913-16.09-7.6766 0-14.061 5.3634-16.669 10.862v45.65c0 2.9031-1.5994 4.4899-6.3727 4.4899-2.0296 0-4.3426-0.29527-5.5114-0.5782v-69.698c1.1566-0.29526 3.4818-0.5782 5.6468-0.5782 4.4901 0 6.0896 1.7341 6.0896 4.7852v4.7849c4.4904-5.9413 11.453-10.284 19.855-10.284 9.276 0 16.522 4.6374 20.139 12.609 4.7852-7.2452 12.031-12.609 22.316-12.609 14.923 0 22.747 11.157 22.747 25.217z"/>
	</g>
</svg>
