<svg xmlns="http://www.w3.org/2000/svg" viewBox="0 0 801.08 262.5" ><g transform="matrix(.65155 0 0 .65155 -9.837995 -107.440593)"><path d="M126.7 314.7c0 21.5-14 37.1-42.6 40.2-20.6 2.2-50.5-.4-64.7-2-.5-2.3-.9-5.2-.9-7.5 0-18.7 10.1-23 19.6-23 9.9 0 25.5 1.7 37 1.7 12.8 0 16.6-4.3 16.6-8.4 0-5.4-5.1-7.6-15-9.5L49.6 301c-22.5-4.3-34.5-19.8-34.5-36.3 0-20 14.2-36.8 42.2-39.9 21.1-2.3 46.9.3 61 2 .5 2.4.8 4.7.8 7.2 0 18.7-9.9 22.7-19.4 22.7-7.3 0-18.6-1.3-31.6-1.3-13.2 0-18.6 3.6-18.6 8 0 4.7 5.2 6.6 13.4 8.1l25.8 4.8c26.6 4.9 38 19.9 38 38.4m46.3 23c0 11.5-4.5 18.1-27 18.1-3 0-5.6-.2-8.1-.6V202.9c0-11.6 3.9-23.7 26.6-23.7 2.9 0 5.8.3 8.5.9zm91.9 59c3 1.5 9 3.4 16.6 3.5 13.1.3 20.2-4.7 25.5-16.4l70-155.7c-2.9-1.5-9.3-3.3-14.5-3.4-9-.2-21.1 1.6-28.8 20L310.9 298l-44.5-72.3c-2.9-.9-9.9-2.1-15-2.1-15.8 0-24.5 5.8-33.6 15.6l-43.2 47.2 34.8 54.7c6.4 10 14.9 15.1 28.6 15.1 9 0 16.5-2.1 20-3.7l-41.9-63 29.7-31.5 48.7 76.3z" fill="#ff0031"/><linearGradient id="A" x1="414.37" x2="1244.631" y1="289.839" y2="289.839" gradientUnits="userSpaceOnUse"><stop stop-color="#ff0031" offset="0"/><stop stop-color="#9b001f" offset="1"/></linearGradient><path d="M1228 164.9H430.9c-9.2 0-16.7 7.5-16.7 16.7v216.5c0 9.2 7.5 16.7 16.7 16.7h797c9.2 0 16.7-7.5 16.7-16.7V181.5c-.1-9.2-7.4-16.6-16.6-16.6" fill="url(#A)"/><linearGradient id="B" x1="197.483" x2="194.588" y1="295.135" y2="212.243" gradientUnits="userSpaceOnUse"><stop stop-color="#fff" offset="0"/><stop stop-color="#fff" stop-opacity=".25" offset=".515"/></linearGradient><path d="M138 202.9v104.5c0-4.2 3.2-8.6 8.6-8.8l17.6-.6c3.5-.1 8.8-2.5 8.9-8.9v-109c-2.7-.6-5.6-.9-8.5-.9-22.7.1-26.6 12.1-26.6 23.7m80 36.4l-43.2 47.2 3.5 5.4c1.5 2 4.4 5.4 10.2 5.2l24.6-.9c5.4-.2 8.8 2.1 10.9 4.9l-7.7-11.6L246 258l19.9 31.3c3.6 4.7 9 4.8 10.2 4.8 1 0 27.2-.9 28.3-1 1.8-.1 3.9.9 5.5 3.2l-43.3-70.4c-2.9-.9-9.9-2.1-15-2.1-15.8-.1-24.5 5.6-33.6 15.5M57.3 224.8c-28 3.1-42.2 19.8-42.2 39.9 0 10.3 4.7 20.2 13.7 27.3 6.8 4.5 13.8 6.2 20.7 7.4 5.7 1 19 1.9 28.9 1.5l30.8-1.1c11.6-.4 17.8 9.5 17.2 19.4v-.5c.1-1.3.2-2.6.2-3.9 0-18.5-11.4-33.6-37.9-38.5l-25.8-4.8c-8.3-1.4-13.4-3.4-13.4-8.1 0-4.4 5.5-8.1 18.6-8.1 13 0 24.3 1.3 31.6 1.3 9.5 0 19.4-4 19.4-22.7 0-2.5-.3-4.8-.8-7.2-10.1-1.2-26.3-2.9-42.4-2.9-6.3.1-12.6.4-18.6 1m276.2 19.9l-22.1 52.1c0-.1 1.4-4.1 5.7-4.3l23.4-.8c7.1-.3 9.9-5.1 10.7-6.7l25.6-57.1c-2.9-1.5-9.3-3.3-14.5-3.4h-1.1c-8.9.1-20.3 2.5-27.7 20.2" fill="url(#B)" opacity=".3" enable-background="new"/><linearGradient id="C" x1="830.555" x2="826.25" y1="276.73" y2="153.473" gradientUnits="userSpaceOnUse"><stop stop-color="#fff" offset="0"/><stop stop-color="#fff" stop-opacity=".25" offset=".515"/></linearGradient><path d="M430.9 164.9c-9.2 0-16.7 7.5-16.7 16.7v120.2c0-1.8.7-11.7 12-12.8 0 0 .6-.1 1.6-.1l804.4-28.2c6.3-.2 12.4-4.9 12.4-12.7v-66.3c0-9.2-7.5-16.7-16.7-16.7z" fill="url(#C)" opacity=".3" enable-background="new"/><g fill="#fff"><path d="M1190.1 275.3v74.5c-2 .5-5.4 1-8.8 1-7 0-10.1-2.5-10.1-7.4v-9.8c-11.1 11.7-24.3 18.6-41.8 18.6-26.3 0-40.8-16.8-40.8-35.6 0-28.4 30.7-40.8 82.6-37.4V276c0-18.1-5.9-28.9-28.9-28.9-11.9 0-22.2 2.6-29.2 4.9-3.6 1-6.4 1.9-8.3 1.9-5.4 0-8.5-4.9-7.3-15.2 11.7-4.4 29.2-8.3 45.6-8.3 34.3.1 47 17.2 47 44.9m-19.1 40.8v-22.5c-33.8-1.5-63 1.8-63 22.7 0 10.3 8.8 19.9 24.5 19.9 16 0 29.5-8.1 38.5-20.1m-709.6-25c0-34.8 25.8-60.7 59.6-60.7 16.2 0 30.7 4.4 40.8 9.6 1 10.6-2.9 15-7.8 15-6.9 0-14.5-7.5-32.3-7.5-22.5 0-40.8 16.8-40.8 43.9s18.3 44.4 40.8 44.4c17.8 0 25.5-7.5 32.3-7.5 4.9 0 8.8 4.4 7.8 15-10.3 4.9-24.8 9.3-40.8 9.3-33.8-.5-59.6-26.7-59.6-61.5m413.8 7.8h-91.1c2.9 22.7 18.9 35.8 42.4 35.8 10.1 0 17.8-2.3 25.3-4.6 4.9-1.8 7.5-2.8 9.6-2.8 4.9 0 8.5 4.6 7.3 15.2-10.3 4.6-26.1 9.6-42.9 9.6-36.4 0-61.5-24.8-61.5-61.2 0-35.1 26.1-60.6 58.3-60.6 35.9 0 53.7 28.7 53.7 56.6-.1 3.7-.4 7.6-1.1 12m-91-15.7h73.3c-.8-20.1-13.7-35.9-34.8-35.9-18.8-.2-35.4 12.4-38.5 35.9m-201.8-77.6c0-7.2 5.7-12.4 12.4-12.4 6.9 0 12.2 5.4 12.2 12.4 0 6.4-5.4 12.2-12.2 12.2s-12.4-5.9-12.4-12.2m2.7 144.1V239.3c0-4.4 2.4-7.3 10.3-7.3 3.1 0 6.9.8 8.8 1.3v110.2c0 4.6-2.6 7.3-10.3 7.3-3.2-.1-6.9-.6-8.8-1.1"/><path d="M1064.5 272.9v70.5c0 4.6-2.6 7.3-10.3 7.3-3.1 0-6.9-.5-8.8-1V275c0-17.3-8.3-27.6-23.8-27.6-13.2 0-24.5 9.6-28.9 19.1v76.9c0 4.6-2.4 7.3-10.1 7.3-3.4 0-7-.5-9-1V275c0-17.3-8-27.6-23.8-27.6-13.2 0-24.5 9.6-28.9 19.1v76.9c0 4.6-2.4 7.3-10.1 7.3-3.4 0-7.2-.5-8.8-1V233.2c2-.5 5.7-1.3 8.8-1.3 7.3 0 9.8 2.9 9.8 7.8v8.3c7.5-10.1 19.4-17.6 33.8-17.6 15.5 0 27.6 8 33.8 21.2 8-11.7 20.4-21.2 37.7-21.2 25.2.1 38.6 19.2 38.6 42.5m-325.3 7.5v63c0 4.6-2.4 7.3-10.1 7.3-3.1 0-6.9-.5-8.8-1V283c0-24-11.9-35.4-29.4-35.4-13.9 0-28.9 9.8-35.1 21.1v74.9c0 4.6-2.5 7.3-10.1 7.3-3.4 0-7-.5-8.8-1V233.2c1.8-.5 5.4-1.3 8.8-1.3 7.5 0 10.1 2.9 10.1 7.3v10.1c8.5-10.3 21.5-18.9 39.2-18.9 24.1.1 44.2 15.4 44.2 50"/></g></g><path d="M344.133 198.068c1.889-.614 4.161-.372 5.672 1.006 2.271 1.826 2.67 5.512.833 7.777-1.222 1.607-3.331 2.444-5.319 2.138-2.889-.322-5.174-3.224-4.812-6.11.146-2.135 1.65-4.044 3.626-4.812zm-83.816 1.541c2.464-.648 5.047-.226 7.528.123l-.01 23.802c2.63-3.34 6.319-6.053 10.57-6.807 4.715-.804 9.982-.09 13.711 3.115 4.137 3.463 5.725 9.052 5.844 14.272l.02 23.517c.043 1.65-.85 3.46-2.543 3.905-2.454.657-5.034.252-7.505-.099l-.003-26.044c-.093-2.666-.648-5.509-2.461-7.568-1.634-1.876-4.144-2.766-6.585-2.823-3.839-.206-7.727 1.544-10.138 4.536-.388.551-.923 1.109-.896 1.83l-.013 26.286c.017 1.664-.866 3.527-2.613 3.925-2.437.584-4.981.209-7.428-.146l.003-57.932c-.043-1.634.823-3.46 2.52-3.892zm-42.64 7.123a27.87 27.87 0 0 1 16.378-5.144c5.881-.116 11.708 1.209 17.164 3.337.369 2.597.332 5.758-1.833 7.604-1.508 1.335-3.683.896-5.386.236-4.207-1.524-8.81-2.231-13.236-1.331-4.994 1.029-9.401 4.397-11.822 8.869-2.816 5.064-3.337 11.141-2.364 16.779.9 5.058 3.6 9.959 7.989 12.784 5.021 3.244 11.506 3.47 17.115 1.777 1.763-.478 3.443-1.481 5.33-1.325 1.886.003 3.646 1.315 4.231 3.098.564 1.717.478 3.57.282 5.343a41.52 41.52 0 0 1-16.467 3.364c-5.662.189-11.4-1.205-16.225-4.204-6.137-3.712-10.487-9.992-12.356-16.869-1.434-5.353-1.548-11.061-.388-16.477 1.561-7.066 5.629-13.661 11.589-17.842zm192.268-.993c2.258-.717 4.742-.488 6.99.179l.007 11.284 14.94.007c.445 1.866.631 3.855.186 5.738-.329 1.345-1.727 2.132-3.042 2.125l-12.084.02-.003 21.591c.026 1.992.614 4.137 2.195 5.466 1.703 1.428 4.114 1.544 6.213 1.156 1.624-.262 3.058-1.135 4.642-1.541 1.544-.395 3.43.229 4.118 1.747.724 1.581.631 3.384.525 5.077-3.636 2.099-7.767 3.397-11.988 3.37-3.992.146-8.172-.98-11.111-3.789-2.089-1.992-3.46-4.666-4.041-7.478-.442-2.079-.448-4.214-.431-6.329v-19.27c-2.308-.003-4.616.003-6.92-.003-.319-1.733-.435-3.52-.206-5.27a2.98 2.98 0 0 1 2.5-2.51c1.531-.206 3.082-.07 4.626-.103.05-2.484-.113-4.974.103-7.448.126-1.703 1.066-3.48 2.783-4.018zm50.148 10.941c4.065-.734 8.497.106 11.772 2.703 1.883 1.468 3.165 3.56 4.021 5.762 2.384-4.051 6.153-7.641 10.928-8.478 3.307-.468 6.837-.306 9.882 1.182 2.228 1.069 3.985 2.969 5.114 5.147 1.518 2.875 2.069 6.167 2.128 9.394l.005 25.247c.076 1.664-.833 3.546-2.573 3.938-2.427.594-4.961.216-7.395-.136l-.005-26.734c-.036-2.643-.302-5.602-2.288-7.564-1.684-1.78-4.283-2.291-6.635-1.999-3.314.306-6.197 2.676-7.624 5.602l-.067 27.146c-.005 1.6-.956 3.301-2.6 3.686-2.437.591-4.984.213-7.431-.143l.005-27.704c-.005-2.859-.943-6.067-3.546-7.604-2.872-1.594-6.681-1.388-9.358.518-1.518 1.079-2.965 2.457-3.666 4.21l-.036 27.116c.017 1.557-.92 3.228-2.517 3.593-2.44.611-4.998.229-7.445-.129l.007-43.842c2.457-.657 5.286-1.275 7.638.036 1.896 1.225 2.108 3.702 2.158 5.751 2.241-3.258 5.618-5.871 9.53-6.698zm54.9 2.467c5.682-1.763 11.619-2.853 17.583-2.693 4.908-.063 10.321.714 13.996 4.27 3.201 3.101 4.031 7.741 4.201 12.011.169 5.539.004 11.081.086 16.617.126 3.932.777 7.84 1.893 11.609-1.959.76-4.101 1.083-6.193.827a4.786 4.786 0 0 1-3.62-2.504c-.963-1.787-.943-3.872-1.162-5.834-1.464 2.179-3.108 4.32-5.349 5.748-3.925 2.633-8.883 3.264-13.492 2.627-3.115-.472-6.186-1.826-8.331-4.181-2.328-2.464-3.42-5.927-3.291-9.281-.03-3.815 1.431-7.744 4.406-10.228 3.643-3.071 8.524-4.121 13.176-4.294 4.158-.17 8.315.339 12.403 1.059-.056-2.633.156-5.549-1.441-7.817-1.209-1.687-3.387-2.212-5.333-2.437-4.463-.511-8.929.382-13.209 1.587-1.607.375-3.689.823-4.958-.545-1.494-1.8-1.554-4.324-1.365-6.542m13.548 21.667c-1.959.345-3.932 1.053-5.413 2.421-1.926 1.83-2.464 4.908-1.382 7.312.82 1.733 2.647 2.723 4.449 3.135 3.314.704 6.95.026 9.699-1.983 2.318-1.76 4.304-4.061 5.429-6.757.133-1.215.02-2.444.047-3.663-4.224-.714-8.574-1.195-12.831-.465zm-220.098-23.227c2.278-.601 4.785-1.159 7.06-.256 1.657.641 2.454 2.461 2.603 4.124.106 1.428.01 2.862.053 4.29 1.298-3.042 3.231-6.007 6.236-7.591 3.254-1.856 7.192-1.66 10.752-.986.491 2.149.923 4.566-.196 6.595-.827 1.501-2.65 2.062-4.267 1.996-2.75-.023-5.668.08-8.079 1.564-1.78.973-3.071 2.693-3.646 4.626-.634 2.079-.561 4.28-.561 6.429l-.003 19.615c.007 1.511-.883 3.148-2.427 3.54-2.457.664-5.054.252-7.531-.096zm35.232-.418c2.407-.591 4.931-.226 7.352.133l-.007 40.648c.017 1.548-.946 3.181-2.507 3.583-2.431.667-4.994.249-7.448-.09l-.007-40.353c-.103-1.69.903-3.497 2.617-3.922zm29.574-.335c7.08-.774 14.236.465 20.963 2.663.146 1.946.206 4.088-.91 5.784-.598.946-1.714 1.461-2.816 1.404-2.886.126-5.509-1.302-8.335-1.607-2.593-.312-5.23-.428-7.827-.09-1.335.183-2.733.541-3.723 1.511-1.415 1.352-1.335 4.061.392 5.12 2.065 1.328 4.543 1.737 6.86 2.44 4.759 1.401 9.809 2.384 13.95 5.276 2.627 1.793 4.343 4.802 4.556 7.976.276 3.543-.644 7.422-3.301 9.935-2.763 2.723-6.661 3.948-10.427 4.436-7.787.883-15.697-.465-23.055-3.022-.286-2.089-.279-4.483 1.146-6.189.847-1.029 2.291-1.215 3.536-1.019 2.7.375 5.257 1.395 7.936 1.866 2.607.548 5.29.581 7.943.442 1.833-.192 3.842-.545 5.194-1.913 1.481-1.677 1.342-4.798-.714-5.967-2.504-1.464-5.393-2.019-8.139-2.846-4.546-1.298-9.374-2.384-13.137-5.413-4.875-3.965-4.951-12.233-.392-16.464 2.75-2.653 6.578-3.862 10.297-4.327zm189.715 3.726c3.842-3.092 8.966-3.992 13.781-3.941 5.735-.066 11.413 1.116 16.846 2.886.179 2.165.192 4.722-1.445 6.376-1.71 1.401-4.124.707-6.08.282-3.825-1.265-7.916-1.614-11.918-1.232-1.441.163-2.975.472-4.074 1.481-1.548 1.345-1.454 4.247.395 5.286 2.009 1.245 4.38 1.66 6.615 2.328 4.337 1.268 8.856 2.192 12.804 4.486 2.285 1.288 4.254 3.274 5.17 5.768 1.109 3.045.88 6.479-.265 9.477-1.083 2.696-3.351 4.785-5.961 5.984-4.449 2.175-9.547 2.378-14.405 2.138-5.273-.315-10.47-1.481-15.457-3.185-.295-2.135-.342-4.656 1.245-6.329 1.268-1.375 3.321-.996 4.951-.638 3.586.903 7.162 2.069 10.902 2.092 2.65.023 5.512.1 7.86-1.335 1.627-.983 2.069-3.174 1.504-4.888-.545-1.524-2.168-2.158-3.543-2.716-4.184-1.518-8.577-2.371-12.774-3.852-2.859-1.062-5.795-2.391-7.777-4.798-3.716-4.526-2.982-12.017 1.627-15.67z" fill="#fff"/></svg>