<?xml version="1.0" encoding="UTF-8"?>
<svg width="800" height="244.41" version="1.1" viewBox="0 0 800 244.41" xmlns="http://www.w3.org/2000/svg">
	<g>
		<path d="m72.615 97.471c0 13.989-9.1094 24.14-27.719 26.157-13.404 1.4315-32.859-0.26027-42.098-1.3013-0.32534-1.4965-0.5856-3.3835-0.5856-4.88 0-12.168 6.5718-14.965 12.753-14.965 6.4416 0 16.592 1.1061 24.075 1.1061 8.3286 0 10.801-2.7979 10.801-5.4656 0-3.5136-3.3184-4.9451-9.7601-6.1814l-17.633-3.3835c-14.64-2.7979-22.448-12.883-22.448-23.619 0-13.013 9.2395-23.945 27.458-25.962 13.729-1.4965 30.516 0.1952 39.691 1.3013 0.32534 1.5616 0.52054 3.0582 0.52054 4.6848 0 12.168-6.4416 14.77-12.623 14.77-4.7499 0-12.102-0.84587-20.561-0.84587-8.5889 0-12.102 2.3424-12.102 5.2054 0 3.0582 3.3835 4.2944 8.719 5.2704l16.787 3.1232c17.308 3.1883 24.725 12.948 24.725 24.986m30.126 14.965c0 7.4827-2.928 11.777-17.568 11.777-1.952 0-3.6438-0.13014-5.2704-0.39041v-99.097c0-7.5478 2.5376-15.421 17.308-15.421 1.8869 0 3.7739 0.1952 5.5307 0.5856zm59.797 38.39c1.952 0.97601 5.856 2.2123 10.801 2.2774 8.5238 0.1952 13.144-3.0582 16.592-10.671l45.547-101.31c-1.887-0.97601-6.0512-2.1472-9.4347-2.2123-5.856-0.13013-13.729 1.0411-18.739 13.013l-14.835 34.681-28.955-47.044c-1.8869-0.5856-6.4416-1.3664-9.7601-1.3664-10.281 0-15.941 3.7739-21.863 10.15l-28.109 30.712 22.643 35.592c4.1643 6.5067 9.695 9.8251 18.609 9.8251 5.856 0 10.736-1.3664 13.013-2.4075l-27.263-40.992 19.325-20.496 31.688 49.646z" fill="#ff0031"/>
		<path d="m789.2 0h-518.65c-5.9862 0-10.866 4.88-10.866 10.866v140.87c0 5.9862 4.88 10.866 10.866 10.866h518.58c5.9862 0 10.866-4.88 10.866-10.866v-140.94c-0.06507-5.9862-4.815-10.801-10.801-10.801" fill="url(#A)"/>
		<path d="m79.967 24.725v67.995c0-2.7328 2.0821-5.5958 5.5958-5.7259l11.452-0.3904c2.2773-0.06507 5.7259-1.6267 5.791-5.791v-70.923c-1.7568-0.3904-3.6438-0.5856-5.5307-0.5856-14.77 0.065067-17.308 7.8731-17.308 15.421m52.054 23.684-28.109 30.712 2.2774 3.5136c0.97601 1.3013 2.863 3.5136 6.6368 3.3835l16.007-0.5856c3.5136-0.13013 5.7259 1.3664 7.0923 3.1883l-5.0102-7.5478 19.325-20.496 12.948 20.366c2.3424 3.0582 5.856 3.1232 6.6368 3.1232 0.65067 0 17.698-0.5856 18.414-0.65067 1.1712-0.06507 2.5376 0.5856 3.5787 2.0821l-28.174-45.807c-1.887-0.5856-6.4416-1.3664-9.7601-1.3664-10.281-0.06507-15.941 3.6438-21.863 10.085m-104.56-9.4347c-18.219 2.0171-27.458 12.883-27.458 25.962 0 6.7019 3.0582 13.144 8.9142 17.763 4.4246 2.928 8.9793 4.0342 13.469 4.815 3.7088 0.65067 12.363 1.2363 18.804 0.97601l20.041-0.71574c7.5478-0.26027 11.582 6.1814 11.192 12.623v-0.32534c0.06507-0.84587 0.13013-1.6917 0.13013-2.5376 0-12.037-7.4176-21.863-24.66-25.051l-16.787-3.1232c-5.4006-0.91094-8.719-2.2123-8.719-5.2704 0-2.863 3.5787-5.2704 12.102-5.2704 8.4587 0 15.811 0.84587 20.561 0.84587 6.1814 0 12.623-2.6027 12.623-14.77 0-1.6267-0.1952-3.1232-0.52054-4.6848-6.5718-0.7808-17.113-1.8869-27.588-1.8869-4.0992 0.06507-8.1985 0.26027-12.102 0.65067m179.72 12.948-14.38 33.9c0-0.06507 0.91094-2.6678 3.7088-2.7979l15.226-0.52054c4.6198-0.1952 6.4416-3.3184 6.9622-4.3595l16.657-37.153c-1.8869-0.97601-6.0512-2.1472-9.4347-2.2123h-0.71573c-5.791 0.06507-13.209 1.6267-18.024 13.144" enable-background="new" fill="url(#B)" opacity=".3"/>
		<path d="m270.55 0c-5.9862 0-10.866 4.88-10.866 10.866v78.211c0-1.1712 0.45547-7.6129 7.808-8.3286 0 0 0.3904-0.06507 1.0411-0.06507l523.4-18.349c4.0992-0.13013 8.0683-3.1883 8.0683-8.2635v-43.139c0-5.9862-4.88-10.866-10.866-10.866z" enable-background="new" fill="url(#C)" opacity=".3"/>
		<path d="m377.19 18.414c-4.3595 0-8.0684 3.3835-8.0684 8.0684 0 4.0992 3.6438 7.9375 8.0684 7.9375 4.4246 0 7.9375-3.7732 7.9375-7.9375 0-4.5547-3.4479-8.0684-7.9375-8.0684zm148.22 24.141c-20.952 0-37.936 16.591-37.936 39.43 0 23.684 16.333 39.82 40.018 39.82 10.931 0 21.212-3.253 27.914-6.2461 0.78081-6.8971-1.5617-9.8906-4.75-9.8906-1.3664 0-3.0598 0.65105-6.248 1.8223-4.88 1.4965-9.8892 2.9942-16.461 2.9942-15.291-1e-5 -25.701-8.5247-27.588-23.295h59.275c0.45547-2.863 0.64974-5.4011 0.71484-7.8086 0-18.154-11.58-36.826-34.939-36.826zm-196.24 0.06445c-21.993 0-38.781 16.853-38.781 39.496 0 22.643 16.789 39.69 38.781 40.016 10.411 0 19.845-2.8625 26.547-6.0508 0.65067-6.8971-1.8879-9.7598-5.0762-9.7598-4.4246 0-9.4337 4.8789-21.016 4.8789-14.64 0-26.549-11.255-26.549-28.889 0-17.633 11.909-28.564 26.549-28.564 11.582 0 16.526 4.8789 21.016 4.8789 3.1883 0 5.7268-2.8627 5.0762-9.7598-6.5718-3.3835-16.006-6.2461-26.547-6.2461zm113.22 0c-11.517 0-19.977 5.595-25.508 12.297v-6.5703c0-2.863-1.6903-4.75-6.5703-4.75-2.2123 0-4.5554 0.52037-5.7266 0.8457v75.934c1.1712 0.32533 3.5143 0.65039 5.7266 0.65039 4.9451 0 6.5703-1.7569 6.5703-4.75v-48.736c4.0342-7.3526 13.796-13.729 22.84-13.729 11.387 0 19.129 7.4171 19.129 23.033v43.4c1.2363 0.32534 3.7095 0.65039 5.7266 0.65039 5.0102 0 6.5703-1.7569 6.5703-4.75v-40.992c0-22.513-13.077-32.468-28.758-32.533zm168.78 0c-9.3697 0-17.112 4.8794-21.992 11.451v-5.4004c0-3.1883-1.627-5.0742-6.377-5.0742-2.0171 0-4.4252 0.52037-5.7266 0.8457v75.803c1.0411 0.32534 3.5143 0.65039 5.7266 0.65039 5.0102 0 6.5723-1.7569 6.5723-4.75v-50.037c2.863-6.1814 10.214-12.428 18.803-12.428 10.281-1e-6 15.486 6.7024 15.486 17.959v48.605c1.3014 0.32534 3.6451 0.65039 5.8574 0.65039 5.0102 0 6.5703-1.7569 6.5703-4.75v-50.037c2.863-6.1814 10.216-12.428 18.805-12.428 10.085-1e-6 15.486 6.7024 15.486 17.959v48.605c1.2363 0.32534 3.7095 0.65039 5.7266 0.65039 5.0102 0 6.7012-1.7569 6.7012-4.75v-45.873c0-15.161-8.7183-27.587-25.115-27.652-11.257 0-19.326 6.1821-24.531 13.795-4.0342-8.5889-11.907-13.795-21.992-13.795zm122.78 0c-10.671 0-22.057 2.5374-29.67 5.4004-0.7808 6.7019 1.2364 9.8906 4.75 9.8906 1.2363 0 3.058-0.58566 5.4004-1.2363 4.5547-1.4965 11.257-3.1895 19-3.1895 14.965 0 18.803 7.0275 18.803 18.805v2.082c-33.77-2.2123-53.744 5.8569-53.744 24.336 0 12.233 9.4342 23.164 26.547 23.164 11.387 0 19.975-4.4907 27.197-12.104v6.377c0 3.1883 2.0176 4.8144 6.5723 4.8144 2.2123 0 4.4252-0.32506 5.7266-0.65039v-48.475c0-18.024-8.264-29.15-30.582-29.215zm-356.37 1.041c-5.1403 0-6.7012 1.887-6.7012 4.75v71.834c1.2363 0.32534 3.6444 0.64974 5.7266 0.71484 5.0102 0 6.7012-1.7569 6.7012-4.75v-71.703c-1.2363-0.32534-3.7095-0.8457-5.7266-0.8457zm147.9 9.9551c13.729 0 22.122 10.281 22.643 23.359h-47.693c2.0171-15.291 12.818-23.49 25.051-23.359zm218.55 29.922c2.6243 0.0081 5.3271 0.08308 8.0762 0.20508v14.639c-5.856 7.8081-14.64 13.078-25.051 13.078-10.216 0-15.941-6.2454-15.941-12.947 0-11.899 14.546-15.032 32.916-14.975z" fill="#fff"/>
		<path d="m399.13 179.37c-1.5313 0-2.8487 0.55179-3.9512 1.6543s-1.6543 2.4505-1.6543 4.043c0 1.5313 0.55179 2.8467 1.6543 3.9492s2.4199 1.6543 3.9512 1.6543c1.5925 0 2.9405-0.55179 4.043-1.6543s1.6524-2.418 1.6524-3.9492c0-1.5925-0.54984-2.9405-1.6524-4.043s-2.4504-1.6543-4.043-1.6543zm-83.607 1.5625c-1.96 0-3.308 0.3971-4.043 1.1934-0.67376 0.79626-1.0098 1.8082-1.0098 3.0332v58.34c0.49 0.12249 1.1945 0.21608 2.1133 0.27734 0.98 0.1225 1.9289 0.1836 2.8476 0.1836 1.96 0 3.2774-0.39905 3.9512-1.1953 0.735-0.79626 1.1016-1.8062 1.1016-3.0312v-26.92c0.91876-1.7763 2.3583-3.2158 4.3184-4.3184 2.0213-1.1638 4.1043-1.7461 6.248-1.7461 3.1238 0 5.5428 0.95084 7.2578 2.8496 1.715 1.8375 2.5723 4.7147 2.5723 8.6348v25.266c0.49001 0.12249 1.1945 0.21608 2.1133 0.27734 0.91876 0.1225 1.8371 0.1836 2.7559 0.1836 1.96 0 3.308-0.39905 4.043-1.1953 0.73501-0.79626 1.1035-1.8062 1.1035-3.0312v-22.602c0-3.3075-0.4296-6.1562-1.2871-8.5449s-2.0202-4.3476-3.4902-5.8789c-1.47-1.5313-3.1865-2.6654-5.1465-3.4004-1.8988-0.735-3.9493-1.1016-6.1543-1.1016-3.3075 0-6.1562 0.73311-8.5449 2.2031-2.3888 1.4088-4.319 3.1252-5.7891 5.1465v-24.164c-0.49001-0.12248-1.2251-0.21413-2.2051-0.27539-0.91876-0.12251-1.8371-0.1836-2.7559-0.1836zm104.28 0c-1.96 0-3.308 0.3971-4.043 1.1934-0.67375 0.79626-1.0098 1.8082-1.0098 3.0332v58.34c0.49001 0.12249 1.1945 0.21608 2.1133 0.27734 0.98 0.1225 1.9289 0.1836 2.8476 0.1836 1.96 0 3.2774-0.39905 3.9512-1.1953 0.73501-0.79626 1.1016-1.8062 1.1016-3.0312v-58.342c-0.49001-0.12248-1.2251-0.21413-2.2051-0.27539-0.91876-0.12251-1.8371-0.1836-2.7559-0.1836zm20.488 0c-1.96 0-3.308 0.3971-4.043 1.1934-0.67376 0.79626-1.0098 1.8082-1.0098 3.0332v58.34c0.49 0.12249 1.1945 0.21608 2.1133 0.27734 0.98 0.1225 1.9289 0.1836 2.8476 0.1836 1.96 0 3.2774-0.39905 3.9512-1.1953 0.73501-0.79626 1.1016-1.8062 1.1016-3.0312v-58.342c-0.49-0.12248-1.2251-0.21413-2.2051-0.27539-0.91876-0.12251-1.8371-0.1836-2.7559-0.1836zm-158.49 6.0645c-1.2863 0-2.3268 0.15273-3.123 0.45898-0.735 0.30626-1.3173 0.7339-1.7461 1.2852-0.3675 0.55126-0.64242 1.1641-0.82617 1.8379-0.1225 0.67376-0.18359 1.3783-0.18359 2.1133v6.3398h-3.9512c-0.98 0-1.8067 0.30547-2.4805 0.91797-0.6125 0.61251-0.91992 1.6855-0.91992 3.2168 0 0.67375 0.0305 1.3477 0.0918 2.0215s0.15484 1.2236 0.27734 1.6524h6.9824v21.775c0 2.2663 0.33601 4.3493 1.0098 6.248 0.67376 1.8375 1.6532 3.4604 2.9394 4.8691 1.2863 1.3475 2.848 2.4186 4.6856 3.2148 1.8988 0.73501 4.0429 1.1035 6.4316 1.1035 2.6338 0 4.9306-0.30742 6.8906-0.91993 2.0213-0.6125 3.921-1.4392 5.6973-2.4805 0.0613-0.30625 0.0918-0.61171 0.0918-0.91796v-1.0117c0-1.715-0.33796-2.9694-1.0117-3.7656-0.67375-0.79625-1.5921-1.1953-2.7559-1.1953-0.49 0-1.0093 0.0916-1.5606 0.27539-0.49 0.18375-1.0418 0.39952-1.6543 0.64453-0.55126 0.245-1.1947 0.45883-1.9297 0.64258s-1.5617 0.27539-2.4805 0.27539c-2.1438 0-3.7666-0.64342-4.8691-1.9297-1.1025-1.2863-1.6543-3.0924-1.6543-5.4199v-21.408h12.127c0.98001 0 1.7762-0.30546 2.3887-0.91797 0.67375-0.6125 1.0117-1.6836 1.0117-3.2148 0-1.5313-0.15273-2.757-0.45899-3.6758h-15.068v-11.393c-1.1638-0.42876-2.4812-0.64258-3.9512-0.64258zm192.76 11.209c-3.0625 0-5.9111 0.58038-8.5449 1.7441-2.6338 1.1638-4.9306 2.7866-6.8906 4.8691-1.8988 2.0213-3.3994 4.4422-4.502 7.2598-1.1025 2.7563-1.6523 5.7882-1.6523 9.0957 0 3.3075 0.51928 6.4005 1.5605 9.2793 1.1025 2.8175 2.6643 5.2671 4.6856 7.3496s4.5033 3.7054 7.4434 4.8691 6.2774 1.7461 10.014 1.7461c3.4913 0 6.6148-0.36851 9.3711-1.1035 2.7563-0.79626 5.0531-1.623 6.8906-2.4805 0.0613-0.3675 0.0918-0.73406 0.0918-1.1016 0.0613-0.3675 0.0918-0.70547 0.0918-1.0117 0-1.6538-0.36655-2.9692-1.1016-3.9492-0.67376-0.98001-1.5616-1.4707-2.6641-1.4707-0.79626 0-1.5924 0.12218-2.3887 0.36718-0.79626 0.24501-1.686 0.55242-2.666 0.91992-0.98 0.30626-2.0816 0.58118-3.3066 0.82618s-2.6646 0.36718-4.3184 0.36718c-3.8588 0-6.9823-0.91834-9.3711-2.7559-2.3275-1.8988-3.706-4.6252-4.1348-8.1777h31.881c0.30626-1.5313 0.45899-3.0625 0.45899-4.5938 0-2.7563-0.4582-5.4502-1.377-8.084-0.8575-2.6338-2.1749-4.9917-3.9512-7.0742-1.715-2.0825-3.8897-3.7379-6.5234-4.9629-2.6338-1.2863-5.6657-1.9277-9.0957-1.9277zm-91.049 0.27539c-2.7563 0-5.1753 0.76561-7.2578 2.2969-2.0825 1.47-3.7359 3.7058-4.9609 6.707h-0.18359v-3.2168c0-1.715-0.4296-3.063-1.2871-4.043-0.79625-1.0413-2.1442-1.5605-4.043-1.5605-0.85751 0-1.6537 0.0916-2.3887 0.27539-0.67375 0.1225-1.3477 0.27523-2.0215 0.45898v44.1c0.49001 0.12249 1.1945 0.21608 2.1133 0.27734 0.98 0.1225 1.9289 0.1836 2.8476 0.1836 1.96 0 3.2774-0.39905 3.9512-1.1953 0.73501-0.79626 1.1035-1.8062 1.1035-3.0312v-21.959c0-3.4913 0.94889-6.063 2.8477-7.7168 1.96-1.6538 4.5318-2.4805 7.7168-2.4805h1.6543c3.43 0 5.1445-1.7165 5.1445-5.1465 0-1.0413-0.18328-2.204-0.55078-3.4902-0.67376-0.12249-1.4088-0.21413-2.2051-0.27539-0.73501-0.1225-1.5617-0.1836-2.4805-0.1836zm142.68 0c-2.7563 0-5.1753 0.76561-7.2578 2.2969-2.0825 1.47-3.7359 3.7058-4.9609 6.707h-0.18555v-3.2168c0-1.715-0.42765-3.063-1.2852-4.043-0.79626-1.0413-2.1442-1.5605-4.043-1.5605-0.8575 0-1.6537 0.0916-2.3887 0.27539-0.67376 0.1225-1.3477 0.27523-2.0215 0.45898v44.1c0.49 0.12249 1.1945 0.21608 2.1133 0.27734 0.98001 0.1225 1.9289 0.1836 2.8477 0.1836 1.96 0 3.2774-0.39905 3.9512-1.1953 0.735-0.79626 1.1035-1.8062 1.1035-3.0312v-21.959c0-3.4913 0.94889-6.063 2.8477-7.7168 1.96-1.6538 4.5318-2.4805 7.7168-2.4805h1.6543c3.43 0 5.1445-1.7165 5.1445-5.1465 0-1.0413-0.18327-2.204-0.55078-3.4902-0.67375-0.12249-1.4088-0.21413-2.2051-0.27539-0.73501-0.1225-1.5617-0.1836-2.4805-0.1836zm-127.06 0.1836c-1.8988 0-3.2162 0.3971-3.9512 1.1934-0.73501 0.79625-1.1016 1.8082-1.1016 3.0332v40.607c0.49 0.12249 1.1945 0.21608 2.1133 0.27734 0.91876 0.1225 1.8371 0.1836 2.7559 0.1836 1.96 0 3.308-0.39905 4.043-1.1953 0.735-0.79626 1.1016-1.8062 1.1016-3.0312v-40.609c-0.49001-0.12249-1.1945-0.21412-2.1133-0.27539-0.91876-0.1225-1.8676-0.18359-2.8477-0.18359zm75.43 7.3496c3.5525 0 6.279 1.1322 8.1777 3.3984 1.96 2.205 3.0922 4.962 3.3984 8.2695h-23.061c0.30625-3.4913 1.4404-6.3094 3.4004-8.4531 2.0213-2.1438 4.7152-3.2148 8.084-3.2148z" fill="#fff"/>
	</g>
	<defs>
		<linearGradient id="A" x1="414.37" x2="1244.6" y1="289.84" y2="289.84" gradientTransform="matrix(.65067 0 0 .65067 -9.8251 -107.3)" gradientUnits="userSpaceOnUse">
			<stop stop-color="#ff0031" offset="0"/>
			<stop stop-color="#9b001f" offset="1"/>
		</linearGradient>
		<linearGradient id="B" x1="197.48" x2="194.59" y1="295.14" y2="212.24" gradientTransform="matrix(.65067 0 0 .65067 -9.8251 -107.3)" gradientUnits="userSpaceOnUse">
			<stop stop-color="#fff" offset="0"/>
			<stop stop-color="#fff" stop-opacity=".25" offset=".515"/>
		</linearGradient>
		<linearGradient id="C" x1="830.55" x2="826.25" y1="276.73" y2="153.47" gradientTransform="matrix(.65067 0 0 .65067 -9.8251 -107.3)" gradientUnits="userSpaceOnUse">
			<stop stop-color="#fff" offset="0"/>
			<stop stop-color="#fff" stop-opacity=".25" offset=".515"/>
		</linearGradient>
	</defs>
</svg>
