<svg xmlns="http://www.w3.org/2000/svg" width="2641.668" height="500" viewBox="0 0 1981.251 375"><defs><linearGradient id="A" x1="1169.001" y1="332.975" x2="1169.001" y2="18.337" gradientUnits="userSpaceOnUse"><stop offset="0" stop-color="#f30"/><stop offset=".381" stop-color="#ff8500"/><stop offset="1" stop-color="#f69b00"/></linearGradient><linearGradient id="B" x1="1210.977" y1="405.584" x2="1210.977" y2="96.541" gradientUnits="userSpaceOnUse"><stop stop-color="#f30" offset="0"/><stop stop-color="#ff8500" offset=".673"/><stop stop-color="#f69b00" offset="1"/></linearGradient></defs><path d="M373.783 348.165c4.46 2.4 13.374 5.144 25.033 5.144 19.547.342 30.178-7.202 38.065-24.7L541.816 94.74c-4.457-2.4-14.06-4.8-21.604-5.144-13.374-.343-31.55 2.4-43.208 30.178l-33.95 80.244-66.87-108.02c-4.457-1.37-14.746-3.086-22.633-3.086-23.32 0-36.692 8.573-50.41 23.32l-64.47 70.642 52.124 81.958c9.602 15.088 22.3 22.633 42.866 22.633 13.374 0 24.7-3.086 29.834-5.487l-62.755-94.646 44.58-46.98 73.042 114.537zm-137.5-88.474c0 17.146-6.86 27.09-40.465 27.09-4.46 0-8.23-.343-12.002-1.03V57.37c0-17.488 5.83-35.32 39.778-35.32 4.114 0 8.573.343 12.688 1.37zM166.66 225.4c0 32.235-20.918 55.554-63.784 60.354-30.863 3.43-75.786-.686-97.047-3.086-.686-3.43-1.37-7.888-1.37-11.317 0-28.12 15.088-34.635 29.5-34.635 14.747 0 38.066 2.4 55.555 2.4 19.204 0 24.7-6.517 24.7-12.688 0-8.23-7.545-11.317-22.633-14.403l-40.122-7.2C17.832 198.307 0 174.99 0 150.298c0-30.176 21.262-55.21 63.097-60.01 31.55-3.428 70.3.343 91.218 3.087.686 3.772 1.028 7.2 1.028 10.973 0 28.12-14.745 33.95-29.15 33.95-10.973 0-27.776-2.057-47.323-2.057-19.89 0-27.776 5.485-27.776 12.002 0 6.858 7.888 9.944 20.233 12.002l38.75 7.2c39.78 7.544 56.583 30.178 56.583 57.954" fill="url(#A)"/><path d="M223.584 22.05c-33.948 0-39.78 17.834-39.78 35.322v152.672l52.468-1.88-.002-184.742c-4.115-1.028-8.574-1.372-12.688-1.372zM353.55 88.9c-23.32 0-36.693 8.573-50.4 23.32l-64.47 70.642 15.672 24.643 58.393-2.093-11.995-18.092 44.58-46.98 39.842 62.476 109.927-3.94L541.817 94.74c-4.457-2.4-14.06-4.802-21.605-5.145-13.374-.343-31.55 2.4-43.208 30.18l-33.95 80.244-66.87-108.02c-4.457-1.37-14.747-3.086-22.634-3.086zm-259.53.022c-10.502-.084-21.064.283-30.923 1.355C21.262 95.09 0 120.123 0 150.298c0 24.69 17.833 48.01 51.44 54.525l40.12 7.202 5.182 1.14 68.182-2.445c-5.196-20.878-22.35-37.112-54.846-43.274l-38.75-7.202c-12.344-2.058-20.233-5.143-20.233-12 0-6.517 7.887-12.003 27.776-12.003 19.547 0 36.35 2.057 47.323 2.057 14.404 0 29.15-5.83 29.15-33.95 0-3.772-.342-7.202-1.028-10.974-14.38-1.886-37.19-4.258-60.295-4.443z" opacity=".2" fill="#f9f9f9"/><path d="M588.473-4.272H1849.42a22.74 22.74 0 0 1 22.786 22.786v308.79a22.74 22.74 0 0 1-22.786 22.786H588.473a22.74 22.74 0 0 1-22.786-22.786V18.514a22.74 22.74 0 0 1 22.786-22.786z" fill="url(#B)" transform="matrix(1.058243 0 0 1.058243 0 4.520974)"/><path d="M633.472 11.112c-13.144 0-23.725 10.117-23.725 22.684v307.41c0 12.567 10.58 22.684 23.725 22.684h1312.942c13.144 0 23.725-10.117 23.725-22.684V33.796c0-12.567-10.58-22.684-23.725-22.684zm9.192 9.524H1937.22c12.96 0 23.393 9.57 23.393 21.46v290.8c0 11.888-10.434 21.46-23.393 21.46H642.664c-12.96 0-23.393-9.57-23.393-21.46v-290.8c0-11.888 10.434-21.46 23.393-21.46z" fill="#ffee1f"/><path d="M1789.255 335.454c-2.478-.65-5.61-1.688-6.963-2.31l-2.458-1.128 6.107-12.808 59.455-128.085 29.685-66.665c8.488-19.053 10.27-21.885 14.872-23.642 4.142-1.582 14.015-1.013 20.777 1.197 2.82.922 5.275 1.912 5.453 2.2.272.44-8.245 19.552-17.427 39.108l-42.646 93.096-42.21 91.717c-2.257 4.278-5.155 7.003-8.41 7.907-3.608 1.002-11.224.727-16.237-.587zM747.837 280.706c-15.475-2.34-26.445-6.32-38.113-13.828-28.688-18.46-44.202-54.272-39.367-90.873 5.153-39.002 31.2-67.62 69.358-76.2 7.247-1.63 24.9-2.242 34.125-1.184 13.272 1.524 31.98 6.495 43.156 11.468 3.174 1.412 3.6 1.825 3.98 3.856.837 4.462-.006 12.475-1.642 15.657-3.448 6.695-8.962 6.906-26.2 1.003-14.916-5.108-19.738-6-32.5-5.942-8.52.032-11.167.273-15.25 1.384-24.41 6.643-40.14 24.704-44.457 51.044-1.474 8.994-.955 22.85 1.16 30.947 6.83 26.152 25.315 42.88 51.05 46.196 11.842 1.527 24.396-.447 40.55-6.374 9.138-3.353 10.943-3.814 15.165-3.874 3.947-.056 5.103.162 6.56 1.237 3.99 2.943 6.296 10.578 5.485 18.154l-.416 3.882-5.4 2.322c-10.536 4.53-22.3 8-33.836 9.978-5.73.983-29.18 1.787-33.418 1.146zm167.76-.83c-14.76-2.693-28.04-8.51-39.458-17.288-4.444-3.416-6.158-6.72-6.14-11.836.033-8.772 6.216-14.54 14.843-13.848 4.168.335 4.612.57 12.635 6.7 5.05 3.858 11.294 6.95 18.507 9.162 5.082 1.56 6.44 1.705 16.17 1.74 11.453.04 15.263-.652 24.252-4.407 9.557-3.992 20.35-13.366 26.178-22.738 13.982-22.478 13.527-55.514-1.065-77.464-15.622-23.5-48.315-32.277-74.506-20.004-18.586 8.7-30.633 25.822-33.913 48.173-.5 3.475-.67 8.77-.455 14.995.278 8.044.625 10.648 2.114 15.87 3.613 12.672 1.637 19.622-6.648 23.378-7.665 3.475-16.538-.175-20.002-8.228-4.162-9.675-6.694-26.644-5.983-40.104 1.284-24.325 9.92-44.407 25.944-60.33 12.103-12.028 25.53-19.352 43.153-23.54 9.802-2.33 26.667-2.735 37.408-.9 39.812 6.8 68.2 36.24 73.528 76.25 6.687 50.225-22.467 93.583-69.838 103.864-8.708 1.9-27.824 2.18-36.724.555zm491.72.235c-38.785-6.115-64.9-30.74-73.2-68.993-1.254-5.788-1.423-8.325-1.434-21.556-.012-13.223.15-15.74 1.377-21.308 1.917-8.703 4.128-15.1 7.716-22.32 4.493-9.04 8.744-14.896 16.468-22.683 12.46-12.562 26.325-19.98 45.01-24.084 5.962-1.31 28.048-1.11 34.532.314 15.6 3.424 27.126 9.417 37.717 19.627 11.73 11.308 19.25 25.326 23.047 42.962 1.518 7.053 2.324 24.02 1.57 33.07l-.446 5.355-59.77-.014c-56.773-.013-59.894-.072-62.268-1.167-5.938-2.74-8.62-9.173-6.218-14.92.532-1.273 1.586-2.978 2.343-3.788 3.128-3.35 1.22-3.23 50.98-3.23l46.597-.594c.636-1.03-1.44-12.932-3.136-17.988-7.003-20.86-22.92-33.42-45-35.498-5.22-.49-14.518.593-20.27 2.364-18.837 5.8-33.108 21.634-38.44 42.65-3.81 15.014-3.08 33.708 1.87 47.868 9.15 26.2 34.275 40.2 67.098 37.415 9.634-.817 18.51-2.75 31.53-6.864 11.13-3.517 13.976-3.78 17.975-1.67 2.14 1.13 3.165 2.256 4.602 5.06 1.693 3.303 1.85 4.154 1.874 10.155l.026 6.55-3.75 1.545c-11.552 4.76-24.715 8.543-37.8 10.865-10.287 1.825-31.667 2.286-40.612.875zm199 .555c-35.8-4.64-63.594-30.737-71.445-67.084-6.188-28.65-1.018-58.766 13.817-80.494 4.15-6.078 14.4-16.35 20.45-20.473 14.16-9.667 30.3-14.587 47.826-14.587 9.137 0 16.296 1.037 24.133 3.496 10.562 3.314 24.403 11.81 26.864 16.488 3.367 6.4-.7 14.186-8.023 15.357-2.148.343-3.43.012-8.13-2.105-11.892-5.355-17.732-6.663-29.562-6.625-13.03.042-22.356 2.675-32.077 9.056-12.494 8.202-20.793 20.267-25.288 36.764-1.518 5.57-1.63 6.882-1.616 19.103.014 12.13.136 13.573 1.63 19.103 5.48 20.285 17.365 34.623 34.67 41.827 8.034 3.345 15.263 4.53 25.492 4.185 10.022-.34 16.287-1.853 25.208-6.093 4.023-1.912 5.965-2.478 8.5-2.478 5.526 0 9.66 3.74 10.185 9.215.428 4.452-1.363 7.56-6.583 11.425-8.784 6.503-20.5 11.444-31.817 13.417-4.897.854-19.23 1.15-24.236.502zm-548.578-1.973l-2.5-.408-.158-88.498.937-88.96c.603-.254 4.925-.6 9.605-.77 6.93-.25 9.1-.11 11.697.75 3.602 1.196 5.975 3.604 6.988 7.09.47 1.615.616 26.794.485 83.227-.21 91.12.23 83.572-5.042 86.357-2.316 1.224-3.683 1.4-11.077 1.508-4.64.062-9.56-.072-10.934-.296zm109.028.14c-.86-.15-2.187-.4-2.95-.576l-1.388-.3-.37-124.01-1.44-4.682c-2.984-9.707-8.175-16.562-15.486-20.45-10.453-5.56-25.252-5.283-37.706.707-7.047 3.39-11.48 2.953-15.226-1.5-1.887-2.242-2.6-5.313-1.993-8.595 1.078-5.837 14.664-15.156 28.135-19.297 5.257-1.616 6.355-1.73 16.87-1.73 10.504 0 11.616.114 16.84 1.72 21.807 6.712 35.332 23.378 39.372 48.514.806 5.018.954 15.03.956 64.73v58.795l-1.408 2.09c-2.66 3.95-4.738 4.644-14.212 4.756-4.64.055-9.138-.024-9.997-.175zm107.78.007l-2.632-.587-1.383-.294-.192-61.38c-.19-61.103-.198-61.403-1.57-66.263-3.816-13.523-12.805-22.454-24.983-24.822-2.347-.456-6.69-.638-10.934-.458-8.405.357-12.692 1.644-20.653 6.202-6.17 3.532-9.13 4.008-13.124 2.112-3.234-1.534-4.986-4.224-5.312-8.155-.383-4.612 1.032-7.137 6.644-11.86 12.528-10.542 25.56-15.282 42.063-15.3 15.134-.016 27.15 3.876 36.68 11.88 9.98 8.383 16.032 19.064 19.637 34.66 1.26 5.448 1.307 7.502 1.526 65.755.22 58.69.197 60.2-1.002 62.91-.915 2.07-1.92 3.142-3.937 4.207-2.387 1.26-3.708 1.444-11.143 1.558-4.64.07-8.997-.003-9.685-.164zm408.836-.19c-3.17-1.034-5.415-2.77-6.872-5.3l-1.465-2.555V45.012l1.305-1.764c.718-.97 2.545-2.467 4.06-3.326 2.6-1.468 3.304-1.562 11.816-1.562 4.983 0 9.833.216 10.778.48l1.718.48v237.904l-2.03.753c-2.476.918-17.007 1.426-19.31.674zm119.436-35.63c-2.93-.59-5.58-2.05-7.62-4.202-.967-1.02-10.447-20.4-22.26-45.5l-30.922-65.643-10.543-22.76c-.13-.57 1.57-1.472 5.115-2.715 4.213-1.476 6.7-1.922 12.038-2.156 11.63-.51 14.432 1.577 20.877 15.556l44.304 95.838c5.894 12.606 6.135 13.292 6.163 17.495.024 3.653-.248 4.844-1.65 7.23-2.004 3.41-5.41 5.904-9.255 6.782-3.115.71-3.154.71-6.248.087z" fill="#09166c"/><path d="M598.635 24.113v171.06l1382.617-49.566V24.113c0-13.83-9.56-24.113-24.114-24.113h-1334.4c-1.67 0-3.3.168-4.872.488a23.97 23.97 0 0 0-4.531 1.401c-1.443.608-2.815 1.352-4.097 2.217a24.11 24.11 0 0 0-6.506 6.506c-.865 1.282-1.608 2.654-2.217 4.097a23.97 23.97 0 0 0-1.401 4.531c-.32 1.573-.488 3.202-.488 4.872z" opacity=".2" fill="#ccc"/></svg>