<?xml version="1.0" encoding="UTF-8"?>
<svg width="800" height="149.88" version="1.1" xmlns="http://www.w3.org/2000/svg">
	<defs>
		<linearGradient id="C" x1="259.67" x2="259.67" y1="168.49" y2="98.44" gradientTransform="matrix(.95381 0 0 .94414 -86.224 -17.135)" gradientUnits="userSpaceOnUse">
			<stop stop-color="#f30" offset="0"/>
			<stop stop-color="#ff9600" offset="1"/>
		</linearGradient>
		<linearGradient id="D" x1="628.95" x2="628.95" y1="158.56" y2="35.602" gradientTransform="matrix(.95381 0 0 .94414 -86.224 -17.135)" gradientUnits="userSpaceOnUse">
			<stop stop-color="#ff5901" offset="0"/>
			<stop stop-color="#ffa90f" offset="1"/>
		</linearGradient>
		<linearGradient id="F" x1="995.28" x2="991.76" y1="376.42" y2="273.73" gradientTransform="matrix(.25236 0 0 .2498 -86.224 -17.135)" gradientUnits="userSpaceOnUse">
			<stop stop-color="#fff" stop-opacity=".388" offset="0"/>
			<stop stop-color="#fff" stop-opacity=".133" offset="1"/>
		</linearGradient>
	</defs>
	<g>
		<path d="m251.9 1.9092e-5h538.09a9.9864 9.8851 0 0 1 10.006 9.904v130.07a9.9864 9.8851 0 0 1-10.006 9.904h-538.09a9.9864 9.8851 0 0 1-10.006-9.904v-130.07a9.9864 9.8851 0 0 1 10.006-9.904z" fill="url(#D)"/>
		<path d="m431.98 39.751c-1.9677-0.02266-4.3428 0.22282-6.1254 0.66278v70.908c2.5915 0.64012 6.4402 0.86765 8.4603 0.45978 2.4799-0.49944 3.7428-1.86 3.7428-4.1391v-63.148c0-2.2782-1.2628-4.0399-3.7428-4.5404-0.63143-0.12746-1.4412-0.1926-2.3349-0.20299zm37.409 26.606v44.964c2.5915 0.64012 6.4402 0.86765 8.4603 0.45978 2.4799-0.49944 3.7428-1.86 3.7428-4.1391v-41.91c0-19.261-12.158-26.538-22.325-26.538-8.7971 0-12.796 2.5926-16.792 5.662-1.1875 0.91203-3.2916 3.0666-1.9009 5.8471 1.3496 2.6965 4.1815 2.5643 6.0386 1.5616 5.5922-3.0203 12.47-2.8286 16.844 0.10291 4.172 2.7965 5.9308 8.0506 5.9308 13.989zm43.533 0v44.964c2.5915 0.64012 6.4402 0.86765 8.4603 0.45978 2.48-0.49944 3.7428-1.86 3.7428-4.1391v-42.444c0-19.261-12.158-26.002-22.325-26.002-8.7971 0-13.018 2.1828-18.29 6.3238-1.177 0.92525-3.5787 3.414-2.1871 6.1944 1.3496 2.6965 4.2559 2.6899 6.0386 1.5616 6.8666-4.3459 14.255-3.8379 18.629-0.90637 4.172 2.7965 5.9308 8.0506 5.9308 13.989zm-136.42-27.318c-22.247 0-36.682 16.461-36.682 36.766 0 4.8444 0.7726 9.4876 2.3769 13.704 1.3678 3.5962 4.874 4.9076 8.137 3.6264 3.263-1.2812 4.4753-4.4856 3.2592-8.1781-0.93283-2.8333-1.3582-5.9301-1.3582-9.1515 0-14.337 9.2082-25.959 24.268-25.959 15.06 0 24.266 11.623 24.266 25.959 0 14.337-9.2072 25.958-24.266 25.958-6.6634 0-12.07-2.3981-16.262-6.0557-1.9553-1.706-5.7458-1.8656-8.0187 1.1141-2.273 2.9797-1.4193 6.0236 0.70582 7.8373 5.9871 5.1096 14.145 7.9128 23.574 7.9128 22.247 0 36.682-16.461 36.682-36.766 0-20.306-14.436-36.766-36.682-36.766zm323.24 2.383-0.68771 0.32572 24.625 52.272a6.1044 6.0425 0 0 0 8.1084 2.9212 6.1044 6.0425 0 0 0 2.9511-8.0261l-21.45-45.534c-2.5209-5.3523-9.852-3.6047-13.546-1.9591zm18.952 91.362c10.625 3.9909 12.762 1.2963 14.778-3.0646l40.689-88.02a15.499 15.342 0 0 0-0.67338-0.30874c-3.6159-1.5559-10.787-3.364-13.173 1.876l-23.176 50.882c-5.7867 12.704-10.952 23.542-18.446 38.635zm-35.444-117.63c1.4307-0.01605 3.4042 0.10763 5.1868 0.5476v95.622c-2.5915 0.64012-6.4402 0.86766-8.4603 0.4598-2.4799-0.49945-3.7428-1.86-3.7428-4.1391v-87.682c0-2.2782 1.2629-4.0399 3.7428-4.5404 0.63142-0.12746 1.8428-0.2502 3.2745-0.26625zm-376.94 23.885c-21.334 0-36.085 16.461-36.085 36.766 0 20.306 14.752 36.766 36.085 36.766 7.7088 0 17.129-1.5691 25.161-5.7318 0.44352-3.9635 0.12495-7.8372-2.5982-9.0797-2.7231-1.2425-6.3543 0.72132-9.5553 1.8873-3.8629 1.4077-7.9548 2.1932-11.969 2.1932-15.484 0-24.723-11.657-24.723-26.035 0-14.379 9.2387-26.035 24.723-26.035 4.0127 0 8.1045 0.78552 11.969 2.1932 3.201 1.1661 7.5075 2.907 9.9159 1.7532 2.4083-1.1537 2.9521-5.1606 2.2377-8.9456-8.0311-4.1627-17.452-5.7318-25.161-5.7318zm346.6 0c-18.908 0-34.236 14.855-34.236 36.766s14.967 36.766 34.236 36.766c7.0639 0 13.862-1.976 19.17-6.1019 1.6339-1.2699 2.8634-3.6708 1.6968-5.965-1.1666-2.2943-3.9068-3.0146-5.9089-1.9373-3.6397 1.96-7.7717 3.3894-12.154 3.3894-13.628 0-24.676-10.273-24.676-26.152 0-15.88 11.048-25.899 24.676-25.899 4.3819 0 8.4241 1.3114 12.063 3.2714 2.002 1.0782 4.7423 0.35783 5.9089-1.9373 1.1666-2.2952-0.062-4.6952-1.6968-5.965-5.308-4.1259-12.016-6.2351-19.079-6.2351zm-79.539 0c-21.394 0-35.668 17.311-35.668 37.175 0 20.406 14.633 36.358 36.333 36.358 15.039 0 21.943-3.7879 27.653-5.6988 0.53795-7.9723-2.5562-10.505-7.5199-9.0845-5.0772 1.453-9.0012 3.6585-19.536 3.6585-15.161 0-24.439-10.387-24.439-25.612s8.6587-26.369 22.816-26.369c14.157 0 21.032 10.789 21.032 21.196h-35.788a4.8435 4.7943 0 1 0 0 9.5886h47.259c3.3584-23.447-9.9378-41.214-32.142-41.214z" fill="#09166c"/>
		<path d="m255.06 5.334c-4.4032 0-7.7812 3.378-7.7812 7.7812v123.65c0 4.4032 3.378 7.7812 7.7812 7.7812h531.77c4.4032 0 7.7812-3.378 7.7812-7.7812v-123.65c0-4.4032-3.378-7.7812-7.7812-7.7812zm0 4.1543h531.77c2.1738 0 3.6269 1.4551 3.6269 3.6289v123.65c0 2.1737-1.4532 3.627-3.6269 3.627h-531.77c-2.1738 0-3.6289-1.4534-3.6289-3.627v-123.65c0-2.1737 1.4551-3.6289 3.6289-3.6289z" fill="#ffed1f" opacity=".7"/>
		<path d="m67.55 89.977c0 12.871-8.5004 22.273-25.767 24.132-12.511 1.3236-30.624-0.23699-39.213-1.2114-0.32812-1.3983-0.57991-3.1213-0.57991-4.4818 0-11.26 6.1673-13.833 11.919-13.833 5.9785 0 15.412 1.0235 22.426 1.0235 7.7058 0 10.052-2.5841 10.052-5.0558 0-3.2214-3.1152-4.5696-9.0937-5.7054l-16.372-3.1213c-13.633-2.5841-20.912-11.923-20.912-21.822 0-12.035 8.6015-22.109 25.54-23.969 12.801-1.3738 28.377 0.17466 36.928 1.2114 0.31571 1.4606 0.47882 2.8343 0.47882 4.3449 0 11.224-5.9785 13.645-11.743 13.645-4.44 0-11.3-0.82423-19.146-0.82423-7.9958 0-11.3 2.197-11.3 4.8566 0 2.8088 3.1533 3.9701 8.1599 4.8311l15.652 2.8712c16.081 2.9334 22.967 11.985 22.967 23.109m28.1 13.821c0 6.9035-2.7498 10.887-16.358 10.887-1.8037 0-3.3803-0.12463-4.894-0.34933v-91.585c0-6.9536 2.3959-14.208 16.145-14.208a25.248 24.991 0 0 1 5.1077 0.51172zm55.645 35.431c1.7779 0.89882 5.4482 1.9977 10.065 2.1224 7.8956 0.17467 12.221-2.8343 15.412-9.8379l42.415-93.658c-1.7407-0.93658-5.6123-1.9723-8.7904-2.0479-5.4482-0.08686-12.776 1.0112-17.456 12.061l-13.735 32.098-26.941-43.446c-1.7407-0.524-5.9785-1.2736-9.0937-1.2736-9.4971 0-14.819 3.4706-20.332 9.3884l-26.195 28.352 21.076 32.822c3.8848 5.9801 9.0174 9.026 17.354 9.026 5.4482 0 9.9893-1.2236 12.083-2.2224l-25.364-37.851 17.973-18.852 29.488 45.806z" fill="url(#C)"/>
		<path d="m251.89 1.3915e-4c-5.5431 0-10.006 4.4172-10.006 9.904v71.163c0-1.8812 2.4161-6.4551 6.853-6.6084l544.07-18.815c3.5-0.12116 7.1933-2.7178 7.1933-7.3861v-38.352c0-5.4868-4.4625-9.904-10.006-9.904zm-161.36 8.5448c-13.748 0-16.144 7.2536-16.144 14.208v62.732c0-3.1175 2.9418-5.0979 5.2143-5.1766l10.499-0.36296c2.2897-0.07919 5.538-1.8835 5.538-5.0534v-65.834c-1.627-0.33698-3.3804-0.51184-5.1083-0.51184zm52.63 26.704c-9.4971 0-14.819 3.4704-20.331 9.3879l-26.195 28.352 2.4052 3.746c1.2777 1.9899 3.5722 2.7765 5.1684 2.7216l16.173-0.55906c2.942-0.10167 4.6523 1.2323 5.9547 2.6587l-4.5519-6.7938 17.973-18.852 12.147 18.868c0.77071 1.1971 2.6988 2.9356 5.7076 2.8317l17.844-0.61725c1.3646-0.04721 1.9331 0.42915 2.9234 1.6569l-26.121-42.126c-1.7405-0.52433-5.9781-1.2735-9.0933-1.2735zm-106.7 0.14539c-3.715 0.0087-7.4227 0.16562-10.923 0.54107-16.938 1.8603-25.539 11.936-25.539 23.97 0 6.3609 3.0043 12.49 8.7686 16.744 8.1058 4.9958 21.628 5.3592 26.728 5.1829l21.603-0.74739c5.5698-0.19259 10.407 4.2021 10.407 10.233 0.17438-5.6809-0.84011-7.9809-1.8291-10.53-3.0046-6.7348-9.7666-11.849-21.107-13.917l-15.651-2.8712c-5.0071-0.86131-8.1604-2.0227-8.1604-4.8316 0-2.6592 3.3044-4.8563 11.3-4.8563 7.8449 0 14.706 0.82409 19.145 0.82409 5.7639 0 11.743-2.422 11.743-13.645 0-1.5105-0.16429-2.884-0.47949-4.3448-5.879-0.71243-15.078-1.6664-24.414-1.7471l-1.5922-0.0047zm172.88 0.41617c-5.3117 0.08918-12.026 1.7021-16.413 12.06l-13.24 30.943c0.85424-1.9961 2.6196-2.0571 3.6976-2.0946l14.197-0.49085c2.1115-0.07295 4.7532-1.1868 5.6958-3.2683l15.897-35.102c-1.7405-0.93624-5.6125-1.9726-8.7908-2.0476-0.34044-0.0055-0.68894-6e-3 -1.043 0z" fill="url(#F)"/>
	</g>
</svg>
