<?xml version="1.0" encoding="UTF-8"?>
<svg width="800" height="236.16" version="1.1" viewBox="0 0 211.67 62.485" xmlns="http://www.w3.org/2000/svg" xmlns:xlink="http://www.w3.org/1999/xlink">
 <style><![CDATA[.B{dominant-baseline:auto}]]></style>
 <defs>
  <linearGradient id="linearGradient15682" x1="-270.65" x2="-305.86" y1="148.79" y2="62.807" gradientUnits="userSpaceOnUse" spreadMethod="reflect">
   <stop stop-color="#de1d37" stop-opacity=".98039" offset="0"/>
   <stop stop-color="#550f0e" offset="1"/>
  </linearGradient>
  <linearGradient id="A" x1="-270.65" x2="-305.86" y1="148.79" y2="62.807" gradientTransform="matrix(.33536 0 0 .33536 122.01 -18.655)" gradientUnits="userSpaceOnUse" spreadMethod="reflect" xlink:href="#linearGradient15682">
   <stop stop-color="#8c1418" offset="0"/>
   <stop stop-color="#de1d37" stop-opacity=".98039" offset="1"/>
  </linearGradient>
  <radialGradient id="radialGradient15612" cx="416.83" cy="93.19" r="214.36" gradientTransform="matrix(1 0 0 .37671 0 58.084)" gradientUnits="userSpaceOnUse" xlink:href="#linearGradient15682"/>
 </defs>
 <g stroke-width=".33536">
  <path class="B" d="m62.401 31.243c0 17.208-13.95 31.159-31.159 31.159-17.208 0-31.159-13.95-31.159-31.159 0-17.208 13.95-31.159 31.159-31.159 17.208 0 31.159 13.95 31.159 31.159z" fill="#550f0e"/>
  <path d="m43.336 2.5279-10.227 8.3168-12.892-3.0987-8.4469 5.7949 12.868 4.193-23.949 19.476c0.90613 4.6293 2.8512 8.9922 5.689 12.76l29.929-28.434 11.566 3.7687 9.3591-8.6632-12.589-3.0249 6.5951-6.2661c-2.379-1.992-5.0424-3.6175-7.9016-4.8224z" fill="#de1d37" fill-opacity=".981"/>
  <path class="B" d="m25.304 58.517c2.5755-0.28136 4.5944-1.767 7.07-2.4032 2.7516-1.21 4.2355-4.2194 6.9741-5.4167 2.3633-1.0312 1.8683 3.4763 3.0725 2.0457-0.27432 1.6382 0.55434 1.7777 0.53522 0.165 0.20121-1.43-2.267-2.6939-0.77467-3.8408 1.8123-2.0041 3.7224-3.9686 6.1783-5.1105 0.99601-2.5487 3.2288-0.7797 4.3368-0.32798 0.78037-2.2828 1.4699-5.8754-1.7908-6.4834-1.2143-0.50102-5.3818-1.5074-2.4575-2.648 2.1503-1.0158 3.1208-3.6587 5.527-4.1269 1.5594-1.5339 2.9253-3.151 5.0122-4.0115 2.3492-1.499 2.5997-4.0427 1.0054-6.2068-2.0792 0.4695-3.7412 2.4323-5.9653 2.9367-2.8774 1.1768-4.4861 4.4193-7.5438 5.2396-0.50471-2.4545-0.71364-5.0706-1.7958-7.4057-2.4561-5.964-6.6971-10.976-9.1532-16.945-0.38566-1.2214-1.5674-2.5544-1.1385-0.39002 0.33368 1.3347-0.0493 1.9789-1.0587 2.0115-0.30886 2.2435-2.9243-1.2529-2.3884 1.4846 0.44569 2.5185-0.78909 4.9187-1.271 7.3728 0.92558 2.4873 0.13481 4.913 0.45877 7.5026 1.0208 2.3267 1.1791 4.6594 0.88266 7.1904 0.03991 1.332-0.34039 2.8002 0.68748 3.8717 1.0564 1.3937 5.3496 1.7244 2.1805 3.6487-2.209 1.6573-0.19216 2.4665 1.2663 2.6044-1.2375 2.2818-4.2868 2.4011-6.5928 2.5487-3.6279 0.21329-7.236-0.7133-10.848-0.3927-1.4756 1.1711-2.761 3.8167-0.76528 5.5669 1.2703 1.0024 4.3167-0.11201 4.7369 0.74717-1.8451 1.3807-4.6309 2.0577-5.5173 4.3482-0.14219 1.9719 3.6379 0.9846 2.1429 3.2992 1.5118 0.35749 2.1553 0.83068 1.9347 2.541 1.4407 0.89976 3.2919-0.23072 4.6433 0.75824z" fill="#fff"/>
  <path class="B" d="m31.243 0c-17.254 0-31.243 13.989-31.243 31.242s13.989 31.242 31.243 31.242c17.254 0 31.242-13.989 31.242-31.242s-13.989-31.242-31.242-31.242zm0 0.16768c17.163 0 31.075 13.912 31.075 31.075 0 17.163-13.912 31.075-31.075 31.075-17.163 0-31.075-13.912-31.075-31.075 0-17.163 13.912-31.075 31.075-31.075z" fill="url(#A)"/>
  <path class="B" d="m34.458 2.378v3.354e-4c-0.07948 0.00872-0.1442 0.072437-0.17673 0.165-0.06539 0.18512-0.05299 0.51008 0.055 1.0554v0.00134l6.7e-4 0.00134c0.165 0.65998 0.14856 1.1402-0.02012 1.4514-0.16868 0.31121-0.49062 0.47084-0.98326 0.4866l-0.04963 0.00134-0.0067 0.049633c-0.03756 0.27365-0.11067 0.45374-0.20121 0.56642-0.090558 0.11268-0.19754 0.16232-0.32531 0.1764-0.25554 0.027835-0.59056-0.10664-0.90412-0.2324l-0.44669-0.15661c-0.13884-0.0332-0.26896-0.04192-0.3766 0.015091-0.10765 0.05701-0.17707 0.1774-0.1992 0.35883-0.02213 0.18143-0.0027 0.4306 0.06506 0.77635 0.44099 2.4934-0.78674 4.8848-1.2707 7.3503l-0.0034 0.01643 6e-3 0.01576c0.9172 2.4652 0.12911 4.8831 0.45541 7.4892l0.0013 0.0087 0.0034 0.0077c1.0158 2.3153 1.1734 4.6353 0.87762 7.1595v0.0084c0.01979 0.65964-0.06573 1.3602-0.02683 2.0349 0.0389 0.67474 0.20557 1.3257 0.72973 1.8733 0.27533 0.36151 0.7465 0.64422 1.2489 0.90177 0.50236 0.25755 1.0396 0.49029 1.4383 0.73544 0.1992 0.1224 0.3642 0.24883 0.47285 0.37861 0.10866 0.12978 0.16198 0.25956 0.15024 0.40343-0.02381 0.28774-0.33032 0.66266-1.1167 1.1402l-0.0027 0.0013-2e-3 2e-3c-0.5577 0.41819-0.85516 0.78607-0.96012 1.1161-0.10497 0.32999-5e-3 0.61974 0.21094 0.84442 0.41383 0.43026 1.2338 0.65059 1.9504 0.7304-0.61504 1.0745-1.6419 1.655-2.8113 1.9786-1.1962 0.331-2.5313 0.39773-3.6849 0.47151-3.6155 0.21262-7.2242-0.71397-10.85-0.39237l-0.01777 0.0013-0.01375 0.01107c-0.74818 0.59392-1.4447 1.556-1.7049 2.5983s-0.07646 2.1704 0.93698 3.0595l0.0013 0.0013 0.0013 6.7e-4c0.66166 0.52215 1.7529 0.48593 2.7268 0.43999 0.48694-0.0228 0.9457-0.04963 1.3029-0.01811 0.17874 0.01576 0.33167 0.04561 0.44871 0.09558 0.09658 0.04125 0.15292 0.10362 0.20021 0.17304-0.90613 0.66468-2.0323 1.1744-3.0541 1.7928-1.0423 0.6308-1.9736 1.3817-2.4233 2.5447l-0.0034 0.0084-6.7e-4 0.0087c-0.03689 0.51142 0.18813 0.84543 0.51008 1.0741 0.32194 0.22871 0.73845 0.36286 1.1063 0.50639 0.36788 0.14353 0.68111 0.29746 0.80955 0.53623 0.06439 0.11939 0.08719 0.26158 0.0493 0.44938s-0.13884 0.41987-0.32295 0.70525l-0.04527 0.07009 0.08116 0.01945c0.75187 0.17774 1.2777 0.38398 1.5856 0.74416 0.30786 0.36017 0.41316 0.884 0.30383 1.7311l-0.0044 0.0379 0.03219 0.02012c0.73946 0.46178 1.5782 0.40075 2.3894 0.35447 0.81122-0.04628 1.5933-0.07914 2.2496 0.40142l0.0275 0.01945 0.44669-0.18679c2.5863-0.28807 4.6051-1.7693 7.0612-2.4005l0.0047-0.0013 0.0044-2e-3c1.3887-0.61068 2.4528-1.6721 3.5102-2.7254 1.0574-1.0534 2.1074-2.0983 3.4636-2.6912 0.57715-0.25185 0.95644-0.16533 1.2465 0.07713 0.29008 0.24246 0.4856 0.65596 0.6459 1.0631s0.28103 0.80385 0.45441 1.0265c0.08686 0.11134 0.19954 0.18344 0.32999 0.16432 0.09692-0.01442 0.20222-0.11972 0.30953-0.22402-0.04527 0.33972-0.0607 0.64019-0.02549 0.83839 0.02012 0.11402 0.05064 0.20457 0.09055 0.27298 0.03991 0.06841 0.09155 0.11771 0.15661 0.13213 0.06506 0.01442 0.1318-0.01274 0.18411-0.06372 0.05231-0.05097 0.09624-0.12509 0.13347-0.22469 0.07411-0.19752 0.1214-0.49633 0.11738-0.90043 0.10396-0.74952-0.47888-1.4316-0.88031-2.0638-0.20088-0.31657-0.35682-0.61973-0.37392-0.90311-0.0171-0.28338 0.09457-0.55367 0.45709-0.83269l0.0037-0.0034 4e-3 -4e-3c1.8113-2.0031 3.7161-3.9606 6.1588-5.0964l0.0218-0.0097 0.0084-0.02247c0.24548-0.62812 0.56273-0.98092 0.91384-1.1587 0.35112-0.17774 0.74248-0.18243 1.1449-0.09423 0.80452 0.17639 1.6345 0.72738 2.2006 0.95844l0.05835 0.02347 0.02012-0.05902c0.3917-1.1452 0.76226-2.6191 0.62276-3.8952-0.06975-0.63785-0.26795-1.2281-0.65897-1.6972-0.38868-0.46648-0.96951-0.80955-1.7881-0.96482l-0.01174-0.0037c-0.62007-0.2542-1.9498-0.62913-2.7627-1.0775-0.20423-0.11268-0.37493-0.23005-0.4913-0.34709-0.11637-0.11704-0.17606-0.23005-0.17539-0.33972 6.71e-4 -0.10966 0.06003-0.22804 0.21563-0.35883 0.1556-0.13079 0.40477-0.26963 0.76696-0.41081l2e-3 -0.0013 2e-3 -6.71e-4c1.0899-0.51477 1.8743-1.4367 2.6849-2.2814 0.81056-0.84476 1.6442-1.6107 2.8281-1.8411l0.01777-0.0034 0.01241-0.01241c1.5618-1.5363 2.9216-3.1446 4.9928-3.9988l0.0054-2e-3 0.0047-0.0034c1.1865-0.75723 1.8488-1.7838 2.0081-2.8951 0.15929-1.1114-0.18243-2.3039-0.98695-3.3961l-0.0228-0.03152-0.0379 0.0084c-1.0537 0.23777-1.9944 0.8508-2.9474 1.4632-0.95308 0.61236-1.9186 1.2244-3.0175 1.4736l-0.0054 6.71e-4 -0.0044 2e-3c-1.4528 0.59425-2.5786 1.7053-3.7218 2.7647-1.1268 1.0443-2.2724 2.0329-3.7536 2.4498-0.49372-2.4302-0.70969-5.0238-1.7879-7.3502-2.4608-5.9744-6.7011-10.986-9.1522-16.944a4.2926 4.2926 0 0 0-0.40478-0.88802c-0.16064-0.26694-0.332-0.48459-0.48928-0.60129-0.078474-0.058352-0.15561-0.095241-0.23508-0.086522zm12.121 25.983c1.5426-0.4155 2.6386-1.4165 3.7821-2.4763 1.1436-1.0597 2.2593-2.1573 3.6815-2.7405 1.1231-0.25588 2.099-0.87662 3.0511-1.4883 0.94034-0.60398 1.8595-1.1925 2.8683-1.431 0.76964 1.0614 1.0983 2.2066 0.9457 3.2704-0.15426 1.0755-0.79178 2.0698-1.9531 2.8113-2.094 0.86622-3.4632 2.4843-5.0142 4.0109-1.2103 0.24313-2.0608 1.0259-2.8696 1.8686-0.8139 0.84778-1.5896 1.7553-2.65 2.2563-0.36621 0.1432-0.62577 0.28539-0.79613 0.42892-0.17036 0.14353-0.25722 0.29578-0.25822 0.4487-1e-3 0.15292 0.08116 0.29444 0.21027 0.42456 0.12911 0.13012 0.30719 0.25118 0.51745 0.36688 0.83973 0.46313 2.1889 0.8404 2.7868 1.0872l6e-3 2e-3 6e-3 0.0013c0.80452 0.1499 1.3579 0.48124 1.7304 0.92826 0.37258 0.44703 0.56407 1.0118 0.63215 1.6335 0.13347 1.2217-0.21832 2.65-0.59928 3.7784-0.54261-0.23341-1.3468-0.75589-2.1594-0.93396-0.41886-0.09189-0.84141-0.0892-1.2234 0.1043-0.3766 0.19048-0.70693 0.56943-0.95845 1.1986-2.4588 1.1486-4.369 3.1131-6.1769 5.1122-0.37895 0.29344-0.51745 0.60968-0.498 0.9286 0.01945 0.3206 0.18813 0.63784 0.39237 0.95945 0.4088 0.64321 0.95878 1.3069 0.8632 1.9866l-6.7e-4 0.0044v0.0047c0.0047 0.39807-0.04393 0.6858-0.11067 0.86321-0.0332 0.08887-0.07143 0.14957-0.10496 0.1821-0.03354 0.03253-0.05567 0.03722-0.07579 0.03286-0.02012-0.0044-0.0503-0.02549-0.08015-0.07646s-0.05735-0.12945-0.07579-0.23374c-0.03722-0.20859-0.03823-0.51913 0.02951-0.92357l0.03588-0.21362-0.13951 0.166c-0.14622 0.17371-0.26191 0.24783-0.34374 0.2599-0.08183 0.01207-0.14689-0.02582-0.21999-0.12006-0.14622-0.1878-0.27566-0.58486-0.43764-0.99668-0.16198-0.41182-0.36017-0.84308-0.67977-1.111-0.31959-0.26795-0.76495-0.35816-1.3696-0.09423-1.3823 0.60431-2.4431 1.6624-3.5001 2.7154-1.057 1.053-2.1111 2.1013-3.4733 2.7006-2.486 0.64154-4.4998 2.1201-7.0529 2.3991l-0.0084 6.71e-4 -0.0077 0.0034-0.39102 0.16298c-0.68782-0.48458-1.4937-0.45206-2.2938-0.40611-0.80251 0.04594-1.598 0.09222-2.2932-0.32865 0.09893-0.83034-0.0027-1.39-0.33133-1.7744-0.32496-0.37996-0.86052-0.58553-1.5805-0.76126 0.15829-0.25789 0.26963-0.48761 0.30786-0.67708 0.04225-0.20893 0.01677-0.38499-0.0607-0.52919-0.15527-0.28874-0.49867-0.44468-0.87125-0.59023s-0.78071-0.27935-1.0809-0.49264c-0.29813-0.21161-0.49029-0.49297-0.4591-0.9618 0.43764-1.1221 1.3394-1.8528 2.3696-2.4763 1.0336-0.62544 2.1929-1.1405 3.1228-1.8367l0.03924-0.02951-0.0218-0.04393c-0.05969-0.1224-0.16701-0.20859-0.30182-0.26594-0.13481-0.05735-0.2988-0.0892-0.48459-0.1053-0.37191-0.03253-0.83302-0.0047-1.3193 0.01844-0.97186 0.04594-2.038 0.06539-2.6466-0.41484h-6.71e-4c-0.97991-0.86086-1.1506-1.9296-0.89842-2.9394 0.25085-1.0051 0.92961-1.9437 1.6523-2.5219 3.5917-0.31423 7.1924 0.60666 10.826 0.39304h6.7e-4c1.1523-0.07378 2.4944-0.14018 3.7087-0.4762 1.2143-0.33603 2.3042-0.94537 2.9323-2.1037l0.04259-0.07881-0.0892-0.0084c-0.72101-0.06808-1.5825-0.30953-1.9716-0.71397-0.19451-0.20222-0.276-0.43429-0.18344-0.72638 0.09256-0.2921 0.37124-0.64757 0.9182-1.0577 0.79345-0.48291 1.1389-0.87025 1.1687-1.2281 0.01476-0.17942-0.05567-0.3434-0.17774-0.48928-0.12207-0.14588-0.29578-0.27734-0.50102-0.40343-0.41048-0.25219-0.94772-0.48425-1.4471-0.74013-0.49934-0.25588-0.95878-0.53657-1.2116-0.87058l-2e-3 -0.0027-0.0027-0.0027c-0.50203-0.52349-0.65964-1.1405-0.69754-1.8005-0.0379-0.65998 0.04695-1.3595 0.02683-2.0316 0.29545-2.5296 0.13615-4.8694-0.88366-7.2004-0.31926-2.5638 0.46346-4.9884-0.45642-7.4882 0.4809-2.4394 1.7184-4.8456 1.2686-7.3855v-6.707e-4h-6.7e-4c-0.0664-0.33904-0.0825-0.57949-0.06305-0.73946 0.01945-0.15996 0.06942-0.23341 0.13615-0.26862 0.06674-0.035212 0.16801-0.034877 0.29411-0.00436s0.27432 0.088534 0.43026 0.15125c0.31222 0.12542 0.65528 0.27365 0.96012 0.24045a0.58687 0.58687 0 0 0 0.40544-0.21999c0.10228-0.1271 0.16936-0.3253 0.21094-0.58218 0.49197-0.026158 0.85583-0.19752 1.0413-0.53925 0.19115-0.35212 0.1992-0.86119 0.03152-1.5339-0.10631-0.53724-0.10731-0.8575-0.05969-0.99299 0.02381-0.067742 0.04729-0.083168 0.07814-0.086522v-3.354e-4c0.03052-0.00335 0.08552 0.014085 0.15192 0.063382 0.1328 0.098595 0.30249 0.30819 0.45843 0.56709 0.15594 0.25889 0.30081 0.56776 0.39572 0.8679l6.71e-4 0.00268 6.7e-4 0.00201c2.4608 5.9811 6.7021 10.993 9.1532 16.945v0.0013l6.71e-4 0.0013c1.0762 2.3223 1.2864 4.9327 1.7921 7.3919l0.01241 0.0617c0.68412 3.152-0.07613 5.1172 0.29746 6.5274l0.01107 0.04326 0.1717-0.04594-0.0114-0.04259c-0.17371-0.65562-0.08686-1.5017-0.04058-2.5826s0.06137-2.3428-0.28539-3.9391" fill="#e4e4e4"/>
 </g>
 <g transform="matrix(.33536 0 0 .33536 -.0020121 -.00033536)" fill="url(#radialGradient15612)" stroke-width="3.4076" aria-label="SBN">
  <path d="m290.87 130q0-8.3127-6.1008-12.955-5.9898-4.6422-21.186-9.6082-15.196-4.966-24.847-9.6082-31.391-15.006-31.391-41.24 0-13.063 7.7646-22.995 7.8755-10.04 22.185-15.546 14.309-5.6138 32.168-5.6138 17.415 0 31.169 6.0456 13.865 6.0456 21.519 17.273 7.6537 11.12 7.6537 25.478h-38.823q0-9.6082-6.1008-14.898-5.9898-5.2899-16.306-5.2899-10.427 0-16.528 4.5342-5.9898 4.4262-5.9898 11.335 0 6.0456 6.6554 11.012 6.6554 4.8581 23.405 10.148 16.749 5.1819 27.509 11.228 26.178 14.682 26.178 40.484 0 20.62-15.973 32.387t-43.815 11.767q-19.633 0-35.606-6.8013-15.862-6.9092-23.959-18.785-7.9864-11.983-7.9864-27.529h39.045q0 12.631 6.6554 18.677 6.7663 5.9376 21.852 5.9376 9.6503 0 15.196-3.9944 5.6571-4.1024 5.6571-11.443z" stroke-width="3.3617"/>
  <path d="m349.77 173.94v-161.5h61.141c20.78 0 36.568 3.8084 47.364 11.425 10.87 7.6167 16.306 18.672 16.306 33.166 0 8.3562-1.9227 15.492-5.768 21.408-3.8453 5.9159-9.5024 10.279-16.971 13.089 8.4301 2.2185 14.901 6.3596 19.412 12.423 4.5109 6.0638 6.7663 13.459 6.7663 22.185 0 15.825-5.0285 27.731-15.086 35.717-9.9831 7.9125-24.81 11.943-44.48 12.091zm37.725-68.661v38.712h29.85c7.0251 0 12.423-1.5899 16.195-4.7697 3.7714-3.2537 5.6571-7.8016 5.6571-13.644 0-13.459-6.6923-20.225-20.077-20.299zm0-25.512h24.636c8.5041-0.07395 14.568-1.6269 18.191-4.6588s5.4352-7.5058 5.4352-13.422c0-6.8033-1.9596-11.684-5.8789-14.642-3.9193-3.0319-10.242-4.5478-18.968-4.5478h-23.416z"/>
  <path d="m631.18 173.94h-38.712l-57.236-100.5v100.5h-38.934v-161.5h38.934l57.125 100.5v-100.5h38.823z"/>
 </g>
</svg>
