<svg xmlns="http://www.w3.org/2000/svg" xmlns:xlink="http://www.w3.org/1999/xlink" width="704.226" height="704.226" viewBox="0 0 186.326 186.326"><defs><linearGradient id="a"><stop offset="0" stop-color="#8c1418"/><stop offset="1" stop-color="#f9c1c5"/></linearGradient><linearGradient xlink:href="#a" id="b" x1="-270.651" y1="148.789" x2="-305.864" y2="62.807" gradientUnits="userSpaceOnUse" spreadMethod="reflect"/></defs><g transform="translate(363.815 -55.626)"><circle cx="-270.651" cy="148.789" r="92.913" fill="#550f0e" stroke="url(#b)" stroke-width=".5"/><path d="M-234.593 63.165l-30.495 24.8-38.444-9.24-25.188 17.28 38.371 12.503-71.414 58.076a92.913 92.913 0 0 0 16.964 38.05l89.245-84.789 34.488 11.238 27.908-25.833-37.539-9.02 19.666-18.685a92.913 92.913 0 0 0-23.562-14.38z" fill="#de1d37" fill-opacity=".981"/><path d="M-288.358 230.118c7.68-.839 13.7-5.269 21.082-7.166 8.205-3.608 12.63-12.582 20.796-16.152 7.047-3.075 5.571 10.366 9.162 6.1-.818 4.885 1.653 5.301 1.596.492.6-4.264-6.76-8.033-2.31-11.453 5.404-5.976 11.1-11.834 18.423-15.239 2.97-7.6 9.628-2.325 12.932-.978 2.327-6.807 4.383-17.52-5.34-19.333-3.621-1.494-16.048-4.495-7.328-7.896 6.412-3.029 9.306-10.91 16.481-12.306 4.65-4.574 8.723-9.396 14.946-11.962 7.005-4.47 7.752-12.055 2.998-18.508-6.2 1.4-11.156 7.253-17.788 8.757-8.58 3.509-13.377 13.178-22.495 15.624-1.505-7.319-2.128-15.12-5.355-22.083-7.324-17.784-19.97-32.728-27.294-50.529-1.15-3.642-4.674-7.617-3.395-1.163.995 3.98-.147 5.901-3.157 5.998-.921 6.69-8.72-3.736-7.122 4.427 1.329 7.51-2.353 14.667-3.79 21.985 2.76 7.417.402 14.65 1.368 22.372 3.044 6.938 3.516 13.894 2.632 21.441.119 3.972-1.015 8.35 2.05 11.545 3.15 4.156 15.952 5.142 6.502 10.88-6.587 4.942-.573 7.355 3.776 7.766-3.69 6.804-12.783 7.16-19.659 7.6-10.818.636-21.577-2.127-32.347-1.171-4.4 3.492-8.233 11.381-2.282 16.6 3.788 2.989 12.872-.334 14.125 2.228-5.502 4.117-13.809 6.136-16.452 12.966-.424 5.88 10.848 2.936 6.39 9.838 4.508 1.066 6.427 2.477 5.769 7.577 4.296 2.683 9.816-.688 13.846 2.261l1.24-.518z" fill="#fff" stroke="#e4e4e4" stroke-width=".353"/><path style="line-height:normal;font-variant-ligatures:normal;font-variant-position:normal;font-variant-caps:normal;font-variant-numeric:normal;font-variant-alternates:normal;font-feature-settings:normal;text-indent:0;text-align:start;text-decoration-line:none;text-decoration-style:solid;text-decoration-color:#000;text-transform:none;text-orientation:mixed;shape-padding:0;isolation:auto;mix-blend-mode:normal" d="M-225.074 140.07l-.174.034c2.047 9.43-.17 15.513.924 19.644l.256-.068c-1.055-3.984 1.055-10.12-1.006-19.61z" color="#000" font-weight="400" font-family="sans-serif" white-space="normal" overflow="visible" fill="none" stroke="#e4e4e4" stroke-width=".265" stroke-opacity=".957"/></g></svg>