<?xml version="1.0" encoding="UTF-8"?>
<svg width="800" height="236.16" version="1.1" xmlns="http://www.w3.org/2000/svg" xmlns:xlink="http://www.w3.org/1999/xlink">
	<defs>
		<linearGradient id="linearGradient15682" x1="-270.65" x2="-305.86" y1="148.79" y2="62.807" gradientUnits="userSpaceOnUse" spreadMethod="reflect">
			<stop stop-color="#de1d37" stop-opacity=".98039" offset="0"/>
			<stop stop-color="#550f0e" offset="1"/>
		</linearGradient>
		<linearGradient id="A" x1="-270.65" x2="-305.86" y1="148.79" y2="62.807" gradientTransform="matrix(1.2675 0 0 1.2675 461.13 -70.506)" gradientUnits="userSpaceOnUse" spreadMethod="reflect" xlink:href="#linearGradient15682">
			<stop stop-color="#8c1418" offset="0"/>
			<stop stop-color="#de1d37" stop-opacity=".98039" offset="1"/>
		</linearGradient>
		<radialGradient id="radialGradient852" cx="416.83" cy="93.19" r="214.36" gradientTransform="matrix(1.2675 0 0 .47746 -.0076047 73.62)" gradientUnits="userSpaceOnUse" xlink:href="#linearGradient15682"/>
	</defs>
	<path d="m235.84 118.08c0 65.037-52.724 117.76-117.76 117.76-65.037 0-117.76-52.724-117.76-117.76 0-65.037 52.724-117.76 117.76-117.76 65.037 0 117.76 52.724 117.76 117.76z" fill="#550f0e"/>
	<path d="m163.79 9.5541-38.653 31.433-48.725-11.711-31.925 21.902 48.634 15.847-90.514 73.609c3.4247 17.496 10.776 33.986 21.501 48.226l113.12-107.47 43.713 14.244 35.372-32.742-47.58-11.433 24.926-23.683c-8.9914-7.5287-19.058-13.672-29.864-18.226z" fill="#de1d37" fill-opacity=".981"/>
	<path d="m95.636 221.16c9.734-1.0634 17.364-6.6783 26.721-9.0828 10.4-4.5732 16.008-15.947 26.358-20.472 8.932-3.8974 7.0612 13.139 11.612 7.7317-1.0368 6.1915 2.0951 6.7188 2.0228 0.62361 0.76047-5.4046-8.5681-10.182-2.9278-14.516 6.8495-7.5744 14.069-14.999 23.351-19.315 3.7644-9.6327 12.203-2.9468 16.391-1.2396 2.9494-8.6278 5.5554-22.206-6.7683-24.504-4.5894-1.8936-20.34-5.6972-9.288-10.008 8.127-3.8392 11.795-13.828 20.889-15.597 5.8937-5.7973 11.056-11.909 18.943-15.161 8.8787-5.6654 9.8255-15.279 3.7999-23.458-7.8583 1.7745-14.14 9.1928-22.546 11.099-10.875 4.4477-16.955 16.703-28.512 19.803-1.9075-9.2767-2.6972-19.164-6.7872-27.99-9.2828-22.541-25.311-41.483-34.594-64.043-1.4576-4.6162-5.9239-9.6543-4.3029-1.4741 1.2611 5.0445-0.18632 7.4792-4.0013 7.6024-1.1673 8.4792-11.052-4.7353-9.0269 5.611 1.6845 9.5186-2.9823 18.59-4.8037 27.865 3.4982 9.4007 0.50951 18.569 1.7339 28.356 3.8581 8.7937 4.4564 17.61 3.336 27.176 0.15084 5.0342-1.2865 10.583 2.5983 14.633 3.9926 5.2674 20.219 6.5173 8.2411 13.79-8.3488 6.2637-0.72627 9.3221 4.7859 9.8432-4.6771 8.624-16.202 9.0749-24.917 9.6327-13.712 0.80613-27.348-2.6959-41-1.4842-5.577 4.4261-10.435 14.425-2.8924 21.04 4.8011 3.7885 16.315-0.42334 17.903 2.8239-6.9735 5.2183-17.502 7.777-20.852 16.434-0.5374 7.4527 13.749 3.7213 8.099 12.469 5.7138 1.3511 8.1459 3.1395 7.3121 9.6036 5.4451 3.4006 12.442-0.87199 17.549 2.8658z" fill="#fff"/>
	<path d="m118.08 0c-65.211 0-118.08 52.871-118.08 118.08 0 65.207 52.871 118.08 118.08 118.08 65.211 0 118.08-52.871 118.08-118.08 0-65.207-52.871-118.08-118.08-118.08zm0 0.63374c64.867 0 117.45 52.58 117.45 117.45 0 64.867-52.58 117.45-117.45 117.45s-117.45-52.58-117.45-117.45c0-64.867 52.58-117.45 117.45-117.45z" fill="url(#A)"/>
	<path d="m130.23 8.9876v0.00127c-0.30039 0.032957-0.545 0.27377-0.66795 0.62361-0.24714 0.69965-0.20027 1.9278 0.20788 3.9888v0.0051l3e-3 0.0051c0.62361 2.4944 0.56148 4.3094-0.0761 5.4855-0.63752 1.1762-1.8543 1.7795-3.7162 1.8391l-0.18757 0.0051-0.0253 0.18759c-0.14196 1.0343-0.41828 1.7149-0.76047 2.1408-0.34227 0.42587-0.7466 0.61348-1.2295 0.6667-0.9658 0.1052-2.232-0.40304-3.4171-0.87835l-1.6882-0.5919c-0.52474-0.12548-1.0165-0.15844-1.4234 0.05704-0.40686 0.21547-0.66923 0.67048-0.75287 1.3562-0.0836 0.68571-0.0102 1.6274 0.24589 2.9342 1.6667 9.4237-2.9735 18.462-4.8026 27.78l-0.0129 0.0621 0.0227 0.05956c3.4665 9.3171 0.48797 18.456 1.7212 28.305l5e-3 0.03288 0.0129 0.0291c3.8392 8.7506 4.4348 17.519 3.3169 27.059v0.0318c0.0748 2.4931-0.24843 5.1408-0.10141 7.6908 0.14703 2.5502 0.77695 5.0104 2.758 7.0801 1.0406 1.3663 2.8214 2.4348 4.7202 3.4082 1.8987 0.9734 3.9291 1.853 5.436 2.7796 0.75287 0.46261 1.3765 0.94044 1.7871 1.4309 0.41068 0.4905 0.6122 0.981 0.56783 1.5248-0.09 1.0875-1.2484 2.5045-4.2205 4.3094l-0.0102 5e-3 -8e-3 8e-3c-2.1078 1.5805-3.232 2.9709-3.6288 4.2183-0.39673 1.2472-0.0189 2.3423 0.79724 3.1915 1.5641 1.6262 4.6631 2.4589 7.3715 2.7605-2.3245 4.061-6.2055 6.255-10.625 7.4781-4.521 1.251-9.567 1.5032-13.927 1.782-13.665 0.8036-27.304-2.6984-41.007-1.4829l-0.06716 5e-3 -0.05197 0.0418c-2.8277 2.2447-5.4602 5.8808-6.4436 9.8202-0.98342 3.9393-0.28898 8.203 3.5413 11.563l0.0049 5e-3 0.0049 3e-3c2.5007 1.9734 6.625 1.8366 10.306 1.6629 1.8404-0.0862 3.5742-0.18758 4.9243-0.0684 0.67554 0.0596 1.2535 0.17238 1.6959 0.36124 0.36502 0.1559 0.57796 0.39163 0.75669 0.654-3.4247 2.5121-7.681 4.4386-11.543 6.7758-3.9393 2.3841-7.4592 5.2221-9.1588 9.6176l-0.01285 0.0318-0.0025 0.0329c-0.13942 1.9329 0.71103 3.1953 1.9278 4.0595 1.2168 0.8644 2.7909 1.3714 4.1812 1.9139 1.3904 0.54247 2.5742 1.1242 3.0597 2.0267 0.24336 0.45123 0.32953 0.98863 0.18633 1.6984-0.1432 0.70979-0.52474 1.5869-1.2206 2.6655l-0.1711 0.26491 0.30674 0.0735c2.8417 0.67176 4.829 1.4512 5.9927 2.8125 1.1635 1.3612 1.5615 3.341 1.1483 6.5426l-0.01663 0.14325 0.12166 0.076c2.7948 1.7453 5.9648 1.5146 9.0307 1.3397 3.066-0.17492 6.0218-0.29911 8.5023 1.5172l0.10394 0.0735 1.6883-0.70597c9.7748-1.0888 17.405-6.687 26.688-9.0726l0.0178-5e-3 0.0166-8e-3c5.2486-2.308 9.2703-6.3196 13.267-10.301 3.9964-3.9813 7.9648-7.9305 13.091-10.171 2.1813-0.95186 3.6148-0.62486 4.7111 0.29151 1.0964 0.91637 1.8353 2.4792 2.4412 4.018 0.60585 1.5388 1.0622 3.0381 1.7174 3.8796 0.32829 0.42081 0.75416 0.6933 1.2472 0.62104 0.3663-0.0545 0.76428-0.45248 1.1699-0.84668-0.1711 1.284-0.22942 2.4196-0.0963 3.1687 0.076 0.43094 0.19139 0.77317 0.34223 1.0317 0.15084 0.25856 0.34601 0.44488 0.5919 0.49938s0.49814-0.0481 0.69584-0.24082c0.1977-0.19264 0.36374-0.47278 0.50444-0.84921 0.2801-0.74652 0.45883-1.8759 0.44364-3.4032 0.39291-2.8328-1.8099-5.4107-3.3271-7.8001-0.75922-1.1965-1.3486-2.3422-1.4132-3.4133-0.0646-1.071 0.35742-2.0926 1.7276-3.1471l0.014-0.0129 0.0151-0.0151c6.8458-7.5707 14.045-14.969 23.277-19.262l0.0824-0.0367 0.0317-0.0849c0.92779-2.374 2.1268-3.7074 3.4538-4.3793 1.327-0.67176 2.8062-0.68949 4.3271-0.35614 3.0406 0.66666 6.1775 2.7491 8.3171 3.6224l0.22053 0.0887 0.0761-0.22307c1.4804-4.3282 2.8809-9.8988 2.3537-14.722-0.26362-2.4107-1.0127-4.6416-2.4906-6.4145-1.469-1.763-3.6642-3.0597-6.7581-3.6465l-0.0444-0.014c-2.3435-0.96074-7.3692-2.3778-10.442-4.0724-0.77188-0.42587-1.417-0.86947-1.8568-1.3118-0.43982-0.44235-0.66542-0.86946-0.66288-1.284 3e-3 -0.41445 0.22688-0.86187 0.81496-1.3562 0.58809-0.49432 1.5298-1.0191 2.8987-1.5526l8e-3 -5e-3 8e-3 -3e-3c4.1192-1.9456 7.0839-5.43 10.147-8.6225 3.0635-3.1928 6.2142-6.0876 10.689-6.9584l0.0672-0.0129 0.0469-0.0469c5.9028-5.8064 11.042-11.885 18.87-15.113l0.0204-0.0076 0.0178-0.01285c4.4843-2.8619 6.9875-6.7418 7.5896-10.942 0.60203-4.2005-0.68949-8.7075-3.7301-12.835l-0.0862-0.11913-0.14324 0.03175c-3.9824 0.89864-7.5378 3.2156-11.14 5.5301-3.6021 2.3144-7.2513 4.6276-11.405 5.5694l-0.0204 0.0025-0.0166 0.0076c-5.4908 2.2459-9.7457 6.4451-14.066 10.449-4.2587 3.9469-8.5885 7.6833-14.187 9.2589-1.866-9.1849-2.6822-18.987-6.7573-27.78-9.3016-22.58-25.328-41.521-34.592-64.039a16.224 16.224 0 0 0-1.5298-3.3562c-0.60714-1.0089-1.2548-1.8315-1.8492-2.2726-0.29657-0.22054-0.58812-0.35996-0.88848-0.32701zm45.811 98.202c5.8302-1.5704 9.9725-5.3536 14.294-9.3591 4.3222-4.0051 8.539-8.1534 13.914-10.358 4.2447-0.96709 7.9331-3.3132 11.532-5.625 3.554-2.2827 7.0279-4.507 10.841-5.4084 2.9088 4.0115 4.151 8.3398 3.5742 12.36-0.58303 4.0648-2.9925 7.8227-7.3817 10.625-7.9142 3.2738-13.089 9.3893-18.951 15.159-4.5743 0.9189-7.7887 3.8774-10.846 7.0623-3.0761 3.2042-6.0078 6.6341-10.016 8.5276-1.3841 0.54122-2.3651 1.0786-3.009 1.6211s-0.97216 1.1179-0.97594 1.6958c-4e-3 0.57795 0.30675 1.1128 0.79471 1.6046 0.48797 0.49178 1.161 0.94932 1.9557 1.3866 3.1737 1.7504 8.2729 3.1763 10.533 4.109l0.0227 8e-3 0.0227 5e-3c3.0407 0.56654 5.1321 1.8188 6.54 3.5083 1.4082 1.6895 2.1319 3.8241 2.3892 6.1738 0.50444 4.6174-0.82514 10.016-2.265 14.28-2.0508-0.88216-5.0902-2.8569-8.1614-3.5299-1.5831-0.3473-3.1801-0.33713-4.6238 0.3942-1.4234 0.71991-2.6718 2.1521-3.6224 4.5301-9.293 4.3411-16.512 11.766-23.345 19.321-1.4322 1.109-1.9557 2.3043-1.8822 3.5096 0.0735 1.2117 0.71103 2.4107 1.483 3.6262 1.545 2.431 3.6237 4.9394 3.2624 7.5083l-3e-3 0.0166v0.0178c0.0178 1.5045-0.16603 2.592-0.41827 3.2625-0.12548 0.33588-0.26997 0.56529-0.39669 0.68824-0.12677 0.12295-0.21041 0.14067-0.28645 0.12419-0.076-0.0166-0.19011-0.0963-0.30292-0.28898-0.11282-0.19264-0.21676-0.48925-0.28645-0.88341-0.14067-0.78836-0.14449-1.962 0.11153-3.4906l0.13561-0.80737-0.52727 0.62739c-0.55264 0.65653-0.98988 0.93667-1.2992 0.98228-0.30927 0.0456-0.55516-0.0976-0.83144-0.45376-0.55264-0.70978-1.0418-2.2105-1.654-3.7669s-1.3612-3.1864-2.5692-4.199c-1.2079-1.0127-2.8911-1.3536-5.1764-0.35614-5.2244 2.284-9.2336 6.283-13.229 10.263-3.9949 3.9798-7.9788 7.9418-13.127 10.207-9.3958 2.4247-17.007 8.0128-26.656 9.0673l-0.03175 3e-3 -0.0291 0.0128-1.4778 0.61598c-2.5996-1.8315-5.6454-1.7086-8.6693-1.5349-3.0331 0.17363-6.0396 0.34854-8.6671-1.2421 0.3739-3.1382-0.0102-5.2535-1.2523-6.7063-1.2282-1.436-3.2523-2.213-5.9734-2.8772 0.59825-0.97469 1.0191-1.8429 1.1635-2.559 0.15968-0.78965 0.06338-1.4551-0.22941-2.0001-0.58684-1.0913-1.8847-1.6806-3.2929-2.2308-1.4082-0.5501-2.9507-1.0558-4.0852-1.8619-1.1268-0.79978-1.853-1.8632-1.7352-3.6351 1.654-4.241 5.0622-7.0026 8.9558-9.3591 3.9065-2.3638 8.288-4.3105 11.803-6.9418l0.14831-0.11153-0.08239-0.16603c-0.2256-0.46261-0.63121-0.78836-1.1407-1.0051-0.50951-0.21675-1.1293-0.33712-1.8315-0.39797-1.4056-0.12295-3.1484-0.0178-4.9863 0.0697-3.6731 0.17363-7.7026 0.24714-10.003-1.5679h-0.0025c-3.7035-3.2536-4.3487-7.2929-3.3956-11.109 0.94808-3.7988 3.5134-7.3462 6.2448-9.5314 13.575-1.1876 27.183 2.2928 40.917 1.4855h3e-3c4.3551-0.27885 9.4275-0.52981 14.017-1.7998 4.5894-1.27 8.7086-3.573 11.083-7.9509l0.16097-0.29786-0.33713-0.0317c-2.725-0.25731-5.981-1.1699-7.4516-2.6984-0.73514-0.76428-1.0431-1.6414-0.6933-2.7453 0.34983-1.104 1.4031-2.4475 3.4703-3.9975 2.9988-1.8251 4.3044-3.2891 4.4171-4.6416 0.0558-0.67812-0.2104-1.2979-0.67176-1.8492s-1.1179-1.0482-1.8936-1.5248c-1.5514-0.95315-3.5819-1.8302-5.4693-2.7973-1.8872-0.96709-3.6237-2.028-4.5792-3.2903l-8e-3 -0.0102-0.0102-0.0102c-1.8974-1.9785-2.4931-4.3105-2.6363-6.8049-0.14324-2.4944 0.17745-5.1382 0.10141-7.6784 1.1166-9.5605 0.51457-18.404-3.3398-27.214-1.2066-9.6898 1.7516-18.853-1.725-28.301 1.8175-9.2196 6.4946-18.314 4.7946-27.913v-0.0025h-3e-3c-0.25096-1.2814-0.31181-2.1902-0.2383-2.7948 0.0735-0.60456 0.26237-0.88217 0.51458-1.0152 0.25224-0.13308 0.63498-0.13182 1.1116-0.01648 0.47659 0.11534 1.0368 0.33461 1.6262 0.57164 1.18 0.47402 2.4766 1.0343 3.6287 0.90877a2.2181 2.2181 0 0 0 1.5324-0.83144c0.38656-0.48037 0.64009-1.2295 0.79724-2.2003 1.8594-0.09886 3.2346-0.74652 3.9356-2.0381 0.72245-1.3308 0.75287-3.2548 0.11913-5.7973-0.4018-2.0305-0.40557-3.2409-0.2256-3.753 0.09-0.25603 0.17873-0.31433 0.29533-0.32701v-0.00127c0.11535-0.012661 0.32322 0.053234 0.57418 0.23955 0.50191 0.37264 1.1432 1.1648 1.7326 2.1433 0.58937 0.97847 1.1369 2.1458 1.4956 3.2802l3e-3 0.01013 3e-3 0.0076c9.3005 22.605 25.33 41.548 34.594 64.043v0.0049l3e-3 0.0049c4.0675 8.7771 4.8619 18.643 6.7732 27.937l0.0469 0.2332c2.5856 11.913-0.28773 19.34 1.1242 24.67l0.0418 0.1635 0.64893-0.17363-0.0431-0.16097c-0.65653-2.4779-0.32829-5.6756-0.15337-9.7609 0.17491-4.0852 0.23194-8.8545-1.0786-14.888" fill="#e4e4e4"/>
	<g fill="url(#radialGradient852)">
		<path d="m368.66 164.77q0-10.536-7.7328-16.42-7.5918-5.8839-26.853-12.178-19.261-6.2943-31.493-12.178-39.786-19.02-39.786-52.27 0-16.557 9.8414-29.146 9.982-12.725 28.119-19.704 18.137-7.1152 40.773-7.1152 22.073 0 39.507 7.6629 17.574 7.6629 27.275 21.893 9.7011 14.094 9.7011 32.293h-49.209q0-12.178-7.7328-18.883-7.5918-6.7048-20.668-6.7048-13.216 0-20.949 5.7471-7.5918 5.6102-7.5918 14.367 0 7.6629 8.4358 13.958 8.4358 6.1575 29.665 12.862 21.229 6.568 34.867 14.231 33.18 18.609 33.18 51.314 0 26.135-20.245 41.049-20.245 14.915-55.536 14.915-24.884 0-45.131-8.6206-20.105-8.7574-30.368-23.81-10.123-15.188-10.123-34.892h49.488q0 16.009 8.4358 23.673 8.576 7.5257 27.697 7.5257 12.232 0 19.261-5.063 7.1704-5.1998 7.1704-14.504z"/>
		<path d="m443.33 220.46v-204.7h77.494c26.338 0 46.348 4.8271 60.033 14.481 13.778 9.6539 20.668 23.666 20.668 42.039 0 10.591-2.437 19.636-7.311 27.134-4.874 7.4985-12.044 13.029-21.51 16.59 10.685 2.8119 18.887 8.0608 24.604 15.746 5.7176 7.6859 8.5764 17.059 8.5764 28.119 0 20.058-6.3737 35.149-19.121 45.27-12.653 10.029-31.446 15.138-56.378 15.325zm47.814-87.026v49.065h37.832c8.904 0 15.746-2.0152 20.527-6.0456 4.7803-4.1242 7.1704-9.8882 7.1704-17.294 0-17.059-8.4823-25.635-25.447-25.729zm0-32.336h31.226c10.779-0.0937 18.465-2.0621 23.057-5.905 4.5921-3.843 6.8892-9.5133 6.8892-17.012 0-8.6232-2.4838-14.809-7.4516-18.558-4.9677-3.843-12.982-5.7644-24.042-5.7644h-29.679z"/>
		<path d="m800 220.46h-49.065l-72.547-127.38v127.38h-49.349v-204.7h49.349l72.403 127.38v-127.38h49.209z"/>
	</g>
</svg>
