<svg xmlns="http://www.w3.org/2000/svg" width="704.23" height="704.23" viewBox="0 0 186.33 186.33" ><style><![CDATA[.B{dominant-baseline:auto}]]></style><defs><linearGradient id="A" x1="-270.65" x2="-305.86" y1="148.79" y2="62.807" gradientUnits="userSpaceOnUse" spreadMethod="reflect"><stop stop-color="#8c1418" offset="0"/><stop stop-color="#f9c1c5" offset="1"/></linearGradient></defs><path d="M186.08 93.164c0 51.314-41.599 92.913-92.913 92.913S.254 144.478.254 93.164 41.853.251 93.167.251 186.08 41.85 186.08 93.164z" fill="#550f0e" class="B"/><path d="M129.23 7.539l-30.495 24.8-38.444-9.24-25.188 17.28 38.371 12.503L2.06 110.958c2.702 13.804 8.502 26.814 16.964 38.05l89.245-84.789 34.488 11.238 27.908-25.833-37.539-9.02 19.666-18.685c-7.094-5.94-15.036-10.787-23.562-14.38z" fill="#de1d37" fill-opacity=".981"/><path d="M75.46 174.494c7.68-.839 13.7-5.269 21.082-7.166 8.205-3.608 12.63-12.582 20.796-16.152 7.047-3.075 5.571 10.366 9.162 6.1-.818 4.885 1.653 5.301 1.596.492.6-4.264-6.76-8.033-2.31-11.453 5.404-5.976 11.1-11.834 18.423-15.239 2.97-7.6 9.628-2.325 12.932-.978 2.327-6.807 4.383-17.52-5.34-19.333-3.621-1.494-16.048-4.495-7.328-7.896 6.412-3.029 9.306-10.91 16.481-12.306 4.65-4.574 8.723-9.396 14.946-11.962 7.005-4.47 7.752-12.055 2.998-18.508-6.2 1.4-11.156 7.253-17.788 8.757-8.58 3.509-13.377 13.178-22.495 15.624-1.505-7.319-2.128-15.12-5.355-22.083-7.324-17.784-19.97-32.728-27.294-50.529-1.15-3.642-4.674-7.617-3.395-1.163.995 3.98-.147 5.901-3.157 5.998-.921 6.69-8.72-3.736-7.122 4.427 1.329 7.51-2.353 14.667-3.79 21.985 2.76 7.417.402 14.65 1.368 22.372 3.044 6.938 3.516 13.894 2.632 21.441.119 3.972-1.015 8.35 2.05 11.545 3.15 4.156 15.952 5.142 6.502 10.88-6.587 4.942-.573 7.355 3.776 7.766-3.69 6.804-12.783 7.16-19.659 7.6-10.818.636-21.577-2.127-32.347-1.171-4.4 3.492-8.233 11.381-2.282 16.6 3.788 2.989 12.872-.334 14.125 2.228-5.502 4.117-13.809 6.136-16.452 12.966-.424 5.88 10.848 2.936 6.39 9.838 4.508 1.066 6.427 2.477 5.769 7.577 4.296 2.683 9.816-.688 13.846 2.261z" fill="#fff" class="B"/><path d="M-270.65 55.627c-51.45 0-93.164 41.713-93.164 93.162s41.715 93.162 93.164 93.162 93.162-41.713 93.162-93.162-41.713-93.162-93.162-93.162zm0 .5c51.179 0 92.662 41.483 92.662 92.662s-41.483 92.662-92.662 92.662-92.664-41.483-92.664-92.662 41.485-92.662 92.664-92.662z" fill="url(#A)" transform="translate(363.82 -55.626)" class="B"/><path d="M102.758 7.092v.001c-.237.026-.43.216-.527.492-.195.552-.158 1.521.164 3.147v.004l.002.004c.492 1.968.443 3.4-.06 4.328s-1.463 1.404-2.932 1.451l-.148.004-.02.148c-.112.816-.33 1.353-.6 1.689s-.589.484-.97.526c-.762.083-1.761-.318-2.696-.693l-1.332-.467c-.414-.099-.802-.125-1.123.045s-.528.529-.594 1.07-.008 1.284.194 2.315c1.315 7.435-2.346 14.566-3.789 21.918l-.01.049.018.047c2.735 7.351.385 14.561 1.358 22.332l.004.026.01.023c3.029 6.904 3.499 13.822 2.617 21.349v.025c.059 1.967-.196 4.056-.08 6.068s.613 3.953 2.176 5.586c.821 1.078 2.226 1.921 3.724 2.689s3.1 1.462 4.289 2.193c.594.365 1.086.742 1.41 1.129s.483.774.448 1.203c-.071.858-.985 1.976-3.33 3.4l-.008.004-.006.006c-1.663 1.247-2.55 2.344-2.863 3.328s-.015 1.848.629 2.518c1.234 1.283 3.679 1.94 5.816 2.178-1.834 3.204-4.896 4.935-8.383 5.9-3.567.987-7.548 1.186-10.988 1.406-10.781.634-21.542-2.129-32.353-1.17l-.053.004-.041.033c-2.231 1.771-4.308 4.64-5.084 7.748s-.228 6.472 2.794 9.123l.004.004.004.002c1.973 1.557 5.227 1.449 8.131 1.312 1.452-.068 2.82-.148 3.885-.054.533.047.989.136 1.338.285.288.123.456.309.597.516-2.702 1.982-6.06 3.502-9.107 5.346-3.108 1.881-5.885 4.12-7.226 7.588l-.01.025-.002.026c-.11 1.525.561 2.521 1.521 3.203s2.202 1.082 3.299 1.51 2.031.887 2.414 1.599c.192.356.26.78.147 1.34s-.414 1.252-.963 2.103l-.135.209.242.058c2.242.53 3.81 1.145 4.728 2.219s1.232 2.636.906 5.162l-.013.113.096.06c2.205 1.377 4.706 1.195 7.125 1.057s4.751-.236 6.708 1.197l.082.058 1.332-.557c7.712-.859 13.732-5.276 21.056-7.158l.014-.004.013-.006c4.141-1.821 7.314-4.986 10.467-8.127s6.284-6.257 10.328-8.025c1.721-.751 2.852-.493 3.717.23s1.448 1.956 1.926 3.17.838 2.397 1.355 3.061c.259.332.595.547.984.49.289-.043.603-.357.923-.668-.135 1.013-.181 1.909-.076 2.5.06.34.151.61.27.814s.273.351.467.394.393-.038.549-.19.287-.373.398-.67c.221-.589.362-1.48.35-2.685.31-2.235-1.428-4.269-2.625-6.154-.599-.944-1.064-1.848-1.115-2.693s.282-1.651 1.363-2.483l.011-.01.012-.012c5.401-5.973 11.081-11.81 18.365-15.197l.065-.029.025-.067c.732-1.873 1.678-2.925 2.725-3.455s2.214-.544 3.414-.281c2.399.526 4.874 2.169 6.562 2.858l.174.07.06-.176c1.168-3.415 2.273-7.81 1.857-11.615-.208-1.902-.799-3.662-1.965-5.061-1.159-1.391-2.891-2.414-5.332-2.877l-.035-.011c-1.849-.758-5.814-1.876-8.238-3.213-.609-.336-1.118-.686-1.465-1.035s-.525-.686-.523-1.013.179-.68.643-1.07 1.207-.804 2.287-1.225l.006-.004.006-.002c3.25-1.535 5.589-4.284 8.006-6.803s4.903-4.803 8.433-5.49l.053-.01.037-.037c4.657-4.581 8.712-9.377 14.888-11.924l.016-.006.014-.01c3.538-2.258 5.513-5.319 5.988-8.633s-.544-6.87-2.943-10.127l-.068-.094-.113.025c-3.142.709-5.947 2.537-8.789 4.363s-5.721 3.651-8.998 4.394l-.016.002-.013.006c-4.332 1.772-7.689 5.085-11.098 8.244-3.36 3.114-6.776 6.062-11.193 7.305-1.473-7.247-2.117-14.981-5.332-21.918-7.338-17.815-19.982-32.758-27.291-50.524a12.8 12.8 0 0 0-1.207-2.648c-.479-.796-.99-1.445-1.459-1.793-.234-.174-.464-.284-.701-.258zm36.144 77.48c4.6-1.239 7.868-4.224 11.278-7.384s6.737-6.433 10.978-8.172c3.349-.763 6.259-2.614 9.098-4.438 2.804-1.801 5.545-3.556 8.553-4.267 2.295 3.165 3.275 6.58 2.82 9.752-.46 3.207-2.361 6.172-5.824 8.383-6.244 2.583-10.327 7.408-14.952 11.96-3.609.725-6.145 3.059-8.557 5.572-2.427 2.528-4.74 5.234-7.902 6.728-1.092.427-1.866.851-2.374 1.279s-.767.882-.77 1.338.242.878.627 1.266.916.749 1.543 1.094c2.504 1.381 6.527 2.506 8.31 3.242l.018.006.018.004c2.399.447 4.049 1.435 5.16 2.768s1.682 3.017 1.885 4.871c.398 3.643-.651 7.902-1.787 11.267-1.618-.696-4.016-2.254-6.439-2.785-1.249-.274-2.509-.266-3.648.311-1.123.568-2.108 1.698-2.858 3.574-7.332 3.425-13.028 9.283-18.419 15.244-1.13.875-1.543 1.818-1.485 2.769.058.956.561 1.902 1.17 2.861 1.219 1.918 2.859 3.897 2.574 5.924l-.002.013v.014c.014 1.187-.131 2.045-.33 2.574-.099.265-.213.446-.313.543s-.166.111-.226.098-.15-.076-.239-.228-.171-.386-.226-.697c-.111-.622-.114-1.548.088-2.754l.107-.637-.416.495c-.436.518-.781.739-1.025.775s-.438-.077-.656-.358c-.436-.56-.822-1.744-1.305-2.972s-1.074-2.514-2.027-3.313-2.281-1.068-4.084-.281c-4.122 1.802-7.285 4.957-10.437 8.097s-6.295 6.266-10.357 8.053c-7.413 1.913-13.418 6.322-21.031 7.154l-.025.002-.023.01-1.166.486c-2.051-1.445-4.454-1.348-6.84-1.211-2.393.137-4.765.275-6.838-.98.295-2.476-.008-4.145-.988-5.291-.969-1.133-2.566-1.746-4.713-2.27.472-.769.804-1.454.918-2.019.126-.623.05-1.148-.181-1.578-.463-.861-1.487-1.326-2.598-1.76s-2.328-.833-3.223-1.469c-.889-.631-1.462-1.47-1.369-2.868 1.305-3.346 3.994-5.525 7.066-7.384 3.082-1.865 6.539-3.401 9.312-5.477l.117-.088-.065-.131c-.178-.365-.498-.622-.9-.793s-.891-.266-1.445-.314c-1.109-.097-2.484-.014-3.934.055-2.898.137-6.077.195-7.892-1.237h-.002c-2.922-2.567-3.431-5.754-2.679-8.765.748-2.997 2.772-5.796 4.927-7.52 10.71-.937 21.447 1.809 32.281 1.172h.002c3.436-.22 7.438-.418 11.059-1.42s6.871-2.819 8.744-6.273l.127-.235-.266-.025c-2.15-.203-4.719-.923-5.879-2.129-.58-.603-.823-1.295-.547-2.166s1.107-1.931 2.738-3.154c2.366-1.44 3.396-2.595 3.485-3.662.044-.535-.166-1.024-.53-1.459s-.882-.827-1.494-1.203c-1.224-.752-2.826-1.444-4.315-2.207s-2.859-1.6-3.613-2.596l-.006-.008-.008-.008c-1.497-1.561-1.967-3.401-2.08-5.369s.14-4.054.08-6.058c.881-7.543.406-14.52-2.635-21.471-.952-7.645 1.382-14.875-1.361-22.329 1.434-7.274 5.124-14.449 3.783-22.023v-.002h-.002c-.198-1.011-.246-1.728-.188-2.205s.207-.696.406-.801.501-.104.877-.013.818.264 1.283.451c.931.374 1.954.816 2.863.717a1.75 1.75 0 0 0 1.209-.656c.305-.379.505-.97.629-1.736 1.467-.078 2.552-.589 3.105-1.608.57-1.05.594-2.568.094-4.574-.317-1.602-.32-2.557-.178-2.961.071-.202.141-.248.233-.258v-.001c.091-.01.255.042.453.189.396.294.902.919 1.367 1.691s.897 1.693 1.18 2.588l.002.008.002.006c7.338 17.835 19.985 32.779 27.294 50.529v.004l.002.004c3.209 6.925 3.836 14.709 5.344 22.042l.037.184c2.04 9.399-.227 15.259.887 19.464l.033.129.512-.137-.034-.127c-.518-1.955-.259-4.478-.121-7.701s.183-6.986-.851-11.746" fill="#e4e4e4" class="B"/></svg>