<?xml version="1.0" encoding="UTF-8"?>
<svg width="800" height="177.82" enable-background="new 0 0 444 136" overflow="visible" version="1.1" viewBox="0 0 800 177.82" xml:space="preserve" xmlns="http://www.w3.org/2000/svg"><g fill="#f15a22"><g transform="matrix(1.8067 0 0 1.8067 -1.8067 -.47697)"><path d="m366.62 56.275h33.915v10.219h-10.458v31.048h-13.006v-31.048h-10.451z"/><path d="m402.48 56.33h13.308l4.901 16.35c1.51 5.191 1.744 6.416 2.386 10.968 0.758-4.552 0.989-5.425 2.162-9.631l5.192-17.687h13.366l-13.951 41.211h-13.59z"/></g><path d="m662.03 167.17c0 5.4418-4.4138 9.8557-9.8683 9.8557-5.4364 0-9.8502-4.4138-9.8502-9.8557 0-5.4491 4.4138-9.8629 9.8502-9.8629 5.4527 0 9.8683 4.4138 9.8683 9.8629" stroke-width="1.8067"/><g transform="matrix(1.8067 0 0 1.8067 -1.8067 -.47697)"><path d="m8.298 83.997c3.169 3.089 7.074 5.427 11.452 5.427 2.785 0 7.003-0.902 7.003-3.844 0-1.354-0.836-1.879-1.507-2.262-1.733-0.896-4.446-1.123-6.705-1.506-1.731-0.302-3.54-0.672-5.273-1.205-2.406-0.673-4.812-1.657-6.548-3.39-1.739-1.722-2.94-4.437-2.94-7.379 0-6.47 5.57-13.18 16.568-13.18 9.264 0 14.836 3.995 17.551 5.874l-7.158 6.632c-3.689-2.87-7.15-3.917-9.865-3.917-4.523 0-5.57 1.807-5.57 2.936 0 2.258 2.488 2.707 6.255 3.386 7.903 1.442 17.085 3.549 17.085 12.882 0 9.263-9.333 13.777-18.594 13.777-10.927 1e-3 -16.573-5.263-19.052-7.598z"/><path d="m53.888 69.768c-1.43 2.256-1.955 4.97-1.955 7.684 0 6.249 3.016 11.744 9.489 11.744 6.252 0 9.338-5.046 9.338-11.219 0-4.365-1.062-7.759-3.248-9.866-2.401-2.261-5.117-2.333-6.771-2.186-3.313 0.216-5.265 1.358-6.853 3.843m28.615 7.754c0 9.942-5.718 20.86-21.081 20.86-11.074 0-21.164-6.328-21.164-20.86 0-12.045 7.602-21.615 22.668-20.789 16.047 0.904 19.577 13.638 19.577 20.789"/><path d="m97.655 61.489c1.125-1.213 1.873-2.119 3.915-3.102 1.804-0.75 4.359-1.425 7.146-1.425 2.333 0 4.966 0.452 7.001 1.581 4.136 2.187 5.198 5.722 5.198 11.828v26.885h-11.522v-22.14c0-3.547-0.067-4.818-0.525-5.875-0.897-2.11-2.94-3.013-5.201-3.013-6.105 0-6.105 4.893-6.105 9.788v21.239h-11.591v-39.239h11.685v3.473z"/><path d="m138.92 61.489c1.125-1.213 1.889-2.119 3.913-3.102 1.819-0.75 4.374-1.425 7.158-1.425 2.333 0 4.978 0.452 7.006 1.581 4.139 2.187 5.199 5.722 5.199 11.828v26.885h-11.528v-22.14c0-3.547-0.076-4.818-0.525-5.875-0.905-2.11-2.936-3.013-5.203-3.013-6.098 0-6.098 4.893-6.098 9.788v21.239h-11.589v-39.239h11.668v3.473z"/><path d="m220.86 61.489c1.132-1.213 1.874-2.119 3.911-3.102 1.812-0.75 4.368-1.425 7.161-1.425 2.334 0 4.97 0.452 7.003 1.581 4.141 2.187 5.196 5.722 5.196 11.828v26.885h-11.524v-22.14c0-3.547-0.074-4.818-0.528-5.875-0.9-2.11-2.939-3.013-5.196-3.013-6.097 0-6.097 4.893-6.097 9.788v21.239h-11.594v-39.239h11.668z"/><path d="m249.6 45.833h6.845v28.386l15.856-16.868h8.261l-14.753 15.687 18.137 24.049h-8.432l-14.265-19.073-4.804 5.067v14.006h-6.845z"/><path d="m293.37 45.833v51.254h-6.499v-51.254z"/><path d="m314.24 79.458c-7.416 1.603-8.681 4.384-8.681 7.161 0 3.212 2.521 5.901 7.505 5.901 4.632 0 8.6-1.852 10.547-5.977 1.007-2.198 1.096-3.124 1.096-8.945-2.617 0.416-6.159 0.926-10.467 1.86m10.378-6.162v-1.013c0-4.134 0-11.049-8.943-11.049-8.517 0-8.517 6.241-8.517 8.352l-7.082-0.423c0.168-1.435 0.335-3.626 1.604-5.984 2.365-4.391 6.995-7.092 13.742-7.092 3.715 0 8.523 0.931 11.645 3.373 4.383 3.546 4.383 8.097 4.303 13.414v12.906c0.08 3.797 0.08 5.732 2.866 5.732 0.844 0 1.603-0.17 2.188-0.422v5.826c-1.089 0.248-2.27 0.673-4.206 0.673-3.123 0-6.247-1.018-6.921-5.91-2.025 2.109-6.075 6.493-13.664 6.493-7.765 0-13.499-4.631-13.499-11.377 0-2.11 0.585-4.221 1.774-5.99 2.276-3.377 6.489-6.079 18.393-7.006z"/><path d="m347.65 57.351v7.255c3.787-7.508 10.956-7.675 13.662-7.757v7.249c-0.844-0.08-1.697-0.164-2.788-0.164-3.883 0-7.251 1.521-9.196 4.72-1.766 2.952-1.678 6.412-1.678 10.041v18.393h-6.75v-39.737z"/><path d="m179.89 67.508c1.127-1.213 3.088-2.563 5.876-2.563 2.028 0 4.214 0.757 5.642 2.187 1.662 1.732 1.969 3.922 2.187 5.569h-16.036c0.371-1.648 0.745-3.459 2.331-5.193m15.655 16.835c-1.486 2.555-3.881 5.383-9.1 5.383-6.254 0-9.048-4.899-8.961-9.791h28.085c-0.145-4.438-0.448-12.122-5.574-17.626-5.043-5.422-11.818-5.649-14.151-5.649-15.514 0-20.188 12.204-20.188 21.689 0 12.881 8.217 20.338 19.886 20.338 6.32 0 11.444-2.406 14.832-5.573 1.493-1.38 2.62-2.797 3.642-4.258z"/></g></g><g stroke-width="1.8067"><path d="m208.11 50.42-21.617-19.22-10.575 10.573 19.691 20.723c2.8402-5.1871 7.2106-9.4112 12.501-12.076" fill="#f15a22"/><path d="m250.3 76.45c0 4.1284-0.86 8.0616-2.4102 11.617h72.54l-0.45168-32.517-71.237 11.478c1.01 2.9522 1.5592 6.1266 1.5592 9.4221" fill="#fff200"/><path d="m221.18 47.323c3.5882 0 7.0191 0.64861 10.188 1.8338l3.6947-47.477h-29.701l3.6026 48.337c3.7146-1.7308 7.8538-2.6938 12.215-2.6938" fill="#f68b1f"/><path d="m248.61 66.646 49.674-43.869-22.783-22.777-43.929 49.239c7.9225 3.0263 14.174 9.4058 17.037 17.408" fill="#fdb913"/><path d="m195.53 62.393-23.206-1.0389-1.2503 11.946 22.777 2.9522c-0.86-4.6722-0.27281-9.5214 1.6784-13.859" fill="#cc2228"/></g></svg>
