<?xml version="1.0" encoding="UTF-8" standalone="no"?>
<!-- Created with Inkscape (http://www.inkscape.org/) -->

<svg
   xmlns:dc="http://purl.org/dc/elements/1.1/"
   xmlns:cc="http://creativecommons.org/ns#"
   xmlns:rdf="http://www.w3.org/1999/02/22-rdf-syntax-ns#"
   xmlns:svg="http://www.w3.org/2000/svg"
   xmlns="http://www.w3.org/2000/svg"
   xmlns:sodipodi="http://sodipodi.sourceforge.net/DTD/sodipodi-0.dtd"
   xmlns:inkscape="http://www.inkscape.org/namespaces/inkscape"
   width="608.6875"
   height="172.98463"
   id="svg2601"
   sodipodi:version="0.32"
   inkscape:version="0.91pre3 r13670"
   version="1.0"
   sodipodi:docname="spiegel geschichte.svg"
   inkscape:output_extension="org.inkscape.output.svg.inkscape">
  <defs
     id="defs2603">
    <inkscape:perspective
       sodipodi:type="inkscape:persp3d"
       inkscape:vp_x="0 : 526.18109 : 1"
       inkscape:vp_y="0 : 1000 : 0"
       inkscape:vp_z="744.09448 : 526.18109 : 1"
       inkscape:persp3d-origin="372.04724 : 350.78739 : 1"
       id="perspective2609" />
  </defs>
  <sodipodi:namedview
     id="base"
     pagecolor="#ffffff"
     bordercolor="#666666"
     borderopacity="1.0"
     inkscape:pageopacity="0.0"
     inkscape:pageshadow="2"
     inkscape:zoom="1.0780492"
     inkscape:cx="156.85512"
     inkscape:cy="86.492317"
     inkscape:document-units="px"
     inkscape:current-layer="layer1"
     showgrid="false"
     inkscape:snap-global="false"
     inkscape:window-width="1920"
     inkscape:window-height="1017"
     inkscape:window-x="-8"
     inkscape:window-y="-8"
     inkscape:window-maximized="1" />
  <metadata
     id="metadata2606">
    <rdf:RDF>
      <cc:Work
         rdf:about="">
        <dc:format>image/svg+xml</dc:format>
        <dc:type
           rdf:resource="http://purl.org/dc/dcmitype/StillImage" />
      </cc:Work>
    </rdf:RDF>
  </metadata>
  <g
     inkscape:label="Ebene 1"
     inkscape:groupmode="layer"
     id="layer1"
     transform="translate(-51.221858,-445.86987)">
    <g
       id="g2559"
       transform="matrix(0.1874802,0,0,0.1874802,21.068179,542.25212)">
      <rect
         width="1659.1766"
         height="469.34601"
         x="163.33521"
         y="-514.09296"
         style="fill:#ac000b;fill-opacity:1;fill-rule:nonzero;stroke:none;stroke-width:1.00187933;stroke-linecap:butt;stroke-linejoin:bevel;stroke-miterlimit:4;stroke-dasharray:none;stroke-dashoffset:0;stroke-opacity:1"
         id="rect4407" />
      <path
         sodipodi:nodetypes="cscccccccscccccccccssccccccccscccccccccccccccccccccccccccccccccccccccccccccccccccsccsscccccccccccccccccccccccccccccccccccccccccccccccccc"
         id="path2236"
         style="fill:#000000;fill-opacity:1"
         d="M 329.31906,-126.38659 C 307.74387,-126.38659 295.32902,-145.85214 295.32902,-159.992 C 295.32902,-185.84698 295.42374,-232.74128 295.42374,-232.74128 L 351.77259,-232.83305 C 351.69373,-233.16061 352.33596,-175.66995 352.33596,-175.66995 L 420.47753,-175.66883 C 420.07056,-175.66995 420.07056,-232.79354 420.07056,-261.64762 L 295.41304,-261.64762 L 295.43435,-398.87572 C 295.37549,-419.21266 314.44552,-432.2235 329.274,-432.32724 C 370.14754,-432.61321 445.59854,-432.32724 445.59854,-432.32724 C 466.04624,-432.37335 479.80554,-416.02774 479.85257,-398.50561 L 479.67195,-340.90834 L 420.07056,-340.90834 L 420.47753,-382.20398 C 397.76621,-382.24875 352.33596,-382.222 352.33596,-382.222 C 352.33596,-382.222 351.79916,-313.00468 353.67646,-311.44666 L 479.67195,-310.90181 C 479.82366,-260.24377 479.74592,-210.51488 479.62848,-160.0424 C 479.62848,-139.63411 461.27766,-126.15635 444.84159,-126.15635 C 434.89839,-126.15635 412.36741,-126.41275 387.68406,-126.41275 C 365.09535,-126.41275 340.83662,-126.38659 329.31906,-126.38659 z M 510.91538,-175.66995 L 534.29746,-175.66995 L 534.3107,-278.70177 L 534.07187,-382.20398 L 510.91538,-382.222 L 511.07131,-432.4734 L 687.94034,-432.41901 C 705.81295,-432.41901 721.83097,-418.26151 721.83097,-398.50865 C 721.83097,-376.96178 721.83097,-347.46853 721.83097,-347.46853 L 721.83097,-295.51077 C 721.83097,-276.1848 705.95545,-261.80704 687.28356,-261.80704 L 671.21879,-262.03805 C 587.65063,-261.64762 615.73174,-261.64762 594.16368,-261.64762 L 594.16368,-175.66995 L 615.73174,-175.66995 L 615.73174,-126.38089 L 510.91538,-126.38089 L 510.91538,-175.66995 z M 663.90701,-310.90181 C 663.90701,-340.90834 663.90701,-382.222 663.90701,-382.222 L 594.16368,-382.222 C 594.642,-381.98955 594.16368,-340.90834 594.16368,-310.90181 C 594.16368,-310.90181 662.8704,-310.26108 663.90701,-310.90181 z M 736.2706,-175.66995 L 758.44325,-175.66995 L 758.444,-382.20398 L 736.2706,-382.222 L 736.38223,-432.42956 L 838.66818,-432.43948 L 838.66818,-382.222 L 816.49544,-382.222 L 816.49544,-175.66995 L 838.66818,-175.66995 L 838.71099,-126.38205 L 736.2706,-126.38089 L 736.2706,-175.66995 z M 865.88016,-175.66995 L 887.059,-175.66883 L 886.84345,-382.222 L 865.88016,-382.222 L 865.88016,-432.43948 L 1073.9003,-432.43948 L 1073.9003,-340.90834 L 1017.8639,-340.90834 C 1017.8639,-340.90834 1017.8639,-382.222 1017.8639,-382.222 L 946.2031,-382.20398 C 946.10499,-382.222 946.10499,-340.90834 946.10499,-310.90181 L 1038.8272,-310.90181 L 1038.8272,-261.64762 C 1017.8639,-261.64762 946.10499,-261.64762 946.10499,-261.64762 L 946.10499,-175.66995 C 946.10499,-175.66995 1017.8639,-175.66995 1017.8639,-175.66995 L 1018.021,-232.49396 L 1073.8794,-231.99658 L 1073.8794,-179.42401 L 1073.8794,-126.85144 L 865.90428,-126.37388 L 865.88016,-175.66995 z M 1138.8851,-126.20122 C 1112.3543,-126.20122 1103.219,-148.95783 1103.219,-160.11523 C 1103.219,-171.21449 1103.3988,-140.88213 1103.6728,-281.33481 L 1103.9207,-400.59821 C 1103.9207,-413.60974 1116.6611,-431.96017 1137.3017,-431.96017 C 1178.4241,-431.96017 1218.2387,-432.32724 1255.3909,-432.32724 C 1274.0845,-432.32724 1288.4988,-416.16422 1288.4988,-398.11632 L 1288.4796,-340.40109 L 1228.1515,-340.90834 L 1228.1515,-382.222 L 1160.2485,-382.20398 L 1160.0801,-175.66995 L 1228.1515,-175.66995 C 1228.3758,-204.32931 1228.2559,-232.98817 1228.1515,-261.64762 L 1181.3197,-261.64762 L 1181.3197,-310.90181 L 1288.3885,-310.90181 L 1288.3941,-126.38205 L 1209.3006,-126.44748 C 1180.2804,-126.44748 1165.4488,-126.20122 1138.8851,-126.20122 z M 1319.4791,-126.38089 L 1319.4791,-175.66995 L 1340.8993,-175.66995 L 1340.8993,-382.222 L 1319.4791,-382.222 L 1319.4791,-432.43948 L 1527.7869,-432.42956 L 1527.5251,-340.90834 L 1471.3896,-340.90834 C 1471.3896,-340.90834 1471.3896,-382.222 1471.3896,-382.222 L 1400.974,-382.222 C 1400.974,-340.90834 1400.974,-340.90834 1400.974,-310.90181 L 1492.1128,-310.3861 L 1491.8249,-261.64762 C 1471.3896,-261.64762 1400.974,-261.64762 1400.974,-261.64762 L 1400.974,-175.66995 C 1400.974,-175.66995 1471.3896,-175.66995 1471.3896,-175.66995 L 1471.4593,-232.46598 L 1527.7869,-232.46598 L 1527.7869,-126.38205 C 1319.4791,-126.38089 1319.4791,-126.38089 1319.4791,-126.38089 z M 1560.6448,-175.1417 L 1584.153,-175.66995 C 1584.153,-232.79354 1584.153,-310.90181 1584.153,-382.222 L 1560.517,-382.222 L 1560.6448,-432.42956 L 1667.6175,-432.43948 L 1667.6175,-382.222 C 1667.6175,-382.222 1642.7506,-382.222 1642.7506,-382.222 L 1642.7506,-175.66995 L 1713.1662,-175.66995 L 1713.1662,-232.79354 L 1769.3016,-232.79354 L 1769.3016,-126.38089 L 1560.517,-126.38089 L 1560.6448,-175.1417 z" />
      <path
         sodipodi:nodetypes="cscccccccscccccccccssccccccccscccccccccccccccccccccccccccccccccccccccccccccccccccsccsscccccccccccccccccccccccccccccccccccccccccccccccccc"
         id="path5380"
         style="fill:#ffffff;fill-opacity:1"
         d="M 291.80573,-126.38659 C 270.23044,-126.38659 257.81555,-145.85214 257.81555,-159.992 C 257.81555,-185.84698 257.91033,-232.74128 257.91033,-232.74128 L 314.25917,-232.83305 C 314.18022,-233.16061 314.82263,-175.66995 314.82263,-175.66995 L 382.9642,-175.66883 C 382.55714,-175.66995 382.55714,-232.79354 382.55714,-261.64762 L 257.89955,-261.64762 L 257.92087,-398.87572 C 257.86205,-419.21266 276.9321,-432.2235 291.76058,-432.32724 C 332.63421,-432.61321 408.08521,-432.32724 408.08521,-432.32724 C 428.53282,-432.37335 442.29221,-416.02774 442.33915,-398.50561 L 442.15852,-340.90834 L 382.55714,-340.90834 L 382.9642,-382.20398 C 360.25278,-382.24875 314.82263,-382.222 314.82263,-382.222 C 314.82263,-382.222 314.28583,-313.00468 316.16313,-311.44666 L 442.15852,-310.90181 C 442.31023,-260.24377 442.2326,-210.51488 442.11506,-160.0424 C 442.11506,-139.63411 423.76423,-126.15635 407.32817,-126.15635 C 397.38496,-126.15635 374.85398,-126.41275 350.17073,-126.41275 C 327.58202,-126.41275 303.32319,-126.38659 291.80573,-126.38659 z M 473.40195,-175.66995 L 496.78404,-175.66995 L 496.79737,-278.70177 L 496.55845,-382.20398 L 473.40195,-382.222 L 473.55798,-432.4734 L 650.42701,-432.41901 C 668.29962,-432.41901 684.31755,-418.26151 684.31755,-398.50865 C 684.31755,-376.96178 684.31755,-347.46853 684.31755,-347.46853 L 684.31755,-295.51077 C 684.31755,-276.1848 668.44212,-261.80704 649.77023,-261.80704 L 633.70536,-262.03805 C 550.13721,-261.64762 578.21832,-261.64762 556.65035,-261.64762 L 556.65035,-175.66995 L 578.21832,-175.66995 L 578.21832,-126.38089 L 473.40195,-126.38089 L 473.40195,-175.66995 z M 626.39359,-310.90181 C 626.39359,-340.90834 626.39359,-382.222 626.39359,-382.222 L 556.65035,-382.222 C 557.12867,-381.98955 556.65035,-340.90834 556.65035,-310.90181 C 556.65035,-310.90181 625.35698,-310.26108 626.39359,-310.90181 z M 698.75718,-175.66995 L 720.92992,-175.66995 L 720.93058,-382.20398 L 698.75718,-382.222 L 698.8689,-432.42956 L 801.15476,-432.43948 L 801.15476,-382.222 L 778.98202,-382.222 L 778.98202,-175.66995 L 801.15476,-175.66995 L 801.19766,-126.38205 L 698.75718,-126.38089 L 698.75718,-175.66995 z M 828.36673,-175.66995 L 849.54567,-175.66883 L 849.33003,-382.222 L 828.36673,-382.222 L 828.36673,-432.43948 L 1036.387,-432.43948 L 1036.387,-340.90834 L 980.35049,-340.90834 C 980.35049,-340.90834 980.35049,-382.222 980.35049,-382.222 L 908.68967,-382.20398 C 908.59157,-382.222 908.59157,-340.90834 908.59157,-310.90181 L 1001.3138,-310.90181 L 1001.3138,-261.64762 C 980.35049,-261.64762 908.59157,-261.64762 908.59157,-261.64762 L 908.59157,-175.66995 C 908.59157,-175.66995 980.35049,-175.66995 980.35049,-175.66995 L 980.50755,-232.49396 L 1036.366,-231.99658 L 1036.366,-179.42401 L 1036.366,-126.85144 L 828.39095,-126.37388 L 828.36673,-175.66995 z M 1101.3718,-126.20122 C 1074.841,-126.20122 1065.7055,-148.95783 1065.7055,-160.11523 C 1065.7055,-171.21449 1065.8855,-140.88213 1066.1593,-281.33481 L 1066.4074,-400.59821 C 1066.4074,-413.60974 1079.1478,-431.96017 1099.7882,-431.96017 C 1140.9108,-431.96017 1180.7253,-432.32724 1217.8775,-432.32724 C 1236.5711,-432.32724 1250.9854,-416.16422 1250.9854,-398.11632 L 1250.9662,-340.40109 L 1190.638,-340.90834 L 1190.638,-382.222 L 1122.7351,-382.20398 L 1122.5668,-175.66995 L 1190.638,-175.66995 C 1190.8624,-204.32931 1190.7425,-232.98817 1190.638,-261.64762 L 1143.8064,-261.64762 L 1143.8064,-310.90181 L 1250.8751,-310.90181 L 1250.8807,-126.38205 L 1171.7872,-126.44748 C 1142.767,-126.44748 1127.9353,-126.20122 1101.3718,-126.20122 z M 1281.9657,-126.38089 L 1281.9657,-175.66995 L 1303.3859,-175.66995 L 1303.3859,-382.222 L 1281.9657,-382.222 L 1281.9657,-432.43948 L 1490.2735,-432.42956 L 1490.0118,-340.90834 L 1433.8763,-340.90834 C 1433.8763,-340.90834 1433.8763,-382.222 1433.8763,-382.222 L 1363.4607,-382.222 C 1363.4607,-340.90834 1363.4607,-340.90834 1363.4607,-310.90181 L 1454.5993,-310.3861 L 1454.3115,-261.64762 C 1433.8763,-261.64762 1363.4607,-261.64762 1363.4607,-261.64762 L 1363.4607,-175.66995 C 1363.4607,-175.66995 1433.8763,-175.66995 1433.8763,-175.66995 L 1433.9458,-232.46598 L 1490.2735,-232.46598 L 1490.2735,-126.38205 C 1281.9657,-126.38089 1281.9657,-126.38089 1281.9657,-126.38089 z M 1523.1314,-175.1417 L 1546.6396,-175.66995 C 1546.6396,-232.79354 1546.6396,-310.90181 1546.6396,-382.222 L 1523.0036,-382.222 L 1523.1314,-432.42956 L 1630.1042,-432.43948 L 1630.1042,-382.222 C 1630.1042,-382.222 1605.2371,-382.222 1605.2371,-382.222 L 1605.2371,-175.66995 L 1675.6527,-175.66995 L 1675.6527,-232.79354 L 1731.7882,-232.79354 L 1731.7882,-126.38089 L 1523.0036,-126.38089 L 1523.1314,-175.1417 z" />
    </g>
    <path
       inkscape:connector-curvature="0"
       style="font-style:normal;font-variant:normal;font-weight:bold;font-stretch:normal;font-size:95.58448792px;line-height:100%;font-family:'Gill Sans MT';-inkscape-font-specification:'Gill Sans MT Bold';text-align:start;writing-mode:lr-tb;text-anchor:start;fill:#e4e4e4;fill-opacity:1;stroke:none;stroke-width:1px;stroke-linecap:butt;stroke-linejoin:miter;stroke-opacity:1"
       d="m 90.503108,550.8499 c -11.605831,7e-5 -21.047365,3.10532 -28.34375,9.34375 -7.296415,6.23856 -10.937504,14.3243 -10.9375,24.21875 -5e-6,9.67671 3.641085,17.63664 10.9375,23.90625 7.296385,6.26962 16.611838,9.40626 27.96875,9.40625 5.164999,0 10.382252,-0.80396 15.656252,-2.4375 5.27388,-1.63352 9.2299,-3.76122 11.8125,-6.34375 l 0,-26.65625 -25.718752,0 0,11.96875 9.406252,0 0,7.59375 c -3.609364,1.55575 -7.203101,2.34377 -10.781252,2.34375 -6.751936,10e-6 -12.174271,-1.7654 -16.3125,-5.3125 -4.138284,-3.54706 -6.218773,-8.21238 -6.21875,-13.9375 -2.1e-5,-5.974 2.080466,-10.86047 6.21875,-14.71875 4.138229,-3.85818 10.033238,-5.81246 17.6875,-5.8125 7.934207,5e-5 16.036052,2.0175 24.343752,6.03125 l 0,-14.25 c -7.56095,-3.57813 -16.13546,-5.34367 -25.718752,-5.34375 z m 124.031252,0 c -7.5609,7e-5 -13.61337,1.71812 -18.125,5.15625 -4.51164,3.43824 -6.75,7.96191 -6.75,13.5625 -1e-5,4.32499 1.02462,7.85584 3.09375,10.625 2.06912,2.76925 4.528,4.91276 7.375,6.40625 2.84698,1.49354 6.69301,3.10136 11.5625,4.84375 4.86943,1.74245 7.94302,3.22404 9.21875,4.4375 1.27567,1.21349 1.90622,2.50597 1.90625,3.875 -4e-5,4.01381 -3.18401,6.03127 -9.5625,6.03125 -3.76491,10e-6 -7.32713,-0.6933 -10.6875,-2.03125 -3.3604,-1.33792 -7.20645,-3.4502 -11.5625,-6.375 l 0,14.03125 c 7.59198,4.2005 15.4414,6.31251 23.53125,6.3125 7.49862,0 13.53552,-1.79681 18.125,-5.375 4.58937,-3.57819 6.87493,-8.36997 6.875,-14.40625 -6e-5,-4.23158 -1.05606,-7.73076 -3.15625,-10.5 -2.1003,-2.76918 -4.57513,-4.91286 -7.46875,-6.4375 -2.89371,-1.52459 -6.77099,-3.19517 -11.59375,-4.96875 -4.82281,-1.7735 -7.84918,-3.22359 -9.09375,-4.34375 -1.24461,-1.12009 -1.87502,-2.28662 -1.875,-3.53125 -2e-5,-1.61791 0.86687,-2.92609 2.59375,-3.90625 1.72684,-0.98006 4.04392,-1.46868 6.96875,-1.46875 5.13389,6e-5 12.03756,1.95447 20.6875,5.84375 l 0,-12.75 c -7.74761,-3.36033 -15.09283,-5.03117 -22.0625,-5.03125 z m -82.65625,0.84375 0,65.1875 48.0625,0 0,-11.9375 -31.84375,0 0,-15.6875 29.75,0 0,-11.9375 -29.75,0 0,-13.6875 31.1875,0 0,-11.9375 -47.40625,0 z m 182.34375,0 0,65.1875 16.21875,0 0,-26.375 24.5,0 0,26.375 16.21875,0 0,-65.1875 -16.21875,0 0,26.15625 -24.5,0 0,-26.15625 -16.21875,0 z m 72.90625,0 0,65.1875 16.25,0 0,-65.1875 -16.25,0 z m 93.125,0 0,65.1875 16.25,0 0,-26.375 24.46875,0 0,26.375 16.25,0 0,-49.53125 -0.0937,0 0,-15.65625 -16.15625,0 0,26.15625 -24.46875,0 0,-26.15625 -16.25,0 z m 67.0625,0 0,11.9375 20.6875,0 0,53.25 16.21875,0 0,-53.25 21.625,0 0,-11.9375 -58.53125,0 z m 64.53125,0 0,65.1875 48.0625,0 0,-11.9375 -31.8125,0 0,-15.6875 29.71875,0 0,-11.9375 -29.71875,0 0,-13.6875 31.15625,0 0,-11.9375 -47.40625,0 z"
       id="text2564"
       sodipodi:nodetypes="csssssccccccsssssccccsssssssssccssssssssssccccccccccccccccccccccccccccccccccccccccccccccccccccccccccccccccccccccc" />
    <path
       inkscape:connector-curvature="0"
       style="font-style:normal;font-variant:normal;font-weight:bold;font-stretch:normal;font-size:91.53559875px;line-height:100%;font-family:'Gill Sans MT';-inkscape-font-specification:'Gill Sans MT Bold';text-align:start;writing-mode:lr-tb;text-anchor:start;fill:#e4e4e4;fill-opacity:1;stroke:none;stroke-width:1px;stroke-linecap:butt;stroke-linejoin:miter;stroke-opacity:1"
       d="m 281.79092,551.44825 c -10.61412,7e-5 -19.20053,3.2878 -25.78125,9.875 -6.58075,6.58732 -9.875,14.58955 -9.875,24.03125 0,9.44177 3.13392,17.39766 9.375,23.84375 6.24107,6.44611 14.62703,9.65623 25.15625,9.65625 7.96353,0 15.59141,-2.09091 22.875,-6.28125 l -7.0625,-10.78125 c -2.04743,0.95099 -3.77217,1.65658 -5.15625,2.09375 -2.83047,0.894 -5.78694,1.34378 -8.84375,1.34375 -6.17036,10e-6 -11.23908,-1.89199 -15.1875,-5.6875 -3.94846,-3.7955 -5.90626,-8.6343 -5.90625,-14.46875 -2e-5,-5.80303 1.99494,-10.56398 6,-14.3125 4.00502,-3.74842 9.15686,-5.62496 15.46875,-5.625 3.91662,3e-5 7.98687,0.83317 12.1875,2.5 l 8.25,-9.6875 0,-0.71875 c -5.85904,-3.85819 -13.03709,-5.78119 -21.5,-5.78125 z"
       id="text2584" />
    <path
       inkscape:connector-curvature="0"
       sodipodi:nodetypes="cssssccsssssscccc"
       id="path2591"
       d="m 448.35441,551.44825 c -10.61412,7e-5 -19.20053,3.2878 -25.78125,9.875 -6.58075,6.58732 -9.875,14.58955 -9.875,24.03125 0,9.44177 3.13392,17.39766 9.375,23.84375 6.24107,6.44611 14.62703,9.65623 25.15625,9.65625 7.96353,0 15.59141,-2.09091 22.875,-6.28125 l -7.0625,-10.78125 c -2.04743,0.95099 -3.77217,1.65658 -5.15625,2.09375 -2.83047,0.894 -5.78694,1.34378 -8.84375,1.34375 -6.17036,10e-6 -11.23908,-1.89199 -15.1875,-5.6875 -3.94846,-3.7955 -5.90626,-8.6343 -5.90625,-14.46875 -2e-5,-5.80303 1.99494,-10.56398 6,-14.3125 4.00502,-3.74842 9.15686,-5.62496 15.46875,-5.625 3.91662,3e-5 7.98687,0.83317 12.1875,2.5 l 8.25,-9.6875 0,-0.71875 c -5.85904,-3.85819 -13.03709,-5.78119 -21.5,-5.78125 z"
       style="font-style:normal;font-variant:normal;font-weight:bold;font-stretch:normal;font-size:91.53559875px;line-height:100%;font-family:'Gill Sans MT';-inkscape-font-specification:'Gill Sans MT Bold';text-align:start;writing-mode:lr-tb;text-anchor:start;fill:#e4e4e4;fill-opacity:1;stroke:none;stroke-width:1px;stroke-linecap:butt;stroke-linejoin:miter;stroke-opacity:1" />
  </g>
</svg>
