<svg xmlns="http://www.w3.org/2000/svg" width="800" height="356.16"><defs><linearGradient id="A" x1="0" y1="178.08" x2="800" y2="178.08" gradientUnits="userSpaceOnUse"><stop offset="0" stop-color="#9d0000"/><stop offset="1" stop-color="#c42602" stop-opacity="1"/></linearGradient></defs><path d="M0 0h800v356.16H0z" fill="url(#A)" paint-order="fill markers stroke"/><path d="M458.2 899.4c3.9 14.4 7.2 35.6 7.2 35.6s3.9-21.2 7.7-35.6l62.6-243.7c1-3.9 2.9-5.8 6.7-5.8H555c4.3 0 5.8 1.4 4.8 5.8l-80.4 315.9c-1 3.9-3.4 5.8-7.2 5.8h-14.4c-3.9 0-5.8-1.9-6.7-5.8L388 724.1c-2.9-9.6-5.8-27.5-6.3-30.8l-6.7 30.8-62.6 247.5c-1 3.9-3.4 5.8-7.2 5.8h-14.4c-3.9 0-6.3-1.9-7.2-5.8l-79.9-315.9c-1-4.3.5-5.8 4.3-5.8h14.9c3.9 0 5.8 1.9 6.7 5.8l61.6 243.7 7.7 33.7c.5-2.4 4.3-21.7 7.7-33.7l62.6-243.7c1-3.9 2.4-5.8 6.7-5.8h13.5c3.9 0 5.8 1.9 6.7 5.8zm298.6 72.3c0 3.9-1.4 5.8-5.3 5.8h-14.4c-3.9 0-5.8-1.9-5.8-5.8v-316c0-3.9 1.9-5.8 5.8-5.8h14.4c3.9 0 5.3 1.9 5.3 5.8zm368.5-254.8c0-28.9-15.9-49.1-71.8-49.1s-71.8 20.2-71.8 49.1v17.8c0 24.6 17.3 36.1 30.3 40.9l92.5 35.2c24.1 9.1 48.2 27.4 48.2 60.2v42.4c0 37.6-23.1 67.9-99.7 67.9S952.8 951 952.8 913.4v-25c0-4.3 1.9-6.3 5.8-6.3h14c3.9 0 5.8 1.9 5.8 6.3v22.1c0 28.9 17.8 49.1 74.2 49.1 56.8 0 75.1-20.2 75.1-49.1v-34.2c0-26-21.2-37.6-40-44.8l-89.6-34.7c-19.3-7.2-41.4-26.5-41.4-56.8v-26c0-37.6 21.2-67.9 96.8-67.9 75.1 0 96.8 30.3 96.8 67.9v23.6c0 3.9-1.4 5.8-5.8 5.8h-14c-3.9 0-5.3-1.9-5.3-5.8v-20.7zm384.3 0c0-28.9-15.9-49.1-71.8-49.1S1366 688 1366 716.9v17.8c0 24.6 17.3 36.1 30.3 40.9l92.5 35.2c24.1 9.1 48.2 27.4 48.2 60.2v42.4c0 37.6-23.1 67.9-99.7 67.9s-100.2-30.3-100.2-67.9v-25c0-4.3 1.9-6.3 5.8-6.3h14c3.9 0 5.8 1.9 5.8 6.3v22.1c0 28.9 17.8 49.1 74.2 49.1 56.8 0 75.1-20.2 75.1-49.1v-34.2c0-26-21.2-37.6-40-44.8l-89.6-34.7c-19.3-7.2-41.4-26.5-41.4-56.8v-26c0-37.6 21.2-67.9 96.8-67.9 75.1 0 96.8 30.3 96.8 67.9v23.6c0 3.9-1.4 5.8-5.8 5.8h-14c-3.9 0-5.3-1.9-5.3-5.8v-20.7zm226.8 260.5c-3.4 0-5.3-1.9-5.3-5.8V655.7c0-3.9 1.9-5.8 5.8-5.8h164.2c3.8 0 5.8 1.4 5.8 5.8v10.6c0 4.3-1.9 5.8-5.8 5.8h-144.5v122.3h135.8c3.9 0 5.8 1.5 5.8 5.8v10.1c0 3.9-1.9 5.8-5.8 5.8h-135.8v139.2h150.3c3.9 0 5.8 1.5 5.8 5.8v10.6c0 4.3-1.9 5.8-5.8 5.8h-170.5zm562.6-5.7c0 3.9-1.4 5.8-5.3 5.8h-13c-2.9 0-4.3-1-5.3-2.9l-137.7-245.1c-7.2-11.6-14.9-27.5-15.4-28.9v271.1c0 3.9-1.4 5.8-5.3 5.8h-13c-3.9 0-5.8-1.9-5.8-5.8v-316c0-3.9 1.9-5.8 5.8-5.8h13c2.4 0 3.9 1 4.8 2.4L2261 899.4c4.3 7.7 14 27.4 14 27.4V655.7c0-3.9 1.9-5.8 5.8-5.8h13c3.9 0 5.3 1.9 5.3 5.8v316zM196.8 550.3h2102.1v30.6H196.8zm1687.7-340.2V411H1854v49h117.9v-49h-30.5V210.1h30.5v42.4h45v-42.4-26-24h-208v24 26 42.4h45v-42.4zm248.1-50h-.1 0-75.8V210h27.7l49.6 249.5h.1v.5h87.4v-.5h.1l49.5-249.5h27.8v-49.9h-75.8l-.1-.1-45.2 227.6zm-1785.1.1h-82.8-35.3c-17.3 0-31.8 14.5-31.8 31.8v136.6h35.3 87.6v82.2h-29.6-35.3v-56.4h-22.7-35.3v72.9c0 17.7 14.5 32.6 32.2 32.6h35.3 82.8c17.7 0 31.9-14.1 31.9-31.4V278.6H291h-35.3v-68.5H291h29.6v41.5h35.3 23.9v-60c-.1-17.7-14.6-31.4-32.3-31.4zm248.2 0H454.8h-35.3v7.2 42.7h11.8 11.6v200.7h-11.6H420v41.7 7.5h35.3 69.1v-49.2h-22.2v-82.2h35.3 58.2c17.7 0 31.8-14.9 31.8-32.6V192c0-17.7-14.1-31.8-31.8-31.8zm-26.6 118.4h-31.6-35.3v-68.5h35.3 31.6zM679 410.8h-22.5V460h35.3 67.4v-49.2h-22.1V210.1h22.1v-49.9h-67.4-35.3v5.4 44.5h13.9 8.6zm139.6 0H811h-14.2V460H811h21.1 169.8V354.4h-22.3-35.3v56.4h-32.8-35.3v-82.2h35.3 55.4v-50h-55.4-35.3v-68.5h35.3 32.8v41.5h35.3 22.3v-91.4H832.1 811h-14.2v49.9H811h7.6zm316.7-132.2H1119v50h16.3 18.9 12.7v82.2h-31.6-35.3V210.1h35.3 29.6v41.5h35.3 25.1v-59.2c0-17.7-14.1-32.2-31.8-32.2h-83.2-35.3c-8 0-15.2 3.1-20.8 8-6.7 5.9-11.1 14.6-11.1 24.3v59.2 102.8 74.1c0 9.2 4.4 17.4 11.1 23.2 5.9 5.1 13.5 8.2 21.6 8.2h35.3 114.6V278.6h-71.5zm144.4 132.2h-11.5-10.2V460h10.2 25.1 169.8V354.4h-22.4-35.3v56.4h-32.7-35.3v-82.2h35.3 55.3v-50h-55.3-35.3v-68.5h35.3 32.7v41.5h35.3 22.4v-91.4h-169.8-35.3v9 40.9h9.7 12zm331.8-200.7v-49.9h-71.1-23.9-11.4v49.9h11.4 11.1v200.7h-11.1-11.8V460h11.8 23.5 170.6V354.4h-21.9-35.3v56.4h-31.6-35.3V210.1z" transform="scale(.32)" fill="#fff"/></svg>