<?xml version="1.0" encoding="UTF-8"?>
<svg width="800" height="203.47" version="1.1" xmlns="http://www.w3.org/2000/svg">
	<path d="m767.88 0.0073434c-8.0892 24.453-31.132 41.273-57.139 41.273l-7.4779 29.335h35.29l-25.169 93.798h41.998l44.62-164.41s-32.119 0.0048153-32.123 0.007223" fill="#f6a800"/>
	<g fill="#fff">
		<path d="m616.27 164.41 25.086-93.791h49.132l7.8419-29.335h-49.092l11.083-41.282h-31.728l-44.051 164.41z"/>
		<path d="m560.15 41.281c-36.584 0-51.793 18.934-61.816 56.495l-17.88 66.638h31.714l17.698-66.638c3.7706-14.07 12.781-27.148 30.284-27.148h37.286l7.7102-29.347z"/>
		<path d="m454.28 95.185-4.605 17.194c-3.2369 12.086-13.953 22.686-28.876 22.686h-45.236c-20.877 0-18.562-19.031-17.054-24.556l4.6056-17.196c3.2363-12.085 14.446-22.686 28.876-22.686h45.235c20.877 0 18.562 19.032 17.054 24.558m-17.054-53.905h-45.235c-27.115 0-50.999 18.273-58.082 44.438l-4.6056 17.195c-7.0231 25.994-0.52584 61.5 46.26 61.5h45.236c28.953 0 50.998-18.273 58.082-44.438l4.605-17.194c7.0237-25.996-0.20565-61.501-46.26-61.501"/>
		<path d="m287.88 95.185-4.605 17.194c-3.2369 12.086-13.953 22.686-28.876 22.686h-59.528l17.258-64.438h58.696c20.877 0 18.562 19.032 17.054 24.558m-17.054-53.905-50.836-0.0024h-31.713l-43.438 162.19h31.713l10.459-39.051h67.388c28.953 0 50.998-18.273 58.082-44.438l4.605-17.194c7.0237-25.996-0.20577-61.501-46.26-61.501"/>
		<path d="m0 164.41 7.86-29.348h104.26c4.9438 0 9.5308-4.0262 10.226-8.977 0.34536-2.4618-0.35917-4.9128-1.9331-6.7246-1.4404-1.6577-3.4294-2.5708-5.6008-2.5708h-66.684c-10.233 0-19.132-3.8938-25.058-10.965-5.9245-7.0713-8.2143-16.544-6.4046-26.669 4.1436-23.184 23.702-37.878 44.586-37.878h109.02l-7.86 29.347h-105.69c-4.5731 0-8.7558 3.6897-10.171 8.9746-0.56976 2.1254-0.13475 4.2718 1.2238 6.0451 1.4422 1.8798 3.7176 3.0024 6.0863 3.0024h67.035c10.258 0 19.156 3.9016 25.055 10.987 5.9088 7.0984 7.9574 16.576 6.265 26.779-3.8012 22.912-21.572 37.997-44.978 37.997z"/>
	</g>
</svg>
