<svg xmlns="http://www.w3.org/2000/svg" width="1355.059" height="1355.059"><defs><radialGradient id="a" cx="1418.112" cy="-134.53" r="663.533" fx="1418.112" fy="-134.53" gradientTransform="matrix(4.80844 0 0 1.21024 -6141.382 840.343)" gradientUnits="userSpaceOnUse"><stop offset="0" stop-color="#fff" stop-opacity=".5"/><stop offset="1" stop-color="#f8fcff" stop-opacity="0"/></radialGradient></defs><path fill="#012d52" d="M645.166 1.146A677.529 677.529 0 0 0 0 677.529a677.529 677.529 0 0 0 645.166 675.91zm64.726.473v1352.293a677.529 677.529 0 0 0 645.166-676.383A677.529 677.529 0 0 0 709.892 1.619z"/><circle cx="677.529" cy="677.53" r="451.176" fill="#fff"/><circle cx="677.529" cy="677.53" r="387.654" fill="#00afc2"/><g fill="#fff" transform="translate(-396.469 -112.5)"><circle cx="1073.998" cy="790.03" r="127.357"/><path d="M1073.998 112.5a677.529 677.529 0 0 0-32.363 1.146V1465.94a677.529 677.529 0 0 0 32.363 1.619 677.529 677.529 0 0 0 32.363-1.147V114.12a677.529 677.529 0 0 0-32.363-1.619z"/></g><path fill="url(#a)" d="M677.529 14.496c-174.512.086-341.954 68.97-466.008 191.712C87.467 328.95 16.807 495.65 14.865 670.15l.734 38.553c.157 3.212-.102 6.482.54 9.633 1.006 4.93 4.95 10.576 9.988 10.35 48.518-2.177 444.01-36.703 651.4-36.707 207.205-.005 601.568 34.43 651.076 36.645 5.15.23 9.248-5.562 9.934-10.67 1.646-12.26 1.583-24.692 1.855-37.06l.098-5.348a663.04 663.04 0 0 0-194.874-467.528c-124.27-123.912-292.598-193.503-468.1-193.52z"/></svg>