<?xml version="1.0" encoding="UTF-8" standalone="no"?>
<!-- Created with Inkscape (http://www.inkscape.org/) -->

<svg
   xmlns:dc="http://purl.org/dc/elements/1.1/"
   xmlns:cc="http://creativecommons.org/ns#"
   xmlns:rdf="http://www.w3.org/1999/02/22-rdf-syntax-ns#"
   xmlns:svg="http://www.w3.org/2000/svg"
   xmlns="http://www.w3.org/2000/svg"
   xmlns:sodipodi="http://sodipodi.sourceforge.net/DTD/sodipodi-0.dtd"
   xmlns:inkscape="http://www.inkscape.org/namespaces/inkscape"
   version="1.1"
   width="611.54333"
   height="95.349831"
   id="svg18566"
   inkscape:version="0.91pre2 r13516"
   sodipodi:docname="sport1 us hd.svg">
  <sodipodi:namedview
     pagecolor="#ffffff"
     bordercolor="#666666"
     borderopacity="1"
     objecttolerance="10"
     gridtolerance="10"
     guidetolerance="10"
     inkscape:pageopacity="0"
     inkscape:pageshadow="2"
     inkscape:window-width="1920"
     inkscape:window-height="1017"
     id="namedview24"
     showgrid="false"
     inkscape:zoom="0.57232248"
     inkscape:cx="305.77167"
     inkscape:cy="47.674915"
     inkscape:window-x="-8"
     inkscape:window-y="-8"
     inkscape:window-maximized="1"
     inkscape:current-layer="svg18566" />
  <defs
     id="defs3" />
  <metadata
     id="metadata4">
    <rdf:RDF>
      <cc:Work
         rdf:about="">
        <dc:format>image/svg+xml</dc:format>
        <dc:type
           rdf:resource="http://purl.org/dc/dcmitype/StillImage" />
        <dc:title />
      </cc:Work>
    </rdf:RDF>
  </metadata>
  <path
     inkscape:connector-curvature="0"
     style="fill:#969696;fill-opacity:1;fill-rule:nonzero;stroke:none"
     id="path17037"
     d="m 1.7716983,75.953972 3.5533412,-13.246123 47.0588635,0 c 2.229747,0 4.306771,-1.812306 4.612216,-4.042053 0.162904,-1.109783 -0.162904,-2.219565 -0.865427,-3.034085 -0.651615,-0.75343 -1.557768,-1.16069 -2.535192,-1.16069 l -30.096495,0 c -4.622398,0 -8.644088,-1.761399 -11.311639,-4.948206 C 9.5096334,46.325826 8.4813025,42.05978 9.295822,37.48829 11.169217,27.031896 19.996572,20.393562 29.414453,20.393562 l 49.21734,0 -3.54316,13.246123 -47.710479,0 c -2.066843,0 -3.960601,1.669765 -4.591853,4.052235 -0.25413,0.95706 -0.05702,1.924302 0.549801,2.72864 0.651615,0.845064 1.679946,1.354138 2.749003,1.354138 l 30.259398,0 c 4.63258,0 8.644088,1.761399 11.31164,4.948206 2.667551,3.207171 3.594067,7.483398 2.830455,12.085433 -1.720672,10.344398 -9.743689,17.145635 -20.31208,17.145635 l -48.4028197,0" />
  <path
     inkscape:connector-curvature="0"
     style="fill:#969696;fill-opacity:1;fill-rule:nonzero;stroke:none"
     id="path17041"
     d="m 254.62909,20.393562 c -16.51438,0 -23.37671,8.542273 -27.90747,25.484278 l -8.06375,30.076132 14.31518,0 7.98229,-30.076132 c 1.71049,-6.34307 5.77291,-12.248336 13.67375,-12.248336 l 16.83001,0 3.48207,-13.235942 -20.31208,0" />
  <path
     inkscape:connector-curvature="0"
     style="fill:#969696;fill-opacity:1;fill-rule:nonzero;stroke:none"
     id="path17045"
     d="m 317.0111,20.393562 -22.15493,0 4.98893,-18.6219515 -14.31518,0 -19.87427,74.1823615 14.31518,0 11.332,-42.324468 22.16511,0 3.54316,-13.235942" />
  <path
     inkscape:connector-curvature="0"
     style="fill:#969696;fill-opacity:1;fill-rule:nonzero;stroke:none"
     id="path17049"
     d="m 124.02089,20.393562 -22.94909,0 -14.315175,0 -19.609557,73.184575 14.31518,0 4.724213,-17.624165 30.422299,0 c 13.07304,0 23.02036,-8.24701 26.21735,-20.047361 l 2.07702,-7.768479 c 3.16645,-11.729081 -0.092,-27.74457 -20.88224,-27.74457 m 7.69721,24.323588 -2.07702,7.758298 c -1.45596,5.447099 -6.30235,10.232401 -13.03232,10.232401 l -26.879139,0 7.799024,-29.078345 26.492245,0 c 9.42806,0 8.37937,8.59318 7.69721,11.087646" />
  <path
     inkscape:connector-curvature="0"
     style="fill:#969696;fill-opacity:1;fill-rule:nonzero;stroke:none"
     id="path17053"
     d="m 199.13995,20.393562 -20.41389,0 c -12.23816,0 -23.03054,8.24701 -26.22753,20.047361 l -2.07703,7.758298 c -3.16644,11.72908 -0.23458,27.754751 20.88225,27.754751 l 20.42407,0 c 13.06286,0 23.02036,-8.24701 26.21735,-20.047361 l 2.07702,-7.768479 c 3.16645,-11.729081 -0.092,-27.74457 -20.88224,-27.74457 m 7.69721,24.323588 -2.07703,7.758298 c -1.45595,5.447099 -6.30234,10.232401 -13.03231,10.232401 l -20.42407,0 c -9.41788,0 -8.37937,-8.582999 -7.69721,-11.077465 l 2.07702,-7.758298 c 1.46614,-5.45728 6.52634,-10.242582 13.0425,-10.242582 l 20.41389,0 c 9.42806,0 8.37937,8.59318 7.69721,11.087646" />
  <path
     d="M 348.40064,1.7716105 C 344.75567,12.808349 334.35018,20.393562 322.61092,20.393562 l -3.38025,13.235942 15.93403,0 -11.36254,42.324468 18.95794,0 20.13899,-74.1823615 c 0,0 -14.49845,0 -14.49845,0"
     id="path17057"
     style="fill:#f9ae0c;fill-opacity:1;fill-rule:nonzero;stroke:none"
     inkscape:connector-curvature="0" />
  <path
     d="m 452.60823,72.777346 2.30102,-8.572817 26.09517,0 c 1.44577,0 2.78973,-1.181054 2.99335,-2.626826 0.10182,-0.712704 -0.10181,-1.425409 -0.56038,-1.965028 -0.42763,-0.478123 -1.00797,-0.743656 -1.63922,-0.743656 l -13.93847,0 c -2.99336,0 -5.59982,-1.140327 -7.33067,-3.207171 -1.73086,-2.066843 -2.40284,-4.836209 -1.8734,-7.799024 1.2116,-6.770693 6.9336,-11.067283 13.03231,-11.067283 l 25.57591,0 -2.29083,8.582999 -24.60867,0 c -1.33378,0 -2.55556,1.069057 -2.973,2.616644 -0.1629,0.620664 -0.0407,1.252323 0.35595,1.77158 0.42762,0.5498 1.08942,0.875608 1.78176,0.875608 l 14.04028,0 c 3.00354,0 5.59982,1.140327 7.33067,3.207171 1.72068,2.077024 2.32138,4.84639 1.83267,7.829568 -1.11996,6.689241 -6.31252,11.097828 -13.15449,11.097828 l -26.97077,0"
     id="path17061"
     style="fill:#ffffff;fill-opacity:1;fill-rule:nonzero;stroke:none"
     inkscape:connector-curvature="0" />
  <path
     d="m 447.00841,36.836674 -4.58167,17.939792 -0.76321,2.881362 c -0.94688,3.532979 -4.84639,6.628153 -9.20407,6.628153 l -9.56042,0 c -6.09871,0 -5.42674,-5.559096 -4.98893,-7.177953 l 0.63125,-2.331562 4.83621,-17.939792 -9.1328,0 -4.86675,18.051788 c -2.05667,7.595394 -0.15313,17.970336 13.52102,17.970336 l 9.56042,0 c 8.46082,0 15.66932,-5.345284 17.73616,-12.981404 l 6.03763,-23.04072 -9.22443,0"
     id="path17073"
     style="fill:#ffffff;fill-opacity:1;fill-rule:nonzero;stroke:none"
     inkscape:connector-curvature="0" />
  <g
     id="g18716"
     transform="matrix(8.1451948,0,0,8.1451948,-1504.8515,-3365.3431)">
    <path
       d="m 246.2983,417.30789 -3.635,0 c -0.97125,0 -1.80125,0.7025 -1.97375,1.67125 -0.085,0.475 -0.37875,1.6925 -0.37875,1.6925 l -0.075,0.28125 -0.74,0.8175 -2.035,0.71375 6.17125,0 c 1.0225,0 1.82125,-0.675 1.98875,-1.68 0.08,-0.4825 -0.0288,-0.9325 -0.3075,-1.26625 -0.15625,-0.1875 -0.35375,-0.32875 -0.57875,-0.41875 l 1.0775,0 0.0763,-0.28125 0.41,-1.53 z m -0.495,0.38 -0.2825,1.0525 -3.02,0 c -0.165,0 -0.315,0.13125 -0.365,0.32125 -0.0213,0.0762 -0.005,0.15375 0.0437,0.2175 0.0525,0.0675 0.13375,0.1075 0.21875,0.1075 l 1.72375,0 c 0.3675,0 0.6875,0.14 0.9,0.39375 0.21125,0.255 0.285,0.595 0.22375,0.96125 -0.13625,0.82125 -0.775,1.3625 -1.61375,1.3625 l -3.31125,0 0.28125,-1.0525 3.205,0 c 0.1775,0 0.3425,-0.14375 0.3675,-0.3225 0.0112,-0.0875 -0.0138,-0.175 -0.07,-0.24125 -0.0513,-0.0587 -0.1225,-0.0913 -0.20125,-0.0913 l -1.71125,0 c -0.3675,0 -0.68625,-0.14 -0.89875,-0.39375 -0.2125,-0.25375 -0.295,-0.59375 -0.23,-0.95625 0.14875,-0.8325 0.85,-1.35875 1.6,-1.35875 l 3.14,0"
       id="path17065"
       style="fill:#293f9c;fill-opacity:1;fill-rule:nonzero;stroke:none"
       inkscape:connector-curvature="0" />
    <path
       d="m 240.7658,417.31164 -1.4275,0 -0.0725,0.28625 -0.5625,2.2025 -0.0937,0.35 c -0.07,0.26375 -0.305,0.53125 -0.66875,0.53125 l -1.2675,0 c -0.0662,0 -0.1825,-0.008 -0.225,-0.0625 -0.0538,-0.0713 -0.0463,-0.2425 -0.02,-0.33875 l 0.0763,-0.2875 0.72375,-2.68125 -3.99125,-0.001 -1.0175,-2.36375 -0.6575,2.36375 -2.7275,0 2.31625,1.60125 -0.6875,2.57375 2.11,-1.59125 1.775,1.2 -0.48625,-2.17125 1.1875,-0.60875 -0.4025,1.495 c -0.19875,0.73375 -0.0925,1.465 0.2825,1.955 0.255,0.3325 0.765,0.73 1.74375,0.73 l 1.17375,0 c 1.18125,0 2.23625,-0.73625 2.545,-1.875 l 0.74125,-2.83125 0.125,-0.47625 -0.4925,0"
       id="path17069"
       style="fill:#293f9c;fill-opacity:1;fill-rule:nonzero;stroke:none"
       inkscape:connector-curvature="0" />
    <path
       d="m 240.7658,417.69164 -0.74125,2.82875 c -0.25375,0.9375 -1.045,1.59375 -2.08375,1.59375 l -1.2675,0 c -1.67875,0 -1.9125,-1.27375 -1.66,-2.20625 l 0.5975,-2.21625 1.12125,0 -0.59375,2.2025 -0.0763,0.28625 c -0.0538,0.19875 -0.1375,0.88125 0.61125,0.88125 l 1.2675,0 c 0.535,0 0.92,-0.38 1.03625,-0.81375 l 0.0937,-0.35375 0.5625,-2.2025 1.1325,0"
       id="path17077"
       style="fill:#ffffff;fill-opacity:1;fill-rule:nonzero;stroke:none"
       inkscape:connector-curvature="0" />
    <path
       d="m 232.2958,416.07164 0.695,1.61375 2.67375,0 -2.19375,1.035 0.36875,1.595 -1.25375,-0.90125 -1.48,1.11625 0.475,-1.7775 -1.54375,-1.0675 1.80875,0 0.45,-1.61375"
       id="path17081"
       style="fill:#ffffff;fill-opacity:1;fill-rule:nonzero;stroke:none"
       inkscape:connector-curvature="0" />
  </g>
  <g
     id="g18712"
     transform="matrix(8.1451948,0,0,8.1451948,-1504.8515,-3365.3431)">
    <path
       d="m 252.0883,417.31789 -0.52875,1.97125 -3.105,0 0.52875,-1.97125 -1.33375,0 -1.3875,5.17625 1.33375,0 0.5275,-1.97125 3.10625,0 -0.52875,1.97125 1.335,0 1.38625,-5.17625 -1.33375,0"
       id="path17085"
       style="fill:#918f90;fill-opacity:1;fill-rule:nonzero;stroke:none"
       inkscape:connector-curvature="0" />
    <path
       d="m 257.5733,417.31789 -3.4775,0 -1.38625,5.17625 4.1725,0 c 1.21875,0 2.145,-0.7675 2.4425,-1.8675 l 0.19375,-0.72375 c 0.29625,-1.0925 -0.007,-2.585 -1.945,-2.585 m 0.7175,2.26625 -0.19375,0.7225 c -0.13625,0.50875 -0.5875,0.95375 -1.215,0.95375 l -2.50875,0 0.72625,-2.70875 2.47375,0 c 0.87875,0 0.78125,0.8 0.7175,1.0325"
       id="path17089"
       style="fill:#918f90;fill-opacity:1;fill-rule:nonzero;stroke:none"
       inkscape:connector-curvature="0" />
  </g>
</svg>
