<svg xmlns="http://www.w3.org/2000/svg" width="475.039" height="91.416"><g fill="#fff"><path d="M303.488 19.604h-21.202l4.773-17.832h-13.694l-19.028 71.007h13.704l10.835-40.51h21.222zM243.793 19.604c-15.804 0-22.376 8.173-26.712 24.394l-7.726 28.781h13.705l7.653-28.781c1.622-6.073 5.521-11.719 13.08-11.719H259.9l3.337-12.675h-19.444M198.052 42.885l-1.986 7.424c-1.404 5.22-6.03 9.795-12.478 9.795H164.04c-9.015 0-8.016-8.214-7.361-10.606l1.986-7.424c1.393-5.22 6.238-9.795 12.477-9.795h19.538c9.025 0 8.027 8.225 7.372 10.606m-7.372-23.28h-19.538c-11.718 0-22.033 7.891-25.1 19.194l-1.986 7.424c-3.037 11.23-.23 26.556 19.984 26.556h19.548c12.51 0 22.034-7.892 25.09-19.184l1.997-7.435c3.026-11.219-.104-26.556-19.995-26.556M126.15 42.885l-1.986 7.424c-1.403 5.22-6.03 9.795-12.477 9.795H85.962l7.456-27.825h25.36c9.026 0 8.027 8.225 7.372 10.606m-7.372-23.28H83.113l-18.768 70.04H78.05l4.523-16.866h29.114c12.509 0 22.033-7.892 25.09-19.184l1.996-7.435c3.026-11.219-.104-26.556-19.995-26.556M1.772 72.779l3.4-12.675h45.044c2.131 0 4.117-1.737 4.419-3.879.145-1.06-.156-2.12-.843-2.9a3.154 3.154 0 0 0-2.412-1.113H22.567c-4.419 0-8.266-1.685-10.834-4.731-2.558-3.057-3.546-7.144-2.766-11.521 1.799-10.013 10.242-16.356 19.267-16.356h47.103l-3.4 12.675H26.28c-1.976 0-3.785 1.591-4.399 3.868-.239.926-.104 1.851.53 2.62a3.34 3.34 0 0 0 2.631 1.29H54c4.44 0 8.277 1.684 10.835 4.752 2.547 3.057 3.431 7.153 2.703 11.562-1.642 9.888-9.327 16.408-19.433 16.408H1.772"/></g><path d="M333.538 1.782c-3.494 10.564-13.455 17.822-24.685 17.822L305.62 32.28h15.244l-10.866 40.5h18.144L347.42 1.782h-13.881" fill="#f9ae0c"/><g fill="#918f90"><path d="M395.931 19.604l-5.427 20.255h-31.901l5.428-20.255h-13.705L336.081 72.78h13.704l5.418-20.255h31.9l-5.417 20.255h13.705l14.245-53.175zM459.65 42.885l-1.986 7.424c-1.404 5.22-6.031 9.795-12.478 9.795H419.41l7.455-27.825h25.413c9.025 0 8.027 8.225 7.372 10.606m-7.372-23.28H416.56l-14.245 53.174h42.87c12.509 0 22.033-7.892 25.09-19.184l1.997-7.424c3.026-11.23-.104-26.567-19.995-26.567"/></g></svg>