<?xml version="1.0" encoding="UTF-8"?>
<svg width="800" height="146.99" version="1.1" xmlns="http://www.w3.org/2000/svg">
	<path d="m593.76 30.841c7.7219-0.09193 15.444-0.30205 23.166 0.05253-2.9154 10.834-5.8965 21.655-8.7988 32.49 17.755 0.18386 35.523 0.19699 53.278-0.07879 2.8498-10.808 5.5944-21.642 8.5624-32.424 7.735-0.15759 15.496-0.38084 23.231 0.07879-3.7821 14.84-7.9977 29.587-11.872 44.401-4.1105 13.907-7.1441 28.117-11.452 41.945-7.6037 0.14446-15.194 0.0788-22.798 0.0788 2.2194-10.966 5.9096-21.563 8.326-32.477-17.781-0.0394-35.55-0.26265-53.318 0.02626-2.4295 10.9-5.6076 21.629-8.4836 32.424-7.5512 0.10506-15.102 0-22.653 0.0525 1.5365-8.6018 4.3994-16.888 6.5137-25.359 5.4368-20.408 10.966-40.776 16.297-61.21z" fill="#b2b5ba"/>
	<path d="m704.33 30.947c23.074-0.55156 46.174-0.09193 69.247-0.19699 11.044-0.5647 20.802 7.7744 24.505 17.742 2.7841 7.0521 1.8911 14.84 1.2607 22.194-2.6659 9.9544-3.966 20.749-10.243 29.285-2.9417 4.8721-6.9733 9.0877-11.951 11.911-4.7671 2.679-9.7574 5.752-15.431 5.5025-26.738-0.0131-53.475 0.0657-80.213-0.0263 7.4067-28.839 15.404-57.56 22.824-86.412m17.414 22.85c-4.1236 14.275-7.6825 28.721-11.74 43.009 1.9042 0.4465 3.8478 0.66976 5.8177 0.60409 11.793-0.17072 23.586-0.06566 35.392-0.10506 7.0653 0.30205 14.288-2.9942 18.543-8.6806 3.467-4.6489 4.1236-10.585 5.8571-15.969 1.7204-5.4631 2.7316-12.003-0.60411-17.059-3.0467-4.0317-8.6149-4.0711-13.198-4.1893-12.279-0.01313-24.558-0.14446-36.823-0.14446-1.8779-0.15759-2.9548 0.69602-3.2437 2.5346z" fill="#b2b5ba"/>
	<path d="m554.74 0.0068602c-5.8439 17.666-22.491 29.817-41.279 29.817l-5.4022 21.193h25.495l-18.183 67.763h30.341l32.235-118.77s-23.204 0.0034788-23.207 0.0052175" fill="#f6a800"/>
	<g fill="#fff">
		<path d="m445.21 118.77 18.123-67.757h35.494l5.6652-21.193h-35.466l8.0067-29.823h-22.921l-31.824 118.77z"/>
		<path d="m404.67 29.824c-26.429 0-37.417 13.679-44.658 40.814l-12.917 48.141h22.911l12.786-48.141c2.724-10.165 9.2334-19.613 21.878-19.613h26.937l5.5701-21.201z"/>
		<path d="m328.19 68.766-3.3268 12.421c-2.3384 8.7313-10.08 16.389-20.861 16.389h-32.68c-15.082 0-13.41-13.749-12.32-17.74l3.3272-12.423c2.338-8.7306 10.436-16.389 20.861-16.389h32.679c15.082 0 13.41 13.749 12.32 17.741m-12.32-38.943h-32.679c-19.589 0-36.843 13.201-41.96 32.103l-3.3272 12.422c-5.0737 18.779-0.37989 44.429 33.42 44.429h32.68c20.917 0 36.843-13.201 41.96-32.103l3.3268-12.421c5.0741-18.78-0.14856-44.43-33.42-44.43"/>
		<path d="m207.97 68.766-3.3268 12.421c-2.3384 8.7313-10.08 16.389-20.861 16.389h-43.005l12.468-46.552h42.404c15.082 0 13.41 13.749 12.32 17.741m-12.32-38.943-36.725-0.0017h-22.91l-31.381 117.17h22.91l7.5559-28.212h48.683c20.917 0 36.843-13.201 41.96-32.103l3.3268-12.421c5.0741-18.78-0.14866-44.43-33.42-44.43"/>
		<path d="m0 118.77 5.6783-21.202h75.321c3.5716 0 6.8853-2.9087 7.3876-6.4853 0.2495-1.7785-0.25948-3.5492-1.3965-4.8581-1.0406-1.1976-2.4775-1.8572-4.0462-1.8572h-48.175c-7.3926 0-13.822-2.813-18.103-7.9215-4.28-5.1085-5.9343-11.952-4.6269-19.267 2.9935-16.749 17.123-27.364 32.21-27.364h78.759l-5.6783 21.201h-76.354c-3.3037 0-6.3255 2.6656-7.3478 6.4835-0.41161 1.5355-0.09735 3.0861 0.88411 4.3672 1.0419 1.358 2.6857 2.169 4.3969 2.169h48.428c7.4107 0 13.839 2.8186 18.101 7.9373 4.2687 5.1281 5.7487 11.975 4.526 19.346-2.7461 16.552-15.584 27.45-32.493 27.45z"/>
	</g>
</svg>
