<?xml version="1.0" encoding="UTF-8" standalone="no"?>
<!-- Created with Inkscape (http://www.inkscape.org/) -->

<svg
   xmlns:dc="http://purl.org/dc/elements/1.1/"
   xmlns:cc="http://creativecommons.org/ns#"
   xmlns:rdf="http://www.w3.org/1999/02/22-rdf-syntax-ns#"
   xmlns:svg="http://www.w3.org/2000/svg"
   xmlns="http://www.w3.org/2000/svg"
   xmlns:sodipodi="http://sodipodi.sourceforge.net/DTD/sodipodi-0.dtd"
   xmlns:inkscape="http://www.inkscape.org/namespaces/inkscape"
   version="1.0"
   width="744.09448"
   height="496.06299"
   id="svg1936"
   inkscape:version="0.91pre3 r13670"
   sodipodi:docname="sr 1 europawelle.svg">
  <metadata
     id="metadata11">
    <rdf:RDF>
      <cc:Work
         rdf:about="">
        <dc:format>image/svg+xml</dc:format>
        <dc:type
           rdf:resource="http://purl.org/dc/dcmitype/StillImage" />
      </cc:Work>
    </rdf:RDF>
  </metadata>
  <sodipodi:namedview
     pagecolor="#ffffff"
     bordercolor="#666666"
     borderopacity="1"
     objecttolerance="10"
     gridtolerance="10"
     guidetolerance="10"
     inkscape:pageopacity="0"
     inkscape:pageshadow="2"
     inkscape:window-width="1920"
     inkscape:window-height="1017"
     id="namedview9"
     showgrid="false"
     inkscape:zoom="0.47037037"
     inkscape:cx="372.04724"
     inkscape:cy="248.03149"
     inkscape:window-x="-8"
     inkscape:window-y="-8"
     inkscape:window-maximized="1"
     inkscape:current-layer="svg1936" />
  <defs
     id="defs1938" />
  <g
     id="g4148">
    <path
       d="m 18.473923,358.2737 707.903137,0 0,115.98519 -707.903137,0 0,-115.98519 0,0 z m 688.939357,87.12673 0,-9.57792 -20.45091,0 0,-15.79145 19.4152,0 0,-9.1467 -19.4152,0 0,-14.32417 20.45091,0 0,-9.40535 -31.66866,0 0,58.24559 31.66866,0 0,0 z m -53.01532,0 0,-9.83693 -18.89752,0 0,-48.40866 -11.21775,0 0,58.24559 30.11527,0 0,0 z m -50.2859,0 0,-9.83693 -18.89752,0 0,-48.40866 -11.21811,0 0,58.24559 30.11563,0 0,0 z m -54.53787,0 0,-9.57792 -20.45091,0 0,-15.79145 19.4152,0 0,-9.1467 -19.4152,0 0,-14.32417 20.45091,0 0,-9.40535 -31.66866,0 0,58.24559 31.66866,0 0,0 z m -53.78244,-58.24559 -11.21811,0 -7.93878,32.5311 c -0.8628,3.45189 -1.55303,7.07598 -2.15717,11.13165 l -0.0861,0 c -0.51803,-4.05567 -1.46693,-8.11134 -2.33008,-11.30421 l -8.97413,-32.35854 -11.908,0 -8.88803,32.5311 c -1.03535,3.71055 -1.63913,7.59366 -2.24326,11.47677 l -0.0865,0 c -0.51768,-4.05567 -1.20791,-8.02488 -2.15717,-11.82154 l -7.93878,-32.18633 -11.99444,0 14.8422,58.24559 13.0298,0 8.45646,-32.3589 c 1.03535,-3.88276 1.72559,-7.67976 2.15717,-11.73543 l 0.0861,0 c 0.60413,4.14212 1.20827,8.28389 2.24362,11.99445 l 8.45646,32.09988 13.80649,0 14.84221,-58.24559 0,0 z m -89.53725,58.24559 -20.79602,-58.24559 -12.68504,0 -20.36409,58.24559 11.30386,0 4.05567,-11.908 22.00393,0 4.05567,11.908 12.42602,0 0,0 z m -19.41555,-20.79603 -16.22267,0 5.26393,-14.84149 c 1.12146,-3.36544 2.07071,-6.73087 2.7613,-9.75083 l 0.0861,0 c 0.69023,3.27898 1.55338,6.12638 2.67519,9.31925 l 5.43614,15.27307 z m -44.51598,-19.76031 c 0,-11.39032 -7.85268,-18.03437 -22.17685,-18.03437 -5.6948,0 -10.87228,0.0861 -15.61854,0.34512 l 0,58.24559 11.21811,0 0,-20.53701 c 1.38047,0.17256 2.7613,0.17256 3.79665,0.17256 14.15161,0 22.78063,-8.88768 22.78063,-20.19189 l 0,0 z m -11.64898,0.69059 c 0,6.29894 -4.74626,10.09594 -11.64933,10.18205 -1.0357,0 -2.15716,-0.0861 -3.27897,-0.25902 l 0,-19.4152 c 1.29401,-0.0861 2.58838,-0.0861 3.96921,-0.0861 7.59366,0 10.95909,3.71055 10.95909,9.57827 z m -48.83208,9.92303 c 0,-19.93287 -10.95874,-29.25212 -26.49083,-29.25212 -15.61854,0 -28.47614,11.56287 -28.47614,30.80551 0,18.03472 8.71547,29.35311 26.49118,29.35311 15.79146,0 28.47579,-11.66386 28.47579,-30.9065 l 0,0 z m -11.99445,0.8628 c 0,13.9794 -8.11098,19.84712 -15.70465,19.84712 -10.44106,0 -15.27342,-8.02488 -15.27342,-20.3648 0,-13.11591 7.42075,-19.5013 15.44598,-19.5013 10.00949,0 15.53209,7.07563 15.53209,20.01898 z m -59.83299,29.07992 -13.97906,-19.58776 c -1.46692,-1.98461 -3.10641,-4.22823 -4.7459,-6.38539 8.80157,-1.38048 14.84185,-7.59366 14.84185,-16.22268 0,-11.90799 -8.2839,-16.39488 -21.14114,-16.39488 -6.73051,0 -12.16701,0.0861 -16.74036,0.34512 l 0,58.24559 11.21776,0 0,-24.075 0.43157,0 16.22233,24.075 13.89295,0 0,0 z m -15.61854,-41.07402 c 0,5.4365 -4.14213,8.88803 -10.87264,8.88803 -1.72595,0 -3.27898,-0.0865 -4.05567,-0.17291 l 0,-16.82646 c 1.12181,-0.17256 2.7613,-0.25866 4.40079,-0.25866 7.07598,0 10.52752,2.7613 10.52752,8.37 z m -53.50571,18.46595 0,-35.63752 -11.13165,0 0,36.32811 c 0,9.92338 -3.6241,13.54748 -12.25311,13.54748 -9.66473,0 -12.08055,-5.17748 -12.08055,-12.51213 l 0,-37.36346 -11.218115,0 0,38.0537 c 0,11.13165 4.142126,21.15567 22.521965,21.15567 15.35953,0 24.16146,-7.60784 24.16146,-23.57185 l 0,0 z m -71.142519,22.60807 0,-9.57792 -20.45055,0 0,-15.79145 19.414842,0 0,-9.1467 -19.414842,0 0,-14.32417 20.45055,0 0,-9.40535 -31.66866,0 0,58.24559 31.66866,0 0,0 z"
       style="fill:#df0024;fill-rule:evenodd"
       id="_47482568"
       inkscape:connector-curvature="0" />
    <path
       d="m 211.20963,230.82874 c 0,-93.63968 -119.379331,-75.88807 -119.379331,-122.48575 0,-16.864012 13.313621,-29.290035 42.160041,-29.290035 17.75161,0 36.39047,3.106417 53.25484,7.988031 l 3.99401,-59.911297 c -18.63921,-3.550748 -38.60999,-5.325591 -54.58606,-5.325591 -75.000468,0 -118.935703,37.27807 -118.935703,93.639682 0,100.29614 119.379323,74.11252 119.379323,125.14854 0,21.30165 -18.19523,31.95248 -43.491608,31.95248 -21.745275,0 -46.154054,-4.88161 -63.017715,-11.09445 l -3.550394,63.90567 c 19.082834,4.51169 40.384842,6.73087 61.242873,6.73087 76.332044,0 122.929724,-43.1217 122.929724,-101.25815 l 0,0 z m 268.49267,95.8585 -63.46205,-96.30212 c -7.10043,-11.09481 -15.08882,-22.18961 -23.0772,-33.72803 39.94157,-9.76359 66.12484,-42.60366 66.12484,-82.98886 0,-63.461692 -42.60402,-88.757715 -113.16614,-88.757715 -35.9472,0 -68.34366,0.443977 -93.63968,2.219174 l 0,299.557551 69.23126,0 0,-117.16051 2.66279,0 71.0061,117.16051 84.32008,0 z m -92.75209,-207.2498 c 0,25.29638 -18.63885,40.82882 -47.92925,40.82882 -6.65681,0 -13.7576,-0.44362 -17.30763,-0.8876 l 0,-76.775666 c 3.99401,-0.443622 11.98204,-0.887244 19.08283,-0.887244 32.39681,0 46.15405,14.200866 46.15405,37.72169 l 0,0 z m 336.6861,207.2498 0,-299.557551 -48.81685,0 -78.99449,25.295668 9.76323,64.349643 47.92925,-18.639211 0,228.551451 70.11886,0 0,0 z"
       id="_47514128"
       inkscape:connector-curvature="0"
       style="fill-rule:evenodd;fill:#e6e6e6" />
  </g>
</svg>
