<?xml version="1.0" encoding="UTF-8" standalone="no"?>
<!-- Created with Inkscape (http://www.inkscape.org/) -->

<svg
   xmlns:dc="http://purl.org/dc/elements/1.1/"
   xmlns:cc="http://creativecommons.org/ns#"
   xmlns:rdf="http://www.w3.org/1999/02/22-rdf-syntax-ns#"
   xmlns:svg="http://www.w3.org/2000/svg"
   xmlns="http://www.w3.org/2000/svg"
   xmlns:sodipodi="http://sodipodi.sourceforge.net/DTD/sodipodi-0.dtd"
   xmlns:inkscape="http://www.inkscape.org/namespaces/inkscape"
   version="1.0"
   width="744.09448"
   height="496.06299"
   id="svg2957"
   inkscape:version="0.91pre3 r13670"
   sodipodi:docname="sr 2 kulturradio.svg">
  <metadata
     id="metadata11">
    <rdf:RDF>
      <cc:Work
         rdf:about="">
        <dc:format>image/svg+xml</dc:format>
        <dc:type
           rdf:resource="http://purl.org/dc/dcmitype/StillImage" />
      </cc:Work>
    </rdf:RDF>
  </metadata>
  <sodipodi:namedview
     pagecolor="#ffffff"
     bordercolor="#666666"
     borderopacity="1"
     objecttolerance="10"
     gridtolerance="10"
     guidetolerance="10"
     inkscape:pageopacity="0"
     inkscape:pageshadow="2"
     inkscape:window-width="1920"
     inkscape:window-height="1017"
     id="namedview9"
     showgrid="false"
     inkscape:zoom="0.47037037"
     inkscape:cx="372.04724"
     inkscape:cy="248.03149"
     inkscape:window-x="-8"
     inkscape:window-y="-8"
     inkscape:window-maximized="1"
     inkscape:current-layer="svg2957" />
  <defs
     id="defs2959" />
  <g
     id="g4148">
    <path
       d="m 18.473923,358.2737 707.903137,0 0,115.98519 -707.903137,0 0,-115.98519 0,0 z m 690.540927,56.64968 c 0,-20.17276 -11.09055,-29.60398 -26.80937,-29.60398 -15.80634,0 -28.81807,11.70178 -28.81807,31.17579 0,18.25122 8.82,29.70567 26.80937,29.70567 15.98067,0 28.81807,-11.80382 28.81807,-31.27748 z m -12.13866,0.87307 c 0,14.14701 -8.20878,20.08524 -15.8935,20.08524 -10.5665,0 -15.45697,-8.12126 -15.45697,-20.60894 0,-13.27394 7.51039,-19.73622 15.63165,-19.73622 10.12996,0 15.71882,7.16102 15.71882,20.25992 l 0,0 z m -65.77086,29.42929 0,-58.94575 -11.35241,0 0,58.94575 11.35241,0 z m -34.4087,-30.47705 c 0,-20.69645 -11.61426,-28.81807 -29.86583,-28.81807 -7.24819,0 -14.40886,0.26221 -19.03713,0.43689 l 0,58.77071 c 4.97764,0.18921 10.30465,0.45142 16.41756,0.45142 19.21181,0 32.4854,-10.58102 32.4854,-30.84095 l 0,0 z m -12.22583,0.87308 c 0,13.97232 -8.0341,20.25992 -19.12429,20.25992 -2.27055,0 -4.62862,-0.17469 -6.20043,-0.43654 l 0,-39.73394 c 1.83401,-0.17468 4.27925,-0.26185 6.89881,-0.26185 13.44827,0 18.42591,7.51004 18.42591,20.17241 z m -56.62559,29.60397 -21.04583,-58.94575 -12.83704,0 -20.60929,58.94575 11.43992,0 4.10456,-12.05114 22.26827,0 4.10421,12.05114 12.5752,0 0,0 z m -19.6487,-21.04582 -16.4172,0 5.32665,-15.02008 c 1.13527,-3.40583 2.09586,-6.81166 2.7946,-9.86811 l 0.0875,0 c 0.69839,3.3183 1.57182,6.20008 2.70709,9.43122 l 5.50134,15.45697 0,0 z m -49.70268,21.04582 -14.147,-19.82338 c -1.48465,-2.00835 -3.14398,-4.2789 -4.80296,-6.46193 8.90717,-1.39748 15.02008,-7.68473 15.02008,-16.41756 0,-12.05114 -8.38346,-16.59225 -21.39519,-16.59225 -6.8113,0 -12.313,0.0875 -16.94126,0.34937 l 0,58.94575 11.3524,0 0,-24.36413 0.43653,0 16.41756,24.36413 14.05984,0 0,0 z m -15.80633,-41.5676 c 0,5.5017 -4.19174,8.99469 -11.00304,8.99469 -1.74649,0 -3.31866,-0.0875 -4.10456,-0.17469 l 0,-17.02878 c 1.13527,-0.17468 2.7946,-0.26185 4.45358,-0.26185 7.16102,0 10.65402,2.79426 10.65402,8.47063 l 0,0 z m -48.0887,41.5676 -14.14701,-19.82338 c -1.48465,-2.00835 -3.14398,-4.2789 -4.80295,-6.46193 8.90716,-1.39748 15.02007,-7.68473 15.02007,-16.41756 0,-12.05114 -8.38346,-16.59225 -21.39519,-16.59225 -6.8113,0 -12.31299,0.0875 -16.94126,0.34937 l 0,58.94575 11.3524,0 0,-24.36413 0.43653,0 16.41756,24.36413 14.05985,0 0,0 z m -15.80634,-41.5676 c 0,5.5017 -4.19173,8.99469 -11.00303,8.99469 -1.7465,0 -3.31866,-0.0875 -4.10457,-0.17469 l 0,-17.02878 c 1.13528,-0.17468 2.79461,-0.26185 4.45358,-0.26185 7.16103,0 10.65402,2.79426 10.65402,8.47063 l 0,0 z m -53.28,18.68776 0,-36.06591 -11.26524,0 0,36.76465 c 0,10.04279 -3.66767,13.71047 -12.40051,13.71047 -9.78059,0 -12.22583,-5.23984 -12.22583,-12.66236 l 0,-37.81276 -11.3524,0 0,38.51115 c 0,11.26523 4.19174,21.40972 22.79233,21.40972 15.54413,0 24.45165,-7.69925 24.45165,-23.85496 z m -67.57512,-26.37248 0,-9.69343 -41.91697,0 0,9.69343 15.28229,0 0,49.25232 11.3524,0 0,-49.25232 15.28228,0 z m -50.4737,49.25232 0,-9.95527 -19.12464,0 0,-48.99048 -11.3524,0 0,58.94575 30.47704,0 0,0 z m -57.69921,-22.87984 0,-36.06591 -11.26523,0 0,36.76465 c 0,10.04279 -3.66768,13.71047 -12.40052,13.71047 -9.78059,0 -12.22582,-5.23984 -12.22582,-12.66236 l 0,-37.81276 -11.3524,0 0,38.51115 c 0,11.26523 4.19173,21.40972 22.79232,21.40972 15.54413,0 24.45165,-7.69925 24.45165,-23.85496 l 0,0 z m -66.709485,22.87984 -22.530472,-30.47705 21.569882,-28.4687 -13.797638,0 -19.124645,26.72221 0,-26.72221 -11.352401,0 0,58.94575 11.352401,0 0,-28.29401 18.94996,28.29401 14.932913,0 0,0 z"
       style="fill:#fec20f;fill-rule:evenodd"
       id="_48025128"
       inkscape:connector-curvature="0" />
    <path
       d="m 211.20963,230.82874 c 0,-93.63968 -119.379331,-75.88807 -119.379331,-122.48575 0,-16.864012 13.313621,-29.290035 42.160041,-29.290035 17.75161,0 36.39047,3.106417 53.25484,7.988031 l 3.99401,-59.911297 c -18.63921,-3.550748 -38.60999,-5.325591 -54.58606,-5.325591 -75.000468,0 -118.935703,37.27807 -118.935703,93.639682 0,100.29614 119.379323,74.11252 119.379323,125.14854 0,21.30165 -18.19523,31.95248 -43.491608,31.95248 -21.745275,0 -46.154054,-4.88161 -63.017715,-11.09445 l -3.550394,63.90567 c 19.082834,4.51169 40.384842,6.73087 61.242873,6.73087 76.332044,0 122.929724,-43.1217 122.929724,-101.25815 l 0,0 z m 515.14723,95.85885 0,-65.76696 c -33.77232,0 -60.43465,0 -94.6513,1.77732 l -0.44433,-0.44433 18.21933,-20.44098 c 48.4363,-54.65799 69.32197,-96.42898 69.32197,-133.7563 0,-47.547637 -29.77299,-86.207951 -93.76264,-86.207951 -35.54964,0 -62.6563,7.998662 -82.6533,17.774646 l 10.665,61.323655 c 13.77567,-8.887672 34.21665,-15.997672 52.88031,-15.997672 24.44067,0 37.32732,14.66433 37.32732,35.105672 0,19.55232 -11.99799,49.32531 -64.8783,107.53795 l -37.77166,41.32665 0,57.7683 185.7476,0 0,0 z m -246.65527,-3.5e-4 -63.46205,-96.30212 c -7.10043,-11.09481 -15.08882,-22.18961 -23.0772,-33.72803 39.94157,-9.76359 66.12484,-42.60366 66.12484,-82.98886 0,-63.461692 -42.60401,-88.757715 -113.16614,-88.757715 -35.9472,0 -68.34366,0.443977 -93.63968,2.219174 l 0,299.557551 69.23126,0 0,-117.16051 2.66279,0 71.0061,117.16051 84.32008,0 z M 386.9495,119.43744 c 0,25.29638 -18.63885,40.82882 -47.92925,40.82882 -6.65681,0 -13.75759,-0.44362 -17.30763,-0.8876 l 0,-76.775666 c 3.99401,-0.443622 11.98204,-0.887244 19.08283,-0.887244 32.39681,0 46.15405,14.200866 46.15405,37.72169 l 0,0 z"
       id="_46864928"
       inkscape:connector-curvature="0"
       style="fill-rule:evenodd;fill:#e6e6e6" />
  </g>
</svg>
