<?xml version="1.0" encoding="UTF-8"?>
<svg version="1.1" viewBox="0 0 450 450" xmlns="http://www.w3.org/2000/svg">
	<rect x="75" y="75" width="300" height="300" fill="#fff"/>
	<path d="m279.26 185.51c-5.803 0-12.111 0.50343-12.111 0.50343v44.158s5.5509 0.25219 11.103 0.25219c16.654 0 26.999-8.0728 26.999-22.709 0-13.12-7.8243-22.205-25.99-22.205zm104.25-185.51-383.51 33.553 36.435 416.45 413.57-72.918zm-244.29 327.82c-15.393 0-31.29-2.5209-43.401-5.5509l4.2881-37.344c11.357 4.7944 27.505 8.8331 40.88 8.8331 13.878 0 22.204-5.2997 22.204-16.15 0-27.502-69.896-18.924-69.896-74.437 0-29.775 24.223-51.728 64.345-51.728 11.354 0 22.96 1.515 34.568 3.7847l-3.7846 34.568c-10.599-3.5306-21.953-5.8031-32.298-5.8031-13.879 0-21.448 5.2997-21.448 15.393 0 27.502 70.148 18.672 70.148 74.438 0 31.038-23.972 53.997-65.606 53.997zm171.58-3.0272-37.092-65.352h-6.5605v65.352h-39.365v-170.32s24.223-1.2609 53.746-1.2609c40.877 0 65.103 14.888 65.103 51.222 0 25.738-14.384 41.132-34.065 47.692 0 0 7.063 9.8391 12.363 18.672l33.559 53.996z" fill="#007796"/>
</svg>
