<svg xmlns="http://www.w3.org/2000/svg" height="349.559" width="600" viewBox="0 0 158.75 92.488" fill="#fff"><path d="M142.546 2.322l-4.81.136-4.296.316v31.404l3.922.316 4.67.136c2.927 0 5.433-.421 7.519-1.264 2.117-.872 3.845-2.046 5.183-3.52 1.37-1.474 2.382-3.188 3.036-5.144.654-1.985.98-4.076.98-6.272s-.327-4.271-.98-6.227c-.623-1.955-1.603-3.67-2.942-5.144s-3.02-2.632-5.044-3.474-4.436-1.264-7.238-1.264zm-40.634.361v31.585h4.971V20.057h14.903v14.211h4.92V2.683h-4.92v13.03h-14.903V2.683zm40.695 4.084c1.888 0 3.523.335 4.923.969 1.389.63 2.534 1.482 3.442 2.572.893 1.074 1.565 2.306 2.004 3.71.432 1.378.653 2.825.653 4.343 0 1.714-.213 3.29-.653 4.722-.432 1.407-1.12 2.626-2.048 3.667-.901 1.011-2.056 1.825-3.485 2.404-1.418.574-3.108.843-5.054.843a49.95 49.95 0 0 1-2.091-.042l-1.917-.168V6.978l1.917-.127 2.309-.084z"/><path d="M5.186 76.065v9.508h2.593v-3.457h2.593v-2.161H7.779v-1.513h2.809v-2.377zm8.211 0v9.508h5.619v-2.161h-3.025v-1.513H18.8v-2.161h-2.809v-1.296h3.025v-2.377zm8.86 0v9.508h2.593v-3.457l1.729 3.457h3.241l-1.729-2.809c-.216-.432-.432-.648-.648-1.08 1.08-.432 1.729-1.513 1.729-2.594 0-2.161-1.297-3.025-3.674-3.025zm9.94 0v9.508h2.593V80.17l2.377 5.403h3.457v-9.508h-2.593v5.186l-2.377-5.186zm15.127 0c-2.377 0-3.89 1.08-3.89 3.025 0 3.241 3.457 2.593 3.457 3.89 0 .432-.432.648-1.08.648s-1.513-.216-1.945-.432l-.216 2.377c.648.216 1.296.216 1.945.216 2.593 0 4.106-1.513 3.89-3.241 0-3.025-3.458-2.377-3.458-3.674 0-.432.432-.648 1.08-.648s1.081 0 1.729.216l.216-2.161c-.648-.216-1.296-.216-1.729-.216zm5.186 0v9.508h5.618v-2.161h-3.025v-1.513h2.809v-2.161h-2.809v-1.296h3.025v-2.377zm8.644 0v9.508h2.593V81.9h2.809v3.673h2.594v-9.508h-2.594v3.457h-2.809v-3.457zm11.453 0v9.508h5.618v-2.161H75.2v-1.513h2.809v-2.161H75.2v-1.296h3.025v-2.377zm8.644 0v9.508h2.593V80.17l2.377 5.403h3.457v-9.508h-2.593v5.186l-2.377-5.186zm-56.617 2.161h.432c.864 0 1.297.432 1.297.864 0 .648-.649 1.08-1.297 1.08h-.432z" paint-order="stroke markers fill" fill="#0f2995"/><path d="M25.067 78.226h-.432v1.945h.432c.648 0 1.297-.432 1.297-1.08 0-.432-.432-.864-1.297-.864zM0 68.934v23.554h94.649V68.934zm10.589 9.508h-2.81v1.513h2.593v2.161H7.779v3.457H5.186v-9.508h5.402zm8.428 0h-3.025v1.297H18.8V81.9h-2.809v1.513h3.025v2.161h-5.618v-9.508h5.618zm7.563 7.131l-1.729-3.457h0v3.457h-2.593v-9.508h3.241c2.377 0 3.674.864 3.674 3.025 0 1.08-.648 2.161-1.729 2.593.216.432.432.648.648 1.08l1.729 2.809zm10.589 0l-2.377-5.402v5.402h-2.593v-9.508h3.457l2.377 5.186v-5.186h2.593v9.508zm8.428.216c-.648 0-1.297 0-1.945-.216l.216-2.377c.432.216 1.297.432 1.945.432s1.08-.216 1.08-.648c0-1.297-3.457-.648-3.457-3.89 0-1.945 1.513-3.025 3.89-3.025.432 0 1.08 0 1.729.216l-.216 2.161c-.648-.216-1.08-.216-1.729-.216s-1.08.216-1.08.648c0 1.297 3.457.648 3.457 3.674.216 1.729-1.297 3.241-3.89 3.241zm12.533-7.347h-3.025v1.297h2.809V81.9h-2.809v1.513h3.025v2.161h-5.62v-9.508h5.618zm11.021 7.131h-2.593v-3.674h-2.809v3.674h-2.593v-9.508h2.593v3.457h2.809v-3.457h2.593zm9.076-7.131H75.2v1.297h2.809V81.9H75.2v1.513h3.025v2.161h-5.618v-9.508h5.618zm7.995 7.131l-2.377-5.402v5.402h-2.593v-9.508h3.457l2.377 5.186v-5.186h2.593v9.508zM40.409 42.57c0 11.885-9.508 20.529-24.851 20.529-4.322 0-8.644-.432-12.533-1.297l.648-12.966c3.457 1.297 8.428 2.161 12.749 2.161 5.186 0 8.86-2.161 8.86-6.483 0-10.372-24.202-4.97-24.202-25.499C1.08 7.563 9.94 0 25.283 0c3.241 0 7.347.432 11.021 1.08l-.864 12.317c-3.457-1.08-7.131-1.729-10.805-1.729-5.835 0-8.644 2.593-8.644 6.051.216 9.508 24.419 5.835 24.419 24.851zm54.455 19.448H77.793l-14.478-23.77h-.648v23.77H48.621V1.297C53.807.864 60.29.864 67.637.864 81.899.864 90.543 6.05 90.543 18.8c0 8.212-5.402 14.91-13.398 16.855 1.729 2.377 3.241 4.538 4.754 6.915zm-18.8-42.138c0-4.754-2.809-7.563-9.292-7.563-1.513 0-3.025 0-3.89.216v15.559c.648 0 2.161.216 3.457.216 6.051 0 9.724-3.241 9.724-8.428z"/></svg>