<?xml version="1.0" encoding="UTF-8"?>
<!-- Generator: Adobe Illustrator 27.5.0, SVG Export Plug-In . SVG Version: 6.00 Build 0)  -->
<svg width="617.15" height="450" version="1.1" xmlns="http://www.w3.org/2000/svg">
	<path class="st0" d="m36.508 450 413.49-73.016-66.507-376.98-383.49 33.492z" fill="#007796"/>
	<path class="st1" d="m267.14 186.03s6.3492-0.47616 12.063-0.47616c18.095 0 26.032 9.0476 26.032 22.222 0 14.603-10.317 22.698-26.984 22.698-5.5555 0-11.111-0.31748-11.111-0.31748zm91.269 138.73-33.492-53.968c-5.238-8.8889-12.381-18.73-12.381-18.73 19.682-6.508 34.127-21.905 34.127-47.619 0-36.349-24.286-51.27-65.079-51.27-29.524 0-53.809 1.2698-53.809 1.2698v170.32h39.365v-65.397h6.5079l37.143 65.397zm-166.19-169.52c-11.587-2.2222-23.174-3.8095-34.603-3.8095-40.158 0-64.285 21.905-64.285 51.746 0 55.556 69.841 46.984 69.841 74.444 0 10.794-8.2539 16.19-22.222 16.19-13.333 0-29.524-3.9683-40.952-8.8889l-4.1269 37.302c12.063 3.0159 27.936 5.5556 43.333 5.5556 41.587 0 65.555-23.016 65.555-53.968 0-55.714-70.158-46.984-70.158-74.444 0-10.159 7.619-15.397 21.428-15.397 10.317 0 21.746 2.2222 32.222 5.873z" fill="#fff"/>
	<path d="m483.06 217.32v-69.236h18.834v26.472h23.217v-26.472h18.834v69.236h-18.834v-29.478h-23.217v29.478zm71.073 0v-69.236h25.823q17.294 0 27.244 8.6302 9.9501 8.5333 9.9501 25.018 0 11.539-4.7382 19.491-4.7382 7.9514-13.385 12.024-8.6471 4.0727-20.493 4.0727zm24.046-12.897q10.187 0 15.044-5.6242 4.8566-5.6242 4.8566-16.679 0-10.957-4.7382-16-4.6197-5.1393-13.859-5.1393h-7.2257v43.442z" fill="#fff"/>
</svg>
