<?xml version="1.0" encoding="UTF-8"?>
<svg version="1.1" viewBox="0 0 766.22 450" xmlns="http://www.w3.org/2000/svg">
	<g>
		<path d="m176.03 178.59s6.4013-0.48016 12.322-0.48016c18.403 0 26.245 9.1214 26.245 22.404 0 14.882-10.402 23.044-27.365 23.044-5.601 0-11.202-0.32011-11.202-0.32011zm92.337 140.34-33.926-54.569c-5.2809-8.9622-12.483-18.884-12.483-18.884 19.844-6.7206 34.407-22.244 34.407-48.329 0-36.806-24.485-51.849-65.932-51.849-29.925 0-54.41 1.2804-54.41 1.2804v172.35h39.848v-66.091h6.5614l37.607 66.091zm-168.19-171.55c-11.682-2.2408-23.524-3.8413-35.046-3.8413-40.647 0-65.132 22.244-65.132 52.33 0 56.17 70.733 47.528 70.733 75.373 0 11.042-8.4815 16.323-22.404 16.323-13.602 0-29.925-4.1606-41.287-8.9613l-4.3208 37.767c12.322 3.0402 28.325 5.601 43.848 5.601 42.087 0 66.412-23.204 66.412-54.57 0-56.49-71.053-47.528-71.053-75.374 0-10.242 7.6814-15.523 21.764-15.523 10.402 0 21.924 2.2408 32.646 5.9212z" fill="#fff"/>
		<path d="m551.78 429.36-47.688-65.611v59.85zm214.44-351.74-364.87-77.614-85.135 400.39 125.3 15.363v-238.12c-11.682-1.9206-28.325-3.8413-42.568-4.9608v-39.047c31.366-3.8404 68.972-5.441 105.3-4.4807v224.68l55.85-65.611c-9.2814-0.96032-17.603-2.4008-23.044-4.4807v-40.168h131.22v40.168c-9.2814 2.4-21.604 4.4807-32.326 5.441l-61.611 66.571 65.451 84.335 80.975 9.9216z" fill="#fdea00"/>
	</g>
</svg>
