<?xml version="1.0" encoding="UTF-8"?>
<svg version="1.1" viewBox="0 0 764.94 450" xmlns="http://www.w3.org/2000/svg">
	
		<path d="m175.73 179.39s6.3784-0.47839 12.279-0.47839c18.338 0 26.311 9.2488 26.311 22.484 0 14.83-10.524 22.962-27.268 22.962-5.5812 0-11.162-0.31892-11.162-0.31892v-44.649zm92.328 140.17-33.965-54.536c-5.4217-8.9298-12.438-18.816-12.438-18.816 19.933-6.6974 34.444-22.165 34.444-48.157 0-36.676-24.557-51.825-65.858-51.825-29.819 0-54.376 1.2757-54.376 1.2757v172.22h39.706v-66.017h6.6974l37.473 66.017h48.317zm-168.07-171.42c-11.8-2.2325-23.441-3.8271-34.922-3.8271-40.503 0-65.06 22.165-65.06 52.303 0 56.13 70.641 47.519 70.641 75.266 0 11.003-8.4515 16.265-22.484 16.265s-29.819-4.146-41.3-8.9298l-4.3055 37.792c12.279 3.0298 28.384 5.5812 43.852 5.5812 42.098 0 66.336-23.281 66.336-54.536 0-56.29-70.96-47.36-70.96-75.266 0-10.206 7.6541-15.627 21.687-15.627 10.524 0 22.006 2.2325 32.69 5.9001z" fill="#fff"/>
		<path d="m764.94 77.498-365.17-77.498-84.833 400.25 404.08 49.752z" fill="#ff7200"/>
    <g fill="#fff">
		<path d="m403.28 199.49c0.15946 0.95677 0 1.7541-0.31893 2.3919-0.31892 0.63785-0.95676 0.95677-2.073 1.1162l-6.219 0.63785c-1.1162 0.15946-1.7541-0.15947-2.2325-0.63785-0.47838-0.47838-0.63784-1.2757-0.7973-2.2325l-7.3352-69.206-12.916 1.4352-11.003 51.984 3.5082 33.965c0.31892 3.6676 1.9135 6.6974 4.4649 8.7704 2.5514 2.2325 5.7406 3.0298 9.2488 2.7108l45.128-4.7838c3.5082-0.31893 6.3785-1.9135 8.4515-4.4649 2.073-2.7108 2.8703-5.9001 2.5514-9.5677l-8.9298-84.196-28.863 3.0298zm286.87-56.449c-0.63784 0.79731-1.9135 1.2757-3.8271 1.4352l-6.0595 0.63784-2.073-20.411 6.219-0.63785c1.1162-0.15946 1.9135-0.15946 2.5514-0.15946 0.63785 0 1.1162 0.15946 1.5946 0.47838 0.31892 0.31893 0.63784 0.79731 0.95677 1.5946 0.15946 0.7973 0.31892 1.7541 0.47838 3.1892l1.1162 10.046c-0.15946 1.7541-0.31892 3.0298-0.95677 3.8271m24.557 5.4217c-1.2757-0.31892-2.5514-0.47838-3.9865-0.47838 1.1162-0.15947 2.073-0.63785 3.0298-1.1162 0.95677-0.47839 1.9135-1.2757 2.7108-2.073 0.7973-0.79731 1.4352-1.7541 1.9135-2.8703 0.47839-1.1162 0.63785-2.2325 0.47839-3.6676l-2.3919-22.644c-0.31893-2.5514-0.95677-4.9433-2.073-7.1758-1.1162-2.2324-2.5514-3.9865-4.3055-5.5811-1.7541-1.5946-3.8271-2.7108-6.219-3.3487-2.3919-0.79731-5.1028-0.95677-8.1325-0.63785l-48.955 5.1028 10.206 97.112 28.544-3.0298-3.5082-33.806 3.6676-0.31893c1.2757-0.15946 2.5514-0.15946 3.8271 0.15946 1.2757 0.15947 2.2324 0.79731 3.1892 1.4352 0.95677 0.7973 1.4352 1.9135 1.5946 3.6676l2.8703 27.587 28.703-3.0298-3.6676-34.922c-0.15946-2.2325-0.79731-3.9865-1.4352-5.4217-0.7973-1.4352-1.5946-2.5514-2.7108-3.3487-0.95677-0.63784-2.073-1.2757-3.3487-1.5946m-94.082 30.936-1.1162-10.843 24.238-2.5514-2.7108-25.195-24.238 2.5514-1.1162-10.524 27.268-2.8703-2.7108-25.195-58.522 6.219 10.206 96.953 59.32-6.219-2.7108-25.195zm-76.86-29.5-0.79731-7.9731c-0.15946-0.7973 0-1.2757 0.31892-1.5946 0.31893-0.31892 0.79731-0.47838 1.4352-0.63785l31.573-3.3487-2.7108-24.557-42.098 4.4649c-3.9865 0.47839-7.1758 0.95677-9.5677 1.5946-2.3919 0.63784-4.3055 1.7541-5.7406 3.1892-1.4352 1.4352-2.2325 3.5082-2.5514 6.0595-0.31892 2.5514-0.31892 5.9001 0.15946 9.8866l3.5082 33.646c0.31892 3.0298 1.2757 4.9433 2.8703 5.9001 1.5946 0.79731 3.6676 1.1162 6.3785 0.95677l22.644-2.3919c1.4352-0.15946 2.3919 0.63785 2.5514 2.2325l0.7973 8.292c0.15947 0.79731 0 1.2757-0.31892 1.5946-0.31892 0.31893-0.79731 0.47839-1.4352 0.47839l-31.414 3.3487 2.5514 24.557 45.925-4.7838c3.6676-0.31893 6.6974-0.95677 8.9298-1.7541 2.2325-0.7973 3.8271-1.9135 4.9433-3.3487 1.1162-1.4352 1.5946-3.5082 1.7541-6.0595s0-5.9001-0.47838-9.8866l-3.0298-28.544c-0.31892-2.3919-0.63784-4.3055-1.1162-5.9001-0.47838-1.5946-1.2757-2.7108-2.2325-3.5082s-2.2325-1.2757-3.9865-1.5946c-1.5946-0.15947-3.6676-0.15947-6.0595 0.15946l-20.73 2.2325c-1.1162-0.31893-1.9135-1.1162-2.073-2.7108m-65.698-28.225 4.6244 44.011-24.079-41.938-26.63 2.8703 10.206 97.112 26.311-2.7108-4.3055-41.619 23.441 39.546 26.949-2.8703-10.206-97.112z"/>
		<path d="m660.81 343 62.828-6.5379c3.9865-0.47838 7.3352-1.9135 10.046-4.3055l3.6676-30.298-5.5812-53.738-45.446 4.7838 3.5082 33.646 7.9731-0.79731 1.4352 14.033c0.15946 1.2757-0.15946 2.3919-0.95677 3.3487-0.63784 0.95677-1.7541 1.4352-2.8703 1.5946l-11.322 1.2757c-1.1162 0.15946-2.073-0.15946-3.0298-0.95677s-1.4352-1.5946-1.4352-2.7108l-6.219-58.682c-0.15947-1.1162 0-2.073 0.47838-3.0298 0.47838-0.7973 1.4352-1.4352 3.0298-1.5946l53.26-5.5812-3.6676-34.284-79.89 8.4514c-4.7838 0.47838-8.7704 2.5514-11.641 6.219-2.8703 3.6676-4.146 7.8136-3.6676 12.757l10.524 100.78c0.47839 5.2622 2.7108 9.2488 6.219 12.119 3.6676 2.7108 7.9731 3.9865 12.757 3.5082m-77.179-128.84 6.3785 61.393-33.487-58.522-37.154 3.9865 14.192 135.38 36.676-3.8271-6.0595-58.044 32.69 55.174 37.633-3.9865-14.192-135.38zm-99.663 147.34 41.619-4.3055-14.192-135.38-41.619 4.3055zm-51.984-33.009c0 1.1162-0.15946 2.073-0.63784 2.5514-0.47838 0.63785-1.1162 0.95677-1.9135 1.1162-0.7973 0.15947-2.073 0.31893-3.5082 0.47839l-9.2488 0.95677-7.0163-66.336 9.2488-0.95676c1.4352-0.15947 2.7108-0.31893 3.5082-0.31893 0.79731 0 1.5946 0.15946 2.073 0.63785 0.47838 0.47838 0.95677 1.2757 1.1162 2.3919s0.47838 2.7108 0.63785 4.6244l5.2622 49.911c0.47838 2.2325 0.47838 3.8271 0.47838 4.9433m4.146-98.866-70.004 7.3352 14.192 135.38 70.004-7.3352c4.146-0.47839 7.6542-1.4352 10.843-3.1892 3.1892-1.7541 5.7406-3.8271 7.8136-6.5379 2.073-2.7108 3.5082-5.7406 4.4649-9.0893 0.95677-3.3487 1.2757-6.8568 0.79731-10.684l-8.6109-81.963c-0.31892-3.6676-1.4352-7.0163-3.1892-10.206-1.7541-3.1892-3.8271-5.7406-6.5379-7.9731-2.5514-2.2325-5.5812-3.8271-9.0893-4.9433-3.1892-0.79731-6.8568-1.2757-10.684-0.79731"/>
	</g>
</svg>
