<?xml version="1.0" encoding="UTF-8"?>
<svg width="800" height="252.9" version="1.1" xml:space="preserve" xmlns="http://www.w3.org/2000/svg">
	<path d="m184.44 0.0012645v252.9h615.56v-252.9z" fill="#ffb600"/>
	<g fill="#fff">
		<path d="m695.3 59.376v135.34h46.576v-135.34z"/>
		<path d="m638.23 111.89c-0.34099-8.081-1.7644-14.293-4.2171-18.602-2.4708-4.3022-7.2772-6.4721-14.462-6.4721-6.4903 0-11.378 1.7227-14.611 5.1642-3.2636 3.4032-5.2308 10.069-5.9174 19.909h39.208zm34.735 79.166c-1.0445 0.3372-3.1081 0.8607-6.1817 1.5722-3.0639 0.6744-6.7499 1.4264-11.054 2.2462-4.3048 0.78525-9.0319 1.4963-14.21 2.0978-5.1789 0.59516-10.496 0.93868-15.925 0.93868-12.46 0-23.198-1.3113-32.225-3.8567-9.0551-2.5475-16.463-6.5927-22.247-12.127-5.8023-5.5398-10.091-12.802-12.898-21.746-2.8093-8.9897-4.2184-19.876-4.2184-32.721 0-23.384 5.5221-41.092 16.589-53.138 11.043-12.057 27.375-18.084 48.957-18.084 10.165 0 18.998 1.1966 26.446 3.5553 7.45 2.3562 13.684 6.1408 18.677 11.34 5.0133 5.2059 8.7423 11.866 11.214 20.061 2.4477 8.1636 3.6666 18.159 3.6666 29.945v19.241h-80.531c0.52351 4.4156 1.4757 8.0473 2.8784 10.965 1.409 2.8835 3.4428 5.2434 6.0641 6.9981 2.6415 1.7252 5.8803 2.9598 9.7295 3.6687 3.8601 0.71233 8.6091 1.0508 14.226 1.0508 11.208 0 20.667-0.67271 28.282-2.0927 7.651-1.4289 12.946-2.3992 15.939-2.886z"/>
		<path d="m504.32 59.376-9.579 61.606-16.186-61.606h-37.546l-16.167 61.606-9.5824-61.606h-51.28l31.589 135.34h43.996l18.865-68.607 19.072 68.607h43.996l31.591-135.34z"/>
		<path d="m238.41 165.45v29.275h118.42v-42.82h-52.89l51.06-63.216-2.8995-29.307h-111.57v42.816h48.54z"/>
	</g>
	<path d="m166.08 252.9v-252.9h-166.08v252.9z" fill="#ffb600"/>
	<g fill="#fff">
		<path d="m75.52 64.371h-16.651v-32.063c0-2.4523-0.8607-3.1836-3.3008-3.1836h-8.5699c-2.4502 0-3.2978 0.7313-3.2978 3.1836v46.508c0 2.4438 0.84763 3.1773 3.2978 3.1773h72.085c2.4493 0 3.3058-0.73341 3.3058-3.1773v-11.257c0-2.4497-0.85648-3.187-3.3058-3.187h-28.398v-29.123c0-2.4464-0.85269-3.1836-3.3058-3.1836h-8.5577c-2.4493 0-3.3037 0.7372-3.3037 3.1836v29.123z"/>
		<path d="m81.75 127.59 5.1448 1.2312c1.4752 0.35828 2.2061 0.47798 2.6883 0.47798 1.24 0 2.2112-0.3608 3.6725-1.2249l26.194-14.558c2.0843-1.219 2.9425-2.2032 2.9425-5.1296v-13.353c0-1.7092-1.1014-3.7775-4.1589-1.8424l-29.623 17.872c-3.788-5.9903-9.1811-12.723-21.045-12.723-15.301 0-23.863 8.5674-23.863 27.421v27.29c0 2.4464 0.84763 3.1836 3.2978 3.1836h72.085c2.4476 0 3.3058-0.7372 3.3058-3.1836v-11.254c0-2.4624-0.85818-3.1933-3.3058-3.1933h-60.835v-11.625c0-7.3349 2.7052-10.886 9.5537-10.886 6.2407 0 8.2066 2.8106 9.4247 5.627 1.4647 3.5515-0.1235 4.779 4.5206 5.8706"/>
		<path d="m109.77 222.26 9.4365 1.4757c1.8356 0.23941 2.5728-0.6272 2.8101-2.2057 0.494-3.5511 1.1085-12.493 1.1085-21.17 0-19.467-6.3714-33.668-24.471-33.668-10.659 0-18.614 4.663-22.774 20.809l-2.3267 9.0588c-1.5857 6.1037-3.5478 8.9341-8.0666 8.9341-6.3676 0-7.5887-5.8841-7.5887-11.508 0-7.5891 0.60865-15.292 0.851-18.35 0.24826-3.1895-0.1235-4.0342-2.8135-4.5341l-9.1811-1.4723c-1.8327-0.24658-2.5703 0.6137-2.8101 2.2032-0.48388 3.5562-1.1052 11.39-1.1052 21.299 0 20.205 8.8106 29.977 22.761 29.977 12.602 0 20.071-6.8388 23.129-18.717l2.3296-9.0614c1.9553-7.4622 4.1581-10.643 8.8055-10.643 6.8599 0 8.0814 4.6529 8.0814 15.914 0 5.136-0.73425 14.064-0.98125 17.131-0.24068 3.1806 0.1235 4.0413 2.8051 4.5282"/>
	</g>
</svg>
