<?xml version="1.0" encoding="UTF-8"?>
<svg width="778.18" height="450" version="1.1" xml:space="preserve" xmlns="http://www.w3.org/2000/svg">
	<path d="m328.19 450h449.99v-450h-450z" fill="#af001e"/>
	<path d="m0 450h295.52v-450h-295.52z" fill="#af001e"/>
	<g fill="#fff">
		<path d="m509.24 118.35v259.33h88.072v-321.1z"/>
		<path d="m195.32 395.48 16.792 2.625c3.2625 0.42 4.575-1.125 4.995-3.93 0.885-6.315 1.9725-22.23 1.9725-37.665 0-34.642-11.332-59.91-43.538-59.91-18.975 0-33.128 8.295-40.53 37.028l-4.14 16.118c-2.82 10.86-6.3075 15.9-14.355 15.9-11.325 0-13.5-10.47-13.5-20.475 0-13.508 1.0875-27.218 1.515-32.655 0.4425-5.6775-0.225-7.1775-5.01-8.07l-16.335-2.6175c-3.2625-0.4425-4.575 1.095-4.995 3.9225-0.8625 6.3225-1.9725 20.265-1.9725 37.898 0 35.948 15.675 53.34 40.5 53.34 22.425 0 35.715-12.172 41.16-33.3l4.1475-16.125c3.4725-13.275 7.395-18.945 15.668-18.945 12.202 0 14.378 8.28 14.378 28.32 0 9.135-1.305 25.02-1.7475 30.48-0.4275 5.6625 0.225 7.1925 4.995 8.0625"/>
		<path d="m145.46 227.03 9.15 2.19c2.625 0.6375 3.93 0.8475 4.785 0.8475 2.205 0 3.9375-0.6375 6.54-2.175l46.605-25.905c3.7125-2.175 5.235-3.9225 5.235-9.1275v-23.76c0-3.045-1.9575-6.72-7.395-3.2775l-52.71 31.8c-6.75-10.658-16.343-22.635-37.448-22.635-27.225 0-42.465 15.24-42.465 48.788v48.563c0 4.35 1.5075 5.6625 5.865 5.6625h128.27c4.35 0 5.88-1.3125 5.88-5.6625v-20.025c0-4.38-1.5225-5.685-5.88-5.685h-108.25v-20.685c0-13.05 4.815-19.373 16.995-19.373 11.108 0 14.603 5.0025 16.778 10.013 2.6025 6.3225-0.225 8.505 8.04 10.448"/>
		<path d="m134.38 114.54h-29.625v-57.052c0-4.3575-1.5375-5.6625-5.8725-5.6625h-15.255c-4.35 0-5.865 1.305-5.865 5.6625v82.762c0 4.35 1.5075 5.655 5.865 5.655h128.27c4.35 0 5.88-1.305 5.88-5.655v-20.025c0-4.365-1.5225-5.6775-5.88-5.6775h-50.535v-51.825c0-4.35-1.515-5.6625-5.88-5.6625h-15.232c-4.3575 0-5.88 1.3125-5.88 5.6625v51.825z"/>
	</g>
</svg>
