<?xml version="1.0" encoding="UTF-8"?>
<svg width="800" height="284.13" version="1.1" xml:space="preserve" xmlns="http://www.w3.org/2000/svg">
	<g fill="#af001e" stroke-width="4.735">
		<path d="M 207.22,0 V 284.13 H 800 V 0 Z"/>
		<path d="M 0,284.13 H 186.59 V 0 H 0 Z"/>
	</g>
	<g fill="#fff" stroke-width="4.735">
		<path d="m699.57 164.42c-0.982 5.066-2.508 9.02-4.536 11.742-1.883 2.526-4.162 4.25-6.967 5.271-3.24 1.182-7.33 1.78-12.14 1.78-4.823 0-8.902-0.598-12.134-1.774-2.82-1.027-5.1-2.752-6.981-5.278-2.026-2.733-3.556-6.682-4.53-11.74-1.088-5.568-1.642-12.823-1.642-21.569 0-8.753 0.554-16.056 1.649-21.714 0.976-5.154 2.506-9.143 4.53-11.87 1.874-2.52 4.154-4.244 6.965-5.27 3.241-1.177 7.328-1.775 12.142-1.775 4.807 0 8.894 0.598 12.15 1.777 2.803 1.024 5.08 2.748 6.954 5.272 2.022 2.714 3.547 6.705 4.54 11.864 1.089 5.702 1.644 13.01 1.644 21.717-1e-3 8.706-0.552 15.959-1.644 21.567m40.937-57.3c-3.333-9.98-8.106-18.178-14.191-24.364-6.168-6.26-13.71-10.8-22.423-13.503-8.335-2.586-17.738-3.9-27.967-3.9-10.23 0-19.636 1.315-27.971 3.9-8.727 2.707-16.27 7.251-22.422 13.503-6.082 6.185-10.86 14.384-14.192 24.365-3.233 9.687-4.871 21.707-4.871 35.727 0 13.82 1.583 25.734 4.72 35.412 3.236 10.004 7.975 18.22 14.08 24.418 6.15 6.251 13.69 10.794 22.419 13.503 8.335 2.583 17.828 3.897 28.238 3.897 10.4 0 19.894-1.314 28.237-3.897 8.718-2.706 16.262-7.249 22.418-13.503 6.112-6.215 10.847-14.43 14.084-24.42 3.127-9.704 4.716-21.617 4.716-35.411 0-13.997-1.635-26.016-4.875-35.727m-160.28 20.68h-46.517v-21.485h54.368a6.09 6.09 0 0 0 6.09-6.088v-27.517c0-3.362-2.73-6.09-6.09-6.09h-92.502a6.092 6.092 0 0 0-6.089 6.09v139.99a6.092 6.092 0 0 0 6.089 6.09h32.043a6.087 6.087 0 0 0 6.089-6.09v-45.407h46.517a6.088 6.088 0 0 0 6.09-6.087v-27.313a6.09 6.09 0 0 0-6.09-6.09m-126.73-49.706c-4.545-4.111-10.101-7.12-16.498-8.937-6.06-1.712-12.748-2.54-19.891-2.54h-72.888a6.099 6.099 0 0 0-6.093 6.097v139.97c0 3.361 2.73 6.09 6.093 6.09h32.302a6.092 6.092 0 0 0 6.09-6.09v-105h25.935c4.072 0 9.42 0.63 11.796 3.625 2.238 2.84 3.379 7.284 3.379 13.201v88.174a6.09 6.09 0 0 0 6.088 6.09h32.028a6.091 6.091 0 0 0 6.09-6.09v-96.12c0-8.633-1.257-16.212-3.734-22.518-2.555-6.477-6.154-11.841-10.698-15.956m-142.89-11.475h-32.025a6.089 6.089 0 0 0-6.089 6.087v139.98a6.09 6.09 0 0 0 6.089 6.09h32.025a6.088 6.088 0 0 0 6.085-6.09v-139.98a6.085 6.085 0 0 0-6.085-6.087"/>
		<path d="m84.845 72.32h-18.707v-36.022c0-2.755-0.967-3.577-3.708-3.577h-9.628c-2.753 0-3.705 0.822-3.705 3.577v52.251c0 2.746 0.952 3.57 3.705 3.57h80.986c2.751 0 3.714-0.824 3.714-3.57v-12.647c0-2.752-0.963-3.58-3.714-3.58h-31.905v-32.72c0-2.748-0.958-3.576-3.714-3.576h-9.615c-2.752 0-3.711 0.828-3.711 3.576v32.72z"/>
		<path d="m91.844 143.34 5.78 1.383c1.658 0.403 2.479 0.537 3.02 0.537 1.394 0 2.485-0.405 4.126-1.376l29.428-16.355c2.342-1.369 3.306-2.475 3.306-5.763v-15.003c0-1.92-1.237-4.244-4.672-2.07l-33.281 20.08c-4.256-6.73-10.315-14.294-23.644-14.294-17.19 0-26.81 9.625-26.81 30.807v30.66c0 2.749 0.952 3.577 3.705 3.577h80.986c2.75 0 3.714-0.828 3.714-3.577v-12.644c0-2.766-0.964-3.587-3.714-3.587h-68.348v-13.06c0-8.241 3.039-12.231 10.733-12.231 7.011 0 9.22 3.157 10.588 6.321 1.645 3.99-0.139 5.37 5.079 6.596"/>
		<path d="m123.33 249.7 10.602 1.658c2.062 0.269 2.89-0.705 3.157-2.478 0.555-3.99 1.245-14.036 1.245-23.784 0-21.871-7.158-37.825-27.492-37.825-11.975 0-20.913 5.239-25.587 23.378l-2.614 10.177c-1.781 6.857-3.985 10.037-9.062 10.037-7.154 0-8.526-6.61-8.526-12.93 0-8.525 0.684-17.18 0.956-20.615 0.28-3.584-0.139-4.533-3.16-5.095l-10.316-1.654c-2.059-0.277-2.887 0.69-3.157 2.475-0.543 3.996-1.241 12.797-1.241 23.93 0 22.698 9.898 33.678 25.572 33.678 14.158 0 22.55-7.683 25.985-21.028l2.617-10.18c2.197-8.383 4.671-11.957 9.893-11.957 7.707 0 9.079 5.228 9.079 17.88 0 5.77-0.825 15.8-1.102 19.245-0.27 3.574 0.138 4.541 3.151 5.088"/>
	</g>
</svg>
