<svg xmlns="http://www.w3.org/2000/svg" width="750" height="286.928" viewBox="0 0 198.438 75.916"><path d="M65.398.031a37.966 37.966 0 0 0-11.14 2.159 37.966 37.966 0 0 0-16.39 11.455h-27.74A10.106 10.106 0 0 0 0 23.774V50.9A10.106 10.106 0 0 0 10.129 61.03H36.86A37.966 37.966 0 0 0 80.11 73.584 37.966 37.966 0 0 0 97.124 61.03h91.185a10.106 10.106 0 0 0 10.129-10.13V23.775a10.106 10.106 0 0 0-10.13-10.129H96.09A37.966 37.966 0 0 0 65.398.031z" fill="#4c8328" stroke-width="3.125"/><path d="M141.985 23.65v1.119l1.627.406v4.664c.012.248.017.502.017.762l.034.713c.011.226.029.401.051.526a15.74 15.74 0 0 0-3.73-.458c-1.255 0-2.34.197-3.256.593a5.923 5.923 0 0 0-2.255 1.695c-.588.735-1.023 1.623-1.306 2.663-.283 1.04-.424 2.204-.424 3.493 0 2.803.577 4.883 1.73 6.24 1.153 1.345 2.905 2.018 5.256 2.018.52 0 .973-.034 1.357-.102a7.195 7.195 0 0 0 1.051-.255c.317-.113.6-.243.848-.39.26-.158.52-.322.78-.492l.356.9h6.138v-1.12l-1.746-.406v-22.57zm14.814 0c-.362 0-.7.067-1.017.203a2.622 2.622 0 0 0-.83.56 2.433 2.433 0 0 0-.56.813 2.556 2.556 0 0 0-.204 1.018c0 .361.068.7.204 1.017a2.626 2.626 0 0 0 1.39 1.39c.316.136.655.204 1.017.204.362 0 .701-.068 1.018-.203.316-.136.588-.323.814-.56.237-.237.424-.514.56-.831.135-.316.202-.656.202-1.017 0-.362-.067-.701-.203-1.018a2.433 2.433 0 0 0-.56-.814 2.43 2.43 0 0 0-.813-.559 2.556 2.556 0 0 0-1.018-.204zM15.61 24.751c-2.622 0-4.617.525-5.985 1.576-1.356 1.04-2.034 2.56-2.034 4.562 0 1.119.17 2.063.508 2.832.35.768.809 1.424 1.374 1.966a8.012 8.012 0 0 0 1.95 1.323 22.5 22.5 0 0 0 2.221.933c.769.27 1.515.53 2.238.78.724.237 1.368.514 1.933.83.577.317 1.035.695 1.374 1.136.35.441.526 1 .526 1.68 0 .587-.09 1.13-.272 1.627a3.02 3.02 0 0 1-.83 1.255c-.385.35-.888.627-1.51.83-.621.193-1.373.288-2.255.288a8.203 8.203 0 0 1-3.018-.576 7.688 7.688 0 0 1-1.221-.61 4.368 4.368 0 0 1-.899-.763l-.763-3.646H7.454v6.104c.384.148.854.294 1.407.441a21.6 21.6 0 0 0 1.798.39c.655.113 1.345.204 2.068.272.724.068 1.453.102 2.188.102 1.526 0 2.826-.17 3.9-.51 1.074-.339 1.955-.819 2.645-1.44a5.597 5.597 0 0 0 1.51-2.29c.316-.892.474-1.893.474-3 0-1.097-.176-2.03-.526-2.799a6.13 6.13 0 0 0-1.374-1.95 7.379 7.379 0 0 0-1.95-1.34 19.542 19.542 0 0 0-2.237-.949 53.151 53.151 0 0 0-2.24-.78 12.938 12.938 0 0 1-1.932-.797c-.565-.294-1.023-.644-1.373-1.05-.35-.408-.526-.916-.526-1.527 0-.475.08-.904.237-1.289.159-.384.413-.712.764-.983.35-.271.796-.48 1.339-.627.554-.159 1.215-.238 1.984-.238.904 0 1.678.119 2.323.356a7.018 7.018 0 0 1 1.712.899l.764 3.12h1.509v-5.41c-.43-.09-.893-.18-1.39-.27-.498-.09-1.018-.17-1.56-.238a25.814 25.814 0 0 0-1.68-.153 21.055 21.055 0 0 0-1.678-.067zm50.756.254v1.238l2.917.44V46.05l-2.697.457v1.238h11.836v-1.238l-3.782-.457v-7.224h3.053c1.65 0 3.012-.197 4.086-.593 1.074-.396 1.922-.922 2.543-1.577a5.235 5.235 0 0 0 1.306-2.272c.249-.86.373-1.752.373-2.68 0-.938-.146-1.814-.44-2.628-.283-.814-.792-1.52-1.526-2.12-.724-.61-1.708-1.084-2.951-1.424-1.232-.35-2.798-.525-4.697-.525zm8.274 1.865h1.34c.848 0 1.56.085 2.137.254.587.17 1.056.447 1.407.831.362.373.622.87.78 1.493.158.621.237 1.384.237 2.288 0 .87-.073 1.634-.22 2.29-.147.644-.396 1.186-.746 1.627-.35.43-.814.758-1.39.984-.566.215-1.278.322-2.137.322h-1.408zm-45.222 1.322l-1.984 3.612-2.458.661v1.103h2.085v10.496c0 .576.09 1.113.272 1.61.18.487.463.91.847 1.272.385.35.876.628 1.476.831.61.204 1.34.306 2.187.306v-.001c.35 0 .723-.028 1.119-.085.407-.056.791-.13 1.153-.22a7.254 7.254 0 0 0 1.017-.288c.305-.113.538-.226.696-.34v-1.44c-.328.067-.684.13-1.068.186a7.58 7.58 0 0 1-1.137.085c-.497 0-.899-.187-1.204-.56-.305-.373-.458-.927-.458-1.662V33.57h3.358v-1.764H31.96v-3.612zm36.67 3.103c-.6 0-1.194.136-1.781.408a9.134 9.134 0 0 0-1.645 1c-.509.396-.984.814-1.424 1.255-.43.44-.792.825-1.086 1.153l-.186-3.307h-6.698v1.12l2.069.406v12.887l-2.069.407v1.119h9.53v-1.119l-2.56-.407v-9.682a9.59 9.59 0 0 1 1.034-.543c.407-.192.825-.361 1.254-.508.43-.158.865-.283 1.306-.373.441-.09.848-.136 1.22-.136l1.001 2.137h.95v-5.817zm48.986 0c-.599 0-1.193.136-1.78.408a9.13 9.13 0 0 0-1.645 1c-.509.396-.984.814-1.425 1.255-.43.44-.791.825-1.085 1.153l-.187-3.307h-6.697v1.12l2.069.406v12.887l-2.07.407v1.119h9.53v-1.119l-2.56-.407v-9.682a9.59 9.59 0 0 1 1.034-.543c.407-.192.826-.361 1.255-.508.43-.158.865-.283 1.306-.373.44-.09.847-.136 1.22-.136l1.001 2.137h.95v-5.817zm71.034.085c-.803 0-1.554.107-2.255.322-.701.204-1.312.509-1.832.916-.52.395-.932.887-1.237 1.475-.294.588-.441 1.267-.441 2.035 0 .87.13 1.605.39 2.204.27.6.616 1.102 1.034 1.51.43.406.916.74 1.458 1 .543.248 1.086.457 1.628.627.656.204 1.215.396 1.679.577.475.18.864.373 1.17.576.305.204.526.435.661.695.147.26.22.571.22.933 0 .656-.243 1.198-.729 1.628-.475.418-1.204.627-2.187.627a4.91 4.91 0 0 1-1.086-.118 5.284 5.284 0 0 1-.983-.322 6.326 6.326 0 0 1-.83-.442 4.363 4.363 0 0 1-.628-.508l-.644-2.238h-1.12v4.34c.147.057.396.136.747.238.361.09.78.186 1.254.288.475.09.99.17 1.544.238a13.51 13.51 0 0 0 1.644.102c1.097 0 2.046-.125 2.849-.374.802-.248 1.464-.604 1.984-1.068a4.13 4.13 0 0 0 1.17-1.696c.26-.667.39-1.418.39-2.255 0-.78-.119-1.447-.356-2.001a4.226 4.226 0 0 0-.984-1.425 5.054 5.054 0 0 0-1.44-1 12.201 12.201 0 0 0-1.764-.695c-.6-.18-1.13-.356-1.594-.526a6.641 6.641 0 0 1-1.17-.56 2.398 2.398 0 0 1-.73-.694c-.158-.26-.237-.577-.237-.95 0-.577.192-1.029.577-1.357.395-.339 1-.508 1.814-.508.282 0 .576.034.881.102.306.056.594.135.866.237.282.102.536.22.762.356.226.136.413.277.56.424l.543 1.865h1.119v-4.086a59.875 59.875 0 0 0-2.323-.34 18.612 18.612 0 0 0-2.374-.152zm-15.036.034c-2.408 0-4.21.685-5.409 2.052-1.187 1.368-1.78 3.442-1.78 6.223 0 1.357.141 2.555.424 3.595.282 1.04.729 1.916 1.34 2.628.62.712 1.418 1.25 2.39 1.61.972.363 2.142.543 3.51.543.509 0 1.023-.04 1.543-.118.52-.068 1.012-.159 1.476-.272.474-.124.91-.265 1.305-.423.396-.159.723-.317.983-.475v-1.306c-.576.125-1.18.238-1.814.34-.633.101-1.283.152-1.95.152-1.006 0-1.797-.159-2.374-.475a3.13 3.13 0 0 1-1.272-1.272 5.249 5.249 0 0 1-.508-1.848c-.057-.7-.085-1.43-.085-2.187v-.272h8.36v-1.39c0-1.368-.147-2.504-.441-3.408-.283-.916-.69-1.645-1.221-2.188a4.356 4.356 0 0 0-1.933-1.17c-.758-.226-1.605-.339-2.543-.339zm-126.32.034c-.645 0-1.238.017-1.781.051-.531.034-1.04.079-1.526.135-.486.057-.966.12-1.441.188-.464.067-.956.14-1.476.22v3.849h1.12l.644-1.984c.475-.238.966-.441 1.475-.61.52-.181 1.09-.272 1.712-.272.803 0 1.397.249 1.781.746.385.486.576 1.198.576 2.137v2.323l-2.068.05c-.972.023-1.893.091-2.764.204-.859.113-1.616.35-2.272.712a3.956 3.956 0 0 0-1.543 1.51c-.384.655-.577 1.531-.577 2.627 0 .679.085 1.312.254 1.9.17.576.447 1.079.831 1.509.385.418.888.746 1.51.983.633.238 1.413.356 2.34.356.565 0 1.08-.056 1.543-.17a7.113 7.113 0 0 0 1.255-.39c.373-.157.7-.327.983-.508.294-.181.548-.345.763-.492l.373 1.221h5.867v-1.119l-1.594-.407v-10.36c0-.825-.147-1.52-.44-2.086a3.49 3.49 0 0 0-1.239-1.356c-.53-.35-1.164-.6-1.899-.746a12.301 12.301 0 0 0-2.408-.22zm49.548 0c-.644 0-1.237.017-1.78.051-.531.034-1.04.079-1.526.135-.486.057-.967.12-1.441.188-.464.067-.956.14-1.476.22v3.849h1.12l.644-1.984c.475-.238.966-.441 1.475-.61.52-.181 1.09-.272 1.712-.272.803 0 1.397.249 1.781.746.385.486.576 1.198.576 2.137v2.323l-2.068.05c-.972.023-1.893.091-2.764.204-.859.113-1.616.35-2.272.712a3.956 3.956 0 0 0-1.543 1.51c-.385.655-.577 1.531-.577 2.627 0 .679.085 1.312.254 1.9.17.576.447 1.079.831 1.509.385.418.888.746 1.51.983.633.238 1.413.356 2.34.356.565 0 1.08-.056 1.543-.17a7.112 7.112 0 0 0 1.254-.39c.374-.157.701-.327.984-.508.294-.181.548-.345.763-.492l.373 1.221h5.867v-1.119l-1.594-.407v-10.36c0-.825-.147-1.52-.441-2.086a3.49 3.49 0 0 0-1.238-1.356c-.53-.35-1.164-.6-1.899-.746a12.301 12.301 0 0 0-2.408-.22zm29.287 0c-.644 0-1.237.017-1.78.051-.531.034-1.04.079-1.526.135-.486.057-.966.12-1.441.188-.464.067-.956.14-1.476.22v3.849h1.12l.644-1.984c.474-.238.966-.441 1.475-.61.52-.181 1.09-.272 1.713-.272.802 0 1.395.249 1.78.746.384.486.576 1.198.576 2.137v2.323l-2.068.05c-.972.023-1.893.091-2.764.204-.859.113-1.616.35-2.272.712a3.956 3.956 0 0 0-1.543 1.51c-.384.655-.577 1.531-.577 2.627 0 .679.085 1.312.254 1.9.17.576.447 1.079.831 1.509.385.418.888.746 1.51.983.632.238 1.413.356 2.34.356.565 0 1.079-.056 1.542-.17a7.119 7.119 0 0 0 1.256-.39c.373-.157.7-.327.983-.508.294-.181.548-.345.763-.492l.373 1.221h5.867v-1.119l-1.594-.407v-10.36c0-.825-.147-1.52-.44-2.086a3.492 3.492 0 0 0-1.239-1.356c-.531-.35-1.164-.6-1.9-.746a12.296 12.296 0 0 0-2.407-.22zm29.144.356v1.12l1.628.406v12.887l-1.73.407v1.119h8.377v-1.119l-1.747-.407V31.805zm-11.797 1.306c.509 0 .967.028 1.374.085.407.056.842.146 1.305.27v12.006c-.43.215-.865.39-1.305.526-.43.135-.933.203-1.51.203-.395 0-.78-.107-1.152-.322-.373-.215-.707-.57-1-1.068-.283-.509-.51-1.176-.68-2.001-.169-.836-.253-1.877-.254-3.12 0-2.159.283-3.792.849-4.9.565-1.12 1.356-1.679 2.373-1.679zm29.952.017c.396 0 .706.119.932.356.227.237.39.57.492 1 .114.43.181.956.203 1.578.034.621.052 1.31.052 2.068h-3.697c0-.757.029-1.447.085-2.068.057-.622.159-1.148.305-1.578.159-.43.368-.763.628-1s.593-.356 1-.356zM45.835 39.74v5.697c-.361.158-.734.3-1.118.424-.385.113-.848.17-1.391.17s-.983-.226-1.322-.679c-.34-.452-.51-1.158-.51-2.12 0-.655.057-1.198.17-1.627.124-.43.305-.774.543-1.034.248-.271.554-.464.915-.577.362-.113.792-.18 1.29-.203zm49.55 0v5.697c-.362.158-.735.3-1.12.424-.384.113-.847.17-1.39.17-.543 0-.983-.226-1.322-.679-.34-.452-.51-1.158-.51-2.12 0-.655.057-1.198.17-1.627.124-.43.305-.774.543-1.034.248-.271.554-.464.915-.577.362-.113.792-.18 1.29-.203zm29.286 0v5.697c-.361.158-.735.3-1.119.424-.384.113-.847.17-1.39.17-.543 0-.984-.226-1.323-.679-.339-.452-.508-1.158-.508-2.12 0-.655.056-1.198.17-1.627.123-.43.304-.774.542-1.034.248-.271.554-.464.915-.577.362-.113.792-.18 1.29-.203z" style="line-height:1.25;-inkscape-font-specification:'Liberation Serif Bold'" font-weight="700" font-size="11.113" font-family="Liberation Serif" letter-spacing="-.167" word-spacing="0" fill="#fff" stroke-width=".827"/><path d="M65.523 1.954l.39 3.611-3.32 1.473 3.556.745.375 3.613 1.806-3.151 3.552.76-2.438-2.693 1.82-3.143-3.314 1.488zM49.358 7.068l.39 3.612-3.32 1.473 3.555.745.375 3.612 1.807-3.151 3.551.76-2.438-2.692 1.82-3.144-3.314 1.488zm31.823 0l.39 3.612-3.32 1.473 3.555.745.376 3.612 1.806-3.151 3.552.76-2.439-2.692 1.82-3.144-3.313 1.488zm10.2 10.793l.39 3.611-3.32 1.474 3.556.744.375 3.613 1.807-3.151 3.551.76-2.438-2.693 1.82-3.143-3.314 1.488zm-53.37 0l.39 3.612-3.32 1.473 3.555.744.375 3.613 1.807-3.151 3.551.76-2.438-2.692 1.82-3.143-3.314 1.487zm0 31.82l.39 3.612-3.32 1.472 3.555.745.375 3.613 1.807-3.152 3.551.76-2.438-2.692 1.82-3.143-3.314 1.488zm53.37 0l.39 3.612-3.32 1.472 3.556.745.375 3.613 1.807-3.152 3.551.76-2.438-2.692 1.82-3.143-3.314 1.488zM49.358 60.507l.39 3.612-3.32 1.473 3.555.744.375 3.613 1.807-3.151 3.551.76-2.438-2.693 1.82-3.142-3.314 1.487zm31.823 0l.39 3.612-3.32 1.473 3.555.744.376 3.613 1.806-3.151 3.552.76-2.439-2.693 1.82-3.142-3.313 1.487zM65.523 64.56l.39 3.611-3.32 1.473 3.556.745.375 3.613 1.806-3.151 3.552.76-2.438-2.693 1.82-3.143-3.314 1.488z" fill="#fbdb14" stroke-width=".827"/></svg>