<?xml version="1.0" encoding="UTF-8"?>
<svg width="800" height="285.33" version="1.1" xmlns="http://www.w3.org/2000/svg">
	<defs>
		<linearGradient id="linearGradient1728" x1="95.425" x2="796.47" y1="225.9" y2="225.9" gradientTransform="matrix(1 0 0 1 -.0012 -.00028034)" gradientUnits="userSpaceOnUse">
			<stop stop-color="#ffeba8" offset="0"/>
			<stop stop-color="#ffcb00" offset=".5"/>
			<stop stop-color="#f7af00" offset="1"/>
		</linearGradient>
	</defs>
	<g fill="#a43860">
		<path d="m159.03 85.86a49.869 49.869 0 0 0 5.89-22.644 95.025 95.025 0 0 0-1.178-17.146 34.555 34.555 0 0 0-3.2722-10.864 19.241 19.241 0 0 0-17.67-10.078 38.22 38.22 0 0 0-26.178 10.471 36.256 36.256 0 0 0-13.089 28.403 28.01 28.01 0 0 0 7.7224 19.372 103.4 103.4 0 0 0 19.11 16.361c7.8533 5.1047 16.23 10.471 25.131 15.576a231.15 231.15 0 0 1 25.131 17.408 63.481 63.481 0 0 1 27.094 50.654 67.015 67.015 0 0 1-10.34 36.256 98.298 98.298 0 0 1-27.748 28.796 146.73 146.73 0 0 1-87.565 26.178 115.84 115.84 0 0 1-61.256-13.089 38.481 38.481 0 0 1-20.811-33.246q0-35.471 27.879-44.764a65.445 65.445 0 0 1 19.895-2.7487 74.083 74.083 0 0 1 26.178 5.2356 84.293 84.293 0 0 0-6.2827 30.628c0 20.942 7.4607 31.282 22.382 31.282a39.267 39.267 0 0 0 26.178-10.471 30.366 30.366 0 0 0 11.911-22.644 29.843 29.843 0 0 0-7.5916-20.55 81.937 81.937 0 0 0-19.241-15.052c-7.5916-4.5811-15.707-9.0313-24.476-13.089a132.72 132.72 0 0 1-24.607-16.099 68.979 68.979 0 0 1-26.178-56.151 73.429 73.429 0 0 1 10.995-39.267 98.69 98.69 0 0 1 28.141-30.366 138.35 138.35 0 0 1 78.533-23.953 125.52 125.52 0 0 1 64.397 13.089 39.267 39.267 0 0 1 21.204 34.947 39.267 39.267 0 0 1-14.921 31.413 45.288 45.288 0 0 1-28.665 10.209 79.581 79.581 0 0 1-26.701-4.0576z"/>
		<path d="m233.38 185.47a30.366 30.366 0 0 1 9.0314-8.246 22.12 22.12 0 0 1 11.911-3.4031 17.146 17.146 0 0 1 9.6858 2.0942l20.55-2.0942-7.1989 40.183a54.057 54.057 0 0 1-11.387 28.403 28.796 28.796 0 0 1-21.728 7.7224 35.471 35.471 0 0 1-17.277-3.534 10.209 10.209 0 0 1-6.2827-9.1622 7.5916 7.5916 0 0 1 3.2722-6.6753 13.089 13.089 0 0 1 8.246-2.4869 15.052 15.052 0 0 1 7.7225 1.9633 7.8533 7.8533 0 0 1 2.8796 2.4869 7.068 7.068 0 0 0-2.356 5.4973c0 3.0104 1.4398 4.5811 4.1884 4.5811s8.246-5.4973 10.995-16.492c0.65444-3.0104 1.4398-6.0209 2.0942-9.0313a18.979 18.979 0 0 1-15.445 5.7591 17.67 17.67 0 0 1-11.649-3.534 14.66 14.66 0 0 1-4.3193-11.911 41.884 41.884 0 0 1 7.068-22.12zm13.089 22.382c0 4.712 1.178 7.1989 3.6649 7.1989a6.9371 6.9371 0 0 0 4.9738-2.7487 13.089 13.089 0 0 0 2.6178-5.4973l5.2356-26.178h-1.0471a6.2827 6.2827 0 0 0-2.356 0c-4.3193 0-7.5916 3.4031-10.078 10.34a53.534 53.534 0 0 0-2.4869 16.885z"/>
		<path d="m293.19 226.04a16.754 16.754 0 0 1-3.6649-6.9371 52.356 52.356 0 0 1-1.0471-11.387 39.267 39.267 0 0 1 2.356-13.089 36.125 36.125 0 0 1 6.8062-10.995 31.152 31.152 0 0 1 23.822-9.5549 22.644 22.644 0 0 1 9.2931 1.8324l17.801-1.8324-7.7224 40.706a13.874 13.874 0 0 0 0 3.534 5.1047 5.1047 0 0 0 1.3089 3.7958 5.3664 5.3664 0 0 0 3.534 1.7016 9.5549 9.5549 0 0 1-4.8429 5.6282 15.968 15.968 0 0 1-8.1151 2.0942 15.052 15.052 0 0 1-7.1989-1.5707 8.246 8.246 0 0 1-3.6649-4.3193 11.518 11.518 0 0 1-5.2356 4.1884 18.194 18.194 0 0 1-8.246 1.7016 26.178 26.178 0 0 1-8.6387-1.3089 13.089 13.089 0 0 1-6.5444-4.1884zm21.989-42.408a23.691 23.691 0 0 0-2.2251 5.1047 105.89 105.89 0 0 0-2.7487 11.649 74.083 74.083 0 0 0-1.7016 14.66 19.502 19.502 0 0 0 0.91623 7.7224 2.7487 2.7487 0 0 0 2.6178 1.8324 7.1989 7.1989 0 0 0 5.7591-3.1413 21.466 21.466 0 0 0 3.4031-8.9005l5.4973-30.628a7.3298 7.3298 0 0 0-4.712-1.8324 8.6387 8.6387 0 0 0-4.0576 0.78534 7.8533 7.8533 0 0 0-2.7487 2.7487z"/>
		<path d="m386.91 199.87a27.748 27.748 0 0 0 3.7958-13.089c0-3.0104-1.178-4.5811-3.2722-4.5811s-3.4031 1.4398-5.1047 4.3193a24.476 24.476 0 0 0-3.534 9.8167l-5.4973 33.246-21.597 1.9633 10.602-55.366 17.277-2.0942-1.8324 10.602a17.146 17.146 0 0 1 16.623-10.602 13.089 13.089 0 0 1 9.2931 3.1413 13.089 13.089 0 0 1 3.2722 9.5549 14.136 14.136 0 0 1-4.1884 10.471 15.838 15.838 0 0 1-11.518 4.0576 6.2827 6.2827 0 0 1-4.3193-1.4398z"/>
		<path d="m410.34 218.45a67.146 67.146 0 0 1 1.4398-9.9476l5.4973-28.141h-6.1518v-3.1413a77.748 77.748 0 0 0 24.738-13.089h4.9738l-2.4869 11.387h8.1151l-0.91622 4.712h-8.1151l-5.2356 28.141a54.188 54.188 0 0 0-1.4398 8.7696 5.4973 5.4973 0 0 0 4.4502 6.0209 9.5549 9.5549 0 0 1-4.8429 5.6282 17.67 17.67 0 0 1-8.1151 2.7487 10.733 10.733 0 0 1-8.3769-3.4031 13.089 13.089 0 0 1-3.534-9.6858z"/>
		<path d="m487.69 211.51a6.2827 6.2827 0 0 1 2.6178 5.7591 10.078 10.078 0 0 1-1.9633 6.4136 15.445 15.445 0 0 1-5.2356 4.1884 30.628 30.628 0 0 1-13.874 3.4031 32.984 32.984 0 0 1-11.387-1.5707 17.67 17.67 0 0 1-7.068-4.4502 20.811 20.811 0 0 1-5.6282-15.707 36.649 36.649 0 0 1 8.6387-25.392 31.806 31.806 0 0 1 25.131-10.34 23.036 23.036 0 0 1 14.921 4.1884 10.471 10.471 0 0 1 3.534 8.246c0 12.304-10.471 18.324-31.675 18.324a36.256 36.256 0 0 0 0 5.1047 8.246 8.246 0 0 0 2.0942 6.5444 8.6387 8.6387 0 0 0 6.8062 2.2251 18.717 18.717 0 0 0 8.1151-1.8324 11.911 11.911 0 0 0 4.9738-5.1047zm-21.335-11.387a15.576 15.576 0 0 0 11.78-4.5811 15.445 15.445 0 0 0 4.3193-11.387 6.8062 6.8062 0 0 0-0.91621-3.6649 3.1413 3.1413 0 0 0-2.7487-1.3089 6.9371 6.9371 0 0 0-3.2722 0.65443 8.1151 8.1151 0 0 0-3.0104 3.0104 42.932 42.932 0 0 0-5.6282 17.277z"/>
		<path d="m545.68 231.54q-13.089 0-13.089-9.8167a50 50 0 0 1 0.91622-7.3298l1.8324-9.5549a119.89 119.89 0 0 0 2.8796-16.623c0-4.0576-1.178-6.1518-3.534-6.1518s-7.068 5.2356-9.1622 15.576l-6.1518 31.806-20.942 2.0942 10.864-55.497 17.67-2.2251-1.7016 10.209a19.895 19.895 0 0 1 19.895-10.209 14.267 14.267 0 0 1 10.471 3.1413 13.874 13.874 0 0 1 3.0104 9.9476 114.14 114.14 0 0 1-3.2722 21.597 50.654 50.654 0 0 0-1.5707 9.2931 5.2356 5.2356 0 0 0 4.8429 5.7591 9.5549 9.5549 0 0 1-4.5811 5.6282 16.23 16.23 0 0 1-8.3769 2.356z"/>
		<path d="m213.61 141.1a77.225 77.225 0 0 1 1.7016-11.518l6.4136-32.853h-7.068v-3.6649a86.518 86.518 0 0 0 28.665-15.052h5.89l-2.8796 13.089h9.424l-1.0471 5.4973h-9.424l-6.2827 32.984a61.387 61.387 0 0 0-1.5707 10.078 6.5445 6.5445 0 0 0 5.1047 7.068 11.387 11.387 0 0 1-5.6282 6.5444 21.858 21.858 0 0 1-10.602 2.356 13.089 13.089 0 0 1-9.6858-3.7958 15.576 15.576 0 0 1-3.0104-10.733z"/>
		<path d="m284.68 146.59a15.183 15.183 0 0 1-15.707 9.0313 13.089 13.089 0 0 1-10.209-4.1884 12.173 12.173 0 0 1-3.2722-7.5916 140.71 140.71 0 0 1 4.5811-29.057l5.1047-23.56 24.738-2.356-8.1151 37.958a63.481 63.481 0 0 0-2.0942 12.173c0 4.9738 1.7016 7.3298 4.9738 7.5916zm-17.932-72.12a8.1151 8.1151 0 0 1 3.9267-7.1989 17.539 17.539 0 0 1 9.6858-2.6178 15.183 15.183 0 0 1 9.1622 2.6178 8.246 8.246 0 0 1 3.4031 7.1989 7.8533 7.8533 0 0 1-3.7958 7.1989 17.801 17.801 0 0 1-9.5549 2.4869 16.623 16.623 0 0 1-9.2931-2.4869 8.1151 8.1151 0 0 1-3.534-7.1989z"/>
		<path d="m382.98 155.62c-9.8167 0-14.66-3.7958-14.66-11.387a72.643 72.643 0 0 1 1.5707-14.66c1.4398-6.4136 2.356-10.995 2.8796-13.089a75.13 75.13 0 0 0 1.7016-11.78c0-4.0576-1.5707-6.1518-4.5811-6.1518-3.0104 0-4.0576 1.4398-6.0209 4.1884a31.937 31.937 0 0 0-4.1884 13.089l-7.5916 37.172-23.691 2.356 6.5444-32.984c0.78534-3.6649 1.4398-7.5916 2.0942-11.649 0.65444-4.0576 1.0471-6.5444 1.0471-7.1989 0-3.7958-1.4398-5.6282-4.1884-5.6282-2.7486 0-3.7958 1.4398-5.7591 4.1884a31.806 31.806 0 0 0-4.8429 13.089l-7.3298 37.827-23.953 2.356 13.089-64.397 19.895-2.356-2.4869 12.042a18.979 18.979 0 0 1 9.0313-9.2931 32.591 32.591 0 0 1 14.921-2.8796 14.267 14.267 0 0 1 8.6387 2.4869 13.089 13.089 0 0 1 4.4502 6.6753 14.267 14.267 0 0 1 7.3298-6.6753 26.178 26.178 0 0 1 11.78-2.4869 26.178 26.178 0 0 1 9.6858 1.3089 14.66 14.66 0 0 1 5.2356 3.7958 18.848 18.848 0 0 1 3.2722 12.042 126.31 126.31 0 0 1-3.2722 23.56 54.842 54.842 0 0 0-1.7016 10.602 6.6753 6.6753 0 0 0 1.5707 4.5811 7.8533 7.8533 0 0 0 4.0576 1.9633 10.864 10.864 0 0 1-5.3664 6.5444 19.241 19.241 0 0 1-9.1622 2.7487z"/>
		<path d="m494.37 155.62c-9.8167 0-14.66-3.7958-14.66-11.387a72.643 72.643 0 0 1 2.0942-14.66c1.4398-6.4136 2.356-10.995 2.8796-13.089a75.13 75.13 0 0 0 1.7016-11.78c0-4.0576-1.5707-6.1518-4.5811-6.1518-3.0104 0-4.0576 1.4398-6.0209 4.1884a29.974 29.974 0 0 0-4.1884 13.089l-7.5916 37.172-23.691 2.356 6.5444-32.984c0.78534-3.6649 1.4398-7.5916 2.0942-11.649 0.65443-4.0576 0.91621-6.5444 0.91621-7.1989 0-3.7958-1.3089-5.6282-4.0576-5.6282s-3.7958 1.4398-5.89 4.1884a34.031 34.031 0 0 0-4.712 13.089l-7.4607 37.827-23.822 2.356 13.089-64.397 19.764-2.356-2.356 12.042a19.241 19.241 0 0 1 8.9004-9.2931 33.377 33.377 0 0 1 14.921-2.8796 13.743 13.743 0 0 1 8.6387 2.4869 11.911 11.911 0 0 1 4.5811 6.6753 14.267 14.267 0 0 1 7.3298-6.6753 26.178 26.178 0 0 1 11.78-2.4869 26.178 26.178 0 0 1 9.6858 1.3089 14.66 14.66 0 0 1 5.2356 3.7958 19.633 19.633 0 0 1 3.2722 12.042 138.61 138.61 0 0 1-3.2722 23.56 54.842 54.842 0 0 0-1.7016 10.602 6.6753 6.6753 0 0 0 1.5707 4.5811 7.4607 7.4607 0 0 0 4.0576 1.9633 11.387 11.387 0 0 1-5.3664 6.5444 19.241 19.241 0 0 1-9.6858 2.7487z"/>
		<path d="m557.85 148.16a24.476 24.476 0 0 1-20.288 7.4607 19.241 19.241 0 0 1-13.089-4.5811 13.089 13.089 0 0 1-5.3664-11.126 29.45 29.45 0 0 1 0-5.3664l8.246-43.324 24.607-2.356-8.9004 46.858a35.864 35.864 0 0 0 0 4.1884q0 7.068 4.3193 7.068c3.1413 0 5.89-2.0942 8.1151-6.4136a13.089 13.089 0 0 0 1.5707-4.712l8.6387-44.633 23.953-2.356-9.0313 47.382a17.408 17.408 0 0 0 0 3.6649 8.9005 8.9005 0 0 0 1.178 4.1884 5.89 5.89 0 0 0 4.5811 2.6178 9.1622 9.1622 0 0 1-3.2722 4.8429 17.932 17.932 0 0 1-11.126 4.0576 17.016 17.016 0 0 1-9.1622-2.0942 9.1622 9.1622 0 0 1-4.9738-5.3664z"/>
		<path d="m647.38 155.62c-9.8167 0-14.79-3.7958-14.79-11.387a75.261 75.261 0 0 1 1.178-8.5078l2.0942-11.126a140.44 140.44 0 0 0 3.2722-19.372c0-4.712-1.3089-7.068-4.0576-7.068s-8.1151 6.0209-10.602 18.194l-7.1989 36.649-24.869 2.6178 13.089-64.528 20.026-2.2251-1.9633 11.78a23.036 23.036 0 0 1 23.167-11.911 16.754 16.754 0 0 1 12.042 3.534 15.576 15.576 0 0 1 3.6649 11.649 134.55 134.55 0 0 1-3.9267 25.131 62.172 62.172 0 0 0-1.8324 10.864 6.2827 6.2827 0 0 0 1.7016 4.712 7.068 7.068 0 0 0 4.0576 1.9633 11.126 11.126 0 0 1-5.4973 6.5444 19.11 19.11 0 0 1-9.5549 2.4869z"/>
		<path d="m680.75 102.48a35.34 35.34 0 0 1 10.34-9.8167 26.178 26.178 0 0 1 13.874-3.7958 21.728 21.728 0 0 1 11.387 2.356l23.822-2.356-8.246 46.596a65.445 65.445 0 0 1-13.089 33.246 33.638 33.638 0 0 1-25.392 8.7696 42.539 42.539 0 0 1-20.026-3.9267 12.042 12.042 0 0 1-7.1989-10.733 9.424 9.424 0 0 1 3.6649-7.8533 17.801 17.801 0 0 1 18.586 0 7.5916 7.5916 0 0 1 3.4031 2.8796 8.3769 8.3769 0 0 0-2.7487 6.4136c0 3.534 1.5707 5.2356 4.8429 5.2356 5.4973 0 9.6858-6.4136 13.089-19.11 0.78533-3.534 1.7016-7.068 2.356-10.471a21.728 21.728 0 0 1-17.801 6.6753 20.68 20.68 0 0 1-13.089-4.1884 16.623 16.623 0 0 1-4.9738-13.743 43.062 43.062 0 0 1 2.0942-13.089 40.837 40.837 0 0 1 5.1047-13.089zm15.838 26.178c0 5.4973 1.3089 8.246 4.1884 8.246a8.1151 8.1151 0 0 0 5.7591-3.1413 15.576 15.576 0 0 0 3.6649-6.9371l6.1518-31.282h-1.178a6.0209 6.0209 0 0 0-2.7487 0c-4.9738 0-8.9004 4.0576-11.911 12.173a62.958 62.958 0 0 0-3.4031 20.68z"/>
		<path d="m781.15 110.6a22.775 22.775 0 0 0 1.7016-8.3769c0-4.8429-1.8324-7.1989-5.7591-7.1989a7.068 7.068 0 0 0-5.4973 2.7487 8.6387 8.6387 0 0 0-2.4869 6.1518 6.4136 6.4136 0 0 0 1.8324 4.3193 61.518 61.518 0 0 0 10.078 7.068 37.172 37.172 0 0 1 9.8167 7.9842 13.089 13.089 0 0 1 2.7487 8.5078 20.157 20.157 0 0 1-2.356 9.424 21.728 21.728 0 0 1-6.6753 7.5916 37.958 37.958 0 0 1-23.691 6.8062 23.953 23.953 0 0 1-13.874-4.0576 11.256 11.256 0 0 1-6.1518-8.7696 9.1622 9.1622 0 0 1 3.534-7.5916 13.089 13.089 0 0 1 8.5078-2.7487 15.445 15.445 0 0 1 8.246 1.9633 18.586 18.586 0 0 0-1.5707 6.6753c0 5.3664 2.356 7.9842 6.8062 7.9842a6.9371 6.9371 0 0 0 4.8429-1.8324 6.4136 6.4136 0 0 0 1.9633-4.9738c0-4.0576-3.4031-8.3769-10.471-13.089a74.607 74.607 0 0 1-10.471-7.8533 13.089 13.089 0 0 1-2.7487-8.3769 20.942 20.942 0 0 1 2.356-9.424 23.691 23.691 0 0 1 6.5444-7.8533 39.267 39.267 0 0 1 23.822-6.8062 22.382 22.382 0 0 1 13.089 3.1413 9.8167 9.8167 0 0 1 4.712 8.5078 11.387 11.387 0 0 1-3.2722 8.3769 13.089 13.089 0 0 1-9.0313 3.0104 10.602 10.602 0 0 1-6.5444-1.3089z"/>
	</g>
	<path d="m752.09 167.4-30.497 78.533-6.2827-62.434a59.685 59.685 0 0 1-22.251 4.3193 57.853 57.853 0 0 1-9.6858-0.91622 75.916 75.916 0 0 1-8.246-2.0942l-2.4869-0.78533a60.863 60.863 0 0 1-24.869-17.016h-69.371l-4.712 33.9h31.806l-7.7224 54.973h-418.84l-4.0576 3.2722a147.38 147.38 0 0 1-79.45 26.178h542.01l11.911-84.947h24.738l12.173 84.947h59.424l50.785-118.85z" fill="url(#linearGradient1728)"/>
</svg>
