<svg xmlns="http://www.w3.org/2000/svg" width="1024" height="260"><defs><clipPath id="a"><path d="M234.537 12.614h126.201v38.882H234.537V12.614z"/></clipPath></defs><g clip-path="url(#a)" transform="matrix(8.5707 0 0 -8.5707 -2040.302 401.286)"><path d="M356.946 35.269c0-6.058-4.876-10.968-10.889-10.968h-96.524c-6.013 0-10.892 4.91-10.892 10.968 0 6.057 4.875 10.968 10.888 10.968h96.524c6.013 0 10.893-4.91 10.893-10.968" fill="#fff"/><path d="M346.053 45.08c5.38 0 9.745-4.392 9.745-9.811 0-5.418-4.362-9.811-9.74-9.811h-96.525c-5.38 0-9.744 4.392-9.744 9.81 0 5.42 4.36 9.812 9.74 9.812h96.524z" fill="#f47216"/><path d="M346.053 45.08c5.38 0 9.745-4.392 9.745-9.811 0-5.418-4.362-9.811-9.74-9.811h-14.032c-5.38 0-9.744 4.392-9.744 9.81 0 5.42 4.36 9.812 9.74 9.812h14.031z" fill="#1a68bb"/><path d="M248.47 36.183c-.315 0-.425.083-.401.235l.044.275c.024.152.16.235.475.235h2.504c.752 0 1.638-.11 1.848-.428l-.018 1.613h-5.554c-1.232 0-2.144-.66-2.302-1.654l-.2-1.253c-.086-.8.026-1.558 1.504-1.558h2.804c.329 0 .411-.083.37-.345l-.023-.138c-.041-.262-.15-.344-.478-.344h-2.723c-1.136 0-1.407.096-1.952.372l-.002-1.558h5.993c1.437 0 2.07.882 2.201 1.709l.206 1.296c.085.785-.028 1.543-1.505 1.543h-2.791zM262.91 31.635c-.14.33-.263.593-.12 1.489l.795 4.989H260c.139-.33.261-.592.119-1.488l-.507-3.184c-.064-.4-.222-.538-.62-.538h-1.176c-.397 0-.512.138-.448.538l.744 4.672h-3.585c.14-.33.262-.592.12-1.488l-.42-2.633c-.23-1.447.254-2.357 1.773-2.357h2.613c.479 0 .739.345.942.676h.027l-.011-.676h3.338zM264.818 38.113c.139-.33.261-.592.119-1.488l-.558-3.501c-.142-.896-.348-1.158-.592-1.489h3.94c-.139.331-.261.593-.119 1.489l.507 3.183c.064.4.223.538.62.538h1.176c.397 0 .512-.138.448-.538l-.507-3.183c-.142-.896-.348-1.158-.592-1.489h3.94c-.14.331-.262.593-.12 1.489l.42 2.633c.23 1.447-.254 2.356-1.773 2.356h-2.613c-.479 0-.739-.344-.942-.675h-.027l.011.675h-3.338zM278.591 36.183c-.314 0-.424.083-.4.235l.044.275c.024.152.16.235.475.235h2.503c.753 0 1.639-.11 1.848-.428l-.017 1.613h-5.555c-1.231 0-2.144-.66-2.302-1.654l-.2-1.253c-.085-.8.026-1.558 1.504-1.558h2.805c.328 0 .411-.083.37-.345l-.023-.138c-.042-.262-.15-.344-.479-.344h-2.722c-1.136 0-1.408.096-1.952.372l-.002-1.558h5.992c1.437 0 2.07.882 2.202 1.709l.206 1.296c.084.785-.028 1.543-1.506 1.543h-2.79zM285.022 40.457c.138-.331.261-.593.119-1.489l-.93-5.844c-.143-.896-.349-1.158-.594-1.49h3.94c-.138.332-.26.594-.118 1.49l.507 3.184c.064.4.222.537.62.537h1.176c.397 0 .511-.138.448-.537l-.507-3.184c-.142-.896-.349-1.158-.593-1.49h3.94c-.138.332-.26.594-.118 1.49l.419 2.632c.23 1.448-.254 2.357-1.773 2.357h-2.517c-.356 0-.442-.11-.881-.634h-.028l.474 2.978h-3.584z" fill="#fff"/><path d="M295.901 40.457l-.272-1.71h3.174l.273 1.71H295.9zm-1.195-7.333c-.143-.896-.348-1.158-.592-1.49h3.94c-.14.332-.261.594-.119 1.49l.795 4.99h-3.585c.139-.33.261-.593.118-1.489l-.557-3.501z" fill="#fff" fill-rule="evenodd"/><path d="M300.165 38.113c.14-.33.262-.592.12-1.488l-.558-3.501c-.143-.896-.349-1.158-.593-1.489h3.94c-.138.331-.26.593-.118 1.489l.506 3.183c.064.4.223.538.62.538h1.177c.396 0 .511-.138.448-.538l-.507-3.183c-.143-.896-.349-1.158-.593-1.489h3.94c-.139.331-.261.593-.118 1.489l.419 2.633c.23 1.447-.255 2.356-1.773 2.356h-2.613c-.479 0-.74-.344-.942-.675h-.028l.012.675h-3.339z" fill="#fff"/><path d="M318.667 34.172l.316 1.984c.215 1.351-.098 1.957-1.55 1.957h-4.911c-1.45 0-1.957-.606-2.172-1.957l-.408-2.563c-.215-1.351.098-1.958 1.55-1.958h6.43l.491 1.544c-.557-.234-.891-.276-1.508-.276H313.8c-.52 0-.695.193-.634.662l.097.607h5.404zm-5.202 1.268l.14.881c.06.372.193.524.549.524h1.327c.356 0 .44-.152.382-.524l-.141-.881h-2.257z" fill="#fff" fill-rule="evenodd"/><path d="M327.012 40.207c.092-.377.119-.727.119-1.346V32.94c0-.62-.027-.969-.12-1.346h1.346c-.092.377-.118.727-.118 1.346v7.268h-1.227z" fill="#fff"/><path d="M331.27 38.7h1.11v.915h-1.11V38.7zm1.109-.78h-1.227c.092-.378.119-.728.119-1.347v-3.634c0-.62-.027-.969-.12-1.346h1.347c-.093.377-.12.727-.12 1.346v4.98z" fill="#fff" fill-rule="evenodd"/><path d="M334.329 37.92c.198-.31.33-.567.409-.728l2.783-5.599h1.425l2.638 5.114c.158.31.37.66.752 1.05l.146.162h-1.214c-.04-.31-.172-.727-.422-1.212l-2.401-4.576-2.414 4.846a3.941 3.941 0 0 0-.291.942h-1.411z" fill="#fff"/><path d="M351.03 34.365v1.912c0 1.266-.422 1.642-1.609 1.642h-3.734c-1.187 0-1.609-.376-1.609-1.642v-3.043c0-1.264.422-1.64 1.61-1.64h5.21l.132.74c-.37-.095-.712-.122-1.32-.122h-3.956c-.462 0-.568.135-.568.7v1.453h5.844zm-5.844.62V36.6c0 .565.106.7.568.7h3.6c.462 0 .568-.135.568-.7v-1.615h-4.736z" fill="#fff" fill-rule="evenodd"/><path d="M255.096 18.859v.646c0 .168-.047.229-.2.229h-1.03c-.153 0-.2-.06-.2-.23v-.645h1.43zm-1.43-.498v-.565c0-.169.047-.229.2-.229h2.025c.1 0 .227.013.367.04l-.093-.538h-2.873c-.535 0-.788.262-.788.848v1.467c0 .585.253.848.788.848h2.178c.534 0 .788-.263.788-.848V18.36h-2.592zM258.054 17.782c0-.377.026-.565.066-.713h-1.295c.04.148.066.336.066.713v2.88c0 .377-.026.565-.066.714h1.229v-3.594zM261.28 18.859v.646c0 .168-.047.229-.2.229h-1.03c-.154 0-.2-.06-.2-.23v-.645h1.43zm-1.43-.498v-.565c0-.169.046-.229.2-.229h2.024c.1 0 .228.013.368.04l-.094-.538h-2.872c-.535 0-.788.262-.788.848v1.467c0 .585.253.848.788.848h2.177c.535 0 .789-.263.789-.848V18.36h-2.592zM264.257 19.734c-.154 0-.2-.06-.2-.23v-1.708c0-.169.046-.229.2-.229h1.57c.1 0 .227.013.367.04l-.093-.538h-2.418c-.535 0-.789.262-.789.848v1.467c0 .585.254.848.789.848h2.418l.093-.539c-.14.027-.267.04-.367.04h-1.57zM269.272 19.76h-1.129v-1.87c0-.263.08-.323.288-.323h.474c.327 0 .588.033.655.074l-.107-.572h-1.71c-.468 0-.762.276-.762.895v1.797h-.608v.47h.608v.647l1.162.154v-.8h1.13v-.471zM272.524 19.532c-.207.04-.347.067-.795.067h-.44c-.127 0-.2-.06-.2-.168v-1.649c0-.377.026-.565.066-.713h-1.296c.04.148.067.336.067.713v1.736c0 .377-.027.566-.067.714h1.116l.046-.343h.014c.033.255.18.343.54.343h.95v-.7zM275.175 17.567c.154 0 .2.06.2.229v1.709c0 .168-.046.229-.2.229h-1.029c-.153 0-.2-.06-.2-.23v-1.708c0-.169.047-.23.2-.23h1.03zm-1.603-.498c-.535 0-.788.262-.788.848v1.466c0 .586.253.849.788.849h2.177c.535 0 .79-.263.79-.849v-1.466c0-.586-.255-.848-.79-.848h-2.177zM278.166 20.232l.027-.323h.013c.08.249.167.323.361.323h1.43c.534 0 .788-.263.788-.849v-1.6c0-.378.027-.566.067-.714h-1.296c.04.148.066.336.066.713v1.723c0 .168-.046.229-.2.229h-.989c-.153 0-.2-.06-.2-.229v-1.723c0-.377.027-.565.067-.713h-1.296c.04.148.067.336.067.713v1.736c0 .377-.027.566-.067.714h1.162zM282.64 20.542h-1.122v.753h1.123v-.753zm.021-.31v-2.45c0-.376.026-.565.066-.713h-1.296c.041.148.068.337.068.713v1.736c0 .377-.027.566-.068.714h1.23zM284.657 19.734c-.154 0-.2-.06-.2-.23v-1.708c0-.169.046-.229.2-.229h1.57c.1 0 .227.013.367.04l-.093-.538h-2.418c-.535 0-.789.262-.789.848v1.467c0 .585.254.848.789.848h2.418l.093-.539c-.14.027-.267.04-.367.04h-1.57zM290.594 20.232l.026-.323h.014c.033.127.08.208.133.256.06.046.134.067.227.067h1.604c.327 0 .4-.054.48-.323h-.013c.1.249.188.323.381.323h1.33c.534 0 .788-.263.788-.849v-1.6c0-.378.027-.566.067-.714h-1.296c.04.148.067.336.067.713v1.723c0 .168-.047.229-.2.229h-.89c-.153 0-.2-.06-.2-.229v-1.723c0-.377.027-.565.067-.713h-1.296c.04.148.067.336.067.713v1.723c0 .168-.047.229-.2.229h-.89c-.153 0-.2-.06-.2-.229v-1.723c0-.377.027-.565.067-.713h-1.296c.04.148.067.336.067.713v1.736c0 .377-.027.566-.067.714h1.163zM298.795 17.069l-.027.323h-.014c-.08-.25-.166-.323-.36-.323h-1.43c-.535 0-.788.262-.788.848v1.601c0 .377-.027.566-.067.714h1.23v-2.436c0-.169.046-.229.2-.229h.988c.154 0 .2.06.2.229v1.722c0 .377-.026.566-.066.714h1.23v-2.45c0-.376.025-.565.066-.713h-1.162zM303.964 17.775c0-.47-.268-.706-.803-.706h-2.672l-.087.545c.188-.06.334-.074.762-.074h1.416c.154 0 .248.08.248.209v.174c0 .128-.094.21-.248.21h-1.476c-.48 0-.715.275-.715.86v.384c0 .586.234.855.715.855h2.772l.088-.545c-.188.06-.335.074-.762.074h-1.47c-.14 0-.207-.06-.207-.19v-.147c0-.128.066-.188.207-.188h1.43c.534 0 .802-.236.802-.707v-.754zM305.705 20.542h-1.122v.753h1.122v-.753zm.02-.31v-2.45c0-.376.027-.565.067-.713h-1.296c.04.148.066.337.066.713v1.736c0 .377-.026.566-.066.714h1.229zM307.722 19.734c-.154 0-.2-.06-.2-.23v-1.708c0-.169.046-.229.2-.229h1.57c.1 0 .227.013.367.04l-.093-.538h-2.418c-.535 0-.789.262-.789.848v1.467c0 .585.254.848.789.848h2.418l.093-.539c-.14.027-.267.04-.367.04h-1.57zM315.188 19.532c-.207.04-.348.067-.795.067h-.441c-.127 0-.2-.06-.2-.168v-1.649c0-.377.026-.565.067-.713h-1.297c.04.148.068.336.068.713v1.736c0 .377-.028.566-.068.714h1.116l.047-.343h.013c.033.255.18.343.541.343h.95v-.7zM316.81 18.765c-.154 0-.2-.06-.2-.23v-.74c0-.168.046-.228.2-.228h1.029c.153 0 .2.06.2.228v.97h-1.23zm2.391-.983c0-.376.027-.565.067-.713h-1.075l-.054.33h-.013c-.1-.256-.213-.33-.448-.33h-1.442c-.548 0-.789.229-.789 1.097s.24 1.097.789 1.097h1.636c.107 0 .167.04.167.148v.202c0 .107-.06.147-.167.147h-1.75c-.194 0-.314-.006-.561-.067l.073.539h2.779c.535 0 .788-.263.788-.848v-1.602zM322.046 17.567c.153 0 .2.06.2.229v1.709c0 .168-.047.229-.2.229h-1.03c-.153 0-.2-.06-.2-.23v-1.708c0-.169.047-.23.2-.23h1.03zm.2-.202h-.013c-.047-.169-.161-.296-.335-.296h-1.455c-.535 0-.789.262-.789.848v1.466c0 .586.254.849.789.849h1.402c.094 0 .167-.014.22-.067.06-.048.1-.129.155-.256h.026v.753c0 .377-.026.565-.067.714h1.23v-3.594c0-.377.026-.565.066-.713h-1.162l-.067.296zM325.184 20.542h-1.122v.753h1.122v-.753zm.02-.31v-2.45c0-.376.027-.565.066-.713h-1.295c.04.148.066.337.066.713v1.736c0 .377-.026.566-.066.714h1.229zM328.229 17.567c.154 0 .2.06.2.229v1.709c0 .168-.046.229-.2.229H327.2c-.153 0-.2-.06-.2-.23v-1.708c0-.169.047-.23.2-.23h1.029zm-1.603-.498c-.534 0-.788.262-.788.848v1.466c0 .586.254.849.788.849h2.178c.534 0 .788-.263.788-.849v-1.466c0-.586-.254-.848-.788-.848h-2.178z" fill="#1a68bb"/></g></svg>