<svg xmlns="http://www.w3.org/2000/svg" xmlns:xlink="http://www.w3.org/1999/xlink" version="1" width="963.614" height="155"><defs><linearGradient id="a"><stop offset="0" stop-color="#d1321e"/><stop offset="1" stop-color="#ff4a00"/></linearGradient><linearGradient xlink:href="#a" id="b" y1="77.5" x2="505.645" y2="77.5" gradientUnits="userSpaceOnUse"/></defs><g fill="url(#b)"><path d="M892.566 44.77v50.456h71.048v15.162h-126.37V44.77h55.322m-80.103 0l.07 15.443h-36.211v50.175h-51.656l.035-50.175h-36.599V44.77h124.36M615.7 74.529l-22.743-.036.035-14.597 22.214-.035c4.372 0 6.91 3.737 6.91 7.157 0 3.985-2.608 7.088-6.416 7.51m30.922 13.117l1.375-.105c10.226.246 20.098-8.85 20.098-20.557-.035-15.76-11.673-22.467-22.354-22.213H544.686l-.035 65.618h48.305V88.915l9.908-.036 25.035 21.544h50.562l-31.84-22.778M20 0h485.645v155H20c-11.08 0-20-8.92-20-20V20C0 8.92 8.92 0 20 0z"/></g><path d="M427.559 34.044l-37.431.318v86.002h25.053V90.447c2.425.133 5.852.145 8.301.142l16.085 29.775h28.166l-18.679-34.585c9.246-4.708 14.75-12.893 14.75-24.612 0-11.45-6.057-18.573-16.418-23.233-5.93-2.93-10.2-3.89-19.827-3.89zm-.26 17.858c6.25.06 11.156 1.166 11.156 9.088 0 8.122-2.526 10.881-15.084 10.715h-8.19V52.326l9.376-.389c.938-.016 1.85-.044 2.743-.035zm-120.386 68.461h67.17v-20.321l-40.411.124V87.45l33.008.008V67.107h-33.008V54.374l40.412.155V34.053h-67.17v86.31m-51.027-86.309l-36.337.319v85.99h25.96V92.73c3.145.166 6.014.132 8.11.132 23.682 0 39.833-10.815 39.833-30.553 0-11.45-6.278-19.705-17.016-24.365-6.146-2.929-10.571-3.89-20.55-3.89zm-2.804 19.025c7.773-.133 14.404 0 14.404 9.053 0 8.122-2.617 10.871-15.633 10.705h-6.345V53.468zm-88.437 67.285c22.933 0 36.88-11.816 36.88-32.986V34.054h-24.432v53.824c0 6.923-3.694 13.08-12.615 13.08-8.388 0-12.582-6.49-12.582-13.08V34.054H127.3v53.324c0 20.704 14.545 32.986 37.346 32.986m-92.79 0c29.693 0 42.457-13.297 42.025-29.474-.138-5.194-4.41-15.458-19.944-20.139L77.74 65.869c-7.293-2.198-8-6.868-8-8.369 0-2.01 2.47-5.598 11.609-5.598 6.47 0 10.377 2.125 20.109 7.141l11.465-16.497c-11.52-5.784-23.73-8.492-31.967-8.492-22.63 0-37.828 9.337-37.828 24.197 0 8.886 3.55 17.874 15.198 23.128l19.61 6.472c6.961 2.298 10.733 4.708 8.943 8.166-1.815 3.506-5.557 6.467-15.022 4.954-6.563-1.05-13.545-4.536-20.39-9.064l-11.94 16.425c10.87 7.748 20.742 12.032 32.33 12.032" fill="#fff"/></svg>