<svg xmlns="http://www.w3.org/2000/svg" xmlns:xlink="http://www.w3.org/1999/xlink" version="1" width="1157.629" height="155"><defs><linearGradient id="a"><stop offset="0" stop-color="#d1321e"/><stop offset="1" stop-color="#ff4a00"/></linearGradient><linearGradient xlink:href="#a" id="b" y1="77.5" x2="505.645" y2="77.5" gradientUnits="userSpaceOnUse"/></defs><g fill="url(#b)"><path d="M1096.959 34.016c-5.926.015-11.852.072-17.777.04-2.522-.013-2.53.005-2.53 2.516v81.248c0 .307-.01.616 0 .922.06 1.425.139 1.5 1.637 1.553.43.014.86.005 1.29.006 4.483 0 8.965.024 13.448-.006 7.43-.048 14.861.201 22.286-.227 5.91-.34 11.703-1.323 17.306-3.304 13.676-4.837 23.543-16.065 24.705-32.39.301-.472-.094-1.082.305-1.534V71.416c-.429-.573.026-1.291-.31-1.879-.054-.735-.045-1.481-.165-2.205-2.304-14.051-9.902-23.934-23.19-29.27-6.162-2.474-12.632-3.62-19.232-3.84-5.923-.196-11.85-.222-17.777-.206zm-114.912.039c-3.108 0-2.785-.095-2.785 2.8-.008 26.897-.004 53.795-.004 80.692 0 .368-.01.735.002 1.103.045 1.562.08 1.605 1.717 1.643 1.043.025 2.086.007 3.13.008 7.062 0 14.124.004 21.186-.002 2.27-.002 2.271-.013 2.283-2.195v-27.08c0-.491.023-.985.012-1.475-.015-.746.292-1.157 1.082-1.133.43.013.86-.008 1.29-.008 6.202 0 12.404-.003 18.607 0 2.334.002 2.345.006 2.345 2.282 0 9.21-.01 18.421 0 27.632 0 1.942.021 1.97 1.948 1.971 8.106.011 16.21.011 24.316.002 2.033-.002 2.035-.024 2.053-2.049V77.164h.012v-17.5c0-7.921-.001-15.844-.012-23.765 0-1.748-.067-1.831-1.713-1.834-8.29-.016-16.581-.016-24.871 0-1.682.003-1.694.058-1.729 1.824-.01.43 0 .859 0 1.289 0 8.659.011 17.318 0 25.976 0 2.048-.015 2.062-2.01 2.067-4.359.01-8.72.004-13.08.004-2.272 0-4.545.021-6.816-.014-1.295-.02-1.351-.108-1.416-1.355-.027-.49-.01-.984-.01-1.475V36.773c0-.49-.03-.982-.012-1.472.032-.848-.36-1.25-1.207-1.233-.49.01-.982-.011-1.473-.011-7.614-.001-15.23-.003-22.845-.002zm127.043 23.103c3.22-.02 6.428.093 9.564 1.088 5.344 1.696 8.504 5.422 9.809 10.766 1.18 4.838 1.269 9.75.31 14.619-1.317 6.692-5.329 10.88-12.08 12.324-3.584.767-7.213.482-10.83.518-.71.007-.98-.365-.976-1.028 0-.49-.012-.982-.012-1.472V59.71c0-.491.018-.984.012-1.475-.011-.668.294-1.038.982-1.043 1.074-.008 2.15-.028 3.223-.035zM878.174 44.768v50.457h71.048v15.162h-126.37V44.768h55.322m-80.103 0l.07 15.444h-36.212v50.175h-51.655l.035-50.175h-36.6V44.768h124.362m-196.764 29.76l-22.743-.036.035-14.597 22.214-.035c4.372 0 6.91 3.737 6.91 7.157 0 3.985-2.608 7.087-6.417 7.51m30.923 13.117l1.375-.106c10.226.247 20.098-8.85 20.098-20.556-.035-15.761-11.674-22.467-22.354-22.214H530.294l-.036 65.619h48.306V88.913l9.908-.035 25.034 21.544h50.563l-31.84-22.778M20 0h485.645v155H20c-11.08 0-20-8.92-20-20V20C0 8.92 8.92 0 20 0z"/></g><path d="M427.559 34.044l-37.431.318v86.002h25.053V90.447c2.425.133 5.852.145 8.301.142l16.085 29.775h28.166l-18.679-34.585c9.246-4.708 14.75-12.893 14.75-24.612 0-11.45-6.057-18.573-16.418-23.233-5.93-2.93-10.2-3.89-19.827-3.89zm-.26 17.858c6.25.06 11.156 1.166 11.156 9.088 0 8.122-2.526 10.881-15.084 10.715h-8.19V52.326l9.376-.389c.938-.016 1.85-.044 2.743-.035zm-120.386 68.461h67.17v-20.321l-40.411.124V87.45l33.008.008V67.107h-33.008V54.374l40.412.155V34.053h-67.17v86.31m-51.027-86.309l-36.337.319v85.99h25.96V92.73c3.145.166 6.014.132 8.11.132 23.682 0 39.833-10.815 39.833-30.553 0-11.45-6.278-19.705-17.016-24.365-6.146-2.929-10.571-3.89-20.55-3.89zm-2.804 19.025c7.773-.133 14.404 0 14.404 9.053 0 8.122-2.617 10.871-15.633 10.705h-6.345V53.468zm-88.437 67.285c22.933 0 36.88-11.816 36.88-32.986V34.054h-24.432v53.824c0 6.923-3.694 13.08-12.615 13.08-8.388 0-12.582-6.49-12.582-13.08V34.054H127.3v53.324c0 20.704 14.545 32.986 37.346 32.986m-92.79 0c29.693 0 42.457-13.297 42.025-29.474-.138-5.194-4.41-15.458-19.944-20.139L77.74 65.869c-7.293-2.198-8-6.868-8-8.369 0-2.01 2.47-5.598 11.609-5.598 6.47 0 10.377 2.125 20.109 7.141l11.465-16.497c-11.52-5.784-23.73-8.492-31.967-8.492-22.63 0-37.828 9.337-37.828 24.197 0 8.886 3.55 17.874 15.198 23.128l19.61 6.472c6.961 2.298 10.733 4.708 8.943 8.166-1.815 3.506-5.557 6.467-15.022 4.954-6.563-1.05-13.545-4.536-20.39-9.064l-11.94 16.425c10.87 7.748 20.742 12.032 32.33 12.032" fill="#fff"/></svg>