<svg xmlns="http://www.w3.org/2000/svg" width="500" height="96.874" ><path d="M5.697 59.403c4.1 0 7.436 3.337 13.51 3.337 3.034 0 5.542-.984 5.542-3.263C24.75 52.87 0 55.754 0 38.603c0-8.73 7.29-15.034 19.356-15.034 8.96 0 17.083 2.878 17.083 9.566 0 2.878-2.124 5.084-5.312 5.084-4.328 0-7.05-2.878-13.51-2.878-3.116 0-4.173 1.14-4.173 2.81 0 6.378 24.217 3.567 24.217 20.576 0 9.034-7.213 15.8-19.436 15.8C8.96 74.51.31 71.173.31 64.41c0-2.81 2.124-5.01 5.387-5.01zM50.26 24.33c3.72 0 6.303 2.582 6.303 6.303v21.634c0 5.846 3.337 9.715 8.427 9.715 4.936 0 8.198-3.796 8.198-9.642V30.635c0-3.72 2.582-6.303 6.223-6.303 3.72 0 6.303 2.582 6.303 6.303V52.58c0 13.207-8.347 21.946-20.953 21.946-12.452 0-20.724-8.73-20.724-21.946V30.635c0-3.72 2.582-6.303 6.223-6.303zm50.03.378h11.845c12.372 0 20.57 6.68 20.57 16.855 0 10.322-8.198 17.083-20.65 17.083h-5.084v8.805c0 3.72-2.582 6.303-6.223 6.303-3.72 0-6.303-2.582-6.303-6.303V30.56c0-3.425 2.427-5.85 5.846-5.85zm6.68 22.93h6.148c3.796 0 6.303-2.427 6.303-6.074 0-3.492-2.508-5.846-6.303-5.846h-6.148zm37.882-22.93h21.028c3.418 0 5.846 2.427 5.846 5.92 0 3.418-2.427 5.846-5.846 5.846h-14.347v6.378h11.313c3.418 0 5.846 2.427 5.846 5.92 0 3.418-2.427 5.846-5.846 5.846h-11.313V61.6h14.348c3.418 0 5.846 2.427 5.846 5.92 0 3.418-2.427 5.846-5.846 5.846h-21.028c-3.418 0-5.846-2.427-5.846-5.846V30.548c0-3.412 2.427-5.84 5.846-5.84zm68.248 38.26c1.214 2.05 1.746 3.957 1.746 5.616 0 3.034-2.205 5.164-5.845 5.164-3.116 0-5.084-1.443-6.9-4.78l-6.38-11.845h-5.01v10.322c0 3.72-2.582 6.303-6.223 6.303-3.72 0-6.303-2.582-6.303-6.303V30.554c0-3.418 2.427-5.846 5.846-5.846h11.845c12.372 0 20.57 6.378 20.57 16.093 0 6.074-3.116 10.854-8.347 13.6zm-22.396-16.855h6.148c3.796 0 6.303-2.124 6.303-5.312 0-3.034-2.508-5.084-6.303-5.084h-6.148z" fill="#f04132"/><path d="M274.594 62.97c1.214 2.05 1.746 3.957 1.746 5.616 0 3.034-2.205 5.164-5.846 5.164-3.116 0-5.084-1.443-6.9-4.78l-6.378-11.845h-5.01v10.322c0 3.72-2.582 6.303-6.223 6.303-3.72 0-6.303-2.582-6.303-6.303V30.554c0-3.418 2.427-5.846 5.846-5.846h11.84c12.372 0 20.576 6.378 20.576 16.093 0 6.074-3.116 10.854-8.347 13.6zm-22.396-16.855h6.148c3.796 0 6.303-2.124 6.303-5.312 0-3.034-2.508-5.084-6.303-5.084h-6.148zm55.04 21.33c0 3.72-2.582 6.303-6.223 6.303-3.72 0-6.303-2.582-6.303-6.303V36.474h-7.443c-3.418 0-5.845-2.427-5.845-5.92 0-3.418 2.427-5.846 5.845-5.846h27.486c3.418 0 5.846 2.427 5.846 5.92 0 3.418-2.427 5.846-5.846 5.846h-7.517v30.972zm24.898-43.115c3.72 0 6.303 2.582 6.303 6.303v30.972h15.486c3.418 0 5.845 2.427 5.845 5.92 0 3.418-2.427 5.846-5.845 5.846H331.76c-3.418 0-5.846-2.427-5.846-5.846v-36.9c0-3.72 2.582-6.303 6.223-6.303z" fill="#a51e3c"/><rect width="9.228" height="96.874" x="381.953" rx="4.614" fill="#f04132"/><path d="M466.592 24.334c-3.156-.18-5.994 2.623-5.83 5.784l-.008 38.035c.125 3.12 3.14 5.522 6.194 5.217 6.22-.116 12.632.567 18.597-1.618 6.45-2.155 11.56-7.685 13.26-14.262 1.583-6.098 1.697-12.716-.26-18.744-2.17-6.728-8.14-11.846-14.97-13.434-5.543-1.436-11.318-.856-16.98-.978zm9.847 10.133c3.685-.134 7.7 1.423 9.4 4.888 2.133 4.38 1.92 9.5 1.32 14.2-.493 3.78-2.553 7.765-6.395 9.005-2.224.738-4.693.908-6.974.385-.572-.8-.177-1.936-.294-2.887l.033-24.98c.57-.828 2.03-.467 2.9-.613zm-57.335-10.135c-3.178 0-5.738 2.558-5.738 5.737v37.565c0 3.178 2.56 5.737 5.738 5.737h1.05c3.178 0 5.737-2.558 5.737-5.737V53.218h13.074v14.416c0 3.178 2.558 5.737 5.737 5.737h1.05c3.178 0 5.738-2.558 5.738-5.737V30.07c0-3.178-2.56-5.737-5.738-5.737h-1.05c-3.178 0-5.737 2.558-5.737 5.737v13.07H425.89V30.07c0-3.178-2.558-5.737-5.737-5.737z" fill="#a51e3c"/></svg>