<svg xmlns="http://www.w3.org/2000/svg" width="500" height="70.797" ><path d="M7.917 49.8c5.697 0 10.335 4.638 18.777 4.638 4.217 0 7.702-1.368 7.702-4.535C34.396 40.72 0 44.73 0 20.894 0 8.76 10.13 0 26.9 0c12.452 0 23.742 4 23.742 13.295 0 4-2.952 7.065-7.383 7.065-6.015 0-9.8-4-18.777-4-4.33 0-5.8 1.583-5.8 3.907 0 8.864 33.656 4.957 33.656 28.596 0 12.555-10.025 21.944-27.012 21.944C12.452 70.797.43 66.158.43 56.76c0-3.907 2.952-6.962 7.487-6.962zM69.85 1.058c5.172 0 8.76 3.588 8.76 8.76v30.067c0 8.124 4.638 13.502 11.712 13.502 6.86 0 11.394-5.275 11.394-13.4V9.82c0-5.172 3.588-8.76 8.648-8.76 5.172 0 8.76 3.588 8.76 8.76v30.5c0 18.355-11.6 30.5-29.12 30.5-17.305 0-28.802-12.134-28.802-30.5V9.82c0-5.172 3.588-8.76 8.648-8.76zm69.532.525h16.462c17.194 0 28.587 9.285 28.587 23.424 0 14.345-11.394 23.742-28.7 23.742h-7.065v12.237c0 5.172-3.588 8.76-8.648 8.76-5.172 0-8.76-3.588-8.76-8.76V9.716c0-4.76 3.373-8.132 8.124-8.132zm9.285 31.866h8.545c5.275 0 8.76-3.373 8.76-8.442 0-4.853-3.485-8.124-8.76-8.124h-8.545zm52.648-31.866h29.224c4.75 0 8.124 3.373 8.124 8.227 0 4.75-3.373 8.124-8.124 8.124H210.6v8.864h15.722c4.75 0 8.124 3.373 8.124 8.227 0 4.75-3.373 8.124-8.124 8.124H210.6v9.707h19.94c4.75 0 8.124 3.373 8.124 8.227 0 4.75-3.373 8.124-8.124 8.124h-29.224c-4.75 0-8.124-3.373-8.124-8.124V9.698c0-4.742 3.373-8.115 8.124-8.115zm94.85 53.173c1.687 2.848 2.427 5.5 2.427 7.805 0 4.217-3.064 7.177-8.123 7.177-4.33 0-7.065-2.005-9.604-6.643L272 46.633h-6.962v14.345c0 5.172-3.588 8.76-8.648 8.76-5.172 0-8.76-3.588-8.76-8.76V9.707c0-4.75 3.373-8.124 8.124-8.124h16.462c17.194 0 28.587 8.864 28.587 22.365 0 8.442-4.33 15.085-11.6 18.9zM265.04 31.332h8.545c5.275 0 8.76-2.952 8.76-7.383 0-4.217-3.485-7.065-8.76-7.065h-8.545z" fill="#f04132"/><path d="M381.624 54.756c1.687 2.848 2.427 5.5 2.427 7.805 0 4.217-3.064 7.177-8.124 7.177-4.33 0-7.065-2.005-9.604-6.643l-8.864-16.462h-6.962v14.345c0 5.172-3.588 8.76-8.648 8.76-5.172 0-8.76-3.588-8.76-8.76V9.707c0-4.75 3.373-8.124 8.124-8.124h16.454c17.194 0 28.596 8.864 28.596 22.365 0 8.442-4.33 15.085-11.6 18.9zm-31.126-23.424h8.545c5.275 0 8.76-2.952 8.76-7.383 0-4.217-3.485-7.065-8.76-7.065h-8.545zm76.494 29.646c0 5.172-3.588 8.76-8.648 8.76-5.172 0-8.76-3.588-8.76-8.76V17.934H399.24c-4.75 0-8.123-3.373-8.123-8.227 0-4.75 3.373-8.124 8.123-8.124h38.2c4.75 0 8.124 3.373 8.124 8.227 0 4.75-3.373 8.124-8.124 8.124h-10.447v43.044zm34.602-59.92c5.172 0 8.76 3.588 8.76 8.76v43.044h21.522c4.75 0 8.123 3.373 8.123 8.227 0 4.75-3.373 8.124-8.123 8.124H461.07c-4.75 0-8.124-3.373-8.124-8.124V9.82c0-5.172 3.588-8.76 8.648-8.76z" fill="#a51e3c"/></svg>