<svg xmlns="http://www.w3.org/2000/svg" id="svg36" width="576" height="242"><defs id="defs4"><style id="style2"></style></defs><path id="polygon33" d="M95.8 240L62.1 137H34.04L.34 240h27.44l20.29-75.89L68.36 240zm12.2 0h23v-48.31L157.7 240h30.64l-35.5-53.4 33.83-49.6H158l-27 45.59V137h-23zm468-21h-31v-82h-23v103h54zm-138-22v-19h-33v-21h34v-20h-57v103h57v-21h-34v-22zm-170-39v-21h-72v21h24v82h24v-82zm71 42.95c0 15.32-5.23 20.93-18.58 20.93-14.56 0-18.42-7.58-18.42-19.57V137h-23v66.68c0 20.48 7.94 38.08 40.56 38.08 27.15 0 43.44-13.35 43.44-42.17V137h-24zM481 219v-82h-24v103h55v-21zM73.13 7l18.14 102h26.76l11.62-65.98L141.27 109h26.77L186.17 7h-23.89l-10.35 63.63L141.59 7h-23.88l-10.34 63.63L97.03 7zM33 34.1C33 28.31 37.76 24 47.69 24c6.08 0 13.77 1.54 19.54 3.21v-21A104.91 104.91 0 0 0 48.6 4.46c-25.74 0-41.36 12.76-40.92 32.07C8.45 70.64 48.76 62 48.76 79.48c0 7.31-6.26 11-15 11-7.44 0-16.14-2.21-21.9-4.34l-1.05 22.51A95.44 95.44 0 0 0 32 110.9c26.2 0 42.14-14.81 42.14-34.77C74.11 44 33 50.09 33 34.1zm207.27 30.68c13.69-3.35 22.2-14.61 22.2-28.45 0-21.8-13.62-30.5-37.86-30.5-12.36 0-23.6.15-31.6.77V109h23V69h.59l24.4 40h28.84l-21.67-32.84c-2.58-3.8-5.17-7.43-7.9-11.38zM221.8 52.3c-2.3 0-3.8-.15-5.8-.3V25.68c2-.15 4-.3 6.41-.3 11.16 0 15.89 4.87 15.89 12.93 0 8.69-6.42 13.99-16.5 13.99zM340 .9v37.15L359.92 58 340 77.94v37.16L396.54 58zm5.54 57.1L289 .9v37.15L308.92 58 289 77.94v37.16z" fill="#fff"/></svg>