<?xml version="1.0" encoding="UTF-8"?>
<svg xmlns="http://www.w3.org/2000/svg" width="800" height="173.88">
	<linearGradient id="A" x1="-8.46" x2="629.63" y1="209.361" y2="-60.739" gradientUnits="userSpaceOnUse">
		<stop stop-color="#17fefc" offset="0"/>
		<stop stop-color="#17fefc" offset=".05"/>
		<stop stop-color="#3bfffc" offset=".11"/>
		<stop stop-color="#7fd3ff" offset=".16"/>
		<stop stop-color="#93b9fe" offset=".189"/>
		<stop stop-color="#86abff" offset=".22"/>
		<stop stop-color="#9fb1ff" offset=".28"/>
		<stop stop-color="#a8a1fa" offset=".325"/>
		<stop stop-color="#b897f4" offset=".36"/>
		<stop stop-color="#ab8dee" offset=".395"/>
		<stop stop-color="#a184eb" offset=".44"/>
		<stop stop-color="#8c78e3" offset=".48"/>
		<stop stop-color="#a580e9" offset=".54"/>
		<stop stop-color="#af83ea" offset=".565"/>
		<stop stop-color="#af83ea" offset=".58"/>
		<stop stop-color="#ac85ec" offset=".595"/>
		<stop stop-color="#ae85ec" offset=".62"/>
		<stop stop-color="#c19ff8" offset=".661"/>
		<stop stop-color="#9b78e3" offset=".71"/>
		<stop stop-color="#9770df" offset=".755"/>
		<stop stop-color="#4da4fe" offset=".835"/>
	</linearGradient>
	<path d="M426.37 0v56.529l30.411 30.411-30.411 30.409v56.531l86.205-86.94zm77.499 0v56.529l30.409 30.411-30.409 30.409v56.531l86.202-86.94zm247.77 4.143l.002.031c-4.726 0-11.528.138-20.415.419-1.606.096-3.06.168-4.383.168h-3.547v95.557h3.966a159.92 159.92 0 0 1 6.088.139 218.21 218.21 0 0 0 7.511.139c2.363.096 4.505.141 6.395.141 7.562 0 14.559-1.05 20.97-3.13s12-5.152 16.726-9.216c4.726-4.16 8.412-9.278 11.041-15.438s4.009-13.351 4.009-21.591c0-15.974-4.209-27.841-12.622-35.575-8.32-7.75-20.238-11.644-35.742-11.644zm-115.26.453v95.727h12.32V55.784h49.906v44.539h12.193V4.596h-12.193v40.832h-49.906V4.596zM62.429 6.131C23.19 6.131-.6 25.628.014 55.058c1.226 51.869 62.66 38.747 62.66 65.356 0 11.159-9.564 16.679-22.807 16.679-11.404 0-24.646-3.311-33.352-6.622L4.92 164.805c9.932 2.207 21.213 3.432 32.126 3.432 39.975 0 64.255-22.562 64.255-52.972 0-48.926-62.66-39.606-62.66-64.008 0-8.829 7.234-15.328 22.316-15.328 9.319 0 20.969 2.33 29.798 4.905l.122-31.882C81.19 7.113 70.768 6.131 62.429 6.131zm267.68 2.084c-18.884 0-35.804.246-48.925 1.104v156.47h36.174v-60.943h1.348l37.278 61.189h43.775l-32.986-50.397-12.016-17.658c20.846-5.15 33.843-22.196 33.843-43.287 0-33.231-21.583-46.474-58.492-46.474zM99.829 9.441l27.712 156.47h40.834l17.656-100.43 17.658 100.43h40.834l27.712-156.47h-36.418l-15.819 96.872-15.819-96.872h-36.296l-15.819 96.872-15.819-96.872zm650.54 4.658l-.012.017c24.48 0 36.748 12.715 36.748 38.142 0 6.333-.962 11.904-2.85 16.726-1.797 4.726-4.386 8.683-7.791 11.896-3.309 3.2-7.337 5.624-12.063 7.23s-10.029 2.402-15.888 2.402c-2.08 0-4.283-.049-6.646-.141-2.363-.189-4.461-.415-6.241-.697V14.517h1.564c3.592 0 6.183-.048 7.791-.139 1.701-.192 3.499-.279 5.389-.28zm-423.07 24.036c16.922 0 24.156 7.357 24.156 19.62 0 13.243-9.81 21.337-25.138 21.337-3.433 0-7.235-.246-9.075-.491V38.626c2.085-.245 6.255-.491 10.056-.491z" fill="url(#A)"/>
</svg>
