<?xml version="1.0" encoding="UTF-8"?>
<svg width="800" height="334.67" version="1.1" xmlns="http://www.w3.org/2000/svg">
	<path d="m401.07 0v51.732l27.734 27.734-27.734 27.732v51.467l78.666-79.199-78.666-79.467zm70.934 0v51.732l27.732 27.734-27.732 27.732v51.467l78.666-79.199-78.666-79.467zm-404.8 5.0664c-36 0-57.6 17.6-57.066 44.533 1.0667 47.467 57.066 35.468 57.066 59.734 0 10.133-8.7988 15.199-20.799 15.199-10.4 0-22.4-3.1995-30.4-6.1328l-1.334 31.467c9.6 2.1333 19.467 3.1992 29.334 3.1992 36.533 0 58.666-20.532 58.666-48.266-0.26667-44.8-57.332-36.535-57.332-58.668 0-8 6.6666-14.133 20.533-14.133 8.5333 0 19.199 2.1332 27.199 4.5332v-29.066c-8.5333-1.6-17.334-2.4004-25.867-2.4004zm244.53 1.8672c-17.067 0-32.8 0.26641-44 1.0664v142.4h32v-55.734h0.80078l33.867 55.467h40l-30.133-45.6c-3.4667-5.0667-6.9336-10.132-10.934-15.732 18.933-4.5333 30.934-20.267 30.934-39.467 0-30.4-18.935-42.4-52.535-42.4zm-210.67 1.5996 25.334 141.6h37.066l16.266-91.467 16 91.467h37.334l25.066-141.6h-33.066l-14.4 88.533-14.398-88.533h-33.068l-14.398 88.533-14.4-88.533h-33.334zm207.47 25.334c15.467 0 22.133 6.6652 22.133 17.865 0 12.267-8.8003 19.734-22.934 19.734-3.2 0-5.3333-0.26654-8-0.5332v-36.533c2.6667-0.26667 5.6008-0.5332 8.8008-0.5332zm-261.6 155.2-46.934 143.2h38.133l28.268-105.33 28 105.33h38.133l-46.666-143.2h-38.934zm102.67 0v143.2h32v-67.201l37.066 67.201h42.668l-49.334-74.135 46.934-69.066h-39.734l-37.6 63.467v-63.467h-32zm122.4 0v29.334h33.334v113.87h33.332v-113.87h33.334v-29.334h-100zm198.4 0v89.066h0.26563c0 21.333-7.1986 29.066-25.865 29.066-20.267 0-25.602-10.666-25.602-27.199v-90.666h-32v92.533c0 28.533 10.934 52.799 56.268 52.799 37.6 0 60.266-18.666 60.266-58.666v-86.934h-33.332zm60 0v143.2h79.199v-29.068h-47.199v-30.666h45.867v-26.4h-45.867v-29.066h47.199v-28h-79.199zm104.27 0v143.2h76.268v-29.068h-42.934v-114.13h-33.334zm90.4 0v143.2h74.934v-29.068h-43.199v-114.13h-31.734z" fill="#00677f"/>
</svg>
