<?xml version="1.0" encoding="UTF-8"?>
<svg width="800" height="173.84" version="1.1" xmlns="http://www.w3.org/2000/svg">
	<g fill="#f04338">
		<path d="m317.16 103.96h1.3913l37.254 61.143h43.976l-33.067-50.268c-3.9567-5.7838-7.8915-11.571-12.063-17.588 20.869-5.1053 33.835-22.224 33.835-43.295 0-33.188-21.542-46.448-58.517-46.448-18.846 0-35.765 0.22394-48.992 1.1563v156.44h36.183zm0-66.22c2.0931-0.24279 6.2926-0.46563 10.001-0.46563 17.016 0 24.233 7.4054 24.233 19.674 0 13.21-9.7692 21.305-25.147 21.305-3.5088 0-7.2294-0.23503-9.0877-0.45897v-40.054"/>
		<path d="m39.833 136.32c-11.336 0-24.603-3.3625-33.393-6.6175l-1.6075 34.284c9.9514 2.3215 21.348 3.4844 32.224 3.4844 39.938 0 64.24-22.548 64.24-52.939 0-48.905-62.625-39.637-62.625-63.975 0-8.8082 7.2169-15.292 22.354-15.292 9.2559 0 20.991 2.3215 29.782 4.8636l0.073605-31.918c-9.7154-1.8514-20.137-2.7816-28.464-2.7816-39.25 0-63.067 19.432-62.403 48.831 1.194 51.926 62.632 38.715 62.632 65.372 0 11.124-9.5406 16.691-22.813 16.691"/>
		<path d="m235.73 8.6939-15.766 96.866-15.777-96.866h-36.412l-15.764 96.866-15.773-96.866h-36.43l27.647 156.49h40.821l17.7-100.44 17.723 100.44h40.813l27.655-156.49h-36.437"/>
		<path d="m426.35 0v56.559l30.367 30.367-30.367 30.372v56.543l86.201-86.917-86.201-86.924"/>
		<path d="m503.81 0v56.559l30.363 30.367-30.363 30.372v56.543l86.209-86.917-86.209-86.924"/>
		<path d="m751.64 3.395v0.031002c-4.7264 0-11.529 0.13801-20.417 0.41903-1.6061 0.096008-3.0603 0.16801-4.3834 0.16801h-3.5473v95.565h3.9663c2.0302 0.0077 4.0601 0.05406 6.0885 0.13901 2.5029 0.08944 5.0071 0.13578 7.5116 0.13901 2.3632 0.096 4.5054 0.14101 6.3956 0.14101 7.5626 0 14.56-1.0501 20.972-3.1303 6.4115-2.0802 12.001-5.1524 16.727-9.2168 4.7264-4.1603 8.4127-9.2788 11.042-15.439 2.6292-6.1605 4.0093-13.352 4.0093-21.593 0-15.975-4.2093-27.843-12.623-35.578-8.3187-7.7506-20.238-11.645-35.743-11.645zm-115.27 0.45304v95.735h12.321v-44.543h49.91v44.543h12.194v-95.735h-12.194v40.835h-49.91v-40.835zm114 9.5038-0.0118 0.017c24.482 0 36.751 12.716 36.751 38.145 0 6.3335-0.9621 11.905-2.8502 16.727-1.7972 4.7264-4.3864 8.6837-7.7917 11.897-3.3092 3.2003-7.3376 5.6245-12.064 7.2306-4.7264 1.6061-10.03 2.4022-15.889 2.4022-2.0802 0-4.2834-0.04897-6.6465-0.14101-2.3632-0.18902-4.4614-0.41504-6.2415-0.69706v-75.163h1.5641c3.5923 0 6.1835-0.048 7.7917-0.13901 1.7012-0.19202 3.4993-0.27902 5.3894-0.28002z"/>
	</g>
</svg>
