<?xml version="1.0" encoding="UTF-8"?>
<svg width="800" height="235.71" version="1.1" xmlns="http://www.w3.org/2000/svg">
	<g fill="#f04338">
		<path d="m430.03 140.96h1.8865l50.512 82.904h59.627l-44.836-68.158c-5.3649-7.8422-10.7-15.689-16.356-23.847 28.296-6.9222 45.877-30.133 45.877-58.704 0-45-29.208-62.979-79.343-62.979-25.553 0-48.494 0.30364-66.428 1.5678v212.12h49.06zm0-89.787c2.838-0.3292 8.5321-0.63134 13.56-0.63134 23.072 0 32.858 10.041 32.858 26.676 0 17.912-13.246 28.887-34.097 28.887-4.7576 0-9.8023-0.31868-12.322-0.62232v-54.309"/>
		<path d="m54.009 184.83c-15.371 0-33.359-4.5592-45.278-8.9726l-2.1796 46.485c13.493 3.1477 28.945 4.7245 43.693 4.7245 54.152 0 87.103-30.573 87.103-71.78 0-66.31-84.913-53.744-84.913-86.743 0-11.943 9.7853-20.735 30.309-20.735 12.55 0 28.461 3.1477 40.381 6.5945l0.0998-43.278c-13.173-2.5103-27.303-3.7715-38.594-3.7715-53.219 0-85.512 26.348-84.612 66.21 1.6189 70.406 84.923 52.494 84.923 88.637 0 15.083-12.936 22.631-30.932 22.631"/>
		<path d="m319.63 11.788-21.377 131.34-21.392-131.34h-49.371l-21.374 131.34-21.387-131.34h-49.395l37.487 212.18h55.349l24-136.19 24.03 136.19h55.338l37.497-212.18h-49.405"/>
		<path d="m578.08 0v76.688l41.174 41.174-41.174 41.181v76.667l116.88-117.85-116.88-117.86"/>
		<path d="m683.11 0v76.688l41.169 41.174-41.169 41.181v76.667l116.89-117.85-116.89-117.86"/>
	</g>
</svg>
