<?xml version="1.0" encoding="UTF-8"?>
<svg width="800" height="235.75" version="1.1" viewBox="0 0 800 235.75" xmlns="http://www.w3.org/2000/svg">
 <path d="m578.06 0.010277v76.64l41.23 41.23-41.23 41.227v76.643l116.87-117.87zm105.07 0v76.64l41.227 41.23-41.227 41.227v76.643l116.87-117.87zm-598.49 8.3124c-53.199 0-85.452 26.433-84.62 66.333 1.6624 70.322 84.952 52.532 84.952 88.607 0 15.129-12.967 22.613-30.921 22.613-15.461 0-33.414-4.4893-45.217-8.978l-2.1626 46.549c13.466 2.9924 28.76 4.653 43.555 4.653 54.197 0 87.115-30.589 87.115-71.818 0-66.332-84.952-53.696-84.952-86.78 0-11.97 9.8073-20.781 30.255-20.781 12.635 0 28.429 3.1587 40.399 6.6499l0.16559-43.224c-13.134-2.4937-27.263-3.825-38.569-3.825zm362.91 2.8249c-25.602 0-48.542 0.33314-66.331 1.4969v212.14h49.043v-82.624h1.8281l50.54 82.958h59.349l-44.721-68.326c-5.3199-7.8137-10.638-15.628-16.291-23.94 28.262-6.9824 45.883-30.093 45.883-58.687 0-45.053-29.261-63.008-79.301-63.008zm-312.21 1.6624 37.571 212.14h55.361l23.937-136.16 23.94 136.16h55.361l37.571-212.14h-49.374l-21.447 131.34-21.447-131.34h-49.209l-21.447 131.34-21.447-131.34zm308.4 38.903c22.942 0 32.75 9.9749 32.75 26.6 0 17.954-13.3 28.928-34.081 28.928-4.6549 0-9.8092-0.33313-12.303-0.66564v-54.197c2.8262-0.33249 8.4806-0.66564 13.634-0.66564z" fill="url(#linearGradient8646)" stroke-width="1.6624"/>
 <path d="m694.93 117.88-116.87 117.87v-76.64l41.229-41.229-41.229-41.229v-76.64zm-375.22-105.07-21.445 131.34-21.445-131.34h-49.209l-21.445 131.34-21.445-131.34h-49.376l37.572 212.14h55.36l23.94-136.16 23.94 136.16h55.36l37.572-212.14zm177.55 143.97c-5.3199-7.8137-10.64-15.628-16.292-23.94 28.262-6.9825 45.884-30.091 45.884-58.686 0-45.053-29.26-63.008-79.3-63.008-25.602 0-48.544 0.3325-66.332 1.4962v212.14h49.043v-82.624h1.8286l50.539 82.958h59.35zm-20.781-78.469c0 17.954-13.3 28.927-34.081 28.927-4.6549 0-9.8086-0.33248-12.302-0.66499v-54.197c2.8262-0.33249 8.4787-0.66499 13.632-0.66499 22.942 0 32.751 9.9749 32.751 26.6m-426.25 149.78c54.197 0 87.113-30.59 87.113-71.819 0-66.332-84.952-53.698-84.952-86.781 0-11.97 9.8085-20.781 30.257-20.781 12.635 0 28.428 3.1587 40.398 6.6499l0.16624-43.224c-13.134-2.4937-27.264-3.8237-38.569-3.8237-53.199 0-85.451 26.433-84.62 66.332 1.6624 70.322 84.952 52.535 84.952 88.61 0 15.129-12.967 22.61-30.922 22.61-15.461 0-33.416-4.4887-45.219-8.9773l-2.1612 46.549c13.466 2.9924 28.761 4.6549 43.557 4.6549m632.9-228.09v76.64l41.229 41.229-41.229 41.229v76.64l116.87-117.87z" fill="url(#radialGradient3380)" stroke-width="1.6624"/>
 <linearGradient id="linearGradient8646" x1="-6.91" x2="513.47" y1="170.74" y2="-49.534" gradientTransform="matrix(1.6624 0 0 1.6624 .018727 .010277)" gradientUnits="userSpaceOnUse">
  <stop stop-color="#17fefc" offset="0"/>
  <stop stop-color="#17fefc" offset=".05"/>
  <stop stop-color="#3bfffc" offset=".11"/>
  <stop stop-color="#7fd3ff" offset=".16"/>
  <stop stop-color="#93b9fe" offset=".189"/>
  <stop stop-color="#86abff" offset=".22"/>
  <stop stop-color="#9fb1ff" offset=".28"/>
  <stop stop-color="#a8a1fa" offset=".325"/>
  <stop stop-color="#b897f4" offset=".36"/>
  <stop stop-color="#ab8dee" offset=".395"/>
  <stop stop-color="#a184eb" offset=".44"/>
  <stop stop-color="#8c78e3" offset=".48"/>
  <stop stop-color="#a580e9" offset=".54"/>
  <stop stop-color="#af83ea" offset=".565"/>
  <stop stop-color="#af83ea" offset=".58"/>
  <stop stop-color="#ac85ec" offset=".595"/>
  <stop stop-color="#ae85ec" offset=".62"/>
  <stop stop-color="#c19ff8" offset=".661"/>
  <stop stop-color="#9b78e3" offset=".71"/>
  <stop stop-color="#9770df" offset=".755"/>
  <stop stop-color="#4da4fe" offset=".835"/>
  <stop stop-color="#4da4fe" offset="1"/>
 </linearGradient>
 <radialGradient id="radialGradient3380" cx="212.79" cy="21.919" r="95.363" fx="186.09" fy="22.436" gradientTransform="matrix(1.6624 0 0 1.6624 .018727 .010277)" gradientUnits="userSpaceOnUse">
  <stop stop-color="#8a41b4" offset="0"/>
  <stop stop-color="#8a41b4" offset=".164"/>
  <stop stop-color="#b752c3" offset=".377"/>
  <stop stop-color="#b853c4" stop-opacity="0" offset=".924"/>
 </radialGradient>
</svg>
