<?xml version="1.0" encoding="UTF-8"?>
<svg xmlns="http://www.w3.org/2000/svg" width="800" height="235.74">
	<linearGradient id="A" x1="-11.477" x2="853.603" y1="283.838" y2="-82.345" gradientUnits="userSpaceOnUse">
		<stop stop-color="#17fefc" offset="0"/>
		<stop stop-color="#17fefc" offset=".05"/>
		<stop stop-color="#3bfffc" offset=".11"/>
		<stop stop-color="#7fd3ff" offset=".16"/>
		<stop stop-color="#93b9fe" offset=".189"/>
		<stop stop-color="#86abff" offset=".22"/>
		<stop stop-color="#9fb1ff" offset=".28"/>
		<stop stop-color="#a8a1fa" offset=".325"/>
		<stop stop-color="#b897f4" offset=".36"/>
		<stop stop-color="#ab8dee" offset=".395"/>
		<stop stop-color="#a184eb" offset=".44"/>
		<stop stop-color="#8c78e3" offset=".48"/>
		<stop stop-color="#a580e9" offset=".54"/>
		<stop stop-color="#af83ea" offset=".565"/>
		<stop stop-color="#af83ea" offset=".58"/>
		<stop stop-color="#ac85ec" offset=".595"/>
		<stop stop-color="#ae85ec" offset=".62"/>
		<stop stop-color="#c19ff8" offset=".661"/>
		<stop stop-color="#9b78e3" offset=".71"/>
		<stop stop-color="#9770df" offset=".755"/>
		<stop stop-color="#4da4fe" offset=".835"/>
	</linearGradient>
	<path d="M578.06 0v76.64l41.23 41.23-41.23 41.227v76.643l116.87-117.87zm105.07 0v76.64l41.227 41.23-41.227 41.227v76.643L800 117.87zM84.64 8.312C31.441 8.312-.812 34.745.02 74.645c1.662 70.322 84.952 52.532 84.952 88.607 0 15.129-12.967 22.613-30.921 22.613-15.461 0-33.414-4.489-45.217-8.978l-2.163 46.549c13.466 2.992 28.76 4.653 43.555 4.653 54.197 0 87.115-30.589 87.115-71.818 0-66.332-84.952-53.696-84.952-86.78 0-11.97 9.807-20.781 30.255-20.781 12.635 0 28.429 3.159 40.399 6.65l.166-43.224C110.075 9.643 95.946 8.311 84.64 8.311zm362.91 2.825c-25.602 0-48.542.333-66.331 1.497v212.14h49.043V142.15h1.828l50.54 82.958h59.349l-44.721-68.326-16.291-23.94c28.262-6.982 45.883-30.093 45.883-58.687 0-45.053-29.261-63.008-79.301-63.008zM135.34 12.8l37.571 212.14h55.361l23.937-136.16 23.94 136.16h55.361L369.081 12.8h-49.374L298.26 144.14 276.813 12.8h-49.209l-21.447 131.34L184.71 12.8zm308.4 38.903c22.942 0 32.75 9.975 32.75 26.6 0 17.954-13.3 28.928-34.081 28.928-4.655 0-9.809-.333-12.303-.666V52.368c2.826-.332 8.481-.666 13.634-.666z" fill="url(#A)"/>
</svg>
