<?xml version="1.0" encoding="UTF-8"?>
<svg width="800" height="197.9" version="1.1" xmlns="http://www.w3.org/2000/svg">
	<path d="m718.4 0-57.47 22.773 8.943 40.934 37.953-15.18v105.73c-14.91 0.81328-29.278 3.5242-40.664 5.4219v37.953h132.84v-37.953c-10.031-1.3555-30.904-4.6097-40.934-5.1519v-154.52zm-718.4 4.6118v63.162l32.531 32.531-32.531 35.242v61.812l95.699-96.509zm84.039 0.81011v62.082l35.512 33.347-35.512 34.967v62.082l97.324-97.049zm189.5 5.4219c-43.375 0-69.942 21.688-69.129 54.219 1.3555 57.472 69.399 42.836 69.399 72.386 0 12.199-10.575 18.431-25.214 18.431-12.741 0-27.378-3.2531-37.138-6.7774l-2.711 37.953c11.115 2.4398 24.67 3.2563 36.598 3.2563 44.188 0 71.3-24.941 71.3-58.285 0-54.219-69.405-43.921-69.405-71.03 0-9.7594 7.866-17.076 24.674-17.076 10.302 0 21.957 2.1656 31.716 4.8765v-35.242c-10.573-1.8977-20.873-2.7109-30.09-2.7109zm266.59 1.9008c-9.2511 0.06777-17.725 0.26792-25.045 0.81011v173.5h40.664v-67.228h1.6255l41.75 67.228h48.797l-37.413-55.304c-4.3375-6.5063-8.6708-12.739-13.279-19.517 23.043-5.693 37.408-24.668 37.408-47.982 0-36.869-23.857-51.508-64.793-51.508-10.437 0-20.463-0.06777-29.715 0zm-225.11 1.3555 29.28 172.96h46.086l20.062-110.6 20.602 110.6h43.375l31.716-172.96h-40.389l-17.621 107.62-17.351-107.62h-40.394l-17.621 107.62-17.351-107.62zm252.12 31.716c18.706 0 26.839 8.4029 26.839 21.958 0 14.639-10.301 21.688-27.38 21.688-3.7953 0-8.675 0.2711-10.844 0v-43.375c2.4398-0.27109 7.3174-0.27004 11.384-0.27003z" fill="#ffcc00"/>
</svg>
