<svg xmlns="http://www.w3.org/2000/svg" width="575.441" height="191.492"><g fill-rule="evenodd"><path d="M575.437 98.363l.004 41.836-99.74.012-.004-42.07c7.958-1.373 15.907-2.801 23.947-3.64l-.003-36.415-19.513 8.023-9.393-48.933L517.2.006 556.359 0l.009 94.84c6.397.935 12.723 2.254 19.07 3.523z" fill="#fff"/><path d="M565.09 129.867v-23.024c-5.814-1.163-13.02-2.323-19.064-2.787V10.343h-26.972l-36.506 13.492 5.344 27.9 22.093-9.066v61.387c-9.07.464-17.206 1.624-23.944 2.787v23.024z" fill="#fdcc00"/><path d="M0 2.691v45.325l24.342 24.35L0 96.7v45.335l69.096-69.67zm62.086 0v45.325l24.342 24.35L62.086 96.7v45.335l69.101-69.67z" fill="#e20030"/><path d="M467.139 135.022h-35.244l-29.862-49.006h-1.123v49.006h-28.996V9.637c10.605-.745 24.165-.935 39.268-.935 29.634 0 46.916 10.626 46.916 37.221 0 16.889-10.401 30.628-27.134 34.713a2068.26 2068.26 0 0 1 9.668 14.108zm-38.783-86.68c0-9.84-5.786-15.775-19.418-15.775-2.988 0-6.347.186-8.029.368l.001 32.108c1.49.186 4.478.37 7.28.37 12.325 0 20.166-6.49 20.166-17.072zM335.648 9.65l-12.64 77.648-12.64-77.648H281.182l-12.637 77.648-12.64-77.648h-29.204l22.166 125.43h32.712l14.198-80.504 14.193 80.503h32.717L364.854 9.65zM176.395 136.918c-8.722 0-17.852-.934-25.828-2.8l1.287-27.468c7.048 2.604 17.678 5.306 26.772 5.306 10.635 0 18.282-4.463 18.282-13.38 0-21.37-49.25-10.783-50.201-52.403-.532-23.569 18.557-39.136 50.016-39.136 6.682 0 15.027.744 22.819 2.224l-.057 25.593c-7.053-2.043-16.452-3.916-23.88-3.916-12.13 0-17.916 5.202-17.916 12.265 0 19.51 50.202 12.076 50.202 51.282 0 24.363-19.477 42.433-51.496 42.433z" fill="#fff"/></g><g style="line-height:100%;-inkscape-font-specification:Arial;text-align:start" font-weight="400" font-size="64" font-family="Arial" fill="#fff" stroke="#fff" stroke-width=".735"><path d="M259.527 178.634v-31.892h14.14c2.842 0 5.003.287 6.483.86 1.479.573 2.66 1.584 3.546 3.034.884 1.45 1.327 3.053 1.327 4.808 0 2.262-.733 4.17-2.198 5.721-1.464 1.552-3.727 2.538-6.787 2.959 1.117.536 1.965 1.066 2.545 1.588 1.233 1.131 2.4 2.545 3.503 4.242l5.547 8.68h-5.308l-4.22-6.635c-1.233-1.915-2.248-3.38-3.046-4.395-.797-1.015-1.512-1.725-2.143-2.131a6.335 6.335 0 0 0-1.925-.849c-.478-.101-1.262-.152-2.35-.152h-4.894v14.162zm4.22-17.817h9.072c1.928 0 3.437-.2 4.524-.598 1.088-.399 1.915-1.037 2.48-1.914.566-.878.849-1.831.849-2.861 0-1.508-.548-2.748-1.643-3.72s-2.824-1.457-5.188-1.457h-10.094zM291.157 178.634v-31.892h3.916v11.443c1.827-2.117 4.133-3.176 6.918-3.176 1.711 0 3.198.337 4.46 1.011 1.261.675 2.164 1.607 2.708 2.796.543 1.19.815 2.915.815 5.177v14.64h-3.915v-14.64c0-1.958-.425-3.382-1.273-4.274-.848-.892-2.048-1.338-3.6-1.338-1.16 0-2.252.3-3.274.903-1.023.601-1.751 1.417-2.186 2.447-.436 1.03-.653 2.45-.653 4.264v12.639zM331.772 171.194l4.046.5c-.638 2.364-1.82 4.199-3.546 5.504-1.726 1.305-3.93 1.958-6.613 1.958-3.38 0-6.058-1.04-8.038-3.122-1.98-2.081-2.97-5-2.97-8.756 0-3.887 1.001-6.903 3.003-9.05 2.001-2.146 4.597-3.22 7.788-3.22 3.089 0 5.612 1.052 7.57 3.155 1.958 2.103 2.937 5.062 2.937 8.876 0 .232-.008.58-.022 1.044h-17.23c.146 2.538.864 4.481 2.154 5.83 1.291 1.349 2.901 2.023 4.83 2.023 1.436 0 2.661-.377 3.676-1.13 1.015-.755 1.82-1.959 2.415-3.612zm-12.857-6.33h12.9c-.174-1.944-.667-3.401-1.479-4.373-1.247-1.508-2.864-2.262-4.851-2.262-1.798 0-3.31.601-4.536 1.805-1.225 1.204-1.903 2.814-2.034 4.83zM340.778 151.245v-4.503h3.916v4.503zm0 27.389V155.53h3.916v23.103zM350.676 178.634V155.53h3.524v3.285c1.697-2.538 4.148-3.807 7.353-3.807 1.392 0 2.672.25 3.84.75 1.167.5 2.041 1.157 2.621 1.97.58.811.986 1.776 1.218 2.892.145.726.218 1.995.218 3.807v14.206h-3.916V164.58c0-1.596-.152-2.788-.457-3.579-.304-.79-.844-1.421-1.62-1.892-.776-.472-1.686-.707-2.73-.707-1.668 0-3.108.529-4.319 1.588-1.21 1.058-1.816 3.067-1.816 6.025v12.618zM375.389 178.634v-31.892h3.916v31.892zM400.471 175.784c-1.45 1.233-2.846 2.103-4.187 2.61-1.342.508-2.781.762-4.319.762-2.538 0-4.488-.62-5.851-1.86-1.364-1.24-2.045-2.824-2.045-4.753 0-1.132.257-2.165.772-3.1.515-.936 1.19-1.686 2.023-2.252a9.514 9.514 0 0 1 2.817-1.283c.769-.203 1.929-.4 3.48-.588 3.162-.377 5.49-.826 6.984-1.348.014-.537.022-.878.022-1.023 0-1.595-.37-2.72-1.11-3.372-1-.884-2.487-1.327-4.46-1.327-1.841 0-3.2.323-4.078.968-.878.646-1.527 1.788-1.947 3.427l-3.829-.523c.348-1.638.92-2.962 1.719-3.97.797-1.008 1.95-1.783 3.458-2.327 1.509-.544 3.256-.816 5.243-.816 1.973 0 3.575.232 4.808.696 1.233.464 2.139 1.048 2.72 1.751.58.704.985 1.592 1.217 2.665.13.667.196 1.871.196 3.611v5.221c0 3.64.083 5.943.25 6.907.167.965.497 1.89.99 2.774h-4.09c-.406-.812-.667-1.762-.783-2.85zm-.326-8.745c-1.421.58-3.553 1.073-6.396 1.48-1.61.231-2.748.492-3.415.782-.667.29-1.182.715-1.545 1.273a3.343 3.343 0 0 0-.544 1.86c0 1.044.396 1.914 1.186 2.61.79.696 1.947 1.045 3.47 1.045 1.508 0 2.85-.33 4.024-.99 1.175-.66 2.038-1.563 2.589-2.709.42-.884.63-2.19.63-3.915zM410.195 178.634V155.53h3.524v3.285c1.697-2.538 4.148-3.807 7.353-3.807 1.393 0 2.672.25 3.84.75 1.167.5 2.041 1.157 2.621 1.97.58.811.986 1.776 1.218 2.892.145.726.218 1.995.218 3.807v14.206h-3.916V164.58c0-1.596-.152-2.788-.457-3.579-.304-.79-.844-1.421-1.62-1.892-.776-.472-1.686-.707-2.73-.707-1.668 0-3.108.529-4.319 1.588-1.21 1.058-1.816 3.067-1.816 6.025v12.618zM449.983 178.634v-2.915c-1.464 2.291-3.618 3.437-6.46 3.437a9.06 9.06 0 0 1-5.08-1.523c-1.545-1.015-2.741-2.433-3.59-4.253-.848-1.82-1.272-3.912-1.272-6.276 0-2.306.384-4.398 1.153-6.276.768-1.878 1.921-3.317 3.459-4.318 1.537-1 3.256-1.501 5.155-1.501 1.393 0 2.633.294 3.72.88 1.088.588 1.973 1.353 2.654 2.296v-11.443h3.894v31.892zm-12.378-11.53c0 2.959.624 5.17 1.871 6.635 1.247 1.465 2.72 2.197 4.416 2.197 1.712 0 3.165-.7 4.362-2.099 1.196-1.4 1.795-3.535 1.795-6.407 0-3.161-.61-5.482-1.828-6.96-1.218-1.48-2.719-2.22-4.503-2.22-1.74 0-3.194.71-4.361 2.132-1.168 1.421-1.752 3.662-1.752 6.722zM458.272 169.062v-3.937h12.03v3.937zM475.175 178.634v-31.892h12.03c2.117 0 3.734.102 4.85.305 1.567.261 2.88.758 3.938 1.49 1.059.732 1.91 1.759 2.556 3.078.646 1.32.968 2.77.968 4.351 0 2.712-.863 5.007-2.588 6.885-1.726 1.878-4.844 2.817-9.355 2.817h-8.18v12.966zm4.22-16.73h8.245c2.726 0 4.662-.507 5.808-1.522 1.146-1.015 1.718-2.444 1.719-4.285 0-1.335-.338-2.477-1.012-3.427-.674-.95-1.563-1.577-2.665-1.881-.71-.189-2.023-.283-3.937-.283h-8.158zM505.37 178.634v-20.057h-3.46v-3.046h3.46v-2.458c0-1.552.137-2.705.412-3.46.378-1.014 1.041-1.837 1.991-2.468.95-.631 2.28-.946 3.992-.946 1.102 0 2.32.13 3.655.391l-.588 3.415a13.146 13.146 0 0 0-2.306-.217c-1.189 0-2.03.254-2.523.761-.493.508-.74 1.458-.74 2.85v2.132h4.503v3.046h-4.503v20.057zM531.866 175.784c-1.45 1.233-2.847 2.103-4.188 2.61-1.342.508-2.781.762-4.318.762-2.538 0-4.489-.62-5.852-1.86-1.363-1.24-2.045-2.824-2.045-4.753 0-1.132.257-2.165.772-3.1.515-.936 1.19-1.686 2.023-2.252a9.514 9.514 0 0 1 2.818-1.283c.768-.203 1.928-.4 3.48-.588 3.162-.377 5.49-.826 6.983-1.348.015-.537.022-.878.022-1.023 0-1.595-.37-2.72-1.11-3.372-1-.884-2.487-1.327-4.46-1.327-1.84 0-3.2.323-4.078.968-.877.646-1.526 1.788-1.947 3.427l-3.829-.523c.348-1.638.921-2.962 1.719-3.97s1.95-1.783 3.459-2.327c1.508-.544 3.256-.816 5.243-.816 1.972 0 3.574.232 4.807.696 1.233.464 2.14 1.048 2.72 1.751.58.704.986 1.592 1.218 2.665.13.667.195 1.871.195 3.611v5.221c0 3.64.084 5.943.25 6.907.167.965.497 1.89.99 2.774h-4.09c-.405-.812-.666-1.762-.782-2.85zm-.327-8.745c-1.421.58-3.553 1.073-6.395 1.48-1.61.231-2.749.492-3.416.782-.667.29-1.182.715-1.544 1.273a3.343 3.343 0 0 0-.544 1.86c0 1.044.395 1.914 1.185 2.61s1.947 1.045 3.47 1.045c1.508 0 2.85-.33 4.025-.99 1.174-.66 2.037-1.563 2.588-2.709.42-.884.631-2.19.631-3.915zM541.503 178.634v-31.892h3.915v31.892zM549.443 178.634v-3.176l14.706-16.881a85.86 85.86 0 0 1-4.417.13h-9.419v-3.176h18.882v2.589l-12.508 14.662-2.415 2.676c1.755-.13 3.401-.196 4.938-.196h10.682v3.372z" stroke-width=".51165555"/></g></svg>