<?xml version="1.0" encoding="UTF-8"?>
<svg width="800" height="201.88" version="1.1" xmlns="http://www.w3.org/2000/svg">
	<g fill="#fff">
		<path d="m0 7.956v61.69l33.128 33.13-33.128 33.129v61.689l94.042-94.818-94.042-94.82"/>
		<path d="m84.497 7.956v61.69l33.129 33.13-33.129 33.129v61.689l94.042-94.818-94.042-94.82"/>
		<path d="m238.41 190.63c-11.867 0-24.293-1.2696-35.148-3.8027l1.7468-37.39c9.5942 3.5393 24.06 7.215 36.437 7.215 14.474 0 24.885-6.0671 24.885-18.205 0-29.083-67.028-14.676-68.321-71.313-0.73298-32.077 25.25-53.265 68.066-53.265 9.0913 0 20.452 1.0098 31.056 3.0255l-0.083 34.828c-9.5929-2.7834-22.388-5.3261-32.497-5.3261-16.505 0-24.379 7.0823-24.379 16.691 0 26.551 68.322 16.437 68.322 69.795 0 33.153-26.512 57.746-70.086 57.746"/>
		<path d="m455.15 17.43-17.201 105.68-17.198-105.68h-39.728l-17.198 105.68-17.2-105.68h-39.745l30.164 170.71h44.523l19.32-109.57 19.321 109.57h44.524l30.162-170.71h-39.744"/>
		<path d="m581.32 70.168c0-13.389-7.8782-21.473-26.43-21.473-4.0661 0-8.6392 0.25414-10.926 0.50693v43.698c2.0304 0.25333 6.0979 0.50626 9.9099 0.50626 16.772 0 27.446-8.8415 27.446-23.238m52.772 117.97h-47.966l-40.64-66.696h-1.5221v66.696h-39.455v-170.64c14.413-1.0152 32.878-1.268 53.43-1.268 40.331 0 63.849 14.459 63.849 50.657 0 22.987-14.158 41.678-36.926 47.236 4.5517 6.566 8.8532 12.88 13.155 19.196l36.075 54.823"/>
		<path d="m800 201.88v-45.134h-20.127c-18.603 0-37.205 0.30509-52.148 0.91474v-0.60965l15.248-14.333c39.95-35.681 50.319-57.028 50.319-83.559 0-30.191-20.737-59.162-70.141-59.162-22.567 0-43.914 5.7943-59.467 14.028l8.2339 41.78c10.369-7.0141 24.702-12.503 40.56-12.503 18.908 0 28.666 10.369 28.666 24.397 0 13.723-7.3191 27.752-58.247 75.935l-20.737 20.127v38.12h137.84"/>
	</g>
</svg>
