<svg xmlns="http://www.w3.org/2000/svg" version="1" width="921.26" height="248.031"><g fill-rule="evenodd"><path d="M17.717 18.496V88.71l37.705 37.71-37.705 37.706v70.225L124.75 126.42zm96.174 0V88.71l37.707 37.71-37.707 37.706v70.225L220.926 126.42z" fill="#e20030"/><path d="M741.317 223.486H686.73l-46.262-75.921h-1.735v75.921h-44.905V29.26c16.405-1.157 37.419-1.442 60.81-1.442 45.906-.001 72.672 16.452 72.672 57.655 0 26.163-16.119 47.431-42.027 53.755a3460.132 3460.132 0 0 1 14.97 21.851zM681.25 89.21c0-15.238-8.975-24.443-30.082-24.443-4.63 0-9.83.291-12.435.578v49.74c2.308.286 6.94.574 11.28.574 19.092 0 31.236-10.06 31.236-26.449zM537.643 29.277l-19.582 120.278-19.577-120.278H453.27l-19.577 120.278-19.574-120.278h-45.24l34.338 194.313h50.671l21.99-124.718 21.997 124.718H548.546l34.332-194.313zM290.956 226.419c-13.506 0-27.65-1.44-40.006-4.323l1.988-42.572c10.92 4.045 27.385 8.227 41.475 8.227 16.474 0 28.32-6.905 28.32-20.732 0-33.096-76.291-16.7-77.763-81.164-.833-36.505 28.742-60.63 77.473-60.63 10.35 0 23.282 1.157 35.346 3.452l-.092 39.64c-10.917-3.168-25.48-6.065-36.988-6.065-18.778 0-27.746 8.06-27.746 19.001 0 30.216 77.766 18.703 77.766 79.43 0 37.75-30.18 65.736-79.773 65.736z" fill="#fff"/><path d="M903.543 238.587v-48.665c-29.829 0-46.753 0-77.318 1.119l.369-.753 20.984-21.356c30.557-29.565 48.966-56.523 48.966-90.97 0-36.318-22.453-68.518-75.105-68.518-25.773 0-46.75 7.864-63.698 18.715l11.052 44.561c11.416-9.355 26.504-16.1 41.23-16.1 19.517 0 29.092 11.61 29.092 30.7 0 22.09-12.15 36.31-58.906 82.735l-24.3 26.223v42.31z" fill="#0077c1"/></g></svg>