<svg xmlns="http://www.w3.org/2000/svg" version="1" width="921.26" height="283.465"><g fill-rule="evenodd"><path d="M17.717 17.596v68.842l36.953 36.961-36.953 36.962v68.843l104.878-105.805zm94.22 0v68.842l36.97 36.961-36.97 36.962v68.843l104.935-105.805zm745.037 110.5v.374c20.419 5.336 31.007 26.299 31.007 46.499 0 47.968-43.496 99.118-129.127 99.118-14.036 0-29.592-2.289-41.349-5.69l17.068-59.493c9.115 4.18 19.357 6.463 31.49 6.463 31.101 0 46.273-12.961 46.273-29.726 0-16.774-19.343-22.106-62.21-16l9.865-55.659c46.669 0 68.622-14.091 68.622-30.865 0-10.274-7.2-16.74-21.587-16.74-17.449 0-30.34 4.186-40.199 9.13l.001-57.124c16.684-5.633 40.96-9.005 62.145-9.005 46.14 0 74.57 18.377 74.57 54.365 0 25.482-17.073 51.392-46.569 64.352z" fill="#e20030"/><path d="M341.637 75.443c-7.265-2.508-19.246-4.47-27.597-4.47-17.565 0-23.705 6.422-23.705 15.36 0 20.09 49.321 20.932 49.321 66.7 0 38.788-34.548 70.849-83.861 70.849-14.483 0-28.423-1.383-38.72-3.35l8.913-48.238c8.92 3.355 23.958 5.869 34.828 5.869 15.582 0 22.846-5.581 22.846-15.634 0-20.101-49.044-19.539-49.044-66.72 0-35.953 25.925-67.964 81.087-67.964 12.542 0 23.951 1.117 34.554 2.78zM522.28 219.898h-57.86l-1.836-70.486c-.25-13.645.53-30.08 2.104-47.91h-.268c-4.174 16.432-8.885 31.194-14.653 45.961l-28.27 72.435h-54.205l-7.87-188.038h48.71l2.355 76.892c.262 11.978-.514 26.738-2.081 40.951h.25c4.186-13.652 8.106-26.753 13.614-40.12l31.945-77.723h48.171l4.187 74.664c.528 10.86.528 25.907-.774 41.5h.263c4.97-16.156 9.942-30.64 14.924-43.73l27.22-72.434h49.759zM734.1 76.322c0-29.593-20.092-45.794-64.443-45.794-22.015 0-44.577.277-62.14 1.396l-35.673 187.974h50.728l13.092-68.456h1.95l21.452 68.456h58.854l-21.218-55.104c-2.786-7.22-5.856-14.459-8.637-20.858 33.19-12.803 46.034-37.553 46.035-67.614zm-54.678 10.58c0 13.91-10.595 27.82-28.424 27.82-2.78 0-6.137-.283-8.09-.55l7.52-40.352c1.668-.27 6.406-.556 10.58-.556 12.835 0 18.413 5.296 18.414 13.637z" fill="#fff"/></g></svg>