<?xml version="1.0" encoding="UTF-8"?>
<svg width="800" height="240.32" version="1.1" xmlns="http://www.w3.org/2000/svg">
	<g transform="matrix(1 0 0 1 0 -.00085)" fill="#ed153e">
		<path d="m0 10.92v61.69l33.129 33.128-33.129 33.13v61.689l94.042-94.819-94.042-94.819"/>
		<path d="m0 10.92v61.69l33.129 33.128-33.129 33.13v61.689l94.042-94.819-94.042-94.819"/>
		<path d="m84.497 10.92v61.69l33.13 33.128-33.13 33.13v61.689l94.042-94.819-94.042-94.819"/>
		<path d="m290.12 59.97c-6.5941-2.2752-17.472-4.0581-25.054-4.0581-15.945 0-21.52 5.8304-21.52 13.945 0 18.239 44.774 19.003 44.774 60.554 0 35.215-31.361 64.321-76.132 64.321-13.148 0-25.804-1.2572-35.152-3.0414l8.0922-43.794c8.0962 3.0481 21.751 5.3286 31.62 5.3286 14.146 0 20.74-5.0654 20.74-14.194 0-18.247-44.524-17.737-44.524-60.571 0-32.64 23.535-61.702 73.612-61.702 11.388 0 21.744 1.0165 31.371 2.5253l-7.8273 40.687"/>
		<path d="m454.12 191.1h-52.529l-1.6679-63.991c-0.22737-12.39 0.48553-27.309 1.914-43.496h-0.2461c-3.7906 14.918-8.0654 28.32-13.302 41.726l-25.666 65.761h-49.208l-7.1438-170.71h44.221l2.1361 69.808c0.23941 10.873-0.46547 24.272-1.8886 37.177h0.22872c3.7986-12.394 7.3592-24.289 12.359-36.424l29.001-70.561h43.732l3.8013 67.784c0.47884 9.8577 0.47884 23.519-0.70222 37.675h0.23809c4.5116-14.666 9.0271-27.817 13.549-39.702l24.713-65.758h45.172l-68.71 170.71"/>
		<path d="m597.34 70.311c0 12.636-9.6905 25.266-25.998 25.266-2.5427 0-5.6137-0.25547-7.3993-0.50024l6.879-36.649c1.5248-0.24477 5.8598-0.50292 9.6785-0.50292 11.737 0 16.84 4.8085 16.84 12.386m50.012-9.6089c0-26.877-18.377-41.591-58.944-41.591-20.135 0-40.768 0.25146-56.835 1.268l-32.628 170.72h46.397l11.976-62.174h1.7856l19.619 62.174h53.83l-19.406-50.047c-2.5494-6.5565-5.3582-13.131-7.8982-18.944 30.357-11.627 42.105-34.106 42.105-61.408"/>
		<path d="m757.72 107.78v0.34015c18.537 4.8439 28.15 23.875 28.15 42.215 0 43.548-39.49 89.985-117.23 89.985-12.743 0-26.863-2.0784-37.538-5.1658l15.495-54.011c8.2754 3.7948 17.574 5.8665 28.589 5.8665 28.234 0 42.008-11.765 42.008-26.987 0-15.228-17.561-20.068-56.477-14.527l8.9576-50.53c42.367 0 62.295-12.792 62.295-28.02 0-9.3267-6.5352-15.199-19.596-15.199-15.841 0-27.545 3.8013-36.495 8.2901v-51.861c15.148-5.1134 37.186-8.1751 56.418-8.1751 41.893 0 67.701 16.683 67.701 49.355 0 23.134-15.499 46.658-42.279 58.423"/>
	</g>
</svg>
