<?xml version="1.0" encoding="UTF-8"?>
<svg width="800" height="240.37" version="1.1" xmlns="http://www.w3.org/2000/svg">
	<path d="m0 10.822v61.693l33.25 33.25-33.25 33.25v61.292l94.141-94.942zm0 0v61.693l33.25 33.25-33.25 33.25v61.292l94.141-94.942zm84.527 0v61.693l33.25 33.25-33.25 33.25v61.292l94.141-94.942zm205.51 49.274a89.735 89.735 0 0 0-24.837-4.006c-16.024 0-21.632 6.009-21.632 14.021 0 18.027 44.867 18.828 44.867 60.09 0 35.653-31.247 64.497-76.114 64.497a195.09 195.09 0 0 1-35.253-2.8042l8.012-44.066a106.16 106.16 0 0 0 32.048 5.6084c13.62 0 20.03-5.2078 20.03-14.422 0-18.027-44.066-17.626-44.066-60.491 0-32.849 23.235-61.693 73.711-61.693a205.91 205.91 0 0 1 31.247 2.4036zm164.25 131h-52.479l-1.6024-64.096a415.02 415.02 0 0 1 1.6024-43.265 340.51 340.51 0 0 1-13.62 41.662l-25.638 65.699h-49.274l-6.8102-170.66h44.066l2.003 69.705a295.64 295.64 0 0 1-2.003 37.256c4.006-12.018 8.012-24.036 12.819-36.054l29.244-71.307h44.066l3.2048 67.702a296.04 296.04 0 0 1-0.8012 37.656h0.4006c4.4066-14.422 9.2138-28.042 13.62-39.659l24.837-65.699h44.867zm193.09-130.2c0-26.84-18.428-41.662-58.888-41.662-20.03 0-40.861 0-56.885 1.2018l-32.449 170.66h45.669l12.018-62.093h2.003l19.629 62.093h53.681l-19.229-50.075-8.012-18.828c30.446-11.617 42.063-34.051 42.063-61.292m-50.075 9.6144a25.238 25.238 0 0 1-25.238 25.238h-0.80121a57.286 57.286 0 0 1-7.2108-0.4006l6.8102-36.855a86.129 86.129 0 0 1 9.6144-0.4006c12.018 0 16.825 4.8072 16.825 12.018m160.24 37.656v0.4006c18.828 4.8072 28.042 24.036 28.042 42.063 0 44.066-39.259 90.135-116.98 90.135a143.01 143.01 0 0 1-37.656-5.2078l15.623-54.081a67.301 67.301 0 0 0 28.042 6.009c28.443 0 42.464-12.018 42.464-26.84 0-14.822-17.626-20.03-56.485-14.822l8.8132-50.476c42.464 0 62.494-12.819 62.494-28.042 0-9.2138-6.8102-15.223-20.03-15.223a78.918 78.918 0 0 0-36.054 8.4126v-52.078a192.29 192.29 0 0 1 56.485-8.012c42.063 0 68.102 16.825 68.102 49.274 0 23.235-16.024 46.87-42.464 58.488" fill="#ff003c"/>
</svg>
