<svg xmlns="http://www.w3.org/2000/svg" width="582.865" height="199.354"><path d="M0 10.553v45.325l24.342 24.35L0 104.562v45.336l69.096-69.67zm62.086 0v45.325l24.342 24.35-24.342 24.334v45.336l69.101-69.67z" fill="#e20030" fill-rule="evenodd"/><path d="M467.139 142.884h-35.244l-29.862-49.006h-1.123v49.006h-28.996V17.499c10.605-.744 24.165-.935 39.268-.935 29.634 0 46.916 10.626 46.916 37.222 0 16.888-10.401 30.627-27.134 34.712 3.339 4.822 6.509 9.465 9.668 14.108zm-38.783-86.68c0-9.84-5.786-15.775-19.418-15.775-2.988 0-6.347.186-8.029.368l.001 32.108c1.49.186 4.478.37 7.28.37 12.325 0 20.166-6.49 20.166-17.072zm-92.708-38.692l-12.64 77.648-12.64-77.648H281.182L268.546 95.16l-12.64-77.648h-29.204l22.166 125.43h32.712l14.198-80.504 14.193 80.503h32.717l22.166-125.429zM176.395 144.781c-8.722 0-17.852-.935-25.828-2.801l1.287-27.468c7.048 2.604 17.678 5.307 26.772 5.307 10.635 0 18.282-4.464 18.282-13.38 0-21.37-49.25-10.784-50.201-52.403-.532-23.57 18.557-39.137 50.016-39.137 6.682 0 15.027.744 22.819 2.224l-.057 25.593c-7.053-2.043-16.452-3.915-23.88-3.915-12.13 0-17.916 5.2-17.916 12.264 0 19.51 50.202 12.076 50.202 51.282 0 24.363-19.477 42.434-51.496 42.434z" fill="#fff" fill-rule="evenodd"/><g style="line-height:100%;-inkscape-font-specification:Arial;text-align:start" font-weight="400" font-size="44.476" font-family="Arial" fill="#fff" stroke="#fff" stroke-width=".5"><path d="M170.977 189.744v-31.837h11.944c2.432 0 4.383.323 5.852.967 1.47.644 2.62 1.636 3.453 2.975.833 1.34 1.25 2.74 1.25 4.202 0 1.361-.37 2.642-1.108 3.844-.739 1.202-1.854 2.172-3.345 2.91 1.926.565 3.406 1.527 4.441 2.888 1.035 1.361 1.553 2.968 1.553 4.821 0 1.492-.315 2.878-.945 4.16-.63 1.28-1.408 2.268-2.334 2.963-.927.695-2.089 1.22-3.486 1.575-1.397.355-3.109.532-5.136.532zm4.213-18.46h6.884c1.868 0 3.207-.122 4.017-.368 1.072-.319 1.879-.847 2.422-1.586.543-.738.814-1.665.814-2.78 0-1.056-.253-1.986-.76-2.79-.507-.803-1.23-1.354-2.171-1.65-.942-.297-2.556-.446-4.843-.446h-6.363zm0 14.703h7.926c1.361 0 2.317-.05 2.867-.152.97-.174 1.78-.463 2.432-.869.652-.405 1.187-.995 1.607-1.77.42-.774.63-1.668.63-2.682 0-1.187-.304-2.218-.912-3.094-.608-.876-1.452-1.491-2.53-1.846-1.079-.355-2.631-.532-4.658-.532h-7.362zM215.409 186.899c-1.448 1.23-2.841 2.1-4.18 2.606-1.34.507-2.777.76-4.311.76-2.534 0-4.481-.619-5.842-1.857-1.361-1.238-2.041-2.82-2.041-4.745 0-1.129.257-2.16.77-3.094.514-.934 1.188-1.683 2.02-2.248a9.497 9.497 0 0 1 2.812-1.281c.768-.203 1.926-.398 3.475-.587 3.156-.376 5.48-.825 6.971-1.346.015-.536.022-.876.022-1.02 0-1.593-.37-2.715-1.108-3.367-.999-.883-2.483-1.325-4.452-1.325-1.838 0-3.196.323-4.072.967-.875.644-1.523 1.784-1.943 3.42l-3.822-.521c.347-1.636.92-2.957 1.715-3.963.797-1.006 1.948-1.781 3.453-2.324 1.506-.543 3.25-.814 5.234-.814 1.969 0 3.569.231 4.8.695 1.23.463 2.135 1.046 2.714 1.748.579.702.984 1.589 1.216 2.66.13.666.195 1.868.195 3.605v5.212c0 3.634.084 5.932.25 6.895.167.963.496 1.886.988 2.769h-4.082c-.406-.81-.666-1.76-.782-2.845zm-.326-8.73c-1.419.58-3.547 1.071-6.385 1.477-1.607.231-2.743.492-3.41.781-.665.29-1.179.714-1.541 1.27a3.338 3.338 0 0 0-.543 1.858c0 1.042.395 1.91 1.184 2.606.789.695 1.943 1.042 3.463 1.042 1.506 0 2.845-.33 4.018-.988 1.173-.659 2.034-1.56 2.584-2.704.42-.883.63-2.186.63-3.909zM240.079 189.744v-2.91c-1.462 2.287-3.612 3.431-6.45 3.431a9.044 9.044 0 0 1-5.07-1.52c-1.543-1.014-2.737-2.429-3.584-4.246-.847-1.817-1.27-3.905-1.27-6.265 0-2.302.383-4.39 1.15-6.265.768-1.875 1.919-3.312 3.453-4.31 1.535-1 3.25-1.5 5.147-1.5 1.39 0 2.628.294 3.714.88 1.086.587 1.969 1.35 2.65 2.291v-11.423h3.887v31.837zm-12.357-11.51c0 2.954.623 5.161 1.868 6.624 1.245 1.462 2.714 2.193 4.408 2.193 1.709 0 3.16-.699 4.354-2.096 1.195-1.397 1.792-3.529 1.792-6.395 0-3.156-.608-5.473-1.824-6.95-1.216-1.476-2.715-2.215-4.496-2.215-1.737 0-3.188.71-4.354 2.129-1.165 1.419-1.748 3.655-1.748 6.71zM265.661 182.317l4.04.5c-.638 2.36-1.818 4.19-3.54 5.494-1.723 1.303-3.924 1.954-6.602 1.954-3.374 0-6.048-1.039-8.025-3.116-1.976-2.078-2.964-4.991-2.964-8.741 0-3.88.999-6.892 2.997-9.034 1.998-2.143 4.59-3.214 7.774-3.214 3.084 0 5.603 1.05 7.558 3.149 1.954 2.099 2.932 5.052 2.932 8.86 0 .232-.007.58-.022 1.042h-17.2c.145 2.534.862 4.474 2.15 5.82 1.289 1.347 2.896 2.02 4.821 2.02 1.434 0 2.657-.376 3.67-1.13 1.014-.752 1.817-1.954 2.411-3.604zm-12.835-6.32h12.878c-.173-1.94-.666-3.395-1.476-4.365-1.245-1.505-2.86-2.258-4.843-2.258-1.795 0-3.305.6-4.528 1.802-1.223 1.202-1.9 2.809-2.03 4.821zM274.63 189.744V166.68h3.518v3.28c1.694-2.534 4.14-3.801 7.34-3.801 1.39 0 2.668.25 3.833.749 1.166.5 2.038 1.155 2.617 1.965.58.811.984 1.774 1.216 2.889.145.723.217 1.99.217 3.8v14.18h-3.909v-14.028c0-1.593-.152-2.783-.456-3.572-.304-.79-.843-1.42-1.618-1.89-.774-.47-1.683-.706-2.725-.706-1.665 0-3.102.529-4.31 1.586-1.21 1.057-1.814 3.062-1.814 6.015v12.596zM297.867 180.189v-3.931h12.009v3.93zM320.3 189.744l-8.448-31.837h4.322l4.843 20.87c.52 2.186.97 4.358 1.346 6.515.81-3.402 1.288-5.364 1.433-5.885l6.06-21.5h5.08l4.561 16.114c1.144 3.996 1.97 7.753 2.476 11.271a155.82 155.82 0 0 1 1.585-6.928l4.995-20.457h4.235l-8.73 31.837h-4.061l-6.71-24.258c-.565-2.026-.898-3.271-1-3.735a77.665 77.665 0 0 1-.933 3.735l-6.754 24.258zM371.312 189.744v-3.388c-1.795 2.606-4.235 3.91-7.318 3.91-1.361 0-2.632-.262-3.812-.783-1.18-.52-2.056-1.176-2.627-1.965-.572-.79-.974-1.755-1.206-2.9-.159-.767-.239-1.983-.239-3.648v-14.29h3.91v12.792c0 2.041.08 3.417.238 4.126.246 1.028.768 1.835 1.564 2.421.796.587 1.78.88 2.953.88 1.173 0 2.273-.3 3.301-.901s1.756-1.419 2.183-2.454c.427-1.035.64-2.537.64-4.506V166.68h3.91v23.063zm-11.944-27.58v-4.452h4.083v4.452zm8.1 0v-4.452h4.083v4.452zM380.91 189.744V166.68h3.519v3.496c.897-1.636 1.726-2.714 2.486-3.236a4.34 4.34 0 0 1 2.509-.781c1.317 0 2.656.42 4.017 1.26l-1.346 3.626c-.956-.565-1.911-.847-2.867-.847-.854 0-1.621.257-2.302.77-.68.515-1.165 1.228-1.455 2.14-.434 1.39-.651 2.91-.651 4.56v12.075zM404.343 186.248l.565 3.452c-1.1.232-2.085.348-2.954.348-1.419 0-2.519-.224-3.3-.673-.783-.45-1.333-1.04-1.651-1.77-.319-.731-.478-2.27-.478-4.615v-13.269h-2.867v-3.04h2.867v-5.712l3.887-2.345v8.057h3.931v3.04h-3.93v13.486c0 1.115.068 1.832.206 2.15.137.319.362.572.673.76.311.188.756.283 1.335.283.435 0 1.007-.051 1.716-.152zM416.678 186.248l.565 3.452c-1.1.232-2.085.348-2.954.348-1.419 0-2.519-.224-3.3-.673-.783-.45-1.333-1.04-1.651-1.77-.319-.731-.478-2.27-.478-4.615v-13.269h-2.867v-3.04h2.867v-5.712l3.887-2.345v8.057h3.931v3.04h-3.93v13.486c0 1.115.068 1.832.206 2.15.137.319.362.572.673.76.311.188.756.283 1.335.283.435 0 1.007-.051 1.716-.152zM436.266 182.317l4.04.5c-.637 2.36-1.817 4.19-3.54 5.494-1.723 1.303-3.924 1.954-6.602 1.954-3.373 0-6.048-1.039-8.024-3.116-1.977-2.078-2.965-4.991-2.965-8.741 0-3.88 1-6.892 2.997-9.034 1.998-2.143 4.59-3.214 7.775-3.214 3.084 0 5.603 1.05 7.557 3.149 1.955 2.099 2.932 5.052 2.932 8.86 0 .232-.007.58-.022 1.042h-17.2c.145 2.534.862 4.474 2.15 5.82 1.29 1.347 2.896 2.02 4.822 2.02 1.433 0 2.656-.376 3.67-1.13 1.013-.752 1.817-1.954 2.41-3.604zm-12.834-6.32h12.878c-.174-1.94-.666-3.395-1.477-4.365-1.245-1.505-2.86-2.258-4.843-2.258-1.795 0-3.304.6-4.528 1.802-1.223 1.202-1.9 2.809-2.03 4.821zM445.235 189.744V166.68h3.497v3.236a8.22 8.22 0 0 1 2.888-2.726c1.202-.687 2.57-1.031 4.104-1.031 1.709 0 3.11.354 4.203 1.064 1.093.71 1.864 1.701 2.312 2.975 1.825-2.693 4.199-4.04 7.123-4.04 2.288 0 4.047.634 5.278 1.9 1.23 1.268 1.845 3.219 1.845 5.854v15.83h-3.887v-14.528c0-1.563-.127-2.689-.38-3.376-.253-.688-.713-1.242-1.379-1.662-.666-.42-1.448-.63-2.345-.63-1.622 0-2.968.54-4.04 1.618-1.07 1.079-1.607 2.805-1.607 5.18v13.399h-3.909v-14.985c0-1.737-.318-3.04-.955-3.909-.637-.868-1.68-1.303-3.127-1.303-1.1 0-2.118.29-3.051.87-.934.578-1.611 1.425-2.031 2.54-.42 1.115-.63 2.722-.63 4.821v11.966zM485.932 189.744h-3.627v-31.837h3.91v11.358c1.65-2.07 3.756-3.105 6.319-3.105a9.68 9.68 0 0 1 4.028.857c1.267.572 2.31 1.376 3.128 2.411.818 1.035 1.458 2.284 1.921 3.746.464 1.462.695 3.026.695 4.69 0 3.953-.977 7.008-2.931 9.165-1.955 2.157-4.3 3.236-7.036 3.236-2.722 0-4.858-1.136-6.407-3.41zm-.043-11.705c0 2.765.376 4.763 1.129 5.993 1.23 2.013 2.896 3.019 4.995 3.019 1.708 0 3.185-.742 4.43-2.226 1.245-1.484 1.868-3.695 1.868-6.634 0-3.012-.598-5.234-1.792-6.667-1.194-1.434-2.639-2.15-4.332-2.15-1.709 0-3.186.742-4.43 2.226-1.246 1.484-1.868 3.63-1.868 6.439zM522.872 182.317l4.04.5c-.638 2.36-1.818 4.19-3.54 5.494-1.723 1.303-3.924 1.954-6.602 1.954-3.374 0-6.048-1.039-8.025-3.116-1.976-2.078-2.964-4.991-2.964-8.741 0-3.88.999-6.892 2.997-9.034 1.998-2.143 4.59-3.214 7.774-3.214 3.084 0 5.603 1.05 7.558 3.149 1.954 2.099 2.932 5.052 2.932 8.86 0 .232-.007.58-.022 1.042h-17.2c.145 2.534.862 4.474 2.15 5.82 1.289 1.347 2.896 2.02 4.821 2.02 1.434 0 2.657-.376 3.67-1.13 1.014-.752 1.817-1.954 2.411-3.604zm-12.834-6.32h12.877c-.173-1.94-.666-3.395-1.476-4.365-1.245-1.505-2.86-2.258-4.843-2.258-1.795 0-3.305.6-4.528 1.802-1.223 1.202-1.9 2.809-2.03 4.821zM531.798 189.744V166.68h3.518v3.496c.897-1.636 1.726-2.714 2.486-3.236a4.34 4.34 0 0 1 2.508-.781c1.318 0 2.657.42 4.018 1.26l-1.346 3.626c-.956-.565-1.912-.847-2.867-.847-.854 0-1.622.257-2.302.77-.68.515-1.165 1.228-1.455 2.14-.434 1.39-.651 2.91-.651 4.56v12.075zM545.978 191.655l3.8.565c.16 1.172.602 2.026 1.326 2.562.97.724 2.294 1.086 3.974 1.086 1.81 0 3.206-.362 4.191-1.086.984-.724 1.65-1.737 1.998-3.04.203-.796.297-2.469.282-5.017-1.708 2.013-3.836 3.019-6.384 3.019-3.171 0-5.625-1.144-7.362-3.431-1.738-2.288-2.606-5.031-2.606-8.23 0-2.202.398-4.232 1.194-6.092.796-1.86 1.95-3.298 3.464-4.311 1.513-1.014 3.29-1.52 5.331-1.52 2.722 0 4.966 1.1 6.732 3.3v-2.78h3.605v19.937c0 3.59-.365 6.135-1.096 7.633-.731 1.499-1.89 2.682-3.475 3.55-1.585.87-3.536 1.304-5.853 1.304-2.75 0-4.973-.62-6.667-1.857-1.693-1.238-2.511-3.102-2.454-5.592zm3.236-13.855c0 3.026.601 5.233 1.803 6.623 1.201 1.39 2.707 2.085 4.517 2.085 1.795 0 3.3-.691 4.517-2.074 1.216-1.382 1.824-3.55 1.824-6.504 0-2.823-.626-4.951-1.879-6.385-1.252-1.433-2.761-2.15-4.527-2.15-1.738 0-3.214.706-4.43 2.118-1.217 1.411-1.825 3.507-1.825 6.287z"/></g><g fill-rule="evenodd"><path d="M527.73 45.913c0 11.47-.077 32.517-.077 37.163-4.2.007-17.274.04-22.298.128 4.07-6.794 15.978-26.61 22.375-37.29zm-31.814 42.59L528.802 33.7h4.36v54.757zm22.7-83.162c-1.473 2.495-48.054 81.357-48.92 82.819.165 1.5 2.317 21.307 2.734 25.138h60.078v29.684h27.697v-29.684h17.374V88.457h-17.374V5.34h-41.59zM515.472 0l-51.057 86.778 3.03 31.775h59.664v29.52h38.455v-29.365h17.3l.001-35.504h-17.379V.079z" fill="#fff"/><path d="M495.915 88.503L528.8 33.7h4.361v54.757zm22.7-83.162c-1.473 2.495-48.054 81.357-48.92 82.819.165 1.5 2.317 21.307 2.734 25.138h60.078v29.684h27.697v-29.684h17.374V88.457h-17.374V5.34h-41.589z" fill="#b1c903"/></g></svg>