<?xml version="1.0" encoding="UTF-8"?>
<svg width="800" height="198.22" version="1.1" xmlns="http://www.w3.org/2000/svg">
	<g fill="#73c82c">
		<path d="m581.32 66.514c0-13.388-7.8768-21.472-26.43-21.472-4.0661 0-8.6379 0.25414-10.925 0.50693v43.698c2.0304 0.2528 6.0979 0.50573 9.9099 0.50573 16.773 0 27.445-8.8409 27.445-23.239m52.772 117.97h-47.963l-40.641-66.696h-1.5221v66.696h-39.455v-170.64c14.415-1.0152 32.878-1.2693 53.431-1.2693 40.33 0 63.848 14.459 63.848 50.658 0 22.986-14.158 41.678-36.926 47.236 4.553 6.566 8.8546 12.88 13.155 19.197l36.074 54.823"/>
		<path d="m238.41 186.98c-11.867 0-24.293-1.268-35.148-3.8036l1.7468-37.39c9.5942 3.5418 24.06 7.2176 36.438 7.2176 14.474 0 24.885-6.0686 24.885-18.208 0-29.081-67.029-14.675-68.321-71.313-0.73298-32.074 25.25-53.264 68.067-53.264 9.0913 0 20.452 1.0098 31.057 3.0269l-0.083 34.827c-9.5929-2.7821-22.388-5.3261-32.497-5.3261-16.505 0-24.38 7.081-24.38 16.691 0 26.551 68.322 16.436 68.322 69.796 0 33.151-26.512 57.746-70.086 57.746"/>
		<path d="m455.15 13.775-17.2 105.68-17.198-105.68h-39.728l-17.198 105.68-17.2-105.68h-39.745l30.164 170.71h44.523l19.32-109.57 19.321 109.57h44.523l30.163-170.71h-39.745"/>
		<path d="m0 4.3022v61.691l33.129 33.129-33.129 33.13v61.689l94.042-94.819-94.042-94.82"/>
		<path d="m0 4.3022v61.691l33.129 33.129-33.129 33.13v61.689l94.042-94.819-94.042-94.82"/>
		<path d="m84.497 4.3022v61.691l33.13 33.129-33.13 33.13v61.689l94.042-94.819-94.042-94.82"/>
		<path d="m800 157.06v-41.78h-24.092v-115.28h-63.432l-69.531 117.71 4.2695 39.34h82.949v41.17h45.744v-41.17zm-68.921-41.78c-7.929 0-31.411 0-41.78 0.61019l41.475-69.226h0.30496v68.616"/>
	</g>
</svg>
