<?xml version="1.0" encoding="UTF-8"?>
<svg width="800" height="202.67" version="1.1" xmlns="http://www.w3.org/2000/svg">
	<path d="m709.33 0-70.401 120.27 3.7344 39.734h85.333v42.667h45.333v-42.667h26.667v-42.667h-24v-117.33zm-709.33 7.2031v62.13l32 32-32 34.667v60.802l94.135-94.932zm82.667 0.79688v61.068l34.932 32.802-34.932 34.396v61.068l95.734-95.464zm186.4 5.3333c-42.667 0-68.8 21.333-68 53.333 1.3333 56.533 68.266 42.136 68.266 71.203 0 12-10.402 18.13-24.802 18.13-12.533 0-26.931-3.2-36.531-6.6667l-2.6667 37.333c10.933 2.4 24.267 3.2031 36 3.2031 43.467 0 70.135-24.533 70.135-57.333 0-53.333-68.271-43.203-68.271-69.87 0-9.6 7.7375-16.797 24.271-16.797 10.133 0 21.598 2.1302 31.198 4.7969v-34.667c-10.4-1.8667-20.532-2.6667-29.599-2.6667zm262.23 1.8698c-9.1 0.06667-17.435 0.26354-24.635 0.79688v170.67h40v-66.13h1.599l41.068 66.13h48l-36.802-54.401c-4.2667-6.4-8.5292-12.531-13.062-19.198 22.667-5.6 36.797-24.265 36.797-47.198 0-36.267-23.468-50.667-63.734-50.667-10.267 0-20.129-0.06667-29.229 0zm-221.44 1.3333 28.802 170.13h45.333l19.734-108.8 20.266 108.8h42.667l31.198-170.13h-39.729l-17.333 105.86-17.068-105.86h-39.734l-17.333 105.86-17.068-105.86zm248 31.198c18.4 0 26.401 8.2656 26.401 21.599 0 14.4-10.132 21.333-26.932 21.333-3.7333 0-8.5333 0.26667-10.667 0v-42.667c2.4-0.26667 7.1979-0.26562 11.198-0.26562zm170.14 0.26562v69.333h-40z" fill="#93c030"/>
</svg>
