<svg xmlns="http://www.w3.org/2000/svg" width="584.947" height="189.874"><path d="M0 13.154v45.325l24.342 24.35L0 107.162v45.335l69.096-69.67L0 13.154zm62.086 0v45.325l24.342 24.35-24.342 24.334v45.335l69.101-69.67-69.101-69.674z" fill="#e20030" fill-rule="evenodd"/><path d="M467.139 145.484h-35.244l-29.862-49.005h-1.123v49.005h-28.996V20.099c10.605-.744 24.165-.935 39.268-.935 29.634 0 46.916 10.626 46.916 37.222 0 16.888-10.401 30.627-27.134 34.712 3.339 4.822 6.509 9.465 9.668 14.109l26.507 40.277zm-38.783-86.68c0-9.84-5.786-15.774-19.418-15.774-2.988 0-6.347.185-8.029.368l.001 32.107c1.49.186 4.478.37 7.28.37 12.325 0 20.166-6.49 20.166-17.071zm-92.708-38.692l-12.64 77.649-12.64-77.649H281.182l-12.637 77.649-12.64-77.649h-29.204l22.166 125.43h32.712l14.198-80.504 14.193 80.504h32.717l22.166-125.43h-29.206zM176.395 147.381c-8.722 0-17.852-.935-25.828-2.801l1.287-27.468c7.048 2.604 17.678 5.307 26.772 5.307 10.635 0 18.282-4.463 18.282-13.38 0-21.37-49.25-10.784-50.201-52.403-.532-23.57 18.557-39.137 50.016-39.137 6.682 0 15.027.744 22.819 2.224l-.057 25.593c-7.053-2.043-16.452-3.915-23.88-3.915-12.13 0-17.916 5.201-17.916 12.264 0 19.51 50.202 12.076 50.202 51.282 0 24.363-19.477 42.434-51.496 42.434z" fill="#fff" fill-rule="evenodd"/><g style="line-height:100%;-inkscape-font-specification:Arial;text-align:start" font-weight="400" font-size="64" font-family="Arial" fill="#fff" stroke="#fff" stroke-width=".735"><path d="M259.527 189.096v-31.891h14.14c2.842 0 5.003.286 6.483.86 1.479.572 2.66 1.584 3.546 3.034.884 1.45 1.327 3.053 1.327 4.807 0 2.263-.733 4.17-2.198 5.722-1.464 1.552-3.727 2.538-6.787 2.958 1.117.537 1.965 1.066 2.545 1.588 1.233 1.132 2.4 2.546 3.503 4.242l5.547 8.68h-5.308l-4.22-6.635c-1.233-1.914-2.248-3.379-3.046-4.394-.797-1.015-1.512-1.726-2.143-2.132a6.335 6.335 0 0 0-1.925-.848c-.478-.102-1.262-.153-2.35-.153h-4.894v14.162zm4.22-17.816h9.072c1.928 0 3.437-.2 4.524-.599 1.088-.398 1.915-1.037 2.48-1.914.566-.877.849-1.83.849-2.86 0-1.509-.548-2.749-1.643-3.72-1.095-.972-2.824-1.458-5.188-1.458h-10.094zM291.157 189.096v-31.891h3.916v11.442c1.827-2.117 4.133-3.176 6.918-3.176 1.711 0 3.198.338 4.46 1.012 1.261.674 2.164 1.606 2.708 2.795.543 1.19.815 2.915.815 5.178v14.64h-3.915v-14.64c0-1.958-.425-3.383-1.273-4.275-.848-.892-2.048-1.338-3.6-1.338-1.16 0-2.252.301-3.274.903-1.023.602-1.751 1.418-2.186 2.447-.436 1.03-.653 2.451-.653 4.264v12.64zM331.772 181.656l4.046.5c-.638 2.365-1.82 4.2-3.546 5.504-1.726 1.306-3.93 1.958-6.613 1.958-3.38 0-6.058-1.04-8.038-3.121-1.98-2.082-2.97-5-2.97-8.756 0-3.887 1.001-6.904 3.003-9.05 2.001-2.146 4.597-3.22 7.788-3.22 3.089 0 5.612 1.052 7.57 3.155 1.958 2.103 2.937 5.061 2.937 8.875 0 .232-.008.58-.022 1.044h-17.23c.146 2.538.864 4.482 2.154 5.83 1.291 1.35 2.901 2.024 4.83 2.024 1.436 0 2.661-.377 3.676-1.132 1.015-.754 1.82-1.957 2.415-3.61zm-12.857-6.33h12.9c-.174-1.943-.667-3.401-1.479-4.373-1.247-1.508-2.864-2.262-4.851-2.262-1.798 0-3.31.602-4.536 1.806-1.225 1.203-1.903 2.813-2.034 4.829zM340.778 161.708v-4.503h3.916v4.503zm0 27.388v-23.103h3.916v23.103zM350.676 189.096v-23.103h3.524v3.285c1.697-2.538 4.148-3.807 7.353-3.807 1.392 0 2.672.25 3.84.75 1.167.501 2.041 1.157 2.621 1.97.58.812.986 1.776 1.218 2.893.145.725.218 1.994.218 3.807v14.205h-3.916v-14.053c0-1.595-.152-2.788-.457-3.578-.304-.79-.844-1.422-1.62-1.893-.776-.471-1.686-.707-2.73-.707-1.668 0-3.108.53-4.319 1.588-1.21 1.059-1.816 3.067-1.816 6.026v12.617zM375.389 189.096v-31.891h3.916v31.891zM400.471 186.246c-1.45 1.233-2.846 2.103-4.187 2.61-1.342.509-2.781.762-4.319.762-2.538 0-4.488-.62-5.851-1.86-1.364-1.24-2.045-2.824-2.045-4.753 0-1.131.257-2.164.772-3.1.515-.935 1.19-1.686 2.023-2.251a9.514 9.514 0 0 1 2.817-1.284c.769-.203 1.929-.399 3.48-.587 3.162-.377 5.49-.827 6.984-1.349.014-.537.022-.877.022-1.022 0-1.596-.37-2.72-1.11-3.372-1-.885-2.487-1.327-4.46-1.327-1.841 0-3.2.322-4.078.968-.878.645-1.527 1.787-1.947 3.426l-3.829-.522c.348-1.639.92-2.962 1.719-3.97.797-1.008 1.95-1.784 3.458-2.328 1.509-.544 3.256-.816 5.243-.816 1.973 0 3.575.232 4.808.696 1.233.465 2.139 1.048 2.72 1.752.58.703.985 1.591 1.217 2.665.13.667.196 1.87.196 3.61v5.222c0 3.64.083 5.942.25 6.907.167.964.497 1.889.99 2.773h-4.09c-.406-.812-.667-1.762-.783-2.85zm-.326-8.745c-1.421.58-3.553 1.074-6.396 1.48-1.61.232-2.748.493-3.415.783-.667.29-1.182.714-1.545 1.272a3.343 3.343 0 0 0-.544 1.86c0 1.045.396 1.915 1.186 2.61.79.697 1.947 1.045 3.47 1.045 1.508 0 2.85-.33 4.024-.99 1.175-.66 2.038-1.562 2.589-2.708.42-.885.63-2.19.63-3.916zM410.195 189.096v-23.103h3.524v3.285c1.697-2.538 4.148-3.807 7.353-3.807 1.393 0 2.672.25 3.84.75 1.167.501 2.041 1.157 2.621 1.97.58.812.986 1.776 1.218 2.893.145.725.218 1.994.218 3.807v14.205h-3.916v-14.053c0-1.595-.152-2.788-.457-3.578-.304-.79-.844-1.422-1.62-1.893-.776-.471-1.686-.707-2.73-.707-1.668 0-3.108.53-4.319 1.588-1.21 1.059-1.816 3.067-1.816 6.026v12.617zM449.983 189.096v-2.915c-1.464 2.292-3.618 3.437-6.46 3.437a9.06 9.06 0 0 1-5.08-1.522c-1.545-1.016-2.741-2.433-3.59-4.253-.848-1.82-1.272-3.912-1.272-6.276 0-2.306.384-4.398 1.153-6.276.768-1.879 1.921-3.318 3.459-4.319 1.537-1 3.256-1.5 5.155-1.5 1.393 0 2.633.293 3.72.88 1.088.588 1.973 1.353 2.654 2.295v-11.442h3.894v31.891zm-12.378-11.53c0 2.96.624 5.17 1.871 6.636 1.247 1.464 2.72 2.197 4.416 2.197 1.712 0 3.165-.7 4.362-2.1 1.196-1.4 1.795-3.535 1.795-6.406 0-3.162-.61-5.482-1.828-6.961-1.218-1.48-2.719-2.22-4.503-2.22-1.74 0-3.194.711-4.361 2.133-1.168 1.42-1.752 3.662-1.752 6.722zM458.272 179.524v-3.937h12.03v3.937zM475.175 189.096v-31.891h12.03c2.117 0 3.734.101 4.85.304 1.567.261 2.88.758 3.938 1.49 1.059.733 1.91 1.759 2.556 3.079.646 1.32.968 2.77.968 4.35 0 2.713-.863 5.008-2.588 6.886-1.726 1.878-4.844 2.817-9.355 2.817h-8.18v12.965zm4.22-16.729h8.245c2.726 0 4.662-.507 5.808-1.522 1.146-1.016 1.718-2.444 1.719-4.286 0-1.334-.338-2.476-1.012-3.426-.674-.95-1.563-1.577-2.665-1.882-.71-.188-2.023-.283-3.937-.283h-8.158zM505.37 189.096V169.04h-3.46v-3.046h3.46v-2.458c0-1.552.137-2.705.412-3.459.378-1.015 1.041-1.838 1.991-2.469.95-.63 2.28-.946 3.992-.946 1.102 0 2.32.13 3.655.392l-.588 3.415a13.146 13.146 0 0 0-2.306-.218c-1.189 0-2.03.254-2.523.762-.493.507-.74 1.457-.74 2.85v2.131h4.503v3.046h-4.503v20.057zM531.866 186.246c-1.45 1.233-2.847 2.103-4.188 2.61-1.342.509-2.781.762-4.318.762-2.538 0-4.489-.62-5.852-1.86-1.363-1.24-2.045-2.824-2.045-4.753 0-1.131.257-2.164.772-3.1.515-.935 1.19-1.686 2.023-2.251a9.514 9.514 0 0 1 2.818-1.284c.768-.203 1.928-.399 3.48-.587 3.162-.377 5.49-.827 6.983-1.349.015-.537.022-.877.022-1.022 0-1.596-.37-2.72-1.11-3.372-1-.885-2.487-1.327-4.46-1.327-1.84 0-3.2.322-4.078.968-.877.645-1.526 1.787-1.947 3.426l-3.829-.522c.348-1.639.921-2.962 1.719-3.97s1.95-1.784 3.459-2.328c1.508-.544 3.256-.816 5.243-.816 1.972 0 3.574.232 4.807.696 1.233.465 2.14 1.048 2.72 1.752.58.703.986 1.591 1.218 2.665.13.667.195 1.87.195 3.61v5.222c0 3.64.084 5.942.25 6.907.167.964.497 1.889.99 2.773h-4.09c-.405-.812-.666-1.762-.782-2.85zm-.327-8.745c-1.421.58-3.553 1.074-6.395 1.48-1.61.232-2.749.493-3.416.783-.667.29-1.182.714-1.544 1.272a3.343 3.343 0 0 0-.544 1.86c0 1.045.395 1.915 1.185 2.61.79.697 1.947 1.045 3.47 1.045 1.508 0 2.85-.33 4.025-.99 1.174-.66 2.037-1.562 2.588-2.708.42-.885.631-2.19.631-3.916zM541.503 189.096v-31.891h3.915v31.891zM549.443 189.096v-3.176l14.706-16.881a85.86 85.86 0 0 1-4.417.13h-9.419v-3.176h18.882v2.59l-12.508 14.661-2.415 2.676c1.755-.13 3.401-.196 4.938-.196h10.682v3.372z" stroke-width=".51165555"/></g><g fill-rule="evenodd"><path d="M529.812 45.913c0 11.47-.077 32.517-.077 37.163-4.2.007-17.274.04-22.298.128 4.07-6.794 15.978-26.61 22.375-37.29zm-31.814 42.59L530.884 33.7h4.36v54.757zm22.7-83.162c-1.473 2.495-48.054 81.357-48.92 82.819.165 1.5 2.317 21.307 2.734 25.138h60.078v29.684h27.697v-29.684h17.374V88.457h-17.374V5.34h-41.59zM517.554 0l-51.057 86.778 3.03 31.775h59.664v29.52h38.455v-29.365h17.3l.001-35.504h-17.379V.079z" fill="#fff"/><path d="M497.997 88.503L530.883 33.7h4.361v54.757zm22.7-83.162c-1.473 2.495-48.054 81.357-48.92 82.819.165 1.5 2.317 21.307 2.734 25.138h60.078v29.684h27.697v-29.684h17.374V88.457h-17.374V5.34h-41.589z" fill="#b1c903"/></g></svg>