<svg xmlns="http://www.w3.org/2000/svg" width="276.911" height="450"><defs><linearGradient id="A" x1="-91.165" y1="58.107" x2="20.248" y2="-53.306" gradientUnits="userSpaceOnUse"><stop offset="0" stop-color="#fff"/><stop offset="1" stop-color="#001a4b" stop-opacity="0"/></linearGradient></defs><path d="M138.455 0C61.989 0 0 61.989 0 138.455s61.989 138.455 138.455 138.455 138.455-61.989 138.455-138.455S214.922 0 138.455 0zm0 27.691c61.173 0 110.764 49.591 110.764 110.764S199.629 249.22 138.455 249.22 27.691 199.629 27.691 138.455 77.282 27.691 138.455 27.691z" fill="url(#A)"/><path d="M96.177 88.142c-5.566 0-11.266.558-17.06 1.607-5.794 1.004-11.747 2.489-17.678 4.45v22.375c5.566-3.467 10.818-6.054 15.7-7.788 4.882-1.779 9.369-2.72 13.475-2.72 5.338 0 9.663 1.531 12.857 4.45 3.239 2.92 4.821 6.706 4.821 11.497 0 3.102-.752 6.15-2.349 9.024s-4.087 5.766-7.417 8.777l-37.333 33.007v19.285h74.296v-19.285H90.49l21.881-19.161c9.216-8.075 15.174-14.494 18.049-19.285 2.874-4.836 4.327-10.134 4.327-15.7 0-9.626-3.339-17.115-10.137-22.499-6.752-5.383-16.206-8.035-28.433-8.035zm87.524 1.854l-40.918 60.945v22.623h45.245v18.543h24.971v-18.543h14.464v-19.161h-14.464V89.996zm4.327 21.633v42.773H159.1zM9.165 299.297V450h39.657v-58.698h46.653V450h39.657V299.297H95.475v58.632H48.822v-58.632zm134.186 0V450h40.19c72.932 0 84.204-35.617 84.204-75.879 0-36.361-11.82-74.824-84.204-74.824zm40.19 32.43h11.212c25.703 0 32.802 23.351 32.802 43.515 0 21.416-7.429 43.865-30.877 43.865h-13.136z" fill="#fff" fill-rule="evenodd"/></svg>