<svg xmlns="http://www.w3.org/2000/svg" width="622.9" height="450" ><defs><linearGradient id="A" x1="23.766" x2="635.457" y1="286.224" y2="189.091" gradientUnits="userSpaceOnUse"><stop stop-color="#8592a3" offset="0"/><stop stop-color="#c1d9e0" offset=".499"/><stop stop-color="#84a9e7" offset="1"/></linearGradient><linearGradient id="B" x1="23.766" x2="635.457" y1="286.224" y2="189.091" gradientUnits="userSpaceOnUse"><stop stop-color="#848794" offset="0"/><stop stop-color="#bcd2d3" offset=".499"/><stop stop-color="#83a2d9" offset="1"/></linearGradient></defs><g transform="translate(-17.865 -9.549)"><path d="M293.37 9.549l-1.59 5.107-63.342 203.77-210.58 66.879 72.713 51.424 77.316-6.27-38.972-27.559 139.05-44.162 42.853-137.85 84.968 118.59 144.35-1.839-49.087 66.63 66.843-5.418 82.869-112.48-218.71 2.79zm1.906 11.792l124.07 173.16 210.79-2.686-75.087 101.92-52.786 4.275 48.505-65.84-152.27 1.943-89.581-125.03-45.211 145.42-146.59 46.562 35.741 25.273-60.786 4.93-62.407-44.141 203.03-64.479z" dominant-baseline="auto" fill="url(#B)" paint-order="stroke fill markers"/><path d="M294.32 15.445l-63.752 205.09-206.8 65.679 67.56 47.783 69.051-5.6-37.357-26.416 142.82-45.362 44.032-141.63 87.275 121.81 148.31-1.891-48.796 66.235 59.814-4.847 78.978-107.2-214.75 2.738z" dominant-baseline="auto" fill="url(#A)" paint-order="stroke fill markers"/><g fill="#e9e9e9"><path d="M282.448 397.665h42.53v8.423h-32.689v17.111h28.787v8.423h-28.787v18.441h33.221v8.423h-43.062zm77.772 61.894c-8.038 0-13.549-1.951-17.982-5.852-4.374-3.901-6.561-9.812-6.561-17.732v-38.301h9.841v38.479c0 4.906 1.33 8.659 3.99 11.26 2.719 2.542 5.806 3.812 10.712 3.812 4.965 0 7.751-1.271 10.47-3.812 2.719-2.601 4.078-6.354 4.078-11.26v-38.479h9.841v38.301c0 7.92-2.216 13.831-6.65 17.732-4.374 3.901-9.584 5.852-17.74 5.852zm36.865-61.894h22.649c6.324 0 11.142 1.596 14.451 4.788s4.965 7.536 4.965 13.033c0 4.197-.946 7.772-2.837 10.728s-4.61 5.113-8.157 6.472l13.476 25.8h-10.728l-12.501-24.381h-11.478v24.381h-9.841zm22.029 28.106c3.133 0 5.586-.887 7.359-2.66 1.832-1.832 2.748-4.344 2.748-7.536 0-3.014-.857-5.349-2.571-7.004s-4.226-2.482-7.536-2.482h-12.187v19.683zm107.503-28.106h22.01c6.324 0 11.142 1.714 14.451 5.142 3.31 3.369 4.965 7.979 4.965 13.831s-1.744 10.521-5.231 14.008c-3.428 3.487-8.245 5.231-14.451 5.231h-11.903v22.608h-9.841zm21.39 29.79c3.133 0 5.586-.946 7.359-2.837 1.832-1.951 2.748-4.61 2.748-7.979s-.857-5.97-2.571-7.802-4.226-2.748-7.536-2.748h-11.548v21.367zm28.614-29.79h43.062v8.423h-33.221v17.111h29.319v8.423h-29.319v18.441h33.753v8.423h-43.594z"/><path d="M481.534 396.607c-18.351.095-33.174 14.157-33.176 31.471-.001 8.347 3.513 16.353 9.769 22.256s14.74 9.22 23.588 9.22 17.332-3.317 23.588-9.22 9.769-13.909 9.769-22.256c-.002-17.38-14.935-31.469-33.357-31.471a35.36 35.36 0 0 0-.182 0zm.182 9.366c12.939 0 23.429 9.896 23.429 22.105.001 5.864-2.467 11.487-6.861 15.634s-10.354 6.476-16.568 6.476-12.174-2.329-16.568-6.476-6.862-9.77-6.861-15.634c0-12.208 10.49-22.105 23.429-22.105z" paint-order="stroke fill markers"/><path d="M135.473 413.921v44.565h-19.236v-44.565H100.38v-15.32h50.951v15.32zm53.568-15.32c3.018 0 5.774.638 8.269 1.915 2.553 1.219 4.555 2.96 6.006 5.223 1.509 2.263 2.263 4.787 2.263 7.573 0 7.37-3.337 12.012-10.01 13.927v.348c7.602 1.741 11.403 6.731 11.403 14.971 0 3.134-.783 5.919-2.35 8.356-1.509 2.379-3.598 4.236-6.267 5.571s-5.6 2.002-8.791 2.002h-33.428v-59.885zm-13.669 23.328h6.27c1.277 0 2.321-.435 3.134-1.306.87-.928 1.306-2.06 1.306-3.395v-.87c0-1.277-.435-2.35-1.306-3.22-.87-.928-1.915-1.393-3.134-1.393h-6.27zm0 22.631h7.663c1.277 0 2.321-.435 3.134-1.306.87-.928 1.306-2.06 1.306-3.395v-.87c0-1.335-.435-2.437-1.306-3.308-.812-.928-1.857-1.393-3.134-1.393h-7.663zm78.217 13.913l-21.112-29.072v29.072h-17.67v-59.885h16.799l21.112 29.508v-29.508h17.67v59.885z"/></g></g></svg>