<svg xmlns="http://www.w3.org/2000/svg" width="659.357" height="450"><g fill="#c2ad6f"><path d="M0 447.593h54.168v-29.584h54.001v-53.585H54.168v-30.501H0M0 212.42h108.086v-98.252H54.085v44.334H0m.083 166.67h108.002V221.755H71.502v49.251h-8.75v-49.251H45.334v49.251h-8.75v-49.251H.083M45.334 50.668h-8.75V1.417H.083v103.419h108.002V1.417H71.502v49.251h-8.75V1.417H45.334m82.335-.083V256.84h180.004V152.17H456.26V1.333"/><path d="M364.008 434.426c94.169-41.084 137.17-150.67 96.085-244.755l-340.841 148.67c41.001 94.169 150.587 137.17 244.755 96.085"/></g><path fill="#989898" d="M659.265 150.92H480.677c-.833 0-1.667-.083-2.417 0-1.5.083-2.083-.667-2-2.083v-2.417V3.667L476.177 0h181.337c1.5 0 1.917.333 1.833 1.833l-.083 149.087z"/><path d="M643.348 79.252c.167 22.751-17.5 45.168-41.668 50.168-3.667.75-7.417 1.167-11.167.917-3.583-.25-6.167-2.583-6.667-5.833-.417-3.083 1.333-6.083 4.167-7.167 1-.417 2-.5 3-.5 21.167.083 34.584-15.667 36.751-34.417 1.083-9.75-.25-19-5.333-27.501-6.417-10.667-16.334-15.917-28.334-17.834-1.25-.167-2.583-.333-3.833-.417-3.833-.333-6.5-3.167-6.417-6.833a6.67 6.67 0 0 1 6.917-6.583c20 .25 35.501 8.584 45.584 26.167 4.75 8.417 6.75 17.584 7 29.834zm-141.92-2.584V31.584c0-1.25 0-2.417.417-3.667 1-2.917 3.583-4.75 6.75-4.667 2.917.083 5.417 2 6.333 4.917.417 1.417.417 2.833.417 4.25v88.502c0 1.25 0 2.417-.25 3.667-.667 3.5-3.333 5.833-6.583 5.833-3.417 0-6.167-2.417-6.833-5.917-.167-.917-.167-1.917-.167-2.833l-.083-45.001zm62.251.084V30.834c0-4.333 2.333-7.167 6.167-7.5s7.083 2.333 7.417 6.25c.083.583 0 1.25 0 1.833v90.752c0 1.25 0 2.417-.417 3.667-1 3-3.917 5-6.917 4.667-3.333-.333-5.833-2.75-6.25-6-.083-.917-.083-1.917-.083-2.833zm-24.25 5h-11.584c-4.25-.083-7.167-2.75-7.167-6.667 0-4.083 2.833-6.833 7.25-6.833h23.251c4.333 0 7 2.75 7 6.833 0 4-2.75 6.667-7.083 6.75z" fill="#fefefe"/></svg>