<svg xmlns="http://www.w3.org/2000/svg" width="60.291" height="56.878" id="logo"><defs id="defs4"><style id="style2">.tele5-logo{fill:#c2ad6f}</style></defs><g id="logo_tele5" transform="translate(-212.709 -10.059)" fill="#c2ad6f"><path id="Path_163" d="M0 476.86h6.866v-3.752H13.7v-6.787H6.866v-3.869H0" class="tele5-logo" data-name="Path 163" transform="translate(212.709 -410.229)"/><path id="Path_164" d="M0 169.355h13.7V156.9H6.846v5.615H0" class="tele5-logo" data-name="Path 164" transform="translate(212.709 -132.532)"/><path id="Path_165" d="M0 319.561h13.7v-13.113H9.059v6.252h-1.1v-6.248H5.745v6.248H4.637v-6.248H0" class="tele5-logo" data-name="Path 165" transform="translate(212.706 -268.449)"/><path id="Path_166" d="M5.746 6.344H4.637V.1H0v13.108h13.7V.1H9.06v6.244h-1.1V.1H5.746" class="tele5-logo" data-name="Path 166" transform="translate(212.706 9.972)"/><g id="Group_2288" data-name="Group 2288" transform="translate(227.816 10.058)"><path id="Path_167" d="M177.464 0v32.394h22.813V19.119h18.841V0" class="tele5-logo" data-name="Path 167" transform="translate(-176.391)"/><path id="Path_168" d="M196.721 292.932a23.57 23.57 0 0 0 12.185-31.032l-43.213 18.844a23.571 23.571 0 0 0 31.028 12.183" class="tele5-logo" data-name="Path 168" transform="translate(-165.693 -238.026)"/></g></g></svg>