<svg xmlns="http://www.w3.org/2000/svg" width="477.091" height="450" fill="#c2ad6f"><path d="M.024 447.68h54.333v-29.691h54.08v-53.708h-54.08v-30.617H.024m0-121.864h108.412v-98.56H54.198v44.433H.024M0 324.873h108.412V221.106H71.687v49.474h-8.705v-49.442h-17.52v49.442h-8.768v-49.442H0M45.47 49.522h-8.776V.111H0v103.728h108.412V.111H71.695v49.411H62.99V.111H45.47M128.061 0v256.344h180.526V151.295h149.095V0"/><path d="M365.104 434.488a186.52 186.52 0 0 0 96.424-245.566L119.57 338.041c41.181 94.424 151.11 137.587 245.534 96.408"/></svg>