<svg xmlns="http://www.w3.org/2000/svg" width="88.278" height="56.866" id="logo"><defs id="defs4"><style id="style2">.tele5-logo{fill:#c2ad6f}</style></defs><g id="logo_tele5" transform="translate(-212.706 -10.058)"><path id="Path_163" d="M0 476.86h6.866v-3.752H13.7v-6.787H6.866v-3.869H0" class="tele5-logo" data-name="Path 163" transform="translate(212.709 -410.229)" fill="#c2ad6f"/><path id="Path_164" d="M0 169.355h13.7V156.9H6.846v5.615H0" class="tele5-logo" data-name="Path 164" transform="translate(212.709 -132.532)" fill="#c2ad6f"/><path id="Path_165" d="M0 319.561h13.7v-13.113H9.059v6.252h-1.1v-6.248H5.745v6.248H4.637v-6.248H0" class="tele5-logo" data-name="Path 165" transform="translate(212.706 -268.449)" fill="#c2ad6f"/><path id="Path_166" d="M5.746 6.344H4.637V.1H0v13.108h13.7V.1H9.06v6.244h-1.1V.1H5.746" class="tele5-logo" data-name="Path 166" transform="translate(212.706 9.972)" fill="#c2ad6f"/><g id="Group_2288" data-name="Group 2288" transform="translate(227.816 10.058)"><path id="Path_167" d="M177.464 0v32.394h22.813V19.119h18.841V0" class="tele5-logo" data-name="Path 167" transform="translate(-176.391)" fill="#c2ad6f"/><path id="Path_168" d="M196.721 292.932a23.57 23.57 0 0 0 12.185-31.032l-43.213 18.844a23.571 23.571 0 0 0 31.028 12.183" class="tele5-logo" data-name="Path 168" transform="translate(-165.693 -238.026)" fill="#c2ad6f"/></g></g><g aria-label="HD" transform="matrix(1.01886 0 0 .9815 .003 .001)" style="line-height:1.25" id="text857" font-weight="700" font-size="19.982" font-family="sans-serif" letter-spacing="0" word-spacing="0" fill="#c2ad6f" stroke-width=".5"><path d="M69.58 14.409V8.32h-5.708v6.088h-2.937V.203h2.937V5.96h5.708V.203h2.927V14.41z" style="-inkscape-font-specification:'sans-serif Bold'" id="path859"/><path d="M75.063 14.409V.203h4.667q3.055 0 4.978 1.873 1.934 1.874 1.934 4.918v.634q0 3.044-1.934 4.917-1.923 1.864-5.02 1.864zM79.73 2.574h-1.54v9.474h1.497q1.86 0 2.817-1.142.966-1.151.966-3.278v-.654q0-4.4-3.741-4.4z" style="-inkscape-font-specification:'sans-serif Bold'" id="path861" stroke-width=".516"/></g></svg>