<?xml version="1.0" encoding="UTF-8"?>
<svg width="449.28" height="450" fill="#ff23ff" version="1.1" xmlns="http://www.w3.org/2000/svg">
 <path d="M105.3.015v264.97h162.22v-129.14h164.5V.015zM430.44 185.75a183.31 183.31 0 1 1-329.61 160.5zM12.941 340.42v46.276h58.866v16.049H12.941v46.284H0v-108.61zm16.2-112.03h12.732v76.727h17.008v-78.165H71.8v94.11H.015v-94.11h12.926v78.165h16.207zm29.537-114.7h13.121v88.942H.014v-16.049h58.663zM29.141 1.453h12.732V78.18h17.008V0H71.8v94.14H.015V0h12.926v78.18h16.207z"/>
</svg>
