<svg xmlns="http://www.w3.org/2000/svg" width="469.704" height="196.648"><path d="M97.66 0c-.947.418-1.937.757-2.83 1.27-2.249 1.292-3.617 3.245-4.103 5.81-.072.38-.232.745-.352 1.117v180.326c.168.624.333 1.249.506 1.872 1.038 3.76 4.404 6.248 8.506 6.248 13.556.008 27.112.004 40.668.004h72.056V0zm121.434 0c.05.75.145 1.502.144 2.252.007 63.998.006 127.995.006 191.992v2.317H340.86c.04-.707.117-1.437.117-2.165.006-64.048.005-128.096.011-192.144 0-.75.096-1.502.147-2.252zm129.023 0l-.002 196.645h1.842c36.883 0 73.765 0 110.645-.002 5.279 0 8.835-3.412 9.091-8.713.017-.304.01-.607.01-.91 0-59.092 0-118.183-.004-177.274 0-5.159-1.994-7.92-6.793-9.467-.13-.042-.226-.183-.338-.279z" fill="#eb2d37"/><path d="M.578.001C.251.037 0 .284 0 .585V34.64c0 .319.29.584.637.584h6.04c.366 0 .638-.265.657-.584V20.349h16.318l.02-.018V34.64c0 .319.269.566.635.566h5.986c.346 0 .615-.23.635-.531.019-.018.02-.035.02-.035V.585c0-.018-.001-.035-.02-.053-.02-.283-.25-.495-.559-.53H24.23c-.307.035-.559.282-.558.583v13.53H7.334V.566C7.314.283 7.083.036 6.756 0H.637zm38.201 0c-.327.036-.578.283-.578.584V34.64c0 .319.289.584.635.584.154 0 13.838 0 13.973-.018 10.238-.177 16.82-6.996 16.82-17.586C69.629 6.747 63.027.001 52.385.001h-13.55zm6.658 6.25h6.891c8.198 0 9.969 6.145 9.969 11.317 0 4.25-1.328 11.404-9.969 11.404h-6.89zM415.76 56.116c-2.612.03-5.217.269-7.791.714-21.433 3.66-36.85 22.206-37.164 43.941.459 3.345.645 6.756 1.422 10.024 5.214 21.88 24.732 36.094 47.128 34.406 10.028-.755 18.745-4.632 26.221-11.322 1.38-1.233 1.404-2.002.133-3.281-2.958-2.98-5.93-5.95-8.906-8.909-1.287-1.278-2.002-1.294-3.399-.142-6.91 5.702-14.805 7.863-23.53 5.855-10.537-2.425-17.562-9.02-20.456-19.431-2.83-10.183-.296-19.34 7.254-26.701 10.32-10.062 25.492-10.443 36.695-1.297 1.51 1.234 2.125 1.221 3.504-.149 2.945-2.924 5.879-5.858 8.803-8.803 1.328-1.342 1.294-2.137-.149-3.404-8.796-7.706-18.753-11.607-29.765-11.502zm-159.287.31c-2.37.003-2.812.45-2.813 2.842-.002 11.129 0 22.256 0 33.384 0 10.875-.017 21.751.008 32.625.008 3.833.65 7.563 2.504 10.97 3.453 6.338 9.242 8.706 16.035 8.81 10.67.164 21.347.05 32.02.037 1.814-.003 2.332-.543 2.338-2.371.013-4.098.007-8.195.002-12.293-.002-2.244-.418-2.663-2.637-2.664-8.195-.003-16.387-.013-24.582.006-2.116.005-3.985-.615-5.58-1.99-2.158-1.863-2.796-4.293-2.791-7.069.036-19.828.02-39.655.017-59.484 0-2.397-.41-2.8-2.837-2.803-3.895-.005-7.79-.005-11.684 0zm-139.834.002c-1.903 0-2.411.528-2.418 2.453-.016 4.098-.013 8.193-.004 12.29.005 2.22.434 2.639 2.681 2.64 8.143.004 16.288.002 24.432.002h1.824v2.08c0 22.205 0 44.41.002 66.617 0 2.118.456 2.58 2.569 2.588 3.845.01 7.689.006 11.533.004 2.936 0 3.234-.293 3.234-3.172V73.812l2.125-.001c7.84 0 15.68.006 23.522-.004 1.859-.003 2.355-.506 2.359-2.317.008-4.248.008-8.497 0-12.746-.005-1.81-.498-2.315-2.36-2.316-23.166-.007-46.333-.007-69.5 0z" clip-rule="evenodd" fill="#fff0e6" fill-rule="evenodd"/></svg>