<svg xmlns="http://www.w3.org/2000/svg" width="379.33" height="196.648"><path d="M7.285 0c-.947.418-1.937.757-2.83 1.27C2.206 2.562.838 4.515.352 7.08.28 7.46.12 7.825 0 8.197v180.326c.168.624.333 1.249.506 1.872 1.038 3.76 4.404 6.248 8.506 6.248 13.556.008 27.112.004 40.668.004h72.056V0zM128.72 0c.05.75.145 1.502.144 2.252.007 63.998.006 127.995.006 191.992v2.317h121.616c.04-.707.117-1.437.117-2.165.006-64.048.005-128.096.011-192.144 0-.75.096-1.502.147-2.252zm129.023 0l-.002 196.645h1.842c36.883 0 73.765 0 110.645-.002 5.279 0 8.835-3.412 9.091-8.713.017-.304.01-.607.01-.91 0-59.092 0-118.183-.004-177.274 0-5.159-1.994-7.92-6.793-9.467-.13-.042-.226-.183-.338-.279z" fill="#eb2d37"/><path d="M163.285 92.653c-.001-11.128-.002-22.256 0-33.385.001-2.392.442-2.84 2.812-2.843 3.895-.005 7.789-.005 11.684 0 2.427.003 2.838.406 2.838 2.803.003 19.829.019 39.657-.017 59.485-.005 2.776.632 5.207 2.79 7.069 1.595 1.376 3.464 1.995 5.58 1.99 8.195-.019 16.388-.009 24.583-.006 2.219.001 2.635.42 2.637 2.664.005 4.098.01 8.194-.003 12.292-.006 1.828-.524 2.369-2.338 2.372-10.673.013-21.349.126-32.019-.038-6.793-.104-12.583-2.471-16.036-8.81-1.855-3.406-2.495-7.135-2.503-10.968-.025-10.874-.008-21.75-.008-32.625zm-93.168-18.84v68.117c0 2.879-.299 3.171-3.235 3.171-3.844.002-7.688.008-11.533-.003-2.113-.007-2.568-.471-2.568-2.589-.002-22.206-.001-44.411-.001-66.616v-2.081h-1.825c-8.144 0-16.288.002-24.431-.002-2.247-.001-2.677-.419-2.682-2.638-.009-4.098-.013-8.194.003-12.292.007-1.925.516-2.452 2.419-2.453 23.166-.007 46.332-.007 69.499 0 1.861.001 2.356.506 2.361 2.317.008 4.249.008 8.498 0 12.746-.004 1.811-.502 2.313-2.361 2.316-7.841.01-15.681.005-23.521.005-.603.002-1.208.002-2.125.002zm210.313 26.959c.314-21.735 15.73-40.281 37.163-43.941 14.147-2.418 26.731 1.301 37.557 10.786 1.443 1.267 1.476 2.062.148 3.404a1781.784 1781.784 0 0 1-8.801 8.804c-1.379 1.37-1.995 1.382-3.504.148-11.203-9.146-26.377-8.766-36.697 1.296-7.55 7.362-10.084 16.518-7.254 26.701 2.894 10.412 9.92 17.008 20.456 19.433 8.726 2.008 16.621-.155 23.531-5.857 1.397-1.152 2.112-1.135 3.399.143 2.977 2.959 5.948 5.93 8.906 8.909 1.271 1.279 1.246 2.048-.133 3.281-7.476 6.69-16.192 10.568-26.22 11.323-22.396 1.688-41.916-12.527-47.13-34.408-.777-3.268-.962-6.677-1.421-10.022z" clip-rule="evenodd" fill="#fff0e6" fill-rule="evenodd"/></svg>