<svg xmlns="http://www.w3.org/2000/svg" xmlns:xlink="http://www.w3.org/1999/xlink" width="250mm" height="296.975" viewBox="0 0 250 78.575"><defs><linearGradient id="a"><stop offset="0" stop-color="#fe5c00"/><stop offset="1" stop-color="#fe001e"/></linearGradient><linearGradient xlink:href="#a" id="b" x1="258.512" y1="84.181" x2="750.53" y2="6.984" gradientUnits="userSpaceOnUse" gradientTransform="translate(86.756 140.12) scale(.33512)"/><linearGradient xlink:href="#a" id="c" x1="7.035" y1="121.984" x2="751.958" y2="121.984" gradientUnits="userSpaceOnUse" gradientTransform="translate(86.756 140.12) scale(.33512)"/></defs><path d="M325.136 141.834c-16.95 1.253-32.187 5.487-48.38 8.698-4.274.847-6.888 9.06 1.94 7.563 10.823-1.836 36.768-10.036 35.915-6.208-1.035 4.644-20.807 13.013-17.42 17.7 6.879 9.519 24.945 9.89 31.476 18.728 8.002 10.829-28.113 23.53-32.171 25.242-6.513 2.75.8 7.237 3.754 6.385 5.41-1.56 12.987-5.4 19.124-8.38 8.554-4.152 20.454-11.966 19.33-21.266-1.409-11.639-13.997-15.049-23.843-19.026-10.57-4.27-1.644-5.93 9.806-16.243 4.448-4.006 11.268-13.99.47-13.193zm-174.835.813c-9.048.651-7.322 13.24-12.616 14.582-12.152 3.08-43.51 1.869-46.955 3.557-3.582 1.756-.47 4.074 1.537 4.471 10.642 2.103 43.287-.473 43.738 1.686.81 3.884-6.2 20.645-7.442 31.363-.924 7.966.662 18.07 9.394 20.582 10.029 2.884 18.88-5.335 27.4-9.53 6.493-3.196 18.195-15.107 18.28-11.977.22 8.205-3.677 22.295 7.927 15.642 8.11-4.65 22.505-12.99 24.581-12.954 6.518.115 6.186 21.665 25.002 12.256 20.52-10.26 20.648-13.87 27.994-12.934 3.07.392 7.035 6.405 11.287 8.843 2.53 1.45 7.553-1.53 7.28-4.92-.703-8.703-14.2-15.757-19.906-14.532-10.27 2.204-26.78 14.57-33.43 15.367-5.106.611-8.797-12.013-9.99-14.108-1.089-1.908-4.657-1.778-9.423.13-12.58 5.034-21.94 14.111-21.91 7.692.045-9.635 4.323-22.034-6.444-14.356-12.824 9.144-24.325 20.941-39.742 25.805-12.27 3.87-9.166-14.503-6.521-21.757 2.742-7.52 5.47-22.162 9.113-22.774 30.325-5.089 61.47-3.933 90.231-7.371 6.52-.78 5.273-6.702-.631-6.766-16.323-.179-34.335.586-50.983 2.172-16.648 1.586-31.557 4.224-35.338 3.137-3.357-.965 3.52-13.734-2.433-13.306z" fill="url(#b)" stroke="url(#c)" stroke-width=".314" transform="translate(-88.935 -141.632)"/></svg>