<?xml version="1.0" encoding="UTF-8" standalone="no"?>
<!-- Created with Inkscape (http://www.inkscape.org/) -->

<svg
   xmlns:dc="http://purl.org/dc/elements/1.1/"
   xmlns:cc="http://creativecommons.org/ns#"
   xmlns:rdf="http://www.w3.org/1999/02/22-rdf-syntax-ns#"
   xmlns:svg="http://www.w3.org/2000/svg"
   xmlns="http://www.w3.org/2000/svg"
   xmlns:sodipodi="http://sodipodi.sourceforge.net/DTD/sodipodi-0.dtd"
   xmlns:inkscape="http://www.inkscape.org/namespaces/inkscape"
   version="1.0"
   width="162.96875"
   height="192.9687"
   id="svg2"
   inkscape:version="0.48.2 r9819"
   sodipodi:docname="AJAX1.svg">
  <sodipodi:namedview
     pagecolor="#ffffff"
     bordercolor="#666666"
     borderopacity="1"
     objecttolerance="10"
     gridtolerance="10"
     guidetolerance="10"
     inkscape:pageopacity="0"
     inkscape:pageshadow="2"
     inkscape:window-width="1280"
     inkscape:window-height="1004"
     id="namedview6"
     showgrid="false"
     fit-margin-top="0"
     fit-margin-left="0"
     fit-margin-right="0"
     fit-margin-bottom="0"
     inkscape:zoom="0.94540784"
     inkscape:cx="0.28872283"
     inkscape:cy="96.484308"
     inkscape:window-x="-8"
     inkscape:window-y="-8"
     inkscape:window-maximized="1"
     inkscape:current-layer="svg2" />
  <metadata
     id="metadata18">
    <rdf:RDF>
      <cc:Work
         rdf:about="">
        <dc:format>image/svg+xml</dc:format>
        <dc:type
           rdf:resource="http://purl.org/dc/dcmitype/StillImage" />
        <dc:title></dc:title>
      </cc:Work>
    </rdf:RDF>
  </metadata>
  <defs
     id="defs4" />
  <path
     d="M 81.46875,0 C 36.47001,0.004 0.004,36.47001 0,81.46875 c 0.004,44.99707 36.47001,81.46575 81.46875,81.46875 44.99874,-0.003 81.497,-36.47168 81.5,-81.46875 C 162.96475,36.47034 126.46749,0.004 81.46875,0 z m 0,12.21875 c 19.14036,0.003 36.41902,7.74047 48.96875,20.28125 12.54045,12.5498 20.27925,29.82672 20.28125,48.96875 -0.002,19.14035 -7.74113,36.41796 -20.28125,48.96875 -12.54946,12.53912 -29.82839,20.27925 -48.96875,20.28125 -19.14136,-0.002 -36.38704,-7.74213 -48.9375,-20.28125 C 19.9918,117.88671 12.253,100.6091 12.25,81.46875 12.253,62.32672 19.9918,45.0498 32.53125,32.5 45.08171,19.95922 62.32739,12.22175 81.46875,12.21875 z M 23.65625,64.5 l 0.0312,9.4375 12.21875,0 -0.0625,31.96875 10.46875,0 0.0625,-31.96875 12.65625,0 -0.0625,-9.4375 -35.3125,0 z m 40,0 0,41.40625 9.90625,0 0.125,-24.1875 14.5,24.1875 10.75,0 0,-41.40625 -9.96875,0 L 89.375,90.1875 74.5,64.5 z m 40.34375,0 0.0625,9.4375 12.21875,0 -0.0625,31.96875 10.46875,0 0.0312,-31.96875 12.6875,0 -0.0625,-9.4375 -35.34375,0 z M 45.875,170.15625 c -0.97702,0 -1.92956,0.1413 -2.90625,0.40625 -0.97736,0.26461 -1.85185,0.66917 -2.625,1.21875 -0.77347,0.5499 -1.39717,1.23964 -1.875,2.0625 -0.4785,0.8252 -0.71875,1.78674 -0.71875,2.90625 0,0.99704 0.18611,1.86111 0.5625,2.5625 0.37673,0.7004 0.85811,1.28385 1.46875,1.75 0.61098,0.46849 1.28902,0.83069 2.0625,1.125 0.77314,0.29664 1.59173,0.54612 2.40625,0.75 0.79383,0.22357 1.56994,0.44381 2.34375,0.625 0.77348,0.18353 1.45219,0.38141 2.0625,0.625 0.61064,0.24359 1.12294,0.57245 1.5,0.9375 0.37672,0.36838 0.5625,0.84654 0.5625,1.4375 0,0.5499 -0.15287,0.98938 -0.4375,1.34375 -0.28496,0.35671 -0.63472,0.63887 -1.0625,0.84375 -0.42778,0.20221 -0.88649,0.33455 -1.375,0.40625 -0.48851,0.0707 -0.94722,0.0937 -1.375,0.0937 -0.63099,0 -1.25314,-0.0666 -1.84375,-0.21875 -0.59029,-0.15416 -1.09379,-0.37083 -1.53125,-0.6875 -0.43779,-0.31533 -0.7989,-0.7428 -1.0625,-1.25 -0.26495,-0.51086 -0.375,-1.11265 -0.375,-1.84375 l -4.65625,0 c -0.0207,1.34174 0.24047,2.49173 0.75,3.46875 0.50853,0.97702 1.19693,1.77526 2.0625,2.40625 0.86457,0.63199 1.83923,1.0807 2.96875,1.375 1.12951,0.29665 2.29941,0.46875 3.5,0.46875 1.48522,0 2.80799,-0.18388 3.9375,-0.53125 1.12952,-0.34469 2.08062,-0.81618 2.84375,-1.4375 0.7628,-0.62298 1.33267,-1.36286 1.71875,-2.21875 0.38707,-0.85456 0.5625,-1.78321 0.5625,-2.78125 0,-1.22095 -0.26238,-2.21818 -0.78125,-3 -0.51921,-0.78382 -1.13133,-1.40618 -1.84375,-1.875 -0.71274,-0.46949 -1.43349,-0.81836 -2.15625,-1.03125 -0.72242,-0.21422 -1.28041,-0.3574 -1.6875,-0.4375 -1.36409,-0.34736 -2.46828,-0.65243 -3.3125,-0.875 -0.84488,-0.2249 -1.49125,-0.43368 -1.96875,-0.65625 -0.47884,-0.2259 -0.80625,-0.48639 -0.96875,-0.75 -0.16316,-0.26494 -0.25,-0.60647 -0.25,-1.03125 0,-0.46982 0.10928,-0.85026 0.3125,-1.15625 0.20354,-0.30499 0.46558,-0.54511 0.78125,-0.75 0.31533,-0.20254 0.64385,-0.3551 1.03125,-0.4375 0.38641,-0.0811 0.80076,-0.125 1.1875,-0.125 0.59029,0 1.12681,0.0551 1.625,0.15625 0.49886,0.10378 0.92577,0.28733 1.3125,0.53125 0.38641,0.24359 0.70292,0.57489 0.9375,1 0.23324,0.42711 0.36525,0.97399 0.40625,1.625 l 4.65625,0 c 0,-1.26198 -0.24125,-2.33382 -0.71875,-3.21875 -0.47884,-0.88526 -1.12365,-1.61657 -1.9375,-2.1875 -0.81452,-0.5696 -1.76407,-0.9944 -2.8125,-1.25 -1.04843,-0.25193 -2.14206,-0.375 -3.28125,-0.375 z m 12.3125,0.53125 0,21.78125 16.5625,0 0,-4.03125 -11.75,0 0,-5.34375 10.53125,0 0,-3.71875 -10.53125,0 0,-4.6875 11.5,0 0,-4 z m 19.78125,0 0,21.78125 4.8125,0 0,-8.5 4.78125,0 c 1.20026,0 2.0652,0.2517 2.59375,0.78125 0.52888,0.52855 0.86808,1.35913 1.03125,2.5 0.1228,0.87558 0.22055,1.793 0.28125,2.75 0.0611,0.95567 0.23439,1.77903 0.5,2.46875 l 4.78125,0 c -0.2229,-0.30365 -0.38855,-0.68821 -0.5,-1.125 -0.11279,-0.43679 -0.1996,-0.88783 -0.25,-1.375 -0.0517,-0.48985 -0.0731,-0.97034 -0.0937,-1.4375 -0.0197,-0.46849 -0.0432,-0.87138 -0.0625,-1.21875 -0.0414,-0.54857 -0.13755,-1.10635 -0.25,-1.65625 -0.11145,-0.54958 -0.28732,-1.04319 -0.53125,-1.5 -0.24358,-0.45781 -0.55143,-0.85215 -0.9375,-1.1875 -0.3864,-0.33535 -0.8788,-0.58649 -1.46875,-0.75 l 0,-0.0625 c 1.22094,-0.48718 2.11835,-1.2206 2.65625,-2.15625 0.54056,-0.93598 0.78125,-2.03183 0.78125,-3.3125 0,-0.83454 -0.1432,-1.62234 -0.4375,-2.34375 -0.29665,-0.72276 -0.72133,-1.35667 -1.28125,-1.90625 -0.55992,-0.54857 -1.21718,-0.96592 -2,-1.28125 -0.78382,-0.31566 -1.6789,-0.46875 -2.65625,-0.46875 l -11.75,0 z m 22.03125,0 0,21.78125 4.8125,0 0,-21.78125 z m 9.03125,0 0,21.78125 16.53125,0 0,-4.03125 -11.75,0 0,-5.34375 10.5625,0 0,-3.71875 -10.5625,0 0,-4.6875 11.5,0 0,-4 z m -26.25,3.71875 5.25,0 c 1.09981,0 1.91918,0.24092 2.46875,0.71875 0.54958,0.47784 0.8125,1.22414 0.8125,2.28125 0,1.09948 -0.26292,1.91874 -0.8125,2.40625 -0.54957,0.48851 -1.3686,0.71875 -2.46875,0.71875 l -5.25,0 z"
     id="polygon2391"
     style="fill:#9c1f23;fill-opacity:1;stroke:none"
     inkscape:connector-curvature="0"
     sodipodi:nodetypes="cccccccccccccccccccccccccccccccccccccccccccccccccscccccccscccsccccccccscccscccccccscccscccccccccccccccccccccccccccscccccccccccccccscccscccccccccccccccccccccssscscc" />
</svg>
