<?xml version="1.0" encoding="UTF-8"?>
<svg width="800" height="416.98" version="1.1" xmlns="http://www.w3.org/2000/svg">
	<path d="m720.05 300.58a58.075 58.075 0 1 0 58.224 58.075 58.149 58.149 0 0 0-58.224-58.075zm0 90.671a32.611 32.611 0 1 1 32.76-32.611 32.686 32.686 0 0 1-32.76 32.611zm-401.34-42.454v65.371h25.315v-65.371a22.5 22.5 0 0 1 22.56-22.485v-25.315a47.725 47.725 0 0 0-47.874 47.8zm167.9 10.126a58.224 58.224 0 1 0-23.825 46.817v8.4283h23.825zm-58.075 32.76a32.611 32.611 0 1 1 32.76-32.611 32.686 32.686 0 0 1-32.76 32.596zm196.8 22.485h25.315v-110.49h-25.315zm12.687-122.87a15.457 15.457 0 1 0-15.501-15.457 15.442 15.442 0 0 0 15.501 15.457zm-50.748-19.969v39.669a57.955 57.955 0 1 0 25.508 47.934v-87.574zm-32.849 120.33a32.611 32.611 0 1 1 32.76-32.611 32.507 32.507 0 0 1-32.76 32.611z" fill="#0cbaea"/>
	<path d="m704.01 181.49a53.28 53.28 0 1 1 53.429-53.28 53.414 53.414 0 0 1-53.429 53.28m-460.41 0a53.28 53.28 0 1 1 53.429-53.28 53.414 53.414 0 0 1-53.429 53.28m460.41-149.15a95.734 95.734 0 0 0-95.868 95.585 34.056 34.056 0 0 0 0.13402 3.7972h-62.542v38.374h50.182a53.295 53.295 0 1 1-23.543-69.302l31.018-30.928a96.181 96.181 0 0 0-123.59 10.126h-83.702v38.24h50.182a53.22 53.22 0 1 1-7.4455-56.377l30.303-30.229a95.942 95.942 0 0 0-159.59 26.997 95.436 95.436 0 0 0-64.418-26.148h-245.13v42.171h63.018v53.607a179.72 179.72 0 0 0 71.194 143.38l30.437-30.392a137.55 137.55 0 0 1-59.206-113.02v-53.607h58.789a94.736 94.736 0 0 0-16.216 53.28 95.898 95.898 0 0 0 184.25 36.974 95.749 95.749 0 0 0 122.92 7.4455 95.912 95.912 0 0 0 177.48 19.12 95.689 95.689 0 1 0 71.328-159.12" fill="#f37020"/>
</svg>
