<?xml version="1.0" encoding="UTF-8"?>
<svg width="800" height="302.71" version="1.0" xmlns="http://www.w3.org/2000/svg">
	<path d="m370 243.68c0 11.871-9.6774 21.548-21.548 21.548-11.871 0-21.548-9.6774-21.548-21.548s9.6774-21.548 21.548-21.548c11.871 0 21.548 9.6774 21.548 21.548m16.71 0c0-21.161-17.161-38.258-38.258-38.258-21.161 0-38.258 17.161-38.258 38.258v59.032h16.71v-27.419c6.129 4.1936 13.548 6.6452 21.548 6.6452 21.097 0 38.258-17.097 38.258-38.258m6.7742 36.387h16.71v-95.484h-16.71zm89.355-29.742v-43.161h-16.71v43.161c0 8.1936-6.6452 14.839-14.839 14.839s-14.839-6.6452-14.839-14.839v-43.161h-16.71v43.161c0 17.419 14.129 31.548 31.548 31.548 17.419 0 31.548-14.129 31.548-31.548m59.032-26.452v-16.71h-4.9032c-17.419 0-31.613 14.129-31.613 31.613v9.7419c0 8.1936-6.6452 14.839-14.903 14.839h-4.9032v16.71h4.9032c17.419 0 31.613-14.129 31.613-31.613v-9.6774c0-8.1935 6.6452-14.839 14.903-14.839h4.9032z" fill="#006d50"/>
	<path d="m479.87 22.839c-36.065 0-65.29 29.226-65.29 65.29 0 0.83871 0 1.7419 0.0645 2.5806h-42.645v26.258h34.258c-5.7419 12.516-18.387 21.161-33.097 21.161-20.129 0-36.452-16.323-36.452-36.452 0-20.129 16.323-36.452 36.452-36.452 6.129 0 11.935 1.5484 17.032 4.1935l21.097-21.097c-10.71-7.6774-23.806-12.258-38-12.258-18.065 0-34.387 7.2903-46.194 19.161h-56.968v26.258h34.258c-5.7419 12.516-18.387 21.161-33.097 21.161-20.129 0-36.452-16.323-36.452-36.452s16.323-36.452 36.452-36.452c11.226 0 21.29 5.0968 27.935 13.097l20.581-20.581c-11.935-13.226-29.226-21.548-48.516-21.548-27.097 0-50.323 16.516-60.194 40.065-11.484-10.903-26.903-17.613-43.935-17.871h-167.16v28.903h42.903v36.645c0 40 19.032 75.484 48.581 98l20.71-20.71c-24.387-17.032-40.387-45.29-40.387-77.29v-36.645h40.065c-6.9677 10.387-11.097 22.903-11.097 36.387 0 36.065 29.226 65.29 65.29 65.29 27.097 0 50.323-16.516 60.194-40.065 11.677 11.097 27.484 17.935 44.903 17.935 14.581 0 28-4.7742 38.903-12.839 7.4839 27.806 32.839 48.258 63.032 48.258 25.161 0 47.032-14.258 57.935-35.161 11.935 13.419 29.355 21.871 48.71 21.871 36.065 0 65.29-29.226 65.29-65.29 0.12903-36.129-29.097-65.355-65.161-65.355zm-313.81 102c-20.129 0-36.452-16.323-36.452-36.452 0-20.129 16.323-36.452 36.452-36.452 20.129 0 36.452 16.323 36.452 36.452 0 20.129-16.323 36.452-36.452 36.452zm313.74 0c-20.129 0-36.452-16.323-36.452-36.452 0-20.129 16.323-36.452 36.452-36.452s36.452 16.323 36.452 36.452c0 20.129-16.323 36.452-36.452 36.452z" fill="#ec6608"/>
	<g fill="#006d50">
		<path d="m717.29 124.84h-23.677v-26.71h-19.677v26.71h-23.677v-72.194h23.677v26.194h19.677v-26.194h23.677z"/>
		<path d="m787.94 117.03c-6.7742 5.2258-16.258 7.871-28.774 7.871h-27.226v-72.258h27.226c12.581 0 22 2.6452 28.774 7.871 6.7742 5.2258 12.065 13.613 12.065 28.258 0 14.645-5.2258 23.032-12.065 28.258zm-16-41.355c-2.0645-2.0645-5.7419-3.6774-10.968-3.6774h-5.4194v32.968h5.4194c5.2258 0 8.9032-1.5484 10.968-3.6774 2.0645-2.0645 4.1936-5.2258 4.1936-12.581 0-7.2903-2-10.968-4.1936-13.032z"/>
		<rect x="589.42" width="14.774" height="172.26"/>
	</g>
</svg>
