<svg xmlns="http://www.w3.org/2000/svg" width="800" height="431.083" fill-rule="evenodd" ><path mask="none" d="M704.066 182.185a53.497 53.497 0 1 1 0-106.993 53.495 53.495 0 1 1 0 106.989zm-460.374 0a53.497 53.497 0 1 1 0-106.993 53.495 53.495 0 1 1 0 106.989zM704.189 32.462c-52.914 0-95.811 42.91-95.811 95.846a90.022 90.022 0 0 0 .097 3.78h-62.611v38.519h50.251c-8.47 18.36-27.029 31.112-48.571 31.112a53.497 53.497 0 0 1 .004-106.993 53.143 53.143 0 0 1 24.98 6.198l30.945-30.963c-16.255-11.701-35.78-17.987-55.807-17.965a95.5 95.5 0 0 0-67.767 28.092h-83.613v38.519h50.246c-8.47 18.365-27.024 31.112-48.567 31.112a53.495 53.495 0 1 1 0-106.989 53.363 53.363 0 0 1 41.042 19.209l30.243-30.259C451.719 12.229 426.33 0 398.088 0c-39.771 0-73.881 24.246-88.374 58.769a95.429 95.429 0 0 0-64.453-26.273v-.035H0v42.431h62.989v53.793c0 58.681 27.952 110.813 71.253 143.842l30.418-30.426c-35.78-25.024-59.226-66.527-59.226-113.415V74.892h58.822a95.429 95.429 0 0 0-16.251 53.415c0 52.936 42.897 95.851 95.811 95.851 39.771 0 73.881-24.251 88.374-58.774a95.429 95.429 0 0 0 65.899 26.308 95.36 95.36 0 0 0 57.077-18.862c10.989 40.813 48.229 70.857 92.501 70.857 36.967 0 69.024-20.954 85.002-51.626 17.547 19.688 43.077 32.097 71.516 32.097 52.923 0 95.815-42.914 95.815-95.851s-42.897-95.846-95.811-95.846z" fill="#ec6500"/><path d="M249.468 305.237c-7.008.051-13.583 1.405-19.712 4.095-6.4 2.743-11.886 6.48-16.458 11.204-4.724 4.724-8.461 10.21-11.204 16.458-2.743 6.4-4.112 13.176-4.112 20.338v68.952h26.743v-68.952c0-3.505.689-6.774 2.06-9.821s3.2-5.716 5.486-8.001 4.945-4.114 7.993-5.486a23.14 23.14 0 0 1 9.203-2.043zm4.989 63.675q0-13.029 4.8-24.229 5.029-11.429 13.486-19.657 8.457-8.457 19.657-13.257 11.429-5.029 24.457-5.029 13.029 0 24.229 5.029 11.429 4.8 19.657 13.257 8.457 8.229 13.257 19.657 5.029 11.2 5.029 24.229v57.371h-26.514v-6.4q-15.543 11.2-35.657 11.2-14.171 0-25.829-4.8-11.429-4.8-19.657-13.257-8-8.457-12.571-19.657-4.343-11.429-4.343-24.457zm26.743 0q0 7.314 2.743 13.943 2.971 6.4 7.771 11.2 4.8 4.8 11.2 7.771 6.629 2.743 13.943 2.743 7.314 0 13.714-2.514 6.629-2.743 11.429-7.543 4.8-4.8 7.543-11.2 2.971-6.629 2.971-14.4 0-7.314-2.971-13.714-2.743-6.629-7.543-11.429-4.8-4.8-11.429-7.543-6.4-2.971-13.714-2.971-7.314 0-13.943 2.971-6.4 2.743-11.2 7.543-4.8 4.8-7.771 11.429-2.743 6.4-2.743 13.714zm234.829 0c0 8.838-1.6 17.067-4.8 24.686-3.2 7.467-7.619 14.019-13.257 19.657-5.638 5.486-12.267 9.829-19.886 13.029-7.467 3.2-15.543 4.8-24.229 4.8s-16.838-1.6-24.457-4.8c-7.467-3.352-14.019-7.771-19.657-13.257-5.486-5.638-9.905-12.19-13.257-19.657-3.2-7.619-4.8-15.771-4.8-24.457s1.6-16.762 4.8-24.229c3.352-7.619 7.771-14.171 13.257-19.657 5.638-5.638 12.19-10.057 19.657-13.257 7.619-3.352 15.771-5.029 24.457-5.029 6.552 0 13.105 1.371 19.657 4.114 6.705 2.59 12.038 5.714 16 9.371v-46.605h26.514zm-26.514 0c0-4.876-.99-9.448-2.971-13.714-1.829-4.419-4.343-8.229-7.543-11.429s-7.01-5.714-11.429-7.543c-4.267-1.981-8.838-2.971-13.714-2.971s-9.524.99-13.943 2.971c-4.267 1.829-8 4.343-11.2 7.543s-5.79 7.01-7.771 11.429c-1.829 4.267-2.743 8.838-2.743 13.714s.914 9.524 2.743 13.943c1.981 4.267 4.571 8 7.771 11.2s6.933 5.79 11.2 7.771c4.419 1.829 9.067 2.743 13.943 2.743s9.448-.914 13.714-2.743c4.419-1.981 8.229-4.571 11.429-7.771s5.714-6.933 7.543-11.2c1.981-4.419 2.971-9.067 2.971-13.943zm41.285-59.456h26.971v116.827H530.8zm-2.971-28.06c0-4.876 1.6-8.914 4.8-12.114s7.086-4.8 11.657-4.8c4.876 0 8.914 1.6 12.114 4.8s4.8 7.238 4.8 12.114c0 4.571-1.6 8.457-4.8 11.657s-7.238 4.8-12.114 4.8c-4.571 0-8.457-1.6-11.657-4.8s-4.8-7.086-4.8-11.657zm43.481 87.516q0-13.029 4.8-24.229 5.029-11.429 13.486-19.657 8.457-8.457 19.657-13.257 11.429-5.029 24.457-5.029 13.029 0 24.229 5.029 11.429 4.8 19.657 13.257 8.457 8.229 13.257 19.657 5.029 11.2 5.029 24.229 0 13.029-5.029 24.457-4.8 11.2-13.257 19.657-8.229 8.229-19.657 13.257-11.2 4.8-24.229 4.8-13.029 0-24.457-4.8-11.2-5.029-19.657-13.257-8.457-8.457-13.486-19.657-4.8-11.429-4.8-24.457zm26.743 0q0 7.314 2.743 13.943 2.971 6.4 7.771 11.2 4.8 4.8 11.2 7.771 6.629 2.743 13.943 2.743 7.314 0 13.714-2.743 6.629-2.971 11.429-7.771 4.8-4.8 7.543-11.2 2.971-6.629 2.971-13.943 0-7.314-2.971-13.714-2.743-6.629-7.543-11.429-4.8-4.8-11.429-7.543-6.4-2.971-13.714-2.971-7.314 0-13.943 2.971-6.4 2.743-11.2 7.543-4.8 4.8-7.771 11.429-2.743 6.4-2.743 13.714z" fill="#aa237f"/></svg>