<?xml version="1.0" encoding="UTF-8"?>
<svg width="800" height="285.7" fill-rule="evenodd" version="1.1" xmlns="http://www.w3.org/2000/svg">
 <path d="m501.79 212.08v-15.6h-4.6051c-16.401 0-29.695 13.207-29.695 29.497v9.0687c-6e-3 7.6657-6.2655 13.883-13.985 13.883h-4.6107v15.606h4.6079c16.401 0 29.695-13.207 29.695-29.5v-9.0659c3e-3 -7.6685 6.2627-13.886 13.985-13.886zm-55.504-15.6h-15.71v40.309c0 7.6459-6.24 13.841-13.937 13.841s-13.94-6.1976-13.94-13.846v-40.303h-15.708v40.303c0 16.268 13.275 29.452 29.647 29.452s29.647-13.184 29.647-29.452zm-83.983 68.049h15.713v-89.151h-15.71zm-6.3843-33.958c0-19.733-16.104-35.729-35.967-35.729s-35.969 15.996-35.969 35.726v55.128h15.71v-25.599c5.9766 4.0558 13.036 6.2175 20.259 6.2033 19.863 0 35.967-15.996 35.967-35.729zm-15.71 0c0 11.114-9.0687 20.123-20.256 20.123s-20.259-9.0093-20.259-20.123c0-11.114 9.0716-20.123 20.259-20.123s20.256 9.0093 20.256 20.123z" fill="#306e52" stroke-width="2.8287"/>
 <path d="m352.38 156.79c23.01 0.0235 44.105-12.811 54.661-33.257 19.795 22.234 52.644 27.164 78.091 11.72 25.445-15.444 36.227-46.854 25.641-74.677-10.584-27.823-39.517-44.127-68.79-38.756-29.277 5.3725-50.546 30.889-50.557 60.658-0.0141 0.81896 0.0141 1.6382 0.09 2.4538h-40.311v24.799h32.326c-13.047 28.265-53.917 26.08-63.883-3.408-9.9654-29.489 21.202-56.019 48.721-41.463l19.886-19.891c-24.51-17.572-58.14-14.804-79.446 6.539h-53.849v24.799h32.326c-14.484 31.274-60.825 24.192-65.328-9.9634-4.5021-34.156 38.422-53.004 60.517-26.551l19.433-19.437c-30.261-33.534-85.12-24.207-102.6 17.442-11.222-10.638-26.033-16.669-41.494-16.893h-157.81v27.342h40.495v34.606c-0.050831 36.334 16.913 70.595 45.841 92.58l19.612-19.621c-23.894-16.597-38.142-43.847-38.136-72.94v-34.606h37.862c-20.275 30.23-10.085 71.353 21.958 88.619 32.043 17.266 71.992 3.161 86.091-30.397 11.449 10.853 26.626 16.9 42.402 16.893 13.224 0.0315 26.099-4.2402 36.682-12.17 7.29 26.903 31.707 45.581 59.577 45.578zm100.62-108.36c30.674-0.01188 46.042 37.07 24.359 58.76-21.683 21.692-58.771 6.3388-58.771-24.336 0.017-19 15.411-34.399 34.411-34.425zm-296.16 68.759c-30.674 0.0119-46.042-37.07-24.359-58.76 21.683-21.692 58.771-6.3388 58.771 24.336-0.0198 19.012-15.435 34.416-34.448 34.419z" fill="#ec6500" stroke-width="4.4942"/>
 <path d="m666.37 0.39538c-25.131 0-45.364 20.232-45.364 45.364v42.905h-42.905c-25.131 0-45.364 20.232-45.364 45.364s20.232 45.364 45.364 45.364h42.905v42.905c0 25.131 20.232 45.364 45.364 45.364 25.131 0 45.364-20.232 45.364-45.364v-42.905h42.9c25.131 0 45.364-20.232 45.364-45.364s-20.232-45.364-45.364-45.364h-42.9v-42.905c0-25.131-20.232-45.364-45.364-45.364z" fill="#ec6500" style="paint-order:markers stroke fill"/>
</svg>
