<svg xmlns="http://www.w3.org/2000/svg" width="182" height="101"  fill-rule="evenodd"><path mask="none" d="M160.175 41.447a12.17 12.17 0 1 1 0-24.341 12.17 12.17 0 1 1 0 24.34zm-104.735 0a12.17 12.17 0 1 1 0-24.341 12.17 12.17 0 1 1 0 24.34zM160.203 7.385c-12.038 0-21.797 9.762-21.797 21.805a20.48 20.48 0 0 0 .022.86h-14.244v8.763h11.432c-1.927 4.177-6.149 7.078-11.05 7.078a12.17 12.17 0 0 1 .001-24.341 12.09 12.09 0 0 1 5.683 1.41l7.04-7.044c-3.698-2.662-8.14-4.092-12.696-4.087-5.785-.007-11.334 2.293-15.417 6.391H90.155v8.763h11.431c-1.927 4.178-6.148 7.078-11.049 7.078a12.17 12.17 0 1 1 0-24.34 12.14 12.14 0 0 1 9.337 4.37l6.88-6.884C102.766 2.782 96.99 0 90.565 0 81.517 0 73.757 5.516 70.46 13.37a21.71 21.71 0 0 0-14.663-5.977v-.008H0v9.653h14.33v12.238c0 13.35 6.359 25.21 16.21 32.724l6.92-6.922c-8.14-5.693-13.474-15.135-13.474-25.802V17.038h13.382a21.71 21.71 0 0 0-3.697 12.152c0 12.043 9.759 21.806 21.797 21.806 9.048 0 16.808-5.517 20.105-13.371a21.71 21.71 0 0 0 14.992 5.985c4.866 0 9.358-1.596 12.985-4.291 2.5 9.285 10.972 16.12 21.044 16.12 8.41 0 15.703-4.767 19.338-11.745 3.992 4.479 9.8 7.302 16.27 7.302 12.04 0 21.798-9.763 21.798-21.806s-9.759-21.805-21.797-21.805z" fill="#ec6500"/><path mask="none" d="M181 74.975V69.46h-1.628c-5.798 0-10.498 4.669-10.498 10.428v3.206c-.002 2.71-2.215 4.908-4.944 4.908h-1.63v5.517h1.629c5.798 0 10.498-4.669 10.498-10.429v-3.205c.001-2.711 2.214-4.909 4.944-4.909H181zm-19.622 8.732V69.46h-5.554v14.25c0 2.703-2.206 4.893-4.927 4.893s-4.928-2.191-4.928-4.895V69.46h-5.553v14.248c0 5.751 4.693 10.412 10.481 10.412s10.481-4.661 10.481-10.412zm-29.69 9.81h5.555V62h-5.554v31.518zm-2.257-12.005c0-6.976-5.693-12.631-12.715-12.631S104 74.536 104 81.511V101h5.554v-9.05a12.71 12.71 0 0 0 7.162 2.193c7.022 0 12.715-5.655 12.715-12.631zm-5.554 0c0 3.929-3.206 7.114-7.161 7.114s-7.162-3.185-7.162-7.114 3.207-7.114 7.162-7.114 7.161 3.185 7.161 7.114z" fill="#306e52"/></svg>