<svg xmlns="http://www.w3.org/2000/svg" width="800.013" height="175.578" viewBox="0 0 211.67 46.455" ><path d="M-153.78 175.28l8.349-.002.002 33.781h-8.351zm-111.51 4.78h8.353v5.708h5.37v6.786l-5.37.001v6.867c0 .771-.027 1.553.16 2.308.214.668.811 1.145 1.431 1.425 1.122.458 2.391.29 3.503-.113l1.034 5.498c-2.364.977-4.959 1.398-7.508 1.155-1.594-.138-3.283-.57-4.436-1.749-.798-.822-1.583-1.702-2.035-2.769-.382-1.022-.466-2.129-.499-3.211l-.001-9.41-3.448-.001v-6.787l3.448-.001zm92.15 5.66c1.639-.548 3.389-.721 5.109-.632 1.739.092 3.478.491 5.027 1.3 2.469 1.285 4.396 3.533 5.374 6.132.658 1.752.933 3.637.895 5.505v1.468l-16.677.001c.15 1.299.726 2.583 1.738 3.435 1.294 1.119 3.252 1.342 4.793.626a6.04 6.04 0 0 0 2.839-2.758l6.668 2.41c-.35.783-.87 1.473-1.327 2.194-.667 1.1-1.765 1.839-2.861 2.464-1.285.734-2.674 1.294-4.129 1.578-1.844.373-3.752.403-5.613.135-1.603-.242-3.178-.76-4.567-1.606-1.175-.71-2.217-1.636-3.072-2.709-1.006-1.269-1.704-2.771-2.062-4.349-.423-1.859-.45-3.799-.152-5.678.263-1.592.822-3.14 1.685-4.505 1.471-2.311 3.714-4.162 6.332-5.011m1.554 5.641c-1.105.848-1.678 2.226-1.826 3.579l8.776.002c-.039-.542-.066-1.09-.228-1.613-.339-1.263-1.355-2.326-2.622-2.674-1.374-.376-2.968-.209-4.101.706zm-67.464-4.991c1.318-.934 2.979-1.235 4.566-1.222l1.978.143-1.449 7.963c-1.354-.411-2.817-.534-4.2-.194-.663.161-1.307.489-1.735 1.032-.524.664-1.032 1.387-1.202 2.233-.144.712-.181 1.441-.181 2.167l-.002 10.567-8.355-.005-.002-23.283 8.357-.005.005 3.729c.417-1.225 1.144-2.377 2.219-3.124zm11.67.34c2.123-1.484 4.884-1.877 7.387-1.33 1.326.3 2.581.973 3.499 1.985.305.369.528.797.776 1.205v-2.8l8.404-.002v23.293l-8.404-.001v-2.88c-.598 1.074-1.438 2.033-2.522 2.632-.995.569-2.136.842-3.273.919-1.671.12-3.389-.14-4.904-.875-2.542-1.247-4.351-3.682-5.232-6.332-.775-2.409-.929-4.997-.601-7.498.253-1.803.848-3.569 1.833-5.106.8-1.246 1.812-2.37 3.036-3.209m7.099 5.323c-.818.074-1.618.38-2.247.912-1.081.885-1.676 2.251-1.811 3.623-.124 1.34-.005 2.75.615 3.964.527 1.049 1.454 1.927 2.598 2.251 1.069.296 2.256.248 3.267-.226 1.237-.598 2.09-1.82 2.425-3.132.255-.926.267-1.9.197-2.851-.149-1.502-.892-2.98-2.158-3.838-.835-.586-1.883-.784-2.886-.703zm117.332-6.784c1.756-.232 3.587-.088 5.243.568 1.956.769 3.556 2.282 4.64 4.062.757 1.242 1.253 2.629 1.533 4.053.296 1.448.325 2.931.278 4.403-.113 2.46-.73 4.949-2.103 7.02-.774 1.175-1.769 2.214-2.953 2.98-1.042.671-2.23 1.102-3.452 1.292-1.492.223-3.053.184-4.491-.305a6.07 6.07 0 0 1-2.99-2.256c-.241-.327-.426-.688-.629-1.037l-.002 11.745-8.351-.001v-32.006l8.349-.002.006 3.094c.319-.702.708-1.389 1.271-1.927.958-.99 2.308-1.499 3.65-1.684m-1.54 6.893c-1.263.162-2.393.946-3.07 2.013-.897 1.392-1.028 3.143-.771 4.743.207 1.304.885 2.57 1.994 3.319 1.145.771 2.641.922 3.957.569 1.445-.391 2.511-1.661 2.929-3.062.366-1.256.386-2.605.099-3.879-.302-1.304-1.079-2.535-2.25-3.219-.868-.5-1.91-.618-2.889-.485zm-102.359-6.382l.001.002h-.001l9.578 23.294h6.601l9.578-23.296h-8.83l-2.909 8.528c-.291.843-.579 1.692-.724 2.575l-.416 2.712c-.085-.911-.25-1.812-.416-2.712-.145-.882-.433-1.731-.724-2.575l-2.909-8.528zm62.58 0l8.439 11.014-9.325 12.277 10.005.002 2.665-3.831c.352-.508.727-1.006.978-1.574.315-.65.495-1.35.686-2.043.192.693.371 1.393.686 2.043.251.568.625 1.067.978 1.574l2.665 3.831 10.005-.002-9.325-12.277 8.439-11.014h-10.012l-1.85 2.834-.975 1.574c-.328.662-.432 1.399-.612 2.109-.18-.71-.284-1.447-.612-2.109-.274-.555-.644-1.053-.975-1.574l-1.85-2.834h-10zm58.079-11.88h3.462v8.24h1.317v2.389h-1.317v2.34h-3.088v-2.34h-5.412l-.228-1.967zm-2.162 8.24h2.536v-3.267c0-.52.083-1.105.244-1.772l-.439 1.138c-.083.195-.179.357-.276.52zm8.354-8.24h3.316v5.835l3.624-5.835h3.803l-4.096 6.274 4.616 6.696h-3.868l-4.079-6.209v6.209h-3.316z" transform="matrix(1.0583 0 0 1.0583 284.41 -184.02)" fill="#d9283f"/></svg>