<svg xmlns="http://www.w3.org/2000/svg" width="1000" height="373.495" viewBox="0 -301.5 1000 373.495"><path d="M167.043-301.5v91.107l161.616.105L364.3-37.007h4.36l35.645-173.282h134.977L456.917 63.745h-180.86L217.1-133.557h-50.07v87.772c0 21.595 7.19 30.403 24.826 30.403 8.678 0 19.33 0 30.875-2.77v78.28c-36.9 7.98-65.59 11.868-87.7 11.868-65.585 0-98.84-25.76-98.84-76.56v-128.997H0v-76.834h36.2v-45.7z" fill="#cf003d"/><path d="M554.845-210.29h437.36L909.828 63.745H472.47z" fill="#d1d3d4"/><path d="M575.2-128.337l3.903 28.507 21-28.507h17.702l-20.53 68.185h-13.487l5.68-18.873 9.33-26.928-26.14 27.535-8.834-29.08-7.626 29.363-5.38 17.983H537.4l20.484-68.185zm69.1 54.23h-18.123l-7.725 13.956h-14.6l41.183-68.185h12.316l.262 68.185h-13.9zM632.566-85.58h12.27l1.157-24.165zm45.84 25.428h-13.44l20.53-68.185h13.44zm61.926 0H727.22l-6.14-45.2-13.622 45.2h-13.44l20.484-68.185h13.16l6.18 45.238 13.628-45.238h13.394zM559.472-6.46h-20.746l-8.366 27.817h-13.44l20.484-68.185h36.715l-3.475 11.473h-23.228l-5.268 17.468h20.793zm37.406-1.74h-6.837l-8.912 29.557h-13.44l20.484-68.185 20.6.047c6.064.187 10.493 2.06 13.287 5.62s3.55 8.414 2.266 14.564c-3.146 8.987-9.973 12.194-13.788 14.84l1.876 32.366-.095.75h-14.424zm-3.4-11.473l7.06.094c6.76.1 9.907-6.122 10.777-9.22.62-2.205-1.114-6.5-4.557-6.5l-8.564-.047zM660.445 7.4h-18.123l-7.725 13.956h-14.6L661.17-46.83h12.316l.262 68.185h-13.9zM648.7-4.072h12.27l1.157-24.165zm77.454 25.43H713.04l-6.14-45.2-13.622 45.2h-13.44l20.484-68.185h13.16l6.18 45.238L733.3-46.828h13.394zm40.872-26.132l-7.756 7.212-5.687 18.92h-13.44l20.484-68.185h13.44l-8.75 28.988 24.86-28.988h17.187L778.8-16.248l7.668 37.605h-15.314zm73.104-3.37h-20.793l-5.44 18.077h24.633l-3.47 11.427h-38.026l20.484-68.185h37.98l-3.475 11.473H827.53l-4.86 16.1h20.84zm54.746 29.503h-13.113l-6.14-45.2L862 21.357h-13.44l20.484-68.185h13.16l6.18 45.238 13.628-45.238h13.394z" fill="#fff"/><path d="M992.204-210.29H1000L917.624 63.745h-7.796z" fill="#cf003d"/></svg>