<svg xmlns="http://www.w3.org/2000/svg" width="772" height="371" viewBox="0 0 771.864 370.508"><g transform="matrix(1.333333 0 0 -1.333333 -.252084 371.328003)"><path d="M247.978 32.646c-1.408 0-2.593-1.185-2.593-2.56a2.65 2.65 0 0 1 2.656-2.656c1.472 0 2.625 1.153 2.625 2.593 0 1.504-1.248 2.624-2.688 2.624zm6.974 0c-1.407 0-2.59-1.185-2.59-2.56a2.65 2.65 0 0 1 2.656-2.656c1.472 0 2.624 1.153 2.624 2.593 0 1.504-1.247 2.624-2.688 2.624zm-153.6-7.072c-5.567 0-7.36-5.12-7.36-7.935 0-1.76.513-3.103 1.313-4.223.832-1.152 1.95-2.08 3.23-3.072.416-.288.8-.577 1.088-.93.32-.352.51-.767.51-1.343 0-1.056-1.023-1.6-1.92-1.6-1.664 0-3.232 1.344-4.128 2.688v-7.55c1.536-.64 3.23-.993 4.896-.993 4.543 0 7.68 3.585 7.68 8.064 0 1.824-.416 3.103-1.184 4.19-.736 1.088-1.825 1.985-3.2 2.944-.352.288-.832.607-1.184.992s-.64.833-.64 1.345c0 .928.928 1.47 1.696 1.47 1.504 0 3.073-1.375 3.84-2.59v7.327c-1.376.736-3.073 1.216-4.64 1.216zm214.815 0c-6.623 0-9.215-6.59-9.215-12.48s2.592-12.48 9.215-12.48 9.215 6.592 9.215 12.48-2.592 12.48-9.215 12.48zM2.7 25.157V1.03h6.527v9.248H13.9v5.695H9.237v3.488h4.992v5.695zm20.505 0V1.03h12.127v5.695h-5.6v3.68h5.024v5.695h-5.024v3.36h5.6v5.695zm21.078 0V1.03h6.527v6.432c0 1.184-.065 2.367-.097 3.55l.064.064L54.403 1.03h7.072L56.6 11.08c2.592 1.024 3.744 3.392 3.744 6.048 0 6.368-4.095 8.03-9.76 8.03zm24.43 0V1.03h6.27v7.072c0 2.272-.287 4.512-.447 6.784l.063.063 4.863-13.92h6.272v24.126h-6.272v-6.144c0-2.784.48-5.535.737-8.32l-.064-.064-5.215 14.527zm46.187 0V1.03h12.126v5.695h-5.6v3.68h5.024v5.695h-5.024v3.36h5.6v5.695zm21.076 0V1.03h6.527v9.79h3.104V1.03h6.527v24.126h-6.527V16.52h-3.104v8.638zm25.15 0V1.03h12.127v5.695h-5.6v3.68h5.024v5.695h-5.024v3.36h5.6v5.695zm21.078 0V1.03h6.27v7.072c0 2.272-.288 4.512-.448 6.784l.064.063 4.863-13.92h6.272v24.126h-6.272v-6.144c0-2.784.48-5.535.737-8.32l-.064-.064-5.216 14.527zm40.748 0V1.03h6.527v9.248h4.67v5.695h-4.67v3.488h4.992v5.695zm20.344 0V9.384c0-2.912.64-8.77 8.19-8.77s8.19 5.856 8.19 8.77v15.773h-6.526V9.96c0-.608.032-1.44-.16-2.112-.16-.64-.575-1.15-1.504-1.15-.895 0-1.31.512-1.503 1.184-.192.64-.16 1.472-.16 2.112v15.166zm25.175 0V1.03h6.527v6.432c0 1.184-.063 2.367-.095 3.55l.063.064L278.59 1.03h7.072L280.8 11.08c2.592 1.024 3.744 3.392 3.744 6.048 0 6.368-4.096 8.03-9.76 8.03zm65.15 0V1.03h8.767c5.824 0 7.616 3.905 7.616 6.88 0 3.232-1.696 5.215-4.896 5.47v.064c2.752 0 4.512 2.11 4.512 4.83 0 5.216-4.48 6.88-8.32 6.88zm24.628 0V1.03h12.127v5.695h-5.6v3.68h5.024v5.695h-5.024v3.36h5.6v5.695zm21.078 0V1.03h6.526v6.432c0 1.184-.063 2.367-.094 3.55l.063.064 3.615-10.047h7.072l-4.865 10.047c2.592 1.024 3.744 3.392 3.744 6.048 0 6.368-4.096 8.03-9.76 8.03zm24.43 0V1.03h6.527v9.248h4.67v5.695h-4.67v3.488h4.992v5.695zm20.505 0V1.03h6.527v6.432c0 1.184-.065 2.367-.097 3.55l.064.064L434.38 1.03h7.072l-4.865 10.047c2.592 1.024 3.744 3.392 3.744 6.048 0 6.368-4.095 8.03-9.76 8.03zm28.56 0L447.037 1.03h6.72l.543 3.104h4.384l.48-3.104h6.75l-5.12 24.126zm20.344 0V1.03h6.272v7.072c0 2.272-.288 4.512-.448 6.784l.064.063 4.863-13.92h6.27v24.126h-6.27v-6.144c0-2.784.48-5.535.737-8.32l-.064-.064-5.216 14.527zm25.973 0V1.03h6.527v11.07h.032l4.063-11.07h7.008l-5.823 12.48 5.215 11.647h-6.88l-3.585-10.27h-.032v10.27zm25.4 0V1.03h12.127v5.695h-5.6v3.68h5.024v5.695h-5.024v3.36h5.6v5.695zm21.078 0V1.03h6.27v7.072c0 2.272-.287 4.512-.448 6.784l.064.063 4.863-13.92h6.272v24.126h-6.272v-6.144c0-2.784.48-5.535.735-8.32l-.063-.064-5.216 14.527zM50.82 19.975c1.792.096 3.072-.8 3.072-2.912 0-1.568-.928-3.072-2.656-3.072l-.416.032zm224.187 0c1.792.096 3.072-.8 3.072-2.912 0-1.568-.928-3.072-2.656-3.072l-.416.032zm110.854 0c1.793.096 3.073-.8 3.073-2.912 0-1.568-.93-3.072-2.657-3.072l-.416.032zm44.937 0c1.792.096 3.072-.8 3.072-2.912 0-1.568-.928-3.072-2.656-3.072l-.416.032zm-90.643-.032h.64c1.344 0 2.336-.608 2.336-2.048 0-1.568-1.247-2.112-2.59-2.112h-.385zm-23.988-.448c2.464 0 2.56-4.896 2.56-6.4s-.096-6.398-2.56-6.398-2.56 4.895-2.56 6.398.096 6.4 2.56 6.4zm140.502-.095h.064l.48-4.544.705-5.6h-2.752l.896 5.6c.256 1.504.416 3.04.608 4.544zm-116.514-8.512h.514c1.503 0 2.75-.673 2.75-2.304s-1.28-2.335-2.72-2.335h-.546z" fill="#ed4045"/><g fill-rule="evenodd"><path d="M471.207 249.576c-51.298 0-92.88-41.583-92.88-92.88 0-4.37.3-8.67.885-12.88 2.042-14.718 7.532-28.332 15.627-40.002h.002c16.77-24.17 44.72-39.998 76.367-39.998s59.598 15.828 76.367 40c8.097 11.668 13.586 25.283 15.628 40 .584 4.2.885 8.51.885 12.88 0 51.297-41.583 92.88-92.88 92.88zm.01-69.62c12.84 0 23.25-10.41 23.25-23.25 0-4.768-1.433-9.2-3.895-12.89-4.168-6.245-11.282-10.36-19.355-10.36s-15.184 4.115-19.352 10.36c-2.46 3.69-3.898 8.12-3.898 12.89 0 12.84 10.4 23.25 23.25 23.25z" fill="#fff"/><path d="M471.207 242.673c-38.41 0-70.94-25.188-81.968-59.95-2.604-8.21-4.008-16.955-4.008-26.026 0-7.598.984-14.964 2.834-21.976 9.713-36.84 43.255-64 83.142-64s73.43 27.16 83.142 63.997l-62.493.003c-5.396-5.07-12.66-8.178-20.648-8.178a30.05 30.05 0 0 0-20.648 8.179c-5.85 5.5-9.505 13.3-9.505 21.974 0 11.088 5.984 20.778 14.9 26.02h.008a30 30 0 0 0 15.248 4.133 30.05 30.05 0 0 0 15.249-4.129c8.918-5.24 14.905-14.934 14.905-26.025 0-8.664-3.654-16.474-9.505-21.974H554.348c1.85 7.012 2.834 14.38 2.834 21.976 0 9.07-1.403 17.81-4.006 26.02-11.024 34.766-43.556 59.96-81.97 59.96z" fill="#ed4045"/></g><path d="M161.514 244.613l70.44-177.158 83.495-.07 9.606 24.77-60.8 152.458zm124.134 0l50.316-125.2 49.295 125.2z" fill="#fff"/><path d="M295.922 237.68l19.98-49.838 10.015-24.9 10.047-24.896 39.126 99.644zm-124.134-.14l64.707-163.05h74.628c1.628 7.955 9.383 15.76 4.017 23.576L259.647 237.54z" fill="#fabf2b"/><path d="M107.082 67.348h3.73l-.07 88.034v37.72h49.366l-20.478 51.512H110.67l-.035 33.883-95.317-23.152.035-9.64v-1.1H.19l.07-51.442h15.13l.035-48.426c0-8.912-.834-18.63 1.055-27.398 8.012-37.185 54.27-49.536 86.908-50h3.694" fill="#fff"/><path d="M100.68 74.104h3.166l-.07 125.682h46.374l-15.2 37.966H103.6l-.035 31.666-81.56-19.492v-12.174H6.98c.236-12.627-.163-25.27.07-37.895h14.99l.035-48.51c0-32.737-.084-50.975 32.488-66.747 14.613-7.076 26.656-10.09 42.915-10.497h3.202" fill="#fabf2b"/></g></svg>