<svg width="800" height="125.47" version="1.1" xmlns="http://www.w3.org/2000/svg">
	<g fill="#fff">
		<path d="m34.849 82.833c3.181 0 6.9999-0.69515 11.458-2.0884v13.544c-4.5376 2.0297-10.108 3.0446-16.71 3.0446-7.28 0-12.582-1.8376-15.903-5.5202-3.3218-3.6796-4.9804-9.1968-4.9804-16.559v-32.162h-8.7129v-7.698l10.025-6.0862 5.2518-14.083h11.636v14.204h18.677v13.664h-18.678v32.163c0 2.5885 0.72595 4.495 2.1778 5.7284s3.3716 1.8493 5.7592 1.8493zm53.047-15.397c-1.5516 4.6153-2.4462 9.1704-2.6838 13.665h-0.4781c-0.39744-4.9731-1.2524-9.5268-2.5665-13.665l-12.888-38.009h-19.036l25.42 66.711h18.678l25.418-66.711h-19.035zm56.628 12.294a8.949 8.949 0 0 0-3.3115-1.732 14.387 14.387 0 0 0-3.9685-0.53677c-1.4724 0-2.8451 0.17893-4.1181 0.53677a8.9299 8.9299 0 0 0-3.3408 1.732c-0.95474 0.79635-1.6998 1.8405-2.238 3.1326-0.5353 1.295-0.80514 2.8774-0.80514 4.7443 0 1.7892 0.26984 3.3232 0.80514 4.5948 0.53823 1.273 1.2832 2.326 2.238 3.1619 0.95473 0.83448 2.0678 1.4416 3.3408 1.82a14.387 14.387 0 0 0 4.1181 0.56609c1.3918 0 2.7161-0.18772 3.9685-0.56609a8.8654 8.8654 0 0 0 3.3115-1.82c0.95474-0.83594 1.71-1.8889 2.2673-3.1619 0.5573-1.2715 0.83594-2.8055 0.83594-4.5948 0-1.8669-0.27864-3.4508-0.83594-4.7443-0.55729-1.292-1.3111-2.3362-2.2673-3.1326zm24.261-72.679c-3.0959 0-4.6446 1.7511-4.6446 5.2547 0 3.5858 1.5487 5.3764 4.6446 5.3764 3.2558 0 4.8881-1.7907 4.8881-5.3764 0-3.5036-1.6323-5.2547-4.8881-5.2547zm-3.4215 89.088h6.8415v-65.014h-6.8415zm57.437-66.236c-5.5422 0-10.168 1.1835-13.872 3.5447-3.7075 2.3626-6.4162 5.3383-8.1262 8.9211h-0.4869l-0.97967-11.244h-5.6213v65.014h6.843v-35.44c0-16.456 7.1715-24.687 21.51-24.687 5.4571 0 9.5913 1.4666 12.403 4.3997 2.8099 2.9346 4.2178 7.4971 4.2178 13.689v42.038h6.9647v-42.527c0-8.1468-1.9549-14.135-5.8663-17.964-3.9099-3.8307-9.5723-5.7445-16.986-5.7445zm89.82 1.2216h5.6213v67.094c0 8.5559-2.1808 15.232-6.5365 20.041-4.3586 4.8074-11.508 7.2111-21.449 7.2111-4.8866 0-9.2056-0.40771-12.953-1.2216-3.75-0.81541-7.17-1.8757-10.264-3.178v-6.7213c3.0944 1.5472 6.6171 2.7879 10.571 3.7295 3.9495 0.9342 8.248 1.4035 12.89 1.4035 7.0908 0 12.324-1.8757 15.707-5.6243 3.379-3.7471 5.0699-8.839 5.0699-15.274v-3.7867c0-1.713 0.0381-3.4215 0.12319-5.1359 0.0792-1.7086 0.15985-3.3775 0.24051-5.0083h-0.3637c-1.7936 4.2369-4.564 7.4135-8.311 9.5327-3.7485 2.1177-8.2289 3.178-13.441 3.178-8.4738 0-15.053-2.8525-19.736-8.5545-4.6857-5.7035-7.0278-13.934-7.0278-24.688 0-10.509 2.3421-18.839 7.0278-24.992 4.6827-6.1493 11.505-9.2262 20.467-9.2262 5.1344 0 9.389 0.97819 12.772 2.9331 3.3819 1.9549 6.0892 4.6857 8.1262 8.1878h0.36664zm-1.2202 30.796c0-8.3096-1.5267-14.704-4.5816-19.186-3.0563-4.4804-8.333-6.7227-15.827-6.7227-7.0072 0-12.262 2.4668-15.767 7.3944-3.5036 4.9291-5.2532 11.876-5.2532 20.837 0 8.88 1.7306 15.642 5.1931 20.287s8.4943 6.9662 15.092 6.9662c5.3794 0 9.5943-1.1029 12.649-3.2998 3.0563-2.1998 5.2327-5.2136 6.5365-9.0443 1.3052-3.8277 1.9579-8.1893 1.9579-13.076zm79.435-16.009c2.1998 5.0523 3.2954 10.96 3.2954 17.72 0 6.7638-1.1175 12.67-3.3584 17.72-2.2394 5.0523-5.5392 8.9827-9.8993 11.794-4.3601 2.8114-9.6764 4.2164-15.947 4.2164-6.029 0-11.205-1.3844-15.522-4.1577-4.319-2.7689-7.6379-6.6787-9.9565-11.73-2.323-5.0523-3.486-10.999-3.486-17.844 0-10.592 2.6296-18.86 7.8842-24.808 5.2562-5.9469 12.444-8.9211 21.57-8.9211 6.1904 0 11.427 1.405 15.701 4.2164 4.2809 2.8114 7.5176 6.7418 9.7189 11.793zm-3.9113 17.72c0-5.3764-0.73475-10.143-2.1998-14.298-1.468-4.1562-3.7896-7.4135-6.9662-9.7776-3.178-2.3612-7.3328-3.5447-12.466-3.5447-7.4135 0-12.956 2.4448-16.622 7.3343-3.6635 4.8866-5.4982 11.65-5.4982 20.286 0 8.311 1.7511 15.013 5.2547 20.104 3.5022 5.0934 9.0032 7.6393 16.499 7.6393 7.5792 0 13.137-2.546 16.681-7.6393 3.5462-5.0904 5.3178-11.793 5.3178-20.104zm24.929 32.506h6.9647v-92.876h-6.9647zm58.963-32.018c-3.1355-1.4666-6.6215-2.851-10.451-4.1533-3.7471-1.3038-6.9236-2.5064-9.5327-3.6063-2.6061-1.0999-4.6036-2.4022-5.9865-3.9113-1.383-1.5047-2.0767-3.5623-2.0767-6.1713 0-3.4215 1.424-6.0261 4.2765-7.8212 2.8525-1.7921 6.843-2.6882 11.979-2.6882 3.1766 0 6.3502 0.36665 9.5283 1.0999 3.178 0.73328 6.0305 1.6719 8.5574 2.8099l2.4433-5.7431c-2.7703-1.1395-5.8457-2.0987-9.2276-2.8715-3.3804-0.77434-7.0278-1.1615-10.938-1.1615-7.0864 0-12.749 1.4666-16.986 4.3997-4.2369 2.9331-6.3546 7.0072-6.3546 12.219 0 3.8307 0.85501 6.865 2.565 9.1059 1.7115 2.2409 4.0932 4.0536 7.1495 5.438 3.0549 1.3859 6.5776 2.7703 10.571 4.1548 5.9469 2.0385 10.407 4.014 13.385 5.9264 2.9698 1.9153 4.4598 4.6652 4.4598 8.2494 0 3.75-1.4284 6.7037-4.2809 8.8595-2.8525 2.1602-7.4531 3.2411-13.806 3.2411-3.8307 0-7.5777-0.46784-11.246-1.405-3.6664-0.9386-6.9251-2.1397-9.7776-3.6078v6.7213c2.3641 1.1439 5.2767 2.1221 8.7407 2.9331 3.4582 0.81688 7.4736 1.2246 12.038 1.2246 8.0646 0 14.276-1.5912 18.636-4.7693 4.3572-3.1766 6.5365-7.7376 6.5365-13.686 0-3.8277-0.91514-6.8826-2.7469-9.166-1.8361-2.279-4.319-4.1548-7.456-5.6214zm44.909 27.376c-7.3314 0-10.998-4.5625-10.998-13.689v-41.061h20.045v-5.6228h-20.045v-15.519h-4.3968l-2.4433 15.031-9.6559 2.1984v3.9128h9.6559v41.306c0 6.7638 1.4651 11.672 4.3982 14.727 2.9317 3.0548 7.0879 4.583 12.464 4.583 2.1148 0 4.0521-0.16425 5.8032-0.49129 1.7496-0.32412 3.2792-0.73329 4.5816-1.2216v-5.6228c-1.1395 0.40917-2.543 0.75675-4.2164 1.0398a30.701 30.701 0 0 1-5.1931 0.42971zm62.571-56.095c3.5843 3.5858 5.3779 9.2482 5.3779 16.987v43.749h-5.2547l-1.3448-10.996h-0.24491c-2.2849 3.6664-5.133 6.6201-8.5545 8.858-3.423 2.2394-8.1497 3.3628-14.176 3.3628-6.1933 0-11.102-1.5487-14.726-4.6461-3.6298-3.093-5.4395-7.6173-5.4395-13.564 0-6.4353 2.6281-11.366 7.8842-14.787 5.2518-3.4215 12.972-5.3368 23.157-5.7431l11.854-0.61156v-4.5214c0-6.4368-1.2832-10.977-3.8497-13.626-2.5665-2.6472-6.3356-3.9729-11.304-3.9729-3.3423 0-6.557 0.42677-9.6544 1.2832-3.0974 0.85501-6.1918 2.0987-9.2878 3.728l-2.1998-5.6213c3.0153-1.5472 6.3546-2.8114 10.021-3.7896 3.6664-0.97674 7.4546-1.4666 11.364-1.4666 7.3358 0 12.79 1.7921 16.377 5.3779zm-1.4666 27.985-10.998 0.48983c-8.3125 0.32558-14.503 1.732-18.576 4.2149-4.0756 2.4873-6.1112 6.2138-6.1112 11.183 0 3.9934 1.2627 7.0278 3.7881 9.103 2.5269 2.0811 5.9894 3.1194 10.386 3.1194 6.7623 0 11.999-1.9153 15.703-5.7445 3.7089-3.8292 5.6433-9.2071 5.8076-16.132zm72.467-60.125h6.9662v92.876h-5.6243l-0.97526-11.241h-0.36664c-1.713 3.4215-4.278 6.3546-7.6995 8.7965-3.423 2.4448-8.0265 3.6693-13.808 3.6693-8.7187 0-15.421-2.7894-20.105-8.3712-4.6857-5.5803-7.0248-13.79-7.0248-24.627 0-11.244 2.4609-19.797 7.3915-25.663 4.9277-5.8662 11.711-8.7994 20.349-8.7994 5.4586 0 9.8978 1.1835 13.321 3.5447 3.4215 2.3626 5.9469 5.3383 7.5763 8.9211h0.48983a692.78 692.78 0 0 0-0.30798-6.4778 121.04 121.04 0 0 1-0.18185-6.2314zm0.12172 60.37c0-8.9622-1.5883-15.826-4.7649-20.592-3.178-4.7663-8.3536-7.1495-15.522-7.1495-7.0058 0-12.303 2.4653-15.884 7.3944-3.5872 4.9306-5.3808 11.955-5.3808 21.08 0 8.88 1.7129 15.603 5.1344 20.165 3.4215 4.564 8.6351 6.8445 15.644 6.8445 7.4942 0 12.831-2.2805 16.009-6.8445 3.1766-4.5625 4.7649-11.121 4.7649-19.677zm51.758 27.435c-1.6719 0.28598-3.4024 0.42971-5.196 0.42971-7.3284 0-10.996-4.5625-10.996-13.689v-41.061h20.045v-5.6228h-20.045v-15.519h-4.3982l-2.4462 15.031-9.6559 2.1984v3.9128h9.6559v41.306c0 6.7638 1.468 11.672 4.4012 14.727s7.0894 4.583 12.464 4.583c2.1192 0 4.0521-0.16425 5.8017-0.49129 1.754-0.32412 3.2792-0.73329 4.583-1.2216v-5.6228c-1.141 0.40917-2.5445 0.75528-4.2134 1.0398z"/>
		<path d="m733.33 0v38.812h8.2064v-16.742h15.385v16.742h8.2093v-38.812h-8.2093v15.221h-15.385v-15.221zm34.487 0v38.812h10.979c6.7043 0 11.906-1.649 15.602-4.9468 3.7327-3.334 5.5999-8.281 5.5999-14.84 0-4.1676-0.83359-7.6445-2.5006-10.435-1.6308-2.8267-3.9497-4.9666-6.9576-6.4162-2.9716-1.4496-6.4878-2.1741-10.547-2.1741zm8.2065 6.7399h4.4054c3.5877 2e-5 6.322 1.0154 8.2065 3.0448 1.8845 1.9932 2.8272 5.1457 2.8272 9.4582 0 8.5163-3.9679 12.775-11.904 12.775h-3.5346z"/>
	</g>
</svg>
