<?xml version="1.0" encoding="UTF-8" standalone="no"?>
<!-- Created with Inkscape (http://www.inkscape.org/) -->

<svg
   xmlns:dc="http://purl.org/dc/elements/1.1/"
   xmlns:cc="http://creativecommons.org/ns#"
   xmlns:rdf="http://www.w3.org/1999/02/22-rdf-syntax-ns#"
   xmlns:svg="http://www.w3.org/2000/svg"
   xmlns="http://www.w3.org/2000/svg"
   xmlns:sodipodi="http://sodipodi.sourceforge.net/DTD/sodipodi-0.dtd"
   xmlns:inkscape="http://www.inkscape.org/namespaces/inkscape"
   width="98.174141mm"
   height="98.174141mm"
   viewBox="0 0 98.174141 98.174141"
   version="1.1"
   id="svg8"
   inkscape:version="0.92.3 (unknown)"
   sodipodi:docname="tva ostbayern hd.svg">
  <defs
     id="defs2" />
  <sodipodi:namedview
     id="base"
     pagecolor="#ffffff"
     bordercolor="#666666"
     borderopacity="1.0"
     inkscape:pageopacity="0.0"
     inkscape:pageshadow="2"
     inkscape:zoom="1.4"
     inkscape:cx="122.34125"
     inkscape:cy="104.60178"
     inkscape:document-units="mm"
     inkscape:current-layer="layer1"
     showgrid="false"
     fit-margin-top="0"
     fit-margin-left="0"
     fit-margin-right="0"
     fit-margin-bottom="0"
     inkscape:window-width="1920"
     inkscape:window-height="1013"
     inkscape:window-x="0"
     inkscape:window-y="0"
     inkscape:window-maximized="1" />
  <metadata
     id="metadata5">
    <rdf:RDF>
      <cc:Work
         rdf:about="">
        <dc:format>image/svg+xml</dc:format>
        <dc:type
           rdf:resource="http://purl.org/dc/dcmitype/StillImage" />
        <dc:title></dc:title>
        <cc:license
           rdf:resource="http://creativecommons.org/publicdomain/zero/1.0/" />
      </cc:Work>
      <cc:License
         rdf:about="http://creativecommons.org/publicdomain/zero/1.0/">
        <cc:permits
           rdf:resource="http://creativecommons.org/ns#Reproduction" />
        <cc:permits
           rdf:resource="http://creativecommons.org/ns#Distribution" />
        <cc:permits
           rdf:resource="http://creativecommons.org/ns#DerivativeWorks" />
      </cc:License>
    </rdf:RDF>
  </metadata>
  <g
     inkscape:label="Ebene 1"
     inkscape:groupmode="layer"
     id="layer1"
     transform="translate(-52.311756,-98.723034)">
    <path
       style="display:inline;opacity:1;fill:#008fd4;fill-opacity:1;stroke:none;stroke-width:0.1;stroke-miterlimit:4;stroke-dasharray:none;stroke-opacity:0.74509804"
       id="path898"
       sodipodi:type="arc"
       sodipodi:cx="101.39883"
       sodipodi:cy="147.8101"
       sodipodi:rx="49.08707"
       sodipodi:ry="49.08707"
       sodipodi:start="2.8062276"
       sodipodi:end="2.7821246"
       sodipodi:open="true"
       d="m 55.046386,163.96534 a 49.08707,49.08707 0 0 1 29.91819,-62.40949 49.08707,49.08707 0 0 1 62.588634,29.54159 49.08707,49.08707 0 0 1 -29.16391,62.76551 49.08707,49.08707 0 0 1 -62.940099,-28.78518" />
    <text
       xml:space="preserve"
       style="font-style:normal;font-weight:normal;font-size:10.58333302px;line-height:1.25;font-family:sans-serif;letter-spacing:0px;word-spacing:0px;display:inline;fill:#fbffff;fill-opacity:1;stroke:none;stroke-width:0.26458332"
       x="66.046448"
       y="167.17606"
       id="text1495"><tspan
         sodipodi:role="line"
         id="tspan1493"
         x="66.046448"
         y="167.17606"
         style="font-style:normal;font-variant:normal;font-weight:bold;font-stretch:normal;font-size:6.49111128px;font-family:Roboto;-inkscape-font-specification:'Roboto Bold';fill:#fbffff;fill-opacity:1;stroke-width:0.26458332">Fernsehen für Ostbayern</tspan></text>
    <path
       inkscape:connector-curvature="0"
       id="path886"
       d="m 121.20604,127.31936 c -0.0334,-0.003 -0.0704,10e-4 -0.10336,0.0145 -0.13744,0.0548 -6.00428,11.30476 -6.00428,11.51351 0,0.0754 0.97413,1.79285 2.16473,3.81682 1.44306,2.45315 2.15577,3.74287 2.13785,3.86901 l -0.0269,0.18966 -2.88458,-0.0269 c -2.37928,-0.022 -2.9836,-0.004 -3.45199,0.1049 -1.09527,0.25401 -1.67591,0.69581 -2.4939,1.89652 -0.63325,0.92955 -5.03734,9.3511 -4.99763,9.55653 0.0282,0.14587 0.27876,0.15159 5.44721,0.12454 2.97957,-0.0156 5.47452,-0.0445 5.54437,-0.0641 0.10309,-0.029 3.96173,-6.95155 4.32325,-7.75612 0.14799,-0.32934 0.31385,-0.35474 0.57619,-0.0889 0.12631,0.12799 0.7768,1.26141 1.44539,2.51871 1.51394,2.84702 1.60387,2.99013 2.22674,3.55379 1.1508,1.04142 3.37801,1.74799 6.24509,1.98075 1.27134,0.10321 6.66726,0.11438 6.72931,0.014 0.0277,-0.0448 -0.0428,-0.26386 -0.15606,-0.48679 -0.41357,-0.81348 -16.57859,-30.63307 -16.64085,-30.69736 -0.0176,-0.0182 -0.0472,-0.0297 -0.0806,-0.0331 z"
       style="fill:#ffdd00;fill-opacity:1;stroke:none;stroke-width:0.08466667" />
    <path
       sodipodi:nodetypes="ccccccccsccccccccccccccccccccccccscsccscccccscccc"
       inkscape:connector-curvature="0"
       id="path894"
       d="m 111.76165,127.81597 c -0.42169,0.009 -0.63726,0.0415 -0.88418,0.10232 -0.009,0.002 -0.0176,0.005 -0.0264,0.008 l -0.0331,5.3e-4 -0.0455,0.0222 c -0.57866,0.16689 -1.17103,0.53285 -1.44436,0.90227 -0.10046,0.13578 -2.04142,4.00239 -4.31343,8.59224 -2.272,4.58985 -4.16434,8.35634 -4.20543,8.37004 -0.0411,0.0137 -0.869765,-1.77661 -1.84123,-3.97806 -2.295642,-5.20219 -4.434613,-9.95804 -4.853967,-10.7921 -0.75307,-1.49778 -1.916856,-2.39783 -3.780647,-2.92385 l -0.677479,-0.19121 -10.785387,-0.0238 c -7.113567,-0.0159 -10.945199,0.006 -11.255126,0.0625 -0.647732,0.11974 -1.162249,0.38707 -1.435571,0.74517 l -0.230479,0.3018 -0.0057,0.47594 c -0.02863,0.26253 -0.02842,0.72967 -0.01913,1.58336 l -5.29e-4,0.0563 c -0.01352,1.12594 -0.0075,1.67686 0.02326,1.95027 l 0.0021,0.18086 h 0.02635 c 0.0098,0.0279 0.02,0.0482 0.03256,0.0563 0.06053,0.0393 2.14871,0.0697 4.640027,0.0677 2.833613,-0.002 4.637693,0.0284 4.818311,0.0822 0.377613,0.11254 0.654706,0.38114 0.784447,0.75913 0.081,0.236 0.105746,2.81559 0.108522,11.3962 0.0036,11.02747 0.0046,11.0928 0.177249,11.38742 0.209918,0.3582 0.745059,0.67071 1.288294,0.75189 0.392176,0.0586 4.206615,0.03 4.536157,-0.032 h 0.01344 v -0.001 c 0.0032,-8e-4 0.01895,-0.001 0.02119,-0.002 0.08402,-0.0269 0.10542,-2.564 0.10542,-12.31294 v -12.27936 h 2.186429 c 2.432053,0 2.625617,0.0317 3.336748,0.55242 0.544997,0.3991 1.087491,1.10983 1.582333,2.07223 0.227462,0.44238 2.229628,4.74772 4.449339,9.56737 3.840162,8.33813 4.900462,10.51991 5.645134,11.61738 0.358495,0.52833 0.915995,0.91705 1.274855,0.89711 0.11755,0.0115 0.18609,-0.0452 0.26614,-0.17467 0.0389,-0.063 0.30328,-0.56994 0.73587,-1.40973 0.002,-0.004 0.006,-0.012 0.008,-0.016 0.93731,-1.75438 2.80965,-5.40727 6.81251,-13.2426 4.16318,-8.14917 7.55962,-14.87394 7.54734,-14.94379 -0.0189,-0.10741 -0.39883,-0.1383 -2.46393,-0.20051 -1.07105,-0.0322 -1.69912,-0.0463 -2.1208,-0.0372 z"
       style="fill:#ffffff;fill-opacity:1;stroke:none;stroke-width:0.08466667" />
  </g>
</svg>
