<svg xmlns="http://www.w3.org/2000/svg" id="Ebene_1" width="160" height="115.699"><style id="style2"></style><linearGradient id="SVGID_1_" gradientUnits="userSpaceOnUse" x1="104.884" y1="54.485" x2="133.404" y2="32.075" gradientTransform="matrix(1.03026 0 0 -1.03026 0 131.874)"><stop offset="0" id="stop20" stop-color="#9e3026"/><stop offset=".02" id="stop22" stop-color="#a93329"/><stop offset=".09" id="stop24" stop-color="#c43b2f"/><stop offset=".17" id="stop26" stop-color="#da4234"/><stop offset=".27" id="stop28" stop-color="#eb4737"/><stop offset=".38" id="stop30" stop-color="#f64a3a"/><stop offset=".55" id="stop32" stop-color="#fd4c3c"/><stop offset="1" id="stop34" stop-color="#ff4d3c"/></linearGradient><path d="M104.469 79.845l9.478 13.703h18.751l-18.854-27.199 7.727-10.92 35.03 50.688h-49.247L96.844 90.87z" id="path37" fill="url(#SVGID_1_)" stroke-width="1.03"/><linearGradient id="SVGID_2_" gradientUnits="userSpaceOnUse" x1="92.755" y1="106.273" x2="68.505" y2="124.353" gradientTransform="matrix(1 0 0 -1 0 128)"><stop offset="0" id="stop39" stop-color="#9e3026"/><stop offset=".1" id="stop41" stop-color="#bc392d"/><stop offset=".21" id="stop43" stop-color="#d44032"/><stop offset=".33" id="stop45" stop-color="#e74637"/><stop offset=".47" id="stop47" stop-color="#f54a3a"/><stop offset=".65" id="stop49" stop-color="#fd4c3b"/><stop offset="1" id="stop51" stop-color="#ff4d3c"/></linearGradient><path id="polygon54" transform="scale(1.03026)" fill="url(#SVGID_2_)" d="M94.2 19.3l-7.4 10.8-12.4-17.9L80.8 0z"/><path id="polygon56" transform="scale(1.03026)" fill="#ff4d3c" d="M77.6 64.5l36.2-52.3H132L77.6 90.9 23.2 12.2h51.2l.4.5L81.2.6l-.4-.6H0l77.6 112.3L155.3 0h-47.9L77.6 43.2l-13-18.8H49.8z"/></svg>