<?xml version="1.0" encoding="UTF-8"?>
<svg width="918.04" height="370.04" version="1.1" viewBox="0 0 918.04 370.04" xmlns="http://www.w3.org/2000/svg" xmlns:cc="http://creativecommons.org/ns#" xmlns:dc="http://purl.org/dc/elements/1.1/" xmlns:rdf="http://www.w3.org/1999/02/22-rdf-syntax-ns#">
 <title>Vivid Entertainment logo</title>
 <metadata>
  <rdf:RDF>
   <cc:Work rdf:about="">
    <dc:format>image/svg+xml</dc:format>
    <dc:type rdf:resource="http://purl.org/dc/dcmitype/StillImage"/>
    <dc:title>Vivid Entertainment logo</dc:title>
    <cc:license rdf:resource="http://scripts.sil.org/OFL"/>
    <dc:date>9 enero 2020</dc:date>
    <dc:creator>
     <cc:Agent>
      <dc:title>EEIM</dc:title>
     </cc:Agent>
    </dc:creator>
   </cc:Work>
   <cc:License rdf:about="http://scripts.sil.org/OFL">
    <cc:permits rdf:resource="http://scripts.sil.org/pub/OFL/Reproduction"/>
    <cc:permits rdf:resource="http://scripts.sil.org/pub/OFL/Distribution"/>
    <cc:permits rdf:resource="http://scripts.sil.org/pub/OFL/Embedding"/>
    <cc:permits rdf:resource="http://scripts.sil.org/pub/OFL/DerivativeWorks"/>
    <cc:requires rdf:resource="http://scripts.sil.org/pub/OFL/Notice"/>
    <cc:requires rdf:resource="http://scripts.sil.org/pub/OFL/Attribution"/>
    <cc:requires rdf:resource="http://scripts.sil.org/pub/OFL/ShareAlike"/>
    <cc:requires rdf:resource="http://scripts.sil.org/pub/OFL/DerivativeRenaming"/>
    <cc:requires rdf:resource="http://scripts.sil.org/pub/OFL/BundlingWhenSelling"/>
   </cc:License>
  </rdf:RDF>
 </metadata>
 <defs>
  <style>.cls-1{fill:#eb2227;}</style>
 </defs>
 <g id="#d32727ff" transform="matrix(.016561 0 0 .016561 559.9 222.92)" fill="#0f0">
  <g shape-rendering="auto" stroke-linecap="square" stroke-opacity=".8" stroke-width="332.1" style="paint-order:stroke fill markers">
   <path transform="matrix(60.382 0 0 60.382 -33808 -13461)" d="m240.54 262.46-49.094 0.0156 44.49 107.54 43.428 8e-3 46.227-104.63v104.63h44.795v-107.57l-76.441-4e-3 -26.779 68.801zm179.39 2e-3 -49.131 0.0157 44.533 107.55 43.426-8e-3 45.289-102.46v102.47l44.795 8e-3v-107.57h-44.795v0.0137l-30.721-0.0156-26.785 68.803zm411.16 0s-103.77 2e-3 -155.66 2e-3l-5.3125 24.609h30.637l-20.965 82.953h44.967l20.963-82.953h31.918l4.9316-22.844 13.557 105.8 43.617-8e-3 78.285-107.54-33.643-0.0156-46.957 62.729zm-274.5 2e-3v107.57s36.264 7e-3 54.396 0c16.295-0.0137 32.819-5.0034 45.787-15.25 9.2674-7.2753 16.313-17.529 19.062-29.154l2e-3 -4e-3v-4e-3c2.6397-11.295 2.0756-23.745-3.3203-34.426-4.6324-9.2338-12.725-16.121-21.695-20.502-12.464-6.0968-26.362-8.1753-39.85-8.2227h-6e-3zm44.688 21.02c6.3512-0.0384 12.501 0.56778 17.572 3.502l0.0352 0.0215 0.0371 0.0195c6.2508 3.3685 10.323 10.178 11.572 17.338 1.2577 7.2151 0.83977 14.767-0.50195 22.137-1.4694 7.6255-5.1426 15.12-11.549 18.924l-0.0254 0.0156-0.0274 0.0156c-4.8508 3.0286-10.917 3.5987-17.166 3.584v-65.555c0.0173-1.6e-4 0.0354-2e-3 0.0527-2e-3z" color="#000000" color-rendering="auto" dominant-baseline="auto" fill="#fff" fill-opacity=".8" image-rendering="auto" solid-color="#000000" stop-color="#000000" style="font-feature-settings:normal;font-variant-alternates:normal;font-variant-caps:normal;font-variant-east-asian:normal;font-variant-ligatures:normal;font-variant-numeric:normal;font-variant-position:normal;font-variation-settings:normal;inline-size:0;isolation:auto;mix-blend-mode:normal;paint-order:stroke fill markers;shape-margin:0;shape-padding:0;text-decoration-color:#000000;text-decoration-line:none;text-decoration-style:solid;text-indent:0;text-orientation:mixed;text-transform:none;white-space:normal"/>
   <path transform="matrix(60.382 0 0 60.382 -33808 -13461)" d="m677.66 265.21-4.125 19.109h30.762l-20.965 82.953h39.295l20.963-82.953h31.84l4.125-19.109zm150.95 0-43.131 0.0137 13.076 102.05 39.797-6e-3 74.283-102.04-26.863-0.0137-50.361 67.275z" color="#000000" color-rendering="auto" dominant-baseline="auto" fill="#194078" image-rendering="auto" solid-color="#000000" stop-color="#000000" style="font-feature-settings:normal;font-variant-alternates:normal;font-variant-caps:normal;font-variant-east-asian:normal;font-variant-ligatures:normal;font-variant-numeric:normal;font-variant-position:normal;font-variation-settings:normal;inline-size:0;isolation:auto;mix-blend-mode:normal;paint-order:stroke fill markers;shape-margin:0;shape-padding:0;text-decoration-color:#000000;text-decoration-line:none;text-decoration-style:solid;text-indent:0;text-orientation:mixed;text-transform:none;white-space:normal"/>
   <path transform="matrix(60.382 0 0 60.382 -33808 -13461)" d="m578.71 265.21c-10.755 1e-3 -19.359 6e-3 -19.359 6e-3v102.07s34.432 7e-3 51.645 0c15.735-0.0132 31.674-4.8502 44.09-14.662 8.8115-6.9167 15.495-16.676 18.086-27.627 2.5175-10.773 1.9421-22.585-3.0996-32.562-4.2998-8.573-11.912-15.1-20.445-19.268-11.958-5.85-25.442-7.897-38.652-7.9434-8.6029-0.01-21.509-0.0104-32.264-0.01zm-340.05 2e-3 -43.096 0.0137 42.215 102.05 39.797 6e-3 45.092-102.05-26.84-0.0137-28.666 73.652zm89.686 4e-3v102.07h39.295v-102.07zm89.709 0-43.131 0.0137 42.256 102.05 39.797-8e-3 45.104-102.05-26.863-0.0137-28.674 73.652zm88.752 0v102.07l39.295 6e-3v-102.07zm94.467 15.521c6.5267-0.0396 13.216 0.54354 18.967 3.8711 7.1552 3.8559 11.605 11.428 12.977 19.285 1.3317 7.6389 0.87682 15.516-0.50781 23.115-1.5636 8.1291-5.4937 16.417-12.848 20.783-6.3668 3.9751-14.112 4.1285-21.373 3.9629v-70.971c0.92258-0.025 1.8528-0.0409 2.7852-0.0469z" color="#000000" color-rendering="auto" dominant-baseline="auto" fill="#2e8ac9" image-rendering="auto" solid-color="#000000" stop-color="#000000" style="font-feature-settings:normal;font-variant-alternates:normal;font-variant-caps:normal;font-variant-east-asian:normal;font-variant-ligatures:normal;font-variant-numeric:normal;font-variant-position:normal;font-variation-settings:normal;inline-size:0;isolation:auto;mix-blend-mode:normal;paint-order:stroke fill markers;shape-margin:0;shape-padding:0;text-decoration-color:#000000;text-decoration-line:none;text-decoration-style:solid;text-indent:0;text-orientation:mixed;text-transform:none;white-space:normal"/>
  </g>
  <g>
   <g>
    <path d="m-15948-13461-1516.8 1754.3-6527.2 13604-1284.5 4486.8-4277.6-9719s-903.71-164.85-1355.3-247.03l2211.2 4916.9-5110 5967.3 6433.5-2887.3 2257.5 4075.2 2507.5-6071.9 8586.5-3561.9-6702.6-908.75zm-2676.3 3095.3-6686.1 7801.8-2429.9-441.96 2283.6 3927.9z" fill="#0573ba" stroke-width="56.707"/>
    <path d="m-18918-407.02-11752 5367.3 4486.2-5288.6-711.85-1224.4 1595.6 207.79 4140.7-4832-1474.2 5243.8z" fill="#7ea7d9"/>
    <path d="m-17465-11706-7223.5 16037 696.39-2432.5z" fill="#194078"/>
    <path d="m-27740-3005.5 2495.4 3578-211.8 349.92z" fill="#194078"/>
   </g>
   <path d="m-29554-3334.5 1813.8 328.98 2283.6 3927.9 6832.4-11288 1159.5-1341-6527.2 13604-1284.5 4486.8z" fill="#fff"/>
  </g>
 </g>
</svg>
