<?xml version="1.0" encoding="UTF-8" standalone="no"?>
<!-- Created with Inkscape (http://www.inkscape.org/) -->
<svg
   xmlns:dc="http://purl.org/dc/elements/1.1/"
   xmlns:cc="http://creativecommons.org/ns#"
   xmlns:rdf="http://www.w3.org/1999/02/22-rdf-syntax-ns#"
   xmlns:svg="http://www.w3.org/2000/svg"
   xmlns="http://www.w3.org/2000/svg"
   xmlns:sodipodi="http://sodipodi.sourceforge.net/DTD/sodipodi-0.dtd"
   xmlns:inkscape="http://www.inkscape.org/namespaces/inkscape"
   width="910.83356"
   height="350.00882"
   id="svg3260"
   sodipodi:version="0.32"
   inkscape:version="0.46"
   version="1.0"
   sodipodi:docname="Volksmusik TV Logo.svg"
   inkscape:output_extension="org.inkscape.output.svg.inkscape">
  <defs
     id="defs3262">
    <inkscape:perspective
       sodipodi:type="inkscape:persp3d"
       inkscape:vp_x="0 : 526.18109 : 1"
       inkscape:vp_y="0 : 1000 : 0"
       inkscape:vp_z="744.09448 : 526.18109 : 1"
       inkscape:persp3d-origin="372.04724 : 350.78739 : 1"
       id="perspective3268" />
  </defs>
  <sodipodi:namedview
     id="base"
     pagecolor="#ffffff"
     bordercolor="#666666"
     borderopacity="1.0"
     inkscape:pageopacity="0.0"
     inkscape:pageshadow="2"
     inkscape:zoom="1.018847"
     inkscape:cx="455.41678"
     inkscape:cy="175.00441"
     inkscape:document-units="px"
     inkscape:current-layer="layer1"
     showgrid="false"
     inkscape:window-width="1024"
     inkscape:window-height="749"
     inkscape:window-x="-4"
     inkscape:window-y="-4" />
  <metadata
     id="metadata3265">
    <rdf:RDF>
      <cc:Work
         rdf:about="">
        <dc:format>image/svg+xml</dc:format>
        <dc:type
           rdf:resource="http://purl.org/dc/dcmitype/StillImage" />
      </cc:Work>
    </rdf:RDF>
  </metadata>
  <g
     inkscape:label="Ebene 1"
     inkscape:groupmode="layer"
     id="layer1"
     transform="translate(122.23966,-334.50065)">
    <g
       id="g3238"
       transform="matrix(0.6171344,0,0,0.6171344,-112.83486,827.15846)">
      <g
         transform="translate(577.1752,-990.05532)"
         id="g3216">
        <path
           style="fill:#ffffff;fill-rule:evenodd;stroke:#407499;stroke-width:13.29199982;stroke-linecap:butt;stroke-linejoin:miter;stroke-miterlimit:4;stroke-dasharray:none;stroke-opacity:1"
           d="M -295.73335,370.8903 C -295.73335,370.8903 -292.63626,359.0804 -279.91557,346.74468 C -253.20958,320.84689 -218.59206,277.48161 -191.41639,266.96534 C -182.09818,263.35944 -166.89291,262.19961 -158.11116,266.96534 C -149.38293,271.70203 -146.62921,282.34073 -147.92094,293.73844 C -149.96502,311.77452 -180.07655,344.27111 -180.07655,344.27111 L -239.98653,412.67574 C -239.98653,412.67574 -192.77271,410.02825 -171.75024,411.28803 C -162.26468,411.85646 -145.47626,417.16637 -143.99588,426.55292 C -142.48179,436.15324 -158.23485,444.57412 -166.19937,450.14413 C -181.78867,461.04656 -220.55847,475.12306 -220.55847,475.12306 L -220.55847,487.61252 C -220.55847,487.61252 -199.37652,495.09128 -190.02867,497.32655 C -172.38876,501.54463 -151.55655,500.44551 -133.82611,504.26514 C -122.86781,506.62585 -105.90281,512.2646 -96.35771,518.14232 C -87.31981,523.70772 -77.24851,533.20627 -73.46031,543.12125 C -68.70561,555.56597 -70.68491,587.52823 -70.68491,587.52823 L -309.37243,630.54749 C -309.37243,630.54749 -328.01545,683.36755 -341.37413,702.70883 C -348.56987,713.12713 -359.77161,728.89798 -372.39456,729.88839 C -378.95692,730.40328 -387.41772,725.85894 -388.47237,719.36145 C -391.66088,699.71776 -387.08465,645.81239 -387.08465,645.81239 L -419.00217,583.36507 L -400.96183,522.30548 L -402.34955,519.53004 L -471.73546,556.99843 C -471.73546,556.99843 -503.72353,571.74935 -518.91787,576.17395 C -530.57141,579.56747 -554.59249,586.36061 -566.03055,582.29963 C -576.01745,578.75388 -580.08508,569.56483 -584.14063,559.77387 C -586.6897,553.61987 -585.89713,543.99566 -584.14063,537.57038 C -578.52994,517.04653 -562.44013,492.19257 -548.05995,476.51078 C -543.21908,471.23174 -535.11919,465.66961 -528.6319,462.6336 C -519.66914,458.43909 -506.5077,455.72714 -496.71438,454.30729 C -471.5684,450.66158 -412.06358,451.53185 -412.06358,451.53185 C -412.06358,451.53185 -468.1035,420.31897 -487.40681,400.27046 C -494.93656,392.45001 -507.60445,380.56953 -506.83486,369.74067 C -506.56277,365.91209 -502.14983,361.2404 -498.50856,360.02664 C -487.58474,356.38536 -466.19069,364.58379 -454.66195,368.35295 C -437.75745,373.87964 -406.5127,387.69682 -406.5127,387.69682 L -384.30921,398.79856 C -384.30921,398.79856 -414.6781,371.09458 -424.97847,356.93509 C -431.6406,347.77693 -442.64124,323.57208 -442.64124,323.57208 L -499.5546,239.1833 C -499.5546,239.1833 -513.63777,220.99411 -516.2361,211.70788 C -517.10865,208.58948 -519.64156,201.73852 -517.27689,199.52625 C -514.04519,196.50282 -506.12953,200.369 -501.51713,201.89523 C -488.0181,206.36201 -470.41843,214.59139 -459.32274,223.48306 C -429.91841,247.04657 -398.04091,272.32177 -364.14004,296.09666 C -357.31879,300.88045 -349.42107,319.64702 -349.42107,319.64702 L -346.47727,341.23485 C -346.47727,341.23485 -346.14492,274.23825 -346.47727,246.05215 C -346.5541,239.53624 -343.95432,230.30112 -339.60842,225.44559 C -336.79743,222.30497 -330.56347,222.17422 -326.36135,222.50179 C -321.0704,222.91425 -315.58262,225.33773 -312.133,229.37065 C -309.39328,232.57363 -307.31714,238.05075 -306.24541,242.12709 C -301.66408,259.55228 -306.21913,285.109 -304.77352,303.45615 C -303.17024,323.80431 -295.73335,370.8903 -295.73335,370.8903 z"
           id="path3190"
           sodipodi:nodetypes="cssssccsssccssssccssscccccssssssscssssccsccsssssccssssssc" />
        <g
           id="g3179"
           transform="translate(-605.10373,259.05394)">
          <path
             sodipodi:nodetypes="cscscscscsccccccsc"
             id="path2391"
             d="M 196.36212,215.79018 C 196.36212,215.79018 180.26431,200.38775 183.87265,182.48494 C 187.49823,164.49657 211.62702,160.28145 211.62702,160.28145 C 211.62702,160.28145 208.09216,138.0586 224.11648,124.89464 C 240.48451,111.44832 263.66645,120.03763 263.66645,120.03763 C 263.66645,120.03763 279.12924,94.571424 306.68571,100.60957 C 322.63885,104.10521 332.35849,130.44551 332.35849,130.44551 C 332.35849,130.44551 359.26543,130.02014 371.2146,147.09813 C 381.43933,161.71152 373.99004,190.11739 373.99004,190.11739 C 373.99004,190.11739 389.08048,201.70468 388.56108,222.72877 C 388.08992,242.29053 371.90846,252.56471 371.90846,252.56471 L 323.33833,267.82961 L 317.09359,329.58307 L 281.01292,302.52256 L 217.87175,299.74713 L 235.91208,278.2375 C 235.91208,278.2375 210.31412,278.5343 195.66826,256.03401 C 182.33241,235.54628 196.36212,215.79018 196.36212,215.79018 z"
             style="fill:#407499;fill-opacity:1;fill-rule:evenodd;stroke:none;stroke-width:1px;stroke-linecap:butt;stroke-linejoin:miter;stroke-opacity:1" />
          <path
             transform="matrix(1.2855649,0,0,1.1571142,-84.380598,-33.299227)"
             d="M 320.87362,207.25856 A 31.400476,41.458443 0 1 1 258.07267,207.25856 A 31.400476,41.458443 0 1 1 320.87362,207.25856 z"
             sodipodi:ry="41.458443"
             sodipodi:rx="31.400476"
             sodipodi:cy="207.25856"
             sodipodi:cx="289.47314"
             id="path2393"
             style="opacity:1;fill:#ffff00;fill-opacity:1;stroke:none;stroke-width:1;stroke-miterlimit:4;stroke-dasharray:none;stroke-dashoffset:0;stroke-opacity:1"
             sodipodi:type="arc" />
          <path
             transform="matrix(0.9457481,-0.591551,0.6294299,0.8888331,-80.289259,211.72581)"
             d="M 351.78347,171.44238 A 14.473658,23.305042 0 1 1 322.83616,171.44238 A 14.473658,23.305042 0 1 1 351.78347,171.44238 z"
             sodipodi:ry="23.305042"
             sodipodi:rx="14.473658"
             sodipodi:cy="171.44238"
             sodipodi:cx="337.30981"
             id="path3165"
             style="opacity:1;fill:#ffff00;fill-opacity:1;stroke:none;stroke-width:1;stroke-miterlimit:4;stroke-dasharray:none;stroke-dashoffset:0;stroke-opacity:1"
             sodipodi:type="arc" />
          <path
             sodipodi:type="arc"
             style="opacity:1;fill:#ffff00;fill-opacity:1;stroke:none;stroke-width:1;stroke-miterlimit:4;stroke-dasharray:none;stroke-dashoffset:0;stroke-opacity:1"
             id="path3167"
             sodipodi:cx="337.30981"
             sodipodi:cy="171.44238"
             sodipodi:rx="14.473658"
             sodipodi:ry="23.305042"
             d="M 351.78347,171.44238 A 14.473658,23.305042 0 1 1 322.83616,171.44238 A 14.473658,23.305042 0 1 1 351.78347,171.44238 z"
             transform="matrix(0.9457481,-0.591551,0.6294299,0.8888331,-205.40053,290.71764)" />
          <path
             transform="matrix(1.0626879,0,0,1.0485831,-24.108859,-11.706043)"
             d="M 376.31511,220.75095 A 15.209606,19.625298 0 1 1 345.89589,220.75095 A 15.209606,19.625298 0 1 1 376.31511,220.75095 z"
             sodipodi:ry="19.625298"
             sodipodi:rx="15.209606"
             sodipodi:cy="220.75095"
             sodipodi:cx="361.1055"
             id="path3169"
             style="opacity:1;fill:#ffff00;fill-opacity:1;stroke:none;stroke-width:1;stroke-miterlimit:4;stroke-dasharray:none;stroke-dashoffset:0;stroke-opacity:1"
             sodipodi:type="arc" />
          <path
             sodipodi:type="arc"
             style="opacity:1;fill:#ffff00;fill-opacity:1;stroke:none;stroke-width:1;stroke-miterlimit:4;stroke-dasharray:none;stroke-dashoffset:0;stroke-opacity:1"
             id="path3171"
             sodipodi:cx="361.1055"
             sodipodi:cy="220.75095"
             sodipodi:rx="15.209606"
             sodipodi:ry="19.625298"
             d="M 376.31511,220.75095 A 15.209606,19.625298 0 1 1 345.89589,220.75095 A 15.209606,19.625298 0 1 1 376.31511,220.75095 z"
             transform="matrix(0.6949618,0.8039488,-0.7932782,0.6857378,166.5348,-295.02215)" />
          <path
             transform="matrix(1.8943162e-2,1.0619329,-1.0854611,1.8043899e-2,529.36338,-258.45033)"
             d="M 376.31511,220.75095 A 15.209606,19.625298 0 1 1 345.89589,220.75095 A 15.209606,19.625298 0 1 1 376.31511,220.75095 z"
             sodipodi:ry="19.625298"
             sodipodi:rx="15.209606"
             sodipodi:cy="220.75095"
             sodipodi:cx="361.1055"
             id="path3173"
             style="opacity:1;fill:#ffff00;fill-opacity:1;stroke:none;stroke-width:1;stroke-miterlimit:4;stroke-dasharray:none;stroke-dashoffset:0;stroke-opacity:1"
             sodipodi:type="arc" />
          <path
             sodipodi:type="arc"
             style="opacity:1;fill:#ffff00;fill-opacity:1;stroke:none;stroke-width:1;stroke-miterlimit:4;stroke-dasharray:none;stroke-dashoffset:0;stroke-opacity:1"
             id="path3175"
             sodipodi:cx="361.1055"
             sodipodi:cy="220.75095"
             sodipodi:rx="15.209606"
             sodipodi:ry="19.625298"
             d="M 376.31511,220.75095 A 15.209606,19.625298 0 1 1 345.89589,220.75095 A 15.209606,19.625298 0 1 1 376.31511,220.75095 z"
             transform="matrix(-0.7353282,0.7188487,-0.7237967,-0.7629192,640.69748,100.14795)" />
          <path
             transform="matrix(0.7675106,-0.8095058,0.8319277,0.7029243,-130.4421,436.34042)"
             d="M 351.78347,171.44238 A 14.473658,23.305042 0 1 1 322.83616,171.44238 A 14.473658,23.305042 0 1 1 351.78347,171.44238 z"
             sodipodi:ry="23.305042"
             sodipodi:rx="14.473658"
             sodipodi:cy="171.44238"
             sodipodi:cx="337.30981"
             id="path3177"
             style="opacity:1;fill:#ffff00;fill-opacity:1;stroke:none;stroke-width:1;stroke-miterlimit:4;stroke-dasharray:none;stroke-dashoffset:0;stroke-opacity:1"
             sodipodi:type="arc" />
        </g>
      </g>
      <g
         id="g3229">
        <path
           style="fill:#ffff00;fill-opacity:1;fill-rule:evenodd;stroke:#407499;stroke-width:12.99199963;stroke-linecap:butt;stroke-linejoin:miter;stroke-miterlimit:4;stroke-dasharray:none;stroke-opacity:1"
           d="M 1312.1894,-727.27925 C 1308.675,-727.25601 1305.434,-726.48439 1302.6894,-724.71675 C 1281.8574,-711.29993 1298.4918,-664.40562 1288.9707,-643.27925 C 1280.3116,-624.06599 1258.8964,-612.43235 1227.1269,-609.90425 C 1195.4762,-607.3856 1160.6348,-624.27793 1126.0644,-641.3105 C 1119.6774,-644.45733 1112.277,-643.09718 1107.4394,-637.873 C 1103.2343,-633.332 1101.1855,-622.64462 1104.9707,-617.748 C 1134.2619,-579.85491 1233.8225,-568.70154 1212.4081,-528.46675 C 1179.7331,-467.07479 1129.8902,-386.61572 1100.4394,-352.90425 C 1090.9642,-342.05823 914.47555,-499.83367 905.53305,-484.623 C 929.22422,-382.06824 1112.806,-244.52185 1118.7207,-244.34175 C 1136.8891,-243.78855 1417.1559,-225.29997 1418.9707,-252.248 C 1419.7208,-263.38876 1167.5153,-289.51711 1191.3144,-326.8105 C 1191.3144,-326.8105 1215.2484,-409.66765 1233.0331,-442.123 C 1245.7949,-465.41184 1259.3449,-507.01416 1285.0331,-513.748 C 1333.3158,-511.16041 1394.1203,-425.49416 1419.4707,-467.623 C 1436.6059,-496.09957 1367.3853,-521.47283 1344.8769,-537.3105 C 1325.5685,-551.11153 1310.2651,-580.67119 1314.4707,-604.02925 C 1319.7463,-633.33121 1387.5268,-645.886 1388.0644,-675.65425 C 1388.3278,-690.24667 1363.2186,-704.32697 1350.7831,-711.96675 C 1340.849,-718.0698 1324.741,-727.36226 1312.1894,-727.27925 z M 1336.4081,-694.59175 C 1338.518,-694.59792 1340.5121,-694.07393 1342.2831,-692.9355 C 1349.3675,-688.38179 1350.0483,-675.88795 1343.7831,-665.0605 C 1337.518,-654.23305 1326.68,-649.13179 1319.5957,-653.6855 C 1312.5113,-658.23921 1311.8618,-670.73305 1318.1269,-681.5605 C 1322.8257,-689.68109 1330.0786,-694.57326 1336.4081,-694.59175 z"
           id="path3267" />
        <g
           id="g3507"
           transform="translate(-23.550358,-898.83866)">
          <path
             id="path3397"
             d="M 1062.5938,424.1875 C 1042.4525,425.61734 1022.2575,424.29123 1002.0938,424.84375 C 1002.491,438.70339 1001.8664,453.22272 1002.125,466.6875 C 984.32497,458.08267 963.7414,458.71793 944.46875,459.5625 C 932.4844,461.33694 920.76276,466.14924 911.75,474.3125 C 912.5899,468.52262 907.74504,462.51167 901.4375,464.375 C 881.64583,464.375 861.85417,464.375 842.0625,464.375 C 842.6908,467.14184 838.46455,463.58903 836.65625,464.0625 C 827.81609,463.49823 819.01066,465.31286 810.15625,464.375 C 799.57292,464.375 788.98958,464.375 778.40625,464.375 C 778.6835,469.94411 778.8715,475.51783 778.90625,481.09375 C 764.92693,461.78434 736.15684,455.78196 715.375,467.40625 C 711.9462,468.9725 707.68338,472.91588 704.46875,468.78125 C 690.06133,460.0483 671.8204,460.72992 656.21875,465.21875 C 645.57142,462.44392 634.43176,465.65949 623.65625,464.4375 C 614.65205,464.11075 605.43857,464.61682 596.5625,464.34375 C 576.86253,458.48062 555.12386,456.72205 535.13835,461.82656 C 532.38827,462.89759 529.95318,464.09818 528.21875,461.3125 C 522.7974,458.74098 516.42549,461.68312 510.65631,460.48438 C 490.8409,460.7161 470.56095,459.3081 451.03125,461.21875 C 447.2442,466.22836 449.62522,456.86952 448.96875,454.3125 C 448.96875,444.46875 448.96875,434.625 448.96875,424.78125 C 425.92708,424.78125 402.88542,424.78125 379.84375,424.78125 C 379.84375,479.86458 374.63981,534.94792 379.84375,590.03125 C 402.59375,590.03125 425.34375,590.03125 448.09375,590.03125 C 449.09931,588.43767 448.23823,582.41542 450.4375,586.5 C 455.55366,593.06242 464.44444,589.06724 471.34375,590.03125 C 500.32261,589.79371 529.31692,590.23476 558.28125,590.40625 C 572.27235,589.4778 586.68504,585.64674 597.40625,576.28125 C 596.2247,581.25678 596.61208,589.73322 603.46868,589.94969 C 624.56155,590.23441 645.65638,589.90369 666.75,590.03125 C 666.61701,588.60926 670.85756,590.75787 672.65625,590.34375 C 684.56763,590.41372 696.44954,589.38783 708.37496,590.04935 C 714.71913,590.10236 721.06312,590.01012 727.40625,589.90625 C 727.26736,588.36374 730.58402,590.95057 732.09306,590.06826 C 750.94566,589.8874 769.79784,590.03708 788.65625,590.03125 C 788.56077,584.58631 787.72027,577.55509 788.09375,572.96875 C 801.52036,591.48182 827.94744,597.57958 848.90625,589.34375 C 855.7548,589.19457 862.50731,591.43693 869.37439,589.99639 C 883.63297,589.46371 897.89711,590.51764 912.15625,589.96875 C 910.13454,585.4081 911.90683,584.94214 915.90625,586.5 C 941.98387,592.21402 972.03219,594.07455 995.21875,578.78125 C 998.16345,576.4805 1000.8134,573.80289 1003,570.8125 C 1003,577.21875 1003,583.625 1003,590.03125 C 1047.7441,590.05191 1091.7683,590.02618 1136.5312,590.03125 C 1137.5565,588.76934 1136.6414,583.24742 1138.5938,586.59375 C 1143.6764,592.92915 1152.3849,588.78276 1159.1562,589.94676 C 1173.4576,590.23038 1187.897,590.50816 1202.0938,589.125 C 1210.8111,591.85002 1220.0623,588.78729 1229,590.03125 C 1241.5,590.03125 1254,590.03125 1266.5,590.03125 C 1266.5,582.26042 1266.5,574.48958 1266.5,566.71875 C 1273.7695,581.7745 1290.0328,589.86374 1306.1562,591.34375 C 1323.9046,593.28479 1342.0998,590.73347 1358.9375,585.375 C 1364.0311,580.92975 1359.6863,573.69906 1361.125,568.0625 C 1361.116,556.85415 1361.1363,545.64582 1361.1562,534.4375 C 1351.9674,529.16068 1340.8261,531.54989 1331,533.1875 C 1331.5832,530.81555 1328.487,524.28188 1333.125,526.03125 C 1340.1635,527.21804 1349.9505,524.77548 1350.7812,516.4375 C 1351.3262,514.30888 1351.1596,510.1678 1351.4375,509.28125 C 1361.7563,536.26049 1372.6103,563.01903 1382.8438,590.03125 C 1402.9687,590.00674 1423.0937,589.99283 1443.2188,590 C 1456.2451,552.99841 1473.9895,517.52124 1484.2188,479.65625 C 1483.6083,467.25709 1468.6651,461.33947 1457.9066,464.30864 C 1444.8573,464.66333 1431.7993,464.17866 1418.75,464.5625 C 1416.8439,469.66596 1415.2148,474.85737 1413.5,480.03125 C 1411.7699,474.80055 1410.0248,469.57902 1408.2188,464.375 C 1382.8125,464.375 1357.4062,464.375 1332,464.375 C 1335.5173,467.41284 1335.5186,468.58319 1331.0625,468.59375 C 1329.2482,468.28642 1331.3514,463.85654 1330.6875,462.15625 C 1330.973,452.7823 1330.2667,443.40397 1330.6875,434.03125 C 1307.6562,434.03125 1284.625,434.03125 1261.5938,434.03125 C 1260.9395,445.46494 1261.3645,460.25728 1261.0625,471.44379 C 1257.2305,471.77447 1247.2626,470.92659 1246.3981,472.65671 C 1245.6018,474.2504 1246.1154,484.24516 1245.8031,489.90625 C 1246.129,500.19584 1245.0206,510.49404 1245.5,520.78125 C 1245.4628,521.30433 1258.2814,525.53926 1261.75,526.3125 C 1256.0457,526.93767 1250.0602,525.57349 1244.25,526.375 C 1228.5,526.375 1212.75,526.375 1197,526.375 C 1197,534.57292 1197,542.77083 1197,550.96875 C 1189.4187,540.72873 1181.9088,530.45064 1174.8438,519.84375 C 1192.5976,500.21805 1210.1728,480.22487 1227.8438,460.40625 C 1198.6458,460.42191 1169.4479,460.32949 1140.25,460.40625 C 1136.2448,466.15928 1137.3624,459.60773 1137.3125,455.5 C 1137.3192,445.2604 1137.2862,435.02084 1137.2812,424.78125 C 1114.1875,424.78125 1091.0937,424.78125 1068,424.78125 C 1068.1308,425.89445 1063.8988,423.37937 1062.5938,424.1875 z M 309.4375,426.78125 C 309.4375,448.47917 309.4375,470.17708 309.4375,491.875 C 297.74502,472.88979 275.72271,461.72143 253.625,461.4375 C 236.5968,460.02933 218.53575,464.42635 204.46875,472.9375 C 201.58259,465.91673 192.56176,465.83111 186.25,464.46875 C 171.18307,463.49 156.07292,465.56295 141.0625,464.1875 C 134.43523,463.42774 133.14506,471.13827 131.6915,475.85747 C 129.99897,484.9165 128.3199,471.97666 126.5827,468.79134 C 126.29612,461.25965 117.60102,465.42219 112.65625,464.375 C 95.447917,464.375 78.239583,464.375 61.03125,464.375 C 54.954962,484.3491 66.454647,503.72192 73.472314,521.844 C 81.697484,544.70319 90.951085,567.22698 99.625,589.9375 C 119.7182,590.10798 139.81252,590.00187 159.90625,590.03125 C 165.97499,574.54003 172.05279,559.05236 178.125,543.5625 C 182.78098,565.22674 200.04272,582.80312 221.125,588.875 C 250.88034,598.92033 288.31611,591.70016 307.59375,565.96875 C 310.95154,559.72683 308.87743,570.61619 309.4375,573.3125 C 310.60383,578.38575 306.99892,588.23024 311.4375,590.03125 C 333.80208,590.03125 356.16667,590.03125 378.53125,590.03125 C 378.53125,534.94792 378.53125,479.86458 378.53125,424.78125 C 355.5,424.78125 332.46875,424.78125 309.4375,424.78125 L 309.4375,425.78125 L 309.4375,426.78125 z M 1003,508.25 C 1004.2482,513.53102 1001.6328,521.36253 1001.125,512.75 C 1001.6516,511.68234 1003.3222,503.11289 1003,508.25 z M 496.9375,508.53125 C 497.41288,516.45227 500.61919,524.09011 505.15625,530.34375 C 502.70434,533.5421 502.39643,537.73657 501.90625,541.59375 C 496.87771,534.29569 491.59858,527.17935 486.375,520.03125 C 489.81815,516.34761 493.73424,511.49218 496.9375,508.53125 z M 248.15625,519.8125 C 249.82826,523.44708 249.91906,528.16403 249.375,532.21875 C 249.10305,534.10222 247.60065,535.93382 247.15625,532.84375 C 245.63109,528.74647 246.35333,523.50539 248.15625,519.8125 z"
             style="fill:#ffffff"
             sodipodi:nodetypes="ccccccccccccccccccccccccccccccccccccccccccccccccccccccccccccccccccccccccccccccccccccccccccccccccccccccccccccccccccccccccc" />
          <g
             transform="matrix(0.9930988,0,0,0.9930988,0.416381,-101.18614)"
             id="g3262">
            <path
               style="font-size:177.43778992px;font-style:normal;font-variant:normal;font-weight:bold;font-stretch:normal;text-align:start;line-height:100%;writing-mode:lr-tb;text-anchor:start;fill:#234285;fill-opacity:1;stroke:#234285;stroke-width:9.4893589;stroke-linecap:butt;stroke-linejoin:miter;stroke-miterlimit:4;stroke-opacity:1;font-family:Tahoma;-inkscape-font-specification:Tahoma Bold"
               d="M 329.8125,548.9375 L 329.8125,677.3125 L 361.65625,677.3125 L 361.65625,548.9375 L 329.8125,548.9375 z M 400.5625,548.9375 L 400.5625,677.3125 L 432.40625,677.3125 L 432.40625,643 L 437.3125,636.96875 L 465,677.3125 L 502.84375,677.3125 L 464.4375,624.59375 L 500.1875,584.6875 L 462.625,584.6875 L 432.40625,620.90625 L 432.40625,548.9375 L 400.5625,548.9375 z M 1025.3438,548.9375 L 1025.3438,565.46875 L 1059,565.46875 L 1059,548.9375 L 1025.3438,548.9375 z M 1091.625,548.9375 L 1091.625,677.3125 L 1123.4688,677.3125 L 1123.4688,643 L 1128.4062,636.96875 L 1156.0625,677.3125 L 1193.9062,677.3125 L 1155.5,624.59375 L 1191.2812,584.6875 L 1153.6875,584.6875 L 1123.4688,620.90625 L 1123.4688,548.9375 L 1091.625,548.9375 z M 1285.7812,558.1875 L 1285.7812,592.6875 L 1273.5938,592.6875 L 1273.5938,612.8125 L 1285.7812,612.8125 L 1285.7812,648.125 C 1285.7812,659.12507 1288.7422,667.03499 1294.6562,671.875 C 1300.5704,676.71502 1310.0193,679.12498 1323,679.125 C 1328.6411,679.12499 1333.399,678.90502 1337.2812,678.4375 C 1341.1632,677.96999 1344.8238,677.32499 1348.2812,676.5 L 1348.2812,656.125 L 1345.5625,656.125 C 1344.4705,656.67503 1342.5412,657.27752 1339.7812,657.9375 C 1337.0213,658.59753 1334.792,658.93754 1333.0938,658.9375 C 1328.969,658.93752 1325.8097,658.34625 1323.6562,657.21875 C 1321.5029,656.09126 1320.0055,654.58128 1319.1562,652.65625 C 1318.2463,650.73127 1317.7794,648.54501 1317.7188,646.125 C 1317.6581,643.70502 1317.6251,640.87004 1317.625,637.625 L 1317.625,612.8125 L 1338.2812,612.8125 L 1338.2812,592.6875 L 1317.625,592.6875 L 1317.625,558.1875 L 1285.7812,558.1875 z M 1026.25,584.6875 L 1026.25,677.3125 L 1058.0938,677.3125 L 1058.0938,584.6875 L 1026.25,584.6875 z M 249.34375,585.78125 C 232.6629,585.78135 219.68774,590.15751 210.4375,598.875 C 201.18722,607.59263 196.56249,619.6312 196.5625,635.03125 C 196.56249,650.26637 201.18722,658.29 210.4375,667.0625 C 219.68775,675.83505 232.6629,680.21873 249.34375,680.21875 C 266.14581,680.21875 279.12281,675.83508 288.3125,667.0625 C 297.502,658.28997 302.09365,650.26635 302.09375,635.03125 C 302.09364,619.74122 297.50107,607.71014 288.28125,598.9375 C 279.06122,590.16504 266.08515,585.78135 249.34375,585.78125 z M 680.96875,586.125 C 675.20621,586.1251 670.01616,587.24508 665.40625,589.5 C 660.79622,591.7551 655.90397,594.89134 650.6875,598.90625 L 650.6875,588.6875 L 618.84375,588.6875 L 618.84375,677.3125 L 650.6875,677.3125 L 650.6875,615.65625 C 653.05309,614.17131 655.48175,612.8813 657.96875,611.78125 C 660.45566,610.68131 662.98539,610.12507 665.59375,610.125 C 668.9905,610.12507 671.65174,610.59256 673.5625,611.5 C 675.47314,612.40758 676.8713,613.83258 677.78125,615.8125 C 678.69103,617.79257 679.25638,620.3688 679.46875,623.53125 C 679.68098,626.69382 679.78116,630.52126 679.78125,635.03125 L 679.78125,677.3125 L 711.8125,677.3125 L 711.8125,615.65625 C 714.60263,613.89631 717.19673,612.52505 719.5625,611.5625 C 721.92803,610.60007 724.32356,610.12507 726.75,610.125 C 730.20736,610.12507 732.87043,610.59256 734.78125,611.5 C 736.69184,612.40758 738.12124,613.83258 739.03125,615.8125 C 739.94098,617.79257 740.47413,620.36506 740.65625,623.5 C 740.83809,626.63507 740.93735,630.46626 740.9375,635.03125 L 740.9375,677.3125 L 772.96875,677.3125 L 772.96875,621 C 772.96858,614.40002 772.23779,609.06632 770.8125,604.96875 C 769.38688,600.8713 767.25702,597.34508 764.40625,594.375 C 761.79783,591.62507 758.60436,589.5626 754.84375,588.1875 C 751.08284,586.81258 746.85616,586.12508 742.125,586.125 C 736.54439,586.1251 731.02245,587.50383 725.59375,590.28125 C 720.16479,593.05885 714.40753,597.0488 708.28125,602.21875 C 705.79419,596.88381 702.1687,592.85132 697.4375,590.15625 C 692.70613,587.46132 687.21639,586.12508 680.96875,586.125 z M 78.9375,588.6875 L 113.3125,677.3125 L 148.0625,677.3125 L 182.75,588.6875 L 150,588.6875 L 131.34375,645.96875 L 112.40625,588.6875 L 78.9375,588.6875 z M 801,588.6875 L 801,644.96875 C 800.99999,656.62884 803.82851,665.38497 809.5,671.1875 C 815.17144,676.99004 823.08893,679.87499 833.21875,679.875 C 839.58774,679.875 845.07744,678.79753 849.6875,676.625 C 854.2974,674.45249 859.35507,671.27379 864.875,667.09375 L 864.875,677.3125 L 896.71875,677.3125 L 896.71875,588.6875 L 864.875,588.6875 L 864.875,650.34375 C 862.26665,652.04879 859.43815,653.38504 856.375,654.375 C 853.31174,655.36503 850.65054,655.87501 848.40625,655.875 C 844.76675,655.87503 841.93824,655.36505 839.90625,654.375 C 837.87417,653.38502 836.3767,651.92503 835.40625,650 C 834.37502,647.91001 833.71042,645.36879 833.4375,642.34375 C 833.1645,639.31876 833.0312,635.41009 833.03125,630.625 L 833.03125,588.6875 L 801,588.6875 z M 1367.3438,588.6875 L 1401.75,677.3125 L 1436.5,677.3125 L 1471.1562,588.6875 L 1438.4062,588.6875 L 1419.75,645.96875 L 1400.8125,588.6875 L 1367.3438,588.6875 z M 249.34375,606.5 C 252.37657,606.50008 255.0718,606.93629 257.4375,607.84375 C 259.80308,608.75133 261.93203,610.37757 263.8125,612.6875 C 265.57149,614.88758 266.93658,617.81129 267.9375,621.46875 C 268.93827,625.12633 269.43742,629.71877 269.4375,635.21875 C 269.43743,641.10382 268.97044,641.70376 268,645.03125 C 267.0294,648.3588 265.59907,651.19749 263.71875,653.5625 C 262.14158,655.54253 260.01355,657.04124 257.375,658.03125 C 254.73634,659.02128 252.1413,659.50002 249.59375,659.5 C 246.50017,659.50002 243.70382,659.02126 241.15625,658.03125 C 238.60859,657.04127 236.47962,655.45756 234.78125,653.3125 C 233.14346,651.22251 231.81238,648.43005 230.78125,644.9375 C 229.75004,641.44502 229.21872,640.88383 229.21875,635.21875 C 229.21872,629.55376 229.78312,624.8338 230.875,621.09375 C 231.96679,617.35378 233.39898,614.42632 235.21875,612.28125 C 237.15975,610.0263 239.28871,608.48509 241.59375,607.6875 C 243.89868,606.89007 246.4928,606.50006 249.34375,606.5 z M 1221.0625,650.90625 L 1221.0625,677.3125 L 1253.2812,677.3125 L 1253.2812,650.90625 L 1221.0625,650.90625 z"
               id="text2469"
               sodipodi:nodetypes="ccccccccccccccccccccccccccccccccccccccccccssscccssscscccccccccccccsssssssccsccccccsssssccccsssssccccscssscscccccccccccsssccccccssscsccccccccccccscssssssscssscscccccc" />
            <path
               style="fill:#234285;fill-opacity:1;fill-rule:evenodd;stroke:none;stroke-width:1px;stroke-linecap:butt;stroke-linejoin:miter;stroke-opacity:1"
               d="M 560.99445,578.39735 C 551.24694,578.52178 541.3463,579.92438 532.41874,583.98856 C 525.99806,586.939 520.15554,591.6237 516.83248,597.95079 C 513.9279,603.44595 512.88864,609.84724 513.47179,616.01386 C 513.97668,620.35877 515.99455,624.50379 519.17783,627.49917 C 523.21308,631.42505 528.46207,633.76672 533.68571,635.68937 C 539.93359,637.96835 546.47943,639.43064 552.57162,642.12756 C 554.63605,643.09582 556.76348,644.3508 557.93962,646.37051 C 558.93935,648.31941 558.68912,650.86493 557.33168,652.58105 C 555.94565,654.1852 553.76201,654.75319 551.73762,655.05323 C 547.9739,655.56351 544.12117,655.11876 540.38174,654.59824 C 533.537,653.55444 526.84333,651.71656 520.25651,649.61445 C 519.59068,649.39689 518.92811,649.17034 518.26467,648.94599 C 516.29323,658.34653 514.31601,667.74581 512.35429,677.14832 C 527.21587,680.73725 542.50384,683.06032 557.83104,682.51283 C 566.0803,682.17494 574.41986,680.90718 582.0251,677.58975 C 587.85227,675.00229 593.17544,670.89591 596.33657,665.27481 C 599.62387,659.50239 600.62781,652.64887 600.0993,646.07536 C 599.67953,641.15733 598.01783,636.24616 594.78733,632.46025 C 591.49544,628.52657 586.95493,625.85473 582.23319,624.004 C 575.01281,621.12012 567.24216,620.02869 559.83659,617.75451 C 557.74715,617.04592 555.57936,616.20509 554.00412,614.59613 C 553.00743,613.51377 552.60366,611.96482 552.897,610.53991 C 553.09461,609.05814 553.99644,607.6531 555.41452,607.10924 C 557.98657,605.90347 560.93962,606.05266 563.72113,606.20438 C 570.22991,606.69265 576.56825,608.41729 582.81115,610.233 C 585.4317,611.02289 588.03206,611.87902 590.60183,612.82031 C 593.25788,603.25394 595.91517,593.68789 598.56053,584.11852 C 586.41924,580.36084 573.72176,578.29161 560.99445,578.39735 z"
               id="path3250" />
            <path
               id="path3260"
               d="M 962.99445,578.39735 C 953.24694,578.52178 943.3463,579.92438 934.41874,583.98856 C 927.99806,586.939 922.15554,591.6237 918.83248,597.95079 C 915.9279,603.44595 914.88864,609.84724 915.47179,616.01386 C 915.97668,620.35877 917.99455,624.50379 921.17783,627.49917 C 925.21308,631.42505 930.46207,633.76672 935.68571,635.68937 C 941.93359,637.96835 948.47943,639.43064 954.57162,642.12756 C 956.63605,643.09582 958.76348,644.3508 959.93962,646.37051 C 960.93935,648.31941 960.68912,650.86493 959.33168,652.58105 C 957.94565,654.1852 955.76201,654.75319 953.73762,655.05323 C 949.9739,655.56351 946.12117,655.11876 942.38174,654.59824 C 935.537,653.55444 928.84333,651.71656 922.25651,649.61445 C 921.59068,649.39689 920.92811,649.17034 920.26467,648.94599 C 918.29323,658.34653 916.31601,667.74581 914.35429,677.14832 C 929.21587,680.73725 944.50384,683.06032 959.83104,682.51283 C 968.0803,682.17494 976.41986,680.90718 984.0251,677.58975 C 989.85227,675.00229 995.17544,670.89591 998.33657,665.27481 C 1001.6239,659.50239 1002.6278,652.64887 1002.0993,646.07536 C 1001.6795,641.15733 1000.0178,636.24616 996.78733,632.46025 C 993.49544,628.52657 988.95493,625.85473 984.23319,624.004 C 977.01281,621.12012 969.24216,620.02869 961.83659,617.75451 C 959.74715,617.04592 957.57936,616.20509 956.00412,614.59613 C 955.00743,613.51377 954.60366,611.96482 954.897,610.53991 C 955.09461,609.05814 955.99644,607.6531 957.41452,607.10924 C 959.98657,605.90347 962.93962,606.05266 965.72113,606.20438 C 972.22991,606.69265 978.56825,608.41729 984.81115,610.233 C 987.4317,611.02289 990.03206,611.87902 992.60183,612.82031 C 995.25788,603.25394 997.91517,593.68789 1000.5605,584.11852 C 988.41924,580.36084 975.72176,578.29161 962.99445,578.39735 z"
               style="fill:#234285;fill-opacity:1;fill-rule:evenodd;stroke:none;stroke-width:1px;stroke-linecap:butt;stroke-linejoin:miter;stroke-opacity:1" />
          </g>
        </g>
      </g>
    </g>
  </g>
</svg>
