<?xml version="1.0" encoding="UTF-8"?>
<svg width="800" height="173.3" version="1.1" xmlns="http://www.w3.org/2000/svg" xmlns:cc="http://creativecommons.org/ns#" xmlns:dc="http://purl.org/dc/elements/1.1/" xmlns:rdf="http://www.w3.org/1999/02/22-rdf-syntax-ns#" xmlns:xlink="http://www.w3.org/1999/xlink">
 <metadata>
  <rdf:RDF>
   <cc:Work rdf:about="">
    <dc:format>image/svg+xml</dc:format>
    <dc:type rdf:resource="http://purl.org/dc/dcmitype/StillImage"/>
   </cc:Work>
  </rdf:RDF>
 </metadata>
 <defs>
  <linearGradient id="b" x1="5846.5" x2="5105.1" y1="1767" y2="3604" gradientTransform="matrix(.090377 0 0 .090377 .14135 -151.82)" gradientUnits="userSpaceOnUse">
   <stop stop-color="#747474" offset="0"/>
   <stop stop-color="#fff" offset="1"/>
  </linearGradient>
  <linearGradient id="linearGradient5522-2" x1="677.43" x2="681.38" y1="122.54" y2="186.01" gradientUnits="userSpaceOnUse">
   <stop stop-color="#cf2027" offset="0"/>
   <stop stop-color="#eb1d2b" offset=".49653"/>
   <stop stop-color="#f16276" offset="1"/>
  </linearGradient>
  <radialGradient id="radialGradient1670" cx="1322.8" cy="350.34" r="39.307" gradientTransform="matrix(1 0 0 .36957 0 220.87)" gradientUnits="userSpaceOnUse">
   <stop stop-color="#fff" stop-opacity=".8" offset="0"/>
   <stop stop-color="#fff" stop-opacity=".15" offset=".8"/>
   <stop stop-color="#cf2027" stop-opacity="0" offset="1"/>
  </radialGradient>
  <radialGradient id="radialGradient1854" cx="766.75" cy="222.03" r="24.773" gradientTransform="matrix(1 0 0 .78049 0 48.738)" gradientUnits="userSpaceOnUse">
   <stop stop-color="#fff" stop-opacity=".6" offset="0"/>
   <stop stop-color="#fff" stop-opacity=".22745" offset=".41922"/>
   <stop stop-color="#f16276" stop-opacity="0" offset="1"/>
  </radialGradient>
  <radialGradient id="radialGradient2855" cx="801.8" cy="190.61" r="10.272" gradientTransform="matrix(1.2022,0,0,2.5441,-162.15,-294.31)" gradientUnits="userSpaceOnUse">
   <stop stop-color="#fff" stop-opacity=".7592" offset="0"/>
   <stop stop-color="#fff" stop-opacity=".3" offset=".4"/>
   <stop stop-color="#eb1d2b" stop-opacity="0" offset="1"/>
  </radialGradient>
  <radialGradient id="radialGradient2361" cx="665.67" cy="341.68" r="74.287" gradientTransform="matrix(-1.0427 .099548 -.033433 -.31107 1371.2 400.12)" gradientUnits="userSpaceOnUse">
   <stop stop-color="#fff" offset="0"/>
   <stop stop-color="#fff" stop-opacity=".5" offset=".55477"/>
   <stop stop-color="#f16276" stop-opacity=".2" offset="1"/>
  </radialGradient>
 </defs>
 <path d="m0 3.0002 93.565 170.3h54.761l34.313-61.313c-2.362-8.411-3.6146-17.287-3.6146-26.463 0-34.876 18.258-65.451 45.667-82.522h-65.776l-37.081 71.764-38.297-71.764zm374.32 0-48.661 0.085149a97.033 97.033 0 0 1 45.555 82.437c0 38.829-22.662 72.309-55.355 87.776h64.505l32.082-38.917v-0.16945l32.195 39.087h92.38l-78.456-90.204 68.826-79.952-76.705-0.14135h-15.363l-22.82 27.903-22.819-27.903z" fill="url(#b)" stroke-width=".85149"/>
 <path d="m553.02 76.135v-72.994h16.871v72.24c0 11.412 2.2486 20.003 6.7984 25.731 4.5148 5.684 14.635 8.5052 23.7 8.5052 10.892 0 19.481-3.4092 25.768-10.228 6.3598-6.8185 9.5396-16.113 9.5396-27.884v-68.364l16.871-0.13642v120.58l-16.871 0.13642v-18.518c-4.8977 7.3209-10.6 12.776-17.106 16.364-6.4329 3.5169-13.926 5.2754-22.478 5.2754-14.108 0-24.818-4.3064-32.128-12.919-7.3101-8.6128-10.965-21.209-10.965-37.789zm187.28-76.135a59.699 63.073 0 0 0-45.102 21.866v-18.724h-16.872v170.16h16.872v-68.956a59.699 63.073 0 0 0 45.102 21.804 59.699 63.073 0 0 0 59.699-63.073 59.699 63.073 0 0 0-59.699-63.073zm-2.2268 16.732a43.775 46.342 0 0 1 43.774 46.341 43.775 46.342 0 0 1-43.774 46.343 43.775 46.342 0 0 1-42.876-37.224c-2.2e-4 -0.0011 2e-4 -0.0022 0-0.0033-0.14046-0.72206-0.26319-1.4476-0.37087-2.1753a43.775 46.342 0 0 1-0.33594-2.937c-0.041-0.47224-0.0792-0.94515-0.10643-1.4186a43.775 46.342 0 0 1-0.0865-2.5844 43.775 46.342 0 0 1 0.21453-4.5202c4e-3 -0.04756 5e-3 -0.09548 0.01-0.14302a43.775 46.342 0 0 1 0.60702-4.2525c0.0248-0.13327 0.0423-0.26774 0.0682-0.4008a43.775 46.342 0 0 1 42.876-37.025z" fill="#cf0338"/>
 <g transform="matrix(.47651 0 0 .4768 -40.262 -54.446)">
  <path transform="matrix(1.2981,0,0,1.2981,-206.76,101.16)" d="m745.12 149.54a76.905 76.905 0 0 1-76.905 76.905 76.905 76.905 0 0 1-76.905-76.905 76.905 76.905 0 0 1 76.905-76.905 76.905 76.905 0 0 1 76.905 76.905z" fill="url(#linearGradient5522-2)"/>
  <path transform="matrix(1.1957,0,0,1.1765,-921.93,-193.89)" d="m1362.1 354.62c0 10.377-17.609 10.254-39.307 10.254-21.697 0-39.307 0.12305-39.307-10.254s17.609-18.799 39.307-18.799c21.697 0 39.307 8.4219 39.307 18.799z" fill="url(#radialGradient1670)" opacity=".8"/>
  <g fill-rule="evenodd">
   <path d="m582.57 352c-1.2889-7.2267 1.4961-2.0705 8.1302-5.2129 12.924-6.1216 37.919-15.886 51.563-11.603 14.084 4.4214 26.089-8.3582 40.723-6.415 5.6136 0.74547 51.889-7.239 57.536-7.6617 8.7066-0.65166-9.6841 44.064-9.6841 44.064-2.4599 4.3935-36.139 23.648-48.266 24.219-16.995 0.79982-41.102 3.418-47.938 0s-21.372-9.4285-31.556-16.486c-5.3635-3.7169-19.362-14.481-20.508-20.905z" fill="url(#radialGradient2361)" opacity=".6"/>
   <path transform="matrix(1.2941,0,0,1.25,-294.43,73.072)" d="m812.07 174.9c-5.4548-8.1608-19.066-4.2474-19.335-3.6253l-1.2084 14.501c1.8758 11.253 1.5986 25.2 13.293 24.169 10.075-17.194 5.8244-23.164 7.2506-35.045z" fill="url(#radialGradient2855)" opacity=".3"/>
   <path transform="matrix(1.2195,0,0,1,-229.34,118.31)" d="m768.12 248.19 23.409-26.165-12.084-18.127-24.169-1.2084-13.293 10.876v10.876z" fill="url(#radialGradient1854)" opacity=".41148"/>
  </g>
 </g>
</svg>
