<?xml version="1.0" encoding="UTF-8"?>
<!-- Generator: Adobe Illustrator 13.0.0, SVG Export Plug-In . SVG Version: 6.00 Build 14948)  -->
<!DOCTYPE svg PUBLIC "-//W3C//DTD SVG 1.1//EN" "http://www.w3.org/Graphics/SVG/1.1/DTD/svg11.dtd">
<svg version="1.1" id="Layer_1" xmlns="http://www.w3.org/2000/svg" xmlns:xlink="http://www.w3.org/1999/xlink" x="0px" y="0px" width="488.229px" height="234.218px" viewBox="0 0 488.229 234.218" enable-background="new 0 0 488.229 234.218" xml:space="preserve">
<path fill="#52327C" d="M0,0.079h59.575L97.374,145.36l30.5-145.281h62.465l29.088,143.843l39.21-143.843h95.896  c0,0,133.694-7.259,133.694,117.711c0,0,1.438,116.194-114.808,116.194c0,0-62.466,7.298-101.703-59.536  c-5.78,24.693-18.886,59.536-18.886,59.536h-68.299l-26.119-140.9l-26.197,140.9H62.492L0,0.079"/>
<path fill="#FFFFFF" d="M344.07,92.809c0,13.262,13.576,23.072,28.276,23.072c15.276,0,28.304-9.051,28.304-22.823  c0-13.498-12.19-23.817-27.728-23.817C357.934,69.24,344.07,79.311,344.07,92.809 M345.771,158.334  c1.151,3.688,4.552,7.115,8.763,9.077c4.525,1.988,9.626,2.459,13.576,2.459c25.452,0,32.227-20.352,35.34-34.346l-0.55-0.497  c-12.451,9.339-27.439,13.498-44.103,13.498c-38.452,0-66.755-19.148-66.755-54.239c0-41.46,38.19-63.799,82.868-63.799  c57.679,0,82.869,38.269,82.869,81.234c0,54.199-29.401,93.489-89.67,93.489c-36.464,0-67.854-13.263-74.079-46.876H345.771z"/>
</svg>