<svg xmlns="http://www.w3.org/2000/svg" width="500" height="253.085"><path d="M410.484 252.336c-1.195-.428-3.68-1.902-5.521-3.277-1.842-1.375-3.966-2.687-4.72-2.916-.755-.228-2.212-1.256-3.24-2.282-1.666-1.667-2.11-1.816-4.149-1.392-1.255.261-2.559.384-2.896.274-.338-.11-1.304-.25-2.147-.31-2.764-.196-2.161-1.96 1.463-4.278 1.862-1.191 3.606-2.174 3.875-2.183.27-.01 1.318-.867 2.33-1.906 1.013-1.039 3.014-2.701 4.448-3.694 1.434-.992 2.624-1.86 2.645-1.928.02-.068.404-2.746.852-5.952 1.46-10.427 6.903-19.652 18.478-31.31l5.808-5.85-2.005-1.865c-5.544-5.156-6.576-5.648-12.31-5.865-4.566-.172-5.342-.06-5.34.777.002 1.638-2.094 3.009-4.6 3.009-1.996 0-2.767-.427-5.02-2.779-2.13-2.222-2.88-2.662-3.747-2.198-1.65.883-6.283-1.377-8.016-3.911-.795-1.163-1.962-2.278-2.595-2.478-.632-.2-1.592-1.108-2.132-2.015-.541-.907-1.851-2.064-2.91-2.57-1.363-.65-2.562-2.131-4.091-5.052-1.603-3.06-2.493-4.134-3.434-4.14-.698-.006-2.355-.932-3.68-2.06-2.26-1.92-2.527-1.999-4.252-1.254-1.013.437-2.614.807-3.56.822-1.405.023-1.882.446-2.62 2.328-2.661 6.792-7.543 15.414-10.42 18.402-3.016 3.135-3.197 3.224-6.529 3.224-4.17 0-4.691-.818-2.49-3.913 1.54-2.164 1.603-3.421.124-2.507-1.279.79-11.683.25-14.63-.76-1.55-.531-4.006-.925-5.456-.875-1.45.05-3.18-.2-3.845-.555-.955-.511-2.39-.17-6.872 1.636-4.431 1.786-7.095 2.426-12.231 2.941-3.612.362-6.91 1.004-7.332 1.426-1.274 1.277-2.549.94-2.154-.568.22-.844-.016-1.6-.645-2.06-.903-.661-.872-.9.343-2.606 2.803-3.935 9.483-8.24 18.676-12.033 7.111-2.934 9.657-4.597 15.162-9.903 4.321-4.164 14.462-12.617 16.518-13.767.78-.436.685-.723-.586-1.78-1.908-1.588-2.864-1.623-3.34-.122-.513 1.617-9.216 9.15-11.125 9.628-.85.213-2.148.116-2.886-.217-1.08-.488-1.848-.259-3.942 1.175-5.167 3.538-11.82 4.714-13.869 2.45-1.339-1.48-1.289-2.06.477-5.543l1.491-2.944-3.164-.072c-1.911-.043-3.412-.408-3.792-.922-.345-.468-1.383-1.038-2.306-1.268-1.09-.271-1.811-.95-2.06-1.937l-.38-1.52-1.673 1.191c-.92.655-4.549 2.598-8.064 4.317-7.26 3.55-10.517 3.95-10.888 1.334-.111-.787.292-1.978.896-2.645.944-1.043.972-1.294.203-1.78-.493-.312-1.098-.572-1.344-.577-.247-.005-.625-.711-.84-1.57-.216-.858-.57-1.479-.787-1.38-.217.1-1.962.964-3.88 1.922-3.394 1.697-8.01 2.363-9.593 1.385-.39-.241-.71-1.098-.71-1.905 0-1.435-.045-1.447-2.127-.577-6.437 2.69-9.204-1.464-4.07-6.11 1.929-1.745 1.61-2.024-1.974-1.727-2.518.209-3.503.031-4.312-.778-.983-.983-1.184-.985-3.21-.023-1.188.564-3.113 1.18-4.276 1.369-1.953.317-2.116.221-2.116-1.234v-1.576l-2.71.923c-4.926 1.678-9.714.28-6.11-1.785 3.629-2.079 8.34-5.598 12.223-9.13 2.378-2.163 5.223-4.573 6.323-5.357 3.115-2.217 1.913-2.142-2.943.186-4.626 2.216-20.25 6.264-21.835 5.656-1.776-.682-.839-1.998 2.628-3.693 3.337-1.63 12.075-7.674 11.675-8.074-.103-.102-3.898.377-8.435 1.065l-8.248 1.25-1.464-1.7c-1.637-1.904-1.522-4.525.287-6.523.952-1.052.907-1.114-.81-1.114-1 0-2.355-.403-3.01-.895-.925-.696-2.321-.813-6.252-.523-4.104.302-5.06.21-5.056-.485.007-1.157 6.101-5.01 11.358-7.18 5.543-2.29 9.435-4.353 8.268-4.384-1.67-.045-12.465 1.824-19.018 3.292-10.665 2.39-13.699 2.857-14.347 2.209-1.683-1.684 5.423-5.163 16.34-8.002 5.047-1.312 5.369-1.493 5.369-3.02 0-.894.345-1.978.767-2.409.62-.634.356-.716-1.38-.427-1.181.197-7.255 1.034-13.497 1.861-6.243.827-13.638 1.837-16.435 2.243-3.802.554-5.261.564-5.783.042-.918-.917 4.756-3.466 11.481-5.157 2.7-.679 4.979-1.295 5.065-1.37.085-.074-.128-.95-.476-1.946l-.63-1.811-9.222-.093c-8.608-.086-14.25-.937-13.044-1.965 1.397-1.193 6.575-2.098 17.43-3.05l11.92-1.044-3.987-.722c-2.194-.397-6.197-1.017-8.896-1.377-7.097-.948-8.896-1.62-8.896-3.33 0-.776.367-1.715.815-2.086.5-.415 5.186-.78 12.116-.946 6.216-.149 11.57-.293 11.899-.32.328-.027-.041-.496-.82-1.042-1.065-.745-3.806-1.12-11.026-1.506-8.27-.442-11.973-.957-19.579-2.725-.82-.19-1.38-.783-1.38-1.458 0-1.357 1.572-1.672 11.35-2.28 9.925-.616 10.213-.93 3.04-3.306-7.083-2.346-18.685-7.374-18.685-8.096 0-.749 1.204-.624 9.366.973 4.128.808 9.162 1.658 11.186 1.889 2.025.231 6.028.922 8.896 1.536 7.087 1.516 11.044 2.03 11.04 1.433 0-.274-4.891-2.568-10.867-5.1-14.565-6.167-27.167-13.362-27.167-15.51 0-.82 2.5-.1 9.51 2.734 6.082 2.46 29.243 10.44 29.491 10.161.387-.435-16.685-13.506-19.458-14.898-4.017-2.017-8.5-5.574-8.5-6.745 0-2.573 13.519 3.106 29.109 12.229 4.369 2.556 10.166 5.383 12.883 6.282 2.717.898 5.355 1.772 5.86 1.941.507.17-1.287-1.363-3.987-3.405s-7.96-6.57-11.691-10.06c-3.73-3.491-8.116-7.539-9.746-8.995-2.21-1.974-2.785-2.824-2.266-3.343 1.058-1.057 5.38 1.28 13.899 7.519 6.938 5.08 9.357 6.618 18.393 11.696l3.681 2.068-1.154-1.765c-2.753-4.214-3.55-5.932-3.188-6.876.346-.902.53-.877 1.75.235.751.683 2.055 1.594 2.899 2.024 1.478.752 3.98 2.506 14.034 9.838 6.059 4.418 18.603 11.734 24.206 14.118 2.418 1.029 5.896 2.682 7.727 3.674 4.243 2.297 5.177 2.352 4.217.246-.583-1.28-.527-1.737.316-2.581.958-.958 1.378-.911 6.398.713 6.333 2.05 7.927 2.824 15.005 7.275 4.09 2.572 7.463 4.04 14.417 6.273 9.954 3.197 11.69 3.989 24.64 11.239 4.847 2.713 11.557 5.942 14.912 7.174l6.1 2.24 1.958-1.572c1.077-.865 3.671-2.89 5.765-4.499 2.093-1.61 3.819-3.066 3.834-3.237.016-.171-1.145-.232-2.579-.135-2.57.173-5.395-.81-5.77-2.008-.458-1.465 1.237-2.167 9.612-3.986 4.889-1.062 9.255-2.048 9.705-2.193.517-.166-.888-2.115-3.835-5.317-2.558-2.78-4.65-5.427-4.65-5.882 0-1.089 3.983-.447 7.855 1.266 2.706 1.197 10.55 2.283 10.55 1.46 0-.22-1.381-3.152-3.068-6.514-4.185-8.338-4.13-12.38.116-8.692 1.929 1.675 11.393 7.465 12.203 7.465.21 0-.317-2.967-1.17-6.595-1.91-8.112-2.127-13.224-.577-13.528 1.326-.26 3.13 1.671 7.997 8.56 2.103 2.975 3.894 5.202 3.98 4.947.087-.254-.48-4.748-1.258-9.987-1.458-9.807-1.322-13.458.501-13.458 1.576 0 4.403 4.732 8.075 13.515 1.962 4.695 3.742 8.544 3.954 8.554.624.028 1.89-3.471 2.958-8.176.904-3.979 1.135-4.384 2.505-4.384 2.398 0 4.387 6.6 4.621 15.338l.181 6.748h2.444c1.344 0 2.666.222 2.938.493.272.271-.169 1.743-.98 3.272-1.51 2.846-4.268 5.408-10.477 9.732-1.938 1.35-6.99 5.629-11.224 9.51l-7.701 7.054 6.18.422c10.146.694 14.418 3.587 17.424 11.798.727 1.986 1.113 4.565 1.062 7.105-.043 2.194.31 5.495.784 7.338 1.417 5.504 1.175 7.253-1.329 9.614-2.015 1.9-4.531 2.9-3.63 1.442.491-.795-1.55-4.116-3.798-6.176-1.915-1.756-6.462-3.629-8.806-3.628-2.178 0-8.968 3.36-9.752 4.826-.366.684-1.814 2.57-3.218 4.19-1.404 1.62-3.236 4.437-4.07 6.26-1.49 3.25-1.505 3.431-.76 9.509 1.096 8.96 2.154 10.848 10.264 18.324 1.38 1.271 3.503 4.204 4.718 6.516 2.372 4.514 4.807 7.031 10.624 10.981 4.835 3.284 10.23 8.251 11.906 10.961 1.316 2.13 1.4 2.164 4.475 1.807 7.852-.914 12.598 2.574 13.74 10.097l.505 3.338 1.344-2.148c1.851-2.957 1.783-6.82-.18-10.168-1.727-2.948-4.26-4.72-8.272-5.787-2.558-.68-2.665-.79-1.57-1.59 1.946-1.423 4.264-1.007 7.143 1.282 1.482 1.178 3.19 2.144 3.798 2.147 1.891.01 4.55 1.733 4.944 3.202.207.773.38 2.778.385 4.456.008 3.047.01 3.049 1.052 1.56.577-.823 1.158-3.077 1.3-5.036.241-3.33.14-3.657-1.657-5.335-1.052-.983-1.914-1.945-1.914-2.139 0-.87 3.892-2.234 6.272-2.199 1.443.021 6.075-.138 10.293-.354 14.412-.74 24.134 2.818 22.424 8.204-.212.668-.858 1.41-1.435 1.65-2.097.87-12.779 4.675-15.608 5.56-5.368 1.677-10.574 4.49-12.498 6.752l-1.902 2.236-1.233-1.324c-1.232-1.322-1.235-1.322-4.175-.168-4.165 1.637-10.695 6.825-10.712 8.513-.015 1.4-1.855 2.405-3.867 2.111-1.483-.216-5.095 1.025-5.937 2.04-.377.454-.924 2.952-1.215 5.552-.292 2.6-.796 4.992-1.121 5.317-1.032 1.031-2.407-1.077-2.842-4.355-.227-1.71-.556-3.108-.731-3.108-.176 0-2.123 1.087-4.327 2.417-2.204 1.329-4.766 2.583-5.693 2.787-.927.203-2.865 1.572-4.306 3.04-2.453 2.5-2.668 3-3.353 7.794-.556 3.886-.975 5.169-1.74 5.316-.729.14-1.122-.412-1.419-1.991-.997-5.316-2.73-.72-2.715 7.2.01 5.357.276 7.006 1.84 11.444 2.116 6 2.268 8.03.707 9.443-1.323 1.198-2.124 1.227-5.039.185zm38.063-66.803c0-4.036-7.331-8.05-12.335-6.754-2.208.572-3.13 2.376-1.683 3.293.455.288 2.565.528 4.69.534 4.8.011 6.861 1.61 6.894 5.35l.02 2.328 1.207-1.449c.664-.796 1.207-2.282 1.207-3.302zm37.093-9.425c.761-.76.824-1.18.276-1.84-.39-.47-1.1-.855-1.574-.855-1.222 0-1.72 1.683-.82 2.768.936 1.128.917 1.128 2.118-.073zM341.227 165.59c-1.59-2.777-1.672-2.817-3.037-1.452-1.899 1.898-1.606 2.526 1.176 2.526 2.183 0 2.403-.127 1.861-1.074zm58.838-6.022c-1.109-2.916-1.996-4.239-5.138-7.659-1.72-1.873-3.819-4.747-4.662-6.387-1.887-3.667-9.636-10.799-9.02-8.3.209.846.135 1.935-.165 2.42-.397.641.194 1.57 2.173 3.412 2.183 2.033 2.72 2.944 2.73 4.635.018 2.628 1.224 4.129 5.509 6.852 1.855 1.18 4.616 3.145 6.135 4.367 1.518 1.223 2.822 2.225 2.898 2.229.076.003-.13-.703-.46-1.57zm-75.726.307c.729-1.18-.156-1.276-3.181-.346l-2.979.915 2.878.042c1.583.024 3.06-.251 3.282-.611zm-49.077-57.402c3.666-2.758 4.45-3.624 3.893-4.294-.383-.462-1.008-.84-1.388-.84-1.146 0-7.747 6.436-7.747 7.552 0 .57.147 1.037.326 1.037.18 0 2.392-1.554 4.916-3.455zm43.736-2.196c-4.653-5.876-8.873-9.824-14.499-13.562-7.003-4.653-10.018-7.625-11.775-11.607-.705-1.598-1.794-3.18-2.42-3.515-.626-.335-2.752-2.754-4.724-5.376-5.594-7.437-10.617-13.05-11.678-13.05-1.71 0-.48 3.231 2.367 6.218 3.765 3.95 6.09 7.383 9.401 13.883 1.86 3.652 3.582 6.166 4.819 7.034 1.058.744 5.681 4.97 10.274 9.393 7.049 6.788 9.152 8.437 13.496 10.585 2.831 1.4 5.515 2.552 5.966 2.562.48.011-.028-1.05-1.227-2.565zm-60.021-8.16l2.147-2.273-3.712 1.854c-3.371 1.684-4.114 2.45-5.703 5.879-.471 1.016 5.11-3.177 7.268-5.46zm166.808-1.145c.982-1.183-.18-4.062-1.64-4.062-1.382 0-2.592 1.146-2.592 2.454 0 2.184 2.854 3.269 4.232 1.608zm-36.44-6.849c7.041-3.367 18.086-5.515 25.863-5.03 3.913.244 4.959.14 4.725-.467-.564-1.47-5.879-2.447-13.104-2.408-6.723.035-7.315.146-12.577 2.34-5.855 2.44-13.803 6.854-13.803 7.664 0 1.828 1.348 1.51 8.895-2.099zm-149.222-.489c4.23-1.254 9.597-4.277 9.637-5.428.03-.85-10.219 3.109-13.79 5.327-3.85 2.393-3.596 2.399 4.153.101z" fill="#5c4e4a"/><g aria-label="WAIDWERK" style="line-height:1.25" font-weight="700" font-size="126.667" font-family="Amiko" letter-spacing="0" word-spacing="0" fill="#628593"><path d="M58.078 200.77l-12.206 38.793h-8.584l-8.249-27.869-8.25 27.869h-8.583L0 200.77h7.97l8.64 29.82 8.527-29.82h8.082l8.528 29.82 8.64-29.82zM84.916 230.756H68.362l-3.233 8.807h-7.357l14.714-38.793h8.584l14.714 38.793H88.15zm-2.285-6.242l-5.964-16.498-6.02 16.498zM104.48 200.77h7.358v38.793h-7.357zM137.142 200.77c3.976 0 7.395.799 10.256 2.397 2.861 1.56 5.035 3.808 6.521 6.744 1.487 2.898 2.23 6.317 2.23 10.255 0 3.94-.743 7.376-2.23 10.312-1.486 2.898-3.66 5.146-6.52 6.744-2.862 1.56-6.28 2.34-10.257 2.34h-14.324V200.77zm0 32.272c3.53 0 6.28-1.097 8.25-3.289 2.006-2.192 3.01-5.388 3.01-9.587s-1.004-7.394-3.01-9.586c-1.97-2.193-4.72-3.289-8.25-3.289h-6.967v25.75zM217.822 200.77l-12.206 38.793h-8.584l-8.249-27.869-8.249 27.869h-8.583l-12.207-38.793h7.97l8.64 29.82 8.528-29.82h8.082l8.527 29.82 8.64-29.82zM232.342 207.235v9.699h17.642v6.075h-17.642v10.088h20.708v6.466h-28.065V200.77h28.065v6.465zM284.68 239.563l-7.914-14.77h-6.912v14.77h-7.357V200.77h13.99q7.525 0 11.259 3.01t3.734 8.75q0 4.07-1.839 6.912-1.84 2.842-5.462 4.236l8.583 15.885zm-14.826-21.236h6.689q3.678 0 5.406-1.282 1.784-1.282 1.784-4.347 0-2.954-1.728-4.18-1.728-1.227-5.518-1.227h-6.633zM313.106 223.51l-4.236 4.905v11.148h-7.357V200.77h7.357v17.613l14.882-17.613h9.03l-14.66 16.944 15.551 21.849h-9.085z" style="-inkscape-font-specification:'Amiko Bold'"/></g></svg>