<svg xmlns="http://www.w3.org/2000/svg" width="568.503" height="450" fill="#f9e200"><path d="M69.859 416.317a36.742 36.742 0 0 1-14.717 3.307c-7.05 0-12.413-2.86-16.454-8.749-4.26-6.231-6.415-15.203-6.415-26.668 0-11.35 2.185-20.293 6.499-26.583 4.076-5.958 9.603-8.833 16.881-8.833 4.136 0 8.53 1.097 13.058 3.257l3.848 1.832 7.582-26.881-2.403-1.4a51.871 51.871 0 0 0-26.38-7.185c-9.98 0-18.992 2.726-26.787 8.108S10.71 339.675 6.39 349.709C2.155 359.565 0 371.169 0 384.207c0 20.297 4.404 36.429 13.093 47.953C22.03 443.997 34.662 450 50.669 450c10.819 0 20.293-2.428 28.162-7.224l2.324-1.42-7.522-26.693zm82.347-89.497c-7.15-5.581-15.7-8.406-25.407-8.406-9.434 0-17.874 2.696-24.999 8.014s-12.557 13.004-16.335 23.003c-3.689 9.757-5.561 21.454-5.561 34.756 0 12.969 1.812 24.458 5.377 34.145 3.654 9.93 9.076 17.75 16.112 23.242 7.145 5.576 15.69 8.406 25.407 8.406 9.459 0 17.874-2.696 24.999-8.014 7.055-5.263 12.552-12.999 16.33-23.003 3.689-9.761 5.561-21.459 5.561-34.756 0-12.964-1.807-24.453-5.377-34.145-3.654-9.935-9.071-17.75-16.107-23.242zm-15.342 84.735c-3.932 8.411-8.55 8.411-10.064 8.411s-6.137 0-10.064-8.411c-3.029-6.455-4.563-15.675-4.563-27.348s1.534-20.854 4.563-27.348c3.927-8.441 8.545-8.441 10.064-8.441s6.132 0 10.064 8.411c3.024 6.455 4.558 15.68 4.558 27.353s-1.534 20.898-4.558 27.373zm141.462-18.093c-.889 0-2.224-.889-3.555-1.778-10.02-6.663-19.602-13.902-28.922-21.444l-6.489 17.636-12.413-33.971a378.557 378.557 0 0 1-32.04-33.43h-11.385V447.94h29.518v-60.217l14.364 39.081h23.733l14.349-39.081v60.217h29.86V382.3q-6.628 4.826-13.47 9.384c-1.346.889-2.661 1.778-3.55 1.778zm62.555 4.474h32.303v-28.142h-32.303v-21.176h39.865v-28.142H361.69a379.803 379.803 0 0 1-52.561 51.27v76.195h72.988v-28.147h-41.235zm87.139-77.462h-36.067v127.465h36.067c16.306 0 29.19-5.745 38.281-17.065 8.907-11.087 13.406-26.787 13.406-46.672s-4.513-35.58-13.406-46.672c-9.091-11.306-21.976-17.055-38.281-17.055zm13.937 90.574c-3.342 5.536-7.944 8.232-14.106 8.232h-4.146v-70.147h4.146c6.147 0 10.764 2.691 14.106 8.232 3.649 6.048 5.501 15.079 5.501 26.842s-1.852 20.794-5.501 26.842zm94.988-9.498l31.558-81.076h-32.969l-14.19 44.895-14.046-44.895h-33.664l31.558 81.076v46.389h31.752zM347.718 154.167c-7.944 0-15.084 3.019-37.338 18.868v85.222c38.47-42.993 49.403-72.412 49.403-87.496 0-10.561-4.901-16.593-12.065-16.593zm3.014-56.568c0-15.084-17.348-27.532-40.352-29.041v78.822c29.041-16.971 40.352-33.942 40.352-49.78zm78.102 64.88a65.46 65.46 0 0 0-13.024 1.311 306.23 306.23 0 0 0 6.609-63.057 194.062 194.062 0 0 0-3.396-36.588c-.377-1.49-.75-2.075-1.49-2.264l-27.159-7.17-3.788-15.471c-.189-.755-.377-1.321-1.132-1.49l-27.914-7.542-3.396-14.712c-.189-1.132-.755-1.698-1.49-1.887L280.118.164a9.93 9.93 0 0 0-3.59 0L204.012 13.61c-.755.189-1.321.755-1.49 1.887l-3.421 14.712-27.909 7.542c-.755.189-.943.755-1.127 1.49l-3.774 15.466-27.159 7.17c-.755.189-1.132.755-1.49 2.264a194.062 194.062 0 0 0-3.396 36.588c0 108.637 56.603 202.94 141.079 259.145 1.132.755 2.264 1.49 3.019 1.49s1.882-.755 3.014-1.49a321.175 321.175 0 0 0 93.657-95.638 65.113 65.113 0 1 0 53.817-101.756zM267.765 309.943c0 .755-.755 1.132-1.49.377-20.739-23.758-34.696-52.799-44.125-84.477l-14.349 9.022c-3.769 2.636-6.787 1.49-9.051-2.641-19.235-33.942-31.678-89.755-32.81-128.979 0-1.882.377-3.014 1.887-4.901 4.901-6.033 10.923-12.07 16.593-17.348 1.132-1.132 2.264-.377 2.264 1.49 0 48.271 8.297 93.151 21.494 122.564 1.132 2.264 2.264 2.264 3.774 1.132l4.146-2.636c-7.944-35.074-12.443-81.84-11.311-135.772 0-1.882.372-2.636 1.49-3.391a132.569 132.569 0 0 1 18.103-9.434c1.887-.755 2.264-.377 2.264 1.132-1.132 78.449 5.278 132.748 19.235 176.118.377 1.132 1.49.755 1.49-.377-.755-15.839-.755-29.791-.755-46.762l-.755-135.389c0-1.49.377-2.264 1.882-2.641a151.437 151.437 0 0 1 18.868-3.396.993.993 0 0 1 1.132 1.132zm112.828-125.97a64.775 64.775 0 0 0-16.648 39.577c-14.166 24.329-37.412 53.321-73.529 86.751-.755.755-1.49.377-1.49-.377V44.785a.993.993 0 0 1 1.132-1.132c50.535 3.396 82.967 24.513 82.967 55.063a51.245 51.245 0 0 1-13.202 34.319c16.534 4.538 22.989 16.986 22.989 33.579a77.049 77.049 0 0 1-2.219 17.358zm72.426 70.649h-16.201l-14.399-39.413h-9.781v39.354h-17.606v-39.349h-9.955v-14.647h50.888l8.962 28.401 8.937-28.401h18.709z"/></svg>