<svg xmlns="http://www.w3.org/2000/svg" width="382.842" height="450" fill="#0071cd"><path d="M72.572 323.355H0V450h32.966v-46.952h31.757v-27.962H32.966v-23.768h39.607zm10.461 0H81.89V450h32.956v-93.604a379.989 379.989 0 0 1-31.812-33.041zM129.161 450h72.572v-29.156h-39.607V393.7a387.904 387.904 0 0 1-32.956-24.697zm80.283-86.569V450h30.644v-59.825l14.9 38.823h24.652l14.9-38.823V450h31.003V323.355h-32.372l-25.755 66.97-23.389-61.198a382.676 382.676 0 0 1-34.584 34.304zm29.37-265.278c0-15.17-17.447-27.688-40.58-29.206v79.268c29.206-17.067 40.58-34.134 40.58-50.063zm-3.031 56.888c-7.989 0-15.175 3.036-37.55 18.975v85.705c38.683-43.237 49.683-72.822 49.683-87.992 0-10.621-4.928-16.688-12.134-16.688zm81.576 8.359a65.832 65.832 0 0 0-13.087 1.318 307.966 307.966 0 0 0 6.646-63.415 195.163 195.163 0 0 0-3.415-36.796c-.379-1.498-.759-2.087-1.498-2.277l-27.313-7.21-3.82-15.559c-.19-.759-.379-1.328-1.138-1.498l-28.072-7.585-3.415-14.795c-.19-1.138-.759-1.708-1.498-1.897L167.844.164a9.987 9.987 0 0 0-3.61 0L91.332 13.686c-.759.19-1.328.759-1.498 1.897l-3.415 14.795-28.162 7.585c-.759.19-.949.759-1.138 1.498l-3.795 15.554-27.313 7.21c-.754.19-1.133.759-1.498 2.277a195.163 195.163 0 0 0-3.415 36.796c0 109.253 56.924 204.091 141.879 260.615 1.138.759 2.277 1.498 3.036 1.498s1.892-.759 3.031-1.498a322.921 322.921 0 0 0 94.188-96.181A65.482 65.482 0 1 0 317.359 163.4zM155.376 311.701c0 .759-.759 1.138-1.498.379-20.877-23.913-34.913-53.119-44.395-84.976l-14.431 9.093c-3.795 2.651-6.826 1.498-9.103-2.656-19.344-34.134-31.857-90.264-32.996-129.711 0-1.892.379-3.031 1.897-4.928 4.928-6.067 10.985-12.139 16.688-17.447 1.138-1.138 2.272-.379 2.272 1.498 0 48.545 8.349 93.679 21.621 123.259 1.138 2.277 2.277 2.277 3.79 1.138l4.174-2.651c-7.944-35.243-12.498-82.274-11.34-136.512 0-1.892.379-2.651 1.498-3.41a133.321 133.321 0 0 1 18.206-9.487c1.897-.759 2.277-.379 2.277 1.138-1.138 78.894 5.308 133.501 19.339 177.117.384 1.138 1.498.759 1.498-.379-.759-15.929-.759-29.96-.759-47.027l-.759-136.157c0-1.498.384-2.277 1.897-2.656a152.151 152.151 0 0 1 18.975-3.415.999.999 0 0 1 1.138 1.138zm113.443-126.685a65.127 65.127 0 0 0-16.757 39.802c-14.246 24.467-37.624 53.623-73.951 87.243-.759.759-1.498.379-1.498-.379V45.039a.999.999 0 0 1 1.133-1.138c50.822 3.415 83.443 24.652 83.443 55.376a51.536 51.536 0 0 1-13.277 34.514c16.688 4.549 23.139 17.067 23.139 33.755a77.226 77.226 0 0 1-2.232 17.472zm72.862 71.05h-16.293l-14.481-39.637h-9.842v39.637h-17.701v-39.632h-9.987v-14.73h51.146l9.018 28.562 8.988-28.562h18.81z"/></svg>