<svg xmlns="http://www.w3.org/2000/svg" width="412.406" height="450" fill="#fe0000"><path d="M52.03 370.756l-3.99-1.726c-4.793-2.085-8.15-4.165-9.976-6.19-1.576-1.746-2.344-3.945-2.344-6.729 0-2.674.868-4.594 2.738-6.035 2.105-1.621 5.138-2.444 9.018-2.444a35.519 35.519 0 0 1 16.785 4.245l3.99 2.1 7.482-27.08-2.464-1.382c-9.138-5.113-18.73-7.711-28.521-7.711-12.42 0-22.531 3.681-30.038 10.944S3.337 345.941 3.337 358.176c0 17.498 8.809 30.167 26.162 37.659l3.99 1.726c4.798 2.09 8.16 4.17 9.976 6.19 1.581 1.746 2.349 3.95 2.349 6.729 0 3.177-.913 5.487-2.788 7.098-1.995 1.716-5.098 2.589-9.143 2.589a41.4 41.4 0 0 1-11.033-1.422 58.314 58.314 0 0 1-11.472-4.724l-3.965-2.085L0 438.742l2.095 1.461c9.318 6.484 20.87 9.796 34.342 9.796 12.904 0 23.199-3.751 30.601-11.153s11.153-17.642 11.153-30.427c0-17.498-8.804-30.172-26.162-37.664zm35.519-50.877V447.94h73.323v-28.287h-41.42v-21.947h32.452v-28.287h-32.452V348.15h16.959a380.583 380.583 0 0 1-26.217-28.272zm108.234 75.348c-.888 0-2.23-.893-3.566-1.786-7.357-4.893-14.465-10.106-21.448-15.463v69.961h31.898v-41.096h4.035l17.772 41.096h34.602l-23.239-49.745a38.258 38.258 0 0 0 10.719-13.468c3.048-6.28 4.589-13.468 4.589-21.344a53.287 53.287 0 0 0-1.028-10.31 383.271 383.271 0 0 1-50.778 40.403c-1.322.858-2.664 1.751-3.556 1.751zm67.153 52.713h31.923V319.879h-13.607c-5.871 7.043-11.971 13.921-18.316 20.526zm119.078-28.287h-41.435v-21.957h32.457v-28.277h-32.457V348.15h40.053v-28.272h-71.947V447.93h73.328zM268.553 98.003c0-15.153-17.458-27.653-40.562-29.15v79.159c29.175-17.049 40.562-34.098 40.562-50.009zm-3.053 56.833c-7.981 0-15.158 3.028-37.51 18.954v85.604c38.642-43.191 49.63-72.74 49.63-87.893 0-10.604-4.923-16.665-12.121-16.665zm81.489 8.35a65.722 65.722 0 0 0-13.093 1.312 307.638 307.638 0 0 0 6.639-63.347 194.955 194.955 0 0 0-3.412-36.756c-.379-1.496-.758-2.085-1.496-2.275l-27.284-7.203-3.796-15.493c-.19-.758-.384-1.327-1.137-1.496l-28.042-7.582-3.412-14.779c-.19-1.137-.758-1.706-1.496-1.895L197.634.164a9.976 9.976 0 0 0-3.606 0l-72.824 13.507c-.758.19-1.327.758-1.496 1.895l-3.412 14.779-28.042 7.582c-.758.19-.948.758-1.137 1.496l-3.791 15.533L56.04 62.16c-.758.19-1.132.758-1.496 2.275a194.955 194.955 0 0 0-3.412 36.756c0 109.137 56.863 203.874 141.728 260.342 1.137.753 2.275 1.496 3.028 1.496s1.895-.758 3.033-1.496a322.592 322.592 0 0 0 93.998-96.128 65.412 65.412 0 1 0 54.07-102.219zm-161.81 148.143c0 .758-.758 1.137-1.496.379-20.875-23.882-34.876-53.062-44.348-84.89l-14.395 9.093c-3.791 2.654-6.819 1.496-9.093-2.654C96.522 199.16 84.022 143.09 82.885 103.69c0-1.895.379-3.033 1.895-4.928 4.923-6.06 10.974-12.121 16.67-17.428 1.132-1.137 2.27-.379 2.27 1.496 0 48.493 8.335 93.579 21.598 123.133 1.137 2.27 2.275 2.27 3.786 1.137l4.17-2.654c-7.981-35.235-12.505-82.217-11.368-136.391 0-1.895.379-2.654 1.496-3.412a133.179 133.179 0 0 1 18.186-9.477c1.895-.758 2.275-.379 2.275 1.137-1.137 78.81 5.302 133.364 19.318 176.929.379 1.137 1.496.758 1.496-.374-.758-15.917-.758-29.928-.758-46.982l-.718-135.977c0-1.496.379-2.275 1.895-2.654a151.076 151.076 0 0 1 18.954-3.407.998.998 0 0 1 1.137 1.132zM298.52 184.774a65.073 65.073 0 0 0-16.74 39.764c-14.231 24.441-37.584 53.561-73.872 87.145-.758.758-1.496.379-1.496-.379V44.946a.998.998 0 0 1 1.137-1.132c50.768 3.407 83.354 24.626 83.354 55.312a51.471 51.471 0 0 1-13.263 34.477c16.67 4.544 23.109 17.049 23.109 33.719a77.084 77.084 0 0 1-2.23 17.453zm72.785 70.979h-16.296l-14.465-39.6h-9.831v39.565H313.03v-39.56h-9.976v-14.71h51.092l9.008 28.516 9.003-28.536h18.79z"/></svg>