<svg xmlns="http://www.w3.org/2000/svg" width="1024" height="310" viewBox="-0.445 -0.445 51.921 15.721" fill="#00375a"><path d="M31.189 14.831h3.731v-4.772h.285c.425 0 1.496-.024 2.079.919l2.292 3.854h4.015l-2.089-3.509c-.69-1.176-1.258-1.806-1.704-2.13v-.039c1.259-.446 2.636-1.522 2.636-3.715 0-2.716-1.946-4.116-5.394-4.116h-5.852v4.689h-.038c-.709-2.829-3.095-4.689-7.454-4.689h-8.252l-1.258 5.516-.488 2.578h-.04l-.547-2.74-1.076-5.354h-4.53L6.43 6.676l-.548 2.74h-.041l-.486-2.578-1.258-5.516H0l3.61 13.509h4.121L9.78 6.169h.021.019l2.049 8.661h4.056L18.93 3.614h.04v1.049 10.168h4.606c4.42 0 6.859-2.027 7.576-4.926h.036v4.926zm-7.309-3.062h-1.135V4.385h1.034c2.475 0 3.59 1.095 3.59 3.611 0 2.474-1.115 3.773-3.489 3.773m13.08-4.565h-2.04V4.182h1.917c1.279 0 1.806.506 1.806 1.52 0 .934-.547 1.501-1.684 1.501m12.004-2.317V1.404L45.48 2.661v.865l1.153-.419v2.616l2.33-.838zM47.573 0a3.47 3.47 0 0 1 3.459 3.478 3.47 3.47 0 0 1-3.459 3.478c-1.91 0-3.459-1.556-3.459-3.477A3.47 3.47 0 0 1 47.573 0m0 .51a2.96 2.96 0 0 0-2.951 2.968 2.96 2.96 0 0 0 2.951 2.968c1.63 0 2.953-1.329 2.953-2.967S49.203.51 47.573.51" fill="#fff"/></svg>