<?xml version="1.0" encoding="UTF-8"?>
<svg width="800" height="314.25" version="1.1" xmlns="http://www.w3.org/2000/svg">
	<path d="m639.7 0h160.3l-87.24 314.25h-160.3z" fill="#eb691b"/>
	<path d="m0 67.562 46.877 174.25h52.707l26.809-112.76 27.187 112.76h51.421l40.138-149.03v149.03h58.085c91.975 0 99.509-66.188 99.509-66.188v66.188h46.952v-60.658h11.663c8.6125 0.01 16.82 6.3273 24.386 19.084l24.611 41.575h50.359s-29.184-58.984-47.255-72.625c0 0 34.019-8.7288 34.002-47.861-0.02181-41.281-32.812-53.766-63.845-53.766h-80.878v62.325s-9.7054-62.323-99.053-62.325h-104.36l-23.249 106.78-20.673-106.78h-58.31l-21.507 106.78-22.416-106.78zm449.68 36.728h29.308c11.002 0 19.842 8.8379 19.842 19.842 0 11.004-8.8379 19.842-19.842 19.842h-29.308zm-157.14 2.954h21.81c21.766 0 39.229 17.535 39.229 39.304v17.116c0 21.766-17.46 39.304-39.229 39.304h-21.81z" fill="#dadbdc"/>
	<path d="m642.67 72.949s12.684 18.725 12.987 19.631c8.1521-8.455 31.826-14.259 33.825 0 2.181 15.582-17.971 16.609-27.333 16.309v21.141c21.769 0.35865 30.049 7.5486 29.79 16.309-0.30291 10.13-12.725 14.797-41.718 7.2482l-6.9477 24.161c30.328 12.691 79.189 10.134 83.314-30.299 0.3005-12.468-3.887-23.802-25.026-33.122 14.39-4.946 21.744-17.215 21.444-27.18-0.30776-10.125-11.174-26.88-31.106-27.783-19.934-0.91117-30.67 3.1479-49.23 13.585z" fill="#fff"/>
</svg>
