<?xml version="1.0" encoding="UTF-8"?>
<svg width="800" height="231.97" version="1.1" xmlns="http://www.w3.org/2000/svg">
 <path d="m580.8 50.956v124.72h13.917v-57.632h67.085v57.632h13.917v-124.72h-13.917v55.312h-67.085v-55.312zm124.41 0v124.72h26.812c21.531 0 38.244-5.2946 50.139-15.881 11.895-10.587 17.844-26.288 17.844-47.105 1e-5 -12.609-2.6172-23.552-7.8512-32.83-5.234-9.2783-12.788-16.416-22.661-21.412-9.7542-4.996-21.293-7.4932-34.615-7.4932zm13.919 11.776h15.569c16.891 0 29.68 4.4006 38.363 13.203 8.6836 8.8025 13.024 21.055 13.024 36.757 0 16.891-4.4606 29.68-13.382 38.363-8.9215 8.5646-22.779 12.847-41.574 12.847h-12.001z" fill="#dadbdc" stroke-width="2.6764"/>
 <polygon class="st1" transform="matrix(3.4113 0 0 3.4113 -88.694 0)" points="143 68 161.5 0 195.9 0 177.4 68" fill="#ed2727"/>
 <path class="st0" d="m379.2 142.49c-6.3702-10.729-11.735-16.428-15.758-19.781v-0.33529c11.735-4.0233 24.14-13.746 24.14-34.198 0-24.81-17.77-37.551-49.285-37.551h-53.644v39.227 4.3586h-0.33533c-6.3702-26.151-28.163-42.915-68.396-42.915h-74.766l-11.735 50.291c-2.3469 10.394-4.6939 23.469-4.6939 23.469h-0.33533s-2.3469-14.752-5.0291-25.146l-9.723-48.95h-41.239l-9.723 48.95c-2.3469 10.394-5.0291 25.146-5.0291 25.146h-0.33533s-2.0117-13.076-4.6939-23.469l-11.735-50.626h-36.88l33.192 124.05h37.551l13.411-56.997c2.6822-11.399 5.3644-22.463 5.3644-22.463h0.33533s2.3469 11.064 5.3644 22.463l13.411 56.661h36.88l27.493-102.59h0.33533s-0.33533 4.0233-0.33533 9.3877v93.206h42.245c40.568 0 63.032-18.775 69.402-44.927h0.33532v4.3586 41.239h34.198v-44.592h2.6822c4.0233 0 13.746-0.33533 19.111 8.3819l20.787 35.204h36.88zm-160.93 4.0233h-10.394v-67.39h9.3877c22.799 0 32.857 10.058 32.857 33.192 0 22.128-10.058 34.198-31.851 34.198m119.36-41.574h-18.775v-27.493h17.434c11.735 0 16.428 4.6938 16.428 13.746 0.33533 8.3819-4.6939 13.746-15.087 13.746" fill="#fff" stroke-width="3.3528"/>
 <style type="text/css"><![CDATA[
	.st0{fill:#18365B;}
	.st1{fill:#D20E48;}
]]></style>
</svg>
