<?xml version="1.0" encoding="UTF-8"?>
<svg width="800" height="231.97" version="1.1" xmlns="http://www.w3.org/2000/svg">
	<path d="m580.8 50.956v124.72h13.917v-57.632h67.085v57.632h13.917v-124.72h-13.917v55.312h-67.085v-55.312zm124.41 0v124.72h26.812c21.531 0 38.244-5.295 50.139-15.881 11.895-10.587 17.844-26.288 17.844-47.105 0-12.609-2.617-23.552-7.851-32.83-5.234-9.278-12.788-16.416-22.661-21.412-9.754-4.996-21.293-7.493-34.615-7.493zm13.919 11.776h15.569c16.891 0 29.68 4.4 38.363 13.203 8.684 8.803 13.024 21.055 13.024 36.757 0 16.891-4.46 29.68-13.382 38.363-8.921 8.565-22.779 12.847-41.574 12.847h-12.001z" fill="#dadbdc"/>
	<path d="m399.12 231.97 63.109-231.97h117.35l-63.109 231.97z" fill="#d20e48"/>
	<path d="m379.2 142.49c-6.37-10.729-11.735-16.428-15.758-19.781v-0.335c11.735-4.024 24.14-13.746 24.14-34.198 0-24.81-17.77-37.551-49.285-37.551h-53.644v43.585h-0.335c-6.37-26.15-28.163-42.915-68.396-42.915h-74.766l-11.735 50.291c-2.347 10.394-4.694 23.47-4.694 23.47h-0.336s-2.346-14.753-5.029-25.147l-9.723-48.95h-41.239l-9.723 48.95c-2.347 10.394-5.029 25.146-5.029 25.146h-0.335s-2.012-13.076-4.694-23.469l-11.735-50.626h-36.88l33.192 124.05h37.551l13.411-56.997a3908.7 3908.7 0 0 1 5.364-22.463h0.336s2.347 11.064 5.364 22.463l13.411 56.661h36.88l27.493-102.59h0.335s-0.335 4.024-0.335 9.388v93.206h42.245c40.568 0 63.032-18.775 69.402-44.927h0.335v45.598h34.198v-44.592h2.683c4.023 0 13.746-0.336 19.11 8.382l20.788 35.204h36.88zm-160.93 4.023h-10.394v-67.39h9.388c22.799 0 32.857 10.058 32.857 33.192 0 22.128-10.058 34.198-31.851 34.198m119.36-41.574h-18.775v-27.493h17.434c11.735 0 16.428 4.694 16.428 13.746 0.335 8.382-4.694 13.746-15.087 13.746" fill="#fff"/>
</svg>
