<?xml version="1.0" encoding="UTF-8"?>
<svg width="800" height="314.25" version="1.1" xmlns="http://www.w3.org/2000/svg">
	<path d="m639.7 0h160.3l-87.24 314.25h-160.3z" fill="#f4a019"/>
	<path d="m710.43 65.236-31.215-0.65187-52.993 75.92v23.327h52.993v22.438h31.215v-22.438h14.918v-23.327h-14.918zm-31.215 42.449v32.819h-21.934z" fill="#fff"/>
	<path d="m0 67.562 46.877 174.25h52.707l26.809-112.76 27.187 112.76h51.421l40.138-149.03v149.03h58.085c91.975 0 99.509-66.188 99.509-66.188v66.188h46.952v-60.658h11.663c8.6125 0.01 16.82 6.3273 24.386 19.084l24.611 41.575h50.359s-29.184-58.984-47.255-72.625c0 0 34.019-8.7288 34.002-47.861-0.02181-41.281-32.812-53.766-63.845-53.766h-80.878v62.325s-9.7054-62.323-99.053-62.325h-104.36l-23.249 106.78-20.673-106.78h-58.31l-21.507 106.78-22.416-106.78zm449.68 36.728h29.308c11.002 0 19.842 8.8379 19.842 19.842 0 11.004-8.8379 19.842-19.842 19.842h-29.308zm-157.14 2.954h21.81c21.766 0 39.229 17.535 39.229 39.304v17.116c0 21.766-17.46 39.304-39.229 39.304h-21.81z" fill="#dadbdc"/>
</svg>
