<?xml version="1.0" encoding="UTF-8" standalone="no"?>
<!-- Created with Inkscape (http://www.inkscape.org/) -->

<svg
   xmlns:dc="http://purl.org/dc/elements/1.1/"
   xmlns:cc="http://creativecommons.org/ns#"
   xmlns:rdf="http://www.w3.org/1999/02/22-rdf-syntax-ns#"
   xmlns:svg="http://www.w3.org/2000/svg"
   xmlns="http://www.w3.org/2000/svg"
   xmlns:sodipodi="http://sodipodi.sourceforge.net/DTD/sodipodi-0.dtd"
   xmlns:inkscape="http://www.inkscape.org/namespaces/inkscape"
   width="785.94946"
   height="244.94458"
   id="svg3380"
   sodipodi:version="0.32"
   inkscape:version="0.91pre3 r13670"
   version="1.0"
   sodipodi:docname="wdr funkhaus europa.svg"
   inkscape:output_extension="org.inkscape.output.svg.inkscape">
  <defs
     id="defs3382">
    <inkscape:perspective
       sodipodi:type="inkscape:persp3d"
       inkscape:vp_x="0 : 526.18109 : 1"
       inkscape:vp_y="0 : 1000 : 0"
       inkscape:vp_z="744.09448 : 526.18109 : 1"
       inkscape:persp3d-origin="372.04724 : 350.78739 : 1"
       id="perspective3388" />
  </defs>
  <sodipodi:namedview
     id="base"
     pagecolor="#ffffff"
     bordercolor="#666666"
     borderopacity="1.0"
     inkscape:pageopacity="0.0"
     inkscape:pageshadow="2"
     inkscape:zoom="0.83490749"
     inkscape:cx="202.53447"
     inkscape:cy="122.47229"
     inkscape:document-units="px"
     inkscape:current-layer="layer1"
     showgrid="false"
     inkscape:window-width="1920"
     inkscape:window-height="1017"
     inkscape:window-x="-8"
     inkscape:window-y="-8"
     inkscape:window-maximized="1" />
  <metadata
     id="metadata3385">
    <rdf:RDF>
      <cc:Work
         rdf:about="">
        <dc:format>image/svg+xml</dc:format>
        <dc:type
           rdf:resource="http://purl.org/dc/dcmitype/StillImage" />
      </cc:Work>
    </rdf:RDF>
  </metadata>
  <g
     inkscape:label="Ebene 1"
     inkscape:groupmode="layer"
     id="layer1"
     transform="translate(42.9747,-409.88989)">
    <g
       id="g4165">
      <g
         transform="translate(-350.014,139.45947)"
         style="fill:#e4e4e4;fill-opacity:1"
         id="g3336">
        <path
           style="fill:#e4e4e4;fill-rule:evenodd;stroke:none;stroke-width:1px;stroke-linecap:butt;stroke-linejoin:miter;stroke-opacity:1;fill-opacity:1"
           d="m 587.35868,291.81013 7.90409,-12.17656 c 0,0 -11.28174,-9.34737 -22.75094,-6.40871 -8.27113,2.11925 -18.7989,5.68765 -18.7989,23.07137 0,2.75575 0,9.18582 0,9.18582 l -7.47683,0 0,14.09918 7.47683,0 0,58.96017 18.7989,0 0,-58.96017 18.37165,0 c 0,0 0,27.38933 0,38.87953 0,5.10851 2.10893,12.45678 5.76784,16.02179 4.28554,4.17555 9.32531,6.19933 18.50771,6.15874 7.92731,-0.0355 18.17619,-7.4837 18.17619,-7.4837 l 4.49209,8.05411 14.76754,-8.77691 -5.31469,-9.06068 0,-60.75913 -17.51715,5.55126 c 0,0 0,33.22711 0,46.5548 0,8.13424 -5.51999,11.00098 -11.53569,10.82596 -5.4324,-0.16211 -8.54495,-4.02843 -8.54495,-10.97701 0,-14.55031 0,-49.08794 0,-49.08794 l -37.17054,0 c 0,0 0,-3.73841 0,-5.98146 0,-4.00387 -0.0826,-10.39881 7.04958,-11.10844 4.4818,-0.44592 7.79727,3.41798 7.79727,3.41798 z"
           id="path2489"
           sodipodi:nodetypes="ccssccccccccsssccccccsssccssc"
           inkscape:connector-curvature="0" />
        <path
           style="fill:#e4e4e4;fill-rule:evenodd;stroke:none;stroke-width:1px;stroke-linecap:butt;stroke-linejoin:miter;stroke-opacity:1;fill-opacity:1"
           d="m 667.53786,378.5414 17.53125,0 c -10e-6,0 0,-30.79534 0,-44.12303 -10e-6,-8.13424 3.04061,-13.00883 10.67675,-14.19627 5.30729,-0.82529 9.38575,2.27697 9.38575,9.22555 0,14.5503 0,49.09375 0,49.09375 l 18.8125,0 0,-14.125 c 0,10e-6 0,-27.3848 0,-38.875 0,-5.10852 -2.12234,-12.43499 -5.78125,-16 -4.28555,-4.17556 -9.3176,-6.22809 -18.5,-6.1875 -7.92728,0.0355 -15.62401,8.56812 -15.62401,8.56812 l -4.04151,-8.917 -16.06299,6.85864 3.60351,10.77149 0,57.90625 z"
           id="path3261"
           sodipodi:nodetypes="ccssscccsssccccc"
           inkscape:connector-curvature="0" />
        <path
           style="fill:#e4e4e4;fill-rule:evenodd;stroke:none;stroke-width:1px;stroke-linecap:butt;stroke-linejoin:miter;stroke-opacity:1;fill-opacity:1"
           d="m 759.21875,270.875 -18.8125,9.40625 0,98.25 18.8125,0 0,-36.375 24.3125,36.375 24.625,0 -29.625,-41.09375 22.96875,-31.96875 -23.25,0 -19.03125,28.78125 0,-63.375 z"
           id="path3270"
           inkscape:connector-curvature="0" />
        <path
           sodipodi:nodetypes="ccssscccssscccc"
           id="path3275"
           d="m 816.60251,378.5414 18.91723,0 c 0.11569,0 0.11569,-30.79534 0.11569,-44.12303 -1e-5,-8.13424 2.92492,-13.00883 10.56106,-14.19627 5.30729,-0.82529 9.38575,2.27697 9.38575,9.22555 0,14.5503 0,49.09375 0,49.09375 l 18.8125,0 0,-14.125 c 0,10e-6 0,-27.3848 0,-38.875 0,-5.10852 -2.12234,-12.43499 -5.78125,-16 -4.28555,-4.17556 -9.3176,-6.22809 -18.5,-6.1875 -7.92728,0.0355 -14.47806,8.56812 -14.47806,8.56812 l 0,-41.4916 -19.03292,9.11781 0,98.99317 z"
           style="fill:#e4e4e4;fill-rule:evenodd;stroke:none;stroke-width:1px;stroke-linecap:butt;stroke-linejoin:miter;stroke-opacity:1;fill-opacity:1"
           inkscape:connector-curvature="0" />
        <path
           style="fill:#e4e4e4;fill-rule:evenodd;stroke:none;stroke-width:1px;stroke-linecap:butt;stroke-linejoin:miter;stroke-opacity:1;fill-opacity:1"
           d="m 916.71875,304.09375 c -18.19175,0.25045 -28.34377,11.625 -28.34375,11.625 l 8.28125,12.65625 c 0,0 9.55515,-9.69203 22.125,-8.59375 8.2809,0.72353 7.28122,13.90626 7.28125,13.90625 0,0 -13.65094,-2.48009 -24.90625,1.84375 -7.7614,2.98162 -14.38995,9.8412 -14.625,20.375 -0.46427,20.80731 15.03569,26.1568 27.6875,25.84375 10.74601,-0.26588 16.4375,-8.81249 16.4375,-8.8125 L 939.625,382.75 952.09375,371.125 945,362.96875 c 0,0 -10e-6,-21.05461 0,-31.5625 0,-15.70621 -6.01211,-25.93702 -24.53125,-27.21875 -1.2834,-0.0888 -2.53722,-0.11045 -3.75,-0.0937 z m 7.9375,42.84375 c 0.48012,-0.009 0.75,0 0.75,0 l 0,16.4375 c -3e-5,-10e-6 -17.96175,9.34929 -17.71875,-5.5625 0.16215,-9.95199 13.60791,-10.81116 16.96875,-10.875 z"
           id="path3283"
           inkscape:connector-curvature="0" />
        <path
           style="fill:#e4e4e4;fill-rule:evenodd;stroke:none;stroke-width:1px;stroke-linecap:butt;stroke-linejoin:miter;stroke-opacity:1;fill-opacity:1"
           d="m 1019.1234,305.48205 -17.5312,0 c 0.1511,-2.6875 0,35.92231 0,49.25 0,8.13424 -5.5156,11.01877 -11.5313,10.84375 -5.43237,-0.16211 -8.53125,-4.05142 -8.53125,-11 0,-14.5503 0,-49.09375 0,-49.09375 l -18.625,0 0.9375,60.1875 c 0.97074,3.43214 2.53746,6.74808 4.65625,8.8125 4.28555,4.17556 9.3176,6.22809 18.5,6.1875 7.92728,-0.0355 18.1875,-7.5 18.1875,-7.5 l 4.4688,8.0625 14.7812,-8.78125 -5.3125,-9.0625 0,-57.90625 z"
           id="path3290"
           sodipodi:nodetypes="ccscscccssccccc"
           inkscape:connector-curvature="0" />
        <path
           style="fill:#e4e4e4;fill-rule:evenodd;stroke:none;stroke-width:1px;stroke-linecap:butt;stroke-linejoin:miter;stroke-opacity:1;fill-opacity:1"
           d="m 1064.2812,303.84653 c -19.0411,0.53821 -30.1796,13.26961 -29.6874,26.61374 0.6908,18.51754 30.5312,20.46973 30.5312,20.46973 l 0,0.0309 c 12.3321,2.87528 9.3626,12.6639 0.8438,14.75798 -5.7567,1.41508 -25.7298,-6.7101 -25.7298,-6.7101 l -7.2813,14.38756 c 10e-5,10e-6 19.0369,8.12387 33.0111,7.72886 19.0411,-0.53823 27.4919,-14.13418 26.9997,-27.47831 -0.6908,-18.51753 -27.8435,-19.57428 -27.8435,-19.57428 l 0,-0.0309 c -12.3321,-2.87529 -9.3625,-12.69478 -0.8438,-14.78884 5.7567,-1.41509 18.7813,6.144 18.7813,6.144 l 7.2813,-13.52299 c -1e-4,2e-5 -12.0884,-8.42235 -26.0626,-8.02734 z"
           id="path3297"
           sodipodi:nodetypes="ccccsccscccsccc"
           inkscape:connector-curvature="0" />
        <path
           style="fill:#e4e4e4;fill-rule:evenodd;stroke:none;stroke-width:1px;stroke-linecap:butt;stroke-linejoin:miter;stroke-opacity:1;fill-opacity:1"
           d="m 580,408.65625 c -22.34538,0.10252 -32.03515,22.96977 -32.0625,37.8125 -0.0267,14.52192 5.84509,37.07778 29.5,39.3125 16.03016,1.5144 32.46875,-9.625 32.46875,-9.625 l -6.84375,-11.75 c -3e-5,-10e-6 -14.37258,8.0674 -20.5,6.84375 -15.10623,-3.01673 -13.03125,-18.15625 -13.03125,-18.15625 l 42.0625,0 c 10e-6,10e-6 2.26898,-44.59434 -31.59375,-44.4375 z m 1.0625,16.46875 c 10.88579,0.0267 10.875,14.71875 10.875,14.71875 l -22,0 c 0,0 -0.43694,-14.74763 11.125,-14.71875 z"
           id="path3307"
           inkscape:connector-curvature="0" />
        <path
           sodipodi:nodetypes="ccscscccssccccc"
           id="path3312"
           d="m 682.21126,410.67916 -17.5312,0 c 0.1511,-2.6875 0,35.92231 0,49.25 0,8.13424 -5.5156,11.01877 -11.5313,10.84375 -5.43237,-0.16211 -8.53125,-4.05142 -8.53125,-11 0,-14.5503 0,-49.09375 0,-49.09375 l -18.625,0 0.9375,60.1875 c 0.97074,3.43214 2.53746,6.74808 4.65625,8.8125 4.28555,4.17556 9.3176,6.22809 18.5,6.1875 7.92728,-0.0355 18.1875,-7.5 18.1875,-7.5 l 4.4688,8.0625 14.7812,-8.78125 -5.3125,-9.0625 0,-57.90625 z"
           style="fill:#e4e4e4;fill-rule:evenodd;stroke:none;stroke-width:1px;stroke-linecap:butt;stroke-linejoin:miter;stroke-opacity:1;fill-opacity:1"
           inkscape:connector-curvature="0" />
        <path
           style="fill:#e4e4e4;fill-rule:evenodd;stroke:none;stroke-width:1px;stroke-linecap:butt;stroke-linejoin:miter;stroke-opacity:1;fill-opacity:1"
           d="m 701.19661,484.56054 c 0,0 0,-44.7091 0,-65.21699 0,-1.63147 -2.39423,-4.4861 -2.39423,-4.4861 l 17.03807,-6.42547 4.38907,10.26865 c 0,0 3.3492,-5.68692 9.251,-8.34153 7.05157,-3.17178 14.91778,-0.87282 14.91778,-0.87282 l -7.25064,20.54346 c 0,0 -5.4982,-2.03676 -8.6253,-1.52573 -6.79747,1.11083 -8.29284,8.49537 -8.29284,11.34743 0,14.07611 0,44.7091 0,44.7091 l -19.03291,0 z"
           id="path3320"
           sodipodi:nodetypes="cscccsccsscc"
           inkscape:connector-curvature="0" />
        <path
           style="opacity:1;fill:#e4e4e4;fill-opacity:1;stroke:none;stroke-width:1;stroke-miterlimit:4;stroke-dasharray:none;stroke-dashoffset:0;stroke-opacity:1"
           d="m 776.09375,409.3125 c -18.5135,0 -33.53125,17.21185 -33.53125,38.4375 0,21.22566 15.01776,38.46875 33.53125,38.46875 18.5135,0 33.53125,-17.24308 33.53125,-38.46875 0,-21.22566 -15.01775,-38.4375 -33.53125,-38.4375 z m 0.21875,15.59375 c 6.59445,-10e-6 11.9375,10.33621 11.9375,23.0625 -10e-6,12.72628 -5.34307,23.0625 -11.9375,23.0625 -6.59441,0 -11.9375,-10.33621 -11.9375,-23.0625 -10e-6,-12.7263 5.34307,-23.0625 11.9375,-23.0625 z"
           id="path3322"
           inkscape:connector-curvature="0" />
        <path
           style="fill:#e4e4e4;fill-rule:evenodd;stroke:none;stroke-width:1px;stroke-linecap:butt;stroke-linejoin:miter;stroke-opacity:1;fill-opacity:1"
           d="m 835.5,408.4375 -15.875,5.4375 0,101.5 19.34375,-4.84375 0,-25.96875 c 10e-6,-10e-6 44.59903,12.86709 44.09375,-36.8125 -0.54285,-53.37332 -44.10387,-35.63111 -44.10387,-35.63111 l -1.89319,0.94775 L 835.5,408.4375 Z m 13.40625,17.21875 c 0.42396,0.004 0.86423,0.0233 1.3125,0.0937 7.19171,1.13063 10.6875,6.816 10.6875,22 -10e-6,20.41385 -4.76962,21.01608 -10.90625,22.4375 -6.03304,1.39745 -11.03125,-3.625 -11.03125,-3.625 l 0,-33.96875 c 10e-6,-1e-5 3.57817,-6.9917 9.9375,-6.9375 z"
           id="path3329"
           sodipodi:nodetypes="cccccsccccsssccc"
           inkscape:connector-curvature="0" />
        <path
           id="path3334"
           d="m 922.09289,409.32229 c -18.19175,0.25045 -28.34377,11.625 -28.34375,11.625 l 8.28125,12.65625 c 0,0 9.55515,-9.69203 22.125,-8.59375 8.2809,0.72353 7.28122,13.90626 7.28125,13.90625 0,0 -13.65094,-2.48009 -24.90625,1.84375 -7.7614,2.98162 -14.38995,9.8412 -14.625,20.375 -0.46427,20.80731 15.03569,26.1568 27.6875,25.84375 10.74601,-0.26588 16.4375,-8.81249 16.4375,-8.8125 l 8.96875,9.8125 12.46875,-11.625 -7.09375,-8.15625 c 0,0 -10e-6,-21.05461 0,-31.5625 0,-15.70621 -6.01211,-25.93702 -24.53125,-27.21875 -1.2834,-0.0888 -2.53722,-0.11045 -3.75,-0.0937 z m 7.9375,42.84375 c 0.48012,-0.009 0.75,0 0.75,0 l 0,16.4375 c -3e-5,-1e-5 -17.96175,9.34929 -17.71875,-5.5625 0.16215,-9.95199 13.60791,-10.81116 16.96875,-10.875 z"
           style="fill:#e4e4e4;fill-rule:evenodd;stroke:none;stroke-width:1px;stroke-linecap:butt;stroke-linejoin:miter;stroke-opacity:1;fill-opacity:1"
           inkscape:connector-curvature="0" />
      </g>
      <path
         id="path3351"
         d="m 66.6815,412.47167 c -60.5377,0 -109.6562,49.1497 -109.6562,109.6875 0,60.5378 49.1186,109.6563 109.6562,109.6563 60.5378,0 109.6563,-49.1186 109.6563,-109.6563 0,-60.5378 -49.1184,-109.6875 -109.6563,-109.6875 z m 0.063,31.75 c 43.0186,0 77.9374,34.9188 77.9374,77.9375 10e-5,38.0371 -27.3146,69.6985 -63.375,76.5313 l 0,-78.6563 -29.625,0 0,78.5937 c -35.8144,-7.0282 -62.875,-38.6062 -62.875,-76.4687 0,-43.0187 34.9187,-77.9375 77.9376,-77.9375 z"
         style="opacity:1;fill:#aa5c11;fill-opacity:1;stroke:none;stroke-width:0.99184018;stroke-miterlimit:4;stroke-dasharray:none;stroke-dashoffset:0;stroke-opacity:1"
         inkscape:connector-curvature="0" />
    </g>
  </g>
</svg>
