<?xml version="1.0" encoding="UTF-8"?>
<svg width="800" height="314.25" version="1.1" xmlns="http://www.w3.org/2000/svg">
	<path d="m639.7 0h160.3l-87.24 314.25h-160.3z" fill="#ec1728"/>
	<path d="m0 67.562 46.877 174.25h52.707l26.809-112.76 27.187 112.76h51.421l40.138-149.03v149.03h58.085c91.975 0 99.509-66.188 99.509-66.188v66.188h46.952v-60.658h11.663c8.6125 0.01 16.818 6.3273 24.386 19.084l24.611 41.575h50.359s-29.184-58.984-47.255-72.625c0 0 34.019-8.7312 34.002-47.861-0.02423-41.281-32.812-53.766-63.847-53.766h-80.878v62.325s-9.7054-62.323-99.053-62.325h-104.35l-23.252 106.78-20.671-106.78h-58.31l-21.507 106.78-22.416-106.78zm449.68 36.728h29.31c10.999 0 19.842 8.8379 19.842 19.842 0 11.004-8.8379 19.842-19.842 19.842h-29.31zm-157.14 2.954h21.81c21.766 0 39.229 17.535 39.229 39.304v17.116c0 21.764-17.46 39.304-39.229 39.304h-21.81z" fill="#dadbdc"/>
	<path d="m726.14 181.61v-21.681h-45.832c8.1933-7.997 38.39-30.706 38.831-61.174 0.22052-15.148-13.016-34.775-37.884-34.869-22.227-0.08482-36.098 8.6367-44.444 14.954 0 0 14.123 18.727 14.385 19.023 8.9421-7.1173 20.906-11.058 29.065-6.8483 11.823 6.0971 8.0697 24.255-1.7036 36.347-7.3984 9.1505-36.912 38.422-36.912 38.422v15.827z" fill="#fff"/>
</svg>
