<?xml version="1.0" encoding="UTF-8"?>
<!-- Generator: Adobe Illustrator 15.0.2, SVG Export Plug-In . SVG Version: 6.00 Build 0)  -->
<svg id="Ebene_1_Kopie" width="800" height="322.19" version="1.1" viewBox="0 0 800 322.19" xml:space="preserve" xmlns="http://www.w3.org/2000/svg" xmlns:cc="http://creativecommons.org/ns#" xmlns:dc="http://purl.org/dc/elements/1.1/" xmlns:rdf="http://www.w3.org/1999/02/22-rdf-syntax-ns#"><metadata><rdf:RDF><cc:Work rdf:about=""><dc:format>image/svg+xml</dc:format><dc:type rdf:resource="http://purl.org/dc/dcmitype/StillImage"/></cc:Work></rdf:RDF></metadata><style type="text/css"><![CDATA[
	.st0{fill:#18365B;}
	.st1{fill:#D20E48;}
]]></style><polygon class="st1" transform="matrix(4.7087 0 0 4.7087 -122.42 0)" points="161.5 0 195.9 0 177.4 68 143 68" fill="#ed2727"/><path class="st0" d="m532.55 196.35c-8.9464-15.068-16.48-23.072-22.131-27.781v-0.47087c16.48-5.6504 33.902-19.305 33.902-48.028 0-34.844-24.956-52.737-69.217-52.737h-75.338v55.091 6.1212h-0.47087c-8.9464-36.727-39.553-60.271-96.056-60.271h-105l-16.48 70.63c-3.296 14.597-6.5921 32.961-6.5921 32.961h-0.47087s-3.296-20.718-7.063-35.315l-13.655-68.746h-57.916l-13.655 68.746c-3.296 14.597-7.063 35.315-7.063 35.315h-0.47086s-2.8252-18.364-6.5921-32.961l-16.48-71.101h-51.795l46.616 174.22h52.737l18.835-80.047c3.7669-16.009 7.5338-31.548 7.5338-31.548h0.47087s3.296 15.539 7.5338 31.548l18.835 79.576h51.795l38.611-144.08h0.47087s-0.47087 5.6504-0.47087 13.184v130.9h59.329c56.975 0 88.523-26.368 97.469-63.096h0.47086v6.1212 57.916h48.028v-62.625h3.7669c5.6504 0 19.305-0.47086 26.839 11.772l29.194 49.441h51.795zm-226.02 5.6504h-14.597v-94.644h13.184c32.019 0 46.145 14.126 46.145 46.616 0 31.077-14.126 48.028-44.732 48.028m167.63-58.387h-26.368v-38.611h24.485c16.48 0 23.072 6.5921 23.072 19.305 0.47086 11.772-6.5921 19.305-21.189 19.305" fill="#fff" stroke-width="4.7086"/></svg>
