<?xml version="1.0" encoding="UTF-8"?>
<svg width="800" height="320.19" xmlns="http://www.w3.org/2000/svg">
  <path d="M638.02 0H800l-87.11 320.19H550.91z" fill="#d20e48"/>
  <path d="M532.54 196.35c-8.946-15.068-16.48-23.072-22.131-27.781v-.47c16.48-5.65 33.902-19.306 33.902-48.028 0-34.844-24.956-52.736-69.216-52.736h-75.337v61.211h-.47c-8.947-36.727-39.554-60.269-96.056-60.269h-105l-16.48 70.629c-3.296 14.596-6.592 32.96-6.592 32.96h-.47s-3.297-20.718-7.064-35.315l-13.655-68.745H96.056l-13.655 68.745c-3.296 14.597-7.063 35.315-7.063 35.315h-.47s-2.826-18.364-6.593-32.96l-16.48-71.101H.001l46.616 174.22h52.737l18.835-80.046a5495.4 5495.4 0 0 1 7.534-31.548h.47s3.297 15.54 7.535 31.548l18.835 79.575h51.794l38.61-144.08h.472s-.47 5.65-.47 13.184v130.9h59.327c56.974 0 88.522-26.368 97.468-63.095h.47v64.036h48.028v-62.624h3.766c5.65 0 19.305-.47 26.84 11.772l29.193 49.44h51.794zM306.52 202h-14.597v-94.643h13.184c32.019 0 46.145 14.126 46.145 46.616 0 31.077-14.126 48.028-44.732 48.028m167.63-58.386h-26.368v-38.61h24.485c16.48 0 23.072 6.59 23.072 19.304.47 11.772-6.592 19.305-21.189 19.305" fill="#fff"/>
</svg>
