<svg xmlns="http://www.w3.org/2000/svg" width="600" height="156.425"><path d="M519.362 36.002h-43.904V3.251H600v32.751h-43.796v117.175h-36.842zM395.154 3.254h36.842v117.167h64.082v32.751H395.154zm-26.277 131.005l-.472.438c-16.126 14.824-35.694 21.729-61.576 21.729-45.604 0-76.246-31.247-76.246-77.753C230.582 31.618 260.432 0 304.856 0c42.546 0 71.234 31.366 71.388 78.055 0 4.601-.31 10.096-.764 13.464H270.342l.358 1.74c4.513 19.963 17.797 30.512 38.41 30.512 13.376 0 26.089-4.757 36.755-13.758l.477-.403 22.536 24.646zm-31.292-69.967l-.371-1.71c-4.182-19.279-15.479-29.47-32.666-29.47-17.921 0-29.584 10.191-33.726 29.475l-.363 1.705h67.129zm-172.753 46.827L135.423 3.254h-39.72L66.297 110.901 38.285 3.254H0l42.332 149.923h44.453l28.513-96.976 28.513 96.976h44.453L230.593 3.254h-37.752z" fill="#e8e6e3"/></svg>