<?xml version="1.0" encoding="UTF-8"?>
<svg width="450" height="449.6" version="1.1" xmlns="http://www.w3.org/2000/svg">
	<g fill="#b5152b">
		<path d="M 225,0 A 225,224.8 0 0 0 0,224.8 225,224.8 0 0 0 225,449.6 225,224.8 0 0 0 450,224.8 225,224.8 0 0 0 225,0 Z m 0,16.4 A 208.59,208.4 0 0 1 433.59,224.8 208.59,208.4 0 0 1 225,433.2 208.59,208.4 0 0 1 16.41,224.8 208.59,208.4 0 0 1 225,16.4 Z"/>
		<path d="m225.03 32.359a192.6 192.44 0 0 0-96.299 25.781 192.6 192.44 0 0 0-8.2129 5.4824l50.828 45.275 53.688-47.832 53.717 47.832 51.105-45.537a192.6 192.44 0 0 0-8.5254-5.2207 192.6 192.44 0 0 0-96.301-25.781zm156.66 80.502-102.96 91.736-53.717-47.834-53.688 47.834-102.72-91.52a192.6 192.44 0 0 0-36.17 111.72h385.2a192.6 192.44 0 0 0-35.945-111.94z"/>
		<path d="m225.06 251.51-53.688 47.834-53.328-47.504-53.842 47.744 107.14 95.457 53.686-47.834 53.719 47.834 107.34-95.637-53.709-47.824-53.604 47.764z"/>
	</g>
</svg>
