<?xml version="1.0" encoding="UTF-8"?>
<svg width="800" height="233.42" version="1.1" xmlns="http://www.w3.org/2000/svg">
	<g fill="#c81e1e">
		<path d="m3e-3 181.75c17.829-3.8567 35.877-6.6857 53.936-9.2953 4.5149-0.66973 9.0413-1.2586 13.556-1.836l13.568-1.7551c9.0529-1.097 18.129-2.0669 27.193-3.083 9.076-0.92376 18.152-1.8244 27.239-2.6674l27.274-2.2748c4.5495-0.40415 9.099-0.69282 13.649-0.99305l27.297-1.7782 13.66-0.73901c36.431-1.9745 72.908-2.9676 109.37-3.4064 18.233-0.20785 36.477-0.0462 54.71 0.0115 18.233 0.34641 36.465 0.71592 54.687 1.3856-18.221 0.87758-36.442 1.4087-54.652 2.0207l-54.617 1.9861c-9.099 0.40414-18.198 0.78519-27.297 1.097l-13.649 0.51962-13.637 0.65818-27.286 1.1778-27.274 1.4549-13.637 0.65818-13.625 0.80829c-9.0875 0.55425-18.175 1.0392-27.251 1.6628l-27.251 1.7782c-9.076 0.71591-18.152 1.3625-27.228 1.9976l-27.216 2.217c-9.0644 0.83137-18.14 1.5358-27.205 2.4595-18.129 1.6628-36.235 3.5796-54.317 5.9352z"/>
		<path d="m415.12 8.5e-4h-170.84c7.621 0 13.856 6.2354 13.856 13.856v141.64c22.863-0.81984 45.738-1.3164 68.624-1.5819 18.233-0.20785 36.477-0.0462 54.71 0.0115 15.346 0.28867 30.692 0.61199 46.026 1.097v-141.16c0-7.621-5.5657-13.856-12.378-13.856z" opacity=".4"/>
		<path d="m286.9 74.549c0.23094 3.4526-2.2055 6.3162-6.2469 6.4548-3.5796 0.12702-6.2123-2.5519-6.3278-6.016-0.12702-3.5796 2.4364-6.4432 6.1315-6.5702 3.799-0.13856 6.3278 2.5519 6.4432 6.1315zm-8.8219 71.938-1.9399-55.853 10.15-0.34641 1.9399 55.853z"/>
		<path d="m304 107.17c-0.17321-6.5818-0.43879-12.228-0.92376-17.413l8.8912-0.24249 0.63508 10.958 0.46188-0.0115c2.344-7.5748 8.3254-12.471 15.138-12.644 1.1547-0.03464 1.963 0.05773 2.8983 0.26558l0.25404 9.584c-1.0508-0.20785-2.09-0.28868-3.4756-0.25403-7.1592 0.1963-12.09 5.7504-13.268 13.406-0.1963 1.3972-0.38105 3.0138-0.33486 4.7458l0.79673 29.78-10.046 0.26558z"/>
		<path d="m615.18 175.51c-5.4733 0-9.9189-4.0992-9.9189-10.6 0-7.1822 5.1269-12.482 11.628-12.482 5.8197 0 10.092 4.6188 10.092 10.773 0.0115 8.2099-5.3001 12.309-11.801 12.309z"/>
		<path d="m729.46 58.845c-1.3741 5.3001-3.9375 18.129-5.4733 28.221l-2.7366 0.1732c-0.1732-3.0831-0.1732-6.501-0.34641-8.8912-0.85448-9.0644-3.2563-11.293-13.856-11.293h-13.51l-16.42 84.674c-3.0831 15.912-1.8822 16.766 13.348 18.983l-0.51962 2.7366h-52.689l0.50807-2.7366c14.203-1.5358 15.565-2.7366 18.822-18.983l16.593-84.674h-9.9189c-11.293 0-14.364 1.0277-18.822 6.1546-2.5634 2.7366-5.3001 8.0367-8.0367 14.03l-2.5634-0.34641c2.5634-8.5563 5.4733-19.503 7.009-28.059h2.2286c2.0554 3.5911 3.083 3.4179 7.7018 3.4179h67.92c4.2724 0 5.4733-0.68127 8.3831-3.4179h2.3787z"/>
		<path d="m799.64 97.55c-7.0668 0.84293-9.942 1.4318-17.598 14.134-8.4986 14.007-23.475 38.555-38.198 63.462h-2.3902c-2.7482-21.916-7.5402-51.604-9.3415-63.104-1.9168-12.332-2.8752-13.649-9.942-14.492l0.48497-1.9168h31.489l-0.35796 1.9168-2.6327 0.48497c-4.434 0.84293-6.2238 1.9168-5.2654 8.4986 1.0739 7.0668 4.307 30.53 6.7088 47.782 8.6256-13.291 19.284-32.805 25.981-45.022 5.15-9.457 2.8752-10.3-3.4756-11.374l-2.1593-0.35796 0.35796-1.9168h26.697z"/>
		<path d="m314.59 25.612c13.522-12.806 29.537-18.152 48.036-18.152 32.736 0 57.285 21.708 57.285 56.222 0 39.144-29.179 63.693-83.266 108.17l-33.094 27.043h70.448c18.498 0 24.549-1.0623 37.366-19.572l4.6304 2.4942c-8.1868 17.436-16.016 37.008-21.35 51.592h-136.98l0.71592-3.9144c95.713-80.771 119.92-114.57 119.92-153.71 0-25.265-14.237-41.281-37.366-41.281-18.152 0-30.242 7.4709-46.257 25.623l-4.2724-3.9144z"/>
		<path d="m587.5 170.43h-30.242l-6.4086 35.23c-2.8521 16.362-0.71591 18.498 24.549 21.708l-1.7782 6.0506h-96.071l1.4203-6.0506c27.401-2.4942 29.179-6.7665 34.156-31.673l4.9768-25.265h-88.242l1.0623-9.2492c46.615-53.37 98.565-107.1 141.27-151.58h15.3l-27.032 145.88h30.958zm-45.899-118.14c-33.798 36.65-65.83 69.386-94.293 103.18h74.005l20.992-103.18z"/>
		<path d="m244.28 8.5e-4h-148.58c-7.621 0-13.856 6.2354-13.856 13.856v148.96c0 2.0669 0.46188 4.0299 1.2817 5.7966 8.3716-0.99304 16.743-1.9052 25.126-2.8406 9.076-0.92376 18.152-1.8244 27.239-2.6674l27.274-2.2748c4.5495-0.40415 9.099-0.69282 13.649-0.99304l27.297-1.7782 13.66-0.73901c13.579-0.73901 27.17-1.3395 40.761-1.8244v-141.64c0-7.621-6.2354-13.856-13.856-13.856zm-27.597 148.53h-29.976l-10.358-52.677c-2.3671-12.355-4.3648-23.798-5.8081-37.782h-0.35796c-2.1824 13.81-4.18 25.427-7.0899 37.782l-11.628 52.677h-30.334l-29.064-122.43h29.607l9.2607 50.495c2.7251 14.538 5.2654 30.334 7.2631 42.689h0.35796c1.9976-13.256 4.9075-27.978 7.9905-43.047l10.358-50.137h29.433l9.815 51.592c2.7251 14.353 4.7227 27.424 6.5356 41.05h0.35796c1.8129-13.625 4.538-27.978 7.0899-42.505l9.9882-50.137h28.152z"/>
	</g>
</svg>
