<?xml version="1.0" encoding="UTF-8"?>
<svg width="800" height="149.8" version="1.1" xmlns="http://www.w3.org/2000/svg">
	<g fill="#eb7426">
		<path d="m483.63 87.212v-12.849c0-9.749 0.054-16.058 0.52306-22.749-3.5177 8.103-12.883 23.249-20.677 35.597z"/>
		<path d="m595.83 35.331c0.24025 0 0.47221 0.03165 0.71142 0.0358v-35.367h-596.54v149.8h596.54v-36.257c-0.23895 4e-3 -0.47117 0.0358-0.71142 0.0358-21.607 0-39.124-17.516-39.124-39.124 0-21.607 17.516-39.124 39.124-39.124zm-462.39 95.572h-32.286c-4.7623-22.362-11.013-47.794-14.971-68.718h-0.37699c-3.7379 20.367-10.467 47.915-15.12 68.718h-32.285l-25.971-107.76h33.224c7.2966 41.136 9.7757 59.088 11.036 76.209h0.48596c4.4367-23.378 10.967-50.987 16.465-76.209h28.083c4.8251 21.796 11.982 51.753 15.737 74.902h0.487c2.6638-22.351 9.736-58.311 12.418-74.902h30.336l-27.261 107.76zm70.771 0h-31.668v-107.76h31.668zm111.25-24.554v4.4867c0 6.7043 0.21275 15.398 1.3998 20.067h-30.094c-1.8229-4.638-2.292-12.455-2.292-23.531v-2.7819c0-9.304-2.2201-14.404-16.152-14.404h-11.132v40.716h-30.658v-107.76h53.398c25.378 0 37.658 13.583 37.658 29.84 0 14.882-8.7029 22.494-16.175 25.559 6.7902 2.3714 14.047 9.5603 14.047 27.81zm109.99 24.554h-78.308v-2.6075c0-21.369 9.8655-35.104 29.211-48.961 14.908-10.664 18.793-13.933 18.793-21.668 0-7.2325-3.1329-11.064-9.6374-11.064-7.8965 0-10.422 5.2788-11.289 13.8h-28.088c1.0767-16.189 10.507-34.664 40.584-34.664 29.097 0 39.16 15.851 39.16 32.432 0 13.986-5.6994 21.659-24.743 34.263-10.768 7.1863-15.634 12.011-17.529 15.757h45.423l-3.5766 22.713zm96.061-21.715h-9.5194v21.715h-28.356v-21.715h-46.051v-21.892l39.18-59.57h35.227v59.485h11.932z"/>
		<path d="m271.95 45.149h-14.757v23.032h14.609c10.518 0 14.35-4.3739 14.35-11.622 0-7.203-4.5508-11.41-14.201-11.41z"/>
		<path d="m648.91 48.879h11.822v-21.263h30.179v21.263h14.391v20.569h-14.391v35.193c0 5.0765 1.6024 6.9993 8.0093 6.9993 1.1512 0 2.6355 0 4.2558-0.15646v18.839c-4.7509 1.5666-12.704 1.8945-17.783 1.8945-19.39 0-24.828-9.4682-24.828-24.964v-37.806h-11.655v-20.569z"/>
		<path d="m745.14 48.879c4.9532 19.968 10.066 44.072 11.583 56.465h0.65123c2.1818-15.439 7.917-37.366 12.381-56.465h30.243l-27.048 82.024h-34.134l-26.448-82.024z"/>
		<path d="m596.85 35.383v78.143c21.13-0.54744 38.1-17.81 38.1-39.072s-16.971-38.524-38.1-39.072z"/>
	</g>
</svg>
