<?xml version="1.0" encoding="UTF-8"?>
<svg width="800" height="373.09" version="1.1" xmlns="http://www.w3.org/2000/svg" xmlns:xlink="http://www.w3.org/1999/xlink">
	<defs>
		<linearGradient id="linearGradient1187" x1="640.5" x2="524.44" y1="38.184" y2="158.05" gradientTransform="scale(1.1807)" gradientUnits="userSpaceOnUse">
			<stop stop-color="#e12300" offset="0"/>
			<stop stop-color="#aaa09b" offset="1"/>
		</linearGradient>
		<linearGradient id="linearGradient2742" x1="408.48" x2="524.61" y1="38.184" y2="158.11" gradientTransform="scale(1.1807)" gradientUnits="userSpaceOnUse">
			<stop stop-color="#fac300" offset="0"/>
			<stop stop-color="#aaa09b" offset="1"/>
		</linearGradient>
		<linearGradient id="linearGradient5662" x1="640.6" x2="524.48" y1="277.82" y2="157.89" gradientTransform="scale(1.1807)" gradientUnits="userSpaceOnUse">
			<stop stop-color="#78b41e" offset="0"/>
			<stop stop-color="#aaa09b" offset="1"/>
		</linearGradient>
		<linearGradient id="linearGradient10036" x1="524.64" x2="408.5" y1="157.94" y2="277.82" gradientTransform="scale(1.1807)" gradientUnits="userSpaceOnUse">
			<stop stop-color="#aaa09b" offset="0"/>
			<stop stop-color="#15aae1" offset="1"/>
		</linearGradient>
	</defs>
	<path d="m186.95 149.11v101c0 13.814 7.8584 21.407 19.903 21.407 4.0181 0 11.707-0.6865 14.888-2.2392l-1.6765-11.226h-7.8566c-7.1987 0-11.208-3.7918-11.039-11.226v-97.716zm177.58 34.666c-11.65 0-20.09 2.2694-25.906 7.3885l-0.60187-5.29h-11.027v84.089h14.21v-51.625c1.5244-18.632 10.35-23.834 24.578-23.289 5.9942 0.2823 13.297 1.9278 13.297 1.9278l1.5427-9.653c-5.0942-2.1801-10.553-3.3849-16.091-3.549zm-233.05 0.0276c-27.553 0-37.998 11.811-38.271 42.977l-0.08533 0.0554v77.446h14.219v-24.345c0-4.6015 4.1e-4 -8.7794-0.25366-13.193 5.919 3.7923 13.917 5.4676 24.391 5.4676 28.089 0 38.298-11.914 38.298-44.2 0-32.117-10.209-44.209-38.298-44.209zm137.64 0c-27.929 0-38.301 12.092-38.301 44.209 0 32.286 10.372 44.2 38.301 44.2 28.089 0 38.298-11.923 38.298-44.2 0-32.117-10.209-44.209-38.298-44.209zm154.34 0.0118c-26.254 0-37.452 10.867-37.452 43.849 0 32.286 10.869 44.37 38.958 44.37 9.363 0 23.909-1.3835 31.606-4.6582l-1.5035-9.8444c-8.3562 1.2139-19.565 2.0708-28.26 2.0708-16.719 0-24.244-4.4878-25.751-24.513h37.957c13.541 0 19.563-8.8074 19.403-23.826 0-18.133-10.378-27.449-34.957-27.449zm-360.25 2.0593-22.878 38.068-22.95-38.059h-15.395l25.258 40.747-27.253 43.333h15.545l24.815-40.732 24.852 40.732h15.386l-27.262-43.333 25.258-40.757zm68.261 10.361c17.729 0 23.581 7.2543 23.581 31.777 0 24.513-5.8528 31.77-23.581 31.77s-23.413-7.2474-23.413-31.77c0-24.523 5.6845-31.777 23.413-31.777zm137.64 0c17.729 0 23.572 7.2543 23.572 31.777 0 24.523-5.8436 31.77-23.572 31.77s-23.413-7.2568-23.413-31.77c0-24.523 5.6845-31.777 23.413-31.777zm155.01 0c14.557 0 19.902 4.3197 20.072 15.028 0 6.2201-1.5057 12.429-8.8644 12.429h-34.45c0.50814-21.239 6.1914-27.458 23.242-27.458z" fill="#e6e6e2"/>
	<path d="m438.63 373.09 159.73-124.57 21.116 86.545-0.0471-148.59" fill="url(#linearGradient10036)"/>
	<path d="m800 373.09-120.64-164.92 83.816-21.784-143.93 0.0377" fill="url(#linearGradient5662)"/>
	<path d="m438.63 0 120.64 164.92-83.816 21.794 143.94-0.0377" fill="url(#linearGradient2742)"/>
	<path d="m800 0-159.73 124.55-21.116-86.526 0.0471 148.58" fill="url(#linearGradient1187)"/>
</svg>
