<?xml version="1.0" encoding="UTF-8"?>
<svg width="800" height="316" version="1.1" xmlns="http://www.w3.org/2000/svg" xmlns:xlink="http://www.w3.org/1999/xlink">
	<defs>
		<linearGradient id="linearGradient1187" x1="640.5" x2="524.44" y1="38.184" y2="158.05" gradientUnits="userSpaceOnUse">
			<stop stop-color="#e12300" offset="0"/>
			<stop stop-color="#aaa09b" offset="1"/>
		</linearGradient>
		<linearGradient id="linearGradient2742" x1="408.48" x2="524.61" y1="38.184" y2="158.11" gradientUnits="userSpaceOnUse">
			<stop stop-color="#fac300" offset="0"/>
			<stop stop-color="#aaa09b" offset="1"/>
		</linearGradient>
		<linearGradient id="linearGradient5662" x1="640.6" x2="524.48" y1="277.82" y2="157.89" gradientUnits="userSpaceOnUse">
			<stop stop-color="#78b41e" offset="0"/>
			<stop stop-color="#aaa09b" offset="1"/>
		</linearGradient>
		<linearGradient id="linearGradient10036" x1="524.64" x2="408.5" y1="157.94" y2="277.82" gradientUnits="userSpaceOnUse">
			<stop stop-color="#aaa09b" offset="0"/>
			<stop stop-color="#15aae1" offset="1"/>
		</linearGradient>
	</defs>
	<path d="m158.34 126.29v85.543c0 11.7 6.6558 18.131 16.857 18.131 3.4032 0 9.9155-0.58144 12.609-1.8965l-1.4199-9.5078h-6.6543c-6.0971 0-9.4931-3.2115-9.3496-9.5078v-82.762zm150.4 29.361c-9.8669 0-17.016 1.9221-21.941 6.2578l-0.50976-4.4805h-9.3398v71.221h12.035v-43.725c1.2912-15.781 8.7657-20.187 20.816-19.725 5.0769 0.2391 11.262 1.6328 11.262 1.6328l1.3066-8.1758c-4.3146-1.8465-8.9379-2.8669-13.629-3.0059zm-197.38 0.0234c-23.336 0-32.183 10.004-32.414 36.4l-0.07227 0.0469v65.594h12.043v-20.619c0-3.8973 3.48e-4 -7.4359-0.21484-11.174 5.0131 3.2119 11.788 4.6309 20.658 4.6309 23.791 0 32.438-10.09 32.438-37.436 0-27.202-8.647-37.443-32.438-37.443zm116.58 0c-23.655 0-32.439 10.242-32.439 37.443 0 27.345 8.7844 37.436 32.439 37.436 23.791 0 32.438-10.098 32.438-37.436 0-27.202-8.647-37.443-32.438-37.443zm130.72 0.01c-22.236 0-31.721 9.2037-31.721 37.139 0 27.345 9.2056 37.58 32.996 37.58 7.9302 0 20.25-1.1718 26.77-3.9453l-1.2734-8.3379c-7.0774 1.0281-16.571 1.7539-23.936 1.7539-14.16 0-20.534-3.801-21.811-20.762h32.148c11.469 0 16.569-7.4595 16.434-20.18 0-15.358-8.7897-23.248-29.607-23.248zm-305.12 1.7441-19.377 32.242-19.438-32.234h-13.039l21.393 34.512-23.082 36.701h13.166l21.017-34.499 21.049 34.499h13.031l-23.09-36.701 21.393-34.52zm686.81 0.11914v72.432h24.852c6.0174 0 11.23-0.84355 15.621-2.5332 4.1631-1.5322 7.8896-4.0585 10.855-7.3574 2.8373-3.2119 4.9322-7.1649 6.2871-11.867 1.3549-4.7023 2.0332-10.089 2.0332-16.178 0-11.628-3.0119-20.292-9.0293-25.967-6.0174-5.6826-14.61-8.5293-25.768-8.5293zm-73.236 0.01v72.422h9.6367v-33.17h38.137v33.17h9.6426v-72.422h-9.6348v31.139h-38.137v-31.139zm82.873 8.1133h16.234c4.4632 0 8.2094 0.62175 11.254 1.873 2.9163 1.1568 5.4864 3.0443 7.4609 5.4824 2.0053 2.5676 3.4227 5.5436 4.1523 8.7188 0.85279 3.4191 1.2734 7.2856 1.2734 11.613 0 4.4632-0.46055 8.2719-1.3691 11.412-0.91655 3.1482-2.0813 5.7711-3.5 7.8672-1.4187 2.0961-3.0292 3.7454-4.8144 4.9648-3.1562 2.1758-6.7935 3.5524-10.6 4.0098-1.6259 0.17534-2.9805 0.25391-4.0645 0.25391h-16.027v-8e-3zm-638.63 0.5332c15.016 0 19.973 6.1442 19.973 26.914 0 20.762-4.9571 26.908-19.973 26.908-15.016 0-19.83-6.1383-19.83-26.908 0-20.77 4.8145-26.914 19.83-26.914zm116.58 0c15.016 0 19.965 6.1442 19.965 26.914 0 20.77-4.9493 26.908-19.965 26.908s-19.83-6.1463-19.83-26.908c0-20.77 4.8146-26.914 19.83-26.914zm131.29 0c12.33 0 16.857 3.6586 17 12.729 0 5.2682-1.2752 10.527-7.5078 10.527h-29.178c0.43038-17.988 5.2439-23.256 19.686-23.256z" fill="#e6e6e2"/>
	<path d="m371.51 316 135.28-105.51 17.885 73.3-0.0399-125.85" fill="url(#linearGradient10036)"/>
	<path d="m677.57 316-102.18-139.68 70.989-18.451-121.9 0.0319" fill="url(#linearGradient5662)"/>
	<path d="m371.51 0 102.18 139.68-70.989 18.459 121.91-0.0319" fill="url(#linearGradient2742)"/>
	<path d="m677.57 0-135.28 105.49-17.885-73.284 0.0399 125.84" fill="url(#linearGradient1187)"/>
</svg>
