<svg xmlns="http://www.w3.org/2000/svg" width="800" height="292.874"><path d="M523.237 80.548v135.558h55.196v-53.46h57.992v53.46c35.78-.833 72.023 2.518 107.401-4.34 20.399-3.955 41.86-14.633 50.554-35.236 7.578-18.677 7.541-40.99-.408-59.53-9.196-20.534-31.114-30.481-51.597-34.225-34.909-6.446-70.652-3.414-105.951-4.15v51.146h-57.992V78.625h-55.196v.962zm185.626 33.687c13.602-.392 29.463 4.548 34.69 18.872 6.453 16.262 1.298 38.931-15.816 45.557-12.427 5.232-26.248 2.539-39.351 3.215v-67.644h20.476z" fill="#b2b3b5" fill-rule="evenodd"/><path d="M452.086 104.405h48.896V81.159h-58.815c-31.662 0-44.688 17.735-44.688 45.489v2.705c-5.31-32.664-24.749-48.194-60.318-48.194h-59.617C253.497 33.065 203.9 0 146.387 0 65.629 0 0 65.629 0 146.487s65.629 146.387 146.387 146.387c57.112 0 106.509-32.564 130.656-80.157h60.819c14.528 0 27.654-.902 40.98-11.523 9.619-7.615 15.631-18.436 18.436-32.564v43.886h27.855v-51.601h65.829v-22.945h-65.929l.401-9.318c.1-15.13 4.709-24.248 26.652-24.248zM336.56 189.472H305.8v-85.067h30.76c24.147 0 32.864 10.32 32.864 42.583 0 32.163-8.617 42.483-32.864 42.483z" fill="#fa7d19"/><path d="M211.214 135.566h18.236c14.428 0 22.945-2.906 22.945-15.13 0-12.625-8.517-16.132-23.346-16.132h-61.621V81.159h71.741c36.371 0 41.582 25.45 41.582 39.678 0 15.13-6.212 39.077-41.582 39.077h-17.635c-22.043 0-26.752 7.916-26.752 23.045v7.014h82.361v22.444H166.627v-32.564c0-27.855 13.026-44.287 44.587-44.287z" fill="#fff"/></svg>