<?xml version="1.0" encoding="UTF-8" standalone="no"?>
<!-- Created with Inkscape (http://www.inkscape.org/) -->
<svg
   xmlns:dc="http://purl.org/dc/elements/1.1/"
   xmlns:cc="http://creativecommons.org/ns#"
   xmlns:rdf="http://www.w3.org/1999/02/22-rdf-syntax-ns#"
   xmlns:svg="http://www.w3.org/2000/svg"
   xmlns="http://www.w3.org/2000/svg"
   xmlns:sodipodi="http://sodipodi.sourceforge.net/DTD/sodipodi-0.dtd"
   xmlns:inkscape="http://www.inkscape.org/namespaces/inkscape"
   width="832.06842"
   height="304.56317"
   id="svg3352"
   sodipodi:version="0.32"
   inkscape:version="0.46"
   version="1.0"
   sodipodi:docname="ZDF HD Logo.svg"
   inkscape:output_extension="org.inkscape.output.svg.inkscape">
  <defs
     id="defs3354">
    <inkscape:perspective
       sodipodi:type="inkscape:persp3d"
       inkscape:vp_x="0 : 526.18109 : 1"
       inkscape:vp_y="0 : 1000 : 0"
       inkscape:vp_z="744.09448 : 526.18109 : 1"
       inkscape:persp3d-origin="372.04724 : 350.78739 : 1"
       id="perspective3360" />
    <inkscape:perspective
       id="perspective2452"
       inkscape:persp3d-origin="372.04724 : 350.78739 : 1"
       inkscape:vp_z="744.09448 : 526.18109 : 1"
       inkscape:vp_y="0 : 1000 : 0"
       inkscape:vp_x="0 : 526.18109 : 1"
       sodipodi:type="inkscape:persp3d" />
  </defs>
  <sodipodi:namedview
     id="base"
     pagecolor="#ffffff"
     bordercolor="#666666"
     borderopacity="1.0"
     inkscape:pageopacity="0.0"
     inkscape:pageshadow="2"
     inkscape:zoom="1.0061846"
     inkscape:cx="416.03421"
     inkscape:cy="152.28159"
     inkscape:document-units="px"
     inkscape:current-layer="layer1"
     showgrid="false"
     inkscape:window-width="1280"
     inkscape:window-height="1005"
     inkscape:window-x="-4"
     inkscape:window-y="-4" />
  <metadata
     id="metadata3357">
    <rdf:RDF>
      <cc:Work
         rdf:about="">
        <dc:format>image/svg+xml</dc:format>
        <dc:type
           rdf:resource="http://purl.org/dc/dcmitype/StillImage" />
      </cc:Work>
    </rdf:RDF>
  </metadata>
  <g
     inkscape:label="Ebene 1"
     inkscape:groupmode="layer"
     id="layer1"
     transform="translate(38.322326,-380.0806)">
    <g
       id="g2478">
      <g
         transform="matrix(2.4539184,0,0,2.4539184,-142.17019,274.70076)"
         id="Ebene_x0020_1"
         style="fill:#ee7002;fill-opacity:1;fill-rule:evenodd">
        <path
           d="M 171.853,87.0229 L 185.9248,87.0229 C 196.5724,87.0229 198.9278,94.4212 198.9278,105.0134 L 198.9278,105.1914 C 198.9278,115.8485 196.4157,123.1818 185.7466,123.1818 L 171.853,123.1818 L 171.853,87.0229 z M 159.7776,132.9799 L 159.7776,132.9799 z M 104.3758,42.9435 C 128.0074,42.9435 148.5565,56.161 159.0368,75.6039 C 159.2184,75.772 159.3457,75.9408 159.4067,76.1105 C 159.6007,76.4801 159.7909,76.8519 159.9777,77.2259 C 169.9389,77.2133 186.0777,76.4177 194.0487,78.1865 C 198.581,79.1923 202.7325,81.614 205.2359,84.6334 C 206.6053,86.2849 207.6901,87.9246 208.5751,90.0222 C 209.0321,91.1053 210.4727,96.4866 210.6838,96.8197 C 210.6838,83.3893 217.1318,77.2262 230.6336,77.2262 L 254.6802,77.2262 L 254.6802,87.0229 L 232.593,87.0229 C 223.6018,87.0229 222.44,92.3026 222.44,101.2727 L 250.4054,101.2727 L 250.4054,110.8914 L 222.44,110.8914 L 222.44,132.8005 L 210.6838,132.8005 L 210.6838,114.632 C 210.0163,115.684 209.0618,120.0881 207.8706,122.1498 C 206.5669,124.406 205.078,126.2799 203.0911,127.8796 C 199.1205,131.0758 194.2583,132.9785 187.1716,132.9785 L 159.7799,132.9785 C 149.1965,153.7761 127.765,167.0565 104.3758,167.0565 C 70.1087,167.0565 42.3192,139.2671 42.3192,105 C 42.3192,70.7329 70.1087,42.9435 104.3758,42.9435 L 104.3758,42.9435 z"
           id="path1986"
           style="fill:#ee7002;fill-opacity:1" />
      </g>
      <g
         transform="matrix(2.4539184,0,0,2.4539184,-142.17019,274.70076)"
         id="g2389"
         style="fill:#b3b3b3;fill-rule:evenodd">
        <path
           d="M 112.7784,132.9799 L 112.7784,118.5651 C 112.7784,88.476 149.0824,108.1245 149.0824,94.7185 L 149.0824,93.2947 C 149.0824,88.7315 144.8477,87.0661 140.3624,87.0661 L 113.3123,87.0661 L 113.3123,77.2783 L 145.523,77.2783 C 156.5651,77.2783 161.1836,84.6812 161.1836,94.2687 C 161.1836,104.0399 154.827,109.4571 145.9827,110.6605 C 135.582,112.0763 124.8797,107.1718 124.8797,120.1668 L 124.8797,123.3701 L 159.7601,123.3701 L 159.7776,132.9799 L 112.7784,132.9799 L 112.7784,132.9799 z"
           id="path2391"
           style="fill:#ffffff" />
      </g>
      <path
         id="path2547"
         d="M 505.9375,463.84375 C 505.9375,510.83333 505.9375,557.82292 505.9375,604.8125 C 525.07033,604.8125 544.20317,604.8125 563.33601,604.8125 C 563.33601,586.28125 563.33601,567.75 563.33601,549.21875 C 583.4381,549.21875 603.54021,549.21875 623.6423,549.21875 C 623.6423,567.75 623.6423,586.28125 623.6423,604.8125 C 660.84986,603.94598 698.5396,607.43103 735.33002,600.29906 C 756.54347,596.18579 778.86049,585.08255 787.90198,563.65625 C 795.78191,544.23395 795.74444,521.02999 787.47793,501.75 C 777.91452,480.3964 755.12191,470.05224 733.82163,466.15946 C 697.51915,459.45576 660.35021,462.60874 623.6423,461.84375 C 623.6423,479.57292 623.6423,497.30208 623.6423,515.03125 C 603.54021,515.03125 583.4381,515.03125 563.33601,515.03125 C 563.33601,497.30208 563.33601,479.57292 563.33601,461.84375 C 544.20317,461.84375 525.07033,461.84375 505.9375,461.84375 L 505.9375,462.84375 L 505.9375,463.84375 z M 698.97216,498.875 C 713.11692,498.4676 729.61157,503.60479 735.04689,518.5 C 741.75745,535.41068 736.39716,558.98511 718.59972,565.875 C 705.67644,571.31545 691.30421,568.5153 677.67868,569.21875 C 677.67868,545.77083 677.67868,522.32292 677.67868,498.875 C 684.77651,498.875 691.87433,498.875 698.97216,498.875 z"
         style="fill:#b2b3b5;fill-opacity:1;fill-rule:evenodd;stroke:none;stroke-width:1px;stroke-linecap:butt;stroke-linejoin:miter;stroke-opacity:1" />
    </g>
  </g>
</svg>
