<?xml version="1.0" encoding="UTF-8"?>
<svg width="769.76" height="450" version="1.1" xmlns="http://www.w3.org/2000/svg">
	<path d="m694.62 160.42h75.128v-35.717h-90.37c-48.649 0-68.662 27.249-68.662 69.894v4.1567c-8.1594-50.188-38.026-74.051-92.679-74.051h-91.601c-36.948-73.897-113.15-124.7-201.52-124.7-124.08 0-224.92 100.84-224.92 225.08s100.84 224.92 224.92 224.92c87.752 0 163.65-50.034 200.75-123.16h93.449c22.323 0 42.491-1.3856 62.966-17.704 14.779-11.7 24.016-28.327 28.327-50.034v67.431h42.798v-79.285h101.15v-35.255h-101.3l0.6158-14.317c0.154-23.247 7.2357-37.256 40.951-37.256zm-177.51 130.7h-47.263v-130.7h47.263c37.102 0 50.496 15.857 50.496 65.429 0 49.418-13.24 65.275-50.496 65.275z" fill="#fa7d19"/>
	<path d="m324.55 208.29h28.019c22.169 0 35.255-4.4646 35.255-23.247 0-19.398-13.086-24.786-35.871-24.786h-94.68v-35.563h110.23c55.884 0 63.89 39.104 63.89 60.965 0 23.247-9.545 60.041-63.89 60.041h-27.095c-33.869 0-41.105 12.162-41.105 35.409v10.777h126.55v34.485h-169.81v-50.034c0-42.798 20.014-68.047 68.508-68.047z" fill="#fff"/>
</svg>
