<?xml version="1.0" encoding="UTF-8" standalone="no"?>
<!-- Created with Inkscape (http://www.inkscape.org/) -->
<svg
   xmlns:dc="http://purl.org/dc/elements/1.1/"
   xmlns:cc="http://web.resource.org/cc/"
   xmlns:rdf="http://www.w3.org/1999/02/22-rdf-syntax-ns#"
   xmlns:svg="http://www.w3.org/2000/svg"
   xmlns="http://www.w3.org/2000/svg"
   xmlns:xlink="http://www.w3.org/1999/xlink"
   xmlns:sodipodi="http://sodipodi.sourceforge.net/DTD/sodipodi-0.dtd"
   xmlns:inkscape="http://www.inkscape.org/namespaces/inkscape"
   width="255"
   height="149"
   id="svg2"
   sodipodi:version="0.32"
   inkscape:version="0.45.1"
   version="1.0"
   inkscape:output_extension="org.inkscape.output.svg.inkscape">
  <g
     inkscape:label="Layer 1"
     inkscape:groupmode="layer"
     id="layer1"
     transform="translate(-129.09792,-352.67132)">
    <g
       id="g8315"
       clip-path="url(#id273)"
       transform="matrix(1,0,0,-1,44.315122,873.67448)">
      <g
         id="g8317"
         transform="matrix(7.6449432,0,0,7.9367218,266.3172,448.89307)">
        <use
           id="use8319"
           xlink:href="#id274"
           x="0"
           y="0"
           width="744.09448"
           height="1052.3622" />
      </g>
    </g>
    <g
       id="g9229"
       clip-path="url(#id328)"
       transform="matrix(9.9953042,0,0,-9.9953042,-718.33196,3808.6577)">
      <g
         id="g9231"
         transform="translate(101.9198,336.111)">
        <path
           id="path9233"
           d="M 0,0 L -1.566,0 L -1.566,4.34 L 0,4.34 C 1.238,4.34 1.678,3.811 1.678,2.17 C 1.678,0.529 1.238,0 0,0 M 5.884,4.34 L 8.375,4.34 L 8.375,5.519 L 5.377,5.519 C 3.766,5.519 3.102,4.616 3.102,3.199 L 3.102,3.065 C 2.834,4.728 1.842,5.519 0.03,5.519 L -3.005,5.519 C -4.228,7.972 -6.757,9.65 -9.68,9.65 C -13.796,9.65 -17.137,6.316 -17.137,2.192 C -17.137,-1.924 -13.796,-5.257 -9.68,-5.257 C -6.779,-5.257 -4.258,-3.602 -3.028,-1.178 L 0.067,-1.178 C 0.805,-1.178 1.476,-1.134 2.155,-0.589 C 2.647,-0.201 2.953,0.35 3.095,1.066 L 3.095,-1.171 L 4.519,-1.171 L 4.519,1.462 L 7.875,1.462 L 7.875,2.632 L 4.519,2.632 L 4.534,3.11 C 4.534,3.878 4.765,4.34 5.884,4.34"
           style="fill:#f46717;fill-rule:evenodd;stroke:none" />
      </g>
      <g
         id="g9235"
         transform="translate(95.5362,338.8553)">
        <path
           id="path9237"
           d="M 0,0 L 0.932,0 C 1.663,0 2.095,0.149 2.095,0.776 C 2.095,1.417 1.663,1.596 0.91,1.596 L -2.23,1.596 L -2.23,2.774 L 1.424,2.774 C 3.274,2.774 3.542,1.477 3.542,0.753 C 3.542,-0.015 3.221,-1.238 1.424,-1.238 L 0.522,-1.238 C -0.597,-1.238 -0.835,-1.641 -0.835,-2.409 L -0.835,-2.767 L 3.356,-2.767 L 3.356,-3.915 L -2.275,-3.915 L -2.275,-2.252 C -2.275,-0.843 -1.611,0 0,0"
           style="fill:#ffffff;fill-rule:evenodd;stroke:none" />
      </g>
    </g>
    <g
       id="g15821"
       clip-path="url(#id401)"
       transform="matrix(1,0,0,-1,44.315122,873.67448)">
      <g
         id="g15823"
         transform="matrix(9.3100739,0,0,9.3100739,373.32361,306.15338)">
        <use
           id="use15825"
           xlink:href="#id402"
           x="0"
           y="0"
           width="744.09448"
           height="1052.3622" />
      </g>
    </g>
  </g>
</svg>
