<svg xmlns="http://www.w3.org/2000/svg" viewBox="496 -272 769.757 450" width="769.757" height="450"><path d="M1190.629-111.583h75.128v-35.717h-90.37c-48.649 0-68.662 27.249-68.662 69.894v4.157c-8.159-50.188-38.026-74.051-92.679-74.051h-91.601C885.497-221.196 809.291-272 720.923-272 596.838-272 496-171.162 496-46.923S596.838 178 720.923 178c87.752 0 163.65-50.034 200.753-123.161h93.449c22.323 0 42.491-1.386 62.966-17.704 14.779-11.7 24.016-28.327 28.327-50.034v67.431h42.799v-79.285h101.146v-35.255h-101.3l.616-14.317c.154-23.247 7.236-37.256 40.951-37.256zM1013.123 19.122H965.86v-130.705h47.263c37.102 0 50.496 15.857 50.496 65.429 0 49.418-13.24 65.275-50.496 65.275z" fill="#fa7d19"/><path d="M820.53-63.704h28.019c22.169 0 35.255-4.465 35.255-23.247 0-19.398-13.086-24.786-35.871-24.786h-94.68v-35.563h110.229c55.884 0 63.89 39.104 63.89 60.965 0 23.247-9.545 60.041-63.89 60.041h-27.095c-33.869 0-41.105 12.162-41.105 35.409v10.777H921.83v34.485H752.021V4.343c0-42.798 20.014-68.047 68.508-68.047z" fill="#fff"/></svg>