<svg xmlns="http://www.w3.org/2000/svg" width="691.728" height="450" viewBox="0 0 183.02 119.063"><path d="M177.76 27.995a5.03 5.03 0 0 0-1.065.093l-8.081 1.696v46.411l6.265-1.106c4.54-.957 8.159-3.918 8.141-8.93V32.826c-.006-2.962-2.728-4.789-5.26-4.831zm-13.183 2.693l-4.22.861V51.87l-6.47 1.363V32.911l-4.155.861v46.255l4.155-.861V57.328l6.47-1.362v21.751l4.22-.861zm11.825 1.636c2.196.039 2.57 1.22 2.595 3.818l-.001 27.764c-.003 3.78.076 6.525-6.097 7.213V32.785c1.506-.317 2.644-.477 3.503-.461zM0 16.456v102.607l64.855-14.036v14.036l76.471-16.456V18.876L76.471 32.428V0z" fill="#fff"/><path d="M50.335 65.823v25.652L33.88 94.863V73.567c0-1.936-.968-2.42-2.42-1.936l-1.452.484v24.2l-16.456 3.388v-24.2l-2.904.484v-12.1l13.068-2.904c2.904-.484 4.356.484 4.356 3.872h0c3.872-5.324 9.68-7.26 12.584-8.228 5.324-.968 9.68.968 9.68 9.196zm38.72 2.42l-20.328 4.356c.484 3.388 1.936 4.356 4.356 3.872 1.936-.484 3.872-1.452 5.324-3.388l9.196-1.936v7.744c-4.356 4.356-10.164 7.26-16.456 8.712-11.132 2.42-18.392-3.388-18.392-15.004 0-11.132 6.292-19.844 18.392-22.748 12.1-1.936 19.36 5.808 17.908 18.392zm-20.328-1.452l5.808-.968c-.484-2.904-.968-4.356-2.904-3.872-1.936 0-2.904 1.452-2.904 4.84zm60.499-10.164c0 11.132-6.292 20.328-18.876 22.748-11.616 2.42-18.876-2.904-18.876-15.004 0-11.132 6.776-20.328 18.876-22.748 11.132-1.936 18.876 3.872 18.876 15.004zm-18.876-3.388c-1.936.484-2.904 2.904-2.904 8.712s.968 7.744 2.904 7.26 2.904-2.904 2.904-8.712-.968-7.744-2.904-7.26zm-99.702.968v-4.356l8.228-12.584-4.84.968v1.936l-3.388.968v-6.292l14.52-2.904V36.3L16.94 48.883l4.84-.968v-2.42l3.872-.968v6.776zm34.848-13.068c0 .968.484.968.968.968h.968v4.356l-3.872.968c-1.936.484-2.904 0-2.904-1.936h0c-.968 1.936-2.42 3.388-4.84 3.872-3.388.968-7.26-.968-7.26-8.228 0-6.776 2.42-10.648 7.26-11.616 1.936-.484 3.388 0 4.356 1.452h0V24.2l-1.936.484v-4.356l7.26-1.452zm-5.324-2.42c0-3.872-.968-5.324-2.904-5.324s-3.388 2.42-3.388 6.292c0 3.388.968 4.84 2.904 4.84s3.388-2.42 3.388-5.808zm11.616-12.584v-2.904c0-4.356 1.936-6.292 6.292-7.26 2.42-.484 4.84-.484 5.324-.484v5.324l-3.872.968v-1.936H58.08c-.968.484-1.936.968-1.936 2.42v3.388l4.84-.968v4.356l-4.356.968v10.164l2.904-.484v4.356l-10.164 1.936v-4.356l1.936-.484V30.492l-1.936.484V26.62zm75.986 64.372v-6.292l-34.364 7.26v6.292z" fill="#2e2a25"/></svg>