<svg xmlns="http://www.w3.org/2000/svg" height="164" width="560"><path d="M297.714 0h241.57A20.67 20.67 0 0 1 560 20.714v122.57A20.67 20.67 0 0 1 539.286 164h-241.57A20.67 20.67 0 0 1 277 143.286V120l-29-29h29V20.714A20.67 20.67 0 0 1 297.714 0z" fill="#e4e4e4"/><path d="M312 52v16h19V52zm140.195 1.664c-9.21 0-14 5.645-14 14V76.5H429v14.73h9.205v37.28h-8.836v15H466v-15h-9.5V91.22H469V76.5h-12.5v-2.945c0-5.395.453-5.89 5.03-5.89H470v-14zm-59.936 22.82c-5.44-.02-8.222.417-17.76 8.516v-8.5h-27V91h8.5v37.5h-9v15h34.5v-15h-7V94c4.5-2.354 7.936-3.043 12-3 7.498.08 9 1.065 9 6v31.5h-7v15H423v-15h-9V94c-.015-14.214-4.346-17.493-19.22-17.5l-2.52-.016zm-88.76.016v15h9.5v37l-9.518-.125.018 15.125h37v-15h-9v-52zm185.947 0C480.9 76.5 474 86.177 474 98.197v23.605c0 12.02 6.9 21.697 15.447 21.697h29.605c8.557 0 15.447-9.677 15.447-21.697V98.197c0-12.02-6.9-21.697-15.447-21.697zM495.82 91h16.86c1.84 0 3.32 4.66 3.32 10.447v16.605c0 5.787-1.48 10.447-3.32 10.447h-16.86c-1.84 0-3.32-4.66-3.32-10.447v-16.605c0-5.787 1.48-10.447 3.32-10.447z"/><path d="M138 21v19.5h12V62c-9.583-8.182-12.047-10-27.5-10C105.108 52 93 53.36 93 89.78v17.664C93 145.13 108.05 143 122.5 143c11.498 0 15.388-.001 27.5-11.443V143h37.5v-19.5H175V21zm90 0c-12.506 0-19 7.666-19 19v12h-12.5v20H209v52h-12v19h49v-19h-13V72h17V52h-17v-4c0-7.326.783-8 7-8h11.5V21zM2.5 52v35H24V70.4h28.6L0 126v17h83.5v-36h-21v18H31l52.5-55.5V52zm134.36 19.752c7.737-.123 13.137 3.748 13.137 3.748v45.11s-8.323 3.022-12.572 2.965l-13.922-.19c-1.667-.023-6.062-2.868-6.04-10.648l.072-26.514c.02-7.04.207-14.17 8.078-14.295z" fill="#ff7e09"/></svg>