<svg xmlns="http://www.w3.org/2000/svg" width="800" height="235.578" viewBox="-9.5 -8 800 235.578"><path d="M760.316-8H415.403c-16.001 0-30.236 13.343-30.236 30.236v100.45h-39.995l39.995 39.995v34.695c0 15.968 13.343 30.202 30.236 30.202h344.895c16.001 0 30.202-13.309 30.202-30.202V21.344C790.501 5.343 777.158-8 760.316-8z" fill="#fff"/><path d="M79.374 170.673v-24.885h30.219v51.554H-9.5v-24.027l74.673-79.99H25.161v23.119H-5.058V66.69h115.56v23.994L35.829 170.69zm125.335 9.776c-16.001 14.251-21.352 16.91-32.894 16.91h-11.559c-13.343 0-21.352-2.658-26.652-8.026-7.134-7.134-11.576-19.552-11.576-57.813 0-38.211 3.55-48.862 11.576-57.78 6.209-6.226 13.309-8.026 25.76-8.026h11.576c11.576 0 16.876 2.692 31.111 15.11V50.638h-16.893V22.202h53.338v146.671h16.893v28.436h-53.338zm0-16.893v-63.114c-7.117-3.55-13.326-5.317-19.568-5.317h-11.576c-7.1 0-9.759.892-11.559 2.658-2.675 2.658-3.55 8.884-3.55 33.786 0 24.885.909 30.236 3.55 33.786 2.658 2.658 5.334 2.658 11.559 2.658h11.576c6.242 0 12.468-.909 19.568-4.459zM333.612 49.797c-4.442 0-6.226.892-7.1 1.784-1.784 1.75-2.675 4.442-2.675 10.651v5.334h24.01v28.452h-24.01v73.781h17.802v28.436h-70.231v-28.436H288.3V96.017h-16.893V67.565H288.3v-7.117c0-16.001 2.658-24.885 7.1-30.219 5.334-5.334 11.576-7.117 25.777-7.117h29.327v27.561z" fill="#fa7d19"/><path d="M426.053 196.45v-20.427h13.343v-54.246h-13.343v-20.443h39.12v75.565H478.5v19.552zm11.559-129.777h26.669v23.119h-26.669zm88.891 47.112c11.559-11.576 15.985-12.451 24.885-12.451h8.867c8.026 0 13.326 1.784 16.876 5.334s5.334 8.884 5.334 23.119v47.129h11.576v21.335h-48.896v-21.335h10.684v-44.454c0-3.567-.892-6.226-2.658-7.117-1.767-1.767-2.658-2.658-8.026-2.658h-5.317c-4.442 0-8.867.892-15.076 3.55v49.771h10.651v20.46h-48.862v-21.335h12.417v-54.23h-12.417V99.534h39.103v14.235h.858zm124.444-24.869c-3.55 0-4.459 0-5.317 1.75-.892.909-1.767 2.675-1.767 7.117v3.55h17.802v21.369h-16.91v54.23h13.343v21.335h-52.429v-21.352h12.434v-54.23h-12.434v-21.369h12.434v-5.3c0-11.576 1.75-17.802 5.317-22.227 3.55-3.55 7.992-6.226 18.66-6.226h21.335v20.46c-.909.892-12.468.892-12.468.892zm26.669 102.2c-6.242-6.209-8.884-15.093-8.884-41.762s2.642-35.536 8.884-41.762c3.55-4.442 8.85-6.209 18.643-6.209h31.111c9.793 0 15.11 1.767 19.585 6.209 6.209 7.1 7.992 15.11 7.992 41.762s-2.658 35.553-7.992 41.762c-4.476 4.476-9.793 6.242-19.585 6.242H696.26c-9.759-.909-15.093-1.767-18.643-6.242zm19.568-16.893c1.767 1.767 2.658 1.767 7.134 1.767h15.968c4.476 0 6.242 0 7.134-1.767 1.767-1.75 2.658-5.317 2.658-25.76s-.892-23.994-2.658-25.76c-.892-1.767-2.658-1.767-7.134-1.767h-15.985c-4.476 0-6.226 0-7.134 1.767-1.75 1.767-2.658 5.317-2.658 25.76 0 21.335.892 24.01 2.675 25.76z"/></svg>