<svg xmlns="http://www.w3.org/2000/svg" height="170.94" width="800"><path d="M607.964 54.776v16.249h10.34v62.042h-10.34v16.249h41.362v-16.249h-10.34v-24.374h32.498v24.374h-10.34v16.249h41.362v-16.249h-10.34V71.025h10.34V54.776h-41.362v16.249h10.34v21.419h-32.498V71.025h10.34V54.776zm106.358 0v16.249h10.34v62.042h-10.34v16.249h59.088c26.59 0 26.59-23.044 26.59-46.487 0-28.17 0-48.053-26.59-48.053zm32.498 16.249h20.681c10.34 0 10.34 10.955 10.34 31.021s0 31.021-10.34 31.021h-20.681z" fill="#e4e4e4"/><path d="M558.592 0H308.317c-11.611 0-21.94 9.682-21.94 21.94v72.888h-29.021l29.021 29.021v25.175c0 11.587 9.682 21.915 21.94 21.915h250.262c11.611 0 21.915-9.657 21.915-21.915V21.293C580.495 9.682 570.813 0 558.592 0z" fill="#fff"/><path d="M64.489 129.649v-18.057h21.927V149H0v-17.434l54.184-58.042H25.151v16.776H3.223V54.196h83.853v17.411l-54.184 58.054zm90.945 7.094c-11.611 10.341-15.493 12.27-23.869 12.27h-8.387c-9.682 0-15.493-1.929-19.339-5.824-5.177-5.177-8.4-14.187-8.4-41.95 0-27.727 2.576-35.455 8.4-41.926 4.505-4.518 9.657-5.824 18.692-5.824h8.4c8.4 0 12.246 1.953 22.575 10.964V42.549h-12.258V21.915h38.703v106.427h12.258v20.634h-38.703zm0-12.258V78.688c-5.164-2.576-9.67-3.858-14.199-3.858h-8.4c-5.152 0-7.081.647-8.387 1.929-1.941 1.929-2.576 6.446-2.576 24.516 0 18.057.66 21.94 2.576 24.516 1.929 1.929 3.87 1.929 8.387 1.929h8.4c4.529 0 9.047-.66 14.199-3.236zm93.534-82.546c-3.223 0-4.518.647-5.152 1.295-1.295 1.27-1.941 3.223-1.941 7.729v3.87h17.422v20.645h-17.422v53.537h12.917v20.634h-50.961v-20.634h12.257V75.477h-12.258V54.831h12.258v-5.164c0-11.611 1.929-18.057 5.152-21.927 3.87-3.87 8.4-5.164 18.704-5.164h21.28v19.999z" fill="#fa7d19"/><path d="M316.045 148.353v-14.822h9.682V94.169h-9.682V79.335h28.386v54.831h9.67v14.187zm8.388-94.169h19.351v16.775h-19.351zm64.501 34.186c8.388-8.4 11.599-9.035 18.057-9.035h6.434c5.824 0 9.67 1.294 12.246 3.87s3.87 6.446 3.87 16.775v34.198h8.4v15.481h-35.48v-15.481h7.753v-32.257c0-2.588-.647-4.517-1.929-5.164-1.282-1.282-1.929-1.929-5.824-1.929h-3.858c-3.223 0-6.434.647-10.939 2.576v36.115h7.728v14.846h-35.455v-15.481h9.01v-39.35h-9.01V78.029h28.374v10.329h.623zm90.299-18.045c-2.576 0-3.235 0-3.858 1.27-.647.659-1.282 1.941-1.282 5.164v2.576h12.917V94.84h-12.27v39.35h9.682v15.481h-38.044v-15.493h9.023v-39.35h-9.023V79.323h9.023v-3.846c0-8.4 1.27-12.917 3.858-16.128 2.576-2.576 5.799-4.517 13.54-4.517h15.481v14.846c-.659.647-9.047.647-9.047.647zm19.351 74.158c-4.53-4.505-6.446-10.952-6.446-30.303s1.917-25.786 6.446-30.303c2.576-3.223 6.422-4.505 13.528-4.505h22.575c7.106 0 10.964 1.282 14.211 4.505 4.505 5.152 5.799 10.964 5.799 30.303s-1.929 25.798-5.799 30.303c-3.248 3.248-7.106 4.53-14.211 4.53h-22.575c-7.081-.659-10.952-1.282-13.528-4.53zm14.199-12.258c1.282 1.282 1.929 1.282 5.177 1.282h11.586c3.248 0 4.53 0 5.177-1.282 1.282-1.27 1.929-3.858 1.929-18.692s-.647-17.41-1.929-18.692c-.647-1.282-1.929-1.282-5.177-1.282h-11.599c-3.248 0-4.517 0-5.177 1.282-1.27 1.282-1.929 3.858-1.929 18.692 0 15.481.647 17.422 1.941 18.692z"/></svg>