<svg xmlns="http://www.w3.org/2000/svg" xmlns:xlink="http://www.w3.org/1999/xlink" width="1723.013" height="717.387" viewBox="0 0 1292.259 538.04"><defs><radialGradient xlink:href="#a" id="b" gradientUnits="userSpaceOnUse" gradientTransform="rotate(45 622.278 16.445) scale(1.47743 1.12315)" cx="193.73" cy="405.07" r="358.33"/></defs><radialGradient id="a" cx="193.73" cy="405.07" r="358.33" gradientTransform="rotate(45 622.278 16.445) scale(1.47743 1.12315)" gradientUnits="userSpaceOnUse"><stop stop-color="#f9269a" offset="0"/><stop stop-color="#e22e91" offset=".224"/><stop stop-color="#f9269a" offset=".502"/><stop stop-color="#e22e91" offset="1"/></radialGradient><g fill="#e22e91"><path d="M1042.671 335.733v-135.17h27.292v53.201h53.478v-53.2h27.292v135.17h-27.292V276.63h-53.478v59.102zm136.27-135.17h49.882q16.873 0 25.725 2.582 11.894 3.504 20.377 12.447 8.483 8.943 12.908 21.944 4.426 12.908 4.426 31.902 0 16.689-4.15 28.767-5.07 14.753-14.475 23.88-7.1 6.916-19.178 10.789-9.036 2.858-24.157 2.858h-51.357zm27.292 22.866v89.53h20.377q11.433 0 16.504-1.29 6.639-1.66 10.972-5.625 4.426-3.965 7.192-13.001 2.766-9.128 2.766-24.803t-2.766-24.065q-2.766-8.39-7.745-13.093-4.98-4.703-12.632-6.362-5.717-1.291-22.405-1.291zM882.305 200.563v135.124h101.937V312.85h-77.249v-33.307h68.575v-22.836h-68.575V223.4h77.249v-22.837zm-147.825 0v135.124h24.687v-99.983l70.242 99.983h24.687V200.563H829.41v99.983l-70.242-99.983zm-88.727.057a67.565 67.565 0 0 0-19.825 3.843 67.565 67.565 0 0 0-41.18 85.901l.554 1.531a67.565 67.565 0 0 0 86.632 39.621 67.565 67.565 0 0 0 40.143-86.392 67.565 67.565 0 0 0-66.324-44.503zm1.02 24.667a42.877 42.877 0 0 1 42.092 28.242 42.877 42.877 0 0 1-25.475 54.825 42.877 42.877 0 0 1-54.977-25.143l-.353-.972a42.877 42.877 0 0 1 26.134-54.514 42.877 42.877 0 0 1 12.58-2.438z"/></g><path d="M268.75 0A268.75 269.02 0 0 0 0 269.02a268.75 269.02 0 0 0 268.75 269.02 268.75 269.02 0 0 0 260.02-202.354h-91.61v-135.11l51.38-.056 39.95.029A268.75 269.02 0 0 0 268.75 0zm197.557 226.096v28.932h70.699a268.75 269.02 0 0 0-3.076-28.932zm0 54.553v29.148h67.749a268.75 269.02 0 0 0 2.862-29.148z" fill="url(#b)"/><g fill="#fff"><path d="M528.49 200.549l-39.95-.03-51.38.058v135.11h91.61a268.75 269.02 0 0 0 5.286-25.89h-67.75v-29.148h70.612a268.75 269.02 0 0 0 .581-11.63 268.75 269.02 0 0 0-.493-13.991h-70.7v-28.932h67.624a268.75 269.02 0 0 0-5.44-25.547z" stroke-width="1.333"/><path d="M155.48 200.563h109.782v22.808l-74.745 86.795h75.015l.036 25.521h-112.35v-22.775l74.366-86.83H155.48zm193.8-.061l51.495.06v25.52h-73.729v28.93h73.729v25.624h-73.729v29.147h73.729v25.89h-102.88v-135.11z"/></g></svg>