<svg xmlns="http://www.w3.org/2000/svg" xmlns:xlink="http://www.w3.org/1999/xlink" width="672.496" height="250"><defs><linearGradient id="A" x1="272.216" y1="1.439" x2="62.872" y2="198.561" gradientUnits="userSpaceOnUse"><stop offset="0" stop-color="#fff"/><stop offset="1" stop-color="#e78035"/></linearGradient><path id="B" d="M415.03 475.658q-4 0-6.68-1.12-2.64-1.16-4-3-1.32-1.84-1.4-3.92 0-.32.24-.56.28-.28.64-.28h5.04q.56 0 .84.2.28.2.56.52.44.92 1.56 1.68 1.12.72 3.2.72 2.32 0 3.48-.72 1.2-.72 1.2-1.96 0-1.32-1.48-2-1.48-.68-5-1.44-4.56-.92-7.08-2.8-2.48-1.92-2.48-5.68 0-2.44 1.36-4.36 1.36-1.92 3.84-3 2.52-1.08 5.92-1.08 2.76 0 4.84.76 2.12.72 3.56 1.92 1.44 1.16 2.16 2.52.76 1.36.8 2.6 0 .32-.24.6-.24.24-.6.24h-5.28q-.88 0-1.32-.68-.24-.88-1.28-1.52-1.04-.68-2.64-.68-1.76 0-2.76.64-.96.64-.96 1.88 0 1.24 1.24 1.96 1.28.68 4.56 1.4 3.64.68 5.88 1.72 2.24 1 3.28 2.64 1.08 1.6 1.08 4.04 0 2.72-1.56 4.68-1.56 1.96-4.28 3.04-2.72 1.04-6.24 1.04z"/><path id="C" d="M451.9 475.258q-.44 0-.72-.28-.28-.28-.28-.72v-26q0-.44.28-.72.28-.28.72-.28h5.36q.44 0 .72.28.32.28.32.72v26q0 .44-.32.72-.28.28-.72.28z"/><path id="D" d="M616.2 475.258q-.44 0-.72-.28-.28-.28-.28-.72v-26q0-.4.28-.68.28-.32.72-.32h18.68q.44 0 .72.32.28.28.28.68v3.76q0 .44-.28.72-.28.28-.72.28h-12.76v5.4H634q.44 0 .72.32.28.28.28.72v3.48q0 .4-.28.72-.28.28-.72.28h-11.88v5.56h13.08q.44 0 .72.28.28.28.28.72v3.76q0 .44-.28.72-.28.28-.72.28z"/></defs><g fill="#fff" transform="matrix(.991634 0 0 .991634 -299.47347 -221.67865)"><path d="M866.815 400.957c-4.56-1.077-4.894-3.484-4.588-32.957.27-25.92.4-27.73 2.432-31.5 4.23-7.882 4.548-8.06 42.84-24.087l30.164-13.124c4.148-2.695 5.336-7.176 5.336-20.125 0-12.68-.756-16.185-4.317-20-3.195-3.43-6.646-4.952-13.808-6.085-11.836-1.872-23.816 1.23-28.125 7.28-1.833 2.575-2.303 4.92-2.756 13.754-.345 6.727-1.042 11.248-1.893 12.273-2.032 2.448-29.18 2.402-31.635-.053-1.452-1.452-1.626-3.626-1.304-16.25.353-13.815.533-14.912 3.45-21.074 7.095-15 20.6-22.55 44.567-24.975 11.194-1.13 27.028-.226 36.5 2.088 13.774 3.363 25.896 12.252 31.065 22.778l2.755 5.6v45l-3.095 6.5c-3.565 7.487-9.826 14.172-16.36 17.464-2.5 1.26-15.623 6.87-29.163 12.47-30.706 12.697-30.248 12.308-30.726 26.13L897.8 372h39.394c29.306 0 39.7.307 40.594 1.2 1.792 1.792 1.652 25.18-.16 26.684-1.415 1.174-106.1 2.187-110.825 1.073zm-562.36-2.4c-2.346-2.346-2.455-3-2.455-15.04 0-10.896.288-13.15 2.146-16.795 1.18-2.316 14.905-27.083 30.5-55.038L363 260.422c0-.232-11.893-.422-26.43-.422-22.693 0-26.65-.222-28-1.57-1.282-1.282-1.57-4.202-1.57-15.845 0-12.558.22-14.472 1.83-15.93 1.65-1.494 6.742-1.655 52.345-1.655 47.67 0 50.6.103 52.17 1.83 1.37 1.515 1.655 4.186 1.655 15.56v13.732l-30 53.846-30 54.398c0 .304 13.987.684 31.082.844 29.432.275 31.157.394 32.5 2.232 1.057 1.446 1.418 5.346 1.418 15.295 0 12.845-.094 13.448-2.455 15.8L415.1 401H306.9zm161.997 1.324c-1.127-.547-2.563-1.82-3.192-2.826-1.453-2.327-42.26-164-42.26-167.42 0-1.5.798-2.978 1.934-3.587 1.298-.695 36.48-1.035 106.977-1.035h105.043l1.575 2.404c1.493 2.28.477 6.76-19.42 85.667-16.275 64.54-21.465 83.73-23.077 85.346-1.908 1.9-3.428 2.1-18.32 2.397-9.65.187-17.352-.108-18.98-.727-1.548-.6-3.387-2.464-4.23-4.314-2.513-5.522-20.6-79.673-21.887-89.773l-1.22-9.5-1.244 9c-1.556 11.254-20.735 88.18-22.762 91.295-.82 1.262-2.624 2.725-4.006 3.25-3.298 1.254-32.3 1.108-34.93-.175zM650 399.72l-2.5-1.28-.256-84.886c-.235-77.92-.12-85.036 1.405-86.72 1.567-1.732 4.374-1.835 49.815-1.835 40 0 48.482.24 50.095 1.42 1.77 1.293 1.94 2.722 1.94 16.08s-.172 14.787-1.94 16.08c-1.568 1.147-7.38 1.42-30.25 1.42H690v33h25.9c32.462 0 30.465-.967 30.95 14.982.187 6.14.074 12.223-.25 13.52-1.37 5.46-1.586 5.498-30.16 5.498H690v38l28.75.015c21.152.01 29.4.35 31.25 1.278 2.473 1.25 2.503 1.422 2.775 15.76.216 11.392-.034 14.92-1.17 16.472-1.4 1.915-2.948 1.984-50.275 2.226-38.102.195-49.38-.03-51.33-1.03zm117.635-.793L765 396.855v-83.927c0-82.594.032-83.96 2-85.927 1.85-1.85 3.333-2 19.845-2 16.018 0 18.014.187 19.5 1.83 1.512 1.67 1.655 9.08 1.655 86 0 82.838-.032 84.203-2 86.17-1.842 1.842-3.333 2-18.865 2-15.548 0-17.07-.162-19.5-2.073zM303.9 475.258q-.44 0-.72-.28-.28-.28-.28-.72v-26q0-.4.28-.68.28-.32.72-.32h4.32q.68 0 1 .36.32.32.4.52l7.04 12.6 7.04-12.6q.08-.2.4-.52.32-.36 1-.36h4.28q.44 0 .72.32.32.28.32.68v26q0 .44-.32.72-.28.28-.72.28h-4.76q-.44 0-.76-.28-.28-.28-.28-.72v-15l-4.48 8.36q-.2.36-.52.64-.32.28-.88.28h-2.08q-.56 0-.88-.28-.32-.28-.52-.64l-4.52-8.36v15q0 .44-.28.72-.28.28-.72.28zm63.66.4q-3.64 0-6.36-1.16-2.68-1.2-4.16-3.64-1.48-2.44-1.48-6.28v-16.32q0-.4.28-.68.28-.32.72-.32h5.16q.44 0 .72.32.32.28.32.68v16.28q0 2.64 1.24 3.92 1.24 1.28 3.52 1.28 2.24 0 3.48-1.28 1.28-1.28 1.28-3.92v-16.28q0-.4.28-.68.28-.32.72-.32h5.2q.4 0 .68.32.32.28.32.68v16.32q0 3.84-1.48 6.28-1.48 2.44-4.2 3.64-2.68 1.16-6.24 1.16z"/><use xlink:href="#B"/><use xlink:href="#C"/><path d="M495.13 475.658q-5.68 0-8.92-2.76-3.24-2.76-3.44-8.08-.08-1.64-.08-3.52 0-1.88.08-3.6.2-5.24 3.48-8.04 3.32-2.8 8.88-2.8 3.52 0 6.28 1.16 2.8 1.16 4.44 3.32 1.64 2.16 1.68 5.16.04.36-.24.6-.24.24-.6.24h-5.4q-.56 0-.84-.2-.24-.24-.44-.84-.56-2.12-1.84-2.88-1.24-.8-3.08-.8-2.2 0-3.52 1.24-1.28 1.2-1.36 4.04-.12 3.28 0 6.72.08 2.84 1.36 4.08 1.32 1.2 3.52 1.2 1.84 0 3.12-.8 1.28-.8 1.8-2.88.2-.64.44-.84.28-.2.84-.2h5.4q.36 0 .6.24.28.24.24.6-.04 3-1.68 5.16-1.64 2.16-4.44 3.32-2.76 1.16-6.28 1.16zm82.25-.4q-.44 0-.72-.28-.28-.28-.28-.72v-20.72h-7.12q-.44 0-.72-.28-.28-.32-.28-.72v-4.28q0-.4.28-.68.28-.32.72-.32h21.52q.44 0 .72.32.28.28.28.68v4.28q0 .4-.28.72-.28.28-.72.28h-7.12v20.72q0 .44-.28.72-.28.28-.72.28z"/><use xlink:href="#D"/><path d="M661.56 475.258q-.44 0-.72-.28-.28-.28-.28-.72v-26q0-.44.28-.72.28-.28.72-.28h5.28q.44 0 .72.28.28.28.28.72v20.96h12.12q.4 0 .68.32.32.28.32.72v4q0 .44-.32.72-.28.28-.68.28z"/><use xlink:href="#D" x="89.02"/><path d="M757.42 475.258q-.72 0-1.12-.36-.36-.36-.52-.84l-8.16-25.6q-.08-.2-.08-.36 0-.32.24-.56.28-.28.64-.28h4.96q.64 0 1 .36.36.36.44.68l5.68 18.48 5.64-18.48q.08-.32.44-.68.36-.36 1-.36h5q.32 0 .56.28.28.24.28.56 0 .16-.08.36l-8.16 25.6q-.16.48-.56.84-.36.36-1.08.36z"/><use xlink:href="#C" x="346.03"/><use xlink:href="#B" x="425.09"/><use xlink:href="#C" x="425.09"/><path d="M920.18 475.658q-5.56 0-8.84-2.68-3.28-2.72-3.48-8.2-.12-3.4 0-6.92.12-3.6 1.68-6.04 1.56-2.44 4.28-3.68 2.76-1.28 6.36-1.28 3.64 0 6.36 1.28 2.72 1.24 4.28 3.68 1.56 2.44 1.68 6.04.12 3.52 0 6.92-.2 5.48-3.48 8.2-3.28 2.68-8.84 2.68zm0-5.76q2.12 0 3.44-1.28 1.32-1.28 1.44-4.08.08-3.32 0-6.56-.12-2.8-1.48-4.08-1.32-1.28-3.4-1.28-2.08 0-3.44 1.28-1.32 1.28-1.44 4.08-.08 3.24 0 6.56.12 2.8 1.44 4.08 1.32 1.28 3.44 1.28zm37.83 5.36q-.44 0-.72-.28-.28-.28-.28-.72v-26q0-.4.28-.68.28-.32.72-.32h4.24q.68 0 .96.32.28.28.4.44l9.76 15.36v-15.12q0-.4.28-.68.28-.32.72-.32h4.8q.44 0 .72.32.28.28.28.68v25.96q0 .44-.28.76-.28.28-.72.28h-4.28q-.64 0-.96-.28-.28-.32-.36-.48l-9.76-14.8v14.56q0 .44-.28.72-.28.28-.72.28z"/></g><path d="M226.005 1.44l-8.885.012-76.293 97.493 5.37 21.156L272.217 1.44zM107.99 140.907l-27.437 35.06h6.314l29.888-28.143c-.215-2.803-.575-4.355-1.146-5.137-.75-1.025-1.802-1.504-7.618-1.782z" fill="url(#A)"/></svg>