<svg xmlns="http://www.w3.org/2000/svg" id="svg78" width="645.68" height="680.514"><defs id="defs4"><style id="style2">.f{fill:#fff}</style></defs><path d="M21.632 679.746C6.616 677.933.583 670.416 2.72 656.181l.898-5.98h25.668c-1.826 7.746-.387 12.51 4.927 12.51 4.384 0 7.663-4.005 8.511-9.659.87-5.806-.953-7.798-12.685-13.857-4.84-2.5-10.236-5.754-11.992-7.231-5.976-5.03-7.297-12.2-4.344-23.592 5.328-20.562 19.422-29.954 42.749-28.488 17.28 1.087 23.945 7.968 22.208 22.934l-.68 5.85H52.643c.068-2.982 1.674-11.482-4.628-11.482-6.146 0-7.3 5.702-7.867 9.449-.827 5.464 2.606 7.983 14.238 13.42 10.293 4.812 14.175 7.924 16.337 13.1 3.803 9.1-.442 26.665-8.724 36.097-7.207 8.21-23.723 12.503-40.366 10.494zm74.777-.092c-18.445-1.735-22.29-12.067-16.677-41.206 7.327-38.038 12.682-48.593 26.72-55.415 3.093-1.503 7.034-2.888 19.263-2.888 14.58 0 18.56.961 23.343 5.637 4.6 4.498 5.573 9.546 4.288 19.622l-1.439 11.27h-26.02c3.374-14.236 1.704-21.63-5.058-19.06-3.802 1.446-6.136 7.27-10.181 25.406-7.498 33.609-6.595 38.698-1.642 39.69 6.897 1.383 12.138-23.518 12.138-23.518h26.02c-5.36 24.311-15.875 37.839-34.46 40.493-5.48.838-10.839.483-16.295-.03zm71.017-98.124h26.26l-7.403 35.144h13.774l7.508-35.144h26.838l-20.471 97.193h-26.838l8.326-39.53h-13.88l-8.326 39.53h-26.258zm72.592 0h25.959l-7.712 67.572 22.946-67.572h24.12l-4.604 66.876 20.462-66.876h25.447l-37.173 97.193h-28.268l5.304-65.402-22.41 65.403h-29.073zm128.212 0h33.92l2.552 97.193h-28.446l.806-14.797h-19.393l-5.508 14.797h-27.574zm12.157 21.358l-14.763 39.807h12.594zm49.57-21.358l24.519.308c24.038.302 24.605.358 28.923 2.81 5.335 3.031 8.106 7.84 8.106 14.065 0 11.049-5.827 21.438-14.592 26.017l-5.048 2.637c4.55 1.843 9.41 4.596 11.116 8.284 3.888 8.622-.944 26.05-9.471 34.162-7.467 7.102-12.24 8.144-39.8 8.682-13.349.261-24.316.228-24.316.228zm21.796 75.423c3.066-2.775 4.79-6.941 4.889-11.808.12-6.012-2.085-8.455-7.632-8.455h-4.016l-4.872 23.028s2.696-.033 4.875-.359c2.651-.397 5.696-1.447 6.756-2.406zm6.609-38.908c1.281-.898 2.958-3.135 3.725-4.972 3.104-7.429.818-12.412-5.694-12.412h-3.777l-4.023 19.016h3.765c2.02 0 4.722-.735 6.004-1.632zm49.8-36.515l58.155.086-4.261 21.272h-31.882l-3.365 15.788h29.477l-4.166 20.793h-29.742l-3.674 17.237h32.571l-4.41 22.017h-59.457l20.753-97.193zm68.536 0l28.596.116 2.05 58.633 13.025-58.75h25.25l-20.766 97.194-28 .054-3.224-59.1-13.27 59.046h-24.04zM20.842 458.549l39.45-.043-5.137 60.58 22.252-60.537h38.034l-20.22 96.076H70.025l15.634-72.079-27.887 72.08H37.906l3.317-72.08-15.718 72.08H.358l20.484-96.077zm122.66 0h33.517l2.508 96.076h-27.291l.734-14.011h-19.797l-5.133 14.011h-27.774zm12.768 19.02l-15.214 41.528h13.04zm49.046-19.02l23.25.076c27.897.091 30.827.848 35.777 9.238 3.257 5.52 3.599 13.974 1.123 27.715-6.51 36.116-14.306 51.588-28.712 56.978-5.001 1.871-7.73 2.07-28.511 2.07H184.97c6.878-32.006 13.629-64.038 20.345-96.077zm20.762 75.5c3.655-2.561 5.15-6.683 9.347-25.786 6.081-27.678 5.745-31.069-3.021-30.497l-4.575.298-11.502 55.795c-.052 2.296 6.56 2.424 9.75.19zm57.479-75.5h58.062l-4.219 21.017h-31.724l-3.394 16.012h29.184l-4.063 20.24h-29.411l-3.771 17.79h32.33l-4.218 21.017h-59.23s13.837-64.009 20.454-96.076zm81.691 96.076s5.415-25.107 10.783-50.29l9.76-45.786h26.795l-20.3 96.076zm47.194-48.137c5.505-25.779 10.12-47.94 10.12-47.94h28.622c1.272 12.344 1.27 25.173 1.283 35.78.004 12.247.758 22.267.758 22.267s8.372-36.003 13.043-58.046h25.275s-5.184 23.556-10.632 49.29l-9.906 46.786h-28.28l-.601-6.755c-.33-3.716-.903-17.027-1.272-29.582-.37-12.554-.994-22.462-1.388-22.017-.394.445-3.073 12.068-5.953 25.828-2.88 13.761-5.664 26.71-6.186 28.773l-.949 3.753h-24.075s6.86-32.758 10.141-48.137z" id="path908" fill="#fff" stroke-width="1.001"/><g id="g1007" transform="matrix(1.51798 0 0 1.51798 0 .015)"><path d="M276.69 0c69 0 124.87 56.38 124.87 125.94s-55.9 125.94-124.87 125.94S151.48 200 151.48 126.15C151.48 52.75 207.73 0 276.7 0" id="path8" style="isolation:isolate" fill="#9d9d9c"/><path d="M125.94 0c69.55 0 123.21 54.46 124.48 126.2 1.24 70-54.93 125.67-124.48 125.67a125.94 125.94 0 0 1 0-251.88" id="path10" style="isolation:isolate" fill="#cd1719"/><path style="isolation:isolate;mix-blend-mode:multiply" id="path12" d="M200.78 0A125.94 125.94 0 1 1 74.84 125.94 125.94 125.94 0 0 1 200.78 0" opacity=".2" fill="#1d1d1b"/><g id="g902" style="isolation:isolate"><path id="polygon18" class="f" d="M307.38 129.2v20.05h-6.59v-46.41h19.69v6.24h-13.1v13.95h11.5v6.17z" fill="#fff"/><path id="polygon20" class="f" d="M337.74 140.79l-6.59-19.57v28.03h-6.58v-46.41h6.17l8.8 24.7 8.6-24.7h6.1v46.41h-6.59v-28.03l-6.58 19.57z" fill="#fff"/></g><g id="g898" style="isolation:isolate"><path id="path22" transform="translate(-220.22 -179.62)" d="M378.78 324a11.38 11.38 0 0 1-3.88 3.82 10 10 0 0 1-5.27 1.46 10.89 10.89 0 0 1-5.51-1.49 9.16 9.16 0 0 1-3.64-3.41 13.06 13.06 0 0 1-1.35-3.34 14.46 14.46 0 0 1-.31-3.09v-35.48h6.59v35.46a7.67 7.67 0 0 0 .14 1.56 5.74 5.74 0 0 0 1.07 1.91 3.6 3.6 0 0 0 3.09 1.25 3.41 3.41 0 0 0 3-1.46 5.64 5.64 0 0 0 1-3.27v-35.45h6.58v35.45a14 14 0 0 1-.35 3.16 10 10 0 0 1-1.18 2.89" class="f" fill="#fff"/><path id="path24" transform="translate(-220.22 -179.62)" d="M347 312.73h-6.24l3.12-16.51zm10.19 16.17l-10.33-46.43h-6.46l-9.67 46.43h7l1.86-10h8.55l1.86 10h7.1z" class="f" fill="#fff"/><path id="polygon26" class="f" d="M108.58 102.84v46.41h-6.17L92.08 121v28.25h-6.59v-46.41h6.24l10.26 28.14v-28.14z" fill="#fff"/><path id="path28" transform="translate(-220.22 -179.62)" d="M294.13 317.45a9.52 9.52 0 0 1-.14 1.81 4.72 4.72 0 0 1-.59 1.46 4 4 0 0 1-1.46 1.35 4.37 4.37 0 0 1-2.25.59 3.91 3.91 0 0 1-3.43-1.42 5.64 5.64 0 0 1-1.11-2.26 12.57 12.57 0 0 1-.1-1.53v-23.6a8.57 8.57 0 0 1 .14-1.39 4.91 4.91 0 0 1 .59-1.63 4.13 4.13 0 0 1 1.59-1.46 4.61 4.61 0 0 1 2.32-.66 4.28 4.28 0 0 1 3.6 1.87 3.19 3.19 0 0 1 .73 1.32 12.19 12.19 0 0 1 .1 1.94v23.6zm6.59-.07v-23.6a14.4 14.4 0 0 0-.55-4.09 10.86 10.86 0 0 0-5.79-6.53 11.37 11.37 0 0 0-4.82-1 10.68 10.68 0 0 0-5.06 1.29 11.53 11.53 0 0 0-4 3.51 10.67 10.67 0 0 0-1.56 3.19 13.54 13.54 0 0 0-.45 3.68v23.6a19 19 0 0 0 .21 3 12.5 12.5 0 0 0 1.28 3.4 9.77 9.77 0 0 0 3.81 3.78 11.3 11.3 0 0 0 6 1.67 11 11 0 0 0 8.94-4.72 11.89 11.89 0 0 0 1.63-3.51 15.51 15.51 0 0 0 .38-3.64" class="f" fill="#fff"/><path id="path30" transform="translate(-220.22 -179.62)" d="M267.38 317.43q0 5.3-5 5.3h-3.2v-34h3.41A4.8 4.8 0 0 1 266 290a4.22 4.22 0 0 1 1.4 3.24v24.18zm6.59 0v-24.17a10.3 10.3 0 0 0-3.22-7.62 10.55 10.55 0 0 0-7.66-3.17h-10.48v46.43h10.26a10.56 10.56 0 0 0 8-3.24 11.48 11.48 0 0 0 3.08-8.25" class="f" fill="#fff"/></g><path class="f" d="M251.33 126.08q15 5.32 22.47 15.79 7.47 10.47 7.46 26.59 0 26.3-21.61 42.61t-57.2 16.31q-39.92 0-60.8-17.82-20.88-17.82-21.47-52.32h69.35q0 7.18 2.87 11a9.8 9.8 0 0 0 8.33 3.81 11.21 11.21 0 0 0 8.47-3.45 12.36 12.36 0 0 0 3.3-8.91q0-7.19-5-10.85-5-3.66-14.57-3.67h-.38v-38.18h.38q9.62 0 14.57-3.66 4.95-3.66 5-10.85a12.35 12.35 0 0 0-3.3-8.91 11.2 11.2 0 0 0-8.47-3.45q-5.46 0-8.33 3.81t-2.87 11h-69.35q.6-34.55 21.46-52.33t60.8-17.82q35.61 0 57.21 16.31t21.61 42.61q0 16.1-7.46 26.59-7.46 10.49-22.47 15.79" id="path16" style="isolation:isolate" fill="#fff"/></g></svg>