<svg xmlns="http://www.w3.org/2000/svg" id="svg78" width="727.291" height="651.608"><defs id="defs4"><style id="style2">.f{fill:#fff}</style></defs><path d="M352.553 650.462c-14.126-2.932-22.734-9.447-26.05-19.715-2.293-7.1-2.165-23.858.292-38.221 3.298-19.275 11.065-53.056 14.755-64.168 8.41-25.33 20.595-37.899 42.588-43.934 5.145-1.412 10.375-1.793 24.622-1.793 15.98 0 18.932.265 25.31 2.27 18.235 5.734 24.69 18.388 22.306 43.73-1.087 11.549-7.439 43.958-12.51 63.826-9.18 35.968-21.162 50.89-45.835 57.077-9.04 2.267-36.346 2.824-45.478.928zm33.091-30.829c1.53-1.204 3.82-4.533 5.087-7.398 5.603-12.67 18.688-73.654 18.904-88.105.157-10.514-2.01-12.32-7.62-12.21-10.183.202-14.748 12.66-26.42 71.712-4.348 22.002-4.983 32.869-2.105 36.064 2.588 2.873 8.46 2.843 12.154-.063zm97.331 31.297c-13.497-2.41-23.819-9.127-27.739-18.054-4.537-10.333-3.348-28.111 4.267-63.773 8.15-38.17 12.02-50.065 20.326-62.484 11.258-16.833 25.251-23.21 53.082-24.192 15.851-.598 35.792 1.018 44.825 13.997 5.803 8.629 6.336 19.947 1.921 40.793-.856 4.044-1.557 7.549-1.557 7.789h-44.263s.982-5.118 2.076-10.065c2.774-12.55 2.884-18.327-.479-21.201-2.582-2.207-6.38-2.194-8.954-1.081-7.298 3.154-9.75 9.46-18.102 47.937-11.633 53.594-11.809 61.225-1.41 61.225 5.26 0 7.286-1.245 10.243-6.3 2.515-4.298 6.578-17.508 8.65-28.12l1.127-5.779h44.027l-.614 3.266c-3.653 19.431-11.44 38.084-19.903 47.672-6.152 6.97-15.378 12.857-25.16 16.054-6.878 2.248-10.143 2.672-22.612 2.934-8.014.169-16.902-.11-19.75-.618zm-295.778-5.743c.454-2.072 8.12-38.139 17.034-80.147a25358.087 25358.087 0 0 1 17.097-79.896h37.926c22.14 0 40.326.441 43.916 1.067 18.325 3.19 26.487 15.648 23.68 36.142-3.324 24.283-14.118 39.138-32.161 44.263-3.12.886-3.895 1.405-2.507 1.677 7.853 1.543 13.419 5.168 16.203 10.552 2.609 5.046 1.913 17.241-2.079 36.444-4.175 20.082-4.478 26.213-1.486 30.017 1.611 2.049 1.778 3.249.732 3.65H257.05l-.353-4.264c-.171-2.07 1.525-13.903 3.769-26.298 2.244-12.395 4.08-23.95 4.08-25.68 0-1.998-.9-4.043-2.467-5.61-2.145-2.145-3.376-2.467-9.438-2.467-6.406 0-7.014.183-7.492 2.261-.286 1.244-3.35 15.716-6.81 32.16l-6.29 29.898H186.37zm79.94-92.605c2.254-1.024 5.062-3.087 6.24-4.584 3.262-4.148 6.243-13.1 6.243-18.75 0-7.256-3.317-10.428-11.953-11.43-3.476-.403-6.697-.345-7.158.13-.68.7-8.024 33.524-8.024 35.865 0 1.444 10.751.54 14.651-1.231zm303.982 92.605c.465-2.072 8.1-37.913 16.966-79.645 8.867-41.732 16.361-76.894 16.655-78.137l.533-2.261h45.378l-12.544 58.917c-1.26 4.304 1.887.994 20.457-28.212l19.523-30.705h49.204s-13.166 17.378-28.09 36.64c-15.015 19.379-26.995 35.739-26.822 36.626.264 1.353 25.41 90.546 25.41 90.546h-51.17l-2.003-8.794c-1.102-4.836-3.666-16.481-5.697-25.878-2.032-9.396-3.901-17.73-4.154-18.52-.29-.904-2.223.983-5.23 5.108-4.701 6.449-4.832 6.839-9.165 27.313l-4.397 20.771h-45.699z" id="path929" fill="#fff" stroke-width="1.005"/><g id="g958" transform="translate(0 .018) scale(1.79191)"><path d="M276.69 0c69 0 124.87 56.38 124.87 125.94s-55.9 125.94-124.87 125.94S151.48 200 151.48 126.15C151.48 52.75 207.73 0 276.7 0" id="path8" style="isolation:isolate" fill="#9d9d9c"/><path d="M125.94 0c69.55 0 123.21 54.46 124.48 126.2 1.24 70-54.93 125.67-124.48 125.67a125.94 125.94 0 0 1 0-251.88" id="path10" style="isolation:isolate" fill="#cd1719"/><path style="isolation:isolate;mix-blend-mode:multiply" id="path12" d="M200.78 0A125.94 125.94 0 1 1 74.84 125.94 125.94 125.94 0 0 1 200.78 0" opacity=".2" fill="#1d1d1b"/><g id="g902" style="isolation:isolate"><path id="polygon18" class="f" d="M307.38 129.2v20.05h-6.59v-46.41h19.69v6.24h-13.1v13.95h11.5v6.17z" fill="#fff"/><path id="polygon20" class="f" d="M337.74 140.79l-6.59-19.57v28.03h-6.58v-46.41h6.17l8.8 24.7 8.6-24.7h6.1v46.41h-6.59v-28.03l-6.58 19.57z" fill="#fff"/></g><g id="g898" style="isolation:isolate"><path id="path22" transform="translate(-220.22 -179.62)" d="M378.78 324a11.38 11.38 0 0 1-3.88 3.82 10 10 0 0 1-5.27 1.46 10.89 10.89 0 0 1-5.51-1.49 9.16 9.16 0 0 1-3.64-3.41 13.06 13.06 0 0 1-1.35-3.34 14.46 14.46 0 0 1-.31-3.09v-35.48h6.59v35.46a7.67 7.67 0 0 0 .14 1.56 5.74 5.74 0 0 0 1.07 1.91 3.6 3.6 0 0 0 3.09 1.25 3.41 3.41 0 0 0 3-1.46 5.64 5.64 0 0 0 1-3.27v-35.45h6.58v35.45a14 14 0 0 1-.35 3.16 10 10 0 0 1-1.18 2.89" class="f" fill="#fff"/><path id="path24" transform="translate(-220.22 -179.62)" d="M347 312.73h-6.24l3.12-16.51zm10.19 16.17l-10.33-46.43h-6.46l-9.67 46.43h7l1.86-10h8.55l1.86 10h7.1z" class="f" fill="#fff"/><path id="polygon26" class="f" d="M108.58 102.84v46.41h-6.17L92.08 121v28.25h-6.59v-46.41h6.24l10.26 28.14v-28.14z" fill="#fff"/><path id="path28" transform="translate(-220.22 -179.62)" d="M294.13 317.45a9.52 9.52 0 0 1-.14 1.81 4.72 4.72 0 0 1-.59 1.46 4 4 0 0 1-1.46 1.35 4.37 4.37 0 0 1-2.25.59 3.91 3.91 0 0 1-3.43-1.42 5.64 5.64 0 0 1-1.11-2.26 12.57 12.57 0 0 1-.1-1.53v-23.6a8.57 8.57 0 0 1 .14-1.39 4.91 4.91 0 0 1 .59-1.63 4.13 4.13 0 0 1 1.59-1.46 4.61 4.61 0 0 1 2.32-.66 4.28 4.28 0 0 1 3.6 1.87 3.19 3.19 0 0 1 .73 1.32 12.19 12.19 0 0 1 .1 1.94v23.6zm6.59-.07v-23.6a14.4 14.4 0 0 0-.55-4.09 10.86 10.86 0 0 0-5.79-6.53 11.37 11.37 0 0 0-4.82-1 10.68 10.68 0 0 0-5.06 1.29 11.53 11.53 0 0 0-4 3.51 10.67 10.67 0 0 0-1.56 3.19 13.54 13.54 0 0 0-.45 3.68v23.6a19 19 0 0 0 .21 3 12.5 12.5 0 0 0 1.28 3.4 9.77 9.77 0 0 0 3.81 3.78 11.3 11.3 0 0 0 6 1.67 11 11 0 0 0 8.94-4.72 11.89 11.89 0 0 0 1.63-3.51 15.51 15.51 0 0 0 .38-3.64" class="f" fill="#fff"/><path id="path30" transform="translate(-220.22 -179.62)" d="M267.38 317.43q0 5.3-5 5.3h-3.2v-34h3.41A4.8 4.8 0 0 1 266 290a4.22 4.22 0 0 1 1.4 3.24v24.18zm6.59 0v-24.17a10.3 10.3 0 0 0-3.22-7.62 10.55 10.55 0 0 0-7.66-3.17h-10.48v46.43h10.26a10.56 10.56 0 0 0 8-3.24 11.48 11.48 0 0 0 3.08-8.25" class="f" fill="#fff"/></g><path class="f" d="M251.33 126.08q15 5.32 22.47 15.79 7.47 10.47 7.46 26.59 0 26.3-21.61 42.61t-57.2 16.31q-39.92 0-60.8-17.82-20.88-17.82-21.47-52.32h69.35q0 7.18 2.87 11a9.8 9.8 0 0 0 8.33 3.81 11.21 11.21 0 0 0 8.47-3.45 12.36 12.36 0 0 0 3.3-8.91q0-7.19-5-10.85-5-3.66-14.57-3.67h-.38v-38.18h.38q9.62 0 14.57-3.66 4.95-3.66 5-10.85a12.35 12.35 0 0 0-3.3-8.91 11.2 11.2 0 0 0-8.47-3.45q-5.46 0-8.33 3.81t-2.87 11h-69.35q.6-34.55 21.46-52.33t60.8-17.82q35.61 0 57.21 16.31t21.61 42.61q0 16.1-7.46 26.59-7.46 10.49-22.47 15.79" id="path16" style="isolation:isolate" fill="#fff"/></g></svg>