<svg xmlns="http://www.w3.org/2000/svg" viewBox="0 0 401.56 251.88" id="svg78"><defs id="defs4"><style id="style2">.f{fill:#fff}</style></defs><path style="isolation:isolate" id="path8" d="M276.69 0c69 0 124.87 56.38 124.87 125.94s-55.9 125.94-124.87 125.94S151.48 200 151.48 126.15C151.48 52.75 207.73 0 276.7 0" fill="#9d9d9c"/><path style="isolation:isolate" id="path10" d="M125.94 0c69.55 0 123.21 54.46 124.48 126.2 1.24 70-54.93 125.67-124.48 125.67a125.94 125.94 0 0 1 0-251.88" fill="#cd1719"/><path d="M200.78 0A125.94 125.94 0 1 1 74.84 125.94 125.94 125.94 0 0 1 200.78 0" id="path12" style="isolation:isolate;mix-blend-mode:multiply" opacity=".2" fill="#1d1d1b"/><g style="isolation:isolate" id="g902"><path d="M307.38 129.2v20.05h-6.59v-46.41h19.69v6.24h-13.1v13.95h11.5v6.17z" class="f" id="polygon18" fill="#fff"/><path d="M337.74 140.79l-6.59-19.57v28.03h-6.58v-46.41h6.17l8.8 24.7 8.6-24.7h6.1v46.41h-6.59v-28.03l-6.58 19.57z" class="f" id="polygon20" fill="#fff"/></g><g style="isolation:isolate" id="g898"><path class="f" d="M378.78 324a11.38 11.38 0 0 1-3.88 3.82 10 10 0 0 1-5.27 1.46 10.89 10.89 0 0 1-5.51-1.49 9.16 9.16 0 0 1-3.64-3.41 13.06 13.06 0 0 1-1.35-3.34 14.46 14.46 0 0 1-.31-3.09v-35.48h6.59v35.46a7.67 7.67 0 0 0 .14 1.56 5.74 5.74 0 0 0 1.07 1.91 3.6 3.6 0 0 0 3.09 1.25 3.41 3.41 0 0 0 3-1.46 5.64 5.64 0 0 0 1-3.27v-35.45h6.58v35.45a14 14 0 0 1-.35 3.16 10 10 0 0 1-1.18 2.89" transform="translate(-220.22 -179.62)" id="path22" fill="#fff"/><path class="f" d="M347 312.73h-6.24l3.12-16.51zm10.19 16.17l-10.33-46.43h-6.46l-9.67 46.43h7l1.86-10h8.55l1.86 10h7.1z" transform="translate(-220.22 -179.62)" id="path24" fill="#fff"/><path d="M108.58 102.84v46.41h-6.17L92.08 121v28.25h-6.59v-46.41h6.24l10.26 28.14v-28.14z" class="f" id="polygon26" fill="#fff"/><path class="f" d="M294.13 317.45a9.52 9.52 0 0 1-.14 1.81 4.72 4.72 0 0 1-.59 1.46 4 4 0 0 1-1.46 1.35 4.37 4.37 0 0 1-2.25.59 3.91 3.91 0 0 1-3.43-1.42 5.64 5.64 0 0 1-1.11-2.26 12.57 12.57 0 0 1-.1-1.53v-23.6a8.57 8.57 0 0 1 .14-1.39 4.91 4.91 0 0 1 .59-1.63 4.13 4.13 0 0 1 1.59-1.46 4.61 4.61 0 0 1 2.32-.66 4.28 4.28 0 0 1 3.6 1.87 3.19 3.19 0 0 1 .73 1.32 12.19 12.19 0 0 1 .1 1.94v23.6zm6.59-.07v-23.6a14.4 14.4 0 0 0-.55-4.09 10.86 10.86 0 0 0-5.79-6.53 11.37 11.37 0 0 0-4.82-1 10.68 10.68 0 0 0-5.06 1.29 11.53 11.53 0 0 0-4 3.51 10.67 10.67 0 0 0-1.56 3.19 13.54 13.54 0 0 0-.45 3.68v23.6a19 19 0 0 0 .21 3 12.5 12.5 0 0 0 1.28 3.4 9.77 9.77 0 0 0 3.81 3.78 11.3 11.3 0 0 0 6 1.67 11 11 0 0 0 8.94-4.72 11.89 11.89 0 0 0 1.63-3.51 15.51 15.51 0 0 0 .38-3.64" transform="translate(-220.22 -179.62)" id="path28" fill="#fff"/><path class="f" d="M267.38 317.43q0 5.3-5 5.3h-3.2v-34h3.41A4.8 4.8 0 0 1 266 290a4.22 4.22 0 0 1 1.4 3.24v24.18zm6.59 0v-24.17a10.3 10.3 0 0 0-3.22-7.62 10.55 10.55 0 0 0-7.66-3.17h-10.48v46.43h10.26a10.56 10.56 0 0 0 8-3.24 11.48 11.48 0 0 0 3.08-8.25" transform="translate(-220.22 -179.62)" id="path30" fill="#fff"/></g><path style="isolation:isolate" id="path16" d="M251.33 126.08q15 5.32 22.47 15.79 7.47 10.47 7.46 26.59 0 26.3-21.61 42.61t-57.2 16.31q-39.92 0-60.8-17.82-20.88-17.82-21.47-52.32h69.35q0 7.18 2.87 11a9.8 9.8 0 0 0 8.33 3.81 11.21 11.21 0 0 0 8.47-3.45 12.36 12.36 0 0 0 3.3-8.91q0-7.19-5-10.85-5-3.66-14.57-3.67h-.38v-38.18h.38q9.62 0 14.57-3.66 4.95-3.66 5-10.85a12.35 12.35 0 0 0-3.3-8.91 11.2 11.2 0 0 0-8.47-3.45q-5.46 0-8.33 3.81t-2.87 11h-69.35q.6-34.55 21.46-52.33t60.8-17.82q35.61 0 57.21 16.31t21.61 42.61q0 16.1-7.46 26.59-7.46 10.49-22.47 15.79" class="f" fill="#fff"/></svg>