<svg xmlns="http://www.w3.org/2000/svg" id="svg78" width="727.291" height="651.608"><defs id="defs4"><style id="style2">.f{fill:#fff}</style></defs><path d="M289.57 651.105c-1.16-.257-4.718-.98-7.907-1.606-12.874-2.529-21.782-9.712-24.872-20.056-4.646-15.56 2.953-42.646 13.729-56.448 6.776-8.678 21.002-11.992 21.002-11.992s-10.75-7.157-13.71-18.482c-1.655-6.33-.035-15.28-.035-15.28 4.516-22.312 18.508-36.655 41.31-42.343 9.313-2.323 35.068-2.674 43.747-.596 7.24 1.733 15.466 5.61 19.163 9.032 3.563 3.299 6.868 10.706 7.715 17.293.874 6.796-1.798 20.854-5.28 27.783-3.926 7.81-12.126 16.149-19.326 19.65l-6.049 2.943 6.121 2.8c10.906 4.987 14.858 14.767 12.525 31-2.575 17.92-8.568 31.459-17.884 40.406-12.12 11.638-24.342 15.497-50.747 16.02-9.567.189-18.343.133-19.503-.124zm30.094-30.475c4.448-2.704 9.817-18.561 11.214-33.121.572-5.967.416-6.642-2.113-9.103-3.056-2.976-6.474-3.346-11.605-1.26-4.684 1.905-6.614 5.146-9.703 16.293-3.387 12.222-4.502 23.692-2.527 26.008 3.015 3.537 9.946 4.094 14.734 1.183zm14.487-73.17c1.297-.884 3.244-3.309 4.328-5.388 2.06-3.951 5.38-17.925 5.38-22.646 0-7.808-8.91-10.12-15.243-3.956-2.792 2.718-3.861 5.102-5.693 12.698-2.68 11.115-2.827 15.543-.614 18.618 1.99 2.765 8.253 3.121 11.842.674zm77.34 102.713c-17.669-3.905-26.066-12.951-28.127-30.3-1.824-15.35 9.335-71.563 19.098-96.21 8.528-21.53 21.562-33.55 41.932-38.668 14.675-3.687 39.359-2.967 51.631 1.506 16.115 5.873 22.223 19.624 19.688 44.33-2.104 20.514-10.558 58.632-16.904 76.214-8.47 23.471-21.49 36.628-41.626 42.064-8.918 2.408-36.687 3.055-45.692 1.064zm30.886-28.675c4.707-1.915 6.231-4.424 9.4-15.479 5.923-20.658 15.748-66.67 17.359-81.294 1.129-10.248-.303-12.557-7.803-12.585-5.528-.02-9.423 3.757-12.14 11.773-2.42 7.14-12.57 51.365-16.212 70.63-3.987 21.096-3.577 25.472 2.592 27.68 2.462.882 2.991.825 6.804-.725zm93.766 28.661c-25.534-7.74-27.3-19.367-27.255-36.956.056-15.74 2.048-27.252 7.992-46.178 6.72-21.398 16.782-34.484 31.922-41.518 9.54-4.433 14.946-5.735 28.079-6.766 20.018-1.572 37.866 3.433 44.937 12.603 6.455 8.369 7.154 23.963 2.176 48.508l-2.504 12.343h-64.342l-2.292 10.504c-3.872 17.749-2.634 22.715 5.66 22.715 6.09 0 10.55-5.248 13.213-15.546l1.393-5.388h41.936l-.737 3.335c-1.235 5.594-5.402 15.658-8.392 20.269-7.127 10.99-20.517 19.276-35.67 22.075-10.03 1.852-27.374 1.852-36.116 0zm48.13-88.009c2.758-12.602 1.048-17.188-6.408-17.188-6.813 0-11.08 4.676-13.577 14.88-.69 2.821-2.275 8.722-2.275 8.722h20.856zm34.1 83.91c.811-3.148 26.98-123.27 26.98-123.27h45.213s-1.573 6.407-2.413 10.343l-1.528 7.155 3.873-4.586c5.96-7.056 10.757-11.074 16.524-13.842 5.754-2.763 13.664-4.197 17.703-3.21l2.566.626-8.647 40.914-8.973-.553c-5.386-.332-10.77-.077-13.468.638-5.665 1.503-11.648 6.56-14.053 11.88-1.02 2.258-5.237 19.575-9.37 38.482-4.132 18.907-8.453 37.969-8.453 37.969h-46.611z" id="path914" fill="#fff" stroke-width="1.04"/><g id="g958" transform="translate(0 .018) scale(1.79191)"><path d="M276.69 0c69 0 124.87 56.38 124.87 125.94s-55.9 125.94-124.87 125.94S151.48 200 151.48 126.15C151.48 52.75 207.73 0 276.7 0" id="path8" style="isolation:isolate" fill="#9d9d9c"/><path d="M125.94 0c69.55 0 123.21 54.46 124.48 126.2 1.24 70-54.93 125.67-124.48 125.67a125.94 125.94 0 0 1 0-251.88" id="path10" style="isolation:isolate" fill="#cd1719"/><path style="isolation:isolate;mix-blend-mode:multiply" id="path12" d="M200.78 0A125.94 125.94 0 1 1 74.84 125.94 125.94 125.94 0 0 1 200.78 0" opacity=".2" fill="#1d1d1b"/><g id="g902" style="isolation:isolate"><path id="polygon18" class="f" d="M307.38 129.2v20.05h-6.59v-46.41h19.69v6.24h-13.1v13.95h11.5v6.17z" fill="#fff"/><path id="polygon20" class="f" d="M337.74 140.79l-6.59-19.57v28.03h-6.58v-46.41h6.17l8.8 24.7 8.6-24.7h6.1v46.41h-6.59v-28.03l-6.58 19.57z" fill="#fff"/></g><g id="g898" style="isolation:isolate"><path id="path22" transform="translate(-220.22 -179.62)" d="M378.78 324a11.38 11.38 0 0 1-3.88 3.82 10 10 0 0 1-5.27 1.46 10.89 10.89 0 0 1-5.51-1.49 9.16 9.16 0 0 1-3.64-3.41 13.06 13.06 0 0 1-1.35-3.34 14.46 14.46 0 0 1-.31-3.09v-35.48h6.59v35.46a7.67 7.67 0 0 0 .14 1.56 5.74 5.74 0 0 0 1.07 1.91 3.6 3.6 0 0 0 3.09 1.25 3.41 3.41 0 0 0 3-1.46 5.64 5.64 0 0 0 1-3.27v-35.45h6.58v35.45a14 14 0 0 1-.35 3.16 10 10 0 0 1-1.18 2.89" class="f" fill="#fff"/><path id="path24" transform="translate(-220.22 -179.62)" d="M347 312.73h-6.24l3.12-16.51zm10.19 16.17l-10.33-46.43h-6.46l-9.67 46.43h7l1.86-10h8.55l1.86 10h7.1z" class="f" fill="#fff"/><path id="polygon26" class="f" d="M108.58 102.84v46.41h-6.17L92.08 121v28.25h-6.59v-46.41h6.24l10.26 28.14v-28.14z" fill="#fff"/><path id="path28" transform="translate(-220.22 -179.62)" d="M294.13 317.45a9.52 9.52 0 0 1-.14 1.81 4.72 4.72 0 0 1-.59 1.46 4 4 0 0 1-1.46 1.35 4.37 4.37 0 0 1-2.25.59 3.91 3.91 0 0 1-3.43-1.42 5.64 5.64 0 0 1-1.11-2.26 12.57 12.57 0 0 1-.1-1.53v-23.6a8.57 8.57 0 0 1 .14-1.39 4.91 4.91 0 0 1 .59-1.63 4.13 4.13 0 0 1 1.59-1.46 4.61 4.61 0 0 1 2.32-.66 4.28 4.28 0 0 1 3.6 1.87 3.19 3.19 0 0 1 .73 1.32 12.19 12.19 0 0 1 .1 1.94v23.6zm6.59-.07v-23.6a14.4 14.4 0 0 0-.55-4.09 10.86 10.86 0 0 0-5.79-6.53 11.37 11.37 0 0 0-4.82-1 10.68 10.68 0 0 0-5.06 1.29 11.53 11.53 0 0 0-4 3.51 10.67 10.67 0 0 0-1.56 3.19 13.54 13.54 0 0 0-.45 3.68v23.6a19 19 0 0 0 .21 3 12.5 12.5 0 0 0 1.28 3.4 9.77 9.77 0 0 0 3.81 3.78 11.3 11.3 0 0 0 6 1.67 11 11 0 0 0 8.94-4.72 11.89 11.89 0 0 0 1.63-3.51 15.51 15.51 0 0 0 .38-3.64" class="f" fill="#fff"/><path id="path30" transform="translate(-220.22 -179.62)" d="M267.38 317.43q0 5.3-5 5.3h-3.2v-34h3.41A4.8 4.8 0 0 1 266 290a4.22 4.22 0 0 1 1.4 3.24v24.18zm6.59 0v-24.17a10.3 10.3 0 0 0-3.22-7.62 10.55 10.55 0 0 0-7.66-3.17h-10.48v46.43h10.26a10.56 10.56 0 0 0 8-3.24 11.48 11.48 0 0 0 3.08-8.25" class="f" fill="#fff"/></g><path class="f" d="M251.33 126.08q15 5.32 22.47 15.79 7.47 10.47 7.46 26.59 0 26.3-21.61 42.61t-57.2 16.31q-39.92 0-60.8-17.82-20.88-17.82-21.47-52.32h69.35q0 7.18 2.87 11a9.8 9.8 0 0 0 8.33 3.81 11.21 11.21 0 0 0 8.47-3.45 12.36 12.36 0 0 0 3.3-8.91q0-7.19-5-10.85-5-3.66-14.57-3.67h-.38v-38.18h.38q9.62 0 14.57-3.66 4.95-3.66 5-10.85a12.35 12.35 0 0 0-3.3-8.91 11.2 11.2 0 0 0-8.47-3.45q-5.46 0-8.33 3.81t-2.87 11h-69.35q.6-34.55 21.46-52.33t60.8-17.82q35.61 0 57.21 16.31t21.61 42.61q0 16.1-7.46 26.59-7.46 10.49-22.47 15.79" id="path16" style="isolation:isolate" fill="#fff"/></g></svg>