<svg xmlns="http://www.w3.org/2000/svg" width="330.87" height="450"  xmlns:v="https://vecta.io/nano"><path d="M173.71 232.294c-1.803-.55-5.191-3.029-7.583-5.547-3.476-3.659-5.805-8.246-6.094-12-.085-1.112 0-1.652.828-5.211 5.022-21.594 18.826-88.598 18.353-89.088-.23-.238-4.36 4.692-6.631 7.915l-1.439 2.042-.908-.104c-4.701-.539-8.854-6.917-11.479-17.628-.586-2.39-1.478-6.952-1.38-7.05.029-.028 2.021-.844 4.428-1.811 8.224-3.306 13.965-4.955 20.425-5.867l1.325-.187 1.14-4.247c5.259-19.598 7.885-28.684 10.933-37.831 5.899-17.701 12.415-31.752 19.97-43.06 2.585-3.869 6.721-9.188 9.066-11.66l.91-.959 1.737 1.092c6.314 3.97 10.633 8.472 13.324 13.889 2.388 4.807 3.355 9.259 3.181 14.638-.094 2.901-.555 5.1-1.876 8.944-1.05 3.055-3.538 8.927-3.783 8.927-.131 0-3.083-4.215-4.38-6.252-.654-1.027-1.52-2.548-1.925-3.379l-.736-1.511-.014-8.958-.676.744c-2.422 2.669-6.661 8.704-8.947 12.739-4.62 8.154-8.763 18.329-12.965 31.847-1.06 3.409-6.486 21.826-6.637 22.525-.053.245.019.386.229.451.71.221 2.736.428 4.276.435l1.654.008.744 1.35c.409.742 1.081 1.695 1.491 2.117.687.705.724.786.467 1.003l-2.153 1.816c-3.22 2.718-6.193 4.838-8.737 6.229l-1.117.611-.445 1.911c-3.607 15.471-9.723 46.319-10.417 52.535l-.747 6.369-.845 7.776c-.356 4.177-2.077 15.488-4.645 30.523l-4.2 23.864c-.084.233-3 .273-3.724.052zM13.569 212.815c-.317-.138-1.694-.507-3.061-.821-3.715-.852-4.933-1.527-5.792-3.207-.823-1.609-2.844-8.408-3.998-13.445-.796-3.477-.808-4.683-.08-8.389 2.968-15.107 10.499-47.31 30.855-131.937l7.641-31.847c.154-.682.299-1.264.324-1.291s1.151 1.08 2.503 2.461a134.37 134.37 0 0 0 5.294 5.048c3.234 2.894 3.868 3.578 4.543 4.906.726 1.428.961 2.694 1.167 6.299.289 5.048-.114 9.229-1.612 16.74-1.929 9.673-4.673 20.161-12.554 47.977l-6.792 24.248c-2.808 10.388-5.025 20.18-5.609 24.779-.319 2.51-.359 8.132-.061 8.43.109.109.636.199 1.173.199.927 0 1.201-.116 5.633-2.372 2.562-1.304 7.897-4.144 11.855-6.31l8.355-4.567c3.239-1.756 12.669-5.107 19.059-6.773 4.482-1.168 10.349-2.022 19.736-2.873 3.481-.315 15.699-.476 21.424-.281l4.323.122c.061-.07 5.771-31.01 6.267-33.958.73-4.34 2.185-14.335 3.135-21.545l.804-5.594c.144-.144 2.67.788 3.752 1.384 1.357.747 3.361 2.128 4.963 3.422 2.751 2.221 6.089 5.647 6.821 7.001l.428.792-2.794 18.115c-2.93 18.998-3.416 21.794-4.887 28.124-3.894 16.757-11.972 43.528-15.849 52.527l-.855 1.985-4.957.042c-4.659.04-4.989.023-5.482-.279-1.035-.634-1.873-2.743-1.875-4.719-.001-.725 1.09-5.672 3.98-18.039l4.063-17.323c.147-.503-1.214.103-3.694 1.645l-4.339 2.633c-1.891 1.117-2.133 1.215-2.978 1.216-.506 0-2.148.112-3.649.249-32.667 2.971-58.586 17.68-79.002 44.832-2.261 3.007-7.191 10.224-7.191 10.526 0 .202-.317.159-.99-.133zm230.7-19.1c-17.319-1.651-28.667-11.995-30.181-27.512-.361-3.694-.186-6.538.746-12.172 1.801-10.881 4.62-20.338 8.197-27.497.623-1.247 1.096-2.365 1.05-2.484s-1.018-1.101-2.161-2.181l-2.078-1.965-1.122-2.334c-1.712-3.561-3.708-8.702-3.472-8.938.042-.042 4.095-.455 9.006-.917l9.439-.922c.454-.073.716-.403 2.384-3.016 3.795-5.944 7.943-11.811 10.897-15.414 2.752-3.356 8.327-8.647 13.423-12.738 5.52-4.431 10.322-7.455 13.979-8.805 1.483-.547 1.501-.549 4.384-.537 3.198.013 4.177.195 6.864 1.274 6.949 2.79 12.992 10.806 17.025 22.586 1.348 3.936 2.708 9.395 3.003 12.053.312 2.805-1.707 5.61-5.551 7.714-3.621 1.982-10.271 3.991-18.446 5.571-13.318 2.575-24.882 5.03-31.878 6.767-2.621.651-3.379.987-5.201 2.309-.843.611-2.24 2.964-4.337 7.306-4.683 9.693-7.474 19.628-7.47 26.588.002 4.292 1.051 7.655 3.007 9.642 1.405 1.428 4.091 2.454 8.045 3.074 2.377.373 6.859.252 9.16-.246 8.062-1.746 18.35-6.357 33.815-15.154 6.393-3.637 6.119-3.552 7.515-2.313.641.569.969.744 1.396.744.802 0 3.805-1.59 9.452-5.005 5.553-3.359 8.181-4.837 12.562-7.066 6.892-3.507 11.562-5.285 12.827-4.884.344.109.363.186.274 1.14-.053.563-.33 2.007-.616 3.21-.607 2.553-.828 2.938-3.583 6.239-4.232 5.071-9.678 10.083-19.289 17.75-8.381 6.687-13.811 10.44-22.453 15.523-11.051 6.499-17.093 9.24-24.568 11.143-5.592 1.424-11.162 1.933-16.047 1.468zm17.796-90.896c6.347-1.275 25.207-5.733 25.527-6.033.2-.188-.33-3.237-.83-4.769-.653-2.001-1.501-3.464-2.723-4.698-1.659-1.676-3.462-2.378-5.77-2.247-.902.051-1.277.167-2.054.638-3.12 1.887-8.707 6.775-17.372 15.199l-2.963 2.88 1.238-.112c.681-.062 2.907-.448 4.948-.857zM144.262 50.288c-6.169-3.55-10.318-5.306-14.434-6.11-.812-.158-.951-.239-.949-.546.015-2.329 1.706-23.108 1.88-23.108.243 0 3.77 1.898 5.395 2.903 3.34 2.066 6.606 4.794 9.458 7.902l1.793 1.954v9.337l-.124 9.336c-.068-.001-1.427-.751-3.019-1.668zM29.942 245.097c-6.436 0-11.886 1.4-16.355 4.201-4.41 2.801-7.778 6.674-10.102 11.62S0 271.559 0 277.995c0 6.555 1.015 12.302 3.041 17.248 2.026 4.887 5.155 8.702 9.386 11.444 4.291 2.682 9.709 4.025 16.265 4.025 3.397 0 6.468-.271 9.21-.807 2.186-.428 4.394-1.098 6.617-1.904l-1.433-10.938c-1.864.582-3.676 1.105-5.367 1.489-2.562.596-5.155.893-7.777.893-5.602 0-9.683-1.848-12.245-5.543-2.503-3.754-3.752-9.028-3.752-15.821 0-6.734 1.369-12.033 4.11-15.906s6.703-5.816 11.887-5.816c2.324 0 4.683.422 7.066 1.256 1.969.672 3.908 1.465 5.838 2.331l1.347-12.188a49.18 49.18 0 0 0-4.775-1.41c-3.158-.834-6.318-1.251-9.477-1.251zm35.181 8.876l-.262 6.723-.349 4.54h.699c1.513-2.445 3.463-4.22 5.85-5.326s5.035-1.659 7.946-1.659c5.181 0 9.314 1.397 12.399 4.191 3.143 2.736 4.715 7.16 4.715 13.272v34.052H83.11v-30.821c0-6.869-2.561-10.303-7.684-10.303-3.9 0-6.607 1.368-8.12 4.104-1.455 2.678-2.183 6.549-2.183 11.613v25.408h-13.01V243.81l13.01-.615zm60.1 3.271q9.407 0 14.367 4.526 5.045 4.432 5.045 13.673v34.323h-8.894l-2.48-6.978h-.342q-2.993 4.149-6.328 6.035-3.335 1.886-9.15 1.886-6.243 0-10.348-3.96-4.105-4.055-4.105-12.353 0-8.204 5.217-12.07 5.217-3.96 15.65-4.338l8.124-.283v-2.263q0-4.055-1.967-5.941-1.881-1.886-5.302-1.886-3.421 0-6.67 1.132-3.25 1.037-6.499 2.64l-4.19-9.524q3.763-2.169 8.295-3.395 4.618-1.226 9.578-1.226zm1.796 28.854q-6.157.189-8.552 2.452-2.394 2.263-2.394 5.941 0 3.206 1.71 4.62 1.71 1.32 4.447 1.32 4.105 0 6.927-2.64 2.822-2.735 2.822-7.638v-4.243zm53.699-28.76q7.545 0 12.09 4.526 4.544 4.432 4.544 14.333v33.569h-12.776v-30.08q0-5.563-1.801-8.298-1.801-2.829-5.745-2.829-5.831 0-7.974 4.432-2.144 4.338-2.144 12.541v24.234h-12.776v-51.485h9.775l1.715 6.601h.686q2.229-3.96 6.088-5.752 3.944-1.792 8.317-1.792zm53.401 0q7.563 0 12.118 4.526 4.555 4.432 4.555 14.333v33.569h-12.806v-30.08q0-5.563-1.805-8.298-1.805-2.829-5.758-2.829-5.844 0-7.993 4.432-2.149 4.338-2.149 12.541v24.234h-12.806v-51.485h9.798l1.719 6.601h.688q2.235-3.96 6.102-5.752 3.954-1.792 8.337-1.792zm46.982 0q9.867 0 15.63 6.129 5.763 6.035 5.763 17.256v6.789h-30.737q.175 5.941 3.231 9.335 3.144 3.395 8.645 3.395 4.628 0 8.383-.943 3.755-1.037 7.772-3.112v10.844q-3.493 1.886-7.422 2.735-3.842.943-9.343.943-7.16 0-12.661-2.829-5.501-2.923-8.645-8.769-3.144-5.846-3.144-14.71 0-9.052 2.794-14.993 2.882-6.035 7.946-9.052 5.065-3.017 11.788-3.017zm.087 9.995q-3.755 0-6.287 2.64-2.445 2.64-2.882 8.204h18.25q-.087-4.715-2.27-7.732-2.183-3.112-6.811-3.112zm43.405 42.433h-13.475v-66.001l13.475-.612z" fill="#002654"/><path d="M0 347.129h329.944V450H0z" fill="#e7000e" paint-order="stroke fill markers"/><path d="M41.01 368.562c8.828 0 15.328 1.507 19.5 4.52 4.233 3.014 6.349 7.591 6.349 13.732 0 2.786-.574 5.231-1.723 7.335-1.088 2.047-2.57 3.81-4.444 5.288a26.46 26.46 0 0 1-5.895 3.497l15.78 26.525H55.339L43.186 406.09H35.84v23.369H22.145v-60.897zm-.998 10.576H35.84v16.461h4.444c4.535 0 7.77-.711 9.705-2.132 1.995-1.421 2.993-3.525 2.993-6.311 0-2.9-1.058-4.947-3.174-6.141-2.056-1.251-5.321-1.876-9.795-1.876zm56.84.166q9.219 0 14.081 4.318 4.945 4.228 4.945 13.044v32.746h-8.717l-2.431-6.657h-.335q-2.933 3.958-6.202 5.757-3.269 1.799-8.968 1.799-6.118 0-10.141-3.778-4.023-3.868-4.023-11.785 0-7.827 5.113-11.515 5.113-3.778 15.338-4.138l7.962-.27v-2.159q0-3.868-1.928-5.667-1.844-1.799-5.196-1.799-3.353 0-6.537 1.08-3.185.99-6.37 2.519l-4.107-9.086q3.688-2.069 8.13-3.239 4.526-1.169 9.387-1.169zm1.76 27.528q-6.035.18-8.381 2.339-2.347 2.159-2.347 5.667 0 3.059 1.676 4.408 1.676 1.259 4.358 1.259 4.023 0 6.789-2.519 2.766-2.609 2.766-7.287v-4.048zm42.452 23.48c-5.174 0-9.41-2.131-12.708-6.392-3.241-4.321-4.862-10.653-4.862-18.996 0-8.403 1.649-14.765 4.947-19.086s7.619-6.482 12.964-6.482c3.355 0 6.112.69 8.273 2.071s3.866 3.091 5.117 5.132h.426c-.171-.96-.37-2.341-.597-4.141-.227-1.861-.341-3.751-.341-5.672v-10.31l12.708-.641v63.617h-9.723l-2.473-6.392h-.512c-1.251 2.041-2.928 3.781-5.032 5.222-2.104 1.38-4.833 2.071-8.188 2.071zm4.435-10.713c3.525 0 5.999-1.08 7.42-3.241 1.421-2.221 2.161-5.522 2.218-9.903v-1.44c0-4.802-.711-8.463-2.132-10.984-1.365-2.521-3.923-3.781-7.676-3.781-2.786 0-4.975 1.29-6.567 3.871-1.592 2.521-2.388 6.182-2.388 10.984s.796 8.433 2.388 10.893c1.592 2.401 3.838 3.601 6.738 3.601zm40.416-55.544c1.876 0 3.497.455 4.862 1.365 1.365.853 2.047 2.473 2.047 4.861 0 2.331-.682 2.612-2.047 3.522s-2.985 1.365-4.862 1.365c-1.933 0-3.582-.455-4.947-1.365-1.308-.91-1.962-1.191-1.962-3.522 0-2.388.654-4.009 1.962-4.861 1.365-.91 3.014-1.365 4.947-1.365zm6.311 16.162v49.241h-12.708v-48.785zm55.222 24.674q0 12.253-6.141 18.92-6.056 6.667-16.546 6.667-6.482 0-11.599-2.973-5.032-2.973-7.932-8.649-2.9-5.766-2.9-13.965 0-12.253 6.056-18.83 6.056-6.577 16.631-6.577 6.567 0 11.599 2.973 5.032 2.973 7.932 8.649 2.9 5.586 2.9 13.784zm-32.154 0q0 7.298 2.218 11.082 2.303 3.694 7.42 3.694 5.032 0 7.25-3.694 2.303-3.784 2.303-11.082 0-7.298-2.303-10.901-2.218-3.694-7.335-3.694-5.032 0-7.335 3.694-2.218 3.604-2.218 10.901z" fill="#fff"/></svg>