<?xml version="1.0" encoding="UTF-8" standalone="no"?>
<!-- Generator: Adobe Illustrator 21.0.0, SVG Export Plug-In . SVG Version: 6.00 Build 0)  -->

<svg
   xmlns:dc="http://purl.org/dc/elements/1.1/"
   xmlns:cc="http://creativecommons.org/ns#"
   xmlns:rdf="http://www.w3.org/1999/02/22-rdf-syntax-ns#"
   xmlns:svg="http://www.w3.org/2000/svg"
   xmlns="http://www.w3.org/2000/svg"
   xmlns:sodipodi="http://sodipodi.sourceforge.net/DTD/sodipodi-0.dtd"
   xmlns:inkscape="http://www.inkscape.org/namespaces/inkscape"
   version="1.1"
   id="Layer_1"
   x="0px"
   y="0px"
   viewBox="0 0 600.04132 330.43979"
   xml:space="preserve"
   sodipodi:docname="rock antenne.svg"
   width="600.04132"
   height="330.43979"
   inkscape:version="0.92.3 (unknown)"><metadata
   id="metadata81"><rdf:RDF><cc:Work
       rdf:about=""><dc:format>image/svg+xml</dc:format><dc:type
         rdf:resource="http://purl.org/dc/dcmitype/StillImage" /><dc:title></dc:title></cc:Work></rdf:RDF></metadata><defs
   id="defs79" /><sodipodi:namedview
   pagecolor="#ffffff"
   bordercolor="#666666"
   borderopacity="1"
   objecttolerance="10"
   gridtolerance="10"
   guidetolerance="10"
   inkscape:pageopacity="0"
   inkscape:pageshadow="2"
   inkscape:window-width="1920"
   inkscape:window-height="1013"
   id="namedview77"
   showgrid="false"
   fit-margin-top="0"
   fit-margin-left="0"
   fit-margin-right="0"
   fit-margin-bottom="0"
   inkscape:pagecheckerboard="true"
   inkscape:zoom="0.86974134"
   inkscape:cx="396.98102"
   inkscape:cy="287.98842"
   inkscape:window-x="0"
   inkscape:window-y="0"
   inkscape:window-maximized="1"
   inkscape:current-layer="Layer_1" />
<style
   type="text/css"
   id="style2">
	.st0{fill:#004898;}
	.st1{fill:#FFFFFF;}
	.st2{clip-path:url(#SVGID_2_);}
	.st3{fill:#E6001E;}
</style>
<path
   class="st0"
   d="M 596.27136,301.83498 V 28.65194 C 532.08725,18.284462 419.27024,3.6286173 296.88687,3.6286173 175.49313,3.6286173 66.16336,18.095962 3.5814924,28.46344 v 273.41867 c 64.1841136,10.36748 177.0482476,25.11757 299.6201176,25.11757 118.14212,-0.0942 229.35689,-14.79722 293.06975,-25.1647"
   id="path4"
   inkscape:connector-curvature="0"
   style="display:inline;fill:#004898;stroke-width:0.47124901" /><path
   style="display:inline;fill:#ffffff;stroke-width:0.47124901"
   d="m 192.88281,200.46875 v 16.58789 h 23.75 v 53.29883 h 18.42578 v -53.29883 h 23.65625 v -16.58789 z m -132.845702,0.0469 -25.964843,69.79297 h 18.707031 l 4.099609,-11.26367 h 28.888672 l 4.19336,11.26367 h 18.708983 l -25.964843,-69.793 z m 57.351562,0 v 69.79297 h 18.42578 V 229.4512 l 3.58008,5.4668 28.32227,35.39062 h 15.88086 0.0488 v -69.793 H 165.2207 v 41.94141 l -2.82812,-4.33398 -29.3125,-37.60743 z m 222.85352,0 v 69.79297 h 18.42578 V 229.4512 l 3.58203,5.4668 28.32031,35.39062 H 406.5 v -69.79297 h -18.42578 v 41.94141 l -2.82813,-4.33398 -29.3125,-37.60743 z m 80.67773,0 v 69.79297 H 439.3457 V 229.4512 l 3.58203,5.4668 28.32032,35.39062 h 15.92968 v -69.79297 h -18.42578 v 41.94141 l -2.82812,-4.33398 -29.3125,-37.60743 z m -152.02539,0.0957 v 69.74414 H 327.4707 V 253.7676 h -40.19726 v -10.03711 h 22.66797 V 227.1426 h -22.66797 v -9.94336 h 40.19726 v -16.58789 z m 232.13672,0 v 69.74414 h 58.625 V 253.76758 H 519.45703 V 243.73047 H 542.125 v -16.58789 h -22.66797 v -9.94336 h 40.19922 v -16.58789 z m -429.63672,15.6914 8.529297,26.25 H 62.76953 Z"
   id="path8"
   inkscape:label="antenne"
   inkscape:connector-curvature="0" /><path
   style="display:inline;fill:#e6001e;stroke-width:0.47124901"
   clip-path="none"
   d="m 296.88672,7.162109 c -116.25713,0 -221.205007,13.10093 -289.7246115,24.269532 V 171.91211 H 592.68945 V 31.667969 C 521.8136,20.310868 413.89785,7.162109 296.88672,7.162109 Z"
   id="rect836"
   inkscape:connector-curvature="0"
   sodipodi:nodetypes="sccccs" />
			<path
   class="st1"
   d="m 303.20161,330.4398 c -119.27312,0 -229.121267,-13.71335 -300.1384915,-25.11757 L 0,304.85098 V 25.353197 L 3.0631185,24.834823 C 71.724098,13.477722 178.50912,0 296.98112,0 416.11287,0 525.86676,13.619097 596.97823,25.117572 l 3.06312,0.471249 V 304.94523 l -3.06312,0.47125 C 526.38513,316.8207 418.23349,330.4398 303.20161,330.4398 Z M 7.1629848,298.72474 c 58.9061252,9.37786 173.0897552,24.5992 296.0386252,24.5992 112.95838,0 219.22503,-13.14785 289.48826,-24.50495 V 31.667933 C 521.81402,20.310832 413.898,7.1629848 296.88687,7.1629848 180.62974,7.1629848 75.682589,20.263707 7.1629848,31.432309 Z"
   id="path50"
   inkscape:connector-curvature="0"
   style="display:inline;fill:#ffffff;stroke-width:0.47124901" /><path
   style="display:inline;fill:#ffffff;stroke-width:0.47124901"
   d="m 251.45898,41.894531 c -30.15994,0 -54.57031,24.457502 -54.57031,54.570313 0,30.159936 24.4575,54.570316 54.57031,54.570316 30.11281,0 54.57032,-24.45751 54.57032,-54.570316 0,-30.159936 -24.45751,-54.570313 -54.57032,-54.570313 z m 116.16211,4.335938 c -28.55769,0 -50.84765,22.383559 -50.84765,50.234375 0,27.756566 22.28996,50.234376 50.84765,50.234376 14.46734,0 27.47425,-6.03155 36.38086,-15.55078 l -18.80273,-16.72852 c -4.42974,4.90099 -10.46177,8.00999 -17.67188,7.96289 -14.32597,0 -24.83593,-11.40375 -24.83593,-25.871091 0,-14.467345 10.50996,-25.871094 24.83593,-25.871094 7.21011,0 13.10127,3.015526 17.57813,7.822266 L 404.00195,61.78125 C 395.09534,52.26202 382.08843,46.230469 367.62109,46.230469 Z M 97.972655,48.255859 V 144.7207 h 25.447265 v -36.0039 h 22.47852 l 11.78125,36.0039 h 27.00195 l -13.99609,-40.05664 c 8.9066,-5.136607 14.13812,-14.843864 14.23242,-25.871091 0,-16.54084 -11.59225,-30.53711 -29.92383,-30.53711 z m 318.046875,0 v 96.371091 h 25.44727 v -40.95312 l 34.16406,41.04687 h 32.79883 l -43.16602,-49.339841 43.02539,-47.125 H 475.49023 L 441.4668,87.558594 V 48.255859 Z M 123.41992,71.158203 h 30.72656 c 4.38261,0 7.63282,3.063651 7.63282,7.634766 0,4.571115 -3.29733,7.209734 -7.63282,7.068359 h -30.72656 z"
   id="path54"
   inkscape:connector-curvature="0" /><path
   class="st0"
   d="m 302.82461,69.509228 -37.88842,5.042364 -9.37786,-46.606526 -20.0752,50.565018 -35.48505,4.80674 26.10719,24.269326 -25.44744,57.1625 50.18801,-39.58492 32.04494,13.85473 -7.82274,-31.76219 z"
   id="path70"
   inkscape:connector-curvature="0"
   style="display:inline;fill:#004898;stroke-width:0.47124901" />
</svg>