<svg xmlns="http://www.w3.org/2000/svg" width="494" height="91.094"><path d="M5 5v81h12V15.775h20.5a14.97 14.97 0 0 1 15 15c0 8.3-6.695 14.71-15 15H20L48 86h16L41.594 56.75a25.81 25.81 0 0 0 22.438-25.656v-.187C64.03 16.548 52.483 5 38.125 5h-4.28zm62.5 0v11h15.313v70h11V16H109.5V5zm50.313 0v81H160.5v-9h-31.687V5z" fill="#d2d2d2"/><path d="M157 5v81h19V34l32 52h18V5h-19v52L175 5h-18zm80 0v81h21V5h-21zm29 0v17.5h16.5V86h21V22.5H320V5h-54zm61 0v81l21 .094V23h21.156c6.37 0 11.5 5.13 11.5 11.5s-5.13 11.5-11.5 11.5H350l29 40h24l-21.72-26.844C393.2 56.147 402 45.39 402 32.5A27.44 27.44 0 0 0 374.5 5H327zm120 0c-23.196 0-42 18.132-42 40.5S423.804 86 447 86s42-18.132 42-40.5S470.196 5 447 5zm0 17.906c12.15 0 22 10.11 22 22.563S459.15 68 447 68s-22-10.08-22-22.53 9.85-22.562 22-22.562z" fill="#bae637"/></svg>
