<svg xmlns="http://www.w3.org/2000/svg" width="653.469" height="91.25" xmlns:v="https://vecta.io/nano"><path d="M513.813 5v81.25h11.5V51.375h34.5V86.25h11.5V5h-11.5v34.875h-34.5V5h-11.5zm66.5 0v81.25h30.78c20.71 0 37.375-18.12 37.375-40.625S631.803 5 611.094 5h-30.78zM5 5.063v81h12v-70.22h20.5a14.97 14.97 0 0 1 15 15c0 8.3-6.695 14.71-15 15H20l28 40.22h16l-22.406-29.25a25.81 25.81 0 0 0 22.438-25.656v-.187c0-14.358-11.548-25.906-25.906-25.906H5zm62.5 0v11h15.313v70h11v-70H109.5v-11h-42zm50.313 0v81H160.5v-9h-31.687v-72h-11zm474 10.813h18.156c15.17 0 27.375 13.264 27.375 29.75s-12.205 29.75-27.375 29.75h-18.156v-59.5z" fill="#d2d2d2"/><path d="M157 5.063v81h19v-52l32 52h18v-81h-19v52l-32-52h-18zm80 0v81h21v-81h-21zm29 0v17.5h16.5v63.5h21v-63.5H320v-17.5h-54zm61 0v81l21 .094V23.063h21.156c6.37 0 11.5 5.13 11.5 11.5s-5.13 11.5-11.5 11.5H350l29 40h24L381.28 59.22C393.2 56.2 402 45.452 402 32.563a27.44 27.44 0 0 0-27.5-27.5H327zm120 0c-23.196 0-42 18.132-42 40.5s18.804 40.5 42 40.5 42-18.132 42-40.5-18.804-40.5-42-40.5zm0 17.906c12.15 0 22 10.11 22 22.563s-9.85 22.53-22 22.53-22-10.08-22-22.53 9.85-22.562 22-22.562z" fill="#bae637"/></svg>