<svg xmlns="http://www.w3.org/2000/svg" width="800" height="140"><g transform="scale(.8)"><path d="M0 0h312.8v175H0z" fill="#2d1fe7"/><path d="M184.2 100.1c21-4 28.7-15.9 28.7-29.9 0-8.7-2.9-16.5-10.2-22.2s-19.1-9.2-36.8-9.2H89.5v94.8h22.3v-32h43.6l37.8 32h30.5zm-72.5-16.3V57.2h57.1c16.1 0 21.7 6 21.7 13.3 0 3.7-1.2 7-4.5 9.4s-8.7 3.9-17.3 3.9z" fill-rule="evenodd" fill="#fff"/><path d="M343.6 0h312.8v175H343.6z" fill="#a118b6"/><path d="M511.3 133.6H489V58.2h-54.7V38.8h131.6v19.4h-54.6z" fill-rule="evenodd" fill="#fff"/><path d="M687.2 0H1000v175H687.2z" fill="#fc0f92"/><path d="M784.5 38.8h22.2V116h96v17.6H784.5z" fill-rule="evenodd" fill="#fff"/></g></svg>