<svg xmlns="http://www.w3.org/2000/svg" width="800" height="176.125" viewBox="0 0 211.667 46.6"><defs><linearGradient id="A" x1="-80.811" y1="123.825" x2="-81.356" y2="108.217" gradientUnits="userSpaceOnUse" spreadMethod="pad"><stop offset="0" stop-color="#fff"/><stop offset=".515" stop-opacity=".25" stop-color="#fff"/></linearGradient><linearGradient id="B" x1="40.274" y1="120.409" x2="39.463" y2="97.201" gradientUnits="userSpaceOnUse" spreadMethod="pad"><stop offset="0" stop-color="#fff"/><stop offset=".515" stop-opacity=".25" stop-color="#fff"/></linearGradient><linearGradient id="C" x1="-40.434" y1="122.595" x2="96.806" y2="122.595" gradientUnits="userSpaceOnUse" spreadMethod="pad"><stop offset="0" stop-color="#00e1b9"/><stop offset="1" stop-color="#00abd7"/></linearGradient></defs><g transform="translate(114.861 -99.296)"><path d="M-37.326 99.296a3.11 3.11 0 0 0-3.108 3.108v40.384a3.11 3.11 0 0 0 3.108 3.108H93.698a3.11 3.11 0 0 0 3.108-3.108v-40.384a3.11 3.11 0 0 0-3.108-3.108z" fill="url(#C)"/><path d="M-17.09 113.526q0 1.129-.511 1.491-.511.341-1.682.341-2.364 0-4.28 1.171-1.916 1.171-3.173 3.726v12.393q0 .681-.447 1.043-.426.362-1.554.362-.49 0-.98-.064-.468-.043-.767-.128v-21.975q.298-.085.767-.128.49-.064.98-.064 1.129 0 1.554.383.447.383.447 1.043v3.066q3.301-5.025 9.455-4.344.021.085.043.213.149.639.149 1.469zm5.111 7.772h13.5q-.128-2.875-1.831-4.77-1.703-1.895-4.621-1.895-2.534 0-4.536 1.704-2.002 1.704-2.513 4.961zm17.014 2.939h-17.014q.426 3.194 2.47 4.919 2.044 1.704 5.302 1.704 2.811 0 4.727-.767.703-.298 1.065-.405.383-.106.66-.106.788 0 1.235.703.447.681.319 2.172-1.491.681-3.641 1.256-2.129.575-4.493.575-5.153 0-8.326-3.151-3.151-3.173-3.151-8.326 0-4.94 3.194-8.134 3.194-3.215 7.687-3.215 3.386 0 5.622 1.554 2.257 1.533 3.364 3.961 1.129 2.406 1.129 5.047 0 .98-.149 2.215zm8.537-5.324v7.9q2.449 4.174 6.899 4.174 3.237 0 5.345-2.236 2.108-2.257 2.108-5.856 0-3.641-2.108-5.898-2.108-2.257-5.345-2.257-4.45 0-6.899 4.174zM9.867 141.08v-29.13q.256-.106.724-.17.49-.085.958-.085 2.023.021 2.023 1.725v1.831q1.235-1.704 3.173-2.747 1.959-1.043 4.408-1.043 2.811 0 5.217 1.363 2.406 1.363 3.876 3.918 1.491 2.555 1.491 6.154 0 3.556-1.491 6.111-1.469 2.555-3.876 3.918-2.406 1.363-5.217 1.363-2.449 0-4.408-1.043-1.938-1.065-3.173-2.768v9.369q0 .66-.468 1.043-.468.383-1.597.383-.468 0-.937-.064-.447-.064-.703-.128zm26.648-7.197v-28.449q0-.66.447-1.043.447-.383 1.576-.383.468 0 .958.064.49.043.788.128v28.449q0 .681-.447 1.043-.447.362-1.576.362-.49 0-.98-.064-.468-.043-.767-.106zm23.44-6.41v-4.152q-3.194-.256-5.813.021-2.598.277-4.174 1.256-1.576.98-1.576 2.875 0 1.448 1.15 2.555 1.171 1.107 3.343 1.107 4.387 0 7.07-3.663zm3.748-7.687v14.097q-.277.064-.745.106-.447.064-.937.064-2.023 0-2.023-1.405v-1.938q-2.896 3.577-7.772 3.577-3.663 0-5.622-2.023-1.959-2.044-1.959-4.642 0-3.982 4.003-5.728 4.025-1.767 11.307-1.278v-.788q0-2.704-1.065-3.897-1.065-1.214-4.195-1.214-1.299 0-2.811.277-1.512.277-2.619.618-.937.298-1.597.298-.788 0-1.214-.703-.426-.703-.17-2.129 1.725-.639 4.003-1.129 2.278-.49 4.599-.49 4.834 0 6.814 2.129 2.002 2.129 2.002 6.197zm10.623 21.486q-1.278 0-2.47-.618l3.705-7.772-9.689-20.549q.979-.639 2.385-.639 1.512 0 2.065 1.214l7.261 15.672 7.006-15.672q.319-.703.745-.958.447-.256 1.214-.256 1.341 0 2.406.596l-12.691 27.682q-.277.639-.724.958-.426.341-1.214.341z" fill="#fff"/><path d="M-37.326 99.296a3.11 3.11 0 0 0-3.108 3.108v22.402c0-1.741 1.21-2.359 2.532-2.406l132.389-4.621c1.167-.041 2.316-.912 2.319-2.362v-13.013a3.11 3.11 0 0 0-3.108-3.108z" opacity=".4" fill="url(#B)"/><path d="M-94.073 127.259c0 4.004-2.615 6.918-7.931 7.491-3.85.41-9.419-.074-12.071-.376-.086-.428-.16-.967-.16-1.395 0-3.487 1.882-4.291 3.653-4.291 1.845 0 4.746.323 6.893.323 2.381 0 3.099-.804 3.099-1.574 0-1.001-.949-1.411-2.794-1.771l-5.048-.964c-4.192-.804-6.428-3.699-6.428-6.773 0-3.736 2.649-6.866 7.861-7.436 3.94-.431 8.738.052 11.369.376.089.444.145.875.145 1.34 0 3.484-1.845 4.235-3.619 4.235-1.358 0-3.471-.249-5.889-.249-2.455 0-3.474.678-3.474 1.5 0 .878.967 1.235 2.507 1.503l4.817.893c4.941.912 7.072 3.718 7.072 7.168m8.643 4.291c0 2.144-.844 3.379-5.033 3.379-.554 0-1.038-.037-1.503-.108V106.4c0-2.162.733-4.417 4.959-4.417.536 0 1.075.055 1.577.163zm17.126 10.993c.554.283 1.682.625 3.099.662 2.433.052 3.761-.878 4.743-3.059l13.054-29.064c-.536-.286-1.737-.607-2.704-.625-1.682-.034-3.94.305-5.372 3.736l-4.226 9.955-8.289-13.476c-.536-.163-1.845-.394-2.794-.394-2.935 0-4.565 1.072-6.268 2.914l-8.058 8.794 6.484 10.189c1.198 1.857 2.775 2.806 5.335 2.806 1.685 0 3.08-.394 3.724-.696l-7.805-11.745 5.532-5.862 9.077 14.227z" fill="#00e1b9"/><path d="M-87.006 101.985c-4.226 0-4.959 2.255-4.959 4.417v19.476c0-.782.601-1.611 1.608-1.648l3.271-.114c.647-.022 1.642-.459 1.654-1.66v-20.31c-.502-.108-1.038-.16-1.574-.16zm16.211 8.295c-2.935 0-4.565 1.072-6.265 2.914l-8.058 8.794.644 1.01c.274.376.829 1.001 1.907.961l4.593-.16c1.001-.037 1.636.391 2.03.903l-1.439-2.162 5.532-5.861 3.718 5.828c.678.878 1.685.893 1.904.884l5.279-.185c.339-.009.73.176 1.026.594l-8.076-13.128c-.536-.16-1.842-.391-2.794-.391zm-32.739.043l-3.474.169h.006c-5.209.573-7.858 3.699-7.858 7.439 0 1.916.869 3.767 2.544 5.079 1.272.835 2.563 1.158 3.866 1.383 1.072.185 3.551.351 5.39.28l5.748-.197c2.108-.072 3.271 1.689 3.205 3.492.029-.234.029-.471.029-.71 0-3.447-2.132-6.253-7.075-7.164l-4.814-.896c-1.543-.265-2.507-.625-2.507-1.5 0-.822 1.02-1.503 3.474-1.503 2.418 0 4.528.249 5.889.249 1.771 0 3.616-.748 3.616-4.235 0-.462-.052-.893-.142-1.34-1.891-.231-4.894-.545-7.898-.545zm9.427 17.645c0 .029-.005.032-.005.041a.18.18 0 0 1 0 .074c.005-.038.005-.077.005-.115zm43.779-17.513c-1.657 0-3.789.447-5.162 3.736l-4.121 9.715v.006c0-.012.268-.764 1.063-.792l4.368-.151c1.321-.046 1.851-.961 1.99-1.248l4.78-10.639c-.539-.286-1.737-.607-2.704-.628h-.209z" opacity=".4" fill="url(#A)"/></g></svg>