<svg xmlns="http://www.w3.org/2000/svg" width="571.03" height="450" viewBox="-252.44 -223.92 571.03 450" fill="#f9e200"><path d="M24.447-223.92c-.597 0-1.194.054-1.784.164l-71.945 13.342c-.738.188-1.312.749-1.496 1.872l-3.363 14.596-27.696 7.485c-.758.186-.942.748-1.126 1.497l-3.733 15.344-26.956 7.111c-.738.187-1.127.748-1.496 2.244-2.237 11.601-3.363 23.953-3.363 36.302 0 107.78 56.129 201.34 139.96 257.11 1.124.74 2.247 1.498 2.995 1.498s1.871-.758 2.993-1.498C79.549 98.473 120.953 49.2 144.828-9.014v-.827h-12.967v-13.367h18.383c11.104-31.496 17.16-65.362 17.16-100.76 0-12.348-1.124-24.701-3.369-36.302-.375-1.497-.749-2.058-1.495-2.244l-26.946-7.111-3.744-15.344c-.186-.749-.373-1.31-1.124-1.497l-27.692-7.485-3.369-14.596c-.187-1.123-.749-1.683-1.498-1.872L26.224-223.76a9.75 9.75 0 0 0-1.781-.164zM12.85-180.592c.749 0 1.121.373 1.121 1.121v263.03h-.001c0 .758-.747 1.126-1.494.387C-8.104 60.371-21.957 31.549-31.307.126l-14.208 8.98c-3.749 2.619-6.744 1.498-8.977-2.618-19.086-33.674-31.429-89.051-32.556-127.96 0-1.872.372-2.994 1.866-4.864 4.861-5.987 10.847-11.973 16.462-17.212 1.128-1.122 2.256-.373 2.256 1.496 0 47.894 8.22 92.419 21.321 121.6 1.128 2.244 2.236 2.244 3.733 1.123l4.12-2.619c-7.852-34.798-12.344-81.193-11.216-134.7 0-1.869.37-2.618 1.496-3.366 4.103-2.62 11.586-6.735 17.96-9.354 1.866-.749 2.236-.375 2.236 1.124-1.128 77.824 5.247 131.7 19.088 174.73.372 1.121 1.498.748 1.498-.373-.751-15.715-.751-29.56-.751-46.398l-.747-134.32c0-1.497.372-2.245 1.869-2.619 6.362-1.497 11.973-2.618 18.708-3.367zm23.197 0c50.138 3.367 82.316 24.32 82.316 54.626 0 12.723-4.863 25.071-13.094 34.05 16.461 4.49 22.822 16.836 22.822 33.301 0 29.184-21.326 77.45-91.67 142.56-.746.739-1.496.371-1.496-.387v-263.03c0-.748.374-1.122 1.123-1.122zm20.203 24.694v78.2c28.811-16.836 40.035-33.674 40.035-49.389 0-14.968-17.213-27.314-40.035-28.811zm37.043 84.934c-7.858 0-14.966 2.994-37.042 18.709v84.562c38.166-42.657 49.017-71.841 49.017-86.809 0-10.476-4.867-16.462-11.975-16.462z"/><path d="M175.68-63.396a66.655 66.655 0 1 0 0 133.311 66.655 66.655 0 1 0 0-133.311zm-43.818 40.189h52.977l9.258 34.548 9.258-34.548h16.144l-14.182 52.932h-22.438L172.277-9.84h-9.625v39.565H144.83V-9.84h-12.967z" paint-order="fill markers stroke"/><path d="M-199.2 92.98c-37.345 0-53.236 36.14-53.236 66.637 0 35.071 16.322 66.204 51.378 66.453 13.825.098 23.445-.974 32.097-8.398l-6.148-31.899s-10.95 7.796-17.282 7.796c-8.117 0-14.405-3.829-18.865-9.306-4.46-5.599-6.69-13.814-6.69-24.646s2.141-18.987 6.423-24.464c4.371-5.477 10.747-10.214 19.132-10.214 6.422 0 12.871 3.941 17.777 5.767l5.653-29.327c-11.516-8.337-19.574-8.398-30.24-8.398zm73.817-.001c-8.831 0-16.83 2.799-23.995 8.398-7.082 5.599-12.705 13.45-16.871 23.552-4.083 10.102-6.125 21.664-6.125 34.687s2.042 24.585 6.125 34.687c4.166 9.98 9.789 17.769 16.871 23.368 7.165 5.599 15.163 8.398 23.995 8.398 8.748 0 16.665-2.799 23.747-8.398 7.165-5.599 12.788-13.388 16.871-23.368 4.082-10.102 6.125-21.664 6.125-34.687s-2.042-24.585-6.125-34.687-9.706-17.954-16.871-23.552c-7.082-5.599-14.998-8.398-23.747-8.398zm57.666 2.739v127.61h28.529v-47.537l21.506 25.362h12.055l20.944-25.362v47.537h29.09v-66.555c-5.378 4.004-10.854 7.89-16.449 11.613-1.316.868-2.634 1.756-3.512 1.756s-2.193-.888-3.512-1.756c-9.704-6.456-19.076-13.36-28.115-20.652l-4.472 10.626-9.755-22.694c-13.855-12.354-26.775-25.704-38.625-39.951zm176.64 0c-14.547 17.488-30.713 33.616-48.234 48.215v79.398h71.246V196.13l-43.141.459v-23.916l30.788-.459v-25.377l-30.788.459V123.38l43.141-.459V95.718zm32.403 0v127.61h34.273c16.812 0 29.956-5.416 39.43-16.248 9.474-10.954 14.211-27.019 14.211-48.196 0-12.78-2.181-23.917-6.547-33.411-4.273-9.615-10.403-16.978-18.391-22.09s-17.324-7.668-28.006-7.668zm76.715 0l33.926 79.051v48.563h32.699v-48.563l33.926-79.051H282.98l-14.664 39.689-14.664-39.689zm-47.04 29.491c19.346 0 26.791 13.049 26.791 33.678s-5.739 33.866-26.791 33.866zm-296.39.598c8.335-.002 15.092 15.063 15.092 33.647s-6.757 33.646-15.092 33.644-15.09-15.063-15.09-33.644 6.756-33.646 15.09-33.647z"/></svg>