<svg xmlns="http://www.w3.org/2000/svg" width="385.95" height="450" viewBox="-252.44 -223.92 385.95 450" fill="#0071cd"><path d="M-85.71-223.92c-.6 0-1.201.054-1.795.165l-72.387 13.423c-.743.19-1.32.753-1.505 1.883l-3.383 14.685-27.866 7.531c-.762.188-.948.753-1.133 1.506l-3.756 15.438-27.121 7.154c-.743.188-1.134.753-1.505 2.258-2.251 11.673-3.383 24.1-3.383 36.525 0 108.44 56.473 202.57 140.82 258.69 1.131.745 2.26 1.507 3.014 1.507s1.882-.763 3.011-1.507c52.431-34.886 94.089-84.461 118.11-143.03v-.832H22.363v-13.449h18.496c11.172-31.689 17.266-65.763 17.266-101.38 0-12.424-1.131-24.852-3.389-36.525-.378-1.506-.753-2.071-1.504-2.258l-27.111-7.154-3.767-15.438c-.187-.753-.375-1.318-1.131-1.506l-27.862-7.531-3.389-14.685c-.188-1.13-.754-1.694-1.507-1.883l-72.385-13.423a9.81 9.81 0 0 0-1.792-.165zm-11.668 43.594c.753 0 1.128.375 1.128 1.128v264.64h-.001c0 .763-.752 1.133-1.503.39-20.706-23.719-34.644-52.718-44.051-84.335l-14.295 9.035c-3.772 2.636-6.785 1.507-9.032-2.635-19.203-33.881-31.622-89.597-32.756-128.75 0-1.883.374-3.013 1.877-4.894 4.89-6.023 10.914-12.046 16.563-17.318 1.135-1.129 2.269-.375 2.269 1.505 0 48.188 8.27 92.986 21.452 122.35 1.135 2.258 2.25 2.258 3.756 1.13l4.145-2.636c-7.901-35.011-12.42-81.691-11.285-135.52 0-1.881.373-2.634 1.505-3.387 4.129-2.636 11.657-6.776 18.07-9.412 1.877-.753 2.249-.377 2.249 1.13-1.135 78.302 5.279 132.51 19.205 175.8.374 1.128 1.507.753 1.507-.376-.755-15.812-.756-29.741-.756-46.682l-.751-135.15c0-1.506.374-2.259 1.881-2.636 6.401-1.506 12.046-2.634 18.823-3.388zm23.339 0c50.445 3.387 82.821 24.47 82.821 54.961 0 12.801-4.893 25.225-13.175 34.259 16.562 4.517 22.962 16.94 22.962 33.505 0 29.364-21.457 77.925-92.232 143.44-.751.743-1.505.373-1.505-.39v-264.64c0-.753.376-1.129 1.129-1.129zm20.327 24.845v78.679c28.988-16.939 40.281-33.881 40.281-49.692 0-15.059-17.318-27.481-40.281-28.988zm37.27 85.456c-7.906 0-15.058 3.012-37.269 18.824V33.88C-15.31-9.039-4.393-38.402-4.393-53.461c0-10.54-4.897-16.563-12.049-16.563z"/><path d="M66.454-62.411a67.064 67.064 0 1 0 0 134.129 67.064 67.064 0 1 0 0-134.129zM22.367-21.975H75.67l9.314 34.76 9.314-34.76h16.243L96.273 31.282H73.697L63.031-8.526h-9.684v39.808H35.415V-8.526H22.368z" paint-order="fill markers stroke"/><path d="M-252.44 97.68v128.4h32.513v-51.433h33.935v-25.533h-33.935v-24.063h41.269V97.683zm82.248 0v128.4h32.513v-97.332c-10.524-9.782-20.472-20.152-29.791-31.064zm210.4 0L14.66 162.924-8.931 102.676c-10.931 12.348-22.696 23.958-35.181 34.782v88.619h32.471v-64.473l15.375 41.971h21.852l15.375-41.971v64.473h32.471v-128.4zm-163.59 43.71v84.686h73.523v-30.622h-41.01v-29.612a380.2 380.2 0 0 1-32.513-24.452z"/></svg>