<?xml version="1.0" encoding="UTF-8"?>
<svg width="455.32" height="450" version="1.1" viewBox="0 0 455.32 450" xmlns="http://www.w3.org/2000/svg" xmlns:cc="http://creativecommons.org/ns#" xmlns:dc="http://purl.org/dc/elements/1.1/" xmlns:rdf="http://www.w3.org/1999/02/22-rdf-syntax-ns#">
 <title>13th_street_logo_uk_master_rgb_green</title>
 <path d="m427.94 231.45-8.7661-8.7715 18.331-18.352-9.0437-9.0437-45.568 45.595 9.0464 9.0544 19.74-19.751 8.7635 8.7741-19.74 19.748 9.0464 9.0517 45.565-45.597-9.0437-9.0544zm-12.912-34.614 7.4928-7.4982-24.443-24.467-7.5008 7.5008 7.7384 7.7437-38.07 38.099 8.977 8.9823 38.064-38.099zm-54.633-40.792c0.72073-7.2659 1.3774-32.678-20.632-54.721-14.062-14.092-32.748-21.857-52.58-21.854-19.182 0.0053-37.139 7.3941-50.56 20.816l-21.387 21.363 37.554 37.638 21.045-21.056c2.939-2.931 8.2056-6.0594 14.209-6.0594 4.9196-3e-3 9.4495 2.0447 13.488 6.0861 8.4058 8.4138 8.3977 19.294-0.016 27.716l-29.742 29.723c-6.9376 6.9269-12.228 10.024-17.129 10.024-6.9243 0-14.5-6.2035-24.467-16.216l-2.3144-2.3144-33.706 33.72 2.3063 2.3117c10.782 10.808 15.402 17.546 15.952 23.261 0.52853 5.5041-2.8028 11.286-11.481 19.964l-32.988 32.937c-5.368 5.3653-11.182 8.1975-16.788 8.2082-4.7727 0-9.2066-2.0127-13.173-5.9713-3.8652-3.8732-5.9099-8.4725-5.9019-13.272 0.0107-5.4908 2.688-11.19 7.5676-16.04l19.422-19.414-37.552-37.636-21.037 21.051c-16.926 16.894-24.74 36.712-22.596 57.292 1.6951 16.339 9.7805 32.836 22.182 45.248 14.644 14.679 31.499 22.118 50.103 22.102 4.7033 0 9.5936-0.48314 14.516-1.4281 17.783-3.4008 26.961-8.6807 57.636-39.327 30.941-30.906 40.413-40.368 34.344-70.951 6.9483 1.5536 11.916 2.2049 16.465 2.2049 16.401-0.0107 27.3-9.276 50.055-32.011 29.74-29.694 35.5-43.569 37.203-63.391zm-324.17 113.74 233.34-233.52-36.234-36.263-233.34 233.52zm148.37 148.49c15.648 15.653 31.976-3.7878 42.431 6.6653 2.8562 2.8696 5.4588 6.5879 1.8979 10.181-4.012 3.9826-7.6423 1.3294-10.944-1.978a62.948 62.948 0 0 0-3.0244-3.294l-0.14148 0.016-9.6043 9.6043c0.49916 0.6353 1.0597 1.1932 1.6096 1.7618 9.3427 9.332 18.301 12.826 28.677 2.4291 10.176-10.168 10.798-19.639 0.4965-29.948-15.418-15.293-33.725 3.1605-42.698-5.8138-2.3944-2.3918-4.0707-5.3333-1.1452-8.2776 4.6233-4.6339 8.4324 0.56856 11.796 3.633l9.4655-9.4682-0.98499-0.97964c-8.347-8.4912-16.908-11.155-26.088-1.97-8.6167 8.638-10.942 18.259-1.7431 27.438zm84.946-10.197-40.536-40.56 8.0667-8.0667-8.9717-8.9823-26.232 26.245 8.9743 8.9823 8.1415-8.1415 40.531 40.56zm23.023-23.05-19.972-19.996 3.729-3.7238c4.415-4.4204 8.6914-0.86486 12.271 2.4452 2.018 1.8926 3.9212 3.924 5.9633 5.8191 2.3731 2.0901 5.0637 4.2016 8.2643 5.1865l10.595-10.589c-4.0788-1.3988-7.5062-3.8572-10.739-6.668-5.3867-4.7033-12.471-14.036-20.61-9.663 3.9773-7.5169-1.6123-13.267-6.668-18.323-8.4298-8.275-16.876-9.4602-25.682-0.68869l-16.868 16.884 49.503 49.548zm-23.341-33.052-4.8368 4.8421-12.909-12.909 4.4951-4.4952c4.8528-4.8421 8.3524-0.76075 12.06 2.9523 3.238 3.2272 5.0664 5.7497 1.1906 9.6097zm52.111-94.807-23.28 23.296 49.495 49.543 23.282-23.304-9.0464-9.0517-13.187 13.203-11.994-12.002 11.857-11.86-8.7635-8.7715-11.852 11.863-10.736-10.736 13.189-13.205zm-2.309 83.286-11.985-12.002 11.849-11.86-8.7635-8.7715-11.857 11.86-10.734-10.744 13.189-13.197-8.9637-8.9797-23.285 23.301 49.5 49.545 23.288-23.306-9.0491-9.0491zm24.937-87.982 40.531 40.557 10.024-10.026-40.528-40.563 8.0641-8.0721-8.985-8.9743-26.221 26.24 8.977 8.9877z" fill="#323e11" fill-rule="evenodd" stroke-width="2.6694"/>
 <metadata>
  <rdf:RDF>
   <cc:Work rdf:about="">
    <dc:title>13th_street_logo_uk_master_rgb_green</dc:title>
   </cc:Work>
  </rdf:RDF>
 </metadata>
</svg>
