<svg width="800" height="448.79" version="1.1" xmlns="http://www.w3.org/2000/svg">
	<path d="m448.79 0h-448.79v448.79h448.79z" fill="#eb0a28"/>
	<g fill="#fff">
		<path d="m301.46 174.4-43.009 43.009c12.155 9.3498 22.44 23.375 22.44 43.944 0 33.659-27.114 57.969-60.774 57.969-37.399 0-58.904-22.44-70.124-47.684l-43.009 43.009c18.7 32.724 55.164 63.579 112.2 63.579 66.384 0 122.48-50.489 122.48-117.81 0.93499-37.399-17.765-67.319-40.204-86.018"/>
		<path d="m223.85 234.24-40.204-40.204 118.74-118.74 40.204 40.204z"/>
		<path d="m164.95 125.78-55.164-55.164h180.45l-55.164 55.164z"/>
	</g>
	<path d="m565.32 106.44c-7.4798-8.4148-17.765-14.025-28.049-14.025-13.09 0-15.895 5.6099-15.895 10.285 0 19.635 61.709 10.285 61.709 54.229 0 21.505-20.57 36.464-46.749 36.464-22.44 0.93499-41.139-8.4148-52.359-22.44l16.83-16.83c8.4148 9.3498 20.57 15.895 34.594 15.895 12.155 0 18.7-5.6099 18.7-13.09 0-23.375-61.709-13.09-61.709-55.164 0-19.635 16.83-32.724 43.944-32.724 19.635 0.93498 33.659 8.4148 44.879 21.505z"/>
	<path d="m702.76 115.79v74.799h-26.179l-0.93499-12.155c-8.4148 10.285-21.505 15.895-38.334 15.895-24.31 0-39.269-14.025-39.269-34.594 0-25.245 22.44-40.204 76.669-44.879v-0.93498c0-14.96-9.3498-20.57-23.375-20.57-10.285 0-18.7 3.7399-28.984 13.09l-16.83-15.895c9.3498-10.285 26.179-19.635 47.684-19.635 29.919-0.93498 49.554 14.96 49.554 44.879m-28.049 29.919v-10.285c-33.659 2.8049-47.684 11.22-47.684 23.375 0 8.4148 5.6099 13.09 16.83 13.09 13.09 0 30.854-9.3498 30.854-26.179"/>
	<path d="m800 180.3c-10.285 11.22-23.375 14.025-32.724 14.025-27.114 0-41.139-16.83-41.139-40.204v-95.368l28.049-28.049v43.009h35.529v22.44h-35.529v56.099c0 10.285 2.8049 16.83 14.025 16.83 4.6749 0 8.4148-0.935 14.025-5.6099z"/>
</svg>
