<?xml version="1.0" encoding="UTF-8"?>
<svg width="800" height="447.84" version="1.1" xmlns="http://www.w3.org/2000/svg">
	<path d="m520.85 192.13c-11.058-2.1024-22.86-7.8272-31.088-15.08l-6.2548-5.5136 16.706-16.834 4.7232 4.1472c8.2096 7.2084 18.898 11.398 29.158 11.431 10.202 0.032 15.903-2.4512 18.642-8.1208 3.6044-7.46-2.0816-14.84-15.072-19.563-30.482-11.082-36.876-14.974-41.728-25.398-7.7188-16.578-0.95564-34.642 15.72-41.988 19.691-8.6756 44.092-5.6928 61.712 7.5436l8.546 6.4196-7.8844 7.9552c-4.3364 4.3752-8.1976 7.9552-8.58 7.9552s-3.6936-2.2529-7.3584-5.0064c-14.282-10.731-32.479-11.01-36.453-0.55747-2.743 7.2148 2.6081 12.07 19.415 17.614 28.392 9.366 38.486 17.976 41.272 35.211 1.7902 11.066-4.44 25.317-13.937 31.881-11.52 7.9608-30.579 11.131-47.54 7.9064zm107.14 0.48392c-12.236-2.1591-22.343-9.0756-26.44-18.092-3.3958-7.4752-3.1143-20.798 0.6084-28.792 6.9788-14.986 26.597-24.297 60.232-28.585l12.51-1.5949-0.2948-4.7744c-0.3884-6.2952-3.7887-11.892-9.132-15.031-3.3941-1.994-6.3692-2.518-13.716-2.4163-10.48 0.1448-15.51 1.9102-24.078 8.4508l-5.6396 4.3048-15.943-16.2 5.004-4.3828c12.908-11.306 33.792-17.137 51.604-14.41 18.698 2.8635 30.965 11.645 36.86 26.386 2.6624 6.6572 2.8114 8.9592 3.2252 49.824l0.43396 42.848h-26.446v-11.58l-4.0656 3.2954c-6.5052 5.2728-13.115 8.3436-22.025 10.232-9.0704 1.9225-14.087 2.0369-22.698 0.51752zm31.031-24.47c11.033-5.498 16.506-14.77 16.506-27.963 0-5.9708 0.2092-5.9272-15.418-3.2022-19.46 3.3934-28.678 8.3896-32.078 17.384-1.9466 5.1512 0.4304 11.578 5.4036 14.611 5.9776 3.6447 17.345 3.2758 25.585-0.83056zm98.328 24.546c-12.376-2.6421-20.046-8.1128-25.277-18.029l-3.3787-6.4048-0.7264-109.94 12.85-12.894c7.0676-7.092 14.165-13.474 14.174-12.946 8e-3 0.62196 0.5978 9.3404 0.5978 20.693v20.641h35.125l-0.7224 21.892-34.402 0.696v65.172l3.6567 3.6567c3.0062 3.0062 4.7044 3.6567 9.5476 3.6567 3.8378 0 7.402-0.93404 10.227-2.68l4.3364-2.6801 16.642 16.76-3.753 3.1721c-9.6084 8.1212-25.947 12.001-38.897 9.2364z" fill="#2d383e"/>
	<path d="m0 0h447.84v447.84h-447.84z" fill="#e40a22"/>
	<path d="m203.91 378.31c-1.7201-0.3068-6.5052-1.1432-10.633-1.8591-32.265-5.5956-63.028-25.679-83.756-54.676l-4.714-6.5952 21.649-22.177c11.907-12.198 22.039-22.344 22.515-22.548 0.36524 0.42552 2.2233 3.085 5.528 7.966 14.595 26.098 40.628 40.808 68.8 38.877 34.593-2.3724 57.172-26.919 55.424-60.252-0.6674-12.716-5.2652-23.154-14.774-33.541l-6.6724-7.2888 44.144-44.144 4.5716 4.342c7.1024 6.746 18.708 21.709 23.513 30.316 18.599 33.315 18.051 76.304-1.4146 111.01-8.0224 14.302-27.975 34.443-42.252 42.652-21.499 12.362-38.453 17.236-62.54 17.978-8.9444 0.2756-17.67 0.2504-19.39-0.056zm-0.32756-162.86c-10.828-10.844-19.688-20.276-19.688-20.959 0-1.5804 118.54-120.16 119.35-119.4 0.33244 0.314 9.668 9.5512 20.746 20.527l20.141 19.956-59.784 59.792c-32.881 32.887-60.076 59.792-60.428 59.792-0.3546 0-9.5048-8.8728-20.333-19.717zm-67.224-117.26-28.126-28.147h183.85l-56.252 56.292h-71.348z" fill="#fff"/>
</svg>
