<?xml version="1.0" encoding="UTF-8"?>
<svg width="800" height="331.78" version="1.1" xmlns="http://www.w3.org/2000/svg">
	<path d="m385.86 142.34c-8.1922-1.5576-16.935-5.7985-23.031-11.172l-4.6337-4.0849 12.376-12.471 3.4992 3.0723c6.0821 5.3401 14 8.4446 21.601 8.4686 7.5582 0.0208 11.781-1.8159 13.811-6.0161 2.6702-5.5269-1.5421-10.994-11.166-14.493-22.582-8.2102-27.319-11.093-30.915-18.815-5.7181-12.281-0.70791-25.664 11.646-31.107 14.588-6.4269 32.664-4.2173 45.717 5.5885l6.3314 4.7557-5.8409 5.8933c-3.2126 3.2414-6.0729 5.8933-6.3562 5.8933-0.28312 0-2.7364-1.669-5.4513-3.7089-10.581-7.9502-24.062-8.1562-27.006-0.41329-2.0321 5.3449 1.9322 8.9414 14.383 13.049 21.034 6.9386 28.511 13.318 30.577 26.085 1.3263 8.1978-3.2894 18.756-10.325 23.618-8.5342 5.8977-22.654 8.2462-35.218 5.8573zm79.378 0.35821c-9.0646-1.5995-16.553-6.7234-19.587-13.403-2.5157-5.5377-2.3071-15.408 0.45049-21.33 5.1701-11.102 19.704-18 44.621-21.177l9.2678-1.1816-0.21845-3.537c-0.28772-4.6637-2.8068-8.8102-6.7654-11.135-2.5145-1.4772-4.7185-1.8654-10.161-1.7901-7.7642 0.10676-11.49 1.4151-17.838 6.2605l-4.1781 3.1892-5.9053-6.0005-5.9053-6.0009 3.7071-3.2468c9.5626-8.3758 25.034-12.696 38.229-10.675 13.852 2.1214 22.94 8.627 27.307 19.548 1.9724 4.9317 2.0828 6.6374 2.3893 36.912l0.32149 31.742h-19.592v-8.5786l-3.012 2.4414c-4.8193 3.9062-9.7158 6.1809-16.317 7.5802-6.7194 1.4242-10.436 1.509-16.815 0.38369zm22.989-18.128c8.1734-4.0729 12.228-10.942 12.228-20.716 0-4.4233 0.15492-4.3913-11.422-2.3723-14.416 2.5139-21.246 6.2154-23.764 12.879-1.4421 3.816 0.31885 8.5778 4.0033 10.824 4.4281 2.7002 12.85 2.4268 18.954-0.61513zm72.846 18.185c-9.1686-1.9573-14.851-6.0101-18.726-13.356l-2.5031-4.7449-0.53812-81.45 9.5198-9.5526c5.2361-5.2537 10.494-9.9822 10.5-9.591 6e-3 0.46013 0.44285 6.9198 0.44285 15.33v15.292h26.021l-0.53523 16.218-12.743 0.25833-12.743 0.25764v48.281l2.709 2.709c2.2271 2.2271 3.4853 2.709 7.073 2.709 2.8432 0 5.4837-0.69194 7.5766-1.9854l3.2125-1.9855 12.329 12.416-2.7803 2.35c-7.1182 6.0165-19.222 8.8906-28.816 6.8426z" fill="#2d383e"/>
	<path d="m0 0h331.76v331.78h-331.76z" fill="#e40a22"/>
	<path d="m151.06 280.28c-1.2743-0.22721-4.8193-0.84691-7.8774-1.3772-23.903-4.1453-46.693-19.024-62.049-40.509l-3.4922-4.8857 16.038-16.43c8.821-9.0362 16.327-16.553 16.68-16.704 0.27005 0.31481 1.647 2.2854 4.0953 5.9017 10.812 19.334 30.099 30.232 50.969 28.801 25.628-1.7575 42.357-19.942 41.061-44.637-0.49457-9.4202-3.9007-17.153-10.945-24.849l-4.9433-5.3997 32.705-32.705 3.3867 3.2168c5.2617 4.9973 13.859 16.083 17.419 22.459 13.779 24.681 13.373 56.529-1.0481 82.238-5.9429 10.595-20.724 25.516-31.302 31.598-15.927 9.1582-28.487 12.769-46.329 13.319-6.6266 0.2044-13.09 0.1852-14.365-0.0412zm-0.24316-120.65c-8.0222-8.0338-14.586-15.021-14.586-15.527 0-1.1708 87.814-89.018 88.418-88.45 0.24661 0.23284 7.1626 7.0758 15.369 15.207l14.921 14.784-44.289 44.297c-24.359 24.363-44.505 44.297-44.769 44.297-0.26314 0-7.0414-6.573-15.064-14.607zm-49.801-86.874-20.836-20.852h136.2l-20.836 20.852-20.837 20.852h-52.857z" fill="#fff"/>
	<path d="m687.32 54.385h21.357v87.218h-21.357v-37.419h-35.317v37.419h-20.933v-87.218h20.933v31.934h35.317z" fill="#aeb6bd"/>
	<path d="m720.84 141.48v-87.094h30.331c11.474 9.2e-5 20.553 1.7794 27.236 5.3377 6.6834 3.5587 11.997 8.7926 15.943 15.702 3.9454 6.9094 5.6485 14.443 5.6489 22.6-1.2e-4 5.8269-0.81762 11.404-2.9916 16.732-2.1742 5.3273-5.2741 10.01-9.3002 14.047-4.1065 4.1621-8.8774 7.3046-14.313 9.427-3.1806 1.2903-6.0993 2.1539-8.7566 2.5909-2.6572 0.43701-7.7302 0.65553-15.218 0.65553zm29.063-69.394h-8.399v51.969h8.7614c23.432-0.18792 29.587-13.406 29.591-28.195 3e-3 -13.282-7.1998-23.745-29.953-23.774z" fill="#aeb6bd"/>
</svg>
