<svg xmlns="http://www.w3.org/2000/svg" width="800" height="367.554" viewBox="0 0 600 275.666" fill="#ffffff"><path d="M333.253 218.176c-15.851 0-28.752 12.887-28.752 28.752 0 15.851 12.901 28.738 28.752 28.738s28.738-12.887 28.738-28.738-12.887-28.752-28.738-28.752zM206.749 0v18.442C186.474 6.712 162.946 0 137.833 0 61.708 0 0 61.708 0 137.833s61.708 137.833 137.833 137.833c25.113 0 48.641-6.712 68.916-18.442v18.442h68.916V0zm-68.916 206.749c-38.056 0-68.916-30.861-68.916-68.916s30.861-68.916 68.916-68.916 68.916 30.861 68.916 68.916c0 38.07-30.847 68.916-68.916 68.916zM429.377 19.186l-22.646 67.441-22.48-67.441h-18.869v26.257l27.153 71.921h28.38l36.98-98.179zm-73.024 26.257V19.186h-23.087V0H304.5v79.13c0 23.032 8.394 34.389 27.25 37.394 3.239.51 6.781.772 10.64.814l3.832-.069a77.685 77.685 0 0 0 8.394-.882V90.253l-2.715.166c-.703.042-3.198.069-3.845.069-9.221 0-14.79-4.204-14.79-14.514V45.43h23.087z" fill="#031130"/><path d="M444.511 78.035l10.767-28.584v16.388h50.83V25.011h10.767v96.488h-10.767v-46.55h-50.83v46.55h-10.767zm79.314-53.024h25.792c10.307 0 19.233 1.933 26.779 5.798 7.638 3.865 13.482 9.387 17.531 16.564S600 63.017 600 72.772c0 16.105-4.601 28.252-13.804 36.442s-22.132 12.285-38.788 12.285h-23.582zm22.892 87.378c14.54 0 25.261-3.313 32.163-9.939 6.902-6.718 10.353-16.61 10.353-29.678 0-12.147-3.359-21.626-10.077-28.436s-16.61-10.215-29.678-10.215h-14.886v78.267z" fill="#041a4a"/></svg>