<?xml version="1.0" encoding="UTF-8"?>
<svg width="766.04" height="450" version="1.1" xmlns="http://www.w3.org/2000/svg">
	<path d="m751.65 358.94v13.236h12.707v14.295h-12.707v22.236c0 4.5454 1.8517 6.7658 7.2602 6.7658 2.4242 0 5.5526-0.81462 5.5526-0.81462l1.5761 13.232s-4.0731 1.6534-11.556 1.6534c-13.959 0-21.365-6.8804-21.365-19.778v-23.296h-8.2593v-14.295h8.2593v-13.236zm-60.257 11.165c-17.335 0-29.814 11.209-29.814 29.814 0 18.197 12.61 29.782 33.189 29.782 10.154 0 20.186-4.5334 20.186-4.5334l-4.0702-13.17s-6.8437 3.5075-14.627 3.5075c-9.7775 0-14.33-5.498-15.552-10.49h40.238c0.56914-18.995-7.2864-34.911-29.55-34.911zm0.79417 13.369c6.4249 0 11.061 4.5039 11.891 10.423h-23.671c0.66151-6.3616 6.5212-10.423 11.781-10.423zm-96.195 44.294v-55.592h18.319v7.2913s6.0889-9.4108 19.545-9.4108c15.206 0 20.376 9.6386 20.376 21.709v36.003h-18.319v-29.648c0-9.3719-3.6175-13.23-9.6454-13.23-6.9024 0-11.956 5.967-11.956 15.348v27.531zm-139.97-57.663c17.327 0 28.094 13.986 28.094 29.384 0 17.738-12.839 30.278-28.391 30.278-11.461 0-18.564-8.3388-18.564-8.3388v28.576h-18.2v-77.815h18.2v6.8829s6.1871-8.9677 18.862-8.9677zm-5.3606 15.354c-8.2315 0-14.031 8.1646-14.031 14.328 0 8.4412 6.5782 14.197 14.031 14.197 7.0924 0 14.427-4.7962 14.427-14.097 0-7.3638-6.0726-14.427-14.427-14.427zm40.797 42.309v-77.829h18.531v77.829zm54.41-57.663c-17.327 0-28.094 13.986-28.094 29.384 0 17.738 12.839 30.278 28.391 30.278 11.461 0 18.564-8.3388 18.564-8.3388v6.3534h18.2v-55.592h-18.2v6.8829s-6.1871-8.9677-18.862-8.9677zm5.3606 15.354c8.2315 0 14.031 8.1646 14.031 14.328 0 8.4412-6.5782 14.197-14.031 14.197-7.0924 0-14.427-4.7962-14.427-14.097 0-7.3638 6.0726-14.427 14.427-14.427zm-187.54 42.309v-77.829h18.531v77.829zm-50.065-57.663c-17.327 0-28.094 13.986-28.094 29.384 0 17.738 12.839 30.278 28.391 30.278 11.461 0 18.564-8.3388 18.564-8.3388v6.3534h18.2v-55.592h-18.2v6.8829s-6.1871-8.9677-18.862-8.9677zm5.3606 15.354c8.2315 0 14.031 8.1646 14.031 14.328 0 8.4412-6.5782 14.197-14.031 14.197-7.0924 0-14.427-4.7962-14.427-14.097 0-7.3638 6.0726-14.427 14.427-14.427zm-80.898 15.837v26.472h-18.319v-29.648c0-9.3719-3.6175-13.23-9.6454-13.23-6.9024 0-11.956 5.967-11.956 15.348v27.531h-18.319v-55.592h18.319v7.2913s6.0889-9.4108 19.545-9.4108c9.3267 0 14.877 3.6265 17.776 9.2162 0 0 5.9837-9.2736 21.363-9.2736 14.425 0 21.475 8.7762 21.475 20.708v37.061h-18.319v-29.648c0-7.23-2.8463-13.403-9.6521-13.403-6.9555 0-12.267 6.2712-12.267 16.579zm-69.501-49.739a10.772 10.772 0 0 1-10.772 10.772 10.772 10.772 0 0 1-10.772-10.772 10.772 10.772 0 0 1 10.772-10.772 10.772 10.772 0 0 1 10.772 10.772zm-20.188 76.211v-55.592h18.531v55.592zm-70.205 0v-55.592h18.319v7.2913s6.0888-9.4108 19.545-9.4108c15.206 0 20.376 9.6386 20.376 21.709v36.003h-18.319v-29.648c0-9.3719-3.6175-13.23-9.6454-13.23-6.9022 0-11.956 5.967-11.956 15.348v27.531zm-50.099-57.663c-17.327 0-28.094 13.986-28.094 29.384 0 17.738 12.839 30.278 28.391 30.278 11.461 0 18.564-8.3388 18.564-8.3388v6.3534h18.2v-55.592h-18.2v6.8829s-6.1871-8.9677-18.862-8.9677zm5.3606 15.354c8.2315 0 14.031 8.1646 14.031 14.328 0 8.4412-6.5782 14.197-14.031 14.197-7.0924 0-14.427-4.7962-14.427-14.097 0-7.3638 6.0726-14.427 14.427-14.427z"/>
	<path d="m428.88 0v88.217s13.7 11.213 20.217 20.217c-33.561-21.895-69.216-31.093-112.57-31.093-71.37 0-136.35 33.066-168.43 87.798l4.1409 7.783s13.959-16.784 46.214-33.245c-35.23 34.754-49.986 62.478-71.647 126.41l34.362 34.22c44.959-50.302 111.1-83.539 185.78-83.539 70.655 0 135.71 31.622 176.39 73.661l37.014-37.125c-20.749-35.511-47.693-68.262-69.11-91 22.158 12.654 57.536 19.891 91.328 19.891 59.119 0 102.55-31.832 102.55-75.172 0-53.389-45.775-85.88-120.43-98.235l-12.074 20.256c37.574 6.7005 96.032 28.569 96.032 67.636 0 21.431-16.578 39.406-40.464 39.406-29.521 0-54.036-32.92-68.935-61.991l-22.8-0.54879c-26.168-32.382-68.473-63.981-107.55-73.539z" fill="#0074ff"/>
</svg>
