<?xml version="1.0" encoding="UTF-8"?>
<svg width="800" height="469.95" version="1.1" xmlns="http://www.w3.org/2000/svg">
	<path d="m784.97 374.85v13.823h13.27v14.929h-13.27v23.222c0 4.7469 1.9338 7.0658 7.5821 7.0658 2.5317 0 5.7988-0.85073 5.7988-0.85073l1.646 13.819s-4.2537 1.7267-12.068 1.7267c-14.578 0-22.312-7.1855-22.312-20.655v-24.329h-8.6255v-14.929h8.6255v-13.823zm-62.929 11.66c-18.104 0-31.136 11.706-31.136 31.136 0 19.004 13.169 31.102 34.661 31.102 10.604 0 21.081-4.7344 21.081-4.7344l-4.2506-13.754s-7.1471 3.663-15.275 3.663c-10.211 0-14.965-5.7418-16.242-10.955h42.022c0.59437-19.837-7.6094-36.459-30.86-36.459zm0.82938 13.962c6.7098 0 11.551 4.7036 12.418 10.885h-24.72c0.69084-6.6436 6.8103-10.885 12.303-10.885zm-100.46 46.258v-58.057h19.131v7.6146s6.3589-9.828 20.412-9.828c15.88 0 21.279 10.066 21.279 22.671v37.599h-19.131v-30.963c0-9.7874-3.7779-13.817-10.073-13.817-7.2084 0-12.486 6.2316-12.486 16.028v28.752zm-146.18-60.22c18.095 0 29.34 14.606 29.34 30.687 0 18.524-13.408 31.62-29.65 31.62-11.969 0-19.387-8.7085-19.387-8.7085v29.843h-19.007v-81.265h19.007v7.1881s6.4614-9.3653 19.698-9.3653zm-5.5983 16.035c-8.5965 0-14.653 8.5266-14.653 14.963 0 8.8155 6.8699 14.826 14.653 14.826 7.4069 0 15.067-5.0089 15.067-14.722 0-7.6903-6.3418-15.067-15.067-15.067zm42.606 44.185v-81.28h19.353v81.28zm56.822-60.22c-18.095 0-29.34 14.606-29.34 30.687 0 18.524 13.408 31.62 29.65 31.62 11.969 0 19.387-8.7085 19.387-8.7085v6.6351h19.007v-58.057h-19.007v7.1881s-6.4614-9.3653-19.698-9.3653zm5.5983 16.035c8.5965 0 14.653 8.5266 14.653 14.963 0 8.8155-6.8699 14.826-14.653 14.826-7.4069 0-15.067-5.0089-15.067-14.722 0-7.6903 6.3418-15.067 15.067-15.067zm-195.85 44.185v-81.28h19.353v81.28zm-52.285-60.22c-18.095 0-29.34 14.606-29.34 30.687 0 18.524 13.408 31.62 29.65 31.62 11.969 0 19.387-8.7085 19.387-8.7085v6.6351h19.007v-58.057h-19.007v7.1881s-6.4614-9.3653-19.698-9.3653zm5.5983 16.035c8.5965 0 14.653 8.5266 14.653 14.963 0 8.8155-6.8699 14.826-14.653 14.826-7.4069 0-15.067-5.0089-15.067-14.722 0-7.6903 6.3418-15.067 15.067-15.067zm-84.485 16.539v27.646h-19.131v-30.963c0-9.7874-3.7779-13.817-10.073-13.817-7.2084 0-12.486 6.2316-12.486 16.028v28.752h-19.131v-58.057h19.131v7.6146s6.3589-9.828 20.412-9.828c9.7402 0 15.537 3.7873 18.564 9.6248 0 0 6.249-9.6848 22.31-9.6848 15.065 0 22.427 9.1653 22.427 21.626v38.704h-19.131v-30.963c0-7.5506-2.9725-13.997-10.08-13.997-7.2639 0-12.811 6.5493-12.811 17.314zm-72.582-51.944a11.25 11.25 0 0 1-11.25 11.25 11.25 11.25 0 0 1-11.25-11.25 11.25 11.25 0 0 1 11.25-11.25 11.25 11.25 0 0 1 11.25 11.25zm-21.083 79.59v-58.057h19.353v58.057zm-73.318 0v-58.057h19.131v7.6146s6.3588-9.828 20.412-9.828c15.88 0 21.279 10.066 21.279 22.671v37.599h-19.131v-30.963c0-9.7874-3.7779-13.817-10.073-13.817-7.2082 0-12.486 6.2316-12.486 16.028v28.752zm-52.32-60.22c-18.095 0-29.34 14.606-29.34 30.687 0 18.524 13.408 31.62 29.65 31.62 11.969 0 19.387-8.7085 19.387-8.7085v6.6351h19.007v-58.057h-19.007v7.1881s-6.4614-9.3653-19.698-9.3653zm5.5983 16.035c8.5965 0 14.653 8.5266 14.653 14.963 0 8.8155-6.8699 14.826-14.653 14.826-7.4069 0-15.067-5.0089-15.067-14.722 0-7.6903 6.3418-15.067 15.067-15.067z"/>
	<path d="m447.89 0v92.128s14.307 11.71 21.113 21.113c-35.049-22.866-72.285-32.472-117.56-32.472-74.534 0-142.4 34.532-175.9 91.691l4.3245 8.1281s14.578-17.528 48.263-34.719c-36.792 36.295-52.202 65.248-74.824 132.01l35.885 35.737c46.952-52.532 116.03-87.243 194.02-87.243 73.788 0 141.73 33.024 184.21 76.927l38.655-38.771c-21.669-37.085-49.808-71.288-72.174-95.035 23.14 13.215 60.087 20.773 95.377 20.773 61.74 0 107.1-33.243 107.1-78.505 0-55.756-47.804-89.688-125.77-102.59l-12.609 21.154c39.24 6.9976 100.29 29.836 100.29 70.635 0 22.381-17.313 41.153-42.258 41.153-30.83 0-56.432-34.38-71.991-64.739l-23.811-0.57312c-27.328-33.818-71.509-66.818-112.32-76.799z" fill="#0074ff"/>
</svg>
