<svg xmlns="http://www.w3.org/2000/svg" height="109.09" width="260.36"><path fill="#001a4b" d="M132.4 80.28v17.53h1.78V80.28h-1.78zm12 0v5.563l-2.187-.094c-3.724 0-6.156 2.372-6.156 6.625 0 3.484 1.45 5.656 4.406 5.656 1.922 0 3.452-1.138 4.125-2.844l.03.03c-.144.72-.22 1.873-.22 2.594h1.78V80.28h-1.78zm50.625 0v17.53h1.78v-6.25l4.72 6.25h2.344l-5.125-6.5 4.75-5.437h-2.187l-4.5 5.375V80.28h-1.78zm44.406 0v17.53h1.78V80.28h-1.78zm-111.2 1c-.573.115-1 .63-1 1.22 0 .697.553 1.22 1.25 1.22.673 0 1.25-.522 1.25-1.22 0-.673-.577-1.22-1.25-1.22-.087 0-.168-.016-.25 0zm-66.885.22l-4.656.094v16.22h3.125v-6.687h.094l4.53 6.688h3.875l-3.906-5.437-1.313-1.78c2.45-.384 4.125-2.13 4.125-4.53 0-3.316-2.295-4.562-5.875-4.562zm14.375 0l-5.25.125V97.78l4.53.125c5.286 0 8.938-2.895 8.938-8.47 0-5.694-3.197-7.937-8.22-7.937zm44.125.03l-4.53.063v16.22l3.906.094c5.118 0 6.188-3.12 6.188-4.875 0-1.73-1.035-3.4-3.437-3.75v-.062c1.826-.53 3.063-2.066 3.063-3.844 0-2.355-1.656-3.844-5.187-3.844zm-74.22.063l-5.687 16.22h3.156L44.22 94.5h6.125l1.156 3.313h3.438l-5.78-16.22h-3.53zm73.875 1.438c2.86 0 3.594 1.118 3.594 2.656 0 1.922-1.492 3.063-4.375 3.063-.625 0-1.058-.007-1.562-.03v-5.656a72.3 72.3 0 0 1 2.344-.031zm-58.477 1.03c1.97 0 2.938.75 2.938 2.313 0 1.514-1.157 2.47-3.03 2.47-.48 0-.91-.007-1.125-.03v-4.687c.312-.048.762-.062 1.22-.062zm14.47.063c3.7 0 5.063 2.08 5.063 5.563 0 3.844-2.2 5.563-5.25 5.563-.625 0-1.286-.053-1.72-.125V84.186c.505-.048 1.185-.062 1.906-.062zm-28.25 1.063h.03c.192.913.438 1.705.75 2.594l1.5 4.25h-4.5l1.47-4.125c.312-.937.558-1.878.75-2.72zm120.28.44c-2.1 0-3.577 1.176-4.25 2.906h-.062c.12-.72.188-1.887.188-2.656h-1.78v11.938h1.813v-5.75c0-2.835 1.518-4.937 3.656-4.937 1.73 0 2.22 1.095 2.22 2.97v7.72h1.813V89.47c0-2.114-.855-3.844-3.594-3.844zm54.22 0c-2.1 0-3.608 1.176-4.28 2.906h-.062a19.17 19.17 0 0 0 .219-2.656h-1.78v11.938h1.78v-5.75c0-2.835 1.518-4.937 3.656-4.937 1.73 0 2.25 1.095 2.25 2.97v7.72h1.78V89.47c0-2.114-.823-3.844-3.562-3.844zm-43.22.03c-3.244 0-5.187 2.126-5.187 4.625 0 1.538.58 2.772 1.78 3.47-.84.384-1.312 1.12-1.312 1.938 0 .77.443 1.382 1.188 1.72-1.13.577-2.062 1.698-2.062 3.188 0 2.283 1.94 3.5 4.97 3.5 3.676 0 6.28-1.883 6.28-4.406 0-2.1-1.405-3.344-4-3.344h-2.344c-1.5 0-2.156-.334-2.156-1.03 0-.432.274-.846.875-1.062.432.096 1.104.156 1.656.156 3.436 0 5.188-1.953 5.188-4.5 0-1.13-.46-2.072-1.156-2.625h2.156v-1.406h-4.062a7.49 7.49 0 0 0-1.812-.219zm11.344 0c-3.027 0-4.687 1.506-4.687 3.5 0 4.253 5.844 2.46 5.844 5.344 0 1.25-1.208 2.03-2.937 2.03-.937 0-1.92-.2-2.687-.406l-.03 1.656c.72.144 1.642.25 2.53.25 3.123 0 4.97-1.667 4.97-3.78 0-4.06-5.812-2.422-5.812-5.28 0-1.177.84-1.875 2.594-1.875a8.13 8.13 0 0 1 2.5.406l.03-1.562c-.745-.144-1.568-.28-2.312-.28zm18.72 0c-1.6 0-2.996.402-4.125.906l.156 1.563c1.057-.673 2.503-1.03 3.656-1.03 2.066 0 2.72 1.01 2.72 2.813v1c-4.66 0-7.25 1.72-7.25 4.22 0 1.898 1.352 2.906 3.25 2.906 2.042 0 3.58-1.205 4.156-2.72h.063c-.12.697-.125 1.587-.125 2.5h1.78c-.048-1.057-.062-2.385-.062-3.562v-4.687c0-2.258-.927-3.906-4.22-3.906zm23.562 0c-1.6 0-2.996.402-4.125.906l.156 1.563c1.057-.673 2.503-1.03 3.656-1.03 2.066 0 2.72 1.01 2.72 2.813v1c-4.66 0-7.25 1.72-7.25 4.22 0 1.898 1.383 2.906 3.28 2.906 2.042 0 3.58-1.205 4.156-2.72h.03c-.12.697-.125 1.587-.125 2.5h1.78c-.048-1.057-.03-2.385-.03-3.562v-4.687c0-2.258-.958-3.906-4.25-3.906zm-104.62.22v11.938h1.813V85.875h-1.812zm21.625 0v8.344c0 2.114.855 3.844 3.594 3.844 2.1 0 3.608-1.176 4.28-2.906l.03.03c-.12.72-.187 1.856-.187 2.625h1.78V85.875h-1.812v5.75c0 2.835-1.487 4.938-3.625 4.938-1.73 0-2.25-1.063-2.25-2.937v-7.75h-1.812zm29.28 1.188c1.97 0 3.156 1.11 3.156 3.03s-1.28 2.97-3.25 2.97c-2.018 0-3.187-1.023-3.187-2.97 0-1.754 1.215-3.03 3.28-3.03zm-36.406.094c.77 0 1.527.09 2.344.28v4.22c0 2.114-1.184 4.906-3.562 4.906-1.97 0-2.875-1.62-2.875-4.312 0-3.604 1.643-5.094 4.094-5.094zm-23.312 2.97c2.667 0 4.78.686 4.78 2.97 0 1.898-1.266 3.313-4.125 3.313-1.057 0-1.786-.084-2.22-.156v-6.094c.384-.024 1.274-.03 1.563-.03zm92.28 2.094v.188c0 2.066-1.386 4.156-3.5 4.156-1.177 0-1.97-.7-1.97-1.78 0-1.153.976-2.562 5.47-2.562zm23.562 0v.188c0 2.066-1.386 4.156-3.5 4.156-1.177 0-1.937-.7-1.937-1.78 0-1.153.944-2.562 5.438-2.562zm-58.125 5.656c.216.024.54.03.78.03h2.438c1.826 0 2.72.758 2.72 2.03 0 1.586-1.537 2.688-4.156 2.688-1.994 0-3.47-.806-3.47-2.344 0-1.01.654-1.878 1.688-2.406z"/><path fill-rule="evenodd" fill="#db502b" d="M240.57 5a14.79 14.79 0 0 0-14.781 14.781c0 8.198 6.612 14.844 14.78 14.844s14.78-6.646 14.78-14.844c.01-8.15-6.6-14.78-14.78-14.78zm0 2.188c6.934 0 12.625 5.64 12.625 12.594 0 7-5.69 12.688-12.625 12.688s-12.625-5.687-12.625-12.688c0-6.954 5.69-12.594 12.625-12.594zm-167.8 3.656a1 1 0 0 0-1 1v62.812a1 1 0 0 0 1 1h8.875a1 1 0 0 0 1-1V11.844a1 1 0 0 0-1-1H72.76zm67.658.03a1 1 0 0 0-1 1v62.78a.99.99 0 0 0 1 1h8.906c.56 0 1-.443 1-1V55.25c0-7.417 4.343-13.72 9.875-13.72 4.002 0 5.188 2.632 5.188 7.063l-.03 26.062c0 .558.46 1 1 1h8.844c.54 0 1-.443 1-1V45.968c0-7.404-3.062-13.53-12.594-13.53-6.545 0-11.405 3.147-13.875 7.906l-.2-.093c.6-2.472.78-6.035.78-8.594v-19.78a1 1 0 0 0-1-1h-8.906zm106.16.094l-14.938 5.375v3.688l4.938-1.78v11.125l10-3.562V10.97zM30.728 30.906c-8.188 0-16.046 8.08-20.22 14.812-1.943 3.415-4.54 8.844-5.28 14.22-.747 5.36.13 11.175 5.5 14.22 8.133 4.63 16.803.614 22.875-4.03.545-.386 1.1-.877 1.72-1.406 1.56-1.33 2.878-2.635 3.906-3.75.03-.043.096-.114.125-.156 1.27-1.33 2.593-2.78 3.906-4.28l.156.313c4.416 7.89 10.233 15.483 19.094 14.812 1.07-.186 1.05-1.106 1.063-2.25l-.062-7.25c.03-.8-.583-1.212-1.625-1.312-.486-.043-1.42-.055-1.937-.312-2.356-1.157-3.478-3.29-5.406-6.406-1.274-2.06-2.458-4.296-3.687-6.625l12.312-15.47c2.76-3.774 1.233-4.032-1.28-4.032l-7.97-.03c-1.156.057-1.934.47-2.22.844L48.8 36.56l-3.594 4.688c-3.5-5.687-7.578-10.344-14.47-10.344zm177.78.438c-8.202 0-16.012 8.08-20.188 14.812-1.958 3.415-4.552 8.862-5.28 14.25-.742 5.36.126 11.143 5.5 14.188 11.232 6.388 23.484-3.686 28.5-9.187.358-.386.527-1.322.125-1.937l-4.72-6.062c-.857-1.015-1.777-1.13-2.937 0-2.986 2.915-4.59 5.334-9.375 7.406-3.516 1.515-5.484.72-6.187-.437-1.83-2.973 3.26-11.257 3.875-12.344 3.915-6.273 8.03-9.278 10.656-9.406.544-.03 1.544.28 2.53 1.28.97.972 1.993 2.435 3.094 4.25 2.232 3.716 4.55 8.554 7.125 13.156 4.4 7.888 10.03 15.047 18.906 14.375 1.057-.17 1.03-1.075 1.03-2.22l-.062-7.28c.044-.786-.566-1.196-1.594-1.28-.486-.044-1.42-.07-1.937-.312-2.37-1.157-3.196-2.9-5.125-6-2.045-3.316-3.67-7.3-5.844-11.188-4.486-8.06-8.888-16.062-18.094-16.062zm-92.25.687c-6.388 0-10.892 2.96-13.28 7.906h-.187c.245-1.63.377-3.598.406-5.312.014-.044.001-.937 0-.937 0-.557-.423-1-.97-1h-8.125c-.556 0-1 .443-1 1V97.03c0 .557.444 1 1 1h8.875c.56 0 1.03-.443 1.03-1V75.437c1.8.257 3.393.344 5.438.344 14.635 0 22.312-9.28 22.312-24-.001-12.52-5.453-19.75-15.5-19.75zm-3.156 8.938c4.928 0 7.25 4.083 7.25 12 0 10.476-4.524 14.375-10.656 14.375-2.2 0-3.975-.236-5.687-.75v-11.75c0-7.232 3.39-13.875 9.094-13.875zM30.67 42.186c.527-.03 1.544.28 2.53 1.28.973.972 2.086 2.42 3.188 4.25a74.74 74.74 0 0 1 1.594 2.75c-2.002 2.415-3.942 4.64-5.875 6.656-2.945 2.873-5.035 5.192-9.78 7.25-3.516 1.515-5.457.705-6.156-.437-1.815-2.973 3.26-11.288 3.875-12.375 3.918-6.274 8-9.246 10.625-9.375z"/></svg>