<?xml version="1.0" encoding="UTF-8"?>
<svg width="800" height="277.75" version="1.1" xmlns="http://www.w3.org/2000/svg">
	<path d="m536.59 84.843h263.41l-95.144 157.19h-168.27z" fill="#c10606"/>
	<path d="m188.6 276.99c-7.027-2.6366-14.514-9.954-20.44-19.835-6.6037-11.115-14.985-35.268-19.472-56.161l-1.5421-7.1601-9.5548 0.60474-29.463 1.4937-20.488 1.5118c-0.32051 0.31447-2.2254 3.4954-4.2332 7.0633-12.929 23.01-26.088 38.057-38.794 44.346-10.238 5.0798-20.833 3.326-28.943-4.8379-5.237-5.237-11.345-17.852-13.709-28.314-2.4431-10.764-2.6427-31.718-0.40517-41.545 1.8384-8.0853 5.8538-16.83 9.4762-20.652 5.3701-5.6724 13.123-7.0391 17.755-3.1446 2.5399 2.1408 2.558 2.2254 1.4332 5.9748-4.2815 14.229-5.8176 49.063-2.7636 62.688 1.4937 6.6521 3.5558 11.024 5.8901 12.5 3.5921 2.2557 9.8572-2.3101 16.328-11.883 3.8703-5.7329 12.095-20.368 12.095-21.468 0-0.27213-2.044-0.76196-4.5355-1.0885-6.4283-0.83454-12.966-3.9913-15.439-7.4685-1.657-2.3222-2.0863-4.0094-2.0863-8.2002 0-7.4382 0.78616-8.1276 7.6015-6.7247 8.2728 1.6933 23.071 2.7213 23.917 1.6449 0.8043-1.016 7.8616-19.956 12.427-32.916 5.0374-14.514 12.839-40.721 17.054-57.11 3.5075-13.643 4.2694-15.723 6.1683-16.794 3.0237-1.6933 6.2892-0.60474 8.9743 2.8544 6.8577 8.9864 7.9402 23.113 3.1809 41.526-3.707 14.362-10.885 36.103-16.57 49.853l-4.8681 12.137c-0.36284 1.1127 0.55636 1.282 5.8901 1.0885l23.446-0.76801c15.3-0.48379 17.072-0.6894 16.703-1.9654-0.76801-2.6004-5.6664-39.043-10.039-74.685-5.745-46.897-7.7769-58.659-12.095-70.187-2.7576-7.3475-5.4184-10.16-9.6334-10.16-14.695 0-44.713 34.893-52.684 61.248-2.4189 8.2063-2.2375 18.747 0.52612 22.418 3.7191 5.0193 9.7483 7.8616 17.658 8.1639 4.9407 0.22375 6.0595 1.1127 6.0595 4.8016 0 5.2007-3.9005 10.389-10.383 13.788-4.1606 2.177-16.812 2.2012-23.119 0.0363-6.0836-2.0863-12.458-7.9462-14.955-13.728-3.8703-8.9803-3.1446-24.189 1.8626-39.187 8.8291-26.512 32.093-56.24 54.124-69.14 8.1216-4.6867 17.749-7.5955 25.399-7.6076 8.805-0.012095 14.121 2.3161 20.156 8.8291 10.994 11.877 17.537 34.246 22.617 76.62 3.326 28.036 7.0936 55.866 10.027 73.989 8.4663 52.408 19.255 91.013 26.911 96.376 2.5036 1.8142 7.0028 0.31446 18.178-5.8357 6.3497-3.4954 9.071-4.6141 10.172-4.0517 7.5229 4.0275 5.8478 14.816-3.6284 23.022-2.0259 1.7658-6.2046 4.4146-9.2948 5.8659-4.6686 2.2194-6.8456 2.7032-12.984 2.9027-4.0517 0.13305-8.5389-0.19956-9.966-0.73777zm134.49-36.925c-8.2063-2.7213-14.598-7.8978-19.63-15.935l-2.5822-4.1122-2.3948 3.2474c-6.6521 9.0892-13.764 14.272-20.984 15.433-8.8896 1.4211-15.13-7.5108-17.537-25.012-2.7213-20.392 0.81034-75.399 5.5212-85.861 2.6004-5.7692 6.6521-10.28 12.107-13.437 5.0798-2.9148 8.2849-3.2051 10.281-0.92525 1.3486 1.4937 1.3606 2.419 0.14513 11.895-2.9209 22.938-4.9588 49.951-5.0919 67.538-0.0786 10.069 0.16932 18.626 0.60473 19.001s1.6328-0.45355 2.7939-1.8626c3.1446-3.828 10.801-18.989 10.801-21.39 0-1.2095 1.1853-4.475 2.6427-7.3778 3.1628-6.3376 6.6279-8.8291 12.246-8.8291h3.8703l1.028 9.4944c3.0237 28.423 12.784 45.325 23.119 40.396 3.3744-1.6086 4.221-3.9489 3.6284-10.063-0.33865-3.5498-1.7356-6.2288-8.8896-17.054-17.719-26.79-23.585-38.884-25.52-53.077-2.1166-15.118 6.4344-30.509 19.714-35.516 4.088-1.5421 6.2651-1.7961 12.724-1.4937 12.712 0.58659 20.368 5.2007 24.824 14.949 2.7818 6.0897 2.7697 16.364-0.0302 22.617-3.6284 7.9825-10.111 12.216-17.235 11.145-3.4107-0.51403-3.7675-0.78616-3.2898-2.4552 2.685-9.3432 2.7213-22.182 0.0786-26.209-3.5982-5.485-9.5548-4.2332-12.173 2.679-2.1589 5.6543-1.3606 13.443 2.1468 20.936 1.5118 3.2293 8.1216 13.861 14.695 23.627 13.619 20.259 15.372 23.391 16.57 29.668 2.4431 12.881-7.3657 29.85-21.123 36.544-6.634 3.2293-15.965 3.8098-23.131 1.4514zm121.23 0.78615c-7.8797-2.3948-15.161-10.075-19.376-20.44l-1.9533-4.7956-3.1144 4.6867c-8.563 12.905-21.275 20.658-29.439 17.961-7.541-2.4189-12.095-12.312-13.268-28.193-0.78615-11.248 1.8263-57.903 5.3398-95.427 0.72568-7.7406 1.2095-14.362 0.93129-14.713-0.27818-0.35075-8.8775-0.3447-19.255 0-16.068 0.60473-19.17 0.44145-20.851-0.60474-4.0275-2.6366-1.7416-9.9358 4.0517-12.929 1.8565-0.96758 6.4707-1.2095 19.835-1.3486 19.835-0.1028 18.505 0.4475 19.472-8.1337 1.4393-12.796 12.276-25.58 21.68-25.58 4.1122 0 4.8379 2.679 3.5196 12.978l-1.7416 14.381-0.57449 5.2914 76.295-0.88291v3.0237c0 8.7445-0.88292 8.9319-51.924 11.006l-24.752 1.2095c-1.0885 0.36284-1.3728 2.8664-3.7675 32.916-3.3381 41.848-4.7593 79.099-3.0237 80.732 0.99781 0.96758 6.5795-6.0897 11.218-14.211l4.2755-7.4866 0.60473-10.915c1.3304-22.061 4.4146-36.163 10.704-49.154 4.5113-9.2887 11.188-17.029 17.416-20.174 4.8681-2.4552 14.296-3.326 19.853-1.8324 4.6323 1.2458 10.722 5.4063 13.074 8.9319 6.3013 9.446 3.8884 22.484-4.596 24.83-4.9467 1.3667-7.8616-0.13909-8.4965-4.475-0.78616-4.9286-3.4591-10.692-5.4426-11.756-7.6499-4.0941-15.088 18.444-16.376 49.626-1.0643 25.659 3.1446 45.317 9.4944 44.399 4.1848-0.60474 9.446-12.276 12.699-28.259l1.6751-8.0914-3.3442-3.8098c-3.9913-4.5355-5.7329-9.966-5.6845-17.743 0.0726-11.127 4.7593-18.094 12.167-18.094 2.1287 0 5.0435 0.60473 6.4707 1.3486 3.054 1.5723 7.4382 8.1035 8.2244 12.228 0.30237 1.5844 0.9071 3.1144 1.3546 3.3865 1.9775 1.2216 14.719-9.5125 20.259-17.066 3.5075-4.8379 5.8841-4.85 7.8132-0.24189 2.6366 6.3014 0.88292 13.897-4.7169 20.482-5.104 6.005-12.204 12.083-18.293 15.723l-4.7472 2.7939-1.0764 7.7406c-1.3486 9.7-5.4426 23.198-9.5972 31.102-4.1969 8.1216-12.917 16.933-18.704 18.892-4.4327 1.4937-10.607 1.7719-14.35 0.63498zm-239.63-4.0638c-3.1688-4.0275-4.0154-8.9198-7.3354-42.29-4.9588-49.747-6.1502-70.471-4.4146-76.299 3.0237-10.196 14.647-19.515 20.035-16.062 0.61683 0.39308 1.2337 5.37 1.6328 13.183 0.60473 11.569 0.85872 15.348 1.2095 16.419 0.0605 0.22375 1.4997-2.4976 3.2051-6.0474 3.9912-8.3151 7.7829-12.893 13.032-15.699 8.303-4.4448 16.328-3.707 20.053 1.8142 1.8565 2.7334 2.0259 3.7494 1.7174 10.383-0.39912 8.4663-3.326 16.165-7.1782 18.747-3.0539 1.9956-4.9407 0.84663-5.9385-3.6284-1.3607-6.0957-2.8423-10.299-3.6163-10.299-1.282 0-4.596 6.5553-6.7912 13.413-5.4426 17.205-8.2244 36.254-9.0287 63.172-0.58659 19.448-0.58659 19.472-3.2656 25.097-4.6806 9.8209-9.5548 12.802-13.256 8.1035zm71.801-161.49c-1.1611-0.60474-2.9027-2.4189-3.8522-4.0517-3.3563-5.745-2.7032-25.598 1.1309-34.264 3.0721-6.9424 11.599-13.383 17.719-13.383 3.9187 0 5.7208 1.911 5.7208 6.0595 0 4.9891-6.0474 35.365-7.8616 39.519-2.3887 5.4426-8.4905 8.3937-12.929 6.126zm445.35 23.143-57.59 91.799v-54.407h-27.6v91.315h34.621l83.351-128.81zm-167.83 2.5883v26.403h40.99v101.19h28.023v-101.19h41.224v-26.403z" fill="#333"/>
</svg>
