<svg xmlns="http://www.w3.org/2000/svg" width="1053.929" height="483.317" viewBox="0 0 278.852 127.878"><path d="M76.887 112.918c-2.865-1.076-5.938-4.059-8.332-8.085-2.693-4.53-6.108-14.378-7.938-22.896l-.628-2.92-3.898.22c-2.144.122-7.55.395-12.012.608-4.463.213-8.222.492-8.353.62-.13.129-.907 1.424-1.724 2.88-5.272 9.38-10.636 15.514-15.814 18.078-4.174 2.068-8.494 1.354-11.798-1.95C4.254 97.337 1.764 92.196.8 87.931-.195 83.54-.277 75 .635 70.997c.75-3.297 2.386-6.861 3.864-8.42 2.19-2.312 5.347-2.87 7.237-1.28 1.036.872 1.044.907.584 2.436-1.746 5.8-2.371 20.001-1.126 25.556.608 2.711 1.449 4.495 2.402 5.095 1.464.92 4.021-.942 6.654-4.844 1.576-2.336 4.954-8.302 4.954-8.749 0-.111-.833-.31-1.852-.443-2.621-.34-5.285-1.629-6.294-3.044-.675-.946-.85-1.635-.85-3.342 0-3.031.319-3.313 3.1-2.741 3.373.693 9.406 1.109 9.75.671.327-.414 3.233-8.113 5.066-13.418 2.053-5.943 5.235-16.602 6.951-23.281 1.429-5.562 1.74-6.41 2.517-6.845 1.234-.693 2.566-.269 3.658 1.164 2.795 3.664 3.236 9.422 1.297 16.929-1.512 5.854-4.46 14.72-6.758 20.323-.995 2.425-1.888 4.651-1.985 4.947-.149.453.226.523 2.401.447 1.418-.05 5.719-.19 9.557-.312 6.24-.198 6.96-.282 6.808-.8-.313-1.057-2.31-15.917-4.092-30.445-2.344-19.118-3.17-23.912-4.93-28.611-1.123-2.995-2.209-4.14-3.928-4.14-5.992 0-18.229 14.226-21.478 24.968-1.012 3.346-.912 7.62.214 9.14 1.515 2.044 3.973 3.182 7.198 3.33 2.013.091 2.47.454 2.47 1.958 0 2.123-1.591 4.235-4.234 5.62-1.695.89-6.856.898-9.426.016-2.48-.85-5.08-3.239-6.097-5.599-1.577-3.661-1.283-9.839.76-15.973 3.6-10.808 13.083-22.924 22.062-28.186C40.39 1.19 44.315.004 47.433 0c3.59-.005 5.757.945 8.217 3.602 4.482 4.841 7.175 13.96 9.222 31.236C66.227 46.268 67.764 57.612 68.96 65c3.455 21.365 7.85 37.105 10.97 39.29 1.021.716 2.855.127 7.41-2.38 2.587-1.425 3.726-1.88 4.146-1.655 3.067 1.642 2.385 6.041-1.455 9.386-.826.72-2.53 1.797-3.788 2.394-1.904.904-2.79 1.103-5.292 1.184-1.653.053-3.481-.082-4.063-.3zm54.825-15.052c-3.345-1.106-5.95-3.22-8.003-6.497l-1.052-1.677-.977 1.324c-2.737 3.706-5.611 5.821-8.551 6.291-3.623.58-6.167-3.062-7.121-10.196-1.113-8.312.33-30.736 2.252-35.003 1.058-2.352 2.74-4.217 4.936-5.477 2.072-1.188 3.376-1.305 4.216-.377.55.608.555.963.06 4.85-1.19 9.351-2.02 20.362-2.075 27.533-.031 4.105.069 7.591.223 7.747.154.157.667-.186 1.139-.76 1.283-1.56 4.402-7.738 4.402-8.72 0-.47.484-1.825 1.077-3.011 1.29-2.583 2.703-3.601 4.992-3.601h1.577l.42 3.874c1.254 11.56 5.212 18.477 9.424 16.468 1.376-.656 1.72-1.61 1.48-4.103-.138-1.446-.707-2.537-3.625-6.949-7.223-10.923-9.593-15.853-10.402-21.637-.861-6.161 2.624-12.438 8.038-14.479 1.667-.628 2.555-.733 5.187-.61 5.181.239 8.304 2.119 10.12 6.093 1.134 2.483 1.128 6.67-.013 9.219-1.457 3.255-4.123 4.979-7.029 4.543-1.391-.209-1.535-.317-1.34-1 1.094-3.81 1.109-9.042.032-10.685-1.466-2.237-3.894-1.703-4.962 1.091-.88 2.304-.554 5.48.875 8.534.616 1.316 3.31 5.65 5.989 9.632 5.553 8.258 6.267 9.536 6.752 12.095.996 5.25-3.003 12.168-8.612 14.898-2.704 1.316-6.512 1.554-9.43.59zm49.418.318c-3.212-.977-6.18-4.107-7.898-8.331l-.796-1.956-1.27 1.91c-3.492 5.26-8.672 8.421-12 7.323-3.073-1.014-4.958-5.019-5.41-11.492-.319-4.585.744-23.604 2.176-38.903.295-3.158.466-5.856.38-5.997-.087-.14-3.62-.14-7.85 0-6.55.22-7.813.18-8.501-.272-1.642-1.075-.709-4.05 1.652-5.271.758-.392 2.638-.52 8.085-.549 8.083-.042 7.544.183 7.938-3.317.587-5.217 5.002-10.426 8.837-10.426 1.675 0 1.972 1.093 1.435 5.291-.26 2.038-.58 4.675-.71 5.862l-.235 2.157 15.552-.18 15.551-.18v1.258c0 3.565-.359 3.641-21.167 4.485-5.335.216-9.876.45-10.09.52-.441.145-.559 1.169-1.536 13.419-1.36 17.06-1.94 32.245-1.257 32.912.408.398 2.682-2.483 4.572-5.79l1.743-3.051.27-4.451c.544-8.993 1.796-14.742 4.366-20.037 1.838-3.787 4.561-6.942 7.099-8.224 1.985-1.002 5.828-1.357 8.094-.747 1.888.508 4.37 2.205 5.33 3.641 2.57 3.851 1.586 9.167-1.872 10.122-2.016.557-3.181-.057-3.463-1.823-.322-2.01-1.41-4.358-2.22-4.792-3.118-1.669-6.15 7.518-6.675 20.231-.434 10.46 1.28 18.476 3.867 18.1 1.705-.249 3.851-5.003 5.2-11.52l.682-3.298-1.364-1.55c-1.627-1.848-2.336-4.062-2.315-7.233.029-4.533 1.94-7.375 4.96-7.375.868 0 2.055.247 2.639.549 1.245.644 3.034 3.307 3.35 4.985.12.647.37 1.27.553 1.383.805.497 6-3.878 8.26-6.957 1.428-1.947 2.399-1.976 3.184-.096 1.074 2.568.36 5.664-1.925 8.35-2.081 2.448-4.975 4.925-7.458 6.387l-1.936 1.139-.44 3.154c-.55 3.954-2.247 9.457-3.912 12.68-1.71 3.311-5.267 6.903-7.626 7.702-1.807.61-4.323.722-5.849.258zm-97.69-1.656c-1.291-1.642-1.637-3.636-2.99-17.24-2.018-20.28-2.507-28.727-1.801-31.105 1.234-4.157 5.972-7.956 8.167-6.549.252.161.504 2.189.669 5.374.243 4.716.351 6.257.47 6.693.024.092.612-1.018 1.306-2.465 1.624-3.39 3.173-5.256 5.313-6.401 3.385-1.813 6.63-1.51 8.175.762.756 1.114.825 1.53.699 4.234-.163 3.477-1.359 6.59-2.927 7.618-1.246.816-2.014.347-2.422-1.48-.555-2.484-1.157-4.198-1.475-4.198-.522 0-1.875 2.672-2.768 5.468-2.241 7.014-3.35 14.78-3.68 25.753-.239 7.928-.24 7.94-1.332 10.23-1.908 4.004-3.898 5.22-5.404 3.306zm29.273-65.837c-.474-.243-1.18-.986-1.57-1.653-1.369-2.343-1.101-10.435.461-13.968 1.253-2.831 4.728-5.456 7.224-5.456 1.597 0 2.333.779 2.333 2.47 0 2.033-2.443 14.418-3.177 16.11-.974 2.243-3.462 3.422-5.27 2.497z"/><path d="M244.151 69.057l-25.146 2.695.278 25.29 34.701 30.836 24.868-27.985z" fill="#931407"/><g style="line-height:1.25"><path d="M237.16 78.677l2.225-2.503 12.207 10.847-2.225 2.504-4.584-4.074-11.103 12.495-3.09-2.746 11.103-12.495zm29.56 21.789l-18.56 10.348-3.214-2.856 8.126-19.62 3.42 3.038-6.625 14.28 13.413-8.248z" style="-inkscape-font-specification:'sans-serif Bold'" aria-label="TV" font-weight="700" font-size="28.222" font-family="sans-serif" letter-spacing="1.016" word-spacing="0" fill="#fff" stroke-width=".265"/></g><path d="M222.528 76.412a3.473 3.473 0 0 1 4.516-1.895 3.473 3.473 0 0 1 1.921 4.504 3.473 3.473 0 0 1-4.492 1.949 3.473 3.473 0 0 1-1.976-4.48" fill="#fff"/></svg>