<?xml version="1.0" encoding="UTF-8"?>
<svg width="800" height="326.03" version="1.1" xmlns="http://www.w3.org/2000/svg">
	<defs>
		<linearGradient id="A" x1="137.73" x2="169.55" y1="121.45" y2="121.45" gradientTransform="matrix(1.8077 0 0 1.8077 -18.903 -11.859)" gradientUnits="userSpaceOnUse">
			<stop stop-color="#26348c" offset="0"/>
			<stop stop-color="#5fc3e3" offset="1"/>
		</linearGradient>
		<linearGradient id="B" x1="116.77" x2="116.77" y1="143.23" y2="128.71" gradientTransform="matrix(1.8077 0 0 1.8077 -18.903 -11.859)" gradientUnits="userSpaceOnUse">
			<stop stop-color="#b74d98" offset="0"/>
			<stop stop-color="#8e4c96" offset="1"/>
		</linearGradient>
		<linearGradient id="C" x1="128.03" x2="165.34" y1="164.87" y2="164.87" gradientTransform="matrix(1.8077 0 0 1.8077 -18.903 -11.859)" gradientUnits="userSpaceOnUse">
			<stop stop-color="#ea175a" offset="0"/>
			<stop stop-color="#d5da01" offset="1"/>
		</linearGradient>
	</defs>
	<g>
		<path d="m750.64 0.1175h31.286c10.015 0 18.077 8.0623 18.077 18.077v289.27c0 10.015-8.0623 18.077-18.077 18.077h-31.286c-10.015 0-18.077-8.0623-18.077-18.077v-289.27c0-10.015 8.0623-18.077 18.077-18.077z" fill="#26348c"/>
		<path d="m524.52 0.1175a18.041 18.041 0 0 0-18.077 18.077v31.286a18.041 18.041 0 0 0 18.077 18.077h52.872v240.4a18.041 18.041 0 0 0 18.077 18.077h31.273a18.041 18.041 0 0 0 18.077-18.077v-240.4h52.872a18.041 18.041 0 0 0 18.077-18.077v-31.286a18.041 18.041 0 0 0-18.077-18.077zm-124.29-0.1175-82.261 0.11931a18.041 18.041 0 0 0-18.077 18.077v289.27a18.041 18.041 0 0 0 18.077 18.077h27.635a18.041 18.041 0 0 0 18.077-18.077v-109.45l31.953-0.0904 52.469 119.05c2.5308 5.7846 13.336 8.5829 22.699 8.5829h32.539c9.3639 0 22.186-14.1 13.898-29.712l-60.725-114.35c17.622-11.515 31.736-28.378 38.929-48.338 13.404-34.958 4.2536-77.076-22.524-103.27-18.92-19.33-45.8-29.795-72.705-29.882zm4.3458 60.951c21.125 2.2669 39.961 22.014 37.069 43.886-2.1801 22.13-24.59 37.42-45.927 36.1h-32.04v-80.45s26.946-0.45193 40.896 0.46278zm-192.04-60.833s-6.8999 0.00181-13.057 9.0421l-195.52 287.08c-10.711 15.727 2.6682 29.308 11.931 29.308h19.422c18.869 0 30.214 0.10123 35.673-7.9177l141.54-207.83v25.272a18.041 18.041 0 0 0 18.077 18.077h31.286a18.041 18.041 0 0 0 18.077-18.077v-116.87a18.041 18.041 0 0 0-18.077-18.077z" fill="#26348c"/>
		<path d="m246.26 246.81 33.719 26.324h38.04a18.041 18.041 0 0 0 18.077-18.077v-16.492a18.041 18.041 0 0 0-18.077-18.077h-38.04z" fill="#6db52b"/>
		<path d="m230.61 168.58a18.041 18.041 0 0 0-18.077 18.077v33.828l33.719 26.324 33.719-26.324v-33.828a18.041 18.041 0 0 0-18.077-18.077z" fill="url(#A)"/>
		<path d="m246.26 246.81-33.719-26.324h-38.024a18.041 18.041 0 0 0-18.077 18.077v16.492a18.041 18.041 0 0 0 18.077 18.077h38.04z" fill="url(#B)"/>
		<path d="m246.26 246.81-33.719 26.324v34.339a18.041 18.041 0 0 0 18.077 18.077h31.286a18.041 18.041 0 0 0 18.077-18.077v-34.343z" fill="url(#C)"/>
	</g>
</svg>
