<?xml version="1.0" encoding="UTF-8"?>
<svg width="800.01" height="359.75" version="1.1" xmlns="http://www.w3.org/2000/svg">
 <path d="m272.98 312.08c-9.942-2.087-19.144-5.736-22.539-8.937l-2.77-2.612 1.9-4.998c3.626-9.542 4.731-12.082 5.469-12.58 0.408-0.27501 3.417 0.718 6.685 2.208 17.52 7.984 31.299 8.637 35.538 1.684 4.678-7.673 0.024-13.084-16.164-18.795-15.341-5.412-21.889-9.933-26.379-18.214-3.937-7.261-4.014-20.198-0.168-28.316 6.225-13.141 18.526-20.279 34.943-20.279 12.006 0 28.344 4.18 32.142 8.223l1.696 1.805-3.211 7.715c-4.287 10.301-4.007 10.044-8.94 8.211-19.031-7.073-34.353-4.53-34.353 5.701 0 4.935 3.224 7.501 14.555 11.585 18.324 6.604 25.909 11.862 30.462 21.114 2.466 5.012 2.581 5.651 2.581 14.349 0 8.941-0.053 9.21-2.963 15.097-7.88 15.942-25.021 21.967-48.484 17.042zm95.487 0.245c-5.314-1.837-8.415-4.171-11.269-8.479-4.498-6.791-5.031-11.382-5.446-46.946l-0.374-32.06h-17.047l-0.511-2.724c-0.909-4.846-0.093-16.127 1.226-16.961 0.649-0.41 4.632-0.75101 8.851-0.75801l7.671-0.012v-13.618c0-10.039 0.273-13.991 1.039-15.038 1.523-2.083 25.436-5.304 26.53-3.573 0.40101 0.634 0.73501 8.145 0.74101 16.691l0.012 15.538h12.523c6.888 0 13.083 0.215 13.768 0.47801 1.661 0.638 1.543 3.139-0.572 12.11l-1.762 7.474-24.011 0.435 0.447 60.678 1.857 1.503c2.608 2.111 7.557 1.92 15.133-0.584 5.399-1.784 6.466-1.927 7.356-0.983 0.99401 1.053 5.177 17.712 5.163 20.559-0.028 5.457-30.366 10.059-41.327 6.269zm154.61 0.175c-23.772-6.255-37.096-31.449-33.807-63.922 3.017-29.789 20.071-47.339 46.002-47.339s43.038 17.715 46.027 47.659c2.8 28.051-7.398 52.217-25.572 60.596-9.192 4.238-23.1 5.519-32.65 3.006zm20.25-22.862c6.112-4.528 8.113-10.902 8.65-27.556 0.945-29.296-4.51-40.26-19.205-38.604-10.223 1.152-14.434 11.223-14.384 34.406 0.043 19.852 3.349 29.781 10.983 32.988 3.215 1.351 11.45 0.622 13.956-1.234zm-417.75 20.415c-2.198-0.574-1.754-2.799 4.861-24.362l30.768-100.58c3.144-10.385 6.06-19.324 6.48-19.865 0.56001-0.721 4.49-0.983 14.733-0.983 15.568 0 15.124-0.149 16.897 5.667l23.617 77.727 11.357 37.308c5.13 16.817 6.938 23.782 6.333 24.389-1.443 1.446-28.619 1.606-30.048 0.177-0.639-0.63901-3.411-9.512-6.16-19.717l-4.997-18.555h-35.82l-0.77701 2.95-4.703 18.661c-2.672 10.692-4.366 16.032-5.304 16.718-1.34 0.98-23.8 1.363-27.236 0.465zm67.856-59.511c0-0.576-2.107-9.87-4.683-20.652s-5.31-23.941-6.075-29.242c-1.249-8.644-2.616-12.707-2.616-7.773 0 4.319-3.471 21.055-8.139 39.242l-4.998 19.472h13.255c10.514 0 13.255-0.21701 13.255-1.048zm231.46 59.109c-0.708-0.708-0.946-10.4-0.95-38.747-6e-3 -39.918-0.288-44.058-3.687-54.171-1.766-5.254-1.904-6.288-0.956-7.159 1.394-1.28 18.782-8.335 20.544-8.335 2.351 0 7.707 10.134 7.707 14.584 0 0.72 2.414-1.213 5.704-4.569 7.841-7.997 11.401-9.622 21.081-9.622 7.73 0 11.191 1.129 12.297 4.011 0.492 1.283-6.407 20.564-7.932 22.167-0.77101 0.81001-1.603 0.77201-4.349-0.197-7.144-2.521-12.464-0.973-19.523 5.678l-2.557 2.409v35.926c0 23.26-0.287 36.462-0.814 37.448-0.752 1.406-1.76 1.522-13.217 1.522-8.598 0-12.692-0.29-13.347-0.944z" fill="#0a1f2c"/>
 <path d="m32.656 345.09c-42.124-85.781-43.548-171.91-3.961-239.67 16.752-28.673 40.971-54.839 66.164-71.483 44.158-29.173 109.05-40.64 170.17-30.073 45.815 7.921 86.736 27.614 119.32 57.423 9.23 8.443 19.667 19.798 18.543 20.173-0.47801 0.159-5.229-2.702-10.559-6.358-41.571-28.517-84.468-46.385-128.13-53.37-15.481-2.477-50.859-2.673-65.66-0.365-77.495 12.087-145.4 63.389-172.21 130.11-10.511 26.153-14.212 47.041-14.185 80.054 0.033 41.365 8.307 80.303 25.815 121.5 4.891 11.508 2.445 7.851-5.307-7.935zm695.15-33.906c-0.439-0.541-1.529-3.639-2.422-6.884l-19.36-69.837-17.791-65.299c-0.06-1.5-1.266 2.273-3.913 12.249-2.458 9.26-1.512 8.81-18.51 8.81h-14.498v59.371c0 57.893-0.038 59.391-1.522 60.185-2.63 1.408-24.878 1.051-26.351-0.422-1.102-1.102-1.236-7.644-1.236-60.185v-58.949h-15.326c-18.13 0-16.309 1.659-15.976-14.555l0.226-11.014 47.598-0.212c47.497-0.212 47.6-0.209 48.952 1.437 0.745 0.907 1.708 1.431 2.139 1.164 0.431-0.267 6.884-1.539 14.338-2.827 11.83-2.044 13.698-2.197 14.693-1.203 1.983 1.983 24.313 109.46 24.578 118.3 0.035 1.178 0.93001-2.46 1.987-8.085 1.774-9.437 23.758-102.27 25.555-107.91 0.436-1.368 1.257-2.666 1.824-2.883 1.032-0.396 23.103 2.205 25.697 3.028 2.377 0.75401 2.215 1.982-2.43 18.478l-14.096 49.951-15.518 55.072c-3.279 11.683-6.317 21.684-6.752 22.225-0.583 0.72501-4.766 0.98301-15.939 0.98301-11.173 0-15.358-0.258-15.947-0.98301z" fill="#ffc400"/>
</svg>
