<?xml version="1.0" encoding="UTF-8"?>
<svg width="800" height="148.13" version="1.1" xmlns="http://www.w3.org/2000/svg" xmlns:xlink="http://www.w3.org/1999/xlink">
	<defs>
		<linearGradient id="linearGradientBase" x1="-593.86" x2="-592.86" y1="2555.4" y2="2555.4" gradientTransform="matrix(26.997,26.997,-26.997,26.997,85120,-52892)" gradientUnits="userSpaceOnUse">
			<stop stop-color="#3a3a3a" offset="0"/>
			<stop stop-color="#292929" offset="1"/>
		</linearGradient>
                <linearGradient id="linearGradient3" x1="99" x2="126.01" y1="63.05" y2="90.106" gradientTransform="matrix(1.2661 0 0 1.2661 -.0039005 0)" gradientUnits="userSpaceOnUse" xlink:href="#linearGradientBase"/>
		<linearGradient id="linearGradient2" x1="67.5" x2="113.52" y1="72" y2="72" gradientTransform="matrix(1.2661 0 0 1.2661 -.0038967 0)" gradientUnits="userSpaceOnUse" xlink:href="#linearGradientBase"/>
		<linearGradient id="linearGradient1" x1="-592.54" x2="-591.54" y1="2554" y2="2554" gradientTransform="matrix(34.18 34.18 -34.18 34.18 107767 -66964)" gradientUnits="userSpaceOnUse" xlink:href="#linearGradientBase"/>
	</defs>
	<g fill="#eddbab">
		<path d="m592.24 23.13-25.869 91.155h-17.828l-14.08-69.832-14.207 69.832h-17.955l-26.008-91.155h19.437l15.41 64.21 13.409-64.21h19.842l13.131 64.21 13.802-57.107c1.6081-4.6977 4.6977-7.1035 9.3827-7.1035h11.523z"/>
		<path d="m630.72 58.242c-10.586 0-15.144 8.8509-15.144 19.702v36.328h-17.828v-91.143h8.9776c5.9006 0 8.8509 3.0769 8.8509 8.9775v21.184c9.1168-10.459 20.247-13.409 33.517-8.7116 9.9146 3.6214 14.612 13.131 14.068 28.553v41.152h-17.689v-36.328c0-11.928-4.5584-19.702-14.751-19.702"/>
		<path d="m681.52 23.13c5.9006 0 8.7116 2.9503 8.5724 8.7116v5.2295h-17.828v-13.941zm0 20.247c5.7613 0 8.5724 2.811 8.5724 8.585v62.336h-17.828v-70.909h9.2561z"/>
		<path d="m719.86 56.102h-1.874v39.278c0 2.9503 1.7474 4.5584 5.2295 4.5584h5.4954v13.536c-5.7613 0.53182-12.067 0.53182-18.765-0.13928-6.6983-0.6711-9.9145-4.8243-9.7879-12.738v-77.468h9.2434c4.685 0 8.585 4.2925 8.585 8.9775v11.257h10.725v3.8873c0 5.0902-3.8873 8.8509-8.8509 8.8509"/>
		<path d="m767.85 115.88c-21.45-0.6711-32.175-13.143-32.175-37.265 0-24.122 10.852-36.189 32.441-36.328 22.526 0 33.112 13.802 31.77 41.557h-45.85c0.67109 10.864 5.3688 16.36 14.08 16.36 4.1532 0 8.0405-1.7474 11.535-5.0902 1.6081-1.7474 3.6214-2.5451 6.0272-2.5451h13.131c-3.8873 15.017-13.536 23.324-30.972 23.324m-13.536-44.774h26.679c-1.0763-9.3827-5.4954-14.207-13.131-14.207-7.6353 0-12.194 4.8243-13.536 14.207"/>
		<path d="m353.23 113.95-34.188-34.188-34.188 34.188z"/>
	</g>
	<path d="m330.44 113.95h22.792l-34.188-34.188z" fill="#d7c59e"/>
	<path d="m410.07 22.789-45.451 45.451-45.704-45.451-68.367 68.367-22.662-22.789 68.367-68.367h-45.577l-45.577 45.577-22.789-22.789h-45.577l45.577 45.577-22.789 22.789-68.367-68.367-91.156 91.156h45.577l11.395-11.395h68.367l11.395 11.395-34.184 34.184h45.577l56.972-57.099 22.789 22.789h45.577l45.577-45.577 45.577 45.577 91.156-91.156zm-318.92 45.577 11.395 11.395h-22.789z" fill="#3a3a3a"/>
	<path d="m250.68 91.156-45.577-45.577-22.662 22.789 45.451 45.577z" fill="url(#linearGradient1)"/>
	<path d="m45.574 79.761h79.761v22.789h-79.761z" fill="url(#linearGradient2)" opacity=".5"/>
	<path d="m113.94 45.704-22.789 22.662 45.577 45.577 22.789-22.789z" fill="url(#linearGradient3)"/>
</svg>
