<svg xmlns="http://www.w3.org/2000/svg" width="794.622" height="450" viewBox="0 0 210.243 119.062"><path d="M130.768 84.503h-14.611V67.042h60.016l6.963 25.267 6.585-20.424c.421-1.302.673-2.317 1.86-3.35 1.347-1.178 2.533-1.487 3.939-1.487l14.505-.006-16.929 52.021-21.474-.006L160.807 84.5l-10.563.003v34.559h-19.479V84.503zm16.626-2.735h15.422l10.97 34.564h17.198l14.962-46.435-10.425-.006a3.423 3.423 0 0 0-1.911.598 2.73 2.73 0 0 0-1.072 1.392l-8.212 27.486h-2.385l-7.934-29.478h-55v11.876h14.491v34.562h13.896zM54.591 66.074c-3.872-.519-6.846-2.559-8.596-5.897-1.094-2.087-1.436-3.978-1.271-6.986.224-3.992 1.411-6.789 4.102-9.64a14.331 14.331 0 0 1 6.402-3.953c1.664-.513 9.819-2.413 13.719-3.196l1.366-.272v-2.842c0-3.905-.412-4.778-2.626-5.566-3.35-1.19-9.328-.418-12.263 1.588-.547.373-1.178.676-1.4.676-.368 0-1.992-1.223-4.48-3.383l-.934-.808.696-.884c1.58-2 4.969-3.743 8.922-4.587 2.94-.628 9.157-.57 11.643.109 3.984 1.086 6.512 2.968 7.979 5.937l.898 1.81.14 14.979.41 17.352.39 3.383.118 1.01h-8.001l-.289-1.782c-.157-.979-.396-1.782-.53-1.782s-.525.202-.873.446a22.167 22.167 0 0 1-2.104 1.187c-4.966 2.494-9.724 3.594-13.416 3.1zm7.499-8.338c1.88-.617 4.405-1.908 6.5-3.322l1.723-1.164v-5.098c0-2.806-.084-5.1-.18-5.1-.382 0-9.303 2.413-11.104 3.005-2.564.842-3.473 1.327-4.349 2.323-1.773 2.02-1.975 6.711-.365 8.49 1.448 1.599 4.511 1.944 7.774.87zm38.153 8.375c-5.836-.825-10.308-4.206-13.074-9.876-1.352-2.775-1.981-4.907-2.382-8.088-.348-2.772-.18-7.842.342-10.235 1.911-8.801 7.586-15.192 15.518-17.481 1.594-.46 2.413-.533 5.892-.533 4.335-.006 5.791.258 7.884 1.414l.996.55.076-8.706c.084-9.474.084-9.483 1.515-11.18 1.069-1.271 2.312-1.756 4.789-1.871L123.995 0v64.904h-3.894c-4.34 0-4.158.076-4.208-1.739a10.984 10.984 0 0 0-.18-1.661l-.149-.668-.954.802c-2.393 2.028-5.173 3.49-7.783 4.093-1.908.44-4.927.617-6.585.379zm6.043-8.459c2.856-.743 5.687-2.615 8.041-5.317l1.136-1.307-.067-9.281-.07-9.281-.606-1.178c-1.094-2.132-3.661-3.201-7.698-3.201-3.661 0-6.868 1.268-9.256 3.656-6.147 6.155-5.6 20.116.965 24.633 2.284 1.571 4.798 1.998 7.555 1.277zm40.436 8.428c-4.534-.527-9.345-3.002-12.092-6.217-4.09-4.797-5.909-10.813-5.572-18.449.575-13.158 8.711-21.631 20.778-21.639 8.088-.006 14.21 4.503 16.457 12.12.438 1.484.541 2.545.634 6.467l.112 4.691h-29.102l.149 1.84c.55 6.893 4.337 11.811 10.016 13.004 4.203.884 7.889.006 12.356-2.94 1.016-.668 1.995-1.215 1.995-1.215l3.563 6.843-.99.654c-1.939 1.282-6.262 3.398-8.147 3.984-3.072.96-6.677 1.263-10.156.859zm10.998-30.451c-.006-2.124-1.159-4.685-2.73-6.068-4.057-3.571-11.767-1.936-14.71 3.12-.757 1.305-1.571 3.395-1.386 3.577.079.079 4.349.143 9.488.143h9.343l-.003-.772zM5.275 64.455c-1.563-.541-2.789-1.504-3.787-2.974C-.075 59.175.001 60.816.001 29.688V1.448l12.53.098c10.529.084 12.793.16 14.162.485 4.368 1.038 7.959 3.922 9.979 8.013 1.45 2.94 1.894 5.053 1.737 8.304-.14 2.915-.701 4.896-1.998 7.106-1.133 1.922-3.367 4.169-5.204 5.238l-1.417.822 2.385 1.167c5.953 2.909 8.95 8.464 8.599 15.952-.152 3.26-.558 5.002-1.714 7.362a15.532 15.532 0 0 1-7.909 7.499c-3.17 1.327-3.956 1.403-14.757 1.397-8.93-.003-9.979-.045-11.118-.438zm19.549-7.92c3.246-.945 5.359-3.072 6.537-6.593.662-1.972.564-4.657-.247-6.773-.687-1.784-2.853-4.034-4.747-4.924-2.749-1.291-3.661-1.422-10.866-1.543L8.79 36.59v20.531L16.214 57c5.499-.087 7.729-.208 8.61-.466zm-2.646-28.802c.898-.191 2.087-.614 2.648-.943 2.186-1.279 4.141-4.343 4.601-7.202.628-3.897-1.47-8.083-4.685-9.357-1.268-.502-1.759-.536-8.65-.623L8.79 9.516v18.57l5.878-.003c4.225-.003 6.341-.101 7.51-.351zm150.987-6.775h8.551v7.418l2.16-2.056c4.949-4.708 9.051-6.554 14.544-6.545 6.052.008 9.477 2.329 11.233 7.597.404 1.212.44 2.618.511 19.417l.079 18.113h-8.574V48.71c0-10.821-.087-16.696-.264-17.711-.46-2.637-1.748-3.549-4.722-3.336-3.198.23-6.402 2.295-11.699 7.544l-3.268 3.235v26.459h-8.551z" fill="#1f446e"/></svg>