<?xml version="1.0" encoding="UTF-8"?>
<svg width="800" height="137.91" version="1.1" xmlns="http://www.w3.org/2000/svg" xmlns:xlink="http://www.w3.org/1999/xlink">
 <g fill="#1f262f">
  <path d="m728.41 98.164c-3.065 0-5.534 2.469-5.534 5.534v28.68c0 3.065 2.468 5.534 5.534 5.534h60.51c3.065 0 5.534-2.469 5.534-5.534v-28.68c0-3.065-2.468-5.534-5.534-5.534zm44.195 6.611c6.989 0 10.971 3.775 10.971 10.694v5.134c0 6.919-3.982 10.694-10.971 10.694-2.481 0-5.835-0.246-6.883-0.421-0.594-0.105-0.913-0.383-0.913-1.082v-23.516c0-0.699 0.319-0.977 0.913-1.082 1.048-0.175 4.402-0.421 6.883-0.421zm-36.702 0.282h3.457c0.384 0 0.703 0.277 0.703 0.662v9.642h9.924v-9.642c0-0.384 0.313-0.662 0.697-0.662h3.457c0.384 0 0.703 0.277 0.703 0.662v24.598a0.71 0.71 0 0 1-0.703 0.703h-3.457c-0.384 0-0.697-0.318-0.697-0.703v-10.688h-9.924v10.688a0.71 0.71 0 0 1-0.703 0.703h-3.457c-0.384 0-0.698-0.318-0.698-0.703v-24.598c0-0.384 0.313-0.662 0.698-0.662zm36.702 3.806c-1.293 0-2.205 0.073-2.939 0.108v18.135c0.734 0.035 1.646 0.103 2.939 0.103 3.494 0 6.149-1.364 6.149-6.606v-5.134c0-5.242-2.655-6.606-6.149-6.606z" paint-order="stroke fill markers"/>
  <path d="m284.65 132.08c-2.889 0-6.53-0.613-9.716-1.838-0.245-0.094-0.448-0.292-0.263-0.788l0.788-2.101c0.096-0.255 0.278-0.352 0.525-0.263 2.658 0.967 5.514 1.838 7.878 1.838 3.939 0 6.04-1.576 6.04-4.202s-2.149-3.793-6.302-5.252c-5.567-1.956-8.403-3.939-8.403-7.615 0-4.202 2.889-7.09 8.403-7.09 2.626 0 5.565 0.419 7.878 1.576 0.332 0.166 0.343 0.31 0.263 0.525l-0.788 2.101c-0.104 0.277-0.278 0.352-0.525 0.263-2.658-0.967-4.989-1.313-7.09-1.313-3.151 0-4.727 1.576-4.727 3.676 0 2.626 2.073 3.482 6.565 5.252 4.175 1.645 7.371 3.443 7.878 7.878 0.55 4.811-3.151 7.353-8.403 7.353zm32.562-4.727c0.525-0.263 0.654-6e-3 0.788 0.263l0.788 1.576c0.262 0.523 0.263 0.788-0.263 1.05-2.363 1.313-5.514 1.838-8.14 1.838-7.09 0-11.292-4.202-11.292-13.392 0-8.403 4.727-13.918 11.554-13.918 2.101 0 4.464 0.263 7.09 1.576 0.263 0.263 0.481 0.279 0.263 0.788l-0.788 1.838c-0.129 0.301-0.263 0.525-0.788 0.263-1.576-0.788-3.676-1.05-5.514-1.05-5.777 0-8.14 5.252-8.14 10.766s1.838 9.979 8.403 9.979c2.101-0.263 4.202-0.788 6.04-1.576z"/>
  <use width="100%" height="100%" xlink:href="#B"/>
  <path d="m370 131.56c-0.525 0-0.613 0-0.788-0.525l-1.838-5.514h-10.766l-1.838 5.514c-0.079 0.252-0.263 0.525-0.788 0.525h-2.626c-0.525 0-0.696-0.306-0.525-0.788l8.666-24.421c0.525-1.313 0.788-1.576 1.838-1.576h1.05c1.313 0 1.576 0.263 2.101 1.576l8.403 24.421c0.106 0.308 0 0.788-0.525 0.788zm-11.554-28.098c-1.05 0-2.101-1.05-2.101-2.101s1.05-2.101 2.101-2.101 2.101 1.05 2.101 2.101c-0.263 1.05-1.05 2.101-2.101 2.101zm5.252 11.029-1.838-5.514h-0.263l-1.576 5.252-2.626 8.14h8.666zm1.576-11.029c-1.05 0-2.101-1.05-2.101-2.101s1.05-2.101 2.101-2.101 2.101 1.05 2.101 2.101-1.05 2.101-2.101 2.101zm12.603 3.414c0-1.313 0.525-1.838 1.838-1.838h9.453c4.727 0 7.878 3.151 7.878 7.353 0 3.151-1.576 5.514-4.202 6.565v0.263c2.101 0.525 2.889 2.101 3.414 3.939l2.101 7.878c0 0.263 0 0.788-0.525 0.788h-2.626c-0.263 0-0.525 0-0.788-0.525l-2.101-7.353c-0.788-2.889-2.626-3.676-5.252-3.676h-5.514v10.766c0 0.525-0.263 0.525-0.788 0.525h-2.101c-0.525 0-0.788 0-0.788-0.525zm10.766 1.313h-6.565v8.928h6.302c3.676 0 5.252-2.101 5.252-4.464 0-2.101-1.05-4.464-4.989-4.464zm18.382 23.371h-1.838c-0.525 0-0.788 0-0.788-0.788v-19.169c0-3.414 1.576-6.565 6.302-6.565h10.504c0.525 0 0.788 0.263 0.788 0.788v1.576c0 0.525 0 0.788-0.788 0.788h-10.241c-2.101 0-2.889 0.788-2.889 2.889v5.252h12.079c0.525 0 0.788 0.263 0.788 0.788v1.576c0 0.525 0 0.788-0.788 0.788h-12.079v11.554c-0.263 0.525-0.525 0.525-1.05 0.525zm37.551 0h-10.504c-4.989 0-6.302-2.889-6.302-6.565v-13.655c0-3.414 1.838-6.565 6.302-6.565h10.241c0.525 0 0.788 0.263 0.788 0.788v1.838c0 0.525 0 0.788-0.788 0.788h-10.241c-2.101 0-2.889 0.788-2.889 2.889v4.989h12.079c0.525 0 0.788 0.263 0.788 0.788v1.313c0 0.525 0 0.788-0.788 0.788h-12.078v6.565c0 1.576 0.788 2.889 2.889 2.889h10.504c0.525 0 0.788 0.263 0.788 0.788v1.576c-0.263 0.525-0.263 0.788-0.788 0.788zm5.778-24.684c0-1.313 0.525-1.838 1.838-1.838h9.453c4.727 0 7.878 3.151 7.878 7.353 0 3.151-1.576 5.514-4.202 6.565v0.263c2.101 0.525 2.889 2.101 3.414 3.939l2.101 7.878c0 0.263 0 0.788-0.525 0.788h-2.626c-0.263 0-0.525 0-0.788-0.525l-2.101-7.353c-0.788-2.889-2.626-3.676-5.252-3.676h-5.514v10.766c0 0.525-0.263 0.525-0.788 0.525h-2.101c-0.525 0-0.788 0-0.788-0.525zm11.029 1.313h-6.565v8.928h6.302c3.676 0 5.252-2.101 5.252-4.464 0-2.101-1.05-4.464-4.989-4.464zm30.198 23.371h-1.838c-0.525 0-0.788 0-0.788-0.788v-19.169c0-3.414 1.576-6.565 6.302-6.565h10.504c0.525 0 0.788 0.263 0.788 0.788v1.576c0 0.525 0 0.788-0.788 0.788h-10.504c-2.101 0-2.889 0.788-2.889 2.889v5.252h12.079c0.525 0 0.788 0.263 0.788 0.788v1.576c0 0.525 0 0.788-0.788 0.788h-12.079v11.554c0 0.525-0.263 0.525-0.788 0.525z"/>
  <use width="100%" height="100%" xlink:href="#C"/>
  <path d="m534.9 106.88c0-1.313 0.525-1.838 1.838-1.838h9.453c4.727 0 7.878 3.151 7.878 7.353 0 3.151-1.576 5.514-4.202 6.565v0.263c2.101 0.525 2.889 2.101 3.414 3.939l2.101 7.878c0 0.263 0 0.788-0.525 0.788h-2.626c-0.263 0-0.525 0-0.788-0.525l-2.101-7.353c-0.788-2.889-2.626-3.676-5.252-3.676h-5.514v10.766c0 0.525-0.263 0.525-0.788 0.525h-2.101c-0.525 0-0.788 0-0.788-0.525zm11.029 1.313h-6.565v8.928h6.302c3.676 0 5.252-2.101 5.252-4.464 0-2.101-1.313-4.464-4.989-4.464z"/>
  <use width="100%" height="100%" xlink:href="#D"/>
  <path d="m597.93 132.08c-2.889 0-6.53-0.613-9.716-1.838-0.245-0.094-0.441-0.313-0.263-0.788l0.788-2.101c0.107-0.285 0.278-0.352 0.525-0.263 2.658 0.967 5.514 1.838 7.878 1.838 3.939 0 6.04-1.576 6.04-4.202s-2.149-3.793-6.302-5.252c-5.567-1.956-8.403-3.939-8.403-7.615 0-4.202 2.889-7.09 8.403-7.09 2.626 0 5.565 0.419 7.878 1.576 0.332 0.166 0.346 0.303 0.263 0.525l-0.788 2.101c-0.114 0.303-0.278 0.352-0.525 0.263-2.658-0.967-4.989-1.313-7.09-1.313-3.151 0-4.727 1.576-4.727 3.676 0 2.626 2.073 3.482 6.565 5.252 4.175 1.645 7.371 3.443 7.878 7.878 0.55 4.811-3.151 7.353-8.403 7.353zm32.036-0.525h-10.504c-4.989 0-6.302-2.889-6.302-6.565v-13.655c0-3.414 1.838-6.565 6.302-6.565h10.241c0.525 0 0.788 0.263 0.788 0.788v1.838c0 0.525 0 0.788-0.788 0.788h-10.241c-2.101 0-2.889 0.788-2.889 2.889v4.989h12.079c0.525 0 0.788 0.263 0.788 0.788v1.313c0 0.525 0 0.788-0.788 0.788h-12.079v6.565c0 1.576 0.788 2.889 2.889 2.889h10.504c0.525 0 0.788 0.263 0.788 0.788v1.576c0 0.525 0 0.788-0.788 0.788z"/>
  <use x="311.96301" width="100%" height="100%" xlink:href="#B"/>
  <use x="152.83" width="100%" height="100%" xlink:href="#C"/>
  <use x="126.833" width="100%" height="100%" xlink:href="#D"/>
 </g>
 <path d="M44.116 32.562C51.731 35.45 54.62 42.54 54.62 49.368c0 12.605-10.504 21.008-23.634 21.008H6.04c-4.727 0-6.04-1.838-6.04-6.04V7.09c0-4.202 1.313-6.04 6.04-6.04h24.421c12.079 0 21.27 4.989 21.27 17.594 0 5.514-3.151 10.766-7.615 13.392zM15.493 27.31h13.392c3.151 0 7.353-1.313 7.353-6.827 0-3.939-2.626-6.302-6.827-6.302H15.493zm14.18 12.079h-14.18v17.594h14.18c7.615 0 9.716-4.989 9.716-8.928-.263-4.989-3.414-8.666-9.716-8.666zm87.444 30.986h-29.41c-14.705 0-18.382-9.191-18.382-18.119V19.169c0-9.453 4.727-18.382 18.119-18.382h28.36c1.576 0 1.838.525 1.838 2.363v8.403c0 1.576-.525 2.101-1.838 2.101H90.858c-5.252 0-6.565 2.626-6.565 6.04v7.615h28.36c1.576 0 1.838.525 1.838 2.363v7.615c0 1.576-.263 2.363-1.838 2.363H84.555v11.292c0 4.464 2.363 6.04 6.565 6.04h26.259c1.576 0 2.101.525 2.101 2.363v8.666c-.525 1.576-.788 2.363-2.363 2.363zM174.1 55.933h-22.583l-3.939 12.605c-.525 1.313-.788 1.838-2.889 1.838h-11.554c-1.313 0-1.576-1.05-1.313-2.101l20.482-61.972c1.313-4.464 3.151-5.252 7.353-5.514h6.04c4.464 0 6.04.525 7.615 5.514l20.482 61.972c.263.788 0 2.101-1.313 2.101h-11.817c-1.576 0-2.363-.263-2.889-1.576zm-18.907-12.342h15.493l-3.676-12.605-3.676-14.18h-.525l-3.676 14.18zm93.484-29.673h-17.856v54.357c0 1.576-.525 2.101-2.363 2.101h-10.504c-1.576 0-2.363-.525-2.363-2.101V13.918h-17.594c-1.313 0-1.838-.525-1.838-2.101V2.889c0-1.576.525-2.101 1.838-2.101h50.681c1.576 0 2.101.525 2.101 2.101v8.928c0 1.576-.788 2.101-2.101 2.101zm62.235 56.457h-29.411c-14.705 0-18.382-9.191-18.382-18.119V19.169c0-9.453 4.727-18.382 18.119-18.382h28.36c1.576 0 1.838.525 1.838 2.363v8.403c0 1.576-.525 2.101-1.838 2.101H284.39c-5.252 0-6.565 2.626-6.565 6.04v7.615h28.36c1.576 0 1.838.525 1.838 2.363v7.615c0 1.576-.263 2.363-1.838 2.363h-28.36v11.292c0 4.464 2.363 6.04 6.565 6.04h26.259c1.576 0 2.101.525 2.101 2.363v8.666c.263 1.576-.263 2.363-1.838 2.363zm107.664-9.716c0 4.727-1.576 8.14-7.353 9.453-5.252 1.313-13.392 1.313-16.806 1.313-22.846 0-32.037-6.827-32.037-29.936V3.151c0-1.576.788-2.101 2.363-2.101h10.504c2.101 0 2.363.525 2.363 2.101V42.54c0 10.766 3.151 16.018 15.756 16.018 1.838 0 6.827 0 10.241-.788V3.151c0-1.576.788-2.101 2.363-2.101h10.504c2.101 0 2.101.525 2.101 2.101zm74.314 9.716h-10.504c-1.576 0-2.363-.525-2.363-2.101V40.702h-26.785v27.835c0 1.576-.525 2.101-2.363 2.101h-10.504c-1.576 0-2.363-.525-2.363-2.101V3.151c0-1.576.788-2.101 2.363-2.101h10.504c2.101 0 2.363.525 2.363 2.101v24.684h26.785V3.151c0-1.576.525-2.101 2.363-2.101h10.504c2.101 0 2.363.525 2.363 2.101v65.123c0 1.576-.263 2.101-2.363 2.101zM537.006 0c7.615 0 16.543 1.576 22.058 4.464 1.576.788 1.576 1.313 1.05 3.151l-2.626 7.353c-.788 1.838-1.05 1.838-2.626 1.576-6.04-1.838-12.605-3.151-17.856-3.151-5.777 0-7.878 2.363-7.878 5.514 0 3.414 2.889 5.514 11.554 8.928 13.392 5.252 23.108 9.979 23.108 22.846 0 13.918-10.504 20.745-25.734 20.745-8.403 0-18.644-1.576-26.259-6.302-1.05-.525-1.313-1.313-.525-2.889l3.414-7.878c.788-1.576 1.313-1.576 2.889-1.05 5.252 2.101 12.867 4.727 19.695 4.727 8.403 0 10.766-3.414 10.766-6.827 0-3.939-2.626-6.302-11.029-9.453-13.918-5.252-23.108-10.504-23.108-21.533C513.372 8.666 520.725 0 537.006 0zm89.282 70.375h-29.411c-14.705 0-18.382-9.191-18.382-18.119V19.169c0-9.453 4.727-18.382 18.119-18.382h28.36c1.576 0 1.838.525 1.838 2.363v8.403c0 1.576-.525 2.101-1.838 2.101h-25.209c-5.252 0-6.565 2.626-6.565 6.04v7.615h28.36c1.576 0 1.838.525 1.838 2.363v7.615c0 1.576-.263 2.363-1.838 2.363H593.2v11.292c0 4.464 2.363 6.04 6.565 6.04h26.259c1.576 0 2.101.525 2.101 2.363v8.666c0 1.576-.263 2.363-1.838 2.363zm97.685-56.457h-17.856v54.357c0 1.576-.525 2.101-2.363 2.101H693.25c-1.576 0-2.363-.525-2.363-2.101V13.918h-17.594c-1.313 0-1.838-.525-1.838-2.101V2.889c0-1.576.525-2.101 1.838-2.101h50.681c1.576 0 2.101.525 2.101 2.101v8.928c-.263 1.576-.788 2.101-2.101 2.101zm44.116 39.914h.788l4.727-17.331 10.504-34.137c.525-1.313 1.313-1.576 2.626-1.576h12.079c1.313 0 1.313 1.05 1.05 1.576l-21.27 62.497c-1.576 4.727-3.414 5.252-7.09 5.252h-6.04c-3.939 0-5.777-.788-7.353-5.252L737.103 2.363c-.263-.788 0-1.576 1.313-1.576h11.817c1.838 0 2.363.525 2.626 1.838l10.504 33.612z" fill="#ee2529"/>
 <defs>
  <path id="B" d="M341.635 105.826c0-.525.263-.525.788-.525h2.101c.525 0 .788 0 .788.525v25.209c0 .525-.263.525-.788.525h-2.101c-.525 0-.788 0-.788-.525v-11.817h-13.392v11.817c0 .525-.263.525-.788.525h-2.101c-.525 0-.788 0-.788-.525v-25.209c0-.525.263-.525.788-.525h2.101c.525 0 .788 0 .788.525v10.241h13.392z"/>
  <path id="C" d="M528.865 131.56h-10.504c-4.989 0-6.302-2.889-6.302-6.565V111.34c0-3.414 1.838-6.565 6.302-6.565h10.241c.525 0 .788.263.788.788v1.838c0 .525 0 .788-.788.788h-10.241c-2.101 0-2.889.788-2.889 2.889v4.989h12.079c.525 0 .788.263.788.788v1.313c0 .525 0 .788-.788.788h-12.079v6.565c0 1.576.788 2.889 2.889 2.889h10.504c.525 0 .788.263.788.788v1.576c0 .525 0 .788-.788.788z"/>
  <path id="D" d="M579.021 105.563c0-.525.263-.525.788-.525h1.576c.525 0 .788 0 .788.525v23.896c0 1.313-.525 1.838-1.838 1.838h-1.05c-1.05 0-1.313-.525-2.101-1.576l-8.928-14.968-2.889-5.252h0v21.008c0 .525-.263.525-.788.525h-1.838c-.525 0-.788 0-.788-.525v-23.896c0-1.313.525-1.838 1.838-1.838h1.05c1.05 0 1.313.525 2.101 1.576l8.928 14.443 3.151 5.514h0z"/>
 </defs>
</svg>
