<svg xmlns="http://www.w3.org/2000/svg" width="800" height="132.206"><path d="M29.324 39.526H15.059v17.736h14.264c7.53 0 9.61-5.056 9.61-8.8 0-5.248-3.37-8.92-9.61-8.92M15.059 27.441h13.472c3.27 0 7.429-1.286 7.429-6.832 0-3.962-2.672-6.339-6.935-6.339H15.061zm28.826 5.152c7.531 2.973 10.602 10.106 10.602 16.842 0 12.584-10.4 21.101-23.68 21.101H5.947C1.19 70.536 0 68.753 0 64.494V7.232c0-4.16 1.19-6.144 5.946-6.144h24.269c11.989 0 21.303 5.053 21.303 17.536 0 5.447-3.173 10.795-7.632 13.274zm72.907 37.943H87.467c-14.661 0-18.327-9.216-18.327-18.228v-32.89c0-9.411 4.853-18.33 18.229-18.33h28.433c1.6 0 1.882.48 1.882 2.376v8.424c0 1.683-.4 2.179-1.882 2.179H90.637c-5.152 0-6.437 2.672-6.437 6.141v7.629h28.433c1.6 0 1.883.48 1.883 2.378v7.728c0 1.6-.296 2.278-1.885 2.278H84.198v11.293c0 4.557 2.278 5.944 6.442 5.944h26.153c1.683 0 1.981.397 1.981 2.379v8.419c0 1.6-.395 2.278-1.981 2.278m38.033-26.749h15.555l-3.765-12.579-3.664-14.17h-.592l-3.766 14.17zm19.12 12.288h-22.687l-3.864 12.579c-.4 1.286-.891 1.883-2.773 1.883H133.03c-1.387 0-1.683-.992-1.387-1.984L152.251 6.44c1.387-4.557 3.17-5.352 7.229-5.448h5.946c4.458 0 6.141.592 7.728 5.45l20.605 62.113c.296.794.096 1.984-1.288 1.984h-11.789c-1.488 0-2.48-.203-2.874-1.59zm74.587-42.007H230.6v54.385c0 1.688-.397 2.08-2.374 2.08h-10.602c-1.6 0-2.278-.491-2.278-2.08V14.051h-17.536c-1.387 0-1.88-.598-1.88-1.984v-8.8c0-1.685.395-2.08 1.88-2.08h50.721c1.6 0 1.984.395 1.984 2.08v8.8c0 1.386-.595 1.984-1.984 1.984m62.305 56.481h-29.324c-14.661 0-18.327-9.213-18.327-18.224v-32.89c.021-9.411 4.856-18.33 18.232-18.33h28.433c1.6 0 1.882.48 1.882 2.376v8.424c0 1.683-.397 2.179-1.882 2.179h-25.164c-5.152 0-6.439 2.672-6.439 6.141v7.629h28.433c1.6 0 1.882.48 1.882 2.378v7.728c0 1.6-.294 2.278-1.883 2.278h-28.433v11.293c0 4.557 2.278 5.944 6.44 5.944h26.154c1.685 0 1.981.397 1.981 2.379v8.419c0 1.6-.394 2.278-1.981 2.278m107.57-9.608c0 4.656-1.683 8.122-7.232 9.507-5.248 1.19-13.467 1.286-16.936 1.286-22.784 0-32.001-6.832-32.001-30.012l-.096-38.441c0-1.584.792-2.08 2.28-2.08h10.597c1.984 0 2.379.395 2.379 2.08v39.329c0 10.896 3.173 15.952 15.751 15.952 1.786 0 6.837-.099 10.304-.794V3.269c0-1.584.693-2.08 2.277-2.08h10.504c1.981 0 2.176.395 2.176 2.08zm74.491 9.608h-10.4c-1.686 0-2.278-.493-2.278-2.08V40.714h-26.849v27.738c0 1.688-.395 2.08-2.378 2.08h-10.501c-1.6 0-2.278-.491-2.278-2.08V3.267c0-1.6.694-2.08 2.278-2.08h10.503c1.981 0 2.378.4 2.378 2.08v24.669h26.849V3.267c0-1.6.592-2.08 2.277-2.08h10.4c1.981 0 2.374.4 2.374 2.08v65.185c0 1.688-.394 2.08-2.374 2.08M536.914 0c7.528 0 16.448 1.683 22.192 4.555 1.6.794 1.685 1.19.992 3.173l-2.56 7.429c-.693 1.88-1.088 1.88-2.678 1.488-6.139-1.885-12.579-3.173-17.928-3.173-5.76 0-7.927 2.475-7.927 5.45 0 3.467 2.774 5.447 11.594 9.015 13.469 5.248 23.082 10.106 23.082 22.984 0 13.869-10.4 20.704-25.856 20.704-8.52 0-18.727-1.686-26.253-6.243-1.088-.592-1.29-1.288-.595-2.971l3.368-7.928c.693-1.581 1.29-1.68 2.774-1.088 5.349 2.08 12.877 4.64 19.616 4.64 8.32 0 10.795-3.368 10.795-6.933 0-3.965-2.576-6.243-10.992-9.411-13.971-5.351-23.2-10.602-23.2-21.6 0-11.173 7.427-20.09 23.576-20.09m89.341 70.536h-29.324c-14.661 0-18.33-9.216-18.33-18.228v-32.89c0-9.411 4.854-18.328 18.231-18.328h28.433c1.584 0 1.883.48 1.883 2.376v8.423c0 1.683-.395 2.179-1.883 2.179h-25.16c-5.152 0-6.44 2.672-6.44 6.141v7.629h28.433c1.6 0 1.883.48 1.883 2.378v7.728c0 1.6-.296 2.278-1.885 2.278h-28.433v11.293c0 4.557 2.278 5.944 6.442 5.944h26.153c1.685 0 1.981.397 1.981 2.379v8.419c0 1.6-.395 2.278-1.981 2.278m97.765-56.468H706.09v54.385c0 1.688-.397 2.08-2.374 2.08h-10.602c-1.6 0-2.282-.491-2.282-2.08V14.051h-17.533c-1.387 0-1.882-.598-1.882-1.984v-8.8c0-1.685.394-2.08 1.882-2.08h50.721c1.6 0 1.981.395 1.981 2.08v8.8c0 1.386-.595 1.984-1.981 1.984m44.097 39.921h.693l4.64-17.335 10.6-34.081c.4-1.288 1.19-1.485 2.677-1.485h12.083c1.291 0 1.291.989 1.094 1.683l-21.303 62.513c-1.483 4.653-3.368 5.149-7.133 5.248h-6.144c-3.861 0-5.741-.792-7.328-5.349L736.91 2.773c-.296-.891 0-1.683 1.19-1.683h11.888c1.782 0 2.278.592 2.672 1.784l10.4 33.58z" fill="#ee2529"/><path d="M284.533 132.172c-2.877 0-6.624-.458-9.611-1.971-.227-.112-.339-.374-.15-.752l.907-2.006c.112-.267.341-.339.608-.227 2.608 1.173 5.6 1.819 7.907 1.819 3.824 0 6.093-1.514 6.093-4.205 0-2.611-2.118-3.859-6.243-5.373-5.565-2.042-8.365-3.824-8.365-7.683 0-4.123 2.952-6.96 8.4-6.96 2.499 0 5.526.448 7.911 1.512.32.15.374.301.264.64l-.832 2.12c-.152.346-.264.346-.493.267-2.573-.986-4.957-1.402-6.963-1.402-3.027 0-4.768 1.514-4.768 3.557 0 2.499 2.157 3.408 6.659 5.187 4.202 1.587 8 3.331 8 8 0 5.035-4.048 7.495-9.307 7.495m32.506-4.619c.568-.224.757.077.87.32l.72 1.592c.301.603.152.752-.189.986-2.459 1.435-5.603 1.738-8.024 1.738-7.075 0-11.28-4.128-11.28-13.287 0-8.512 4.64-14 11.544-14 2.155 0 4.502.262 7.04 1.549.304.15.451.379.187.874l-.87 1.739c-.152.304-.264.451-.68.262a13.701 13.701 0 0 0-5.525-1.173c-5.755 0-8.139 5.264-8.139 10.747 0 5.528 1.971 10.035 8.328 10.035 2.192 0 4.237-.571 6.016-1.368m24.426-21.645c0-.531.229-.646.72-.646h2.042c.528 0 .72.112.72.646v25.204c0 .533-.192.645-.72.645h-2.043c-.493 0-.72-.112-.72-.646v-11.808h-13.357v11.808c0 .533-.192.646-.72.646h-2.08c-.454 0-.72-.112-.72-.646v-25.236c0-.531.266-.645.72-.645h2.08c.533 0 .72.112.72.646v10.365h13.36zm23.612-2.389c-1.096 0-2.08-.984-2.08-2.038 0-1.024.984-2.008 2.045-2.008s2.08.96 2.08 2.008-1.024 2.042-2.045 2.042m-1.549 11.123l-1.782-5.562h-.187l-4.277 13.475h8.781zm-5.312-11.155c-1.059 0-2.08-.986-2.08-2.042 0-1.024 1.021-2.008 2.08-2.008 1.024 0 2.042.984 2.042 2.008 0 1.056-1.019 2.042-2.042 2.042m11.616 28.234c-.453 0-.717 0-.909-.571l-1.891-5.562h-10.672l-1.893 5.579c-.115.381-.341.57-.794.57h-2.573c-.493 0-.605-.346-.493-.717l8.552-24.32c.416-1.211.757-1.478 1.931-1.512h1.133c1.363 0 1.664.373 2.048 1.514l8.512 24.336c.152.336.04.717-.453.717zm18.805-23.356h-6.583v8.935h6.317c3.672 0 5.187-2.042 5.187-4.541 0-2.008-1.098-4.394-4.922-4.394m-10.181-1.28c0-1.325.493-1.931 1.931-1.931h8.666c4.808 0 7.987 3.099 7.987 7.45 0 3.029-1.632 5.493-4.277 6.477v.15c2.08.64 2.8 1.971 3.291 3.84l2.197 8c.075.264.112.682-.453.682h-2.501c-.224 0-.568-.04-.68-.493l-2.006-7.232c-.835-2.95-2.65-3.68-5.184-3.68h-5.411v10.743c0 .534-.189.646-.717.646h-2.107c-.491 0-.72-.112-.72-.646zm28.513 24.637h-1.896c-.528 0-.792-.112-.792-.72v-19.303c0-3.48 1.514-6.509 6.394-6.509h10.407c.608 0 .72.267.72.795v1.552c0 .602-.112.795-.72.795h-10.368c-2.08 0-2.989.87-2.989 2.838v5.301h11.959c.568 0 .68.189.68.752v1.478c0 .493-.112.795-.68.795h-11.962v11.509c0 .603-.187.715-.752.715m37.401.002h-10.52c-4.92 0-6.395-2.995-6.395-6.474v-13.552c0-3.478 1.76-6.507 6.395-6.507h10.331c.571 0 .68.267.68.795v1.592c0 .56-.112.755-.68.755h-10.295c-2.08 0-2.989.907-2.989 2.877v4.917h12.037c.566 0 .678.232.678.795v1.44c0 .491-.112.758-.678.758h-12.037v6.583c0 1.702.832 2.838 2.989 2.838h10.483c.608 0 .72.232.72.795v1.59c0 .528-.112.797-.72.797m16.948-23.356h-6.584v8.935h6.32c3.674 0 5.187-2.042 5.187-4.541 0-2.008-1.101-4.394-4.923-4.394m-10.179-1.28c0-1.325.49-1.933 1.931-1.933h8.664c4.808 0 7.987 3.101 7.987 7.451 0 3.029-1.629 5.493-4.277 6.477v.15c2.08.64 2.8 1.971 3.291 3.84l2.197 8c.077.264.112.682-.453.682h-2.485c-.224 0-.568-.04-.68-.493l-2.003-7.232c-.837-2.95-2.653-3.68-5.187-3.68h-5.413v10.743c0 .534-.189.646-.72.646h-2.12c-.493 0-.72-.112-.72-.646zm40.372 24.637h-1.896c-.528 0-.792-.112-.792-.72v-19.306c0-3.48 1.512-6.509 6.394-6.509h10.407c.608 0 .72.267.72.795v1.552c0 .602-.112.795-.72.795h-10.368c-2.08 0-2.992.87-2.992 2.838v5.301h11.96c.568 0 .68.189.68.752v1.478c0 .493-.112.795-.68.795h-11.962v11.509c0 .603-.187.715-.752.715m37.401.002h-10.52c-4.922 0-6.395-2.995-6.395-6.474v-13.552c0-3.478 1.76-6.507 6.395-6.507h10.331c.571 0 .68.267.68.795v1.592c0 .56-.112.755-.68.755H518.44c-2.08 0-2.989.907-2.989 2.877v4.917h12.035c.568 0 .68.232.68.795v1.44c0 .491-.112.758-.68.758h-12.035v6.583c0 1.702.832 2.838 2.989 2.838h10.483c.605 0 .72.232.72.795v1.59c0 .528-.112.797-.72.797m16.951-23.356h-6.587v8.935h6.323c3.674 0 5.187-2.042 5.187-4.541 0-2.008-1.101-4.394-4.92-4.394m-10.181-1.28c0-1.325.493-1.933 1.93-1.933h8.666c4.806 0 8 3.101 8 7.451 0 3.029-1.626 5.493-4.275 6.477v.15c2.083.64 2.8 1.971 3.296 3.84l2.192 8c.08.264.112.682-.453.682h-2.496c-.23 0-.573-.04-.685-.493l-2.005-7.232c-.832-2.95-2.648-3.68-5.184-3.68h-5.413v10.743c0 .534-.189.646-.72.646h-2.12c-.493 0-.717-.112-.717-.646zm42.972-1.254c0-.528.229-.64.72-.64h1.968c.493 0 .723.112.723.64v23.996c0 1.248-.416 1.896-1.856 1.896h-.986c-1.12 0-1.44-.416-2.12-1.517l-9.008-14.909-2.987-5.147h-.118v20.919c0 .536-.184.65-.717.65h-1.971c-.453 0-.715-.112-.715-.65V107.12c0-1.253.454-1.893 1.856-1.893h.982c1.098 0 1.398.416 2.08 1.514l8.819 14.568 3.216 5.491h.112zm19.296 26.304c-2.877 0-6.624-.456-9.613-1.968-.229-.112-.341-.376-.152-.755l.909-2.006c.112-.267.339-.339.605-.227 2.611 1.173 5.603 1.819 7.909 1.819 3.824 0 6.093-1.514 6.093-4.205 0-2.611-2.117-3.859-6.243-5.373-5.565-2.042-8.363-3.824-8.363-7.683 0-4.123 2.952-6.96 8.4-6.96 2.499 0 5.528.448 7.912 1.512.304.15.374.301.262.64l-.829 2.12c-.155.346-.267.346-.493.267-2.576-.986-4.96-1.402-6.965-1.402-3.027 0-4.768 1.514-4.768 3.557 0 2.499 2.155 3.408 6.661 5.187 4.203 1.587 7.984 3.331 7.984 8 0 5.035-4.051 7.495-9.312 7.495m32.092-.416h-10.522c-4.92 0-6.395-2.995-6.395-6.474V111.75c0-3.478 1.76-6.507 6.395-6.507h10.331c.571 0 .68.267.68.795v1.592c0 .56-.112.755-.68.755h-10.295c-2.08 0-2.992.907-2.992 2.877v4.901h12.037c.568 0 .683.232.683.795v1.44c0 .491-.115.758-.683.758h-12.035v6.583c0 1.704.832 2.838 2.992 2.838h10.48c.603 0 .72.232.72.795v1.59c0 .528-.115.797-.72.797m23.648-25.848c0-.531.224-.646.717-.646h2.045c.528 0 .72.112.72.646v25.204c0 .533-.192.645-.72.645h-2.045c-.493 0-.717-.112-.717-.646v-11.809h-13.36v11.808c0 .533-.192.646-.72.646h-2.08c-.454 0-.723-.112-.723-.646v-25.207c0-.531.267-.645.723-.645h2.08c.528 0 .717.112.717.646v10.365h13.36zm28.193 25.85h-10.523c-4.918 0-6.397-2.995-6.397-6.474v-13.552c0-3.478 1.781-6.507 6.397-6.507h10.336c.566 0 .68.267.68.795v1.592c0 .56-.112.755-.68.755H671.41c-2.08 0-2.992.907-2.992 2.877v4.915h12.035c.566 0 .683.232.683.795v1.44c0 .491-.117.758-.683.758h-12.035v6.583c0 1.704.832 2.838 2.992 2.838h10.483c.603 0 .717.232.717.795v1.59c0 .528-.112.797-.717.797m23.834-25.888c0-.528.229-.64.717-.64h1.968c.496 0 .723.112.723.64v23.996c0 1.248-.419 1.896-1.856 1.896h-.984c-1.12 0-1.44-.416-2.12-1.517l-9.008-14.909-2.989-5.147h-.117v20.917c0 .536-.186.65-.72.65h-1.968c-.453 0-.717-.112-.717-.65V107.12c0-1.253.454-1.893 1.856-1.893h.981c1.101 0 1.402.416 2.08 1.514l8.816 14.568 3.224 5.491h.112z" fill="#1f262f"/></svg>