<?xml version="1.0" encoding="UTF-8"?>
<svg width="800" height="161.46" version="1.1" xmlns="http://www.w3.org/2000/svg">
	<g fill="#0a5286">
		<path d="m257.49 101.94c0 17.965-7.7308 34.46-25.275 34.46-17.551 0-25.275-16.495-25.275-34.46 0-18.174 7.7239-34.675 25.275-34.675 17.544 0 25.275 16.502 25.275 34.675zm-79.168 53.887h28.202v-13.786h0.41589c6.4735 11.909 19.636 16.721 35.513 16.721 21.509 0 44.69-17.339 44.69-57.028 0-39.483-23.181-56.82-44.69-56.82-13.372 0-26.744 5.0134-34.052 16.087h-0.41933v-54.311h-29.66v149.14"/>
		<path d="m323.89 6.6986h-29.664v24.44h29.664zm-29.664 149.14h29.664l-0.0193-106.81h-29.658l0.013 106.81"/>
		<path d="m415.98 101.94c0 17.965-7.735 34.46-25.276 34.46-17.549 0-25.271-16.495-25.271-34.46 0-18.174 7.7225-34.675 25.271-34.675 17.541 0 25.276 16.502 25.276 34.675zm-79.164 53.887h28.202v-13.786h0.41517c6.4742 11.909 19.632 16.721 35.504 16.721 21.51 0 44.701-17.339 44.701-57.028 0-39.483-23.191-56.82-44.701-56.82-13.366 0-26.733 5.0134-34.046 16.087h-0.41375v-54.311h-29.661v149.14"/>
		<path d="m478.41 90.249c0.42074-8.3508 5.85-22.975 24.645-22.975 14.417 0 20.896 7.9343 23.612 22.975zm77.909 18.801c2.0905-33.208-15.662-64.127-52.423-64.127-32.796 0-55.141 24.65-55.141 57.026 0 33.419 21.099 56.822 55.141 56.822 24.434 0 42.196-10.871 50.547-36.353h-26.113c-1.8752 6.6847-11.478 13.991-23.397 13.991-16.495 0-25.684-8.5633-26.523-27.36h77.909"/>
		<path d="m562.18 155.83h29.662v-149.14h-29.662v149.14"/>
	</g>
	<g>
		<path d="m716.6 48.94h-91.622v23.956h31.891v82.94h27.847v-82.94h31.884v-23.956" fill="#f89c0e"/>
		<path d="m800 48.94h-29.049l-20.96 79.497h-0.29158l-20.96-79.497h-29.049l33.687 106.9h32.034l34.589-106.9" fill="#f89c0e"/>
		<path d="m608.09 139.79c0-8.8645 7.19-16.056 16.057-16.056 8.8604 0 16.042 7.1912 16.042 16.056 0 8.8597-7.1816 16.044-16.042 16.044-8.8674 0-16.057-7.1839-16.057-16.044" fill="#0a5286"/>
		<path d="m82.155 75.592 11.067 6.747 48.044-28.973v-13.338l-59.11 35.564" fill="#f89c0e"/>
		<path d="m70.679 95.906v65.558l11.476-5.6153v-53.036l-11.476-6.9068" fill="#fee702"/>
		<path d="m70.679 82.499-59.768 35.957v13.42l48.291-29.063v53.036l11.477 5.6153v-65.558l59.767 35.97v-13.42l-59.767-35.957" fill="#f89c0e"/>
		<path d="m59.203 62.079v-0.0077l-48.399-29.108-10.711 7.065 59.111 35.538v-13.486" fill="#fee702"/>
		<path d="m141.36 111.63-59.203-36.046 59.11-35.564-10.711-7.065-48.399 29.108v-55.373l-11.476-6.6943-11.476 6.6943 11.477 5.8632v69.948l59.759 35.953 8e-3 -5e-3v13.419l10.911-7.0309v-13.207" fill="#fee702"/>
		<path d="m59.203 6.6986 2.82e-4 68.867 11.471 6.9414 0.0056 0.0026v-69.948l-11.477-5.8632" fill="#f89c0e"/>
		<path d="m70.679 82.51-11.486-6.9505-59.193 36.079h-2.7077e-4l2.7077e-4 13.207 10.912 7.0309v-13.419l0.0081 5e-3 59.759-35.953" fill="#fee702"/>
		<path d="m59.193 75.559-59.1-35.531v13.338l48.011 28.953 11.09-6.7595" fill="#f89c0e"/>
	</g>
</svg>
