<?xml version="1.0" encoding="UTF-8"?>
<svg width="800" height="267.13" version="1.1" xmlns="http://www.w3.org/2000/svg">
	<path d="m133.48 35.699c-54.031 0-97.802 43.819-97.802 97.873 0 47.987 34.449 87.914 79.967 96.291v-96.291h35.669v96.291c45.478-8.3781 79.937-48.303 79.937-96.291 0-54.054-43.73-97.873-97.771-97.873m0-35.699c73.71 0 133.45 59.807 133.45 133.57 0 73.73-59.743 133.56-133.45 133.56-73.715 0-133.48-59.832-133.48-133.56 0-73.766 59.761-133.57 133.48-133.57" fill="#554691"/>
	<path d="m765.81 82.63h34.186v-32.512h-34.186zm0.53452 163.08h33.116v-137.23h-33.116zm-101.07-80.474c0-18.118 7.2112-36.507 24.574-36.507 14.957 0 22.97 12.262 22.97 36.507zm71.042 47.697c-6.1422 4.5284-15.759 10.662-36.056 10.662-25.638 0-34.986-14.123-34.986-37.575h79.59v-6.3949c0-55.959-25.37-73.279-55.017-73.279-34.986 0-56.622 31.707-56.622 72.744 0 37.042 19.228 68.749 63.565 68.749 19.763 0 34.186-5.8617 41.129-8.7898zm-183.21 32.775h36.056l36.586-137.23h-32.046l-22.168 106.86h-0.53452l-22.698-106.86h-37.659l-23.237 106.86h-0.53455l-22.163-106.86h-34.191l37.126 137.23h36.324l24.039-106.85h0.5295zm-227.81 0h93.74v-25.046h-59.557l57.689-83.939v-28.247h-90.008v25.046h56.887l-58.754 83.674z"/>
	<path d="m534.63 85.664h7.3819v-27.384c0-8.2033 3.6884-12.31 9.4905-12.31 4.7452 0 7.3819 3.121 7.3819 10.349v29.345h7.3771v-31.577c0-9.986-5.2686-14.537-13.088-14.537-5.188 0-8.9621 2.2322-11.337 7.4064h-0.17605l-0.26165-6.7832h-7.1203c0.0907 3.2127 0.35223 6.5126 0.35223 9.8123zm-32.657-26.224c0.17605-10.614 4.3929-14.179 9.1381-14.179 5.8874 0 8.786 4.7249 8.786 14.179zm25.306 5.7106v-4.0148c0-13.378-5.6209-21.586-15.73-21.586-11.161 0-17.31 9.0971-17.31 23.369s6.1493 23.369 18.015 23.369c4.4836 0 9.0477-0.98072 12.565-2.6764l-0.35223-6.7781c-2.5462 1.8746-6.587 3.744-10.281 3.744-8.172 0-12.213-4.9035-12.213-15.426zm-93.481 20.513h7.3819v-28.094c0-8.2084 2.984-11.6 8.4336-11.6 4.3929 0 6.8538 2.6764 6.8538 8.4739v31.22h7.3771v-28.094c0-8.2084 2.989-11.6 8.4388-11.6 4.3929 0 6.8535 2.6764 6.8535 8.4739v31.22h7.3819v-31.577c0-9.986-5.2736-14.537-13.008-14.537-5.0925 0-8.5193 2.6764-10.894 7.1358-2.2845-4.638-5.797-7.1358-10.542-7.1358-4.9213 0-8.7004 2.2322-11.071 7.4064h-0.17605l-0.2667-6.7832h-7.1154c0.0856 3.2127 0.35226 6.5126 0.35226 9.8123zm-32.663-26.224c0.17605-10.614 4.398-14.179 9.1432-14.179 5.8874 0 8.786 4.7249 8.786 14.179zm25.311 5.7106v-4.0148c0-13.378-5.6258-21.586-15.73-21.586-11.161 0-17.31 9.0971-17.31 23.369 0 14.272 6.1491 23.369 18.015 23.369 4.4785 0 9.0477-0.98072 12.565-2.6764l-0.35226-6.7781c-2.5513 1.8746-6.5921 3.744-10.281 3.744-8.172 0-12.218-4.9035-12.218-15.426zm-56.077 20.513h7.3819v-24.084c0-9.8991 4.0408-14.895 9.7521-14.895 0.96614 0 1.9323 0.09195 2.8079 0.27073v-7.4064c-6.587 0-10.366 2.2322-12.741 7.759h-0.17605l-0.26169-7.1358h-7.1154c0.0856 3.2127 0.35225 6.5126 0.35225 9.8123zm-42.308-8.3873c0 2.7684-0.26166 5.6237-0.35223 8.3873h7.1203l0.26169-6.6912h0.17605c1.9323 3.5705 5.2736 7.3144 11.775 7.3144 9.2237 0 15.463-7.667 15.463-23.369 0-15.697-6.2398-23.369-15.463-23.369-5.0976 0-8.4337 2.0534-11.423 6.8701h-0.17605v-27.648h-7.3819zm7.3819-14.358c0-11.416 3.0747-17.3 9.8426-17.3 6.7631 0 9.8377 5.8844 9.8377 17.3 0 11.416-3.0747 17.306-9.8377 17.306-6.7682 0-9.8426-5.8894-9.8426-17.306z"/>
</svg>
