<?xml version="1.0" encoding="UTF-8"?>
<svg width="800" height="234.26" version="1.1" xmlns="http://www.w3.org/2000/svg">
	<path d="m288.75 15.547v5.586h3.17c2.2642 0 3.3203 0.90518 3.3203 3.3203v45.887h5.1328l3.0195-4.377c3.9245 4.3774 7.3948 5.7344 12.225 5.7344 11.321 0 17.209-7.8481 17.209-21.584 0-9.5094-4.8311-19.473-16.756-19.473-4.5283 0-8.4534 2.8682-11.02 6.3399h-0.15039v-21.434zm113.21 14.943c-11.472 0-19.17 8.4524-19.17 20.527 0 13.283 6.6427 20.529 19.473 20.529 10.868 0 16.604-5.5849 17.66-14.943h-6.793c-1.0566 5.7358-4.0761 8.7539-9.9629 8.7539-7.6381 0-9.6218-6.8347-9.3575-13.281h26.414c0.90601-9.51-4.6787-21.586-18.264-21.586zm56.754 0c-6.4906 0-9.9632 3.0198-13.133 8.3028h-0.15039v-7.0957h-17.508v5.4356h4.6797c2.2642 0 3.3203 0.90518 3.3203 3.3203v21.131c0 2.4151-1.0561 3.3223-3.3203 3.3223h-4.6797v5.4336h23.397v-5.4336h-2.416c-2.2642 0-3.3203-0.90713-3.3203-3.3223v-14.791c0-4.9811 4.075-9.8106 9.2071-9.8106 4.9811 0 5.7364 3.0172 5.7364 7.3946v17.359c0 2.4151-1.0561 3.3203-3.3203 3.3203h-2.416v5.4336h20.981v-5.4336h-2.2637c-2.2642 0-3.3203-0.90518-3.3203-3.3203v-14.793c0-5.434 4.2258-9.8106 9.2071-9.8106 3.1698 0 5.8868 1.9611 5.8868 5.1309v19.473c0 2.4151-1.0561 3.3203-3.3203 3.3203h-2.4141v5.4356h23.094v-5.4356h-4.3789c-2.2642 0-3.3203-0.90518-3.3203-3.3203v-19.623c0-7.3962-5.1308-11.623-11.471-11.623s-10.113 3.0194-13.736 7.8496c-1.5094-5.434-5.5855-7.8496-11.02-7.8496zm69.133 0c-11.472 0-19.17 8.4524-19.17 20.527 0 13.283 6.6427 20.529 19.473 20.529 10.868 0 16.604-5.5849 17.66-14.943h-6.793c-1.0566 5.7358-4.0761 8.7539-9.9629 8.7539-7.6381 0-9.6217-6.8347-9.3575-13.281h26.414c0.906-9.51-4.6787-21.586-18.264-21.586zm56.604 2e-3c-6.4906 0-11.019 3.3211-14.34 8.4532h-0.1504v-7.2461l0.1504-2e-3h-17.66v5.4356h2.7188c4.2264 0 5.2813 0.90522 5.2813 4.377v19.924c0 2.4151-1.0561 3.3223-3.3203 3.3223h-4.6797v5.4336h24.303v-5.4336h-3.1699c-2.2642 0-3.3203-0.90713-3.3203-3.3223v-15.094c0-5.283 5.2824-9.5098 9.2071-9.5098s7.2461 1.3601 7.2461 7.5489v17.207c0 2.4151-1.0576 3.3203-4.5293 3.3203h-1.961v5.4356h24v-5.4356h-3.0195c-3.9245 0-4.9805-0.90518-4.9805-3.3203v-17.811c0-8.9057-4.3788-13.283-11.775-13.283zm-216.3 0.14844c-4.3774 0-6.9431 2.5676-10.264 7.5489h-0.15235v-6.4922h-17.811v5.4356h4.5293c2.2642 0 3.3203 0.90518 3.3203 3.3203v21.131c0 2.4151-1.0561 3.3223-3.3203 3.3223h-4.5293v5.4336h26.113v-5.4336h-5.1328c-2.2642 0-3.3203-0.90713-3.3203-3.3223v-13.734c0-5.8868 3.4714-12.68 10.264-12.68 1.2075 0 2.567 0.15047 3.4727 1.207-3.0189 0.15094-5.4336 1.8126-5.4336 4.9824 0 3.3208 2.5659 5.2813 5.8867 5.2813 4.0755 0 6.3379-3.1698 6.3379-6.9434 0-6.0377-4.6779-9.0567-9.961-9.0567zm33.508 5.586c5.8868 0 7.5475 5.1318 7.3965 10.264h-15.244c0.3019-5.1321 2.2628-10.264 7.8477-10.264zm125.89 0c5.8868 0 7.5475 5.1318 7.3965 10.264h-15.246c0.30189-5.1321 2.2647-10.264 7.8496-10.264zm-214.04 0.75386c6.6415-0.15094 8.4532 3.9256 8.4532 14.039 0 9.5094-3.0192 14.037-8.4532 14.037-6.6415 0-8.4532-4.0746-8.4532-14.037 0-9.5094 3.0192-14.039 8.4532-14.039zm295.85 52.682c-20.83 0-35.473 10.717-46.492 27.17h-0.60351v-23.094h-57.207v17.66h8.754c13.887 0 17.057 3.0182 17.057 14.49v64.604c0 7.6981-3.1696 10.719-10.717 10.719h-15.244v17.658h78.491v-17.658h-10.414c-7.5472 0-10.719-2.8697-10.719-10.719v-49.358c0-17.057 17.059-30.643 29.889-30.643 12.83 0 23.547 4.2272 23.547 24.303v55.547c0 7.6981-3.1697 10.717-14.34 10.717h-6.3399v17.66h77.887v-17.66h-9.6602c-12.83 0-16-2.8677-16-10.717v-57.66c0-28.83-14.34-43.02-37.887-43.02zm124.53 0c-23.547 0-48.906 13.585-48.906 40 0 47.849 84.077 32.756 84.077 59.02 0 10.868-11.472 16-20.83 16-23.547 0-39.699-11.473-45.133-35.02h-19.473l2e-3 0.15039v48.906h17.66l5.2832-9.6602c12.528 11.019 28.529 13.586 44.53 13.586 25.057 0 48.905-11.474 48.905-39.549 0-48.906-84.075-38.943-84.075-59.774 0-10.717 11.473-14.34 20.227-14.34 20.528 0 33.057 9.8116 39.547 29.283h17.358v-44.528h-14.643l-5.2813 9.0567c-11.472-7.6981-25.058-13.133-39.246-13.133zm-390.79 0.15234c-36.83 0-61.887 27.471-61.887 66.414 0 43.17 21.886 66.416 63.244 66.416 35.471 0 53.888-17.812 57.36-48.303h-22.19c-3.472 18.415-13.133 28.227-32.303 28.227-24.906 0-31.245-22.34-30.49-43.17h85.588c2.868-30.34-15.548-69.584-59.323-69.584zm72.145 3.7735v17.658h12.227c7.3962 0 10.717 3.0207 10.717 10.719v68.377c0 7.6981-3.1696 10.717-10.717 10.717h-12.227v17.66h78.34v-17.811h-13.133c-7.5472 0-10.717-2.8677-10.717-10.717v-96.604zm-72.743 14.793c19.019 0 24.302 16.604 24 33.358h-49.66c0.75472-16.755 7.5474-33.358 25.66-33.358z"/>
	<path d="m234.26 117.13c0 64.604-52.377 117.13-117.13 117.13-64.755 0-117.13-52.528-117.13-117.13 0-64.755 52.377-117.13 117.13-117.13 64.604 0 117.13 52.377 117.13 117.13zm-31.245 0c0-47.396-38.491-85.887-85.887-85.887-47.396 0-85.887 38.491-85.887 85.887 0 42.113 30.34 77.132 70.189 84.377v-84.377h31.245v84.377c40-7.2453 70.34-42.264 70.34-84.377z" fill="#abc434"/>
</svg>
