<svg xmlns="http://www.w3.org/2000/svg" width="536.205" height="450"  fill="#1f3b68"><path d="M358.236 277.27h0c35.235 0 64.558 13.056 64.558 40.262 0 24.995-36.608 44.311-71.936 44.311-53.527 0-76.241-12.591-84.899-36.585H153.32c-6.982 80.523 81.291 110.033 119.924 118.132 1.932.465 29.161 5.981 69.702 6.516l.279.093c110.173 0 186.228-57.46 192.488-129.256 6.912-77.591-59.508-129.815-169.774-129.815h.093H182.83l-19.037 86.318h194.443zM502.619 0h0c-2.932 6.353-32.465 73.448-208.127 73.448h-85.806l-16.547 75.101h318.137V0zM56.017 183.691h0c-.838-.279-1.559 0-2.211.442-8.82 8.006-22.342 7.633-30.627-.628a22.13 22.13 0 0 1-.652-30.604 2.46 2.46 0 0 0 .465-2.118c-.372-.745-1.094-1.094-1.839-1.21C9.286 149.015 0 139.194 0 127.511c0-11.869 9.286-21.504 21.155-22.156.745 0 1.466-.442 1.839-1.094.186-.745 0-1.559-.559-2.211-7.913-8.82-7.54-22.249.745-30.51 8.378-8.448 21.806-8.727 30.627-.745.559.559 1.373.745 2.118.559.745-.372 1.094-1.094 1.187-1.932.652-11.869 10.403-21.132 22.156-21.132 11.869 0 21.527 9.286 22.156 21.132 0 .838.465 1.466 1.094 1.839.745.279 1.559.093 2.118-.442 8.82-8.006 22.342-7.633 30.72.745 8.378 8.355 8.634 21.69.652 30.51-.559.559-.745 1.396-.465 2.118.372.745 1.024 1.094 1.839 1.187 11.869.652 21.155 10.403 21.155 22.156 0 11.869-9.286 21.504-21.155 22.062-.815.093-1.466.465-1.839 1.094-.279.838 0 1.676.465 2.211 7.983 8.82 7.633 22.318-.652 30.604-8.448 8.355-21.876 8.634-30.627.628-.652-.559-1.373-.745-2.211-.442-.652.372-1.094 1.094-1.094 1.839-.652 11.846-10.403 21.132-22.156 21.132-11.869 0-21.62-9.286-22.156-21.132 0-.745-.465-1.466-1.094-1.839zM79.29 152.25h0c13.615 0 24.739-11.124 24.739-24.739 0-13.708-11.124-24.739-24.739-24.739-13.708 0-24.832 11.031-24.832 24.739 0 13.615 11.124 24.739 24.832 24.739z"/></svg>