<?xml version="1.0" encoding="UTF-8"?>
<svg width="742.18" height="450" version="1.1" xmlns="http://www.w3.org/2000/svg">
	<path d="m0 0v376.08h376.08v-376.08zm198.6 248.22a60.317 60.317 0 0 0 52.363-30.521l93.297 53.23a167.94 167.94 0 1 1 0-166.49l-93.297 53.375a60.462 60.462 0 1 0-52.363 90.404z"/>
	<path d="m725.26 349.18v-322.42h-107.47v134.38l-107.47-134.38h-107.47v322.42h107.47v-134.38l107.47 134.38z"/>
	<path d="m566.14 436.55 5.4966 12.44h12.729l8.8234-46.143h-15.477l-3.9055 20.251-7.6663-18.66-7.6662 18.66-3.7608-20.251h-15.477l8.8234 46.143h12.729z"/>
	<path d="m535.49 402.84h-45.998v13.452h14.32v32.69h17.358v-32.69h14.32z"/>
	<path d="m618.22 434.52a8.3895 8.3895 0 0 1-8.5341-8.5341 8.5341 8.5341 0 0 1 8.5341-8.6788 8.6788 8.6788 0 0 1 8.6788 8.6788 8.5341 8.5341 0 0 1-8.6788 8.5341zm0-32.546a24.012 24.012 0 1 0 24.012 24.012 24.012 24.012 0 0 0-24.012-24.012z"/>
	<path d="m437.7 448.99v-46.143h-15.333v19.238l-15.333-19.238h-15.477v46.143h15.477v-19.238l15.333 19.238z"/>
	<path d="m484.43 416.3v-13.452h-40.357v46.143h40.357v-12.44h-24.879v-4.6287h20.974v-11.572h-20.974v-4.0502z"/>
	<path d="m662.19 416.3h9.5467a3.9055 3.9055 0 1 1 0 7.6662h-9.5467zm28.93 2.893a16.635 16.635 0 0 0-17.358-16.345h-26.905v46.143h15.333v-12.729h4.7734l6.7983 13.452h17.213l-9.1127-15.333a16.779 16.779 0 0 0 9.1127-14.465z"/>
	<path d="m742.18 402.84h-19.672l-11.427 15.188v-15.188h-15.333v46.143h15.333v-17.213l11.427 17.213h19.672l-17.792-23.867z"/>
	<path d="m79.845 429.75 4.0502-14.465 4.0501 14.465zm13.597 19.238h16.345l-14.465-45.998h-22.999l-14.465 45.998h16.345l2.1697-7.6662h14.465l2.1697 7.6662z"/>
	<path d="m208.44 402.99h-45.998v13.452h14.465v32.546h17.213v-32.546h14.32z"/>
	<path d="m44.552 430.62a9.2574 9.2574 0 0 1-8.2448 4.7734 9.5467 9.5467 0 0 1 0-18.949 9.2574 9.2574 0 0 1 8.2448 4.7734l12.584-7.2323a24.012 24.012 0 0 0-44.841 11.861 24.012 24.012 0 0 0 24.012 24.012 24.446 24.446 0 0 0 21.553-12.006l-12.584-7.2323z"/>
	<path d="m234.33 434.67a8.6789 8.6789 0 0 1 0-17.358 8.6789 8.6789 0 1 1 0 17.358zm0-32.69a24.012 24.012 0 1 0 24.012 24.012 23.867 23.867 0 0 0-24.012-24.012z"/>
	<path d="m286.26 434.67a8.6789 8.6789 0 0 1 0-17.358 8.6789 8.6789 0 0 1 0 17.358zm0-32.69a24.012 24.012 0 1 0 23.867 24.012 24.012 24.012 0 0 0-23.867-24.012z"/>
	<path d="m360.75 448.99v-45.998h-15.333v19.094l-15.333-19.094h-15.333v45.998h15.333v-19.238l15.333 19.238z"/>
	<path d="m130.18 416.44h9.5467a3.7608 3.7608 0 0 1 3.9055 3.7608 3.9055 3.9055 0 0 1-3.9055 3.9055h-9.5467zm28.93 2.7483a16.49 16.49 0 0 0-17.358-16.201h-27.483v45.998h15.911v-12.729h4.918l6.6537 13.452h17.358l-9.1127-15.333a16.345 16.345 0 0 0 9.1127-14.465z"/>
</svg>
