<svg xmlns="http://www.w3.org/2000/svg" height="450" width="450" ><path d="M229.944 425.735c-59.741 0-115.923-26.077-154.583-71.868-3.743-4.434-3.184-11.061 1.251-14.804s11.062-3.183 14.803 1.251c34.647 41.038 85.003 64.412 138.535 64.412l2.854-.023c5.759-.116 10.578 4.541 10.667 10.341a10.51 10.51 0 0 1-10.342 10.667l-3.186.025m164.533-290.409c-3.566 0-7.042-1.815-9.012-5.094a182.47 182.47 0 0 0-64.882-63.797c-27.407-15.847-58.733-24.224-90.59-24.224-29.483 0-57.597 6.852-83.56 20.365-24.785 12.898-46.599 31.689-63.085 54.335a10.51 10.51 0 0 1-14.676 2.311 10.51 10.51 0 0 1-2.311-14.676c18.388-25.259 42.723-46.215 70.372-60.609 28.581-14.874 60.83-22.736 93.26-22.736 35.545 0 70.507 9.353 101.107 27.047a203.52 203.52 0 0 1 72.372 71.162 10.51 10.51 0 0 1-3.593 14.416 10.44 10.44 0 0 1-5.401 1.5m-11.573 293.489h0a12.25 12.25 0 0 1-11.055-6.967l-29.415-61.481a12.26 12.26 0 0 1 5.767-16.349c6.102-2.927 13.427-.335 16.348 5.767l18.354 38.371 18.36-38.371a12.26 12.26 0 0 1 16.348-5.767 12.26 12.26 0 0 1 5.764 16.349l-29.415 61.481c-2.035 4.259-6.337 6.967-11.058 6.967m-64.925-24.517c-4.424 0-7.551-2.47-9.022-3.943a12.66 12.66 0 0 1-3.735-9.02v-24.002h14.646a12.26 12.26 0 0 0 12.258-12.258 12.26 12.26 0 0 0-12.258-12.258H305.22v-15.227c0-6.767-5.489-12.257-12.258-12.257a12.26 12.26 0 0 0-12.258 12.257v15.227h-13.915a12.26 12.26 0 0 0-12.258 12.258 12.26 12.26 0 0 0 12.258 12.258h13.915v24.002c0 9.959 3.875 19.321 10.913 26.356 7.17 7.173 16.531 11.123 26.36 11.123a12.26 12.26 0 0 0 12.258-12.258 12.26 12.26 0 0 0-12.258-12.258M75.049 268.553c-18.209 0-33.022-14.813-33.022-33.023s14.813-33.021 33.022-33.021 33.024 14.813 33.024 33.021-14.815 33.023-33.024 33.023zm0-108.072a74.59 74.59 0 0 0-33.022 7.676v-20.932c0-11.605-9.409-21.013-21.013-21.013A21.02 21.02 0 0 0 0 147.226v88.304c0 41.381 33.666 75.049 75.049 75.049s75.05-33.668 75.05-75.049-33.668-75.049-75.05-75.049m200.482.001c-11.605 0-21.015 9.408-21.015 21.013v24.062c0 13.821-11.243 25.063-25.064 25.063s-25.064-11.241-25.064-25.063v-24.062c0-11.605-9.408-21.013-21.013-21.013s-21.015 9.408-21.015 21.013v24.062c0 29.653 19.348 54.86 46.077 63.7v21.415a21.02 21.02 0 0 0 21.015 21.013 21.02 21.02 0 0 0 21.015-21.013v-21.414c26.729-8.842 46.077-34.049 46.077-63.701v-24.062c0-11.605-9.409-21.013-21.013-21.013m107.374 150.097c-36.994 0-67.091-30.097-67.091-67.09v-61.994c0-11.606 9.408-21.014 21.015-21.014s21.012 9.409 21.012 21.014v61.994c0 13.82 11.244 25.063 25.065 25.063s25.067-11.244 25.067-25.063v-61.994c0-11.606 9.409-21.014 21.015-21.014S450 169.89 450 181.495v61.994c0 36.993-30.097 67.09-67.094 67.09"/></svg>