<svg xmlns="http://www.w3.org/2000/svg" version="1.1" id="Layer_1" x="0" y="0" xml:space="preserve" width="500" height="125.762"><style type="text/css" id="style2"></style><path id="polygon4" d="M278.963 0c-6.86 0-11.434 3.81-11.434 9.908 0 5.336 3.812 7.623 8.385 8.385l5.336 1.523c3.049.763 3.81 1.526 3.81 3.813 0 2.286-2.287 3.81-5.335 3.81-3.05 0-5.336-1.524-6.098-3.81h-6.86c.763 6.097 5.336 9.908 12.958 9.908 6.097 0 11.433-3.81 11.433-9.908 0-4.573-3.05-7.622-8.385-9.147l-6.097-1.525c-2.287-.762-3.81-1.524-3.81-3.81 0-2.287 2.286-3.811 5.335-3.811s5.336 1.524 6.098 3.81h6.86C290.395 3.811 285.822 0 278.962 0zm16.006.762v6.097h9.146v25.916h6.098V6.86h9.146V.762zm31.25 0v32.013h6.097V.762zm15.244 0v32.013h6.098v-20.58l15.244 20.58h6.097V.762h-6.097v21.342L347.56.762zm50.305 0c-10.671 0-16.006 8.385-16.006 16.77 0 8.383 5.334 16.767 16.767 16.767 7.622 0 13.72-4.574 15.244-11.434h3.05v-6.097h-16.007v5.336h6.098c-.762 3.81-3.812 5.335-8.385 5.335-6.86 0-10.67-5.336-10.67-10.671 0-5.336 3.811-10.67 9.909-10.67 3.81 0 6.86 1.525 7.623 4.574v.762h6.095v-.762c-.762-6.098-6.859-9.91-13.718-9.91zm24.39 0v32.013h6.098V22.104h5.336l4.572 10.671h6.86l-5.335-12.195c3.05-2.287 5.334-5.335 5.334-9.146 0-6.098-4.572-10.672-10.67-10.672zm55.64 0l11.432 19.054-6.097 12.96h6.861L500 .761h-6.86l-6.097 12.957L478.658.762zm-16.769.763l-11.431 31.25h6.859l3.049-6.86h9.146l2.287 6.86h6.86l-11.434-31.25zM422.256 6.86h6.098c2.286 0 4.572 2.288 4.572 4.575 0 3.048-1.524 5.334-4.572 5.334h-6.098zm35.822 3.813l3.049 9.908h-6.86z" fill="#000" fill-opacity="1" stroke-width="7.622"/><path id="path22" d="M106.707 17.531c-2.287 3.811-6.097 6.86-9.908 9.147-3.811 2.286-8.385 3.81-12.195 4.572h-.762v3.049h1.523c.762 0 1.526 0 1.526 1.525v83.84c0 .762-.001 1.525-1.526 1.525h-1.523v3.05h28.201v-3.05h-1.525c-.763-.762-1.524-.762-1.524-2.287V17.532zm-58.69 12.196c-6.86 0-12.957 1.524-19.054 3.81-6.098 2.287-10.671 6.097-15.244 10.67-4.573 4.573-7.622 9.147-9.908 15.244C.76 64.024 0 70.885 0 76.982c0 6.86 1.524 12.958 3.81 19.055 2.287 6.098 6.098 10.671 9.909 15.244 4.573 4.573 9.146 7.621 15.244 10.67 6.097 2.287 12.195 3.81 19.055 3.81 5.335 0 10.67-.76 15.244-2.284 4.573-1.525 9.146-3.813 12.957-6.862h.761v-3.81l-1.523.761c-3.81 3.05-8.384 5.337-12.957 6.862-4.573 1.524-9.909 3.049-15.244 3.049-5.336 0-9.147-.763-12.195-2.288-3.05-1.524-5.336-2.286-6.098-3.81-1.524-1.524-2.287-3.05-3.049-5.336-.762-2.287-1.523-5.336-1.523-8.385 0-3.049-.764-6.097-.764-9.908V60.976c0-3.81.001-6.86.764-9.91 0-3.048.76-5.334 1.523-7.62.762-2.287 1.525-3.812 3.049-5.337.762-1.524 2.287-3.048 6.098-4.572 3.048-1.524 7.622-2.287 12.195-2.287h.762c5.335 0 10.67.762 15.244 3.049 4.573 1.524 9.146 3.81 12.957 6.86l1.525 1.525v-3.811H76.22c-3.811-3.049-8.384-5.337-12.957-6.861-4.573-1.525-9.91-2.285-15.244-2.285zm395.58 22.103c-4.573 0-9.147.762-13.72 3.049-4.573 1.524-8.383 4.572-11.432 7.621-3.048 3.049-6.098 6.86-7.623 11.434-1.524 4.573-3.049 8.383-3.049 13.718 0 5.336.763 9.91 3.05 13.721 2.286 4.573 4.574 8.383 7.622 11.432 3.05 3.048 6.859 6.098 11.432 7.623 4.573 1.524 9.147 3.049 13.72 3.049 5.336 0 9.908-.763 14.481-3.05 3.811-1.524 7.623-4.574 10.672-7.622v6.097c0 .763-.001 1.526-1.525 1.526H465.7v3.049h30.488v-3.05h-1.525c-1.524 0-1.523-.762-1.523-1.525V70.885c0-.762-.001-1.526 1.523-1.526h1.525v-3.048h-.763c-5.336-.763-9.908-2.286-13.719-4.573-3.81-2.286-7.623-5.335-10.672-9.146h-2.285V62.5c-3.049-3.049-6.86-5.335-10.672-7.621-4.573-1.524-9.145-3.049-14.48-3.049zm-291.158.762c-4.573 0-9.147.762-13.72 3.049-4.573 1.524-8.385 4.572-11.434 7.62-3.049 3.05-6.097 6.861-7.62 11.434-1.525 4.573-3.05 8.384-3.05 13.72 0 5.334.762 9.909 3.05 13.72 2.286 4.573 4.571 8.383 7.62 11.431 3.049 3.05 6.86 6.1 11.434 7.623 4.573 1.525 9.147 3.05 13.72 3.05 5.336 0 9.908-.763 14.48-3.05 3.812-1.524 7.624-4.574 10.673-7.623v6.098c0 .762-.001 1.525-1.526 1.525h-1.523v3.05h30.486v-3.05h-1.523c-1.525 0-1.526-.763-1.526-1.525v-48.78c0-.761.001-1.525 1.526-1.525h1.523v-3.048h-.761c-4.574 0-9.146-1.524-13.72-3.811-3.81-2.287-7.622-5.336-10.671-9.146h-2.285v9.908c-3.049-3.05-6.861-5.335-10.672-7.621-4.573-1.525-9.145-3.05-14.48-3.05zm187.5 0v.762c-3.048 3.048-6.86 6.097-10.671 9.146-3.811 2.287-8.384 3.812-12.957 4.574h-.762v3.049h1.523c.762 0 .762 0 .762 1.523v48.782c0 .762-.762 1.523-.762 1.523h-1.523V125h28.963v-3.049h-1.524c-.762-1.524-.763-1.524-.763-3.049v-66.31zm45.73.762c-4.572 0-9.145.762-13.718 3.048-4.573 1.525-8.385 4.575-11.433 7.623-3.05 3.05-6.097 6.859-7.622 11.432-1.524 3.811-3.048 8.384-3.048 12.957v2.287c0 4.573 1.524 8.384 3.048 12.957 2.287 4.573 4.573 8.385 7.622 11.434 3.048 3.049 6.86 6.096 11.433 7.62 4.573 1.525 9.146 3.05 13.719 3.05 6.86 0 13.719-2.287 19.816-6.098h.764v-3.81l-1.525.761c-5.336 3.811-12.196 5.336-18.293 5.336-2.287 0-4.574-.763-6.098-2.287-2.287-2.287-3.048-5.335-3.81-9.908-.763-4.573-.762-10.67-.762-16.768v-7.623c0-6.097 0-11.432.761-16.767 0-4.574 1.524-8.384 3.811-9.909.762-1.524 3.05-2.287 5.336-2.287 6.86 0 12.958 2.288 18.293 5.336l1.523.762v-3.049h-.761c-5.336-4.573-12.195-6.097-19.055-6.097zm-149.39.761c-3.048 0-6.096.763-8.383 1.526-3.048 0-5.336.762-6.86 2.287-2.287 1.524-3.81 3.047-4.573 5.334-1.525 2.286-1.524 4.574-1.524 6.861 0 3.049.761 5.335 2.286 7.621 1.524 2.287 3.81 4.573 6.097 6.86 2.287 2.286 4.575 4.572 7.623 6.859 2.287 2.286 5.335 4.575 7.621 6.861 2.287 2.287 3.812 4.573 5.336 7.621 1.525 2.287 2.287 5.336 2.287 8.385 0 1.524 0 3.048-.763 3.81l-2.285 2.288c-.763.762-2.287.761-3.05.761h-3.048c-2.287 0-4.575 0-6.861-.761-2.287-.762-3.811-1.525-6.098-2.287-1.524-.763-3.048-2.287-4.572-3.81l-1.524-1.526v-.762h-3.049l.762 1.523c1.525 1.525 3.048 3.812 4.572 4.575 2.287 1.524 4.575 3.048 7.623 3.81 3.05.762 6.098 1.526 9.147 1.526 3.049 0 6.098-.764 9.146-1.526 3.05-.762 5.335-2.286 7.622-3.81 2.286-1.525 3.811-3.811 5.335-6.098 1.525-2.287 1.524-5.336 1.524-8.385-1.524-2.286-2.286-5.334-3.81-7.62-1.525-3.05-3.05-5.337-5.337-7.624l-6.859-6.86-6.86-6.859c-2.286-2.286-3.81-4.572-5.335-6.86-2.287-2.286-2.287-4.572-2.287-6.858 0-1.525.763-2.289 1.525-3.813 1.524-.762 3.048-.762 4.572-.762 2.287 0 4.575 0 6.862.762 2.286.762 3.81 1.525 6.097 2.287.762.762 1.523.763 2.285 1.526l.762.761s.764.762.764 1.524c.762.762.762 1.524.762 3.049v5.335h2.287V57.164h-2.287v3.049l-.762-.762c-.762-.762-1.525-1.523-2.287-1.523-2.287-1.525-3.81-2.287-6.86-3.05-2.286-.761-5.336-.763-7.623-.763zm51.069 0c-3.05 0-6.099.763-8.385 1.526-3.049 0-5.335.762-7.621 2.287-2.287 1.524-3.812 3.047-4.574 5.334-1.525 2.286-1.524 4.574-1.524 6.861 0 3.049.76 5.335 2.285 7.621 1.525 2.287 3.811 4.573 6.098 6.86 2.287 2.286 4.574 4.572 7.623 6.859 2.287 2.286 5.335 4.575 7.621 6.861 2.287 2.287 3.812 4.573 5.336 7.621 1.524 2.287 2.287 5.336 2.287 8.385 0 1.524 0 3.048-.764 3.81l-2.285 2.288c-.762.762-2.286.761-3.049.761h-3.048c-2.287 0-4.573 0-6.86-.761-2.286-.762-3.81-1.525-6.097-2.287-1.525-.763-3.05-2.287-4.575-3.81l-1.523-1.526v-.762h-3.049l.762 1.523c1.524 1.525 3.048 3.812 4.572 4.575 2.287 1.524 4.574 3.048 7.623 3.81 3.049.762 6.098 1.526 9.147 1.526 3.048 0 6.097-.764 9.146-1.526 3.049-.762 5.335-2.286 7.621-3.81 2.287-1.525 3.812-3.811 5.336-6.098 1.525-2.287 1.524-5.336 1.524-8.385 0-3.049-.761-6.098-2.286-9.146-3.048-1.525-4.574-3.81-6.86-6.86l-6.86-6.859-6.86-6.86c-2.286-2.286-3.811-4.572-5.336-6.859-1.524-2.286-2.285-4.573-2.285-6.097 0-1.525.762-2.289 1.524-3.813 2.286-.762 3.05-.762 5.336-.762 2.286 0 4.572 0 6.859.762s3.811 1.525 6.098 2.287c.762.762 1.525.763 2.287 1.526l.762.761s.761.762.761 1.524c.762.762.762 1.524.762 3.049v5.335h2.287V57.164h-2.287v3.049l-.762-.762c-.762-.762-1.525-1.523-2.287-1.523-2.286-1.525-3.81-2.287-6.86-3.05-2.286-.761-5.334-.763-7.62-.763zm-134.909.764c4.574 0 9.147.76 12.957 2.285 3.811 1.524 7.622 4.574 10.67 7.623.763.762 1.526 2.286 1.526 3.81v37.348c0 1.525-.763 3.049-1.526 3.81-3.048 3.05-6.096 5.337-10.67 7.624-3.81 1.524-8.383 3.049-12.957 3.049-2.286 0-3.811-.763-5.335-2.287-3.05-1.525-3.813-5.335-4.575-9.909 0-4.573-.761-10.672-.761-16.77v-7.62c0-6.098 0-11.432.761-16.768 0-4.573 1.526-8.386 3.813-9.91 1.524-1.524 3.049-2.285 6.097-2.285zm291.159 0c4.573 0 9.146.76 12.957 2.285 3.81 1.524 7.62 4.574 10.67 7.623.762.762 1.525 2.286 1.525 3.81v37.348c0 1.525-.763 3.049-1.525 3.81-3.05 3.05-6.097 5.337-10.67 7.624-3.811 1.524-8.384 3.049-12.957 3.049-3.05 0-4.574-.763-6.098-2.287-2.287-2.287-3.048-5.335-3.81-9.909 0-4.573-.764-10.672-.764-16.77v-7.62c0-6.098 0-11.432.763-16.768 0-4.573 1.524-8.386 3.811-9.91 1.524-1.524 3.049-2.285 6.098-2.285z" fill="#b69862" stroke-width="7.622"/></svg>