<?xml version="1.0" encoding="UTF-8"?>
<svg width="800" height="275.94" version="1.1" xmlns="http://www.w3.org/2000/svg">
	<path d="m691.98 149.38-30.654 106.23h22.09l3.214-13.541h28.511l2.864 13.541h22.455l-31.018-106.23zm8.906 28.868c0 1.429 0.299 3.571 0.89 6.42 0.597 2.858 1.129 5.474 1.61 7.843l7.135 31.018h-19.598l7.47-31.018c0.481-2.369 1.014-4.992 1.611-7.842 0.59-2.85 0.882-4.993 0.882-6.421zm-111.22-29.228v106.59h21.391v-33.868h9.27l14.249 33.868h21.04l-14.976-38.146c4.511-3.09 8.199-7.303 11.063-12.652 2.842-5.35 4.27-11.472 4.27-18.359v-2.5c0-9.977-3.031-18.3-9.095-24.955-6.057-6.661-13.833-9.977-23.344-9.977zm21.383 19.962h10.342c3.797 0 7.011 1.254 9.62 3.746 2.61 2.507 3.914 6.355 3.914 11.588v0.722c0 5.932-1.305 10.218-3.914 12.834-2.609 2.602-5.823 3.913-9.62 3.913h-10.342zm35.657-148.3v106.59h34.218c5.466 0 10.517-1.064 15.152-3.2 4.635-2.15 8.49-5.108 11.595-8.913 3.09-3.812 5.524-8.63 7.303-14.445 1.778-5.816 2.675-12.055 2.675-18.716v-19.255c0-5.947-0.897-11.53-2.675-16.755-1.779-5.233-4.213-9.752-7.303-13.549-3.105-3.797-6.96-6.72-11.595-8.724-4.635-2.019-9.686-3.032-15.152-3.032zm21.383 19.955h10.342c3.09 0 5.707 0.466 7.842 1.428 2.135 0.948 3.914 2.37 5.342 4.279 1.662 2.135 2.857 4.635 3.564 7.477 0.714 2.857 1.064 6.071 1.064 9.628v17.113c0 4.519-0.357 8.498-1.064 11.945s-1.91 6.355-3.564 8.739a16.795 16.795 0 0 1-5.342 4.628c-2.135 1.195-4.752 1.778-7.842 1.778h-10.342zm-262.74-21.384c-4.985 0-9.322 0.656-13.002 1.96-3.68 1.312-7.07 3.032-10.174 5.175-4.511 4.038-8.068 9.387-10.692 16.041-2.61 6.654-3.914 14.97-3.914 24.962v12.827c0 10.218 1.305 18.774 3.914 25.662 2.616 6.887 6.18 12.128 10.692 15.684a36.586 36.586 0 0 0 10.174 5.524c3.68 1.32 8.024 1.968 13.002 1.968 4.526 0 8.63-0.648 12.31-1.968a36.354 36.354 0 0 0 10.152-5.524c4.76-3.557 8.33-8.797 10.706-15.684 2.369-6.887 3.557-15.327 3.557-25.312v-13.184c0-9.992-1.188-18.308-3.557-24.969-2.376-6.647-5.94-11.996-10.706-16.034-3.09-2.143-6.48-3.863-10.152-5.175-3.688-1.304-7.784-1.953-12.31-1.953zm0 19.962c2.15 0 4.052 0.357 5.714 1.064 1.662 0.714 3.083 1.786 4.278 3.2 1.67 1.91 2.974 4.824 3.914 8.738 0.955 3.921 1.428 9.205 1.428 15.86v12.127c0 6.662-0.473 11.887-1.428 15.684-0.94 3.797-2.252 6.662-3.914 8.556-1.195 1.67-2.675 2.916-4.453 3.746a12.875 12.875 0 0 1-5.539 1.247c-2.369 0-4.511-0.408-6.406-1.247a10.928 10.928 0 0 1-4.643-3.746c-1.669-1.895-2.959-4.752-3.914-8.556-0.962-3.797-1.435-9.023-1.435-15.684v-12.128c0-6.654 0.473-11.938 1.435-15.859 0.955-3.914 2.252-6.836 3.914-8.738 1.195-1.414 2.733-2.493 4.643-3.2 1.887-0.707 4.03-1.064 6.406-1.064zm342.24 109.81v106.59h52.409v-19.612h-31.018v-86.977zm-210.34 19.96v86.634h21.041v-86.634h19.955v-19.955h-60.958v19.955zm-97.67-19.96v106.59h19.248v-61.672l28.883 61.672h18.891v-106.59h-19.598v62.394l-28.883-62.394zm-69.88 0v106.59h54.195v-19.612h-32.804v-24.583h27.804v-19.97h-27.804v-22.462h32.804v-19.955h-54.195zm-55.62 23.18c1.188-1.669 2.675-2.791 4.453-3.396 1.778-0.59 3.746-0.89 5.882-0.89 2.864 0 5.648 0.715 8.381 2.136 2.733 1.428 4.927 4.285 6.589 8.556l18.898-7.835c-3.098-8.082-7.668-14.03-13.724-17.827-6.064-3.797-12.776-5.692-20.152-5.692-4.512 0-8.724 0.715-12.652 2.136-3.921 1.42-7.303 3.323-10.167 5.699-4.512 3.797-8.017 9.03-10.502 15.684-2.507 6.654-3.754 14.97-3.754 24.962v13.184c0 10.218 1.247 18.665 3.754 25.312 2.492 6.661 5.99 11.887 10.502 15.684 2.864 2.39 6.238 4.169 10.167 5.35 3.928 1.188 8.14 1.778 12.652 1.778 7.842 0 14.686-1.837 20.494-5.525 5.823-3.68 10.276-9.212 13.374-16.566l-18.898-8.563c-1.67 4.278-3.797 7.128-6.414 8.563-2.61 1.422-5.466 2.136-8.564 2.136-2.135 0-4.096-0.299-5.881-0.897-1.778-0.583-3.265-1.72-4.453-3.389-1.67-1.654-2.967-4.445-3.914-8.381-0.962-3.914-1.436-9.198-1.436-15.859v-11.763c0-7.128 0.474-12.594 1.436-16.391 0.962-3.819 2.267-6.545 3.928-8.207z"/>
	<path d="m152.59 156.51c-3.09 5.692-7.543 10.276-13.366 13.724-5.838 3.447-12.186 5.167-19.088 5.167-10.203 0-18.949-3.622-26.194-10.874-7.252-7.244-10.874-15.983-10.874-26.2s3.622-19.009 10.874-26.384c7.244-7.368 15.983-11.049 26.194-11.049 6.902 0 13.25 1.837 19.088 5.525 5.823 3.688 10.276 8.257 13.366 13.724l28.868-16.398c-5.94-10.692-14.38-19.314-25.305-25.851-10.94-6.53-22.936-9.803-36.018-9.803-9.504 0-18.534 1.844-27.09 5.532-8.556 3.68-15.976 8.665-22.28 14.97-6.29 6.297-11.289 13.73-14.977 22.287-3.68 8.556-5.524 17.71-5.524 27.455s1.843 18.898 5.524 27.455c3.688 8.556 8.68 15.976 14.977 22.28s13.724 11.289 22.28 14.977c8.556 3.68 17.586 5.524 27.09 5.524 12.849 0 24.78-3.33 35.836-9.977 11.056-6.654 19.547-15.21 25.487-25.662z" fill="#fdc600"/>
	<path d="m495.9 127.27h17.462l15.684-58.109 6.778 58.109h19.605l-12.113-106.59h-19.962l-18.541 67.015-18.534-67.015h-20.327l-12.485 106.59h19.97l6.42-58.109zm76.29-106.59v106.59h56.33v-19.612h-35.304v-24.583h31.018v-20.334h-31.018v-22.105h35.304v-19.955zm175.4 55.251v51.338h21.398v-51.338l29.947-55.252h-23.176l-17.82 33.511-17.113-33.511h-23.176zm-433.51-32.447a11.082 11.082 0 0 1 4.453-3.2c1.778-0.706 3.746-1.064 5.882-1.064 2.864 0 5.648 0.766 8.381 2.318 2.733 1.538 4.927 4.57 6.589 9.081l18.898-8.549c-3.098-8.083-7.668-13.906-13.724-17.47-6.064-3.557-12.776-5.342-20.152-5.342-4.512 0-8.724 0.656-12.652 1.96-3.921 1.312-7.303 3.032-10.167 5.175-4.512 4.038-8.017 9.387-10.502 16.041-2.507 6.654-3.754 14.97-3.754 24.962v12.827c0 10.218 1.247 18.774 3.754 25.662 2.492 6.887 5.99 12.128 10.502 15.684 2.864 2.383 6.238 4.227 10.167 5.539 3.928 1.305 8.14 1.953 12.652 1.953 7.842 0 14.686-1.836 20.494-5.524 5.823-3.688 10.276-9.322 13.374-16.938l-18.884-8.214c-1.67 4.045-3.797 6.902-6.414 8.564s-5.466 2.492-8.564 2.492c-2.135 0-4.096-0.408-5.881-1.246-1.778-0.824-3.265-2.077-4.453-3.746-1.67-1.895-2.967-4.752-3.914-8.557-0.962-3.797-1.436-9.022-1.436-15.684v-12.119c0-6.654 0.474-11.938 1.436-15.866 0.947-3.913 2.252-6.829 3.914-8.738z"/>
	<path d="m258.11 137.61c0 19.015-3.63 36.966-10.874 53.838s-17.054 31.55-29.408 44.028c-12.361 12.485-26.973 22.338-43.846 29.597-16.879 7.244-34.83 10.874-53.852 10.874-25.662 0-49.13-6.537-70.404-19.605-21.274-13.075-37.84-30.188-49.727-51.338l28.876-15.684c8.797 15.684 21.398 28.395 37.796 38.146 16.398 9.737 34.218 14.613 53.466 14.613 14.263 0 27.812-2.74 40.653-8.207 12.827-5.466 23.942-12.885 33.321-22.28 9.394-9.387 16.879-20.443 22.462-33.154 5.59-12.71 8.374-26.317 8.374-40.827v0.721c0-14.496-2.791-28.103-8.374-40.821s-13.068-23.774-22.462-33.154c-9.38-9.394-20.494-16.821-33.321-22.287-12.842-5.459-26.39-8.206-40.653-8.206-19.248 0-37.068 4.883-53.466 14.62-16.398 9.751-29 22.462-37.796 38.146l-28.876-15.684c11.887-21.15 28.453-38.27 49.727-51.345 21.281-13.068 44.742-19.598 70.411-19.598 19.015 0 36.966 3.629 53.852 10.874 16.865 7.244 31.478 17.113 43.846 29.59 12.353 12.477 22.163 27.156 29.408 44.028 7.244 16.872 10.874 34.823 10.874 53.838v-0.722z" fill="#fdc600"/>
</svg>
