<?xml version="1.0" encoding="UTF-8"?>
<svg width="800" height="220.64" version="1.1" xmlns="http://www.w3.org/2000/svg">
	<path d="m740.1 220.64 59.901-220.64h-111.6l-5.5722 20.509 16.639 51.388h55.567l-44.964 32.582 17.181 52.781-44.887-32.582-34.671 25.152-19.27 70.813z" fill="#00a591"/>
	<path d="m97.126 89.93c0-35.91 26.081-68.337 68.956-68.337 17.49 0 28.171 4.2565 33.898 8.8227l-14.549 23.605c-5.1079-3.56-11.531-5.7271-21.051-5.7271-20.199 0-33.356 17.49-33.356 40.011 0 14.937 6.5783 23.76 19.657 23.76 10.835 0 18.342-5.1079 23.915-9.5193l12.383 23.218c-5.727 5.2626-19.115 12.847-39.47 12.847-35.6 0-50.382-22.211-50.382-48.68z"/>
	<path d="m190.22 88.768c0-35.445 27.087-67.099 68.647-67.099 33.898 0 51.388 21.515 51.388 48.68 0 36.297-26.468 68.337-67.95 68.337-33.975-0.0774-52.085-21.979-52.085-49.917zm86.215-17.8c0-13.699-5.2626-23.527-19.967-23.527-21.669 0-32.504 20.509-32.504 40.863 0 14.24 5.9592 24.61 20.664 24.61 21.515-0.0774 31.808-21.283 31.808-41.947z"/>
	<path d="m299.81 126.54 16.639-21.669c3.4053 2.8635 11.995 7.9714 23.373 7.9714 9.9836 0 15.943-1.8574 15.943-7.2748 0-5.2626-4.7209-7.8166-18.652-16.098-11.686-6.9653-22.056-16.098-22.056-33.898 0-22.521 19.812-33.898 44.036-33.898 19.967 0 29.641 6.114 35.058 10.371l-14.937 21.824c-4.2565-3.0183-11.841-7.2748-20.509-7.2748-7.6618 0-12.847 2.1669-12.847 7.1201 0 5.5722 4.9531 8.9775 15.943 14.937 11.841 6.4236 25.385 15.246 25.385 34.053 0 23.527-18.807 35.91-48.293 35.91-20.432 0-33.124-6.9653-39.083-12.073z"/>
	<path d="m417.84 23.682h31.034l6.8105 64.081c0.54175 4.1018 0.69654 9.9836 0.69654 13.389v3.56h0.30959c1.1608-3.56 3.4053-9.5193 7.1201-16.949l31.344-64.081h32.04l-4.721 112.92h-31.731l3.4053-47.441c0.54173-8.2809 1.5478-17.258 1.5478-17.49h-0.30959c0 0.15479-3.4053 9.1322-6.9653 16.949l-22.211 47.983h-30.492l-4.4114-47.828c-0.69654-7.1201-1.0061-16.948-1.0061-17.103h-0.30959c0 0.15479-2.167 9.9836-4.4114 17.49l-14.085 47.441h-29.177z"/>
	<path d="m534.78 88.768c0-35.445 27.087-67.099 68.647-67.099 33.898 0 51.388 21.515 51.388 48.68 0 36.297-26.468 68.337-67.95 68.337-33.975-0.0774-52.085-21.979-52.085-49.917zm86.215-17.8c0-13.699-5.2626-23.527-19.967-23.527-21.669 0-32.504 20.509-32.504 40.863 0 14.24 5.9592 24.61 20.664 24.61 21.515-0.0774 31.809-21.283 31.809-41.947z"/>
	<g fill="#1d1d1b">
		<path d="m534.62 207.95c0-7.5844-1.393-9.3644-1.393-9.3644s-6.4236-3.4826-19.425-3.4826c-2.7861 0-6.114 0.23219-9.4418 0.69653v-11.995h-5.6496v35.755s9.0548 1.0835 16.794 1.0835c14.162 0 17.8-2.9408 17.8-2.9408 0-0.0774 1.3157-1.9348 1.3157-9.7514zm-5.727 0.2322c0 2.0896-0.1548 4.1018-0.30959 5.4175-1.78 0.46436-5.8818 1.3157-13.002 1.3157-3.173 0-6.8879-0.2322-11.222-0.61914v-12.77c12.073-1.78 20.819 0.23219 24.147 1.2383 0.1548 1.2383 0.38695 3.3279 0.38695 5.4175z" clip-path="url(#SVGID_2_)"/>
		<path d="m573.93 207.95c0-7.5844-1.393-9.3644-1.393-9.3644s-6.4236-3.4826-19.425-3.4826c-2.7861 0-6.114 0.23219-9.4418 0.69653v-11.995h-5.6496v35.755s9.0548 1.0835 16.794 1.0835c14.162 0 17.8-2.9408 17.8-2.9408s1.3157-1.9348 1.3157-9.7514zm-5.727 0.2322c0 2.0896-0.1548 4.1018-0.30959 5.4175-1.78 0.46436-5.8818 1.3157-13.002 1.3157-3.173 0-6.8879-0.2322-11.222-0.61914v-12.77c12.073-1.78 20.819 0.23219 24.147 1.2383 0.1548 1.2383 0.38695 3.3279 0.38695 5.4175z" clip-path="url(#SVGID_2_)"/>
		<path d="m494.99 195.18c-21.824 0.0774-30.492 5.2626-30.492 5.2626v19.812h5.8044v-16.098c2.7861-0.92871 10.448-3.0957 24.688-3.3279z" clip-path="url(#SVGID_2_)"/>
		<path d="m584.39 180.32c4.6435 0 8.4357 3.7922 8.4357 8.4357 0 4.6435-3.7922 8.4357-8.4357 8.4357-4.6436 0-8.4357-3.7922-8.4357-8.4357-0.0774-4.6435 3.7148-8.4357 8.4357-8.4357zm3.4053 11.918v-8.5132l-8.5132 3.0957v2.0896l2.7861-1.0061v6.3461zm-3.4053-10.68c-4.0244 0-7.1975 3.2504-7.1975 7.1975 0 4.0244 3.2504 7.1975 7.1975 7.1975 4.0244 0 7.1975-3.2504 7.1975-7.1975s-3.2504-7.1975-7.1975-7.1975z" clip-path="url(#SVGID_4_)" clip-rule="evenodd" fill-rule="evenodd"/>
		<path d="m99.912 199.36h-5.4948v-8.2036h5.1853c3.4826 0 4.8757 1.393 4.8757 4.1018-0.0774 2.554-1.5478 4.1018-4.5661 4.1018zm-35.368 12.383h-3.0957v-19.967h2.7861c6.6557 0 9.674 2.941 9.674 9.7514 0.0774 6.6557-2.9408 10.216-9.3644 10.216zm43.03-6.9653v-0.0774c3.4053-1.2383 7.12-4.1018 7.12-10.061 0-7.3522-5.2626-11.145-14.549-11.145h-15.788v12.692h-0.0774c-1.9348-7.6618-8.3583-12.692-20.122-12.692h-22.443l-3.4053 14.937c-0.69653 3.0957-1.3157 6.9653-1.3157 6.9653h-0.0774s-0.77393-4.3339-1.4704-7.4296l-2.9408-14.472h-12.228l-2.9409 14.472c-0.69653 3.0957-1.4704 7.4297-1.4704 7.4297h-0.077389s-0.61914-3.8696-1.3157-6.9653l-3.4053-14.937h-11.067l9.7514 36.529h11.145l5.5722-23.373h0.07739l5.5722 23.373h10.99l8.1261-30.338h0.0774v30.338h12.383c11.918 0 18.497-5.4948 20.509-13.312h0.0774v13.312h10.061v-12.925h0.77392c1.1608 0 4.0244-0.0774 5.6496 2.4765l6.1914 10.448h10.835l-5.6496-9.5192c-1.8574-3.173-3.4053-4.8757-4.5661-5.727zm20.973-7.4297c-4.4114 0-7.9714-3.56-7.9714-8.0487 0-4.4114 3.56-8.0487 7.9714-8.0487 4.4114 0 7.9714 3.56 7.9714 8.0487 0 4.4114-3.56 8.0487-7.9714 8.0487zm0-17.413c-5.1853 0-9.3644 4.1792-9.3644 9.3644 0 5.1853 4.1792 9.3644 9.3644 9.3644 5.1853 0 9.3644-4.1792 9.3644-9.3644 0-5.1853-4.1792-9.3644-9.3644-9.3644zm-5.6496 9.5193 3.0957-1.1608v7.0426l6.2687-2.2444v-9.4418l-9.4418 3.4053v2.3992z" clip-path="url(#SVGID_2_)"/>
		<path d="m188.3 185.51c-8.0487 0-14.627 6.5783-14.627 14.627 0 7.1975 5.1853 13.157 11.995 14.395v-14.395h5.34v14.395c6.8105-1.2383 11.995-7.1975 11.995-14.395-0.0774-8.0487-6.5783-14.627-14.704-14.627m0-5.34c11.067 0 19.967 8.9775 19.967 19.967 0 11.067-8.9775 19.967-19.967 19.967-11.067 0-19.967-8.9775-19.967-19.967 0-10.99 8.9775-19.967 19.967-19.967" clip-path="url(#SVGID_2_)"/>
		<path d="m218.32 200.91c0-2.0896-0.15479-4.1018-0.15479-6.114h2.0896c0.0774 1.1608 0.1548 2.3218 0.1548 3.173h0.0774c1.4704-2.8635 3.0957-3.4053 5.2626-3.4053v2.3992c-3.56 0-5.1853 1.5478-5.1853 5.1853v12.46h-2.2443zm19.967 3.7148c-4.6435 0-8.5905 0-8.5905 4.4887 0 1.7026 1.2383 3.6374 3.6374 3.6374 1.0835 0 4.9531-0.46436 4.9531-5.8044zm2.0896 5.4948c0 1.4704 0.15479 2.9408 0.23219 4.4114h-2.0122l-0.15479-2.8635h-0.0774c-1.3931 2.167-3.0183 3.0957-5.5722 3.0957-3.0957 0-5.4948-2.5539-5.4948-5.727 0-6.3461 6.7332-6.4236 9.5966-6.4236h1.4704c0-2.4765 0-6.0366-4.1018-6.0366-2.6314 0-4.721 1.8574-4.9531 2.0896l-0.38694-2.3992c1.8574-1.0061 3.2504-1.78 5.4175-1.78 6.114 0 6.114 5.1079 6.114 6.5783v9.0548zm6.9653-5.4175c0 1.6253 0 8.0487 4.4887 8.0487 3.8696 0 4.8757-3.7922 4.8757-7.8166 0-2.6314 0-8.3583-4.8757-8.3583-3.3279 0-4.4887 3.4826-4.4887 8.1262m11.531 3.3279c0 3.0957 0.0774 4.8757 0.1548 6.5783h-2.0896v-2.7087h-0.0774c-1.4704 1.8574-2.7087 3.0183-5.1853 3.0183-6.4235 0-6.6557-8.1262-6.6557-10.913 0-3.7922 1.6253-9.4418 6.5783-9.4418 2.5539 0 4.0244 1.0061 5.0305 2.8635h0.0774v-11.918h2.2444v22.521zm5.4948-21.128h2.7087v3.4826h-2.7087zm0.2322 7.894h2.2443v19.812h-2.2443zm14.472 20.044c-5.8044 0-7.4296-5.1853-7.4296-10.216 0-4.9531 1.6253-10.216 7.4296-10.216s7.4297 5.1853 7.4297 10.216c0 5.0304-1.6253 10.216-7.4297 10.216m0-2.0896c5.0305 0 5.0305-6.501 5.0305-8.0487 0-1.6253 0-8.0487-5.0305-8.0487-5.0304 0-5.0304 6.501-5.0304 8.0487s0 8.0487 5.0304 8.0487m16.871-8.2036c0 3.7922 1.0061 6.8105 3.7922 6.8105 2.7861 0 3.56-2.3218 3.56-6.9653 0-4.0244-0.9287-6.5783-3.6374-6.5783-2.6314 0-3.7148 2.7861-3.7148 6.7331m0-19.115v11.995h0.0774c0.69654-1.5478 2.3218-3.1731 5.1853-3.1731 4.334 0 6.8879 3.7922 6.8879 10.371 0 5.5722-2.0896 10.293-7.0426 10.293-3.0957 0-4.5661-1.7026-5.34-3.4053h-0.15476c0 1.3931-0.0774 2.5539-0.15479 3.0957h-4.4887c0.15479-0.77391 0.15479-2.0122 0.15479-3.4053v-25.772zm16.485 29.177h4.7983v-10.99c0-3.7148 2.1669-4.953 4.1792-4.953 0.54175 0 0.92871 0.0774 1.3931 0.15479v-4.4887c-0.2322-0.0774-0.54176-0.1548-0.85132-0.1548-3.0183 0-4.4887 2.3992-5.1079 3.947h-0.0774c0-1.2383-0.15479-2.4765-0.15479-3.6374h-4.334c0.1548 0.92871 0.1548 2.0896 0.1548 3.3279zm23.837-11.763c0-3.56-1.1608-5.3401-3.3279-5.3401-2.5539 0-3.56 2.7087-3.56 5.3401zm3.6374 10.758c-1.0061 0.46436-3.0957 1.3157-5.9592 1.3157-6.4235 0-9.287-4.6436-9.287-10.061 0-5.9592 3.173-10.603 8.281-10.603 4.3339 0 7.9714 2.5539 7.9714 10.68v0.9287h-11.608c0 3.4053 1.3931 5.4948 5.1079 5.4948 2.9408 0 4.3339-0.9287 5.2626-1.5478zm5.4175 1.0061h4.7983v-12.15c0-2.2443 1.1608-4.2565 3.2505-4.2565 1.78 0 2.5539 1.2383 2.5539 3.7148v12.615h4.7983v-12.15c0-2.2443 1.1608-4.2565 3.2504-4.2565 1.78 0 2.5539 1.2383 2.5539 3.7148v12.615h4.7983v-12.383c0-4.8757-1.393-7.9714-5.727-7.9714-2.941 0-4.4114 1.78-5.3401 3.1731-0.61911-1.0835-1.7026-3.1731-5.0304-3.1731-2.7861 0-4.3339 1.9348-5.0304 3.4826h-0.0774c0-1.0835-0.1548-2.0896-0.1548-3.173h-4.7983c0.0774 0.77393 0.15479 1.8574 0.15479 3.2505zm41.792-11.763c0-3.56-1.1608-5.3401-3.3279-5.3401-2.5539 0-3.56 2.7087-3.56 5.3401zm3.6375 10.758c-1.0061 0.46436-3.0957 1.3157-5.9592 1.3157-6.4236 0-9.287-4.6436-9.287-10.061 0-5.9592 3.173-10.603 8.2036-10.603 4.334 0 7.9714 2.5539 7.9714 10.68v0.9287h-11.608c0 3.4053 1.393 5.4948 5.1079 5.4948 2.9408 0 4.3339-0.9287 5.2626-1.5478zm5.4948 1.0061h4.7983v-11.686c0-2.5539 0.92868-4.721 3.4053-4.721 2.0122 0 2.7861 1.3157 2.7861 4.334v11.995h4.7983v-12.925c0-4.0244-1.393-7.4297-5.8818-7.4297-3.2504 0-4.6436 2.167-5.3401 3.4053h0.0774-0.0774c0-1.0061-0.1548-2.0896-0.1548-3.0957h-4.4887c0.15479 0.92871 0.15479 2.0896 0.15479 3.3279v16.794zm31.809-20.199-6.0366 2.167v-6.7332l-3.0183 1.0835v-2.2443l9.0548-3.2504zm-3.6375-11.3c4.2565 0 7.6618 3.4053 7.6618 7.6618s-3.4053 7.6618-7.6618 7.6618-7.6618-3.4053-7.6618-7.6618 3.4053-7.6618 7.6618-7.6618zm0-1.3157c-4.953 0-8.9775 4.0244-8.9775 8.9775 0 4.953 4.0244 8.9775 8.9775 8.9775 4.9531 0 8.9775-4.0244 8.9775-8.9775 0-4.9531-4.0244-8.9775-8.9775-8.9775z" clip-path="url(#SVGID_2_)"/>
	</g>
</svg>
