<?xml version="1.0" encoding="UTF-8"?>
<svg width="800" height="235.94" version="1.1" xmlns="http://www.w3.org/2000/svg">
	<g fill="#1e1e1c">
		<g>
			<path d="m48.542 97.084c0-38.382 27.846-73.001 73.754-73.001 18.438 0 30.103 4.5155 36.124 9.4073l-15.428 25.212c-5.2681-3.7629-12.418-6.0207-22.201-6.0207-21.449 0-35.748 18.438-35.748 42.521 0 15.804 7.1496 25.212 21.072 25.212 11.665 0 19.567-5.2681 25.588-10.16l13.17 24.835c-6.0207 5.6444-20.32 13.547-42.145 13.547-38.382 0-54.186-23.706-54.186-51.552z"/>
			<path d="m147.88 95.579c0-37.629 28.975-71.496 73.001-71.496 36.124 0 54.563 22.954 54.563 51.929 0 38.758-28.222 72.625-72.248 72.625-36.124 0-55.315-23.33-55.315-53.057zm91.816-18.815c0-14.675-5.6444-25.212-21.449-25.212-22.954 0-34.619 21.825-34.619 43.65 0 15.052 6.397 26.341 22.201 26.341 22.954-0.3763 33.866-22.954 33.866-44.779z"/>
			<path d="m264.53 135.84 17.686-22.954c3.7629 3.0104 12.794 8.6548 24.835 8.6548 10.536 0 16.933-1.8815 16.933-7.9022 0-5.6444-4.8918-8.2785-19.944-17.31-12.418-7.5259-23.33-17.31-23.33-36.124 0-24.083 21.072-36.124 47.037-36.124 21.449 0 31.609 6.397 37.253 10.913l-15.804 23.33c-4.5155-3.3866-12.794-7.9022-21.825-7.9022-8.2785 0-13.547 2.2578-13.547 7.5259 0 6.0207 5.2681 9.4073 16.933 15.804 12.794 6.7733 27.093 16.181 27.093 36.124 0 25.212-19.944 38.382-51.552 38.382-21.825 0.3763-35.372-6.7733-41.769-12.418z"/>
			<path d="m390.22 26.341h33.114l7.1496 68.109c0.37629 4.5155 0.7526 10.536 0.7526 14.299v3.7629h0.37629c1.1289-3.7629 3.7629-10.16 7.5259-18.062l33.49-68.109h34.243l-4.8918 120.41h-33.866l3.7629-50.423c0.37629-9.031 1.5052-18.438 1.5052-18.438h-0.3763s-3.7629 9.7836-7.5259 18.062l-23.706 51.176h-32.361l-4.8918-51.552c-0.75258-7.5259-1.1289-18.062-1.1289-18.062h-0.37629s-2.2578 10.536-4.5155 18.438l-15.052 50.423h-31.232z"/>
			<path d="m514.77 95.579c0-37.629 28.975-71.496 73.001-71.496 36.124 0 54.563 22.954 54.563 51.929 0 38.758-28.222 72.625-72.248 72.625-36.124 0-55.315-23.33-55.315-53.057zm91.816-18.815c0-14.675-5.6444-25.212-21.449-25.212-22.954 0-34.619 21.825-34.619 43.65 0 15.052 6.397 26.341 22.201 26.341 22.954-0.3763 33.866-22.954 33.866-44.779z"/>
		</g>
		<path d="m186.27 182.88c-8.6547 0-15.428 7.1496-15.428 15.428 0 7.5259 5.6444 13.923 12.794 15.428v-15.428h5.6444v15.428c7.1496-1.5052 12.794-7.5259 12.794-15.428-0.3763-8.6548-7.1496-15.428-15.804-15.428m0-5.6444c11.665 0 21.449 9.4073 21.449 21.449 0 11.665-9.4073 21.449-21.449 21.449-11.665 0-21.449-9.4073-21.449-21.449s9.4073-21.449 21.449-21.449"/>
		<path d="m218.25 199.06v-6.397h2.2578v3.3866c1.5052-3.0103 3.3866-3.7629 5.6444-3.7629v2.634c-3.7629 0-5.6444 1.5052-5.6444 5.6444v13.17h-2.2578zm21.072 4.1392c-4.8918 0-9.031 0-9.031 4.8918 0 1.8815 1.5052 3.7629 3.7629 3.7629 1.1289 0 5.2681-0.37631 5.2681-6.397v-2.2578zm2.2578 5.6444c0 1.5052 0 3.0104 0.37629 4.8918h-2.2578v-3.0103c-1.5052 2.2578-3.0104 3.3866-6.0207 3.3866-3.3866 0-6.0207-2.6341-6.0207-6.0207 0-6.7733 7.1496-6.7733 10.16-6.7733h1.5052c0-2.6341 0-6.397-4.5155-6.397-2.6341 0-4.8918 1.8815-5.2681 2.2578l-0.37629-2.6341c1.8815-1.1289 3.3866-1.8815 5.6444-1.8815 6.397 0 6.397 5.6444 6.397 7.1496zm7.5259-5.6444c0 1.8815 0 8.6548 4.8918 8.6548 4.1392 0 5.2681-4.1392 5.2681-8.2785 0-2.6341 0-9.031-5.2681-9.031-3.7629 0-4.8918 3.7629-4.8918 8.6548m12.041 3.3866v7.1496h-2.2578v-3.0103c-1.5052 1.8815-3.0104 3.0103-5.6444 3.0103-6.7733 0-7.1496-8.6548-7.1496-11.665 0-4.1392 1.8815-10.16 7.1496-10.16 2.634 0 4.1392 1.1289 5.2681 3.0104v-12.794h2.2578zm6.0207-22.201h3.0104v3.7629h-3.0104zm0.3763 8.2785h2.2578v21.072h-2.2578zm15.428 21.449c-6.0207 0-7.9022-5.6444-7.9022-10.913s1.8815-10.913 7.9022-10.913c6.0207 0 7.9022 5.6444 7.9022 10.913s-1.8815 10.913-7.9022 10.913m0-2.2578c5.2681 0 5.2681-6.7733 5.2681-8.6548s0-8.6548-5.2681-8.6548-5.2681 6.7733-5.2681 8.6548c-0.37629 1.5052-0.37629 8.6548 5.2681 8.6548m17.686-8.6548c0 4.1392 1.1289 7.1496 4.1392 7.1496s3.7629-2.634 3.7629-7.5259c0-4.1392-1.1289-7.1496-3.7629-7.1496-3.0104 0-4.1392 3.3866-4.1392 7.5259m0-20.696v12.794c0.75258-1.5052 2.2578-3.3866 5.6444-3.3866 4.5155 0 7.5259 4.1392 7.5259 10.913 0 6.0207-2.2578 10.913-7.5259 10.913-3.3866 0-4.8918-1.8814-5.6444-3.7629v3.3866h-4.8918v-3.7629-27.469zm17.686 31.232h5.2681v-11.665c0-4.1392 2.2578-5.2681 4.5155-5.2681 0.37629 0 1.1289 0 1.5052 0.3763v-4.8918h-0.75259c-3.0103 0-4.8918 2.634-5.2681 4.1392v-3.7629h-4.5155v3.3866zm25.212-12.418c0-3.7629-1.1289-5.6444-3.3866-5.6444-2.6341 0-3.7629 3.0104-3.7629 5.6444zm4.1392 11.289c-1.1289 0.37629-3.3866 1.5052-6.397 1.5052-6.7733 0-9.7836-4.8918-9.7836-10.536 0-6.397 3.3866-11.289 8.6548-11.289 4.5155 0 8.6548 2.634 8.6548 11.289v1.1289h-12.418c0 3.7629 1.5052 6.0207 5.2681 6.0207 3.0104 0 4.5155-1.1289 5.6444-1.5052zm5.6444 1.1289h5.2681v-12.794c0-2.2578 1.1289-4.5155 3.3866-4.5155 1.8815 0 2.634 1.5052 2.634 4.1392v13.547h5.2681v-13.17c0-2.2578 1.1289-4.5155 3.3866-4.5155 1.8815 0 2.634 1.5052 2.634 4.1392v13.547h5.2681v-13.17c0-5.2681-1.5052-8.6548-6.0207-8.6548-3.0104 0-4.5155 1.8815-5.6444 3.3866-0.75258-1.1289-1.8815-3.3866-5.2681-3.3866-3.0104 0-4.5155 1.8815-5.2681 3.7629v-3.3866h-5.2681v3.3866zm44.403-12.418c0-3.7629-1.1289-5.6444-3.3866-5.6444-2.634 0-3.7629 3.0104-3.7629 5.6444zm4.1392 11.289c-1.1289 0.37629-3.3866 1.5052-6.397 1.5052-6.7733 0-9.7836-4.8918-9.7836-10.536 0-6.397 3.3866-11.289 8.6548-11.289 4.5155 0 8.6548 2.634 8.6548 11.289v1.1289h-12.418c0 3.7629 1.5052 6.0207 5.2681 6.0207 3.0103 0 4.5155-1.1289 5.6444-1.5052zm5.6444 1.1289h5.2681v-12.418c0-2.6341 1.1289-4.8918 3.7629-4.8918 2.2578 0 3.0103 1.5052 3.0103 4.5155v12.794h5.2681v-13.923c0-4.1392-1.5052-7.9022-6.397-7.9022-3.3866 0-4.8918 2.2578-5.6444 3.7629v-3.3866h-5.2681v3.3866 18.062z"/>
		<path d="m114.39 203.57c3.7629-1.5052 7.5259-4.5155 7.5259-10.913 0-7.9022-5.6444-11.665-15.428-11.665h-16.933v13.547c-1.8815-8.2785-9.031-13.547-21.449-13.547h-23.706l-3.7629 15.804c-0.75259 3.3866-1.5052 7.5259-1.5052 7.5259s-0.75259-4.5155-1.5052-7.9022l-3.0103-15.428h-13.17l-3.0103 15.428c-0.75259 3.3866-1.5052 7.9022-1.5052 7.9022s-0.75259-4.1392-1.5052-7.5259l-3.7629-15.804h-11.665l10.16 38.758h12.041l6.0207-24.835 6.0207 24.835h11.665l8.6548-32.361v32.361h13.17c12.794 0 19.567-6.0207 21.825-14.299v14.299h10.913v-13.923h0.75259c1.1289 0 4.1392 0 6.0207 2.634l6.7733 10.913h11.289l-6.0207-10.16c-1.8815-3.0103-3.3866-4.8918-4.8918-5.6444zm-45.908 7.1496h-3.3866v-21.072h3.0103c7.1496 0 10.16 3.0104 10.16 10.536 0.37629 7.1496-2.6341 10.536-9.7836 10.536zm37.629-12.794h-6.0207v-8.6548h5.6444c3.7629 0 5.2681 1.5052 5.2681 4.5155 0 2.2578-1.5052 4.1392-4.8918 4.1392z"/>
		<path d="m463.97 170.09v49.67h102.35l10.537-49.67zm38.381 11.665h4.139v9.0296c2.2578-0.3763 4.8932-0.37486 6.7747-0.37486 9.4073 0 14.299 2.6337 14.299 2.6337s1.1285 1.1288 1.1285 7.1495c-0.75258 5.2681-1.5053 6.7727-1.5053 6.7727s-2.6339 2.2569-12.794 2.2569c-5.6444 0-12.042-0.75165-12.042-0.75165zm30.48 0h4.139v9.0296c2.2578-0.3763 4.8932-0.37486 6.7747-0.37486 9.4073 0 14.299 2.6337 14.299 2.6337s1.1285 1.1288 1.1285 7.1495c-0.75258 5.2681-1.5053 6.7727-1.5053 6.7727s-2.6339 2.2569-12.794 2.2569c-5.6444 0-12.042-0.75165-12.042-0.75165zm-35.371 7.9012v4.5158c-10.536 0-15.805 1.8811-18.063 2.6337v12.042h-4.139v-15.053s6.3979-3.7627 22.202-4.139zm14.699 4.4807c-1.858 0.0118-3.8808 0.12972-6.0445 0.41194v9.7833c3.0104 0.37629 6.0202 0.37681 8.278 0.37681 5.2681 0 8.2776-0.75412 9.4065-1.1304 0-0.7526 0.3768-2.6338 0.3768-4.139 0-1.5052-0.3768-3.0101-0.3768-4.139-1.9756-0.28222-6.0661-1.1989-11.64-1.1636zm30.478 0c-1.858 0.0118-3.8789 0.12972-6.0425 0.41194v9.7833c3.0103 0.37629 6.0202 0.37681 8.278 0.37681 5.2681 0 8.2776-0.75412 9.4064-1.1304 0-0.7526 0.3768-2.6338 0.3768-4.139 0-1.5052-0.3768-3.0101-0.3768-4.139-1.9755-0.28222-6.0681-1.1989-11.642-1.1636z"/>
	</g>
	<path d="m736.03 235.94 63.97-235.94h-119.29l-6.0207 21.825 17.686 54.939h59.454l-47.789 34.995 18.062 56.444-47.789-34.995-37.253 27.093-20.32 75.635" fill="#00a591"/>
</svg>
