<?xml version="1.0" encoding="UTF-8"?>
<svg width="800" height="135.04" version="1.1" xmlns="http://www.w3.org/2000/svg">
	<path d="m716.36 70.372 6.125 4.6657 7.2898 0.87469 9.6237-1.1659 8.7491-6.125 5.8327-9.9149-2.9164-13.706-6.1239-6.7074-6.9997-1.167-7.8733 2.9164-2.9164 5.8327v8.1656l-6.9986 4.958z" fill="#f6a827"/>
	<path d="m725.4 47.762-2.334-4.958-8.4568-2.0406-9.3314-0.58349-5.2492 2.9164v9.3314l4.3745 11.373 11.955 5.8327 3.7922-11.373 6.9986-4.958z" fill="#f7b32b"/>
	<path d="m731.95 35.512-6.7074-13.124-4.958-7.5821-5.8327-2.0417-6.4151 2.3329-6.9997 10.207-1.7494 11.082 1.4582 2.9164 13.122 1.4582 12.54 4.3734z" fill="#f8c23d"/>
	<path d="m733.43 34.772 11.957-0.29119 10.206-11.665 5.2492-12.248-7.2898-5.5415-15.165-2.0406-13.122 3.2075-3.791 4.9569z" fill="#fcc640"/>
	<path d="m764.21 11.313-7.8744 12.249-7.8733 11.373 8.1644 14.873 11.665-3.4998 9.6237-4.6657 6.4151-9.6238-6.4151-11.373z" fill="#ffcd45"/>
	<path d="m787.24 39.172-11.664 6.7074-13.998 4.0833-4.958 0.58238-0.58238 13.998 7.5821 5.5404h16.914l11.665-1.1659 2.9164-9.9149z" fill="#fcd73f"/>
	<path d="m793.08 72.122h-23.913l-13.122-7.5821-8.7491 8.7491-2.0417 5.2492 13.124 19.246 14.289 11.957 13.122-4.0822 7.8744-30.329z" fill="#ffdb4b"/>
	<path d="m762.34 106.05-9.5515-10.596-10.303-18.747-10.186 1.0836-3.3076 9.4026-4.409 40.927 13.49 3.5143 29.208-12.268z" fill="#ffe94e"/>
	<path d="m726.94 80.272-21.289-9.9149-18.955 8.1656-23.913 11.373-0.29119 6.4162 17.788 23.037 34.704 10.791 7.2898-12.249 3.2087-19.246z" fill="#f8eb58"/>
	<path d="m797.8 47.342c-4.3502-14.185-9.9388-22.874-17.772-30.736a59.525 59.525 0 0 0-24.083-14.468 60.514 60.514 0 0 0-30.163-0.44457c-13.426 3.6043-28.514 13.594-31.822 30.238a64.772 64.772 0 0 0-1.0878 19.189c0.49702 6.6759 0.98349 9.4122 0.87301 12.171-0.65318 17.699-45.354 13.048-40.292 29.94 5.4375 18.142 29.029 36.642 55.154 40.275 32.084 4.4546 52.979-0.71742 70.45-16.476 24.03-21.705 22.595-58.569 18.743-69.689m-25.003-26.998a22.901 22.901 0 0 1 4.7848 4.7491c3.1759 4.3735 4.0958 9.6671 1.6714 12.444-3.5686 4.0612-7.3119 6.3517-17.089 8.9899-5.6689 1.5269-5.1251-1.3305-7.555-5.1373-2.4937-3.899-2.7883-4.1767-3.3787-5.0096-1.4577-2.0423 0.0463-3.471 1.88-6.0104 2.8808-3.9803 3.4598-5.3626 7.4111-10.402 2.5221-3.2167 2.684-5.5015 7.1266-3.0308a37.468 37.468 0 0 1 5.1485 3.4074m-31.268 27.437c-2.6487-3.6093-6.1024-0.42234-3.87 2.0423 3.7026 4.0729-0.62472 8.2608-5.3448 5.1657-2.2393-1.4632-2.6035-4.4952-2.4071-6.8666 0.27219-3.4771 1.5502-6.7222 5.7392-8.1452 5.5305-1.8688 9.8916-0.54949 12.565 3.4303 2.6153 3.9111 3.8415 6.8148 3.6217 12.421-0.50924 8.1682-5.7967 12.249-10.349 15.258a20.731 20.731 0 0 1-16.285 3.0542c-5.6176-1.2144-6.7567-5.5077-5.357-9.5421a8.8867 8.8867 0 0 1 10.181-5.5015c5.3805 1.3885 7.3474 0.66552 9.4127-0.35876 4.7378-2.3603 4.2983-7.9427 2.0937-10.957m-16.221-37.781c10.801-4.2234 21.561-2.7714 29.301-0.23151 3.3091 1.0873 4.1537 2.5394 0.7113 8.5101-1.8627 3.2342-2.43 3.8872-4.1426 6.9995 0 0-5.1313 8.3126-10.349 8.417-4.4082 0.0865-5.183-0.21372-7.4858-4.7378-2.3548-4.6102-6.4215-11.379-7.1618-12.64-1.4115-2.43-4.142-4.7262-1.1106-6.219m-20.525 15.908a41.05 41.05 0 0 1 2.1689-3.6963 24.335 24.335 0 0 1 4.379-4.9867c3.3898-2.5451 3.9921-2.6208 6.074-2.4758 2.1059 0.15004 3.3209 1.8515 8.4866 10.43 1.504 2.4814 4.9236 7.5724 2.806 11.136a7.7667 7.7667 0 0 1-2.0422 2.7073c-1.5096 1.2842-4.1011 0.81-5.5942 0.43956a42.971 42.971 0 0 0-10.783-1.6083c-7.1909-0.21972-10.419 1.7879-6.6296-9.3424a25.913 25.913 0 0 1 1.1336-2.6035m6.421 16.534c5.6232 0.45679 5.4497 0.83278 9.406 1.8687 3.0786 0.81567 3.3154 2.6203 4.0958 5.8944 0.97237 4.0204-0.33532 4.5242-2.7184 5.8948-2.8926 1.6782-4.478 2.9221-6.884 7.6766-1.1169 2.1784-5.0911 1.947-7.4687-0.8908a25.872 25.872 0 0 1-4.9928-12.05c-0.84468-5.8776 0.87357-8.1398 6.6764-8.3305zm-13.155 79.743c-8.075-3.0197-19.055-9.0942-30.289-22.203-4.6285-5.3917-7.139-8.7357 2.4876-11.685 14.445-4.4199 20.814-7 27.051-11.663 4.8013-3.5975 5.4553-5.067 9.1343-3.7365 5.004 1.8052 5.4553 2.2214 9.4582 3.9223 6.7574 2.8696 10.725 4.1187 10.32 9.3714-0.98348 12.623-3.3209 18.581-9.3369 31.192-2.3949 4.9989-10.743 7.8222-18.825 4.802m58.336-1.562a51.663 51.663 0 0 1-15.579 4.6279c-7.6075 1.2726-15.185 2.0362-13.762-5.3224 2.2097-11.5 4.6218-21.127 5.1373-27.525 0.44579-5.4146-1.0761-10.875 1.8282-11.974a19.405 19.405 0 0 1 4.2174-1.1804c4.4138-0.71742 3.6847-1.0879 6.1431 4.3965a96.841 96.841 0 0 0 14.922 23.452c4.1076 4.9984 4.7151 9.6264-1.6139 12.877m31.725-34.188c-1.845 6.6642-3.3266 10.273-8.5442 16.232-3.5173 4.0266-6.0048 5.0569-8.4983 3.9574-10.951-4.8601-19.814-19.149-23.597-26.056-1.6194-2.985-1.2033-4.3508-0.19639-5.7732a21.478 21.478 0 0 1 3.4766-3.1932c1.9954-1.7706 3.7427-2.4763 6.2307-1.0532a35.917 35.917 0 0 0 23.723 3.7717c7.4858-1.2613 9.6207 2.1287 7.9198 10.205zm1.7065-24.045c-0.53225 2.5734-1.1342 4.6302-4.8936 5.4056-6.5376 1.3305-13.809 2.5802-23.059-0.86746-3.2746-1.2183-5.091-1.461-5.1373-5.8229a52.899 52.899 0 0 1 0.38155-5.4028c0.34698-3.9278 0.84467-3.7544 7.3995-4.7378a35.784 35.784 0 0 0 13.647-4.9002c1.446-0.82678 4.3736-2.5451 6.7334-1.0003 1.6484 1.0755 2.6961 2.5734 4.2575 7.6243a20.375 20.375 0 0 1 0.67118 9.7018" fill="#c63a3a"/>
	<path d="m0 20.983c0-8.1062 5.6389-13.57 13.576-13.57h29.266c39.486 0 62.056 25.387 62.056 64.527 0 37.023-23.976 60.994-60.291 60.994h-30.682c-5.8178 0-13.925-3.1703-13.925-13.216zm26.444 87.62h17.804c22.75 0 33.145-16.747 33.145-37.904 0-22.57-10.574-38.963-34.905-38.963h-16.044z"/>
	<path d="m205.75 117.41c0 6.5263 0 16.572-12.165 16.572-7.4034 0-10.405-4.0534-12.165-10.754-6.5208 7.7577-14.453 11.811-24.155 11.811-23.802 0-41.959-20.276-41.959-48.834 0-27.852 18.692-49.186 41.959-49.186 9.343 0 18.511 3.7047 24.155 11.637a12.056 12.056 0 0 1 12.165-10.58c12.165 0 12.165 10.045 12.165 16.572zm-44.956-5.6332c13.222 0 19.563-13.401 19.563-25.572 0-12.171-6.1671-25.913-19.563-25.913-13.93 0-20.097 13.742-20.097 25.913 0 12.171 6.3415 25.572 20.097 25.572z"/>
	<path d="m249.55 25.563a16.476 16.476 0 0 1-1.2368-6.5213c0-7.3984 6.5213-12.688 13.576-12.688 5.9981 0 9.7026 3.8788 11.99 8.6401l27.327 73.336 27.326-73.336c2.2883-4.7613 5.9925-8.6401 11.991-8.6401 7.0496 0 13.576 5.2896 13.576 12.688a16.476 16.476 0 0 1-1.2368 6.5213l-38.614 98.21c-2.2883 5.6333-5.2846 10.221-13.042 10.221-7.7576 0-10.754-4.5872-13.053-10.221z"/>
	<path d="m389.37 13.933a14.528 14.528 0 0 1-14.284 14.627c-7.5835 0-14.279-6.8806-14.279-14.627 0-7.2293 6.6954-13.93 14.279-13.93 7.5836 0 14.284 6.5208 14.284 13.93zm-26.977 38.255c0-8.4661 5.2897-14.104 12.693-14.104 7.4089 0 12.693 5.6382 12.693 14.104v67.703c0 8.4549-5.284 14.099-12.693 14.099-7.4038 0-12.693-5.6444-12.693-14.099z"/>
	<path d="m404 52.182c0-8.4661 5.2896-14.104 12.698-14.104 6.5213 0 10.754 3.5245 11.631 9.3373 4.941-6.8644 12.519-10.395 24.51-10.395 19.917 0 34.73 12.693 34.73 34.204v48.66c0 8.4549-5.2896 14.099-12.693 14.099s-12.699-5.6444-12.699-14.099v-44.259c0-11.808-7.3982-17.446-16.567-17.446-10.4 0-16.219 7.578-16.219 17.446v44.258c0 8.4549-5.2951 14.099-12.693 14.099-7.4089 0-12.698-5.6444-12.698-14.099z"/>
	<path d="m567.26 65.232c-6.3524 0-11.996-4.9359-20.102-4.9359-14.459 0-21.334 12.86-21.334 25.913 0 12.519 7.5835 25.572 21.334 25.572 6.3518 0 15.864-5.2952 18.866-5.2952a11.144 11.144 0 0 1 10.928 11.114c0 13.042-21.862 17.444-31.031 17.444-27.327 0-45.484-22.391-45.484-48.834 0-25.738 18.686-49.186 45.484-49.186 10.051 0 31.031 3.7047 31.031 16.044 0 5.2894-3.6992 12.165-9.6917 12.165z"/>
	<path d="m614.51 13.933a14.523 14.523 0 0 1-14.279 14.627c-7.583 0-14.284-6.8806-14.284-14.627 0-7.2293 6.7009-13.93 14.284-13.93 7.583 0 14.279 6.5208 14.279 13.93zm-26.977 38.255c0-8.4661 5.2896-14.104 12.698-14.104 7.4089 0 12.693 5.6382 12.693 14.104v67.703c0 8.4549-5.284 14.099-12.693 14.099-7.409 0-12.698-5.6444-12.698-14.099z"/>
</svg>
