<svg xmlns="http://www.w3.org/2000/svg" height="211.191" width="150" fill="#001a4b"><path d="M0 75a75 75 0 1 0 150 0A75 75 0 1 0 0 75m104.878-44.512v74.4l-50 18.295v-56.1l-24.4 8.537V57.316zM81.42 170.55v40.643h10.405c18.88 0 21.798-9.604 21.798-20.463 0-9.806-3.06-20.18-21.798-20.18zm10.405 8.746h2.902c6.653 0 8.5 6.297 8.5 11.736 0 5.775-1.923 11.83-7.993 11.83h-3.4z" fill-rule="evenodd"/><path d="M46.684 170.55v40.643H56.95v-17.015h12.077v17.015h10.266V170.55H69.027v14.626H56.95V170.55z"/></svg>