<?xml version="1.0" encoding="UTF-8"?>
<svg width="800" height="412.39" xmlns="http://www.w3.org/2000/svg">
	<path d="M794.53.007C531.56-.003 268.6-.012 5.64.048c-1.88 0-3.76.82-5.64 1.26v180.6c7.57 7.37 15.22 14.67 22.59 22.24.69.71.19 3.68-.74 4.68-5.78 6.16-11.87 12.03-17.79 18.06-1.48 1.51-2.71 3.271-4.06 4.911v179.6c2.27.29 4.55.85 6.82.84 263.4.04 526.79.04 790.19.04 1 0 1.99.07 2.99.11V.31c-1.82-.11-3.65-.3-5.47-.3zM26.45 25.737h359.64c.11 1.72.29 3.18.28 4.66.01 45.39-.03 90.77.08 136.16 0 3.47-1.03 5.87-3.5 8.24-7.33 7.02-14.44 14.27-21.61 21.45-7.08 7.09-7.099 12.64-.109 19.61 7.42 7.4 14.969 14.68 22.209 22.25 1.54 1.61 2.8 4.25 2.81 6.42.16 46.21.13 92.429.12 138.65 0 .96-.16 1.92-.27 3.15H26.34c-.08-1.81-.209-3.418-.209-5.028-.01-44.73.03-89.45-.08-134.17-.01-3.45 1.02-5.812 3.51-8.202 8.29-7.94 16.35-16.129 24.42-24.289 5.56-5.62 5.59-11.4.03-17.04-8.29-8.41-16.81-16.61-24.99-25.13-1.53-1.59-2.75-4.24-2.76-6.41-.17-45.72-.14-91.44-.13-137.16 0-.96.189-1.92.319-3.16zM612.3 70.243c10.081.004 20.162.07 30.242.084 6.62.01 8.771 2.05 8.771 8.56.02 84.63.01 169.25-.021 253.88 0 6.77-2.23 8.979-9.03 8.989-22.33.05-44.66.05-66.98 0-7.28-.01-9.458-2.27-9.458-9.58-.02-56.2-.022-112.39-.032-168.59-.02-1.94-.019-3.9-.019-6.41h-16.359c-11.83 0-23.66.03-35.49-.01-6.03-.02-8.05-2.05-8.25-8.04-.01-.33-.01-.67-.01-1 .34-20.24-2.49-14.78 12.33-27.8 17.25-15.15 34.389-30.44 51.939-45.24 3.14-2.65 8.01-4.469 12.131-4.559 10.075-.23 20.155-.289 30.236-.285z"/>
	<path d="M285.81 290.16v-55.17c0-11.16.01-11.15 11.33-11.16 15.69-.02 14.05-.84 14.07 13.93.04 31.92.02 63.84.01 95.75 0 7.69-.53 8.37-8.07 8.33-19.47-.11-15.76 2.12-24.56-14.59-8.5-16.16-16.97-32.33-25.46-48.5-.67-1.28-1.44-2.51-3.01-3.64v22.05c0 12.8-.12 25.6.04 38.4.06 4.5-1.83 6.4-6.2 6.33-4-.07-8 .05-12-.02-6.36-.11-7.08-.87-7.08-7.27v-95.75c0-3.32.05-6.65.03-9.97-.01-3.29 1.64-4.94 4.88-4.96 5.16-.03 10.33-.01 15.49 0 4.18.01 6.02 2.88 7.71 6.1 9.61 18.39 19.27 36.75 28.92 55.12.92 1.74 1.87 3.46 2.81 5.19.38-.05.74-.11 1.09-.17zM103.75 129.35c0-17.44.06-34.88-.04-52.31-.02-3.85.9-6.85 5.27-6.79 15.96.21 32.01-.34 47.84 1.23 18.29 1.81 32.06 17.28 32.93 35.74.67 14.24.79 28.57.07 42.8-1.21 23.9-17.01 38.42-40.88 38.54-12.48.06-24.97.06-37.45-.02-6.73-.04-7.72-1.11-7.73-7.87-.03-17.11-.01-34.22-.01-51.32zm27.5 35.67c5.25 0 9.9.07 14.54-.01 10.14-.18 15.46-4.49 15.9-14.57.59-13.57.59-27.21.05-40.79-.4-10-5.23-14.96-14.49-15.96-5.2-.56-10.51-.1-16-.1zm117.33-1.18c-1.95 6.52-3.87 12.51-5.52 18.58-1.17 4.29-3.46 6.5-8.17 6.19-4.15-.28-8.33 0-12.49-.06-6.11-.09-7.39-1.89-5.43-7.8 6.79-20.46 13.65-40.91 20.47-61.36 4.67-14 9.47-27.97 13.91-42.05 1.66-5.26 4.53-7.65 10.16-7.27 5.31.35 10.67.3 15.99.02 4.96-.27 7.63 1.74 9.17 6.45 8.69 26.65 17.55 53.25 26.38 79.86 2.56 7.72 5.19 15.41 7.75 23.13 2.44 7.37 1.28 8.99-6.37 9.02-3.83.02-7.69-.23-11.49.09-5.11.43-7.7-2.01-9.03-6.6-1.48-5.1-2.98-10.2-4.84-15.16-.48-1.27-2.34-2.87-3.58-2.89-12.17-.23-24.33-.15-36.91-.15zm33.07-21.82c-4.49-14.66-8.75-28.57-13-42.49-.32-.02-.64-.03-.96-.05-4.17 14.07-8.33 28.15-12.59 42.54zM153.73 248.38h-27.12c-5.5 0-10.99.01-16.49.01-4.02 0-6.23-1.78-6.14-6.02.08-4.32.01-8.64.02-12.96.01-3.59 1.61-5.57 5.43-5.56 24.48.03 48.96.04 73.44.02 3.76 0 5.24 1.84 5.49 5.5.68 9.61-.33 18.16-6.72 26.52-15.02 19.64-28.91 40.14-43.63 60.8 1.55.24 2.58.54 3.62.54 13.66.05 27.31.02 40.97.08 6.54.03 7.66.94 7.79 7.45.39 21.04.58 16.88-15.91 17.06-20.98.23-41.96.05-62.95 0-7.15-.02-7.22-.71-7.91-7.64-.99-10.01 2.15-18.09 8.13-26.11 13.38-17.99 25.96-36.58 38.86-54.93.91-1.31 1.75-2.66 3.12-4.76z"/>
</svg>
