<?xml version="1.0" encoding="UTF-8"?>
<svg width="800" height="388.15" version="1.1" xmlns="http://www.w3.org/2000/svg">
	<path d="m411.85 0v388.15h388.15v-388.15zm155.8 60.881h74.92q7.533 0 9.9106 2.3792 2.7745 1.9808 2.7745 9.1154v243.4q0 7.1362-2.7745 9.5138-2.3776 1.9808-9.9106 1.9808h-21.8q-7.533 0-10.309-1.9808-2.3776-2.3792-2.3776-9.5138v-212.08h-40.433q-7.1361 0-9.5154-2.3792-1.9824-2.7745-1.9808-10.306v-17.44q0-7.533 1.9808-9.9106 2.3792-2.7745 9.5154-2.7745"/>
	<path d="m238.85 134.05 12.432-42.001 12.816 42.001zm29.569-62.401c-0.68802-2.192-1.584-3.6321-2.496-4.3201-0.99202-0.68801-2.496-0.99202-4.4801-0.99202h-18.112c-2.128 0-3.6321 0.38401-4.6241 1.056-0.99202 0.68801-1.744 2.128-2.352 4.2401l-33.057 99.106c-0.44802 0.52802-0.60801 1.6-0.60801 3.1041 0 2.352 1.44 3.6321 4.3201 3.6321h13.488c1.216 0 2.272-0.08 3.0401-0.144 0.75202-0.08 1.44-0.38401 1.824-0.75201 0.448-0.44802 0.91202-1.056 1.216-1.824 0.38401-0.75202 0.68801-1.968 1.136-3.2641l5.1521-17.36h37.217l5.3121 16.992c0.44801 1.52 0.75201 2.576 1.216 3.4081 0.44801 0.75201 0.91202 1.52 1.44 1.968q0.79202 0.67201 1.824 0.91202c0.68801 0.08 1.664 0.144 2.8 0.144h14.48c2.8801 0 4.3201-1.136 4.3201-3.6321 0-0.68802 0-1.216-0.08-1.52-0.08-0.22399-0.224-0.75201-0.52801-1.664l-32.449-99.106zm6.1441 138.99c-2.7361 0-4.4801 0.384-5.3761 1.136-0.89602 0.75202-1.296 2.3521-1.296 4.7841v58.833l-30.849-58.993c-1.216-2.496-2.496-4.0961-3.6321-4.7841-1.216-0.68801-3.2641-0.99201-6.2881-0.99201h-9.6322c-2.736 0-4.4801 0.384-5.3761 1.136-0.89601 0.75202-1.296 2.3521-1.296 4.7841v99.25c0 2.352 0.44802 3.9361 1.216 4.7841 0.76802 0.84801 2.576 1.136 5.3121 1.136h10.608c2.6561 0 4.4801-0.384 5.3761-1.136 0.89602-0.75202 1.296-2.352 1.296-4.7841v-58.993l30.849 59.137c1.216 2.496 2.496 4.0961 3.6321 4.7841 1.216 0.68802 3.2641 0.99202 6.2881 0.99202h9.6322c2.736 0 4.4801-0.384 5.3761-1.136s1.296-2.352 1.296-4.7841v-99.25c0-2.352-0.44802-3.9361-1.296-4.7841-0.84802-0.84801-2.6561-1.136-5.3761-1.136h-10.464zm89.154 17.504v135.57h-339.32v-135.57l26.913-26.913c3.9361-3.9361 3.9361-10.464 0-14.4l-26.913-26.913v-135.59h339.32v135.57l-26.913 26.913c-3.9361 3.9361-3.9361 10.464 0 14.4l26.913 26.913zm24.336-228.15h-387.99v171.67l22.368 22.368-22.432 22.448v171.67h388.07v-171.67l-22.368-22.448 22.432-22.448v-171.59zm-259.35 298.68 46.161-64.913c0.68801-1.056 1.216-1.824 1.44-2.496 0.144-0.60801 0.384-1.296 0.384-2.192v-12.432c0-2.3521-0.448-3.9361-1.296-4.7841-0.84802-0.84802-2.6561-1.136-5.3761-1.136h-66.641c-2.352 0-3.9361 0.44801-4.7041 1.296-0.76801 0.84802-1.056 2.7361-1.056 5.5361v9.4082c0 2.8001 0.38401 4.7041 1.056 5.5361 0.68801 0.91201 2.272 1.296 4.7041 1.296h41.089l-45.569 64.913c-1.136 1.52-1.744 2.88-1.744 4.3201v12.816c0 2.352 0.448 3.9361 1.296 4.7841 0.91202 0.75202 2.6561 1.136 5.3761 1.136h68.689c2.352 0 3.9361-0.448 4.7041-1.296 0.76801-0.84801 1.056-2.736 1.056-5.5361v-9.4082c0-2.8001-0.38401-4.7041-1.056-5.5361-0.67202-0.83202-2.2721-1.296-4.7041-1.296h-43.825zm23.424-165.6c0 4.2401-0.22401 7.8882-0.91202 10.688-0.52802 2.8001-1.52 5.2321-2.8001 6.9761-1.28 1.744-3.0401 3.0401-5.1521 3.7121-2.112 0.67201-4.7681 1.056-7.8882 1.056h-12.816v-67.409h12.816c5.9201 0 10.16 1.744 12.816 5.2321 2.576 3.4081 3.8721 9.1682 3.8721 17.216v22.512h0.08zm7.4241-61.425c-6.2881-3.5681-14.256-5.3121-23.808-5.3121h-31.921c-2.7361 0-4.4801 0.38401-5.3761 1.136-0.89602 0.75202-1.296 2.352-1.296 4.7841v99.25c0 2.352 0.448 3.9361 1.296 4.7841 0.91202 0.75201 2.6561 1.136 5.3761 1.136h35.937c16.976 0 28.577-7.2802 34.721-21.68 1.44-3.3441 2.496-6.7521 3.0401-10.08 0.52801-3.3441 0.91201-7.6642 0.91201-12.816v-21.072c0-5.9201-0.22399-10.608-0.91201-14.032-0.52801-3.4081-1.584-6.5921-3.0401-9.6322-3.7121-7.4241-8.6402-12.96-14.928-16.448z"/>
</svg>
