<?xml version="1.0" encoding="UTF-8"?>
<svg width="450" height="450" version="1.1" xmlns="http://www.w3.org/2000/svg">
	<path d="m276.92 155.41 14.414-48.693 14.859 48.693zm34.281-72.344c-0.79768-2.5413-1.8365-4.2108-2.8939-5.0085-1.1501-0.79764-2.8939-1.1501-5.1942-1.1501h-20.999c-2.4672 0-4.211 0.4452-5.3611 1.2243-1.1501 0.79764-2.022 2.4671-2.7269 4.9157l-38.326 114.9c-0.51944 0.61215-0.70492 1.855-0.70492 3.5987 0 2.7268 1.6695 4.2108 5.0086 4.2108h15.638c1.4099 0 2.6342-0.0927 3.5246-0.16695 0.87189-0.0927 1.6696-0.4452 2.1148-0.87183 0.51941-0.51941 1.0574-1.2243 1.4098-2.1147 0.44522-0.87184 0.79767-2.2816 1.3171-3.7842l5.9733-20.127h43.149l6.1588 19.7c0.51941 1.7622 0.87187 2.9865 1.4098 3.9511 0.51941 0.87184 1.0574 1.7622 1.6696 2.2816q0.91826 0.77909 2.1148 1.0573c0.79766 0.0927 1.9292 0.16694 3.2463 0.16694h16.788c3.3391 0 5.0087-1.317 5.0087-4.2108 0-0.79765 0-1.4098-0.0927-1.7622-0.0928-0.25968-0.2597-0.87184-0.61216-1.9292l-37.621-114.9zm7.1234 161.14c-3.1722 0-5.1942 0.44518-6.233 1.317-1.0388 0.87184-1.5026 2.7268-1.5026 5.5464v68.208l-35.766-68.393c-1.4098-2.8938-2.8939-4.7488-4.211-5.5464-1.4098-0.79763-3.7843-1.1501-7.2904-1.1501h-11.167c-3.1721 0-5.1942 0.44518-6.233 1.317-1.0388 0.87185-1.5026 2.7268-1.5026 5.5464v115.06c0 2.7268 0.51943 4.5632 1.4098 5.5464 0.89044 0.98313 2.9866 1.317 6.1588 1.317h12.299c3.0794 0 5.1942-0.44519 6.233-1.317 1.0388-0.87185 1.5026-2.7268 1.5026-5.5464v-68.393l35.766 68.56c1.4098 2.8938 2.8939 4.7488 4.211 5.5464 1.4099 0.79765 3.7843 1.1501 7.2904 1.1501h11.167c3.1722 0 5.1942-0.44519 6.233-1.317 1.0388-0.87185 1.5026-2.7268 1.5026-5.5464v-115.06c0-2.7268-0.51943-4.5633-1.5026-5.5464-0.98319-0.98313-3.0794-1.317-6.233-1.317h-12.132zm103.36 20.293v157.17h-393.4v-157.17l31.202-31.201c4.5634-4.5632 4.5634-12.132 0-16.695l-31.202-31.201v-157.19h393.4v157.17l-31.202 31.201c-4.5635 4.5632-4.5635 12.132 0 16.695l31.202 31.201zm28.215-264.5h-449.83v199.02l25.934 25.933-26.008 26.025v199.02h449.93v-199.02l-25.934-26.025 26.008-26.025v-198.93zm-300.69 346.27 53.518-75.257c0.79767-1.2243 1.4098-2.1147 1.6696-2.8938 0.16695-0.70489 0.4452-1.5025 0.4452-2.5413v-14.413c0-2.7268-0.5194-4.5633-1.5026-5.5464-0.98318-0.98315-3.0794-1.317-6.233-1.317h-77.263c-2.7269 0-4.5634 0.5194-5.4539 1.5025-0.89043 0.98314-1.2243 3.172-1.2243 6.4182v10.907c0 3.2462 0.44521 5.4536 1.2243 6.4182 0.79767 1.0573 2.6342 1.5025 5.4539 1.5025h47.638l-52.832 75.257c-1.3171 1.7622-2.022 3.339-2.022 5.0084v14.858c0 2.7268 0.51941 4.5632 1.5026 5.5464 1.0574 0.87185 3.0794 1.317 6.233 1.317h79.638c2.727 0 4.5634-0.51939 5.4539-1.5025 0.89042-0.98313 1.2243-3.172 1.2243-6.4182v-10.907c0-3.2462-0.44522-5.4536-1.2243-6.4182-0.77913-0.96459-2.6342-1.5025-5.4539-1.5025h-50.81zm27.158-191.99c0 4.9157-0.25972 9.1451-1.0574 12.391-0.61218 3.2462-1.7623 6.0658-3.2464 8.0877-1.484 2.0219-3.5246 3.5245-5.9733 4.3036-2.4487 0.77909-5.5281 1.2243-9.1454 1.2243h-14.859v-78.15h14.859c6.8637 0 11.78 2.0219 14.859 6.0658 2.9866 3.9511 4.4892 10.629 4.4892 19.96v26.1h0.0927zm8.6075-71.213c-7.2904-4.1366-16.529-6.1585-27.603-6.1585h-37.008c-3.1722 0-5.1942 0.4452-6.233 1.317-1.0388 0.87184-1.5026 2.7268-1.5026 5.5464v115.06c0 2.7268 0.51941 4.5632 1.5026 5.5464 1.0574 0.87183 3.0794 1.317 6.233 1.317h41.665c19.682 0 33.131-8.4402 40.255-25.135 1.6696-3.8769 2.8939-7.828 3.5246-11.686 0.61217-3.8769 1.0574-8.8854 1.0574-14.858v-24.43c0-6.8634-0.25969-12.299-1.0574-16.268-0.61217-3.9511-1.8365-7.6425-3.5246-11.167-4.3037-8.6071-10.017-15.025-17.308-19.069z"/>
</svg>
