<?xml version="1.0" encoding="UTF-8"?>
<svg width="450" height="450" version="1.1" xmlns="http://www.w3.org/2000/svg">
	<path d="m277.01 155.46 14.468-48.682 14.824 48.682zm72.15 42.525-37.974-114.9c-0.84562-2.5331-1.8094-4.1981-2.8894-4.9781-1.0894-0.78-2.8406-1.1775-5.2462-1.1775h-20.978c-2.4131 0-4.185 0.4275-5.3344 1.2656-1.1456 0.84-2.0813 2.475-2.8031 4.89l-38.332 114.9c-0.48562 0.60562-0.71999 1.7981-0.71999 3.6094 0 2.7825 1.6856 4.1662 5.0625 4.1662h15.729c1.4494 0 2.6194-0.06 3.5231-0.17625 0.90561-0.11812 1.6275-0.42749 2.1731-0.91312 0.54375-0.4725 1.02-1.2075 1.4475-2.1656 0.42-0.97124 0.87-2.2369 1.3538-3.7987l5.9681-20.085h43.219l6.1425 19.718c0.48562 1.6931 0.96375 3.0187 1.4494 3.99 0.47813 0.95625 1.0238 1.7062 1.6256 2.2538 0.60374 0.54375 1.3238 0.88125 2.1712 1.0012 0.83811 0.11625 1.9275 0.17624 3.2512 0.17624h16.819c3.3712 0 5.0625-1.3837 5.0625-4.1662 0-0.83999-0.0281-1.4156-0.0881-1.7081-0.0675-0.30938-0.27187-0.94312-0.63187-1.9012zm-18.645 46.26h-12.118c-3.135 0-5.2181 0.45562-6.2381 1.3556-1.0238 0.91124-1.5319 2.7525-1.5319 5.5219v68.207l-35.801-68.385c-1.4494-2.8987-2.8688-4.7419-4.2525-5.52-1.3894-0.78188-3.825-1.1794-7.3219-1.1794h-11.212c-3.1331 0-5.2162 0.45563-6.2381 1.3556-1.0238 0.91124-1.5375 2.7525-1.5375 5.5219v115.08c0 2.7844 0.47812 4.6106 1.4475 5.5238 0.96374 0.89624 3.0112 1.3538 6.1444 1.3538h12.302c3.1275 0 5.2088-0.4575 6.2325-1.3538 1.0219-0.91312 1.5375-2.7375 1.5375-5.5238v-68.4l35.801 68.576c1.4494 2.9025 2.8612 4.7438 4.2525 5.5238 1.3838 0.79312 3.825 1.1775 7.32 1.1775h11.212c3.135 0 5.2106-0.4575 6.24-1.3538 1.0219-0.91312 1.5375-2.7375 1.5375-5.5238v-115.08c0-2.7694-0.51563-4.6106-1.5375-5.5219-1.0312-0.89999-3.105-1.3556-6.2381-1.3556zm60.056-10.896 31.219 31.219v157.23h-393.58v-157.25l31.189-31.189a11.807 11.807 0 0 0 0-16.699l-31.191-31.189v-157.26h393.59v157.22l-31.219 31.221a11.807 11.807 0 0 0 0 16.699zm59.426-233.35h-450v199l26.001 26.001-26.001 26.001v199h450v-199l-25.999-26.001 25.999-26.001zm-249.93 346.29h-50.831l53.528-75.262c0.84188-1.2075 1.3875-2.1769 1.6313-2.9006 0.24374-0.72 0.36187-1.56 0.36187-2.5312v-14.475c0-2.7694-0.5175-4.6106-1.5431-5.5219-1.0256-0.9-3.1163-1.3556-6.2606-1.3556h-77.286c-2.7844 0-4.5938 0.51563-5.4413 1.5319-0.84749 1.0312-1.2694 3.165-1.2694 6.435v10.852c0 3.2531 0.42187 5.4038 1.2694 6.42 0.8475 1.0312 2.6569 1.545 5.4413 1.545h47.709l-52.794 75.262c-1.3369 1.6931-2.0025 3.3862-2.0025 5.0644v14.842c0 2.7844 0.5175 4.6106 1.5431 5.5238 1.0275 0.89624 3.1162 1.3538 6.2625 1.3538h79.682c2.7825 0 4.5994-0.51562 5.4488-1.5319 0.84186-1.0312 1.2694-3.1669 1.2694-6.435v-10.851c0-3.2569-0.4275-5.3906-1.2694-6.42-0.84938-1.0312-2.6662-1.5469-5.4488-1.5469zm-23.661-191.92c0 4.95-0.33 9.0862-0.99375 12.399-0.66188 3.3131-1.7438 6.0075-3.2512 8.055-1.5075 2.0456-3.495 3.4894-5.9681 4.3444-2.4712 0.83812-5.5162 1.2656-9.1312 1.2656h-14.824v-78.176h14.826c6.8719 0 11.809 2.0325 14.826 6.0656 3.0094 4.0369 4.5188 10.706 4.5188 19.997v26.049zm25.862-52.29c-4.2225-8.5688-9.975-14.901-17.269-18.994-7.2975-4.1081-16.487-6.1556-27.576-6.1556h-37.069c-3.135 0-5.2162 0.45562-6.24 1.3556-1.0219 0.91125-1.5375 2.7525-1.5375 5.5219v115.08c0 2.7844 0.51562 4.6088 1.5375 5.5238 1.0238 0.89625 3.105 1.3538 6.24 1.3538h41.584c19.652 0 33.094-8.3794 40.328-25.151 1.6838-3.8569 2.8612-7.7438 3.525-11.678 0.66186-3.9169 0.99186-8.8931 0.99186-14.916v-24.429c0-6.8775-0.33-12.309-0.99374-16.286a41.334 41.334 0 0 0-3.5231-11.222z"/>
</svg>
