<?xml version="1.0" encoding="UTF-8"?>
<svg width="405.59" height="450" version="1.1" xmlns="http://www.w3.org/2000/svg">
	<path d="m201.62 0 194.86 112.5v225l-194.86 112.5-194.86-112.5v-225z" fill="#00f825"/>
	<g>
		<path d="m68.357 303.3h-29.998v37.366h10.547v-9.1161h16.536v-8.8511h-16.536v-10.547h19.451z"/>
		<path d="m82.675 303.3h-10.865v37.366h28.514v-8.5861h-17.649z"/>
		<path d="m142.57 340.67-18.444-37.366h-5.0881l-18.391 37.366h11.342l2.597-5.9891h13.939l2.65 5.9891zm-17.808-14.575h-6.3601l3.18-7.3671z"/>
		<path d="m160.39 317.29c-4.8231-1.06-6.0421-1.855-6.0421-3.3921 0-1.325 1.113-2.279 3.233-2.279 3.021 0 6.6781 0.79501 11.024 2.438l4.3461-8.2151c-5.4061-2.067-10.441-3.074-15.052-3.074-4.4521 0-8.0031 1.113-10.6 3.339-2.597 2.226-3.869 5.1411-3.869 8.6921 0 3.8161 1.325 6.5191 4.1341 8.2681 1.431 0.84802 2.809 1.537 4.2401 2.014 1.431 0.47701 3.339 1.007 5.6181 1.537 4.6641 1.06 5.9361 1.908 5.9361 3.339 0 1.59-1.272 2.385-3.8161 2.385-4.7701 0-9.0631-0.90101-12.826-2.703l-3.9221 7.9501c2.862 1.431 5.4591 2.438 7.7381 2.915 2.279 0.477 5.1941 0.68901 8.6391 0.68901 4.6111 0 8.2681-1.06 10.971-3.233 2.756-2.173 4.1341-5.1941 4.1341-8.9571 0-6.7311-4.5051-9.6461-13.886-11.713z"/>
		<path d="m201.63 320.63h-13.038v-17.331h-10.547v37.366h10.547v-11.183h13.038v11.183h10.494v-37.366h-10.494z"/>
		<path d="m243.61 311.41c0-2.173-0.79501-4.0811-2.332-5.6711-1.537-1.643-3.445-2.438-5.6181-2.438h-18.179v37.366h22.154c3.5511 0 6.3071-1.166 8.2681-3.445 2.014-2.279 3.021-5.0881 3.021-8.3741 0-2.915-0.95402-5.5121-2.915-7.6851-1.908-2.173-4.2931-3.498-7.1021-3.9751 1.643-1.06 2.703-3.286 2.703-5.7771zm-12.137 0.74201c1.749 0 2.597 0.68901 2.597 2.014s-0.90101 2.014-2.703 2.014h-3.339v-4.0281zm-3.392 11.554h5.3531c4.0811 0 6.0951 1.802 6.0951 3.9751 0 2.756-1.696 4.1341-6.1481 4.1341h-5.3001z"/>
		<path d="m293.44 340.67-18.444-37.366h-5.0881l-18.391 37.366h11.342l2.597-5.9891h13.939l2.65 5.9891zm-17.808-14.575h-6.3601l3.18-7.3671z"/>
		<path d="m312.1 331.5c-2.438 0-4.5051-0.84801-6.2011-2.597-1.643-1.749-2.491-4.0281-2.491-6.8901 0-2.915 0.84801-5.2471 2.491-6.9431 1.643-1.696 3.7101-2.544 6.2011-2.544 3.021 0 5.4061 1.431 7.1551 4.2401l8.3211-6.7841c-3.7631-4.4521-9.3281-7.2081-15.476-7.2081-5.4591 0-10.176 1.908-14.045 5.6711s-5.8301 8.2681-5.8301 13.568 1.961 9.8051 5.8301 13.568 8.5861 5.6181 14.045 5.6181c6.1481 0 11.713-2.703 15.476-7.1551l-8.3211-6.7841c-1.749 2.809-4.1341 4.2401-7.1551 4.2401z"/>
		<path d="m366.65 303.3h-12.985l-12.084 14.363v-14.363h-10.547v37.366h10.547v-8.1621l2.067-2.544 9.3811 10.706h14.204l-16.642-18.656z"/>
		<path d="m136.08 208.84c0-19.673-7.0983-36.506-21.092-50.5-13.994-13.994-31.03-21.092-50.905-21.092h-64.088v142.98h68.752c18.456 0 34.275-7.0983 47.457-21.295 13.183-14.197 19.875-30.827 19.875-50.094zm-95.726-35.492h23.729c8.518 0 15.819 3.4478 21.903 10.546 6.0843 6.8955 9.1264 15.211 9.1264 24.946 0 9.5321-2.8393 17.644-8.7208 24.54-5.8815 6.8955-12.98 10.546-21.295 10.749h-24.743z"/>
		<path d="m185.52 137.25h-41.576v142.98h109.11v-32.855h-67.536z"/>
		<path d="m308.44 137.25h-46.038l43.807 70.578-45.835 72.403h46.646l25.96-42.387 25.96 42.387h46.646l-45.632-72.403 43.401-70.578h-45.632l-24.743 40.359z"/>
	</g>
</svg>
