<?xml version="1.0" encoding="UTF-8"?>
<svg width="405.59" height="450" version="1.1" xmlns="http://www.w3.org/2000/svg">
	<path d="m201.62 0 194.86 112.5v225l-194.86 112.5-194.86-112.5v-225z" fill="#8b2833"/>
	<g>
		<path d="m160.27 340.66-8.0142-10.031c4.5644-2.3883 6.8466-6.7404 6.8466-13.109 0-7.4304-3.9806-14.277-15.604-14.277h-17.78v37.417h10.88v-8.0142h4.6174c0.15922 0 0.26537 0 0.31844 0.0531l5.7851 7.9611zm-18.629-28.554c4.2459 0 6.0504 2.6537 6.0504 6.2097 0 3.3437-2.0168 5.8381-6.9527 5.8381h-4.1398v-12.048z"/>
		<path d="m181.76 302.77c-5.5197 0-10.243 1.8576-14.171 5.6258-3.8744 3.7683-5.8381 8.2796-5.8381 13.587 0 5.3074 1.9637 9.8187 5.8381 13.587 3.9275 3.7683 8.6511 5.6258 14.171 5.6258 5.5728 0 10.296-1.8576 14.171-5.6258 3.8744-3.7683 5.8382-8.2796 5.8382-13.587 0-5.3074-1.9637-9.8187-5.8382-13.587-3.8744-3.7683-8.598-5.6258-14.171-5.6258zm0 28.766c-2.4414 0-4.5644-0.90226-6.3158-2.7598-1.7514-1.8576-2.6006-4.1398-2.6006-6.7935 0-2.6006 0.84919-4.8828 2.6006-6.7404 1.7514-1.8576 3.8744-2.8129 6.3158-2.8129 2.4945 0 4.5644 0.95533 6.3158 2.8129 1.7514 1.8576 2.6537 4.1398 2.6537 6.7404 0 2.6537-0.90226 4.9359-2.6537 6.7935-1.7514 1.8576-3.8213 2.7598-6.3158 2.7598z"/>
		<path d="m224.68 331.48c-2.4414 0-4.5113-0.84919-6.2097-2.6006-1.6453-1.7514-2.4945-4.0336-2.4945-6.8996 0-2.9191 0.84919-5.2543 2.4945-6.9527 1.6453-1.6984 3.7152-2.5476 6.2097-2.5476 3.0252 0 5.4136 1.433 7.165 4.2459l8.3326-6.7935c-3.7683-4.4582-9.341-7.2181-15.498-7.2181-5.4666 0-10.19 1.9107-14.065 5.6789-3.8744 3.7683-5.8381 8.2796-5.8381 13.587 0 5.3074 1.9637 9.8187 5.8381 13.587 3.8744 3.7683 8.598 5.6258 14.065 5.6258 6.1566 0 11.729-2.7068 15.498-7.165l-8.3326-6.7935c-1.7514 2.8129-4.1398 4.2459-7.165 4.2459z"/>
		<path d="m279.28 303.25h-13.003l-12.101 14.383v-14.383h-10.562v37.417h10.562v-8.1734l2.0699-2.5476 9.3941 10.721h14.224l-16.665-18.682z"/>
		<path d="m136.09 208.84c0-19.673-7.0983-36.506-21.092-50.5-13.994-13.994-31.03-21.092-50.905-21.092h-64.088v142.98h68.752c18.456 0 34.275-7.0983 47.457-21.295 13.183-14.197 19.875-30.827 19.875-50.094zm-95.726-35.492h23.729c8.518 0 15.819 3.4478 21.903 10.546 6.0843 6.8955 9.1264 15.211 9.1264 24.946 0 9.5321-2.8393 17.644-8.7208 24.54-5.8815 6.8955-12.98 10.546-21.295 10.749h-24.743z"/>
		<path d="m185.52 137.25h-41.576v142.98h109.11v-32.855h-67.536z"/>
		<path d="m308.45 137.25h-46.038l43.807 70.578-45.835 72.403h46.646l25.96-42.387 25.96 42.387h46.646l-45.632-72.403 43.401-70.578h-45.632l-24.743 40.359z"/>
	</g>
</svg>
