<?xml version="1.0" encoding="UTF-8"?>
<svg width="800" height="429.2" version="1.1" xmlns="http://www.w3.org/2000/svg">
	<rect width="800" height="429.2" rx="59.689" ry="59.689" fill="#17264d"/>
	<g fill="#fff">
		<path d="m627.98 92.333c-5.3538 0-9.6635 4.3117-9.6635 9.6656v29.394c0 5.3538 4.3097 9.6635 9.6635 9.6635h21.785v186.14c0 5.3536 4.31 9.6635 9.6635 9.6635h30.207c5.3536 0 9.6635-4.31 9.6635-9.6635v-225.2c0-5.3536-4.3099-9.6615-9.6635-9.6615z"/>
		<rect transform="rotate(-90)" x="-141.06" y="371.72" width="48.723" height="181.45" rx="9.6635" ry="9.6635"/>
		<path d="m381.39 189.04c-5.3536 0-9.6635 4.31-9.6635 9.6635v128.49c0 5.3536 4.31 9.6635 9.6635 9.6635h30.207c5.3536 0 9.6636-4.31 9.6636-9.6635v-89.435h74.348c5.3536 0 9.6635-4.31 9.6635-9.6635v-29.394c0-5.3536-4.3099-9.6635-9.6635-9.6635z"/>
		<path d="m110.36 92.335c-5.3536 0-9.6635 4.3079-9.6635 9.6615v29.396c0 5.3536 4.31 9.6635 9.6635 9.6635h101.89c30.723 0 55.455 32.678 55.455 73.542 0 40.864-24.732 73.542-55.455 73.542h-101.89c-5.3536 0-9.6635 4.31-9.6635 9.6635v29.396c0 5.3536 4.31 9.6635 9.6635 9.6635h97.609c60.537 0 109.27-54.53 109.27-122.26 0-67.734-48.736-122.26-109.27-122.26z"/>
	</g>
</svg>
