<svg xmlns="http://www.w3.org/2000/svg" width="450" height="414.712" ><g transform="matrix(.354963 0 0 .354963 -9.245276 -50.606388)"><path d="M454.584 211.797c-1.772-.027-3.286.088-4.48.369-9.636 2.265-39.652 31.179-42.752 48.186-1.313 7.204 13.71 67.754 29.537 75.477 21.905 10.689 80.337 22.338 94.143 25.719l.186-.592c9.192-12.468 22.23-23.767 37.75-33.092-8.992-31.151-40.972-91.071-46.971-95.506-9.1-6.727-50.286-20.303-67.412-20.561z" fill="#734416"/><path d="M454.193 208.652l-1.4.037c-1.215.064-2.349.212-3.4.459-3.49.82-7.136 3.252-11.508 6.668s-9.216 7.863-13.863 12.787c-9.295 9.848-17.91 21.257-19.721 31.191-.326 1.79-.111 3.482.221 5.963s.887 5.53 1.635 8.994c1.497 6.928 3.769 15.495 6.59 24.107s6.18 17.257 9.92 24.373 7.644 12.835 12.861 15.381c13.188 6.435 37.597 12.759 58.9 17.789l27.582 6.258 8.09 1.855 1.117-3.561c.527-.715 1.086-1.421 1.639-2.129l-1.037-.277c-2.016-.494-4.898-1.147-8.457-1.941l-27.508-6.24c-21.187-5.002-45.738-11.535-57.605-17.326-2.696-1.315-6.607-6.059-10.094-12.693s-6.767-15.027-9.516-23.418-4.976-16.794-6.422-23.486c-.723-3.346-1.251-6.268-1.551-8.508s-.268-4.017-.266-4.027c1.289-7.071 9.234-18.622 18.131-28.049 4.449-4.713 9.109-8.982 13.172-12.156s7.782-5.207 9.109-5.52c1.082-.254 2.97-.319 5.387-.178s5.361.489 8.555 1.061c6.386 1.143 13.947 3.038 21.426 5.26s14.885 4.771 20.992 7.203 11.02 4.871 12.98 6.32c-.065-.048 1.337 1.428 2.813 3.582s3.316 5.103 5.383 8.621c4.135 7.035 9.185 16.36 14.275 26.475 9.725 19.326 19.471 41.49 23.518 56.061 1.821-1.145 3.686-2.256 5.578-3.344-4.553-15.432-14.116-36.745-23.557-55.504-5.142-10.219-10.239-19.633-14.469-26.83-2.115-3.598-4.009-6.638-5.613-8.98s-2.625-3.871-4.242-5.066c-3.06-2.262-8.05-4.576-14.373-7.094s-13.872-5.115-21.52-7.387-15.38-4.218-22.1-5.42c-4.409-.789-8.306-1.319-11.652-1.311z" fill="#000500"/><path d="M621.852 145.674c-16.236.131-39.252 3.282-42.305 8.574-16.773 29.082-22.018 76.185-13.191 87.447 16.777 21.406 33.368 43.46 52.363 65.697 14.113-3.568 28.893-5.614 43.805-5.805 8.01-32.268 22.823-86.052 21.504-94.316-1.056-6.612-33.596-51.731-46.75-59.822-2.067-1.271-8.046-1.835-15.426-1.775z" fill="#734416"/><path d="M621.824 142.572c-4.532.036-9.54.302-14.521.777-6.642.634-13.215 1.634-18.566 3.014-2.676.69-5.045 1.468-7.037 2.416s-3.719 1.979-4.838 3.92c-8.679 15.048-14.228 34.37-16.58 51.535-1.176 8.582-1.547 16.615-1.037 23.369s1.726 12.247 4.672 16.006c16.461 21.003 32.803 42.706 51.465 64.643 2.221-.604 4.465-1.154 6.721-1.682-19.343-22.546-36.2-44.964-53.305-66.787-1.468-1.872-2.906-6.492-3.371-12.646s-.131-13.824.998-22.061c2.257-16.473 7.714-35.244 15.809-49.279-.009.016.695-.737 2.131-1.42s3.494-1.384 5.922-2.01c4.856-1.252 11.199-2.234 17.607-2.846s12.905-.861 18.109-.711c2.602.075 4.884.254 6.617.514s2.976.73 3.033.766c2.679 1.648 7.193 5.884 12.025 11.262s10.125 11.928 15.039 18.432 9.457 12.971 12.805 18.168c1.674 2.599 3.049 4.884 4.006 6.656s1.46 3.279 1.439 3.152c.054.336.043 2.113-.26 4.436s-.83 5.324-1.529 8.805c-1.399 6.962-3.488 15.86-5.865 25.494l-13.996 55.164c2.134-.065 4.269-.103 6.408-.092l13.607-53.586c2.388-9.676 4.491-18.631 5.924-25.76.716-3.565 1.266-6.67 1.6-9.223s.521-4.421.234-6.215c-.284-1.78-1.031-3.129-2.107-5.121s-2.517-4.381-4.248-7.068c-3.462-5.375-8.075-11.933-13.072-18.547s-10.372-13.275-15.373-18.84-9.491-10.001-13.389-12.398c-1.596-.982-3.258-1.302-5.361-1.617s-4.586-.498-7.359-.578c-1.387-.04-2.845-.053-4.355-.041z"/><path d="M666.189 301.563c-55.412-.429-109.692 25.102-134.973 59.393l-51.869 165.18c37.93 113.396-14.829 189.673-4.898 227.893l365.393-24.461c-6.578-33.812-19.509-68.196-14.58-90.15l-.166-.039c37.017-16.283 73.014-47.661 107.291-90.947 18.266-23.067 19.506-36.281.701-49.756-60.356-43.248-85.648-48.967-114.104-98.463-11.816-20.349-27.499-34.923-40.51-49.553-30.811-34.645-71.849-48.783-112.285-49.096z" fill="#dc5f1d"/><path d="M523.43 621.572c-8.238.169-20.607 3.358-31.02 10.197-.029.376-.072.747-.104 1.123-4.492 54.601-23.266 94.42-18.295 119.219l.098.439a34.68 34.68 0 0 0 .34 1.477l86.65-5.801c4.008-17.843 9.246-35.903 19.873-59.166-5.586-16.563-21.879-68.221-57.543-67.488z" fill="#734416"/><path d="M772.42 298.957l-51.711 12.252c21.124 7.78 40.967 20.56 57.766 39.449 12.934 14.544 28.507 29.039 40.299 49.201 1.4-36.471-4.045-77.797-46.354-100.902z" fill="#b8c9d3"/><path d="M772.848 295.773l-57.4 13.6a147.72 147.72 0 0 1 10.203 3.748l46.266-10.961c20.979 11.762 32.256 27.955 38.199 45.98 4.948 15.006 6.042 31.24 5.709 46.928 1.076 1.678 2.138 3.382 3.16 5.143l2.578 4.375c1.002-18.752.545-39.238-5.748-58.324-6.418-19.464-19.053-37.429-41.957-49.937z" fill="#25292b"/><path d="M722.797 291.852c-10.9.167-22.045 3.666-32.76 11.561 32.336 4.828 63.687 19.416 88.438 47.246l20.371 22.26c3.137-34.572-34.661-81.702-76.049-81.066z" fill="#393e42"/><path d="M722.752 288.855c-12.331.203-25.011 4.464-36.895 13.984 2.824.348 5.642.773 8.451 1.27 11.075-7.413 22.386-9.971 33.396-9.104 12.918 1.018 25.472 6.817 36.236 15.396 19.238 15.332 32.164 39.49 31.877 59.143l5.668 6.418c3.681-23.686-11.293-52.312-33.805-70.254-11.509-9.173-25.12-15.55-39.506-16.684-1.798-.142-3.607-.2-5.424-.17z" fill="#25292b"/><path d="M665.654 298.465c-7.304-.034-15.625.485-22.15 1.223-47.996 5.515-92.208 28.809-114.783 59.43l-.307.416-52.324 166.631.318.953c18.762 56.09 15.101 102.831 7.945 140.58-7.091 37.404-18.079 65.677-13 86.512 0 .007 0 .02 0 .027h.004l6.186-.414c-.004-.059-.094-.573-.094-.574-4.504-17.33 5.735-46.103 12.994-84.396 7.215-38.062 10.921-85.832-7.857-142.682l51.404-163.701c21.24-28.537 63.959-51.306 110.221-56.621 5.805-.667 11.663-1.064 17.537-1.168l3.857-.027c39.878.165 80.232 13.971 110.553 48.064 13.153 14.79 28.604 29.176 40.145 49.051 14.398 25.04 28.265 39.308 45.916 52.5s39 25.383 69.064 46.926c8.986 6.439 12.463 12 12.258 18.666s-4.609 15.312-13.584 26.646c-42.679 53.897-87.848 88.912-133.77 99.258-45.082 10.156-91.213-3.062-138.025-46.34 3.031-3.143 5.036-7.652 5.49-12.908a3.1 3.1 0 0 0-2.82-3.355 2.97 2.97 0 0 0-.297-.012 3.1 3.1 0 0 0-3.059 2.834c-.462 5.339-2.998 9.11-5.842 10.781s-5.885 1.69-9.229-1.227a3.1 3.1 0 1 0-4.076 4.672c4.414 3.851 9.979 4.618 14.584 2.803 48.211 44.995 97.183 59.491 144.635 48.801 8.063-1.816 16.067-4.409 24.018-7.621-1.139 10.753.679 23.105 3.643 36.521 3.443 15.585 8.259 32.46 11.512 49.063l6.225-.418c-.021-.121-.036-.269-.059-.383-3.324-17.086-8.213-34.17-11.621-49.6-3.276-14.831-5.001-28.047-3.129-38.004 37.026-16.766 72.755-48.169 106.684-91.016 9.29-11.732 14.64-21.228 14.92-30.305s-5.025-16.861-14.844-23.896c-30.292-21.706-51.77-34-68.965-46.852s-30.202-26.188-44.258-50.637l-.008-.012c-12.092-20.822-28.005-35.587-40.873-50.056-31.586-35.518-73.783-49.926-115.139-50.133zm-81.865 388.783a3.1 3.1 0 0 0-2.816 1.813c-10.627 23.263-15.867 41.323-19.875 59.166l6.447-.432c3.887-16.983 8.979-34.072 19.068-56.158a3.1 3.1 0 0 0-2.824-4.389z"/><path d="M992.486 471.805c-1.756-.076-6.424 7.439-19.48 17.52-20.652 15.945-23.512 16.348-35.463 17.098-.842-.849-1.771-1.702-2.811-2.568-.532-.038-1.065-.072-1.617-.072-11.428 0-23.576 8.114-23.576 18.781s3.406 21.529 14.834 21.529c2.752 0 5.765-.638 8.754-1.736 1.038-1.414 1.97-2.769 2.85-4.094 16.502 5.914 33.947 12.271 60.629 9.516 1.648-.17 13.134-2.845 13.564-4.445.254-.945-14.125-1.292-24.158-.918-10.424.389-26.736-2.73-46.881-9.305 1.495-2.702 2.618-5.203 3.348-7.506 35.11.825 51.712-8.432 67.617-16.687 7.657-3.975 16.133-9.716 14.76-11.881-.031-.048-.11-.067-.234-.057-1.866.154-13.643 6.514-16.078 7.5-13.749 5.566-31.129 15.489-65.002 15.096.04-2.704-.537-5.232-1.855-7.713 12.345-1.6 19.989-5.074 38.533-21.801 10.028-9.045 13.875-17.104 12.58-18.137-.093-.074-.195-.114-.312-.119zM743.131 492.27c-.391.024-.692.13-.824.359-.828 1.435.918 2.3 2.311 3.197 42.086 27.102 70.601 36.006 135.262 30.168 3.582-.214 8.796-2.781 8.646-4.432s-2.579-2.659-4.229-2.51c-65.832 3.014-78.63.438-124.049-20.871-.465-.269-12.43-4.862-13.189-5.094s-2.755-.891-3.928-.818zm-36.361 41.518c-.835.047-1.491.351-1.836 1.051-.672 1.516 2.694 3.111 4.139 3.924 59.127 33.278 145.671 22.159 176.125 7.053 1.484-.736 5.964-4.274 5.229-5.758s-6.339-.477-7.873.146c-27.641 11.237-91.325 23.742-167.086-3.633-2.084-.751-6.192-2.924-8.697-2.783zm187.355 20.893c-1.904-.15-4.781.864-6.68 1.93-55.932 31.389-72.838 34.539-123.529 38.393-20.372 1.549-25.152 2.261-25.154 3.918s12.292 3.042 15.557 3.035c51.633-.104 88.035-4.582 137.184-39.484 1.856-1.318 5.092-5.862 4.131-7.211-.346-.351-.873-.53-1.508-.58z" paint-order="normal"/><g transform="rotate(357.5)"><path d="M560.155 461.776c0 53.699-34.709 97.23-77.524 97.23s-77.524-43.531-77.524-97.23 34.709-97.23 77.524-97.23 77.524 43.531 77.524 97.23z" fill="#393e42" paint-order="normal"/><path d="M482.631 361.545c-44.849 0-80.523 45.239-80.523 100.23s35.675 100.23 80.523 100.23 80.525-45.239 80.525-100.23-35.677-100.23-80.525-100.23zm0 6c40.782 0 74.525 41.825 74.525 94.23s-33.743 94.23-74.525 94.23-74.523-41.825-74.523-94.23 33.741-94.23 74.523-94.23z" fill="#25292b" paint-order="normal"/><path d="M533.021 462.241c0 44.22-28.643 80.068-63.975 80.068s-63.975-35.848-63.975-80.068 28.643-80.068 63.975-80.068 63.975 35.848 63.975 80.068z" fill="#b8c9d3" paint-order="normal"/><path d="M469.047 379.172c-37.362 0-66.977 37.553-66.977 83.068s29.615 83.068 66.977 83.068 66.975-37.553 66.975-83.068-29.613-83.068-66.975-83.068zm0 6c33.303 0 60.975 34.143 60.975 77.068s-27.671 77.068-60.975 77.068-60.977-34.143-60.977-77.068 27.673-77.068 60.977-77.068z" fill="#25292b" paint-order="normal"/></g><path d="M684.68 248.07c14.32 9.165 27.763 21.46 38.139 40.785 1.795-.027 3.581.03 5.357.17 8.868.699 17.439 3.395 25.408 7.506-18.61-25.234-42.916-40.904-68.904-48.461z" fill="#859fb0"/><path d="M674.584 245.555c16.881 9.337 32.855 21.646 44.906 43.461l6.734-.098c-8.827-16.964-20.021-28.721-32.055-37.695l-8.162-5.86z" fill="#25292b"/><path d="M499.708 379.035c-18.027-158.683 205.35-202.357 272.712-80.077l-11.554 2.794c-74.866-114.665-258.286-57.595-248.29 65.895z" fill="#b8c9d3"/><path d="M639.654 225.684c-12.278.393-24.502 2.089-36.338 5.041-31.562 7.873-60.493 24.696-80.426 49.791s-30.751 58.481-26.164 98.857l4.969 1.908 12.867-11.387 1.002-2.49c-4.876-60.237 37.272-104.064 90.154-119.127s115.94-1.087 152.635 55.115l3.217 1.275 11.555-2.795 1.922-4.363c-27.974-50.781-82.188-73.528-135.393-71.826zm.135 5.992c49.984-1.629 100.622 19.214 127.912 65.338l-5.576 1.348c-38.345-56.948-103.582-71.37-158.051-55.855-54.586 15.548-98.8 61.381-94.541 123.828l-7.254 6.418c-2.753-36.206 7.314-65.847 25.311-88.504 18.985-23.902 46.729-40.108 77.178-47.703a167.49 167.49 0 0 1 35.021-4.869z" fill="#25292b"/><path d="M625.428 227.076c-85.699-.492-147.97 46.672-154.984 142.932l29.264 9.027c-11.312-99.572 72.427-153.855 153.027-150.271l.006-.006c-9.332-1.069-18.447-1.631-27.312-1.682z" fill="#859fb0"/><path d="M624.252 224.068l-.047.045c-42.875-.015-80.215 11.794-107.752 35.889-27.807 24.33-45.451 61.051-49.002 109.787l-.174 2.381 35.928 11.084-.518-4.557c-5.555-48.9 12.1-86.219 41.027-111.211S613.019 230 652.602 231.76l1.32.06 5.334-5.336-6.174-.707c-9.433-1.081-18.656-1.65-27.637-1.701zm-23.066 7.369c-22.701 5.98-43.981 16.465-61.393 31.508-29.352 25.359-47.625 63.415-43.451 111.912l-22.643-6.986c3.857-46.291 20.651-80.556 46.705-103.354 21.276-18.616 48.876-29.558 80.781-33.08z" fill="#25292b"/><g transform="rotate(357.5)"><path d="M507.353 461.863c0 39.634-22.894 71.764-51.134 71.764s-51.134-32.13-51.134-71.764 22.894-71.764 51.134-71.764 51.134 32.13 51.134 71.764z" fill="#859fb0" paint-order="normal"/><path d="M456.219 387.1c-15.258 0-28.928 8.703-38.6 22.277s-15.535 32.092-15.535 52.486 5.863 38.912 15.535 52.486 23.342 22.277 38.6 22.277 28.928-8.703 38.6-22.277 15.535-32.092 15.535-52.486-5.863-38.912-15.535-52.486-23.342-22.277-38.6-22.277zm0 6c12.983 0 24.88 7.36 33.715 19.76s14.42 29.764 14.42 49.004-5.585 36.604-14.42 49.004-20.732 19.76-33.715 19.76-24.88-7.36-33.715-19.76-14.42-29.764-14.42-49.004 5.585-36.604 14.42-49.004 20.732-19.76 33.715-19.76z" fill="#25292b" paint-order="normal"/></g><path d="M705.626 465.697c0 30.829-22.864 55.821-51.069 55.821s-51.069-24.992-51.069-55.821 22.864-55.821 51.069-55.821 51.069 24.992 51.069 55.821z" fill="#eaeaea" paint-order="normal"/><path d="M654.557 406.775c-30.036 0-54.17 26.56-54.17 58.922s24.134 58.92 54.17 58.92 54.17-26.558 54.17-58.92-24.134-58.922-54.17-58.922zm0 6.201c26.373 0 47.969 23.425 47.969 52.721s-21.595 52.721-47.969 52.721-47.969-23.425-47.969-52.721 21.595-52.721 47.969-52.721z" fill="#000200" paint-order="normal"/><path d="M664.58 478.596c-3.673 13.789-16.973 22.259-29.705 18.917s-20.076-17.23-16.402-31.019c1.764-6.622 5.885-12.335 11.455-15.883s12.135-4.639 18.249-3.034 11.277 5.775 14.353 11.592 3.813 12.805 2.049 19.427z" paint-order="normal"/><path d="M594.042 475.176c.605-25.299 6.937-64.248 14.872-71.869 16.008-15.376 45.287-23.47 55.061-20.549 10.695 3.196 27.376 21.217 43.347 47.471-41.971-.442-87.93 22.051-113.28 44.948z" fill="#dc5f1d"/><path d="M659.439 378.992c-5.973-.167-13.495 1.473-21.654 4.244-10.879 3.695-22.53 9.68-31.02 17.834-2.787 2.676-4.59 6.817-6.377 12.137s-3.362 11.801-4.705 18.822c-2.687 14.042-4.432 30.203-4.74 43.072a3.1 3.1 0 0 0 5.176 2.375c24.716-22.324 70.33-44.578 111.17-44.148a3.1 3.1 0 0 0 2.682-4.711c-8.071-13.267-16.328-24.478-24.016-32.865s-14.638-14.036-21.094-15.965c-1.613-.482-3.431-.739-5.422-.795zm.039 6.357c1.543.001 2.779.131 3.609.379 4.24 1.267 10.977 6.227 18.297 14.213 6.379 6.959 13.329 16.472 20.238 27.314-38.542 1.378-78.569 20.281-103.988 40.977.637-11.168 1.97-23.705 4.139-35.037 1.307-6.832 2.841-13.097 4.492-18.014s3.614-8.504 4.795-9.639c7.519-7.222 18.513-12.971 28.719-16.437 7.654-2.6 15.069-3.758 19.699-3.756z"/><g transform="matrix(.884816 -.46594 .449969 .893044 0 0)"><path d="M550.226 738.01c0 27.534-18.849 49.854-42.101 49.854s-42.101-22.321-42.101-49.854 18.849-49.854 42.101-49.854 42.101 22.321 42.101 49.854z" fill="#fff" paint-order="normal"/><path d="M508.125 685.088c-25.215 0-45.17 23.988-45.17 52.922s19.954 52.924 45.17 52.924 45.17-23.99 45.17-52.924-19.955-52.922-45.17-52.922zm0 6.137c21.288 0 39.033 20.652 39.033 46.785s-17.745 46.787-39.033 46.787-39.033-20.654-39.033-46.787 17.745-46.785 39.033-46.785z" paint-order="normal"/></g><ellipse cx="615.807" cy="639.978" rx="21.753" ry="23.683" transform="matrix(.953469 -.301491 .292649 .95622 0 0)" paint-order="normal"/><path d="M731.428 426.714c-.914-23.758 4.875-61.884 12.367-68.208 6.384-5.388 34.226-10.28 41.016-5.261 27.509 20.33 32.628 35.065 40.833 48.442-33.444-8.392-67.622 5.946-94.217 25.027z" fill="#dc5f1d"/><path d="M776.574 348.096c-3.947-.175-8.419.154-12.875.811s-8.879 1.643-12.687 2.842-6.949 2.474-9.217 4.389c-2.896 2.444-4.514 6.334-6.168 11.389s-3.07 11.274-4.223 18.025c-2.306 13.504-3.543 29.089-3.074 41.283a3.1 3.1 0 0 0 4.904 2.398c26.17-18.777 59.504-32.607 91.656-24.539a3.1 3.1 0 0 0 3.396-4.627c-7.976-13.003-13.696-28.668-41.633-49.314-2.705-1.999-6.133-2.481-10.08-2.656zm-.275 6.193c3.383.15 5.98.94 6.67 1.449 23.158 17.115 29.835 29.649 36.553 41.533-30.424-4.983-60.562 7.197-85.018 23.656.036-10.661 1.119-23.249 3.012-34.334 1.117-6.54 2.494-12.524 4.004-17.139s3.425-7.863 4.275-8.58c.924-.78 3.658-2.136 7.078-3.213s7.579-2.011 11.73-2.623 8.312-.9 11.695-.75z"/></g><path d="M0 227.702l396.499-26.545 4.877 72.847L4.877 300.549z" fill="#3f8cba" paint-order="stroke fill markers"/><path d="M318.668 871.575c0 8.94 3.442 13.41 10.327 13.41 2.466 0 4.521-.771 6.166-2.312s2.466-3.597 2.466-6.166c0-3.288-1.233-5.96-3.699-8.015a74.17 74.17 0 0 0-2.004-1.387c-.617-.411-1.49-.822-2.62-1.233l-6.474-1.541-8.324-1.85a176.07 176.07 0 0 1-13.873-4.008c-4.624-1.644-8.324-3.186-11.098-4.624-8.529-4.521-12.794-12.28-12.794-23.275 0-6.782 1.747-12.948 5.241-18.497 3.597-5.652 8.426-9.865 14.489-12.639 7.604-3.597 17.777-5.395 30.52-5.395 16.441 0 28.978 2.261 37.61 6.782 5.138 2.877 9.248 7.039 12.331 12.485 1.541 2.672 2.569 5.189 3.083 7.553.514 2.261.771 5.446.771 9.557h-42.388c0-7.604-3.237-11.406-9.711-11.406-2.363 0-4.47.822-6.32 2.466s-2.774 3.597-2.774 5.857c0 2.158.719 4.162 2.158 6.011 1.439 1.747 3.134 2.877 5.087 3.391l4.47.925 9.711 2.62 12.177 2.929c4.213 1.13 7.964 2.363 11.252 3.699 5.446 2.158 9.762 5.806 12.948 10.944 3.288 5.035 4.932 10.841 4.932 17.418 0 6.371-1.49 12.177-4.47 17.418s-7.039 9.197-12.177 11.869c-7.912 4.11-19.678 6.166-35.298 6.166-8.837 0-16.236-.617-22.196-1.85-5.857-1.233-11.201-3.391-16.03-6.474-5.549-3.494-9.916-8.221-13.102-14.181-1.336-2.569-2.261-4.932-2.774-7.09-.514-2.261-.771-5.189-.771-8.786zm67.085 37.433V797.874h86.472v28.978h-42.08v11.098h40.384v30.057h-40.384v12.177h42.388v28.824zm94.908-.017l.279-111.116 51.26-.134 20.605 58.458 1.188-58.603 34.8-.002-.279 111.116-50.519.132-19.058-55.35-1.204 55.556zm123.457.156l.515-111.101 45.783-.228 9.441.261q9.872-.049 15.16 1.157 5.432 1.052 11.857 3.793 11.565 5.181 18.228 18.4 6.663 13.218 6.58 31.093-.082 17.721-6.725 31.006-6.499 13.13-18.546 19.508-4.734 2.643-9.748 4.209-4.871 1.411-10.308 1.438l-17.742.243zm42.606-86.349l-.281 60.713 2.289-.011q5.008-.025 7.587-.962 2.58-.937 5.025-3.723 6.041-6.964 6.11-21.757l-.361-14.637q.01-2.157-.551-4.62-.418-2.463-1.266-4.77-3.672-10.306-13.115-10.259l-2.289.011zm176.821-25.347l-.444 80.124q-.032 5.701-1.605 9.871-1.573 4.17-5.403 8.661-11.919 14.864-44.047 15.058-31.283.189-43.742-14.527-4.9-5.671-5.868-9.055-.967-3.538-.902-15.248l.411-74.268 42.697-.259-.381 68.876.133 1.386q-.011 2.003-.02 3.698.132 1.54.966 3.692.834 1.998 2.799 3.373 1.965 1.375 4.079 1.362 4.932-.03 7.072-4.819.572-1.544.721-2.932.29-1.543.308-4.778l.147-1.079.381-68.876zm12.108 112.21l.236-111.119 51.575-.113 20.139 59.738 1.539-59.89 33.688-.074 1.339 111.221-50.829.112-20.145-55.201-.45 55.257zm227.888-72.94l-43.543.154c.39-2.054.029-8.496-1.725-9.934-1.48-1.214-3.159-1.992-5.4-1.984-5.747.02-9.557 3.321-11.43 9.903-.69 2.468-1.236 5.449-1.637 8.944a94.56 94.56 0 0 0-.62 10.481c-.024 7.294.443 13.097 1.403 17.409 1.824 8.007 7.168 11.995 16.033 11.963 2.338-.008 4.969-.326 7.893-.953l.044-13.253-13.735.049.083-24.503 54.794-.194-.2 59.639-13.161 3.283c-6.141 1.357-12.477 2.407-19.006 3.149a180.17 180.17 0 0 1-19.73 1.149c-7.988.028-14.318-.36-18.991-1.166s-9.392-2.33-14.158-4.573c-6.321-3.06-11.759-8.126-16.314-15.198-3.296-4.611-5.666-9.534-7.11-14.769-1.443-5.337-2.153-11.55-2.129-18.639.017-4.931.275-9.453.776-13.564a73.23 73.23 0 0 1 2.673-12.646c2.071-7.61 5.698-14.249 10.879-19.918 5.279-5.669 11.576-9.801 18.89-12.395s16.329-3.91 27.045-3.948c12.761-.045 22.837 1.82 30.227 5.595 7.391 3.672 12.874 9.663 16.451 17.972.676 1.744 1.157 3.643 1.442 5.697.383 1.951.256 12.251.256 12.251zm-890.805 69.44V831.68h57.953v19.42h-28.202v7.438h27.065v20.144h-27.065v8.161h28.408v19.318zm-41.143-.865v-74.481h31.301v74.481zm-80.819.218l.216-74.468 31.573-.096 6.511.187c4.539-.014 8.024.251 10.456.795 2.498.474 5.225 1.327 8.182 2.557 5.321 2.325 9.519 6.444 12.593 12.356s4.6 12.862 4.577 20.849c-.023 7.918-1.556 14.843-4.599 20.774-2.977 5.862-7.232 10.212-12.766 13.052-2.174 1.177-4.413 2.113-6.717 2.809-2.238.626-4.607.944-7.107.951l-12.235.14zm29.274-57.824l-.118 40.694 1.579-.005c2.302-.007 4.046-.219 5.231-.636s2.339-1.246 3.461-2.489c2.772-3.107 4.366-7.966 4.186-14.576l-.268-9.811c-.128-2.33-.476-4.17-1.264-6.296-1.706-4.605-4.716-6.906-9.057-6.892l-1.579.005z" transform="matrix(.341251 -.023721 .022015 .367696 -9.245276 -50.606388)" fill="#fff"/><path d="M55.489 290.086l389.593-26.029L450 337.664 60.407 363.693z" fill="#db6226" paint-order="stroke fill markers"/><g fill="#fff"><path d="M222.554 1063.2v-76.456h42.205l8.377 42.947 8.377-42.947h42.205v76.456h-25.132l.742-47.507h-1.485l-11.665 47.507h-26.086l-11.771-47.507h-1.591l.848 47.507zm109.435 0v-76.456h32.131v76.456zm36.266-56.52v-19.936h68.821v19.936h-18.345v56.52H386.6v-56.52zm103.815 56.52v-76.456h33.933l6.999.212q7.317 0 11.24.848 4.03.742 8.801 2.651 8.589 3.605 13.573 12.725 4.984 9.12 4.984 21.421 0 12.195-4.878 21.314-4.772 9.014-13.679 13.361-3.499 1.803-7.211 2.863-3.605.954-7.635.954l-13.149.106zm31.282-59.278v41.78h1.697q3.711 0 5.62-.636 1.909-.636 3.711-2.545 4.454-4.772 4.454-14.952l-.318-10.074q0-1.485-.424-3.181-.318-1.697-.954-3.287-2.757-7.105-9.756-7.105h-1.697zm55.142 59.278v-76.456h59.49v19.936h-28.949v7.635h27.783v20.678h-27.783v8.377h29.162v19.83zm66.276 0v-76.456h43.901q9.226 0 12.619.636 3.393.53 6.893 2.757 7.635 4.772 7.635 17.073 0 6.999-3.287 11.134-3.287 4.136-10.816 6.257 6.893 1.166 10.286 5.514 1.379 1.909 2.333 5.302l.742 2.545.424 3.711 1.909 16.012q.106.742.53 2.439.53 1.697.954 3.075h-31.282q-1.06-4.348-1.803-7.953-.636-3.605-.636-5.832l-.424-4.03q-.53-5.726-1.803-7.529-1.485-1.803-5.726-1.803l-1.909.106v27.041zm29.798-58.853v13.361h5.196q3.393 0 5.408-1.697 2.015-1.697 2.015-4.666 0-6.999-7.211-6.999h-2.333z" transform="matrix(.331619 -.022066 .018464 .378722 -9.245276 -50.606388)"/><path d="M737.42 1077.537l.125-109.17 59.132-.071 11.667 61.309 11.807-61.337 59.132-.071-.125 109.17-35.211.042 1.118-67.835h-2.08l-16.421 67.854-36.549.044-16.414-67.814h-2.229l1.111 67.833zm148.22.008l30.437-109.178h58.905l30.437 109.178h-42.702l-3.483-16.808h-27.408l-3.483 16.808zm59.965-81.164l-9.388 37.251h19.837zm168.175-28.31l-.208 78.728q-.015 5.602-1.619 9.694-1.604 4.092-5.526 8.494-12.205 14.569-45.227 14.663-32.153.091-45.005-14.407-5.054-5.588-6.059-8.916-1.005-3.479-.974-14.986l.193-72.975 43.885-.125-.173 65.405-.01 2.271.141 1.362q-.01 1.968-.01 3.634.141 1.514 1.004 3.631.864 1.966 2.888 3.323 2.024 1.357 4.197 1.351 5.069-.014 7.254-4.714.583-1.516.732-2.879.294-1.515.302-4.694l.148-1.06.01-2.271.173-65.405zm49.503 74.646c0 8.783 3.382 13.174 10.146 13.174 2.423 0 4.442-.757 6.057-2.271s2.423-3.533 2.423-6.057c0-3.23-1.211-5.855-3.634-7.874a76.4 76.4 0 0 0-1.968-1.363c-.605-.404-1.464-.808-2.574-1.211l-6.36-1.514-8.177-1.817c-4.543-1.111-9.086-2.423-13.628-3.937-4.543-1.615-8.177-3.129-10.903-4.543-8.379-4.442-12.568-12.064-12.568-22.865 0-6.663 1.716-12.72 5.149-18.171a32.64 32.64 0 0 1 14.234-12.417c7.47-3.533 17.465-5.3 29.982-5.3 16.152 0 28.468 2.221 36.948 6.663 5.047 2.827 9.086 6.915 12.114 12.265 1.514 2.625 2.524 5.098 3.028 7.42.505 2.221.757 5.35.757 9.388h-41.642c0-7.47-3.18-11.206-9.54-11.206-2.322 0-4.391.808-6.208 2.423s-2.726 3.533-2.726 5.754c0 2.12.707 4.089 2.12 5.906 1.413 1.716 3.079 2.827 4.997 3.331l4.391.909 9.54 2.574 11.963 2.877c4.139 1.111 7.824 2.322 11.054 3.634 5.35 2.12 9.59 5.704 12.72 10.751 3.23 4.947 4.846 10.65 4.846 17.111 0 6.259-1.464 11.963-4.391 17.111s-6.915 9.035-11.963 11.66c-7.773 4.038-19.332 6.057-34.677 6.057-8.682 0-15.95-.606-21.805-1.817-5.754-1.211-11.004-3.331-15.748-6.36-5.451-3.432-9.742-8.076-12.871-13.931-1.312-2.524-2.221-4.846-2.726-6.966-.505-2.221-.757-5.098-.757-8.631z" transform="matrix(.335327 -.023336 .020369 .374332 -9.245276 -50.606388)"/></g><path d="M134.902 413.532v-40.526h14.619v13.659h5.838v-13.659h14.571v40.526h-14.57v-15.12h-5.838v15.12zm46.943-44.171v-10.174h8.735v10.174zm13.588 0v-10.174h8.735v10.174zm-22.24 24.217c0-6.408 1.715-11.523 5.144-15.345 3.462-3.86 8.072-5.789 13.83-5.789s10.369 1.93 13.83 5.789 5.192 8.975 5.192 15.345-1.731 11.485-5.192 15.345-8.072 5.789-13.83 5.789c-5.726 0-10.32-1.93-13.782-5.789s-5.192-8.975-5.192-15.345zm18.974-10.174c-1.197 0-2.135.899-2.815 2.698s-1.019 4.291-1.019 7.476c0 3.26.324 5.771.971 7.532.679 1.761 1.634 2.642 2.863 2.642 1.197 0 2.135-.899 2.815-2.698s1.019-4.291 1.019-7.476c0-3.26-.34-5.771-1.019-7.532-.647-1.761-1.585-2.642-2.815-2.642zm23.113 30.128v-40.526h20.78q4.367 0 5.973.337 1.606.281 3.262 1.461 3.614 2.529 3.614 9.05 0 3.71-1.556 5.902-1.556 2.192-5.12 3.316 3.262.618 4.869 2.923.652 1.012 1.104 2.81l.351 1.349.201 1.967.903 8.487q.05.393.251 1.293.251.899.452 1.63h-14.807q-.502-2.305-.853-4.216-.301-1.911-.301-3.091l-.201-2.136q-.251-3.035-.853-3.991-.703-.956-2.71-.956l-.903.056v14.333zm14.104-31.195v7.082h2.459q1.606 0 2.56-.899.954-.899.954-2.473 0-3.71-3.413-3.71h-1.104zm23.765 31.195v-40.526h28.158v10.567h-13.702v4.047h13.15v10.961h-13.15v4.44h13.803v10.511zm31.37 0v-40.526h16.938l7.851 22.701.407-22.701h11.343v40.526h-17.115l-7.202-22.205-.041 22.205zm-249.884.583v-5.845l9.564-15.23h-9.287v-7.595h21.381v6.084L47.007 406.6h9.842v7.516zm49.174-28.67v20.678q0 1.471-.368 2.545-.368 1.074-1.27 2.227-2.808 3.817-10.429 3.817-7.421 0-10.396-3.817-1.17-1.471-1.404-2.346-.234-.915-.234-3.937v-19.167h10.128v17.775l.033.358q0 .517 0 .954.033.398.234.954.201.517.669.875.468.358.969.358 1.17 0 1.671-1.233.134-.398.167-.756.067-.398.067-1.233l.033-.278v-17.775zm3.447 28.67v-28.67h13.792l2.738 16.105 2.738-16.105h13.792v28.67h-8.213l.243-17.815h-.485l-3.812 17.815h-8.525L95.677 396.3h-.52l.277 17.815z" fill="#734312"/><path d="M416.877 398.894h6.437v-8.973h.492c.733 0 2.581-.045 3.586 1.728l3.955 7.246h6.927l-3.604-6.597c-1.19-2.212-2.169-3.396-2.94-4.005v-.073c2.172-.839 4.548-2.862 4.548-6.985 0-5.107-3.358-7.739-9.306-7.739h-10.097v8.816h-.065c-1.223-5.319-5.34-8.816-12.86-8.816h-14.238l-2.169 10.372c-.455 2.136-.841 4.846-.841 4.846h-.069s-.489-3.013-.945-5.152l-1.857-10.066h-7.815l-1.857 10.066c-.455 2.139-.945 5.152-.945 5.152h-.071s-.384-2.71-.839-4.846l-2.17-10.372h-7.069l6.228 25.399h7.11l3.535-16.285h.069l3.535 16.285h6.998l5.185-21.089h.069v21.089h7.947c7.626 0 11.833-3.812 13.071-9.262h.063v9.263zm-12.609-5.758h-1.958v-13.883h1.783c4.27 0 6.194 2.059 6.194 6.79 0 4.651-1.924 7.093-6.019 7.093m22.566-8.583h-3.519v-5.681h3.308c2.206 0 3.116.952 3.116 2.858 0 1.756-.945 2.823-2.905 2.823"/></svg>