<?xml version="1.0" encoding="UTF-8"?>
<svg width="800" height="330.41" version="1.1" xmlns="http://www.w3.org/2000/svg">
	<defs>
		<linearGradient id="SVGID_5_" x1="809.8" x2="809.8" y1="169.05" y2="310.5" gradientTransform="matrix(.74769 0 0 .74769 .016974 -.03088)" gradientUnits="userSpaceOnUse">
			<stop stop-color="#fff" offset="0"/>
			<stop stop-color="#FBFFFE" offset=".081109"/>
			<stop stop-color="#F0FDFB" offset=".1593"/>
			<stop stop-color="#DCFBF5" offset=".2363"/>
			<stop stop-color="#C1F8EE" offset=".3126"/>
			<stop stop-color="#9EF5E4" offset=".3885"/>
			<stop stop-color="#73F0D7" offset=".4639"/>
			<stop stop-color="#40EBC9" offset=".5377"/>
			<stop stop-color="#1FE7C0" offset=".5815"/>
		</linearGradient>
		<linearGradient id="SVGID_6_" x1="919.42" x2="919.42" y1="165.48" y2="423.79" gradientTransform="matrix(.74769 0 0 .74769 .016974 -.03088)" gradientUnits="userSpaceOnUse">
			<stop stop-color="#fff" offset="0"/>
			<stop stop-color="#FDFFFE" offset=".1172"/>
			<stop stop-color="#F5FEFC" offset=".1806"/>
			<stop stop-color="#E7FCF8" offset=".2311"/>
			<stop stop-color="#D4FAF3" offset=".2749"/>
			<stop stop-color="#BBF8EC" offset=".3143"/>
			<stop stop-color="#9CF4E3" offset=".3506"/>
			<stop stop-color="#77F0D9" offset=".3845"/>
			<stop stop-color="#4DECCD" offset=".4156"/>
			<stop stop-color="#1FE7C0" offset=".4447"/>
		</linearGradient>
		<linearGradient id="SVGID_3_" x1="221.43" x2="221.43" y1="19.203" y2="336.07" gradientTransform="matrix(.74769 0 0 .74769 .016974 -.03088)" gradientUnits="userSpaceOnUse">
			<stop stop-color="#fff" offset="0"/>
			<stop stop-color="#FDFFFE" offset=".2528"/>
			<stop stop-color="#F6FEFD" offset=".3439"/>
			<stop stop-color="#EAFDF9" offset=".4089"/>
			<stop stop-color="#DAFBF4" offset=".4614"/>
			<stop stop-color="#C4F9EE" offset=".5064"/>
			<stop stop-color="#A8F6E7" offset=".5462"/>
			<stop stop-color="#88F2DE" offset=".5822"/>
			<stop stop-color="#62EED3" offset=".6153"/>
			<stop stop-color="#39EAC7" offset=".6448"/>
			<stop stop-color="#1FE7C0" offset=".6611"/>
		</linearGradient>
		<linearGradient id="SVGID_4_" x1="453.53" x2="453.53" y1="168.44" y2="300.94" gradientTransform="matrix(.74769 0 0 .74769 .016974 -.03088)" gradientUnits="userSpaceOnUse">
			<stop stop-color="#fff" offset="0"/>
			<stop stop-color="#FCFFFE" offset=".099166"/>
			<stop stop-color="#F3FEFC" offset=".1693"/>
			<stop stop-color="#E3FCF7" offset=".2304"/>
			<stop stop-color="#CDFAF1" offset=".2865"/>
			<stop stop-color="#B1F7E9" offset=".3391"/>
			<stop stop-color="#8EF3DF" offset=".3891"/>
			<stop stop-color="#64EED3" offset=".437"/>
			<stop stop-color="#35E9C6" offset=".4821"/>
			<stop stop-color="#1FE7C0" offset=".5012"/>
		</linearGradient>
		<linearGradient id="SVGID_2_" x1="548.65" x2="548.65" y1="168.92" y2="302.52" gradientTransform="matrix(.74769 0 0 .74769 .016974 -.03088)" gradientUnits="userSpaceOnUse">
			<stop stop-color="#fff" offset="0"/>
			<stop stop-color="#FBFFFE" offset=".06708"/>
			<stop stop-color="#F0FDFB" offset=".1317"/>
			<stop stop-color="#DCFBF5" offset=".1954"/>
			<stop stop-color="#C1F8EE" offset=".2585"/>
			<stop stop-color="#9EF5E4" offset=".3213"/>
			<stop stop-color="#73F0D7" offset=".3837"/>
			<stop stop-color="#40EBC9" offset=".4447"/>
			<stop stop-color="#1FE7C0" offset=".4809"/>
		</linearGradient>
		<linearGradient id="SVGID_1_" x1="685.51" x2="685.51" y1="151.15" y2="300.74" gradientTransform="matrix(.74769 0 0 .74769 .016974 -.03088)" gradientUnits="userSpaceOnUse">
			<stop stop-color="#fff" offset="0"/>
			<stop stop-color="#FDFFFE" offset=".1584"/>
			<stop stop-color="#F4FEFC" offset=".2509"/>
			<stop stop-color="#E6FCF8" offset=".3266"/>
			<stop stop-color="#D2FAF2" offset=".3931"/>
			<stop stop-color="#B8F7EB" offset=".4536"/>
			<stop stop-color="#98F4E2" offset=".5098"/>
			<stop stop-color="#72F0D7" offset=".5627"/>
			<stop stop-color="#47EBCB" offset=".6115"/>
			<stop stop-color="#1FE7C0" offset=".6509"/>
		</linearGradient>
	</defs>
	<g>
		<path d="m784.62 228.95h-80.749l-18.38 6.4115-13.222 30.765-7.4272 39.739h119.77c8.4978 0 15.386-7.1892 15.386-16.05v-44.815c4e-3 -8.8619-6.8837-16.05-15.38-16.05z" fill="#cecccc" opacity=".8"/>
		<path d="m738.36 259.26h-7.0406v-21.551h-13.747v59.395h13.747v-25.964h7.0406v25.964h13.746v-59.395h-13.746zm43.872-21.551h-24.612v59.395h24.612c8.3152 0 9.5834-12.385 9.5834-12.385v-34.62c0-5e-3 -1.2682-12.391-9.5834-12.391zm-3.5652 19.342v23.594c0 3.7362-3.3108 4.0749-3.3108 4.0749h-4.6657v-34.62h4.6657s3.3108 0.33951 3.3108 4.0757z" fill="#003a7b"/>
		<path d="m757.28 152.29c-5.2338-27.066-31.253-40.001-42.992-43.067-13.085-3.3646-27.141-2.3926-39.478 2.916-5.9815 2.5422-13.982 7.1031-18.916 11.515-5.1591-4.9347-16.748-11.739-29.832-11.739-11.515 0.5234-58.544 5.9815-70.657 12.412-6.6545-11.664-17.048-24.748-29.609-25.72-5.9067-0.44862-11.664 1.944-15.178 6.7292-4.9347 6.7292-4.5609 15.851-2.9907 25.795-17.945-18.019-58.32-19.141-83.965-19.365-24.374-0.14953-56.226 6.1311-65.274 11.066 4.5609-2.7664 22.206-13.01 33.123-27.964 11.066 1.7197 23.702-4.1871 30.057-13.309 6.8787-10.019 7.2526-23.403 1.7197-34.094-4.5609-8.8227-12.861-15.477-22.356-18.169-10.244-2.916-21.608-0.82246-29.907 5.9067-1.1963-11.365-9.3461-21.01-19.814-25.197-11.215-4.4862-24.524-2.8412-34.094 4.6357-5.1591 4.0375-9.1218 9.645-10.916 15.926-2.0187 7.4022-0.972 15.477 2.7664 22.057 0 0-0.0747 0.07477-0.0747 0.14954-9.4961 8.5985-18.019 21.31-17.197 34.693-22.73-22.581-49.422-40.45-74.32-53.31-25.197-13.01-73.423-32.973-123.07-34.094-14.654-0.37385-47.179 0.972-61.983 5.4582-31.552 9.4209-34.618 32.375-31.253 42.319 3.8132 11.141 16.898 15.552 33.646 12.636 6.2058-1.1215 12.636-6.2806 14.132-14.356 24.374-1.4206 52.488 0.59815 79.405 7.8507-6.2058 16.599-10.169 38.207-12.412 62.881-13.608 2.916-29.982 7.6265-42.543 13.757-11.215 5.4582-23.552 13.383-27.889 25.795-4.7105 13.234 3.0655 26.244 11.29 36.188 8.6732 10.542 29.832 30.281 58.694 44.114 1.1963 7.1031 4.4114 21.982 19.59 26.842 10.467 3.3646 23.777 0.97199 31.403-10.019 9.5701 2.1683 27.29 3.3646 38.058 3.4394v15.028c0 18.618 15.103 33.871 33.721 33.871h380.42c4.7852 9.9438 14.506 21.832 25.645 24.001 20.038 3.9627 22.356-14.654 23.477-20.487 1.1216-6.1311 2.0187-12.262 3.9627-18.244l14.654-49.049c12.786-1.944 27.29-8.0003 37.609-15.552 10.169-7.4022 18.916-16.748 25.347-27.515 8.2994-13.982 11.888-30.581 8.0003-46.73" fill="#003a7b"/>
		<path d="m524.52 112.96c-3.0656 0-3.6637 3.2898-3.6637 6.804 0.0747 10.467 14.58 46.955 14.58 61.012 0 2.916-0.22431 8.0751-2.4674 8.748-3.5142 0.972-33.796-54.283-46.431-55.254-13.01-0.89723-19.889 54.283-19.814 67.89 0 13.608 2.3926 22.73 12.486 22.73 15.028 0 7.2526-55.254 13.309-55.254 4.4114 0 28.936 50.47 42.543 50.395 14.729 0 23.403-21.608 23.403-35.59-0.2243-32.151-21.533-71.479-33.945-71.479z" fill="url(#SVGID_1_)"/>
		<path d="m524.6 112.96v2.2431c4.0375 0 11.813 7.0283 19.515 22.431 7.4769 15.028 12.038 32.525 12.112 46.73 0 7.0283-2.2431 15.477-5.9067 21.907-5.5329 9.9438-11.963 11.44-15.328 11.44-2.0935 0-6.2058-1.944-13.533-11.215-5.4582-6.8787-10.916-15.477-15.777-23.029-8.3742-13.085-10.542-16.15-13.159-16.15-4.4862 0-4.7105 6.8787-5.1591 20.636-0.37386 12.935-1.1215 34.618-8.1498 34.618h-0.0747c-6.1311 0-10.169-3.5142-10.169-20.487 0-6.1311 1.4206-20.262 3.8132-33.197 2.9907-16.075 6.804-27.066 10.767-31.03 0.972-0.972 1.7945-1.4206 2.6169-1.4206h0.14954c1.5702 0.14954 5.5329 1.944 14.206 12.711 6.0563 7.5516 12.337 16.823 17.87 25.048 9.8699 14.654 12.038 17.496 14.431 17.496 0.22431 0 0.44862 0 0.67293-0.0747 3.6636-0.972 4.1123-6.3554 4.1123-10.916 0-7.8507-4.1871-21.758-8.2246-35.217-3.2898-10.916-6.3554-21.235-6.3554-25.795 0-1.7197 0.14953-3.0656 0.52338-3.8132 0.29907-0.67292 0.52338-0.74769 0.972-0.74769l0.0747-2.1683m0 0c-0.0747 0-0.0747 0 0 0-3.1403 0-3.7385 3.2898-3.7385 6.804 0.0747 10.467 14.579 46.955 14.579 61.012 0 2.916-0.22431 8.0751-2.4674 8.748h-0.0747c-3.9627 0-33.796-54.283-46.357-55.254h-0.29907c-12.786 0-19.59 54.432-19.515 67.89 0 13.608 2.3926 22.73 12.412 22.73h0.0747c15.028 0 7.2526-55.254 13.309-55.254 4.4114 0 28.861 50.395 42.469 50.395h0.0748c14.729 0 23.403-21.608 23.403-35.59-0.2243-32.151-21.533-71.479-33.871-71.479z" fill="#fff"/>
		<path d="m415.13 161.86c-16.599-1.3458-34.468-2.1683-34.394-5.9067 0.14954-12.262 82.395-3.2151 82.321-19.889-0.0747-10.019-25.645-9.8698-40.076-9.7949-10.841 0-65.648 1.3458-65.573 31.852 0.0747 20.711 30.73 15.627 51.067 17.72 16.599 1.7197 36.786 7.1031 36.786 12.561 0 12.187-43.964 17.048-53.012 17.122-18.692 0.0747-19.066-5.3834-19.066-8.1498 0-2.6917 3.0655-7.4022 10.094-7.4022 6.9535 0 21.384 8.8976 31.253 8.8227 9.9438 0 18.169-4.4114 18.169-8.8975 0-8.1498-32.898-12.038-43.067-12.038-10.692 0.0748-26.019 4.4114-26.019 20.487 0 8.2994 13.683 27.964 51.89 27.814 37.684-0.0747 47.179-21.459 47.179-32.525 0-26.842-25.422-29.907-47.553-31.777z" fill="url(#SVGID_2_)"/>
		<path d="m426.88 128.51c7.1031 0 16.15 0.14953 23.178 1.4206 4.9347 0.89722 10.767 2.6917 10.767 6.1311 0 2.6169-4.5609 5.0096-12.861 6.5796-8.5984 1.6449-19.964 2.3926-30.955 3.0656-24.599 1.5702-38.506 2.8412-38.581 10.169-0.0747 5.0843 9.1966 6.0563 30.057 7.6265 2.0935 0.14954 4.2618 0.29908 6.3554 0.52339 11.59 0.972 22.73 2.2431 31.328 6.2806 9.72 4.6356 14.206 11.963 14.281 23.178 0 2.4674-0.59816 10.991-8.748 18.767-7.9255 7.4769-20.412 11.515-36.188 11.515h-0.37385c-20.187 0-32.151-5.6076-38.656-10.393-7.2526-5.3086-10.617-11.59-10.617-15.178-0.0747-17.197 19.814-18.244 23.777-18.244 4.5609 0 15.253 0.89723 24.898 2.916 12.636 2.6916 15.926 5.6825 16 6.8787 0 0.59818-0.37384 1.2711-1.1216 2.0187-2.2431 2.3178-7.7012 4.6356-14.879 4.6356h-0.0747c-4.9347 0-11.515-2.5422-17.346-4.86-5.4582-2.1683-10.244-3.9627-13.832-3.9627-5.1591 0-12.337 3.3646-12.337 9.645 0 7.1778 6.5049 10.393 21.01 10.393h0.2991c4.4862 0 17.945-1.2711 30.356-4.0375 16.748-3.8132 24.823-8.748 24.823-15.253 0-3.7385-4.3366-6.8787-13.757-9.7949-7.0283-2.2431-16.449-4.0375-25.048-4.9347-4.4862-0.44862-9.5701-0.59815-14.506-0.67292-8.748-0.2243-17.87-0.37384-24.524-2.4674-6.9536-2.1683-10.094-5.9815-10.094-12.337 0-11.739 9.0471-20.262 27.066-25.197 14.281-3.9627 30.132-4.4114 36.263-4.4114h4.0375m0-2.2431h-3.888c-10.841 0-65.648 1.3458-65.573 31.852 0.0747 20.711 30.73 15.627 51.067 17.72 16.599 1.7197 36.786 7.1031 36.786 12.561 0 12.187-43.964 17.048-53.012 17.122h-0.2991c-18.393 0-18.767-5.3834-18.767-8.1498 0-2.6917 3.0655-7.4022 10.094-7.4022 6.9535 0 21.31 8.8227 31.178 8.8227h0.0747c9.9438 0 18.169-4.4114 18.169-8.8975 0-8.1498-32.898-12.038-43.067-12.038-10.692 0.0747-26.019 4.4114-26.019 20.487 0 8.2994 13.608 27.814 51.516 27.814h0.37385c37.684-0.0747 47.179-21.459 47.179-32.524-0.0747-26.842-25.497-29.832-47.628-31.777-16.599-1.3458-34.468-2.1683-34.394-5.9067 0.14953-12.262 82.395-3.2151 82.321-19.889 0-9.1218-21.384-9.7949-36.114-9.7949z" fill="#fff"/>
		<path d="m341.93 65.318c-16.075 2.6917-26.169 12.038-23.702 19.515 6.0563-7.1778 14.954-14.431 23.702-19.515m-12.112 29.16c2.9907 0.89725 6.5796 1.4954 10.767 1.4954 10.169 0 33.796-9.4209 33.796-20.935 0-1.944-1.1216-6.8787-7.3274-6.8787-9.5701 0-29.085 17.197-37.235 26.319m0.14954-39.104c-5.0843-2.0187-9.4209-5.832-11.365-10.916-2.1683-5.6076-1.1216-11.888 2.5422-16.599 6.7292-8.6732 20.038-10.244 29.085-4.4114 4.86 3.1403 8.2994 8.3741 8.5236 14.206 0.22431 4.7105-1.6449 9.2714-4.86 12.636 8.2994 0.44862 13.982 4.7105 17.945 8.4489h0.29908c0.14956-2.7665 0.82248-5.6076 2.1683-8.0003 3.1403-5.3834 8.5985-8.9723 14.729-9.645 6.1311-0.74769 13.309 1.4206 19.365 7.6265 3.4394 3.5142 5.4582 8.4489 5.7572 13.458 0.37385 5.832-1.8692 11.739-6.2806 15.627-4.5609 4.0375-10.916 5.4582-16.823 4.4114-2.5422-0.22431-4.9347-1.0467-7.1031-2.2431-6.7292 15.028-29.907 30.207-45.459 29.907-26.543-0.44862-33.048-15.777-33.123-24.524 0.14954-8.748 9.3461-22.581 24.599-29.982" fill="#fff"/>
		<path d="m82.413 14.4c-23.777 0.67292-43.814 3.2151-53.161 7.1778-8.0003 3.5142-15.328 11.963-15.328 18.916-0.14954 6.5796 7.5516 7.1031 12.262 7.1031 4.7105 0 8.9723-0.37385 8.8975-3.1403 0-3.888-6.2058-3.0655-6.2058-6.9535 0-4.4862 24.076-5.5329 36.114-5.6076 103.25-0.22431 222.14 71.255 222.36 131.89 0.14953 47.105-61.236 57.721-95.028 57.796-12.038 0-23.702-1.2711-34.768-3.3646-0.5234-15.028-1.4206-46.506-1.7945-66.395 3.888-0.0747 7.5516-0.0747 10.692-0.0747 25.123-0.0747 57.946 8.748 58.021 14.654 0 5.0095-8.748 8.4489-8.748 13.234 0 3.5889 8.0751 2.916 15.103 3.4394 1.1963 0.14953 15.403-7.776 15.328-20.187-0.0747-16.524-20.861-35.889-90.769-35.889-0.67293-18.543-3.4394-47.777-13.982-47.777-8.748 0-11.29 32.226-12.038 50.021-37.684 5.6825-71.255 21.01-71.255 36.188 0 12.337 26.992 43.516 70.657 62.432 0.74769 13.982 3.4394 23.627 15.851 23.477 8.9723 0 12.112-6.5796 13.01-13.608 14.132 3.5889 29.459 5.6825 45.609 5.6076 63.329-0.14957 114.17-34.02 114.03-80.377-0.22431-62.208-125.69-151.63-234.85-148.56zm45.983 195.97c-37.459-13.234-62.956-34.244-62.956-41.272 0-10.841 32.898-14.954 63.329-16.449-0.2243 16.973-0.37384 41.347-0.37384 57.721z" fill="url(#SVGID_3_)"/>
	</g>
	<g fill="#fff">
		<path d="m87.946 16.568c25.571 0 52.712 4.86 80.601 14.506 25.497 8.8227 50.843 21.384 73.199 36.488 45.085 30.356 73.199 66.919 73.274 95.331 0.0747 21.459-11.365 41.198-32.226 55.703-20.786 14.431-49.049 22.356-79.555 22.506h-0.37384c-15.178 0-30.207-1.8692-44.712-5.6076l-2.7665 1.8692c-0.67293 5.0096-2.5422 11.664-10.841 11.664h-0.14954c-9.0471 0-12.561-5.6076-13.458-21.384l-1.3458-1.944c-19.216-8.3742-37.385-20.187-51.067-33.272-13.458-12.935-18.244-22.655-18.244-27.141 0-12.935 31.104-28.188 69.311-33.945l1.944-2.0935c0.37384-8.6732 1.1963-21.16 2.9907-31.403 0.972-5.3834 2.0935-9.645 3.3646-12.486 1.1216-2.5422 2.3926-3.9627 3.4394-3.9627 6.1311 0 10.767 17.87 11.739 45.609l2.2431 2.1683c31.403 0 55.179 3.888 70.582 11.515 11.515 5.6825 17.945 13.608 17.945 22.132 0 10.094-10.841 17.122-13.234 17.945-1.3458-0.0747-2.6917-0.14954-4.0375-0.14954-2.916-0.0747-7.7012-0.29907-8.6732-1.1215 0.0747-1.3458 1.8692-3.0656 3.5889-4.7105 2.3926-2.3178 5.1591-4.86 5.1591-8.3742 0-2.3926-2.1683-4.5609-6.804-6.7292-3.5142-1.7197-8.5236-3.3646-14.356-4.9347-12.561-3.2898-26.992-5.2338-38.73-5.2338h-0.37384c-3.2151 0-6.804 0-10.692 0.0747l-2.2431 2.3178c0.37385 20.262 1.2711 51.591 1.7945 66.47l1.7945 2.0935c11.813 2.2431 23.477 3.4394 34.768 3.4394h0.44862c10.542 0 37.684-1.1963 61.161-11.44 10.916-4.7852 19.59-10.916 25.572-18.244 7.0283-8.5236 10.617-18.767 10.542-30.356-0.07475-15.178-7.0283-31.178-20.786-47.553-12.711-15.103-30.88-29.982-52.637-42.992-21.757-13.01-46.581-23.852-71.853-31.403-27.141-8.0751-53.609-12.187-78.732-12.187h-0.59815c-3.888 0-13.982 0.14954-22.805 1.1215-11.066 1.1963-15.552 3.1403-15.552 6.6545 0 3.3646 2.6169 4.6357 4.3366 5.4582 1.6449 0.82246 1.8692 1.0467 1.8692 1.4206-0.29907 0.22431-1.4954 0.89723-6.7292 0.89723h-0.29907c-4.4114 0-7.3274-0.74769-8.748-2.0935-0.67292-0.67292-0.972-1.5702-0.972-2.6917v-0.07477c0-5.6825 6.5049-13.533 13.982-16.823 8.8227-3.7385 28.412-6.3554 52.338-6.9535 1.944-0.07477 3.8132-0.07477 5.6076-0.07477m39.702 195.9 2.9907-2.0935c0-17.048 0.14954-41.796 0.37385-57.647l-2.3178-2.2431c-44.712 2.2431-65.498 8.1498-65.498 18.692 0 9.2714 28.786 30.73 64.451 43.292m-39.702-198.14c-1.8692 0-3.6637 0-5.5329 0.07477-23.777 0.67292-43.814 3.2151-53.161 7.1778-8.0003 3.5142-15.328 11.963-15.328 18.916-0.14954 6.4302 7.1778 7.1031 11.888 7.1031h0.37385c4.7105 0 8.9723-0.37385 8.8975-3.1403 0-3.888-6.2058-3.0655-6.2058-6.9535 0-4.4862 24.076-5.5329 36.114-5.6076h0.59815c103.11 0 221.54 71.329 221.77 131.89 0.14953 47.105-61.236 57.721-95.028 57.796h-0.44862c-11.888 0-23.403-1.2711-34.394-3.3646-0.52338-15.028-1.4206-46.506-1.7945-66.395 3.888-0.0747 7.5516-0.0747 10.692-0.0747h0.37384c25.048 0 57.497 8.8227 57.572 14.654 0 5.0095-8.748 8.4489-8.748 13.234 0 3.5889 8.0751 2.916 15.103 3.4394 1.4206 0 15.328-7.8507 15.328-20.187-0.0747-16.524-20.861-35.889-90.769-35.889-0.67294-18.543-3.4394-47.777-13.982-47.777-8.748 0-11.29 32.226-12.038 50.021-37.684 5.6825-71.255 21.01-71.255 36.188 0 12.337 26.992 43.516 70.657 62.432 0.74769 13.907 3.3646 23.477 15.702 23.477h0.14953c8.9723 0 12.112-6.5796 13.01-13.608 13.982 3.5889 29.235 5.6076 45.31 5.6076h0.37384c63.329-0.14954 114.17-34.02 114.03-80.377-0.14954-61.161-121.43-148.64-229.24-148.64zm40.45 196.04c-37.459-13.234-62.956-34.244-62.956-41.272 0-10.841 32.898-14.954 63.329-16.449-0.22431 16.973-0.37384 41.347-0.37384 57.721z"/>
		<path d="m241.3 293.9c-6.7292 0-16.225-3.4394-18.692-10.841-2.0187-6.0563 0.89722-12.412 8.748-18.916 17.57-14.729 27.889-17.272 34.917-17.795 8.5236-0.67292 11.963 4.7105 12.636 7.7012 0.59814 2.7665-1.1963 5.4582-3.888 6.0563-2.5422 0.52338-5.0843-0.972-5.9067-3.3646-0.22431-0.14953-0.82245-0.29907-2.0187-0.22431-5.5329 0.44862-13.832 2.6169-29.235 15.477-5.0843 4.1871-5.832 6.9536-5.5329 7.8507 0.59816 1.7197 4.7104 3.6636 8.1498 3.888 7.4022 0.37385 36.562-1.2711 42.543-3.2898 2.6917-0.89725 5.5329 0.52339 6.4302 3.1403 0.89725 2.6916-0.52338 5.5329-3.2151 6.4302-7.4769 2.4674-34.768 3.888-44.937 3.888"/>
		<path d="m333.41 271.02 0.972 21.683c0.14954 2.8412-2.0187 5.1591-4.86 5.3086h-0.22431c-2.6917 0-4.9347-2.0935-5.0843-4.86l-0.89723-19.365c-4.4114 1.2711-9.645 2.7664-14.804 4.3366v12.486c0 2.7665-2.2431 5.0843-5.0843 5.0843-2.8412 0-5.0843-2.3178-5.0843-5.0843v-9.4209c-0.52338 0.14955-0.972 0.29909-1.4206 0.44862-0.52339 0.14954-0.972 0.22431-1.4206 0.22431-2.1683 0-4.1871-1.4206-4.86-3.5889-0.82247-2.6917 0.67293-5.5329 3.3646-6.3554 0.89725-0.29907 2.4674-0.74769 4.4114-1.3458v-18.692c0-2.8412 2.2431-5.0843 5.0843-5.0843s5.0843 2.2431 5.0843 5.0843v15.702c4.7852-1.4206 9.9438-2.916 14.356-4.1871l-0.7477-16c-0.14955-2.7665 2.0187-5.1591 4.86-5.3086 2.7664-0.0747 5.1591 2.0188 5.3086 4.86l0.59815 13.832c0.29908-0.0747 0.59816-0.14954 0.82246-0.14954 2.7664-0.44861 5.6076 1.4954 5.832 4.2618 0.14955 3.2151-1.6449 5.4582-6.2058 6.1311"/>
	</g>
	<path d="m351.58 193.85c-1.3458-56.974-5.2338-67.965-13.608-67.965-10.692 0.0747-10.991 43.142-11.29 58.918-0.74769 35.964 4.5609 40.226 14.132 40.151 8.5236 0 11.515-0.972 10.767-31.104z" fill="url(#SVGID_4_)"/>
	<g fill="#fff">
		<path d="m337.98 128.14c1.7197 0 4.86 0 7.2526 10.841 2.1683 9.8698 3.4394 26.768 4.1123 54.955 0.44864 17.122-0.37385 25.123-2.7664 27.515-1.0468 1.0467-2.6169 1.2711-5.7572 1.2711h-0.14954c-3.2898 0-5.2338-0.59817-6.7292-2.0935-3.888-3.9627-5.4582-15.028-5.0095-35.739 0-0.82248 0-1.6449 0.0747-2.6169 0.14955-8.4489 0.44862-22.655 1.944-34.394 0.82246-6.3554 1.8692-11.365 3.2151-14.729 0.59815-1.8692 2.0935-4.9347 3.8132-5.0096m0-2.2431c-10.692 0.0747-10.991 43.142-11.29 58.918-0.74769 35.665 4.4862 40.151 13.907 40.151h0.22431c8.5236 0 11.515-1.0468 10.767-31.104-1.3458-56.974-5.2338-67.965-13.608-67.965z"/>
		<path d="m406.08 300.62c-2.916 0.29907-4.9347-1.1963-5.6076-3.3646-0.14954-0.37387-0.52338-1.5702-0.59815-22.132-0.0747-22.431 0.37385-23.926 4.0375-25.422 4.0375-1.7197 6.5796 1.4954 10.393 6.4302 2.4674 3.0655 5.5329 7.2526 8.8227 11.664 2.9907 4.0375 6.8787 9.1966 9.9438 13.085 0.14953-8.4489 1.3458-33.572 1.6449-35.964 0.37385-2.7664 2.8412-4.7104 5.6825-4.4114 2.7664 0.37385 4.7852 2.916 4.4114 5.6825-0.22433 1.7197-1.4206 21.832-1.4954 30.356-0.0747 8.748-0.14954 15.926-4.2618 18.393-1.944 1.1963-4.2618 1.2711-6.4302 0.14954-2.3926-1.1963-5.3834-4.7852-17.645-21.235-1.4954-2.0188-3.2151-4.3366-4.86-6.5049-0.0747 10.692 0.14953 25.197 0.29907 27.739 0.14954 2.3178-1.4206 5.2338-4.3366 5.5329"/>
		<path d="m495.36 294.42c-4.9347 2.2431-9.9438-2.2431-18.393-10.319l-0.74769-0.7477c-2.1683-2.0935-5.6076-5.6825-9.1966-9.4961-1.2711-1.3458-2.8412-2.9907-4.3366-4.5609 0.29908 6.5049 0.89723 15.103 1.4954 23.103 0.22431 2.7664-1.8692 5.2338-4.7104 5.4582h-0.37385c-2.6169 0-4.86-2.0187-5.0843-4.7104 0 0-0.67293-8.748-1.1963-17.496-1.0467-18.169-1.2711-21.458 3.3646-22.879 3.8132-1.1216 5.1591 0.29907 18.169 14.132 3.3646 3.5142 6.804 7.1778 8.8227 9.1218l0.74769 0.74769c1.1216 1.0467 2.6917 2.5422 4.3366 4.0375-0.82245-8.9723-2.3178-23.178-3.2151-31.478-0.29909-2.7665 1.7196-5.3086 4.4862-5.6076 2.7665-0.29907 5.3086 1.7197 5.6076 4.5609 0.14955 1.3458 3.5889 33.272 3.8132 39.404 0.29907 4.4862-2.4674 6.2058-3.5889 6.7292"/>
		<path d="m548.37 290.76c-5.0843 3.4394-16.075 2.3926-26.992 3.4394-5.2338 0.52341-9.2714-0.44861-10.916-2.3926-1.4206-1.7197-2.6916-8.5236-3.5889-15.851-0.0747-0.37385-0.14955-0.82247-0.14955-1.2711v-0.22433c-1.0467-9.1966-1.6449-18.618-1.6449-18.767 0-2.3926 1.1215-3.9627 2.0187-4.86 2.5422-2.4674 6.1311-2.5422 12.262-2.3926 6.2058 0.14954 20.711-0.74769 22.581-0.89723 2.3926-0.44864 4.7852 0.97199 5.6076 3.2898 0.89723 2.6917-0.44862 5.5329-3.1403 6.5049-1.944 0.67292-21.235 1.3458-25.272 1.3458-0.74769 0-2.2431-0.0747-3.6637 0 0.2243 2.6169 0.29908 3.8132 0.74769 8.0003 8.2994-0.29908 18.692-1.0468 23.403-1.8692 2.2431-0.37387 4.86 1.8692 4.9347 4.7104 0.0747 2.1683-1.4206 4.4114-4.1871 4.9347-7.0283 1.3458-15.477 1.7945-22.879 2.0935 0.22431 1.944 0.82246 6.804 1.0468 8.0003 4.5609 0.44864 13.085-0.59815 25.048-2.916 2.7664-0.52338 5.0843-0.59815 6.5049 1.7945 1.1963 2.3178 0.59815 5.7572-1.7197 7.3274"/>
		<path d="m563.4 244.77c2.7664 0 5.0843 2.1683 5.0843 5.0095 0 1.3458 0.59815 31.702 0.67292 36.936 0.14954 0 0.37386-0.0747 0.52341-0.0747 6.2058-1.0468 21.533-3.3646 36.711-1.7945 2.7664 0.29907 4.86 2.7664 4.5609 5.6076-0.29908 2.7664-2.7665 4.86-5.6076 4.5609-14.057-1.4206-28.263 0.74769-33.945 1.7197-6.4302 1.1215-12.412-1.6449-12.412-9.3461 0-1.8692-0.44861-25.197-0.67292-37.31 0-2.916 2.3178-5.3086 5.0843-5.3086"/>
	</g>
	<g>
		<path d="m623.89 126.49c-25.272 2.6916-58.096 2.6169-58.021 10.841 0 7.776 15.328 10.841 15.777 12.935 0.37387 2.1683-2.0187 10.169-2.916 12.636-0.89722 2.6917-11.813 3.5142-12.561 11.066-0.14953 1.7945 2.6917 4.4862 2.1683 6.5796-1.7197 6.3554-6.9535 19.44-6.9535 24.898 0 8.3742 6.2058 27.066 23.403 26.543 27.141-0.89723 51.441-19.739 51.815-23.103 0.5234-5.0095-6.8787-10.841-12.112-10.841-5.2338 0-34.543 6.5049-36.562 4.7852-1.8692-1.7197 1.7196-18.692 5.4582-19.889 3.6637-1.1963 26.543-0.82249 30.356-1.0468 10.692-0.59816 8.6732-15.028 2.0187-15.552-3.2898-0.29908-24.076-0.37384-25.272-2.2431-1.1215-1.8692 0.37385-11.515 2.6917-12.486 4.7105-1.944 36.263-2.8412 38.656-3.4394 3.888-0.97199 6.804-3.0656 7.776-6.4302 0.97199-3.0655-10.991-16.898-25.72-15.253z" fill="url(#SVGID_5_)"/>
		<path d="m626.36 128.58c6.8787 0 12.337 3.5142 15.028 5.6076 4.1123 3.2151 5.9067 6.3554 5.9815 7.2526-0.74771 2.3178-2.7664 3.888-6.0563 4.7105-0.74769 0.14953-5.4582 0.44861-10.019 0.67291-13.907 0.74772-25.72 1.4954-28.936 2.8412-1.3458 0.5234-2.3178 1.8692-3.1403 4.2618-0.89723 2.6917-2.0935 8.8976-0.67293 11.365l0.0747 0.0747c1.1963 1.8692 4.3366 2.5422 21.982 3.0656 2.2431 0.0747 4.2618 0.14954 5.0095 0.22431 2.0935 0.14953 3.4394 2.9907 3.3646 5.5329 0 1.5702-0.59815 5.2338-5.3834 5.4582-1.0467 0.0748-3.888 0.0748-7.1778 0.0748-11.365 0.0747-21.01 0.14955-23.702 1.0467-3.5889 1.1963-5.6825 8.4489-6.5796 12.636-1.944 8.8976-0.22431 10.542 0.37384 11.066 0.82248 0.74771 2.0935 0.89725 3.2151 0.89725 3.888 0 12.486-1.4954 20.711-2.916 5.9815-1.0467 12.187-2.1683 14.057-2.1683 2.3926 0 5.832 1.7945 8.0003 4.1871 1.2711 1.4206 1.944 2.8412 1.8692 3.9627-0.74771 1.3458-6.2058 6.3554-15.702 11.44-7.9255 4.2618-20.187 9.3462-33.945 9.7949h-0.67294c-15.477 0-20.412-17.795-20.412-24.3 0-3.3646 2.4674-10.692 4.4114-16.599 0.972-2.916 1.8692-5.6825 2.4674-7.776 0.52338-2.0187-0.52338-3.9627-1.3458-5.4582-0.29908-0.52338-0.67292-1.2711-0.74769-1.5702 0.37384-3.2151 3.3646-4.86 7.3274-6.5796 2.5422-1.1216 4.4862-2.0188 5.1591-3.9627 0.22431-0.74769 3.5889-10.542 2.9907-13.832-0.37385-1.8692-2.1683-2.6917-5.5329-4.1871-4.0375-1.8692-10.169-4.6356-10.169-8.3742 0-0.2243 0.29907-2.3926 10.169-4.1871 7.1778-1.3458 16.748-2.0187 26.917-2.7665 6.3554-0.44863 12.861-0.972 18.991-1.6449 0.59816 0.22431 1.3458 0.14954 2.0935 0.14954m0-2.2431c-0.82246 0-1.6449 0.0747-2.4674 0.14953-25.272 2.6917-58.096 2.6169-58.021 10.841 0 7.776 15.328 10.841 15.777 12.935 0.37387 2.1683-2.0187 10.169-2.916 12.636-0.89723 2.6917-11.813 3.5142-12.561 11.066-0.14953 1.7945 2.6916 4.4862 2.1683 6.5796-1.7197 6.3554-6.9535 19.44-6.9535 24.898 0 8.2994 6.0563 26.543 22.655 26.543h0.74771c27.141-0.89723 51.441-19.739 51.815-23.103 0.5234-5.0095-6.8787-10.841-12.112-10.841-4.5609 0-27.964 5.0843-34.768 5.0843-0.89725 0-1.4954-0.0748-1.7197-0.29908-1.8692-1.7197 1.7197-18.692 5.4582-19.889 3.6636-1.1963 26.543-0.82249 30.356-1.0468 10.692-0.59816 8.6732-15.028 2.0187-15.552-3.2898-0.29908-24.076-0.37384-25.272-2.2431-1.1216-1.8692 0.37384-11.515 2.6916-12.486 4.7104-1.944 36.263-2.8412 38.656-3.4394 3.888-0.972 6.804-3.0656 7.776-6.4302 0.82246-2.916-9.7949-15.403-23.328-15.403z" fill="#fff"/>
		<path d="m349.63 298.98c-3.1403-0.37384-5.0095-3.4394-4.3366-6.2058 0.59815-2.6917 1.2711-5.1591 1.7945-7.5516-1.944-0.14953-3.6637-1.2711-4.4114-3.2151-1.0468-2.6169 0.2243-5.5329 2.916-6.5796 0.2243-0.0747 1.8692-0.74769 4.4114-1.7197 8.2994-31.478 11.29-31.627 14.729-31.702 2.6916-0.0748 5.3086-0.14954 17.048 21.085 2.1683 0.14953 4.0375 1.6449 4.6357 3.8132 0.37384 1.3458 0.14953 2.6917-0.5234 3.8132 2.6917 5.1591 5.832 11.29 9.4209 18.468 1.2711 2.5422 0.22431 5.6076-2.3178 6.804-2.5422 1.2711-5.5329 0.22431-6.804-2.2431-3.0656-6.2058-6.5049-12.711-9.72-18.767-5.6076 1.7945-12.412 4.3366-17.795 6.3554-1.1963 4.5609-2.3926 9.2714-3.4394 13.683-0.59817 2.4674-2.916 4.3366-5.6076 3.9627m12.187-29.609c3.2151-1.1963 6.5796-2.3926 9.645-3.3646-2.1683-3.8132-4.0375-7.1778-5.6076-9.72-1.1963 3.3646-2.5422 7.9255-4.0375 13.085" fill="#fff"/>
		<path d="m722.89 132.55c-14.729 0.89723-43.217 32.226-59.815 53.46-1.0467-2.1683-1.6449-4.2618-1.6449-6.2058 0-8.8976 16.823-35.739 19.964-42.394 3.2898-7.0283-0.37384-16.225-4.5609-12.935-7.9255 6.5049-33.197 35.964-33.123 63.404 0 6.2806 1.6449 13.982 5.2338 21.01-5.6825 18.393-19.515 59.292-19.066 84.19 0.22431 12.786 13.234 25.422 21.01 23.702 2.916-0.67292 3.5889-17.421 7.4769-28.936 5.4582-16.374 14.206-46.357 17.272-59.142 34.319 2.3926 69.461-32.749 69.461-61.161-0.0747-28.487-16.898-35.291-22.206-34.992zm-35.59 70.208c12.412-21.533 30.506-50.095 37.16-50.021 4.6356 0.0747 6.4302 4.7104 6.4302 11.739 0.0747 21.085-25.422 38.581-43.59 38.281z" fill="url(#SVGID_6_)"/>
		<path d="m678.55 125.96c0.14954 0.0747 0.52338 0.37385 0.972 1.2711 0.97199 2.0935 1.3458 5.832-0.22431 9.1218-0.74771 1.6449-2.6169 4.86-4.6356 8.5985-8.2246 14.579-15.552 28.188-15.552 34.843 0 2.1683 0.67294 4.4862 1.8692 7.1031l3.8132 0.44864c20.039-25.645 45.834-51.815 58.17-52.563h0.2243c1.944 0 6.8787 1.3458 11.365 6.2806 6.804 7.5516 8.2246 18.468 8.2994 26.394 0 12.187-6.9535 26.394-18.692 38.132-13.234 13.309-29.684 20.861-45.16 20.861-1.0468 0-2.1683-0.0747-3.2151-0.14954l-2.3178 1.7197c-3.0655 12.786-11.739 42.543-17.197 58.992-1.7945 5.3086-2.916 11.59-3.888 17.048-0.67294 3.8132-1.5702 9.0471-2.3926 10.467h-0.59815c-6.3554 0-17.048-10.467-17.272-21.683-0.37386-21.907 10.467-56.376 16.898-76.937 0.74771-2.3926 1.4206-4.6356 2.0188-6.5796l-0.14954-1.6449c-3.1403-6.2806-4.9347-13.533-4.9347-19.964-0.0747-14.281 7.1778-28.711 13.234-38.356 7.2526-11.59 15.403-20.262 19.066-23.253 0.14954-0.0747 0.29907-0.14954 0.29907-0.14954m9.1966 79.031c11.215 0 24.524-6.0563 33.871-15.403 7.4769-7.4769 11.59-16.374 11.515-25.048 0-6.3554-1.5702-13.907-8.6732-13.982h-0.0747c-2.6169 0-7.1031 2.0187-18.244 17.87-7.6265 10.841-15.477 24.001-20.786 33.197l1.8692 3.3646h0.52338m-9.1966-81.274c-0.52338 0-1.1215 0.22431-1.7197 0.67292-7.9255 6.5049-33.197 35.964-33.123 63.404 0 6.2806 1.6449 13.982 5.2338 21.01-5.6825 18.393-19.515 59.292-19.066 84.19 0.22431 12.038 11.664 23.852 19.515 23.852 0.52339 0 1.0468-0.0747 1.4954-0.14954 2.916-0.67291 3.5889-17.421 7.4769-28.936 5.4582-16.374 14.206-46.357 17.272-59.142 1.1216 0.0747 2.2431 0.14954 3.3646 0.14954 33.197 0 66.096-33.796 66.021-61.311-0.0747-27.739-16.225-34.917-21.907-34.917h-0.37385c-14.729 0.89723-43.217 32.226-59.815 53.46-1.0467-2.1683-1.6449-4.2618-1.6449-6.2058 0-8.8976 16.823-35.739 19.964-42.394 2.916-6.0563 0.67295-13.683-2.6916-13.683zm9.1966 79.031h-0.44861c12.412-21.459 30.431-50.021 37.16-50.021h0.0747c4.6356 0.0747 6.4302 4.7104 6.4302 11.739 0 20.935-25.048 38.281-43.217 38.281z" fill="#fff"/>
	</g>
</svg>
