<?xml version="1.0" encoding="UTF-8"?>
<svg width="800" height="348.33" version="1.1" xmlns="http://www.w3.org/2000/svg">
	<defs>
		<linearGradient id="SVGID_5_" x1="809.8" x2="809.8" y1="169.05" y2="310.5" gradientTransform="matrix(.78823 0 0 .78823 .0172 -.027159)" gradientUnits="userSpaceOnUse">
			<stop stop-color="#fff" offset="0"/>
			<stop stop-color="#FBFFFE" offset=".081109"/>
			<stop stop-color="#F0FDFB" offset=".1593"/>
			<stop stop-color="#DCFBF5" offset=".2363"/>
			<stop stop-color="#C1F8EE" offset=".3126"/>
			<stop stop-color="#9EF5E4" offset=".3885"/>
			<stop stop-color="#73F0D7" offset=".4639"/>
			<stop stop-color="#40EBC9" offset=".5377"/>
			<stop stop-color="#1FE7C0" offset=".5815"/>
		</linearGradient>
		<linearGradient id="SVGID_6_" x1="919.42" x2="919.42" y1="165.48" y2="423.79" gradientTransform="matrix(.78823 0 0 .78823 .0172 -.027159)" gradientUnits="userSpaceOnUse">
			<stop stop-color="#fff" offset="0"/>
			<stop stop-color="#FDFFFE" offset=".1172"/>
			<stop stop-color="#F5FEFC" offset=".1806"/>
			<stop stop-color="#E7FCF8" offset=".2311"/>
			<stop stop-color="#D4FAF3" offset=".2749"/>
			<stop stop-color="#BBF8EC" offset=".3143"/>
			<stop stop-color="#9CF4E3" offset=".3506"/>
			<stop stop-color="#77F0D9" offset=".3845"/>
			<stop stop-color="#4DECCD" offset=".4156"/>
			<stop stop-color="#1FE7C0" offset=".4447"/>
		</linearGradient>
		<linearGradient id="SVGID_3_" x1="221.43" x2="221.43" y1="19.203" y2="336.07" gradientTransform="matrix(.78823 0 0 .78823 .0172 -.027159)" gradientUnits="userSpaceOnUse">
			<stop stop-color="#fff" offset="0"/>
			<stop stop-color="#FDFFFE" offset=".2528"/>
			<stop stop-color="#F6FEFD" offset=".3439"/>
			<stop stop-color="#EAFDF9" offset=".4089"/>
			<stop stop-color="#DAFBF4" offset=".4614"/>
			<stop stop-color="#C4F9EE" offset=".5064"/>
			<stop stop-color="#A8F6E7" offset=".5462"/>
			<stop stop-color="#88F2DE" offset=".5822"/>
			<stop stop-color="#62EED3" offset=".6153"/>
			<stop stop-color="#39EAC7" offset=".6448"/>
			<stop stop-color="#1FE7C0" offset=".6611"/>
		</linearGradient>
		<linearGradient id="SVGID_4_" x1="453.53" x2="453.53" y1="168.44" y2="300.94" gradientTransform="matrix(.78823 0 0 .78823 .0172 -.027159)" gradientUnits="userSpaceOnUse">
			<stop stop-color="#fff" offset="0"/>
			<stop stop-color="#FCFFFE" offset=".099166"/>
			<stop stop-color="#F3FEFC" offset=".1693"/>
			<stop stop-color="#E3FCF7" offset=".2304"/>
			<stop stop-color="#CDFAF1" offset=".2865"/>
			<stop stop-color="#B1F7E9" offset=".3391"/>
			<stop stop-color="#8EF3DF" offset=".3891"/>
			<stop stop-color="#64EED3" offset=".437"/>
			<stop stop-color="#35E9C6" offset=".4821"/>
			<stop stop-color="#1FE7C0" offset=".5012"/>
		</linearGradient>
		<linearGradient id="SVGID_2_" x1="548.65" x2="548.65" y1="168.92" y2="302.52" gradientTransform="matrix(.78823 0 0 .78823 .0172 -.027159)" gradientUnits="userSpaceOnUse">
			<stop stop-color="#fff" offset="0"/>
			<stop stop-color="#FBFFFE" offset=".06708"/>
			<stop stop-color="#F0FDFB" offset=".1317"/>
			<stop stop-color="#DCFBF5" offset=".1954"/>
			<stop stop-color="#C1F8EE" offset=".2585"/>
			<stop stop-color="#9EF5E4" offset=".3213"/>
			<stop stop-color="#73F0D7" offset=".3837"/>
			<stop stop-color="#40EBC9" offset=".4447"/>
			<stop stop-color="#1FE7C0" offset=".4809"/>
		</linearGradient>
		<linearGradient id="SVGID_1_" x1="685.51" x2="685.51" y1="151.15" y2="300.74" gradientTransform="matrix(.78823 0 0 .78823 .0172 -.027159)" gradientUnits="userSpaceOnUse">
			<stop stop-color="#fff" offset="0"/>
			<stop stop-color="#FDFFFE" offset=".1584"/>
			<stop stop-color="#F4FEFC" offset=".2509"/>
			<stop stop-color="#E6FCF8" offset=".3266"/>
			<stop stop-color="#D2FAF2" offset=".3931"/>
			<stop stop-color="#B8F7EB" offset=".4536"/>
			<stop stop-color="#98F4E2" offset=".5098"/>
			<stop stop-color="#72F0D7" offset=".5627"/>
			<stop stop-color="#47EBCB" offset=".6115"/>
			<stop stop-color="#1FE7C0" offset=".6509"/>
		</linearGradient>
	</defs>
	<g>
		<path d="m798.34 160.55c-5.5176-28.534-32.948-42.17-45.323-45.402-13.794-3.547-28.613-2.5223-41.619 3.0741-6.3058 2.68-14.74 7.4882-19.942 12.139-5.4388-5.2023-17.656-12.375-31.45-12.375-12.139 0.55178-61.718 6.3058-74.488 13.085-7.0153-12.296-17.972-26.09-31.214-27.115-6.227-0.47294-12.296 2.0494-16.001 7.0941-5.2023 7.0941-4.8082 16.71-3.1529 27.194-18.918-18.996-61.482-20.179-88.518-20.415-25.696-0.15764-59.275 6.4635-68.813 11.666 4.8082-2.9164 23.41-13.715 34.919-29.48 11.666 1.8129 24.987-4.4141 31.687-14.031 7.2517-10.562 7.6458-24.672 1.8129-35.943-4.8082-9.3011-13.558-16.316-23.568-19.154-10.799-3.0741-22.78-0.86705-31.529 6.227-1.2612-11.981-9.8529-22.149-20.888-26.563-11.823-4.7294-25.854-2.9953-35.943 4.887-5.4388 4.2564-9.6164 10.168-11.508 16.789-2.1282 7.8035-1.0247 16.316 2.9164 23.253 0 0-0.0788 0.07882-0.0788 0.15765-10.011 9.0647-18.996 22.465-18.129 36.574-23.962-23.805-52.102-42.643-78.35-56.201-26.563-13.715-77.404-34.761-129.74-35.943-15.449-0.39412-49.737 1.0247-65.344 5.7541-33.263 9.9317-36.495 34.13-32.948 44.614 4.02 11.745 17.814 16.395 35.47 13.321 6.5423-1.1823 13.321-6.6211 14.898-15.134 25.696-1.4976 55.334 0.63058 83.71 8.2764-6.5423 17.499-10.72 40.279-13.085 66.29-14.346 3.0741-31.608 8.04-44.85 14.503-11.823 5.7541-24.829 14.109-29.401 27.194-4.9659 13.952 3.2317 27.667 11.902 38.15 9.1435 11.114 31.45 31.923 61.876 46.506 1.2612 7.4882 4.6506 23.174 20.652 28.297 11.035 3.547 25.066 1.0247 33.106-10.562 10.089 2.2859 28.77 3.547 40.121 3.6259v15.843c0 19.627 15.922 35.707 35.549 35.707h401.05c5.0447 10.483 15.292 23.016 27.036 25.302 21.125 4.1776 23.568-15.449 24.75-21.598 1.1824-6.4635 2.1282-12.927 4.1776-19.233l15.449-51.708c13.479-2.0494 28.77-8.4341 39.648-16.395 10.72-7.8035 19.942-17.656 26.721-29.007 8.7494-14.74 12.533-32.239 8.4341-49.264" fill="#003a7b"/>
		<path d="m552.96 119.09c-3.2318 0-3.8623 3.4682-3.8623 7.1729 0.0788 11.035 15.37 49.501 15.37 64.32 0 3.0741-0.23647 8.5129-2.6012 9.2223-3.7047 1.0247-35.628-57.226-48.949-58.25-13.715-0.94587-20.967 57.226-20.888 71.571 0 14.346 2.5223 23.962 13.163 23.962 15.843 0 7.6458-58.25 14.031-58.25 4.6506 0 30.505 53.206 44.85 53.127 15.528 0 24.672-22.78 24.672-37.52-0.23646-33.894-22.701-75.355-35.786-75.355z" fill="url(#SVGID_1_)"/>
		<path d="m553.04 119.09v2.3647c4.2564 0 12.454 7.4094 20.573 23.647 7.8823 15.843 12.691 34.288 12.769 49.264 0 7.4094-2.3647 16.316-6.227 23.095-5.8329 10.483-12.612 12.06-16.159 12.06-2.207 0-6.5423-2.0494-14.267-11.823-5.7541-7.2517-11.508-16.316-16.632-24.278-8.8282-13.794-11.114-17.026-13.873-17.026-4.7294 0-4.9659 7.2517-5.4388 21.755-0.39413 13.636-1.1823 36.495-8.5917 36.495h-0.0788c-6.4635 0-10.72-3.7047-10.72-21.598 0-6.4635 1.4976-21.361 4.02-34.997 3.1529-16.947 7.1729-28.534 11.351-32.712 1.0247-1.0247 1.8918-1.4976 2.7588-1.4976h0.15765c1.6553 0.15765 5.8329 2.0494 14.976 13.4 6.3847 7.9611 13.006 17.735 18.839 26.406 10.405 15.449 12.691 18.445 15.213 18.445 0.23647 0 0.47294 0 0.70941-0.0788 3.8623-1.0247 4.3353-6.7 4.3353-11.508 0-8.2764-4.4141-22.938-8.6705-37.126-3.4682-11.508-6.7-22.386-6.7-27.194 0-1.8129 0.15764-3.2318 0.55176-4.02 0.31529-0.7094 0.55176-0.78823 1.0247-0.78823l0.0788-2.2859m0 0c-0.0788 0-0.0788 0 0 0-3.3106 0-3.9412 3.4682-3.9412 7.1729 0.0788 11.035 15.37 49.501 15.37 64.32 0 3.0741-0.23647 8.5129-2.6012 9.2223h-0.0788c-4.1776 0-35.628-57.226-48.87-58.25h-0.31529c-13.479 0-20.652 57.383-20.573 71.571 0 14.346 2.5223 23.962 13.085 23.962h0.0788c15.843 0 7.6458-58.25 14.031-58.25 4.6506 0 30.426 53.127 44.772 53.127h0.0788c15.528 0 24.672-22.78 24.672-37.52-0.23646-33.894-22.701-75.355-35.707-75.355z" fill="#fff"/>
		<path d="m437.64 170.64c-17.499-1.4188-36.337-2.2859-36.259-6.227 0.15765-12.927 86.863-3.3894 86.784-20.967-0.0788-10.562-27.036-10.405-42.249-10.326-11.429 0-69.207 1.4188-69.128 33.579 0.0788 21.834 32.396 16.474 53.836 18.681 17.499 1.8129 38.781 7.4882 38.781 13.242 0 12.848-46.348 17.972-55.886 18.05-19.706 0.0788-20.1-5.6753-20.1-8.5917 0-2.8376 3.2317-7.8035 10.641-7.8035 7.3305 0 22.543 9.38 32.948 9.3011 10.483 0 19.154-4.6506 19.154-9.3799 0-8.5917-34.682-12.691-45.402-12.691-11.272 0.0788-27.43 4.6506-27.43 21.598 0 8.7494 14.425 29.48 54.703 29.322 39.727-0.0788 49.737-22.622 49.737-34.288 0-28.297-26.8-31.529-50.131-33.5z" fill="url(#SVGID_2_)"/>
		<path d="m450.02 135.48c7.4882 0 17.026 0.15764 24.435 1.4976 5.2023 0.94587 11.351 2.8376 11.351 6.4635 0 2.7588-4.8082 5.2812-13.558 6.9364-9.0646 1.7341-21.046 2.5223-32.633 3.2318-25.933 1.6553-40.594 2.9953-40.673 10.72-0.0788 5.36 9.6952 6.3847 31.687 8.04 2.207 0.15765 4.4929 0.3153 6.7 0.55177 12.218 1.0247 23.962 2.3647 33.027 6.6211 10.247 4.887 14.976 12.612 15.055 24.435 0 2.6012-0.63059 11.587-9.2223 19.785-8.3552 7.8823-21.519 12.139-38.15 12.139h-0.39412c-21.282 0-33.894-5.9117-40.752-10.956-7.6458-5.5964-11.193-12.218-11.193-16.001-0.0788-18.129 20.888-19.233 25.066-19.233 4.8082 0 16.08 0.94587 26.248 3.0741 13.321 2.8376 16.789 5.9906 16.868 7.2517 0 0.63061-0.39411 1.34-1.1824 2.1282-2.3647 2.4435-8.1188 4.887-15.686 4.887h-0.0788c-5.2023 0-12.139-2.68-18.287-5.1235-5.7541-2.2859-10.799-4.1776-14.582-4.1776-5.4388 0-13.006 3.547-13.006 10.168 0 7.567 6.8576 10.956 22.149 10.956h0.31532c4.7294 0 18.918-1.34 32.002-4.2564 17.656-4.02 26.169-9.2223 26.169-16.08 0-3.9412-4.5717-7.2517-14.503-10.326-7.4094-2.3647-17.341-4.2564-26.406-5.2023-4.7294-0.47294-10.089-0.63058-15.292-0.70941-9.2223-0.23646-18.839-0.39411-25.854-2.6012-7.3306-2.2859-10.641-6.3058-10.641-13.006 0-12.375 9.5376-21.361 28.534-26.563 15.055-4.1776 31.766-4.6506 38.229-4.6506h4.2564m0-2.3647h-4.0988c-11.429 0-69.207 1.4188-69.128 33.579 0.0788 21.834 32.396 16.474 53.836 18.681 17.499 1.8129 38.781 7.4882 38.781 13.242 0 12.848-46.348 17.972-55.886 18.05h-0.31532c-19.39 0-19.785-5.6753-19.785-8.5917 0-2.8376 3.2317-7.8035 10.641-7.8035 7.3305 0 22.465 9.3011 32.869 9.3011h0.0788c10.483 0 19.154-4.6506 19.154-9.3799 0-8.5917-34.682-12.691-45.402-12.691-11.272 0.0788-27.43 4.6506-27.43 21.598 0 8.7494 14.346 29.322 54.309 29.322h0.39412c39.727-0.0788 49.737-22.622 49.737-34.288-0.0788-28.297-26.879-31.45-50.21-33.5-17.499-1.4188-36.337-2.2859-36.259-6.227 0.15764-12.927 86.863-3.3894 86.784-20.967 0-9.6164-22.543-10.326-38.072-10.326z" fill="#fff"/>
		<path d="m360.47 68.865c-16.947 2.8376-27.588 12.691-24.987 20.573 6.3847-7.567 15.765-15.213 24.987-20.573m-12.769 30.741c3.1529 0.9459 6.9364 1.5765 11.351 1.5765 10.72 0 35.628-9.9317 35.628-22.07 0-2.0494-1.1824-7.2517-7.7247-7.2517-10.089 0-30.662 18.129-39.254 27.746m0.15765-41.224c-5.36-2.1282-9.9317-6.1482-11.981-11.508-2.2859-5.9117-1.1824-12.533 2.68-17.499 7.0941-9.1435 21.125-10.799 30.662-4.6506 5.1235 3.3106 8.7494 8.8282 8.9858 14.976 0.23647 4.9659-1.7341 9.7741-5.1235 13.321 8.7494 0.47294 14.74 4.9659 18.918 8.907h0.31529c0.15767-2.9165 0.86708-5.9117 2.2859-8.4341 3.3106-5.6753 9.0647-9.4588 15.528-10.168 6.4635-0.78823 14.031 1.4976 20.415 8.04 3.6259 3.7047 5.7541 8.907 6.0694 14.188 0.39412 6.1482-1.9706 12.375-6.6211 16.474-4.8082 4.2564-11.508 5.7541-17.735 4.6506-2.68-0.23647-5.2023-1.1035-7.4882-2.3647-7.0941 15.843-31.529 31.845-47.924 31.529-27.982-0.47295-34.84-16.632-34.919-25.854 0.15765-9.2223 9.8529-23.805 25.933-31.608" fill="#fff"/>
		<path d="m86.881 15.186c-25.066 0.70941-46.19 3.3894-56.043 7.567-8.4341 3.7047-16.159 12.612-16.159 19.942-0.15765 6.9364 7.9611 7.4882 12.927 7.4882s9.4588-0.39412 9.3799-3.3106c0-4.0988-6.5423-3.2317-6.5423-7.3305 0-4.7294 25.381-5.8329 38.072-5.9117 108.85-0.23647 234.18 75.118 234.42 139.04 0.15764 49.659-64.556 60.851-100.18 60.93-12.691 0-24.987-1.34-36.653-3.547-0.55178-15.843-1.4976-49.028-1.8918-69.995 4.0988-0.0788 7.9611-0.0788 11.272-0.0788 26.485-0.0788 61.088 9.2223 61.167 15.449 0 5.2811-9.2223 8.907-9.2223 13.952 0 3.7835 8.5129 3.0741 15.922 3.6259 1.2612 0.15764 16.238-8.1976 16.159-21.282-0.0788-17.42-21.992-37.835-95.691-37.835-0.70942-19.548-3.6259-50.368-14.74-50.368-9.2223 0-11.902 33.973-12.691 52.733-39.727 5.9906-75.118 22.149-75.118 38.15 0 13.006 28.455 45.875 74.488 65.817 0.78823 14.74 3.6259 24.908 16.71 24.75 9.4588 0 12.769-6.9364 13.715-14.346 14.898 3.7835 31.056 5.9906 48.082 5.9117 66.763-0.15767 120.36-35.865 120.21-84.735-0.23647-65.581-132.5-159.85-247.58-156.62zm48.476 206.6c-39.49-13.952-66.369-36.101-66.369-43.51 0-11.429 34.682-15.765 66.763-17.341-0.23647 17.893-0.39411 43.589-0.39411 60.851z" fill="url(#SVGID_3_)"/>
	</g>
	<g fill="#fff">
		<path d="m92.714 17.472c26.957 0 55.57 5.1235 84.971 15.292 26.879 9.3011 53.6 22.543 77.168 38.466 47.53 32.002 77.168 70.547 77.247 100.5 0.0788 22.622-11.981 43.432-33.973 58.723-21.913 15.213-51.708 23.568-83.868 23.726h-0.39411c-16.001 0-31.845-1.9706-47.136-5.9117l-2.9165 1.9706c-0.70942 5.2812-2.68 12.296-11.429 12.296h-0.15765c-9.5376 0-13.242-5.9117-14.188-22.543l-1.4188-2.0494c-20.258-8.8282-39.412-21.282-53.836-35.076-14.188-13.636-19.233-23.883-19.233-28.613 0-13.636 32.79-29.716 73.069-35.786l2.0494-2.207c0.39411-9.1435 1.2612-22.307 3.1529-33.106 1.0247-5.6753 2.207-10.168 3.547-13.163 1.1824-2.68 2.5223-4.1776 3.6259-4.1776 6.4635 0 11.351 18.839 12.375 48.082l2.3647 2.2859c33.106 0 58.171 4.0988 74.409 12.139 12.139 5.9906 18.918 14.346 18.918 23.332 0 10.641-11.429 18.05-13.952 18.918-1.4188-0.0788-2.8376-0.15765-4.2564-0.15765-3.0741-0.0788-8.1188-0.31529-9.1435-1.1823 0.0788-1.4188 1.9706-3.2318 3.7835-4.9659 2.5223-2.4435 5.4388-5.1235 5.4388-8.8282 0-2.5223-2.2859-4.8082-7.1729-7.0941-3.7047-1.8129-8.9858-3.547-15.134-5.2023-13.242-3.4682-28.455-5.5176-40.83-5.5176h-0.39411c-3.3894 0-7.1729 0-11.272 0.0788l-2.3647 2.4435c0.39412 21.361 1.34 54.388 1.8918 70.074l1.8918 2.207c12.454 2.3647 24.75 3.6259 36.653 3.6259h0.47294c11.114 0 39.727-1.2612 64.477-12.06 11.508-5.0447 20.652-11.508 26.958-19.233 7.4094-8.9858 11.193-19.785 11.114-32.002-0.0788-16.001-7.4094-32.869-21.913-50.131-13.4-15.922-32.554-31.608-55.491-45.323-22.937-13.715-49.107-25.145-75.749-33.106-28.613-8.5129-56.516-12.848-83.001-12.848h-0.63058c-4.0988 0-14.74 0.15765-24.041 1.1823-11.666 1.2612-16.395 3.3106-16.395 7.0153 0 3.547 2.7588 4.887 4.5717 5.7541 1.7341 0.86705 1.9706 1.1035 1.9706 1.4976-0.31529 0.23647-1.5765 0.94588-7.0941 0.94588h-0.31529c-4.6506 0-7.7247-0.78823-9.2223-2.207-0.70941-0.70941-1.0247-1.6553-1.0247-2.8376v-0.07882c0-5.9906 6.8576-14.267 14.74-17.735 9.3011-3.9412 29.953-6.7 55.176-7.3305 2.0494-0.07882 4.02-0.07882 5.9117-0.07882m41.855 206.52 3.1529-2.207c0-17.972 0.15765-44.062 0.39412-60.773l-2.4435-2.3647c-47.136 2.3647-69.049 8.5917-69.049 19.706 0 9.7741 30.347 32.396 67.946 45.639m-41.855-208.88c-1.9706 0-3.8623 0-5.8329 0.07882-25.066 0.70941-46.19 3.3894-56.043 7.567-8.4341 3.7047-16.159 12.612-16.159 19.942-0.15765 6.7788 7.567 7.4882 12.533 7.4882h0.39412c4.9659 0 9.4588-0.39412 9.3799-3.3106 0-4.0988-6.5423-3.2317-6.5423-7.3305 0-4.7294 25.381-5.8329 38.072-5.9117h0.63058c108.7 0 233.55 75.197 233.79 139.04 0.15764 49.659-64.556 60.851-100.18 60.93h-0.47294c-12.533 0-24.672-1.34-36.259-3.547-0.55176-15.843-1.4976-49.028-1.8918-69.995 4.0988-0.0788 7.9611-0.0788 11.272-0.0788h0.39411c26.406 0 60.615 9.3011 60.694 15.449 0 5.2811-9.2223 8.907-9.2223 13.952 0 3.7835 8.5129 3.0741 15.922 3.6259 1.4976 0 16.159-8.2764 16.159-21.282-0.0788-17.42-21.992-37.835-95.691-37.835-0.70943-19.548-3.6259-50.368-14.74-50.368-9.2223 0-11.902 33.973-12.691 52.733-39.727 5.9906-75.118 22.149-75.118 38.15 0 13.006 28.455 45.875 74.488 65.817 0.78823 14.661 3.547 24.75 16.553 24.75h0.15764c9.4588 0 12.769-6.9364 13.715-14.346 14.74 3.7835 30.82 5.9117 47.767 5.9117h0.39411c66.763-0.15765 120.36-35.865 120.21-84.735-0.15765-64.477-128.01-156.7-241.67-156.7zm42.643 206.67c-39.49-13.952-66.369-36.101-66.369-43.51 0-11.429 34.682-15.765 66.763-17.341-0.23647 17.893-0.39411 43.589-0.39411 60.851z"/>
		<path d="m254.38 309.84c-7.0941 0-17.105-3.6259-19.706-11.429-2.1282-6.3847 0.94587-13.085 9.2223-19.942 18.523-15.528 29.401-18.208 36.81-18.76 8.9858-0.70941 12.612 4.9659 13.321 8.1188 0.63058 2.9165-1.2612 5.7541-4.0988 6.3847-2.68 0.55176-5.36-1.0247-6.227-3.547-0.23647-0.15764-0.86705-0.31529-2.1282-0.23647-5.8329 0.47294-14.582 2.7588-30.82 16.316-5.36 4.4141-6.1482 7.3306-5.8329 8.2764 0.6306 1.8129 4.9658 3.8623 8.5917 4.0988 7.8035 0.39412 38.544-1.34 44.85-3.4682 2.8376-0.94589 5.8329 0.55177 6.7788 3.3106 0.9459 2.8376-0.55176 5.8329-3.3894 6.7788-7.8823 2.6012-36.653 4.0988-47.373 4.0988"/>
		<path d="m351.49 285.72 1.0247 22.859c0.15765 2.9953-2.1282 5.4388-5.1235 5.5964h-0.23647c-2.8376 0-5.2023-2.207-5.36-5.1235l-0.94588-20.415c-4.6506 1.34-10.168 2.9164-15.607 4.5717v13.163c0 2.9165-2.3647 5.36-5.36 5.36s-5.36-2.4435-5.36-5.36v-9.9317c-0.55176 0.15765-1.0247 0.3153-1.4976 0.47294-0.55176 0.15765-1.0247 0.23647-1.4976 0.23647-2.2859 0-4.4141-1.4976-5.1235-3.7835-0.86707-2.8376 0.70941-5.8329 3.547-6.7 0.9459-0.31529 2.6012-0.78823 4.6506-1.4188v-19.706c0-2.9953 2.3647-5.36 5.36-5.36s5.36 2.3647 5.36 5.36v16.553c5.0447-1.4976 10.483-3.0741 15.134-4.4141l-0.78825-16.868c-0.15765-2.9165 2.1282-5.4388 5.1235-5.5964 2.9164-0.0788 5.4388 2.1282 5.5964 5.1235l0.63058 14.582c0.3153-0.0788 0.63059-0.15765 0.86706-0.15765 2.9164-0.47293 5.9117 1.5765 6.1482 4.4929 0.15766 3.3894-1.7341 5.7541-6.5423 6.4635"/>
	</g>
	<path d="m370.64 204.37c-1.4188-60.063-5.5176-71.65-14.346-71.65-11.272 0.0788-11.587 45.481-11.902 62.113-0.78823 37.914 4.8082 42.407 14.898 42.328 8.9858 0 12.139-1.0247 11.351-32.79z" fill="url(#SVGID_4_)"/>
	<g fill="#fff">
		<path d="m356.3 135.09c1.8129 0 5.1235 0 7.6458 11.429 2.2859 10.405 3.6259 28.219 4.3353 57.935 0.47296 18.05-0.39412 26.485-2.9164 29.007-1.1035 1.1035-2.7588 1.34-6.0694 1.34h-0.15765c-3.4682 0-5.5176-0.6306-7.0941-2.207-4.0988-4.1776-5.7541-15.843-5.2811-37.677 0-0.86707 0-1.7341 0.0788-2.7588 0.15765-8.907 0.47294-23.883 2.0494-36.259 0.86705-6.7 1.9706-11.981 3.3894-15.528 0.63059-1.9706 2.207-5.2023 4.02-5.2812m0-2.3647c-11.272 0.0788-11.587 45.481-11.902 62.113-0.78823 37.599 4.7294 42.328 14.661 42.328h0.23647c8.9858 0 12.139-1.1035 11.351-32.79-1.4188-60.063-5.5176-71.65-14.346-71.65z"/>
		<path d="m428.1 316.93c-3.0741 0.31529-5.2023-1.2612-5.9117-3.547-0.15765-0.39414-0.55176-1.6553-0.63059-23.332-0.0788-23.647 0.39412-25.223 4.2564-26.8 4.2564-1.8129 6.9364 1.5765 10.956 6.7788 2.6012 3.2317 5.8329 7.6458 9.3011 12.296 3.1529 4.2564 7.2517 9.6952 10.483 13.794 0.15764-8.907 1.4188-35.392 1.7341-37.914 0.39412-2.9164 2.9953-4.9658 5.9906-4.6506 2.9164 0.39412 5.0447 3.0741 4.6506 5.9906-0.23649 1.8129-1.4976 23.016-1.5765 32.002-0.0788 9.2223-0.15765 16.789-4.4929 19.39-2.0494 1.2612-4.4929 1.34-6.7788 0.15765-2.5223-1.2612-5.6753-5.0447-18.602-22.386-1.5765-2.1282-3.3894-4.5717-5.1235-6.8576-0.0788 11.272 0.15764 26.563 0.31529 29.243 0.15764 2.4435-1.4976 5.5176-4.5717 5.8329"/>
		<path d="m522.22 310.39c-5.2023 2.3647-10.483-2.3647-19.39-10.878l-0.78823-0.78824c-2.2859-2.207-5.9117-5.9906-9.6952-10.011-1.34-1.4188-2.9953-3.1529-4.5717-4.8082 0.31529 6.8576 0.94588 15.922 1.5765 24.356 0.23647 2.9164-1.9706 5.5176-4.9658 5.7541h-0.39412c-2.7588 0-5.1235-2.1282-5.36-4.9658 0 0-0.70941-9.2223-1.2612-18.445-1.1035-19.154-1.34-22.622 3.547-24.12 4.02-1.1824 5.4388 0.31529 19.154 14.898 3.547 3.7047 7.1729 7.567 9.3011 9.6164l0.78823 0.78823c1.1824 1.1035 2.8376 2.68 4.5717 4.2564-0.86705-9.4588-2.4435-24.435-3.3894-33.185-0.3153-2.9165 1.8129-5.5964 4.7294-5.9117 2.9165-0.31529 5.5964 1.8129 5.9117 4.8082 0.15765 1.4188 3.7835 35.076 4.02 41.54 0.31529 4.7294-2.6012 6.5423-3.7835 7.0941"/>
		<path d="m578.1 306.53c-5.36 3.6259-16.947 2.5223-28.455 3.6259-5.5176 0.55178-9.7741-0.47294-11.508-2.5223-1.4976-1.8129-2.8376-8.9858-3.7835-16.71-0.0788-0.39412-0.15765-0.86706-0.15765-1.34v-0.23649c-1.1035-9.6952-1.7341-19.627-1.7341-19.785 0-2.5223 1.1823-4.1776 2.1282-5.1235 2.68-2.6012 6.4635-2.68 12.927-2.5223 6.5423 0.15765 21.834-0.78823 23.805-0.94588 2.5223-0.47296 5.0447 1.0247 5.9117 3.4682 0.94588 2.8376-0.47294 5.8329-3.3106 6.8576-2.0494 0.70941-22.386 1.4188-26.642 1.4188-0.78823 0-2.3647-0.0788-3.8623 0 0.23646 2.7588 0.31529 4.02 0.78823 8.4341 8.7494-0.31529 19.706-1.1035 24.672-1.9706 2.3647-0.39414 5.1235 1.9706 5.2023 4.9658 0.0788 2.2859-1.4976 4.6506-4.4141 5.2023-7.4094 1.4188-16.316 1.8918-24.12 2.207 0.23647 2.0494 0.86705 7.1729 1.1035 8.4341 4.8082 0.47296 13.794-0.63058 26.406-3.0741 2.9164-0.55176 5.36-0.63058 6.8576 1.8918 1.2612 2.4435 0.63058 6.0694-1.8129 7.7247"/>
		<path d="m593.95 258.05c2.9164 0 5.36 2.2859 5.36 5.2811 0 1.4188 0.63058 33.421 0.70941 38.939 0.15764 0 0.39413-0.0788 0.55178-0.0788 6.5423-1.1035 22.701-3.547 38.702-1.8918 2.9164 0.31529 5.1235 2.9164 4.8082 5.9117-0.3153 2.9164-2.9165 5.1235-5.9117 4.8082-14.819-1.4976-29.795 0.78823-35.786 1.8129-6.7788 1.1823-13.085-1.7341-13.085-9.8529 0-1.9706-0.47294-26.563-0.70941-39.333 0-3.0741 2.4435-5.5964 5.36-5.5964"/>
	</g>
	<g>
		<path d="m657.72 133.35c-26.642 2.8376-61.246 2.7588-61.167 11.429 0 8.1976 16.159 11.429 16.632 13.636 0.39414 2.2859-2.1282 10.72-3.0741 13.321-0.94587 2.8376-12.454 3.7047-13.242 11.666-0.15764 1.8918 2.8376 4.7294 2.2859 6.9364-1.8129 6.7-7.3305 20.494-7.3305 26.248 0 8.8282 6.5423 28.534 24.672 27.982 28.613-0.94588 54.23-20.809 54.624-24.356 0.55178-5.2811-7.2517-11.429-12.769-11.429-5.5176 0-36.416 6.8576-38.544 5.0447-1.9706-1.8129 1.8129-19.706 5.7541-20.967 3.8623-1.2612 27.982-0.86708 32.002-1.1035 11.272-0.63059 9.1435-15.843 2.1282-16.395-3.4682-0.31529-25.381-0.39411-26.642-2.3647-1.1823-1.9706 0.39412-12.139 2.8376-13.163 4.9659-2.0494 38.229-2.9953 40.752-3.6259 4.0988-1.0247 7.1729-3.2318 8.1976-6.7788 1.0247-3.2317-11.587-17.814-27.115-16.08z" fill="url(#SVGID_5_)"/>
		<path d="m660.32 135.56c7.2517 0 13.006 3.7047 15.843 5.9117 4.3353 3.3894 6.227 6.7 6.3058 7.6458-0.78825 2.4435-2.9164 4.0988-6.3847 4.9659-0.78823 0.15764-5.7541 0.47294-10.562 0.7094-14.661 0.78826-27.115 1.5765-30.505 2.9953-1.4188 0.55178-2.4435 1.9706-3.3106 4.4929-0.94588 2.8376-2.207 9.38-0.70941 11.981l0.0788 0.0788c1.2612 1.9706 4.5717 2.68 23.174 3.2318 2.3647 0.0788 4.4929 0.15764 5.2811 0.23647 2.207 0.15764 3.6259 3.1529 3.547 5.8329 0 1.6553-0.63058 5.5176-5.6753 5.7541-1.1035 0.0788-4.0988 0.0788-7.567 0.0788-11.981 0.0788-22.149 0.15766-24.987 1.1035-3.7835 1.2612-5.9906 8.907-6.9364 13.321-2.0494 9.38-0.23647 11.114 0.39411 11.666 0.86708 0.78825 2.207 0.9459 3.3894 0.9459 4.0988 0 13.163-1.5765 21.834-3.0741 6.3058-1.1035 12.848-2.2859 14.819-2.2859 2.5223 0 6.1482 1.8918 8.4341 4.4141 1.34 1.4976 2.0494 2.9953 1.9706 4.1776-0.78825 1.4188-6.5423 6.7-16.553 12.06-8.3552 4.4929-21.282 9.8529-35.786 10.326h-0.70943c-16.316 0-21.519-18.76-21.519-25.618 0-3.547 2.6012-11.272 4.6506-17.499 1.0247-3.0741 1.9706-5.9906 2.6012-8.1976 0.55176-2.1282-0.55176-4.1776-1.4188-5.7541-0.3153-0.55176-0.70941-1.34-0.78823-1.6553 0.39411-3.3894 3.547-5.1235 7.7247-6.9364 2.68-1.1824 4.7294-2.1282 5.4388-4.1776 0.23647-0.78823 3.7835-11.114 3.1529-14.582-0.39412-1.9706-2.2859-2.8376-5.8329-4.4141-4.2564-1.9706-10.72-4.887-10.72-8.8282 0-0.23647 0.31529-2.5223 10.72-4.4141 7.567-1.4188 17.656-2.1282 28.376-2.9165 6.7-0.47296 13.558-1.0247 20.021-1.7341 0.6306 0.23647 1.4188 0.15765 2.207 0.15765m0-2.3647c-0.86705 0-1.7341 0.0788-2.6012 0.15764-26.642 2.8376-61.246 2.7588-61.167 11.429 0 8.1976 16.159 11.429 16.632 13.636 0.39414 2.2859-2.1282 10.72-3.0741 13.321-0.94587 2.8376-12.454 3.7047-13.242 11.666-0.15764 1.8918 2.8376 4.7294 2.2859 6.9364-1.8129 6.7-7.3305 20.494-7.3305 26.248 0 8.7494 6.3847 27.982 23.883 27.982h0.78825c28.613-0.94588 54.23-20.809 54.624-24.356 0.55178-5.2811-7.2517-11.429-12.769-11.429-4.8082 0-29.48 5.36-36.653 5.36-0.9459 0-1.5765-0.0788-1.8129-0.31529-1.9706-1.8129 1.8129-19.706 5.7541-20.967 3.8623-1.2612 27.982-0.86708 32.002-1.1035 11.272-0.63059 9.1435-15.843 2.1282-16.395-3.4682-0.31529-25.381-0.39411-26.642-2.3647-1.1824-1.9706 0.39411-12.139 2.8376-13.163 4.9658-2.0494 38.229-2.9953 40.752-3.6259 4.0988-1.0247 7.1729-3.2318 8.1976-6.7788 0.86705-3.0741-10.326-16.238-24.593-16.238z" fill="#fff"/>
		<path d="m368.59 315.2c-3.3106-0.39411-5.2811-3.6259-4.5717-6.5423 0.63059-2.8376 1.34-5.4388 1.8918-7.9611-2.0494-0.15764-3.8623-1.34-4.6506-3.3894-1.1035-2.7588 0.23646-5.8329 3.0741-6.9364 0.23646-0.0788 1.9706-0.78823 4.6506-1.8129 8.7494-33.185 11.902-33.342 15.528-33.421 2.8376-0.0788 5.5964-0.15764 17.972 22.228 2.2859 0.15764 4.2564 1.7341 4.887 4.02 0.39411 1.4188 0.15764 2.8376-0.55177 4.02 2.8376 5.4388 6.1482 11.902 9.9317 19.469 1.34 2.68 0.23647 5.9117-2.4435 7.1729-2.68 1.34-5.8329 0.23647-7.1729-2.3647-3.2318-6.5423-6.8576-13.4-10.247-19.785-5.9117 1.8918-13.085 4.5717-18.76 6.7-1.2612 4.8082-2.5223 9.7741-3.6259 14.425-0.6306 2.6012-3.0741 4.5717-5.9117 4.1776m12.848-31.214c3.3894-1.2612 6.9364-2.5223 10.168-3.547-2.2859-4.02-4.2564-7.567-5.9117-10.247-1.2612 3.547-2.68 8.3552-4.2564 13.794" fill="#fff"/>
		<path d="m762.08 139.74c-15.528 0.94588-45.56 33.973-63.058 56.359-1.1035-2.2859-1.7341-4.4929-1.7341-6.5423 0-9.38 17.735-37.677 21.046-44.693 3.4682-7.4094-0.39411-17.105-4.8082-13.636-8.3552 6.8576-34.997 37.914-34.919 66.842 0 6.6211 1.7341 14.74 5.5176 22.149-5.9906 19.39-20.573 62.507-20.1 88.755 0.23647 13.479 13.952 26.8 22.149 24.987 3.0741-0.70941 3.7835-18.366 7.8823-30.505 5.7541-17.262 14.976-48.87 18.208-62.349 36.18 2.5223 73.227-34.525 73.227-64.477-0.0788-30.032-17.814-37.204-23.41-36.889zm-37.52 74.015c13.085-22.701 32.16-52.811 39.175-52.733 4.887 0.0788 6.7788 4.9658 6.7788 12.375 0.0788 22.228-26.8 40.673-45.954 40.357z" fill="url(#SVGID_6_)"/>
		<path d="m715.34 132.8c0.15765 0.0788 0.55176 0.39412 1.0247 1.34 1.0247 2.207 1.4188 6.1482-0.23647 9.6164-0.78825 1.7341-2.7588 5.1235-4.887 9.0647-8.6705 15.37-16.395 29.716-16.395 36.732 0 2.2859 0.70943 4.7294 1.9706 7.4882l4.02 0.47296c21.125-27.036 48.319-54.624 61.324-55.413h0.23647c2.0494 0 7.2517 1.4188 11.981 6.6211 7.1729 7.9611 8.6705 19.469 8.7494 27.825 0 12.848-7.3305 27.825-19.706 40.2-13.952 14.031-31.293 21.992-47.609 21.992-1.1035 0-2.2859-0.0788-3.3894-0.15765l-2.4435 1.8129c-3.2317 13.479-12.375 44.85-18.129 62.191-1.8918 5.5964-3.0741 12.218-4.0988 17.972-0.70943 4.02-1.6553 9.5376-2.5223 11.035h-0.63058c-6.7 0-17.972-11.035-18.208-22.859-0.39413-23.095 11.035-59.433 17.814-81.109 0.78825-2.5223 1.4976-4.887 2.1282-6.9364l-0.15764-1.7341c-3.3106-6.6211-5.2023-14.267-5.2023-21.046-0.0788-15.055 7.567-30.268 13.952-40.436 7.6458-12.218 16.238-21.361 20.1-24.514 0.15765-0.0788 0.31529-0.15765 0.31529-0.15765m9.6952 83.316c11.823 0 25.854-6.3847 35.707-16.238 7.8823-7.8823 12.218-17.262 12.139-26.406 0-6.7-1.6553-14.661-9.1435-14.74h-0.0788c-2.7588 0-7.4882 2.1282-19.233 18.839-8.04 11.429-16.316 25.302-21.913 34.997l1.9706 3.547h0.55176m-9.6952-85.681c-0.55176 0-1.1823 0.23647-1.8129 0.70941-8.3552 6.8576-34.997 37.914-34.919 66.842 0 6.6211 1.7341 14.74 5.5176 22.149-5.9906 19.39-20.573 62.507-20.1 88.755 0.23647 12.691 12.296 25.145 20.573 25.145 0.55176 0 1.1035-0.0788 1.5765-0.15765 3.0741-0.7094 3.7835-18.366 7.8823-30.505 5.7541-17.262 14.976-48.87 18.208-62.349 1.1824 0.0788 2.3647 0.15765 3.547 0.15765 34.997 0 69.68-35.628 69.601-64.635-0.0788-29.243-17.105-36.81-23.095-36.81h-0.39412c-15.528 0.94588-45.56 33.973-63.058 56.359-1.1035-2.2859-1.7341-4.4929-1.7341-6.5423 0-9.38 17.735-37.677 21.046-44.693 3.0741-6.3847 0.70943-14.425-2.8376-14.425zm9.6952 83.316h-0.47293c13.085-22.622 32.081-52.733 39.175-52.733h0.0788c4.887 0.0788 6.7788 4.9658 6.7788 12.375 0 22.07-26.406 40.357-45.56 40.357z" fill="#fff"/>
	</g>
</svg>
