<svg xmlns="http://www.w3.org/2000/svg" version="1" width="254.669" height="50.464" id="svg1968"><defs id="defs1970"><style id="style2032"/></defs><path d="M237.257 24.167c16.778-25.366-1.973 2.906 15.99-24.164H205.63c18.102 27.227-1.279-1.881 15.99 24.164-18.474 27.824 3.51-5.328-17.412 26.297h50.461c-18.476-27.804 2.222 3.344-17.412-26.297zm-85.68 26.282l50.855.015L183.85.041l-13.38-.03-18.894 50.438zm-57.885.015h56.502V.003L130.672.01l-8.862 27.453-8.574-27.46H93.692v50.46zm-28.784 0c18.54 0 25.23-9.645 25.23-26.058C90.465 11.113 81.221-.208 66.684.003H43.941v50.461z" id="path2084" fill-rule="evenodd"/><path id="path865" d="M0 15.95v18.564h5.348V27.04h4.115v7.474h5.348V15.95H9.463v6.914H5.348V15.95zm17.62 0v18.564h6.607c1.4 0 2.669-.199 3.798-.607 1.14-.409 2.117-1.023 2.903-1.828l.002-.002c.785-.814 1.376-1.812 1.779-2.979.404-1.17.6-2.504.6-4.002 0-1.543-.211-2.893-.649-4.045-.426-1.155-1.07-2.125-1.933-2.888-.861-.761-1.926-1.323-3.166-1.682-1.236-.358-2.635-.531-4.196-.531zm5.347 3.969h.326c.832 0 1.533.1 2.11.292l.003.002h.002c.567.182 1.013.46 1.371.852l.004.004.004.004c.366.382.653.895.848 1.558v.002c.194.655.297 1.479.297 2.463 0 1.92-.379 3.309-1.04 4.18-.656.858-1.587 1.27-3.011 1.27h-.914z" style="line-height:1.25;-inkscape-font-specification:'Liberation Mono Bold'" font-weight="700" font-size="28.027" font-family="Liberation Mono" letter-spacing="0" word-spacing="0" fill="#999" stroke-width="1.051"/></svg>