<svg width="800" height="245.1" version="1.1" xmlns="http://www.w3.org/2000/svg">
	<path d="m594.83 4.6303e-6h205.17l-18.9 70.027h-123.24l-8.3952 31.16h114.49l-17.168 63.719h-114.49l-21.366 80.176h-81.931z"/>
	<path d="m489.31 4.6303e-6 -75.623 86.129-29.405-86.129h-80.887l-18.767 69.849c2.5763 10.327 3.9089 21.477 3.9089 33.448 0 38.622-13.925 73.758-40.288 101.99l-10.683 39.822h80.176l32.559-121.49 32.915 87.195h1.3992l79.821-87.195-32.559 121.49h81.576l65.829-245.08h-89.993z"/>
	<path d="m275.21 103.3c0-30.116-8.7506-53.925-26.607-71.781-17.59-17.59-45.241-30.116-88.572-31.382l-19.256 71.293h1.7324c21.01 0 31.515 4.553 39.911 12.948 6.3075 6.3075 9.4612 15.413 9.4612 27.651 0 15.413-6.996 30.471-17.856 41.31-13.659 13.659-33.27 20.299-58.122 20.299h-2.7318l-19.278 71.426h12.571c57.078 0 99.077-15.747 128.5-45.174 26.607-26.607 40.266-59.877 40.266-96.634z"/>
	<path d="m79.095 245.1 66.168-245.1h-79.428l-65.835 245.1z"/>
</svg>
