<svg xmlns="http://www.w3.org/2000/svg" width="693" height="286" viewBox="0 0 183.124 75.462"><path d="M182.738 0c-.024-.001-.05.007-.077.02l-1.293.597c-.457.2-11.98 6.553-25.606 14.12l-24.698 14.155c.067.346 1.672.416 12.105.53l12.028.132 3.358 11.076c1.847 6.092 3.487 11.206 3.645 11.364.18.18.377.195.53.036.134-.138 1.777-5.252 3.65-11.364l3.407-11.112 3.23-.074c2.33-.054 3.23.012 3.23.235 0 .17-1.607 5.22-3.572 11.22L169.1 52.146c0 .163.186.297.413.297.45 0 12.572-7.127 13.215-7.77.033-.033.063-.102.09-.197l.17-.103v-.07l.132-.05V.1l-.1.063c-.002-.017-.003-.106-.005-.106-.008 0-.05.02-.077.033-.002-.006-.004-.033-.006-.033-.007 0-.06.027-.092.04-.03-.058-.06-.094-.096-.096zM19.686 28.663c-.69-.006-1.35.056-1.73.203l-.728.28v6.578l-6.152.09c-6.132.09-6.156.093-7.675.84C1.717 37.482.807 38.526.34 40.17a2.65 2.65 0 0 0-.058.314l-.118.185v1.263l-.068 1.653c-.13 3.045-.13 7.485-.003 10.657l.07 1.85v1.5l.164.28c.004.02.01.048.013.066.17.683.538 1.553.818 1.934.528.72 2.106 1.717 3.325 2.1.39.122 3.386.2 6.66.17 5.596-.05 6.033-.09 7.276-.662 1.598-.736 2.634-1.68 3.398-3.094.562-1.04.572-1.288.64-14.95.042-8.394-.03-14.042-.18-14.274-.198-.303-1.44-.5-2.592-.5zM81.5 35.78c-1.602.004-2.765.036-3.048.107-.616.155-.642.25-.642 2.396 0 1.94.068 2.27.512 2.51.317.17 3.28.274 7.79.274 7.17 0 7.29.01 7.964.595.404.35.748 1 .838 1.56l.153.964-6.182.115c-4.024.075-6.46.228-6.975.44-1.665.68-2.772 1.684-3.503 3.174-.7 1.423-.73 1.658-.73 5.456 0 3.637.052 4.074.625 5.237.737 1.496 1.93 2.524 3.67 3.16 1.086.397 2.12.452 7.478.397 5.826-.06 6.286-.1 7.3-.644 1.533-.82 2.67-2.23 3.16-3.917.353-1.215.408-2.712.338-9.193-.082-7.537-.1-7.776-.715-9.022-.682-1.386-2.15-2.623-3.706-3.123-.773-.25-9.525-.497-14.33-.485zm24.953.001c-1.05-.02-2.124.046-2.395.218s-.326 2.413-.265 11.042c.076 10.633.088 10.845.67 11.935.742 1.387 2.12 2.455 3.725 2.887 1.56.42 11.394.484 13.25.086 1.698-.364 3.29-1.524 4.054-2.954.595-1.114.604-1.27.68-11.954.062-8.63.008-10.87-.265-11.042-.473-.3-3.957-.274-4.443.034-.337.213-.42 1.742-.54 10.116l-.198 9.925c-.03.033-.442.267-.915.52-.698.374-1.558.463-4.564.47-6.708.015-6.218.9-6.218-11.1 0-7.078-.083-9.636-.318-9.872-.18-.18-1.21-.3-2.26-.31zm42.32.022c-.493-.001-1.136.012-1.983.03l-3.494.074-.137 25.268h-6.34l-.137-25.268-2.907-.076c-2.504-.065-2.953-.012-3.24.38-.262.358-.334 4.526-.33 19.258l.163 19.397c.088.328.196.595.24.595.805 0 27.04-15.507 27.505-16.257.202-.328-.626-3.087-3.403-11.336l-4.046-11.506c-.273-.438-.406-.557-1.886-.56zm-111.576.104c-5.297 0-6.507.07-7.295.43-1.496.68-2.776 1.967-3.4 3.42-.558 1.297-.574 1.606-.497 9.726l.08 8.386.73 1.24c.792 1.347 1.848 2.222 3.342 2.77.716.262 2.588.335 7.46.287l6.504-.063 1.296-.802c1.426-.883 2.35-2.066 2.757-3.533.15-.54.266-4.356.267-8.78.002-8.896-.108-9.553-1.888-11.333-1.643-1.643-2.186-1.745-9.355-1.745zm26.06 0c-5.357 0-6.39.066-7.454.477-1.75.675-3.256 2.388-3.63 4.127-.434 2.024-.406 20.976.032 21.413.22.22 1.054.303 2.58.252l2.253-.075.265-19.758.742-.638c.72-.62.877-.638 5.08-.638s4.36.02 5.078.638l.743.638.265 19.758 2.318.076c2.317.077 2.318.076 2.596-.657.183-.48.25-4.188.196-10.792-.08-9.605-.108-10.114-.645-11.275-.69-1.5-1.456-2.25-3-2.984-1.11-.524-1.618-.562-7.408-.562zM32.8 41.066l4.452.008c3.082.006 4.58.108 4.872.33.947.727 1.036 1.4 1.036 7.787 0 7.064-.043 7.25-1.794 7.737-1.202.334-7.276.323-8.447-.016-1.6-.466-1.666-.726-1.666-7.856v-6.443l.773-.774zm-22.783.047l2.2.013 4.89.072.07 6.747c.078 7.403-.007 7.942-1.365 8.664-.625.332-1.68.453-4.395.504-3.822.07-5-.1-5.832-.843-.488-.442-.518-.85-.518-6.984 0-7.093.042-7.315 1.514-7.925.372-.154 1.516-.236 3.444-.248zm77.9 8.206l2.04.01 4.93.073.067 2.9c.077 3.363-.165 4.08-1.53 4.55-1.076.37-7.398.414-8.613.06-1.387-.403-1.81-1.123-1.92-3.257-.117-2.308.378-3.74 1.43-4.14.3-.118 1.703-.193 3.596-.206z" fill="#192152"/></svg>