<?xml version="1.0" encoding="UTF-8"?>
<svg width="800" height="114.21" version="1.1" xmlns="http://www.w3.org/2000/svg">
	<path d="m707.86 48.555v-40.276h-21.517v-8.2759h52.414v8.2759h-21.517v40.276z" fill="#d0006f"/>
	<path d="m765.24 48.555-23.172-48.552h10.483l13.793 29.241 1.6552 3.3103c0.55172 1.1034 1.1034 2.7586 1.6552 3.8621l1.6552 3.3103h0.55173c0.55172-1.1034 0.55172-1.6552 1.1034-3.3103 0.55172-1.6552 1.1034-2.7586 1.6552-3.8621l1.6552-3.3103 13.793-29.241h9.931l-23.172 48.552z" fill="#d0006f"/>
	<path d="m55.172 2.2096h-55.172c8.8276 0 9.931 6.6207 9.931 18.207v91.586h24.828v-91.586c0-11.586 0-15.448 9.931-15.448 19.31 0 38.069 16 38.069 52.414 0 35.31-11.586 50.759-28.69 53.517-2.2069 0.55173-4.9655 1.1034-7.1724 1.1034h7.7241c34.207 0 55.172-23.172 55.172-54.621 0-32.552-20.414-55.172-54.621-55.172zm306.21 84.966c-7.1724-15.448-11.586-27.586-29.793-30.897 15.448-1.6552 31.448-8.8276 31.448-27.034 0-17.655-11.586-27.034-36.966-27.034h-57.379c8.8276 0 9.931 6.6207 9.931 18.207v91.586h24.828v-92.138c0-11.586 2.2069-15.448 11.586-15.448 15.448 0 23.172 11.034 23.172 25.931 0 17.103-13.793 27.586-20.966 28.69 6.069 0.55172 9.3793 6.069 11.034 9.3793 4.4138 10.483 6.6207 26.483 15.448 36.414 6.069 7.1724 16.552 7.1724 23.172 7.1724h18.207c-11.034-0.55172-19.31-14.345-23.724-24.828zm167.72-30.345c16 0.55172 29.241 7.7241 29.241 17.103v-34.207c0 9.3793-12.69 16.552-29.241 17.103zm6.6207 52.414c-8.8276 0-9.3793-3.8621-9.931-15.448v-73.931c0-11.586 1.1034-15.448 9.931-15.448 17.655 0 37.517 11.586 41.931 21.517l-7.7241-24.276h-78.897c8.8276 0 9.931 6.6207 9.931 18.207v91.586h76.69l7.7241-26.483c-4.4138 10.483-31.448 24.276-49.655 24.276zm99.862-0.55172c-8.8276 0-9.3793-3.3104-9.931-14.897v-76.138c0-9.931 1.6552-15.448 9.931-15.448h-44.69c8.8276 0 9.931 6.6207 9.931 18.207v92.138h76.69l7.7241-26.483c-4.4138 9.3793-32 22.621-49.655 22.621zm-484.41-62.897c0-7.7241-0.55172-41.379 16-45.241-23.724 1.6552-43.034 17.103-43.034 44.69 0 33.655 27.586 60.69 65.655 68.966-18.207-4.4138-38.621-25.379-38.621-68.414zm65.655-45.241c16.552 4.4138 16 37.517 16 45.241 0 43.034-20.966 63.448-38.069 68.414 38.069-7.7241 65.655-35.31 65.655-68.966 0-27.586-19.862-43.034-43.586-44.69zm230.62 109.79c-29.241 0-40.828-23.724-40.828-54.621 0-29.241 9.931-53.517 38.621-53.517 20.414 0 33.103 14.345 35.862 35.31v-29.241c-8.2759-4.4138-23.724-8.2759-36.414-8.2759-39.172 0-64.552 18.759-64.552 57.931 0 35.862 25.931 55.172 65.103 55.172 16 0 30.897-4.9655 37.517-8.8276v-23.172c-3.8621 16-16.552 29.241-35.31 29.241z"/>
</svg>
