<?xml version="1.0" encoding="UTF-8"?>
<svg width="395.43" height="450" version="1.1" xmlns="http://www.w3.org/2000/svg" xmlns:xlink="http://www.w3.org/1999/xlink">
	<defs>
		<linearGradient id="c" x1="32.036" x2="226.01" y1="170.42" y2="170.42" gradientTransform="matrix(1.7258 0 0 1.7409 -23.788 -26.687)" gradientUnits="userSpaceOnUse">
			<stop stop-color="#4b9cb0" offset="0"/>
			<stop stop-color="#6991bb" offset=".17604"/>
			<stop stop-color="#9b6ec0" offset=".5"/>
			<stop stop-color="#e734c4" offset="1"/>
		</linearGradient>
		<linearGradient id="d" x1="86.849" x2="39.327" y1="140.45" y2="140.45" gradientTransform="matrix(1.7035 0 0 1.7035 -19.064 -19.423)" gradientUnits="userSpaceOnUse">
			<stop stop-color="#fff" offset="0"/>
			<stop stop-color="#f2f2f2" offset="1"/>
		</linearGradient>
	</defs>
	<g>
		<path d="m353.94 14.908-12.15 12.066v21.995h36.046v10.925h-36.046v14.368h41.977l11.662-11.462v-23.305h-35.994v-10.396h35.878v-14.191z"/>
		<path d="m316.07 1.8712e-6 -17.555 5.2916v56.471l12.717 12.498h25.491v-15.097h-20.653v-27.418h20.653v-14.814h-20.653z"/>
		<path d="m261.14 14.832-12.352 12.587v46.842h17.908v-43.251h24.648v-16.178z"/>
		<path d="m199.49 14.909-11.864 11.873v35.616l11.853 11.863h30.886l12.053-11.778v-35.701l-12.063-11.873zm5.9003 14.245h19.597v30.738h-19.597z"/>
		<path d="m126.95 14.91v73.976h17.656v-14.626h24.985l13.403-13.323v-32.695l-13.023-13.332zm17.656 14.917h20.578v29.534h-20.578z"/>
		<path d="m73.819 0.0044309-12.543 12.868v28.491l40.668 3.3016v13.863h-39.333v15.733h44.451l12.444-12.275v-30.24l-40.384-3.4923v-12.776h39.371v-15.473z"/>
		<path d="m12.006 14.909-12.006 11.873v35.653l12.526 11.826h39.325v-14.774h-34.135v-11.088h36.256v-33.49zm5.709 13.45h21.269v10.253l-21.269 1.2463z"/>
		<path d="m106.09 84.833 0.16157 39.067 0.53325-8.7682c-35.611 2.6539-71.203 5.649-106.78 8.7016v303.02c20.325 2.4918 40.596 5.647 60.515 10.433 9.3043 2.2354 15.959 4.267 21.599 6.0443 4.2637 1.3437 8.3947 2.4826 13.042 4.0374 11.825 3.956 12.42 2.7664 24.882 0.25788 16.844-3.3905 30.702-5.4175 43.667-6.7362 11.368-1.1562 22.965-1.807 33.584-1.8262 22.195-0.04 41.999 1.9556 58.244 4.6643 6.3154 1.053 12.562 2.1536 17.733 3.3444 17.516 4.0335 15.791 4.0444 30.963-0.82832 14.115-4.5334 22.4-6.6765 32.894-9.1356 19.716-4.6198 26.783-5.8242 58.308-10.165l8e-5 -119.27-26.99-18.381 0.12372-15.713 26.867-5.5336-6.9e-4 -143.4c-13.254-1.7252-26.715-3.2523-39.352-4.5971-26.469-2.736-53.031-4.6618-79.604-6.0705-12.504-0.64875-25.124-1.1148-37.672-1.4859-11.451-0.33864-22.842-0.66571-34.032-0.91298-20.933-0.46258-37.723-0.4889-37.723-0.4889l5e-3 12.287 0.51243-4.5502z" fill="#0d274e"/>
		<path d="m131.63 127.95 7e-3 16.76 1.2367-6.1551c-7.0744 0.30503-35.944 2.2819-62.943 4.5417-17.478 1.4629-33.28 3.0444-44.885 4.3678v257.51c14.504 1.6766 29.013 4.3724 41.996 7.5816 23.117 5.714 39.594 12.013 39.594 12.013s20.451-4.5469 37.397-7.0722c13.59-2.0252 29.302-3.3223 53.673-3.3662 13.183-0.0238 24.404 0.24646 35.038 1.1071 34.575 2.7981 55.304 9.3885 55.304 9.3885s17.945-6.2909 43.75-12.337c11.718-2.7457 24.606-5.4775 38.569-7.424l0.1497-83.803c-9.0143-6.128-18.356-12.466-27.394-18.558l0.39358-49.806 27.034-5.2539-0.17968-100.26c-22.231-2.5802-44.532-4.5936-66.864-6.1297-18.286-1.2841-36.6-2.0984-54.907-3.0045-18.547-1.1028-37.13-0.83647-55.698-0.94726l0.0239 24.701z" fill="url(#c)"/>
		<path d="m209.51 152.44s0.0558 52.769 0.0366 35.481c0 0-10.296-6.0133-23.167-13.296-14.124-7.9908-27.064-15.102-38.616-21.324 0 0 0.0364 38.028 0.0533 85.562-3e-3 4.7489-0.0556 147.36-0.0533 142.61 0 0 22.507-0.68344 33.761-0.82181 0 0 0.0976-114.95 0.0499-172.44 0 0 25.55 14.526 38.326 22.049 0 0-6.8758-0.09-10.314-0.11653 0 0-0.0338 100.28-0.0731 150.44 0 0 22.267 0.29898 33.402 0.64215 0 0 0.0643-38.021 0.0964-85.549-4e-3 -4.7482-0.0964-142.59-0.0964-142.59s-22.267-0.56271-33.405-0.64881zm-73.125 1.3176c-0.0422 2e-3 -0.12653 3e-3 -0.12653 3e-3v3e-3c1e-3 -4e-5 0.12653-7e-3 0.12653-7e-3zm-0.12653 7e-3c-0.19109 8e-3 -15.827 0.64439-35.501 2.0096-21.737 1.5084-41.607 3.3964-59.381 5.4067v228.15s0.22577-0.0241 0.33939-0.0366c0-1e-5 15.771-1.7831 35.495-3.4802 21.632-1.8614 41.339-3.0761 59.048-3.8662 0.0338-76.06 0.0337-152.12 0-228.18zm126.83 0.0998s0.058 40.267 0.0831 60.405c0 0-5.6361-3.3756-8.4545-5.0507 0 0 0.0265 24.237 0.0332 36.36 0 0 5.6628 3.5539 8.4943 5.3435 0 0 5.8551 3.5984 8.7838 5.41 0 0-5.8812-0.29333-8.8238-0.42587 0 0-0.0729 84.05-0.11639 126.09h0.0433s13.705 0.57793 30.833 1.6869c18.761 1.2147 36.048 2.6725 51.385 4.1424 0 0 8.1256 0.7939 12.191 1.2111l0.0199-12.261s0.0683-31.425 0.0965-47.143c0 0-22.164-14.921-33.252-22.219 0 0-0.0418 30.248-0.0699 45.291 0 0-18.56-1.6573-27.842-2.2769 0 0 0.0849-52.369 0.0865-78.562 0 0 20.774 13.566 34.347 22.595v-36.333c-3.3485-2.2229-22.908-15.214-34.367-22.612 0 0-0.0404-30.876-0.0665-46.318 0 0 18.616 1.3747 27.925 2.1993 0 0 0.0464 24.802 0.0633 37.208 0 0 22.125 2.0634 33.192 3.284 0 0-0.0981-47.01-0.13302-70.523 0 0-15.74-1.8421-35.415-3.5701-21.576-1.8949-41.387-3.126-59.038-3.9294zm-159.96 35.696s0.022 106.86 0 160.64c-9.1533 0.62243-18.304 1.6723-27.456 2.4701 0 0 0.01217-107.71 0-161.49 0 0 18.302-1.0016 27.456-1.6216z" fill="url(#d)"/>
	</g>
</svg>
