<?xml version="1.0" encoding="UTF-8"?>
<svg width="800" height="146.58" version="1.1" xmlns="http://www.w3.org/2000/svg">
	<path d="m776.85 1e-3c-5.8352 17.616-22.432 29.736-41.184 29.736l-5.3993 21.137h25.447l-18.149 67.566h30.281l32.155-118.44z" fill="#f6a60a"/>
	<g fill="#3d464c">
		<path d="m600.25 118.69 5.695-21.258h75.569c3.5847 0 6.9038-2.918 7.4068-6.5093 0.25339-1.7828-0.25657-3.5529-1.4009-4.8611-1.039-1.2054-2.4822-1.866-4.0564-1.866h-48.328c-7.4234 0-13.874-2.8218-18.168-7.9459-4.2937-5.1176-5.9541-11.992-4.6399-19.315 3.0047-16.802 17.174-27.447 32.311-27.447h79.02l-5.7011 21.265h-76.595c-3.3152 0-6.3486 2.6681-7.3746 6.5032-0.41108 1.5328-0.0964 3.0909 0.88485 4.3734 1.0512 1.366 2.6929 2.1804 4.4126 2.1804h48.59c7.4321 0 13.877 2.8218 18.154 7.9585 4.2867 5.1372 5.7681 11.999 4.5436 19.399-2.7543 16.597-15.632 27.524-32.6 27.524z"/>
		<path d="m577.35 29.738 7.9653-29.737h-22.857l-31.746 118.44h22.857l18.095-67.564h35.382l5.6566-21.137z"/>
		<path d="m513.12 29.738c-26.357 0-37.336 13.64-44.557 40.697l-12.877 48.007h22.856l12.749-48.007c2.7186-10.133 9.2218-19.559 21.829-19.559h26.87l5.5535-21.137z"/>
		<path d="m436.81 68.568-3.3095 12.396c-2.3341 8.7027-10.055 16.341-20.816 16.341h-32.59c-15.058 0-13.391-13.711-12.3-17.7l3.3221-12.384c2.3341-8.708 10.401-16.346 20.816-16.346h32.59c15.045 0 13.39 13.718 12.287 17.693m-12.287-38.83h-32.59c-19.559 0-36.772 13.159-41.863 32.013l-3.3217 12.39c-5.0662 18.725-0.38497 44.3 33.347 44.3h32.59c20.867 0 36.758-13.16 41.863-32.014l3.3217-12.389c5.0666-18.725-0.15324-44.301-33.347-44.301"/>
		<path d="m316.88 68.568-3.3091 12.396c-2.3336 8.7027-10.068 16.341-20.816 16.341h-42.902l12.441-46.43h42.3c15.045 0 13.39 13.718 12.287 17.693m-12.287-38.83h-59.499l-31.308 116.84h22.868l7.5418-28.14h48.559c20.867 0 36.759-13.16 41.863-32.014l3.3222-12.389c5.0658-18.725-0.15412-44.301-33.347-44.301"/>
		<path d="m102.43 118.44h76.171c22.11 0 38.73-14.023 42.338-35.727 1.599-9.652-0.334-18.08-5.5892-24.373-5.3218-6.3795-13.407-9.8924-22.767-9.8924h-39.932c-3.5721 0-7.0018-1.6987-9.1752-4.5445-2.1094-2.7595-2.783-6.103-1.8964-9.4134 1.8995-7.0371 7.665-11.952 14.021-11.952h76.588l6.0438-22.534h-78.008c-20.614 0-38.247 14.998-41.927 35.661-1.6582 9.2353 0.37363 17.834 5.722 24.218 5.3592 6.363 13.452 9.868 22.787 9.868h39.55c3.2904 0 6.3216 1.3839 8.536 3.8952 2.3006 2.6546 3.3522 6.2367 2.8867 9.8302-1.0033 6.9739-7.2283 12.43-14.171 12.43h-75.134z"/>
		<path d="m31.835 63.22c1.2019 0 33.589 0.03354 46.228 0.0153 3.9453-0.0061 6.9962-2.112 7.962-5.4067 1.0839-3.6919-0.82651-6.3225-4.6695-6.3303 0 0-31.789-1.1531-37.447 1.1374-5.3375 2.1603-9.2231 5.2913-12.074 10.584zm63.988 34.384c-1.8481 6.8747-5.6184 20.737-5.6184 20.737h-65.765c-7.6764-0.0126-14.494-2.1612-19.524-8.3091-4.5898-5.6101-5.5861-12.089-4.5336-18.975 1.9043-12.445 5.2142-24.542 10.207-36.122 3.5447-8.2194 8.441-15.521 16.727-19.983 6.1644-3.3204 12.833-5.0531 19.76-5.1115h39.01c15.858 0.2125 25.486 12.859 21.98 29.133-3.2703 15.174-15.115 25.388-31.272 25.896h-46.126c-4.8093 0.08361-7.5666 3.4088-7.7708 8.0657-0.09188 2.0815 1.5629 4.4108 4.1265 4.6699h5.442z"/>
	</g>
</svg>
