<svg xmlns="http://www.w3.org/2000/svg" height="53.264" width="458.756" viewBox="0 0 121.379 14.093"><g fill="#131b4d" stroke-width=".883"><path d="M12.06 13.843l-4.56-3-7.05 2.99 4.15-4.87L0 5.933h7.18l4.88-5.71v5.71h6.97l-6.97 2.98v4.93"/><path d="M20.71 3.013c.25 0 .45-.21.45-.44V.653c0-.25-.2-.44-.45-.44h-7.46v2.8h7.46M20.71 13.873c.25 0 .45-.21.45-.44v-1.92c0-.25-.2-.44-.45-.44h-7.46v2.8h7.46M120.94.203h-9.33c-.24 0-.44.2-.44.44v1.93c0 .23.2.44.44.44h3.27v10.43c0 .24.19.44.44.44h1.91c.25 0 .45-.2.45-.44V3.013h3.26c.25 0 .44-.21.44-.44V.643c0-.24-.19-.44-.44-.44M81.1 6.043c-.09.28-.23.51-.42.7-.18.2-.37.32-.62.43-.24.1-.66.16-1.49.16h-2.15v-4.32h2.82a1.992 1.992 0 0 1 1.47.61c.17.18.31.41.4.67.1.27.15.57.15.88 0 .31-.05.61-.16.87zm2.65-2.78c-.22-.6-.55-1.13-.98-1.58-.43-.45-.96-.81-1.57-1.07-.61-.28-1.31-.41-2.07-.41h-5.08c-.24 0-.44.2-.44.44v12.79c0 .23.2.44.44.44h1.92c.24 0 .45-.21.45-.44v-3.28h2.71c.76 0 1.45-.13 2.06-.4.61-.25 1.13-.61 1.57-1.07.42-.44.75-.97.98-1.55.23-.59.34-1.33.34-1.98 0-.65-.11-1.29-.33-1.89M64.67 4.123c-.01.28.06.46.17.61.12.18.29.32.5.43.24.13.53.22.85.29.35.08.71.15 1.06.22.65.09 1.29.22 1.91.37.63.16 1.2.4 1.68.71.5.33.9.76 1.19 1.28.28.53.41 1.21.38 2.01-.04.78-.24 1.44-.59 1.97-.36.53-.82.96-1.36 1.28-.53.3-1.06.54-1.72.66-.63.12-1.35.16-1.97.13-1.56-.07-3.85-.96-5-2.53-.09-.14-.21-.35.04-.6s1.43-1.45 1.43-1.45c.24-.26.47-.07.57.07.67.98 2.01 1.72 3.07 1.76.55.03.62 0 .96-.04.31-.04.59-.12.86-.24.24-.11.43-.25.59-.46.15-.18.23-.45.26-.76.01-.29-.07-.53-.21-.72-.15-.2-.35-.36-.6-.5-.27-.14-.59-.23-.93-.3-.38-.07-.75-.13-1.12-.18-.6-.07-1.2-.2-1.77-.36-.59-.17-1.12-.41-1.58-.72-.47-.31-.85-.71-1.13-1.21-.28-.5-.41-1.07-.38-1.78.03-.73.21-1.36.53-1.89.32-.53.74-.96 1.25-1.29.5-.33 1.07-.56 1.7-.71 1.23-.27 2.45-.23 3.67.16 1.31.42 2.36 1.42 2.84 2.13.09.13.18.34 0 .56-.2.21-1.36 1.34-1.36 1.34-.24.24-.5.18-.64-.03-.71-1.04-1.62-1.51-2.68-1.58-1.14-.07-2.42.18-2.47 1.37M57.69 8.933c-.21.53-.51.98-.88 1.34-.37.35-.8.61-1.29.8-.5.18-1.03.27-1.59.27-.58 0-1.12-.09-1.62-.27-.48-.19-.91-.45-1.26-.8-.36-.36-.65-.81-.87-1.34-.22-.53-.33-1.15-.33-1.87 0-.71.11-1.34.33-1.87.22-.53.51-.98.87-1.33.37-.36.8-.63 1.29-.82.49-.18 1.03-.28 1.61-.28.56 0 1.09.1 1.58.28.49.19.92.46 1.29.82.36.37.66.82.87 1.35.22.53.33 1.15.33 1.85 0 .72-.11 1.34-.33 1.87zm1.12-7.08c-.63-.6-1.38-1.07-2.21-1.38-.83-.31-1.72-.46-2.65-.46-.91 0-1.8.15-2.64.46-.84.31-1.59.78-2.23 1.38-.64.6-1.15 1.35-1.52 2.23-.38.87-.57 1.87-.57 2.96 0 1.12.19 2.11.56 2.98.36.86.87 1.61 1.5 2.21.63.6 1.38 1.06 2.22 1.38.83.31 1.72.47 2.64.47 1.02 0 1.96-.17 2.81-.51.86-.34 1.61-.82 2.22-1.45.61-.62 1.09-1.37 1.44-2.23.34-.86.51-1.81.51-2.85 0-1.09-.19-2.09-.56-2.96-.38-.88-.89-1.63-1.52-2.23M95.74 8.933c-.21.53-.51.98-.88 1.34-.36.35-.8.61-1.29.8-.49.18-1.03.27-1.59.27-.57 0-1.12-.09-1.61-.27-.49-.19-.91-.45-1.27-.8-.36-.36-.65-.81-.86-1.34-.22-.53-.34-1.15-.34-1.87 0-.71.12-1.34.34-1.87.21-.53.5-.98.86-1.33.37-.36.8-.63 1.29-.82.5-.18 1.04-.28 1.61-.28.56 0 1.09.1 1.59.28.48.19.92.46 1.28.82.36.37.66.82.87 1.35.22.53.33 1.15.33 1.85 0 .72-.11 1.34-.33 1.87zm1.12-7.08c-.63-.6-1.37-1.07-2.21-1.38-.83-.31-1.72-.46-2.65-.46-.91 0-1.79.15-2.63.46-.85.31-1.6.78-2.24 1.38-.63.6-1.14 1.35-1.52 2.23-.37.87-.57 1.87-.57 2.96 0 1.12.19 2.11.56 2.98.37.86.87 1.61 1.51 2.21.63.6 1.38 1.06 2.21 1.38.83.31 1.72.47 2.64.47 1.02 0 1.96-.17 2.82-.51.86-.34 1.6-.82 2.22-1.45.61-.62 1.08-1.37 1.43-2.23.34-.86.52-1.81.52-2.85 0-1.09-.2-2.09-.57-2.96-.38-.88-.89-1.63-1.52-2.23M33 .203h-1.92c-.25 0-.45.2-.45.44v8.46c0 .36-.06.68-.18.94-.11.26-.28.48-.48.66-.21.18-.47.32-.76.42-.3.1-.8.15-1.15.15-.36 0-.89-.05-1.2-.15-.3-.1-.56-.24-.77-.42-.21-.18-.38-.4-.5-.66s-.18-.58-.18-.94V.643c0-.24-.19-.44-.44-.44h-1.92c-.24 0-.44.2-.44.44v8.53c0 .79.15 1.48.43 2.09.29.6.69 1.12 1.2 1.55.5.41 1.08.73 1.73.94.65.21 1.35.32 2.09.32.72 0 1.41-.11 2.06-.32.65-.21 1.23-.53 1.72-.95a4.7 4.7 0 0 0 1.17-1.54c.29-.61.44-1.31.44-2.09V.643c0-.24-.2-.44-.45-.44M46.49 13.133l-3.12-3.87s2.52-.92 2.52-4.11c0-.65-.11-1.29-.33-1.89-.22-.6-.55-1.13-.98-1.58-.43-.45-.96-.81-1.57-1.07-.61-.28-1.31-.41-2.08-.41h-5.07c-.24 0-.44.2-.44.44v12.79c0 .23.2.44.44.44h1.92c.24 0 .44-.21.44-.44V3.013h2.84a1.992 1.992 0 0 1 1.47.61c.17.18.31.41.4.67.1.27.15.57.15.88 0 .31-.05.61-.15.87-.1.28-.25.51-.43.7-.17.2-.37.32-.62.43-.24.1-.66.16-1.49.16H39.2c-.24 0-.42.22-.24.51l4.45 5.84c.08.12.21.19.36.19h2.45c.36 0 .6-.34.27-.74M111.34 13.133l-3.12-3.87s2.52-.92 2.52-4.11c0-.65-.12-1.29-.33-1.89-.22-.6-.56-1.13-.98-1.58-.43-.45-.96-.81-1.57-1.07-.62-.28-1.32-.41-2.08-.41h-5.07c-.24 0-.45.2-.45.44v12.79c0 .23.21.44.45.44h1.91c.25 0 .44-.21.44-.44V3.013h2.85c.3 0 .58.05.83.16.24.11.46.26.63.45.18.18.32.41.41.67.1.27.15.57.15.88 0 .31-.05.61-.16.87-.1.28-.24.51-.42.7-.17.2-.38.32-.62.43-.24.1-.66.16-1.49.16h-1.2c-.23 0-.41.22-.23.51l4.44 5.84c.08.12.22.19.37.19h2.44c.36 0 .61-.34.28-.74"/><path d="M12.06 13.843l-4.56-3-7.05 2.99 4.15-4.87L0 5.933h7.18l4.88-5.71v5.71h6.97l-6.97 2.98v4.93"/><path d="M20.71 3.013c.25 0 .45-.21.45-.44V.653c0-.25-.2-.44-.45-.44h-7.46v2.8h7.46M20.71 13.873c.25 0 .45-.21.45-.44v-1.92c0-.25-.2-.44-.45-.44h-7.46v2.8h7.46M120.94.203h-9.33c-.24 0-.44.2-.44.44v1.93c0 .23.2.44.44.44h3.27v10.43c0 .24.19.44.44.44h1.91c.25 0 .45-.2.45-.44V3.013h3.26c.25 0 .44-.21.44-.44V.643c0-.24-.19-.44-.44-.44M81.1 6.043c-.09.28-.23.51-.42.7-.18.2-.37.32-.62.43-.24.1-.66.16-1.49.16h-2.15v-4.32h2.82a1.992 1.992 0 0 1 1.47.61c.17.18.31.41.4.67.1.27.15.57.15.88 0 .31-.05.61-.16.87zm2.65-2.78c-.22-.6-.55-1.13-.98-1.58-.43-.45-.96-.81-1.57-1.07-.61-.28-1.31-.41-2.07-.41h-5.08c-.24 0-.44.2-.44.44v12.79c0 .23.2.44.44.44h1.92c.24 0 .45-.21.45-.44v-3.28h2.71c.76 0 1.45-.13 2.06-.4.61-.25 1.13-.61 1.57-1.07.42-.44.75-.97.98-1.55.23-.59.34-1.33.34-1.98 0-.65-.11-1.29-.33-1.89M64.67 4.123c-.01.28.06.46.17.61.12.18.29.32.5.43.24.13.53.22.85.29.35.08.71.15 1.06.22.65.09 1.29.22 1.91.37.63.16 1.2.4 1.68.71.5.33.9.76 1.19 1.28.28.53.41 1.21.38 2.01-.04.78-.24 1.44-.59 1.97-.36.53-.82.96-1.36 1.28-.53.3-1.06.54-1.72.66-.63.12-1.35.16-1.97.13-1.56-.07-3.85-.96-5-2.53-.09-.14-.21-.35.04-.6s1.43-1.45 1.43-1.45c.24-.26.47-.07.57.07.67.98 2.01 1.72 3.07 1.76.55.03.62 0 .96-.04.31-.04.59-.12.86-.24.24-.11.43-.25.59-.46.15-.18.23-.45.26-.76.01-.29-.07-.53-.21-.72-.15-.2-.35-.36-.6-.5-.27-.14-.59-.23-.93-.3-.38-.07-.75-.13-1.12-.18-.6-.07-1.2-.2-1.77-.36-.59-.17-1.12-.41-1.58-.72-.47-.31-.85-.71-1.13-1.21-.28-.5-.41-1.07-.38-1.78.03-.73.21-1.36.53-1.89.32-.53.74-.96 1.25-1.29.5-.33 1.07-.56 1.7-.71 1.23-.27 2.45-.23 3.67.16 1.31.42 2.36 1.42 2.84 2.13.09.13.18.34 0 .56-.2.21-1.36 1.34-1.36 1.34-.24.24-.5.18-.64-.03-.71-1.04-1.62-1.51-2.68-1.58-1.14-.07-2.42.18-2.47 1.37M57.69 8.933c-.21.53-.51.98-.88 1.34-.37.35-.8.61-1.29.8-.5.18-1.03.27-1.59.27-.58 0-1.12-.09-1.62-.27-.48-.19-.91-.45-1.26-.8-.36-.36-.65-.81-.87-1.34-.22-.53-.33-1.15-.33-1.87 0-.71.11-1.34.33-1.87.22-.53.51-.98.87-1.33.37-.36.8-.63 1.29-.82.49-.18 1.03-.28 1.61-.28.56 0 1.09.1 1.58.28.49.19.92.46 1.29.82.36.37.66.82.87 1.35.22.53.33 1.15.33 1.85 0 .72-.11 1.34-.33 1.87zm1.12-7.08c-.63-.6-1.38-1.07-2.21-1.38-.83-.31-1.72-.46-2.65-.46-.91 0-1.8.15-2.64.46-.84.31-1.59.78-2.23 1.38-.64.6-1.15 1.35-1.52 2.23-.38.87-.57 1.87-.57 2.96 0 1.12.19 2.11.56 2.98.36.86.87 1.61 1.5 2.21.63.6 1.38 1.06 2.22 1.38.83.31 1.72.47 2.64.47 1.02 0 1.96-.17 2.81-.51.86-.34 1.61-.82 2.22-1.45.61-.62 1.09-1.37 1.44-2.23.34-.86.51-1.81.51-2.85 0-1.09-.19-2.09-.56-2.96-.38-.88-.89-1.63-1.52-2.23M95.74 8.933c-.21.53-.51.98-.88 1.34-.36.35-.8.61-1.29.8-.49.18-1.03.27-1.59.27-.57 0-1.12-.09-1.61-.27-.49-.19-.91-.45-1.27-.8-.36-.36-.65-.81-.86-1.34-.22-.53-.34-1.15-.34-1.87 0-.71.12-1.34.34-1.87.21-.53.5-.98.86-1.33.37-.36.8-.63 1.29-.82.5-.18 1.04-.28 1.61-.28.56 0 1.09.1 1.59.28.48.19.92.46 1.28.82.36.37.66.82.87 1.35.22.53.33 1.15.33 1.85 0 .72-.11 1.34-.33 1.87zm1.12-7.08c-.63-.6-1.37-1.07-2.21-1.38-.83-.31-1.72-.46-2.65-.46-.91 0-1.79.15-2.63.46-.85.31-1.6.78-2.24 1.38-.63.6-1.14 1.35-1.52 2.23-.37.87-.57 1.87-.57 2.96 0 1.12.19 2.11.56 2.98.37.86.87 1.61 1.51 2.21.63.6 1.38 1.06 2.21 1.38.83.31 1.72.47 2.64.47 1.02 0 1.96-.17 2.82-.51.86-.34 1.6-.82 2.22-1.45.61-.62 1.08-1.37 1.43-2.23.34-.86.52-1.81.52-2.85 0-1.09-.2-2.09-.57-2.96-.38-.88-.89-1.63-1.52-2.23M33 .203h-1.92c-.25 0-.45.2-.45.44v8.46c0 .36-.06.68-.18.94-.11.26-.28.48-.48.66-.21.18-.47.32-.76.42-.3.1-.8.15-1.15.15-.36 0-.89-.05-1.2-.15-.3-.1-.56-.24-.77-.42-.21-.18-.38-.4-.5-.66s-.18-.58-.18-.94V.643c0-.24-.19-.44-.44-.44h-1.92c-.24 0-.44.2-.44.44v8.53c0 .79.15 1.48.43 2.09.29.6.69 1.12 1.2 1.55.5.41 1.08.73 1.73.94.65.21 1.35.32 2.09.32.72 0 1.41-.11 2.06-.32.65-.21 1.23-.53 1.72-.95a4.7 4.7 0 0 0 1.17-1.54c.29-.61.44-1.31.44-2.09V.643c0-.24-.2-.44-.45-.44M46.49 13.133l-3.12-3.87s2.52-.92 2.52-4.11c0-.65-.11-1.29-.33-1.89-.22-.6-.55-1.13-.98-1.58-.43-.45-.96-.81-1.57-1.07-.61-.28-1.31-.41-2.08-.41h-5.07c-.24 0-.44.2-.44.44v12.79c0 .23.2.44.44.44h1.92c.24 0 .44-.21.44-.44V3.013h2.84a1.992 1.992 0 0 1 1.47.61c.17.18.31.41.4.67.1.27.15.57.15.88 0 .31-.05.61-.15.87-.1.28-.25.51-.43.7-.17.2-.37.32-.62.43-.24.1-.66.16-1.49.16H39.2c-.24 0-.42.22-.24.51l4.45 5.84c.08.12.21.19.36.19h2.45c.36 0 .6-.34.27-.74M111.34 13.133l-3.12-3.87s2.52-.92 2.52-4.11c0-.65-.12-1.29-.33-1.89-.22-.6-.56-1.13-.98-1.58-.43-.45-.96-.81-1.57-1.07-.62-.28-1.32-.41-2.08-.41h-5.07c-.24 0-.45.2-.45.44v12.79c0 .23.21.44.45.44h1.91c.25 0 .44-.21.44-.44V3.013h2.85c.3 0 .58.05.83.16.24.11.46.26.63.45.18.18.32.41.41.67.1.27.15.57.15.88 0 .31-.05.61-.16.87-.1.28-.24.51-.42.7-.17.2-.38.32-.62.43-.24.1-.66.16-1.49.16h-1.2c-.23 0-.41.22-.23.51l4.44 5.84c.08.12.22.19.37.19h2.44c.36 0 .61-.34.28-.74"/></g></svg>