<?xml version="1.0" encoding="UTF-8" standalone="no"?>
<svg
   xmlns:dc="http://purl.org/dc/elements/1.1/"
   xmlns:cc="http://creativecommons.org/ns#"
   xmlns:rdf="http://www.w3.org/1999/02/22-rdf-syntax-ns#"
   xmlns:svg="http://www.w3.org/2000/svg"
   xmlns="http://www.w3.org/2000/svg"
   xmlns:sodipodi="http://sodipodi.sourceforge.net/DTD/sodipodi-0.dtd"
   xmlns:inkscape="http://www.inkscape.org/namespaces/inkscape"
   height="53.263573"
   width="528.90027"
   version="1.1"
   viewBox="0 0 139.9382 14.092746"
   id="svg60"
   sodipodi:docname="eurosport1hd.default.svg"
   inkscape:version="0.92.3 (unknown)">
  <metadata
     id="metadata66">
    <rdf:RDF>
      <cc:Work
         rdf:about="">
        <dc:format>image/svg+xml</dc:format>
        <dc:type
           rdf:resource="http://purl.org/dc/dcmitype/StillImage" />
        <dc:title></dc:title>
        <cc:license
           rdf:resource="http://creativecommons.org/publicdomain/zero/1.0/" />
      </cc:Work>
      <cc:License
         rdf:about="http://creativecommons.org/publicdomain/zero/1.0/">
        <cc:permits
           rdf:resource="http://creativecommons.org/ns#Reproduction" />
        <cc:permits
           rdf:resource="http://creativecommons.org/ns#Distribution" />
        <cc:permits
           rdf:resource="http://creativecommons.org/ns#DerivativeWorks" />
      </cc:License>
    </rdf:RDF>
  </metadata>
  <defs
     id="defs64" />
  <sodipodi:namedview
     pagecolor="#ffffff"
     bordercolor="#666666"
     borderopacity="1"
     objecttolerance="10"
     gridtolerance="10"
     guidetolerance="10"
     inkscape:pageopacity="0"
     inkscape:pageshadow="2"
     inkscape:window-width="1627"
     inkscape:window-height="808"
     id="namedview62"
     showgrid="false"
     showguides="true"
     inkscape:guide-bbox="true"
     fit-margin-top="0"
     fit-margin-left="0"
     fit-margin-right="0"
     fit-margin-bottom="0"
     inkscape:zoom="1.4142136"
     inkscape:cx="192.42966"
     inkscape:cy="18.450453"
     inkscape:window-x="0"
     inkscape:window-y="0"
     inkscape:window-maximized="0"
     inkscape:current-layer="svg60">
    <sodipodi:guide
       position="126.50855,12.664757"
       orientation="1,0"
       id="guide877"
       inkscape:locked="false" />
    <sodipodi:guide
       position="132.76228,13.889171"
       orientation="0,1"
       id="guide883"
       inkscape:locked="false" />
  </sodipodi:namedview>
  <g
     id="g875"
     transform="translate(311.21859,164.37358)"
     style="display:inline;fill:#131b4d">
    <path
       inkscape:connector-curvature="0"
       id="path2"
       d="m -179.14,-163.95 c 0,-0.13 -0.1,-0.22 -0.23,-0.22 h -1 c -0.13,0 -0.23,0.09 -0.23,0.22 v 2.45 h -2.65 v -2.45 c 0,-0.13 -0.1,-0.22 -0.23,-0.22 h -1 c -0.13,0 -0.23,0.09 -0.23,0.22 v 6.69 c 0,0.13 0.1,0.23 0.23,0.23 h 1 c 0.13,0 0.23,-0.1 0.23,-0.23 v -2.77 h 2.65 v 2.77 c 0,0.13 0.1,0.23 0.23,0.23 h 1 c 0.13,0 0.23,-0.1 0.23,-0.23 z" />
    <path
       inkscape:connector-curvature="0"
       id="path4"
       d="m -174.79,-164.17 c 2.3,0 3.51,1.78 3.51,3.55 0,0.96 -0.32,1.84 -0.91,2.5 -0.64,0.72 -1.54,1.09 -2.6,1.09 h -2.43 c -0.13,0 -0.23,-0.11 -0.23,-0.23 v -6.69 c 0,-0.13 0.1,-0.22 0.23,-0.22 z m -1.21,5.68 h 1.29 c 1.36,0 1.98,-1.1 1.98,-2.12 0,-1.02 -0.62,-2.1 -1.96,-2.1 H -176 Z" />
  </g>
  <g
     id="g50"
     style="fill:#131b4d;stroke-width:0.88293999"
     transform="translate(330.02948,164.3732)">
    <path
       d="m -317.97,-150.53 -4.56,-3 -7.05,2.99 4.15,-4.87 -4.6,-3.03 h 7.18 l 4.88,-5.71 v 5.71 h 6.97 l -6.97,2.98 v 4.93"
       id="path6"
       inkscape:connector-curvature="0" />
    <path
       d="m -309.32,-161.36 c 0.25,0 0.45,-0.21 0.45,-0.44 v -1.92 c 0,-0.25 -0.2,-0.44 -0.45,-0.44 h -7.46 v 2.8 h 7.46"
       id="path8"
       inkscape:connector-curvature="0" />
    <path
       d="m -309.32,-150.5 c 0.25,0 0.45,-0.21 0.45,-0.44 v -1.92 c 0,-0.25 -0.2,-0.44 -0.45,-0.44 h -7.46 v 2.8 h 7.46"
       id="path10"
       inkscape:connector-curvature="0" />
    <path
       d="m -209.09,-164.17 h -9.33 c -0.24,0 -0.44,0.2 -0.44,0.44 v 1.93 c 0,0.23 0.2,0.44 0.44,0.44 h 3.27 v 10.43 c 0,0.24 0.19,0.44 0.44,0.44 h 1.91 c 0.25,0 0.45,-0.2 0.45,-0.44 v -10.43 h 3.26 c 0.25,0 0.44,-0.21 0.44,-0.44 v -1.93 c 0,-0.24 -0.19,-0.44 -0.44,-0.44"
       id="path12"
       inkscape:connector-curvature="0" />
    <path
       d="m -248.93,-158.33 c -0.09,0.28 -0.23,0.51 -0.42,0.7 -0.18,0.2 -0.37,0.32 -0.62,0.43 -0.24,0.1 -0.66,0.16 -1.49,0.16 h -2.15 v -4.32 h 2.82 c 0.3,0 0.58,0.05 0.82,0.16 0.25,0.11 0.47,0.26 0.65,0.45 0.17,0.18 0.31,0.41 0.4,0.67 0.1,0.27 0.15,0.57 0.15,0.88 0,0.31 -0.05,0.61 -0.16,0.87 z m 2.65,-2.78 c -0.22,-0.6 -0.55,-1.13 -0.98,-1.58 -0.43,-0.45 -0.96,-0.81 -1.57,-1.07 -0.61,-0.28 -1.31,-0.41 -2.07,-0.41 h -5.08 c -0.24,0 -0.44,0.2 -0.44,0.44 v 12.79 c 0,0.23 0.2,0.44 0.44,0.44 h 1.92 c 0.24,0 0.45,-0.21 0.45,-0.44 v -3.28 h 2.71 c 0.76,0 1.45,-0.13 2.06,-0.4 0.61,-0.25 1.13,-0.61 1.57,-1.07 0.42,-0.44 0.75,-0.97 0.98,-1.55 0.23,-0.59 0.34,-1.33 0.34,-1.98 0,-0.65 -0.11,-1.29 -0.33,-1.89"
       id="path14"
       inkscape:connector-curvature="0" />
    <path
       d="m -265.36,-160.25 c -0.01,0.28 0.06,0.46 0.17,0.61 0.12,0.18 0.29,0.32 0.5,0.43 0.24,0.13 0.53,0.22 0.85,0.29 0.35,0.08 0.71,0.15 1.06,0.22 0.65,0.09 1.29,0.22 1.91,0.37 0.63,0.16 1.2,0.4 1.68,0.71 0.5,0.33 0.9,0.76 1.19,1.28 0.28,0.53 0.41,1.21 0.38,2.01 -0.04,0.78 -0.24,1.44 -0.59,1.97 -0.36,0.53 -0.82,0.96 -1.36,1.28 -0.53,0.3 -1.06,0.54 -1.72,0.66 -0.63,0.12 -1.35,0.16 -1.97,0.13 -1.56,-0.07 -3.85,-0.96 -5,-2.53 -0.09,-0.14 -0.21,-0.35 0.04,-0.6 0.25,-0.25 1.43,-1.45 1.43,-1.45 0.24,-0.26 0.47,-0.07 0.57,0.07 0.67,0.98 2.01,1.72 3.07,1.76 0.55,0.03 0.62,0 0.96,-0.04 0.31,-0.04 0.59,-0.12 0.86,-0.24 0.24,-0.11 0.43,-0.25 0.59,-0.46 0.15,-0.18 0.23,-0.45 0.26,-0.76 0.01,-0.29 -0.07,-0.53 -0.21,-0.72 -0.15,-0.2 -0.35,-0.36 -0.6,-0.5 -0.27,-0.14 -0.59,-0.23 -0.93,-0.3 -0.38,-0.07 -0.75,-0.13 -1.12,-0.18 -0.6,-0.07 -1.2,-0.2 -1.77,-0.36 -0.59,-0.17 -1.12,-0.41 -1.58,-0.72 -0.47,-0.31 -0.85,-0.71 -1.13,-1.21 -0.28,-0.5 -0.41,-1.07 -0.38,-1.78 0.03,-0.73 0.21,-1.36 0.53,-1.89 0.32,-0.53 0.74,-0.96 1.25,-1.29 0.5,-0.33 1.07,-0.56 1.7,-0.71 1.23,-0.27 2.45,-0.23 3.67,0.16 1.31,0.42 2.36,1.42 2.84,2.13 0.09,0.13 0.18,0.34 0,0.56 -0.2,0.21 -1.36,1.34 -1.36,1.34 -0.24,0.24 -0.5,0.18 -0.64,-0.03 -0.71,-1.04 -1.62,-1.51 -2.68,-1.58 -1.14,-0.07 -2.42,0.18 -2.47,1.37"
       id="path16"
       inkscape:connector-curvature="0" />
    <path
       d="m -272.34,-155.44 c -0.21,0.53 -0.51,0.98 -0.88,1.34 -0.37,0.35 -0.8,0.61 -1.29,0.8 -0.5,0.18 -1.03,0.27 -1.59,0.27 -0.58,0 -1.12,-0.09 -1.62,-0.27 -0.48,-0.19 -0.91,-0.45 -1.26,-0.8 -0.36,-0.36 -0.65,-0.81 -0.87,-1.34 -0.22,-0.53 -0.33,-1.15 -0.33,-1.87 0,-0.71 0.11,-1.34 0.33,-1.87 0.22,-0.53 0.51,-0.98 0.87,-1.33 0.37,-0.36 0.8,-0.63 1.29,-0.82 0.49,-0.18 1.03,-0.28 1.61,-0.28 0.56,0 1.09,0.1 1.58,0.28 0.49,0.19 0.92,0.46 1.29,0.82 0.36,0.37 0.66,0.82 0.87,1.35 0.22,0.53 0.33,1.15 0.33,1.85 0,0.72 -0.11,1.34 -0.33,1.87 z m 1.12,-7.08 c -0.63,-0.6 -1.38,-1.07 -2.21,-1.38 -0.83,-0.31 -1.72,-0.46 -2.65,-0.46 -0.91,0 -1.8,0.15 -2.64,0.46 -0.84,0.31 -1.59,0.78 -2.23,1.38 -0.64,0.6 -1.15,1.35 -1.52,2.23 -0.38,0.87 -0.57,1.87 -0.57,2.96 0,1.12 0.19,2.11 0.56,2.98 0.36,0.86 0.87,1.61 1.5,2.21 0.63,0.6 1.38,1.06 2.22,1.38 0.83,0.31 1.72,0.47 2.64,0.47 1.02,0 1.96,-0.17 2.81,-0.51 0.86,-0.34 1.61,-0.82 2.22,-1.45 0.61,-0.62 1.09,-1.37 1.44,-2.23 0.34,-0.86 0.51,-1.81 0.51,-2.85 0,-1.09 -0.19,-2.09 -0.56,-2.96 -0.38,-0.88 -0.89,-1.63 -1.52,-2.23"
       id="path18"
       inkscape:connector-curvature="0" />
    <path
       d="m -234.29,-155.44 c -0.21,0.53 -0.51,0.98 -0.88,1.34 -0.36,0.35 -0.8,0.61 -1.29,0.8 -0.49,0.18 -1.03,0.27 -1.59,0.27 -0.57,0 -1.12,-0.09 -1.61,-0.27 -0.49,-0.19 -0.91,-0.45 -1.27,-0.8 -0.36,-0.36 -0.65,-0.81 -0.86,-1.34 -0.22,-0.53 -0.34,-1.15 -0.34,-1.87 0,-0.71 0.12,-1.34 0.34,-1.87 0.21,-0.53 0.5,-0.98 0.86,-1.33 0.37,-0.36 0.8,-0.63 1.29,-0.82 0.5,-0.18 1.04,-0.28 1.61,-0.28 0.56,0 1.09,0.1 1.59,0.28 0.48,0.19 0.92,0.46 1.28,0.82 0.36,0.37 0.66,0.82 0.87,1.35 0.22,0.53 0.33,1.15 0.33,1.85 0,0.72 -0.11,1.34 -0.33,1.87 z m 1.12,-7.08 c -0.63,-0.6 -1.37,-1.07 -2.21,-1.38 -0.83,-0.31 -1.72,-0.46 -2.65,-0.46 -0.91,0 -1.79,0.15 -2.63,0.46 -0.85,0.31 -1.6,0.78 -2.24,1.38 -0.63,0.6 -1.14,1.35 -1.52,2.23 -0.37,0.87 -0.57,1.87 -0.57,2.96 0,1.12 0.19,2.11 0.56,2.98 0.37,0.86 0.87,1.61 1.51,2.21 0.63,0.6 1.38,1.06 2.21,1.38 0.83,0.31 1.72,0.47 2.64,0.47 1.02,0 1.96,-0.17 2.82,-0.51 0.86,-0.34 1.6,-0.82 2.22,-1.45 0.61,-0.62 1.08,-1.37 1.43,-2.23 0.34,-0.86 0.52,-1.81 0.52,-2.85 0,-1.09 -0.2,-2.09 -0.57,-2.96 -0.38,-0.88 -0.89,-1.63 -1.52,-2.23"
       id="path20"
       inkscape:connector-curvature="0" />
    <path
       d="m -297.03,-164.17 h -1.92 c -0.25,0 -0.45,0.2 -0.45,0.44 v 8.46 c 0,0.36 -0.06,0.68 -0.18,0.94 -0.11,0.26 -0.28,0.48 -0.48,0.66 -0.21,0.18 -0.47,0.32 -0.76,0.42 -0.3,0.1 -0.8,0.15 -1.15,0.15 -0.36,0 -0.89,-0.05 -1.2,-0.15 -0.3,-0.1 -0.56,-0.24 -0.77,-0.42 -0.21,-0.18 -0.38,-0.4 -0.5,-0.66 -0.12,-0.26 -0.18,-0.58 -0.18,-0.94 v -8.46 c 0,-0.24 -0.19,-0.44 -0.44,-0.44 h -1.92 c -0.24,0 -0.44,0.2 -0.44,0.44 v 8.53 c 0,0.79 0.15,1.48 0.43,2.09 0.29,0.6 0.69,1.12 1.2,1.55 0.5,0.41 1.08,0.73 1.73,0.94 0.65,0.21 1.35,0.32 2.09,0.32 0.72,0 1.41,-0.11 2.06,-0.32 0.65,-0.21 1.23,-0.53 1.72,-0.95 0.49,-0.42 0.88,-0.94 1.17,-1.54 0.29,-0.61 0.44,-1.31 0.44,-2.09 v -8.53 c 0,-0.24 -0.2,-0.44 -0.45,-0.44"
       id="path22"
       inkscape:connector-curvature="0" />
    <path
       d="m -283.54,-151.24 -3.12,-3.87 c 0,0 2.52,-0.92 2.52,-4.11 0,-0.65 -0.11,-1.29 -0.33,-1.89 -0.22,-0.6 -0.55,-1.13 -0.98,-1.58 -0.43,-0.45 -0.96,-0.81 -1.57,-1.07 -0.61,-0.28 -1.31,-0.41 -2.08,-0.41 h -5.07 c -0.24,0 -0.44,0.2 -0.44,0.44 v 12.79 c 0,0.23 0.2,0.44 0.44,0.44 h 1.92 c 0.24,0 0.44,-0.21 0.44,-0.44 v -10.42 h 2.84 c 0.3,0 0.58,0.05 0.82,0.16 0.25,0.11 0.47,0.26 0.65,0.45 0.17,0.18 0.31,0.41 0.4,0.67 0.1,0.27 0.15,0.57 0.15,0.88 0,0.31 -0.05,0.61 -0.15,0.87 -0.1,0.28 -0.25,0.51 -0.43,0.7 -0.17,0.2 -0.37,0.32 -0.62,0.43 -0.24,0.1 -0.66,0.16 -1.49,0.16 h -1.19 c -0.24,0 -0.42,0.22 -0.24,0.51 l 4.45,5.84 c 0.08,0.12 0.21,0.19 0.36,0.19 h 2.45 c 0.36,0 0.6,-0.34 0.27,-0.74"
       id="path24"
       inkscape:connector-curvature="0" />
    <path
       d="m -218.69,-151.24 -3.12,-3.87 c 0,0 2.52,-0.92 2.52,-4.11 0,-0.65 -0.12,-1.29 -0.33,-1.89 -0.22,-0.6 -0.56,-1.13 -0.98,-1.58 -0.43,-0.45 -0.96,-0.81 -1.57,-1.07 -0.62,-0.28 -1.32,-0.41 -2.08,-0.41 h -5.07 c -0.24,0 -0.45,0.2 -0.45,0.44 v 12.79 c 0,0.23 0.21,0.44 0.45,0.44 h 1.91 c 0.25,0 0.44,-0.21 0.44,-0.44 v -10.42 h 2.85 c 0.3,0 0.58,0.05 0.83,0.16 0.24,0.11 0.46,0.26 0.63,0.45 0.18,0.18 0.32,0.41 0.41,0.67 0.1,0.27 0.15,0.57 0.15,0.88 0,0.31 -0.05,0.61 -0.16,0.87 -0.1,0.28 -0.24,0.51 -0.42,0.7 -0.17,0.2 -0.38,0.32 -0.62,0.43 -0.24,0.1 -0.66,0.16 -1.49,0.16 h -1.2 c -0.23,0 -0.41,0.22 -0.23,0.51 l 4.44,5.84 c 0.08,0.12 0.22,0.19 0.37,0.19 h 2.44 c 0.36,0 0.61,-0.34 0.28,-0.74"
       id="path26"
       inkscape:connector-curvature="0" />
    <path
       d="m -317.97,-150.53 -4.56,-3 -7.05,2.99 4.15,-4.87 -4.6,-3.03 h 7.18 l 4.88,-5.71 v 5.71 h 6.97 l -6.97,2.98 v 4.93"
       id="path28"
       inkscape:connector-curvature="0" />
    <path
       d="m -309.32,-161.36 c 0.25,0 0.45,-0.21 0.45,-0.44 v -1.92 c 0,-0.25 -0.2,-0.44 -0.45,-0.44 h -7.46 v 2.8 h 7.46"
       id="path30"
       inkscape:connector-curvature="0" />
    <path
       d="m -309.32,-150.5 c 0.25,0 0.45,-0.21 0.45,-0.44 v -1.92 c 0,-0.25 -0.2,-0.44 -0.45,-0.44 h -7.46 v 2.8 h 7.46"
       id="path32"
       inkscape:connector-curvature="0" />
    <path
       d="m -209.09,-164.17 h -9.33 c -0.24,0 -0.44,0.2 -0.44,0.44 v 1.93 c 0,0.23 0.2,0.44 0.44,0.44 h 3.27 v 10.43 c 0,0.24 0.19,0.44 0.44,0.44 h 1.91 c 0.25,0 0.45,-0.2 0.45,-0.44 v -10.43 h 3.26 c 0.25,0 0.44,-0.21 0.44,-0.44 v -1.93 c 0,-0.24 -0.19,-0.44 -0.44,-0.44"
       id="path34"
       inkscape:connector-curvature="0" />
    <path
       d="m -248.93,-158.33 c -0.09,0.28 -0.23,0.51 -0.42,0.7 -0.18,0.2 -0.37,0.32 -0.62,0.43 -0.24,0.1 -0.66,0.16 -1.49,0.16 h -2.15 v -4.32 h 2.82 c 0.3,0 0.58,0.05 0.82,0.16 0.25,0.11 0.47,0.26 0.65,0.45 0.17,0.18 0.31,0.41 0.4,0.67 0.1,0.27 0.15,0.57 0.15,0.88 0,0.31 -0.05,0.61 -0.16,0.87 z m 2.65,-2.78 c -0.22,-0.6 -0.55,-1.13 -0.98,-1.58 -0.43,-0.45 -0.96,-0.81 -1.57,-1.07 -0.61,-0.28 -1.31,-0.41 -2.07,-0.41 h -5.08 c -0.24,0 -0.44,0.2 -0.44,0.44 v 12.79 c 0,0.23 0.2,0.44 0.44,0.44 h 1.92 c 0.24,0 0.45,-0.21 0.45,-0.44 v -3.28 h 2.71 c 0.76,0 1.45,-0.13 2.06,-0.4 0.61,-0.25 1.13,-0.61 1.57,-1.07 0.42,-0.44 0.75,-0.97 0.98,-1.55 0.23,-0.59 0.34,-1.33 0.34,-1.98 0,-0.65 -0.11,-1.29 -0.33,-1.89"
       id="path36"
       inkscape:connector-curvature="0" />
    <path
       d="m -265.36,-160.25 c -0.01,0.28 0.06,0.46 0.17,0.61 0.12,0.18 0.29,0.32 0.5,0.43 0.24,0.13 0.53,0.22 0.85,0.29 0.35,0.08 0.71,0.15 1.06,0.22 0.65,0.09 1.29,0.22 1.91,0.37 0.63,0.16 1.2,0.4 1.68,0.71 0.5,0.33 0.9,0.76 1.19,1.28 0.28,0.53 0.41,1.21 0.38,2.01 -0.04,0.78 -0.24,1.44 -0.59,1.97 -0.36,0.53 -0.82,0.96 -1.36,1.28 -0.53,0.3 -1.06,0.54 -1.72,0.66 -0.63,0.12 -1.35,0.16 -1.97,0.13 -1.56,-0.07 -3.85,-0.96 -5,-2.53 -0.09,-0.14 -0.21,-0.35 0.04,-0.6 0.25,-0.25 1.43,-1.45 1.43,-1.45 0.24,-0.26 0.47,-0.07 0.57,0.07 0.67,0.98 2.01,1.72 3.07,1.76 0.55,0.03 0.62,0 0.96,-0.04 0.31,-0.04 0.59,-0.12 0.86,-0.24 0.24,-0.11 0.43,-0.25 0.59,-0.46 0.15,-0.18 0.23,-0.45 0.26,-0.76 0.01,-0.29 -0.07,-0.53 -0.21,-0.72 -0.15,-0.2 -0.35,-0.36 -0.6,-0.5 -0.27,-0.14 -0.59,-0.23 -0.93,-0.3 -0.38,-0.07 -0.75,-0.13 -1.12,-0.18 -0.6,-0.07 -1.2,-0.2 -1.77,-0.36 -0.59,-0.17 -1.12,-0.41 -1.58,-0.72 -0.47,-0.31 -0.85,-0.71 -1.13,-1.21 -0.28,-0.5 -0.41,-1.07 -0.38,-1.78 0.03,-0.73 0.21,-1.36 0.53,-1.89 0.32,-0.53 0.74,-0.96 1.25,-1.29 0.5,-0.33 1.07,-0.56 1.7,-0.71 1.23,-0.27 2.45,-0.23 3.67,0.16 1.31,0.42 2.36,1.42 2.84,2.13 0.09,0.13 0.18,0.34 0,0.56 -0.2,0.21 -1.36,1.34 -1.36,1.34 -0.24,0.24 -0.5,0.18 -0.64,-0.03 -0.71,-1.04 -1.62,-1.51 -2.68,-1.58 -1.14,-0.07 -2.42,0.18 -2.47,1.37"
       id="path38"
       inkscape:connector-curvature="0" />
    <path
       d="m -272.34,-155.44 c -0.21,0.53 -0.51,0.98 -0.88,1.34 -0.37,0.35 -0.8,0.61 -1.29,0.8 -0.5,0.18 -1.03,0.27 -1.59,0.27 -0.58,0 -1.12,-0.09 -1.62,-0.27 -0.48,-0.19 -0.91,-0.45 -1.26,-0.8 -0.36,-0.36 -0.65,-0.81 -0.87,-1.34 -0.22,-0.53 -0.33,-1.15 -0.33,-1.87 0,-0.71 0.11,-1.34 0.33,-1.87 0.22,-0.53 0.51,-0.98 0.87,-1.33 0.37,-0.36 0.8,-0.63 1.29,-0.82 0.49,-0.18 1.03,-0.28 1.61,-0.28 0.56,0 1.09,0.1 1.58,0.28 0.49,0.19 0.92,0.46 1.29,0.82 0.36,0.37 0.66,0.82 0.87,1.35 0.22,0.53 0.33,1.15 0.33,1.85 0,0.72 -0.11,1.34 -0.33,1.87 z m 1.12,-7.08 c -0.63,-0.6 -1.38,-1.07 -2.21,-1.38 -0.83,-0.31 -1.72,-0.46 -2.65,-0.46 -0.91,0 -1.8,0.15 -2.64,0.46 -0.84,0.31 -1.59,0.78 -2.23,1.38 -0.64,0.6 -1.15,1.35 -1.52,2.23 -0.38,0.87 -0.57,1.87 -0.57,2.96 0,1.12 0.19,2.11 0.56,2.98 0.36,0.86 0.87,1.61 1.5,2.21 0.63,0.6 1.38,1.06 2.22,1.38 0.83,0.31 1.72,0.47 2.64,0.47 1.02,0 1.96,-0.17 2.81,-0.51 0.86,-0.34 1.61,-0.82 2.22,-1.45 0.61,-0.62 1.09,-1.37 1.44,-2.23 0.34,-0.86 0.51,-1.81 0.51,-2.85 0,-1.09 -0.19,-2.09 -0.56,-2.96 -0.38,-0.88 -0.89,-1.63 -1.52,-2.23"
       id="path40"
       inkscape:connector-curvature="0" />
    <path
       d="m -234.29,-155.44 c -0.21,0.53 -0.51,0.98 -0.88,1.34 -0.36,0.35 -0.8,0.61 -1.29,0.8 -0.49,0.18 -1.03,0.27 -1.59,0.27 -0.57,0 -1.12,-0.09 -1.61,-0.27 -0.49,-0.19 -0.91,-0.45 -1.27,-0.8 -0.36,-0.36 -0.65,-0.81 -0.86,-1.34 -0.22,-0.53 -0.34,-1.15 -0.34,-1.87 0,-0.71 0.12,-1.34 0.34,-1.87 0.21,-0.53 0.5,-0.98 0.86,-1.33 0.37,-0.36 0.8,-0.63 1.29,-0.82 0.5,-0.18 1.04,-0.28 1.61,-0.28 0.56,0 1.09,0.1 1.59,0.28 0.48,0.19 0.92,0.46 1.28,0.82 0.36,0.37 0.66,0.82 0.87,1.35 0.22,0.53 0.33,1.15 0.33,1.85 0,0.72 -0.11,1.34 -0.33,1.87 z m 1.12,-7.08 c -0.63,-0.6 -1.37,-1.07 -2.21,-1.38 -0.83,-0.31 -1.72,-0.46 -2.65,-0.46 -0.91,0 -1.79,0.15 -2.63,0.46 -0.85,0.31 -1.6,0.78 -2.24,1.38 -0.63,0.6 -1.14,1.35 -1.52,2.23 -0.37,0.87 -0.57,1.87 -0.57,2.96 0,1.12 0.19,2.11 0.56,2.98 0.37,0.86 0.87,1.61 1.51,2.21 0.63,0.6 1.38,1.06 2.21,1.38 0.83,0.31 1.72,0.47 2.64,0.47 1.02,0 1.96,-0.17 2.82,-0.51 0.86,-0.34 1.6,-0.82 2.22,-1.45 0.61,-0.62 1.08,-1.37 1.43,-2.23 0.34,-0.86 0.52,-1.81 0.52,-2.85 0,-1.09 -0.2,-2.09 -0.57,-2.96 -0.38,-0.88 -0.89,-1.63 -1.52,-2.23"
       id="path42"
       inkscape:connector-curvature="0" />
    <path
       d="m -297.03,-164.17 h -1.92 c -0.25,0 -0.45,0.2 -0.45,0.44 v 8.46 c 0,0.36 -0.06,0.68 -0.18,0.94 -0.11,0.26 -0.28,0.48 -0.48,0.66 -0.21,0.18 -0.47,0.32 -0.76,0.42 -0.3,0.1 -0.8,0.15 -1.15,0.15 -0.36,0 -0.89,-0.05 -1.2,-0.15 -0.3,-0.1 -0.56,-0.24 -0.77,-0.42 -0.21,-0.18 -0.38,-0.4 -0.5,-0.66 -0.12,-0.26 -0.18,-0.58 -0.18,-0.94 v -8.46 c 0,-0.24 -0.19,-0.44 -0.44,-0.44 h -1.92 c -0.24,0 -0.44,0.2 -0.44,0.44 v 8.53 c 0,0.79 0.15,1.48 0.43,2.09 0.29,0.6 0.69,1.12 1.2,1.55 0.5,0.41 1.08,0.73 1.73,0.94 0.65,0.21 1.35,0.32 2.09,0.32 0.72,0 1.41,-0.11 2.06,-0.32 0.65,-0.21 1.23,-0.53 1.72,-0.95 0.49,-0.42 0.88,-0.94 1.17,-1.54 0.29,-0.61 0.44,-1.31 0.44,-2.09 v -8.53 c 0,-0.24 -0.2,-0.44 -0.45,-0.44"
       id="path44"
       inkscape:connector-curvature="0" />
    <path
       d="m -283.54,-151.24 -3.12,-3.87 c 0,0 2.52,-0.92 2.52,-4.11 0,-0.65 -0.11,-1.29 -0.33,-1.89 -0.22,-0.6 -0.55,-1.13 -0.98,-1.58 -0.43,-0.45 -0.96,-0.81 -1.57,-1.07 -0.61,-0.28 -1.31,-0.41 -2.08,-0.41 h -5.07 c -0.24,0 -0.44,0.2 -0.44,0.44 v 12.79 c 0,0.23 0.2,0.44 0.44,0.44 h 1.92 c 0.24,0 0.44,-0.21 0.44,-0.44 v -10.42 h 2.84 c 0.3,0 0.58,0.05 0.82,0.16 0.25,0.11 0.47,0.26 0.65,0.45 0.17,0.18 0.31,0.41 0.4,0.67 0.1,0.27 0.15,0.57 0.15,0.88 0,0.31 -0.05,0.61 -0.15,0.87 -0.1,0.28 -0.25,0.51 -0.43,0.7 -0.17,0.2 -0.37,0.32 -0.62,0.43 -0.24,0.1 -0.66,0.16 -1.49,0.16 h -1.19 c -0.24,0 -0.42,0.22 -0.24,0.51 l 4.45,5.84 c 0.08,0.12 0.21,0.19 0.36,0.19 h 2.45 c 0.36,0 0.6,-0.34 0.27,-0.74"
       id="path46"
       inkscape:connector-curvature="0" />
    <path
       d="m -218.69,-151.24 -3.12,-3.87 c 0,0 2.52,-0.92 2.52,-4.11 0,-0.65 -0.12,-1.29 -0.33,-1.89 -0.22,-0.6 -0.56,-1.13 -0.98,-1.58 -0.43,-0.45 -0.96,-0.81 -1.57,-1.07 -0.62,-0.28 -1.32,-0.41 -2.08,-0.41 h -5.07 c -0.24,0 -0.45,0.2 -0.45,0.44 v 12.79 c 0,0.23 0.21,0.44 0.45,0.44 h 1.91 c 0.25,0 0.44,-0.21 0.44,-0.44 v -10.42 h 2.85 c 0.3,0 0.58,0.05 0.83,0.16 0.24,0.11 0.46,0.26 0.63,0.45 0.18,0.18 0.32,0.41 0.41,0.67 0.1,0.27 0.15,0.57 0.15,0.88 0,0.31 -0.05,0.61 -0.16,0.87 -0.1,0.28 -0.24,0.51 -0.42,0.7 -0.17,0.2 -0.38,0.32 -0.62,0.43 -0.24,0.1 -0.66,0.16 -1.49,0.16 h -1.2 c -0.23,0 -0.41,0.22 -0.23,0.51 l 4.44,5.84 c 0.08,0.12 0.22,0.19 0.37,0.19 h 2.44 c 0.36,0 0.61,-0.34 0.28,-0.74"
       id="path48"
       inkscape:connector-curvature="0" />
  </g>
</svg>
