<svg xmlns="http://www.w3.org/2000/svg" width="219.477" height="133.88" viewBox="0 0 427.95 261.048"><path d="M248.969 17l71.734 71.678-30.814 30.814h24.042l30.819-30.818L256.006 0H88.676L0 88.676l172.374 172.372 87.1-87.1h-24.042l-63.058 63.059L24.042 88.676 95.718 17z"/><path d="M200.502 100.143v5.418h-19.078v82.441h19.078v5.418h-55.589v-5.418h18.138v-82.441h-18.138v-5.418h18.138V88.6c0-40.278 16.723-57.238 39.336-57.238 9.187 0 19.787 4.241 19.787 15.312 0 4.711-4.712 7.773-8.715 7.773-6.361 0-9.659-4.476-9.659-10.836 0-2.59 1.884-2.826 1.884-5.887 0-1.179-4.004-1.414-5.654-1.414-11.305 0-18.607 13.661-18.607 37.216v26.618h19.079z"/><circle cx="231.102" cy="102.499" r="8.518"/><path d="M226.085 165.132c-.214 3.367-2.793 5.874-6.088 5.874-2.65 0-4.155-1.72-4.656-4.37-2.437 3.01-6.018 4.37-9.671 4.37-4.513 0-8.381-1.72-8.381-7.02.215-6.663 7.021-10.388 17.98-10.388v-6.805c0-3.367-2.65-4.37-5.158-4.37-1.575 0-6.661.502-6.661 2.58 0 .571 2.149.931 2.149 3.294 0 1.791-1.147 3.009-2.937 3.009-1.935 0-3.009-1.433-3.009-3.438 0-2.578 2.937-6.876 11.462-6.876 9.742 0 9.742 4.154 9.742 7.02v17.048c0 2.149 0 3.295 1.504 3.295 1.433 0 2.149-2.004 2.507-3.223zm-10.816-10.028c-4.656.07-12.606.858-12.606 7.448 0 3.511 2.22 5.66 5.516 5.66 2.292 0 3.795-.574 5.516-2.077.573-.574 1.575-1.362 1.575-4.371v-6.66zm33.31-13.396v8.022h-1.576c-1.074-4.155-3.51-7.091-7.809-7.307-5.874-.144-6.732 4.37-6.732 5.229 0 2.078.573 3.153 11.533 5.373 5.516 1.147 7.449 3.654 7.449 8.167 0 6.16-4.656 9.813-10.315 9.813-3.008 0-6.161-1.218-8.238-3.51l-1.576 2.578h-1.575v-9.456h1.647c1.36 5.158 4.871 8.955 10.171 8.955 3.224 0 6.948-2.436 6.948-6.161 0-2.794-3.938-4.082-9.885-5.587-4.728-1.146-8.882-1.79-8.882-8.023 0-3.008 1.862-8.81 9.671-8.81 2.22 0 4.441.858 6.662 2.649l1.289-1.934h1.218zm11.605-19.341h-3.941v-1.648h1.505c2.651 0 5.444-.144 8.023-.645v28.51h.143c2.007-4.514 4.8-7.593 10.03-7.593 2.578 0 8.522.571 8.522 7.162v20.272h3.869v1.647h-13.181v-1.647h3.725v-19.342c0-5.229-1.647-6.016-4.514-6.016-4.87 0-8.595 6.661-8.595 12.035v13.322h3.866v1.647h-13.393v-1.647h3.941zm32.45 47.707v-1.647h4.8v-25.07h-4.8v-1.648h2.363c2.651 0 5.445-.072 8.023-.716v27.435h4.227v1.647h-14.613zm7.522-47.278c1.72 0 3.652 1.576 3.652 3.438 0 2.221-1.575 3.796-3.652 3.796s-3.438-1.719-3.438-3.796c0-1.862 1.648-3.438 3.438-3.438zm39.829 33.167c0 8.667-6.304 15.043-13.825 15.043-7.521 0-13.827-6.376-13.827-15.043 0-8.667 6.306-14.971 13.827-14.971s13.825 6.304 13.825 14.971zm-21.132 0c0 6.018.07 13.61 7.307 13.61 7.234 0 7.307-7.593 7.307-13.61 0-5.946-.072-13.539-7.307-13.539-7.237 0-7.307 7.592-7.307 13.539zm29.227-12.607h-3.942v-1.648h1.506c1.36 0 2.721 0 4.012-.145 1.36-.07 2.721-.285 4.011-.571v7.593h.143c2.007-4.514 4.801-7.593 10.03-7.593 2.579 0 8.522.571 8.522 7.162v20.272h3.869v1.647H363.05v-1.647h3.725v-19.342c0-5.229-1.647-6.016-4.513-6.016-4.871 0-8.596 6.661-8.596 12.035v13.322h3.867v1.647h-13.396v-1.647h3.942v-25.069zm31.088-1.648h4.227v-8.811c1.862 0 3.652 0 5.444-.287v9.098h6.304v1.648h-6.304v21.919c0 1.289 0 3.224 2.721 3.224 1.862 0 2.866-1.29 4.012-2.65l1.146.787c-1.36 2.723-4.871 4.37-7.736 4.37-5.157 0-5.731-2.793-5.731-6.232v-21.417h-4.082v-1.649zm19.987 1.648v-1.648h12.894v1.648h-3.797l6.949 20.558h.143l7.234-20.558h-4.368v-1.648h9.74v1.648h-3.438l-9.886 27.649h-2.434l-9.601-27.649z"/></svg>