<svg xmlns="http://www.w3.org/2000/svg" xmlns:xlink="http://www.w3.org/1999/xlink" width="510.15" height="250.74"><defs><path id="A" d="M415.03 475.66q-4 0-6.68-1.12-2.64-1.16-4-3-1.32-1.84-1.4-3.92 0-.32.24-.56.28-.28.64-.28h5.04q.56 0 .84.2.28.2.56.52.44.92 1.56 1.68 1.12.72 3.2.72 2.32 0 3.48-.72 1.2-.72 1.2-1.96 0-1.32-1.48-2-1.48-.68-5-1.44-4.56-.92-7.08-2.8-2.48-1.92-2.48-5.68 0-2.44 1.36-4.36 1.36-1.92 3.84-3 2.52-1.08 5.92-1.08 2.76 0 4.84.76 2.12.72 3.56 1.92 1.44 1.16 2.16 2.52.76 1.36.8 2.6 0 .32-.24.6-.24.24-.6.24h-5.28q-.88 0-1.32-.68-.24-.88-1.28-1.52-1.04-.68-2.64-.68-1.76 0-2.76.64-.96.64-.96 1.88 0 1.24 1.24 1.96 1.28.68 4.56 1.4 3.64.68 5.88 1.72 2.24 1 3.28 2.64 1.08 1.6 1.08 4.04 0 2.72-1.56 4.68-1.56 1.96-4.28 3.04-2.72 1.04-6.24 1.04z"/><path id="B" d="M451.9 475.26q-.44 0-.72-.28-.28-.28-.28-.72v-26q0-.44.28-.72.28-.28.72-.28h5.36q.44 0 .72.28.32.28.32.72v26q0 .44-.32.72-.28.28-.72.28z"/><path id="C" d="M616.2 475.26q-.44 0-.72-.28-.28-.28-.28-.72v-26q0-.4.28-.68.28-.32.72-.32h18.68q.44 0 .72.32.28.28.28.68v3.76q0 .44-.28.72-.28.28-.72.28h-12.76v5.4H634q.44 0 .72.32.28.28.28.72v3.48q0 .4-.28.72-.28.28-.72.28h-11.88v5.56h13.08q.44 0 .72.28.28.28.28.72v3.76q0 .44-.28.72-.28.28-.72.28z"/><linearGradient id="D" x1="208.976" x2="336.376" y1="122.135" y2="2.175" gradientUnits="userSpaceOnUse"><stop stop-color="#fbfef5" offset="0"/><stop stop-color="#e78035" stop-opacity="0" offset="1"/></linearGradient></defs><g transform="matrix(.99163 0 0 .99163 -299.72 -220.94)"><path d="M303.9 475.26c-.293 0-.533-.093-.72-.28s-.28-.427-.28-.72v-26c0-.267.093-.493.28-.68.187-.213.427-.32.72-.32h4.32c.453 0 .787.12 1 .36.213.213.347.387.4.52l7.04 12.6 7.04-12.6c.053-.133.187-.307.4-.52.213-.24.547-.36 1-.36h4.28c.293 0 .533.107.72.32a.87.87 0 0 1 .32.68v26c0 .293-.107.533-.32.72-.187.187-.427.28-.72.28h-4.76c-.293 0-.547-.093-.76-.28-.187-.187-.28-.427-.28-.72v-15l-4.48 8.36c-.133.24-.307.453-.52.64s-.507.28-.88.28h-2.08c-.373 0-.667-.093-.88-.28s-.387-.4-.52-.64l-4.52-8.36v15c0 .293-.093.533-.28.72s-.427.28-.72.28zm53.071.4c-2.427 0-4.547-.387-6.36-1.16-1.787-.8-3.173-2.013-4.16-3.64s-1.48-3.72-1.48-6.28v-16.32c0-.267.093-.493.28-.68.187-.213.427-.32.72-.32h5.16c.293 0 .533.107.72.32a.87.87 0 0 1 .32.68v16.28c0 1.76.413 3.067 1.24 3.92s2 1.28 3.52 1.28c1.493 0 2.653-.427 3.48-1.28.853-.853 1.28-2.16 1.28-3.92v-16.28c0-.267.093-.493.28-.68.187-.213.427-.32.72-.32h5.2a.87.87 0 0 1 .68.32.87.87 0 0 1 .32.68v16.32c0 2.56-.493 4.653-1.48 6.28s-2.387 2.84-4.2 3.64c-1.787.773-3.867 1.16-6.24 1.16z"/><use xlink:href="#A" x="-20.875"/><use xlink:href="#B" x="-30.656"/><path d="M453.88 475.66c-3.787 0-6.76-.92-8.92-2.76s-3.307-4.533-3.44-8.08l-.08-3.52.08-3.6c.133-3.493 1.293-6.173 3.48-8.04 2.213-1.867 5.173-2.8 8.88-2.8 2.347 0 4.44.387 6.28 1.16 1.867.773 3.347 1.88 4.44 3.32s1.653 3.16 1.68 5.16c.027.24-.053.44-.24.6-.16.16-.36.24-.6.24h-5.4c-.373 0-.653-.067-.84-.2-.16-.16-.307-.44-.44-.84-.373-1.413-.987-2.373-1.84-2.88-.827-.533-1.853-.8-3.08-.8-1.467 0-2.64.413-3.52 1.24-.853.8-1.307 2.147-1.36 4.04v6.72c.053 1.893.507 3.253 1.36 4.08.88.8 2.053 1.2 3.52 1.2 1.227 0 2.267-.267 3.12-.8s1.453-1.493 1.8-2.88c.133-.427.28-.707.44-.84.187-.133.467-.2.84-.2h5.4c.24 0 .44.08.6.24.187.16.267.36.24.6-.027 2-.587 3.72-1.68 5.16s-2.573 2.547-4.44 3.32c-1.84.773-3.933 1.16-6.28 1.16zm56.535-.4c-.293 0-.533-.093-.72-.28a.98.98 0 0 1-.28-.72v-20.72h-7.12c-.293 0-.533-.093-.72-.28-.187-.213-.28-.453-.28-.72v-4.28c0-.267.093-.493.28-.68.187-.213.427-.32.72-.32h21.52c.293 0 .533.107.72.32.187.187.28.413.28.68v4.28c0 .267-.093.507-.28.72-.187.187-.427.28-.72.28h-7.12v20.72c0 .293-.093.533-.28.72s-.427.28-.72.28z"/><use xlink:href="#C" x="-78.86"/><path d="M570.4 475.26q-.44 0-.72-.28-.28-.28-.28-.72v-26q0-.44.28-.72.28-.28.72-.28h5.28q.44 0 .72.28.28.28.28.72v20.96h12.12q.4 0 .68.32.32.28.32.72v4q0 .44-.32.72-.28.28-.68.28z"/><use x="-13.03" xlink:href="#C"/><path d="M643.77 475.26q-.72 0-1.12-.36-.36-.36-.52-.84l-8.16-25.6q-.08-.2-.08-.36 0-.32.24-.56.28-.28.64-.28h4.96q.64 0 1 .36.36.36.44.68l5.68 18.48 5.64-18.48q.08-.32.44-.68.36-.36 1-.36h5q.32 0 .56.28.28.24.28.56 0 .16-.08.36l-8.16 25.6q-.16.48-.56.84-.36.36-1.08.36z"/><use x="222.09" xlink:href="#B"/><use x="291.98" xlink:href="#A"/><use x="282.09" xlink:href="#B"/><path d="M767.81 475.66c-3.707 0-6.653-.893-8.84-2.68-2.187-1.813-3.347-4.547-3.48-8.2v-6.92c.08-2.4.64-4.413 1.68-6.04s2.467-2.853 4.28-3.68c1.84-.853 3.96-1.28 6.36-1.28 2.427 0 4.547.427 6.36 1.28 1.813.827 3.24 2.053 4.28 3.68s1.6 3.64 1.68 6.04v6.92c-.133 3.653-1.293 6.387-3.48 8.2-2.187 1.787-5.133 2.68-8.84 2.68zm0-5.76c1.413 0 2.56-.427 3.44-1.28s1.36-2.213 1.44-4.08v-6.56c-.08-1.867-.573-3.227-1.48-4.08-.88-.853-2.013-1.28-3.4-1.28s-2.533.427-3.44 1.28c-.88.853-1.36 2.213-1.44 4.08v6.56c.08 1.867.56 3.227 1.44 4.08s2.027 1.28 3.44 1.28zm26.737 5.36c-.293 0-.533-.093-.72-.28s-.28-.427-.28-.72v-26c0-.267.093-.493.28-.68.187-.213.427-.32.72-.32h4.24c.453 0 .773.107.96.32l.4.44 9.76 15.36v-15.12c0-.267.093-.493.28-.68.187-.213.427-.32.72-.32h4.8c.293 0 .533.107.72.32.187.187.28.413.28.68v25.96c0 .293-.093.547-.28.76-.187.187-.427.28-.72.28h-4.28c-.427 0-.747-.093-.96-.28-.187-.213-.307-.373-.36-.48l-9.76-14.8v14.56c0 .293-.093.533-.28.72s-.427.28-.72.28z"/></g><path d="M7 2.175c-3.878 0-7 3.122-7 7v160.53c0 3.878 3.122 7 7 7h29c3.878 0 7-3.122 7-7v-65.461h55.486c3.878 0 7-3.122 7-7V77.055c0-3.878-3.122-7-7-7H43V36.367h59.441c3.878 0 7-3.122 7-7V9.178c0-3.878-3.122-7-7-7zM184.426 0c36.607 0 66.077 19.171 66.077 42.985v92.836c0 23.814-29.47 42.985-66.077 42.985s-66.077-19.171-66.077-42.985V42.985C118.349 19.171 147.819 0 184.426 0zm87.89 2.175c-3.878 0-7 3.122-7 7v160.53c0 3.878 3.122 7 7 7h85.639c3.878 0 7-3.122 7-7v-20.189c0-3.878-3.122-7-7-7h-49.639V9.176c0-3.878-3.122-7-7-7zm109.05 0c-3.878 0-8.931 3.637-7 7l45.195 78.719-48.814 81.809c-1.987 3.33 3.122 7 7 7h29c3.878 0 5.013-3.67 7-7l26.9-45.084 25.885 45.084c1.931 3.363 3.122 7 7 7h29c3.878 0 8.931-3.637 7-7l-46.971-81.809 46.971-78.719c1.987-3.33-3.122-7-7-7h-29c-3.878 0-5.013 3.67-7 7l-25.057 41.992-24.109-41.992c-1.931-3.363-3.122-7-7-7z" paint-order="stroke fill markers" fill="#da244d"/><path d="M281.29 2.175l-15.971 20.408v46.502l43-40.49V9.175c0-3.878-3.122-7-7-7zm-30.836 39.404l-101.99 130.33 5.459 2.066 96.586-90.947V42.983l-.055-1.406z" fill="url(#D)" paint-order="stroke fill markers"/></svg>