<svg xmlns="http://www.w3.org/2000/svg" viewBox="0 0 158.75 50.394" width="600" height="190.47"><g fill="#000"><path d="M70.673 8.685a2.91 2.91 0 0 1-.026.418.82.82 0 0 1-.086.284.48.48 0 0 1-.147.16c-.052.035-.112.05-.172.05h-6v5.58H69.9c.06 0 .117.013.173.043s.103.078.146.147a.72.72 0 0 1 .09.27 3.06 3.06 0 0 1 .022.44 3.85 3.85 0 0 1-.022.41c-.012.113-.047.207-.1.275a.47.47 0 0 1-.146.17.29.29 0 0 1-.173.06h-5.677v6.83c0 .06-.018.12-.052.17-.035.06-.1.1-.177.13s-.194.05-.327.08l-.534.03c-.203 0-.375-.02-.522-.03l-.34-.08c-.086-.03-.146-.07-.177-.13a.28.28 0 0 1-.05-.17V8.633c0-.327.086-.56.258-.7a.89.89 0 0 1 .552-.198h7.38c.06 0 .116.017.172.052s.103.1.147.163c.04.078.07.177.086.298a3.31 3.31 0 0 1 .026.426m10.975 3.614c0-.642-.142-1.184-.43-1.628s-.77-.763-1.447-.957a4.05 4.05 0 0 0-.715-.129c-.267-.026-.616-.04-1.047-.04h-1.835v5.528h2.128c.577 0 1.073-.07 1.5-.207a2.98 2.98 0 0 0 1.047-.582 2.3 2.3 0 0 0 .612-.883 2.96 2.96 0 0 0 .198-1.103m3.283 11.524c0 .07-.013.13-.04.18s-.078.1-.164.13-.203.05-.353.07-.358.02-.612.02c-.22 0-.396 0-.538-.02s-.25-.04-.336-.08a.53.53 0 0 1-.194-.16c-.047-.06-.086-.15-.12-.25l-1.508-3.87-.55-1.2a3.81 3.81 0 0 0-.681-.95 2.62 2.62 0 0 0-.926-.62c-.353-.15-.78-.22-1.28-.22h-1.456v6.98a.29.29 0 0 1-.06.18c-.038.05-.095.1-.177.12l-.327.07c-.142.03-.315.03-.526.03s-.388 0-.53-.03c-.138-.02-.25-.04-.336-.07s-.142-.07-.177-.12a.31.31 0 0 1-.052-.18V8.636c0-.33.1-.56.263-.693a.87.87 0 0 1 .55-.198h3.485l1.034.034.74.07c.633.112 1.193.284 1.68.52s.896.535 1.223.9a3.58 3.58 0 0 1 .741 1.245 4.7 4.7 0 0 1 .25 1.555c0 .55-.078 1.042-.224 1.478a3.54 3.54 0 0 1-.642 1.154 4.24 4.24 0 0 1-.999.866 6.33 6.33 0 0 1-1.305.62c.27.12.517.272.737.453s.422.4.612.65.37.55.538.88a13.33 13.33 0 0 1 .508 1.11l1.47 3.6.228.65a1.07 1.07 0 0 1 .052.28m8.38-13.882H93.3l-2.826 8.174h5.704zm7.06 13.444c.068.2.103.34.107.46.005.1-.026.2-.095.26s-.18.1-.336.1a5.18 5.18 0 0 1-.629.03 9.6 9.6 0 0 1-.624-.02c-.16-.02-.276-.04-.358-.07-.077-.02-.138-.07-.176-.12a.83.83 0 0 1-.108-.19l-1.404-4h-6.824l-1.344 3.94a.67.67 0 0 1-.1.2.57.57 0 0 1-.185.14 1.64 1.64 0 0 1-.34.08c-.15.02-.34.03-.577.03-.246 0-.448-.02-.603-.04s-.267-.06-.332-.12c-.06-.05-.1-.14-.086-.26.004-.1.04-.26.108-.45L91.96 8.127a.64.64 0 0 1 .133-.228.53.53 0 0 1 .242-.138 1.75 1.75 0 0 1 .404-.069l.63-.022.672.022a1.97 1.97 0 0 1 .431.069.58.58 0 0 1 .254.146.67.67 0 0 1 .138.233zm15.14-.12c0 .17-.03.3-.087.43a.74.74 0 0 1-.224.29.9.9 0 0 1-.305.17c-.117.03-.23.05-.34.05h-.724c-.224 0-.426-.03-.594-.07a1.44 1.44 0 0 1-.487-.25c-.15-.13-.306-.3-.456-.5-.156-.2-.315-.48-.487-.8l-5.006-9.33-.793-1.516-.74-1.538h-.026l.04 1.865.013 1.887v9.9a.32.32 0 0 1-.052.17.34.34 0 0 1-.18.13c-.087.03-.2.05-.336.07a3.62 3.62 0 0 1-.53.04 3.61 3.61 0 0 1-.526-.04 1.63 1.63 0 0 1-.327-.07c-.082-.03-.142-.07-.177-.13a.33.33 0 0 1-.052-.17V8.687c0-.34.095-.582.3-.724a1.03 1.03 0 0 1 .625-.215h1.072c.254 0 .466.02.638.064a1.3 1.3 0 0 1 .457.207 1.9 1.9 0 0 1 .392.405 5.65 5.65 0 0 1 .4.655l4.532 8.483.638 1.24.607 1.2.595 1.18h.013l-.035-2.08-.004-2.1V8.114c0-.06.017-.112.05-.164s.095-.095.18-.133.2-.065.336-.082a4.61 4.61 0 0 1 .543-.026 4.45 4.45 0 0 1 .509.026c.142.017.25.043.33.082a.48.48 0 0 1 .177.133.29.29 0 0 1 .052.164zm15.06.54a.48.48 0 0 1-.043.2c-.03.05-.086.1-.172.13a2.76 2.76 0 0 1-.345.09 4.14 4.14 0 0 1-.556.03 6.6 6.6 0 0 1-.723-.04c-.186-.03-.324-.07-.418-.14a1 1 0 0 1-.229-.23l-6.035-8.202v8.202c0 .06-.017.12-.047.17s-.095.1-.18.13-.194.05-.336.08a3.8 3.8 0 0 1-.526.03 3.79 3.79 0 0 1-.517-.03l-.345-.08c-.08-.03-.142-.08-.176-.13a.28.28 0 0 1-.052-.17V8.077c0-.07.017-.13.052-.176a.39.39 0 0 1 .176-.12c.087-.03.2-.056.345-.077a3.48 3.48 0 0 1 .517-.031 3.81 3.81 0 0 1 .526.03 1.76 1.76 0 0 1 .336.077c.082.03.146.07.18.12a.3.3 0 0 1 .047.176v7.3l5.807-7.3a.75.75 0 0 1 .177-.189.62.62 0 0 1 .25-.12 1.71 1.71 0 0 1 .353-.069c.142-.017.32-.026.538-.026s.4.01.534.03.242.047.324.08.133.078.163.13.048.103.048.163c0 .108-.03.22-.087.328-.05.112-.155.262-.3.456l-5.436 6.505 5.854 7.786c.147.22.233.37.263.45s.043.14.043.2m11.908-.548c0 .15-.01.28-.026.4-.017.1-.047.2-.086.28a.47.47 0 0 1-.146.17c-.056.03-.117.05-.186.05h-7.87a.86.86 0 0 1-.556-.2c-.172-.13-.258-.36-.258-.7V8.635c0-.332.086-.56.258-.693s.358-.194.556-.194h7.784c.065 0 .125.017.18.05s.1.087.134.164.06.172.082.284a2.4 2.4 0 0 1 .034.427c0 .15-.013.284-.034.396a1.18 1.18 0 0 1-.082.28.36.36 0 0 1-.134.16.34.34 0 0 1-.18.05h-6.42v5.144h5.506a.31.31 0 0 1 .181.06c.056.04.103.1.142.16.034.064.065.16.082.275s.026.26.026.418-.01.285-.026.397a.86.86 0 0 1-.082.262.36.36 0 0 1-.142.147c-.052.03-.116.047-.18.047h-5.506v5.87h6.505a.3.3 0 0 1 .186.05c.056.03.103.08.146.16a.81.81 0 0 1 .086.27c.017.12.026.26.026.43m15.948.003a1.03 1.03 0 0 1-.086.43.77.77 0 0 1-.22.29.96.96 0 0 1-.31.17c-.116.03-.228.05-.34.05h-.724c-.224 0-.426-.03-.594-.07a1.43 1.43 0 0 1-.487-.25 2.6 2.6 0 0 1-.457-.51c-.155-.2-.314-.48-.487-.8l-5.005-9.33-.793-1.516-.74-1.538h-.026l.04 1.865.013 1.887v9.9a.32.32 0 0 1-.052.17c-.04.06-.1.1-.18.13s-.198.05-.336.07a3.61 3.61 0 0 1-.53.04c-.2 0-.387-.02-.525-.04s-.25-.04-.328-.07-.142-.07-.176-.13a.32.32 0 0 1-.052-.17V8.687c0-.34.095-.582.3-.724.2-.142.4-.215.624-.215h1.073c.254 0 .465.02.638.064a1.29 1.29 0 0 1 .456.207c.134.1.267.233.392.405.13.177.26.392.4.655l4.532 8.483.637 1.24.608 1.2.594 1.18h.013l-.034-2.08-.005-2.1V8.114a.29.29 0 0 1 .052-.164c.035-.05.095-.095.18-.133s.198-.065.336-.082a4.6 4.6 0 0 1 .54-.026c.198 0 .366.01.512.026s.254.043.332.082a.4.4 0 0 1 .172.133.26.26 0 0 1 .056.164zm-89.928 8.2a2.47 2.47 0 0 1-.022.34c-.013.1-.034.17-.07.22-.034.06-.073.1-.116.13s-.1.04-.138.04H63.35v4.45h4.532c.048 0 .095.02.138.04s.082.06.116.1c.035.06.056.13.07.22a2.52 2.52 0 0 1 .022.35c0 .13-.01.24-.022.33a.51.51 0 0 1-.07.22c-.034.06-.073.1-.116.13s-.1.05-.138.05H63.35v5.45c0 .05-.013.1-.04.14s-.073.08-.142.1a2.81 2.81 0 0 1-.262.06c-.108.02-.25.03-.427.03a2.47 2.47 0 0 1-.413-.03l-.272-.06a.25.25 0 0 1-.142-.1.28.28 0 0 1-.043-.14v-12.1c0-.27.07-.45.207-.56.142-.1.288-.16.443-.16h5.885c.047 0 .095.02.138.05.043.02.082.07.116.13a.65.65 0 0 1 .069.23 2.71 2.71 0 0 1 .022.34"/><path d="M78.413 43.072a2.41 2.41 0 0 1-.021.32c-.013.1-.035.16-.07.22s-.073.1-.116.13-.095.05-.147.05h-6.28a.77.77 0 0 1-.444-.16c-.138-.1-.207-.3-.207-.55v-11.68c0-.26.07-.44.207-.55a.77.77 0 0 1 .444-.16h6.208c.056 0 .103.02.147.05.047.02.082.07.108.13a1.08 1.08 0 0 1 .065.22 1.97 1.97 0 0 1 .026.35 1.64 1.64 0 0 1-.026.31.89.89 0 0 1-.065.22.27.27 0 0 1-.108.13c-.043.03-.1.04-.147.04H72.87v4.1h4.4c.056 0 .103.01.146.04a.38.38 0 0 1 .112.13c.03.06.052.13.065.22a1.99 1.99 0 0 1 .02.34 1.67 1.67 0 0 1-.021.31.57.57 0 0 1-.065.21c-.03.06-.065.1-.112.12s-.1.04-.146.04h-4.4v4.68h5.2c.052 0 .103.01.147.04s.082.07.116.13a.57.57 0 0 1 .07.22 2.39 2.39 0 0 1 .021.34m8.942-8.73c0-.52-.116-.95-.345-1.3-.228-.36-.612-.6-1.154-.77-.168-.04-.358-.08-.57-.1a9.28 9.28 0 0 0-.836-.03h-1.465v4.4h1.697c.46 0 .857-.05 1.2-.16s.612-.27.836-.47.383-.43.5-.7.155-.56.155-.88m2.62 9.2a.29.29 0 0 1-.03.14c-.022.05-.065.08-.13.1s-.164.04-.284.06l-.487.02c-.177 0-.32-.01-.43-.02-.112-.02-.198-.04-.267-.07a.31.31 0 0 1-.155-.13.79.79 0 0 1-.099-.2l-1.202-3.08-.44-.97a2.87 2.87 0 0 0-.543-.76 2.09 2.09 0 0 0-.737-.49c-.284-.12-.625-.18-1.02-.18h-1.163v5.57c0 .06-.017.1-.047.14-.03.05-.078.08-.142.1a2.19 2.19 0 0 1-.263.06c-.113.02-.25.03-.418.03a2.56 2.56 0 0 1-.422-.03l-.267-.06c-.07-.02-.116-.05-.142-.1-.026-.04-.04-.08-.04-.14v-12.12c0-.26.07-.44.207-.55.138-.1.284-.15.44-.15h2.783l.823.02.6.06c.508.08.956.22 1.344.4s.7.43.974.72a2.9 2.9 0 0 1 .594 1 3.73 3.73 0 0 1 .194 1.24c0 .44-.056.83-.177 1.17a2.77 2.77 0 0 1-.508.92 3.47 3.47 0 0 1-.801.7 5.08 5.08 0 0 1-1.043.49 2.82 2.82 0 0 1 .586.36 3.22 3.22 0 0 1 .491.52 4.49 4.49 0 0 1 .43.7l.405.9 1.172 2.88.185.52c.026.1.04.17.04.22m12.403-.44a.75.75 0 0 1-.069.34.59.59 0 0 1-.177.23.6.6 0 0 1-.245.13.87.87 0 0 1-.272.05h-.577a2.13 2.13 0 0 1-.474-.06 1.05 1.05 0 0 1-.388-.2c-.12-.1-.245-.24-.366-.4a6.56 6.56 0 0 1-.388-.65l-3.993-7.44-.633-1.2-.6-1.23h-.022l.03 1.48.01 1.5v7.9c0 .05-.013.1-.04.14s-.078.07-.146.1c-.07.02-.156.04-.268.06s-.25.03-.422.03a2.56 2.56 0 0 1-.422-.03l-.258-.06c-.065-.03-.112-.06-.138-.1a.28.28 0 0 1-.043-.14v-12.08c0-.26.073-.46.228-.57.15-.12.32-.18.5-.18h.857c.202 0 .37.02.508.06.134.03.254.1.362.16a1.45 1.45 0 0 1 .315.33 3.13 3.13 0 0 1 .318.52l3.615 6.77.995 1.94.474.95h.008l-.025-1.67-.005-1.66v-7.1c0-.05.013-.1.043-.13s.078-.08.142-.1c.07-.03.16-.05.268-.06.112-.02.254-.03.435-.03a2.41 2.41 0 0 1 .405.03c.112.01.202.03.267.06a.42.42 0 0 1 .138.1c.026.03.043.08.043.13zm10.5-2.96c0 .6-.112 1.16-.34 1.64s-.54.9-.94 1.22c-.4.34-.875.58-1.417.75s-1.13.26-1.754.26c-.44 0-.844-.04-1.22-.1-.375-.08-.706-.17-1.004-.28a4.5 4.5 0 0 1-.736-.33c-.2-.1-.336-.2-.414-.3-.077-.08-.138-.18-.172-.3-.04-.13-.056-.3-.056-.5a2.91 2.91 0 0 1 .02-.36c.013-.1.03-.18.06-.24a.3.3 0 0 1 .1-.13.33.33 0 0 1 .142-.03c.095 0 .228.05.4.17l.664.38c.267.13.594.25.973.37s.823.18 1.323.18c.375 0 .724-.05 1.034-.15a2.39 2.39 0 0 0 .8-.43 1.81 1.81 0 0 0 .521-.69c.12-.26.18-.57.18-.9 0-.37-.082-.7-.25-.96a2.63 2.63 0 0 0-.668-.7c-.276-.2-.594-.38-.947-.55l-1.086-.5a11.71 11.71 0 0 1-1.086-.57c-.348-.2-.663-.46-.94-.74s-.5-.62-.672-1c-.172-.4-.258-.84-.258-1.38s.1-1.03.297-1.46a2.91 2.91 0 0 1 .832-1.08c.353-.28.775-.5 1.262-.66s1.016-.23 1.585-.23c.3 0 .582.03.875.08s.568.12.83.2c.258.1.487.18.7.3.203.1.336.2.4.25s.108.1.125.15.04.08.052.14a1.53 1.53 0 0 1 .03.21 3.29 3.29 0 0 1 .013.31c0 .13-.01.23-.018.33a1.05 1.05 0 0 1-.043.23c-.02.07-.05.12-.086.15s-.082.04-.13.04c-.073 0-.2-.05-.35-.14-.16-.1-.353-.2-.582-.32s-.5-.23-.814-.32c-.314-.1-.663-.15-1.055-.15-.366 0-.68.05-.952.15s-.5.22-.668.4a1.54 1.54 0 0 0-.396.57 1.91 1.91 0 0 0-.13.7c0 .36.087.68.255.94s.392.5.672.7a5.52 5.52 0 0 0 .956.55l1.1.52 1.094.56a4.37 4.37 0 0 1 .956.73 3.34 3.34 0 0 1 .677.99c.172.38.258.84.258 1.35m9.78 2.94a2.39 2.39 0 0 1-.022.32c-.013.1-.034.16-.07.22s-.073.1-.116.13-.095.05-.146.05h-6.28c-.155 0-.302-.06-.444-.16s-.207-.3-.207-.55v-11.68c0-.26.07-.44.207-.55a.8.8 0 0 1 .444-.16h6.207c.056 0 .104.02.147.05.047.02.082.07.108.13s.047.13.064.22a2.05 2.05 0 0 1 .026.35 1.55 1.55 0 0 1-.026.3.92.92 0 0 1-.064.22.27.27 0 0 1-.108.13c-.043.03-.1.04-.147.04h-5.117v4.1h4.4c.056 0 .104.01.147.04s.082.08.112.13c.03.06.052.13.064.22a2.47 2.47 0 0 1 .022.34 2.01 2.01 0 0 1-.022.3.5.5 0 0 1-.064.2c-.03.06-.065.1-.112.12s-.1.04-.147.04h-4.4v4.68h5.2c.05 0 .103.01.146.04s.082.07.116.13c.035.05.056.13.07.22s.022.2.022.34m12.26.5a.23.23 0 0 1-.04.14.28.28 0 0 1-.142.1 2.89 2.89 0 0 1-.267.06c-.112.02-.25.02-.414.02-.172 0-.314 0-.422-.02l-.263-.06c-.068-.02-.116-.06-.142-.1s-.038-.08-.038-.14v-5.8h-5.963v5.8c0 .06-.013.1-.038.14s-.074.08-.143.1-.155.04-.267.06-.25.02-.418.02-.3 0-.417-.02l-.272-.06a.25.25 0 0 1-.142-.1c-.026-.04-.04-.08-.04-.14v-12.56a.23.23 0 0 1 .04-.14c.026-.05.073-.08.142-.1a2.76 2.76 0 0 1 .272-.06l.417-.02.418.02.267.06c.07.02.117.05.143.1.025.04.038.08.038.14v5.24h5.963v-5.24c0-.06.012-.1.038-.14.026-.05.074-.08.142-.1s.156-.04.263-.06l.422-.02.414.02.267.06c.065.02.112.05.142.1.026.04.04.08.04.14zm10.764-.45a2.4 2.4 0 0 1-.021.32c-.013.1-.035.16-.07.22s-.073.1-.116.13-.095.05-.147.05h-6.28c-.155 0-.3-.06-.444-.16-.137-.1-.206-.3-.206-.55v-11.68c0-.26.07-.44.206-.55.143-.1.3-.16.444-.16h6.208a.25.25 0 0 1 .146.05c.048.02.082.07.108.13a1.08 1.08 0 0 1 .065.22 2.06 2.06 0 0 1 .025.35 1.66 1.66 0 0 1-.025.31c-.018.1-.04.17-.065.22a.27.27 0 0 1-.108.13c-.043.03-.1.04-.146.04H140.2v4.1h4.4c.056 0 .103.01.146.04s.082.08.112.13c.03.06.052.13.065.22a2.05 2.05 0 0 1 .021.34 1.69 1.69 0 0 1-.021.31c-.013.1-.035.16-.065.2-.03.06-.064.1-.112.12a.34.34 0 0 1-.146.04h-4.4v4.68h5.2c.052 0 .103.01.147.04s.08.07.116.13a.57.57 0 0 1 .07.22c.014.1.02.2.02.34m12.726.02a.75.75 0 0 1-.069.34.59.59 0 0 1-.177.23c-.073.06-.155.1-.246.13-.1.03-.18.05-.27.05h-.577a2.14 2.14 0 0 1-.474-.06 1.05 1.05 0 0 1-.388-.2c-.125-.1-.245-.24-.366-.4a5.43 5.43 0 0 1-.388-.65l-3.993-7.44-.633-1.2-.6-1.23h-.02l.03 1.48.01 1.5v7.9c0 .05-.013.1-.043.14s-.074.07-.143.1a2.68 2.68 0 0 1-.267.06c-.112.02-.25.03-.422.03s-.3-.01-.422-.03l-.26-.06c-.064-.03-.112-.06-.142-.1-.026-.05-.038-.1-.038-.14v-12.08c0-.26.073-.46.228-.57.15-.12.32-.18.5-.18h.857c.202 0 .37.02.504.06a1.1 1.1 0 0 1 .366.16c.108.08.215.2.315.33s.206.3.318.52l3.615 6.77.995 1.94.474.95h.008l-.026-1.67-.004-1.66v-7.1c0-.05.013-.1.043-.13s.078-.08.142-.1c.07-.03.16-.05.267-.06a2.55 2.55 0 0 1 .436-.03 2.39 2.39 0 0 1 .404.03.84.84 0 0 1 .268.06c.064.03.107.07.137.1s.044.08.044.13z"/></g><path fill="#a82020" d="M50.394 25.192c0 13.92-11.282 25.2-25.197 25.2S0 39.112 0 25.192C0 11.282 11.283 0 25.197 0s25.197 11.282 25.197 25.192"/><path d="M41.796 18.462c0 .76-.624 1.4-1.4 1.4h-27.9a1.4 1.4 0 0 1-1.392-1.39v-4.76c0-.767.625-1.392 1.392-1.392h27.898c.767 0 1.4.625 1.4 1.392zm-9.653 10.16a1.4 1.4 0 0 1-1.392 1.4H12.507a1.4 1.4 0 0 1-1.391-1.4v-4.75a1.39 1.39 0 0 1 1.391-1.39H30.75a1.39 1.39 0 0 1 1.392 1.39zm-10.87 10.17a1.39 1.39 0 0 1-1.391 1.39h-7.375a1.39 1.39 0 0 1-1.392-1.39v-4.75a1.39 1.39 0 0 1 1.392-1.39h7.375a1.39 1.39 0 0 1 1.391 1.39zm137.477-11.2s-11.394.43-20.105.43h-56.18c-8.78 0-20.105-.43-20.105-.43s11.515-.43 20.105-.43h56.18c8.698 0 20.105.43 20.105.43"/></svg>