<?xml version="1.0" encoding="UTF-8"?>
<svg width="445.51" height="450" version="1.1" viewBox="0 0 445.51 450" xml:space="preserve" xmlns="http://www.w3.org/2000/svg">
	<path d="m0 338.35h445.51v111.65h-445.51z" fill="#006fe8" fill-rule="evenodd" stop-color="#000000" stroke-width="4.446"/>
	<g transform="matrix(1.1669 0 0 1.1669 -39.803 -54.613)" fill="#1a1a1a">
		<path d="m67.744 140.81 157.25 157.25 157.25-157.25-76.049-75.989h-162.47zm157.25 182.74-182.74-182.74 94.01-94.01h177.4l94.08 94.007z"/>
		<path d="m253.76 152.97v5.7436h-20.226v87.4h20.226v5.7452h-58.933v-5.7452h19.228v-87.4h-19.228v-5.7436h19.228v-12.236c0-42.702 17.729-60.68 41.704-60.68 9.7409 0 20.976 4.4942 20.976 16.232 0 4.9927-4.9943 8.2407-9.2392 8.2407-6.7421 0-10.239-4.7466-10.239-11.489 0-2.7464 1.9987-2.9956 1.9987-6.2405 0-1.2509-4.245-1.5002-5.996-1.5002-11.984 0-19.725 14.483-19.725 39.454v28.219z"/>
		<path d="m296.29 155.47c0 4.9895-4.045 9.0313-9.0329 9.0313-4.9863 0-9.0297-4.0418-9.0297-9.0313 0-4.9863 4.0434-9.0313 9.0297-9.0313 4.9879 0 9.0329 4.045 9.0329 9.0313"/>
		<g transform="matrix(1.008 0 0 1.008 -1.8165 -4.895)" stroke-width=".94304">
			<path d="m56.27 359.9h42.091v11.056h-29.931v11.767h26.377v11.056h-26.377v21.402h-12.16z"/>
			<path d="m122.14 371.11h-16.82v-11.215h45.802v11.215h-16.821v44.066h-12.162z"/>
			<path d="m157.38 359.9h13.426l14.451 38.932 14.453-38.932h13.11l-22.351 55.676h-10.74z"/>
			<path d="m222.96 398.36c0-3.0002 0.39523-5.7652 1.1842-8.6081l7.8985-29.852h6.3176l-8.3716 31.511c-0.47457 1.6573-0.79047 3.8699-0.79047 6.2383 0 7.1859 4.6604 12.635 14.453 12.635 4.5796 0 8.8461-1.6573 12.32-5.0541 2.843-2.9223 5.4493-7.4224 7.0287-13.503l8.6081-31.827h6.2383l-8.8447 32.933c-1.8953 7.0272-4.8176 12.476-8.686 16.347-4.5017 4.5017-10.346 6.87-17.216 6.87-13.187 0-20.139-7.3446-20.139-17.689"/>
			<path d="m294.75 359.9h6.2383l-6.5542 24.559h31.511l6.5542-24.559h6.3176l-14.846 55.281h-6.3176l6.7128-24.876h-31.511l-6.7128 24.876h-6.2383z"/>
			<path d="m361.09 409.41c9.2399 0 17.216-3.0795 22.822-8.686 4.4224-4.4238 6.9494-10.424 6.9494-17.216 0-5.2128-1.6573-9.3193-4.6589-12.24-3.6319-3.6334-9.4766-5.608-16.821-5.608h-8.2129l-11.767 43.75zm-4.6589-49.515h13.347c9.1606 0 16.742 2.6064 21.56 7.3446 3.9477 3.9492 6.0018 9.1606 6.0018 15.873 0 8.4494-3.0795 15.873-8.6874 21.56-6.632 6.6335-16.584 10.504-28.35 10.504h-18.716z"/>
		</g>
	</g>
</svg>
