<svg xmlns="http://www.w3.org/2000/svg" xmlns:sodipodi="http://sodipodi.sourceforge.net/DTD/sodipodi-0.dtd" xmlns:inkscape="http://www.inkscape.org/namespaces/inkscape" width="655.331" height="285.749" sodipodi:docname="genius family.svg" inkscape:version="0.92.4 (5da689c313, 2019-01-14)"><sodipodi:namedview pagecolor="#ffffff" bordercolor="#666666" borderopacity="1" objecttolerance="10" gridtolerance="10" guidetolerance="10" inkscape:pageopacity="0" inkscape:pageshadow="2" inkscape:window-width="1920" inkscape:window-height="1013" showgrid="false" showguides="true" inkscape:guide-bbox="true" inkscape:zoom="1" inkscape:cx="193.386" inkscape:cy="294.01" inkscape:window-x="0" inkscape:window-y="0" inkscape:window-maximized="1" inkscape:current-layer="svg2" inkscape:snap-smooth-nodes="true" inkscape:snap-object-midpoints="true" inkscape:snap-global="true" fit-margin-top="0" fit-margin-left="0" fit-margin-right="0" fit-margin-bottom="0"/><path inkscape:label="CenturyGothic-SemiBold (82.5)" inkscape:connector-curvature="0" d="M333.373 181.262c-.342.005-.679.02-1.01.047-4.21.348-8 1.512-10.328 3.41-2.292 1.862-3.635 4.404-4.03 7.627-.214 1.396-.338 5.925-.374 13.588h-5.211v12.46h5.21v45.977h14.663v-45.976h9.293v-12.461h-9.293l.055-7.305c0-1.683.286-2.793.859-3.33.788-.716 2.041-1.074 3.76-1.074 1.36 0 3.096.305 5.209.914l6.201-9.7c-3.65-1.895-9.878-4.25-15.004-4.177zm204.557.61c-2.578 0-4.782.913-6.608 2.74-1.826 1.826-2.738 4.027-2.738 6.605 0 2.685.912 4.977 2.738 6.875 1.862 1.862 4.101 2.793 6.715 2.793 2.542 0 4.727-.912 6.553-2.739 1.826-1.861 2.738-4.1 2.738-6.714 0-2.65-.93-4.906-2.793-6.768-1.826-1.862-4.027-2.793-6.605-2.793zm23.32 1.503v80.996h14.664v-80.996zm79.043 7.275l-23.773 51.97-15.2-36.686h-14.986l22.236 54.087-12.03 25.727h15.146l43.646-95.098zm-264.008 13.78c-7.627 0-14.108 2.883-19.443 8.648-5.335 5.765-8.002 13.158-8.002 22.182 0 8.7 2.757 15.989 8.271 21.861 5.515 5.837 12.048 8.754 19.604 8.754 3.366 0 6.481-.59 9.346-1.771 2.9-1.218 5.783-3.187 8.648-5.909v6.176h14.61v-58.437h-14.61v6.445c-2.614-2.65-5.462-4.636-8.541-5.961-3.08-1.325-6.374-1.988-9.883-1.988zm82.936 0c-3.617 0-6.964.68-10.043 2.04-3.044 1.361-5.82 3.421-8.326 6.178v-6.714h-14.717v58.437h14.717v-25.996c0-5.622.484-9.74 1.45-12.354 1.003-2.613 2.488-4.636 4.458-6.068 2.005-1.468 4.225-2.203 6.66-2.203 2.184 0 4.046.573 5.586 1.719 1.54 1.146 2.685 2.9 3.437 5.263.788 2.328 1.182 6.107 1.182 11.334v28.305h14.771V238c0-5.586.483-9.632 1.45-12.139.966-2.542 2.435-4.53 4.404-5.963 2.005-1.432 4.261-2.148 6.768-2.148 3.294 0 5.765 1.182 7.412 3.545 1.647 2.327 2.47 6.803 2.47 13.428v29.648h14.772v-34.267c0-7.019-.7-12.084-2.096-15.2-1.36-3.115-3.616-5.64-6.767-7.574-3.151-1.934-6.804-2.9-10.957-2.9-4.01 0-7.716.895-11.118 2.685-3.366 1.79-6.213 4.405-8.54 7.842-1.791-3.437-4.154-6.051-7.09-7.842-2.937-1.79-6.231-2.685-9.883-2.685zm71.35 1.504v58.437h14.716v-58.437zm-151.278 12.03c4.655 0 8.505 1.576 11.549 4.727 3.043 3.151 4.564 7.27 4.564 12.354 0 5.192-1.52 9.4-4.564 12.623-3.044 3.187-6.875 4.78-11.494 4.78-4.476 0-8.255-1.629-11.334-4.887-3.044-3.259-4.565-7.413-4.565-12.461 0-5.013 1.504-9.114 4.512-12.301 3.008-3.223 6.784-4.834 11.332-4.834z" style="line-height:1.25;-inkscape-font-specification:'Century Gothic Semi-Bold'" font-weight="600" font-size="110" font-family="Century Gothic" letter-spacing="0" word-spacing="0" fill="#e1003b"/><path inkscape:connector-curvature="0" d="M92.379 0C41.359 0 0 41.36 0 92.379c0 51.02 41.36 92.378 92.379 92.379 51.02 0 92.38-41.359 92.38-92.38a92.371 92.371 0 0 0-.34-6.798h-73.194l-18.569 22.592h62.936c-7.106 29.846-33.206 50.863-63.213 50.9-35.979 0-65.145-29.86-65.145-66.693s24.2-75.38 68.428-81.356c26.873-3.63 58.483 11.012 73.46 39.59h6.94C159.879 16.66 127.148.041 92.38 0zm305.324 49.041a13.875 13.875 0 0 0-13.875 13.875 13.875 13.875 0 0 0 13.875 13.875 13.875 13.875 0 0 0 13.875-13.875 13.875 13.875 0 0 0-13.875-13.875zM233.877 82.338c-12.608 0-23.106 4.503-31.494 13.51-8.336 8.952-12.504 20.224-12.504 33.816 0 13.264 4.194 24.317 12.582 33.16 8.388 8.788 19.25 13.182 32.588 13.182 8.596 0 15.071-2.35 22.273-4.748 6.007-2 9.755-3.645 17.24-7.967l-10.931-14.494c-5.731 5.84-20.767 7.558-28.738 7.558-6.67 0-12.164-1.856-16.489-5.568-4.272-3.766-6.904-6.606-7.894-12.937h68.539l.078-6.467c0-14.738-4.196-26.583-12.584-35.535-8.388-9.007-19.276-13.51-32.666-13.51zm96.24 0c-22.73-.123-38.98 14.537-38.98 14.537v75.465h22v-65.477c17.322-12.003 34.22 3.221 34.22 13.436v52.04h22v-60.88c0-15.781-16.86-29-39.24-29.121zm222.324 1.117c-9.399 0-17.13 2.461-23.195 7.383-6.002 4.87-8.004 11.068-8.004 17.97 0 13.89 7.004 19.298 23.707 26.286 16.704 6.987 17.977 9.006 18.5 13.693.21 1.88-1.539 3.617-3.002 4.817-2.076 1.702-4.86 2.641-7.539 2.835-3.858.28-7.804-.902-11.336-2.478-4.997-2.23-10.41-6.6-13.32-9.596l-14.066 12.414c8.61 9.953 22.55 18.496 36.982 18.496 10.855 0 19.496-2.596 25.924-7.787 6.488-5.19 9.734-11.663 9.734-19.422 0-5.832-1.79-10.915-5.367-15.25-3.578-4.334-8.526-8.326-19.988-12.136-5.638-1.874-12.113-4.15-16.305-8.653-.817-.878-1.453-2.091-1.457-3.29-.005-1.755.794-3.656 2.102-4.825 1.84-1.646 4.61-2.242 7.078-2.18 5.944.15 11.212 1.253 16.763 6.104l14.176-12.508s-7.6-5.606-13.285-8.101c-5.654-2.482-11.674-3.772-18.102-3.772zm-165.738 2.549v86.336h22V86.004zm39.934 0v60.88c0 15.782 16.86 29.001 39.24 29.122 22.73.123 38.98-14.537 38.98-14.537V86.004h-22v65.476c-17.322 12.003-34.22-3.22-34.22-13.435V86.004zm-191.479 15.662c5.04-.024 10.517 1.429 14.38 4.666 4.4 3.689 6.664 9.857 8.097 15.205h-46.186c1.6-5.968 3.8-11.064 8.08-14.63 4.221-3.519 10.134-5.214 15.63-5.241z" inkscape:label="Genius" fill="#0f4175"/><path d="M49.845 50.613c35.88-56.157 95.063-23.758 107.218 0h-32.875c-17.071-22.67-50.46-20.31-73.01 0" inkscape:connector-curvature="0" sodipodi:nodetypes="cccc" inkscape:label="Deko" fill="#e1003b" fill-opacity=".984"/></svg>