<svg xmlns="http://www.w3.org/2000/svg" xmlns:sodipodi="http://sodipodi.sourceforge.net/DTD/sodipodi-0.dtd" xmlns:inkscape="http://www.inkscape.org/namespaces/inkscape" width="711.502" height="288.149" sodipodi:docname="genius plus.svg" inkscape:version="0.92.4 (5da689c313, 2019-01-14)"><sodipodi:namedview pagecolor="#ffffff" bordercolor="#666666" borderopacity="1" objecttolerance="10" gridtolerance="10" guidetolerance="10" inkscape:pageopacity="0" inkscape:pageshadow="2" inkscape:window-width="1920" inkscape:window-height="1013" showgrid="false" showguides="true" inkscape:guide-bbox="true" inkscape:zoom="1.414" inkscape:cx="392.285" inkscape:cy="165.678" inkscape:window-x="0" inkscape:window-y="0" inkscape:window-maximized="1" inkscape:current-layer="svg44" inkscape:snap-smooth-nodes="true" inkscape:snap-object-midpoints="true" inkscape:snap-global="true" fit-margin-top="0" fit-margin-left="0" fit-margin-right="0" fit-margin-bottom="0"/><g aria-label="plus TV" style="line-height:1.25;-inkscape-font-specification:'Century Schoolbook L'" inkscape:label="CenturyGothic-SemiBold (82.5)" font-weight="600" font-size="110" font-family="Century Gothic" letter-spacing="0" word-spacing="0"><path style="-inkscape-font-specification:'Century Gothic Semi-Bold'" d="M456.262 185.775v80.996h14.662v-80.996zm-36.528 21.055c-3.509 0-6.803.663-9.882 1.988-3.08 1.325-5.944 3.312-8.594 5.961v-6.445H386.7v79.814h14.557v-27.552c2.864 2.721 5.746 4.69 8.646 5.908 2.9 1.182 6.035 1.771 9.4 1.771 7.556 0 14.09-2.917 19.604-8.754 5.515-5.872 8.272-13.16 8.272-21.86 0-9.024-2.667-16.418-8.002-22.182-5.336-5.765-11.817-8.649-19.444-8.649zm146.51 0c-5.55 0-10.114 1.647-13.695 4.941-3.545 3.259-5.319 7.198-5.319 11.817 0 7.161 4.727 13.124 14.18 17.887l4.942 2.47c4.26 2.149 6.392 4.35 6.392 6.606 0 1.217-.592 2.291-1.773 3.222-1.182.931-2.739 1.397-4.672 1.397-1.79 0-3.85-.609-6.178-1.826a21.368 21.368 0 0 1-6.016-4.887l-9.023 9.828c5.085 6.66 11.888 9.99 20.41 9.99 6.41 0 11.513-1.735 15.309-5.209 3.831-3.473 5.746-7.806 5.746-12.998 0-3.903-1.055-7.304-3.168-10.205-2.113-2.9-5.999-5.748-11.656-8.54l-5.371-2.686c-2.328-1.146-3.796-2.041-4.405-2.686-.573-.68-.86-1.413-.86-2.201 0-1.038.466-1.898 1.397-2.578.931-.716 2.22-1.074 3.868-1.074 3.007 0 6.356 1.826 10.044 5.478l9.077-9.078c-2.328-3.115-5.174-5.495-8.54-7.143-3.33-1.682-6.893-2.525-10.689-2.525zm-82.152 1.504v24.332c0 9.346.573 15.791 1.719 19.336 1.61 5.12 4.385 9.112 8.324 11.977 3.974 2.864 9.166 4.296 15.576 4.296 5.908 0 10.778-1.217 14.61-3.652 3.83-2.47 6.731-5.997 8.7-10.58 1.612-3.76 2.418-10.742 2.418-20.947v-24.762h-14.716v28.629c0 5.514-.306 9.112-.914 10.795-.824 2.256-2.094 3.974-3.813 5.156-1.683 1.146-3.743 1.719-6.178 1.719s-4.492-.59-6.175-1.772c-1.648-1.181-2.848-2.828-3.6-4.941-.752-2.149-1.127-5.963-1.127-11.441v-28.145zm-67.42 12.031c4.583 0 8.379 1.612 11.387 4.834 3.007 3.187 4.511 7.288 4.511 12.301 0 5.049-1.54 9.202-4.619 12.46-3.043 3.26-6.803 4.888-11.28 4.888-4.618 0-8.45-1.593-11.493-4.78-3.044-3.222-4.565-7.43-4.565-12.623 0-5.084 1.521-9.202 4.565-12.353 3.043-3.151 6.875-4.727 11.494-4.727z" inkscape:connector-curvature="0" inkscape:label="plus" fill="#009ccb"/><path style="-inkscape-font-specification:'Century Gothic Semi-Bold'" d="M591.494 187.754v12.285h23.012v66.732h15.254V200.04h25.595l-4.35-12.285zm102.932 0l-21.856 60.904-11.386-32.156h-15.47l17.81 50.27h17.86l30.118-79.018z" inkscape:connector-curvature="0" inkscape:label="TV" fill="#0f4175"/></g><path inkscape:connector-curvature="0" d="M92.379 0C41.359 0 0 41.36 0 92.379c0 51.02 41.36 92.378 92.379 92.379 51.02 0 92.38-41.359 92.38-92.38a92.371 92.371 0 0 0-.34-6.798h-73.194l-18.569 22.592h62.936c-7.106 29.846-33.206 50.863-63.213 50.9-35.979 0-65.145-29.86-65.145-66.693s24.2-75.38 68.428-81.356c26.873-3.63 58.483 11.012 73.46 39.59h6.94C159.879 16.66 127.148.041 92.38 0zm305.324 49.041a13.875 13.875 0 0 0-13.875 13.875 13.875 13.875 0 0 0 13.875 13.875 13.875 13.875 0 0 0 13.875-13.875 13.875 13.875 0 0 0-13.875-13.875zM233.877 82.338c-12.608 0-23.106 4.503-31.494 13.51-8.336 8.952-12.504 20.224-12.504 33.816 0 13.264 4.194 24.317 12.582 33.16 8.388 8.788 19.25 13.182 32.588 13.182 8.596 0 15.071-2.35 22.273-4.748 6.007-2 9.755-3.645 17.24-7.967l-10.931-14.494c-5.731 5.84-20.767 7.558-28.738 7.558-6.67 0-12.164-1.856-16.489-5.568-4.272-3.766-6.904-6.606-7.894-12.937h68.539l.078-6.467c0-14.738-4.196-26.583-12.584-35.535-8.388-9.007-19.276-13.51-32.666-13.51zm96.24 0c-22.73-.123-38.98 14.537-38.98 14.537v75.465h22v-65.477c17.322-12.003 34.22 3.221 34.22 13.436v52.04h22v-60.88c0-15.781-16.86-29-39.24-29.121zm222.324 1.117c-9.399 0-17.13 2.461-23.195 7.383-6.002 4.87-8.004 11.068-8.004 17.97 0 13.89 7.004 19.298 23.707 26.286 16.704 6.987 17.977 9.006 18.5 13.693.21 1.88-1.539 3.617-3.002 4.817-2.076 1.702-4.86 2.641-7.539 2.835-3.858.28-7.804-.902-11.336-2.478-4.997-2.23-10.41-6.6-13.32-9.596l-14.066 12.414c8.61 9.953 22.55 18.496 36.982 18.496 10.855 0 19.496-2.596 25.924-7.787 6.488-5.19 9.734-11.663 9.734-19.422 0-5.832-1.79-10.915-5.367-15.25-3.578-4.334-8.526-8.326-19.988-12.136-5.638-1.874-12.113-4.15-16.305-8.653-.817-.878-1.453-2.091-1.457-3.29-.005-1.755.794-3.656 2.102-4.825 1.84-1.646 4.61-2.242 7.078-2.18 5.944.15 11.212 1.253 16.763 6.104l14.176-12.508s-7.6-5.606-13.285-8.101c-5.654-2.482-11.674-3.772-18.102-3.772zm-165.738 2.549v86.336h22V86.004zm39.934 0v60.88c0 15.782 16.86 29.001 39.24 29.122 22.73.123 38.98-14.537 38.98-14.537V86.004h-22v65.476c-17.322 12.003-34.22-3.22-34.22-13.435V86.004zm-191.479 15.662c5.04-.024 10.517 1.429 14.38 4.666 4.4 3.689 6.664 9.857 8.097 15.205h-46.186c1.6-5.968 3.8-11.064 8.08-14.63 4.221-3.519 10.134-5.214 15.63-5.241z" inkscape:label="Genius" fill="#0f4175"/><path d="M49.845 50.613c35.88-56.157 95.063-23.758 107.218 0h-32.875c-17.071-22.67-50.46-20.31-73.01 0" inkscape:connector-curvature="0" sodipodi:nodetypes="cccc" inkscape:label="Deko" fill="#009ccb"/></svg>