<?xml version="1.0" encoding="UTF-8"?>
<svg width="800" height="338.81" version="1.1" xmlns="http://www.w3.org/2000/svg">
	<g fill="#9d9d9c">
		<path d="m388.03 254.19c-0.79399 0.34028-1.4746 0.4537-2.0417 0.4537-0.68056-0.11342-1.4746-0.90741-3.0625-0.90741-7.9399 0-15.313 2.0417-21.324 4.0834-0.45371 0.22685-0.79399 0.34028-1.0208 1.0208-1.4746 4.1968-3.0625 7.9399-4.6505 12.137 0 0.22685 0.11343 0.34028 0.34028 0.34028 3.8565-1.3611 8.1667-3.4028 12.477-3.4028 2.0417 0 4.1968 0.56714 6.3519 1.7014 0.90742 0.56713 1.1343 1.9282 1.1343 2.7222 0 1.0208-3.4028 1.7014-4.0834 1.7014-1.0208 0-2.0417-0.22685-2.8357-0.22685-5.2176 0-10.095 2.7222-14.519 3.8565-0.68056 0.22685-2.1551 0.56713-2.4954 1.3611-3.6297 8.2802-6.4653 14.632-6.4653 19.169 0 1.3611 1.1343 2.9491 2.1551 2.9491 1.4746 0 4.5371-0.56714 6.8056-1.588 2.4954-1.1343 4.4236-1.8148 5.7848-2.382 4.5371-2.0417 8.2802-6.2385 13.384-6.2385 0.34028 0 1.1343 0.11343 1.4746 0.34028 0.45371 0.22686 2.2685 1.588 2.2685 2.6088 0 0.56714-0.11343 1.0208-0.45371 1.1343-0.56713 0.22686-1.1343 0.56714-1.8148 1.1343-0.90741 0.90742-1.8148 1.4746-2.2685 1.7014-7.713 4.1968-15.88 8.7339-27.449 8.7339-2.382 0-4.8774-1.1343-6.4653-3.5162-0.56714-0.90741-0.68056-3.2894-0.68056-4.4236 0-7.0325 3.176-13.158 5.3311-19.509-0.22685-0.22686-1.1343-1.2477-1.1343-2.7222 0-0.34028 0-0.79399 0.11343-1.0208 0.22685-0.45371 0.56713-0.56714 2.4954-1.0208 0.68056-0.22686 0.79399-0.22686 1.2477-1.2477 2.382-5.3311 3.5162-8.1667 4.1968-10.889 0-0.34028-0.11342-0.45371-0.34028-0.45371-0.45371 0-1.9283 0.68056-3.176 0.68056-0.45371 0-1.1343-0.11343-1.588-0.34028-1.1343-0.56714-2.1551-3.2894-2.1551-4.3102 0-0.45371 0.11343-0.56714 0.45371-0.56714 5.4445-1.3611 10.322-3.4028 15.313-5.3311 3.4028-1.2477 14.519-4.4236 22.912-4.4236 0.79398 0 2.382 0.22685 2.8357 0.56713 2.0417 1.0208 4.3102 2.7222 4.1968 4.3102-0.11342 0.90742-0.4537 1.4746-1.2477 1.8148z"/>
		<path d="m395.18 301.94c-1.8148 1.588-4.8774 4.1968-8.7339 4.1968-2.4954 0-5.4445-3.6297-6.3519-6.8056-0.34029-1.2477-0.45371-2.382-0.45371-3.6297 0-2.1551 0.34028-4.0834 1.3611-7.0325 0.56713-1.588 0.90742-3.0625 1.4746-4.3102 2.6088-6.3519 5.1042-12.477 8.1667-19.169 0.79399-1.8148 2.6088-2.382 4.1968-2.382 0.79399 0 1.9283 0.22685 2.4954 0.68056 0.4537 0.34028 0.68056 0.56714 0.68056 1.3611 0 4.5371-3.5162 6.6922-5.4445 11.002-1.4746 3.176-3.8565 9.0742-4.9908 12.25-1.4746 3.8565-2.0417 7.1459-2.0417 8.507 0 0.79399 0.11342 2.7222 1.4746 2.7222 1.8148 0 2.8357-0.56714 6.125-2.9491 2.0417-1.4746 2.6088-1.9283 3.9699-1.9283 0.68056 0 1.588 0.22685 2.1551 0.56713 0.45371 0.45371 0.45371 0.90742 0.45371 1.2477 0 0.90741-0.45371 1.4746-1.3611 2.382zm11.796-53.764c0 0.56713-0.11342 1.1343-0.4537 1.588-1.4746 1.9282-3.5162 4.1968-5.4445 4.1968-1.7014 0-2.9491-0.90741-3.4028-1.7014-0.45371-0.90742-0.56714-2.0417-0.56714-2.9491 0-1.2477 0.34028-2.7222 1.1343-3.6297 0.79399-1.0208 2.382-1.4746 4.1968-1.4746 1.3611 0 2.9491 0.4537 3.5162 1.1343 0.90742 0.90741 1.0208 1.9282 1.0208 2.8357z"/>
		<path d="m415.48 266.1c0.68056-1.0208 0.56714-1.2477 1.3611-1.9283 0.68057-0.56713 1.7014-0.90741 2.9491-0.90741 1.9283 0 3.0625 0.56713 3.4028 1.2477 0.11343 0.45371 0.45371 1.1343 0.45371 1.588 0 0.90742-0.45371 2.4954-1.8148 4.0834-0.90742 1.0208-3.2894 3.7431-5.4445 7.713-1.1343 2.2685-3.176 6.3519-6.0116 13.498-0.56713 1.588-1.7014 5.7848-1.7014 6.0116 0 0.34028 0 0.90741 0.22685 0.90741 0.45371 0 0.79399-0.22685 1.4746-1.1343 11.456-16.56 17.695-20.077 19.509-24.046 1.4746-3.2894 1.8148-3.5162 2.9491-3.5162 1.2477 0 1.7014 0.79398 3.0625 0.90741 0.90742 0.11343 1.7014 1.2477 1.7014 2.382 0 0.34028-0.45371 1.588-0.79399 2.2685-3.0625 5.1042-4.6505 8.3936-5.8982 12.817-0.45371 1.7014-1.0208 6.0116-1.0208 7.713 0 1.588 0.22685 2.1551 0.34028 3.0625 0.34028 1.9283 2.6088 3.2894 3.2894 3.7431 0.68056 0.56713 1.2477 1.1343 1.2477 2.0417 0 0.56714-0.56714 2.0417-2.1551 2.0417-0.68056 0-2.7222 0.11342-4.3102-0.90742-1.8148-1.2477-2.2685-1.7014-3.2894-3.2894-1.0208-1.3611-1.4746-3.176-1.4746-5.3311 0-5.1042 0.79399-6.5788 0.79399-6.8056 0-0.22685-0.11343-0.34028-0.22685-0.34028-0.11343 0-0.22686 0-0.45371 0.34028-3.5162 4.6505-5.6714 7.5996-7.8265 10.549-1.3611 1.8148-1.8148 2.2685-2.9491 3.5162-1.2477 1.1343-3.0625 1.2477-3.7431 1.2477-1.0208 0-4.8774-1.8148-6.0116-3.6297-0.34028-0.4537-0.68056-1.9282-0.68056-2.8357 0-2.7222 0.4537-3.4028 1.0208-5.2176 0.79399-2.382 2.7222-8.3936 4.1968-11.796 2.1551-6.1251 4.0834-10.208 7.8265-15.993z"/>
		<path d="m470.04 244.21c0 1.7014-0.56713 1.9282-1.588 3.5162-6.0116 8.8473-10.776 19.169-11.343 20.303-0.45371 0.90741-1.9283 3.9699-1.9283 5.1042 0 0.34028 0.11343 0.45371 0.45371 0.45371 5.1042 0 10.435-4.1968 16.447-4.1968 1.8148 0 2.8357 1.1343 2.8357 1.588 0 1.2477-1.1343 1.7014-2.0417 2.1551l-1.1343 0.45371c-3.5162 1.3611-3.0625 1.3611-7.9399 3.2894-1.8148 0.79399-3.5162 1.2477-5.1042 1.9282-1.9282 0.79399-3.9699 1.0208-5.4445 2.382-0.45371 0.34028-0.56713 0.68056-0.79399 1.1343-3.8565 11.343-8.1667 22.685-9.1876 35.616-0.11342 1.0208-0.90741 1.9283-2.382 2.4954-0.90742 0.34028-2.2685 0.90742-2.6088 0.90742-0.90742 0.11342-1.588-0.22686-2.1551-1.0208-0.45371-0.68056-0.56714-2.0417-0.56714-3.4028 0-3.2894 1.4746-6.2385 2.2685-9.1876 0.11343-0.56714 0.68056-2.382 0.79399-3.4028 0.79399-4.5371 6.6922-20.757 6.6922-22.912 0-0.22685 0-0.34028-0.11343-0.56713-1.0208-1.8148-3.176-2.9491-3.8565-4.9908-0.22686-0.68057-0.45371-1.4746-0.45371-2.0417 0-0.90741 0.68056-1.7014 1.1343-1.7014 1.2477 0 3.176 1.2477 4.8774 1.2477 0.34028 0 1.4745-0.22685 1.9282-1.2477 4.9908-12.137 8.3936-20.417 13.498-29.037 0.90742-1.7014 3.176-1.9283 4.3102-1.9283s2.1551 0.45371 2.8357 1.4746c0.34028 0.45371 0.56713 1.0208 0.56713 1.588z"/>
		<path d="m502.48 269.05c0.45371 0 1.7014 0.11343 2.382 1.1343 0.11342 0.22685 0.11342 0.34028 0.11342 0.56713 0 0.34028-0.11342 0.68057-0.34028 0.90742-3.7431 5.2176-8.1667 11.683-9.8681 18.262-0.56713 2.382-1.1343 4.9908-1.1343 7.713 0 2.2685 0.45371 4.5371 1.8148 6.4653 0.11343 0.22685 0.11343 0.34028 0.11343 0.56713s-0.34028 1.0208-1.8148 1.2477c-0.45371 0.11342-1.1343 0.34028-1.588 0.34028-1.2477 0-3.176-0.56714-3.6297-1.7014-1.1343-2.4954-1.4746-4.9908-1.4746-7.3728 0-2.6088 0.34028-4.0834 0.34028-4.3102 0-0.34028 0-0.45371-0.34028-0.45371s-1.1343 0.56714-2.0417 1.588l-4.5371 4.3102c-4.4236 4.1968-7.1459 5.4445-10.095 6.4653-0.45371 0.22685-1.0208 0.34028-1.3611 0.34028-0.90741 0-1.9282-0.56714-5.8982-3.8565-0.4537-0.34028-1.8148-1.8148-1.8148-5.1042 0-2.8357 0.90742-6.4653 5.1042-12.817 4.9908-7.5996 9.6413-11.002 12.137-12.931 4.1968-3.0625 8.507-5.3311 13.498-6.8056 0.56713-0.22686 1.2477-0.22686 1.8148-0.22686 1.9282 0 3.6297 0.90742 5.1042 2.4954 0.4537 0.4537 1.1343 1.2477 1.2477 1.7014 0.56714 0.68056 1.2477 1.4746 2.2685 1.4746zm-10.095 0.34028c-7.9399 4.3102-14.178 9.0742-19.056 14.972-3.5162 4.4236-6.3519 9.5279-6.3519 12.023 0 1.0208 0.34028 2.382 1.8148 2.382 0.68056 0 2.6088-0.90741 4.1968-2.382 7.8265-7.4862 16.787-13.271 21.097-21.438 0.56713-1.1343 1.4746-2.382 2.4954-3.2894 0.22686-0.22685 0.45371-0.79399 0.45371-1.2477 0-0.56713-0.45371-1.7014-1.9283-1.7014-0.34028-0.22685-1.588 0-2.7222 0.68056z"/>
		<path d="m565.43 274.15c1.4746-2.7222 2.4954-4.4236 2.4954-6.919 0-0.56713-0.68056-1.3611-1.2477-1.588-0.68056-0.22685-2.2685-0.56713-3.176-0.56713-0.45371 0-1.1343 0.22685-1.9283 0.45371-0.79399 0.22685-1.1343 0.68056-2.382 2.0417-6.1251 6.8056-12.364 14.292-19.169 24.047-0.45371 0.56713-0.45371 0.68056-0.56714 0.68056-0.11342 0-0.11342-0.11343-0.11342-0.22686 0-0.11342 0.11342-0.22685 0.79399-1.7014 6.3519-13.725 13.044-31.306 20.644-42.081 0.68056-0.90742 0.79399-1.3611 1.588-2.382 2.1551-2.7222 3.9699-4.1968 3.9699-6.3519 0-1.1343-0.11343-1.588-0.79399-2.1551-0.68056-0.68056-1.588-1.2477-2.2685-1.3611-0.56713-0.11343-0.79398-0.22685-1.7014-0.22685-0.90741 0-1.8148 0.34028-2.382 1.3611-4.1968 8.507-8.8473 16.447-12.477 23.706-3.7431 7.5996-7.2593 14.632-10.095 21.211-4.6505 7.8264-8.507 8.9607-13.498 12.59-5.2176 3.7431-9.6413 5.2176-13.498 5.2176-0.79399 0-1.4746-0.68056-1.4746-1.8148 0-2.1551 1.9282-7.8265 4.8774-13.158 2.8357-5.2176 6.8056-10.322 10.322-13.952 0.68056-0.68056 0.79399-0.90742 1.3611-0.90742 0.4537 0 0.68056 0.56714 0.68056 0.90742 0 1.3611-1.8148 3.4028-1.8148 5.2176 0 0.68056 0.22685 1.3611 0.90741 1.9282l2.1551 1.588c0.45371 0.45371 1.1343 0.56713 1.7014 0.56713 1.1343 0 1.588-0.56713 1.588-1.2477 0-3.0625 2.6088-7.0325 2.8357-8.1667 0.11342-0.34028 0.22685-0.90741 0.22685-1.8148 0-0.68056-0.34028-0.90741-0.68056-1.3611-2.1551-2.2685-5.8982-3.6297-8.8473-3.6297-0.68056 0-0.79399 0-1.3611 0.22685-7.1459 3.6297-13.158 14.178-17.581 23.139-0.56714 1.2477-1.1343 3.0625-1.2477 3.7431-0.56714 2.1551-1.1343 4.0834-1.1343 6.125 0 1.3611 0.34028 2.7222 1.0208 4.0834 1.7014 2.8357 6.4653 4.5371 9.9816 4.1968 3.5162-0.34029 6.3519-2.4954 11.116-6.3519 2.4954-2.1551 5.4445-4.3102 7.9399-5.8982-0.68056 2.0417-1.2477 3.9699-1.588 5.8982-0.34028 1.4746-0.79398 1.3611-0.79398 2.382 0 0.22686 0.11342 0.68057 0.34028 0.90742 1.3611 1.3611 3.9699 2.382 4.4236 2.382 1.1343 0 2.382-0.56713 3.176-1.1343 0.45371-0.22685 0.45371-0.34028 0.90742-0.90741 4.9908-6.0116 10.776-15.993 16.56-22.685 0.56714-0.68056 0.90742-0.90742 1.1343-0.90742 0.11343 0 0.11343 0.11343 0.11343 0.22686 0 0.22685-0.11343 0.4537-0.34028 1.0208-1.0208 2.4954-2.0417 5.1042-3.176 8.8473s-1.588 7.0325-1.588 9.6413c0 4.1968 1.3611 7.0325 4.5371 8.1667 1.3611 0.56714 1.9282 0.56714 2.4954 0.56714 1.1343 0 1.9283-0.45371 2.9491-0.68056 0.56713-0.22686 1.3611-0.56714 1.588-1.2477 0.11343-0.45371 0.45371-0.79399 0.45371-1.1343 0-0.22685-0.22685-0.56713-0.56713-0.68056-0.68056-0.22686-1.588-0.22686-2.1551-0.56714-1.2477-0.68056-2.1551-1.588-2.1551-5.6713 0-5.8982 2.1551-12.931 4.4236-18.489 0.90742-1.4746 1.2477-2.9491 2.4954-5.1042z"/>
		<path d="m688.39 275.06c0.4537-0.68056 0.79398-1.9283 0.79398-2.2685 0-1.0208-0.79398-2.2685-1.7014-2.382-1.3611-0.11342-1.8148-0.90741-3.0625-0.90741-1.1343 0-1.4746 0.22685-2.9491 3.5162-1.8148 4.0834-8.1667 7.4862-19.509 24.047-0.56714 0.90741-0.90742 1.1343-1.4746 1.1343-0.22686 0-0.22686-0.56714-0.22686-0.90742 0-0.22685 1.1343-4.5371 1.7014-6.0116 2.8357-7.0325 4.8774-11.229 6.0116-13.498 2.1551-3.9699 4.5371-6.6922 5.4445-7.713 1.4746-1.588 1.8148-3.0625 1.8148-4.0834 0-0.4537-0.22685-1.1343-0.4537-1.588-0.34028-0.79399-1.4746-1.2477-3.4028-1.2477-1.2477 0-2.2685 0.22685-2.9491 0.90742-0.79399 0.68056-0.68056 0.90741-1.3611 1.9282-3.7431 5.7848-5.6714 9.9816-8.1667 15.88-0.22685 0.56714-0.56713 1.3611-0.90742 2.0417-4.9908 9.5279-9.9816 11.229-15.086 14.065-3.7431 1.588-5.7848 2.0417-7.1459 2.0417-0.79399 0-1.7014-0.22686-2.6088-0.68056-0.79399-0.45371-2.0417-2.2685-2.0417-3.6297 0-0.22685 0.11342-0.4537 0.4537-0.68056 7.1459-4.0834 13.838-11.57 19.623-18.262 1.1343-1.3611 1.8148-2.382 2.7222-4.0834 1.0208-2.0417 1.9282-3.9699 1.9282-6.2385 0-3.4028-1.8148-4.9908-2.7222-5.3311-1.7014-0.56714-2.8357-0.90742-5.1042-0.90742-4.1968 0-7.5996 2.382-9.0742 3.8565-6.4653 7.0325-12.137 14.632-14.519 23.366-0.34028 1.2477-0.45371 2.0417-0.45371 2.8357 0 0.34028 0 0.79399 0.11343 1.3611-6.919 3.6297-13.384 7.4862-16.787 10.322-0.22686 0-0.34028-0.11342-0.34028-0.34028 0-0.90741 4.4236-12.023 13.158-28.016 0.56713-1.1343 0.68056-2.0417 0.68056-3.4028 0-1.0208-0.11343-2.0417-0.90742-3.0625-1.8148-2.382-5.1042-3.7431-8.7339-3.7431-0.34028 0-7.2593 0.79399-16.107 11.002-2.9491 3.4028-7.2593 8.9607-8.2802 11.229-0.79399 1.9283-2.4954 4.3102-2.4954 8.0533 0 1.8148 0.11343 1.9283 0.56714 2.7222 0.79399 1.0208 3.2894 2.9491 5.1042 3.7431 0.79399 0.34028 1.7014 0.56714 2.4954 0.56714 4.1968 0 7.8265-4.1968 11.683-7.8265 0.11343-0.11343 0.11343-0.11343 0.22686-0.11343 0.11342 0 0.11342 0.11343 0.11342 0.22686v0.22685c-9.1876 21.778-10.322 19.396-16.787 29.491-4.1968 6.6922-5.7848 9.5279-5.7848 11.683 0 0.56714 0.11342 1.2477 0.22685 1.9283 0.45371 1.588 2.8357 2.4954 4.4236 2.4954 3.176 0 4.3102-0.22685 6.125-3.6297 1.0208-1.9283 5.3311-12.137 8.1667-19.169 3.176-7.713 14.859-13.725 24.16-18.262 0.90742 2.4954 1.8148 4.0834 4.0834 5.6713 2.1551 1.588 4.0834 2.6088 7.2593 2.7222 1.1343 0 3.7431-0.22685 5.5579-1.2477 6.2385-3.5162 9.5279-6.2385 11.796-8.6204-0.22685 0.68056-0.34028 1.3611-0.34028 2.4954 0 0.90742 0.22686 2.0417 0.56714 2.4954 1.4746 3.0625 5.1042 3.9699 6.125 3.9699 0.79399 0 2.8357-0.11342 3.9699-1.2477 1.1343-1.2477 1.0208-1.0208 2.8357-3.5162 2.0417-2.9491 4.3102-5.8982 7.8265-10.549 0.22685-0.34028 0.34028-0.34028 0.45371-0.34028 0.11342 0 0.22685 0.22686 0.22685 0.34028 0 0.22686-0.79399 1.7014-0.79399 6.8056 0 2.1551 0.45371 3.9699 1.4746 5.3311 1.1343 1.588 1.588 1.9283 3.2894 3.0625 1.1343 0.79399 3.7431 1.2477 4.4236 1.2477 1.588 0 2.1551-1.4746 2.1551-2.0417 0-0.90742-0.56713-1.4746-1.2477-2.0417-0.56714-0.45371-2.9491-2.2685-3.2894-3.7431-0.11343-0.90742-0.34028-1.4746-0.34028-3.0625 0-1.7014 0.4537-6.0116 1.0208-7.713 1.7014-4.3102 3.2894-7.5996 6.3519-12.704zm-94.485 18.489c-0.68056 0.45371-1.2477 0.45371-1.7014 0.45371-0.34028 0-1.0208-0.34028-1.0208-0.68056 0-0.56714 0.45371-2.0417 1.0208-3.2894 1.8148-4.1968 8.3936-12.364 12.931-16.674 1.1343-1.1343 1.4746-1.3611 3.176-2.7222 1.1343-0.90742 2.7222-1.588 4.1968-1.588 0.45371 0 1.0208 0.11343 1.4746 0.22685 0.79399 0.34029 0.90742 0.90742 0.90742 1.1343 0 0.56714-0.45371 1.3611-0.56714 1.588-5.1042 7.8265-12.817 16.674-20.417 21.551zm49.794-25.067c0.79399-0.79399 1.8148-1.588 2.8357-2.1551 0.79399-0.56713 1.2477-0.79398 1.8148-0.79398 0.4537 0 0.4537 0.34028 0.4537 1.0208 0 1.588-0.22685 2.7222-1.1343 3.9699-1.1343 1.7014-1.1343 1.9283-2.382 3.5162-3.8565 4.6505-7.9399 9.4144-12.931 13.271-0.22685 0.22686-0.4537 0.22686-0.56713 0.22686s-0.11343-0.11343-0.11343-0.45371c1.8148-7.4862 6.5788-13.611 12.023-18.602z"/>
		<path d="m711.3 253.96c1.8148 0 3.8565-2.382 5.4445-4.1968 0.34028-0.45371 0.45371-1.0208 0.45371-1.588 0-0.90742-0.11343-1.9283-1.0208-2.8357-0.56714-0.68057-2.1551-1.1343-3.5162-1.1343-1.8148 0-3.2894 0.4537-4.1968 1.4746-0.79399 0.90741-1.1343 2.382-1.1343 3.6297 0 0.90741 0.11343 2.0417 0.56714 2.9491 0.4537 0.68056 1.7014 1.7014 3.4028 1.7014z"/>
		<path d="m749.87 271.66c0.11343-0.22685 0.34028-0.56714 0.34028-0.90742 0-0.22685 0-0.22685-0.11342-0.56713-0.68057-1.0208-1.9283-1.1343-2.382-1.1343-0.90741 0-1.7014-0.79399-2.0417-1.588-0.11343-0.56713-0.79399-1.2477-1.2477-1.7014-1.4746-1.588-3.176-2.4954-5.1042-2.4954-0.56714 0-1.2477 0.11342-1.8148 0.22685-4.9908 1.4746-9.4144 3.7431-13.498 6.8056-2.4954 1.9282-7.1459 5.3311-12.137 12.931-1.4746 2.2685-2.4954 4.1968-3.2894 5.7848-0.34028 0.79399-0.68056 1.4746-0.90742 2.1551-1.588 3.8565-2.0417 4.3102-3.8565 5.5579-3.4028 2.382-4.3102 2.6088-6.1251 2.6088-1.4746 0-1.4746-2.0417-1.4746-2.7222 0-1.2477 0.56714-4.5371 2.0417-8.507 1.1343-3.176 3.5162-9.0742 4.9908-12.25 1.9283-4.1968 5.4445-6.3519 5.4445-11.002 0-0.79398-0.22685-1.0208-0.68056-1.3611-0.56713-0.56713-1.7014-0.68056-2.4954-0.68056-1.588 0-3.4028 0.56713-4.1968 2.382-3.176 6.6922-5.5579 12.817-8.1667 19.169-0.45371 1.2477-0.79399 2.7222-1.4746 4.3102-1.0208 2.9491-1.3611 4.8774-1.3611 7.0325 0 1.2477 0.11343 2.382 0.45371 3.6297 0.90742 3.176 3.8565 6.8056 6.3519 6.8056 3.8565 0 6.919-2.4954 8.7339-4.1968l2.1551-2.0417c0.34028 0.56713 0.68056 0.90742 0.90742 1.1343 3.9699 3.2894 4.9908 3.8565 5.8982 3.8565 0.34028 0 0.79398-0.22685 1.3611-0.34028 2.9491-1.0208 5.6713-2.2685 10.095-6.4653l4.5371-4.3102c0.90742-0.90742 1.7014-1.588 2.0417-1.588 0.34028 0 0.34028 0.11343 0.34028 0.45371 0 0.22685-0.34028 1.7014-0.34028 4.3102 0 2.382 0.34028 4.8774 1.4746 7.3728 0.4537 1.1343 2.382 1.7014 3.6297 1.7014 0.4537 0 1.1343-0.22685 1.588-0.34028 1.4746-0.22685 1.8148-1.0208 1.8148-1.2477 0-0.22686-0.11342-0.34028-0.11342-0.56714-1.2477-1.9283-1.8148-4.1968-1.8148-6.4653 0-2.7222 0.56713-5.2176 1.1343-7.713 1.1343-6.4653 5.5579-12.931 9.301-18.035zm-31.646 24.614c-1.4746 1.4746-3.5162 2.382-4.1968 2.382-1.4746 0-1.8148-1.2477-1.8148-2.382 0-2.4954 2.8357-7.5996 6.3519-12.023 4.8774-6.0116 11.116-10.662 19.056-14.972 1.1343-0.56713 2.382-0.90741 2.6088-0.90741 1.4746 0 1.9283 1.1343 1.9283 1.7014 0 0.56714-0.11343 1.0208-0.45371 1.2477-0.90741 0.90741-1.8148 2.1551-2.4954 3.2894-4.1968 8.3936-13.044 14.178-20.984 21.665z"/>
		<path d="m748.73 299.79c-0.11342-0.90741-0.22685-1.9282-0.22685-2.9491 0-3.9699 1.8148-7.9399 3.6297-12.817 3.6297-9.6413 11.116-23.479 17.581-34.709 1.4746-2.4954 1.9283-7.3728 5.2176-7.3728 1.1343 0 1.8148-0.22685 2.8357-0.22685 0.79399 0 1.8148 0.34028 2.1551 0.90741 0.45371 0.79399 0.68056 1.588 0.68056 2.382 0 1.1343-0.34028 2.1551-0.79398 3.0625-7.713 12.704-16.56 24.273-21.551 37.771-1.3611 3.5162-3.176 6.8056-3.176 10.662 0 1.0208 0.11343 2.0417 0.45371 3.176 0.22685 0.79398 0.90741 1.0208 1.7014 1.0208 0.45371 0 1.0208-0.11343 1.4746-0.34028 3.7431-2.382 7.8265-9.6413 11.796-9.6413 0.68056 0 2.8357 0.56713 2.8357 2.0417 0 1.1343-0.79399 1.4746-1.7014 2.382-4.3102 4.7639-7.8265 11.343-14.292 11.343-1.9283 0-7.713-1.9283-8.6204-6.6922z"/>
		<path d="m786.96 299.11c0 0.79399 0 1.588-0.56713 3.2894-0.56714 1.588-1.1343 3.4028-2.7222 3.6297-0.56713 0.11343-1.3611 0.22686-3.2894-0.22685-1.8148-0.34028-2.6088-3.7431-2.6088-5.3311 0-0.90741 0.11343-1.3611 0.79399-2.382 0.34028-0.56714 0.22685-2.0417 1.8148-2.0417 2.382 0 3.176 1.588 5.4445 1.8148 0.90742 0.11342 1.1343 0.68056 1.1343 1.2477zm13.044-46.051c0 3.176-1.8148 5.5579-2.6088 8.1667-2.9491 9.5279-4.7639 18.262-8.507 27.109-0.34028 0.79398-0.45371 1.0208-1.1343 1.0208-1.1343 0-1.2477-0.45371-1.8148-1.0208-1.4746-1.8148-2.382-2.4954-2.382-3.7431 0-0.56714 0-0.90742 0.22686-1.588 0.56713-1.588 0.56713-2.2685 0.90741-3.7431 1.9283-8.3936 4.4236-14.972 5.6714-23.479 0.45371-2.7222 1.1343-6.919 3.6297-6.919 0.68056 0 1.2477 0.34028 2.0417 0.68056 1.0208 0.45371 1.4746 0.68056 2.7222 1.4746 1.2477 0.68056 1.2477 1.2477 1.2477 2.0417z"/>
		<path d="m62.158 62.839c0.68056-0.90742 1.3611-1.8148 2.9491-3.2894 4.6505-4.1968 9.9816-7.8265 15.766-10.662 8.6204-4.0834 18.262-6.4653 28.243-6.4653 8.0533 0 15.88 1.4746 23.026 4.1968 8.1667 3.6297 14.292 9.1876 18.829 15.88 0 0 0 0.11343 0.11342 0.11343h41.741c-2.0417-3.8565-4.5371-7.4862-7.3728-10.889l-2.2685-2.6088c-5.6714-6.2385-12.59-11.57-20.417-15.653-11.456-6.5788-24.727-10.322-38.679-10.322-21.778 0-42.422 10.662-57.961 29.945-1.9283 2.4954-3.9699 5.1042-5.6713 7.713-0.11343 0.11343-0.11343 0.22685-0.22685 0.34028-0.34028 0.45371-0.56714 0.90742-0.90742 1.3611z"/>
	</g>
	<g fill="#004077">
		<path d="m688.84 148.25c-17.354-6.2385-26.315-8.8473-26.088-16.107 0.22686-5.5579 5.3311-7.9399 11.229-7.9399 6.8056 0 11.229 1.9282 14.292 3.5162s5.5579 3.8565 5.5579 3.8565l18.715-15.199s-13.384-15.426-38.225-15.426c-18.829 0-39.699 9.4144-39.699 31.986 0 21.438 17.127 28.13 29.718 32.554s22.685 7.8265 22.118 14.292c-0.56714 7.0325-6.5788 9.7547-13.952 9.7547-7.1459 0-18.489-3.176-25.521-11.343 0 0-0.68056-0.68057-2.4954-3.4028l-18.375 15.086c0.11343 0.22685 0.22686 0.4537 0.22686 0.4537 1.0208 1.7014 15.086 23.253 45.03 23.253 31.192 0 43.443-18.148 43.443-32.554 0-16.333-8.6204-26.542-25.975-32.78z"/>
		<path d="m588.01 104.24v81.1c-4.6505 2.9491-9.9816 4.6505-15.653 4.6505-15.313 0-24.84-11.57-25.181-23.253v-62.612h-27.222v71.232c0 20.53 15.426 39.246 47.412 39.246 18.035 0 36.523-6.919 47.866-17.241v-93.237h-27.222z"/>
		<rect x="470.61" y="104.24" width="28.243" height="106.73"/>
		<circle cx="484.67" cy="76.677" r="17.468"/>
		<path d="m382.14 210.97v-81.1c4.6505-2.9491 9.9816-4.6505 15.653-4.6505 15.313 0 24.84 11.57 25.181 23.253v62.498h27.222v-71.232c0-20.53-15.426-39.246-47.412-39.246-18.035 0-36.523 6.919-47.866 17.241v93.237z"/>
		<path d="m287.54 101.4c-33.348 0.11342-56.487 23.82-56.487 56.033 0 33.234 22.912 56.033 56.487 56.033 17.921 0 35.843-5.6713 47.866-15.086l-14.405-18.148c-8.9607 6.4653-22.912 9.9816-35.276 8.7339-12.931-1.3611-22.912-8.0533-25.975-21.211h79.285v-0.11343c0.56714-3.2894 0.79399-6.8056 0.90742-10.208 1.1343-33.234-21.438-56.146-52.403-56.033zm-27.676 45.711c1.588-12.364 13.158-22.005 26.769-22.005 13.498 0 24.273 9.6413 25.748 22.005z"/>
		<path d="m224.93 105.03-0.11342-0.79399h-90.174l-24.046 29.151h79.059c-9.1876 33.915-40.04 58.755-76.79 58.755-43.896 0-79.512-36.183-79.512-79.512 0-26.882 9.6413-49.227 24.5-66.582 17.921-20.871 41.741-32.44 66.808-32.44 35.503 0 68.17 20.19 81.781 49.341h8.8473c-17.014-37.658-55.693-62.952-100.84-62.952h-1.9283c-63.065 0.90742-112.52 50.475-112.52 112.63 0 62.158 50.475 112.63 112.63 112.63 62.158 0 112.63-50.475 112.63-112.63 0-2.6088-0.11342-5.1042-0.34028-7.5996z"/>
	</g>
</svg>
