<svg xmlns="http://www.w3.org/2000/svg" xmlns:xlink="http://www.w3.org/1999/xlink" width="800" height="203.742"><defs><path id="A" d="M1008.6 339.6c0 87.2-70.7 158-157.9 158s-157.9-70.7-157.9-158 70.7-157.9 157.9-157.9c87.2-.1 157.9 70.6 157.9 157.9z"/></defs><g transform="matrix(.645161 0 0 .645161 -6.451613 -117.22574)"><g fill="#92c023"><path d="M1008.6 339.6c0 87.2-70.7 157.9-157.9 157.9s-157.9-70.7-157.9-157.9 70.7-157.9 157.9-157.9c87.2-.1 157.9 70.6 157.9 157.9z"/><use xlink:href="#A"/></g><path d="M832.938 224.579c-.036-.001-.067.015-.103.015-2.533-.013-4.761 1.886-5.11 4.405l-19.529 141.368-1.844-6.893-.003-.003c-.597-2.221-2.65-3.796-4.95-3.796h-8.304l-9.524-37.924c-.578-2.301-2.89-3.873-4.959-3.878s-4.389 1.557-4.977 3.857l-9.715 37.945h-69.548c-.107 0-.197.057-.303.064a157.92 157.92 0 0 0 1.634 10.187h72.198a5.16 5.16 0 0 0 4.965-3.854v-.006l5.685-22.215 5.576 22.2c.568 2.26 2.644 3.876 4.974 3.875h8.365l7.378 27.591c.63 2.378 3.146 3.935 5.274 3.802s4.427-1.987 4.759-4.423l16.666-120.625 13.65 163.755v.006c.22 2.584 2.725 4.621 4.95 4.689s4.851-1.812 5.228-4.378v-.006l10.263-70.413h13.668.006a5.14 5.14 0 0 0 4.48-2.652v-.003c.003-.006 2.477-4.466 5.758-8.822 1.639-2.176 3.493-4.305 5.077-5.667 1.532-1.317 2.995-1.634 2.591-1.644.131.018 1.483.446 3 1.759 1.569 1.357 3.35 3.449 4.898 5.585 3.097 4.275 5.305 8.615 5.31 8.625l.003.003.003.003c.868 1.716 2.645 2.811 4.568 2.812h.003 43a5.19 5.19 0 0 0 5.125-5.125 5.19 5.19 0 0 0-5.125-5.125h-39.988a69.59 69.59 0 0 0-4.599-7.205c-1.834-2.531-3.979-5.151-6.494-7.326-2.496-2.159-5.6-4.172-9.497-4.266l-.058-.003c-3.92-.051-6.971 2.022-9.427 4.135-2.492 2.143-4.679 4.739-6.584 7.269a78.98 78.98 0 0 0-4.965 7.396h-15.191c-2.514.001-4.705 1.897-5.071 4.384v.003l-4.441 30.488-13.78-165.275v-.006c-.217-2.568-2.389-4.618-4.965-4.689l-.055 3.893z" fill="#fff"/><path fill="#f3cb24" d="M958.1 383.6c-10.4 0-18.8-8.5-18.8-18.8 0-10.4 8.5-18.8 18.8-18.8 10.4 0 18.8 8.5 18.8 18.8 0 10.4-8.5 18.8-18.8 18.8z"/><path fill="#fff" d="M958.1 351.1c7.5 0 13.7 6.1 13.7 13.7s-6.1 13.7-13.7 13.7-13.7-6.1-13.7-13.7c0-7.5 6.1-13.7 13.7-13.7m0-10.3c-13.2 0-24 10.8-24 24s10.8 24 24 24 24-10.8 24-24c-.1-13.2-10.8-24-24-24z"/></g><path d="M0 159.807V47.677l22.194-3.548v37.548c1.484-.516 3.419-.968 5.742-1.419s4.581-.645 6.774-.645c6.387 0 11.677.903 15.871 2.581 4.194 1.742 7.613 4.194 10.129 7.355s4.323 6.968 5.355 11.355 1.548 9.226 1.548 14.645v44.258H45.484v-41.613c0-7.161-.903-12.258-2.774-15.226s-5.226-4.452-10.194-4.452a30.8 30.8 0 0 0-5.613.516c-1.742.322-3.29.71-4.71 1.097v59.677zm80.387-38.646c0-6.968 1.097-13.032 3.226-18.258s4.968-9.548 8.452-13.032 7.484-6.129 12-7.871c4.516-1.806 9.161-2.71 13.935-2.71 11.161 0 19.935 3.419 26.387 10.194 6.452 6.839 9.677 16.839 9.677 30.064 0 1.29-.065 2.71-.129 4.258l-.323 4.129h-50.387c.516 4.581 2.645 8.194 6.387 10.903 3.806 2.71 8.839 4 15.226 4 4.065 0 8.065-.387 12-1.097 3.935-.774 7.161-1.677 9.613-2.774l2.968 18.065c-1.226.581-2.774 1.161-4.774 1.806-2 .581-4.194 1.097-6.645 1.548s-5.032.839-7.806 1.097c-2.774.323-5.548.452-8.323.452-7.032 0-13.226-1.032-18.387-3.161-5.226-2.065-9.548-4.968-12.968-8.581s-5.935-7.935-7.613-12.903-2.516-10.323-2.516-16.129zm52.194-8.452a27.02 27.02 0 0 0-.968-5.548c-.516-1.806-1.419-3.355-2.516-4.774-1.161-1.419-2.581-2.516-4.323-3.419s-3.871-1.355-6.516-1.355c-2.516 0-4.645.452-6.387 1.29-1.806.839-3.29 1.935-4.452 3.355s-2.129 3.032-2.774 4.839a34.07 34.07 0 0 0-1.419 5.613zm63.032-33.419c6.581 0 12 .774 16.387 2.258s7.871 3.613 10.516 6.387 4.516 6.194 5.613 10.129c1.097 4 1.613 8.387 1.613 13.29v46.258c-3.161.71-7.613 1.484-13.29 2.452s-12.516 1.419-20.581 1.419c-5.097 0-9.677-.452-13.806-1.355s-7.677-2.387-10.645-4.387c-2.968-2.065-5.29-4.71-6.839-8-1.613-3.29-2.387-7.29-2.387-12.065 0-4.581.903-8.452 2.774-11.613s4.323-5.742 7.355-7.613c3.097-1.871 6.581-3.226 10.581-4.129 4-.839 8.129-1.29 12.387-1.29 2.903 0 5.419.129 7.677.387s4.065.581 5.419.968v-2.065c0-3.806-1.161-6.839-3.419-9.097s-6.258-3.419-11.935-3.419c-3.806 0-7.484.258-11.161.839-3.677.516-6.839 1.29-9.548 2.323l-2.839-17.871a79.74 79.74 0 0 1 4.839-1.29c1.935-.452 4.065-.839 6.323-1.161s4.71-.645 7.226-.903c2.645-.323 5.161-.452 7.742-.452zm1.806 65.032c2.194 0 4.258-.065 6.258-.129 2-.129 3.548-.258 4.774-.452v-16.839c-.903-.194-2.258-.387-4-.581-1.806-.194-3.419-.323-4.903-.323-2.065 0-4.065.129-5.871.387-1.871.258-3.484.71-4.839 1.419-1.419.71-2.516 1.613-3.29 2.839s-1.161 2.71-1.161 4.452c0 3.484 1.161 5.871 3.484 7.226 2.258 1.29 5.484 2 9.548 2zm80.065 16.968c-6.452-.129-11.677-.774-15.742-2.065-4-1.29-7.226-3.097-9.548-5.419s-3.935-5.161-4.774-8.516-1.29-7.097-1.29-11.29V47.677l22.258-3.613v85.419c0 2 .129 3.806.452 5.355.323 1.613.839 2.903 1.742 4 .839 1.097 2.065 2 3.677 2.71s3.742 1.161 6.387 1.355zm11.355-99.483l22.194-3.548v23.097h26.71v18.516h-26.71v27.613c0 4.645.839 8.387 2.452 11.161s4.968 4.194 9.935 4.194c2.387 0 4.839-.194 7.355-.645a39.73 39.73 0 0 0 6.903-1.871l3.161 17.29a61.1 61.1 0 0 1-8.968 2.839c-3.29.774-7.29 1.226-12.065 1.226-6.065 0-11.097-.839-15.032-2.452-4-1.613-7.161-3.935-9.548-6.839s-4.065-6.516-4.968-10.645c-.968-4.194-1.419-8.774-1.419-13.871zm63.226 98V47.677l22.194-3.548v37.548c1.484-.516 3.419-.968 5.742-1.419s4.581-.645 6.774-.645c6.387 0 11.677.903 15.871 2.581 4.194 1.742 7.613 4.194 10.129 7.355s4.323 6.968 5.355 11.355 1.548 9.226 1.548 14.645v44.258h-22.194v-41.613c0-7.161-.903-12.258-2.774-15.226s-5.226-4.452-10.194-4.452a30.8 30.8 0 0 0-5.613.516c-1.742.322-3.29.71-4.71 1.097v59.677zm312.967-98l22.194-3.548v23.097h26.71v18.516h-26.71v27.613c0 4.645.839 8.387 2.452 11.161s4.968 4.194 9.936 4.194c2.387 0 4.839-.194 7.355-.645a39.68 39.68 0 0 0 6.903-1.871l3.161 17.29a61.1 61.1 0 0 1-8.968 2.839c-3.29.774-7.29 1.226-12.064 1.226-6.064 0-11.097-.839-15.032-2.452-4-1.613-7.161-3.935-9.548-6.839s-4.065-6.516-4.968-10.645c-.968-4.194-1.419-8.774-1.419-13.871zm86.194 98c-5.097-9.935-10.258-21.548-15.484-34.903-5.226-13.29-10.194-27.806-14.903-43.548h23.548c.968 3.871 2.194 8.065 3.548 12.581l4.194 13.742 4.323 13.484a205.2 205.2 0 0 0 4.258 11.935l4.194-11.935 4.387-13.484 4.194-13.742c1.355-4.516 2.516-8.71 3.548-12.581H800c-4.71 15.677-9.677 30.194-14.903 43.548s-10.387 24.968-15.484 34.903z" fill="#4d4d4d"/></svg>