<?xml version="1.0" encoding="UTF-8"?>
<svg width="590.88" height="450" version="1.1" xmlns="http://www.w3.org/2000/svg">
	<path d="m157.78 448.07c0.11104-1.0624 0.20189-3.1835 0.20189-4.7137v-2.7821h4.6697c7.5911 0 16.058-0.99814 26.742-3.1525 4.8177-0.97152 5.0263-0.94808 5.0366 0.56574 3e-3 0.39205 0.27559 1.7354 0.60659 2.9853 0.33097 1.2499 0.64914 2.8361 0.70705 3.5249l0.10528 1.2524-2.514 0.54113c-11.659 2.5096-21.742 3.7004-31.391 3.7073l-4.3656 3e-3 0.20189-1.9316zm-23.524-2.7454c-9.2146-3.5209-17.398-8.8632-25.104-16.387l-4.0494-3.9542 7.1346-6.351 2.6818 2.7384c7.3927 7.5488 15.829 12.892 25.508 16.155 0.47181 0.15907 0.46613 0.33747-0.0689 2.161-0.32073 1.0932-0.90465 3.0835-1.2976 4.423-0.48652 1.6585-0.86552 2.4323-1.1881 2.4257-0.26052-5e-3 -1.8878-0.55008-3.6161-1.2105zm79.559-6.223c-0.91402-3.1592-1.7828-6.5139-1.7828-6.8841 0-0.19587 0.7424-0.5795 1.6498-0.85258 0.90738-0.27304 5.8214-1.724 10.92-3.2244 5.0986-1.5004 12.311-3.6284 16.027-4.7288 3.716-1.1005 6.84-2.0021 6.9422-2.0037 0.10226 0 0.43888 0.88105 0.74803 1.9613 0.30919 1.0802 0.81243 2.7418 1.1184 3.6924 1.1373 3.534 1.2541 3.2487-1.6676 4.0754-1.4214 0.40214-3.15 0.90776-3.8414 1.1236-1.1223 0.35035-2.3548 0.71777-7.3848 2.2014-0.77776 0.22943-2.5454 0.76516-3.9281 1.1905-3.2423 0.99747-16.408 4.8288-17.463 5.082-0.75934 0.18217-0.84041 0.0831-1.3369-1.633zm144.54-11.298c-2.5076-1.0512-4.9725-2.669-7.0272-4.6123-3.4793-3.2906-4.4806-6.6012-3.0504-10.085 0.23264-0.56674 0.12592-0.58896-1.9277-0.40151-6.9696 0.63613-16.917 1.6723-21.836 2.2744l-1.7501 0.21425-0.35428-2.1577c-0.19483-1.1868-0.44045-3.3035-0.54579-4.7039l-0.19149-2.5462 3.2386-0.38806c7.9307-0.95028 16.996-1.8529 25.348-2.5238 1.9632-0.15772 3.6066-0.3303 3.6522-0.38356 0.17196-0.20113 2.7064-5.0172 5.5909-10.624 1.645-3.1974 3.43-6.6581 3.9666-7.6904 1.1603-2.2317 1.2057-2.434 0.27613-1.2295-0.92592 1.1997-1.3634 1.5472-3.2284 2.5639-1.428 0.77847-1.8721 0.85659-4.8708 0.85659-3.1394 0-3.3912-0.0502-5.1851-1.034-2.2113-1.2126-3.0547-1.9193-4.5804-3.8379-3.5578-4.4739-5.1863-10.061-5.5633-19.087l-0.22635-5.4187-3.771 4.4534c-12.478 14.736-24.064 23.539-31.11 23.637-8.8953 0.12359-11.034-8.4873-6.3934-25.738 1.347-5.0068 3.5389-11.464 5.6267-16.576 2.9565-7.2395 3.6306-8.7519 7.087-15.899 1.4497-2.9978 2.6358-5.5591 2.6358-5.6917 0-0.13267-0.74961-0.32929-1.6658-0.43695-1.4227-0.16721-3.6038-0.79278-5.6118-1.6095-0.43718-0.1778-0.73433 0.46386-1.8407 3.9744-5.8803 18.658-13.285 34.033-23.534 48.864-3.5028 5.0687-5.2643 6.7014-7.2302 6.7014-1.0226 0-2.3375-1.0654-2.6916-2.1808-0.10848-0.34178 0.66802-1.7975 2.1186-3.9716 2.6231-3.9317 4.9459-7.6323 4.9459-7.8798 0-0.0929 0.26177-0.54436 0.58174-1.0031 1.5801-2.2656 7.3473-13.648 10.055-19.846 2.6062-5.9646 2.5537-5.8388 4.2592-10.213 2.4422-6.2638 2.6157-6.747 4.1193-11.47 2.5172-7.9072 2.3669-6.9749 1.3218-8.2-2.3651-2.7722-3.6823-6.1263-3.6823-9.3767 0-2.3146 0.82926-5.4705 1.9872-7.563 1.4709-2.658 5.2407-6.2095 8.2471-7.7697 3.0442-1.5798 7.5753-2.8132 11.394-3.1014 4.1709-0.31484 5.477-0.0308 7.0961 1.5442 1.1402 1.109 1.4085 1.6157 1.7218 3.2516 0.48582 2.5369-0.18051 7.1047-1.5509 10.632-0.53721 1.3827-1.0487 2.7453-1.1366 3.0282-0.19826 0.63786 1.4751 1.4614 7.5938 3.7372 7.3843 2.7465 9.4806 4.1314 10.213 6.7468 0.7803 2.7869-0.40252 5.2342-5.8733 12.152-5.3533 6.7692-11.673 15.481-13.453 18.545-2.8982 4.9894-3.6981 6.4399-4.6781 8.4828-2.6348 5.4925-3.7394 10.899-2.5864 12.659 1.3354 2.0381 3.988 0.49984 10.057-5.8322 2.0545-2.1435 4.7502-4.9579 5.9905-6.2541 6.2101-6.4905 15.722-17.612 16.733-19.564 0.37967-0.73345 1.7094-3.6668 2.9549-6.5186 1.2455-2.8518 3.0206-6.7779 3.9448-8.7247 0.92413-1.9468 1.6802-3.6057 1.6802-3.6863 0-0.0806 0.54289-1.316 1.2064-2.7452 5.0119-10.796 5.9303-13.887 4.9256-16.583-0.89337-2.3967-0.89563-2.6543-0.0323-3.6803 1.525-1.8124 6.3787-3.4324 13.069-4.3622 5.1219-0.7118 8.2025-0.31399 10.787 1.3929 1.517 1.0019 2.7258 3.3025 2.7258 5.1877 0 2.3265-2.6386 8.4696-6.8021 15.837-1.0982 1.9432-1.9968 3.5986-1.9968 3.6786 0 0.08-0.444 0.89403-0.98664 1.809-1.1345 1.9129-1.9182 3.2771-3.0321 5.2774-0.43306 0.77776-1.4049 2.5085-2.1596 3.8461-11.057 19.597-15.837 30.979-15.813 37.653 0.0183 5.0403 1.7898 9.6141 5.2169 13.468 1.9404 2.1823 2.0627 2.4086 1.9116 3.5353-0.0888 0.66206-0.12074 1.2038-0.0709 1.2038 0.25626 0 13.555-27.157 18.235-37.238 0.48143-1.037 1.5542-3.3274 2.3838-5.0897 2.6298-5.586 12.832-28.789 14.936-33.97 0.58233-1.4338 1.3172-3.2014 1.633-3.9281 0.31582-0.72666 0.79652-1.8868 1.0682-2.5782 2.2447-5.7118 2.6887-6.6077 3.8504-7.7693 1.6734-1.673 3.4215-2.2767 6.6082-2.282 2.5137-4e-3 3.0319 0.0985 4.6596 0.92246 2.257 1.1427 4.9056 3.9302 6.2374 6.5649 0.82864 1.6391 0.98343 2.3079 1.0114 4.3696 0.0182 1.3388 0.0558 2.4347 0.0837 2.4354 0.028 0 1.5204-0.34604 3.3168-0.7705 13.119-3.0999 18.592-0.8813 19.034 7.7169 0.2002 3.8899-1.2504 10.635-3.7101 17.252-0.54613 1.4691-1.1076 3.0246-1.2476 3.4567-0.69917 2.157-5.3124 11.662-7.55 15.555-0.39733 0.69134-0.87945 1.5398-1.0714 1.8855-0.38982 0.70206-1.0165 1.6974-2.6711 4.2423-0.61803 0.95059-1.2651 1.9634-1.4379 2.2506-0.17283 0.28726-0.77383 1.1711-1.3356 1.964-0.56171 0.79301-1.4344 2.0468-1.9393 2.7862-1.4479 2.1205-6.6432 8.0451-8.9716 10.231-4.4386 4.1669-8.7705 6.8849-12.865 8.0717-2.7397 0.79419-6.3668 0.53318-8.8129-0.63412-2.012-0.96015-5.9274-4.5795-6.4548-5.9668-0.28851-0.75884-0.94462-1.1048-0.94462-0.49805 0 0.16086-0.82361 2.0346-1.8302 4.1638-1.8425 3.897-6.3283 14.021-8.5382 19.269-0.65499 1.5555-1.5813 3.7426-2.0585 4.8602-0.47725 1.1176-1.464 3.5216-2.1927 5.3422-0.7288 1.8206-1.5048 3.7344-1.7244 4.2529-0.98513 2.3256-1.3093 3.1332-3.2795 8.1704-3.7732 9.647-4.1001 10.356-5.1517 11.184-1.0507 0.82644-3.208 0.73695-5.5113-0.22864zm42.781-63.351c2.3996-1.1984 7.3213-6.8492 11.431-13.124 2.0378-3.1116 4.6716-7.4547 4.6716-7.7033 0-0.0946 0.53394-1.1223 1.1865-2.2836 4.0505-7.2083 6.9454-16.344 6.087-19.209-0.20187-0.67384-0.63698-1.5571-0.96684-1.9628-0.56128-0.69021-0.80287-0.73537-3.7608-0.7031-1.9811 0.0217-3.3338 0.17793-3.624 0.41877-0.42593 0.3535-2.7651 4.1521-4.6554 7.56-0.4314 0.77775-1.5097 2.6626-2.3962 4.1886-0.88655 1.5259-1.6119 2.8192-1.6119 2.874 0 0.0547-1.1313 2.1088-2.514 4.5646-1.3827 2.4558-2.514 4.5259-2.514 4.6003 0 0.0744-0.62695 1.2401-1.3933 2.5906-1.5798 2.7842-6.9291 13.183-7.5707 14.717-0.41565 0.99396-0.4011 1.0282 0.86213 2.0287 1.1845 0.93812 3.8894 2.1108 4.9249 2.1351 0.2403 6e-3 1.0702-0.30601 1.8442-0.69256zm-133.3 60.017c-0.0792-0.38887-0.21551-1.0606-0.30284-1.4927-0.0873-0.43209-0.50286-2.0583-0.92338-3.6138-0.42049-1.5555-0.67579-2.9216-0.56731-3.0356 0.87549-0.92065 35.881-8.2212 36.773-7.6694 0.14568 0.0901 0.36472 1.0507 0.48667 2.1348 0.122 1.0841 0.42134 2.8195 0.66523 3.8566 0.72054 3.0634 0.68025 3.1965-1.0399 3.4364-3.2383 0.45166-13.421 2.3846-19.248 3.6537-7.2764 1.5848-8.158 1.7887-11.395 2.6351-3.7984 0.99305-4.264 1.003-4.449 0.095zm253.26-5.0092c-9.1563-1.6249-29.416-4.631-31.349-4.6513-0.41581-4e-3 0.62246-9.0246 1.0707-9.3016 0.614-0.37949 36.34 5.043 36.897 5.6003 0.094 0.094-0.0643 1.4243-0.35186 2.9562-0.28754 1.5318-0.6202 3.5227-0.73923 4.4242-0.11904 0.90142-0.28022 1.6897-0.35818 1.7518-0.078 0.062-2.4043-0.2887-5.1697-0.77949zm-55.464-7.1972c-4.9777-0.47209-16.465-1.2311-23.726-1.5676-3.9752-0.18428-7.3691-0.37701-7.5419-0.4283-0.19659-0.0583-0.2788-1.8143-0.21953-4.6904l0.0947-4.5971h2.568c2.3789 0 5.082 0.14467 17.669 0.94569 6.6195 0.42128 17.262 1.2904 17.395 1.4206 0.13573 0.13255-0.55401 7.5624-0.79407 8.5538-0.19281 0.79631-0.59669 0.82327-5.4452 0.3634zm-87.478-3.801c-0.0964-1.2636-0.25535-3.3801-0.35328-4.7034l-0.17804-2.406 1.1889-0.18799c1.8956-0.29972 36.324-0.84922 36.521-0.58289 0.0979 0.13242 0.13554 2.3022 0.0838 4.8218l-0.0941 4.581-9.3333 0.0502c-10.511 0.0566-21.652 0.30152-25.253 0.55518l-2.4068 0.16957zm-286.28-3.7563c-1.874-3.9514-4.0376-9.6647-4.8621-12.839-1.8124-6.9782-2.5576-11.955-2.6583-17.755l-0.06005-3.4567 9.2703-0.174 0.0085 1.8153c0.01728 3.6904 1.1089 11.86 2.0215 15.129 1.2873 4.6112 3.2215 9.9463 4.7607 13.132 0.93165 1.928 1.6939 3.5773 1.6939 3.6651 0 0.0878-1.0252 0.71448-2.2783 1.3926-1.2531 0.67818-3.0944 1.6955-4.0918 2.2608l-1.8135 1.0277zm440.73-9.156c-1.6219-0.51845-4.2816-3.1452-5.3505-5.2844-1.4406-2.8829-2.0447-6.1001-1.8194-9.6893 0.32172-5.126 1.8959-8.9839 4.8834-11.968 2.8108-2.8078 5.914-3.5259 8.9998-2.0825 8.0631 3.7715 9.1208 19.262 1.8137 26.561-2.5984 2.5958-5.4946 3.4324-8.527 2.4631zm-291.19-11.08c-6.4032-3.4046-13.048-10.562-13.048-14.054 0-2.8114 2.7609-9.395 13.276-31.657 0.61225-1.2963 1.6065-3.4174 2.2093-4.7137 1.6019-3.4441 3.3949-7.2537 5.1767-10.999 0.86345-1.8148 2.0301-4.2895 2.5927-5.4993 0.56253-1.2098 1.6938-3.6138 2.514-5.3422 0.82014-1.7284 1.9519-4.1323 2.515-5.3422 0.5631-1.2098 2.0659-4.3716 3.3396-7.0261 1.2737-2.6545 2.3158-4.8702 2.3158-4.9237 0-0.0536 0.84846-1.8766 1.8855-4.0512 1.037-2.1746 1.8855-4.018 1.8855-4.0965 0-0.0784 1.1313-2.4889 2.514-5.3565s2.514-5.2706 2.514-5.34c0-0.0693 1.1313-2.483 2.514-5.3638 1.3827-2.8807 2.514-5.2808 2.514-5.3335 0-0.0527 0.75853-1.6981 1.6857-3.6564 0.92708-1.9583 2.1464-4.5504 2.7096-5.7603 2.1774-4.6777 3.5343-7.5913 4.0976-8.7989 1.3867-2.9725 4.077-9.0797 4.077-9.2551 0-0.10519-3.6611-0.13509-8.1358-0.0665-7.1737 0.11001-8.335 0.0587-9.8202-0.43411-3.4598-1.148-7.2652-3.7134-11.385-7.6754-5.7437-5.5233-8.0516-10.271-6.1612-12.674 2.8072-3.5688 27.911-6.9674 68.872-9.324 17.436-1.0031 35.554-1.5981 50.848-1.6698 13.12-0.0615 14.492-0.0181 16.655 0.52746 5.6103 1.4152 8.1558 3.9847 10.506 10.605 1.1804 3.3246 3.0683 5.1898 5.8343 5.7641 1.0913 0.2266 7.3891 3.6631 9.3488 5.1014 3.318 2.4352-0.77412 3.1143-24.146 4.0074-21.591 0.82505-28.224 1.1228-35.639 1.5995-12.906 0.82979-21.441 1.8345-25.358 2.985-1.9851 0.58303-2.2074 0.7469-3.9281 2.8963-2.6161 3.2678-2.8811 3.6364-6.51 9.0557-3.7692 5.6287-7.0981 10.967-7.0981 11.382 0 0.15656 0.32977 0.20187 0.73278 0.10072 0.40303-0.10113 2.1353-0.32931 3.8495-0.50698 1.7142-0.1777 3.5056-0.38954 3.9809-0.4708 0.82879-0.14166 0.86449-0.0933 0.87184 1.18 4e-3 0.73022 0.13179 1.8933 0.28345 2.5847 0.15166 0.69134 0.36968 2.1938 0.48448 3.3389 0.24912 2.4847 0.69112 2.2567-5.7082 2.9443-2.3857 0.25636-5.5397 0.608-7.0088 0.78147-1.4691 0.17346-2.9079 0.31644-3.1974 0.31776-0.30812 0-0.9051 0.68635-1.44 1.6522-0.50252 0.90739-1.3804 2.4982-1.9509 3.5353-0.57046 1.037-1.2839 2.3097-1.5855 2.8282-0.30155 0.51851-1.2207 2.2154-2.0426 3.771-0.82185 1.5555-2.0274 3.8181-2.679 5.0279-2.752 5.1096-5.2407 10.014-20.094 39.595-8.5914 17.111-16.263 32.312-17.048 33.781-0.78474 1.4691-2.1294 4.0145-2.9882 5.6564-2.1856 4.1787-3.652 6.869-6.4235 11.784-0.29238 0.5185-1.0004 1.8439-1.5734 2.9452-0.57303 1.1014-1.572 2.5508-2.22 3.221-1.0133 1.0481-1.3694 1.2185-2.5457 1.2185-0.86103 0-1.9237-0.29564-2.8686-0.79806zm216.51-1.2162c-1.5555-0.41766-3.8888-1.2017-5.1851-1.7422-8.1789-3.4108-16.474-10.793-17.143-15.256-0.30281-2.0192 0.70618-4.5555 1.8122-4.5555 0.18515 0 1.978 1.6617 3.9842 3.6926 4.3925 4.4468 6.2288 5.5233 9.4611 5.5469 2.5274 0.0185 4.0178-0.65467 5.5267-2.4961 2.1677-2.6454 2.7285-6.7286 2.005-14.6-0.1668-1.8148-0.44529-5.4914-0.61887-8.1704-0.1736-2.679-0.45739-6.2142-0.63066-7.8562-0.17332-1.6419-0.45142-5.3893-0.61803-8.3275-0.16665-2.9382-0.38747-6.6856-0.49073-8.3275-0.53262-8.469 2.6538-16.071 9.6192-22.948 4.2851-4.231 9.6032-7.3116 15.247-8.8319 3.6193-0.97501 8.9042-0.98541 11.988-0.0236 3.2881 1.0255 5.897 2.6746 8.45 5.3413 2.4297 2.5379 2.9124 3.02 5.9258 5.9188 2.1204 2.0397 2.7431 3.3709 2.7744 5.9311 0.0261 2.1267-0.63613 3.6625-2.7774 6.442-5.7734 7.4943-11.082 17.296-13.059 24.113-0.52194 1.7995-1.3056 2.4475-2.9151 2.4105-2.9919-0.0688-7.9436-3.8169-9.8068-7.4229-0.42122-0.81522-0.76585-1.7659-0.76585-2.1126s0.71843-2.2958 1.5965-4.3313c3.3509-7.7678 3.6197-10.143 1.1482-10.143-2.7432 0-6.4614 4.2975-8.5739 9.9099-0.74018 1.9665-0.7699 2.3408-0.76641 9.6591 3e-3 4.5007 0.25877 11.082 0.62776 16.098 0.35869 4.8758 0.62447 11.566 0.62488 15.73 0 6.594-0.0603 7.4272-0.67883 9.2702-1.1917 3.5511-2.9839 5.6755-5.8873 6.9785-2.303 1.0336-7.234 1.0802-10.874 0.10282zm-366.02-30.921c-3.9039-1.3168-4.3013-1.5186-4.1271-2.0944 0.9764-3.227 4.5987-11.21 6.9195-15.25 2.7515-4.7893 8.1989-12.299 11.833-16.313l1.1923-1.317 1.0074 0.84585c2.1101 1.7717 5.878 5.2623 5.8739 5.4415-2e-3 0.10298-0.79152 1.1064-1.7536 2.2298-5.6903 6.6446-10.855 14.652-13.683 21.212-0.52145 1.2098-1.136 2.624-1.3658 3.1425-0.22973 0.51851-0.59485 1.5437-0.8114 2.2783s-0.47741 1.3235-0.57967 1.3088c-0.10227-0.0148-2.1299-0.68251-4.5058-1.4839zm445.18-0.55669c-2.8082-1.8209-3.4632-4.2393-3.7419-13.817-0.22895-7.8686-0.82131-12.316-2.0277-15.226-1.711-4.1265-2.4683-5.8338-4.1118-9.2702-0.99198-2.074-2.1354-4.6194-2.541-5.6564-0.89776-2.2954-2.2784-4.9414-5.3864-10.323-6.5272-11.302-10.371-28.005-9.8761-42.913 0.43743-13.166 4.1229-22.827 11.777-30.87 8.892-9.3439 21.54-14.088 34.368-12.892 18.298 1.7059 30.73 14.39 34.705 35.407 0.81987 4.3348 0.82943 14.288 0.0182 19.012-1.3999 8.1532-4.0422 15.633-8.0484 22.783-1.2033 2.1476-5.2838 8.0822-6.8508 9.9638-3.4771 4.175-7.5295 9.2722-8.0678 10.148-0.3187 0.51851-1.1049 1.6498-1.747 2.514-10.916 14.689-13.23 18.434-15.635 25.297-1.7303 4.9388-2.1676 6.3905-2.7109 8.9997-0.79929 3.8383-2.1668 5.7442-5.0721 7.0686-1.8133 0.82656-3.5511 0.74966-5.0521-0.22359zm17.121-64.343c1.2478-0.43394 3.0483-1.3259 4.0012-1.9822 1.9007-1.309 6.0713-5.5192 6.7533-6.8172 0.89805-1.7095 2.2496-4.476 2.4817-5.0799 0.13286-0.34567 0.45698-1.1234 0.72029-1.7284 0.80252-1.8438 1.7851-7.7247 1.7851-10.684 0-4.9813-1.4137-10.731-3.6227-14.733-0.5136-0.9306-1.132-2.0552-1.3743-2.499-0.24224-0.4439-1.4514-1.8082-2.687-3.0319-3.8195-3.7825-7.9806-5.4123-13.042-5.1083-6.8648 0.41227-12.892 5.1112-16.718 13.035-4.0867 8.4627-4.2058 19.246-0.30372 27.498 4.6076 9.7441 13.322 14.152 22.006 11.132zm-429.41 20.324c-1.5069-1.8457-2.7554-3.5635-2.7746-3.8173-0.0745-0.98792 12.238-9.7015 19.205-13.591 3.5314-1.9717 11.687-6.0243 12.867-6.3938 0.53502-0.16755 0.72904-0.0585 0.90169 0.50669 0.20409 0.66815 0.92646 2.3498 2.3343 5.4339 1.1747 2.5734 1.4732 2.2376-4.6474 5.2296-8.7826 4.2934-15.175 8.2581-21.998 13.643-1.3264 1.0469-2.5773 2.0029-2.7796 2.1243-0.22895 0.13741-1.4026-1.0466-3.1077-3.135zm49.955-23.597c-0.29294-0.99381-0.77612-2.514-1.0738-3.3782-0.29765-0.86418-0.63188-2.0729-0.74275-2.686l-0.20156-1.1148 2.752-0.74017c1.5136-0.40711 3.459-0.93592 4.3232-1.1751 4.1358-1.1448 15.156-3.3959 19.798-4.0441 0.86417-0.12067 1.854-0.27128 2.1997-0.33467 2.132-0.39095 8.1147-1.0643 8.2505-0.92853 0.18685 0.18685 0.99305 6.7611 1.0091 8.229l0.0107 0.97668-2.9068 0.38046c-10.66 1.3953-25.071 4.2963-30.65 6.17-2.0536 0.68972-2.184 0.62589-2.7678-1.3547zm212.77-0.68811c-5.0613-1.5074-9.8683-4.6984-12.065-8.0093-1.0629-1.6018-1.0967-4.1924-0.0919-7.037 0.74536-2.1101 0.93441-2.4592 3.1477-5.8124 2.4244-3.6731 6.5375-6.6439 9.7204-7.0208 5.3909-0.63845 11.903 3.6063 14.481 9.4385 1.3171 2.98 0.76698 6.5519-1.6742 10.871-2.174 3.8461-4.5538 6.5667-6.7272 7.6907-1.2561 0.64957-4.3919 0.59398-6.7907-0.12039zm-158.3-11.049c-0.29454-2.4825-0.43398-4.6033-0.30985-4.7128 0.12413-0.10949 2.2054-0.36446 4.6251-0.56662 2.4197-0.20212 6.662-0.57284 9.4274-0.8238 2.7654-0.25093 7.644-0.67217 10.841-0.9361 3.1975-0.26394 7.2277-0.60323 8.956-0.75398 1.7284-0.15074 3.2485-0.21114 3.3782-0.13421 0.12962 0.0769 0.23675 0.94462 0.23807 1.9282 0 0.98362 0.13959 2.9817 0.30723 4.4403 0.16769 1.4585 0.22745 2.7294 0.1328 2.824-0.0947 0.0946-2.3894 0.34363-5.0995 0.55329-7.5225 0.58202-15.997 1.295-21.74 1.8292-2.8518 0.26526-6.3183 0.56867-7.7034 0.67429l-2.5184 0.19203zm111.98-8.702c-0.88686-5.6726-1.0598-7.0036-0.92709-7.1363 0.0792-0.0792 2.6804-0.57692 5.7806-1.1061 8.236-1.4059 19.65-3.7733 26.591-5.5149 1.6733-0.41986 3.1812-0.7634 3.3509-0.7634 0.32709 0 1.6168 3.669 1.6248 4.6223 3e-3 0.30953 0.20851 1.1284 0.45758 1.8198 0.94252 2.6162 1.1668 2.4494-5.462 4.0621-3.2684 0.79511-6.5562 1.5671-7.3062 1.7156-0.75007 0.14841-3.1314 0.63427-5.2918 1.0797-4.4884 0.92536-5.9316 1.1918-12.256 2.2622-2.5061 0.4242-4.9337 0.83791-5.3945 0.91926-0.81485 0.1439-0.84709 0.0898-1.1676-1.9601zm-244.21 0.21748c-5.1484-0.3353-11.934-0.89704-12.727-1.0535-0.34567-0.0682-1.0356-0.13488-1.5333-0.14811l-0.90478-0.0239 0.20617-2.2783c0.19924-2.2017 0.84513-6.9074 0.97082-7.0731 0.03383-0.0446 3.2304 0.21431 7.1033 0.57538 5.5709 0.51935 9.3794 0.65784 18.233 0.663l11.191 7e-3 0.20054 2.3723c0.11029 1.3048 0.20053 3.39 0.20053 4.634v2.2617l-3.3485 0.20486c-4.29 0.26249-14.53 0.18895-19.591-0.14066zm41.385-5.5446c-0.29688-2.2048-0.53831-4.3204-0.5365-4.7015 4e-3 -0.76644-0.30485-0.68078 5.5026-1.5282 10.135-1.4789 21.135-3.7752 28.579-5.966 0.85478-0.25156 1.6565-0.35073 1.7817-0.22035 0.12511 0.13035 0.46047 1.0855 0.74524 2.1225 1.4668 5.3416 1.7221 6.302 1.7271 6.4962 8e-3 0.29219-1.2707 0.68204-6.908 2.107-8.0535 2.0358-15.529 3.5109-24.04 4.7436-2.4197 0.35048-4.8297 0.70881-5.3556 0.79629l-0.95618 0.15911zm-80.037-0.23417c-8.9998-2.3811-16.071-4.8696-22.891-8.0562-3.0615-1.4303-8.8475-4.5903-8.8475-4.8319 0-0.10427 2.033-3.2642 4.1711-6.483l0.96686-1.4556 1.909 1.1593c1.8354 1.1145 8.4555 4.4231 8.8502 4.4231 0.10532 0 0.63709 0.19292 1.1817 0.4287 0.54463 0.23577 1.5912 0.66001 2.3258 0.94273 0.73455 0.28273 1.8658 0.71969 2.514 0.97106 2.5764 0.99914 10.044 3.225 13.905 4.1449 1.2963 0.30878 2.4003 0.58616 2.4533 0.61639 0.37128 0.21149-1.8812 9.2436-2.2962 9.2074-0.17284-0.0151-2.0819-0.4951-4.2423-1.0667zm337.84-7.4606c-0.38517-1.0836-0.81063-2.3945-0.94541-2.913-0.13478-0.51851-0.47712-1.4903-0.76076-2.1595-0.2836-0.66926-0.51561-1.3763-0.51552-1.5712 9e-5 -0.19496 1.159-0.75388 2.5753-1.2421 2.4381-0.84036 7.53-2.761 8.8945-3.3549 0.34567-0.15046 2.184-0.93654 4.0852-1.7468 4.9829-2.1237 9.8511-4.4622 13.927-6.6898 1.9562-1.0691 3.6669-1.8758 3.8017-1.7925 0.51485 0.31822 4.4654 7.4733 4.3264 7.8357-0.31815 0.82905-11.885 6.6639-19.855 10.016-3.5968 1.5126-12.345 4.8397-14.173 5.3901-0.57928 0.17443-0.74577-0.0424-1.3604-1.7715zm-202.06-2.8345c-0.15351-0.38888-0.9342-2.315-1.7349-4.2804-0.80063-1.9654-1.4139-3.6136-1.3628-3.6628 0.051-0.0492 1.6483-0.76214 3.5495-1.5844 7.99-3.4555 16.827-8.4472 24.979-14.111 2.7507-1.9108 3.013-2.0281 3.3797-1.5116 0.21864 0.30799 1.4718 2.0186 2.7848 3.8014 1.313 1.7828 2.3375 3.2764 2.2767 3.319-0.0608 0.0427-0.83011 0.59443-1.7096 1.2261-7.6996 5.5301-17.692 11.364-25.426 14.844-2.3451 1.0553-6.1729 2.6659-6.3359 2.6659-0.0669 0-0.24728-0.31818-0.40082-0.70706zm-59.883-16.269c-2.4671-0.33636-4.4653-1.0268-7.5419-2.6061-3.5095-1.8015-7.6758-5.9654-9.4959-9.4904-2.7973-5.4179-3.8563-10.358-3.8583-17.999-1e-3 -6.026 0.36882-9.4814 1.7502-16.328 3.124-15.482 9.8779-33.19 21.881-57.367 2.7412-5.5215 4.6495-9.7363 4.6495-10.269 0-0.77555-0.6698-1.8914-1.1353-1.8914-0.0812 0-2.6519-0.35137-5.7125-0.78084-5.9256-0.83145-17.281-2.0517-18.992-2.0408-0.91886 6e-3 -1.1774 0.2319-2.4264 2.1212-6.1739 9.3393-13.15 22.109-27.506 50.351-4.7881 9.4195-9.0627 17.598-9.4992 18.174-1.6878 2.2291-3.7049 2.7302-7.0272 1.7458-7.8288-2.3196-17.22-10.104-17.255-14.303-0.0081-0.9746 10.143-21.461 23.166-46.753 8.8031-17.096 9.2574-18.061 8.6914-18.467-0.32848-0.23576-1.4686-1.2888-2.5335-2.34-3.2533-3.2113-4.9974-7.8806-4.7619-12.749 0.09096-1.8805 0.23984-2.3996 0.88975-3.1025l0.78051-0.84406 3.9572 0.18306c2.1765 0.10068 5.5434 0.35945 7.4822 0.57502 2.3372 0.25988 3.69 0.28788 4.0146 0.08307 0.26932-0.16988 5.3884-10.063 11.376-21.984 16.541-32.935 23.397-47.192 25.344-52.71 1.0492-2.9728 2.55-4.7778 5.1047-6.1394 4.9719-2.65 11.38-2.5578 18.496 0.26616 10.514 4.172 17.489 10.469 17.966 16.217 0.18782 2.2631-0.82194 4.2697-4.0078 7.9641-10.768 12.487-22.562 29.616-34.546 50.174-3.0754 5.2757-3.2171 6.1454-1.1645 7.1474 1.0448 0.51005 1.8949 0.5954 5.6589 0.56822 10.295-0.07434 18.385-2.2066 21.921-5.7775 2.2244-2.2462 11.524-17.701 18.878-31.372 1.8129-3.3703 7.0761-13.481 11.696-22.469 14.029-27.291 14.057-27.339 17.006-28.767 1.3956-0.6756 1.6527-0.69002 9.5024-0.53307 6.2609 0.12518 8.8983 0.30938 11.775 0.82238 9.7205 1.7334 14.064 4.731 14.041 9.6912-0.0126 2.724-0.6774 3.7824-7.1309 11.351-43.55 51.077-73.214 99.974-83.956 138.39-3.5783 12.797-4.9096 21.732-4.9062 32.928 2e-3 7.9398 0.31606 10.359 1.9198 14.81 1.1457 3.1796 2.2404 4.9108 4.7985 7.5884 2.1542 2.2548 2.3397 2.5541 2.3382 3.7735-7.4e-4 0.7284-0.25419 1.8193-0.56287 2.4242-3.1662 6.2047-13.143 10.815-21.066 9.7353zm-122.93-3.3926c-1.2467-2.0449-4.0835-7.7332-5.4355-10.899-0.63367-1.4838-1.0496-2.6767-2.3559-6.7563-1.0019-3.129-2.0399-7.6371-2.6772-11.627-0.34508-2.1604-0.70409-4.3877-0.7978-4.9494-0.11895-0.71294-0.047492-1.0229 0.23666-1.0267 0.22388-3e-3 1.6797-0.13556 3.2353-0.29459s3.5314-0.32837 4.3907-0.37632l1.5625-0.0872 0.53848 3.917c1.3427 9.7674 4.038 17.587 9.3283 27.063 0.54564 0.97735 0.99208 1.8556 0.99208 1.9516 0 0.17521-5.9111 4.2086-7.1018 4.8458-0.57072 0.30544-0.76572 0.12626-1.9159-1.7603zm433.33-6.0593-3.1736-3.5652 2.2523-2.2216c7.1471-7.0495 12.484-15.575 15.301-24.442 0.58041-1.827 0.89774-2.4121 1.2494-2.3037 0.25925 0.0799 2.2077 0.63212 4.3298 1.2271 2.1222 0.59502 3.942 1.1653 4.044 1.2673 0.102 0.10202-0.24832 1.5003-0.77855 3.1073-3.3815 10.249-8.7384 18.897-16.872 27.236l-3.1793 3.2598zm-246.23 1.4659c-6.4289-2.6436-11.218-7.7095-11.218-11.867 0-1.6435-0.20618-1.2065 7.6058-16.122 9.1795-17.526 9.2414-17.654 7.9415-16.354-1.9612 1.9612-4.2185 2.8239-7.377 2.8194-3.8566-5e-3 -5.7888-0.83476-8.6662-3.7191-4.2896-4.3-6.4153-10.564-6.9209-20.395-0.48114-9.3546 2.0982-16.951 16.323-48.073 3.2924-7.2033 4.7423-10.791 5.448-13.482 0.52733-2.0106 0.52447-2.0831-0.1521-3.8511-0.94135-2.4599-0.88442-3.081 0.38454-4.1952 1.3322-1.1697 3.7204-2.0845 8.1962-3.1398 2.8209-0.66507 4.2659-0.81848 7.8562-0.83402 3.9821-0.01728 4.5562 0.05178 6.0515 0.72769 2.1854 0.9878 3.3829 2.3981 3.8648 4.5515 0.35482 1.5855 0.32025 1.934-0.43032 4.3407-1.0512 3.3705-4.0694 9.2887-11.11 21.786-10.021 17.786-13.817 25.257-16.568 32.609-1.915 5.1174-2.483 8.0398-2.305 11.857 0.25001 5.3627 1.6146 8.5584 5.559 13.018 1.4782 1.6713 1.6305 1.977 1.486 2.9853-0.18086 1.2626 9.7379-18.476 16.411-32.658 7.7474-16.466 15.885-34.923 21.682-49.179 2.3426-5.7607 2.6835-6.4053 4.0875-7.7277 1.8248-1.7188 3.6361-2.3359 6.7815-2.3103 1.8679 0.01514 2.4941 0.17483 4.1514 1.0585 2.5614 1.3657 5.1926 4.1528 6.4428 6.8243 0.79041 1.6891 0.99223 2.5387 1.0103 4.2533 0.0123 1.1784 0.0942 2.143 0.18186 2.1434 0.0876 3.18e-4 1.7845-0.37989 3.771-0.84522 3.0121-0.70561 4.3681-0.84906 8.1683-0.86418 3.866-0.01536 4.7232 0.07061 5.6564 0.56767 3.7258 1.9845 5.0636 5.57 4.3768 11.731-1.4393 12.913-11.617 34.535-22.819 48.48-8.8745 11.047-17.67 16.856-24.578 16.232-3.737-0.33714-7.4348-2.6811-9.9185-6.2873l-1.1895-1.7271-1.2467 2.5735c-3.7058 7.6499-15.894 36.215-17.552 41.135-0.3325 0.98695-0.8099 2.2596-1.0608 2.8282-0.25096 0.56856-1.1174 2.7307-1.9254 4.8047-1.9807 5.084-2.4956 6.0329-3.5782 6.5927-1.2934 0.66888-2.7006 0.58517-4.8212-0.28682zm42.849-63.924c2.6829-1.7222 6.9017-6.7165 11.065-13.1 8.7332-13.388 13.408-25.792 11.307-29.998-0.77375-1.5488-2.0535-1.9111-5.4204-1.5344-1.4498 0.1622-2.6581 0.32633-2.6852 0.36474-0.027 0.0384-2.3908 4.1707-5.2526 9.183-5.6575 9.9084-11.209 20.132-15.159 27.915l-2.514 4.9538 0.94274 0.79817c1.3954 1.1814 3.9308 2.308 5.2021 2.3115 0.69653 2e-3 1.6427-0.33445 2.514-0.8937zm-1.4311 54.739c-1.5555-1.8378-2.8282-3.4456-2.8282-3.573s1.4848-1.5418 3.2996-3.1432c5.9402-5.2416 15.123-14.222 20.209-19.764l2.7188-2.9625 1.9726 1.8627c1.085 1.0245 2.6522 2.4748 3.4827 3.223l1.5101 1.3603-1.5125 1.6212c-0.83187 0.89163-1.7246 1.8482-1.9839 2.1256-4.311 4.6134-14.04 14.164-18.541 18.201-1.638 1.4691-3.4039 3.0593-3.9242 3.5338-0.5203 0.4745-1.0874 0.86137-1.2602 0.85971-0.17284-1e-3 -1.5869-1.5066-3.1425-3.3444zm38.888-40.344c-1.9444-1.5493-3.5353-2.8958-3.5353-2.9922 0-0.0964 1.9082-2.634 4.2405-5.6392 2.3323-3.0052 7.2978-9.5368 11.034-14.515 3.7367-4.9778 6.9061-9.1718 7.0432-9.3199 0.25416-0.27474 7.4737 5.0753 7.5134 5.5678 0.012 0.1488-1.0034 1.6072-2.2565 3.2408-1.2531 1.6337-3.0574 3.9866-4.0097 5.2288-0.95223 1.2422-1.9421 2.5672-2.1997 2.9446-0.65379 0.95779-11.709 15.388-13.398 17.488-0.37056 0.46077-0.72408 0.83215-0.78561 0.8253-0.0615-7e-3 -1.7028-1.2801-3.6472-2.8294zm-273.63-0.05022c-2.2469-0.33935-4.1756-0.71127-4.2861-0.82648-0.71176-0.74215 2.7462-13.969 5.0663-19.378 2.6852-6.261 8.6268-16.812 9.4673-16.812 0.2492 0 6.6179 4.3916 7.3195 5.0472 0.16397 0.15323-0.3133 1.1654-1.1321 2.4011-5.6864 8.5811-9.9544 19.397-11.415 28.926-0.11256 0.73455-0.36899 1.3186-0.56984 1.2978-0.20085-0.0207-2.2035-0.31535-4.4504-0.6547zm457.06-3.7856c-0.0211-3.488-1.155-11.753-2.0586-15.005-1.886-6.7885-3.0355-9.8756-5.6382-15.142l-0.72757-1.4722 4.1134-2.234c3.1435-1.7072 4.1785-2.1381 4.3891-1.8274 1.1012 1.6242 4.1988 8.9844 5.5272 13.134 2.212 6.909 3.8358 16.526 3.8358 22.719v2.1067h-9.4274l-0.0138-2.2783zm-146.96-38.688c-0.83432-0.715-2.0091-1.7429-2.6106-2.2842-0.60153-0.54129-1.5123-1.3373-2.0239-1.7689l-0.93024-0.78476 1.9188-2.1592c5.3241-5.9909 13.211-12.972 19.06-16.871 3.2082-2.1384 9.3317-5.681 9.4777-5.4831 0.34203 0.46345 3.9276 7.9804 3.9267 8.2321 0 0.18446-0.95516 0.82855-2.1212 1.4313-7.0649 3.6522-14.653 9.8059-22.921 18.587l-2.2595 2.3999zm126.86-8.2933c-6.1845-6.1254-15.608-11.841-25.297-15.345-2.4994-0.90371-2.8184-1.1047-2.744-1.7292 0.18777-1.5759 2.3494-7.8781 2.7556-8.034 0.98613-0.37842 12.814 4.6726 17.477 7.4636 5.7239 3.4259 9.693 6.4057 14.076 10.567l2.0603 1.9563-2.0426 1.9335c-1.1234 1.0634-2.679 2.5307-3.4567 3.2606l-1.4141 1.3272zm-81.636-19.488c-0.18835-0.64481-0.49889-2.0559-0.69011-3.1358-0.19125-1.0799-0.55637-2.5549-0.81144-3.2778-0.25508-0.72291-0.35494-1.4207-0.22199-1.5507 0.36547-0.3572 6.3243-1.4913 10.926-2.0794 4.5413-0.58041 20.97-0.76799 25.412-0.29014l2.4724 0.26597-0.16347 1.4624c-0.0899 0.80431-0.3386 2.911-0.5526 4.6815l-0.3891 3.2191-2.2341-0.23377c-1.2288-0.12858-6.1936-0.23109-11.033-0.2278-9.6327 7e-3 -14.299 0.47647-21.714 2.1867-0.54031 0.12464-0.72082-0.0592-1.0016-1.0203zm-132.52-24.46c-1.037-0.24889-3.2996-1.142-5.0279-1.9846-3.4948-1.7038-6.9744-4.5872-8.028-6.6524-1.8452-3.6169 0.53633-9.9812 5.6427-15.079 3.5628-3.5568 4.9225-4.2184 8.6702-4.2184 2.6185 0 3.0107 0.08712 5.2895 1.1752 3.3307 1.5904 6.0811 4.3308 7.639 7.6112 1.053 2.2173 1.1263 2.5589 0.98201 4.5757-0.31883 4.4561-4.7341 11.648-8.7084 14.185-1.6132 1.0298-3.3478 1.1337-6.4591 0.38695z"/>
</svg>
