<?xml version="1.0" encoding="utf-8"?>
<!-- Generator: Adobe Illustrator 15.0.0, SVG Export Plug-In . SVG Version: 6.00 Build 0)  -->
<!DOCTYPE svg PUBLIC "-//W3C//DTD SVG 1.1//EN" "http://www.w3.org/Graphics/SVG/1.1/DTD/svg11.dtd">
<svg version="1.1" id="Ebene_1" xmlns="http://www.w3.org/2000/svg" xmlns:xlink="http://www.w3.org/1999/xlink" x="0px" y="0px"
	 width="801px" height="479px" viewBox="-101.86 180.445 801 479" enable-background="new -101.86 180.445 801 479"
	 xml:space="preserve">
<g>
	<g>
		<path fill="#8FBE44" d="M680.037,400.106c0-7.229-2.788-13.976-7.877-19.129c-5.362-5.353-12.519-8.307-20.279-8.307h-19.285
			v220.994l-122.239,0.155v-88.428c-11.212,0.02-13.104,0.02-22.834,0.039v88.408l-122.181,0.195V415.184
			c-1.248,0-8.248-0.21-11.973-0.21v90.027c0,0-47.032,0.039-63.884,0.098v89.072l-126.228,0.176V415.204
			c-1.228,0-11.914,0.117-11.914,0.117v89.994c0,0-47.052,0.078-63.894,0.078v89.11l-126.232,0.176V372.671h-16.779
			c-16.087,0-29.663,13.279-29.663,28.952l0.2,197.111c0,7.137,2.823,13.942,7.897,19.07c5.318,5.382,12.538,8.326,20.254,8.326
			l707.447,0.02c16.087,0,29.697-13.26,29.697-28.937L680.037,400.106z"/>
		<path fill="#8FBE44" d="M510.356,372.671h-22.834v23.224c11.231,0,13.143-0.049,22.834-0.049V372.671z"/>
	</g>
	<path fill="#E42632" d="M76.749,206.504l-6.483,0.029c-3.792,0-6.897,3.076-6.897,6.83v29.921c0,2.715-2.354,5.011-5.128,5.031
		l-23.511,0.073c-1.331,0-2.608-0.551-3.549-1.458c-0.848-0.882-1.355-2.047-1.355-3.305v-29.912c0-1.848-0.707-3.593-2.028-4.904
		c-1.375-1.375-3.203-2.125-5.128-2.125l-6.483,0.039c-3.802,0.01-6.908,3.066-6.908,6.82v90.549c0,1.809,0.731,3.544,2.057,4.865
		c1.36,1.355,3.154,2.116,5.084,2.096l6.479-0.02c3.841,0,6.927-3.085,6.927-6.82v-31.159c0-2.696,2.345-5.012,5.143-5.012
		l23.482-0.068c1.365,0,2.593,0.507,3.544,1.428c0.877,0.907,1.375,2.062,1.375,3.31v31.16c0,1.857,0.711,3.554,2.018,4.904
		c1.37,1.365,3.193,2.106,5.123,2.106l6.479-0.039c3.802,0,6.927-3.047,6.927-6.791v-90.53c0-1.837-0.726-3.573-2.038-4.894
		C80.513,207.255,78.675,206.504,76.749,206.504 M112.008,206.378l-5.869,0.029c-3.836,0.02-6.946,3.076-6.946,6.82v5.099
		c0,1.838,0.736,3.573,2.042,4.885c1.37,1.375,3.178,2.125,5.113,2.125l5.879-0.029c3.836-0.02,6.927-3.076,6.927-6.83v-5.07
		c0-1.848-0.707-3.578-2.052-4.904C115.743,207.114,113.934,206.378,112.008,206.378 M112.008,232.004l-5.869,0.02
		c-3.836,0.039-6.946,3.096-6.946,6.839v64.893c0,1.828,0.736,3.554,2.042,4.899c1.37,1.36,3.178,2.13,5.113,2.101l5.879-0.015
		c3.836,0,6.927-3.061,6.927-6.815v-64.917c0-1.833-0.707-3.554-2.052-4.879C115.743,232.75,113.934,232.004,112.008,232.004
		 M159.42,231.854c-1.067,0-2.077-0.419-2.847-1.18c-0.887-0.926-1.414-2.213-1.414-3.554v-13.854c0-1.818-0.712-3.554-2.047-4.875
		c-1.37-1.355-3.174-2.116-5.094-2.106l-5.869,0.01c-3.832,0.029-6.957,3.085-6.957,6.849v13.82c0,2.706-1.608,4.992-3.495,4.992
		c-2.915,0.01-5.313,3.071-5.313,6.795v5.104c0,2.165,0.77,4.144,2.116,5.499c0.96,0.979,2.188,1.53,3.417,1.511
		c0.848,0,1.477,0.478,1.857,0.829c0.897,0.917,1.418,2.374,1.418,3.919v48.031c0,1.848,0.736,3.563,2.042,4.885
		c1.37,1.409,3.208,2.125,5.124,2.125l5.869-0.02c3.817-0.02,6.932-3.096,6.932-6.81v-48.031c0-2.725,2.052-4.992,4.46-4.992
		c3.495-0.02,6.288-3.105,6.288-6.849v-5.089c0-1.94-0.755-3.783-2.086-5.124C162.614,232.501,161.049,231.834,159.42,231.854
		 M267.475,259.996c4.002-5.689,6.595-14.044,6.595-21.274c0-7.804-2.554-14.946-7.575-21.205
		c-6.791-8.224-22.775-10.593-23.453-10.681c-3.315-0.458-8.735-0.838-12.138-0.838l-18.432,0.078c-3.812,0-6.917,3.066-6.917,6.81
		v90.51c0,1.848,0.716,3.563,2.057,4.904c1.345,1.384,3.173,2.115,5.089,2.115l6.489-0.048c3.836,0,6.912-3.066,6.912-6.781v-27.352
		c0-1.312,0.297-1.789,0.38-1.857c0.029,0.029,0.478,0.317,1.136,1.277l19.928,29.219c2.067,3.037,6.576,5.392,10.281,5.392
		l10.203-0.039c2.057-0.029,3.544-0.76,4.144-2.067c0.161-0.41,0.273-0.858,0.273-1.297c0-0.97-0.371-1.989-1.141-3.056
		c0,0-18.607-26.046-22.644-31.696C257.691,269.613,263.102,266.177,267.475,259.996 M242.175,253.02
		c-3.057,1.039-8.117,1.877-11.29,1.906c-1.292,0-2.486-0.488-3.378-1.418c-0.906-0.907-1.404-2.077-1.404-3.354v-19.338
		c0-2.686,2.354-4.972,5.148-4.972l5.752-0.01c5.499-0.01,9.994,1.516,12.938,4.475c2.447,2.452,3.714,5.767,3.714,9.642
		C253.655,249.008,242.307,252.971,242.175,253.02 M354.285,231.195l-4.367,0.039c-3.881,0.01-6.942,3.076-6.942,6.83v1.448
		c-6.024-6.469-15.346-10.813-24.179-10.764c-21.834,0.049-38.276,17.91-38.276,41.504c0,12.777,4.353,24.169,12.221,32.086
		c6.801,6.791,15.507,10.364,25.198,10.334c9.477-0.029,21.332-8.38,21.839-8.736c1.307-0.951,2.398-1.102,2.827-0.873
		c0.351,0.2,0.37,0.829,0.37,1.121c0,1.307,0.526,2.623,1.58,3.612c1.364,1.399,3.412,2.189,5.596,2.169l4.349-0.01
		c3.86,0,6.941-3.076,6.941-6.83v-64.913c0-1.848-0.741-3.554-2.047-4.875C358.029,231.956,356.215,231.195,354.285,231.195
		 M321.468,293.744c-5.44,0-10.568-2.116-14.449-5.952c-4.207-4.295-6.522-10.105-6.522-16.462c0-13.459,9.116-23.682,21.205-23.711
		c5.616-0.029,10.588,1.999,14.391,5.831c4.173,4.124,6.435,10.091,6.435,16.754C342.507,283.779,333.674,293.714,321.468,293.744
		 M445.736,205.266l-5.889,0.039c-3.861,0.015-6.941,3.086-6.941,6.83v24.671c-5.967-5.094-14.508-8.404-22.405-8.375
		c-21.156,0.049-38.394,18.948-38.394,42.118c0,11.622,4.602,22.882,12.558,30.901c7.059,7.068,16.067,10.973,25.329,10.939
		c9.75-0.02,20.845-8.272,21.313-8.633c1.502-1.16,2.477-1.131,2.789-0.951c0.155,0.122,0.312,0.531,0.312,1.068
		c0,1.321,0.565,2.618,1.56,3.617c1.385,1.409,3.433,2.204,5.577,2.184l4.388-0.029c3.86,0,6.941-3.042,6.941-6.82v-90.52
		c0-1.838-0.741-3.544-2.048-4.899C449.46,206.027,447.627,205.266,445.736,205.266 M413.036,293.441
		c-5.206,0.02-10.218-2.096-14.078-5.938c-4.388-4.407-6.903-10.725-6.903-17.403c0-12.09,9.848-22.722,21.06-22.751
		c5.284-0.034,10.335,2.096,14.195,6.001c4.349,4.3,6.806,10.491,6.806,16.847C434.115,282.99,424.676,293.402,413.036,293.441
		 M479.917,205.179l-5.85,0.01c-3.841,0.02-6.941,3.105-6.941,6.83v5.099c0,1.828,0.741,3.583,2.027,4.875
		c1.365,1.384,3.198,2.155,5.129,2.155l5.889-0.049c3.841-0.029,6.883-3.066,6.883-6.83v-5.089c0-1.818-0.702-3.549-2.027-4.894
		C483.681,205.949,481.868,205.179,479.917,205.179 M479.917,230.795l-5.85,0.01c-3.841,0.02-6.941,3.086-6.941,6.849v64.903
		c0,1.838,0.741,3.554,2.027,4.865c1.365,1.384,3.198,2.145,5.129,2.115l5.889-0.01c3.841,0,6.883-3.056,6.883-6.83v-64.864
		c0-1.896-0.702-3.602-2.027-4.914C483.681,231.546,481.868,230.795,479.917,230.795 M566.826,239.77
		c-7.625-7.614-17.667-11.812-28.294-11.768c-22.561,0.058-40.948,18.919-40.948,41.991c0,11.319,4.407,21.98,12.401,30
		c7.741,7.755,17.842,11.997,28.508,11.977c22.425-0.088,40.637-18.948,40.637-42.011
		C579.129,258.46,574.742,247.735,566.826,239.77 M538.416,293.022c-5.382,0.01-10.433-2.047-14.215-5.85
		c-4.31-4.261-6.63-10.325-6.63-17.013c0-12.567,9.632-23.208,21.039-23.238c4.992-0.015,9.828,2.042,13.591,5.83
		c4.388,4.46,6.922,10.778,6.922,17.35C559.142,282.941,550.056,292.983,538.416,293.022"/>
	<g>
		<polyline fill="#231F20" points="272.715,490.631 336.599,490.553 336.599,429.467 272.715,429.55 272.715,400.647 
			345.998,400.564 345.998,329.632 180.056,329.861 180.056,577.46 272.715,577.343 		"/>
		<polyline fill="#231F20" points="70.666,490.923 134.564,490.865 134.564,430.286 70.666,430.344 70.666,400.945 143.977,400.847 
			143.977,329.924 -21.989,330.173 -21.989,577.772 70.666,577.636 		"/>
		<polyline fill="#231F20" points="615.846,576.817 615.846,329.203 527.164,329.363 527.164,412.737 470.753,412.825 
			470.753,329.422 382.11,329.563 382.11,577.187 470.753,577.051 470.753,491.001 527.164,490.923 527.164,576.954 		"/>
	</g>
</g>
</svg>
