<svg xmlns="http://www.w3.org/2000/svg" width="500" height="527.439"><g fill="#0f3f93"><path d="M.475 393.343H24.25v40.577h36.456v-40.577h23.776v104.614H60.707v-43.43H24.251v43.43H.475zm133.938 23.142c20.13 0 38.834 14.74 38.834 41.211 0 26.471-18.704 42.005-38.834 42.005-20.289 0-38.834-15.534-38.834-42.005 0-26.47 18.545-41.211 38.834-41.211zm0 64.195c9.669 0 15.058-9.193 15.058-22.984 0-13.79-5.39-22.19-15.058-22.19-9.828 0-15.058 8.4-15.058 22.19 0 13.79 5.23 22.984 15.058 22.984zm73.706 46.76h-23.776V418.07h19.02l1.585 7.925c6.34-5.548 15.376-9.51 23.776-9.51 19.338 0 30.91 15.85 30.91 40.419 0 27.263-16.961 42.797-34.08 42.797-6.974 0-12.839-2.853-18.386-8.243zm12.522-46.76c8.242 0 14.74-6.974 14.74-23.46 0-14.265-4.279-21.556-13.79-21.556-4.755 0-9.034 2.22-13.63 7.291v32.494c4.12 3.804 8.717 5.23 12.68 5.23zm85.752-64.195c22.666 0 34.079 16.326 34.079 38.041 0 4.121-.793 7.609-1.268 9.51h-48.662c2.06 12.047 11.096 17.912 21.716 17.912 5.864 0 11.412-1.744 17.277-5.23l7.925 14.265c-8.242 5.548-19.813 8.084-29.324 8.084-22.825 0-39.626-14.9-39.626-41.212-.159-25.995 18.703-41.37 37.883-41.37zm14.265 33.286c0-9.193-4.755-15.85-14.265-15.85-7.45 0-14.266 5.389-15.85 16.009zm44.382-45.967h-30.116V392.71h76.083v11.095h-31.701v93.52H365.04zm51.99-11.095h14.266l27.105 91.617 27.738-91.617h13.632l-33.286 104.614h-15.851z" class="st1" fill-rule="evenodd"/><path d="M25.622 0C17.994 0-5.185 3.305 1.054 31.701L65.09 323.196c4.284 19.502 20.361 30.77 36.614 25.972l375.469-110.853c18.046-5.328 27.174-20.002 20.798-38.596L440.91 33.286C431.285 5.215 412.21 0 399.698 0z" fill-rule="evenodd"/></g><path d="M425.616 9.244c-1.922 1.737-4.963 4.12-6.897 6.607-44.382 46.6-155.812 198.926-164.847 198.926-5.706 0-69.426-83.692-160.092-129.183-21.715-11.413-19.02 2.853-12.68 7.925 6.34 5.706 74.18 81.314 85.593 133.146 5.706 27.263 10.937 46.284 6.34 101.444l166.433-49.137c5.7-73.305 40.374-146.904 96.057-257.648-2.976-5.114-6.354-9.063-9.907-12.08zm-176.5 33.553c-33.603-.634-61.817 27.739-61.817 61.817 0 34.08 28.214 61.818 61.818 61.818v.316c34.237 0 60.866-28.055 60.232-62.134 0-34.078-26.629-61.817-60.232-61.817zM172.9 328.147z" fill="#ffd500" fill-rule="evenodd"/></svg>