<svg xmlns="http://www.w3.org/2000/svg" width="800" height="352.175"><path d="M509.54 80.91v183.286h27.824v-79.939h72.725v79.939h27.824V80.91H610.09v78.467h-72.725V80.91zm160.614 0v183.286h62.42c13.592 0 25.115-2.897 34.596-8.686 9.565-5.873 17.07-13.083 22.524-21.641 4.111-6.376 6.754-12.994 8.097-19.874 1.426-6.964 2.208-20.728 2.208-41.368 0-19.213-.465-32.216-1.472-39.013s-3.861-14.132-8.391-21.935c-12.166-20.556-30.709-30.768-55.795-30.768zm27.824 26.352h33.271c14.179 0 25.047 5.075 32.682 15.311 3.692 5.034 5.933 10.638 6.772 16.93.923 6.293 1.472 17.71 1.472 34.154 0 17.032-.486 28.196-1.325 33.566a36.14 36.14 0 0 1-5.594 14.869c-7.383 10.656-18.737 16.047-34.007 16.047h-33.271z" fill="#5a5a5a"/><path d="M233.301 352.042C155.534 353.715 61.043 339.499 0 312.741v-23.414c64.388 26.759 150.517 40.974 228.284 39.302 84.457-1.672 170.586-15.052 231.629-39.302v23.414c-67.733 25.086-143.827 37.629-226.612 39.302M39.302 0v87.802s28.431-5.017 51.009-5.017c39.302 0 59.371 21.741 61.043 49.336v132.957h-39.302V148.845c0-15.052 0-33.448-31.776-33.448-23.414 0-39.302 5.017-39.302 5.017v143.827H0V1.672zm258.387 81.112s-38.465 1.672-59.371 6.69C211.56 92.819 195.672 109.543 194 132.12v132.957h42.646V148.008c0-10.034 0-16.724 8.362-23.414s25.086-8.362 35.121-8.362c6.69 0 20.069-1.672 20.069-1.672V81.112z" fill="#006eb7"/></svg>