<svg xmlns="http://www.w3.org/2000/svg" width="587.665" height="450"><path d="M298.106 449.831C198.738 451.968 77.999 433.803 0 399.612v-29.917c82.273 34.191 192.327 52.356 291.695 50.219 107.917-2.137 217.97-19.233 295.969-50.219v29.917c-86.547 32.054-183.779 48.082-289.558 50.219M50.219 0v112.191s36.328-6.411 65.177-6.411c50.219 0 75.862 27.781 77.999 63.04v169.889h-50.219V190.19c0-19.233 0-42.739-40.602-42.739-29.917 0-50.219 6.411-50.219 6.411V337.64H0V2.137zM380.38 103.643s-49.15 2.137-75.862 8.548c-34.191 6.411-54.493 27.781-56.63 56.63V338.71h54.493V189.121c0-12.822 0-21.37 10.685-29.917s32.054-10.685 44.876-10.685c8.548 0 25.644-2.137 25.644-2.137v-42.739z" fill="#006eb7"/></svg>