<svg xmlns="http://www.w3.org/2000/svg" width="750.905" height="450" ><path d="M750.905 222.283v55.63c-20.477-1.881-147.553-12.795-204.27-15.709V15.841C603.22 12.742 709.845 3.868 746.985.477v55.286l-143.606 7.02v52.346q58.624-.715 117.115-1.695v51.021l-117.115-1.695v52.319l147.527 7.205zm-243.714-35.63c0-57.458-65.723-68.876-111.526-74.174-19.444-2.305-68.611-9.59-68.611-26.491 0-13.696 17.961-25.034 57.061-25.034 30.464 0 56.346 6.941 79.922 21.616a7.947 7.947 0 0 0 10.146-1.589l27.842-32.61c-34.438-24.08-74.704-32.716-114.148-32.716-67.949 0-119.341 25.007-119.341 71.313 0 52.081 59.419 64.452 96.744 70.174 34.888 5.298 83.34 7.391 83.34 29.961 0 20.636-38.835 30.04-67.498 30.04-21.325 0-42.544-4.848-73.406-19.497a7.947 7.947 0 0 0-9.378 2.013l-28.61 33.352c39.736 22.04 85.538 29.299 112.665 29.299 62.995 0 124.745-23.153 124.745-75.657zm-338.842-71.26l-108.771-1.404V5.431Q29.776 2.914 0 0v277.834q29.749-2.967 59.578-5.298V163.951q54.359-.927 108.771-1.43v102.334q28.372-1.589 56.77-2.649V15.841q-28.398-1.113-56.77-2.649z" fill="#ff3c28"/><path d="M148.851 371.002v25.669h32.398v13.245h-32.398v26.173h41.114v13.775h-58.412v-92.717h58.412v13.722zm154.679 78.889h-17.086a4.265 4.265 0 0 1-2.861-.901 7.338 7.338 0 0 1-1.695-2.04l-21.457-35.551a12.663 12.663 0 0 1-1.219 2.649l-20.557 32.795a12.53 12.53 0 0 1-1.748 2.013 3.709 3.709 0 0 1-2.649.927h-16.08l30.729-47.683-29.511-45.034h17.166a5.298 5.298 0 0 1 2.649.477 4.874 4.874 0 0 1 1.51 1.589l21.06 33.935a25.219 25.219 0 0 1 1.536-3.205l19.338-30.411a5.59 5.59 0 0 1 1.536-1.801 3.576 3.576 0 0 1 2.119-.583h16.451l-29.855 44.425zm98.36-78.438h-28.027v78.439h-17.219v-78.439h-27.815V357.28h73.061zm104.983 78.438h-15.577a6.782 6.782 0 0 1-6.384-3.444l-19.471-29.67a6.994 6.994 0 0 0-2.411-2.358 8.292 8.292 0 0 0-3.868-.715h-7.364v36.186h-17.245v-92.717h28.239a58.942 58.942 0 0 1 16.186 1.96 30.756 30.756 0 0 1 11.073 5.484 21.193 21.193 0 0 1 6.384 8.424 29.325 29.325 0 0 1 .662 19.63 25.14 25.14 0 0 1-3.974 7.55 27.524 27.524 0 0 1-6.384 5.96 32.716 32.716 0 0 1-8.689 4.027 17.086 17.086 0 0 1 3.073 2.278 16.663 16.663 0 0 1 2.649 3.099zm-44.319-48.399a27.126 27.126 0 0 0 8.477-1.219 16.636 16.636 0 0 0 5.96-3.364 13.484 13.484 0 0 0 3.497-5.086 17.775 17.775 0 0 0 1.139-6.49 13.245 13.245 0 0 0-4.636-10.808 22.226 22.226 0 0 0-14.199-3.788h-10.994v30.756zm156.772 48.399h-13.245a5.643 5.643 0 0 1-3.629-1.113 6.861 6.861 0 0 1-2.119-2.649l-6.914-18.888H554.98l-6.941 18.888a5.801 5.801 0 0 1-1.96 2.649 5.59 5.59 0 0 1-3.656 1.219h-13.457l36.451-92.717h17.537zm-30.411-34.968l-11.285-30.809c-.556-1.351-1.113-2.993-1.722-4.874l-1.801-6.066-1.722 6.119-1.722 4.954-11.206 30.676z" fill="#0a192d"/></svg>