<svg xmlns="http://www.w3.org/2000/svg" width="599.997" height="124.846"><g transform="matrix(.464547 0 0 .464547 -133.876561 -29.35814)"><path d="M682.25 89.156c-31.776-2.278-63.86 16.31-76.78 45.438V96.406h-54.094c-1.158 55.742 2.23 111.682-2.53 167.28-4.72 17-28.28 21.954-41.03 11.125-9.403-7.333-6.364-20.45-7.67-30.81l-2.15-140.343c2.527-8.527-6.5-5.735-11.986-6.382-18.268-.553-36.342-1.45-54.13-.87h-35l-1.094 87.5-53.47.844-1.344-88.906-52.78.53V323.28h54.188v-86.344h54.28v86.344h52.156v-44.437c8.98 29.912 37.845 52.822 69.438 52.78 30.14 2.685 62.455-11.6 76.594-38.97 2.303-4.06 4.018-8.38 5.5-12.812 19.92 41.815 75.02 63.485 117.563 44 28.592-12.224 48.12-43.67 43.75-75-2.747-25.648-21.572-47.773-45.406-56.594-19.276-8.187-42.953-9.944-57.875-25.97-6.713-12.015 6.043-26.934 18.844-25.812 15.9-.44 29.853 9.783 39.938 21.22 12.315-4.122 18.812-16.327 28.03-24.47 2.165-3.4.95 3.492.78 5-1.945 5.2 1.81 11.388 7.656 10.75 16.196-.914 32.506-.16 48.75-.406v172.75h54.156v-172.75h50.28V325.5l314.392-1.1s-.413-6.4.022-12.242l1.336-56.065 53.063 68.25 63.746-.544s-8.795-15.045-13.152-19.55c-17.387-24.945-36.805-48.37-53.72-73.625 22.553-8.063 41.788-27.254 45.653-51.514 4.475-23.024-.468-50.005-19.528-65.142-20.28-17.26-48.44-18.52-74-19.123-19.638.01-39.532-.082-59 1.06-7.45 1.67-15.386-.403-23 .5h-105.25V272.25l-76.406-1.062V96.406H746.125c-.095 6.958.18 14.71-.125 21.22-17.196-16.125-39.367-29.548-63.75-28.47h0zm482.22 61.406c.505 11.284-.172 22.95 0 34.375l-74.063-1.03-.78-33.344h74.844zm67.75 0c10.76-.033 25.18-.286 31.094 10.47 4.494 9.723-5.984 19.553-15.28 20.5-8.46 2.036-17.282 1.104-25.937 1.094v-32.062h10.125zm-626.375 35.094c12.195 25.61 39.25 38.907 64.966 47.605 10.822 4.568 22.92 7.423 31.815 15.395 6.927 7.15 4.514 19.088-3.47 24.375-11.523 9.14-28.668 6.778-39.312-2.72-9.79-7.39-17.75-16.818-26.72-25.094-10.26 10.045-21.774 18.835-31.312 29.438 5.133-20.384 2.275-41.647 3.47-62.437l.217-27.344.344.78zm558.375 61.188l.125 25.375-74.275-1.03.338-35.375 73.813-1.03v12.063z" fill="#b7b7b7"/><path d="M499.71 320.547c-20.454-6.666-35.83-21.995-42.527-42.392-4.13-12.58-4.32-16.7-4.32-93.53V104.25l37.157 1.155 1.004 80.34c.9 71.9 1.378 81.024 4.56 86.85 9.044 16.55 35.428 21.234 50.097 8.89 13.305-11.195 13.538-12.9 13.587-99.254l.044-77.83h38.16v76.05c0 41.827-.868 80.624-1.928 86.217-4.413 23.27-17.752 40.937-37.944 50.254-9.24 4.263-14.883 6.205-30.425 6.663-12.128.358-22.137-1.3-27.468-3.036h0 0zm163.04-.05c-19.645-4.868-39.71-18.96-49.462-34.74l-4.298-6.954 10.744-10.88c10.723-8.898 13.304-11.556 13.304-11.556s22.462 23.15 32.266 26.818c12.82 4.796 20.227 5.012 30.123.877 15.255-6.374 22.077-18.306 18.296-32.002-2.66-9.64-11.932-16.08-35.007-24.33-33.118-11.165-69.015-29.6-70.685-68.1.012-14.614 3.353-19.615 6.83-26.1 6.4-11.977 18.124-23.01 30.686-28.9 10.022-4.7 13.573-7.41 34.278-7.41 20.814 0 24.225 2.694 34.496 7.51 6.27 2.94 15.578 9.196 20.687 13.905l9.288 8.562-25.014 25.238-7.37-6.657c-16.358-14.778-42.2-17.7-54.27-6.136-3.314 3.175-7.04 9.153-8.276 13.284-5.305 17.708 9.284 30.485 46.527 40.746 40.635 11.196 60.27 34.677 57.798 69.12-2.986 41.594-45.948 68.86-90.938 57.712zm147.624-89.56V144.57H754.14V104.4h148.63v40.17h-54.23v172.73h-38.16v-86.365zm104.442-20.055V104.4h38.16v174.654l79.336 1.09v36.153l-117.497 1.065v-106.48zm130.552 0V104.4h116.493v38.16h-79.957l.622 49.208 77.327 1.09v33.97l-77.327 1.09.395 51.13 77.936 1.1v36.153l-115.49 1.066v-106.48zM1172.475 316.5l-.088-108.67.522-104.442 30.115-.56c53.503-.992 77.574 4.115 93.243 19.783 10.948 10.948 15.172 22.388 15.148 41.03-.025 19.968-5.465 33.426-18.284 45.243-8.437 7.777-25.392 16.143-33.55 18.04l32.833 44.867 32.136 44.23c0 .77-10.133 1.145-22.518.833l-22.518-.568-64.427-82.767-2.01 82.767-19.618.575-20.986-.363zm85.866-130.262c14.07-7.1 18.34-21.547 9.636-32.61-6.574-8.358-15.343-11.074-35.75-11.074h-18.14v48.204h17.65c14.312 0 19.345-.855 26.606-4.52zm-962.14 23.524V104.25l36.904-.364.795 45.25.54 43.732 69.214-1.1 1.083-87.37h36.075v210.892H404.66v-86.365h-70.297v86.365h-38.16v-105.52z"/><path d="M1404.243 63.76c-50.876.643-101.956-1.188-152.656 3.53-6.205 1.45-12.334 1.238-15.312 6.925-1 .77-4.62-1.645-9.705-.352-10.646 2.708-26.05 9.687-25.594 12.084.797 4.2 35.77 9.58 40.236 10.373 2.09.552 8.577-1.892 7.642 1.165 2.514 3.692 14.742 6.8 24.646 7.4 24.962 1.534 47.532.612 72.14 4.386-20.935 42.992-43.707 89.094-50.68 136.852-.895 8.666-1.415 17.508 1.047 25.963 2.474 6.424 7.668 10.32 15.012 14.122 3.915 9.004 14.477 10.25 17.033 1.207 3.083-6.38 6.105-12.778 6.47-20.135 6.918-38.033 17.696-75.732 35.688-110.094 6.228-11.274 12.844-22.85 21.906-31.875-8.495 41.346-18.29 82.904-18.78 125.28.46 11.5 1.81 24.915 11.344 32.594 7.126 5.585 18.46 4.143 23.277-3.8 19.28-23.294 35.316-49.28 56.317-71.335 29.37-33.366 62.108-63.603 96.844-91.5 1.986-1.646 17.216-10.36 18.057-12.817 1.05-3.062-7-2.472-9.236-5.25.518-3.84 2.437-6.065 3.948-9.994 3.153-8.202-8.187.868-8.38-.232-.69-3.918-.867-6.954-4.7-5.966-6.37.532-19.185 4.692-24.89 6.097-6.775-.972-14.674 10.45-20.87 12.56-3.182 1.248-1.785-7.74-5.043-5.347-5.77 4.237-16.2 20.464-21.582 23.296-23.358 23.673-44.53 49.4-65.625 75.156 5.556-24.494 10.927-49.466 23.187-71.594 1.896-4.024 1.8-9.166-.437-12.812 9.387-.907 19.657-9.635 20.3-18.472.01-1.422 5.934-3.58 6.138-5.024.46-3.258-6.59-6.53-8.365-9.63-4.603-11.035-17.97-13.193-28.625-12.614-10.248-.264-20.5-.265-30.75-.167z" fill="#b7b7b7" stroke="#b7b7b7"/><path d="M1317.357 274.808c-.36-8.292-.49-8.482-2.34-3.414-.952 2.606-2.29 4.272-3.65 4.922-1.25.598-2.336 7.048-3.33 5.87-.486-.575-1.086-8.08-1.4-9.1-1.013-3.2-1.374-6.26-1.35-12.442 0-.286-1.38 8.382-1.452 7.533-.516-6.19.628-11.297.647-11.578.685-10.334 2.396-22.914 4.892-32.52 6.58-25.32 22.472-66.33 37.127-95.807l13.196-26.544-21.69-1.25c-11.93-.687-35.737-1.28-52.906-1.318-28.62-.062-38.764-2.105-21.362-4.055 2.603-.292 8.864-.305 12.57-.6 25.272-2.012 24.088-5.027-2.036-5.188-12.287-.075-24.096-.892-26.242-1.814s-6.226-1.74-4.918-1.814 5.326-1.298 4.782-2.716c-.282-.734-2.648-4.382-1.457-4.47 2.152-.16 4.2-2.238 6.266-2.863 4.78-1.447 22.455-3.454 100.11-3.923 93.158-.563 95.106 2.034 98.973 5.9 4.58 4.58 3.614 8.902-2.443 10.917l-4.255 1.415 6.69.464c2.414.475 2.7 2.528 2.1 3.74-2.3 4.503-10.018 7.006-35.028 7.006-16 0-28.738.25-30.543 1.39-.845.533 6.966-.263 7.25.817.657 2.512-2.55 7.358-8.554 12.633-22.21 19.508-45.664 71.3-58.765 129.777-2.794 12.47-5.08 24.542-5.08 26.827s-.814 4.155-1.808 4.155-3.728 12.27-4.22 14.148-1.57-8.992.246-16.1zm-5.926-12.797c0-9.454-3.04-8.392-3.6 1.26-.304 5.152.252 7.528 1.57 6.714 1.122-.693 2.04-4.282 2.04-7.975zm-44.875-180.36c0-1.073-2.143-1.95-4.763-1.95s-5.305.878-5.968 1.95c-.704 1.138 1.28 1.95 4.763 1.95 3.283 0 5.968-.878 5.968-1.95zm125.315 193.802c-5.224-2.102-8.25-12.15-8.245-27.376.01-21.302 2.803-41.8 12.45-91.3 7.982-40.96 8.603-43.04 13.584-45.48 5.764-2.822 20.448-1.515 25.582 2.276 2.7 1.994 2.62 2.955-.752 9.06-6.645 12.027-8.143 16.12-15.004 40.973-7.04 25.507-13.685 61.853-11.673 63.864.645.645 1.43.806 1.744.36 17.838-25.328 84.523-103.244 88.362-103.244.867 0 4.153-2.414 7.302-5.365l5.725-5.365-2.336 4.878c-1.847 3.856-.872 3.345 4.65-2.44 6.643-6.956 10.517-9.584 7.9-5.365-.663 1.073-.328 1.95.745 1.95s5.27-3.64 5.904-4.665-1.4 2.812.122 3.396 6.665-2.46 10.205-5.056c6.09-4.464 15.216-6.73 15.216-3.778 0 .748-1.756 2.457-3.902 3.797s-3.902 3.357-3.902 4.482 1.943.684 4.336-.992c2.385-1.67 5.064-3.037 5.954-3.037s-7.36 7.152-18.332 15.893c-40.56 32.313-91.985 86.838-120.26 127.51-11.08 15.94-19.843 26.46-21.808 26.185-.604-.085-2.214-.603-3.578-1.152zM1543.6 106.335c0-1.073-2.195.11-4.878 2.63s-4.878 5.46-4.878 6.533 2.195-.11 4.878-2.63 4.878-5.46 4.878-6.533z" fill="#cf0712"/><path d="M1442.227 279.202v-18.246h-5.588v-2.44h13.448v2.44h-5.616v18.246zm10.1 0v-20.687h3.373l4.022 14.647.804 3.062.903-3.316 4.064-14.393h3.02v20.687h-2.16v-17.315l-4.94 17.315h-2.018l-4.9-17.6v17.6z" stroke="#000" stroke-width="1.07"/></g></svg>