<svg id="Ebene_1" xmlns="http://www.w3.org/2000/svg" viewBox="0 0 503.3 266.7"><style>.st0{fill:#f39200}</style><path class="st0" d="M129.4 94.2c4.3-.3 9-.5 14.8-.5 12 0 16.3 4.5 16.3 19.6s-4.3 19.6-16.3 19.6c-5.8 0-10.5-.3-14.8-.5V94.2zm8.4 32c2 0 4.1.1 6.4.1 5.7 0 7.4-2.9 7.4-12.9s-1.7-13-7.4-13l-6.4.1v25.7zM173.2 122.4l-2.8 10h-8.6l11-36c.3-1.4 1.5-2.2 2.9-2.2h8c1.4 0 2.6.9 2.9 2.2l11 36H189l-2.8-10h-13zm8.1-18.2c-.3-1.2-.6-2.5-.8-3.6H179c-.3 1.2-.6 2.5-.9 3.6l-3.2 11.7h9.5l-3.1-11.7zM208 115.3c-5.8-2.1-7.9-5.5-7.9-11.2 0-8.8 4-10.6 13.9-10.6 3.7 0 8.3.3 12.6 1.5l-.5 5.8c-3.2-.1-7.9-.2-11.9-.2-4.1 0-5.5.3-5.5 3.5 0 2.6 1.1 3.4 4 4.3l7.2 2.5c6.1 2.1 8.1 5.6 8.1 11.2 0 8.7-3.7 11-14.1 11-2.5 0-7.2-.2-13.1-1.4l.5-6.1c7.1.2 10.2.3 12.6.3 4.4 0 5.6-.6 5.6-3.7 0-2.7-1-3.4-3.6-4.2l-7.9-2.7z"/><path d="M166.4 205.3c1.8 0 2.7.9 2.8 2.8l1.3 30.9h-7.1l-1.1-27.9h-.9l-5.1 20.9c-.3 1.6-1.4 2.4-3.1 2.4h-4.9c-1.7 0-2.7-.8-3.1-2.4l-5.1-20.9h-.9l-.9 27.9h-7.1l1.2-30.9c.1-1.8.9-2.8 2.8-2.8h7.2c1.6 0 2.6.9 2.9 2.4l4.1 16.8c.4 1.6.6 3.2.9 4.8h.6c.3-1.5.5-3.2.9-4.8l4.1-16.8c.4-1.5 1.4-2.4 3.1-2.4h7.4zM183.4 230.3l-2.5 8.9h-7.7l9.7-31.8c.3-1.2 1.4-2 2.6-2h7.1c1.3 0 2.3.8 2.6 2l9.7 31.8h-7.5l-2.5-8.9h-11.5zm7.1-16.1c-.3-1-.5-2.1-.7-3.2h-1.3c-.3 1-.5 2.1-.8 3.2l-2.8 10.3h8.4l-2.8-10.3zM215.7 230.5c0 1.8.8 2.5 2.6 2.5H230l.3 5.7c-4.5.5-9.5.5-14.3.5-5.4 0-7.7-3.1-7.7-7.2v-26.7h7.4v25.2zM241.7 230.5c0 1.8.8 2.5 2.6 2.5h11.6l.3 5.7c-4.5.5-9.5.5-14.3.5-5.4 0-7.7-3.1-7.7-7.2v-26.7h7.4l.1 25.2zM287.7 222.2c0 13.5-3.8 17.5-14.5 17.5s-14.4-3.9-14.4-17.5 3.7-17.5 14.4-17.5 14.5 4 14.5 17.5zm-21 0c0 8.9 1.5 11.5 6.6 11.5s6.6-2.6 6.6-11.5-1.5-11.5-6.6-11.5c-5.2.1-6.6 2.6-6.6 11.5zM312 239.1l-2.6-10.3c-.6-2.1-1.6-2.8-3.6-2.8l-5.2-.1v13.2h-7.3v-33.7c4.1-.4 6.8-.4 12.9-.4 8.8 0 12.4 2.2 12.4 10 0 4.8-1.7 7.7-6.5 8.3v.3c1.7.4 4 1.6 4.8 5.1l2.9 10.5H312v-.1zm-5.9-18.9c3.9 0 5.1-1.1 5.1-4.8s-1.2-4.8-5.1-4.8l-5.4.1v9.5h5.4zM348.5 238.3c-3.2.9-6 1.4-10.8 1.4-10.4 0-14.1-4.6-14.1-17.5s3.7-17.5 14.1-17.5c4.8 0 7.1.3 10.1 1.1l-.6 5.5c-3.2-.2-5.2-.3-9.5-.3-4.9 0-6.4 2.5-6.4 11s1.4 11 6.4 11c4.5 0 7.2-.1 10.1-.4l.7 5.7zM360 230.3l-2.5 8.9h-7.7l9.7-31.8c.3-1.2 1.4-2 2.6-2h7.1c1.3 0 2.3.8 2.6 2l9.7 31.8h-7.6l-2.5-8.9H360zm7.1-16.1c-.3-1-.5-2.1-.7-3.2h-1.3c-.3 1-.5 2.1-.8 3.2l-2.8 10.3h8.4l-2.8-10.3z"/><linearGradient id="SVGID_1_" gradientUnits="userSpaceOnUse" x1="304.1" y1="-35.3" x2="304.1" y2="73.1" gradientTransform="matrix(1 0 0 -1 0 96.6)"><stop offset=".123" stop-color="#be1622"/><stop offset=".251" stop-color="#c83621"/><stop offset=".467" stop-color="#da5e1b"/><stop offset=".663" stop-color="#e77b0e"/><stop offset=".828" stop-color="#f08c00"/><stop offset=".945" stop-color="#f39200"/></linearGradient><path d="M321.7 79.3c-31.4-2.9-45.5 16.3-45.4 12.4.4-12.9 9.8-22.6 24.4-24.9 4-.6 1.1-.2 4.2-.3-9.1-3.3-20.2-6.4-31.6-7.2-6.3-.4-10.5-.5-10.5-.5s14.6-9.7 30.8-6.6c3.2.6 18.8 4 20.9 5.5.6.4-5.3-9.7-10-15.2-3.3-3.7-8.9-9-7.7-9.2 7.2-1.4 31.2 16 32.3 26.2 4.9-4.3 3.2-7 15.3-10.2 18.7-5 14-1.5 8.9 1.4-2 1.1-7.9 5.1-11.9 10.2-2.4 3.1-.9 1.2-3 3.7 9.8-6 23-11.3 35.8-3.7.1.1.3.2.3.2-13.1-22.5-37.5-37.6-65.3-37.6-41.7 0-75.5 33.8-75.5 75.5 0 11.8 2.7 22.9 7.5 32.9h55.1c1.4-19.3 14.5-37.6 25.4-52.6z" fill="url(#SVGID_1_)"/><linearGradient id="SVGID_2_" gradientUnits="userSpaceOnUse" x1="348.1" y1="-35.3" x2="348.1" y2="25.858" gradientTransform="matrix(1 0 0 -1 0 96.6)"><stop offset=".123" stop-color="#be1622"/><stop offset=".195" stop-color="#c32623"/><stop offset=".573" stop-color="#e06125"/><stop offset=".753" stop-color="#ec7924"/></linearGradient><path d="M375.1 71.9c-9.5-1.8-20.2-1.4-30.1.5 1.8 2.5 6.8 6 11.7 13.1 13.5 19.7 1.3 37.6 1.6 34.3.3-3.2-4.5-25.5-27.5-39.8-13.5 21-17.9 38.7-19.5 51.9h66.1c4.8-10 7.5-21.1 7.5-32.9 0-9-1.6-17.7-4.5-25.7-1.9-.5-3.6-1-5.3-1.4z" fill="url(#SVGID_2_)"/><g><linearGradient id="SVGID_3_" gradientUnits="userSpaceOnUse" x1="49.35" y1="-98" x2="49.35" y2="-41.8" gradientTransform="matrix(1 0 0 -1 0 96.6)"><stop offset=".433" stop-color="#be1622"/><stop offset=".528" stop-color="#c32921"/><stop offset=".71" stop-color="#d24e1e"/><stop offset=".959" stop-color="#e80"/><stop offset="1" stop-color="#f39200"/></linearGradient><path d="M43.2 194.6v-56.2h12.3v56.2H43.2z" fill="url(#SVGID_3_)"/><linearGradient id="SVGID_4_" gradientUnits="userSpaceOnUse" x1="84.45" y1="-98.036" x2="84.45" y2="-41.808" gradientTransform="matrix(1 0 0 -1 0 96.6)"><stop offset=".433" stop-color="#be1622"/><stop offset=".528" stop-color="#c32921"/><stop offset=".71" stop-color="#d24e1e"/><stop offset=".959" stop-color="#e80"/><stop offset="1" stop-color="#f39200"/></linearGradient><path d="M107.9 190.2c0 2.9-1.4 4.5-4.4 4.5h-7.7c-2.6 0-3.7-1.2-4.9-3.7l-14.7-30c-1.1-2.5-2.8-6-3.4-8.7h-.9c.4 2.9.6 6 .6 8.9v33.5H60.7v-51.8c0-2.9 1.5-4.5 4.5-4.5h7.6c2.6 0 3.7 1.2 4.9 3.7l14.2 29.1c1.2 2.5 2.8 5.9 4.1 9h.9c-.3-3.2-.5-6.3-.5-9.5v-32.4h11.8v51.9h-.3z" fill="url(#SVGID_4_)"/><linearGradient id="SVGID_5_" gradientUnits="userSpaceOnUse" x1="132.5" y1="-99.1" x2="132.5" y2="-40.8" gradientTransform="matrix(1 0 0 -1 0 96.6)"><stop offset=".433" stop-color="#be1622"/><stop offset=".528" stop-color="#c32921"/><stop offset=".71" stop-color="#d24e1e"/><stop offset=".959" stop-color="#e80"/><stop offset="1" stop-color="#f39200"/></linearGradient><path d="M123.9 169.4c-8.6-3.1-11.7-8.2-11.7-16.4 0-12.9 6-15.6 20.4-15.6 5.5 0 12.3.4 18.5 2.2l-.9 8.5c-4.8-.2-11.7-.3-17.6-.3-6 0-8.2.3-8.2 5.1 0 3.9 1.6 4.9 5.9 6.4l10.6 3.7c8.9 3.2 11.9 8.3 11.9 16.5 0 12.8-5.5 16.2-20.9 16.2-3.6 0-10.6-.3-19.3-2.1l.8-8.9c10.4.3 15 .4 18.6.4 6.6 0 8.3-.9 8.3-5.4 0-4-1.5-4.9-5.3-6.2l-11.1-4.1z" fill="url(#SVGID_5_)"/><linearGradient id="SVGID_6_" gradientUnits="userSpaceOnUse" x1="175.8" y1="-98.28" x2="175.8" y2="-41.58" gradientTransform="matrix(1 0 0 -1 0 96.6)"><stop offset=".433" stop-color="#be1622"/><stop offset=".528" stop-color="#c32921"/><stop offset=".71" stop-color="#d24e1e"/><stop offset=".959" stop-color="#e80"/><stop offset="1" stop-color="#f39200"/></linearGradient><path d="M195 194.1c-7.7.9-17.4.9-26.1.9-7.5 0-12.3-4.4-12.3-11.3v-34.1c.1-6.9 4.9-11.3 12.3-11.3 8.7 0 18.4 0 26.1.9l-.6 9.2h-21.6c-2.7 0-3.8 1.2-3.8 4.2v8.4h22.4v8.9H169v10.8c0 3 1.1 4.3 3.8 4.3h21.6l.6 9.1z" fill="url(#SVGID_6_)"/><linearGradient id="SVGID_7_" gradientUnits="userSpaceOnUse" x1="218.85" y1="-98.267" x2="218.85" y2="-41.767" gradientTransform="matrix(1 0 0 -1 0 96.6)"><stop offset=".433" stop-color="#be1622"/><stop offset=".528" stop-color="#c32921"/><stop offset=".71" stop-color="#d24e1e"/><stop offset=".959" stop-color="#e80"/><stop offset="1" stop-color="#f39200"/></linearGradient><path d="M212.9 180.4c0 2.9 1.2 4.2 4.4 4.2h19.3l.6 9.5c-7.5.9-15.8.9-23.8.9-9 0-12.9-5-12.9-12v-44.5H213l-.1 41.9z" fill="url(#SVGID_7_)"/><linearGradient id="SVGID_8_" gradientUnits="userSpaceOnUse" x1="262.95" y1="-98" x2="262.95" y2="-41.04" gradientTransform="matrix(1 0 0 -1 0 96.6)"><stop offset=".433" stop-color="#be1622"/><stop offset=".528" stop-color="#c32921"/><stop offset=".71" stop-color="#d24e1e"/><stop offset=".959" stop-color="#e80"/><stop offset="1" stop-color="#f39200"/></linearGradient><path d="M272 194.6l-4.3-17.2c-1-3.6-2.7-4.8-6-4.8l-8.7-.1v22h-12.3v-56.2c6.7-.7 11.3-.8 21.5-.8 14.6 0 20.8 3.7 20.8 16.6 0 7.9-2.8 12.9-10.7 14v.4c2.8.7 6.6 2.7 8 8.5l4.9 17.5H272v.1zm-10-31.5c6.6 0 8.5-1.8 8.5-8 0-6.3-2-7.9-8.5-7.9l-8.9.1v15.8h8.9z" fill="url(#SVGID_8_)"/><linearGradient id="SVGID_9_" gradientUnits="userSpaceOnUse" x1="312.4" y1="-98" x2="312.4" y2="-41.8" gradientTransform="matrix(1 0 0 -1 0 96.6)"><stop offset=".433" stop-color="#be1622"/><stop offset=".528" stop-color="#c32921"/><stop offset=".71" stop-color="#d24e1e"/><stop offset=".959" stop-color="#e80"/><stop offset="1" stop-color="#f39200"/></linearGradient><path d="M302.8 179.9l-4.1 14.7H286l16.2-53c.5-2 2.3-3.2 4.3-3.2h11.8c2.1 0 3.8 1.2 4.3 3.2l16.2 53h-12.6l-4.1-14.7h-19.3zm11.9-26.8c-.4-1.7-.9-3.6-1.1-5.3h-2.2c-.4 1.7-.9 3.6-1.2 5.3l-4.7 17.2h14l-4.8-17.2z" fill="url(#SVGID_9_)"/><linearGradient id="SVGID_10_" gradientUnits="userSpaceOnUse" x1="364.15" y1="-98.8" x2="364.15" y2="-41.068" gradientTransform="matrix(1 0 0 -1 0 96.6)"><stop offset=".433" stop-color="#be1622"/><stop offset=".528" stop-color="#c32921"/><stop offset=".71" stop-color="#d24e1e"/><stop offset=".959" stop-color="#e80"/><stop offset="1" stop-color="#f39200"/></linearGradient><path d="M341.3 138.4c6.5-.4 13.3-.8 21.8-.8 17.7 0 23.9 6.6 23.9 28.9s-6.3 28.9-23.9 28.9c-8.5 0-15.4-.3-21.8-.8v-56.2zm12.4 47.1c2.8 0 6 .1 9.5.1 8.4 0 10.9-4.3 10.9-19.1 0-14.7-2.6-19.2-10.9-19.2l-9.5.1v38.1z" fill="url(#SVGID_10_)"/><linearGradient id="SVGID_11_" gradientUnits="userSpaceOnUse" x1="399.55" y1="-98" x2="399.55" y2="-41.5" gradientTransform="matrix(1 0 0 -1 0 96.6)"><stop offset=".433" stop-color="#be1622"/><stop offset=".528" stop-color="#c32921"/><stop offset=".71" stop-color="#d24e1e"/><stop offset=".959" stop-color="#e80"/><stop offset="1" stop-color="#f39200"/></linearGradient><path d="M393.4 194.6v-56.5h12.3v56.5h-12.3z" fill="url(#SVGID_11_)"/><linearGradient id="SVGID_12_" gradientUnits="userSpaceOnUse" x1="434.65" y1="-99.1" x2="434.65" y2="-40.7" gradientTransform="matrix(1 0 0 -1 0 96.6)"><stop offset=".433" stop-color="#be1622"/><stop offset=".528" stop-color="#c32921"/><stop offset=".71" stop-color="#d24e1e"/><stop offset=".959" stop-color="#e80"/><stop offset="1" stop-color="#f39200"/></linearGradient><path d="M458.7 166.5c0 22.6-6.4 29.2-24.1 29.2-17.8 0-24-6.6-24-29.2s6.3-29.2 24-29.2c17.7.1 24.1 6.6 24.1 29.2zm-35.2 0c0 14.9 2.6 19.2 11 19.2 8.5 0 11-4.3 11-19.2s-2.6-19.2-11-19.2-11 4.3-11 19.2z" fill="url(#SVGID_12_)"/></g></svg>