<svg xmlns="http://www.w3.org/2000/svg" width="817" height="477" viewBox="0 0 215.988 126.055"><path d="M215.514.002c-.526-.068-4.695 2.275-46.255 25.34l-40.83 23.033c-.077.38 1.838.426 20.232.488l20.318.068 1.375 4.498 5.74 18.88 4.653 14.67c.18.18.375.194.524.036.13-.138 2.165-6.562 4.523-14.274L193.1 48.93l5.735-.07c5.13-.064 5.736-.026 5.736.355 0 .235-2.032 6.577-4.517 14.094l-6.2 18.798c-.93 2.822-1.63 5.233-1.553 5.358.182.296.293.287.986-.075 2.193-1.145 22.076-13.08 22.34-13.41.47-.585.486-73.34.018-73.808-.062-.062-.034-.157-.13-.17zM4.94 43.783a5.15 5.15 0 0 0-2.261.604c-3.572 1.887-3.572 7.2 0 9.087 2.023 1.068 4.532.606 6.16-1.136.94-1.007 1.274-1.958 1.274-3.637 0-2.92-2.48-4.997-5.172-4.917zm129.425 16.125c-2.73-.028-6.233.093-6.46.32-.243.243-.317 7.9-.317 32.897l.176 32.756a.68.68 0 0 0 .414.176c.13 0 10.47-6.1 22.974-13.533l22.737-13.977c0-.618-12.65-37.86-13.006-38.288-.22-.266-1.563-.346-5.745-.343-3.002.002-5.606.098-5.787.213-.257.163-.344 4.843-.397 21.36l-.068 21.152h-10.847l-.068-21.152-.397-21.36c-.21-.133-1.57-.203-3.208-.22zm-92.39.036l-5.848.025c-13.662.096-13.382.064-15.84 1.83-1.344.965-2.82 2.99-3.448 4.727-.57 1.58-.81 7.677-.405 10.275a13.42 13.42 0 0 0 .16.834l-.001.148.076.155c.185.763.418 1.504.62 1.906 1.082 2.166 3.456 4.092 6.182 5.018.438.15 3.95.343 7.808.432 7.642.176 8.2.285 9.192 1.798.648 1 .627 4.827-.035 6.203-.915 1.903-1.037 1.922-13.258 2.07l-10.848.132-.074 3.558c-.04 1.957-.013 3.72.063 3.917.114.296 2.36.344 12.907.278l12.77-.08 1.512-.743c1.847-.907 3.443-2.643 4.544-4.946l.823-1.72v-5.556c0-5.53-.004-5.563-.74-7.144-.966-2.07-2.763-3.875-4.786-4.806L41.73 77.5l-7.408-.135c-6.83-.124-7.48-.177-8.334-.673-1.422-.826-1.895-1.985-1.798-4.4.076-1.916.135-2.093.994-2.98.502-.518 1.335-1.06 1.85-1.203.54-.15 5.305-.26 11.27-.262 7.682-.001 10.413-.083 10.65-.32.487-.487.437-6.927-.058-7.338-.2-.174-2.096-.25-6.918-.25zm32.265.012l-4.66.018-12.77.07v7.673l12.435.132c11.83.126 12.48.158 13.336.66 1.222.718 1.944 2.198 1.98 4.056l.03 1.5-10.186.144c-6.203.087-10.5.255-10.988.428-3.728 1.322-5.956 3.866-6.756 7.712-.182.874-.254 3.62-.192 7.276.1 5.337.154 6.01.696 7.377 1.147 2.892 4.02 5.138 7.556 5.907 2.098.456 17.734.532 19.79.096 2.894-.614 5.38-2.363 6.635-4.67 1.453-2.67 1.514-3.337 1.514-16.64 0-8.05-.102-12.714-.298-13.637-.643-3.03-2.42-5.464-4.87-6.663-2.525-1.236-3.657-1.455-13.253-1.44zm39.128.001c-1.532.015-3.023.096-3.702.213-3.34.574-5.76 2.117-7.056 4.5-.514.945-.847 1.567-1.065 2.737l-.02.045-.001.066c-.4 2.23-.39 6.455-.393 18.345l.173 17.264c.097.097 1.75.176 3.672.176 2.567 0 3.572-.093 3.784-.348.2-.24.312-5.235.363-16.206l.074-15.8a1.28 1.28 0 0 1 .01-.063l.6-.948c.912-1.467 2.08-1.897 5.618-2.066l3.043-.145v-7.673l-3.572-.078c-.49-.01-1.007-.013-1.517-.008zm-112.12.086l-.07 21.3.06 21.637c.098.258 1.03.32 3.905.265l3.776-.073V60.042H5.085zm74.554 21.563c4.94 0 8.1.103 8.4.274.477.255.512.6.512 5.104 0 4.487-.042 4.912-.595 5.995-.405.793-.933 1.34-1.654 1.71-.97.5-1.575.55-7.276.594-3.42.027-6.594-.045-7.054-.16-1.5-.376-2.586-1.2-3.215-2.41-.562-1.1-.604-1.46-.53-4.624.097-4.064.44-4.93 2.327-5.887 1.14-.578 1.406-.595 9.073-.595z" fill="#192354"/></svg>