<?xml version="1.0" encoding="UTF-8"?>
<svg width="800" height="346.18" version="1.1" xmlns="http://www.w3.org/2000/svg">
	<defs>
		<linearGradient id="a" x1="92.71" x2="114.46" y1="23.52" y2="23.52" gradientTransform="matrix(4.9199 -.74547 -.74547 -4.9199 -12.821 328)" gradientUnits="userSpaceOnUse">
			<stop stop-color="#feeb17" offset="0"/>
			<stop stop-color="#feca05" offset="1"/>
		</linearGradient>
	</defs>
	<path d="m460.18 24.443-39.657 90.048 44.13-1.888-25.643 42.24 40.999 0.995-30.414 117.08 90.148-172.05-39.806 6.212 22.959-52.131-40.651 9.491 19.282-52.926z" fill="#444442"/>
	<path d="m440.6 16.542-20.077 97.95 31.457-7.653-12.971 48.006 31.706-4.77-21.121 122.85 76.332-184.07-39.26 9.54 18.835-55.36-39.806 12.92 15.107-55.955z" fill="url(#a)"/>
	<path d="m559.22 262.28h-37.769l29.817-147.84h83.34l-6.51 32.054h-45.571l-5.616 28.227h42.142l-6.659 32.252h-42.34zm116.64 0v-106.05h-0.795q-6.41 42.192-8.3 51.783l-10.932 54.268h-33.644l29.817-147.84h50.143v105.01h0.745l46.217-105.16h50.889l-30.265 147.99h-33.942l11.58-55.51q4.969-23.009 10.435-44.08l1.441-6.51h-0.745l-46.614 106.1zm-495.37-27.68h-43.285l-12.126 27.68h-39.26l71.959-147.99h48.652l11.877 147.84h-36.824zm-29.47-31.557h28.326l-1.64-42.887v-8.697c0-4.97 0-9.442 0.398-13.219a116.04 116.04 0 0 1-5.914 16.797zm129.91 59.237v-106.05h-0.696q-6.51 42.192-8.299 51.783l-10.933 54.268h-33.694l29.817-147.84h50.093v105.01h0.795l46.217-105.16h50.84l-30.415 147.99h-33.743l11.281-55.51q4.97-23.009 10.436-44.08l1.491-6.51h-0.795l-46.614 106.1zm-206.98-147.99-18.636 90.844a43.086 43.086 0 0 1-8.1 19.878 19.878 19.878 0 0 1-15.455 5.814 59.337 59.337 0 0 1-10.486-1.043l-6.56 30.91a75.935 75.935 0 0 0 20.574 2.933 65.549 65.549 0 0 0 28.277-5.218 41.148 41.148 0 0 0 17.89-16.698 103.62 103.62 0 0 0 10.933-31.606l19.38-95.813z" fill="#060807"/>
	<path d="m35.433 318.89a34.29 34.29 0 0 1-2.733 14.064 20.276 20.276 0 0 1-7.902 9.293 23.059 23.059 0 0 1-12.225 3.18h-12.573l8.597-42.688h11.083a15.555 15.555 0 0 1 11.63 4.174 16.35 16.35 0 0 1 4.124 11.977zm-22.462 19.033a12.026 12.026 0 0 0 7.206-2.187 14.909 14.909 0 0 0 4.97-6.51 26.637 26.637 0 0 0 1.69-9.939 9.94 9.94 0 0 0-1.989-6.808 7.206 7.206 0 0 0-5.814-2.385h-3.38l-5.665 27.83zm48.055 7.447h-22.761l8.399-42.639h22.86l-1.541 7.405h-14.064l-1.888 9.392h13.318l-1.541 7.405h-13.318l-2.236 10.983h14.312zm8.2 0 8.697-42.639h8.498l-8.697 42.639zm51.534 0h-9.492l-9.939-32.302v0.944c-0.596 4.175-1.193 7.952-1.839 11.231l-4.025 19.878h-8.05l8.646-42.639h9.94l9.491 31.408c0.249-1.49 0.597-3.578 1.094-6.311s2.186-11.132 4.97-24.848h7.652zm32.4 0h-22.81l8.647-42.639h22.81l-1.49 7.405h-14.264l-1.888 9.392h13.318l-1.491 7.405h-13.368l-2.237 10.983h14.263zm56.31 0h-9.542l-9.939-32.252v0.944a297.76 297.76 0 0 1-1.838 11.231l-4.075 19.878h-7.902l8.597-42.639h9.94l9.491 31.408c0.249-1.49 0.597-3.578 1.094-6.311s2.186-11.132 4.97-24.848h7.652zm21.47-16.35-3.33 16.35h-8.498l8.598-42.639h9.939a14.561 14.561 0 0 1 9.939 2.982 11.082 11.082 0 0 1 3.28 8.696 13.368 13.368 0 0 1-2.286 7.902 13.716 13.716 0 0 1-6.66 4.97l7.256 18.089h-9.144l-5.764-16.35zm1.49-7.355h2.188a8.498 8.498 0 0 0 5.864-1.69 6.013 6.013 0 0 0 2.037-4.97 4.97 4.97 0 0 0-1.292-3.577 6.162 6.162 0 0 0-4.174-1.193h-2.088zm21.91 20.375a5.814 5.814 0 0 1 1.49-4.174 5.417 5.417 0 0 1 4.225-1.59 4.125 4.125 0 0 1 3.031 1.093 4.224 4.224 0 0 1 1.143 3.13 5.864 5.864 0 0 1-1.54 4.125 5.417 5.417 0 0 1-4.026 1.54 4.324 4.324 0 0 1-3.18-1.093 4.025 4.025 0 0 1-1.143-3.031zm30.12 3.33h-8.498l4.97-24.152c0.646-2.982 1.391-5.765 2.136-8.399l-1.739 1.392c-0.944 0.745-3.38 2.385-7.305 4.97l-3.727-6.113 15.803-9.94h6.957zm37.12 0h-8.498l8.597-42.639h22.711l-1.49 7.405h-14.164l-2.236 10.983h13.368l-1.59 7.404h-13.318zm59.59-42.63-5.616 27.581a20.425 20.425 0 0 1-5.864 11.728 17.046 17.046 0 0 1-11.678 3.926 12.921 12.921 0 0 1-9.541-3.081 12.126 12.126 0 0 1-3.38-8.995 17.841 17.841 0 0 1 0.448-4.025l5.466-26.935h8.747l-5.417 26.786a15.903 15.903 0 0 0-0.447 3.677 4.622 4.622 0 0 0 5.267 4.97 6.908 6.908 0 0 0 5.417-2.236 13.815 13.815 0 0 0 2.882-6.66l5.417-26.736zm-24.251-7.554a4.075 4.075 0 0 1 4.522-4.572c2.435 0 3.678 1.044 3.678 3.131a5.317 5.317 0 0 1-1.044 3.43 4.274 4.274 0 0 1-3.38 1.241c-2.534 0-3.776-1.043-3.776-3.23zm11.231 0a4.622 4.622 0 0 1 1.143-3.429 4.97 4.97 0 0 1 3.38-1.143 3.976 3.976 0 0 1 2.733 0.795 2.932 2.932 0 0 1 0.994 2.336 4.97 4.97 0 0 1-1.143 3.43 4.125 4.125 0 0 1-3.33 1.242c-2.535 0-3.777-1.044-3.777-3.23zm25.49 33.834-3.28 16.35h-8.548l8.647-42.639h9.94a14.412 14.412 0 0 1 9.939 2.982 10.933 10.933 0 0 1 3.33 8.696 13.368 13.368 0 0 1-2.336 7.902 13.716 13.716 0 0 1-6.66 4.97l7.306 18.089h-9.194l-5.814-16.35zm1.49-7.355h2.188a8.697 8.697 0 0 0 5.715-1.69 6.162 6.162 0 0 0 2.037-4.97 4.522 4.522 0 0 0-1.342-3.577 6.063 6.063 0 0 0-4.174-1.193h-2.038zm69.62 23.705h-9.542l-9.939-32.252v0.944c-0.596 4.175-1.192 7.952-1.838 11.231l-4.026 19.878h-7.951l8.597-42.639h9.94l9.491 31.408c0-1.49 0.597-3.578 1.044-6.311s2.186-11.132 4.97-24.848h7.603zm32.45 0h-22.81l8.647-42.639h22.81l-1.54 7.405h-14.264l-1.888 9.392h13.318l-1.54 7.405h-13.319l-2.236 10.983h14.511zm46.42-42.63-5.616 27.581a20.425 20.425 0 0 1-6.062 11.728 17.046 17.046 0 0 1-11.678 3.926 12.722 12.722 0 0 1-9.294-3.28 11.977 11.977 0 0 1-3.379-8.995 17.841 17.841 0 0 1 0.398-4.025l5.466-26.935h8.498l-5.417 26.786a19.183 19.183 0 0 0-0.447 3.677 4.622 4.622 0 0 0 5.268 4.97 6.908 6.908 0 0 0 5.417-2.236 13.368 13.368 0 0 0 2.882-6.66l5.417-26.735zm23.36 42.63h-22.761l8.597-42.639h22.81l-1.49 7.405h-14.313l-1.838 9.392h13.269l-1.491 7.405h-13.318l-2.237 10.983h14.263zm44.92-10.73 15.356-31.905h11.828l-8.647 42.689h-7.802l4.075-20.226c0.944-4.97 1.938-9.094 2.932-12.871l-15.903 33.097h-8.001l-1.69-33.097c0 1.74-0.546 3.976-1.043 6.759s-2.237 11.579-5.218 26.339h-7.703l8.647-42.69h11.28zm66.3-31.9-5.367 27.581a20.425 20.425 0 0 1-6.063 11.728 17.145 17.145 0 0 1-11.728 3.926 12.871 12.871 0 0 1-9.542-3.081 12.126 12.126 0 0 1-3.379-8.995 17.841 17.841 0 0 1 0.447-4.025l5.467-26.935h8.498l-5.417 26.786a16.35 16.35 0 0 0-0.497 3.677 4.622 4.622 0 0 0 5.268 4.97 7.007 7.007 0 0 0 5.466-2.236 13.815 13.815 0 0 0 2.883-6.66l5.416-26.736zm25.49 30.21a12.126 12.126 0 0 1-4.125 9.641 16.648 16.648 0 0 1-11.182 3.528 17.145 17.145 0 0 1-9.939-2.634v-8.15a20.176 20.176 0 0 0 9.94 3.18 8.1 8.1 0 0 0 4.969-1.241 3.976 3.976 0 0 0 1.789-3.43 6.113 6.113 0 0 0-0.398-2.186 6.212 6.212 0 0 0-1.093-1.79 28.028 28.028 0 0 0-3.429-2.931 18.437 18.437 0 0 1-5.417-5.715 12.623 12.623 0 0 1-1.59-6.113 13.269 13.269 0 0 1 1.74-6.758 11.828 11.828 0 0 1 4.969-4.572 15.853 15.853 0 0 1 7.355-1.64 21.816 21.816 0 0 1 11.082 2.882l-3.032 6.808a18.338 18.338 0 0 0-8.05-2.186 5.516 5.516 0 0 0-3.777 1.292 4.423 4.423 0 0 0-1.491 3.479 5.516 5.516 0 0 0 0.894 3.13 17.095 17.095 0 0 0 4.125 3.529 16.648 16.648 0 0 1 4.97 4.97 12.175 12.175 0 0 1 1.69 6.907zm4.92 12.42 8.945-42.639h8.498l-8.696 42.639zm48.7 0h-9.393l-6.062-17.393-3.48 2.037-3.03 15.207h-8.548l8.647-42.639h8.498l-4.224 20.425 4.423-5.963 11.38-14.511h9.939l-16.45 20.475z" fill="#020203"/>
</svg>
