<?xml version="1.0" encoding="UTF-8"?>
<svg width="800" height="141.74" version="1.1" xmlns="http://www.w3.org/2000/svg">
	<path d="m356.35 6.2757c-10.093 0-19.571 3.4609-28.435 10.384-8.8634 6.8784-14.371 14.651-16.523 23.316l-1.3069 5.2258h-14.754l-1.9223 6.9012h14.986l-13.679 56.613c-3.2277 13.131-7.0694 21.73-11.527 25.794l-2.6137-5.2258c-3.945-8.0397-9.3248-12.061-16.139-12.061-3.6376 0-6.4799 1.0062-8.5293 3.0161-2.0493 2.0546-3.0753 4.3536-3.0753 6.8995 0 8.5756 7.4034 12.864 22.21 12.864 9.7856 0 19.085-3.215 27.897-9.6468 8.8634-6.3871 14.858-14.851 17.983-25.392 3.1252-10.586 7.4543-28.206 12.987-52.861h6.5039l-0.40237 1.5926c2.2026-0.63045 4.0902-1.1032 5.6653-1.4184 0.38626-0.0773 0.69463-0.11574 1.0431-0.17414h6.1725l0.0101-0.03381c0.21535 0.0383 0.43197 0.07671 0.63062 0.12342 0.55064 0.12947 1.0381 0.29102 1.4607 0.48521 0.42259 0.1942 0.78072 0.4207 1.0752 0.67964 0.30733 0.24767 0.57593 0.54196 0.80643 0.88251 0.2305 0.34055 0.42284 0.72804 0.5765 1.1615 0.30734 0.86686 0.46155 1.9197 0.46155 3.1581 0 1.2159-0.16748 2.6511-0.50043 4.3061s-0.83201 3.5291-1.4979 5.6231l-6.301 19.792c-0.53784 1.7112-0.93989 3.4329-1.2088 5.1666s-0.40406 3.4797-0.40406 5.2359c0 1.047 0.10859 2.0434 0.32629 2.989 0.21769 0.94567 0.54518 1.8404 0.98057 2.6847 0.43539 0.84436 0.97838 1.6374 1.6315 2.3804 0.65308 0.74303 1.415 1.4361 2.2857 2.0778 0.88359 0.64171 1.8415 1.2026 2.8724 1.6839 1.0309 0.48127 2.1355 0.88287 3.3137 1.2037 1.1781 0.32085 2.4295 0.56147 3.7549 0.7219 1.3254 0.16043 2.7252 0.24007 4.1978 0.24007 1.2293 0 2.6236-0.11297 4.1826-0.33812 1.5591-0.22516 3.2828-0.56238 5.1717-1.0127 1.8888-0.45032 3.9421-1.0135 6.1607-1.689 2.2186-0.67547 4.6014-1.4629 7.1497-2.3635l0.21809-0.75064c0.18652 0.14968 0.37376 0.29999 0.57313 0.44632 1.0276 0.75429 2.2258 1.4643 3.596 2.1285 1.3702 0.66422 2.9054 1.2449 4.6053 1.743 1.6999 0.49817 3.5646 0.91389 5.5943 1.246s4.2239 0.5812 6.5834 0.74726c2.3594 0.16603 4.8849 0.24852 7.5741 0.24852 3.1502 0 6.1235-0.13274 8.9215-0.39729 2.798-0.26457 5.4207-0.66109 7.8666-1.1902 2.4459-0.52913 4.7162-1.1911 6.8099-1.9848 2.0937-0.79369 4.01-1.7195 5.7516-2.7777 1.7416-1.0582 3.2653-2.2026 4.5715-3.4354 0.65309-0.61638 1.2529-1.2555 1.7971-1.9155 0.54425-0.66 1.0338-1.342 1.4692-2.0457 0.43539-0.70363 0.81633-1.4286 1.1429-2.1759 0.32654-0.74725 0.59889-1.5168 0.81658-2.3077 0.2177-0.79087 0.38144-1.6034 0.49029-2.4379 0.10881-0.8345 0.1623-1.69 0.1623-2.5681 0-1.1145-0.10869-2.1938-0.32799-3.2359-0.21929-1.0421-0.54875-2.0482-0.98733-3.0178-0.43859-0.96959-0.9871-1.9026-1.645-2.7997-0.65788-0.89712-1.4255-1.757-2.3026-2.5816-0.87719-0.82464-1.8638-1.613-2.9603-2.3652-1.0965-0.75217-2.3022-1.4691-3.618-2.1488-1.3158-0.6797-2.7422-1.3235-4.2773-1.9307-1.5351-0.60722-3.1789-1.1779-4.9333-1.7126-3.5343-1.1033-6.4293-2.094-8.6831-2.9721-2.2538-0.87812-3.8671-1.6429-4.8403-2.2959-0.4738-0.33774-0.88895-0.72748-1.2443-1.1665-0.35535-0.43906-0.65068-0.92878-0.88758-1.4692-0.23691-0.54038-0.41411-1.1301-0.53256-1.7718-0.11848-0.6417-0.17752-1.3348-0.17752-2.0778 0-0.72051 0.0821-1.4175 0.24853-2.093 0.16647-0.67548 0.41601-1.329 0.74896-1.9594 0.33294-0.63045 0.74996-1.2388 1.2494-1.8242 0.49942-0.58542 1.0822-1.1486 1.7481-1.6889 0.67869-0.54038 1.3987-1.0216 2.1606-1.4438 0.76193-0.42217 1.5657-0.78481 2.4108-1.0888 0.84518-0.30397 1.731-0.54967 2.6594-0.73543 0.92842-0.18576 1.8996-0.31115 2.9113-0.3787 0.44179 1.4748 0.91521 2.8567 1.4218 4.1471 0.50662 1.2904 1.0465 2.4882 1.6179 3.5943 0.57146 1.1061 1.1744 2.1214 1.8107 3.0431 0.63627 0.92175 1.3057 1.7512 2.0068 2.4886 0.7011 0.7374 1.4353 1.3827 2.2012 1.9358 0.76594 0.55305 1.5632 1.0126 2.3939 1.3813 0.83076 0.3687 1.6945 0.64575 2.5901 0.8301 0.89559 0.18435 1.8241 0.27726 2.7845 0.27726 0.922 0 1.7925-0.05874 2.612-0.17414 0.81956-0.1154 1.5872-0.28824 2.3043-0.51903 0.7171-0.23079 1.3837-0.51942 1.9983-0.86561 0.61468-0.34618 1.1784-0.74892 1.6906-1.2105 0.51223-0.46158 0.95989-0.94 1.344-1.4354 0.38417-0.49535 0.70417-1.0077 0.96028-1.5368 0.25612-0.52912 0.44846-1.0753 0.57651-1.6382 0.12803-0.5629 0.19104-1.143 0.19104-1.7397 0-1.1202-0.14958-2.1712-0.44971-3.1513-0.30013-0.98015-0.75056-1.8903-1.3508-2.7304-0.60025-0.84013-1.3498-1.6093-2.2502-2.3094s-1.9508-1.33-3.1514-1.8901-2.5518-1.0508-4.0525-1.4709c-1.5007-0.42006-3.1511-0.76984-4.9519-1.0499-1.8008-0.28004-3.7521-0.49059-5.853-0.63061-2.1009-0.14002-4.3514-0.20964-6.7524-0.20964-2.9965 0-5.8326 0.1333-8.509 0.40068-2.6764 0.26738-5.1925 0.66898-7.5487 1.2037-2.3562 0.53476-4.5523 1.203-6.5884 2.0051-2.0361 0.80213-3.9122 1.7386-5.6281 2.8082-1.716 1.0583-3.2186 2.1795-4.5056 3.3644-0.64348 0.59245-1.2322 1.2001-1.7684 1.8242-0.53623 0.62412-1.0199 1.2648-1.4489 1.9206-0.42899 0.65578-0.80423 1.3278-1.126 2.0152s-0.59025 1.3908-0.80474 2.1099c-0.2145 0.7191-0.37459 1.4538-0.48184 2.2046-0.10729 0.75077-0.16061 1.5168-0.16061 2.2993 0 1.1483 0.10566 2.2564 0.31616 3.3238 0.21049 1.0674 0.52577 2.0939 0.94675 3.0803 0.42098 0.98648 0.94758 1.933 1.5791 2.8386 0.63147 0.90557 1.3677 1.7705 2.2097 2.5951 0.84197 0.82465 1.7895 1.6079 2.842 2.3517 1.0525 0.74373 2.2096 1.4471 3.4726 2.1099 1.263 0.66281 2.6314 1.2863 4.1049 1.8682 1.4734 0.5819 3.0516 1.1237 4.7355 1.6247 3.688 1.1708 6.7164 2.2333 9.0855 3.1902 2.369 0.95693 4.0793 1.8081 5.1294 2.5512 0.53784 0.36026 1.0083 0.75452 1.4117 1.1851 0.40337 0.43061 0.7387 0.89718 1.0076 1.3982 0.26892 0.50098 0.47078 1.0365 0.60525 1.6078 0.13449 0.57134 0.20287 1.1791 0.20287 1.8208 0 1.0132-0.0932 1.9622-0.27725 2.8487-0.18408 0.88657-0.46026 1.7101-0.82842 2.47-0.36816 0.75992-0.82733 1.4564-1.3796 2.0896-0.55223 0.63326-1.1978 1.2026-1.9341 1.7092s-1.5632 0.95057-2.4836 1.3305c-0.9204 0.37996-1.9336 0.69683-3.0381 0.95014-1.1045 0.2533-2.3007 0.44309-3.5892 0.56974-1.2886 0.12669-2.6694 0.18936-4.142 0.18936-0.4354-1.5818-0.9105-3.064-1.4235-4.4481-0.51303-1.384-1.0645-2.67-1.6551-3.8563-0.59067-1.1863-1.2202-2.2727-1.8884-3.2612-0.66829-0.98859-1.3758-1.8786-2.1218-2.6695-0.74592-0.79088-1.5298-1.4829-2.3534-2.0761s-1.6855-1.0873-2.5867-1.4827c-0.90119-0.39544-1.8412-0.69156-2.82-0.88927-0.97883-0.19772-1.9968-0.29755-3.0533-0.29755-0.96043 0-1.8707 0.06215-2.7287 0.18597-0.85797 0.12383-1.6638 0.31023-2.4193 0.55791-0.75553 0.24768-1.4602 0.55665-2.1133 0.92816-0.65309 0.37151-1.255 0.80475-1.8056 1.3001-0.53783 0.49535-1.0083 1.0105-1.4117 1.5452-0.40337 0.53475-0.7387 1.0894-1.0076 1.6636-0.26892 0.57416-0.47079 1.1684-0.60525 1.7819-0.1345 0.61357-0.20288 1.2473-0.20288 1.9003 0 1.0245 0.17141 2.0039 0.51395 2.9383 0.0764 0.20861 0.1651 0.41468 0.25867 0.61877-0.12093 0.0256-0.25622 0.0658-0.37531 0.0896-1.5751 0.31522-2.9902 0.47338-4.2452 0.47338-1.6135 0-2.9963-0.11297-4.1488-0.33813-1.1525-0.22516-2.0761-0.56237-2.7676-1.0127-0.34575-0.23642-0.64688-0.52449-0.90619-0.86223s-0.47632-0.72578-0.6492-1.1648c-0.34575-0.87812-0.51903-1.9592-0.51903-3.2426 0-1.1933 0.17328-2.6286 0.51903-4.3061 0.34575-1.6774 0.86389-3.5968 1.5554-5.7583l6.301-19.657c0.51224-1.5986 0.89691-3.2751 1.153-5.0313s0.38377-3.5909 0.38377-5.5047c0-1.0582-0.10672-2.0631-0.32121-3.0144-0.2145-0.9513-0.53637-1.8505-0.96536-2.6949-0.42899-0.84435-0.966-1.6346-1.6095-2.372-0.64348-0.7374-1.394-1.422-2.2519-2.0524-0.84517-0.6417-1.7689-1.2026-2.771-1.6839-1.002-0.48128-2.082-0.88288-3.241-1.2037-1.1589-0.32085-2.3969-0.56148-3.7126-0.7219-1.3158-0.16042-2.71-0.24007-4.1826-0.24007-1.2293 0-2.6236 0.11297-4.1826 0.33813-1.5591 0.22516-3.2828 0.56237-5.1717 1.0127-1.837 0.43797-3.836 0.98727-5.9849 1.6382h-13.581l1.9223-7.6383c3.3814-13.578 7.0442-22.176 10.989-25.794l2.612 5.1598c3.945 8.0843 9.222 12.127 15.831 12.127 1.025 0 1.9829-0.09367 2.8859-0.26036 0.12816 0.07384 0.25004 0.15813 0.38039 0.22824 0.81636 0.43906 1.6754 0.80452 2.5782 1.0972 0.90281 0.29271 1.8494 0.513 2.8386 0.65935 0.98923 0.14635 2.0216 0.21978 3.0972 0.21978 1.0244 0 2.0112-0.07569 2.962-0.22486 0.95081-0.14917 1.865-0.37285 2.7422-0.67118 0.87719-0.29834 1.7172-0.6717 2.5208-1.1192 0.80355-0.44751 1.571-0.96886 2.301-1.5655 0.72993-0.60793 1.3681-1.2451 1.9155-1.9121 0.54744-0.66704 1.0044-1.3635 1.3694-2.0896 0.36497-0.72614 0.63917-1.4819 0.82165-2.2671 0.18248-0.78524 0.27389-1.6003 0.27389-2.4447s-0.0933-1.6594-0.27896-2.4447c-0.18568-0.78524-0.46381-1.541-0.83517-2.2671-0.37136-0.72614-0.83604-1.4226-1.3931-2.0896-0.55703-0.66704-1.2066-1.3042-1.9493-1.9121-0.72992-0.61919-1.4955-1.162-2.2959-1.6264-0.80036-0.46439-1.6364-0.85018-2.5072-1.1598-0.87078-0.30959-1.7756-0.54175-2.7169-0.69654-0.9412-0.1548-1.9182-0.23331-2.9299-0.23331-1.0629 0-2.0838 0.076251-3.0634 0.22824-0.97963 0.15198-1.9185 0.38074-2.8149 0.68471-0.81407 0.27605-1.5893 0.62319-2.3348 1.0245-3.502-1.2851-8.1126-1.9375-13.865-1.9375zm157.91 0-40.415 1.7566-1.459 4.9992c2.6379 0.15761 4.8531 0.42704 6.6459 0.80982 0.8964 0.19139 1.6869 0.41167 2.372 0.65935s1.2642 0.52276 1.738 0.82672c0.47381 0.29271 0.88895 0.63218 1.2443 1.0178s0.65068 0.81826 0.88758 1.2967c0.2369 0.47846 0.4158 1.0026 0.53425 1.574 0.11845 0.57134 0.17751 1.1887 0.17751 1.8529 0 0.72051-0.23046 1.9598-0.69147 3.716l-22.666 86.055h25.508l12.602-48.836c1.7544-1.4072 3.4534-2.6386 5.099-3.694s3.236-1.9355 4.7727-2.6391c1.5367-0.70362 3.0202-1.2323 4.4481-1.5841 1.4278-0.35181 2.8011-0.52748 4.1201-0.52748 1.2806 0 2.4006 0.14629 3.361 0.43618 0.48021 0.14495 0.92022 0.32527 1.3204 0.5427 0.40018 0.21742 0.76017 0.47089 1.0803 0.76079 0.32012 0.28989 0.60014 0.61651 0.84024 0.97888 0.2401 0.36236 0.4401 0.76044 0.60017 1.1953 0.32015 0.86968 0.48015 1.8853 0.48015 3.0448 0 1.2159-0.14094 2.5834-0.42266 4.1032-0.28173 1.5198-0.70285 3.1906-1.2663 5.0144l-5.5335 17.968c-0.53783 1.7112-0.93989 3.4345-1.2088 5.1683s-0.40406 3.478-0.40406 5.2342c0 1.0357 0.11047 2.0231 0.33137 2.9603 0.22089 0.93723 0.5523 1.824 0.9941 2.6628 0.44178 0.83872 0.99413 1.6284 1.6568 2.3686 0.66269 0.74022 1.436 1.431 2.3196 2.0727 0.89638 0.64171 1.862 1.2043 2.8961 1.6856 1.034 0.48127 2.1369 0.88118 3.3086 1.202 1.1717 0.32085 2.4117 0.56147 3.7211 0.7219 1.3094 0.16043 2.6883 0.24176 4.1353 0.24176 1.255 0 2.6682-0.1124 4.2401-0.33475 1.5719-0.22234 3.3014-0.55447 5.1903-0.99917 1.8888-0.44468 3.9363-1.0016 6.1421-1.6686 2.2058-0.66704 4.5695-1.4454 7.0922-2.3348l1.7684-6.0119c-1.7928 0.65297-3.4765 1.1427-5.0516 1.4692-1.5751 0.32648-3.0416 0.49028-4.399 0.49028-1.6135 0-2.9905-0.11861-4.1302-0.35503-1.1397-0.23642-2.0425-0.59057-2.7084-1.0634-0.33295-0.24768-0.62435-0.54478-0.87406-0.89097-0.24971-0.34618-0.45737-0.74214-0.62385-1.1868-0.33294-0.88938-0.50042-1.9744-0.50042-3.2579 0-1.1483 0.17328-2.5666 0.51903-4.2553 0.34575-1.6887 0.86388-3.6476 1.5554-5.8767l5.8395-18.915c0.461-1.4861 0.80756-3.0947 1.038-4.8285 0.23051-1.7337 0.3449-3.5926 0.3449-5.574 0-1.0132-0.10112-1.9819-0.30601-2.9079-0.20488-0.92597-0.51331-1.8088-0.92309-2.6475-0.40977-0.83872-0.92212-1.634-1.5368-2.3855-0.61466-0.75147-1.3309-1.4592-2.1505-2.1234-0.80675-0.67548-1.6868-1.2669-2.6408-1.7735-0.95401-0.50661-1.9824-0.92855-3.0837-1.2663s-2.2764-0.59023-3.525-0.7591c-1.2486-0.16887-2.5704-0.2536-3.9662-0.2536-1.3126 0-2.6239 0.06213-3.9341 0.18597-1.3102 0.12384-2.6196 0.30855-3.9274 0.55622-1.3078 0.24768-2.6135 0.55834-3.9189 0.92985-1.3054 0.37152-2.6109 0.80475-3.9138 1.3001-1.303 0.49535-2.6031 1.0529-3.9037 1.672-1.3006 0.61919-2.6004 1.2993-3.8986 2.0423-1.2982 0.74303-2.5961 1.5491-3.8918 2.4159s-2.59 1.7955-3.8834 2.7862h-0.45986l12.293-46.743zm82.037 0c-1.0629 0-2.0838 0.076251-3.0634 0.22824-0.97962 0.15198-1.9185 0.38074-2.8149 0.68471-0.89639 0.30397-1.7515 0.68354-2.5647 1.1395-0.81316 0.45595-1.5846 0.98803-2.3145 1.596-0.72992 0.59667-1.368 1.2276-1.9155 1.8918-0.54744 0.66422-1.0045 1.3612-1.3694 2.093-0.36496 0.73177-0.63748 1.4983-0.81996 2.2976-0.18248 0.79932-0.27388 1.6319-0.27388 2.4988 0 0.86686 0.0895 1.6994 0.2688 2.4988 0.17928 0.79932 0.44789 1.5658 0.80643 2.2976 0.35856 0.73177 0.80624 1.4288 1.3441 2.093 0.53784 0.66422 1.1663 1.2952 1.8834 1.8918 0.72993 0.58541 1.5032 1.0977 2.3196 1.5368 0.81635 0.43906 1.6754 0.80452 2.5782 1.0972 0.9028 0.29271 1.8494 0.513 2.8386 0.65935 0.98924 0.14635 2.0216 0.21978 3.0972 0.21978 1.0244 0 2.0112-0.07569 2.962-0.22486 0.95082-0.14917 1.865-0.37285 2.7422-0.67118 0.87719-0.29834 1.7172-0.6717 2.5207-1.1192 0.80355-0.44751 1.571-0.96886 2.301-1.5655 0.72992-0.60793 1.368-1.2451 1.9155-1.9121s1.0044-1.3635 1.3694-2.0896c0.36496-0.72614 0.63917-1.4819 0.82165-2.2671 0.18248-0.78524 0.27388-1.6003 0.27388-2.4447 0-0.84435-0.0933-1.6594-0.27895-2.4447-0.18569-0.78524-0.46381-1.541-0.83518-2.2671-0.37136-0.72614-0.83603-1.4226-1.3931-2.0896-0.55703-0.66704-1.2066-1.3042-1.9493-1.9121-0.72992-0.61919-1.4955-1.162-2.2959-1.6264-0.80036-0.46439-1.6364-0.85018-2.5072-1.1598-0.87078-0.30959-1.7756-0.54175-2.7168-0.69654-0.94121-0.1548-1.9182-0.23331-2.9299-0.23331zm-14.215 35.936c-1.2294 0-2.6236 0.11297-4.1826 0.33813-1.5591 0.22516-3.2828 0.56237-5.1717 1.0127-1.8888 0.45032-3.9421 1.0135-6.1607 1.6889-2.2186 0.67548-4.6031 1.4629-7.1514 2.3635l-1.5351 6.0795c2.2026-0.63045 4.0902-1.1032 5.6653-1.4184 1.5751-0.31522 2.836-0.47338 3.7836-0.47338 1.6135 0 2.9715 0.12991 4.0728 0.38885 0.55064 0.12947 1.0381 0.29101 1.4607 0.48521 0.42259 0.1942 0.78072 0.4207 1.0752 0.67964 0.30734 0.24767 0.57593 0.54196 0.80644 0.88251 0.2305 0.34055 0.42284 0.72804 0.5765 1.1615 0.30733 0.86686 0.46155 1.9197 0.46155 3.1581 0 1.2159-0.16749 2.6511-0.50042 4.3061-0.33295 1.6549-0.83202 3.5291-1.4979 5.6231l-6.301 19.792c-0.53783 1.7112-0.93989 3.4329-1.2088 5.1666-0.26891 1.7337-0.40406 3.4797-0.40406 5.2359 0 1.047 0.1086 2.0434 0.3263 2.989 0.21769 0.94567 0.54517 1.8404 0.98057 2.6847 0.43539 0.84436 0.97837 1.6374 1.6315 2.3804 0.65308 0.74303 1.415 1.4361 2.2857 2.0778 0.8836 0.64171 1.8416 1.2026 2.8724 1.6839 1.0308 0.48127 2.1355 0.88287 3.3136 1.2037 1.1781 0.32085 2.4295 0.56147 3.7549 0.7219s2.7252 0.24007 4.1979 0.24007c1.2293 0 2.6236-0.11297 4.1826-0.33812 1.5591-0.22516 3.2828-0.56238 5.1717-1.0127 1.8888-0.45032 3.9421-1.0135 6.1607-1.689 2.2186-0.67547 4.6014-1.4629 7.1497-2.3635l1.7684-6.0795c-1.8952 0.63043-3.6304 1.1032-5.2055 1.4184-1.5751 0.31522-2.9902 0.47338-4.2452 0.47338-1.6135 0-2.9963-0.11297-4.1488-0.33813-1.1525-0.22516-2.0761-0.56237-2.7676-1.0127-0.34575-0.23642-0.64687-0.52449-0.90618-0.86223s-0.47633-0.72578-0.64921-1.1648c-0.34575-0.87812-0.51902-1.9592-0.51902-3.2426 0-1.1933 0.17327-2.6286 0.51902-4.3061 0.34575-1.6774 0.86389-3.5968 1.5554-5.7583l6.301-19.657c0.51223-1.5986 0.89691-3.2751 1.153-5.0313 0.25612-1.7562 0.38378-3.5909 0.38378-5.5047 0-1.0582-0.10673-2.0631-0.32122-3.0144-0.2145-0.9513-0.53636-1.8505-0.96536-2.6949-0.42898-0.84435-0.966-1.6346-1.6095-2.372-0.64348-0.7374-1.394-1.422-2.2519-2.0524-0.84517-0.6417-1.7689-1.2026-2.771-1.6839-1.002-0.48128-2.082-0.88288-3.241-1.2037-1.1589-0.32085-2.3968-0.56148-3.7126-0.7219-1.3158-0.16042-2.71-0.24007-4.1826-0.24007zm100.37 0c-1.3766 0-2.7518 0.06651-4.1252 0.1995-1.3734 0.13299-2.7448 0.33252-4.115 0.59849-1.3702 0.26597-2.7396 0.59852-4.1066 0.99748-1.367 0.39896-2.7326 0.86453-4.0964 1.3965-1.3638 0.53194-2.7257 1.1305-4.0863 1.7955-1.3606 0.66493-2.7187 1.3965-4.0761 2.1944-1.3574 0.79791-2.7135 1.6609-4.0677 2.5917-1.3542 0.9309-2.7066 1.9286-4.0575 2.9924h-0.46155c-0.26891-0.99633-0.60601-1.9296-1.011-2.8014-0.40497-0.87179-0.87741-1.6822-1.4184-2.4294s-1.1505-1.4314-1.8276-2.0541c-0.67709-0.62271-1.4219-1.184-2.235-1.6822-0.81314-0.49817-1.6949-0.93324-2.6442-1.3069-0.94922-0.37362-1.9663-0.68584-3.0516-0.93492-1.0853-0.24908-2.2377-0.43506-3.459-0.5596-1.2213-0.12454-2.5108-0.18766-3.8682-0.18766-1.2293 0-2.6236 0.11297-4.1826 0.33813-1.5591 0.22516-3.2828 0.56406-5.1717 1.0144-1.8888 0.45032-3.9438 1.0118-6.1624 1.6873-2.2186 0.67548-4.6014 1.4646-7.1497 2.3652l-1.6906 6.0795c1.9208-0.63045 3.6693-1.1032 5.2444-1.4184 1.5751-0.31522 2.977-0.47338 4.2063-0.47338 1.6647 0 3.0475 0.12426 4.1488 0.37194 0.55063 0.12384 1.0306 0.27748 1.4404 0.46324 0.40978 0.18576 0.74884 0.40322 1.0178 0.6509 0.28172 0.24768 0.52921 0.5397 0.7405 0.87744 0.2113 0.33774 0.38663 0.72183 0.52749 1.1496 0.28172 0.85561 0.42265 1.8898 0.42265 3.1057 0 1.0357-0.15252 2.3993-0.45985 4.088-0.30733 1.6887-0.76828 3.7041-1.383 6.0457l-10.911 41.473h25.508l12.602-48.836c1.7544-1.4072 3.4495-2.6386 5.0854-3.694s3.2112-1.9355 4.7287-2.6391c1.5174-0.70362 2.9764-1.2323 4.3754-1.5841 1.399-0.35181 2.7381-0.52748 4.0186-0.52748 1.319 0 2.4732 0.14629 3.4624 0.43618 0.49462 0.14495 0.94878 0.32527 1.361 0.5427 0.41217 0.21742 0.78269 0.47089 1.1124 0.76079 0.32975 0.28989 0.61831 0.61651 0.86561 0.97888 0.24731 0.36236 0.45391 0.76044 0.61878 1.1953 0.32974 0.86968 0.49366 1.8853 0.49366 3.0448 0 1.1033-0.14673 2.4143-0.44126 3.9341-0.29453 1.5198-0.73639 3.2471-1.3255 5.1835l-5.4557 17.968c-0.53785 1.6437-0.93988 3.3331-1.2088 5.0668-0.26892 1.7337-0.40406 3.5119-0.40406 5.3357 0 1.047 0.1086 2.0434 0.32629 2.989 0.2177 0.94568 0.54517 1.8404 0.98057 2.6847 0.43539 0.84436 0.97837 1.6391 1.6315 2.3821 0.65309 0.74303 1.415 1.4344 2.2857 2.0761 0.88359 0.63044 1.8416 1.1823 2.8724 1.6551 1.0308 0.47284 2.1355 0.86654 3.3137 1.1818 1.1781 0.31522 2.4295 0.55246 3.7549 0.71007 1.3254 0.15758 2.7252 0.23669 4.1979 0.23669 1.255 0 2.6682-0.1124 4.2401-0.33475 1.5719-0.22234 3.3014-0.55447 5.1903-0.99917 1.8888-0.44468 3.9363-1.0016 6.1421-1.6686 2.2058-0.66704 4.5695-1.4454 7.0922-2.3348l1.6906-6.1455c-1.7928 0.65297-3.4708 1.1427-5.033 1.4692s-3.0081 0.48859-4.3399 0.48859c-1.7416 0-3.2023-0.12427-4.3804-0.37193-0.58907-0.12384-1.1072-0.27748-1.5554-0.46324-0.44819-0.18576-0.82539-0.40322-1.1327-0.65089-0.29453-0.24768-0.55342-0.53971-0.77431-0.87745-0.2209-0.33774-0.40388-0.72014-0.55115-1.1479-0.29453-0.85561-0.44295-1.8915-0.44295-3.1074 0-1.396 0.15421-2.9386 0.46154-4.6273 0.30734-1.6887 0.76827-3.5233 1.383-5.5047l5.8395-18.915c0.53784-1.7337 0.94158-3.4667 1.2105-5.2004s0.40237-3.4684 0.40237-5.2021c0-1.0132-0.10111-1.9819-0.306-2.9079-0.20489-0.92597-0.51332-1.8088-0.92309-2.6475-0.40978-0.83872-0.92213-1.634-1.5368-2.3855-0.61467-0.75147-1.3309-1.4592-2.1505-2.1234-0.80676-0.67548-1.6868-1.2669-2.6408-1.7735-0.95401-0.50661-1.9824-0.92855-3.0837-1.2663-1.1013-0.33774-2.2764-0.59023-3.525-0.7591-1.2486-0.16887-2.5704-0.2536-3.9662-0.2536zm71.597 0c-1.5815 0-3.1365 0.06806-4.6628 0.20457-1.5263 0.1365-3.0244 0.3407-4.4954 0.6137s-2.9139 0.61502-4.3297 1.0245c-1.4158 0.40951-2.8052 0.88765-4.1657 1.4337-1.3606 0.54601-2.693 1.1603-3.9984 1.8428-1.3054 0.68252-2.5842 1.4329-3.8344 2.2519-1.2502 0.81902-2.4721 1.7055-3.667 2.6611-1.1949 0.95552-2.3616 1.9799-3.5013 3.0719-1.1333 1.092-2.1969 2.2104-3.1885 3.3559-0.99162 1.1455-1.9125 2.3176-2.7625 3.5165-0.84997 1.199-1.6282 2.4247-2.3365 3.6771-0.7083 1.2525-1.3455 2.5318-1.9121 3.8377-0.56665 1.3059-1.0628 2.639-1.4878 3.9984s-0.78009 2.7461-1.0634 4.159c-0.28333 1.4129-0.49571 2.8515-0.63737 4.3179-0.14165 1.4664-0.21133 2.9604-0.21133 4.4802 0 2.0152 0.15046 3.9204 0.4514 5.7161 0.30094 1.7956 0.75234 3.4823 1.3542 5.0584 0.60186 1.5761 1.3542 3.0424 2.257 4.399 0.90278 1.3566 1.9561 2.6026 3.1598 3.7397 1.2165 1.1371 2.5537 2.1312 4.0136 2.984s3.0425 1.565 4.7456 2.1336c1.7032 0.56854 3.5278 0.99386 5.4743 1.2781 1.9464 0.28426 4.0132 0.42604 6.203 0.42604 2.0361 0 4.0682-0.17849 6.0948-0.53593 2.0265-0.35745 4.0474-0.89292 6.0643-1.6078 2.0169-0.71489 4.03-1.609 6.0373-2.6814 2.0073-1.0723 4.0092-2.3235 6.0068-3.7532h0.69147c-0.52503 2.3304-1.0983 4.5406-1.7194 6.629s-1.2897 4.0557-2.0068 5.902c-0.7171 1.8463-1.4827 3.5708-2.2959 5.175-0.81316 1.6043-1.6741 3.0876-2.5833 4.4498-0.8964 1.3622-1.9078 2.5789-3.0347 3.6484-1.1269 1.0695-2.3688 1.9925-3.7262 2.7693-1.3574 0.7768-2.8297 1.4077-4.4176 1.8918-1.5879 0.48409-3.2924 0.8213-5.1108 1.0127-0.72993-1.4748-1.4728-2.8584-2.23-4.1488-0.75712-1.2904-1.5284-2.4882-2.3128-3.5943-0.78435-1.1061-1.5824-2.1197-2.394-3.0415-0.81154-0.92173-1.6363-1.7512-2.4751-2.4886-0.83876-0.73738-1.6903-1.3827-2.5562-1.9358-0.86596-0.55306-1.7459-1.0142-2.6391-1.383-0.89321-0.3687-1.7998-0.64575-2.7202-0.8301-0.92041-0.18436-1.8555-0.27557-2.8031-0.27557-0.93482 0-1.8169 0.0649-2.6492 0.19442-0.83236 0.12946-1.615 0.32265-2.3449 0.58158-0.72993 0.25893-1.408 0.58371-2.0355 0.97212-0.62747 0.38839-1.2028 0.8414-1.7278 1.3593-0.51222 0.51786-0.96158 1.0499-1.3458 1.596-0.38416 0.54602-0.70417 1.1063-0.96028 1.6805s-0.44845 1.161-0.57651 1.7633c-0.12806 0.60229-0.19104 1.2191-0.19104 1.8496 0 1.1033 0.15528 2.137 0.46662 3.1023 0.31133 0.96538 0.77886 1.8624 1.4015 2.6898 0.62268 0.82746 1.4008 1.586 2.3348 2.2756 0.93401 0.68955 2.0226 1.3098 3.268 1.8614s2.6462 1.0352 4.2029 1.4489c1.5567 0.41373 3.2698 0.75884 5.1378 1.0347 1.868 0.27582 3.8917 0.48256 6.0711 0.62046 2.1794 0.13791 4.5136 0.20626 7.0043 0.20626 1.8216 0 3.5989-0.0543 5.3323-0.1623 1.7334-0.10801 3.4234-0.2692 5.0685-0.48521 1.6451-0.21602 3.2462-0.4858 4.8031-0.80982s3.069-0.70239 4.5377-1.1344c1.4686-0.43203 2.8935-0.91898 4.2739-1.459 1.3804-0.54003 2.7163-1.1339 4.0085-1.7819 1.2922-0.64803 2.5408-1.3488 3.7448-2.1048 1.2039-0.75603 2.3636-1.5671 3.4793-2.4311s2.1882-1.782 3.2156-2.754c1.0274-0.97206 2.0093-1.9986 2.9485-3.0786s1.8355-2.2135 2.6864-3.4016c0.85098-1.1881 1.6566-2.4301 2.4193-3.7262 0.76273-1.2961 1.4828-2.6467 2.1572-4.0508 0.6745-1.4041 1.3039-2.8616 1.8901-4.3737 0.58626-1.5121 1.1284-3.0782 1.6264-4.6983 0.49801-1.6201 0.95287-3.2948 1.3626-5.0229l13.062-54.917-1.153-1.0803-23.434 4.1201c-1.2934-0.87812-2.7085-1.6457-4.2452-2.3043-1.5367-0.65859-3.1956-1.2076-4.9756-1.6467-1.78-0.43906-3.6809-0.7678-5.7042-0.98733-2.0233-0.21953-4.168-0.32968-6.4346-0.32968zm4.6864 6.8217c1.1653 0 2.2416 0.08415 3.2308 0.25021 0.98923 0.16606 1.8919 0.41515 2.705 0.74726 0.81316 0.33211 1.5371 0.74614 2.1742 1.2443 0.63707 0.49817 1.1857 1.0805 1.6467 1.7447 0.94763 1.3284 1.6084 2.5321 1.9797 3.6129 0.18568 0.54038 0.2982 1.0499 0.33982 1.5283 0.0416 0.47846 0.0112 0.92582-0.0913 1.3424l-8.5276 36.274c-1.2037 1.0582-2.3979 1.984-3.5825 2.7777-1.1845 0.79369-2.3597 1.454-3.525 1.9831-1.1653 0.52913-2.3214 0.92734-3.4675 1.1919-1.1461 0.26456-2.2814 0.39561-3.4083 0.39561-1.0757 0-2.085-0.0783-3.0262-0.23669-0.9412-0.1583-1.8154-0.39681-2.6222-0.71344-0.80675-0.31663-1.5458-0.71189-2.2181-1.1868-0.67229-0.47494-1.2779-1.0286-1.8157-1.6619-0.53783-0.63326-1.0083-1.3454-1.4117-2.137-0.40338-0.79158-0.7387-1.6621-1.0076-2.612-0.26892-0.94989-0.47079-1.9789-0.60525-3.0871-0.13446-1.1082-0.20118-2.2956-0.20118-3.5622 0-2.5443 0.14298-5.0065 0.4311-7.3847 0.28813-2.3783 0.72048-4.6738 1.2967-6.886 0.57625-2.2122 1.2962-4.3411 2.1606-6.3872 0.86439-2.0461 1.8737-4.0084 3.0262-5.8885 1.1653-1.8913 2.3825-3.5469 3.6535-4.9654 0.63547-0.70925 1.284-1.36 1.9459-1.951 0.66189-0.59104 1.3371-1.1231 2.0254-1.596 0.68831-0.47284 1.3901-0.8863 2.1048-1.2409 0.71471-0.35463 1.4432-0.64948 2.1843-0.88589 0.74112-0.23642 1.4945-0.41434 2.2621-0.53255s1.5493-0.17752 2.3432-0.17752z" fill="#223abb"/>
	<path d="m23.263 2.5241e-8a14.49 11.62 0 0 0-14.489 11.62 14.49 11.62 0 0 0 14.489 11.621 14.49 11.62 0 0 0 14.49-11.621 14.49 11.62 0 0 0-14.49-11.62zm181.51 7.3069-4.0524 26.66h-12.487v16.1h12.487v34.707c0 16.851 9.8622 26.085 29.502 26.085 7.5083 0 9.773-0.4287 13.816-1.7329v-17.037c-1.9585 0.76437-4.9138 1.153-8.2385 1.153-8.822 0-11.899-4.3264-11.899-12.468v-30.707h19.689v-16.1h-19.689v-26.66zm-45.522 25.299c-18.771 0-31.317 9.8229-31.317 22.607 0 30.86 37.454 19.106 37.454 31.549 0 5.056-4.5478 8.1539-13.789 8.1539-6.9308 0-15.451-1.7389-21.515-4.0575v17.246c4.4761 1.594 15.883 3.3339 25.99 3.3339 19.493 0 30.612-11.58 30.612-24.912 0-28.838-37.238-18.819-37.238-29.688 0-4.2025 5.0379-7.9342 12.546-7.9342 2.052 0 14.479-0.05531 20.11 2.1184v-16.244c-4.4761-0.86947-14.335-2.1742-22.854-2.1742zm-147.5 1.361v66.168c0 17.46-9.5251 29.793-11.75 32.557l15.425 9.0466c7.9091-7.9021 19.618-21.461 19.618-45.226v-62.545zm37.877 0v54.286c0 15.361 11.845 22.895 24.984 22.895 9.0966 0 15.48-4.7305 21.028-9.5639l1.9375 7.826h19.336v-75.443h-23.169v52.112c0 3.3028-7.2796 6.3264-11.611 6.3264-5.4869 0-9.2427-2.9454-9.2427-10.239v-48.2zm217.08 50.083a15.322 13.404 0 0 0-15.322 13.403 15.322 13.404 0 0 0 15.322 13.405 15.322 13.404 0 0 0 15.322-13.405 15.322 13.404 0 0 0-15.322-13.403z"/>
</svg>
