<svg width="800" height="349.14" version="1.1" xmlns="http://www.w3.org/2000/svg">
	<g fill="#333738">
		<path d="m35.222 348.27h-9.801c-1.2336 0-1.6645-0.37176-2.2813-1.4194l-8.7533-15.225c-1.0477-1.7856-1.7884-4.0049-1.7884-4.0049h-0.12392v19.171c0 0.98292-0.49005 1.4786-1.4758 1.4786h-8.8772c-0.98574 0-1.4814-0.49568-1.4814-1.4786v-40.561c0-0.98573 0.49568-1.4786 1.4814-1.4786h8.8772c0.98573 0 1.4758 0.49286 1.4758 1.4786v16.397h0.12392l11.344-16.456c0.67594-0.98855 1.0477-1.4194 2.2785-1.4194h7.7056c0.98855 0 1.4166 0.49286 1.4166 1.4786 0 0.30699-0.1211 0.74071-0.36894 1.1097l-12.203 16.459 13.499 21.821c0.24502 0.36895 0.43091 0.79985 0.43091 1.1716 0 0.98292-0.49287 1.4786-1.4786 1.4786z"/>
		<path d="m57.648 332.92c-3.6979 0.61678-7.3986 1.9743-7.3986 6.2862 0 2.5911 1.6672 4.2556 4.2555 4.2556 1.6616 0 3.1431-0.67875 3.1431-2.5291zm8.1365 14.178c-1.7884 1.0477-6.534 2.0334-10.911 2.0334-7.2719 0-15.225-1.8504-15.225-9.0631 0-8.6266 10.356-10.353 17.999-11.71v-3.8838c0-2.1574-1.4195-3.3881-3.1431-3.3881-2.1574 0-3.4501 1.7884-3.9457 3.3262-0.61679 1.8504-2.4052 2.96-4.8076 2.96-2.6502 0-4.7456-1.3547-4.7456-4.0697 0-3.3881 4.1908-7.8267 14.977-7.8267 7.0269 0 12.327 3.1431 12.327 10.108v16.335c0 2.653-0.49005 3.9458-2.5263 5.1793z"/>
		<path d="m86.919 349.14c-4.1908 0-10.108-1.3575-10.108-9.801v-17.014h-2.8332c-0.98855 0-1.4195-0.49005-1.4195-1.4786v-3.0192c0-0.98574 0.43091-1.4814 1.4195-1.4814h2.8332v-3.6979c0-1.0477 0.24502-1.6025 0.98578-1.9095l7.6436-3.0839c0.30978-0.1211 0.61679-0.30698 0.98571-0.30698 0.92663 0 1.4786 0.55482 1.4786 1.4786v7.5197h4.3767c0.98855 0 1.4786 0.49568 1.4786 1.4814v3.0192c0 0.98855-0.49005 1.4786-1.4786 1.4786h-4.3767v17.324c0 3.1431 1.4814 3.9429 3.329 3.9429h1.0477c1.2336 0 1.9743 0.67875 1.9743 1.9123 0 2.1574-3.267 3.6359-7.3367 3.6359z"/>
		<path d="m127.23 348.27h-8.2604c-0.98577 0-1.4167-0.49568-1.4167-1.4786v-20.405c0-2.7741-1.5406-4.1316-4.0077-4.1316-1.5405 0-2.6502 0.49569-3.5148 1.2336v23.303c0 0.98292-0.49005 1.4786-1.4758 1.4786h-8.1985c-0.98855 0-1.4814-0.49568-1.4814-1.4786v-44.197c0-0.98855 0.49282-1.4786 1.4814-1.4786h8.1985c0.98571 0 1.4758 0.49005 1.4758 1.4786v15.78c1.3575-1.2336 4.5654-2.898 9.0012-2.898 5.3624 0 9.6771 3.4529 9.6771 8.9983v22.317c0 0.98292-0.49289 1.4786-1.4786 1.4786z"/>
		<path d="m149.78 321.33c-2.898 0-4.4415 3.4529-4.4415 10.418 0 7.0269 1.5434 10.787 4.5006 10.787 3.022 0 4.4386-3.5148 4.4386-10.48 0-6.9621-1.5406-10.725-4.4978-10.725zm0.0595 27.8c-9.3701 0-15.777-6.2862-15.777-16.89 0-10.601 6.4692-16.766 15.777-16.766 9.3081 0 15.78 6.165 15.78 16.766 0 10.604-6.41 16.89-15.78 16.89z"/>
		<path d="m180.84 348.27h-8.2604c-0.98577 0-1.4167-0.49568-1.4167-1.4786v-44.197c0-0.98855 0.43091-1.4786 1.4167-1.4786h8.2604c0.98578 0 1.4786 0.49005 1.4786 1.4786v44.197c0 0.98292-0.49282 1.4786-1.4786 1.4786z"/>
		<path d="m199.02 348.27h-8.2604c-0.98577 0-1.4167-0.49568-1.4167-1.4786v-28.972c0-0.98574 0.43091-1.4814 1.4167-1.4814h8.2604c0.98571 0 1.4786 0.49568 1.4786 1.4814v28.972c0 0.98292-0.49289 1.4786-1.4786 1.4786zm-4.1288-35.32c-3.636 0-5.8552-2.0334-5.8552-4.4386 0-2.4024 2.2193-4.3147 5.8552-4.3147 3.6359 0 5.8552 1.9123 5.8552 4.3147 0 2.4052-2.2194 4.4386-5.8552 4.4386z"/>
		<path d="m219.42 349.14c-9.3672 0-13.685-4.5597-13.685-8.1365 0-2.5882 1.7264-4.1288 4.3794-4.1288 2.2165 0 4.0669 1.1688 4.8695 2.7741 0.98571 1.9715 2.0334 3.3881 4.2499 3.3881 1.6053 0 2.96-1.1096 2.96-2.898 0-6.2862-15.842-4.5597-15.842-15.037 0-6.289 5.5482-9.6179 13.192-9.6179 8.1985 0 12.327 3.6388 12.327 7.0888 0 2.4052-1.7265 3.8218-4.0669 3.8218-2.0335 0-3.8218-1.1096-4.6245-2.8361-0.79983-1.7236-1.7884-2.9572-3.6979-2.9572-1.9095 0-2.96 1.1716-2.96 2.8952 0 6.3509 16.276 4.1316 16.276 15.411 0 5.9172-4.9315 10.232-13.378 10.232z"/>
		<path d="m251.58 349.14c-8.3224 0-14.854-5.7933-14.854-16.704 0-10.111 5.1765-16.952 15.222-16.952 8.3844 0 12.637 4.7456 12.637 8.1985 0 2.7122-1.6025 4.5597-4.9906 4.5597-2.5911 0-3.8218-1.7236-4.4415-3.6359-0.42806-1.2955-1.2927-3.329-3.636-3.329-2.4052 0-4.4386 2.898-4.4386 8.0746 0 5.7341 2.2193 10.973 7.2747 10.973 3.0191 0 4.4977-1.7236 5.6694-3.205 0.68154-0.79985 1.4195-1.2308 2.4052-1.2308 1.3547 0 2.2194 0.98574 2.2194 2.5263 0 5.6074-5.7342 10.725-13.068 10.725z"/>
		<path d="m297.99 348.27h-8.2604c-0.98577 0-1.4167-0.49568-1.4167-1.4786v-20.405c0-2.7741-1.5434-4.1316-4.0077-4.1316-1.5405 0-2.6502 0.49569-3.5148 1.2336v23.303c0 0.98292-0.49282 1.4786-1.4786 1.4786h-8.1984c-0.98578 0-1.4786-0.49568-1.4786-1.4786v-44.197c0-0.98855 0.49282-1.4786 1.4786-1.4786h8.1984c0.98577 0 1.4786 0.49005 1.4786 1.4786v15.78c1.3575-1.2336 4.5625-2.898 9.0012-2.898 5.3624 0 9.6771 3.4529 9.6771 8.9983v22.317c0 0.98292-0.49289 1.4786-1.4786 1.4786z"/>
		<path d="m319.25 321.27c-3.636 0-4.8695 4.1316-4.9315 7.5845l9.187-1.5434c-0.0622-2.898-1.0477-6.0411-4.2555-6.0411zm1.2955 27.862c-8.9983 0-15.718-5.3624-15.718-17.197 0-11.404 7.1508-16.459 15.594-16.459 7.7056 0 13.316 5.6102 13.316 12.944 0 2.1574-0.80266 2.8361-2.591 3.1431l-16.025 2.5882c0.80267 3.7007 3.0192 6.5368 7.5817 6.5368 3.267 0 5.6722-2.0954 6.7199-3.3909 0.5548-0.67875 1.2336-1.1096 2.2193-1.1096 1.2307 0 2.1574 0.98573 2.1574 2.4052 0 5.4835-6.0411 10.539-13.254 10.539z"/>
		<path d="m351.36 349.14c-9.3702 0-13.685-4.5597-13.685-8.1365 0-2.5882 1.7265-4.1288 4.3766-4.1288 2.2194 0 4.0697 1.1688 4.8695 2.7741 0.98571 1.9715 2.0362 3.3881 4.2528 3.3881 1.6025 0 2.9572-1.1096 2.9572-2.898 0-6.2862-15.839-4.5597-15.839-15.037 0-6.289 5.5482-9.6179 13.192-9.6179 8.1985 0 12.327 3.6388 12.327 7.0888 0 2.4052-1.7265 3.8218-4.0669 3.8218-2.0362 0-3.8218-1.1096-4.6244-2.8361-0.80267-1.7236-1.7884-2.9572-3.698-2.9572-1.9123 0-2.96 1.1716-2.96 2.8952 0 6.3509 16.273 4.1316 16.273 15.411 0 5.9172-4.9315 10.232-13.375 10.232z"/>
		<path d="m411.26 312.46h-11.589v9.739h9.5532c0.98855 0 1.4814 0.49568 1.4814 1.4814v4.6217c0 0.98573-0.49282 1.4195-1.4814 1.4195h-9.5532v17.076c0 0.98292-0.49289 1.4786-1.4786 1.4786h-9.0603c-0.98571 0-1.4814-0.49568-1.4814-1.4786v-40.561c0-0.98573 0.49566-1.4786 1.4814-1.4786h22.128c0.98571 0 1.4166 0.49286 1.4166 1.4786v4.7484c0 0.98573-0.43091 1.4758-1.4166 1.4758z"/>
		<path d="m429.99 321.27c-3.636 0-4.8695 4.1316-4.9315 7.5845l9.1842-1.5434c-0.0622-2.898-1.0477-6.0411-4.2527-6.0411zm1.2927 27.862c-8.9984 0-15.715-5.3624-15.715-17.197 0-11.404 7.148-16.459 15.594-16.459 7.7028 0 13.313 5.6102 13.313 12.944 0 2.1574-0.80266 2.8361-2.5882 3.1431l-16.028 2.5882c0.80267 3.7007 3.022 6.5368 7.5846 6.5368 3.2642 0 5.6694-2.0954 6.7171-3.3909 0.5548-0.67875 1.2336-1.1096 2.2193-1.1096 1.2308 0 2.1574 0.98573 2.1574 2.4052 0 5.4835-6.0411 10.539-13.254 10.539z"/>
		<path d="m470.3 326.33c-4.9315 0-3.4529-4.9315-6.841-4.9315-1.4814 0-2.4052 0.79985-2.4052 2.1573v23.241c0 0.98292-0.49289 1.4786-1.4786 1.4786h-8.1985c-0.98571 0-1.4786-0.49568-1.4786-1.4786v-25.274c0-2.3404 0.49289-3.205 2.6502-4.1316 2.2194-0.98574 6.6552-1.9095 11.587-1.9095 7.3987 0 10.418 2.5911 10.418 6.1031 0 3.0192-1.4786 4.7456-4.2527 4.7456z"/>
		<path d="m506.6 348.27h-8.2604c-0.98578 0-1.4167-0.49568-1.4167-1.4786v-21.328c0-2.2813-0.98571-4.1316-3.9429-4.1316-3.0192 0-3.5768 1.5434-3.5768 3.4529v22.007c0 0.98292-0.49282 1.4786-1.4786 1.4786h-8.1985c-0.9857 0-1.4786-0.49568-1.4786-1.4786v-25.274c0-2.3404 0.55487-3.1431 2.6502-4.0697 2.4052-1.0477 7.4578-1.9715 12.389-1.9715 8.9363 0 14.792 3.1431 14.792 9.494v21.821c0 0.98292-0.49005 1.4786-1.4786 1.4786z"/>
		<path d="m526.87 349.14c-9.3701 0-13.685-4.5597-13.685-8.1365 0-2.5882 1.7264-4.1288 4.3766-4.1288 2.2193 0 4.0696 1.1688 4.8695 2.7741 0.98855 1.9715 2.0362 3.3881 4.2528 3.3881 1.6053 0 2.96-1.1096 2.96-2.898 0-6.2862-15.842-4.5597-15.842-15.037 0-6.289 5.5482-9.6179 13.192-9.6179 8.1985 0 12.327 3.6388 12.327 7.0888 0 2.4052-1.7264 3.8218-4.0668 3.8218-2.0362 0-3.8218-1.1096-4.6245-2.8361-0.80266-1.7236-1.7884-2.9572-3.6979-2.9572-1.9123 0-2.96 1.1716-2.96 2.8952 0 6.3509 16.276 4.1316 16.276 15.411 0 5.9172-4.9315 10.232-13.378 10.232z"/>
		<path d="m558.61 321.27c-3.6387 0-4.8695 4.1316-4.9314 7.5845l9.1842-1.5434c-0.0622-2.898-1.0477-6.0411-4.2528-6.0411zm1.2927 27.862c-8.9983 0-15.718-5.3624-15.718-17.197 0-11.404 7.1508-16.459 15.594-16.459 7.7056 0 13.316 5.6102 13.316 12.944 0 2.1574-0.80267 2.8361-2.5883 3.1431l-16.028 2.5882c0.80267 3.7007 3.0192 6.5368 7.5817 6.5368 3.267 0 5.6721-2.0954 6.7198-3.3909 0.55487-0.67875 1.2336-1.1096 2.2194-1.1096 1.2307 0 2.1545 0.98573 2.1545 2.4052 0 5.4835-6.0384 10.539-13.251 10.539z"/>
		<path d="m606.86 348.27h-8.2604c-0.9857 0-1.4167-0.49568-1.4167-1.4786v-20.405c0-2.7741-1.5405-4.1316-4.0049-4.1316-1.5434 0-2.653 0.49569-3.5148 1.2336v23.303c0 0.98292-0.49282 1.4786-1.4786 1.4786h-8.1984c-0.98855 0-1.4786-0.49568-1.4786-1.4786v-44.197c0-0.98855 0.49005-1.4786 1.4786-1.4786h8.1984c0.98578 0 1.4786 0.49005 1.4786 1.4786v15.78c1.3547-1.2336 4.5625-2.898 8.9984-2.898 5.3652 0 9.677 3.4529 9.677 8.9983v22.317c0 0.98292-0.49282 1.4786-1.4786 1.4786z"/>
		<path d="m628.12 321.27c-3.636 0-4.8695 4.1316-4.9315 7.5845l9.1842-1.5434c-0.0622-2.898-1.0477-6.0411-4.2527-6.0411zm1.2955 27.862c-9.0012 0-15.718-5.3624-15.718-17.197 0-11.404 7.1508-16.459 15.594-16.459 7.7028 0 13.316 5.6102 13.316 12.944 0 2.1574-0.80266 2.8361-2.591 3.1431l-16.028 2.5882c0.80267 3.7007 3.022 6.5368 7.5846 6.5368 3.2642 0 5.6694-2.0954 6.7171-3.3909 0.5548-0.67875 1.2336-1.1096 2.2193-1.1096 1.2336 0 2.1574 0.98573 2.1574 2.4052 0 5.4835-6.0383 10.539-13.251 10.539z"/>
		<path d="m676.38 348.27h-8.2604c-0.98855 0-1.4166-0.49568-1.4166-1.4786v-21.328c0-2.2813-0.98855-4.1316-3.9457-4.1316-3.022 0-3.5768 1.5434-3.5768 3.4529v22.007c0 0.98292-0.49289 1.4786-1.4786 1.4786h-8.1985c-0.98571 0-1.4786-0.49568-1.4786-1.4786v-25.274c0-2.3404 0.5548-3.1431 2.6502-4.0697 2.4052-1.0477 7.4578-1.9715 12.389-1.9715 8.9364 0 14.792 3.1431 14.792 9.494v21.821c0 0.98292-0.49005 1.4786-1.4758 1.4786z"/>
		<path d="m608.76 218.45c-14.724 0-26.705-11.981-26.705-26.705s11.981-26.705 26.705-26.705c14.724 0 26.702 11.981 26.702 26.705s-11.978 26.705-26.702 26.705zm185.77-150.68-34.365-27.215c-0.94914-0.75197-1.1097-2.1348-0.3577-3.0839l3.2388-4.0894c2.3939-3.0248 3.467-6.8016 3.022-10.632-0.44496-3.8331-2.3545-7.2606-5.3793-9.6574l-12.589-9.97c-2.5404-2.0109-5.7229-3.1205-8.9589-3.1205-4.4442 0-8.5731 1.9968-11.328 5.475l-8.404 10.612-48.757 61.563-38.784 48.974c-0.40556 0.50977-1.0252 0.80267-1.7011 0.80267-0.28444 0-0.5661-0.0507-0.84208-0.15209-8.359-3.1065-17.031-4.6808-25.776-4.6808-20.557-3e-3 -39.303 8.8181-51.43 24.198-22.83 28.955-15.873 72.637 15.504 97.379 13.547 10.683 30.192 16.563 46.867 16.563 20.562 0 39.311-8.8209 51.438-24.204 17.509-22.207 17.966-54.114 1.135-79.394-0.55488-0.83366-0.53514-1.8898 0.048-2.6277l33.608-42.434c0.59421-0.75197 1.4053-0.83365 1.7264-0.83365 0.34641 0 0.86465 0.0817 1.3603 0.47597l34.363 27.215c2.5404 2.0109 5.7229 3.1206 8.9617 3.1206 4.4415 0 8.5702-1.9968 11.325-5.475l16.005-20.208c-0.55203-0.19152-1.0786-0.47597-1.5631-0.85618l-30.332-23.984-8.5083 10.759c-1.0533 1.3378-2.622 2.0362-4.2048 2.0362-1.1631 0-2.3348-0.37739-3.3177-1.1547-2.3207-1.8363-2.715-5.2047-0.87871-7.5254l8.5026-10.759-7.7535-6.1313c-2.3207-1.8363-2.715-5.2047-0.87871-7.5254 1.8306-2.3207 5.2018-2.715 7.5253-0.87871l7.7535 6.1313 8.5054-10.759c1.8335-2.3207 5.2019-2.7178 7.5254-0.88153 2.3178 1.8363 2.7122 5.2047 0.87871 7.5254l-8.5055 10.759 30.335 23.984c0.48728 0.38585 0.87026 0.84773 1.1829 1.3462l16.158-20.402c4.9428-6.2411 3.8866-15.344-2.3545-20.286z"/>
		<path d="m505.35 86.871h-33.27c-5.4919 0-7.6296 1.8335-9.156 6.7171l-19.534 69.897c-3.9655 14.04-6.4101 33.267-6.4101 33.267h-0.60833s-1.8306-19.227-5.4919-33.267l-18.619-69.897c-1.2224-4.8836-3.6642-6.7171-8.8547-6.7171h-90.04v-37.233c0-4.5794-2.746-7.3282-7.3254-7.3282-1.8306 0-3.3543 0.91814-4.8836 1.5265l-37.846 15.262c-3.6641 1.5265-4.8836 4.2724-4.8836 9.4602v18.312h-14.04c-4.8836 0-7.0212 2.4446-7.0212 7.3282v14.955c0 4.8836 2.1376 7.3254 7.0212 7.3254h14.04v84.241c0 41.818 29.302 48.529 50.055 48.529 20.146 0 36.323-7.3226 36.323-18.005 0-6.1059-3.6642-9.463-9.7673-9.463h-5.1905c-9.1561 0-16.481-3.9683-16.481-19.534v-85.767h47.383l41.133 121.78c1.5237 4.8836 3.9682 6.7142 9.463 6.7142h44.257c5.4948 0 7.6296-1.8306 9.1561-6.7142l46.698-138.26c0.60833-2.1376 1.2195-3.9683 1.2195-5.7989 0-4.8836-2.4418-7.3282-7.3254-7.3282z"/>
		<path d="m190.2 191.41c-16.845 0-30.49-13.643-30.49-30.487s13.645-30.49 30.49-30.49c16.845 0 30.484 13.645 30.484 30.49s-13.64 30.487-30.484 30.487z"/>
	</g>
	<path d="m150.78 244.98h-43.645c-6.1059 0-7.9393-1.8306-11.296-7.0212l-32.352-51.275c-5.1878-8.2407-8.2407-17.4-8.2407-17.4h-0.61118v68.37c0 4.8864-2.4418 7.3254-7.3254 7.3254h-39.984c-4.8836 0-7.3226-2.439-7.3226-7.3254v-218.84c0-4.8836 2.439-7.3254 7.3226-7.3254h39.984c4.8836 0 7.3254 2.4418 7.3254 7.3254v131.55h0.61118l42.122-56.466c3.6613-4.8808 4.8808-7.0184 10.987-7.0184h37.542c4.8836 0 7.3254 2.4418 7.3254 7.3254 0 1.5265-0.91812 3.9683-2.4418 5.4948l-47.918 54.635 53.413 77.831c1.2194 1.8306 1.8306 3.9683 1.8306 5.4919 0 4.8864-2.4418 7.3254-7.3254 7.3254z" fill="#faa539"/>
</svg>
