<svg xmlns="http://www.w3.org/2000/svg" width="308.877" height="450" viewBox="0 0 231.658 337.5" preserveAspectRatio="xMidYMid meet"><path d="M41.47.362c-1.488.43-3.537 2.314-4.529 4.132-.463.893-7.504 21.784-15.635 46.411L6.331 96.092c-.099.331 7.008.43 34.907.43H76.31l15.867-47.898 15.9-48.262c0-.463-65.087-.463-66.608 0zm77.351.033c-.793 2.149-20.991 63.434-20.991 63.699s14.545.364 53.319.298l54.774-.793c1.917-.859 3.57-2.512 4.43-4.43.694-1.454.694-1.818.694-27.106 0-25.354 0-25.618-.694-27.106-.893-1.917-2.215-3.206-4.264-4.165l-1.653-.793h-42.741l-42.874.397zM6.265 106.571c0 .099 16.363 33.651 26.313 53.914 2.611 5.289 6.016 8.429 10.512 9.619 1.388.364 8.198.463 37.386.463l41.287.331c23.404 1.355 43.601 9.553 60.393 24.561 16.528 14.743 28.66 35.734 33.155 57.352 1.421 6.975 1.686 9.52 1.686 17.354l.066 7.504c.298 0 4.958-9.917 6.479-13.718 5.322-13.487 7.735-25.685 8.066-40.56.264-11.867-.463-18.842-3.074-29.321-4.925-19.867-15.437-38.147-30.676-53.452-19.834-19.834-44.526-31.502-71.765-33.816-3.801-.331-119.828-.529-119.828-.231zm132.356 77.615c11.867 8.099 18.544 17.421 20.924 29.255.793 3.967.76 12.363-.033 16.462-3.768 19.106-17.487 32.362-36.957 35.7l-1.256.198v35.833 35.833l1.587-.165c13.487-1.289 21.222-2.744 30.312-5.653 25.883-8.297 43.634-25.222 50.245-47.898 1.62-5.62 2.215-9.752 2.38-16.892.364-13.222-2.049-23.668-8.198-35.866-11.768-23.238-34.444-41.32-58.972-47.072-.628-.132-.628-.132-.033.264zM5.505 213.375c-2.215.76-3.901 2.545-4.892 5.124-.661 1.719-.694 2.215-.529 8.429.43 15.503 4.165 30.312 11.437 45.287 6.281 12.925 12.33 21.42 22.478 31.602 5.52 5.487 9.223 8.661 14.412 12.396 15.206 10.908 34.841 18.313 54.212 20.462l6.049.661 1.388.165v-35.866-35.866l-.893-.198c-12.859-2.843-22.875-8.859-29.552-17.751-5.124-6.843-7.702-13.95-8.694-24.098-.397-4.165-.595-5.091-1.388-6.578-.529-.926-1.388-2.049-1.95-2.479-2.446-1.851-1.025-1.785-32.13-1.785-23.437.033-28.924.099-29.949.496z"/></svg>