<svg xmlns="http://www.w3.org/2000/svg" xmlns:xlink="http://www.w3.org/1999/xlink" width="800" height="310.671"><g fill="#19171c"><path d="M312.017 140.532c0-.575.311-1.437.311-2.012 0-6.324-5.598-11.21-11.818-11.21-5.287 0-9.952 3.449-11.196 8.048L260.39 241.139 232.089 137.37c-1.555-5.749-6.22-10.061-13.373-10.061-7.464 0-12.44 4.312-13.995 10.061l-27.99 103.769-29.234-105.781c-1.555-5.174-6.22-8.048-11.196-8.048-6.842 0-12.129 5.174-12.129 10.636 0 .575 0 1.15.311 1.725l36.076 123.891c2.488 8.049 7.153 12.935 15.55 12.935 7.775 0 12.44-2.874 14.617-9.773l27.679-100.895 27.99 100.895c1.866 6.324 7.775 9.773 14.306 9.773 9.019 0 12.751-4.312 15.55-12.935zm49.055 124.753V138.52c0-6.036-5.287-11.21-12.129-11.21s-12.129 5.174-12.129 11.21v126.765c0 6.324 5.287 11.211 12.129 11.211s12.129-4.887 12.129-11.211z"/><use xlink:href="#B"/><use xlink:href="#B" x="-132.173"/><path d="M1.708 167.84c0 37.943 47.407 39.955 69.863 49.729 7.129 3.162 14.765 7.474 14.765 17.822 0 14.947-14.765 21.271-34.369 21.271-14.258 0-25.663-10.519-35.214-15.368C10.679 238.21.237 244.468 0 251.067c0 13.223 33.788 25.429 51.967 25.429 39.565 0 59.883-16.097 59.883-41.968 0-37.368-41.704-39.955-66.299-49.729-12.119-4.887-18.012-9.486-18.012-18.397 0-13.223 14.771-18.181 30.057-18.181 12.832 0 21.147 7.752 28.539 10.859 7.609 3.198 18.976-1.524 19.248-8.911 0-12.073-27.395-23.722-45.93-23.722-37.783 0-57.744 16.672-57.744 41.393z"/></g><path d="M709.02 0c-12.958 0-12.915 1.686-17.883 6.571l-55.221 54.288c-15.806 15.539-9.831 43.18 14.626 43.18h22.962c8.968 0 22.558 13.586 22.558 22.555v156.106c.276 15.494 12.475 27.972 27.972 27.972h47.995c15.496 0 27.972-12.475 27.972-27.972v-8.905h-21.812c-12.423 0-22.202-10.003-22.424-22.424V126.225c0-7.189-10.894-18.084-18.084-18.084h-18.408c-19.606 0-24.394-22.159-11.724-34.616l44.266-43.517c3.983-3.916 3.948-5.27 14.335-5.27h33.65C798.204 10.778 786.429 0 772.028 0z" fill="#cd081e"/><defs ><path id="B" d="M519.097 167.84c0 37.943 47.407 39.955 69.863 49.729 7.129 3.162 14.765 7.474 14.765 17.822 0 14.947-14.765 21.271-34.369 21.271-14.258 0-25.663-10.519-35.214-15.368-6.074-3.084-16.516 3.174-16.753 9.773 0 13.223 33.788 25.429 51.967 25.429 39.565 0 59.883-16.097 59.883-41.968 0-37.368-41.704-39.955-66.299-49.729-12.119-4.887-18.012-9.486-18.012-18.397 0-13.223 14.771-18.181 30.057-18.181 12.832 0 21.147 7.752 28.539 10.859 7.609 3.198 18.976-1.524 19.248-8.911 0-12.073-27.395-23.722-45.93-23.722-37.783 0-57.744 16.672-57.744 41.393z"/></defs></svg>