<?xml version="1.0" encoding="UTF-8"?>
<svg width="715.8" height="450" version="1.1" xmlns="http://www.w3.org/2000/svg">
	<g fill="#4e2f90">
		<path d="m264.12 236.44v65.094h65.094v-65.094zm81.351 0v65.094h65.093v-65.094zm81.288 0v65.094h65.093v-65.094zm35.489 13.854c2.0243 0 3.9222 0.19061 5.7567 0.6334 1.8345 0.44279 3.4788 1.0118 5.0603 1.8342v7.0849c-1.3917-0.94888-2.9726-1.6444-4.6173-2.1506-1.708-0.50607-3.4798-0.75959-5.1877-0.69635-2.5304 0-4.681 0.44308-6.4523 1.392-1.7713 0.88562-3.1628 2.3404-4.0484 4.0483-0.94886 1.7712-1.392 3.922-1.392 6.4523 0 2.5303 0.44308 4.7447 1.392 6.516 0.88566 1.7713 2.2775 3.1633 3.9854 4.1122 1.7713 0.94888 3.8586 1.3912 6.3256 1.3912 3.7956 0 7.2752-1.0117 10.502-2.9728v7.0212h-0.0637c-1.5183 0.82237-3.289 1.5188-5.2499 1.9616-2.0243 0.50602-4.1122 0.69559-6.3263 0.69559-2.9099 0-5.5666-0.44289-7.9072-1.2653-2.3406-0.88564-4.3016-2.0877-5.9463-3.6692-1.6448-1.5815-2.8465-3.5421-3.732-5.8826-0.88562-2.3406-1.2653-4.9343-1.2653-7.8442 0-2.8467 0.44263-5.3769 1.3282-7.7175 0.88564-2.2774 2.214-4.2386 3.8587-5.8833 1.708-1.6447 3.7324-2.9098 6.073-3.732 2.3406-0.88559 4.9972-1.329 7.9072-1.329zm-179.85 0.38006h13.727c4.0486 0 7.2117 0.82239 9.4258 2.4039 2.2141 1.6447 3.3529 3.9218 3.3529 6.9582 0 1.7713-0.37918 3.2268-1.2016 4.5551-0.82235 1.2652-1.961 2.2766-3.5425 3.0358 2.1508 0.69582 3.795 1.835 4.9336 3.4164 1.1387 1.5182 1.7083 3.416 1.7083 5.63 0.0633 2.2141-0.50588 4.1115-1.6446 5.6929-1.1387 1.5815-2.7205 2.7838-4.7447 3.6062-2.0876 0.82238-4.5545 1.2645-7.4012 1.2645h-14.613zm81.414 0h13.727c4.0485 0 7.2117 0.82239 9.4258 2.4039 2.2141 1.6447 3.3528 3.9218 3.3528 6.9582 0 1.7713-0.37919 3.2268-1.2016 4.5551-0.82238 1.2652-1.961 2.2766-3.5424 3.0358 2.1508 0.69582 3.7949 1.835 4.9336 3.4164 1.1387 1.5182 1.7083 3.416 1.7083 5.63-0.0634 2.2141-0.63286 4.1115-1.7083 5.6929-1.1387 1.5815-2.7198 2.7838-4.744 3.6062-2.0876 0.82238-4.5545 1.2645-7.4012 1.2645h-14.55zm-74.013 5.9463v9.1095h5.63c1.9611 0 3.4164-0.44296 4.4284-1.2653 1.0122-0.82239 1.5179-2.0246 1.5179-3.4794 0-2.91-1.961-4.3647-5.9463-4.3647zm81.351 0v9.1095h5.6299c1.9611 0 3.4164-0.44296 4.4284-1.2653 1.0122-0.82239 1.5179-2.0246 1.5179-3.4794 0-2.91-1.961-4.3647-5.9463-4.3647zm-81.351 14.866v9.8681h6.4522c2.2141 0 3.9222-0.4429 5.124-1.2653 1.202-0.82233 1.7713-2.0239 1.7713-3.6054 0.0633-3.3526-2.214-4.9973-6.7686-4.9973zm81.351 0v9.8681h6.4522c2.2141 0 3.9222-0.4429 5.124-1.2653 1.2019-0.82233 1.7712-2.0239 1.7712-3.6054 0.0633-3.3526-2.214-4.9973-6.7686-4.9973z"/>
		<path d="m166.1 334.1h75.731v20.322h-51.281v27.943h45.248v20.322h-45.248v44.93h-24.45z"/>
		<path d="m307.41 331.72q12.86 0 23.18 4.1278 10.479 4.128 17.782 11.908 7.4619 7.6207 11.431 18.576 3.9691 10.796 3.9691 24.45 0 13.495-3.9691 24.45-3.9692 10.955-11.431 18.735-7.3032 7.7795-17.782 11.908-10.32 4.1279-23.18 4.1279-12.86 0-23.339-4.1279-10.32-4.1278-17.782-11.908-7.3032-7.7795-11.272-18.735-3.9691-10.955-3.9691-24.45 0-13.654 3.9691-24.45 3.9692-10.955 11.272-18.576 7.4619-7.7795 17.782-11.908 10.479-4.1278 23.339-4.1278zm0 97.006q9.6847 0 16.671-4.4454 6.9857-4.6042 10.637-13.019 3.6516-8.4146 3.6516-20.481 0-12.066-3.6516-20.481-3.6516-8.4146-10.637-12.86-6.9856-4.4454-16.671-4.4454t-16.671 4.4454q-6.9856 4.4454-10.637 12.86-3.6516 8.4145-3.6516 20.481 0 12.066 3.6516 20.481 3.6516 8.4145 10.637 13.019 6.9857 4.4454 16.671 4.4454z"/>
		<path d="m428.32 450q-15.242 0-26.197-5.7155-10.796-5.8743-16.671-16.829-5.7155-10.955-5.7155-26.355v-66.999h24.45v69.698q0 12.066 6.1918 18.576 6.3506 6.3506 17.941 6.3506 11.59 0 17.782-6.3506 6.3506-6.5093 6.3506-18.576v-69.698h24.45v66.999q0 15.4-5.8743 26.355-5.7155 10.955-16.671 16.829-10.955 5.7155-26.038 5.7155z"/>
		<path d="m518.6 406.34v41.278h-24.133v-113.52h41.437q22.386 0 34.294 9.3672 12.066 9.3672 12.066 26.832 0 11.272-5.398 19.211-5.2392 7.9383-15.083 12.225 7.1444 11.272 14.13 22.704 6.9857 11.272 13.972 23.18h-28.102q-11.431-20.957-23.656-41.278-1.2701 0-2.3815 0zm0-19.211h15.877q11.272 0 17.147-3.9692 5.8743-4.1279 5.8743-12.86 0-8.7321-5.8743-12.86-5.7155-4.1279-16.988-4.1279h-16.035z"/>
	</g>
	<g>
		<path d="m705 209.8c-21.246-19.878-54.651-18.605-73.811 3.2633-1.5436-7.8943 2.2749-5.7142 5.4434-11.713 7.7183-14.258 15.247-25.511 8.1651-42.667-11.442-28.138-49.749-30.954-72.267-14.8 1.0833-16.154 17.156-17.522 20.704-35.044 2.8165-14.258-5.7142-26.242-20.609-28.964-12.444-2.2749-21.34 3.2633-26.513 14.529-3.7237 8.2599 3.2633 23.06 0.81245 28.233-1.5437 3.2633-16.885 9.5327-20.149 12.254 3.0873-30.683-17.698-55.192-49.844-48.205 7.3527-26.242 50.656-72.904-1.002-85.239-52.836-12.62-38.943 60.554-54.651 85.158-8.6255-56.831-89.87-37.589-97.859 9.8983-15.437-12.62-11.347-35.314-33.405-46.025-28.138-13.622-56.289 8.1651-63.818 35.504-12.349-27.149-60.649-15.247-79.349-4.2654-27.962 16.425-39.133 43.398-31.509 75.26-31.685-27.786-67.731-40.216-95.679-2.6269-19.16 25.876-25.782 57.833-13.256 88.151 13.703 33.229 49.749 70.629 88.516 68.99 34.231-1.4489 88.421-47.122 77.535-85.253 37.955 10.9 122.75-16.98 99.958-70.263 20.975 3.6289 42.491-5.9986 56.37-21.611 11.442 21.692 56.37 48.666 76.533 22.789 12.525 43.845 66.093 52.565 98.685 24.698 9.8983 17.346 34.136 16.885 47.298 4.7257-0.54163 28.869 39.404 75.991 70.182 51.387 0 13.974-24.414 16.249-23.331 37.589 1.3676 27.055 35.775 40.582 58.74 35.044 11.523-2.8165 21.977-9.6275 28.503-19.607 5.3622-8.2599 2.7217-21.246 6.7162-27.515 3.3581-5.2674 15.518-7.2579 19.973-15.437 7.1766-13.067 3.5342-28.327-7.0818-38.226zm-480.06-96.045c1.178-2.7217 7.2579 13.622 9.3567 16.52-4.7257-1.1781-10.074-0.36561-14.705-1.8145l5.3622-14.705zm-98.861 71.726c5.9038 5.5382 4.807 8.6255-3.3581 9.3567zm-10.345 18.158c-4.5362 10.169-1.002 31.78-12.349 36.492-17.061 7.0818-30.413-21.611-32.864-33.229 13.527 11.523 32.864 8.5307 45.213-3.2633z"/>
		<path d="m697.83 217.52c-13.622-12.715-35.409-15.613-50.927-4.631-18.429 12.986-14.611 25.24-4.2654 39.309 4.3601 5.985 19.512 9.9796 10.9 20.88-7.9891 10.169-12.525 2.4509-17.982-2.9925-7.4474-7.4474-6.0798-22.153-20.244-10.9-9.3567 7.4474-6.7162 18.795-1.5437 27.055 21.056 33.324 85.971 5.985 60.094-29.681-5.0778-7.0818-21.611-9.9796-12.986-22.058 9.8036-13.622 14.164 2.0853 19.512 6.7162 7.4474 6.4454 6.2694 16.98 18.605 7.0818 10.345-8.2599 7.0818-23.06-1.178-30.778zm-134-95.408c8.4495 3.2633 20.704-13.351 18.605-20.609-2.7217-9.6275-20.975-15.707-24.969-3.3581-3.0873 8.0839-3.2633 20.338 6.3506 23.967zm55.098 101.41c11.618-20.88-15.802-12.16-23.791-18.063-12.444-9.0723-8.8015-14.164 0.90722-15.166 15.883-1.6384 26.323 18.429 38.226-3.5342 7.4474-13.622 0.63642-31.496-12.254-38.578-28.598-15.707-60.73 10.264-60.013 40.04 0.46038 22.329 39.945 64.996 56.926 35.314zm-236.22-161.96c-35.409-1.4489-60.73 32.769-45.213 66.093a47.528 47.528 0 0 0 40.392 27.149c10.616 0.4604 33.595-7.813 21.611-24.333-7.4474-10.169-29.045 7.813-36.127-9.9796-7.4474-18.524 24.143-1.2728 32.769-3.7237 29.411-8.6255 13.351-53.919-13.432-55.192zm-226.14 157.51c-39.769-41.76-22.87 13.527-43.764 28.964-24.969 18.429-67.812-35.409-53.107-57.738 9.8035-14.976 21.787 25.335 45.213 8.4495 35.775-25.687-27.867-66.363-53.297-58.104-23.155 7.5287-39.675 42.301-41.123 64.644-2.4509 36.222 26.242 75.896 58.645 90.331 23.331 10.345 44.752 3.3581 63.452-12.254 15.883-13.351 44.035-44.211 23.967-64.278zm165.41-108.49c-10.44-23.507-20.704 5.7142-30.859 8.8015-13.162 3.9945-19.973-0.63641-12.349-10.616 9.9796-13.067 32.322-12.715 21.692-35.044-6.4454-13.703-24.333-20.338-38.402-15.707-38.849 12.986-31.956 68.083 0.63642 83.344 20.42 9.6275 70.453-0.90723 59.282-30.778zm213.62 29.966c-11.808 10.264-36.587 52.836 0 42.031 26.784-7.9891 34.136-71.536 0-42.031zm-20.338-18.524c-0.90722-10.616-6.1746-18.971-16.154-23.155-7.813-3.2633-20.149 2.8165-26.242-0.3656-17.617-9.0723-0.27082-29.6 6.811-41.394 8.9911-14.976 18.253-45.93-11.523-45.389-24.143 0.46039-27.055 32.864-29.045 50.656-4.0893 36.222-50.02 81.069-7.813 114.39 38.496 30.413 89.965-11.442 83.98-54.745zm-259.55 27.501c-13.432-11.713-42.125-3.2633-45.66-24.414-2.3561-14.434 16.344-25.24 2.0853-39.214-21.692-21.151-71.631 5.985-82.883 27.231-19.797 37.494 11.347 94.325 50.656 103.59 30.047 7.1766 120.65-28.233 75.801-67.176z" fill="#ffe40f"/>
		<path d="m616.85 164.05c-8.9911-13.798-29.329-1.5437-20.88 10.44 6.6214 9.2619 27.691 0.0948 20.88-10.44zm-248.11-73.445c-4.9966 14.976 35.856 19.797 28.057-1.9093-3.9945-10.982-24.414-8.8963-28.057 1.9093zm-89.965-17.251c-10.535-9.0723-30.873 11.713-24.062 22.058 8.8963 13.527 37.589-10.44 24.062-22.058zm178.75 45.578c-20.433 4.631 6.3506 61.556 31.956 28.057 14.8-19.336-15.247-31.862-31.956-28.057zm-276.72 18.429c13.798-15.978-1.3676-45.754-20.514-27.149-16.073 15.518 8.0839 41.665 20.514 27.149zm1.002 26.784c-17.617 12.986 35.585 51.563 38.673 8.9911 1.4489-19.702-26.594-17.793-38.673-8.9911z" fill="#4e2f90"/>
	</g>
</svg>
