<svg xmlns="http://www.w3.org/2000/svg" width="800" height="353.553" fill-rule="evenodd"><path d="M645.985 353.553c85.435 0 154.015-69.221 154.015-154.58 0-85.017-68.58-154.207-154.015-154.207-85.477 0-154.78 69.19-154.78 154.207 0 85.359 69.303 154.58 154.78 154.58" fill="#0c8fcf"/><path d="M398.091 65.936l-73.028 188.077-73.028-188.077H88.031V0H0v261.142c0 40.155 32.549 72.709 72.704 72.709h97.268l-31.967-68.614h-33.52c-9.088 0-16.454-7.363-16.454-16.448V124.957H177.9l97.048 208.894h100.229L498.136 65.936H398.091" fill="#010202"/></svg>