<svg xmlns="http://www.w3.org/2000/svg" width="322.282" height="450" fill-rule="evenodd"><path d="M206.806 0l-5.352 6.681V64.72l33.452-41.729L206.817 0zm-64.743 80.799v160.442h36.157V35.683l-36.157 45.104zm59.403 21.246v139.219h36.157V56.929l-36.157 45.104zM13.432 241.252h46.526l58.848-73.413v-58.05zm188.045 148.721h36.157v-65.229h-36.157zm-59.414 60.015h36.157V324.744h-36.157V450zm59.403 0h90.393v-36.527h-90.393zm-118.794 0h36.157v-36.527h-36.18v36.527z" fill="#666464"/><path fill="#00e1c3" d="M234.698 264.741l-29.279 36.527h116.864v-36.527z"/><path fill="#fadc00" d="M0 301.268h178.208v-36.527H.012z"/></svg>