<?xml version="1.0" encoding="UTF-8"?>
<svg width="800" height="296.17" version="1.1" xmlns="http://www.w3.org/2000/svg">
 <path d="M613.59 133.71h168.93c10.507 0 17.48-8.849 17.48-17.475v-83.45L758.533.002h-123.59c-12.122 0-21.359 9.665-21.359 21.359z" fill="#005c63"/>
 <path d="M644.63 20.116c-3.202 0-5.795 2.593-5.795 5.795v82.584c0 3.202 2.593 5.795 5.795 5.795h18.477V79.095h15.533v35.195h18.477c3.202 0 5.795-2.593 5.795-5.795V25.911c0-3.202-2.593-5.795-5.795-5.795H678.64v34.951h-15.533V20.116zm67.991 0v94.175h40.776l22.331-18.447V38.562l-22.331-18.447zm21.359 23.301h13.592l6.796 6.796v33.98l-6.796 6.796H733.98V43.417z" fill="#ffea19"/>
 <g transform="matrix(.74758 0 0 .74758 .000737 .000907)">
  <path transform="scale(.98649)" d="M783.49 0h-140.5l-67.769 54.511v-27.22C575.178 12.439 563.08.218 548.239 0H511.14c-5.677 0-11.073 1.639-15.605 4.775L432.92 58.742V27.317C432.879 12.232 420.559 0 405.46 0h-142.3c-9.091 0-17.5 4.469-22.549 11.013C235.664 4.443 227.856.129 219.092 0h-37.098c-5.618 0-11.014 1.664-15.606 4.843L103.8 58.804V0H27.457C12.357 0 .038 12.269-.001 27.369v227.37c.039 15.128 12.358 27.416 27.458 27.416H103.8v-58.903l62.279 53.855c4.467 3.221 10.301 5.048 15.915 5.048h37.157c8.938-.15 16.876-4.672 21.79-11.486 5.002 6.951 13.138 11.486 22.312 11.486h27.196c4.229-.594 8.66-2.147 11.704-4.292 1.583-1.125 16.488-13.109 26.992-21.58v25.872h76.315c15.099 0 27.419-12.325 27.46-27.467v-31.429l62.615 53.967c4.657 3.223 10.052 4.929 15.605 4.929h37.159c8.9-.15 16.81-4.66 21.714-11.465 4.987 6.938 13.102 11.465 22.259 11.465h76.325V198.5h38.569v83.655h76.327c15.097 0 27.414-12.304 27.459-27.426V27.359c-.046-15.108-12.364-27.36-27.46-27.36zM162.12 141.06l73.611-59.271v118.55zm329.14-.057l73.58-59.284v118.56zm215.9-26.099h-38.569V78.232h38.569zM46.144 334.28l-15.795 63.542c-.384 1.681-1.262 2.518-2.635 2.518H17.521c-1.449 0-2.366-.837-2.747-2.518L.23 334.28c-.228-1.145-.038-2.078.574-2.803s1.493-1.091 2.641-1.091h7.577c.614 0 1.264.268 1.952.8s1.073 1.103 1.15 1.71l8.023 40.183c.152.925.458 1.387.918 1.387.306 0 .575-.454.803-1.363l9.045-40.185c.38-1.685 1.407-2.531 3.08-2.531h7.071c2.129 0 3.196.993 3.196 2.977a3.72 3.72 0 0 1-.116.916zm53.123 48.65c0 5.191-1.83 9.602-5.495 13.225s-8.054 5.438-13.166 5.438h-4.921c-5.192 0-9.6-1.811-13.226-5.438s-5.438-8.033-5.438-13.225v-35.377c0-5.114 1.812-9.463 5.438-13.055 3.626-3.585 8.034-5.38 13.226-5.38h4.921c5.191 0 9.599 1.795 13.224 5.38 3.625 3.592 5.438 7.94 5.438 13.055v35.377zm-13.739-.215v-34.49c0-1.675-.57-3.101-1.715-4.282s-2.519-1.771-4.122-1.771h-2.633a6.04 6.04 0 0 0-4.352 1.771c-1.221 1.181-1.831 2.607-1.831 4.282v34.49c0 1.6.629 3.029 1.888 4.284s2.691 1.884 4.295 1.884h2.633c1.603 0 2.977-.607 4.122-1.825a6.12 6.12 0 0 0 1.715-4.343zm70.902 14.415c0 2.137-1.022 3.204-3.065 3.204H145.3c-2.122 0-3.181-1.067-3.181-3.204v-49.232c0-3.97-1.615-5.953-4.845-5.953-2.233 0-4.464.802-6.693 2.405s-3.345 3.206-3.345 4.809v47.972c0 2.137-1.071 3.204-3.206 3.204h-8.129c-2.138 0-3.205-1.067-3.205-3.204v-63.544c0-2.134 1.067-3.205 3.205-3.205h8.129c2.136 0 3.206 1.071 3.206 3.205v1.487c0 .843.229 1.261.686 1.261.533 0 1.22-.459 2.06-1.374 3.741-3.892 8.319-5.839 13.741-5.839 3.737 0 6.791 1.242 9.159 3.721s3.547 5.669 3.547 9.56v54.727zm102.24-.11c.229.841.057 1.604-.521 2.289a2.8 2.8 0 0 1-2.247 1.03h-10.383c-1.537 0-2.537-1.097-2.999-3.294l-2.759-13.531c-.383-1.986-1.374-2.979-2.974-2.979h-13.964c-1.906 0-3.013.993-3.319 2.976l-2.402 13.51c-.458 2.215-1.565 3.319-3.318 3.319h-10.186c-.839 0-1.527-.343-2.059-1.03a2.77 2.77 0 0 1-.573-2.289l16.831-85.066c.456-2.137 1.523-3.208 3.204-3.208h16.373c1.677 0 2.748 1.071 3.206 3.208zm-23.127-34.918l-5.382-29.998c-.307-1.603-.725-2.405-1.261-2.405s-.914.803-1.143 2.405l-4.924 29.998c-.382 2.212.458 3.318 2.518 3.318h7.443c.84 0 1.545-.324 2.119-.972s.781-1.431.63-2.346zm87.707 35.138c.154.308.231.573.231.802 0 1.528-.837 2.289-2.511 2.289h-9.934c-1.295 0-2.322-1.032-3.082-3.107l-11.709-33.306c-.536-1.522-1.3-2.286-2.292-2.286h-5.047c-1.908 0-2.864 1.032-2.864 3.095v32.513c0 .765-.307 1.473-.916 2.119s-1.336.972-2.175.972h-9.389c-1.909 0-2.862-1.03-2.862-3.091v-85.525c0-1.983.953-2.978 2.862-2.978h23.47c6.869 0 12.669 2.178 17.402 6.529 4.809 4.578 7.214 10.38 7.214 17.399v4.468c0 9.084-3.857 15.992-11.563 20.723-.384.23-.421.765-.116 1.601zm-16.485-58.047v-7.328c0-2.519-.897-4.652-2.69-6.41s-3.99-2.634-6.584-2.634h-8.815c-1.757 0-2.634 1.031-2.634 3.091v19.236c0 1.985.954 2.977 2.862 2.977h8.586c2.594 0 4.789-.858 6.584-2.578s2.691-3.834 2.691-6.354zM387.23 374.8c0 7.022-2.481 13.035-7.442 18.033s-10.99 7.497-18.088 7.497h-22.785c-.84 0-1.584-.323-2.231-.972a3.19 3.19 0 0 1-.973-2.348v-85.066c0-2.137 1.067-3.208 3.205-3.208h22.785c7.098 0 13.127 2.505 18.088 7.502s7.442 11.011 7.442 18.032v40.53zm-15.797-1.257v-37.672c0-3.509-1.296-6.525-3.882-9.045s-5.658-3.777-9.207-3.777h-3.474c-2.241 0-3.361 1.07-3.361 3.207v56.673c0 .916.347 1.7 1.042 2.348s1.468.973 2.319.973h3.474c3.548 0 6.62-1.241 9.207-3.719s3.882-5.481 3.882-8.988zM477.8 397.13c0 2.137-1.071 3.204-3.207 3.204h-8.127c-1.3 0-2.33-.915-3.093-2.746s-1.679-2.749-2.749-2.749c-.762 0-2.272 1.129-4.522 3.38s-4.445 3.376-6.582 3.376h-4.236c-2.748 0-5.267-1.335-7.558-4.007s-3.435-5.497-3.435-8.474v-55.528c0-2.134 1.07-3.205 3.206-3.205h8.13c2.136 0 3.207 1.071 3.207 3.205v46.713c0 4.504 2.114 6.756 6.347 6.756 1.846 0 3.692-.726 5.537-2.176s2.772-3.054 2.772-4.807v-46.486c0-2.134 1.059-3.205 3.18-3.205h7.951c2.118 0 3.18 1.071 3.18 3.205v63.544zm57.46 0c0 2.137-1.023 3.204-3.066 3.204h-8.065c-2.12 0-3.178-1.067-3.178-3.204v-49.232c0-3.97-1.615-5.953-4.846-5.953-2.232 0-4.464.802-6.695 2.405s-3.346 3.206-3.346 4.809v47.972c0 2.137-1.071 3.204-3.203 3.204h-8.13c-2.14 0-3.207-1.067-3.207-3.204v-63.544c0-2.134 1.067-3.205 3.207-3.205h8.13c2.132 0 3.203 1.071 3.203 3.205v1.487c0 .843.229 1.261.688 1.261.532 0 1.221-.459 2.061-1.374 3.739-3.892 8.319-5.839 13.738-5.839 3.74 0 6.793 1.242 9.16 3.721s3.549 5.669 3.549 9.56zm57.93 0c0 2.137-1.069 3.204-3.207 3.204h-8.128c-2.138 0-3.207-1.067-3.207-3.204 0-.762-.271-1.145-.803-1.145s-1.144.383-1.831 1.145c-1.679 1.602-3.051 2.709-4.119 3.319-1.604.762-3.706 1.146-6.296 1.146h-3.436c-3.666 0-6.795-1.374-9.389-4.122s-3.894-5.955-3.894-9.618v-45.452c0-3.663 1.298-6.793 3.894-9.389s5.723-3.893 9.389-3.893h3.436c3.357 0 5.798.459 7.325 1.375.305.228 1.335 1.337 3.09 3.32.687.761 1.261 1.144 1.718 1.144.608 0 .916-.609.916-1.831v-22.44c0-2.136 1.069-3.205 3.207-3.205h8.128c2.138 0 3.207 1.069 3.207 3.205zm-14.542-14.537v-34.465c0-.841-.6-1.927-1.789-3.264s-2.441-2.005-3.747-2.005h-4.154c-1.538 0-2.844.499-3.92 1.49s-1.618 2.252-1.618 3.778v34.465c0 1.524.539 2.82 1.618 3.889s2.382 1.605 3.92 1.605h4.154c1.306 0 2.557-.726 3.747-2.178s1.789-2.556 1.789-3.315zM689.13 397.24c0 2.06-1.028 3.091-3.089 3.091h-44.192c-1.91 0-2.863-1.03-2.863-3.091v-6.183c0-1.677.189-2.936.572-3.777l31.256-62.855c.152-.231.228-.419.228-.573 0-.84-.533-1.26-1.602-1.26h-24.958c-2.062 0-3.094-.954-3.094-2.861v-8.017c0-1.983 1.032-2.978 3.094-2.978h41.33c2.061 0 3.091.997 3.091 2.983v6.312c0 1.608-.21 2.834-.628 3.674l-31.038 62.162c-.61 1.283-.268 1.922 1.028 1.922h27.781c2.057 0 3.083.917 3.083 2.75v8.701zm64.06-22.44c0 7.022-2.481 13.035-7.441 18.033s-10.99 7.497-18.091 7.497h-22.783c-.84 0-1.583-.323-2.232-.972a3.19 3.19 0 0 1-.972-2.348v-85.066c0-2.137 1.067-3.208 3.204-3.208h22.783c7.101 0 13.129 2.505 18.091 7.502s7.441 11.011 7.441 18.032zm-15.799-1.257v-37.672c0-3.509-1.293-6.525-3.88-9.045s-5.658-3.777-9.207-3.777h-3.475c-2.239 0-3.359 1.07-3.359 3.207v56.673c0 .916.348 1.7 1.042 2.348s1.466.973 2.317.973h3.475c3.549 0 6.621-1.241 9.207-3.719s3.88-5.481 3.88-8.988zm73.369-53.583c0 .917-.344 1.702-1.032 2.35s-1.45.972-2.29.972H785.57c-.838 0-1.602.324-2.29.974s-1.028 1.394-1.028 2.232v15.571c0 2.061 1.105 3.092 3.318 3.092h16.719c.836 0 1.603.324 2.288.971s1.028 1.395 1.028 2.234v7.785c0 .919-.324 1.7-.972 2.346a3.19 3.19 0 0 1-2.345.973h-16.947c-2.062 0-3.09 1.069-3.09 3.208v34.347c0 2.215-1.07 3.319-3.207 3.319h-9.274c-.913 0-1.7-.323-2.347-.972s-.974-1.431-.974-2.348v-85.066c0-.84.344-1.584 1.03-2.232s1.449-.976 2.29-.976h37.668c2.214 0 3.322 1.071 3.322 3.208v8.012z" fill="#005c63"/>
  <path d="M232.535 251.318V210.8l-88.967-71.645 88.967-71.634V26.988c-.026-9.09-7.456-16.609-16.56-16.745H179.53c-3.447 0-6.75 1.026-9.557 2.969l-77.837 67.21V10.244H27.082c-9.254 0-16.803 7.528-16.829 16.783v224.269c.026 9.242 7.574 16.787 16.829 16.787h65.054v-70.181l77.837 67.209a16.73 16.73 0 0 0 9.557 2.972h36.483c9.087-.15 16.496-7.677 16.522-16.761zm92.158-11.67V93.943c-.025-9.24-7.572-16.771-16.825-16.771h-65.061V251.08c0 9.362 7.57 16.997 16.889 16.997h25.987c2.542-.357 4.83-1.201 6.465-2.355 1.736-1.226 19.739-15.72 32.544-26.076zM259.605 10.241c-9.449 0-16.775 7.54-16.798 14.026v42.659h81.886V10.244zm297.594 241.008v-40.516l-88.932-71.636 88.932-71.646V26.919c-.027-9.089-7.388-16.544-16.488-16.681H504.23c-3.45 0-6.752.963-9.557 2.905l-77.871 67.209v-53.41c-.021-9.237-7.572-16.704-16.826-16.704h-65.039v257.839h65.039c9.253 0 16.805-7.61 16.826-16.864v-53.331l77.871 67.156c2.794 1.935 6.097 3.037 9.557 3.037h36.481c9.088-.152 16.462-7.739 16.488-16.824zm150.657-127.652h-58.555V66.923h58.555zm81.876-96.611c-.023-9.237-7.572-16.747-16.827-16.747H637.914l-70.469 56.684v184.345c.025 9.237 7.569 16.804 16.821 16.804H649.3V185.55h58.555v82.523h65.049c9.254 0 16.803-7.567 16.827-16.824V26.981z" fill="#ffea19"/>
 </g>
</svg>
