<?xml version="1.0" encoding="UTF-8"?>
<svg width="800" height="222.38" xmlns="http://www.w3.org/2000/svg">
	<path d="M529.01 183.44v38.229h-5.515l-8.52-18.733c-1.147-2.839-2.73-6.825-3.658-9.283l-.164.11c.382 3.823.655 9.556.655 13.162v14.744h-5.461V183.44h5.515l8.794 19.496c1.147 2.567 2.566 6.117 3.494 8.41l.164-.108c-.437-3.768-.764-9.504-.764-12.889V183.44zm-51.759 26.106v-13.981c0-4.807-2.076-7.428-6.007-7.428-3.987 0-6.008 2.621-6.008 7.428v13.981c0 4.804 2.02 7.426 6.008 7.426 3.931 0 6.007-2.622 6.007-7.426zm-17.695 0v-13.981c0-7.974 4.37-12.834 11.687-12.834 7.318 0 11.687 4.86 11.687 12.834v13.981c0 7.971-4.37 12.834-11.687 12.834-7.318 0-11.687-4.862-11.687-12.834zm-23.393-26.106v38.229h-5.515V183.44zm-50.559 27.743h5.626c.054 3.933 2.184 5.844 5.57 5.844 3.658 0 5.461-2.186 5.461-5.243 0-7.59-16-8.029-16-19.386 0-5.517 4.04-9.667 10.484-9.667 6.554 0 10.486 4.204 10.65 10.703h-5.626c-.109-3.66-2.02-5.407-4.97-5.407-3.111 0-4.914 1.747-4.914 4.479 0 7.48 16.055 7.48 16.055 19.334 0 5.677-3.986 10.54-11.14 10.54-6.771 0-11.14-4.207-11.196-11.197zM363.09 183.44v38.229h-5.515V183.44zm-52.426 0h5.79l4.587 21.081c.764 3.385 1.365 7.1 1.91 10.157h.22c.546-3.057 1.2-6.772 1.91-10.157l4.642-21.081h5.735l-9.393 38.229h-6.007zm-20.926 33.041v5.187h-19.277V183.44h18.731v5.188h-13.215v11.087h12.178v5.08h-12.178v11.686zm-41.339-.056v5.243h-18.186V183.44h5.516v32.986zm-41.078.056v5.187h-19.277V183.44h18.731v5.188h-13.216v11.087h12.178v5.08h-12.178v11.686zm-41.579-27.798h-7.973v32.986h-5.626v-32.986h-7.917v-5.243h21.517zm510.38-153.31a2698.278 2698.278 0 0 1-25.411 2.582v141.28a1679.609 1679.609 0 0 0-27.109-4.116V40.489c-10.177.906-15.269 1.339-25.451 2.164v-30.81c26.074-3.62 52-7.56 77.971-11.842V35.38zm-63.326 106.63v31.575a1813.732 1813.732 0 0 0-65.083-7.986V17.832a1666.988 1666.988 0 0 0 26.421-2.981v124.08c15.474 1.135 23.206 1.75 38.663 3.073zm-75.663-5.577V164.5a1803.764 1803.764 0 0 0-69.102-5.749V24.68a1802.885 1802.885 0 0 0 67.24-5.562V47.12c-16.306 1-24.462 1.448-40.781 2.242v28.566c14.828-.235 22.241-.366 37.059-.656V104.1a9741.15 9741.15 0 0 0-37.059-.563v30.536c17.063.829 25.593 1.3 42.643 2.355zm-75.349-111.35c-9.625 43.927-19.401 87.818-29.453 131.65-11.186-.533-16.781-.759-27.97-1.135-3.73-17.207-5.595-25.762-9.325-42.803-3.17-13.836-5.409-31.227-6.153-41.55-.3.001-.449.002-.747.005-.746 10.333-2.984 27.724-6.154 41.436-3.73 16.889-5.595 25.304-9.325 42.106a1642.778 1642.778 0 0 0-27.98-.292c-9.83-41.893-19.668-83.784-29.47-125.68 10.969.126 16.452.152 27.42.126 4.103 23.74 6.154 35.603 10.258 59.368 1.493 9.154 4.103 24.601 5.41 35.027l.746.003c1.305-10.413 3.915-25.863 5.407-35.037a49551.69 49551.69 0 0 0 10.26-57.89c11.041-.2 16.56-.336 27.601-.684 4.103 23.282 6.153 34.974 10.256 58.507 1.492 9.349 4.103 25.163 5.409 35.859l.746.015c1.305-10.647 3.915-26.476 5.407-35.9 4.102-24.462 6.153-36.773 10.255-61.605a1652.06 1652.06 0 0 0 27.402-1.522zm-174.47 88.925V69.425c0-11.96-5.036-18.373-14.919-18.582-9.883-.21-14.917 6.088-14.917 18.235v45.271c0 12.146 5.034 18.444 14.917 18.234 9.883-.209 14.92-6.621 14.919-18.582zm-57.242.808v-46.19c-1.12-25 17.604-43.918 42.323-42.956 23.97.933 43.214 19.023 42.335 43.943v44.217c.879 24.918-18.367 43.004-42.335 43.938-24.718.963-43.443-17.952-42.323-42.952zm-12.068-89.507v132.82c-10.437.634-15.654.985-26.088 1.756-8.795-20.461-13.191-30.9-21.983-52.383A3372.807 3372.807 0 0 1 158.2 73.067l-.56.595c2.049 17.897 3.353 44.31 3.353 60.062v28.68a1662.277 1662.277 0 0 0-26.065 2.505V18.519a1666.573 1666.573 0 0 0 26.065 2.507 2830.878 2830.878 0 0 0 24.773 61.672c3.168 8.66 6.15 17.618 9.315 26.1l.56-.591c-2.237-17.03-3.726-40.444-3.726-53.103V23.55a1663.65 1663.65 0 0 0 26.089 1.754zm-96.506-8.213v149.25a1673.507 1673.507 0 0 0-26.415 3.073V14.022c10.562 1.301 15.846 1.915 26.415 3.074zm-88.294 95.58a1477.013 1477.013 0 0 0-7.238 16.013v50.458a1689.106 1689.106 0 0 0-25.97 4.291V-.009a1694.432 1694.432 0 0 0 25.97 4.292V71.23c2.672-7.695 4.01-11.495 6.682-19.006 7.276-18.24 10.914-27.054 18.194-44.156 12.035 1.755 18.055 2.585 30.101 4.155a2658.922 2658.922 0 0 0-33.072 68.92c12.38 30.01 25.04 59.858 38.648 89.337-11.898 1.517-17.845 2.32-29.733 4.017a2145.687 2145.687 0 0 1-23.583-61.828zm743.2-43.064c9.171 0 14.423-5.146 14.423-15.323V23.976c0-10.066-5.143-15.21-14.423-15.21h-9.509v60.84zM757.724.042h18.566c14.989 0 23.709 8.724 23.709 23.71v30.866c0 14.986-8.834 23.708-23.594 23.708h-18.68zm-17.434 0v78.285h-9.286V42.874h-24.823v35.453h-9.285V.042h9.285v34.222h24.823V.042h9.286" fill="#0f2653"/>
</svg>
