<svg xmlns="http://www.w3.org/2000/svg" width="198" height="65.123"><path d="M9.725 33l-2.12 4.69v14.773l-7.6 1.257V0l7.6 1.257v19.6L9.562 15.3 14.9 2.37l8.815 1.217c-3.332 6.69-6.546 13.4-9.685 20.183 3.625 8.788 7.333 17.53 11.318 26.162l-8.707 1.176Q13.04 42.11 9.725 33zM35.58 5.007v43.706l-7.735.9V4.107l7.735.9zm28.26 2.405v38.9l-7.64.514-6.438-15.34L46.33 21.4l-.164.175c.6 5.24.982 12.975.982 17.59v8.4l-7.633.734V5.424l7.633.734q3.52 9.07 7.255 18.06l2.727 7.643.164-.173A143.2 143.2 0 0 1 56.2 16.138v-9.24l7.642.514zm3.534 26.21V20.1A11.7 11.7 0 0 1 79.771 7.517c7.02.274 12.654 5.572 12.4 12.87v12.95c.258 7.3-5.38 12.593-12.4 12.867a11.7 11.7 0 0 1-12.395-12.579zm16.763-.236V20.333c0-3.5-1.474-5.38-4.37-5.44s-4.37 1.782-4.37 5.34V33.49c0 3.557 1.474 5.4 4.368 5.34s4.372-1.94 4.37-5.442zm51.093-26.04Q131 26.642 126.607 45.9l-8.19-.333-2.73-12.534a91.113 91.113 0 0 1-1.8-12.168h-.22A89.639 89.639 0 0 1 111.862 33l-2.73 12.33-8.193-.085q-4.32-18.4-8.63-36.806l8.03.037 3 17.386 1.585 10.257h.218c.382-3.05 1.147-7.574 1.584-10.26l3-16.954 8.083-.2 3 17.134 1.584 10.5h.22c.382-3.117 1.146-7.753 1.583-10.512l3-18.04 8.04-.44zM157.3 39.953v8.22c-6.73-.7-13.487-1.252-20.237-1.683V7.23q9.852-.63 19.69-1.63v8.2l-11.942.657v8.365l10.852-.192v7.856l-10.852-.164v8.942l12.488.69zm22.158 1.633v9.247q-9.5-1.34-19.06-2.338V5.225l7.736-.873v36.334l11.32.9zM198 10.36l-7.442.756v41.372l-7.938-1.2V11.856l-7.455.634V3.468L198 0zM48.536 55.255H46.2v9.66h-1.646v-9.66h-2.32V53.72h6.3zM60.712 63.4v1.52h-5.645v-11.2h5.486v1.52h-3.87v3.247h3.566v1.487h-3.566V63.4zm12.03-.016v1.535h-5.325v-11.2h1.615v9.66zm12.106.016v1.52H79.2v-11.2h5.485v1.52h-3.87v3.247h3.566v1.487h-3.563V63.4zm6.128-9.676h1.7l1.343 6.173c.224.992.4 2.08.56 2.975h.064l.56-2.975 1.36-6.173h1.68l-2.75 11.2h-1.763zm15.353 0v11.2h-1.615V53.72zm6.593 8.124h1.648a1.52 1.52 0 0 0 1.631 1.712 1.439 1.439 0 0 0 1.6-1.536c0-2.223-4.686-2.35-4.686-5.677a2.815 2.815 0 0 1 3.071-2.83 2.942 2.942 0 0 1 3.118 3.134h-1.647c-.032-1.072-.592-1.584-1.455-1.584a1.273 1.273 0 0 0-1.44 1.312c0 2.19 4.7 2.19 4.7 5.662a3.273 3.273 0 0 1-6.541-.193zm14.806-8.124v11.2h-1.615V53.72zm6.85 7.645V57.27c0-2.335 1.28-3.758 3.422-3.758s3.423 1.423 3.423 3.758v4.094c0 2.334-1.28 3.758-3.423 3.758s-3.422-1.423-3.422-3.758zm5.18 0V57.27c0-1.408-.607-2.175-1.76-2.175-1.167 0-1.76.767-1.76 2.175v4.094c0 1.407.592 2.175 1.76 2.175 1.152 0 1.76-.768 1.76-2.175zm15.158-7.645v11.2H153.3l-2.5-5.486-1.072-2.718-.048.032c.112 1.12.192 2.8.192 3.854v4.318h-1.6V53.72h1.628l2.575 5.71c.336.752.752 1.792 1.024 2.463l.047-.03c-.128-1.1-.223-2.784-.223-3.775V53.72z" fill="#0d0b03"/></svg>