<?xml version="1.0" encoding="UTF-8"?>
<svg width="800" height="263.12" xmlns="http://www.w3.org/2000/svg">
	<path d="M625.93 217.05v45.232h-6.526l-10.08-22.164c-1.36-3.36-3.234-8.076-4.331-10.985l-.194.13c.451 4.524.777 11.307.777 15.573v17.445h-6.463V217.05h6.526l10.406 23.068c1.354 3.037 3.034 7.237 4.137 9.95l.188-.127c-.514-4.458-.903-11.244-.903-15.25v-17.64zm-61.243 30.889v-16.542c0-5.687-2.456-8.789-7.108-8.789-4.718 0-7.109 3.102-7.109 8.789v16.542c0 5.685 2.391 8.786 7.109 8.786 4.652 0 7.108-3.102 7.108-8.786zm-20.937 0v-16.542c0-9.434 5.17-15.185 13.829-15.185s13.828 5.75 13.828 15.185v16.542c0 9.432-5.17 15.185-13.828 15.185-8.66 0-13.829-5.753-13.829-15.185zm-27.679-30.889v45.232h-6.526V217.05zm-59.822 32.826h6.657c.063 4.654 2.584 6.914 6.59 6.914 4.328 0 6.462-2.585 6.462-6.203 0-8.982-18.933-9.5-18.933-22.937 0-6.53 4.78-11.438 12.406-11.438 7.753 0 12.406 4.974 12.6 12.664h-6.656c-.129-4.33-2.39-6.398-5.88-6.398-3.682 0-5.815 2.067-5.815 5.299 0 8.852 18.997 8.852 18.997 22.875 0 6.718-4.717 12.47-13.182 12.47-8.012 0-13.181-4.976-13.246-13.247zM429.61 217.05v45.232h-6.526V217.05zm-62.031 0h6.85l5.427 24.943c.905 4.005 1.616 8.401 2.262 12.018h.26c.644-3.617 1.42-8.013 2.26-12.018l5.491-24.943h6.786L385.8 262.282h-7.108zm-24.761 39.094v6.138h-22.809V217.05h22.163v6.139h-15.637v13.117h14.409v6.01h-14.409v13.828zm-48.913-.065v6.203h-21.517V217.05h6.526v39.03zm-48.604.065v6.138h-22.809V217.05h22.163v6.139h-15.637v13.117h14.409v6.01h-14.409v13.828zm-49.197-32.891h-9.434v39.029h-6.656v-39.029h-9.368v-6.203h25.458zm603.89-181.39a3207.87 3207.87 0 0 1-30.069 3.055v167.16a1986.033 1986.033 0 0 0-32.074-4.87v-159.3a3118.192 3118.192 0 0 1-30.12 2.562V14.014A3657.267 3657.267 0 0 0 799.994.004v41.859zm-74.926 126.17v37.361a2146.392 2146.392 0 0 0-77.011-9.45V21.115a1981.406 1981.406 0 0 0 31.263-3.527c-.006 48.936-.006 97.871 0 146.81 18.303 1.344 27.457 2.072 45.749 3.637zm-89.531-6.6v33.218a2133.079 2133.079 0 0 0-81.76-6.803V29.218a2133.477 2133.477 0 0 0 79.56-6.58V55.77c-19.297 1.181-28.949 1.712-48.251 2.65v33.8c17.543-.278 26.314-.433 43.846-.776v31.743c-17.531-.295-26.303-.427-43.846-.666v36.13c20.189.981 30.28 1.539 50.451 2.786zm-89.151-131.75c-11.388 51.976-22.955 103.91-34.85 155.77-13.235-.63-19.855-.898-33.094-1.342a21266.27 21266.27 0 0 0-11.033-50.645c-3.752-16.373-6.4-36.949-7.282-49.164l-.883.007c-.882 12.227-3.53 32.803-7.282 49.027-4.413 19.983-6.62 29.94-11.033 49.82-13.242-.231-19.863-.3-33.105-.345-11.633-49.568-23.273-99.134-34.869-148.71 12.977.15 19.465.18 32.442.15 4.855 28.09 7.282 42.126 12.138 70.245 1.766 10.831 4.855 29.108 6.4 41.444l.884.004c1.544-12.32 4.633-30.602 6.398-41.456 4.856-27.326 7.283-41.014 12.14-68.497 13.064-.235 19.594-.397 32.657-.808a32170.35 32170.35 0 0 1 12.135 69.227c1.766 11.06 4.855 29.773 6.4 42.428l.883.018c1.544-12.597 4.632-31.327 6.397-42.477 4.854-28.944 7.28-43.51 12.134-72.892 12.97-.632 19.455-.991 32.423-1.802zm-206.43 105.22V82.162c0-14.151-5.959-21.738-17.653-21.986-11.695-.249-17.65 7.203-17.65 21.575v53.565c0 14.37 5.955 21.823 17.65 21.574 11.694-.248 17.653-7.835 17.653-21.986zm-67.73.955V81.207c-1.325-29.581 20.83-51.966 50.078-50.827 28.361 1.104 51.131 22.509 50.091 51.994v52.317c1.04 29.483-21.732 50.883-50.091 51.989-29.247 1.14-51.403-21.241-50.078-50.822zm-14.279-105.91v157.15c-12.349.75-18.522 1.165-30.867 2.076-10.407-24.209-15.608-36.56-26.011-61.979a3973.366 3973.366 0 0 1-13.882-40.735l-.662.705c2.423 21.175 3.967 52.427 3.967 71.066v33.934a1960.315 1960.315 0 0 0-30.84 2.965V21.91a1973.572 1973.572 0 0 0 30.84 2.966c9.48 24.431 19.26 48.77 29.311 72.971 3.747 10.246 7.275 20.846 11.021 30.882l.662-.699c-2.645-20.151-4.407-47.854-4.407-62.832V27.864c12.345.911 18.518 1.327 30.867 2.075zm-114.19-9.717v176.59a1965.583 1965.583 0 0 0-31.254 3.636V16.597a1966.747 1966.747 0 0 0 31.254 3.637zM39.287 133.32a1754.784 1754.784 0 0 0-8.564 18.945v59.702a2016.102 2016.102 0 0 0-30.728 5.078V-.004a2011.588 2011.588 0 0 0 30.728 5.078v79.212a2601.271 2601.271 0 0 1 7.906-22.488c8.609-21.583 12.914-32.01 21.528-52.246 14.24 2.076 21.363 3.058 35.616 4.917-13.462 27.033-26.449 54.137-39.131 81.546 14.647 35.509 29.627 70.827 45.729 105.71-14.078 1.794-21.114 2.744-35.181 4.752a2537.692 2537.692 0 0 1-27.904-73.155" fill="#0f2653"/>
</svg>
