<svg xmlns="http://www.w3.org/2000/svg" width="1123.438" height="200"><g transform="matrix(.9995 0 0 .9995 -178.01099 -46.476762)"><path d="M218.9 190.8v55.7h-40.8V56.3h40.8v95.1h21.7c5.4 0 9.8-.3 13-.8 3.3-.5 5.8-1.8 7.7-3.7s3.3-4.6 4.1-8.2c.8-3.5 1.6-8.4 2.3-14.5l5.4-67.9H314l-5.4 67.9c-.7 8.9-2.4 17.5-4.9 25.8s-6.9 14.7-13 19c7.1 4.4 12.5 11.2 16.2 20.7 3.7 9.4 6.1 19.3 7.2 29.6l2.7 27.2H276l-2.7-27.2c-.7-6.3-1.5-11.4-2.3-15.2s-2.2-6.7-4.1-8.7-4.5-3.3-7.7-3.8c-3.3-.5-7.6-.8-13-.8zm213.4-74.7c0-6.7-1.7-11.6-5-14.5-3.4-3-10.7-4.5-22.1-4.5H378v43.5h27.2c11.4 0 18.8-1.6 22.1-4.9 3.4-3.3 5-8 5-14.1zM378 246.5h-40.8V56.3h76.1c18.8 0 33.5 4.4 44 13.3s15.8 22.1 15.8 39.7v16.3c0 8.2-2 15.6-6.1 22.3s-10.2 11.1-18.3 13c8.2 4 13.5 10.1 16 18.3s4.4 17.1 5.7 26.5l5.4 40.8h-42.1l-5.4-40.8-2.7-16c-.7-4-1.9-7-3.5-9.1s-3.9-3.4-6.9-3.9-7.2-.8-12.6-.8H378zM771.4 97.1c-10.9 0-18.1 1.7-21.7 5.2-3.6 3.4-5.4 9.9-5.4 19.3v59.8c0 9.4 1.8 15.9 5.4 19.3s10.9 5.2 21.7 5.2c10.9 0 18.1-1.7 21.7-5.2 3.6-3.4 5.4-9.9 5.4-19.3v-59.8c0-9.4-1.8-15.9-5.4-19.3-3.5-3.5-10.8-5.2-21.7-5.2m-8.1 149.4c-18.8 0-33.5-5.2-44-15.5s-15.8-27.4-15.8-51.1v-57.1c0-23.7 5.3-40.8 15.8-51.1s25.2-15.5 44-15.5h16.3c18.8 0 33.5 5.2 44 15.5s15.8 27.4 15.8 51.1V180c0 23.7-5.3 40.8-15.8 51.1s-25.2 15.5-44 15.5h-16.3zm196-85.6L900.9 56.3h-38.1v190.2h40.8V165l-1.4-23.1 58.5 104.6h38V56.3H958v81.5zm200 85.6v-40.7h-95.1v-27.2h81.5v-40.8h-81.5V97.1h95.1V56.3h-135.9v190.2zm123-190.2l-12.6 45.4-12.7-45.4h-68.4v19h23.3v62.2h19V75.3h11.7l17.3 62.2h19.5l22.7-81.2z"/><linearGradient id="A" gradientUnits="userSpaceOnUse" x1="535.514" y1="198.728" x2="737.495" y2="125.213"><stop offset=".328" stop-color="#520d1f"/><stop offset=".364" stop-color="#710d1f"/><stop offset=".412" stop-color="#950d1f"/><stop offset=".458" stop-color="#af0d1f"/><stop offset=".499" stop-color="#bf0d1f"/><stop offset=".531" stop-color="#c40d1f"/><stop offset=".636" stop-color="#ce0d1f"/><stop offset=".749" stop-color="#de0d1f"/></linearGradient><path d="M647.7 246.5L681.4 57 552.9 246.5z" fill="url(#A)"/><linearGradient id="B" gradientUnits="userSpaceOnUse" x1="641.928" y1="198.728" x2="439.948" y2="125.213"><stop offset=".328" stop-color="#520d1f"/><stop offset=".364" stop-color="#710d1f"/><stop offset=".412" stop-color="#950d1f"/><stop offset=".458" stop-color="#af0d1f"/><stop offset=".499" stop-color="#bf0d1f"/><stop offset=".531" stop-color="#c40d1f"/><stop offset=".636" stop-color="#ce0d1f"/><stop offset=".749" stop-color="#de0d1f"/></linearGradient><path d="M529.7 246.5L496.1 57l128.4 189.5z" fill="url(#B)"/><path d="M529.7 246.5l59-200 59 200z" fill="#ff1c26"/></g></svg>