<?xml version="1.0" encoding="UTF-8"?>
<!-- Generator: Adobe Illustrator 25.4.1, SVG Export Plug-In . SVG Version: 6.00 Build 0)  -->
<svg width="800" height="332.46" version="1.1" viewBox="0 0 800 332.46" xml:space="preserve" xmlns="http://www.w3.org/2000/svg">
<style type="text/css">
	.st0{clip-path:url(#SVGID_00000123413167979271813550000014329365437935407249_);}
	.st1{clip-path:url(#SVGID_00000123413167979271813550000014329365437935407249_);fill:#4A4A49;}
	.st2{clip-path:url(#SVGID_00000123413167979271813550000014329365437935407249_);fill:#D20A11;}
</style><g stroke-width="11.289">
<path d="m12.643 0c-8.4666 0-12.643 4.064-12.643 12.079v174.86c0 26.416 2.8222 48.993 8.5795 67.507 5.6444 18.514 14.675 33.641 26.98 45.155 12.305 11.515 28.222 19.981 47.639 25.061 19.417 5.1928 43.123 7.6764 71.119 7.6764h91.778c8.1279 0 12.079-4.064 12.079-12.079v-53.96c0-8.1279-4.064-12.079-12.079-12.079h-88.504c-14.337 0-26.19-1.2418-35.56-3.6124s-16.82-6.4346-22.352-12.079-9.4826-13.434-11.853-23.142c-2.3706-9.7084-3.6124-21.9-3.6124-36.689v-166.62c0.11289-8.015-3.9511-12.079-12.079-12.079h-59.492"/><path d="m798.12 12.643s-95.616 246.32-99.116 255.47c-1.2418 3.1609-5.7573 14.224-9.8213 22.578-2.5964 5.1928-9.7084 15.804-13.659 20.771-4.6284 5.6444-9.031 9.9341-13.547 12.756-8.8053 5.5315-19.078 8.2408-30.818 8.2408h-31.947c-14.337 0-26.19-2.7093-35.56-8.2408-5.5315-3.2738-10.611-8.6924-16.369-15.579-3.4995-4.1769-9.5955-15.353-11.063-18.175-0.56444-1.016-3.8382-8.3537-8.1279-19.755-18.965-51.364-66.152-184.46-66.491-185.47-0.22578-0.79022-1.1289-1.1289-1.9191-0.9031-5.9831 2.3706-10.95 5.6444-15.014 9.7084-5.5315 5.6444-9.4826 13.434-11.853 23.142-2.3706 9.7084-3.6124 21.9-3.6124 36.689v166.51c0 8.1279-4.064 12.079-12.079 12.079h-60.395c-8.1279 0-12.079-4.064-12.079-12.079v-166.62c0-14.675-1.2418-26.867-3.6124-36.689-2.3706-9.7084-6.3217-17.385-11.853-23.142-5.5315-5.6444-12.982-9.7084-22.352-12.079s-21.223-3.6124-35.56-3.6124h-88.504c-8.1279 0-12.079-4.064-12.079-12.079v-54.073c0-8.1279 4.064-12.079 12.079-12.079h329.63c0.22577 0 0.33866 0.11289 0.56443 0.11289 1.9191 0.11289 3.4995 0.33866 4.7413 0.67733 0.9031 0.22578 1.6933 0.45155 2.3706 0.9031 1.6933 1.1289 3.1609 2.9351 4.7413 5.5315l78.683 243.16c1.1289 2.5964 3.2738 3.8382 6.6604 3.8382h2.7093c2.5964 0 4.6284-1.2418 6.096-3.8382l87.714-243.27c2.2578-4.7413 6.4346-7.1119 12.643-7.1119h72.135c4.4026 0 7.1119 1.2418 8.015 3.6124 1.016 2.3706 0.56444 5.4186-1.3546 9.031" fill="#4a4a49"/><path d="m214.6 216.97c27.883 0 50.461-22.578 50.461-50.461 0-27.883-22.578-50.461-50.461-50.461-27.883 0-50.461 22.578-50.461 50.461 0.11289 27.883 22.69 50.461 50.461 50.461" fill="#d20a11"/>
</g></svg>
