<svg xmlns="http://www.w3.org/2000/svg" width="219.452" height="95.109"><path d="M104.159 21.1v-2.652c0-1.643-.955-2.564-2.576-2.564H91.92v4.599h4.087c1.447 0 2.034.818 2.034 2.033v11.592c0 .27.06.408.236.465.185.057.347-.013.499-.17 1.367-1.437 4.57-4.87 6.653-6.894 4.719-4.59 8.465-6.525 11.737-6.525v-5.607c-4.15 0-5.565.613-8.016 1.915-1.802.958-3.866 2.675-4.99 3.807zm-32.896-5.723c-10.089 0-14.791 8.709-14.791 14.24 0 4.032 1.055 6.375 2.158 8.177h6.837c-1.228-1.813-2.86-4.462-2.86-8.177 0-4.502 3.598-8.633 8.63-8.633 3.847 0 6.597 2.548 8.18 3.798 2.306 1.82 5.978 4.832 7.694 6.373.162.147.312.229.497.169.177-.054.237-.194.237-.46v-28.3C87.845.921 86.89 0 85.269 0h-9.664v4.6h3.946c1.445 0 2.032.817 2.032 2.03v13.057c-3.48-3.522-7.322-4.31-10.32-4.31zM31.37 20.413a14.853 14.853 0 0 1 11.226-5.036c3.503 0 6.405 1.725 7.983 4.53.82 1.463 1.283 3.138 1.283 5.5v5.927h-6.12v-5.579c0-1.233-.12-1.915-.348-2.523-.59-1.57-1.904-2.248-3.759-2.248-2.805 0-5.179 1.977-7.153 3.825-1.987 1.858-4.829 4.812-6.233 6.402-.144.162-.312.227-.497.17-.177-.058-.237-.194-.237-.465v-5.447c0-3.052-1.62-4.485-4.24-4.485-3.127 0-5.693 2.464-8.756 5.464-2.392 2.342-4.585 4.69-7.665 7.916-.149.157-.31.225-.497.167-.176-.055-.237-.192-.237-.463V22.516c0-1.215-.587-2.033-2.033-2.033H0v-4.6h9.665c1.62 0 2.576.922 2.576 2.565v2.651s5.412-5.722 11.376-5.722c5.064 0 7.082 3.06 7.754 5.036zm169.836 41.89h-4.023v10.935h3.793c3.855 0 7.878-1.19 7.878-5.667 0-4.418-3.57-5.269-7.648-5.269zm9.292 32.183l-3.912-10.822c-1.302-3.683-2.151-4.816-6.29-4.816h-3.058v15.638h-8.215V56.693h15.412c6.459 0 12.861 2.494 12.861 10.028 0 5.214-3.853 8.33-8.725 9.18 3.397.68 4.815 2.437 6.004 5.61l4.876 12.975zm-47.455.623c-9.236 0-15.865-4.76-15.865-14.505V56.693h8.385V80.32c0 4.873 2.21 8.67 7.536 8.67 5.33 0 7.713-3.74 7.713-8.612V56.693h8.386v23.572c0 9.744-6.968 14.844-16.155 14.844zm-34.283-31.73v31.107h-8.442V63.379h-11.842v-6.686h32.127v6.686zM86.102 94.486V56.693h8.386v31.106h16.262v6.687zm-26.105.623c-9.236 0-15.865-4.76-15.865-14.505V56.693h8.386V80.32c0 4.873 2.21 8.67 7.535 8.67 5.327 0 7.708-3.74 7.708-8.612V56.693h8.384v23.572c0 9.744-6.97 14.844-16.148 14.844zm-31.042-.623L14.507 76.467v18.019H6.12V56.693h8.386V73.01l13.655-16.318h9.916L22.156 74.37l17.282 20.115H28.955" fill="#231f20" stroke-width=".133"/></svg>