<svg xmlns="http://www.w3.org/2000/svg" width="254.981" height="95.115"><path d="M230.335 94.49V56.697h8.385v31.108h16.261v6.685zm-32.074 0V56.697h8.386v31.108h16.261v6.685zm-33.886 0V56.697h24.646v5.78H172.59v9.915h15.696v5.723H172.59V88.71h16.943v5.779zm-26.239.625c-9.235 0-15.864-4.76-15.864-14.506V56.697h8.385v23.629c0 4.872 2.21 8.669 7.536 8.669 5.327 0 7.707-3.74 7.707-8.612V56.697h8.385v23.571c0 9.745-6.969 14.847-16.149 14.847zm-34.282-31.731V94.49h-8.443V63.384H83.57v-6.687h32.127v6.687zM70.828 94.49L56.38 76.47V94.49h-8.386V56.697h8.386v16.319l13.655-16.32h9.915l-15.92 17.68L81.31 94.49zM21.643 62.023L15.24 79.305h12.636zM32.975 94.49l-3.343-9.461H13.54l-3.4 9.46H1.868l14.393-37.792h10.991l14.45 37.793h-8.727M104.159 21.1v-2.652c0-1.643-.955-2.564-2.576-2.564H91.92v4.599h4.087c1.447 0 2.034.818 2.034 2.033v11.592c0 .27.06.408.236.465.185.057.347-.013.499-.17 1.367-1.437 4.57-4.87 6.653-6.894 4.719-4.59 8.465-6.525 11.737-6.525v-5.607c-4.15 0-5.565.613-8.016 1.915-1.802.958-3.866 2.675-4.99 3.807zm-32.896-5.723c-10.089 0-14.791 8.709-14.791 14.24 0 4.032 1.055 6.375 2.158 8.177h6.837c-1.228-1.813-2.86-4.462-2.86-8.177 0-4.502 3.598-8.633 8.63-8.633 3.847 0 6.597 2.548 8.18 3.798 2.306 1.82 5.978 4.832 7.694 6.373.162.147.312.229.497.169.177-.054.237-.194.237-.46v-28.3C87.845.921 86.89 0 85.269 0h-9.664v4.6h3.946c1.445 0 2.032.817 2.032 2.03v13.057c-3.48-3.522-7.322-4.31-10.32-4.31zM31.37 20.413a14.853 14.853 0 0 1 11.226-5.036c3.503 0 6.405 1.725 7.983 4.53.82 1.463 1.283 3.138 1.283 5.5v5.927h-6.12v-5.579c0-1.233-.12-1.915-.348-2.523-.59-1.57-1.904-2.248-3.759-2.248-2.805 0-5.179 1.977-7.153 3.825-1.987 1.858-4.829 4.812-6.233 6.402-.144.162-.312.227-.497.17-.177-.058-.237-.194-.237-.465v-5.447c0-3.052-1.62-4.485-4.24-4.485-3.127 0-5.693 2.464-8.756 5.464-2.392 2.342-4.585 4.69-7.665 7.916-.149.157-.31.225-.497.167-.176-.055-.237-.192-.237-.463V22.516c0-1.215-.587-2.033-2.033-2.033H0v-4.6h9.665c1.62 0 2.576.922 2.576 2.565v2.651s5.412-5.722 11.376-5.722c5.064 0 7.082 3.06 7.754 5.036" fill="#37678a" stroke-width=".133"/></svg>