<svg xmlns="http://www.w3.org/2000/svg" height="557.74" width="599.984" viewBox="0 0 158.746 147.569"><g stroke-width=".265"><path d="M106.666 93.426c-.27-2.34-.606-5.7-.606-8.65 0-1.84.241-9.222.241-15.175 0-5.022-1.08-13.944-1.08-18.791 0-2.916.217-6.871-.108-8.26 2.323-1.514 4.36-2.471 10.76-6.358 2.077-1.257 6.046-3.376 6.046-5.927 0-1.132-.309-1.876-1.916-3.199-1.135-.904-2.336-1.161-3.698-1.161-3.268 0-4.752 3.268-7.48 4.94-4.183 2.553-6.398 3.82-7.247 4.294-.352-.161-1.77-1-4.051-1-2.387 0-5.167 1.066-5.167 4.172 0 1.416.44 2.956-1.45 3.956-1.06.674-6.26 3.643-11.8 6.977-4.65 2.82-6.82 2.593-8.8 3.781-1.81 1.092-2.29 2.455-2.29 3.643 0 1.053.68 2.376.91 2.672 1.25 1.606 2.37 2.472 4.34 2.472 3.35 0 6.11-2.916 11.28-6.589 3.22-2.294 6.17-4.669 7.9-4.669 1.54 0 2.62 1.161 2.62 5.953 0 16.023-.99 18.56-.99 29.679 0 2 .09 5.7.15 7.24h-8.49V67.169L69.38 80.966 53.02 67.169v26.257H0V0h51.62l17.76 18.695L87.14 0h51.879v39.941c-1.646 2.537-6.654 11.123-10.028 19.897-1.108 2.86-1.622 4.926-3.066 4.926-1.606 0-1.728-1.566-1.889-2.984-.323-3.077-1.011-8.813-1.336-10.92-.606-4.09-1.419-8.408-5.98-8.408-3.389 0-6.924 1.849-6.924 6.898 0 2.86 1.444 7.842 3.926 14.388.974 2.579 6.17 16.198 6.927 18.168 1.363 3.62 3.278 4.6 6.234 4.6 3.807 0 5.117-1.39 6.683-6.719 1.323-4.535 3.577-11.946 5.453-16.576v30.205h-32.358zm44.505-51.85v51.85h-8.532v-37.93c1.823-3.956 6.223-10.866 8.532-13.917m-8.532-6.911V.002l8.532 5.129v18.98c-2.106 2.186-6.479 7.52-8.532 10.554M74.08 8.506l-4.7 4.94L56.65.069 72.8 7.156l1.28 1.349zm.57 72.75h5.88l1.6-1.33v-4.968zm-18.01 12.17h7.02v-12.56l-7.02-5.908zM152.172 90.076v.51h1.066v2.84h.579v-2.84h1.067v-.51zm3.093 0v3.35h.566v-2.58l.931 2.58h.487l.931-2.58h.013v2.58h.553v-3.35h-.822l-.892 2.62h-.013l-.932-2.62z"/></g><path d="M.008 97.035v50.534h151.148V97.035z" stroke-width=".265"/><path style="line-height:1.25;-inkscape-font-specification:'DejaVu Sans Bold Italic'" d="M67.366 111.228c-.988 0-1.98.221-2.99.667-1.003.44-1.829 1.01-2.477 1.722-1.17 1.258-1.757 2.87-1.757 4.842 0 .458.07.926.22 1.408.141.48.344.926.593 1.325.297.476.743.944 1.354 1.395.606.446 1.444.944 2.507 1.492.88.456 1.504.867 1.86 1.224.35.355.53.743.53 1.164 0 .54-.186.985-.565 1.33-.374.351-.885.523-1.54.523-.938 0-1.81-.225-2.6-.677-.803-.451-1.575-1.157-2.33-2.12l-2.923 4.366c.422.48.802.874 1.147 1.176.345.304.79.612 1.336.928.44.273.863.499 1.271.677.41.177.831.32 1.26.421.427.107.885.179 1.384.22.486.041 1.034.066 1.646.066 1.129 0 2.24-.214 3.331-.65 1.082-.426 1.973-1.003 2.67-1.709.664-.671 1.14-1.414 1.426-2.221.283-.809.427-1.79.427-2.942 0-1.01-.244-1.937-.725-2.797a5.253 5.253 0 0 0-1.948-2.014 26.87 26.87 0 0 0-.957-.505 64.791 64.791 0 0 1-1.652-.88c-1.235-.612-1.854-1.284-1.854-2.015 0-.48.167-.872.487-1.164.328-.297.762-.438 1.308-.438.73 0 1.373.128 1.931.403.552.273 1.2.772 1.93 1.51l2.543-4.1c-1.004-.915-2.049-1.58-3.137-1.997-1.094-.421-2.33-.63-3.706-.63zm26.958.096c-3.266 0-5.947 1.057-8.037 3.174a11.498 11.498 0 0 0-2.59 3.974c-.602 1.515-.897 3.124-.897 4.817 0 1.552.232 2.948.706 4.184.47 1.23 1.141 2.287 2.008 3.153.868.868 1.925 1.54 3.173 2.01 1.248.474 2.644.706 4.194.706 1.153 0 2.157-.076 3.017-.233.856-.16 1.527-.385 2.01-.677l.848-5.275c-.735.416-1.443.73-2.137.928a8.162 8.162 0 0 1-2.23.297c-1.866 0-3.29-.464-4.288-1.385-.993-.92-1.492-2.227-1.492-3.92 0-.986.144-1.89.43-2.705.278-.819.676-1.52 1.186-2.101a5.274 5.274 0 0 1 1.843-1.368c.712-.326 1.49-.486 2.352-.486 1.152 0 2.215.195 3.19.6a7.228 7.228 0 0 1 2.525 1.687l.879-5.715c-1.757-1.107-3.987-1.665-6.69-1.665zm22.553.162c-1.196 0-2.405.117-3.628.35-1.223.224-2.47.57-3.74 1.036l-.895 4.44c1.372-.728 2.604-1.265 3.697-1.61 1.092-.355 2.082-.532 2.969-.532.943 0 1.676.21 2.199.63.523.42.784 1.013.784 1.779 0 .718-.257 1.46-.77 2.227-.504.765-1.242 1.521-2.213 2.268l-8.893 6.71-.785 3.99h15.182l.77-3.963h-9.09l5.225-3.922c2.54-1.904 4.183-3.417 4.93-4.537a6.571 6.571 0 0 0 1.12-3.726c0-1.587-.611-2.839-1.834-3.754-1.223-.924-2.9-1.386-5.028-1.386zm-99.475.374l-6.689 20.917h5.745l2.17-7.004c.231-.73.42-1.348.563-1.853.148-.499.286-.975.409-1.427.131-.451.244-.925.345-1.43.107-.501.232-1.107.38-1.82h.184c.09.731.16 1.35.226 1.848.06.505.125.991.203 1.461.07.477.155.964.249 1.48.094.512.226 1.134.392 1.865l1.443 6.88h2.894l3.737-7.443c.357-.708.648-1.314.88-1.806.23-.495.445-.957.646-1.397.197-.44.393-.902.594-1.397.197-.493.435-1.086.708-1.776l.154.031c-.06.778-.113 1.496-.154 2.15a28.553 28.553 0 0 0-.066 1.336v3.487l.126 6.815h5.685l-.94-20.917h-6.189l-3.02 6.063a53.714 53.714 0 0 0-1.235 2.562c-.16.345-.308.7-.458 1.082-.141.38-.32.843-.534 1.412l-.154-.029c-.066-.589-.119-1.087-.172-1.496a48.791 48.791 0 0 0-.173-1.176 61.57 61.57 0 0 0-.219-1.195l-.316-1.568-1.164-5.655zm24.158 0l-1.883 11.464c-.09.482-.15.969-.19 1.461-.042.493-.066.97-.066 1.427 0 2.096.546 3.695 1.634 4.805.737.737 1.675 1.302 2.828 1.7 1.152.398 2.447.593 3.896.593 1.901 0 3.44-.23 4.617-.687 1.17-.458 2.168-1.226 2.983-2.293 1.07-1.404 1.788-3.227 2.167-5.467l2.074-13.003h-5.656l-1.882 11.62c-.15.86-.328 1.585-.536 2.186-.207.594-.474 1.074-.802 1.444a2.88 2.88 0 0 1-1.158.802c-.458.166-.98.248-1.587.248-1.847 0-2.767-.866-2.767-2.606 0-.232.006-.47.016-.721.013-.255.037-.493.079-.725l1.947-12.248zm35.577 0l-3.333 20.917h5.657l3.363-20.917zm56.787.005l-10.799 12.479-.91 4.622h9.411l-.756 3.81h5.112l.743-3.81h2.983l.742-3.908h-2.983l2.59-13.193zm.14 4.593l-1.695 8.6h-5.743z" font-style="italic" font-weight="700" font-size="36.968" font-family="DejaVu Sans" letter-spacing="-3.969" word-spacing="0" fill="#fff" stroke-width=".205"/></svg>