<svg xmlns="http://www.w3.org/2000/svg" width="600" height="167.813" viewBox="0 0 158.75 44.401"><path d="M32.729 5.562v16.834h-4.063l-7.64-9.765v9.765h-4.194V5.562h4.022l7.598 9.776V5.562zm1.284 2.621c1.966-2.301 3.978-2.98 6.155-2.98 3.389 0 5.789 2.041 5.789 5.506 0 1.854-.652 3.102-2.117 4.577l-3.221 3.285h5.117V22.4H34.881v-3.137l5.963-5.904c.541-.544 1.012-1.367 1.012-2.356 0-1.18-.885-1.994-2.093-1.994-1.404 0-2.479.798-3.446 1.813zM57.07 5.562l-5.103 10.32h2.725v-1.774l1.297-2.648h2.57v4.423h2.101v3.811h-2.101v2.703h-3.867v-2.703h-7.374v-2.91l5.449-11.222zM60.325.517h11.821c9.297 0 14.792 5.598 14.792 13.853 0 9.309-6.732 13.869-14.087 13.869H60.326v-6.911h12.165c4.028 0 6.629-2.58 6.629-6.942 0-3.382-1.623-6.942-7.004-6.942h-11.79V.517zm26.566 6.957C89.345 2.814 94.219 0 99.915 0c8.441 0 14.667 5.95 14.667 14.37 0 8.45-6.156 14.385-14.65 14.385-5.841 0-10.585-2.736-13.04-7.411 1.868-3.847 2.05-9.571 0-13.869zm6.223 6.942c0 3.943 2.581 7.13 6.786 7.13 3.881 0 6.848-2.743 6.848-7.192 0-4.12-2.737-7.099-6.864-7.099-3.902 0-6.77 2.857-6.77 7.161zm22.296-3.455h1.751l7.002-10.46h9.181L123.29 14.057l10.93 14.182h-9.289l-7.818-10.594h-1.656c.382-1.889.384-4.666-.047-6.684zM134.21.5h7.53v15.698c0 3.317 1.964 4.831 4.581 4.831 2.982 0 4.885-1.353 4.885-5.144V.5h7.545v16.02c0 6.578-3.46 11.724-12.306 11.724-9.367 0-12.237-5.865-12.237-11.595V.499z" fill="#003a5a"/><path fill="#f28725" d="M-.002 5.562h16.834v16.834H-.002z"/><path d="M137.991 34.258v10.143h2.289v-4.196h4.478v4.196h2.289V34.258h-2.289v3.975h-4.478v-3.975zm11.283 0v10.143h4.651a4.64 4.64 0 0 0 4.651-4.651v-.841a4.64 4.64 0 0 0-4.651-4.651zm1.972 1.972h2.539c1.407 0 2.539 1.268 2.539 2.843v.514c0 1.575-1.132 2.842-2.539 2.842h-2.539z" paint-order="fill markers stroke" fill="#003a5a"/></svg>