<?xml version="1.0" encoding="UTF-8"?>
<svg version="1.1" viewBox="0 0 800 192.71" xmlns="http://www.w3.org/2000/svg">
	<path d="m0 0h134.36v192.71h-134.36zm19.448 173.26h95.47v-153.81h-95.47z" fill="#fc0"/>
	<path d="m223.65 86.188h-8.3978c-11.05-15.47-21.657-30.939-32.707-48.177v48.177h-9.2818v-66.74h8.3978c11.05 15.47 21.657 30.497 32.265 47.735v-47.735h9.2818v66.74"/>
	<path d="m245.75 59.669c2.6519-8.8398 5.3039-16.796 7.9558-27.403 2.6519 10.166 4.8619 18.564 7.5138 27.403h-15.47m4.4199-40.221-22.983 67.182h10.166l5.7458-18.122h20.331l5.3039 18.122h12.818l-22.099-67.182z"/>
	<path d="m291.71 86.188v-57.901h-17.68v-8.8398h46.851v8.8398h-17.68v57.901h-11.492"/>
	<g>
		<rect x="324.42" y="19.448" width="11.492" height="67.182"/>
		<path d="m371.27 77.79c-11.934 0-16.354-13.26-16.354-26.077 0-12.376 4.8619-24.309 16.354-24.309s16.354 11.934 16.354 24.309c0 13.26-4.4199 26.077-16.354 26.077m0 9.7238c17.68 0 28.287-15.47 28.287-35.801 0-18.564-11.934-33.591-28.287-33.591s-28.287 15.028-28.287 33.591c0 20.331 11.05 35.801 28.287 35.801z"/>
		<path d="m457.02 86.188h-8.3978c-11.05-15.47-21.657-30.939-32.707-48.177v48.177h-9.2818v-66.74h8.3978c11.05 15.47 21.657 30.497 32.265 47.735v-47.735h9.2818v66.74"/>
		<path d="m478.67 59.669c2.6519-8.8398 5.3039-16.796 7.9558-27.403 2.6519 10.166 4.8619 18.564 7.5138 27.403h-15.47m4.4199-40.221-22.983 67.182h10.166l5.7459-18.122h20.331l5.3039 18.122h12.818l-21.215-67.182z"/>
	</g>
	<path d="m517.57 19.448h11.492v57.901h22.541v8.8398h-34.033v-66.74"/>
	<path d="m216.57 142.32v27.845c-6.1878 2.2099-12.376 3.9779-19.006 3.9779-19.89 0-32.265-15.47-32.265-34.917 0-18.122 12.376-34.475 32.707-34.475 6.1878 0 12.376 2.21 16.354 5.3039l-3.5359 7.9558c-3.0939-1.768-7.9558-3.5359-12.376-3.5359-12.376 0-20.773 9.7238-20.773 24.751 0 15.912 9.7238 25.193 19.448 25.193 3.0939 0 5.7459-0.44199 7.9558-1.768v-20.773h11.492"/>
	<path d="m257.68 114.92h-19.006v18.564h18.564v8.8398h-18.564v21.657h22.541v9.2818h-34.033v-67.182h30.497v8.8398"/>
	<g>
		<path d="m293.04 164.86c-11.934 0-16.354-13.26-16.354-26.077 0-12.376 4.8619-24.309 16.354-24.309 11.492 0 16.354 11.934 16.354 24.309 0 12.818-4.4199 26.077-16.354 26.077m0 9.2818c17.68 0 28.287-15.47 28.287-35.801 0-18.564-11.934-33.591-28.287-33.591-16.354 0-28.287 15.028-28.287 33.591 0 20.331 11.05 35.801 28.287 35.801z"/>
		<path d="m377.02 142.32v27.845c-6.1878 2.2099-12.376 3.9779-19.006 3.9779-19.89 0-32.265-15.47-32.265-34.917 0-18.122 12.376-34.475 32.707-34.475 6.1878 0 12.376 2.21 16.354 5.3039l-3.5359 7.9558c-3.0939-1.768-7.9558-3.5359-12.376-3.5359-12.376 0-20.773 9.7238-20.773 24.751 0 15.912 9.7238 25.193 19.448 25.193 3.0939 0 5.7459-0.44199 7.9558-1.768v-20.773h11.492"/>
		<path d="m398.67 114.92h4.8619c6.6298 0 10.608 3.9779 10.608 10.608 0 8.8398-5.3039 12.818-11.05 13.26-1.326 0-3.9779 0-4.8619 0.44199v-24.309m29.613 58.343-13.702-27.845c7.5138-3.9779 11.492-11.934 11.492-19.89 0-12.818-7.9558-19.448-20.773-19.448h-18.122v67.182h11.492v-25.193h5.3039l10.608 25.193z"/>
		<path d="m446.85 146.74c2.6519-8.8398 5.3039-16.796 7.9558-27.403 2.6519 10.166 4.8619 18.564 7.5138 27.403h-15.47m4.4199-40.663-22.983 67.182h10.166l5.7459-18.122h20.331l5.3039 18.122h12.818l-21.657-67.182z"/>
		<path d="m503.87 106.08h-18.122v67.182h11.492v-25.193h5.3039c13.702 0 22.099-11.05 22.099-22.541 0-13.26-7.9558-19.448-20.773-19.448m-1.768 33.149c-1.326 0-3.9779 0-4.8619 0.44199v-24.751h5.3039c6.6298 0 10.608 3.9779 10.608 10.608 0 9.2818-5.3039 13.26-11.05 13.702z"/>
	</g>
	<path d="m577.68 173.26h-11.492v-32.265h-23.867v32.265h-11.05v-67.182h11.05v25.635h23.867v-25.635h11.492v67.182"/>
	<g>
		<rect x="588.73" y="106.08" width="11.492" height="67.182"/>
		<path d="m651.93 118.45c-2.6519-1.768-7.5138-3.5359-11.934-3.5359-11.492 0-20.331 9.7238-20.331 24.751 0 15.912 9.2818 25.193 20.331 25.193 4.4199 0 8.3978-1.326 11.492-3.5359l3.0939 8.3978c-3.5359 2.2099-9.7238 4.4199-15.028 4.4199-19.89 0-32.265-15.47-32.265-34.917 0-18.122 12.376-34.475 32.265-34.475 5.7459 0 11.492 2.6519 15.47 5.3039l-3.0939 8.3978"/>
		<path d="m679.78 104.75v67.624h120.22v-67.624zm53.923 57.901h-10.608v-20.331h-13.702v20.331h-11.05v-47.735h10.608v18.122h13.702v-18.122h10.608v47.735zm26.077 0h-15.47v-47.735h11.934c18.122 0 24.751 10.166 24.751 23.867 0 13.26-7.0718 23.867-21.215 23.867z"/>
		<path d="m758.01 124.2h-2.6519v29.171h3.9779c7.0718 0 11.05-4.4199 11.05-15.47 0-9.7238-3.9779-13.702-12.376-13.702z"/>
	</g>
</svg>
