<svg width="800" height="393.28" version="1.1" xmlns="http://www.w3.org/2000/svg">
	<path d="m368.62 205.97c0-16.186-8.726-20.418-23.434-20.418h-23.399v42.839h23.399c13.944 2e-3 23.434-7.9574 23.434-22.421zm43.081 116.32h-39.597l-29.637-63.755h-19.93v63.755h-36.863v-166.12h58.022c36.375 0 60.299 11.941 60.299 51.802 0 20.16-7.9796 36.35-27.417 43.827z" fill="#0c1754"/>
	<path d="m147.7 156.17v-156.17h-19.684v156.17z" fill="#00b0de"/>
	<path d="m232.86 260.54v-42.852c0-20.196-9.2089-30.142-29.622-30.142h-17.686v103.35h17.686c20.413 0 29.622-10.212 29.622-30.361zm35.875 3.4515c0 42.105-21.904 58.293-62.265 58.293h-58.769v-166.12h58.769c38.846 0 62.265 17.179 62.265 57.766z" fill="#0c1754"/>
	<path d="m128.02 322.29v-166.12h-35.113v103.38l-56.039-103.38h-36.863v166.12h35.123v-96.878l53.795 96.878z" fill="#0c1754"/>
	<path d="m147.7 393.28v-70.988h-19.684v70.988z" fill="#00b0de"/>
	<g fill="#2739a7">
		<path d="m511.22 234.34c8.5265 1.8699 15.469 5.8461 20.827 11.934 6.898 8.0411 10.352 17.58 10.352 28.622 0 15.91-4.5897 28.008-13.762 36.291-8.4476 7.6297-20.748 11.446-36.9 11.446h-44.209v-166.36h40.679c33.123 0 49.686 13.68 49.686 41.043 0 10.066-2.6779 18.509-8.0362 25.328-4.3827 5.5234-10.598 9.4183-18.637 11.692zm-34.219-9.4971h9.2532c15.511 0 23.259-7.711 23.259-23.14 0-14.286-7.1838-21.433-21.551-21.433h-10.963v44.574zm0 73.794h11.446c16.154 0 24.239-7.9943 24.239-23.993 0-18.585-8.4846-27.883-25.454-27.883h-10.231z"/>
		<path d="m590.23 322.63h-28.129v-173.29h28.129z"/>
		<path d="m695.3 322.63h-25.087l-1.3402-11.204c-10.145 9.3394-20.699 14.005-31.662 14.005-18.834 0-28.25-11.975-28.25-35.924v-96.085h28.129v92.552c0 8.6866 3.5722 13.025 10.717 13.025 5.9249 0 12.38-3.082 19.364-9.2508v-96.326h28.129z"/>
		<path d="m800 281.71v1.9438c0 13.966-3.9812 24.562-11.936 31.783-7.3908 6.6615-17.863 9.9874-31.416 9.9874-14.698 0-25.858-4.2177-33.492-12.665-6.8192-7.5484-10.226-17.979-10.226-31.3v-45.909c0-29.955 14.609-44.936 43.84-44.936 15.506 0 26.791 3.9417 33.852 11.813 6.2476 6.9843 9.3764 17.615 9.3764 31.906v31.421h-59.424v20.216c0 10.313 5.3928 15.459 16.196 15.459 5.3558 0 9.2508-1.3328 11.685-4.0107 2.4365-2.7617 3.6609-7.3489 3.6609-13.764v-1.9438zm-27.644-38.122v-13.271c0-11.286-5.3189-16.93-15.957-16.93-5.1095 0-9.0488 1.5422-11.815 4.6315-2.6705 2.9194-4.0107 7.0188-4.0107 12.298v13.271z"/>
	</g>
</svg>
