<svg width="800" height="370.53" version="1.1" xmlns="http://www.w3.org/2000/svg">
	<path d="m347.29 194.07c0-15.265-8.2109-19.253-22.054-19.253h-22.05v40.366h22.05c13.145 0 22.054-7.5083 22.054-21.113zm40.602 109.57h-37.31l-27.921-60.062h-18.771v60.062h-34.74v-156.51h54.682c34.258 0 56.792 11.262 56.792 48.811 0 19.007-7.5222 34.26-25.815 41.307z" fill="#0c1754"/>
	<path d="m139.15 147.13v-147.13h-18.532v147.13z" fill="#00b0de"/>
	<path d="m219.41 245.45v-40.359c0-19.007-8.6793-28.394-27.925-28.394h-16.658v97.383h16.658c19.244 0 27.925-9.6184 27.925-28.63zm33.792 3.2904c0 39.668-20.64 54.9-58.661 54.9h-55.387v-156.51h55.387c36.6 0 58.661 16.188 58.661 54.446z" fill="#0c1754"/>
	<path d="m120.62 303.64v-156.51h-33.092v97.386l-52.799-97.386h-34.727v156.51h33.089v-91.269l50.682 91.269z" fill="#0c1754"/>
	<path d="m139.15 370.53v-66.888h-18.532v66.888z" fill="#00b0de"/>
	<g fill="#d11426">
		<path d="m681.45 301.86-13.799 32.424h-13.124l9.739-30.694h-7.4874v-27.146h24.672z"/>
		<path d="m439.58 278.17 2.1217 1.6695c6.6132 5.1942 13.335 8.1993 24.668 8.1993 21.359 0 40.941-18.212 44.375-56.023-8.946 8.2086-20.44 14.741-39.299 14.741-23.967 0-48.155-16.964-48.155-51.325 0-34.04 25.141-51.327 51.547-51.327 33.256 0 56.827 19.935 56.827 72.927 0 48.602-21.873 88.569-64.878 88.569-16.765 0-29.507-4.7095-34.548-9.5002l-1.2058-1.1362zm33.991-48.98c17.391 0 30.97-11.348 36.704-26.513-0.54724-25.646-13.885-41.001-34.172-41.001-20.241 0-32.287 13.693-32.287 33.34-2e-3 22.534 14.94 34.175 29.755 34.175z"/>
		<path d="m600.33 144.1c35.051 0 56.203 24.964 56.203 80.755 0 55.779-21.152 80.739-56.203 80.739-35.037 0-56.189-24.962-56.189-80.739 2e-3 -55.788 21.155-80.755 56.189-80.755zm0 143.94c22.664 0 35.673-16.932 35.673-63.178 0-46.256-13.009-63.183-35.673-63.183-22.648 0-35.656 16.927-35.656 63.183 0 46.246 13.009 63.178 35.656 63.178z"/>
		<path d="m704.3 261.8 1.28 1.7322c11.418 15.371 25.224 24.508 40.127 24.508 21.616 0 33.755-10.803 33.755-27.401 0-19.83-11.334-32.072-40.946-32.072h-17.254v-17.572h11.313c30.124 0 41.384-9.4631 41.384-26.36 0-13.883-11.979-22.959-25.713-22.959-17.597 0-25.059 7.3715-35.077 20.301l-1.28 1.658-16.102-10.926 1.338-1.862c10.676-14.808 25.669-26.743 51.125-26.743 27.972 0 46.239 14.657 46.239 40.32 0 17.136-9.7042 28.067-20.457 33.799 21.215 10.098 25.964 27.023 25.964 40.714 0 27.545-21.412 46.661-54.288 46.661-30.23 0-48.637-18.836-56.09-31.118l-1.0852-1.7832z"/>
	</g>
</svg>
