<svg width="746.52" height="450" version="1.1" xmlns="http://www.w3.org/2000/svg">
	<g>
		<path d="m395.17 220.83c0-17.356-9.3439-21.893-25.091-21.893h-25.099v45.925h25.099c14.956 0 25.091-8.5472 25.091-24.032zm46.193 124.7h-42.447l-31.777-68.356h-21.359v68.356h-39.517v-178.1h62.215c38.982 0 64.616 12.817 64.616 55.542 0 21.629-8.5419 38.985-29.374 46.997z" fill="#0c1754"/>
		<path d="m137.25 167.42h21.091v-167.42h-21.091z" fill="#00b0de"/>
		<path d="m249.66 279.3v-45.928c0-21.631-9.8812-32.309-31.775-32.309h-18.963v110.81h18.963c21.893 0 31.775-10.951 31.775-32.577zm38.448 3.7429c0 45.115-23.495 62.477-66.755 62.477h-63.014v-178.1h63.014c41.656 0 66.755 18.428 66.755 61.95z" fill="#0c1754"/>
		<path d="m99.593 278.23-60.076-110.81h-39.517v178.1h37.648v-103.87l57.675 103.87h41.923v-178.1h-37.654z" fill="#0c1754"/>
		<path d="m137.25 421.62h21.091v-76.101h-21.091z" fill="#00b0de"/>
	</g>
	<g fill="#0c1754">
		<path d="m241.99 448.79v-61.492h-7.2872v44.988c0 4.799 0.19058 6.1781 0.46587 7.933-0.56117-2.1255-1.1038-3.4146-3.502-8.203l-22.497-44.718h-9.7754v61.492h7.3719v-43.609c0-5.2543 0-6.3607-0.45793-9.2195 0.64587 2.6735 2.0276 5.159 4.0605 9.1295l22.214 43.699z"/>
		<path d="m262.84 448.79v-47.569h-7.1019v47.569zm0.45793-54.12v-9.5848h-8.1104v9.5848z"/>
		<path d="m311.16 438.19-6.0007-3.224c-2.2076 5.4449-5.5269 9.1268-11.52 9.1268-8.0204 0-11.806-5.5296-11.893-18.066h29.413v-4.0526c0-11.162-4.889-21.946-17.618-21.946-11.334 0-19.262 7.9304-19.262 24.524 0 16.223 6.2681 25.451 19.262 25.451 9.8654-5e-3 14.754-5.2675 17.618-11.814zm-7.2898-17.976h-22.124c0.82851-9.868 5.0716-14.286 11.615-14.286 6.0881 0 10.416 5.159 10.509 14.286z"/>
		<path d="m357.82 448.79v-63.708h-7.0966v20.84c-3.4146-3.322-8.6663-5.4475-13.185-5.4475-10.699 0-16.599 8.8542-16.599 24.71 0 15.768 6.1807 24.434 16.877 24.434 5.9902 0 9.6801-3.044 13.002-6.3634l0.18 5.5322h6.8213zm-7.0966-11.53c-3.5099 4.1505-6.7366 6.4534-10.787 6.4534-7.3825 0-11.435-6.0775-11.435-18.428 0-12.361 3.9652-19.087 11.244-19.087 4.709 0 7.6551 2.3029 10.977 5.2596z"/>
		<path d="m406.98 438.19-5.9928-3.224c-2.2155 5.4449-5.5375 9.1268-11.53 9.1268-8.0178 0-11.795-5.5296-11.89-18.066h29.413v-4.0526c0-11.162-4.889-21.946-17.61-21.946-11.337 0-19.27 7.9304-19.27 24.524 0 16.223 6.2681 25.451 19.27 25.451 9.868-5e-3 14.749-5.2675 17.61-11.814zm-7.2872-17.976h-22.126c0.83645-9.868 5.0716-14.286 11.615-14.286 6.0854 0 10.427 5.159 10.511 14.286z"/>
		<path d="m442.76 407.68v-7.5625c-0.64851 0-1.485 0.09-2.4035 0.1747-7.7451 0.74646-10.694 4.8916-14.196 10.792v-9.8601h-6.914v47.569h7.0966v-28.678c3.6899-7.4619 7.9304-11.242 12.356-12.076 1.387-0.27264 2.7661-0.27264 4.0605-0.35999z"/>
		<path d="m481.22 436.34c0-16.319-25.258-13.643-25.258-24.426 0-3.9652 2.864-6.1781 8.7616-6.1781 7.3719 0 9.5874 6.0828 9.5874 6.0828l5.8975-2.8588s-3.3193-8.9442-15.488-8.9442c-9.8654 0-15.771 4.7011-15.771 12.449 0 15.951 25.263 14.011 25.263 24.707 0 4.7011-4.0605 7.1866-10.053 7.1866-8.8463 0-11.332-7.9225-11.332-7.9225l-5.8128 2.8588s2.7688 10.697 17.237 10.697c10.154 0 16.967-3.9678 16.967-13.651z"/>
		<path d="m523.35 448.79v-34.485c0-9.4895-5.3549-14.288-16.057-14.288-11.517 0-16.313 7.6578-17.047 8.9442l5.4316 3.5046c0.28587-0.64587 3.9679-6.6387 11.443-6.6387 6.3528 0 9.2089 3.5893 9.2089 8.9416v3.592c-10.781 1.2917-26.917 3.7826-26.917 17.798 0 8.1183 5.1617 13.463 13.182 13.463 6.1834 0 10.329-1.755 14.116-6.5434l0.0847 5.7122h6.5539zm-7.0172-11.986c-3.9599 5.9002-7.9224 7.0966-12.168 7.0966-4.6984 0-7.5545-3.134-7.5545-8.293 0-9.4974 12.624-11.244 19.72-12.078v13.275z"/>
		<path d="m552.93 400.02c-14.381 0-18.624 13.735-18.624 25.814 0 12.174 4.5184 24.159 18.54 24.159 6.8133 0 12.444-2.6735 15.758-8.6663 0.7385-1.3897 1.4797-3.2346 1.747-4.7037l-6.5354-2.3055c-0.74378 5.5296-5.167 9.7674-10.884 9.7674-9.6721 0-11.154-11.239-11.154-18.709 0-7.4751 1.1965-19.453 11.154-19.453 5.6222 0 9.4921 4.7911 10.321 9.9501l6.7366-1.7497c-0.28587-1.6544-0.92377-3.4093-1.7497-4.8784-3.1314-6.0881-8.4863-9.2248-15.308-9.2248z"/>
		<path d="m614.37 448.79v-32.087c0-8.9416-1.2044-16.313-12.907-16.313-6.1807 0-13.831 6.2681-13.831 6.2681v-21.573h-7.0939v63.705h7.0939v-36.695s6.914-5.8949 12.441-5.8949c5.9928 0 7.1919 3.1314 7.1919 9.0262v33.567h7.1045z"/>
		<path d="m657.37 436.34c0-16.319-25.255-13.643-25.255-24.426 0-3.9652 2.8455-6.1781 8.7536-6.1781 7.3825 0 9.5874 6.0828 9.5874 6.0828l5.9001-2.8588s-3.3114-8.9442-15.488-8.9442c-9.8627 0-15.76 4.7011-15.76 12.449 0 15.951 25.263 14.011 25.263 24.707 0 4.7011-4.0632 7.1866-10.056 7.1866-8.8463 0-11.342-7.9225-11.342-7.9225l-5.8049 2.8588s2.7688 10.697 17.243 10.697c10.133 0 16.959-3.9678 16.959-13.651z"/>
		<path d="m701.34 438.19-5.9981-3.224c-2.2129 5.4449-5.5349 9.1268-11.525 9.1268-8.0204 0-11.806-5.5296-11.893-18.066h29.416v-4.0526c0-11.162-4.889-21.946-17.61-21.946-11.348 0-19.273 7.9304-19.273 24.524 0 16.223 6.2602 25.451 19.273 25.451 9.8574-5e-3 14.746-5.2675 17.61-11.814zm-7.2872-17.976h-22.129c0.83644-9.868 5.0743-14.286 11.615-14.286 6.0828 0 10.429 5.159 10.514 14.286z"/>
		<path d="m746.52 448.79v-32.915c0-11.43-3.7746-15.398-12.811-15.398-4.4231 0-9.1216 2.4008-14.201 6.3687l-0.09-5.6222h-6.734v47.569h7.0993v-36.695c4.889-3.8726 9.3094-5.8949 12.634-5.8949 4.971 0 7.0066 2.3029 7.0066 8.5683v34.022h7.0966z"/>
	</g>
	<path d="m501.44 216.96h-26.099v-25.342l3.1023-0.60617c12.091-2.377 18.754-5.5163 23.299-9.021 2.3029-1.7682 4.1452-3.7032 5.9399-5.8684 1.89-2.2764 3.6317-4.6905 5.6064-7.2157l1.1541-1.485h24.318v146.09h26.298v32.015h-90.046v-32.015h26.428z" fill="#e7651a"/>
</svg>
