<svg width="800" height="435.12" version="1.1" xmlns="http://www.w3.org/2000/svg">
	<g fill="#0277bf">
		<path d="m174.63 396.78 13.654-2.8738c0.47226 2.0643 1.2548 3.8453 2.3341 5.3699 2.9278 4.0476 7.5421 6.0715 13.816 6.0715 3.8048 0 6.8945-0.75559 9.2826-2.2802 2.631-1.6595 3.9532-3.9937 3.9532-6.9889 0-4.0881-2.6714-7.3532-8.0278-9.8088-0.93095-0.47225-3.1572-1.3762-6.6651-2.7119l-12.197-4.7627c-8.7834-3.4-13.168-9.6874-13.168-18.876 0-6.3953 2.0778-11.428 6.2334-15.111 2.2802-2.0643 5.4913-3.6024 9.6455-4.6143 3.3339-0.82299 6.8284-1.2413 10.512-1.2413 10.699 0 18.7 3.4135 24.016 10.241 1.5516 1.9833 2.7241 4.2095 3.5214 6.6651l-13.384 3.6294c-0.83654-2.3072-1.754-4.0612-2.7659-5.2484-2.4151-2.7794-6.2738-4.1826-11.549-4.1826-4.5873 0-7.8524 1.0659-9.8088 3.2111-1.3357 1.4706-1.9968 3.2786-1.9968 5.4104 0 4.223 2.6984 7.5151 8.1223 9.8627 0.90394 0.40477 3.1302 1.2548 6.6651 2.55l13.614 5.0461c2.3881 0.89048 4.5468 2.3072 6.5032 4.223 3.7508 3.6834 5.6397 8.4596 5.6397 14.315 0 4.2905-0.93096 8.0413-2.7659 11.266-1.673 2.9278-3.8722 5.1-6.6112 6.5032-5.3564 2.7524-11.686 4.1286-18.97 4.1286-12.008 0-20.697-3.9802-26.08-11.927-1.5921-2.3476-2.7659-4.9651-3.5214-7.8659"/>
		<path d="m261.26 372.17v28.833c3.6429 3.2516 7.2453 4.8842 10.78 4.8842 2.7794 0 5.0596-1.0389 6.8405-3.0897 1.2952-1.4841 2.3206-3.9667 3.0897-7.4881 0.60715-2.8064 0.9175-5.8691 0.9175-9.1477 0-13.263-3.5754-19.901-10.738-19.901-3.8588 0-7.4895 1.9698-10.89 5.9096m0 37.616v25.311h-13.005v-77.944h12.196l0.70297 6.1254c4.8018-4.8032 10.064-7.2048 15.772-7.2048 6.3534 0 11.238 2.5635 14.638 7.6905 3.4688 5.208 5.1945 12.548 5.1945 22.019 0 8.2302-1.2278 14.774-3.6834 19.618-3.508 6.9754-8.8778 10.456-16.096 10.456-4.6953 0-9.9437-2.0238-15.718-6.0715"/>
		<path d="m324.89 379.72h23.084c-0.0941-4.1556-0.76906-7.3532-1.9955-9.5929-1.7405-3.1437-4.8032-4.7209-9.2165-4.7209-3.1841 0-5.7463 1.0106-7.7027 3.0344-2.1331 2.1722-3.5214 5.9366-4.1691 11.279m35.996 9.3231h-35.511c0.17679 5.0595 0.89049 8.8374 2.1183 11.32 1.8768 3.8318 5.1 5.7477 9.6482 5.7477 4.5185 0 8.0143-1.673 10.51-5.0326 0.79608-1.0524 1.6056-2.5757 2.4407-4.613l10.687 4.8828c-1.8498 3.7913-3.7522 6.6516-5.6937 8.5675-4.4524 4.3714-10.579 6.5572-18.376 6.5572-7.9212 0-14.018-2.658-18.324-7.9725-4.304-5.3442-6.4492-12.804-6.4492-22.385 0-10.077 2.2397-17.754 6.7204-23.03 4.3026-5.0596 10.347-7.5974 18.159-7.5974 8.635 0 14.976 2.9143 19.024 8.7294 3.3609 4.845 5.0461 11.308 5.0461 19.402"/>
		<path d="m414.62 414.78h-42.446v-8.4596l20.656-30.951c1.7675-2.6714 3.9937-5.5183 6.6651-8.554-3.8318 0.4587-7.2992 0.70156-10.402 0.70156h-14.153v-10.348h39.087v8.554l-18.97 29.656c-2.6714 4.1826-5.1135 7.4072-7.3262 9.6469 2.4286-0.53965 5.3699-0.82298 8.8374-0.82298h18.052"/>
		<path d="m445.01 414.78h-13.006v-57.611h13.006zm0.32381-63.251h-13.654v-14.261h13.654z"/>
		<path d="m492.3 399.66v-13.275c-5.1675 0.75418-8.9858 1.5502-11.441 2.3733-5.5588 1.9159-8.3381 5.2754-8.3381 10.092 0 4.9111 2.4556 7.368 7.3667 7.368 3.9802 0 8.1088-2.1871 12.413-6.5585m12.737 15.125h-11.441l-0.53965-6.4492c-1.5921 1.9159-3.0897 3.3326-4.4929 4.2784-3.3326 2.2788-7.3667 3.4122-12.089 3.4122-5.1405 0-9.2016-1.4302-12.197-4.277-3.0762-2.8995-4.6008-6.7447-4.6008-11.549 0-8.7429 4.8842-14.855 14.679-18.322 4.0881-1.4437 10.065-2.7254 17.945-3.8453v-3.1976c0-2.8873-0.86347-5.154-2.604-6.7731-1.727-1.6326-4.0476-2.4421-6.935-2.4421-3.4405 0-6.3953 1.1064-8.8913 3.3056-1.1873 1.0524-2.1452 2.4151-2.8738 4.1151l-10.348-5.0865c1.6595-3.2921 3.9937-5.9231 6.9889-7.9199 4.5873-3.0357 10.011-4.5469 16.258-4.5469 5.1675 0 9.6874 1.0119 13.546 3.0357 2.2802 1.1468 4.0342 2.8873 5.2619 5.1945 1.5516 2.8603 2.3341 6.1794 2.3341 9.9707"/>
		<path d="m522.29 414.78h13.006v-77.512h-13.006z"/>
	</g>
	<g>
		<path d="m345.87 193.18c0-15.185-8.1916-19.32-21.986-19.32h-21.947v40.456h21.947c13.099 0 21.986-7.4575 21.986-21.02zm40.495 109.23h-37.21l-27.821-59.815h-18.702v59.815h-34.583v-155.91h54.444c34.119 0 56.569 11.206 56.569 48.609 0 18.934-7.4961 34.119-25.734 41.151z" fill="#0c1754"/>
		<path d="m138.57 146.5v-146.52h-18.508v146.52z" fill="#00b0de"/>
		<path d="m218.48 244.45v-40.224c0-18.934-8.6553-28.284-27.821-28.284h-16.576v96.986h16.576c19.32 0 27.821-9.5827 27.821-28.516zm33.655 3.2844c0 39.49-20.518 54.675-58.423 54.675h-55.178v-155.91h55.178c36.437 0 58.423 16.113 58.423 54.096z" fill="#0c1754"/>
		<path d="m120.06 302.41v-155.91h-32.921v97.025l-52.589-97.025h-34.583v155.91h32.96v-90.92l50.464 90.92z" fill="#0c1754"/>
		<path d="m138.57 369.03v-66.615h-18.508v66.615z" fill="#00b0de"/>
	</g>
	<g fill="#0277bf">
		<path d="m489.5 302.49v-20.595l-17.156-0.69552v-113.56l17.156-0.69552v-20.402h-61.399v20.402l17.117 0.69552v113.56l-17.117 0.69552v20.595z"/>
		<path d="m602.75 302.49v-84.196c0-26.855-9.2736-38.176-31.221-38.176-11.785 0-23.184 5.5641-37.017 16.19l-0.69552-13.872h-25.464v120.05h27.048v-88.601c9.7372-8.0757 18.74-12.481 25.464-12.481 9.9304 0 14.799 5.5641 14.799 18.74v82.342z"/>
		<path d="m692.4 139.28a151.08 151.08 0 0 0-20.363-1.8547c-29.405 0-34.003 17.349-34.003 39.799v5.1778h-18.045v21.754h18.277v98.338h27.048v-98.532h22.45v-21.522h-22.643v-5.2164c0-9.9691 1.8547-19.32 15.263-19.32a39.026 39.026 0 0 1 10.201 1.6229l1.8547-20.131z"/>
		<path d="m749.58 178.34c-38.253 0-53.13 27.937-53.13 62.983 0 38.022 15.804 62.751 50.85 62.751 40.301 0 52.666-27.28 52.666-62.983 0-40.765-17.156-62.751-50.232-62.751zm-25.193 63.91c0-29.985 7.1097-42.504 23.802-42.504 16.692 0 23.802 12.751 23.802 41.615 0 28.864-6.9552 41.461-23.802 41.461-16.847 0-23.802-12.828-23.802-40.533z"/>
	</g>
</svg>
