<svg width="800" height="279.45" version="1.1" xmlns="http://www.w3.org/2000/svg">
	<path d="m63.178 229.02-38.224-68.847v68.847h-24.954v-118.04h26.189l39.836 73.437v-73.437h24.947v118.04zm83.536 0h-41.763v-118.04h41.763c27.607 0 44.245 12.212 44.245 41.046v35.579c0 29.905-15.577 41.414-44.245 41.414zm18.758-74.334c0-14.333-6.5482-21.419-21.057-21.419h-12.567v73.454h12.567c14.508 0 21.057-7.2472 21.057-21.598zm98.936 74.334-21.069-45.3h-14.149v45.3h-26.202v-118.04h41.248c25.823 0 42.828 8.4909 42.828 36.802 0 14.338-5.6635 25.662-19.475 31.156l24.963 50.082zm-19.121-97.163h-16.635v30.446h16.635c10.087 0 16.646-5.6565 16.646-15.943 0-11.492-6.1996-14.503-16.646-14.503z" fill="#0c1754"/>
	<g fill="#b63929">
		<path d="m377.42 166.68 29.777-34.642h-25.646l-20.023 23.772c-3.6122 4.2919-8.7677 9.5332-11.623 14.556v-76.613h-42.756v17.229h20.902v118.04h21.854v-33.139l12.17-14.419 24.147 47.558h24.896z"/>
		<path d="m477.18 229.02-0.55882-11.224c-7.8638 5.7897-19.292 13.091-29.4 13.091-20.224 0-25.834-15.347-25.834-32.937v-66.106h21.908v64.603c0 8.0477 1.8692 17.029 11.795 17.029 6.9196 0 15.349-5.8054 20.594-10.104v-71.527h22.088v97.175z"/>
		<path d="m611.63 230.51c-20.042 0-28.109-8.6171-28.109-28.458v-52.79h-14.219v-17.423h14.219v-25.086l21.927-5.6233v30.709h21.332v17.423h-21.332v52.224c0 8.4331 3.1585 11.439 11.606 11.439 3.5474 0 7.291-0.77079 10.656-1.8919l0.95648 17.034c-5.6198 1.3296-11.238 2.442-17.036 2.442z"/>
		<path d="m701.82 229.02-0.55882-11.224c-7.869 5.7897-19.282 13.091-29.385 13.091-20.23 0-25.853-15.347-25.853-32.937v-66.106h21.91v64.603c0 8.0477 1.8867 17.029 11.8 17.029 6.9143 0 15.36-5.8054 20.601-10.104v-71.527h22.092v97.175z"/>
		<path d="m767.78 173.42v55.597h-21.887v-97.175h20.591l0.36612 18.909c9.1829-14.783 14.804-21.155 33.149-21.332v22.453c-17.236 0.19445-24.905 6.3713-32.219 21.549z"/>
		<path d="m565.49 211.04c-3.388 1.1212-7.1333 1.8919-10.681 1.8919-8.4226 0-11.599-3.0061-11.599-11.439l-0.0683-103.15h-21.915l0.0876 103.72c0 19.841 8.039 28.458 28.055 28.458 5.83 0 11.441-1.1141 17.054-2.4402z"/>
	</g>
	<path d="m90.971 0h13.981v110.98l-13.981-8.7e-4zm0 279.45v-50.434h13.981v50.434z" fill="#00b0de"/>
</svg>
