<svg xmlns="http://www.w3.org/2000/svg" width="354" height="210"><path d="M237.969 84.674v86.757h10.448v-40.947h39.378v40.947h24.537c24.826 0 36.85-11.909 36.868-44.304.01-18.764-3.69-42.453-38.876-42.453h-22.529v36.617h-39.378V84.674H237.97zm60.651 8.817h8.88c21.923 0 30.627 9.126 30.592 35.016-.035 25.89-8.884 34.327-30.592 34.327h-8.88V93.49z" fill="#999"/><path d="M72.813 3.125v81.563h10.28V3.124h-10.28zm10.28 81.563v86.75h30.688c21.077 0 32.531-8.457 32.531-30.438v-26.156c0-21.194-12.24-30.156-32.53-30.156H83.093zm0 86.75h-10.28V208.5h10.28v-37.063zm-10.28 0v-86.75H54.468v53.968l-29.25-53.969H5.969v86.75h18.343v-50.593l28.063 50.594h20.438zm82.343-86.75v86.75h19.25v-33.313h10.406l15.47 33.313h20.687l-18.344-36.813c10.149-3.905 14.313-12.368 14.313-22.906 0-20.812-12.504-27.031-31.5-27.031h-30.282zM174 100.03h12.219c7.67 0 12.25 2.207 12.25 10.656 0 7.546-4.97 11.72-12.25 11.72H174V100.03zm-71.125 1.031h9.219c10.67 0 15.469 5.212 15.469 15.75v22.376c0 10.538-4.798 15.843-15.47 15.843h-9.218v-53.969z" fill="#173e7d" fill-rule="evenodd"/></svg>