<svg width="633.63" height="450" version="1.1" xmlns="http://www.w3.org/2000/svg">
	<path d="m421.78 235.68c0-18.527-9.972-23.368-26.796-23.368h-26.779v49.026h26.779c15.962 0 26.796-9.1187 26.796-25.658zm49.302 133.11h-45.309l-33.909-72.966h-22.802v72.966h-42.175v-190.1h66.393c41.611 0 68.987 13.67 68.987 59.274 0 23.09-9.1384 41.617-31.369 50.153z" fill="#0c1754"/>
	<path d="m146.49 0v178.69h22.518v-178.69z" fill="#00b0de"/>
	<path d="m266.45 298.12v-49.029c0-23.104-10.541-34.486-33.901-34.486h-20.24v118.25h20.24c23.36 3e-3 33.901-11.676 33.901-34.737zm41.051 3.9736c0 48.173-25.072 66.7-71.246 66.7h-67.25v-190.1h67.25c44.45 0 71.246 19.665 71.246 66.112z" fill="#0c1754"/>
	<path d="m106.3 178.69v118.29l-64.126-118.29h-42.175v190.1h40.186v-110.87l61.552 110.87h44.749v-190.1z" fill="#0c1754"/>
	<path d="m146.49 368.79v81.206h22.518v-81.206z" fill="#00b0de"/>
	<path d="m508.32 333.87 1.1546-1.0955c73.603-70.032 83.287-81.786 83.287-98.956 0-12.943-6.7081-21.298-20.535-21.298-14.945 0-22.287 8.7695-22.287 20.268v10.335h-40.857v-12.332c0-29.037 23.323-54.582 60.632-54.582 37.103 0 63.918 19.305 63.918 56.844 0 22.591-13.171 42.222-28.933 59.345-13.075 14.219-28.471 27.246-40.885 39.395l-0.67024 0.69277h67.717v36.309h-122.54v-34.923z" fill="#ea4939"/>
</svg>
