<svg width="590.37" height="450" version="1.1" xmlns="http://www.w3.org/2000/svg">
	<g>
		<path d="m390.54 218.23c0-17.153-9.2362-21.641-24.801-21.641h-24.804v45.384h24.804c14.774 3e-3 24.801-8.4396 24.801-23.744zm45.654 123.23h-41.952l-31.407-67.556h-21.105v67.556h-39.061v-176.01h61.485c38.53 0 63.862 12.668 63.862 54.892 0 21.369-8.4422 38.52-29.03 46.437z" fill="#0c1754"/>
		<path d="m135.63 0h20.847v165.45h-20.847z" fill="#00b0de"/>
		<path d="m246.72 276.02v-45.387c0-21.372-9.7639-31.93-31.397-31.93h-18.739v109.51h18.739c21.633-3e-3 31.397-10.819 31.397-32.196zm37.995 3.6934c0 44.598-23.221 61.746-65.96 61.746h-62.279v-176.01h62.279c41.163 0 65.96 18.211 65.96 61.221z" fill="#0c1754"/>
		<path d="m0 165.45v176.01h37.211v-102.65l56.995 102.65h41.427v-176.01h-37.204v109.51l-59.38-109.51z" fill="#0c1754"/>
		<path d="m135.63 341.46h20.847v75.209h-20.847z" fill="#00b0de"/>
		<path d="m498.06 214.66h-25.922v-25.172l3.0822-0.60599c12.008-2.3561 18.629-5.4801 23.143-8.9594 2.2856-1.7553 4.1244-3.6804 5.9085-5.8275 1.8728-2.2568 3.6046-4.6547 5.5611-7.1701l1.1519-1.4706h24.154v145.1h26.118v30.908h-89.442v-30.908h26.246z" fill="#099"/>
	</g>
	<g fill="#0c1754">
		<path d="m246.47 448.71-14.8-30.989c9.043-1.9852 13.606-7.6481 13.606-17.582 0-14.601-9.2362-17.678-21.949-17.678h-21.053v66.252h8.0425v-29.503h13.805l13.413 29.503h8.9358zm-23.937-59.495c8.7426 0 14.596 1.0892 14.596 11.519 0 8.8418-5.0622 11.72-15.296 11.72h-11.519v-23.239z"/>
		<path d="m292.87 448.71v-37.146c0-10.234-5.7596-15.398-17.281-15.398-12.418 0-17.587 8.2384-18.378 9.6385l5.8614 3.7718c0.29778-0.6948 4.2681-7.1544 12.313-7.1544 6.8593 0 9.9336 3.8763 9.9336 9.6359v3.8711c-11.624 1.3922-29.007 4.0722-29.007 19.172 0 8.7399 5.5637 14.502 14.204 14.502 6.6555 0 11.13-1.8859 15.194-7.0499l0.10187 6.1566zm-7.5488-12.911c-4.2681 6.3551-8.5467 7.6507-13.115 7.6507-5.0622 0-8.1444-3.3826-8.1444-8.9437 0-10.226 13.609-12.12 21.26-13.011z"/>
		<path d="m346.49 448.71v-68.634h-7.6429v22.445c-3.6726-3.5759-9.3381-5.8588-14.204-5.8588-11.519 0-17.88 9.5366-17.88 26.617 0 16.994 6.6477 26.324 18.175 26.324 6.4518 0 10.43-3.2755 14.008-6.854l0.19329 5.9607zm-7.6429-12.418c-3.777 4.4718-7.2511 6.9507-11.621 6.9507-7.9511 0-12.321-6.5536-12.321-19.865 0-13.306 4.2759-20.557 12.125-20.557 5.0596 0 8.2384 2.4788 11.817 5.6603z"/>
		<path d="m372.06 448.71v-51.251h-7.6507v51.251zm0.49368-58.301v-10.331h-8.7452v10.331z"/>
		<path d="m407.52 396.17c-16.096 0-21.166 12.909-21.166 26.917 0 16.981 6.9638 26.915 20.465 26.915 16.388 0 20.954-12.713 20.954-26.915 0-17.577-6.8488-26.917-20.254-26.917zm-13.214 27.113c0-14.398 3.9703-20.758 12.815-20.758 8.8366 0 12.713 6.3577 12.713 20.562 0 14.4-3.8763 20.562-12.713 20.562-8.7426 0-12.815-6.4596-12.815-20.366z"/>
		<path d="m527.46 382.46h-12.906l-12.018 42.313c-2.0949 7.2537-2.6826 14.204-2.6826 14.204s-0.89332-6.9507-2.9804-14.204l-12.026-42.313h-12.812v66.252h8.0504v-42.412c0-3.5785-0.59555-16.691-0.59555-16.691 0 0.10187 1.6874 9.1422 3.6699 15.798l13.115 43.305h6.9533l12.909-43.203c2.1915-7.4522 4.0748-15.9 4.0748-15.9s-0.59554 13.609-0.59554 16.691v42.412h7.8466v-66.252z"/>
		<path d="m590.37 382.46h-8.147l-13.41 47.678c-1.2878 4.4692-1.8859 6.6529-2.4815 10.427-0.49629-3.4714-1.0892-7.0499-2.0896-10.427l-13.805-47.678h-8.5467l19.87 66.252h8.6407z"/>
	</g>
</svg>
