<svg width="612.05" height="450" version="1.1" xmlns="http://www.w3.org/2000/svg">
	<path d="m392.43 219.29c0-17.232-9.2825-21.745-24.922-21.745h-24.93v45.612h24.93c14.845 0 24.922-8.4823 24.922-23.867zm45.867 123.82h-42.162l-31.547-67.877h-21.212v67.877h-39.245v-176.85h61.785c38.712 0 64.172 12.727 64.172 55.155 0 21.477-8.4928 38.712-29.175 46.664z" fill="#0c1754"/>
	<path d="m157.24 166.26v-166.26h-20.95v166.26z" fill="#00b0de"/>
	<path d="m247.92 277.36v-45.602c0-21.483-9.8099-32.087-31.555-32.087h-18.825v110.04h18.825c21.745-3e-3 31.555-10.875 31.555-32.352zm38.182 3.7125c0 44.807-23.335 62.039-66.287 62.039h-62.577v-176.85h62.577c41.357 0 66.287 18.295 66.287 61.514z" fill="#0c1754"/>
	<path d="m136.29 343.11v-176.85h-37.385v110.04l-59.659-110.04h-39.245v176.85h37.387v-103.14l57.269 103.14z" fill="#0c1754"/>
	<path d="m157.24 418.68v-75.575h-20.95v75.575z" fill="#00b0de"/>
	<g fill="#0c1754">
		<path d="m267.98 385.07h-7.4486l-9.1671 42.393c-0.94977 4.392-1.241 6.874-1.5244 10.975-0.94714-5.633-1.241-7.8316-2.0019-10.975l-10.025-42.393h-7.9261l-10.117 42.393c-0.85532 3.6206-1.4299 6.874-1.91 10.975-0.38305-3.9119-0.85531-7.9182-1.5244-10.975l-9.0752-42.393h-7.8264l14.315 63.684h7.6454l10.4-42.965c0.96026-4.0063 1.4273-6.9684 1.8156-11.738 0.38568 4.7698 0.76087 7.6296 1.7185 11.738l10.311 42.965h7.7372z"/>
		<path d="m310.34 437.77-6.1997-3.3373c-2.2931 5.6304-5.7248 9.4504-11.932 9.4504-8.3065 0-12.226-5.7275-12.321-18.715h30.453v-4.2031c0-11.549-5.0506-22.721-18.227-22.721-11.746 0-19.953 8.2094-19.953 25.4 0 16.807 6.4883 26.352 19.953 26.352 10.214 0 15.275-5.4441 18.227-12.226zm-7.5325-18.62h-22.918c0.86581-10.211 5.25-14.792 12.029-14.792 6.3073 0 10.794 5.3418 10.888 14.792z"/>
		<path d="m329.45 448.76v-65.967h-7.3515v65.967z"/>
		<path d="m352.45 448.76v-65.967h-7.3568v65.967z"/>
		<path d="m402.38 437.77-6.2076-3.3373c-2.2878 5.6304-5.7274 9.4504-11.935 9.4504-8.3013 0-12.216-5.7275-12.308-18.715h30.45v-4.2031c0-11.549-5.061-22.721-18.234-22.721-11.746 0-19.948 8.2094-19.948 25.4 0 16.807 6.4831 26.352 19.948 26.352 10.222 0 15.272-5.4441 18.234-12.226zm-7.543-18.62h-22.907c0.85269-10.211 5.2447-14.792 12.027-14.792 6.2994 0 10.788 5.3418 10.88 14.792z"/>
		<path d="m482.39 448.76v-63.684h-7.5509v46.588c0 4.9666 0.19678 6.4044 0.488 8.2094-0.58245-2.1908-1.1597-3.5262-3.639-8.4928l-23.293-46.305h-10.119v63.684h7.6427v-45.158c0-5.4415 0-6.5906-0.47751-9.5449 0.65854 2.7653 2.0963 5.3418 4.1926 9.4531l23.012 45.25z"/>
		<path d="m514.1 398.25c-15.459 0-20.331 12.413-20.331 25.872 0 16.335 6.6851 25.877 19.664 25.877 15.752 0 20.152-12.226 20.152-25.877 0-16.899-6.5933-25.872-19.486-25.872zm-12.696 26.069c0-13.845 3.8306-19.956 12.321-19.956 8.4954 0 12.226 6.1131 12.226 19.759 0 13.84-3.7282 19.767-12.226 19.767-8.4036 0-12.321-6.2076-12.321-19.57z"/>
		<path d="m568.77 406.18v-7.8342c-0.66641 0-1.5296 0.0944-2.4794 0.1889-8.0153 0.77136-11.072 5.0689-14.711 11.172v-10.214h-7.1547v49.267h7.3515v-29.695c3.8174-7.7293 8.2094-11.644 12.79-12.507 1.4378-0.28335 2.8677-0.28335 4.2031-0.37781z"/>
		<path d="m612.05 448.76v-65.967h-7.3568v21.574c-3.5262-3.4422-8.9782-5.633-13.654-5.633-11.077 0-17.18 9.1697-17.18 25.589 0 16.327 6.3939 25.295 17.471 25.295 6.1971 0 10.017-3.1484 13.457-6.5906l0.19677 5.7327zm-7.3568-11.935c-3.6259 4.2923-6.9658 6.6798-11.169 6.6798-7.6375 0-11.843-6.3047-11.843-19.09 0-12.798 4.1086-19.769 11.644-19.769 4.8695 0 7.9261 2.3902 11.366 5.4467v26.732z"/>
	</g>
	<path d="m498.59 215.44h-25.911v-25.161l3.0907-0.60869c12.003-2.3534 18.62-5.4703 23.141-8.9546 2.2747-1.7552 4.1139-3.6784 5.8954-5.8272 1.8733-2.259 3.6023-4.6622 5.5648-7.1705l1.1465-1.4719h24.151v145.06h26.111v31.794h-89.417v-31.794h26.229z" fill="#0096cc"/>
</svg>
