<svg xmlns="http://www.w3.org/2000/svg" width="1063.333" height="338.836" viewBox="0 0 281.34 89.65"><path d="M0 .01v64.495H23.812V31.132c0-6.889 5.547-12.435 12.436-12.435h10.76c6.889 0 12.435 5.546 12.435 12.435v33.373h23.636V24.352C83.08.713 64.501.713 47.45.713c-7.014 0-17.604 0-23.636 9.287V.01zM88.195.01v13.758h23.812V.01zm0 18.687v45.808h23.812V18.697zM138.258.01a22.44 22.44 0 0 0-22.49 22.49v19.515a22.44 22.44 0 0 0 22.49 22.49h38.216a22.44 22.44 0 0 0 22.49-22.49v-5.112h-23.279v.003a8.432 8.432 0 0 1-8.45 8.45h-18.908a8.432 8.432 0 0 1-8.45-8.45V26.81c0-4.681 3.769-8.45 8.45-8.45h18.908c4.682 0 8.45 3.769 8.45 8.45h23.279V22.5A22.44 22.44 0 0 0 176.474.01zM223.081.01a21.912 21.912 0 0 0-21.96 21.96v20.574a21.912 21.912 0 0 0 21.96 21.96h36.299a21.912 21.912 0 0 0 21.96-21.96v-.387h-22.288a7.733 7.733 0 0 1-7.68 6.703H233.09a7.735 7.735 0 0 1-7.752-7.752v-3.184h56.002V21.97A21.912 21.912 0 0 0 259.38.01zm10.01 15.52h18.28a7.736 7.736 0 0 1 7.753 7.753h-33.786a7.735 7.735 0 0 1 7.752-7.752z"/><path d="M.001 72.32v17.29h2.605V74.343l-.035-.467h.07l8.751 15.734h2.64l7.882-14.308c.348-.622.556-1.011.625-1.193l.209-.414h.07l-.035 15.915h2.604V72.32h-4.584l-6.147 11.198-1.945 3.604h-.069L4.516 72.32zm63.722 0v1.997h2.36V72.32zm32.118 0v17.29h14.516v-1.814H98.446V72.32zm51.852 0v17.29h2.361v-5.832h.972l6.877 5.832h3.23l-8.197-6.532 6.912-5.573h-2.953l-5.764 4.873h-1.077V72.32zm40.393 0v17.29h11.321c2.362 0 4.029-.363 5.036-1.115.972-.725 1.493-1.995 1.493-3.758 0-1.296-.278-2.255-.799-2.852-.555-.596-1.493-1.01-2.882-1.27v-.051c1.112-.286 1.91-.7 2.327-1.218.417-.519.625-1.348.625-2.437 0-1.866-.452-3.11-1.32-3.707-.903-.57-2.743-.881-5.556-.881zm2.605 1.686h7.57c1.806 0 2.987.181 3.543.518.52.337.799 1.089.799 2.255 0 1.348-.313 2.204-.938 2.592-.625.39-1.98.57-4.098.57h-6.876zm36.699.596v2.903h-2.257v1.477h2.257v7.855c0 1.114.347 1.892 1.042 2.306.694.441 1.944.648 3.75.648 2.952 0 4.445-1.166 4.445-3.55 0-.364-.034-.675-.034-.908h-2.188c0 .207.034.415.034.648 0 .959-.173 1.581-.486 1.866-.312.311-.972.441-1.98.441-.902 0-1.493-.104-1.77-.363-.313-.26-.452-.752-.452-1.53v-7.413h6.251v-1.477h-6.25v-2.903zm11.327 0v2.903h-2.258v1.477h2.258v7.855c0 1.114.347 1.892 1.042 2.306.695.441 1.944.648 3.75.648 2.952 0 4.445-1.166 4.445-3.55 0-.364-.034-.675-.034-.908h-2.188c0 .207.034.415.034.648 0 .959-.173 1.581-.485 1.866-.313.311-.973.441-1.98.441-.903 0-1.493-.104-1.771-.363-.313-.26-.452-.752-.452-1.53v-7.413h6.252v-1.477h-6.252v-2.903zm36.555 2.618c-2.154 0-3.716.57-4.62 1.71l-.069-.025.243-1.4h-2.361V89.61h2.361v-7.258c0-1.348.278-2.307.834-2.825.555-.518 1.597-.804 3.09-.804 1.772 0 2.674.622 2.674 1.815v.959h2.327v-.83c0-2.28-1.493-3.447-4.48-3.447zm-221.851.103c-2.71 0-4.48.234-5.384.7-.903.467-1.319 1.4-1.319 2.8 0 1.426.52 2.359 1.632 2.773 1.077.415 3.473.648 7.223.674.903 0 1.529.13 1.841.389.313.26.486.778.486 1.53 0 .88-.312 1.45-.938 1.736-.625.31-1.84.44-3.715.44-1.736 0-2.883-.129-3.438-.388-.556-.26-.834-.803-.834-1.633 0-.026 0-.104.035-.26v-.336h-2.43c-.036.181-.036.414-.036.7 0 1.27.486 2.151 1.493 2.618.973.492 2.779.725 5.384.725 2.639 0 4.479-.233 5.451-.751.973-.493 1.46-1.426 1.46-2.826 0-1.192-.348-2.047-1.008-2.592-.695-.518-1.84-.83-3.438-.881l-2.43-.078-1.945-.077c-1.042-.026-1.702-.156-1.98-.415-.278-.26-.417-.804-.417-1.66 0-.88.451-1.425 1.354-1.632.348-.078 1.32-.13 2.883-.13 1.84 0 2.986.104 3.438.311.417.208.66.726.694 1.607h2.362v-.336c0-1.141-.452-1.945-1.355-2.36-.902-.414-2.604-.648-5.07-.648zm23.064 0c-2.605 0-4.376.441-5.314 1.322-.972.882-1.423 2.515-1.423 4.9 0 2.54.451 4.198 1.389 5.028.937.83 2.882 1.218 5.8 1.218 2.5 0 4.236-.285 5.278-.855 1.007-.57 1.528-1.581 1.528-3.033v-.674h-2.361v.312c0 1.14-.278 1.866-.8 2.229-.52.363-1.631.518-3.298.518-2.223 0-3.612-.26-4.203-.803-.59-.545-.868-1.815-.868-3.837 0-2.074.244-3.395.764-3.966.521-.57 1.737-.855 3.681-.855 1.737 0 2.883.155 3.508.466.625.311.938.933.938 1.815v.337h2.361c-.035-1.607-.52-2.696-1.493-3.266-.973-.57-2.779-.856-5.487-.856zm42.775 0c-2.986 0-4.93.39-5.834 1.167-.903.777-1.32 2.462-1.32 5.054 0 2.618.417 4.303 1.32 5.081.903.778 2.848 1.166 5.834 1.166 3.056 0 5.001-.388 5.87-1.192.868-.777 1.32-2.566 1.32-5.365 0-2.411-.487-3.992-1.39-4.77-.938-.752-2.882-1.14-5.8-1.14zm17.568 0c-2.987 0-4.932.39-5.834 1.167-.903.777-1.32 2.462-1.32 5.054 0 2.618.417 4.303 1.32 5.081.902.778 2.847 1.166 5.834 1.166 3.056 0 5-.388 5.869-1.192.868-.777 1.32-2.566 1.32-5.365 0-2.411-.487-3.992-1.39-4.77-.937-.752-2.882-1.14-5.8-1.14zm32.17 0c-2.709 0-4.48.234-5.383.7-.903.467-1.32 1.4-1.32 2.8 0 1.426.522 2.359 1.633 2.773 1.077.415 3.473.648 7.223.674.903 0 1.528.13 1.84.389.313.26.487.778.487 1.53 0 .88-.313 1.45-.938 1.736-.625.31-1.84.44-3.716.44-1.736 0-2.882-.129-3.438-.388-.555-.26-.833-.803-.833-1.633 0-.026 0-.104.035-.26v-.336h-2.432c-.034.181-.034.414-.034.7 0 1.27.486 2.151 1.493 2.618.973.492 2.778.725 5.383.725 2.64 0 4.48-.233 5.452-.751.973-.493 1.459-1.426 1.459-2.826 0-1.192-.347-2.047-1.007-2.592-.695-.518-1.84-.83-3.438-.881l-2.431-.078-1.945-.077c-1.042-.026-1.701-.156-1.98-.415-.277-.26-.416-.804-.416-1.66 0-.88.451-1.425 1.354-1.632.347-.078 1.32-.13 2.883-.13 1.84 0 2.986.104 3.438.311.416.208.66.726.694 1.607h2.362v-.336c0-1.141-.452-1.945-1.355-2.36-.902-.414-2.604-.648-5.07-.648zm46.738 0c-2.709 0-4.515.441-5.418 1.27-.902.856-1.354 2.515-1.354 4.978 0 2.54.451 4.198 1.389 5.002.938.83 2.883 1.218 5.8 1.218 2.57 0 4.41-.233 5.452-.726 1.042-.492 1.563-1.347 1.563-2.591 0-.208-.035-.39-.035-.519h-2.431v.39c0 .829-.278 1.347-.833 1.58-.556.26-1.806.363-3.716.363-2.05 0-3.334-.233-3.855-.752-.555-.518-.833-1.736-.833-3.654h11.668v-.934c0-2.332-.486-3.862-1.389-4.562-.938-.7-2.952-1.063-6.008-1.063zm41.307 0c-2.71 0-4.515.441-5.418 1.27-.902.856-1.354 2.515-1.354 4.978 0 2.54.451 4.198 1.39 5.002.937.83 2.882 1.218 5.799 1.218 2.57 0 4.41-.233 5.452-.726 1.041-.492 1.562-1.347 1.562-2.591 0-.208-.034-.39-.034-.519h-2.431v.39c0 .829-.278 1.347-.834 1.58-.555.26-1.805.363-3.715.363-2.05 0-3.334-.233-3.855-.752-.556-.518-.834-1.736-.834-3.654h11.669v-.934c0-2.332-.486-3.862-1.39-4.562-.937-.7-2.951-1.063-6.007-1.063zm-227.37.182v8.061c0 1.504.417 2.567 1.32 3.24.868.674 2.292.985 4.272.985 2.778 0 4.549-.596 5.382-1.814l.07.052-.174 1.581h2.361V77.505h-2.361v6.947c0 1.503-.382 2.514-1.077 3.033-.694.544-2.014.803-3.924.803-1.39 0-2.292-.182-2.778-.545-.486-.362-.73-1.088-.73-2.177v-8.061zm34.05 0V89.61h2.36V77.505zm152.464 1.244c1.876 0 3.126.207 3.682.57.555.389.833 1.244.833 2.592v.597h-9.203v-.286c0-1.4.278-2.332.903-2.799.625-.44 1.875-.674 3.785-.674zm41.307 0c1.876 0 3.126.207 3.681.57.556.389.834 1.244.834 2.592v.597h-9.203v-.286c0-1.4.278-2.332.903-2.799.625-.44 1.875-.674 3.785-.674zm-138.234.078c2.084 0 3.404.26 3.925.752.52.518.799 1.762.799 3.732 0 2.281-.243 3.681-.73 4.2-.486.518-1.84.777-3.994.777-2.118 0-3.438-.233-3.924-.752-.52-.518-.764-1.84-.764-3.992 0-2.125.243-3.447.73-3.965.486-.493 1.805-.752 3.958-.752zm17.568 0c2.083 0 3.403.26 3.924.752.521.518.799 1.762.799 3.732 0 2.281-.243 3.681-.73 4.2-.486.518-1.84.777-3.993.777-2.119 0-3.438-.233-3.924-.752-.521-.518-.764-1.84-.764-3.992 0-2.125.243-3.447.729-3.965.486-.493 1.806-.752 3.959-.752zm53.863 2.8h6.737c2.709 0 4.34.18 4.966.518.625.363.938 1.296.938 2.8 0 1.243-.313 2.021-.903 2.384-.59.363-1.876.57-3.855.57l-7.883.026z" style="line-height:1.25;-inkscape-font-specification:MicroSquare" font-weight="400" font-size="30.003" font-family="MicroSquare" letter-spacing="0" word-spacing="0" stroke-width=".25"/></svg>