<svg xmlns="http://www.w3.org/2000/svg" width="298.28" height="112.132" viewBox="0 0 78.921 29.668"><path style="line-height:1.25" d="M.522 1.921v.632h.22c.194 0 .374.011.547.035a1.2 1.2 0 0 1 .457.14.78.78 0 0 1 .305.317 1.025 1.025 0 0 1 .119.527v7.363a1.243 1.243 0 0 1-.11.568.812.812 0 0 1-.305.326 1.307 1.307 0 0 1-.46.149 3.658 3.658 0 0 1-.553.036h-.22v.633h4.363v-.633h-.227a3.77 3.77 0 0 1-.554-.036 1.313 1.313 0 0 1-.457-.149.89.89 0 0 1-.306-.326 1.237 1.237 0 0 1-.11-.568V3.99l6.523 8.656h1.24V3.631c0-.236.037-.423.109-.567a.76.76 0 0 1 .304-.32 1.2 1.2 0 0 1 .453-.154c.174-.026.361-.038.56-.038h.223v-.63H8.275v.631h.23c.193 0 .374.011.544.035.175.02.327.066.458.14a.777.777 0 0 1 .306.317c.078.13.12.307.12.527v6.652L3.709 1.92zm35.788 0v.632h.221c.192 0 .37.012.543.036.174.02.327.065.458.14a.756.756 0 0 1 .306.316c.08.13.123.307.123.527v7.362a1.235 1.235 0 0 1-.111.568.807.807 0 0 1-.306.326 1.307 1.307 0 0 1-.46.148 3.682 3.682 0 0 1-.553.037h-.221v.633h5.333a7.482 7.482 0 0 0 2.482-.374c.71-.255 1.299-.613 1.768-1.078a4.472 4.472 0 0 0 1.064-1.695c.24-.665.357-1.408.357-2.23 0-.85-.129-1.61-.384-2.275a4.424 4.424 0 0 0-1.111-1.68 4.73 4.73 0 0 0-1.78-1.03 7.423 7.423 0 0 0-2.4-.363zm3.41.748h1.53c1.378 0 2.41.392 3.097 1.18.69.785 1.04 1.928 1.04 3.418 0 .744-.088 1.401-.264 1.975a3.765 3.765 0 0 1-.778 1.445 3.338 3.338 0 0 1-1.3.894 4.996 4.996 0 0 1-1.81.3H39.72zm-25.987.643v.001a1.025 1.025 0 0 0-.274.04.517.517 0 0 0-.224.125.606.606 0 0 0-.152.233 1.036 1.036 0 0 0-.052.36c0 .142.017.263.054.359a.6.6 0 0 0 .374.366.908.908 0 0 0 .274.037.91.91 0 0 0 .27-.037.602.602 0 0 0 .368-.366.94.94 0 0 0 .059-.358.936.936 0 0 0-.061-.36.604.604 0 0 0-.15-.234.502.502 0 0 0-.215-.125.91.91 0 0 0-.27-.04zm35.976 0l-.002.001a1.023 1.023 0 0 0-.275.04.517.517 0 0 0-.222.125.6.6 0 0 0-.149.233 1.003 1.003 0 0 0-.055.36c0 .142.016.263.055.359a.614.614 0 0 0 .15.233.61.61 0 0 0 .221.133.921.921 0 0 0 .275.037.912.912 0 0 0 .27-.037.596.596 0 0 0 .368-.366.938.938 0 0 0 .06-.358.96.96 0 0 0-.06-.36.613.613 0 0 0-.15-.234.508.508 0 0 0-.216-.125.91.91 0 0 0-.27-.04zm-31.025 2.63l.003.001c-.39 0-.75.056-1.086.167a2.072 2.072 0 0 0-.87.57c-.242.268-.435.622-.575 1.067a5.637 5.637 0 0 0-.204 1.64c0 .605.069 1.122.204 1.55.142.423.333.77.582 1.043.248.27.545.471.887.597.345.125.72.187 1.128.187.347 0 .65-.033.91-.107a2.225 2.225 0 0 0 .648-.27 1.265 1.265 0 0 0 .395-.378.781.781 0 0 0 .13-.42.637.637 0 0 0-.057-.287.565.565 0 0 0-.15-.193 1.606 1.606 0 0 1-.633.617 2 2 0 0 1-.998.24c-.66 0-1.135-.213-1.427-.64-.286-.429-.432-1.078-.432-1.948 0-.548.036-1.005.11-1.367.07-.364.175-.653.31-.871a1.17 1.17 0 0 1 .485-.455 1.523 1.523 0 0 1 .643-.13c.207 0 .38.036.51.113a.785.785 0 0 1 .319.306 1.287 1.287 0 0 1 .168.45c.03.173.048.352.048.544.362 0 .636-.057.82-.175.182-.115.275-.314.275-.597a.846.846 0 0 0-.19-.552 1.494 1.494 0 0 0-.5-.396 2.54 2.54 0 0 0-.69-.228 3.739 3.739 0 0 0-.763-.078zm6.15 0l.001.001c-.872 0-1.544.288-2.015.87-.472.577-.707 1.44-.707 2.586 0 .532.066 1.007.193 1.428.13.415.317.77.562 1.058a2.4 2.4 0 0 0 .894.655c.356.148.755.224 1.2.224v.002c.362 0 .677-.043.947-.12a2.487 2.487 0 0 0 .677-.302 1.335 1.335 0 0 0 .4-.388.783.783 0 0 0 .131-.402.462.462 0 0 0-.076-.27.373.373 0 0 0-.155-.152 1.614 1.614 0 0 1-.283.325 2.203 2.203 0 0 1-1.474.533 1.95 1.95 0 0 1-.775-.143 1.433 1.433 0 0 1-.567-.46 2.339 2.339 0 0 1-.354-.794 5.26 5.26 0 0 1-.133-1.156h4.088v-.564c0-.484-.06-.906-.18-1.271a2.439 2.439 0 0 0-.5-.917 2.068 2.068 0 0 0-.808-.558 2.901 2.901 0 0 0-1.066-.185zm30.307 0v.001c-.386 0-.747.056-1.083.167a2.072 2.072 0 0 0-.869.57 2.814 2.814 0 0 0-.576 1.067 5.63 5.63 0 0 0-.204 1.64c0 .605.07 1.122.204 1.55.14.423.334.77.58 1.043.25.27.545.471.888.597.344.125.72.187 1.128.187.35 0 .65-.033.91-.107a2.147 2.147 0 0 0 .647-.27 1.243 1.243 0 0 0 .395-.378.785.785 0 0 0 .134-.42.61.61 0 0 0-.06-.287.567.567 0 0 0-.153-.193 1.603 1.603 0 0 1-.632.617 1.992 1.992 0 0 1-.997.24c-.659 0-1.133-.213-1.426-.64-.288-.429-.43-1.078-.43-1.948 0-.548.033-1.005.107-1.367.072-.364.175-.653.312-.871a1.17 1.17 0 0 1 .484-.455 1.523 1.523 0 0 1 .641-.13 1.003 1.003 0 0 1 .51.113.781.781 0 0 1 .32.306 1.296 1.296 0 0 1 .166.45c.035.173.048.352.048.544.364 0 .638-.057.821-.175.186-.115.277-.314.277-.597a.846.846 0 0 0-.191-.552 1.492 1.492 0 0 0-.498-.396 2.541 2.541 0 0 0-.692-.228 3.739 3.739 0 0 0-.76-.078zm5.702 0v.001c-.872 0-1.542.288-2.013.87-.47.577-.706 1.44-.706 2.586 0 .532.065 1.007.191 1.428.131.415.32.77.564 1.058.244.288.54.505.895.655a3.08 3.08 0 0 0 1.198.224v.002c.362 0 .677-.043.946-.12a2.487 2.487 0 0 0 .676-.302 1.335 1.335 0 0 0 .404-.388.783.783 0 0 0 .13-.402.462.462 0 0 0-.079-.27.373.373 0 0 0-.153-.152 1.58 1.58 0 0 1-.283.325 2.203 2.203 0 0 1-1.475.533 1.941 1.941 0 0 1-.772-.143 1.44 1.44 0 0 1-.57-.46 2.343 2.343 0 0 1-.355-.794 5.22 5.22 0 0 1-.13-1.156h4.087v-.564a4.07 4.07 0 0 0-.18-1.271 2.439 2.439 0 0 0-.502-.917 2.068 2.068 0 0 0-.806-.558 2.901 2.901 0 0 0-1.067-.185zm-28.764.001a1.802 1.802 0 0 0-.674.107 1.27 1.27 0 0 0-.458.289 1.68 1.68 0 0 0-.305.425 7.866 7.866 0 0 0-.245.515h-.06l-.234-1.217h-1.89v.516h.038c.135 0 .264.007.384.03a.8.8 0 0 1 .325.12.604.604 0 0 1 .216.26.938.938 0 0 1 .082.428v3.833a1.093 1.093 0 0 1-.082.46.64.64 0 0 1-.218.27.766.766 0 0 1-.317.12 2.698 2.698 0 0 1-.39.031h-.038v.517h3.543l.002-.52h-.34a3.23 3.23 0 0 1-.39-.02.84.84 0 0 1-.32-.117.602.602 0 0 1-.22-.243 1.045 1.045 0 0 1-.077-.437V9.378a6.416 6.416 0 0 1 .097-1.095 4.886 4.886 0 0 1 .153-.572 2.4 2.4 0 0 1 .228-.485 1.185 1.185 0 0 1 .315-.342.674.674 0 0 1 .409-.13c.24 0 .407.075.501.226.098.148.147.393.147.73a1.974 1.974 0 0 0 .527-.058 1.01 1.01 0 0 0 .353-.179.687.687 0 0 0 .197-.283.916.916 0 0 0 .065-.354.764.764 0 0 0-.326-.66c-.219-.155-.55-.233-.996-.233zm35.932 0a1.802 1.802 0 0 0-.676.107 1.27 1.27 0 0 0-.455.289 1.68 1.68 0 0 0-.306.425 7.866 7.866 0 0 0-.247.515h-.06l-.234-1.217h-1.887v.516h.038c.137 0 .262.007.384.03a.8.8 0 0 1 .323.12.604.604 0 0 1 .216.26.938.938 0 0 1 .082.429v3.832a1.093 1.093 0 0 1-.082.46.637.637 0 0 1-.218.27.766.766 0 0 1-.318.12 2.672 2.672 0 0 1-.387.031h-.038v.517h3.543v-.52h-.339a3.229 3.229 0 0 1-.392-.02.84.84 0 0 1-.317-.117.602.602 0 0 1-.222-.243 1.045 1.045 0 0 1-.078-.437V9.378a6.416 6.416 0 0 1 .103-1.095 5.1 5.1 0 0 1 .147-.572 2.56 2.56 0 0 1 .228-.485 1.185 1.185 0 0 1 .319-.342.674.674 0 0 1 .407-.13c.24 0 .408.075.502.226.098.148.145.393.145.73a1.959 1.959 0 0 0 .526-.058 1.01 1.01 0 0 0 .356-.179.687.687 0 0 0 .196-.283.916.916 0 0 0 .066-.354.764.764 0 0 0-.33-.66c-.215-.156-.547-.233-.995-.233zm-53.653.119l-2.193.002v.517h.035a2.138 2.138 0 0 1 .382.027.803.803 0 0 1 .323.123.604.604 0 0 1 .218.258.938.938 0 0 1 .082.43v3.891a.973.973 0 0 1-.084.437.574.574 0 0 1-.216.247.875.875 0 0 1-.323.114 3.07 3.07 0 0 1-.382.022l-.164.003v.516h3.49v-.518h-.163a2.133 2.133 0 0 1-.39-.03.785.785 0 0 1-.323-.12.702.702 0 0 1-.216-.27 1.143 1.143 0 0 1-.076-.46zm35.974 0l-2.196.002v.517h.039c.137 0 .26.006.384.027a.81.81 0 0 1 .325.123.604.604 0 0 1 .213.258.938.938 0 0 1 .084.43v3.891a.997.997 0 0 1-.084.437.572.572 0 0 1-.213.247.883.883 0 0 1-.328.114 2.968 2.968 0 0 1-.381.022l-.163.003v.516h3.489v-.519h-.162a2.133 2.133 0 0 1-.39-.03.785.785 0 0 1-.323-.12.702.702 0 0 1-.218-.27 1.139 1.139 0 0 1-.076-.46zm-25.576.537a1.193 1.193 0 0 1 .053.002h.002a1.156 1.156 0 0 1 .623.157 1.143 1.143 0 0 1 .414.445c.105.192.182.42.23.686.048.268.07.565.07.888h-2.823c.044-.71.188-1.25.432-1.618a1.193 1.193 0 0 1 .999-.56zm36.013 0a1.198 1.198 0 0 1 .054.002c.246 0 .454.054.622.157a1.139 1.139 0 0 1 .413.445c.104.192.18.42.228.686.048.268.071.565.071.888h-2.823c.043-.71.188-1.25.432-1.618a1.198 1.198 0 0 1 1.003-.56z" font-weight="400" font-size="4.057" font-family="sans-serif" letter-spacing="0" word-spacing="0" fill="#4a4a48" stroke="#4a4a4a" stroke-width=".397"/><path d="M25.321 23.133c-3.307-.226-9.402-.929-12.236-1.41-5.09-.868-13.3-2.988-12.945-3.343.078-.078 1.43.16 3.004.53 9.256 2.168 21.906 3.296 32.694 2.916l4.961-.176v1.668l-7.077-.047c-3.893-.027-7.673-.089-8.4-.138zm39.947-3.125l1.68-3.484s.304-.193 2.182-1.17c2.446-1.273 4.54-3.34 5.027-4.96.594-1.986-.453-4.038-3.063-6-1.324-.997-5.21-2.947-7.077-3.55-.546-.177-.992-.427-.992-.557 0-.13.148-.19.33-.133 4.078 1.272 6.824 2.26 8.533 3.07 5.28 2.502 7.563 5.387 6.736 8.515-.433 1.637-2.955 4.007-5.677 5.336-3.09 1.508-7.679 2.933-7.679 2.933z" fill="#4a4a48" stroke="#4a4a4a" stroke-width=".265"/><path d="M38.392 17.29v2.534h4.974v9.844h3.656v-9.844h5.985l-1.363-2.534zm26.926 0l-4.438 1.38-4.357 7.688-2.92-5.426h-3.656l4.7 8.736h3.657z" fill="#85bb24"/></svg>