<?xml version="1.0" encoding="UTF-8"?>
<svg width="800" height="275.95" version="1.1" xmlns="http://www.w3.org/2000/svg">
	<defs>
		<filter id="filter1143" x="-.018731" y="-.033394" width="1.0375" height="1.0668" color-interpolation-filters="sRGB">
			<feGaussianBlur stdDeviation="3.1958112"/>
		</filter>
	</defs>
	<path d="m152.6 156.51c-3.0916 5.7032-7.5482 10.277-13.37 13.725-5.8286 3.4461-12.187 5.1669-19.08 5.1669-10.215 0-18.955-3.6211-26.204-10.87-7.249-7.249-10.87-15.989-10.87-26.204 0-10.222 3.6211-19.017 10.87-26.384 7.249-7.3676 15.989-11.051 26.204-11.051a35.014 35.014 0 0 1 19.08 5.5226c5.8218 3.6832 10.278 8.2585 13.37 13.725l28.878-16.4c-5.9472-10.696-14.381-19.309-25.313-25.848-10.94-6.5309-22.937-9.8043-36.017-9.8043-9.505 0-18.537 1.845-27.096 5.5282-8.5588 3.6832-15.981 8.6763-22.283 14.972-6.2949 6.3017-11.288 13.725-14.971 22.283-3.6832 8.5588-5.5294 17.708-5.5294 27.457 0 9.741 1.845 18.892 5.5294 27.45 3.6844 8.5588 8.6763 15.981 14.971 22.283 6.3017 6.3017 13.725 11.287 22.283 14.971 8.5588 3.6844 17.59 5.5294 27.096 5.5294 12.841 0 24.782-3.3287 35.832-9.9861 11.051-6.6495 19.546-15.208 25.494-25.667zm105.53-18.89c0 19.017-3.6279 36.963-10.877 53.842-7.249 16.872-17.053 31.551-29.414 44.028s-26.976 22.339-43.848 29.589c-16.879 7.2479-34.824 10.876-53.84 10.876-25.667 0-49.142-6.5388-70.414-19.609-21.272-13.07-37.845-30.187-49.734-51.343l28.878-15.689c8.7948 15.689 21.391 28.404 37.792 38.155 16.406 9.7422 34.233 14.617 53.479 14.617 14.261 0 27.813-2.737 40.644-8.2032 12.831-5.4661 23.948-12.889 33.334-22.282 9.3933-9.3876 16.879-20.437 22.464-33.154 5.5847-12.716 8.377-26.321 8.377-40.825v0.717c0-14.505-2.7924-28.112-8.377-40.825-5.5847-12.713-13.071-23.766-22.464-33.154-9.3876-9.3933-20.501-16.817-33.334-22.283-12.834-5.4661-26.384-8.2032-40.644-8.2032-19.247 0-37.073 4.8745-53.479 14.617-16.398 9.7489-28.996 22.464-37.792 38.153l-28.878-15.688c11.886-21.155 28.46-38.271 49.734-51.343 21.274-13.072 44.748-19.61 70.414-19.61 19.017 0 36.963 3.6279 53.84 10.877 16.877 7.249 31.489 17.11 43.848 29.588 12.358 12.478 22.165 27.157 29.414 44.028 7.249 16.879 10.877 34.825 10.877 53.84z" fill="#fdc600"/>
	<path d="m324.41 19.257c-4.5188 0-8.7315 0.65644-12.659 1.9584-3.9204 1.3087-7.3034 3.0362-10.158 5.1737-4.512 4.0389-8.0219 9.3865-10.515 16.044-2.4999 6.6562-3.7447 14.97-3.7447 24.956v12.835c0 10.222 1.2459 18.779 3.7447 25.665 2.4931 6.8945 6.0019 12.125 10.515 15.689 2.8544 2.3814 6.2407 4.219 10.16 5.5288 3.9271 1.3087 8.1398 1.9561 12.659 1.9561 7.8407 0 14.679-1.8368 20.501-5.52s10.277-9.33 13.369-16.935l-18.897-8.2038c-1.6643 4.0389-3.8014 6.8935-6.4131 8.5567a15.627 15.627 0 0 1-8.559 2.4943c-2.1374 0-4.1009-0.41045-5.8838-1.246-1.7829-0.82878-3.2658-2.0759-4.457-3.7402-1.6643-1.9003-2.9648-4.7549-3.9189-8.5567s-1.4269-9.0314-1.4269-15.689v-12.125c0-6.6562 0.47274-11.941 1.4269-15.861 0.95412-3.9204 2.2545-6.8383 3.9189-8.7397h-2e-3c1.1912-1.4204 2.6741-2.4941 4.457-3.2044 1.7829-0.717 3.7452-1.0718 5.8838-1.0718 2.8556 0 5.6468 0.77315 8.3759 2.3178 2.737 1.5458 4.9307 4.5762 6.5962 9.0882l18.897-8.5523c-3.0916-8.0846-7.666-13.905-13.723-17.471-6.0646-3.5647-12.778-5.3479-20.146-5.3479zm80.927 0.0023c-4.9851 0-9.3238 0.65424-13.008 1.9561-3.6832 1.3087-7.0729 3.0374-10.164 5.1759-4.512 4.0389-8.0774 9.3854-10.696 16.042-2.6117 6.6562-3.921 14.971-3.921 24.956v12.835c0 10.222 1.3105 18.781 3.921 25.667 2.6185 6.8945 6.1838 12.122 10.696 15.687a36.674 36.674 0 0 0 10.164 5.531c3.6844 1.3087 8.0219 1.9561 13.008 1.9561 4.5199 0 8.6204-0.64747 12.303-1.9561a36.652 36.652 0 0 0 10.162-5.531c4.7559-3.5647 8.3213-8.7921 10.696-15.687 2.3746-6.8866 3.5638-15.328 3.5638-25.313v-13.191c0-9.9849-1.1892-18.3-3.5638-24.956s-5.9399-12.003-10.696-16.042c-3.0916-2.1374-6.4778-3.8673-10.162-5.1759-3.6844-1.3087-7.7837-1.9561-12.303-1.9561zm312.32 1.4026 29.943 55.261v51.336h21.391v-51.336l29.945-55.261h-23.171l-17.826 33.508-17.111-33.508zm-251.71 0.0044-12.478 106.6h19.973l6.4065-58.113 16.051 58.113h17.469l15.693-58.113 6.7726 58.113h19.607l-12.12-106.6h-19.968l-18.54 67.017-18.543-67.017zm106.25 0.01323v106.59h56.334v-19.607h-35.301v-24.598h31.021v-20.322h-31.021v-22.104h35.301v-19.963zm74.532 0v106.59h34.226c5.4661 0 10.514-1.0669 15.151-3.2044 4.6385-2.1454 8.4964-5.11 11.587-8.9118 3.0916-3.8086 5.5278-8.6199 7.3107-14.44 1.7829-5.8207 2.6729-12.063 2.6729-18.719v-19.253c0-5.9392-0.8911-11.524-2.6729-16.754-1.7818-5.2301-4.218-9.75-7.3107-13.552-3.0927-3.8018-6.9495-6.7109-11.587-8.7309-4.6374-2.02-9.6857-3.0301-15.151-3.0301zm-241.4 18.545c2.1454 0 4.0475 0.3548 5.7118 1.0718 1.6632 0.71022 3.0849 1.7839 4.2761 3.2044 1.6643 1.9015 2.9727 4.8172 3.9189 8.7376 0.9541 3.9204 1.4269 9.2056 1.4269 15.863v12.122c0 6.6574-0.47273 11.889-1.4269 15.69-0.94621 3.8018-2.2545 6.6564-3.9189 8.5567-1.1912 1.6643-2.6741 2.9115-4.457 3.7402-1.7829 0.83555-3.6306 1.246-5.5309 1.246-2.3746 0-4.5106-0.41159-6.4109-1.246a10.998 10.998 0 0 1-4.6401-3.7402c-1.6644-1.9003-2.9659-4.756-3.9189-8.5567s-1.4269-9.0314-1.4269-15.689v-12.125c0-6.6562 0.47273-11.942 1.4269-15.863s2.2557-6.8361 3.9189-8.7376c1.1912-1.4204 2.7386-2.4919 4.6401-3.2021 1.9003-0.717 4.0363-1.0718 6.4109-1.0718zm262.78 1.4181h10.341c3.0848 0 5.7014 0.47494 7.84 1.429 2.1374 0.94734 3.9196 2.3747 5.3479 4.2761 1.6644 2.1374 2.8558 4.6372 3.566 7.4849 0.71023 2.8556 1.074 6.066 1.074 9.6307v17.109c0 4.5188-0.36265 8.4936-1.074 11.939-0.71135 3.4461-1.9017 6.3584-3.566 8.7397-1.4272 1.9003-3.2105 3.4479-5.3479 4.6312-2.1386 1.1912-4.7552 1.7819-7.84 1.7819h-10.341zm-343.72 106.6c-4.5188 0-8.7315 0.70975-12.659 2.137-3.9204 1.4272-7.3034 3.3285-10.158 5.703-4.512 3.8018-8.0219 9.0325-10.515 15.689-2.4999 6.6574-3.7447 14.972-3.7447 24.957v13.188c0 10.222 1.2459 18.662 3.7447 25.313 2.4931 6.6574 6.0019 11.885 10.515 15.687 2.8544 2.3813 6.2407 4.1634 10.16 5.3479 3.9271 1.1912 8.1398 1.7819 12.659 1.7819 7.8407 0 14.679-1.8389 20.501-5.5221s10.277-9.211 13.369-16.578l-18.897-8.5589c-1.6643 4.276-3.8014 7.1317-6.4131 8.5589-2.6185 1.4272-5.4674 2.137-8.5589 2.137-2.1374 0-4.1009-0.29929-5.8838-0.89095-1.7829-0.59167-3.2658-1.7197-4.457-3.3851-1.6643-1.6632-2.9648-4.4565-3.9189-8.3847-0.95412-3.9204-1.4269-9.2046-1.4269-15.861v-11.768c0-7.1305 0.47275-12.597 1.4269-16.398 0.95412-3.8018 2.2545-6.5329 3.9189-8.1973h-2e-3c1.1912-1.6632 2.6741-2.7912 4.457-3.3897 1.7829-0.59166 3.7452-0.89095 5.8838-0.89095 2.8556 0 5.6468 0.71652 8.3759 2.137 2.737 1.4272 4.9307 4.2807 6.5962 8.5567l18.897-7.84c-3.0916-8.0846-7.666-14.023-13.723-17.826-6.0646-3.8018-12.778-5.703-20.146-5.703zm192.88 1.7643v19.968h19.965v86.628h21.032v-86.628h19.968v-19.968zm106.25 9e-3 -33.872 2e-3v106.59h21.391v-33.869h9.2668l14.262 33.869h21.037l-14.979-38.146c4.5199-3.0916 8.202-7.311 11.058-12.659 2.8477-5.3476 4.2761-11.471 4.2761-18.357v-2.4987c0-9.9782-3.0303-18.3-9.0948-24.956-6.0578-6.6574-13.841-9.9813-23.346-9.9813zm-253.84 7e-3v106.59h54.194v-19.609h-32.802v-24.589h27.814v-19.973h-27.814v-22.457h32.802v-19.968zm69.881 0v106.59h19.251v-61.672l28.879 61.672h18.89v-106.59h-19.607v62.398l-28.879-62.398zm308.03 0v106.59h52.41v-19.607h-31.018l-2e-3 -86.987zm-55.647 0.34623-30.658 106.24h22.102l3.211-13.543h28.522l2.8559 13.543h22.457l-31.016-106.24zm-80.896 19.614h10.341c3.8018 0 7.0102 1.2461 9.6219 3.738 2.6117 2.4999 3.9211 6.3578 3.9211 11.587v0.71894c0 5.9392-1.3106 10.221-3.9211 12.833-2.6106 2.6117-5.8201 3.9189-9.6219 3.9189h-10.341zm89.81 9.2624c0 1.4272 0.29928 3.5664 0.89095 6.422l1.6077 7.84 7.1321 31.014h-19.61l7.4849-31.014 1.6011-7.84c0.59955-2.8556 0.89315-4.9936 0.89315-6.422z" fill="#0d0d0d"/>
	<path d="m476.38 79.733c2.8893-5.6974 3.5914-12.475 1.4383-18.994-2.1583-6.5358-6.7565-11.562-12.467-14.401-5.5343-2.7668-12.101-3.5035-18.465-1.5804l-1.2268 0.40516c-6.2576 2.2429-11.096 6.7445-13.893 12.266-2.8943 5.6794-3.614 12.462-1.4557 18.998 2.153 6.5198 6.7685 11.541 12.484 14.396l6.9618 3.4816c11.632 5.8311 13.011 7.9267 7.4226 18.947l-3.2053 6.3185c-2.6162 5.1948-3.2693 11.357-1.308 17.296l25.227 76.393 43.18-14.26-25.227-76.393c-1.9613-5.939-6.1357-10.508-11.331-13.122l-6.3329-3.1505c-11.054-5.527-11.197-8.0483-5.3261-19.659zm-97.142 47.569c-15.388 5.0617-27.42 16.024-34.15 29.431-6.7686 13.358-8.4231 29.534-3.3273 44.904l16.85 51.026 42.449-14.018-16.567-50.166c-2-6.1199-2.2683-11.818-1.1232-16.689 1.1854-4.8143 3.6319-8.2491 7.4156-9.5158 3.7945-1.236 7.8066 0.0661 11.626 3.2275 3.8182 3.232 6.9972 7.969 9.0362 14.076l16.567 50.166 42.466-14.024-16.85-51.026a58.734 58.734 0 0 0-29.433-34.086c-13.392-6.7631-29.583-8.4066-44.959-3.3066zm201.74 14.541c-0.97716 5.4244-3.3093 9.2362-7.064 10.496-3.7845 1.2283-7.9308-0.44216-11.944-4.2186-3.9946-3.8488-7.4584-9.3999-9.7913-16.464-2.3329-7.0645-2.8494-13.565-1.9387-19.055 0.97429-5.4258 3.3087-9.2365 7.0828-10.502 3.7668-1.223 7.9091 0.44696 11.925 4.2248 2.9709 2.8635 5.6278 6.6577 7.7583 11.304l42.402-14.002c-5.6336-12.877-15.555-22.97-27.386-28.922-13.364-6.7672-29.528-8.3958-44.849-3.3362-15.338 5.0652-27.356 15.999-34.041 29.389-6.7532 13.368-8.3922 29.536-3.3023 44.884 5.0515 15.361 15.996 27.374 29.383 34.092 10.28 5.1852 26.57 9.3734 44.848 3.3368 13.719-4.5303 24.765-13.781 31.75-25.261 5.087-8.3573 11.597-23.9 7.068-43.671l-42.402 14.002c1.0569 5.0034 1.1814 9.6335 0.50076 13.705zm166.89-26.541c-0.46619-1.4116-1.3305-2.5909-2.3902-3.4785l-34.829-27.374 6.4833-34.452c2.6318-12.033-5.017-23.911-17.072-26.51-12.061-2.5997-23.981 5.0491-26.602 17.101l-7.9095 40.603-7.5446-22.846c-3.8582-11.683-16.488-18.018-28.208-14.147-11.72 3.8707-18.108 16.484-14.25 28.167l28.243 85.523 42.459-14.022-11.058-33.487 33.452 26.075 34.277-11.341c4.0833-1.3527 6.2973-5.7387 4.952-9.8125z" fill="#fff" filter="url(#filter1143)"/>
	<path d="m476.38 79.733c2.8893-5.6974 3.5914-12.475 1.4383-18.994-2.1583-6.5358-6.7565-11.562-12.467-14.401-5.5343-2.7668-12.101-3.5035-18.465-1.5804l-1.2268 0.40516c-6.2576 2.2429-11.096 6.7445-13.893 12.266-2.8943 5.6794-3.614 12.462-1.4557 18.998 2.153 6.5198 6.7685 11.541 12.484 14.396l6.9618 3.4816c11.632 5.8311 13.011 7.9267 7.4226 18.947l-3.2053 6.3185c-2.6162 5.1948-3.2693 11.357-1.308 17.296l25.227 76.393 43.18-14.26-25.227-76.393c-1.9613-5.939-6.1357-10.508-11.331-13.122l-6.3329-3.1505c-11.054-5.527-11.197-8.0483-5.3261-19.659zm-97.142 47.569c-15.388 5.0617-27.42 16.024-34.15 29.431-6.7686 13.358-8.4231 29.534-3.3273 44.904l16.85 51.026 42.449-14.018-16.567-50.166c-2-6.1199-2.2683-11.818-1.1232-16.689 1.1854-4.8143 3.6319-8.2491 7.4156-9.5158 3.7945-1.236 7.8066 0.0661 11.626 3.2275 3.8182 3.232 6.9972 7.969 9.0362 14.076l16.567 50.166 42.466-14.024-16.85-51.026a58.734 58.734 0 0 0-29.433-34.086c-13.392-6.7631-29.583-8.4066-44.959-3.3066zm201.74 14.541c-0.97716 5.4244-3.3093 9.2362-7.064 10.496-3.7845 1.2283-7.9308-0.44216-11.944-4.2186-3.9946-3.8488-7.4584-9.3999-9.7913-16.464-2.3329-7.0645-2.8494-13.565-1.9387-19.055 0.97429-5.4258 3.3087-9.2365 7.0828-10.502 3.7668-1.223 7.9091 0.44696 11.925 4.2248 2.9709 2.8635 5.6278 6.6577 7.7583 11.304l42.402-14.002c-5.6336-12.877-15.555-22.97-27.386-28.922-13.364-6.7672-29.528-8.3958-44.849-3.3362-15.338 5.0652-27.356 15.999-34.041 29.389-6.7532 13.368-8.3922 29.536-3.3023 44.884 5.0515 15.361 15.996 27.374 29.383 34.092 10.28 5.1852 26.57 9.3734 44.848 3.3368 13.719-4.5303 24.765-13.781 31.75-25.261 5.087-8.3573 11.597-23.9 7.068-43.671l-42.402 14.002c1.0569 5.0034 1.1814 9.6335 0.50076 13.705zm166.89-26.541c-0.46619-1.4116-1.3305-2.5909-2.3902-3.4785l-34.829-27.374 6.4833-34.452c2.6318-12.033-5.017-23.911-17.072-26.51-12.061-2.5997-23.981 5.0491-26.602 17.101l-7.9095 40.603-7.5446-22.846c-3.8582-11.683-16.488-18.018-28.208-14.147-11.72 3.8707-18.108 16.484-14.25 28.167l28.243 85.523 42.459-14.022-11.058-33.487 33.452 26.075 34.277-11.341c4.0833-1.3527 6.2973-5.7387 4.952-9.8125z" fill="#f58220"/>
</svg>
