<svg xmlns="http://www.w3.org/2000/svg" width="800" height="244.62" ><g fill-rule="evenodd"><path d="M135.15 138.71c-2.738 5.051-6.685 9.102-11.841 12.155-5.162 3.052-10.793 4.576-16.898 4.576-9.047 0-16.787-3.207-23.207-9.627s-9.627-14.16-9.627-23.207c0-9.053 3.207-16.842 9.627-23.367s14.16-9.787 23.207-9.787a31.01 31.01 0 0 1 16.898 4.891c5.156 3.262 9.103 7.314 11.841 12.155l25.575-14.524c-5.267-9.473-12.736-17.101-22.418-22.892-9.689-5.784-20.314-8.683-31.898-8.683-8.418 0-16.417 1.634-23.997 4.896s-14.153 7.684-19.735 13.26c-5.575 5.581-9.997 12.155-13.259 19.735s-4.897 15.683-4.897 24.317c0 8.627 1.634 16.731 4.897 24.311s7.684 14.153 13.259 19.735c5.581 5.581 12.155 9.996 19.735 13.259s15.578 4.897 23.997 4.897c11.372 0 21.948-2.948 31.734-8.844 9.787-5.889 17.311-13.469 22.578-22.732zm93.46-16.73c0 16.842-3.213 32.736-9.633 47.684-6.42 14.942-15.103 27.943-26.05 38.993s-23.891 19.784-38.833 26.205c-14.949 6.419-30.841 9.632-47.683 9.632-22.732 0-43.522-5.791-62.361-17.366S10.533 200.393.004 181.657l25.575-13.895c7.789 13.895 18.945 25.156 33.47 33.791 14.53 8.628 30.318 12.945 47.363 12.945 12.63 0 24.632-2.424 35.996-7.265s21.209-11.415 29.522-19.734c8.319-8.314 14.949-18.1 19.895-29.362s7.419-23.311 7.419-36.156v.635c0-12.846-2.473-24.897-7.419-36.156s-11.576-21.048-19.895-29.362c-8.314-8.319-18.156-14.894-29.522-19.735s-23.367-7.265-35.996-7.265c-17.046 0-32.833 4.317-47.363 12.945-14.523 8.634-25.68 19.895-33.47 33.79L.004 62.939C10.531 44.203 25.209 29.045 44.05 17.468S83.68.101 106.411.101c16.842 0 32.736 3.213 47.683 9.633s27.888 15.153 38.833 26.204 19.63 24.051 26.05 38.993c6.42 14.949 9.633 30.842 9.633 47.683z" fill="#fdc600"/><path d="M612.83 132.39l-27.153 94.091h19.575l2.843-11.994h25.261l2.528 11.994h19.889l-27.468-94.091zm7.894 25.575c0 1.264.265 3.158.789 5.687l1.425 6.944 6.315 27.467h-17.366l6.629-27.467 1.418-6.944c.531-2.529.791-4.422.791-5.687zM522.24 132.08v94.405h18.945v-29.997h8.208l12.63 29.997h18.631l-13.266-33.784c4.003-2.738 7.265-6.475 9.794-11.211 2.522-4.736 3.787-10.158 3.787-16.257v-2.214c0-8.837-2.683-16.207-8.054-22.102-5.365-5.896-12.259-8.838-20.677-8.838zm18.945 17.681h9.158c3.367 0 6.21 1.105 8.523 3.312 2.313 2.214 3.471 5.63 3.471 10.261v.636c0 5.26-1.159 9.053-3.471 11.366s-5.156 3.471-8.523 3.471h-9.158zM572.78 18.417v94.405h30.311c4.841 0 9.312-.944 13.418-2.837 4.108-1.9 7.525-4.526 10.262-7.893 2.738-3.373 4.897-7.635 6.476-12.79s2.367-10.682 2.367-16.577V55.673c0-5.26-.789-10.205-2.367-14.837s-3.737-8.635-6.476-12.002-6.155-5.944-10.262-7.733-8.578-2.684-13.418-2.684zm18.945 17.681h9.158c2.732 0 5.05.42 6.944 1.265 1.893.839 3.471 2.103 4.736 3.787 1.474 1.893 2.529 4.107 3.158 6.629.629 2.529.95 5.372.95 8.529V71.46c0 4.002-.32 7.524-.95 10.576s-1.684 5.631-3.158 7.74c-1.264 1.683-2.843 3.053-4.736 4.101-1.894 1.055-4.212 1.578-6.944 1.578h-9.158zM358.99 17.161c-4.415 0-8.257.579-11.519 1.732-3.262 1.159-6.265 2.689-9.003 4.583-3.996 3.577-7.153 8.313-9.472 14.208-2.313 5.895-3.472 13.259-3.472 22.102v11.366c0 9.053 1.16 16.633 3.472 22.732 2.319 6.106 5.476 10.737 9.472 13.894a32.48 32.48 0 0 0 9.003 4.897c3.263 1.159 7.104 1.733 11.519 1.733 4.003 0 7.635-.574 10.897-1.733a32.46 32.46 0 0 0 9-4.897c4.212-3.157 7.369-7.788 9.472-13.894 2.103-6.099 3.157-13.575 3.157-22.418v-11.68c0-8.843-1.054-16.207-3.157-22.102s-5.26-10.631-9.472-14.208c-2.738-1.893-5.737-3.424-9-4.583s-6.894-1.732-10.897-1.732zm0 17.681c1.9 0 3.584.314 5.058.949 1.473.629 2.732 1.579 3.787 2.837 1.474 1.684 2.633 4.268 3.471 7.74.845 3.472 1.265 8.152 1.265 14.048v10.737c0 5.896-.42 10.528-1.265 13.895-.838 3.367-1.997 5.895-3.471 7.578-1.055 1.474-2.368 2.579-3.947 3.313-1.579.74-3.214 1.103-4.897 1.103-2.103 0-3.996-.364-5.679-1.103a9.74 9.74 0 0 1-4.108-3.312c-1.474-1.683-2.628-4.212-3.472-7.578s-1.264-7.999-1.264-13.895V60.416c0-5.895.419-10.575 1.264-14.048s1.999-6.056 3.472-7.74c1.055-1.258 2.424-2.207 4.108-2.836 1.683-.635 3.576-.949 5.679-.949zm322.067 97.242h-18.944v94.405h46.417v-17.366h-27.472zm-205.232 94.391h18.627v-76.722h17.683V132.07h-53.993v17.683h17.683zm-44.521-94.391v55.262l-25.576-55.262h-16.414v94.405h17.049v-54.62l25.576 54.62h16.731v-94.405zm-84.933 55.262h24.632v-17.69h-24.632v-19.889h29.051v-17.683h-47.996v94.405h47.996v-17.366h-29.051zM278.16 152.61c1.055-1.473 2.368-2.473 3.947-3.003 1.579-.524 3.317-.789 5.211-.789 2.529 0 5.002.635 7.419 1.893 2.424 1.264 4.366 3.792 5.841 7.579l16.737-6.944c-2.738-7.16-6.79-12.42-12.155-15.788-5.371-3.367-11.316-5.05-17.841-5.05-4.002 0-7.733.629-11.211 1.893-3.472 1.264-6.469 2.948-8.997 5.051-3.996 3.367-7.104 7.999-9.312 13.894-2.214 5.896-3.317 13.259-3.317 22.103v11.68c0 9.053 1.104 16.527 3.317 22.417 2.208 5.896 5.316 10.527 9.313 13.894 2.528 2.109 5.526 3.687 8.997 4.736 3.478 1.055 7.209 1.578 11.211 1.578 6.944 0 13-1.628 18.156-4.89s9.103-8.159 11.841-14.683l-16.737-7.579c-1.474 3.787-3.367 6.315-5.68 7.579-2.319 1.264-4.841 1.893-7.579 1.893-1.893 0-3.632-.265-5.211-.789s-2.892-1.523-3.947-2.998c-1.474-1.473-2.627-3.946-3.472-7.425-.845-3.472-1.264-8.153-1.264-14.048v-10.422c0-6.315.419-11.156 1.264-14.523s1.998-5.785 3.472-7.259zm213.769-39.795l-10.734-94.408h-17.683l-16.421 59.352-16.421-59.352h-18l-11.051 94.408h17.69l5.673-51.467 14.216 51.467h15.47l13.898-51.467 5.998 51.467zm33.47-39.143h27.472V55.673h-27.472V36.098h31.264V18.417h-49.891v94.406h49.891V95.457h-31.264zm110.192-55.269l26.521 48.941v45.464h18.944V67.344l26.521-48.941h-20.523l-15.787 29.676-15.153-29.676z"/><path d="M278.16 38.627c1.055-1.258 2.368-2.208 3.947-2.837 1.579-.635 3.317-.95 5.211-.95 2.529 0 5.002.685 7.419 2.053 2.424 1.369 4.366 4.052 5.841 8.048l16.737-7.573c-2.738-7.16-6.79-12.315-12.155-15.473-5.371-3.157-11.316-4.736-17.841-4.736-4.002 0-7.733.58-11.211 1.733-3.472 1.159-6.469 2.689-8.997 4.582-3.996 3.577-7.104 8.313-9.312 14.209-2.214 5.895-3.317 13.259-3.317 22.103v11.366c0 9.053 1.104 16.632 3.317 22.731 2.208 6.106 5.316 10.737 9.313 13.894 2.528 2.109 5.526 3.737 8.997 4.897 3.478 1.159 7.209 1.733 11.211 1.733 6.944 0 13-1.628 18.156-4.89s9.103-8.263 11.841-14.998l-16.737-7.265c-1.474 3.577-3.367 6.106-5.68 7.579a13.84 13.84 0 0 1-7.579 2.208c-1.893 0-3.632-.364-5.211-1.104-1.579-.734-2.892-1.838-3.947-3.312-1.474-1.683-2.627-4.212-3.472-7.579s-1.264-7.998-1.264-13.894V60.415c0-5.895.419-10.576 1.264-14.048s1.998-6.056 3.472-7.74z"/></g><path d="M752.9 168.11v12.603h-15.887v20.375H724.41v-20.375h-15.886V168.11h15.886v-20.375h12.603v20.375zm13.81-13.89v-18.713l19.842-13.347h13.453V226.3l-18.293.002V144.21z" fill="#fdc600"/><g transform="matrix(.4574 -.15105 .15105 .4574 284.75 -48.735)"><path d="M137.12 203.44c-14.733.371-28.05 6.486-37.777 16.166-10.043 9.945-16.275 23.728-16.275 38.988 0 15.224 6.228 29.006 16.275 38.992l12.191 12.125c10.175 10.139 15.577 16.53 16.055 22.701.239 3.086-.739 6.141-2.992 9.643s-5.785 7.437-10.619 12.244l-11.1 11.033c-9.123 9.121-14.785 21.647-14.785 35.52v177.92h100.87v-177.92c0-13.872-5.615-26.402-14.74-35.52l-11.1-10.996c-4.835-4.808-8.366-8.746-10.619-12.252s-3.231-6.568-2.992-9.658c.478-6.181 5.882-12.581 16.057-22.721l12.197-12.119c10.044-9.986 16.236-23.769 16.236-38.992 0-15.26-6.187-29.043-16.236-38.988-9.728-9.673-23.042-15.791-37.775-16.166h-2.861zM-59.1 329.72c-35.84-.042-68.723 14.639-92.164 38.139-23.488 23.368-38.186 56.202-38.145 92.031V578.8h99.162V461.89c.044-14.187 3.42-26.286 9.172-35.672l.002-.002c5.797-9.238 13.24-14.688 21.967-14.725 8.728.036 16.177 5.486 21.975 14.725 5.747 9.387 9.127 21.486 9.174 35.674V578.8h99.203V459.89c0-35.828-14.699-68.663-38.188-92.031C9.615 344.36-23.26 329.673-59.1 329.72zm390.99-1c-35.738 0-68.569 14.63-91.906 38.125-23.463 23.4-38.123 56.231-38.078 92.006-.044 35.775 14.615 68.606 38.078 92.008 18.002 18.028 49.318 38.127 91.906 38.127 31.964 0 61.59-11.77 84.23-31.043 16.486-14.029 40.947-42.171 45.148-86.846l.022-.227h-99.057l-.019.184c-1.247 11.205-4.186 20.979-8.42 29.021v-.004c-5.787 10.664-13.256 16.972-21.902 17.014-8.689-.044-16.167-6.348-21.949-17.012v-.002c-5.694-10.805-9.109-24.812-9.109-41.217s3.415-30.365 9.109-41.215v-.002c5.782-10.668 13.255-16.971 21.947-17.012 8.648.043 16.117 6.344 21.904 17.014 4.234 8.037 7.173 17.811 8.42 29.01l.019.184h99.055l-.019-.227c-2.902-30.961-16.743-59.05-37.471-79.762a129.85 129.85 0 0 0-91.908-38.125zm325.76-1.26c-15.897.977-31.04 9.553-39.73 24.277l-.002.002-44.328 78.994v-52.352c0-27.292-22.198-49.42-49.576-49.42s-49.607 22.129-49.607 49.42v199.16h99.186v-77.424l51.785 77.387 79.863-.045c9.613-.009 17.39-7.769 17.391-17.357v-.002c0-3.325-1.009-6.433-2.635-9.059l-.002-.004-54.025-81.439 37.402-67.664c13.907-23.512 6.057-53.851-17.523-67.711a49.5 49.5 0 0 0-28.197-6.762z" dominant-baseline="auto" fill="#f2f2f2"/><path d="M177.61 297.44c10.007-9.949 16.174-23.678 16.174-38.845 0-15.204-6.163-28.933-16.174-38.841-9.692-9.637-22.956-15.731-37.635-16.105h-2.854c-14.679.37-27.946 6.461-37.637 16.105-10.005 9.908-16.213 23.637-16.213 38.841 0 15.167 6.203 28.896 16.213 38.845l12.191 12.125c20.359 20.288 21.8 25.639 2.445 44.883l-11.1 11.033c-9.086 9.084-14.724 21.556-14.724 35.372v177.71h100.45v-177.71c0-13.816-5.591-26.292-14.679-35.372l-11.101-10.995c-19.358-19.25-17.912-24.638 2.446-44.926zM-59.1 329.93c-35.783-.042-68.614 14.616-92.017 38.078-23.45 23.33-38.125 56.113-38.084 91.885v118.7h98.747v-116.7c.044-14.222 3.428-26.359 9.204-35.783 5.821-9.277 13.332-14.787 22.146-14.823 8.815.036 16.329 5.546 22.15 14.823 5.77 9.424 9.157 21.562 9.204 35.783v116.7h98.788v-118.7a129.74 129.74 0 0 0-38.125-91.885C9.508 344.546-23.316 329.883-59.1 329.93zm413.08 170.24c-5.807 10.701-13.339 17.081-22.087 17.122-8.789-.045-16.329-6.421-22.131-17.122-5.713-10.84-9.133-24.883-9.133-41.317s3.42-30.428 9.133-41.313c5.802-10.706 13.338-17.082 22.131-17.122 8.748.044 16.28 6.416 22.087 17.122 4.248 8.064 7.193 17.863 8.443 29.085h98.641c-2.897-30.912-16.716-58.956-37.41-79.634-23.345-23.452-56.12-38.064-91.761-38.064-35.681 0-68.461 14.608-91.76 38.064-23.425 23.362-38.062 56.14-38.017 91.858-.044 35.718 14.592 68.498 38.017 91.862 17.971 17.997 49.237 38.065 91.76 38.065 31.913 0 61.491-11.751 84.095-30.993 16.459-14.006 40.881-42.099 45.076-86.707h-98.641c-1.249 11.227-4.195 21.025-8.443 29.094zm368.44 59.93c0-3.284-.996-6.356-2.604-8.952l-54.094-81.543 37.463-67.773c13.855-23.416 6.039-53.628-17.447-67.432-23.499-13.808-53.797-6.02-67.644 17.442l-44.715 79.686v-53.147c0-27.179-22.103-49.212-49.369-49.212s-49.401 22.034-49.401 49.212v198.95h98.771v-77.9l52.104 77.864 79.752-.045c9.502-.009 17.184-7.675 17.184-17.152z" dominant-baseline="auto" fill="#f58220"/></g></svg>