<?xml version="1.0" encoding="UTF-8"?>
<svg width="544.38" height="450" version="1.1" xmlns="http://www.w3.org/2000/svg">
	<path d="m425.17 251.63c-34.274 4.0002-102.3 48.954-50.818 100.8h0.0194c10.389 10.467 19.399 28.37 18.7 44.177-1.3593 30.817-27.497 54.702-58.392 53.343-28.992-1.2622-51.867-24.331-53.44-52.663-8.4471-74.625-120.76-90.607-167.5-44.08-10.777 11.884-26.39 18.875-43.672 18.098-30.798-1.3593-54.683-27.4-53.304-58.197 0.95151-21.516 17.088-40.565 38.39-44.235 54.896-6.311 99.17-66.742 69.635-118.24-5.8644-10.234-10.505-21.593-9.9423-34.313 1.2234-27.652 22.39-49.731 49.012-52.935 25.147-3.8643 39.653-22.273 53.226-39.614 10.952-15.613 29.108-24.564 48.158-23.71 30.798 1.3593 54.663 27.419 53.304 58.197-0.56313 12.68-5.8061 23.788-12.855 33.225-6.0003 8.0393-12.447 19.321-12.408 32.681 0.0777 24.506 25.03 47.42 50.003 50.08 15.399 1.6312 37.497-1.9224 50.915-12.952 16.972-13.943 26.079-17.865 44.585-17.263 30.953 0.99035 49.576 28.875 47.925 56.022-1.8642 30.798-27.264 47.265-61.537 51.576z" fill="#ff6700"/>
	<path d="m90.723 121.41c0 15.71-12.758 28.448-28.468 28.429-15.71 0.0194-28.468-12.719-28.487-28.429 0.01942-15.71 12.777-28.448 28.487-28.429 15.71-0.01942 28.468 12.719 28.468 28.429z" fill="#ff6700"/>
	<g fill="#3deeab">
		<path d="m276.64 202.7c3.3594 0 6.2139 1.1845 8.5636 3.5342 2.3496 2.3691 3.5342 5.1653 3.5342 8.583s-1.1651 6.2916-3.5342 8.6801c-2.3496 2.3691-5.2236 3.5342-8.6218 3.5342h-6.8936l0.0582 37.051h-24.331v-37.051h-6.8936c-3.3594 0-6.2139-1.1845-8.5636-3.5342-2.3885-2.3885-3.5924-5.2818-3.5924-8.6412s1.1651-6.2334 3.5342-8.6218c2.3496-2.3691 5.2236-3.5342 8.6218-3.5342z"/>
		<path d="m454.45 202.41c8.9131 0 16.486 3.1458 22.778 9.418 6.2528 6.2139 9.418 13.768 9.418 22.72v29.555h-24.39v-29.07c0-3.4371-0.75732-6.3693-2.272-8.816-1.5146-2.4273-3.3594-3.6507-5.5149-3.6507s-3.942 1.2234-5.4566 3.6507-2.272 5.3789-2.272 8.816v29.07h-24.39v-29.555c0-8.9519 3.1652-16.486 9.418-22.72 6.2334-6.2528 13.768-9.418 22.681-9.418z"/>
		<path d="m526.63 229.9c11.826 5.243 17.749 11.224 17.749 17.982 0 5.0682-2.2914 9.5733-6.8936 13.476-4.9129 4.1556-10.933 6.2334-18.04 6.2334-8.2335 0-14.952-2.4079-20.195-7.1849-4.8352-4.408-7.2431-9.5928-7.2431-15.593h19.787c0 1.7282 0.36895 3.3012 1.068 4.7381 1.204 2.4273 3.1458 3.6507 5.8644 3.6507 0.87384 0 1.7282-0.29128 2.5827-0.835 1.0292-0.66023 1.5535-1.5341 1.5535-2.971s-1.2234-2.8351-3.6507-4.1556c-0.56314-0.3107-4.0585-1.9224-10.486-4.7964-11.787-5.243-17.671-11.224-17.671-17.982 0-5.0682 2.2914-9.5733 6.8936-13.476 4.874-4.1556 10.894-6.2334 18.04-6.2334 8.1946 0 14.933 2.3885 20.195 7.1849 4.7964 4.3886 7.1848 9.5928 7.1848 15.593h-19.787c0-1.67-0.3107-3.2235-1.0098-4.6216-1.1651-2.2914-3.1846-3.4177-5.9226-3.4177-0.91267 0-1.7477 0.25244-2.5244 0.66023-1.1069 0.58255-1.67 1.437-1.6312 2.8739 0.0388 1.4176 1.2816 2.8351 3.6701 4.1556 0.58255 0.31069 4.0779 1.8836 10.467 4.7187z"/>
		<path d="m320.56 202.7c-17.807 0-32.215 14.428-32.215 32.196s14.409 32.196 32.215 32.196c17.807 0 32.215-14.428 32.215-32.196 0-17.787-14.409-32.196-32.215-32.196zm0 17.749c4.3109 0 7.7092 6.5246 7.7092 14.428 0 7.9033-3.4177 14.428-7.7092 14.428s-7.7092-6.5246-7.7092-14.428 3.3982-14.428 7.7092-14.428z"/>
		<path d="m386.8 202.68c-17.807 0-32.215 14.428-32.215 32.196s14.409 32.196 32.215 32.196 32.215-14.428 32.215-32.196c-0.0194-17.768-14.409-32.196-32.215-32.196zm0 17.768c4.3109 0 7.7092 6.5246 7.7092 14.428 0 7.9033-3.4177 14.428-7.7092 14.428s-7.7092-6.5246-7.7092-14.428c-0.0194-7.9034 3.3982-14.428 7.7092-14.428z"/>
	</g>
	<g fill="#1B1E20">
		<path d="m128.96 202.5c-8.8937 0-17.049 3.6701-22.817 9.4568-5.7867 5.7867-9.418 14.02-9.3403 22.856 0.07767 8.8354 3.5536 17.069 9.3403 22.856 4.4468 4.4274 12.156 9.4374 22.817 9.4374 7.8645 0 15.244-2.9322 20.894-7.7674 4.1167-3.5342 10.078-10.505 11.263-21.496h-24.603c-0.29128 2.738-1.0292 5.1848-2.0778 7.1654-1.4758 2.7574-3.2623 4.2721-5.476 4.2721s-4.0002-1.5341-5.476-4.2721-2.2137-6.2528-2.2137-10.214 0.85441-7.6315 2.2137-10.214c1.4564-2.7574 3.2623-4.2721 5.476-4.2721s4.0196 1.5146 5.476 4.2721c1.0486 1.9807 1.7865 4.4274 2.0778 7.1654h24.448c-0.73791-7.6121-4.1556-14.622-9.3403-19.807-5.7673-5.7867-13.923-9.4568-22.661-9.4374z"/>
		<path d="m32.157 202.5c-8.8937 0-17.011 3.6895-22.681 9.4568-5.7479 5.8256-9.4762 13.865-9.4762 22.7v29.419h24.448v-28.817c0-3.4953 0.835-6.5829 2.2137-8.8354 1.4176-2.3108 3.2623-3.6507 5.476-3.6507s4.0002 1.3593 5.4954 3.6507c1.4758 2.2914 2.2137 5.3401 2.2137 8.8354v28.817h24.448v-29.419c0-8.8354-3.6313-16.991-9.4762-22.856-5.6896-5.7285-13.768-9.3015-22.661-9.3015z"/>
		<path d="m211.39 201.84c-4.3303-0.17477-8.7189 1.9613-10.991 6.0003l-11.107 19.807v-13.263c0-6.6994-5.476-12.195-12.156-12.195s-12.156 5.4954-12.156 12.195v49.673h24.448v-19.36l12.894 19.36h19.71c2.2331 0 4.0002-1.8254 4.0002-4.2721 0-0.75732-0.13593-1.5923-0.60198-2.2914l-13.341-20.273 9.3403-16.914c3.2429-5.8838 1.4758-13.379-4.2915-16.758-1.8059-1.0486-3.7672-1.6312-5.7479-1.7088z"/>
		<path d="m81.072 171.42c-3.7089 0-7.1072 1.5341-9.6316 3.9614s-4.0002 5.9421-4.0002 9.6122 1.5535 7.0878 4.0002 9.6122l2.971 3.0487c4.9711 5.1071 5.2624 6.3304 0.60198 11.127l-2.6603 2.738c-2.2137 2.2914-3.5536 5.3401-3.5536 8.6801v43.886h24.603v-43.886c0-3.3594-1.4176-6.4664-3.5536-8.6801l-2.6603-2.738c-4.7381-4.8741-4.3692-6.0198 0.60197-11.127l2.971-3.0487c2.4467-2.505 4.0002-5.7867 4.0002-9.6122 0-3.8254-1.4758-7.1654-4.0002-9.6122-2.5827-2.4273-5.845-3.9614-9.6898-3.9614z"/>
	</g>
</svg>
