<?xml version="1.0" encoding="UTF-8"?>
<svg width="800" height="159.02" style="isolation:isolate" version="1.1" viewBox="0 0 600 119.27" xmlns="http://www.w3.org/2000/svg">
 <g>
  <path d="m463.92 57.088 12.187 36.356-42.912 25.822v-62.178h9.104v40.49h10.955v-40.49zm-30.503-11.182h38.481l11.004 36.731 11.138-36.731h11.648l-12.079 37.01 21.658-13.031v-69.884z" stroke-width=".95668"/>
  <path d="m26.215 97.679v-28.762c0-3.7274-2.4845-4.9452-5.7747-4.9452h-7.6967c-3.3667 0-5.8541 1.1366-5.8541 4.9452v28.762h-6.895v-30.708c0-6.8071 4.0086-9.8846 10.504-9.8846h12.109c6.5755 0 10.423 2.9984 10.423 9.8846v30.708zm15.392 0v-40.593h6.897v40.593zm3.3676-46.75c-2.4865 0-4.4908-2.0244-4.4908-4.5377 0-2.5113 1.9249-4.6984 4.4908-4.6984s4.5702 2.0263 4.5702 4.618c0 2.5113-2.0837 4.618-4.5702 4.618zm38.326 17.581c0-3.4011-2.4042-4.5377-5.4523-4.5377h-7.6173c-3.5284 0-6.3344 1.1366-6.3344 5.1864v8.0211l19.404-8.0211zm-19.323 15.395v1.216c0 4.0498 1.6829 5.5891 5.613 5.5891h20.687v6.9696h-21.648c-3.1275 0-5.7738-0.1636-8.2603-2.2693-2.8864-2.4291-3.3676-5.1845-3.3676-8.7484v-19.202c0-7.2117 4.1694-10.372 10.986-10.372h12.107c7.2175 0 10.264 3.7293 10.264 10.858v5.1031zm60.536-18.23c0-1.0534-0.72137-1.6216-1.6829-1.6216h-12.67c-3.448 0-5.612 2.1086-5.612 5.591v16.527c0 3.4843 2.5649 4.5377 5.612 4.5377h8.3407c3.2059 0 6.0129-1.6197 6.0129-5.1873zm3.6096 29.412c-2.166 1.7804-5.0533 2.5917-7.8585 2.5917h-12.109c-6.897 0-10.504-3.9714-10.504-10.858v-19.039c0-6.4827 3.9293-10.695 10.425-10.695h16.437v-14.341h6.895v43.831c6.5e-4 3.403-0.55968 6.2378-3.2854 8.5099zm38.163-26.578c0-3.4011-2.4052-4.5377-5.4523-4.5377h-7.6193c-3.5284 0-6.3344 1.1366-6.3344 5.1864v8.0211l19.406-8.0211zm-19.323 15.395v1.216c0 4.0498 1.6829 5.5891 5.612 5.5891h20.688v6.9696h-21.649c-3.1275 0-5.7728-0.1636-8.2583-2.2693-2.8883-2.4291-3.3686-5.1845-3.3686-8.7484v-19.202c0-7.2117 4.1694-10.372 10.985-10.372h12.108c7.2165 0 10.263 3.7293 10.263 10.858v5.1031zm47.704-19.932c-4.3301-0.08037-6.5765 0.89262-6.5765 5.834v27.871h-6.895v-29.734c0-7.293 3.5274-10.857 10.744-10.857h5.1337v6.8855h-2.4061m35.518 5.6723c0-3.4834-2.165-5.591-5.613-5.591h-12.669c-0.96338 0-1.6838 0.56829-1.6838 1.6216v19.848c0 3.5666 2.807 5.1854 6.0129 5.1854h8.3396c3.2872 0 5.613-1.1318 5.613-4.8592zm-3.6068 28.035h-12.109c-2.8061 0-5.6934-0.81224-7.8585-2.5927-2.7266-2.2703-3.2872-5.1069-3.2872-8.508v-43.834h6.897v14.341h16.437c6.4951 0 10.425 4.2143 10.425 10.695v19.041c0 6.8855-3.6096 10.858-10.504 10.858zm45.54-19.287c0-1.0514-0.72136-1.2944-1.6044-1.2944h-13.15c-3.2872 0-4.8916 1.7011-4.8916 5.0218v3.9723c0 2.917 2.2464 4.6161 4.973 4.6161h9.8631c2.8874 0 4.8104-1.5384 4.8104-4.5368zm-2.8061 19.287h-13.151c-6.0139 0-10.585-3.2423-10.585-9.7231v-7.293c0-6.3985 3.9282-10.127 10.184-10.127h16.436c-0.0784-3.9703-0.72135-6.565-5.2906-6.565h-21.169v-6.8855h22.132c6.8166 0 11.144 3.0768 11.144 10.288v20.176c0 5.9948-3.6881 10.128-9.7008 10.128zm41.369 14.417h-23.094v-7.0472h21.17c5.0514 0 5.2122-3.2394 5.2122-7.3724h-15.637c-3.2069 0-5.2122-0.32434-7.6183-2.674-2.3239-2.2693-3.1256-4.619-3.1256-7.8585v-30.059h6.896v28.113c0 3.5657 1.8455 5.5097 5.3719 5.5097h12.348c1.3633 0 1.7633-0.89073 1.7633-2.1076v-31.515h6.897v44.156c-6.4e-4 6.321-3.7694 10.855-10.185 10.855zm44.982-43.587c0-3.4011-2.4042-4.5377-5.4514-4.5377h-7.6184c-3.5284 0-6.3353 1.1366-6.3353 5.1864v8.0211l19.405-8.0211zm-19.324 15.395v1.2159c0 4.0498 1.6838 5.5891 5.613 5.5891h20.687v6.9696h-21.649c-3.1265 0-5.7738-0.1636-8.2583-2.2693-2.8874-2.4291-3.3667-5.1845-3.3667-8.7484v-19.202c0-7.2117 4.1684-10.372 10.983-10.372h12.11c7.2175 0 10.262 3.7293 10.262 10.858v5.1031zm47.704-19.932c-4.3291-0.08037-6.5755 0.89262-6.5755 5.8341v27.871h-6.895v-29.734c0-7.293 3.5284-10.857 10.746-10.857h5.1318v6.8855h-2.4071m34.8 33.707v-28.762c0-3.7274-2.4865-4.9452-5.7756-4.9452h-7.6968c-3.3667 0-5.8522 1.1366-5.8522 4.9452v28.762h-6.897v-30.708c0-6.807 4.0086-9.8846 10.505-9.8846h12.108c6.5755 0 10.422 2.9984 10.422 9.8846v30.708z" stroke-width=".95668"/>
  <path d="m541.68 0c-7.093 0-12.804 5.711-12.804 12.804v22.293c0 7.093 5.711 12.804 12.804 12.804h45.526c7.093 0 12.803-5.711 12.803-12.804v-22.293c0-7.093-5.7098-12.804-12.803-12.804zm-2.9878 9.9168h5.8334v11.175h12.14v-11.175h5.8334v28.066h-5.8334v-12.03h-12.14v12.03h-5.8334zm29.244 0h10.083c4.6926 0 8.324 1.1963 10.894 3.5866 2.5704 2.377 3.8558 5.789 3.8558 10.238 0 2.8949-0.56597 5.425-1.6996 7.5895-1.1204 2.1513-2.716 3.7982-4.7854 4.9402-2.0563 1.142-4.4162 1.7121-7.0788 1.7121h-11.269zm5.8321 4.5427v18.982h4.9427c2.5044 0 4.4954-0.86949 5.9717-2.6091 1.4763-1.7396 2.2141-4.1035 2.2141-7.0914 0-3.0144-0.77694-5.3111-2.3323-6.8913-1.5554-1.5935-3.7769-2.3902-6.6636-2.3902z" stroke-dashoffset="3.402" stroke-linecap="square" stroke-linejoin="round" stroke-miterlimit="0" stroke-width="3.5425" style="paint-order:stroke markers fill"/>
 </g>
</svg>
