<?xml version="1.0" encoding="UTF-8"?>
<svg width="800" height="146.88" version="1.1" xmlns="http://www.w3.org/2000/svg">
	<path d="m0 0v146.7h33.629v-94.343l56.715 94.161h31.811v-146.51h-33.629v94.161l-56.715-94.161zm141.79 0v146.7h37.265v-146.7zm51.443 0v31.629h29.266v114.88h37.265v-114.88h29.266v-31.629zm107.98 0v146.7l37.265 0.18175v-114.34h37.446c11.269 0 20.361 9.2706 20.361 20.904s-9.0917 20.723-20.361 20.723h-33.992l51.444 72.348h42.536l-38.537-48.535c21.084-5.4532 36.719-24.903 36.719-48.171 0-27.63-21.815-49.807-48.719-49.807zm212.68 0c-41.082 0-74.346 32.902-74.346 73.257 0 40.355 33.264 73.257 74.346 73.257 41.085 0 74.349-32.902 74.349-73.257 0-40.355-33.264-73.257-74.349-73.257zm0 32.357c21.451 0 38.9 18.36 38.9 40.9 0 22.54-17.449 40.718-38.9 40.718-21.448 0-38.9-18.178-38.9-40.718 0-22.54 17.453-40.9 38.9-40.9z" fill="#878787"/>
	<path d="m620.05 115.07h-31.81v31.811h31.81z" fill="#b8e637"/>
	<path d="m640.49 25.436v94.311h13.357v-40.534h40.069v40.534h13.357v-94.311h-13.357v40.534h-40.069v-40.534zm116.07 0h-31.298v94.311h31.298c24.041 0 43.437-21.022 43.437-47.154 0-26.132-19.396-47.154-43.437-47.154zm-1.2776 81.647h-16.664v-68.989h16.664c17.653 0 31.823 15.447 31.823 34.61 0 19.163-14.285 34.378-31.823 34.378z" fill="#8e8e8e"/>
</svg>
