<?xml version="1.0" encoding="UTF-8"?>
<svg width="800" height="131.37" version="1.1" viewBox="0 0 800 131.37" xmlns="http://www.w3.org/2000/svg">
 <style type="text/css">.st0{fill:#bfbdc2}</style>
 <g stroke-width="1.6178">
  <path class="st0" d="m0 0.48534v130.56h29.929v-83.964l50.475 83.802h28.311v-130.39h-29.929v83.802l-50.475-83.802zm126.19 0v130.56h33.165v-130.56zm45.784 0v28.15h26.047v102.24h33.165v-102.24h26.047v-28.15zm96.097 0v130.56l33.165 0.16178v-101.76h33.327c10.03 0 18.119 8.2508 18.119 18.605s-8.089 18.443-18.119 18.443h-30.253l45.784 64.388h37.856l-34.297-43.195c18.766-4.8534 32.679-22.164 32.679-42.872 0-24.59-19.414-44.328-43.357-44.328zm189.28 0c-36.562 0-66.168 29.282-66.168 65.197 0 35.915 29.606 65.197 66.168 65.197s66.168-29.282 66.168-65.197c0-35.915-29.606-65.197-66.168-65.197zm0 28.797c19.09 0 34.621 16.34 34.621 36.4 0 20.061-15.531 36.239-34.621 36.239s-34.621-16.178-34.621-36.239c0-20.061 15.531-36.4 34.621-36.4z" fill="#6c6675"/>
  <path d="m521.74 101.11h28.311v28.311h-28.311z" fill="#bae637"/>
  <path class="st0" d="m582.08 0v131.37h18.605v-56.461h55.814v56.461h18.605v-131.37h-18.605v56.461h-55.814v-56.461zm157.41 0h-49.828v131.37h49.828c33.488 0 60.506-29.282 60.506-65.683 0-36.4-27.017-65.683-60.506-65.683zm-1.7796 113.73h-29.444v-96.097h29.444c24.59 0 44.328 21.517 44.328 48.21s-19.899 47.887-44.328 47.887z" fill="#6c6675"/>
 </g>
</svg>
