<svg xmlns="http://www.w3.org/2000/svg" id="Ebene_1" viewBox="0 0 723.5 271.5"><style id="style2"></style><path id="rect15" fill="#fff" d="M0 0h435v271.5H0z"/><g id="g6"><path id="path4" d="M0 0v271.5h435V0zm172.3 203.7c0 1.7 0 3.2-2.5 3.2-11.7-.1-23.5-.1-35.2-.1-.2 0-.5-.2-1.2-.5v-4.9-69.7c0-8.7-1.7-10.5-10.5-10.5-6.2 0-12.5.2-18.7-.1-3.7-.2-4.9.7-4.9 4.7.2 25.4.1 50.7.1 76.1 0 5 0 5-5.1 5-10.1 0-20.2-.1-30.4 0-2.6 0-3.5-.8-3.5-3.4.1-38.9.1-77.7 0-116.6 0-2.4.7-3.3 3.2-3.3 27 .1 54-.1 81 .1 15.9.2 27.5 11.8 27.6 27.7.3 30.8.1 61.6.1 92.3zM371.6 107c-12.6 32.2-25.2 64.5-37.7 96.7-1 2.5-2.2 3.4-4.9 3.4-10.5-.1-21-.2-31.5 0-3.3.1-4.5-1.2-5.6-4-10-25.9-20.1-51.7-30.1-77.5-1.3-3.3-2.9-4.6-6.5-4.4-7.1.3-14.2.2-21.4 0-2.4 0-3.6.5-3.6 3.3.1 13.2 0 26.5.1 39.7 0 5.9 2.3 8 8.3 8.1 3.7.1 7.5.1 11.2 0 2.4-.1 3.4.6 3.3 3.2-.1 10-.1 20 0 30 0 2.3-.7 3.4-3.2 3.4-10.1-.1-20.3.3-30.4-.2-17.7-.8-28.3-12-28.4-29.7-.1-43.7 0-87.5-.1-131.2 0-2.6.8-3.7 3.4-4.2 11.6-2.2 23.2-4.5 35.5-7v47.2h4.9c16.1 0 32.2.1 48.4-.1 3.2 0 4.5 1.1 5.5 4 7.4 21.6 14.9 43.2 22.4 64.8.3.9.7 1.8 1.5 3.8 1.1-2.9 2-5 2.7-7.2 7.2-20.6 14.4-41.3 21.4-62 .9-2.6 2.1-3.4 4.8-3.4 12.6.1 25.2.1 38.6.1-2.7 8.1-5.6 15.7-8.6 23.2z" fill="#d61f2c"/></g><path id="rect8" fill="#0c0d0c" d="M456.2 0h267.5v271.5H456.2z"/><g id="g18"><path d="M619.605 85.426c-4.831.003-9.617.074-14.304.074-5.2 0-6.702 1.9-6.602 6.8.3 14.6.102 29.1.102 43.7 0 14.5.098 29.1-.102 43.8-.1 4.6 1.102 6.4 6.102 6.4 12.2 0 24.4.2 36.5-.4 14.2-.7 24.398-7.6 28.898-21.5 6.1-18.8 5.8-37.8.5-56.6-3.7-13-13.299-19.4-26.799-21.1-8.062-1-16.242-1.18-24.295-1.174zM618.7 100.9c5.5.2 11-.1 16.5.1 11.3.3 16.7 4.4 18.9 15 2.7 13 2.8 26.1 0 39-2.4 11.3-9.199 16.3-21.199 16.6-19.4.4-19.4.4-19.4-18.2.1-5.8.1-11.7.1-17.5 0-10 .1-19.9-.1-29.9-.1-3.7 1.3-5.3 5.2-5.1z" id="path10" fill="#9b9696"/><path id="polygon14" fill="#9b9696" d="M581.5 186.2h-16.4v-42.4l-43.1-.3v42.7h-16.7V85.4h16.4v42.4h43.4V85.4h16.4z"/><path id="rect16" fill="#9a9595" d="M598.4 85.4h16.4v100.7h-16.4z"/></g></svg>