<?xml version="1.0" encoding="utf-8"?>
<!-- Generator: Adobe Illustrator 23.0.1, SVG Export Plug-In . SVG Version: 6.00 Build 0)  -->
<svg version="1.1" id="svg4922" xmlns:svg="http://www.w3.org/2000/svg"
	 xmlns="http://www.w3.org/2000/svg" xmlns:xlink="http://www.w3.org/1999/xlink" x="0px" y="0px" viewBox="0 0 625.5 730.3"
	 style="enable-background:new 0 0 625.5 730.3;" xml:space="preserve">
<style type="text/css">
	.st0{fill:#BA151B;}
	.st1{fill:#FFFFFF;}
	.st2{fill:#231F20;}
</style>
<path id="path3397" class="st0" d="M616.9,304.1L474.5,161.8v284.7L616.9,304.1L616.9,304.1z M396.3,299l1.2-1.2l-37.6-37.6v-52.6
	l80.3-80.3L312.7,0L8.5,304.1l304.3,304.1l84.6-84.5V299H396.3L396.3,299z"/>
<path id="path3401" class="st1" d="M474.5,161.8l-34.4-34.4l-80.3,80.3v52.6l37.6,37.6l-1.2,1.2h1v224.7l77.2-77.2L474.5,161.8
	L474.5,161.8z"/>
<path id="path3415" class="st2" d="M34.4,662.8h12.3v-10.7H34.4C34.4,652.2,34.4,662.8,34.4,662.8z M16,662.8h12.3v-10.7H16
	C16,652.2,16,662.8,16,662.8z M612.7,729.3h12.8v-59.4h-8.8l-16.9,5.1l2.7,10.6l10.3-2.5V729.3z M513.8,729.3h13v-23.7h23.9v23.7h13
	v-59h-13v23.3h-23.9v-23.3h-13V729.3z M478.4,730.3c11.4,0,18.1-4,24.2-10.5l-8.2-8.3c-4.6,4.2-8.8,6.9-15.5,6.9
	c-10.1,0-17.1-8.4-17.1-18.5v-0.2c0-10.1,7.2-18.4,17.1-18.4c5.9,0,10.5,2.5,15.1,6.7l8.2-9.5c-5.5-5.4-12.1-9.1-23.3-9.1
	c-18.1,0-30.7,13.7-30.7,30.5v0.2C448.2,717,461,730.3,478.4,730.3 M422.2,729.3h13v-59h-13V729.3z M364.3,729.3h44.9v-11.5h-32
	v-12.4H405v-11.5h-27.8v-12h31.6v-11.5h-44.5L364.3,729.3L364.3,729.3z M315.6,699v-16.9h12.9c6.3,0,10.2,2.9,10.2,8.4v0.2
	c0,5-3.6,8.3-9.9,8.3L315.6,699L315.6,699z M302.6,729.3h13v-18.9h10.2l12.6,18.9h15.1l-14.4-21.1c7.5-2.8,12.6-8.8,12.6-18.3v-0.2
	c0-5.6-1.8-10.2-5-13.5c-3.9-3.9-9.7-6-17.2-6h-27L302.6,729.3L302.6,729.3z M253.8,699v-16.9h12.9c6.3,0,10.2,2.9,10.2,8.4v0.2
	c0,5-3.6,8.3-9.9,8.3L253.8,699L253.8,699z M240.8,729.3h13v-18.9H264l12.6,18.9h15.1l-14.4-21.1c7.5-2.8,12.6-8.8,12.6-18.3v-0.2
	c0-5.6-1.8-10.2-5.1-13.5c-3.9-3.9-9.7-6-17.2-6h-27V729.3L240.8,729.3z M183.6,729.3h44.9v-11.5h-32v-12.4h27.8v-11.5h-27.8v-12
	H228v-11.5h-44.5V729.3L183.6,729.3z M141.9,729.3h13v-47h17.9v-11.9h-48.8v11.9h17.9V729.3L141.9,729.3z M95.6,730.2
	c12.7,0,21.6-6.6,21.6-18.3v-0.2c0-10.3-6.7-14.6-18.7-17.7c-10.2-2.6-12.7-3.9-12.7-7.8v-0.2c0-2.9,2.6-5.1,7.6-5.1
	c5,0,10.1,2.2,15.3,5.8l6.7-9.8c-6-4.8-13.3-7.5-21.9-7.5c-12,0-20.6,7.1-20.6,17.8v0.2c0,11.7,7.7,15,19.5,18.1
	c9.9,2.5,11.9,4.2,11.9,7.5v0.2c0,3.5-3.2,5.6-8.5,5.6c-6.7,0-12.3-2.8-17.6-7.2l-7.7,9.2C77.7,727,86.7,730.2,95.6,730.2
	 M31.4,718.4c-10.4,0-17.9-8.4-17.9-18.5v-0.2c0-10.1,7.3-18.4,17.7-18.4s17.9,8.4,17.9,18.5v0.2C49.1,710.1,41.8,718.4,31.4,718.4
	 M31.2,730.3c18.2,0,31.4-13.7,31.4-30.5v-0.2c0-16.8-13.1-30.3-31.3-30.3C13.2,669.4,0,683.1,0,699.8v0.2
	C0,716.8,13,730.3,31.2,730.3"/>
</svg>
