<?xml version="1.0" encoding="UTF-8"?>
<svg width="800" height="167.31" version="1.1" xmlns="http://www.w3.org/2000/svg" xmlns:xlink="http://www.w3.org/1999/xlink">
 <defs>
  <linearGradient id="e" x1="202.14" x2="392.79" y1="162.88" y2="162.88" gradientTransform="matrix(1.3512 0 0 1.3512 -.60667 -139.17)" gradientUnits="userSpaceOnUse">
   <stop stop-color="#f8ee7c" offset="0"/>
   <stop stop-color="#ffd817" offset="1"/>
  </linearGradient>
 </defs>
 <path transform="matrix(1.3512 0 0 1.3512 0 -.21348)" d="m413.82 94.654c6.955 0 12.594 5.638 12.594 12.594 0 6.955-5.64 12.593-12.594 12.593s-12.595-5.637-12.595-12.592c0-6.956 5.64-12.594 12.594-12.594m-2.37-94.491v25.216h26.75v93.24h27.512v-93.068h28.027l-6.704-25.388zm85.597-6e-3h29.042l18.632 78.72 18.326-78.715h29.038l-33.133 118.28h-29.042z"/>
 <path d="m273.31 159.02c-1.943-5.0641 1.9132-26.468 6.445-35.762 5.8059-11.91 20.832-26.58 38.902-37.977 30.617-19.313 34.044-22.83 34.044-34.945 0-5.3641-0.68369-7.334-3.536-10.186-8.769-8.769-24.346-5.256-39.264 8.8514l-7.126 6.7395-30.266-21.902 10.652-10.642c16.902-16.881 30.541-22.499 54.649-22.507 26.851-0.009458 43.669 7.8326 52.092 24.291 3.4616 6.7625 4.1588 9.8431 4.5669 20.163 1.008 25.485-6.599 36.07-41.768 58.113-15.121 9.4783-24.875 17.169-27.138 21.4-1.343 2.5104-0.52695 2.5875 27.091 2.5875h28.474l8e-3 -12.521 8e-3 -12.521 37.411-49.748 37.412-49.747h46.992v97.365l26.396 0.77556 0.38102 15.906 0.38102 15.906h-27.158v27.074h-41.964v-27.074h-64.977v27.074h-20.085c-11.046 0-38.44 0.40129-60.873 0.89176-38.869 0.85393-40.834 0.77826-41.751-1.6052zm187.68-81.185c0-12.285-0.45669-22.302-1.0161-22.263-0.55802 0.04053-8.1677 10.09-16.911 22.335l-15.896 22.264h33.823z" fill="url(#e)" stroke-width="1.3512"/>
 <path d="m292.68 89.954c0-15.521-0.49317-23.159-3.6954-33.998l-26.853-20.448c2.7091-3.9413 7.1435-9.6067 10.347-13.303-13.303-12.566-30.795-21.186-52.722-21.186-22.624 0-51.871 10.066-67.905 36.562-0.1135-0.03378-0.22024-0.06756-0.33779-0.10134-15.026-26.854-43.604-36.707-70.213-36.707-38.678 0-81.299 20.692-81.299 83.267 0 62.083 42.867 83.023 81.299 83.023 26.115 0 54.2-9.6067 69.476-35.477 0.13242 0 0.25672-7e-3 0.38914-7e-3 -0.05 0.0838-0.0946 0.17024-0.14458 0.25402 14.538 25.621 41.883 35.476 69.968 35.476 15.273 0 29.809-1.9727 42.129-6.899 0-5.1722-0.24726-14.043 1.4768-23.896 1.9727-11.579 8.3771-21.681 8.3771-21.681-10.84 9.8553-29.563 18.723-48.287 18.723-20.204 0.24726-34.738-9.8553-37.203-36.461h105.2v-7.1419zm-211.13 43.358c-24.388 0-33.506-22.172-33.506-48.779 0-28.824 10.347-48.286 33.506-48.286 23.651 0 33.011 21.679 33.011 48.286 0 29.071-10.347 48.781-33.011 48.781m106.43-64.547c3.4508-23.405 16.507-33.259 31.289-33.259 17.984 0 28.085 10.84 30.55 33.259h-61.839z" clip-path="url(#b-5)" stroke-width="1.3512"/>
</svg>
