<?xml version="1.0" encoding="UTF-8"?>
<svg width="450" height="450" version="1.1" xmlns="http://www.w3.org/2000/svg">
	<path d="m225 30.15c-124.22 2e-6 -225 87.197-225 194.85 0 107.65 100.79 194.85 225 194.85s225-87.197 225-194.85c0-107.65-100.78-194.85-225-194.85zm0 1.1377c123.68 0 223.86 86.769 223.86 193.71 0 106.94-100.18 193.71-223.86 193.71s-223.86-86.769-223.86-193.71c5.8e-6 -106.94 100.18-193.71 223.86-193.71z"/>
	<path d="m223.76 0c-107.87-5.8025e-6 -195.24 100.78-195.24 225 0 124.22 87.373 225 195.24 225 107.87 0 195.25-100.78 195.25-225 0-124.22-87.376-225-195.25-225zm0 1.1377c107.16 0 194.11 100.18 194.11 223.86 0 123.68-86.947 223.86-194.11 223.86-107.16 1e-5 -194.11-100.18-194.11-223.86 2e-6 -123.68 86.945-223.86 194.11-223.86z"/>
	<path d="m126.02 111.81c-37.002 0-61.046 26.382-61.046 61.572 0 35.19 24.121 61.66 61.09 61.66 36.969 0 61.397-26.47 61.397-61.66 0-35.19-24.439-61.572-61.441-61.572zm0 7.7879c33.141 0 51.125 24.323 51.125 53.785 0 29.38-17.924 53.785-51.081 53.785-33.158 2e-5 -50.702-24.405-50.702-53.785 0-29.38 17.517-53.785 50.658-53.785zm209.13 25.57c-26.909 0-43.878 18.429-43.878 44.813 0 26.384 15.593 45.052 44.579 45.003 21.952 0 34.932-11.778 38.939-27.703h-8.9714c-4.0077 11.621-12.22 20.573-29.968 20.573-24.226 0-34.902-16.437-35.082-37.011l74.635-0.0291c0.17991-16.269-3.4265-28.557-14.305-37.347-6.4941-5.3194-15.268-8.2993-25.95-8.2993zm-87.668 0.11694c-16.8 0-27.808 6.9687-34.351 16.102h-0.3653v-14.392h-9.249v85.798h9.3513v-55.436c0-14.272 15.455-25.059 33.007-25.059 13.741 0 22.502 5.9819 22.502 20.091v60.33h9.2636v-61.251c0-17.055-13.358-26.184-30.158-26.184zm87.625 6.8528c21.74 0 30.123 15.101 30.728 32.057h-64.875c1.9139-18.086 12.798-32.028 34.161-32.028z"/>
	<path d="m215.8 250.19c-0.70756-0.012-1.4241-1e-3 -2.1333 0.0291-2.8882-8e-3 -5.772 0.17692-8.6354 0.55525-3.7623 0.55651-3.7551 1.6501-3.7551 3.9743v65.97c-0.0748 0.61075 0.0381 1.2298 0.33605 1.768 1.0384 1.0254 2.7021 1.0254 3.7405 0 0.29789-0.53818 0.42568-1.1572 0.35063-1.768v-30.815c1.5418 0.17827 3.0945 0.24494 4.6464 0.21921 2.8122 0.0113 5.6153-0.17327 8.4016-0.55524 0 0 3.0259 4.6445 6.2975 9.2928l15.824 22.136c0.63558 1.3725 2.0245 2.2361 3.536 2.2063 2.4373 0 2.5442-1.4422 1.4319-2.9807l-22.662-31.531c11.238-3.1098 16.146-10.18 16.146-19.477 0-7.7418-3.4343-12.743-9.176-15.722-4.5054-2.0973-9.3957-3.2194-14.348-3.3022zm64.319 0c-0.70821-0.012-1.4234-2e-3 -2.1333 0.0291-2.8827-7e-3 -5.7628 0.17744-8.6207 0.55525-3.7623 0.55651-3.7551 1.6501-3.7551 3.9743v65.97c-0.0711 0.60873 0.0367 1.2251 0.32146 1.768 1.044 1.0274 2.7258 1.0274 3.7697 0 0.28449-0.54282 0.39253-1.1592 0.32147-1.768l0.0291-30.815c1.5419 0.17738 3.0945 0.24404 4.6464 0.21921 2.8122 0.0128 5.63-0.17238 8.4162-0.55524 0 0 3.0405 4.6445 6.3121 9.2928l15.766 22.136c0.64455 1.3722 2.0355 2.2342 3.5506 2.2063 2.4373 0 2.5279-1.4422 1.4319-2.9807l-22.662-31.531c11.238-3.1098 16.146-10.18 16.146-19.477 0-7.7418-3.4343-12.743-9.176-15.722-4.51-2.099-9.4055-3.2207-14.363-3.3022zm71.508 0.0441c-1.224 0.0375-2.2596 0.90852-2.5278 2.104l-26.169 67.841c-0.24665 0.51373-0.40734 1.0684-0.45298 1.6365 0 0.90021 0.44534 1.4319 1.8849 1.4319 1.4395 0 1.9862-0.76366 2.5424-2.0894l10.506-27.44h27.484l10.111 27.411c0.55615 1.5549 1.1362 2.0894 2.6739 2.0894 1.5377 0 2.0894-0.64629 2.0894-1.4319-0.0546-0.56647-0.20071-1.1194-0.43831-1.6365l-25.146-67.812c-0.28009-1.1949-1.3311-2.0625-2.557-2.104zm-279.56 0.7598c-0.4835 0.0202-0.96585 0.14872-1.4027 0.36529-0.54268 0.35827-0.83046 0.98984-0.7598 1.6365-0.06209 0.62273 0.2275 1.2202 0.7598 1.5488 0.58644 0.27583 1.2398 0.38296 1.8849 0.32147h23.554v65.854c-0.07107 0.60874 0.0374 1.2251 0.32146 1.768 0.45971 0.55412 1.1689 0.8331 1.8849 0.75979 0.71683 0.0794 1.4288-0.20081 1.8849-0.75979 0.29819-0.53819 0.411-1.1572 0.33604-1.768v-65.868h23.568c0.64501 0.0599 1.2834-0.0471 1.8702-0.32147 0.53415-0.36553 0.83397-0.99173 0.77442-1.6365 0.0554-0.61711-0.24779-1.2083-0.77442-1.5342-0.583-0.28705-1.2235-0.41301-1.8702-0.35063h-51.549c-0.16174-0.0157-0.32101-0.0209-0.48215-0.0151zm101.83 0c-0.16115-7e-3 -0.32049-9.7e-4 -0.48215 0.0149h-27.426c-1.6521 0-2.2209 0.78059-2.2209 2.2209v67.11c0 1.424 0.58518 2.2063 2.2209 2.2063h31.181c0.64681 0.0621 1.3019-0.0493 1.8849-0.33605 0.53976-0.36073 0.84098-0.99046 0.77442-1.6365 0.0396-0.61852-0.259-1.2197-0.77442-1.5634-0.58689-0.27433-1.2399-0.38138-1.8849-0.32146h-28.974v-33.314h21.26c0.64509 0.0628 1.299-0.0441 1.8849-0.32147 0.54605-0.35669 0.85261-0.98713 0.78902-1.6365 0.0524-0.62054-0.25608-1.2126-0.78902-1.5342-0.58187-0.2905-1.2379-0.41662-1.8849-0.35065h-21.26v-26.68h25.219c0.64494 0.0599 1.298-0.0471 1.8849-0.32145 0.53975-0.36075 0.82637-0.99046 0.75979-1.6365 0.0555-0.61711-0.23311-1.2083-0.75979-1.5342-0.43726-0.2153-0.9193-0.34465-1.4027-0.3653zm39.363 2.995c10.731 0 21.143 3.6468 21.143 15.824 0 10.05-7.3149 16.599-23.787 16.599-1.6387 0.0119-3.279-0.0688-4.9094-0.23379l-0.0733-31.634c2.5245-0.36896 5.0764-0.55375 7.6274-0.55524zm64.319 0c10.731 0 21.113 3.6468 21.113 15.824 0 10.05-7.2857 16.599-23.758 16.599-1.6387 0.0119-3.2789-0.0695-4.9094-0.23379l-0.0877-31.634c2.5298-0.36844 5.0853-0.55314 7.6418-0.55524zm73.831 3.4191 12.054 32.54h-24.547z"/>
</svg>
