<?xml version="1.0" encoding="UTF-8"?>
<svg width="450" height="450" version="1.1" xmlns="http://www.w3.org/2000/svg">
	<path d="m225 29.961c-124.1 2e-6 -225 87.18-225 195.04 0 107.86 100.9 195.04 225 195.04 124.1 0 225-87.182 225-195.04 0-107.86-100.9-195.04-225-195.04zm0 3.9428c122.26 0 221.05 85.699 221.05 191.1 0 105.4-98.804 191.1-221.05 191.1-122.26 0-221.06-85.699-221.06-191.1 5.5e-6 -105.4 98.806-191.1 221.06-191.1z"/>
	<path d="m223.76 0c-108.07-5.7987e-6 -195.43 100.9-195.43 225 0 124.1 87.356 225 195.43 225 108.07 0 195.43-100.9 195.43-225 0-124.1-87.36-225-195.43-225zm0 3.9428c105.62-1e-7 191.49 98.807 191.49 221.06 0 122.26-85.874 221.05-191.49 221.05-105.62 1e-5 -191.48-98.805-191.48-221.05 2e-6 -122.26 85.87-221.06 191.48-221.06z" fill="#767676"/>
	<path d="m126.64 112.51c-36.771 0-60.665 26.217-60.665 61.187 0 34.97 23.971 61.275 60.708 61.275 36.738 0 61.013-26.305 61.013-61.275 0-34.97-24.287-61.187-61.057-61.187zm0 7.7392c32.935 0 50.806 24.171 50.806 53.448 0 29.196-17.812 53.448-50.763 53.448-32.95 1e-5 -50.385-24.252-50.385-53.448s17.408-53.448 50.341-53.448zm207.83 25.411c-26.741 0-43.604 18.314-43.604 44.533s15.496 44.771 44.3 44.722c21.815 0 34.714-11.704 38.696-27.531h-8.9153c-3.9826 11.548-12.143 20.444-29.781 20.444-24.075 0-34.683-16.335-34.862-36.78l74.169-0.0289c0.17878-16.168-3.4052-28.379-14.216-37.114-6.4535-5.2861-15.173-8.2474-25.787-8.2474zm-87.121 0.11621c-16.694 0-27.634 6.9252-34.137 16.002h-0.36302v-14.302h-9.1912v85.262h9.2929v-55.089c0-14.183 15.358-24.902 32.801-24.902 13.655 0 22.361 5.9445 22.361 19.965v59.953h9.2058v-60.868c0-16.949-13.274-26.02-29.97-26.02zm87.077 6.8099c21.604 0 29.934 15.006 30.536 31.857h-64.469c1.9019-17.973 12.718-31.828 33.948-31.828z" fill="#767676"/>
	<path d="m215.86 250.03c-0.70314-0.012-1.4152-1e-3 -2.12 0.0289-2.8701-8e-3 -5.7359 0.17582-8.5814 0.55178-3.7388 0.55304-3.7316 1.6398-3.7316 3.9495v65.559c-0.0743 0.60694 0.0379 1.2222 0.33395 1.757 1.0319 1.019 2.6852 1.019 3.7171 0 0.29603-0.53483 0.42302-1.15 0.34844-1.757v-30.623c1.5322 0.17716 3.0752 0.24341 4.6174 0.21783 2.7947 0.0113 5.5802-0.17217 8.349-0.55176 0 0 3.007 4.6155 6.2582 9.2348l15.725 21.998c0.63161 1.364 2.0118 2.2221 3.5139 2.1925 2.4221 0 2.5284-1.4332 1.4229-2.9621l-22.52-31.334c11.168-3.0904 16.044-10.117 16.044-19.355 0-7.6935-3.4129-12.664-9.1186-15.624-4.4773-2.0842-9.337-3.1993-14.258-3.2816zm63.918 0c-0.7038-0.012-1.4145-2e-3 -2.12 0.0289-2.8648-7e-3 -5.7268 0.17634-8.5669 0.55178-3.7388 0.55304-3.7316 1.6398-3.7316 3.9495v65.559c-0.0706 0.60492 0.0364 1.2174 0.31945 1.757 1.0374 1.021 2.7088 1.021 3.7462 0 0.28271-0.53945 0.39006-1.152 0.31945-1.757l0.0289-30.623c1.5322 0.17628 3.0752 0.24251 4.6174 0.21783 2.7947 0.0127 5.5949-0.17128 8.3636-0.55176 0 0 3.0215 4.6155 6.2727 9.2348l15.668 21.998c0.64054 1.3637 2.0228 2.2203 3.5284 2.1925 2.4221 0 2.512-1.4332 1.4229-2.9621l-22.52-31.334c11.168-3.0904 16.044-10.117 16.044-19.355 0-7.6935-3.4129-12.664-9.1186-15.624-4.4818-2.0859-9.3467-3.2006-14.273-3.2815zm71.062 0.0439c-1.2163 0.0372-2.2455 0.90284-2.5119 2.0909l-26.006 67.417c-0.24512 0.51052-0.40481 1.0617-0.45015 1.6263 0 0.89459 0.44256 1.4229 1.8731 1.4229 1.4305 0 1.9738-0.75889 2.5264-2.0764l10.44-27.269h27.312l10.048 27.239c0.55266 1.5452 1.1292 2.0764 2.6571 2.0764 1.5281 0 2.0764-0.64225 2.0764-1.4229-0.0542-0.56293-0.19946-1.1124-0.43557-1.6263l-24.989-67.388c-0.27835-1.1874-1.3228-2.0497-2.5411-2.0909zm-277.81 0.75506c-0.48048 0.02-0.95981 0.14778-1.3939 0.363-0.53929 0.35604-0.82527 0.98365-0.75505 1.6263-0.0617 0.61884 0.22608 1.2126 0.75505 1.5391 0.58278 0.27409 1.2321 0.38056 1.8731 0.31945h23.406v65.442c-0.07063 0.60493 0.03717 1.2175 0.31945 1.757 0.45684 0.55065 1.1616 0.82789 1.8731 0.75504 0.71235 0.0789 1.4199-0.19955 1.8731-0.75504 0.29632-0.53483 0.40844-1.15 0.33394-1.757v-65.456h23.421c0.64098 0.0595 1.2754-0.0468 1.8586-0.31947 0.53081-0.36324 0.82876-0.98553 0.76958-1.6263 0.0551-0.61326-0.24624-1.2008-0.76958-1.5246-0.57935-0.28525-1.2159-0.41043-1.8586-0.34844h-51.227c-0.16073-0.0157-0.31901-0.0209-0.47914-0.015zm101.19 0c-0.16015-7e-3 -0.3185-9.7e-4 -0.47914 0.0149h-27.254c-1.6418 0-2.207 0.77572-2.207 2.207v66.691c0 1.4151 0.58152 2.1925 2.207 2.1925h30.986c0.64276 0.0618 1.2937-0.0491 1.8731-0.33396 0.53639-0.35847 0.83573-0.98426 0.76958-1.6263 0.0394-0.61466-0.25739-1.2122-0.76958-1.5536-0.58322-0.27262-1.2322-0.379-1.8731-0.31946h-28.794v-33.106h21.127c0.64106 0.0625 1.2909-0.0439 1.8731-0.31946 0.54264-0.35446 0.84729-0.98096 0.7841-1.6262 0.0521-0.61668-0.25449-1.205-0.7841-1.5246-0.57824-0.28868-1.2302-0.41401-1.8731-0.34845h-21.127v-26.514h25.062c0.64091 0.0595 1.2899-0.0468 1.8731-0.31945 0.53636-0.35849 0.8212-0.98427 0.75504-1.6262 0.0551-0.61326-0.23166-1.2008-0.75504-1.5246-0.43454-0.21396-0.91356-0.3425-1.3939-0.36301zm39.117 2.9763c10.664 0 21.011 3.624 21.011 15.725 0 9.9869-7.2692 16.494-23.639 16.494-1.6285 0.0118-3.2585-0.0684-4.8788-0.23233l-0.0729-31.437c2.5087-0.36666 5.0447-0.55029 7.5798-0.55177zm63.918 0c10.664 0 20.982 3.624 20.982 15.725 0 9.9869-7.2401 16.494-23.61 16.494-1.6285 0.0118-3.2584-0.069-4.8788-0.23233l-0.0872-31.437c2.514-0.36615 5.0536-0.54969 7.594-0.55177zm73.37 3.3977 11.979 32.336h-24.394z"/>
</svg>
