<?xml version="1.0" encoding="UTF-8"?>
<svg width="800" height="173.85" version="1.1" xmlns="http://www.w3.org/2000/svg">
	<path d="m0 1.239h401.2v171.38h-401.2z" fill="#d8001a"/>
	<path d="m109.94 87.043a26.81 26.81 0 1 1-26.81-27.071 27.451 27.451 0 0 1 26.81 27.071m24.105 0a51.103 51.103 0 1 0-50.906 49.435 49.826 49.826 0 0 0 50.906-49.435m95.567-13.668c0 6.629-3.0132 11.426-13.254 11.426h-23.792v-22.572h23.792c10.24 0 13.254 5.12 13.254 11.146m28.31 61.748-23.792-33.545a30.513 30.513 0 0 0 18.971-28.198c0-18.981-14.16-33.748-35.238-33.748h-48.799v95.455h23.493v-27.861h17.467l18.677 27.861zm111.37-72.948v-22.592h-77.728v95.455h23.493v-32.05h44.281v-22.466h-44.272v-18.369z" fill="#fff"/>
	<g fill="#454544">
		<path d="m521.27 0v173.85l-35.689-14.083v-145.56z"/>
		<path d="m579.36 0v173.85l-35.689-14.083v-145.56z"/>
		<path d="m463.22 0v173.85l-35.689-14.087v-145.55z"/>
	</g>
	<path d="m682.8 134.94v-95.983h-23.539v35.613h-39.126v-35.613h-23.536v95.983h23.536v-37.75h39.126v37.75zm117.2-47.991c0-25.372-19.565-47.991-51.199-47.991h-43.866v95.983h43.866c31.026 0 51.199-22.619 51.199-47.991m-23.536 0c0 13.907-10.395 25.372-27.664 25.372h-20.481v-50.745h20.481c17.269 0 27.664 11.465 27.664 25.372m-4.3418-53.053c3.4861 1.295 6.7041 2.9039 9.7452 4.7241v-37.343h-171.34v27.981h9.7453v-18.236h151.85zm-151.85 111.09h-9.7453v27.63h171.34v-37.265c-3.0479 1.8467-6.2692 3.4862-9.7452 4.8043v22.716h-151.85z" fill="#d8001a"/>
</svg>
