<?xml version="1.0" encoding="UTF-8"?>
<svg width="800" height="174.61" version="1.1" xmlns="http://www.w3.org/2000/svg">
	<g>
		<path d="m440.52 1.3981e-6v58.2h58.239v116.41h58.239v-174.61z" fill="#141312"/>
		<path d="m0 0h408.1v174.61h-408.1z" fill="#d8001a"/>
		<path d="m375.7 61.58v-22.899h-79.233v97.182h23.899v-32.741h45.124v-22.899h-45.124v-18.646zm-156.81 23.094h-24.196v-23.079h24.201c10.398 0 13.505 5.1113 13.505 11.462 0 6.5013-3.1068 11.618-13.505 11.618m37.393-11.618c0-19.363-14.271-34.379-35.999-34.379h-49.494v97.245h23.899v-28.332h17.841l18.772 28.332h29.79l-24.045-34.063a31.214 31.214 0 0 0 19.236-28.8m-171.88 41.803a27.561 27.561 0 1 1 27.312-27.556 27.893 27.893 0 0 1-27.312 27.556m0-78.035a50.499 50.499 0 1 0 51.971 50.489 50.767 50.767 0 0 0-51.971-50.489" fill="#fff"/>
	</g>
	<g fill="#d8001a">
		<path d="m679.63 137v-98.698h-24.16v36.583h-40.267v-36.583h-24.16v98.612h24.16v-38.811h40.182v38.811zm120.37-49.349c0-26.045-20.134-49.349-52.604-49.349h-45.065v98.612h45.065c31.871 0.08569 52.604-23.218 52.604-49.263m-24.16 0c0 14.308-10.709 26.045-28.444 26.045h-21.076v-52.09h21.076c17.735 0 28.444 11.737 28.444 26.045"/>
		<path d="m771.04 10.025v23.475c3.5983 1.3708 6.8539 2.9986 10.024 4.8835v-38.382h-176.06v28.787h10.024v-18.763"/>
		<path d="m605 174.61h176.06v-38.297c-3.17 1.8848-6.4256 3.5984-10.024 4.9692v23.304h-156.01v-18.334h-10.024"/>
	</g>
</svg>
