<svg xmlns="http://www.w3.org/2000/svg" width="767.571" height="250.461" viewBox="0 0 203.086 66.268"><defs><filter id="a" color-interpolation-filters="sRGB"><feFlood flood-opacity="1" flood-color="#162781" result="flood"/><feComposite in="flood" in2="SourceGraphic" operator="in" result="composite1"/><feGaussianBlur in="composite1" stdDeviation=".1" result="blur"/><feOffset dx=".2" dy=".2" result="offset"/><feComposite in="SourceGraphic" in2="offset" result="composite2"/></filter></defs><path d="M12.169 34.421l-9.432 8.047h140.484l4.647-8.047h-12.5z" fill="#97be0d"/><path d="M140.493 34.421l-6.207 31.847h9.353l2.5-12.867h9.997l-2.5 12.867h9.354l6.208-31.847h-9.356l-2.235 11.566H147.59l2.257-11.566zm35.29 0l-6.208 31.847h9.163c4.937 0 8.604-.304 11.086-.96 2.466-.649 4.65-1.749 6.524-3.295a17.663 17.663 0 0 0 4.96-6.382c1.185-2.537 1.778-5.247 1.778-8.102 0-2.061-.346-3.934-1.054-5.597l-.001-.002a11.218 11.218 0 0 0-3.174-4.283l-.002-.001c-1.403-1.184-3.152-2.011-5.21-2.494-2.075-.5-5.056-.73-9.013-.73zm7.942 7.415h2.127c2.627 0 4.489.58 5.686 1.624l.001.001.002.001c1.213 1.048 1.834 2.568 1.834 4.778 0 3.33-.987 5.854-2.96 7.753-1.974 1.898-4.635 2.86-8.14 2.86h-1.893z" style="line-height:1.25;-inkscape-font-specification:'DejaVu Sans Bold Italic'" font-style="italic" font-weight="700" font-size="41.628" font-family="DejaVu Sans" letter-spacing=".41" word-spacing="0" fill="#97be0d"/><g aria-label="Der Beratungs- &amp; Shopping-Sender" transform="translate(-1.157 -98.213)" style="line-height:1.25" font-weight="700" font-size="8.114" font-family="Noto Sans" letter-spacing=".026" word-spacing="-.622" fill="#fff" stroke="#fafafa" stroke-width=".01" filter="url(#a)" font-style="italic"><path d="M14.295 139.441l1.225-5.793h1.566q1.063 0 1.647.568.593.56.593 1.622 0 1.104-.382 1.915-.373.804-1.103 1.25-.722.438-1.761.438zm1.42-1.014h.422q.665 0 1.095-.35.43-.356.641-.932.211-.576.211-1.242 0-.64-.3-.94-.292-.31-.811-.31h-.455zM21.719 139.522q-.78 0-1.266-.422-.487-.422-.487-1.29 0-.56.154-1.071.163-.52.47-.925.317-.406.78-.641.462-.243 1.07-.243.74 0 1.113.34.373.341.373.869 0 .697-.633 1.12-.625.421-1.915.421h-.203q-.008.049-.008.09v.072q0 .357.203.568.203.211.584.211.349 0 .633-.073.284-.08.673-.267v.9q-.348.17-.714.26-.357.081-.827.081zm-.414-2.645h.178q.69 0 .99-.211.309-.22.309-.503 0-.373-.414-.373-.227 0-.446.138-.211.138-.382.381-.162.243-.235.568zM24.298 139.441l.941-4.43h.909l-.081.82h.04q.268-.423.609-.658.34-.243.77-.243.098 0 .203.016.114.008.179.024l-.26 1.152q-.065-.024-.17-.04-.106-.025-.227-.025-.447 0-.804.357-.348.35-.495 1.047l-.421 1.98zM29.324 139.441l1.225-5.793h1.687q.828 0 1.331.3t.503.99q0 .592-.332.973-.333.382-.934.512v.032q.398.105.633.39.236.275.236.705 0 .658-.3 1.08-.3.413-.82.616-.52.195-1.16.195zm1.947-3.497h.592q.43 0 .69-.17.268-.179.268-.577 0-.543-.674-.543h-.6zm-.528 2.483h.714q.447 0 .715-.22.275-.227.275-.648 0-.309-.178-.471-.179-.17-.544-.17h-.657zM36.272 139.522q-.779 0-1.266-.422t-.487-1.29q0-.56.154-1.071.163-.52.471-.925.316-.406.779-.641.462-.243 1.071-.243.738 0 1.112.34.373.341.373.869 0 .697-.633 1.12-.625.421-1.915.421h-.203q-.008.049-.008.09v.072q0 .357.203.568.203.211.584.211.35 0 .633-.073.284-.08.674-.267v.9q-.35.17-.714.26-.357.081-.828.081zm-.414-2.645h.179q.69 0 .99-.211.308-.22.308-.503 0-.373-.414-.373-.227 0-.446.138-.211.138-.382.381-.162.243-.235.568zM38.85 139.441l.942-4.43h.909l-.081.82h.04q.268-.423.609-.658.34-.243.77-.243.098 0 .204.016.113.008.178.024l-.26 1.152q-.065-.024-.17-.04-.105-.025-.227-.025-.446 0-.803.357-.35.35-.495 1.047l-.422 1.98zM43.602 139.522q-.325 0-.609-.154-.284-.162-.462-.511-.179-.357-.179-.941 0-.544.147-1.071.146-.528.413-.958.268-.438.641-.698.382-.26.852-.26.422 0 .682.18.268.178.414.47h.032l.227-.568h.917l-.941 4.43h-.893l.057-.576h-.032q-.235.292-.544.479-.3.178-.722.178zm.47-.965q.244 0 .455-.195.211-.195.357-.495.154-.308.22-.657.056-.292.056-.666 0-.284-.146-.462-.146-.187-.406-.187-.219 0-.414.179-.186.17-.332.454-.138.284-.22.633-.08.349-.08.698 0 .698.51.698zM48.462 139.522q-.52 0-.836-.219-.316-.227-.316-.803 0-.203.048-.446l.455-2.134h-.6l.113-.585.779-.332.52-.933h.77l-.195.94h1.12l-.195.91h-1.12l-.454 2.134q-.024.121-.024.21 0 .155.097.228.098.065.252.065.162 0 .308-.033.154-.04.333-.105v.892q-.187.09-.463.146-.267.065-.592.065zM51.76 139.522q-.577 0-.853-.34-.276-.35-.276-.934 0-.146.025-.373.024-.235.073-.47l.503-2.394h1.193l-.544 2.588q-.065.284-.065.47 0 .488.43.488.268 0 .487-.228.219-.235.381-.624.162-.39.26-.86l.39-1.834h1.192l-.941 4.43h-.909l.081-.82h-.04q-.26.398-.593.65-.332.251-.795.251zM55.262 139.441l.941-4.43h.91l-.082.82h.032q.26-.398.593-.65.34-.251.803-.251.568 0 .852.349.292.34.292.925 0 .292-.09.714l-.527 2.523h-1.192l.543-2.588q.065-.284.065-.471 0-.487-.43-.487-.276 0-.495.235-.21.228-.373.617-.154.39-.26.86l-.39 1.834zM61.589 141.388q-.495 0-.82-.073-.324-.073-.625-.21v-1.04q.309.163.65.252.349.09.73.09.414 0 .673-.195.26-.187.374-.592l.032-.122q.032-.138.081-.284l.081-.26.033-.105h-.033q-.21.276-.487.478-.275.195-.69.195-.316 0-.592-.17-.267-.17-.438-.52-.162-.356-.162-.916 0-.544.146-1.071.146-.528.414-.958.268-.438.64-.698.374-.26.829-.26.43 0 .673.18.252.17.446.47h.033l.227-.568h.917l-.966 4.536q-.146.697-.454 1.095-.3.406-.739.576-.43.17-.973.17zm.576-2.831q.251 0 .438-.187.195-.195.325-.495.138-.3.202-.641.073-.34.073-.641 0-.316-.146-.503-.146-.195-.397-.195-.227 0-.422.179-.187.17-.333.454-.138.284-.219.633-.081.349-.081.698t.146.527q.154.17.414.17zM66.303 139.522q-.43 0-.747-.065-.308-.057-.584-.194v-.982q.3.17.617.267.316.09.649.09.284 0 .503-.114.219-.122.219-.365 0-.162-.13-.292-.13-.13-.535-.357-.414-.227-.641-.487-.22-.26-.22-.681 0-.69.447-1.047.446-.365 1.241-.365.382 0 .739.089.357.081.697.284l-.39.852q-.234-.138-.502-.235-.26-.098-.52-.098-.194 0-.348.098-.155.089-.155.275 0 .163.13.276.13.114.47.292.398.211.658.487.268.276.268.73 0 .763-.511 1.153-.503.39-1.355.39zM68.906 137.761l.211-.99h2.077l-.21.99zM74.876 139.522q-.82 0-1.266-.39-.446-.389-.446-1.111 0-.609.341-1.014.34-.406 1.055-.763-.3-.503-.3-1.022 0-.552.227-.917.227-.373.616-.56.39-.187.877-.187.503 0 .82.17.324.171.47.447.146.276.146.6 0 .6-.39 1.007-.38.405-1.054.681l.77 1.039q.228-.284.366-.56.138-.284.267-.609h1.185q-.243.576-.544 1.071-.292.495-.681.901l.811 1.136H76.76l-.284-.39q-.317.211-.706.341-.382.13-.893.13zm.641-3.724q.325-.162.552-.365.235-.211.235-.52 0-.227-.121-.324-.122-.106-.276-.106-.276 0-.414.195-.138.195-.138.463 0 .178.049.365.048.186.113.292zm-.462 2.71q.26 0 .478-.065.22-.073.398-.17l-.892-1.299q-.284.163-.455.374-.17.21-.17.56 0 .235.162.421.17.179.479.179zM81.761 139.522q-.438 0-.803-.097-.357-.098-.609-.26v-1.087q.357.203.706.316.349.114.714.114.398 0 .665-.154.276-.154.276-.479 0-.333-.194-.52-.195-.194-.503-.421-.244-.17-.471-.39-.227-.227-.373-.519-.146-.3-.146-.698 0-.511.243-.909.243-.397.69-.624.454-.228 1.055-.228.454 0 .835.098.382.097.739.292l-.43.925q-.625-.292-1.144-.292-.325 0-.536.178-.21.17-.21.47 0 .31.186.496.186.178.527.406.479.316.714.697.244.382.244.893 0 .608-.3 1.006-.293.398-.788.592-.487.195-1.087.195zM84.654 139.441l1.306-6.167h1.193l-.227 1.071q-.041.187-.098.406-.057.22-.113.414-.057.195-.098.316l-.04.122h.032q.244-.3.544-.487.3-.186.698-.186.568 0 .852.349.292.34.292.925 0 .292-.09.714l-.527 2.523h-1.193l.544-2.588q.065-.284.065-.471 0-.487-.43-.487-.276 0-.495.235-.211.228-.373.617-.155.39-.26.86l-.39 1.834zM91.483 139.522q-.495 0-.884-.203-.381-.21-.6-.592-.211-.381-.211-.909 0-.584.146-1.103.146-.528.438-.925.292-.406.73-.633.446-.227 1.039-.227.77 0 1.225.462.454.463.454 1.29 0 .56-.138 1.071-.138.511-.43.91-.284.397-.73.632-.438.227-1.039.227zm.098-.974q.332 0 .56-.267.235-.268.357-.69.121-.43.121-.909 0-.332-.13-.552-.121-.227-.438-.227-.267 0-.47.187-.203.178-.333.47-.13.293-.195.625-.065.333-.065.633 0 .73.593.73zM93.943 141.388l1.355-6.377h.909l-.065.673h.032q.211-.284.52-.52.308-.234.738-.234.317 0 .6.162.293.154.471.511.179.349.179.941 0 .536-.146 1.071-.146.528-.414.958-.268.43-.65.69-.373.26-.843.26-.406 0-.625-.187-.22-.187-.381-.463h-.033q-.024.325-.065.592-.04.268-.105.576l-.284 1.347zm2.483-2.831q.219 0 .406-.17.194-.18.332-.463.146-.284.227-.633.082-.35.082-.698 0-.698-.52-.698-.292 0-.495.211-.202.211-.332.528-.13.316-.195.649-.057.332-.057.576 0 .316.146.51.154.188.406.188zM98.803 141.388l1.355-6.377h.908l-.065.673h.033q.21-.284.52-.52.308-.234.738-.234.316 0 .6.162.292.154.47.511.18.349.18.941 0 .536-.147 1.071-.146.528-.414.958-.268.43-.649.69-.373.26-.844.26-.405 0-.625-.187-.219-.187-.38-.463h-.033q-.025.325-.065.592-.04.268-.106.576l-.284 1.347zm2.482-2.831q.22 0 .406-.17.195-.18.333-.463.146-.284.227-.633.081-.35.081-.698 0-.698-.52-.698-.291 0-.494.211t-.333.528q-.13.316-.195.649-.056.332-.056.576 0 .316.146.51.154.188.405.188zM105.804 134.459q-.251 0-.43-.105-.17-.114-.17-.382 0-.34.186-.52.195-.178.536-.178.235 0 .414.106.178.105.178.373 0 .317-.178.511-.17.195-.536.195zm-1.728 4.982l.941-4.43h1.193l-.941 4.43zM106.51 139.441l.942-4.43h.909l-.081.82h.032q.26-.398.592-.65.341-.251.804-.251.568 0 .852.349.292.34.292.925 0 .292-.09.714l-.527 2.523h-1.193l.544-2.588q.065-.284.065-.471 0-.487-.43-.487-.276 0-.495.235-.211.228-.373.617-.155.39-.26.86l-.39 1.834zM112.837 141.388q-.495 0-.82-.073-.324-.073-.624-.21v-1.04q.308.163.65.252.348.09.73.09.413 0 .673-.195.26-.187.373-.592l.033-.122q.032-.138.08-.284.05-.154.082-.26l.032-.105h-.032q-.211.276-.487.478-.276.195-.69.195-.316 0-.592-.17-.268-.17-.438-.52-.162-.356-.162-.916 0-.544.146-1.071.146-.528.413-.958.268-.438.641-.698.374-.26.828-.26.43 0 .674.18.251.17.446.47h.032l.228-.568h.916l-.965 4.536q-.146.697-.455 1.095-.3.406-.738.576-.43.17-.974.17zm.577-2.831q.251 0 .438-.187.194-.195.324-.495.138-.3.203-.641.073-.34.073-.641 0-.316-.146-.503-.146-.195-.398-.195-.227 0-.421.179-.187.17-.333.454-.138.284-.22.633-.08.349-.08.698t.146.527q.154.17.414.17zM116.294 137.761l.21-.99h2.078l-.211.99zM120.346 139.522q-.438 0-.803-.097-.357-.098-.609-.26v-1.087q.357.203.706.316.35.114.714.114.398 0 .666-.154.276-.154.276-.479 0-.333-.195-.52-.195-.194-.503-.421-.244-.17-.47-.39-.228-.227-.374-.519-.146-.3-.146-.698 0-.511.243-.909.244-.397.69-.624.454-.228 1.055-.228.454 0 .836.098.381.097.738.292l-.43.925q-.625-.292-1.144-.292-.325 0-.536.178-.21.17-.21.47 0 .31.186.496.187.178.527.406.48.316.714.697.244.382.244.893 0 .608-.3 1.006-.292.398-.787.592-.487.195-1.088.195zM125.203 139.522q-.78 0-1.266-.422-.487-.422-.487-1.29 0-.56.154-1.071.162-.52.47-.925.317-.406.78-.641.462-.243 1.07-.243.74 0 1.112.34.374.341.374.869 0 .697-.633 1.12-.625.421-1.915.421h-.203q-.008.049-.008.09v.072q0 .357.203.568.203.211.584.211.349 0 .633-.073.284-.08.673-.267v.9q-.349.17-.714.26-.357.081-.827.081zm-.414-2.645h.178q.69 0 .99-.211.308-.22.308-.503 0-.373-.413-.373-.228 0-.447.138-.21.138-.381.381-.162.243-.235.568zM127.782 139.441l.94-4.43h.91l-.082.82h.033q.26-.398.592-.65.341-.251.804-.251.568 0 .852.349.292.34.292.925 0 .292-.09.714l-.527 2.523h-1.193l.544-2.588q.065-.284.065-.471 0-.487-.43-.487-.276 0-.495.235-.211.228-.374.617-.154.39-.26.86l-.389 1.834zM134.165 139.522q-.325 0-.609-.154-.284-.162-.462-.511-.179-.357-.179-.95 0-.535.146-1.062.147-.536.414-.966.268-.43.641-.69.382-.26.852-.26.398 0 .625.187.227.187.381.463h.033q0-.025.008-.17.016-.155.04-.35.025-.194.057-.365l.3-1.42h1.193l-1.306 6.167h-.909l.073-.576h-.032q-.236.292-.544.479-.3.178-.722.178zm.503-.965q.276 0 .479-.211.203-.22.324-.536.13-.324.187-.649.065-.333.065-.568 0-.316-.146-.503-.146-.195-.406-.195-.219 0-.414.179-.186.17-.332.454-.138.284-.22.633-.08.349-.08.698 0 .698.543.698zM139.512 139.522q-.78 0-1.266-.422-.487-.422-.487-1.29 0-.56.154-1.071.163-.52.47-.925.317-.406.78-.641.462-.243 1.07-.243.74 0 1.113.34.373.341.373.869 0 .697-.633 1.12-.625.421-1.915.421h-.203q-.008.049-.008.09v.072q0 .357.203.568.203.211.584.211.35 0 .633-.073.284-.08.674-.267v.9q-.35.17-.715.26-.357.081-.827.081zm-.414-2.645h.178q.69 0 .99-.211.309-.22.309-.503 0-.373-.414-.373-.227 0-.446.138-.211.138-.382.381-.162.243-.235.568zM142.09 139.441l.942-4.43h.909l-.081.82h.04q.268-.423.609-.658.34-.243.77-.243.098 0 .203.016.114.008.179.024l-.26 1.152q-.065-.024-.17-.04-.106-.025-.227-.025-.447 0-.804.357-.348.35-.495 1.047l-.421 1.98z" style="-inkscape-font-specification:'Noto Sans Bold Italic'"/></g><path d="M134.23 3.31l-8.06 1.974-.903 3.929-2.654.002-1.15 5.604h2.601l-1.767 8.914c-.175 1.223-.172 2.854.006 3.453.53 1.786 1.98 2.92 4.258 3.333.774.14 3.395.168 4.413.047a14.349 14.349 0 0 0 1.946-.403l1.016-5.725-1.287-.085c-1.339-.085-1.708-.115-2.049-.582-.216-.296-.274-1.073-.142-1.931.151-.99 1.572-7.021 1.572-7.021h4.449l1.166-5.606h-4.512zm4.215 5.903l3.749 20.95h8.132l12.512-20.95h-8.812l-6.122 13.506-1.286-13.506zm-24.222 12.259a4.496 4.955 60.392 0 0-1.44.262 4.496 4.955 60.392 0 0-3.457 5.865l.03.104a4.496 4.955 60.392 0 0 5.957 2.705 4.496 4.955 60.392 0 0 3.385-5.898 4.496 4.955 60.392 0 0-4.475-3.038z" fill="#97be0d"/><path d="M6.429 24.335c1.55-7.628 1.912-9.596 2.367-12.861.142-1.025.32-2.261.32-2.261h6.962l-.125 1.16c-.195 1.722-.22 1.656.402 1.033 1.069-1.069 2.509-1.888 4.084-2.322.78-.215.963-.233 2.329-.228 1.359.005 1.543.024 2.227.233 2.045.625 3.386 1.785 4.288 3.71 1.096 2.341 1.125 5.586.079 8.833-.341 1.058-1.233 2.81-1.916 3.763-1.959 2.733-4.968 4.556-8.343 5.052-1.916.281-4.209.066-5.538-.52l-.439-.193-.074.352c-.04.194-.262 1.3-.492 2.455l-.391 1.88-9.431 8.047c1.211-6.13 2.52-12.372 3.69-18.133zm11.683.504c.751-.354 1.312-.82 1.88-1.562 1.175-1.539 1.929-3.784 1.929-5.745 0-1.318-.43-2.215-1.27-2.655-.43-.225-.522-.241-1.192-.21-.99.045-1.518.304-2.374 1.166-.518.523-.729.819-1.078 1.517-.608 1.213-.813 1.944-1.28 4.547-.454 2.534-.462 2.38.147 2.757.916.566 2.265.643 3.238.185zm22.182 5.632c-1.562-.177-3.247-.675-4.318-1.277-2.706-1.52-4.09-4.333-3.95-8.027.125-3.29 1.412-6.265 3.7-8.549 2.493-2.488 5.855-3.814 9.672-3.812 1.933 0 3.416.312 4.846 1.016 1.788.881 2.914 2.198 3.403 3.979.113.414.149.843.143 1.735-.006 1.043-.034 1.268-.231 1.87-.366 1.112-1.055 2.06-2.036 2.797-2.008 1.51-5.47 2.306-10.185 2.345-2.11.017-2.023-.014-1.717.619.229.472.74.924 1.382 1.223.9.42 1.425.52 2.946.564 2.175.064 3.851-.182 5.727-.84.528-.186.97-.325.982-.309l.338 5.144c-.305.28-2.797 1.006-4.352 1.269-1.923.324-4.73.436-6.35.253zm2.099-13.2c1.656-.1 2.507-.26 3.21-.6.608-.292.877-.618.934-1.128.05-.438-.12-.804-.507-1.091-.417-.31-.776-.397-1.627-.397-1.275 0-2.353.427-3.175 1.258-.483.488-.955 1.277-1.06 1.768l-.057.276.451-.001c.248 0 1.072-.039 1.83-.085zm18.133 13.172c-3.22-.67-5.23-3.22-5.392-6.834-.166-3.744 1.206-7.487 3.702-10.092 2.145-2.241 4.742-3.611 8.128-4.289 3.019-.604 6.52-.56 10.045.126 1.489.29 2.4.55 2.4.684 0 .063-.513 2.585-1.14 5.605-.629 3.02-1.217 5.946-1.308 6.502a54.96 54.96 0 0 0-.652 6.578l-.058 1.44h-7.086c.007-.631.057-1.24.092-1.755.05-.746.079-1.49.063-1.653l-.028-.295-.421.592c-1.135 1.595-2.824 2.78-4.66 3.268-.865.23-2.854.297-3.685.123zm6.194-5.987c1.083-.577 2.033-2 2.648-3.967.269-.86 1.363-6.082 1.29-6.155-.016-.015-.387-.051-.824-.079-1.03-.066-1.638.051-2.532.488-.6.292-.854.486-1.524 1.165-1.138 1.152-1.839 2.415-2.3 4.141-.239.897-.262 2.5-.045 3.122.525 1.505 1.88 2.035 3.287 1.285zm12.815 5.495s2.25-10.988 2.463-12.082c.55-3.234 1.13-8.656 1.13-8.656h6.709l-.253 4.082c.021.134.156-.008.578-.607.725-1.03 1.69-1.984 2.642-2.61 1.404-.926 2.712-1.295 4.436-1.255l1.025.025-.662 3.048c-.364 1.676-.703 3.242-.753 3.48l-.091.434-1.203.048c-1.338.054-1.917.18-2.812.613-1.152.557-2.032 1.466-2.743 2.833-.688 1.322-.89 2.096-2.048 7.81l-.617 3.049h-7.85l.05-.212zM102.98 0h7.823l-6.236 30.163h-7.822z" fill="#162781"/></svg>