<svg xmlns="http://www.w3.org/2000/svg" width="800" height="245.616" fill-rule="evenodd"><path d="M761.699 33.601c12.011 0 21.396 3.64 28.158 10.921S800 61.908 800 74.84c0 13.033-3.382 23.189-10.143 30.47s-16.147 10.921-28.158 10.921-21.396-3.64-28.158-10.921-10.143-17.438-10.143-30.47c0-12.933 3.382-23.039 10.143-30.318s16.149-10.921 28.158-10.921zm0 17.106c-10.597 0-15.895 8.044-15.895 24.133 0 16.189 5.298 24.284 15.895 24.284s15.896-8.095 15.896-24.284c0-16.089-5.3-24.133-15.896-24.133zm-79.792-16.384c9.189 0 16.382 2.247 21.564 6.74s7.78 10.49 7.78 17.976c0 7.497-2.796 13.164-8.365 17.003-5.582 3.849-13.811 5.769-24.674 5.769-5.632 0-10.527-.543-14.672-1.641.587 6.689 2.597 11.486 6.005 14.377s8.567 4.341 15.484 4.341c2.759 0 5.457-.176 8.079-.529 2.61-.342 6.244-1.123 10.889-2.311a5.45 5.45 0 0 1 .886-.227c.299-.051.536-.076.736-.076 1.687 0 2.522 1.149 2.522 3.446v6.893c0 1.59-.225 2.713-.661 3.37-.45.643-1.311 1.225-2.597 1.717-7.218 2.79-14.873 4.19-22.976 4.19-12.249 0-21.653-3.383-28.22-10.187-6.569-6.79-9.852-16.522-9.852-29.208 0-12.977 3.358-23.162 10.075-30.548 6.719-7.396 16.047-11.094 27.997-11.094zm-1.624 15.134c-9.49 0-14.971 5.895-16.445 17.673 3.945.807 8.342 1.199 13.186 1.199 5.031 0 8.69-.771 10.962-2.323 2.274-1.541 3.41-3.914 3.41-7.107 0-6.3-3.71-9.443-11.114-9.443zM624.185.917c1.413 0 2.397.279 2.952.839s.832 1.553.832 2.979v105.387c0 1.325-.277 2.29-.832 2.903s-1.539.915-2.952.915h-12.111c-1.211 0-2.145-.254-2.801-.763s-1.135-1.375-1.438-2.597l-.908-3.514c-6.257 5.703-13.674 8.553-22.254 8.553-6.559 0-12.261-1.705-17.106-5.116s-8.553-8.145-11.126-14.205-3.86-13.058-3.86-21c0-12.627 2.976-22.732 8.93-30.318s13.828-11.38 23.617-11.38c7.973 0 14.887 2.291 20.74 6.873V4.735c0-1.426.303-2.419.908-2.979s1.565-.839 2.876-.839zm-33.305 49.486c-5.349 0-9.335 2.011-11.958 6.032s-3.936 10.106-3.936 18.251 1.387 14.205 4.163 18.177 7.039 5.956 12.792 5.956c4.845 0 9.487-1.426 13.927-4.277V54.221c-4.339-2.546-9.336-3.818-14.988-3.818zm-71.148 63.537c-1.313 0-2.272-.305-2.878-.915s-.908-1.578-.908-2.903v-70.41c0-1.426.303-2.419.908-2.979s1.565-.841 2.878-.841h14.533c1.413 0 2.397.281 2.952.841s.832 1.553.832 2.979v70.41c0 1.325-.277 2.29-.832 2.903s-1.539.915-2.952.915zm7.266-90.113c-3.835 0-6.914-1.069-9.235-3.207s-3.481-5.041-3.481-8.707 1.16-6.567 3.481-8.705S523.163 0 526.998 0s6.914 1.069 9.235 3.207 3.481 5.041 3.481 8.705-1.16 6.569-3.481 8.707-5.4 3.207-9.235 3.207zm-67.321 90.113c-1.01 0-1.842-.127-2.499-.381a3.96 3.96 0 0 1-1.665-1.223c-.455-.56-.883-1.348-1.287-2.367l-25.887-67.967a62.15 62.15 0 0 1-.756-2.138c-.189-.54-.291-1.107-.303-1.68 0-1.528 1.01-2.292 3.028-2.292h15.139c1.614 0 2.8.306 3.558.917s1.336 1.629 1.741 3.055l15.592 54.069 15.896-54.069c.403-1.426.983-2.444 1.741-3.055s1.942-.917 3.558-.917h14.684c2.02 0 3.028.765 3.028 2.292 0 .509-.1 1.069-.303 1.68a62.1 62.1 0 0 1-.756 2.138l-25.887 67.967c-.404 1.018-.832 1.807-1.287 2.367a4.07 4.07 0 0 1-1.588 1.223c-.606.254-1.463.381-2.575.381z" fill="#232f3e"/><path d="M194.1 156.251c.267-1.731 1.636-3.048 3.537-3.048.886 0 1.891.289 2.95.951C259.34 191 332.023 213.198 407.082 213.198c50.653 0 106.305-11.336 157.522-34.753 7.719-3.517 14.186 5.479 6.635 11.522-45.688 36.323-111.925 55.65-168.961 55.65-79.927 0-151.902-31.854-206.389-84.867-1.069-1.039-1.631-2.177-1.79-3.246zm339.453 5.727c13.51-10.201 31.472-13.604 46.365-13.604 13.931 0 25.182 2.982 27.577 6.171 5.034 6.653-1.296 52.781-25.816 74.781-3.752 3.407-7.321 1.572-5.667-2.874 5.513-14.755 17.852-47.884 12.004-55.916-5.84-8.051-38.629-3.837-53.333-1.937-2.279.289-3.574-.643-3.764-2.032v-.749c.154-1.204 1.008-2.61 2.634-3.84zM363.075 33.611c9.429 0 16.808 2.292 22.125 6.877s7.981 10.701 7.981 18.338c0 7.648-2.871 13.43-8.583 17.345-5.728 3.928-14.169 5.885-25.316 5.885-5.777 0-10.8-.555-15.052-1.675.602 6.826 2.664 11.718 6.163 14.667s8.788 4.43 15.885 4.43a62.48 62.48 0 0 0 8.289-.541c2.678-.347 6.405-1.145 11.172-2.356.296-.102.6-.18.908-.232s.551-.078.756-.078c1.729 0 2.588 1.172 2.588 3.517v7.031c0 1.622-.232 2.768-.68 3.437-.46.656-1.345 1.25-2.664 1.751-7.404 2.847-15.257 4.276-23.572 4.276-12.567 0-22.215-3.451-28.953-10.392-6.74-6.929-10.108-16.856-10.108-29.798 0-13.237 3.446-23.629 10.338-31.162 6.892-7.546 16.463-11.319 28.723-11.319zm-1.666 15.44c-9.735 0-15.36 6.014-16.871 18.028 4.048.824 8.558 1.223 13.528 1.223 5.163 0 8.917-.785 11.248-2.37 2.331-1.57 3.497-3.991 3.497-7.249 0-6.427-3.805-9.632-11.402-9.632zm-148.373-5.654c5.368-3.568 10.211-6.092 14.514-7.56 4.282-1.478 8.781-2.231 13.312-2.228 9.121 0 15.551 3.272 19.305 9.788 5.163-3.465 10.032-5.963 14.592-7.482a44.09 44.09 0 0 1 14.13-2.306c7.096 0 12.593 1.996 16.5 5.963 3.894 3.979 5.855 9.529 5.855 16.663v53.942c0 1.326-.283 2.292-.832 2.898-.565.617-1.551.913-2.972.913h-14.592c-1.319 0-2.28-.296-2.883-.913-.614-.606-.922-1.572-.922-2.898V61.128c0-6.927-3.087-10.392-9.275-10.392-5.471 0-10.992 1.314-16.565 3.967v55.474c0 1.326-.283 2.292-.832 2.898-.563.617-1.551.913-2.972.913h-14.592c-1.319 0-2.28-.296-2.883-.913-.614-.606-.908-1.572-.908-2.898V61.128c0-6.927-3.101-10.392-9.275-10.392-5.675 0-11.248 1.365-16.732 4.121v55.32c0 1.326-.281 2.292-.832 2.898-.563.617-1.55.913-2.959.913h-14.606c-1.306 0-2.28-.296-2.881-.913-.602-.606-.91-1.572-.91-2.898v-70.45c0-1.429.308-2.421.91-2.974.601-.567 1.575-.837 2.881-.837h10.953c2.333 0 3.742 1.12 4.255 3.361zm-61.234-3.668c0-1.429.308-2.421.91-2.976.616-.567 1.577-.849 2.896-.849h14.591c1.423 0 2.409.283 2.96.849.563.555.846 1.546.846 2.976v70.437c0 1.326-.283 2.304-.846 2.91-.551.606-1.538.915-2.96.915h-14.591c-1.319 0-2.28-.31-2.896-.915-.602-.606-.91-1.583-.91-2.91zm11.096-15.891c-3.857 0-6.944-1.069-9.275-3.206-2.331-2.15-3.485-5.048-3.485-8.719s1.154-6.567 3.485-8.704 5.418-3.207 9.275-3.207 6.943 1.069 9.275 3.207 3.497 5.034 3.497 8.704-1.166 6.569-3.497 8.719c-2.333 2.137-5.42 3.206-9.275 3.206zm-50.865 23.683c4.048-4.481 7.878-7.662 11.478-9.554a24.43 24.43 0 0 1 11.48-2.82h2.126c1.421 0 2.434.284 3.037.837.614.567.908 1.558.908 2.974v12.84c0 1.326-.269 2.292-.832 2.91-.551.606-1.538.913-2.959.913-.717 0-1.627-.051-2.742-.154-1.415-.114-2.834-.166-4.253-.154-2.333 0-5.163.335-8.519.991-3.344.67-6.176 1.506-8.507 2.524v51.34c0 1.326-.281 2.292-.832 2.911-.563.604-1.55.913-2.972.913H94.851c-1.319 0-2.28-.31-2.883-.913-.614-.619-.922-1.585-.922-2.911V39.732c0-1.429.308-2.421.922-2.987.602-.553 1.563-.837 2.883-.837h10.942c2.331 0 3.754 1.122 4.266 3.361zm-67.781-13.9c9.825 0 17.602 3.618 23.328 10.844 5.726 7.237 8.597 17.01 8.597 29.347 0 8.446-1.423 15.837-4.255 22.147-2.844 6.323-6.699 11.19-11.556 14.591-4.867 3.426-10.441 5.124-16.73 5.124-4.151 0-8.11-.656-11.85-1.983-3.754-1.326-6.944-3.155-9.583-5.498v33.454c0 1.429-.281 2.421-.832 2.987-.563.553-1.55.837-2.972.837H3.806c-1.319 0-2.28-.284-2.883-.837-.616-.567-.924-1.558-.924-2.987V39.725c0-1.416.308-2.407.924-2.974.602-.567 1.563-.837 2.883-.837h10.952c2.333 0 3.742 1.12 4.255 3.361l1.062 3.965c3.037-2.949 6.714-5.291 11.018-7.031 4.305-1.725 8.698-2.588 13.158-2.588zm-7.149 16.805c-5.266 0-10.236 1.377-14.9 4.121v40.189c4.459 2.756 9.429 4.134 14.9 4.134 5.675 0 9.852-1.932 12.542-5.807s4.035-9.981 4.035-18.338c0-8.46-1.319-14.616-3.958-18.491s-6.841-5.807-12.618-5.807z" fill="#00a8e1"/></svg>