<?xml version="1.0" encoding="UTF-8"?>
<svg width="800" height="444.65" version="1.1" viewBox="0 0 211.67 117.65" xmlns="http://www.w3.org/2000/svg">
 <path d="m90.508 82.706c-4.6284-0.077658-6.9789-2.4203-9.1274-4.7708 5.0063-5.8942 7.481-13.528 6.9607-21.131-1.0225-14.936-13.098-26.841-28.115-27.537-8.4078-0.39088-16.608 2.8578-22.503 8.8711-5.8916 6.0133-8.9565 14.009-8.3845 22.694 0.98884 14.998 13.437 27.55 29.507 27.543 3.4842-0.0026 7.0099-0.59538 10.634-1.9803 0.45042-0.17861 0.45818-0.71963 0.25368-1.007-0.72998-1.0794-2.1278-2.5368-2.8785-3.0623-0.61868-0.43489-2.2573-1.6308-4.7889-1.3305-0.93189 0.12166-1.5428 0.2045-3.228 0.2045-12.314 0.01035-21.793-9.7202-22.373-21.252-0.32875-6.4948 2.1977-12.816 6.8986-17.313 4.6983-4.4964 11.118-6.7278 17.615-6.1169 10.6 0.99661 19.083 9.3966 20.134 19.961 0.12425 1.2503 0.16049 2.4902 0.09319 3.7198-0.20709 3.0183-1.0406 8.0997-5.4619 13.287-0.818-0.37535-1.7421-0.5229-2.322-0.56173-3.5257-0.23556-5.2937 1.5247-5.8916 2.2909-0.3417 0.44783-0.03883 1.0044 0.4763 1.1079 0.68857 0.12684 2.6041 0.65492 5.1202 2.8112 0.80246 0.7041 1.5816 1.5532 2.3116 2.3789 3.0934 3.5127 7.0876 8.1567 15.068 8.2602h0.0026c0.37017 0 0.67045-0.29769 0.67045-0.66786v-5.7312c0-0.36758-0.30028-0.66786-0.67045-0.66786z" fill="#19283e" stroke-width="2.5886"/>
 <path d="m0 116.85c0 0.44006 0.35723 0.79728 0.79729 0.79728h116.05c0.44266 0 0.79988-0.35722 0.79988-0.79728v-116.05c0-0.44006-0.35722-0.79729-0.79988-0.79729h-116.05c-0.44006 0-0.7947 0.35464-0.79729 0.79211zm110.79-6.0573h-103.94v-103.94h103.94z" fill="#f25346" stroke-width="2.5886"/>
 <path d="m209.13 70.732h2.5342v-23.654h-2.5342zm-5.0707-2.3639v2.3659h-16.559v-23.654h16.22v2.3633h-13.686v7.7734h10.983v2.3659h-10.983v8.7855zm-37.682-17.403-6.2513 19.768h-2.5342l-7.7709-23.654h2.7024l6.2513 19.767 6.4196-19.767h2.3659l6.4196 19.767 6.2513-19.767h2.7024l-7.7708 23.654h-2.5342zm-35.822-1.5208v-2.3659h16.389v2.3659l-13.854 18.925h14.193v2.3633h-17.234v-2.3633l13.854-18.925z" fill="#19283e" stroke-width=".14706"/>
</svg>
