<?xml version="1.0" encoding="UTF-8"?>
<svg width="450" height="450" version="1.1" viewBox="0 0 450 450" xml:space="preserve" xmlns="http://www.w3.org/2000/svg"><path d="m346.21 316.44c-17.704-0.29704-26.694-9.2578-34.912-18.248 19.149-22.546 28.615-51.745 26.625-80.825-3.9111-57.131-50.101-102.67-107.54-105.33-32.16-1.4951-63.528 10.931-86.073 33.932-22.536 23.001-34.259 53.587-32.071 86.806 3.7823 57.369 51.398 105.38 112.87 105.35 13.327-0.01 26.813-2.2773 40.675-7.5746 1.7228-0.6832 1.7526-2.7526 0.97034-3.8516-2.7922-4.1289-8.139-9.7034-11.01-11.713-2.3664-1.6634-8.634-6.2379-18.318-5.0893-3.5645 0.46537-5.9012 0.78222-12.347 0.78222-47.101 0.0396-83.36-37.18-85.578-81.291-1.2575-24.843 8.4063-49.022 26.387-66.221 17.971-17.199 42.527-25.734 67.379-23.397 40.546 3.812 72.993 35.942 77.013 76.35 0.47527 4.7824 0.61389 9.5252 0.35646 14.228-0.79212 11.545-3.9804 30.982-20.892 50.824-3.1288-1.4357-6.6637-2.0001-8.8816-2.1486-13.486-0.90103-20.248 5.8319-22.536 8.7628-1.307 1.713-0.14852 3.8418 1.8219 4.2378 2.6338 0.48516 9.9608 2.5051 19.585 10.753 3.0694 2.6932 6.0498 5.9408 8.842 9.0994 11.832 13.436 27.11 31.199 57.636 31.595h0.01c1.4159 0 2.5645-1.1387 2.5645-2.5546v-21.922c0-1.406-1.1486-2.5546-2.5645-2.5546z" fill="#122f4b" stroke-width="9.9014"/><path d="m0 446.95c0 1.6832 1.3663 3.0496 3.0495 3.0496h443.89c1.6931 0 3.0594-1.3664 3.0594-3.0496v-443.9c0-1.6832-1.3663-3.0496-3.0594-3.0496h-443.89c-1.6832 0-3.0396 1.3565-3.0495 3.0298zm423.77-23.169h-397.55v-397.56h397.55z" fill="#d95a41" stroke-width="9.9012"/></svg>
