<?xml version="1.0" encoding="UTF-8"?>
<svg width="800" height="127.97" version="1.1" xmlns="http://www.w3.org/2000/svg">
	<path d="m431.43 62.273v38.803c0 19.225-10.615 26.773-26.655 26.773h-68.288c-14.979 0-27.127-9.5533-27.127-27.363v-29.132c0-16.512 11.912-27.952 27.598-27.952h28.778c19.342 0 27.363 15.686 27.363 26.537v24.06h-65.104v6.6047c0 5.7792 3.7741 8.2559 8.4918 8.2559h68.288c7.7842 0 7.4303-2.4768 7.4303-7.5483v-39.039zm-103.44 8.8456v5.7792h46.469v-7.1945c0-3.8921-3.7742-7.9021-8.7277-7.9021h-28.896c-4.3639 0-8.8456 3.8921-8.8456 9.3174zm248.74 6.7227c16.866 3.0665 28.66 9.4354 28.66 25.004 0 16.748-11.676 25.004-28.66 25.004h-88.456v-56.14c0-6.015-3.1844-9.4354-9.5533-9.4354h-47.413v-19.107h47.413c19.107 0 28.778 12.148 28.778 28.542v36.798h69.114c8.138 0 9.7892-2.005 9.7892-4.9536 0-3.1844-3.6562-5.4253-9.5533-6.2509l-24.65-4.128c-16.394-3.4203-28.66-9.5533-28.66-25.004 0-16.748 11.676-25.004 28.66-25.004h45.408v19.107h-45.408c-8.138 0-9.5533 2.123-9.5533 5.0715 0 3.1844 4.128 4.9536 9.5533 6.133zm-145.3-34.675h-19.342v-20.994h19.342z" fill="#ee7203"/>
	<path d="m0 126.32v-56.022c0-16.866 10.143-26.891 27.127-26.891h17.455v16.04h-17.455c-7.0765 0-10.969 3.7741-10.969 10.733v56.022zm171.25-34.439c0 13.445-6.133 21.112-17.102 21.112-10.733 0-17.102-6.015-17.102-22.763v-11.204c0-16.748 6.3689-22.763 17.102-22.763 10.851 0 17.102 7.6662 17.102 21.112zm0-75.955v35.147c-4.128-6.015-12.266-9.6712-20.876-9.6712-19.225 0-29.485 12.62-29.485 37.034v12.502c0 24.414 10.261 37.034 29.485 37.034 8.4918 0 16.748-3.6562 20.876-9.6712v7.9021h16.276v-110.28zm107.92 74.303c0 16.748-6.3689 22.763-17.102 22.763h-0.11794c-10.733 0-17.102-6.015-17.102-22.763v-11.204c0-16.748 6.3689-22.763 17.102-22.763h0.11794c10.733 0 17.102 6.015 17.102 22.763zm-13.209-48.828h-7.6662c-19.225 0-29.485 12.62-29.485 37.034v12.502c0 24.414 10.261 37.034 29.485 37.034h7.6662c19.225 0 29.485-12.62 29.485-37.034v-12.502c0-24.414-10.261-37.034-29.485-37.034zm-64.868-25.475v14.743h16.276v-14.743zm0 110.28h16.276v-82.795h-16.276zm-106.62-23.47c-3.7741 5.1894-11.322 10.615-20.05 10.615-10.733 0-15.922-5.5433-15.922-13.681 0-7.6662 6.7227-12.384 17.102-12.384 8.8456 0 14.507 1.4153 18.871 3.6562zm-15.097-59.325h-24.414v16.04h23.942c10.143 0 15.568 5.0715 15.568 14.035v2.9485c-4.5997-2.005-10.733-3.1844-18.399-3.1844-18.753 0-33.024 8.3739-33.024 26.773 0 20.286 15.332 27.952 28.778 27.952 8.9636 0 16.984-4.2459 22.645-9.9071v8.2559h15.922v-55.197c0-18.753-12.502-27.716-31.019-27.716z" fill="#585856"/>
	<path d="m800 0h-183.28v80.554h166.18z" fill="#e31818"/>
	<path d="m713.55 54.135c0.11794-1.5332 0.35382-4.01 0.35382-6.6047s-0.35382-5.0715-0.47176-6.6047c-4.01-1.2974-14.271-3.7741-28.424-1.5332v15.686c5.1894 0.47177 9.5533 0.70765 13.21 0.70765 8.3739 0 13.209-0.94354 15.332-1.6512m49.418 0c0.11794-1.5332 0.35382-4.01 0.35382-6.6047s-0.35382-5.0715-0.47176-6.6047c-4.01-1.2974-14.271-3.7741-28.424-1.5332v15.686c5.1894 0.47177 9.5533 0.70765 13.209 0.70765 8.3739 0 13.209-0.94354 15.332-1.6512m7.0765-6.8406c0 9.5533-1.5332 11.912-1.5332 11.912s-4.3638 3.6562-20.994 3.6562c-9.0815 0-19.814-1.4153-19.814-1.4153v-43.756h6.7227v14.743c3.8921-0.58971 7.7842-0.82559 11.087-0.82559 15.45 0 22.881 4.2459 22.881 4.2459s1.6512 2.123 1.6512 11.44m-49.418 0c0 9.5533-1.5332 11.912-1.5332 11.912s-4.3638 3.6562-20.994 3.6562c-9.0815 0-19.814-1.4153-19.814-1.4153v-43.756h6.7227v14.743c3.8921-0.58971 7.7842-0.82559 11.087-0.82559 15.45 0 22.881 4.2459 22.881 4.2459s1.6512 2.123 1.6512 11.44m-49.771-8.6098c-16.866 0.23588-25.947 2.9485-29.132 4.01v19.578h-6.8406v-24.178s10.261-6.2509 35.972-6.3689z" fill="#fff"/>
</svg>
