<?xml version="1.0" encoding="UTF-8"?>
<svg width="800" height="189.21" xmlns="http://www.w3.org/2000/svg">
  <defs>
    <radialGradient id="a" cx="387.44" cy="65.326" r="70.406" gradientTransform="matrix(.77834 0 0 .64878 85.881 20.263)" gradientUnits="userSpaceOnUse">
      <stop stop-color="#fff" stop-opacity="0" offset="0"/>
      <stop stop-color="#1081c4" offset="1"/>
    </radialGradient>
  </defs>
  <g fill="#1081c4">
    <path d="M203.46 148.01c11.852 0 17.496 9.594 17.213 20.316 0 12.134-5.926 20.317-17.213 20.317s-17.213-8.183-17.213-20.317c-.282-10.44 5.362-20.317 17.213-20.317zm-13.545 20.6c0 8.465 4.233 16.93 13.545 16.93s13.545-8.748 13.545-16.93-4.233-16.932-13.545-16.932-13.545 8.466-13.545 16.931zm6.49-27.938h4.233v4.797h-4.233zm9.595 0h4.233v4.797H206zM238.73 183.28c2.257 1.41 5.08 2.257 8.748 2.257 4.797 0 8.748-2.54 8.748-8.184 0-7.619-18.06-8.748-18.06-18.907 0-6.208 5.643-10.159 12.416-10.159 1.975 0 5.079.282 7.619 1.411l-.565 3.669c-1.693-.847-4.515-1.411-7.054-1.411-3.951 0-8.466 1.693-8.466 6.772 0 7.901 18.06 7.901 18.06 19.471 0 7.901-6.773 11.005-12.981 11.005-3.95 0-6.773-.846-9.03-1.693zM286.7 152.24h-11.57v-3.387h27.09v3.386h-11.57v36.12h-3.95zM318.87 148.85h19.189v3.385h-15.52v14.11h14.674v3.386h-14.674v15.238h16.085v3.386h-19.753zM358.66 148.85h10.159c7.055 0 11.57 3.103 11.57 10.158 0 5.08-3.95 8.466-8.748 9.03 3.104.282 3.95 1.975 5.08 4.797l6.772 15.238h-4.233l-5.643-13.263c-2.258-5.079-3.951-5.361-7.62-5.361h-3.103v18.624h-3.951v-39.224zm3.668 17.495h4.233c4.515 0 9.877-1.693 9.877-7.337 0-6.49-4.515-6.772-9.877-6.772h-3.95v14.109zM401.27 148.85h10.159c7.055 0 11.57 3.103 11.57 10.158 0 5.08-3.95 8.466-8.748 9.03 3.104.282 3.95 1.975 5.08 4.797l6.772 15.238h-4.233l-5.643-13.263c-2.258-5.079-3.951-5.361-7.62-5.361h-3.103v18.624h-3.951v-39.224zm3.95 17.495h4.233c4.515 0 9.877-1.693 9.877-7.337 0-6.49-4.515-6.772-9.877-6.772h-3.95v14.109zM443.88 148.85h19.189v3.385h-15.52v14.11h14.674v3.386h-14.674v15.238h16.085v3.386h-20.035v-39.506zM482.82 148.85h3.95v39.505h-3.95zM534.18 153.09c-2.54-1.412-5.926-1.694-8.748-1.694-10.159 0-16.085 7.337-16.085 16.931 0 9.877 5.644 16.931 16.085 16.931 2.54 0 6.49-.282 8.748-1.693l.282 3.386c-2.257 1.411-6.49 1.693-9.03 1.693-12.416 0-19.753-8.183-19.753-20.317 0-11.852 7.62-20.317 19.753-20.317 2.258 0 7.055.282 9.03 1.411zM556.19 148.85h3.95v17.495h20.036V148.85h3.95v39.506h-3.95v-18.624H560.14v18.624h-3.951z"/>
  </g>
  <path d="M387.87 0c-1.41 0-3.95 3.105-5.926 13.828h11.568C391.537 3.951 389.281.564 387.87 0zm3.668.564c1.693 2.54 3.104 7.056 4.232 13.264h10.723c-3.668-6.208-7.98-10.005-12.416-12.416-.876-.476-2.539-.847-2.539-.847zm-8.184.284s-1.41.282-4.373 1.692c-2.964 1.41-7.196 5.361-10.581 11.57h10.723C380.25 7.9 381.662 3.67 383.355.846zm-7.337.564c-8.466 1.975-16.083 6.208-22.855 12.416h12.133c3.104-5.361 6.771-9.594 10.722-12.416zm23.14 0c3.951 2.54 7.62 6.772 10.724 12.416h12.135c-6.773-6.208-14.674-10.44-22.857-12.416zm13.546 2.54c4.515 2.539 8.746 5.926 12.697 9.876h6.49c-5.926-4.233-12.415-7.337-19.188-9.877zm-50.23.282c-7.055 2.258-13.262 5.643-19.188 9.875h6.49c3.668-3.95 8.182-7.335 12.697-9.875zm-22.574 12.133c-4.798 3.951-9.03 8.466-12.416 13.545h10.723c2.54-5.079 5.362-9.594 9.03-13.545zm10.44 0c-3.668 3.951-7.056 8.466-9.595 13.545h17.779c1.693-5.079 3.386-9.594 5.361-13.545zm16.367 0a59.192 59.192 0 0 0-5.644 13.545h15.52c.564-5.079 1.13-9.594 1.977-13.545zm14.674 0c-.846 4.233-1.412 8.466-1.976 13.545h16.367c-.564-5.079-1.128-9.594-1.975-13.545zm14.955 0c.847 3.951 1.41 8.466 1.975 13.545h15.521c-1.693-5.079-3.387-9.594-5.644-13.545zm14.674 0c1.976 3.951 3.95 8.466 5.362 13.545h17.496c-2.54-5.079-5.928-9.594-9.596-13.545zm16.932 0c3.387 3.951 6.49 8.466 9.03 13.545h10.723c-3.669-5.079-7.619-9.594-12.416-13.545zm-102.15 16.084c-2.54 4.233-4.513 8.467-6.207 13.264h12.697c1.13-4.797 2.54-9.03 4.516-13.264zm14.11 0c-1.976 4.233-3.669 8.75-4.797 13.264h20.316c.564-4.515 1.412-9.03 2.54-13.264zm20.6 0c-1.13 4.233-1.976 8.75-2.823 13.264h17.78c.281-4.515.563-9.03.845-13.264zm18.624 0c-.564 4.233-.847 8.75-.847 12.982h18.625c0-4.232-.564-8.467-.846-12.982zm19.471 0c.283 4.515.564 9.031.846 13.264h17.78c-.847-4.515-1.694-9.03-2.823-13.264zm18.625 0c1.13 4.515 1.975 8.75 2.54 13.264h20.316c-1.13-4.797-2.822-9.03-4.797-13.264zm20.881 0c1.976 4.233 3.387 8.75 4.516 13.264h12.697c-1.41-4.797-3.385-9.03-6.207-13.264zm-59.824 15.521c0 3.669-.28 7.618-.28 12.133h19.47c-.282-3.95-.283-7.9-.283-12.133zm-59.258.282c-1.128 3.668-1.693 7.902-1.693 12.135h13.262c.282-4.233.566-8.184 1.412-12.135zm15.236 0c-.846 3.95-1.41 7.902-1.41 12.135h21.164c0-4.233.282-8.184.846-12.135zm23.422 0c-.564 3.95-.846 7.902-.564 12.135h18.344c0-4.515 0-8.467.281-12.135zm42.047 0c.283 4.232.282 8.184.282 12.135h18.342c0-4.233-.282-8.184-.846-12.135zm20.316 0c.565 3.95.848 7.902.848 12.135h21.164c0-3.951-.565-8.184-1.412-12.135zm23.141 0c.847 3.95 1.41 8.184 1.41 12.135h13.265c0-4.233-.847-8.467-1.694-12.135zm-65.469 14.393c0 4.232.001 8.465.284 12.98h18.906c.282-4.233.281-8.748.281-12.98zm43.176 0c0 4.232 0 8.747-.564 12.98h20.6c.847-4.233 1.129-8.466 1.129-12.98zm23.703 0c0 4.515-.282 8.747-1.128 12.98h12.98c1.128-4.233 1.412-8.466 1.412-12.98zm-127.55.28c0 4.234.565 8.466 1.694 12.98h12.699c-.847-4.514-1.129-8.747-1.129-12.98zm16.086 0c0 4.234.28 8.749 1.127 12.98h20.6c-.282-4.232-.562-8.747-.562-12.98zm23.703 0c0 4.234.283 8.466.565 12.98h18.06c-.281-4.514-.282-8.747-.282-12.98zm43.174 0c0 4.234-.28 8.749-.28 12.98h18.058c.282-4.232.565-8.747.565-12.98zM319.3 78.167c1.411 4.515 3.105 9.03 5.645 12.98h11.287c-1.975-4.233-3.386-8.466-4.232-12.98zm15.238 0c.847 4.515 2.258 8.748 4.233 12.98h18.625c-.847-4.233-1.694-8.466-2.258-12.98zm23.14 0a95.995 95.995 0 0 0 2.54 12.98h16.084c-.282-3.95-.563-8.183-.845-12.98zm20.317 0c.283 4.515.564 9.03.846 12.98h17.215c.282-4.233.564-8.466.846-12.98zm21.73 0c-.283 4.515-.566 8.748-.848 12.98h16.086a96.011 96.011 0 0 0 2.539-12.98zm20.034 0c-.564 4.515-1.41 8.748-2.257 12.98h18.342c1.693-4.233 3.386-8.466 4.232-12.98zm23.422 0c-1.128 4.515-2.54 8.748-4.234 12.98h11.29c2.257-3.95 4.23-8.466 5.642-12.98zm-116.83 15.52c2.822 4.516 6.491 8.748 10.441 12.417h8.184c-2.822-3.669-5.362-7.901-7.619-12.416zm13.828 0a63.058 63.058 0 0 0 8.182 12.417h14.393c-1.693-3.669-3.105-7.901-4.516-12.416zm20.881 0c1.13 4.516 2.823 8.748 4.516 12.417h12.98c-.846-3.95-1.129-7.901-1.693-12.416zm18.061 0c.565 4.516 1.13 8.748 1.694 12.417h13.262c.846-3.95 1.411-8.183 1.693-12.416zm19.471 0c-.564 4.516-1.129 8.466-1.693 12.417h12.98c1.693-3.669 3.105-7.901 4.516-12.416zm18.342 0c-1.128 4.516-2.822 8.748-4.515 12.417h14.393a63.061 63.061 0 0 0 8.183-12.416zm20.883 0c-1.975 4.516-4.515 8.748-7.619 12.417h8.182c3.95-3.669 7.337-7.901 10.441-12.416zm-10.16 14.675c-4.515 5.361-9.594 9.593-15.238 12.697a35.563 35.563 0 0 0 2.823-.846c7.337-2.822 14.11-6.772 19.754-11.852zm-88.04.281a74.284 74.284 0 0 0 20.034 11.57c1.13.565 1.975.847 2.54 1.129-5.644-3.386-10.723-7.62-15.238-12.699zm11.003 0c4.515 4.797 9.878 8.749 15.521 11.57 3.105 1.693 6.49 2.822 9.875 3.668-4.515-3.104-8.746-8.466-12.133-15.238zm16.086 0c2.54 5.08 5.643 9.03 9.03 11.852 1.693 1.411 3.387 2.54 5.08 3.387.564.282.846.282 1.41.564.282 0 .847.282 1.129.282-.564-.847-.846-1.692-1.41-2.82-1.129-3.105-2.258-7.62-3.387-13.265zm14.391 0c.847 5.362 1.975 9.594 3.104 12.416 1.41 2.822 2.54 4.233 3.387 4.233 1.41 0 3.951-3.95 6.209-16.648zm15.52 0c-.846 5.644-1.973 10.16-3.384 13.264-.565 1.129-1.13 1.974-1.412 2.82 6.208-1.693 11.853-7.336 16.65-16.084zm14.674 0c-3.668 7.055-7.617 12.134-12.133 15.238 9.313-2.257 18.06-7.62 25.396-15.238z" fill="url(#a)"/>
  <g fill="#173f72">
    <path d="M22.575 60.247c10.159 0 28.219-.282 28.219-18.624 0-16.93-15.802-17.213-20.6-17.213-6.49 0-7.619.847-7.619 4.515zm23.422 1.975c15.238 3.105 14.392 23.986 14.392 23.986.564 12.699 10.441 13.828 10.441 13.828v3.668H57.003c-5.08-.847-9.877-9.312-9.877-23.14 0-14.108-9.876-16.366-9.876-16.366l-14.674.282v25.397c0 8.466 1.129 11.005 10.723 11.57v2.54H.001v-2.54c9.594-.564 10.159-3.386 10.159-12.98V33.44c0-9.312-1.693-10.44-10.159-11.287v-2.54h33.298c10.723 0 31.041 1.13 30.476 20.6.282 13.263-10.159 19.19-17.496 20.882zM118.8 66.737 106.666 32.31l-11.57 34.145zm31.041 37.25h-29.065l.282-3.67c4.233 0 7.901 1.13 7.901-3.668 0-1.975-1.41-6.208-2.257-7.9l-6.773-18.06-25.96.281-6.773 20.6c-.564 1.693-.847 3.387-.847 4.798 0 5.361 5.644 4.232 7.902 4.232l-.283 3.669H71.393l.283-3.669c1.975 0 3.668.847 5.643-1.693 2.54-3.104 6.208-12.416 8.184-18.06l19.47-61.517h9.313l25.397 71.393c3.668 9.312.846 9.595 10.723 9.877z"/>
    <path d="m171.85 24.127-.282 5.362.282 63.492c0 4.233 3.104 6.49 9.03 6.49 7.901 0 38.095 0 38.095-36.966 0-10.723-1.975-22.575-9.312-29.912-5.926-5.362-9.03-8.466-30.758-8.466zM150.122 100.6c9.312-.564 10.723-1.693 10.723-10.44V33.721c0-9.312-1.41-10.723-10.723-11.57v-2.257h33.298c36.684-.282 49.101 11.852 49.101 42.328-.282 20.317-7.901 41.764-47.407 41.764h-35.273zM233.93 100.88c9.877-.283 11.287-1.412 11.287-10.442v-56.72c0-9.312-1.693-11.005-11.287-11.57v-2.257h34.427v2.54c-8.466.282-11.287 1.41-11.287 11.57v56.436c0 9.877 2.822 10.16 11.287 10.441v3.669H233.93zM633.79 57.707c11.57 0 21.446.565 21.446-17.778 0-16.93-11.57-18.06-17.213-17.213-6.208.847-4.233 1.975-4.233 5.644zm22.575 2.822c17.213 3.104 16.367 23.986 16.367 23.986.564 12.698 12.134 13.827 12.134 13.827v3.669h-16.085c-8.183.282-16.649-7.055-17.778-21.446-1.129-14.11-7.619-16.367-7.619-16.367l-9.594.282-.283 24.268c0 8.465-1.128 10.159 9.03 10.159v3.104h-36.684v-3.669c11.005-.564 9.877-2.257 9.877-11.852V31.746c0-9.312.282-9.876-9.312-10.723v-3.386l35.273.282c12.134 0 34.427 1.13 33.58 20.6.282 13.263-10.723 19.19-18.907 20.882z"/>
    <path d="m570.02 66.455-9.877-31.605-10.723 31.887zm28.501 29.63c1.129 1.975 2.822 2.54 7.337 2.54v3.668h-36.684v-3.668c4.233 0 9.03.564 9.03-3.386 0-1.976-1.411-6.208-1.975-8.184l-4.515-14.392h-23.422l-5.08 17.496c-.564 1.693-.564 2.822-.564 4.233 0 5.08 7.337 4.515 9.876 4.515v3.386h-26.243v-3.668c1.694 0 1.976.846 3.951-1.693 2.54-3.104 6.208-12.416 8.183-18.06l19.471-61.517h15.802l21.164 67.16zM763.88 66.455l-9.877-31.605-10.44 31.887zm28.783 29.63c1.129 1.975 2.822 2.54 7.337 2.54v3.668h-36.966v-3.668c4.233 0 9.03.564 9.03-3.386 0-1.976-1.411-6.208-1.975-8.184l-4.515-14.392h-23.422l-5.08 17.496c-.564 1.693-.564 2.822-.564 4.233 0 5.08 7.337 4.515 9.876 4.515v3.386h-26.243v-3.668c1.693 0 1.976.846 3.95-1.693 2.54-3.104 6.209-12.416 8.184-18.06l19.471-61.517h15.802l21.164 67.16z"/>
    <path d="M684.59 98.91c7.619 0 8.748-1.412 8.748-10.442v-56.72c0-9.312 1.41-10.44-9.595-10.44v-3.67h36.966l.283 3.951c-10.16 0-9.313 0-9.313 10.16v56.72c0 9.876 2.54 10.44 8.466 10.44v3.669h-34.991zM527.97 21.305c-7.619.565-10.723-.846-10.723 9.312v57.566c0 9.877.847 9.595 8.748 10.16v3.95h-36.402v-3.668c9.594-.565 8.748-1.976 8.748-12.698l-.283-48.818V32.31l-24.268 67.725h-7.9l-25.116-68.289h-.282v51.64c0 13.263 2.54 16.085 11.57 16.65v2.54h-28.783l1.693-4.234c.847 0 .282 0 .847-.282 7.054-.564 7.619-2.257 7.619-14.956V30.618c0-10.159-.847-8.748-9.877-9.312v-4.797h31.323l21.164 56.155 19.19-56.155h32.45v4.797zM272.31 60.811c0-29.065 20.035-43.739 40.071-43.739 20.035 0 40.071 14.674 40.071 43.74 0 26.807-17.778 43.456-40.071 43.456-22.011 0-40.071-16.367-40.071-43.457m66.314 0c0-28.783-13.545-38.942-26.243-38.942-12.416 0-26.243 10.16-26.243 38.942 0 27.654 12.416 38.942 26.243 38.942s26.243-11.287 26.243-38.942"/>
  </g>
</svg>
