<svg xmlns="http://www.w3.org/2000/svg" xmlns:xlink="http://www.w3.org/1999/xlink" width="800" height="177.29"><path d="M712.14 1.398v9.073h34.202c24.703 0 44.588 19.356 44.588 43.404s-19.885 43.408-44.588 43.408H712.14v9.073h34.202c29.443 0 53.661-23.431 53.661-52.481S775.785 1.398 746.342 1.398zm0 16.346v9.073h34.202c15.647 0 28.242 12.066 28.242 27.058s-12.595 27.062-28.242 27.062H712.14v9.073h34.202c20.312 0 37.315-16.061 37.315-36.135s-17.003-36.131-37.315-36.131zm0 16.346v9.073h34.202c6.591 0 11.896 4.689 11.896 10.714s-5.305 10.714-11.896 10.714H712.14v9.073h34.202c10.895 0 20.969-8.253 20.969-19.787S757.237 34.09 746.342 34.09z" dominant-baseline="auto" fill="#868786" paint-order="stroke markers fill"/><g transform="matrix(1.9529 0 0 2.1769 .10928 1.39389)"><path d="M4.18 28.122v20.094H-.056V.032h16.999c3.438 0 6.387 1.266 8.845 3.797 2.516 2.531 3.774 5.947 3.774 10.248 0 3.607-.926 6.645-2.795 9.106-1.857 2.445-6.233 3.999-9.191 4.671l14.137 20.362h-4.898L13.198 28.121zM16.108 4.03H4.18v20.362h11.928c2.389 0 4.938-1.075 6.512-2.688 1.918-1.966 2.564-4.88 2.564-7.493s-.647-5.527-2.564-7.493c-1.573-1.613-4.122-2.688-6.512-2.688zm32.496 29.737l-5.498 14.449h-5.06L57.256.032h5.498l19.179 48.184h-5.06l-5.498-14.449zm21.428-3.595L60.005 3.761 49.947 30.172zm38.718 18.044H90.738V.032h18.012q10.278 0 16.843 6.62 6.531 6.586 6.531 17.473 0 10.887-6.531 17.473-6.565 6.619-16.843 6.619zm-.275-44.051H95.791v39.918h12.684q8.525 0 13.44-5.443 5.019-5.578 5.019-14.516 0-8.871-5.019-14.449-4.95-5.511-13.44-5.511zM147.1 48.216h-4.939V.032h4.939zM182.77-.64q8.591 0 16.295 5.578 4.057 2.823 6.443 7.896 2.42 5.04 2.42 11.29 0 6.216-2.42 11.256-2.386 5.04-6.443 7.964-7.738 5.544-16.295 5.544-2.25 0-4.602-.403-2.352-.403-4.841-1.31-2.489-.941-4.773-2.285-2.284-1.378-4.329-3.394-2.045-2.016-3.545-4.503-1.5-2.486-2.386-5.779-.852-3.326-.852-7.09 0-5.074 1.636-9.442 1.636-4.368 4.364-7.191 3.92-4.066 9.102-6.082 5.216-2.05 10.227-2.05zm0 4.133q-3 0-5.864.806-2.864.773-5.454 2.486-2.591 1.68-4.568 4.066-1.943 2.386-3.102 5.813-1.159 3.427-1.159 7.459 0 5.007 1.739 9.039 1.773 4.032 4.67 6.519 2.932 2.486 6.443 3.797 3.545 1.31 7.295 1.31 3.716 0 7.193-1.31 3.511-1.31 6.375-3.797 2.898-2.486 4.636-6.519 1.773-4.032 1.773-9.039 0-6.586-3.068-11.492-2.898-4.637-7.295-6.888-4.364-2.251-9.613-2.251z" fill="#868786"/><path d="M262.71 48.216l-6.13.002V26.132h-31.785v22.086l-6.13-.002V.032l6.13.002v21.337h31.785V.034l6.13-.002zm45.97-36.054c0 5.354-2.426 8.949-7.279 10.786 2.743.963 4.937 2.486 6.583 4.57 1.667 2.083 2.5 4.581 2.5 7.493 0 4.055-1.361 7.291-4.083 9.711-2.637 2.33-5.771 3.495-9.4 3.495h-20.35V.032h18.546c3.65 0 6.826 1.042 9.526 3.125 2.637 1.971 3.956 4.973 3.956 9.005zm-15.213 13.971h-10.686v17.324h11.73c2.551 0 5.292-.963 7.089-2.587 1.746-1.577 2.856-3.974 2.753-6.195-.102-2.204-1.472-4.438-3.291-5.921-2.007-1.637-4.883-2.621-7.596-2.621zm-.38-21.339h-10.306v16.575h10.306c2.433 0 5.152-.67 6.868-2.218 1.83-1.651 2.661-4.258 2.595-6.586-.057-2.013-.936-4.2-2.564-5.587-1.768-1.507-4.461-2.184-6.899-2.184zm35.143 23.328v20.094h-6.13V.032h18.511c3.744 0 6.938 1.28 9.632 3.797 2.724 2.545 4.11 5.947 4.11 10.248 0 3.607-1.009 6.646-3.043 9.106-2.023 2.446-5.416 3.999-8.637 4.671l14.821 20.365h-7.129l-14.256-20.096zm10.11-23.329h-10.11V23.36h10.11c2.566 0 5.304-1.036 7.091-2.688 1.793-1.658 2.775-4.151 2.792-6.461.018-2.394-.947-5.001-2.792-6.73-1.774-1.663-4.525-2.688-7.091-2.688z" fill="#c41718"/></g><g fill="#868786"><path d="M35.454 176.655h-4.701v-21.6H4.67v21.6H0v-45.551h4.67v20.171h26.083v-20.171h4.701zm38.189 0H51.259v-45.551h22.384v3.78H55.928v16.582h16.413v3.653H55.928v17.757h17.715zm40.036-15.755v-29.797h4.265v30.081q0 7.37-5.106 11.753-5.048 4.352-11.865 4.352-6.905 0-11.952-4.352-5.048-4.352-5.048-11.753v-30.081h4.265V160.9q0 5.718 3.8 9.117 3.8 3.399 8.935 3.399 5.048 0 8.848-3.399 3.858-3.462 3.858-9.117zm29.883-8.222l19.543 23.978h-5.845l-16.615-20.377-2.483 3.065v17.312h-4.67v-45.551h4.67v23.157l17.636-23.157h5.241zm51.939 23.977h-22.384v-45.551h22.384v3.78h-17.715v16.582h16.413v3.653h-16.413v17.757h17.715zm34.916 0h-22.262v-45.551h4.67v41.772h17.593z"/><use xlink:href="#B"/><use xlink:href="#C"/><path d="M340.234 130.469a24.82 24.82 0 0 0-6.037.761c-2.012.508-4.043 1.366-6.097 2.573-2.054 1.186-3.865 2.649-5.433 4.386s-2.847 3.958-3.842 6.669-1.494 5.717-1.494 9.021c0 4.828.982 8.928 2.952 12.295 1.969 3.346 4.565 5.971 7.784 7.877 3.833 2.16 7.888 3.242 12.166 3.242 3.198 0 6.322-.605 9.371-1.812.365-.147.705-.328 1.059-.491v-3.947c-2.957 1.568-6.28 2.372-9.987 2.372-4.955 0-9.304-1.694-13.052-5.082-3.642-3.367-5.465-8.185-5.465-14.454 0-4.066.887-7.644 2.666-10.736 1.8-3.092 4.121-5.325 6.959-6.701 2.753-1.377 5.715-2.066 8.892-2.066 3.708 0 7.03.808 9.987 2.376v-3.939c-.364-.166-.716-.351-1.091-.499-3.028-1.228-6.141-1.844-9.339-1.844zm55.96 46.186h-4.701v-21.6H365.41v21.6h-4.67v-45.551h4.67v20.171h26.083v-20.171h4.701z"/><use xlink:href="#B" x="190.107"/><path d="M474.505 176.655h-4.67v-45.551h4.67z"/><use xlink:href="#B" x="249.696"/><path d="M552.218 176.655h-22.384v-45.551h22.384v3.78h-17.715v16.582h16.413v3.653h-16.413v17.757h17.715zm36.558 0h-22.262v-45.551h4.67v41.772h17.593zm1.711-15.831h11.661v2.224h-11.661zm30.269-3.165v18.996h-4.67v-45.551h12.43c3.791 0 7.041 1.196 9.752 3.59 2.774 2.393 4.161 5.622 4.161 9.688 0 3.41-1.027 6.279-3.081 8.608-2.054 2.308-4.712 3.78-7.973 4.415l12.103 19.25h-5.4l-11.531-18.996zm6.839-22.776h-6.839v19.25h6.839c2.923 0 5.315-.847 7.179-2.541 1.885-1.694 2.827-4.055 2.827-7.084s-.942-5.39-2.827-7.084c-1.864-1.694-4.257-2.541-7.179-2.541z"/><use xlink:href="#C" x="374.235"/><path d="M706.819 176.655h-12.226v-45.551h12.226c6.332 0 11.52 2.086 15.565 6.258 4.024 4.151 6.035 9.657 6.035 16.518s-2.012 12.367-6.035 16.518c-4.045 4.172-9.233 6.258-15.565 6.258zm-.254-41.644h-7.302v37.737h7.302c5.252 0 9.392-1.715 12.42-5.146 3.092-3.515 4.638-8.09 4.638-13.723 0-5.591-1.546-10.144-4.638-13.659-3.05-3.473-7.19-5.21-12.42-5.21zm39.905 41.644h-4.67v-45.551h4.67zm32.743-46.186q7.104 0 13.475 5.273 3.355 2.668 5.328 7.465 2.002 4.765 2.002 10.673 0 5.877-2.002 10.641-1.973 4.765-5.328 7.528-6.399 5.241-13.475 5.241-1.861 0-3.806-.381-1.945-.381-4.003-1.239-2.058-.889-3.947-2.16-1.889-1.302-3.58-3.208-1.691-1.906-2.932-4.257-1.24-2.351-1.973-5.464-.705-3.145-.705-6.702 0-4.797 1.353-8.926 1.353-4.13 3.608-6.798 3.242-3.844 7.527-5.75 4.313-1.938 8.457-1.938zm0 3.907q-2.481 0-4.849.762-2.368.731-4.51 2.351-2.143 1.588-3.778 3.844-1.607 2.255-2.565 5.495-.958 3.24-.958 7.052 0 4.733 1.438 8.545 1.466 3.812 3.862 6.162 2.424 2.351 5.328 3.59 2.932 1.239 6.033 1.239 3.073 0 5.948-1.239 2.904-1.239 5.272-3.59 2.396-2.351 3.834-6.162 1.466-3.812 1.466-8.545 0-6.226-2.537-10.864-2.396-4.384-6.033-6.512-3.608-2.128-7.95-2.128z"/></g><defs ><path id="B" d="M266.954 142.57c0 5.061-2.435 8.46-7.306 10.197 2.753.911 4.955 2.351 6.607 4.32 1.673 1.969 2.51 4.331 2.51 7.084 0 3.833-1.366 6.893-4.098 9.18-2.647 2.202-5.792 3.304-9.434 3.304h-14.441v-45.551h12.63c3.664 0 6.851.985 9.561 2.954 2.647 1.864 3.971 4.701 3.971 8.513zm-13.945 11.976h-7.548v18.583h8.596c2.923 0 5.294-.815 7.115-2.446 1.842-1.631 2.764-3.907 2.764-6.83 0-2.944-1.101-5.22-3.304-6.83-2.202-1.652-4.744-2.478-7.624-2.478zm-.381-19.853h-7.166v16.582h7.166c2.859 0 5.157-.699 6.893-2.097s2.605-3.473 2.605-6.226-.858-4.818-2.573-6.194-4.024-2.065-6.925-2.065z"/><path id="C" d="M281.264 162.995l-4.599 13.659h-5.146l16.71-45.551h5.146l16.684 45.551h-5.146l-4.599-13.659zm17.927-3.399l-8.388-24.968-8.415 24.968z"/></defs></svg>