<svg xmlns="http://www.w3.org/2000/svg" width="800" height="152.173" viewBox="0 0 211.437 40.04"><path fill="#ef8600" d="M50.135 5.301c-8.136 0-14.736 6.598-14.736 14.74 0 7.223 5.195 13.229 12.053 14.493V20.037h5.371v14.497c6.855-1.264 12.05-7.27 12.05-14.493a14.74 14.74 0 0 0-14.738-14.74m0-5.37c11.107 0 20.109 9.005 20.109 20.109s-9.002 20.11-20.109 20.11a20.11 20.11 0 0 1 0-40.218"/><path d="M72.959 24.925l-.112-4.389h1.5l.112 2.25h.055c1.028-2.03 2.222-2.446 3.778-2.446v1.724c-2.556 0-3.723 1.109-3.723 3.72v8.919h-1.611zm14.276 2.639c-3.333 0-6.139 0-6.139 3.224 0 1.194.888 2.609 2.612 2.609.751 0 3.527-.305 3.527-4.166v-1.668zm1.502 3.973c0 1.056.082 2.113.166 3.167h-1.446l-.112-2.028h-.055c-.973 1.558-2.139 2.223-3.974 2.223-2.194 0-3.944-1.806-3.944-4.11 0-4.53 4.806-4.612 6.834-4.612h1.027c0-1.778 0-4.335-2.945-4.335-1.89 0-3.388 1.333-3.556 1.473l-.249-1.722c1.333-.723 2.333-1.249 3.889-1.249 4.363 0 4.363 3.665 4.363 4.693v6.501zm4.97-3.915c0 1.165 0 5.776 3.221 5.776 2.749 0 3.5-2.72 3.5-5.61 0-1.89 0-5.946-3.472-5.946-2.416 0-3.249 2.499-3.249 5.78m8.221 2.39l.112 4.693h-1.501V32.76h-.057c-1.052 1.332-1.943 2.138-3.719 2.138-4.613 0-4.78-5.833-4.78-7.806 0-2.695 1.14-6.752 4.696-6.752 1.806 0 2.858.722 3.583 2.029h.056v-8.501h1.61V30.01zm3.916-15.114h1.944v2.499h-1.944zm.167 5.64h1.611v14.167h-1.611zm10.357 14.361c-4.14 0-5.306-3.722-5.306-7.277s1.165-7.28 5.306-7.28 5.305 3.722 5.305 7.28-1.164 7.277-5.305 7.277m0-1.498c3.585 0 3.585-4.643 3.585-5.779s0-5.78-3.585-5.78-3.585 4.641-3.585 5.78 0 5.779 3.585 5.779m12.056-5.891c0 2.692.695 4.889 2.722 4.889 2.002 0 2.529-1.666 2.529-4.97 0-2.864-.667-4.725-2.585-4.725-1.89 0-2.666 2.029-2.666 4.807m0-13.641v8.586h.054c.502-1.112 1.639-2.279 3.697-2.279 3.083 0 4.946 2.723 4.946 7.39 0 3.971-1.475 7.364-5.029 7.364-2.225 0-3.252-1.226-3.806-2.447h-.086c0 .973-.053 1.804-.111 2.222h-3.223c.083-.529.111-1.416.111-2.443V13.869zm11.805 20.835h3.443v-7.833c0-2.666 1.558-3.529 2.974-3.529.362 0 .665.055.971.138V20.26c-.193-.029-.362-.084-.582-.084-2.142 0-3.224 1.723-3.641 2.833h-.055l-.112-2.612h-3.112c.085.638.112 1.472.112 2.362v11.946zm16.996-8.39c0-2.527-.833-3.805-2.388-3.805-1.805 0-2.556 1.915-2.556 3.805zm2.613 7.696c-.722.307-2.221.919-4.278.919-4.613 0-6.613-3.308-6.613-7.171 0-4.276 2.251-7.584 5.89-7.584 3.083 0 5.723 1.806 5.723 7.642v.665h-8.279c0 2.446.971 3.917 3.638 3.917 2.113 0 3.113-.638 3.752-1.11zm3.865.694h3.444V26.04c0-1.585.805-3.03 2.335-3.03 1.278 0 1.833.889 1.833 2.668v9.027h3.444V26.04c0-1.585.805-3.03 2.335-3.03 1.277 0 1.834.889 1.834 2.668v9.027h3.443V25.87c0-3.471-.999-5.693-4.11-5.693-2.111 0-3.14 1.277-3.835 2.279-.417-.779-1.194-2.279-3.61-2.279-1.974 0-3.086 1.361-3.613 2.472h-.055l-.108-2.25h-3.448c.055.529.112 1.305.112 2.334v11.973zm29.865-8.39c0-2.527-.834-3.805-2.39-3.805-1.805 0-2.553 1.915-2.553 3.805zm2.611 7.696c-.722.307-2.221.919-4.278.919-4.61 0-6.612-3.308-6.612-7.171 0-4.276 2.248-7.584 5.889-7.584 3.084 0 5.725 1.806 5.725 7.642v.665h-8.278c0 2.446.969 3.917 3.636 3.917 2.115 0 3.111-.638 3.75-1.11zm3.95.694h3.444v-8.332c0-1.835.64-3.363 2.444-3.363 1.42 0 1.974.915 1.974 3.111v8.584h3.445v-9.222c0-2.89-.972-5.307-4.223-5.307-2.335 0-3.307 1.555-3.807 2.417h.03-.083c0-.722-.083-1.473-.112-2.195h-3.224c.084.638.112 1.472.112 2.362zM12.058 19.854H8.946v-6.348H3.112v6.348H0V5.137h3.112v5.771h5.833V5.137h3.112zm15.274-7.503c0 2.487-.725 4.363-2.176 5.627-1.436 1.25-3.457 1.876-6.062 1.876h-4.267V5.137h4.731c1.577 0 2.943.275 4.098.824 1.169.55 2.07 1.36 2.704 2.432.648 1.058.972 2.377.972 3.957zm-3.316.082c0-1.635-.366-2.831-1.098-3.586-.732-.77-1.795-1.154-3.189-1.154h-1.711v9.584h1.373c3.084 0 4.626-1.615 4.626-4.844z"/></svg>