<svg id="Ebene_1" data-name="Ebene 1" xmlns="http://www.w3.org/2000/svg" viewBox="0 0 1153.47 193.61"><defs><style>.cls-1{fill:#fff;}.cls-2{fill:#e31818;}.cls-3{fill:#585856;}</style></defs><title>RBB_88_RGB_red</title><path id="rbb_Kachel_HG" class="cls-1" d="M0,0V192.22H396.9L437.76,0Z"/><g id="rbb_Kachel"><path class="cls-2" d="M280.94,94.18v37.38c12.27,1.1,22.74,1.78,31.59,1.78,20.11-.05,31.53-2.48,36.63-3.93a151,151,0,0,0,.9-15.73,142.63,142.63,0,0,0-1.14-15.79C339.45,94.82,315,88.88,280.94,94.18Z"/><path class="cls-2" d="M162.89,94.18v37.38c12.27,1.1,22.76,1.78,31.6,1.78,20.11-.05,31.53-2.48,36.62-3.93a147.83,147.83,0,0,0,.91-15.73,140.21,140.21,0,0,0-1.14-15.79C221.42,94.82,196.92,88.88,162.89,94.18Z"/><path class="cls-2" d="M0,0V192.22H396.9L437.76,0ZM129.17,92.34c-40.22.55-61.85,7-69.57,9.66v46.83H43.3V91.1s24.43-15,85.87-15.33Zm115.15,49s-10.29,8.59-50.08,8.59c-21.8,0-47.32-3.26-47.32-3.26V42.31h16V77.43a200.28,200.28,0,0,1,26.53-2c36.79,0,54.77,10.26,54.77,10.26s3.89,5,3.89,27.22C248.08,135.85,244.32,141.32,244.32,141.32Zm118.05,0s-10.32,8.59-50.09,8.59c-21.81,0-47.31-3.26-47.31-3.26V42.31h16V77.43a200,200,0,0,1,26.53-2c36.76,0,54.77,10.26,54.77,10.26s3.88,5,3.88,27.22C366.12,135.85,362.37,141.32,362.37,141.32Z"/></g><g id="EQ"><rect class="cls-2" x="1067.49" y="96.88" width="33.1" height="95.33"/><rect class="cls-2" x="908.86" y="130.23" width="33.1" height="61.99"/><rect class="cls-2" x="1014.61" y="33.37" width="33.1" height="158.85"/><rect class="cls-2" x="1120.37" y="144.55" width="33.1" height="47.67"/><rect class="cls-2" x="961.74" y="96.88" width="33.1" height="95.33"/></g><g id="_88.8" data-name="88.8"><path class="cls-3" d="M821,193.06c-35.46,0-57.88-19.53-57.88-54,0-22.19,10.85-33.53,21-39.8-8.92-6.27-16.4-16.88-16.4-33,0-28.22,21.46-47.27,53.79-47.27C854.76,18.93,875,38.47,875,66.2c0,16.16-7.24,25.8-16.65,32.56,10.37,6.27,21,18.09,21,40.28,0,35-22.43,54-58.37,54m0-77.9c-13,0-19.54,7.24-19.54,22.91,0,16.41,7,23.16,20,23.16s19.77-6.52,19.77-22.91c0-15.92-7.24-23.16-20.26-23.16m.24-65.84c-11.33,0-15.92,6-15.92,17.61,0,10.36,4.83,17.84,16.17,17.84s15.91-7.24,15.91-17.36c0-11.82-5.06-18.09-16.16-18.09"/><path class="cls-3" d="M529.54,193.06c-35.45,0-57.88-19.53-57.88-54,0-22.19,10.85-33.53,21-39.8-8.92-6.27-16.4-16.88-16.4-33,0-28.22,21.47-47.27,53.79-47.27,33.28,0,53.54,19.54,53.54,47.27,0,16.16-7.24,25.8-16.64,32.56,10.36,6.27,21,18.09,21,40.28,0,35-22.43,54-58.37,54m0-77.9c-13,0-19.53,7.24-19.53,22.91,0,16.41,7,23.16,20,23.16s19.77-6.52,19.77-22.91c0-15.92-7.23-23.16-20.26-23.16m.25-65.84c-11.34,0-15.92,6-15.92,17.61,0,10.36,4.82,17.84,16.16,17.84S546,77.53,546,67.41c0-11.82-5.07-18.09-16.16-18.09"/><path class="cls-3" d="M755.89,175.34a18.27,18.27,0,1,1-18.27-18.27,18.27,18.27,0,0,1,18.27,18.27"/><path class="cls-3" d="M656.58,193.06c-35.46,0-57.88-19.53-57.88-54,0-22.19,10.85-33.53,21-39.8-8.92-6.27-16.4-16.88-16.4-33,0-28.22,21.46-47.27,53.78-47.27,33.29,0,53.55,19.54,53.55,47.27,0,16.16-7.24,25.8-16.65,32.56,10.37,6.27,21,18.09,21,40.28,0,35-22.42,54-58.36,54m0-77.9c-13,0-19.54,7.24-19.54,22.91,0,16.41,7,23.16,20,23.16s19.78-6.52,19.78-22.91c0-15.92-7.24-23.16-20.26-23.16m.24-65.84c-11.33,0-15.92,6-15.92,17.61,0,10.36,4.83,17.84,16.16,17.84S673,77.53,673,67.41c0-11.82-5.07-18.09-16.16-18.09"/></g></svg>