<?xml version="1.0" encoding="UTF-8"?>
<svg width="800" height="134.28" data-name="Ebene 1" version="1.1" xmlns="http://www.w3.org/2000/svg">
	<path class="cls-1" d="m0 0v133.32h275.27l28.339-133.32z" fill="#fff"/>
	<g fill="#e31818">
		<path class="cls-2" d="m194.85 65.319v25.925c8.51 0.76292 15.772 1.2345 21.91 1.2345 13.947-0.03468 21.868-1.72 25.405-2.7257a104.73 104.73 0 0 0 0.62421-10.91 98.922 98.922 0 0 0-0.79066-10.951c-6.568-2.1292-23.526-6.249-47.148-2.5731z"/>
		<path class="cls-2" d="m112.97 65.319v25.925c8.51 0.76292 15.785 1.2345 21.916 1.2345 13.947-0.03468 21.868-1.72 25.398-2.7257a102.53 102.53 0 0 0 0.63114-10.91 97.244 97.244 0 0 0-0.79066-10.951c-6.5611-2.1292-23.553-6.249-47.155-2.5731z"/>
		<path class="cls-2" d="m0 0v133.32h275.27l28.339-133.32zm89.587 64.043c-27.895 0.38146-42.897 4.8549-48.251 6.6998v32.479h-11.305v-40.039s16.944-10.403 59.556-10.632zm79.863 33.984s-7.1367 5.9577-34.733 5.9577c-15.12 0-32.819-2.261-32.819-2.261v-72.38h11.097v24.358a138.91 138.91 0 0 1 18.4-1.3871c25.516 0 37.986 7.1159 37.986 7.1159s2.6979 3.4678 2.6979 18.879c-0.0208 15.91-2.6286 19.704-2.6286 19.704zm81.875 0s-7.1575 5.9577-34.74 5.9577c-15.127 0-32.812-2.261-32.812-2.261v-72.38h11.097v24.358a138.71 138.71 0 0 1 18.4-1.3871c25.495 0 37.986 7.1159 37.986 7.1159s2.691 3.4678 2.691 18.879c-0.0208 15.91-2.6217 19.704-2.6217 19.704z"/>
		<rect class="cls-2" x="740.37" y="67.192" width="22.957" height="66.117"/>
		<rect class="cls-2" x="630.35" y="90.322" width="22.957" height="42.994"/>
		<rect class="cls-2" x="703.69" y="23.144" width="22.957" height="110.17"/>
		<rect class="cls-2" x="777.04" y="100.25" width="22.957" height="33.062"/>
		<rect class="cls-2" x="667.02" y="67.192" width="22.957" height="66.117"/>
	</g>
	<g fill="#585856">
		<path class="cls-3" d="m569.41 133.9c-24.594 0-40.143-13.545-40.143-37.452 0-15.39 7.5251-23.255 14.565-27.604-6.1866-4.3486-11.374-11.707-11.374-22.887 0-19.572 14.884-32.785 37.307-32.785 23.061-0.04161 37.098 13.511 37.098 32.743 0 11.208-5.0214 17.894-11.548 22.582 7.1922 4.3486 14.565 12.546 14.565 27.937 0 24.275-15.557 37.452-40.483 37.452m0-54.028c-9.0163 0-13.552 5.0214-13.552 15.889 0 11.381 4.8549 16.063 13.871 16.063 9.0163 0 13.712-4.522 13.712-15.889 0-11.041-5.0214-16.063-14.052-16.063m0.16645-45.664c-7.858 0-11.041 4.1614-11.041 12.214 0 7.1853 3.3499 12.373 11.215 12.373 7.865 0 11.035-5.0214 11.035-12.04 0-8.1979-3.5094-12.546-11.208-12.546"/>
		<path class="cls-3" d="m367.27 133.9c-24.587 0-40.143-13.545-40.143-37.452 0-15.39 7.5251-23.255 14.565-27.604-6.1866-4.3486-11.374-11.707-11.374-22.887 0-19.572 14.891-32.785 37.307-32.785 23.082 0 37.133 13.552 37.133 32.785 0 11.208-5.0214 17.894-11.541 22.582 7.1853 4.3486 14.565 12.546 14.565 27.937 0 24.275-15.557 37.452-40.483 37.452m0-54.028c-9.0163 0-13.545 5.0214-13.545 15.889 0 11.381 4.8549 16.063 13.871 16.063s13.712-4.522 13.712-15.889c0-11.041-5.0144-16.063-14.052-16.063m0.17339-45.664c-7.865 0-11.041 4.1614-11.041 12.214 0 7.1853 3.343 12.373 11.208 12.373s11.062-5.0491 11.062-12.068c0-8.1979-3.5163-12.546-11.208-12.546"/>
		<path class="cls-3" d="m524.25 121.61a12.671 12.671 0 1 1-12.671-12.671 12.671 12.671 0 0 1 12.671 12.671"/>
		<path class="cls-3" d="m455.38 133.9c-24.594 0-40.143-13.545-40.143-37.452 0-15.39 7.5251-23.255 14.565-27.604-6.1866-4.3486-11.374-11.707-11.374-22.887 0-19.572 14.884-32.785 37.3-32.785 23.089 0 37.14 13.552 37.14 32.785 0 11.208-5.0214 17.894-11.548 22.582 7.1922 4.3486 14.565 12.546 14.565 27.937 0 24.275-15.55 37.452-40.476 37.452m0-54.028c-9.0163 0-13.552 5.0214-13.552 15.889 0 11.381 4.8549 16.063 13.871 16.063 9.0163 0 13.719-4.522 13.719-15.889 0-11.041-5.0214-16.063-14.052-16.063m0.16645-45.664c-7.858 0-11.041 4.1614-11.041 12.214 0 7.1853 3.3499 12.373 11.208 12.373 7.858 0 11.041-5.0491 11.041-12.068 0-8.1979-3.5163-12.546-11.208-12.546"/>
	</g>
</svg>
