<?xml version="1.0" encoding="UTF-8"?>
<svg width="800" height="276.68" version="1.1" xmlns="http://www.w3.org/2000/svg">
	<path d="m716.5 88.436v-27.015h13.92v70.422h-13.92v-29.742h-29.069v29.726h-13.92v-70.406h13.92v27.022zm26.204-27.015v70.422h20.472c22.497 0 36.823-13.55 36.823-35.672 0-20.935-10.78-34.751-35.186-34.751h-22.102zm13.92 13.101h7.3698c15.512 0 21.572 8.1682 21.572 21.982 0 15.15-9.9299 22.238-21.572 22.238h-7.3698v-44.227z" fill="#595957"/>
	<path d="m630.1 0h-630.1v276.68h571.3z" fill="#e31818"/>
	<path d="m332.65 186.27a211.21 211.21 0 0 0 1.2809-22.621 201.03 201.03 0 0 0-1.6011-22.749c-13.616-4.4191-48.879-12.963-97.871-5.3414v53.798c17.663 1.5883 32.765 2.5618 45.497 2.5618 28.936 0 45.382-3.5609 52.709-5.6488m169.92 0a219.72 219.72 0 0 0 1.2809-22.621 205.78 205.78 0 0 0-1.6395-22.749c-13.629-4.4191-48.879-12.963-97.863-5.3414v53.798c17.663 1.5883 32.74 2.5618 45.472 2.5618 28.961 0 45.382-3.5609 52.735-5.6488m24.414-23.697c0 32.983-5.4054 40.835-5.4054 40.835s-14.833 12.361-72.089 12.361c-31.382 0-68.105-4.6881-68.105-4.6881v-150.18h23.056v50.532a286.76 286.76 0 0 1 38.197-2.8308c52.914 0 78.841 14.756 78.841 14.756s5.5848 7.2243 5.5848 39.195m-169.91 0c0 32.983-5.4054 40.835-5.4054 40.835s-14.807 12.361-72.077 12.361c-31.382 0-68.105-4.6881-68.105-4.6881v-150.16h22.839v50.532a287.19 287.19 0 0 1 38.197-2.8308c52.94 0 78.841 14.756 78.841 14.756s5.5848 7.2243 5.5848 39.195m-171.1-29.653c-57.884 0.79416-89.033 10.081-100.15 13.91v67.414h-23.441v-83.103s35.16-21.596 123.61-22.07z" fill="#fff"/>
</svg>
