<?xml version="1.0" encoding="UTF-8"?>
<svg width="800" height="382.81" version="1.1" xmlns="http://www.w3.org/2000/svg">
	<path d="m68.278 191.98-11.733-36.118c9.8921-3.6808 15.413-12.193 16.909-21.74 3.5658-22.89-10.237-28.871-30.597-28.871h-22.66l-13.688 86.729h23.465l3.6808-23.12c0.69013-4.2559 1.1502-8.5118 1.6104-12.768l0.34506-0.23002 7.2466 36.118zm-30.942-46.7 3.4507-21.395c6.4414-0.34507 10.582 2.8756 9.317 10.467-0.80517 5.6362-5.0611 11.042-11.272 11.042zm36.093 46.7h43.594l3.2207-20.474h-20.129l2.0704-13.228h18.059l3.3357-20.474h-18.059l1.8404-12.078h20.129l3.2207-20.474h-43.594zm54.843 0h20.474c14.263 0 40.029-3.6808 46.355-43.709 4.1409-26.226-7.5916-43.019-34.277-43.019h-18.864zm33.817-65.104c10.697 0 10.467 13.113 8.9719 22.545-1.3803 8.1668-5.2911 21.51-15.988 21.625z"/>
	<path d="m285.45 191.98h20.474c14.263 0 40.029-3.6808 46.355-43.709 4.1409-26.226-7.5916-43.019-34.277-43.019h-18.864zm33.817-65.104c10.697 0 10.467 13.113 8.9719 22.545-1.3803 8.1668-5.2911 21.51-15.988 21.625zm70.837 65.104 37.268-86.729h-25.42l-12.078 35.658c-2.3005 7.0165-3.7958 13.918-5.9813 20.934h-0.23002c0.23002-7.0165 0.80518-13.918 0.80518-20.934l0.11505-35.658h-24.615l6.2113 86.729zm29.632 0h43.594l3.2207-20.474h-20.129l2.0704-13.228h18.059l3.3357-20.474h-18.059l1.8404-12.078h20.129l3.2207-20.474h-43.594zm56.925 0h22.545l4.0259-25.42c1.2653-8.1667 1.4953-16.218 2.3005-24.385l0.23001-0.23001 9.547 50.036h22.545l13.688-86.729h-22.545l-3.4507 22.085c-1.6103 10.007-1.3803 19.899-2.0704 29.906l-0.23002 0.23001-10.582-52.221h-22.315zm105.49 0 10.352-65.564h13.458l3.3357-21.165h-49.806l-3.3357 21.165h12.883l-10.352 65.564zm73.303-86.729-8.6268 54.637c-0.34507 2.1855-0.69013 5.1761-1.7254 7.5916-0.92019 2.3005-2.7606 4.1409-6.0963 4.1409-3.2207 0-4.3709-1.8404-4.716-4.2559-0.34505-2.3005 0.23002-5.2911 0.57508-7.5916l8.6269-54.522h-23.465l-8.9719 56.707c-1.6104 10.467-2.6456 31.517 24.5 31.517s32.782-21.05 34.392-31.517l8.9719-56.707zm82.941 86.729-11.732-36.118c9.8921-3.6808 15.413-12.193 16.909-21.74 3.5658-22.89-10.237-28.871-30.597-28.871h-22.66l-13.688 86.729h23.465l3.6808-23.12c0.68981-4.2559 1.1502-8.5118 1.6103-12.768l0.34491-0.23002 7.2465 36.118zm-30.942-46.7 3.4508-21.395c6.4413-0.34507 10.582 2.8756 9.317 10.467-0.80517 5.6362-5.0611 11.042-11.272 11.042zm35.261 46.7h43.594l3.2207-20.474h-20.129l2.0704-13.228h18.059l3.3358-20.474h-18.059l1.8404-12.078h20.129l3.2207-20.474h-43.594z"/>
	<path d="m567.97 261.72 8.16-51.703h-13.989l-2.88 18.514h-6.6514l2.88-18.514h-13.989l-8.16 51.703h13.989l3.2914-20.983h6.6514l-3.2914 20.983zm8.0172 0h12.206c8.5029 0 23.863-2.1943 27.634-26.057 2.4686-15.634-4.5257-25.646-20.434-25.646h-11.246zm20.16-38.812c6.3772 0 6.24 7.8172 5.3486 13.44-0.82286 4.8686-3.1543 12.823-9.5315 12.891z" display="none" fill="#e30613"/>
	<path d="m273.84 0-71.512 210.01h-198.66l-3.6645 23.219h218.95l33.011-96.961 2.4482 246.53 57.805-149.57h219.13l3.6645-23.219h-238.72l-19.866 51.396-1.9024-191.39 0.016-0.01597z" fill="#e30613"/>
</svg>
