<?xml version="1.0" encoding="UTF-8"?>
<svg width="800" height="363.29" version="1.1" xmlns="http://www.w3.org/2000/svg">
	<path d="m338.09 0.0092198c-39.918 0.59078-74.689 33.992-63.675 86.76l-4e-3 -0.0039c7.0152 33.563 29.599 61.129 55.906 85.671 6.7532-18.093 14.564-38.703 21.569-56.695 7.2572-18.443 14.615-40.112 18.647-54.928-9.9281 3.024-20.51 9.0215-30.187 17.135-6.4501 5.4421-11.24 12.498-13.104 19.352-0.4535 2.671-2.2679 4.6852-4.5861 5.1388-2.9734 0.55412-5.895-1.4112-6.4494-4.3341-0.0504-0.252-0.15234-0.857-0.15234-1.5626 0.0504-0.55401 1.3618-12.397 1.4121-13.204 0.50382-4.4349 1.0588-4.8874 4.3848-7.5079 10.584-8.3662 24.643-17.236 38.249-22.981 11.842-4.938 26.053-9.1206 40.064-11.842 16.126-3.0237 36.385-5.694 50.495 1.3613 6.9045 3.4271 11.742 9.8764 13.254 17.687 1.8141 9.4241-1.3594 19.956-9.2208 30.438-5.8461 7.8111-14.464 15.572-23.031 20.863-6.8031 4.1321-15.219 8.0137-23.584 10.785 10.935 12.901 29.026 32.251 45.556 47.169 2.973 2.7212 5.948 5.241 8.8204 7.6095 28.324-25.702 53.318-54.575 60.725-90.154 16.02-76.75-64.81-112.53-117.47-65.966-2.3687 2.1166-4.6367 4.3336-6.9044 6.8029-2.2677-2.4692-4.5359-4.6863-6.9044-6.8029-16.456-14.553-35.663-21.062-53.808-20.793zm75.693 51.186c-2.2173 0.1008-5.6432 0.45271-8.0118 0.90627-3.9308 0.75592-6.5008 2.2165-7.8615 4.4844-8.2648 14.11-17.688 40.518-26.658 66.872-2.2677 6.753-4.686 13.658-7.004 20.36-4.3341 12.598-10.331 29.935-15.522 45.005 14.614 12.448 29.479 24.239 42.833 35.831 2.4694 2.1165 5.09 4.4336 5.09 4.4336 1.2094 1.0583 3.1748 1.0583 4.3341 0 0 0 2.6205-2.3172 5.09-4.4336 11.691-10.129 24.544-20.41 37.344-31.196-8.1137-6.501-16.429-14.261-25.147-23.383h-2e-3c-7.3578-7.7606-16.427-18.243-24.44-27.565-4.2834-4.9388-8.3663-9.6261-11.794-13.557-1.3606-1.3606-2.2676-2.9239-2.5196-4.4356-0.65512-3.2252 1.6119-6.3985 4.9883-7.1544 1.3606-0.40319 2.9233-0.85746 4.6368-1.3614 3.2757-0.90711 6.9054-1.9656 10.08-2.8224 16.479-4.8379 27.767-12.548 34.52-23.483 4.082-6.7023 5.4923-14.867 3.9805-22.93-0.95748-4.8379-4.0814-9.574-7.5587-11.539l-0.20118-0.10156c-4.1829-2.5702-10.232-4.0809-16.178-3.9298z" fill="#410f2d"/>
	<path d="m116.69 286.73 4e-3 2e-3c-22.536 0-37.868 17.889-37.868 38.298v0.20117c0 20.409 15.113 38.051 37.649 38.051 22.532 0 37.86-17.84 37.86-38.25v-0.25194c0-20.409-15.114-38.049-37.646-38.049zm373.32 0.0117c-21.82 0-37.494 17.335-37.494 38.3v0.20118c0 21.268 15.774 38.049 37.141 38.049 12.145 0 20.21-4.2328 27.516-10.885 0.7559-0.60471 1.3594-1.664 1.3594-2.9239 0-2.167-1.9148-4.0313-4.0313-4.0313-1.0584 0-2.0164 0.50506-2.6211 1.1602-6.3492 5.7953-12.8 8.969-22.022 8.969-16.278 0-28.675-13.456-28.675-30.54v-0.25196c0-16.983 12.296-30.337 28.675-30.337 9.1212 0 15.571 3.375 21.266 8.465 0.65511 0.40313 1.6124 0.959 2.7715 0.959 2.2174 0 4.1836-1.9155 4.1836-4.1328 0-1.4614-0.80546-2.6211-1.6622-3.377-6.8532-5.6947-14.463-9.6252-26.407-9.6252zm-182.26 0.39649-0.45118 4e-3c-2.6205 0-4.2349 1.3599-5.293 3.7286l-30.034 65.663c-0.41322 0.85673-0.51954 1.6121-0.51954 2.2168 0 2.1165 1.6924 3.8302 3.7989 3.8302 1.9099 0 3.2818-1.059 4.0176-2.8731l7.7248-17.234h40.612l7.7599 17.034c0.70554 1.663 2.0664 3.0743 4.0821 3.0743 2.2173 0 4.0313-1.8138 4.0313-4.0313 0-0.65511-0.19997-1.3613-0.55276-2.1172l-29.985-65.564c-0.95749-2.3685-2.6719-3.7306-5.1915-3.7306zm428.4 0.35157c-2.3685 0-4.2325 1.966-4.2325 4.133 0 0.70551 0.1 1.2586 0.40235 1.8633l28.575 65.917c0.80621 2.1166 2.4191 3.4786 4.838 3.4786h0.40429c2.4692 0 3.9293-1.3621 4.8868-3.4786l28.675-66.219c0.20146-0.55431 0.30274-1.0578 0.30274-1.7129 0-2.1164-1.8148-3.9805-4.1329-3.9805-1.8645 0-3.375 1.4605-4.1309 2.922l-25.653 61.581-25.6-61.331c-0.75611-1.8143-2.2679-3.1738-4.3341-3.1738zm-312.44 8e-3c-2.3181 0-4.1328 1.8651-4.1328 4.1329v55.835l-44.95-57.348c-1.1591-1.4614-2.3194-2.4199-4.2345-2.4199h-1.1582c-2.2172 0-4.133 1.8647-4.133 4.0821v66.673c0 2.2172 1.814 4.1329 4.0313 4.1329 2.3181 0 4.1328-1.9156 4.1328-4.1329v-57.349l45.859 58.708c1.3103 1.4615 2.5706 2.5704 4.3848 2.5704h0.40234c2.2172 0 3.8302-1.7124 3.8302-3.9298v-66.823c0-2.2676-1.814-4.1328-4.0313-4.1328zm-240.57 0.20118c-2.2122 0-4.127 1.8647-4.127 4.0821l2e-3 66.672c0 2.3181 1.8034 4.1329 4.0157 4.1329 2.3231 0 4.1271-1.8148 4.1271-4.1329v-55.229l23.575 34.721c0.9575 1.3606 2.1308 2.1153 3.6075 2.1153 1.4766-1e-5 2.5417-0.75465 3.4942-2.1153l23.684-34.823v55.231c0 2.2174 1.9112 4.2325 4.2345 4.2325 2.2173 0 4.127-1.9144 4.127-4.2325v-66.572c0-2.2173-1.9097-4.0821-4.127-4.0821h-0.95315c-1.6935 0-3.0636 0.80776-3.9102 2.2188l-26.444 39.76-26.442-39.761c-0.84651-1.2599-2.1072-2.2188-3.9064-2.2188zm362.3 0.29688c-2.2173-1e-5 -4.0821 1.9144-4.0821 4.2325v65.614h2e-3c0 2.3183 1.8647 4.1818 4.0821 4.1818h46.565c2.167 0 3.8803-1.7632 3.7794-3.9805-0.10061-2.0663-1.9143-3.6289-3.9805-3.6289h-42.132v-25.903h36.788c1.3607 0 2.7227-0.65389 3.4786-1.8633 1.6126-2.5702-0.45488-5.7462-3.2266-5.7462h-37.04v-25.297h41.776c2.1669 0 3.9311-1.7651 3.8302-3.9825-0.10092-2.0662-1.9651-3.627-4.0313-3.627zm-513.61 4e-3 -27.7 2e-3c-2.2123-3.1e-4 -4.1232 1.9141-4.1232 4.2322v66.117c0 2.3182 1.9107 4.2325 4.1232 4.2325 2.3232 0 4.2325-1.9144 4.2325-4.2325v-25.096h21.256l20.844 27.061c0.95246 1.3103 2.2113 2.2676 3.9043 2.2676 2.1064 0 4.2345-1.9136 4.2345-4.1309 0-1.1591-0.52054-2.1167-1.3672-3.0743l-18.415-23.686c11.53-2.2173 19.78-9.3239 19.78-21.469v-0.25196c0-5.7953-2.1259-10.984-5.7091-14.563-4.6715-4.6364-11.964-7.4083-21.061-7.4083zm626.01 2e-3c-2.1166 0-3.8809 1.8132-3.8809 3.9298s1.7644 3.7794 3.8809 3.7794h21.467v62.64c0 2.3182 1.9163 4.2325 4.2345 4.2325s4.2325-1.9144 4.2325-4.2325v-62.64h21.469c2.1165 0 3.9298-1.6629 3.9298-3.7794s-1.8132-3.9298-3.9298-3.9298zm-541.33 6.4396c16.933 0 29.198 13.759 29.198 30.59v0.20117c0 16.832-12.074 30.338-28.981 30.338-16.938 0-29.204-13.758-29.204-30.54v-0.25196c0-16.781 12.075-30.338 28.987-30.338zm-108.14 1.2712h22.841c11.964 0 18.931 5.4922 18.931 14.613v0.20117c0 9.5246-7.9271 15.219-19.04 15.219h-22.733zm298.95 1.2559 17.031 37.897h-34.056z" fill="#410f2d"/>
</svg>
