<?xml version="1.0" encoding="UTF-8"?>
<svg width="800" height="363.28" version="1.1" xmlns="http://www.w3.org/2000/svg">
	<path d="m0.018823 292.2c0-2.334 1.9011-4.2351 4.1222-4.2351h27.707c9.0913 0 16.395 2.7481 21.044 7.3973 3.5951 3.5951 5.7033 8.7714 5.7033 14.588v0.20704c0 12.159-8.2443 19.256-19.783 21.477l18.409 23.698c0.84702 0.95996 1.3741 1.9011 1.3741 3.0681 0 2.2211-2.1081 4.1222-4.2351 4.1222-1.694 0-2.9552-0.95995-3.9151-2.2211l-20.837-27.067h-21.251v25.072c0 2.334-1.9011 4.2351-4.2351 4.2351-2.334 0-4.1222-1.9011-4.1222-4.2351v-66.105zm31.095 33.523c11.105 0 19.03-5.7033 19.03-15.228v-0.20704c0-9.0913-6.9832-14.588-18.936-14.588h-22.851v30.041h22.738zm47.753-0.52704v-0.20705c0-20.404 15.34-38.285 37.871-38.285 22.531 0 37.645 17.656 37.645 38.078v0.20705c0 20.404-15.34 38.285-37.871 38.285-22.531 0-37.645-17.656-37.645-38.078zm66.839 0v-0.20705c0-16.809-12.272-30.568-29.194-30.568-16.922 0-28.987 13.533-28.987 30.361v0.20705c0 16.809 12.272 30.568 29.194 30.568 16.922 0 28.987-13.533 28.987-30.361zm33.316-33.429c0-2.2211 1.9011-4.1222 4.1222-4.1222h0.95996c1.807 0 3.0681 0.95996 3.9151 2.2211l26.446 39.772 26.446-39.772c0.84702-1.374 2.2211-2.2211 3.9151-2.2211h0.95996c2.2211 0 4.1222 1.9011 4.1222 4.1222v66.519c0 2.334-1.9011 4.2351-4.1222 4.2351s-4.2351-2.014-4.2351-4.2351v-55.207l-23.698 34.803c-0.95996 1.374-2.014 2.1081-3.4822 2.1081s-2.654-0.73408-3.5951-2.1081l-23.585-34.69v55.207c0 2.334-1.807 4.1222-4.1222 4.1222-2.3152 0-4.0092-1.807-4.0092-4.1222v-66.632zm92.965 64.731 30.041-65.672c1.0541-2.334 2.654-3.7081 5.2892-3.7081h0.41409c2.5411 0 4.2351 1.3741 5.1762 3.7081l30.041 65.578c0.31999 0.73408 0.52703 1.487 0.52703 2.1081 0 2.2211-1.807 4.028-4.0092 4.028-2.014 0-3.3881-1.374-4.1222-3.0681l-7.7173-17.034h-40.619l-7.7173 17.242c-0.73408 1.7882-2.1081 2.861-4.0092 2.861-2.1081 0-3.8022-1.694-3.8022-3.8022 0-0.63997 0.11294-1.374 0.52703-2.2211zm52.346-21.684-17.034-37.871-17.034 37.871h34.05zm40.77-43.047c0-2.2211 1.9011-4.1222 4.1222-4.1222h1.167c1.9011 0 3.0681 0.95996 4.2351 2.4281l44.948 57.315v-55.847c0-2.2211 1.807-4.1222 4.1222-4.1222s4.0092 1.9011 4.0092 4.1222v66.839c0 2.2211-1.5811 3.9151-3.8022 3.9151h-0.43293c-1.7881 0-3.0681-1.0541-4.3292-2.5411l-45.908-58.689v57.315c0 2.2211-1.7882 4.1222-4.1222 4.1222-2.334 0-4.0092-1.9011-4.0092-4.1222v-66.632zm87.45 33.429v-0.20705c0-20.95 15.66-38.285 37.438-38.285 11.952 0 19.576 3.9151 26.446 9.6184 0.84701 0.73409 1.694 1.9011 1.694 3.3881 0 2.2211-2.014 4.1222-4.2351 4.1222-1.167 0-2.1081-0.52703-2.7481-0.95995-5.7033-5.0821-12.159-8.4702-21.251-8.4702-16.395 0-28.667 13.326-28.667 30.361v0.20705c0 17.129 12.366 30.568 28.667 30.568 9.2043 0 15.66-3.181 22.004-8.9972 0.63998-0.63997 1.5811-1.167 2.654-1.167 2.1081 0 4.0092 1.9011 4.0092 4.0092 0 1.2611-0.63997 2.334-1.374 2.9552-7.3032 6.6632-15.34 10.898-27.5 10.898-21.364 0-37.118-16.809-37.118-38.078zm88.749 32.582v-65.578c0-2.334 1.9011-4.2351 4.1222-4.2351h45.814c2.0705 0 3.8963 1.5623 3.9904 3.6328 0.0941 2.2022-1.6376 3.9904-3.8022 3.9904h-41.767v25.279h37.024c2.8046 0 4.8562 3.1622 3.2187 5.7786-0.73408 1.1858-2.0893 1.8258-3.4822 1.8258h-36.761v25.919h42.106c2.0705 0 3.8963 1.5623 3.9904 3.614 0.0941 2.2022-1.6188 3.9904-3.8022 3.9904h-46.53c-2.2211 0-4.1222-1.9011-4.1222-4.2351zm138.01-62.077h-21.477c-2.1081 0-3.9151-1.694-3.9151-3.8022s1.807-3.9151 3.9151-3.9151h51.405c2.1081 0 3.9151 1.807 3.9151 3.9151s-1.807 3.8022-3.9151 3.8022h-21.477v62.604c0 2.334-1.9011 4.2351-4.2351 4.2351-2.334 0-4.2351-1.9011-4.2351-4.2351v-62.604zm81.559 63.677-28.554-65.879c-0.31999-0.63997-0.41411-1.167-0.41411-1.9011 0-2.1081 1.9011-4.1222 4.2351-4.1222 2.1081 0 3.5951 1.374 4.3292 3.181l25.599 61.343 25.693-61.55c0.73408-1.487 2.2211-2.9552 4.1222-2.9552 2.334 0 4.1222 1.9011 4.1222 4.0092 0 0.63998-0.11293 1.167-0.31998 1.694l-28.667 66.199c-0.95995 2.1081-2.4281 3.4822-4.8562 3.4822h-0.4141c-2.4281 0-4.0092-1.374-4.8562-3.4822zm-486.43-272.63c-16.018-76.759 64.825-112.5 117.45-65.955 2.3717 2.0893 4.668 4.348 6.9267 6.7762 2.2399-2.4281 4.5551-4.6868 6.9267-6.7762 52.628-46.548 133.47-10.804 117.45 65.955-7.4161 35.575-32.394 64.449-60.722 90.123-2.8987-2.3528-5.835-4.8562-8.8278-7.6044-16.526-14.889-34.596-34.238-45.551-47.151 8.3573-2.7858 16.79-6.6256 23.604-10.767 8.5643-5.2892 17.166-13.101 23.02-20.893 7.849-10.465 11.049-20.987 9.2231-30.417-1.5246-7.8302-6.3432-14.268-13.251-17.693-14.098-7.0585-34.389-4.4233-50.464-1.3552-14.023 2.6728-28.253 6.8703-40.092 11.821-13.609 5.7409-27.669 14.588-38.248 22.982-3.3316 2.6352-3.8586 3.0681-4.348 7.5291-0.0941 0.80937-1.374 12.649-1.3929 13.195-0.0564 0.71527 0.0565 1.2799 0.11294 1.5623 0.56468 2.8987 3.5198 4.8939 6.4374 4.3292 2.3716-0.45175 4.141-2.4658 4.6115-5.1386 1.8634-6.8514 6.6256-13.91 13.101-19.387 9.6748-8.0937 20.272-14.079 30.192-17.129-4.0469 14.87-11.388 36.535-18.634 54.943-7.0397 18.013-14.813 38.624-21.571 56.713-26.295-24.564-48.901-52.139-55.903-85.681zm143.8 83.271c-7.322-7.7173-16.413-18.239-24.432-27.519-4.2916-4.9692-8.3572-9.6748-11.802-13.552-1.3364-1.374-2.2399-2.9552-2.5222-4.4421-0.62115-3.2563 1.5999-6.4374 5.0068-7.1902 1.3364-0.37646 2.9363-0.82819 4.6492-1.3364 3.2375-0.94113 6.8891-1.9952 10.051-2.8234 16.507-4.8562 27.782-12.536 34.502-23.472 4.1222-6.7385 5.5339-14.889 3.9716-22.926-0.94113-4.8562-4.0469-9.5995-7.5479-11.557l-0.0753-0.03764-0.0753-0.05647c-4.1974-2.5975-10.258-4.0657-16.206-3.9339-2.2022 0.11294-5.6468 0.45174-8.0184 0.90349-3.8963 0.75291-6.475 2.2022-7.8679 4.4798-8.2255 14.136-17.674 40.488-26.653 66.877-2.2587 6.7385-4.6492 13.665-6.9644 20.366-4.348 12.611-10.334 29.947-15.548 44.986 14.588 12.461 29.476 24.244 42.822 35.819 2.4846 2.1458 5.1009 4.4798 5.1009 4.4798 1.1858 1.0729 3.1434 1.0729 4.348 0 0 0 2.6164-2.334 5.1009-4.4798 11.689-10.127 24.526-20.404 37.344-31.17-8.1126-6.5126-16.413-14.249-25.166-23.397z" fill="#6d103c"/>
</svg>
