<svg xmlns="http://www.w3.org/2000/svg" width="800" height="110.113"><path fill="#ff8a00" d="M436.897 110.113H635.51V0H436.897z"/><path d="M498.62 25.31h13.792v47.764h61.377v11.725h-75.17V25.31" fill-rule="evenodd" fill="#000001"/><path fill="#d4000d" d="M218.448 110.113h198.613V0H218.448z"/><path d="M310.859 37.039h-34.915V25.314h83.616v11.725h-34.913v47.764h-13.792V37.039" fill-rule="evenodd" fill="#000001"/><path fill="#0c75ed" d="M0 110.113h198.613V0H0z"/><path d="M107.536 52.845c8.536 0 12.672-2.718 12.672-8.243s-4.137-8.158-12.672-8.158H70.211v16.401zM56.419 25.31h52.93c16.12 0 25.084 7.142 25.084 19.122 0 10.285-6.723 17.168-18.187 18.782l25.945 21.585h-19.914L97.884 63.978H70.211v20.821H56.419z" fill-rule="evenodd" fill="#000001"/><path d="M670.558 25.31v59.489h13.767V59.863h27.624v24.936h13.765V25.31h-13.765v23.83h-27.624V25.31zm70.93 0v59.489h23.734c10.928 0 19.442-2.525 25.54-7.574C796.921 72.118 800 64.63 800 54.757c0-6.014-1.39-11.235-4.167-15.66s-6.731-7.83-11.863-10.213-11.14-3.574-18.023-3.574zm13.767 10.808h11.596c3.925 0 7.336.795 10.234 2.384s5.103 3.801 6.613 6.638 2.264 6.042 2.264 9.617c0 6.014-1.72 10.724-5.162 14.128s-8.392 5.106-14.853 5.106h-10.692z" fill="#020100"/></svg>