<svg xmlns="http://www.w3.org/2000/svg" width="800" height="102.653"><path fill="#6e0ced" d="M407.297 102.653h185.157V0H407.297z"/><path d="M464.839 23.595h12.858v44.528h57.219v10.931h-70.077V23.595" fill-rule="evenodd" fill="#000001"/><path fill="#00acf2" d="M203.648 102.653h185.157V0H203.648z"/><path d="M289.798 34.53h-32.55V23.599H335.2V34.53h-32.548v44.528h-12.858V34.53" fill-rule="evenodd" fill="#000001"/><path fill="#0036f2" d="M0 102.653h185.157V0H0z"/><path d="M100.25 49.265c7.958 0 11.813-2.534 11.813-7.685s-3.857-7.605-11.813-7.605H65.454v15.29zm-47.654-25.67h49.344c15.028 0 23.385 6.658 23.385 17.826 0 9.588-6.268 16.005-16.955 17.51l24.187 20.123h-18.565l-22.74-19.41H65.454v19.41H52.597z" fill-rule="evenodd" fill="#000001"/><path d="M635.01 23.596v33.878c0 6.982 1.938 12.535 5.814 16.66 3.927 4.073 9.715 6.111 17.363 6.111s13.409-2.038 17.285-6.111c3.876-4.126 5.814-9.678 5.814-16.66V23.596h-9.843v34.036c0 4.39-1.215 7.749-3.643 10.076-2.377 2.274-5.581 3.412-9.612 3.412-4.082 0-7.338-1.138-9.767-3.412-2.377-2.327-3.567-5.686-3.567-10.076V23.596zm57.942 0v55.458h10.186V54.935h25.675v24.118h10.105V23.596h-10.105v23.008h-25.675V23.596zm58.448 0v55.458h17.884c9.678 0 17.216-2.354 22.616-7.061 5.4-4.76 8.101-11.743 8.101-20.946 0-5.607-1.203-10.472-3.609-14.597s-5.855-7.299-10.346-9.521-9.784-3.332-15.879-3.332zm10.186 8.33h8.902c3.957 0 7.378.82 10.266 2.46a16.27 16.27 0 0 1 6.657 6.744c1.551 2.856 2.325 6.161 2.325 9.916 0 6.189-1.764 11.028-5.293 14.519-3.475 3.438-8.475 5.158-14.998 5.158h-7.859z" fill="#020100"/></svg>