<svg xmlns="http://www.w3.org/2000/svg" width="800" height="112"><path fill="#ff5c01" d="M442.436 112h201.128V0H442.44z"/><path d="M504.94 25.744h13.968v48.58h62.152v11.932h-76.12V25.744" fill-rule="evenodd" fill="#000001"/><path fill="#ec33ec" d="M221.216 112h201.132V0H221.216z"/><path d="M314.8 37.676h-35.36V25.744h84.68v11.932h-35.352v48.58H314.8V37.68" fill-rule="evenodd" fill="#000001"/><path fill="#edc00c" d="M0 112h201.128V0H0z"/><g fill-rule="evenodd"><path d="M108.9 53.752c8.64 0 12.832-2.768 12.832-8.384s-4.188-8.3-12.832-8.3H71.1v16.68h37.8zM57.136 25.744h53.6c16.32 0 25.4 7.26 25.4 19.448 0 10.46-6.808 17.464-18.416 19.104l26.276 21.96h-20.168l-24.704-21.18h-28.02v21.18H57.136z" fill="#000001"/><path fill="#020100" d="M695.288 83.984c-3.972-1.952-7.032-4.752-9.18-8.4s-3.216-7.94-3.216-12.88V25.656h11.136V62.36c0 4.824 1.304 8.484 3.916 10.984s6.408 3.748 11.4 3.748c4.984 0 8.8-1.252 11.44-3.748s3.956-6.16 3.956-10.984V25.656h11.048v37.048c0 4.996-1.056 9.32-3.172 12.964s-5.164 6.432-9.136 8.36c-3.976 1.92-8.688 2.884-14.14 2.884-5.392 0-10.08-.976-14.052-2.928m82.528-28.516c3.532 0 6.232-.88 8.088-2.632s2.784-4.292 2.784-7.624c0-3.16-.944-5.6-2.828-7.32s-4.572-2.588-8.044-2.588H762.24v20.16h15.576zM751.1 85.964V25.656h28.196c4.12 0 7.736.82 10.872 2.456a17.68 17.68 0 0 1 7.264 6.892c1.708 2.96 2.568 6.36 2.568 10.208 0 3.908-.86 7.368-2.568 10.384a17.75 17.75 0 0 1-7.264 7.02c-3.136 1.668-6.756 2.5-10.872 2.5H762.24v20.848z"/></g></svg>