<svg xmlns="http://www.w3.org/2000/svg" xmlns:xlink="http://www.w3.org/1999/xlink" width="314.992" height="90"><defs><linearGradient id="c"><stop offset="0" stop-color="#0096ff"/><stop offset=".338" stop-color="#69d2df"/><stop offset=".338" stop-color="#0096ff"/><stop offset=".556" stop-color="#34b4ef"/><stop offset=".735" stop-color="#69d2df"/><stop offset=".735" stop-color="#0096ff"/><stop offset=".939" stop-color="#34b4ef"/><stop offset="1" stop-color="#69d2df"/></linearGradient><linearGradient id="b"><stop offset="0" stop-color="#0092d4"/><stop offset="1" stop-color="#00446d"/></linearGradient><linearGradient id="a"><stop offset="0" stop-color="#00b1ff"/><stop offset=".5" stop-color="#003332"/><stop offset="1" stop-color="#00b1ff"/></linearGradient><radialGradient cx="1296.082" cy="328.867" r="114.604" fx="1296.082" fy="328.867" id="x" xlink:href="#d" gradientUnits="userSpaceOnUse" gradientTransform="matrix(.10382 .30512 -.19166 .06522 312.433 -318.687)"/><linearGradient x1="1343.239" y1="467.63" x2="1477.563" y2="369.888" id="w" xlink:href="#e" gradientUnits="userSpaceOnUse" gradientTransform="translate(4.341 4.45) scale(.2929)"/><linearGradient x1="1207.103" y1="323.926" x2="1368.088" y2="214.752" id="y" xlink:href="#e" gradientUnits="userSpaceOnUse" gradientTransform="translate(4.341 4.45) scale(.2929)"/><linearGradient x1="1173.686" y1="99.168" x2="1390.148" y2="99.22" id="k" xlink:href="#f" gradientUnits="userSpaceOnUse" gradientTransform="translate(4.341 4.45) scale(.2929)"/><linearGradient x1="1123.58" y1="215.967" x2="1177.927" y2="161.433" id="v" xlink:href="#g" gradientUnits="userSpaceOnUse" gradientTransform="translate(4.341 4.45) scale(.2929)"/><linearGradient x1="1095" y1="332" x2="1215.652" y2="330.857" id="u" xlink:href="#e" gradientUnits="userSpaceOnUse" gradientTransform="translate(4.341 4.45) scale(.2929)"/><linearGradient x1="559.094" y1="261.22" x2="877.603" y2="261.22" id="l" xlink:href="#h" gradientUnits="userSpaceOnUse" gradientTransform="matrix(.2929 0 0 -.2929 90.562 197.47)"/><linearGradient x1="766.003" y1="397.967" x2="852.456" y2="316.801" id="m" xlink:href="#h" gradientUnits="userSpaceOnUse" gradientTransform="matrix(0 .2929 .2929 0 160.502 -150.342)"/><linearGradient x1="802.585" y1="329.5" x2="1002.5" y2="329.5" id="t" xlink:href="#e" gradientUnits="userSpaceOnUse" gradientTransform="translate(4.341 4.45) scale(.2929)"/><linearGradient x1="559.094" y1="261.22" x2="877.603" y2="261.22" id="o" xlink:href="#h" gradientUnits="userSpaceOnUse" gradientTransform="translate(4.341 4.45) scale(.2929)"/><linearGradient x1="678.549" y1="330.52" x2="852.456" y2="316.801" id="n" xlink:href="#h" gradientUnits="userSpaceOnUse" gradientTransform="translate(4.341 4.45) scale(.2929)"/><linearGradient x1="492.849" y1="157.152" x2="715.803" y2="146" id="s" xlink:href="#e" gradientUnits="userSpaceOnUse" gradientTransform="translate(4.341 4.45) scale(.2929)"/><linearGradient x1="566.178" y1="173.446" x2="743.784" y2="345.814" id="p" xlink:href="#i" gradientUnits="userSpaceOnUse" gradientTransform="translate(4.341 4.45) scale(.2929)"/><linearGradient x1="322.232" y1="270.288" x2="500.09" y2="428.565" id="q" xlink:href="#j" gradientUnits="userSpaceOnUse" gradientTransform="translate(4.341 4.45) scale(.2929)"/><linearGradient x1="264.759" y1="228.2" x2="500.476" y2="194.314" id="r" xlink:href="#e" gradientUnits="userSpaceOnUse" gradientTransform="translate(4.341 4.45) scale(.2929)"/><linearGradient id="e"><stop offset="0" stop-color="#ff9300"/><stop offset="1" stop-color="#ffc28d"/></linearGradient><linearGradient id="j"><stop offset="0" stop-color="#b35313"/><stop offset=".573" stop-color="#e88a05"/><stop offset="1" stop-color="#a54316"/></linearGradient><linearGradient id="i"><stop offset="0" stop-color="#e88a05"/><stop offset=".327" stop-color="#a54316"/><stop offset=".686" stop-color="#a54316"/><stop offset="1" stop-color="#e88a05"/></linearGradient><linearGradient id="h"><stop offset="0" stop-color="#ff9300"/><stop offset="1" stop-color="#852510"/></linearGradient><linearGradient id="g"><stop offset="0" stop-color="#852510" stop-opacity="0"/><stop offset="1" stop-color="#852510" stop-opacity=".771"/></linearGradient><linearGradient id="f"><stop offset="0" stop-color="#e88a05"/><stop offset=".441" stop-color="#a54316"/><stop offset=".694" stop-color="#a54316"/><stop offset="1" stop-color="#e88a05"/></linearGradient><linearGradient id="d"><stop offset="0" stop-color="#852510" stop-opacity=".773"/><stop offset="1" stop-color="#852510" stop-opacity="0"/></linearGradient></defs><path d="M415.417 48.677H445l-51.653 69.936-2.326.137-23.034 34.2h-29.583l47.725-64.618 4.946-3.987z" fill="url(#k)" transform="matrix(.60014 0 0 .60014 -3 -3.022)"/><path d="M297.827 154.707c-24.364 0-43.36-20.83-43.36-46.525 0-2.917.255-5.772.742-8.54h15.078c.19 18.884 13.444 29.428 27.54 29.4 16.997-.035 27.082-15.27 27.24-26.224 0 0 17.58 5.474 17.627 5.364 0 25.696-20.503 46.525-44.867 46.525z" fill="url(#l)" transform="matrix(.60014 0 0 .60014 -3 -3.022)"/><path d="M252.538 48.552l-8.033 54.16 25.782 1.758V48.552z" fill="url(#m)" transform="matrix(.60014 0 0 .60014 -3 -3.022)"/><path d="M203.235 96.485l54.16-8.034 1.758 25.614h-55.918z" fill="url(#n)" transform="matrix(.60014 0 0 .60014 -3 -3.022)"/><path d="M213.142 47.213c-24.364 0-44.896 20.829-44.896 46.525 0 2.916.255 5.772.742 8.54h14.608c.19-18.885 13.41-30.027 27.505-29.986 11.64.035 21.955 7.653 26.382 18.523 1.438 3.528 8.657 23.894 8.657 23.894l9.592-12.431c.487-2.768.742-5.624.742-8.54 0-25.696-18.968-46.525-43.332-46.525z" fill="url(#o)" transform="matrix(.60014 0 0 .60014 -3 -3.022)"/><path d="M158.114 5.035v97.215h.036c.691 29.077 24.244 52.43 53.198 52.43 9.829 0 18.777-2.093 26.929-4.147v-17.72s-11.222 1.888-26.7.192c-15.363-1.684-27.575-14.421-27.98-30.755V5.035h-25.483z" fill="url(#p)" transform="matrix(.60014 0 0 .60014 -3 -3.022)"/><path d="M141.153 66.297c-18.185.66-25.393 3.963-36.086 11.317-10.305 7.135-21.5 21.13-21.67 39.007-.087 9.058 3.913 17.524 10.141 23.414 6.538 6.181 16.084 10.15 23.954 10.15 8.437 0 17.35-2.62 27.716-12.384 11.256-10.604 12.817-26.734 12.897-35.569-.381 15.036-12.69 27.112-27.817 27.112-15.367 0-27.825-12.458-27.825-27.826 0-17.877 9.954-27.962 21.84-31.944 7.16-2.4 16.864-2.443 26.488-2.444v-.028c-2.94-.062-6.207-.799-9.638-.805z" fill="url(#q)" transform="matrix(.60014 0 0 .60014 -3 -3.022)"/><path d="M130.288 46.627c-19.842 0-37.146 11.02-46.324 27.368H5v53.29h78.772a54.297 54.297 0 0 0 9.19 12.191c-5.863-5.86-9.063-14.08-8.98-22.855.172-17.876 11.535-31.738 21.84-38.874 4.08-2.825 11.496-7.592 21.95-9.73 8.098-1.655 16.39-1.054 23.02-.915V49.611s-8.796-2.984-20.504-2.984zM67.745 87.752c3.186 0 5.706.19 6.846.348.513.078.784.316.705.906l-.467 2.947c-.157.867-.433.993-1.455.915-.984-.08-3.465-.283-5.904-.283-1.81 0-3.698.397-3.698 2.444 0 1.455.908 2.08 2.874 2.59l2.911.75c5.192 1.337 6.682 3.891 6.682 7.314 0 5.822-4.555 7.872-10.81 7.872-2.794 0-5.668-.2-6.81-.357-.51-.08-.782-.315-.705-.907l.476-3.03c.156-.866.425-.975 1.446-.896.984.079 3.857.31 5.51.31 3.619 0 5.108-.396 5.108-2.599 0-1.494-1.014-2.199-3.414-2.828l-2.91-.75c-3.818-.983-6.023-3.38-6.023-7.433 0-4.484 3.148-7.313 9.638-7.313zm-52.31.265h8.768c6.06 0 8.815 2.755 8.815 7.67 0 3.816-2.173 5.555-4.1 6.774l5.747 9.52c.63.985-.043 1.336-.595 1.336h-4.283c-.943 0-1.264-.273-1.657-.943l-4.668-8.421c-.276-.473-.394-.788-.394-1.18 0-.157.038-.39.156-.861l.393-1.648c.354-1.496.739-.991 1.877-1.464.907-.393 1.812-1.026 1.812-3.03 0-2.204-1.136-3.066-3.496-3.066h-3.735v19.55c0 .79-.237 1.063-1.025 1.063h-3.615c-.786 0-1.026-.272-1.026-1.062V89.079c0-.787.24-1.062 1.026-1.062zm20.622 0h19.038c.789 0 1.025.275 1.025 1.062v2.682c0 .787-.236 1.062-1.025 1.062h-6.69v19.432c0 .788-.238 1.062-1.026 1.062h-3.615c-.787 0-1.016-.274-1.016-1.062V92.823h-6.691c-.789 0-1.026-.275-1.026-1.062v-2.682c0-.787.237-1.062 1.026-1.062z" fill="url(#r)" transform="matrix(.60014 0 0 .60014 -3 -3.022)"/><path d="M92.962 139.476c9.615 9.596 22.786 15.524 37.326 15.524 29.441 0 53.308-24.26 53.308-54.187 0-19.56 4.586-53.6 29.546-53.6-41.626 0-54.783 34.483-55.028 54.48v.576c-.003.128-.013.256-.018.384-.144 8.918-2.393 24.71-13.474 35.148-10.365 9.765-18.693 11.799-27.13 11.799-7.87 0-17.416-3.384-23.954-9.565-.194-.184-.387-.37-.576-.559z" fill="url(#s)" transform="matrix(.60014 0 0 .60014 -3 -3.022)"/><path d="M213.448 47.213c12.462 0 31.083 8.036 31.14 54.715.044 36.461 33.292 52.78 53.24 52.78-13.93-.044-22.328-7.91-25.904-22.74-2.046-8.484-1.578-19.652-1.637-30.543-.088-16.142-24.182-54.212-56.84-54.212z" fill="url(#t)" transform="matrix(.60014 0 0 .60014 -3 -3.022)"/><path d="M297.827 154.707c24.035 0 52.723-19.745 52.723-52.43v-51.6c-8.495-1.025-16.989-1.947-25.483-2v53.6c0 14.722.133 23.941-2.486 32.788-4.112 13.89-14.172 19.642-24.754 19.642z" fill="url(#u)" transform="matrix(.60014 0 0 .60014 -3 -3.022)"/><path d="M297.827 154.707c24.035 0 52.723-19.745 52.723-52.43v-51.6l-25.483-2v53.6c0 14.722.133 23.941-2.486 32.788-4.112 13.89-14.172 19.642-24.754 19.642z" fill="url(#v)" transform="matrix(.60014 0 0 .60014 -3 -3.022)"/><path d="M412.677 152.95h31.307l-37.334-52.696c-6.603-9.32-8.492-22.923-2.512-34.991l-27.289 39.176z" fill="url(#w)" transform="matrix(.60014 0 0 .60014 -3 -3.022)"/><path d="M412.677 152.95h31.307l-37.334-52.696c-6.603-9.32-8.492-22.923-2.512-34.991l-27.289 39.176z" fill="url(#x)" transform="matrix(.60014 0 0 .60014 -3 -3.022)"/><path d="M325.067 48.677h41.737l25.113 33.83c14.107 19.005-2.35 38.066-12.672 53.742 3.248-7.813 2.898-22.045-4.572-32.48L343.03 59.571c-4.983-6.961-11.1-10.894-17.963-10.894z" fill="url(#y)" transform="matrix(.60014 0 0 .60014 -3 -3.022)"/><path d="M263.36 41.499v31.744h5.928v-13.29h11.857v13.29h5.928V41.499h-5.928v12.525h-11.857V41.5zm27.728 0v31.744h12.783c6.16 0 11.121-4.96 11.121-11.121V52.62c0-6.16-4.96-11.121-11.121-11.121zm5.929 5.928h6.4a5.634 5.634 0 0 1 5.647 5.647v8.593a5.634 5.634 0 0 1-5.647 5.648h-6.4z" fill="#595959"/></svg>