<?xml version="1.0" encoding="UTF-8"?>
<svg width="800" height="228.58" version="1.1" xmlns="http://www.w3.org/2000/svg" xmlns:xlink="http://www.w3.org/1999/xlink">
 <defs>
  <radialGradient id="x" cx="1296.1" cy="328.87" r="114.6" gradientTransform="matrix(.15824 .46507 -.29213 .099409 468.59 -493.42)" gradientUnits="userSpaceOnUse">
   <stop stop-color="#852510" stop-opacity=".773" offset="0"/>
   <stop stop-color="#852510" stop-opacity="0" offset="1"/>
  </radialGradient>
  <linearGradient id="w" x1="1343.2" x2="1477.6" y1="467.63" y2="369.89" gradientTransform="matrix(.44644 0 0 .44644 -1.0045 -.89166)" gradientUnits="userSpaceOnUse" xlink:href="#e"/>
  <linearGradient id="y" x1="1207.1" x2="1368.1" y1="323.93" y2="214.75" gradientTransform="matrix(.44644 0 0 .44644 -1.0045 -.89166)" gradientUnits="userSpaceOnUse" xlink:href="#e"/>
  <linearGradient id="k" x1="1173.7" x2="1390.1" y1="99.168" y2="99.22" gradientTransform="matrix(.44644 0 0 .44644 -1.0045 -.89166)" gradientUnits="userSpaceOnUse">
   <stop stop-color="#e88a05" offset="0"/>
   <stop stop-color="#a54316" offset=".441"/>
   <stop stop-color="#a54316" offset=".694"/>
   <stop stop-color="#e88a05" offset="1"/>
  </linearGradient>
  <linearGradient id="v" x1="1123.6" x2="1177.9" y1="215.97" y2="161.43" gradientTransform="matrix(.44644 0 0 .44644 -1.0045 -.89166)" gradientUnits="userSpaceOnUse">
   <stop stop-color="#852510" stop-opacity="0" offset="0"/>
   <stop stop-color="#852510" stop-opacity=".771" offset="1"/>
  </linearGradient>
  <linearGradient id="u" x1="1095" x2="1215.7" y1="332" y2="330.86" gradientTransform="matrix(.44644 0 0 .44644 -1.0045 -.89166)" gradientUnits="userSpaceOnUse" xlink:href="#e"/>
  <linearGradient id="l" x1="559.09" x2="877.6" y1="261.22" y2="261.22" gradientTransform="matrix(.44644 0 0 -.44644 130.41 293.31)" gradientUnits="userSpaceOnUse" xlink:href="#h"/>
  <linearGradient id="m" x1="766" x2="852.46" y1="397.97" y2="316.8" gradientTransform="matrix(0 .44644 .44644 0 237.02 -236.83)" gradientUnits="userSpaceOnUse" xlink:href="#h"/>
  <linearGradient id="t" x1="802.59" x2="1002.5" y1="329.5" y2="329.5" gradientTransform="matrix(.44644 0 0 .44644 -1.0045 -.89166)" gradientUnits="userSpaceOnUse" xlink:href="#e"/>
  <linearGradient id="o" x1="559.09" x2="877.6" y1="261.22" y2="261.22" gradientTransform="matrix(.44644 0 0 .44644 -1.0045 -.89166)" gradientUnits="userSpaceOnUse" xlink:href="#h"/>
  <linearGradient id="n" x1="678.55" x2="852.46" y1="330.52" y2="316.8" gradientTransform="matrix(.44644 0 0 .44644 -1.0045 -.89166)" gradientUnits="userSpaceOnUse" xlink:href="#h"/>
  <linearGradient id="s" x1="492.85" x2="715.8" y1="157.15" y2="146" gradientTransform="matrix(.44644 0 0 .44644 -1.0045 -.89166)" gradientUnits="userSpaceOnUse" xlink:href="#e"/>
  <linearGradient id="p" x1="566.18" x2="743.78" y1="173.45" y2="345.81" gradientTransform="matrix(.44644 0 0 .44644 -1.0045 -.89166)" gradientUnits="userSpaceOnUse">
   <stop stop-color="#e88a05" offset="0"/>
   <stop stop-color="#a54316" offset=".327"/>
   <stop stop-color="#a54316" offset=".686"/>
   <stop stop-color="#e88a05" offset="1"/>
  </linearGradient>
  <linearGradient id="q" x1="322.23" x2="500.09" y1="270.29" y2="428.56" gradientTransform="matrix(.44644 0 0 .44644 -1.0045 -.89166)" gradientUnits="userSpaceOnUse">
   <stop stop-color="#b35313" offset="0"/>
   <stop stop-color="#e88a05" offset=".573"/>
   <stop stop-color="#a54316" offset="1"/>
  </linearGradient>
  <linearGradient id="r" x1="264.76" x2="500.48" y1="228.2" y2="194.31" gradientTransform="matrix(.44644 0 0 .44644 -1.0045 -.89166)" gradientUnits="userSpaceOnUse" xlink:href="#e"/>
  <linearGradient id="e">
   <stop stop-color="#ff9300" offset="0"/>
   <stop stop-color="#ffc28d" offset="1"/>
  </linearGradient>
  <linearGradient id="h">
   <stop stop-color="#ff9300" offset="0"/>
   <stop stop-color="#852510" offset="1"/>
  </linearGradient>
 </defs>
 <g stroke-width="1.5242">
  <path d="m625.56 66.519h45.091l-78.73 106.6-3.5453 0.20881-35.109 52.128h-45.091l72.743-98.491 7.5387-6.077z" fill="url(#k)"/>
  <path d="m446.33 228.13c-37.136 0-66.09-31.749-66.09-70.914 0-4.4461 0.38867-8.7977 1.131-13.017h22.982c0.2896 28.783 20.491 44.854 41.977 44.812 25.907-0.0533 41.279-23.275 41.519-39.971 0 0 26.796 8.3435 26.867 8.1758 0 39.166-31.251 70.914-68.387 70.914z" fill="url(#l)"/>
  <path d="m377.3 66.329-12.244 82.551 39.297 2.6796v-85.231z" fill="url(#m)"/>
  <path d="m302.15 139.39 82.551-12.245 2.6796 39.041h-85.231z" fill="url(#n)"/>
  <path d="m317.25 64.288c-37.136 0-68.431 31.748-68.431 70.914 0 4.4446 0.38868 8.7977 1.131 13.017h22.266c0.2896-28.785 20.44-45.767 41.923-45.705 17.742 0.0533 33.464 11.665 40.212 28.233 2.1918 5.3774 13.195 36.419 13.195 36.419l14.62-18.947c0.74229-4.219 1.131-8.5721 1.131-13.017 0-39.166-28.911-70.914-66.047-70.914z" fill="url(#o)"/>
  <path d="m233.38 0v148.18h0.0549c1.0532 44.319 36.953 79.914 81.085 79.914 14.981 0 28.62-3.1902 41.045-6.3209v-27.009s-17.105 2.8777-40.696 0.29265c-23.416-2.5668-42.03-21.981-42.647-46.877v-148.18z" fill="url(#p)"/>
  <path d="m207.53 93.376c-27.718 1.006-38.704 6.0404-55.003 17.249-15.707 10.875-32.77 32.206-33.03 59.455-0.13261 13.806 5.9642 26.71 15.457 35.688 9.9653 9.4211 24.515 15.471 36.511 15.471 12.86 0 26.445-3.9934 42.245-18.876 17.156-16.163 19.536-40.748 19.658-54.215-0.58072 22.918-19.342 41.324-42.399 41.324-23.422 0-42.411-18.989-42.411-42.413 0-27.248 15.172-42.62 33.289-48.689 10.913-3.6581 25.704-3.7236 40.373-3.7252v-0.04268c-4.4812-0.0945-9.4608-1.2178-14.69-1.227z" fill="url(#q)"/>
  <path d="m190.96 63.395c-30.243 0-56.618 16.797-70.607 41.715h-120.36v81.225h120.06a82.76 82.76 0 0 0 14.007 18.582c-8.9364-8.9318-13.814-21.461-13.687-34.836 0.26216-27.247 17.582-48.375 33.289-59.252 6.2188-4.3059 17.522-11.572 33.456-14.831 12.343-2.5226 24.982-1.6065 35.087-1.3946v-26.66s-13.407-4.5482-31.252-4.5482zm-95.328 62.683c4.8561 0 8.6971 0.2896 10.435 0.53042 0.78192 0.11889 1.195 0.48165 1.0746 1.3809l-0.71181 4.4918c-0.2393 1.3215-0.65998 1.5135-2.2177 1.3946-1.4998-0.12193-5.2814-0.43135-8.9989-0.43135-2.7588 0-5.6365 0.60511-5.6365 3.7252 0 2.2177 1.384 3.1704 4.3806 3.9477l4.437 1.1432c7.9137 2.0379 10.185 5.9307 10.185 11.148 0 8.8739-6.9428 11.999-16.477 11.999-4.2586 0-8.6392-0.30484-10.38-0.54414-0.77735-0.12194-1.1919-0.48013-1.0746-1.3825l0.72552-4.6184c0.23778-1.32 0.64779-1.4861 2.204-1.3657 1.4998 0.12041 5.8789 0.47251 8.3984 0.47251 5.5161 0 7.7857-0.60359 7.7857-3.9614 0-2.2772-1.5455-3.3517-5.2036-4.3105l-4.4354-1.1432c-5.8194-1.4983-9.1803-5.1518-9.1803-11.329 0-6.8346 4.7982-11.147 14.69-11.147zm-79.731 0.40391h13.364c9.2367 0 13.436 4.1992 13.436 11.691 0 5.8164-3.3121 8.467-6.2492 10.325l8.7596 14.51c0.96025 1.5013-0.06554 2.0363-0.9069 2.0363h-6.5282c-1.4373 0-1.9266-0.41611-2.5256-1.4373l-7.115-12.835c-0.42068-0.72095-0.60054-1.2011-0.60054-1.7986 0-0.2393 0.05792-0.59444 0.23778-1.3124l0.59901-2.5119c0.53957-2.2802 1.1264-1.5105 2.8609-2.2314 1.3825-0.59901 2.7619-1.5638 2.7619-4.6184 0-3.3594-1.7315-4.6732-5.3286-4.6732h-5.6929v29.798c0 1.2041-0.36124 1.6202-1.5623 1.6202h-5.51c-1.198 0-1.5638-0.41459-1.5638-1.6187v-35.325c0-1.1996 0.36581-1.6187 1.5638-1.6187zm31.432 0h29.018c1.2026 0 1.5623 0.41916 1.5623 1.6187v4.0879c0 1.1996-0.35971 1.6187-1.5623 1.6187h-10.197v29.618c0 1.2011-0.36276 1.6187-1.5638 1.6187h-5.51c-1.1996 0-1.5486-0.41764-1.5486-1.6187v-29.618h-10.198c-1.2026 0-1.5638-0.41915-1.5638-1.6187v-4.0879c0-1.1996 0.36124-1.6187 1.5638-1.6187z" fill="url(#r)"/>
  <path d="m134.07 204.92c14.655 14.626 34.731 23.662 56.893 23.662 44.874 0 81.252-36.977 81.252-82.592 0-29.813 6.99-81.698 45.034-81.698-63.447 0-83.501 52.559-83.874 83.039v0.87795c-5e-3 0.19509-0.0198 0.39019-0.0274 0.58529-0.21948 13.593-3.6474 37.663-20.537 53.573-15.798 14.884-28.492 17.984-41.352 17.984-11.996 0-26.546-5.1579-36.511-14.579-0.29569-0.28045-0.58986-0.56395-0.87794-0.85203z" fill="url(#s)"/>
  <path d="m317.72 64.288c18.995 0 47.377 12.249 47.464 83.397 0.0671 55.574 50.744 80.448 81.149 80.448-21.232-0.0671-34.032-12.056-39.483-34.66-3.1185-12.931-2.4052-29.954-2.4951-46.554-0.13413-24.604-36.858-82.63-86.636-82.63z" fill="url(#t)"/>
  <path d="m446.33 228.13c36.634 0 80.361-30.095 80.361-79.914v-78.649c-12.948-1.5623-25.895-2.9676-38.841-3.0484v81.698c0 22.439 0.20272 36.491-3.7892 49.976-6.2675 21.171-21.601 29.938-37.73 29.938z" fill="url(#u)"/>
  <path d="m446.33 228.13c36.634 0 80.361-30.095 80.361-79.914v-78.649l-38.841-3.0484v81.698c0 22.439 0.20272 36.491-3.7892 49.976-6.2675 21.171-21.601 29.938-37.73 29.938z" fill="url(#v)"/>
  <path d="m621.38 225.45h47.718l-56.905-80.32c-10.064-14.206-12.944-34.939-3.8288-53.334l-41.594 59.712z" fill="url(#w)"/>
  <path d="m621.38 225.45h47.718l-56.905-80.32c-10.064-14.206-12.944-34.939-3.8288-53.334l-41.594 59.712z" fill="url(#x)"/>
  <path d="m487.85 66.519h63.616l38.277 51.564c21.502 28.968-3.5819 58.02-19.315 81.914 4.9506-11.909 4.4172-33.601-6.9687-49.506l-48.23-67.367c-7.5951-10.61-16.919-16.605-27.379-16.605z" fill="url(#y)"/>
 </g>
 <path d="m668.87 105.4v80.622h15.056v-33.753h30.114v33.753h15.056v-80.622h-15.056v31.81h-30.114v-31.808zm70.422 0v80.622h32.466c15.645 0 28.245-12.597 28.245-28.245v-24.133c0-15.645-12.597-28.245-28.245-28.245zm15.058 15.056h16.254a14.309 14.309 0 0 1 14.342 14.342v21.824a14.309 14.309 0 0 1-14.342 14.345h-16.254z" fill="#595959" stroke-width="2.5398"/>
</svg>
