<?xml version="1.0" encoding="UTF-8"?>
<svg width="800" height="196.95" version="1.1" xmlns="http://www.w3.org/2000/svg">
	<g fill="#01003f">
		<path d="m450.6-7.28e-7c-24.123 0-42.062 17.09-42.062 40.945s17.941 40.948 41.953 40.91c13.501 0 24.691-4.9672 31.992-14.131l-11.52-10.85c-5.1914 6.2215-11.741 9.3887-19.482 9.3887-14.51 0-24.801-10.401-24.801-25.336s10.291-25.336 24.801-25.336c7.7412 0 14.273 3.1663 19.482 9.2754l11.52-10.85c-7.301-9.0325-18.492-14.018-31.883-14.018zm-163.39 0.019527c-22.031 0-32.652 11.205-32.652 24.66 0 29.402 45.053 19.208 45.053 34.031 0 4.8723-4.3299 8.4883-14.951 8.4883-9.3005 0-19.04-3.4101-25.57-8.2637l-6.0918 13.793c6.8607 5.4157 19.263 9.1641 31.535 9.1641 22.141 0 32.873-11.319 32.873-24.549 0-29.065-45.055-18.984-45.055-33.582 0-4.9847 4.1092-9.0508 14.73-9.0508 6.8607 0 14.29 2.0418 21.48 6.2207l5.541-13.904c-7.1909-4.6287-17.152-7.0078-26.893-7.0078zm324.93 0c-22.031 0-32.652 11.205-32.652 24.66 0 29.402 45.053 19.208 45.053 34.031 0 4.8723-4.328 8.4883-14.949 8.4883-9.3005 0-19.042-3.4101-25.572-8.2637l-6.0898 13.793c6.8607 5.4157 19.261 9.1641 31.533 9.1641 22.141 0 32.873-11.319 32.873-24.549 0-29.065-45.053-18.984-45.053-33.582 0-4.9847 4.1092-9.0508 14.73-9.0508 6.8607 0 14.29 2.0418 21.48 6.2207l5.5391-13.904c-7.1909-4.6287-17.152-7.0078-26.893-7.0078zm-258.06 1.3477-34.543 79.156h18.381l6.8613-16.959h35.99l6.8613 16.959h18.82l-34.652-79.156zm140.48 0v79.156h17.941v-32.457h35.201v32.457h17.941v-79.156h-17.941v31.221h-35.201v-31.221zm234.37 0v79.156h17.721v-48.066l38.633 48.066h14.73v-79.156h-17.721v48.068l-38.523-48.068zm-74.275 0.019527v79.156h60.004v-14.691h-42.191v-18.328h35.973v-14.242h-35.973v-17.184h40.742v-14.711zm-291.82 17.971 12.289 30.303h-24.58z"/>
		<path d="m329.76 157.01h-70.426c0.31412 20.901 15.323 35.302 35.757 35.302 10.522 0 20.436-3.8686 26.62-11.919l3.2493 3.407c-7.273 8.6682-18.108 13.155-29.878 13.155-23.684 0-40.704-16.875-40.704-40.712 0-23.844 16.098-40.718 37.769-40.718 21.359 0 37.613 16.562 37.613 40.093zm-70.268-4.1815h65.478c-1.2374-18.887-14.704-32.661-32.813-32.661-18.275 0-31.585 13.774-32.664 32.661z"/>
		<path d="m354.48 116.14h5.1035v80.349h-5.1035z"/>
		<path d="m462.12 149.27v47.218h-5.1047v-46.904c0-19.192-10.217-29.264-27.709-29.264-20.121 0-32.35 13.007-32.35 32.818v43.35h-5.1048v-80.349h4.956v19.662c5.106-12.379 16.716-20.28 32.97-20.28 19.652 0 32.343 11.605 32.343 33.749z"/>
		<path d="m483.6 186.27 2.4735-4.025c6.0369 5.4189 16.873 10.22 29.408 10.22 18.11 0 25.383-6.8127 25.383-16.718 0-25.386-54.327-7.432-54.327-38.855 0-11.457 9.2848-21.361 29.406-21.361 9.903 0 20.741 3.2493 26.933 8.2065l-2.63 4.025c-6.4973-5.106-15.636-7.5884-24.459-7.5884-16.717 0-23.989 7.2743-23.989 16.561 0 26.163 54.171 8.5116 54.171 39.013 0 12.535-10.375 21.205-30.644 21.205-13.154 0-25.531-4.4956-31.725-10.681z"/>
		<path d="m87.133 52.255c6.786-2.2472 13.807-3.5024 20.626-3.5024 6.8737 0 13.946 1.1764 20.775 3.3103l19.922-44.562c-13.154-4.8428-27.029-7.5007-40.697-7.5007-13.623 0-27.455 2.7355-40.565 7.6673z"/>
		<path d="m48.659 82.093c5.382-9.9755 15.233-18.809 26.784-24.873l-19.904-44.518c-24.781 12.197-45.679 32.244-55.539 55.984z"/>
		<path d="m140.32 56.848c11.708 5.9237 21.637 14.723 26.907 25.15l48.519-13.371c-9.7554-24.159-30.697-44.11-55.584-56.159z"/>
		<path d="m75.382 139.61c-11.594-6.0636-21.411-14.914-26.767-24.925l-48.397 13.338c10.078 23.436 31.177 43.281 55.514 55.53z"/>
		<path d="m167.26 114.78c-5.2446 10.454-15.139 19.28-26.89 25.202l19.59 43.814c24.441-12.111 45.592-31.868 55.565-55.715z"/>
		<path d="m128.59 144.74c-6.8114 2.1174-13.901 3.276-20.818 3.276-6.8724 0-13.91-1.2463-20.678-3.4667l-19.747 44.16c13.292 5.1658 27.152 8.0501 40.426 8.0501 13.319 0 27.229-2.8054 40.557-7.8848z"/>
		<path d="m76.95 98.384c0 17.023 13.797 30.823 30.818 30.823s30.819-13.8 30.819-30.823-13.798-30.823-30.819-30.823-30.818 13.8-30.818 30.823z"/>
	</g>
</svg>
