<?xml version="1.0" encoding="UTF-8"?>
<svg width="800" height="137.77" version="1.1" xmlns="http://www.w3.org/2000/svg" xmlns:xlink="http://www.w3.org/1999/xlink">
	<defs>
		<linearGradient id="linearGradient948">
			<stop stop-opacity=".5" offset="0"/>
			<stop stop-opacity="0" offset=".55718"/>
			<stop stop-color="#fff" stop-opacity="0" offset="1"/>
		</linearGradient>
		<radialGradient id="radialGradient954" cx="112.82" cy="420.82" r="278.07" gradientTransform="matrix(.52637 0 0 .52637 -32.438 -119.08)" gradientUnits="userSpaceOnUse" xlink:href="#linearGradient948"/>
		<radialGradient id="radialGradient972" cx="112.82" cy="448.77" r="210.86" gradientTransform="matrix(.69414 0 0 .69414 -51.365 -209.08)" gradientUnits="userSpaceOnUse" xlink:href="#linearGradient948"/>
		<radialGradient id="radialGradient982" cx="112.82" cy="459.38" r="226.24" gradientTransform="matrix(.64693 -2.0537e-8 0 .64693 -46.041 -194.77)" gradientUnits="userSpaceOnUse" xlink:href="#linearGradient948"/>
		<radialGradient id="radialGradient992" cx="112.82" cy="306.08" r="187.06" gradientTransform="matrix(.78243 1.5675e-8 -2.4399e-8 .78243 -61.327 -137.07)" gradientUnits="userSpaceOnUse" xlink:href="#linearGradient948"/>
		<radialGradient id="radialGradient1002" cx="112.82" cy="426.45" r="58.728" gradientTransform="matrix(2.4923 -3.3656e-7 2.4806e-7 2.4923 -254.23 -960.42)" gradientUnits="userSpaceOnUse" xlink:href="#linearGradient948"/>
		<radialGradient id="radialGradient1012" cx="112.82" cy="415.42" r="52.877" gradientTransform="matrix(2.768 -7.4455e-7 6.3408e-7 2.768 -285.34 -1047.5)" gradientUnits="userSpaceOnUse" xlink:href="#linearGradient948"/>
		<radialGradient id="radialGradient1022" cx="112.82" cy="299.01" r="60.723" gradientTransform="matrix(2.4104 -2.4686e-8 -5.8328e-8 2.4104 -244.99 -618.31)" gradientUnits="userSpaceOnUse" xlink:href="#linearGradient948"/>
		<radialGradient id="radialGradient1032" cx="112.82" cy="372.88" r="161.64" gradientTransform="matrix(.9055 2.6597e-8 -3.8282e-8 .9055 -75.211 -235.22)" gradientUnits="userSpaceOnUse" xlink:href="#linearGradient948"/>
	</defs>
	<path d="m136.6 68.874a67.946 67.946 0 0 1-67.946 67.946 67.946 67.946 0 0 1-67.946-67.946 67.946 67.946 0 0 1 67.946-67.946 67.946 67.946 0 0 1 67.946 67.946z" fill="#fff"/>
	<path d="m136.6 68.874a67.946 67.946 0 0 1-67.946 67.946 67.946 67.946 0 0 1-67.946-67.946 67.946 67.946 0 0 1 67.946-67.946 67.946 67.946 0 0 1 67.946 67.946z" fill="url(#radialGradient954)"/>
	<path d="m107 13.035c-16.568-0.026258-62.993 51.582-80.053 89.387 25.874-5.9005 108.73-50.668 102.74-65.473a68.872 68.872 0 0 0-19.152-22.756 68.872 68.872 0 0 0-0.31355-0.23862c-0.88567-0.6204-1.9665-0.91814-3.219-0.92011z" fill="#9e003e"/>
	<path d="m107 13.035c-16.568-0.026258-62.993 51.582-80.053 89.387 25.874-5.9005 108.73-50.668 102.74-65.473a68.872 68.872 0 0 0-19.152-22.756 68.872 68.872 0 0 0-0.31355-0.23862c-0.88567-0.6204-1.9665-0.91814-3.219-0.92011z" fill="url(#radialGradient972)"/>
	<path d="m134.34 51.494c2.5864 9.1872-3.579 18.083-10.401 23.64-15.961 13.056-36.019 19.765-55.855 24.309-13.467 2.9366-27.382 4.494-41.138 2.9803 21.422 15.453 49.556 23.059 75.518 16.295 12.519-3.2083 25.082-10.88 29.815-23.471 5.318-12.871 6.7354-27.44 3.535-41.021-0.35565-0.97656-0.89237-1.8739-1.4724-2.7308z" fill="#f57d21"/>
	<path d="m134.34 51.494c2.5864 9.1872-3.579 18.083-10.401 23.64-15.961 13.056-36.019 19.765-55.855 24.309-13.467 2.9366-27.382 4.494-41.138 2.9803 21.422 15.453 49.556 23.059 75.518 16.295 12.519-3.2083 25.082-10.88 29.815-23.471 5.318-12.871 6.7354-27.44 3.535-41.021-0.35565-0.97656-0.89237-1.8739-1.4724-2.7308z" fill="url(#radialGradient982)"/>
	<path d="m26.946 102.42c4.043 10.354 9.9049 20.271 18.653 27.338 6.8386 6.0244 16.162 8.4129 25.126 7.9555 16.254-0.46333 32.415-6.8007 44.256-17.975 1.0784-1.0175 3.2376-4.31 3.381-4.5324-26.859 27.145-62.436 14.836-91.418-12.786z" fill="#ffdb00"/>
	<path d="m26.946 102.42c4.043 10.354 9.9049 20.271 18.653 27.338 6.8386 6.0244 16.162 8.4129 25.126 7.9555 16.254-0.46333 32.415-6.8007 44.256-17.975 1.0784-1.0175 3.2376-4.31 3.381-4.5324-26.859 27.145-62.436 14.836-91.418-12.786z" fill="url(#radialGradient992)"/>
	<path d="m26.946 102.42c-2.7115 4.3961-6.5578 9.9792-6.7692 14.058-0.0411 0.79284 0.37292 1.6198 0.91154 2.2006 1.5e-4 1.6e-4 3.17e-4 2.4e-4 4.88e-4 4.9e-4a68.872 68.872 0 0 0 21.849 14.083c7.33e-4 2.4e-4 0.0015 7.3e-4 0.0024 9.8e-4 2.5178 0.91858 4.1661 0.95436 5.934 1.1115-11.249-3.4062-18.194-9.2661-21.928-31.455z" fill="#b0d136"/>
	<path d="m26.946 102.42c-2.7115 4.3961-6.5578 9.9792-6.7692 14.058-0.0411 0.79284 0.37292 1.6198 0.91154 2.2006 1.5e-4 1.6e-4 3.17e-4 2.4e-4 4.88e-4 4.9e-4a68.872 68.872 0 0 0 21.849 14.083c7.33e-4 2.4e-4 0.0015 7.3e-4 0.0024 9.8e-4 2.5178 0.91858 4.1661 0.95436 5.934 1.1115-11.249-3.4062-18.194-9.2661-21.928-31.455z" fill="url(#radialGradient1002)"/>
	<path d="m1.3071 77.864c-0.2711 1.9008-0.29268 3.8761 0.076022 5.7688 1.8338 8.3777 5.2532 16.404 10.024 23.531 1.1841 1.1914 2.9911 0.50117 4.3826 0.13261 3.8834-1.2107 7.5535-3.0038 11.156-4.8725-13.347-4.5451-23.064-8.8566-25.639-24.559z" fill="#00a894"/>
	<path d="m1.3071 77.864c-0.2711 1.9008-0.29268 3.8761 0.076022 5.7688 1.8338 8.3777 5.2532 16.404 10.024 23.531 1.1841 1.1914 2.9911 0.50117 4.3826 0.13261 3.8834-1.2107 7.5535-3.0038 11.156-4.8725-13.347-4.5451-23.064-8.8566-25.639-24.559z" fill="url(#radialGradient1012)"/>
	<path d="m29.675 13.221c-2.9568 1.7685-3.4145 1.4587-8.5866 5.8448-7.33e-4 6.11e-4 -0.0012 0.0013-0.0019 0.0019a68.872 68.872 0 0 0-21.086 44.332c-1.8326e-6 7.33e-4 1.8326e-6 0.0012 0 2e-3 -0.057165 20.133 15.409 32.198 26.944 39.02-7.1032-10.054-37.09-62.015 2.7308-89.202z" fill="#195eab"/>
	<path d="m29.675 13.221c-2.9568 1.7685-3.4145 1.4587-8.5866 5.8448-7.33e-4 6.11e-4 -0.0012 0.0013-0.0019 0.0019a68.872 68.872 0 0 0-21.086 44.332c-1.8326e-6 7.33e-4 1.8326e-6 0.0012 0 2e-3 -0.057165 20.133 15.409 32.198 26.944 39.02-7.1032-10.054-37.09-62.015 2.7308-89.202z" fill="url(#radialGradient1022)"/>
	<path d="m68.656 0.0012224a68.872 68.872 0 0 0-21.065 3.3006c-44.261 19.646-28.833 84.828-20.645 99.12-2.266-9.241 27.944-113.62 69.598-95.508-1.0767-0.94062-2.7123-2.0067-4.5033-2.822a68.872 68.872 0 0 0-9.78e-4 -4.887e-4 68.872 68.872 0 0 0-23.383-4.0909z" fill="#730054"/>
	<path d="m68.656 0.0012224a68.872 68.872 0 0 0-21.065 3.3006c-44.261 19.646-28.833 84.828-20.645 99.12-2.266-9.241 27.944-113.62 69.598-95.508-1.0767-0.94062-2.7123-2.0067-4.5033-2.822a68.872 68.872 0 0 0-9.78e-4 -4.887e-4 68.872 68.872 0 0 0-23.383-4.0909z" fill="url(#radialGradient1032)"/>
	<g fill="#4d5766">
		<path d="m240.73 76.751c-0.4457-24.365-17.382-39.519-38.478-39.519-21.69 0-39.519 16.045-39.519 39.519 0 23.622 17.828 39.519 39.37 39.519 17.085 0 30.605-7.5768 36.992-23.325l-21.096-4.3084c-4.0112 7.2797-10.4 8.6168-15.896 8.6168-8.0225 0-14.114-5.4969-16.045-14.411h54.671zm-38.478-20.205c6.834 0 12.777 3.7141 15.005 11.737h-30.754c2.2285-7.5768 9.0625-11.737 15.748-11.737z"/>
		<path d="m344.26 37.215c-11.588 0-20.502 4.9026-26.444 12.628-5.0512-8.1711-13.965-12.628-24.365-12.628-9.6567 0-16.936 3.417-21.988 9.0625v-6.834h-23.77v74.581h23.77v-36.547c0-12.479 5.6455-18.868 14.262-18.868 7.1311 0 12.628 5.3483 12.628 13.817v41.598h23.77v-36.547c0-12.479 5.794-18.868 14.559-18.868 6.9826 0 12.479 5.3483 12.479 13.817v41.598h23.622v-46.649c0-18.125-12.628-30.158-28.525-30.158z"/>
		<path d="m420.79 37.508c-22.582 0-41.3 15.748-41.3 39.221 0 23.622 18.719 39.37 41.3 39.37 22.136 0 40.855-15.748 40.855-39.37 0-23.473-18.719-39.221-40.855-39.221zm0 58.534c-9.6567 0-18.422-7.5768-18.422-19.313 0-11.588 8.7653-19.313 18.422-19.313 9.211 0 17.976 7.7254 17.976 19.313 0 11.737-8.7653 19.313-17.976 19.313z"/>
		<path d="m518.78 92.047c-3.1199 1.7828-7.5768 2.9713-10.845 2.9713-6.2397 0-9.9538-3.1199-9.9538-10.845v-25.85h21.988v-18.868h-21.988v-21.988h-23.77v21.988h-13.519v18.868h13.519v28.227c0 19.611 11.142 29.713 29.713 29.713 8.4682 0 14.559-2.377 20.353-5.4969z"/>
		<path d="m541.14 3.9343c-8.0225 0-13.668 6.2397-13.668 13.519 0 7.5768 5.6455 13.222 13.668 13.222s13.817-5.6455 13.817-13.222c0-7.2797-5.794-13.519-13.817-13.519zm11.885 110.09v-74.581h-23.77v74.581z"/>
		<path d="m601.44 37.508c-22.582 0-41.3 15.748-41.3 39.221 0 23.622 18.719 39.37 41.3 39.37 22.136 0 40.855-15.748 40.855-39.37 0-23.473-18.719-39.221-40.855-39.221zm0 58.534c-9.6567 0-18.422-7.5768-18.422-19.313 0-11.588 8.7653-19.313 18.422-19.313 9.211 0 17.976 7.7254 17.976 19.313 0 11.737-8.7653 19.313-17.976 19.313z"/>
		<path d="m695.93 37.215c-9.3596 0-17.234 3.417-22.879 9.3596v-7.1311h-23.77v74.581h23.77v-34.615c0-14.411 6.0912-20.799 15.451-20.799 7.5768 0 12.777 5.9426 12.777 14.708v40.706h23.622v-45.757c0-18.719-11.588-31.05-28.97-31.05z"/>
		<path d="m731.07 94.564c2.5256 15.302 17.531 21.69 35.062 21.69 19.611 0 33.872-8.6168 33.872-25.107 0-10.994-6.5368-19.462-20.651-22.433l-17.531-3.5656c-4.7541-1.04-5.6455-3.1199-5.6455-5.1998 0-2.6742 2.0799-5.794 8.4682-5.794 7.2797 0 11.737 4.1598 12.479 8.7653l21.69-4.3084c-2.9713-12.925-15.302-21.393-33.872-21.393-18.868 0-32.09 9.9538-32.09 25.256 0 11.737 7.8739 19.165 21.69 21.69l15.154 2.9713c5.4969 1.04 7.4282 2.9713 7.4282 5.4969 0 3.2684-3.417 5.9426-9.6567 5.9426-6.3883 0-12.182-2.377-13.222-8.7653z"/>
	</g>
</svg>
