<?xml version="1.0" encoding="UTF-8"?>
<svg width="389.71" height="450" version="1.1" xmlns="http://www.w3.org/2000/svg" xmlns:xlink="http://www.w3.org/1999/xlink">
 <defs>
  <linearGradient id="linearGradient16420" x1="140.28" x2="140.28" y1="16.316" y2="121.82" gradientTransform="matrix(3.7847 0 0 3.7847 -37.212 -11.044)" gradientUnits="userSpaceOnUse">
   <stop stop-color="#ffc60b" offset="0"/>
   <stop stop-color="#ed192e" offset=".54165"/>
   <stop stop-color="#ed0485" offset="1"/>
  </linearGradient>
 </defs>
 <path d="m194.85 13.232-183.4 105.88v211.77l183.4 105.88 183.4-105.88v-211.77zm66.426 387.47-29.065 27.727-2e-3 4e-3 40.617-23.449-4e-3 -2e-3z" fill="url(#linearGradient16420)" style="paint-order:stroke markers fill"/>
 <path d="m194.86 0-194.86 112.5v225l194.86 112.5 37.345-21.555 0.016-0.016 29.066-27.728 11.546 4.28 116.88-67.482v-225zm0 13.232 183.4 105.88v211.77l-82.747 47.775-5.7954-11.118 31.195-44.973-54.243 13.165-32.562-49.926-6.0245 58.072-55.078 13.971 47.568 26.508v37.567l-25.71 14.843-54.043-31.202 6.4681-21.104 22.612-3.0899-18.975-13.609 2.7203-22.568-16.617 15.213-23.573-12.093 8.0426 24.327-14.296 13.513-45.469-26.249 1.8924-21.888-16.617 13.387-35.541-20.52v-211.77zm-59.809 284.76-3.3486 15.494-12.892 2.6168 12.02 6.9264-0.16263 13.794 9.8758-8.937 13.535 4.317-5.6771-12.411 8.4491-11.539-13.284 2.5281zm-7.1703 88.964 9.2475 16.477-26.072-15.05z" fill="#1a1a1a" style="paint-order:stroke markers fill"/>
 <g transform="matrix(3.7847 0 0 3.7847 -37.212 -11.044)" fill="#1a1a1a">
  <path d="m77.221 57.492 4.8477 7.8477-5.1348 8.1211h4.6188l3.1781-5.259 3.2419 5.259h4.6448l-5.1808-8.2578 4.8038-7.7109h-4.3768l-3.0001 4.8778-3.0669-4.8778zm-61.502 2e-3v15.971h6.9587c1.591 0 2.9922-0.32632 4.207-0.98047 1.2284-0.66817 2.1777-1.6045 2.8477-2.8066 0.68349-1.2021 1.0254-2.6005 1.0254-4.1973 0-1.5968-0.3419-2.9971-1.0254-4.1992-0.6689-1.2011-1.6182-2.1291-2.8477-2.7832-1.2149-0.66917-2.616-1.0039-4.207-1.0039zm17.074 0v15.969h12.504v-3.465l-8.4375 2e-3v-2.697h6.5988v-3.3732h-6.5988v-2.9688h8.0508v-3.4667zm14.707 4.44e-4v15.969h11.862v-3.5114h-7.7734v-12.457zm23.359-4.44e-4v8.3198c0 2.6849-0.48542 3.9586-2.9612 3.9877-2.2922 0-2.7021-1.3691-2.7336-3.9897v-8.3041h-4.2878v8.9395c0 1.9034 0.44576 4.2174 1.8379 5.6067 1.2862 1.2835 3.3665 1.6817 5.1836 1.6873 1.8651 0.0057 4.0029-0.38985 5.331-1.6993 1.4032-1.3835 1.875-3.699 1.875-5.6064v-8.9414zm-50.933 3.8329h2.084c1.1252 0 2.2997 0.50506 3.0056 1.3457 0.6207 0.73919 0.72572 1.8426 0.7084 2.8077-0.01699 0.94635-0.17538 2.0287-0.79303 2.7265-1.0917 1.2334-1.9461 1.315-2.921 1.3223l-2.084 0.01562zm74.484-3.835v15.969h12.504v-3.465l-8.4375 2e-3v-2.697h6.5987v-3.3732h-6.5987v-2.9688h8.0507v-3.4667z" stroke-width=".97167"/>
  <path d="m20.725 42.254c-0.88669 0.02561-1.8144 0.11082-2.6152 0.49234-0.62641 0.29844-1.1851 0.78102-1.5879 1.346-0.38912 0.54575-0.68692 1.205-0.72928 1.8739-0.04162 0.65728 0.11186 1.3699 0.47859 1.917 0.3254 0.4854 0.89018 0.77613 1.4121 1.039 0.65526 0.32998 1.4006 0.43742 2.1035 0.64772 0.43712 0.13079 0.88234 0.23539 1.3145 0.38189 1.1426 0.38737 0.90618 1.3787 0.59533 1.5986-0.37537 0.26563-0.87734 0.32232-1.3368 0.34071-0.67252 0.02692-1.3552-0.11777-1.9902-0.34071-0.52179-0.18318-0.96988-0.42856-1.4514-0.80364l-1.1502 2.4792c0.50858 0.41534 1.2808 0.78467 1.9902 1.0072 0.85347 0.26764 1.7631 0.3889 2.6574 0.37253 0.96277-0.01762 1.9705-0.1008 2.8442-0.50545 0.63043-0.29195 1.2241-0.74844 1.6055-1.3291 0.35711-0.54372 0.53537-1.2235 0.54492-1.8739 0.01158-0.78866-0.15058-1.6381-0.59375-2.2905-0.32441-0.47763-0.88238-0.76318-1.3984-1.0221-0.65518-0.32876-1.385-0.49306-2.1016-0.64772-0.77562-0.16741-2.0375-0.2675-2.1417-1.0997-0.02201-0.17572 0.08022-0.36977 0.21334-0.48656 0.34479-0.30247 0.86274-0.37909 1.3214-0.38376 1.0187-0.01038 1.9131 0.16746 2.9516 0.79239l1.347-2.3832c-0.51366-0.34121-1.424-0.6574-2.1796-0.85048-0.68498-0.17504-1.3968-0.29185-2.1035-0.27144zm58.629 0.01872c-1.1892 0.01918-2.4357 0.22526-3.4773 0.79936-0.91088 0.50204-1.7014 1.2933-2.2148 2.1978-0.53742 0.94662-0.78644 2.0808-0.78711 3.1693-6.77e-4 1.094 0.24927 2.2335 0.78711 3.1862 0.50951 0.90248 1.2919 1.6969 2.1992 2.1978 1.0313 0.56938 2.2687 0.74513 3.4461 0.78438 0.81691 0.02723 1.6401-0.14513 2.4219-0.38377 0.85045-0.2596 1.8081-0.6369 2.4187-1.1251v-5.437h-5.1452v2.582h2.4707v1.001c-0.59292 0.34058-1.3265 0.51079-2.0215 0.51106-0.65125 2.59e-4 -1.3329-0.1477-1.8945-0.47737-0.5385-0.31608-1.0041-0.80527-1.2852-1.3628-0.22508-0.44649-0.26477-0.97638-0.26528-1.4764-5.14e-4 -0.50573 0.03532-1.0434 0.26528-1.4938 0.28371-0.55571 0.76046-1.034 1.3008-1.346 0.56834-0.3282 1.2574-0.54526 1.9102-0.47737 0.79586 0.08278 1.3567 0.15166 2.1592 1.0488l2.0004-2.172c-0.60985-0.60985-0.99584-0.92888-1.6069-1.2-0.83265-0.36941-1.7708-0.54072-2.6816-0.52604zm-49.999 0.80876c-0.89421 0.51567-1.6754 1.2982-2.1816 2.1978-0.53384 0.94865-0.78644 2.0808-0.78711 3.1693-6.77e-4 1.094 0.25118 2.2325 0.78711 3.1862 0.50568 0.8999 1.2864 1.6839 2.1816 2.1978 0.90429 0.5191 1.9861 0.75412 3.0284 0.78343 0.92939 0.02614 1.8833-0.17362 2.7354-0.54571 0.92693-0.4048 1.923-1.0866 2.458-1.7793l-2.4198-2.0004c-0.75972 0.9425-1.582 1.2981-2.5421 1.3732-0.6559 0.05133-1.3315-0.2665-1.8613-0.65647-0.39646-0.29179-0.68484-0.73311-0.88302-1.1837-0.18807-0.42764-0.2616-0.90971-0.26159-1.3769 1e-6 -0.46716 0.07307-0.94942 0.26159-1.3768 0.19809-0.44912 0.48761-0.88762 0.88302-1.1785 0.53026-0.39006 1.2048-0.70787 1.8613-0.65985 0.94748 0.0693 1.76 0.40008 2.5191 1.333l2.436-1.8905c-0.53502-0.68052-1.5195-1.4266-2.4532-1.8453-0.84428-0.37861-1.7966-0.57387-2.7215-0.54662-1.0474 0.03085-2.1325 0.27589-3.0402 0.79936zm9.3056-0.59718v11.925h3v-4.1572h4.303v4.159h2.9997v-11.927h-2.9997v5.1354h-4.303v-5.1354zm12.074 0v11.927h8.6341v-3.0483h-5.4343v-8.8784zm15.344 0-5.808 11.927h3.4639l0.99414-1.9553h4.2172l0.98438 1.9553h3.5378l-5.821-11.927zm19.661 0v11.917h9.101v-2.6053l-6.125-0.01123 3.91e-4 -2.1594h4.8168l-3.9e-4 -2.3471h-4.8168v-2.1889h5.7164v-2.6054zm10.672 0v11.927h3.1012v-3.3228h1.3909l2.168 3.3228h3.793l-2.922-3.8339c0.73769-0.34186 1.4862-0.78157 1.901-1.4658 0.40385-0.66609 0.43921-1.5223 0.40945-2.3007-0.0303-0.79146-0.17926-1.6258-0.59375-2.3007-0.39537-0.64377-1.0248-1.1611-1.7012-1.4976-0.78708-0.39161-1.5895-0.52791-2.584-0.52791zm3.1008 2.648h1.1189c0.6209 0 1.3308 0.11741 1.7812 0.54476 0.29033 0.27545 0.40519 0.72792 0.41097 1.1281 6e-3 0.43448-0.0999 0.93347-0.41064 1.2372-0.44413 0.43416-1.1602 0.54663-1.7812 0.54663h-1.1189zm-32.667 1.5604 1.2815 3.4686h-2.5625z" stroke-width=".95128"/>
 </g>
</svg>
