<?xml version="1.0" encoding="UTF-8"?>
<!-- Created with Inkscape (http://www.inkscape.org/) -->
<svg width="800" height="353.71" version="1.1" viewBox="0 0 211.67 93.585" xmlns="http://www.w3.org/2000/svg">
 <g transform="translate(30.88 -111.61)" stroke-width=".18521">
  <path d="m54.445 112.31c1.1819 0.37042 2.2767 0.88902 3.0845 1.7746 1.0671 1.1726 0.84297 2.7305 0.41858 4.0143-1.0964 3.3127-3.6328 5.3447-6.6877 6.8192-2.1968 1.0615-4.5147 1.81-6.8396 2.4863-1.6505 0.4797-3.4235 0.24818-5.1444 0.11298-0.15346-0.0132-0.37043-0.0296-0.35005-0.21484 0.09075-0.96336-0.79111-1.0245-1.2967-1.4229-0.22225-0.17411-0.70962-0.18522-0.52045-0.59083 0.17595-0.37042 0.27781-0.97448 0.84271-0.95225a16.824 16.824 0 0 0 5.1703-0.67629 21.987 21.987 0 0 0 7.0396-3.2716c0.46303-0.32783 0.90965-0.70565 1.4208-0.92606 0.43737-0.18521 0.87075-0.26141 0.86334-0.87446 0-0.74084-0.05371-1.5023-0.74084-1.9471a2.9863 2.9863 0 0 0-1.2726-0.43339c-1.9434-0.254-3.8754-0.18521-5.8058 0.0352-1.1893 0.12966-2.2934 0.60378-3.4032 1.0186-1.297 0.48737-2.6696 0.88584-3.8421 1.597-1.56 0.94669-3.2717 1.5804-4.6965 2.8602-1.2965 1.1726-1.6782 2.8658-2.9025 4.0181-0.37043 0.35588-0.22437 1.0411-0.10954 1.5174 0.26696 1.1001 0.45033 2.2228 0.70962 3.316 0.42414 1.8042 1.7433 3.042 2.9139 4.3684 1.1112 1.2541 2.6083 2.0082 3.8588 3.0864 1.369 1.1819 2.8472 2.2413 4.3035 3.3216 1.1112 0.82815 2.4564 1.3838 3.3346 2.512 1.5301 1.9727 3.3791 3.681 4.6888 5.841 1.2338 2.0376 1.7841 4.2739 1.9579 6.5821 0.15214 2.0746 0.15214 4.1498-0.58897 6.1763a16.834 16.834 0 0 1-3.3458 5.4669 26.305 26.305 0 0 1-8.4493 6.2633c-2.9845 1.3912-6.104 2.3082-9.2737 3.1346a45.599 45.599 0 0 1-9.9072 1.389 31.68 31.68 0 0 1-8.5956-0.90382c-2.3934-0.57786-4.748-1.2449-7.0174-2.1878-2.7787-1.1578-5.237-2.7305-6.8951-5.3725-0.96152-1.5375-2.0209-3.0012-2.6472-4.7295-0.50007-1.3801-0.58897-2.8231-0.76492-4.2461a16.048 16.048 0 0 1 1.3171-8.5215 21.061 21.061 0 0 1 3.8903-5.8003c2.2728-2.4527 5.0981-4.1292 7.8177-5.9707 0.9893-0.67047 2.1508-0.86706 3.2476-1.1874 1.0967-0.32042 2.1915-0.72047 3.3013-1.0356 0.59453-0.16854 1.1668-0.34079 1.7986-0.33337 1.7304 0.0222 1.7193 0 1.497 1.7468-0.04472 0.34477-0.1688 0.43181-0.50404 0.49479-2.2786 0.42069-4.2776 1.4727-6.167 2.7786a27.972 27.972 0 0 0-5.187 4.6758c-1.256 1.4412-2.2378 3.1234-3.0919 4.8499-1.7079 3.4458-2.0767 6.993-0.54267 10.585 1.5153 3.5513 3.7791 6.5543 7.2081 8.4382 2.2378 1.23 4.6425 2.16 7.2767 2.1452 0.65935 0 1.206 0.50563 1.9526 0.33153-0.79852-0.67628-1.7656-0.95596-2.6048-1.456-1.4727-0.88002-2.4286-2.1786-3.3161-3.5642-1.1115-1.7452-2.0156-3.6106-2.4545-5.6392-0.37043-1.7378-0.58738-3.4958-0.34661-5.3055 0.30956-2.3156 0.78185-4.5499 1.8656-6.6491 1.9008-3.6844 4.7221-6.3686 8.5215-7.9879 0.37042-0.1614 0.80223-0.27596 1.243-0.42255 0.37043 1.5118 0.59479 2.9138-0.313 4.3943a13.003 13.003 0 0 1-1.3356 1.7637c-0.87816 1.0152-1.2967 2.3379-2.1952 3.3828-1.2967 1.519-2.0582 3.4198-2.4823 5.2812a10.652 10.652 0 0 0 0.19632 5.2039c0.66147 2.3027 1.7949 4.2887 3.7328 5.7725a12.041 12.041 0 0 0 5.5151 2.3064c2.8009 0.45007 5.6003 0.24818 8.3363-0.39635 3.318-0.78371 6.4244-2.0955 9.1126-4.2869a27.66 27.66 0 0 0 4.8166-4.9073c1.9024-2.5567 1.8748-5.1203 0.37042-7.8291-1.7171-3.0972-4.0532-5.6204-6.8377-7.7804-3.1253-2.4268-6.5229-4.4702-9.6331-6.9359-2.8046-2.223-4.8166-4.9573-5.4632-8.4789-0.58897-3.2016 0.11112-6.2207 1.9045-8.996 1.756-2.7157 4.1572-4.6165 6.9896-6.0892 1.7171-0.89484 3.4458-1.747 5.2722-2.3842a28.953 28.953 0 0 1 7.0544-1.4822c0.33524-0.0278 2.1987-0.41117 4.1125-0.37043a19.735 19.735 0 0 1 4.5832 0.70592" fill="#bd1212"/>
  <g fill="#e9e9e9">
   <path class="cls-2" d="m180.78 186.53c-1.6319-0.24263-3.103-0.43525-4.5647-0.6948a7.8955 7.8955 0 0 0-1.5597-0.1204c-0.28708 0-0.67073-0.12038-0.78 0.29105a1.0171 1.0171 0 0 0 0.18521 0.95199c0.41329 0.51144 0.79111 1.0504 1.2245 1.6341-0.68898 0.18521-1.1112-0.23918-1.5637-0.40217-2.3635-0.8742-4.8385-1.2208-7.2764-1.7653-2.4082-0.53553-4.874-0.67444-7.2248-1.6044-1.406-0.55563-3.0476-0.60934-4.5668-0.43525-1.8098 0.20745-3.4566-0.42412-5.1867-0.64665-1.7912-0.23151-3.5625-0.52043-5.391-0.52043-1.8674 0-3.731-0.34821-5.6021-0.48896-3.8683-0.29291-7.7399-0.5186-11.621-0.6374-1.9841-0.0609-3.9514-0.51674-5.9281-0.70009-1.3449-0.12437-2.6934-0.037-3.9106 0.68343a1.4004 1.4004 0 0 1-1.2523 0.0796c-0.96521-0.48155-1.8526-0.20744-2.7342 0.10743-0.74084 0.26326-1.3875 0-2.0137-0.29634-0.66332-0.30745-1.2967-0.67629-2.0505-0.69852-0.12066 0-0.30031 0.0132-0.35217-0.0574-0.7022-0.93531-0.92604-0.22596-1.1745 0.3392-0.20003 0.46118-0.47229 0.57046-0.92605 0.32227a2.0934 2.0934 0 0 0-2.0378-0.0241c-0.87632 0.45007-1.8156 0.22782-2.7138 0.37043-2.7212 0.44662-5.4743 0.26696-8.2067 0.48366-1.0636 0.0852-2.0378 0.2667-2.9305 0.84086-0.36143 0.23363-0.70962 0.32254-1.1115 0.14473-1.0689-0.46699-2.1415-0.37042-3.2016 0.0238a2.9771 2.9771 0 0 1-0.90384 0.14659c-2.7194 0.12964-5.4391 0.14261-8.1625 0.14261-2.6154 0-5.2923-0.0389-7.8286 0.49081-3.5791 0.74084-7.2248 0.61119-10.785 1.2393-2.1061 0.37043-4.2443 0.51145-6.317 1.1689-2.2767 0.72073-4.6906 0.86335-7.0526 1.18-2.6416 0.35376-5.287 0.67814-7.9066 1.1634-1.8637 0.3445-3.7051 0.79641-5.5762 1.0986-1.6026 0.25744-3.1644 0.67073-4.7406 1.0319a2.1601 2.1601 0 0 1-0.80778-0.0482c-0.68528-0.0944-1.369-0.23891-2.0026 0.32968-0.34264 0.30772-0.87419 0.40959-1.3891 0.38365-1.7026-0.0873-3.3349 0.34635-4.9669 0.74085-1.6671 0.40005-3.3346 0.74085-5.0018 1.1115-1.6319 0.35746-3.2754 0.70778-4.8721 1.2523-2.1878 0.74085-4.3961 1.469-6.747 1.4819a3.8903 3.8903 0 0 0-1.0671 0.22225c-0.37043 0.10213-0.80963 0.60961-1.0671-0.16668-0.018521-0.0556-0.35005-0.05-0.52388-0.0111q-3.4757 0.77815-6.8547 1.8822c-3.8662 1.2597-7.6119 2.862-11.486 4.094-3.1493 1.0022-6.3355 1.9471-9.6239 2.4379-0.50563 0.0759-1.1912 0.30004-1.4449-0.23337-0.28522-0.6059 0.46673-0.81492 0.83345-1.1022 0.47441-0.37043 1.1115-0.47229 1.6415-0.74084 2.1508-1.1303 4.4813-1.7526 6.7525-2.553 2.7787-0.97818 5.6243-1.5671 8.4808-2.2082 2.3582-0.53156 4.6777-1.2764 6.9914-2.0227 3.0493-0.98558 6.0262-2.1656 9.0774-3.1494 1.7042-0.55564 3.4198-1.0874 5.1314-1.6192 1.9394-0.60194 3.9477-0.99115 5.9281-1.469 1.4504-0.35005 2.9009-0.70222 4.3554-1.0393 2.2542-0.5223 4.5128-1.0282 6.7655-1.5523 1.4579-0.33707 2.9009-0.74084 4.3647-1.0356 2.54-0.51488 5.0481-1.1745 7.6137-1.5745 1.8526-0.28734 3.6551-0.7763 5.4965-1.0822 3.0178-0.50377 6.0096-1.1724 9.0589-1.4817 1.2208-0.12621 2.4082-0.4207 3.6273-0.60961 2.6379-0.40932 5.2944-0.66332 7.9252-1.1374 2.3212-0.41858 4.6925-0.55563 7.0396-0.84482 1.7338-0.21856 3.4587-0.51304 5.187-0.74084 2.7953-0.37042 5.6058-0.67072 8.39-1.1115 3.129-0.50404 6.2985-0.67814 9.4256-1.1393 1.7005-0.25004 3.4235-0.38525 5.1425-0.48738 5.2592-0.31485 10.518-0.62971 15.789-0.62786 5.0536 0 10.1 0.20374 15.146 0.54267 3.4698 0.23363 6.9155 0.64665 10.374 1.0171 2.6824 0.28919 5.3465 0.75407 8.0159 1.1562 2.2378 0.33708 4.485 0.63712 6.7062 1.0575 3.3346 0.63184 6.6507 1.2967 9.9461 2.0619 2.6935 0.63369 5.3725 1.3115 8.0418 2.0897 2.7342 0.80038 5.3725 1.8524 8.0585 2.7787 0.0704 0.0238 0.11297 0.12964 0.30004 0.35746m-87.416-28.29c0.70962-0.85964 1.0096-1.8693 1.2782-2.8268 0.37043-1.3414 1.2078-2.4231 1.7619-3.6551 0.66861-1.4819 1.4817-2.899 2.2561-4.3332 2.249-4.1554 4.6779-8.1771 8.6493-10.972 0.30772-0.21696 0.59109-0.5371 1.0356-0.51488 0.51515 0.0238 1.1282-0.0741 0.85038 0.79456a0.254 0.254 0 0 0 0 0.1852c1.0059 1.5563-0.30004 2.5638-1.0541 3.4624-1.4819 1.7582-2.4082 3.818-3.6216 5.7133a14.635 14.635 0 0 0-1.1708 2.0378c-0.18522 0.4244-1.8394 3.1956-2.5379 4.6814-0.74085 1.5933-1.6486 4.5832-2.2712 6.0911-0.80223 1.9434-1.5097 3.981-2.9808 5.5688-0.88557 0.9541-1.8616 1.8137-3.3346 1.5542a4.674 4.674 0 0 0-0.74084-0.0296c-2.1545-0.0408-3.0882-0.96309-3.2865-3.1494-0.39662-4.398-0.42811-8.7827 0.12964-13.177 0.3908-3.0734 0.74084-3.1808 1.7227-6.1133a1.3338 1.3338 0 0 1 2.2027-0.50748 0.45192 0.45192 0 0 1 0.10927 0.55563 2.7138 2.7138 0 0 0-0.20558 0.92632c-0.03519 0.2892-0.02593 0.74084 0.15002 0.87632 1.0152 0.79296 0.24818 2.6231 0.55563 3.5512 0.5985 1.8526-0.01111 0.98374 0.47996 2.7028 0.64083 2.2434-0.29448 4.3221 0.02593 6.5729" fill="#0a0a0a"/>
   <path class="cls-2" d="m97.206 137.42c-0.71147-0.97077-6.0151-1.2859-10.244 0.70777-3.4939 1.6449-4.6517 2.8284-4.8166 3.1976-0.05927 0.12409 0.15558-0.75408 0.02778-1.2319-0.06112-0.22807-0.57045-0.16325-0.85408-0.14473-0.4371 0.0296-0.38895-0.17039-0.97236 0.12065-0.18521 0.0945-0.85038-0.34105-0.92632 0.0111-0.18521 0.93718-0.31486 3.6699-1.1115 6.0167-1.3708 4.0091-5.6781 10.578-9.7998 14.724-1.2967 1.2965-5.4891 5.3539-8.7067 3.3346-0.74084-0.45958-0.75936-1.5433-0.83186-2.4604-0.23707-3.0864 0.74084-5.0589 1.9341-7.8159 0.21669-0.49822 0.41858-0.52971 0.9152-0.74085 0.74084-0.32042 1.493-0.65591 2.249-0.95781 2.1042-0.84112 4.0474-1.7042 5.8741-3.0568 2.073-1.5356 3.7717-2.6583 5.4558-5.4796 1.447-2.4289 1.7193-7.0063-2.0561-7.3767-3.6662-0.3707-8.466 2.5638-10.93 5.2312-3.0176 3.2791-3.0586 4.7499-4.7089 8.0937a1.91 1.91 0 0 1-0.2577 0.3982c-0.51674 0.69481-1.419 1.0134-2.1524 1.1782-0.55563 0.12224-1.3838 0.47625-0.92632 0.90039 0.65194 0.60591 0.24262 1.3097 0.95966 1.3097 0.9131 0 0.21299 1.2245 0.08149 1.6896-0.88187 3.1142-1.2782 6.2522-0.48552 9.4478 0.39847 1.6042 1.3097 2.862 2.8472 3.5976 2.114 1.0115 5.704 0.33522 7.718-0.51859 5.1978-2.2048 10.996-10.411 11.15-11.547-0.54082 3.3069-1.3227 6.0725-1.7412 9.1164-0.16484 1.1933 0.99484 1.7727 2.4675 2.1119 0.60934 0.14076 1.8264-1.1112 2.3175-0.55563 0.18521 0.20559 0.60008-0.23363 0.58897-0.54294-0.02381-0.62785-0.15002-0.69851-0.24448-2.2119a24.586 24.586 0 0 1 0.2704-3.3994c0.11483-0.55564 0.88927-4.3498 0.82815-5.0166-0.09631-1.0411 0.21696-1.1467 0.33524-2.6027 0.41699-5.0647 2.9342-7.94 4.0755-9.033 5.9114-5.6207 10.987-4.3721 11.248-4.1776 0.73185 0.54266 1.0245-1.0022 0.63924-1.3745-0.42599-0.40957-0.15002-0.83741-0.2241-0.94113m-25.32 2.6842c3.4124 3.242-9.9909 10.144-8.6604 7.2248 2.3138-5.0722 7.636-8.1974 8.6604-7.2248m48.072 5.1391c0.10742-0.74084 0.0667-1.5727 0.18521-2.2823 0.24819-1.5637 1.71-2.8936 2.862-3.9069 0.53183-0.46674 0.83001-1.1374 1.443-1.5764 0.45774-0.32809 0.92633-0.5207 1.3208-0.2704 0.39477 0.25003 0.0892 6.5543-1.5616 12.13-1.7986 6.03-2.3971 7.8844-3.6011 11.237-0.33919 0.95384 0.19791 0.92606 0.61649 0.72603 1.297-0.60934 5.432-7.1489 6.8547-10.287 1.0245-2.2675 2.9938-6.2985 4.1051-9.2849 0.53897-1.4523 1.0911-3.0752 2.2119-4.6536 0.26114-0.37042 0.93716-1.543 4.4165-1.6023 0.61675-0.0111-0.0241 1.7079 1.0168 1.315 0.32623 0-0.0593 0.77841-1.0279 1.6804-1.7156 1.5989-2.6122 4.5406-2.0029 6.8174 0.57997 2.1696 3.3774 4.6573 4.9298 6.2284 2.4934 2.521 2.8212 5.6056 2.4082 8.8213-0.24262 1.91-1.5301 3.3754-3.0623 4.5239-1.5319 1.1486-3.3013 1.9545-5.0407 2.649-1.7859 0.71333-3.6551 1.2597-5.4669 1.9508a2.1786 2.1786 0 0 1-1.7137-0.10742c-0.66861-0.33709-1.3467-0.29105-2.0561-0.0796-0.64665 0.18522-1.3171 0.2593-2.0378-0.0852 0.74084-1.0763 1.8526-1.4488 2.9027-1.8526 3.3087-1.2523 6.2763-3.0604 9.0682-5.2148a8.5012 8.5012 0 0 0 1.91-2.1841c1.1393-1.7489 0.82973-3.7347-0.77816-5.8855-1.3578-1.8134-3.1994-3.279-4.2406-5.3111a13.873 13.873 0 0 1-0.74084-1.8431c-0.70038 1.5338-1.2266 2.6157-1.9137 4.1125-4.3721 11.234-9.172 14.718-10.791 13.616-0.4445-0.25215-0.50589-1.0171-1.2412-1.0208-0.76703 0-0.6522 0.43525-1.4819 1.08-0.83001 0.64453-1.8045 1.1837-5.224 1.2779-0.90225 0.0262-2.2437-0.0979-3.4384-0.8017a6.4837 6.4837 0 0 1-2.9474-3.6349c-0.88531-2.8305-1.1483-5.6003-0.48155-8.5697 0.75407-3.355 1.3356-5.4354 3.268-8.5215l0.51515-0.98004c0.4723-1.1208 1.269-2.0376 1.6875-3.2068 0.37967-1.0578 1.2967-1.8524 2.2416-2.495 0.61305-0.42068 1.3578-0.38734 2.0378-0.0484 0.48155 0.24264 0.48711 0.74086 0.49637 1.206a0.83186 0.83186 0 0 1-0.254 0.65592c-1.1816 1.2023-1.9987 2.6138-2.1654 4.3109-0.0574 0.60379-0.62813 0.84827-0.98929 1.6671-0.0815 0.18521-0.24449 0.58924-0.30746 0.69851-0.0945 0.16669-0.0333 0.42969-0.1852 0.75936-0.55564 1.1819-1.5192 2.8268-2.123 4.8462-0.24263 0.81705-0.22967 1.9082-0.40377 2.7305-0.62971 2.9808-0.67813 7.7992 2.9512 7.9196 2.9046 0.0963 7.3804-14.227 7.8177-17.254" fill="#0a0a0a"/>
   <path d="m16.324 140.67a1.0911 1.0911 0 0 0 0.25188-0.0722 2.1582 2.1582 0 0 0-0.25188 0.0722 12.258 12.258 0 0 0-1.5653 0.39821c-1.647 0.53182-3.1494 1.3801-4.6017 2.3733a27.845 27.845 0 0 0-5.187 4.6774c-1.2578 1.4393-2.2378 3.1216-3.0938 4.8481-1.7063 3.4458-2.0749 6.9933-0.54293 10.585 1.5153 3.5513 3.781 6.5543 7.21 8.4382 2.236 1.2303 4.6409 2.1601 7.2767 2.1452 0.65776 0 1.206 0.5059 1.9526 0.33154-0.80037-0.67602-1.7674-0.9557-2.6064-1.456-1.4729-0.87975-2.4289-2.1786-3.3161-3.5624-1.1115-1.7468-2.0156-3.6125-2.4527-5.641-0.37043-1.7375-0.58924-3.4958-0.34661-5.3055 0.30745-2.3156 0.78185-4.5499 1.8637-6.6488 1.9005-3.6847 4.7221-6.367 8.5215-7.9879 0.37042-0.15954 0.80196-0.27623 1.2449-0.42255a1.7674 1.7674 0 0 0-0.07779-0.21299s-0.94298-1.8656-1.873-2.3323a3.0715 3.0715 0 0 0-2.1526-0.3003"/>
   <path class="cls-2" d="m166.62 147.1-2.5934 8.3678c-0.34264 1.0226-0.42996 2.0249-0.65591 3.0456h-0.0593c-0.25559-0.99853-0.40006-1.9971-0.76862-2.9993l-2.5808-8.4141h-14.029v3.255h3.3346v14.264h4.2609v-14.264h3.0364l5.0669 14.264h3.4789l5.967-17.519z" fill="#0a0a0a"/>
  </g>
 </g>
</svg>
