<?xml version="1.0" encoding="UTF-8"?>
<svg width="800" height="206.75" version="1.1" xmlns="http://www.w3.org/2000/svg">
	<defs>
		<linearGradient id="A" x1="414.37" x2="1244.6" y1="289.84" y2="289.84" gradientTransform="matrix(.51516 0 0 .51516 -7.7789 -84.95)" gradientUnits="userSpaceOnUse">
			<stop stop-color="#ff0031" offset="0"/>
			<stop stop-color="#9b001f" offset="1"/>
		</linearGradient>
		<linearGradient id="B" x1="197.48" x2="194.59" y1="295.14" y2="212.24" gradientTransform="matrix(.51516 0 0 .51516 -7.7789 -84.95)" gradientUnits="userSpaceOnUse">
			<stop stop-color="#fff" offset="0"/>
			<stop stop-color="#fff" stop-opacity=".25" offset=".515"/>
		</linearGradient>
		<linearGradient id="C" x1="830.55" x2="826.25" y1="276.73" y2="153.47" gradientTransform="matrix(.51516 0 0 .51516 -7.7789 -84.95)" gradientUnits="userSpaceOnUse">
			<stop stop-color="#fff" offset="0"/>
			<stop stop-color="#fff" stop-opacity=".25" offset=".515"/>
		</linearGradient>
	</defs>
	<g stroke-width=".79067">
		<path d="m793.75 6.7207e-5c3.4608 0 6.2502 2.8171 6.2502 6.2502v116.24a6.2779 6.2779 0 0 1-6.2502 6.2502h-163.07c-3.4607 0-6.2502-2.8164-6.2502-6.2502v-116.21c0-3.4607 2.8171-6.2502 6.2502-6.2502h163.07" fill="#bbb"/>
		<path d="m714.58 38.576v49.548c0 2.1728-1.0998 3.3801-4.4799 3.3801-1.5292 0-2.9508-0.21427-4.0506-0.42933v-22.802h-28.274v19.878c0 2.1728-1.0998 3.3801-4.4799 3.3801-1.6367 0-3.2726-0.21427-4.0506-0.42933v-49.575c0-2.0921 1.0998-3.3801 4.5874-3.3801 1.5292 0 3.0314 0.21427 3.9162 0.42933v22.051h28.141v-19.1c0-2.0921 1.2074-3.3801 4.695-3.3801 1.6098 0 3.1121 0.21427 3.9968 0.42933m58.003 26.182c0 14.861-10.381 26.101-26.638 26.101h-15.157c-3.2726 0-4.4799-1.3141-4.4799-3.3801v-45.309c0-2.0652 1.2074-3.3801 4.4799-3.3801h15.157c16.257 0 26.638 11.133 26.638 25.968m-8.638 0c0-11.133-6.9745-18.349-18-18.349h-11.133v36.779h11.133c11.026 0.02688 18-7.1895 18-18.43" fill="#9c001f"/>
		<path d="m57.492 77.171c0 11.076-7.2122 19.112-21.946 20.709-10.612 1.1333-26.016-0.20606-33.331-1.0303-0.25758-1.1849-0.46364-2.6788-0.46364-3.8637 0-9.6335 5.2031-11.849 10.097-11.849 5.1001 0 13.137 0.87577 19.061 0.87577 6.594 0 8.5516-2.2152 8.5516-4.3273 0-2.7819-2.6273-3.9152-7.7274-4.894l-13.961-2.6788c-11.591-2.2152-17.773-10.2-17.773-18.7 0-10.303 7.3153-18.958 21.74-20.555 10.87-1.1849 24.161 0.15455 31.425 1.0303 0.25758 1.2364 0.41213 2.4212 0.41213 3.7091 0 9.6335-5.1001 11.694-9.9941 11.694-3.7607 0-9.582-0.66971-16.279-0.66971-6.8001 0-9.582 1.8546-9.582 4.1213 0 2.4212 2.6788 3.4 6.9031 4.1728l13.291 2.4728c13.703 2.5243 19.576 10.252 19.576 19.782m23.852 11.849c0 5.9243-2.3182 9.3244-13.909 9.3244-1.5455 0-2.8849-0.10303-4.1728-0.3091v-78.459c0-5.9758 2.0091-12.209 13.703-12.209 1.494 0 2.9879 0.15455 4.3789 0.46364zm47.343 30.394c1.5455 0.77274 4.6364 1.7515 8.5516 1.8031 6.7486 0.15455 10.406-2.4212 13.137-8.4486l36.061-80.21c-1.494-0.77274-4.791-1.7-7.4698-1.7515-4.6364-0.10303-10.87 0.82425-14.837 10.303l-11.746 27.458-22.925-37.246c-1.494-0.46364-5.1001-1.0818-7.7274-1.0818-8.1395 0-12.621 2.9879-17.309 8.0365l-22.255 24.315 17.928 28.179c3.297 5.1516 7.6759 7.7789 14.734 7.7789 4.6364 0 8.5001-1.0818 10.303-1.9061l-21.585-32.455 15.3-16.228 25.088 39.307z" fill="#ff0031"/>
		<path d="m624.84 0h-410.63c-4.7395 0-8.6032 3.8637-8.6032 8.6032v111.53c0 4.7395 3.8637 8.6032 8.6032 8.6032h410.58c4.7395 0 8.6032-3.8637 8.6032-8.6032v-111.58c-0.05152-4.7395-3.8122-8.5516-8.5516-8.5516" fill="url(#A)"/>
		<path d="m63.313 19.576v53.834c0-2.1637 1.6485-4.4304 4.4304-4.5334l9.0668-0.3091c1.8031-0.05152 4.5334-1.2879 4.5849-4.5849v-56.152c-1.3909-0.3091-2.8849-0.46364-4.3788-0.46364-11.694 0.051516-13.703 6.2334-13.703 12.209m41.213 18.752-22.255 24.315 1.8031 2.7819c0.77274 1.0303 2.2667 2.7819 5.2546 2.6788l12.673-0.46364c2.7819-0.10303 4.5334 1.0818 5.6152 2.5243l-3.9667-5.9758 15.3-16.228 10.252 16.124c1.8546 2.4212 4.6364 2.4728 5.2546 2.4728 0.51516 0 14.012-0.46364 14.579-0.51516 0.92728-0.05152 2.0091 0.46364 2.8334 1.6485l-22.306-36.267c-1.494-0.46364-5.1001-1.0818-7.7274-1.0818-8.1395-0.05151-12.621 2.8849-17.309 7.985m-82.786-7.4698c-14.424 1.597-21.74 10.2-21.74 20.555 0 5.3061 2.4212 10.406 7.0577 14.064 3.5031 2.3182 7.1092 3.194 10.664 3.8122 2.9364 0.51516 9.788 0.9788 14.888 0.77274l15.867-0.56668c5.9758-0.20606 9.1698 4.894 8.8607 9.9941v-0.25758c0.05151-0.6697 0.10303-1.3394 0.10303-2.0091 0-9.5304-5.8728-17.309-19.525-19.834l-13.291-2.4728c-4.2758-0.72122-6.9031-1.7515-6.9031-4.1728 0-2.2667 2.8334-4.1728 9.582-4.1728 6.6971 0 12.518 0.66971 16.279 0.66971 4.894 0 9.9941-2.0606 9.9941-11.694 0-1.2879-0.15455-2.4728-0.41213-3.7091-5.2031-0.61819-13.549-1.494-21.843-1.494-3.2455 0.05151-6.491 0.20606-9.582 0.51516m142.29 10.252-11.385 26.84c0-0.05151 0.72122-2.1122 2.9364-2.2152l12.055-0.41213c3.6576-0.15455 5.1001-2.6273 5.5122-3.4516l13.188-29.416c-1.494-0.77274-4.791-1.7-7.4698-1.7515h-0.56668c-4.5849 0.05151-10.458 1.2879-14.27 10.406" enable-background="new" fill="url(#B)" opacity=".3"/>
		<path d="m214.2 0c-4.7395 0-8.6032 3.8637-8.6032 8.6032v61.922c0-0.92729 0.36061-6.0274 6.1819-6.594 0 0 0.3091-0.05152 0.82426-0.05152l414.39-14.527c3.2455-0.10303 6.388-2.5243 6.388-6.5425v-34.155c0-4.7395-3.8637-8.6032-8.6032-8.6032z" enable-background="new" fill="url(#C)" opacity=".3"/>
		<path d="m298.64 14.58c-3.4516 0-6.3871 2.678-6.3871 6.3871 0 3.2455 2.884 6.2852 6.3871 6.2852 3.5031 0 6.2852-2.9882 6.2852-6.2852 0-3.6061-2.7306-6.3871-6.2852-6.3871zm117.35 19.112c-16.588 0-30.033 13.137-30.033 31.219 0 18.752 12.93 31.528 31.682 31.528 8.6547 0 16.794-2.5766 22.1-4.9463 0.61819-5.4607-1.2376-7.8294-3.7618-7.8294-1.0818 0-2.4205 0.51506-4.9448 1.4424-3.8637 1.1849-7.8305 2.3689-13.034 2.3689-12.106 0-20.348-6.7491-21.842-18.443h46.93c0.36062-2.2667 0.51519-4.2756 0.56674-6.1817 0-14.373-9.1698-29.157-27.664-29.157zm-155.37 0.05096c-17.412 0-30.703 13.342-30.703 31.27 0 17.928 13.291 31.425 30.703 31.682 8.2425 0 15.713-2.266 21.019-4.7903 0.51517-5.4607-1.4939-7.7275-4.0182-7.7275-3.5031 0-7.4697 3.8638-16.64 3.8638-11.591 0-21.019-8.9114-21.019-22.872 0-13.961 9.428-22.616 21.019-22.616 9.1698 0 13.085 3.8638 16.64 3.8638 2.5243 0 4.5334-2.2668 4.0182-7.7275-5.2031-2.6788-12.673-4.9463-21.019-4.9463zm89.639 0c-9.1183 0-15.816 4.4305-20.194 9.7366v-5.2026c0-2.2667-1.3405-3.7603-5.2042-3.7603-1.7515 0-3.6052 0.41109-4.5324 0.66867v60.12c0.92728 0.25758 2.7809 0.51424 4.5324 0.51424 3.9152 0 5.2042-1.3906 5.2042-3.7603v-38.585c3.194-5.8213 10.921-10.87 18.082-10.87 9.0153 1e-6 15.145 5.8725 15.145 18.236v34.362c0.9788 0.25758 2.937 0.51578 4.534 0.51578 3.9667 0 5.2026-1.3921 5.2026-3.7618v-32.454c0-17.824-10.353-25.707-22.769-25.758zm133.63 0c-7.4183 0-13.55 3.8649-17.413 9.068v-4.2761c0-2.5243-1.2876-4.0182-5.0482-4.0182-1.597 0-3.5037 0.41109-4.534 0.66867v60.017c0.82426 0.25758 2.7824 0.51578 4.534 0.51578 3.9667 0 5.2026-1.3921 5.2026-3.7618v-39.615c2.2667-4.894 8.0882-9.8401 14.888-9.8401 8.1395 0 12.262 5.3074 12.262 14.22v38.482c1.0303 0.25758 2.8844 0.51578 4.6359 0.51578 3.9667 0 5.2026-1.3921 5.2026-3.7618v-39.615c2.2667-4.894 8.0882-9.8401 14.888-9.8401 7.985 0 12.262 5.3074 12.262 14.22v38.482c0.97881 0.25758 2.9354 0.51578 4.5324 0.51578 3.9667 0 5.3061-1.3921 5.3061-3.7618v-36.318c0-12.003-6.902-21.843-19.884-21.895-8.9122 0-15.301 4.8953-19.422 10.923-3.194-6.8001-9.4267-10.923-17.412-10.923zm97.21 0c-8.4486 0-17.464 2.0094-23.491 4.2761-0.61819 5.3061 0.97844 7.831 3.7603 7.831 0.97881 0 2.4215-0.46391 4.2761-0.97907 3.6061-1.1849 8.9124-2.5249 15.043-2.5249 11.849 0 14.888 5.5639 14.888 14.888v1.6493c-26.737-1.7515-42.552 4.6358-42.552 19.266 0 9.685 7.4704 18.34 21.019 18.34 9.0153 0 15.815-3.5548 21.533-9.5822v5.0482c0 2.5243 1.5965 3.8128 5.2026 3.8128 1.7515 0 3.5037-0.25821 4.534-0.51579v-38.378c0-14.27-6.5427-23.08-24.213-23.132zm-282.15 0.82464c-4.0698 0-5.3061 1.4936-5.3061 3.7603v56.874c0.9788 0.25758 2.8839 0.5152 4.5324 0.56675 3.9667 0 5.3061-1.3906 5.3061-3.7603v-56.77c-0.97879-0.25758-2.9354-0.67021-4.5324-0.67021zm117.09 7.882c10.87 0 17.515 8.1395 17.927 18.494h-37.76c1.597-12.106 10.148-18.597 19.833-18.494zm173.04 23.691c2.0777 0.0064 4.2167 0.06401 6.3933 0.1606v11.591c-4.6364 6.1819-11.591 10.356-19.833 10.356-8.088 0-12.621-4.9463-12.621-10.252 0-9.421 11.517-11.9 26.061-11.855z" fill="#fff"/>
		<path d="m399.54 142.01 1.877 14.487 1.1117 9.5441c-1.0389-0.54555-2.013-1.2864-3.1808-1.5291-0.0111 0.55109 0.0957 1.0935 0.18264 1.6351 0.76378 4.5052 1.4857 9.0215 2.0202 13.56 0.0712 0.64202 0.18423 1.2817 0.19688 1.93-0.12572-0.0466-0.26013-0.0783-0.3479-0.18502l-1.9514-2.047 3.8996 23.716c0.21427 1.2587 0.36449 2.4281 0.62304 3.6292 0.2206-0.76774 0.23957-1.575 0.3645-2.3617 0.45305-4.8523 0.71792-9.7197 1.0888-14.579 0.41352 0.86341 0.87052 1.7055 1.3078 2.5586 0.28306 0.51394 0.51077 1.0595 0.84759 1.5426l0.30283 0.0561 0.0277-6.508c0.0522-1.2366-0.0459-2.4748 0.0672-3.7082l0.0403-7.1959 2.41 4.8476c0.12255-0.16367 0.35896-0.30204 0.30915-0.53845l-0.74639-12.377c-0.0917-0.82862-0.0727-1.6675-0.10121-2.4993 0.19292 0.0712 0.28622 0.26171 0.39296 0.4238l2.9816 4.865c0.13915 0.2119 0.43407 0.15102 0.65071 0.15102 1.1196-0.10674 2.2091-0.42459 3.2686-0.79383 1.5853-0.57481 3.1619-1.3283 4.3344-2.572 0.83653 0.16288 1.658 0.44594 2.44 0.79067l-0.0142 8.2759c0.064 1.5505-0.12414 3.1405 0.32022 4.6507 0.33998 1.0816 1.2326 1.8462 2.0391 2.5886 1.4374 1.2587 2.9444 2.436 4.4522 3.6102 0.65309 0.52896 1.5505 0.44594 2.334 0.40087 0.93931-0.0712 1.7719-0.53845 2.6139-0.91797a35.144 35.144 0 0 0 2.3372-1.1892c1.0152-0.56058 1.885-1.3892 2.4803-2.3846 0.37715-0.61039 0.4657-1.3362 0.58589-2.0281a28.84 28.84 0 0 0 0.31705-4.4973c0.053-2.7152-0.4151-5.4034-0.67285-8.0988l-0.053-0.0838c-0.0182-0.53211-0.11702-1.0555-0.18818-1.5821-0.10674-0.70448-0.18185-1.4295-0.48863-2.081-0.2791-0.62147-0.71634-1.1591-1.2113-1.6217-1.3165-1.2168-2.7507-2.3254-4.3455-3.1524-0.67365-0.38584-1.454-0.0459-2.1119 0.20162-2.2961 0.97252-4.4175 2.3064-6.5111 3.6497-0.49259 0.29571-0.9069 0.75429-1.0492 1.3212-0.12097 0.47756-0.36608 0.91085-0.65071 1.3078-0.77407-0.0767-1.4722-0.43882-2.2131-0.64755l0.95354-11.33c0.0403-0.71793 0.2206-1.4857-0.0917-2.1688-0.33367-0.79857-0.92192-1.4477-1.4446-2.1229l-5.8652-7.078c-0.42775-0.0633-0.84759 0.0419-1.2421 0.19688l-3.9106 1.4058c-0.18502 0.064-0.38189 0.0846-0.57244 0.11228-0.19372-1.1322 0.0704-2.2732 0.0901-3.4086-1.8612-0.0229-3.7288 0.0862-5.5908-0.0142-1.3172-0.0822-2.6369-0.1012-3.9557-0.15497zm14.127 4.8531c0.17473-5e-3 0.34552 0.053 0.4997 0.14628 0.10674 0.19055 0.14469 0.40719 0.16604 0.62304 0.58746 3.1808 0.77169 6.4147 0.95038 9.639 0.053 0.74164-0.0127 1.4952 0.0901 2.2297a125.28 125.28 0 0 1 0.0277 4.6373c-0.34869 0.0633-0.70291 0.0253-1.0492-0.0229-1.0144-0.10121-2.0312 0.053-3.0267 0.23008-0.51156 0.0569-1.0176 0.15497-1.5292 0.20478-0.12018-4.4103-0.0522-8.8222-0.098-13.233v-3.0219c0-0.25222 0.0783-0.58984 0.37557-0.63411 1.1172-0.33762 2.2779-0.50761 3.4133-0.77486a0.74402 0.74402 0 0 1 0.17711-0.0253zm20.277 15.782c0.14864 0.53291 0.0127 1.0895-0.15655 1.5995-0.37478 0.82071-1.0413 1.4604-1.7616 1.9798-0.64281 0.49496-1.5133 0.55663-2.1119 1.1228a0.69104 0.69104 0 0 1-0.10911-0.41747c0-0.49259-0.0348-0.99229 0.0949-1.4722 1.2927-1.0136 2.6827-1.8952 4.045-2.8108zm-22.751 3.1864c0.37399 0.0182 0.75667-5e-3 1.1228 0.0949 1.0002 0.0806 1.9925 0.26013 2.965 0.51077l0.098 0.24353a5.9933 5.9933 0 0 0 0.019 0.28069c-0.37398 0.60565-0.82703 1.1552-1.2706 1.7086-0.42379 0.15497-0.64202-0.28702-0.90057-0.52184-0.69262-0.75983-1.3805-1.5252-2.0328-2.3167zm23.157 2.0036c0.30994 2.3072 0.61909 4.6159 0.79699 6.9373 0.0672 0.82229 0.0103 1.6509 0.0981 2.4708 0.0522 0.67681-0.0712 1.3481-0.0498 2.0249-0.0127 1.3133-0.13915 2.6242-0.29492 3.9272-0.10911 0.67839-0.16999 1.3813-0.44593 2.0202-0.63253 0.3637-1.2627 0.74007-1.9522 0.98437-0.16999 0.0759-0.3558 0.0846-0.53607 0.0704-0.48389-0.49654-1.0342-0.96065-1.3742-1.5734-0.22692-2.4811-0.43565-4.9717-0.52184-7.4647-0.10278-0.77643-0.0617-1.5639-0.0933-2.3451-0.13599-1.9593-0.0806-3.9272-0.098-5.8913a13.214 13.214 0 0 1 0.87448-0.36766c0.54002-0.25381 1.1022-0.45385 1.6351-0.72662 0.65072-0.0577 1.3062-0.0593 1.9608-0.0672zm-60.337-20.125c0.28227-0.0727 0.65151 8e-3 0.7796 0.29571 0.10674 1.4706 0.0633 2.9547 0.17552 4.423l0.0641 0.30756c0.1273-0.0119 0.26408-0.0111 0.36845-0.0988 0.75746-0.51947 1.5007-1.0603 2.2732-1.556 0.36766-0.22455 0.73848-0.46808 1.1599-0.58114 0.39296-0.0569 0.68156 0.2791 0.88001 0.57244 0.57245 0.84839 1.0065 1.7814 1.4438 2.7057 0.4918 1.1386 1.0682 2.2597 1.3465 3.4766 0.1439 0.46966-0.33999 0.74086-0.64993 0.97727-1.5576 1.0903-3.1619 2.119-4.8231 3.048-0.38268 0.24352-0.57402-0.34869-0.83336-0.5329a23.802 23.802 0 0 1 1.0065-1.1235c0.13678-0.12413 0.0482-0.3218 0.019-0.47519l-1.1647-3.8956-0.0451-0.27278c-0.36292-0.0917-0.73532-0.034-1.0658 0.13519l-0.12097 0.22929c-0.0767 2.0613 0.0103 4.1241-0.0103 6.1862l0.0111 7.6347c0.0862 0.70687 0.0364 1.4193 0.0482 2.1301l0.0482 5.5204c0.32496 0.80965 1.1148 1.2793 1.6153 1.949-0.45859 0.0237-0.9148-0.0253-1.3655-0.0941-0.67049-0.0111-1.3481-0.0617-2.013-0.0672-1.0793-0.10279-2.1743-0.0301-3.2433 0.11466-0.4831 0.0609-0.97569 9e-3 -1.4532 0.11069-0.62383 7.9e-4 -1.2888 0.11859-1.8739-0.15418-0.3052-0.13916-0.61276-0.27673-0.92745-0.39296l0.0617-0.14707c0.56454-0.32813 1.0532-0.76773 1.5236-1.2152 0.41352-0.41984 0.83652-0.88634 0.95275-1.4841 0.34552-1.6557 0.38584-3.3509 0.49417-5.0318l0.13757-14.708c-0.015-0.18503 0.0403-0.39296-0.0553-0.56058 0.15892-0.41748 0.034-0.90532 0.0727-1.3512a23.05 23.05 0 0 0-0.83178 0.26013l-0.37794 0.0127-0.1779-0.28385c0.18976-0.24669 0.44198-0.43012 0.67365-0.6357l4.9606-4.9037c0.23482-0.27594 0.56611-0.44198 0.91243-0.52659zm-49.27 1.0974c0.95433 0.0901 1.9063 0.26805 2.8717 0.24906 1.571 0.0799 3.1484 0.0933 4.7187-0.0277 1.2532-0.0482 2.5001-0.26566 3.7541-0.23483-0.0601 0.40166-0.45384 0.58984-0.64044 0.91876-0.5511 0.92666-0.99466 1.9292-1.2382 2.9808a17.981 17.981 0 0 0-0.14865 2.3309l0.0379 12.44c-0.0427 0.19292 0.16525 0.2712 0.31706 0.19925 2.391-0.59537 4.8673-0.7796 7.3247-0.70686 0.88397 0.0379 1.8043-0.0348 2.6558 0.23957l-0.0482 0.29018c-0.26724 0.098-0.54556 0.18897-0.76062 0.38189-0.67365 0.55742-1.2896 1.1836-1.9229 1.7861-0.15892 0.17394-0.42301 0.3471-0.34157 0.62146 0.24511 1.3702 0.30283 2.7665 0.57086 4.1336l1.6264 5.6999c0.20321 0 0.39217-0.0743 0.52975-0.22692 0.29571-0.30362 0.65151-0.54161 0.96699-0.82546 0.11701-1.2358 0.15971-2.4803 0.19213-3.7217 0.0838-0.8555 0.0538-1.7165 0.0806-2.5736 0.0332-4.51-0.0553-9.031-0.60012-13.512-0.24985 0.0593-0.50365 0.11623-0.73453 0.23009a29.238 29.238 0 0 0-3.4434 1.8193c-0.29808 0.17395-0.57561 0.41747-0.68472 0.75588-0.24985 0.78039-0.18027 1.6177-0.13678 2.4242l-0.54003 0.17395c-0.94168-1.5165-1.9174-3.0275-2.5839-4.691-0.19055-0.57008-0.48784-1.1496-0.37477-1.7671 0.45858-0.21902 0.83257-0.57008 1.2516-0.85155 1.673-1.1836 3.4362-2.2621 5.3354-3.0449 0.25776-0.0878 0.62067-0.26804 0.83336-3e-3 1.7584 1.7624 3.4608 3.5794 5.1457 5.4105 0.90768 1.0144 1.9023 2.0708 2.1751 3.4552 0.25776 1.6153 0.29571 3.2536 0.30283 4.8871-0.015 1.8684 0.0466 3.7406-0.0878 5.605l-0.053 4.3012c0.6436 0.29255 1.3908 0.32022 2.0692 0.13995-0.0292 0.20557-0.18897 0.34789-0.33208 0.4831l-2.8527 2.5301c-0.65546 0.54951-0.98122 1.3845-1.6343 1.9379-0.69579 0.61277-1.7395 0.66574-2.5886 0.39296-0.86973-0.45067-0.86736-1.541-0.93773-2.3894-1.1346 0.81597-2.2471 1.6644-3.3548 2.5151-0.52263 0.40403-1.2152 0.17474-1.7972 0.0633-0.42617-0.11781-0.96936-0.28464-1.0864-0.77169l-1.4714-4.4728c-0.53607-1.6746-1.1639-3.3255-1.5236-5.0508-0.15417-0.55347 0.12019-1.0959 0.39455-1.5584 0.74164-1.1955 1.8059-2.1348 2.814-3.0955-1.5695 0.29967-3.2038 0.54952-4.6048 1.3655l0.0229 11.579c0.0751 1.647-0.0103 3.2963 0.0522 4.944l0.0648 5.8225c0.11622 1.5141 0.35896 3.1619 1.4098 4.336 0.37794 0.46886 0.9915 0.62541 1.4121 1.0413a2.8859 2.8859 0 0 1-0.21664 0.50761c-0.18976 7.9e-4 -0.37794 0.0119-0.56612-0.0119-2.0842-0.33761-4.185-0.58114-6.2953-0.66574-1.9862-0.015-3.981-0.0901-5.9577 0.14865-0.0988-0.32497-0.42775-0.57877-0.40403-0.92983 1.1006-0.61593 2.1609-1.4722 2.595-2.7009 0.54952-1.5584 0.62147-3.2299 0.75746-4.861a117.22 117.22 0 0 0 0.0996-8.8713c-0.0751-1.9798-0.0577-3.9707-0.30757-5.9395-2.066 1.6177-4.623 2.4329-7.1508 2.9935l0.10516 12.33c0.0419 0.86262-0.0403 1.7324 0.0617 2.5918 0.25222 0.94248 1.1789 1.4264 1.9514 1.8905 0.1779 0.11781 0.46413 0.37161 0.30362 0.58667-0.3218 0.0403-0.61909-0.11623-0.92429-0.18185-0.98438-0.2119-1.9901-0.27673-2.9895-0.36608-3.3255-0.22297-6.6622-0.2791-9.9948-0.29808-0.1186-0.0364-0.44752-0.15102-0.20162-0.26013l0.0348-0.38347c1.1884-0.46887 2.3831-1.1512 3.0441-2.2882 0.40245-0.67839 0.41273-1.4872 0.48073-2.2494 0.0933-1.4975 0.0656-2.9974 0.12413-4.4973l-0.0727-6.2241c-1.5766-0.73057-3.1556-1.4604-4.6934-2.2708-1.0714-0.52896-1.8312-1.5007-2.4819-2.4716-0.54556-0.85867-1.0358-1.7584-1.4185-2.7041v-0.23009c1.7142-0.77801 3.6023-1.0468 5.4524-1.3006 0 0.18264 0.0538 0.42379-0.14074 0.52974-1.1528 0.68946-2.3696 1.2722-3.4932 2.0138 0.37715 0.44119 0.84759 0.78434 1.3172 1.1172 1.2998 0.89978 2.7072 1.6319 4.1296 2.3159 0.38901 0.17395 0.7709 0.40957 1.2097 0.41352 0.0704-0.72583 0.0253-1.4572 0.0332-2.1862-0.0498-1.492-0.0111-2.9895-0.12414-4.4791-0.0372-1.1243 0-2.2518-0.1012-3.3714l-0.39692-11.231c-0.2285-1.1733-1.2587-1.9743-2.3404-2.3388 0.019-0.22296 0.1526-0.44751 0.38347-0.49812 0.37952-0.0348 0.76141 6e-3 1.1417 0.0301 0.52104 0.0759 1.0468 0.0277 1.571 0.0387 0.78276-0.0103 1.5695 0.0364 2.3506-0.0522l3.5904-0.0577c1.0239-0.0799 2.051-0.0941 3.0781-0.0988l-0.10911 0.66099c-0.6357 0.32576-1.0389 0.97094-1.2081 1.6485-0.12413 0.7037-0.10674 1.4216-0.11623 2.134l0.0633 5.6098c0.0387 1.571 0.0127 3.1461 0.1186 4.714l0.0712 3.5968c0.0909 1.5276 0.0917 3.0607 0.20478 4.5898 0.73848-0.10199 1.4026-0.4736 2.0613-0.79857 1.7861-0.98596 3.5264-2.0794 5.1101-3.3698 0.0174-6.3585-0.15893-12.721-0.66258-19.057-0.0237-0.66258-0.55268-1.1386-1.1125-1.4066-0.31152-0.12571-0.40719-0.46017-0.37082-0.76853zm124.93-0.12967c0.34078-0.0648 0.4238 0.30283 0.41273 0.56454l0.0941 4.6641c0.0522 0.9148-0.0348 1.8415 0.098 2.7468 1.0864-0.0119 2.172 0.0372 3.2599 0.0332l0.0672 0.59379c0.0933 0.32497 0.0419 0.66891 0.13916 0.9915a22.169 22.169 0 0 1 0.0909 1.0579l-3.1334 0.0498c-0.1447-0.0103-0.28069 0.0308-0.40957 0.0822-0.19688 3.1563-0.0348 6.319-0.0996 9.4801l-0.26171 8.2016c-0.0917 0.40166-0.038 0.81834-0.0672 1.2271l-0.39375 9.3077c-0.0459 0.79067-0.21427 1.7015 0.30282 2.3799 0.8389 0.84838 1.8083 1.5631 2.8029 2.217-0.20558 0.23325-0.39376 0.49654-0.65151 0.67365-0.20162 7.9e-4 -0.37478-0.12729-0.55189-0.19687-2.0502-1.0176-4.121-1.9988-6.0976-3.1579-0.50286-0.29491-0.99545-0.64281-1.3125-1.1417-0.31152-0.45779-0.40086-1.0223-0.40482-1.5647l0.1953-8.7503c0.0973-2.8852 0.41589-5.7545 0.47361-8.6404 0.0569-2.9879 0.03-5.9917-0.27357-8.9622-0.0229-0.43408-0.0822-0.86341-0.17316-1.2888-1.5932 6e-3 -3.1856-0.0229-4.778-0.0229-0.0198-0.28068-0.0316-0.56058-0.0103-0.84128 1.9308-1.0769 3.7074-2.421 5.3734-3.8727a31.336 31.336 0 0 0 4.3993-4.8088c0.27674-0.36371 0.5424-0.74402 0.91085-1.0247zm-92.259 2.0708c0.25459-0.13995 0.49654-0.38506 0.80964-0.35659 0.4578 0.0751 0.86894 0.30282 1.3006 0.45779 0.24115 1.1014 0.23878 2.2542 0.41351 3.3682l0.0403 0.39296 0.15892 0.12019c0.59696-0.48073 1.2603-0.87053 1.9055-1.2825 0.59537-0.3732 1.2927-0.69895 2.013-0.58747 0.45542 0.10991 0.69895 0.55664 0.91796 0.92983 0.49179 0.99545 0.91638 2.0233 1.3244 3.0559 0.46175 1.1204 0.9567 2.2471 1.1797 3.4426-0.0269 0.37952-0.20557 0.73295-0.53844 0.93378-1.4683 0.95354-2.9705 1.8525-4.4752 2.7476-0.16762 0.0933-0.33049 0.22297-0.53291 0.20795a2.4289 2.4289 0 0 0-0.40165-0.51789c0.36449-0.35974 0.70132-0.74797 1.0405-1.1306l-0.0917-0.064c-0.0957-0.57877-0.28702-1.1362-0.43882-1.7031l-1.0745-3.7343c-0.0743-0.34552-0.48705-0.74877-0.81676-0.4325-0.0933 0.36291-0.034 0.74164-0.0308 1.1117l0.23799 7.6497c0.12888 0.88398 0.0103 1.7909 0.14706 2.6748 0.102 1.6556 0.32496 3.3018 0.41905 4.9583 0.22772 2.0178 0.21586 4.0656 0.53766 6.0755 0.20478 0.55979 0.79541 0.83257 1.2904 1.0888l0.12809 0.21822-0.0798 0.2625c-3.1255 0.0759-6.2542 0.0617-9.3828 0.0648-0.33208 0-0.66654 0.0174-0.99624-0.0379 0.17315-0.42855 0.47281-0.80965 0.87447-1.0437 0.40482-0.22772 0.8136-0.46887 1.1362-0.80648 0.11781-0.11702 0.16525-0.27674 0.15102-0.43882l-0.0103-9.541c0.0348-0.45068-0.0799-0.89424-0.0609-1.3457l-0.0538-7.1919c-0.12888-1.3995-0.0127-2.8156-0.2032-4.2111-1.1386-7.9e-4 -2.2874-0.0553-3.4196 0.0893-0.20004-0.0538-0.50366-0.17315-0.52342-0.40877zm102.18 1.0445c0.1526-0.30204 0.31706-0.62542 0.64281-0.77644l0.29255 0.16209c0.11623 0.94564 0.0941 1.9 0.14706 2.8488 0.0838 0.3645 0.0379 0.74165 0.064 1.1133l0.25775 5.5236c0.53212-0.0119 1.0674 0.0127 1.5995-0.034 0.37478 0.0719 0.74876-0.0372 1.1259-0.03a36.662 36.662 0 0 0 1.7656-0.0198c-0.0356 0.74006 0.015 1.4936-0.12888 2.2234-1.4185 0.0569-2.8385 0.12176-4.253 0.24827l0.015 5.001c0.0743 0.24985 0.0419 0.51314 0.0467 0.76931l0.0538 8.3052c0.10674 1.2674 0.0466 2.5436 0.0901 3.8165l0.1439 6.9468c0.0783 1.2556 0.0356 2.5191 0.16999 3.7715l3.5525 1.8731c0.3218 0.12729 0.6349 0.46807 0.99782 0.36054 0.80173-0.54398 1.5141-1.2081 2.2518-1.8336 0.18501-0.11623 0.0656-0.33683 0.0229-0.49575-1.2168-0.37478-2.4843-0.53687-3.7225-0.8136-0.43012-0.11781-1.0057-0.0838-1.2366-0.54161 0.80331-0.21664 1.6462-0.0933 2.4669-0.064l5.7149 0.3392c0.20083 0.0379 0.51552 0.0419 0.52501 0.32812 0.0451 0.3732-0.31864 0.54082-0.54003 0.76062-0.88397 0.80648-1.6683 1.711-2.5032 2.5657-0.50207 0.50761-0.83099 1.1805-1.4461 1.5695-0.21269 0.18185-0.51789 0.15576-0.76536 0.0822-2.0241-0.62542-4.034-1.3046-6.0051-2.0779-1.813-0.72504-3.6647-1.4532-5.2445-2.625-0.2119-0.20004-0.50365-0.39297-0.51947-0.7116-0.17394-2.9935-0.12887-5.9925-0.13362-8.9899l0.0743-3.4789c0.015-4.9875-0.11227-9.9735-0.21585-14.959a17.663 17.663 0 0 1-2.41-0.03c-0.34947-0.0127-0.52105-0.44515-0.38584-0.73137a2.4186 2.4186 0 0 1 0.37556-0.46175c1.5655-1.5821 3.0338-3.2686 4.2925-5.1101 1.0793-1.5205 1.9854-3.1563 2.8211-4.8223zm27.806 4.4594c0.31389-0.23562 0.65072 0.0672 0.70053 0.39296 0.18581 0.98596 0.17632 1.9964 0.34157 2.9848l3.4995-2.1135c0.25617-0.15576 0.46017-0.41984 0.77643-0.45779 0.21111-0.0387 0.50445-0.0277 0.62858 0.18264 0.52263 0.73058 0.96699 1.5165 1.4351 2.2819 0.72504 1.2698 1.4667 2.5372 1.9988 3.9011 0.18897 0.44594 0.21901 0.95039 0.12887 1.4224-0.33919 0.68788-1.0144 1.1038-1.5655 1.6051l-4.7938 3.7715c-0.15101-0.23088-0.35896-0.41273-0.55663-0.59775 0.4325-0.66574 0.94485-1.2785 1.3995-1.9292 0.0332-0.15102-0.0182-0.30204-0.0569-0.44595l-1.7395-5.5576c-0.41352 0.28703-0.82941 0.57562-1.2587 0.84127l0.27278 10.113c0.11781 1.1536 0.0482 2.3254 0.11465 3.4853 0.11464 0.99781 0.0213 2.0138 0.12967 3.014 0.0569 2.5531 0.19213 5.1022 0.3131 7.6521 0.1099 0.88159 0.77881 1.5576 1.5094 1.9941 0.92271 0.55189 1.9624 0.87843 3.0045 1.1188 0.18028 0.0482 0.36292 0.0799 0.54794 0.13204 0.43407 0.0569 0.86657 0.14707 1.3062 0.19055l-0.0253 0.74086c-0.9488 0.0538-1.8976-0.0111-2.8448 5e-3 -0.40878-0.0261-0.8215 0.0198-1.2208-0.0617a16.043 16.043 0 0 1-3.8173-0.44594 47.883 47.883 0 0 1-3.7074-0.99149c-1.541-0.45305-3.1548-0.79067-4.7669-0.59774-0.10674-0.24827-0.21823-0.49496-0.28701-0.75351 1.3473-0.1186 2.2811-1.2659 2.9871-2.3119 0.54873-1.1267 0.54794-2.4171 0.57245-3.6426 0.0372-3.5185-0.0466-7.0369-0.0696-10.555-0.0988-0.9235-0.034-1.8652-0.0727-2.795 0.0103-1.9411-0.13363-3.8751-0.0996-5.8177-0.55742-0.0308-1.1117 0.0759-1.6683 0.0538l-0.0269-0.40878c0.24274-0.36687 0.44989-0.76694 0.78672-1.0595zm-14.796 2.7246a3.8735 3.8735 0 0 0-0.88634 0.12018l-6.3759 5.0935c-0.23008 1.0769-0.25222 2.1909-0.39849 3.2797-0.0119 0.72267-0.29255 1.4121-0.28622 2.1348 0.12729 2.9516 0.0973 5.9055 0.13757 8.8594-0.0111 0.72266-0.24352 1.4177-0.27199 2.138 0.41985 0.43646 0.80648 0.90453 1.2232 1.3465 1.4944 1.5371 2.9935 3.0986 4.7661 4.3202 0.27595 0.21427 0.63412 0.25618 0.96778 0.31706 0.85234 0.0783 1.7134 0.1779 2.5697 0.0482 0.4151 0.0261 0.729-0.29016 0.95987-0.59773 0.77881-1.1449 1.6612-2.2154 2.5032-3.3129 0.4491-0.62936 1.0049-1.1923 1.3402-1.8944-0.73848-1.0658-1.2975-2.2771-2.1988-3.2148l-0.40956 0.0364c-0.0759 0.70053-0.24116 1.3852-0.39297 2.0731-0.43644 1.7893-0.91163 3.5857-1.7142 5.2516-0.0909 0.16683-0.18818 0.50366-0.43487 0.33683-1.2413-0.69737-2.1554-1.968-2.474-3.3524-0.19293-1.1528-0.12967-2.3277-0.22692-3.4892l-0.0593-4.37c-0.0103-0.18897 0.0166-0.39059-0.0783-0.56058 0.1099-0.17315 0.0648-0.37398 0.0229-0.55742 0.0522-0.79066-0.19055-1.6501 0.22218-2.387 1.1884-0.0127 2.3332 0.34078 3.4813 0.60565l2.0589 0.525c0.14469 0.0443 0.28859 0.0759 0.44119 0.11228l1.5007 0.38189c0.18107 0.0395 0.41985 0.0949 0.55268-0.0822 0.99782-0.92982 1.6122-2.1791 2.2392-3.3667-0.21586-0.74481-0.54477-1.4635-0.79937-2.1988l-1.1338-3.0156c-0.2372-0.57245-0.40403-1.1741-0.66258-1.7363-0.76141-0.48072-1.5813-0.87447-2.368-1.3188l-0.88633-0.45463c-0.7796-0.38506-1.5481-0.81755-2.387-1.0579-0.1779-0.0111-0.35817-0.0158-0.53844-0.0111zm-0.19688 1.9664c0.21111 5e-3 0.39454 0.11228 0.43803 0.36213l1.3244 3.3588 1.7055 4.253a6.0826 6.0826 0 0 0-0.0103 0.28623c-0.68472 0.0348-1.3663-0.0941-2.0423-0.16763-0.96935-0.0561-1.9332-0.19371-2.901-0.27515 0.0103-1.1449 0.12571-2.2826 0.16762-3.426 0.13916-1.3402 0.0356-2.757 0.61198-4.0095 0.11227-0.22929 0.42696-0.38821 0.69894-0.38189zm-83.615 0.32576c0.95038 0.18659 1.93 0.0633 2.8907 0.17473 0.86104 0.0174 1.7142 0.10991 2.5657 0.21823 0.47914 0.0174 0.96698 0.0395 1.4382-0.072l-0.0308 0.28385c-0.40719 0.66495-0.79778 1.3465-1.0919 2.07-1.0413 2.2494-2.2589 4.408-3.4663 6.5712-1.0864 1.9174-2.0518 3.8996-3.1216 5.8256-2.8211 5.069-5.8968 10.011-9.4208 14.622-1.9174 0.0372-3.8332-0.12809-5.7363-0.35501-1.8059-0.28227-3.6062-0.63807-5.3631-1.1528a29.497 29.497 0 0 1-1.7956-0.56449c-0.41352-0.14864-0.83257-0.28464-1.2398-0.45068-0.42617-0.16209-0.84127-0.34157-1.2587-0.52105-0.74481-0.32496-1.4706-0.68551-2.1822-1.0706-0.0498-0.41747 0.25776-0.78434 0.43645-1.1425 0.75192-1.1828 1.7482-2.1799 2.761-3.1374 1.4635 0.0988 2.9215 0.27357 4.3834 0.39454 0.36292 0.10517 0.79067-0.0459 1.1093 0.19214-0.0348 0.20795-0.25223 0.22692-0.40799 0.28464l-3.6165 0.98991c-0.2538 0.0466-0.28701 0.33999-0.38821 0.53291-0.19372 0.52975-0.45701 1.0579-0.47203 1.6319 0.86341 0.41272 1.8415 0.47281 2.7729 0.63806 3.0638 0.4151 6.1743 0.60486 9.2563 0.29176l3.4228-5.4564c0.3392-0.49575 0.61989-1.0318 0.99624-1.5007 0.17316-0.21585 0.0712-0.51788 0.0253-0.76141-0.78672-2.7721-1.6557-5.5196-2.5088-8.2712l-1.1164-3.4829-0.56375-1.6841c-0.20952-0.56849-0.37714-1.1552-0.64281-1.7023-0.32496-0.40166-0.88871-0.48468-1.3726-0.53449a1.2611 1.2611 0 0 1 0.21189-0.41352 24.749 24.749 0 0 0 1.1607-0.0387c1.2255-0.12097 2.4677-0.0577 3.6972-0.14311 1.5987 0.0229 3.1888-0.20162 4.7812-0.25381-0.30994 0.67049-1.2295 0.58984-1.6304 1.1734-0.20162 0.22613-0.22772 0.54556-0.14707 0.82862l1.9213 7.131c0.098 0.26725 0.12097 0.5851 0.35264 0.77881 1.1306-1.7679 2.1103-3.6276 3.1461-5.454l1.2216-2.3048c0.18581-0.37794 0.2032-0.80806 0.35106-1.1986a32.093 32.093 0 0 1 0.45068-1.3544l0.23482-0.58589c-0.77643-0.0743-1.4374-0.5416-2.0162-1.0286z" fill="#000"/>
	</g>
</svg>
