<?xml version="1.0" encoding="UTF-8" standalone="no"?>
<svg
   xmlns:dc="http://purl.org/dc/elements/1.1/"
   xmlns:cc="http://creativecommons.org/ns#"
   xmlns:rdf="http://www.w3.org/1999/02/22-rdf-syntax-ns#"
   xmlns:svg="http://www.w3.org/2000/svg"
   xmlns="http://www.w3.org/2000/svg"
   xmlns:sodipodi="http://sodipodi.sourceforge.net/DTD/sodipodi-0.dtd"
   xmlns:inkscape="http://www.inkscape.org/namespaces/inkscape"
   id="svg68"
   width="2531.9031pt"
   height="605.25pt"
   version="1.1"
   viewBox="0 0 2531.9031 605.25"
   sodipodi:docname="sky cinema premieren +24.svg"
   inkscape:version="0.92.4 5da689c313, 2019-01-14">
  <sodipodi:namedview
     pagecolor="#ffffff"
     bordercolor="#666666"
     borderopacity="1"
     objecttolerance="10"
     gridtolerance="10"
     guidetolerance="10"
     inkscape:pageopacity="0"
     inkscape:pageshadow="2"
     inkscape:window-width="1920"
     inkscape:window-height="1015"
     id="namedview33"
     showgrid="false"
     showguides="true"
     inkscape:guide-bbox="true"
     inkscape:zoom="0.30445465"
     inkscape:cx="729.53525"
     inkscape:cy="476.74953"
     inkscape:window-x="0"
     inkscape:window-y="0"
     inkscape:window-maximized="1"
     inkscape:current-layer="svg68"
     inkscape:pagecheckerboard="true"
     inkscape:snap-smooth-nodes="true"
     fit-margin-top="0"
     fit-margin-left="0"
     fit-margin-right="0"
     fit-margin-bottom="0">
    <sodipodi:guide
       position="549.88191,1.9620701"
       orientation="0,1"
       id="guide843"
       inkscape:locked="false" />
    <sodipodi:guide
       position="25.002,605.24918"
       orientation="0,1"
       id="guide971"
       inkscape:locked="false" />
    <sodipodi:guide
       position="9.9999998e-11,580.55518"
       orientation="1,0"
       id="guide973"
       inkscape:locked="false" />
  </sodipodi:namedview>
  <metadata
     id="metadata74">
    <rdf:RDF>
      <cc:Work
         rdf:about="">
        <dc:format>image/svg+xml</dc:format>
        <dc:type
           rdf:resource="http://purl.org/dc/dcmitype/StillImage" />
        <dc:title></dc:title>
      </cc:Work>
    </rdf:RDF>
  </metadata>
  <defs
     id="defs72">
    <linearGradient
       id="a"
       x1="1485.2"
       x2="1485.2"
       y1="73.199997"
       y2="189.10001"
       gradientUnits="userSpaceOnUse"
       gradientTransform="matrix(1.3790322,0,0,1.3790322,0.004,-0.5423)">
      <stop
         stop-color="#AE0019"
         offset="0"
         id="stop50" />
      <stop
         stop-color="#AA0016"
         offset=".3448"
         id="stop52" />
      <stop
         stop-color="#9D000C"
         offset=".7015"
         id="stop54" />
      <stop
         stop-color="#8D0000"
         offset="1"
         id="stop56" />
    </linearGradient>
    <linearGradient
       id="b"
       x1="1667.3"
       x2="1667.3"
       y1="55.5"
       y2="202.89999"
       gradientUnits="userSpaceOnUse"
       gradientTransform="matrix(1.3790322,0,0,1.3790322,0.004,-0.5423)">
      <stop
         stop-color="#AE0019"
         offset="0"
         id="stop39" />
      <stop
         stop-color="#AA0016"
         offset=".3448"
         id="stop41" />
      <stop
         stop-color="#9D000C"
         offset=".7015"
         id="stop43" />
      <stop
         stop-color="#8D0000"
         offset="1"
         id="stop45" />
    </linearGradient>
    <linearGradient
       id="c"
       x1="910.79999"
       x2="910.79999"
       y1="-3900.1001"
       y2="-4171.7998"
       gradientTransform="matrix(1.3790322,0,0,-1.3790322,0.004,-5378.7679)"
       gradientUnits="userSpaceOnUse">
      <stop
         stop-color="#AE0019"
         offset="0"
         id="stop6" />
      <stop
         stop-color="#AA0016"
         offset=".3448"
         id="stop8" />
      <stop
         stop-color="#9D000C"
         offset=".7015"
         id="stop10" />
      <stop
         stop-color="#8D0000"
         offset="1"
         id="stop12" />
    </linearGradient>
  </defs>
  <g
     transform="translate(810.2449,-288.39955)"
     id="g973"
     inkscape:label="Premieren"
     style="fill:#000007;fill-opacity:1">
    <path
       inkscape:label="n"
       inkscape:connector-curvature="0"
       d="m 825.94035,806.02353 c 6.2846,-8.3194 15.7677,-14.4013 26.1895,-15.7453 8.447,-0.9761 17.4421,-0.1651 24.898,4.2273 8.04912,4.6478 13.46272,13.0196 15.54252,21.9697 2.2751,8.492 1.6294,17.337 1.7119,26.0243 -0.01,13.8006 0.015,27.5935 -0.01,41.39402 -0.045,3.3789 -1.9972,7.1106 -5.47371,7.989 -5.55621,1.5243 -11.41271,0.5632 -17.02161,-0.1726 -0.06,-12.38892 -0.01,-24.77792 -0.023,-37.16682 -0.1501,-8.4546 0.353,-16.9316 -0.3603,-25.356 -0.6157,-6.6826 -3.484,-13.8306 -9.701,-17.1119 -11.4354,-6.2845 -26.7226,-1.5917 -34.1184,8.7549 -0.5556,0.8635 -1.3064,1.742 -1.2238,2.8307 -0.06,20.0626 0.015,40.1327 -0.038,60.19522 -0.045,3.4764 -2.0798,7.2607 -5.6763,8.1017 -5.51881,1.389 -11.29281,0.5105 -16.83401,-0.2628 -0.01,-33.05222 0.01,-66.09702 -0.01,-99.14912 5.5262,-1.5242 11.9159,-2.8908 17.21691,0.06 4.475,2.8082 4.8053,8.6648 4.9255,13.4177 z"
       id="path16-3-9-3-5"
       style="fill:#000007;fill-opacity:1;stroke-width:0.75084502" />
    <path
       inkscape:label="e"
       inkscape:connector-curvature="0"
       id="path16-1-3"
       d="m 699.77924,813.1358 c 6.96398,-12.04032 19.47058,-20.7265 33.24813,-22.8172 10.54374,-1.40634 21.80193,-0.32338 31.15744,5.06882 7.90404,4.30924 14.25135,11.2281 18.17705,19.2976 5.38467,10.76184 6.8963,23.33611 4.64767,35.12074 -23.85503,-0.008 -47.71006,-0.008 -71.55757,0 0.72949,5.98632 2.98564,12.00272 7.4077,16.24428 5.91863,5.98632 14.66497,8.12966 22.86232,8.02437 6.55787,0.18802 13.03303,-1.27096 19.16975,-3.51959 4.01595,-1.28601 8.56585,-3.06085 12.68709,-1.22584 5.4298,3.39174 5.65541,10.73927 4.67023,16.40221 -11.31083,4.81312 -23.44892,8.24247 -35.85023,7.889 -12.30354,0.36851 -24.9831,-2.77506 -34.91016,-10.26548 -9.72401,-7.2272 -15.94346,-18.50795 -18.10937,-30.32266 -2.48176,-13.48426 -0.75205,-28.03642 6.39995,-39.89625 m 24.40402,0.32338 c -5.55765,5.12146 -8.31015,12.58932 -8.97947,19.98197 17.19186,0 34.39125,0.008 51.59063,-0.008 -0.70693,-7.30241 -3.48951,-14.61986 -8.83659,-19.78644 -4.33933,-4.43709 -10.74679,-6.15929 -16.8008,-6.17433 -6.12168,-0.12785 -12.48403,1.69211 -16.97377,5.98632 z"
       style="fill:#000007;fill-opacity:1;stroke-width:0.75205004" />
    <path
       inkscape:label="r"
       inkscape:connector-curvature="0"
       id="path22-7"
       d="m 628.54096,792.4093 c 4.96353,-1.32361 10.32564,-2.51937 15.36438,-0.89494 2.86531,0.85733 4.97857,3.3391 5.89607,6.12921 1.40634,4.19643 0.75205,8.70121 0.93254,13.04054 2.96308,-6.73837 7.21216,-13.37145 13.90541,-16.92112 7.37761,-4.26413 16.32701,-3.87306 24.43411,-2.37648 1.15815,4.57998 1.94781,9.67136 0.0376,14.15358 -1.54922,3.72265 -5.79079,5.4674 -9.60368,5.33956 -6.95646,-0.0978 -14.492,0.23313 -20.30535,4.54238 -5.62534,3.76777 -7.83636,10.79192 -7.91157,17.28211 -0.0301,16.79328 -0.008,33.58655 -0.008,50.37231 0.0301,2.33888 -0.5866,4.72288 -2.07566,6.55788 -1.51914,2.01549 -4.15883,2.63217 -6.53531,2.89539 -4.72288,0.42115 -9.47583,-0.0978 -14.13102,-0.86486 -0.0301,-33.08268 -0.0301,-66.16536 0,-99.25556 z"
       style="fill:#000007;fill-opacity:1;stroke-width:0.75205004" />
    <path
       inkscape:label="e"
       inkscape:connector-curvature="0"
       id="path14-7-8"
       d="m 550.43304,791.05561 c 7.83636,-1.78236 16.10139,-1.71468 23.93775,0.0376 11.46877,2.74498 21.67408,10.34821 27.52503,20.60617 6.603,11.37852 8.75387,25.2012 6.2721,38.09886 -23.87759,0.008 -47.7627,-0.008 -71.64029,0.008 0.89494,6.6406 3.61736,13.32632 8.93436,17.62805 6.27962,5.25683 14.77026,6.92638 22.77207,6.63308 7.03919,0.11281 13.80012,-2.05309 20.36552,-4.34685 3.73769,-1.18072 8.55081,-2.23359 11.7019,0.79718 3.83545,3.89562 4.06107,10.21284 2.85027,15.14628 -11.371,5.25683 -23.92271,8.29512 -36.49699,7.95669 -13.4241,0.28578 -27.3295,-3.79785 -37.32425,-13.01798 -8.4756,-7.66339 -13.5745,-18.58316 -15.19141,-29.80375 -1.75227,-11.88239 -0.30834,-24.45666 5.38468,-35.1433 6.09161,-12.16065 17.65814,-21.44846 30.90926,-24.59955 m -5.18915,22.46373 c -5.52757,5.10642 -8.24247,12.55172 -8.90427,19.91429 17.20691,0.015 34.42133,0.008 51.63576,0.008 -0.76709,-6.82862 -3.16613,-13.63467 -7.85141,-18.76365 -4.26412,-4.90337 -10.88968,-7.15952 -17.25954,-7.20464 -6.33979,-0.22562 -12.95031,1.60939 -17.62054,6.04648 z"
       style="fill:#000007;fill-opacity:1;stroke-width:0.75205004" />
    <path
       id="path20-1"
       style="fill:#000007;fill-opacity:1;stroke-width:0.75205004"
       d="m 479.96595,791.14585 c 5.18162,-0.86485 10.4911,-0.23313 15.64264,0.60916 -0.015,30.45803 -0.008,60.90854 0,91.36657 0.18049,3.71512 -1.94029,7.78371 -5.71558,8.79146 -5.51253,1.4665 -11.31083,0.60164 -16.85344,-0.21057 0,-30.69869 0,-61.39737 -0.008,-92.09605 -0.15041,-4.03099 2.89539,-7.88901 6.9339,-8.46057 z m 0.45123,-43.10751 c 6.85117,-2.34639 15.10116,2.0155 16.5451,9.21262 1.96285,7.09935 -3.50455,14.99587 -10.81448,15.68024 -6.98655,1.1732 -14.18366,-4.5875 -14.42432,-11.7019 -0.60164,-5.7231 3.27142,-11.42364 8.6937,-13.19096 z"
       inkscape:connector-curvature="0"
       inkscape:label="i" />
    <path
       inkscape:label="m"
       inkscape:connector-curvature="0"
       id="path12-4-6"
       d="m 350.87655,790.31108 c 9.12237,-1.60187 19.10208,0.21809 26.44209,6.06904 4.3318,3.3015 7.2648,8.07702 9.19005,13.10823 5.37715,-9.00204 13.64218,-17.08657 24.28369,-19.08703 7.03919,-1.18072 14.51457,-0.84229 21.20781,1.81244 5.5727,2.22607 10.14516,6.58796 12.92775,11.86735 3.80537,6.87374 5.04625,14.83795 5.1741,22.59911 0.008,18.56811 -0.015,37.12871 0.015,55.68931 0.0301,2.77506 -0.53395,5.80582 -2.61713,7.79875 -1.87261,1.88013 -4.64767,2.27872 -7.17456,2.45921 -4.34685,0.19553 -8.70874,-0.21058 -12.98038,-0.97015 0.0226,-20.92203 -0.008,-41.84406 0.015,-62.76609 -0.0226,-5.65542 -1.42138,-11.85983 -5.9036,-15.68025 -4.51982,-3.94074 -11.00249,-4.55742 -16.66543,-3.31654 -5.99384,1.32361 -10.9348,5.6855 -14.08589,10.81448 -1.10552,1.51914 -0.72197,3.45943 -0.78214,5.21171 0.015,18.81629 0.0451,37.6401 -0.015,56.46392 0.12785,3.75273 -1.39881,8.21238 -5.33203,9.41566 -5.65542,1.66203 -11.68686,0.70693 -17.40244,-0.15041 0.0301,-20.67385 0.008,-41.35523 0.015,-62.02909 -0.0752,-5.70054 -1.23336,-11.94255 -5.58773,-15.98858 -4.1438,-3.99339 -10.35573,-4.8432 -15.8457,-4.01595 -6.43002,1.12808 -11.85983,5.60278 -15.31926,10.98745 -1.18823,1.53419 -0.81221,3.53464 -0.86485,5.33204 0.0451,19.04191 0,38.09133 0.0226,57.13324 0.17297,3.75273 -1.85757,8.00181 -5.76823,8.91932 -5.505,1.36873 -11.28075,0.51139 -16.80831,-0.2933 0.0376,-33.12029 -0.0376,-66.24057 0.0376,-99.35334 5.52005,-1.40633 11.83727,-2.84275 17.11666,0.0752 4.38445,2.6773 4.95601,8.37784 4.90336,13.0255 5.25683,-7.3024 12.82998,-13.33384 21.80193,-15.13124 z"
       style="fill:#000007;fill-opacity:1;stroke-width:0.75205004" />
    <path
       inkscape:label="e"
       inkscape:connector-curvature="0"
       id="path10-6-7"
       d="m 230.01459,790.93528 c 8.26503,-1.75228 16.99633,-1.59435 25.16359,0.60916 11.30332,3.21125 21.09501,11.16042 26.57745,21.55375 5.9788,11.1153 7.85141,24.31378 5.48997,36.70005 -23.88511,0.015 -47.77022,-0.015 -71.65533,0.015 0.8799,6.58796 3.57976,13.21352 8.82155,17.52276 6.21945,5.26435 14.65745,7.00159 22.62918,6.73837 7.10688,0.14289 13.94301,-2.01549 20.56857,-4.33933 3.70761,-1.15815 8.438,-2.25615 11.6267,0.66933 3.82041,3.58728 3.90314,9.3179 3.38422,14.16862 0.12033,1.21832 -1.2484,1.5041 -2.06814,1.93277 -10.6039,4.38445 -21.96738,7.34753 -33.51887,7.10687 -12.16065,0.40611 -24.70484,-2.51936 -34.65446,-9.73904 -9.47583,-6.81358 -15.86826,-17.3874 -18.37259,-28.71328 -3.0458,-13.84524 -1.6169,-28.99153 5.58773,-41.37027 6.37739,-11.40108 17.6431,-19.98197 30.42043,-22.8548 m -5.04626,21.98994 c -5.93367,5.10642 -8.88171,12.86758 -9.56607,20.51593 h 51.63575 c -0.737,-6.69325 -3.06836,-13.35641 -7.57314,-18.46283 -3.63992,-4.33181 -9.14493,-6.77597 -14.7101,-7.32497 -6.91886,-0.76709 -14.42432,0.59412 -19.78644,5.27187 z"
       style="fill:#000007;fill-opacity:1;stroke-width:0.75205004" />
    <path
       inkscape:label="r"
       inkscape:connector-curvature="0"
       id="path18-6-7"
       d="m 127.31463,792.37921 c 5.06882,-1.34616 10.58135,-2.5344 15.68777,-0.72948 3.82793,1.37625 5.89607,5.48996 6.21945,9.34046 0.18049,3.27894 -0.0376,6.5654 0.10529,9.85185 2.96308,-6.75341 7.21968,-13.30376 13.80012,-16.98881 7.42273,-4.35437 16.46989,-3.9633 24.64468,-2.47424 1.2108,4.79056 2.09822,10.1978 -0.27074,14.7853 -1.81996,3.45943 -5.9412,4.91089 -9.66384,4.72288 -7.07679,-0.14289 -14.80035,0.39106 -20.55353,5.00113 -4.95601,3.68505 -7.09183,10.00979 -7.23472,15.98858 -0.0526,17.0941 0.0301,34.1882 -0.0376,51.2823 0.0526,3.80537 -2.04557,8.05445 -6.04648,8.88923 -5.48996,1.25592 -11.20554,0.46627 -16.69551,-0.39859 0.0526,-33.0902 -0.0376,-66.1804 0.0451,-99.27061 z"
       style="fill:#000007;fill-opacity:1;stroke-width:0.75205004" />
    <path
       inkscape:label="P"
       inkscape:connector-curvature="0"
       id="path4-8-6"
       d="m 19.763955,759.58231 c 2.26367,-2.1283 5.595252,-2.27119 8.528247,-2.4592 11.002493,-0.0301 22.004985,-0.0301 33.007477,0 12.115527,0.21057 24.599558,2.95555 34.519098,10.21284 8.107103,5.88103 13.679793,14.93571 15.687763,24.71236 2.96308,13.7174 0.34594,29.08178 -8.90427,39.9489 -9.159971,10.91977 -23.546689,16.34957 -37.549861,16.84592 -8.212387,0.0526 -16.417253,-0.008 -24.629639,0.0226 0,11.4086 0.0075,22.82472 0,34.23332 0.127848,3.89562 -2.331356,7.97173 -6.264577,8.90428 -5.595253,1.33865 -11.431161,0.48883 -17.048975,-0.31586 -0.0075,-41.24995 0,-82.4999 0,-123.74984 0.06768,-2.933 0.624201,-6.10665 2.654737,-8.35528 M 40.42277,778.361 v 49.99629 c 7.21968,-0.0752 14.446881,0.20305 21.659041,-0.18049 7.227201,-0.48131 14.995879,-2.18095 20.192544,-7.60323 5.565171,-5.61781 7.212161,-14.07838 6.189372,-21.71168 -0.616681,-5.70054 -3.369184,-11.27323 -7.994292,-14.77779 -5.640375,-4.35437 -12.987904,-5.56517 -19.936847,-5.7231 -6.700766,-0.015 -13.401532,-0.008 -20.109818,0 z"
       style="fill:#000007;fill-opacity:1;stroke-width:0.75205004" />
  </g>
  <g
     id="g990"
     transform="translate(-0.004,7.9609265e-4)">
    <path
       style="fill:#ffffff;stroke-width:1.37903225"
       inkscape:connector-curvature="0"
       id="path4"
       d="M 675.86767,365.315 675.72977,8.9731 H 28.13626 c -12.9629,0 -18.75484,6.3435 -18.75484,18.6169 v 318.6943 c 0,12.1355 5.79194,18.7549 18.75484,18.7549 l 647.73141,0.2758"
       class="st0" />
    <path
       inkscape:connector-curvature="0"
       style="fill:url(#c);stroke-width:1.37903225"
       id="path15"
       d="M 624.29187,-0.4044 H 1887.7611 V 374.2787 H 624.29187 Z"
       class="st1" />
    <path
       style="fill:#ffffff;stroke-width:1.37903225"
       inkscape:connector-curvature="0"
       id="path17"
       d="m 715.03219,186.7303 c 0,-52.9548 39.16454,-90.3266 89.08545,-90.3266 34.75162,0 60.67747,14.204 60.67747,14.204 1.93065,12.5492 -2.75812,22.6162 -11.9976,22.6162 -11.72175,0 -21.09922,-11.446 -47.71455,-11.446 -32.95882,0 -60.95319,25.0984 -60.95319,65.504 0,39.8541 27.71852,65.642 60.95319,65.642 27.16695,0 36.8202,-11.446 48.12825,-11.446 9.10163,0 13.51455,9.5153 11.5839,22.6161 0,0 -26.33955,13.6524 -60.40162,13.6524 -48.54196,0.1379 -89.3613,-34.8895 -89.3613,-91.0161 z"
       class="st0" />
    <path
       style="fill:#ffffff;stroke-width:1.37903225"
       inkscape:connector-curvature="0"
       id="path19"
       d="m 904.64914,274.0231 c 20.40967,4.5508 28.82175,-0.9654 28.82175,-10.067 V 100.265 c -21.09923,-4.275 -28.82175,0.2758 -28.82175,9.3774 z M 937.88381,52.2747 c 0,10.3427 -8.27422,18.479 -18.47902,18.479 -10.3428,0 -18.47903,-8.2742 -18.47903,-18.479 0,-10.2049 8.27415,-18.4791 18.47903,-18.4791 10.2048,-0.1379 18.47902,8.1363 18.47902,18.4791"
       class="st0" />
    <path
       style="fill:#ffffff;stroke-width:1.37903225"
       inkscape:connector-curvature="0"
       id="path21"
       d="M 979.94426,274.0231 V 100.265 c 16.13468,-3.3097 28.40794,-2.2065 28.40794,9.3774 v 14.204 c 0,0 19.8582,-27.7185 58.3331,-27.7185 37.096,0 65.504,25.0984 65.504,71.8476 v 97.4976 c 0,12.1354 -15.8588,11.0322 -28.2701,8.55 V 171.6989 c 0,-28.6839 -16.4105,-50.3347 -43.5773,-50.3347 -32.1315,0 -51.9897,30.6145 -51.9897,30.6145 v 112.3911 c 0.1379,9.3774 -7.8604,13.7903 -28.40794,9.6533 z"
       class="st0" />
    <path
       style="fill:#ffffff;stroke-width:1.37903225"
       inkscape:connector-curvature="0"
       id="path23"
       d="m 1250.0966,121.5021 c 47.7145,0 51.4379,48.404 51.4379,53.5064 h -108.6677 c 0,0 6.8951,-53.5064 57.2298,-53.5064 z m 0.5516,-25.3742 c -52.1274,0 -87.4306,41.371 -87.4306,90.0508 0,53.0927 35.1654,91.2919 91.2919,91.2919 37.0961,0 64.125,-14.3419 64.125,-14.3419 2.0685,-14.0661 -2.7581,-22.6161 -11.0323,-22.6161 -9.5153,0 -24.133,11.0322 -51.5757,11.0322 -59.4363,0 -63.2977,-52.8169 -63.2977,-52.8169 h 135.6968 c 7.8605,-47.5766 -16.2726,-102.6 -77.7774,-102.6 z"
       class="st0" />
    <path
       style="fill:#ffffff;stroke-width:1.37903225"
       inkscape:connector-curvature="0"
       id="path25"
       d="M 1365.7974,273.7472 V 100.265 c 15.8588,-3.7234 27.8564,-2.4823 27.8564,10.0669 v 11.9976 c 0,0 17.6517,-26.2016 50.4726,-26.2016 23.4435,0 42.8879,14.3419 49.7832,31.8556 9.3774,-13.6524 25.7878,-31.8556 56.6782,-31.8556 34.4758,0 57.0918,25.65 57.0918,63.5734 v 104.5306 c 0,10.3428 -7.9984,13.2387 -28.6839,9.9291 V 161.494 c 0,-20.2717 -10.0668,-39.854 -35.1651,-39.854 -28.4082,0 -43.026,27.7185 -43.026,27.7185 v 115.425 c 0,7.9984 -5.7919,13.5146 -28.6837,9.1016 V 159.0118 c 0,-18.8928 -11.0324,-37.3718 -35.1654,-37.3718 -28.8219,0 -43.0259,28.4081 -43.0259,28.4081 v 114.7354 c 0,10.4807 -10.3427,13.1008 -28.1322,8.9637 z"
       class="st0" />
    <path
       style="fill:#ffffff;stroke-width:1.37903225"
       inkscape:connector-curvature="0"
       id="path27"
       d="m 1743.928,190.04 c 5.654,0 11.446,0.1379 17.7895,0.5516 v 33.2347 c 0,0 -20.2718,29.925 -57.2297,29.925 -20.8235,0 -36.5445,-12.5492 -36.5445,-29.925 0,-20.9613 22.3403,-33.9242 75.9847,-33.7863 z m -24.2709,-93.9121 c -36.2686,0 -67.2968,12.4113 -67.2968,12.4113 -2.2065,11.5839 1.1032,23.0298 10.6185,23.0298 8.9637,0 28.4081,-10.3427 55.9888,-10.3427 35.5791,0 42.8879,19.996 42.8879,39.4403 v 8.2742 c 0,0 -10.4807,-0.6895 -24.1331,-0.6895 -68.6757,0 -98.6007,22.0645 -98.6007,56.8161 0,24.1331 17.6515,52.8169 61.3669,52.8169 40.4056,0 61.5047,-27.1669 61.5047,-27.1669 v 12.6871 c 0,11.5839 9.1016,14.6177 28.4082,10.8944 V 157.4948 c -0.2757,-29.5113 -14.6178,-61.3669 -70.7444,-61.3669 z"
       class="st0" />
    <path
       style="opacity:0.94899998;fill:#a9a9a9;stroke-width:1.37903225;enable-background:new"
       inkscape:connector-curvature="0"
       id="path29"
       d="m 27.99836,365.0392 c -12.9629,0 -18.75484,-6.4815 -18.75484,-18.7549 V 27.7279 c 0,-12.4113 5.79194,-18.7548 18.75484,-18.7548 H 624.29187 V -0.4044 H 24.68868 C 10.89836,-0.4044 0.004,11.1795 0.004,24.2803 v 325.1758 c 0,13.6524 11.17016,25.0984 25.09839,25.0984 h 599.18948 v -9.3774 z"
       class="st2" />
    <path
       style="fill:#9d0009;stroke-width:1.37903225"
       inkscape:connector-curvature="0"
       id="path31"
       d="m 421.71204,332.7698 c 4.1371,2.2065 12.13549,4.6887 22.89194,4.6887 17.78952,0.4137 27.44274,-6.4814 34.6137,-22.4782 l 95.56693,-212.9226 c -4.13709,-2.2064 -12.68709,-4.275 -19.58225,-4.6887 -12.13549,-0.4137 -28.82177,2.2065 -39.30242,27.4428 L 484.87172,197.7626 423.9185,99.2997 c -4.1371,-1.2412 -13.51452,-2.7581 -20.54758,-2.7581 -21.375,0 -33.51049,7.8605 -45.78387,21.375 l -58.74678,64.4008 47.57661,74.6057 c 8.82581,13.6524 20.40968,20.5475 39.16452,20.5475 12.13549,0 22.47823,-2.758 27.16693,-5.1024 L 355.6564,186.1787 396.06205,143.5666 462.6693,247.9593 Z M 296.35801,252.2343 c 0,15.5831 -6.20564,24.6847 -36.82015,24.6847 -4.1371,0 -7.44677,-0.4137 -10.89436,-0.9653 V 68.1336 c 0,-15.8589 5.24033,-32.1315 36.26855,-32.1315 3.72339,0 7.86048,0.4137 11.58387,1.2411 z m -63.43548,-31.0282 c 0,29.3734 -19.03064,50.4726 -58.05725,55.0234 -27.99435,3.1718 -69.08951,-0.5516 -88.25805,-2.7581 -0.55161,-3.1717 -1.24113,-7.1709 -1.24113,-10.3427 0,-25.65 13.65242,-31.5798 26.89112,-31.5798 13.51451,0 34.61371,2.2064 50.47258,2.2064 17.3758,0 22.47822,-5.9298 22.47822,-11.5839 0,-7.4467 -6.89516,-10.3427 -20.54758,-13.1008 l -36.54435,-6.4814 C 97.50158,196.5214 81.3669,175.2843 81.3669,152.8061 c 0,-27.4427 19.30645,-50.3347 57.36774,-54.6097 28.82177,-3.1717 63.9871,0.4138 83.01774,2.7581 0.55161,3.3097 0.96532,6.4815 0.96532,9.929 0,25.65 -13.51452,30.8904 -26.61532,30.8904 -9.92904,0 -25.2363,-1.9307 -43.02581,-1.9307 -18.20323,0 -25.23628,5.1024 -25.23628,10.8944 0,6.2056 7.17096,8.9637 18.34112,10.8943 l 35.16532,6.4815 c 36.26855,7.033 51.5758,27.5806 51.5758,53.0927"
       class="st3" />
    <path
       style="opacity:0.2;fill:#ffffff;stroke-width:1.37903225;enable-background:new"
       inkscape:connector-curvature="0"
       id="path33"
       d="M 1887.4854,-0.4044 H 24.82658 C 11.17416,-0.4044 0.004,10.7658 0.004,24.694 v 226.2992 c 0,-19.996 15.85887,-36.6822 35.85484,-37.2338 L 1887.4854,141.2223 Z"
       class="st4" />
    <path
       style="fill:#ffffff;stroke-width:1.37903225"
       inkscape:connector-curvature="0"
       id="path35"
       d="m 2503.9127,365.1771 c 12.9629,0 18.7549,-6.3436 18.7549,-18.7549 V 27.7279 c 0,-12.1355 -5.792,-18.7548 -18.7549,-18.7548 l -616.0136,-0.1379 0.1379,356.3419 z"
       class="st0" />
    <path
       style="opacity:0.94899998;fill:#a9a9a9;stroke-width:1.37903225;enable-background:new"
       inkscape:connector-curvature="0"
       id="path37"
       d="m 2503.9127,8.9731 c 12.9629,0 18.7549,6.6193 18.7549,18.7548 v 318.6943 c 0,12.4113 -5.792,18.7549 -18.7549,18.7549 H 1888.037 v 9.3774 h 619.1854 c 13.7903,0 24.6847,-11.5839 24.6847,-24.6847 V 24.5561 c 0,-13.6524 -11.1702,-25.0984 -25.0984,-25.0984 h -619.0476 v 9.3775 z"
       class="st2" />
    <path
       inkscape:connector-curvature="0"
       style="fill:url(#b);stroke-width:1.37903225"
       id="path48"
       d="m 2285.1982,264.5077 c 0.2759,3.8613 -0.8274,7.9984 -3.8613,10.6186 -2.3443,2.0685 -5.3781,2.8959 -8.55,2.8959 h -123.5613 l -0.5515,-3.3096 c -0.2759,-0.8275 -0.2759,-2.3444 -0.5516,-3.8613 -0.2759,-1.7928 -0.2759,-3.5855 -0.2759,-5.3782 0,-2.896 0.5516,-5.9299 1.517,-8.55 1.2411,-3.5855 2.8959,-6.4815 5.654,-8.8259 l 64.8145,-59.1604 c 4.6887,-4.4129 9.5154,-8.8258 13.6524,-12.9629 3.8613,-3.8613 7.4468,-7.9984 10.6186,-12.4113 2.6201,-3.8613 4.9645,-7.9984 6.7572,-12.4113 1.517,-4.1371 2.3444,-8.55 2.3444,-12.9629 0,-11.1702 -3.5855,-19.5823 -10.3428,-26.0637 -6.7572,-6.4815 -17.1,-9.5154 -29.925,-9.5154 -5.9298,0 -11.5838,0.5517 -17.1,2.3444 -4.4128,1.5169 -8.8257,3.3097 -13.2387,5.3782 -3.8613,2.0686 -7.033,3.8613 -10.0669,5.3783 -8.8258,5.3782 -15.3072,3.5854 -19.1685,-2.3444 -2.3444,-3.5855 -3.5855,-7.7226 -3.8613,-11.8597 l -0.2759,-2.3443 1.7928,-1.517 c 3.5855,-2.6201 7.0331,-5.3782 10.8944,-7.4467 9.7911,-5.6541 20.4097,-9.7912 31.304,-12.1355 6.2057,-1.517 12.6871,-2.0686 19.1685,-2.0686 9.7912,0 19.1686,1.2412 28.6839,4.4129 7.9984,2.6202 15.3073,6.7573 21.9266,12.6871 5.9298,5.3783 10.6185,12.1355 13.9283,19.5823 3.3097,7.9984 4.9645,16.2726 4.9645,24.8226 0,6.7572 -1.2411,13.9282 -3.5855,20.4096 -2.3443,6.2057 -5.654,12.1355 -9.5153,17.7896 -4.1372,5.654 -8.55,11.1701 -13.6525,15.9967 -4.9645,4.9646 -10.3427,10.067 -15.7209,14.7557 l -50.3347,45.2322 h 94.6016 l 0.5516,3.3097 c 0.2759,1.2411 0.2759,2.3444 0.5516,4.1371 0.4137,1.7927 0.4137,3.5855 0.4137,5.3782 z m 164.9323,-50.3346 c 0,-1.517 -0.2758,-2.896 -0.5516,-4.4129 l -0.5516,-3.3097 H 2418.275 V 79.4416 h -26.6155 l -92.8089,125.9057 c -1.7927,2.3443 -2.8959,4.6887 -3.8613,7.7225 -0.5515,2.3444 -1.2411,4.9646 -0.8274,7.4468 0,1.7927 0.2759,3.5855 0.2759,4.9645 0.2758,1.517 0.2758,2.896 0.5515,3.8613 l 0.5517,3.3097 h 94.8774 v 44.6806 l 2.6202,0.8274 c 1.7927,0.5517 3.5854,0.8275 5.654,0.8275 2.0686,0 3.5855,0.2758 5.3782,0.2758 12.9629,0 14.4798,-7.9984 14.4798,-11.5839 v -35.4411 h 20.1339 c 2.896,0 5.9298,-1.2412 8.2742,-3.3097 2.6202,-2.6202 3.8613,-6.4814 3.5855,-10.0669 -0.4137,-1.3791 -0.4137,-2.896 -0.4137,-4.6887 z m -59.7121,-89.2234 v 81.9145 h -60.9532 z"
       class="st5" />
    <path
       inkscape:connector-curvature="0"
       style="fill:url(#a);stroke-width:1.37903225"
       id="path59"
       d="m 2046.4878,260.2327 c -1.9307,0 -3.7234,-0.1379 -5.2403,-0.2758 -1.9306,-0.2758 -3.3097,-0.6895 -4.5509,-1.1032 l -1.9305,-0.8274 v -67.4347 h -61.9185 l -0.4138,-2.4823 c -0.1379,-1.1032 -0.4137,-2.4822 -0.6895,-3.9991 -0.1378,-1.6549 -0.2758,-3.5855 -0.2758,-5.5162 0,-4.5508 1.1033,-7.5847 3.3097,-9.6532 2.0686,-1.9306 4.8266,-2.896 8.2742,-2.896 h 51.8516 v -55.1613 c 0,-2.8959 1.1032,-5.654 3.3097,-7.5846 2.2065,-2.0686 5.2403,-2.896 9.6532,-2.896 1.9306,0 3.7233,0.1379 5.2402,0.2758 1.6548,0.2758 3.3097,0.6895 4.5508,1.1032 l 2.0686,0.8275 v 63.4354 h 63.7113 l 0.4137,2.4823 c 0.138,1.1032 0.4138,2.4822 0.6895,3.9992 0.138,1.6548 0.2758,3.5855 0.2758,5.5161 0,4.5508 -1.1032,7.8605 -3.3096,9.7911 -2.0685,1.9307 -4.8266,2.896 -8.2742,2.896 h -53.6443 v 59.0226 c 0,3.1718 -1.1032,5.654 -3.3097,7.5847 -2.2064,1.9306 -5.5161,2.8959 -9.7912,2.8959 z"
       class="st6" />
  </g>
</svg>
