<?xml version="1.0" encoding="UTF-8"?>
<svg width="800" height="124.49" version="1.1" xmlns="http://www.w3.org/2000/svg">
	<defs>
		<linearGradient id="A" x1="1456.7" x2="1456.7" y2="500" gradientTransform="matrix(.24899 0 0 .24899 .01651 0)" gradientUnits="userSpaceOnUse">
			<stop stop-color="red" offset=".4"/>
			<stop stop-color="#d42321" offset="1"/>
		</linearGradient>
		<linearGradient id="B" x1="1459.5" x2="1450.8" y1="233.73" y2="-15.325" gradientTransform="matrix(.24899 0 0 .24899 .01651 0)" gradientUnits="userSpaceOnUse">
			<stop stop-color="#fff" offset="0"/>
			<stop stop-color="#fff" stop-opacity=".835" offset=".12"/>
			<stop stop-color="#fff" stop-opacity=".658" offset=".269"/>
			<stop stop-color="#fff" stop-opacity=".511" offset=".42"/>
			<stop stop-color="#fff" stop-opacity=".397" offset=".568"/>
			<stop stop-color="#fff" stop-opacity=".315" offset=".716"/>
			<stop stop-color="#fff" stop-opacity=".266" offset=".86"/>
			<stop stop-color="#fff" stop-opacity=".25" offset="1"/>
		</linearGradient>
		<linearGradient id="C" x1="361.92" x2="361.92" y1="28.806" y2="471.22" gradientTransform="matrix(.24899 0 0 .24899 .01651 0)" gradientUnits="userSpaceOnUse">
			<stop stop-color="#002a91" offset="0"/>
			<stop stop-color="#002672" offset=".8"/>
		</linearGradient>
		<linearGradient id="D" x1="365.45" x2="359.6" y1="263.25" y2="95.751" gradientTransform="matrix(.24899 0 0 .24899 .01651 0)" gradientUnits="userSpaceOnUse">
			<stop stop-color="#fff" offset="0"/>
			<stop stop-color="#fff" stop-opacity=".835" offset=".12"/>
			<stop stop-color="#fff" stop-opacity=".658" offset=".269"/>
			<stop stop-color="#fff" stop-opacity=".511" offset=".42"/>
			<stop stop-color="#fff" stop-opacity=".397" offset=".568"/>
			<stop stop-color="#fff" stop-opacity=".315" offset=".716"/>
			<stop stop-color="#fff" stop-opacity=".266" offset=".86"/>
			<stop stop-color="#fff" stop-opacity=".25" offset="1"/>
		</linearGradient>
	</defs>
	<path d="m518.22 0v124.49h273.49c4.5814 0 8.2911-3.7099 8.2911-8.291v-107.91c0-4.5829-3.685-8.2911-8.2911-8.2911" fill="#002a91"/>
	<path d="m791.71 2.4899c3.212 0 5.8012 2.6144 5.8012 5.8013v107.91c5e-3 3.2062-2.595 5.8067-5.8012 5.8013h-273.49v-119.51h273.49" fill="#fff"/>
	<path d="m595.83 58.237v26.243c0 1.9172-1.1204 3.1373-4.4568 3.1373-1.4192 0-3.0377-0.19919-3.8593-0.39838v-27.862c0-9.7351-4.7556-14.392-11.951-14.392-5.5772 0-11.653 3.8593-14.093 8.4156v31.099c0 1.9172-1.1204 3.1373-4.4568 3.1373-1.4192 0-3.0377-0.19919-3.8592-0.39838v-48.726c0.82164-0.19919 2.4401-0.39838 3.8592-0.39838 3.3364 0 4.4568 1.22 4.4568 3.1373v4.158c3.5356-4.3572 8.9135-7.7931 16.11-7.7931 9.9343 0 18.251 6.2744 18.251 20.641m56.121 7.6188h-37.697c1.1204 9.4115 7.594 14.69 17.23 14.69 4.158 0 7.3948-0.82164 10.433-1.8425 2.1413-0.69716 3.0377-1.0209 3.8592-1.0209 2.3156 0 3.8344 1.9172 3.436 6.374-4.3572 1.9421-11.03 4.0584-18.027 4.0584-15.188 0-25.422-10.233-25.422-25.422 0-14.591 10.831-25.123 24.102-25.123 14.989 0 22.384 11.653 22.384 23.405 0 1.4192-0.0996 3.1622-0.29878 4.8801m-37.672-6.4985h29.879c-0.29879-8.316-5.6768-14.79-14.292-14.79-7.4944 0-14.292 5.154-15.587 14.79m114.39-20.044-12.873 44.767c-0.82164 2.8385-2.9381 3.5356-5.9756 3.5356-1.718 0-3.436-0.29879-4.8552-0.69716l-12.275-39.415-11.553 36.576c-0.92123 2.8385-3.1372 3.5356-5.876 3.5356-1.718 0-3.6352-0.29879-5.0544-0.69716l-13.769-47.606c1.22-0.59756 3.436-1.22 5.2785-1.22 2.3156 0 3.5356 0.72206 4.158 2.9381l9.7352 37.373h0.0996l12.051-39.116c1.4192-0.82164 3.2368-1.22 5.1789-1.22 3.1373 0 4.8552 0.72204 5.7764 3.6352l11.155 36.676h0.0996l9.4116-37.373c0.62244-2.2409 1.8176-2.9381 4.158-2.9381 1.7927 0.0249 3.9091 0.62246 5.1291 1.2449m5.4527 45.464c-0.59756-4.2576 0.72205-6.4985 3.1373-6.4985 2.3156 0 7.9924 2.5397 15.91 2.5397 8.291 0 11.429-2.9381 11.429-6.7724 0-2.7389-1.1952-5.1789-8.7144-7.1956l-8.6148-2.3156c-9.5359-2.5397-13.271-7.2952-13.271-13.171 0-7.2952 5.7764-13.769 18.848-13.769 5.876 0 13.171 1.3196 17.628 3.0377 0.79673 4.158-0.52288 6.374-3.0377 6.374-2.2409 0-7.2952-2.1413-14.491-2.1413-7.6934 0-10.532 2.6393-10.532 6.0752 0 2.4401 1.1204 4.656 7.9923 6.5981l8.8139 2.4152c9.8348 2.7389 13.769 7.2952 13.769 13.769 0 7.5939-5.876 14.392-20.068 14.392-6.2494 0.0249-14.043-1.4939-18.799-3.3364" fill="#002a91"/>
	<path d="m207.18 0h311.04c4.5813 0 8.291 3.7098 8.291 8.2911v107.91c0 4.5813-3.7099 8.291-8.291 8.291h-311.04c-4.5813 0-8.291-3.7098-8.291-8.291v-107.91c0-4.5813 3.7099-8.2911 8.291-8.2911z" fill="url(#A)"/>
	<path d="m204.87 61.748 0.79672-0.0498 314.65-10.98c3.4609-0.0249 6.2246-2.8634 6.1997-6.2993v-36.127c0-4.5813-3.7099-8.2911-8.291-8.2911h-311.04c-4.5813 0-8.291 3.7098-8.291 8.2911v59.931c-0.0996-3.4111 2.5646-6.2993 5.9756-6.4736z" fill="url(#B)" opacity=".4"/>
	<path d="m124.39 115.56c2.6144 1.1453 5.4279 1.7678 8.2662 1.7678 6.4985 0.14939 10.059-2.3405 12.674-8.1666l34.882-77.657c-2.2658-1.0209-4.7307-1.5935-7.2205-1.6682-4.5066-0.0996-10.532 0.82164-14.342 9.9841l-11.279 26.592-22.16-36.003c-2.4401-0.64735-4.9548-0.99592-7.4695-1.0458-7.8428 0-12.2 2.8634-16.732 7.7931l-21.537 23.505 17.305 27.239c3.212 4.9548 7.4197 7.4944 14.267 7.4944 3.411 0.0498 6.7973-0.57266 9.9592-1.8674l-20.865-31.373 14.79-15.661 24.251 38.02zm-45.738-29.356c0 5.7266-2.2409 9.0131-13.445 9.0131-1.3445 0-2.6891-0.0996-4.0086-0.27389v-75.964c0-5.7764 1.967-11.802 13.246-11.802 1.4192 0 2.8385 0.14939 4.2078 0.42327zm-23.106-11.478c0 10.707-6.9965 18.475-21.189 20.019-10.283 1.0955-25.173-0.19919-32.244-0.99591-0.24899-1.22-0.39837-2.465-0.42327-3.7347 0-9.3119 5.0295-11.453 9.76-11.453 4.9299 0 12.674 0.87144 18.425 0.87144 6.3491 0 8.2662-2.1413 8.2662-4.2078 0-2.6642-2.5397-3.7845-7.4695-4.7307l-13.495-2.5895c-11.204-2.1413-17.18-9.8845-17.18-18.101 0-9.9841 7.0711-18.326 20.99-19.869 10.532-1.1453 23.355 0.14939 30.377 0.99591 0.24899 1.1702 0.37347 2.3654 0.37347 3.5854 0 9.3119-4.9299 11.329-9.6605 11.329-3.6351 0-9.287-0.67225-15.736-0.67225-6.5483 0-9.287 1.8176-9.287 4.0086 0 2.3405 2.5895 3.2866 6.6977 4.0086l12.873 2.3903c13.221 2.4152 18.923 9.9343 18.923 19.147z" fill="url(#C)"/>
	<path d="m180.24 31.497-12.773 28.434c-0.99595 2.0417-3.0626 3.3364-5.3283 3.3364l-11.653 0.39837c-1.2698 0.0747-2.3903 0.92124-2.8385 2.1164v-0.0249l11.005-25.945c3.8343-9.1625 9.8596-10.084 14.342-9.9841 2.5148 0.0747 4.9548 0.64736 7.2454 1.6682zm-33.464 33.987-21.562-35.058c-2.4401-0.64735-4.9548-0.99592-7.4695-1.0458-7.8428 0-12.2 2.8634-16.732 7.7931l-21.537 23.505 1.718 2.714c1.1204 1.6931 3.0626 2.6642 5.1042 2.5646l12.275-0.42327a6.1424 6.1424 0 0 1 5.4278 2.4401l-3.8592-5.8013 14.79-15.661 9.9343 15.562c1.22 1.5437 3.1124 2.4152 5.0793 2.3654l14.118-0.49797c1.0956 0 2.1413 0.59756 2.714 1.5437zm-72.329-58.287c-11.279 0-13.246 6.0254-13.246 11.802v52.038c0-2.3903 1.9172-4.3323 4.3074-4.407l8.7392-0.29879c2.4401 0 4.4319-1.9919 4.4319-4.4319v-54.278c-1.4192-0.29879-2.8136-0.44817-4.2327-0.42327zm-37.795 48.353-12.873-2.3903c-4.1082-0.72205-6.6977-1.6682-6.6977-4.0086 0-2.1911 2.7389-4.0086 9.287-4.0086 6.4487 0 12.101 0.67225 15.736 0.67225 4.7307 0 9.6605-2.0168 9.6605-11.329 0-1.1951-0.12449-2.4152-0.37347-3.5853-7.0213-0.87144-19.844-2.1413-30.377-0.99592-13.943 1.5437-21.015 9.9094-21.015 19.869 0.024899 5.3283 2.5397 10.358 6.7973 13.57 3.1373 1.9421 6.6728 3.212 10.333 3.6849 4.7805 0.64735 9.5858 0.89633 14.392 0.74694l15.363-0.54777c5.7515-0.19919 8.8886 4.7058 8.565 9.6356 0-0.0747 0-0.12449 0.0249-0.19919v-0.0498c0.0498-0.64736 0.0747-1.2947 0.0747-1.9421 0-9.1625-5.7017-16.682-18.898-19.122z" fill="url(#D)" opacity=".25"/>
	<path d="m222.7 89.459c-0.74693-5.1291 0.84656-7.818 3.7846-7.818 2.7887 0 9.6355 3.0626 19.172 3.0626 10.034 0 13.819-3.5604 13.819-8.1915 0-3.2866-1.469-6.2246-10.507-8.6894l-10.383-2.7887c-11.478-3.0626-16.01-8.8139-16.01-15.91 0-8.789 6.9715-16.632 22.733-16.632 7.0961 0 15.91 1.5935 21.264 3.6849 0.971 5.0046-0.62247 7.6935-3.66 7.6935-2.6891 0-8.789-2.5646-17.479-2.5646-9.287 0-12.723 3.1622-12.723 7.3201 0 2.9132 1.3445 5.627 9.6606 7.9425l10.632 2.9381c11.877 3.2866 16.632 8.789 16.632 16.608 0 9.1874-7.0961 17.354-24.202 17.354-7.5691 0.0249-17.006-1.8176-22.733-4.0086m117.32-26.517c0 19.172-13.445 30.551-28.235 30.551-8.789 0-16.01-4.158-20.293-10.009v24.7c0 2.3156-1.3445 3.7845-5.2535 3.7845-1.967 0-3.7845-0.24898-4.7556-0.47306v-77.882c0.97103-0.24899 2.7887-0.49797 4.7556-0.49797 3.909 0 5.2535 1.469 5.2535 3.7845v5.6021c4.2825-5.8511 11.503-10.009 20.293-10.009 14.79 0 28.235 11.379 28.235 30.451m-10.134 0c0-12.823-8.54-21.637-20.044-21.637-7.818 0-15.039 4.5315-18.326 11.13v21.139c3.2866 6.5981 10.507 11.13 18.326 11.13 11.478-0.0249 20.044-8.8139 20.044-21.762m19.521 0c0-17.479 12.823-30.426 30.053-30.426 17.354 0 30.177 12.947 30.177 30.426 0 17.354-12.823 30.551-30.177 30.551-17.23-0.0249-30.053-13.221-30.053-30.551m50.095 0c0-13.445-9.063-21.637-20.044-21.637-10.856 0-19.919 8.1915-19.919 21.637 0 13.321 9.063 21.737 19.919 21.737 10.98 0 20.044-8.4156 20.044-21.737m58.586-24.949c0 4.0335-1.6931 4.8801-5.8759 4.8801-8.4156 0-15.512 3.909-19.919 13.072v33.14c0 2.4401-1.3445 3.7845-5.3781 3.7845-1.718 0-3.685-0.24899-4.656-0.47307v-58.81c0.97103-0.24899 2.9132-0.47307 4.656-0.47307 4.0086 0 5.3781 1.469 5.3781 3.7845v8.1915c5.7266-8.6894 14.416-13.072 25.297-11.603 0.12449 0.84654 0.49794 2.6891 0.49794 4.5066m43.945 51.465c-5.1291 2.4401-11.005 4.0335-16.857 4.0335-11.603 0-18.575-6.8471-18.575-18.201v-50.469c0-2.5646 1.469-4.2825 5.3781-4.2825 1.6931 0 3.6601 0.34857 4.656 0.62245v12.698h22.832c0.1245 0.84654 0.37348 2.5646 0.37348 4.0335 0 3.5356-1.469 4.7556-3.6601 4.7556h-19.546v31.92c0 6.8222 3.1622 10.134 9.6356 10.134 5.876 0 9.1625-2.5646 11.976-2.5646 2.9381-0.0249 4.407 2.4152 3.7845 7.3201" fill="#fff"/>
</svg>
