<?xml version="1.0" encoding="UTF-8"?>
<svg width="800" height="151.1" version="1.1" xmlns="http://www.w3.org/2000/svg">
	<defs>
		<linearGradient id="A" x1="1456.7" x2="1456.7" y2="500" gradientTransform="matrix(.30218 0 0 .30218 .00333 .00192)" gradientUnits="userSpaceOnUse">
			<stop stop-color="red" offset=".4"/>
			<stop stop-color="#d42321" offset="1"/>
		</linearGradient>
		<linearGradient id="B" x1="1459.5" x2="1450.8" y1="233.73" y2="-15.325" gradientTransform="matrix(.30218 0 0 .30218 .00333 .00192)" gradientUnits="userSpaceOnUse">
			<stop stop-color="#fff" offset="0"/>
			<stop stop-color="#fff" stop-opacity=".835" offset=".12"/>
			<stop stop-color="#fff" stop-opacity=".658" offset=".269"/>
			<stop stop-color="#fff" stop-opacity=".511" offset=".42"/>
			<stop stop-color="#fff" stop-opacity=".397" offset=".568"/>
			<stop stop-color="#fff" stop-opacity=".315" offset=".716"/>
			<stop stop-color="#fff" stop-opacity=".266" offset=".86"/>
			<stop stop-color="#fff" stop-opacity=".25" offset="1"/>
		</linearGradient>
		<linearGradient id="C" x1="361.92" x2="361.92" y1="28.806" y2="471.22" gradientTransform="matrix(.30218 0 0 .30218 .00333 .00192)" gradientUnits="userSpaceOnUse">
			<stop stop-color="#002a91" offset="0"/>
			<stop stop-color="#002672" offset=".8"/>
		</linearGradient>
		<linearGradient id="D" x1="365.45" x2="359.6" y1="263.25" y2="95.751" gradientTransform="matrix(.30218 0 0 .30218 .00333 .00192)" gradientUnits="userSpaceOnUse">
			<stop stop-color="#fff" offset="0"/>
			<stop stop-color="#fff" stop-opacity=".835" offset=".12"/>
			<stop stop-color="#fff" stop-opacity=".658" offset=".269"/>
			<stop stop-color="#fff" stop-opacity=".511" offset=".42"/>
			<stop stop-color="#fff" stop-opacity=".397" offset=".568"/>
			<stop stop-color="#fff" stop-opacity=".315" offset=".716"/>
			<stop stop-color="#fff" stop-opacity=".266" offset=".86"/>
			<stop stop-color="#fff" stop-opacity=".25" offset="1"/>
		</linearGradient>
	</defs>
	<g>
		<path d="m456.91 0.00192v151.1h333.03c5.5601 0 10.063-4.5025 10.063-10.063v-130.97c0-5.563-4.4723-10.063-10.063-10.063" fill="#002a91"/>
		<path d="m789.94 3.0236c3.8982 0 7.0408 3.1729 7.0408 7.0408v130.97c7e-3 3.8913-3.1495 7.0475-7.0408 7.0408h-333.03v-145.05h333.03" fill="#fff"/>
		<path d="m251.45 0.00192h377.49c5.5601 0 10.063 4.5025 10.063 10.063v130.97c0 5.5601-4.5025 10.063-10.063 10.063h-377.49c-5.5601 0-10.063-4.5025-10.063-10.063v-130.97c0-5.5601 4.5025-10.063 10.063-10.063z" fill="url(#A)"/>
		<path d="m248.63 74.941 0.96696-0.06044 381.87-13.326c4.2003-0.03022 7.5545-3.4751 7.5243-7.6452v-43.847c0-5.5601-4.5025-10.063-10.063-10.063h-377.49c-5.5601 0-10.063 4.5025-10.063 10.063v72.735c-0.12086-4.1399 3.1125-7.6452 7.2524-7.8567z" fill="url(#B)" opacity=".4"/>
		<path d="m150.97 140.24c3.1729 1.39 6.5876 2.1455 10.032 2.1455 7.8869 0.18131 12.208-2.8405 15.381-9.9116l42.336-94.248c-2.7498-1.2389-5.7414-1.934-8.7633-2.0246-5.4695-0.12087-12.782 0.9972-17.406 12.117l-13.689 32.273-26.894-43.695c-2.9614-0.78566-6.0134-1.2087-9.0654-1.2692-9.5186 0-14.807 3.4751-20.307 9.4582l-26.139 28.526 21.002 33.059c3.8981 6.0134 9.005 9.0956 17.315 9.0956 4.1399 0.0604 8.2496-0.695 12.087-2.2664l-25.323-38.075 17.95-19.007 29.432 46.143zm-55.511-35.627c0 6.9502-2.7196 10.939-16.318 10.939-1.6318 0-3.2636-0.12085-4.8651-0.33238v-92.196c0-7.0106 2.3872-14.323 16.076-14.323 1.7224 0 3.4449 0.18131 5.1069 0.51371zm-28.042-13.931c0 12.994-8.4913 22.422-25.716 24.295-12.48 1.3296-30.551-0.24175-39.133-1.2087-0.30218-1.4807-0.48349-2.9916-0.51371-4.5327 0-11.302 6.1041-13.9 11.846-13.9 5.9832 0 15.381 1.0576 22.361 1.0576 7.7056 0 10.032-2.5988 10.032-5.1069 0-3.2333-3.0823-4.5932-9.0654-5.7414l-16.378-3.1427c-13.598-2.5988-20.851-11.997-20.851-21.969 0-12.117 8.582-22.241 25.474-24.114 12.782-1.39 28.345 0.18131 36.866 1.2087 0.30218 1.4203 0.45327 2.8707 0.45327 4.3514 0 11.302-5.9832 13.749-11.725 13.749-4.4118 0-11.271-0.81589-19.098-0.81589-7.9474 0-11.271 2.2059-11.271 4.8651 0 2.8405 3.1427 3.9888 8.1287 4.8651l15.623 2.9009c16.046 2.9312 22.966 12.057 22.966 23.238z" fill="url(#C)"/>
		<path d="m218.75 38.226-15.502 34.509c-1.2087 2.4779-3.7168 4.0492-6.4667 4.0492l-14.142 0.48349c-1.5411 0.09065-2.9009 1.1181-3.4449 2.5685v-0.03022l13.356-31.487c4.6536-11.12 11.966-12.238 17.406-12.117 3.052 0.09065 6.0134 0.78567 8.7934 2.0246zm-40.613 41.248-26.169-42.547c-2.9614-0.78567-6.0134-1.2087-9.0654-1.2692-9.5186 0-14.807 3.4751-20.307 9.4582l-26.139 28.526 2.0851 3.2938c1.3598 2.0548 3.7168 3.2333 6.1947 3.1125l14.898-0.51371a7.4548 7.4548 0 0 1 6.5876 2.9614l-4.6838-7.0408 17.95-19.007 12.057 18.886c1.4807 1.8735 3.7773 2.9312 6.1645 2.8707l17.134-0.60436c1.3296 0 2.5988 0.72524 3.2938 1.8735zm-87.784-70.741c-13.689 0-16.076 7.3128-16.076 14.323v63.156c0-2.9009 2.3268-5.258 5.2277-5.3486l10.607-0.36262c2.9614 0 5.3788-2.4175 5.3788-5.3788v-65.876c-1.7224-0.36262-3.4147-0.54393-5.1371-0.51371zm-45.871 58.684-15.623-2.9009c-4.986-0.87632-8.1287-2.0246-8.1287-4.8651 0-2.6592 3.324-4.8651 11.271-4.8651 7.8265 0 14.686 0.81588 19.098 0.81588 5.7414 0 11.725-2.4477 11.725-13.749 0-1.4505-0.15109-2.9312-0.45327-4.3514-8.5215-1.0576-24.084-2.5988-36.866-1.2087-16.922 1.8735-25.504 12.027-25.504 24.114 0.030218 6.4667 3.0823 12.571 8.2496 16.469 3.8075 2.357 8.0985 3.8981 12.541 4.4723 5.8019 0.78567 11.634 1.0879 17.466 0.90654l18.645-0.6648c6.9804-0.24174 10.788 5.7112 10.395 11.694 0-0.09065 0-0.15109 0.03022-0.24174v-0.06044c0.06044-0.78567 0.09065-1.5713 0.09065-2.357 0-11.12-6.92-20.246-22.936-23.208z" fill="url(#D)" opacity=".25"/>
		<path d="m270.27 108.57c-0.90652-6.2249 1.0274-9.4882 4.5932-9.4882 3.3844 0 11.694 3.7168 23.268 3.7168 12.178 0 16.771-4.3212 16.771-9.9415 0-3.9888-1.7829-7.5545-12.752-10.546l-12.601-3.3844c-13.931-3.7168-19.43-10.697-19.43-19.309 0-10.667 8.4611-20.186 27.589-20.186 8.6122 0 19.309 1.934 25.806 4.4723 1.1785 6.0738-0.75545 9.3374-4.4421 9.3374-3.2636 0-10.667-3.1125-21.213-3.1125-11.271 0-15.441 3.8377-15.441 8.8841 0 3.5355 1.6318 6.8293 11.725 9.6394l12.903 3.5657c14.414 3.9888 20.186 10.667 20.186 20.156 0 11.15-8.6122 21.062-29.372 21.062-9.1862 0.0302-20.639-2.2059-27.589-4.8651m142.39-32.182c0 23.268-16.318 37.078-34.267 37.078-10.667 0-19.43-5.0464-24.628-12.148v29.976c0 2.8103-1.6318 4.5932-6.376 4.5932-2.3872 0-4.5932-0.30218-5.7717-0.57415v-94.52c1.1785-0.30218 3.3844-0.60436 5.7717-0.60436 4.7442 0 6.376 1.7829 6.376 4.5932v6.7991c5.1975-7.1013 13.961-12.148 24.628-12.148 17.95 0 34.267 13.81 34.267 36.957m-12.299 0c0-15.562-10.365-26.26-24.326-26.26-9.4884 0-18.252 5.4997-22.241 13.508v25.655c3.9888 8.0078 12.752 13.508 22.241 13.508 13.931-0.0302 24.326-10.697 24.326-26.411m23.691 0c0-21.213 15.562-36.927 36.473-36.927 21.062 0 36.624 15.713 36.624 36.927 0 21.062-15.562 37.078-36.624 37.078-20.911-0.0302-36.473-16.046-36.473-37.078m60.799 0c0-16.318-10.999-26.26-24.326-26.26-13.175 0-24.175 9.9415-24.175 26.26 0 16.167 10.999 26.38 24.175 26.38 13.326 0 24.326-10.214 24.326-26.38m71.103-30.279c0 4.8953-2.0548 5.9228-7.1315 5.9228-10.214 0-18.826 4.7442-24.175 15.865v40.22c0 2.9614-1.6318 4.5932-6.5271 4.5932-2.085 0-4.4723-0.30219-5.6508-0.57415v-71.375c1.1785-0.30218 3.5355-0.57414 5.6508-0.57414 4.8651 0 6.5271 1.7829 6.5271 4.5932v9.9415c6.9502-10.546 17.496-15.865 30.702-14.082 0.15109 1.0274 0.60435 3.2636 0.60435 5.4695m53.335 62.461c-6.2249 2.9614-13.356 4.8953-20.458 4.8953-14.082 0-22.543-8.31-22.543-22.089v-61.252c0-3.1125 1.7829-5.1975 6.5271-5.1975 2.0548 0 4.4421 0.42305 5.6508 0.75545v15.411h27.71c0.15109 1.0274 0.45326 3.1125 0.45326 4.8953 0 4.291-1.7829 5.7717-4.4421 5.7717h-23.721v38.74c0 8.2798 3.8377 12.299 11.694 12.299 7.1315 0 11.12-3.1125 14.535-3.1125 3.5657-0.03022 5.3486 2.9312 4.5932 8.8841" fill="#fff"/>
		<path d="m732.68 13.999c-3.6974 4.1176-6.9642 7.6679-10.651 11.523-2.4159-3.981-4.6953-7.5313-7.2478-11.512-1.5547 4.5377-2.9832 8.5187-4.4012 12.783-4.2541-2.9831-8.2351-5.6827-12.783-8.8129 0.71426 4.1281 1.2815 7.8151 1.8487 11.796-2.9832-1.8487-5.5461-3.5504-8.5292-5.3991 2.1323 4.6953 4.1174 8.5293 5.9662 12.647 13.067-6.9537 26.701-8.5188 40.913-4.9685 0.99786-4.2646 1.9959-8.5291 2.8468-12.647l-0.43084-0.43082c-2.1323 2.2689-4.1175 4.4013-6.5334 7.1009-0.43067-4.1281-0.71421-7.815-0.99783-12.08zm-7.3292 19.367c-0.43613-3e-3 -0.88487 0.02167-1.3471 0.07549-3.8445 0.43067-7.815 0.43058-11.512 1.2814-4.2646 0.98738-8.2458 2.5525-12.363 3.834 0.14707 0.28361 0.1471 0.43075 0.1471 0.71436 2.5525 1.1449 4.6849 2.4158 5.9664 5.546-1.1449-0.56722-1.9959-0.8507-2.8467-1.1343-4.4117-1.2815-7.6784 0.56714-8.5292 5.1154-0.14708 1.1449-0.14708 2.416 0 3.6975 0.28356 1.7016 0.70381 3.2667 1.1345 4.8319-4.6848-3.2668-4.9684-7.8151-3.834-13.214-6.9536 5.2625-12.069 11.365-15.767 18.897 1.8382 0.28361 3.4033 0.56722 5.252 0.99788-5.8192 7.9515-9.5164 16.334-10.651 26.281 3.1302-0.85082 5.8296-1.7015 8.8126-2.5523-1.418 11.365-1.418 22.163 3.4138 32.678 6.1028-4.8319 10.651-10.662 14.916-16.911 0.2836 0.56721 0.56732 0.7037 0.56732 0.85075 0.14701 0.42016 0.28351 0.98738 0.43058 1.418 2.1323 8.2456 1.4181 16.334-0.28354 24.579-0.28357 1.8487 0.14701 2.8362 1.8487 3.5504 8.0986 3.6869 16.481 4.254 25.01 1.7016 4.6953-1.418 9.0966-3.6974 13.928-5.6826 0.42019 1.7122 0.98729 3.6973 1.7016 6.1132 5.3991-3.5504 9.6636-7.9515 12.773-13.351 3.2667-5.2625 4.9685-11.082 5.9664-17.762 1.5651 1.5546 2.8466 2.8361 4.2646 4.4012 5.8298-17.468 2.8466-33.098-7.3844-47.594h-0.43064c-0.28363 0.56722-0.43054 0.98742-0.71417 1.9853-1.2815-1.5651-2.5631-2.6996-3.6975-3.9811 1.4285-1.8382 1.5652-3.2667 0.14707-4.6848-1.9958-1.9958-2.8466 0.8509-4.2646 1.1345-1.2815-0.70377-2.416-1.271-3.5505-1.9853-0.1365 0.28361-0.42016 0.56718-0.5672 0.85078 3.1302 3.2668 6.2499 6.3865 9.3802 9.8-2.4159-0.14706-4.5482-0.57768-6.6805-0.43063-2.1323 0-4.2646 0.56722-6.3969 0.99788-1.5652-1.7016-3.1302-3.5504-4.8319-5.252-2.8362-2.8466-2.8362-2.8466-1.1346-6.397 0 0-0.13643-0.13659-0.28353-0.56726-1.2814 0.70377-2.5524 1.271-3.834 1.9853-7.962-4.2646-11.649-4.1175-15.63 0.56726 2.8361 2.2794 6.25 3.1302 9.8004 2.8466 2.5629-0.28361 4.6952 0.43066 6.3969 2.4159 1.5546 1.7017 3.2667 3.2668 4.6848 4.8318-5.1155 0-10.094 0.14706-15.063 0-4.1176-0.13655-7.3844-1.9852-9.233-5.6826-1.1344-2.1323-1.5546-4.5483-5.252-3.9811 2.1219-3.1302 4.8215-4.5484 7.9517-6.1135-1.1344-0.85082-1.8383-1.2814-2.5526-1.8487 4.2646-3.5504 8.9598-5.3991 13.928-6.2499 1.2815-0.2836 2.8466 3.9e-5 3.9811 0.56726 2.9831 1.5651 5.8297 3.4139 9.0964 5.3991 0.56718-1.7017 0.98741-3.2668 1.7018-5.3991 4.5482 3.1197 8.8128 6.1028 12.93 8.9494-0.85078-2.6995-1.5651-5.6826-2.4159-8.5292-0.14703-0.70377-0.99786-1.2709-1.5651-1.7016-3.5504-2.9831-7.8149-4.6849-12.216-5.9664-0.43067-0.14706-0.85097-0.1471-1.2816-0.1471 0.28357 1.5651 0.5671 2.8466 0.85076 4.2646-0.13655 0.13655-0.42003 0.13666-0.56707 0.28372-0.99787-0.85083-1.8489-1.7017-2.6997-2.5526-2.1139-2.3621-4.5494-3.751-7.6023-3.7728zm13.918 36.789c0.78682 0.01478 1.6119 0.31023 2.3604 0.52294 0.70375 0.13655 1.271 0.70364 1.9853 1.1343 0.99783 0.70377 2.8362 1.1345 2.9832 1.9853 0.4307 1.9853 0.14711 4.1176 0.14711 6.2499 0 0.28361-0.28356 0.5673-0.43063 0.71436-3.9705 3.1302-7.815 6.2498-12.783 7.5313-1.4286 0.43067-2.4158 0.14706-3.1301-1.418-1.418-2.9831-3.1302-5.9663-4.8318-9.2331 4.1281-3.1197 8.0986-5.9661 12.93-7.3947 0.24947-0.0709 0.50745-0.09725 0.76969-0.09232zm16.425 0.10278c2.1323 5.6827 2.8466 11.218 0.56725 16.911-3.4138-3.834-6.6806-7.3843-5.3991-12.93 0-0.43066 0.42012-0.998 0.85079-1.2816 1.2815-0.85082 2.4159-1.7016 3.9811-2.6995zm-7.2006 17.424c0.76878 0.0053 1.468 0.14562 1.9486 0.46468 1.5651 0.99786 2.8467 3.6975 2.6997 5.5462-0.28363 3.981-2.4161 7.3948-5.6829 9.947-0.14707 0.14705-0.43055 0.1471-0.71417 0.1471l-0.85077-6.8172c-2.4159 1.1344-4.5483 2.1325-6.6807 3.2669-1.1344 0.56719-1.8487 0.28358-2.4159-0.99788-0.70374-1.7017-1.7016-3.2668-2.2688-4.5483 3.5503-2.2689 6.8172-4.6847 10.231-6.1133 0.9782-0.53833 2.4528-0.90442 3.7341-0.8955z" fill="#3b2050"/>
	</g>
</svg>
