<?xml version="1.0" encoding="UTF-8" standalone="no"?>
<svg
   xmlns:dc="http://purl.org/dc/elements/1.1/"
   xmlns:cc="http://creativecommons.org/ns#"
   xmlns:rdf="http://www.w3.org/1999/02/22-rdf-syntax-ns#"
   xmlns:svg="http://www.w3.org/2000/svg"
   xmlns="http://www.w3.org/2000/svg"
   xmlns:xlink="http://www.w3.org/1999/xlink"
   xmlns:sodipodi="http://sodipodi.sourceforge.net/DTD/sodipodi-0.dtd"
   xmlns:inkscape="http://www.inkscape.org/namespaces/inkscape"
   id="svg68"
   width="2974.605pt"
   height="605.25pt"
   version="1.1"
   viewBox="0 0 2974.6049 605.25"
   sodipodi:docname="sky cinema premieren +24 hd.svg"
   inkscape:version="0.92.4 5da689c313, 2019-01-14">
  <sodipodi:namedview
     pagecolor="#ffffff"
     bordercolor="#666666"
     borderopacity="1"
     objecttolerance="10"
     gridtolerance="10"
     guidetolerance="10"
     inkscape:pageopacity="0"
     inkscape:pageshadow="2"
     inkscape:window-width="1920"
     inkscape:window-height="1015"
     id="namedview37"
     showgrid="false"
     inkscape:pagecheckerboard="true"
     showguides="true"
     inkscape:guide-bbox="true"
     inkscape:zoom="0.17389372"
     inkscape:cx="1792.2327"
     inkscape:cy="156.95148"
     inkscape:window-x="0"
     inkscape:window-y="0"
     inkscape:window-maximized="1"
     inkscape:current-layer="svg68"
     inkscape:snap-smooth-nodes="true"
     fit-margin-top="0"
     fit-margin-left="0"
     fit-margin-right="0"
     fit-margin-bottom="0">
    <sodipodi:guide
       position="774.18403,1.9620702"
       orientation="0,1"
       id="guide4589"
       inkscape:locked="false" />
    <sodipodi:guide
       position="26.503807,605.24921"
       orientation="0,1"
       id="guide968"
       inkscape:locked="false" />
    <sodipodi:guide
       position="1.497806,580.24323"
       orientation="1,0"
       id="guide970"
       inkscape:locked="false" />
    <sodipodi:guide
       position="1873.7078,230.15912"
       orientation="0,1"
       id="guide972"
       inkscape:locked="false" />
  </sodipodi:namedview>
  <metadata
     id="metadata74">
    <rdf:RDF>
      <cc:Work
         rdf:about="">
        <dc:format>image/svg+xml</dc:format>
        <dc:type
           rdf:resource="http://purl.org/dc/dcmitype/StillImage" />
        <dc:title></dc:title>
      </cc:Work>
    </rdf:RDF>
  </metadata>
  <defs
     id="defs72">
    <linearGradient
       id="linearGradient4591"
       x1="-8600.5"
       x2="-8600.5"
       y1="-4687.6001"
       y2="-4591.3999"
       gradientTransform="matrix(-2.9812,0,0,-2.9812,-24493,-13655)"
       gradientUnits="userSpaceOnUse"
       xlink:href="#a-4" />
    <linearGradient
       id="a-4"
       x1="-8600.5"
       x2="-8600.5"
       y1="-4687.6001"
       y2="-4591.3999"
       gradientTransform="matrix(-2.9812,0,0,-2.9812,-24493,-13655)"
       gradientUnits="userSpaceOnUse">
      <stop
         id="stop2-5"
         stop-color="#a80000"
         offset="0" />
      <stop
         id="stop4555"
         stop-color="#a1000c"
         offset=".38129" />
      <stop
         id="stop4-8"
         stop-color="#b90019"
         offset="1" />
    </linearGradient>
    <linearGradient
       id="c"
       x1="1833.2"
       x2="1833.2"
       y1="2735.8999"
       y2="2577.2"
       gradientTransform="matrix(1.3848254,0,0,1.3848254,-1.4981251,-3490.7885)"
       gradientUnits="userSpaceOnUse">
      <stop
         stop-color="#9D0009"
         stop-opacity="0"
         offset="0"
         id="stop85" />
      <stop
         stop-color="#9D0009"
         stop-opacity=".14"
         offset=".068766"
         id="stop87" />
      <stop
         stop-color="#9D0009"
         offset=".5"
         id="stop89" />
      <stop
         stop-color="#9D0009"
         stop-opacity=".14"
         offset=".9312"
         id="stop91" />
      <stop
         stop-color="#9D0009"
         stop-opacity="0"
         offset="1"
         id="stop93" />
    </linearGradient>
    <linearGradient
       id="b"
       x1="1809"
       x2="1809"
       y1="68.800003"
       y2="197.10001"
       gradientUnits="userSpaceOnUse">
      <stop
         stop-color="#AE0019"
         offset="0"
         id="stop61" />
      <stop
         stop-color="#AA0016"
         offset=".3448"
         id="stop63" />
      <stop
         stop-color="#9D000C"
         offset=".7015"
         id="stop65" />
      <stop
         stop-color="#8D0000"
         offset="1"
         id="stop67" />
    </linearGradient>
    <linearGradient
       id="a"
       x1="1941.5"
       x2="1941.5"
       y1="70.199997"
       y2="195.39999"
       gradientUnits="userSpaceOnUse">
      <stop
         stop-color="#AE0019"
         offset="0"
         id="stop72" />
      <stop
         stop-color="#AA0016"
         offset=".3448"
         id="stop74" />
      <stop
         stop-color="#9D000C"
         offset=".7015"
         id="stop76" />
      <stop
         stop-color="#8D0000"
         offset="1"
         id="stop78" />
    </linearGradient>
    <linearGradient
       id="d"
       x1="1485.2"
       x2="1485.2"
       y1="73.199997"
       y2="189.10001"
       gradientUnits="userSpaceOnUse"
       gradientTransform="matrix(1.3848254,0,0,1.3848254,-1.4981251,-1.5824342)">
      <stop
         stop-color="#AE0019"
         offset="0"
         id="stop50" />
      <stop
         stop-color="#AA0016"
         offset=".3448"
         id="stop52" />
      <stop
         stop-color="#9D000C"
         offset=".7015"
         id="stop54" />
      <stop
         stop-color="#8D0000"
         offset="1"
         id="stop56" />
    </linearGradient>
    <linearGradient
       id="e"
       x1="1667.3"
       x2="1667.3"
       y1="55.5"
       y2="202.89999"
       gradientUnits="userSpaceOnUse"
       gradientTransform="matrix(1.3848254,0,0,1.3848254,-1.4981251,-1.5824342)">
      <stop
         stop-color="#AE0019"
         offset="0"
         id="stop39" />
      <stop
         stop-color="#AA0016"
         offset=".3448"
         id="stop41" />
      <stop
         stop-color="#9D000C"
         offset=".7015"
         id="stop43" />
      <stop
         stop-color="#8D0000"
         offset="1"
         id="stop45" />
    </linearGradient>
    <linearGradient
       id="f"
       x1="910.79999"
       x2="910.79999"
       y1="-3900"
       y2="-4171.7002"
       gradientTransform="matrix(1.3848254,0,0,-1.3848254,-1.4981251,-5402.4015)"
       gradientUnits="userSpaceOnUse">
      <stop
         stop-color="#AE0019"
         offset="0"
         id="stop6" />
      <stop
         stop-color="#AA0016"
         offset=".3448"
         id="stop8" />
      <stop
         stop-color="#9D000C"
         offset=".7015"
         id="stop10" />
      <stop
         stop-color="#8D0000"
         offset="1"
         id="stop12" />
    </linearGradient>
  </defs>
  <g
     transform="translate(1031.5959,-288.39959)"
     id="g973"
     inkscape:label="Premieren"
     style="fill:#000000;fill-opacity:1">
    <path
       inkscape:label="n"
       inkscape:connector-curvature="0"
       d="m 825.94035,806.02353 c 6.2846,-8.3194 15.7677,-14.4013 26.1895,-15.7453 8.447,-0.9761 17.4421,-0.1651 24.898,4.2273 8.04912,4.6478 13.46272,13.0196 15.54252,21.9697 2.2751,8.492 1.6294,17.337 1.7119,26.0243 -0.01,13.8006 0.015,27.5935 -0.01,41.39402 -0.045,3.3789 -1.9972,7.1106 -5.47371,7.989 -5.55621,1.5243 -11.41271,0.5632 -17.02161,-0.1726 -0.06,-12.38892 -0.01,-24.77792 -0.023,-37.16682 -0.1501,-8.4546 0.353,-16.9316 -0.3603,-25.356 -0.6157,-6.6826 -3.484,-13.8306 -9.701,-17.1119 -11.4354,-6.2845 -26.7226,-1.5917 -34.1184,8.7549 -0.5556,0.8635 -1.3064,1.742 -1.2238,2.8307 -0.06,20.0626 0.015,40.1327 -0.038,60.19522 -0.045,3.4764 -2.0798,7.2607 -5.6763,8.1017 -5.51881,1.389 -11.29281,0.5105 -16.83401,-0.2628 -0.01,-33.05222 0.01,-66.09702 -0.01,-99.14912 5.5262,-1.5242 11.9159,-2.8908 17.21691,0.06 4.475,2.8082 4.8053,8.6648 4.9255,13.4177 z"
       id="path16-3-9-3-5"
       style="fill:#000000;fill-opacity:1;stroke-width:0.75084502" />
    <path
       inkscape:label="e"
       inkscape:connector-curvature="0"
       id="path16-1-3"
       d="m 699.77924,813.1358 c 6.96398,-12.04032 19.47058,-20.7265 33.24813,-22.8172 10.54374,-1.40634 21.80193,-0.32338 31.15744,5.06882 7.90404,4.30924 14.25135,11.2281 18.17705,19.2976 5.38467,10.76184 6.8963,23.33611 4.64767,35.12074 -23.85503,-0.008 -47.71006,-0.008 -71.55757,0 0.72949,5.98632 2.98564,12.00272 7.4077,16.24428 5.91863,5.98632 14.66497,8.12966 22.86232,8.02437 6.55787,0.18802 13.03303,-1.27096 19.16975,-3.51959 4.01595,-1.28601 8.56585,-3.06085 12.68709,-1.22584 5.4298,3.39174 5.65541,10.73927 4.67023,16.40221 -11.31083,4.81312 -23.44892,8.24247 -35.85023,7.889 -12.30354,0.36851 -24.9831,-2.77506 -34.91016,-10.26548 -9.72401,-7.2272 -15.94346,-18.50795 -18.10937,-30.32266 -2.48176,-13.48426 -0.75205,-28.03642 6.39995,-39.89625 m 24.40402,0.32338 c -5.55765,5.12146 -8.31015,12.58932 -8.97947,19.98197 17.19186,0 34.39125,0.008 51.59063,-0.008 -0.70693,-7.30241 -3.48951,-14.61986 -8.83659,-19.78644 -4.33933,-4.43709 -10.74679,-6.15929 -16.8008,-6.17433 -6.12168,-0.12785 -12.48403,1.69211 -16.97377,5.98632 z"
       style="fill:#000000;fill-opacity:1;stroke-width:0.75205004" />
    <path
       inkscape:label="r"
       inkscape:connector-curvature="0"
       id="path22-7-6"
       d="m 628.54096,792.4093 c 4.96353,-1.32361 10.32564,-2.51937 15.36438,-0.89494 2.86531,0.85733 4.97857,3.3391 5.89607,6.12921 1.40634,4.19643 0.75205,8.70121 0.93254,13.04054 2.96308,-6.73837 7.21216,-13.37145 13.90541,-16.92112 7.37761,-4.26413 16.32701,-3.87306 24.43411,-2.37648 1.15815,4.57998 1.94781,9.67136 0.0376,14.15358 -1.54922,3.72265 -5.79079,5.4674 -9.60368,5.33956 -6.95646,-0.0978 -14.492,0.23313 -20.30535,4.54238 -5.62534,3.76777 -7.83636,10.79192 -7.91157,17.28211 -0.0301,16.79328 -0.008,33.58655 -0.008,50.37231 0.0301,2.33888 -0.5866,4.72288 -2.07566,6.55788 -1.51914,2.01549 -4.15883,2.63217 -6.53531,2.89539 -4.72288,0.42115 -9.47583,-0.0978 -14.13102,-0.86486 -0.0301,-33.08268 -0.0301,-66.16536 0,-99.25556 z"
       style="fill:#000000;fill-opacity:1;stroke-width:0.75205004" />
    <path
       inkscape:label="e"
       inkscape:connector-curvature="0"
       id="path14-7-8-7"
       d="m 550.43304,791.05561 c 7.83636,-1.78236 16.10139,-1.71468 23.93775,0.0376 11.46877,2.74498 21.67408,10.34821 27.52503,20.60617 6.603,11.37852 8.75387,25.2012 6.2721,38.09886 -23.87759,0.008 -47.7627,-0.008 -71.64029,0.008 0.89494,6.6406 3.61736,13.32632 8.93436,17.62805 6.27962,5.25683 14.77026,6.92638 22.77207,6.63308 7.03919,0.11281 13.80012,-2.05309 20.36552,-4.34685 3.73769,-1.18072 8.55081,-2.23359 11.7019,0.79718 3.83545,3.89562 4.06107,10.21284 2.85027,15.14628 -11.371,5.25683 -23.92271,8.29512 -36.49699,7.95669 -13.4241,0.28578 -27.3295,-3.79785 -37.32425,-13.01798 -8.4756,-7.66339 -13.5745,-18.58316 -15.19141,-29.80375 -1.75227,-11.88239 -0.30834,-24.45666 5.38468,-35.1433 6.09161,-12.16065 17.65814,-21.44846 30.90926,-24.59955 m -5.18915,22.46373 c -5.52757,5.10642 -8.24247,12.55172 -8.90427,19.91429 17.20691,0.015 34.42133,0.008 51.63576,0.008 -0.76709,-6.82862 -3.16613,-13.63467 -7.85141,-18.76365 -4.26412,-4.90337 -10.88968,-7.15952 -17.25954,-7.20464 -6.33979,-0.22562 -12.95031,1.60939 -17.62054,6.04648 z"
       style="fill:#000000;fill-opacity:1;stroke-width:0.75205004" />
    <path
       id="path20-1-5"
       style="fill:#000000;fill-opacity:1;stroke-width:0.75205004"
       d="m 479.96595,791.14585 c 5.18162,-0.86485 10.4911,-0.23313 15.64264,0.60916 -0.015,30.45803 -0.008,60.90854 0,91.36657 0.18049,3.71512 -1.94029,7.78371 -5.71558,8.79146 -5.51253,1.4665 -11.31083,0.60164 -16.85344,-0.21057 0,-30.69869 0,-61.39737 -0.008,-92.09605 -0.15041,-4.03099 2.89539,-7.88901 6.9339,-8.46057 z m 0.45123,-43.10751 c 6.85117,-2.34639 15.10116,2.0155 16.5451,9.21262 1.96285,7.09935 -3.50455,14.99587 -10.81448,15.68024 -6.98655,1.1732 -14.18366,-4.5875 -14.42432,-11.7019 -0.60164,-5.7231 3.27142,-11.42364 8.6937,-13.19096 z"
       inkscape:connector-curvature="0"
       inkscape:label="i" />
    <path
       inkscape:label="m"
       inkscape:connector-curvature="0"
       id="path12-4-3"
       d="m 350.87655,790.31108 c 9.12237,-1.60187 19.10208,0.21809 26.44209,6.06904 4.3318,3.3015 7.2648,8.07702 9.19005,13.10823 5.37715,-9.00204 13.64218,-17.08657 24.28369,-19.08703 7.03919,-1.18072 14.51457,-0.84229 21.20781,1.81244 5.5727,2.22607 10.14516,6.58796 12.92775,11.86735 3.80537,6.87374 5.04625,14.83795 5.1741,22.59911 0.008,18.56811 -0.015,37.12871 0.015,55.68931 0.0301,2.77506 -0.53395,5.80582 -2.61713,7.79875 -1.87261,1.88013 -4.64767,2.27872 -7.17456,2.45921 -4.34685,0.19553 -8.70874,-0.21058 -12.98038,-0.97015 0.0226,-20.92203 -0.008,-41.84406 0.015,-62.76609 -0.0226,-5.65542 -1.42138,-11.85983 -5.9036,-15.68025 -4.51982,-3.94074 -11.00249,-4.55742 -16.66543,-3.31654 -5.99384,1.32361 -10.9348,5.6855 -14.08589,10.81448 -1.10552,1.51914 -0.72197,3.45943 -0.78214,5.21171 0.015,18.81629 0.0451,37.6401 -0.015,56.46392 0.12785,3.75273 -1.39881,8.21238 -5.33203,9.41566 -5.65542,1.66203 -11.68686,0.70693 -17.40244,-0.15041 0.0301,-20.67385 0.008,-41.35523 0.015,-62.02909 -0.0752,-5.70054 -1.23336,-11.94255 -5.58773,-15.98858 -4.1438,-3.99339 -10.35573,-4.8432 -15.8457,-4.01595 -6.43002,1.12808 -11.85983,5.60278 -15.31926,10.98745 -1.18823,1.53419 -0.81221,3.53464 -0.86485,5.33204 0.0451,19.04191 0,38.09133 0.0226,57.13324 0.17297,3.75273 -1.85757,8.00181 -5.76823,8.91932 -5.505,1.36873 -11.28075,0.51139 -16.80831,-0.2933 0.0376,-33.12029 -0.0376,-66.24057 0.0376,-99.35334 5.52005,-1.40633 11.83727,-2.84275 17.11666,0.0752 4.38445,2.6773 4.95601,8.37784 4.90336,13.0255 5.25683,-7.3024 12.82998,-13.33384 21.80193,-15.13124 z"
       style="fill:#000000;fill-opacity:1;stroke-width:0.75205004" />
    <path
       inkscape:label="e"
       inkscape:connector-curvature="0"
       id="path10-6-5"
       d="m 230.01459,790.93528 c 8.26503,-1.75228 16.99633,-1.59435 25.16359,0.60916 11.30332,3.21125 21.09501,11.16042 26.57745,21.55375 5.9788,11.1153 7.85141,24.31378 5.48997,36.70005 -23.88511,0.015 -47.77022,-0.015 -71.65533,0.015 0.8799,6.58796 3.57976,13.21352 8.82155,17.52276 6.21945,5.26435 14.65745,7.00159 22.62918,6.73837 7.10688,0.14289 13.94301,-2.01549 20.56857,-4.33933 3.70761,-1.15815 8.438,-2.25615 11.6267,0.66933 3.82041,3.58728 3.90314,9.3179 3.38422,14.16862 0.12033,1.21832 -1.2484,1.5041 -2.06814,1.93277 -10.6039,4.38445 -21.96738,7.34753 -33.51887,7.10687 -12.16065,0.40611 -24.70484,-2.51936 -34.65446,-9.73904 -9.47583,-6.81358 -15.86826,-17.3874 -18.37259,-28.71328 -3.0458,-13.84524 -1.6169,-28.99153 5.58773,-41.37027 6.37739,-11.40108 17.6431,-19.98197 30.42043,-22.8548 m -5.04626,21.98994 c -5.93367,5.10642 -8.88171,12.86758 -9.56607,20.51593 h 51.63575 c -0.737,-6.69325 -3.06836,-13.35641 -7.57314,-18.46283 -3.63992,-4.33181 -9.14493,-6.77597 -14.7101,-7.32497 -6.91886,-0.76709 -14.42432,0.59412 -19.78644,5.27187 z"
       style="fill:#000000;fill-opacity:1;stroke-width:0.75205004" />
    <path
       inkscape:label="r"
       inkscape:connector-curvature="0"
       id="path18-6-7"
       d="m 127.31463,792.37921 c 5.06882,-1.34616 10.58135,-2.5344 15.68777,-0.72948 3.82793,1.37625 5.89607,5.48996 6.21945,9.34046 0.18049,3.27894 -0.0376,6.5654 0.10529,9.85185 2.96308,-6.75341 7.21968,-13.30376 13.80012,-16.98881 7.42273,-4.35437 16.46989,-3.9633 24.64468,-2.47424 1.2108,4.79056 2.09822,10.1978 -0.27074,14.7853 -1.81996,3.45943 -5.9412,4.91089 -9.66384,4.72288 -7.07679,-0.14289 -14.80035,0.39106 -20.55353,5.00113 -4.95601,3.68505 -7.09183,10.00979 -7.23472,15.98858 -0.0526,17.0941 0.0301,34.1882 -0.0376,51.2823 0.0526,3.80537 -2.04557,8.05445 -6.04648,8.88923 -5.48996,1.25592 -11.20554,0.46627 -16.69551,-0.39859 0.0526,-33.0902 -0.0376,-66.1804 0.0451,-99.27061 z"
       style="fill:#000000;fill-opacity:1;stroke-width:0.75205004" />
    <path
       inkscape:label="P"
       inkscape:connector-curvature="0"
       id="path4-8-6"
       d="m 19.763955,759.58231 c 2.26367,-2.1283 5.595252,-2.27119 8.528247,-2.4592 11.002493,-0.0301 22.004985,-0.0301 33.007477,0 12.115527,0.21057 24.599558,2.95555 34.519098,10.21284 8.107103,5.88103 13.679793,14.93571 15.687763,24.71236 2.96308,13.7174 0.34594,29.08178 -8.90427,39.9489 -9.159971,10.91977 -23.546689,16.34957 -37.549861,16.84592 -8.212387,0.0526 -16.417253,-0.008 -24.629639,0.0226 0,11.4086 0.0075,22.82472 0,34.23332 0.127848,3.89562 -2.331356,7.97173 -6.264577,8.90428 -5.595253,1.33865 -11.431161,0.48883 -17.048975,-0.31586 -0.0075,-41.24995 0,-82.4999 0,-123.74984 0.06768,-2.933 0.624201,-6.10665 2.654737,-8.35528 M 40.42277,778.361 v 49.99629 c 7.21968,-0.0752 14.446881,0.20305 21.659041,-0.18049 7.227201,-0.48131 14.995879,-2.18095 20.192544,-7.60323 5.565171,-5.61781 7.212161,-14.07838 6.189372,-21.71168 -0.616681,-5.70054 -3.369184,-11.27323 -7.994292,-14.77779 -5.640375,-4.35437 -12.987904,-5.56517 -19.936847,-5.7231 -6.700766,-0.015 -13.401532,-0.008 -20.109818,0 z"
       style="fill:#000000;fill-opacity:1;stroke-width:0.75205004" />
  </g>
  <g
     id="g1003"
     transform="translate(1.4981251,7.6915964e-4)">
    <path
       style="fill:#ffffff;stroke-width:1.38482547"
       inkscape:connector-curvature="0"
       id="path4"
       d="M 677.2048,365.81175 677.06631,7.9728614 H 26.752314 c -13.017359,0 -18.8336259,6.3701966 -18.8336259,18.6951436 V 346.70115 c 0,12.18647 5.8162669,18.83363 18.8336259,18.83363 l 650.452486,0.27697"
       class="st0" />
    <path
       style="fill:url(#f);stroke-width:1.38482547"
       inkscape:connector-curvature="0"
       id="path15"
       d="M 625.41233,-1.5824342 H 1894.1893 V 374.67463 H 625.41233 Z"
       class="st1" />
    <path
       style="fill:#ffffff;stroke-width:1.38482547"
       inkscape:connector-curvature="0"
       id="path17"
       d="m 716.53384,186.47685 c 0,-53.17729 39.32904,-90.706055 89.45972,-90.706055 34.8976,0 60.93232,14.263705 60.93232,14.263705 1.93876,12.60191 -2.76965,22.71113 -12.04798,22.71113 -11.77101,0 -21.18783,-11.49405 -47.91496,-11.49405 -33.09733,0 -61.20928,25.20382 -61.20928,65.7792 0,40.02146 27.83499,65.91769 61.20928,65.91769 27.28106,0 36.97484,-11.49405 48.33041,-11.49405 9.13985,0 13.57129,9.5553 11.63253,22.71114 0,0 -26.45016,13.70977 -60.65535,13.70977 -48.74586,0.13848 -89.73669,-35.03608 -89.73669,-91.39848 z"
       class="st0" />
    <path
       style="fill:#ffffff;stroke-width:1.38482547"
       inkscape:connector-curvature="0"
       id="path19"
       d="m 906.94734,274.1363 c 20.49541,4.56992 28.94285,-0.96938 28.94285,-10.10922 V 99.648306 c -21.18783,-4.292959 -28.94285,0.276965 -28.94285,9.416814 z M 940.32163,51.456381 c 0,10.38619 -8.30895,18.556661 -18.55666,18.556661 -10.38619,0 -18.55666,-8.308953 -18.55666,-18.556661 0,-10.247709 8.30895,-18.556661 18.55666,-18.556661 10.24771,-0.138483 18.55666,8.17047 18.55666,18.556661"
       class="st0" />
    <path
       style="fill:#ffffff;stroke-width:1.38482547"
       inkscape:connector-curvature="0"
       id="path21"
       d="M 982.55881,274.1363 V 99.648306 c 16.20246,-3.323581 28.52739,-2.215721 28.52739,9.416814 v 14.2637 c 0,0 19.9415,-27.83499 58.5781,-27.83499 37.2518,0 65.7792,25.20382 65.7792,72.1494 v 97.90715 c 0,12.18647 -15.9255,11.07861 -28.3889,8.58592 V 171.38226 c 0,-28.80437 -16.4794,-50.54612 -43.7605,-50.54612 -32.2664,0 -52.2079,30.74312 -52.2079,30.74312 v 112.86326 c 0.1385,9.41682 -7.8935,13.84826 -28.52739,9.69378 z"
       class="st0" />
    <path
       style="fill:#ffffff;stroke-width:1.38482547"
       inkscape:connector-curvature="0"
       id="path23"
       d="m 1253.8461,120.97462 c 47.915,0 51.654,48.60737 51.654,53.73122 h -109.1243 c 0,0 6.9242,-53.73122 57.4703,-53.73122 z m 0.554,-25.48079 c -52.3465,0 -87.798,41.54476 -87.798,90.4291 0,53.31577 35.313,91.67543 91.6755,91.67543 37.2518,0 64.3944,-14.40218 64.3944,-14.40218 2.0772,-14.12522 -2.7697,-22.71114 -11.0786,-22.71114 -9.5553,0 -24.2345,11.07861 -51.7925,11.07861 -59.686,0 -63.5635,-53.03882 -63.5635,-53.03882 h 136.2668 c 7.8935,-47.77647 -16.3409,-103.031 -78.1041,-103.031 z"
       class="st0" />
    <path
       style="fill:#ffffff;stroke-width:1.38482547"
       inkscape:connector-curvature="0"
       id="path25"
       d="M 1370.033,273.85934 V 99.648306 c 15.9255,-3.739029 27.9735,-2.492686 27.9735,10.109224 v 12.04798 c 0,0 17.7257,-26.31168 50.6846,-26.31168 23.5418,0 43.0679,14.40218 49.992,31.98947 9.4168,-13.70977 25.8962,-31.98947 56.9163,-31.98947 34.6207,0 57.3318,25.75775 57.3318,63.84045 v 104.96976 c 0,10.38619 -8.032,13.29432 -28.8044,9.97074 V 161.13455 c 0,-20.35693 -10.1092,-40.02145 -35.313,-40.02145 -28.5274,0 -43.2066,27.83499 -43.2066,27.83499 v 115.90988 c 0,8.03199 -5.8162,13.57129 -28.8043,9.13985 V 158.64187 c 0,-18.97211 -11.0785,-37.52877 -35.3129,-37.52877 -28.9429,0 -43.2066,28.5274 -43.2066,28.5274 v 115.21747 c 0,10.52467 -10.3861,13.15584 -28.2504,9.00137 z"
       class="st0" />
    <path
       style="fill:#ffffff;stroke-width:1.38482547"
       inkscape:connector-curvature="0"
       id="path27"
       d="m 1749.752,189.80043 c 5.6777,0 11.494,0.13848 17.8642,0.55393 v 33.37429 c 0,0 -20.3569,30.05072 -57.4703,30.05072 -20.9108,0 -36.6978,-12.60191 -36.6978,-30.05072 0,-21.04934 22.4341,-34.0667 76.3039,-33.92822 z m -24.373,-94.3066 c -36.4209,0 -67.5795,12.46343 -67.5795,12.46343 -2.2157,11.63253 1.1079,23.12658 10.6632,23.12658 9.0014,0 28.5274,-10.38619 56.2239,-10.38619 35.7285,0 43.0681,20.07997 43.0681,39.60601 v 8.30895 c 0,0 -10.5247,-0.69241 -24.2345,-0.69241 -68.9643,0 -99.015,22.1572 -99.015,57.0548 0,24.23444 17.7258,53.03881 61.6248,53.03881 40.5753,0 61.7632,-27.28106 61.7632,-27.28106 v 12.74039 c 0,11.63254 9.1398,14.67915 28.5274,10.94013 V 157.11856 c -0.277,-29.63526 -14.6792,-61.62473 -71.0416,-61.62473 z"
       class="st0" />
    <path
       style="opacity:0.94899998;fill:#a9a9a9;stroke-width:1.38482547;enable-background:new"
       inkscape:connector-curvature="0"
       id="path29"
       d="m 26.613832,365.53478 c -13.01736,0 -18.8336264,-6.50868 -18.8336264,-18.83363 V 26.806488 c 0,-12.46343 5.8162664,-18.8336266 18.8336264,-18.8336266 H 624.58143 V -1.4439517 H 23.290251 c -13.8482549,0 -24.7883761,11.6325337 -24.7883761,24.7883757 V 349.88625 c 0,13.70977 11.2170863,25.20383 25.2038231,25.20383 H 624.8584 v -9.41682 z"
       class="st2" />
    <path
       style="fill:#9d0009;stroke-width:1.38482547"
       inkscape:connector-curvature="0"
       id="path31"
       d="m 421.98147,333.12986 c 4.15447,2.21573 12.18646,4.70841 22.9881,4.70841 17.86425,0.41545 27.55803,-6.50868 34.75912,-22.57265 l 95.9684,-213.81704 c -4.15447,-2.215722 -12.74039,-4.29296 -19.66452,-4.708407 -12.18646,-0.415448 -28.94285,2.21572 -39.46752,27.558027 l -31.15858,73.25725 -61.20928,-98.876522 c -4.15448,-1.246343 -13.57129,-2.769651 -20.6339,-2.769651 -21.46478,0 -33.65124,7.893503 -45.97619,21.464793 l -58.99356,64.67135 47.77648,74.91905 c 8.86288,13.70977 20.49541,20.63389 39.32904,20.63389 12.18645,0 22.57264,-2.76965 27.28104,-5.12385 l -57.33175,-86.55158 40.57536,-42.79111 66.88707,104.83128 z m -125.88062,-80.8738 c 0,15.64853 -6.23171,24.78837 -36.97484,24.78837 -4.15447,0 -7.47805,-0.41544 -10.94012,-0.96937 V 67.381873 c 0,-15.925492 5.26234,-32.266433 36.42091,-32.266433 3.73903,0 7.89351,0.415448 11.63254,1.246343 z m -63.70197,-31.15857 c 0,29.49678 -19.11059,50.68461 -58.30114,55.25453 -28.11196,3.1851 -69.37975,-0.55393 -88.628827,-2.76965 -0.55393,-3.1851 -1.246343,-7.20109 -1.246343,-10.38619 0,-25.75775 13.709772,-31.7125 27.0041,-31.7125 13.57129,0 34.75911,2.21572 50.68461,2.21572 17.4488,0 22.57265,-5.95475 22.57265,-11.63254 0,-7.47805 -6.92413,-10.38619 -20.6339,-13.15584 l -36.69787,-6.50868 c -30.743126,-6.09323 -46.945584,-27.41953 -46.945584,-49.99219 0,-27.55802 19.387556,-50.54612 57.608734,-54.839082 28.94286,-3.185099 64.2559,0.415448 83.36649,2.769652 0.55393,3.32358 0.96937,6.50868 0.96937,9.97074 0,25.75776 -13.57128,31.02009 -26.72713,31.02009 -9.97073,0 -25.34229,-1.93875 -43.20654,-1.93875 -18.2797,0 -25.34231,5.12385 -25.34231,10.94011 0,6.23172 7.2011,9.00137 18.41818,10.94012 l 35.31305,6.50868 c 36.4209,7.06261 51.79246,27.69651 51.79246,53.31578"
       class="st3" />
    <path
       style="opacity:0.2;fill:#ffffff;stroke-width:1.38482547;enable-background:new"
       inkscape:connector-curvature="0"
       id="path33"
       d="M 1894.1893,-1.5824342 H 23.705698 c -13.7097717,0 -24.926858,11.2170861 -24.926858,25.2038232 V 250.87123 c 0,-20.07997 15.925493,-36.83635 36.005462,-37.39028 L 1894.1893,140.63914 Z"
       class="st4" />
    <path
       style="fill:#ffffff;stroke-width:1.38482547"
       inkscape:connector-curvature="0"
       id="path35"
       d="m 2944.9948,365.67326 c 13.0174,0 18.8337,-6.37019 18.8337,-18.83362 V 26.806488 c 0,-12.186465 -5.8163,-18.8336266 -18.8337,-18.8336266 l -1050.667,-0.1384826 0.1385,357.8388812 z"
       class="st0" />
    <path
       style="opacity:0.94899998;fill:#a9a9a9;stroke-width:1.38482547;enable-background:new"
       inkscape:connector-curvature="0"
       id="path37"
       d="m 2944.9948,7.9728614 c 13.0174,0 18.8337,6.6471616 18.8337,18.8336266 V 346.83964 c 0,12.46343 -5.8163,18.83362 -18.8337,18.83362 H 1894.4663 v 9.41682 h 1053.8521 c 13.8483,0 24.7884,-11.63254 24.7884,-24.78838 V 23.621389 c 0,-13.709772 -11.2171,-25.2038232 -25.2038,-25.2038232 H 1894.1893 v 9.416813 z"
       class="st2" />
    <path
       style="fill:url(#e);stroke-width:1.38482547"
       inkscape:connector-curvature="0"
       id="path48"
       d="m 2293.296,264.58101 c 0.2769,3.87751 -0.8309,8.03198 -3.8775,10.66315 -2.3542,2.07724 -5.4009,2.90813 -8.586,2.90813 h -124.0803 l -0.5539,-3.32358 c -0.277,-0.83089 -0.277,-2.3542 -0.554,-3.87751 -0.2769,-1.80027 -0.2769,-3.60054 -0.2769,-5.40082 0,-2.90813 0.5539,-5.95475 1.5233,-8.58591 1.2463,-3.60055 2.9081,-6.50868 5.6778,-8.86289 l 65.0868,-59.40901 c 4.7084,-4.43143 9.5552,-8.86287 13.7097,-13.01735 3.8775,-3.87751 7.4781,-8.03199 10.6632,-12.46343 2.6311,-3.87751 4.9854,-8.03199 6.7856,-12.46343 1.5233,-4.15448 2.3542,-8.58592 2.3542,-13.01735 0,-11.21709 -3.6005,-19.66453 -10.3862,-26.17321 -6.7856,-6.50867 -17.1718,-9.55529 -30.0507,-9.55529 -5.9547,0 -11.6325,0.55393 -17.1718,2.3542 -4.4315,1.52331 -8.8629,3.32358 -13.2943,5.40082 -3.8775,2.07724 -7.0626,3.87751 -10.1093,5.40082 -8.8628,5.40082 -15.3715,3.60055 -19.249,-2.3542 -2.3542,-3.60055 -3.6006,-7.75502 -3.8775,-11.9095 l -0.277,-2.354204 1.8003,-1.523308 c 3.6005,-2.631169 7.0626,-5.400819 10.9401,-7.478058 9.8322,-5.677784 20.4954,-9.83226 31.4355,-12.186464 6.2317,-1.523308 12.7404,-2.077238 19.2491,-2.077238 9.8323,0 19.2491,1.246343 28.8044,4.431442 8.032,2.631168 15.3715,6.785644 22.0187,12.740394 5.9547,5.400819 10.6631,12.186466 13.9867,19.664526 3.3236,8.03198 4.9854,16.34094 4.9854,24.92685 0,6.78564 -1.2463,13.98674 -3.6005,20.49542 -2.3543,6.23171 -5.6778,12.18646 -9.5553,17.86424 -4.1545,5.67779 -8.586,11.21708 -13.7098,16.06397 -4.9854,4.98537 -10.3862,10.10923 -15.787,14.81763 l -50.5462,45.42228 h 94.9991 l 0.5539,3.32358 c 0.277,1.24634 0.277,2.3542 0.5539,4.15448 0.4155,1.80027 0.4155,3.60054 0.4155,5.40082 z m 165.6251,-50.54613 c 0,-1.52331 -0.277,-2.90814 -0.5539,-4.43144 l -0.554,-3.32359 h -30.8816 V 78.737442 h -26.7271 l -93.1987,126.434548 c -1.8003,2.35421 -2.9082,4.70841 -3.8776,7.75503 -0.5539,2.3542 -1.2463,4.98537 -0.8309,7.47805 0,1.80028 0.277,3.60055 0.277,4.98538 0.277,1.5233 0.277,2.90813 0.5539,3.87751 l 0.554,3.32358 h 95.276 v 44.86834 l 2.6311,0.8309 c 1.8003,0.55393 3.6006,0.83089 5.6778,0.83089 2.0773,0 3.6006,0.27697 5.4008,0.27697 13.0174,0 14.5407,-8.03199 14.5407,-11.63254 v -35.59001 h 20.2185 c 2.9081,0 5.9547,-1.24634 8.3089,-3.32358 2.6312,-2.63117 3.8775,-6.50868 3.6005,-10.10923 -0.4154,-1.38482 -0.4154,-2.90813 -0.4154,-4.7084 z m -59.9629,-89.5982 v 82.25862 h -61.2093 z"
       class="st5" />
    <path
       style="fill:url(#d);stroke-width:1.38482547"
       inkscape:connector-curvature="0"
       id="path59"
       d="m 2053.5827,260.28805 c -1.9388,0 -3.739,-0.13849 -5.2623,-0.27697 -1.9388,-0.27696 -3.3236,-0.69241 -4.57,-1.10786 l -1.9387,-0.83089 v -67.71797 h -62.1787 l -0.4154,-2.49268 c -0.1385,-1.10786 -0.4155,-2.49268 -0.6924,-4.01599 -0.1385,-1.66179 -0.277,-3.60055 -0.277,-5.5393 0,-4.56993 1.1079,-7.61654 3.3236,-9.69378 2.0772,-1.93876 4.8469,-2.90813 8.3089,-2.90813 h 52.0695 v -55.39302 c 0,-2.90813 1.1078,-5.67778 3.3235,-7.61654 2.2158,-2.07724 5.2624,-2.908131 9.6938,-2.908131 1.9388,0 3.739,0.138482 5.2624,0.276961 1.6617,0.27697 3.3235,0.69242 4.5699,1.10786 l 2.0772,0.8309 v 63.70197 h 63.979 l 0.4154,2.49268 c 0.1385,1.10786 0.4154,2.49269 0.6924,4.016 0.1385,1.66179 0.277,3.60054 0.277,5.5393 0,4.56992 -1.1079,7.8935 -3.3236,9.83225 -2.0772,1.93876 -4.8469,2.90813 -8.309,2.90813 h -53.8697 v 59.27053 c 0,3.1851 -1.1078,5.67779 -3.3235,7.61654 -2.2158,1.93876 -5.5393,2.90814 -9.8323,2.90814 z"
       class="st6" />
    <g
       id="g83"
       transform="matrix(1.3848254,0,0,1.3848254,167.09052,4.9018725)">
      <linearGradient
         gradientUnits="userSpaceOnUse"
         y2="197.10001"
         y1="68.800003"
         x2="1809"
         x1="1809"
         id="linearGradient1051">
        <stop
           id="stop1043"
           offset="0"
           stop-color="#AE0019" />
        <stop
           id="stop1045"
           offset=".3448"
           stop-color="#AA0016" />
        <stop
           id="stop1047"
           offset=".7015"
           stop-color="#9D000C" />
        <stop
           id="stop1049"
           offset="1"
           stop-color="#8D0000" />
      </linearGradient>
      <path
         style="fill:url(#b)"
         inkscape:connector-curvature="0"
         id="path70"
         d="m 1854.9,69.2 c -1.2,-0.4 -2.5,-0.4 -3.7,-0.4 -3.3,0 -5.7,0.8 -7.4,2 -1.6,1.2 -2.5,3.3 -2.5,5.7 V 124 h -64.6 V 70.8 l -1.6,-0.8 c -0.8,-0.4 -2,-0.8 -3.3,-0.8 -1.2,-0.4 -2.5,-0.4 -3.7,-0.4 -3.3,0 -5.7,0.8 -7.4,2 -1.6,1.2 -2.5,3.3 -2.5,5.7 v 118.6 l 1.6,0.8 c 0.8,0.4 2,0.8 3.3,0.8 1.2,0.4 2.5,0.4 3.7,0.4 3.3,0 5.7,-0.8 7.4,-2 1.6,-1.2 2.5,-3.3 2.5,-5.7 v -49.1 h 64.6 v 54.8 l 1.6,0.8 c 0.8,0.4 2,0.8 3.3,0.8 1.2,0.4 2.5,0.4 3.7,0.4 3.3,0 5.7,-0.8 7.4,-2 1.6,-1.2 2.5,-3.3 2.5,-5.7 V 70.8 l -1.6,-0.8 c -0.4,-0.4 -1.6,-0.8 -3.3,-0.8 z"
         class="st7" />
      <linearGradient
         gradientUnits="userSpaceOnUse"
         y2="195.39999"
         y1="70.199997"
         x2="1941.5"
         x1="1941.5"
         id="linearGradient1062">
        <stop
           id="stop1054"
           offset="0"
           stop-color="#AE0019" />
        <stop
           id="stop1056"
           offset=".3448"
           stop-color="#AA0016" />
        <stop
           id="stop1058"
           offset=".7015"
           stop-color="#9D000C" />
        <stop
           id="stop1060"
           offset="1"
           stop-color="#8D0000" />
      </linearGradient>
      <path
         style="fill:url(#a)"
         inkscape:connector-curvature="0"
         id="path81"
         d="m 1989.5,106.6 c -3.3,-7.8 -7.8,-14.3 -13.9,-19.6 -6.1,-5.3 -13.5,-9.4 -21.7,-12.3 -8.2,-2.9 -18,-4.5 -28.2,-4.5 h -28.6 c -3.7,0 -6.1,0.8 -7,2.5 -0.8,1.2 -1.6,3.3 -1.6,4.9 V 188 c 0,2 0.4,3.7 1.6,4.9 1.2,1.6 3.7,2.5 7,2.5 h 28.6 c 10.2,0 20,-1.6 28.2,-4.9 8.6,-3.3 15.5,-7.8 21.7,-13.9 6.1,-5.7 10.6,-12.7 13.9,-20.5 3.3,-7.8 4.9,-16 4.9,-25 0,-8.1 -1.6,-16.7 -4.9,-24.5 z m -18.4,46.6 c -2.5,6.1 -6.1,11 -10.6,14.7 -4.5,4.1 -9.8,7 -15.5,9 -6.1,2 -12.3,3.3 -18.8,3.3 h -19.3 V 87 h 19.2 c 6.5,0 13.1,1.2 19.2,3.3 6.1,2.1 11,4.9 15.5,9 4.5,3.7 8.2,8.6 10.6,14.3 2.5,5.7 4.1,12.3 4.1,19.2 -0.3,7.3 -1.6,14.3 -4.4,20.4 z"
         class="st8" />
    </g>
    <rect
       style="fill:url(#c);stroke-width:1.38482547"
       id="rect96"
       height="219.77177"
       width="8.1704702"
       y="78.183479"
       x="2533.1479"
       class="st9" />
  </g>
</svg>
