<?xml version="1.0" encoding="UTF-8"?>
<svg width="800" height="193.44" version="1.1" xmlns="http://www.w3.org/2000/svg">
	<defs>
		<linearGradient id="a" x1="414.37" x2="1244.6" y1="289.84" y2="289.84" gradientTransform="translate(-7.778 -84.95) scale(.51516)" gradientUnits="userSpaceOnUse">
			<stop stop-color="#ff0031" offset="0"/>
			<stop stop-color="#9b001f" offset="1"/>
		</linearGradient>
		<linearGradient id="b" x1="197.48" x2="194.59" y1="295.14" y2="212.24" gradientTransform="translate(-7.778 -84.95) scale(.51516)" gradientUnits="userSpaceOnUse">
			<stop stop-color="#fff" offset="0"/>
			<stop stop-color="#fff" stop-opacity=".25" offset=".515"/>
		</linearGradient>
		<linearGradient id="c" x1="830.55" x2="826.25" y1="276.73" y2="153.47" gradientTransform="translate(-7.778 -84.95) scale(.51516)" gradientUnits="userSpaceOnUse">
			<stop stop-color="#fff" offset="0"/>
			<stop stop-color="#fff" stop-opacity=".25" offset=".515"/>
		</linearGradient>
	</defs>
	<g>
		<path d="m800 6.235v116.24c-0.0153 3.4454-2.8046 6.2347-6.25 6.25h-168.96v-128.71l168.96-0.015c3.4616 0 6.25 2.802 6.25 6.235z" fill="#bbb"/>
		<path d="M714.58 38.576v49.548c0 2.173-1.1 3.38-4.48 3.38-1.53 0-2.95-.214-4.05-.43V68.274h-28.274V88.15c0 2.173-1.1 3.38-4.48 3.38-1.637 0-3.273-.214-4.051-.43V41.528c0-2.093 1.1-3.38 4.587-3.38 1.53 0 3.032.214 3.917.429v22.05h28.14v-19.1c0-2.091 1.208-3.38 4.696-3.38 1.61 0 3.112.215 3.996.43m58.003 26.182c0 14.861-10.38 26.101-26.638 26.101H730.79c-3.272 0-4.48-1.314-4.48-3.38v-45.31c0-2.064 1.208-3.38 4.48-3.38h15.157c16.257 0 26.638 11.134 26.638 25.969m-8.638 0c0-11.133-6.974-18.35-18-18.35h-11.133v36.78h11.133c11.026.027 18-7.19 18-18.43" fill="#9c001f"/>
		<path d="M57.492 77.171c0 11.076-7.212 19.112-21.946 20.709-10.612 1.133-26.016-.206-33.331-1.03-.258-1.185-.464-2.68-.464-3.864 0-9.633 5.203-11.849 10.097-11.849 5.1 0 13.137.876 19.061.876 6.594 0 8.552-2.215 8.552-4.328 0-2.781-2.627-3.915-7.727-4.894l-13.961-2.678C6.182 67.897 0 59.913 0 51.413 0 41.11 7.315 32.455 21.74 30.858c10.87-1.185 24.16.154 31.425 1.03.257 1.236.412 2.421.412 3.71 0 9.633-5.1 11.693-9.994 11.693-3.761 0-9.582-.67-16.28-.67-6.8 0-9.581 1.855-9.581 4.122 0 2.42 2.678 3.4 6.903 4.172l13.29 2.473C51.62 59.913 57.493 67.64 57.493 77.17m23.852 11.85c0 5.924-2.319 9.324-13.91 9.324-1.545 0-2.884-.103-4.172-.31V19.577c0-5.976 2.009-12.21 13.703-12.21 1.494 0 2.988.155 4.379.464zm47.343 30.393c1.545.773 4.636 1.752 8.551 1.803 6.749.155 10.406-2.42 13.137-8.448l36.061-80.21c-1.494-.773-4.79-1.7-7.47-1.752-4.636-.103-10.87.825-14.837 10.303l-11.746 27.458-22.925-37.246c-1.494-.463-5.1-1.082-7.727-1.082-8.14 0-12.62 2.988-17.309 8.037L82.167 62.591l17.928 28.179c3.297 5.152 7.676 7.779 14.734 7.779 4.636 0 8.5-1.082 10.303-1.906l-21.585-32.455 15.3-16.228 25.088 39.307z" fill="#ff0031"/>
		<path d="M624.84 0H214.21c-4.74 0-8.603 3.864-8.603 8.603v111.53c0 4.74 3.864 8.603 8.603 8.603h410.58c4.74 0 8.603-3.863 8.603-8.603V8.553c-.051-4.74-3.812-8.551-8.551-8.551" fill="url(#a)"/>
		<path d="M63.313 19.576V73.41c0-2.164 1.649-4.43 4.43-4.533l9.067-.31c1.803-.051 4.534-1.287 4.585-4.584V7.83a20.366 20.366 0 0 0-4.379-.464c-11.694.051-13.703 6.233-13.703 12.209m41.213 18.752L82.271 62.643l1.803 2.782c.773 1.03 2.267 2.782 5.255 2.679l12.673-.464c2.782-.103 4.533 1.082 5.615 2.524l-3.966-5.975 15.3-16.228 10.252 16.124c1.854 2.42 4.636 2.472 5.254 2.472.515 0 14.012-.463 14.58-.515.926-.051 2.008.464 2.833 1.649l-22.306-36.267c-1.494-.464-5.1-1.082-7.728-1.082-8.14-.052-12.62 2.885-17.309 7.985m-82.786-7.47C7.317 32.454.001 41.057.001 51.412c0 5.306 2.421 10.406 7.058 14.064 3.503 2.318 7.109 3.194 10.664 3.812 2.936.515 9.788.98 14.888.773l15.867-.567c5.976-.206 9.17 4.894 8.86 9.994v-.257c.052-.67.104-1.34.104-2.01 0-9.53-5.873-17.308-19.525-19.833l-13.291-2.473c-4.276-.721-6.904-1.752-6.904-4.173 0-2.267 2.834-4.173 9.582-4.173 6.698 0 12.518.67 16.28.67 4.893 0 9.994-2.06 9.994-11.694 0-1.288-.155-2.473-.413-3.71-5.203-.617-13.549-1.493-21.843-1.493-3.245.051-6.49.206-9.582.515M164.03 41.11l-11.385 26.84c0-.051.722-2.112 2.937-2.215l12.055-.412c3.657-.155 5.1-2.628 5.512-3.452l13.188-29.416c-1.494-.773-4.791-1.7-7.47-1.751h-.566c-4.585.051-10.458 1.288-14.27 10.406" fill="url(#b)" opacity=".3"/>
		<path d="M214.2 0c-4.74 0-8.603 3.864-8.603 8.603v61.922c0-.927.36-6.027 6.182-6.594 0 0 .309-.051.824-.051l414.39-14.527c3.245-.103 6.388-2.525 6.388-6.543V8.655c0-4.74-3.864-8.603-8.603-8.603z" fill="url(#c)" opacity=".3"/>
		<path d="M298.63 14.578c-3.452 0-6.389 2.68-6.389 6.389 0 3.245 2.886 6.285 6.389 6.285s6.285-2.988 6.285-6.285c0-3.606-2.73-6.389-6.285-6.389zm117.36 19.113c-16.588 0-30.035 13.137-30.035 31.219 0 18.752 12.93 31.527 31.682 31.527 8.654 0 16.795-2.576 22.102-4.945.618-5.461-1.237-7.83-3.762-7.83-1.082 0-2.42.514-4.945 1.441-3.864 1.185-7.83 2.371-13.033 2.371-12.106 0-20.35-6.75-21.844-18.443h46.932a46.71 46.71 0 0 0 .568-6.182c0-14.373-9.17-29.158-27.664-29.158zm-155.37.05c-17.411 0-30.702 13.344-30.703 31.27 0 17.928 13.291 31.427 30.703 31.685 8.242 0 15.711-2.267 21.018-4.791.515-5.46-1.495-7.729-4.02-7.729-3.502 0-7.468 3.864-16.638 3.864-11.591 0-21.018-8.912-21.018-22.873 0-13.96 9.426-22.613 21.018-22.613 9.17 0 13.084 3.863 16.639 3.863 2.524 0 4.534-2.268 4.019-7.729-5.203-2.678-12.672-4.945-21.018-4.945zm320.48 0c-8.448 0-17.465 2.011-23.492 4.278-.618 5.306.98 7.83 3.762 7.83.979 0 2.42-.463 4.275-.978 3.606-1.185 8.913-2.526 15.043-2.526 11.85 0 14.89 5.565 14.89 14.89v1.648c-26.738-1.751-42.554 4.634-42.554 19.266 0 9.685 7.469 18.342 21.018 18.342 9.016 0 15.817-3.555 21.535-9.582v5.047c0 2.524 1.597 3.812 5.203 3.812 1.752 0 3.503-.256 4.533-.514v-38.38h-.002c0-14.27-6.54-23.08-24.21-23.132zm-230.84.003c-9.118 0-15.815 4.43-20.193 9.736v-5.203c0-2.267-1.34-3.76-5.203-3.76-1.752 0-3.606.413-4.533.67v60.12c.927.257 2.781.513 4.533.513 3.915 0 5.203-1.39 5.203-3.76V53.474c3.194-5.821 10.921-10.869 18.082-10.869 9.016 0 15.146 5.872 15.146 18.236v34.361c.979.258 2.936.516 4.533.516 3.967 0 5.203-1.392 5.203-3.762V59.5h-.002c0-17.825-10.355-25.706-22.77-25.758zm133.63 0c-7.418 0-13.548 3.865-17.412 9.068v-4.277c0-2.524-1.288-4.018-5.049-4.018-1.597 0-3.503.413-4.533.67v60.016c.824.258 2.782.516 4.533.516 3.967 0 5.203-1.39 5.203-3.76V52.342c2.267-4.894 8.089-9.84 14.89-9.84 8.139 0 12.26 5.307 12.26 14.22v38.481c1.03.258 2.885.514 4.636.514 3.967 0 5.203-1.39 5.203-3.76V52.342c2.267-4.894 8.089-9.84 14.89-9.84 7.984 0 12.26 5.305 12.26 14.217v38.482c.978.258 2.937.516 4.534.516 3.967 0 5.305-1.392 5.305-3.762V55.64c0-12.003-6.905-21.843-19.887-21.895-8.912 0-15.299 4.895-19.42 10.922-3.194-6.8-9.427-10.922-17.412-10.922zm-184.95.822c-4.07 0-5.305 1.493-5.305 3.76v56.873c.98.257 2.885.515 4.533.566 3.967 0 5.305-1.39 5.305-3.76v-56.77c-.979-.257-2.936-.67-4.533-.67zm117.1 7.883c10.87 0 17.516 8.139 17.928 18.494h-37.762c1.597-12.106 10.149-18.597 19.834-18.494zm173.04 23.69c2.078.007 4.216.064 6.393.161v11.592c-4.637 6.182-11.591 10.354-19.834 10.354-8.088 0-12.621-4.946-12.621-10.252 0-9.42 11.518-11.899 26.062-11.854z" fill="#fff"/>
	</g>
	<path d="m434.54 142.01c-1.5879-1e-5 -2.68 0.323-3.2754 0.96808-0.54584 0.6451-0.81808 1.4634-0.81808 2.4558v47.266c0.39698 0.0993 0.96761 0.17307 1.712 0.22269 0.79396 0.0993 1.563 0.15001 2.3073 0.15001 1.5879 0 2.6553-0.323 3.2012-0.96809 0.59546-0.6451 0.89231-1.4633 0.89231-2.4558v-47.266c-0.39698-0.0993-0.99221-0.17308-1.7862-0.2227-0.74434-0.0992-1.4888-0.15001-2.2331-0.15zm42.056 0c-1.5879-1e-5 -2.68 0.323-3.2754 0.96808-0.54586 0.6451-0.81963 1.4634-0.81963 2.4558v15.706c-1.3398-1.5383-2.9517-2.778-4.8374-3.7208-1.836-0.94284-4.0201-1.415-6.5508-1.415-1.8857 0-3.7959 0.37221-5.7312 1.1166-1.9353 0.74434-3.6964 1.8856-5.2843 3.4239-1.5383 1.5383-2.8041 3.4732-3.7966 5.8054-0.99246 2.2826-1.4892 4.9881-1.4892 8.1143s0.47219 5.8547 1.415 8.187c0.94284 2.3323 2.1825 4.2933 3.7208 5.8812 1.5383 1.5879 3.2517 2.7784 5.1374 3.5724 1.9353 0.79396 3.8702 1.1908 5.8054 1.1908 2.5308 0 4.8132-0.49679 6.8478-1.4892 2.0842-0.99245 3.8206-2.6043 5.21-4.8374h0.0742v2.0846c0 0.69472 0.1 1.3392 0.29848 1.9346 0.24811 0.59548 0.64493 1.0923 1.1908 1.4892 0.59548 0.34736 1.4629 0.52116 2.6042 0.52116 0.8436 0 1.6142-0.0507 2.3089-0.15001 0.69471-0.0992 1.2392-0.19767 1.6362-0.29692-0.14887-2.3819-0.27191-4.6644-0.37115-6.8478-0.0496-2.1834-0.0742-4.6151-0.0742-7.2947v-36.027c-0.39699-0.0993-0.99221-0.17308-1.7862-0.2227-0.74434-0.0992-1.4888-0.15-2.2331-0.15zm-168.82 1.862c-3.3744 0-6.5012 0.64444-9.3793 1.9346-2.8781 1.2406-5.3836 2.977-7.5174 5.21-2.0842 2.233-3.7222 4.8631-4.9131 7.8901-1.191 3.027-1.7862 6.2769-1.7862 9.7505 0 3.5728 0.59522 6.8735 1.7862 9.9005 1.1909 3.027 2.829 5.6325 4.9131 7.8159 2.1338 2.1834 4.6393 3.8952 7.5174 5.1358 2.8781 1.1909 6.005 1.7862 9.3793 1.7862 2.8285 0 5.3586-0.22301 7.5916-0.66962 2.233-0.49623 4.3924-1.1914 6.4766-2.0846 0.0992-0.39698 0.14846-0.74458 0.14846-1.0423v-0.96655c0-1.5879-0.37221-2.7799-1.1166-3.5739-0.74435-0.8436-1.7364-1.265-2.977-1.265-0.54585 0-1.0919 0.1-1.6377 0.29847-0.54586 0.19849-1.1918 0.4215-1.9362 0.66961-0.74435 0.24812-1.6364 0.47114-2.6785 0.66963-0.99246 0.19849-2.1844 0.29847-3.5739 0.29847-2.1338 0-4.1179-0.37222-5.9539-1.1166s-3.4495-1.8364-4.8389-3.2754c-1.3398-1.4887-2.4057-3.2759-3.1996-5.3601-0.74435-2.1338-1.1166-4.5408-1.1166-7.2205 0-2.5804 0.37221-4.9121 1.1166-6.9962 0.79396-2.1338 1.8598-3.9456 3.1996-5.4343 1.3894-1.4887 3.0029-2.6299 4.8389-3.4239 1.836-0.84358 3.8201-1.265 5.9539-1.265 1.3895 0 2.606 0.1 3.6481 0.29847 1.0421 0.19849 1.9357 0.4215 2.68 0.66962 0.79397 0.24811 1.4876 0.47113 2.0831 0.66962 0.59547 0.19849 1.1415 0.29847 1.6377 0.29847 1.0421 0 1.9111-0.44758 2.6058-1.3408 0.6947-0.8932 1.0423-2.1329 1.0423-3.7208 0-0.29772-0.0261-0.5715-0.0758-0.81962 0-0.29774-0.0246-0.61919-0.0742-0.96655-2.0842-0.84359-4.2913-1.5142-6.6235-2.0104-2.2826-0.49623-4.6897-0.74385-7.2205-0.74385zm39.747 0.22269c-1.5879 0-2.7046 0.34759-3.3496 1.0423-0.59548 0.64511-0.89231 1.4634-0.89231 2.4558v45.107c0.39698 0.0993 0.96759 0.17307 1.7119 0.22269 0.79396 0.0993 1.5876 0.15001 2.3816 0.15001 1.5879 0 2.68-0.323 3.2754-0.96809 0.64509-0.69472 0.96809-1.5391 0.96809-2.5316v-17.566h22.628v20.693c0.39698 0.0993 0.99221 0.17307 1.7862 0.22269 0.79396 0.0993 1.5876 0.15001 2.3816 0.15001 1.5879 0 2.6799-0.323 3.2754-0.96809 0.64509-0.69472 0.96654-1.5391 0.96654-2.5316v-45.106c-0.39698-0.0993-0.9922-0.17462-1.7862-0.22423-0.79397-0.0993-1.5876-0.14846-2.3816-0.14846-1.5879 0-2.7046 0.34759-3.3497 1.0423-0.59547 0.64511-0.89231 1.4634-0.89231 2.4558v17.195h-22.628v-20.321c-0.39698-0.0993-0.99376-0.17462-1.7877-0.22423-0.74434-0.0993-1.5134-0.14846-2.3073-0.14846zm-103.69 0.14846c-1.836 0-3.028 0.37221-3.5739 1.1165-0.49623 0.69472-0.74385 1.6129-0.74385 2.7543v40.641c0 1.1413 0.24762 2.0842 0.74385 2.8285 0.54585 0.69472 1.7378 1.0423 3.5739 1.0423h9.9732c4.1187 0 7.7916-0.64599 11.017-1.9362 3.2751-1.2902 6.0544-3.0267 8.337-5.21 2.2826-2.233 4.0191-4.8385 5.2101-7.8159 1.1909-2.9774 1.7862-6.178 1.7862-9.602 0-3.6225-0.61984-6.897-1.8604-9.8247-1.191-2.9277-2.929-5.4332-5.2116-7.5174-2.233-2.0842-4.9615-3.673-8.187-4.7647-3.2255-1.1413-6.8476-1.7119-10.867-1.7119zm4.0193 7.5932h6.4751c2.3819 0 4.6152 0.3476 6.6993 1.0423 2.0842 0.69472 3.896 1.736 5.4343 3.1254 1.5383 1.3398 2.7534 3.0271 3.6466 5.0616 0.89321 1.9849 1.3408 4.2674 1.3408 6.8478 0 2.8781-0.44758 5.3836-1.3408 7.5174-0.8932 2.1338-2.1083 3.921-3.6466 5.3601-1.5383 1.3894-3.3501 2.4569-5.4343 3.2012-2.0345 0.69471-4.217 1.0408-6.5493 1.0408h-6.6251zm159.29 4.1677c-2.4811 0-4.7898 0.47218-6.9235 1.415-2.1338 0.94283-3.9933 2.2579-5.5812 3.945-1.5383 1.6376-2.7549 3.597-3.6481 5.8797-0.89321 2.233-1.3392 4.6893-1.3392 7.3689 0 2.6796 0.42143 5.1851 1.265 7.5174 0.89322 2.2826 2.159 4.2683 3.7966 5.9554 1.6376 1.6872 3.6462 3.0022 6.0281 3.945 2.3819 0.94283 5.0873 1.4135 8.1143 1.4135 2.8285 0 5.3586-0.29683 7.5916-0.89231 2.233-0.64509 4.0941-1.3157 5.5828-2.0104 0.0496-0.29774 0.0742-0.59458 0.0742-0.89231 0.0496-0.29774 0.0742-0.57152 0.0742-0.81963 0-1.3398-0.29684-2.4057-0.89231-3.1996-0.54585-0.79397-1.2657-1.1923-2.1589-1.1923-0.6451 0-1.2895 0.1-1.9346 0.29846-0.6451 0.1985-1.3649 0.44612-2.1589 0.74386-0.79395 0.24811-1.6876 0.47113-2.68 0.66962-0.99246 0.19849-2.1583 0.29847-3.4981 0.29847-3.1262 0-5.6579-0.74442-7.5932-2.2331-1.8857-1.5383-3.0023-3.747-3.3496-6.6251h25.829c0.24811-1.2406 0.3727-2.4802 0.3727-3.7208 0-2.233-0.37223-4.4171-1.1166-6.5508-0.69473-2.1338-1.7621-4.044-3.2012-5.7312-1.3895-1.6872-3.1505-3.0268-5.2843-4.0193-2.1338-1.0421-4.5901-1.5635-7.3689-1.5635zm97.359 0c-2.4811 0-4.7882 0.47218-6.922 1.415-2.1338 0.94283-3.9948 2.2579-5.5828 3.945-1.5383 1.6376-2.7549 3.597-3.6481 5.8797-0.89322 2.233-1.3392 4.6893-1.3392 7.3689 0 2.6796 0.42143 5.1851 1.265 7.5174 0.89321 2.2826 2.159 4.2683 3.7966 5.9554 1.6376 1.6872 3.6478 3.0022 6.0297 3.945 2.3819 0.94283 5.0858 1.4135 8.1128 1.4135 2.8285 0 5.3586-0.29683 7.5916-0.89231 2.233-0.64509 4.0941-1.3157 5.5828-2.0104 0.0496-0.29774 0.0742-0.59458 0.0742-0.89231 0.0497-0.29774 0.0758-0.57152 0.0758-0.81963 0-1.3398-0.29838-2.4057-0.89385-3.1996-0.54585-0.79397-1.2657-1.1923-2.1589-1.1923-0.64508 0-1.2895 0.1-1.9346 0.29846-0.64509 0.1985-1.3649 0.44612-2.1589 0.74386-0.79396 0.24811-1.6876 0.47113-2.68 0.66962-0.99246 0.19849-2.1583 0.29847-3.4981 0.29847-3.1262 0-5.6563-0.74442-7.5916-2.2331-1.8857-1.5383-3.0023-3.747-3.3496-6.6251h25.828c0.24811-1.2406 0.3727-2.4802 0.3727-3.7208 0-2.233-0.37221-4.4171-1.1166-6.5508-0.69471-2.1338-1.7621-4.044-3.2012-5.7312-1.3894-1.6872-3.1505-3.0268-5.2843-4.0193-2.1338-1.0421-4.59-1.5635-7.3689-1.5635zm42.949 0c-2.5308 0-4.8132 0.57062-6.8478 1.7119-1.9849 1.0917-3.5983 2.5067-4.8389 4.2435l-0.0742-1.0423c0-1.3894-0.34761-2.4814-1.0423-3.2754-0.64509-0.84358-1.7371-1.265-3.2754-1.265-0.69472 0-1.3392 0.0738-1.9346 0.2227-0.54586 0.0992-1.0919 0.22383-1.6377 0.37269v35.728c0.39698 0.0993 0.96759 0.17307 1.7119 0.22269 0.79395 0.0993 1.563 0.15001 2.3073 0.15001 1.5879 0 2.6553-0.323 3.2012-0.96809 0.59547-0.6451 0.89231-1.4633 0.89231-2.4558v-21.81c0.84358-1.4887 2.0602-2.6791 3.6481-3.5723 1.6376-0.89322 3.2494-1.3408 4.8374-1.3408 2.5308 0 4.4918 0.74442 5.8812 2.2331 1.3894 1.4887 2.0846 3.8219 2.0846 6.9978v20.543c0.39699 0.0993 0.96761 0.17307 1.7119 0.22269 0.79397 0.0993 1.563 0.15001 2.3073 0.15001 1.5879 0 2.6538-0.323 3.1996-0.96809 0.59546-0.6451 0.89385-1.4633 0.89385-2.4558v-18.386c0-4.9126-1.1658-8.684-3.4981-11.314-2.3323-2.63-5.5084-3.945-9.5278-3.945zm-140.31 6.3266c2.8781 0 5.0852 0.91822 6.6235 2.7542 1.5879 1.7864 2.5062 4.0197 2.7543 6.6993h-18.683c0.24812-2.8285 1.1663-5.111 2.7543-6.8478 1.6376-1.7368 3.8216-2.6058 6.5508-2.6058zm97.359 0c2.8781 0 5.0868 0.91822 6.6251 2.7542 1.5879 1.7864 2.5061 4.0197 2.7542 6.6993h-18.684c0.24811-2.8285 1.1663-5.111 2.7543-6.8478 1.6375-1.7368 3.8216-2.6058 6.5508-2.6058zm-41.014 0.44693c1.836 0 3.574 0.42142 5.2116 1.265 1.6375 0.79396 2.9264 2.0352 3.8693 3.7224v13.473c-0.94284 1.7368-2.2579 3.0272-3.945 3.8708-1.6376 0.84358-3.3494 1.265-5.1358 1.265-1.6376 0-3.1002-0.29839-4.3904-0.89386-1.2406-0.59547-2.308-1.4137-3.2012-2.4558-0.89322-1.0917-1.5884-2.3821-2.0846-3.8708-0.44661-1.4887-0.66963-3.1021-0.66963-4.8389 0-1.6375 0.22302-3.151 0.66963-4.5404 0.49622-1.4391 1.1914-2.6541 2.0846-3.6466 0.8932-1.0421 1.9852-1.8603 3.2754-2.4558 1.2902-0.59548 2.7283-0.89386 4.3162-0.89386z"/>
</svg>
