<svg xmlns="http://www.w3.org/2000/svg" width="3090.4" height="807" viewBox="0 0 2317.8 605.25" ><defs><linearGradient id="A" x1="1146.811" x2="1146.811" y1="319.673" y2="32.882" gradientUnits="userSpaceOnUse"><stop stop-color="#a80000" offset="0"/><stop stop-color="#a1000c" offset=".381"/><stop stop-color="#b90019" offset="1"/></linearGradient></defs><path d="M624.21 0h1248v375.09h-1248z" fill="url(#A)"/><path d="M624.21 375.09H25.01c-13.753 0-25.006-11.253-25.006-25.006V24.694C.004 11.566 10.944.001 24.697.001h599.52zM897.744 34.998c6.061-1.793 13.082-.458 17.778 3.871 6.721 5.881 8.071 16.855 2.925 24.169-3.811 5.941-11.274 9.279-18.228 7.996-8.709-1.358-15.978-9.549-15.648-18.468-.143-7.936 5.551-15.422 13.172-17.568zm-134.572 65.113c16.03-4.351 32.975-3.743 49.2-.825 12.422 2.408 24.769 6.098 35.961 12.054.615 5.588.48 11.649-2.258 16.713-1.838 3.428-5.551 5.776-9.474 5.603-5.753-.173-10.922-2.993-16.195-4.966-11.012-4.538-22.976-6.819-34.888-6.294-11.154.555-22.249 3.976-31.445 10.382-8.499 5.768-15.257 13.945-19.661 23.201-4.988 10.539-7.059 22.331-6.714 33.943.345 10.802 2.648 21.663 7.644 31.303 5.963 11.934 16.128 21.746 28.37 27.117 15.745 6.991 34.025 6.339 50.206 1.163 6.654-2.033 12.812-5.521 19.623-7.029 4.216-1.05 9.159.27 11.679 3.968 3.638 5.213 3.758 12.032 3.105 18.115-10.554 5.266-21.956 8.754-33.478 11.162-19.098 3.766-39.396 4.321-57.932-2.348-18.715-6.504-34.941-19.788-45.075-36.801-8.829-14.635-13.262-31.798-13.127-48.848-.195-19.121 5.348-38.406 16.383-54.099 11.409-16.383 28.775-28.43 48.075-33.515zm270.868-1.365c15.28-3.263 31.753-2.175 46.05 4.343 11.162 5.086 20.493 13.93 26.367 24.679 7.314 13.12 9.729 28.332 9.939 43.184l-.038 94.65c.128 4.021-2.115 8.191-6.113 9.414-7.179 2.28-14.905 1.148-22.166-.135l-.038-102.646c-.435-13.442-3.541-27.769-13.06-37.829-8.266-8.979-20.943-12.64-32.87-12.017-12.324.728-24.086 5.896-33.845 13.3-6.068 4.658-11.477 10.299-15.34 16.93-.855 1.223-.683 2.753-.72 4.163l.038 19.256-.008 90.307c.158 4.021-2.595 7.756-6.466 8.814-7.029 2.04-14.522 1.013-21.603-.195l.015-174.103c6.804-1.455 14.012-2.573 20.853-.735 3.683.945 6.939 4.043 7.111 8.004.263 5.566-.008 11.139.113 16.713 10.749-12.767 25.347-22.571 41.782-26.097zm150.474 13.772c23.059-16.405 54.391-20.051 80.765-9.977 12.437 4.846 23.419 13.27 31.415 23.951 8.154 10.757 13.352 23.584 15.835 36.816 2.258 11.882 2.145 24.139.203 36.051l-135.682.03c1.658 12.782 6.579 25.467 15.58 34.888 7.786 8.334 18.363 13.727 29.427 16.195 16.578 3.691 33.965 1.8 50.048-3.278 5.881-1.658 11.492-4.246 17.485-5.528 4.178-1.065 8.791.975 10.937 4.696 3.188 5.378 2.805 11.904 2.378 17.905-14.68 6.474-30.26 10.967-46.177 13.037-14.477 1.898-29.345 1.68-43.567-1.823-12.489-3.045-24.439-8.626-34.416-16.78-10.547-8.491-18.776-19.736-23.989-32.21-7.396-17.823-9.166-37.799-5.986-56.769 3.893-22.729 16.72-43.995 35.743-57.204m13.022 22.706c-10.232 8.634-16.54 21.093-19.496 34.003l-.968 6.128h108.85c-.225-3.683-.638-7.344-1.328-10.974-2.49-12.429-8.911-24.371-19.068-32.18-19.593-15.167-49.53-12.977-67.991 3.023zm212.166-35.331c15.94-5.153 34.265-3.601 48.593 5.326 8.934 5.483 15.783 13.87 20.321 23.254 6.856-9.842 15.602-18.565 26.269-24.221 13.375-7.171 29.337-8.956 44.115-5.783 10.547 2.265 20.426 7.801 27.567 15.933 9.234 10.344 13.937 24.064 15.182 37.724.728 7.779.3 15.602.413 23.411l-.045 90.389c.128 4.321-2.88 8.289-7.074 9.316-7.051 1.905-14.522.953-21.596-.39l-.015-96.33c-.173-8.416.495-16.893-.698-25.257-1.095-7.456-3.773-14.882-8.821-20.583-4.621-5.281-11.229-8.559-18.093-9.699-20.268-3.773-40.942 8.799-50.056 26.659-.908 2.093-.428 4.456-.518 6.669l-.015 109.322c.21 4.238-2.415 8.469-6.616 9.572-7.194 1.988-14.83.975-22.054-.33l-.008-66.296-.195-50.948c-.548-6.969-2.138-13.997-5.693-20.081-3.436-5.971-9.009-10.704-15.527-12.97-11.207-3.938-23.944-2.573-34.34 3.03-7.749 4.096-14.447 10.172-19.271 17.485-1.335 2.235-3.226 4.441-3.181 7.186-.075 2.813.023 5.626.015 8.439l-.008 104.852c.225 4.186-2.288 8.409-6.436 9.564-7.111 2.048-14.725 1.125-21.873-.27l.008-173.9c6.489-1.433 13.307-2.58 19.901-1.088 3.788.803 7.194 3.773 7.734 7.741.645 5.063.143 10.194.3 15.28 8.101-10.457 19.046-18.926 31.715-23.006zm282.495-2.46c12.895-.923 26.022-.645 38.646 2.378 10.307 2.453 20.358 7.134 27.807 14.822 8.139 8.094 12.67 19.158 14.665 30.32 2.138 10.817 1.373 21.881 1.508 32.833l-.023 97.126c-6.714 1.238-13.712 2.1-20.448.6-4.006-.818-7.524-4.231-7.636-8.446-.12-5.401.008-10.802-.038-16.195-7.246 7.644-15.527 14.41-24.971 19.143-12.64 6.436-27.034 9.001-41.137 8.394-11.454-.473-22.984-3.308-32.795-9.369-10.787-6.579-19.151-17.178-22.541-29.397-3.593-12.872-2.415-27.387 4.628-38.909 5.086-8.319 12.985-14.567 21.573-18.986 12.489-6.361 26.359-9.467 40.191-11.237 18.13-2.235 36.471-2.108 54.684-.945-.068-7.861-.135-15.843-2.205-23.486-1.613-5.971-4.733-11.672-9.549-15.64-5.363-4.411-12.174-6.624-18.956-7.621-18.858-2.505-38.016.855-56.011 6.541-3.781 1.035-7.501 2.385-11.402 2.828-3.938.383-7.981-1.68-9.797-5.213-2.828-5.393-2.64-11.762-1.913-17.635 17.913-6.489 36.726-10.464 55.719-11.904m18.978 93.788c-13.052.788-26.322 2.243-38.519 7.216-7.006 2.933-13.772 7.576-17.253 14.53-5.258 10.434-2.715 24.071 5.986 31.895 5.963 5.633 14.005 8.589 22.076 9.422a66.53 66.53 0 0 0 36.313-7.126c9.782-4.906 18.25-12.197 25.077-20.711.6-.855 1.553-1.658 1.433-2.828l.038-32.248a339.16 339.16 0 0 0-35.151-.15zm-816.205-90.774c7.239-2.318 15.025-1.073 22.294.518l.008 163.864c.023 3.06-.728 6.414-3.256 8.401-3.173 2.528-7.456 2.933-11.364 3.053-4.733.09-9.437-.503-14.065-1.403l.008-165.371c-.09-4.021 2.49-7.876 6.376-9.061z" fill="#fff"/><path d="M421.97 333.52c4.063 2.188 12.19 4.689 22.818 4.689 17.817.313 27.507-6.564 34.696-22.505l95.648-213.18c-4.063-2.188-12.816-4.376-19.692-4.689-12.19-.313-28.757 2.188-39.384 27.507l-30.945 73.142-60.952-98.461c-4.063-1.25-13.441-2.813-20.63-2.813-21.255 0-33.445 7.814-45.948 21.255l-58.764 64.39 47.511 74.705c8.752 13.753 20.317 20.63 39.072 20.63 12.19 0 22.505-2.813 27.194-5.001l-57.201-86.27 40.635-42.823 66.578 104.4zm-125.34-80.644c0 15.629-6.252 24.693-36.884 24.693-4.064 0-7.502-.313-10.94-.938V68.461c0-15.941 5.314-32.195 36.258-32.195 3.751 0 7.814.313 11.565 1.25zm-63.452-31.257c0 29.382-19.067 50.637-58.139 55.013-28.132 3.126-69.079-.625-88.458-2.813-.625-3.126-1.25-7.189-1.25-10.315 0-25.631 13.753-31.57 26.881-31.57 13.441 0 34.696 2.188 50.637 2.188 17.504 0 22.505-5.939 22.505-11.565 0-7.502-6.877-10.315-20.63-13.128l-36.571-6.564c-30.632-5.939-46.886-27.194-46.886-49.699 0-27.506 19.38-50.324 57.513-54.7 28.757-3.126 64.078.313 83.145 2.813.625 3.438.938 6.564.938 10.002 0 25.631-13.441 30.945-26.569 30.945-10.002 0-25.318-1.875-43.135-1.875-18.129 0-25.318 5.001-25.318 10.94 0 6.251 7.189 9.065 18.442 10.94l35.321 6.564c36.259 6.877 51.575 27.507 51.575 52.825" fill="url(#A)"/><path d="M1872.2 375.09h420.6c13.753 0 25.006-11.253 25.006-25.006V24.754c0-13.253-11.003-24.756-24.756-24.756H1872.2z" fill="#fff" fill-rule="evenodd"/><g fill="url(#A)"><path d="M1943.7 100.27c6.502-2.501 13.503-1.25 20.005.25v75.768h87.02v-65.265c-.25-4.751 2.001-9.502 6.752-11.253 6.252-2 12.753-.75 19.005.75v168.04c.5 4.501-2.501 8.752-6.502 10.252-6.501 2-13.003.75-19.255-1v-77.518h-87.02v68.266c.25 4.251-2.251 8.252-6.002 10.002-6.502 2.25-13.503 1-20.005-.75v-166.79c-.25-4.251 1.75-9.002 6.002-10.753z"/><path d="M2117.7 101.52c2.751-2.001 6.252-2.251 9.502-2.251h31.007c14.253 0 28.257.5 41.76 5.001 21.755 6.502 40.76 21.755 50.512 42.26 8.252 18.004 10.002 38.509 7.002 57.764-4.001 22.505-16.754 43.76-35.508 57.013-15.754 11.003-35.008 16.754-54.263 16.754h-40.509c-3.751-.25-8.252 0-10.753-3.251-2.751-3.501-2.501-8.002-2.501-12.253v-150.04c0-4.001.25-8.502 3.751-11.003m22.255 21.505V254.3h27.757c16.004-.25 32.508-5.251 44.26-16.504 14.003-12.503 20.755-31.757 20.255-50.262.5-14.503-4.001-29.257-13.003-40.76-8.252-10.502-20.255-17.754-33.258-21.005-7.502-2.251-15.504-2.751-23.506-2.751z"/></g><path d="M25.006 0C11.253 0 0 11.253 0 25.006v226.3c0-20.005 16.003-36.509 36.008-37.259l2281.8-69.266V25.001c0-13.753-11.253-25.006-25.006-25.006z" opacity=".2" fill="#fff"/><path d="M1216.934 602.55l2.498-10.438h-2.652l.404-1.7h7.514l-.404 1.7h-2.671l-2.498 10.438zm6.457 0l2.902-12.138h2.94l.48 9.112h.058l4.824-9.112h3.133l-2.902 12.138h-2.114l1.672-7.038q.135-.527.288-1.071.173-.561.307-1.02h-.058l-4.901 9.129h-1.96l-.5-9.112h-.058q-.096.527-.211 1.156-.115.629-.25 1.224l-1.614 6.732z"/><path d="M1185.781 499.54l11.374-20.686h44.67c-1.284 10.001-14.675 28.978-39.91 56.843-23.452 26.924-37.062 49.065-40.96 66.676h33.592l3.136-8.204.307-.257-.048-.263.274-.941c8.286-18.547 20.702-36.494 37.279-53.677 31.823-35.304 46.312-61.378 43.234-78.556h-95.053l-16.388 39.064zm219.338-17.868c7.643-7.009 11.117-13.849 10.351-20.429h-127.667c-.758 10.428-2.931 19.49-6.944 27.269h67.095c.793-2.479 1.714-4.276 2.624-5.642.668-1.198 2.483-1.54 5.408-1.198zm-81.702 23.507l14.861-2.733 5.983-7.781h-66.019c-11.677 14.704-10.858 24.959 2.378 30.86 1.264.079 1.446-.856.503-3.078-1.409-2.821-1.534-5.899-.436-9.145.767-2.65 1.938-4.53 3.487-5.813h25.462l-20.311 27.951c-2.797 1.794-6.406 2.562-10.79 2.051h-29.3l-6.943 6.926h36.625c7.943.428 13.703-1.284 16.974-4.872l19.966-27.866c2.445-4.19 4.894-6.412 7.558-6.5zm-161.033-6.067c-.922-20.515-8.493-32.997-22.743-37.61-16.794-5.813-33.472.168-50.102 18.036-5.948 6.498-11.19 13.934-16.077 22.312-3.911 6.41-6.64 11.966-8.038 16.498l-3.423 10.514c-2.622 8.549-4.295 16.926-5.003 25.216-2.63 25.475 4.279 41.628 20.605 48.297 16.523 6.752 33.357 1.623 50.38-15.557 10.196-10.597 18.074-22.138 23.89-34.706l3.795-8.977a113.81 113.81 0 0 0 6.671-42.824zm-69.358 27.951c3.53-9.915 8.62-20.6 14.971-31.711 9.929-17.867 18.442-25.475 25.464-23.253 10.667 3.591 7.38 25.986-9.653 67.36-4.428 9.912-10.083 20.426-16.88 31.54-10.644 16.416-18.716 23.507-24.373 20.942-5.864-2.735-6.3-13.332-1.213-31.802zm-33.906-28.379c-.816-20.429-8.48-32.911-22.654-37.61-16.871-5.728-33.513.428-49.978 18.207-5.968 6.409-11.296 13.849-16.185 22.226-3.911 6.41-6.64 11.969-8.022 16.584l-3.528 10.428c-2.536 8.546-4.206 16.924-5.016 25.133-2.529 25.555 4.471 41.714 20.885 48.378 16.341 6.752 33.16 1.54 50.113-15.552 10.182-10.685 18.255-22.138 24.069-34.708l3.707-8.971c4.894-13.677 7.086-27.954 6.684-42.741zm-69.253 28.036c3.533-9.915 8.563-20.429 14.9-31.625 10.034-17.782 18.519-25.561 25.538-23.338 10.667 3.591 7.395 26.071-9.669 67.275-4.233 10.001-9.978 20.515-16.775 31.628-10.628 16.499-18.808 23.507-24.462 20.943-5.864-2.736-6.316-13.423-1.216-31.802z" fill-rule="evenodd"/></svg>