<?xml version="1.0" encoding="UTF-8"?>
<svg width="800" height="100.5" version="1.1" xmlns="http://www.w3.org/2000/svg">
	<defs>
		<linearGradient id="A" x1="1456.7" x2="1456.7" y2="500" gradientTransform="matrix(.201 0 0 .201 .011265 4.8214e-6)" gradientUnits="userSpaceOnUse">
			<stop stop-color="red" offset=".4"/>
			<stop stop-color="#d42321" offset="1"/>
		</linearGradient>
		<linearGradient id="B" x1="1459.5" x2="1450.8" y1="233.73" y2="-15.325" gradientTransform="matrix(.201 0 0 .201 .011265 4.8214e-6)" gradientUnits="userSpaceOnUse">
			<stop stop-color="#fff" offset="0"/>
			<stop stop-color="#fff" stop-opacity=".835" offset=".12"/>
			<stop stop-color="#fff" stop-opacity=".658" offset=".269"/>
			<stop stop-color="#fff" stop-opacity=".511" offset=".42"/>
			<stop stop-color="#fff" stop-opacity=".397" offset=".568"/>
			<stop stop-color="#fff" stop-opacity=".315" offset=".716"/>
			<stop stop-color="#fff" stop-opacity=".266" offset=".86"/>
			<stop stop-color="#fff" stop-opacity=".25" offset="1"/>
		</linearGradient>
		<linearGradient id="C" x1="361.92" x2="361.92" y1="28.806" y2="471.22" gradientTransform="matrix(.201 0 0 .201 .011265 4.8214e-6)" gradientUnits="userSpaceOnUse">
			<stop stop-color="#002a91" offset="0"/>
			<stop stop-color="#002672" offset=".8"/>
		</linearGradient>
		<linearGradient id="D" x1="365.45" x2="359.6" y1="263.25" y2="95.751" gradientTransform="matrix(.201 0 0 .201 .011265 4.8214e-6)" gradientUnits="userSpaceOnUse">
			<stop stop-color="#fff" offset="0"/>
			<stop stop-color="#fff" stop-opacity=".835" offset=".12"/>
			<stop stop-color="#fff" stop-opacity=".658" offset=".269"/>
			<stop stop-color="#fff" stop-opacity=".511" offset=".42"/>
			<stop stop-color="#fff" stop-opacity=".397" offset=".568"/>
			<stop stop-color="#fff" stop-opacity=".315" offset=".716"/>
			<stop stop-color="#fff" stop-opacity=".266" offset=".86"/>
			<stop stop-color="#fff" stop-opacity=".25" offset="1"/>
		</linearGradient>
	</defs>
	<g>
		<path d="m393.36 0h401.76c2.7024 0 4.878 2.1756 4.878 4.878v90.737c0 2.7024-2.1756 4.878-4.878 4.878h-401.76z" fill="#002a91" stop-color="#000000"/>
		<path d="m393.36 2.01h399.95c2.5944 0 4.683 2.0886 4.683 4.6829v87.109c0 2.5943-2.0886 4.6829-4.683 4.6829h-399.95z" fill="#fafafa" stop-color="#000000"/>
		<path d="m449.83 22.576c-1.1488 0-2.0777 0.13814-2.7888 0.41166-0.65645 0.27353-1.1767 0.65567-1.5597 1.148-0.32822 0.49236-0.57416 1.0391-0.73828 1.6408-0.10938 0.60171-0.16428 1.2318-0.16428 1.8882v32.084c0 2.024 0.3008 3.8838 0.90256 5.5796 0.60174 1.6412 1.4777 3.0903 2.6265 4.3485 1.1488 1.2035 2.5432 2.1608 4.1842 2.872 1.6959 0.65646 3.6104 0.98566 5.7439 0.98566 2.3523 0 4.4031-0.27434 6.1536-0.82139 1.8052-0.54706 3.5023-1.2849 5.0887-2.2148 0.0547-0.27352 0.0812-0.54786 0.0812-0.82138v-0.90256c0-1.5317-0.30083-2.6536-0.90255-3.3648-0.60174-0.71118-1.4229-1.0668-2.4622-1.0668-0.43765 0-0.90111 0.08327-1.3934 0.24738-0.43763 0.16412-0.93145 0.35519-1.4785 0.574-0.49235 0.21882-1.0656 0.40989-1.722 0.574-0.6565 0.16411-1.3962 0.24738-2.2168 0.24738-1.9147 0-3.3638-0.57515-4.3485-1.7239s-1.4766-2.7626-1.4766-4.8413v-19.12h10.831c0.87524 0 1.5866-0.27241 2.1337-0.81945 0.60173-0.54706 0.90256-1.5043 0.90256-2.872s-0.13622-2.4631-0.40974-3.2836h-13.457v-10.176c-1.0394-0.38293-2.2161-0.574-3.5291-0.574zm313.43 0c-1.1488 0-2.0796 0.13814-2.7908 0.41166-0.65642 0.27353-1.1767 0.65567-1.5597 1.148-0.32822 0.49236-0.57415 1.0391-0.73828 1.6408-0.10939 0.60171-0.16428 1.2318-0.16428 1.8882v32.084c0 2.024 0.30082 3.8838 0.90256 5.5796 0.60174 1.6412 1.4777 3.0903 2.6265 4.3485 1.1488 1.2035 2.5431 2.1608 4.1842 2.872 1.6959 0.65646 3.6104 0.98566 5.7439 0.98566 2.3523 0 4.405-0.27434 6.1556-0.82139 1.8053-0.54706 3.5004-1.2849 5.0868-2.2148 0.0547-0.27352 0.083-0.54786 0.083-0.82138v-0.90256c0-1.5317-0.30082-2.6536-0.90256-3.3648-0.60175-0.71118-1.4229-1.0668-2.4622-1.0668-0.43765 0-0.90305 0.08327-1.3954 0.24738-0.43763 0.16412-0.92952 0.35519-1.4766 0.574-0.49234 0.21882-1.0675 0.40989-1.7239 0.574-0.6565 0.16411-1.3943 0.24738-2.2148 0.24738-1.9147 0-3.3638-0.57515-4.3485-1.7239s-1.4785-2.7626-1.4785-4.8413v-19.12h10.833c0.87525 0 1.5866-0.27241 2.1337-0.81945 0.60175-0.54706 0.90254-1.5043 0.90254-2.872s-0.13812-2.4631-0.41165-3.2836h-13.457v-10.176c-1.0394-0.38293-2.2142-0.574-3.5271-0.574zm-157.72 10.011c-2.7352 0-5.2798 0.52031-7.6321 1.5597-2.3523 1.0394-4.4031 2.4885-6.1536 4.3485-1.6958 1.8052-3.0372 3.9658-4.0219 6.4822-0.98467 2.4617-1.4766 5.1709-1.4766 8.125 0 2.954 0.46539 5.7162 1.3954 8.2873 0.98467 2.5164 2.379 4.7034 4.1842 6.5634 1.8052 1.86 4.0206 3.3111 6.6465 4.3504 2.6258 1.0394 5.6074 1.5577 8.9444 1.5577 3.1181 0 5.9087-0.32728 8.3704-0.98373 2.4617-0.71118 4.5125-1.449 6.1536-2.2148 0.0547-0.32823 0.0812-0.65744 0.0812-0.98566 0.0547-0.32823 0.083-0.62904 0.083-0.90256 0-1.477-0.3292-2.6538-0.98567-3.5291-0.60173-0.8753-1.3944-1.3123-2.3791-1.3123-0.71112 0-1.4225 0.10974-2.1337 0.32855-0.71119 0.21882-1.5039 0.49123-2.3791 0.81945-0.87522 0.27352-1.8609 0.5214-2.955 0.74021-1.0941 0.21882-2.3786 0.32662-3.8557 0.32662-3.4464 0-6.2369-0.81919-8.3704-2.4603-2.0788-1.6959-3.3085-4.1307-3.6914-7.3036h28.474c0.27351-1.3676 0.40972-2.7355 0.40972-4.1031 0-2.4617-0.41056-4.8682-1.2311-7.2205-0.76587-2.3523-1.9426-4.4579-3.5291-6.3179-1.5317-1.8599-3.4728-3.3375-5.8251-4.4316-2.3522-1.1488-5.0595-1.7239-8.123-1.7239zm82.121 0c-2.7352 0-5.2779 0.52031-7.6302 1.5597-2.3523 1.0394-4.4031 2.4885-6.1536 4.3485-1.6959 1.8052-3.0372 3.9658-4.0219 6.4822-0.98468 2.4617-1.4766 5.1709-1.4766 8.125 0 2.954 0.4654 5.7162 1.3954 8.2873 0.98467 2.5164 2.379 4.7034 4.1842 6.5634 1.8052 1.86 4.0206 3.3111 6.6465 4.3504 2.6258 1.0394 5.6075 1.5577 8.9444 1.5577 3.1182 0 5.9068-0.32728 8.3685-0.98373 2.4617-0.71118 4.5145-1.449 6.1556-2.2148 0.0547-0.32823 0.0812-0.65744 0.0812-0.98566 0.0547-0.32823 0.083-0.62904 0.083-0.90256 0-1.477-0.32921-2.6538-0.98567-3.5291-0.60175-0.8753-1.3944-1.3123-2.3791-1.3123-0.7111 0-1.4225 0.10974-2.1337 0.32855-0.71117 0.21882-1.5039 0.49123-2.3791 0.81945-0.87525 0.27352-1.861 0.5214-2.9551 0.74021-1.094 0.21882-2.3786 0.32662-3.8557 0.32662-3.4464 0-6.2369-0.81919-8.3704-2.4603-2.0788-1.6959-3.3104-4.1307-3.6934-7.3036h28.474c0.27352-1.3676 0.41166-2.7355 0.41166-4.1031 0-2.4617-0.41057-4.8682-1.2311-7.2205-0.76586-2.3523-1.9426-4.4579-3.5291-6.3179-1.5317-1.8599-3.4728-3.3375-5.8251-4.4316-2.3523-1.1488-5.0615-1.7239-8.125-1.7239zm47.638 0c-2.7899 0-5.3061 0.63005-7.549 1.8882-2.1882 1.2035-3.9666 2.7624-5.3342 4.6771l-0.0812-1.1499c0-1.5317-0.38406-2.735-1.1499-3.6102-0.71111-0.92999-1.9144-1.3954-3.6102-1.3954-0.76584 0-1.4772 0.08328-2.1337 0.24738-0.60174 0.10941-1.2034 0.24562-1.8051 0.40973v39.388c0.43763 0.10941 1.0677 0.19075 1.8882 0.24545 0.8753 0.10941 1.7228 0.16428 2.5434 0.16428 1.7505 0 2.9273-0.35566 3.5291-1.0668 0.65645-0.71111 0.98374-1.6136 0.98374-2.7077v-24.042c0.92998-1.6412 2.2714-2.9541 4.0219-3.9388 1.8052-0.98467 3.5817-1.4785 5.3322-1.4785 2.7899 0 4.9524 0.82112 6.4841 2.4622 1.5317 1.6411 2.296 4.2122 2.296 7.7133v22.649c0.43762 0.10941 1.0677 0.19075 1.8882 0.24545 0.87531 0.10941 1.7228 0.16428 2.5434 0.16428 1.7505 0 2.9273-0.35566 3.529-1.0668 0.65646-0.71111 0.98374-1.6136 0.98374-2.7077v-20.268c0-5.4155-1.2846-9.5741-3.8557-12.473-2.5714-2.8993-6.073-4.3485-10.504-4.3485zm-192.99 0.08117c-3.1728 0-5.8253 0.65647-7.9587 1.9694-2.0788 1.2582-3.8307 2.9004-5.253 4.9245l-0.0811-1.5597c-0.10942-1.5317-0.49349-2.735-1.15-3.6102-0.65643-0.92999-1.8597-1.3954-3.6102-1.3954-0.76584 0-1.4772 0.08328-2.1337 0.24738-0.60173 0.10941-1.2034 0.24562-1.8051 0.40972v54.731c0.43762 0.1094 1.0677 0.19268 1.8882 0.24738 0.87531 0.10941 1.7228 0.16428 2.5434 0.16428 1.7505 0 2.9273-0.35566 3.5291-1.0668 0.65644-0.71111 0.98372-1.6155 0.98372-2.7096v-17.067c1.2582 1.477 2.9268 2.8184 5.0056 4.0219 2.0788 1.1488 4.595 1.722 7.549 1.722 2.0788 0 4.1844-0.41056 6.3179-1.2311 2.1882-0.82055 4.1312-2.0787 5.827-3.7745 1.7505-1.6959 3.1732-3.828 4.2673-6.3991 1.0941-2.5712 1.6408-5.636 1.6408-9.1918 0-3.2823-0.5203-6.1806-1.5597-8.697-0.98475-2.5711-2.2977-4.7052-3.9388-6.401-1.6411-1.7505-3.5273-3.0635-5.6608-3.9388-2.0788-0.92999-4.2128-1.3954-6.401-1.3954zm-49.229 2e-3c-3.0087 0-5.7709 0.54673-8.2873 1.6408-2.5163 1.094-4.6769 2.5697-6.4822 4.4297-1.8053 1.86-3.228 4.0489-4.2673 6.5653-0.98468 2.4617-1.4766 5.0877-1.4766 7.8776 0 2.8993 0.49188 5.6066 1.4766 8.123s2.379 4.7053 4.1842 6.5653c1.8052 1.8052 3.9658 3.2544 6.4822 4.3485 2.5164 1.0394 5.3069 1.5597 8.3704 1.5597 3.0634 0 5.854-0.54673 8.3704-1.6408 2.5164-1.094 4.6486-2.5716 6.3991-4.4316 1.8052-1.86 3.1731-4.0489 4.1031-6.5653 0.98467-2.5164 1.4766-5.1688 1.4766-7.9587s-0.49189-5.4159-1.4766-7.8776c-0.98468-2.5164-2.379-4.7053-4.1842-6.5653-1.7505-1.8599-3.8846-3.3356-6.401-4.4297-2.5164-1.0941-5.2786-1.6408-8.2873-1.6408zm139.02 0.32855c-0.82056 0-1.6946 0.10974-2.6246 0.32855-0.8753 0.21882-1.615 0.46476-2.2168 0.73828l14.36 38.729c0.71118 0.27352 1.4509 0.46652 2.2168 0.57594 0.82055 0.10941 1.6133 0.16428 2.3791 0.16428v-2e-3c1.6958 0 2.9804-0.24594 3.8557-0.73828 0.87527-0.4923 1.5602-1.3948 2.0525-2.7077l13.54-36.104c-0.54705-0.27353-1.2868-0.493-2.2168-0.65711-0.87522-0.21882-1.6679-0.32662-2.3791-0.32662-1.0941 0-2.0798 0.19107-2.955 0.574-0.82056 0.32818-1.4222 1.0396-1.8051 2.1337l-5.4153 16.165c-0.76586 2.3524-1.5321 4.5413-2.298 6.5653-0.71117 1.9693-1.3676 4.1015-1.9694 6.3991h-0.16427c-0.60173-2.2976-1.2582-4.4582-1.9694-6.4822-0.65644-2.024-1.3659-4.1846-2.1317-6.4822l-5.4985-16.248c-0.43769-1.2035-1.0942-1.9413-1.9694-2.2148-0.82061-0.27352-1.7514-0.40973-2.7908-0.40973zm-26.563 6.5634c3.1728 0 5.6058 1.0122 7.3016 3.0362 1.7505 1.9693 2.7627 4.4307 3.0362 7.3847h-20.596c0.27349-3.1181 1.2857-5.6344 3.0362-7.549 1.8052-1.9147 4.2136-2.872 7.2224-2.872zm82.121 0c3.1728 0 5.6077 1.0122 7.3036 3.0362 1.7505 1.9693 2.7627 4.4307 3.0362 7.3847h-20.596c0.2735-3.1181 1.2857-5.6344 3.0362-7.549 1.8052-1.9147 4.2117-2.872 7.2205-2.872zm-194.58 0.49279c1.5317 0 2.9809 0.30081 4.3485 0.90256 1.3676 0.60174 2.5444 1.4777 3.5291 2.6265 1.0394 1.0941 1.8605 2.46 2.4622 4.1011 0.60175 1.6412 0.90256 3.4744 0.90256 5.4985 0 2.2429-0.32921 4.1859-0.98567 5.827-0.65642 1.6411-1.5324 3.007-2.6265 4.1011-1.0394 1.0941-2.2426 1.9152-3.6102 2.4622-1.3129 0.54704-2.6524 0.82139-4.02 0.82139-1.4223 0-2.8166-0.27434-4.1842-0.82139-1.3676-0.54699-2.5992-1.3681-3.6934-2.4622-1.0394-1.1488-1.8869-2.5431-2.5434-4.1842-0.65646-1.6412-0.98566-3.5557-0.98566-5.7439 0-2.0241 0.3008-3.8574 0.90256-5.4985 0.65649-1.6411 1.506-3.007 2.5453-4.1011 1.0941-1.1488 2.3238-2.0248 3.6914-2.6265s2.7903-0.90256 4.2674-0.90256zm46.193 0.16428c1.9147 0 3.5833 0.38214 5.0056 1.148 1.4223 0.71118 2.5991 1.695 3.529 2.9531 0.98465 1.2035 1.6941 2.5998 2.1317 4.1862 0.49233 1.5317 0.74021 3.1455 0.74021 4.8413 2e-5 1.9147-0.27433 3.6647-0.82139 5.2511-0.54705 1.5864-1.3133 2.9543-2.2979 4.1031-0.98469 1.1488-2.188 2.0512-3.6102 2.7077-1.4223 0.60175-2.9812 0.90256-4.6771 0.90256-2.2976 0-4.3219-0.52031-6.0724-1.5597-1.7506-1.0941-3.0636-2.4335-3.9388-4.02v-14.77c1.0394-1.9147 2.4621-3.3374 4.2674-4.2673 1.86-0.98467 3.7746-1.4766 5.7439-1.4766z" fill="#002a91"/>
		<path d="m167.25 4.8214e-6h251.08c3.6984 0 6.6931 2.9947 6.6931 6.6931v87.109c0 3.6984-2.9948 6.6931-6.6931 6.6931h-251.08c-3.6984 0-6.6931-2.9947-6.6931-6.6931v-87.109c0-3.6984 2.9948-6.6931 6.6931-6.6931z" fill="url(#A)"/>
		<path d="m165.38 49.847 0.64316-0.0402 254-8.864c2.7938-0.0201 5.0249-2.3114 5.0047-5.0852v-29.163c0-3.6984-2.9948-6.6931-6.6931-6.6931h-251.08c-3.6984 0-6.6931 2.9947-6.6931 6.6931v48.38c-0.0804-2.7537 2.0703-5.0852 4.8238-5.2259z" fill="url(#B)" opacity=".4"/>
		<path d="m100.42 93.283c2.1105 0.92454 4.3816 1.4271 6.673 1.4271 5.2459 0.12059 8.1202-1.8894 10.232-6.5925l28.159-62.689c-1.8291-0.82413-3.8189-1.2864-5.8288-1.3466-3.6379-0.0804-8.502 0.66327-11.577 8.0598l-9.105 21.467-17.889-29.063c-1.9699-0.52258-3.9998-0.80397-6.0299-0.84423-6.3312 0-9.8484 2.3114-13.507 6.291l-17.386 18.974 13.97 21.989c2.5929 3.9998 5.9896 6.0499 11.517 6.0499 2.7536 0.04021 5.4872-0.46229 8.0397-1.5074l-16.844-25.326 11.94-12.642 19.577 30.691zm-36.922-23.698c0 4.6229-1.809 7.276-10.854 7.276-1.0854 0-2.1707-0.0804-3.236-0.2211v-61.322c0-4.6631 1.5879-9.527 10.693-9.527 1.1457 0 2.2915 0.12059 3.3968 0.34169zm-18.653-9.2656c0 8.6433-5.6479 14.914-17.105 16.16-8.301 0.88437-20.321-0.1608-26.029-0.80396-0.201-0.98484-0.32159-1.9898-0.34169-3.0149 0-7.5172 4.0601-9.2454 7.8789-9.2454 3.9797 0 10.232 0.70348 14.874 0.70348 5.1254 0 6.673-1.7286 6.673-3.3968 0-2.1507-2.0502-3.0551-6.0299-3.8189l-10.894-2.0904c-9.0441-1.7286-13.868-7.9794-13.868-14.611 0-8.0598 5.7082-14.793 16.944-16.039 8.502-0.92454 18.853 0.12059 24.522 0.80397 0.201 0.94466 0.30149 1.9095 0.30149 2.8944 0 7.5172-3.9797 9.1456-7.7986 9.1456-2.9344 0-7.4971-0.54268-12.704-0.54268-5.2862 0-7.4971 1.4673-7.4971 3.236 0 1.8894 2.0904 2.6531 5.4068 3.236l10.392 1.9296c10.673 1.9497 15.275 8.0196 15.275 15.456z" fill="url(#C)"/>
		<path d="m145.5 25.426-10.311 22.953c-0.80399 1.6482-2.4723 2.6934-4.3013 2.6934l-9.4068 0.32159c-1.0251 0.0603-1.9296 0.74367-2.2915 1.7084v-0.0201l8.8835-20.944c3.0952-7.3965 7.9594-8.1404 11.577-8.0598 2.03 0.0603 3.9998 0.52259 5.8489 1.3466zm-27.014 27.436-17.406-28.302c-1.9699-0.52258-3.9998-0.80397-6.0299-0.84423-6.3312 0-9.8484 2.3114-13.507 6.291l-17.386 18.974 1.3868 2.1909c0.90441 1.3667 2.4723 2.1507 4.1204 2.0703l9.9091-0.34168a4.9585 4.9585 0 0 1 4.3816 1.9698l-3.1153-4.6831 11.94-12.642 8.0196 12.563c0.98482 1.2461 2.5125 1.9497 4.1002 1.9095l11.396-0.402c0.88445 0 1.7286 0.48238 2.1909 1.2461zm-58.388-47.052c-9.105 0-10.693 4.864-10.693 9.527v42.008c0-1.9296 1.5477-3.4973 3.4772-3.5577l7.0548-0.2412c1.9698 0 3.5776-1.608 3.5776-3.5776v-43.816c-1.1457-0.2412-2.2713-0.36179-3.4169-0.34169zm-30.51 39.033-10.392-1.9296c-3.3163-0.58288-5.4068-1.3466-5.4068-3.236 0-1.7688 2.211-3.236 7.4971-3.236 5.2058 0 9.7688 0.54268 12.704 0.54268 3.8189 0 7.7986-1.6281 7.7986-9.1456 0-0.96479-0.1005-1.9497-0.30149-2.8943-5.668-0.70348-16.018-1.7286-24.522-0.80397-11.256 1.2461-16.964 7.9995-16.964 16.039 0.0201 4.3013 2.0502 8.3615 5.4872 10.954 2.5326 1.5677 5.3867 2.5929 8.3414 2.9746 3.8591 0.52258 7.7383 0.72358 11.618 0.60298l12.402-0.44219c4.6429-0.1608 7.1755 3.7988 6.9141 7.7785 0-0.0603 0-0.1005 0.0201-0.1608v-0.0402c0.0402-0.52259 0.0603-1.0451 0.0603-1.5677 0-7.3965-4.6027-13.466-15.256-15.437z" fill="url(#D)" opacity=".25"/>
		<path d="m179.78 72.217c-0.60297-4.1405 0.68339-6.3111 3.0552-6.3111 2.2512 0 7.7784 2.4723 15.477 2.4723 8.1001 0 11.156-2.8742 11.156-6.6126 0-2.6531-1.1858-5.0249-8.4817-7.0147l-8.3817-2.2512c-9.2656-2.4723-12.924-7.1151-12.924-12.844 0-7.0951 5.6278-13.426 18.351-13.426 5.7284 0 12.844 1.2864 17.165 2.9746 0.78385 4.0399-0.5025 6.2107-2.9545 6.2107-2.1707 0-7.0951-2.0703-14.111-2.0703-7.4971 0-10.271 2.5528-10.271 5.9092 0 2.3517 1.0854 4.5424 7.7986 6.4116l8.5824 2.3718c9.5878 2.6531 13.426 7.0951 13.426 13.407 0 7.4167-5.7284 14.009-19.537 14.009-6.1101 0.0201-13.728-1.4673-18.351-3.236m94.703-21.405c0 15.477-10.854 24.662-22.793 24.662-7.0951 0-12.924-3.3566-16.382-8.0798v19.939c0 1.8693-1.0854 3.0551-4.2409 3.0551-1.5879 0-3.0551-0.20099-3.839-0.38188v-62.871c0.78388-0.201 2.2512-0.402 3.839-0.402 3.1556 0 4.2409 1.1859 4.2409 3.0551v4.5223c3.457-4.7233 9.2859-8.0798 16.382-8.0798 11.94 0 22.793 9.1862 22.793 24.582m-8.1807 0c0-10.351-6.894-17.467-16.181-17.467-6.3111 0-12.14 3.6581-14.793 8.9849v17.064c2.6531 5.3263 8.4817 8.9849 14.793 8.9849 9.2656-0.0201 16.181-7.1151 16.181-17.567m15.758 0c0-14.111 10.351-24.562 24.26-24.562 14.009 0 24.36 10.451 24.36 24.562 0 14.009-10.351 24.662-24.36 24.662-13.909-0.0201-24.26-10.673-24.26-24.662m40.439 0c0-10.854-7.3162-17.467-16.181-17.467-8.7634 0-16.08 6.6126-16.08 17.467 0 10.753 7.3162 17.547 16.08 17.547 8.864 0 16.181-6.7935 16.181-17.547m47.295-20.141c0 3.256-1.3667 3.9395-4.7434 3.9395-6.7935 0-12.522 3.1556-16.08 10.552v26.753c0 1.9698-1.0854 3.0551-4.3416 3.0551-1.3868 0-2.9747-0.201-3.7586-0.38189v-47.476c0.78388-0.201 2.3517-0.38189 3.7586-0.38189 3.236 0 4.3416 1.1859 4.3416 3.0551v6.6126c4.6229-7.0147 11.638-10.552 20.421-9.3663 0.1005 0.68338 0.40197 2.1707 0.40197 3.6379m35.475 41.545c-4.1405 1.9698-8.8835 3.256-13.608 3.256-9.3663 0-14.995-5.5274-14.995-14.693v-40.741c0-2.0703 1.1858-3.457 4.3416-3.457 1.3667 0 2.9546 0.28138 3.7586 0.50248v10.251h18.432c0.1005 0.68338 0.3015 2.0703 0.3015 3.256 0 2.8541-1.1858 3.839-2.9546 3.839h-15.779v25.767c0 5.5072 2.5528 8.1807 7.7784 8.1807 4.7434 0 7.3965-2.0703 9.6674-2.0703 2.3718-0.0201 3.5576 1.9497 3.0551 5.9092" fill="#fff"/>
	</g>
</svg>
