<?xml version="1.0" encoding="UTF-8"?>
<svg width="800" height="261.14" version="1.1" xmlns="http://www.w3.org/2000/svg">
	<defs>
		<linearGradient id="A" x1="414.37" x2="1244.6" y1="289.84" y2="289.84" gradientTransform="matrix(.65067 0 0 .65067 -9.8251 -107.3)" gradientUnits="userSpaceOnUse">
			<stop stop-color="#ff0031" offset="0"/>
			<stop stop-color="#9b001f" offset="1"/>
		</linearGradient>
		<linearGradient id="B" x1="197.48" x2="194.59" y1="295.14" y2="212.24" gradientTransform="matrix(.65067 0 0 .65067 -9.8251 -107.3)" gradientUnits="userSpaceOnUse">
			<stop stop-color="#fff" offset="0"/>
			<stop stop-color="#fff" stop-opacity=".25" offset=".515"/>
		</linearGradient>
		<linearGradient id="C" x1="830.55" x2="826.25" y1="276.73" y2="153.47" gradientTransform="matrix(.65067 0 0 .65067 -9.8251 -107.3)" gradientUnits="userSpaceOnUse">
			<stop stop-color="#fff" offset="0"/>
			<stop stop-color="#fff" stop-opacity=".25" offset=".515"/>
		</linearGradient>
	</defs>
	<path d="m72.615 97.471c0 13.989-9.1094 24.14-27.719 26.157-13.404 1.4315-32.859-0.26027-42.098-1.3013-0.32534-1.4965-0.5856-3.3835-0.5856-4.88 0-12.168 6.5718-14.965 12.753-14.965 6.4416 0 16.592 1.1061 24.075 1.1061 8.3286 0 10.801-2.7979 10.801-5.4656 0-3.5136-3.3184-4.9451-9.7601-6.1814l-17.633-3.3835c-14.64-2.7979-22.448-12.883-22.448-23.619 0-13.013 9.2395-23.945 27.458-25.962 13.729-1.4965 30.516 0.1952 39.691 1.3013 0.32534 1.5616 0.52054 3.0582 0.52054 4.6848 0 12.168-6.4416 14.77-12.623 14.77-4.7499 0-12.102-0.84587-20.561-0.84587-8.5889 0-12.102 2.3424-12.102 5.2054 0 3.0582 3.3835 4.2944 8.719 5.2704l16.787 3.1232c17.308 3.1883 24.725 12.948 24.725 24.986m30.126 14.965c0 7.4827-2.928 11.777-17.568 11.777-1.952 0-3.6438-0.13014-5.2704-0.3904v-99.097c0-7.5478 2.5376-15.421 17.308-15.421 1.8869 0 3.7739 0.1952 5.5307 0.5856zm59.797 38.39c1.952 0.97601 5.856 2.2123 10.801 2.2774 8.5238 0.1952 13.144-3.0582 16.592-10.671l45.547-101.31c-1.8869-0.97601-6.0512-2.1472-9.4347-2.2123-5.856-0.13013-13.729 1.0411-18.739 13.013l-14.835 34.681-28.955-47.044c-1.8869-0.5856-6.4416-1.3664-9.7601-1.3664-10.281 0-15.941 3.7739-21.863 10.15l-28.109 30.712 22.643 35.592c4.1643 6.5067 9.695 9.8251 18.609 9.8251 5.856 0 10.736-1.3664 13.013-2.4075l-27.263-40.992 19.325-20.496 31.688 49.646z" fill="#ff0031"/>
	<path d="m270.55 0c-5.9862 0-10.866 4.88-10.866 10.866v140.87c0 5.9862 4.88 10.866 10.866 10.866h518.58c5.9862 0 10.866-4.88 10.866-10.866v-140.94c-0.0651-5.9862-4.815-10.801-10.798-10.798z" fill="url(#A)"/>
	<path d="m79.967 24.725v67.995c0-2.7328 2.0821-5.5958 5.5958-5.7259l11.452-0.3904c2.2773-0.06507 5.7259-1.6267 5.791-5.791v-70.923c-1.7568-0.3904-3.6438-0.5856-5.5307-0.5856-14.77 0.065067-17.308 7.8731-17.308 15.421m52.054 23.684-28.109 30.712 2.2774 3.5136c0.97601 1.3013 2.863 3.5136 6.6368 3.3835l16.007-0.5856c3.5136-0.13013 5.7259 1.3664 7.0923 3.1883l-5.0102-7.5478 19.325-20.496 12.948 20.366c2.3424 3.0582 5.856 3.1232 6.6368 3.1232 0.65067 0 17.698-0.5856 18.414-0.65067 1.1712-0.06507 2.5376 0.5856 3.5787 2.0821l-28.174-45.807c-1.8869-0.5856-6.4416-1.3664-9.7601-1.3664-10.281-0.06506-15.941 3.6438-21.863 10.085m-104.56-9.4347c-18.219 2.0171-27.458 12.883-27.458 25.962 0 6.7019 3.0582 13.144 8.9142 17.763 4.4246 2.928 8.9793 4.0342 13.469 4.815 3.7088 0.65067 12.363 1.2363 18.804 0.97601l20.041-0.71574c7.5478-0.26027 11.582 6.1814 11.192 12.623v-0.32534c0.06506-0.84586 0.13014-1.6917 0.13014-2.5376 0-12.037-7.4176-21.863-24.66-25.051l-16.787-3.1232c-5.4006-0.91094-8.719-2.2123-8.719-5.2704 0-2.863 3.5787-5.2704 12.102-5.2704 8.4587 0 15.811 0.84587 20.561 0.84587 6.1814 0 12.623-2.6027 12.623-14.77 0-1.6267-0.1952-3.1232-0.52054-4.6848-6.5718-0.7808-17.113-1.8869-27.588-1.8869-4.0992 0.06506-8.1985 0.26027-12.102 0.65067m179.72 12.948-14.38 33.9c0-0.06506 0.91094-2.6678 3.7088-2.7979l15.226-0.52054c4.6198-0.1952 6.4416-3.3184 6.9622-4.3595l16.657-37.153c-1.887-0.97601-6.0512-2.1472-9.4347-2.2123h-0.71574c-5.791 0.06506-13.209 1.6267-18.024 13.144" fill="url(#B)" opacity=".3"/>
	<path d="m270.55 0c-5.9862 0-10.866 4.88-10.866 10.866v78.211c0-1.1712 0.45548-7.6129 7.8081-8.3286 0 0 0.39041-0.06507 1.0411-0.06507l523.4-18.349c4.0992-0.13013 8.0683-3.1883 8.0683-8.2635v-43.139c0-5.9862-4.88-10.866-10.866-10.866z" fill="url(#C)" opacity=".3"/>
	<path d="m377.19 18.415c-4.3595 0-8.0672 3.3824-8.0672 8.0672 0 4.0992 3.6427 7.9385 8.0672 7.9385 4.4246 0 7.9385-3.7742 7.9385-7.9385 0-4.5547-3.4489-8.0672-7.9385-8.0672zm148.22 24.139c-20.952 0-37.933 16.593-37.933 39.431 0 23.684 16.332 39.821 40.016 39.821 10.931 0 21.212-3.2543 27.913-6.2474 0.7808-6.8971-1.5631-9.889-4.7514-9.889-1.3664 0-3.0572 0.65055-6.2455 1.8218-4.88 1.4966-9.8904 2.992-16.462 2.992-15.291 0-25.701-8.5245-27.588-23.295h59.275c0.45548-2.863 0.65071-5.4003 0.71583-7.8078 0-18.154-11.582-36.827-34.941-36.827zm-196.24 0.06437c-21.993 0-38.78 16.852-38.78 39.495s16.787 39.691 38.78 40.016c10.411 0 19.846-2.8621 26.548-6.0504 0.65068-6.8971-1.8869-9.7603-5.0752-9.7603-4.4246 0-9.4346 4.8801-21.017 4.8801-14.64 0-26.548-11.256-26.548-28.889s11.908-28.565 26.548-28.565c11.582 0 16.527 4.8801 21.017 4.8801 3.1883 0 5.7258-2.8631 5.0752-9.7603-6.5718-3.3835-16.007-6.2474-26.548-6.2474zm113.22 0c-11.517 0-19.976 5.5959-25.507 12.298v-6.5712c0-2.863-1.6931-4.7494-6.5732-4.7494-2.2123 0-4.5535 0.51923-5.7247 0.84456v75.935c1.1712 0.32533 3.5124 0.64952 5.7247 0.64952 4.9451 0 6.5732-1.7564 6.5732-4.7494v-48.735c4.0342-7.3526 13.794-13.73 22.838-13.73 11.387 1e-6 19.128 7.4172 19.128 23.033v43.4c1.2363 0.32534 3.7096 0.65146 5.7266 0.65146 5.0102 0 6.5712-1.7583 6.5712-4.7514v-40.991c0-22.513-13.077-32.469-28.758-32.534zm168.78 0c-9.3697 0-17.114 4.8815-21.994 11.453v-5.4009c0-3.1883-1.6263-5.0752-6.3762-5.0752-2.0171 0-4.4253 0.51923-5.7266 0.84456v75.804c1.0411 0.32534 3.5144 0.65146 5.7266 0.65146 5.0102 0 6.5712-1.7583 6.5712-4.7514v-50.036c2.863-6.1814 10.216-12.429 18.805-12.429 10.281 0 15.487 6.7035 15.487 17.96v48.604c1.3013 0.32534 3.6431 0.65146 5.8554 0.65146 5.0102 0 6.5712-1.7583 6.5712-4.7514v-50.036c2.863-6.1814 10.216-12.429 18.805-12.429 10.085 0 15.487 6.7035 15.487 17.96v48.604c1.2363 0.32534 3.7076 0.65146 5.7247 0.65146 5.0102 0 6.7019-1.7583 6.7019-4.7514v-45.872c0-15.161-8.7176-27.589-25.115-27.654-11.257 0-19.326 6.183-24.531 13.796-4.0342-8.5889-11.906-13.796-21.992-13.796zm122.78 0c-10.671 0-22.058 2.538-29.671 5.4009-0.7808 6.7019 1.2358 9.8909 4.7494 9.8909 1.2363 0 3.0585-0.58594 5.4009-1.2366 4.5547-1.4965 11.257-3.1891 19-3.1891 14.965 0 18.805 7.0275 18.805 18.805v2.0831c-33.77-2.2123-53.746 5.8553-53.746 24.334 0 12.233 9.4355 23.164 26.548 23.164 11.387 0 19.975-4.4899 27.198-12.103v6.3761c0 3.1883 2.0165 4.8158 6.5712 4.8158 2.2123 0 4.4253-0.32613 5.7266-0.65147v-48.474c0-18.024-8.2637-29.151-30.582-29.216zm-356.37 1.0416c-5.1403 0-6.7019 1.8865-6.7019 4.7494v71.835c1.2363 0.32534 3.6425 0.65073 5.7247 0.71583 5.0102 0 6.7019-1.7564 6.7019-4.7494v-71.704c-1.2363-0.32534-3.7076-0.84651-5.7247-0.84651zm147.9 9.9553c13.729 0 22.123 10.281 22.643 23.359h-47.693c2.0171-15.291 12.818-23.489 25.05-23.359zm218.55 29.922c2.6243 0.0081 5.3259 0.08085 8.075 0.20285v14.64c-5.856 7.808-14.639 13.08-25.05 13.08-10.216 0-15.941-6.2474-15.941-12.949 0-11.899 14.546-15.031 32.916-14.974z" fill="#fff"/>
	<path d="m273.06 179.36c-4.7269 0-8.5631 1.2889-11.51 3.8672-2.8853 2.5169-4.3281 6.4159-4.3281 11.695v4.8789h-3.1309c-0.98222 0-1.8111 0.30799-2.4863 0.92188-0.61388 0.61389-0.91992 1.6879-0.91992 3.2227 0 0.67527 0.0304 1.3501 0.0918 2.0254s0.15261 1.2285 0.27539 1.6582h6.1699v35.82c1.105 0.30694 2.7322 0.46094 4.8809 0.46094 1.9644 0 3.3141-0.39921 4.0508-1.1973 0.73667-0.79805 1.1055-1.8113 1.1055-3.0391v-32.045h10.865c0.98222 0 1.7806-0.30799 2.3945-0.92188 0.67528-0.61388 1.0137-1.6879 1.0137-3.2226s-0.15399-2.7628-0.46094-3.6836h-13.812v-4.2344c0-2.9467 0.58361-5.0035 1.75-6.1699 1.2278-1.1664 2.8246-1.75 4.7891-1.75s3.4985 0.154 4.6035 0.46094 2.1486 0.46093 3.1309 0.46093c1.2892 0 2.272-0.42961 2.9473-1.2891 0.73666-0.92083 1.1035-2.396 1.1035-4.4219v-1.3809c-1.5961-0.5525-3.499-1.0429-5.709-1.4727s-4.4817-0.64453-6.8144-0.64453zm118.6 7.459c-1.2892 0-2.3328 0.154-3.1309 0.46094-0.73667 0.30695-1.3203 0.73656-1.75 1.2891-0.36834 0.5525-0.64397 1.1646-0.82813 1.8398-0.12278 0.67527-0.18359 1.3825-0.18359 2.1191v6.3535h-3.959c-0.98222 0-1.811 0.30603-2.4863 0.91992-0.61388 0.61389-0.92187 1.6899-0.92187 3.2246 0 0.67528 0.0304 1.3501 0.0918 2.0254 0.0614 0.67528 0.15457 1.2265 0.27734 1.6562h6.998v21.824c0 2.2714 0.33644 4.3587 1.0117 6.2617 0.67528 1.8417 1.6581 3.4689 2.9473 4.8809 1.2892 1.3506 2.8556 2.4246 4.6973 3.2227 1.903 0.73666 4.0512 1.1055 6.4453 1.1055 2.6397 0 4.9418-0.30799 6.9062-0.92188 2.0258-0.61388 3.9287-1.4427 5.709-2.4863 0.0614-0.30694 0.0918-0.61298 0.0918-0.91992v-1.0137c0-1.7189-0.33839-2.9773-1.0137-3.7754-0.67527-0.79805-1.5953-1.1973-2.7617-1.1973-0.49111 0-1.012 0.0932-1.5644 0.27735-0.49112 0.18416-1.0443 0.39898-1.6582 0.64453-0.5525 0.24555-1.1969 0.46036-1.9336 0.64453-0.73666 0.18417-1.5655 0.27539-2.4863 0.27539-2.1486 0-3.7759-0.64443-4.8809-1.9336s-1.6562-3.0989-1.6562-5.4316v-21.457h12.154c0.98222 0 1.7806-0.30603 2.3945-0.91992 0.67527-0.61388 1.0117-1.6879 1.0117-3.2226 0-1.5347-0.15204-2.7628-0.45898-3.6836h-15.102v-11.418c-1.1664-0.42972-2.4876-0.64453-3.9609-0.64453zm-87.295 11.234c-3.6833 0-7.0291 0.30603-10.037 0.91992-3.008 0.5525-5.525 1.1665-7.5508 1.8418-0.0614 0.30694-0.0918 0.61493-0.0918 0.92187v0.82813c0 1.5961 0.30799 2.9458 0.92187 4.0508 0.61389 1.105 1.5644 1.6582 2.8535 1.6582 0.73666 0 1.5047-0.0932 2.3027-0.27734 0.85944-0.24556 1.8099-0.49078 2.8535-0.73633 1.105-0.30695 2.333-0.55216 3.6836-0.73633 1.3506-0.24555 2.917-0.36719 4.6973-0.36719 3.4992 0 5.9229 0.64444 7.2734 1.9336 1.3506 1.2278 2.0254 3.3455 2.0254 6.3535v2.3008c-4.0516-0.73666-7.673-1.1035-10.865-1.1035-3.3764 0-6.2925 0.36685-8.748 1.1035-2.3942 0.73666-4.3883 1.7803-5.9844 3.1309-1.5961 1.2892-2.7938 2.8556-3.5918 4.6973-0.73666 1.8417-1.1055 3.8681-1.1055 6.0781 0 1.8417 0.30799 3.5906 0.92188 5.248 0.67527 1.5961 1.6257 3.0086 2.8535 4.2363 1.2892 1.2278 2.8556 2.2086 4.6973 2.9453 1.903 0.67528 4.0512 1.0137 6.4453 1.0137 2.0872 0 3.9293-0.24521 5.5254-0.73632 1.6575-0.42972 3.1308-1.0438 4.4199-1.8418 1.2892-0.79805 2.3936-1.7201 3.3145-2.7637 0.98222-1.105 1.8415-2.2399 2.5781-3.4062h0.0918c0.0614 1.1664 0.15456 2.2708 0.27734 3.3144 0.18416 1.0436 0.4902 1.9656 0.91992 2.7637 0.42972 0.73666 1.0133 1.3507 1.75 1.8418 0.79806 0.42972 1.8113 0.64453 3.0391 0.64453 1.105 0 2.0555-0.0932 2.8535-0.27734 0.85945-0.18417 1.5666-0.39898 2.1191-0.64454-0.42972-1.4733-0.76812-2.823-1.0137-4.0508-0.24555-1.2892-0.46036-2.578-0.64453-3.8672-0.12277-1.2892-0.21399-2.6712-0.27539-4.1445v-14.641c0-2.9467-0.30799-5.5263-0.92188-7.7363-0.5525-2.2714-1.5657-4.1743-3.0391-5.709-1.4119-1.5961-3.3148-2.7918-5.709-3.5898-2.3328-0.79805-5.2793-1.1973-8.8398-1.1973zm53.041 0c-3.1308 0-5.9557 0.70525-8.4727 2.1172-2.4556 1.3506-4.4496 3.0994-5.9844 5.248l-0.0918-1.2891c0-1.7189-0.42962-3.0686-1.2891-4.0508-0.79805-1.0436-2.1497-1.5664-4.0527-1.5664-0.85943 0-1.6579 0.0932-2.3945 0.27735-0.67527 0.12278-1.3501 0.27677-2.0254 0.46093v44.199c0.49112 0.12276 1.1964 0.21399 2.1172 0.27539 0.98222 0.12278 1.9346 0.18555 2.8555 0.18555 1.9644 0 3.2837-0.39921 3.959-1.1973 0.73667-0.79805 1.1055-1.8113 1.1055-3.0391v-26.98c1.0436-1.8417 2.5473-3.3149 4.5117-4.4199 2.0258-1.105 4.0219-1.6582 5.9863-1.6582 3.1308 0 5.5546 0.92201 7.2734 2.7637 1.7189 1.8417 2.5781 4.7254 2.5781 8.6543v25.416c0.49111 0.12276 1.1983 0.21399 2.1191 0.27539 0.98222 0.12278 1.9327 0.18555 2.8535 0.18555 1.9644 0 3.2857-0.39921 3.9609-1.1973 0.73665-0.79805 1.1035-1.8113 1.1035-3.0391v-22.744c0-6.0775-1.4429-10.744-4.3281-13.998-2.8853-3.2536-6.8127-4.8789-11.785-4.8789zm81.77 0c-3.6833 0-7.0291 0.30603-10.037 0.91992-3.008 0.5525-5.525 1.1665-7.5508 1.8418-0.0614 0.30694-0.0918 0.61493-0.0918 0.92187v0.82813c0 1.5961 0.30604 2.9458 0.91993 4.0508 0.61388 1.105 1.5663 1.6582 2.8555 1.6582 0.73666 0 1.5027-0.0932 2.3008-0.27734 0.85945-0.24556 1.8119-0.49078 2.8555-0.73633 1.105-0.30695 2.333-0.55216 3.6836-0.73633 1.3506-0.24555 2.915-0.36719 4.6953-0.36719 3.4992 0 5.9248 0.64444 7.2754 1.9336 1.3506 1.2278 2.0254 3.3455 2.0254 6.3535v2.3008c-4.0516-0.73666-7.673-1.1035-10.865-1.1035-3.3764 0-6.2925 0.36685-8.748 1.1035-2.3942 0.73666-4.3902 1.7803-5.9863 3.1309-1.5961 1.2892-2.7918 2.8556-3.5898 4.6973-0.73666 1.8417-1.1055 3.8681-1.1055 6.0781 0 1.8417 0.30604 3.5906 0.91992 5.248 0.67527 1.5961 1.6277 3.0086 2.8555 4.2363 1.2892 1.2278 2.8536 2.2086 4.6953 2.9453 1.903 0.67528 4.0531 1.0137 6.4473 1.0137 2.0872 0 3.9273-0.24521 5.5234-0.73632 1.6575-0.42972 3.1308-1.0438 4.4199-1.8418s2.3956-1.7201 3.3164-2.7637c0.98222-1.105 1.8415-2.2399 2.5781-3.4062h0.0918c0.0614 1.1664 0.15261 2.2708 0.27539 3.3144 0.18416 1.0436 0.49215 1.9656 0.92187 2.7637 0.42973 0.73666 1.0133 1.3507 1.75 1.8418 0.79805 0.42972 1.8093 0.64453 3.0371 0.64453 1.105 0 2.0574-0.0932 2.8555-0.27734 0.85944-0.18417 1.5647-0.39898 2.1172-0.64454-0.42972-1.4733-0.76617-2.823-1.0117-4.0508-0.24555-1.2892-0.46037-2.578-0.64453-3.8672-0.12277-1.2892-0.21595-2.6712-0.27735-4.1445v-14.641c0-2.9467-0.30603-5.5263-0.91992-7.7363-0.5525-2.2714-1.5657-4.1743-3.0391-5.709-1.4119-1.5961-3.3148-2.7918-5.709-3.5898-2.3328-0.79805-5.2793-1.1973-8.8398-1.1973zm44.477 0.18359c-3.2536 0-6.0177 0.3688-8.2891 1.1055-2.2714 0.67527-4.1419 1.5953-5.6152 2.7617-1.4119 1.1664-2.4556 2.518-3.1309 4.0527s-1.0137 3.1296-1.0137 4.7871c0 3.0694 0.98282 5.6472 2.9473 7.7344 1.9644 2.0258 5.4318 3.7463 10.404 5.1582l6.5391 1.8418c2.6397 0.73666 4.4798 1.4723 5.5234 2.209 1.0436 0.67528 1.5664 1.6885 1.5664 3.0391 0 0.67528-0.12358 1.3197-0.36914 1.9336-0.18416 0.5525-0.58338 1.0753-1.1973 1.5664-0.61389 0.42972-1.5035 0.79657-2.6699 1.1035-1.105 0.24555-2.5783 0.36914-4.4199 0.36914-1.6575 0-3.222-0.12359-4.6953-0.36914s-2.825-0.52118-4.0527-0.82813c-1.1664-0.36833-2.2708-0.67436-3.3145-0.91992-0.98222-0.24555-1.8415-0.36914-2.5781-0.36914-1.2278 0-2.1802 0.49044-2.8555 1.4727-0.67528 0.98222-1.0117 2.2711-1.0117 3.8672v1.0137c0.0614 0.30694 0.1222 0.61493 0.1836 0.92187 2.9466 1.0436 5.9844 1.8705 9.1152 2.4844 3.1922 0.55249 6.2623 0.83008 9.209 0.83008 3.6833 0 6.723-0.39922 9.1172-1.1973 2.4556-0.79805 4.3888-1.8113 5.8008-3.0391 1.4119-1.2892 2.3948-2.732 2.9473-4.3281 0.61388-1.6575 0.91992-3.3152 0.91992-4.9726 0-3.1922-1.0436-5.8308-3.1309-7.918-2.0258-2.0872-5.556-3.8381-10.59-5.25l-6.9062-1.9336c-1.4119-0.36833-2.5468-0.70477-3.4062-1.0117-0.79806-0.36834-1.4425-0.73714-1.9336-1.1055-0.42972-0.36834-0.73771-0.76755-0.92187-1.1973-0.12278-0.42972-0.1836-0.92016-0.1836-1.4727 0-1.2892 0.58363-2.3024 1.75-3.0391 1.2278-0.73666 3.3151-1.1055 6.2617-1.1055 3.1922 0 5.8004 0.3384 7.8262 1.0137 2.0872 0.61388 3.8057 0.91992 5.1562 0.91992 1.3506 0 2.3334-0.49044 2.9473-1.4727 0.67528-1.0436 1.0137-2.4561 1.0137-4.2363 0-0.24555-0.0324-0.46036-0.0937-0.64453v-0.82812c-5.8933-1.9644-11.509-2.9473-16.85-2.9473zm27.992 0.27539c-1.0436 0-2.0568 0.12359-3.0391 0.36914-0.98222 0.24556-1.8111 0.52119-2.4863 0.82813l17.221 43.463-7.459 17.037c0.61388 0.24555 1.3191 0.46036 2.1172 0.64453 0.85944 0.18417 1.8727 0.27539 3.0391 0.27539 2.8853 0 4.8186-1.3193 5.8008-3.959l22.469-57.553c-0.61389-0.30695-1.4123-0.55216-2.3945-0.73633-0.98222-0.24555-1.8719-0.36914-2.6699-0.36914-1.2278 0-2.3018 0.21481-3.2227 0.64453-0.85944 0.36834-1.5039 1.1364-1.9336 2.3027l-11.143 31.031-10.865-30.939c-0.30694-0.98221-0.89056-1.7179-1.75-2.209-0.85944-0.5525-2.0875-0.83008-3.6836-0.83008zm-206.63 23.758c2.4556 0 5.25 0.27758 8.3809 0.83008v3.8672c-1.2278 2.5783-2.9482 4.7264-5.1582 6.4453-2.1486 1.7189-4.6959 2.5781-7.6426 2.5781-2.2714 0-4.1134-0.52085-5.5254-1.5645-1.4119-1.0436-2.1172-2.5492-2.1172-4.5137 1e-5 -2.4555 0.98283-4.328 2.9473-5.6172 2.0258-1.3506 5.0636-2.0254 9.1152-2.0254zm134.81 0c2.4556 0 5.2481 0.27758 8.3789 0.83008v3.8672c-1.2278 2.5783-2.9462 4.7264-5.1562 6.4453-2.1486 1.7189-4.6959 2.5781-7.6426 2.5781-2.2714 0-4.1134-0.52085-5.5254-1.5645-1.4119-1.0436-2.1172-2.5492-2.1172-4.5137 0-2.4555 0.98088-4.328 2.9453-5.6172 2.0258-1.3506 5.0655-2.0254 9.1172-2.0254z"/>
</svg>
