<?xml version="1.0" encoding="UTF-8"?>
<svg width="800" height="197.46" version="1.1" xmlns="http://www.w3.org/2000/svg">
	<defs>
		<linearGradient id="A" x1="414.37" x2="1244.6" y1="289.84" y2="289.84" gradientTransform="matrix(.51516 0 0 .51516 -7.7785 -84.95)" gradientUnits="userSpaceOnUse">
			<stop stop-color="#ff0031" offset="0"/>
			<stop stop-color="#9b001f" offset="1"/>
		</linearGradient>
		<linearGradient id="B" x1="197.48" x2="194.59" y1="295.14" y2="212.24" gradientTransform="matrix(.51516 0 0 .51516 -7.7785 -84.95)" gradientUnits="userSpaceOnUse">
			<stop stop-color="#fff" offset="0"/>
			<stop stop-color="#fff" stop-opacity=".25" offset=".515"/>
		</linearGradient>
		<linearGradient id="C" x1="830.55" x2="826.25" y1="276.73" y2="153.47" gradientTransform="matrix(.51516 0 0 .51516 -7.7785 -84.95)" gradientUnits="userSpaceOnUse">
			<stop stop-color="#fff" offset="0"/>
			<stop stop-color="#fff" stop-opacity=".25" offset=".515"/>
		</linearGradient>
	</defs>
	<path d="m793.75 6.7683e-5c3.4608 0 6.2502 2.8171 6.2502 6.2502v116.24a6.2779 6.2779 0 0 1-6.2502 6.2502h-163.07c-3.4607 0-6.2502-2.8164-6.2502-6.2502v-116.21c0-3.4607 2.8171-6.2502 6.2502-6.2502h163.07" fill="#bbbbbb"/>
	<path d="m714.58 38.576v49.548c0 2.1728-1.0998 3.3801-4.4799 3.3801-1.5292 0-2.9508-0.21427-4.0506-0.42933v-22.802h-28.274v19.878c0 2.1728-1.0998 3.3801-4.4799 3.3801-1.6367 0-3.2726-0.21427-4.0506-0.42933v-49.575c0-2.0921 1.0998-3.3801 4.5874-3.3801 1.5292 0 3.0314 0.21427 3.9162 0.42933v22.051h28.141v-19.1c0-2.0921 1.2074-3.3801 4.695-3.3801 1.6098 0 3.1121 0.21427 3.9968 0.42933m58.003 26.182c0 14.861-10.381 26.101-26.638 26.101h-15.157c-3.2726 0-4.4799-1.3141-4.4799-3.3801v-45.309c0-2.0652 1.2074-3.3801 4.4799-3.3801h15.157c16.257 0 26.638 11.133 26.638 25.968m-8.638 0c0-11.133-6.9745-18.349-18-18.349h-11.133v36.779h11.133c11.026 0.02688 18-7.1895 18-18.43" fill="#9c001f"/>
	<path d="m57.492 77.171c0 11.076-7.2122 19.112-21.946 20.709-10.612 1.1333-26.016-0.20606-33.331-1.0303-0.25758-1.1849-0.46364-2.6788-0.46364-3.8637 0-9.6335 5.2031-11.849 10.097-11.849 5.1001 0 13.137 0.87577 19.061 0.87577 6.594 0 8.5516-2.2152 8.5516-4.3273 0-2.7819-2.6273-3.9152-7.7274-4.894l-13.961-2.6788c-11.591-2.2152-17.773-10.2-17.773-18.7 0-10.303 7.3153-18.958 21.74-20.555 10.87-1.1849 24.161 0.15455 31.425 1.0303 0.25758 1.2364 0.41213 2.4212 0.41213 3.7091 0 9.6335-5.1001 11.694-9.9941 11.694-3.7607 0-9.582-0.66971-16.279-0.66971-6.8001 0-9.582 1.8546-9.582 4.1213 0 2.4212 2.6788 3.4 6.9031 4.1728l13.291 2.4728c13.703 2.5243 19.576 10.252 19.576 19.782m23.852 11.849c0 5.9243-2.3182 9.3244-13.909 9.3244-1.5455 0-2.8849-0.10303-4.1728-0.3091v-78.459c0-5.9758 2.0091-12.209 13.703-12.209 1.494 0 2.9879 0.15455 4.3788 0.46364zm47.343 30.394c1.5455 0.77273 4.6364 1.7515 8.5516 1.803 6.7486 0.15455 10.406-2.4212 13.137-8.4486l36.061-80.21c-1.494-0.77274-4.791-1.7-7.4698-1.7515-4.6364-0.10303-10.87 0.82425-14.837 10.303l-11.746 27.458-22.925-37.246c-1.494-0.46364-5.1001-1.0818-7.7274-1.0818-8.1395 0-12.621 2.9879-17.309 8.0365l-22.255 24.315 17.928 28.179c3.297 5.1516 7.6759 7.7789 14.734 7.7789 4.6364 0 8.5001-1.0818 10.303-1.9061l-21.585-32.455 15.3-16.228 25.088 39.307z" fill="#ff0031"/>
	<path d="m624.84 0h-410.63c-4.7395 0-8.6032 3.8637-8.6032 8.6032v111.53c0 4.7395 3.8637 8.6032 8.6032 8.6032h410.58c4.7395 0 8.6032-3.8637 8.6032-8.6032v-111.58c-0.0515-4.7395-3.8122-8.5516-8.5516-8.5516" fill="url(#A)"/>
	<path d="m63.313 19.576v53.834c0-2.1637 1.6485-4.4304 4.4304-4.5334l9.0668-0.3091c1.8031-0.05151 4.5334-1.2879 4.5849-4.5849v-56.152c-1.3909-0.3091-2.8849-0.46364-4.3788-0.46364-11.694 0.051516-13.703 6.2334-13.703 12.209m41.213 18.752-22.255 24.315 1.8031 2.7819c0.77274 1.0303 2.2667 2.7819 5.2546 2.6788l12.673-0.46364c2.7819-0.10303 4.5334 1.0818 5.6152 2.5243l-3.9667-5.9758 15.3-16.228 10.252 16.124c1.8546 2.4212 4.6364 2.4728 5.2546 2.4728 0.51516 0 14.012-0.46364 14.579-0.51516 0.92729-0.05152 2.0091 0.46364 2.8334 1.6485l-22.306-36.267c-1.494-0.46364-5.1001-1.0818-7.7274-1.0818-8.1395-0.05151-12.621 2.8849-17.309 7.985m-82.786-7.4698c-14.424 1.597-21.74 10.2-21.74 20.555 0 5.3061 2.4212 10.406 7.0577 14.064 3.5031 2.3182 7.1092 3.194 10.664 3.8122 2.9364 0.51516 9.788 0.9788 14.888 0.77274l15.867-0.56668c5.9758-0.20606 9.1698 4.894 8.8607 9.9941v-0.25758c0.05152-0.66971 0.10303-1.3394 0.10303-2.0091 0-9.5304-5.8728-17.309-19.525-19.834l-13.291-2.4728c-4.2758-0.72122-6.9031-1.7515-6.9031-4.1728 0-2.2667 2.8334-4.1728 9.582-4.1728 6.6971 0 12.518 0.66971 16.279 0.66971 4.894 0 9.9941-2.0606 9.9941-11.694 0-1.2879-0.15455-2.4728-0.41213-3.7091-5.2031-0.61819-13.549-1.494-21.843-1.494-3.2455 0.05152-6.491 0.20606-9.582 0.51516m142.29 10.252-11.385 26.84c0-0.05152 0.72122-2.1122 2.9364-2.2152l12.055-0.41213c3.6576-0.15455 5.1001-2.6273 5.5122-3.4516l13.188-29.416c-1.494-0.77274-4.791-1.7-7.4698-1.7515h-0.56667c-4.5849 0.05152-10.458 1.2879-14.27 10.406" enable-background="new" fill="url(#B)" opacity=".3"/>
	<path d="m214.2 0c-4.7395 0-8.6032 3.8637-8.6032 8.6032v61.922c0-0.92729 0.36061-6.0274 6.1819-6.594 0 0 0.30909-0.05152 0.82425-0.05152l414.39-14.527c3.2455-0.10303 6.388-2.5243 6.388-6.5425v-34.155c0-4.7395-3.8637-8.6032-8.6032-8.6032z" enable-background="new" fill="url(#C)" opacity=".3"/>
	<path d="m298.64 14.578c-3.4516 0-6.3887 2.6795-6.3887 6.3887 0 3.2455 2.8856 6.2852 6.3887 6.2852s6.2852-2.9881 6.2852-6.2852c0-3.6061-2.7306-6.3887-6.2852-6.3887zm117.35 19.113c-16.588 0-30.033 13.137-30.033 31.219 0 18.752 12.93 31.527 31.682 31.527 8.6547 0 16.795-2.5756 22.102-4.9453 0.61819-5.4607-1.2374-7.8301-3.7617-7.8301-1.0818 0-2.421 0.51412-4.9453 1.4414-3.8637 1.1849-7.8301 2.3711-13.033 2.3711-12.106 0-20.348-6.7493-21.842-18.443h46.93c0.36061-2.2667 0.51491-4.2756 0.56641-6.1816 0-14.373-9.1699-29.158-27.664-29.158zm-155.37 0.05078c-17.412 0-30.703 13.344-30.703 31.271s13.291 31.424 30.703 31.682c8.2425 1e-6 15.713-2.2667 21.02-4.791 0.51516-5.4607-1.4953-7.7266-4.0195-7.7266-3.5031 0-7.4688 3.8633-16.639 3.8633-11.591 0-21.02-8.9122-21.02-22.873 0-13.961 9.4285-22.615 21.02-22.615 9.1698 0 13.084 3.8633 16.639 3.8633 2.5243 0 4.5347-2.2678 4.0195-7.7285-5.2031-2.6788-12.674-4.9453-21.02-4.9453zm89.639 0c-9.1183 0-15.816 4.4302-20.195 9.7363v-5.2031c0-2.2667-1.3394-3.7598-5.2031-3.7598-1.7516 0-3.6059 0.41234-4.5332 0.66992v60.119c0.92728 0.25758 2.7817 0.51562 4.5332 0.51562 3.9152 0 5.2031-1.392 5.2031-3.7617v-38.586c3.194-5.8213 10.921-10.869 18.082-10.869 9.0153 0 15.146 5.8725 15.146 18.236v34.361c0.9788 0.25758 2.9362 0.51562 4.5332 0.51562 3.9667 0 5.2031-1.392 5.2031-3.7617v-32.455c0-17.824-10.354-25.706-22.77-25.758zm133.63 0c-7.4183 0-13.548 3.8653-17.412 9.0684v-4.2773c0-2.5243-1.2882-4.0176-5.0488-4.0176-1.597 0-3.5029 0.41234-4.5332 0.66992v60.016c0.82426 0.25758 2.7817 0.51562 4.5332 0.51562 3.9667 0 5.2031-1.392 5.2031-3.7617v-39.615c2.2667-4.894 8.0886-9.8398 14.889-9.8398 8.1395 0 12.26 5.3065 12.26 14.219v38.482c1.0303 0.25758 2.8852 0.51562 4.6367 0.51562 3.9667 0 5.2031-1.392 5.2031-3.7617v-39.615c2.2667-4.894 8.0886-9.8398 14.889-9.8398 7.985 0 12.26 5.3065 12.26 14.219v38.482c0.97879 0.25758 2.9382 0.51562 4.5352 0.51562 3.9667 0 5.3047-1.392 5.3047-3.7617v-36.318c0-12.003-6.9028-21.843-19.885-21.895-8.9122 0-15.301 4.8945-19.422 10.922-3.194-6.8001-9.4272-10.922-17.412-10.922zm97.211 0c-8.4486-1e-6 -17.465 2.0106-23.492 4.2773-0.61819 5.3061 0.97986 7.8301 3.7617 7.8301 0.9788 0 2.4208-0.46336 4.2754-0.97852 3.6061-1.1849 8.9126-2.5254 15.043-2.5254 11.849 0 14.889 5.5643 14.889 14.889v1.6484c-26.737-1.7515-42.553 4.6371-42.553 19.268 0 9.685 7.4689 18.338 21.018 18.338 9.0153 0 15.817-3.5547 21.535-9.582v5.0488c0 2.5243 1.597 3.8125 5.2031 3.8125 1.7515 0 3.5029-0.25804 4.5332-0.51562v-38.379c0-14.27-6.5429-23.079-24.213-23.131zm-282.15 0.82422c-4.0698 0-5.3066 1.495-5.3066 3.7617v56.873c0.9788 0.25758 2.8847 0.51489 4.5332 0.56641 3.9667 0 5.3066-1.39 5.3066-3.7598v-56.771c-0.97881-0.25758-2.9362-0.66992-4.5332-0.66992zm117.1 7.8828c10.87 0 17.516 8.1394 17.928 18.494h-37.762c1.597-12.106 10.149-18.597 19.834-18.494zm173.04 23.691c2.0778 0.0064 4.218 0.06356 6.3945 0.16016v11.592c-4.6364 6.1819-11.591 10.354-19.834 10.354-8.088 0-12.621-4.9458-12.621-10.252 0-9.421 11.516-11.899 26.061-11.854z" fill="#fff"/>
	<path d="m293.48 141.65c-2.8492 0-4.7756 0.5622-5.7812 1.6875-1.0056 1.1253-1.5078 3.2561-1.5078 6.3926v3.8789c0 3.5674 0.39349 6.2005 1.1836 7.9004 0.81405 1.676 2.3227 4.3466 4.5254 8.0098 2.2267 3.6393 3.6285 6.0212 4.2031 7.1465 0.59857 1.1253 0.89649 2.6695 0.89649 4.6328v3.5918c0 1.1971-0.13117 1.986-0.39453 2.3691-0.23943 0.38308-0.79041 0.57422-1.6524 0.57422h-0.68163c-0.93377 0-1.5091-0.19114-1.7246-0.57422-0.21549-0.38309-0.32227-1.172-0.32227-2.3691v-7.8652l-6.0332 6.6074c0 4.573 0.50223 7.4216 1.5078 8.5469 1.0056 1.1253 2.9321 1.6894 5.7812 1.6894h2.6934c2.8492 0 4.7645-0.56416 5.7461-1.6894 0.98164-1.1253 1.4727-3.2561 1.4727-6.3926v-4.2012c0-3.0886-0.40666-5.4705-1.2207-7.1465-0.79009-1.6999-2.3099-4.3705-4.5605-8.0098-2.2267-3.6632-3.6266-6.0563-4.2012-7.1816-0.55067-1.1253-0.82617-2.9094-0.82617-5.3516v-3.4121c0-1.0774 0.11995-1.8083 0.35938-2.1914 0.26336-0.40702 0.82557-0.60937 1.6875-0.60937h0.68164c0.93377 0 1.5091 0.20235 1.7246 0.60937 0.21548 0.38308 0.32227 1.1628 0.32227 2.3359v7.3965l6.0332-8.2949c0-3.1365-0.49102-5.2673-1.4727-6.3926-0.98164-1.1253-2.8969-1.6875-5.7461-1.6875zm50.607 0.35741-6.6445 0.21681v32.969l-0.25196 22.266 6.6445-6.1758v-17.348c0-1.2211 0.0843-11.864 0.25195-31.928zm7.5957 0v51.502h10.596c2.8491 0 4.7644-0.56414 5.7461-1.6894 0.98165-1.1253 1.4726-3.2561 1.4726-6.3926v-35.303c0-3.1365-0.49098-5.2673-1.4726-6.3926-0.98165-1.1492-2.897-1.7246-5.7461-1.7246zm24.406 0v51.502h13.611v-6.0352h-7.2187v-17.812h3.0176l2.873-5.998h-5.8906v-15.621h7.2187v-6.0352zm19.412 0v51.502h6.3926v-22.949h2.5156c0.98165 0 1.6394 0.26233 1.9746 0.78906 0.35916 0.5028 0.53909 1.3649 0.53909 2.5859v17.348l6.6074 6.1758-0.21483-22.266c0-2.3464-0.27555-4.1061-0.82623-5.2793-0.52668-1.1971-1.4599-1.988-2.8007-2.3711 1.3408-0.38309 2.2741-1.1496 2.8007-2.2988 0.55068-1.1732 0.82623-2.9329 0.82623-5.2793v-9.8398c0-3.1365-0.50418-5.2673-1.5098-6.3926-1.0056-1.1492-2.9321-1.7246-5.7812-1.7246zm44.932 0v51.502h5.6036v-27.582c0-2.49-0.049-6.2382-0.14452-11.242 0.6702 7.0152 1.0301 10.763 1.0781 11.242l3.1953 27.582h4.9922l3.1621-27.582c0.14372-1.0774 0.32175-2.9927 0.53718-5.7461 0.21543-2.7773 0.38416-4.5615 0.50388-5.3516-0.11972 4.9082-0.17973 8.6076-0.17973 11.098v27.582h6.3575v-51.502h-9.6621l-2.4063 24.422c-0.096 1.0295-0.21573 2.5625-0.35936 4.5977-0.11962 2.0351-0.20203 3.375-0.25004 4.0215-0.23943-4.8603-0.40806-7.7333-0.50387-8.6192l-2.5137-24.422zm35.611 0-5.1719 51.502h5.7461l0.75392-7.3633h3.4843l1.4727-4.9199 1.2929 12.283h6.4629l-5.2422-51.502zm19.449 0v51.502h5.5293v-26.613c0-0.26336-0.071-3.6985-0.21484-10.307 0.43097 4.0223 0.89764 7.4575 1.4004 10.307l4.4531 26.613h7.1484v-51.502h-5.4961v22.375c0 1.3168 0.035 3.3033 0.10742 5.9609 0.072 2.6337 0.10942 4.1067 0.10942 4.418-0.50288-4.6209-0.94705-8.056-1.3301-10.307l-3.6993-22.447zm-184.68 0.21681v50.639h6.752c0.31126 0 0.46679-0.15554 0.46679-0.46679l-0.21484-0.4668c0-0.14365 0.0712-0.2168 0.21484-0.2168l-0.21484-2.334v-15.191c0-0.33519 0.0712-0.64628 0.21484-0.93359-0.14365-0.28731-0.21484-0.51405-0.21484-0.68164h0.21484c5.2674 0 8.3802-0.55099 9.3379-1.6524 1.5563-1.5802 2.334-3.5199 2.334-5.8184v-15.875c0-3.1604-1.6266-5.4112-4.8828-6.752l-1.4024-0.24999zm47.268 5.8184h2.9434c0.88588 0 1.45 0.20234 1.6894 0.60938 0.26337 0.38308 0.39453 1.1608 0.39453 2.334v33.545c0 1.1732-0.13116 1.9621-0.39453 2.3691-0.23941 0.38309-0.80357 0.57422-1.6894 0.57422h-2.9434zm43.816 0h2.9453c0.88594 0 1.4481 0.20234 1.6876 0.60938 0.26334 0.38308 0.39646 1.1608 0.39646 2.334v10.596c0 1.1732-0.13312 1.9621-0.39646 2.3691-0.23944 0.38308-0.80163 0.57617-1.6876 0.57617h-2.9453zm-83.613 0.71679h2.334c1.3887 0.21549 2.084 0.92202 2.084 2.1192v13.289c0 1.3887-0.85086 2.082-2.5508 2.082h-1.8672c-0.31125 0-0.4668-0.15554-0.4668-0.46679v-16.557c0.0479-0.31126 0.20342-0.46681 0.4668-0.46681zm161.79 0.10938c0.35925 8.1405 1.0058 17.43 1.9395 27.869l0.28714 3.375h-4.3458l0.28714-3.5918c0.93375-11.229 1.5447-20.446 1.832-27.652zm-61.02 18.674v6.6094h13.322v-6.6094z"/>
</svg>
