<?xml version="1.0" encoding="UTF-8"?>
<svg width="800" height="170.94" version="1.1" xmlns="http://www.w3.org/2000/svg">
	<linearGradient id="A" x1="153.57" x2="449.99" y1="48.077" y2="48.077" gradientTransform="scale(1.7778)" gradientUnits="userSpaceOnUse">
		<stop stop-color="#2b6300" offset="0"/>
		<stop stop-color="#3e8f00" offset="1"/>
	</linearGradient>
	<path d="m788.6 0h-504.13a11.431 11.431 0 0 0-11.396 11.396v148.15a11.431 11.431 0 0 0 11.396 11.396h504.13a11.431 11.431 0 0 0 11.396-11.396v-148.15a11.431 11.431 0 0 0-11.396-11.396z" fill="url(#A)"/>
	<path d="m170.8 158.69c1.9947 0.99733 6.1262 2.2791 11.396 2.4213 8.9742 0.14222 13.817-3.2764 17.38-11.253l47.863-106.55c-1.9947-0.99733-6.4107-2.2791-9.9716-2.2791-6.1262-0.14222-14.388 1.1396-19.659 13.675l-15.527 36.468-30.341-49.429c-1.9947-0.57067-6.8373-1.424-10.256-1.424-10.827 0-16.809 3.9893-22.935 10.684l-29.63 32.192 23.79 37.321c4.416 6.8373 10.114 10.256 19.516 10.256 6.1262 0 11.253-1.424 13.675-2.5636l-28.633-42.876 20.228-21.509 33.333 52.137zm-62.821-40.313c0 7.8347-3.1342 12.393-18.519 12.393-1.9947 0-3.8453-0.14222-5.5556-0.42667v-104.28c0-7.9769 2.7058-16.24 18.233-16.24 1.9947 0 3.9893 0.14222 5.84 0.57067zm-31.767-15.812c0 14.672-9.5449 25.356-29.06 27.493-14.103 1.5662-34.615-0.28445-44.302-1.424-0.28444-1.5662-0.57067-3.5609-0.57067-5.1289 0-12.821 6.8373-15.669 13.39-15.669 6.6951 0 17.38 1.1396 25.356 1.1396 8.6898 0 11.396-2.992 11.396-5.6978 0-3.7031-3.4187-5.1289-10.256-6.5529l-18.519-3.5609c-15.383-2.8516-23.644-13.534-23.644-24.788 0-13.675 9.6871-25.214 28.775-27.207 14.388-1.5662 32.052 0.14222 41.739 1.424 0.28444 1.5662 0.57067 3.2764 0.57067 4.9849 0 12.821-6.6951 15.527-13.248 15.527-4.9849 0-12.677-0.85511-21.652-0.85511s-12.677 2.4213-12.677 5.5556c0 3.2764 3.5609 4.5582 9.2587 5.5556l17.664 3.2764c17.948 2.992 25.783 13.248 25.783 25.925z" fill="#2b6300"/>
	<linearGradient id="B" x1="70.259" x2="69.134" y1="50.615" y2="18.41" gradientTransform="scale(1.7778)" gradientUnits="userSpaceOnUse">
		<stop stop-color="#fff" offset="0"/>
		<stop stop-color="#fff" stop-opacity=".25" offset="1"/>
	</linearGradient>
	<path d="m247.44 43.305-17.522 39.031c-0.57067 0.99733-2.4213 4.416-7.2658 4.5582l-15.954 0.57067c-2.8498 0.14222-3.8453 2.8498-3.8453 2.8498l15.1-35.612c5.2711-12.535 13.532-13.817 19.659-13.675 3.4187 0 7.8347 1.1396 9.8293 2.2791zm-45.868 46.581-29.63-48.148c-1.9947-0.57067-6.8373-1.424-10.256-1.424-10.827 0-16.809 3.9893-22.935 10.684l-29.63 32.192 2.4213 3.7031c0.99733 1.424 2.992 3.7031 6.9796 3.5609 1.424 0 15.669-0.57067 16.809-0.57067 3.7031-0.14222 5.9822 1.424 7.408 3.2764l-5.2711-7.9769 20.228-21.509 13.675 21.367c2.4213 3.2764 6.1262 3.2764 6.9796 3.2764 0.71289 0 18.519-0.71289 19.372-0.71289 1.2818 0 2.7058 0.71289 3.8453 2.2791zm-99.431-80.057c-15.527 0-18.091 8.2613-18.091 16.24v71.509c0-2.8498 2.2791-5.84 5.84-5.9822 2.5636-0.14222 9.8293-0.28444 11.966-0.42667 2.4213-0.14222 5.9822-1.7102 6.1262-6.1262v-74.645c-1.8524-0.28444-3.8453-0.57067-5.84-0.57067zm-51.852 66.524-17.664-3.2764c-5.6978-0.99733-9.2587-2.2791-9.2587-5.5556 0-2.992 3.7031-5.5556 12.677-5.5556 8.832 0 16.667 0.85511 21.652 0.85511 6.5529 0 13.248-2.7058 13.248-15.527 0-1.7102-0.14222-3.2764-0.57067-4.9849-9.6871-1.1396-27.207-2.992-41.739-1.424-18.942 2.2773-28.629 13.815-28.629 27.492 0 6.9796 3.1342 13.817 9.4009 18.661 4.7004 2.992 9.4009 4.2738 14.245 5.1289 3.9893 0.71289 12.964 1.2818 19.801 0.99733 2.1369-0.14222 17.664-0.57067 21.083-0.71289 7.8347-0.28444 12.251 6.4107 11.682 13.248v-0.42667c0.14222-0.85511 0.14222-1.7102 0.14222-2.7058-0.14222-12.677-7.9769-22.935-26.068-26.212z" fill="url(#B)" opacity=".3"/>
	<path d="m380.34 78.917v43.447c0 3.1342-1.8524 5.2711-7.408 5.2711-2.2791 0-4.9849-0.28445-6.4107-0.71289v-46.153c0-16.096-7.8347-23.788-19.801-23.788-9.2587 0-19.23 6.4107-23.362 13.961v51.564c0 3.1342-1.8524 5.2711-7.408 5.2711-2.2791 0-4.9849-0.28445-6.4107-0.71289v-80.91c1.2818-0.28444 3.9893-0.71289 6.4107-0.71289 5.5556 0 7.408 1.9947 7.408 5.2711v6.8373c5.84-7.2658 14.814-12.964 26.638-12.964 16.524 0 30.341 10.398 30.341 34.331zm85.044-3.7031v51.566c-1.2818 0.28445-3.8453 0.71289-6.2684 0.71289-4.9849 0-7.408-1.8524-7.408-5.2711v-6.9796c-7.2658 8.2613-16.667 13.106-28.491 13.106-17.948 0-27.92-11.682-27.92-24.501 0-19.516 20.798-28.062 56.268-25.641v-2.8498c0-13.248-3.9893-18.804-19.23-18.804-6.4107 0-14.956 1.8524-19.516 2.992-2.7058 0.71289-4.7004 1.2818-6.4107 1.2818-3.8453 0-6.4107-3.4187-4.9849-10.398 8.2613-2.992 20.085-5.84 31.481-5.84 23.646 0 32.478 10.54 32.478 30.628zm-13.817 28.204v-15.385c-23.22-1.7102-42.45 1.2818-42.45 15.243 0 6.9796 5.84 13.39 16.382 13.39 10.827 0.14222 20.228-5.2711 26.068-13.248zm83.049 19.372c-6.9796 3.4187-15.1 5.5556-23.22 5.5556-15.954 0-25.499-9.4009-25.499-25.072v-69.228c0-3.5609 1.9947-5.84 7.408-5.84 2.2791 0 4.9849 0.57067 6.4107 0.85511v17.522h31.339c0.14222 1.1396 0.57067 3.5609 0.57067 5.5556 0 4.8427-1.9947 6.5529-4.9849 6.5529h-26.784v43.732c0 9.4009 4.416 13.961 13.248 13.961 8.1191 0 12.535-3.5609 16.382-3.5609 3.9893 0 5.9822 3.2764 5.1289 9.9716zm81.054-76.638v80.628c-1.2818 0.28445-3.9893 0.71289-6.4107 0.71289-5.5556 0-7.408-1.9947-7.408-5.2711v-6.8373c-5.84 7.2658-14.814 12.964-26.638 12.964-16.382 0-30.199-10.398-30.199-34.188v-43.447c0-3.1342 1.8524-5.2711 7.408-5.2711 2.2791 0 4.9849 0.28444 6.4107 0.71289v46.155c0 16.096 7.8347 23.788 19.801 23.788 9.2587 0 19.23-6.4107 23.362-13.961v-51.424c0-3.1342 1.8524-5.2711 7.408-5.2711 2.2791 0 4.9849 0.42667 6.2684 0.71289zm70.94 5.9822c0 5.5556-2.2791 6.6951-8.1191 6.6951-11.538 0-21.367 5.4133-27.351 17.948v45.444c0 3.4187-1.8524 5.2711-7.408 5.2711-2.2791 0-4.9849-0.28444-6.4107-0.71289v-80.626c1.2818-0.28444 3.9893-0.71289 6.4107-0.71289 5.5556 0 7.408 1.9947 7.408 5.2711v11.253c7.8347-11.966 19.801-17.948 34.757-15.954 0.14222 1.1396 0.71289 3.7031 0.71289 6.1262zm81.196 39.316h-62.393c1.8524 15.669 12.535 24.359 28.491 24.359 6.8373 0 12.251-1.2818 17.237-2.992 3.5609-1.1396 4.9849-1.7102 6.4107-1.7102 3.8453 0 6.4107 3.1342 5.6978 10.54-7.2658 3.1342-18.233 6.6951-29.915 6.6951-25.214 0-42.165-16.951-42.165-42.165 0-24.217 17.948-41.595 39.886-41.595 24.786 0 37.036 19.23 37.036 38.747 0.14222 2.4213 0 5.2711-0.28444 8.1191zm-62.393-10.684h49.573c-0.57066-13.817-9.4009-24.501-23.646-24.501-12.535 0-23.788 8.5476-25.925 24.501z" fill="#fff"/>
	<linearGradient id="C" x1="302.3" x2="300.62" y1="44.201" y2="-3.684" gradientTransform="scale(1.7778)" gradientUnits="userSpaceOnUse">
		<stop stop-color="#fff" offset="0"/>
		<stop stop-color="#fff" stop-opacity=".25" offset="1"/>
	</linearGradient>
	<path d="m281.2 84.757h1.1396l509.12-17.806c4.2738-0.14222 8.5476-3.2764 8.5476-8.6898v-46.866a11.431 11.431 0 0 0-11.396-11.396h-504.13a11.431 11.431 0 0 0-11.396 11.396v82.336c0-0.99733 0.14223-8.1191 8.1191-8.9742z" fill="url(#C)" opacity=".3"/>
</svg>
