<svg xmlns="http://www.w3.org/2000/svg" xmlns:xlink="http://www.w3.org/1999/xlink" width="3090.411" height="856.574" viewBox="0 0 2317.808 642.431"><defs><linearGradient id="a" x1="-8600.5" x2="-8600.5" y1="-4687.6" y2="-4591.4" gradientTransform="matrix(-2.9812 0 0 -2.9812 -24493 -13655)" gradientUnits="userSpaceOnUse"><stop stop-color="#a80000" offset="0"/><stop stop-color="#a1000c" offset=".381"/><stop stop-color="#b90019" offset="1"/></linearGradient><linearGradient id="d" x1="-8600.5" x2="-8600.5" y1="-4687.6" y2="-4591.4" gradientTransform="matrix(-2.9812 0 0 -2.9812 -24493 -13655)" gradientUnits="userSpaceOnUse" xlink:href="#a"/><linearGradient xlink:href="#a" id="b" gradientUnits="userSpaceOnUse" gradientTransform="matrix(-2.9812 0 0 -2.9812 -24493 -13655)" x1="-8600.5" y1="-4687.6" x2="-8600.5" y2="-4591.4"/><linearGradient xlink:href="#a" id="c" gradientUnits="userSpaceOnUse" gradientTransform="matrix(-2.9812 0 0 -2.9812 -24493 -13655)" x1="-8600.5" y1="-4687.6" x2="-8600.5" y2="-4591.4"/><linearGradient xlink:href="#a" id="e" gradientUnits="userSpaceOnUse" gradientTransform="matrix(-2.9812 0 0 -2.9812 -24493 -13655)" x1="-8600.5" y1="-4687.6" x2="-8600.5" y2="-4591.4"/><linearGradient xlink:href="#a" id="f" gradientUnits="userSpaceOnUse" gradientTransform="matrix(-2.9812 0 0 -2.9812 -24493 -13655)" x1="-8600.5" y1="-4687.6" x2="-8600.5" y2="-4591.4"/></defs><path d="M624.21 0h1248v375.09h-1248z" fill="url(#b)" transform="translate(0 .005)"/><path d="M624.21 375.095H25.01c-13.753 0-25.006-11.253-25.006-25.006V24.699C.004 11.571 10.944.006 24.697.006h599.52z" fill="#fff"/><g fill="#fff"><path d="M897.744 35.003c6.06-1.792 13.082-.457 17.777 3.87 6.722 5.882 8.072 16.856 2.926 24.17-3.81 5.94-11.274 9.279-18.228 7.996-8.709-1.358-15.978-9.549-15.647-18.468-.143-7.936 5.55-15.422 13.172-17.568zM763.172 100.116c16.03-4.35 32.975-3.743 49.2-.825 12.422 2.408 24.77 6.098 35.961 12.054.615 5.589.48 11.65-2.258 16.713-1.837 3.428-5.55 5.776-9.474 5.603-5.753-.172-10.921-2.993-16.195-4.965-11.012-4.539-22.976-6.82-34.888-6.294-11.154.555-22.248 3.976-31.445 10.382-8.499 5.768-15.257 13.944-19.66 23.2-4.989 10.54-7.06 22.332-6.714 33.944.345 10.802 2.648 21.663 7.644 31.302 5.963 11.935 16.127 21.746 28.37 27.117 15.744 6.991 34.025 6.339 50.205 1.163 6.653-2.033 12.812-5.521 19.623-7.029 4.216-1.05 9.159.27 11.68 3.968 3.637 5.214 3.757 12.032 3.105 18.116-10.554 5.266-21.956 8.754-33.478 11.162-19.098 3.765-39.396 4.32-57.932-2.348-18.715-6.504-34.94-19.788-45.075-36.801-8.829-14.635-13.262-31.798-13.127-48.848-.195-19.12 5.349-38.406 16.383-54.099 11.41-16.382 28.775-28.43 48.075-33.515zM1034.04 98.75c15.28-3.262 31.753-2.175 46.05 4.344 11.162 5.086 20.494 13.93 26.367 24.679 7.314 13.12 9.73 28.332 9.94 43.184 0 31.55.037 63.1-.038 94.65.127 4.021-2.116 8.192-6.114 9.414-7.179 2.28-14.905 1.148-22.166-.135-.045-34.213.023-68.433-.037-102.646-.436-13.442-3.541-27.77-13.06-37.829-8.266-8.978-20.943-12.64-32.87-12.016-12.325.727-24.087 5.895-33.846 13.3-6.068 4.657-11.477 10.298-15.34 16.93-.855 1.222-.682 2.752-.72 4.163.06 6.42.008 12.834.038 19.255.015 30.102.007 60.205-.008 90.307.158 4.02-2.595 7.756-6.466 8.814-7.028 2.04-14.522 1.013-21.603-.195-.12-32.615-.053-65.23-.06-97.846.06-25.421-.09-50.843.075-76.257 6.803-1.455 14.012-2.573 20.853-.735 3.683.945 6.939 4.043 7.111 8.004.263 5.566-.007 11.139.113 16.712 10.749-12.767 25.346-22.57 41.781-26.096zM1184.514 112.523c23.06-16.405 54.392-20.05 80.766-9.977 12.437 4.846 23.419 13.27 31.415 23.952 8.154 10.756 13.352 23.583 15.835 36.816 2.258 11.881 2.145 24.138.203 36.05-45.225.053-90.457 0-135.682.03 1.658 12.782 6.578 25.467 15.58 34.888 7.786 8.334 18.363 13.728 29.427 16.196 16.578 3.69 33.965 1.8 50.048-3.279 5.88-1.657 11.492-4.245 17.485-5.528 4.178-1.065 8.792.975 10.937 4.696 3.188 5.378 2.806 11.904 2.378 17.905-14.68 6.474-30.26 10.967-46.177 13.037-14.478 1.898-29.345 1.68-43.567-1.822-12.49-3.046-24.44-8.627-34.416-16.78-10.547-8.492-18.775-19.736-23.989-32.21-7.396-17.824-9.166-37.8-5.986-56.77 3.893-22.729 16.72-43.994 35.743-57.204m13.023 22.706c-10.232 8.634-16.54 21.093-19.496 34.003-.33 2.04-.653 4.08-.968 6.128 36.284 0 72.567-.007 108.85 0-.225-3.683-.637-7.343-1.327-10.974-2.49-12.43-8.912-24.371-19.069-32.18-19.593-15.167-49.53-12.977-67.99 3.023zM1409.7 99.898c15.94-5.153 34.266-3.6 48.593 5.326 8.934 5.484 15.783 13.87 20.321 23.254 6.856-9.842 15.603-18.565 26.27-24.221 13.374-7.172 29.336-8.957 44.114-5.784 10.546 2.266 20.426 7.801 27.567 15.933 9.234 10.344 13.937 24.064 15.182 37.723.728 7.779.3 15.603.413 23.412-.03 30.124.037 60.264-.045 90.389.127 4.32-2.88 8.289-7.074 9.316-7.051 1.906-14.522.953-21.596-.39.008-32.105-.007-64.217-.015-96.33-.172-8.416.495-16.893-.698-25.257-1.095-7.456-3.773-14.882-8.82-20.583-4.622-5.28-11.23-8.559-18.094-9.699-20.268-3.773-40.941 8.799-50.055 26.66-.908 2.092-.428 4.455-.518 6.668.015 36.44.038 72.882-.015 109.322.21 4.239-2.415 8.47-6.616 9.572-7.194 1.988-14.83.975-22.053-.33-.008-22.099-.008-44.197-.008-66.296-.128-16.982.24-33.973-.195-50.948-.548-6.968-2.138-13.997-5.693-20.08-3.436-5.972-9.01-10.705-15.528-12.97-11.207-3.938-23.944-2.573-34.34 3.03a52.712 52.712 0 0 0-19.271 17.486c-1.335 2.235-3.226 4.44-3.18 7.186-.076 2.813.022 5.626.015 8.439.03 34.948.007 69.903-.008 104.851.225 4.186-2.288 8.41-6.436 9.564-7.111 2.048-14.725 1.126-21.874-.27 0-37.708-.022-75.417 0-113.118.015-20.26-.007-40.521.008-60.782 6.489-1.433 13.307-2.58 19.9-1.088 3.789.803 7.194 3.774 7.734 7.742.645 5.063.143 10.194.3 15.28 8.102-10.457 19.046-18.926 31.716-23.007zM1692.196 97.438c12.894-.923 26.021-.645 38.646 2.378 10.307 2.453 20.358 7.134 27.807 14.822 8.139 8.094 12.67 19.158 14.665 30.32 2.138 10.817 1.372 21.881 1.507 32.833-.015 32.375.023 64.75-.022 97.125-6.714 1.238-13.712 2.1-20.448.6-4.006-.817-7.524-4.23-7.637-8.446-.12-5.4.008-10.802-.037-16.195-7.246 7.644-15.528 14.41-24.972 19.143-12.64 6.436-27.034 9.002-41.136 8.394-11.454-.473-22.984-3.308-32.795-9.369-10.787-6.579-19.151-17.178-22.542-29.397-3.593-12.872-2.415-27.387 4.629-38.909 5.086-8.319 12.984-14.567 21.573-18.985 12.49-6.362 26.36-9.467 40.192-11.237 18.13-2.236 36.47-2.108 54.683-.945-.067-7.862-.135-15.843-2.205-23.487-1.613-5.97-4.733-11.672-9.549-15.64-5.363-4.41-12.174-6.623-18.956-7.62-18.858-2.506-38.016.854-56.011 6.54-3.78 1.035-7.501 2.386-11.402 2.828-3.938.383-7.981-1.68-9.796-5.213-2.828-5.394-2.64-11.762-1.913-17.636 17.913-6.488 36.726-10.464 55.719-11.904m18.978 93.788c-13.052.787-26.322 2.242-38.519 7.216-7.006 2.933-13.772 7.576-17.253 14.53-5.258 10.434-2.715 24.07 5.986 31.895 5.964 5.633 14.005 8.588 22.076 9.421 12.445 1.118 25.204-1.373 36.314-7.126 9.781-4.906 18.25-12.197 25.076-20.71.6-.856 1.553-1.659 1.433-2.829.052-10.749-.045-21.506.037-32.247a339.159 339.159 0 0 0-35.15-.15zM894.968 100.454c7.239-2.318 15.025-1.073 22.294.517 0 26.022-.015 52.043 0 78.065.03 28.602-.015 57.197.007 85.799.023 3.06-.727 6.413-3.255 8.401-3.173 2.528-7.456 2.933-11.365 3.053-4.733.09-9.436-.502-14.064-1.403-.038-31.58-.015-63.152-.015-94.732.022-23.547-.038-47.093.022-70.639-.09-4.02 2.49-7.876 6.376-9.061z"/></g><path d="M421.97 333.52c4.064 2.188 12.19 4.689 22.818 4.689 17.817.312 27.507-6.565 34.696-22.505l95.648-213.18c-4.063-2.188-12.816-4.376-19.692-4.689-12.19-.313-28.757 2.188-39.384 27.507l-30.945 73.142-60.952-98.461c-4.063-1.25-13.441-2.813-20.63-2.813-21.255 0-33.445 7.814-45.948 21.255l-58.764 64.39 47.511 74.705c8.752 13.753 20.317 20.63 39.072 20.63 12.19 0 22.505-2.813 27.194-5.001l-57.201-86.27 40.635-42.823 66.578 104.4zm-125.34-80.644c0 15.629-6.252 24.693-36.884 24.693-4.064 0-7.502-.313-10.94-.938V68.461c0-15.94 5.314-32.195 36.258-32.195 3.75 0 7.814.313 11.565 1.25zm-63.452-31.257c0 29.382-19.067 50.637-58.139 55.013-28.132 3.126-69.079-.625-88.458-2.813-.625-3.126-1.25-7.19-1.25-10.315 0-25.631 13.753-31.57 26.88-31.57 13.442 0 34.697 2.188 50.638 2.188 17.504 0 22.505-5.94 22.505-11.565 0-7.502-6.877-10.315-20.63-13.128l-36.571-6.564c-30.632-5.94-46.886-27.194-46.886-49.7 0-27.505 19.38-50.323 57.513-54.7 28.757-3.125 64.078.313 83.145 2.814.625 3.438.937 6.564.937 10.002 0 25.631-13.44 30.945-26.569 30.945-10.002 0-25.318-1.875-43.135-1.875-18.129 0-25.318 5-25.318 10.94 0 6.251 7.19 9.064 18.442 10.94l35.321 6.564c36.26 6.876 51.575 27.507 51.575 52.825" fill="url(#c)" transform="translate(0 .005)"/><path d="M1872.2 375.095h420.6c13.753 0 25.006-11.253 25.006-25.006V24.759c0-13.253-11.003-24.756-24.756-24.756H1872.2z" fill="#fff" fill-rule="evenodd"/><g fill="url(#d)" stroke-width="2.981" transform="translate(0 .005)"><path d="M1943.7 100.27c6.502-2.5 13.503-1.25 20.005.25v75.768h87.02v-65.265c-.25-4.751 2-9.502 6.752-11.253 6.251-2 12.753-.75 19.005.75v168.04c.5 4.501-2.501 8.752-6.502 10.252-6.502 2-13.003.75-19.255-1v-77.518h-87.02v68.266c.25 4.251-2.25 8.252-6.002 10.002-6.501 2.25-13.503 1-20.005-.75v-166.79c-.25-4.251 1.75-9.002 6.002-10.753z" fill="url(#e)"/><path d="M2117.7 101.52c2.75-2 6.252-2.25 9.502-2.25h31.007c14.253 0 28.257.5 41.76 5 21.755 6.502 40.76 21.756 50.512 42.26 8.252 18.005 10.002 38.51 7.002 57.765-4 22.505-16.754 43.76-35.508 57.013-15.754 11.003-35.008 16.754-54.263 16.754h-40.509c-3.751-.25-8.252 0-10.753-3.251-2.75-3.501-2.5-8.002-2.5-12.253v-150.04c0-4.001.25-8.502 3.75-11.003m22.255 21.505V254.3h27.757c16.004-.25 32.508-5.251 44.26-16.504 14.003-12.503 20.755-31.757 20.255-50.262.5-14.503-4-29.257-13.003-40.76-8.252-10.502-20.255-17.754-33.258-21.005-7.501-2.25-15.504-2.75-23.506-2.75z" fill="url(#f)"/></g><path d="M25.006.005C11.253.005 0 11.258 0 25.011v226.3c0-20.005 16.003-36.509 36.008-37.259l2281.8-69.266V25.006c0-13.753-11.253-25.006-25.006-25.006z" opacity=".2" fill="#fff"/><g><path d="M1444.667 463.048c5.54-1.47 11.371-.548 16.956.248.015 43.647-.01 87.293.01 130.94.157 3.738-1.87 7.979-5.78 8.857-5.494 1.351-11.236.496-16.753-.293.015-43.909.01-87.818 0-131.728-.03-3.453 2.05-7.16 5.57-8.024zM1336.762 507.964c12.981-4.084 26.545-6.471 40.185-6.138 11.026-.152 23.127 1.622 31.486 9.457 7.312 6.865 9.426 17.262 9.889 26.886.325 13.39-.19 26.795.272 40.185.22 8.502 1.993 16.83 4.123 25.029-5.532 2.106-12.125 3.228-17.702.735-6.305-3.304-6.737-11.253-7.1-17.512-2.334 2.432-4.062 5.372-6.426 7.79-6.449 6.933-15.777 10.654-25.12 11.306-10.495.901-22.044-1.304-29.728-9.003-9.282-9.017-10.563-23.983-5.638-35.517 3.676-8.676 12.026-14.435 20.832-17.042 14.564-4.524 30.06-2.561 44.852-.386-.083-5.767.334-12.019-2.872-17.118-2.584-4.055-7.524-5.585-12.056-6.116-8.154-.84-16.398-.03-24.317 1.993-4.766 1.091-9.57 3.137-14.534 2.175-2.736-.508-4.289-3.084-5.259-5.456-1.349-3.584-1.19-7.517-.887-11.268m32.615 49.164c-5.342.788-10.965 2.395-14.739 6.494-3.6 3.767-4.561 9.556-3.16 14.481 1.175 3.971 4.736 6.783 8.548 8.07 5.706 1.736 11.943 1.531 17.588-.34 7.79-2.85 13.799-9.2 17.891-16.24 2.213-3.25 1.182-7.335 1.28-11.002-8.971-1.864-18.284-2.615-27.408-1.463zM1298.849 459.004c-1.013.013-2.024.13-3.005.34-5.268 1.328-9.438 6.411-9.379 11.895-.35 4.373 1.993 8.648 5.59 11.051 5.155 3.582 12.908 2.44 16.84-2.448 4.425-5.104 3.679-13.766-1.634-17.967-2.322-2.026-5.375-2.911-8.412-2.87zm.908 42.92c-2.1.01-4.19.214-6.24.729-3.88.888-5.962 5.052-5.873 8.783 0 30.22-.01 60.447 0 90.666 5.552.791 11.372 1.71 16.878.203 3.828-.978 5.739-5.134 5.671-8.805.06-30.183 0-60.367.031-90.542-3.432-.527-6.965-1.05-10.466-1.034zM1196.052 519.22c7.339-9.199 18.277-15.341 29.87-17.178 14.354-2.078 29.432.158 42.161 7.28.46 3.846.369 7.918-1.264 11.501-1.197 2.5-3.486 4.773-6.376 4.999-4.11.444-7.806-1.732-11.623-2.83-8.506-2.96-18.397-2.997-26.377 1.505-7.527 4.275-12.337 12.322-13.805 20.723-1.272 7.498-.828 15.447 2.168 22.5 2.642 6.421 7.851 11.728 14.227 14.483 7.053 3.132 15.206 3.26 22.56 1.122 3.628-.949 7.016-2.62 10.637-3.583 3.462-.919 7.67 0 9.703 3.146 2.552 3.772 1.942 8.552 1.754 12.85-12.556 7.174-27.461 9.485-41.726 8.002-12.54-1.446-24.457-7.927-32.308-17.826-14.89-18.856-14.687-48.003.399-66.694zM1098.391 509.656c8.324-6.192 18.735-9.547 29.123-9.164 12.595-.27 25.273 4.968 33.657 14.44 10.83 12.138 14.756 29.642 11.626 45.442-23.816.015-47.632-.022-71.448.023.855 6.455 3.467 12.925 8.511 17.24 6.238 5.457 14.824 7.229 22.916 6.966 7.078.105 13.916-1.981 20.513-4.33 3.7-1.18 8.497-2.252 11.65.712 3.948 3.956 3.963 10.118 3.077 15.275-8.046 3.362-16.423 6.177-25.107 7.258-12.28 1.336-25.243.946-36.592-4.413-8.233-3.686-15.357-9.826-20.07-17.534-6.92-11.101-8.992-24.71-7.424-37.567 1.697-13.39 8.64-26.278 19.568-34.347m11.537 14.599c-5.39 5.126-8.13 12.49-8.745 19.785 17.166.01 34.325.015 51.49 0-.765-7.513-3.715-15.011-9.299-20.236-4.443-4.105-10.636-5.757-16.58-5.682-6.103-.075-12.4 1.862-16.866 6.133zM1014.112 502.378c9.865-2.088 20.504-.969 29.423 3.881 12.042 6.307 20.15 18.544 23.199 31.593 1.682 6.915 1.712 14.092 1.366 21.164-.848 12.884-6.366 25.647-15.984 34.386-13.957 12.613-36.96 15.346-52.487 4.062a45.096 45.096 0 0 1-8.16-7.14c.014 13.852-.03 27.704.022 41.556.09 2.515-.255 5.18-1.817 7.252-1.621 2.268-4.534 3.01-7.177 3.206-4.52.285-9.054-.113-13.514-.856-.075-45.888-.038-91.783-.023-137.67 5.616-1.487 12.148-2.936 17.448.217 4.257 3.371 4.415 9.34 4.723 14.31 5.578-7.643 13.544-14.07 22.98-15.961m-2.927 18.626c-7.981 1.517-15.631 6.187-19.43 13.53-.466 1.103-.248 2.35-.308 3.513.038 10.023.038 20.038 0 30.061.045 1.727-.285 3.664.886 5.12 4.542 6.75 12.08 11.488 20.196 12.336 5.007.488 10.21.18 14.903-1.794 5.39-2.133 9.94-6.194 12.8-11.225 5.09-8.746 5.94-19.512 3.657-29.25-1.802-7.846-6.494-15.27-13.604-19.295-5.676-3.439-12.658-4.032-19.1-2.996zM868.437 478.763c9.424-7.514 21.724-10.531 33.608-10.457 15.235-.38 30.434 2.571 44.755 7.67.104 5.06.164 10.657-3.047 14.894-2.616 3.21-7.216 3.136-10.925 2.474-9.907-1.962-19.903-4.161-30.07-3.864-6.793-.038-14.255.914-19.554 5.552-5.678 4.69-6.05 14.551-.445 19.427 3.901 3.07 8.732 4.6 13.392 6.116 8.614 2.55 17.294 4.89 25.923 7.418 9.795 3.069 19.569 8.063 25.626 16.647 6.436 9.09 6.785 21.122 4.11 31.594-2.238 8.837-8.458 16.343-16.403 20.698-12.107 6.8-26.45 7.744-40.044 7.038-13.28-.892-26.406-3.708-39.01-7.952-.506-5.076-.12-10.68 2.92-14.96 2.75-3.635 7.819-3.494 11.854-2.728 10.427 2.207 20.877 5.009 31.624 4.823 6.912.045 14.418-.379 20.267-4.496 6.525-4.556 8.948-14.47 4.459-21.211-3.322-4.66-9.007-6.563-14.217-8.257-9.053-2.906-18.365-4.92-27.38-7.93-6.934-2.416-13.78-5.634-19.138-10.754-8.598-8.384-12.002-21.345-9.35-32.976 1.287-7.336 5.248-14.099 11.045-18.766z"/></g></svg>