<svg xmlns="http://www.w3.org/2000/svg" width="801.081" height="279.235" ><g transform="translate(26.208 .743)"><g transform="matrix(.65155 0 0 .65155 -36.045995 -108.183683)"><path d="M126.7 314.7c0 21.5-14 37.1-42.6 40.2-20.6 2.2-50.5-.4-64.7-2-.5-2.3-.9-5.2-.9-7.5 0-18.7 10.1-23 19.6-23 9.9 0 25.5 1.7 37 1.7 12.8 0 16.6-4.3 16.6-8.4 0-5.4-5.1-7.6-15-9.5L49.6 301c-22.5-4.3-34.5-19.8-34.5-36.3 0-20 14.2-36.8 42.2-39.9 21.1-2.3 46.9.3 61 2 .5 2.4.8 4.7.8 7.2 0 18.7-9.9 22.7-19.4 22.7-7.3 0-18.6-1.3-31.6-1.3-13.2 0-18.6 3.6-18.6 8 0 4.7 5.2 6.6 13.4 8.1l25.8 4.8c26.6 4.9 38 19.9 38 38.4m46.3 23c0 11.5-4.5 18.1-27 18.1-3 0-5.6-.2-8.1-.6V202.9c0-11.6 3.9-23.7 26.6-23.7 2.9 0 5.8.3 8.5.9zm91.9 59c3 1.5 9 3.4 16.6 3.5 13.1.3 20.2-4.7 25.5-16.4l70-155.7c-2.9-1.5-9.3-3.3-14.5-3.4-9-.2-21.1 1.6-28.8 20L310.9 298l-44.5-72.3c-2.9-.9-9.9-2.1-15-2.1-15.8 0-24.5 5.8-33.6 15.6l-43.2 47.2 34.8 54.7c6.4 10 14.9 15.1 28.6 15.1 9 0 16.5-2.1 20-3.7l-41.9-63 29.7-31.5 48.7 76.3z" fill="#ff0031"/><linearGradient id="A" x1="414.37" x2="1244.631" y1="289.839" y2="289.839" gradientUnits="userSpaceOnUse"><stop stop-color="#ff0031" offset="0"/><stop stop-color="#9b001f" offset="1"/></linearGradient><path d="M1228 164.9H430.9c-9.2 0-16.7 7.5-16.7 16.7v216.5c0 9.2 7.5 16.7 16.7 16.7h797c9.2 0 16.7-7.5 16.7-16.7V181.5c-.1-9.2-7.4-16.6-16.6-16.6" fill="url(#A)"/><linearGradient id="B" x1="197.483" x2="194.588" y1="295.135" y2="212.243" gradientUnits="userSpaceOnUse"><stop stop-color="#fff" offset="0"/><stop stop-color="#fff" stop-opacity=".25" offset=".515"/></linearGradient><path d="M138 202.9v104.5c0-4.2 3.2-8.6 8.6-8.8l17.6-.6c3.5-.1 8.8-2.5 8.9-8.9v-109c-2.7-.6-5.6-.9-8.5-.9-22.7.1-26.6 12.1-26.6 23.7m80 36.4l-43.2 47.2 3.5 5.4c1.5 2 4.4 5.4 10.2 5.2l24.6-.9c5.4-.2 8.8 2.1 10.9 4.9l-7.7-11.6L246 258l19.9 31.3c3.6 4.7 9 4.8 10.2 4.8 1 0 27.2-.9 28.3-1 1.8-.1 3.9.9 5.5 3.2l-43.3-70.4c-2.9-.9-9.9-2.1-15-2.1-15.8-.1-24.5 5.6-33.6 15.5M57.3 224.8c-28 3.1-42.2 19.8-42.2 39.9 0 10.3 4.7 20.2 13.7 27.3 6.8 4.5 13.8 6.2 20.7 7.4 5.7 1 19 1.9 28.9 1.5l30.8-1.1c11.6-.4 17.8 9.5 17.2 19.4v-.5c.1-1.3.2-2.6.2-3.9 0-18.5-11.4-33.6-37.9-38.5l-25.8-4.8c-8.3-1.4-13.4-3.4-13.4-8.1 0-4.4 5.5-8.1 18.6-8.1 13 0 24.3 1.3 31.6 1.3 9.5 0 19.4-4 19.4-22.7 0-2.5-.3-4.8-.8-7.2-10.1-1.2-26.3-2.9-42.4-2.9-6.3.1-12.6.4-18.6 1m276.2 19.9l-22.1 52.1c0-.1 1.4-4.1 5.7-4.3l23.4-.8c7.1-.3 9.9-5.1 10.7-6.7l25.6-57.1c-2.9-1.5-9.3-3.3-14.5-3.4h-1.1c-8.9.1-20.3 2.5-27.7 20.2" fill="url(#B)" opacity=".3" enable-background="new"/><linearGradient id="C" x1="830.555" x2="826.25" y1="276.73" y2="153.473" gradientUnits="userSpaceOnUse"><stop stop-color="#fff" offset="0"/><stop stop-color="#fff" stop-opacity=".25" offset=".515"/></linearGradient><path d="M430.9 164.9c-9.2 0-16.7 7.5-16.7 16.7v120.2c0-1.8.7-11.7 12-12.8 0 0 .6-.1 1.6-.1l804.4-28.2c6.3-.2 12.4-4.9 12.4-12.7v-66.3c0-9.2-7.5-16.7-16.7-16.7z" fill="url(#C)" opacity=".3" enable-background="new"/><g fill="#fff"><path d="M1190.1 275.3v74.5c-2 .5-5.4 1-8.8 1-7 0-10.1-2.5-10.1-7.4v-9.8c-11.1 11.7-24.3 18.6-41.8 18.6-26.3 0-40.8-16.8-40.8-35.6 0-28.4 30.7-40.8 82.6-37.4V276c0-18.1-5.9-28.9-28.9-28.9-11.9 0-22.2 2.6-29.2 4.9-3.6 1-6.4 1.9-8.3 1.9-5.4 0-8.5-4.9-7.3-15.2 11.7-4.4 29.2-8.3 45.6-8.3 34.3.1 47 17.2 47 44.9m-19.1 40.8v-22.5c-33.8-1.5-63 1.8-63 22.7 0 10.3 8.8 19.9 24.5 19.9 16 0 29.5-8.1 38.5-20.1m-709.6-25c0-34.8 25.8-60.7 59.6-60.7 16.2 0 30.7 4.4 40.8 9.6 1 10.6-2.9 15-7.8 15-6.9 0-14.5-7.5-32.3-7.5-22.5 0-40.8 16.8-40.8 43.9s18.3 44.4 40.8 44.4c17.8 0 25.5-7.5 32.3-7.5 4.9 0 8.8 4.4 7.8 15-10.3 4.9-24.8 9.3-40.8 9.3-33.8-.5-59.6-26.7-59.6-61.5m413.8 7.8h-91.1c2.9 22.7 18.9 35.8 42.4 35.8 10.1 0 17.8-2.3 25.3-4.6 4.9-1.8 7.5-2.8 9.6-2.8 4.9 0 8.5 4.6 7.3 15.2-10.3 4.6-26.1 9.6-42.9 9.6-36.4 0-61.5-24.8-61.5-61.2 0-35.1 26.1-60.6 58.3-60.6 35.9 0 53.7 28.7 53.7 56.6-.1 3.7-.4 7.6-1.1 12m-91-15.7h73.3c-.8-20.1-13.7-35.9-34.8-35.9-18.8-.2-35.4 12.4-38.5 35.9m-201.8-77.6c0-7.2 5.7-12.4 12.4-12.4 6.9 0 12.2 5.4 12.2 12.4 0 6.4-5.4 12.2-12.2 12.2s-12.4-5.9-12.4-12.2m2.7 144.1V239.3c0-4.4 2.4-7.3 10.3-7.3 3.1 0 6.9.8 8.8 1.3v110.2c0 4.6-2.6 7.3-10.3 7.3-3.2-.1-6.9-.6-8.8-1.1"/><path d="M1064.5 272.9v70.5c0 4.6-2.6 7.3-10.3 7.3-3.1 0-6.9-.5-8.8-1V275c0-17.3-8.3-27.6-23.8-27.6-13.2 0-24.5 9.6-28.9 19.1v76.9c0 4.6-2.4 7.3-10.1 7.3-3.4 0-7-.5-9-1V275c0-17.3-8-27.6-23.8-27.6-13.2 0-24.5 9.6-28.9 19.1v76.9c0 4.6-2.4 7.3-10.1 7.3-3.4 0-7.2-.5-8.8-1V233.2c2-.5 5.7-1.3 8.8-1.3 7.3 0 9.8 2.9 9.8 7.8v8.3c7.5-10.1 19.4-17.6 33.8-17.6 15.5 0 27.6 8 33.8 21.2 8-11.7 20.4-21.2 37.7-21.2 25.2.1 38.6 19.2 38.6 42.5m-325.3 7.5v63c0 4.6-2.4 7.3-10.1 7.3-3.1 0-6.9-.5-8.8-1V283c0-24-11.9-35.4-29.4-35.4-13.9 0-28.9 9.8-35.1 21.1v74.9c0 4.6-2.5 7.3-10.1 7.3-3.4 0-7-.5-8.8-1V233.2c1.8-.5 5.4-1.3 8.8-1.3 7.5 0 10.1 2.9 10.1 7.3v10.1c8.5-10.3 21.5-18.9 39.2-18.9 24.1.1 44.2 15.4 44.2 50"/></g></g><path d="M419.483 197.138c1.754-.377 3.719-.077 5.103 1.131 2.375 1.878 2.708 5.75.73 8.031-1.758 2.185-5.223 2.695-7.528 1.094-1.608-1.074-2.655-2.985-2.498-4.94-.027-2.451 1.838-4.723 4.192-5.316zm19.625 1.725c2.468-.667 5.063-.24 7.548.097l.013 56.17c-.033 1.608.27 3.419-.797 4.783-.767 1.114-2.208 1.354-3.459 1.454a26.05 26.05 0 0 1-5.76-.43l.01-58.504c.003-1.518.884-3.179 2.445-3.569zm-184.185 3.152c1.111-.674 2.471-.7 3.732-.75l32.279.013c.294 1.964.414 3.962.253 5.947-.133 1.084-.507 2.325-1.551 2.862-1.194.734-2.632.614-3.969.604-7.341-.003-14.679-.003-22.02 0v17.344l24.991-.007c.4 2.095.667 4.286.197 6.394-.32 1.594-1.908 2.742-3.509 2.695l-21.683.003-.01 20.038c.01 1.681-.981 3.462-2.688 3.892-2.485.68-5.096.22-7.604-.07l-.04-54.892c.02-1.464.304-3.199 1.621-4.072zm40.841 16.526c5.637-1.888 11.607-2.882 17.56-2.768 4.132-.067 8.472.43 12.064 2.625 2.732 1.651 4.649 4.453 5.453 7.521.62 2.235.847 4.559.921 6.871l.03 14.979a47 47 0 0 0 1.918 12.707c-2.562.911-5.667 1.508-8.165.123-2.562-1.644-2.662-5.04-2.812-7.761-1.504 2.321-3.282 4.556-5.663 6.03-3.852 2.481-8.642 3.072-13.118 2.498-3.752-.504-7.464-2.361-9.622-5.557-2.045-2.932-2.602-6.684-2.088-10.169.42-3.068 1.854-6.04 4.242-8.055 3.262-2.792 7.601-3.946 11.804-4.263 4.646-.384 9.312.177 13.891.957.007-2.798.187-5.987-1.738-8.265-1.824-1.861-4.623-2.051-7.077-2.155-3.876-.107-7.685.744-11.393 1.781-1.584.374-3.632.714-4.856-.637-1.461-1.808-1.441-4.263-1.351-6.464m15.086 21.499c-2.835.304-5.95 1.127-7.695 3.572-1.601 2.368-1.611 6.054.66 8.008 2.295 1.891 5.513 2.071 8.328 1.568 4.229-.797 7.544-4.062 9.599-7.698.881-1.284.424-2.908.517-4.359.13-.56-.554-.5-.891-.59-3.472-.524-7.011-.904-10.52-.5zm41.193-17.248c2.211-3.379 5.73-5.997 9.716-6.814 3.652-.614 7.591-.03 10.716 2.031 2.368 1.501 4.029 3.889 5.016 6.48 2.408-3.989 6.084-7.621 10.833-8.468 3.662-.584 7.651-.32 10.906 1.601 4.85 2.978 6.474 9.115 6.42 14.482l-.003 25.375c.027 1.578-.967 3.262-2.582 3.609-2.438.6-4.993.227-7.434-.153l.003-27.489c-.033-2.598-.54-5.507-2.628-7.274-1.701-1.531-4.106-1.941-6.314-1.678-3.342.314-6.234 2.705-7.685 5.65l-.053 27.313c-.013 1.568-.944 3.262-2.562 3.632-2.465.597-5.043.223-7.514-.15v-27.823c.01-2.498-.66-5.2-2.578-6.927-1.844-1.638-4.486-1.981-6.847-1.638-2.618.427-4.823 2.171-6.397 4.229-.327.504-.784 1.014-.774 1.648l-.01 26.679c.027 1.678-.844 3.582-2.618 3.986-2.448.594-5.01.22-7.468-.147l.023-44.046c2.468-.63 5.293-1.267 7.651.037 1.958 1.231 2.148 3.769 2.181 5.857zm66.399-6.293c2.445-.614 5.013-.24 7.468.137l-.013 40.47c.03 1.641-.824 3.499-2.535 3.936-2.461.674-5.063.263-7.544-.09v-40.527c-.04-1.668.891-3.529 2.625-3.926zm33.857.887c2.465-1.037 5.24-1.534 7.885-.964 1.417.297 2.685 1.311 3.102 2.728l10.77 30.695 11.066-30.755c.39-1.141 1.257-2.155 2.445-2.498 2.562-.81 5.37-.314 7.798.707l-22.503 57.614c-.687 1.768-2.285 3.169-4.179 3.459-2.248.307-4.583.037-6.684-.83l7.371-16.873-3.479-8.979-13.591-34.303z"/></g></svg>