<?xml version="1.0" encoding="UTF-8"?>
<svg width="800" height="114.12" version="1.1" xmlns="http://www.w3.org/2000/svg">
	<defs>
		<linearGradient id="A" x1="1456.7" x2="1456.7" y2="500" gradientTransform="matrix(.22825 0 0 .22825 .014075 .0008465)" gradientUnits="userSpaceOnUse">
			<stop stop-color="red" offset=".4"/>
			<stop stop-color="#d42321" offset="1"/>
		</linearGradient>
		<linearGradient id="B" x1="1459.5" x2="1450.8" y1="233.73" y2="-15.325" gradientTransform="matrix(.22825 0 0 .22825 .014075 .0008465)" gradientUnits="userSpaceOnUse">
			<stop stop-color="#fff" offset="0"/>
			<stop stop-color="#fff" stop-opacity=".835" offset=".12"/>
			<stop stop-color="#fff" stop-opacity=".658" offset=".269"/>
			<stop stop-color="#fff" stop-opacity=".511" offset=".42"/>
			<stop stop-color="#fff" stop-opacity=".397" offset=".568"/>
			<stop stop-color="#fff" stop-opacity=".315" offset=".716"/>
			<stop stop-color="#fff" stop-opacity=".266" offset=".86"/>
			<stop stop-color="#fff" stop-opacity=".25" offset="1"/>
		</linearGradient>
		<linearGradient id="C" x1="361.92" x2="361.92" y1="28.806" y2="471.22" gradientTransform="matrix(.22825 0 0 .22825 .014075 .0008465)" gradientUnits="userSpaceOnUse">
			<stop stop-color="#002a91" offset="0"/>
			<stop stop-color="#002672" offset=".8"/>
		</linearGradient>
		<linearGradient id="D" x1="365.45" x2="359.6" y1="263.25" y2="95.751" gradientTransform="matrix(.22825 0 0 .22825 .014075 .0008465)" gradientUnits="userSpaceOnUse">
			<stop stop-color="#fff" offset="0"/>
			<stop stop-color="#fff" stop-opacity=".835" offset=".12"/>
			<stop stop-color="#fff" stop-opacity=".658" offset=".269"/>
			<stop stop-color="#fff" stop-opacity=".511" offset=".42"/>
			<stop stop-color="#fff" stop-opacity=".397" offset=".568"/>
			<stop stop-color="#fff" stop-opacity=".315" offset=".716"/>
			<stop stop-color="#fff" stop-opacity=".266" offset=".86"/>
			<stop stop-color="#fff" stop-opacity=".25" offset="1"/>
		</linearGradient>
	</defs>
	<g>
		<path d="m475.05 0v114.12h317.35c4.1996 0 7.5998-3.3984 7.5998-7.598v-98.919c0.0228-4.1996-3.3774-7.6016-7.5998-7.6016z" fill="#002a91"/>
		<path d="m475.05 2.2834v109.56h317.35c2.9386 5e-3 5.3228-2.3778 5.3182-5.3164v-98.919c0-2.9215-2.3739-5.3182-5.3182-5.3182z" fill="#fff"/>
		<path d="m647.48 33.796c-1.5616 0-2.6594 0.32613-3.2938 0.97914-0.58561 0.60637-0.8781 1.3763-0.8781 2.3092v23.509c0 2.752 0.41407 5.3183 1.2437 7.6972 0.87841 2.3788 2.1471 4.4764 3.8063 6.2955 1.6592 1.7725 3.6838 3.1733 6.0751 4.1995 2.44 1.0262 5.2471 1.5376 8.4191 1.5376 3.1232 0 5.9038-0.51144 8.3438-1.5376 2.4888-1.0262 4.5628-2.427 6.222-4.1995 1.6592-1.8191 2.9279-3.9167 3.8063-6.2955 0.8784-2.3788 1.319-4.9452 1.319-7.6972v-26.446c-0.3904-0.09329-0.95255-0.16461-1.6846-0.21126-0.73201-0.09328-1.4879-0.13962-2.2687-0.13962-1.5616 0-2.6594 0.32613-3.2938 0.97914-0.58561 0.60637-0.8781 1.3763-0.8781 2.3092v23.718c0 3.7781-1.0503 6.8115-3.1487 9.097-2.0496 2.2389-4.8302 3.3581-8.3438 3.3581-3.66 0-6.4918-1.1192-8.4926-3.3581-1.952-2.2855-2.9282-5.3189-2.9282-9.097v-26.655c-0.3904-0.09329-0.97539-0.16461-1.7562-0.21126-0.732-0.09328-1.4879-0.13962-2.2687-0.13962zm48.312 0c-1.5616 0-2.6594 0.32613-3.2938 0.97914-0.5856 0.60637-0.8781 1.3763-0.8781 2.3092v42.399c0.39041 0.09328 0.95071 0.16461 1.6827 0.21126 0.78082 0.09328 1.5614 0.13961 2.3422 0.13961 1.5616 0 2.6366-0.30296 3.2222-0.90933 0.63441-0.65301 0.95159-1.4461 0.95159-2.379v-16.513h22.252v19.451c0.3904 0.09328 0.97538 0.16461 1.7562 0.21126 0.78081 0.09328 1.5632 0.13961 2.3441 0.13961 1.5616 0 2.6347-0.30296 3.2203-0.90933 0.63442-0.65301 0.95159-1.4461 0.95159-2.379v-42.399c-0.3904-0.09329-0.97539-0.16461-1.7562-0.21126-0.7808-0.09328-1.5632-0.13962-2.344-0.13962-1.5616 0-2.6594 0.32613-3.2938 0.97914-0.58559 0.60637-0.87809 1.3763-0.87809 2.3092v16.162h-22.252v-19.1c-0.3904-0.09329-0.97725-0.16461-1.758-0.21126-0.732-0.09328-1.4879-0.13962-2.2687-0.13962zm48.165 0.13962c-1.8056 0-2.9756 0.35113-3.5124 1.0508-0.48801 0.65301-0.73298 1.5156-0.73298 2.5884v38.201c0 1.0728 0.24497 1.9585 0.73298 2.6582 0.5368 0.65301 1.7068 0.97914 3.5124 0.97914h9.8098c4.0504 0 7.661-0.60593 10.833-1.8187 3.2208-1.2127 5.9539-2.8452 8.1987-4.8975 2.2448-2.099 3.9541-4.5477 5.1253-7.3463 1.1712-2.7986 1.7562-5.8069 1.7562-9.0253 0-3.405-0.60967-6.4828-1.8297-9.2348-1.1712-2.752-2.8805-5.108-5.1253-7.0671-2.196-1.959-4.8797-3.4525-8.0517-4.4787-3.172-1.0728-6.7332-1.6092-10.686-1.6092zm3.9533 7.1369h6.369c2.3424 0 4.538 0.32613 6.5876 0.97914s3.8311 1.6332 5.3439 2.9393c1.5128 1.2594 2.7093 2.8455 3.5877 4.7579 0.87841 1.8657 1.3172 4.0115 1.3172 6.437 0 2.7053-0.43873 5.0596-1.3172 7.0652-0.87841 2.0057-2.0749 3.6863-3.5877 5.039-1.5128 1.306-3.2943 2.3076-5.3439 3.0072-2.0008 0.65301-4.147 0.98098-6.4406 0.98098h-6.516z" fill="#002a91"/>
		<path d="m618.18 99.935q-1.1752 0-2.6271-0.70371v-81.831q0-1.1058 0.48393-2.1111 0.48392-1.1058 1.9358-1.1058 1.1753 0 2.6271 0.70371v81.831q0 1.1058-0.48393 2.1111-0.48393 1.1058-1.9358 1.1058z" fill="#002a91"/>
		<path d="m514.71 97.367c0 1.6433-0.77601 2.5106-2.8302 2.5106h-4.7702v-9.2212h4.5876c2.1454 0 2.8759 0.84446 2.8759 2.3966 0 1.1869-0.45648 1.7346-1.7118 2.0542l-0.22824 0.06847 0.20542 0.04562c1.4152 0.31954 1.8715 0.84446 1.8715 2.1454zm-5.4321-2.853h1.94c0.77601 0 1.1184-0.34236 1.1184-1.1184 0-0.79886-0.31954-1.164-1.1184-1.164h-1.9172zm3.1954 2.6247c0-0.84446-0.34236-1.2098-1.1184-1.2098h-2.0542v2.3737h2.0542c0.82168 0 1.1184-0.34235 1.1184-1.164zm3.7203-0.27388v-6.231h2.3053v6.1396c0 1.0042 0.45648 1.3923 1.7118 1.3923 1.2325 0 1.7118-0.38802 1.7118-1.3923v-6.1396h2.3053v6.2082c0 2.1683-1.2553 3.1498-3.9942 3.1498-2.7845 0.02286-4.017-0.95862-4.0399-3.1269zm18.784-6.2082v9.1979h-2.8073l-3.9257-6.6646v6.6646h-2.1454v-9.2212h2.8073l3.9029 6.6646v-6.6646zm1.8944 0h4.1084c3.2182 0 4.0627 1.3237 4.0627 4.5876 0 3.1955-0.93573 4.6104-4.0627 4.6104h-4.1084zm4.0399 7.4634c1.3466 0 1.7803-0.70755 1.7803-2.853 0-2.1454-0.43366-2.8301-1.7803-2.8301h-1.7346v5.706zm5.8202-7.4634h6.4364v1.7574h-4.154v1.94h3.4464v1.7346h-3.4464v2.0086h4.2453v1.7574h-6.5504v-9.1979zm7.8971 8.8557v-1.8032c0.98148 0.34236 2.0313 0.50213 3.0813 0.50213 1.05 0 1.5292-0.27389 1.5292-1.0042 0-0.61625-0.20542-0.79885-1.0499-0.98148l-1.5292-0.31954c-1.5977-0.34236-2.1227-0.98138-2.1227-2.5563 0-2.0086 1.1869-2.8987 3.5834-2.8987 1.0043 0 1.9857 0.15976 2.9215 0.50213v1.8032c-0.89014-0.31954-1.8488-0.4793-2.8073-0.4793-1.1412 0-1.5292 0.29671-1.5292 1.0042 0 0.59342 0.27389 0.776 1.0042 0.93575l1.4835 0.31954c1.7346 0.36518 2.2139 0.95862 2.2139 2.602 0 1.9629-1.2098 2.8759-3.6974 2.8759-1.0271 0-2.077-0.15978-3.0813-0.50213zm8.3764-8.8557h2.3053v7.4406h3.9486v1.7574h-6.2538zm7.6917 0h2.3053v9.1979h-2.3053zm11.823 3.8801v4.9985c-1.0271 0.31954-2.0998 0.47931-3.1955 0.47931-3.1954 0-4.7018-1.4152-4.7018-4.7702 0-3.3551 1.5064-4.7702 4.7018-4.7702 1.0271-0.02285 2.0542 0.15977 3.0356 0.52496v1.7803c-0.91298-0.31955-1.8715-0.47931-2.853-0.47931-1.94 0-2.5335 0.776-2.5335 2.9672 0 2.2825 0.63908 3.0128 2.465 3.0128 0.41084 0 0.79885-0.02286 1.2098-0.09133v-2.0542h-1.7118v-1.5749zm7.5091 3.4008h-3.6062l-0.63906 1.94h-2.2825l3.2867-9.1979h2.9215l3.2638 9.1979h-2.3053zm-1.8032-5.843-1.3466 4.154h2.6476z"/>
		<path d="m507.25 14.266h85.591v68.472h-85.591z" fill="#d20515"/>
		<path d="m577.82 50.328c0.0457 0.15977-0.11412 0.29671-0.41083 0.50213l-0.18259 0.11412 0.0685 0.11412c0.0456 0.0913-0.0229 0.20542-0.15978 0.27389l-0.27387 0.13695c-0.13695 0.06847-0.27389 0.04565-0.31955-0.02283l-0.0685-0.11412-0.36519 0.18259 0.0457 0.11412c0.0456 0.0913-0.0457 0.20542-0.15977 0.25106l-0.27387 0.13695c-0.13695 0.06847-0.27389 0.04565-0.31954-0.04565l-0.0456-0.11412c-1.0956 0.52496-2.3281 1.0727-3.5834 1.6433l0.0685 0.15977c0.0456 0.0913-0.0457 0.20542-0.15976 0.25106l-0.29672 0.13695c-0.13694 0.06847-0.27389 0.04565-0.29672-0.04565l-0.0685-0.15977-0.41083 0.20542 0.0685 0.15977c0.0456 0.0913-0.0456 0.20542-0.15977 0.25106l-0.27387 0.13695c-0.13695 0.06847-0.27389 0.04565-0.31954-0.04565l-0.0685-0.15977c-0.5706 0.22825-1.2098 0.34236-1.6661-0.52496-0.20542-0.38801-0.20542-1.301-0.36519-1.7803-0.0685-0.15977-0.20541-0.27389-0.36519-0.29671-5.5691-1.0727-7.4634 0.11412-11.047-0.75319-1.1184-0.27389-1.7346-1.301-3.1269-1.3238l-7.1896-0.15977-0.15977 0.5706-11.503-0.04565 1.7574 0.86729 0.57059 5.0669s-0.45648 0.13695-0.59341 0.15977c0.1141 1.0042 0.22822 2.3737 0.27387 3.6062 0.0456 1.1184 0.11412 2.2596 0.0913 2.99 0 0.4793-0.11412 0.95862-0.34234 1.3695-0.22823 0.36518-0.50213 0.68472-0.86731 0.93574-0.11411 0.06847-0.54778 0.38801-1.0727 0.6619-0.50213 0.29671-1.1412 0.61625-1.4379 0.776 0.0456 0.13694 0.0913 0.27389 0.15977 0.388-6.984 3.378-15.658 4.542-18.465 9.906-0.34237 0.61625-1.4607 0.29672-1.5064-0.36518v-1.0956h-0.0913c-0.0913 0-0.15977-0.11412-0.15977-0.27389v-0.31955c0-0.13695 0.0913-0.25106 0.18258-0.25106h0.11413c0.0456-0.31954 0.0913-0.61625 0.18259-0.91298l-0.11411-0.04564c-0.0913-0.02283-0.11413-0.15977-0.0685-0.29672l0.11412-0.29671c0.0456-0.13695 0.15976-0.22825 0.25106-0.20542l0.11411 0.04565c0.50212-1.164 1.4607-1.689 1.9172-2.7845l-0.0685-0.02283c-0.0913-0.02283-0.11413-0.15977-0.0685-0.29671l0.11412-0.29672c0.0457-0.13695 0.15978-0.22825 0.25108-0.18259l0.0685 0.02283c0.0685-0.15977 0.13694-0.34236 0.22824-0.50213l-0.0913-0.06847c-0.0913-0.04565-0.0913-0.18259 0-0.31955l0.15977-0.27389c0.0685-0.11412 0.20541-0.1826 0.27388-0.13694l0.0457 0.02283h0.0456c0.0229 0 0.0229 0 0.0457-0.02283l0.13694-0.13695c0.43364-0.31954 1.0271-0.34236 1.4836-0.02283 0.43364 0.27389 2.1683 1.2553 3.8116-0.25106 2.7389-2.4422 5.9114-5.7745 8.3084-5.8886-0.66189-1.3923-1.7803-4.3366-1.9172-5.4321l-0.77599-0.15977c-0.41082-0.91298-1.4379-5.0669-1.7346-8.2169 0 0-0.34235-3.378 0-4.5648-0.18259-0.02283-0.52495 0.25106-0.61625 0.25106-0.43363-1.0727 0.98148-10.18 2.3966-12.827l2.1683-0.86729c-0.22824-0.02283-1.7803-0.0913-5.9114-0.43366-2.3053 2.0542-4.9756 4.2453-6.3223 5.4321-0.22825 0.15977-0.61626 1.4607-0.61626 1.4607s-0.66188 0.59343-1.301 1.0271c-0.8217 0.59343-2.8759 1.0271-3.3095 0.34236-0.0913-0.15977-0.0913-0.25106 0-0.34236 0.31953-0.34236 1.5064-0.89015 1.9171-1.6433-0.66189 0.34236-1.3694 0.6619-1.94 0.61625-0.25106 0-0.36518-0.61625-0.0456-0.73037 0.8673-0.36518 1.552-0.52496 2.0542-1.2325 0.50214-0.70751 1.0956-1.1412 1.8715-1.164 0 0 3.8345-4.9984 6.0712-7.3722 0.61624-0.6619 1.7803-0.43366 1.7803-0.43366l0.20542-0.75318s7.7145-0.91298 11.321 0.27389c-0.0913-2.1911 0.89012-5.0898 4.3138-5.0898 1.7574 0 4.3366 1.552 4.7018 3.4464 0.11411 0.5706-0.22824 0.95862-0.41083 1.7118-0.29671 1.1184 0.11412 2.3508 0 2.7389-0.0913 0.31954-0.45648 0.29671-0.77601 0.73036-0.27389 0.43366-0.50212 0.86729-0.70753 1.3466l-0.45649 1.0499-2.4193-0.18259c-0.89012 1.8944-2.6933 5.7745-3.3323 9.6088 1.8944 0.15977 10.476 1.3923 10.476 1.3923l0.20542 0.70755s3.6062 0.43366 6.5733 1.8488c0.66189 0.15977 2.3281-0.0913 3.4236 0.41084 0.0685-0.04565 0.25107-0.22825 0.34235-0.27389 3.8573 1.1869 7.0526 3.2182 10.751 4.1083l2.3281 0.54777c0.98148 0.18259 1.9857 0.31954 2.99 0.388 1.1869 0.0913 1.8488 0.06847 2.7161 0.13695 0.61625 0.04565 1.3695-0.06847 1.6205 0.84446m5.5234-11.732c-2.6247 0-4.7702 2.1226-4.7702 4.7474 0 2.6248 2.1227 4.7702 4.7474 4.7702s4.7702-2.1226 4.7702-4.7474c0-2.6476-2.1454-4.7702-4.7474-4.7702z" fill="#fff"/>
		<path d="m189.93 8.465e-4h285.11c4.1996 0 7.6005 3.4008 7.6005 7.6005v98.919c0 4.1996-3.4008 7.6005-7.6005 7.6005h-285.11c-4.1996 0-7.6005-3.4008-7.6005-7.6005v-98.919c0-4.1996 3.4008-7.6005 7.6005-7.6005z" fill="url(#A)"/>
		<path d="m187.8 56.604 0.73035-0.04565 288.43-10.065c3.1726-0.02283 5.706-2.6247 5.6832-5.7745v-33.118c0-4.1996-3.4008-7.6005-7.6005-7.6005h-285.11c-4.1996 0-7.6005 3.4008-7.6005 7.6005v54.938c-0.0913-3.1269 2.3508-5.7745 5.4777-5.9343z" fill="url(#B)" opacity=".4"/>
		<path d="m114.04 105.93c2.3966 1.0498 4.9757 1.6205 7.5775 1.6205 5.957 0.13695 9.2213-2.1454 11.618-7.4863l31.976-71.188c-2.077-0.93574-4.3366-1.4607-6.619-1.5292-4.1311-0.0913-9.6549 0.75318-13.147 9.1522l-10.34 24.376-20.313-33.003c-2.2368-0.59343-4.542-0.91298-6.8471-0.95862-7.1896 0-11.184 2.6247-15.338 7.1439l-19.742 21.545 15.863 24.97c2.9443 4.542 6.8016 6.87 13.079 6.87 3.1269 0.04561 6.231-0.52496 9.1298-1.7118l-19.127-28.759 13.557-14.357 22.23 34.852zm-41.928-26.909c0 5.2496-2.0542 8.2626-12.325 8.2626-1.2325 0-2.465-0.09129-3.6747-0.25106v-69.636c0-5.2952 1.8032-10.818 12.143-10.818 1.301 0 2.602 0.13695 3.8573 0.38801zm-21.18-10.522c0 9.8148-6.4136 16.936-19.424 18.35-9.4263 1.0042-23.075-0.18259-29.557-0.91298-0.22825-1.1184-0.36518-2.2596-0.38801-3.4236 0-8.5359 4.6104-10.499 8.947-10.499 4.5192 0 11.618 0.79886 16.89 0.79886 5.8202 0 7.5776-1.9629 7.5776-3.8573 0-2.4422-2.3281-3.4693-6.8472-4.3366l-12.37-2.3737c-10.271-1.9629-15.749-9.0609-15.749-16.593 0-9.1522 6.4821-16.798 19.241-18.213 9.6549-1.0499 21.409 0.13694 27.845 0.91298 0.22825 1.0727 0.34236 2.1683 0.34236 3.2867 0 8.5359-4.5192 10.385-8.8557 10.385-3.3323 0-8.5134-0.61625-14.424-0.61625-6.0028 0-8.5134 1.6661-8.5134 3.6747 0 2.1454 2.3737 3.0127 6.1397 3.6747l11.799 2.1911c12.119 2.2139 17.346 9.1065 17.346 17.552z" fill="url(#C)"/>
		<path d="m165.22 28.872-11.709 26.065c-0.91299 1.8716-2.8073 3.0584-4.8843 3.0584l-10.682 0.36518c-1.164 0.06847-2.1911 0.84446-2.602 1.94v-0.02283l10.088-23.783c3.5149-8.3988 9.0384-9.2436 13.147-9.1522 2.3053 0.06847 4.542 0.59343 6.6418 1.5292zm-30.675 31.155-19.766-32.136c-2.2368-0.59343-4.542-0.91298-6.8471-0.95862-7.1897 0-11.184 2.6247-15.338 7.1439l-19.742 21.545 1.5749 2.4879c1.0271 1.552 2.8073 2.4422 4.6789 2.3508l11.252-0.38801a5.6307 5.6307 0 0 1 4.9757 2.2367l-3.5377-5.318 13.557-14.357 9.1065 14.265c1.1184 1.4152 2.853 2.2139 4.6562 2.1683l12.941-0.45648c1.0042 0 1.9629 0.54777 2.4879 1.4152zm-66.304-53.431c-10.34 0-12.143 5.5234-12.143 10.818v47.702c0-2.1911 1.7574-3.9714 3.9486-4.0399l8.0109-0.27389c2.2367 0 4.0628-1.8259 4.0628-4.0628v-49.757c-1.301-0.27389-2.5791-0.41083-3.8801-0.38801zm-34.647 44.325-11.799-2.1911c-3.766-0.6619-6.1397-1.5292-6.1397-3.6747 0-2.0086 2.5106-3.6747 8.5134-3.6747 5.9114 0 11.093 0.61625 14.424 0.61625 4.3366 0 8.8557-1.8488 8.8557-10.385 0-1.0956-0.11412-2.2139-0.34236-3.2867-6.4364-0.79886-18.19-1.9629-27.845-0.91298-12.781 1.4152-19.264 9.0841-19.264 18.213 0.022825 4.8843 2.3281 9.495 6.231 12.439 2.8759 1.7803 6.1168 2.9443 9.4724 3.378 4.3822 0.59343 8.7876 0.82169 13.192 0.68471l14.082-0.50213c5.2723-0.18259 8.1481 4.3138 7.8515 8.8332 0-0.06847 0-0.11412 0.02283-0.18259v-0.04565c0.04565-0.59343 0.06847-1.1869 0.06847-1.7803 0-8.3988-5.2267-15.292-17.323-17.529z" fill="url(#D)" opacity=".25"/>
		<path d="m204.14 82.008c-0.68472-4.7018 0.77599-7.1668 3.4693-7.1668 2.5562 0 8.8332 2.8073 17.574 2.8073 9.1979 0 12.667-3.2638 12.667-7.5092 0-3.0127-1.3466-5.706-9.6314-7.9653l-9.5175-2.5563c-10.522-2.8073-14.677-8.0799-14.677-14.585 0-8.0567 6.3907-15.246 20.838-15.246 6.5049 0 14.585 1.4607 19.491 3.378 0.89014 4.5876-0.5706 7.0526-3.3552 7.0526-2.465 0-8.0567-2.3508-16.022-2.3508-8.5134 0-11.663 2.8987-11.663 6.7103 0 2.6704 1.2325 5.1583 8.8558 7.2809l9.7461 2.6933c10.887 3.0127 15.246 8.0567 15.246 15.224 0 8.4221-6.5049 15.908-22.185 15.908-6.9386 0.02285-15.589-1.6661-20.838-3.6747m107.54-24.308c0 17.574-12.325 28.005-25.882 28.005-8.0567 0-14.677-3.8116-18.602-9.1755v22.641c0 2.1227-1.2325 3.4693-4.8159 3.4693-1.8032 0-3.4693-0.22823-4.3594-0.43365v-71.393c0.89014-0.22825 2.5563-0.45648 4.3594-0.45648 3.5834 0 4.8159 1.3466 4.8159 3.4693v5.1355c3.9257-5.3636 10.545-9.1755 18.602-9.1755 13.557 0 25.882 10.431 25.882 27.914m-9.2894 0c0-11.755-7.829-19.834-18.374-19.834-7.1668 0-13.786 4.154-16.798 10.202v19.377c3.0127 6.0484 9.6313 10.202 16.798 10.202 10.522-0.02285 18.374-8.0798 18.374-19.948m17.894 0c0-16.022 11.755-27.891 27.548-27.891 15.908 0 27.663 11.869 27.663 27.891 0 15.908-11.755 28.005-27.663 28.005-15.794-0.02285-27.548-12.119-27.548-28.005m45.922 0c0-12.325-8.3084-19.834-18.374-19.834-9.9511 0-18.259 7.5092-18.259 19.834 0 12.21 8.3083 19.925 18.259 19.925 10.065 0 18.374-7.7145 18.374-19.925m53.705-22.87c0 3.6974-1.552 4.4735-5.3865 4.4735-7.7145 0-14.219 3.5834-18.259 11.983v30.379c0 2.2367-1.2325 3.4693-4.93 3.4693-1.5749 0-3.378-0.22825-4.2682-0.43366v-53.91c0.89014-0.22825 2.6704-0.43366 4.2682-0.43366 3.6747 0 4.93 1.3466 4.93 3.4693v7.5092c5.2496-7.9653 13.215-11.983 23.189-10.636 0.11413 0.77601 0.45648 2.465 0.45648 4.1311m40.285 47.178c-4.7018 2.2367-10.088 3.6974-15.452 3.6974-10.636 0-17.027-6.2766-17.027-16.685v-46.264c0-2.3508 1.3466-3.9257 4.93-3.9257 1.552 0 3.3552 0.31955 4.2682 0.5706v11.64h20.929c0.11412 0.77601 0.34236 2.3508 0.34236 3.6974 0 3.241-1.3466 4.3594-3.3552 4.3594h-17.917v29.26c0 6.2538 2.8987 9.2893 8.8332 9.2893 5.3865 0 8.3988-2.3508 10.978-2.3508 2.6933-0.02283 4.0399 2.2139 3.4693 6.7103" fill="#fff"/>
	</g>
</svg>
