<?xml version="1.0" encoding="UTF-8"?>
<svg width="800" height="176.13" version="1.1" viewBox="0 0 211.67 46.6" xmlns="http://www.w3.org/2000/svg">
 <defs>
  <linearGradient id="A" x1="-80.811" x2="-81.356" y1="123.82" y2="108.22" gradientTransform="matrix(1 0 0 1 114.86 -99.297)" gradientUnits="userSpaceOnUse">
   <stop stop-color="#fff" offset="0"/>
   <stop stop-color="#fff" stop-opacity=".25" offset=".515"/>
  </linearGradient>
  <linearGradient id="B" x1="40.274" x2="39.463" y1="120.41" y2="97.201" gradientTransform="matrix(1 0 0 1 114.86 -99.297)" gradientUnits="userSpaceOnUse">
   <stop stop-color="#fff" offset="0"/>
   <stop stop-color="#fff" stop-opacity=".25" offset=".515"/>
  </linearGradient>
  <linearGradient id="C" x1="-40.434" x2="96.806" y1="122.6" y2="122.6" gradientTransform="matrix(1 0 0 1 114.86 -99.297)" gradientUnits="userSpaceOnUse">
   <stop stop-color="#00e1b9" offset="0"/>
   <stop stop-color="#00abd7" offset="1"/>
  </linearGradient>
 </defs>
 <g>
  <path d="m77.534 0a3.11 3.11 0 0 0-3.108 3.108v40.384a3.11 3.11 0 0 0 3.108 3.108h131.03a3.11 3.11 0 0 0 3.108-3.108v-40.384a3.11 3.11 0 0 0-3.108-3.108z" fill="url(#C)"/>
  <path d="m97.77 14.23q0 1.129-0.511 1.491-0.511 0.341-1.682 0.341-2.364 0-4.28 1.171-1.916 1.171-3.173 3.726v12.393q0 0.68101-0.447 1.043-0.426 0.362-1.554 0.362-0.49 0-0.98001-0.064-0.468-0.043-0.76701-0.128v-21.975q0.298-0.085 0.76701-0.128 0.49-0.064 0.98001-0.064 1.129 0 1.554 0.383 0.447 0.383 0.447 1.043v3.066q3.301-5.025 9.4551-4.344 0.021 0.085 0.043 0.213 0.149 0.63901 0.149 1.469zm5.1111 7.7721h13.5q-0.128-2.875-1.831-4.77-1.703-1.895-4.621-1.895-2.534 0-4.536 1.704t-2.513 4.961zm17.014 2.939h-17.014q0.426 3.194 2.47 4.919 2.044 1.704 5.302 1.704 2.811 0 4.727-0.76701 0.703-0.298 1.065-0.405 0.383-0.106 0.66-0.106 0.78801 0 1.235 0.70301 0.44701 0.68101 0.31901 2.172-1.491 0.68101-3.641 1.256-2.129 0.575-4.493 0.575-5.153 0-8.3261-3.151-3.151-3.173-3.151-8.3261 0-4.94 3.194-8.1341 3.194-3.215 7.6871-3.215 3.386 0 5.622 1.554 2.257 1.533 3.364 3.961 1.129 2.406 1.129 5.047 0 0.98001-0.149 2.215zm8.5371-5.324v7.9001q2.449 4.174 6.8991 4.174 3.237 0 5.345-2.236 2.108-2.257 2.108-5.8561 0-3.641-2.108-5.8981-2.108-2.257-5.345-2.257-4.45 0-6.8991 4.174zm-3.705 22.167v-29.13q0.256-0.106 0.72401-0.17 0.49-0.085 0.958-0.085 2.023 0.021 2.023 1.725v1.831q1.235-1.704 3.173-2.747 1.959-1.043 4.408-1.043 2.811 0 5.217 1.363 2.406 1.363 3.876 3.918 1.491 2.555 1.491 6.1541 0 3.556-1.491 6.1111-1.469 2.555-3.876 3.918-2.406 1.363-5.217 1.363-2.449 0-4.408-1.043-1.938-1.065-3.173-2.768v9.3691q0 0.66001-0.468 1.043-0.46801 0.383-1.597 0.383-0.468 0-0.937-0.064-0.44701-0.064-0.70301-0.128zm26.648-7.1971v-28.449q0-0.66001 0.44701-1.043 0.447-0.383 1.576-0.383 0.468 0 0.95801 0.064001 0.49 0.043 0.78801 0.128v28.449q0 0.68101-0.44701 1.043-0.447 0.362-1.576 0.362-0.49001 0-0.98001-0.064-0.468-0.043-0.76701-0.106zm23.44-6.4101v-4.152q-3.194-0.256-5.813 0.021-2.598 0.277-4.174 1.256-1.576 0.98001-1.576 2.875 0 1.448 1.15 2.555 1.171 1.107 3.343 1.107 4.387 0 7.0701-3.663zm3.748-7.6871v14.097q-0.277 0.064-0.74501 0.106-0.447 0.064-0.937 0.064-2.023 0-2.023-1.405v-1.938q-2.896 3.577-7.7721 3.577-3.663 0-5.622-2.023-1.959-2.044-1.959-4.642 0-3.982 4.003-5.7281 4.025-1.767 11.307-1.278v-0.78801q0-2.704-1.065-3.897-1.065-1.214-4.195-1.214-1.299 0-2.811 0.277-1.512 0.277-2.619 0.61801-0.937 0.298-1.597 0.298-0.78801 0-1.214-0.70301t-0.17-2.129q1.725-0.639 4.003-1.129 2.278-0.49 4.599-0.49 4.834 0 6.8141 2.129 2.002 2.129 2.002 6.1971zm10.623 21.486q-1.278 0-2.47-0.61801l3.705-7.7721-9.6891-20.549q0.97901-0.63901 2.385-0.63901 1.512 0 2.065 1.214l7.2611 15.672 7.0061-15.672q0.31901-0.70301 0.74501-0.95801 0.447-0.256 1.214-0.256 1.341 0 2.406 0.59601l-12.691 27.682q-0.277 0.63901-0.72401 0.95801-0.426 0.341-1.214 0.341z" fill="#fff"/>
  <path d="m77.534 0a3.11 3.11 0 0 0-3.108 3.108v22.402c0-1.741 1.21-2.359 2.532-2.406l132.39-4.621c1.167-0.041 2.316-0.91201 2.319-2.362v-13.013a3.11 3.11 0 0 0-3.108-3.108z" fill="url(#B)" opacity=".4"/>
  <path d="m20.787 27.963c0 4.004-2.615 6.9181-7.9311 7.4911-3.85 0.41-9.4191-0.074-12.071-0.376-0.086001-0.428-0.16-0.96701-0.16-1.395 0-3.487 1.882-4.291 3.653-4.291 1.845 0 4.746 0.323 6.8931 0.323 2.381 0 3.099-0.80401 3.099-1.574 0-1.001-0.94901-1.411-2.794-1.771l-5.048-0.96401c-4.192-0.80401-6.4281-3.699-6.4281-6.7731 0-3.736 2.649-6.8661 7.8611-7.4361 3.94-0.431 8.7381 0.052 11.369 0.376 0.089 0.444 0.145 0.87501 0.145 1.34 0 3.484-1.845 4.235-3.619 4.235-1.358 0-3.471-0.249-5.8891-0.249-2.455 0-3.474 0.67801-3.474 1.5 0 0.87801 0.96701 1.235 2.507 1.503l4.817 0.89301c4.941 0.91201 7.0721 3.718 7.0721 7.1681m8.6431 4.291c0 2.144-0.84401 3.379-5.033 3.379-0.554 0-1.038-0.037-1.503-0.108v-28.421c0-2.162 0.73301-4.417 4.959-4.417 0.536 0 1.075 0.055 1.577 0.163zm17.126 10.993c0.554 0.283 1.682 0.625 3.099 0.66201 2.433 0.052 3.761-0.87801 4.743-3.059l13.054-29.064c-0.536-0.286-1.737-0.607-2.704-0.625-1.682-0.034-3.94 0.305-5.372 3.736l-4.226 9.9551-8.2891-13.476c-0.536-0.163-1.845-0.394-2.794-0.394-2.935 0-4.565 1.072-6.2681 2.914l-8.0581 8.7941 6.4841 10.189c1.198 1.857 2.775 2.806 5.335 2.806 1.685 0 3.08-0.394 3.724-0.69601l-7.8051-11.745 5.532-5.8621 9.0771 14.227z" fill="#00e1b9"/>
  <path d="m27.854 2.689c-4.226 0-4.959 2.255-4.959 4.417v19.476c0-0.78201 0.601-1.611 1.608-1.648l3.271-0.114c0.647-0.022 1.642-0.459 1.654-1.66v-20.31c-0.502-0.108-1.038-0.16-1.574-0.16zm16.211 8.2951c-2.935 0-4.565 1.072-6.2651 2.914l-8.0581 8.7941 0.64401 1.01c0.274 0.376 0.82901 1.001 1.907 0.96101l4.593-0.16c1.001-0.037 1.636 0.391 2.03 0.90301l-1.439-2.162 5.532-5.8611 3.718 5.8281c0.67801 0.87801 1.685 0.89301 1.904 0.88401l5.279-0.185c0.339-9e-3 0.73001 0.176 1.026 0.594l-8.0761-13.128c-0.536-0.16-1.842-0.391-2.794-0.391zm-32.739 0.043-3.474 0.169h6e-3c-5.209 0.573-7.8581 3.699-7.8581 7.4391 0 1.916 0.86901 3.767 2.544 5.079 1.272 0.83501 2.563 1.158 3.866 1.383 1.072 0.185 3.551 0.351 5.39 0.28l5.748-0.197c2.108-0.072 3.271 1.689 3.205 3.492 0.029-0.234 0.029-0.471 0.029-0.71001 0-3.447-2.132-6.2531-7.0751-7.1641l-4.814-0.89601c-1.543-0.265-2.507-0.62501-2.507-1.5 0-0.82201 1.02-1.503 3.474-1.503 2.418 0 4.528 0.249 5.8891 0.249 1.771 0 3.616-0.74801 3.616-4.235 0-0.462-0.052-0.89301-0.142-1.34-1.891-0.231-4.894-0.545-7.8981-0.545zm9.4271 17.645c0 0.029-5e-3 0.032-5e-3 0.041a0.18 0.18 0 0 1 0 0.074c5e-3 -0.038 5e-3 -0.077 5e-3 -0.115zm43.779-17.513c-1.657 0-3.789 0.447-5.162 3.736l-4.121 9.7151v6e-3c0-0.012 0.268-0.76401 1.063-0.79201l4.368-0.151c1.321-0.046 1.851-0.96101 1.99-1.248l4.78-10.639c-0.539-0.286-1.737-0.607-2.704-0.62801h-0.209z" fill="url(#A)" opacity=".4"/>
 </g>
</svg>
