<svg xmlns="http://www.w3.org/2000/svg" viewBox="0 0 1011.8 262.5" ><path d="M1003.9 0c4.377 0 7.905 3.563 7.905 7.905v147.01a7.94 7.94 0 0 1-7.905 7.905H797.65c-4.377 0-7.905-3.562-7.905-7.905V7.935c0-4.377 3.563-7.905 7.905-7.905h206.25" fill="#fff"/><path d="M903.77 48.789v62.666c0 2.748-1.391 4.275-5.666 4.275-1.934 0-3.732-.271-5.123-.543V86.348h-35.76v25.141c0 2.748-1.391 4.275-5.666 4.275-2.07 0-4.139-.271-5.123-.543v-62.7c0-2.646 1.391-4.275 5.802-4.275 1.934 0 3.834.271 4.953.543v27.889h35.591V52.521c0-2.646 1.527-4.275 5.938-4.275 2.036 0 3.936.271 5.055.543m73.359 33.114c0 18.796-13.13 33.012-33.691 33.012h-19.17c-4.139 0-5.666-1.662-5.666-4.275V53.335c0-2.612 1.527-4.275 5.666-4.275h19.17c20.561 0 33.691 14.08 33.691 32.843m-10.925 0c0-14.08-8.821-23.207-22.766-23.207h-14.08v46.516h14.08c13.945.034 22.766-9.093 22.766-23.309" fill="#9c001f"/><g transform="matrix(.65155 0 0 .65155 -9.837995 -107.440593)"><path d="M126.7 314.7c0 21.5-14 37.1-42.6 40.2-20.6 2.2-50.5-.4-64.7-2-.5-2.3-.9-5.2-.9-7.5 0-18.7 10.1-23 19.6-23 9.9 0 25.5 1.7 37 1.7 12.8 0 16.6-4.3 16.6-8.4 0-5.4-5.1-7.6-15-9.5L49.6 301c-22.5-4.3-34.5-19.8-34.5-36.3 0-20 14.2-36.8 42.2-39.9 21.1-2.3 46.9.3 61 2 .5 2.4.8 4.7.8 7.2 0 18.7-9.9 22.7-19.4 22.7-7.3 0-18.6-1.3-31.6-1.3-13.2 0-18.6 3.6-18.6 8 0 4.7 5.2 6.6 13.4 8.1l25.8 4.8c26.6 4.9 38 19.9 38 38.4m46.3 23c0 11.5-4.5 18.1-27 18.1-3 0-5.6-.2-8.1-.6V202.9c0-11.6 3.9-23.7 26.6-23.7 2.9 0 5.8.3 8.5.9zm91.9 59c3 1.5 9 3.4 16.6 3.5 13.1.3 20.2-4.7 25.5-16.4l70-155.7c-2.9-1.5-9.3-3.3-14.5-3.4-9-.2-21.1 1.6-28.8 20L310.9 298l-44.5-72.3c-2.9-.9-9.9-2.1-15-2.1-15.8 0-24.5 5.8-33.6 15.6l-43.2 47.2 34.8 54.7c6.4 10 14.9 15.1 28.6 15.1 9 0 16.5-2.1 20-3.7l-41.9-63 29.7-31.5 48.7 76.3z" fill="#ff0031"/><linearGradient id="A" x1="414.37" x2="1244.631" y1="289.839" y2="289.839" gradientUnits="userSpaceOnUse"><stop stop-color="#ff0031" offset="0"/><stop stop-color="#9b001f" offset="1"/></linearGradient><path d="M1228 164.9H430.9c-9.2 0-16.7 7.5-16.7 16.7v216.5c0 9.2 7.5 16.7 16.7 16.7h797c9.2 0 16.7-7.5 16.7-16.7V181.5c-.1-9.2-7.4-16.6-16.6-16.6" fill="url(#A)"/><linearGradient id="B" x1="197.483" x2="194.588" y1="295.135" y2="212.243" gradientUnits="userSpaceOnUse"><stop stop-color="#fff" offset="0"/><stop stop-color="#fff" stop-opacity=".25" offset=".515"/></linearGradient><path d="M138 202.9v104.5c0-4.2 3.2-8.6 8.6-8.8l17.6-.6c3.5-.1 8.8-2.5 8.9-8.9v-109c-2.7-.6-5.6-.9-8.5-.9-22.7.1-26.6 12.1-26.6 23.7m80 36.4l-43.2 47.2 3.5 5.4c1.5 2 4.4 5.4 10.2 5.2l24.6-.9c5.4-.2 8.8 2.1 10.9 4.9l-7.7-11.6L246 258l19.9 31.3c3.6 4.7 9 4.8 10.2 4.8 1 0 27.2-.9 28.3-1 1.8-.1 3.9.9 5.5 3.2l-43.3-70.4c-2.9-.9-9.9-2.1-15-2.1-15.8-.1-24.5 5.6-33.6 15.5M57.3 224.8c-28 3.1-42.2 19.8-42.2 39.9 0 10.3 4.7 20.2 13.7 27.3 6.8 4.5 13.8 6.2 20.7 7.4 5.7 1 19 1.9 28.9 1.5l30.8-1.1c11.6-.4 17.8 9.5 17.2 19.4v-.5c.1-1.3.2-2.6.2-3.9 0-18.5-11.4-33.6-37.9-38.5l-25.8-4.8c-8.3-1.4-13.4-3.4-13.4-8.1 0-4.4 5.5-8.1 18.6-8.1 13 0 24.3 1.3 31.6 1.3 9.5 0 19.4-4 19.4-22.7 0-2.5-.3-4.8-.8-7.2-10.1-1.2-26.3-2.9-42.4-2.9-6.3.1-12.6.4-18.6 1m276.2 19.9l-22.1 52.1c0-.1 1.4-4.1 5.7-4.3l23.4-.8c7.1-.3 9.9-5.1 10.7-6.7l25.6-57.1c-2.9-1.5-9.3-3.3-14.5-3.4h-1.1c-8.9.1-20.3 2.5-27.7 20.2" fill="url(#B)" opacity=".3" enable-background="new"/><linearGradient id="C" x1="830.555" x2="826.25" y1="276.73" y2="153.473" gradientUnits="userSpaceOnUse"><stop stop-color="#fff" offset="0"/><stop stop-color="#fff" stop-opacity=".25" offset=".515"/></linearGradient><path d="M430.9 164.9c-9.2 0-16.7 7.5-16.7 16.7v120.2c0-1.8.7-11.7 12-12.8 0 0 .6-.1 1.6-.1l804.4-28.2c6.3-.2 12.4-4.9 12.4-12.7v-66.3c0-9.2-7.5-16.7-16.7-16.7z" fill="url(#C)" opacity=".3" enable-background="new"/><g fill="#fff"><path d="M1190.1 275.3v74.5c-2 .5-5.4 1-8.8 1-7 0-10.1-2.5-10.1-7.4v-9.8c-11.1 11.7-24.3 18.6-41.8 18.6-26.3 0-40.8-16.8-40.8-35.6 0-28.4 30.7-40.8 82.6-37.4V276c0-18.1-5.9-28.9-28.9-28.9-11.9 0-22.2 2.6-29.2 4.9-3.6 1-6.4 1.9-8.3 1.9-5.4 0-8.5-4.9-7.3-15.2 11.7-4.4 29.2-8.3 45.6-8.3 34.3.1 47 17.2 47 44.9m-19.1 40.8v-22.5c-33.8-1.5-63 1.8-63 22.7 0 10.3 8.8 19.9 24.5 19.9 16 0 29.5-8.1 38.5-20.1m-709.6-25c0-34.8 25.8-60.7 59.6-60.7 16.2 0 30.7 4.4 40.8 9.6 1 10.6-2.9 15-7.8 15-6.9 0-14.5-7.5-32.3-7.5-22.5 0-40.8 16.8-40.8 43.9s18.3 44.4 40.8 44.4c17.8 0 25.5-7.5 32.3-7.5 4.9 0 8.8 4.4 7.8 15-10.3 4.9-24.8 9.3-40.8 9.3-33.8-.5-59.6-26.7-59.6-61.5m413.8 7.8h-91.1c2.9 22.7 18.9 35.8 42.4 35.8 10.1 0 17.8-2.3 25.3-4.6 4.9-1.8 7.5-2.8 9.6-2.8 4.9 0 8.5 4.6 7.3 15.2-10.3 4.6-26.1 9.6-42.9 9.6-36.4 0-61.5-24.8-61.5-61.2 0-35.1 26.1-60.6 58.3-60.6 35.9 0 53.7 28.7 53.7 56.6-.1 3.7-.4 7.6-1.1 12m-91-15.7h73.3c-.8-20.1-13.7-35.9-34.8-35.9-18.8-.2-35.4 12.4-38.5 35.9m-201.8-77.6c0-7.2 5.7-12.4 12.4-12.4 6.9 0 12.2 5.4 12.2 12.4 0 6.4-5.4 12.2-12.2 12.2s-12.4-5.9-12.4-12.2m2.7 144.1V239.3c0-4.4 2.4-7.3 10.3-7.3 3.1 0 6.9.8 8.8 1.3v110.2c0 4.6-2.6 7.3-10.3 7.3-3.2-.1-6.9-.6-8.8-1.1"/><path d="M1064.5 272.9v70.5c0 4.6-2.6 7.3-10.3 7.3-3.1 0-6.9-.5-8.8-1V275c0-17.3-8.3-27.6-23.8-27.6-13.2 0-24.5 9.6-28.9 19.1v76.9c0 4.6-2.4 7.3-10.1 7.3-3.4 0-7-.5-9-1V275c0-17.3-8-27.6-23.8-27.6-13.2 0-24.5 9.6-28.9 19.1v76.9c0 4.6-2.4 7.3-10.1 7.3-3.4 0-7.2-.5-8.8-1V233.2c2-.5 5.7-1.3 8.8-1.3 7.3 0 9.8 2.9 9.8 7.8v8.3c7.5-10.1 19.4-17.6 33.8-17.6 15.5 0 27.6 8 33.8 21.2 8-11.7 20.4-21.2 37.7-21.2 25.2.1 38.6 19.2 38.6 42.5m-325.3 7.5v63c0 4.6-2.4 7.3-10.1 7.3-3.1 0-6.9-.5-8.8-1V283c0-24-11.9-35.4-29.4-35.4-13.9 0-28.9 9.8-35.1 21.1v74.9c0 4.6-2.5 7.3-10.1 7.3-3.4 0-7-.5-8.8-1V233.2c1.8-.5 5.4-1.3 8.8-1.3 7.5 0 10.1 2.9 10.1 7.3v10.1c8.5-10.3 21.5-18.9 39.2-18.9 24.1.1 44.2 15.4 44.2 50"/></g></g><path d="M520.313 261.299l1.107-4.625h-1.175l.179-.753h3.329l-.179.753h-1.183l-1.107 4.625zm2.861 0l1.286-5.378h1.303l.213 4.037h.026l2.137-4.037h1.388l-1.286 5.378h-.937l.741-3.118q.06-.233.128-.475.077-.249.136-.452h-.026l-2.171 4.045h-.868l-.222-4.037h-.026q-.043.233-.093.512-.051.279-.111.542l-.715 2.983z"/><path d="M506.51 215.659l5.039-9.165h19.792c-.569 4.431-6.502 12.839-17.683 25.185-10.391 11.929-16.421 21.739-18.148 29.542h14.883l1.389-3.635.136-.114-.022-.117.121-.417c3.671-8.217 9.172-16.169 16.517-23.782 14.1-15.642 20.519-27.194 19.155-34.805h-42.114l-7.261 17.308zm97.18-7.917c3.386-3.105 4.926-6.136 4.586-9.051h-56.564c-.336 4.62-1.299 8.635-3.077 12.082h29.727c.351-1.098.759-1.895 1.163-2.5.296-.531 1.1-.682 2.396-.531zm-36.199 10.415l6.584-1.211 2.651-3.447h-29.251c-5.174 6.515-4.811 11.058 1.054 13.673.56.035.641-.379.223-1.364-.624-1.25-.68-2.614-.193-4.052.34-1.174.859-2.007 1.545-2.576h11.281l-8.999 12.384c-1.239.795-2.838 1.135-4.781.909h-12.982l-3.076 3.069h16.227c3.519.19 6.071-.569 7.521-2.159l8.846-12.346c1.083-1.856 2.168-2.841 3.349-2.88zm-71.348-2.688c-.409-9.089-3.763-14.62-10.077-16.664-7.441-2.576-14.83.074-22.198 7.991-2.635 2.879-4.958 6.174-7.123 9.886-1.733 2.84-2.942 5.302-3.561 7.31l-1.517 4.658c-1.162 3.788-1.903 7.499-2.217 11.172-1.165 11.287 1.896 18.444 9.129 21.399 7.321 2.992 14.779.719 22.321-6.893 4.517-4.695 8.008-9.809 10.585-15.377l1.681-3.977c2.191-6.077 3.195-12.518 2.956-18.974zm-30.73 12.384c1.564-4.393 3.819-9.127 6.633-14.05 4.399-7.916 8.171-11.287 11.282-10.303 4.726 1.591 3.27 11.513-4.277 29.845-1.962 4.392-4.467 9.05-7.479 13.974-4.716 7.273-8.292 10.415-10.799 9.279-2.598-1.212-2.791-5.907-.537-14.09zm-15.022-12.574c-.362-9.051-3.757-14.582-10.037-16.664-7.475-2.538-14.848.19-22.143 8.067-2.644 2.84-5.005 6.136-7.171 9.847-1.733 2.84-2.942 5.303-3.554 7.348l-1.563 4.62c-1.124 3.786-1.864 7.498-2.222 11.135-1.121 11.322 1.981 18.482 9.253 21.434 7.24 2.992 14.692.682 22.203-6.891 4.511-4.734 8.088-9.809 10.664-15.378l1.642-3.975c2.168-6.06 3.14-12.385 2.961-18.937zm-30.683 12.422c1.565-4.393 3.794-9.051 6.602-14.012 4.446-7.879 8.205-11.325 11.315-10.34 4.726 1.591 3.276 11.551-4.284 29.807-1.875 4.431-4.421 9.089-7.432 14.013-4.709 7.31-8.333 10.415-10.838 9.279-2.598-1.212-2.798-5.947-.539-14.09z" fill-rule="evenodd"/></svg>