<?xml version="1.0" encoding="UTF-8"?>
<svg width="800" height="193.5" version="1.1" xmlns="http://www.w3.org/2000/svg">
	<defs>
		<linearGradient id="A" x1="414.37" x2="1244.6" y1="289.84" y2="289.84" gradientTransform="matrix(.51516 0 0 .51516 -7.7785 -84.95)" gradientUnits="userSpaceOnUse">
			<stop stop-color="#ff0031" offset="0"/>
			<stop stop-color="#9b001f" offset="1"/>
		</linearGradient>
		<linearGradient id="B" x1="197.48" x2="194.59" y1="295.14" y2="212.24" gradientTransform="matrix(.51516 0 0 .51516 -7.7785 -84.95)" gradientUnits="userSpaceOnUse">
			<stop stop-color="#fff" offset="0"/>
			<stop stop-color="#fff" stop-opacity=".25" offset=".515"/>
		</linearGradient>
		<linearGradient id="C" x1="830.55" x2="826.25" y1="276.73" y2="153.47" gradientTransform="matrix(.51516 0 0 .51516 -7.7785 -84.95)" gradientUnits="userSpaceOnUse">
			<stop stop-color="#fff" offset="0"/>
			<stop stop-color="#fff" stop-opacity=".25" offset=".515"/>
		</linearGradient>
	</defs>
	<path d="m249.2 193.14q-1.1639 0-2.3277-0.14548-1.0911-0.0727-1.673-0.21822v-39.935h-14.548q-0.14548-0.58193-0.21822-1.5276-0.0728-1.0184-0.0728-2.1095 0-2.3277 0.94563-3.0551 0.94564-0.72741 2.4005-0.72741h34.043q0.29097 1.0911 0.29097 3.3461 0 4.0735-3.3461 4.0735h-11.348v36.88q0 1.4548-0.94564 2.4732-0.87289 0.94563-3.2006 0.94563zm35.137 0.29255q-4.0735 0-7.4196-1.3821-3.3461-1.4548-5.7466-3.8553-2.4005-2.4732-3.7098-5.8193-1.3093-3.3461-1.3093-7.2014 0-3.7098 1.3093-6.9832 1.3821-3.3461 3.7826-5.8193t5.7466-3.928 7.3469-1.4548q4.0008 0 7.3469 1.4548 3.3461 1.4548 5.6738 3.928 2.4005 2.4732 3.7098 5.8193 1.3093 3.2734 1.3093 6.9832t-1.3093 7.0559q-1.2366 3.3461-3.6371 5.8193-2.3277 2.4732-5.6738 3.928-3.3461 1.4548-7.4196 1.4548zm0-6.5467q1.8185 0 3.5643-0.72741 1.8185-0.72741 3.2006-2.1822 1.4548-1.4548 2.3277-3.6371 0.87289-2.1823 0.87289-5.1646 0-2.6914-0.80015-4.8737-0.80015-2.1822-2.1822-3.6371-1.3093-1.5276-3.1279-2.3277-1.8185-0.80015-3.8553-0.80015-1.964 0-3.7825 0.80015-1.8185 0.80016-3.2734 2.3277-1.3821 1.4548-2.255 3.6371-0.80016 2.1822-0.80016 4.8737 0 2.9096 0.8729 5.0919 0.87289 2.1822 2.255 3.7098 1.4548 1.4548 3.2734 2.1822 1.8185 0.72741 3.7098 0.72741zm28.077 6.2542q-1.0911 0-2.255-0.14548-1.0911-0.0727-1.673-0.21822v-34.916q0.80016-0.21822 1.6003-0.3637 0.8729-0.21823 1.8913-0.21823 2.255 0 3.2006 1.2366 1.0184 1.1639 1.0184 3.2006l0.0727 0.8729q1.5276-2.4005 4.1463-4.0008 2.6187-1.673 5.6738-1.673 3.5643 0 6.3285 1.8185 2.8369 1.7458 4.0735 5.2374 2.1095-3.4916 4.8009-5.2374 2.7642-1.8185 6.2558-1.8185 5.7466 0 8.5107 3.5643 2.8369 3.5643 2.8369 9.7473v19.567q0 1.4548-0.87289 2.4005-0.80016 0.94563-3.1279 0.94563-1.0911 0-2.255-0.14548-1.0911-0.0727-1.673-0.21822v-21.75q0-3.7098-1.673-5.4556-1.673-1.8185-4.4372-1.8185-2.6187 0-4.4372 1.3821-1.8185 1.3093-2.7642 3.2006v21.459q0 1.4548-0.8729 2.4005-0.80015 0.94563-3.1279 0.94563-1.0911 0-2.255-0.14548-1.0911-0.0727-1.673-0.21822v-21.75q0-3.5643-1.673-5.3828-1.6003-1.8913-4.6554-1.8913-2.3277 0-4.219 1.3821-1.8185 1.3093-2.7642 3.1279v21.531q0 1.4548-0.87289 2.4005-0.80016 0.94563-3.1279 0.94563zm89.622 0.22139q-4.9464 0-9.1654-1.7458-4.219-1.8185-7.3469-5.0192-3.0551-3.2006-4.8009-7.6378-1.7458-4.4372-1.7458-9.6746 0-5.0919 1.7458-9.5291 1.7458-4.4372 4.8009-7.7106 3.1279-3.2734 7.3469-5.0919 4.219-1.8913 9.1654-1.8913 3.7098 0 7.0559 0.72741 3.4188 0.72741 6.474 1.964 0.0727 0.50919 0.0727 0.94564 0.0727 0.36371 0.0727 0.80016 0 2.3277-1.0184 3.6371t-2.546 1.3094q-0.72741 0-1.6003-0.29097-0.8729-0.29097-2.0368-0.65467-1.0911-0.36371-2.6187-0.65467-1.5276-0.29097-3.5643-0.29097-3.1279 0-5.8193 1.2366-2.6914 1.1639-4.7282 3.3461-1.964 2.1822-3.1279 5.3101-1.0911 3.0551-1.0911 6.8377 0 3.928 1.0911 7.0559 1.1639 3.0551 3.1279 5.2374 2.0368 2.1095 4.7282 3.2006t5.8193 1.0911q2.0368 0 3.4916-0.29096 1.5276-0.29097 2.6187-0.65467 1.0911-0.36371 1.8913-0.65467 0.80016-0.29097 1.6003-0.29097 1.8185 0 2.9096 1.2366 1.0911 1.1639 1.0911 3.4916 0 0.50919 0 0.94563 0 0.43645-0.14548 1.0184-3.0551 1.3094-6.3285 2.0368-3.2734 0.65467-7.4196 0.65467zm23.926-0.22139q-1.0911 0-2.255-0.14548-1.0911-0.0727-1.673-0.21822v-34.916q0.80015-0.21822 1.6003-0.3637 0.87289-0.21823 1.8913-0.21823 2.255 0 3.2006 1.2366 1.0184 1.1639 1.0184 3.2006v2.546h0.14548q1.4548-3.5643 3.928-5.3101 2.4732-1.8185 5.7466-1.8185 1.0911 0 1.964 0.14548 0.94564 0.0727 1.7458 0.21823 0.43645 1.5276 0.43645 2.7642 0 4.0735-4.0735 4.0735h-1.3094q-3.7826 0-6.1103 1.964-2.255 1.964-2.255 6.1103v17.385q0 1.4548-0.87289 2.4005-0.80016 0.94563-3.1279 0.94563zm34.188 0.22139q-2.6187 0-4.9464-0.8729-2.3277-0.87289-4.0735-2.6914-1.7458-1.8185-2.7642-4.5827-1.0184-2.8369-1.0184-6.6922v-17.894q0-1.4548 0.87289-2.4005 0.8729-0.94563 3.1279-0.94563 1.1639 0 2.255 0.14548 1.0911 0.0727 1.673 0.21822v20.222q0 4.5827 2.1095 6.6922 2.1822 2.1095 5.5283 2.1095 2.4005 0 4.6554-1.3093 2.255-1.3094 3.7826-3.8553v-20.877q0-1.4548 0.8729-2.4005 0.87289-0.94563 3.1279-0.94563 1.1639 0 2.255 0.14548 1.1639 0.0727 1.7458 0.21822v21.313q0 2.1822 0 3.928 0.0727 1.673 0.21822 3.2006 0.14548 1.5276 0.36371 3.0551 0.21822 1.4548 0.58193 3.2006-1.7458 0.80016-4.0735 0.80016-1.8913 0-2.7642-0.65468-0.87289-0.65467-1.2366-1.5276-0.3637-0.94564-0.43645-2.0368 0-1.0911-0.14548-1.964h-0.0727q-1.8913 2.8369-4.7282 4.6554-2.7642 1.7458-6.9104 1.7458zm31.5-0.22139q-1.0911 0-2.1822-0.14548-1.0911-0.0727-1.673-0.21822v-32.152q0-1.4548 0.8729-2.4005 0.87289-0.94564 3.1279-0.94564 1.1639 0 2.255 0.14549 1.0911 0.0727 1.673 0.21822v32.152q0 1.4548-0.8729 2.4005-0.8729 0.94563-3.2006 0.94563zm0.14549-42.19q-1.8185 0-3.1279-1.3093-1.3094-1.3094-1.3094-3.1279 0-1.8913 1.3094-3.2006 1.3093-1.3093 3.1279-1.3093 1.8913 0 3.2006 1.3093 1.3094 1.3093 1.3094 3.2006 0 1.8185-1.3094 3.1279-1.3093 1.3093-3.2006 1.3093zm25.021 42.269q-3.4916 0-7.2741-0.65467-3.7098-0.72741-7.2014-1.964-0.0727-0.3637-0.14549-0.72741 0-0.43645 0-0.80015 0-1.8913 0.80016-3.0551 0.80015-1.1639 2.255-1.1639 0.87289 0 2.0368 0.29096 1.2366 0.29097 2.6187 0.72742 1.4548 0.3637 3.2006 0.65467 1.7458 0.29096 3.7098 0.29096 2.1822 0 3.4916-0.29096 1.3821-0.36371 2.1095-0.8729 0.72741-0.58193 0.94564-1.2366 0.29096-0.72741 0.29096-1.5276 0-1.6003-1.2366-2.4005-1.2366-0.8729-4.3645-1.7458l-5.1646-1.4548q-5.892-1.673-8.2198-4.0735-2.3277-2.4732-2.3277-6.1103 0-1.964 0.80015-3.7826t2.4732-3.2006q1.7458-1.3821 4.4372-2.1822 2.6914-0.87289 6.5467-0.87289 6.3285 0 13.312 2.3277 0 0.3637 0 0.65467 0.0727 0.21822 0.0727 0.50919 0 2.1095-0.80016 3.3461-0.72741 1.1639-2.3277 1.1639t-4.0735-0.72741q-2.4005-0.80016-6.183-0.80016-3.4916 0-4.9464 0.8729-1.3821 0.87289-1.3821 2.4005 0 0.65467 0.14548 1.1639 0.21823 0.50919 0.72741 0.94563 0.58194 0.43645 1.5276 0.8729 1.0184 0.3637 2.6914 0.80015l5.4556 1.5276q5.9648 1.673 8.3652 4.1462 2.4732 2.4732 2.4732 6.2558 0 1.964-0.72741 3.928-0.65467 1.8913-2.3277 3.4188-1.673 1.4548-4.5827 2.4005-2.8369 0.94564-7.2014 0.94564zm37.897 0.28464q-4.4372 0-7.9288-1.3821-3.4916-1.3821-5.892-3.8553-2.4005-2.4732-3.7098-5.8193-1.2366-3.4188-1.2366-7.3469t1.3094-7.2014q1.3093-3.3461 3.5643-5.7466 2.3277-2.4732 5.4556-3.8553 3.1279-1.3821 6.7649-1.3821 4.0735 0 7.2014 1.5276 3.1279 1.4548 5.1646 3.928 2.1095 2.4732 3.1279 5.6011 1.0911 3.1279 1.0911 6.4012 0 1.8185-0.3637 3.6371h-25.241q0.50919 4.219 3.2734 6.474 2.8369 2.1822 7.4196 2.1822 1.964 0 3.4188-0.29097 1.4548-0.29096 2.6187-0.65467 1.1639-0.43645 2.1095-0.72741 0.94564-0.29097 1.8913-0.29097 1.3093 0 2.1095 1.1639 0.8729 1.1639 0.8729 3.1279 0 0.36371-0.0727 0.80015 0 0.43645-0.0727 0.8729-2.1822 1.0184-5.4556 1.964-3.2734 0.8729-7.4196 0.8729zm7.4924-21.168q-0.36371-3.928-2.6914-6.5467-2.255-2.6914-6.474-2.6914-4.0008 0-6.4012 2.546-2.3277 2.5459-2.6914 6.6922z"/>
	<path d="m793.75 0c3.4608 0 6.2502 2.8171 6.2502 6.2502v116.24a6.2779 6.2779 0 0 1-6.2502 6.2502h-163.07c-3.4607 0-6.2502-2.8164-6.2502-6.2502v-116.21c0-3.4607 2.8171-6.2502 6.2502-6.2502h163.07" fill="#bbb"/>
	<path d="m714.58 38.576v49.548c0 2.1728-1.0998 3.3801-4.4799 3.3801-1.5292 0-2.9508-0.21427-4.0506-0.42933v-22.802h-28.274v19.878c0 2.1728-1.0998 3.3801-4.4799 3.3801-1.6367 0-3.2726-0.21427-4.0506-0.42933v-49.575c0-2.0921 1.0998-3.3801 4.5874-3.3801 1.5292 0 3.0314 0.21427 3.9162 0.42933v22.051h28.141v-19.1c0-2.0921 1.2074-3.3801 4.695-3.3801 1.6098 0 3.1121 0.21427 3.9968 0.42933m58.003 26.182c0 14.861-10.381 26.101-26.638 26.101h-15.157c-3.2726 0-4.4799-1.3141-4.4799-3.3801v-45.309c0-2.0652 1.2074-3.3801 4.4799-3.3801h15.157c16.257 0 26.638 11.133 26.638 25.968m-8.638 0c0-11.133-6.9745-18.349-18-18.349h-11.133v36.779h11.133c11.026 0.02688 18-7.1895 18-18.43" fill="#9c001f"/>
	<path d="m57.492 77.171c0 11.076-7.2122 19.112-21.946 20.709-10.612 1.1333-26.016-0.20606-33.331-1.0303-0.25758-1.1849-0.46364-2.6788-0.46364-3.8637 0-9.6335 5.2031-11.849 10.097-11.849 5.1001 0 13.137 0.87577 19.061 0.87577 6.594 0 8.5516-2.2152 8.5516-4.3273 0-2.7819-2.6273-3.9152-7.7274-4.894l-13.961-2.6788c-11.591-2.2152-17.773-10.2-17.773-18.7 0-10.303 7.3153-18.958 21.74-20.555 10.87-1.1849 24.161 0.15455 31.425 1.0303 0.25758 1.2364 0.41213 2.4212 0.41213 3.7091 0 9.6335-5.1001 11.694-9.9941 11.694-3.7607 0-9.582-0.66971-16.279-0.66971-6.8001 0-9.582 1.8546-9.582 4.1213 0 2.4212 2.6788 3.4 6.9031 4.1728l13.291 2.4728c13.703 2.5243 19.576 10.252 19.576 19.782m23.852 11.849c0 5.9243-2.3182 9.3244-13.909 9.3244-1.5455 0-2.8849-0.10303-4.1728-0.3091v-78.459c0-5.9758 2.0091-12.209 13.703-12.209 1.494 0 2.9879 0.15455 4.3788 0.46364zm47.343 30.394c1.5455 0.77274 4.6364 1.7515 8.5516 1.8031 6.7486 0.15455 10.406-2.4212 13.137-8.4486l36.061-80.21c-1.494-0.77274-4.791-1.7-7.4698-1.7515-4.6364-0.10303-10.87 0.82425-14.837 10.303l-11.746 27.458-22.925-37.246c-1.494-0.46364-5.1001-1.0818-7.7274-1.0818-8.1395 0-12.621 2.9879-17.309 8.0365l-22.255 24.315 17.928 28.179c3.297 5.1516 7.6759 7.7789 14.734 7.7789 4.6364 0 8.5001-1.0818 10.303-1.9061l-21.585-32.455 15.3-16.228 25.088 39.307z" fill="#ff0031"/>
	<path d="m624.84 3.524e-6h-410.63c-4.7395 0-8.6032 3.8637-8.6032 8.6032v111.53c0 4.7395 3.8637 8.6032 8.6032 8.6032h410.58c4.7395 0 8.6032-3.8637 8.6032-8.6032v-111.58c-0.0515-4.7395-3.8122-8.5516-8.5516-8.5516" fill="url(#A)"/>
	<path d="m63.313 19.576v53.834c0-2.1637 1.6485-4.4304 4.4304-4.5334l9.0668-0.3091c1.8031-0.05151 4.5334-1.2879 4.5849-4.5849v-56.152c-1.3909-0.3091-2.8849-0.46364-4.3788-0.46364-11.694 0.051516-13.703 6.2334-13.703 12.209m41.213 18.752-22.255 24.315 1.8031 2.7819c0.77274 1.0303 2.2667 2.7819 5.2546 2.6788l12.673-0.46364c2.7819-0.10303 4.5334 1.0818 5.6152 2.5243l-3.9667-5.9758 15.3-16.228 10.252 16.124c1.8546 2.4212 4.6364 2.4728 5.2546 2.4728 0.51516 0 14.012-0.46364 14.579-0.51516 0.92729-0.05152 2.0091 0.46364 2.8334 1.6485l-22.306-36.267c-1.494-0.46364-5.1001-1.0818-7.7274-1.0818-8.1395-0.05151-12.621 2.8849-17.309 7.985m-82.786-7.4698c-14.424 1.597-21.74 10.2-21.74 20.555 0 5.3061 2.4212 10.406 7.0577 14.064 3.5031 2.3182 7.1092 3.194 10.664 3.8122 2.9364 0.51516 9.788 0.9788 14.888 0.77274l15.867-0.56668c5.9758-0.20606 9.1698 4.894 8.8607 9.9941v-0.25758c0.05152-0.66971 0.10303-1.3394 0.10303-2.0091 0-9.5304-5.8728-17.309-19.525-19.834l-13.291-2.4728c-4.2758-0.72122-6.9031-1.7515-6.9031-4.1728 0-2.2667 2.8334-4.1728 9.582-4.1728 6.6971 0 12.518 0.66971 16.279 0.66971 4.894 0 9.9941-2.0606 9.9941-11.694 0-1.2879-0.15455-2.4728-0.41213-3.7091-5.2031-0.61819-13.549-1.494-21.843-1.494-3.2455 0.05152-6.491 0.20606-9.582 0.51516m142.29 10.252-11.385 26.84c0-0.05152 0.72122-2.1122 2.9364-2.2152l12.055-0.41213c3.6576-0.15455 5.1001-2.6273 5.5122-3.4516l13.188-29.416c-1.494-0.77274-4.791-1.7-7.4698-1.7515h-0.56667c-4.5849 0.05152-10.458 1.2879-14.27 10.406" enable-background="new" fill="url(#B)" opacity=".3"/>
	<path d="m214.2 3.524e-6c-4.7395 0-8.6032 3.8637-8.6032 8.6032v61.922c0-0.92729 0.36061-6.0274 6.1819-6.594 0 0 0.30909-0.05152 0.82425-0.05152l414.39-14.527c3.2455-0.10303 6.388-2.5243 6.388-6.5425v-34.155c0-4.7395-3.8637-8.6032-8.6032-8.6032z" enable-background="new" fill="url(#C)" opacity=".3"/>
	<path d="m298.64 14.578c-3.4516 0-6.3887 2.6795-6.3887 6.3887 0 3.2455 2.8856 6.2852 6.3887 6.2852s6.2852-2.9881 6.2852-6.2852c0-3.6061-2.7306-6.3887-6.2852-6.3887zm117.35 19.113c-16.588 0-30.033 13.137-30.033 31.219 0 18.752 12.93 31.527 31.682 31.527 8.6547 0 16.795-2.5756 22.102-4.9453 0.61819-5.4607-1.2374-7.8301-3.7617-7.8301-1.0818 0-2.421 0.51412-4.9453 1.4414-3.8637 1.1849-7.8301 2.3711-13.033 2.3711-12.106 0-20.348-6.7493-21.842-18.443h46.93c0.36061-2.2667 0.51491-4.2756 0.56641-6.1816 0-14.373-9.1699-29.158-27.664-29.158zm-155.37 0.05078c-17.412 0-30.703 13.344-30.703 31.271s13.291 31.424 30.703 31.682c8.2425 1e-6 15.713-2.2667 21.02-4.791 0.51516-5.4607-1.4953-7.7266-4.0195-7.7266-3.5031 0-7.4688 3.8633-16.639 3.8633-11.591 0-21.02-8.9122-21.02-22.873 0-13.961 9.4285-22.615 21.02-22.615 9.1698 0 13.084 3.8633 16.639 3.8633 2.5243 0 4.5347-2.2678 4.0195-7.7285-5.2031-2.6788-12.674-4.9453-21.02-4.9453zm89.639 0c-9.1183 0-15.816 4.4302-20.195 9.7363v-5.2031c0-2.2667-1.3394-3.7598-5.2031-3.7598-1.7516 0-3.6059 0.41234-4.5332 0.66992v60.119c0.92728 0.25758 2.7817 0.51562 4.5332 0.51562 3.9152 0 5.2031-1.392 5.2031-3.7617v-38.586c3.194-5.8213 10.921-10.869 18.082-10.869 9.0153 0 15.146 5.8725 15.146 18.236v34.361c0.9788 0.25758 2.9362 0.51562 4.5332 0.51562 3.9667 0 5.2031-1.392 5.2031-3.7617v-32.455c0-17.824-10.354-25.706-22.77-25.758zm133.63 0c-7.4183 0-13.548 3.8653-17.412 9.0684v-4.2773c0-2.5243-1.2882-4.0176-5.0488-4.0176-1.597 0-3.5029 0.41234-4.5332 0.66992v60.016c0.82426 0.25758 2.7817 0.51562 4.5332 0.51562 3.9667 0 5.2031-1.392 5.2031-3.7617v-39.615c2.2667-4.894 8.0886-9.8398 14.889-9.8398 8.1395 0 12.26 5.3065 12.26 14.219v38.482c1.0303 0.25758 2.8852 0.51562 4.6367 0.51562 3.9667 0 5.2031-1.392 5.2031-3.7617v-39.615c2.2667-4.894 8.0886-9.8398 14.889-9.8398 7.985 0 12.26 5.3065 12.26 14.219v38.482c0.97879 0.25758 2.9382 0.51562 4.5352 0.51562 3.9667 0 5.3047-1.392 5.3047-3.7617v-36.318c0-12.003-6.9028-21.843-19.885-21.895-8.9122 0-15.301 4.8945-19.422 10.922-3.194-6.8001-9.4272-10.922-17.412-10.922zm97.211 0c-8.4486-1e-6 -17.465 2.0106-23.492 4.2773-0.61819 5.3061 0.97986 7.8301 3.7617 7.8301 0.9788 0 2.4208-0.46336 4.2754-0.97852 3.6061-1.1849 8.9126-2.5254 15.043-2.5254 11.849 0 14.889 5.5643 14.889 14.889v1.6484c-26.737-1.7515-42.553 4.6371-42.553 19.268 0 9.685 7.4689 18.338 21.018 18.338 9.0153 0 15.817-3.5527 21.535-9.5801v5.0469c0 2.5243 1.597 3.8125 5.2031 3.8125 1.7515 0 3.5029-0.25804 4.5332-0.51562v-38.379c0-14.27-6.5429-23.079-24.213-23.131zm-282.15 0.82422c-4.0698 0-5.3066 1.495-5.3066 3.7617v56.873c0.97879 0.25758 2.8847 0.51489 4.5332 0.56641 3.9667 0 5.3066-1.39 5.3066-3.7598v-56.771c-0.97881-0.25758-2.9362-0.66992-4.5332-0.66992zm117.1 7.8828c10.87 0 17.516 8.1394 17.928 18.494h-37.762c1.597-12.106 10.149-18.597 19.834-18.494zm173.04 23.691c2.0778 0.0064 4.218 0.06356 6.3945 0.16016v11.592c-4.6364 6.1819-11.591 10.354-19.834 10.354-8.088 0-12.621-4.9458-12.621-10.252 0-9.421 11.516-11.899 26.061-11.854z" fill="#fff"/>
</svg>
