<?xml version="1.0" encoding="UTF-8"?>
<svg width="800" height="206.75" version="1.1" xmlns="http://www.w3.org/2000/svg">
	<defs>
		<linearGradient id="A" x1="414.37" x2="1244.6" y1="289.84" y2="289.84" gradientTransform="matrix(.51516 0 0 .51516 -7.7785 -84.95)" gradientUnits="userSpaceOnUse">
			<stop stop-color="#ff0031" offset="0"/>
			<stop stop-color="#9b001f" offset="1"/>
		</linearGradient>
		<linearGradient id="B" x1="197.48" x2="194.59" y1="295.14" y2="212.24" gradientTransform="matrix(.51516 0 0 .51516 -7.7785 -84.95)" gradientUnits="userSpaceOnUse">
			<stop stop-color="#fff" offset="0"/>
			<stop stop-color="#fff" stop-opacity=".25" offset=".515"/>
		</linearGradient>
		<linearGradient id="C" x1="830.55" x2="826.25" y1="276.73" y2="153.47" gradientTransform="matrix(.51516 0 0 .51516 -7.7785 -84.95)" gradientUnits="userSpaceOnUse">
			<stop stop-color="#fff" offset="0"/>
			<stop stop-color="#fff" stop-opacity=".25" offset=".515"/>
		</linearGradient>
	</defs>
	<path d="m316.56 143.25c-1.5518 0-2.6173 0.31489-3.1992 0.9453-0.53344 0.63044-0.80078 1.4305-0.80078 2.4004v15.348c-1.3094-1.5033-2.8857-2.7153-4.7285-3.6367-1.7943-0.9214-3.9272-1.3828-6.4004-1.3828-1.8428 0-3.7103 0.36438-5.6016 1.0918s-3.6122 1.8424-5.164 3.3457c-1.5033 1.5033-2.741 3.3946-3.7109 5.6738-0.96988 2.2307-1.4551 4.8745-1.4551 7.9297s0.46142 5.7227 1.3828 8.002 2.1334 4.1943 3.6367 5.7461 3.1767 2.7163 5.0195 3.4922c1.8913 0.77591 3.7826 1.1641 5.6738 1.1641 2.4732 0 4.7031-0.48518 6.6914-1.4551 2.0368-0.96988 3.7359-2.5463 5.0938-4.7285h0.0723v2.0371c0 0.67892 0.097 1.3087 0.29101 1.8906 0.24247 0.58193 0.63063 1.0671 1.1641 1.4551 0.58193 0.33946 1.4296 0.50976 2.5449 0.50976 0.8244 0 1.5769-0.0495 2.2558-0.14648 0.67892-0.097 1.2116-0.19403 1.5996-0.29102-0.14548-2.3277-0.26629-4.5576-0.36328-6.6914-0.0485-2.1338-0.0723-4.5102-0.0723-7.1289v-35.207c-0.38795-0.097-0.97018-0.17028-1.7461-0.21875-0.72742-0.097-1.4562-0.14453-2.1836-0.14453zm42.482 1.6719c-3.2976-1e-5 -6.0384 0.41192-8.2207 1.2363-2.1822 0.82441-3.927 1.8681-5.2363 3.1289s-2.2322 2.6907-2.7656 4.291c-0.53344 1.5518-0.79883 3.0806-0.79883 4.584 0 3.0066 0.92088 5.6723 2.7637 8 1.8913 2.3277 5.2124 4.1477 9.9648 5.457l6.039 1.6719c1.1639 0.33946 2.1818 0.68007 3.0547 1.0195 0.9214 0.33946 1.6977 0.75139 2.3281 1.2363 0.63043 0.43645 1.1156 0.99295 1.4551 1.6719 0.33946 0.63043 0.50781 1.4067 0.50781 2.3281 0 1.8428-0.72681 3.3716-2.1816 4.584-1.4063 1.2124-3.7828 1.8184-7.1289 1.8184-1.6003 0-3.0796-0.097-4.4375-0.29102-1.3094-0.19398-2.5214-0.41182-3.6367-0.65429-1.0669-0.24248-2.0373-0.46228-2.9102-0.65625-0.8729-0.19398-1.6235-0.29102-2.2539-0.29102-1.3093 0-2.2559 0.50896-2.8379 1.5273-0.58193 0.96989-0.87304 2.2552-0.87304 3.8555v0.50977c0.0485 0.14549 0.0742 0.31579 0.0742 0.50976 2.9097 0.96989 5.7456 1.6967 8.5098 2.1816 2.8127 0.48495 5.407 0.72852 7.7832 0.72852 3.2006 0 5.9415-0.3406 8.2207-1.0195 2.2792-0.72741 4.1705-1.7216 5.6738-2.9824 1.5033-1.2609 2.5945-2.764 3.2734-4.5098 0.72742-1.7458 1.0898-3.6846 1.0898-5.8184 0-6.5952-4.242-11.009-12.729-13.24l-6.4023-1.8184c-2.8127-0.77591-4.7772-1.576-5.8926-2.4004-1.0669-0.82441-1.5996-2.0364-1.5996-3.6367 0-0.67893 0.14653-1.3344 0.4375-1.9648 0.29097-0.67892 0.7742-1.2849 1.4531-1.8184s1.576-0.94537 2.6914-1.2363c1.1154-0.33946 2.5234-0.50977 4.2207-0.50977 1.5033 0 2.8599 0.097 4.0723 0.29102 1.2124 0.14548 2.2798 0.31579 3.2012 0.50976 0.96989 0.14549 1.8175 0.3158 2.5449 0.50977 0.7759 0.14549 1.4809 0.2168 2.1113 0.2168 1.2609 0 2.158-0.45947 2.6914-1.3809 0.58193-0.9214 0.87109-2.2067 0.87109-3.8555v-1.0195c-2.7642-0.96989-5.4298-1.6729-8-2.1094-2.5217-0.43645-4.8982-0.65429-7.1289-0.65429zm-148.25 0.50976c-1.7943 0-2.9588 0.36438-3.4922 1.0918-0.48495 0.67892-0.72656 1.576-0.72656 2.6914v39.717c0 1.1154 0.24161 2.0363 0.72656 2.7637 0.53343 0.67892 1.6979 1.0176 3.4922 1.0176h12.293c6.2558 0 10.888-1.1387 13.895-3.418 3.0066-2.3277 4.5098-5.6983 4.5098-10.111 0-2.4732-0.80007-4.7289-2.4004-6.7656-1.5518-2.0368-3.952-3.4428-7.2012-4.2187 2.4732-0.8244 4.412-2.1572 5.8184-4 1.4063-1.8428 2.1094-4.0014 2.1094-6.4746 0-1.7943-0.31489-3.442-0.94532-4.9453-0.63042-1.5033-1.6483-2.7886-3.0547-3.8555-1.3578-1.1154-3.1283-1.9649-5.3105-2.5469-2.1338-0.63042-4.7043-0.94531-7.7109-0.94531zm3.7109 7.2012h8.1465c6.0618 0 9.0918 1.9883 9.0918 5.9648 0 0.92139-0.16836 1.7947-0.50781 2.6191-0.29096 0.7759-0.80188 1.4552-1.5293 2.0371-0.67892 0.58193-1.6236 1.0414-2.8359 1.3809-1.1639 0.33946-2.6194 0.50976-4.3652 0.50976h-8zm224.48 4.291c-2.4247 0-4.6804 0.46141-6.7656 1.3828s-3.9032 2.2067-5.4551 3.8555c-1.5033 1.6003-2.6916 3.5154-3.5644 5.7461-0.8729 2.1822-1.3106 4.5825-1.3106 7.2012s0.41193 5.0684 1.2363 7.3476c0.8729 2.2307 2.1106 4.1696 3.7109 5.8184s3.5648 2.9341 5.8926 3.8555c2.3277 0.92139 4.9696 1.3828 7.9277 1.3828 2.7642 0 5.2377-0.29111 7.4199-0.87305 2.1822-0.63042 4.0002-1.284 5.4551-1.9629 0.0485-0.29096 0.0742-0.58208 0.0742-0.87304 0.0485-0.29097 0.0723-0.55831 0.0723-0.80078 0-1.3094-0.29112-2.353-0.87304-3.1289-0.53344-0.77591-1.2365-1.1621-2.1094-1.1621-0.63042 0-1.2622 0.097-1.8926 0.29102-0.63042 0.19398-1.3335 0.43559-2.1094 0.72656-0.77591 0.24247-1.6473 0.46032-2.6172 0.6543-0.96988 0.19398-2.1106 0.29101-3.4199 0.29101-3.0552 0-5.5286-0.72681-7.4199-2.1816-1.8428-1.5033-2.934-3.6619-3.2734-6.4746h25.242c0.24247-1.2124 0.36328-2.4244 0.36328-3.6367 0-2.1822-0.36243-4.3171-1.0898-6.4023-0.67893-2.0853-1.7226-3.9508-3.1289-5.5996-1.3578-1.6488-3.0788-2.9578-5.1641-3.9277-2.0853-1.0184-4.4855-1.5293-7.2012-1.5293zm41.971 0c-2.4732 0-4.7031 0.55845-6.6914 1.6738-1.9398 1.0669-3.5162 2.4492-4.7285 4.1465l-0.0723-1.0176c0-1.3578-0.34061-2.4253-1.0195-3.2012-0.63043-0.82441-1.6959-1.2363-3.1992-1.2363-0.67893 0-1.3106 0.0713-1.8926 0.2168-0.53343 0.097-1.0662 0.21975-1.5996 0.36523v34.916c0.38796 0.097 0.94446 0.16833 1.6719 0.2168 0.7759 0.097 1.5284 0.14648 2.2559 0.14648 1.5518 0 2.5935-0.31489 3.1269-0.94531 0.58193-0.63043 0.87305-1.4305 0.87305-2.4004v-21.314c0.8244-1.4548 2.0126-2.6193 3.5644-3.4922 1.6003-0.8729 3.1767-1.3086 4.7285-1.3086 2.4732 0 4.3882 0.72681 5.7461 2.1816 1.3578 1.4548 2.0371 3.7342 2.0371 6.8379v20.078c0.38795 0.097 0.94641 0.16833 1.6738 0.2168 0.77591 0.097 1.5265 0.14648 2.2539 0.14648 1.5518 0 2.5955-0.31489 3.1289-0.94531 0.58193-0.63043 0.87305-1.4305 0.87305-2.4004v-17.969c0-4.8009-1.1407-8.4864-3.4199-11.057-2.2792-2.5702-5.3825-3.8555-9.3105-3.8555zm67.432 0c-2.4247 0-4.6804 0.46141-6.7656 1.3828-2.0853 0.92139-3.9032 2.2067-5.4551 3.8555-1.5033 1.6003-2.6916 3.5154-3.5645 5.7461-0.8729 2.1822-1.3086 4.5825-1.3086 7.2012s0.41192 5.0684 1.2363 7.3476c0.8729 2.2307 2.1087 4.1696 3.709 5.8184s3.5648 2.9341 5.8926 3.8555c2.3277 0.92139 4.9715 1.3828 7.9297 1.3828 2.7642 0 5.2377-0.29111 7.4199-0.87305 2.1822-0.63042 4.0002-1.284 5.4551-1.9629 0.0485-0.29096 0.0723-0.58208 0.0723-0.87304 0.0485-0.29097 0.0723-0.55831 0.0723-0.80078 0-1.3094-0.29112-2.353-0.87305-3.1289-0.53344-0.77591-1.2365-1.1621-2.1094-1.1621-0.63043 0-1.2602 0.097-1.8906 0.29102-0.63043 0.19398-1.3335 0.43559-2.1094 0.72656-0.77592 0.24247-1.6493 0.46032-2.6191 0.6543-0.96989 0.19398-2.1086 0.29101-3.418 0.29101-3.0552 0-5.5286-0.72681-7.4199-2.1816-1.8428-1.5033-2.934-3.6619-3.2734-6.4746h25.24c0.24247-1.2124 0.36524-2.4244 0.36524-3.6367 0-2.1822-0.36439-4.3171-1.0918-6.4023-0.67892-2.0853-1.7206-3.9508-3.127-5.5996-1.3578-1.6488-3.0808-2.9578-5.166-3.9277-2.0853-1.0184-4.4855-1.5293-7.2012-1.5293zm-145.99 0.0742c-2.8127 0-5.1654 0.58223-7.0566 1.7461-1.8428 1.1154-3.3934 2.569-4.6543 4.3633l-0.0723-1.3809c-0.097-1.3578-0.4376-2.4253-1.0195-3.2012-0.58194-0.82441-1.6494-1.2363-3.2012-1.2363-0.67892 0-1.3087 0.0713-1.8906 0.2168-0.53344 0.097-1.0662 0.21975-1.5996 0.36523v48.518c0.38795 0.097 0.94446 0.17029 1.6719 0.21875 0.77591 0.097 1.5284 0.14453 2.2559 0.14453 1.5518 0 2.5935-0.31488 3.127-0.9453 0.58193-0.63043 0.87304-1.4305 0.87304-2.4004v-15.131c1.1154 1.3094 2.5947 2.4976 4.4375 3.5644 1.8428 1.0184 4.0747 1.5293 6.6934 1.5293 1.8428 0 3.7083-0.36438 5.5996-1.0918 1.9398-0.72741 3.6627-1.8424 5.166-3.3457 1.5518-1.5033 2.8114-3.3946 3.7812-5.6738 0.96989-2.2792 1.4551-4.9963 1.4551-8.1484 0-2.9097-0.45947-5.4782-1.3809-7.709-0.8729-2.2792-2.0374-4.1705-3.4922-5.6738-1.4548-1.5518-3.1282-2.7163-5.0195-3.4922-1.8428-0.8244-3.734-1.2363-5.6738-1.2363zm114.57 0.14453c-2.6672 0-5.0931 0.48519-7.2754 1.4551-2.1822 0.92139-4.0478 2.2066-5.5996 3.8555s-2.7638 3.5638-3.6367 5.7461c-0.82441 2.1822-1.2383 4.5349-1.2383 7.0566s0.41387 4.8724 1.2383 7.0547c0.8729 2.1822 2.0849 4.0992 3.6367 5.748 1.5518 1.6003 3.4174 2.8856 5.5996 3.8555 2.1822 0.9214 4.6082 1.3809 7.2754 1.3809 2.5217 0 4.7278-0.24162 6.6191-0.72656 1.9398-0.53344 3.7578-1.2602 5.4551-2.1816 0.0485-0.29097 0.0742-0.58208 0.0742-0.87305 0.0485-0.29096 0.0723-0.55831 0.0723-0.80078 0-1.3578-0.29111-2.3758-0.87304-3.0547-0.58194-0.67892-1.3582-1.0195-2.3281-1.0195-0.43645 0-0.92164 0.097-1.4551 0.29102-0.53344 0.19398-1.1394 0.41182-1.8184 0.65429-0.63042 0.24247-1.3572 0.46227-2.1816 0.65625s-1.7472 0.29102-2.7656 0.29102c-1.4548 0-2.8114-0.24357-4.0723-0.72852-1.2608-0.53344-2.3758-1.2602-3.3457-2.1816-0.9214-0.96988-1.6502-2.1581-2.1836-3.5644-0.53344-1.4063-0.79883-3.0065-0.79883-4.8008s0.26539-3.3944 0.79883-4.8008c0.53343-1.4063 1.2622-2.5946 2.1836-3.5644 0.92139-0.96988 1.9869-1.6967 3.1992-2.1816s2.5234-0.72851 3.9297-0.72851c1.0669 0 1.9878 0.097 2.7637 0.29101 0.8244 0.19398 1.5274 0.41183 2.1094 0.6543 0.63043 0.19398 1.1869 0.38806 1.6719 0.58203 0.53343 0.14549 1.0186 0.21875 1.4551 0.21875 0.92139 0 1.6739-0.38815 2.2559-1.1641 0.58193-0.8244 0.87304-1.9156 0.87304-3.2734v-0.58203c0-0.24247-0.0238-0.48409-0.0723-0.72656-1.4548-0.82441-3.1045-1.5037-4.9473-2.0371-1.7943-0.53344-4.0004-0.80078-6.6191-0.80078zm72.305 0c-2.1822 0-4.0973 0.606-5.7461 1.8184-1.6488 1.1639-2.9578 2.9343-3.9277 5.3105h-0.14649v-2.5449c0-1.3578-0.33865-2.4253-1.0176-3.2012-0.63043-0.82441-1.6978-1.2363-3.2012-1.2363-0.67893 0-1.3087 0.0713-1.8906 0.2168-0.53344 0.097-1.0681 0.21975-1.6016 0.36523v34.916c0.38795 0.097 0.94641 0.16833 1.6738 0.2168 0.77591 0.097 1.5265 0.14648 2.2539 0.14648 1.5518 0 2.5955-0.31489 3.1289-0.94531 0.58193-0.63043 0.87305-1.4305 0.87305-2.4004v-17.387c0-2.7642 0.75057-4.8 2.2539-6.1094 1.5518-1.3093 3.5896-1.9648 6.1113-1.9648h1.3086c2.7157 0 4.0742-1.3566 4.0742-4.0723 0-0.8244-0.14653-1.7472-0.4375-2.7656-0.53343-0.097-1.1137-0.16833-1.7441-0.2168-0.58193-0.097-1.2374-0.14648-1.9648-0.14648zm-338.03 0.14648c-1.5033 0-2.547 0.31489-3.1289 0.94532-0.58193 0.63042-0.87304 1.4305-0.87304 2.4004v17.895c0 2.5702 0.34061 4.8001 1.0195 6.6914 0.67893 1.8428 1.5998 3.3716 2.7637 4.584s2.5224 2.1095 4.0742 2.6914c1.5518 0.58194 3.1995 0.87305 4.9453 0.87305 2.7642 0 5.0674-0.58223 6.9102-1.7461 1.8913-1.2124 3.4676-2.765 4.7285-4.6562h0.0723c0.097 0.58192 0.14648 1.2374 0.14648 1.9648 0.0485 0.72741 0.19308 1.4047 0.43555 2.0352 0.24247 0.58193 0.6544 1.0928 1.2363 1.5293s1.5048 0.6543 2.7656 0.6543c1.5518 0 2.9084-0.26734 4.0723-0.80078-0.24247-1.1639-0.43655-2.2313-0.58203-3.2012-0.14549-1.0184-0.2663-2.0363-0.36328-3.0547-0.097-1.0184-0.17029-2.0858-0.21875-3.2012v-25.24c-0.38796-0.097-0.96824-0.17028-1.7441-0.21875-0.72742-0.097-1.48-0.14453-2.2559-0.14453-1.5033 0-2.545 0.31489-3.127 0.94532-0.58193 0.63042-0.87304 1.4305-0.87304 2.4004v20.877c-1.0184 1.6973-2.2799 2.9826-3.7832 3.8555s-3.0559 1.3086-4.6562 1.3086c-2.2307 0-4.0725-0.70303-5.5273-2.1094-1.4063-1.4063-2.1094-3.6362-2.1094-6.6914v-20.223c-0.38797-0.097-0.94642-0.17028-1.6738-0.21875-0.72742-0.097-1.478-0.14453-2.2539-0.14453zm187.75 5.8184c2.8127 0 4.9693 0.89711 6.4726 2.6914 1.5518 1.7458 2.4489 3.9282 2.6914 6.5469h-18.258c0.24248-2.7642 1.1396-4.9941 2.6914-6.6914 1.6003-1.6973 3.7352-2.5469 6.4023-2.5469zm109.4 0c2.8127 0 4.9713 0.89711 6.4746 2.6914 1.5518 1.7458 2.4489 3.9282 2.6914 6.5469h-18.258c0.24247-2.7642 1.1396-4.9941 2.6914-6.6914 1.6003-1.6973 3.7332-2.5469 6.4004-2.5469zm-244.63 0.4375c1.7943 0 3.4915 0.41192 5.0918 1.2363 1.6003 0.77591 2.8599 1.9879 3.7812 3.6367v13.166c-0.92139 1.6973-2.2067 2.9588-3.8555 3.7832-1.6003 0.8244-3.2718 1.2363-5.0176 1.2363-1.6003 0-3.0321-0.29112-4.293-0.87305-1.2124-0.58193-2.254-1.382-3.127-2.4004-0.8729-1.0669-1.5522-2.3284-2.0371-3.7832-0.43645-1.4548-0.65429-3.0312-0.65429-4.7285 0-1.6003 0.21784-3.0777 0.65429-4.4356 0.48494-1.4063 1.1642-2.5946 2.0371-3.5644 0.8729-1.0184 1.9384-1.8185 3.1992-2.4004s2.6689-0.87305 4.2207-0.87305zm95.945 0.14453c1.6973 0 3.1766 0.34061 4.4375 1.0195 1.2609 0.63043 2.3025 1.5018 3.127 2.6172 0.8729 1.0669 1.5046 2.3046 1.8926 3.7109 0.43644 1.3578 0.65429 2.7877 0.65429 4.291 0 1.6973-0.24357 3.2499-0.72851 4.6563-0.48495 1.4063-1.1623 2.6183-2.0352 3.6367-0.87289 1.0184-1.9403 1.8185-3.2012 2.4004-1.2608 0.53344-2.6432 0.80079-4.1465 0.80079-2.0368 0-3.831-0.46142-5.3828-1.3828-1.5518-0.96988-2.7163-2.1581-3.4922-3.5644v-13.094c0.9214-1.6973 2.1829-2.9588 3.7832-3.7832 1.6488-0.8729 3.346-1.3086 5.0918-1.3086zm-185.2 8.293h8.1465c2.1822 0 3.9527 0.19408 5.3106 0.58203 1.3578 0.38796 2.3995 0.89692 3.127 1.5274 0.7759 0.58193 1.3086 1.285 1.5996 2.1094 0.29097 0.77591 0.4375 1.5998 0.4375 2.4727 0 2.4732-0.87334 4.2437-2.6191 5.3105-1.7458 1.0184-4.5104 1.5273-8.293 1.5273h-7.709z"/>
	<path d="m793.75 0c3.4608 0 6.2502 2.8171 6.2502 6.2502v116.24a6.2779 6.2779 0 0 1-6.2502 6.2502h-163.07c-3.4607 0-6.2502-2.8164-6.2502-6.2502v-116.21c0-3.4607 2.8171-6.2502 6.2502-6.2502h163.07" fill="#bbb"/>
	<path d="m714.58 38.576v49.548c0 2.1728-1.0998 3.3801-4.4799 3.3801-1.5292 0-2.9508-0.21427-4.0506-0.42933v-22.802h-28.274v19.878c0 2.1728-1.0998 3.3801-4.4799 3.3801-1.6367 0-3.2726-0.21427-4.0506-0.42933v-49.575c0-2.0921 1.0998-3.3801 4.5874-3.3801 1.5292 0 3.0314 0.21427 3.9162 0.42933v22.051h28.141v-19.1c0-2.0921 1.2074-3.3801 4.695-3.3801 1.6098 0 3.1121 0.21427 3.9968 0.42933m58.003 26.182c0 14.861-10.381 26.101-26.638 26.101h-15.157c-3.2726 0-4.4799-1.3141-4.4799-3.3801v-45.309c0-2.0652 1.2074-3.3801 4.4799-3.3801h15.157c16.257 0 26.638 11.133 26.638 25.968m-8.638 0c0-11.133-6.9745-18.349-18-18.349h-11.133v36.779h11.133c11.026 0.02688 18-7.1895 18-18.43" fill="#9c001f"/>
	<path d="m57.492 77.171c0 11.076-7.2122 19.112-21.946 20.709-10.612 1.1333-26.016-0.20606-33.331-1.0303-0.25758-1.1849-0.46364-2.6788-0.46364-3.8637 0-9.6335 5.2031-11.849 10.097-11.849 5.1001 0 13.137 0.87577 19.061 0.87577 6.594 0 8.5516-2.2152 8.5516-4.3273 0-2.7819-2.6273-3.9152-7.7274-4.894l-13.961-2.6788c-11.591-2.2152-17.773-10.2-17.773-18.7 0-10.303 7.3153-18.958 21.74-20.555 10.87-1.1849 24.161 0.15455 31.425 1.0303 0.25758 1.2364 0.41213 2.4212 0.41213 3.7091 0 9.6335-5.1001 11.694-9.9941 11.694-3.7607 0-9.582-0.66971-16.279-0.66971-6.8001 0-9.582 1.8546-9.582 4.1213 0 2.4212 2.6788 3.4 6.9031 4.1728l13.291 2.4728c13.703 2.5243 19.576 10.252 19.576 19.782m23.852 11.849c0 5.9243-2.3182 9.3244-13.909 9.3244-1.5455 0-2.8849-0.10303-4.1728-0.3091v-78.459c0-5.9758 2.0091-12.209 13.703-12.209 1.494 0 2.9879 0.15455 4.3789 0.46364zm47.343 30.394c1.5455 0.77274 4.6364 1.7515 8.5516 1.8031 6.7486 0.15454 10.406-2.4212 13.137-8.4486l36.061-80.21c-1.494-0.77274-4.791-1.7-7.4698-1.7515-4.6364-0.10303-10.87 0.82425-14.837 10.303l-11.746 27.458-22.925-37.246c-1.494-0.46364-5.1001-1.0818-7.7274-1.0818-8.1395 0-12.621 2.9879-17.309 8.0365l-22.255 24.315 17.928 28.179c3.297 5.1516 7.6759 7.7789 14.734 7.7789 4.6364 0 8.5001-1.0818 10.303-1.9061l-21.585-32.455 15.3-16.228 25.088 39.307z" fill="#ff0031"/>
	<path d="m624.84 3.9533e-6h-410.63c-4.7395 0-8.6032 3.8637-8.6032 8.6032v111.53c0 4.7395 3.8637 8.6032 8.6032 8.6032h410.58c4.7395 0 8.6032-3.8637 8.6032-8.6032v-111.58c-0.0515-4.7395-3.8122-8.5516-8.5516-8.5516" fill="url(#A)"/>
	<path d="m63.313 19.576v53.834c0-2.1637 1.6485-4.4304 4.4304-4.5334l9.0668-0.3091c1.8031-0.05152 4.5334-1.2879 4.5849-4.5849v-56.152c-1.3909-0.3091-2.8849-0.46364-4.3788-0.46364-11.694 0.051516-13.703 6.2334-13.703 12.209m41.213 18.752-22.255 24.315 1.8031 2.7819c0.77274 1.0303 2.2667 2.7819 5.2546 2.6788l12.673-0.46364c2.7819-0.10303 4.5334 1.0818 5.6152 2.5243l-3.9667-5.9758 15.3-16.228 10.252 16.124c1.8546 2.4212 4.6364 2.4728 5.2546 2.4728 0.51516 0 14.012-0.46364 14.579-0.51516 0.92728-0.05152 2.0091 0.46364 2.8334 1.6485l-22.306-36.267c-1.494-0.46364-5.1001-1.0818-7.7274-1.0818-8.1395-0.05152-12.621 2.8849-17.309 7.985m-82.786-7.4698c-14.424 1.597-21.74 10.2-21.74 20.555 0 5.3061 2.4212 10.406 7.0577 14.064 3.5031 2.3182 7.1092 3.194 10.664 3.8122 2.9364 0.51516 9.788 0.9788 14.888 0.77274l15.867-0.56668c5.9758-0.20606 9.1698 4.894 8.8607 9.9941v-0.25758c0.05151-0.6697 0.10303-1.3394 0.10303-2.0091 0-9.5304-5.8728-17.309-19.525-19.834l-13.291-2.4728c-4.2758-0.72122-6.9031-1.7515-6.9031-4.1728 0-2.2667 2.8334-4.1728 9.582-4.1728 6.6971 0 12.518 0.66971 16.279 0.66971 4.894 0 9.9941-2.0606 9.9941-11.694 0-1.2879-0.15455-2.4728-0.41213-3.7091-5.2031-0.61819-13.549-1.494-21.843-1.494-3.2455 0.05151-6.491 0.20606-9.582 0.51516m142.29 10.252-11.385 26.84c0-0.05151 0.72122-2.1122 2.9364-2.2152l12.055-0.41213c3.6576-0.15455 5.1001-2.6273 5.5122-3.4516l13.188-29.416c-1.494-0.77274-4.791-1.7-7.4698-1.7515h-0.56668c-4.5849 0.05151-10.458 1.2879-14.27 10.406" fill="url(#B)" opacity=".3"/>
	<path d="m214.2 3.9533e-6c-4.7395 0-8.6032 3.8637-8.6032 8.6032v61.922c0-0.92728 0.36061-6.0274 6.1819-6.594 0 0 0.3091-0.05152 0.82426-0.05152l414.39-14.527c3.2455-0.10303 6.388-2.5243 6.388-6.5425v-34.155c0-4.7395-3.8637-8.6032-8.6032-8.6032z" fill="url(#C)" opacity=".3"/>
	<path d="m298.64 14.579c-3.4516 0-6.3871 2.678-6.3871 6.3871 0 3.2455 2.884 6.2852 6.3871 6.2852s6.2852-2.9882 6.2852-6.2852c0-3.6061-2.7306-6.3871-6.2852-6.3871zm117.35 19.112c-16.588 0-30.033 13.137-30.033 31.219 0 18.752 12.93 31.528 31.682 31.528 8.6547 0 16.794-2.5766 22.1-4.9463 0.61819-5.4607-1.2376-7.8294-3.7618-7.8294-1.0818 0-2.4205 0.51506-4.9448 1.4423-3.8637 1.1849-7.8305 2.3689-13.034 2.3689-12.106 0-20.348-6.7476-21.842-18.442h46.93c0.36062-2.2667 0.51519-4.2772 0.56674-6.1833 0-14.373-9.1698-29.157-27.664-29.157zm-155.37 0.05096c-17.412 0-30.703 13.344-30.703 31.271s13.291 31.425 30.703 31.682c8.2425-8e-6 15.713-2.2676 21.019-4.7919 0.51517-5.4607-1.4939-7.7275-4.0182-7.7275-3.5031 0-7.4697 3.8638-16.64 3.8638-11.591 0-21.019-8.9114-21.019-22.872 0-13.961 9.428-22.616 21.019-22.616 9.1698 0 13.085 3.8638 16.64 3.8638 2.5243 0 4.5334-2.2668 4.0182-7.7275-5.2031-2.6788-12.673-4.9463-21.019-4.9463zm89.639 0c-9.1183 0-15.816 4.4305-20.194 9.7366v-5.2026c0-2.2667-1.3405-3.7603-5.2042-3.7603-1.7515 0-3.6052 0.41109-4.5324 0.66867v60.12c0.92728 0.25758 2.7809 0.51424 4.5324 0.51424 3.9152 0 5.2042-1.3906 5.2042-3.7603v-38.585c3.194-5.8213 10.921-10.87 18.082-10.87 9.0153 0 15.145 5.8725 15.145 18.236v34.362c0.9788 0.25758 2.937 0.51578 4.534 0.51578 3.9667 0 5.2026-1.3921 5.2026-3.7618v-32.454c0-17.824-10.353-25.707-22.769-25.758zm133.63 0c-7.4183 0-13.55 3.8649-17.413 9.068v-4.2761c0-2.5243-1.2876-4.0182-5.0482-4.0182-1.597 0-3.5037 0.41109-4.534 0.66867v60.017c0.82426 0.25758 2.7824 0.51578 4.534 0.51578 3.9667 0 5.2026-1.3921 5.2026-3.7618v-39.615c2.2667-4.894 8.0882-9.8401 14.888-9.8401 8.1395 0 12.262 5.3074 12.262 14.22v38.482c1.0303 0.25758 2.8844 0.51578 4.6359 0.51578 3.9667 0 5.2026-1.3921 5.2026-3.7618v-39.615c2.2667-4.894 8.0882-9.8401 14.888-9.8401 7.985 0 12.262 5.3074 12.262 14.22v38.482c0.9788 0.25758 2.9354 0.51578 4.5324 0.51578 3.9667 0 5.3061-1.3921 5.3061-3.7618v-36.318c0-12.003-6.902-21.843-19.884-21.895-8.9122 0-15.301 4.8953-19.422 10.923-3.194-6.8001-9.4267-10.923-17.412-10.923zm97.21 0c-8.4486 0-17.464 2.0094-23.491 4.2761-0.61819 5.3061 0.97844 7.831 3.7603 7.831 0.97881 0 2.4215-0.46391 4.2761-0.97907 3.6061-1.1849 8.9124-2.5249 15.043-2.5249 11.849 0 14.888 5.5639 14.888 14.888v1.6493c-26.737-1.7515-42.552 4.6358-42.552 19.266 0 9.685 7.4704 18.34 21.019 18.34 9.0153 0 15.815-3.5548 21.533-9.5822v5.0482c0 2.5243 1.5965 3.8128 5.2026 3.8128 1.7515 0 3.5037-0.25821 4.534-0.51579v-38.378c0-14.27-6.5427-23.08-24.213-23.132zm-282.15 0.82464c-4.0698 0-5.3061 1.4936-5.3061 3.7603v56.874c0.97879 0.25758 2.8839 0.5152 4.5324 0.56675 3.9667 0 5.3061-1.3906 5.3061-3.7603v-56.77c-0.97879-0.25758-2.9354-0.67021-4.5324-0.67022zm117.09 7.882c10.87 0 17.515 8.1395 17.927 18.494h-37.76c1.597-12.106 10.148-18.597 19.833-18.494zm173.04 23.691c2.0777 0.0064 4.2167 0.06401 6.3933 0.1606v11.591c-4.6364 6.1819-11.591 10.356-19.833 10.356-8.088 0-12.621-4.9463-12.621-10.252 0-9.421 11.517-11.9 26.061-11.855z" fill="#fff"/>
</svg>
