<?xml version="1.0" encoding="UTF-8"?>
<svg width="800" height="261.14" version="1.1" viewBox="0 0 800 261.14" xmlns="http://www.w3.org/2000/svg">
	<defs>
		<linearGradient id="A" x1="414.37" x2="1244.6" y1="289.84" y2="289.84" gradientTransform="matrix(.65067 0 0 .65067 -9.8251 -107.3)" gradientUnits="userSpaceOnUse">
			<stop stop-color="#ff0031" offset="0"/>
			<stop stop-color="#9b001f" offset="1"/>
		</linearGradient>
		<linearGradient id="B" x1="197.48" x2="194.59" y1="295.14" y2="212.24" gradientTransform="matrix(.65067 0 0 .65067 -9.8251 -107.3)" gradientUnits="userSpaceOnUse">
			<stop stop-color="#fff" offset="0"/>
			<stop stop-color="#fff" stop-opacity=".25" offset=".515"/>
		</linearGradient>
		<linearGradient id="C" x1="830.55" x2="826.25" y1="276.73" y2="153.47" gradientTransform="matrix(.65067 0 0 .65067 -9.8251 -107.3)" gradientUnits="userSpaceOnUse">
			<stop stop-color="#fff" offset="0"/>
			<stop stop-color="#fff" stop-opacity=".25" offset=".515"/>
		</linearGradient>
	</defs>
	<g>
		<path d="m72.615 97.471c0 13.989-9.1094 24.14-27.719 26.157-13.404 1.4315-32.859-0.26027-42.098-1.3013-0.32534-1.4965-0.5856-3.3835-0.5856-4.88 0-12.168 6.5718-14.965 12.753-14.965 6.4416 0 16.592 1.1061 24.075 1.1061 8.3286 0 10.801-2.7979 10.801-5.4656 0-3.5136-3.3184-4.9451-9.7601-6.1814l-17.633-3.3835c-14.64-2.7979-22.448-12.883-22.448-23.619 0-13.013 9.2395-23.945 27.458-25.962 13.729-1.4965 30.516 0.1952 39.691 1.3013 0.32534 1.5616 0.52054 3.0582 0.52054 4.6848 0 12.168-6.4416 14.77-12.623 14.77-4.7499 0-12.102-0.84587-20.561-0.84587-8.5889 0-12.102 2.3424-12.102 5.2054 0 3.0582 3.3835 4.2944 8.719 5.2704l16.787 3.1232c17.308 3.1883 24.725 12.948 24.725 24.986m30.126 14.965c0 7.4827-2.928 11.777-17.568 11.777-1.952 0-3.6438-0.13014-5.2704-0.3904v-99.097c0-7.5478 2.5376-15.421 17.308-15.421 1.8869 0 3.7739 0.1952 5.5307 0.5856zm59.797 38.39c1.952 0.97601 5.856 2.2123 10.801 2.2774 8.5238 0.1952 13.144-3.0582 16.592-10.671l45.547-101.31c-1.8869-0.97601-6.0512-2.1472-9.4347-2.2123-5.856-0.13013-13.729 1.0411-18.739 13.013l-14.835 34.681-28.955-47.044c-1.8869-0.5856-6.4416-1.3664-9.7601-1.3664-10.281 0-15.941 3.7739-21.863 10.15l-28.109 30.712 22.643 35.592c4.1643 6.5067 9.695 9.8251 18.609 9.8251 5.856 0 10.736-1.3664 13.013-2.4075l-27.263-40.992 19.325-20.496 31.688 49.646z" fill="#ff0031"/>
		<path d="m789.2 0h-518.65c-5.9862 0-10.866 4.88-10.866 10.866v140.87c0 5.9862 4.88 10.866 10.866 10.866h518.58c5.9862 0 10.866-4.88 10.866-10.866v-140.94c-0.06507-5.9862-4.815-10.801-10.801-10.801" fill="url(#A)"/>
		<path d="m79.967 24.725v67.995c0-2.7328 2.0821-5.5958 5.5958-5.7259l11.452-0.3904c2.2773-0.06507 5.7259-1.6267 5.791-5.791v-70.923c-1.7568-0.3904-3.6438-0.5856-5.5307-0.5856-14.77 0.065067-17.308 7.8731-17.308 15.421m52.054 23.684-28.109 30.712 2.2774 3.5136c0.97601 1.3013 2.863 3.5136 6.6368 3.3835l16.007-0.5856c3.5136-0.13013 5.7259 1.3664 7.0923 3.1883l-5.0102-7.5478 19.325-20.496 12.948 20.366c2.3424 3.0582 5.856 3.1232 6.6368 3.1232 0.65067 0 17.698-0.5856 18.414-0.65067 1.1712-0.06507 2.5376 0.5856 3.5787 2.0821l-28.174-45.807c-1.8869-0.5856-6.4416-1.3664-9.7601-1.3664-10.281-0.06506-15.941 3.6438-21.863 10.085m-104.56-9.4347c-18.219 2.0171-27.458 12.883-27.458 25.962 0 6.7019 3.0582 13.144 8.9142 17.763 4.4246 2.928 8.9793 4.0342 13.469 4.815 3.7088 0.65067 12.363 1.2363 18.804 0.97601l20.041-0.71574c7.5478-0.26027 11.582 6.1814 11.192 12.623v-0.32534c0.06506-0.84586 0.13014-1.6917 0.13014-2.5376 0-12.037-7.4176-21.863-24.66-25.051l-16.787-3.1232c-5.4006-0.91094-8.719-2.2123-8.719-5.2704 0-2.863 3.5787-5.2704 12.102-5.2704 8.4587 0 15.811 0.84587 20.561 0.84587 6.1814 0 12.623-2.6027 12.623-14.77 0-1.6267-0.1952-3.1232-0.52054-4.6848-6.5718-0.7808-17.113-1.8869-27.588-1.8869-4.0992 0.06506-8.1985 0.26027-12.102 0.65067m179.72 12.948-14.38 33.9c0-0.06506 0.91094-2.6678 3.7088-2.7979l15.226-0.52054c4.6198-0.1952 6.4416-3.3184 6.9622-4.3595l16.657-37.153c-1.887-0.97601-6.0512-2.1472-9.4347-2.2123h-0.71574c-5.791 0.06506-13.209 1.6267-18.024 13.144" enable-background="new" fill="url(#B)" opacity=".3"/>
		<path d="m270.55 0c-5.9862 0-10.866 4.88-10.866 10.866v78.211c0-1.1712 0.45548-7.6129 7.8081-8.3286 0 0 0.39041-0.06507 1.0411-0.06507l523.4-18.349c4.0992-0.13013 8.0683-3.1883 8.0683-8.2635v-43.139c0-5.9862-4.88-10.866-10.866-10.866z" enable-background="new" fill="url(#C)" opacity=".3"/>
		<path d="m377.19 18.415c-4.3595 0-8.0672 3.3824-8.0672 8.0672 0 4.0992 3.6427 7.9385 8.0672 7.9385 4.4246 0 7.9385-3.7742 7.9385-7.9385 0-4.5547-3.4489-8.0672-7.9385-8.0672zm148.22 24.139c-20.952 0-37.933 16.593-37.933 39.431 0 23.684 16.332 39.821 40.016 39.821 10.931 0 21.212-3.2543 27.913-6.2474 0.7808-6.8971-1.5631-9.889-4.7514-9.889-1.3664 0-3.0572 0.65055-6.2455 1.8218-4.88 1.4966-9.8904 2.992-16.462 2.992-15.291 0-25.701-8.5245-27.588-23.295h59.275c0.45548-2.863 0.65071-5.4003 0.71583-7.8078 0-18.154-11.582-36.827-34.941-36.827zm-196.24 0.06437c-21.993 0-38.78 16.852-38.78 39.495 0 22.643 16.787 39.691 38.78 40.016 10.411 0 19.846-2.8621 26.548-6.0504 0.65068-6.8971-1.8869-9.7603-5.0752-9.7603-4.4246 0-9.4346 4.8801-21.017 4.8801-14.64 0-26.548-11.256-26.548-28.889s11.908-28.565 26.548-28.565c11.582 0 16.527 4.8801 21.017 4.8801 3.1883 0 5.7258-2.8631 5.0752-9.7603-6.5718-3.3835-16.007-6.2474-26.548-6.2474zm113.22 0c-11.517 0-19.976 5.5959-25.507 12.298v-6.5712c0-2.863-1.6931-4.7494-6.5732-4.7494-2.2123 0-4.5535 0.51923-5.7247 0.84456v75.935c1.1712 0.32533 3.5124 0.64952 5.7247 0.64952 4.9451 0 6.5732-1.7564 6.5732-4.7494v-48.735c4.0342-7.3526 13.794-13.73 22.838-13.73 11.387 1e-6 19.128 7.4172 19.128 23.033v43.4c1.2363 0.32534 3.7096 0.65146 5.7266 0.65146 5.0102 0 6.5712-1.7583 6.5712-4.7514v-40.991c0-22.513-13.077-32.469-28.758-32.534zm168.78 0c-9.3697 0-17.114 4.8815-21.994 11.453v-5.4009c0-3.1883-1.6263-5.0752-6.3762-5.0752-2.0171 0-4.4253 0.51923-5.7266 0.84456v75.804c1.0411 0.32534 3.5144 0.65146 5.7266 0.65146 5.0102 0 6.5712-1.7583 6.5712-4.7514v-50.036c2.863-6.1814 10.216-12.429 18.805-12.429 10.281 0 15.487 6.7035 15.487 17.96v48.604c1.3013 0.32534 3.6431 0.65146 5.8554 0.65146 5.0102 0 6.5712-1.7583 6.5712-4.7514v-50.036c2.863-6.1814 10.216-12.429 18.805-12.429 10.085 0 15.487 6.7035 15.487 17.96v48.604c1.2363 0.32534 3.7076 0.65146 5.7247 0.65146 5.0102 0 6.7019-1.7583 6.7019-4.7514v-45.872c0-15.161-8.7176-27.589-25.115-27.654-11.257 0-19.326 6.183-24.531 13.796-4.0342-8.5889-11.906-13.796-21.992-13.796zm122.78 0c-10.671 0-22.058 2.538-29.671 5.4009-0.7808 6.7019 1.2358 9.8909 4.7494 9.8909 1.2363 0 3.0585-0.58594 5.4009-1.2366 4.5547-1.4965 11.257-3.1891 19-3.1891 14.965 0 18.805 7.0275 18.805 18.805v2.0831c-33.77-2.2123-53.746 5.8553-53.746 24.334 0 12.233 9.4355 23.164 26.548 23.164 11.387 0 19.975-4.4899 27.198-12.103v6.3761c0 3.1883 2.0165 4.8158 6.5712 4.8158 2.2123 0 4.4253-0.32613 5.7266-0.65147v-48.474c0-18.024-8.2637-29.151-30.582-29.216zm-356.37 1.0416c-5.1403 0-6.7019 1.8865-6.7019 4.7494v71.835c1.2363 0.32534 3.6425 0.65073 5.7247 0.71583 5.0102 0 6.7019-1.7564 6.7019-4.7494v-71.704c-1.2363-0.32534-3.7076-0.84651-5.7247-0.84651zm147.9 9.9553c13.729 0 22.123 10.281 22.643 23.359h-47.693c2.0171-15.291 12.818-23.489 25.05-23.359zm218.55 29.922c2.6243 0.0081 5.3259 0.08085 8.075 0.20285v14.64c-5.856 7.808-14.639 13.08-25.05 13.08-10.216 0-15.941-6.2474-15.941-12.949 0-11.899 14.546-15.031 32.916-14.974z" fill="#fff"/>
		<path d="m293.84 243.95q-3.2156 0-4.8694-0.45939v-35.74h-6.1557q-0.18376-0.64313-0.27563-1.6538-0.0919-1.0106-0.0919-2.0213 0-2.2969 0.91876-3.2157 1.0106-0.91876 2.4806-0.91876h3.1238v-4.8694q0-7.9013 4.3182-11.668 4.41-3.8588 11.484-3.8588 3.4913 0 6.7988 0.64314 3.3075 0.64313 5.6963 1.47v1.3781q0 3.0319-1.1025 4.41-1.0106 1.2863-2.94 1.2863-1.47 0-3.1238-0.45938-1.6538-0.45938-4.5938-0.45938t-4.7776 1.7456q-1.7456 1.7456-1.7456 6.1557v4.2263h13.781q0.45938 1.3781 0.45938 3.675 0 2.2969-1.0106 3.2156-0.91876 0.91876-2.3888 0.91876h-10.841v31.973q0 1.8375-1.1025 3.0319-1.1025 1.1944-4.0425 1.1944zm35.74 0.18375q-3.5832 0-6.4313-1.0106-2.7563-1.1025-4.6857-2.94-1.8375-1.8375-2.8482-4.2263-0.91876-2.4806-0.91876-5.2369 0-3.3075 1.1025-6.0638 1.1944-2.7563 3.5832-4.6857 2.3888-2.0213 5.9719-3.1238 3.675-1.1025 8.7282-1.1025 4.7776 0 10.841 1.1025v-2.2969q0-4.5019-2.0213-6.3394-2.0213-1.9294-7.2582-1.9294-2.6644 0-4.6857 0.3675-2.0213 0.27563-3.675 0.73501-1.5619 0.3675-2.8482 0.735-1.1944 0.27563-2.2969 0.27563-1.9294 0-2.8482-1.6538-0.91876-1.6538-0.91876-4.0425 0-0.45938 0-0.82689 0-0.45938 0.0919-0.91875 3.0319-1.0106 7.5338-1.8375 4.5019-0.91876 10.014-0.91876 5.3288 0 8.8201 1.1944 3.5832 1.1944 5.6963 3.5832 2.205 2.2969 3.0319 5.6963 0.91876 3.3075 0.91876 7.7176v9.647q0 2.7563 0 4.9613 0.0919 2.205 0.27562 4.1344 0.27563 1.9294 0.64313 3.8588 0.36751 1.8375 1.0106 4.0425-0.82688 0.3675-2.1132 0.64313-1.1944 0.27563-2.8482 0.27563-1.8375 0-3.0319-0.64313-1.1025-0.73501-1.7456-1.8375-0.64314-1.1944-0.91876-2.7563-0.18376-1.5619-0.27563-3.3075h-0.0919q-1.1025 1.7456-2.5725 3.3994-1.3781 1.5619-3.3075 2.7563-1.9294 1.1944-4.41 1.8375-2.3888 0.73501-5.5126 0.73501zm2.6644-8.0851q4.41 0 7.6257-2.5725 3.3075-2.5725 5.145-6.4313v-3.8588q-4.6857-0.82688-8.3607-0.82688-6.0638 0-9.0957 2.0213-2.94 1.9294-2.94 5.6044 0 2.94 2.1132 4.5019 2.1131 1.5619 5.5126 1.5619zm37.393 7.9013q-1.3781 0-2.8482-0.18375-1.3781-0.0919-2.1131-0.27564v-44.1q1.0106-0.27563 2.0213-0.45938 1.1025-0.27563 2.3888-0.27563 2.8482 0 4.0425 1.5619 1.2863 1.47 1.2863 4.0425l0.0919 1.1025q1.9294-3.0319 5.2369-5.0532 3.3075-2.1131 7.1663-2.1131 4.5019 0 7.9932 2.2969 3.5832 2.205 5.145 6.6151 2.6644-4.41 6.0638-6.6151 3.4913-2.2969 7.9013-2.2969 7.2582 0 10.749 4.5019 3.5832 4.5019 3.5832 12.311v24.715q0 1.8375-1.1025 3.0319-1.0106 1.1944-3.9507 1.1944-1.3781 0-2.8482-0.18375-1.3781-0.0919-2.1132-0.27564v-27.471q0-4.6857-2.1131-6.8907-2.1132-2.2969-5.6044-2.2969-3.3075 0-5.6044 1.7456-2.2969 1.6538-3.4913 4.0425v27.103q0 1.8375-1.1025 3.0319-1.0106 1.1944-3.9507 1.1944-1.3781 0-2.8482-0.18375-1.3781-0.0919-2.1131-0.27564v-27.471q0-4.5019-2.1132-6.7988-2.0213-2.3888-5.8801-2.3888-2.94 0-5.3288 1.7456-2.2969 1.6538-3.4913 3.9507v27.195q0 1.8375-1.1025 3.0319-1.0106 1.1944-3.9507 1.1944zm73.317 0q-1.3781 0-2.7563-0.18375-1.3781-0.0919-2.1132-0.27564v-40.609q0-1.8375 1.1025-3.0319 1.1025-1.1944 3.9507-1.1944 1.47 0 2.8482 0.18375 1.3781 0.0919 2.1131 0.27564v40.609q0 1.8375-1.1025 3.0319-1.1025 1.1944-4.0425 1.1944zm0.18375-53.288q-2.2969 0-3.9507-1.6538t-1.6538-3.9507q0-2.3888 1.6538-4.0425 1.6538-1.6538 3.9507-1.6538 2.3888 0 4.0425 1.6538 1.6538 1.6538 1.6538 4.0425 0 2.2969-1.6538 3.9507-1.6538 1.6538-4.0425 1.6538zm20.58 53.288q-1.3781 0-2.8482-0.18375-1.3781-0.0919-2.1132-0.27563v-58.341q0-1.8375 1.0106-3.0319 1.1025-1.1944 4.0425-1.1944 1.3781 0 2.7563 0.18375 1.47 0.0919 2.205 0.27563v58.341q0 1.8375-1.1025 3.0319-1.0106 1.1944-3.9507 1.1944zm25.633 17.181q-1.7456 0-3.0319-0.27562-1.1944-0.27563-2.1132-0.64313l7.442-16.997-17.181-43.365q1.0106-0.45937 2.4806-0.82688 1.47-0.3675 3.0319-0.3675 2.3888 0 3.675 0.82688 1.2863 0.735 1.7456 2.205l10.841 30.87 11.117-30.962q0.64313-1.7456 1.9294-2.2969 1.3781-0.64313 3.2157-0.64313 1.1944 0 2.6644 0.3675 1.47 0.27563 2.3888 0.73501l-22.418 57.422q-1.47 3.9507-5.7882 3.9507z" fill="#000"/>
	</g>
</svg>
