<?xml version="1.0" encoding="UTF-8"?>
<svg width="800" height="244.14" version="1.1" xmlns="http://www.w3.org/2000/svg">
	<g>
		<path d="m72.615 97.471c0 13.989-9.1094 24.14-27.719 26.157-13.404 1.4315-32.859-0.26027-42.098-1.3013-0.32534-1.4965-0.5856-3.3835-0.5856-4.88 0-12.168 6.5718-14.965 12.753-14.965 6.4416 0 16.592 1.1061 24.075 1.1061 8.3286 0 10.801-2.7979 10.801-5.4656 0-3.5136-3.3184-4.9451-9.7601-6.1814l-17.633-3.3835c-14.64-2.7979-22.448-12.883-22.448-23.619 0-13.013 9.2395-23.945 27.458-25.962 13.729-1.4965 30.516 0.1952 39.691 1.3013 0.32534 1.5616 0.52054 3.0582 0.52054 4.6848 0 12.168-6.4416 14.77-12.623 14.77-4.7499 0-12.102-0.84587-20.561-0.84587-8.5889 0-12.102 2.3424-12.102 5.2054 0 3.0582 3.3835 4.2944 8.719 5.2704l16.787 3.1232c17.308 3.1883 24.725 12.948 24.725 24.986m30.126 14.965c0 7.4827-2.928 11.777-17.568 11.777-1.952 0-3.6438-0.13014-5.2704-0.3904v-99.097c0-7.5478 2.5376-15.421 17.308-15.421 1.8869 0 3.7739 0.1952 5.5307 0.5856zm59.797 38.39c1.952 0.97601 5.856 2.2123 10.801 2.2774 8.5238 0.1952 13.144-3.0582 16.592-10.671l45.547-101.31c-1.8869-0.97601-6.0512-2.1472-9.4347-2.2123-5.856-0.13013-13.729 1.0411-18.739 13.013l-14.835 34.681-28.955-47.044c-1.8869-0.5856-6.4416-1.3664-9.7601-1.3664-10.281 0-15.941 3.7739-21.863 10.15l-28.109 30.712 22.643 35.592c4.1643 6.5067 9.695 9.8251 18.609 9.8251 5.856 0 10.736-1.3664 13.013-2.4075l-27.263-40.992 19.325-20.496 31.688 49.646z" fill="#ff0031"/>
		<path d="m789.2 0h-518.65c-5.9862 0-10.866 4.88-10.866 10.866v140.87c0 5.9862 4.88 10.866 10.866 10.866h518.58c5.9862 0 10.866-4.88 10.866-10.866v-140.94c-0.06507-5.9862-4.815-10.801-10.801-10.801" fill="url(#A)"/>
		<path d="m79.967 24.725v67.995c0-2.7328 2.0821-5.5958 5.5958-5.7259l11.452-0.3904c2.2773-0.06507 5.7259-1.6267 5.791-5.791v-70.923c-1.7568-0.3904-3.6438-0.5856-5.5307-0.5856-14.77 0.065067-17.308 7.8731-17.308 15.421m52.054 23.684-28.109 30.712 2.2774 3.5136c0.97601 1.3013 2.863 3.5136 6.6368 3.3835l16.007-0.5856c3.5136-0.13013 5.7259 1.3664 7.0923 3.1883l-5.0102-7.5478 19.325-20.496 12.948 20.366c2.3424 3.0582 5.856 3.1232 6.6368 3.1232 0.65067 0 17.698-0.5856 18.414-0.65067 1.1712-0.06507 2.5376 0.5856 3.5787 2.0821l-28.174-45.807c-1.8869-0.5856-6.4416-1.3664-9.7601-1.3664-10.281-0.06506-15.941 3.6438-21.863 10.085m-104.56-9.4347c-18.219 2.0171-27.458 12.883-27.458 25.962 0 6.7019 3.0582 13.144 8.9142 17.763 4.4246 2.928 8.9793 4.0342 13.469 4.815 3.7088 0.65067 12.363 1.2363 18.804 0.97601l20.041-0.71574c7.5478-0.26027 11.582 6.1814 11.192 12.623v-0.32534c0.06506-0.84586 0.13014-1.6917 0.13014-2.5376 0-12.037-7.4176-21.863-24.66-25.051l-16.787-3.1232c-5.4006-0.91094-8.719-2.2123-8.719-5.2704 0-2.863 3.5787-5.2704 12.102-5.2704 8.4587 0 15.811 0.84587 20.561 0.84587 6.1814 0 12.623-2.6027 12.623-14.77 0-1.6267-0.1952-3.1232-0.52054-4.6848-6.5718-0.7808-17.113-1.8869-27.588-1.8869-4.0992 0.06506-8.1985 0.26027-12.102 0.65067m179.72 12.948-14.38 33.9c0-0.06506 0.91094-2.6678 3.7088-2.7979l15.226-0.52054c4.6198-0.1952 6.4416-3.3184 6.9622-4.3595l16.657-37.153c-1.887-0.97601-6.0512-2.1472-9.4347-2.2123h-0.71574c-5.791 0.06506-13.209 1.6267-18.024 13.144" enable-background="new" fill="url(#B)" opacity=".3"/>
		<path d="m270.55 0c-5.9862 0-10.866 4.88-10.866 10.866v78.211c0-1.1712 0.45548-7.6129 7.8081-8.3286 0 0 0.39041-0.06507 1.0411-0.06507l523.4-18.349c4.0992-0.13013 8.0683-3.1883 8.0683-8.2635v-43.139c0-5.9862-4.88-10.866-10.866-10.866z" enable-background="new" fill="url(#C)" opacity=".3"/>
		<path d="m377.19 18.415c-4.3595 0-8.0672 3.3824-8.0672 8.0672 0 4.0992 3.6427 7.9385 8.0672 7.9385 4.4246 0 7.9385-3.7742 7.9385-7.9385 0-4.5547-3.4489-8.0672-7.9385-8.0672zm148.22 24.139c-20.952 0-37.933 16.593-37.933 39.431 0 23.684 16.332 39.821 40.016 39.821 10.931 0 21.212-3.2543 27.913-6.2474 0.7808-6.8971-1.5631-9.889-4.7514-9.889-1.3664 0-3.0572 0.65055-6.2455 1.8218-4.88 1.4966-9.8904 2.992-16.462 2.992-15.291 0-25.701-8.5245-27.588-23.295h59.275c0.45548-2.863 0.65071-5.4003 0.71583-7.8078 0-18.154-11.582-36.827-34.941-36.827zm-196.24 0.06437c-21.993 0-38.78 16.852-38.78 39.495 0 22.643 16.787 39.691 38.78 40.016 10.411 0 19.846-2.8621 26.548-6.0504 0.65068-6.8971-1.8869-9.7603-5.0752-9.7603-4.4246 0-9.4346 4.8801-21.017 4.8801-14.64 0-26.548-11.256-26.548-28.889s11.908-28.565 26.548-28.565c11.582 0 16.527 4.8801 21.017 4.8801 3.1883 0 5.7258-2.8631 5.0752-9.7603-6.5718-3.3835-16.007-6.2474-26.548-6.2474zm113.22 0c-11.517 0-19.976 5.5959-25.507 12.298v-6.5712c0-2.863-1.6931-4.7494-6.5732-4.7494-2.2123 0-4.5535 0.51923-5.7247 0.84456v75.935c1.1712 0.32533 3.5124 0.64952 5.7247 0.64952 4.9451 0 6.5732-1.7564 6.5732-4.7494v-48.735c4.0342-7.3526 13.794-13.73 22.838-13.73 11.387 1e-6 19.128 7.4172 19.128 23.033v43.4c1.2363 0.32534 3.7096 0.65146 5.7266 0.65146 5.0102 0 6.5712-1.7583 6.5712-4.7514v-40.991c0-22.513-13.077-32.469-28.758-32.534zm168.78 0c-9.3697 0-17.114 4.8815-21.994 11.453v-5.4009c0-3.1883-1.6263-5.0752-6.3762-5.0752-2.0171 0-4.4253 0.51923-5.7266 0.84456v75.804c1.0411 0.32534 3.5144 0.65146 5.7266 0.65146 5.0102 0 6.5712-1.7583 6.5712-4.7514v-50.036c2.863-6.1814 10.216-12.429 18.805-12.429 10.281 0 15.487 6.7035 15.487 17.96v48.604c1.3013 0.32534 3.6431 0.65146 5.8554 0.65146 5.0102 0 6.5712-1.7583 6.5712-4.7514v-50.036c2.863-6.1814 10.216-12.429 18.805-12.429 10.085 0 15.487 6.7035 15.487 17.96v48.604c1.2363 0.32534 3.7076 0.65146 5.7247 0.65146 5.0102 0 6.7019-1.7583 6.7019-4.7514v-45.872c0-15.161-8.7176-27.589-25.115-27.654-11.257 0-19.326 6.183-24.531 13.796-4.0342-8.5889-11.906-13.796-21.992-13.796zm122.78 0c-10.671 0-22.058 2.538-29.671 5.4009-0.7808 6.7019 1.2358 9.8909 4.7494 9.8909 1.2363 0 3.0585-0.58594 5.4009-1.2366 4.5547-1.4965 11.257-3.1891 19-3.1891 14.965 0 18.805 7.0275 18.805 18.805v2.0831c-33.77-2.2123-53.746 5.8553-53.746 24.334 0 12.233 9.4355 23.164 26.548 23.164 11.387 0 19.975-4.4899 27.198-12.103v6.3761c0 3.1883 2.0165 4.8158 6.5712 4.8158 2.2123 0 4.4253-0.32613 5.7266-0.65147v-48.474c0-18.024-8.2637-29.151-30.582-29.216zm-356.37 1.0416c-5.1403 0-6.7019 1.8865-6.7019 4.7494v71.835c1.2363 0.32534 3.6425 0.65073 5.7247 0.71583 5.0102 0 6.7019-1.7564 6.7019-4.7494v-71.704c-1.2363-0.32534-3.7076-0.84651-5.7247-0.84651zm147.9 9.9553c13.729 0 22.123 10.281 22.643 23.359h-47.693c2.0171-15.291 12.818-23.489 25.05-23.359zm218.55 29.922c2.6243 0.0081 5.3259 0.08085 8.075 0.20285v14.64c-5.856 7.808-14.639 13.08-25.05 13.08-10.216 0-15.941-6.2474-15.941-12.949 0-11.899 14.546-15.031 32.916-14.974z" fill="#fff"/>
		<path d="m455.58 179.37c-1.5313 0-2.8472 0.55151-3.9498 1.654s-1.654 2.4508-1.654 4.0434c0 1.5313 0.5515 2.8472 1.654 3.9497s2.4185 1.654 3.9498 1.654c1.5925 0 2.9408-0.55151 4.0434-1.654 1.1025-1.1025 1.654-2.4185 1.654-3.9497 0-1.5925-0.5515-2.9409-1.654-4.0434-1.1025-1.1025-2.4508-1.654-4.0434-1.654zm-153.71 1.5624c-1.96 0-3.3064 0.39744-4.0414 1.1937-0.67376 0.79624-1.0104 1.808-1.0104 3.033v58.341c0.49001 0.1225 1.1936 0.21377 2.1124 0.27502 0.98002 0.1225 1.929 0.18334 2.8477 0.18334 1.96 0 3.2779-0.39744 3.9517-1.1937 0.73501-0.79625 1.102-1.806 1.102-3.0311v-58.341c-0.49-0.12249-1.224-0.21572-2.204-0.27696-0.91876-0.12251-1.8392-0.18335-2.758-0.18335zm34.178 17.274c-3.675 0-7.0125 0.30618-10.014 0.91868-3.0013 0.55125-5.5135 1.1636-7.5347 1.8374-0.0613 0.30625-0.0917 0.61243-0.0917 0.91868v0.82701c0 1.5925 0.30618 2.9389 0.91868 4.0414 0.61251 1.1025 1.5614 1.654 2.8477 1.654 0.73501 0 1.5014-0.0913 2.2977-0.27502 0.8575-0.24501 1.8064-0.49033 2.8477-0.73533 1.1025-0.30626 2.3272-0.55159 3.6747-0.73534 1.3475-0.245 2.9108-0.36669 4.687-0.36669 3.4913 0 5.9103 0.64277 7.2578 1.929 1.3475 1.225 2.0207 3.3378 2.0207 6.3391v2.2977c-4.0425-0.735-7.6558-1.104-10.841-1.104-3.3688 0-6.2784 0.36898-8.7284 1.104-2.3888 0.73501-4.3799 1.7752-5.9724 3.1227-1.5925 1.2863-2.7868 2.8495-3.583 4.687-0.73501 1.8375-1.102 3.8571-1.102 6.0621 0 1.8375 0.30617 3.5833 0.91867 5.2371 0.67376 1.5925 1.6227 3.0017 2.8477 4.2267 1.2863 1.225 2.8495 2.2044 4.687 2.9394 1.8988 0.67375 4.042 1.0123 6.4308 1.0123 2.0825 0 3.9196-0.24533 5.5121-0.73534 1.6538-0.42875 3.1238-1.0411 4.4101-1.8374 1.2863-0.79627 2.3893-1.7148 3.308-2.756 0.98-1.1025 1.8377-2.2359 2.5727-3.3997h0.0917c0.0612 1.1638 0.15251 2.2648 0.27501 3.3061 0.18376 1.0413 0.48992 1.9617 0.91868 2.758 0.42875 0.73501 1.0107 1.3474 1.7457 1.8374 0.79626 0.42876 1.808 0.64171 3.033 0.64171 1.1025 0 2.0515-0.0913 2.8477-0.27502 0.8575-0.18375 1.5611-0.39866 2.1124-0.64366-0.42875-1.47-0.76535-2.8164-1.0104-4.0414-0.245-1.2863-0.45991-2.5738-0.64366-3.86-0.1225-1.2863-0.21377-2.6631-0.27502-4.1331v-14.609c0-2.94-0.30617-5.5131-0.91868-7.7181-0.55125-2.2663-1.561-4.1642-3.0311-5.6954-1.4088-1.5925-3.3086-2.7868-5.6974-3.583-2.3275-0.79626-5.2676-1.1937-8.8201-1.1937zm44.376 0.18334c-3.2463 0-6.0018 0.36702-8.2681 1.102-2.2663 0.67376-4.1337 1.5923-5.6038 2.756-1.4088 1.1638-2.4509 2.5121-3.1247 4.0434-0.67376 1.5313-1.0104 3.123-1.0104 4.7768 0 3.0625 0.97937 5.6356 2.9394 7.7181 1.96 2.0213 5.4212 3.7366 10.382 5.1454l6.5224 1.8374c2.6338 0.73501 4.4728 1.469 5.514 2.2041 1.0413 0.67376 1.5604 1.6855 1.5604 3.033 0 0.67376-0.12169 1.3165-0.36669 1.929-0.18375 0.55126-0.58119 1.0723-1.1937 1.5623-0.61251 0.42876-1.5006 0.79578-2.6644 1.102-1.1025 0.245-2.5725 0.3667-4.4101 0.3667-1.6538 0-3.217-0.1217-4.687-0.3667-1.47-0.24501-2.8164-0.52075-4.0414-0.82702-1.1638-0.3675-2.2668-0.67366-3.308-0.91867-0.98001-0.24501-1.8377-0.3667-2.5727-0.36668-1.225 0-2.174 0.48869-2.8477 1.4687-0.67375 0.98001-1.0103 2.2675-1.0103 3.86v1.0104l0.18334 0.91868c2.94 1.0413 5.9714 1.8685 9.0951 2.481 3.185 0.55126 6.2487 0.827 9.1888 0.827 3.675 0 6.7064-0.39939 9.0951-1.1956 2.45-0.79627 4.3784-1.806 5.7871-3.0311 1.4088-1.2863 2.3901-2.7259 2.9413-4.3184 0.6125-1.6538 0.91868-3.3083 0.91868-4.962 0-3.185-1.0422-5.8189-3.1247-7.9014-2.0213-2.0825-5.5433-3.8283-10.566-5.2371l-6.8891-1.929c-1.4088-0.36751-2.5422-0.7041-3.3997-1.0104-0.79625-0.3675-1.439-0.73452-1.929-1.102-0.42875-0.3675-0.73687-0.7669-0.92063-1.1957-0.1225-0.42875-0.18335-0.91746-0.18335-1.4687 0-1.2863 0.58194-2.298 1.7457-3.033 1.225-0.73501 3.3074-1.102 6.2474-1.102 3.185 0 5.7885 0.33662 7.8098 1.0104 2.0825 0.61251 3.7979 0.91868 5.1454 0.91868 1.3475 0 2.3269-0.48871 2.9394-1.4687 0.67375-1.0413 1.0104-2.4504 1.0104-4.2267 0-0.245-0.0304-0.45991-0.0917-0.64366v-0.82701c-5.8801-1.96-11.484-2.9394-16.813-2.9394zm42.907 0c-3.2463 0-6.0018 0.36702-8.2681 1.102-2.2663 0.67376-4.1357 1.5923-5.6057 2.756-1.4088 1.1638-2.449 2.5121-3.1227 4.0434-0.67375 1.5313-1.0104 3.123-1.0104 4.7768 0 3.0625 0.97937 5.6356 2.9394 7.7181 1.96 2.0213 5.4212 3.7366 10.382 5.1454l6.5224 1.8374c2.6338 0.73501 4.4708 1.469 5.5121 2.2041 1.0413 0.67376 1.5623 1.6855 1.5623 3.033 0 0.67376-0.12168 1.3165-0.36669 1.929-0.18376 0.55126-0.58315 1.0723-1.1956 1.5623-0.61251 0.42876-1.5006 0.79578-2.6644 1.102-1.1025 0.245-2.5725 0.3667-4.4101 0.3667-1.6538 0-3.2151-0.1217-4.6851-0.3667-1.47-0.24501-2.8184-0.52075-4.0434-0.82702-1.1638-0.3675-2.2648-0.67366-3.3061-0.91867-0.98001-0.24501-1.8377-0.3667-2.5727-0.36668-1.225 0-2.1759 0.48869-2.8497 1.4687-0.67375 0.98001-1.0103 2.2675-1.0103 3.86v1.0104l0.18529 0.91868c2.94 1.0413 5.9714 1.8685 9.0951 2.481 3.185 0.55126 6.2468 0.827 9.1868 0.827 3.675 0 6.7083-0.39939 9.0971-1.1956 2.45-0.79627 4.3783-1.806 5.7871-3.0311 1.4088-1.2863 2.3881-2.7259 2.9394-4.3184 0.6125-1.6538 0.91868-3.3083 0.91868-4.962 0-3.185-1.0402-5.8189-3.1227-7.9014-2.0213-2.0825-5.5433-3.8283-10.566-5.2371l-6.8911-1.929c-1.4088-0.36751-2.5422-0.7041-3.3997-1.0104-0.79625-0.3675-1.439-0.73452-1.929-1.102-0.42875-0.3675-0.73493-0.7669-0.91868-1.1957-0.1225-0.42875-0.18334-0.91746-0.18334-1.4687 0-1.2863 0.58192-2.298 1.7457-3.033 1.225-0.73501 3.3074-1.102 6.2474-1.102 3.185 0 5.7885 0.33662 7.8098 1.0104 2.0825 0.61251 3.7979 0.91868 5.1454 0.91868s2.3269-0.48871 2.9394-1.4687c0.67376-1.0413 1.0104-2.4504 1.0104-4.2267 0-0.245-0.0304-0.45991-0.0917-0.64366v-0.82701c-5.8801-1.96-11.484-2.9394-16.813-2.9394zm105.47 0c-3.2463 0-6.0019 0.36702-8.2681 1.102-2.2663 0.67376-4.1338 1.5923-5.6038 2.756-1.4088 1.1638-2.4509 2.5121-3.1247 4.0434-0.67376 1.5313-1.0104 3.123-1.0104 4.7768 0 3.0625 0.97937 5.6356 2.9394 7.7181 1.96 2.0213 5.4212 3.7366 10.382 5.1454l6.5224 1.8374c2.6338 0.73501 4.4728 1.469 5.514 2.2041 1.0413 0.67376 1.5604 1.6855 1.5604 3.033 0 0.67376-0.1217 1.3165-0.3667 1.929-0.18375 0.55126-0.58119 1.0723-1.1937 1.5623-0.61251 0.42876-1.5006 0.79578-2.6644 1.102-1.1025 0.245-2.5725 0.3667-4.4101 0.3667-1.6538 0-3.217-0.1217-4.687-0.3667-1.47-0.24501-2.8164-0.52075-4.0414-0.82702-1.1638-0.3675-2.2668-0.67366-3.308-0.91867-0.98001-0.24501-1.8377-0.3667-2.5727-0.36668-1.225 0-2.174 0.48869-2.8477 1.4687-0.67375 0.98001-1.0104 2.2675-1.0104 3.86v1.0104l0.18335 0.91868c2.94 1.0413 5.9714 1.8685 9.0951 2.481 3.185 0.55126 6.2487 0.827 9.1888 0.827 3.675 0 6.7064-0.39939 9.0951-1.1956 2.45-0.79627 4.3784-1.806 5.7871-3.0311 1.4088-1.2863 2.3901-2.7259 2.9413-4.3184 0.61251-1.6538 0.91868-3.3083 0.91868-4.962 0-3.185-1.0422-5.8189-3.1247-7.9014-2.0213-2.0825-5.5432-3.8283-10.566-5.2371l-6.8891-1.929c-1.4088-0.36751-2.5422-0.7041-3.3997-1.0104-0.79626-0.3675-1.441-0.73452-1.931-1.102-0.42877-0.3675-0.73494-0.7669-0.91869-1.1957-0.1225-0.42875-0.18335-0.91746-0.18335-1.4687 0-1.2863 0.58193-2.298 1.7457-3.033 1.225-0.73501 3.3074-1.102 6.2474-1.102 3.185 0 5.7885 0.33662 7.8098 1.0104 2.0825 0.61251 3.7979 0.91868 5.1454 0.91868 1.3475 0 2.3269-0.48871 2.9394-1.4687 0.67376-1.0413 1.0104-2.4504 1.0104-4.2267 0-0.245-0.0304-0.45991-0.0917-0.64366v-0.82701c-5.88-1.96-11.484-2.9394-16.813-2.9394zm-254.22 0.0917c-3.3688 0-6.4325 0.61235-9.1888 1.8374-2.7563 1.1638-5.1144 2.7879-7.0744 4.8704-1.96 2.0825-3.4909 4.5015-4.5934 7.2578-1.0412 2.7563-1.5623 5.7268-1.5623 8.9118 0 3.185 0.52109 6.1555 1.5623 8.9118 1.1025 2.7563 2.6334 5.1753 4.5934 7.2578 1.96 2.0213 4.3182 3.6454 7.0744 4.8704 2.7563 1.1638 5.82 1.7457 9.1888 1.7457 3.185 0 5.971-0.30618 8.3598-0.91868 2.45-0.67376 4.7473-1.5942 6.8911-2.758 0.0613-0.36751 0.0917-0.73453 0.0917-1.102 0.0612-0.36751 0.0917-0.7041 0.0917-1.0104 0-1.715-0.36702-3.0006-1.102-3.8581-0.73501-0.8575-1.7163-1.2873-2.9413-1.2873-0.55126 0-1.1636 0.12364-1.8374 0.36864-0.67375 0.24501-1.4382 0.52076-2.2957 0.82702-0.79627 0.30624-1.7148 0.582-2.756 0.827-1.0413 0.24501-2.2051 0.36669-3.4914 0.36669-1.8375 0-3.5529-0.30617-5.1454-0.91868-1.5925-0.67376-3.0017-1.5923-4.2267-2.756-1.1638-1.225-2.0823-2.7255-2.756-4.5017-0.67375-1.7763-1.0103-3.7978-1.0103-6.0641 0-2.2663 0.33659-4.2878 1.0103-6.0641 0.67376-1.7763 1.5923-3.2767 2.756-4.5017s2.5121-2.1435 4.0434-2.756 3.1838-0.91868 4.9601-0.91868c1.3475 0 2.5114 0.12168 3.4914 0.36669 1.0413 0.245 1.9294 0.52075 2.6644 0.82701 0.79626 0.245 1.5018 0.49033 2.1143 0.73533 0.67375 0.18375 1.2861 0.27502 1.8374 0.27502 1.1638 0 2.1127-0.48871 2.8477-1.4687 0.735-1.0413 1.102-2.42 1.102-4.1351v-0.73534c0-0.30624-0.0304-0.61241-0.0917-0.91867-1.8375-1.0413-3.9199-1.8989-6.2474-2.5727-2.2663-0.67376-5.0523-1.0104-8.3598-1.0104zm216.27 0c-3.3688 0-6.4305 0.61235-9.1868 1.8374-2.7563 1.1638-5.1144 2.7879-7.0744 4.8704-1.96 2.0825-3.4909 4.5015-4.5934 7.2578-1.0413 2.7563-1.5623 5.7268-1.5623 8.9118 0 3.185 0.52108 6.1555 1.5623 8.9118 1.1025 2.7563 2.6334 5.1753 4.5934 7.2578 1.96 2.0213 4.3182 3.6454 7.0744 4.8704 2.7563 1.1638 5.818 1.7457 9.1868 1.7457 3.185 0 5.973-0.30618 8.3618-0.91868 2.45-0.67376 4.7473-1.5942 6.8911-2.758 0.0613-0.36751 0.0917-0.73453 0.0917-1.102 0.0612-0.36751 0.0917-0.7041 0.0917-1.0104 0-1.715-0.36702-3.0006-1.102-3.8581-0.73501-0.8575-1.7163-1.2873-2.9413-1.2873-0.55126 0-1.1636 0.12364-1.8374 0.36864-0.67375 0.24501-1.4382 0.52076-2.2957 0.82702-0.79627 0.30624-1.7167 0.582-2.758 0.827-1.0413 0.24501-2.2051 0.36669-3.4914 0.36669-1.8375 0-3.5509-0.30617-5.1434-0.91868-1.5925-0.67376-3.0017-1.5923-4.2267-2.756-1.1638-1.225-2.0823-2.7255-2.756-4.5017-0.67375-1.7763-1.0103-3.7978-1.0103-6.0641 0-2.2663 0.33659-4.2878 1.0103-6.0641 0.67376-1.7763 1.5923-3.2767 2.756-4.5017s2.5102-2.1435 4.0414-2.756c1.5313-0.6125 3.1858-0.91868 4.9621-0.91868 1.3475 0 2.5114 0.12168 3.4914 0.36669 1.0413 0.245 1.9294 0.52075 2.6644 0.82701 0.79625 0.245 1.4999 0.49033 2.1124 0.73533 0.67376 0.18375 1.2861 0.27502 1.8374 0.27502 1.1638 0 2.1147-0.48871 2.8497-1.4687 0.735-1.0413 1.102-2.42 1.102-4.1351v-0.73534c0-0.30624-0.0304-0.61241-0.0917-0.91867-1.8375-1.0413-3.9199-1.8989-6.2474-2.5727-2.2663-0.67376-5.0542-1.0104-8.3618-1.0104zm-35.28 0.18334c-1.8988 0-3.2147 0.39744-3.9498 1.1937-0.735 0.79625-1.102 1.808-1.102 3.033v40.609c0.49001 0.1225 1.1936 0.21377 2.1124 0.27502 0.91876 0.12251 1.8373 0.18334 2.756 0.18334 1.96 0 3.3084-0.39744 4.0434-1.1937 0.73501-0.79625 1.102-1.806 1.102-3.0311v-40.609c-0.49-0.1225-1.1936-0.21572-2.1124-0.27697-0.91876-0.1225-1.8697-0.18335-2.8497-0.18335zm-118.89 23.704c2.45 0 5.236 0.27575 8.3598 0.82701v3.8581c-1.225 2.5725-2.9404 4.7177-5.1454 6.4327-2.1438 1.715-4.6844 2.5707-7.6245 2.5707-2.2663 0-4.1033-0.51912-5.5121-1.5604-1.4088-1.0412-2.1143-2.5417-2.1143-4.5017 0-2.45 0.98133-4.3194 2.9413-5.6057 2.0213-1.3475 5.0526-2.0207 9.0951-2.0207z" fill="#000"/>
	</g>
	<defs>
		<linearGradient id="A" x1="414.37" x2="1244.6" y1="289.84" y2="289.84" gradientTransform="matrix(.65067 0 0 .65067 -9.8251 -107.3)" gradientUnits="userSpaceOnUse">
			<stop stop-color="#ff0031" offset="0"/>
			<stop stop-color="#9b001f" offset="1"/>
		</linearGradient>
		<linearGradient id="B" x1="197.48" x2="194.59" y1="295.14" y2="212.24" gradientTransform="matrix(.65067 0 0 .65067 -9.8251 -107.3)" gradientUnits="userSpaceOnUse">
			<stop stop-color="#fff" offset="0"/>
			<stop stop-color="#fff" stop-opacity=".25" offset=".515"/>
		</linearGradient>
		<linearGradient id="C" x1="830.55" x2="826.25" y1="276.73" y2="153.47" gradientTransform="matrix(.65067 0 0 .65067 -9.8251 -107.3)" gradientUnits="userSpaceOnUse">
			<stop stop-color="#fff" offset="0"/>
			<stop stop-color="#fff" stop-opacity=".25" offset=".515"/>
		</linearGradient>
	</defs>
</svg>
