<svg xmlns="http://www.w3.org/2000/svg" viewBox="0 0 801.08 262.5" ><g transform="translate(26.208 .743)"><g transform="matrix(.65155 0 0 .65155 -36.045995 -108.183683)"><path d="M126.7 314.7c0 21.5-14 37.1-42.6 40.2-20.6 2.2-50.5-.4-64.7-2-.5-2.3-.9-5.2-.9-7.5 0-18.7 10.1-23 19.6-23 9.9 0 25.5 1.7 37 1.7 12.8 0 16.6-4.3 16.6-8.4 0-5.4-5.1-7.6-15-9.5L49.6 301c-22.5-4.3-34.5-19.8-34.5-36.3 0-20 14.2-36.8 42.2-39.9 21.1-2.3 46.9.3 61 2 .5 2.4.8 4.7.8 7.2 0 18.7-9.9 22.7-19.4 22.7-7.3 0-18.6-1.3-31.6-1.3-13.2 0-18.6 3.6-18.6 8 0 4.7 5.2 6.6 13.4 8.1l25.8 4.8c26.6 4.9 38 19.9 38 38.4m46.3 23c0 11.5-4.5 18.1-27 18.1-3 0-5.6-.2-8.1-.6V202.9c0-11.6 3.9-23.7 26.6-23.7 2.9 0 5.8.3 8.5.9zm91.9 59c3 1.5 9 3.4 16.6 3.5 13.1.3 20.2-4.7 25.5-16.4l70-155.7c-2.9-1.5-9.3-3.3-14.5-3.4-9-.2-21.1 1.6-28.8 20L310.9 298l-44.5-72.3c-2.9-.9-9.9-2.1-15-2.1-15.8 0-24.5 5.8-33.6 15.6l-43.2 47.2 34.8 54.7c6.4 10 14.9 15.1 28.6 15.1 9 0 16.5-2.1 20-3.7l-41.9-63 29.7-31.5 48.7 76.3z" fill="#ff0031"/><linearGradient id="A" x1="414.37" x2="1244.631" y1="289.839" y2="289.839" gradientUnits="userSpaceOnUse"><stop stop-color="#ff0031" offset="0"/><stop stop-color="#9b001f" offset="1"/></linearGradient><path d="M1228 164.9H430.9c-9.2 0-16.7 7.5-16.7 16.7v216.5c0 9.2 7.5 16.7 16.7 16.7h797c9.2 0 16.7-7.5 16.7-16.7V181.5c-.1-9.2-7.4-16.6-16.6-16.6" fill="url(#A)"/><linearGradient id="B" x1="197.483" x2="194.588" y1="295.135" y2="212.243" gradientUnits="userSpaceOnUse"><stop stop-color="#fff" offset="0"/><stop stop-color="#fff" stop-opacity=".25" offset=".515"/></linearGradient><path d="M138 202.9v104.5c0-4.2 3.2-8.6 8.6-8.8l17.6-.6c3.5-.1 8.8-2.5 8.9-8.9v-109c-2.7-.6-5.6-.9-8.5-.9-22.7.1-26.6 12.1-26.6 23.7m80 36.4l-43.2 47.2 3.5 5.4c1.5 2 4.4 5.4 10.2 5.2l24.6-.9c5.4-.2 8.8 2.1 10.9 4.9l-7.7-11.6L246 258l19.9 31.3c3.6 4.7 9 4.8 10.2 4.8 1 0 27.2-.9 28.3-1 1.8-.1 3.9.9 5.5 3.2l-43.3-70.4c-2.9-.9-9.9-2.1-15-2.1-15.8-.1-24.5 5.6-33.6 15.5M57.3 224.8c-28 3.1-42.2 19.8-42.2 39.9 0 10.3 4.7 20.2 13.7 27.3 6.8 4.5 13.8 6.2 20.7 7.4 5.7 1 19 1.9 28.9 1.5l30.8-1.1c11.6-.4 17.8 9.5 17.2 19.4v-.5c.1-1.3.2-2.6.2-3.9 0-18.5-11.4-33.6-37.9-38.5l-25.8-4.8c-8.3-1.4-13.4-3.4-13.4-8.1 0-4.4 5.5-8.1 18.6-8.1 13 0 24.3 1.3 31.6 1.3 9.5 0 19.4-4 19.4-22.7 0-2.5-.3-4.8-.8-7.2-10.1-1.2-26.3-2.9-42.4-2.9-6.3.1-12.6.4-18.6 1m276.2 19.9l-22.1 52.1c0-.1 1.4-4.1 5.7-4.3l23.4-.8c7.1-.3 9.9-5.1 10.7-6.7l25.6-57.1c-2.9-1.5-9.3-3.3-14.5-3.4h-1.1c-8.9.1-20.3 2.5-27.7 20.2" fill="url(#B)" opacity=".3" enable-background="new"/><linearGradient id="C" x1="830.555" x2="826.25" y1="276.73" y2="153.473" gradientUnits="userSpaceOnUse"><stop stop-color="#fff" offset="0"/><stop stop-color="#fff" stop-opacity=".25" offset=".515"/></linearGradient><path d="M430.9 164.9c-9.2 0-16.7 7.5-16.7 16.7v120.2c0-1.8.7-11.7 12-12.8 0 0 .6-.1 1.6-.1l804.4-28.2c6.3-.2 12.4-4.9 12.4-12.7v-66.3c0-9.2-7.5-16.7-16.7-16.7z" fill="url(#C)" opacity=".3" enable-background="new"/><g fill="#fff"><path d="M1190.1 275.3v74.5c-2 .5-5.4 1-8.8 1-7 0-10.1-2.5-10.1-7.4v-9.8c-11.1 11.7-24.3 18.6-41.8 18.6-26.3 0-40.8-16.8-40.8-35.6 0-28.4 30.7-40.8 82.6-37.4V276c0-18.1-5.9-28.9-28.9-28.9-11.9 0-22.2 2.6-29.2 4.9-3.6 1-6.4 1.9-8.3 1.9-5.4 0-8.5-4.9-7.3-15.2 11.7-4.4 29.2-8.3 45.6-8.3 34.3.1 47 17.2 47 44.9m-19.1 40.8v-22.5c-33.8-1.5-63 1.8-63 22.7 0 10.3 8.8 19.9 24.5 19.9 16 0 29.5-8.1 38.5-20.1m-709.6-25c0-34.8 25.8-60.7 59.6-60.7 16.2 0 30.7 4.4 40.8 9.6 1 10.6-2.9 15-7.8 15-6.9 0-14.5-7.5-32.3-7.5-22.5 0-40.8 16.8-40.8 43.9s18.3 44.4 40.8 44.4c17.8 0 25.5-7.5 32.3-7.5 4.9 0 8.8 4.4 7.8 15-10.3 4.9-24.8 9.3-40.8 9.3-33.8-.5-59.6-26.7-59.6-61.5m413.8 7.8h-91.1c2.9 22.7 18.9 35.8 42.4 35.8 10.1 0 17.8-2.3 25.3-4.6 4.9-1.8 7.5-2.8 9.6-2.8 4.9 0 8.5 4.6 7.3 15.2-10.3 4.6-26.1 9.6-42.9 9.6-36.4 0-61.5-24.8-61.5-61.2 0-35.1 26.1-60.6 58.3-60.6 35.9 0 53.7 28.7 53.7 56.6-.1 3.7-.4 7.6-1.1 12m-91-15.7h73.3c-.8-20.1-13.7-35.9-34.8-35.9-18.8-.2-35.4 12.4-38.5 35.9m-201.8-77.6c0-7.2 5.7-12.4 12.4-12.4 6.9 0 12.2 5.4 12.2 12.4 0 6.4-5.4 12.2-12.2 12.2s-12.4-5.9-12.4-12.2m2.7 144.1V239.3c0-4.4 2.4-7.3 10.3-7.3 3.1 0 6.9.8 8.8 1.3v110.2c0 4.6-2.6 7.3-10.3 7.3-3.2-.1-6.9-.6-8.8-1.1"/><path d="M1064.5 272.9v70.5c0 4.6-2.6 7.3-10.3 7.3-3.1 0-6.9-.5-8.8-1V275c0-17.3-8.3-27.6-23.8-27.6-13.2 0-24.5 9.6-28.9 19.1v76.9c0 4.6-2.4 7.3-10.1 7.3-3.4 0-7-.5-9-1V275c0-17.3-8-27.6-23.8-27.6-13.2 0-24.5 9.6-28.9 19.1v76.9c0 4.6-2.4 7.3-10.1 7.3-3.4 0-7.2-.5-8.8-1V233.2c2-.5 5.7-1.3 8.8-1.3 7.3 0 9.8 2.9 9.8 7.8v8.3c7.5-10.1 19.4-17.6 33.8-17.6 15.5 0 27.6 8 33.8 21.2 8-11.7 20.4-21.2 37.7-21.2 25.2.1 38.6 19.2 38.6 42.5m-325.3 7.5v63c0 4.6-2.4 7.3-10.1 7.3-3.1 0-6.9-.5-8.8-1V283c0-24-11.9-35.4-29.4-35.4-13.9 0-28.9 9.8-35.1 21.1v74.9c0 4.6-2.5 7.3-10.1 7.3-3.4 0-7-.5-8.8-1V233.2c1.8-.5 5.4-1.3 8.8-1.3 7.5 0 10.1 2.9 10.1 7.3v10.1c8.5-10.3 21.5-18.9 39.2-18.9 24.1.1 44.2 15.4 44.2 50"/></g></g><path d="M260.114 243.633q-4.416 0-9.2-.828-4.692-.92-9.108-2.484-.092-.46-.184-.92 0-.552 0-1.012 0-2.392 1.012-3.864 1.012-1.472 2.852-1.472 1.104 0 2.576.368 1.564.368 3.312.92 1.84.46 4.048.828 2.208.368 4.692.368 2.76 0 4.416-.368 1.748-.46 2.668-1.104.92-.736 1.196-1.564.368-.92.368-1.932 0-2.024-1.564-3.036-1.564-1.104-5.52-2.208l-6.532-1.84q-7.452-2.116-10.396-5.152-2.944-3.128-2.944-7.728 0-2.484 1.012-4.784 1.012-2.3 3.128-4.048 2.208-1.748 5.612-2.76 3.404-1.104 8.28-1.104 8.004 0 16.836 2.944 0 .46 0 .828.092.276.092.644 0 2.668-1.012 4.232-.92 1.472-2.944 1.472-2.024 0-5.152-.92-3.036-1.012-7.82-1.012-4.416 0-6.256 1.104-1.748 1.104-1.748 3.036 0 .828.184 1.472.276.644.92 1.196.736.552 1.932 1.104 1.288.46 3.404 1.012l6.9 1.932q7.544 2.116 10.58 5.244 3.128 3.128 3.128 7.912 0 2.484-.92 4.968-.828 2.392-2.944 4.324-2.116 1.84-5.796 3.036-3.588 1.196-9.108 1.196zm31.924 17.112q-1.38 0-2.852-.184-1.38-.092-2.116-.276v-61.364q1.012-.276 2.024-.46 1.104-.276 2.392-.276 2.944 0 4.048 1.564 1.104 1.472 1.288 4.048l.092 1.748q2.392-3.404 5.888-5.52 3.588-2.208 8.924-2.208 3.68 0 7.176 1.564 3.588 1.472 6.348 4.416 2.76 2.852 4.416 7.176 1.748 4.232 1.748 9.752 0 5.98-1.84 10.304-1.84 4.324-4.784 7.176-2.852 2.852-6.532 4.232-3.588 1.38-7.084 1.38-4.968 0-8.464-1.932-3.496-2.024-5.612-4.508v19.136q0 1.84-1.104 3.036-1.012 1.196-3.956 1.196zm16.284-25.208q2.852 0 5.244-1.012 2.392-1.104 4.048-3.036 1.656-1.932 2.576-4.6.92-2.668.92-5.888 0-2.852-.828-5.428-.736-2.668-2.392-4.692-1.564-2.116-3.956-3.312-2.392-1.288-5.612-1.288-3.312 0-6.44 1.656-3.036 1.564-4.784 4.784v16.56q1.472 2.668 4.416 4.508 2.944 1.748 6.808 1.748zm51.796 8.464q-5.612 0-10.028-1.748-4.416-1.748-7.452-4.876-3.036-3.128-4.692-7.36-1.564-4.324-1.564-9.292 0-4.968 1.656-9.108 1.656-4.232 4.508-7.268 2.944-3.128 6.9-4.876 3.956-1.748 8.556-1.748 5.152 0 9.108 1.932 3.956 1.84 6.532 4.968 2.668 3.128 3.956 7.084 1.38 3.956 1.38 8.096 0 2.3-.46 4.6h-31.924q.644 5.336 4.14 8.188 3.588 2.76 9.384 2.76 2.484 0 4.324-.368 1.84-.368 3.312-.828 1.472-.552 2.668-.92 1.196-.368 2.392-.368 1.656 0 2.668 1.472 1.104 1.472 1.104 3.956 0 .46-.092 1.012 0 .552-.092 1.104-2.76 1.288-6.9 2.484-4.14 1.104-9.384 1.104zm9.476-26.772q-.46-4.968-3.404-8.28-2.852-3.404-8.188-3.404-5.06 0-8.096 3.22-2.944 3.22-3.404 8.464zm36.984 26.496q-5.06 0-9.2-1.748-4.14-1.84-7.084-4.876-2.944-3.128-4.6-7.268-1.564-4.14-1.564-8.924 0-4.784 1.564-8.924 1.656-4.14 4.6-7.268 2.944-3.128 7.084-4.876 4.14-1.84 9.2-1.84 4.968 0 8.372 1.012 3.496 1.012 6.256 2.576.092.46.092.92 0 .368 0 .736 0 2.576-1.104 4.14-1.104 1.472-2.852 1.472-.828 0-1.84-.276-.92-.368-2.116-.736-1.104-.46-2.668-.828-1.472-.368-3.496-.368-2.668 0-4.968.92-2.3.92-4.048 2.76-1.748 1.84-2.76 4.508-1.012 2.668-1.012 6.072 0 3.404 1.012 6.072 1.012 2.668 2.76 4.508 1.84 1.748 4.232 2.76 2.392.92 5.152.92 1.932 0 3.496-.368 1.564-.368 2.76-.828 1.288-.46 2.3-.828 1.012-.368 1.84-.368 1.84 0 2.944 1.288 1.104 1.288 1.104 3.864 0 .46-.092 1.012 0 .552-.092 1.104-3.22 1.748-6.9 2.76-3.588.92-8.372.92zm27.14-.184q-1.38 0-2.76-.184-1.38-.092-2.116-.276v-40.664q0-1.84 1.104-3.036 1.104-1.196 3.956-1.196 1.472 0 2.852.184 1.38.092 2.116.276v40.664q0 1.84-1.104 3.036-1.104 1.196-4.048 1.196zm.184-53.36q-2.3 0-3.956-1.656-1.656-1.656-1.656-3.956 0-2.392 1.656-4.048 1.656-1.656 3.956-1.656 2.392 0 4.048 1.656 1.656 1.656 1.656 4.048 0 2.3-1.656 3.956-1.656 1.656-4.048 1.656zm27.968 53.544q-3.588 0-6.44-1.012-2.76-1.104-4.692-2.944-1.84-1.84-2.852-4.232-.92-2.484-.92-5.244 0-3.312 1.104-6.072 1.196-2.76 3.588-4.692 2.392-2.024 5.98-3.128 3.68-1.104 8.74-1.104 4.784 0 10.856 1.104v-2.3q0-4.508-2.024-6.348-2.024-1.932-7.268-1.932-2.668 0-4.692.368-2.024.276-3.68.736-1.564.368-2.852.736-1.196.276-2.3.276-1.932 0-2.852-1.656-.92-1.656-.92-4.048 0-.46 0-.828 0-.46.092-.92 3.036-1.012 7.544-1.84 4.508-.92 10.028-.92 5.336 0 8.832 1.196 3.588 1.196 5.704 3.588 2.208 2.3 3.036 5.704.92 3.312.92 7.728v9.66q0 2.76 0 4.968.092 2.208.276 4.14.276 1.932.644 3.864.368 1.84 1.012 4.048-.828.368-2.116.644-1.196.276-2.852.276-1.84 0-3.036-.644-1.104-.736-1.748-1.84-.644-1.196-.92-2.76-.184-1.564-.276-3.312h-.092q-1.104 1.748-2.576 3.404-1.38 1.564-3.312 2.76-1.932 1.196-4.416 1.84-2.392.736-5.52.736zm2.668-8.096q4.416 0 7.636-2.576 3.312-2.576 5.152-6.44v-3.864q-4.692-.828-8.372-.828-6.072 0-9.108 2.024-2.944 1.932-2.944 5.612 0 2.944 2.116 4.508 2.116 1.564 5.52 1.564zm37.444 7.912q-1.38 0-2.852-.184-1.38-.092-2.116-.276v-58.42q0-1.84 1.012-3.036 1.104-1.196 4.048-1.196 1.38 0 2.76.184 1.472.092 2.208.276v58.42q0 1.84-1.104 3.036-1.012 1.196-3.956 1.196z"/></g></svg>