<svg xmlns="http://www.w3.org/2000/svg" viewBox="0 0 1011.8 262.5" ><path d="M1003.9 0c4.377 0 7.905 3.563 7.905 7.905v147.01a7.94 7.94 0 0 1-7.905 7.905H797.65c-4.377 0-7.905-3.562-7.905-7.905V7.935c0-4.377 3.563-7.905 7.905-7.905h206.25" fill="#fff"/><path d="M903.77 48.789v62.666c0 2.748-1.391 4.275-5.666 4.275-1.934 0-3.732-.271-5.123-.543V86.348h-35.76v25.141c0 2.748-1.391 4.275-5.666 4.275-2.07 0-4.139-.271-5.123-.543v-62.7c0-2.646 1.391-4.275 5.802-4.275 1.934 0 3.834.271 4.953.543v27.889h35.591V52.521c0-2.646 1.527-4.275 5.938-4.275 2.036 0 3.936.271 5.055.543m73.359 33.114c0 18.796-13.13 33.012-33.691 33.012h-19.17c-4.139 0-5.666-1.662-5.666-4.275V53.335c0-2.612 1.527-4.275 5.666-4.275h19.17c20.561 0 33.691 14.08 33.691 32.843m-10.925 0c0-14.08-8.821-23.207-22.766-23.207h-14.08v46.516h14.08c13.945.034 22.766-9.093 22.766-23.309" fill="#9c001f"/><g transform="matrix(.65155 0 0 .65155 -9.837995 -107.440593)"><path d="M126.7 314.7c0 21.5-14 37.1-42.6 40.2-20.6 2.2-50.5-.4-64.7-2-.5-2.3-.9-5.2-.9-7.5 0-18.7 10.1-23 19.6-23 9.9 0 25.5 1.7 37 1.7 12.8 0 16.6-4.3 16.6-8.4 0-5.4-5.1-7.6-15-9.5L49.6 301c-22.5-4.3-34.5-19.8-34.5-36.3 0-20 14.2-36.8 42.2-39.9 21.1-2.3 46.9.3 61 2 .5 2.4.8 4.7.8 7.2 0 18.7-9.9 22.7-19.4 22.7-7.3 0-18.6-1.3-31.6-1.3-13.2 0-18.6 3.6-18.6 8 0 4.7 5.2 6.6 13.4 8.1l25.8 4.8c26.6 4.9 38 19.9 38 38.4m46.3 23c0 11.5-4.5 18.1-27 18.1-3 0-5.6-.2-8.1-.6V202.9c0-11.6 3.9-23.7 26.6-23.7 2.9 0 5.8.3 8.5.9zm91.9 59c3 1.5 9 3.4 16.6 3.5 13.1.3 20.2-4.7 25.5-16.4l70-155.7c-2.9-1.5-9.3-3.3-14.5-3.4-9-.2-21.1 1.6-28.8 20L310.9 298l-44.5-72.3c-2.9-.9-9.9-2.1-15-2.1-15.8 0-24.5 5.8-33.6 15.6l-43.2 47.2 34.8 54.7c6.4 10 14.9 15.1 28.6 15.1 9 0 16.5-2.1 20-3.7l-41.9-63 29.7-31.5 48.7 76.3z" fill="#ff0031"/><linearGradient id="A" x1="414.37" x2="1244.631" y1="289.839" y2="289.839" gradientUnits="userSpaceOnUse"><stop stop-color="#ff0031" offset="0"/><stop stop-color="#9b001f" offset="1"/></linearGradient><path d="M1228 164.9H430.9c-9.2 0-16.7 7.5-16.7 16.7v216.5c0 9.2 7.5 16.7 16.7 16.7h797c9.2 0 16.7-7.5 16.7-16.7V181.5c-.1-9.2-7.4-16.6-16.6-16.6" fill="url(#A)"/><linearGradient id="B" x1="197.483" x2="194.588" y1="295.135" y2="212.243" gradientUnits="userSpaceOnUse"><stop stop-color="#fff" offset="0"/><stop stop-color="#fff" stop-opacity=".25" offset=".515"/></linearGradient><path d="M138 202.9v104.5c0-4.2 3.2-8.6 8.6-8.8l17.6-.6c3.5-.1 8.8-2.5 8.9-8.9v-109c-2.7-.6-5.6-.9-8.5-.9-22.7.1-26.6 12.1-26.6 23.7m80 36.4l-43.2 47.2 3.5 5.4c1.5 2 4.4 5.4 10.2 5.2l24.6-.9c5.4-.2 8.8 2.1 10.9 4.9l-7.7-11.6L246 258l19.9 31.3c3.6 4.7 9 4.8 10.2 4.8 1 0 27.2-.9 28.3-1 1.8-.1 3.9.9 5.5 3.2l-43.3-70.4c-2.9-.9-9.9-2.1-15-2.1-15.8-.1-24.5 5.6-33.6 15.5M57.3 224.8c-28 3.1-42.2 19.8-42.2 39.9 0 10.3 4.7 20.2 13.7 27.3 6.8 4.5 13.8 6.2 20.7 7.4 5.7 1 19 1.9 28.9 1.5l30.8-1.1c11.6-.4 17.8 9.5 17.2 19.4v-.5c.1-1.3.2-2.6.2-3.9 0-18.5-11.4-33.6-37.9-38.5l-25.8-4.8c-8.3-1.4-13.4-3.4-13.4-8.1 0-4.4 5.5-8.1 18.6-8.1 13 0 24.3 1.3 31.6 1.3 9.5 0 19.4-4 19.4-22.7 0-2.5-.3-4.8-.8-7.2-10.1-1.2-26.3-2.9-42.4-2.9-6.3.1-12.6.4-18.6 1m276.2 19.9l-22.1 52.1c0-.1 1.4-4.1 5.7-4.3l23.4-.8c7.1-.3 9.9-5.1 10.7-6.7l25.6-57.1c-2.9-1.5-9.3-3.3-14.5-3.4h-1.1c-8.9.1-20.3 2.5-27.7 20.2" fill="url(#B)" opacity=".3" enable-background="new"/><linearGradient id="C" x1="830.555" x2="826.25" y1="276.73" y2="153.473" gradientUnits="userSpaceOnUse"><stop stop-color="#fff" offset="0"/><stop stop-color="#fff" stop-opacity=".25" offset=".515"/></linearGradient><path d="M430.9 164.9c-9.2 0-16.7 7.5-16.7 16.7v120.2c0-1.8.7-11.7 12-12.8 0 0 .6-.1 1.6-.1l804.4-28.2c6.3-.2 12.4-4.9 12.4-12.7v-66.3c0-9.2-7.5-16.7-16.7-16.7z" fill="url(#C)" opacity=".3" enable-background="new"/><g fill="#fff"><path d="M1190.1 275.3v74.5c-2 .5-5.4 1-8.8 1-7 0-10.1-2.5-10.1-7.4v-9.8c-11.1 11.7-24.3 18.6-41.8 18.6-26.3 0-40.8-16.8-40.8-35.6 0-28.4 30.7-40.8 82.6-37.4V276c0-18.1-5.9-28.9-28.9-28.9-11.9 0-22.2 2.6-29.2 4.9-3.6 1-6.4 1.9-8.3 1.9-5.4 0-8.5-4.9-7.3-15.2 11.7-4.4 29.2-8.3 45.6-8.3 34.3.1 47 17.2 47 44.9m-19.1 40.8v-22.5c-33.8-1.5-63 1.8-63 22.7 0 10.3 8.8 19.9 24.5 19.9 16 0 29.5-8.1 38.5-20.1m-709.6-25c0-34.8 25.8-60.7 59.6-60.7 16.2 0 30.7 4.4 40.8 9.6 1 10.6-2.9 15-7.8 15-6.9 0-14.5-7.5-32.3-7.5-22.5 0-40.8 16.8-40.8 43.9s18.3 44.4 40.8 44.4c17.8 0 25.5-7.5 32.3-7.5 4.9 0 8.8 4.4 7.8 15-10.3 4.9-24.8 9.3-40.8 9.3-33.8-.5-59.6-26.7-59.6-61.5m413.8 7.8h-91.1c2.9 22.7 18.9 35.8 42.4 35.8 10.1 0 17.8-2.3 25.3-4.6 4.9-1.8 7.5-2.8 9.6-2.8 4.9 0 8.5 4.6 7.3 15.2-10.3 4.6-26.1 9.6-42.9 9.6-36.4 0-61.5-24.8-61.5-61.2 0-35.1 26.1-60.6 58.3-60.6 35.9 0 53.7 28.7 53.7 56.6-.1 3.7-.4 7.6-1.1 12m-91-15.7h73.3c-.8-20.1-13.7-35.9-34.8-35.9-18.8-.2-35.4 12.4-38.5 35.9m-201.8-77.6c0-7.2 5.7-12.4 12.4-12.4 6.9 0 12.2 5.4 12.2 12.4 0 6.4-5.4 12.2-12.2 12.2s-12.4-5.9-12.4-12.2m2.7 144.1V239.3c0-4.4 2.4-7.3 10.3-7.3 3.1 0 6.9.8 8.8 1.3v110.2c0 4.6-2.6 7.3-10.3 7.3-3.2-.1-6.9-.6-8.8-1.1"/><path d="M1064.5 272.9v70.5c0 4.6-2.6 7.3-10.3 7.3-3.1 0-6.9-.5-8.8-1V275c0-17.3-8.3-27.6-23.8-27.6-13.2 0-24.5 9.6-28.9 19.1v76.9c0 4.6-2.4 7.3-10.1 7.3-3.4 0-7-.5-9-1V275c0-17.3-8-27.6-23.8-27.6-13.2 0-24.5 9.6-28.9 19.1v76.9c0 4.6-2.4 7.3-10.1 7.3-3.4 0-7.2-.5-8.8-1V233.2c2-.5 5.7-1.3 8.8-1.3 7.3 0 9.8 2.9 9.8 7.8v8.3c7.5-10.1 19.4-17.6 33.8-17.6 15.5 0 27.6 8 33.8 21.2 8-11.7 20.4-21.2 37.7-21.2 25.2.1 38.6 19.2 38.6 42.5m-325.3 7.5v63c0 4.6-2.4 7.3-10.1 7.3-3.1 0-6.9-.5-8.8-1V283c0-24-11.9-35.4-29.4-35.4-13.9 0-28.9 9.8-35.1 21.1v74.9c0 4.6-2.5 7.3-10.1 7.3-3.4 0-7-.5-8.8-1V233.2c1.8-.5 5.4-1.3 8.8-1.3 7.5 0 10.1 2.9 10.1 7.3v10.1c8.5-10.3 21.5-18.9 39.2-18.9 24.1.1 44.2 15.4 44.2 50"/></g></g><path d="M630.798 208.156c1.883-4.23 6.417-6.65 10.861-7.172 5.014-.525 10.115.279 14.869 1.886-.058 2.12.173 4.809-1.758 6.221-2.104 1.303-4.585.147-6.801-.15-2.168-.15-4.601-.423-6.484.909-1.367.865-2.043 2.446-2.28 3.989-.314 2.132-.208 4.297-.221 6.445l13.224-.004c.423 1.771.596 3.65.208 5.437-.304 1.38-1.732 2.19-3.074 2.161-3.452.032-6.906-.004-10.358.013v29.207c.004 1.268.157 2.674-.65 3.759-.724 1.156-2.158 1.498-3.429 1.585-1.851.102-3.721-.016-5.533-.397l.016-34.135c-1.979-.048-3.957-.004-5.936-.026-.288-2.075-.746-4.39.288-6.324 1.29-1.79 3.753-1.165 5.635-1.278.048-4.063-.394-8.35 1.422-12.129zm-46.143-7.135c6.448-.71 13.2.488 18.74 3.95 4.752 2.851 8.511 7.23 10.804 12.256 2.818 5.927 3.481 12.708 2.62 19.166-1.105 7.6-4.933 14.913-10.999 19.704-9.854 7.867-25.073 7.943-35.026.218-4.92-3.755-8.379-9.227-10.2-15.101-2.171-7.319-1.934-15.398.911-22.506 1.838-4.66 4.881-8.854 8.831-11.946 4.122-3.191 9.128-5.234 14.319-5.742m1.525 9.065a16.85 16.85 0 0 0-7.201 2.63c-4.429 2.861-7.323 7.686-8.514 12.751-.865 3.901-.815 7.999.05 11.893 1.178 5.145 4.125 10.035 8.649 12.886 3.94 2.587 9.042 3.359 13.55 1.944 4.372-1.343 8.085-4.488 10.421-8.385 3.458-5.729 4.214-12.9 2.472-19.315-1.267-4.745-4.145-9.141-8.319-11.811-3.244-2.145-7.25-3.052-11.108-2.594zm-77.71-4.371c2.175-.522 4.485-.358 6.64.204.151 3.775.08 7.561.033 11.339 5.054.288 10.134.05 15.201.12.308 1.861.673 3.802.184 5.67-.328 1.352-1.687 2.316-3.069 2.252l-12.183.02-.037 21.406c-.04 2.085.519 4.301 2.105 5.753 1.519 1.416 3.755 1.59 5.73 1.376 1.62-.147 3.092-.884 4.595-1.459 1.583-.619 3.645-.301 4.649 1.175 1.091 1.613.763 3.658.766 5.492-4.776 2.848-10.526 4.056-16.028 3.119-2.761-.458-5.412-1.717-7.403-3.695-2.132-2.045-3.437-4.836-3.999-7.711-.415-2.098-.311-4.25-.318-6.379l-.004-19.074c-2.346-.023-4.692.03-7.038-.03-.221-2.182-.797-4.635.375-6.637 1.627-2.022 4.451-1.021 6.667-1.309.04-2.473-.084-4.953.06-7.427.117-1.827 1.201-3.728 3.072-4.207zm-48.573 17.25c2.54-3.146 6.549-4.668 10.439-5.261 7.277-.952 14.692.267 21.603 2.583.102 2.065.171 4.431-1.262 6.097-1.598 1.634-4.131.922-6.094.514-4.269-1.397-8.887-1.785-13.321-1.048-2.029.273-4.131 1.98-3.732 4.22.112 1.841 1.986 2.698 3.485 3.258 4.595 1.525 9.385 2.447 13.911 4.19 2.853 1.153 5.755 2.711 7.468 5.369 2.098 3.274 2.115 7.537.794 11.104-1.008 2.8-3.34 4.941-5.992 6.18-4.309 2.098-9.227 2.342-13.934 2.138-5.363-.296-10.673-1.43-15.736-3.215-.244-2.118-.277-4.589 1.271-6.255 1.36-1.4 3.492-.942 5.185-.56 3.475.909 6.96 2.003 10.587 2.013 2.609.033 5.422.086 7.734-1.304 1.637-.945 2.079-3.136 1.528-4.832-.494-1.436-1.986-2.102-3.284-2.635-5.521-2.079-11.529-2.816-16.777-5.62-2.457-1.285-4.612-3.327-5.534-5.992-1.242-3.614-.761-7.919 1.66-10.943zm-39.567-3.631c4.032-1.991 8.687-2.318 13.079-1.623 5.279.875 10.059 4.172 12.86 8.717 3.115 5.024 4.114 11.221 3.033 17.009-10.346.007-20.692-.039-31.034.023.232 3.17 1.802 6.321 4.453 8.145 1.59 1.166 3.506 1.815 5.439 2.142 3.803.594 7.724.118 11.329-1.208 1.818-.62 3.888-1.456 5.759-.584 2.24 1.498 2.403 4.59 1.949 6.993-2.831 1.423-5.932 2.289-9.02 2.977-6.19.957-12.889.966-18.573-1.998-4.404-2.135-7.875-6.023-9.66-10.565-1.949-4.891-2.253-10.379-1.126-15.501 1.486-6.196 5.661-11.841 11.515-14.528m2.266 7.816c-2.785 2.184-4.172 5.694-4.512 9.138 7.434.137 14.877.007 22.314.065-.069-2.945-1.276-5.821-3.19-8.044-1.518-1.786-3.774-2.85-6.085-3.111-2.938-.362-6.154.049-8.527 1.952zm-61.824 35.346c-2.34 0-3.843-.459-4.507-1.376s-.996-2.103-.996-3.558v-51.803c0-1.455.332-2.641.996-3.558s2.166-1.376 4.507-1.376h15.655c3.922 0 7.29.395 10.104 1.186s5.123 1.898 6.926 3.321 3.115 3.115 3.937 5.076 1.233 4.111 1.233 6.452c0 3.226-.917 6.04-2.751 8.444s-4.364 4.143-7.59 5.218c4.238 1.012 7.385 2.846 9.44 5.503s3.083 5.598 3.083 8.824c0 5.756-1.961 10.136-5.882 13.14s-9.962 4.507-18.122 4.507zm4.839-35.958h10.436c2.277 0 4.19-.221 5.74-.664s2.783-1.044 3.7-1.803 1.581-1.66 1.992-2.704.617-2.166.617-3.368c0-5.187-3.953-7.78-11.86-7.78h-10.626zm0 26.566h10.057c4.934 0 8.539-.68 10.816-2.04s3.416-3.653 3.416-6.879a9.51 9.51 0 0 0-.569-3.273c-.379-1.043-1.059-1.961-2.04-2.751s-2.356-1.439-4.127-1.945-4.08-.759-6.926-.759h-10.626z"/></svg>