<svg xmlns="http://www.w3.org/2000/svg" viewBox="0 0 1011.8 262.5" ><path d="M1003.9 0c4.377 0 7.905 3.563 7.905 7.905v147.01a7.94 7.94 0 0 1-7.905 7.905H797.65c-4.377 0-7.905-3.562-7.905-7.905V7.935c0-4.377 3.563-7.905 7.905-7.905h206.25" fill="#fff"/><path d="M903.77 48.789v62.666c0 2.748-1.391 4.275-5.666 4.275-1.934 0-3.732-.271-5.123-.543V86.348h-35.76v25.141c0 2.748-1.391 4.275-5.666 4.275-2.07 0-4.139-.271-5.123-.543v-62.7c0-2.646 1.391-4.275 5.802-4.275 1.934 0 3.834.271 4.953.543v27.889h35.591V52.521c0-2.646 1.527-4.275 5.938-4.275 2.036 0 3.936.271 5.055.543m73.359 33.114c0 18.796-13.13 33.012-33.691 33.012h-19.17c-4.139 0-5.666-1.662-5.666-4.275V53.335c0-2.612 1.527-4.275 5.666-4.275h19.17c20.561 0 33.691 14.08 33.691 32.843m-10.925 0c0-14.08-8.821-23.207-22.766-23.207h-14.08v46.516h14.08c13.945.034 22.766-9.093 22.766-23.309" fill="#9c001f"/><g transform="translate(26.208 .743)"><g transform="matrix(.65155 0 0 .65155 -36.045995 -108.183683)"><path d="M126.7 314.7c0 21.5-14 37.1-42.6 40.2-20.6 2.2-50.5-.4-64.7-2-.5-2.3-.9-5.2-.9-7.5 0-18.7 10.1-23 19.6-23 9.9 0 25.5 1.7 37 1.7 12.8 0 16.6-4.3 16.6-8.4 0-5.4-5.1-7.6-15-9.5L49.6 301c-22.5-4.3-34.5-19.8-34.5-36.3 0-20 14.2-36.8 42.2-39.9 21.1-2.3 46.9.3 61 2 .5 2.4.8 4.7.8 7.2 0 18.7-9.9 22.7-19.4 22.7-7.3 0-18.6-1.3-31.6-1.3-13.2 0-18.6 3.6-18.6 8 0 4.7 5.2 6.6 13.4 8.1l25.8 4.8c26.6 4.9 38 19.9 38 38.4m46.3 23c0 11.5-4.5 18.1-27 18.1-3 0-5.6-.2-8.1-.6V202.9c0-11.6 3.9-23.7 26.6-23.7 2.9 0 5.8.3 8.5.9zm91.9 59c3 1.5 9 3.4 16.6 3.5 13.1.3 20.2-4.7 25.5-16.4l70-155.7c-2.9-1.5-9.3-3.3-14.5-3.4-9-.2-21.1 1.6-28.8 20L310.9 298l-44.5-72.3c-2.9-.9-9.9-2.1-15-2.1-15.8 0-24.5 5.8-33.6 15.6l-43.2 47.2 34.8 54.7c6.4 10 14.9 15.1 28.6 15.1 9 0 16.5-2.1 20-3.7l-41.9-63 29.7-31.5 48.7 76.3z" fill="#ff0031"/><linearGradient id="A" x1="414.37" x2="1244.631" y1="289.839" y2="289.839" gradientUnits="userSpaceOnUse"><stop stop-color="#ff0031" offset="0"/><stop stop-color="#9b001f" offset="1"/></linearGradient><path d="M1228 164.9H430.9c-9.2 0-16.7 7.5-16.7 16.7v216.5c0 9.2 7.5 16.7 16.7 16.7h797c9.2 0 16.7-7.5 16.7-16.7V181.5c-.1-9.2-7.4-16.6-16.6-16.6" fill="url(#A)"/><linearGradient id="B" x1="197.483" x2="194.588" y1="295.135" y2="212.243" gradientUnits="userSpaceOnUse"><stop stop-color="#fff" offset="0"/><stop stop-color="#fff" stop-opacity=".25" offset=".515"/></linearGradient><path d="M138 202.9v104.5c0-4.2 3.2-8.6 8.6-8.8l17.6-.6c3.5-.1 8.8-2.5 8.9-8.9v-109c-2.7-.6-5.6-.9-8.5-.9-22.7.1-26.6 12.1-26.6 23.7m80 36.4l-43.2 47.2 3.5 5.4c1.5 2 4.4 5.4 10.2 5.2l24.6-.9c5.4-.2 8.8 2.1 10.9 4.9l-7.7-11.6L246 258l19.9 31.3c3.6 4.7 9 4.8 10.2 4.8 1 0 27.2-.9 28.3-1 1.8-.1 3.9.9 5.5 3.2l-43.3-70.4c-2.9-.9-9.9-2.1-15-2.1-15.8-.1-24.5 5.6-33.6 15.5M57.3 224.8c-28 3.1-42.2 19.8-42.2 39.9 0 10.3 4.7 20.2 13.7 27.3 6.8 4.5 13.8 6.2 20.7 7.4 5.7 1 19 1.9 28.9 1.5l30.8-1.1c11.6-.4 17.8 9.5 17.2 19.4v-.5c.1-1.3.2-2.6.2-3.9 0-18.5-11.4-33.6-37.9-38.5l-25.8-4.8c-8.3-1.4-13.4-3.4-13.4-8.1 0-4.4 5.5-8.1 18.6-8.1 13 0 24.3 1.3 31.6 1.3 9.5 0 19.4-4 19.4-22.7 0-2.5-.3-4.8-.8-7.2-10.1-1.2-26.3-2.9-42.4-2.9-6.3.1-12.6.4-18.6 1m276.2 19.9l-22.1 52.1c0-.1 1.4-4.1 5.7-4.3l23.4-.8c7.1-.3 9.9-5.1 10.7-6.7l25.6-57.1c-2.9-1.5-9.3-3.3-14.5-3.4h-1.1c-8.9.1-20.3 2.5-27.7 20.2" fill="url(#B)" opacity=".3" enable-background="new"/><linearGradient id="C" x1="830.555" x2="826.25" y1="276.73" y2="153.473" gradientUnits="userSpaceOnUse"><stop stop-color="#fff" offset="0"/><stop stop-color="#fff" stop-opacity=".25" offset=".515"/></linearGradient><path d="M430.9 164.9c-9.2 0-16.7 7.5-16.7 16.7v120.2c0-1.8.7-11.7 12-12.8 0 0 .6-.1 1.6-.1l804.4-28.2c6.3-.2 12.4-4.9 12.4-12.7v-66.3c0-9.2-7.5-16.7-16.7-16.7z" fill="url(#C)" opacity=".3" enable-background="new"/><g fill="#fff"><path d="M1190.1 275.3v74.5c-2 .5-5.4 1-8.8 1-7 0-10.1-2.5-10.1-7.4v-9.8c-11.1 11.7-24.3 18.6-41.8 18.6-26.3 0-40.8-16.8-40.8-35.6 0-28.4 30.7-40.8 82.6-37.4V276c0-18.1-5.9-28.9-28.9-28.9-11.9 0-22.2 2.6-29.2 4.9-3.6 1-6.4 1.9-8.3 1.9-5.4 0-8.5-4.9-7.3-15.2 11.7-4.4 29.2-8.3 45.6-8.3 34.3.1 47 17.2 47 44.9m-19.1 40.8v-22.5c-33.8-1.5-63 1.8-63 22.7 0 10.3 8.8 19.9 24.5 19.9 16 0 29.5-8.1 38.5-20.1m-709.6-25c0-34.8 25.8-60.7 59.6-60.7 16.2 0 30.7 4.4 40.8 9.6 1 10.6-2.9 15-7.8 15-6.9 0-14.5-7.5-32.3-7.5-22.5 0-40.8 16.8-40.8 43.9s18.3 44.4 40.8 44.4c17.8 0 25.5-7.5 32.3-7.5 4.9 0 8.8 4.4 7.8 15-10.3 4.9-24.8 9.3-40.8 9.3-33.8-.5-59.6-26.7-59.6-61.5m413.8 7.8h-91.1c2.9 22.7 18.9 35.8 42.4 35.8 10.1 0 17.8-2.3 25.3-4.6 4.9-1.8 7.5-2.8 9.6-2.8 4.9 0 8.5 4.6 7.3 15.2-10.3 4.6-26.1 9.6-42.9 9.6-36.4 0-61.5-24.8-61.5-61.2 0-35.1 26.1-60.6 58.3-60.6 35.9 0 53.7 28.7 53.7 56.6-.1 3.7-.4 7.6-1.1 12m-91-15.7h73.3c-.8-20.1-13.7-35.9-34.8-35.9-18.8-.2-35.4 12.4-38.5 35.9m-201.8-77.6c0-7.2 5.7-12.4 12.4-12.4 6.9 0 12.2 5.4 12.2 12.4 0 6.4-5.4 12.2-12.2 12.2s-12.4-5.9-12.4-12.2m2.7 144.1V239.3c0-4.4 2.4-7.3 10.3-7.3 3.1 0 6.9.8 8.8 1.3v110.2c0 4.6-2.6 7.3-10.3 7.3-3.2-.1-6.9-.6-8.8-1.1"/><path d="M1064.5 272.9v70.5c0 4.6-2.6 7.3-10.3 7.3-3.1 0-6.9-.5-8.8-1V275c0-17.3-8.3-27.6-23.8-27.6-13.2 0-24.5 9.6-28.9 19.1v76.9c0 4.6-2.4 7.3-10.1 7.3-3.4 0-7-.5-9-1V275c0-17.3-8-27.6-23.8-27.6-13.2 0-24.5 9.6-28.9 19.1v76.9c0 4.6-2.4 7.3-10.1 7.3-3.4 0-7.2-.5-8.8-1V233.2c2-.5 5.7-1.3 8.8-1.3 7.3 0 9.8 2.9 9.8 7.8v8.3c7.5-10.1 19.4-17.6 33.8-17.6 15.5 0 27.6 8 33.8 21.2 8-11.7 20.4-21.2 37.7-21.2 25.2.1 38.6 19.2 38.6 42.5m-325.3 7.5v63c0 4.6-2.4 7.3-10.1 7.3-3.1 0-6.9-.5-8.8-1V283c0-24-11.9-35.4-29.4-35.4-13.9 0-28.9 9.8-35.1 21.1v74.9c0 4.6-2.5 7.3-10.1 7.3-3.4 0-7-.5-8.8-1V233.2c1.8-.5 5.4-1.3 8.8-1.3 7.5 0 10.1 2.9 10.1 7.3v10.1c8.5-10.3 21.5-18.9 39.2-18.9 24.1.1 44.2 15.4 44.2 50"/></g></g><path d="M643.954 222.936c2.788-3.691 6.996-6.389 11.62-6.986 3.748-.433 7.739-.073 11.047 1.876 3.571 2.062 5.973 5.776 6.896 9.747 1.009 3.768.723 7.692.76 11.546l-.004 18.365c-.02 1.499-.886 3.155-2.429 3.544-2.465.676-5.063.25-7.552-.077l-.01-16.49c-.067-3.751.157-7.512-.16-11.25-.273-2.965-1.546-6.136-4.304-7.592-5.074-2.788-11.856-.706-15.137 3.884-.247.383-.58.773-.543 1.256l-.017 26.707c-.02 1.542-.923 3.221-2.518 3.594-2.449.616-5.01.226-7.469-.117l-.004-43.99c2.452-.676 5.287-1.283 7.639.027 1.985 1.246 2.132 3.844 2.185 5.953zm-55.974 3.155c3.09-5.342 8.639-9.196 14.751-10.123 4.678-.624 9.673-.143 13.824 2.249 3.507 1.912 6.323 4.982 8.065 8.562 2.389 4.775 3.06 10.354 2.062 15.582-10.584-.004-21.168-.004-31.748 0 .324 2.656 1.325 5.325 3.287 7.207 2.626 2.656 6.506 3.607 10.143 3.56 2.91.083 5.782-.564 8.505-1.562 1.782-.571 3.8-1.358 5.629-.544 2.409 1.505 2.509 4.765 2.072 7.277-5.018 2.135-10.404 3.657-15.906 3.5-5.459.163-11.084-1.231-15.489-4.555-4.314-3.207-7.074-8.211-8.035-13.453-1.101-5.983-.334-12.439 2.839-17.701m10.827.143c-2.466 2.272-3.687 5.586-3.984 8.865l22.889-.004c-.314-3.24-1.548-6.486-3.921-8.779-1.925-1.969-4.768-2.733-7.454-2.739-2.716-.057-5.539.751-7.531 2.656zm-42.432-9.337c2.202-.587 4.581-1.118 6.817-.397 1.271.38 2.209 1.481 2.616 2.719.624 1.862.334 3.86.414 5.786 1.315-2.99 3.2-5.933 6.169-7.507 3.273-1.892 7.244-1.718 10.841-1.054.514 2.032.864 4.291.017 6.28-.687 1.652-2.569 2.426-4.261 2.369-3.086-.043-6.43.103-9.009 2.015-2.496 1.672-3.477 4.788-3.51 7.668l-.004 22.349c.013 1.038-.26 2.095-.921 2.91-.674.894-1.845 1.168-2.9 1.285-2.095.187-4.204-.043-6.27-.384v-44.037zm-34.655-.601c3.477-.791 7.144-.761 10.621.017 5.088 1.218 9.616 4.591 12.212 9.142 2.93 5.048 3.884 11.181 2.783 16.903-10.594.004-21.191-.004-31.785.004.397 2.946 1.605 5.913 3.964 7.821 2.786 2.332 6.553 3.073 10.103 2.943 3.123.05 6.123-.911 9.036-1.929 1.658-.524 3.794-.991 5.192.354 1.702 1.728 1.802 4.531 1.265 6.72-5.045 2.332-10.614 3.68-16.193 3.53-5.956.127-12.125-1.685-16.56-5.776-3.76-3.4-6.023-8.245-6.74-13.223-.777-5.272-.137-10.851 2.389-15.592 2.703-5.395 7.834-9.516 13.714-10.914m-2.302 9.967c-2.452 2.266-3.657 5.569-3.951 8.835l22.909.004c-.34-3.03-1.405-6.049-3.483-8.325-1.892-2.175-4.831-3.176-7.658-3.196-2.813-.1-5.746.714-7.818 2.683zm-28.963-9.927c2.299-.384 4.655-.103 6.94.27v40.537c.08 1.648-.861 3.453-2.536 3.901-2.446.651-5.018.267-7.477-.093l-.004-40.86c-.067-1.788 1.285-3.5 3.076-3.754zm.2-19.126c3.04-1.041 6.7.894 7.341 4.087.871 3.15-1.555 6.653-4.798 6.957-3.1.521-6.293-2.035-6.4-5.192-.267-2.539 1.451-5.068 3.857-5.852zm-57.473 18.756c4.047-.711 8.475.097 11.732 2.693 1.922 1.465 3.223 3.584 4.077 5.816 2.386-3.994 6.053-7.581 10.774-8.468 3.123-.524 6.44-.374 9.409.804 2.472.988 4.501 2.923 5.736 5.265 1.688 3.05 2.239 6.583 2.296 10.027l.007 24.708c.013 1.231-.237 2.576-1.161 3.46-.831.834-2.062 1.011-3.183 1.091-1.929.087-3.864-.093-5.759-.43l.007-27.848c-.01-2.509-.631-5.262-2.619-6.957-2.005-1.748-4.881-2.022-7.394-1.471-2.659.587-4.851 2.522-6.25 4.798-.49.674-.32 1.535-.347 2.312l-.007 25.051c.057 1.665-.621 3.644-2.366 4.177-2.509.737-5.185.314-7.721-.067l.007-27.521c-.033-2.529-.547-5.299-2.479-7.094-1.838-1.772-4.595-2.149-7.03-1.782-2.853.5-5.262 2.486-6.797 4.875-.527.681-.36 1.568-.384 2.366l.01 25.348c.077 1.665-.824 3.55-2.559 3.957-2.442.607-5.005.227-7.457-.13l.017-44.08c2.449-.624 5.252-1.261 7.594.033 1.945 1.188 2.199 3.717 2.175 5.779 2.332-3.24 5.692-5.916 9.673-6.713zm-53.623.277c3.667-.777 7.541-.707 11.164.27 5.015 1.425 9.359 4.952 11.792 9.563 2.653 4.932 3.483 10.787 2.436 16.283-10.597.007-21.194-.007-31.791.007.39 2.923 1.588 5.862 3.914 7.774 2.759 2.336 6.503 3.106 10.04 2.99 3.153.063 6.186-.894 9.126-1.925 1.645-.514 3.744-1.001 5.158.297 1.695 1.592 1.732 4.134 1.501 6.286.053.541-.554.667-.918.858-4.705 1.945-9.746 3.26-14.871 3.153-5.395.18-10.961-1.118-15.375-4.321-4.204-3.023-7.04-7.714-8.151-12.739-1.351-6.143-.717-12.863 2.479-18.355 2.829-5.058 7.828-8.865 13.497-10.14m-2.239 9.756c-2.633 2.266-3.941 5.709-4.244 9.102h22.909c-.327-2.97-1.361-5.926-3.36-8.191-1.615-1.922-4.057-3.006-6.526-3.25-3.07-.34-6.4.264-8.779 2.339zm-43.327-9.117c2.249-.597 4.695-1.124 6.96-.324 1.698.611 2.616 2.436 2.759 4.144l.047 4.371c1.315-2.996 3.203-5.903 6.123-7.537 3.293-1.932 7.307-1.758 10.934-1.098.537 2.125.931 4.524-.12 6.56-.807 1.535-2.636 2.179-4.288 2.095-3.14-.063-6.567.174-9.119 2.219-2.199 1.635-3.146 4.441-3.21 7.094l-.017 22.753c.023 1.688-.908 3.574-2.683 3.944-2.436.557-4.972.207-7.407-.177l.02-44.044zm-47.718-14.551c1.004-.944 2.482-1.008 3.784-1.091h14.644c5.375.093 10.914 1.311 15.315 4.531 3.597 2.609 6.069 6.627 6.96 10.964 1.315 6.086.153 12.903-3.951 17.724-4.064 4.845-10.447 7.254-16.66 7.474-3.644.023-7.284-.004-10.927.01v15.188c.057 1.728-1.034 3.537-2.779 3.951-2.482.594-5.072.217-7.564-.14v-54.904c.03-1.301.277-2.709 1.178-3.707m9.166 8.332v22.182c3.203-.033 6.41.09 9.61-.08 3.207-.214 6.653-.968 8.959-3.373 2.469-2.492 3.2-6.246 2.746-9.633-.274-2.529-1.495-5.002-3.547-6.556-2.502-1.932-5.762-2.469-8.845-2.539-2.973-.007-5.946-.004-8.922 0z"/></g></svg>