<svg xmlns="http://www.w3.org/2000/svg" viewBox="0 0 801.08 262.5" ><g transform="matrix(.65155 0 0 .65155 -9.837995 -107.440593)"><path d="M126.7 314.7c0 21.5-14 37.1-42.6 40.2-20.6 2.2-50.5-.4-64.7-2-.5-2.3-.9-5.2-.9-7.5 0-18.7 10.1-23 19.6-23 9.9 0 25.5 1.7 37 1.7 12.8 0 16.6-4.3 16.6-8.4 0-5.4-5.1-7.6-15-9.5L49.6 301c-22.5-4.3-34.5-19.8-34.5-36.3 0-20 14.2-36.8 42.2-39.9 21.1-2.3 46.9.3 61 2 .5 2.4.8 4.7.8 7.2 0 18.7-9.9 22.7-19.4 22.7-7.3 0-18.6-1.3-31.6-1.3-13.2 0-18.6 3.6-18.6 8 0 4.7 5.2 6.6 13.4 8.1l25.8 4.8c26.6 4.9 38 19.9 38 38.4m46.3 23c0 11.5-4.5 18.1-27 18.1-3 0-5.6-.2-8.1-.6V202.9c0-11.6 3.9-23.7 26.6-23.7 2.9 0 5.8.3 8.5.9zm91.9 59c3 1.5 9 3.4 16.6 3.5 13.1.3 20.2-4.7 25.5-16.4l70-155.7c-2.9-1.5-9.3-3.3-14.5-3.4-9-.2-21.1 1.6-28.8 20L310.9 298l-44.5-72.3c-2.9-.9-9.9-2.1-15-2.1-15.8 0-24.5 5.8-33.6 15.6l-43.2 47.2 34.8 54.7c6.4 10 14.9 15.1 28.6 15.1 9 0 16.5-2.1 20-3.7l-41.9-63 29.7-31.5 48.7 76.3z" fill="#ff0031"/><linearGradient id="A" x1="414.37" x2="1244.631" y1="289.839" y2="289.839" gradientUnits="userSpaceOnUse"><stop stop-color="#ff0031" offset="0"/><stop stop-color="#9b001f" offset="1"/></linearGradient><path d="M1228 164.9H430.9c-9.2 0-16.7 7.5-16.7 16.7v216.5c0 9.2 7.5 16.7 16.7 16.7h797c9.2 0 16.7-7.5 16.7-16.7V181.5c-.1-9.2-7.4-16.6-16.6-16.6" fill="url(#A)"/><linearGradient id="B" x1="197.483" x2="194.588" y1="295.135" y2="212.243" gradientUnits="userSpaceOnUse"><stop stop-color="#fff" offset="0"/><stop stop-color="#fff" stop-opacity=".25" offset=".515"/></linearGradient><path d="M138 202.9v104.5c0-4.2 3.2-8.6 8.6-8.8l17.6-.6c3.5-.1 8.8-2.5 8.9-8.9v-109c-2.7-.6-5.6-.9-8.5-.9-22.7.1-26.6 12.1-26.6 23.7m80 36.4l-43.2 47.2 3.5 5.4c1.5 2 4.4 5.4 10.2 5.2l24.6-.9c5.4-.2 8.8 2.1 10.9 4.9l-7.7-11.6L246 258l19.9 31.3c3.6 4.7 9 4.8 10.2 4.8 1 0 27.2-.9 28.3-1 1.8-.1 3.9.9 5.5 3.2l-43.3-70.4c-2.9-.9-9.9-2.1-15-2.1-15.8-.1-24.5 5.6-33.6 15.5M57.3 224.8c-28 3.1-42.2 19.8-42.2 39.9 0 10.3 4.7 20.2 13.7 27.3 6.8 4.5 13.8 6.2 20.7 7.4 5.7 1 19 1.9 28.9 1.5l30.8-1.1c11.6-.4 17.8 9.5 17.2 19.4v-.5c.1-1.3.2-2.6.2-3.9 0-18.5-11.4-33.6-37.9-38.5l-25.8-4.8c-8.3-1.4-13.4-3.4-13.4-8.1 0-4.4 5.5-8.1 18.6-8.1 13 0 24.3 1.3 31.6 1.3 9.5 0 19.4-4 19.4-22.7 0-2.5-.3-4.8-.8-7.2-10.1-1.2-26.3-2.9-42.4-2.9-6.3.1-12.6.4-18.6 1m276.2 19.9l-22.1 52.1c0-.1 1.4-4.1 5.7-4.3l23.4-.8c7.1-.3 9.9-5.1 10.7-6.7l25.6-57.1c-2.9-1.5-9.3-3.3-14.5-3.4h-1.1c-8.9.1-20.3 2.5-27.7 20.2" fill="url(#B)" opacity=".3" enable-background="new"/><linearGradient id="C" x1="830.555" x2="826.25" y1="276.73" y2="153.473" gradientUnits="userSpaceOnUse"><stop stop-color="#fff" offset="0"/><stop stop-color="#fff" stop-opacity=".25" offset=".515"/></linearGradient><path d="M430.9 164.9c-9.2 0-16.7 7.5-16.7 16.7v120.2c0-1.8.7-11.7 12-12.8 0 0 .6-.1 1.6-.1l804.4-28.2c6.3-.2 12.4-4.9 12.4-12.7v-66.3c0-9.2-7.5-16.7-16.7-16.7z" fill="url(#C)" opacity=".3" enable-background="new"/><g fill="#fff"><path d="M1190.1 275.3v74.5c-2 .5-5.4 1-8.8 1-7 0-10.1-2.5-10.1-7.4v-9.8c-11.1 11.7-24.3 18.6-41.8 18.6-26.3 0-40.8-16.8-40.8-35.6 0-28.4 30.7-40.8 82.6-37.4V276c0-18.1-5.9-28.9-28.9-28.9-11.9 0-22.2 2.6-29.2 4.9-3.6 1-6.4 1.9-8.3 1.9-5.4 0-8.5-4.9-7.3-15.2 11.7-4.4 29.2-8.3 45.6-8.3 34.3.1 47 17.2 47 44.9m-19.1 40.8v-22.5c-33.8-1.5-63 1.8-63 22.7 0 10.3 8.8 19.9 24.5 19.9 16 0 29.5-8.1 38.5-20.1m-709.6-25c0-34.8 25.8-60.7 59.6-60.7 16.2 0 30.7 4.4 40.8 9.6 1 10.6-2.9 15-7.8 15-6.9 0-14.5-7.5-32.3-7.5-22.5 0-40.8 16.8-40.8 43.9s18.3 44.4 40.8 44.4c17.8 0 25.5-7.5 32.3-7.5 4.9 0 8.8 4.4 7.8 15-10.3 4.9-24.8 9.3-40.8 9.3-33.8-.5-59.6-26.7-59.6-61.5m413.8 7.8h-91.1c2.9 22.7 18.9 35.8 42.4 35.8 10.1 0 17.8-2.3 25.3-4.6 4.9-1.8 7.5-2.8 9.6-2.8 4.9 0 8.5 4.6 7.3 15.2-10.3 4.6-26.1 9.6-42.9 9.6-36.4 0-61.5-24.8-61.5-61.2 0-35.1 26.1-60.6 58.3-60.6 35.9 0 53.7 28.7 53.7 56.6-.1 3.7-.4 7.6-1.1 12m-91-15.7h73.3c-.8-20.1-13.7-35.9-34.8-35.9-18.8-.2-35.4 12.4-38.5 35.9m-201.8-77.6c0-7.2 5.7-12.4 12.4-12.4 6.9 0 12.2 5.4 12.2 12.4 0 6.4-5.4 12.2-12.2 12.2s-12.4-5.9-12.4-12.2m2.7 144.1V239.3c0-4.4 2.4-7.3 10.3-7.3 3.1 0 6.9.8 8.8 1.3v110.2c0 4.6-2.6 7.3-10.3 7.3-3.2-.1-6.9-.6-8.8-1.1"/><path d="M1064.5 272.9v70.5c0 4.6-2.6 7.3-10.3 7.3-3.1 0-6.9-.5-8.8-1V275c0-17.3-8.3-27.6-23.8-27.6-13.2 0-24.5 9.6-28.9 19.1v76.9c0 4.6-2.4 7.3-10.1 7.3-3.4 0-7-.5-9-1V275c0-17.3-8-27.6-23.8-27.6-13.2 0-24.5 9.6-28.9 19.1v76.9c0 4.6-2.4 7.3-10.1 7.3-3.4 0-7.2-.5-8.8-1V233.2c2-.5 5.7-1.3 8.8-1.3 7.3 0 9.8 2.9 9.8 7.8v8.3c7.5-10.1 19.4-17.6 33.8-17.6 15.5 0 27.6 8 33.8 21.2 8-11.7 20.4-21.2 37.7-21.2 25.2.1 38.6 19.2 38.6 42.5m-325.3 7.5v63c0 4.6-2.4 7.3-10.1 7.3-3.1 0-6.9-.5-8.8-1V283c0-24-11.9-35.4-29.4-35.4-13.9 0-28.9 9.8-35.1 21.1v74.9c0 4.6-2.5 7.3-10.1 7.3-3.4 0-7-.5-8.8-1V233.2c1.8-.5 5.4-1.3 8.8-1.3 7.5 0 10.1 2.9 10.1 7.3v10.1c8.5-10.3 21.5-18.9 39.2-18.9 24.1.1 44.2 15.4 44.2 50"/></g></g><path d="M535.993 223.314c2.813-3.724 7.058-6.446 11.723-7.048 3.781-.437 7.807-.074 11.145 1.893 3.603 2.08 6.026 5.828 6.958 9.834 1.018 3.801.73 7.76.766 11.649l-.004 18.529c-.02 1.512-.894 3.183-2.45 3.576-2.487.682-5.109.252-7.62-.077l-.01-16.637c-.067-3.784.158-7.579-.161-11.35-.276-2.991-1.56-6.191-4.342-7.66-5.119-2.813-11.962-.712-15.273 3.919-.248.387-.585.78-.547 1.267l-.017 26.946c-.02 1.556-.931 3.25-2.541 3.627-2.471.622-5.055.228-7.535-.118l-.004-44.383c2.474-.682 5.334-1.294 7.706.027 2.003 1.258 2.151 3.879 2.205 6.007zm-45.62-6.99c5.158-.628 10.576.177 15.075 2.872 5.509 3.108 9.323 8.804 10.543 14.968.976 5.038.465 10.392-1.631 15.092-2.065 4.73-5.927 8.607-10.609 10.757-4.138 1.996-8.865 2.437-13.388 1.942-6.12-.725-11.973-4.014-15.516-9.102-3.262-4.629-4.529-10.486-4.024-16.085.491-5.428 2.958-10.676 6.906-14.449 3.449-3.253 7.935-5.398 12.645-5.994m1.314 8.317c-4.783.795-8.671 4.69-9.971 9.293-1.284 4.556-.97 9.727 1.5 13.838 1.484 2.507 3.831 4.546 6.635 5.408 3.423 1.19 7.364.642 10.369-1.367 2.761-1.825 4.62-4.81 5.438-7.982 1.377-5.776.304-12.712-4.439-16.693-2.611-2.163-6.194-3.109-9.533-2.497zm-36.204-27.032a6.83 6.83 0 0 0-1.345.152c-2.358.594-4.225 2.869-4.198 5.325-.157 1.957.892 3.871 2.502 4.946 2.308 1.603 5.778 1.092 7.538-1.095 1.981-2.285 1.647-6.162-.731-8.043-1.039-.907-2.406-1.304-3.765-1.285zm.407 19.212c-.94.004-1.876.095-2.794.326-1.737.397-2.669 2.261-2.629 3.932v40.585c2.485.354 5.09.765 7.555.09 1.714-.437 2.569-2.298 2.539-3.941l.014-40.529c-1.536-.236-3.118-.47-4.685-.463zm-40.853-12.594c2.219-.532 4.574-.365 6.772.209.154 3.85.082 7.711.034 11.565 5.154.293 10.336.051 15.503.123.314 1.898.686 3.877.188 5.782-.335 1.379-1.721 2.362-3.13 2.297l-12.424.021-.038 21.831c-.04 2.126.529 4.386 2.147 5.868 1.55 1.444 3.83 1.621 5.844 1.403 1.652-.15 3.154-.901 4.687-1.488 1.614-.631 3.717-.307 4.741 1.198 1.113 1.645.778 3.731.782 5.601-4.87 2.905-10.735 4.137-16.346 3.181-2.816-.468-5.519-1.751-7.551-3.768-2.174-2.086-3.505-4.932-4.079-7.865-.423-2.14-.317-4.334-.324-6.505l-.004-19.453c-2.393-.024-4.785.031-7.178-.03-.225-2.226-.812-4.727.382-6.769 1.659-2.062 4.54-1.041 6.8-1.335.04-2.522-.086-5.052.061-7.574.12-1.863 1.225-3.803 3.133-4.291zm-39.763 12.097c5.157-.628 10.575.177 15.074 2.871 5.508 3.108 9.321 8.804 10.542 14.967.976 5.037.465 10.391-1.631 15.09-2.065 4.73-5.926 8.607-10.608 10.756-4.138 1.996-8.864 2.436-13.386 1.942-6.12-.725-11.972-4.014-15.515-9.101-3.262-4.628-4.529-10.484-4.024-16.083.492-5.428 2.958-10.675 6.905-14.449 3.449-3.252 7.935-5.398 12.644-5.993m1.313 8.316c-4.783.795-8.67 4.689-9.97 9.292-1.283 4.555-.969 9.726 1.5 13.837 1.484 2.507 3.83 4.546 6.635 5.408 3.423 1.19 7.363.642 10.368-1.367 2.761-1.825 4.62-4.809 5.438-7.981 1.377-5.775.304-12.71-4.438-16.691-2.611-2.163-6.193-3.108-9.532-2.497zm-83.119-1.419c2.24-3.405 5.805-6.043 9.843-6.866 3.7-.618 7.69-.03 10.857 2.047 2.399 1.512 4.082 3.918 5.082 6.53 2.44-4.02 6.163-7.679 10.975-8.533 3.71-.588 7.752-.322 11.049 1.613 4.914 3.001 6.559 9.184 6.505 14.592l-.004 25.568c.027 1.589-.98 3.286-2.615 3.636-2.47.605-5.058.228-7.532-.155l.004-27.698c-.034-2.618-.547-5.548-2.663-7.329-1.723-1.543-4.159-1.956-6.397-1.691-3.386.316-6.316 2.726-7.786 5.693l-.054 27.52c-.013 1.58-.957 3.287-2.595 3.66-2.497.602-5.109.225-7.613-.151v-28.034c.01-2.517-.669-5.24-2.612-6.98-1.868-1.65-4.545-1.996-6.937-1.65-2.653.43-4.886 2.188-6.481 4.261-.331.507-.794 1.021-.783 1.66l-.011 26.882c.027 1.69-.855 3.609-2.653 4.016-2.48.598-5.075.222-7.566-.148l.024-44.38c2.5-.636 5.363-1.277 7.752.037 1.983 1.24 2.176 3.798 2.21 5.901zm-37.41-21.914h-16.202c-1.265.05-2.632.077-3.747.753-1.322.877-1.607 2.618-1.627 4.088l.04 55.105c1.878.169 3.71.452 5.334.423l32.404-.013c.295-1.972.415-3.978.255-5.97-.134-1.088-.509-2.334-1.557-2.873-1.199-.736-2.642-.616-3.985-.606H244.87l-.008-16.398 21.767-.004c1.607.047 3.201-1.105 3.522-2.705.472-2.116.204-4.316-.197-6.419-8.364.01-16.724-.004-25.088.007l.004-15.927h22.105c1.343.01 2.786.131 3.984-.606 1.048-.539 1.423-1.785 1.557-2.873.161-1.992.04-3.998-.255-5.97l-16.202-.014z"/></svg>