<svg xmlns="http://www.w3.org/2000/svg" xmlns:xlink="http://www.w3.org/1999/xlink" viewBox="0 0 507.555 120" ><defs><linearGradient id="A" x1="349.607" x2="349.607" y2="120" gradientUnits="userSpaceOnUse"><stop offset=".4" stop-color="red"/><stop offset="1" stop-color="#d42321"/></linearGradient><linearGradient id="B" x1="350.281" y1="56.105" x2="348.194" y2="-3.656" gradientUnits="userSpaceOnUse"><stop offset="0" stop-color="#fff"/><stop offset=".12" stop-color="#fff" stop-opacity=".835"/><stop offset=".269" stop-color="#fff" stop-opacity=".658"/><stop offset=".42" stop-color="#fff" stop-opacity=".511"/><stop offset=".568" stop-color="#fff" stop-opacity=".397"/><stop offset=".716" stop-color="#fff" stop-opacity=".315"/><stop offset=".86" stop-color="#fff" stop-opacity=".266"/><stop offset="1" stop-color="#fff" stop-opacity=".25"/></linearGradient><linearGradient id="C" x1="86.85" y1="6.925" x2="86.85" y2="113.075" gradientUnits="userSpaceOnUse"><stop offset="0" stop-color="#002a91"/><stop offset=".8" stop-color="#002672"/></linearGradient><linearGradient id="D" x1="87.683" y1="63.167" x2="86.28" y2="22.976" xlink:href="#B" /></defs><rect x="191.659" width="315.895" height="120" rx="8" fill="url(#A)"/><path d="M197.418 59.538l.757-.04 303.403-10.594a6.031 6.031 0 0 0 5.974-6.077L507.555 8a8 8 0 0 0-8-8H199.659a8 8 0 0 0-8 8v57.755a6.073 6.073 0 0 1 5.758-6.217z" opacity=".4" fill="url(#B)"/><path d="M119.89 111.367a19.873 19.873 0 0 0 7.977 1.702c6.271.138 9.684-2.255 12.22-7.872L173.7 30.355a18.459 18.459 0 0 0-6.963-1.612c-4.334-.091-10.144.784-13.832 9.621l-10.881 25.637-21.349-34.705a31.256 31.256 0 0 0-7.194-1.012c-7.561 0-11.757 2.761-16.138 7.502L76.594 58.434l16.691 26.236c3.09 4.786 7.147 7.226 13.742 7.226a24.506 24.506 0 0 0 9.589-1.793L96.513 59.859l14.248-15.096 23.377 36.639zm-44.101-28.31c0 5.523-2.168 8.7-12.958 8.7a25.358 25.358 0 0 1-3.873-.275V18.296c0-5.57 1.89-11.371 12.771-11.371a19.507 19.507 0 0 1 4.059.415zM53.534 72.011c0 10.31-6.733 17.813-20.427 19.288-9.913 1.059-24.254-.185-31.078-.968a19.076 19.076 0 0 1-.414-3.59c0-8.976 4.841-11.047 9.406-11.047 4.75 0 12.22.828 17.753.828 6.132 0 7.976-2.071 7.976-4.049 0-2.579-2.444-3.637-7.193-4.558l-13.003-2.485C5.763 63.357 0 55.9 0 47.984c0-9.62 6.824-17.676 20.242-19.148 10.144-1.106 22.501.137 29.28.966a17.214 17.214 0 0 1 .368 3.452c0 8.975-4.749 10.909-9.314 10.909-3.504 0-8.945-.644-15.17-.644-6.317 0-8.946 1.75-8.946 3.866 0 2.255 2.49 3.176 6.455 3.867l12.404 2.302c12.726 2.346 18.213 9.574 18.213 18.457z" fill="url(#C)"/><path d="M173.7 30.355l-12.305 27.398a5.717 5.717 0 0 1-5.128 3.208l-11.242.393a3.158 3.158 0 0 0-2.743 2.04l.005-.013 10.618-25.016c3.689-8.838 9.499-9.712 13.833-9.621a18.459 18.459 0 0 1 6.963 1.612zm-32.233 32.74l-20.792-33.8a31.256 31.256 0 0 0-7.194-1.012c-7.561 0-11.757 2.761-16.138 7.502L76.594 58.434l1.657 2.604a5.534 5.534 0 0 0 4.908 2.476l11.828-.414a5.955 5.955 0 0 1 5.239 2.346l-.003-.004-3.712-5.583 14.248-15.096 9.572 15.001a6.05 6.05 0 0 0 4.894 2.281l13.6-.475a3.211 3.211 0 0 1 2.64 1.526zM71.73 6.925c-10.881 0-12.771 5.801-12.771 11.371v50.158a4.255 4.255 0 0 1 4.145-4.239l8.424-.294a4.269 4.269 0 0 0 4.261-4.28V7.34a19.507 19.507 0 0 0-4.059-.415zM35.32 53.554l-12.404-2.302c-3.965-.691-6.455-1.611-6.455-3.867 0-2.116 2.628-3.866 8.946-3.866 6.225 0 11.665.644 15.17.644 4.565 0 9.314-1.934 9.314-10.909a17.22 17.22 0 0 0-.368-3.452c-6.779-.829-19.136-2.072-29.28-.966C6.824 30.309 0 38.365 0 47.984a16.536 16.536 0 0 0 6.557 13.087 25.013 25.013 0 0 0 9.957 3.558 84.988 84.988 0 0 0 13.876.728l14.798-.517c5.55-.187 8.557 4.547 8.247 9.29l.016-.19.005-.056q.077-.921.078-1.874c-.001-8.882-5.488-16.11-18.214-18.457z" opacity=".25" fill="url(#D)"/><path d="M214.676 86.22c-.707-4.947.824-7.539 3.651-7.539 2.71 0 9.307 2.945 18.494 2.945 9.66 0 13.311-3.416 13.311-7.893 0-3.181-1.413-6.008-10.131-8.363l-10.012-2.71c-11.073-2.944-15.432-8.481-15.432-15.313 0-8.482 6.715-16.02 21.91-16.02a64.256 64.256 0 0 1 20.497 3.534c.942 4.829-.589 7.421-3.534 7.421-2.591 0-8.48-2.474-16.845-2.474-8.952 0-12.251 3.063-12.251 7.067 0 2.828 1.296 5.419 9.307 7.657l10.248 2.827c11.426 3.181 16.02 8.481 16.02 16.021 0 8.835-6.832 16.727-23.324 16.727a69.183 69.183 0 0 1-21.91-3.888zm113.098-25.562c0 18.494-12.958 29.449-27.212 29.449a23.918 23.918 0 0 1-19.555-9.659v23.795c0 2.238-1.295 3.651-5.064 3.651a21.126 21.126 0 0 1-4.595-.471V32.387a21.058 21.058 0 0 1 4.595-.472c3.769 0 5.064 1.414 5.064 3.651v5.419a23.918 23.918 0 0 1 19.555-9.659c14.254 0 27.212 10.955 27.212 29.332zm-9.777 0c0-12.369-8.246-20.851-19.319-20.851a19.932 19.932 0 0 0-17.67 10.72v20.379a19.932 19.932 0 0 0 17.67 10.72c11.073-.001 19.319-8.482 19.319-20.968zm18.823 0c0-16.846 12.369-29.332 28.978-29.332 16.728 0 29.096 12.486 29.096 29.332 0 16.727-12.368 29.449-29.096 29.449-16.609 0-28.978-12.723-28.978-29.449zm48.298 0c0-12.958-8.718-20.851-19.319-20.851-10.484 0-19.201 7.893-19.201 20.851 0 12.84 8.717 20.968 19.201 20.968 10.601 0 19.319-8.128 19.319-20.968zm56.484-24.031c0 3.888-1.649 4.712-5.654 4.712-8.128 0-14.96 3.77-19.2 12.605v31.923c0 2.356-1.296 3.652-5.184 3.652a21.632 21.632 0 0 1-4.477-.472v-56.66a21.632 21.632 0 0 1 4.477-.472c3.888 0 5.184 1.414 5.184 3.651v7.892c5.536-8.363 13.899-12.603 24.384-11.19a28.597 28.597 0 0 1 .471 4.358zm42.361 49.593a38.379 38.379 0 0 1-16.257 3.888c-11.19 0-17.905-6.597-17.905-17.552v-48.65c0-2.474 1.414-4.123 5.184-4.123a20.674 20.674 0 0 1 4.476.589v12.251h22.029a29.544 29.544 0 0 1 .353 3.888c0 3.416-1.413 4.594-3.533 4.594h-18.848v30.744c0 6.597 3.063 9.777 9.306 9.777 5.654 0 8.835-2.474 11.544-2.474 2.827 0 4.241 2.355 3.652 7.068z" fill="#fff"/></svg>