<?xml version="1.0" encoding="UTF-8"?>
<svg width="800" height="206.75" version="1.1" xmlns="http://www.w3.org/2000/svg">
	<defs>
		<linearGradient id="A" x1="414.37" x2="1244.6" y1="289.84" y2="289.84" gradientTransform="matrix(.51516 0 0 .51516 -7.7789 -84.95)" gradientUnits="userSpaceOnUse">
			<stop stop-color="#ff0031" offset="0"/>
			<stop stop-color="#9b001f" offset="1"/>
		</linearGradient>
		<linearGradient id="B" x1="197.48" x2="194.59" y1="295.14" y2="212.24" gradientTransform="matrix(.51516 0 0 .51516 -7.7789 -84.95)" gradientUnits="userSpaceOnUse">
			<stop stop-color="#fff" offset="0"/>
			<stop stop-color="#fff" stop-opacity=".25" offset=".515"/>
		</linearGradient>
		<linearGradient id="C" x1="830.55" x2="826.25" y1="276.73" y2="153.47" gradientTransform="matrix(.51516 0 0 .51516 -7.7789 -84.95)" gradientUnits="userSpaceOnUse">
			<stop stop-color="#fff" offset="0"/>
			<stop stop-color="#fff" stop-opacity=".25" offset=".515"/>
		</linearGradient>
	</defs>
	<path d="m800 6.2503v116.24c-0.0152 3.4456-2.8046 6.235-6.2502 6.2502h-169.32v-128.74l169.32 0.014997c3.4608-0.015 6.2502 2.8021 6.2502 6.2352z" fill="#bbb"/>
	<path d="m714.58 38.576v49.548c0 2.1728-1.0998 3.3801-4.4799 3.3801-1.5292 0-2.9508-0.21427-4.0506-0.42933v-22.802h-28.274v19.878c0 2.1728-1.0998 3.3801-4.4799 3.3801-1.6367 0-3.2726-0.21427-4.0506-0.42933v-49.575c0-2.0921 1.0998-3.3801 4.5874-3.3801 1.5292 0 3.0314 0.21427 3.9162 0.42933v22.051h28.141v-19.1c0-2.0921 1.2074-3.3801 4.695-3.3801 1.6098 0 3.1121 0.21427 3.9968 0.42933m58.003 26.182c0 14.861-10.381 26.101-26.638 26.101h-15.157c-3.2726 0-4.4799-1.3141-4.4799-3.3801v-45.309c0-2.0652 1.2074-3.3801 4.4799-3.3801h15.157c16.257 0 26.638 11.133 26.638 25.968m-8.638 0c0-11.133-6.9745-18.349-18-18.349h-11.133v36.779h11.133c11.026 0.02688 18-7.1895 18-18.43" fill="#9c001f"/>
	<path d="m57.492 77.171c0 11.076-7.2122 19.112-21.946 20.709-10.612 1.1333-26.016-0.20606-33.331-1.0303-0.25758-1.1849-0.46364-2.6788-0.46364-3.8637 0-9.6335 5.2031-11.849 10.097-11.849 5.1001 0 13.137 0.87577 19.061 0.87577 6.594 0 8.5516-2.2152 8.5516-4.3273 0-2.7819-2.6273-3.9152-7.7274-4.894l-13.961-2.6788c-11.591-2.2152-17.773-10.2-17.773-18.7 0-10.303 7.3153-18.958 21.74-20.555 10.87-1.1849 24.161 0.15455 31.425 1.0303 0.25758 1.2364 0.41213 2.4212 0.41213 3.7091 0 9.6335-5.1001 11.694-9.9941 11.694-3.7607 0-9.582-0.66971-16.279-0.66971-6.8001 0-9.582 1.8546-9.582 4.1213 0 2.4212 2.6788 3.4 6.9031 4.1728l13.291 2.4728c13.703 2.5243 19.576 10.252 19.576 19.782m23.852 11.849c0 5.9243-2.3182 9.3244-13.909 9.3244-1.5455 0-2.8849-0.10303-4.1728-0.3091v-78.459c0-5.9758 2.0091-12.209 13.703-12.209 1.494 0 2.9879 0.15455 4.3789 0.46364zm47.343 30.394c1.5455 0.77274 4.6364 1.7515 8.5516 1.8031 6.7486 0.15455 10.406-2.4212 13.137-8.4486l36.061-80.21c-1.494-0.77274-4.791-1.7-7.4698-1.7515-4.6364-0.10303-10.87 0.82425-14.837 10.303l-11.746 27.458-22.925-37.246c-1.494-0.46364-5.1001-1.0818-7.7274-1.0818-8.1395 0-12.621 2.9879-17.309 8.0365l-22.255 24.315 17.928 28.179c3.297 5.1516 7.6759 7.7789 14.734 7.7789 4.6364 0 8.5001-1.0818 10.303-1.9061l-21.585-32.455 15.3-16.228 25.088 39.307z" fill="#ff0031"/>
	<path d="m214.21 0c-4.7395 0-8.6032 3.8637-8.6032 8.6032v111.53c0 4.7395 3.8637 8.6032 8.6032 8.6032h410.58c4.7395 0 8.6032-3.8637 8.6032-8.6032v-111.58c-0.0515-4.7395-3.8122-8.5516-8.5524-8.5524z" fill="url(#A)"/>
	<path d="m63.313 19.576v53.834c0-2.1637 1.6485-4.4304 4.4304-4.5334l9.0668-0.3091c1.8031-0.05152 4.5334-1.2879 4.5849-4.5849v-56.152c-1.3909-0.3091-2.8849-0.46364-4.3788-0.46364-11.694 0.051516-13.703 6.2334-13.703 12.209m41.213 18.752-22.255 24.315 1.8031 2.7819c0.77274 1.0303 2.2667 2.7819 5.2546 2.6788l12.673-0.46364c2.7819-0.10303 4.5334 1.0818 5.6152 2.5243l-3.9667-5.9758 15.3-16.228 10.252 16.124c1.8546 2.4212 4.6364 2.4728 5.2546 2.4728 0.51516 0 14.012-0.46364 14.579-0.51516 0.92728-0.05152 2.0091 0.46364 2.8334 1.6485l-22.306-36.267c-1.494-0.46364-5.1001-1.0818-7.7274-1.0818-8.1395-0.05151-12.621 2.8849-17.309 7.985m-82.786-7.4698c-14.424 1.597-21.74 10.2-21.74 20.555 0 5.3061 2.4212 10.406 7.0577 14.064 3.5031 2.3182 7.1092 3.194 10.664 3.8122 2.9364 0.51516 9.788 0.9788 14.888 0.77274l15.867-0.56668c5.9758-0.20606 9.1698 4.894 8.8607 9.9941v-0.25758c0.05151-0.6697 0.10303-1.3394 0.10303-2.0091 0-9.5304-5.8728-17.309-19.525-19.834l-13.291-2.4728c-4.2758-0.72122-6.9031-1.7515-6.9031-4.1728 0-2.2667 2.8334-4.1728 9.582-4.1728 6.6971 0 12.518 0.66971 16.279 0.66971 4.894 0 9.9941-2.0606 9.9941-11.694 0-1.2879-0.15455-2.4728-0.41213-3.7091-5.2031-0.61819-13.549-1.494-21.843-1.494-3.2455 0.05151-6.491 0.20606-9.582 0.51516m142.29 10.252-11.385 26.84c0-0.05151 0.72122-2.1122 2.9364-2.2152l12.055-0.41213c3.6576-0.15455 5.1001-2.6273 5.5122-3.4516l13.188-29.416c-1.494-0.77274-4.791-1.7-7.4698-1.7515h-0.56668c-4.5849 0.05151-10.458 1.2879-14.27 10.406" fill="url(#B)" opacity=".3"/>
	<path d="m214.2 0c-4.7395 0-8.6032 3.8637-8.6032 8.6032v61.922c0-0.92729 0.36061-6.0274 6.1819-6.594 0 0 0.3091-0.05152 0.82426-0.05152l414.39-14.527c3.2455-0.10303 6.388-2.5243 6.388-6.5425v-34.155c0-4.7395-3.8637-8.6032-8.6032-8.6032z" fill="url(#C)" opacity=".3"/>
	<path d="m298.64 14.58c-3.4516 0-6.3871 2.678-6.3871 6.3871 0 3.2455 2.884 6.2852 6.3871 6.2852s6.2852-2.9882 6.2852-6.2852c0-3.6061-2.7306-6.3871-6.2852-6.3871zm117.35 19.112c-16.588 0-30.033 13.137-30.033 31.219 0 18.752 12.93 31.528 31.682 31.528 8.6547 0 16.794-2.5766 22.1-4.9463 0.61819-5.4607-1.2376-7.8294-3.7618-7.8294-1.0818 0-2.4205 0.51506-4.9448 1.4424-3.8637 1.1849-7.8305 2.3689-13.034 2.3689-12.106 0-20.348-6.7491-21.842-18.443h46.93c0.36062-2.2667 0.51519-4.2756 0.56674-6.1817 0-14.373-9.1698-29.157-27.664-29.157zm-155.37 0.05096c-17.412 0-30.703 13.342-30.703 31.27s13.291 31.425 30.703 31.682c8.2425 0 15.713-2.266 21.019-4.7903 0.51517-5.4607-1.4939-7.7275-4.0182-7.7275-3.5031 0-7.4697 3.8638-16.64 3.8638-11.591 0-21.019-8.9114-21.019-22.872 0-13.961 9.428-22.616 21.019-22.616 9.1698 0 13.085 3.8638 16.64 3.8638 2.5243 0 4.5334-2.2668 4.0182-7.7275-5.2031-2.6788-12.673-4.9463-21.019-4.9463zm89.639 0c-9.1183 0-15.816 4.4305-20.194 9.7366v-5.2026c0-2.2667-1.3405-3.7603-5.2042-3.7603-1.7515 0-3.6052 0.41109-4.5324 0.66867v60.12c0.92728 0.25758 2.7809 0.51424 4.5324 0.51424 3.9152 0 5.2042-1.3906 5.2042-3.7603v-38.585c3.194-5.8213 10.921-10.87 18.082-10.87 9.0153 1e-6 15.145 5.8725 15.145 18.236v34.362c0.9788 0.25758 2.937 0.51578 4.534 0.51578 3.9667 0 5.2026-1.3921 5.2026-3.7618v-32.454c0-17.824-10.353-25.707-22.769-25.758zm133.63 0c-7.4183 0-13.55 3.8649-17.413 9.068v-4.2761c0-2.5243-1.2876-4.0182-5.0482-4.0182-1.597 0-3.5037 0.41109-4.534 0.66867v60.017c0.82426 0.25758 2.7824 0.51578 4.534 0.51578 3.9667 0 5.2026-1.3921 5.2026-3.7618v-39.615c2.2667-4.894 8.0882-9.8401 14.888-9.8401 8.1395 0 12.262 5.3074 12.262 14.22v38.482c1.0303 0.25758 2.8844 0.51578 4.6359 0.51578 3.9667 0 5.2026-1.3921 5.2026-3.7618v-39.615c2.2667-4.894 8.0882-9.8401 14.888-9.8401 7.985 0 12.262 5.3074 12.262 14.22v38.482c0.97881 0.25758 2.9354 0.51578 4.5324 0.51578 3.9667 0 5.3061-1.3921 5.3061-3.7618v-36.318c0-12.003-6.902-21.843-19.884-21.895-8.9122 0-15.301 4.8953-19.422 10.923-3.194-6.8001-9.4267-10.923-17.412-10.923zm97.21 0c-8.4486 0-17.464 2.0094-23.491 4.2761-0.61819 5.3061 0.97844 7.831 3.7603 7.831 0.97881 0 2.4215-0.46391 4.2761-0.97907 3.6061-1.1849 8.9124-2.5249 15.043-2.5249 11.849 0 14.888 5.5639 14.888 14.888v1.6493c-26.737-1.7515-42.552 4.6358-42.552 19.266 0 9.685 7.4704 18.34 21.019 18.34 9.0153 0 15.815-3.5548 21.533-9.5822v5.0482c0 2.5243 1.5965 3.8128 5.2026 3.8128 1.7515 0 3.5037-0.25821 4.534-0.51579v-38.378c0-14.27-6.5427-23.08-24.213-23.132zm-282.15 0.82464c-4.0698 0-5.3061 1.4936-5.3061 3.7603v56.874c0.9788 0.25758 2.8839 0.5152 4.5324 0.56675 3.9667 0 5.3061-1.3906 5.3061-3.7603v-56.77c-0.97879-0.25758-2.9354-0.67021-4.5324-0.67021zm117.09 7.882c10.87 0 17.515 8.1395 17.927 18.494h-37.76c1.597-12.106 10.148-18.597 19.833-18.494zm173.04 23.691c2.0777 0.0064 4.2167 0.06401 6.3933 0.1606v11.591c-4.6364 6.1819-11.591 10.356-19.833 10.356-8.088 0-12.621-4.9463-12.621-10.252 0-9.421 11.517-11.9 26.061-11.855z" fill="#fff"/>
	<path d="m299.5 142.01c-3.7425 0-6.7803 1.0192-9.1133 3.0606-2.2844 1.9928-3.4277 5.0798-3.4277 9.2598v3.8633h-2.4785c-0.77766 0-1.4341 0.24443-1.9688 0.73046-0.48604 0.48604-0.72852 1.3357-0.72852 2.5508 0 0.53464 0.0237 1.0689 0.0723 1.6035s0.12154 0.97227 0.21875 1.3125h4.8848v28.361c0.87487 0.24302 2.1641 0.36328 3.8652 0.36328 1.5553 0 2.6238-0.31542 3.207-0.94726 0.58325-0.63186 0.875-1.4342 0.875-2.4063v-25.371h8.6035c0.77765 0 1.4085-0.24248 1.8945-0.72851 0.53464-0.48604 0.80273-1.3376 0.80273-2.5527s-0.12221-2.187-0.36523-2.916h-10.936v-3.3535c0-2.333 0.46129-3.9613 1.3848-4.8848 0.97207-0.92346 2.2357-1.3848 3.791-1.3848s2.7716 0.12221 3.6465 0.36523c0.87486 0.24302 1.7008 0.36328 2.4785 0.36328 1.0207 0 1.7974-0.33908 2.332-1.0195 0.58325-0.72906 0.875-1.8961 0.875-3.5v-1.0938c-1.2637-0.43743-2.7698-0.82579-4.5195-1.166-1.7497-0.34023-3.5476-0.50977-5.3945-0.50977zm93.902 5.9043c-1.0207 0-1.8467 0.12221-2.4785 0.36523-0.58324 0.24302-1.0465 0.5821-1.3867 1.0195-0.29163 0.43744-0.50849 0.92434-0.6543 1.459-0.0972 0.53464-0.14648 1.0925-0.14648 1.6758v5.0312h-3.1348c-0.77766 0-1.4341 0.24248-1.9688 0.72852-0.48603 0.48603-0.72851 1.3376-0.72851 2.5527 0 0.53464 0.0237 1.0689 0.0723 1.6035 0.0486 0.53464 0.12155 0.97227 0.21875 1.3125h5.541v17.279c0 1.7983 0.26614 3.4503 0.80078 4.957 0.53464 1.4581 1.3133 2.7454 2.334 3.8633 1.0207 1.0693 2.2606 1.9209 3.7188 2.5527 1.5067 0.58325 3.208 0.875 5.1035 0.875 2.09 0 3.9115-0.24443 5.4668-0.73047 1.6039-0.48604 3.112-1.1405 4.5215-1.9668 0.0486-0.24302 0.0723-0.48745 0.0723-0.73047v-0.80078c0-1.3609-0.2681-2.3584-0.80274-2.9902s-1.264-0.94727-2.1875-0.94727c-0.38883 0-0.80085 0.0729-1.2383 0.21875-0.38883 0.14581-0.82646 0.31536-1.3125 0.50977-0.43743 0.19442-0.948 0.36396-1.5312 0.50976-0.58324 0.14582-1.2397 0.21875-1.9688 0.21876-1.7011-1e-5 -2.9884-0.50862-3.8633-1.5293-0.87487-1.0207-1.3125-2.4558-1.3125-4.3027v-16.986h9.623c0.77765 0 1.4104-0.24248 1.8965-0.72852 0.53464-0.48603 0.80078-1.3376 0.80078-2.5527 0-1.2151-0.12026-2.187-0.36328-2.916h-11.957v-9.041c-0.92347-0.34022-1.9683-0.50976-3.1348-0.50976zm-69.115 8.8945c-2.9162 0-5.5657 0.24248-7.9473 0.72852-2.3816 0.43743-4.3726 0.92434-5.9766 1.459-0.0486 0.24302-0.0742 0.4855-0.0742 0.72852v0.65625c0 1.2637 0.24444 2.3341 0.73047 3.209 0.48604 0.87487 1.2391 1.3106 2.2598 1.3106 0.58324 0 1.1904-0.071 1.8223-0.2168 0.68046-0.19442 1.4335-0.38957 2.2598-0.58398 0.87486-0.24302 1.8467-0.43818 2.916-0.58399 1.0693-0.19442 2.3092-0.29101 3.7188-0.29101 2.7704 0 4.6905 0.51057 5.7598 1.5312 1.0693 0.97207 1.6035 2.6477 1.6035 5.0293v1.8242c-3.2078-0.58324-6.0761-0.875-8.6035-0.875-2.6732 0-4.9816 0.29176-6.9258 0.875-1.8956 0.58325-3.4746 1.4092-4.7383 2.4785-1.2637 1.0207-2.2119 2.2587-2.8438 3.7168-0.58325 1.4581-0.875 3.0628-0.875 4.8125 0 1.4581 0.24247 2.844 0.72851 4.1562 0.53464 1.2637 1.2896 2.3814 2.2617 3.3535 1.0207 0.97207 2.2587 1.7488 3.7168 2.332 1.5067 0.53464 3.208 0.80273 5.1035 0.80273 1.6525 1e-5 3.1113-0.19515 4.375-0.58398 1.3123-0.34023 2.4793-0.82518 3.5-1.457s1.894-1.3612 2.623-2.1875c0.77766-0.87487 1.4597-1.7738 2.043-2.6973h0.0723c0.0486 0.92348 0.12154 1.7987 0.21874 2.625 0.14581 0.82627 0.38829 1.5537 0.72852 2.1856 0.34023 0.58325 0.80152 1.0702 1.3848 1.459 0.63184 0.34022 1.4342 0.50976 2.4062 0.50976 0.87486 0 1.6279-0.0729 2.2598-0.21875 0.68045-0.14581 1.2403-0.31535 1.6777-0.50977-0.34023-1.1665-0.60832-2.235-0.80274-3.207-0.19441-1.0207-0.36396-2.0418-0.50976-3.0625-0.0972-1.0207-0.17015-2.1148-0.21875-3.2812v-11.592c0-2.333-0.24248-4.3753-0.72852-6.125-0.43743-1.7983-1.2398-3.3044-2.4062-4.5195-1.1179-1.2637-2.624-2.2119-4.5195-2.8438-1.8469-0.63185-4.181-0.94727-7-0.94727zm41.994 0c-2.4788 0-4.7143 0.55985-6.707 1.6777-1.9442 1.0693-3.5251 2.4532-4.7402 4.1543l-0.0723-1.0195c0-1.3609-0.33908-2.4313-1.0195-3.209-0.63185-0.82626-1.7023-1.2383-3.209-1.2383-0.68045 0-1.3113 0.0729-1.8945 0.21875-0.53464 0.0972-1.0708 0.21748-1.6055 0.36329v34.996c0.38883 0.0972 0.94868 0.17015 1.6777 0.21875 0.77765 0.0972 1.5307 0.14453 2.2598 0.14453 1.5553 0 2.6001-0.31542 3.1348-0.94726 0.58324-0.63186 0.875-1.4342 0.875-2.4063v-21.361c0.82626-1.4581 2.017-2.6251 3.5723-3.5 1.6039-0.87487 3.1849-1.3106 4.7402-1.3106 2.4788 0 4.3969 0.72743 5.7578 2.1856 1.3609 1.4581 2.043 3.7429 2.043 6.8535v20.123c0.38883 0.0972 0.94673 0.17015 1.6758 0.21875 0.77766 0.0972 1.5307 0.14453 2.2598 0.14453 1.5553 0 2.6001-0.31542 3.1348-0.94726 0.58325-0.63186 0.875-1.4342 0.875-2.4063v-18.008c0-4.8118-1.1414-8.506-3.4258-11.082-2.2844-2.576-5.3951-3.8633-9.332-3.8633zm64.74 0c-2.9162 0-5.5657 0.24248-7.9473 0.72852-2.3816 0.43743-4.3746 0.92434-5.9785 1.459-0.0486 0.24302-0.0723 0.4855-0.0723 0.72852v0.65625c0 1.2637 0.24248 2.3341 0.72851 3.209 0.48604 0.87487 1.2391 1.3106 2.2598 1.3106 0.58324 0 1.1924-0.071 1.8242-0.2168 0.68044-0.19442 1.4335-0.38957 2.2598-0.58398 0.87487-0.24302 1.8467-0.43818 2.916-0.58399 1.0693-0.19442 2.3092-0.29101 3.7188-0.29101 2.7704 0 4.6885 0.51057 5.7578 1.5312 1.0693 0.97207 1.6055 2.6477 1.6055 5.0293v1.8242c-3.2078-0.58324-6.0761-0.875-8.6035-0.875-2.6732 0-4.9816 0.29176-6.9258 0.875-1.8955 0.58325-3.4746 1.4092-4.7383 2.4785-1.2637 1.0207-2.2119 2.2587-2.8438 3.7168-0.58324 1.4581-0.875 3.0628-0.875 4.8125 0 1.4581 0.24248 2.844 0.72852 4.1562 0.53464 1.2637 1.2877 2.3814 2.2598 3.3535 1.0207 0.97207 2.2606 1.7488 3.7188 2.332 1.5067 0.53464 3.208 0.80273 5.1035 0.80273 1.6525 1e-5 3.1113-0.19515 4.375-0.58398 1.3123-0.34023 2.4774-0.82518 3.498-1.457 1.0207-0.63185 1.8959-1.3612 2.625-2.1875 0.77765-0.87487 1.4578-1.7738 2.041-2.6973h0.0742c0.0486 0.92348 0.12154 1.7987 0.21875 2.625 0.14581 0.82627 0.38829 1.5537 0.72852 2.1856 0.34022 0.58325 0.80152 1.0702 1.3848 1.459 0.63185 0.34022 1.4342 0.50976 2.4062 0.50976 0.87487 0 1.6279-0.0729 2.2598-0.21875 0.68044-0.14581 1.2403-0.31535 1.6777-0.50977-0.34022-1.1665-0.60831-2.235-0.80273-3.207-0.19442-1.0207-0.36396-2.0418-0.50977-3.0625-0.0972-1.0207-0.17015-2.1148-0.21875-3.2812v-11.592c0-2.333-0.24443-4.3753-0.73047-6.125-0.43743-1.7983-1.2378-3.3044-2.4043-4.5195-1.1179-1.2637-2.6259-2.2119-4.5215-2.8438-1.8469-0.63185-4.179-0.94727-6.998-0.94727zm35.213 0.14648c-2.576 0-4.7622 0.29176-6.5606 0.875-1.7983 0.53464-3.2808 1.264-4.4473 2.1875-1.1179 0.92347-1.9439 1.9919-2.4785 3.207-0.53464 1.2151-0.80274 2.4787-0.80274 3.791 0 2.4302 0.77672 4.4725 2.332 6.125 1.5553 1.6039 4.3014 2.9642 8.2383 4.082l5.1777 1.457c2.09 0.58325 3.5468 1.1668 4.373 1.75 0.82626 0.53464 1.2402 1.337 1.2402 2.4062 0 0.53464-0.0966 1.0452-0.29102 1.5312-0.14581 0.43744-0.46318 0.85141-0.94921 1.2402-0.48604 0.34022-1.1898 0.63003-2.1133 0.87305-0.87486 0.19441-2.0419 0.29296-3.5 0.29296-1.3123 0-2.5522-0.0986-3.7187-0.29296-1.1665-0.19442-2.235-0.41128-3.207-0.6543-0.92347-0.29162-1.7987-0.53605-2.625-0.73047-0.77766-0.19441-1.4578-0.29102-2.041-0.29102-0.97208 0-1.7251 0.38836-2.2598 1.166s-0.80273 1.7988-0.80273 3.0625v0.80273c0.0486 0.24302 0.0979 0.48551 0.14648 0.72852 2.333 0.82627 4.738 1.4827 7.2168 1.9688 2.5274 0.43743 4.958 0.65625 7.291 0.65625 2.9162 0 5.3232-0.31737 7.2188-0.94922 1.9442-0.63185 3.4739-1.4322 4.5918-2.4043 1.1179-1.0207 1.8966-2.164 2.334-3.4277 0.48604-1.3123 0.72851-2.6252 0.72851-3.9375 0-2.5274-0.82599-4.617-2.4785-6.2695-1.6039-1.6525-4.3993-3.0364-8.3848-4.1543l-5.4668-1.5312c-1.1179-0.29162-2.0168-0.55971-2.6973-0.80273-0.63185-0.29162-1.1424-0.58338-1.5312-0.875-0.34023-0.29163-0.58466-0.60704-0.73047-0.94727-0.0972-0.34023-0.14453-0.72858-0.14453-1.166 0-1.0207 0.46129-1.823 1.3848-2.4062 0.97208-0.58325 2.6241-0.875 4.957-0.875 2.5274 0 4.5933 0.26809 6.1973 0.80273 1.6525 0.48604 3.0128 0.72852 4.082 0.72852s1.848-0.38836 2.334-1.166c0.53464-0.82627 0.80078-1.944 0.80078-3.3535 0-0.19441-0.0237-0.3659-0.0723-0.51171v-0.65625c-4.666-1.5553-9.1133-2.332-13.342-2.332zm22.164 0.21875c-0.82627 0-1.6286 0.0966-2.4062 0.29102-0.77766 0.19441-1.4341 0.41323-1.9688 0.65625l13.633 34.412-5.9043 13.486c0.48604 0.19441 1.0439 0.3659 1.6758 0.51172 0.68045 0.14581 1.4828 0.21875 2.4062 0.21875 2.2844 0 3.8161-1.0468 4.5938-3.1367l17.789-45.564c-0.48604-0.24302-1.1188-0.43817-1.8965-0.58398-0.77766-0.19441-1.4814-0.29102-2.1133-0.29102-0.97207 0-1.8237 0.16954-2.5527 0.50977-0.68046 0.29162-1.191 0.89879-1.5312 1.8223l-8.8203 24.57-8.6035-24.496c-0.24302-0.77765-0.70431-1.3612-1.3848-1.75-0.68045-0.43743-1.6523-0.65625-2.916-0.65625zm-163.6 18.809c1.9442 0 4.156 0.21882 6.6348 0.65625v3.0625c-0.97207 2.0414-2.3323 3.7426-4.082 5.1035-1.7011 1.3609-3.7178 2.041-6.0508 2.041-1.7983 0-3.2571-0.41202-4.375-1.2383-1.1179-0.82626-1.6758-2.0189-1.6758-3.5742 0-1.9442 0.77671-3.4246 2.332-4.4453 1.6039-1.0693 4.009-1.6055 7.2168-1.6055zm106.73 0c1.9441 0 4.156 0.21882 6.6348 0.65625v3.0625c-0.97208 2.0414-2.3323 3.7426-4.082 5.1035-1.7011 1.3609-3.7198 2.041-6.0527 2.041-1.7983 0-3.2552-0.41202-4.373-1.2383s-1.6777-2.0189-1.6777-3.5742c0-1.9442 0.77866-3.4246 2.334-4.4453 1.6039-1.0693 4.009-1.6055 7.2168-1.6055z"/>
</svg>
