<svg xmlns="http://www.w3.org/2000/svg" width="3090.4" height="807" viewBox="0 0 2317.8 605.25" ><defs><linearGradient id="A" x1="1146.811" x2="1146.811" y1="319.673" y2="32.882" gradientUnits="userSpaceOnUse"><stop stop-color="#a80000" offset="0"/><stop stop-color="#a1000c" offset=".381"/><stop stop-color="#b90019" offset="1"/></linearGradient></defs><path d="M624.21 0h1248v375.09h-1248z" fill="url(#A)"/><path d="M624.21 375.09H25.01c-13.753 0-25.006-11.253-25.006-25.006V24.694C.004 11.566 10.944.001 24.697.001h599.52zM897.744 34.998c6.061-1.793 13.082-.458 17.778 3.871 6.721 5.881 8.071 16.855 2.925 24.169-3.811 5.941-11.274 9.279-18.228 7.996-8.709-1.358-15.978-9.549-15.648-18.468-.143-7.936 5.551-15.422 13.172-17.568zm-134.572 65.113c16.03-4.351 32.975-3.743 49.2-.825 12.422 2.408 24.769 6.098 35.961 12.054.615 5.588.48 11.649-2.258 16.713-1.838 3.428-5.551 5.776-9.474 5.603-5.753-.173-10.922-2.993-16.195-4.966-11.012-4.538-22.976-6.819-34.888-6.294-11.154.555-22.249 3.976-31.445 10.382-8.499 5.768-15.257 13.945-19.661 23.201-4.988 10.539-7.059 22.331-6.714 33.943.345 10.802 2.648 21.663 7.644 31.303 5.963 11.934 16.128 21.746 28.37 27.117 15.745 6.991 34.025 6.339 50.206 1.163 6.654-2.033 12.812-5.521 19.623-7.029 4.216-1.05 9.159.27 11.679 3.968 3.638 5.213 3.758 12.032 3.105 18.115-10.554 5.266-21.956 8.754-33.478 11.162-19.098 3.766-39.396 4.321-57.932-2.348-18.715-6.504-34.941-19.788-45.075-36.801-8.829-14.635-13.262-31.798-13.127-48.848-.195-19.121 5.348-38.406 16.383-54.099 11.409-16.383 28.775-28.43 48.075-33.515zm270.868-1.365c15.28-3.263 31.753-2.175 46.05 4.343 11.162 5.086 20.493 13.93 26.367 24.679 7.314 13.12 9.729 28.332 9.939 43.184l-.038 94.65c.128 4.021-2.115 8.191-6.113 9.414-7.179 2.28-14.905 1.148-22.166-.135l-.038-102.646c-.435-13.442-3.541-27.769-13.06-37.829-8.266-8.979-20.943-12.64-32.87-12.017-12.324.728-24.086 5.896-33.845 13.3-6.068 4.658-11.477 10.299-15.34 16.93-.855 1.223-.683 2.753-.72 4.163l.038 19.256-.008 90.307c.158 4.021-2.595 7.756-6.466 8.814-7.029 2.04-14.522 1.013-21.603-.195l.015-174.103c6.804-1.455 14.012-2.573 20.853-.735 3.683.945 6.939 4.043 7.111 8.004.263 5.566-.008 11.139.113 16.713 10.749-12.767 25.347-22.571 41.782-26.097zm150.474 13.772c23.059-16.405 54.391-20.051 80.765-9.977 12.437 4.846 23.419 13.27 31.415 23.951 8.154 10.757 13.352 23.584 15.835 36.816 2.258 11.882 2.145 24.139.203 36.051l-135.682.03c1.658 12.782 6.579 25.467 15.58 34.888 7.786 8.334 18.363 13.727 29.427 16.195 16.578 3.691 33.965 1.8 50.048-3.278 5.881-1.658 11.492-4.246 17.485-5.528 4.178-1.065 8.791.975 10.937 4.696 3.188 5.378 2.805 11.904 2.378 17.905-14.68 6.474-30.26 10.967-46.177 13.037-14.477 1.898-29.345 1.68-43.567-1.823-12.489-3.045-24.439-8.626-34.416-16.78-10.547-8.491-18.776-19.736-23.989-32.21-7.396-17.823-9.166-37.799-5.986-56.769 3.893-22.729 16.72-43.995 35.743-57.204m13.022 22.706c-10.232 8.634-16.54 21.093-19.496 34.003l-.968 6.128h108.85c-.225-3.683-.638-7.344-1.328-10.974-2.49-12.429-8.911-24.371-19.068-32.18-19.593-15.167-49.53-12.977-67.991 3.023zm212.166-35.331c15.94-5.153 34.265-3.601 48.593 5.326 8.934 5.483 15.783 13.87 20.321 23.254 6.856-9.842 15.602-18.565 26.269-24.221 13.375-7.171 29.337-8.956 44.115-5.783 10.547 2.265 20.426 7.801 27.567 15.933 9.234 10.344 13.937 24.064 15.182 37.724.728 7.779.3 15.602.413 23.411l-.045 90.389c.128 4.321-2.88 8.289-7.074 9.316-7.051 1.905-14.522.953-21.596-.39l-.015-96.33c-.173-8.416.495-16.893-.698-25.257-1.095-7.456-3.773-14.882-8.821-20.583-4.621-5.281-11.229-8.559-18.093-9.699-20.268-3.773-40.942 8.799-50.056 26.659-.908 2.093-.428 4.456-.518 6.669l-.015 109.322c.21 4.238-2.415 8.469-6.616 9.572-7.194 1.988-14.83.975-22.054-.33l-.008-66.296-.195-50.948c-.548-6.969-2.138-13.997-5.693-20.081-3.436-5.971-9.009-10.704-15.527-12.97-11.207-3.938-23.944-2.573-34.34 3.03-7.749 4.096-14.447 10.172-19.271 17.485-1.335 2.235-3.226 4.441-3.181 7.186-.075 2.813.023 5.626.015 8.439l-.008 104.852c.225 4.186-2.288 8.409-6.436 9.564-7.111 2.048-14.725 1.125-21.873-.27l.008-173.9c6.489-1.433 13.307-2.58 19.901-1.088 3.788.803 7.194 3.773 7.734 7.741.645 5.063.143 10.194.3 15.28 8.101-10.457 19.046-18.926 31.715-23.006zm282.495-2.46c12.895-.923 26.022-.645 38.646 2.378 10.307 2.453 20.358 7.134 27.807 14.822 8.139 8.094 12.67 19.158 14.665 30.32 2.138 10.817 1.373 21.881 1.508 32.833l-.023 97.126c-6.714 1.238-13.712 2.1-20.448.6-4.006-.818-7.524-4.231-7.636-8.446-.12-5.401.008-10.802-.038-16.195-7.246 7.644-15.527 14.41-24.971 19.143-12.64 6.436-27.034 9.001-41.137 8.394-11.454-.473-22.984-3.308-32.795-9.369-10.787-6.579-19.151-17.178-22.541-29.397-3.593-12.872-2.415-27.387 4.628-38.909 5.086-8.319 12.985-14.567 21.573-18.986 12.489-6.361 26.359-9.467 40.191-11.237 18.13-2.235 36.471-2.108 54.684-.945-.068-7.861-.135-15.843-2.205-23.486-1.613-5.971-4.733-11.672-9.549-15.64-5.363-4.411-12.174-6.624-18.956-7.621-18.858-2.505-38.016.855-56.011 6.541-3.781 1.035-7.501 2.385-11.402 2.828-3.938.383-7.981-1.68-9.797-5.213-2.828-5.393-2.64-11.762-1.913-17.635 17.913-6.489 36.726-10.464 55.719-11.904m18.978 93.788c-13.052.788-26.322 2.243-38.519 7.216-7.006 2.933-13.772 7.576-17.253 14.53-5.258 10.434-2.715 24.071 5.986 31.895 5.963 5.633 14.005 8.589 22.076 9.422a66.53 66.53 0 0 0 36.313-7.126c9.782-4.906 18.25-12.197 25.077-20.711.6-.855 1.553-1.658 1.433-2.828l.038-32.248a339.16 339.16 0 0 0-35.151-.15zm-816.205-90.774c7.239-2.318 15.025-1.073 22.294.518l.008 163.864c.023 3.06-.728 6.414-3.256 8.401-3.173 2.528-7.456 2.933-11.364 3.053-4.733.09-9.437-.503-14.065-1.403l.008-165.371c-.09-4.021 2.49-7.876 6.376-9.061z" fill="#fff"/><path d="M421.97 333.52c4.063 2.188 12.19 4.689 22.818 4.689 17.817.313 27.507-6.564 34.696-22.505l95.648-213.18c-4.063-2.188-12.816-4.376-19.692-4.689-12.19-.313-28.757 2.188-39.384 27.507l-30.945 73.142-60.952-98.461c-4.063-1.25-13.441-2.813-20.63-2.813-21.255 0-33.445 7.814-45.948 21.255l-58.764 64.39 47.511 74.705c8.752 13.753 20.317 20.63 39.072 20.63 12.19 0 22.505-2.813 27.194-5.001l-57.201-86.27 40.635-42.823 66.578 104.4zm-125.34-80.644c0 15.629-6.252 24.693-36.884 24.693-4.064 0-7.502-.313-10.94-.938V68.461c0-15.941 5.314-32.195 36.258-32.195 3.751 0 7.814.313 11.565 1.25zm-63.452-31.257c0 29.382-19.067 50.637-58.139 55.013-28.132 3.126-69.079-.625-88.458-2.813-.625-3.126-1.25-7.189-1.25-10.315 0-25.631 13.753-31.57 26.881-31.57 13.441 0 34.696 2.188 50.637 2.188 17.504 0 22.505-5.939 22.505-11.565 0-7.502-6.877-10.315-20.63-13.128l-36.571-6.564c-30.632-5.939-46.886-27.194-46.886-49.699 0-27.506 19.38-50.324 57.513-54.7 28.757-3.126 64.078.313 83.145 2.813.625 3.438.938 6.564.938 10.002 0 25.631-13.441 30.945-26.569 30.945-10.002 0-25.318-1.875-43.135-1.875-18.129 0-25.318 5.001-25.318 10.94 0 6.251 7.189 9.065 18.442 10.94l35.321 6.564c36.259 6.877 51.575 27.507 51.575 52.825" fill="url(#A)"/><path d="M1872.2 375.09h420.6c13.753 0 25.006-11.253 25.006-25.006V24.754c0-13.253-11.003-24.756-24.756-24.756H1872.2z" fill="#fff" fill-rule="evenodd"/><g fill="url(#A)"><path d="M1943.7 100.27c6.502-2.501 13.503-1.25 20.005.25v75.768h87.02v-65.265c-.25-4.751 2.001-9.502 6.752-11.253 6.252-2 12.753-.75 19.005.75v168.04c.5 4.501-2.501 8.752-6.502 10.252-6.501 2-13.003.75-19.255-1v-77.518h-87.02v68.266c.25 4.251-2.251 8.252-6.002 10.002-6.502 2.25-13.503 1-20.005-.75v-166.79c-.25-4.251 1.75-9.002 6.002-10.753z"/><path d="M2117.7 101.52c2.751-2.001 6.252-2.251 9.502-2.251h31.007c14.253 0 28.257.5 41.76 5.001 21.755 6.502 40.76 21.755 50.512 42.26 8.252 18.004 10.002 38.509 7.002 57.764-4.001 22.505-16.754 43.76-35.508 57.013-15.754 11.003-35.008 16.754-54.263 16.754h-40.509c-3.751-.25-8.252 0-10.753-3.251-2.751-3.501-2.501-8.002-2.501-12.253v-150.04c0-4.001.25-8.502 3.751-11.003m22.255 21.505V254.3h27.757c16.004-.25 32.508-5.251 44.26-16.504 14.003-12.503 20.755-31.757 20.255-50.262.5-14.503-4.001-29.257-13.003-40.76-8.252-10.502-20.255-17.754-33.258-21.005-7.502-2.251-15.504-2.751-23.506-2.751z"/></g><path d="M25.006 0C11.253 0 0 11.253 0 25.006v226.3c0-20.005 16.003-36.509 36.008-37.259l2281.8-69.266V25.001c0-13.753-11.253-25.006-25.006-25.006z" opacity=".2" fill="#fff"/><path d="M1157.871 459l4.24 32.725c.976 7.169 1.944 14.347 2.51 21.559-2.345-1.234-4.548-2.906-7.186-3.454-.025 1.245.217 2.47.412 3.695 1.724 10.178 3.356 20.378 4.563 30.634.16 1.45.416 2.895.444 4.36-.284-.106-.588-.177-.786-.418l-4.411-4.626 8.809 53.574c.483 2.844.824 5.485 1.407 8.2.499-1.734.542-3.559.824-5.336 1.022-10.961 1.622-21.958 2.459-32.934.935 1.952 1.967 3.853 2.953 5.78.639 1.161 1.153 2.393 1.914 3.485l.684.127.063-14.702c.117-2.793-.104-5.592.152-8.378l.089-16.255 5.444 10.951c.279-.37.811-.682.697-1.217l-1.686-27.96c-.208-1.873-.165-3.766-.228-5.646.436.16.646.592.887.957l6.736 10.989c.314.479.981.34 1.47.342 2.53-.241 4.99-.959 7.383-1.793 3.582-1.298 7.142-3 9.791-5.811 1.891.368 3.747 1.006 5.513 1.787l-.032 18.695c.144 3.503-.281 7.095.722 10.507.768 2.444 2.785 4.171 4.607 5.849 3.247 2.844 6.653 5.502 10.057 8.156 1.475 1.194 3.501 1.008 5.273.906 2.122-.16 4.003-1.218 5.906-2.072a79.39 79.39 0 0 0 5.279-2.687c2.294-1.267 4.259-3.138 5.602-5.387.852-1.379 1.053-3.018 1.324-4.582.507-3.361.739-6.759.716-10.158.119-6.134-.938-12.207-1.521-18.295l-.12-.19c-.041-1.202-.265-2.385-.425-3.574-.241-1.592-.411-3.229-1.103-4.702-.629-1.404-1.62-2.619-2.738-3.663-2.973-2.748-6.214-5.252-9.816-7.123-1.523-.872-3.286-.104-4.772.456-5.186 2.198-9.979 5.21-14.709 8.245-1.113.669-2.048 1.705-2.37 2.985-.274 1.08-.826 2.056-1.47 2.953-1.747-.175-3.327-.992-5-1.464l2.155-25.596c.089-1.622.498-3.355-.209-4.899-.753-1.805-2.082-3.269-3.264-4.797l-13.251-15.989c-.966-.142-1.915.096-2.807.444l-8.834 3.175c-.418.144-.862.193-1.293.253-.439-2.558.157-5.134.203-7.7-4.205-.051-8.422.194-12.63-.032-2.976-.185-5.957-.227-8.935-.349zm31.914 10.963c.396-.01.782.119 1.128.33.241.431.328.918.374 1.407 1.328 7.186 1.743 14.489 2.148 21.775.119 1.676-.03 3.378.203 5.038a283.01 283.01 0 0 1 .063 10.475c-.788.142-1.587.056-2.37-.051-2.292-.228-4.589.119-6.838.52-1.156.129-2.298.351-3.454.463-.271-9.962-.118-19.93-.222-29.892l.006-6.825c-.005-.57.177-1.333.849-1.432 2.525-.763 5.147-1.148 7.712-1.749a1.68 1.68 0 0 1 .399-.057zm45.805 35.653c.337 1.204.03 2.461-.355 3.612-.847 1.853-2.352 3.298-3.98 4.474-1.452 1.118-3.418 1.257-4.772 2.535-.185-.292-.265-.605-.247-.944.005-1.113-.079-2.242.215-3.327 2.92-2.289 6.061-4.281 9.138-6.35zm-51.394 7.199c.844.041 1.709-.01 2.535.215 2.261.183 4.501.588 6.698 1.153l.222.551a13.54 13.54 0 0 0 .044.634c-.844 1.369-1.867 2.61-2.871 3.859-.958.35-1.449-.649-2.034-1.179-1.564-1.716-3.119-3.445-4.594-5.235zm52.313 4.525c.7 5.212 1.397 10.427 1.8 15.672.152 1.858.011 3.73.222 5.583.117 1.529-.16 3.047-.114 4.575-.03 2.968-.313 5.927-.665 8.872-.246 1.534-.384 3.12-1.008 4.563-1.43.821-2.852 1.672-4.411 2.224-.383.172-.805.191-1.21.158-1.093-1.123-2.337-2.171-3.105-3.555-.512-5.605-.984-11.231-1.179-16.863-.233-1.754-.141-3.534-.209-5.298-.307-4.426-.184-8.872-.222-13.308.651-.292 1.303-.584 1.977-.83 1.219-.573 2.491-1.025 3.695-1.641 1.47-.132 2.952-.134 4.43-.152z"/><path d="M1100.207 471.879c.636-.165 1.473.018 1.762.669.241 3.321.142 6.674.398 9.992l.144.695c.286-.028.596-.025.834-.223 1.711-1.174 3.389-2.395 5.136-3.516.831-.507 1.668-1.057 2.619-1.313.887-.129 1.541.629 1.987 1.293 1.293 1.916 2.274 4.023 3.26 6.112 1.11 2.573 2.413 5.105 3.042 7.853.324 1.062-.768 1.673-1.468 2.208-3.518 2.464-7.143 4.786-10.895 6.885-.864.55-1.295-.788-1.883-1.204a53.77 53.77 0 0 1 2.274-2.537c.309-.279.109-.728.043-1.072l-2.631-8.799-.101-.616c-.819-.208-1.663-.076-2.408.304l-.274.517c-.175 4.657.02 9.316-.013 13.975l.025 17.247c.195 1.597.081 3.207.109 4.811l.109 12.472c.733 1.83 2.517 2.89 3.648 4.403-1.037.053-2.066-.056-3.085-.213-1.516-.025-3.047-.139-4.548-.152-2.439-.233-4.91-.068-7.328.259-1.09.137-2.205.02-3.283.251-1.409.003-2.91.269-4.233-.347-.689-.314-1.384-.626-2.096-.887l.139-.332c1.275-.74 2.38-1.734 3.442-2.745.935-.948 1.891-2.003 2.152-3.354.781-3.739.872-7.569 1.115-11.366l.312-33.225c-.035-.418.091-.887-.124-1.267.36-.943.076-2.046.165-3.052a52.07 52.07 0 0 0-1.878.588l-.854.03-.401-.641c.428-.558.999-.971 1.521-1.435l11.207-11.077c.53-.624 1.278-.999 2.061-1.189zm-111.301 2.479c2.157.203 4.307.606 6.487.563 3.549.18 7.113.21 10.659-.063 2.831-.109 5.648-.601 8.482-.53-.134.907-1.024 1.333-1.447 2.076-1.245 2.094-2.246 4.357-2.798 6.733a40.62 40.62 0 0 0-.337 5.265l.086 28.102c-.099.436.373.611.715.449 5.402-1.346 10.994-1.762 16.548-1.597 1.997.086 4.076-.079 6 .542l-.109.654c-.603.221-1.232.426-1.719.862-1.523 1.26-2.913 2.674-4.345 4.036-.36.393-.956.783-.773 1.404.553 3.095.684 6.251 1.29 9.336l3.673 12.875c.459 0 .885-.167 1.196-.512.669-.687 1.473-1.224 2.183-1.866.264-2.791.362-5.602.433-8.406.19-1.934.122-3.876.183-5.815.074-10.188-.124-20.401-1.354-30.525-.565.134-1.138.261-1.66.52-2.674 1.209-5.29 2.555-7.78 4.109-.672.393-1.3.943-1.546 1.706-.565 1.764-.406 3.653-.309 5.475l-1.219.393c-2.127-3.425-4.332-6.839-5.838-10.596-.431-1.288-1.103-2.596-.847-3.992 1.037-.494 1.881-1.288 2.826-1.924 3.779-2.674 7.764-5.11 12.053-6.877.583-.198 1.402-.606 1.883-.008 3.972 3.98 7.818 8.086 11.625 12.223 2.051 2.292 4.297 4.679 4.913 7.805.583 3.65.669 7.351.684 11.039-.033 4.221.106 8.449-.198 12.662l-.119 9.716c1.455.662 3.141.722 4.674.317-.066.466-.426.786-.75 1.09l-6.444 5.716c-1.48 1.242-2.218 3.128-3.691 4.378-1.572 1.384-3.929 1.503-5.848.887-1.965-1.019-1.959-3.483-2.119-5.397-2.563 1.843-5.075 3.759-7.579 5.681-1.181.913-2.745.395-4.061.142-.961-.266-2.19-.644-2.454-1.744l-3.323-10.104c-1.209-3.782-2.629-7.513-3.442-11.409-.347-1.25.271-2.474.892-3.521 1.676-2.7 4.079-4.824 6.357-6.994-3.546.677-7.237 1.242-10.403 3.085l.051 26.157c.17 3.721-.008 7.447.117 11.169l.147 13.153c.261 3.42.811 7.143 3.184 9.795.854 1.06 2.241 1.414 3.191 2.352a6.52 6.52 0 0 1-.489 1.146c-.428.003-.854.028-1.278-.028-4.707-.763-9.455-1.313-14.221-1.503-4.487-.033-8.994-.203-13.458.337-.223-.733-.966-1.308-.913-2.099 2.487-1.392 4.882-3.326 5.861-6.101 1.242-3.521 1.404-7.295 1.711-10.981.317-6.674.416-13.361.226-20.041-.17-4.474-.132-8.968-.695-13.417-4.667 3.653-10.444 5.496-16.155 6.763l.238 27.856c.094 1.949-.091 3.914.139 5.856.568 2.129 2.662 3.222 4.408 4.271.401.266 1.047.839.687 1.326-.728.091-1.397-.261-2.089-.411-2.223-.479-4.497-.626-6.755-.826-7.513-.504-15.05-.631-22.578-.672-.269-.081-1.011-.34-.456-.588l.081-.867c2.684-1.06 5.384-2.601 6.875-5.169.91-1.534.933-3.359 1.087-5.08.21-3.382.15-6.773.281-10.16l-.165-14.061c-3.561-1.65-7.128-3.298-10.601-5.131-2.421-1.194-4.137-3.389-5.607-5.584-1.234-1.939-2.34-3.972-3.204-6.107v-.52c3.873-1.757 8.139-2.365 12.317-2.938.003.413.122.958-.319 1.196-2.603 1.559-5.354 2.875-7.891 4.55.852.996 1.914 1.772 2.976 2.525 2.935 2.033 6.114 3.688 9.328 5.232.877.393 1.741.925 2.733.935.157-1.64.056-3.293.074-4.938-.114-3.371-.025-6.753-.279-10.119-.084-2.54.003-5.087-.228-7.617l-.897-25.372c-.517-2.651-2.842-4.459-5.285-5.283.043-.504.345-1.011.867-1.125.857-.079 1.721.013 2.578.068 1.176.172 2.365.063 3.549.089 1.769-.023 3.546.081 5.311-.117l8.112-.132c2.312-.18 4.634-.213 6.953-.223l-.246 1.493c-1.437.735-2.347 2.193-2.73 3.724-.279 1.589-.241 3.212-.261 4.821l.142 12.672c.089 3.549.03 7.105.269 10.649l.16 8.124c.205 3.45.208 6.915.464 10.368 1.668-.231 3.169-1.07 4.657-1.805 4.036-2.226 7.967-4.697 11.544-7.612.038-14.363-.36-28.735-1.498-43.05-.053-1.498-1.25-2.573-2.512-3.176-.705-.284-.92-1.039-.837-1.736zm282.22-.294c.771-.147.958.684.933 1.275l.213 10.537c.117 2.066-.079 4.16.221 6.205 2.454-.028 4.908.084 7.364.074l.152 1.341c.21.733.094 1.511.314 2.241a50.08 50.08 0 0 1 .205 2.39l-7.08.112c-.327-.023-.634.071-.925.185-.444 7.131-.079 14.276-.226 21.415l-.591 18.527c-.208.907-.086 1.85-.152 2.773l-.89 21.027c-.104 1.785-.484 3.843.684 5.376 1.894 1.916 4.084 3.531 6.332 5.009-.466.527-.89 1.123-1.473 1.521-.456.003-.847-.286-1.247-.444-4.631-2.299-9.311-4.515-13.774-7.133-1.136-.667-2.248-1.452-2.966-2.578-.705-1.034-.905-2.309-.915-3.534l.441-19.767c.218-6.517.94-12.999 1.07-19.518.129-6.75.066-13.534-.619-20.246-.053-.981-.185-1.952-.39-2.91-3.6.015-7.196-.051-10.793-.051-.046-.634-.071-1.267-.023-1.901 4.363-2.431 8.375-5.47 12.139-8.748 3.681-3.26 7.011-6.913 9.937-10.864.626-.821 1.227-1.681 2.058-2.314zm-208.414 4.679c.575-.317 1.123-.869 1.828-.806 1.034.17 1.962.684 2.938 1.034.545 2.489.54 5.093.935 7.61l.091.887.36.271c1.349-1.085 2.847-1.967 4.304-2.897 1.346-.842 2.92-1.579 4.548-1.328 1.029.248 1.579 1.257 2.074 2.101 1.11 2.248 2.071 4.57 2.991 6.902 1.042 2.532 2.16 5.075 2.664 7.777-.061.859-.466 1.655-1.217 2.109-3.316 2.155-6.712 4.185-10.109 6.208-.38.21-.748.504-1.204.469-.246-.433-.558-.821-.907-1.169.824-.814 1.584-1.688 2.35-2.553l-.208-.144c-.218-1.308-.649-2.568-.991-3.848l-2.428-8.436c-.167-.781-1.1-1.691-1.845-.978-.21.819-.076 1.676-.071 2.51l.537 17.28c.292 1.995.008 4.046.332 6.043.231 3.739.733 7.458.946 11.199.515 4.558.489 9.184 1.214 13.724.464 1.265 1.797 1.881 2.915 2.459l.289.492-.18.593c-7.062.172-14.129.139-21.197.147-.75 0-1.506.038-2.251-.086.39-.968 1.067-1.83 1.975-2.357.915-.515 1.838-1.06 2.568-1.823.266-.264.373-.626.342-.991l-.023-21.554c.079-1.019-.18-2.02-.137-3.039l-.122-16.246c-.292-3.161-.03-6.36-.459-9.513-2.573-.003-5.166-.124-7.724.2-.451-.122-1.138-.39-1.184-.923zm230.82 2.36c.345-.682.717-1.414 1.452-1.754l.662.365c.261 2.137.213 4.292.332 6.436.19.824.086 1.676.144 2.515l.583 12.477c1.202-.028 2.411.03 3.612-.076.847.162 1.691-.084 2.542-.068 1.328.015 2.659.003 3.987-.046-.081 1.67.035 3.374-.292 5.022-3.204.129-6.413.276-9.607.56l.033 11.298c.167.565.094 1.158.106 1.739l.122 18.763c.243 2.864.106 5.747.203 8.621l.324 15.693c.177 2.837.081 5.691.385 8.52l8.025 4.231c.728.286 1.435 1.057 2.253.816 1.81-1.229 3.422-2.73 5.087-4.142.418-.261.15-.76.053-1.12-2.748-.847-5.61-1.212-8.408-1.838-.971-.266-2.271-.19-2.793-1.224 1.815-.489 3.719-.21 5.574-.144l12.91.766c.454.086 1.166.094 1.186.74.101.842-.72 1.222-1.219 1.719-1.995 1.823-3.769 3.866-5.655 5.797-1.133 1.146-1.876 2.667-3.267 3.546-.482.411-1.169.352-1.729.185-4.573-1.414-9.113-2.946-13.567-4.695-4.096-1.638-8.279-3.283-11.848-5.929-.479-.451-1.138-.887-1.174-1.607-.393-6.763-.292-13.536-.302-20.309l.167-7.858c.033-11.267-.253-22.53-.487-33.795-1.815.091-3.638.089-5.445-.068-.791-.03-1.176-1.004-.872-1.653.228-.388.532-.722.849-1.044 3.536-3.574 6.854-7.384 9.696-11.544 2.439-3.435 4.484-7.131 6.373-10.892zm62.814 10.074c.71-.532 1.47.152 1.582.887.421 2.226.398 4.51.773 6.743l7.906-4.773c.578-.352 1.039-.948 1.754-1.034.477-.089 1.141-.063 1.42.413 1.181 1.65 2.183 3.425 3.242 5.156 1.638 2.867 3.313 5.731 4.517 8.814.426 1.006.494 2.147.292 3.214-.766 1.554-2.292 2.494-3.536 3.627l-10.829 8.52c-.34-.522-.811-.933-1.257-1.351.978-1.503 2.134-2.887 3.161-4.357.076-.342-.041-.682-.129-1.006l-3.929-12.555c-.935.649-1.873 1.3-2.842 1.901l.616 22.847c.266 2.606.109 5.252.259 7.873.259 2.253.048 4.55.294 6.809.129 5.767.433 11.526.707 17.285.248 1.992 1.759 3.518 3.409 4.504 2.084 1.247 4.433 1.985 6.788 2.527.406.109.819.18 1.237.297.981.129 1.957.332 2.951.431l-.058 1.673c-2.142.122-4.286-.025-6.426.01-.923-.058-1.856.046-2.758-.139-2.905.008-5.802-.322-8.624-1.006-2.824-.624-5.612-1.394-8.375-2.241-3.483-1.024-7.126-1.787-10.768-1.351-.241-.56-.492-1.118-.649-1.703 3.044-.269 5.153-2.859 6.748-5.224 1.24-2.545 1.237-5.46 1.295-8.228.084-7.949-.106-15.896-.157-23.846-.223-2.086-.076-4.213-.165-6.314.02-4.385-.302-8.755-.226-13.141-1.26-.071-2.512.172-3.769.122-.025-.307-.046-.615-.061-.923.548-.829 1.016-1.731 1.777-2.393z" fill="#030303"/><path d="M1322.922 497.333c-.679.019-1.358.1-2.003.272l-14.404 11.508c-.52 2.431-.57 4.949-.9 7.408-.028 1.632-.662 3.19-.646 4.823.286 6.669.219 13.341.311 20.013-.025 1.632-.551 3.202-.615 4.829.948.986 1.823 2.043 2.763 3.042 3.376 3.473 6.762 7.001 10.767 9.759.624.484 1.431.577 2.186.716 1.927.177 3.871.402 5.805.108.938.058 1.645-.655 2.167-1.35 1.759-2.586 3.752-5.003 5.653-7.484 1.014-1.422 2.269-2.693 3.029-4.278-1.668-2.406-2.93-5.143-4.968-7.262l-.925.082c-.172 1.584-.545 3.129-.887 4.683-.986 4.041-2.06 8.099-3.872 11.863-.205.378-.425 1.138-.982.76-2.804-1.577-4.869-4.445-5.589-7.573-.436-2.603-.293-5.26-.513-7.883l-.133-9.873c-.023-.426.038-.882-.177-1.267.248-.39.147-.845.051-1.261.117-1.785-.432-3.728.501-5.393 2.684-.03 5.271.771 7.864 1.369l4.651 1.185c.327.099.653.172.995.253l3.39.862c.408.091.949.214 1.248-.184 2.253-2.099 3.643-4.923 5.057-7.605-.487-1.683-1.231-3.305-1.806-4.968l-2.56-6.812c-.535-1.293-.913-2.653-1.496-3.923-1.721-1.085-3.572-1.975-5.349-2.978l-2.003-1.027c-1.762-.869-3.497-1.847-5.393-2.389-.402-.024-.809-.037-1.217-.025zm-.444 4.442c.477.011.892.252.989.817l2.991 7.586 3.853 9.607a13.74 13.74 0 0 0-.006.646c-1.546.079-3.087-.213-4.613-.38-2.19-.127-4.368-.439-6.553-.621.008-2.586.284-5.157.38-7.738.314-3.029.081-6.227 1.382-9.056.254-.518.965-.876 1.578-.862z"/><path d="M1133.592 502.511c2.147.423 4.36.142 6.53.395 1.944.038 3.873.248 5.797.492 1.082.038 2.183.091 3.25-.162l-.071.641c-.92 1.501-1.802 3.042-2.466 4.677-2.352 5.08-5.103 9.957-7.83 14.844-2.454 4.33-4.636 8.809-7.052 13.161-6.373 11.45-13.321 22.614-21.283 33.032-4.332.084-8.659-.289-12.958-.801-4.081-.636-8.147-1.44-12.114-2.603-1.369-.368-2.715-.821-4.056-1.275-.935-.337-1.881-.644-2.801-1.019-.961-.365-1.901-.773-2.842-1.176-1.681-.733-3.321-1.549-4.93-2.418-.114-.943.583-1.772.986-2.58 1.698-2.672 3.949-4.925 6.236-7.087 3.305.223 6.601.619 9.901.892.819.238 1.785-.104 2.507.433-.079.469-.57.512-.92.644l-8.17 2.236c-.573.106-.649.768-.877 1.204-.439 1.196-1.032 2.388-1.065 3.688 1.952.933 4.16 1.067 6.264 1.44 6.92.938 13.949 1.366 20.91.659l7.731-12.327c.766-1.12 1.399-2.33 2.251-3.389.39-.487.16-1.169.058-1.721-1.777-6.261-3.739-12.469-5.668-18.685l-2.522-7.866-1.273-3.805c-.474-1.285-.852-2.611-1.452-3.845-.733-.907-2.008-1.095-3.1-1.207a2.85 2.85 0 0 1 .479-.935c.875-.01 1.747-.038 2.621-.089 2.768-.274 5.574-.132 8.352-.324 3.61.051 7.204-.456 10.801-.573-.7 1.516-2.778 1.333-3.683 2.651-.456.51-.515 1.234-.332 1.871l4.34 16.109c.221.603.274 1.321.798 1.759 2.553-3.995 4.766-8.195 7.105-12.319l2.76-5.207c.421-.854.459-1.825.793-2.707.317-1.027.657-2.047 1.019-3.06l.53-1.323c-1.754-.167-3.247-1.224-4.555-2.324z" fill="#030303"/></svg>