<?xml version="1.0" encoding="UTF-8"?>
<svg width="800" height="189.06" version="1.1" xmlns="http://www.w3.org/2000/svg">
	<defs>
		<linearGradient id="A" x1="-1513.4" x2="-1511.2" y1="-154.48" y2="-154.48" gradientTransform="matrix(-.99485 -28.508 28.49 -.99548 3033.4 -43199)" gradientUnits="userSpaceOnUse">
			<stop stop-color="#fff" offset="0"/>
			<stop stop-color="#fff" stop-opacity=".25" offset=".515"/>
		</linearGradient>
		<linearGradient id="B" x1="-1481.9" x2="-1479.7" y1="-160.9" y2="-160.9" gradientTransform="matrix(-1.1737 -42.386 33.61 -1.4802 4220.1 -62965)" gradientUnits="userSpaceOnUse">
			<stop stop-color="#fff" offset="0"/>
			<stop stop-color="#fff" stop-opacity=".25" offset=".515"/>
		</linearGradient>
	</defs>
	<g>
		<path d="m787.38 0h-472.91c-6.9544 0-12.624 5.6694-12.624 12.624v163.81c0 6.9544 5.6694 12.624 12.624 12.624h472.91c6.9544 0 12.624-5.6694 12.624-12.624v-163.81c0-6.9544-5.6694-12.624-12.624-12.624" fill="#ffed00"/>
		<path d="m188.91 175.38c2.268 1.134 6.8034 2.5699 12.548 2.7215 9.9029 0.22706 15.27-3.553 19.276-12.397l52.915-117.85c-2.1919-1.134-7.0298-2.4944-10.961-2.5699-6.8034-0.15094-15.95 1.2095-21.771 15.119l-17.16 40.366-33.639-54.654c-2.1919-0.68054-7.484-1.5875-11.339-1.5875-11.944 0-18.52 4.309-25.399 11.792l-32.656 35.68 26.306 41.274c4.8379 7.5594 11.263 11.414 21.62 11.414 6.8034 0 12.473-1.5875 15.119-2.797l-31.674-47.623 22.451-23.736 36.813 57.677zm-69.469-44.6c0 8.6934-3.4014 13.682-20.41 13.682-2.268 0-4.2335-0.15094-6.1229-0.45347v-115.2c0-8.7689 2.9479-17.916 20.108-17.916 2.1919 0 4.3844 0.22706 6.4254 0.68054zm-35.075-17.386c0 16.252-10.583 28.045-32.203 30.388-15.572 1.663-38.174-0.30254-48.909-1.512-0.378-1.7384-0.68054-3.931-0.68054-5.6694 0-14.136 7.6349-17.386 14.816-17.386 7.484 0 19.201 1.285 27.969 1.285 9.6759 0 12.548-3.2504 12.548-6.3499 0-4.0819-3.8555-5.7449-11.339-7.1814l-20.486-3.931c-16.933-3.2504-26.004-14.967-26.004-27.44 0-15.194 10.734-27.818 31.9-30.162 15.95-1.7384 35.453 0.22706 46.112 1.512 0.378 1.8145 0.60507 3.553 0.60507 5.443-0.07547 14.136-7.5594 17.16-14.741 17.16-5.5185 0-14.06-0.98242-23.887-0.98242-9.9784 0-14.06 2.797-14.06 6.1229 0 3.553 3.931 4.9889 10.129 6.1229l19.503 3.6284c20.108 3.6284 28.725 14.967 28.725 28.952m253.01-17.84c0-26.533 19.503-46.187 45.28-46.187 12.095 0 23.207 3.3259 30.993 7.0298 1.285 8.3154-1.285 11.717-4.9889 11.717-6.5009 0-12.095-5.3669-25.399-5.3669-16.706 0-30.464 12.397-30.464 32.808 0 20.183 13.758 32.808 30.464 32.808 13.38 0 18.898-5.5939 24.87-5.5939 3.931 0 6.6525 3.553 5.5939 11.868-7.7858 3.931-18.898 7.2569-30.993 7.2569-25.853 0-45.356-20.032-45.356-46.338m148.24-37.872c0 6.1229-2.5699 7.4078-8.9198 7.4078-12.775 0-23.585 5.9719-30.237 19.881v50.269c0 3.7039-2.041 5.7449-8.1638 5.7449-2.5699 0-5.5939-0.37801-7.0298-0.75601v-89.198c1.512-0.378 4.4599-0.75601 7.0298-0.75601 6.1229 0 8.1638 2.1919 8.1638 5.7449v12.397c8.6934-13.153 21.846-19.881 38.401-17.613 0.22706 1.285 0.756 4.0819 0.756 6.8789m11.112-26.911c0-5.5939 4.4599-9.6759 9.6759-9.6759 5.5939 0 9.8268 4.0819 9.8268 9.6759 0 4.9889-4.2335 9.6759-9.8268 9.6759-5.2159 0-9.6759-4.6109-9.6759-9.6759m2.041 109.46v-84.21c0-3.553 2.041-5.7449 8.1638-5.7449 2.5699 0 5.3669 0.378 6.8789 0.75601v84.21c0 3.7039-1.8146 5.7449-7.9374 5.7449-2.646 0-5.5939-0.37801-7.106-0.75601m162.9-58.584v53.595c0 3.7039-2.041 5.7449-8.1638 5.7449-2.5699 0-5.5939-0.37801-7.0298-0.75601v-56.77c0-13.002-6.1229-20.561-17.84-20.561-9.8268 0-17.991 6.8789-21.317 13.909v58.433c0 3.7039-2.041 5.7449-8.1638 5.7449-2.5699 0-5.5939-0.37801-7.0298-0.75601v-56.77c0-13.002-6.1229-20.561-17.84-20.561-9.8268 0-17.991 6.8789-21.317 13.909v58.433c0 3.7039-2.041 5.7449-8.1638 5.7449-2.5699 0-5.5939-0.37801-7.0298-0.75601v-89.199c1.512-0.378 4.4599-0.75601 7.2569-0.75601 5.7449 0 7.7858 2.1919 7.7858 6.1229v6.1229c5.7449-7.6349 14.665-13.153 25.399-13.153 11.868 0 21.166 5.9719 25.777 16.101 6.1229-9.2979 15.421-16.101 28.574-16.101 19.125 0 29.103 14.287 29.103 32.278m103.03 19.428h-69.016c2.041 17.235 13.909 26.911 31.522 26.911 7.6349 0 13.531-1.512 19.125-3.3259 3.931-1.285 5.5939-1.89 7.0298-1.89 4.2335 0 7.0298 3.553 6.2745 11.717-8.0129 3.553-20.259 7.4078-33.034 7.4078-27.818 0-46.565-18.747-46.565-46.565 0-26.684 19.881-46.036 44.146-46.036 27.44 0 40.971 21.317 40.971 42.861 0.15094 2.646-0.0755 5.8203-0.45348 8.9199m-68.94-11.868h54.729c-0.52894-15.194-10.356-27.062-26.155-27.062-13.758 0-26.231 9.4488-28.574 27.062" fill="#172935"/>
		<path d="m92.929 28.817v79.067c0-3.1776 2.4196-6.5067 6.5028-6.6583l13.308-0.45413c2.6467-0.0755 6.6538-1.8913 6.7299-6.7338v-82.471c-2.0416-0.45412-4.2342-0.68119-6.4274-0.68119-17.164 0.07547-20.114 9.1547-20.114 17.931m60.491 27.541-32.665 35.712 2.6467 4.0858c1.134 1.5133 3.3272 4.0858 7.7123 3.9342l18.601-0.68119c4.0832-0.15159 6.6538 1.5888 8.2419 3.7072l-5.8223-8.7767 22.457-23.833 15.047 23.682c2.7222 3.5562 6.8054 3.6317 7.7123 3.6317 0.75601 0 20.567-0.68119 21.399-0.75666 1.3611-0.07547 2.9492 0.68119 4.1587 2.4209l-32.741-53.265c-2.1926-0.68119-7.4859-1.5888-11.342-1.5888-11.947-0.07547-18.525 4.2368-25.406 11.727m-121.51-10.97c-21.172 2.3454-31.909 14.981-31.909 30.189 0 7.793 3.5536 15.283 10.359 20.656 5.1418 3.4046 10.434 4.6909 15.652 5.5991 4.3103 0.75666 14.367 1.4378 21.853 1.1347l23.289-0.83213c8.7715-0.30253 13.459 7.1879 13.006 14.678v-0.378c0.07547-0.98372 0.15094-1.9674 0.15094-2.9505 0-13.997-8.6199-25.423-28.657-29.13l-19.509-3.6317c-6.2758-1.0592-10.133-2.5725-10.133-6.1287 0-3.3292 4.1587-6.1287 14.064-6.1287 9.8301 0 18.374 0.98372 23.894 0.98372 7.1834 0 14.669-3.0266 14.669-17.175 0-1.8913-0.22706-3.6317-0.60507-5.4475-7.6368-0.90825-19.887-2.1945-32.06-2.1945-4.7638 0.07547-9.5275 0.30253-14.064 0.75666m208.85 15.056-16.711 39.42c0-0.07547 1.0585-3.1021 4.3103-3.2537l17.694-0.60507c5.3688-0.22706 7.4859-3.8588 8.091-5.0695l19.357-43.202c-2.1926-1.1347-7.0318-2.497-10.964-2.5725h-0.83147c-6.7299 0.07547-15.35 1.8913-20.945 15.283" fill="url(#A)" opacity=".3"/>
		<path d="m311.86 0c-5.5191 0-10.018 5.674-10.018 12.634v91.011c0-1.4372 0.41964-8.927 7.199-9.7591 0 0 0.35979-0.07547 0.95965-0.07547l482.56-21.334c3.7794-0.15159 7.4391-3.7072 7.4391-9.6082v-50.158c0-6.9602-4.499-12.634-10.018-12.634z" fill="url(#B)" opacity=".3"/>
	</g>
</svg>
