<?xml version="1.0" encoding="UTF-8"?>
<svg width="800" height="189.14" version="1.1" viewBox="0 0 800 189.14" xmlns="http://www.w3.org/2000/svg" xmlns:xlink="http://www.w3.org/1999/xlink">
	<defs>
		<linearGradient id="A" x1="349.61" x2="349.61" y2="120" gradientTransform="matrix(1.5762 0 0 1.5762 .00404 0)" gradientUnits="userSpaceOnUse">
			<stop stop-color="red" offset=".4"/>
			<stop stop-color="#d42321" offset="1"/>
		</linearGradient>
		<linearGradient id="B" x1="350.28" x2="348.19" y1="56.105" y2="-3.656" gradientUnits="userSpaceOnUse">
			<stop stop-color="#fff" offset="0"/>
			<stop stop-color="#fff" stop-opacity=".835" offset=".12"/>
			<stop stop-color="#fff" stop-opacity=".658" offset=".269"/>
			<stop stop-color="#fff" stop-opacity=".511" offset=".42"/>
			<stop stop-color="#fff" stop-opacity=".397" offset=".568"/>
			<stop stop-color="#fff" stop-opacity=".315" offset=".716"/>
			<stop stop-color="#fff" stop-opacity=".266" offset=".86"/>
			<stop stop-color="#fff" stop-opacity=".25" offset="1"/>
		</linearGradient>
		<linearGradient id="C" x1="86.85" x2="86.85" y1="6.925" y2="113.08" gradientTransform="matrix(1.5762 0 0 1.5762 .00404 0)" gradientUnits="userSpaceOnUse">
			<stop stop-color="#002a91" offset="0"/>
			<stop stop-color="#002672" offset=".8"/>
		</linearGradient>
		<linearGradient id="D" x1="87.683" x2="86.28" y1="63.167" y2="22.976" gradientTransform="matrix(1.5762 0 0 1.5762 .00404 0)" xlink:href="#B"/>
		<linearGradient id="linearGradient861" x1="350.28" x2="348.19" y1="56.105" y2="-3.656" gradientTransform="matrix(1.5762 0 0 1.5762 .00404 0)" gradientUnits="userSpaceOnUse" xlink:href="#B"/>
	</defs>
	<g>
		<path d="m314.7 0h472.69c6.9853 0 12.609 5.6236 12.609 12.609v163.92c0 6.9853-5.6236 12.609-12.609 12.609h-472.69c-6.9853 0-12.609-5.6236-12.609-12.609v-163.92c0-6.9853 5.6236-12.609 12.609-12.609z" fill="url(#A)"/>
		<path d="m311.17 93.842 1.1932-0.06305 478.22-16.698a9.5059 9.5059 0 0 0 9.416-9.5784l5e-3 -54.893a12.609 12.609 0 0 0-12.609-12.609h-472.69a12.609 12.609 0 0 0-12.609 12.609v91.031a9.5721 9.5721 0 0 1 9.0756-9.799z" fill="url(#linearGradient861)" opacity=".4"/>
		<path d="m188.97 175.53a31.324 31.324 0 0 0 12.573 2.6827c9.8841 0.21752 15.264-3.5543 19.261-12.408l52.979-117.96a29.095 29.095 0 0 0-10.975-2.5408c-6.8311-0.14343-15.989 1.2357-21.802 15.164l-17.15 40.409-33.65-54.7a49.264 49.264 0 0 0-11.339-1.5951c-11.918 0-18.531 4.3518-25.436 11.825l-32.704 35.697 26.308 41.353c4.8704 7.5435 11.265 11.39 21.66 11.39a38.626 38.626 0 0 0 15.114-2.8261l-31.686-47.67 22.457-23.794 36.846 57.749zm-69.51-44.622c0 8.7052-3.4172 13.713-20.424 13.713a39.969 39.969 0 0 1-6.1045-0.43344v-115.35c0-8.7792 2.979-17.923 20.129-17.923a30.747 30.747 0 0 1 6.3976 0.65411zm-35.078-17.411c0 16.25-10.612 28.077-32.197 30.401-15.625 1.6692-38.229-0.29159-48.984-1.5258a30.067 30.067 0 0 1-0.65253-5.6584c0-14.148 7.6302-17.412 14.826-17.412 7.4868 0 19.261 1.3051 27.982 1.3051 9.6651 0 12.572-3.2643 12.572-6.3819 0-4.065-3.8522-5.7325-11.337-7.1841l-20.495-3.9168c-17.009-3.2674-26.092-15.021-26.092-27.498 0-15.163 10.756-27.861 31.905-30.181 15.989-1.7433 35.466 0.21594 46.151 1.5226a27.132 27.132 0 0 1 0.58003 5.4409c0 14.146-7.4852 17.195-14.681 17.195-5.5228 0-14.099-1.0151-23.911-1.0151-9.9567 0-14.101 2.7583-14.101 6.0934 0 3.5543 3.9247 5.0059 10.174 6.095l19.551 3.6284c20.059 3.6977 28.707 15.09 28.707 29.092z" fill="url(#C)"/>
		<path d="m273.78 47.845-19.395 43.184a9.0109 9.0109 0 0 1-8.0826 5.0563l-17.719 0.61943a4.9775 4.9775 0 0 0-4.3235 3.2154l8e-3 -0.02049 16.736-39.43c5.8145-13.93 14.972-15.308 21.803-15.164a29.095 29.095 0 0 1 10.975 2.5408zm-50.804 51.603-32.772-53.274a49.264 49.264 0 0 0-11.339-1.5951c-11.918 0-18.531 4.3518-25.436 11.825l-32.704 35.699 2.6117 4.1044a8.7225 8.7225 0 0 0 7.7358 3.9026l18.643-0.65254a9.3861 9.3861 0 0 1 8.2575 3.6977l-5e-3 -6e-3 -5.8507-8.7997 22.457-23.794 15.087 23.644a9.5358 9.5358 0 0 0 7.7137 3.5953l21.436-0.74868a5.061 5.061 0 0 1 4.1611 2.4053zm-109.92-88.533c-17.15 0-20.129 9.1433-20.129 17.923v79.057a6.7066 6.7066 0 0 1 6.5332-6.6813l13.278-0.46339a6.7286 6.7286 0 0 0 6.716-6.746v-82.435a30.747 30.747 0 0 0-6.3976-0.65411zm-57.388 73.495-19.551-3.6284c-6.2495-1.0891-10.174-2.5392-10.174-6.095 0-3.3352 4.1422-6.0934 14.101-6.0934 9.8116 0 18.386 1.0151 23.911 1.0151 7.1952 0 14.681-3.0483 14.681-17.195a27.142 27.142 0 0 0-0.58003-5.4409c-10.685-1.3067-30.162-3.2659-46.151-1.5226-21.151 2.3217-31.907 15.019-31.907 30.181a26.064 26.064 0 0 0 10.335 20.628 39.425 39.425 0 0 0 15.694 5.608 133.96 133.96 0 0 0 21.871 1.1475l23.324-0.81489c8.7477-0.29473 13.487 7.1668 12.999 14.643l0.02522-0.29947 0.0079-0.0883q0.12137-1.4517 0.12294-2.9538c-0.0016-14-8.65-25.392-28.709-29.092z" fill="url(#D)" opacity=".25"/>
		<path d="m338.37 135.9c-1.1144-7.7973 1.2988-11.883 5.7545-11.883 4.2715 0 14.67 4.6418 29.15 4.6418 15.226 0 20.981-5.3842 20.981-12.441 0-5.0138-2.2272-9.4696-15.968-13.182l-15.781-4.2715c-17.453-4.6403-24.324-13.368-24.324-24.136 0-13.369 10.584-25.25 34.534-25.25a101.28 101.28 0 0 1 32.307 5.5701c1.4848 7.6113-0.92836 11.697-5.5701 11.697-4.0839 0-13.366-3.8995-26.551-3.8995-14.11 0-19.31 4.8278-19.31 11.139 0 4.4574 2.0427 8.5412 14.67 12.069l16.153 4.4559c18.009 5.0137 25.25 13.368 25.25 25.252 0 13.926-10.768 26.365-36.763 26.365a109.05 109.05 0 0 1-34.534-6.1281zm178.26-40.29c0 29.15-20.424 46.417-42.891 46.417a37.699 37.699 0 0 1-30.822-15.224v37.505c0 3.5275-2.0412 5.7545-7.9817 5.7545a33.298 33.298 0 0 1-7.2425-0.74238v-118.27a33.191 33.191 0 0 1 7.2425-0.74395c5.9405 0 7.9817 2.2287 7.9817 5.7545v8.5412a37.699 37.699 0 0 1 30.822-15.224c22.467 0 42.891 17.267 42.891 46.233zm-15.41 0c0-19.496-12.997-32.865-30.45-32.865a31.416 31.416 0 0 0-27.851 16.897v32.121a31.416 31.416 0 0 0 27.851 16.897c17.453-2e-3 30.45-13.369 30.45-33.049zm29.669 0c0-26.552 19.496-46.233 45.675-46.233 26.366 0 45.861 19.68 45.861 46.233 0 26.365-19.494 46.417-45.861 46.417-26.179 0-45.675-20.054-45.675-46.417zm76.126 0c0-20.424-13.741-32.865-30.45-32.865-16.525 0-30.264 12.441-30.264 32.865 0 20.238 13.74 33.049 30.264 33.049 16.709 0 30.45-12.811 30.45-33.049zm89.028-37.877c0 6.1281-2.5991 7.4269-8.9117 7.4269-12.811 0-23.58 5.9421-30.263 19.868v50.316c0 3.7135-2.0427 5.7561-8.1708 5.7561a34.096 34.096 0 0 1-7.0565-0.74395v-89.306a34.096 34.096 0 0 1 7.0565-0.74395c6.1281 0 8.1708 2.2287 8.1708 5.7545v12.439c8.7257-13.182 21.907-19.865 38.434-17.637a45.074 45.074 0 0 1 0.74237 6.8689zm66.768 78.167a60.491 60.491 0 0 1-25.624 6.1281c-17.638 0-28.222-10.398-28.222-27.665v-76.68c0-3.8995 2.2287-6.4985 8.1708-6.4985a32.586 32.586 0 0 1 7.0549 0.92836v19.31h34.722a46.567 46.567 0 0 1 0.55638 6.1281c0 5.3841-2.2272 7.2409-5.5686 7.2409h-29.708v48.457c0 10.398 4.8278 15.41 14.668 15.41 8.9116 0 13.926-3.8995 18.195-3.8995 4.4558 0 6.6845 3.7119 5.7561 11.14z" fill="#fff"/>
	</g>
</svg>
