<svg xmlns="http://www.w3.org/2000/svg" viewBox="0 0 1011.8 262.5" ><path d="M1003.9 0c4.377 0 7.905 3.563 7.905 7.905v147.01a7.94 7.94 0 0 1-7.905 7.905H797.65c-4.377 0-7.905-3.562-7.905-7.905V7.935c0-4.377 3.563-7.905 7.905-7.905h206.25" fill="#fff"/><path d="M903.77 48.789v62.666c0 2.748-1.391 4.275-5.666 4.275-1.934 0-3.732-.271-5.123-.543V86.348h-35.76v25.141c0 2.748-1.391 4.275-5.666 4.275-2.07 0-4.139-.271-5.123-.543v-62.7c0-2.646 1.391-4.275 5.802-4.275 1.934 0 3.834.271 4.953.543v27.889h35.591V52.521c0-2.646 1.527-4.275 5.938-4.275 2.036 0 3.936.271 5.055.543m73.359 33.114c0 18.796-13.13 33.012-33.691 33.012h-19.17c-4.139 0-5.666-1.662-5.666-4.275V53.335c0-2.612 1.527-4.275 5.666-4.275h19.17c20.561 0 33.691 14.08 33.691 32.843m-10.925 0c0-14.08-8.821-23.207-22.766-23.207h-14.08v46.516h14.08c13.945.034 22.766-9.093 22.766-23.309" fill="#9c001f"/><g transform="matrix(.65155 0 0 .65155 -9.837995 -107.440593)"><path d="M126.7 314.7c0 21.5-14 37.1-42.6 40.2-20.6 2.2-50.5-.4-64.7-2-.5-2.3-.9-5.2-.9-7.5 0-18.7 10.1-23 19.6-23 9.9 0 25.5 1.7 37 1.7 12.8 0 16.6-4.3 16.6-8.4 0-5.4-5.1-7.6-15-9.5L49.6 301c-22.5-4.3-34.5-19.8-34.5-36.3 0-20 14.2-36.8 42.2-39.9 21.1-2.3 46.9.3 61 2 .5 2.4.8 4.7.8 7.2 0 18.7-9.9 22.7-19.4 22.7-7.3 0-18.6-1.3-31.6-1.3-13.2 0-18.6 3.6-18.6 8 0 4.7 5.2 6.6 13.4 8.1l25.8 4.8c26.6 4.9 38 19.9 38 38.4m46.3 23c0 11.5-4.5 18.1-27 18.1-3 0-5.6-.2-8.1-.6V202.9c0-11.6 3.9-23.7 26.6-23.7 2.9 0 5.8.3 8.5.9zm91.9 59c3 1.5 9 3.4 16.6 3.5 13.1.3 20.2-4.7 25.5-16.4l70-155.7c-2.9-1.5-9.3-3.3-14.5-3.4-9-.2-21.1 1.6-28.8 20L310.9 298l-44.5-72.3c-2.9-.9-9.9-2.1-15-2.1-15.8 0-24.5 5.8-33.6 15.6l-43.2 47.2 34.8 54.7c6.4 10 14.9 15.1 28.6 15.1 9 0 16.5-2.1 20-3.7l-41.9-63 29.7-31.5 48.7 76.3z" fill="#ff0031"/><linearGradient id="A" x1="414.37" x2="1244.631" y1="289.839" y2="289.839" gradientUnits="userSpaceOnUse"><stop stop-color="#ff0031" offset="0"/><stop stop-color="#9b001f" offset="1"/></linearGradient><path d="M1228 164.9H430.9c-9.2 0-16.7 7.5-16.7 16.7v216.5c0 9.2 7.5 16.7 16.7 16.7h797c9.2 0 16.7-7.5 16.7-16.7V181.5c-.1-9.2-7.4-16.6-16.6-16.6" fill="url(#A)"/><linearGradient id="B" x1="197.483" x2="194.588" y1="295.135" y2="212.243" gradientUnits="userSpaceOnUse"><stop stop-color="#fff" offset="0"/><stop stop-color="#fff" stop-opacity=".25" offset=".515"/></linearGradient><path d="M138 202.9v104.5c0-4.2 3.2-8.6 8.6-8.8l17.6-.6c3.5-.1 8.8-2.5 8.9-8.9v-109c-2.7-.6-5.6-.9-8.5-.9-22.7.1-26.6 12.1-26.6 23.7m80 36.4l-43.2 47.2 3.5 5.4c1.5 2 4.4 5.4 10.2 5.2l24.6-.9c5.4-.2 8.8 2.1 10.9 4.9l-7.7-11.6L246 258l19.9 31.3c3.6 4.7 9 4.8 10.2 4.8 1 0 27.2-.9 28.3-1 1.8-.1 3.9.9 5.5 3.2l-43.3-70.4c-2.9-.9-9.9-2.1-15-2.1-15.8-.1-24.5 5.6-33.6 15.5M57.3 224.8c-28 3.1-42.2 19.8-42.2 39.9 0 10.3 4.7 20.2 13.7 27.3 6.8 4.5 13.8 6.2 20.7 7.4 5.7 1 19 1.9 28.9 1.5l30.8-1.1c11.6-.4 17.8 9.5 17.2 19.4v-.5c.1-1.3.2-2.6.2-3.9 0-18.5-11.4-33.6-37.9-38.5l-25.8-4.8c-8.3-1.4-13.4-3.4-13.4-8.1 0-4.4 5.5-8.1 18.6-8.1 13 0 24.3 1.3 31.6 1.3 9.5 0 19.4-4 19.4-22.7 0-2.5-.3-4.8-.8-7.2-10.1-1.2-26.3-2.9-42.4-2.9-6.3.1-12.6.4-18.6 1m276.2 19.9l-22.1 52.1c0-.1 1.4-4.1 5.7-4.3l23.4-.8c7.1-.3 9.9-5.1 10.7-6.7l25.6-57.1c-2.9-1.5-9.3-3.3-14.5-3.4h-1.1c-8.9.1-20.3 2.5-27.7 20.2" fill="url(#B)" opacity=".3" enable-background="new"/><linearGradient id="C" x1="830.555" x2="826.25" y1="276.73" y2="153.473" gradientUnits="userSpaceOnUse"><stop stop-color="#fff" offset="0"/><stop stop-color="#fff" stop-opacity=".25" offset=".515"/></linearGradient><path d="M430.9 164.9c-9.2 0-16.7 7.5-16.7 16.7v120.2c0-1.8.7-11.7 12-12.8 0 0 .6-.1 1.6-.1l804.4-28.2c6.3-.2 12.4-4.9 12.4-12.7v-66.3c0-9.2-7.5-16.7-16.7-16.7z" fill="url(#C)" opacity=".3" enable-background="new"/><g fill="#fff"><path d="M1190.1 275.3v74.5c-2 .5-5.4 1-8.8 1-7 0-10.1-2.5-10.1-7.4v-9.8c-11.1 11.7-24.3 18.6-41.8 18.6-26.3 0-40.8-16.8-40.8-35.6 0-28.4 30.7-40.8 82.6-37.4V276c0-18.1-5.9-28.9-28.9-28.9-11.9 0-22.2 2.6-29.2 4.9-3.6 1-6.4 1.9-8.3 1.9-5.4 0-8.5-4.9-7.3-15.2 11.7-4.4 29.2-8.3 45.6-8.3 34.3.1 47 17.2 47 44.9m-19.1 40.8v-22.5c-33.8-1.5-63 1.8-63 22.7 0 10.3 8.8 19.9 24.5 19.9 16 0 29.5-8.1 38.5-20.1m-709.6-25c0-34.8 25.8-60.7 59.6-60.7 16.2 0 30.7 4.4 40.8 9.6 1 10.6-2.9 15-7.8 15-6.9 0-14.5-7.5-32.3-7.5-22.5 0-40.8 16.8-40.8 43.9s18.3 44.4 40.8 44.4c17.8 0 25.5-7.5 32.3-7.5 4.9 0 8.8 4.4 7.8 15-10.3 4.9-24.8 9.3-40.8 9.3-33.8-.5-59.6-26.7-59.6-61.5m413.8 7.8h-91.1c2.9 22.7 18.9 35.8 42.4 35.8 10.1 0 17.8-2.3 25.3-4.6 4.9-1.8 7.5-2.8 9.6-2.8 4.9 0 8.5 4.6 7.3 15.2-10.3 4.6-26.1 9.6-42.9 9.6-36.4 0-61.5-24.8-61.5-61.2 0-35.1 26.1-60.6 58.3-60.6 35.9 0 53.7 28.7 53.7 56.6-.1 3.7-.4 7.6-1.1 12m-91-15.7h73.3c-.8-20.1-13.7-35.9-34.8-35.9-18.8-.2-35.4 12.4-38.5 35.9m-201.8-77.6c0-7.2 5.7-12.4 12.4-12.4 6.9 0 12.2 5.4 12.2 12.4 0 6.4-5.4 12.2-12.2 12.2s-12.4-5.9-12.4-12.2m2.7 144.1V239.3c0-4.4 2.4-7.3 10.3-7.3 3.1 0 6.9.8 8.8 1.3v110.2c0 4.6-2.6 7.3-10.3 7.3-3.2-.1-6.9-.6-8.8-1.1"/><path d="M1064.5 272.9v70.5c0 4.6-2.6 7.3-10.3 7.3-3.1 0-6.9-.5-8.8-1V275c0-17.3-8.3-27.6-23.8-27.6-13.2 0-24.5 9.6-28.9 19.1v76.9c0 4.6-2.4 7.3-10.1 7.3-3.4 0-7-.5-9-1V275c0-17.3-8-27.6-23.8-27.6-13.2 0-24.5 9.6-28.9 19.1v76.9c0 4.6-2.4 7.3-10.1 7.3-3.4 0-7.2-.5-8.8-1V233.2c2-.5 5.7-1.3 8.8-1.3 7.3 0 9.8 2.9 9.8 7.8v8.3c7.5-10.1 19.4-17.6 33.8-17.6 15.5 0 27.6 8 33.8 21.2 8-11.7 20.4-21.2 37.7-21.2 25.2.1 38.6 19.2 38.6 42.5m-325.3 7.5v63c0 4.6-2.4 7.3-10.1 7.3-3.1 0-6.9-.5-8.8-1V283c0-24-11.9-35.4-29.4-35.4-13.9 0-28.9 9.8-35.1 21.1v74.9c0 4.6-2.5 7.3-10.1 7.3-3.4 0-7-.5-8.8-1V233.2c1.8-.5 5.4-1.3 8.8-1.3 7.5 0 10.1 2.9 10.1 7.3v10.1c8.5-10.3 21.5-18.9 39.2-18.9 24.1.1 44.2 15.4 44.2 50"/></g></g><path d="M449.136 198.018c1.901-.618 4.187-.374 5.708 1.012 2.286 1.838 2.687 5.547.839 7.826-1.229 1.617-3.352 2.459-5.353 2.152-2.907-.324-5.206-3.245-4.842-6.148.147-2.149 1.661-4.07 3.649-4.842zm-84.346 1.551c2.479-.652 5.079-.227 7.575.124l-.01 23.953c2.646-3.362 6.359-6.092 10.637-6.85 4.745-.809 10.045-.09 13.797 3.134 4.163 3.485 5.761 9.109 5.881 14.362l.02 23.665c.043 1.661-.856 3.482-2.56 3.93-2.47.661-5.066.254-7.552-.1l-.004-26.208c-.094-2.683-.652-5.544-2.476-7.615-1.644-1.888-4.171-2.784-6.626-2.84-3.863-.207-7.776 1.554-10.202 4.565-.391.555-.929 1.116-.902 1.841l-.013 26.452c.017 1.674-.872 3.549-2.63 3.95-2.453.588-5.012.21-7.475-.147l.004-58.298c-.043-1.644.829-3.482 2.536-3.916zm-42.91 7.168c4.772-3.398 10.62-5.246 16.481-5.176 5.918-.117 11.782 1.216 17.273 3.358.371 2.613.334 5.794-1.844 7.652-1.517 1.343-3.706.902-5.42.237-4.234-1.534-8.865-2.245-13.32-1.34-5.026 1.036-9.46 4.424-11.896 8.926-2.834 5.096-3.358 11.211-2.379 16.885.906 5.089 3.622 10.022 8.04 12.865 5.053 3.265 11.579 3.492 17.223 1.788 1.774-.481 3.465-1.49 5.363-1.333 1.898.004 3.669 1.323 4.257 3.118.568 1.728.481 3.592.284 5.377-5.22 2.239-10.887 3.405-16.571 3.385-5.697.191-11.472-1.213-16.327-4.23-6.175-3.736-10.553-10.055-12.434-16.976-1.444-5.387-1.557-11.131-.391-16.581 1.571-7.111 5.664-13.747 11.662-17.955zm193.483-.999c2.272-.722 4.772-.491 7.034.18l.006 11.355 15.034.006c.448 1.878.635 3.879.187 5.774-.331 1.354-1.738 2.145-3.061 2.139l-12.16.02-.004 21.727c.027 2.005.618 4.163 2.209 5.5 1.714 1.437 4.14 1.554 6.252 1.163 1.634-.264 3.078-1.143 4.672-1.551 1.554-.398 3.452.23 4.144 1.758.728 1.591.635 3.405.528 5.109-3.659 2.112-7.816 3.419-12.063 3.392-4.017.147-8.224-.986-11.181-3.813-2.102-2.005-3.482-4.695-4.067-7.525-.444-2.092-.451-4.241-.434-6.369v-19.392c-2.323-.004-4.645.004-6.964-.004-.321-1.744-.438-3.542-.207-5.303a3 3 0 0 1 2.516-2.526c1.541-.207 3.101-.07 4.655-.104.05-2.499-.113-5.006.104-7.495.127-1.714 1.073-3.502 2.8-4.043zm50.465 11.011c4.09-.739 8.551.107 11.846 2.72 1.895 1.477 3.185 3.582 4.046 5.798 2.399-4.077 6.192-7.689 10.997-8.531 3.328-.471 6.88-.307 9.945 1.19 2.242 1.076 4.01 2.988 5.146 5.179 1.527 2.894 2.082 6.206 2.142 9.454l.005 25.407c.077 1.674-.839 3.569-2.59 3.963-2.443.598-4.992.217-7.442-.137l-.005-26.903c-.037-2.66-.304-5.638-2.303-7.612-1.694-1.791-4.311-2.306-6.677-2.012-3.335.307-6.236 2.693-7.673 5.638l-.067 27.318c-.005 1.611-.962 3.322-2.616 3.709-2.453.595-5.016.214-7.478-.144l.005-27.879c-.005-2.877-.949-6.105-3.569-7.652-2.891-1.604-6.723-1.397-9.417.521-1.527 1.086-2.984 2.473-3.689 4.237l-.037 27.288c.017 1.567-.926 3.248-2.533 3.616-2.456.615-5.029.23-7.492-.13l.006-44.119c2.473-.661 5.32-1.283 7.686.037 1.908 1.233 2.122 3.726 2.172 5.788 2.256-3.278 5.654-5.908 9.591-6.74zm55.247 2.483c5.718-1.774 11.692-2.871 17.694-2.71 4.939-.063 10.386.719 14.085 4.297 3.222 3.121 4.057 7.789 4.227 12.087.171 5.574.005 11.151.087 16.722.127 3.957.782 7.89 1.905 11.682-1.972.765-4.127 1.089-6.232.832a4.816 4.816 0 0 1-3.642-2.52c-.969-1.798-.949-3.896-1.17-5.871-1.474 2.192-3.128 4.347-5.383 5.784-3.95 2.65-8.939 3.285-13.577 2.643-3.134-.475-6.225-1.838-8.384-4.207-2.342-2.479-3.442-5.965-3.311-9.34-.03-3.84 1.44-7.793 4.434-10.292 3.666-3.091 8.578-4.147 13.26-4.321 4.184-.171 8.367.341 12.481 1.066-.057-2.65.157-5.584-1.45-7.866-1.216-1.697-3.408-2.226-5.367-2.453-4.491-.514-8.986.384-13.293 1.597-1.617.377-3.712.829-4.989-.548-1.504-1.811-1.564-4.351-1.373-6.583m13.634 21.804c-1.972.347-3.957 1.059-5.447 2.436-1.938 1.841-2.479 4.939-1.39 7.358.825 1.744 2.663 2.74 4.478 3.155 3.335.708 6.994.026 9.761-1.995 2.332-1.771 4.331-4.087 5.463-6.8.134-1.223.02-2.459.047-3.686-4.251-.719-8.628-1.203-12.912-.468zM413.221 217.66c2.292-.605 4.815-1.166 7.105-.257 1.668.645 2.47 2.476 2.62 4.15.107 1.437.01 2.88.054 4.317 1.307-3.061 3.251-6.045 6.276-7.639 3.275-1.868 7.238-1.671 10.82-.992.494 2.162.929 4.595-.197 6.637-.832 1.51-2.667 2.075-4.294 2.008-2.767-.024-5.704.08-8.13 1.574-1.791.979-3.091 2.71-3.669 4.655-.638 2.092-.565 4.307-.565 6.47l-.004 19.739c.006 1.521-.889 3.168-2.443 3.562-2.473.668-5.086.254-7.579-.097zm35.454-.421c2.423-.595 4.962-.227 7.398.134l-.006 40.905c.017 1.557-.952 3.201-2.523 3.606-2.446.672-5.026.251-7.495-.09l-.006-40.608c-.104-1.701.909-3.519 2.633-3.946zm29.761-.338c7.124-.778 14.326.468 21.096 2.68.147 1.958.207 4.113-.916 5.821-.602.952-1.724 1.471-2.834 1.413-2.904.127-5.544-1.31-8.388-1.617-2.61-.314-5.263-.431-7.876-.09-1.343.184-2.75.545-3.746 1.521-1.424 1.36-1.343 4.087.394 5.153 2.078 1.337 4.572 1.748 6.904 2.456 4.789 1.41 9.871 2.399 14.038 5.31 2.643 1.805 4.371 4.832 4.585 8.027.277 3.565-.648 7.469-3.322 9.998-2.78 2.74-6.703 3.973-10.493 4.464-7.836.889-15.796-.468-23.201-3.041-.288-2.102-.281-4.511 1.153-6.229.852-1.036 2.306-1.223 3.559-1.026 2.717.377 5.29 1.404 7.987 1.878 2.623.551 5.323.585 7.993.444 1.844-.194 3.866-.548 5.226-1.925 1.49-1.688 1.35-4.828-.719-6.005-2.52-1.474-5.427-2.032-8.19-2.864-4.575-1.307-9.433-2.399-13.22-5.447-4.906-3.99-4.982-12.311-.394-16.568 2.767-2.67 6.62-3.886 10.362-4.354zm190.914 3.749c3.866-3.111 9.023-4.017 13.868-3.966 5.771-.067 11.485 1.123 16.952 2.904.18 2.179.194 4.752-1.454 6.416-1.721 1.41-4.15.712-6.119.284-3.849-1.273-7.966-1.624-11.993-1.24-1.45.164-2.994.475-4.1 1.49-1.557 1.354-1.463 4.274.398 5.32 2.022 1.253 4.408 1.671 6.657 2.342 4.364 1.276 8.912 2.206 12.885 4.514 2.299 1.296 4.28 3.295 5.203 5.805 1.116 3.064.886 6.52-.267 9.537-1.09 2.713-3.372 4.815-5.998 6.022-4.478 2.189-9.607 2.393-14.496 2.152-5.307-.317-10.536-1.49-15.555-3.205-.297-2.149-.344-4.685 1.253-6.369 1.276-1.383 3.342-1.003 4.982-.642 3.609.909 7.208 2.082 10.971 2.105 2.667.024 5.547.1 7.91-1.343 1.638-.989 2.082-3.195 1.514-4.919-.548-1.534-2.182-2.172-3.565-2.733-4.21-1.527-8.631-2.386-12.855-3.876-2.877-1.069-5.831-2.406-7.826-4.828-3.739-4.555-3.001-12.093 1.638-15.769z"/></svg>