<?xml version="1.0" encoding="UTF-8"?>
<svg width="800" height="261.13" xmlns="http://www.w3.org/2000/svg">
  <path d="M72.615 97.471c0 13.989-9.11 24.14-27.719 26.157-13.404 1.431-32.859-.26-42.098-1.301-.325-1.497-.586-3.384-.586-4.88 0-12.168 6.572-14.965 12.753-14.965 6.442 0 16.592 1.106 24.075 1.106 8.329 0 10.801-2.798 10.801-5.466 0-3.513-3.318-4.945-9.76-6.181l-17.633-3.384C7.808 85.76 0 75.674 0 64.938c0-13.013 9.24-23.945 27.458-25.962 13.73-1.496 30.516.196 39.691 1.302.326 1.561.52 3.058.52 4.684 0 12.168-6.44 14.77-12.622 14.77-4.75 0-12.102-.845-20.561-.845-8.59 0-12.102 2.342-12.102 5.205 0 3.058 3.383 4.294 8.719 5.27l16.787 3.124c17.308 3.188 24.725 12.948 24.725 24.986m30.126 14.965c0 7.482-2.928 11.777-17.568 11.777-1.952 0-3.644-.13-5.27-.39V24.725c0-7.548 2.537-15.42 17.307-15.42 1.887 0 3.774.194 5.531.585zm59.797 38.39c1.952.976 5.856 2.212 10.8 2.277 8.525.195 13.145-3.058 16.593-10.671l45.547-101.31c-1.887-.976-6.051-2.147-9.435-2.212-5.856-.13-13.729 1.04-18.739 13.013l-14.835 34.68-28.955-47.043c-1.887-.586-6.441-1.367-9.76-1.367-10.281 0-15.941 3.774-21.863 10.15l-28.109 30.712 22.643 35.592c4.164 6.507 9.695 9.825 18.609 9.825 5.856 0 10.736-1.366 13.013-2.407l-27.263-40.992 19.325-20.496 31.688 49.646z" fill="#ff0031"/>
  <path d="M789.2 0H270.55c-5.986 0-10.866 4.88-10.866 10.866v140.87c0 5.986 4.88 10.866 10.866 10.866h518.58c5.986 0 10.866-4.88 10.866-10.866V10.796c-.065-5.986-4.815-10.801-10.801-10.801" fill="url(#a)"/>
  <path d="M79.967 24.725V92.72c0-2.733 2.082-5.596 5.596-5.726l11.452-.39c2.277-.065 5.726-1.627 5.79-5.791V9.89a25.724 25.724 0 0 0-5.53-.586c-14.77.065-17.308 7.873-17.308 15.421m52.054 23.684-28.109 30.712 2.277 3.514c.977 1.301 2.863 3.513 6.637 3.383l16.007-.585c3.514-.13 5.726 1.366 7.093 3.188l-5.01-7.548 19.324-20.496 12.948 20.366c2.343 3.058 5.856 3.123 6.637 3.123.65 0 17.698-.585 18.414-.65 1.171-.065 2.538.585 3.579 2.082L163.644 39.69c-1.887-.586-6.442-1.367-9.76-1.367-10.281-.065-15.941 3.644-21.863 10.085M27.46 38.975C9.24 40.992.003 51.858.003 64.937c0 6.702 3.058 13.144 8.914 17.763 4.425 2.928 8.98 4.034 13.469 4.815 3.709.65 12.363 1.236 18.804.976l20.041-.716c7.548-.26 11.582 6.181 11.192 12.623v-.325c.065-.846.13-1.692.13-2.538 0-12.037-7.417-21.863-24.66-25.051l-16.787-3.123c-5.4-.911-8.719-2.213-8.719-5.27 0-2.864 3.579-5.271 12.102-5.271 8.459 0 15.811.846 20.561.846 6.182 0 12.623-2.603 12.623-14.77 0-1.627-.195-3.123-.52-4.685-6.572-.78-17.113-1.887-27.588-1.887-4.1.065-8.199.26-12.102.65m179.72 12.949-14.38 33.9c0-.065.91-2.668 3.708-2.798l15.226-.52c4.62-.196 6.442-3.319 6.963-4.36l16.657-37.153c-1.887-.976-6.052-2.147-9.435-2.212h-.716c-5.79.065-13.209 1.626-18.024 13.144" fill="url(#b)" opacity=".3"/>
  <path d="M270.55 0c-5.986 0-10.866 4.88-10.866 10.866v78.211c0-1.171.455-7.613 7.808-8.329 0 0 .39-.065 1.041-.065l523.4-18.349c4.1-.13 8.068-3.188 8.068-8.263V10.93c0-5.985-4.88-10.865-10.866-10.865z" fill="url(#c)" opacity=".3"/>
  <path d="M377.19 18.414c-4.36 0-8.068 3.384-8.068 8.068 0 4.1 3.643 7.938 8.068 7.938s7.938-3.773 7.938-7.938c0-4.554-3.448-8.068-7.938-8.068zm148.22 24.141c-20.952 0-37.936 16.591-37.936 39.43 0 23.684 16.333 39.82 40.018 39.82 10.931 0 21.212-3.253 27.914-6.246.78-6.897-1.562-9.89-4.75-9.89-1.366 0-3.06.65-6.248 1.822-4.88 1.496-9.89 2.994-16.461 2.994-15.291 0-25.701-8.525-27.588-23.295h59.275c.455-2.863.65-5.401.715-7.809 0-18.154-11.58-36.826-34.94-36.826zm-196.24.064c-21.993 0-38.781 16.853-38.781 39.496s16.789 39.69 38.781 40.016c10.411 0 19.845-2.862 26.547-6.05.65-6.897-1.888-9.76-5.076-9.76-4.425 0-9.434 4.879-21.016 4.879-14.64 0-26.55-11.255-26.55-28.89 0-17.632 11.91-28.563 26.55-28.563 11.582 0 16.526 4.879 21.016 4.879 3.188 0 5.727-2.863 5.076-9.76-6.572-3.384-16.006-6.246-26.547-6.246zm113.22 0c-11.517 0-19.977 5.595-25.508 12.297v-6.57c0-2.863-1.69-4.75-6.57-4.75-2.213 0-4.556.52-5.727.846v75.934c1.171.325 3.514.65 5.727.65 4.945 0 6.57-1.757 6.57-4.75V67.54c4.034-7.352 13.796-13.729 22.84-13.729 11.387 0 19.129 7.417 19.129 23.033v43.4c1.236.326 3.71.65 5.727.65 5.01 0 6.57-1.756 6.57-4.75V75.154c0-22.513-13.077-32.468-28.758-32.533zm168.78 0c-9.37 0-17.112 4.88-21.992 11.451v-5.4c0-3.188-1.627-5.074-6.377-5.074-2.017 0-4.425.52-5.727.846v75.803c1.042.325 3.515.65 5.727.65 5.01 0 6.572-1.757 6.572-4.75V66.108c2.863-6.181 10.214-12.428 18.803-12.428 10.281 0 15.486 6.702 15.486 17.959v48.605c1.302.325 3.645.65 5.858.65 5.01 0 6.57-1.757 6.57-4.75V66.107c2.863-6.181 10.216-12.428 18.805-12.428 10.085 0 15.486 6.703 15.486 17.96v48.604c1.236.326 3.71.65 5.727.65 5.01 0 6.7-1.756 6.7-4.75V70.272c0-15.161-8.718-27.587-25.114-27.652-11.257 0-19.326 6.182-24.531 13.795-4.034-8.59-11.907-13.795-21.992-13.795zm122.78 0c-10.671 0-22.057 2.538-29.67 5.4-.78 6.703 1.236 9.891 4.75 9.891 1.236 0 3.058-.585 5.4-1.236 4.555-1.496 11.257-3.19 19-3.19 14.965 0 18.803 7.028 18.803 18.806v2.082c-33.77-2.213-53.744 5.857-53.744 24.336 0 12.233 9.435 23.164 26.547 23.164 11.387 0 19.975-4.491 27.197-12.104v6.377c0 3.188 2.018 4.814 6.573 4.814 2.212 0 4.425-.325 5.726-.65V71.834c0-18.024-8.264-29.15-30.582-29.215zM377.58 43.66c-5.14 0-6.701 1.887-6.701 4.75v71.834c1.236.326 3.644.65 5.726.715 5.01 0 6.702-1.757 6.702-4.75V44.506c-1.237-.325-3.71-.845-5.727-.845zm147.9 9.956c13.729 0 22.122 10.28 22.643 23.359H500.43c2.017-15.291 12.818-23.49 25.051-23.36zm218.55 29.922c2.624.008 5.327.083 8.076.205v14.639c-5.856 7.808-14.64 13.078-25.05 13.078-10.217 0-15.942-6.246-15.942-12.947 0-11.9 14.546-15.032 32.916-14.975z" fill="#fff"/>
  <path d="M303.67 179.37c-1.531 0-2.849.552-3.951 1.654s-1.655 2.45-1.655 4.043c0 1.532.552 2.847 1.655 3.95s2.42 1.654 3.951 1.654c1.592 0 2.94-.552 4.043-1.654s1.652-2.418 1.652-3.95c0-1.592-.55-2.94-1.652-4.043s-2.45-1.654-4.043-1.654zm218.02 3.309c-1.286 0-2.143.336-2.572 1.01-.43.612-.645 1.255-.645 1.93v74.786c1.286.429 2.451.643 3.492.643 1.287 0 2.144-.336 2.573-1.01.428-.613.642-1.256.642-1.93v-74.787c-1.286-.429-2.449-.642-3.49-.642zm108.78.367c-4.226 0-8.024.704-11.393 2.113-3.308 1.409-6.032 2.97-8.176 4.686.123 2.205.58 3.95 1.377 5.236.858 1.225 1.961 1.838 3.309 1.838.796 0 1.653-.245 2.572-.735s1.929-1.041 3.031-1.654a28.115 28.115 0 0 1 3.86-1.654c1.47-.49 3.123-.735 4.96-.735 3.676 0 6.402.888 8.178 2.665 1.777 1.715 2.664 4.042 2.664 6.982 0 1.409-.244 2.726-.734 3.951s-1.194 2.449-2.113 3.674-2.053 2.481-3.4 3.768a125.669 125.669 0 0 1-4.686 4.226l-16.537 14.885c-1.042.858-1.777 1.99-2.205 3.399s-.645 2.634-.645 3.675c0 .797.033 1.562.094 2.297.061.674.153 1.254.275 1.744h37.301c1.164 0 2.113-.336 2.848-1.01.796-.734 1.195-2.052 1.195-3.95 0-1.838-.153-3.308-.459-4.41H624.13l14.334-12.403a59.976 59.976 0 0 0 5.053-4.318 32.122 32.122 0 0 0 4.043-4.686 20.127 20.127 0 0 0 2.664-5.236c.674-1.838 1.01-3.83 1.01-5.973 0-5.512-1.806-9.953-5.42-13.322-3.614-3.369-8.729-5.052-15.344-5.052zm54.482.642-24.99 35.373c-.858 1.225-1.47 2.358-1.838 3.399a9.6 9.6 0 0 0-.55 3.217c0 .98.06 1.837.183 2.572.122.735.245 1.348.367 1.838h27.748v13.412c.49.122 1.195.216 2.113.277.92.123 1.868.184 2.848.184 1.899 0 3.186-.4 3.86-1.196.734-.796 1.101-1.775 1.101-2.94v-9.737h5.79c1.04 0 1.928-.338 2.663-1.012.796-.674 1.194-1.9 1.194-3.676 0-1.715-.153-3.122-.46-4.224h-9.187v-37.486zm-103.91 12.588c-1.654 0-2.786.336-3.398 1.01-.613.674-.92 1.531-.92 2.572v15.527h-14.607c-1.103 0-2.023.275-2.758.827-.674.55-1.01 1.685-1.01 3.4 0 1.776.122 3.124.367 4.043h18.008v19.477c.429.061 1.011.153 1.746.275.797.062 1.593.092 2.39.092 1.653 0 2.785-.336 3.397-1.01.613-.673.92-1.53.92-2.572v-16.262h14.883c1.103 0 1.993-.277 2.666-.828.735-.551 1.102-1.683 1.102-3.398 0-1.777-.122-3.125-.367-4.043h-18.283v-18.742a30.499 30.499 0 0 0-1.838-.184c-.735-.122-1.5-.184-2.297-.184zm104.83.551v24.44h-17.273zm-489.42 1.38c-3.062 0-5.911.58-8.545 1.743a21.045 21.045 0 0 0-6.89 4.87c-1.9 2.02-3.4 4.441-4.502 7.26-1.103 2.755-1.655 5.787-1.655 9.095 0 3.307.521 6.4 1.563 9.28 1.102 2.817 2.664 5.266 4.685 7.349s4.502 3.705 7.442 4.869c2.94 1.164 6.279 1.746 10.016 1.746 3.491 0 6.614-.369 9.37-1.104 2.757-.796 5.054-1.623 6.891-2.48.062-.368.092-.734.092-1.102.062-.367.092-.705.092-1.011 0-1.654-.369-2.97-1.103-3.95-.674-.98-1.562-1.47-2.665-1.47-.796 0-1.592.122-2.388.367-.797.245-1.684.552-2.664.92-.98.306-2.082.58-3.307.826s-2.665.367-4.318.367c-3.86 0-6.985-.918-9.373-2.756-2.328-1.899-3.704-4.625-4.133-8.177h31.88a23.37 23.37 0 0 0 .46-4.594c0-2.757-.46-5.45-1.38-8.084a20.632 20.632 0 0 0-3.948-7.074c-1.715-2.083-3.89-3.738-6.524-4.963-2.634-1.287-5.665-1.928-9.095-1.928zm50.99 0c-2.572 0-4.961.702-7.166 2.11-2.205 1.348-3.95 3.034-5.236 5.055l-.092-1.103c0-1.715-.43-3.063-1.287-4.043-.796-1.042-2.144-1.561-4.043-1.561a9.83 9.83 0 0 0-2.389.275c-.674.123-1.348.276-2.021.46v44.1c.49.122 1.194.215 2.113.277.98.122 1.93.183 2.85.183 1.96 0 3.275-.399 3.949-1.195.735-.796 1.103-1.806 1.103-3.031v-27.195c.796-1.531 1.96-2.849 3.49-3.951 1.593-1.164 3.37-1.746 5.33-1.746 2.573 0 4.532.796 5.88 2.388 1.408 1.532 2.113 3.798 2.113 6.8v27.47c.49.123 1.194.216 2.113.277.98.123 1.929.184 2.848.184 1.96 0 3.277-.399 3.95-1.195.736-.797 1.104-1.806 1.104-3.031V212.63c.797-1.592 1.96-2.94 3.49-4.043 1.532-1.163 3.401-1.746 5.606-1.746 2.328 0 4.195.766 5.604 2.297 1.408 1.47 2.113 3.767 2.113 6.89V243.5c.49.122 1.194.216 2.113.277.98.123 1.93.184 2.848.184 1.96 0 3.277-.4 3.951-1.195.735-.797 1.102-1.807 1.102-3.032V215.02c0-5.206-1.194-9.309-3.582-12.31-2.328-3.002-5.912-4.503-10.75-4.503-2.94 0-5.573.766-7.9 2.297-2.267 1.47-4.289 3.673-6.065 6.614-1.041-2.94-2.756-5.144-5.145-6.614-2.327-1.531-4.993-2.297-7.994-2.297zm90.682 0c-3.062 0-5.911.58-8.545 1.743a21.045 21.045 0 0 0-6.89 4.87c-1.9 2.02-3.4 4.441-4.502 7.26-1.103 2.755-1.653 5.787-1.653 9.095 0 3.307.52 6.4 1.56 9.28 1.103 2.817 2.665 5.266 4.686 7.349s4.504 3.705 7.444 4.869c2.94 1.164 6.277 1.746 10.014 1.746 3.491 0 6.615-.369 9.37-1.104 2.757-.796 5.054-1.623 6.891-2.48.062-.368.092-.734.092-1.102.062-.367.092-.705.092-1.011 0-1.654-.367-2.97-1.102-3.95-.673-.98-1.561-1.47-2.664-1.47-.796 0-1.592.122-2.388.367-.797.245-1.686.552-2.666.92-.98.306-2.082.58-3.307.826-1.225.245-2.665.367-4.318.367-3.86 0-6.983-.918-9.372-2.756-2.327-1.899-3.706-4.625-4.134-8.177h31.88a23.37 23.37 0 0 0 .46-4.594c0-2.757-.459-5.45-1.377-8.084a20.636 20.636 0 0 0-3.952-7.074c-1.715-2.083-3.89-3.738-6.523-4.963-2.634-1.287-5.666-1.928-9.096-1.928zm78.646 0c-3.062 0-5.911.58-8.545 1.743a21.045 21.045 0 0 0-6.89 4.87c-1.9 2.02-3.4 4.441-4.502 7.26-1.103 2.755-1.655 5.787-1.655 9.095 0 3.307.521 6.4 1.563 9.28 1.102 2.817 2.664 5.266 4.685 7.349s4.502 3.705 7.442 4.869c2.94 1.164 6.279 1.746 10.016 1.746 3.491 0 6.615-.369 9.37-1.104 2.757-.796 5.054-1.623 6.891-2.48.062-.368.092-.734.092-1.102.062-.367.092-.705.092-1.011 0-1.654-.368-2.97-1.103-3.95-.674-.98-1.562-1.47-2.665-1.47-.796 0-1.592.122-2.388.367-.797.245-1.684.552-2.664.92-.98.306-2.082.58-3.307.826s-2.665.367-4.318.367c-3.86 0-6.983-.918-9.371-2.756-2.328-1.899-3.706-4.625-4.135-8.177h31.88a23.37 23.37 0 0 0 .46-4.594c0-2.757-.46-5.45-1.38-8.084a20.632 20.632 0 0 0-3.948-7.074c-1.715-2.083-3.89-3.738-6.524-4.963-2.634-1.287-5.666-1.928-9.096-1.928zm53.012 0c-3.124 0-5.942.702-8.453 2.11-2.45 1.348-4.44 3.095-5.97 5.239l-.093-1.287c0-1.715-.43-3.063-1.287-4.043-.796-1.042-2.144-1.561-4.043-1.561a9.83 9.83 0 0 0-2.388.275c-.674.123-1.348.276-2.022.46v44.1c.49.122 1.195.215 2.113.277.98.122 1.931.183 2.85.183 1.96 0 3.276-.399 3.95-1.195.734-.796 1.103-1.806 1.103-3.031v-26.92c1.041-1.838 2.542-3.308 4.502-4.41 2.021-1.103 4.01-1.655 5.97-1.655 3.124 0 5.545.92 7.26 2.758 1.715 1.838 2.573 4.715 2.573 8.635v25.357c.49.122 1.194.216 2.113.277.98.123 1.929.184 2.848.184 1.96 0 3.277-.4 3.95-1.195.736-.797 1.102-1.807 1.102-3.032V217.04c0-6.063-1.44-10.719-4.318-13.965s-6.799-4.869-11.76-4.869zm-350.6.09c-3.552 0-6.523.736-8.912 2.206a19.397 19.397 0 0 0-5.879 5.512l-.092-1.746c-.122-1.715-.552-3.063-1.287-4.043-.735-1.042-2.083-1.561-4.043-1.561a9.83 9.83 0 0 0-2.389.275c-.673.123-1.347.276-2.021.46v61.28c.49.123 1.194.215 2.113.276.98.122 1.931.183 2.85.183 1.96 0 3.275-.397 3.949-1.193.735-.796 1.104-1.808 1.104-3.033v-19.11c1.408 1.655 3.276 3.155 5.603 4.503 2.328 1.286 5.146 1.93 8.453 1.93 2.328 0 4.686-.46 7.074-1.38 2.45-.918 4.625-2.327 6.524-4.226 1.96-1.899 3.552-4.287 4.777-7.166s1.838-6.308 1.838-10.289c0-3.675-.582-6.923-1.746-9.74-1.103-2.879-2.573-5.267-4.41-7.166-1.838-1.96-3.951-3.43-6.34-4.41-2.328-1.042-4.716-1.561-7.166-1.561zm50.256.184c-2.756 0-5.175.766-7.258 2.297-2.082 1.47-3.736 3.706-4.96 6.707h-.184v-3.216c0-1.715-.43-3.063-1.287-4.043-.797-1.042-2.143-1.561-4.041-1.561-.858 0-1.656.092-2.391.275-.674.123-1.346.276-2.02.46v44.1c.49.122 1.193.215 2.112.277.98.122 1.93.183 2.85.183 1.96 0 3.275-.399 3.949-1.195.735-.796 1.103-1.806 1.103-3.031v-21.96c0-3.49.949-6.062 2.848-7.716 1.96-1.654 4.533-2.48 7.719-2.48h1.652c3.43 0 5.146-1.717 5.146-5.147 0-1.041-.185-2.204-.552-3.49a21.657 21.657 0 0 0-2.205-.276 15.177 15.177 0 0 0-2.48-.183zm220.32 0c-2.756 0-5.175.766-7.258 2.297-2.082 1.47-3.738 3.706-4.963 6.707h-.183v-3.216c0-1.715-.428-3.063-1.285-4.043-.797-1.042-2.145-1.561-4.043-1.561a9.83 9.83 0 0 0-2.39.275c-.673.123-1.347.276-2.02.46v44.1c.49.122 1.194.215 2.113.277.98.122 1.929.183 2.847.183 1.96 0 3.278-.399 3.952-1.195.735-.796 1.101-1.806 1.101-3.031v-21.96c0-3.49.951-6.062 2.85-7.716 1.96-1.654 4.532-2.48 7.717-2.48h1.654c3.43 0 5.144-1.717 5.144-5.147 0-1.041-.183-2.204-.55-3.49a21.657 21.657 0 0 0-2.206-.276 15.177 15.177 0 0 0-2.48-.183zm-86.088.184c-1.899 0-3.216.397-3.951 1.193-.735.797-1.102 1.809-1.102 3.034v40.607c.49.122 1.195.216 2.114.277.918.122 1.837.184 2.755.184 1.96 0 3.308-.4 4.043-1.196.735-.796 1.102-1.806 1.102-3.03v-40.61c-.49-.122-1.194-.214-2.113-.275a21.529 21.529 0 0 0-2.848-.184zm-107.22 7.35c3.553 0 6.277 1.132 8.176 3.398 1.96 2.205 3.094 4.962 3.4 8.27h-23.06c.305-3.492 1.438-6.31 3.398-8.454 2.02-2.143 4.717-3.214 8.086-3.214zm141.67 0c3.553 0 6.279 1.132 8.178 3.398 1.96 2.205 3.092 4.962 3.398 8.27h-23.06c.305-3.492 1.44-6.31 3.4-8.454 2.02-2.143 4.715-3.214 8.084-3.214zm78.646 0c3.553 0 6.277 1.132 8.176 3.398 1.96 2.205 3.094 4.962 3.4 8.27h-23.06c.305-3.492 1.438-6.31 3.398-8.454 2.02-2.143 4.717-3.214 8.086-3.214zm-300.98.734c2.144 0 4.011.43 5.604 1.287a10.9 10.9 0 0 1 3.95 3.307c1.103 1.347 1.9 2.909 2.39 4.685.55 1.715.826 3.523.826 5.422 0 2.144-.306 4.103-.918 5.88-.613 1.775-1.47 3.307-2.573 4.593s-2.45 2.298-4.043 3.033c-1.592.674-3.337 1.01-5.236 1.01-2.572 0-4.839-.582-6.799-1.746-1.96-1.225-3.43-2.726-4.41-4.502V213.18c1.164-2.144 2.756-3.736 4.777-4.777 2.083-1.103 4.227-1.655 6.432-1.655z"/>
  <defs>
    <linearGradient id="a" x1="414.37" x2="1244.6" y1="289.84" y2="289.84" gradientTransform="translate(-9.825 -107.3) scale(.65067)" gradientUnits="userSpaceOnUse">
      <stop stop-color="#ff0031" offset="0"/>
      <stop stop-color="#9b001f" offset="1"/>
    </linearGradient>
    <linearGradient id="b" x1="197.48" x2="194.59" y1="295.14" y2="212.24" gradientTransform="translate(-9.825 -107.3) scale(.65067)" gradientUnits="userSpaceOnUse">
      <stop stop-color="#fff" offset="0"/>
      <stop stop-color="#fff" stop-opacity=".25" offset=".515"/>
    </linearGradient>
    <linearGradient id="c" x1="830.55" x2="826.25" y1="276.73" y2="153.47" gradientTransform="translate(-9.825 -107.3) scale(.65067)" gradientUnits="userSpaceOnUse">
      <stop stop-color="#fff" offset="0"/>
      <stop stop-color="#fff" stop-opacity=".25" offset=".515"/>
    </linearGradient>
  </defs>
</svg>
