<?xml version="1.0" encoding="UTF-8"?>
<svg width="800" height="193.29" xmlns="http://www.w3.org/2000/svg">
  <path d="M793.75 0c3.46 0 6.25 2.817 6.25 6.25v116.24a6.278 6.278 0 0 1-6.25 6.25H630.68c-3.46 0-6.25-2.816-6.25-6.25V6.28c0-3.46 2.817-6.25 6.25-6.25h163.07" fill="#bbb"/>
  <path d="M714.58 38.576v49.548c0 2.173-1.1 3.38-4.48 3.38-1.53 0-2.95-.214-4.05-.43V68.274h-28.274V88.15c0 2.173-1.1 3.38-4.48 3.38-1.637 0-3.273-.214-4.051-.43V41.528c0-2.093 1.1-3.38 4.587-3.38 1.53 0 3.032.214 3.917.429v22.05h28.14v-19.1c0-2.091 1.208-3.38 4.696-3.38 1.61 0 3.112.215 3.996.43m58.003 26.182c0 14.861-10.38 26.101-26.638 26.101H730.79c-3.272 0-4.48-1.314-4.48-3.38v-45.31c0-2.064 1.208-3.38 4.48-3.38h15.157c16.257 0 26.638 11.134 26.638 25.969m-8.638 0c0-11.133-6.974-18.35-18-18.35h-11.133v36.78h11.133c11.026.027 18-7.19 18-18.43" fill="#9c001f"/>
  <path d="M57.492 77.171c0 11.076-7.212 19.112-21.946 20.709-10.612 1.133-26.016-.206-33.331-1.03-.258-1.185-.464-2.68-.464-3.864 0-9.633 5.203-11.849 10.097-11.849 5.1 0 13.137.876 19.061.876 6.594 0 8.552-2.215 8.552-4.328 0-2.781-2.627-3.915-7.727-4.894l-13.961-2.678C6.182 67.897 0 59.913 0 51.413 0 41.11 7.315 32.455 21.74 30.858c10.87-1.185 24.16.154 31.425 1.03.257 1.236.412 2.421.412 3.71 0 9.633-5.1 11.693-9.994 11.693-3.761 0-9.582-.67-16.28-.67-6.8 0-9.581 1.855-9.581 4.122 0 2.42 2.678 3.4 6.903 4.172l13.29 2.473C51.62 59.913 57.493 67.64 57.493 77.17m23.852 11.85c0 5.924-2.319 9.324-13.91 9.324-1.545 0-2.884-.103-4.172-.31V19.577c0-5.976 2.009-12.21 13.703-12.21 1.494 0 2.988.155 4.379.464zm47.343 30.393c1.545.773 4.636 1.752 8.551 1.803 6.749.155 10.406-2.42 13.137-8.448l36.061-80.21c-1.494-.773-4.79-1.7-7.47-1.752-4.636-.103-10.87.825-14.837 10.303l-11.746 27.458-22.925-37.246c-1.494-.463-5.1-1.082-7.727-1.082-8.14 0-12.62 2.988-17.309 8.037L82.167 62.591l17.928 28.179c3.297 5.152 7.676 7.779 14.734 7.779 4.636 0 8.5-1.082 10.303-1.906l-21.585-32.455 15.3-16.228 25.088 39.307z" fill="#ff0031"/>
  <path d="M624.84 0H214.21c-4.74 0-8.603 3.864-8.603 8.603v111.53c0 4.74 3.864 8.603 8.603 8.603h410.58c4.74 0 8.603-3.863 8.603-8.603V8.553c-.051-4.74-3.812-8.551-8.551-8.551" fill="url(#a)"/>
  <path d="M63.313 19.576V73.41c0-2.164 1.649-4.43 4.43-4.533l9.067-.31c1.803-.051 4.534-1.287 4.585-4.584V7.83a20.366 20.366 0 0 0-4.379-.464c-11.694.051-13.703 6.233-13.703 12.209m41.213 18.752L82.271 62.643l1.803 2.782c.773 1.03 2.267 2.782 5.255 2.679l12.673-.464c2.782-.103 4.533 1.082 5.615 2.524l-3.966-5.975 15.3-16.228 10.252 16.124c1.854 2.42 4.636 2.472 5.254 2.472.515 0 14.012-.463 14.58-.515.926-.051 2.008.464 2.833 1.649l-22.306-36.267c-1.494-.464-5.1-1.082-7.728-1.082-8.14-.052-12.62 2.885-17.309 7.985m-82.786-7.47C7.317 32.454.001 41.057.001 51.412c0 5.306 2.421 10.406 7.058 14.064 3.503 2.318 7.109 3.194 10.664 3.812 2.936.515 9.788.98 14.888.773l15.867-.567c5.976-.206 9.17 4.894 8.86 9.994v-.257c.052-.67.104-1.34.104-2.01 0-9.53-5.873-17.308-19.525-19.833l-13.291-2.473c-4.276-.721-6.904-1.752-6.904-4.173 0-2.267 2.834-4.173 9.582-4.173 6.698 0 12.518.67 16.28.67 4.893 0 9.994-2.06 9.994-11.694 0-1.288-.155-2.473-.413-3.71-5.203-.617-13.549-1.493-21.843-1.493-3.245.051-6.49.206-9.582.515M164.03 41.11l-11.385 26.84c0-.051.722-2.112 2.937-2.215l12.055-.412c3.657-.155 5.1-2.628 5.512-3.452l13.188-29.416c-1.494-.773-4.791-1.7-7.47-1.751h-.566c-4.585.051-10.458 1.288-14.27 10.406" fill="url(#b)" opacity=".3"/>
  <path d="M214.2 0c-4.74 0-8.603 3.864-8.603 8.603v61.922c0-.927.36-6.027 6.182-6.594 0 0 .309-.051.824-.051l414.39-14.527c3.245-.103 6.388-2.525 6.388-6.543V8.655c0-4.74-3.864-8.603-8.603-8.603z" fill="url(#c)" opacity=".3"/>
  <path d="M298.64 14.58c-3.452 0-6.387 2.678-6.387 6.387 0 3.246 2.884 6.285 6.387 6.285s6.285-2.988 6.285-6.285c0-3.606-2.73-6.387-6.285-6.387zm117.35 19.112c-16.588 0-30.033 13.137-30.033 31.219 0 18.752 12.93 31.528 31.682 31.528 8.655 0 16.794-2.577 22.1-4.946.618-5.461-1.238-7.83-3.762-7.83-1.082 0-2.42.515-4.945 1.443-3.863 1.185-7.83 2.369-13.034 2.369-12.106 0-20.348-6.75-21.842-18.443h46.93c.361-2.267.516-4.276.567-6.182 0-14.373-9.17-29.157-27.664-29.157zm-155.37.051c-17.412 0-30.703 13.342-30.703 31.27s13.291 31.425 30.703 31.682c8.242 0 15.713-2.266 21.019-4.79.515-5.461-1.494-7.728-4.018-7.728-3.503 0-7.47 3.864-16.64 3.864-11.591 0-21.02-8.911-21.02-22.872s9.429-22.616 21.02-22.616c9.17 0 13.085 3.864 16.64 3.864 2.524 0 4.533-2.267 4.018-7.728-5.203-2.679-12.673-4.946-21.019-4.946zm89.639 0c-9.118 0-15.816 4.43-20.194 9.737v-5.203c0-2.267-1.34-3.76-5.204-3.76-1.752 0-3.605.41-4.533.668v60.12c.928.258 2.781.515 4.533.515 3.915 0 5.204-1.391 5.204-3.76V53.473c3.194-5.821 10.921-10.87 18.082-10.87 9.015 0 15.145 5.873 15.145 18.236v34.362c.979.258 2.937.516 4.534.516 3.967 0 5.203-1.392 5.203-3.762V59.502c0-17.824-10.353-25.707-22.77-25.758zm133.63 0c-7.418 0-13.55 3.865-17.413 9.068v-4.276c0-2.524-1.288-4.018-5.048-4.018-1.597 0-3.504.41-4.534.668v60.017c.824.258 2.782.516 4.534.516 3.966 0 5.202-1.392 5.202-3.762V52.341c2.267-4.894 8.089-9.84 14.888-9.84 8.14 0 12.262 5.308 12.262 14.22v38.482c1.03.258 2.885.516 4.636.516 3.967 0 5.203-1.392 5.203-3.762V52.342c2.267-4.894 8.088-9.84 14.888-9.84 7.985 0 12.262 5.307 12.262 14.22v38.482c.979.258 2.935.516 4.532.516 3.967 0 5.306-1.392 5.306-3.762V55.64c0-12.003-6.902-21.843-19.884-21.895-8.912 0-15.3 4.895-19.422 10.923-3.194-6.8-9.426-10.923-17.412-10.923zm97.21 0c-8.449 0-17.464 2.01-23.491 4.276-.618 5.306.978 7.831 3.76 7.831.98 0 2.422-.464 4.276-.979 3.607-1.185 8.913-2.525 15.043-2.525 11.85 0 14.888 5.564 14.888 14.888v1.65c-26.737-1.752-42.552 4.635-42.552 19.265 0 9.685 7.47 18.34 21.02 18.34 9.015 0 15.814-3.554 21.532-9.582v5.048c0 2.525 1.597 3.813 5.203 3.813 1.752 0 3.504-.258 4.534-.516V56.874c0-14.27-6.543-23.08-24.213-23.132zm-282.15.825c-4.07 0-5.306 1.493-5.306 3.76v56.874c.979.257 2.884.515 4.532.567 3.967 0 5.306-1.39 5.306-3.76v-56.77c-.978-.258-2.935-.67-4.532-.67zm117.09 7.882c10.87 0 17.515 8.14 17.927 18.494h-37.76c1.597-12.106 10.148-18.597 19.833-18.494zm173.04 23.69c2.078.007 4.217.065 6.393.161v11.591c-4.636 6.182-11.59 10.356-19.833 10.356-8.088 0-12.62-4.946-12.62-10.252 0-9.42 11.516-11.9 26.06-11.855z" fill="#fff"/>
  <path d="M353.37 142.01c-1.212 0-2.254.437-3.127 1.31-.873.872-1.31 1.94-1.31 3.2 0 1.213.437 2.255 1.31 3.128.873.873 1.915 1.31 3.127 1.31 1.26 0 2.328-.437 3.201-1.31.873-.873 1.31-1.915 1.31-3.127 0-1.261-.437-2.329-1.31-3.201-.873-.873-1.94-1.31-3.201-1.31zm-66.195 1.237c-1.552 0-2.618.315-3.2.945-.533.63-.8 1.432-.8 2.401v46.191c.388.097.945.17 1.673.218.776.097 1.527.145 2.254.145 1.552 0 2.596-.314 3.13-.945.581-.63.872-1.43.872-2.4v-21.314c.727-1.406 1.867-2.546 3.419-3.419 1.6-.92 3.249-1.382 4.946-1.382 2.473 0 4.388.753 5.746 2.257 1.358 1.454 2.037 3.732 2.037 6.836v20.004c.388.097.947.17 1.674.218.727.097 1.455.145 2.182.145 1.552 0 2.618-.315 3.2-.945.582-.63.874-1.43.874-2.4v-17.895c0-2.619-.34-4.874-1.02-6.765-.678-1.892-1.6-3.442-2.764-4.655a10.88 10.88 0 0 0-4.073-2.691c-1.504-.582-3.128-.873-4.874-.873-2.619 0-4.873.581-6.764 1.745-1.891 1.115-3.42 2.474-4.583 4.074v-19.13c-.388-.097-.97-.17-1.745-.22a16.512 16.512 0 0 0-2.184-.145zm119.15 4.801c-1.018 0-1.843.12-2.474.363-.582.242-1.043.583-1.382 1.02a4.95 4.95 0 0 0-.655 1.454 9.333 9.333 0 0 0-.145 1.672v5.02h-3.127c-.776 0-1.43.243-1.964.728-.485.485-.728 1.333-.728 2.545 0 .533.024 1.068.073 1.601s.12.969.218 1.308h5.528V181c0 1.795.267 3.443.8 4.947a11.562 11.562 0 0 0 2.329 3.856c1.018 1.067 2.254 1.914 3.71 2.545 1.502.582 3.2.874 5.09.874 2.086 0 3.905-.244 5.457-.73a20.817 20.817 0 0 0 4.509-1.962c.048-.242.074-.485.074-.727V189c0-1.358-.268-2.351-.801-2.982-.534-.63-1.261-.945-2.183-.945-.388 0-.799.072-1.235.218a65.32 65.32 0 0 0-1.31.51 9.375 9.375 0 0 1-1.527.51 8.116 8.116 0 0 1-1.964.217c-1.697 0-2.983-.509-3.856-1.527s-1.31-2.45-1.31-4.292v-16.95h9.603c.776 0 1.407-.242 1.891-.727.534-.485.8-1.333.8-2.545s-.122-2.182-.364-2.91h-11.93v-9.02c-.92-.34-1.962-.51-3.126-.51zm40.298 8.875c-2.037 0-3.928.557-5.674 1.672-1.745 1.067-3.128 2.401-4.146 4.002l-.073-.874c0-1.358-.338-2.424-1.017-3.2-.63-.825-1.698-1.237-3.202-1.237-.679 0-1.308.072-1.89.218-.533.097-1.068.219-1.601.364v34.916c.388.097.946.17 1.674.218.776.097 1.527.145 2.254.145 1.552 0 2.594-.315 3.127-.945.582-.63.875-1.43.875-2.4V168.27c.63-1.212 1.551-2.256 2.764-3.129a6.981 6.981 0 0 1 4.219-1.382c2.037 0 3.587.631 4.654 1.892 1.116 1.212 1.674 3.007 1.674 5.383v21.75c.388.097.945.17 1.673.218.775.097 1.527.145 2.254.145 1.552 0 2.595-.315 3.129-.945.582-.63.872-1.43.872-2.4v-21.459c.63-1.26 1.552-2.328 2.765-3.201 1.212-.921 2.69-1.382 4.436-1.382 1.843 0 3.323.607 4.438 1.819 1.116 1.164 1.673 2.983 1.673 5.456v21.75c.388.097.945.17 1.672.218.776.097 1.53.145 2.256.145 1.552 0 2.594-.315 3.128-.945.582-.63.872-1.43.872-2.4v-19.567c0-4.122-.945-7.371-2.837-9.747-1.842-2.377-4.679-3.565-8.51-3.565-2.328 0-4.413.606-6.256 1.818-1.794 1.164-3.395 2.91-4.801 5.238-.824-2.328-2.181-4.074-4.072-5.238-1.843-1.212-3.954-1.818-6.33-1.818zm55.357 0c-2.91 0-5.554.242-7.93.727-2.376.437-4.363.922-5.964 1.455a3.7 3.7 0 0 0-.072.727v.655c0 1.261.242 2.327.727 3.2.485.873 1.236 1.31 2.255 1.31.581 0 1.188-.073 1.819-.218.679-.194 1.43-.389 2.254-.583a22.02 22.02 0 0 1 2.91-.582c1.067-.194 2.303-.29 3.71-.29 2.763 0 4.678.509 5.745 1.527 1.067.97 1.602 2.643 1.602 5.02v1.818c-3.201-.582-6.063-.874-8.585-.874-2.667 0-4.97.292-6.91.874-1.89.582-3.467 1.406-4.728 2.473a9.64 9.64 0 0 0-2.836 3.71c-.582 1.455-.875 3.054-.875 4.8 0 1.455.244 2.837.73 4.147a10.446 10.446 0 0 0 2.254 3.346c1.018.97 2.254 1.745 3.71 2.327 1.503.534 3.2.802 5.09.802 1.65 0 3.106-.195 4.366-.583 1.31-.339 2.474-.824 3.492-1.454s1.89-1.358 2.617-2.182a20.673 20.673 0 0 0 2.037-2.692h.073c.048.921.122 1.793.22 2.618.145.824.387 1.553.727 2.183.34.582.8 1.067 1.382 1.455.63.34 1.43.508 2.4.508.872 0 1.624-.072 2.254-.218.679-.145 1.238-.315 1.674-.51a38.458 38.458 0 0 1-.8-3.2 66.895 66.895 0 0 1-.51-3.055 61.702 61.702 0 0 1-.217-3.272v-11.567c0-2.328-.244-4.365-.73-6.111-.436-1.794-1.235-3.297-2.399-4.51-1.115-1.26-2.618-2.206-4.51-2.836-1.842-.63-4.17-.945-6.982-.945zm-123.81.145c-2.57 0-4.753.29-6.548.873-1.794.533-3.273 1.26-4.436 2.182-1.116.921-1.94 1.989-2.474 3.201a9.292 9.292 0 0 0-.8 3.782c0 2.425.777 4.462 2.329 6.11 1.551 1.6 4.29 2.959 8.218 4.074l5.166 1.455c2.085.582 3.54 1.163 4.364 1.745.824.534 1.237 1.335 1.237 2.401 0 .534-.098 1.043-.292 1.528-.145.436-.46.849-.945 1.237-.485.34-1.188.63-2.11.872-.872.194-2.036.29-3.491.29-1.31 0-2.546-.096-3.71-.29a41.142 41.142 0 0 1-3.2-.655 36.467 36.467 0 0 0-2.62-.727c-.776-.194-1.455-.29-2.037-.29-.97 0-1.721.387-2.254 1.163-.534.775-.8 1.795-.8 3.056v.8l.145.727c2.328.824 4.73 1.48 7.202 1.964 2.522.437 4.946.655 7.274.655 2.91 0 5.31-.316 7.2-.947 1.94-.63 3.469-1.43 4.584-2.4 1.116-1.018 1.89-2.158 2.327-3.418.485-1.31.728-2.62.728-3.929 0-2.522-.824-4.607-2.473-6.256-1.6-1.649-4.389-3.03-8.365-4.146l-5.456-1.528c-1.115-.29-2.013-.557-2.692-.8-.63-.29-1.139-.581-1.527-.872-.34-.29-.582-.607-.727-.947a4.236 4.236 0 0 1-.145-1.162c0-1.019.46-1.82 1.382-2.402.97-.582 2.618-.872 4.946-.872 2.522 0 4.581.266 6.182.8 1.648.485 3.007.727 4.073.727s1.844-.387 2.33-1.163c.533-.824.8-1.94.8-3.346 0-.194-.025-.364-.073-.51v-.655c-4.656-1.551-9.093-2.327-13.312-2.327zm158.94 0c-2.57 0-4.753.29-6.548.873-1.794.533-3.272 1.26-4.436 2.182-1.116.921-1.94 1.989-2.473 3.201a9.294 9.294 0 0 0-.801 3.782c0 2.425.777 4.462 2.329 6.11 1.551 1.6 4.292 2.959 8.22 4.074l5.164 1.455c2.085.582 3.54 1.163 4.364 1.745.824.534 1.237 1.335 1.237 2.401 0 .534-.097 1.043-.29 1.528-.146.436-.462.849-.947 1.237-.485.34-1.188.63-2.11.872-.873.194-2.036.29-3.491.29-1.31 0-2.546-.096-3.71-.29a41.142 41.142 0 0 1-3.2-.655 36.434 36.434 0 0 0-2.618-.727c-.776-.194-1.455-.29-2.037-.29-.97 0-1.723.387-2.256 1.163-.534.775-.8 1.795-.8 3.056v.8l.145.727c2.328.824 4.73 1.48 7.202 1.964 2.522.437 4.946.655 7.274.655 2.91 0 5.31-.316 7.2-.947 1.94-.63 3.469-1.43 4.584-2.4 1.116-1.018 1.89-2.158 2.327-3.418.485-1.31.728-2.62.728-3.929 0-2.522-.824-4.607-2.473-6.256-1.6-1.649-4.389-3.03-8.365-4.146l-5.456-1.528c-1.115-.29-2.013-.557-2.692-.8-.63-.29-1.139-.581-1.527-.872-.34-.29-.582-.607-.727-.947a4.236 4.236 0 0 1-.145-1.162c0-1.019.46-1.82 1.382-2.402.97-.582 2.618-.872 4.946-.872 2.522 0 4.583.266 6.183.8 1.65.485 3.007.727 4.074.727s1.842-.387 2.327-1.163c.534-.824.8-1.94.8-3.346 0-.194-.024-.364-.072-.51v-.655c-4.656-1.551-9.093-2.327-13.312-2.327zm-271.54.073c-2.667 0-5.093.485-7.275 1.454-2.182.922-4.05 2.208-5.601 3.856-1.552 1.65-2.764 3.564-3.637 5.747-.824 2.182-1.237 4.534-1.237 7.055s.413 4.874 1.237 7.056c.873 2.182 2.085 4.098 3.637 5.746 1.552 1.6 3.419 2.887 5.6 3.856 2.183.922 4.609 1.383 7.276 1.383 2.522 0 4.728-.243 6.619-.728a25.646 25.646 0 0 0 5.456-2.183c.048-.291.072-.582.072-.873.049-.29.073-.557.073-.8 0-1.358-.29-2.375-.873-3.054-.582-.68-1.357-1.02-2.327-1.02-.436 0-.923.098-1.456.292-.534.194-1.139.413-1.818.655-.63.242-1.357.46-2.182.655-.824.194-1.746.29-2.764.29-1.455 0-2.813-.242-4.074-.727a11.085 11.085 0 0 1-3.346-2.182c-.922-.97-1.649-2.158-2.182-3.565-.534-1.406-.8-3.006-.8-4.8s.266-3.395.8-4.802c.533-1.406 1.26-2.594 2.182-3.564a8.968 8.968 0 0 1 3.201-2.182c1.213-.485 2.52-.727 3.927-.727 1.067 0 1.989.096 2.764.29.825.194 1.528.412 2.11.655.63.194 1.189.388 1.674.582a5.573 5.573 0 0 0 1.455.218c.921 0 1.672-.387 2.254-1.163.582-.825.873-1.916.873-3.274v-.582a3.7 3.7 0 0 0-.073-.728c-1.455-.824-3.103-1.503-4.946-2.037-1.794-.533-4-.8-6.619-.8zm75.431 0c-2.182 0-4.097.607-5.746 1.819-1.649 1.164-2.957 2.933-3.927 5.31h-.147v-2.547c0-1.358-.339-2.424-1.018-3.2-.63-.824-1.698-1.237-3.201-1.237-.679 0-1.308.072-1.89.218-.534.097-1.068.219-1.602.364v34.916c.388.097.947.17 1.674.218.776.097 1.528.145 2.255.145 1.552 0 2.594-.315 3.127-.945.582-.63.874-1.43.874-2.4v-17.385c0-2.764.752-4.801 2.255-6.11 1.552-1.31 3.589-1.965 6.11-1.965h1.31c2.716 0 4.072-1.358 4.072-4.074 0-.824-.144-1.746-.435-2.764a17.156 17.156 0 0 0-1.747-.218 12.02 12.02 0 0 0-1.964-.145zm12.367.145c-1.503 0-2.545.315-3.127.945-.582.63-.874 1.431-.874 2.401v32.152c.388.097.946.17 1.674.218.727.097 1.454.145 2.182.145 1.552 0 2.62-.314 3.201-.945.582-.63.873-1.43.873-2.4V157.65c-.388-.097-.947-.17-1.674-.219a17.044 17.044 0 0 0-2.255-.145zm149.12 18.768c1.94 0 4.147.218 6.62.655v3.054c-.97 2.037-2.328 3.735-4.074 5.093-1.697 1.358-3.71 2.036-6.038 2.036-1.794 0-3.248-.411-4.364-1.236-1.115-.824-1.672-2.012-1.672-3.564 0-1.94.775-3.42 2.327-4.438 1.6-1.067 4-1.6 7.201-1.6z"/>
  <defs>
    <linearGradient id="a" x1="414.37" x2="1244.6" y1="289.84" y2="289.84" gradientTransform="translate(-7.779 -84.95) scale(.51516)" gradientUnits="userSpaceOnUse">
      <stop stop-color="#ff0031" offset="0"/>
      <stop stop-color="#9b001f" offset="1"/>
    </linearGradient>
    <linearGradient id="b" x1="197.48" x2="194.59" y1="295.14" y2="212.24" gradientTransform="translate(-7.779 -84.95) scale(.51516)" gradientUnits="userSpaceOnUse">
      <stop stop-color="#fff" offset="0"/>
      <stop stop-color="#fff" stop-opacity=".25" offset=".515"/>
    </linearGradient>
    <linearGradient id="c" x1="830.55" x2="826.25" y1="276.73" y2="153.47" gradientTransform="translate(-7.779 -84.95) scale(.51516)" gradientUnits="userSpaceOnUse">
      <stop stop-color="#fff" offset="0"/>
      <stop stop-color="#fff" stop-opacity=".25" offset=".515"/>
    </linearGradient>
  </defs>
</svg>
