<svg xmlns="http://www.w3.org/2000/svg" viewBox="0 0 2714.1 500" ><path fill="#002a91" d="M2680.7 0h-603.1c-18.4 0-33.3 14.9-33.3 33.3v433.4c0 18.4 14.9 33.3 33.3 33.3h603.1c18.4 0 33.3-14.9 33.3-33.3V33.3c.1-18.4-14.8-33.3-33.3-33.3m0 10c12.9 0 23.3 10.5 23.3 23.3v433.4a23.26 23.26 0 0 1-23.3 23.3h-603.1c-12.8 0-23.3-10.4-23.3-23.3V33.3c0-12.8 10.5-23.3 23.3-23.3h603.1"/><g fill="#fff"><path d="M2680.7 10c12.9 0 23.3 10.5 23.3 23.3v433.4a23.26 23.26 0 0 1-23.3 23.3h-603.1c-12.8 0-23.3-10.4-23.3-23.3V33.3c0-12.8 10.5-23.3 23.3-23.3h603.1"/><path d="M2181 20.8h457.4v458.3H2181z"/></g><path d="M2255.1 426.6c0 7.2-3.4 11-12.4 11h-20.9v-40.4h20.1c9.4 0 12.6 3.7 12.6 10.5 0 5.2-2 7.6-7.5 9l-1 .3.9.2c6.2 1.4 8.2 3.7 8.2 9.4zm-23.8-12.5h8.5c3.4 0 4.9-1.5 4.9-4.9 0-3.5-1.4-5.1-4.9-5.1h-8.4zm14 11.5c0-3.7-1.5-5.3-4.9-5.3h-9v10.4h9c3.6 0 4.9-1.5 4.9-5.1zm16.3-1.2v-27.3h10.1V424c0 4.4 2 6.1 7.5 6.1 5.4 0 7.5-1.7 7.5-6.1v-26.9h10.1v27.2c0 9.5-5.5 13.8-17.5 13.8-12.2.1-17.6-4.2-17.7-13.7zm82.3-27.2v40.3h-12.3l-17.2-29.2v29.2h-9.4v-40.4h12.3l17.1 29.2v-29.2zm8.3 0h18c14.1 0 17.8 5.8 17.8 20.1 0 14-4.1 20.2-17.8 20.2h-18zm17.7 32.7c5.9 0 7.8-3.1 7.8-12.5s-1.9-12.4-7.8-12.4h-7.6v25zm25.5-32.7h28.2v7.7h-18.2v8.5h15.1v7.6h-15.1v8.8h18.6v7.7h-28.7v-40.3zM2430 436v-7.9c4.3 1.5 8.9 2.2 13.5 2.2s6.7-1.2 6.7-4.4c0-2.7-.9-3.5-4.6-4.3l-6.7-1.4c-7-1.5-9.3-4.3-9.3-11.2 0-8.8 5.2-12.7 15.7-12.7 4.4 0 8.7.7 12.8 2.2v7.9c-3.9-1.4-8.1-2.1-12.3-2.1-5 0-6.7 1.3-6.7 4.4 0 2.6 1.2 3.4 4.4 4.1l6.5 1.4c7.6 1.6 9.7 4.2 9.7 11.4 0 8.6-5.3 12.6-16.2 12.6-4.5 0-9.1-.7-13.5-2.2zm36.7-38.8h10.1v32.6h17.3v7.7h-27.4zm33.7 0h10.1v40.3h-10.1zm51.8 17v21.9c-4.5 1.4-9.2 2.1-14 2.1-14 0-20.6-6.2-20.6-20.9s6.6-20.9 20.6-20.9c4.5-.1 9 .7 13.3 2.3v7.8c-4-1.4-8.2-2.1-12.5-2.1-8.5 0-11.1 3.4-11.1 13 0 10 2.8 13.2 10.8 13.2 1.8 0 3.5-.1 5.3-.4v-9h-7.5v-6.9zm32.9 14.9h-15.8l-2.8 8.5h-10l14.4-40.3h12.8l14.3 40.3h-10.1zm-7.9-25.6l-5.9 18.2h11.6z"/><path fill="#d20515" d="M2222.4 62.5h375v300h-375z"/><path fill="#fff" d="M2531.6 220.5c.2.7-.5 1.3-1.8 2.2l-.8.5.3.5c.2.4-.1.9-.7 1.2l-1.2.6c-.6.3-1.2.2-1.4-.1l-.3-.5-1.6.8.2.5c.2.4-.2.9-.7 1.1l-1.2.6c-.6.3-1.2.2-1.4-.2l-.2-.5c-4.8 2.3-10.2 4.7-15.7 7.2l.3.7c.2.4-.2.9-.7 1.1l-1.3.6c-.6.3-1.2.2-1.3-.2l-.3-.7-1.8.9.3.7c.2.4-.2.9-.7 1.1l-1.2.6c-.6.3-1.2.2-1.4-.2l-.3-.7c-2.5 1-5.3 1.5-7.3-2.3-.9-1.7-.9-5.7-1.6-7.8-.3-.7-.9-1.2-1.6-1.3-24.4-4.7-32.7.5-48.4-3.3-4.9-1.2-7.6-5.7-13.7-5.8l-31.5-.7-.7 2.5-50.4-.2 7.7 3.8 2.5 22.2s-2 .6-2.6.7c.5 4.4 1 10.4 1.2 15.8.2 4.9.5 9.9.4 13.1 0 2.1-.5 4.2-1.5 6-1 1.6-2.2 3-3.8 4.1-.5.3-2.4 1.7-4.7 2.9-2.2 1.3-5 2.7-6.3 3.4.2.6.4 1.2.7 1.7-30.6 14.8-68.6 19.9-80.9 43.4-1.5 2.7-6.4 1.3-6.6-1.6v-4.8h-.4c-.4 0-.7-.5-.7-1.2v-1.4c0-.6.4-1.1.8-1.1h.5c.2-1.4.4-2.7.8-4l-.5-.2c-.4-.1-.5-.7-.3-1.3l.5-1.3c.2-.6.7-1 1.1-.9l.5.2c2.2-5.1 6.4-7.4 8.4-12.2l-.3-.1c-.4-.1-.5-.7-.3-1.3l.5-1.3c.2-.6.7-1 1.1-.8l.3.1c.3-.7.6-1.5 1-2.2l-.4-.3c-.4-.2-.4-.8 0-1.4l.7-1.2c.3-.5.9-.8 1.2-.6l.2.1h.2c.1 0 .1 0 .2-.1l.6-.6c1.9-1.4 4.5-1.5 6.5-.1 1.9 1.2 9.5 5.5 16.7-1.1 12-10.7 25.9-25.3 36.4-25.8-2.9-6.1-7.8-19-8.4-23.8l-3.4-.7c-1.8-4-6.3-22.2-7.6-36 0 0-1.5-14.8 0-20-.8-.1-2.3 1.1-2.7 1.1-1.9-4.7 4.3-44.6 10.5-56.2l9.5-3.8c-1-.1-7.8-.4-25.9-1.9-10.1 9-21.8 18.6-27.7 23.8-1 .7-2.7 6.4-2.7 6.4s-2.9 2.6-5.7 4.5c-3.6 2.6-12.6 4.5-14.5 1.5-.4-.7-.4-1.1 0-1.5 1.4-1.5 6.6-3.9 8.4-7.2-2.9 1.5-6 2.9-8.5 2.7-1.1 0-1.6-2.7-.2-3.2 3.8-1.6 6.8-2.3 9-5.4s4.8-5 8.2-5.1c0 0 16.8-21.9 26.6-32.3 2.7-2.9 7.8-1.9 7.8-1.9l.9-3.3s33.8-4 49.6 1.2c-.4-9.6 3.9-22.3 18.9-22.3 7.7 0 19 6.8 20.6 15.1.5 2.5-1 4.2-1.8 7.5-1.3 4.9.5 10.3 0 12-.4 1.4-2 1.3-3.4 3.2-1.2 1.9-2.2 3.8-3.1 5.9l-2 4.6-10.6-.8c-3.9 8.3-11.8 25.3-14.6 42.1h0c8.3.7 45.9 6.1 45.9 6.1l.9 3.1s15.8 1.9 28.8 8.1c2.9.7 10.2-.4 15 1.8.3-.2 1.1-1 1.5-1.2 16.9 5.2 30.9 14.1 47.1 18l10.2 2.4c4.3.8 8.7 1.4 13.1 1.7 5.2.4 8.1.3 11.9.6 2.7.2 6-.3 7.1 3.7m24.2-51.4c-11.5 0-20.9 9.3-20.9 20.8s9.3 20.9 20.8 20.9 20.9-9.3 20.9-20.8c0-11.6-9.4-20.9-20.8-20.9z"/><linearGradient id="A" gradientUnits="userSpaceOnUse" x1="1456.658" y1="0" x2="1456.658" y2="500"><stop offset=".4" stop-color="red"/><stop offset="1" stop-color="#d42321"/></linearGradient><path fill="url(#A)" d="M832.1 0h1249.2c18.4 0 33.3 14.9 33.3 33.3v433.4c0 18.4-14.9 33.3-33.3 33.3H832.1c-18.4 0-33.3-14.9-33.3-33.3V33.3c0-18.4 14.9-33.3 33.3-33.3z"/><linearGradient id="B" gradientUnits="userSpaceOnUse" x1="1459.466" y1="233.728" x2="1450.769" y2="-15.325"><stop offset="0" stop-color="#fff"/><stop offset=".12" stop-color="#fff" stop-opacity=".835"/><stop offset=".269" stop-color="#fff" stop-opacity=".658"/><stop offset=".42" stop-color="#fff" stop-opacity=".511"/><stop offset=".568" stop-color="#fff" stop-opacity=".397"/><stop offset=".716" stop-color="#fff" stop-opacity=".315"/><stop offset=".86" stop-color="#fff" stop-opacity=".266"/><stop offset="1" stop-color="#fff" stop-opacity=".25"/></linearGradient><path opacity=".4" fill="url(#B)" d="M822.8 248l3.2-.2 1263.7-44.1c13.9-.1 25-11.5 24.9-25.3V33.3c0-18.4-14.9-33.3-33.3-33.3H832.1c-18.4 0-33.3 14.9-33.3 33.3V274c-.4-13.7 10.3-25.3 24-26z"/><linearGradient id="C" gradientUnits="userSpaceOnUse" x1="361.922" y1="28.806" x2="361.922" y2="471.22"><stop offset="0" stop-color="#002a91"/><stop offset=".8" stop-color="#002672"/></linearGradient><path fill="url(#C)" d="M499.6 464.1c10.5 4.6 21.8 7.1 33.2 7.1 26.1.6 40.4-9.4 50.9-32.8l140.1-311.9c-9.1-4.1-19-6.4-29-6.7-18.1-.4-42.3 3.3-57.6 40.1l-45.3 106.8-89-144.6c-9.8-2.6-19.9-4-30-4.2-31.5 0-49 11.5-67.2 31.3l-86.5 94.4L388.7 353c12.9 19.9 29.8 30.1 57.3 30.1 13.7.2 27.3-2.3 40-7.5l-83.8-126 59.4-62.9L559 339.4zM315.9 346.2c0 23-9 36.2-54 36.2-5.4 0-10.8-.4-16.1-1.1V76.2c0-23.2 7.9-47.4 53.2-47.4 5.7 0 11.4.6 16.9 1.7zm-92.8-46.1c0 43-28.1 74.2-85.1 80.4-41.3 4.4-101.1-.8-129.5-4-1-4.9-1.6-9.9-1.7-15 0-37.4 20.2-46 39.2-46 19.8 0 50.9 3.5 74 3.5 25.5 0 33.2-8.6 33.2-16.9 0-10.7-10.2-15.2-30-19L69 272.7C24 264.1 0 233 0 200c0-40.1 28.4-73.6 84.3-79.8 42.3-4.6 93.8.6 122 4 1 4.7 1.5 9.5 1.5 14.4 0 37.4-19.8 45.5-38.8 45.5-14.6 0-37.3-2.7-63.2-2.7-26.3 0-37.3 7.3-37.3 16.1 0 9.4 10.4 13.2 26.9 16.1l51.7 9.6c53.1 9.7 76 39.9 76 76.9z"/><linearGradient id="D" gradientUnits="userSpaceOnUse" x1="365.449" y1="263.248" x2="359.6" y2="95.751"><stop offset="0" stop-color="#fff"/><stop offset=".12" stop-color="#fff" stop-opacity=".835"/><stop offset=".269" stop-color="#fff" stop-opacity=".658"/><stop offset=".42" stop-color="#fff" stop-opacity=".511"/><stop offset=".568" stop-color="#fff" stop-opacity=".397"/><stop offset=".716" stop-color="#fff" stop-opacity=".315"/><stop offset=".86" stop-color="#fff" stop-opacity=".266"/><stop offset="1" stop-color="#fff" stop-opacity=".25"/></linearGradient><path opacity=".25" fill="url(#D)" d="M723.9 126.5l-51.3 114.2c-4 8.2-12.3 13.4-21.4 13.4l-46.8 1.6c-5.1.3-9.6 3.7-11.4 8.5v-.1l44.2-104.2c15.4-36.8 39.6-40.5 57.6-40.1 10.1.3 19.9 2.6 29.1 6.7zM589.5 263l-86.6-140.8c-9.8-2.6-19.9-4-30-4.2-31.5 0-49 11.5-67.2 31.3l-86.5 94.4 6.9 10.9c4.5 6.8 12.3 10.7 20.5 10.3l49.3-1.7a24.67 24.67 0 0 1 21.8 9.8h0l-15.5-23.3 59.4-62.9 39.9 62.5c4.9 6.2 12.5 9.7 20.4 9.5l56.7-2c4.4 0 8.6 2.4 10.9 6.2zM299 28.9c-45.3 0-53.2 24.2-53.2 47.4v209c0-9.6 7.7-17.4 17.3-17.7l35.1-1.2c9.8 0 17.8-8 17.8-17.8h0v-218c-5.7-1.2-11.3-1.8-17-1.7zM147.2 223.1l-51.7-9.6c-16.5-2.9-26.9-6.7-26.9-16.1 0-8.8 11-16.1 37.3-16.1 25.9 0 48.6 2.7 63.2 2.7 19 0 38.8-8.1 38.8-45.5 0-4.8-.5-9.7-1.5-14.4-28.2-3.5-79.7-8.6-122-4-56 6.2-84.4 39.8-84.4 79.8.1 21.4 10.2 41.6 27.3 54.5 12.6 7.8 26.8 12.9 41.5 14.8 19.2 2.6 38.5 3.6 57.8 3l61.7-2.2c23.1-.8 35.7 18.9 34.4 38.7 0-.3 0-.5.1-.8v-.2c.2-2.6.3-5.2.3-7.8 0-36.8-22.9-67-75.9-76.8z"/><path d="M894.4 359.3c-3-20.6 3.4-31.4 15.2-31.4 11.2 0 38.7 12.3 77 12.3 40.3 0 55.5-14.3 55.5-32.9 0-13.2-5.9-25-42.2-34.9l-41.7-11.2c-46.1-12.3-64.3-35.4-64.3-63.9 0-35.3 28-66.8 91.3-66.8 28.5 0 63.9 6.4 85.4 14.8 3.9 20.1-2.5 30.9-14.7 30.9-10.8 0-35.3-10.3-70.2-10.3-37.3 0-51.1 12.7-51.1 29.4 0 11.7 5.4 22.6 38.8 31.9l42.7 11.8c47.7 13.2 66.8 35.3 66.8 66.7 0 36.9-28.5 69.7-97.2 69.7-30.4.1-68.3-7.3-91.3-16.1m471.2-106.5c0 77-54 122.7-113.4 122.7-35.3 0-64.3-16.7-81.5-40.2v99.2c0 9.3-5.4 15.2-21.1 15.2-7.9 0-15.2-1-19.1-1.9V135c3.9-1 11.2-2 19.1-2 15.7 0 21.1 5.9 21.1 15.2v22.5c17.2-23.5 46.2-40.2 81.5-40.2 59.4 0 113.4 45.7 113.4 122.3m-40.7 0c0-51.5-34.3-86.9-80.5-86.9-31.4 0-60.4 18.2-73.6 44.7v84.9c13.2 26.5 42.2 44.7 73.6 44.7 46.1-.1 80.5-35.4 80.5-87.4m78.4 0c0-70.2 51.5-122.2 120.7-122.2 69.7 0 121.2 52 121.2 122.2 0 69.7-51.5 122.7-121.2 122.7-69.2-.1-120.7-53.1-120.7-122.7m201.2 0c0-54-36.4-86.9-80.5-86.9-43.6 0-80 32.9-80 86.9 0 53.5 36.4 87.3 80 87.3 44.1 0 80.5-33.8 80.5-87.3m235.3-100.2c0 16.2-6.8 19.6-23.6 19.6-33.8 0-62.3 15.7-80 52.5v133.1c0 9.8-5.4 15.2-21.6 15.2-6.9 0-14.8-1-18.7-1.9V134.9c3.9-1 11.7-1.9 18.7-1.9 16.1 0 21.6 5.9 21.6 15.2v32.9c23-34.9 57.9-52.5 101.6-46.6.5 3.4 2 10.8 2 18.1m176.5 206.7c-20.6 9.8-44.2 16.2-67.7 16.2-46.6 0-74.6-27.5-74.6-73.1V99.7c0-10.3 5.9-17.2 21.6-17.2 6.8 0 14.7 1.4 18.7 2.5v51h91.7c.5 3.4 1.5 10.3 1.5 16.2 0 14.2-5.9 19.1-14.7 19.1h-78.5v128.2c0 27.4 12.7 40.7 38.7 40.7 23.6 0 36.8-10.3 48.1-10.3 11.8-.1 17.7 9.7 15.2 29.4" fill="#fff"/><path d="M2549.676 337.684q-1.564 0-3.312-.368-1.656-.276-2.76-.736l25.3-50.048H2542.5q-1.84 0-2.944-1.012-1.012-1.104-1.012-3.956 0-1.38.092-2.484.092-1.196.276-1.932h41.86v6.9l-24.564 50.232q-1.012 2.116-2.76 2.76-1.656.644-3.772.644z"/></svg>