<?xml version="1.0" encoding="UTF-8"?>
<svg width="800" height="114.63" version="1.1" xmlns="http://www.w3.org/2000/svg">
	<g>
		<path d="m792.37 0h-316.01c-4.2184 0-7.6343 3.416-7.6343 7.6343v99.361c0 4.2184 3.416 7.6343 7.6343 7.6343h316.01c4.2184 0 7.6343-3.416 7.6343-7.6343v-99.361c0-4.2184-3.416-7.6343-7.6343-7.6343m0 2.2926c2.9574 0 5.3417 2.4072 5.3417 5.3417v99.361c0 2.9574-2.4072 5.3417-5.3417 5.3417h-316.01c-2.9345 0-5.3417-2.3843-5.3417-5.3417v-99.361c0-2.9345 2.4072-5.3417 5.3417-5.3417h316.01" fill="#002a91"/>
		<path d="m792.37 2.2926c2.9574 0 5.3417 2.4072 5.3417 5.3417v99.361c0 2.9574-2.4072 5.3417-5.3417 5.3417h-316.01c-2.9345 0-5.3417-2.3843-5.3417-5.3417v-99.361c0-2.9345 2.4072-5.3417 5.3417-5.3417h316.01" fill="#fff"/>
		<path d="m721.75 20.427c-2.6136 0-4.8601 2.0636-4.8601 4.8606 0 2.4989 2.2466 4.8372 4.8601 4.8601 2.8199 0 4.9524-2.3383 4.9524-4.8601 0-2.797-2.1554-4.8606-4.9524-4.8606zm-67.7 5.0665c-2.9804 0-4.1038 1.2841-4.1038 3.2557v38.516c0 8.666 5.3189 13.893 14.191 13.893 4.4706 0 8.941-1.2151 12.861-3.095 0.45851-3.714-0.66476-5.5941-2.8886-5.5712-2.155 0-4.677 1.972-9.1475 1.972-4.9291 0-7.3591-2.522-7.3591-7.7491v-24.347h14.925c1.6736 0 2.7968-0.94005 2.7968-3.6453 0-1.1234-0.18322-2.4302-0.27493-3.0722h-17.447v-9.6978c-0.75656-0.18341-2.2467-0.45852-3.5535-0.45852zm-127.03 9.079c-6.3505 0-12.976 1.5817-17.538 3.2553-0.75656 3.9203 0.66467 5.7772 2.7968 5.7772 0.91703 0 2.0405-0.36664 3.5307-0.73345 2.5218-0.64193 7.2673-1.6738 10.821-1.6738 8.5055 0 10.73 3.0954 10.73 10.455v1.5815c-19.693-1.2839-31.248 3.462-31.248 14.283 0 7.0841 5.5021 13.618 15.498 13.618 6.6027 0 11.83-2.7055 15.842-7.2678v3.9207c0 1.857 1.3064 2.8886 4.1034 2.8886 1.3068 0 2.7056-0.18332 3.4622-0.36672v-28.726c0-11.096-4.8603-16.988-17.997-17.011zm228.07 0c-6.3505 0-12.976 1.5817-17.538 3.2553-0.75655 3.9203 0.66513 5.7772 2.7972 5.7772 0.91703 0 2.04-0.36664 3.5302-0.73345 2.5218-0.64193 7.2678-1.6738 10.821-1.6738 8.5055 0 10.729 3.0954 10.729 10.455v1.5815c-19.693-1.2839-31.248 3.462-31.248 14.283 0 7.0841 5.5021 13.618 15.498 13.618 6.6027 0 11.83-2.7055 15.842-7.2678v3.9207c0 1.857 1.3069 2.8886 4.1038 2.8886 1.3068 0 2.7052-0.18332 3.4617-0.36672v-28.726c0-11.096-4.8603-16.988-17.997-17.011zm-132.44 0.04567c-12.036 0-17.355 5.9609-17.355 12.678 0 5.4105 3.4391 9.789 12.22 12.127l7.9323 2.1323c6.9236 1.857 8.0241 4.1038 8.0241 6.6257 0 3.5306-2.8888 6.2357-10.523 6.2357-7.2904 0-12.517-2.3383-14.649-2.3383-2.2238 0-3.4393 2.0632-2.889 5.9836 4.3788 1.6965 11.578 3.0951 17.309 3.0722 13.068 0 18.479-6.259 18.479-13.251 0-5.9607-3.6225-10.156-12.678-12.678l-8.1159-2.2241c-6.3276-1.7882-7.3591-3.8286-7.3591-6.0754 0-3.1638 2.6137-5.594 9.6978-5.594 6.6256 0 11.279 1.972 13.343 1.972 2.3155 0 3.5304-2.0408 2.7968-5.8694-4.1037-1.5819-10.821-2.7968-16.231-2.7968zm-62.313 0.45852c-3.0721 0-4.1038 1.1233-4.1038 2.8886v24.141c0 13.251 7.6346 19.029 16.782 19.029 6.6256 0 11.577-3.164 14.833-7.176v3.8289c0 1.7882 1.0318 2.8886 4.1038 2.8886 1.3297 0 2.797-0.18332 3.5535-0.36672v-44.866c-0.75656-0.18341-2.2467-0.36672-3.5535-0.36672-3.0721 0-4.1038 1.1233-4.1038 2.8886v28.635c-2.2238 4.1954-7.8177 7.7491-12.953 7.7491-6.6256 0-11.004-4.2873-11.004-13.251v-25.654c-0.75655-0.18341-2.2467-0.36672-3.5535-0.36672zm127.19 0c-1.3068 0-2.797 0.18332-3.5535 0.36672v44.866c0.75655 0.18341 2.2467 0.36672 3.5535 0.36672 3.0721 0 4.1038-1.0087 4.1038-2.8886v-25.287c3.3472-6.9924 8.7574-9.9728 15.2-9.9728 3.1638 0 4.4706-0.6421 4.4706-3.7371 0-1.3756-0.29794-2.797-0.36672-3.4389-8.2992-1.1234-14.925 2.2242-19.303 8.8498v-6.2361c0-1.7653-1.0318-2.8886-4.1038-2.8886zm34.504 0c-3.0721 0-4.1038 1.1004-4.1038 2.8886v42.344c0.73363 0.18341 2.2239 0.36672 3.5307 0.36672 3.0721 0 4.012-1.0316 4.012-2.8886v-42.344c-0.73363-0.18341-2.1321-0.36672-3.4389-0.36672zm-191.62 23.454c2.2063-0.0315 4.5437 0.05212 6.9552 0.22836v8.4826c-3.2555 4.4935-8.4825 7.4738-14.466 7.4509-5.892 0-9.1475-3.5306-9.1475-7.4509 0-6.2774 7.0981-8.5744 16.658-8.711zm228.07 0c2.2062-0.0315 4.5433 0.05212 6.9548 0.22836v8.4826c-3.2555 4.4935-8.4825 7.4738-14.466 7.4509-5.892 0-9.1475-3.5306-9.1475-7.4509 0-6.2774 7.0985-8.5744 16.659-8.711z" fill="#002a91"/>
	</g>
	<linearGradient id="A" x1="1456.7" x2="1456.7" y2="500" gradientTransform="scale(.22926)" gradientUnits="userSpaceOnUse">
		<stop stop-color="red" offset=".4"/>
		<stop stop-color="#d42321" offset="1"/>
	</linearGradient>
	<path d="m190.77 0h286.39c4.2183 0 7.6342 3.416 7.6342 7.6342v99.36c0 4.2183-3.4159 7.6342-7.6342 7.6342h-286.39c-4.2183 0-7.6342-3.416-7.6342-7.6342v-99.36c0-4.2183 3.416-7.6342 7.6342-7.6342z" fill="url(#A)"/>
	<linearGradient id="B" x1="1459.5" x2="1450.8" y1="233.73" y2="-15.325" gradientTransform="scale(.22926)" gradientUnits="userSpaceOnUse">
		<stop stop-color="#fff" offset="0"/>
		<stop stop-color="#fff" stop-opacity=".835" offset=".12"/>
		<stop stop-color="#fff" stop-opacity=".658" offset=".269"/>
		<stop stop-color="#fff" stop-opacity=".511" offset=".42"/>
		<stop stop-color="#fff" stop-opacity=".397" offset=".568"/>
		<stop stop-color="#fff" stop-opacity=".315" offset=".716"/>
		<stop stop-color="#fff" stop-opacity=".266" offset=".86"/>
		<stop stop-color="#fff" stop-opacity=".25" offset="1"/>
	</linearGradient>
	<path d="m188.63 56.855 0.73363-0.04585 289.71-10.11c3.1867-0.02293 5.7314-2.6365 5.7085-5.8002v-33.266c0-4.2183-3.4159-7.6342-7.6342-7.6342h-286.39c-4.2183 0-7.6342 3.416-7.6342 7.6342v55.182c-0.0917-3.1409 2.3614-5.8002 5.5021-5.9606z" fill="url(#B)" opacity=".4"/>
	<linearGradient id="C" x1="361.92" x2="361.92" y1="28.806" y2="471.22" gradientTransform="scale(.22926)" gradientUnits="userSpaceOnUse">
		<stop stop-color="#002a91" offset="0"/>
		<stop stop-color="#002672" offset=".8"/>
	</linearGradient>
	<path d="m114.54 106.4c2.4072 1.0546 4.9977 1.6277 7.6113 1.6277 5.9836 0.13753 9.262-2.155 11.669-7.5196l32.119-71.505c-2.0863-0.93995-4.3558-1.4673-6.6484-1.536-4.1495-0.0917-9.6976 0.75655-13.205 9.1932l-10.385 24.485-20.404-33.151c-2.2467-0.59606-4.5621-0.91703-6.8777-0.96288-7.2216 0-11.234 2.6365-15.406 7.1757l-19.831 21.642 15.934 25.081c2.9574 4.5622 6.8318 6.9006 13.137 6.9006 3.1407 0.04585 6.2587-0.52729 9.1703-1.7194l-19.212-28.887 13.618-14.42 22.33 35.008zm-42.114-27.03c0 5.2729-2.0633 8.2991-12.38 8.2991-1.238 0-2.476-0.0917-3.691-0.25218v-69.946c0-5.3187 1.8111-10.867 12.197-10.867 1.3068 0 2.6136 0.13756 3.8744 0.38973zm-21.275-10.569c0 9.858-6.4421 17.011-19.51 18.432-9.4683 1.0087-23.178-0.18341-29.689-0.91703-0.22926-1.1234-0.3668-2.2697-0.38973-3.4389 0-8.5742 4.6309-10.546 8.9869-10.546 4.5392 0 11.669 0.8024 16.965 0.8024 5.846 0 7.6113-1.9716 7.6113-3.8744 0-2.4531-2.3384-3.4847-6.8777-4.3558l-12.426-2.3843c-10.317-1.9716-15.819-9.1015-15.819-16.667 0-9.1932 6.5109-16.873 19.327-18.295 9.6976-1.0546 21.505 0.13756 27.97 0.91703 0.22926 1.0775 0.34389 2.178 0.34389 3.3013 0 8.5742-4.5392 10.431-8.8952 10.431-3.3472 0-8.5513-0.61899-14.489-0.61899-6.0294 0-8.5513 1.6736-8.5513 3.691 0 2.155 2.3843 3.0262 6.167 3.691l11.853 2.2009c12.174 2.2238 17.424 9.1473 17.424 17.63z" fill="url(#C)"/>
	<linearGradient id="D" x1="365.45" x2="359.6" y1="263.25" y2="95.751" gradientTransform="scale(.22926)" gradientUnits="userSpaceOnUse">
		<stop stop-color="#fff" offset="0"/>
		<stop stop-color="#fff" stop-opacity=".835" offset=".12"/>
		<stop stop-color="#fff" stop-opacity=".658" offset=".269"/>
		<stop stop-color="#fff" stop-opacity=".511" offset=".42"/>
		<stop stop-color="#fff" stop-opacity=".397" offset=".568"/>
		<stop stop-color="#fff" stop-opacity=".315" offset=".716"/>
		<stop stop-color="#fff" stop-opacity=".266" offset=".86"/>
		<stop stop-color="#fff" stop-opacity=".25" offset="1"/>
	</linearGradient>
	<path d="m165.96 29.001-11.761 26.181c-0.91701 1.8799-2.8199 3.0721-4.906 3.0721l-10.729 0.36681c-1.1692 0.06878-2.2009 0.84825-2.6136 1.9487v-0.02293l10.133-23.889c3.5305-8.4366 9.0786-9.2849 13.205-9.1932 2.3155 0.06878 4.5621 0.59606 6.6713 1.536zm-30.812 31.294-19.854-32.28c-2.2467-0.59606-4.5621-0.91703-6.8777-0.96288-7.2216 0-11.234 2.6365-15.406 7.1757l-19.831 21.642 1.5819 2.4989c1.0317 1.559 2.8199 2.4531 4.6997 2.3614l11.302-0.38974a5.6557 5.6557 0 0 1 4.9977 2.2467l-3.5534-5.3416 13.618-14.42 9.1473 14.329c1.1234 1.4214 2.8657 2.2238 4.6768 2.178l12.999-0.45851c1.0087 0 1.9716 0.55021 2.4989 1.4214zm-66.599-53.669c-10.385 0-12.197 5.548-12.197 10.867v47.914c0-2.2009 1.7653-3.989 3.9661-4.0578l8.0469-0.27511c2.2467 0 4.0807-1.8341 4.0807-4.0807v-49.978c-1.3068-0.27511-2.5906-0.41266-3.8973-0.38973zm-34.802 44.521-11.853-2.2009c-3.7827-0.66484-6.167-1.536-6.167-3.691 0-2.0175 2.5219-3.691 8.5513-3.691 5.9377 0 11.142 0.61899 14.489 0.61899 4.3558 0 8.8952-1.857 8.8952-10.431 0-1.1004-0.11463-2.2238-0.34389-3.3013-6.465-0.8024-18.272-1.9716-27.97-0.91703-12.839 1.4214-19.349 9.1244-19.349 18.295 0.022926 4.906 2.3384 9.5371 6.2587 12.495 2.8887 1.7882 6.144 2.9574 9.5142 3.393 4.4017 0.59606 8.8264 0.82532 13.251 0.68777l14.145-0.50436c5.2958-0.18341 8.1845 4.3329 7.8864 8.8722 0-0.06878 0-0.11463 0.02293-0.18341v-0.04585c0.04585-0.59606 0.06878-1.1921 0.06878-1.7882 0-8.4366-5.2499-15.36-17.401-17.607z" fill="url(#D)" opacity=".25"/>
	<path d="m205.05 82.372c-0.68777-4.7226 0.77947-7.1986 3.4846-7.1986 2.5677 0 8.8722 2.8199 17.653 2.8199 9.2391 0 12.724-3.2784 12.724-7.5425 0-3.0262-1.3526-5.7314-9.6746-8.001l-9.56-2.5677c-10.569-2.8199-14.741-8.1157-14.741-14.65 0-8.0927 6.4192-15.315 20.931-15.315 6.5338 0 14.65 1.4673 19.579 3.393 0.89411 4.608-0.57313 7.084-3.37 7.084-2.476 0-8.0927-2.3614-16.094-2.3614-8.5513 0-11.715 2.9116-11.715 6.7401 0 2.6823 1.238 5.1812 8.8952 7.3133l9.7893 2.7053c10.936 3.0262 15.315 8.0927 15.315 15.292 0 8.4596-6.5338 15.979-22.284 15.979-6.9694 0.02293-15.658-1.6736-20.931-3.691m108.03-24.416c0 17.653-12.38 28.13-25.998 28.13-8.0927 0-14.741-3.8285-18.685-9.2161v22.743c0 2.1321-1.238 3.4847-4.8373 3.4847-1.8111 0-3.4847-0.22926-4.3787-0.4356v-71.711c0.89409-0.22926 2.5677-0.45851 4.3787-0.45851 3.5993 0 4.8373 1.3526 4.8373 3.4847v5.1582c3.9433-5.3875 10.592-9.2161 18.685-9.2161 13.618 0 25.998 10.477 25.998 28.038m-9.3307 0c0-11.807-7.8635-19.923-18.455-19.923-7.1986 0-13.847 4.1724-16.873 10.248v19.464c3.0262 6.0753 9.6746 10.248 16.873 10.248 10.569-0.02293 18.455-8.1157 18.455-20.037m17.974 0c0-16.094 11.807-28.015 27.672-28.015 15.979 0 27.786 11.921 27.786 28.015 0 15.979-11.807 28.13-27.786 28.13-15.865-0.022929-27.672-12.174-27.672-28.13m46.126 0c0-12.38-8.3449-19.923-18.455-19.923-9.9956 0-18.341 7.5425-18.341 19.923 0 12.265 8.3449 20.014 18.341 20.014 10.11 0 18.455-7.7489 18.455-20.014m53.944-22.972c0 3.7139-1.559 4.4934-5.4104 4.4934-7.7489 0-14.283 3.5994-18.341 12.036v30.514c0 2.2467-1.238 3.4846-4.9519 3.4846-1.5819 0-3.3929-0.22926-4.287-0.43558v-54.15c0.89411-0.22926 2.6823-0.43558 4.287-0.43558 3.6911 0 4.9519 1.3526 4.9519 3.4847v7.5425c5.2729-8.001 13.274-12.036 23.293-10.683 0.11463 0.77947 0.4585 2.476 0.4585 4.1495m40.463 47.387c-4.7226 2.2467-10.133 3.7139-15.521 3.7139-10.683 0-17.103-6.3045-17.103-16.759v-46.47c0-2.3614 1.3526-3.9432 4.9519-3.9432 1.559 0 3.3701 0.32096 4.2871 0.57314v11.692h21.023c0.11463 0.77947 0.34387 2.3614 0.34387 3.7139 0 3.2555-1.3526 4.3788-3.37 4.3788h-17.997v29.391c0 6.2816 2.9116 9.3307 8.8722 9.3307 5.4104 0 8.4366-2.3614 11.027-2.3614 2.7053-0.02293 4.0579 2.2238 3.4847 6.7401" fill="#fff"/>
</svg>
