<?xml version="1.0" encoding="UTF-8"?>
<svg width="800" height="206.75" xmlns="http://www.w3.org/2000/svg">
  <path d="M793.75 0c3.46 0 6.25 2.817 6.25 6.25v116.24a6.278 6.278 0 0 1-6.25 6.25H630.68c-3.46 0-6.25-2.816-6.25-6.25V6.28c0-3.46 2.817-6.25 6.25-6.25h163.07" fill="#bbb"/>
  <path d="M714.58 38.576v49.548c0 2.173-1.1 3.38-4.48 3.38-1.53 0-2.95-.214-4.05-.43V68.274h-28.274V88.15c0 2.173-1.1 3.38-4.48 3.38-1.637 0-3.273-.214-4.051-.43V41.528c0-2.093 1.1-3.38 4.587-3.38 1.53 0 3.032.214 3.917.429v22.05h28.14v-19.1c0-2.091 1.208-3.38 4.696-3.38 1.61 0 3.112.215 3.996.43m58.003 26.182c0 14.861-10.38 26.101-26.638 26.101H730.79c-3.272 0-4.48-1.314-4.48-3.38v-45.31c0-2.064 1.208-3.38 4.48-3.38h15.157c16.257 0 26.638 11.134 26.638 25.969m-8.638 0c0-11.133-6.974-18.35-18-18.35h-11.133v36.78h11.133c11.026.027 18-7.19 18-18.43" fill="#9c001f"/>
  <path d="M57.492 77.171c0 11.076-7.212 19.112-21.946 20.709-10.612 1.133-26.016-.206-33.331-1.03-.258-1.185-.464-2.68-.464-3.864 0-9.633 5.203-11.849 10.097-11.849 5.1 0 13.137.876 19.061.876 6.594 0 8.552-2.215 8.552-4.328 0-2.781-2.627-3.915-7.727-4.894l-13.961-2.678C6.182 67.897 0 59.913 0 51.413 0 41.11 7.315 32.455 21.74 30.858c10.87-1.185 24.16.154 31.425 1.03.257 1.236.412 2.421.412 3.71 0 9.633-5.1 11.693-9.994 11.693-3.761 0-9.582-.67-16.28-.67-6.8 0-9.581 1.855-9.581 4.122 0 2.42 2.678 3.4 6.903 4.172l13.29 2.473C51.62 59.913 57.493 67.64 57.493 77.17m23.852 11.85c0 5.924-2.319 9.324-13.91 9.324-1.545 0-2.884-.103-4.172-.31V19.577c0-5.976 2.009-12.21 13.703-12.21 1.494 0 2.988.155 4.379.464zm47.343 30.393c1.545.773 4.636 1.752 8.551 1.803 6.749.155 10.406-2.42 13.137-8.448l36.061-80.21c-1.494-.773-4.79-1.7-7.47-1.752-4.636-.103-10.87.825-14.837 10.303l-11.746 27.458-22.925-37.246c-1.494-.463-5.1-1.082-7.727-1.082-8.14 0-12.62 2.988-17.309 8.037L82.167 62.591l17.928 28.179c3.297 5.152 7.676 7.779 14.734 7.779 4.636 0 8.5-1.082 10.303-1.906l-21.585-32.455 15.3-16.228 25.088 39.307z" fill="#ff0031"/>
  <path d="M624.84 0H214.21c-4.74 0-8.603 3.864-8.603 8.603v111.53c0 4.74 3.864 8.603 8.603 8.603h410.58c4.74 0 8.603-3.863 8.603-8.603V8.553c-.051-4.74-3.812-8.551-8.551-8.551" fill="url(#a)"/>
  <path d="M63.313 19.576V73.41c0-2.164 1.649-4.43 4.43-4.533l9.067-.31c1.803-.051 4.534-1.287 4.585-4.584V7.83a20.366 20.366 0 0 0-4.379-.464c-11.694.051-13.703 6.233-13.703 12.209m41.213 18.752L82.271 62.643l1.803 2.782c.773 1.03 2.267 2.782 5.255 2.679l12.673-.464c2.782-.103 4.533 1.082 5.615 2.524l-3.966-5.975 15.3-16.228 10.252 16.124c1.854 2.42 4.636 2.472 5.254 2.472.515 0 14.012-.463 14.58-.515.926-.051 2.008.464 2.833 1.649l-22.306-36.267c-1.494-.464-5.1-1.082-7.728-1.082-8.14-.052-12.62 2.885-17.309 7.985m-82.786-7.47C7.317 32.454.001 41.057.001 51.412c0 5.306 2.421 10.406 7.058 14.064 3.503 2.318 7.109 3.194 10.664 3.812 2.936.515 9.788.98 14.888.773l15.867-.567c5.976-.206 9.17 4.894 8.86 9.994v-.257c.052-.67.104-1.34.104-2.01 0-9.53-5.873-17.308-19.525-19.833l-13.291-2.473c-4.276-.721-6.904-1.752-6.904-4.173 0-2.267 2.834-4.173 9.582-4.173 6.698 0 12.518.67 16.28.67 4.893 0 9.994-2.06 9.994-11.694 0-1.288-.155-2.473-.413-3.71-5.203-.617-13.549-1.493-21.843-1.493-3.245.051-6.49.206-9.582.515M164.03 41.11l-11.385 26.84c0-.051.722-2.112 2.937-2.215l12.055-.412c3.657-.155 5.1-2.628 5.512-3.452l13.188-29.416c-1.494-.773-4.791-1.7-7.47-1.751h-.566c-4.585.051-10.458 1.288-14.27 10.406" fill="url(#b)" opacity=".3"/>
  <path d="M214.2 0c-4.74 0-8.603 3.864-8.603 8.603v61.922c0-.927.36-6.027 6.182-6.594 0 0 .309-.051.824-.051l414.39-14.527c3.245-.103 6.388-2.525 6.388-6.543V8.655c0-4.74-3.864-8.603-8.603-8.603z" fill="url(#c)" opacity=".3"/>
  <path d="M298.64 14.578c-3.452 0-6.389 2.68-6.389 6.389 0 3.245 2.886 6.285 6.389 6.285s6.285-2.988 6.285-6.285c0-3.606-2.73-6.389-6.285-6.389zm117.35 19.113c-16.588 0-30.033 13.137-30.033 31.219 0 18.752 12.93 31.527 31.682 31.527 8.655 0 16.795-2.576 22.102-4.945.618-5.461-1.237-7.83-3.762-7.83-1.082 0-2.42.514-4.945 1.441-3.864 1.185-7.83 2.371-13.033 2.371-12.106 0-20.348-6.75-21.842-18.443h46.93c.36-2.267.515-4.276.566-6.182 0-14.373-9.17-29.158-27.664-29.158zm-155.37.05c-17.412 0-30.703 13.345-30.703 31.272 0 17.928 13.291 31.424 30.703 31.682 8.242 0 15.713-2.267 21.02-4.791.515-5.46-1.495-7.727-4.02-7.727-3.503 0-7.468 3.863-16.639 3.863-11.59 0-21.02-8.912-21.02-22.873 0-13.96 9.429-22.615 21.02-22.615 9.17 0 13.084 3.864 16.64 3.864 2.524 0 4.534-2.268 4.019-7.729-5.203-2.679-12.674-4.945-21.02-4.945zm89.639 0c-9.118 0-15.816 4.431-20.195 9.737v-5.203c0-2.267-1.34-3.76-5.203-3.76-1.752 0-3.606.413-4.533.67v60.12c.927.257 2.781.515 4.533.515 3.915 0 5.203-1.392 5.203-3.762V53.472c3.194-5.821 10.921-10.869 18.082-10.869 9.015 0 15.146 5.873 15.146 18.236V95.2c.979.258 2.936.516 4.533.516 3.967 0 5.203-1.392 5.203-3.762V59.499c0-17.824-10.354-25.706-22.77-25.758zm133.63 0c-7.418 0-13.548 3.866-17.412 9.07v-4.278c0-2.524-1.288-4.018-5.049-4.018-1.597 0-3.503.413-4.533.67v60.016c.824.258 2.782.516 4.533.516 3.967 0 5.203-1.392 5.203-3.762V52.34c2.267-4.894 8.089-9.84 14.89-9.84 8.139 0 12.26 5.307 12.26 14.22V95.2c1.03.258 2.885.516 4.636.516 3.967 0 5.203-1.392 5.203-3.762V52.34c2.267-4.894 8.089-9.84 14.89-9.84 7.984 0 12.26 5.307 12.26 14.22V95.2c.978.258 2.937.516 4.534.516 3.967 0 5.305-1.392 5.305-3.762V55.637c0-12.003-6.903-21.843-19.885-21.895-8.912 0-15.301 4.895-19.422 10.922-3.194-6.8-9.427-10.922-17.412-10.922zm97.211 0c-8.449 0-17.465 2.011-23.492 4.278-.618 5.306.98 7.83 3.762 7.83.979 0 2.42-.463 4.275-.978 3.606-1.185 8.913-2.526 15.043-2.526 11.85 0 14.89 5.565 14.89 14.89v1.648c-26.738-1.752-42.554 4.637-42.554 19.268 0 9.685 7.469 18.338 21.018 18.338 9.015 0 15.817-3.555 21.535-9.582v5.048c0 2.525 1.597 3.813 5.203 3.813 1.752 0 3.503-.258 4.533-.516V56.873c0-14.27-6.542-23.079-24.213-23.13zm-282.15.825c-4.07 0-5.307 1.495-5.307 3.762V95.2c.98.257 2.885.515 4.534.566 3.966 0 5.306-1.39 5.306-3.76v-56.77c-.979-.258-2.936-.67-4.533-.67zm117.1 7.883c10.87 0 17.516 8.14 17.928 18.494h-37.762c1.597-12.106 10.149-18.597 19.834-18.494zm173.04 23.69c2.078.007 4.218.064 6.394.161v11.592c-4.636 6.182-11.59 10.354-19.834 10.354-8.087 0-12.62-4.946-12.62-10.252 0-9.421 11.516-11.899 26.06-11.854z" fill="#fff"/>
  <path d="M323.73 142.01c-1.212 0-2.254.438-3.127 1.31-.873.873-1.31 1.939-1.31 3.2 0 1.212.437 2.256 1.31 3.129.873.872 1.915 1.308 3.127 1.308 1.26 0 2.328-.436 3.201-1.308.873-.873 1.309-1.917 1.309-3.13 0-1.26-.436-2.326-1.309-3.199-.873-.872-1.94-1.31-3.201-1.31zm172.62 2.62c-1.018 0-1.698.266-2.037.8-.34.485-.508.994-.508 1.527v59.211c1.018.34 1.94.51 2.764.51 1.018 0 1.697-.267 2.037-.8.34-.486.508-.995.508-1.528v-59.211c-1.019-.34-1.94-.51-2.764-.51zm86.127.29c-3.346 0-6.354.557-9.021 1.672-2.62 1.115-4.776 2.353-6.473 3.71.097 1.747.46 3.129 1.09 4.147.679.97 1.552 1.456 2.619 1.456.63 0 1.31-.195 2.037-.583.727-.387 1.527-.825 2.4-1.31.922-.485 1.94-.92 3.055-1.309 1.164-.388 2.473-.582 3.928-.582 2.91 0 5.068.703 6.474 2.11 1.406 1.357 2.11 3.201 2.11 5.529a8.339 8.339 0 0 1-.582 3.127c-.388.97-.945 1.94-1.672 2.91-.728.97-1.625 1.964-2.692 2.983a99.726 99.726 0 0 1-3.71 3.345l-13.095 11.783c-.824.68-1.406 1.576-1.746 2.692s-.508 2.085-.508 2.91c0 .63.024 1.236.073 1.818.048.534.122.995.219 1.383h29.533c.92 0 1.672-.267 2.253-.8.63-.583.946-1.624.946-3.128 0-1.455-.121-2.619-.364-3.492h-21.895l11.348-9.82a47.495 47.495 0 0 0 4-3.418 25.446 25.446 0 0 0 3.202-3.711 15.943 15.943 0 0 0 2.109-4.147c.533-1.454.8-3.029.8-4.726 0-4.365-1.431-7.882-4.292-10.55s-6.91-4-12.146-4zm43.135.51-19.785 28.004c-.679.97-1.164 1.867-1.455 2.691s-.438 1.674-.438 2.547c0 .776.05 1.455.147 2.037.097.582.194 1.067.29 1.455h21.968v10.62c.388.096.946.17 1.674.218.727.097 1.48.145 2.256.145 1.503 0 2.52-.315 3.054-.946.582-.63.873-1.406.873-2.328v-7.709h4.582c.825 0 1.528-.267 2.11-.8.63-.534.945-1.504.945-2.91 0-1.359-.12-2.474-.363-3.346h-7.274V145.43zm-82.27 9.965c-1.31 0-2.207.267-2.691.8-.485.534-.729 1.211-.729 2.036v12.295h-11.566c-.873 0-1.6.218-2.182.654-.533.436-.8 1.334-.8 2.691 0 1.407.097 2.474.29 3.202h14.259v15.42c.34.048.8.121 1.383.218.63.049 1.26.073 1.89.073 1.31 0 2.207-.268 2.692-.801.484-.534.728-1.211.728-2.035v-12.875h11.783c.873 0 1.576-.22 2.11-.657.581-.436.872-1.333.872-2.691 0-1.406-.097-2.472-.29-3.2h-14.476v-14.84a23.92 23.92 0 0 0-1.455-.146 11.047 11.047 0 0 0-1.818-.144zm82.996.435v19.35h-13.674zm-387.49 1.092c-2.425 0-4.68.461-6.766 1.383a16.661 16.661 0 0 0-5.455 3.855c-1.503 1.6-2.691 3.516-3.564 5.746-.873 2.183-1.309 4.583-1.309 7.202 0 2.618.412 5.068 1.237 7.347.872 2.231 2.108 4.17 3.709 5.819 1.6 1.649 3.564 2.934 5.892 3.855s4.972 1.383 7.93 1.383c2.764 0 5.238-.291 7.42-.873 2.182-.63 4-1.286 5.455-1.965.048-.29.072-.582.072-.873a4.9 4.9 0 0 0 .072-.8c0-1.31-.29-2.352-.873-3.128-.533-.776-1.236-1.164-2.109-1.164-.63 0-1.26.097-1.89.291-.631.194-1.334.438-2.11.729-.776.242-1.65.46-2.619.654-.97.194-2.109.291-3.418.291-3.055 0-5.529-.729-7.42-2.183-1.843-1.504-2.934-3.66-3.273-6.473h25.24c.242-1.212.365-2.424.365-3.637a19.31 19.31 0 0 0-1.092-6.402 16.344 16.344 0 0 0-3.129-5.602c-1.358-1.648-3.079-2.957-5.164-3.927-2.085-1.019-4.485-1.528-7.201-1.528zm40.371 0c-2.037 0-3.928.558-5.674 1.674-1.746 1.067-3.128 2.4-4.146 4l-.073-.873c0-1.358-.338-2.426-1.017-3.201-.63-.825-1.698-1.237-3.201-1.237a7.78 7.78 0 0 0-1.891.219 19.03 19.03 0 0 0-1.602.363v34.916c.388.097.947.17 1.674.22.776.096 1.527.144 2.254.144 1.552 0 2.596-.315 3.129-.946.582-.63.873-1.43.873-2.4V168.27c.63-1.213 1.551-2.254 2.764-3.127a6.98 6.98 0 0 1 4.219-1.383c2.036 0 3.589.63 4.656 1.89 1.115 1.213 1.672 3.007 1.672 5.383v21.75c.388.097.946.17 1.673.22.776.096 1.529.144 2.256.144 1.552 0 2.594-.315 3.127-.946.582-.63.873-1.43.873-2.4v-21.459c.63-1.26 1.552-2.326 2.764-3.2 1.212-.92 2.692-1.382 4.438-1.382 1.842 0 3.322.606 4.437 1.818 1.115 1.164 1.672 2.982 1.672 5.456v21.75c.388.097.946.17 1.674.218.776.097 1.528.145 2.256.145 1.551 0 2.593-.315 3.127-.945.582-.63.873-1.431.873-2.4v-19.567c0-4.122-.945-7.372-2.836-9.748-1.843-2.376-4.68-3.564-8.512-3.564-2.328 0-4.413.606-6.256 1.818-1.794 1.164-3.394 2.91-4.8 5.238-.825-2.327-2.183-4.074-4.075-5.238-1.843-1.212-3.952-1.818-6.328-1.818zm71.797 0c-2.425 0-4.68.461-6.766 1.383a16.66 16.66 0 0 0-5.455 3.855c-1.503 1.6-2.691 3.516-3.564 5.746-.873 2.183-1.31 4.583-1.31 7.202 0 2.618.411 5.068 1.236 7.347.872 2.231 2.11 4.17 3.71 5.819s3.565 2.934 5.893 3.855 4.97 1.383 7.928 1.383c2.764 0 5.237-.291 7.42-.873 2.182-.63 4-1.286 5.455-1.965.048-.29.074-.582.074-.873a4.9 4.9 0 0 0 .072-.8c0-1.31-.29-2.352-.873-3.128-.533-.776-1.236-1.164-2.11-1.164-.63 0-1.261.097-1.892.291a37.45 37.45 0 0 0-2.11.729c-.775.242-1.646.46-2.616.654-.97.194-2.111.291-3.42.291-3.055 0-5.529-.729-7.42-2.183-1.843-1.504-2.934-3.66-3.274-6.473h25.242a18.5 18.5 0 0 0 .364-3.637 19.31 19.31 0 0 0-1.092-6.402 16.338 16.338 0 0 0-3.127-5.602c-1.358-1.648-3.079-2.957-5.164-3.927-2.085-1.019-4.486-1.528-7.201-1.528zm62.266 0c-2.425 0-4.68.461-6.766 1.383a16.661 16.661 0 0 0-5.455 3.855c-1.503 1.6-2.691 3.516-3.564 5.746-.873 2.183-1.309 4.583-1.309 7.202 0 2.618.412 5.068 1.237 7.347.872 2.231 2.108 4.17 3.709 5.819 1.6 1.649 3.564 2.934 5.892 3.855s4.972 1.383 7.93 1.383c2.764 0 5.238-.291 7.42-.873 2.182-.63 4-1.286 5.455-1.965.048-.29.072-.582.072-.873a4.9 4.9 0 0 0 .072-.8c0-1.31-.29-2.352-.873-3.128-.533-.776-1.236-1.164-2.109-1.164-.63 0-1.26.097-1.89.291-.631.194-1.334.438-2.11.729-.776.242-1.65.46-2.62.654-.969.194-2.108.291-3.417.291-3.055 0-5.529-.729-7.42-2.183-1.843-1.504-2.934-3.66-3.273-6.473h25.24c.242-1.212.365-2.424.365-3.637a19.31 19.31 0 0 0-1.092-6.402 16.344 16.344 0 0 0-3.129-5.602c-1.358-1.648-3.079-2.957-5.164-3.927-2.085-1.019-4.486-1.528-7.201-1.528zm41.973 0c-2.473 0-4.705.558-6.693 1.674-1.94 1.067-3.517 2.449-4.729 4.146l-.072-1.02c0-1.357-.339-2.424-1.018-3.2-.63-.825-1.698-1.237-3.201-1.237a7.78 7.78 0 0 0-1.89.22 19.03 19.03 0 0 0-1.602.362v34.916c.388.097.946.17 1.674.22.776.096 1.526.144 2.254.144 1.551 0 2.595-.315 3.128-.946.582-.63.873-1.43.873-2.4v-21.312c.825-1.455 2.013-2.62 3.565-3.492 1.6-.873 3.177-1.309 4.728-1.309 2.474 0 4.389.727 5.747 2.182s2.037 3.734 2.037 6.838v20.076c.388.097.944.17 1.672.218.775.097 1.528.145 2.255.145 1.552 0 2.594-.315 3.127-.945.582-.63.873-1.43.873-2.4v-17.968c0-4.8-1.138-8.486-3.418-11.057-2.279-2.57-5.382-3.855-9.31-3.855zm-277.58.072c-2.813 0-5.163.583-7.055 1.746a15.37 15.37 0 0 0-4.656 4.366l-.072-1.383c-.097-1.358-.438-2.425-1.02-3.201-.582-.825-1.647-1.237-3.199-1.237-.679 0-1.31.074-1.893.22-.533.096-1.066.217-1.6.362v48.52c.389.097.947.169 1.675.217a18.17 18.17 0 0 0 2.254.147c1.551 0 2.595-.315 3.128-.946.582-.63.872-1.43.872-2.4v-15.131c1.115 1.31 2.594 2.498 4.437 3.564 1.843 1.019 4.075 1.528 6.693 1.528 1.843 0 3.709-.365 5.6-1.092a14.377 14.377 0 0 0 5.166-3.346c1.552-1.503 2.811-3.394 3.781-5.674.97-2.279 1.455-4.994 1.455-8.146 0-2.91-.46-5.48-1.38-7.711-.873-2.28-2.038-4.17-3.493-5.674-1.455-1.552-3.128-2.716-5.02-3.492-1.842-.824-3.733-1.236-5.673-1.236zm39.789.147c-2.182 0-4.097.606-5.746 1.818-1.649 1.164-2.958 2.935-3.928 5.31h-.144v-2.546c0-1.358-.34-2.425-1.02-3.201-.63-.825-1.698-1.237-3.201-1.237a7.78 7.78 0 0 0-1.89.22c-.534.096-1.067.217-1.6.362v34.916c.388.097.944.17 1.672.22.776.096 1.528.144 2.256.144 1.551 0 2.593-.315 3.127-.946.581-.63.873-1.43.873-2.4v-17.385c0-2.764.752-4.802 2.256-6.111 1.551-1.31 3.587-1.963 6.109-1.963h1.31c2.716 0 4.073-1.359 4.073-4.074 0-.825-.145-1.746-.436-2.764a17.128 17.128 0 0 0-1.746-.219 12.032 12.032 0 0 0-1.965-.144zm174.43 0c-2.182 0-4.097.606-5.746 1.818-1.649 1.164-2.958 2.935-3.928 5.31h-.144v-2.546c0-1.358-.34-2.425-1.02-3.201-.63-.825-1.698-1.237-3.201-1.237a7.78 7.78 0 0 0-1.89.22c-.534.096-1.067.217-1.6.362v34.916c.388.097.944.17 1.672.22.776.096 1.528.144 2.256.144 1.551 0 2.593-.315 3.127-.946.581-.63.873-1.43.873-2.4v-17.385c0-2.764.752-4.802 2.256-6.111 1.551-1.31 3.587-1.963 6.109-1.963h1.31c2.716 0 4.073-1.359 4.073-4.074 0-.825-.145-1.746-.436-2.764a17.128 17.128 0 0 0-1.746-.219 12.032 12.032 0 0 0-1.965-.144zm-68.158.144c-1.503 0-2.545.315-3.127.946-.582.63-.873 1.43-.873 2.4v32.152c.388.097.944.17 1.672.219.727.097 1.456.144 2.183.144 1.552 0 2.618-.315 3.2-.945.582-.63.873-1.43.873-2.4v-32.152c-.388-.097-.945-.169-1.672-.217a17.061 17.061 0 0 0-2.256-.147zm-84.889 5.82c2.813 0 4.971.898 6.475 2.692 1.551 1.746 2.448 3.928 2.691 6.547h-18.258c.242-2.764 1.14-4.996 2.691-6.693 1.6-1.698 3.734-2.545 6.4-2.545zm112.17 0c2.813 0 4.97.898 6.473 2.692 1.551 1.746 2.449 3.928 2.691 6.547h-18.258c.243-2.764 1.14-4.996 2.691-6.693 1.6-1.698 3.736-2.545 6.403-2.545zm62.266 0c2.813 0 4.971.898 6.475 2.692 1.551 1.746 2.449 3.928 2.691 6.547h-18.258c.242-2.764 1.14-4.996 2.691-6.693 1.6-1.698 3.734-2.545 6.4-2.545zm-238.3.583c1.697 0 3.177.338 4.438 1.017a8.635 8.635 0 0 1 3.128 2.62c.873 1.066 1.503 2.302 1.891 3.708.436 1.358.654 2.79.654 4.293 0 1.698-.241 3.248-.726 4.655-.485 1.406-1.164 2.618-2.037 3.636a9.279 9.279 0 0 1-3.202 2.4c-1.26.534-2.643.802-4.146.802-2.037 0-3.831-.46-5.383-1.381-1.552-.97-2.716-2.158-3.492-3.565V168.78c.921-1.697 2.183-2.959 3.783-3.783 1.649-.873 3.346-1.309 5.092-1.309z"/>
  <defs>
    <linearGradient id="a" x1="414.37" x2="1244.6" y1="289.84" y2="289.84" gradientTransform="translate(-7.779 -84.95) scale(.51516)" gradientUnits="userSpaceOnUse">
      <stop stop-color="#ff0031" offset="0"/>
      <stop stop-color="#9b001f" offset="1"/>
    </linearGradient>
    <linearGradient id="b" x1="197.48" x2="194.59" y1="295.14" y2="212.24" gradientTransform="translate(-7.779 -84.95) scale(.51516)" gradientUnits="userSpaceOnUse">
      <stop stop-color="#fff" offset="0"/>
      <stop stop-color="#fff" stop-opacity=".25" offset=".515"/>
    </linearGradient>
    <linearGradient id="c" x1="830.55" x2="826.25" y1="276.73" y2="153.47" gradientTransform="translate(-7.779 -84.95) scale(.51516)" gradientUnits="userSpaceOnUse">
      <stop stop-color="#fff" offset="0"/>
      <stop stop-color="#fff" stop-opacity=".25" offset=".515"/>
    </linearGradient>
  </defs>
</svg>
