<?xml version="1.0" encoding="UTF-8"?>
<svg width="800" height="244.32" xmlns="http://www.w3.org/2000/svg">
  <path d="M309.96 179.36c-1.531 0-2.847.552-3.95 1.654s-1.654 2.45-1.654 4.043c0 1.532.552 2.847 1.655 3.95 1.102 1.102 2.418 1.654 3.949 1.654 1.593 0 2.94-.552 4.043-1.654 1.103-1.103 1.654-2.418 1.654-3.95 0-1.592-.551-2.94-1.654-4.043s-2.45-1.654-4.043-1.654zm178.51 0c-1.531 0-2.849.552-3.951 1.654-1.103 1.103-1.653 2.45-1.653 4.043 0 1.532.55 2.847 1.653 3.95 1.102 1.102 2.42 1.654 3.951 1.654 1.592 0 2.94-.552 4.043-1.654 1.102-1.103 1.654-2.418 1.654-3.95 0-1.592-.551-2.94-1.654-4.043-1.103-1.102-2.45-1.654-4.043-1.654zm-33.719 7.635c-1.286 0-2.327.153-3.123.459-.735.306-1.317.734-1.746 1.285a6.253 6.253 0 0 0-.826 1.838 11.799 11.799 0 0 0-.184 2.113v6.34h-3.951c-.98 0-1.807.305-2.48.918-.613.612-.92 1.685-.92 3.217 0 .674.03 1.347.091 2.021.062.674.155 1.224.278 1.653h6.982v21.775c0 2.266.336 4.349 1.01 6.248a14.595 14.595 0 0 0 2.94 4.869c1.286 1.347 2.847 2.418 4.685 3.214 1.899.735 4.043 1.104 6.431 1.104 2.634 0 4.931-.307 6.891-.92a26.307 26.307 0 0 0 5.697-2.48c.062-.307.092-.612.092-.918v-1.012c0-1.715-.338-2.97-1.012-3.766-.673-.796-1.592-1.195-2.755-1.195-.49 0-1.012.092-1.563.275-.49.184-1.04.4-1.652.645-.552.245-1.195.459-1.93.642s-1.562.276-2.48.276c-2.144 0-3.767-.644-4.87-1.93-1.102-1.286-1.654-3.092-1.654-5.42v-21.408h12.127c.98 0 1.776-.305 2.389-.918.674-.612 1.011-1.683 1.011-3.214 0-1.532-.152-2.757-.459-3.676h-15.068v-11.393c-1.163-.429-2.48-.643-3.95-.643zm-175.66 11.199c-3.124 0-5.942.704-8.453 2.113-2.45 1.348-4.44 3.095-5.97 5.238l-.095-1.287c0-1.715-.427-3.063-1.285-4.043-.796-1.041-2.144-1.56-4.043-1.56a9.83 9.83 0 0 0-2.388.275 24 24 0 0 0-2.022.46v44.1c.49.122 1.195.215 2.113.276.98.123 1.93.184 2.848.184 1.96 0 3.277-.399 3.951-1.195.735-.797 1.104-1.806 1.104-3.031v-26.92c1.041-1.838 2.542-3.308 4.502-4.41 2.021-1.103 4.01-1.655 5.97-1.655 3.124 0 5.543.918 7.258 2.756 1.715 1.837 2.574 4.717 2.574 8.637v25.357c.49.122 1.193.216 2.112.277.98.122 1.93.184 2.85.184 1.96 0 3.275-.4 3.949-1.196.735-.796 1.103-1.806 1.103-3.031V217.03c0-6.064-1.44-10.719-4.318-13.965-2.88-3.246-6.799-4.871-11.76-4.871zm68.723 0c-2.572 0-4.961.704-7.166 2.113-2.205 1.348-3.95 3.034-5.236 5.055l-.092-1.104c0-1.715-.43-3.063-1.287-4.043-.796-1.041-2.144-1.56-4.043-1.56a9.83 9.83 0 0 0-2.389.275 24 24 0 0 0-2.021.46v44.1c.49.122 1.194.215 2.113.276.98.123 1.93.184 2.85.184 1.96 0 3.275-.399 3.949-1.195.735-.797 1.103-1.806 1.103-3.031v-27.195c.796-1.532 1.96-2.85 3.49-3.952 1.593-1.163 3.37-1.746 5.33-1.746 2.573 0 4.532.796 5.88 2.389 1.408 1.531 2.113 3.798 2.113 6.799v27.47c.49.123 1.194.217 2.113.278.98.123 1.929.184 2.848.184 1.96 0 3.277-.4 3.95-1.196.736-.796 1.104-1.806 1.104-3.03V212.62c.797-1.592 1.96-2.94 3.49-4.043 1.532-1.164 3.401-1.746 5.606-1.746 2.328 0 4.195.766 5.604 2.297 1.408 1.47 2.113 3.767 2.113 6.89v27.472c.49.122 1.194.216 2.113.277.98.122 1.93.183 2.848.183 1.96 0 3.277-.399 3.951-1.195.735-.796 1.102-1.806 1.102-3.031v-24.715c0-5.206-1.194-9.311-3.582-12.312-2.328-3.001-5.912-4.502-10.75-4.502-2.94 0-5.573.766-7.9 2.297-2.267 1.47-4.289 3.675-6.065 6.615-1.041-2.94-2.756-5.145-5.145-6.615-2.327-1.531-4.993-2.297-7.994-2.297zm231.25 0c-3.124 0-5.942.704-8.453 2.113-2.45 1.348-4.44 3.095-5.97 5.238l-.093-1.287c0-1.715-.43-3.063-1.287-4.043-.796-1.041-2.144-1.56-4.043-1.56a9.83 9.83 0 0 0-2.388.275 24 24 0 0 0-2.022.46v44.1c.49.122 1.195.215 2.113.276.98.123 1.93.184 2.848.184 1.96 0 3.277-.399 3.951-1.195.735-.797 1.104-1.806 1.104-3.031v-26.92c1.041-1.838 2.542-3.308 4.502-4.41 2.021-1.103 4.01-1.655 5.97-1.655 3.124 0 5.545.918 7.26 2.756 1.715 1.837 2.573 4.717 2.573 8.637v25.357c.49.122 1.194.216 2.113.277.98.122 1.929.184 2.848.184 1.96 0 3.277-.4 3.95-1.196.736-.796 1.102-1.806 1.102-3.031V217.03c0-6.064-1.44-10.719-4.318-13.965-2.879-3.246-6.799-4.871-11.76-4.871zm-352.89.008c-3.675 0-7.014.305-10.016.918-3.001.551-5.512 1.164-7.533 1.838a4.663 4.663 0 0 0-.092.918v.828c0 1.592.305 2.938.918 4.04.612 1.103 1.561 1.655 2.848 1.655.735 0 1.502-.092 2.298-.275.858-.245 1.807-.49 2.848-.735a27.794 27.794 0 0 1 3.674-.736c1.347-.245 2.91-.367 4.685-.367 3.492 0 5.913.643 7.26 1.93 1.348 1.225 2.022 3.338 2.022 6.34v2.296c-4.043-.735-7.657-1.103-10.842-1.103-3.369 0-6.279.368-8.729 1.103-2.389.735-4.38 1.776-5.972 3.123-1.593 1.287-2.786 2.848-3.582 4.686-.735 1.837-1.104 3.86-1.104 6.064 0 1.838.308 3.583.92 5.237a13.191 13.191 0 0 0 2.848 4.226c1.286 1.225 2.848 2.205 4.685 2.94 1.9.673 4.043 1.011 6.432 1.011 2.082 0 3.92-.246 5.512-.736 1.653-.429 3.124-1.04 4.41-1.836s2.39-1.717 3.308-2.758a26.104 26.104 0 0 0 2.573-3.398h.092c.06 1.164.152 2.265.275 3.306.184 1.042.49 1.962.918 2.758a5.549 5.549 0 0 0 1.746 1.836c.796.429 1.806.645 3.031.645 1.103 0 2.054-.092 2.85-.276.857-.183 1.562-.4 2.113-.644a48.605 48.605 0 0 1-1.012-4.041 84.466 84.466 0 0 1-.642-3.86 78.031 78.031 0 0 1-.276-4.134v-14.607c0-2.94-.307-5.514-.92-7.72-.55-2.265-1.56-4.163-3.03-5.694-1.41-1.593-3.31-2.788-5.698-3.584-2.327-.797-5.266-1.194-8.818-1.194zm191.56 0c-3.675 0-7.012.305-10.014.918-3.001.551-5.514 1.164-7.535 1.838a4.663 4.663 0 0 0-.092.918v.828c0 1.592.307 2.938.92 4.04.612 1.103 1.561 1.655 2.848 1.655.735 0 1.5-.092 2.297-.275.857-.245 1.806-.49 2.847-.735a27.827 27.827 0 0 1 3.676-.736c1.348-.245 2.91-.367 4.686-.367 3.49 0 5.91.643 7.257 1.93 1.348 1.225 2.022 3.338 2.022 6.34v2.296c-4.043-.735-7.657-1.103-10.842-1.103-3.369 0-6.279.368-8.729 1.103-2.388.735-4.378 1.776-5.97 3.123-1.593 1.287-2.788 2.848-3.584 4.686-.735 1.837-1.102 3.86-1.102 6.064 0 1.838.306 3.583.918 5.237a13.191 13.191 0 0 0 2.848 4.226c1.286 1.225 2.848 2.205 4.685 2.94 1.9.673 4.043 1.011 6.432 1.011 2.082 0 3.921-.246 5.514-.736 1.653-.429 3.121-1.04 4.408-1.836 1.286-.796 2.39-1.717 3.308-2.758a26.103 26.103 0 0 0 2.573-3.398h.091c.062 1.164.153 2.265.276 3.306.184 1.042.491 1.962.92 2.758a5.542 5.542 0 0 0 1.744 1.836c.796.429 1.808.645 3.033.645 1.103 0 2.052-.092 2.848-.276.857-.183 1.562-.4 2.113-.644a48.559 48.559 0 0 1-1.01-4.041 84.5 84.5 0 0 1-.644-3.86 78.042 78.042 0 0 1-.276-4.134v-14.607c0-2.94-.305-5.514-.918-7.72-.55-2.265-1.563-4.163-3.033-5.694-1.409-1.593-3.306-2.788-5.695-3.584-2.328-.797-5.268-1.194-8.82-1.194zm106.58.088c-3.369 0-6.462.61-9.28 1.836-2.817 1.225-5.236 2.88-7.257 4.963-2.021 2.082-3.616 4.532-4.78 7.35-1.102 2.755-1.652 5.696-1.652 8.82 0 3.246.55 6.278 1.653 9.095 1.102 2.818 2.666 5.267 4.687 7.35 2.021 2.021 4.44 3.644 7.258 4.869 2.817 1.164 5.941 1.746 9.371 1.746 3.43 0 6.554-.613 9.371-1.838 2.818-1.225 5.206-2.878 7.166-4.96 2.021-2.083 3.553-4.533 4.594-7.35 1.102-2.818 1.654-5.789 1.654-8.913 0-3.123-.552-6.064-1.654-8.82-1.103-2.817-2.664-5.267-4.686-7.35-1.96-2.082-4.348-3.737-7.166-4.962-2.817-1.225-5.91-1.836-9.279-1.836zm-214.35.365c-1.899 0-3.214.397-3.95 1.193-.734.797-1.103 1.809-1.103 3.034v40.607c.49.122 1.195.216 2.114.277.918.122 1.837.183 2.756.183 1.96 0 3.308-.399 4.043-1.195s1.103-1.806 1.103-3.031v-40.609c-.49-.123-1.194-.214-2.113-.275a21.56 21.56 0 0 0-2.85-.184zm178.51 0c-1.899 0-3.216.397-3.951 1.193-.735.797-1.102 1.809-1.102 3.034v40.607c.49.122 1.195.216 2.114.277.918.122 1.837.183 2.755.183 1.96 0 3.308-.399 4.043-1.195.735-.796 1.102-1.806 1.102-3.031v-40.609c-.49-.123-1.194-.214-2.113-.275a21.529 21.529 0 0 0-2.848-.184zm35.838 7.902c1.715 0 3.338.338 4.87 1.012a10.956 10.956 0 0 1 3.95 2.94c1.164 1.224 2.082 2.756 2.756 4.593.674 1.838 1.01 3.89 1.01 6.156 0 2.512-.367 4.686-1.102 6.524-.735 1.837-1.714 3.369-2.939 4.594a11.324 11.324 0 0 1-4.043 2.756c-1.47.612-2.97.918-4.502.918-1.592 0-3.154-.306-4.686-.918-1.53-.613-2.91-1.531-4.134-2.756-1.164-1.287-2.113-2.85-2.848-4.688-.735-1.837-1.103-3.98-1.103-6.43 0-2.266.337-4.318 1.011-6.156.735-1.837 1.684-3.368 2.848-4.594 1.225-1.286 2.603-2.265 4.135-2.94a11.74 11.74 0 0 1 4.777-1.01zm-297.49 15.807c2.45 0 5.237.277 8.361.828v3.858c-1.225 2.572-2.941 4.716-5.146 6.431-2.144 1.715-4.685 2.573-7.625 2.573-2.267 0-4.103-.52-5.512-1.56-1.409-1.042-2.113-2.543-2.113-4.503 0-2.45.98-4.32 2.94-5.605 2.02-1.348 5.052-2.022 9.095-2.022zm191.56 0c2.45 0 5.238.277 8.361.828v3.858c-1.225 2.572-2.94 4.716-5.144 6.431-2.144 1.715-4.687 2.573-7.627 2.573-2.267 0-4.103-.52-5.512-1.56s-2.113-2.543-2.113-4.503c0-2.45.98-4.32 2.94-5.605 2.02-1.348 5.052-2.022 9.095-2.022z"/>
  <path d="M72.615 97.476c0 13.989-9.11 24.14-27.719 26.157-13.404 1.431-32.859-.26-42.098-1.301-.325-1.497-.586-3.384-.586-4.88 0-12.168 6.572-14.965 12.753-14.965 6.442 0 16.592 1.106 24.075 1.106 8.329 0 10.801-2.798 10.801-5.466 0-3.513-3.318-4.945-9.76-6.181l-17.633-3.384C7.808 85.764 0 75.68 0 64.943 0 51.93 9.24 40.998 27.458 38.981c13.73-1.496 30.516.196 39.691 1.302.326 1.561.52 3.058.52 4.684 0 12.168-6.44 14.77-12.622 14.77-4.75 0-12.102-.845-20.561-.845-8.59 0-12.102 2.342-12.102 5.205 0 3.058 3.383 4.294 8.719 5.27l16.787 3.124c17.308 3.188 24.725 12.948 24.725 24.986m30.126 14.965c0 7.482-2.928 11.777-17.568 11.777-1.952 0-3.644-.13-5.27-.39V24.73c0-7.548 2.537-15.42 17.307-15.42 1.887 0 3.774.194 5.531.585zm59.797 38.39c1.952.976 5.856 2.212 10.8 2.277 8.525.195 13.145-3.058 16.593-10.671l45.547-101.31c-1.887-.976-6.051-2.147-9.435-2.212-5.856-.13-13.729 1.04-18.739 13.013l-14.835 34.68-28.955-47.043c-1.887-.586-6.441-1.367-9.76-1.367-10.281 0-15.941 3.774-21.863 10.15l-28.109 30.712 22.643 35.592c4.164 6.507 9.695 9.825 18.609 9.825 5.856 0 10.736-1.366 13.013-2.407l-27.263-40.992 19.325-20.496 31.688 49.646z" fill="#ff0031"/>
  <path d="M789.2.005H270.55c-5.986 0-10.866 4.88-10.866 10.866v140.87c0 5.986 4.88 10.866 10.866 10.866h518.58c5.986 0 10.866-4.88 10.866-10.866V10.801C799.931 4.815 795.181 0 789.195 0" fill="url(#a)"/>
  <path d="M79.967 24.73v67.995c0-2.733 2.082-5.596 5.596-5.726l11.452-.39c2.277-.065 5.726-1.627 5.79-5.791V9.895a25.724 25.724 0 0 0-5.53-.586c-14.77.065-17.308 7.873-17.308 15.421m52.054 23.684-28.109 30.712 2.277 3.514c.976 1.301 2.863 3.513 6.637 3.383l16.007-.585c3.514-.13 5.726 1.366 7.093 3.188l-5.01-7.548 19.324-20.496 12.948 20.366c2.343 3.058 5.856 3.123 6.637 3.123.65 0 17.698-.585 18.414-.65 1.171-.065 2.538.585 3.579 2.082l-28.174-45.807c-1.887-.586-6.442-1.367-9.76-1.367-10.281-.065-15.941 3.644-21.863 10.085M27.46 38.98C9.24 40.997.003 51.863.003 64.942c0 6.702 3.058 13.144 8.914 17.763 4.425 2.928 8.98 4.034 13.469 4.815 3.709.65 12.363 1.236 18.804.976l20.041-.716c7.548-.26 11.582 6.181 11.192 12.623v-.325c.065-.846.13-1.692.13-2.538 0-12.037-7.417-21.863-24.66-25.051l-16.787-3.123c-5.4-.911-8.719-2.213-8.719-5.27 0-2.864 3.579-5.271 12.102-5.271 8.459 0 15.811.846 20.561.846 6.182 0 12.623-2.603 12.623-14.77 0-1.627-.195-3.123-.52-4.685-6.572-.78-17.113-1.887-27.588-1.887-4.1.065-8.199.26-12.102.65m179.72 12.949-14.38 33.9c0-.065.91-2.668 3.708-2.798l15.226-.52c4.62-.196 6.442-3.319 6.963-4.36l16.657-37.153c-1.887-.976-6.052-2.147-9.435-2.212h-.716c-5.79.065-13.209 1.626-18.024 13.144" fill="url(#b)" opacity=".3"/>
  <path d="M270.55.005c-5.986 0-10.866 4.88-10.866 10.866v78.211c0-1.171.455-7.613 7.808-8.329 0 0 .39-.065 1.041-.065l523.4-18.349c4.1-.13 8.068-3.188 8.068-8.263v-43.14c0-5.985-4.88-10.865-10.866-10.865z" fill="url(#c)" opacity=".3"/>
  <path d="M377.19 18.419c-4.36 0-8.068 3.384-8.068 8.068 0 4.1 3.643 7.938 8.068 7.938s7.94-3.773 7.94-7.938c0-4.554-3.45-8.068-7.94-8.068zM525.41 42.56c-20.952 0-37.934 16.591-37.934 39.43 0 23.684 16.331 39.82 40.016 39.82 10.931 0 21.212-3.253 27.914-6.246.78-6.897-1.562-9.889-4.75-9.889-1.366 0-3.058.65-6.246 1.82-4.88 1.497-9.89 2.995-16.461 2.995-15.291 0-25.703-8.525-27.59-23.295h59.277c.455-2.863.65-5.4.715-7.807 0-18.154-11.582-36.828-34.941-36.828zm-196.24.064c-21.993 0-38.779 16.853-38.779 39.496s16.787 39.69 38.779 40.016c10.411 0 19.847-2.862 26.549-6.05.65-6.897-1.888-9.76-5.076-9.76-4.425 0-9.434 4.879-21.016 4.879-14.64 0-26.55-11.255-26.55-28.89s11.91-28.563 26.55-28.563c11.582 0 16.526 4.879 21.016 4.879 3.188 0 5.727-2.863 5.076-9.76-6.572-3.384-16.008-6.246-26.549-6.246zm113.22 0c-11.517 0-19.975 5.595-25.506 12.297v-6.57c0-2.863-1.692-4.75-6.572-4.75-2.213 0-4.554.52-5.725.846v75.934c1.171.325 3.512.65 5.725.65 4.945 0 6.572-1.757 6.572-4.75V67.545c4.034-7.352 13.794-13.729 22.838-13.729 11.387 0 19.131 7.417 19.131 23.033v43.4c1.236.326 3.708.65 5.725.65 5.01 0 6.572-1.756 6.572-4.75V75.159c0-22.513-13.08-32.468-28.76-32.533zm168.79 0c-9.37 0-17.114 4.88-21.994 11.451v-5.4c0-3.188-1.625-5.074-6.375-5.074-2.017 0-4.425.52-5.727.846v75.803c1.042.325 3.515.65 5.727.65 5.01 0 6.57-1.757 6.57-4.75V66.113c2.863-6.181 10.216-12.428 18.805-12.428 10.281 0 15.486 6.702 15.486 17.959v48.605c1.302.325 3.643.65 5.856.65 5.01 0 6.572-1.757 6.572-4.75V66.112c2.863-6.181 10.216-12.428 18.805-12.428 10.085 0 15.486 6.703 15.486 17.96v48.604c1.236.326 3.708.65 5.725.65 5.01 0 6.703-1.756 6.703-4.75v-45.87c0-15.161-8.719-27.59-25.115-27.654-11.257 0-19.326 6.182-24.531 13.795-4.034-8.59-11.907-13.795-21.992-13.795zm122.78 0c-10.671 0-22.057 2.538-29.67 5.4-.78 6.703 1.236 9.891 4.75 9.891 1.236 0 3.058-.585 5.4-1.236 4.555-1.496 11.255-3.19 18.998-3.19 14.965 0 18.805 7.028 18.805 18.806v2.082c-33.77-2.213-53.744 5.857-53.744 24.336 0 12.233 9.435 23.164 26.547 23.164 11.387 0 19.975-4.491 27.197-12.104v6.377c0 3.188 2.018 4.814 6.573 4.814 2.212 0 4.425-.325 5.726-.65V71.839c0-18.024-8.264-29.15-30.582-29.215zm-356.37 1.041c-5.14 0-6.701 1.887-6.701 4.75v71.834c1.236.326 3.642.65 5.724.715 5.01 0 6.703-1.757 6.703-4.75V44.511c-1.236-.325-3.709-.845-5.726-.845zm147.9 9.956c13.729 0 22.122 10.28 22.643 23.359H500.44c2.017-15.291 12.818-23.49 25.051-23.36zm218.55 29.922c2.624.008 5.327.083 8.076.205v14.639c-5.856 7.808-14.64 13.078-25.05 13.078-10.217 0-15.942-6.246-15.942-12.947 0-11.9 14.546-15.032 32.916-14.975z" fill="#fff"/>
  <defs>
    <linearGradient id="a" x1="414.37" x2="1244.6" y1="289.84" y2="289.84" gradientTransform="translate(-9.825 -107.29) scale(.65067)" gradientUnits="userSpaceOnUse">
      <stop stop-color="#ff0031" offset="0"/>
      <stop stop-color="#9b001f" offset="1"/>
    </linearGradient>
    <linearGradient id="b" x1="197.48" x2="194.59" y1="295.14" y2="212.24" gradientTransform="translate(-9.825 -107.29) scale(.65067)" gradientUnits="userSpaceOnUse">
      <stop stop-color="#fff" offset="0"/>
      <stop stop-color="#fff" stop-opacity=".25" offset=".515"/>
    </linearGradient>
    <linearGradient id="c" x1="830.55" x2="826.25" y1="276.73" y2="153.47" gradientTransform="translate(-9.825 -107.29) scale(.65067)" gradientUnits="userSpaceOnUse">
      <stop stop-color="#fff" offset="0"/>
      <stop stop-color="#fff" stop-opacity=".25" offset=".515"/>
    </linearGradient>
  </defs>
</svg>
