<?xml version="1.0" encoding="UTF-8"?>
<svg width="800" height="244.32" version="1.1" xmlns="http://www.w3.org/2000/svg">
	<defs>
		<linearGradient id="A" x1="414.37" x2="1244.6" y1="289.84" y2="289.84" gradientTransform="matrix(.65067 0 0 .65067 -9.8251 -107.3)" gradientUnits="userSpaceOnUse">
			<stop stop-color="#ff0031" offset="0"/>
			<stop stop-color="#9b001f" offset="1"/>
		</linearGradient>
		<linearGradient id="B" x1="197.48" x2="194.59" y1="295.14" y2="212.24" gradientTransform="matrix(.65067 0 0 .65067 -9.8251 -107.3)" gradientUnits="userSpaceOnUse">
			<stop stop-color="#fff" offset="0"/>
			<stop stop-color="#fff" stop-opacity=".25" offset=".515"/>
		</linearGradient>
		<linearGradient id="C" x1="830.55" x2="826.25" y1="276.73" y2="153.47" gradientTransform="matrix(.65067 0 0 .65067 -9.8251 -107.3)" gradientUnits="userSpaceOnUse">
			<stop stop-color="#fff" offset="0"/>
			<stop stop-color="#fff" stop-opacity=".25" offset=".515"/>
		</linearGradient>
	</defs>
	<g stroke-width=".99865">
		<path d="m72.615 97.471c0 13.989-9.1094 24.14-27.719 26.157-13.404 1.4315-32.859-0.26027-42.098-1.3013-0.32534-1.4965-0.5856-3.3835-0.5856-4.88 0-12.168 6.5718-14.965 12.753-14.965 6.4416 0 16.592 1.1061 24.075 1.1061 8.3286 0 10.801-2.7979 10.801-5.4656 0-3.5136-3.3184-4.9451-9.7601-6.1814l-17.633-3.3835c-14.64-2.7979-22.448-12.883-22.448-23.619 0-13.013 9.2395-23.945 27.458-25.962 13.729-1.4965 30.516 0.1952 39.691 1.3013 0.32534 1.5616 0.52054 3.0582 0.52054 4.6848 0 12.168-6.4416 14.77-12.623 14.77-4.7499 0-12.102-0.84587-20.561-0.84587-8.5889 0-12.102 2.3424-12.102 5.2054 0 3.0582 3.3835 4.2944 8.719 5.2704l16.787 3.1232c17.308 3.1883 24.725 12.948 24.725 24.986m30.126 14.965c0 7.4827-2.928 11.777-17.568 11.777-1.952 0-3.6438-0.13014-5.2704-0.3904v-99.097c0-7.5478 2.5376-15.421 17.308-15.421 1.8869 0 3.7739 0.1952 5.5307 0.5856zm59.797 38.39c1.952 0.97601 5.856 2.2123 10.801 2.2774 8.5238 0.1952 13.144-3.0582 16.592-10.671l45.547-101.31c-1.8869-0.97601-6.0512-2.1472-9.4347-2.2123-5.856-0.13013-13.729 1.0411-18.739 13.013l-14.835 34.681-28.955-47.044c-1.8869-0.5856-6.4416-1.3664-9.7601-1.3664-10.281 0-15.941 3.7739-21.863 10.15l-28.109 30.712 22.643 35.592c4.1643 6.5067 9.695 9.8251 18.609 9.8251 5.856 0 10.736-1.3664 13.013-2.4075l-27.263-40.992 19.325-20.496 31.688 49.646z" fill="#ff0031"/>
		<path d="m789.2 0h-518.65c-5.9862 0-10.866 4.88-10.866 10.866v140.87c0 5.9862 4.88 10.866 10.866 10.866h518.58c5.9862 0 10.866-4.88 10.866-10.866v-140.94c-0.0651-5.9862-4.815-10.801-10.801-10.801" fill="url(#A)"/>
		<path d="m79.967 24.725v67.995c0-2.7328 2.0821-5.5958 5.5958-5.7259l11.452-0.3904c2.2773-0.06507 5.7259-1.6267 5.791-5.791v-70.923c-1.7568-0.3904-3.6438-0.5856-5.5307-0.5856-14.77 0.065067-17.308 7.8731-17.308 15.421m52.054 23.684-28.109 30.712 2.2774 3.5136c0.97601 1.3013 2.863 3.5136 6.6368 3.3835l16.007-0.5856c3.5136-0.13013 5.7259 1.3664 7.0923 3.1883l-5.0102-7.5478 19.325-20.496 12.948 20.366c2.3424 3.0582 5.856 3.1232 6.6368 3.1232 0.65067 0 17.698-0.5856 18.414-0.65067 1.1712-0.06507 2.5376 0.5856 3.5787 2.0821l-28.174-45.807c-1.8869-0.5856-6.4416-1.3664-9.7601-1.3664-10.281-0.06506-15.941 3.6438-21.863 10.085m-104.56-9.4347c-18.219 2.0171-27.458 12.883-27.458 25.962 0 6.7019 3.0582 13.144 8.9142 17.763 4.4246 2.928 8.9793 4.0342 13.469 4.815 3.7088 0.65067 12.363 1.2363 18.804 0.97601l20.041-0.71574c7.5478-0.26027 11.582 6.1814 11.192 12.623v-0.32534c0.06506-0.84586 0.13014-1.6917 0.13014-2.5376 0-12.037-7.4176-21.863-24.66-25.051l-16.787-3.1232c-5.4006-0.91094-8.719-2.2123-8.719-5.2704 0-2.863 3.5787-5.2704 12.102-5.2704 8.4587 0 15.811 0.84587 20.561 0.84587 6.1814 0 12.623-2.6027 12.623-14.77 0-1.6267-0.1952-3.1232-0.52054-4.6848-6.5718-0.7808-17.113-1.8869-27.588-1.8869-4.0992 0.06506-8.1985 0.26027-12.102 0.65067m179.72 12.948-14.38 33.9c0-0.06506 0.91094-2.6678 3.7088-2.7979l15.226-0.52054c4.6198-0.1952 6.4416-3.3184 6.9622-4.3595l16.657-37.153c-1.887-0.97601-6.0512-2.1472-9.4347-2.2123h-0.71574c-5.791 0.06506-13.209 1.6267-18.024 13.144" enable-background="new" fill="url(#B)" opacity=".3"/>
		<path d="m270.55 0c-5.9862 0-10.866 4.88-10.866 10.866v78.211c0-1.1712 0.45548-7.6129 7.8081-8.3286 0 0 0.39041-0.06507 1.0411-0.06507l523.4-18.349c4.0992-0.13013 8.0683-3.1883 8.0683-8.2635v-43.139c0-5.9862-4.88-10.866-10.866-10.866z" enable-background="new" fill="url(#C)" opacity=".3"/>
		<path d="m377.19 18.412c-4.3595 0-8.0684 3.3836-8.0684 8.0684 0 4.0992 3.6438 7.9375 8.0684 7.9375s7.9375-3.7732 7.9375-7.9375c0-4.5547-3.4479-8.0684-7.9375-8.0684zm148.23 24.141c-20.951 0-37.936 16.591-37.936 39.43 0 23.684 16.334 39.822 40.018 39.822 10.931 0 21.212-3.253 27.914-6.2461 0.7808-6.8971-1.5617-9.8906-4.75-9.8906-1.3664 0-3.0597 0.65106-6.248 1.8223-4.88 1.4966-9.8891 2.9922-16.461 2.9922-15.29 0-25.701-8.523-27.588-23.293h59.275v-0.001953c0.45548-2.863 0.64974-5.3991 0.71484-7.8066 0-18.154-11.58-36.828-34.939-36.828zm-196.25 0.064454c-21.993-1e-6 -38.779 16.853-38.779 39.496 0 22.643 16.786 39.69 38.779 40.016 10.41 0 19.847-2.8625 26.549-6.0508 0.6507-6.8971-1.8879-9.7598-5.0762-9.7598-4.425 0-9.4356 4.8809-21.018 4.8809-14.64 0-26.547-11.258-26.547-28.891s11.907-28.564 26.547-28.564c11.582 0 16.528 4.8809 21.018 4.8809 3.1883 0 5.7268-2.8646 5.0762-9.7617-6.571-3.3834-16.008-6.2461-26.549-6.2461zm113.22 0c-11.517 0-19.975 5.5969-25.506 12.299v-6.5723c0-2.863-1.6923-4.75-6.5723-4.75-2.2123 0-4.5554 0.52036-5.7266 0.8457v75.934c1.1712 0.32533 3.5143 0.65039 5.7266 0.65039 4.9451 0 6.5723-1.7569 6.5723-4.75v-48.734c4.035-7.3524 13.794-13.729 22.838-13.729 11.387 0 19.131 7.4172 19.131 23.033v43.4c1.2363 0.32534 3.7095 0.65039 5.7266 0.65039 5.0102 0 6.5703-1.7569 6.5703-4.75v-40.992c0-22.514-13.079-32.47-28.76-32.535zm168.78 0.001953c-9.37 0-17.112 4.8794-21.992 11.451v-5.4004c0-3.1883-1.6271-5.0742-6.377-5.0742-2.0171 0-4.4253 0.52036-5.7266 0.8457v75.803c1.0411 0.32534 3.5143 0.65039 5.7266 0.65039 5.0102 0 6.5723-1.7569 6.5723-4.75v-50.037c2.863-6.1816 10.214-12.428 18.803-12.428 10.281-1e-6 15.486 6.702 15.486 17.959v48.605c1.3013 0.32534 3.6432 0.65039 5.8555 0.65039 5.0102 0 6.5723-1.7569 6.5723-4.75v-50.037c2.863-6.1816 10.216-12.428 18.805-12.428 10.085-1e-6 15.486 6.702 15.486 17.959v48.605c1.2363 0.32534 3.7075 0.65039 5.7246 0.65039 5.0101 0 6.7031-1.7569 6.7031-4.75v-45.871c0-15.161-8.7182-27.589-25.115-27.654-11.256 0-19.324 6.1801-24.529 13.793-4.034-8.5886-11.909-13.793-21.994-13.793zm122.79 0c-10.671 0-22.059 2.5374-29.672 5.4004-0.7808 6.7019 1.2364 9.8906 4.75 9.8906 1.2363 0 3.058-0.58566 5.4004-1.2363 4.555-1.4966 11.257-3.1895 19-3.1895 14.965 0 18.805 7.0277 18.805 18.805v2.082c-33.769-2.212-53.744 5.8569-53.744 24.336 0 12.233 9.4339 23.162 26.547 23.162 11.387 0 19.975-4.4888 27.197-12.102v6.377c0 3.1883 2.0176 4.8144 6.5723 4.8144 2.2123 0 4.4232-0.32505 5.7246-0.65039v-48.475h0.00196c0-18.023-8.264-29.15-30.582-29.215zm-356.38 1.0391c-5.1403 0-6.7012 1.887-6.7012 4.75v71.834c1.2363 0.32534 3.6424 0.65169 5.7246 0.71679 5.0102 0 6.7031-1.7569 6.7031-4.75v-71.705c-1.2363-0.32533-3.7095-0.8457-5.7266-0.8457zm147.9 9.9551c13.729 0 22.122 10.281 22.643 23.359h-47.693c2.017-15.291 12.818-23.49 25.051-23.359zm218.55 29.924c2.6243 0.008135 5.327 0.081124 8.0762 0.20312v14.641c-5.856 7.8076-14.64 13.078-25.051 13.078-10.215 0-15.941-6.2454-15.941-12.947 0-11.899 14.546-15.032 32.916-14.975z" fill="#fff"/>
		<path d="m294.57 244.14q-3.5832 0-6.4313-1.0106-2.7563-1.1025-4.6857-2.94-1.8375-1.8375-2.8482-4.2263-0.91876-2.4806-0.91876-5.2369 0-3.3075 1.1025-6.0638 1.1944-2.7563 3.5832-4.6857 2.3888-2.0213 5.9719-3.1238 3.675-1.1025 8.7282-1.1025 4.7775 0 10.841 1.1025v-2.2969q0-4.5019-2.0213-6.3394-2.0213-1.9294-7.2582-1.9294-2.6644 0-4.6857 0.3675-2.0213 0.27563-3.675 0.73501-1.5619 0.3675-2.8482 0.735-1.1944 0.27563-2.2969 0.27563-1.9294 0-2.8482-1.6538-0.91876-1.6538-0.91876-4.0425 0-0.45938 0-0.82689 0-0.45938 0.0919-0.91875 3.0319-1.0106 7.5338-1.8375 4.5019-0.91876 10.014-0.91876 5.3288 0 8.8201 1.1944 3.5832 1.1944 5.6963 3.5832 2.205 2.2969 3.0319 5.6963 0.91875 3.3075 0.91875 7.7176v9.647q0 2.7563 0 4.9613 0.0919 2.205 0.27563 4.1344 0.27563 1.9294 0.64313 3.8588 0.36751 1.8375 1.0106 4.0425-0.82689 0.3675-2.1132 0.64313-1.1944 0.27563-2.8482 0.27563-1.8375 0-3.0319-0.64313-1.1025-0.73501-1.7456-1.8375-0.64313-1.1944-0.91875-2.7563-0.18376-1.5619-0.27563-3.3075h-0.0919q-1.1025 1.7456-2.5725 3.3994-1.3781 1.5619-3.3075 2.7563t-4.41 1.8375q-2.3888 0.73501-5.5126 0.73501zm2.6644-8.0851q4.41 0 7.6257-2.5725 3.3075-2.5725 5.145-6.4313v-3.8588q-4.6857-0.82688-8.3607-0.82688-6.0638 0-9.0957 2.0213-2.94 1.9294-2.94 5.6044 0 2.94 2.1132 4.5019 2.1131 1.5619 5.5126 1.5619zm52.094 8.0851q-5.0532 0-9.1876-1.7456-4.1344-1.8375-7.0744-4.8694-2.94-3.1238-4.5938-7.2582-1.5619-4.1344-1.5619-8.912 0-4.7775 1.5619-8.912 1.6538-4.1344 4.5938-7.2582t7.0744-4.8694q4.1344-1.8375 9.1876-1.8375 4.9613 0 8.3607 1.0106 3.4913 1.0106 6.2476 2.5725 0.0919 0.45938 0.0919 0.91874 0 0.36752 0 0.73501 0 2.5725-1.1025 4.1344-1.1025 1.47-2.8482 1.47-0.82688 0-1.8375-0.27563-0.91876-0.3675-2.1132-0.735-1.1025-0.45938-2.6644-0.82689-1.47-0.3675-3.4913-0.3675-2.6644 0-4.9613 0.91876t-4.0425 2.7563q-1.7456 1.8375-2.7563 4.5019-1.0106 2.6644-1.0106 6.0638t1.0106 6.0638 2.7563 4.5019q1.8375 1.7456 4.2263 2.7563 2.3888 0.91876 5.145 0.91876 1.9294 0 3.4913-0.3675t2.7563-0.82688q1.2863-0.45938 2.2969-0.82689 1.0106-0.3675 1.8375-0.3675 1.8375 0 2.94 1.2863t1.1025 3.8588q0 0.45938-0.0919 1.0106 0 0.55126-0.0919 1.1025-3.2156 1.7456-6.8907 2.7563-3.5832 0.91876-8.3607 0.91876zm39.782-0.0919q-3.5832 0-6.4313-1.1025-2.7563-1.1944-4.6857-3.2157-1.9294-2.1131-2.94-4.8694-1.0106-2.8482-1.0106-6.2476v-21.775h-6.9826q-0.18375-0.64313-0.27563-1.6538-0.0919-1.0106-0.0919-2.0213 0-2.2969 0.91876-3.2157 1.0106-0.91876 2.4806-0.91876h3.9507v-6.3394q0-1.1025 0.18375-2.1132 0.27563-1.0106 0.82688-1.8375 0.64313-0.82688 1.7456-1.2863 1.1944-0.45938 3.1238-0.45938 2.205 0 3.9507 0.64313v11.393h15.068q0.45938 1.3781 0.45938 3.675t-1.0106 3.2156q-0.91876 0.91876-2.3888 0.91876h-12.128v21.407q0 3.4913 1.6538 5.4207t4.8694 1.9294q1.3781 0 2.4806-0.27562 1.1025-0.27563 1.9294-0.64314 0.91876-0.3675 1.6538-0.64313 0.82689-0.27562 1.5619-0.27562 1.7456 0 2.7563 1.1944 1.0106 1.1944 1.0106 3.7669 0 0.45938 0 1.0106 0 0.45938-0.0919 0.91876-2.6644 1.5619-5.6963 2.4806-2.94 0.91874-6.8907 0.91874zm24.347-0.0919q-1.3781 0-2.7563-0.18375-1.3781-0.0919-2.1132-0.27563v-40.609q0-1.8375 1.1025-3.0319t3.9507-1.1944q1.47 0 2.8482 0.18375 1.3781 0.0919 2.1131 0.27563v40.609q0 1.8375-1.1025 3.0319t-4.0425 1.1944zm0.18375-53.288q-2.2969 0-3.9507-1.6538t-1.6538-3.9507q0-2.3888 1.6538-4.0425 1.6538-1.6538 3.9507-1.6538 2.3888 0 4.0425 1.6538 1.6538 1.6538 1.6538 4.0425 0 2.2969-1.6538 3.9507t-4.0425 1.6538zm35.832 53.656q-5.145 0-9.3713-1.7456-4.2263-1.8375-7.2582-4.8694-3.0319-3.1238-4.6857-7.3501t-1.6538-9.0957q0-4.6857 1.6538-8.8201 1.7456-4.2263 4.7776-7.3501t7.2582-4.9613q4.2263-1.8375 9.2795-1.8375t9.2795 1.8375 7.1663 4.9613q3.0319 3.1238 4.6857 7.3501 1.6538 4.1344 1.6538 8.8201t-1.6538 8.912q-1.5619 4.2263-4.5938 7.3501-2.94 3.1238-7.1663 4.9613t-9.3713 1.8375zm0-8.2688q2.2969 0 4.5019-0.91876 2.2969-0.91874 4.0425-2.7563 1.8375-1.8375 2.94-4.5938t1.1025-6.5232q0-3.3994-1.0106-6.1557t-2.7563-4.5938q-1.6538-1.9294-3.9507-2.94t-4.8694-1.0106q-2.4806 0-4.7776 1.0106-2.2969 1.0106-4.1344 2.94-1.7456 1.8375-2.8482 4.5938-1.0106 2.7563-1.0106 6.1557 0 3.675 1.1025 6.4313t2.8482 4.6857q1.8375 1.8375 4.1344 2.7563 2.2969 0.91876 4.6857 0.91876zm35.464 7.9013q-1.3781 0-2.8482-0.18375-1.3781-0.0919-2.1132-0.27563v-44.1q1.0106-0.27563 2.0213-0.45938 1.1025-0.27563 2.3888-0.27563 2.8482 0 4.0425 1.5619 1.2863 1.47 1.2863 4.0425l0.0919 1.2863q2.2969-3.2157 5.9719-5.2369 3.7669-2.1131 8.4526-2.1131 7.4419 0 11.76 4.8694t4.3182 13.965v22.693q0 1.8375-1.1025 3.0319-1.0106 1.1944-3.9507 1.1944-1.3781 0-2.8482-0.18375-1.3781-0.0919-2.1132-0.27563v-25.358q0-5.8801-2.5725-8.6363-2.5725-2.7563-7.2582-2.7563-2.94 0-5.9719 1.6538-2.94 1.6538-4.5019 4.41v26.92q0 1.8375-1.1025 3.0319-1.0106 1.1944-3.9507 1.1944z" fill="#000"/>
	</g>
</svg>
