<?xml version="1.0" encoding="UTF-8"?>
<svg width="800" height="131.95" version="1.1" xmlns="http://www.w3.org/2000/svg">
	<path d="m266.11 0h527.49c3.5482 0 6.4046 2.8564 6.4046 6.4046v119.13c0 3.5482-2.8564 6.4046-6.4046 6.4046h-527.49z" fill="#002a91" stop-color="#000000"/>
	<path d="m266.11 2.639h525.11c3.4062 0 6.1484 2.7422 6.1484 6.1484v114.37c0 3.4062-2.7422 6.1484-6.1484 6.1484h-525.11z" fill="#fafafa" stop-color="#000000"/>
	<linearGradient id="A" x1="1456.7" x2="1456.7" y2="500" gradientTransform="matrix(.2639 0 0 .2639 .015856 2.2642e-6)" gradientUnits="userSpaceOnUse">
		<stop stop-color="red" offset=".4"/>
		<stop stop-color="#d42321" offset="1"/>
	</linearGradient>
	<g fill="#002a91">
		<path d="m637.94 38.618v47.845c0 13.814-10.22 22.575-26.056 22.575-7.4125 0-15.386-2.2462-21.114-4.9417-0.56154-5.1663 1.1231-7.1881 3.3693-7.1881 1.3477 0 2.5832 0.67387 4.8294 1.5723 2.9201 1.2354 7.4125 2.8078 12.691 2.8078 10.445 0 17.184-4.9417 17.184-15.05v-3.5939c-3.0324 4.1555-9.4341 8.0864-18.082 8.0864-12.691 0-24.484-10.22-24.484-26.505 0-16.397 11.793-26.505 24.596-26.505 8.4234 0 14.825 3.9309 18.082 8.3109v-4.2678c0-2.1339 1.2354-3.4817 4.6047-3.4817 1.797-0.11231 3.4817 0.11231 4.3801 0.33693zm-8.9847 16.734c-2.8078-6.0648-8.9847-10.108-16.173-10.108-9.7711 0-17.296 6.9631-17.296 18.868 0 11.905 7.525 18.868 17.296 18.868 7.0756 0 13.253-4.1555 16.173-10.108z"/>
		<path d="m649.06 64.899c0-15.723 11.568-27.292 26.955-27.292 15.611 0 27.067 11.68 27.067 27.292 0 15.611-11.568 27.404-27.067 27.404-15.386 0.11232-26.955-11.793-26.955-27.404zm45.037 0c0-12.017-8.0864-19.43-17.97-19.43-9.7711 0-17.857 7.3001-17.857 19.43 0 11.905 8.0864 19.542 17.857 19.542 9.7711 0 17.97-7.525 17.97-19.542z"/>
		<path d="m714.54 91.402v-68.284c0-2.1339 1.2354-3.3693 4.8294-3.3693 1.5723 0 3.257 0.22462 4.1555 0.44925v68.175c0 2.2462-1.2354 3.3693-4.8294 3.3693-1.5723 0.11232-3.257-0.11232-4.1555-0.33691z"/>
		<path d="m750.14 36.933v3.1447h17.857c0.11231 0.7862 0.3369 2.3585 0.3369 3.5939 0 3.1447-1.2354 4.2678-3.257 4.2678h-14.938v40.095c0 2.2462-1.2354 3.3693-4.8294 3.3693-1.5724 0-3.257-0.22459-4.1555-0.44928v-42.903h-7.862c-0.11232-0.67387-0.33691-2.3585-0.33691-3.5939 0-3.1447 1.3477-4.2678 3.257-4.2678h4.9417v-2.4709c0-12.13 7.4126-17.857 17.184-17.857 4.6048 0 9.8836 1.1231 12.803 2.3585 0.22458 0.89847 0.22458 1.797 0.22458 2.3585 3e-5 3.3693-1.46 4.7171-3.1447 4.7171-1.4601 0-4.4925-1.4601-9.4341-1.4601-5.3909-0.22462-8.6478 2.4709-8.6478 9.0972z"/>
	</g>
	<path d="m219.59 2.2642e-6h329.67c4.8557 0 8.7877 3.932 8.7877 8.7877v114.37c0 4.8557-3.9321 8.7877-8.7877 8.7877h-329.67c-4.8557 0-8.7877-3.932-8.7877-8.7877v-114.37c0-4.8557 3.9321-8.7877 8.7877-8.7877z" fill="url(#A)"/>
	<linearGradient id="B" x1="1459.5" x2="1450.8" y1="233.73" y2="-15.325" gradientTransform="matrix(.2639 0 0 .2639 .015856 2.2642e-6)" gradientUnits="userSpaceOnUse">
		<stop stop-color="#fff" offset="0"/>
		<stop stop-color="#fff" stop-opacity=".835" offset=".12"/>
		<stop stop-color="#fff" stop-opacity=".658" offset=".269"/>
		<stop stop-color="#fff" stop-opacity=".511" offset=".42"/>
		<stop stop-color="#fff" stop-opacity=".397" offset=".568"/>
		<stop stop-color="#fff" stop-opacity=".315" offset=".716"/>
		<stop stop-color="#fff" stop-opacity=".266" offset=".86"/>
		<stop stop-color="#fff" stop-opacity=".25" offset="1"/>
	</linearGradient>
	<path d="m217.14 65.446 0.84445-0.05278 333.5-11.638c3.6682-0.02639 6.5974-3.0349 6.571-6.6766v-38.29c0-4.8557-3.9321-8.7877-8.7877-8.7877h-329.67c-4.8557 0-8.7877 3.932-8.7877 8.7877v63.521c-0.10559-3.6154 2.7182-6.6766 6.3335-6.8614z" fill="url(#B)" opacity=".4"/>
	<linearGradient id="C" x1="361.92" x2="361.92" y1="28.806" y2="471.22" gradientTransform="matrix(.2639 0 0 .2639 .015856 2.2642e-6)" gradientUnits="userSpaceOnUse">
		<stop stop-color="#002a91" offset="0"/>
		<stop stop-color="#002672" offset=".8"/>
	</linearGradient>
	<path d="m131.84 122.48c2.771 1.2139 5.753 1.8737 8.7613 1.8737 6.8877 0.15833 10.661-2.4807 13.433-8.6557l36.971-82.308c-2.4016-1.082-5.0141-1.689-7.653-1.7681-4.7764-0.10557-11.163 0.87084-15.201 10.582l-11.954 28.185-23.487-38.159c-2.5863-0.68612-5.2515-1.0556-7.9169-1.1084-8.3126 0-12.93 3.0349-17.735 8.2599l-22.826 24.913 18.342 28.871c3.4044 5.2515 7.864 7.9432 15.121 7.9432 3.6153 0.0528 7.2044-0.60696 10.556-1.9792l-22.115-33.252 15.676-16.599 25.703 40.297zm-48.477-31.115c0 6.0696-2.3751 9.553-14.251 9.553-1.4251 0-2.8501-0.10557-4.2486-0.2903v-80.514c0-6.1223 2.0848-12.508 14.04-12.508 1.5042 0 3.0085 0.15834 4.4598 0.44862zm-24.49-12.165c0 11.348-7.4155 19.581-22.458 21.218-10.899 1.1611-26.68-0.21112-34.175-1.0556-0.2639-1.293-0.42223-2.6126-0.44862-3.9584 0-9.8697 5.3307-12.139 10.345-12.139 5.2251 0 13.433 0.92362 19.529 0.92362 6.7293 0 8.7613-2.2695 8.7613-4.4598 0-2.8238-2.6918-4.0111-7.9169-5.0141l-14.303-2.7446c-11.875-2.2695-18.209-10.477-18.209-19.185 0-10.582 7.4945-19.423 22.247-21.059 11.163-1.2139 24.754 0.15834 32.196 1.0556 0.2639 1.2403 0.39584 2.507 0.39584 3.8002 0 9.8697-5.2251 12.008-10.239 12.008-3.8528 0-9.8434-0.71252-16.679-0.71252-6.9405 0-9.8434 1.9265-9.8434 4.2486 0 2.4807 2.7446 3.4834 7.0988 4.2486l13.644 2.5335c14.013 2.5599 20.056 10.529 20.056 20.294z" fill="url(#C)"/>
	<linearGradient id="D" x1="365.45" x2="359.6" y1="263.25" y2="95.751" gradientTransform="matrix(.2639 0 0 .2639 .015856 2.2642e-6)" gradientUnits="userSpaceOnUse">
		<stop stop-color="#fff" offset="0"/>
		<stop stop-color="#fff" stop-opacity=".835" offset=".12"/>
		<stop stop-color="#fff" stop-opacity=".658" offset=".269"/>
		<stop stop-color="#fff" stop-opacity=".511" offset=".42"/>
		<stop stop-color="#fff" stop-opacity=".397" offset=".568"/>
		<stop stop-color="#fff" stop-opacity=".315" offset=".716"/>
		<stop stop-color="#fff" stop-opacity=".266" offset=".86"/>
		<stop stop-color="#fff" stop-opacity=".25" offset="1"/>
	</linearGradient>
	<path d="m191.03 33.383-13.538 30.137c-1.0556 2.1639-3.246 3.5363-5.6474 3.5363l-12.351 0.42223c-1.3459 0.07917-2.5334 0.97641-3.0085 2.2431v-0.02639l11.664-27.498c4.064-9.7113 10.45-10.688 15.201-10.582 2.6654 0.07917 5.2515 0.68614 7.6793 1.7681zm-35.468 36.022-22.853-37.158c-2.5863-0.68612-5.2516-1.0556-7.9169-1.1084-8.3126 0-12.93 3.0349-17.735 8.2599l-22.826 24.913 1.8209 2.8765c1.1875 1.7944 3.246 2.8238 5.4099 2.7182l13.01-0.44862a6.5103 6.5103 0 0 1 5.7528 2.5862l-4.0903-6.1488 15.676-16.599 10.529 16.494c1.293 1.6361 3.2988 2.5599 5.3834 2.507l14.963-0.5278c1.1612 0 2.2695 0.63335 2.8765 1.6361zm-76.661-61.777c-11.954 0-14.04 6.3863-14.04 12.508v55.155c0-2.5335 2.032-4.5918 4.5654-4.671l9.2627-0.31669c2.5862 0 4.6973-2.1112 4.6973-4.6973v-57.528c-1.5042-0.31669-2.9821-0.47501-4.4862-0.44862zm-40.058 51.249-13.644-2.5335c-4.3542-0.7653-7.0988-1.7681-7.0988-4.2486 0-2.3223 2.903-4.2486 9.8434-4.2486 6.8349 0 12.826 0.71252 16.679 0.71252 5.0141 0 10.239-2.1376 10.239-12.008 0-1.2667-0.13195-2.5599-0.39584-3.8001-7.4418-0.92362-21.032-2.2695-32.196-1.0556-14.778 1.6361-22.273 10.503-22.273 21.059 0.02639 5.6474 2.6918 10.978 7.2044 14.383 3.3252 2.0584 7.0724 3.4044 10.952 3.9055 5.0668 0.68612 10.16 0.95003 15.254 0.79169l16.283-0.58058c6.0959-0.21112 9.421 4.9876 9.0779 10.213 0-0.07917 0-0.13195 0.02639-0.21112v-0.05278c0.05278-0.68614 0.07917-1.3722 0.07917-2.0584 0-9.7113-6.0432-17.681-20.03-20.267z" fill="url(#D)" opacity=".25"/>
	<path d="m236.03 94.817c-0.79168-5.4363 0.89725-8.2862 4.0112-8.2862 2.9557 0 10.213 3.246 20.32 3.246 10.635 0 14.647-3.7736 14.647-8.6821 0-3.4834-1.557-6.5974-11.136-9.2099l-11.005-2.9557c-12.165-3.246-16.969-9.3418-16.969-16.863 0-9.3155 7.3891-17.628 24.094-17.628 7.5211 0 16.863 1.689 22.538 3.9055 1.0292 5.3043-0.65975 8.1543-3.8792 8.1543-2.8501 0-9.3155-2.7182-18.526-2.7182-9.8434 0-13.486 3.3516-13.486 7.7585 0 3.0877 1.425 5.964 10.239 8.4182l11.268 3.114c12.588 3.4834 17.628 9.3155 17.628 17.602 0 9.7378-7.5211 18.393-25.651 18.393-8.0224 0.02639-18.024-1.9265-24.094-4.2486m124.34-28.105c0 20.32-14.251 32.38-29.926 32.38-9.3155 0-16.969-4.4071-21.508-10.608v26.179c0 2.4543-1.425 4.0111-5.5681 4.0111-2.0848 0-4.0111-0.2639-5.0404-0.5014v-82.546c1.0292-0.2639 2.9557-0.5278 5.0404-0.5278 4.1431 0 5.5681 1.557 5.5681 4.0111v5.9376c4.539-6.2015 12.192-10.608 21.508-10.608 15.676 0 29.926 12.061 29.926 32.275m-10.741 0c0-13.591-9.0516-22.933-21.244-22.933-8.2862 0-15.939 4.8029-19.423 11.797v22.404c3.4834 6.9933 11.136 11.797 19.423 11.797 12.165-0.02639 21.244-9.3418 21.244-23.065m20.69 0c0-18.526 13.591-32.248 31.853-32.248 18.393 0 31.984 13.722 31.984 32.248 0 18.393-13.591 32.38-31.984 32.38-18.262-0.02639-31.853-14.013-31.853-32.38m53.095 0c0-14.251-9.6058-22.933-21.244-22.933-11.506 0-21.112 8.6821-21.112 22.933 0 14.118 9.6058 23.038 21.112 23.038 11.638 0 21.244-8.9196 21.244-23.038m62.095-26.444c0 4.275-1.7944 5.1724-6.2278 5.1724-8.9196 0-16.441 4.1431-21.112 13.855v35.125c0 2.5862-1.425 4.0111-5.7002 4.0111-1.8209 0-3.9057-0.2639-4.9349-0.5014v-62.333c1.0292-0.2639 3.0877-0.50141 4.9349-0.50141 4.2486 0 5.7002 1.557 5.7002 4.0111v8.6821c6.0696-9.2099 15.28-13.855 26.812-12.298 0.13194 0.89724 0.52776 2.8501 0.52776 4.7765m46.577 54.547c-5.4363 2.5862-11.664 4.275-17.867 4.275-12.298 0-19.688-7.2572-19.688-19.291v-53.491c0-2.7182 1.557-4.539 5.7002-4.539 1.7944 0 3.8793 0.36945 4.9349 0.65973v13.459h24.2c0.13195 0.89724 0.39585 2.7182 0.39585 4.275 0 3.7473-1.557 5.0404-3.8794 5.0404h-20.717v33.832c0 7.2307 3.3516 10.741 10.213 10.741 6.2279 0 9.7114-2.7182 12.693-2.7182 3.114-0.02639 4.671 2.5599 4.0111 7.7585" fill="#fff"/>
</svg>
