<?xml version="1.0" encoding="UTF-8"?>
<svg width="800" height="193.51" version="1.1" xmlns="http://www.w3.org/2000/svg">
	<defs>
		<linearGradient id="linearGradient7090" x1="414.37" x2="1244.6" y1="289.84" y2="289.84" gradientTransform="matrix(.51516 0 0 .51516 -7.7772 -84.949)" gradientUnits="userSpaceOnUse">
			<stop stop-color="#ff0031" offset="0"/>
			<stop stop-color="#9b001f" offset="1"/>
		</linearGradient>
		<linearGradient id="linearGradient7092" x1="197.48" x2="194.59" y1="295.14" y2="212.24" gradientTransform="matrix(.51516 0 0 .51516 -7.7772 -84.949)" gradientUnits="userSpaceOnUse">
			<stop stop-color="#fff" offset="0"/>
			<stop stop-color="#fff" stop-opacity=".25" offset=".515"/>
		</linearGradient>
		<linearGradient id="linearGradient7094" x1="830.55" x2="826.25" y1="276.73" y2="153.47" gradientTransform="matrix(.51516 0 0 .51516 -7.7772 -84.949)" gradientUnits="userSpaceOnUse">
			<stop stop-color="#fff" offset="0"/>
			<stop stop-color="#fff" stop-opacity=".25" offset=".515"/>
		</linearGradient>
	</defs>
	<path d="m624.79 0.0154h168.98c3.4541 0 6.2348 2.7807 6.2348 6.2348v116.26c0 3.4541-2.7807 6.2348-6.2348 6.2348h-168.98z" fill="#bbb"/>
	<path d="m714.58 38.576v49.548c0 2.1728-1.0998 3.3801-4.4799 3.3801-1.5292 0-2.9508-0.21427-4.0506-0.42933v-22.802h-28.274v19.878c0 2.1728-1.0998 3.3801-4.4799 3.3801-1.6367 0-3.2726-0.21427-4.0506-0.42933v-49.575c0-2.0921 1.0998-3.3801 4.5874-3.3801 1.5292 0 3.0314 0.21427 3.9162 0.42933v22.051h28.141v-19.1c0-2.0921 1.2074-3.3801 4.695-3.3801 1.6098 0 3.1121 0.21427 3.9968 0.42933m58.003 26.182c0 14.861-10.381 26.101-26.638 26.101h-15.157c-3.2726 0-4.4799-1.3141-4.4799-3.3801v-45.309c0-2.0652 1.2074-3.3801 4.4799-3.3801h15.157c16.257 0 26.638 11.133 26.638 25.968m-8.6379 0c0-11.133-6.9745-18.349-18-18.349h-11.133v36.779h11.133c11.026 0.02688 18-7.1895 18-18.43" fill="#9c001f"/>
	<path d="m57.492 77.17c0 11.076-7.2122 19.112-21.946 20.709-10.612 1.1333-26.016-0.20606-33.331-1.0303-0.25758-1.1849-0.46364-2.6788-0.46364-3.8637 0-9.6334 5.2031-11.849 10.097-11.849 5.1001 0 13.137 0.87576 19.061 0.87576 6.594 0 8.5515-2.2152 8.5515-4.3273 0-2.7819-2.6273-3.9152-7.7274-4.894l-13.961-2.6788c-11.591-2.2152-17.773-10.2-17.773-18.7 0-10.303 7.3153-18.958 21.74-20.555 10.87-1.1849 24.161 0.15455 31.425 1.0303 0.25758 1.2364 0.41213 2.4212 0.41213 3.7091 0 9.6334-5.1001 11.694-9.994 11.694-3.7607 0-9.5819-0.6697-16.279-0.6697-6.8001 0-9.5819 1.8546-9.5819 4.1213 0 2.4212 2.6788 3.4 6.9031 4.1728l13.291 2.4728c13.703 2.5243 19.576 10.252 19.576 19.782m23.852 11.849c0 5.9243-2.3182 9.3243-13.909 9.3243-1.5455 0-2.8849-0.10303-4.1728-0.3091v-78.458c0-5.9758 2.0091-12.209 13.703-12.209 1.494 0 2.9879 0.15455 4.3789 0.46364zm47.343 30.394c1.5455 0.77273 4.6364 1.7515 8.5515 1.8031 6.7486 0.15454 10.406-2.4212 13.137-8.4486l36.061-80.209c-1.494-0.77274-4.791-1.7-7.4698-1.7515-4.6364-0.10303-10.87 0.82424-14.837 10.303l-11.746 27.458-22.925-37.246c-1.494-0.46364-5.1001-1.0818-7.7274-1.0818-8.1394 0-12.621 2.9879-17.309 8.0364l-22.255 24.315 17.928 28.179c3.297 5.1516 7.6758 7.7788 14.734 7.7788 4.6364 0 8.5-1.0818 10.303-1.9061l-21.585-32.455 15.3-16.228 25.088 39.307z" fill="#ff0031"/>
	<path d="m214.21 0c-4.7395 0-8.6032 3.8637-8.6032 8.6031v111.53c0 4.7395 3.8637 8.6032 8.6032 8.6032h410.58c4.7395 0 8.6031-3.8637 8.6031-8.6032v-111.58c-0.0515-4.7395-3.8122-8.5515-8.5523-8.5523z" fill="url(#linearGradient7090)"/>
	<path d="m63.313 19.576v53.834c0-2.1637 1.6485-4.4304 4.4304-4.5334l9.0667-0.3091c1.8031-0.05152 4.5334-1.2879 4.5849-4.5849v-56.152c-1.3909-0.3091-2.8849-0.46364-4.3788-0.46364-11.694 0.051516-13.703 6.2334-13.703 12.209m41.213 18.752-22.255 24.315 1.8031 2.7819c0.77274 1.0303 2.2667 2.7819 5.2546 2.6788l12.673-0.46364c2.7819-0.10303 4.5334 1.0818 5.6152 2.5243l-3.9667-5.9758 15.3-16.228 10.252 16.124c1.8546 2.4212 4.6364 2.4728 5.2546 2.4728 0.51516 0 14.012-0.46364 14.579-0.51516 0.92728-0.05152 2.0091 0.46364 2.8334 1.6485l-22.306-36.267c-1.494-0.46364-5.1001-1.0818-7.7274-1.0818-8.1394-0.05152-12.621 2.8849-17.309 7.9849m-82.785-7.4698c-14.424 1.597-21.74 10.2-21.74 20.555 0 5.3061 2.4212 10.406 7.0577 14.064 3.5031 2.3182 7.1092 3.194 10.664 3.8122 2.9364 0.51516 9.7879 0.97879 14.888 0.77274l15.867-0.56668c5.9758-0.20606 9.1697 4.894 8.8606 9.994v-0.25758c0.05151-0.6697 0.10303-1.3394 0.10303-2.0091 0-9.5303-5.8728-17.309-19.525-19.834l-13.291-2.4728c-4.2758-0.72122-6.9031-1.7515-6.9031-4.1728 0-2.2667 2.8334-4.1728 9.5819-4.1728 6.6971 0 12.518 0.66971 16.279 0.66971 4.894 0 9.994-2.0606 9.994-11.694 0-1.2879-0.15455-2.4728-0.41213-3.7091-5.2031-0.61818-13.549-1.494-21.843-1.494-3.2455 0.05151-6.491 0.20606-9.5819 0.51516m142.29 10.252-11.385 26.84c0-0.05151 0.72122-2.1122 2.9364-2.2152l12.055-0.41213c3.6576-0.15455 5.1001-2.6273 5.5122-3.4516l13.188-29.416c-1.494-0.77274-4.791-1.7-7.4698-1.7515h-0.56668c-4.5849 0.05151-10.458 1.2879-14.27 10.406" fill="url(#linearGradient7092)" opacity=".3"/>
	<path d="m214.2 0c-4.7395 0-8.6032 3.8637-8.6032 8.6031v61.922c0-0.92727 0.36061-6.0274 6.1819-6.594 0 0 0.3091-0.05152 0.82426-0.05152l414.39-14.527c3.2455-0.10303 6.388-2.5243 6.388-6.5425v-34.155c0-4.7395-3.8637-8.6031-8.6031-8.6031z" fill="url(#linearGradient7094)" opacity=".3"/>
	<path d="m298.64 14.579c-3.4516 0-6.387 2.678-6.387 6.3871 0 3.2455 2.884 6.2852 6.387 6.2852 3.5031 0 6.2852-2.9882 6.2852-6.2852 0-3.6061-2.7306-6.3871-6.2852-6.3871zm117.35 19.112c-16.588 0-30.033 13.137-30.033 31.219 0 18.752 12.93 31.528 31.682 31.528 8.6546 0 16.794-2.5766 22.1-4.9463 0.61819-5.4607-1.2376-7.8293-3.7618-7.8293-1.0818 0-2.4205 0.51506-4.9448 1.4423-3.8637 1.1849-7.8304 2.3689-13.034 2.3689-12.106 0-20.348-6.7476-21.842-18.442h46.93c0.36062-2.2667 0.51518-4.2772 0.56673-6.1833 0-14.373-9.1697-29.157-27.664-29.157zm-155.37 0.05096c-17.412 0-30.703 13.344-30.703 31.271s13.291 31.425 30.703 31.682c8.2424-8e-6 15.713-2.2676 21.019-4.7919 0.51516-5.4607-1.4939-7.7274-4.0182-7.7274-3.5031 0-7.4696 3.8638-16.64 3.8638-11.591 0-21.019-8.9113-21.019-22.872 0-13.961 9.4279-22.616 21.019-22.616 9.1697 0 13.085 3.8638 16.64 3.8638 2.5243 0 4.5334-2.2668 4.0182-7.7274-5.2031-2.6788-12.673-4.9463-21.019-4.9463zm89.638 0c-9.1182 0-15.816 4.4305-20.194 9.7365v-5.2026c0-2.2667-1.3405-3.7603-5.2042-3.7603-1.7515 0-3.6052 0.41109-4.5324 0.66867v60.12c0.92728 0.25758 2.7809 0.51424 4.5324 0.51424 3.9152 0 5.2042-1.3906 5.2042-3.7603v-38.585c3.194-5.8213 10.921-10.87 18.082-10.87 9.0152 0 15.145 5.8725 15.145 18.236v34.362c0.97879 0.25758 2.937 0.51578 4.534 0.51578 3.9667 0 5.2026-1.3921 5.2026-3.7618v-32.454c0-17.824-10.353-25.707-22.769-25.758zm133.63 0c-7.4182 0-13.55 3.8649-17.413 9.0679v-4.2761c0-2.5243-1.2876-4.0182-5.0482-4.0182-1.597 0-3.5037 0.41109-4.534 0.66867v60.017c0.82425 0.25758 2.7824 0.51578 4.534 0.51578 3.9667 0 5.2026-1.3921 5.2026-3.7618v-39.615c2.2667-4.894 8.0882-9.84 14.888-9.84 8.1394 0 12.262 5.3074 12.262 14.22v38.482c1.0303 0.25758 2.8844 0.51578 4.6359 0.51578 3.9667 0 5.2026-1.3921 5.2026-3.7618v-39.615c2.2667-4.894 8.0882-9.84 14.888-9.84 7.985 0 12.262 5.3074 12.262 14.22v38.482c0.97878 0.25758 2.9354 0.51578 4.5324 0.51578 3.9667 0 5.3061-1.3921 5.3061-3.7618v-36.318c0-12.003-6.902-21.843-19.884-21.895-8.9121 0-15.301 4.8953-19.422 10.923-3.194-6.8001-9.4266-10.923-17.412-10.923zm97.209 0c-8.4485 0-17.464 2.0094-23.491 4.2761-0.61819 5.3061 0.97843 7.8309 3.7603 7.8309 0.97881 0 2.4215-0.46391 4.2761-0.97906 3.6061-1.1849 8.9123-2.5249 15.043-2.5249 11.849 0 14.888 5.5639 14.888 14.888v1.6493c-26.737-1.7515-42.552 4.6358-42.552 19.266 0 9.6849 7.4704 18.34 21.019 18.34 9.0152 0 15.815-3.5548 21.533-9.5821v5.0482c0 2.5243 1.5965 3.8128 5.2026 3.8128 1.7515 0 3.5037-0.25821 4.534-0.51579v-38.378c0-14.27-6.5427-23.08-24.213-23.132zm-282.15 0.82464c-4.0698 0-5.3061 1.4936-5.3061 3.7603v56.874c0.97876 0.25758 2.8839 0.5152 4.5324 0.56675 3.9667 0 5.3061-1.3906 5.3061-3.7603v-56.77c-0.97878-0.25758-2.9354-0.6702-4.5324-0.67022zm117.09 7.8819c10.87 0 17.515 8.1394 17.927 18.494h-37.76c1.597-12.106 10.148-18.597 19.833-18.494zm173.04 23.691c2.0777 0.0064 4.2167 0.06401 6.3933 0.1606v11.591c-4.6364 6.1819-11.591 10.356-19.833 10.356-8.088 0-12.621-4.9463-12.621-10.252 0-9.4209 11.517-11.9 26.061-11.855z" fill="#fff"/>
	<path d="m339.64 142a25.754 25.754 0 0 0-25.754 25.754 25.754 25.754 0 0 0 25.754 25.754 25.754 25.754 0 0 0 25.754-25.754 25.754 25.754 0 0 0-25.754-25.754zm0 1.9602a23.794 23.794 0 0 1 23.794 23.794 23.794 23.794 0 0 1-23.794 23.794 23.794 23.794 0 0 1-17.115-7.3448l1.6526-0.42317 4.0475-0.31146 1.0954-0.26508 0.7495-0.7495c0.39205-0.53041 0.83004-0.83025 1.3143-0.96862l1.9373-0.57654 0.17296-0.79567 0.56505 0.43826 0.70333 0.0462 0.2653-0.21913 0.21891-0.31147 0.7495-0.12679 1.5337 0.17296 0.87629 1.499 0.17296-0.7495-0.0921-0.83013-0.48443-0.39209-0.31124-0.61122c-0.31133-0.35745-0.79567-0.39204-1.3146-0.17296-0.61113 0.26521-1.0492 0.39214-1.2799 0.2653 0.0461-0.61113 0.53037-0.96863 1.4528-0.96863 0.31133 0 0.70329 0.12697 1.0607 0.31147l0.87652 0.31124c-0.17296-0.79562-0.96859-1.3145-2.4215-1.672-1.7181-0.34593-2.4562-0.0461-2.1564 0.96863l-0.61099 0.21912c-0.0461 0.34593-0.17315 0.57645-0.5306 0.65717l-0.92246 0.13828c-0.0461 0.17296-0.0921 0.26534-0.2189 0.31146l-0.43826 0.1268-0.34593 0.79566-0.74949 0.0921c-0.35746-0.0461-0.56497 0.0924-0.70334 0.35763l-0.79566-0.39209-0.31124 0.31124c-0.34593-0.0461-0.43831-0.3575-0.31147-0.96863 0.17296-0.65725 0.48425-0.79549 0.87629-0.43803 0.0923-0.31134 0.34611-0.39219 0.70356-0.31147l0.87629 0.17296c0.0922-0.12684 0.39196-0.26512 0.83013-0.31124l0.92246-0.34592c0.39204-0.31133 0.65725-0.7496 0.92246-1.3607-0.35745-0.12684-0.48425-0.31129-0.35741-0.53037 0.0923-0.21909 0.26521-0.34579 0.57654-0.26507l-0.0462-0.70356c0.21908 0.12684 0.48429 0.0923 0.7495-0.12679l0.70333-0.57654 0.92246 0.0462 0.83035 0.17296c0.21909-0.7495-0.34592-1.1415-1.672-1.0493l-1.2799 0.17296-0.31146 0.39209-0.43804 0.31125-0.21913-1.1416c0.21909 0.17297 0.43813 0.17297 0.70333 0l0.61123-0.43803 0.9684 0.17296 0.7495-0.12702c-0.57654-1.1877-1.7181-1.2797-3.5169-0.2189-0.87634 0.53041-1.1876 0.96849-1.0607 1.4067l0.34592 0.31124c0.26521 0.12684 0.35741 0.21909 0.35741 0.34593l-0.39209 0.7495 0.39209 0.48442-0.8763 0.53037-1.1416 0.17296-0.4842 0.70334-0.43826 0.0923c-0.12683-0.0461-0.26511 0.0461-0.31124 0.17296l-1.0954-0.0923-0.31147-0.39209-0.43803-0.35741c-0.31133-0.12684-0.53041 0.0924-0.7495 0.48442l-0.43826 0.8763c-0.83021-0.61113-1.2338-1.672-1.1416-3.1595l0.92246 0.31124-0.39186-0.79544-0.21913-0.96863c0.17296-0.87633 0.61104-1.2799 1.2337-1.2799v-1.8449c0.43817-0.61113 0.61122-0.31151 0.61122 0.79544 0.0461 0.7495-0.0463 1.9373-0.31147 3.6092l1.499-2.6868 0.12702-1.499c0.0461-0.70338 0.26507-0.9685 0.611-0.65717 0.31133 0.21909 0.39213 0.74942 0.26529 1.5796l-1.5337 3.8283c0.21909 0.0461 0.53042-0.31133 0.92246-1.0954l0.79567-1.5798 0.53037-0.61099 0.0923-0.79567 0.65716-1.499c0.21908 0.0461 0.31138 0.34583 0.21913 0.83013l-0.17296 1.499 1.2684-3.8281h0.31124l0.12702 2.4215c0.35745-0.43817 0.61104-1.0609 0.65717-1.7181l-0.0462-1.1416 0.0923-1.0146c0.61113-0.17296 0.87639 0.26526 0.79567 1.3146-0.0922 1.0608-1.8e-4 1.5336 0.21891 1.499 0-1.2338 0.17296-2.0181 0.57653-2.3755 0.12684 0.12684 0.35759 0.6574 0.65739 1.5798l0.87629 1.4528 4.3932 2.9404 1.8449 0.7495c0.39205 0.26521 0.92242 0.70342 1.4528 1.3146l1.3146 1.4528c1.0954 0.96858 2.3754 1.4528 3.736 1.5796l1.0148-0.1268 0.53037-0.12679c0.0461 0 0.0922 0.0462 0.1268 0.0923l0.17296 0.0921c0.92246-0.0923 1.4067-0.3921 1.4528-0.96863l-0.7495-0.26508-0.4842-0.57653-1.7643-0.61122-1.5796-0.96863-1.2107-1.3605-1.4528-1.0492 0.0921-0.21913-1.672-2.3294c-0.65725-1.5336-0.65721-2.3291 0.0462-2.5021l0.57653 0.2653 0.70333-0.0462-1.1875-1.9372-0.96863-0.65717c-0.57653-0.31133-0.92259-0.4383-1.061-0.31146l-0.1268-0.43804 1.3607-0.17296 0.39209-0.35741 0.48421-0.12702c0.2652-0.0922 0.53046 5e-5 0.79566 0.21913l0.65717 0.31147 1.0954-0.31147c0.43817-0.0922 0.79558 0.0922 1.0492 0.53037 0.26521 0.39205 0.53056 0.70338 0.83035 0.7495l1.1416 0.21913 0.83013 0.65739c0.65725-0.0461 1.0953 0.0921 1.2337 0.39187l1.1878 0.12702 1.3146 0.43803 1.3605 0.0462c0.65725 0.0461 1.0494 0.173 1.2339 0.39209l0.53037-0.0462 0.48421 0.21913 0.87651-0.0923c0.7495 0.0923 1.0954 0.53047 1.0954 1.3146 0.57653 0.21908 1.0147 0.12692 1.4528-0.31124l0.53037-0.87652 0.35741-0.8763c0.21908-0.57653 0.17296-1.0953-0.17297-1.5334l-1.0146-1.5798c-0.43817-0.7495-0.79571-1.2337-1.1878-1.5335l-1.672-1.0954-1.7526-0.57654-2.064-1.799-0.48443-0.12679-0.39187-0.31124-2.9865-2.1102c-1.3145-0.83021-2.2025-1.5796-2.4561-2.283l-0.79567-0.35763h-0.39187l-0.39209-0.12679-0.0462-0.65717c0.0461-0.34592-0.0922-0.65739-0.31125-0.83035l-1.7528-0.43803-0.92246-0.96863c-0.31133-0.0461-0.79562 0.12679-1.499 0.53037l-0.65716 0.17296-0.7495 0.0462-1.2799 0.65716-1.4069 0.17296c-0.21908 0-0.48424 0.12693-0.87629 0.43826l-0.92246 0.48421c-0.39205 0.0922-1.0148-0.0461-1.9373-0.57654l-0.4842-0.34593c-0.21908-0.12683-0.392 5e-5 -0.53037 0.21913l0.53037 0.7495 0.21913 0.1268 0.21913 0.17296-0.0923 0.48443 0.31124 0.4842c0.12684 0.12684 0.12684 0.31146 0 0.48442l-1.0492-0.31146-0.83013-0.57654-1.0492-0.12679c-0.43817 0.0461-0.70342 0.26516-0.79567 0.53037l0.96863 0.61122c0.43817 0.21908 0.57649 0.48424 0.53037 0.87629 0.57654 0 0.70342 0.21909 0.39209 0.57654l-0.96863 0.12679c-0.31133 0.0461-0.79558-0.12675-1.4528-0.4842-0.83021-0.43817-1.28-0.39209-1.3146 0.12679l0.39209 0.61122 0.39187 0.7495c0.31133 1.0147 0.17309 1.4067-0.43804 1.2799l-0.65739-0.39209-0.79544-0.12679c-0.48429 0.21908-0.48429 0.61118 0 1.1416 0.65725 0.65725 0.92242 1.1414 0.87629 1.3605l-0.79566-0.26507c-0.26521-0.12684-0.39214-0.0922-0.43826 0.17296l0.34592 0.70333c0.26521 0.26521 0.39223 0.4843 0.35763 0.7495l-0.92246-0.39209c-0.31133-0.31133-0.61131-0.39195-0.87651-0.31124l0.70355 1.7179c0 0.57653-0.12684 0.70346-0.34592 0.43826l-0.70356-0.7495c-0.43816-0.0922-0.61108 0.0922-0.53037 0.53037l0.34593 0.92246c0.0922 0.39204-0.0923 0.92246-0.56506 1.499l-0.43803-0.3921c-0.12684-0.21908-0.2653-0.31119-0.43826-0.26507-0.21908 0.0461-0.31137 0.12684-0.21913 0.34593l0.31147 0.4842c0.39204 0.74949 0.3574 0.96858-0.21913 0.7495l-0.53037-0.96863c-0.31133-0.0461-0.34593 0.1731-0.17296 0.65739 0.17296 0.48429 0.0922 0.83017-0.2653 0.87629-0.34592 0.0461-0.70324-0.4843-1.0146-1.672-0.26521 0.12684-0.39209 0.48434-0.39209 0.96863-0.0461 0.57654-0.0923 0.8762-0.21913 1.0146-0.26521 0.39205-0.48421 0.43817-0.65717 0.17296l-0.61122-0.83012-0.43826-0.1268-0.26507-0.39209c-0.26521-0.0922-0.53055 5e-5 -0.65739 0.21913v0.92246l0.12702 1.0146-0.43826-0.0921-1.499-1.0148c-0.0365-0.0243-0.0716-0.0365-0.11193-0.0581a23.794 23.794 0 0 1-0.01-0.1358 23.794 23.794 0 0 1 23.794-23.794zm4.7166 10.843h0.21913l0.83035 1.7528c0.21908 0.7495 0.26516 1.4066 0.12679 1.937l-0.92246 1.7528c-0.53041 0.65726-0.96854 0.74946-1.4528 0.1268-0.48429-0.61113-0.48429-1.0955 0-1.3607 0.70337-0.43817 1.0952-0.74937 1.1414-1.1875 0.0577-0.34592-0.0691-0.5651-0.42654-0.78418l-0.61122-0.70333c-0.0461-0.26521 0.0462-0.53037 0.39209-0.87629 0.31133-0.26521 0.61126-0.35759 0.83035-0.31147l-0.17296-0.17296zm3.691 2.7408c0.25187-0.0151 0.50051 0.24863 0.79454 0.81075l2.237 2.7674c0.34592 0.57653 0.2653 1.0954-0.31124 1.6258-0.7495 0.70337-1.2801 1.0493-1.626 0.92246l-1.2684-1.2222c-0.61113-0.74949-0.83021-1.1877-0.7495-1.3146l0.43826-0.13828 0.34592-0.21913c0.0922-0.17296 0.0922-0.48438-0.0347-1.0148l-0.34592-0.92247-0.1268-1.0146 0.3921-0.17296c0.0865-0.0663 0.17075-0.10238 0.25471-0.10742zm4.8303 5.5152-0.65717 0.2653c1.326-0.21909 1.8909 0.0923 1.7641 0.96862l-1.2799-0.0923-1.0146 0.0923c-0.53041-0.0922-0.57671-0.39204-0.12702-0.92246 0.12684-0.21908 0.61118-0.31146 1.3146-0.31146zm-4.4905 3.1433c-0.22134-0.0186-0.40295 0.28295-0.51393 0.85805l0.48443-0.34593c0.21908-0.2652 0.26516-0.44983 0.12679-0.48442-0.0332-0.0159-0.0657-0.025-0.0973-0.0277zm0.72 0.32768-0.48443 0.39186-0.43803 0.79567 0.56505-0.34592 0.53037-0.57654zm0.70468 0.27566c-0.1108-3e-3 -0.2753 0.0904-0.43961 0.25471l-0.7495 1.499 0.96863-0.7495c0.39204-0.43817 0.48443-0.74955 0.31146-0.96863-0.0231-0.0231-0.0541-0.0347-0.091-0.0356zm0.96728 0.33533c-0.39205 0.0461-0.61109 0.17301-0.70333 0.39209l-0.2653 0.61122-0.65716 1.1531 1.0954-0.92246 0.57654-0.7495zm0.87629 0.27679-0.21913 0.0923-1.499 2.0638c0.96858-0.4497 1.5798-0.93386 1.8911-1.5911l0.0923-0.21913-0.0923-0.17296zm1.0227 0.31957c-0.16648 0.0162-0.33957 0.159-0.53848 0.41844l-1.2337 1.672c1.0608-0.31133 1.7181-0.87634 2.064-1.672 0.0461-0.21908 5e-5 -0.3575-0.12679-0.39209-0.0548-0.0231-0.10959-0.0317-0.16508-0.0264zm0.85692 0.24548-0.21912 0.17296c-0.35746 0.79562-0.74951 1.3145-1.0954 1.6258l1.5335-1.1416 0.18467-0.43803-0.0923-0.21913zm1.5603 0.20697c-0.0649 2e-3 -0.14058 0.0235-0.22273 0.0581-0.12684 0.0461-0.21913 0.26534-0.21913 0.48443l-0.34592 0.92246c0.20755 0 0.42663-0.17296 0.69184-0.57654l0.31124-0.70333c-0.0288-0.13693-0.10709-0.18839-0.2153-0.18512zm0.6691 0.15089c-0.12432 2e-3 -0.27782 0.11197-0.37295 0.34547-0.31133 0.65725-0.74959 1.2799-1.3607 1.672 0.39205 0 0.92242-0.26521 1.4528-0.7495 0.34593-0.7495 0.51893-1.1414 0.39209-1.2337-0.0317-0.0231-0.0698-0.0348-0.11125-0.0342zm0.85197 0.0707c-0.12758 8.1e-4 -0.22746 0.0628-0.31394 0.22859l-0.2653 0.65739c-0.17296 0.53042-0.53051 1.0147-1.0148 1.499l1.499-1.1416c0.27674-0.26521 0.40363-0.48425 0.44975-0.70333 0.0922-0.26521 0.0463-0.43831-0.0921-0.48443-0.0995-0.0346-0.18605-0.0561-0.2626-0.0556zm-2.4588 0.1018-0.1268 0.0462-0.12679 0.17296-0.21913 0.53037-0.57654 0.79567 0.96863-0.70334c0.34592-0.57653 0.34583-0.84183 0.0806-0.84183zm3.5885 0.14323c-0.24025-0.0285-0.50239 0.22859-0.69409 0.73306l-0.61122 1.0954 1.1416-0.83012c0.40357-0.57654 0.48415-0.87638 0.26507-0.96863-0.0332-0.0159-0.067-0.0257-0.10135-0.0297zm-14.001 0.0759-0.65739 0.26507v0.31147c0.12684 0.17296 0.29989 0.0806 0.43826-0.13851zm14.635 0.0993c-0.10371 7e-3 -0.22273 0.0982-0.35966 0.29277l-0.31124 0.65716c0.79562-0.39204 1.0609-0.65721 0.84184-0.87629-0.0519-0.0519-0.10871-0.0779-0.17094-0.0736zm-14.15 0.43105-0.57653 0.39209c-0.21909 0.17296-0.35746 0.31137-0.17296 0.39209 0.21908 0.17296 0.48429-0.0808 0.74949-0.78418zm14.697 0.29142c-0.2355 0.0199-0.74554 0.46376-1.5981 1.2882 0.39204 0 0.7958-0.13828 1.2801-0.4842 0.43817-0.31133 0.611-0.56501 0.43803-0.7495-0.0259-0.0411-0.0657-0.0591-0.12003-0.0545zm-14.132 0.22746-0.79567 0.39209c-0.35745 0.26521-0.39205 0.48425-0.17296 0.70333 0.13837 0.1845 0.48434-0.17296 0.96863-1.0954zm0.40357 0.57654-0.79566 0.53037-0.3921 0.39209 0.31147 0.2653c0.35745 0.0922 0.65721-0.31143 0.87629-1.1878zm1.0493 0.34592-1.499 1.2337 0.0923 0.48443c0.12684 0.12684 0.26521 0.17283 0.34593 0.0921l0.57654-0.70333zm-22.74 0.80423c0.0591 0 0.14576 0.0549 0.27836 0.1644l0.17296 0.17296 0.0459 0.31124-0.0921 0.2653-0.12679 0.17296 0.0459 0.21913v0.0921l-0.0459 0.1268-0.0462 0.0462h-0.17296l-0.17296-0.0921v-0.43825l0.0921-0.1268c0.0461-0.0461 2.3e-4 -0.17305-0.0459-0.2653l-0.0923-0.26507 0.0462-0.21913c0.0231-0.10954 0.0546-0.1644 0.11373-0.1644zm23.178 0.0376-0.83035 0.87629c-0.39205 0.31133-0.48429 0.48416-0.17296 0.611 0.17296 0.0922 0.43835-0.0922 0.70355-0.53037 0.20756-0.34593 0.29976-0.65712 0.29976-0.95692zm-23.961 0.31124 0.21913 0.0462 0.0462 0.12679-0.0462 0.0923 0.0462 0.12679v0.26507l-0.0462 0.12702-0.17296 0.0459-0.0462-0.0921-0.12679-0.17296-0.0462-0.39209zm24.757 0.25359-1.1071 1.061-0.12679 0.43804 0.34592 0.26529 0.53037-0.79566zm2.9286 0.0923-1.3143 1.9832-0.29998 0.61122c-0.0461 0.21909 2.3e-4 0.31133 0.12702 0.34593l0.43803-0.21913 0.65739-1.3146zm-2.0179 0.40358-1.2222 1.4413-0.0462 0.48421c0.0461 0.17296 0.21913 0.21917 0.39209 0.0923 0.48429-0.53041 0.74946-1.1416 0.87629-2.0179zm-26.601 0.34592 0.31124 0.39209h0.12702l0.89926 1.2799-0.0462 0.31124v0.2653l0.21913-0.21913 0.1268-0.26507c0.12683 0.0461 0.17314 0.17296 0.12701 0.34592l-0.17296 0.53037 0.21891 0.87629c-0.0922 0.21909-0.39192-0.0461-1.0146-0.92246l-0.61122-0.43826-0.31124-0.65716 0.92246 0.4842c0.0461-0.17296-0.0462-0.34587-0.26529-0.53037l-0.43804-0.4842c-0.39204-0.65725-0.39213-0.96863-0.0923-0.96863zm27.051 0.43826c-0.87634 1.1415-1.2337 1.7181-1.0146 1.8449 0.34592 0.21909 0.57636-0.0462 0.79544-0.61122zm2.9403 0.39187-1.0954 1.1416c-0.65725 0.79562-0.87625 1.2337-0.65716 1.4528 0.2652 0.21908 0.6573-0.17283 1.1416-1.0146 0.39204-0.78409 0.65712-1.3608 0.61099-1.5798zm-1.1416 0.43826-1.937 1.3146c-0.17296 0.0922-0.21917 0.17287-0.0923 0.31124l0.43826 0.17296c0.31133 0 0.70334-0.26526 1.0493-0.79567zm1.6837 0.3574c-1.0608 1.3145-1.5107 2.1103-1.2801 2.3294 0.39205 0.26521 0.7958-0.48443 1.2801-2.3294zm0.39187 0.8763c-1.0147 1.0147-1.372 1.6259-1.0146 1.9373 0.53041 0.39204 0.83008-0.26531 1.0146-1.9373zm-31.667 1.3143c0.0816 0.0335 0.1422 0.16747 0.17679 0.39232v0.39209l0.18445 0.23062 0.0923 0.21913c0.0461 0.34592-0.17288 0.31133-0.65717-0.17297l-0.0923-0.17296-0.31124-0.1385 0.17296-0.4842 0.2189-0.0923 0.12702-0.17296c0.0317-0.0115 0.0611-0.0114 0.0883-2.3e-4zm1.306 0.97944c0.10911 5e-3 0.22003 0.184 0.33534 0.56596 0.78409 0.21908 1.1876 0.74954 1.0492 1.7181-0.0461 0.31134-0.12693 0.39192-0.2653 0.26508l-0.34592-0.43804-0.31124-0.0462-0.12679-0.17297-0.31147-0.31124-0.21913-1.3146v-0.0923c0.0649-0.11675 0.12979-0.1767 0.19526-0.17387zm2.0557 1.737c0.051-4e-3 0.11868 0.0165 0.20516 0.0626l0.0462 0.0462 0.43804 0.61122-0.39187 0.70333c-0.31133 0.31133-0.48447 0.31133-0.5306 0l0.12702-0.35741 0.046-0.34592c-0.0951-0.467-0.0928-0.70703 0.0601-0.72z"/>
	<path d="m379.13 150.35c0.20691 4.3709 0.38795 7.6039 0.51727 9.8281 0.10345 1.6035 0.15526 2.3796 0.23285 3.9573 0.10345 1.888 0.18115 3.7761 0.23287 5.69 0.0259 1.3449-0.0261 2.6639-0.0778 4.0088-0.0517 0.87936-0.15518 1.7329-0.25863 2.5864-0.0776 0.59486-0.9313 1.5775-1.7589 1.474-0.75004-0.0776-1.0862-0.0775-3.388-0.28439-0.31037-0.0259-0.54296-0.052-0.69814-0.052 0.12932 2.3536 0.25864 4.6817 0.38796 7.0094 1.5777 0.25863 2.9484 0.38764 4.0088 0.46523 2.0174 0.18104 2.8447 0.15508 3.6982 0.0259 0.7759-0.12931 1.5777-0.25843 2.457-0.82742 1.1638-0.75005 1.9657-1.8623 2.302-3.2072 0.25864-1.1121 0.414-2.2758 0.46573-3.4138 0.10345-2.4829 0.10337-4.9918 0.1551-7.4746 0.0776-3.9054 0.15516-7.7847 0.25864-11.69 0.0259-1.1121 0.10324-2.2244 0.18083-3.3365 0.0517-0.95695 0.15529-1.9138 0.23288-2.8707 0-0.15518-0.0256-0.2846-0.0773-0.36219-0.10345-0.15518-0.2846-0.18136-0.36219-0.18136-0.36209-0.0517-3.7762-0.59465-8.5092-1.3447zm67.876 2.5636c-0.13902 0.0228-0.26844 0.15215-0.47535 0.38493-0.75004 0.85349-1.4998 1.7067-2.2757 2.5343-1.1639 1.2673-2.2245 2.5348-2.7934 4.216-0.59489 1.7328-0.51727 3.4398 0.25863 5.0434 0.56897 1.1897 1.3708 2.2758 2.0691 3.4138 0.64656 1.0087 1.2934 2.0176 1.6296 3.1814 0.31036 1.0604 0.23238 2.095-0.28489 3.1036-0.62073 1.2673-1.681 2.1209-2.7672 2.9486-0.2328 0.20691-0.46546 0.12942-0.54306-0.15508-0.10345-0.36209-0.18104-0.75014-0.25863-1.1381-0.10346-0.56899-0.18094-1.1642-0.2844-1.7332-0.23277-1.2932-0.49158-2.5601-0.72436-3.8532-0.38795-2.1725-0.776-4.3711-1.1381-6.5437l-0.85321-5.1985c-0.25864-1.6553-0.49151-3.2846-0.75015-4.9398 0-0.0517-0.0262-0.31068-0.18133-0.43999-0.10345-0.0776-0.2068-0.10356-0.28439-0.10356-0.31036-0.0259-3.6983-0.0259-8.3279 0-0.67245 4.0347-1.4485 8.1471-2.3019 12.389-0.87939 4.2675-1.7845 8.4314-2.7415 12.44-0.41381-0.36209-2.6382-7.0347-2.5606-7.5519 0.12932-0.10346 0.28447-0.18084 0.38795-0.31015 0.95693-0.98282 1.7845-2.0434 2.3535-3.3107 0.69829-1.6294 0.95695-3.3104 0.7759-5.0691-0.18104-1.8622-0.82773-3.5433-1.914-5.0434-0.82763-1.1121-1.681-1.7589-1.862-1.8882-1.2673-0.95695-2.5603-1.3187-3.4138-1.4998 0 0-0.44006-0.0776-0.93147-0.12932-0.90522-0.0776-3.6208-0.10387-7.2675-0.0263v0.69862c-0.12932 13.501-0.0777 18.829-0.10356 28.062 0 0.20691 0.0776 0.38774 0.12932 0.56879 2.6639-0.0259 4.5263-0.0259 4.9919 0 0.0776 0.0259 0.36207 0.0516 0.51727-0.10356 0.0776-0.0776 0.10353-0.25853 0.10353-0.54303 0-1.9915-7e-5 -3.9571 0.0259-5.9486 0.0259-0.2069 0.0778-0.46554 0.20711-0.64658 0.31036-0.41382 0.87926-0.33612 1.0603 0.10355 0.31037 0.72418 0.62062 1.4742 0.93098 2.1984 0.67246 1.526 1.3451 3.026 2.0176 4.5261 0.10345 0.23278 0.23238 0.43948 0.3617 0.69811 1.1638-0.10345 2.147-0.80166 3.2849-0.93098 0.0776 0.25864 0.15529 0.46544 0.23288 0.67235 0.20691-0.0259 0.33594-0.0515 0.46526-0.0515 1.5776-0.0517 3.1555-0.0777 4.7332-0.10356 0.43968-0.0259 0.59476-0.18115 0.67235-0.62083 0.0776-0.56899 0.18104-1.1379 0.25863-1.7069 0.12932-1.1121 0.25874-2.2244 0.3622-3.3365 0.0517-0.569 0.12911-0.69811 0.69813-0.69811 1.6035 0.0259 3.207 0.0518 4.8105 0.10356 0.15518 0 0.33641 0.026 0.46573 0.10356 0.10345 0.0776 0.23277 0.2067 0.25863 0.31015 0.0776 0.46554 0.155 0.90543 0.18086 1.371 0.0776 1.5001 0.1295 3.0259 0.20709 4.5519 0 0.41381 0.12922 0.54303 0.54303 0.54303 1.0345 0 2.0691 0.0259 3.1036 0.0259 0.69832 0 1.4227 1e-4 2.1469-0.0259 0.59486-0.0259 0.7759-0.28471 0.64659-0.85371-0.0517-0.28449-0.15539-0.59444-0.20712-0.87894-0.0259-0.18104 0.0262-0.38805 0.052-0.62083 0.18104 0.0776 0.25843 0.0776 0.31016 0.12932 0.85349 0.54313 1.707 1.1118 2.5863 1.6291 0.15519 0.10345 0.43979 0.15539 0.62083 0.0778 0.20691-0.0776 0.36209-0.31047 0.51727-0.49151 0.87936-1.0604 1.7847-2.0949 2.5606-3.2329 0.18105-0.25863 2.5084-3.7503 3.0516-5.2763 0.23274-0.67245 0.28439-1.3189 0.28439-1.3189 0-0.10346 0.0259-0.41351 0-0.72387-0.0776-0.87936-0.56901-1.5264-0.7759-1.8367-0.67246-1.0604-1.4222-2.0691-2.1464-3.1036-0.59485-0.8535-1.1642-1.7328-1.3452-2.7414-0.2845-1.5518 0.15526-2.9485 1.1381-4.1124 0.77587-0.93109 1.6813-1.7843 2.5348-2.6636 0.2069-0.23278 0.23277-0.49131 0-0.67235-1.5001-1.1897-3.0003-2.4054-4.5004-3.5951-0.2457-0.19398-0.39442-0.27824-0.53344-0.25561zm-63.349 0.46221s0.12922 0 0.2844 0.28491c0.25863 0.54313 0.15528 8.1468 0.10356 11.69v9.3366c0 0.85349 0.0256 1.7328-0.0778 2.5864-0.10346 1.0087-0.23267 2.0431-0.93098 2.8708-0.75005 0.90522-1.7328 1.3193-2.8708 1.3452-1.2673 0.0259-1.2413-0.0779-2.3793-0.052-0.10346 0-0.3622 1e-4 -0.49151-0.15508-0.0776-0.0776-0.15526-0.23246-0.10353-0.33591 0.0776-0.23278 0.56897-0.18136 1.6811-0.18136 1.1897 0.0259 1.5516-0.0518 1.9913-0.10356 1.0087-0.10345 1.6296-0.72397 2.0176-1.6033 0.38795-0.82763 0.46572-1.7328 0.46572-2.6121 0.0259-3.4398 0.0516-6.8798 0.0259-10.32 0-3.9312-0.0777-7.8367-0.10355-11.742 0-0.25864 2.3e-4 -0.51738 0.0778-0.75015 0.0259-0.10345 0.20671-0.25863 0.31016-0.25863zm6.673 0.0778c-0.43968 0-0.56939 0.15508-0.54352 0.54303 0.12931 1.5777 0.28449 3.1298 0.38795 4.7075 0.0517 0.80177 0.0519 1.629 0.0778 2.4308 0.0776 1.5777 0.18112 3.1813 0.23284 4.759 0.10346 3.983 0.20702 7.94 0.23288 11.923 0.0259 1.0863 0.54295 1.7332 1.3447 2.2504 0.72415 0.46555 1.4999 0.8536 2.2499 1.2674 1.0863 0.59486 2.1987 1.1894 3.285 1.7584 0.33623 0.18104 0.724 0.2847 1.0861 0.0778 0.69829-0.41381 1.3965-0.90553 2.0948-1.3452 0.12932-0.10345 0.25863-0.15476 0.38795-0.23236 0.0776 0.0517 0.15539 0.12932 0.20711 0.25864 0.0259 0.10345 0 0.15507 0 0.28439 0 0-0.0259 0.18084 0 0.43948 0.0259 0.25863 0.0259 0.46585 0.15508 0.5693 0.10345 0.0776 0.25853 0.10325 0.54303 0.0515 1.6811-0.25863 3.3623-0.51716 5.1727-0.80166 0.0259-0.33623 0.052-0.82774 0.052-1.526 0.0776-2.3794 1.1e-4 -4.138-0.0259-4.707-0.10345-2.4312-0.052-5.5093 0.0773-7.5267 0.2845-4.7589 0.41392-9.5433 0.62083-14.302 0.0259-0.51726-0.12932-0.69862-0.64659-0.69862-1.7846 0-3.5432-0.0259-5.3278-0.0259-0.51727-0.0259-0.62083 0.10345-0.62083 0.64658 0.0517 2.2243 0.15508 4.4226 0.15508 6.621 0 3.6468-0.0775 7.2937-0.15508 10.94-0.0259 1.1121-0.10327 2.2501-0.18086 3.3622-0.0259 0.62073-0.23316 0.82774-0.80216 0.75015-1.1639-0.18105-2.3794-0.12942-3.4916-0.62083-0.33623-0.15518-0.54314-0.36209-0.51727-0.7759 0.0517-0.93109 0.10345-1.8881 0.12931-2.8192 0.0517-1.2932 0.10356-2.5606 0.10356-3.8538 0-4.552 0.1296-9.1036-0.20662-13.656-0.0259-0.46554-0.18133-0.62082-0.6986-0.62082-1.0087-0.0259-2.0172-0.0256-3.0258-0.0515-0.77591 0-1.5776-0.0519-2.3535-0.0778zm68.056 0.0228c-0.11962 3e-3 -0.22947 0.0934-0.39758 0.28742-0.7759 0.87936-1.5518 1.7591-2.3277 2.6126-1.0087 1.0863-1.9914 2.198-2.6121 3.5946-0.90522 2.0432-0.98282 4.0351 0.12931 5.9749 0.82764 1.4742 1.7586 2.8964 2.6121 4.3448 0.54314 0.93108 0.93102 1.9142 0.93102 3.0263-0.0259 0.56899-0.10356 1.1117-0.36219 1.6548-0.31036 0.64659-0.64631 1.2416-1.1119 1.7589-1.0863 1.1639-2.3538 2.0952-3.6987 2.9228-0.12932 0.0517-0.207 0.18063-0.3622 0.36167 1.888 1.3449 3.7242 2.6382 5.5864 3.9831 0.18106-0.12931 0.33633-0.20659 0.49152-0.33591 0.51725-0.54313 1.0347-1.0864 1.5002-1.6554 1.3708-1.6811 1.5774-1.7587 2.793-3.6209 0.0776-0.12932 1.0864-1.7069 1.7847-3.5173 0.12933-0.33623 0.28467-0.82794 0.33641-1.4745 0.0258-0.41382 0-0.98271-0.20708-1.7069-0.18106-0.67245-0.46557-1.2157-1.5518-2.8192-1.2415-1.8363-1.5516-2.1985-1.9913-3.2072-0.75004-1.6811-0.36238-3.2068 0.59458-4.6034 0.77592-1.1639 1.7849-2.1466 2.897-3.0001 0.25864-0.20691 0.25864-0.51758 0-0.69863-0.0776-0.0517-0.18095-0.10324-0.28438-0.18083-1.4225-1.1639-2.8713-2.302-4.2938-3.4658-0.2069-0.15518-0.33602-0.23913-0.45563-0.2359zm22.98 0.18438c-0.16488-6e-3 -0.33281 0.0516-0.48798 0.15508-0.569 0.36209-1.138 0.74994-1.6811 1.1896-1.5518 1.2414-2.7932 2.7416-3.776 4.5004-0.85349 1.5777-1.4744 3.207-1.8882 4.9398-0.38796 1.6811-0.62093 3.362-0.59507 5.0949 0 0.41382-0.0516 0.82794-0.0259 1.2159 0.25864 1.8622 0.67244 3.6986 1.5518 5.4056 0.8535 1.7329 1.94 3.2844 3.3108 4.6034 0.85346 0.82763 1.8361 1.5776 2.7672 2.3535 0.569 0.46555 0.72418 0.49141 1.2932 0 0.82763-0.67245 1.6296-1.3449 2.4055-2.0691 0.59485-0.54313 1.1638-1.1378 1.7069-1.7326 0.28449-0.33622 0.20671-0.56878-0.20712-0.6981-0.0517-0.0259-0.12912-0.0262-0.18084-0.052-1.9915-0.93109-3.6984-2.1984-4.9398-4.0088-0.98284-1.4225-1.5778-3.026-1.7847-4.7847-0.23276-2.2501 0.0519-4.3708 1.1123-6.3623 0.569-1.0604 1.2671-1.9915 2.1206-2.845 0.90521-0.90522 1.9139-1.6554 2.9743-2.302 0.38797-0.23277 0.46544-0.5691 0.15508-0.87947-1.1121-1.1638-2.2243-2.3277-3.3622-3.4916-0.14227-0.15518-0.30391-0.22589-0.46877-0.23236zm-14.344 0.0153c-1.0179-8e-3 -1.8691 0.0332-2.1019 0.13993v0.41371c0.10346 0.98281 0.23316 1.9915 0.2849 2.9743 0.12933 2.0691 0.23276 4.1124 0.25862 6.1815 0.0517 3.9054 0.10307 7.8106-0.15555 11.69-0.0776 1.138-0.0514 2.2763-0.10307 3.4143-0.0517 1.2932-0.15539 2.5601-0.20708 3.8532-0.0259 0.38795 0.12938 0.49151 0.49147 0.49151h5.638c-0.18105-9.673-0.3617-19.242 0.28488-28.786-0.53344-0.21014-2.6937-0.35966-4.3902-0.3728zm-62.817 2.01c0.0283 0 0.0591 5e-3 0.0914 0.0176 0.18105 0.0517 0.23277 0.31055 0.25864 0.46573 0.0517 0.33622-0.0263 0.62082-0.0263 0.62082-0.0259 1.7846-0.0773 3.5948-0.0773 5.3793 0 3.4657-0.0259 11.122 0.0259 13.785 0.0259 0.95695 0.0259 1.4482 0.0259 1.474 0 0 0.0516 0.59525 0.0259 1.7074 0 0.0776 0 0.23277-0.10304 0.38795-0.0776 0.12932-0.15529 0.20691-0.23288 0.25863-0.0776-0.0517-0.18104-0.10366-0.25863-0.20711-0.15518-0.20691-0.12942-0.49159-0.10356-0.72436 0.0259-0.2845 0.0517-0.69813 0-1.2154-0.2845 0.12931-0.49141 0.18096-0.64659 0.28442-0.75004 0.54313-1.474 1.1123-2.2499 1.6296-0.51727 0.33623-1.0865 0.59458-1.6296 0.85321-0.41382 0.20691-0.80188-0.0776-1.1381-0.25863-1.2414-0.69832-2.4568-1.448-3.6724-2.1722-0.38795-0.23277-0.72439-0.49161-1.1123-0.72439-0.2845-0.18104-0.38795-0.41392-0.38795-0.75012 0.0259-2.5088 0.052-5.0432 0.052-7.552-0.0259-3.4657-0.0519-6.9575-0.0778-10.423-0.0259-0.51727-0.12911-1.0345-0.18084-1.5518-0.0259-0.15518-0.0521-0.31008-0.0263-0.46526 0.0259-0.12932 0.15528-0.33643 0.23287-0.33643 0.12932 0 0.33633 0.12942 0.36219 0.23287 0.10346 0.43968 0.18125 0.87926 0.20712 1.3189 0.23277 3.8537 0.2069 7.7071 0.12931 11.561-0.0517 2.3019-0.0518 4.5782-0.10355 6.8801 0 0.49141 0.36198 0.67207 0.67234 0.87897 1.1121 0.69832 2.2243 1.3966 3.3623 2.0691 0.33622 0.18105 0.69821 0.33633 1.0603 0.49151 0.41382 0.15519 0.77622-0.026 1.0866-0.23287 0.80177-0.51727 1.5518-1.0344 2.3277-1.5776 0.51727-0.36209 1.0085-0.72428 1.6033-1.1381 0-0.62072-1e-4 -1.2156 0.0259-1.8104 0-5.7934 0.0259-11.561 0.0259-17.354 0-0.46555 0.0777-0.90494 0.10356-1.3705 0-0.0776 0.0262-0.2845 0.18135-0.38796 0.0194 0 0.0823-0.0439 0.16721-0.0439zm27.791 0.0955c0.98282 0 1.9915 2.3e-4 2.9743 0.0778 0.75004 0.0517 0.82735 0.2067 0.98253 0.95674 0.18105 1.0087 0.43968 2.0171 0.64659 3.0258 0.18105 0.80177 0.31057 1.6294 0.46575 2.457 0.18105 0.95695 0.36209 1.9401 0.51727 2.897 0.15518 0.93108 0.31054 1.8881 0.46573 2.8192 0.25863 1.526 0.51688 3.0517 0.74965 4.5776 0.20691 1.319 0.36237 2.612 0.56928 3.931 0.20691 1.4225 0.43968 2.8192 0.64659 4.2417 0.0517 0.2845 0.0256 0.54344-0.31065 0.56931-0.31036 0.0259-0.38785-0.20712-0.41371-0.46575-0.12932-1.0087-0.28432-1.9914-0.4395-3.0001-0.0776-0.64659-0.18094-1.2674-0.28439-1.914-0.10346-0.67245-0.2073-1.3451-0.28489-2.0176 0-0.0776-0.0259-0.25864-0.15508-0.38795-0.12932-0.12932-0.31036-0.12932-0.38795-0.12932-0.33623 0-2.095-0.0514-4.5004-0.0773-1.4742 0-2.9482 0.0259-4.4483 0-0.18105 0-0.33604 0.0259-0.4395 0.12932-0.0776 0.0776-0.15546 0.18073-0.18133 0.33591-0.0517 0.18105-1.526 6.5177-1.8104 6.8281-0.10346 0.10346-0.18087 0.10356-0.18087 0.10356-0.0517 0-0.1296-0.0261-0.18133-0.0778-0.0776-0.0776-0.12903-0.23266-0.0773-0.41371 0.569-2.3536 1.138-4.6811 1.6811-7.0347 0.23277-0.98281 0.38805-1.9657 0.62082-2.9485 0.20691-0.87936 0.43968-1.7329 0.64659-2.5864 0.20691-0.93109 0.36188-1.8624 0.56882-2.7935 0.36209-1.6553 0.72397-3.3361 1.0861-4.9914 0.25863-1.1639 0.51737-2.3277 0.75014-3.4916 0.0776-0.38796 0.31055-0.62083 0.72436-0.62083zm-19.475 0.12931c1.3708-0.0259 2.7417 0.0519 4.0866 0.33644 1.1121 0.23277 2.1467 0.67235 3.1036 1.3189 1.6811 1.138 2.5863 2.7416 2.7414 4.759 0.10346 1.2673 0.0777 2.5346-0.28442 3.7502-0.25863 0.90522-0.69842 1.707-1.2674 2.457-0.62075 0.80177-1.3448 1.526-2.2242 2.0691-0.25864 0.12932-0.31047 0.33592-0.23285 0.59455 0.10345 0.33623 0.23285 0.6469 0.36216 0.95726 0.62073 1.6035 1.2156 3.2071 1.8104 4.7848l1.1639 2.948c0.0259 0.0259 0.0777 0.12931 0.10356 0.25863 0.0259 0.10346 0 0.15549 0 0.18136-0.0259 0.0259-0.0517 0.12911-0.12932 0.18083-0.10346 0.0776-0.23316 0.052-0.28489 0.052-0.0259 0-0.0776-0.0262-0.12932-0.052 0 0-0.0776-0.0517-0.12931-0.12931-0.0776-0.12932-0.36209-0.93109-0.38796-1.0345 0-0.0259-0.0253-0.12911-0.10306-0.31016-0.15518-0.41381-0.28468-0.72438-0.33641-0.8537-0.20691-0.54313-0.20691-0.64648-0.51727-1.4482-0.12932-0.36209-0.20691-0.59476-0.38795-1.0603-0.49141-1.319-0.98264-2.6125-1.474-3.9316-0.15518-0.43967-0.36209-0.56858-0.77591-0.36167-1.319 0.69831-2.7419 1.0343-4.1644 1.3447-0.2845 0.0517-0.33594 0.25864-0.33594 0.51728v3.931c0 1.0087 1e-4 2.0177-0.0259 3.0263 0 0.25863-0.026 0.51727-0.33641 0.51727-0.31036-0.0259-0.31018-0.31026-0.31018-0.54303v-11.768h0.0516c-0.0259-3.8537-0.0777-7.7074-0.23288-11.483 0-0.18105-1e-4 -0.33623 0.0259-0.51727 0.0517-0.36209 0.31047-0.49152 0.62083-0.49152zm35.362 0.32027c0.097-0.0228 0.20062 3e-3 0.3041 0.0934 0.23277 0.18104 0.10353 0.3624-0.0259 0.5693-0.67246 0.95695-1.3967 1.8879-2.0433 2.8708-0.95694 1.4225-1.0602 3-0.43949 4.5776 0.33622 0.90523 0.82763 1.7849 1.2932 2.6384 1.1897 2.1725 1.6549 2.612 2.0428 3.8017 0.23277 0.77591 0.33633 1.4223 0.36219 1.862 0 0.25863-0.0259 0.64679-0.12932 1.1123-0.10345 0.62073-0.31015 1.0863-0.43947 1.4225-0.69831 1.6811-1.914 2.9741-3.0779 4.319-0.18104 0.18104-0.38816 0.25884-0.59507 0.0778-0.2069-0.18104-0.10314-0.38785 0.052-0.54303 0.28448-0.33622 0.59494-0.6469 0.87944-0.95726 0.85349-0.95695 1.6035-1.9653 2.0691-3.1809 0.41381-1.0863 0.59457-2.1726 0.33594-3.3365-0.23277-0.98282-0.72407-1.8107-1.1896-2.6642-0.72418-1.3449-1.526-2.6638-2.1726-4.0346-0.33622-0.69831-0.49112-1.526-0.59457-2.302-0.10346-1.0345 0.31018-2.0172 0.82745-2.8965 0.64659-1.1121 1.3189-2.2245 2.2242-3.1814 0.0259 0 0.0262-0.0256 0.052-0.0515 0.0776-0.10345 0.16773-0.17437 0.26471-0.197zm20.323 0.11921c0.12932 0 0.207 0.10345 0.23288 0.12932 0.0776 0.0776 0.0772 0.15528 0.10306 0.23287 0.0259 0.15518 0.0262 0.28481 0.0262 0.31067-0.0259 0.25864 0.0259 0.51727 0 0.77591-0.0259 0.72418 0.10348 18.311 0.12932 20.742 0 0.59486 0.0259 1.2155 0 1.8362 0 0.25863-0.026 0.56931-0.36218 0.56931-0.3621 0-0.41371-0.28481-0.41371-0.56931 0-2.7415-0.0262-5.457-0.0262-8.1985v-3.6209h-0.0773v-11.664c0-0.0259-8e-5 -0.10366 0.0258-0.20711 0-0.0517 0.026-0.12953 0.10357-0.20711 0.0259-0.0517 0.1293-0.12932 0.25862-0.12932zm-35.744 0.12932c-0.33623 0-0.51699 0.15538-0.59458 0.46575-0.18104 0.80176-0.36198 1.5775-0.54303 2.3792l-0.7759 3.7244c-0.38795 1.7846-0.77591 3.5951-1.1639 5.4056-0.18104 0.87935-0.38813 1.7585-0.59504 2.6379-0.10345 0.46554-0.18086 0.93119-0.31018 1.526 3.2329 0 6.3621 1e-4 9.5175-0.0259 0.0259-0.12931 0.0516-0.25863 0.0259-0.38795-0.12932-0.69832-0.23239-1.4223-0.3617-2.1206l-0.62083-3.7244c-0.15518-0.87936-0.28478-1.7848-0.43996-2.6642-0.20691-1.138-0.41382-2.25-0.64659-3.388l-0.69814-3.3365c-0.0776-0.25863-0.20701-0.41371-0.49148-0.41371-0.77591-0.0259-1.526-0.0519-2.302-0.0778zm-18.67 0.0808c-0.39118 3e-3 -0.74014 0.0228-1.0376 0.0485 0 5.0951 7e-5 10.138-0.0259 15.259 0.25864 0 0.43976 0.0259 0.6208 0 2.0174-0.31036 3.8792-1.0601 5.5086-2.2757 1.2414-0.90522 2.1207-2.0952 2.6121-3.5436 0.56899-1.6553 0.64659-3.336 0.12931-5.0171-0.18104-0.64659-0.4914-1.3195-0.90522-1.8367-1.0087-1.2414-2.3016-1.7587-3.1551-2.0691-1.0345-0.36209-1.8622-0.46554-2.457-0.51727-0.46555-0.0388-0.89897-0.0517-1.2902-0.0485zm68.102 0.016c0.0259-6e-3 0.0582-6e-3 0.097 6e-3 0.0776 0.0259 0.12931 0.10345 0.12931 0.12931 0.0517 0.12932 0 0.2845-0.0515 0.38795l-0.0516 0.10356c-0.23277 0.2845-0.51726 0.51727-0.77589 0.77591-0.54315 0.56899-1.1124 1.0863-1.6038 1.6811-0.82763 1.0087-1.5001 2.0691-2.0691 3.2329-1.1639 2.4312-1.5 4.9917-1.1896 7.6297 0.10348 1.0087 0.43958 2.0174 0.80168 2.9485 0.59486 1.4742 1.4484 2.793 2.5606 3.9568 0.67243 0.67245 1.3708 1.3194 2.0433 1.9918 0.15519 0.18104 0.38789 0.33591 0.1551 0.59455-0.23276 0.25863-0.43978 0.078-0.62081-0.10304-0.51728-0.46555-1.0604-0.90523-1.5518-1.4225-0.9828-1.0604-1.9138-2.1726-2.6121-3.4658-0.569-1.0604-0.98292-2.1726-1.2674-3.3365-0.4138-1.6553-0.46545-3.3365-0.15508-5.0176 0.12932-0.64659 0.28458-1.6808 0.75014-2.9223 0.54311-1.4742 1.2154-2.483 1.6034-3.0779 0.2845-0.43968 0.54332-0.80188 1.1123-1.526 0.0776-0.10346 0.54305-0.69832 1.1896-1.4225 0.0776-0.0776 0.25871-0.25884 0.6208-0.59507 0 0 0.31019-0.28449 0.82745-0.51727 0.0129-0.0129 0.0322-0.0259 0.0581-0.0323zm-22.779 0.22025c0.0324 0 0.0646 6e-3 0.0904 0.0191 0.0259 0 0.0259 0.026 0.12932 0.10355 0.0517 0.0517 0.12922 0.12911 0.15507 0.18084v0.1037c-0.0258 0.0517-0.0515 0.12932-0.0515 0.12932-0.0259 0.0776-0.0776 0.10325-0.12931 0.18084-0.80178 1.1638-1.6294 2.276-2.3277 3.4916-0.80177 1.4225-0.64638 2.9228 0.0778 4.3453 0.77591 1.5001 1.6035 2.9742 2.457 4.4226 0.59485 1.0087 1.0086 2.1211 1.0346 3.285 0.0258 0.72418-0.1553 1.5-0.36222 2.2242-0.41381 1.4483-1.3193 2.586-2.2504 3.6982-0.28448 0.33622-0.56871 0.67265-0.85322 0.98302-0.10344 0.10345-0.20708 0.23277-0.33641 0.25863-0.1293 0.0259-0.36189-1e-4 -0.43947-0.10355-0.0517-0.0776 0-0.33602 0.0773-0.43948 0.72418-0.90522 1.5002-1.7331 2.1726-2.6642 0.38796-0.51727 0.6466-1.1378 0.90523-1.7326 0.15518-0.36209 0.23305-0.77591 0.31064-1.1639 0.20693-1.2156-0.0259-2.3796-0.62083-3.44-0.69829-1.2156-1.4482-2.4052-2.0948-3.6467-0.62072-1.1638-0.93128-1.7588-1.1123-2.5606-0.12933-0.4914-0.36212-1.6295 0-2.9485 0.28447-1.0604 0.85367-1.8622 0.98298-2.0691 0.15518-0.23277 0.43958-0.62062 0.67236-0.93098 0.25862-0.33623 0.43966-0.59466 0.64658-0.82743s0.33611-0.38816 0.41373-0.46575c0.0259 0 0.0775-0.0775 0.15507-0.15507 0.0259-0.0517 0.0519-0.0777 0.0778-0.10356 0 0 0.0256-0.0518 0.0773-0.10356l0.052-0.0515c0.0258-0.0129 0.0581-0.0191 0.0904-0.0191zm-44.033 2.0883c0.46554 0.15518 1.3707 0.46544 2.2242 1.3189 0.20691 0.20691 0.9053 0.90523 1.2674 2.0691 0.38795 1.2414 0.28467 2.5608-0.18087 3.9316-0.31036 0.93108-1.0863 1.5257-1.9398 1.9913-0.33623 0.18104-0.6987 0.33602-1.1901 0.56879-0.10346-0.20691-0.2844-0.4134-0.2844-0.62031 0-1.7329-1e-4 -3.4919 0.0259-5.2247 0-1.0087-0.0514-1.7846 0.052-3.4916 0-0.23277 0.0259-0.41371 0.0259-0.54303zm18.312 2.4055h0.18087c0.10345 0.36209 0.23267 0.69801 0.28439 1.1118 0.49141 2.4053 0.98271 4.8365 1.4483 7.2418 0.0776 0.41382-0.0776 0.56931-0.51727 0.56931h-2.9481c-0.59486 0-0.72435-0.18115-0.59504-0.75014l1.3189-5.4313c0.18104-0.77591 0.41392-1.526 0.62083-2.302 0.0517-0.15518 0.12949-0.28429 0.20708-0.43947z"/>
</svg>
