<?xml version="1.0" encoding="UTF-8"?>
<svg width="800" height="261.14" version="1.1" xmlns="http://www.w3.org/2000/svg">
	<defs>
		<linearGradient id="A" x1="414.37" x2="1244.6" y1="289.84" y2="289.84" gradientTransform="matrix(.65067 0 0 .65067 -9.826 -107.29)" gradientUnits="userSpaceOnUse">
			<stop stop-color="#ff0031" offset="0"/>
			<stop stop-color="#9b001f" offset="1"/>
		</linearGradient>
		<linearGradient id="B" x1="197.48" x2="194.59" y1="295.14" y2="212.24" gradientTransform="matrix(.65067 0 0 .65067 -9.826 -107.29)" gradientUnits="userSpaceOnUse">
			<stop stop-color="#fff" offset="0"/>
			<stop stop-color="#fff" stop-opacity=".25" offset=".515"/>
		</linearGradient>
		<linearGradient id="C" x1="830.55" x2="826.25" y1="276.73" y2="153.47" gradientTransform="matrix(.65067 0 0 .65067 -9.826 -107.29)" gradientUnits="userSpaceOnUse">
			<stop stop-color="#fff" offset="0"/>
			<stop stop-color="#fff" stop-opacity=".25" offset=".515"/>
		</linearGradient>
	</defs>
	<path d="m591.45 180.93c-1.013 0-2.9621 0.85905-5.8477 2.5781-3.2846 1.934-4.9258 3.6378-4.9258 5.1113 0 0.79814 2.8993 5.0345 8.7012 12.709 1.5963 1.6577 2.7937 2.9159 3.5918 3.7754 0.12279 0.15349 0.6597 0.67617 1.6113 1.5664 0.70604 0.67533 1.0605 1.198 1.0605 1.5664 0 0.73674-1.6573 1.9179-4.9726 3.5449-1.013 0.49116-2.0888 1.182-3.2246 2.0723-2.4558 1.9032-4.2509 3.591-5.3867 5.0644-2.5172 3.1619-3.9455 5.4654-4.2832 6.9082-0.36838 0.76744-0.70475 1.3348-1.0117 1.7031-0.39907 1.6577-0.59961 3.4081-0.59961 5.25 0 0.30698 0.077 1.0586 0.23047 2.2559 0.15349 1.2893 0.27704 2.1018 0.36914 2.4394 0.58326 1.934 1.9326 3.8992 4.0508 5.8945 2.1488 1.9953 4.191 3.2697 6.125 3.8223 0.95163 0.39906 1.6425 0.73544 2.0723 1.0117 2.64 0.39907 4.4817 0.59961 5.5254 0.59961 3.2846 0 6.2629-0.66047 8.9336-1.9805 0.73675-0.27629 1.3041-0.44447 1.7031-0.50586 3.8065-1.8726 6.7524-3.6838 8.8398-5.4336 5.1265-4.3898 7.6914-8.8713 7.6914-13.445 0-2.1181-0.21475-3.7308-0.64453-4.8359-1.1972-3.0391-3.209-6.0154-6.0332-8.9316l-11.143-10.867c-1.9032-1.8112-3.3316-3.1463-4.2832-4.0058-1.1972-1.2279-2.8707-3.2235-5.0195-5.9863-2.9163-3.7758-4.373-6.2637-4.373-7.4609 0-0.49116 0.077-0.84371 0.23047-1.0586 0.27628-0.39907 0.84359-0.859 1.7031-1.3809 0.70603-0.46047 1.0586-0.82919 1.0586-1.1055 0-0.18419-0.0304-0.32198-0.0918-0.41407-0.0614-0.12279-0.0918-0.19977-0.0918-0.23046-0.21487 0-0.49043-0.0304-0.8281-0.0918-0.33768-0.0921-0.58479-0.13867-0.73828-0.13867zm-407.21 14.789c-1.09 0-2.9915 3.9735-5.7031 11.92-1.6748 5.1291-3.3505 10.26-5.0254 15.389-0.34561 1.0836-0.68956 2.1664-1.0352 3.25-0.5317 1.4448-1.064 2.3292-1.5957 2.6543-1.09-1.2281-3.4037-4.3152-6.9394-9.2637-4.3067-5.9959-6.459-9.5004-6.459-10.512 0-0.28896 0.42467-1.4089 1.2754-3.3594 0.8773-1.9505 1.3164-3.0704 1.3164-3.3594 0-0.79465-0.69181-1.6605-2.0742-2.5996-1.2761-0.83077-2.3118-1.2461-3.1094-1.2461-2.7648 0-7.299 8.7219-13.6 26.168-2.8712 7.6213-10.96 25.469-12.236 28.684-0.26585 0.65016-0.63867 0.97461-1.1172 0.97461-0.15951 0-0.55923 0.0186-1.1972 0.0547-0.5317 0.0361-0.9439 0.0547-1.2363 0.0547h-0.19922l-0.11914-0.0547c-0.13293 0-0.4644 0.14463-0.9961 0.43359 1.5685 1.4087 2.8032 2.5638 3.707 3.4668 0.66463 0.72239 1.344 1.427 2.0352 2.1133 0.47853 0.43344 1.1559 0.65039 2.0332 0.65039 1.4888 0 2.4333-0.28927 2.832-0.86719 1.8344-2.4923 3.4023-6.1317 5.4219-10.619 4.2707-9.5057 8.6873-18.984 12-28.574 1.2495-3.2508 2.1796-4.877 2.791-4.877 0.50509 0 2.91 3.1966 7.2168 9.5898 4.4662 6.61 6.6992 10.71 6.6992 12.299 0 0.36121-0.30457 1.2476-0.91601 2.6562-0.61146 1.3726-0.91797 2.2032-0.91797 2.4922 0 1.0114 0.54477 2.0218 1.6348 3.0332 1.0102 0.903 1.9422 1.3555 2.793 1.3555 1.0102 0 1.6607-0.38015 1.9531-1.1387 2.3926-6.2488 4.2134-11.559 5.4629-15.93 2.818-9.7885 4.6657-14.682 5.543-14.682 0.53169 0 2.0998 2.1118 4.7051 6.3379 2.2331 3.612 3.5898 5.9428 4.0684 6.9902 1.8875 4.0816 3.3624 7.241 4.4258 9.4805 0.47852 1.2642 0.90515 2.7829 1.2773 4.5527 0.0797 0.39732 0.0797 1.011 0 1.8418-0.10638 1.0836-0.16016 1.6602-0.16016 1.7324 0.74438 0.50568 1.834 0.99333 3.2695 1.4629 1.5951 0.50568 3.0181 0.75976 4.2676 0.75976 1.0368 0 1.9794-0.25408 2.8301-0.75976v-1.2461l-22.57-37.004c0.21267-0.57792 0.90449-2.0057 2.0742-4.2812 0.85071-1.7338 1.2754-2.7814 1.2754-3.1426 0-1.0114-0.79749-2.402-2.3926-4.1719-1.5951-1.806-2.6971-2.709-3.3086-2.709zm221.75 6.7734v0.89843c0.92093 0.59901 2.2399 0.93751 3.959 1.0156 1.8726 0.0781 3.1469 0.27341 3.8223 0.58594 0.89024 0.4167 1.3522 0.99147 1.3828 1.7207 0.0614 0.91151 0.0756 2.2004 0.0449 3.8672-0.0307 1.1459-0.0611 2.4868-0.0918 4.0234-0.0614 1.4064-0.0918 2.0963-0.0918 2.0703v5.1953c0 0.10418 0.0304 0.41663 0.0918 0.9375 0.0614 0.4167 0.0775 0.74216 0.0469 0.97656 0 0.10417-0.0627 0.37756-0.18555 0.82032-0.12276 0.44274-0.18359 0.74217-0.18359 0.89843v18.518c0 1.0157 0.21476 1.94 0.64453 2.7734 0.55256 1.0938 1.3508 1.6406 2.3945 1.6406h19.998c0.95162 0 2.9615-0.31244 6.0312-0.9375 3.8679-0.75527 5.8027-1.5234 5.8027-2.3047v-0.66407c-0.67535-0.26043-1.1515-0.39062-1.4277-0.39062-0.15349 0-0.95173 0.15622-2.3945 0.46875-1.5656 0.31252-2.686 0.50781-3.3613 0.58594-1.4735 0.15626-3.3456 0.23437-5.6172 0.23437-3.5302 0-3.376-0.15623-6.6914-0.46875-0.70606-0.026-1.3969-0.0521-2.0723-0.0781-1.013-0.0781-1.6877-0.27342-2.0254-0.58594-0.42977-0.39067-0.64451-0.72913-0.64451-1.0156l-0.46094-38.051c-0.24558-1.8231-1.1654-2.7344-2.7617-2.7344zm-174.48 2.3359c-0.92093 0-4.0369 0.21477-9.3476 0.64454-0.33766 0.0307-0.7814 0.13808-1.334 0.32226-0.79814 0.24558-1.1973 0.52115-1.1973 0.82813 0 0.42976 0.82866 0.73766 2.4863 0.92185 2.2102 0.24558 3.5454 0.44417 4.0059 0.59766 1.0744 0.39907 1.6113 1.8578 1.6113 4.375 0 1.1972 0.0608 2.3338 0.18359 3.4082l-0.0918 5.1562v3.3613c0 0.0614-0.0446 0.64488-0.13672 1.75-0.12279 1.1972-0.18555 2.0724-0.18555 2.625-0.0307 0.42974-0.0307 1.0436 0 1.8418 0.0614 0.92092 0.0918 1.3362 0.0918 1.2441v2.7617c0 0.0921-0.0446 0.46081-0.13672 1.1055-0.0614 0.64463-0.0918 1.0134-0.0918 1.1055v8.6562c0 0.39907 0.15201 1.1669 0.45899 2.3027 0.0921 0.33767 0.46081 0.61324 1.1055 0.82812 0.55254 0.21488 1.0591 0.32227 1.5195 0.32227 0.12279 0 0.79748-0.0608 2.0254-0.1836 1.3507-0.12279 2.0881-0.18359 2.2109-0.18359 2.026-0.15349 3.5456-0.30745 4.5586-0.46094 0.30698-0.0307 0.69188-0.15425 1.1523-0.36914 0.61396-0.30698 0.91992-0.62912 0.91992-0.96679 0-0.33769-0.12356-0.53627-0.36914-0.59766-1.4121-0.15349-2.4697-0.23047-3.1758-0.23047-0.39907-0.0307-0.75356-0.59801-1.0606-1.7031-0.24558-0.85952-0.36716-1.5362-0.36716-2.0273v-2.8086c0-0.0921-0.077-0.38384-0.23047-0.875-0.15349-0.49117-0.23047-0.76673-0.23047-0.82813v-10.453c0-0.0614 0.0162-0.36737 0.0469-0.91992 0.0614-0.58326 0.0918-0.99856 0.0918-1.2441 0-0.64465 0.0142-1.7042 0.0449-3.1777 0.0307-1.5042 0.0469-2.2254 0.0469-2.164v-12.846c0-0.61396-0.63007-1.1528-1.8887-1.6133-1.013-0.33767-1.9187-0.50586-2.7168-0.50586zm287.03 0.13868c-2.2716 0-3.5926 0.44375-3.9609 1.334 0.33768 0.39907 0.93734 0.72317 1.7969 0.96875 1.013 0.30696 1.6715 0.56635 1.9785 0.78123 0.64465 0.46047 1.0134 1.1979 1.1055 2.2109l-0.13867 39.037c-0.0307 0.21488-0.1219 1.3514-0.27539 3.4082-0.12279 1.5349-0.35374 2.9451-0.69141 4.2344-0.0614 0.18418-0.30656 0.59948-0.73632 1.2441-0.39908 0.61395-0.59766 1.0435-0.59766 1.2891 0.64466 0.52186 2.148 0.7832 4.5117 0.7832 4.3591 0 6.539-0.73744 6.539-2.2109v-5.2031c0-0.12279-0.0608-0.36796-0.18359-0.73633-0.0921-0.39907-0.13868-0.66041-0.13868-0.7832v-25.914c0-1.5042 0.91986-3.4675 2.7617-5.8926 1.8726-2.4251 4.0383-4.5139 6.4941-6.2637 2.7321-1.9647 5.1876-2.9919 7.3672-3.084 1.6884-0.0614 3.1147 0.81383 4.2812 2.625 0.98231 1.5349 1.4584 3.0686 1.4277 4.6035-0.0307 1.8726-1.4428 4.0221-4.2363 6.4472-1.3507 1.1665-3.944 3.0548-7.7812 5.6641-2.7935 1.8726-4.1914 3.0842-4.1914 3.6367 0 0.39908 1.244 1.9044 3.7305 4.5137 2.6707 2.7628 5.2498 5.1556 7.7363 7.1816 3.1005 2.5172 5.2804 3.7773 6.539 3.7773 1.1051 0 2.961-0.44571 5.5703-1.3359 2.6093-0.89023 4.0376-1.5507 4.2832-1.9805-0.61396-0.58326-1.4892-0.88926-2.625-0.91992-1.2279-0.0307-1.9958-0.15425-2.3027-0.36914-1.8725-1.3814-4.5733-3.6992-8.1035-6.9531-3.8679-3.5609-5.8027-5.6335-5.8027-6.2168 0-0.24558 1.1974-1.2424 3.5918-2.9922 2.9163-2.1181 5.1267-4.0206 6.6308-5.709 2.3637-2.6707 3.5449-5.2802 3.5449-7.8281 0-2.2102-0.59769-4.1916-1.7949-5.9414-1.4428-2.0568-3.3614-3.084-5.7558-3.084-3.5609 0-7.0457 1.013-10.453 3.039-2.4251 1.4428-4.7429 3.3453-6.9531 5.709-1.934 2.026-2.8396 3.039-2.7168 3.039-0.18418 0-0.53674-0.29174-1.0586-0.875 0.0614-0.67535-0.046-1.8261-0.32227-3.4531-0.24558-1.6577-0.36912-2.5025-0.36912-2.5332l0.13865-0.27539c0.0307-0.0614 2.9e-4 -0.27616-0.0918-0.64453l-0.13867-1.0137-1.5644-2.209c-0.33768-0.30698-1.1521-0.46094-2.4414-0.46094-0.1228 0-0.32138-0.0466-0.59766-0.13867-0.24558-0.12276-0.42994-0.1836-0.55273-0.1836-0.1228 0-0.69011-0.0466-1.7031-0.13867-1.013-0.12276-1.5965-0.18359-1.75-0.18359zm-138.34 0.36718c-2.5172 0-5.0051 0.35451-7.4609 1.0606-2.6707 0.76745-4.251 1.2739-4.7422 1.5195-2.1181 0.95163-4.0976 2.2402-5.9394 3.8672-2.7935 2.4558-4.7891 5.511-5.9863 9.164-0.64465 1.9032-1.0296 3.3296-1.1523 4.2812-0.0921 0.49117-0.13672 1.3664-0.13672 2.625 0 3.653 0.76785 7.0304 2.3027 10.131 1.8726 3.7758 4.6807 6.5373 8.4258 8.2871 3.0698 1.4428 4.804 2.2106 5.2031 2.3027 1.8419 0.39906 3.9591 0.5996 6.3535 0.59961 1.2893 0 2.5636-0.15397 3.8223-0.46094 1.2586-0.30698 2.533-0.72228 3.8223-1.2441 0.49116-0.18419 1.7655-0.73532 3.8223-1.6562 0.73673-0.30698 1.5188-0.81349 2.3476-1.5195 1.013-0.85952 1.5195-1.5666 1.5195-2.1191 0-0.64466-0.29174-0.9668-0.875-0.9668-0.55255 0-1.442 0.26134-2.6699 0.7832-1.4735 0.64466-2.3953 1.0134-2.7637 1.1055-1.1972 0.30698-2.3946 0.6291-3.5918 0.96678-1.5042 0.36837-2.7462 0.55273-3.7285 0.55273-2.7628 0-5.587-0.98259-8.4726-2.9472-3.346-2.2102-5.2039-4.8806-5.5723-8.0117-0.18419-1.3507-0.33814-2.3961-0.46093-3.1328 0-0.30697 0.0466-0.87428 0.13867-1.7031 0.0307-0.49116 0.93632-0.78291 2.7168-0.875 2.4251-0.15349 3.6691-0.23047 3.7305-0.23047l10.59-0.13867c0.73672 0 1.6585 0.3241 2.7637 0.96875 1.1051 0.61393 1.7636 0.9199 1.9785 0.9199 0.46047 0 0.84537-0.0608 1.1524-0.18359 0.49116-0.18419 1.2894-0.6441 2.3945-1.3808 1.2893-0.85954 1.9336-1.6132 1.9336-2.2578 0-0.67535-0.52268-1.1961-1.5664-1.5644-0.73675-0.24558-1.5188-0.36914-2.3476-0.36914h-10.637c-0.12279 0-0.6597-0.0466-1.6113-0.13867-0.92091-0.12279-1.4436-0.18359-1.5664-0.18359h-7.3672c-0.61395 0-1.0131-0.0466-1.1973-0.13868-0.49115-0.27628-0.70592-0.92057-0.64453-1.9336 0-0.33768 0.36873-1.2271 1.1055-2.6699 1.4428-2.8856 3.4526-5.1729 6.0312-6.8613 2.3944-1.5349 4.8053-2.3027 7.2305-2.3027 1.2279 0 2.6704 0.23093 4.3281 0.6914 1.6884 0.46046 2.9 0.95079 3.6367 1.4727 0.58326 0.39907 1.0898 1.1203 1.5195 2.1641 0.33767 0.76743 0.79953 1.1523 1.3828 1.1523 0.76744 0 1.6103-0.41528 2.5312-1.2441 0.95162-0.82884 1.4277-1.6737 1.4277-2.5332 0-2.2102-2.103-3.8371-6.3086-4.8808-2.6093-0.64465-5.0791-0.9668-7.4121-0.9668zm106.39 0c-2.5172 0-5.0032 0.35451-7.459 1.0606-2.6707 0.76745-4.253 1.2739-4.7441 1.5195-2.1181 0.95163-4.0976 2.2402-5.9394 3.8672-2.7935 2.4558-4.7891 5.511-5.9863 9.164-0.64464 1.9032-1.0276 3.3296-1.1504 4.2812-0.0921 0.49117-0.13867 1.3664-0.13867 2.625 0 3.653 0.76783 7.0304 2.3027 10.131 1.8726 3.7758 4.6807 6.5373 8.4258 8.2871 3.0698 1.4428 4.804 2.2106 5.2031 2.3027 1.8419 0.39906 3.961 0.5996 6.3555 0.59961 1.2893 0 2.5636-0.15397 3.8222-0.46094 1.2586-0.30698 2.531-0.72228 3.8203-1.2441 0.49116-0.18419 1.7655-0.73532 3.8223-1.6562 0.73675-0.30698 1.5208-0.81349 2.3496-1.5195 1.013-0.85952 1.5195-1.5666 1.5195-2.1191 0-0.64466-0.29174-0.9668-0.87498-0.9668-0.55255 0-1.444 0.26134-2.6719 0.7832-1.4735 0.64466-2.3934 1.0134-2.7617 1.1055-1.1972 0.30698-2.3946 0.6291-3.5918 0.96678-1.5042 0.36837-2.7481 0.55273-3.7305 0.55273-2.7628 0-5.5871-0.98259-8.4726-2.9472-3.346-2.2102-5.2019-4.8806-5.5703-8.0117-0.18419-1.3507-0.33814-2.3961-0.46093-3.1328 0-0.30697 0.0446-0.87428 0.13672-1.7031 0.0307-0.49116 0.93632-0.78291 2.7168-0.875 2.4251-0.15349 3.6691-0.23047 3.7305-0.23047l10.592-0.13867c0.73674 0 1.6566 0.3241 2.7617 0.96875 1.1051 0.61393 1.7656 0.9199 1.9805 0.9199 0.46046 0 0.84341-0.0608 1.1504-0.18359 0.49116-0.18419 1.2894-0.6441 2.3945-1.3808 1.2893-0.85954 1.9336-1.6132 1.9336-2.2578 0-0.67535-0.52073-1.1961-1.5644-1.5644-0.73675-0.24558-1.5208-0.36914-2.3496-0.36914h-10.637c-0.12279 0-0.6597-0.0466-1.6113-0.13867-0.92093-0.12279-1.4417-0.18359-1.5644-0.18359h-7.3672c-0.61395 0-1.0131-0.0466-1.1973-0.13868-0.49116-0.27628-0.70593-0.92057-0.64454-1.9336 0-0.33768 0.36677-1.2271 1.1035-2.6699 1.4428-2.8856 3.4546-5.1729 6.0332-6.8613 2.3944-1.5349 4.8034-2.3027 7.2285-2.3027 1.2279 0 2.6704 0.23093 4.3281 0.6914 1.6884 0.46046 2.9019 0.95079 3.6387 1.4727 0.58325 0.39907 1.0898 1.1203 1.5195 2.1641 0.33767 0.76743 0.7976 1.1523 1.3809 1.1523 0.76744 0 1.6123-0.41528 2.5332-1.2441 0.95163-0.82884 1.4277-1.6737 1.4277-2.5332 0-2.2102-2.103-3.8371-6.3086-4.8808-2.6093-0.64465-5.081-0.9668-7.414-0.9668zm175.51 0c-2.5172 0-5.0051 0.35451-7.4609 1.0606-2.6707 0.76745-4.251 1.2739-4.7422 1.5195-2.1181 0.95163-4.0976 2.2402-5.9395 3.8672-2.7935 2.4558-4.7891 5.511-5.9863 9.164-0.64466 1.9032-1.0276 3.3296-1.1504 4.2812-0.0921 0.49117-0.13868 1.3664-0.13868 2.625 0 3.653 0.76786 7.0304 2.3027 10.131 1.8726 3.7758 4.6807 6.5373 8.4258 8.2871 3.0698 1.4428 4.804 2.2106 5.2031 2.3027 1.8419 0.39906 3.961 0.5996 6.3554 0.59961 1.2893 0 2.5617-0.15397 3.8203-0.46094 1.2586-0.30698 2.533-0.72228 3.8222-1.2441 0.49117-0.18419 1.7655-0.73532 3.8223-1.6562 0.73674-0.30698 1.5188-0.81349 2.3476-1.5195 1.013-0.85952 1.5195-1.5666 1.5195-2.1191 0-0.64466-0.29175-0.9668-0.875-0.9668-0.55256 0-1.442 0.26134-2.6699 0.7832-1.4735 0.64466-2.3953 1.0134-2.7637 1.1055-1.1972 0.30698-2.3946 0.6291-3.5918 0.96678-1.5042 0.36837-2.7462 0.55273-3.7285 0.55273-2.7628 0-5.5871-0.98259-8.4726-2.9472-3.346-2.2102-5.2039-4.8806-5.5722-8.0117-0.18419-1.3507-0.33815-2.3961-0.46094-3.1328 0-0.30697 0.0466-0.87428 0.13867-1.7031 0.0307-0.49116 0.93633-0.78291 2.7168-0.875 2.4251-0.15349 3.6691-0.23047 3.7305-0.23047l10.59-0.13867c0.73675 0 1.6586 0.3241 2.7637 0.96875 1.1051 0.61393 1.7656 0.9199 1.9805 0.9199 0.46047 0 0.84342-0.0608 1.1504-0.18359 0.49117-0.18419 1.2894-0.6441 2.3945-1.3808 1.2893-0.85954 1.9336-1.6132 1.9336-2.2578 0-0.67535-0.52073-1.1961-1.5644-1.5644-0.73674-0.24558-1.5208-0.36914-2.3496-0.36914h-10.637c-0.1228 0-0.6597-0.0466-1.6113-0.13867-0.92093-0.12279-1.4436-0.18359-1.5664-0.18359h-7.3672c-0.61395 0-1.0131-0.0466-1.1973-0.13868-0.49116-0.27628-0.70593-0.92057-0.64453-1.9336 0-0.33768 0.36872-1.2271 1.1055-2.6699 1.4428-2.8856 3.4526-5.1729 6.0312-6.8613 2.3944-1.5349 4.8053-2.3027 7.2304-2.3027 1.2279 0 2.6705 0.23093 4.3281 0.6914 1.6884 0.46046 2.9019 0.95079 3.6387 1.4727 0.58326 0.39907 1.0898 1.1203 1.5195 2.1641 0.33768 0.76743 0.7976 1.1523 1.3809 1.1523 0.76744 0 1.6103-0.41528 2.5312-1.2441 0.95163-0.82884 1.4277-1.6737 1.4277-2.5332 0-2.2102-2.103-3.8371-6.3086-4.8808-2.6093-0.64465-5.0791-0.9668-7.4121-0.9668zm-319.09 0.0937c-0.79814 0-2.1514 0.10738-4.0547 0.32227l-22.793-0.13867c-2.4757-0.0151-4.0645 0.68932-5.5684 0.66406l-39.533-0.66406c-3.0698 0.36837-5.3875 0.64394-6.9531 0.82812-1.5963 0.27628-3.7459 0.89015-6.4473 1.8418-0.64465 0.21488-1.4267 0.5836-2.3477 1.1055-1.3507 0.76744-2.0254 1.3813-2.0254 1.8418s0.45993 0.68945 1.3809 0.68945c0.33768 0 0.72063-0.0608 1.1504-0.18359 0.42977-0.1228 0.69112-0.19786 0.78321-0.22852 3.8065-0.55256 6.57-0.83008 8.289-0.83008 1.3814 1e-5 2.21 0.0304 2.4863 0.0918 0.98232 0.21489 1.5962 0.78414 1.8418 1.7051 0.12276 0.36837 0.1836 0.76749 0.1836 1.1973 0 0.46046-0.075 1.042-0.22852 1.748-0.12276 0.67535-0.18555 1.0764-0.18554 1.1992v15.518c0 3.653 0.10933 6.7994 0.32421 9.4394 0.33767 2.6093 0.59707 4.5584 0.78125 5.8476 0.0307 0.1228 0.18467 0.29097 0.46094 0.50585 0.30698 0.21489 0.59873 0.32227 0.875 0.32227 0.95164 0 2.2544-0.42953 3.9121-1.2891 1.4735-0.76744 2.7802-1.6123 3.916-2.5332 1.2586-1.013 1.8867-1.6715 1.8867-1.9785 0-0.39907-0.21476-0.70699-0.64453-0.92188-0.49115-0.12279-0.98342-0.26058-1.4746-0.41406-0.73674-0.24558-1.1035-0.5535-1.1035-0.92187v-25.738c0-1.9032 0.15396-3.0094 0.46094-3.3164 0.30697-0.30698 0.60664-0.46284 0.875-0.55274 2.7998-0.93788 5.0749-0.71968 8.1777-0.75586 0.85805-0.0648 0.78551-0.0786 1.1797-0.084 7.1313-0.0967 20.148 0.93164 21.377 0.93164 1.3814 1e-5 2.2099 0.0311 2.4863 0.0918 0.98217 0.21563 1.5962 0.78414 1.8418 1.7051 0.12276 0.36837 0.18554 0.76749 0.18554 1.1973 0 0.46046-0.0769 1.042-0.23047 1.748-0.12276 0.67535-0.18359 1.0764-0.18359 1.1992v15.518c0 3.653 0.10738 6.7994 0.32227 9.4394 0.33768 2.6093 0.59706 4.5584 0.78125 5.8476 0.0307 0.1228 0.18466 0.29097 0.46093 0.50585 0.30698 0.21489 0.59872 0.32227 0.87498 0.32227 0.95163 0 2.2564-0.42953 3.9141-1.2891 1.4735-0.76744 2.7782-1.6123 3.914-2.5332 1.2586-1.013 1.8867-1.6715 1.8867-1.9785 0-0.39907-0.21478-0.70699-0.64453-0.92188-0.49117-0.12279-0.9815-0.26058-1.4727-0.41406-0.73673-0.24558-1.1035-0.5535-1.1035-0.92187v-25.738c0-1.9032 0.15201-3.0094 0.45899-3.3164 0.30696-0.30698 0.5987-0.49131 0.87498-0.55274 1.9646-0.46047 2.8399-0.6914 2.625-0.6914h4.6953c0.12279 0 0.58272-0.0304 1.3809-0.0918 0.79814-0.0921 1.3208-0.13672 1.5664-0.13672 2.7321-0.0921 5.0964-0.32498 7.0918-0.69336 0.55256-0.12279 1.1807-0.44298 1.8867-0.96484 0.73675-0.55256 1.1074-1.0752 1.1074-1.5664 0-0.67535-0.5673-1.0117-1.7031-1.0117zm256.41 7.7812c0.95161 0 1.6263 0.15396 2.0254 0.46094 2.7321 2.2409 5.4024 4.7411 8.0117 7.5039 1.0437 1.1358 2.0729 2.5337 3.0859 4.1914 1.2279 2.0874 1.8418 3.7447 1.8418 4.9726 0 3.4381-2.3786 6.3698-7.1367 8.7949-3.8372 1.934-7.2916 2.9004-10.361 2.9004-0.15348 0-0.44523-0.0608-0.875-0.18359-0.42976-0.15349-0.70533-0.2447-0.82812-0.27539-2.1181-0.39907-3.4999-0.75357-4.1445-1.0606-0.95163-0.49116-2.0112-1.334-3.1777-2.5312-0.98233-1.013-1.6732-1.874-2.0723-2.5801-1.2893-2.2409-1.9336-4.4351-1.9336-6.584 0-0.27628 0.4153-1.4736 1.2441-3.5918 1.1665-2.9163 3.2068-5.6474 6.123-8.1953 2.947-2.5479 5.68-3.8223 8.1973-3.8223z"/>
	<path d="m72.615 97.476c0 13.989-9.1094 24.14-27.719 26.157-13.404 1.4315-32.859-0.26027-42.098-1.3013-0.32534-1.4966-0.5856-3.3835-0.5856-4.88 0-12.168 6.5718-14.965 12.753-14.965 6.4416 0 16.592 1.1061 24.075 1.1061 8.3286 0 10.801-2.7979 10.801-5.4656 0-3.5136-3.3184-4.9451-9.7601-6.1814l-17.633-3.3835c-14.64-2.7979-22.448-12.883-22.448-23.619 0-13.013 9.2395-23.945 27.458-25.962 13.729-1.4965 30.516 0.1952 39.691 1.3013 0.32534 1.5616 0.52054 3.0582 0.52054 4.6848 0 12.168-6.4416 14.77-12.623 14.77-4.7499 0-12.102-0.84587-20.561-0.84587-8.5889 0-12.102 2.3424-12.102 5.2054 0 3.0582 3.3835 4.2944 8.719 5.2704l16.787 3.1232c17.308 3.1883 24.725 12.948 24.725 24.986m30.126 14.965c0 7.4827-2.928 11.777-17.568 11.777-1.952 0-3.6438-0.13013-5.2704-0.3904v-99.097c0-7.5478 2.5376-15.421 17.308-15.421 1.8869 0 3.7739 0.1952 5.5307 0.5856zm59.797 38.39c1.952 0.976 5.856 2.2123 10.801 2.2773 8.5238 0.19521 13.144-3.0582 16.592-10.671l45.547-101.31c-1.8869-0.97601-6.0512-2.1472-9.4347-2.2123-5.856-0.13013-13.729 1.0411-18.739 13.013l-14.835 34.681-28.955-47.044c-1.8869-0.5856-6.4416-1.3664-9.7601-1.3664-10.281 0-15.941 3.7739-21.863 10.15l-28.109 30.712 22.643 35.592c4.1643 6.5067 9.695 9.8251 18.609 9.8251 5.856 0 10.736-1.3664 13.013-2.4075l-27.263-40.992 19.325-20.496 31.688 49.646z" fill="#ff0031"/>
	<path d="m789.2 5e-3h-518.65c-5.9862 0-10.866 4.88-10.866 10.866v140.87c0 5.9862 4.88 10.866 10.866 10.866h518.58c5.9862 0 10.866-4.88 10.866-10.866v-140.94c-0.0651-5.9862-4.815-10.801-10.801-10.801" fill="url(#A)"/>
	<path d="m79.967 24.73v67.995c0-2.7328 2.0821-5.5958 5.5958-5.7259l11.452-0.3904c2.2773-0.06507 5.7259-1.6267 5.791-5.791v-70.923c-1.7568-0.3904-3.6438-0.5856-5.5307-0.5856-14.77 0.0651-17.308 7.8731-17.308 15.421m52.054 23.684-28.109 30.712 2.2774 3.5136c0.976 1.3013 2.863 3.5136 6.6368 3.3835l16.007-0.5856c3.5136-0.13013 5.7259 1.3664 7.0923 3.1883l-5.0102-7.5478 19.325-20.496 12.948 20.366c2.3424 3.0582 5.856 3.1232 6.6368 3.1232 0.65067 0 17.698-0.5856 18.414-0.65067 1.1712-0.06507 2.5376 0.5856 3.5787 2.0821l-28.174-45.807c-1.887-0.5856-6.4416-1.3664-9.7601-1.3664-10.281-0.0651-15.941 3.6438-21.863 10.085m-104.56-9.4347c-18.219 2.0171-27.458 12.883-27.458 25.962 0 6.7019 3.0582 13.144 8.9142 17.763 4.4246 2.928 8.9793 4.0342 13.469 4.815 3.7088 0.65067 12.363 1.2363 18.804 0.97601l20.041-0.71574c7.5478-0.26027 11.582 6.1814 11.192 12.623v-0.32533c0.06507-0.84587 0.13013-1.6917 0.13013-2.5376 0-12.037-7.4176-21.863-24.66-25.051l-16.787-3.1232c-5.4006-0.91094-8.719-2.2123-8.719-5.2704 0-2.863 3.5787-5.2704 12.102-5.2704 8.4587 0 15.811 0.84587 20.561 0.84587 6.1814 0 12.623-2.6027 12.623-14.77 0-1.6267-0.1952-3.1232-0.52054-4.6848-6.5718-0.78081-17.113-1.8869-27.588-1.8869-4.0992 0.0651-8.1985 0.26027-12.102 0.65067m179.72 12.948-14.38 33.9c0-0.06507 0.91094-2.6678 3.7088-2.7979l15.226-0.52054c4.6198-0.1952 6.4416-3.3184 6.9622-4.3595l16.657-37.153c-1.887-0.97601-6.0512-2.1472-9.4347-2.2123h-0.71574c-5.791 0.0651-13.209 1.6267-18.024 13.144" fill="url(#B)" opacity=".3"/>
	<path d="m270.55 5e-3c-5.9862 0-10.866 4.88-10.866 10.866v78.211c0-1.1712 0.45547-7.6129 7.808-8.3286 0 0 0.3904-0.0651 1.0411-0.0651l523.4-18.349c4.0992-0.13014 8.0683-3.1883 8.0683-8.2635v-43.139c0-5.9862-4.88-10.866-10.866-10.866z" fill="url(#C)" opacity=".3"/>
	<path d="m377.19 18.419c-4.3595 0-8.0684 3.3835-8.0684 8.0684 0 4.0992 3.6438 7.9375 8.0684 7.9375 4.4246 0 7.9375-3.7732 7.9375-7.9375 0-4.5547-3.4479-8.0684-7.9375-8.0684zm148.22 24.141c-20.952 0-37.936 16.591-37.936 39.43 0 23.684 16.333 39.82 40.018 39.82 10.931 0 21.212-3.253 27.914-6.2461 0.7808-6.8971-1.5617-9.8887-4.75-9.8887-1.3664 0-3.0598 0.6491-6.248 1.8203-4.88 1.4965-9.8892 2.9942-16.461 2.9942-15.291-1e-5 -25.701-8.5247-27.588-23.295h59.275c0.45547-2.863 0.64974-5.3992 0.71484-7.8066 0-18.154-11.58-36.828-34.939-36.828zm-196.24 0.0644c-21.993 0-38.781 16.853-38.781 39.496 0 22.643 16.789 39.69 38.781 40.016 10.411 0 19.845-2.8625 26.547-6.0508 0.65067-6.8971-1.8879-9.7598-5.0762-9.7598-4.4246 0-9.4337 4.8789-21.016 4.8789-14.64 0-26.549-11.255-26.549-28.889s11.909-28.564 26.549-28.564c11.582 0 16.526 4.8789 21.016 4.8789 3.1883 0 5.7268-2.8627 5.0762-9.7598-6.5718-3.3835-16.006-6.2461-26.547-6.2461zm113.22 0c-11.517 0-19.977 5.595-25.508 12.297v-6.5703c0-2.863-1.6903-4.75-6.5703-4.75-2.2123 0-4.5554 0.52037-5.7266 0.8457v75.934c1.1712 0.32534 3.5143 0.65039 5.7266 0.65039 4.9451 0 6.5703-1.7569 6.5703-4.75v-48.736c4.0342-7.3526 13.796-13.729 22.84-13.729 11.387 0 19.129 7.4171 19.129 23.033v43.4c1.2363 0.32533 3.7095 0.65039 5.7266 0.65039 5.0102 0 6.5703-1.7569 6.5703-4.75v-40.992c0-22.513-13.077-32.468-28.758-32.533zm168.78 0c-9.3697 0-17.112 4.8794-21.992 11.451v-5.4004c0-3.1883-1.627-5.0742-6.377-5.0742-2.0171 0-4.4252 0.52037-5.7266 0.8457v75.803c1.0411 0.32533 3.5143 0.65039 5.7266 0.65039 5.0102 0 6.5723-1.7569 6.5723-4.75v-50.037c2.863-6.1814 10.214-12.428 18.803-12.428 10.281 0 15.486 6.7024 15.486 17.959v48.605c1.3014 0.32533 3.6451 0.65039 5.8574 0.65039 5.0102 0 6.5703-1.7569 6.5703-4.75v-50.037c2.863-6.1814 10.216-12.428 18.805-12.428 10.085 0 15.486 6.7024 15.486 17.959v48.605c1.2363 0.32533 3.7095 0.65039 5.7266 0.65039 5.0102 0 6.7012-1.7569 6.7012-4.75v-45.871c0-15.161-8.7183-27.589-25.115-27.654-11.257 0-19.326 6.1821-24.531 13.795-4.0342-8.5889-11.907-13.795-21.992-13.795zm122.78 0c-10.671 0-22.057 2.5374-29.67 5.4004-0.7808 6.7019 1.2364 9.8906 4.75 9.8906 1.2363 0 3.058-0.58566 5.4004-1.2363 4.5547-1.4965 11.257-3.1895 19-3.1895 14.965 0 18.803 7.0275 18.803 18.805v2.082c-33.77-2.2123-53.744 5.8569-53.744 24.336 0 12.233 9.4342 23.164 26.547 23.164 11.387 0 19.975-4.4907 27.197-12.104v6.377c0 3.1883 2.0176 4.8144 6.5723 4.8144 2.2123 0 4.4252-0.32506 5.7266-0.65039v-48.475c0-18.024-8.264-29.15-30.582-29.215zm-356.37 1.041c-5.1403 0-6.7012 1.887-6.7012 4.75v71.834c1.2363 0.32533 3.6444 0.64974 5.7266 0.71484 5.0102 0 6.7012-1.7569 6.7012-4.75v-71.703c-1.2363-0.32534-3.7095-0.8457-5.7266-0.8457zm147.9 9.9551c13.729 0 22.122 10.281 22.643 23.359h-47.693c2.0171-15.291 12.818-23.49 25.051-23.359zm218.55 29.922c2.6243 0.0081 5.3271 0.08308 8.0762 0.20508v14.639c-5.856 7.8081-14.64 13.078-25.051 13.078-10.216 0-15.941-6.2454-15.941-12.947 0-11.899 14.546-15.032 32.916-14.975z" fill="#fff"/>
</svg>
