<?xml version="1.0" encoding="UTF-8"?>
<svg width="800" height="249.41" version="1.1" viewBox="0 0 800 249.41" xmlns="http://www.w3.org/2000/svg">
	<defs>
		<linearGradient id="A" x1="414.37" x2="1244.6" y1="289.84" y2="289.84" gradientTransform="matrix(.65067 0 0 .65067 -9.8253 -107.29)" gradientUnits="userSpaceOnUse">
			<stop stop-color="#ff0031" offset="0"/>
			<stop stop-color="#9b001f" offset="1"/>
		</linearGradient>
		<linearGradient id="B" x1="197.48" x2="194.59" y1="295.14" y2="212.24" gradientTransform="matrix(.65067 0 0 .65067 -9.8253 -107.29)" gradientUnits="userSpaceOnUse">
			<stop stop-color="#fff" offset="0"/>
			<stop stop-color="#fff" stop-opacity=".25" offset=".515"/>
		</linearGradient>
		<linearGradient id="C" x1="830.55" x2="826.25" y1="276.73" y2="153.47" gradientTransform="matrix(.65067 0 0 .65067 -9.8253 -107.29)" gradientUnits="userSpaceOnUse">
			<stop stop-color="#fff" offset="0"/>
			<stop stop-color="#fff" stop-opacity=".25" offset=".515"/>
		</linearGradient>
	</defs>
	<g>
		<path d="m72.615 97.475c0 13.989-9.1094 24.14-27.719 26.157-13.404 1.4315-32.859-0.26027-42.098-1.3013-0.32534-1.4965-0.5856-3.3835-0.5856-4.88 0-12.168 6.5718-14.965 12.753-14.965 6.4416 0 16.592 1.1061 24.075 1.1061 8.3286 0 10.801-2.7979 10.801-5.4656 0-3.5136-3.3184-4.9451-9.7601-6.1814l-17.633-3.3835c-14.64-2.7979-22.448-12.883-22.448-23.619 0-13.013 9.2395-23.945 27.458-25.962 13.729-1.4965 30.516 0.1952 39.691 1.3013 0.32534 1.5616 0.52054 3.0582 0.52054 4.6848 0 12.168-6.4416 14.77-12.623 14.77-4.7499 0-12.102-0.84587-20.561-0.84587-8.5889 0-12.102 2.3424-12.102 5.2054 0 3.0582 3.3835 4.2944 8.719 5.2704l16.787 3.1232c17.308 3.1883 24.725 12.948 24.725 24.986m30.126 14.965c0 7.4827-2.928 11.777-17.568 11.777-1.952 0-3.6438-0.13014-5.2704-0.39041v-99.097c0-7.5478 2.5376-15.421 17.308-15.421 1.8869 0 3.7739 0.1952 5.5307 0.5856zm59.797 38.39c1.952 0.97601 5.856 2.2123 10.801 2.2774 8.5238 0.1952 13.144-3.0582 16.592-10.671l45.547-101.31c-1.887-0.97601-6.0512-2.1472-9.4347-2.2123-5.856-0.13013-13.729 1.0411-18.739 13.013l-14.835 34.681-28.955-47.044c-1.8869-0.5856-6.4416-1.3664-9.7601-1.3664-10.281 0-15.941 3.7739-21.863 10.15l-28.109 30.712 22.643 35.592c4.1643 6.5067 9.695 9.8251 18.609 9.8251 5.856 0 10.736-1.3664 13.013-2.4075l-27.263-40.992 19.325-20.496 31.688 49.646z" fill="#ff0031"/>
		<path d="m789.2 5e-3h-518.65c-5.9862 0-10.866 4.88-10.866 10.866v140.87c0 5.9862 4.88 10.866 10.866 10.866h518.58c5.9862 0 10.866-4.88 10.866-10.866v-140.94c-0.0651-5.9862-4.815-10.801-10.801-10.801" fill="url(#A)"/>
		<path d="m79.968 24.73v67.995c0-2.7328 2.0821-5.5958 5.5958-5.7259l11.452-0.3904c2.2773-0.06507 5.7259-1.6267 5.791-5.791v-70.923c-1.7568-0.3904-3.6438-0.5856-5.5307-0.5856-14.77 0.065067-17.308 7.8731-17.308 15.421m52.054 23.684-28.109 30.712 2.2774 3.5136c0.97601 1.3013 2.863 3.5136 6.6368 3.3835l16.007-0.5856c3.5136-0.13013 5.7259 1.3664 7.0923 3.1883l-5.0102-7.5478 19.325-20.496 12.948 20.366c2.3424 3.0582 5.856 3.1232 6.6368 3.1232 0.65067 0 17.698-0.5856 18.414-0.65067 1.1712-0.06507 2.5376 0.5856 3.5787 2.0821l-28.174-45.807c-1.887-0.5856-6.4416-1.3664-9.7601-1.3664-10.281-0.06507-15.941 3.6438-21.863 10.085m-104.56-9.4347c-18.219 2.0171-27.458 12.883-27.458 25.962 0 6.7019 3.0582 13.144 8.9142 17.763 4.4246 2.928 8.9793 4.0342 13.469 4.815 3.7088 0.65067 12.363 1.2363 18.804 0.97601l20.041-0.71574c7.5478-0.26027 11.582 6.1814 11.192 12.623v-0.32534c0.06507-0.84587 0.13013-1.6917 0.13013-2.5376 0-12.037-7.4176-21.863-24.66-25.051l-16.787-3.1232c-5.4006-0.91094-8.719-2.2123-8.719-5.2704 0-2.863 3.5787-5.2704 12.102-5.2704 8.4587 0 15.811 0.84587 20.561 0.84587 6.1814 0 12.623-2.6027 12.623-14.77 0-1.6267-0.1952-3.1232-0.52054-4.6848-6.5718-0.7808-17.113-1.8869-27.588-1.8869-4.0992 0.06507-8.1985 0.26027-12.102 0.65067m179.72 12.948-14.38 33.9c0-0.06507 0.91093-2.6678 3.7088-2.7979l15.226-0.52054c4.6198-0.1952 6.4416-3.3184 6.9622-4.3595l16.657-37.153c-1.8869-0.97601-6.0512-2.1472-9.4347-2.2123h-0.71573c-5.791 0.06507-13.209 1.6267-18.024 13.144" enable-background="new" fill="url(#B)" opacity=".3"/>
		<path d="m270.55 5e-3c-5.9862 0-10.866 4.88-10.866 10.866v78.211c0-1.1712 0.45547-7.6129 7.808-8.3286 0 0 0.3904-0.06507 1.0411-0.06507l523.4-18.349c4.0992-0.13013 8.0683-3.1883 8.0683-8.2635v-43.139c0-5.9862-4.88-10.866-10.866-10.866z" enable-background="new" fill="url(#C)" opacity=".3"/>
		<path d="m377.2 18.419c-4.3595 0-8.0684 3.3835-8.0684 8.0684 0 4.0992 3.6438 7.9375 8.0684 7.9375 4.4246 0 7.9375-3.7732 7.9375-7.9375 0-4.5547-3.4479-8.0684-7.9375-8.0684zm148.22 24.141c-20.952 0-37.936 16.591-37.936 39.43 0 23.684 16.333 39.82 40.018 39.82 10.931 0 21.212-3.253 27.914-6.2461 0.78081-6.8971-1.5617-9.8906-4.75-9.8906-1.3664 0-3.0598 0.65104-6.248 1.8223-4.88 1.4965-9.8892 2.9942-16.461 2.9942-15.291-1e-5 -25.701-8.5247-27.588-23.295h59.275c0.45547-2.863 0.64974-5.4011 0.71484-7.8086 0-18.154-11.58-36.826-34.939-36.826zm-196.24 0.06445c-21.993 0-38.781 16.853-38.781 39.496 0 22.643 16.789 39.69 38.781 40.016 10.411 0 19.845-2.8625 26.547-6.0508 0.65067-6.8971-1.8879-9.7598-5.0762-9.7598-4.4246 0-9.4337 4.8789-21.016 4.8789-14.64 0-26.549-11.255-26.549-28.889 0-17.633 11.909-28.564 26.549-28.564 11.582 0 16.526 4.8789 21.016 4.8789 3.1883 0 5.7268-2.8627 5.0762-9.7598-6.5718-3.3835-16.006-6.2461-26.547-6.2461zm113.22 0c-11.517 0-19.977 5.595-25.508 12.297v-6.5703c0-2.863-1.6903-4.75-6.5703-4.75-2.2123 0-4.5554 0.52037-5.7266 0.8457v75.934c1.1712 0.32533 3.5143 0.65038 5.7266 0.65038 4.9451 0 6.5703-1.7569 6.5703-4.75v-48.736c4.0342-7.3526 13.796-13.729 22.84-13.729 11.387 0 19.129 7.4171 19.129 23.033v43.4c1.2363 0.32534 3.7095 0.65038 5.7266 0.65038 5.0102 0 6.5703-1.7569 6.5703-4.75v-40.992c0-22.513-13.077-32.468-28.758-32.533zm168.78 0c-9.3697 0-17.112 4.8794-21.992 11.451v-5.4004c0-3.1883-1.627-5.0742-6.377-5.0742-2.0171 0-4.4252 0.52037-5.7266 0.8457v75.803c1.0411 0.32534 3.5143 0.65038 5.7266 0.65038 5.0102 0 6.5723-1.7569 6.5723-4.75v-50.037c2.863-6.1814 10.214-12.428 18.803-12.428 10.281-1e-6 15.486 6.7024 15.486 17.959v48.605c1.3014 0.32534 3.6451 0.65038 5.8574 0.65038 5.0102 0 6.5703-1.7569 6.5703-4.75v-50.037c2.863-6.1814 10.216-12.428 18.805-12.428 10.085-1e-6 15.486 6.7024 15.486 17.959v48.605c1.2363 0.32534 3.7095 0.65038 5.7266 0.65038 5.0102 0 6.7012-1.7569 6.7012-4.75v-45.873c0-15.161-8.7183-27.587-25.115-27.652-11.257 0-19.326 6.1821-24.531 13.795-4.0342-8.5889-11.907-13.795-21.992-13.795zm122.78 0c-10.671 0-22.057 2.5374-29.67 5.4004-0.7808 6.7019 1.2364 9.8906 4.75 9.8906 1.2363 0 3.058-0.58566 5.4004-1.2363 4.5547-1.4965 11.257-3.1895 19-3.1895 14.965 0 18.803 7.0275 18.803 18.805v2.082c-33.77-2.2123-53.744 5.8569-53.744 24.336 0 12.233 9.4342 23.164 26.547 23.164 11.387 0 19.975-4.4907 27.197-12.104v6.377c0 3.1883 2.0176 4.8144 6.5723 4.8144 2.2123 0 4.4252-0.32505 5.7266-0.65038v-48.475c0-18.024-8.264-29.15-30.582-29.215zm-356.37 1.041c-5.1403 0-6.7012 1.887-6.7012 4.75v71.834c1.2363 0.32534 3.6444 0.64973 5.7266 0.71483 5.0102 0 6.7012-1.7569 6.7012-4.75v-71.703c-1.2363-0.32534-3.7095-0.8457-5.7266-0.8457zm147.9 9.9551c13.729 0 22.122 10.281 22.643 23.359h-47.693c2.0171-15.291 12.818-23.49 25.051-23.359zm218.55 29.922c2.6243 0.0081 5.3271 0.08308 8.0762 0.20508v14.639c-5.856 7.8081-14.64 13.078-25.051 13.078-10.216 0-15.941-6.2454-15.941-12.947 0-11.899 14.546-15.032 32.916-14.975z" fill="#fff"/>
		<path d="m265.46 178.92c-3.5985 0-6.0318 0.71008-7.3019 2.1314-1.2701 1.4213-1.9044 4.1126-1.9044 8.074v4.8992c0 4.5058 0.49699 7.8314 1.4949 9.9784 1.0282 2.1168 2.9336 5.4898 5.7157 10.117 2.8123 4.5965 4.5829 7.605 5.3087 9.0262 0.75602 1.4213 1.1323 3.3717 1.1323 5.8514v4.5366c0 1.512-0.16568 2.5084-0.49831 2.9923-0.30241 0.48384-0.99832 0.72526-2.087 0.72526h-0.86092c-1.1794 0-1.9061-0.24142-2.1782-0.72526-0.27216-0.48385-0.40703-1.4803-0.40703-2.9923v-9.934l-7.6201 8.3454c0 5.7759 0.63433 9.3737 1.9044 10.795 1.2701 1.4213 3.7033 2.1338 7.3019 2.1338h3.4018c3.5986 0 6.0176-0.71256 7.2575-2.1338 1.2398-1.4213 1.86-4.1126 1.86-8.074v-5.3062c0-3.901-0.51361-6.9094-1.5418-9.0262-0.99792-2.1471-2.9175-5.5201-5.7601-10.117-2.8123-4.6267-4.5804-7.6493-5.3062-9.0706-0.69551-1.4213-1.0435-3.6747-1.0435-6.7592v-4.3096c0-1.3608 0.15151-2.284 0.45393-2.7678 0.33262-0.51408 1.0427-0.76965 2.1313-0.76965h0.86094c1.1794 0 1.9061 0.25557 2.1782 0.76965 0.27215 0.48384 0.40704 1.4686 0.40704 2.9504v9.342l7.6201-10.477c0-3.9615-0.62018-6.6527-1.86-8.074-1.2398-1.4213-3.6589-2.1314-7.2575-2.1314zm63.919 0.45142-8.3922 0.27384v41.64l-0.31823 28.122 8.3922-7.8002v-21.911c0-1.5422 0.10647-14.984 0.31821-40.326zm9.5936 0v65.048h13.383c3.5985 0 6.0176-0.71252 7.2575-2.1338 1.2398-1.4213 1.86-4.1126 1.86-8.074v-44.588c0-3.9615-0.62013-6.6527-1.86-8.074-1.2399-1.4515-3.6589-2.1782-7.2575-2.1782zm30.826 0v65.048h17.192v-7.6226h-9.1176v-22.498h3.8113l3.6288-7.5757h-7.4401v-19.73h9.1176v-7.6226zm24.518 0v65.048h8.0741v-28.986h3.1773c1.2399 0 2.0708 0.33134 2.494 0.99661 0.4537 0.63505 0.6809 1.7239 0.6809 3.2661v21.911l8.3453 7.8002-0.2713-28.122c0-2.9635-0.348-5.1862-1.0435-6.6679-0.6652-1.512-1.844-2.5109-3.5376-2.9948 1.6936-0.48385 2.8724-1.452 3.5376-2.9035 0.6955-1.4818 1.0435-3.7044 1.0435-6.6679v-12.428c0-3.9615-0.6368-6.6527-1.9069-8.074-1.2701-1.4515-3.7034-2.1782-7.3018-2.1782zm56.75 0v65.048h7.0774v-34.837c0-3.145-0.062-7.879-0.1824-14.199 0.8465 8.8604 1.3009 13.594 1.3615 14.199l4.0358 34.837h6.3053l3.9938-34.837c0.1815-1.3608 0.4064-3.7798 0.6785-7.2575 0.2721-3.5079 0.4852-5.7613 0.6364-6.7592-0.1512 6.1992-0.2271 10.872-0.2271 14.017v34.837h8.0297v-65.048h-12.203l-3.0392 30.846c-0.1212 1.3003-0.2725 3.2366-0.4539 5.807-0.1511 2.5704-0.2551 4.2628-0.3157 5.0793-0.3026-6.1388-0.5155-9.7674-0.6365-10.886l-3.1749-30.846zm44.978 0-6.5322 65.048h7.2574l0.9523-9.3h4.4007l1.8603-6.214 1.6329 15.514h8.1628l-6.6211-65.048zm24.565 0v65.048h6.9836v-33.613c0-0.33264-0.09-4.6713-0.2714-13.018 0.5445 5.0803 1.1338 9.419 1.7689 13.018l5.6244 33.613h9.0286v-65.048h-6.9416v28.26c0 1.6632 0.044 4.1722 0.1355 7.5288 0.091 3.3264 0.1382 5.1869 0.1382 5.58-0.635-5.8364-1.1961-10.175-1.68-13.018l-4.6721-28.352zm-233.26 0.27384v63.958h8.5279c0.39313 0 0.58957-0.19645 0.58957-0.58957l-0.27134-0.58958c0-0.18144 0.0899-0.27383 0.27134-0.27383l-0.27134-2.9479v-19.187c0-0.42335 0.0899-0.81627 0.27134-1.1792-0.18143-0.36288-0.27134-0.64926-0.27134-0.86093h0.27134c6.6528 0 10.584-0.69593 11.794-2.087 1.9656-1.9958 2.9479-4.4457 2.9479-7.3488v-20.051c0-3.9917-2.0545-6.8345-6.1671-8.5279l-1.7712-0.31575zm59.7 7.3487h3.7176c1.1189 0 1.8314 0.25557 2.1338 0.76967 0.33265 0.48384 0.4983 1.4661 0.4983 2.9479v42.368c0 1.4818-0.16565 2.4782-0.4983 2.9923-0.30237 0.48385-1.0149 0.72525-2.1338 0.72525h-3.7176zm55.341 0h3.72c1.1188 0 1.829 0.25557 2.1313 0.76967 0.3327 0.48384 0.5009 1.4661 0.5009 2.9479v13.383c0 1.4818-0.1682 2.4782-0.5009 2.9923-0.3023 0.48383-1.0125 0.72771-2.1313 0.72771h-3.72zm-105.61 0.90533h2.9479c1.7539 0.27217 2.6321 1.1645 2.6321 2.6766v16.784c0 1.7539-1.0746 2.6297-3.2217 2.6297h-2.3583c-0.39313 0-0.58959-0.19646-0.58959-0.58957v-20.912c0.0605-0.39314 0.25692-0.5896 0.58959-0.5896zm204.34 0.13815c0.4538 10.282 1.2704 22.015 2.4497 35.2l0.3626 4.2627h-5.4888l0.3626-4.5366c1.1794-14.183 1.9511-25.823 2.3139-34.926zm-77.069 23.586v8.3478h16.826v-8.3478z"/>
	</g>
</svg>
