<?xml version="1.0" encoding="UTF-8"?>
<svg width="800" height="261.14" version="1.1" xmlns="http://www.w3.org/2000/svg">
	<path d="M72.615 97.475c0 13.989-9.11 24.14-27.719 26.157-13.404 1.431-32.859-.26-42.098-1.301-.325-1.497-.586-3.384-.586-4.88 0-12.168 6.572-14.965 12.753-14.965 6.442 0 16.592 1.106 24.075 1.106 8.329 0 10.801-2.798 10.801-5.466 0-3.513-3.318-4.945-9.76-6.181L22.448 88.56C7.808 85.763 0 75.678 0 64.942 0 51.93 9.24 40.997 27.458 38.98c13.73-1.496 30.516.196 39.691 1.302.326 1.561.52 3.058.52 4.684 0 12.168-6.44 14.77-12.622 14.77-4.75 0-12.102-.845-20.561-.845-8.59 0-12.102 2.342-12.102 5.205 0 3.058 3.383 4.294 8.719 5.27L47.89 72.49c17.308 3.188 24.725 12.948 24.725 24.986m30.126 14.965c0 7.482-2.928 11.777-17.568 11.777-1.952 0-3.644-.13-5.27-.39V24.73c0-7.548 2.537-15.42 17.307-15.42 1.887 0 3.774.194 5.531.585zm59.797 38.39c1.952.976 5.856 2.212 10.8 2.277 8.525.195 13.145-3.058 16.593-10.671l45.547-101.31c-1.887-.976-6.051-2.147-9.435-2.212-5.856-.13-13.729 1.04-18.739 13.013l-14.835 34.68-28.955-47.043c-1.887-.586-6.441-1.367-9.76-1.367-10.281 0-15.941 3.774-21.863 10.15L103.782 79.06l22.643 35.592c4.164 6.507 9.695 9.825 18.609 9.825 5.856 0 10.736-1.366 13.013-2.407l-27.263-40.992 19.325-20.496 31.688 49.646z" fill="#ff0031"/>
	<path d="M789.2.005H270.55c-5.986 0-10.866 4.88-10.866 10.866v140.87c0 5.986 4.88 10.866 10.866 10.866h518.58c5.986 0 10.866-4.88 10.866-10.866V10.801C799.931 4.815 795.181 0 789.195 0" fill="url(#a)"/>
	<path d="M79.968 24.73v67.995c0-2.733 2.082-5.596 5.596-5.726l11.452-.39c2.277-.065 5.726-1.627 5.79-5.791V9.895a25.724 25.724 0 0 0-5.53-.586c-14.77.065-17.308 7.873-17.308 15.421m52.054 23.684-28.109 30.712 2.277 3.514c.977 1.301 2.863 3.513 6.637 3.383l16.007-.585c3.514-.13 5.726 1.366 7.093 3.188l-5.01-7.548 19.324-20.496 12.948 20.366c2.343 3.058 5.856 3.123 6.637 3.123.65 0 17.698-.585 18.414-.65 1.171-.065 2.538.585 3.579 2.082l-28.174-45.807c-1.887-.586-6.442-1.367-9.76-1.367-10.281-.065-15.941 3.644-21.863 10.085M27.462 38.98C9.242 40.997.004 51.863.004 64.942c0 6.702 3.058 13.144 8.914 17.763 4.425 2.928 8.98 4.034 13.469 4.815 3.709.65 12.363 1.236 18.804.976l20.041-.716c7.548-.26 11.582 6.181 11.192 12.623v-.325c.065-.846.13-1.692.13-2.538 0-12.037-7.417-21.863-24.66-25.051l-16.787-3.123c-5.4-.911-8.719-2.213-8.719-5.27 0-2.864 3.579-5.271 12.102-5.271 8.459 0 15.811.846 20.561.846 6.182 0 12.623-2.603 12.623-14.77 0-1.627-.195-3.123-.52-4.685-6.572-.78-17.113-1.887-27.588-1.887-4.1.065-8.199.26-12.102.65m179.72 12.949-14.38 33.9c0-.065.91-2.668 3.708-2.798l15.226-.52c4.62-.196 6.442-3.319 6.963-4.36l16.657-37.153c-1.887-.976-6.052-2.147-9.435-2.212h-.716c-5.79.065-13.209 1.626-18.024 13.144" fill="url(#b)" opacity=".3"/>
	<path d="M270.55.005c-5.986 0-10.866 4.88-10.866 10.866v78.211c0-1.171.455-7.613 7.808-8.329 0 0 .39-.065 1.041-.065l523.4-18.349c4.1-.13 8.068-3.188 8.068-8.263v-43.14c0-5.985-4.88-10.865-10.866-10.865z" fill="url(#c)" opacity=".3"/>
	<path d="m377.2 18.419c-4.36 0-8.068 3.384-8.068 8.068 0 4.1 3.643 7.938 8.068 7.938s7.938-3.773 7.938-7.938c0-4.554-3.448-8.068-7.938-8.068zm148.22 24.141c-20.952 0-37.936 16.591-37.936 39.43 0 23.684 16.333 39.82 40.018 39.82 10.931 0 21.212-3.253 27.914-6.246 0.78-6.897-1.562-9.89-4.75-9.89-1.366 0-3.06 0.65-6.248 1.822-4.88 1.496-9.89 2.994-16.461 2.994-15.291 0-25.701-8.525-27.588-23.295h59.275c0.455-2.863 0.65-5.401 0.715-7.809 0-18.154-11.58-36.826-34.94-36.826zm-196.24 0.064c-21.993 0-38.781 16.853-38.781 39.496s16.789 39.69 38.781 40.016c10.411 0 19.845-2.862 26.547-6.05 0.65-6.897-1.888-9.76-5.076-9.76-4.425 0-9.434 4.879-21.016 4.879-14.64 0-26.55-11.255-26.55-28.89 0-17.632 11.91-28.563 26.55-28.563 11.582 0 16.526 4.879 21.016 4.879 3.188 0 5.727-2.863 5.076-9.76-6.572-3.384-16.006-6.246-26.547-6.246zm113.22 0c-11.517 0-19.977 5.595-25.508 12.297v-6.57c0-2.863-1.69-4.75-6.57-4.75-2.213 0-4.556 0.52-5.727 0.846v75.934c1.171 0.325 3.514 0.65 5.727 0.65 4.945 0 6.57-1.757 6.57-4.75v-48.736c4.034-7.352 13.796-13.729 22.84-13.729 11.387 0 19.129 7.417 19.129 23.033v43.4c1.236 0.326 3.71 0.65 5.727 0.65 5.01 0 6.57-1.756 6.57-4.75v-40.99c0-22.513-13.077-32.468-28.758-32.533zm168.78 0c-9.37 0-17.112 4.88-21.992 11.451v-5.4c0-3.188-1.627-5.074-6.377-5.074-2.017 0-4.425 0.52-5.727 0.846v75.803c1.042 0.325 3.515 0.65 5.727 0.65 5.01 0 6.572-1.757 6.572-4.75v-50.037c2.863-6.181 10.214-12.428 18.803-12.428 10.281 0 15.486 6.702 15.486 17.959v48.605c1.302 0.325 3.645 0.65 5.858 0.65 5.01 0 6.57-1.757 6.57-4.75v-50.037c2.863-6.181 10.216-12.428 18.805-12.428 10.085 0 15.486 6.703 15.486 17.96v48.604c1.236 0.326 3.71 0.65 5.727 0.65 5.01 0 6.7-1.756 6.7-4.75v-45.871c0-15.161-8.718-27.587-25.114-27.652-11.257 0-19.326 6.182-24.531 13.795-4.034-8.59-11.907-13.795-21.992-13.795zm122.78 0c-10.671 0-22.057 2.538-29.67 5.4-0.78 6.703 1.236 9.891 4.75 9.891 1.236 0 3.058-0.585 5.4-1.236 4.555-1.496 11.257-3.19 19-3.19 14.965 0 18.803 7.028 18.803 18.806v2.082c-33.77-2.213-53.744 5.857-53.744 24.336 0 12.233 9.435 23.164 26.547 23.164 11.387 0 19.975-4.491 27.197-12.104v6.377c0 3.188 2.018 4.814 6.573 4.814 2.212 0 4.425-0.325 5.726-0.65v-48.475c0-18.024-8.264-29.15-30.582-29.215zm-356.37 1.041c-5.14 0-6.701 1.887-6.701 4.75v71.834c1.236 0.326 3.644 0.65 5.726 0.715 5.01 0 6.702-1.757 6.702-4.75v-71.703c-1.237-0.325-3.71-0.845-5.727-0.845zm147.9 9.956c13.729 0 22.122 10.28 22.643 23.359h-47.693c2.017-15.291 12.818-23.49 25.051-23.36zm218.55 29.922c2.624 8e-3 5.327 0.083 8.076 0.205v14.639c-5.856 7.808-14.64 13.078-25.05 13.078-10.217 0-15.942-6.246-15.942-12.947 0-11.9 14.546-15.032 32.916-14.975z" fill="#fff"/>
	<path d="m437.53 179.37c-1.531 0-2.847 0.552-3.95 1.654s-1.654 2.45-1.654 4.043c0 1.532 0.552 2.847 1.655 3.95s2.418 1.654 3.949 1.654c1.593 0 2.94-0.552 4.043-1.654s1.654-2.418 1.654-3.95c0-1.592-0.551-2.94-1.654-4.043s-2.45-1.654-4.043-1.654zm-107.22 18.836c-3.063 0-5.911 0.58-8.545 1.744-2.6019 1.1416-4.9456 2.7982-6.89 4.87-1.9 2.02-3.4 4.441-4.502 7.259-1.103 2.756-1.653 5.788-1.653 9.096 0 3.307 0.52 6.4 1.56 9.279 1.103 2.818 2.665 5.267 4.686 7.35 2.021 2.082 4.504 3.705 7.444 4.869s6.277 1.746 10.014 1.746c3.491 0 6.615-0.369 9.37-1.104 2.757-0.796 5.054-1.623 6.891-2.48 0.062-0.368 0.092-0.734 0.092-1.102 0.062-0.367 0.092-0.705 0.092-1.011 0-1.654-0.367-2.97-1.102-3.95-0.673-0.98-1.561-1.47-2.664-1.47-0.796 0-1.594 0.122-2.39 0.367-0.797 0.245-1.684 0.552-2.664 0.92-0.98 0.306-2.082 0.58-3.307 0.826s-2.665 0.367-4.318 0.367c-3.86 0-6.983-0.918-9.372-2.756-2.327-1.899-3.706-4.625-4.134-8.178h31.88c0.30453-1.5121 0.45861-3.0506 0.46-4.593 0-2.757-0.459-5.45-1.377-8.084-0.83676-2.5964-2.18-5.001-3.952-7.075-1.715-2.082-3.89-3.737-6.523-4.962-2.634-1.287-5.666-1.928-9.096-1.928zm50.992 0c-2.572 0-4.963 0.703-7.168 2.111-2.205 1.348-3.95 3.034-5.236 5.055l-0.092-1.103c0-1.715-0.43-3.063-1.287-4.043-0.796-1.042-2.142-1.561-4.041-1.561-0.80459-6e-3 -1.6069 0.0859-2.389 0.275-0.674 0.123-1.348 0.276-2.021 0.46v44.1c0.49 0.122 1.194 0.215 2.113 0.277 0.98 0.122 1.929 0.183 2.848 0.183 1.96 0 3.277-0.399 3.95-1.195 0.736-0.796 1.102-1.806 1.102-3.031v-27.195c0.797-1.531 1.961-2.849 3.493-3.951 1.592-1.164 3.368-1.746 5.328-1.746 2.572 0 4.533 0.796 5.88 2.388 1.41 1.532 2.114 3.798 2.114 6.799v27.471c0.49 0.123 1.192 0.216 2.111 0.277 0.98 0.123 1.93 0.184 2.85 0.184 1.96 0 3.275-0.4 3.949-1.195 0.735-0.797 1.103-1.807 1.103-3.032v-27.104c0.797-1.592 1.96-2.94 3.49-4.043 1.532-1.163 3.401-1.746 5.606-1.746 2.328 0 4.195 0.766 5.604 2.297 1.408 1.47 2.113 3.767 2.113 6.89v27.472c0.49 0.122 1.194 0.216 2.113 0.277 0.98 0.123 1.931 0.184 2.85 0.184 1.96 0 3.275-0.4 3.949-1.196 0.735-0.796 1.104-1.806 1.104-3.03v-24.716c0-5.206-1.196-9.309-3.584-12.31-2.328-3.002-5.912-4.503-10.75-4.503-2.94 0-5.573 0.766-7.9 2.297-2.267 1.47-4.29 3.673-6.065 6.613-1.042-2.94-2.756-5.143-5.145-6.613-2.327-1.531-4.99-2.297-7.992-2.297zm90.68 0c-3.062 0-5.91 0.58-8.543 1.744-2.6019 1.1416-4.9456 2.7982-6.89 4.87-1.9 2.02-3.4 4.441-4.503 7.259-1.102 2.756-1.654 5.788-1.654 9.096 0 3.307 0.521 6.4 1.563 9.279 1.102 2.818 2.664 5.267 4.685 7.35 2.021 2.082 4.502 3.705 7.442 4.869 2.94 1.163 6.277 1.746 10.014 1.746 3.49 0 6.614-0.369 9.37-1.104 2.757-0.796 5.054-1.623 6.891-2.48 0.062-0.368 0.094-0.734 0.094-1.102 0.061-0.367 0.092-0.705 0.092-1.011 0-1.654-0.369-2.97-1.104-3.95-0.674-0.98-1.561-1.47-2.664-1.47-0.796 0-1.592 0.122-2.389 0.367-0.796 0.245-1.684 0.552-2.664 0.92-0.98 0.306-2.083 0.58-3.308 0.826s-2.665 0.367-4.319 0.367c-3.858 0-6.982-0.918-9.37-2.756-2.328-1.899-3.707-4.625-4.136-8.178h31.881c0.307-1.53 0.461-3.062 0.461-4.593 0-2.757-0.46-5.45-1.379-8.084-0.83616-2.5962-2.1787-5.0009-3.95-7.075-1.716-2.082-3.89-3.737-6.524-4.962-2.634-1.287-5.666-1.928-9.096-1.928zm78.646 0c-3.063 0-5.911 0.58-8.545 1.744-2.6019 1.1416-4.9456 2.7982-6.89 4.87-1.9 2.02-3.4 4.441-4.502 7.259-1.103 2.756-1.653 5.788-1.653 9.096 0 3.307 0.52 6.4 1.56 9.279 1.103 2.818 2.665 5.267 4.686 7.35 2.021 2.082 4.504 3.705 7.444 4.869s6.277 1.746 10.014 1.746c3.491 0 6.614-0.369 9.37-1.104 2.757-0.796 5.054-1.623 6.891-2.48 0.062-0.368 0.092-0.734 0.092-1.102 0.061-0.367 0.092-0.705 0.092-1.011 0-1.654-0.367-2.97-1.102-3.95-0.673-0.98-1.561-1.47-2.664-1.47-0.796 0-1.594 0.122-2.39 0.367-0.797 0.245-1.684 0.552-2.664 0.92-0.98 0.306-2.082 0.58-3.307 0.826s-2.665 0.367-4.318 0.367c-3.86 0-6.983-0.918-9.371-2.756-2.328-1.899-3.706-4.625-4.135-8.178h31.88c0.30453-1.5121 0.45861-3.0506 0.46-4.593 0-2.757-0.459-5.45-1.377-8.084-0.83676-2.5964-2.18-5.001-3.952-7.075-1.715-2.082-3.89-3.737-6.523-4.962-2.634-1.287-5.666-1.928-9.096-1.928zm-297.59 0.092c-3.553 0-6.523 0.735-8.912 2.205-2.3239 1.4055-4.3268 3.2834-5.879 5.512l-0.094-1.746c-0.122-1.716-0.55-3.064-1.285-4.044-0.735-1.04-2.083-1.56-4.043-1.56-0.80459-6e-3 -1.6069 0.0859-2.389 0.275-0.673 0.123-1.347 0.276-2.021 0.46v61.28c0.49 0.123 1.194 0.214 2.113 0.276 0.98 0.122 1.93 0.183 2.848 0.183 1.96 0 3.277-0.397 3.951-1.193 0.735-0.796 1.104-1.808 1.104-3.033v-19.11c1.408 1.655 3.276 3.155 5.603 4.503 2.328 1.286 5.146 1.93 8.453 1.93 2.328 0 4.686-0.46 7.074-1.38 2.45-0.918 4.625-2.327 6.524-4.226 1.96-1.899 3.552-4.287 4.777-7.166s1.838-6.308 1.838-10.289c0-3.675-0.582-6.923-1.746-9.74-1.103-2.879-2.573-5.267-4.41-7.166-1.838-1.96-3.951-3.43-6.34-4.41-2.328-1.042-4.716-1.561-7.166-1.561zm50.256 0.183c-2.756 0-5.175 0.766-7.258 2.297-2.082 1.47-3.736 3.706-4.96 6.707h-0.184v-3.217c0-1.715-0.43-3.063-1.287-4.043-0.797-1.04-2.145-1.56-4.043-1.56-0.80492-7e-3 -1.6076 0.0858-2.39 0.275-0.673 0.123-1.347 0.276-2.02 0.46v44.1c0.49 0.122 1.194 0.215 2.113 0.277 0.98 0.122 1.93 0.183 2.85 0.183 1.96 0 3.275-0.399 3.948-1.195 0.735-0.796 1.104-1.806 1.104-3.031v-21.96c0-3.49 0.949-6.062 2.848-7.716 1.96-1.654 4.531-2.48 7.716-2.48h1.655c3.43 0 5.144-1.717 5.144-5.147 0-1.041-0.183-2.204-0.55-3.49-0.73012-0.12971-1.4664-0.22183-2.206-0.276-0.82027-0.12874-1.6497-0.18994-2.48-0.183zm220.32 0c-2.756 0-5.175 0.766-7.258 2.297-2.082 1.47-3.736 3.706-4.96 6.707h-0.184v-3.217c0-1.715-0.43-3.063-1.287-4.043-0.797-1.04-2.145-1.56-4.043-1.56-0.80492-7e-3 -1.6076 0.0858-2.39 0.275-0.673 0.123-1.347 0.276-2.02 0.46v44.1c0.49 0.122 1.194 0.215 2.113 0.277 0.98 0.122 1.93 0.183 2.85 0.183 1.96 0 3.275-0.399 3.949-1.195 0.735-0.796 1.103-1.806 1.103-3.031v-21.96c0-3.49 0.949-6.062 2.848-7.716 1.96-1.654 4.532-2.48 7.717-2.48h1.654c3.43 0 5.144-1.717 5.144-5.147 0-1.041-0.183-2.204-0.55-3.49-0.73012-0.12971-1.4664-0.22183-2.206-0.276-0.82027-0.12874-1.6497-0.18994-2.48-0.183zm-86.088 0.184c-1.899 0-3.214 0.397-3.95 1.193-0.734 0.797-1.103 1.809-1.103 3.034v40.607c0.49 0.122 1.195 0.216 2.114 0.277 0.918 0.122 1.837 0.184 2.755 0.184 1.96 0 3.308-0.4 4.043-1.196s1.102-1.806 1.102-3.031v-40.609c-0.49-0.122-1.194-0.214-2.113-0.275-0.94422-0.12426-1.8956-0.18572-2.848-0.184zm-107.22 7.35c3.552 0 6.279 1.132 8.178 3.398 1.96 2.205 3.092 4.962 3.398 8.27h-23.06c0.305-3.492 1.437-6.31 3.397-8.454 2.022-2.143 4.718-3.214 8.086-3.214zm141.67 0c3.552 0 6.279 1.132 8.178 3.398 1.96 2.205 3.094 4.962 3.4 8.27h-23.062c0.306-3.492 1.44-6.31 3.4-8.454 2.022-2.143 4.716-3.214 8.084-3.214zm78.646 0c3.552 0 6.279 1.132 8.178 3.398 1.96 2.205 3.092 4.962 3.398 8.27h-23.06c0.305-3.492 1.437-6.31 3.397-8.454 2.022-2.143 4.718-3.214 8.086-3.214zm-300.98 0.734c2.144 0 4.011 0.43 5.603 1.287 1.5627 0.77062 2.9179 1.9046 3.952 3.307 1.102 1.347 1.898 2.909 2.388 4.685 0.552 1.715 0.827 3.523 0.827 5.422 0 2.144-0.306 4.103-0.918 5.88-0.613 1.775-1.47 3.307-2.573 4.593s-2.45 2.298-4.043 3.033c-1.592 0.674-3.337 1.01-5.236 1.01-2.573 0-4.839-0.582-6.799-1.746-1.96-1.225-3.43-2.726-4.41-4.502v-16.538c1.164-2.144 2.756-3.736 4.777-4.778 2.083-1.102 4.227-1.654 6.432-1.654z"/>
	<defs>
		<linearGradient id="a" x1="414.37" x2="1244.6" y1="289.84" y2="289.84" gradientTransform="translate(-9.825 -107.29) scale(.65067)" gradientUnits="userSpaceOnUse">
			<stop stop-color="#ff0031" offset="0"/>
			<stop stop-color="#9b001f" offset="1"/>
		</linearGradient>
		<linearGradient id="b" x1="197.48" x2="194.59" y1="295.14" y2="212.24" gradientTransform="translate(-9.825 -107.29) scale(.65067)" gradientUnits="userSpaceOnUse">
			<stop stop-color="#fff" offset="0"/>
			<stop stop-color="#fff" stop-opacity=".25" offset=".515"/>
		</linearGradient>
		<linearGradient id="c" x1="830.55" x2="826.25" y1="276.73" y2="153.47" gradientTransform="translate(-9.825 -107.29) scale(.65067)" gradientUnits="userSpaceOnUse">
			<stop stop-color="#fff" offset="0"/>
			<stop stop-color="#fff" stop-opacity=".25" offset=".515"/>
		</linearGradient>
	</defs>
</svg>
