<svg xmlns="http://www.w3.org/2000/svg" viewBox="0 0 801.08 262.5" ><g transform="matrix(.65155 0 0 .65155 -9.837995 -107.440593)"><path d="M126.7 314.7c0 21.5-14 37.1-42.6 40.2-20.6 2.2-50.5-.4-64.7-2-.5-2.3-.9-5.2-.9-7.5 0-18.7 10.1-23 19.6-23 9.9 0 25.5 1.7 37 1.7 12.8 0 16.6-4.3 16.6-8.4 0-5.4-5.1-7.6-15-9.5L49.6 301c-22.5-4.3-34.5-19.8-34.5-36.3 0-20 14.2-36.8 42.2-39.9 21.1-2.3 46.9.3 61 2 .5 2.4.8 4.7.8 7.2 0 18.7-9.9 22.7-19.4 22.7-7.3 0-18.6-1.3-31.6-1.3-13.2 0-18.6 3.6-18.6 8 0 4.7 5.2 6.6 13.4 8.1l25.8 4.8c26.6 4.9 38 19.9 38 38.4m46.3 23c0 11.5-4.5 18.1-27 18.1-3 0-5.6-.2-8.1-.6V202.9c0-11.6 3.9-23.7 26.6-23.7 2.9 0 5.8.3 8.5.9zm91.9 59c3 1.5 9 3.4 16.6 3.5 13.1.3 20.2-4.7 25.5-16.4l70-155.7c-2.9-1.5-9.3-3.3-14.5-3.4-9-.2-21.1 1.6-28.8 20L310.9 298l-44.5-72.3c-2.9-.9-9.9-2.1-15-2.1-15.8 0-24.5 5.8-33.6 15.6l-43.2 47.2 34.8 54.7c6.4 10 14.9 15.1 28.6 15.1 9 0 16.5-2.1 20-3.7l-41.9-63 29.7-31.5 48.7 76.3z" fill="#ff0031"/><linearGradient id="A" x1="414.37" x2="1244.631" y1="289.839" y2="289.839" gradientUnits="userSpaceOnUse"><stop stop-color="#ff0031" offset="0"/><stop stop-color="#9b001f" offset="1"/></linearGradient><path d="M1228 164.9H430.9c-9.2 0-16.7 7.5-16.7 16.7v216.5c0 9.2 7.5 16.7 16.7 16.7h797c9.2 0 16.7-7.5 16.7-16.7V181.5c-.1-9.2-7.4-16.6-16.6-16.6" fill="url(#A)"/><linearGradient id="B" x1="197.483" x2="194.588" y1="295.135" y2="212.243" gradientUnits="userSpaceOnUse"><stop stop-color="#fff" offset="0"/><stop stop-color="#fff" stop-opacity=".25" offset=".515"/></linearGradient><path d="M138 202.9v104.5c0-4.2 3.2-8.6 8.6-8.8l17.6-.6c3.5-.1 8.8-2.5 8.9-8.9v-109c-2.7-.6-5.6-.9-8.5-.9-22.7.1-26.6 12.1-26.6 23.7m80 36.4l-43.2 47.2 3.5 5.4c1.5 2 4.4 5.4 10.2 5.2l24.6-.9c5.4-.2 8.8 2.1 10.9 4.9l-7.7-11.6L246 258l19.9 31.3c3.6 4.7 9 4.8 10.2 4.8 1 0 27.2-.9 28.3-1 1.8-.1 3.9.9 5.5 3.2l-43.3-70.4c-2.9-.9-9.9-2.1-15-2.1-15.8-.1-24.5 5.6-33.6 15.5M57.3 224.8c-28 3.1-42.2 19.8-42.2 39.9 0 10.3 4.7 20.2 13.7 27.3 6.8 4.5 13.8 6.2 20.7 7.4 5.7 1 19 1.9 28.9 1.5l30.8-1.1c11.6-.4 17.8 9.5 17.2 19.4v-.5c.1-1.3.2-2.6.2-3.9 0-18.5-11.4-33.6-37.9-38.5l-25.8-4.8c-8.3-1.4-13.4-3.4-13.4-8.1 0-4.4 5.5-8.1 18.6-8.1 13 0 24.3 1.3 31.6 1.3 9.5 0 19.4-4 19.4-22.7 0-2.5-.3-4.8-.8-7.2-10.1-1.2-26.3-2.9-42.4-2.9-6.3.1-12.6.4-18.6 1m276.2 19.9l-22.1 52.1c0-.1 1.4-4.1 5.7-4.3l23.4-.8c7.1-.3 9.9-5.1 10.7-6.7l25.6-57.1c-2.9-1.5-9.3-3.3-14.5-3.4h-1.1c-8.9.1-20.3 2.5-27.7 20.2" fill="url(#B)" opacity=".3" enable-background="new"/><linearGradient id="C" x1="830.555" x2="826.25" y1="276.73" y2="153.473" gradientUnits="userSpaceOnUse"><stop stop-color="#fff" offset="0"/><stop stop-color="#fff" stop-opacity=".25" offset=".515"/></linearGradient><path d="M430.9 164.9c-9.2 0-16.7 7.5-16.7 16.7v120.2c0-1.8.7-11.7 12-12.8 0 0 .6-.1 1.6-.1l804.4-28.2c6.3-.2 12.4-4.9 12.4-12.7v-66.3c0-9.2-7.5-16.7-16.7-16.7z" fill="url(#C)" opacity=".3" enable-background="new"/><g fill="#fff"><path d="M1190.1 275.3v74.5c-2 .5-5.4 1-8.8 1-7 0-10.1-2.5-10.1-7.4v-9.8c-11.1 11.7-24.3 18.6-41.8 18.6-26.3 0-40.8-16.8-40.8-35.6 0-28.4 30.7-40.8 82.6-37.4V276c0-18.1-5.9-28.9-28.9-28.9-11.9 0-22.2 2.6-29.2 4.9-3.6 1-6.4 1.9-8.3 1.9-5.4 0-8.5-4.9-7.3-15.2 11.7-4.4 29.2-8.3 45.6-8.3 34.3.1 47 17.2 47 44.9m-19.1 40.8v-22.5c-33.8-1.5-63 1.8-63 22.7 0 10.3 8.8 19.9 24.5 19.9 16 0 29.5-8.1 38.5-20.1m-709.6-25c0-34.8 25.8-60.7 59.6-60.7 16.2 0 30.7 4.4 40.8 9.6 1 10.6-2.9 15-7.8 15-6.9 0-14.5-7.5-32.3-7.5-22.5 0-40.8 16.8-40.8 43.9s18.3 44.4 40.8 44.4c17.8 0 25.5-7.5 32.3-7.5 4.9 0 8.8 4.4 7.8 15-10.3 4.9-24.8 9.3-40.8 9.3-33.8-.5-59.6-26.7-59.6-61.5m413.8 7.8h-91.1c2.9 22.7 18.9 35.8 42.4 35.8 10.1 0 17.8-2.3 25.3-4.6 4.9-1.8 7.5-2.8 9.6-2.8 4.9 0 8.5 4.6 7.3 15.2-10.3 4.6-26.1 9.6-42.9 9.6-36.4 0-61.5-24.8-61.5-61.2 0-35.1 26.1-60.6 58.3-60.6 35.9 0 53.7 28.7 53.7 56.6-.1 3.7-.4 7.6-1.1 12m-91-15.7h73.3c-.8-20.1-13.7-35.9-34.8-35.9-18.8-.2-35.4 12.4-38.5 35.9m-201.8-77.6c0-7.2 5.7-12.4 12.4-12.4 6.9 0 12.2 5.4 12.2 12.4 0 6.4-5.4 12.2-12.2 12.2s-12.4-5.9-12.4-12.2m2.7 144.1V239.3c0-4.4 2.4-7.3 10.3-7.3 3.1 0 6.9.8 8.8 1.3v110.2c0 4.6-2.6 7.3-10.3 7.3-3.2-.1-6.9-.6-8.8-1.1"/><path d="M1064.5 272.9v70.5c0 4.6-2.6 7.3-10.3 7.3-3.1 0-6.9-.5-8.8-1V275c0-17.3-8.3-27.6-23.8-27.6-13.2 0-24.5 9.6-28.9 19.1v76.9c0 4.6-2.4 7.3-10.1 7.3-3.4 0-7-.5-9-1V275c0-17.3-8-27.6-23.8-27.6-13.2 0-24.5 9.6-28.9 19.1v76.9c0 4.6-2.4 7.3-10.1 7.3-3.4 0-7.2-.5-8.8-1V233.2c2-.5 5.7-1.3 8.8-1.3 7.3 0 9.8 2.9 9.8 7.8v8.3c7.5-10.1 19.4-17.6 33.8-17.6 15.5 0 27.6 8 33.8 21.2 8-11.7 20.4-21.2 37.7-21.2 25.2.1 38.6 19.2 38.6 42.5m-325.3 7.5v63c0 4.6-2.4 7.3-10.1 7.3-3.1 0-6.9-.5-8.8-1V283c0-24-11.9-35.4-29.4-35.4-13.9 0-28.9 9.8-35.1 21.1v74.9c0 4.6-2.5 7.3-10.1 7.3-3.4 0-7-.5-8.8-1V233.2c1.8-.5 5.4-1.3 8.8-1.3 7.5 0 10.1 2.9 10.1 7.3v10.1c8.5-10.3 21.5-18.9 39.2-18.9 24.1.1 44.2 15.4 44.2 50"/></g></g><path d="M457.598 197.991c1.966-.575 4.265-.153 5.723 1.342 2.239 2.059 2.292 6.008.023 8.067-2.308 2.491-6.809 2.063-8.642-.784-2.189-2.923-.591-7.603 2.896-8.625zm-154.638 2.451c.857-.907 2.175-1.06 3.355-1.152 1.87-.066 3.746.126 5.593.428l.003 56.257c0 1.418.146 2.959-.668 4.208-.631 1.129-1.983 1.528-3.188 1.637-2.069.173-4.152-.05-6.191-.392l-.007-57.276c-.01-1.299.163-2.727 1.103-3.71zm-34.94 2.946c5.218-2.046 10.974-2.136 16.467-1.402 3.707.555 7.35 1.558 10.824 2.959.316 2.464.345 5.364-1.515 7.267-1.103 1.249-2.959 1.422-4.474.94-2.063-.644-4.105-1.398-6.244-1.757-4.258-.727-8.845-.458-12.691 1.654-5.214 2.647-8.632 8.021-9.685 13.677-.99 5.493-.558 11.399 1.989 16.431 1.936 3.896 5.381 7.028 9.506 8.453 5.112 1.754 10.801 1.249 15.783-.707 1.704-.697 3.783-.91 5.414.093 1.611.917 2.292 2.866 2.318 4.637-.017 1.033.143 2.116-.179 3.119-6.254 2.81-13.249 3.74-20.057 3.275-6.397-.518-12.654-3.222-17.224-7.759-4.411-4.211-7.214-9.947-8.313-15.909-1.219-6.908-.511-14.258 2.594-20.596 3.072-6.536 8.705-11.844 15.487-14.375zm55.449 15.779c5.716-1.833 11.721-2.866 17.733-2.717 4.902-.06 10.296.764 13.94 4.348 3.275 3.252 3.996 8.087 4.145 12.498l.03 14.043c-.04 4.61.618 9.22 1.916 13.644-2.086.774-4.374 1.136-6.58.737-1.515-.282-2.797-1.388-3.404-2.783-.767-1.714-.797-3.624-.98-5.46-1.435 2.043-2.946 4.115-5.055 5.517-3.929 2.783-8.984 3.481-13.674 2.856-3.195-.458-6.347-1.853-8.529-4.278-2.285-2.464-3.355-5.899-3.228-9.227-.017-3.836 1.481-7.788 4.484-10.27 3.082-2.564 7.091-3.723 11.023-4.092 4.839-.478 9.712.08 14.484.913-.027-2.66.149-5.62-1.485-7.895-1.75-2.189-4.803-2.405-7.393-2.498-3.232-.063-6.443.478-9.552 1.325-1.651.412-3.348 1.006-5.068.678-1.103-.209-1.877-1.152-2.262-2.149-.714-1.634-.578-3.454-.545-5.191m13.152 21.725c-1.777.365-3.557 1.026-4.919 2.262-1.91 1.73-2.511 4.67-1.621 7.058.684 1.797 2.451 2.923 4.248 3.384 3.461.864 7.31.159 10.177-1.986 2.258-1.73 4.142-3.999 5.304-6.603.116-1.236.013-2.481.043-3.72-4.354-.751-8.851-1.229-13.232-.395zm37.266-21.936c2.328-1.202 4.896-1.896 7.5-2.156 6.988-.707 14.036.515 20.672 2.694.186 1.873.186 3.906-.774 5.59a3.11 3.11 0 0 1-2.604 1.584c-3.086.239-5.899-1.322-8.914-1.621-2.607-.289-5.251-.402-7.855-.027-1.159.193-2.351.521-3.265 1.299-1.621 1.285-1.604 4.231.229 5.324 1.983 1.282 4.361 1.687 6.593 2.351 4.331 1.275 8.845 2.192 12.804 4.461 2.069 1.156 3.909 2.843 4.922 5.019 1.408 3.002 1.335 6.543.306 9.652-.874 2.783-3.046 5.028-5.62 6.33-2.71 1.448-5.759 2.152-8.808 2.375-7.337.571-14.723-.754-21.648-3.155-.266-2.099-.306-4.527 1.176-6.218.854-1.033 2.298-1.192 3.547-1 2.697.395 5.254 1.418 7.941 1.873 2.607.535 5.284.581 7.931.428 1.694-.169 3.501-.502 4.846-1.624 1.295-1.043 1.478-2.943 1.079-4.457-.528-1.621-2.268-2.268-3.71-2.85-4.51-1.621-9.266-2.464-13.734-4.218-2.597-1.046-5.211-2.415-6.942-4.693-2.348-3.109-2.68-7.456-1.292-11.04 1.003-2.617 3.142-4.68 5.62-5.922zm39.225 1.976c3.657-3.225 8.709-4.275 13.461-4.314 5.985-.156 11.924 1.026 17.593 2.873.186 1.926.189 4.029-.864 5.729-.505.854-1.461 1.382-2.438 1.445-1.843.136-3.657-.316-5.404-.847-2.77-.864-5.696-1.05-8.582-1.03-2.079.11-4.384.153-6.098 1.498-1.302 1.013-1.531 2.969-.784 4.381.797 1.166 2.202 1.681 3.477 2.149 4.092 1.279 8.29 2.212 12.349 3.6 3.159 1.162 6.457 2.634 8.509 5.427 2.229 2.979 2.438 7.025 1.518 10.522-.678 2.674-2.451 5.009-4.779 6.467-3.036 1.923-6.626 2.793-10.183 3.022-7.237.508-14.514-.807-21.339-3.175-.329-2.182-.306-4.773 1.362-6.437 1.259-1.186 3.152-.883 4.693-.541 3.507.86 6.985 2.023 10.632 2.112 2.684.037 5.54.146 7.988-1.136 2.471-1.199 2.836-5.298.425-6.739-2.471-1.498-5.354-2.033-8.084-2.863-4.64-1.338-9.609-2.415-13.411-5.573-4.846-4.089-4.743-12.415-.04-16.57zm44.004-3.833c2.361-.485 4.806-.163 7.161.209l-.01 40.666c.003 1.657-1.119 3.341-2.81 3.65-2.355.515-4.796.176-7.147-.176l-.003-40.676c-.046-1.681 1.119-3.355 2.81-3.673zm19.931 7.652c3.305-4.235 8.32-7.054 13.627-7.795 6.241-.83 12.777.149 18.294 3.265.126 1.83.199 3.81-.771 5.444-.624 1.162-1.913 1.97-3.252 1.85-1.734-.103-3.291-.967-4.942-1.422-3.783-1.202-8.164-1.083-11.591 1.063-3.315 2.033-5.261 5.776-5.786 9.552-.438 3.358-.133 6.902 1.378 9.971a11.94 11.94 0 0 0 5.762 5.6c3.467 1.631 7.553 1.524 11.126.282 1.857-.545 3.653-1.697 5.666-1.365 1.714.219 2.89 1.827 3.095 3.461.159 1.249.272 2.614-.173 3.803-4.603 2.551-9.911 3.697-15.155 3.59-6.018.1-12.063-2.335-16.198-6.732-7.619-8.141-7.971-21.874-1.083-30.566zm41.228-3.646c2.853-2.674 6.772-3.896 10.588-4.311 6.985-.691 14.033.525 20.662 2.71.183 2.252.199 5.028-1.714 6.589-1.803 1.136-4.092.438-6.018.013-3.624-1.209-7.5-1.511-11.289-1.216-1.604.153-3.355.412-4.563 1.578-1.491 1.335-1.368 4.099.375 5.168 2.066 1.335 4.55 1.724 6.865 2.435 4.769 1.398 9.834 2.381 13.966 5.307 2.461 1.701 4.138 4.47 4.461 7.453.452 3.913-.638 8.267-3.727 10.897-2.973 2.521-6.882 3.67-10.708 4.045-7.549.714-15.165-.644-22.299-3.086-.252-2.172-.316-4.733 1.345-6.397.947-1.003 2.441-.99 3.707-.787 2.574.425 5.025 1.392 7.603 1.82 2.73.558 5.54.608 8.31.402 1.926-.236 4.135-.737 5.248-2.494.907-1.717.681-4.294-1.143-5.327-2.481-1.475-5.364-2.013-8.094-2.843-4.63-1.338-9.605-2.405-13.378-5.59-4.759-4.025-4.716-12.179-.196-16.367z"/></svg>