<svg xmlns="http://www.w3.org/2000/svg" viewBox="0 0 801.08 262.5" ><g transform="translate(26.208 .743)"><g transform="matrix(.65155 0 0 .65155 -36.045995 -108.183683)"><path d="M126.7 314.7c0 21.5-14 37.1-42.6 40.2-20.6 2.2-50.5-.4-64.7-2-.5-2.3-.9-5.2-.9-7.5 0-18.7 10.1-23 19.6-23 9.9 0 25.5 1.7 37 1.7 12.8 0 16.6-4.3 16.6-8.4 0-5.4-5.1-7.6-15-9.5L49.6 301c-22.5-4.3-34.5-19.8-34.5-36.3 0-20 14.2-36.8 42.2-39.9 21.1-2.3 46.9.3 61 2 .5 2.4.8 4.7.8 7.2 0 18.7-9.9 22.7-19.4 22.7-7.3 0-18.6-1.3-31.6-1.3-13.2 0-18.6 3.6-18.6 8 0 4.7 5.2 6.6 13.4 8.1l25.8 4.8c26.6 4.9 38 19.9 38 38.4m46.3 23c0 11.5-4.5 18.1-27 18.1-3 0-5.6-.2-8.1-.6V202.9c0-11.6 3.9-23.7 26.6-23.7 2.9 0 5.8.3 8.5.9zm91.9 59c3 1.5 9 3.4 16.6 3.5 13.1.3 20.2-4.7 25.5-16.4l70-155.7c-2.9-1.5-9.3-3.3-14.5-3.4-9-.2-21.1 1.6-28.8 20L310.9 298l-44.5-72.3c-2.9-.9-9.9-2.1-15-2.1-15.8 0-24.5 5.8-33.6 15.6l-43.2 47.2 34.8 54.7c6.4 10 14.9 15.1 28.6 15.1 9 0 16.5-2.1 20-3.7l-41.9-63 29.7-31.5 48.7 76.3z" fill="#ff0031"/><linearGradient id="A" x1="414.37" x2="1244.631" y1="289.839" y2="289.839" gradientUnits="userSpaceOnUse"><stop stop-color="#ff0031" offset="0"/><stop stop-color="#9b001f" offset="1"/></linearGradient><path d="M1228 164.9H430.9c-9.2 0-16.7 7.5-16.7 16.7v216.5c0 9.2 7.5 16.7 16.7 16.7h797c9.2 0 16.7-7.5 16.7-16.7V181.5c-.1-9.2-7.4-16.6-16.6-16.6" fill="url(#A)"/><linearGradient id="B" x1="197.483" x2="194.588" y1="295.135" y2="212.243" gradientUnits="userSpaceOnUse"><stop stop-color="#fff" offset="0"/><stop stop-color="#fff" stop-opacity=".25" offset=".515"/></linearGradient><path d="M138 202.9v104.5c0-4.2 3.2-8.6 8.6-8.8l17.6-.6c3.5-.1 8.8-2.5 8.9-8.9v-109c-2.7-.6-5.6-.9-8.5-.9-22.7.1-26.6 12.1-26.6 23.7m80 36.4l-43.2 47.2 3.5 5.4c1.5 2 4.4 5.4 10.2 5.2l24.6-.9c5.4-.2 8.8 2.1 10.9 4.9l-7.7-11.6L246 258l19.9 31.3c3.6 4.7 9 4.8 10.2 4.8 1 0 27.2-.9 28.3-1 1.8-.1 3.9.9 5.5 3.2l-43.3-70.4c-2.9-.9-9.9-2.1-15-2.1-15.8-.1-24.5 5.6-33.6 15.5M57.3 224.8c-28 3.1-42.2 19.8-42.2 39.9 0 10.3 4.7 20.2 13.7 27.3 6.8 4.5 13.8 6.2 20.7 7.4 5.7 1 19 1.9 28.9 1.5l30.8-1.1c11.6-.4 17.8 9.5 17.2 19.4v-.5c.1-1.3.2-2.6.2-3.9 0-18.5-11.4-33.6-37.9-38.5l-25.8-4.8c-8.3-1.4-13.4-3.4-13.4-8.1 0-4.4 5.5-8.1 18.6-8.1 13 0 24.3 1.3 31.6 1.3 9.5 0 19.4-4 19.4-22.7 0-2.5-.3-4.8-.8-7.2-10.1-1.2-26.3-2.9-42.4-2.9-6.3.1-12.6.4-18.6 1m276.2 19.9l-22.1 52.1c0-.1 1.4-4.1 5.7-4.3l23.4-.8c7.1-.3 9.9-5.1 10.7-6.7l25.6-57.1c-2.9-1.5-9.3-3.3-14.5-3.4h-1.1c-8.9.1-20.3 2.5-27.7 20.2" fill="url(#B)" opacity=".3" enable-background="new"/><linearGradient id="C" x1="830.555" x2="826.25" y1="276.73" y2="153.473" gradientUnits="userSpaceOnUse"><stop stop-color="#fff" offset="0"/><stop stop-color="#fff" stop-opacity=".25" offset=".515"/></linearGradient><path d="M430.9 164.9c-9.2 0-16.7 7.5-16.7 16.7v120.2c0-1.8.7-11.7 12-12.8 0 0 .6-.1 1.6-.1l804.4-28.2c6.3-.2 12.4-4.9 12.4-12.7v-66.3c0-9.2-7.5-16.7-16.7-16.7z" fill="url(#C)" opacity=".3" enable-background="new"/><g fill="#fff"><path d="M1190.1 275.3v74.5c-2 .5-5.4 1-8.8 1-7 0-10.1-2.5-10.1-7.4v-9.8c-11.1 11.7-24.3 18.6-41.8 18.6-26.3 0-40.8-16.8-40.8-35.6 0-28.4 30.7-40.8 82.6-37.4V276c0-18.1-5.9-28.9-28.9-28.9-11.9 0-22.2 2.6-29.2 4.9-3.6 1-6.4 1.9-8.3 1.9-5.4 0-8.5-4.9-7.3-15.2 11.7-4.4 29.2-8.3 45.6-8.3 34.3.1 47 17.2 47 44.9m-19.1 40.8v-22.5c-33.8-1.5-63 1.8-63 22.7 0 10.3 8.8 19.9 24.5 19.9 16 0 29.5-8.1 38.5-20.1m-709.6-25c0-34.8 25.8-60.7 59.6-60.7 16.2 0 30.7 4.4 40.8 9.6 1 10.6-2.9 15-7.8 15-6.9 0-14.5-7.5-32.3-7.5-22.5 0-40.8 16.8-40.8 43.9s18.3 44.4 40.8 44.4c17.8 0 25.5-7.5 32.3-7.5 4.9 0 8.8 4.4 7.8 15-10.3 4.9-24.8 9.3-40.8 9.3-33.8-.5-59.6-26.7-59.6-61.5m413.8 7.8h-91.1c2.9 22.7 18.9 35.8 42.4 35.8 10.1 0 17.8-2.3 25.3-4.6 4.9-1.8 7.5-2.8 9.6-2.8 4.9 0 8.5 4.6 7.3 15.2-10.3 4.6-26.1 9.6-42.9 9.6-36.4 0-61.5-24.8-61.5-61.2 0-35.1 26.1-60.6 58.3-60.6 35.9 0 53.7 28.7 53.7 56.6-.1 3.7-.4 7.6-1.1 12m-91-15.7h73.3c-.8-20.1-13.7-35.9-34.8-35.9-18.8-.2-35.4 12.4-38.5 35.9m-201.8-77.6c0-7.2 5.7-12.4 12.4-12.4 6.9 0 12.2 5.4 12.2 12.4 0 6.4-5.4 12.2-12.2 12.2s-12.4-5.9-12.4-12.2m2.7 144.1V239.3c0-4.4 2.4-7.3 10.3-7.3 3.1 0 6.9.8 8.8 1.3v110.2c0 4.6-2.6 7.3-10.3 7.3-3.2-.1-6.9-.6-8.8-1.1"/><path d="M1064.5 272.9v70.5c0 4.6-2.6 7.3-10.3 7.3-3.1 0-6.9-.5-8.8-1V275c0-17.3-8.3-27.6-23.8-27.6-13.2 0-24.5 9.6-28.9 19.1v76.9c0 4.6-2.4 7.3-10.1 7.3-3.4 0-7-.5-9-1V275c0-17.3-8-27.6-23.8-27.6-13.2 0-24.5 9.6-28.9 19.1v76.9c0 4.6-2.4 7.3-10.1 7.3-3.4 0-7.2-.5-8.8-1V233.2c2-.5 5.7-1.3 8.8-1.3 7.3 0 9.8 2.9 9.8 7.8v8.3c7.5-10.1 19.4-17.6 33.8-17.6 15.5 0 27.6 8 33.8 21.2 8-11.7 20.4-21.2 37.7-21.2 25.2.1 38.6 19.2 38.6 42.5m-325.3 7.5v63c0 4.6-2.4 7.3-10.1 7.3-3.1 0-6.9-.5-8.8-1V283c0-24-11.9-35.4-29.4-35.4-13.9 0-28.9 9.8-35.1 21.1v74.9c0 4.6-2.5 7.3-10.1 7.3-3.4 0-7-.5-8.8-1V233.2c1.8-.5 5.4-1.3 8.8-1.3 7.5 0 10.1 2.9 10.1 7.3v10.1c8.5-10.3 21.5-18.9 39.2-18.9 24.1.1 44.2 15.4 44.2 50"/></g></g><path d="M322.076 243.541q-3.22 0-4.876-.46v-35.788h-6.164q-.184-.644-.276-1.656-.092-1.012-.092-2.024 0-2.3.92-3.22 1.012-.92 2.484-.92h3.128v-4.876q0-7.912 4.324-11.684 4.416-3.864 11.5-3.864 3.496 0 6.808.644 3.312.644 5.704 1.472v1.38q0 3.036-1.104 4.416-1.012 1.288-2.944 1.288-1.472 0-3.128-.46-1.656-.46-4.6-.46-2.944 0-4.784 1.748-1.748 1.748-1.748 6.164v4.232h13.8q.46 1.38.46 3.68 0 2.3-1.012 3.22-.92.92-2.392.92h-10.856v32.016q0 1.84-1.104 3.036-1.104 1.196-4.048 1.196zm40.572.276q-3.312 0-6.256-1.104-2.944-1.104-5.152-3.404-2.208-2.3-3.496-5.796-1.288-3.588-1.288-8.464v-22.632q0-1.84 1.104-3.036 1.104-1.196 3.956-1.196 1.472 0 2.852.184 1.38.092 2.116.276v25.576q0 5.796 2.668 8.464 2.76 2.668 6.992 2.668 3.036 0 5.888-1.656 2.852-1.656 4.784-4.876v-26.404q0-1.84 1.104-3.036 1.104-1.196 3.956-1.196 1.472 0 2.852.184 1.472.092 2.208.276v26.956q0 2.76 0 4.968.092 2.116.276 4.048.184 1.932.46 3.864.276 1.84.736 4.048-2.208 1.012-5.152 1.012-2.392 0-3.496-.828-1.104-.828-1.564-1.932-.46-1.196-.552-2.576 0-1.38-.184-2.484h-.092q-2.392 3.588-5.98 5.888-3.496 2.208-8.74 2.208zm39.928-.276q-1.38 0-2.852-.184-1.38-.092-2.116-.276v-44.16q1.012-.276 2.024-.46 1.104-.276 2.392-.276 2.852 0 4.048 1.564 1.288 1.472 1.288 4.048l.092 1.288q2.3-3.22 5.98-5.244 3.772-2.116 8.464-2.116 7.452 0 11.776 4.876 4.324 4.876 4.324 13.984v22.724q0 1.84-1.104 3.036-1.012 1.196-3.956 1.196-1.38 0-2.852-.184-1.38-.092-2.116-.276v-25.392q0-5.888-2.576-8.648-2.576-2.76-7.268-2.76-2.944 0-5.98 1.656-2.944 1.656-4.508 4.416v26.956q0 1.84-1.104 3.036-1.012 1.196-3.956 1.196z"/></g></svg>