<?xml version="1.0" encoding="UTF-8"?>
<svg width="800" height="193.51" version="1.1" xmlns="http://www.w3.org/2000/svg">
	<defs>
		<linearGradient id="A" x1="414.37" x2="1244.6" y1="289.84" y2="289.84" gradientTransform="matrix(.51516 0 0 .51516 -7.7789 -84.95)" gradientUnits="userSpaceOnUse">
			<stop stop-color="#ff0031" offset="0"/>
			<stop stop-color="#9b001f" offset="1"/>
		</linearGradient>
		<linearGradient id="B" x1="197.48" x2="194.59" y1="295.14" y2="212.24" gradientTransform="matrix(.51516 0 0 .51516 -7.7789 -84.95)" gradientUnits="userSpaceOnUse">
			<stop stop-color="#fff" offset="0"/>
			<stop stop-color="#fff" stop-opacity=".25" offset=".515"/>
		</linearGradient>
		<linearGradient id="C" x1="830.55" x2="826.25" y1="276.73" y2="153.47" gradientTransform="matrix(.51516 0 0 .51516 -7.7789 -84.95)" gradientUnits="userSpaceOnUse">
			<stop stop-color="#fff" offset="0"/>
			<stop stop-color="#fff" stop-opacity=".25" offset=".515"/>
		</linearGradient>
	</defs>
	<path d="m298.2 193.15q-1.1639 0-2.3277-0.14549-1.0911-0.0727-1.673-0.21822v-44.081q0-1.4548 0.8729-2.4005 0.94564-1.0184 3.2734-1.0184 1.1639 0 2.255 0.14548 1.1639 0.0727 1.7458 0.21823v44.081q0 1.4548-0.94564 2.4732-0.87289 0.94564-3.2006 0.94564zm17.021 0q-1.0911 0-2.255-0.14549-1.0911-0.0727-1.673-0.21822v-34.916q0.80016-0.21823 1.6003-0.36371 0.8729-0.21822 1.8913-0.21822 2.255 0 3.2006 1.2366 1.0184 1.1639 1.0184 3.2006l0.0727 1.0184q1.8185-2.546 4.7282-4.1463 2.9824-1.673 6.6922-1.673 5.892 0 9.3109 3.8553t3.4188 11.057v17.967q0 1.4548-0.87289 2.4005-0.80016 0.94564-3.1279 0.94564-1.0911 0-2.255-0.14549-1.0911-0.0727-1.673-0.21822v-20.077q0-4.6554-2.0368-6.8377t-5.7466-2.1822q-2.3277 0-4.7282 1.3094-2.3277 1.3093-3.5643 3.4916v21.313q0 1.4548-0.8729 2.4005-0.80015 0.94564-3.1279 0.94564zm54.847-0.43645q-2.6914 0-3.4916-1.0184-0.72742-1.0911-0.72742-2.7642v-40.226q0-1.4548 0.8729-2.4005 0.94564-1.0184 3.2734-1.0184 1.1639 0 2.255 0.14548 1.1639 0.0727 1.7458 0.21823v39.644h22.477q0.14548 0.80016 0.21822 1.673 0.14548 0.80016 0.14548 1.6731 0 2.3277-1.0184 3.2006-0.94564 0.8729-2.6914 0.8729zm46.991 0.72741q-4.0735 0-7.4196-1.3821-3.3461-1.4548-5.7466-3.8553-2.4005-2.4732-3.7098-5.8193t-1.3093-7.2014q0-3.7098 1.3093-6.9832 1.3821-3.3461 3.7826-5.8193t5.7466-3.928 7.3469-1.4548 7.3469 1.4548 5.6738 3.928q2.4005 2.4732 3.7098 5.8193 1.3094 3.2734 1.3094 6.9832t-1.3094 7.0559q-1.2366 3.3461-3.6371 5.8193-2.3277 2.4732-5.6738 3.928t-7.4196 1.4548zm0-6.5467q1.8185 0 3.5643-0.72741 1.8185-0.72741 3.2006-2.1822 1.4548-1.4548 2.3277-3.6371 0.87289-2.1822 0.87289-5.1646 0-2.6914-0.80015-4.8737-0.80016-2.1822-2.1822-3.6371-1.3094-1.5276-3.1279-2.3277-1.8185-0.80015-3.8553-0.80015-1.964 0-3.7826 0.80015-1.8185 0.80016-3.2734 2.3277-1.3821 1.4548-2.255 3.6371-0.80015 2.1822-0.80015 4.8737 0 2.9096 0.87289 5.0919 0.8729 2.1822 2.255 3.7098 1.4548 1.4548 3.2734 2.1822 1.8185 0.72741 3.7098 0.72741zm36.298 6.3285q-1.0184 0-2.1095-0.14548-1.0184-0.14549-1.964-0.50919l-12.73-34.334q0.80016-0.3637 1.964-0.65467 1.2366-0.29096 2.3277-0.29096 1.3821 0 2.4732 0.3637 1.1639 0.36371 1.7458 1.964l4.8737 14.403q1.0184 3.0551 1.8913 5.7466 0.94564 2.6914 1.7458 5.7466h0.14549q0.80015-3.0551 1.7458-5.6738 1.0184-2.6914 2.0368-5.8193l4.8009-14.33q0.50919-1.4548 1.6003-1.8913 1.1639-0.50919 2.6187-0.50919 0.94563 0 2.1095 0.29096 1.2366 0.21823 1.964 0.58193l-12.002 32.006q-0.65467 1.7458-1.8185 2.4005-1.1639 0.65467-3.4188 0.65467zm37.535 0.29096q-4.4372 0-7.9288-1.3821t-5.892-3.8553q-2.4005-2.4732-3.7098-5.8193-1.2366-3.4188-1.2366-7.3469t1.3093-7.2014q1.3094-3.3461 3.5643-5.7466 2.3277-2.4732 5.4556-3.8553t6.7649-1.3821q4.0735 0 7.2014 1.5276 3.1279 1.4548 5.1646 3.928 2.1095 2.4732 3.1279 5.6011 1.0911 3.1279 1.0911 6.4012 0 1.8185-0.36371 3.6371h-25.241q0.50919 4.219 3.2734 6.474 2.8369 2.1822 7.4196 2.1822 1.964 0 3.4188-0.29097 1.4548-0.29096 2.6187-0.65467 1.1639-0.43645 2.1095-0.72741 0.94563-0.29097 1.8913-0.29097 1.3093 0 2.1095 1.1639 0.87289 1.1639 0.87289 3.1279 0 0.36371-0.0727 0.80016 0 0.43644-0.0727 0.87289-2.1822 1.0184-5.4556 1.964-3.2734 0.87289-7.4196 0.87289zm7.4924-21.168q-0.3637-3.928-2.6914-6.5467-2.255-2.6914-6.474-2.6914-4.0008 0-6.4012 2.546-2.3277 2.5459-2.6914 6.6922z"/>
	<path d="m793.75 0c3.4608 0 6.2502 2.8171 6.2502 6.2502v116.24a6.2779 6.2779 0 0 1-6.2502 6.2502h-163.07c-3.4607 0-6.2502-2.8164-6.2502-6.2502v-116.21c0-3.4607 2.8171-6.2502 6.2502-6.2502h163.07" fill="#bbb"/>
	<path d="m714.58 38.576v49.548c0 2.1728-1.0998 3.3801-4.4799 3.3801-1.5292 0-2.9508-0.21427-4.0506-0.42933v-22.802h-28.274v19.878c0 2.1728-1.0998 3.3801-4.4799 3.3801-1.6367 0-3.2726-0.21427-4.0506-0.42933v-49.575c0-2.0921 1.0998-3.3801 4.5874-3.3801 1.5292 0 3.0314 0.21427 3.9162 0.42933v22.051h28.141v-19.1c0-2.0921 1.2074-3.3801 4.695-3.3801 1.6098 0 3.1121 0.21427 3.9968 0.42933m58.003 26.182c0 14.861-10.381 26.101-26.638 26.101h-15.157c-3.2726 0-4.4799-1.3141-4.4799-3.3801v-45.309c0-2.0652 1.2074-3.3801 4.4799-3.3801h15.157c16.257 0 26.638 11.133 26.638 25.968m-8.638 0c0-11.133-6.9745-18.349-18-18.349h-11.133v36.779h11.133c11.026 0.02688 18-7.1895 18-18.43" fill="#9c001f"/>
	<path d="m57.492 77.171c0 11.076-7.2122 19.112-21.946 20.709-10.612 1.1333-26.016-0.20606-33.331-1.0303-0.25758-1.1849-0.46364-2.6788-0.46364-3.8637 0-9.6335 5.2031-11.849 10.097-11.849 5.1001 0 13.137 0.87577 19.061 0.87577 6.594 0 8.5516-2.2152 8.5516-4.3273 0-2.7819-2.6273-3.9152-7.7274-4.894l-13.961-2.6788c-11.591-2.2152-17.773-10.2-17.773-18.7 0-10.303 7.3153-18.958 21.74-20.555 10.87-1.1849 24.161 0.15455 31.425 1.0303 0.25758 1.2364 0.41213 2.4212 0.41213 3.7091 0 9.6335-5.1001 11.694-9.9941 11.694-3.7607 0-9.582-0.66971-16.279-0.66971-6.8001 0-9.582 1.8546-9.582 4.1213 0 2.4212 2.6788 3.4 6.9031 4.1728l13.291 2.4728c13.703 2.5243 19.576 10.252 19.576 19.782m23.852 11.849c0 5.9243-2.3182 9.3244-13.909 9.3244-1.5455 0-2.8849-0.10303-4.1728-0.3091v-78.459c0-5.9758 2.0091-12.209 13.703-12.209 1.494 0 2.9879 0.15455 4.3789 0.46364zm47.343 30.394c1.5455 0.77274 4.6364 1.7515 8.5516 1.8031 6.7486 0.15454 10.406-2.4212 13.137-8.4486l36.061-80.21c-1.494-0.77274-4.791-1.7-7.4698-1.7515-4.6364-0.10303-10.87 0.82425-14.837 10.303l-11.746 27.458-22.925-37.246c-1.494-0.46364-5.1001-1.0818-7.7274-1.0818-8.1395 0-12.621 2.9879-17.309 8.0365l-22.255 24.315 17.928 28.179c3.297 5.1516 7.6759 7.7789 14.734 7.7789 4.6364 0 8.5001-1.0818 10.303-1.9061l-21.585-32.455 15.3-16.228 25.088 39.307z" fill="#ff0031"/>
	<path d="m624.84 3.9533e-6h-410.63c-4.7395 0-8.6032 3.8637-8.6032 8.6032v111.53c0 4.7395 3.8637 8.6032 8.6032 8.6032h410.58c4.7395 0 8.6032-3.8637 8.6032-8.6032v-111.58c-0.0515-4.7395-3.8122-8.5516-8.5516-8.5516" fill="url(#A)"/>
	<path d="m63.313 19.576v53.834c0-2.1637 1.6485-4.4304 4.4304-4.5334l9.0668-0.3091c1.8031-0.05152 4.5334-1.2879 4.5849-4.5849v-56.152c-1.3909-0.3091-2.8849-0.46364-4.3788-0.46364-11.694 0.051516-13.703 6.2334-13.703 12.209m41.213 18.752-22.255 24.315 1.8031 2.7819c0.77274 1.0303 2.2667 2.7819 5.2546 2.6788l12.673-0.46364c2.7819-0.10303 4.5334 1.0818 5.6152 2.5243l-3.9667-5.9758 15.3-16.228 10.252 16.124c1.8546 2.4212 4.6364 2.4728 5.2546 2.4728 0.51516 0 14.012-0.46364 14.579-0.51516 0.92728-0.05152 2.0091 0.46364 2.8334 1.6485l-22.306-36.267c-1.494-0.46364-5.1001-1.0818-7.7274-1.0818-8.1395-0.05152-12.621 2.8849-17.309 7.985m-82.786-7.4698c-14.424 1.597-21.74 10.2-21.74 20.555 0 5.3061 2.4212 10.406 7.0577 14.064 3.5031 2.3182 7.1092 3.194 10.664 3.8122 2.9364 0.51516 9.788 0.9788 14.888 0.77274l15.867-0.56668c5.9758-0.20606 9.1698 4.894 8.8607 9.9941v-0.25758c0.05151-0.6697 0.10303-1.3394 0.10303-2.0091 0-9.5304-5.8728-17.309-19.525-19.834l-13.291-2.4728c-4.2758-0.72122-6.9031-1.7515-6.9031-4.1728 0-2.2667 2.8334-4.1728 9.582-4.1728 6.6971 0 12.518 0.66971 16.279 0.66971 4.894 0 9.9941-2.0606 9.9941-11.694 0-1.2879-0.15455-2.4728-0.41213-3.7091-5.2031-0.61819-13.549-1.494-21.843-1.494-3.2455 0.05151-6.491 0.20606-9.582 0.51516m142.29 10.252-11.385 26.84c0-0.05151 0.72122-2.1122 2.9364-2.2152l12.055-0.41213c3.6576-0.15455 5.1001-2.6273 5.5122-3.4516l13.188-29.416c-1.494-0.77274-4.791-1.7-7.4698-1.7515h-0.56668c-4.5849 0.05151-10.458 1.2879-14.27 10.406" enable-background="new" fill="url(#B)" opacity=".3"/>
	<path d="m214.2 3.9533e-6c-4.7395 0-8.6032 3.8637-8.6032 8.6032v61.922c0-0.92728 0.36061-6.0274 6.1819-6.594 0 0 0.3091-0.05152 0.82426-0.05152l414.39-14.527c3.2455-0.10303 6.388-2.5243 6.388-6.5425v-34.155c0-4.7395-3.8637-8.6032-8.6032-8.6032z" enable-background="new" fill="url(#C)" opacity=".3"/>
	<path d="m298.64 14.579c-3.4516 0-6.3871 2.678-6.3871 6.3871 0 3.2455 2.884 6.2852 6.3871 6.2852s6.2852-2.9882 6.2852-6.2852c0-3.6061-2.7306-6.3871-6.2852-6.3871zm117.35 19.112c-16.588 0-30.033 13.137-30.033 31.219 0 18.752 12.93 31.528 31.682 31.528 8.6547 0 16.794-2.5766 22.1-4.9463 0.61819-5.4607-1.2376-7.8294-3.7618-7.8294-1.0818 0-2.4205 0.51506-4.9448 1.4423-3.8637 1.1849-7.8305 2.3689-13.034 2.3689-12.106 0-20.348-6.7476-21.842-18.442h46.93c0.36062-2.2667 0.51519-4.2772 0.56674-6.1833 0-14.373-9.1698-29.157-27.664-29.157zm-155.37 0.05096c-17.412 0-30.703 13.344-30.703 31.271s13.291 31.425 30.703 31.682c8.2425-8e-6 15.713-2.2676 21.019-4.7919 0.51517-5.4607-1.4939-7.7275-4.0182-7.7275-3.5031 0-7.4697 3.8638-16.64 3.8638-11.591 0-21.019-8.9114-21.019-22.872 0-13.961 9.428-22.616 21.019-22.616 9.1698 0 13.085 3.8638 16.64 3.8638 2.5243 0 4.5334-2.2668 4.0182-7.7275-5.2031-2.6788-12.673-4.9463-21.019-4.9463zm89.639 0c-9.1183 0-15.816 4.4305-20.194 9.7366v-5.2026c0-2.2667-1.3405-3.7603-5.2042-3.7603-1.7515 0-3.6052 0.41109-4.5324 0.66867v60.12c0.92728 0.25758 2.7809 0.51424 4.5324 0.51424 3.9152 0 5.2042-1.3906 5.2042-3.7603v-38.585c3.194-5.8213 10.921-10.87 18.082-10.87 9.0153 0 15.145 5.8725 15.145 18.236v34.362c0.9788 0.25758 2.937 0.51578 4.534 0.51578 3.9667 0 5.2026-1.3921 5.2026-3.7618v-32.454c0-17.824-10.353-25.707-22.769-25.758zm133.63 0c-7.4183 0-13.55 3.8649-17.413 9.068v-4.2761c0-2.5243-1.2876-4.0182-5.0482-4.0182-1.597 0-3.5037 0.41109-4.534 0.66867v60.017c0.82426 0.25758 2.7824 0.51578 4.534 0.51578 3.9667 0 5.2026-1.3921 5.2026-3.7618v-39.615c2.2667-4.894 8.0882-9.8401 14.888-9.8401 8.1395 0 12.262 5.3074 12.262 14.22v38.482c1.0303 0.25758 2.8844 0.51578 4.6359 0.51578 3.9667 0 5.2026-1.3921 5.2026-3.7618v-39.615c2.2667-4.894 8.0882-9.8401 14.888-9.8401 7.985 0 12.262 5.3074 12.262 14.22v38.482c0.97881 0.25758 2.9354 0.51578 4.5324 0.51578 3.9667 0 5.3061-1.3921 5.3061-3.7618v-36.318c0-12.003-6.902-21.843-19.884-21.895-8.9122 0-15.301 4.8953-19.422 10.923-3.194-6.8001-9.4267-10.923-17.412-10.923zm97.21 0c-8.4486 0-17.464 2.0094-23.491 4.2761-0.61819 5.3061 0.97844 7.831 3.7603 7.831 0.97881 0 2.4215-0.46391 4.2761-0.97907 3.6061-1.1849 8.9124-2.5249 15.043-2.5249 11.849 0 14.888 5.5639 14.888 14.888v1.6493c-26.737-1.7515-42.552 4.6358-42.552 19.266 0 9.685 7.4704 18.34 21.019 18.34 9.0153 0 15.815-3.5548 21.533-9.5822v5.0482c0 2.5243 1.5965 3.8128 5.2026 3.8128 1.7515 0 3.5037-0.25821 4.534-0.51579v-38.378c0-14.27-6.5427-23.08-24.213-23.132zm-282.15 0.82464c-4.0698 0-5.3061 1.4936-5.3061 3.7603v56.874c0.9788 0.25758 2.8839 0.5152 4.5324 0.56675 3.9667 0 5.3061-1.3906 5.3061-3.7603v-56.77c-0.97879-0.25758-2.9354-0.67021-4.5324-0.67022zm117.09 7.882c10.87 0 17.515 8.1395 17.927 18.494h-37.76c1.597-12.106 10.148-18.597 19.833-18.494zm173.04 23.691c2.0777 0.0064 4.2167 0.06401 6.3933 0.1606v11.591c-4.6364 6.1819-11.591 10.356-19.833 10.356-8.088 0-12.621-4.9463-12.621-10.252 0-9.421 11.517-11.9 26.061-11.855z" fill="#fff"/>
</svg>
