<svg xmlns="http://www.w3.org/2000/svg" xmlns:xlink="http://www.w3.org/1999/xlink" width="2496.289" height="805.823" viewBox="0 0 1872.216 604.367"><defs><linearGradient id="a" x1="-8600.5" x2="-8600.5" y1="-4687.6" y2="-4591.4" gradientTransform="matrix(-2.9812 0 0 -2.9812 -24493 -13655)" gradientUnits="userSpaceOnUse"><stop stop-color="#a80000" offset="0"/><stop stop-color="#a1000c" offset=".381"/><stop stop-color="#b90019" offset="1"/></linearGradient><linearGradient xlink:href="#a" id="b" gradientUnits="userSpaceOnUse" gradientTransform="rotate(180 -12246.5 -6827.498) scale(2.9812)" x1="-8600.5" y1="-4687.6" x2="-8600.5" y2="-4591.4"/><linearGradient xlink:href="#a" id="c" gradientUnits="userSpaceOnUse" gradientTransform="rotate(180 -12246.5 -6827.498) scale(2.9812)" x1="-8600.5" y1="-4687.6" x2="-8600.5" y2="-4591.4"/></defs><path d="M624.21.005h1223c13.753 0 25.006 11.253 25.006 25.006v325.08c0 13.753-11.253 25.006-25.006 25.006h-1223z" fill="url(#b)"/><path d="M624.21 375.095H25.01c-13.753 0-25.006-11.253-25.006-25.006V24.699C.004 11.571 10.944.006 24.697.006h599.52zM897.744 35.003c6.06-1.792 13.082-.457 17.777 3.87 6.722 5.882 8.072 16.856 2.926 24.17-3.81 5.94-11.274 9.279-18.228 7.996-8.709-1.358-15.978-9.549-15.647-18.468-.143-7.936 5.55-15.422 13.172-17.568zm-134.572 65.113c16.03-4.35 32.975-3.743 49.2-.825 12.422 2.408 24.77 6.098 35.961 12.054.615 5.589.48 11.65-2.258 16.713-1.837 3.428-5.55 5.776-9.474 5.603-5.753-.172-10.921-2.993-16.195-4.965-11.012-4.539-22.976-6.82-34.888-6.294-11.154.555-22.248 3.976-31.445 10.382-8.499 5.768-15.257 13.944-19.66 23.2-4.989 10.54-7.06 22.332-6.714 33.944.345 10.802 2.648 21.663 7.644 31.302 5.963 11.935 16.127 21.746 28.37 27.117 15.744 6.991 34.025 6.339 50.205 1.163 6.653-2.033 12.812-5.521 19.623-7.029 4.216-1.05 9.159.27 11.68 3.968 3.637 5.214 3.757 12.032 3.105 18.116-10.554 5.266-21.956 8.754-33.478 11.162-19.098 3.765-39.396 4.32-57.932-2.348-18.715-6.504-34.94-19.788-45.075-36.801-8.829-14.635-13.262-31.798-13.127-48.848-.195-19.12 5.349-38.406 16.383-54.099 11.41-16.382 28.775-28.43 48.075-33.515zm270.868-1.365c15.28-3.263 31.753-2.176 46.05 4.343 11.162 5.086 20.494 13.93 26.367 24.679 7.314 13.12 9.73 28.332 9.94 43.184 0 31.55.037 63.1-.038 94.65.127 4.021-2.116 8.192-6.114 9.414-7.179 2.28-14.905 1.148-22.166-.135-.045-34.213.023-68.433-.037-102.646-.436-13.442-3.541-27.77-13.06-37.829-8.266-8.978-20.943-12.64-32.87-12.016-12.325.727-24.087 5.895-33.846 13.3-6.068 4.657-11.477 10.298-15.34 16.93-.855 1.222-.682 2.752-.72 4.163.06 6.42.008 12.834.038 19.255.015 30.102.007 60.205-.008 90.307.158 4.02-2.595 7.756-6.466 8.814-7.028 2.04-14.522 1.013-21.603-.195-.12-32.615-.053-65.23-.06-97.846.06-25.421-.09-50.843.075-76.257 6.803-1.455 14.012-2.573 20.853-.735 3.683.945 6.939 4.043 7.111 8.004.263 5.566-.007 11.139.113 16.712 10.749-12.767 25.346-22.57 41.781-26.096zm150.474 13.772c23.06-16.405 54.392-20.05 80.766-9.977 12.437 4.846 23.419 13.27 31.415 23.952 8.154 10.756 13.352 23.583 15.835 36.816 2.258 11.881 2.145 24.138.203 36.05-45.225.053-90.457 0-135.682.03 1.658 12.782 6.578 25.467 15.58 34.888 7.786 8.334 18.363 13.728 29.427 16.196 16.578 3.69 33.965 1.8 50.048-3.279 5.88-1.657 11.492-4.245 17.485-5.528 4.178-1.065 8.792.975 10.937 4.696 3.188 5.378 2.806 11.904 2.378 17.905-14.68 6.474-30.26 10.967-46.177 13.037-14.478 1.898-29.345 1.68-43.567-1.822-12.49-3.046-24.44-8.627-34.416-16.78-10.547-8.492-18.775-19.736-23.989-32.21-7.396-17.824-9.166-37.8-5.986-56.77 3.893-22.729 16.72-43.994 35.743-57.204m13.023 22.706c-10.232 8.634-16.54 21.093-19.496 34.003-.33 2.04-.653 4.08-.968 6.128 36.284 0 72.567-.007 108.85 0-.225-3.683-.637-7.343-1.327-10.974-2.49-12.43-8.912-24.371-19.069-32.18-19.593-15.167-49.53-12.977-67.99 3.023zM1409.7 99.898c15.94-5.153 34.266-3.6 48.593 5.326 8.934 5.484 15.783 13.87 20.321 23.254 6.856-9.842 15.603-18.565 26.27-24.221 13.374-7.172 29.336-8.957 44.114-5.784 10.546 2.266 20.426 7.801 27.567 15.933 9.234 10.344 13.937 24.064 15.182 37.723.728 7.779.3 15.603.413 23.412-.03 30.124.037 60.264-.045 90.389.127 4.32-2.88 8.289-7.074 9.316-7.051 1.906-14.522.953-21.596-.39.01-32.105-.01-64.217-.015-96.33-.172-8.416.495-16.893-.698-25.257-1.095-7.456-3.773-14.882-8.82-20.583-4.622-5.28-11.23-8.559-18.094-9.699-20.268-3.773-40.941 8.799-50.055 26.66-.908 2.092-.428 4.455-.518 6.668.015 36.44.038 72.882-.015 109.322.21 4.239-2.415 8.47-6.616 9.572-7.194 1.988-14.83.975-22.053-.33-.01-22.099-.01-44.197-.01-66.296-.128-16.982.24-33.973-.195-50.948-.548-6.968-2.138-13.997-5.693-20.08-3.436-5.972-9.01-10.705-15.528-12.97-11.207-3.938-23.944-2.573-34.34 3.03a52.712 52.712 0 0 0-19.271 17.486c-1.335 2.235-3.226 4.44-3.18 7.186-.076 2.813.022 5.626.015 8.439.03 34.948.01 69.903-.01 104.851.225 4.186-2.288 8.41-6.436 9.564-7.111 2.048-14.725 1.126-21.874-.27 0-37.708-.022-75.417 0-113.118.015-20.26-.01-40.521.01-60.782 6.489-1.433 13.307-2.58 19.9-1.088 3.789.803 7.194 3.774 7.734 7.742.645 5.063.143 10.194.3 15.28 8.102-10.457 19.046-18.926 31.716-23.007zm282.496-2.46c12.894-.923 26.021-.645 38.646 2.378 10.307 2.453 20.358 7.134 27.807 14.822 8.139 8.094 12.67 19.158 14.665 30.32 2.138 10.817 1.372 21.881 1.507 32.833-.015 32.375.023 64.75-.022 97.125-6.714 1.238-13.712 2.1-20.448.6-4.006-.817-7.524-4.23-7.637-8.446-.12-5.4.01-10.802-.037-16.195-7.246 7.644-15.528 14.41-24.972 19.143-12.64 6.436-27.034 9.002-41.136 8.394-11.454-.473-22.984-3.308-32.795-9.369-10.787-6.579-19.151-17.178-22.542-29.397-3.593-12.872-2.415-27.387 4.629-38.909 5.086-8.319 12.984-14.567 21.573-18.985 12.49-6.362 26.36-9.467 40.192-11.237 18.13-2.236 36.47-2.108 54.683-.945-.067-7.862-.135-15.843-2.205-23.487-1.613-5.97-4.733-11.672-9.549-15.64-5.363-4.41-12.174-6.623-18.956-7.62-18.858-2.506-38.016.854-56.011 6.54-3.78 1.035-7.501 2.386-11.402 2.828-3.938.383-7.981-1.68-9.796-5.213-2.828-5.394-2.64-11.762-1.913-17.636 17.913-6.488 36.726-10.464 55.719-11.904m18.978 93.788c-13.052.787-26.322 2.242-38.519 7.216-7.006 2.933-13.772 7.576-17.253 14.53-5.258 10.434-2.715 24.07 5.986 31.895 5.964 5.633 14.005 8.588 22.076 9.421 12.445 1.118 25.204-1.373 36.314-7.126 9.781-4.906 18.25-12.197 25.076-20.71.6-.856 1.553-1.659 1.433-2.829.052-10.749-.045-21.506.037-32.247a339.159 339.159 0 0 0-35.15-.15zm-816.206-90.772c7.239-2.318 15.025-1.073 22.294.517 0 26.022-.015 52.043 0 78.065.03 28.602-.015 57.197.007 85.799.023 3.06-.727 6.413-3.255 8.401-3.173 2.528-7.456 2.933-11.365 3.053-4.733.09-9.436-.502-14.064-1.403-.038-31.58-.015-63.152-.015-94.732.022-23.547-.038-47.093.022-70.639-.09-4.02 2.49-7.876 6.376-9.061z" fill="#fff"/><path d="M421.97 333.525c4.064 2.188 12.19 4.689 22.818 4.689 17.817.312 27.507-6.565 34.696-22.505l95.648-213.18c-4.063-2.188-12.816-4.376-19.692-4.689-12.19-.313-28.757 2.188-39.384 27.507l-30.945 73.142-60.952-98.461c-4.063-1.25-13.441-2.813-20.63-2.813-21.255 0-33.445 7.814-45.948 21.255l-58.764 64.39 47.511 74.705c8.752 13.753 20.317 20.63 39.072 20.63 12.19 0 22.505-2.813 27.194-5.001l-57.201-86.27 40.635-42.823 66.578 104.4zm-125.34-80.644c0 15.629-6.252 24.693-36.884 24.693-4.064 0-7.502-.313-10.94-.938V68.466c0-15.94 5.314-32.195 36.258-32.195 3.75 0 7.814.313 11.565 1.25zm-63.452-31.257c0 29.382-19.067 50.637-58.139 55.013-28.132 3.126-69.079-.625-88.458-2.813-.625-3.126-1.25-7.19-1.25-10.315 0-25.631 13.753-31.57 26.88-31.57 13.442 0 34.697 2.188 50.638 2.188 17.504 0 22.505-5.94 22.505-11.565 0-7.502-6.877-10.315-20.63-13.128l-36.571-6.564c-30.632-5.94-46.886-27.194-46.886-49.7 0-27.505 19.38-50.323 57.513-54.7 28.757-3.125 64.078.313 83.145 2.814.625 3.438.937 6.564.937 10.002 0 25.631-13.44 30.945-26.569 30.945-10.002 0-25.318-1.875-43.135-1.875-18.129 0-25.318 5-25.318 10.94 0 6.251 7.19 9.064 18.442 10.94l35.321 6.564c36.26 6.876 51.575 27.507 51.575 52.825" fill="url(#c)"/><path d="M25.006.005C11.253.005 0 11.258 0 25.011v226.3c0-20.005 16.003-36.509 36.008-37.259l1836.2-69.266V25.006c0-13.753-11.253-25.006-25.006-25.006z" opacity=".2" fill="#fff"/><path d="M1238.709 517.63c6.284-8.319 15.767-14.4 26.19-15.745 8.446-.976 17.441-.165 24.897 4.228 8.05 4.647 13.463 13.02 15.543 21.97 2.275 8.491 1.63 17.336 1.712 26.024-.01 13.8.015 27.593-.01 41.394-.045 3.378-1.998 7.11-5.474 7.989-5.556 1.524-11.413.563-17.022-.173-.06-12.389-.01-24.778-.023-37.167-.15-8.454.353-16.931-.36-25.356-.616-6.682-3.484-13.83-9.7-17.112-11.436-6.284-26.724-1.591-34.12 8.755-.555.864-1.306 1.742-1.223 2.83-.06 20.064.015 40.134-.038 60.196-.045 3.477-2.08 7.26-5.676 8.102-5.52 1.389-11.293.51-16.834-.263-.01-33.052.01-66.097-.01-99.15 5.526-1.523 11.915-2.89 17.216.06 4.475 2.81 4.806 8.666 4.926 13.419zM1136.794 502.015c11.522-1.404 23.627.396 33.677 6.415 12.307 6.944 20.827 19.669 23.552 33.438 2.18 11.254 1.038 23.216-3.644 33.715-4.614 10.566-13.24 19.228-23.7 24.03-9.245 4.458-19.804 5.444-29.908 4.338-13.672-1.62-26.747-8.968-34.663-20.333-7.288-10.342-10.118-23.425-8.99-35.933 1.097-12.127 6.608-23.85 15.427-32.28 7.706-7.267 17.727-12.06 28.249-13.39m2.935 18.579c-10.686 1.777-19.37 10.477-22.275 20.76-2.868 10.177-2.166 21.729 3.352 30.914 3.316 5.6 8.558 10.155 14.823 12.082 7.647 2.658 16.45 1.434 23.164-3.054 6.168-4.077 10.32-10.746 12.149-17.832 3.076-12.904.68-28.398-9.917-37.292-5.832-4.831-13.837-6.945-21.296-5.578zM1058.85 460.204c-1.012.013-2.023.129-3.004.34-5.268 1.328-9.438 6.41-9.379 11.895-.35 4.373 1.993 8.648 5.59 11.05 5.155 3.582 12.908 2.44 16.84-2.447 4.425-5.104 3.679-13.766-1.634-17.967-2.322-2.026-5.375-2.912-8.412-2.871zm.91 42.92c-2.101.01-4.19.213-6.241.728-3.88.888-5.962 5.052-5.873 8.783 0 30.22-.01 60.447 0 90.667 5.552.791 11.372 1.71 16.878.202 3.828-.977 5.739-5.134 5.671-8.805.06-30.182 0-60.366.031-90.541-3.432-.527-6.965-1.05-10.466-1.034zM968.495 474.99c4.957-1.189 10.218-.815 15.129.466.343 8.601.183 17.226.076 25.835 11.514.655 23.09.114 34.634.274.702 4.24 1.533 8.662.42 12.917-.748 3.081-3.844 5.277-6.993 5.132-9.25.115-18.506.01-27.756.046-.221 16.257-.054 32.514-.084 48.771-.09 4.75 1.182 9.799 4.796 13.108 3.462 3.226 8.556 3.622 13.055 3.134 3.69-.335 7.046-2.013 10.47-3.325 3.606-1.41 8.303-.686 10.591 2.677 2.486 3.675 1.739 8.334 1.746 12.513-10.88 6.49-23.981 9.242-36.517 7.107-6.291-1.045-12.33-3.912-16.868-8.418-4.857-4.66-7.83-11.019-9.112-17.57-.945-4.78-.709-9.683-.724-14.533 0-14.488.01-28.969-.01-43.457-5.345-.053-10.69.069-16.036-.068-.503-4.972-1.815-10.561.854-15.121 3.706-4.606 10.142-2.326 15.19-2.982.09-5.635-.191-11.285.137-16.92.267-4.163 2.737-8.495 7-9.585zM879.665 502.015c11.52-1.403 23.624.396 33.674 6.414 12.305 6.944 20.824 19.667 23.55 33.436 2.18 11.252 1.038 23.213-3.644 33.711-4.614 10.566-13.238 19.227-23.699 24.028-9.244 4.458-19.802 5.443-29.904 4.338-13.671-1.62-26.745-8.967-34.66-20.332-7.287-10.34-10.117-23.422-8.99-35.929 1.098-12.126 6.608-23.848 15.426-32.278 7.706-7.265 17.726-12.059 28.247-13.388m2.934 18.577c-10.685 1.777-19.368 10.476-22.273 20.758-2.867 10.176-2.165 21.727 3.352 30.911 3.316 5.6 8.557 10.155 14.822 12.081 7.646 2.658 16.449 1.434 23.161-3.054 6.168-4.076 10.32-10.744 12.148-17.83 3.077-12.902.68-28.395-9.915-37.288-5.832-4.831-13.836-6.944-21.295-5.578zM696.913 517.423c5.004-7.606 12.968-13.5 21.99-15.339 8.266-1.38 17.18-.067 24.254 4.573 5.36 3.378 9.12 8.753 11.354 14.587 5.45-8.98 13.769-17.155 24.519-19.062 8.288-1.314 17.317-.72 24.684 3.604 10.977 6.704 14.653 20.518 14.532 32.598-.023 19.039-.015 38.078-.01 57.118.06 3.55-2.189 7.342-5.843 8.123-5.518 1.351-11.3.51-16.826-.346.023-20.63.015-41.254.01-61.877-.075-5.849-1.223-12.395-5.949-16.374-3.85-3.446-9.292-4.37-14.29-3.777-7.564.706-14.109 6.09-17.393 12.718-.256 20.481 0 40.992-.12 61.48-.03 3.529-2.137 7.342-5.798 8.176-5.579 1.344-11.414.503-17.008-.338-.023-20.871-.03-41.75 0-62.628.023-5.624-1.494-11.705-5.835-15.594-4.174-3.686-10.153-4.46-15.498-3.686-5.926.961-10.916 4.887-14.479 9.52-.74 1.133-1.774 2.282-1.75 3.708-.03 20.016.03 40.038-.024 60.054.06 3.776-1.91 8.063-5.926 8.971-5.54 1.337-11.338.496-16.902-.33.045-33.048-.068-66.097.053-99.145 5.586-1.42 11.98-2.853 17.317.082 4.431 2.77 4.862 8.484 4.937 13.183zM613.34 468.467c-12.065.006-24.13.013-36.195 0-2.827.112-5.879.172-8.37 1.683-2.954 1.96-3.59 5.849-3.635 9.133l.09 123.105c4.196.378 8.289 1.01 11.916.945l72.39-.03c.658-4.405.928-8.886.569-13.336-.3-2.431-1.137-5.214-3.478-6.418-2.678-1.645-5.902-1.377-8.902-1.354-16.463.008-49.383 0-49.383 0l-.017-36.634s32.42.008 48.628-.009c3.59.105 7.15-2.468 7.868-6.044 1.055-4.727.456-9.641-.441-14.339-18.685.023-37.362-.008-56.047.015l.01-35.581c16.463-.008 32.92-.008 49.383 0 3 .022 6.224.292 8.901-1.353 2.341-1.205 3.179-3.988 3.478-6.419.36-4.45.089-8.931-.569-13.337-12.065-.033-24.13-.035-36.195-.032z"/></svg>