<?xml version="1.0" encoding="UTF-8"?>
<svg width="800" height="177.39" version="1.1" xmlns="http://www.w3.org/2000/svg">
	<path d="m759.03 76.876 10.95-40.887h-27.673l-10.95 40.887h-40.687l-6.8221 25.574h40.652l-10.95 40.887h27.673l10.95-40.887h40.967l6.857-25.574z" fill="#f6a800"/>
	<path d="m669.77 0.0059872c-7.0556 21.32-27.155 35.984-49.838 35.984l-6.5225 25.576h30.781l-21.953 81.777h36.632l38.919-143.34s-28.015 0.0041982-28.018 0.0062973" fill="#f6a800"/>
	<g fill="#3d464c">
		<path d="m566.3 35.989 9.6208-35.989h-27.638l-38.413 143.34h27.673l21.866-81.77h42.857l6.822-25.577z"/>
		<path d="m488.58 35.99c-31.91 0-45.176 16.507-53.918 49.255l-15.595 58.097h27.662l15.436-58.097c3.2888-12.267 11.148-23.669 26.415-23.669h32.522l6.725-25.586z"/>
		<path d="m396.24 82.987-4.0166 14.99c-2.8233 10.537-12.171 19.779-25.186 19.779h-39.456c-18.21 0-16.19-16.592-14.875-21.409l4.0172-14.991c2.8228-10.536 12.6-19.779 25.186-19.779h39.455c18.21 0 16.19 16.593 14.875 21.41m-14.875-46.997h-39.455c-23.651 0-44.483 15.931-50.661 38.743l-4.0172 14.991c-6.1257 22.663-0.45865 53.619 40.35 53.619h39.456c25.253 0 44.482-15.931 50.661-38.743l4.0167-14.99c6.1262-22.664-0.17948-53.619-40.35-53.619"/>
		<path d="m251.1 82.987-4.0166 14.99c-2.8238 10.537-12.171 19.779-25.186 19.779h-51.923l15.053-56.18h51.197c18.21 0 16.19 16.593 14.875 21.41m-14.875-46.997-44.341-0.0021h-27.661l-37.888 141.4h27.661l9.1227-34.046h58.779c25.253 0 44.482-15.931 50.661-38.743l4.0166-14.99c6.1263-22.664-0.17948-53.619-40.35-53.619"/>
		<path d="m0 143.34 6.8557-25.587h90.937c4.3121 0 8.313-3.5102 8.9197-7.8265 0.30122-2.1464-0.31329-4.2832-1.6861-5.8628-1.2563-1.4452-2.9912-2.2413-4.8852-2.2413h-58.164c-8.926 0-16.688-3.3948-21.856-9.5599-5.1675-6.1646-7.1648-14.424-5.5863-23.251 3.6141-20.213 20.674-33.024 38.889-33.024h95.089l-6.8557 25.586h-92.184c-3.9888 0-7.6371 3.2174-8.8714 7.825-0.49696 1.853-0.11755 3.7244 1.0674 5.2698 1.2579 1.6394 3.2426 2.6176 5.3087 2.6176h58.47c8.9475 0 16.708 3.4021 21.854 9.5798 5.1538 6.1882 6.9407 14.451 5.4645 23.347-3.3156 19.976-18.816 33.128-39.231 33.128z"/>
	</g>
</svg>
