<?xml version="1.0" encoding="UTF-8"?>
<svg width="800" height="282.64" version="1.1" xmlns="http://www.w3.org/2000/svg" xmlns:xlink="http://www.w3.org/1999/xlink">
	<defs>
		<linearGradient id="c" x1="166.9" x2="163.26" y1="217.76" y2="523.34" gradientTransform="matrix(.87775 0 0 .87775 -8.7775 -174.67)" gradientUnits="userSpaceOnUse">
			<stop stop-color="#153b67" offset=".2711"/>
			<stop stop-color="#183963" offset=".5806"/>
			<stop stop-color="#18345a" offset=".7745"/>
			<stop stop-color="#192f50" offset=".9121"/>
		</linearGradient>
		<linearGradient id="e" x1="165.15" x2="165.15" y1="380.15" y2="204.44" gradientTransform="matrix(.87775 0 0 .87775 -8.7775 -174.67)" gradientUnits="userSpaceOnUse">
			<stop stop-color="#fff" offset=".08"/>
			<stop stop-color="#fff" stop-opacity=".85" offset=".33895"/>
			<stop stop-color="#fff" stop-opacity=".7" offset=".49"/>
			<stop stop-color="#fff" stop-opacity=".38" offset=".73695"/>
			<stop stop-color="#fff" stop-opacity="0" offset=".9539"/>
		</linearGradient>
		<linearGradient id="f" x1="164.8" x2="164.8" y1="567.35" y2="606.7" gradientTransform="matrix(2.5672 0 0 2.5624 88.775 -1413.3)" gradientUnits="userSpaceOnUse">
			<stop stop-color="#153b67" offset="0"/>
			<stop stop-color="#5c7592" offset=".98623"/>
		</linearGradient>
	</defs>
	<ellipse cx="136.23" cy="141.32" rx="136.23" ry="136.05" fill="url(#c)"/>
	<ellipse cx="136.23" cy="141.67" rx="90.847" ry="90.847" fill="#fff"/>
	<ellipse cx="136.23" cy="141.67" rx="78.032" ry="78.032" fill="#7c96a2"/>
	<path d="m136.23 1.8157e-7a141.32 141.32 0 0 0-6.407 0.45764v281.72a141.32 141.32 0 0 0 6.407 0.45765 141.32 141.32 0 0 0 6.407-0.45765v-282.02a141.32 141.32 0 0 0-6.407-0.15724z" fill="#fff"/>
	<path d="m265.78 151.85c1.7555 0.17555 3.2477-1.0533 3.3354-2.8088 0.17555-2.5455 0.26333-5.091 0.26333-7.6364 0-73.556-59.599-133.15-133.15-133.15-73.556 0-133.15 59.599-133.15 133.15 0 2.5455 0.087775 5.0032 0.26333 7.5487 0.087775 1.7555 1.6677 2.9844 3.3355 2.8088 42.395-4.7399 85.405-7.1976 129.03-7.1976 43.888 0 87.336 2.4577 130.08 7.2853z" fill="url(#e)" opacity=".3"/>
	<circle cx="136.23" cy="141.67" r="25.455" fill="#fff"/>
	<g fill="#7f98a4">
		<path d="m679.56 130.96h89.748l-4.5249 21.178h-89.613z"/>
		<path d="m609.63 186.23h128.69l-4.641 21.178h-128.44z"/>
		<path d="m633.69 75.929h166.31l-4.5255 21.178h-166.17z"/>
	</g>
	<path d="m448.52 40.5-101.01 3.8791-12.5 53.625h54.706l-18.597 91.009h-57.409l-12.043 53.122h175.6l19.035-53.122h-50.893l31.858-148.51zm114.47 18.421-12.648 58.251h-57.888l-10.133 48.264h57.552l-12.805 59.029h53.189l12.81-59.029h57.921l10.074-48.264h-57.525l12.621-58.251z" fill="#022853"/>
	<path d="m448.56 43.273-98.033 3.7642c-0.46669 0.01793-0.8637 0.34588-0.96939 0.8008l-10.319 44.417c-0.33972 1.4623 0.77049 2.86 2.2717 2.86h48.349c1.7543 5.2e-5 2.9172 2.3442 2.7162 3.3276l-10.229 50.134c23.027-0.76362 46.017-1.0823 69.056-1.1405l21.846-101.41c0.22055-1.0281-0.77698-2.7563-2.2277-2.7563zm116.36 20.328-11.869 54.165c-0.27861 1.2721-1.405 2.1788-2.7072 2.1793h-53.797c-1.0688 0-1.9908 0.75026-2.208 1.7967l-5.2957 25.511c84.512 0.25845 119.61 1.6577 162.29 2.9491l5.7601-27.544c0.29257-1.399-0.7752-2.7132-2.2045-2.7132h-51.351c-2.5248-0.057-3.2208-1.038-2.7094-3.3546l11.245-52.38c0.27785-1.2942-0.70866-2.515-2.0324-2.515h-42.754c-1.1388 0-2.1242 0.79278-2.3679 1.9052z" fill="url(#f)"/>
</svg>
