<?xml version="1.0" encoding="UTF-8" standalone="no"?>
<!-- Created with Inkscape (http://www.inkscape.org/) -->

<svg
   xmlns:dc="http://purl.org/dc/elements/1.1/"
   xmlns:cc="http://creativecommons.org/ns#"
   xmlns:rdf="http://www.w3.org/1999/02/22-rdf-syntax-ns#"
   xmlns:svg="http://www.w3.org/2000/svg"
   xmlns="http://www.w3.org/2000/svg"
   xmlns:sodipodi="http://sodipodi.sourceforge.net/DTD/sodipodi-0.dtd"
   xmlns:inkscape="http://www.inkscape.org/namespaces/inkscape"
   width="475.03937"
   height="91.416031"
   id="svg81437"
   version="1.1"
   inkscape:version="0.48.4 r9939"
   sodipodi:docname="Logo_Sport1+HD_2013.svg">
  <defs
     id="defs3" />
  <sodipodi:namedview
     inkscape:document-units="mm"
     id="base"
     pagecolor="#ffffff"
     bordercolor="#666666"
     borderopacity="1.0"
     inkscape:pageopacity="0.0"
     inkscape:pageshadow="2"
     inkscape:zoom="1.979899"
     inkscape:cx="250.07619"
     inkscape:cy="50.157313"
     inkscape:current-layer="layer1"
     showgrid="false"
     units="mm"
     fit-margin-top="0.5"
     fit-margin-left="0.5"
     fit-margin-right="0.5"
     fit-margin-bottom="0.5"
     inkscape:window-width="1366"
     inkscape:window-height="716"
     inkscape:window-x="-8"
     inkscape:window-y="-8"
     inkscape:window-maximized="1" />
  <metadata
     id="metadata4">
    <rdf:RDF>
      <cc:Work
         rdf:about="">
        <dc:format>image/svg+xml</dc:format>
        <dc:type
           rdf:resource="http://purl.org/dc/dcmitype/StillImage" />
        <dc:title></dc:title>
      </cc:Work>
    </rdf:RDF>
  </metadata>
  <g
     inkscape:label="Layer 1"
     inkscape:groupmode="layer"
     id="layer1"
     transform="translate(-186.28041,-290.85689)">
    <g
       transform="matrix(10.397908,0,0,-10.397908,-11226.475,4870.9075)"
       id="g81388">
      <g
         transform="translate(1097.7715,433.4787)"
         id="g75807">
        <path
           inkscape:connector-curvature="0"
           id="path75809"
           style="fill:#232933;fill-opacity:1;fill-rule:nonzero;stroke:none"
           d="m 0,0 0.327,1.219 4.332,0 c 0.205,0 0.396,0.167 0.425,0.373 C 5.098,1.694 5.069,1.796 5.003,1.871 4.943,1.94 4.861,1.978 4.771,1.978 L 2,1.978 C 1.575,1.978 1.205,2.14 0.958,2.433 0.712,2.727 0.617,3.12 0.692,3.541 0.865,4.504 1.677,5.114 2.545,5.114 l 4.53,0 -0.327,-1.219 -4.391,0 C 2.167,3.895 1.993,3.742 1.934,3.523 1.911,3.434 1.929,3.345 1.985,3.271 2.045,3.193 2.14,3.147 2.238,3.147 l 2.785,0 C 5.45,3.147 5.819,2.985 6.065,2.69 6.31,2.396 6.395,2.002 6.325,1.578 6.167,0.627 5.428,0 4.456,0 L 0,0" />
      </g>
      <g
         transform="translate(1121.0475,438.5927)"
         id="g75811">
        <path
           inkscape:connector-curvature="0"
           id="path75813"
           style="fill:#232933;fill-opacity:1;fill-rule:nonzero;stroke:none"
           d="m 0,0 c -1.52,0 -2.152,-0.786 -2.569,-2.346 l -0.743,-2.768 1.318,0 0.736,2.768 c 0.156,0.584 0.531,1.127 1.258,1.127 l 1.549,0 L 1.87,0 0,0" />
      </g>
      <g
         transform="translate(1126.7885,438.5927)"
         id="g75815">
        <path
           inkscape:connector-curvature="0"
           id="path75817"
           style="fill:#232933;fill-opacity:1;fill-rule:nonzero;stroke:none"
           d="m 0,0 -2.039,0 0.459,1.715 -1.317,0 -1.83,-6.829 1.318,0 1.042,3.896 2.041,0 L 0,0 z" />
      </g>
      <g
         transform="translate(1109.7334,436.3537)"
         id="g75819">
        <path
           inkscape:connector-curvature="0"
           id="path75821"
           style="fill:#232933;fill-opacity:1;fill-rule:nonzero;stroke:none"
           d="m 0,0 -0.191,-0.714 c -0.135,-0.502 -0.58,-0.942 -1.2,-0.942 l -2.474,0 0.717,2.676 2.439,0 C 0.159,1.02 0.063,0.229 0,0 m -0.709,2.239 -2.112,0 -1.318,0 -1.805,-6.736 1.318,0 0.435,1.622 2.8,0 c 1.203,0 2.119,0.759 2.413,1.845 l 0.192,0.715 C 1.505,0.764 1.205,2.239 -0.709,2.239" />
      </g>
      <g
         transform="translate(1116.6484,436.3537)"
         id="g75823">
        <path
           inkscape:connector-curvature="0"
           id="path75825"
           style="fill:#232933;fill-opacity:1;fill-rule:nonzero;stroke:none"
           d="m 0,0 -0.191,-0.714 c -0.135,-0.502 -0.58,-0.942 -1.2,-0.942 l -1.88,0 c -0.867,0 -0.771,0.79 -0.708,1.02 l 0.191,0.714 c 0.134,0.502 0.6,0.942 1.2,0.942 l 1.879,0 C 0.159,1.02 0.063,0.229 0,0 m -0.709,2.239 -1.879,0 c -1.127,0 -2.119,-0.759 -2.414,-1.846 l -0.191,-0.714 c -0.292,-1.08 -0.022,-2.554 1.922,-2.554 l 1.88,0 c 1.203,0 2.119,0.759 2.413,1.845 l 0.192,0.715 C 1.505,0.764 1.205,2.239 -0.709,2.239" />
      </g>
      <g
         transform="translate(1129.6785,440.3067)"
         id="g75827">
        <path
           inkscape:connector-curvature="0"
           id="path75829"
           style="fill:#f9ae0c;fill-opacity:1;fill-rule:nonzero;stroke:none"
           d="m 0,0 c -0.336,-1.016 -1.294,-1.714 -2.374,-1.714 l -0.311,-1.219 1.466,0 -1.045,-3.895 1.745,0 L 1.335,0 0,0" />
      </g>
      <g
         transform="translate(1135.8824,436.6447)"
         id="g75831" />
      <g
         transform="translate(1141.4495,438.5927)"
         id="g75835">
        <path
           inkscape:connector-curvature="0"
           id="path75837"
           style="fill:#918f90;fill-opacity:1;fill-rule:nonzero;stroke:none"
           d="m -5.7703919,0 -0.522,-1.948 -3.0680001,0 0.522,1.948 -1.318,0 -1.369997,-5.114 1.317997,0 0.521,1.948 3.068,0 -0.521,-1.948 1.3180001,0 L -4.4523918,0 -5.7703919,0 z" />
      </g>
      <g
         transform="translate(1147.5775,436.3537)"
         id="g75839">
        <path
           inkscape:connector-curvature="0"
           id="path75841"
           style="fill:#918f90;fill-opacity:1;fill-rule:nonzero;stroke:none"
           d="m -5.7703919,0 -0.191,-0.714 c -0.135,-0.502 -0.5800001,-0.942 -1.2000001,-0.942 l -2.479,0 0.717,2.676 2.444,0 c 0.8680001,0 0.7720001,-0.791 0.7090001,-1.02 m -0.7090001,2.239 -3.4349996,0 -1.3699984,-5.114 4.122998,0 c 1.2030001,0 2.1190002,0.759 2.4130002,1.845 l 0.192,0.714 c 0.291,1.08 -0.009,2.555 -1.9230002,2.555" />
      </g>
    </g>
  </g>
</svg>
