<?xml version="1.0" encoding="UTF-8"?>
<svg width="800" height="132.26" version="1.1" xmlns="http://www.w3.org/2000/svg">
	<path d="m683.59 26.834-8.1697 30.488h-48.017l8.1697-30.488h-20.628l-21.442 80.038h20.628l8.1541-30.488h48.017l-8.1541 30.488h20.628l21.442-80.038z" fill="#b2b5ba"/>
	<path d="m779.5 61.876-2.9893 11.175c-2.1129 7.8567-9.0775 14.743-18.781 14.743h-38.798l11.222-41.881h38.25c13.585 0 12.082 12.38 11.096 15.964m-11.096-35.042h-53.76l-21.442 80.038h64.528c18.828 0 33.164-11.879 37.765-28.876l3.005-11.175c4.5544-16.903-0.14089-39.988-30.096-39.988" fill="#b2b5ba"/>
	<path d="m565.92 57.318 8.1642-30.485h-20.633l-8.1641 30.485h-30.336l-5.0865 19.068h30.309l-8.1641 30.485h20.633l8.1642-30.485h30.544l5.1125-19.068z" fill="#f6a800"/>
	<path d="m499.37 0.00446c-5.2606 15.896-20.246 26.829-37.158 26.829l-4.8631 19.069h22.95l-16.368 60.972h27.312l29.017-106.87s-20.888 0.003131-20.89 0.004696" fill="#f6a800"/>
	<g fill="#3d464c">
		<path d="m422.22 26.833 7.1731-26.833h-20.606l-28.64 106.87h20.633l16.303-60.966h31.954l5.0864-19.07z"/>
		<path d="m364.28 26.834c-23.792 0-33.683 12.307-40.2 36.724l-11.627 43.316h20.624l11.509-43.316c2.4521-9.1461 8.3118-17.647 19.695-17.647h24.248l5.014-19.077z"/>
		<path d="m295.43 61.874-2.9947 11.176c-2.105 7.8562-9.0745 14.747-18.778 14.747h-29.418c-13.577 0-12.071-12.371-11.091-15.962l2.9952-11.177c2.1046-7.8555 9.3944-14.747 18.778-14.747h29.417c13.577 0 12.071 12.371 11.091 15.963m-11.091-35.04h-29.417c-17.634 0-33.166 11.878-37.772 28.886l-2.9952 11.177c-4.5672 16.897-0.34196 39.977 30.084 39.977h29.418c18.828 0 33.165-11.878 37.772-28.886l2.9948-11.176c4.5676-16.898-0.13381-39.977-30.084-39.977"/>
		<path d="m187.22 61.874-2.9947 11.176c-2.1054 7.8562-9.0745 14.747-18.778 14.747h-38.713l11.223-41.887h38.172c13.577 0 12.071 12.371 11.091 15.963m-11.091-35.04-33.06-0.0015h-20.624l-28.249 105.43h20.624l6.8017-25.384h43.825c18.828 0 33.165-11.878 37.772-28.886l2.9947-11.176c4.5677-16.898-0.13381-39.977-30.084-39.977"/>
		<path d="m0 106.87 5.1115-19.077h67.801c3.215 0 6.198-2.6172 6.6504-5.8353 0.22458-1.6003-0.23358-3.1935-1.2571-4.3712-0.93668-1.0775-2.2302-1.6711-3.6423-1.6711h-43.366c-6.6551 0-12.442-2.5311-16.295-7.1277-3.8528-4.5962-5.342-10.754-4.1651-17.336 2.6946-15.07 15.414-24.622 28.995-24.622h70.897l-5.1115 19.077h-68.731c-2.974 0-5.6941 2.3988-6.6144 5.8342-0.37052 1.3816-0.08765 2.7769 0.79584 3.9291 0.93787 1.2223 2.4176 1.9516 3.9581 1.9516h43.594c6.6711 0 12.457 2.5366 16.294 7.1426 3.8426 4.6138 5.1749 10.774 4.0742 17.407-2.4721 14.894-14.029 24.7-29.25 24.7z"/>
	</g>
</svg>
