<?xml version="1.0" encoding="UTF-8"?>
<svg version="1.1" viewBox="0 0 765 450" xmlns="http://www.w3.org/2000/svg">
	<path d="m398.78 175.05 98.777-50.106h65.745v305.9l156.22 19.149 45.638-372.45-364.79-77.553h-0.15958l-85.053 400.37 168.51 20.745v-214.63l-60 28.723-25.851-59.681z" fill="#e8050c"/>
	<path d="m100.05 148.4c-11.809-2.2341-23.457-3.8298-34.947-3.8298-40.532 0-65.106 22.181-65.106 52.34 0 56.17 70.691 47.553 70.691 75.319 0 11.011-8.4574 16.277-22.5 16.277-13.564 0-29.84-4.1489-41.33-8.9362l-4.3085 37.819c12.287 3.0319 28.404 5.5851 43.883 5.5851 42.128 0 66.383-23.298 66.383-54.574 0-56.33-71.011-47.394-71.011-75.319 0-10.213 7.6596-15.638 21.702-15.638 10.532 0 22.021 2.234 32.713 5.9042zm168.19 171.38-33.989-54.574c-5.4255-8.9362-12.447-18.83-12.447-18.83 19.947-6.7021 34.468-22.181 34.468-48.191 0-36.702-24.574-51.862-65.904-51.862-29.84 0-54.415 1.2766-54.415 1.2766v172.34h39.734v-66.223h6.7021l37.5 66.064zm-92.394-140.27s6.383-0.47873 12.287-0.47873c18.351 0 26.33 9.2553 26.33 22.5 0 14.84-10.532 22.979-27.287 22.979-5.5851 0-11.17-0.31915-11.17-0.31915v-44.681z"/>
</svg>
