<?xml version="1.0" encoding="UTF-8"?>
<svg width="503.72" height="450" version="1.1" xmlns="http://www.w3.org/2000/svg">
	<path class="st0" d="m28.148 346.95 318.8-56.296-51.278-290.66-295.67 25.823z" fill="#007796"/>
	<path class="st1" d="m205.97 143.43s4.8953-0.36712 9.301-0.36712c13.951 0 20.071 6.9758 20.071 17.134 0 11.259-7.9548 17.501-20.805 17.501-4.2834 0-8.5667-0.24478-8.5667-0.24478zm70.369 106.96-25.822-41.61c-4.0386-6.8534-9.5458-14.441-9.5458-14.441 15.175-5.0177 26.312-16.889 26.312-36.715 0-28.026-18.724-39.53-50.176-39.53-22.763 0-41.487 0.97905-41.487 0.97905v131.32h30.351v-50.422h5.0176l28.637 50.422zm-128.13-130.7c-8.9338-1.7134-17.868-2.9372-26.679-2.9372-30.962 0-49.564 16.889-49.564 39.897 0 42.834 53.848 36.225 53.848 57.397 0 8.322-6.3638 12.483-17.133 12.483-10.28 0-22.763-3.0596-31.574-6.8534l-3.1819 28.76c9.301 2.3253 21.539 4.2834 33.41 4.2834 32.064 0 50.543-17.745 50.543-41.61 0-42.956-54.093-36.225-54.093-57.397 0-7.8325 5.8743-11.871 16.521-11.871 7.9548 0 16.766 1.7134 24.843 4.5282z" fill="#fff"/>
	<path class="st2" d="m503.72 449.02v-48.953h-11.749l0.12243 20.56c0 5.0177 0.12235 9.1787 0.24478 11.993h-0.12234c-1.4687-3.3043-3.182-6.3639-5.0177-9.3011l-14.196-23.375h-16.277v48.953h11.626v-24.109c0-3.7939-0.12234-6.2415-0.24478-8.6892h0.12234c1.2238 2.6924 2.9372 6.2415 4.6505 8.9339l14.686 23.865h16.154zm-60.089 0v-9.6682h-17.99v-10.77h17.133v-9.1787h-17.133v-9.7906h17.99v-9.5458h-30.106v48.953zm-44.792 0v-48.953h-12.116v18.724h-20.805v-18.724h-12.116v48.953h12.116v-19.704h20.805v19.704zm-58.131 0v-9.6682h-17.99v-10.77h17.133v-9.1787h-17.133v-9.7906h17.99v-9.5458h-30.106v48.953zm-41.732-16.154c0-15.053-20.071-12.116-20.071-19.092 0-3.0596 2.2028-5.0177 7.3429-5.0177 2.8148 0 6.3638 0.48956 9.0562 1.2238l0.36711-10.158c-2.6924-0.36712-6.2414-0.73424-8.9338-0.73424-13.462 0-20.682 6.3639-20.682 16.032 0 16.032 19.703 11.871 19.703 19.336 0 3.6715-3.4267 5.5072-7.4653 5.5072-3.9162 0-7.4653-0.61189-10.402-1.8357l-0.48955 10.77c2.6924 0.6119 6.4862 1.1014 9.5457 1.1014 13.707 0 22.029-6.8534 22.029-17.134m-44.547 16.154v-48.953h-11.749l0.12234 20.56c0 5.0177 0.12243 9.1787 0.24478 11.993h-0.12235c-1.4685-3.3044-3.1819-6.3639-5.0176-9.3011l-14.196-23.375h-16.277v48.953h11.626v-24.109c0-3.7939-0.12234-6.2415-0.24478-8.6892h0.12244c1.2238 2.6924 2.9372 6.2415 4.6505 8.9339l14.686 23.865h16.154zm-72.327-33.9c0 4.0386-3.0595 6.731-7.71 6.731-1.3462 0-2.8148 0-4.0386-0.24478v-12.483c1.1014-0.12234 2.3252-0.24478 3.6714-0.24478 5.0176 0.12234 8.0772 2.4476 8.0772 6.2415m15.542 33.9-10.77-15.787c-1.3462-2.0805-2.6924-4.0386-3.6714-5.3848 7.0981-1.7134 11.871-6.3639 11.871-13.952 0-9.5458-7.0981-14.074-19.214-14.074-6.2414 0-13.584 0.12244-17.623 0.24478v48.953h12.116v-19.092h0.48955l11.993 19.092zm-52.502 0v-9.6682h-17.868v-10.77h17.133v-9.1787h-17.133v-9.7906h17.99v-9.5458h-30.228v48.953zm-41.61-39.407v-9.5458h-29.616v48.953h12.116v-19.459h16.521v-9.3011h-16.521v-10.647z" fill="#003C5A"/>
</svg>
