<svg xmlns="http://www.w3.org/2000/svg" width="800" height="95.736"><g transform="scale(1.877175)"><linearGradient id="A" gradientUnits="userSpaceOnUse" x1="-.007" y1="25.497" x2="166.993" y2="25.497"><stop offset="0" stop-color="#380032"/><stop offset="1" stop-color="#8b0c7b"/></linearGradient><path d="M167 0H6.6C3 0 0 2.9 0 6.5v38C0 48 2.9 51 6.6 51H167z" fill="url(#A)"/><path d="M13.2 37.5l4.3-6.2c1.8 1.4 4.8 2.9 7.6 2.9 1.4 0 3.3-.3 3.3-1.6 0-1.4-1.1-1.7-2.5-2l-5-1.4c-3.9-1.1-6.7-3.8-6.7-8 0-5.3 4.4-9.8 11.6-9.8 5.3 0 7.9.9 11.1 2.8l-4.7 5.9c-1.5-1.2-4.2-1.9-5.9-1.9-1.8 0-3.2.4-3.2 1.7s1.5 1.5 3.6 2l4.1 1.2c4.7 1.3 7.2 4.1 7.2 7.9 0 7.1-6.5 9.8-12 9.8-5-.2-8.9-.6-12.8-3.3zm29-7.7V11.7h9v17.8c0 2.9 1.7 4.2 3.9 4.2 2.1 0 3.6-1.6 3.6-4.2V11.7h8.7v17.9c0 7.5-6.1 11-12.8 11-7.8.1-12.4-3.3-12.4-10.8zm30.7-18.1h14.2c7.1 0 10.2 4.6 10.2 9.4 0 4.9-2.8 10.1-10.2 10.1h-5.2v9h-9zm12.5 12.9c2.1 0 3.2-1.5 3.2-3.1s-1-3.1-3.2-3.1h-3.6v6.2zM102 11.7h22.2v6.9H111v3.9h10.5v6.9H111v3.8h13.2v7H102zm27.5 0h13.7c7.6 0 10.7 4.3 10.7 9.1 0 3.5-1.6 6.8-5.1 8.5l6 10.9H145l-4.6-9.4h-1.9v9.4h-9zM142 24.6c2.1 0 3.2-1.5 3.2-3.1s-1-3.1-3.2-3.1h-3.6v6.2z" fill="#fff"/><path d="M297.1 15v16h23.7v4.8h-42.2V15zm-26.7 4.9h-12v15.9h-17.2V19.9H229V15h41.5zm-55.3 8.7h.4c3.4.1 6.7-2.8 6.7-6.5 0-5-3.9-7-7.4-7h0H181v20.8h16.1V29h3.3l8.4 6.8h16.9zm-10.3-4.1h-7.6v-4.7h7.4c1.5 0 2.3 1.2 2.3 2.3 0 1.2-.8 2.2-2.1 2.4z" fill="#8b0c7b"/></g><path d="M713.658 30.062v10.296h15.901V21.963h15.313v53.466h-15.316V56.867h-15.899v18.562H698.31V21.963h15.357zm42.266-8.07h19.046c7.108 0 13.614 1.813 18.095 6.375 5.134 5.227 7.02 13.532 6.932 20.858-.084 6.941-2.154 14.669-7.041 19.598-4.499 4.538-10.951 6.635-17.986 6.635h-19.046zm14.864 39.154s-1.391 0 1.989 0 6.105-.184 8.328-1.972c2.85-2.291 4.634-6.229 4.761-9.884.14-4.02-1.39-8.62-4.469-11.209-2.247-1.89-5.045-1.81-8.62-1.81h-1.989zM645.572 0h11.036v95.736h-11.036z" fill="#8b0c7b"/></svg>