<?xml version="1.0" encoding="UTF-8"?>
<svg width="800" height="173.89" version="1.1" viewBox="0 0 800 173.89" xmlns="http://www.w3.org/2000/svg">
 <linearGradient id="a" x1="-6.91" x2="513.47" y1="170.74" y2="-49.534" gradientTransform="matrix(1.2262 0 0 1.2262 .013813 .00758)" gradientUnits="userSpaceOnUse">
  <stop stop-color="#00b4e5" offset="0"/>
  <stop stop-color="#00b4e5" offset=".05"/>
  <stop stop-color="#17b4ea" offset=".11"/>
  <stop stop-color="#4485c6" offset=".16"/>
  <stop stop-color="#526fb5" offset=".189"/>
  <stop stop-color="#4964ac" offset=".22"/>
  <stop stop-color="#5966ac" offset=".28"/>
  <stop stop-color="#625ca4" offset=".325"/>
  <stop stop-color="#70559f" offset=".36"/>
  <stop stop-color="#674f9b" offset=".395"/>
  <stop stop-color="#604a98" offset=".44"/>
  <stop stop-color="#544394" offset=".48"/>
  <stop stop-color="#654796" offset=".54"/>
  <stop stop-color="#6b4997" offset=".565"/>
  <stop stop-color="#6a4997" offset=".58"/>
  <stop stop-color="#694b99" offset=".595"/>
  <stop stop-color="#6a4c99" offset=".62"/>
  <stop stop-color="#765aa2" offset=".661"/>
  <stop stop-color="#5e4393" offset=".71"/>
  <stop stop-color="#5c3d90" offset=".755"/>
  <stop stop-color="#2364aa" offset=".835"/>
  <stop stop-color="#2364aa" offset="1"/>
 </linearGradient>
 <radialGradient id="b" cx="212.79" cy="21.919" r="95.363" fx="186.09" fy="22.436" gradientTransform="matrix(1.2262 0 0 1.2262 .013813 .00758)" gradientUnits="userSpaceOnUse">
  <stop stop-color="#4c2360" offset="0"/>
  <stop stop-color="#4c2360" offset=".164"/>
  <stop stop-color="#6a2772" offset=".377"/>
  <stop stop-color="#6c2773" stop-opacity="0" offset=".924"/>
 </radialGradient>
 <path d="m426.37 0.00758v56.529l30.411 30.411-30.411 30.409v56.531l86.205-86.94zm77.499 0v56.529l30.409 30.411-30.409 30.409v56.531l86.202-86.94zm247.77 4.1433 2e-3 0.031135c-4.7264 0-11.528 0.13752-20.415 0.41912-1.6064 0.096-3.0596 0.16765-4.3828 0.16765h-3.547v95.557h3.9661a159.92 159.92 0 0 1 6.088 0.13891 218.21 218.21 0 0 0 7.5106 0.1389c2.3632 0.096 4.505 0.14131 6.3946 0.14131 7.5616 0 14.559-1.0502 20.97-3.1302 6.4112-2.08 12-5.1518 16.726-9.2159 4.7264-4.16 8.412-9.278 11.041-15.438 2.6288-6.16 4.0092-13.351 4.0092-21.591 0-15.974-4.2087-27.841-12.622-35.575-8.3196-7.7504-20.238-11.644-35.742-11.644zm-115.26 0.45265v95.727h12.32v-44.539h49.906v44.539h12.193v-95.727h-12.193v40.832h-49.906v-40.832zm-573.95 1.5352c-39.239 0-63.029 19.497-62.415 48.927 1.2262 51.869 62.66 38.747 62.66 65.356 0 11.159-9.5641 16.679-22.807 16.679-11.404 0-24.646-3.3113-33.352-6.6221l-1.5951 34.334c9.9324 2.2072 21.213 3.432 32.126 3.432 39.975 0 64.255-22.562 64.255-52.972 0-48.926-62.66-39.606-62.66-64.008 0-8.8288 7.2338-15.328 22.316-15.328 9.3193 0 20.969 2.3298 29.798 4.9049l0.12214-31.882c-9.6872-1.8393-20.109-2.8213-28.448-2.8213zm267.68 2.0836c-18.884 0-35.804 0.24572-48.925 1.1041v156.47h36.174v-60.943h1.3484l37.278 61.189h43.775l-32.986-50.397c-3.9239-5.7633-7.8464-11.527-12.016-17.658 20.846-5.1502 33.843-22.196 33.843-43.287 0-33.231-21.583-46.474-58.492-46.474zm-230.28 1.2262 27.712 156.47h40.834l17.656-100.43 17.658 100.43h40.834l27.712-156.47h-36.418l-15.819 96.872-15.819-96.872h-36.296l-15.819 96.872-15.819-96.872zm650.54 4.6582-0.012 0.01676c24.48 0 36.748 12.715 36.748 38.142 0 6.3328-0.96201 11.904-2.85 16.726-1.7968 4.7264-4.386 8.683-7.7908 11.896-3.3088 3.2-7.3371 5.624-12.063 7.2304-4.7264 1.6064-10.029 2.4022-15.888 2.4022-2.08 0-4.2828-0.0485-6.646-0.1413-2.3632-0.1888-4.4605-0.41534-6.2413-0.69694v-75.157h1.5639c3.592 0 6.1828-0.0477 7.7908-0.13891 1.7008-0.192 3.4991-0.27861 5.3887-0.28021zm-423.07 24.036c16.922 0 24.156 7.3574 24.156 19.62 0 13.243-9.8098 21.337-25.138 21.337-3.4334 0-7.2352-0.24572-9.0746-0.49097v-39.975c2.0846-0.24524 6.2552-0.49097 10.056-0.49097z" fill="url(#a)" stroke-width="1.2262"/>
 <path d="m512.57 86.946-86.204 86.939v-56.529l30.41-30.41-30.41-30.41v-56.529zm-276.76-77.498-15.818 96.872-15.818-96.872h-36.296l-15.818 96.872-15.818-96.872h-36.419l27.713 156.47h40.833l17.658-100.43 17.658 100.43h40.833l27.713-156.47zm130.96 106.19c-3.9239-5.7633-7.8478-11.527-12.017-17.658 20.846-5.1502 33.844-22.195 33.844-43.286 0-33.231-21.582-46.474-58.491-46.474-18.884 0-35.806 0.24525-48.926 1.1036v156.47h36.174v-60.943h1.3488l37.277 61.189h43.776zm-15.328-57.878c0 13.243-9.8098 21.336-25.138 21.336-3.4334 0-7.2347-0.24524-9.0741-0.49049v-39.975c2.0846-0.24524 6.2538-0.49049 10.055-0.49049 16.922 0 24.157 7.3574 24.157 19.62m-314.4 110.48c39.975 0 64.254-22.563 64.254-52.973 0-48.926-62.66-39.607-62.66-64.009 0-8.8288 7.2347-15.328 22.317-15.328 9.3193 0 20.968 2.3298 29.797 4.9049l0.12262-31.882c-9.6872-1.8393-20.11-2.8203-28.448-2.8203-39.239 0-63.028 19.497-62.415 48.926 1.2262 51.869 62.66 38.749 62.66 65.358 0 11.159-9.5646 16.677-22.808 16.677-11.404 0-24.647-3.3108-33.353-6.6216l-1.5941 34.334c9.9324 2.2072 21.214 3.4334 32.127 3.4334m466.82-168.24v56.529l30.41 30.41-30.41 30.41v56.529l86.204-86.939z" fill="url(#b)" stroke-width="1.2262"/>
</svg>
