<?xml version="1.0" encoding="UTF-8"?>
<svg width="800" height="385.03" version="1.1" xmlns="http://www.w3.org/2000/svg">
	<path d="m245.99 9.8497-16.501 101.06-16.501-101.06h-37.992l-16.374 101.06-16.501-101.06h-37.992l28.91 163.22h42.469l18.548-104.76 18.42 104.76h42.597l28.909-163.22zm84.938 72.146v-41.701c2.1746-0.25584 6.5238-0.51167 10.361-0.51167 17.781 0 25.328 7.6751 25.328 20.467 0 12.792-10.233 22.258-26.223 22.258a83.403 83.403 0 0 1-9.4659-0.51167m-37.736-72.146v163.22h37.736v-63.703h1.4071l38.887 63.703h45.795l-34.41-52.446-12.664-18.292c21.874-5.3726 35.305-23.153 35.305-45.155 0-34.666-22.386-48.481-61.017-48.481-19.699 0-37.352 0.25584-51.039 1.1513m-293.19 46.051v1.535c1.2792 54.109 65.366 40.294 65.366 68.18 0 11.641-9.9776 17.397-23.793 17.397s-25.712-3.5817-34.922-6.9076l-1.6629 35.689a152.35 152.35 0 0 0 33.642 3.7096c41.701 0 67.029-23.537 67.029-55.261 0-51.039-65.366-41.318-65.366-66.773 0-9.0822 7.5472-15.862 23.409-15.862 9.5939 0 21.874 2.4304 31.084 4.9888v-33.259a167.44 167.44 0 0 0-29.677-2.9421c-40.294 0-64.982 19.699-65.11 49.504m444.77 3.07 31.724 31.724-31.724 31.724v58.97l89.926-90.694-89.926-90.694zm80.844 0 31.724 31.724-31.724 31.724v58.97l89.926-90.694-89.926-90.694z"/>
	<path d="m87.24 381.84-44.26-76.623v76.623h-37.736v-163.22h37.736v72.018l44.643-72.018h45.283l-53.726 78.286 56.924 84.938zm192.77-163.22h-37.224v101.31c0 24.432-8.3147 33.387-29.549 33.387-23.281 0-29.293-12.152-29.293-31.212v-103.49h-37.736v105.66c0 32.619 12.536 60.761 64.599 60.761 43.236 0 69.204-21.362 69.204-67.285zm116.79 163.22v-32.875h-49.376v-130.35h-37.736v163.22zm100.16-131.12v-32.107h-115.89v32.107h39.143v131.12h37.48v-131.12zm148-32.107h-37.224v101.31c0 24.432-8.3147 33.387-29.549 33.387-23.281 0-29.293-12.152-29.293-31.212v-103.49h-37.736v105.66c0 32.619 12.664 60.761 64.599 60.761 43.364 0 69.204-21.362 69.204-67.285zm155.04 163.22h-45.795l-35.561-62.68h-6.268v62.68h-37.736v-163.22s23.281-1.2792 51.551-1.2792c39.143 0 62.424 14.327 62.424 49.121 0 24.688-13.815 39.399-32.619 45.667 0 0 6.7797 9.4659 11.768 17.909zm-51.551-109.5c0-12.792-7.5472-21.49-25.072-21.49-5.6284 0-11.768 0.38375-11.768 0.38375v42.725l10.745 0.25583c16.118 0 26.095-7.803 26.095-21.874z"/>
</svg>
