<?xml version="1.0" encoding="UTF-8"?>
<svg width="800" height="235.74" version="1.1" viewBox="0 0 800 235.74" xmlns="http://www.w3.org/2000/svg">
 <linearGradient id="a" x1="-6.91" x2="513.47" y1="170.74" y2="-49.534" gradientTransform="matrix(1.6625 0 0 1.6625 .019117 -.00172)" gradientUnits="userSpaceOnUse">
  <stop stop-color="#00b4e5" offset="0"/>
  <stop stop-color="#00b4e5" offset=".05"/>
  <stop stop-color="#17b4ea" offset=".11"/>
  <stop stop-color="#4485c6" offset=".16"/>
  <stop stop-color="#526fb5" offset=".189"/>
  <stop stop-color="#4964ac" offset=".22"/>
  <stop stop-color="#5966ac" offset=".28"/>
  <stop stop-color="#625ca4" offset=".325"/>
  <stop stop-color="#70559f" offset=".36"/>
  <stop stop-color="#674f9b" offset=".395"/>
  <stop stop-color="#604a98" offset=".44"/>
  <stop stop-color="#544394" offset=".48"/>
  <stop stop-color="#654796" offset=".54"/>
  <stop stop-color="#6b4997" offset=".565"/>
  <stop stop-color="#6a4997" offset=".58"/>
  <stop stop-color="#694b99" offset=".595"/>
  <stop stop-color="#6a4c99" offset=".62"/>
  <stop stop-color="#765aa2" offset=".661"/>
  <stop stop-color="#5e4393" offset=".71"/>
  <stop stop-color="#5c3d90" offset=".755"/>
  <stop stop-color="#2364aa" offset=".835"/>
  <stop stop-color="#2364aa" offset="1"/>
 </linearGradient>
 <path d="m694.93 117.87-116.87 117.87v-76.64l41.229-41.229-41.229-41.229v-76.64zm-375.22-105.07-21.446 131.34-21.446-131.34h-49.209l-21.446 131.34-21.446-131.34h-49.376l37.572 212.13h55.361l23.94-136.16 23.94 136.16h55.361l37.572-212.13zm177.55 143.97c-5.3199-7.8136-10.64-15.627-16.292-23.94 28.262-6.9824 45.884-30.091 45.884-58.685 0-45.053-29.26-63.008-79.3-63.008-25.602 0-48.544 0.3325-66.333 1.4962v212.13h49.043v-82.625h1.8287l50.539 82.958h59.35zm-20.781-78.469c0 17.955-13.3 28.927-34.081 28.927-4.6549 0-9.8086-0.33249-12.302-0.66498v-54.197c2.8262-0.3325 8.4786-0.66499 13.632-0.66499 22.942 0 32.751 9.9749 32.751 26.6m-426.26 149.79c54.197 0 87.114-30.59 87.114-71.819 0-66.333-84.953-53.698-84.953-86.781 0-11.97 9.8086-20.781 30.257-20.781 12.635 0 28.428 3.1587 40.398 6.6499l0.16625-43.224c-13.134-2.4937-27.265-3.8237-38.569-3.8237-53.199 0-85.451 26.433-84.62 66.333 1.6625 70.323 84.953 52.534 84.953 88.61 0 15.129-12.967 22.61-30.922 22.61-15.461 0-33.416-4.4887-45.219-8.9774l-2.1612 46.549c13.466 2.9925 28.761 4.6549 43.557 4.6549m632.91-228.09v76.64l41.229 41.229-41.229 41.229v76.64l116.87-117.87z" fill="url(#a)" stroke-width="1.6625"/>
 <radialGradient id="b" cx="212.79" cy="21.919" r="95.363" fx="186.09" fy="22.436" gradientTransform="matrix(1.6625 0 0 1.6625 .019117 -.00172)" gradientUnits="userSpaceOnUse">
  <stop stop-color="#4c2360" offset="0"/>
  <stop stop-color="#4c2360" offset=".164"/>
  <stop stop-color="#6a2772" offset=".377"/>
  <stop stop-color="#6c2773" stop-opacity="0" offset=".924"/>
 </radialGradient>
 <path d="m694.93 117.87-116.87 117.87v-76.64l41.229-41.229-41.229-41.229v-76.64zm-375.22-105.07-21.446 131.34-21.446-131.34h-49.209l-21.446 131.34-21.446-131.34h-49.376l37.572 212.13h55.361l23.94-136.16 23.94 136.16h55.361l37.572-212.13zm177.55 143.97c-5.3199-7.8136-10.64-15.627-16.292-23.94 28.262-6.9824 45.884-30.091 45.884-58.685 0-45.053-29.26-63.008-79.3-63.008-25.602 0-48.544 0.3325-66.333 1.4962v212.13h49.043v-82.625h1.8287l50.539 82.958h59.35zm-20.781-78.469c0 17.955-13.3 28.927-34.081 28.927-4.6549 0-9.8086-0.33249-12.302-0.66498v-54.197c2.8262-0.3325 8.4786-0.66499 13.632-0.66499 22.942 0 32.751 9.9749 32.751 26.6m-426.26 149.79c54.197 0 87.114-30.59 87.114-71.819 0-66.333-84.953-53.698-84.953-86.781 0-11.97 9.8086-20.781 30.257-20.781 12.635 0 28.428 3.1587 40.398 6.6499l0.16625-43.224c-13.134-2.4937-27.265-3.8237-38.569-3.8237-53.199 0-85.451 26.433-84.62 66.333 1.6625 70.323 84.953 52.534 84.953 88.61 0 15.129-12.967 22.61-30.922 22.61-15.461 0-33.416-4.4887-45.219-8.9774l-2.1612 46.549c13.466 2.9925 28.761 4.6549 43.557 4.6549m632.91-228.09v76.64l41.229 41.229-41.229 41.229v76.64l116.87-117.87z" fill="url(#b)" stroke-width="1.6625"/>
</svg>
