<?xml version="1.0" encoding="UTF-8" standalone="no"?>
<!-- Created with Inkscape (http://www.inkscape.org/) -->

<svg
   xmlns:dc="http://purl.org/dc/elements/1.1/"
   xmlns:cc="http://creativecommons.org/ns#"
   xmlns:rdf="http://www.w3.org/1999/02/22-rdf-syntax-ns#"
   xmlns:svg="http://www.w3.org/2000/svg"
   xmlns="http://www.w3.org/2000/svg"
   xmlns:sodipodi="http://sodipodi.sourceforge.net/DTD/sodipodi-0.dtd"
   xmlns:inkscape="http://www.inkscape.org/namespaces/inkscape"
   width="575.44135"
   height="191.49162"
   id="svg3741"
   version="1.1"
   inkscape:version="0.47 r22583"
   sodipodi:docname="SWR1 Baden-Württemberg Logo.svg">
  <defs
     id="defs3743">
    <inkscape:perspective
       sodipodi:type="inkscape:persp3d"
       inkscape:vp_x="0 : 526.18109 : 1"
       inkscape:vp_y="0 : 1000 : 0"
       inkscape:vp_z="744.09448 : 526.18109 : 1"
       inkscape:persp3d-origin="372.04724 : 350.78739 : 1"
       id="perspective3749" />
    <inkscape:perspective
       id="perspective3711"
       inkscape:persp3d-origin="0.5 : 0.33333333 : 1"
       inkscape:vp_z="1 : 0.5 : 1"
       inkscape:vp_y="0 : 1000 : 0"
       inkscape:vp_x="0 : 0.5 : 1"
       sodipodi:type="inkscape:persp3d" />
  </defs>
  <sodipodi:namedview
     id="base"
     pagecolor="#ffffff"
     bordercolor="#666666"
     borderopacity="1.0"
     inkscape:pageopacity="0.0"
     inkscape:pageshadow="2"
     inkscape:zoom="1.4499931"
     inkscape:cx="287.72068"
     inkscape:cy="95.745814"
     inkscape:document-units="px"
     inkscape:current-layer="layer1"
     showgrid="false"
     inkscape:window-width="1280"
     inkscape:window-height="1005"
     inkscape:window-x="-4"
     inkscape:window-y="-4"
     inkscape:window-maximized="1" />
  <metadata
     id="metadata3746">
    <rdf:RDF>
      <cc:Work
         rdf:about="">
        <dc:format>image/svg+xml</dc:format>
        <dc:type
           rdf:resource="http://purl.org/dc/dcmitype/StillImage" />
        <dc:title />
      </cc:Work>
    </rdf:RDF>
  </metadata>
  <g
     inkscape:label="Ebene 1"
     inkscape:groupmode="layer"
     id="layer1"
     transform="translate(-62.279344,-436.61637)">
    <g
       id="layer1-1"
       transform="matrix(0.64960933,0,0,0.64960933,50.77017,427.07233)">
      <g
         id="Ebene_x0020_1"
         style="fill-rule:evenodd"
         transform="matrix(3.543307,0,0,3.543307,5.348261e-4,2.070312e-6)">
        <g
           id="_161203592">
          <path
             id="_157740080"
             style="fill:#003257"
             d="M 254.998,46.8803 255,65.0559 211.6681,65.061 211.6661,46.7837 c 3.4575,-0.5966 6.9107,-1.2171 10.4037,-1.5817 l -10e-4,-15.8202 -8.4778,3.4858 -4.0807,-21.259 20.1871,-7.46 17.0121,-0.0022 0.004,41.203 c 2.7794,0.4065 5.5275,0.9796 8.2848,1.5309 z" />
          <path
             id="_47674320"
             style="fill:#fdcc00"
             d="m 250.503,60.567 0,-10.0027 c -2.5258,-0.5052 -5.6569,-1.0091 -8.2824,-1.2109 l 0,-40.7133 -11.7179,0 -15.8602,5.8616 2.3218,12.1208 9.5981,-3.9388 0,26.6697 c -3.9404,0.2018 -7.4749,0.7057 -10.4022,1.2109 l 0,10.0027 34.3428,0 0,0 z" />
          <path
             id="_160597816"
             style="fill:#e20030"
             d="M 5,5.3156 5,25.007 15.5753,35.5857 5,46.1577 5,65.8536 35.0189,35.5857 5,5.3156 l 0,0 z m 26.9731,0 0,19.6914 10.5756,10.5787 -10.5756,10.572 0,19.6959 30.0211,-30.2679 -30.0211,-30.2701 0,0 z" />
          <path
             id="_47830520"
             style="fill:#003257"
             d="m 207.948,62.8064 -15.3116,0 -12.9736,-21.2903 -0.4878,0 0,21.2903 -12.5973,0 0,-54.4734 c 4.6075,-0.3233 10.4983,-0.406 17.06,-0.406 12.8746,0 20.3824,4.6164 20.3824,16.1708 0,7.3371 -4.5185,13.3061 -11.7881,15.0808 1.4504,2.0949 2.8277,4.1121 4.2001,6.1294 l 11.5159,17.4984 0,0 z M 191.099,25.1482 c 0,-4.2746 -2.5139,-6.853 -8.4363,-6.853 -1.2979,0 -2.7574,0.0806 -3.488,0.1599 l 3e-4,13.9492 c 0.6476,0.0807 1.9455,0.1608 3.1632,0.1608 5.3542,0 8.7608,-2.8196 8.7608,-7.4169 l 0,0 z m -40.2768,-16.8094 -5.4913,33.7343 -5.492,-33.7343 -2.8774,0 -6.9245,0 -2.8774,0 -5.4902,33.7343 -5.4911,-33.7343 -12.688,0 9.6303,54.4926 4.4097,0 8.2766,0 1.5253,0 6.1684,-34.9745 6.166,34.9745 1.5271,0 8.2771,0 4.4098,0 9.6301,-54.4926 -12.6885,0 0,0 z M 81.6345,63.6305 c -3.789,0 -7.7558,-0.406 -11.2207,-1.2169 L 70.973,50.4802 c 3.0618,1.1314 7.6801,2.3056 11.6311,2.3056 4.62,0 7.9423,-1.9391 7.9423,-5.8129 0,-9.2844 -21.3965,-4.6851 -21.8097,-22.7665 -0.231,-10.2397 8.0619,-17.0028 21.7295,-17.0028 2.9028,0 6.5286,0.3231 9.9135,0.9662 l -0.0247,11.1187 c -3.0642,-0.8876 -7.1476,-1.7009 -10.3749,-1.7009 -5.2696,-2e-4 -7.7832,2.2596 -7.7832,5.3281 0,8.4759 21.8102,5.2465 21.8102,22.2796 0,10.5844 -8.4617,18.4352 -22.3726,18.4352 l 0,0 0,0 z" />
        </g>
      </g>
    </g>
    <g
       style="font-size:44.47553253000000200px;font-style:normal;font-variant:normal;font-weight:normal;font-stretch:normal;text-align:start;line-height:100%;writing-mode:lr-tb;text-anchor:start;fill:#003257;fill-opacity:1;stroke:#003257;stroke-width:0.50000000000000000;stroke-miterlimit:4;stroke-opacity:1;font-family:Arial;-inkscape-font-specification:Arial"
       id="text2865"
       transform="translate(-132.82983,721.29461)">
      <path
         d="m 366.08592,-102.79646 0,-31.83649 11.94411,0 c 2.43224,3e-5 4.38311,0.32216 5.85261,0.96638 1.46947,0.64429 2.62045,1.63602 3.45294,2.97517 0.83244,1.33922 1.24867,2.73994 1.2487,4.20216 -3e-5,1.36093 -0.36921,2.6422 -1.10754,3.84383 -0.73839,1.20167 -1.85317,2.17168 -3.34436,2.91002 1.92552,0.56465 3.40586,1.52742 4.44104,2.88831 1.03513,1.36091 1.55271,2.96794 1.55274,4.82108 -3e-5,1.49121 -0.31492,2.87745 -0.94467,4.15872 -0.62981,1.28128 -1.40799,2.26938 -2.33453,2.96431 -0.9266,0.69493 -2.08844,1.21975 -3.48551,1.57445 -1.39712,0.35471 -3.10911,0.53206 -5.13597,0.53206 z m 4.21301,-18.45909 6.88415,0 c 1.86761,2e-5 3.2068,-0.12304 4.01757,-0.36918 1.07133,-0.31849 1.87846,-0.84692 2.42139,-1.58531 0.5429,-0.73834 0.81435,-1.66491 0.81438,-2.77972 -3e-5,-1.05685 -0.25339,-1.98704 -0.76008,-2.79058 -0.50674,-0.80348 -1.23063,-1.35364 -2.17166,-1.65046 -0.94107,-0.29676 -2.55533,-0.44516 -4.8428,-0.44519 l -6.36295,0 z m 0,14.70212 7.92655,0 c 1.36089,0 2.31641,-0.0507 2.86658,-0.15202 0.96999,-0.17372 1.78074,-0.46328 2.43226,-0.86866 0.65148,-0.40537 1.18715,-0.99534 1.60703,-1.7699 0.41983,-0.77455 0.62975,-1.66855 0.62978,-2.68199 -3e-5,-1.18717 -0.30406,-2.2187 -0.9121,-3.09462 -0.60808,-0.87588 -1.45141,-1.49119 -2.52998,-1.8459 -1.07861,-0.35469 -2.63134,-0.53205 -4.6582,-0.53206 l -7.36192,0 z"
         id="path3642"
         style="stroke:#003257;stroke-opacity:1" />
      <path
         d="m 410.51801,-105.64133 c -1.44778,1.2306 -2.84126,2.09927 -4.18044,2.60598 -1.3392,0.50672 -2.77611,0.76008 -4.31073,0.76008 -2.53361,0 -4.48086,-0.61892 -5.84176,-1.85676 -1.36091,-1.23784 -2.04136,-2.81953 -2.04136,-4.74507 0,-1.12926 0.25698,-2.16079 0.77094,-3.09461 0.51396,-0.93381 1.18717,-1.68303 2.01964,-2.24767 0.83246,-0.56462 1.76989,-0.99171 2.8123,-1.28128 0.76731,-0.20267 1.92552,-0.39812 3.47465,-0.58634 3.15612,-0.37641 5.4798,-0.82522 6.97102,-1.34643 0.0145,-0.53566 0.0217,-0.87589 0.0217,-1.02068 -2e-5,-1.59253 -0.3692,-2.71455 -1.10754,-3.36607 -0.99898,-0.88312 -2.48294,-1.32469 -4.4519,-1.32471 -1.83868,2e-5 -3.19596,0.32215 -4.07186,0.96639 -0.8759,0.64428 -1.52378,1.7844 -1.94363,3.42036 l -3.82211,-0.5212 c 0.34746,-1.63596 0.91933,-2.95705 1.7156,-3.96327 0.79627,-1.00618 1.94725,-1.78074 3.45294,-2.32368 1.50567,-0.54289 3.25023,-0.81434 5.23369,-0.81437 1.96896,3e-5 3.56874,0.23167 4.79936,0.69493 1.23059,0.46331 2.13545,1.04604 2.71457,1.74819 0.57909,0.70219 0.98447,1.58895 1.21613,2.66028 0.13028,0.66599 0.19543,1.86764 0.19545,3.60495 l 0,5.21197 c -2e-5,3.63392 0.0832,5.93225 0.24974,6.89501 0.16647,0.96277 0.49584,1.88573 0.98811,2.76887 l -4.08272,0 c -0.40539,-0.81075 -0.66599,-1.75904 -0.7818,-2.84487 z m -0.32574,-8.73006 c -1.41884,0.57912 -3.54706,1.07136 -6.38468,1.47672 -1.60703,0.23166 -2.74353,0.49225 -3.4095,0.7818 -0.66598,0.28956 -1.17994,0.71303 -1.54187,1.27042 -0.36195,0.5574 -0.54292,1.17632 -0.54292,1.85676 0,1.04241 0.39451,1.91107 1.18356,2.60599 0.78902,0.69494 1.94362,1.0424 3.46379,1.0424 1.50567,0 2.84486,-0.32937 4.01756,-0.98811 1.17268,-0.65873 2.03411,-1.55996 2.58428,-2.70371 0.41983,-0.88313 0.62976,-2.18612 0.62978,-3.90898 z"
         id="path3644"
         style="stroke:#003257;stroke-opacity:1" />
      <path
         d="m 435.18804,-102.79646 0,-2.91002 c -1.46227,2.28748 -3.61221,3.43121 -6.44983,3.43121 -1.83867,0 -3.52895,-0.50672 -5.07081,-1.52016 -1.54189,-1.01343 -2.7363,-2.42863 -3.58324,-4.24558 -0.84695,-1.81695 -1.27042,-3.90536 -1.27042,-6.26523 0,-2.30195 0.38366,-4.39035 1.15098,-6.26523 0.76732,-1.87485 1.91829,-3.31176 3.45294,-4.31074 1.53463,-0.99894 3.25023,-1.49842 5.14682,-1.49845 1.38985,3e-5 2.62769,0.2932 3.71354,0.87952 1.08581,0.58637 1.96895,1.35007 2.64942,2.2911 l 0,-11.42291 3.88726,0 0,31.83649 z m -12.35673,-11.50978 c -10e-6,2.95346 0.62253,5.16131 1.86762,6.62355 1.24508,1.46225 2.71456,2.19338 4.40847,2.19337 1.70835,1e-5 3.15974,-0.69854 4.35417,-2.09565 1.19439,-1.39709 1.7916,-3.52893 1.79162,-6.39553 -2e-5,-3.15612 -0.60809,-5.47255 -1.8242,-6.9493 -1.21614,-1.4767 -2.71458,-2.21507 -4.49533,-2.21509 -1.73733,2e-5 -3.18872,0.70943 -4.35417,2.12823 -1.16546,1.41883 -1.74819,3.65563 -1.74818,6.71042 z"
         id="path3646"
         style="stroke:#003257;stroke-opacity:1" />
      <path
         d="m 460.77015,-110.22353 4.03928,0.49948 c -0.63704,2.35987 -1.81697,4.1913 -3.5398,5.49429 -1.72286,1.303 -3.92347,1.95449 -6.60184,1.95449 -3.37331,0 -6.04807,-1.03877 -8.02427,-3.11632 -1.97621,-2.07755 -2.96431,-4.99119 -2.96431,-8.74092 0,-3.88001 0.99896,-6.89137 2.99689,-9.03409 1.99792,-2.14268 4.58942,-3.21403 7.77453,-3.21406 3.08374,3e-5 5.60286,1.04966 7.55737,3.14891 1.95446,2.09928 2.93171,5.05273 2.93173,8.86036 -2e-5,0.23165 -0.007,0.57912 -0.0217,1.04239 l -17.19953,0 c 0.14477,2.53361 0.86142,4.47362 2.14994,5.82004 1.28851,1.34643 2.89553,2.01965 4.82108,2.01964 1.43328,1e-5 2.65665,-0.37641 3.6701,-1.12926 1.01342,-0.75284 1.81694,-1.95448 2.41054,-3.60495 z m -12.83449,-6.31952 12.87792,0 c -0.17375,-1.94 -0.66599,-3.39501 -1.47672,-4.36503 -1.2451,-1.50566 -2.85937,-2.2585 -4.8428,-2.25852 -1.79524,2e-5 -3.30454,0.60084 -4.5279,1.80247 -1.22338,1.20167 -1.90021,2.80869 -2.0305,4.82108 z"
         id="path3648"
         style="stroke:#003257;stroke-opacity:1" />
      <path
         d="m 469.73909,-102.79646 0,-23.063 3.51809,0 0,3.2792 c 1.69388,-2.53357 4.14061,-3.80037 7.3402,-3.8004 1.38984,3e-5 2.6675,0.24977 3.83297,0.74923 1.16544,0.4995 2.03772,1.15461 2.61685,1.96534 0.57909,0.81078 0.98446,1.77354 1.21613,2.88831 0.14475,0.7239 0.21714,1.9907 0.21716,3.8004 l 0,14.18092 -3.90898,0 0,-14.02891 c -2e-5,-1.59253 -0.15203,-2.78332 -0.45605,-3.57237 -0.30405,-0.78902 -0.84334,-1.4188 -1.61788,-1.88934 -0.77457,-0.47051 -1.68305,-0.70577 -2.72543,-0.70579 -1.66495,2e-5 -3.10186,0.52845 -4.31074,1.58531 -1.2089,1.05689 -1.81334,3.06205 -1.81333,6.01549 l 0,12.59561 z"
         id="path3650"
         style="stroke:#003257;stroke-opacity:1" />
      <path
         d="m 492.97582,-112.35175 0,-3.9307 12.00926,0 0,3.9307 z"
         id="path3652"
         style="stroke:#003257;stroke-opacity:1" />
      <path
         d="m 515.40904,-102.79646 -8.44775,-31.83649 4.3216,0 4.8428,20.86962 c 0.52118,2.18614 0.96999,4.3578 1.34642,6.51497 0.81074,-3.40225 1.28851,-5.36398 1.4333,-5.88519 l 6.05892,-21.4994 5.08168,0 4.56048,16.11369 c 1.14371,3.99586 1.96894,7.75282 2.47569,11.2709 0.40534,-2.0124 0.93378,-4.32159 1.58531,-6.92758 l 4.99481,-20.45701 4.23473,0 -8.73006,31.83649 -4.061,0 -6.71042,-24.25741 c -0.56465,-2.02685 -0.89764,-3.27194 -0.99896,-3.73525 -0.33301,1.46228 -0.64428,2.70736 -0.93382,3.73525 l -6.75385,24.25741 z"
         id="path3654"
         style="stroke:#003257;stroke-opacity:1" />
      <path
         d="m 566.42125,-102.79646 0,-3.38779 c -1.79525,2.60599 -4.23474,3.90898 -7.31848,3.90898 -1.36091,0 -2.63133,-0.26059 -3.81126,-0.78179 -1.17994,-0.5212 -2.05584,-1.17631 -2.6277,-1.96535 -0.57187,-0.78903 -0.97363,-1.75542 -1.20527,-2.89916 -0.15926,-0.76732 -0.23889,-1.98344 -0.23888,-3.64839 l 0,-14.2895 3.90898,0 0,12.79106 c -10e-6,2.04137 0.0796,3.41675 0.23888,4.12615 0.24612,1.02792 0.76731,1.83505 1.56359,2.4214 0.79627,0.58635 1.78075,0.87952 2.95346,0.87952 1.17268,0 2.27298,-0.30041 3.30092,-0.90124 1.0279,-0.60082 1.7554,-1.41881 2.18251,-2.45397 0.42708,-1.03515 0.64062,-2.53721 0.64064,-4.50619 l 0,-12.35673 3.90898,0 0,23.063 z m -11.94411,-27.58005 0,-4.45189 4.08272,0 0,4.45189 z m 8.10028,0 0,-4.45189 4.08272,0 0,4.45189 z"
         id="path3656"
         style="stroke:#003257;stroke-opacity:1" />
      <path
         d="m 576.01997,-102.79646 0,-23.063 3.51809,0 0,3.49637 c 0.89761,-1.63596 1.72645,-2.71455 2.48654,-3.23577 0.76007,-0.52117 1.59616,-0.78177 2.50827,-0.7818 1.31746,3e-5 2.65664,0.41988 4.01756,1.25956 l -1.34643,3.62667 c -0.95554,-0.56461 -1.91107,-0.84693 -2.86658,-0.84694 -0.8542,1e-5 -1.62152,0.25699 -2.30196,0.77093 -0.68046,0.51398 -1.16546,1.22701 -1.45501,2.13909 -0.43434,1.38987 -0.6515,2.91003 -0.6515,4.56047 l 0,12.07442 z"
         id="path3658"
         style="stroke:#003257;stroke-opacity:1" />
      <path
         d="m 599.45216,-106.29283 0.56463,3.45293 c -1.10032,0.23165 -2.0848,0.34747 -2.95345,0.34747 -1.41883,0 -2.51913,-0.22441 -3.30092,-0.67321 -0.7818,-0.44881 -1.33196,-1.03878 -1.65046,-1.76991 -0.31852,-0.73112 -0.47777,-2.26937 -0.47777,-4.61477 l 0,-13.26882 -2.86658,0 0,-3.04032 2.86658,0 0,-5.71146 3.88727,-2.34539 0,8.05685 3.9307,0 0,3.04032 -3.9307,0 0,13.48599 c -1e-5,1.11479 0.0688,1.83144 0.20631,2.14994 0.13753,0.31851 0.36193,0.57187 0.67321,0.76008 0.31126,0.18821 0.75645,0.28232 1.33557,0.28232 0.43432,0 1.00619,-0.0507 1.71561,-0.15202 z"
         id="path3660"
         style="stroke:#003257;stroke-opacity:1" />
      <path
         d="m 611.78716,-106.29283 0.56464,3.45293 c -1.10032,0.23165 -2.08481,0.34747 -2.95346,0.34747 -1.41882,0 -2.51913,-0.22441 -3.30092,-0.67321 -0.7818,-0.44881 -1.33195,-1.03878 -1.65046,-1.76991 -0.31851,-0.73112 -0.47776,-2.26937 -0.47776,-4.61477 l 0,-13.26882 -2.86659,0 0,-3.04032 2.86659,0 0,-5.71146 3.88727,-2.34539 0,8.05685 3.93069,0 0,3.04032 -3.93069,0 0,13.48599 c -10e-6,1.11479 0.0688,1.83144 0.2063,2.14994 0.13753,0.31851 0.36194,0.57187 0.67322,0.76008 0.31126,0.18821 0.75645,0.28232 1.33557,0.28232 0.43432,0 1.00619,-0.0507 1.7156,-0.15202 z"
         id="path3662"
         style="stroke:#003257;stroke-opacity:1" />
      <path
         d="m 631.3755,-110.22353 4.03929,0.49948 c -0.63704,2.35987 -1.81698,4.1913 -3.5398,5.49429 -1.72287,1.303 -3.92348,1.95449 -6.60184,1.95449 -3.37332,0 -6.04807,-1.03877 -8.02427,-3.11632 -1.97621,-2.07755 -2.96432,-4.99119 -2.96431,-8.74092 -10e-6,-3.88001 0.99895,-6.89137 2.99688,-9.03409 1.99792,-2.14268 4.58943,-3.21403 7.77453,-3.21406 3.08374,3e-5 5.60286,1.04966 7.55737,3.14891 1.95447,2.09928 2.93171,5.05273 2.93174,8.86036 -3e-5,0.23165 -0.007,0.57912 -0.0217,1.04239 l -17.19952,0 c 0.14477,2.53361 0.86141,4.47362 2.14994,5.82004 1.2885,1.34643 2.89553,2.01965 4.82108,2.01964 1.43328,1e-5 2.65664,-0.37641 3.6701,-1.12926 1.01342,-0.75284 1.81693,-1.95448 2.41053,-3.60495 z m -12.83449,-6.31952 12.87793,0 c -0.17375,-1.94 -0.66599,-3.39501 -1.47673,-4.36503 -1.2451,-1.50566 -2.85936,-2.2585 -4.84279,-2.25852 -1.79525,2e-5 -3.30455,0.60084 -4.52791,1.80247 -1.22337,1.20167 -1.9002,2.80869 -2.0305,4.82108 z"
         id="path3664"
         style="stroke:#003257;stroke-opacity:1" />
      <path
         d="m 640.34446,-102.79646 0,-23.063 3.49636,0 0,3.23577 c 0.72388,-1.12924 1.68665,-2.03772 2.88831,-2.72543 1.20164,-0.68767 2.56978,-1.03151 4.10443,-1.03154 1.70835,3e-5 3.10907,0.35473 4.20216,1.06412 1.09304,0.70943 1.86398,1.70115 2.31281,2.97517 1.82417,-2.69284 4.19851,-4.03926 7.12303,-4.03929 2.28745,3e-5 4.04649,0.63343 5.27713,1.9002 1.23057,1.26682 1.84587,3.21769 1.84591,5.85262 l 0,15.83138 -3.88727,0 0,-14.52839 c -3e-5,-1.56357 -0.12671,-2.68922 -0.38004,-3.37692 -0.25339,-0.68768 -0.71305,-1.24145 -1.379,-1.66132 -0.666,-0.41984 -1.4478,-0.62976 -2.34539,-0.62978 -1.62153,2e-5 -2.96795,0.53931 -4.03928,1.61788 -1.07137,1.07861 -1.60705,2.80508 -1.60703,5.1794 l 0,13.39913 -3.90898,0 0,-14.98444 c -2e-5,-1.7373 -0.31852,-3.0403 -0.95553,-3.90898 -0.63703,-0.86864 -1.67943,-1.30297 -3.12718,-1.30299 -1.10032,2e-5 -2.11738,0.28957 -3.05118,0.86866 -0.93382,0.57913 -1.61065,1.42607 -2.0305,2.54084 -0.41986,1.1148 -0.62979,2.72182 -0.62978,4.82108 l 0,11.96583 z"
         id="path3666"
         style="stroke:#003257;stroke-opacity:1" />
      <path
         d="m 681.0413,-102.79646 -3.62667,0 0,-31.83649 3.90898,0 0,11.35776 c 1.65045,-2.07029 3.75696,-3.10544 6.31952,-3.10547 1.4188,3e-5 2.76161,0.28596 4.02843,0.85781 1.26678,0.57189 2.30917,1.3754 3.12718,2.41054 0.81797,1.03517 1.45861,2.28387 1.92192,3.74611 0.46326,1.46226 0.69491,3.02585 0.69493,4.69077 -2e-5,3.95243 -0.97727,7.00722 -2.93174,9.1644 -1.95451,2.15718 -4.29989,3.23576 -7.03617,3.23576 -2.72182,0 -4.85728,-1.1365 -6.40638,-3.4095 z m -0.0434,-11.70523 c 0,2.76525 0.37642,4.76317 1.12926,5.99377 1.2306,2.01241 2.89554,3.01861 4.99481,3.0186 1.70836,1e-5 3.18509,-0.74198 4.43018,-2.22595 1.24507,-1.48395 1.86761,-3.69542 1.86763,-6.63441 -2e-5,-3.01135 -0.59722,-5.23367 -1.79162,-6.66698 -1.19442,-1.43328 -2.63858,-2.14992 -4.33245,-2.14994 -1.70838,2e-5 -3.18511,0.742 -4.43018,2.22594 -1.24509,1.48399 -1.86763,3.6303 -1.86763,6.43897 z"
         id="path3668"
         style="stroke:#003257;stroke-opacity:1" />
      <path
         d="m 717.98119,-110.22353 4.03928,0.49948 c -0.63704,2.35987 -1.81697,4.1913 -3.5398,5.49429 -1.72287,1.303 -3.92348,1.95449 -6.60184,1.95449 -3.37331,0 -6.04807,-1.03877 -8.02427,-3.11632 -1.97621,-2.07755 -2.96431,-4.99119 -2.96431,-8.74092 0,-3.88001 0.99896,-6.89137 2.99688,-9.03409 1.99792,-2.14268 4.58943,-3.21403 7.77454,-3.21406 3.08373,3e-5 5.60285,1.04966 7.55736,3.14891 1.95447,2.09928 2.93172,5.05273 2.93174,8.86036 -2e-5,0.23165 -0.007,0.57912 -0.0217,1.04239 l -17.19952,0 c 0.14477,2.53361 0.86142,4.47362 2.14994,5.82004 1.28851,1.34643 2.89553,2.01965 4.82108,2.01964 1.43328,1e-5 2.65664,-0.37641 3.6701,-1.12926 1.01342,-0.75284 1.81693,-1.95448 2.41054,-3.60495 z m -12.83449,-6.31952 12.87792,0 c -0.17375,-1.94 -0.66599,-3.39501 -1.47673,-4.36503 -1.2451,-1.50566 -2.85936,-2.2585 -4.84279,-2.25852 -1.79525,2e-5 -3.30455,0.60084 -4.52791,1.80247 -1.22337,1.20167 -1.9002,2.80869 -2.03049,4.82108 z"
         id="path3670"
         style="stroke:#003257;stroke-opacity:1" />
      <path
         d="m 726.90671,-102.79646 0,-23.063 3.51808,0 0,3.49637 c 0.89761,-1.63596 1.72646,-2.71455 2.48655,-3.23577 0.76007,-0.52117 1.59615,-0.78177 2.50826,-0.7818 1.31746,3e-5 2.65665,0.41988 4.01757,1.25956 l -1.34643,3.62667 c -0.95554,-0.56461 -1.91107,-0.84693 -2.86659,-0.84694 -0.85419,1e-5 -1.62151,0.25699 -2.30195,0.77093 -0.68047,0.51398 -1.16547,1.22701 -1.45501,2.13909 -0.43434,1.38987 -0.65151,2.91003 -0.6515,4.56047 l 0,12.07442 z"
         id="path3672"
         style="stroke:#003257;stroke-opacity:1" />
      <path
         d="m 741.08762,-100.8854 3.8004,0.56463 c 0.15925,1.172687 0.60082,2.026871 1.32471,2.562551 0.97,0.72388 2.29471,1.085822 3.97413,1.085828 1.8097,-6e-6 3.2068,-0.361948 4.1913,-1.085828 0.98447,-0.72389 1.65044,-1.737329 1.99792,-3.040321 0.20267,-0.79627 0.29678,-2.46845 0.28232,-5.01653 -1.70839,2.01241 -3.83661,3.01861 -6.38467,3.01861 -3.17063,0 -5.6246,-1.14374 -7.36192,-3.43122 -1.73733,-2.28747 -2.60599,-5.031 -2.60599,-8.23058 0,-2.2006 0.39814,-4.2311 1.19441,-6.0915 0.79627,-1.86036 1.95087,-3.29728 3.4638,-4.31074 1.51291,-1.01341 3.29005,-1.52013 5.33141,-1.52016 2.7218,3e-5 4.96584,1.10033 6.73214,3.30092 l 0,-2.77972 3.60495,0 0,19.93581 c -2e-5,3.59047 -0.36558,6.134929 -1.09669,7.633375 -0.73114,1.498437 -1.88936,2.681989 -3.47465,3.550659 -1.58532,0.868654 -3.53619,1.302985 -5.85261,1.302994 -2.75078,-9e-6 -4.9731,-0.618931 -6.66699,-1.856767 -1.69389,-1.23785 -2.51188,-3.101854 -2.45397,-5.592011 z m 3.23577,-13.85518 c -10e-6,3.02586 0.60082,5.2337 1.80247,6.62356 1.20164,1.38986 2.70732,2.08479 4.51705,2.08479 1.79522,0 3.3009,-0.69131 4.51704,-2.07393 1.21611,-1.38262 1.82418,-3.55065 1.8242,-6.50412 -2e-5,-2.82314 -0.62618,-4.95136 -1.87849,-6.38467 -1.25233,-1.43327 -2.76163,-2.14992 -4.5279,-2.14994 -1.73734,2e-5 -3.21406,0.70581 -4.43018,2.11737 -1.21614,1.41159 -1.8242,3.50724 -1.82419,6.28694 z"
         id="path3674"
         style="stroke:#003257;stroke-opacity:1" />
    </g>
  </g>
</svg>
