<?xml version="1.0" encoding="UTF-8" standalone="no"?>
<!-- Created with Inkscape (http://www.inkscape.org/) -->
<svg
   xmlns:svg="http://www.w3.org/2000/svg"
   xmlns="http://www.w3.org/2000/svg"
   version="1.0"
   width="921.25983"
   height="248.03149"
   id="svg1881">
  <defs
     id="defs1883" />
  <g
     id="layer1">
    <g
       transform="scale(3.543307,3.543307)"
       style="fill-rule:evenodd"
       id="Ebene_x0020_1">
  
  <path
   d="M 5,5.2201 L 5,25.0358 L 15.6412,35.6783 L 5,46.32 L 5,66.1392 L 35.2071,35.6783 L 5,5.2201 L 5,5.2201 z M 32.1426,5.2201 L 32.1426,25.0358 L 42.7843,35.6783 L 32.1426,46.32 L 32.1426,66.1392 L 62.3502,35.6783 L 32.1426,5.2201 L 32.1426,5.2201 z "
   style="fill:#e20030"
   id="path10" />

  <path
   d="M 209.216,63.0728 L 193.8105,63.0728 L 180.7542,41.646 L 180.2646,41.646 L 180.2646,63.0728 L 167.5914,63.0728 L 167.5914,8.2574 C 172.2212,7.9311 178.1519,7.8505 184.7534,7.8505 C 197.7092,7.8503 205.2631,12.4938 205.2631,24.122 C 205.2631,31.506 200.7139,37.5082 193.4022,39.293 C 194.8635,41.4046 196.2452,43.4306 197.627,45.4599 L 209.216,63.0728 L 209.216,63.0728 z M 192.2638,25.1768 C 192.2638,20.8762 189.7309,18.2783 183.7741,18.2783 C 182.4672,18.2783 180.9999,18.3606 180.2646,18.4416 L 180.2646,32.479 C 180.916,32.56 182.2231,32.6413 183.448,32.6413 C 188.8364,32.641 192.2636,29.8022 192.2636,25.1768 L 192.2638,25.1768 z M 151.7348,8.2626 L 146.2082,42.2078 L 140.6832,8.2626 L 137.7857,8.2626 L 130.8212,8.2626 L 127.9228,8.2626 L 122.3978,42.2078 L 116.8737,8.2626 L 104.1057,8.2626 L 113.7968,63.1022 L 118.2336,63.1022 L 126.5622,63.1022 L 128.0972,63.1022 L 134.3031,27.9039 L 140.5113,63.1022 L 142.044,63.1022 L 150.3733,63.1022 L 154.8118,63.1022 L 164.5012,8.2626 L 151.7348,8.2626 L 151.7348,8.2626 z M 82.1143,63.9005 C 78.3025,63.9005 74.3109,63.4939 70.8238,62.6804 L 71.3846,50.6658 C 74.4668,51.8072 79.1134,52.9874 83.0899,52.9874 C 87.7391,52.9874 91.0822,51.0389 91.0822,47.1366 C 91.0822,37.796 69.5514,42.4236 69.1359,24.2302 C 68.9009,13.9276 77.2476,7.1192 91.0007,7.1192 C 93.9217,7.1192 97.5714,7.4455 100.976,8.0932 L 100.9501,19.2805 C 97.8689,18.3865 93.7591,17.5689 90.5111,17.5689 C 85.2116,17.5689 82.6808,19.8438 82.6808,22.9314 C 82.6808,31.4589 104.6281,28.2097 104.6281,45.3485 C 104.6281,56.0023 96.1107,63.9005 82.1143,63.9005 L 82.1143,63.9005 L 82.1143,63.9005 z "
   style="fill:#003257"
   id="path12" />

  <path
   d="M 255,67.3346 L 255,53.6001 C 246.5815,53.6001 241.8051,53.6001 233.179,53.9159 L 233.2831,53.7035 L 239.2054,47.6765 C 247.8292,39.3325 253.0246,31.7242 253.0246,22.0024 C 253.0246,11.753 246.688,2.6654 231.8284,2.6654 C 224.5545,2.6654 218.6345,4.8848 213.8514,7.947 L 216.9704,20.5232 C 220.1923,17.8829 224.4504,15.9793 228.6065,15.9793 C 234.1146,15.9793 236.8168,19.2561 236.8168,24.6439 C 236.8168,30.8781 233.3879,34.8914 220.1923,47.9933 L 213.3343,55.3941 L 213.3343,67.3346 L 255,67.3346 L 255,67.3346 z "
   style="fill:#0077c1"
   id="path14" />

 </g>
  </g>
</svg>
