<?xml version="1.0" encoding="UTF-8" standalone="no"?>
<!-- Created with Inkscape (http://www.inkscape.org/) -->

<svg
   xmlns:dc="http://purl.org/dc/elements/1.1/"
   xmlns:cc="http://creativecommons.org/ns#"
   xmlns:rdf="http://www.w3.org/1999/02/22-rdf-syntax-ns#"
   xmlns:svg="http://www.w3.org/2000/svg"
   xmlns="http://www.w3.org/2000/svg"
   xmlns:sodipodi="http://sodipodi.sourceforge.net/DTD/sodipodi-0.dtd"
   xmlns:inkscape="http://www.inkscape.org/namespaces/inkscape"
   width="584.94714"
   height="189.87396"
   id="svg3741"
   version="1.1"
   inkscape:version="0.47 r22583"
   sodipodi:docname="SWR1 Rheinland-Pfalz Logo.svg">
  <defs
     id="defs3743">
    <inkscape:perspective
       sodipodi:type="inkscape:persp3d"
       inkscape:vp_x="0 : 526.18109 : 1"
       inkscape:vp_y="0 : 1000 : 0"
       inkscape:vp_z="744.09448 : 526.18109 : 1"
       inkscape:persp3d-origin="372.04724 : 350.78739 : 1"
       id="perspective3749" />
    <inkscape:perspective
       id="perspective3711"
       inkscape:persp3d-origin="0.5 : 0.33333333 : 1"
       inkscape:vp_z="1 : 0.5 : 1"
       inkscape:vp_y="0 : 1000 : 0"
       inkscape:vp_x="0 : 0.5 : 1"
       sodipodi:type="inkscape:persp3d" />
    <inkscape:perspective
       id="perspective3818"
       inkscape:persp3d-origin="0.5 : 0.33333333 : 1"
       inkscape:vp_z="1 : 0.5 : 1"
       inkscape:vp_y="0 : 1000 : 0"
       inkscape:vp_x="0 : 0.5 : 1"
       sodipodi:type="inkscape:persp3d" />
    <inkscape:perspective
       sodipodi:type="inkscape:persp3d"
       inkscape:vp_x="0 : 91.753937 : 1"
       inkscape:vp_y="0 : 1000 : 0"
       inkscape:vp_z="602.36218 : 91.753937 : 1"
       inkscape:persp3d-origin="301.18109 : 61.169291 : 1"
       id="perspective2904" />
    <inkscape:perspective
       sodipodi:type="inkscape:persp3d"
       inkscape:vp_x="0 : 0.5 : 1"
       inkscape:vp_y="0 : 1000 : 0"
       inkscape:vp_z="1 : 0.5 : 1"
       inkscape:persp3d-origin="0.5 : 0.33333333 : 1"
       id="perspective2872" />
    <inkscape:perspective
       sodipodi:type="inkscape:persp3d"
       inkscape:vp_x="0 : 0.5 : 1"
       inkscape:vp_y="0 : 1000 : 0"
       inkscape:vp_z="1 : 0.5 : 1"
       inkscape:persp3d-origin="0.5 : 0.33333333 : 1"
       id="perspective3711-0" />
    <inkscape:perspective
       id="perspective3749-4"
       inkscape:persp3d-origin="372.04724 : 350.78739 : 1"
       inkscape:vp_z="744.09448 : 526.18109 : 1"
       inkscape:vp_y="0 : 1000 : 0"
       inkscape:vp_x="0 : 526.18109 : 1"
       sodipodi:type="inkscape:persp3d" />
    <inkscape:perspective
       id="perspective2955"
       inkscape:persp3d-origin="0.5 : 0.33333333 : 1"
       inkscape:vp_z="1 : 0.5 : 1"
       inkscape:vp_y="0 : 1000 : 0"
       inkscape:vp_x="0 : 0.5 : 1"
       sodipodi:type="inkscape:persp3d" />
  </defs>
  <sodipodi:namedview
     id="base"
     pagecolor="#ffffff"
     bordercolor="#666666"
     borderopacity="1.0"
     inkscape:pageopacity="0.0"
     inkscape:pageshadow="2"
     inkscape:zoom="1.4264297"
     inkscape:cx="292.47357"
     inkscape:cy="94.936981"
     inkscape:document-units="px"
     inkscape:current-layer="layer1"
     showgrid="false"
     inkscape:window-width="1280"
     inkscape:window-height="1005"
     inkscape:window-x="-4"
     inkscape:window-y="-4"
     inkscape:window-maximized="1" />
  <metadata
     id="metadata3746">
    <rdf:RDF>
      <cc:Work
         rdf:about="">
        <dc:format>image/svg+xml</dc:format>
        <dc:type
           rdf:resource="http://purl.org/dc/dcmitype/StillImage" />
        <dc:title></dc:title>
      </cc:Work>
    </rdf:RDF>
  </metadata>
  <g
     inkscape:label="Ebene 1"
     inkscape:groupmode="layer"
     id="layer1"
     transform="translate(-62.279343,-426.15395)">
    <path
       d="m 62.279343,439.30759 0,45.32498 24.341859,24.34969 -24.341859,24.33426 0,45.33534 69.096467,-69.6696 -69.096467,-69.67467 0,0 z m 62.085747,0 0,45.32498 24.34255,24.34969 -24.34255,24.33426 0,45.33534 69.10153,-69.6696 -69.10153,-69.67467 0,0 z"
       style="fill:#e20030;fill-rule:evenodd"
       id="_160597816" />
    <path
       d="m 529.41801,571.63792 -35.24371,0 -29.86218,-49.00527 -1.12281,0 0,49.00527 -28.99602,0 0,-125.38498 c 10.60538,-0.74416 24.16462,-0.93452 39.26811,-0.93452 29.63431,0 46.9155,10.62587 46.9155,37.22139 0,16.88828 -10.40052,30.62752 -27.13344,34.71246 3.33848,4.82197 6.50871,9.46509 9.66765,14.10844 l 26.5069,40.27721 0,0 z m -38.78245,-86.68034 c 0,-9.83912 -5.7864,-15.77399 -19.41838,-15.77399 -2.98746,0 -6.34689,0.18552 -8.02856,0.36805 l 6.9e-4,32.10778 c 1.49063,0.18576 4.47809,0.37013 7.28095,0.37013 12.32411,0 20.1653,-6.49006 20.1653,-17.07197 l 0,0 z m -92.70774,-38.69129 -12.63968,77.64844 -12.6413,-77.64844 -6.62309,0 -15.93858,0 -6.6231,0 -12.63715,77.64844 -12.63922,-77.64844 -29.2048,0 22.16669,125.42918 10.15009,0 19.05079,0 3.51089,0 14.19821,-80.50309 14.19268,80.50309 3.51503,0 19.05194,0 10.15032,0 22.16623,-125.42918 -29.20595,0 0,0 z M 238.67398,573.53481 c -8.72139,0 -17.85203,-0.93452 -25.82742,-2.80102 l 1.28715,-27.46789 c 7.04754,2.60422 17.67778,5.30695 26.77206,5.30695 10.63415,0 18.28131,-4.46335 18.28131,-13.37993 0,-21.37051 -49.24972,-10.784 -50.20081,-52.40314 -0.53171,-23.56938 18.5566,-39.13645 50.01621,-39.13645 6.68156,0 15.0273,0.7437 22.81855,2.22396 l -0.0569,25.59264 c -7.05307,-2.04305 -16.45209,-3.91507 -23.88058,-3.91507 -12.12938,-4.6e-4 -17.9151,5.20107 -17.9151,12.26403 0,19.50954 50.20196,12.07621 50.20196,51.28241 0,24.36281 -19.47685,42.43351 -51.49647,42.43351 l 0,0 0,0 z"
       style="fill:#003257;fill-rule:evenodd"
       id="_47830520" />
    <g
       transform="matrix(0.69612907,0,0,0.69612907,191.55966,415.69467)"
       style="font-size:64px;font-style:normal;font-variant:normal;font-weight:normal;font-stretch:normal;text-align:start;line-height:100%;writing-mode:lr-tb;text-anchor:start;fill:#003257;fill-opacity:1;stroke:#003257;stroke-width:0.73455322;stroke-miterlimit:4;stroke-opacity:1;stroke-dasharray:none;font-family:Arial;-inkscape-font-specification:Arial"
       id="text3824">
      <path
         d="m 187.10107,286.66449 0,-45.8125 20.3125,0 c 4.08331,5e-5 7.18747,0.4115 9.3125,1.23437 2.12497,0.82297 3.82288,2.27609 5.09375,4.35938 1.2708,2.08337 1.90621,4.38545 1.90625,6.90625 -4e-5,3.25003 -1.05212,5.98961 -3.15625,8.21875 -2.1042,2.22919 -5.3542,3.64585 -9.75,4.25 1.60414,0.77085 2.82289,1.53127 3.65625,2.28125 1.7708,1.62502 3.44789,3.65626 5.03125,6.09375 l 7.96875,12.46875 -7.625,0 -6.0625,-9.53125 c -1.77086,-2.74999 -3.22919,-4.85415 -4.375,-6.3125 -1.14586,-1.45832 -2.1719,-2.47915 -3.07812,-3.0625 -0.90627,-0.58331 -1.82815,-0.98956 -2.76563,-1.21875 -0.68752,-0.14581 -1.81252,-0.21873 -3.375,-0.21875 l -7.03125,0 0,20.34375 z m 6.0625,-25.59375 13.03125,0 c 2.77081,3e-5 4.93748,-0.28643 6.5,-0.85938 1.56247,-0.57288 2.74997,-1.48955 3.5625,-2.75 0.81247,-1.26038 1.21872,-2.63017 1.21875,-4.10937 -3e-5,-2.16663 -0.78649,-3.94788 -2.35937,-5.34375 -1.57295,-1.39579 -4.05732,-2.09371 -7.45313,-2.09375 l -14.5,0 z"
         style="fill:#003257;fill-opacity:1;stroke:#003257;stroke-width:0.73455322;stroke-miterlimit:4;stroke-opacity:1;stroke-dasharray:none"
         id="path3829" />
      <path
         d="m 232.53857,286.66449 0,-45.8125 5.625,0 0,16.4375 c 2.62499,-3.04163 5.93749,-4.56247 9.9375,-4.5625 2.45832,3e-5 4.59373,0.48441 6.40625,1.45312 1.81248,0.96879 3.10935,2.30733 3.89063,4.01563 0.78122,1.70836 1.17184,4.18752 1.17187,7.4375 l 0,21.03125 -5.625,0 0,-21.03125 c -2e-5,-2.81248 -0.6094,-4.85935 -1.82812,-6.14063 -1.21877,-1.28122 -2.94273,-1.92184 -5.17188,-1.92187 -1.66668,3e-5 -3.23439,0.43232 -4.70312,1.29687 -1.46876,0.86462 -2.51564,2.03649 -3.14063,3.51563 -0.62501,1.47919 -0.93751,3.52085 -0.9375,6.125 l 0,18.15625 z"
         style="fill:#003257;fill-opacity:1;stroke:#003257;stroke-width:0.73455322;stroke-miterlimit:4;stroke-opacity:1;stroke-dasharray:none"
         id="path3831" />
      <path
         d="m 290.88232,275.97699 5.8125,0.71875 c -0.91669,3.39584 -2.61461,6.03125 -5.09375,7.90625 -2.47919,1.875 -5.64585,2.8125 -9.5,2.8125 -4.85418,0 -8.70313,-1.49479 -11.54687,-4.48438 -2.84375,-2.98957 -4.26563,-7.18228 -4.26563,-12.57812 0,-5.58331 1.4375,-9.91664 4.3125,-13 2.87499,-3.0833 6.60416,-4.62497 11.1875,-4.625 4.43748,3e-5 8.06248,1.51045 10.875,4.53125 2.81247,3.02086 4.21872,7.27086 4.21875,12.75 -3e-5,0.33335 -0.0104,0.83335 -0.0312,1.5 l -24.75,0 c 0.20833,3.64584 1.23958,6.43751 3.09375,8.375 1.85416,1.9375 4.16666,2.90625 6.9375,2.90625 2.06248,0 3.8229,-0.54166 5.28125,-1.625 1.45831,-1.08333 2.61456,-2.81249 3.46875,-5.1875 z m -18.46875,-9.09375 18.53125,0 c -0.25002,-2.79164 -0.95836,-4.88539 -2.125,-6.28125 -1.79169,-2.16664 -4.1146,-3.24997 -6.96875,-3.25 -2.58334,3e-5 -4.75522,0.86461 -6.51562,2.59375 -1.76043,1.72919 -2.73438,4.04169 -2.92188,6.9375 z"
         style="fill:#003257;fill-opacity:1;stroke:#003257;stroke-width:0.73455322;stroke-miterlimit:4;stroke-opacity:1;stroke-dasharray:none"
         id="path3833" />
      <path
         d="m 303.81982,247.32074 0,-6.46875 5.625,0 0,6.46875 z m 0,39.34375 0,-33.1875 5.625,0 0,33.1875 z"
         style="fill:#003257;fill-opacity:1;stroke:#003257;stroke-width:0.73455322;stroke-miterlimit:4;stroke-opacity:1;stroke-dasharray:none"
         id="path3835" />
      <path
         d="m 318.03857,286.66449 0,-33.1875 5.0625,0 0,4.71875 c 2.43749,-3.6458 5.95832,-5.46872 10.5625,-5.46875 1.99998,3e-5 3.83852,0.35941 5.51563,1.07812 1.67706,0.71879 2.93226,1.66149 3.76562,2.82813 0.83331,1.1667 1.41664,2.55211 1.75,4.15625 0.20831,1.04169 0.31247,2.86461 0.3125,5.46875 l 0,20.40625 -5.625,0 0,-20.1875 c -2e-5,-2.29164 -0.21877,-4.00518 -0.65625,-5.14063 -0.43752,-1.13539 -1.21356,-2.04163 -2.32812,-2.71875 -1.11461,-0.67705 -2.4219,-1.01559 -3.92188,-1.01562 -2.39585,3e-5 -4.46355,0.76044 -6.20312,2.28125 -1.73959,1.52086 -2.60939,4.40627 -2.60938,8.65625 l 0,18.125 z"
         style="fill:#003257;fill-opacity:1;stroke:#003257;stroke-width:0.73455322;stroke-miterlimit:4;stroke-opacity:1;stroke-dasharray:none"
         id="path3837" />
      <path
         d="m 353.53857,286.66449 0,-45.8125 5.625,0 0,45.8125 z"
         style="fill:#003257;fill-opacity:1;stroke:#003257;stroke-width:0.73455322;stroke-miterlimit:4;stroke-opacity:1;stroke-dasharray:none"
         id="path3839" />
      <path
         d="m 389.56982,282.57074 c -2.08335,1.77084 -4.08856,3.02083 -6.01562,3.75 -1.9271,0.72917 -3.99481,1.09375 -6.20313,1.09375 -3.64584,0 -6.44792,-0.89063 -8.40625,-2.67188 -1.95833,-1.78124 -2.9375,-4.05728 -2.9375,-6.82812 0,-1.62499 0.36979,-3.10936 1.10938,-4.45313 0.73958,-1.34373 1.70833,-2.42185 2.90625,-3.23437 1.19791,-0.81248 2.54687,-1.42707 4.04687,-1.84375 1.10416,-0.29165 2.77082,-0.5729 5,-0.84375 4.54165,-0.54165 7.8854,-1.18748 10.03125,-1.9375 0.0208,-0.77081 0.0312,-1.26039 0.0312,-1.46875 -2e-5,-2.29164 -0.53127,-3.90622 -1.59375,-4.84375 -1.43752,-1.2708 -3.57293,-1.90622 -6.40625,-1.90625 -2.64584,3e-5 -4.59897,0.46357 -5.85937,1.39062 -1.26043,0.92712 -2.19272,2.56774 -2.79688,4.92188 l -5.5,-0.75 c 0.5,-2.35414 1.32292,-4.25518 2.46875,-5.70313 1.14583,-1.44788 2.80208,-2.56246 4.96875,-3.34375 2.16666,-0.78121 4.67707,-1.17184 7.53125,-1.17187 2.83332,3e-5 5.1354,0.33337 6.90625,1 1.77081,0.6667 3.07289,1.50524 3.90625,2.51562 0.83331,1.01045 1.41664,2.28649 1.75,3.82813 0.18747,0.95836 0.28122,2.68752 0.28125,5.1875 l 0,7.5 c -3e-5,5.22918 0.11976,8.53646 0.35938,9.92187 0.23955,1.38542 0.71351,2.71355 1.42187,3.98438 l -5.875,0 c -0.58336,-1.16667 -0.95836,-2.53125 -1.125,-4.09375 z m -0.46875,-12.5625 c -2.04169,0.83335 -5.10418,1.54168 -9.1875,2.125 -2.31251,0.33335 -3.94792,0.70835 -4.90625,1.125 -0.95834,0.41668 -1.69792,1.02605 -2.21875,1.82812 -0.52084,0.8021 -0.78125,1.69272 -0.78125,2.67188 0,1.50001 0.5677,2.75001 1.70313,3.75 1.1354,1 2.79686,1.5 4.98437,1.5 2.16665,0 4.09374,-0.47395 5.78125,-1.42188 1.68748,-0.94791 2.92706,-2.24478 3.71875,-3.89062 0.60415,-1.27082 0.90623,-3.14582 0.90625,-5.625 z"
         style="fill:#003257;fill-opacity:1;stroke:#003257;stroke-width:0.73455322;stroke-miterlimit:4;stroke-opacity:1;stroke-dasharray:none"
         id="path3841" />
      <path
         d="m 403.53857,286.66449 0,-33.1875 5.0625,0 0,4.71875 c 2.43749,-3.6458 5.95832,-5.46872 10.5625,-5.46875 1.99998,3e-5 3.83852,0.35941 5.51563,1.07812 1.67706,0.71879 2.93226,1.66149 3.76562,2.82813 0.83331,1.1667 1.41664,2.55211 1.75,4.15625 0.20831,1.04169 0.31247,2.86461 0.3125,5.46875 l 0,20.40625 -5.625,0 0,-20.1875 c -2e-5,-2.29164 -0.21877,-4.00518 -0.65625,-5.14063 -0.43752,-1.13539 -1.21356,-2.04163 -2.32812,-2.71875 -1.11461,-0.67705 -2.4219,-1.01559 -3.92188,-1.01562 -2.39585,3e-5 -4.46355,0.76044 -6.20312,2.28125 -1.73959,1.52086 -2.60939,4.40627 -2.60938,8.65625 l 0,18.125 z"
         style="fill:#003257;fill-opacity:1;stroke:#003257;stroke-width:0.73455322;stroke-miterlimit:4;stroke-opacity:1;stroke-dasharray:none"
         id="path3843" />
      <path
         d="m 460.69482,286.66449 0,-4.1875 c -2.10419,3.29167 -5.19793,4.9375 -9.28125,4.9375 -2.64584,0 -5.07813,-0.72917 -7.29687,-2.1875 -2.21876,-1.45833 -3.93751,-3.49479 -5.15625,-6.10938 -1.21875,-2.61457 -1.82813,-5.61977 -1.82813,-9.01562 0,-3.31248 0.55208,-6.31769 1.65625,-9.01563 1.10417,-2.69788 2.76041,-4.76559 4.96875,-6.20312 2.20833,-1.43747 4.67707,-2.15622 7.40625,-2.15625 1.99999,3e-5 3.78123,0.42191 5.34375,1.26562 1.56248,0.84379 2.83331,1.94274 3.8125,3.29688 l 0,-16.4375 5.59375,0 0,45.8125 z m -17.78125,-16.5625 c 0,4.25001 0.89583,7.42709 2.6875,9.53125 1.79166,2.10417 3.90624,3.15625 6.34375,3.15625 2.45832,0 4.54686,-1.0052 6.26563,-3.01563 1.71872,-2.0104 2.5781,-5.07811 2.57812,-9.20312 -2e-5,-4.54165 -0.87502,-7.87498 -2.625,-10 -1.75002,-2.12497 -3.90627,-3.18747 -6.46875,-3.1875 -2.50001,3e-5 -4.58855,1.02086 -6.26562,3.0625 -1.67709,2.04169 -2.51563,5.26044 -2.51563,9.65625 z"
         style="fill:#003257;fill-opacity:1;stroke:#003257;stroke-width:0.73455322;stroke-miterlimit:4;stroke-opacity:1;stroke-dasharray:none"
         id="path3845" />
      <path
         d="m 472.60107,272.91449 0,-5.65625 17.28125,0 0,5.65625 z"
         style="fill:#003257;fill-opacity:1;stroke:#003257;stroke-width:0.73455322;stroke-miterlimit:4;stroke-opacity:1;stroke-dasharray:none"
         id="path3847" />
      <path
         d="m 496.88232,286.66449 0,-45.8125 17.28125,0 c 3.04165,5e-5 5.36456,0.14588 6.96875,0.4375 2.24997,0.37504 4.13539,1.08859 5.65625,2.14062 1.5208,1.05213 2.74476,2.52609 3.67188,4.42188 0.92704,1.89587 1.39058,3.9792 1.39062,6.25 -4e-5,3.89586 -1.23962,7.19273 -3.71875,9.89062 -2.4792,2.69794 -6.95836,4.0469 -13.4375,4.04688 l -11.75,0 0,18.625 z m 6.0625,-24.03125 11.84375,0 c 3.91664,2e-5 6.69789,-0.72914 8.34375,-2.1875 1.6458,-1.45831 2.46872,-3.51039 2.46875,-6.15625 -3e-5,-1.91663 -0.4844,-3.55726 -1.45312,-4.92188 -0.96878,-1.36454 -2.24482,-2.26558 -3.82813,-2.70312 -1.02086,-0.27079 -2.90627,-0.40621 -5.65625,-0.40625 l -11.71875,0 z"
         style="fill:#003257;fill-opacity:1;stroke:#003257;stroke-width:0.73455322;stroke-miterlimit:4;stroke-opacity:1;stroke-dasharray:none"
         id="path3849" />
      <path
         d="m 540.25732,286.66449 0,-28.8125 -4.96875,0 0,-4.375 4.96875,0 0,-3.53125 c 0,-2.22913 0.19792,-3.88538 0.59375,-4.96875 0.54166,-1.45829 1.49479,-2.64058 2.85938,-3.54688 1.36457,-0.9062 3.27603,-1.35932 5.73437,-1.35937 1.58332,5e-5 3.33332,0.18755 5.25,0.5625 l -0.84375,4.90625 c -1.16668,-0.20829 -2.27085,-0.31246 -3.3125,-0.3125 -1.70834,4e-5 -2.91668,0.36462 -3.625,1.09375 -0.70834,0.72921 -1.06251,2.09379 -1.0625,4.09375 l 0,3.0625 6.46875,0 0,4.375 -6.46875,0 0,28.8125 z"
         style="fill:#003257;fill-opacity:1;stroke:#003257;stroke-width:0.73455322;stroke-miterlimit:4;stroke-opacity:1;stroke-dasharray:none"
         id="path3851" />
      <path
         d="m 578.31982,282.57074 c -2.08335,1.77084 -4.08856,3.02083 -6.01562,3.75 -1.9271,0.72917 -3.99481,1.09375 -6.20313,1.09375 -3.64584,0 -6.44792,-0.89063 -8.40625,-2.67188 -1.95833,-1.78124 -2.9375,-4.05728 -2.9375,-6.82812 0,-1.62499 0.36979,-3.10936 1.10938,-4.45313 0.73958,-1.34373 1.70833,-2.42185 2.90625,-3.23437 1.19791,-0.81248 2.54687,-1.42707 4.04687,-1.84375 1.10416,-0.29165 2.77082,-0.5729 5,-0.84375 4.54165,-0.54165 7.8854,-1.18748 10.03125,-1.9375 0.0208,-0.77081 0.0312,-1.26039 0.0312,-1.46875 -2e-5,-2.29164 -0.53127,-3.90622 -1.59375,-4.84375 -1.43752,-1.2708 -3.57293,-1.90622 -6.40625,-1.90625 -2.64584,3e-5 -4.59897,0.46357 -5.85937,1.39062 -1.26043,0.92712 -2.19272,2.56774 -2.79688,4.92188 l -5.5,-0.75 c 0.5,-2.35414 1.32292,-4.25518 2.46875,-5.70313 1.14583,-1.44788 2.80208,-2.56246 4.96875,-3.34375 2.16666,-0.78121 4.67707,-1.17184 7.53125,-1.17187 2.83332,3e-5 5.1354,0.33337 6.90625,1 1.77081,0.6667 3.07289,1.50524 3.90625,2.51562 0.83331,1.01045 1.41664,2.28649 1.75,3.82813 0.18747,0.95836 0.28122,2.68752 0.28125,5.1875 l 0,7.5 c -3e-5,5.22918 0.11976,8.53646 0.35938,9.92187 0.23955,1.38542 0.71351,2.71355 1.42187,3.98438 l -5.875,0 c -0.58336,-1.16667 -0.95836,-2.53125 -1.125,-4.09375 z m -0.46875,-12.5625 c -2.04169,0.83335 -5.10418,1.54168 -9.1875,2.125 -2.31251,0.33335 -3.94792,0.70835 -4.90625,1.125 -0.95834,0.41668 -1.69792,1.02605 -2.21875,1.82812 -0.52084,0.8021 -0.78125,1.69272 -0.78125,2.67188 0,1.50001 0.5677,2.75001 1.70313,3.75 1.1354,1 2.79686,1.5 4.98437,1.5 2.16665,0 4.09374,-0.47395 5.78125,-1.42188 1.68748,-0.94791 2.92706,-2.24478 3.71875,-3.89062 0.60415,-1.27082 0.90623,-3.14582 0.90625,-5.625 z"
         style="fill:#003257;fill-opacity:1;stroke:#003257;stroke-width:0.73455322;stroke-miterlimit:4;stroke-opacity:1;stroke-dasharray:none"
         id="path3853" />
      <path
         d="m 592.16357,286.66449 0,-45.8125 5.625,0 0,45.8125 z"
         style="fill:#003257;fill-opacity:1;stroke:#003257;stroke-width:0.73455322;stroke-miterlimit:4;stroke-opacity:1;stroke-dasharray:none"
         id="path3855" />
      <path
         d="m 603.56982,286.66449 0,-4.5625 21.125,-24.25 c -2.39585,0.12503 -4.51043,0.18753 -6.34375,0.1875 l -13.53125,0 0,-4.5625 27.125,0 0,3.71875 -17.96875,21.0625 -3.46875,3.84375 c 2.52083,-0.1875 4.88541,-0.28125 7.09375,-0.28125 l 15.34375,0 0,4.84375 z"
         style="fill:#003257;fill-opacity:1;stroke:#003257;stroke-width:0.73455322;stroke-miterlimit:4;stroke-opacity:1;stroke-dasharray:none"
         id="path3857" />
    </g>
    <g
       style="fill-rule:evenodd"
       id="_26273832"
       transform="matrix(3.543307e-5,0,0,3.543307e-5,62.579441,408.43742)">
      <path
         id="_83144440"
         style="fill:#003257"
         d="m 14944000,1795780 c 0,323710 -2170,917680 -2170,1048810 -118550,210 -487520,1140 -629290,3610 114870,-191730 450920,-751000 631460,-1052420 l 0,0 z m -897870,1201950 928120,-1546650 123080,0 0,1545370 -1051200,1280 z m 640650,-2347000 c -41570,70410 -1356190,2296080 -1380600,2337340 4630,42350 65360,601330 77140,709450 123440,0 1695530,0 1695530,0 0,0 0,713980 0,837760 115250,0 666440,0 781680,0 0,-123780 0,-837760 0,-837760 0,0 383070,0 490320,0 10,-112230 0,-588900 0,-701070 -107230,0 -490320,0 -490320,0 0,0 0,-2205900 0,-2345720 -127810,0 -1098870,0 -1173750,0 l 0,0 z m -88720,-150730 -1440960,2449070 85510,896760 c 0,0 1446530,0 1683860,0 0,192910 0,833140 0,833140 l 1085290,0 c 0,0 0,-635820 0,-828770 138250,0 488270,0 488270,0 l 10,-1002000 c 0,0 -352260,0 -490480,0 0,-250460 0,-2345980 0,-2345980 l -1411500,-2220 0,0 z"
         sodipodi:nodetypes="cccccccccccccccccccccccccccccccccccc" />
      <path
         id="_83337032"
         style="fill:#b1c903"
         d="m 14046100,2997740 928120,-1546660 123090,0 0,1545370 -1051210,1290 z m 640660,-2347010 c -41570,70420 -1356200,2296080 -1380620,2337340 4640,42350 65370,601330 77150,709450 123440,0 1695530,0 1695530,0 0,0 0,713970 0,837760 115250,0 666440,0 781680,0 0,-123790 0,-837760 0,-837760 0,0 383070,0 490320,0 10,-112230 0,-588900 0,-701070 -107230,0 -490320,0 -490320,0 0,0 0,-2205900 0,-2345720 -127820,0 -1098860,0 -1173740,0 z" />
    </g>
  </g>
</svg>
