<?xml version="1.0" encoding="UTF-8"?>
<svg width="426" height="450" version="1.1" xmlns="http://www.w3.org/2000/svg">
	<g fill="#f57921">
		<path d="m188.45 0h-145.48l-42.968 42.968v59.132c1.9438 1.9438 2.9668 2.9668 4.9106 4.9106h91.768v-21.075h91.767c1.9438-1.9438 2.9669-2.9668 4.9107-4.9106v-76.115c-1.8415-1.9438-2.9669-2.9668-4.9107-4.9106z"/>
		<path d="m5.013 128.09c-1.9438 1.9438-2.9669 2.9668-4.9107 4.9106v77.036c1.9438 1.9438 2.9669 2.9668 4.9107 4.9106h145.48l42.968-42.968v-60.155c-1.9438-1.9438-2.9669-2.9668-4.9107-4.9106h-91.767v21.075h-91.767z"/>
		<path d="m426 4.9106c-1.9438-1.9438-2.9669-2.9668-4.9107-4.9106h-84.913c-1.9438 1.9438-2.9669 2.9668-4.9107 4.9106v102.1h-21.586v-102.1c-1.9438-1.9438-2.9668-2.9668-4.9106-4.9106h-84.913c-1.9438 1.9438-2.9669 2.9668-4.9107 4.9106v102.1l58.109 58.211v44.912c1.9438 1.9438 2.9668 2.9668 4.9106 4.9106h84.913c1.9438-1.9438 2.9669-2.9668 4.9107-4.9106v-44.912l58.109-58.211v-102.1z"/>
		<path d="m426 239.87c-1.9438-1.9438-2.9669-2.9668-4.9107-4.9106h-84.913c-1.9438 1.9438-2.9668 2.9668-4.9106 4.9106v102.1h-21.586v-102.1c-1.9438-1.9438-2.9669-2.9668-4.9107-4.9106h-84.913c-1.9438 1.9438-2.9669 2.9668-4.9107 4.9106v102.1l58.109 58.211v44.912c1.9438 1.9438 2.9669 2.9668 4.9107 4.9106h84.913c1.9438-1.9438 2.9668-2.9668 4.9106-4.9106v-44.912l58.109-58.211v-102.1z"/>
		<path d="m188.45 234.96h-145.48l-42.968 42.968v167.17c1.9438 1.9438 2.9668 2.9668 4.9106 4.9106h84.913c1.9438-1.9438 2.9669-2.9668 4.9107-4.9106v-26.702h93.711c1.9438-1.9438 2.9668-2.9668 4.9106-4.9106v-66.498c-1.9438-1.9438-2.9668-2.9668-4.9106-4.9106h-93.711v-21.177h93.711c1.9438-1.9438 2.9668-2.9668 4.9106-4.9106v-76.115c-1.8415-1.9438-2.9668-2.9668-4.9106-4.9106z"/>
	</g>
</svg>
