<?xml version="1.0" encoding="UTF-8"?>
<svg width="751.97" height="450" version="1.1" xmlns="http://www.w3.org/2000/svg">
	<g fill="#292c64">
		<path d="m83.401 49.174h-58.352v-49.174h170.13v49.174h-58.686v165.24h-53.097z"/>
		<path d="m209.62 0h158.34v49.174h-105.24v35.073h86.221v42.611h-86.221v38.355h105.24v49.174h-158.34z"/>
		<path d="m383.39 0h53.097v165.24h101.3v49.174h-154.42v-214.41z"/>
		<path d="m553.19 0h158.34v49.174h-105.24v35.073h86.221v42.611h-86.221v38.355h105.24v49.174h-158.34z"/>
		<path d="m562.78 232.72h75.222c74.889 0 113.96 42.662 113.96 106.48s-39.072 106.48-113.96 106.48h-75.222zm75.222 164.11c42.662 0 60.557-22.151 60.557-57.634s-17.921-57.634-60.557-57.634h-22.459v115.27z"/>
		<path d="m451.2 396.83v-164.11h-52.738v30.817c18.434 20.895 29.638 48.277 29.638 78.248s-11.204 57.378-29.638 78.247v25.612h153.37v-48.841h-100.6z"/>
		<path d="m192.18 327.14h-91.887v42.329h68.377c-9.7681 20.844-28.663 31.586-55.353 31.586-36.15 0-59.916-26.048-59.916-61.865s23.767-61.865 59.916-61.865c22.459 0 40.047 9.7681 50.148 26.048h34.227c3.0509-8.8964 7.153-17.331 12.127-25.125-19.382-30.612-54.071-49.764-96.502-49.764-66.428 0-113.32 46.892-113.32 110.71s46.892 110.71 113.32 110.71c41.329 0 75.094-18.229 94.758-47.328-10.691-17.793-16.844-38.585-16.844-60.788 0-4.9738 0.3333-9.845 0.94861-14.639z"/>
		<path d="m309.68 233.61c-59.66 0-108.19 48.533-108.19 108.19s48.533 108.19 108.19 108.19 108.19-48.533 108.19-108.19-48.533-108.19-108.19-108.19zm0 153.98c-25.305 0-45.79-20.51-45.79-45.79 0-25.279 20.51-45.79 45.79-45.79s45.79 20.51 45.79 45.79c0 25.279-20.51 45.79-45.79 45.79z"/>
	</g>
</svg>
