<svg xmlns="http://www.w3.org/2000/svg" xmlns:xlink="http://www.w3.org/1999/xlink" width="228" height="30"><defs><linearGradient id="A" x1="-.086%" x2="99.978%" y1="50.039%" y2="50.039%"><stop stop-color="#43c4dc" offset="0"/><stop stop-color="#3ebcd8" offset=".066"/><stop stop-color="#29add0" offset=".27"/><stop stop-color="#20a8ce" offset=".405"/><stop stop-color="#24a4cd" offset=".531"/><stop stop-color="#2c9aca" offset=".714"/><stop stop-color="#3789c5" offset=".932"/><stop stop-color="#3983c4" offset="1"/></linearGradient><radialGradient id="B" cx="73.071%" cy="31.518%" r="81.651%"><stop stop-color="#0d91ae" stop-opacity="0" offset="0"/><stop stop-color="#0d91ae" stop-opacity=".867" offset=".814"/><stop stop-color="#0d91ae" offset=".939"/></radialGradient><radialGradient id="C" cx="21.106%" cy="20.057%" r="92.008%"><stop stop-color="#0d91ae" stop-opacity="0" offset=".019"/><stop stop-color="#0d90ae" stop-opacity=".312" offset=".325"/><stop stop-color="#0d8aaf" stop-opacity=".566" offset=".574"/><stop stop-color="#0e81b0" stop-opacity=".799" offset=".802"/><stop stop-color="#0f76b1" offset="1"/></radialGradient><radialGradient id="D" cx="50.207%" cy="53.666%" r="65.322%" gradientTransform="matrix(1 0 0 .83401 0 .09)"><stop offset="0"/><stop stop-color="#080809" offset=".172"/><stop stop-color="#171819" offset=".348"/><stop stop-color="#2d2f2f" offset=".525"/><stop stop-color="#484a4a" offset=".705"/><stop stop-color="#686969" offset=".883"/><stop stop-color="#7d7d7d" offset="1"/></radialGradient><radialGradient id="E" cx="28.187%" cy="21.367%" r="99.857%" gradientTransform="matrix(1 0 0 .834 0 .035)"><stop offset="0"/><stop stop-color="#080809" offset=".172"/><stop stop-color="#171819" offset=".348"/><stop stop-color="#2d2f2f" offset=".525"/><stop stop-color="#484a4a" offset=".705"/><stop stop-color="#686969" offset=".883"/><stop stop-color="#7d7d7d" offset="1"/></radialGradient><linearGradient id="F" x1="197.24%" x2="-97.254%" y1="30.993%" y2="69.963%"><stop stop-color="#43c4dc" offset="0"/><stop stop-color="#3ebcd8" offset=".066"/><stop stop-color="#29add0" offset=".27"/><stop stop-color="#20a8ce" offset=".405"/><stop stop-color="#24a4cd" offset=".531"/><stop stop-color="#2c9aca" offset=".714"/><stop stop-color="#3789c5" offset=".932"/><stop stop-color="#3983c4" offset="1"/></linearGradient><linearGradient id="G" x1="306.5%" x2="2.101%" y1="14.639%" y2="53.609%"><stop stop-color="#43c4dc" offset="0"/><stop stop-color="#3ebcd8" offset=".066"/><stop stop-color="#29add0" offset=".27"/><stop stop-color="#20a8ce" offset=".405"/><stop stop-color="#24a4cd" offset=".531"/><stop stop-color="#2c9aca" offset=".714"/><stop stop-color="#3789c5" offset=".932"/><stop stop-color="#3983c4" offset="1"/></linearGradient><linearGradient id="H" x1="103.41%" x2="-200.98%" y1="40.639%" y2="79.609%"><stop stop-color="#43c4dc" offset="0"/><stop stop-color="#3ebcd8" offset=".066"/><stop stop-color="#29add0" offset=".27"/><stop stop-color="#20a8ce" offset=".405"/><stop stop-color="#24a4cd" offset=".531"/><stop stop-color="#2c9aca" offset=".714"/><stop stop-color="#3789c5" offset=".932"/><stop stop-color="#3983c4" offset="1"/></linearGradient><linearGradient id="I" x1="8.754%" x2="57.341%" y1="131.9%" y2="38.605%"><stop stop-color="#0f76b1" offset="0"/><stop stop-color="#0f7ab1" stop-opacity=".738" offset=".262"/><stop stop-color="#0e85b0" stop-opacity=".34" offset=".66"/><stop stop-color="#0d91ae" stop-opacity="0" offset="1"/></linearGradient><linearGradient id="J" x1="11.636%" x2="61.856%" y1="86.793%" y2="-6.507%"><stop stop-color="#0f76b1" offset="0"/><stop stop-color="#0f7ab1" stop-opacity=".738" offset=".262"/><stop stop-color="#0e85b0" stop-opacity=".34" offset=".66"/><stop stop-color="#0d91ae" stop-opacity="0" offset="1"/></linearGradient><linearGradient id="K" x1="-28.006%" x2="22.214%" y1="160.45%" y2="67.148%"><stop stop-color="#0f76b1" offset="0"/><stop stop-color="#0f7ab1" stop-opacity=".738" offset=".262"/><stop stop-color="#0e85b0" stop-opacity=".34" offset=".66"/><stop stop-color="#0d91ae" stop-opacity="0" offset="1"/></linearGradient><linearGradient id="L" x1="73.519%" x2="48.55%" y1="120.64%" y2="63.905%"><stop stop-color="#0d91ae" offset=".061"/><stop stop-color="#0d91ae" stop-opacity="0" offset="1"/></linearGradient><linearGradient id="M" x1="111.2%" x2="85.391%" y1="146.64%" y2="89.906%"><stop stop-color="#0d91ae" offset=".061"/><stop stop-color="#0d91ae" stop-opacity="0" offset="1"/></linearGradient><linearGradient id="N" x1="81.252%" x2="55.444%" y1="80.797%" y2="24.061%"><stop stop-color="#0d91ae" offset=".061"/><stop stop-color="#0d91ae" stop-opacity="0" offset="1"/></linearGradient><path id="O" d="M41.643.893h-12.5a1.98 1.98 0 0 0-1.964 1.964v26.25H32c1.436-.008 2.599-1.171 2.607-2.607v-4.357h6l4.857 6.928h8.072l-5.822-8.25.679-.428c2.714-1.715 4.571-5.286 4.571-8.929 0-7.25-5.893-10.571-11.321-10.571zm.071 14.428h-7.143V7.644h7.143c2.5 0 3.822 1.928 3.822 3.821 0 1.5-1.036 3.857-3.822 3.857z"/><path id="P" d="M9.036 29.107h4.821c1.436-.008 2.599-1.171 2.607-2.607V7.75h6.822c1.214 0 2.214-1 2.214-2.215V.894H1.429A1.43 1.43 0 0 0 0 2.321v5.393h9.036z"/><path id="Q" d="M62.929 29.107h4.821c1.436-.008 2.599-1.171 2.607-2.607V7.714h6.822c1.214 0 2.214-1 2.214-2.214V.893H55.32c-.785 0-1.428.642-1.428 1.428v5.393h9.036v21.393z"/></defs><g fill-rule="evenodd"><path d="M119.71.893a2.8 2.8 0 0 0-2.643 1.964l-5.25 17.607L104.889.893h-2.929a2.04 2.04 0 0 0-1.928 1.357l-6.466 18.357-5.464-18.25C87.853 1.5 87.032.893 86.176.893h-4.11l8.822 28.178h2.536a2.743 2.743 0 0 0 2.572-1.785l6.679-17.643 7.357 19.428h3.071c.822 0 1.536-.535 1.786-1.321L123.316.857h-3.607v.036zm67.179 0h-3.679c-.964 0-1.714.786-1.714 1.714v26.464h15.679c1.535 0 2.75-1.25 2.75-2.75V24h-13.072V.893zM172.21 20.071c3.786-1.75 5.857-5.107 5.857-9.464 0-4.678-3.214-9.714-10.285-9.714h-11.857c-.965 0-1.715.786-1.715 1.714v26.464h2.607a2.75 2.75 0 0 0 2.75-2.75v-5.607h6.143l6.929 8.357h6.428l-7.392-9zm-4.178-4.428h-8.465V6h8.429c1.821 0 2.929.893 3.536 1.643.714.857 1.107 2.071 1.107 3.178.036 1.965-1.607 4.822-4.607 4.822zM211.996.893h-8.143c-.964 0-1.714.786-1.714 1.714v26.464h9.857c10.679 0 15.464-7.107 15.464-14.142 0-6.965-4.784-14.036-15.464-14.036zM212.603 24h-5.107V5.964h5.107c2.964 0 5.429 1 7.143 2.929 1.464 1.607 2.286 3.821 2.286 6.071.035 4.357-3.607 9.036-9.429 9.036z" fill="#151515"/><circle cx="137.29" cy="15" r="7.714" fill="url(#A)"/><circle cx="137.29" cy="15" r="7.714" fill="url(#B)"/><circle cx="137.29" cy="15" r="7.714" fill="url(#C)"/><path d="M142.39.821L141.211.5c-6.357-1.714-13.214 5.25-13.784 13.393a9.934 9.934 0 0 1 2.785-5.857 9.815 9.815 0 0 1 7.036-2.929c2.821 0 5.321 1.179 7.143 3.036a9.844 9.844 0 0 1 2.75 6.857c0 .357-.036.75-.072 1.107-.571 8.143-7.428 15.107-13.785 13.393l-1.179-.321c1.572.535 3.322.821 5.143.821 8.571 0 15-6.464 15-15 .036-6.714-3.964-12.143-9.857-14.179z" fill="url(#D)"/><path d="M137.29 24.893c-3.643 0-6.822-1.929-8.536-4.893a9.887 9.887 0 0 1-1.357-5 11.75 11.75 0 0 1 .071-1.107C128.04 5.75 134.897-1.214 141.254.5l1.179.321C140.861.286 139.111 0 137.29 0c-8.572 0-15 6.464-15 15 0 6.75 4 12.179 9.857 14.179l1.178.321c6.358 1.714 13.215-5.25 13.786-13.393a9.874 9.874 0 0 1-9.821 8.786z" fill="url(#E)"/><use xlink:href="#O" fill="url(#F)"/><use xlink:href="#P" fill="url(#G)"/><use xlink:href="#Q" fill="url(#H)"/><use xlink:href="#O" fill="url(#I)"/><use xlink:href="#P" fill="url(#J)"/><use xlink:href="#Q" fill="url(#K)"/><use xlink:href="#O" fill="url(#L)"/><use xlink:href="#P" fill="url(#M)"/><use xlink:href="#Q" fill="url(#N)"/></g></svg>