<svg xmlns="http://www.w3.org/2000/svg" width="480.986" height="83.334"><path d="M23.762 54.26c2.169 0 4.773-.474 7.813-1.424v9.235c-3.094 1.384-6.892 2.076-11.394 2.076-4.964 0-8.579-1.253-10.844-3.764-2.265-2.509-3.396-6.271-3.396-11.291v-21.93H0v-5.249l6.836-4.15 3.581-9.603h7.934v9.685h12.735v9.317H18.35v21.931c0 1.765.495 3.065 1.485 3.906s2.299 1.261 3.927 1.261zm36.171-10.499c-1.058 3.147-1.668 6.253-1.83 9.318h-.326c-.271-3.391-.854-6.496-1.75-9.318l-8.788-25.917h-12.98l17.333 45.488h12.736L81.66 17.844H68.681l-8.748 25.917zm38.613 8.383a6.102 6.102 0 0 0-2.258-1.181 9.81 9.81 0 0 0-2.706-.366c-1.004 0-1.94.122-2.808.366a6.089 6.089 0 0 0-2.278 1.181c-.651.543-1.159 1.255-1.526 2.136-.365.883-.549 1.962-.549 3.235 0 1.22.184 2.266.549 3.133.367.868.875 1.586 1.526 2.156.651.569 1.41.983 2.278 1.241a9.81 9.81 0 0 0 2.808.386c.949 0 1.852-.128 2.706-.386a6.045 6.045 0 0 0 2.258-1.241c.651-.57 1.166-1.288 1.546-2.156.38-.867.57-1.913.57-3.133 0-1.273-.19-2.353-.57-3.235-.38-.881-.894-1.593-1.546-2.136zm16.543-49.557c-2.111 0-3.167 1.194-3.167 3.583 0 2.445 1.056 3.666 3.167 3.666 2.22 0 3.333-1.221 3.333-3.666 0-2.389-1.113-3.583-3.333-3.583zm-2.333 60.746h4.665V19.002h-4.665v44.331zm39.164-45.164c-3.779 0-6.933.807-9.459 2.417-2.528 1.611-4.375 3.64-5.541 6.083h-.332l-.668-7.667h-3.833v44.331h4.666V39.168c0-11.221 4.89-16.833 14.667-16.833 3.721 0 6.54 1 8.457 3 1.916 2.001 2.876 5.112 2.876 9.334v28.664h4.749V34.335c0-5.555-1.333-9.638-4-12.249-2.666-2.612-6.527-3.917-11.582-3.917zm61.245.833h3.833v45.749c0 5.834-1.487 10.386-4.457 13.665-2.972 3.278-7.847 4.917-14.625 4.917-3.332 0-6.277-.278-8.832-.833-2.557-.556-4.889-1.279-6.999-2.167V75.75c2.11 1.055 4.512 1.901 7.208 2.543 2.693.637 5.624.957 8.789.957 4.835 0 8.403-1.279 10.71-3.835 2.304-2.555 3.457-6.027 3.457-10.415v-2.582c0-1.168.026-2.333.084-3.502.054-1.165.109-2.303.164-3.415h-.248c-1.223 2.889-3.112 5.055-5.667 6.5-2.556 1.444-5.611 2.167-9.165 2.167-5.778 0-10.264-1.945-13.457-5.833-3.195-3.889-4.792-9.501-4.792-16.834 0-7.166 1.597-12.846 4.792-17.041 3.193-4.193 7.845-6.291 13.956-6.291 3.501 0 6.402.667 8.709 2 2.306 1.333 4.152 3.195 5.541 5.583h.25l.749-6.75zm-.832 20.999c0-5.666-1.041-10.026-3.124-13.082-2.084-3.055-5.682-4.584-10.792-4.584-4.778 0-8.361 1.682-10.751 5.042-2.389 3.361-3.582 8.098-3.582 14.208 0 6.055 1.18 10.666 3.541 13.833s5.792 4.75 10.291 4.75c3.668 0 6.542-.752 8.625-2.25 2.084-1.5 3.568-3.555 4.457-6.167.89-2.61 1.335-5.584 1.335-8.916v-2.834zm54.164-10.916c1.5 3.445 2.247 7.473 2.247 12.083 0 4.612-.762 8.639-2.29 12.083-1.527 3.445-3.777 6.125-6.75 8.042s-6.598 2.875-10.874 2.875c-4.111 0-7.64-.944-10.584-2.835-2.945-1.888-5.208-4.554-6.789-7.998-1.584-3.445-2.377-7.5-2.377-12.167 0-7.222 1.793-12.86 5.376-16.916 3.584-4.055 8.485-6.083 14.708-6.083 4.221 0 7.792.958 10.706 2.875 2.919 1.917 5.126 4.597 6.627 8.041zm-2.667 12.083c0-3.666-.501-6.916-1.5-9.749-1.001-2.834-2.584-5.055-4.75-6.667-2.167-1.61-5-2.417-8.5-2.417-5.055 0-8.834 1.667-11.334 5.001-2.498 3.332-3.749 7.944-3.749 13.832 0 5.667 1.194 10.237 3.583 13.708 2.388 3.473 6.139 5.209 11.25 5.209 5.168 0 8.958-1.736 11.374-5.209 2.418-3.471 3.626-8.041 3.626-13.708zm16.998 22.165h4.749V.004h-4.749v63.329zm40.205-21.832c-2.138-1-4.515-1.944-7.126-2.832-2.555-.889-4.721-1.709-6.5-2.459-1.777-.75-3.139-1.638-4.082-2.667-.943-1.026-1.416-2.429-1.416-4.208 0-2.333.971-4.109 2.916-5.333 1.945-1.222 4.666-1.833 8.168-1.833 2.166 0 4.33.25 6.497.75s4.112 1.14 5.835 1.916l1.666-3.916c-1.889-.777-3.986-1.431-6.292-1.958-2.305-.528-4.792-.792-7.458-.792-4.832 0-8.693 1-11.582 3s-4.333 4.778-4.333 8.332c0 2.612.583 4.681 1.749 6.209 1.167 1.528 2.791 2.764 4.875 3.708 2.083.945 4.485 1.889 7.208 2.833 4.055 1.39 7.096 2.737 9.127 4.041 2.025 1.306 3.041 3.181 3.041 5.625 0 2.557-.974 4.571-2.919 6.041-1.945 1.473-5.082 2.21-9.414 2.21-2.612 0-5.167-.319-7.668-.958-2.5-.64-4.722-1.459-6.667-2.46v4.583c1.612.78 3.598 1.447 5.96 2 2.358.557 5.096.835 8.208.835 5.499 0 9.734-1.085 12.707-3.252 2.971-2.166 4.457-5.276 4.457-9.332 0-2.61-.624-4.693-1.873-6.25-1.252-1.554-2.945-2.833-5.084-3.833zm30.622 18.667c-4.999 0-7.499-3.111-7.499-9.334V22.836h13.668v-3.834h-13.668V8.42h-2.998l-1.666 10.249-6.584 1.499v2.668h6.584v28.165c0 4.612.999 7.959 2.999 10.042 1.999 2.083 4.833 3.125 8.499 3.125 1.442 0 2.763-.112 3.957-.335 1.193-.221 2.236-.5 3.124-.833v-3.834c-.777.279-1.734.516-2.875.709a20.934 20.934 0 0 1-3.541.293zm42.665-38.249c2.444 2.445 3.667 6.306 3.667 11.583v29.831h-3.583l-.917-7.498h-.167c-1.558 2.5-3.5 4.514-5.833 6.04-2.334 1.527-5.557 2.293-9.666 2.293-4.223 0-7.57-1.056-10.041-3.168-2.475-2.109-3.709-5.194-3.709-9.249 0-4.388 1.792-7.75 5.376-10.083 3.581-2.333 8.845-3.639 15.79-3.916l8.083-.417v-3.083c0-4.389-.875-7.485-2.625-9.291-1.75-1.805-4.32-2.709-7.708-2.709-2.279 0-4.471.291-6.583.875-2.112.583-4.222 1.431-6.333 2.542l-1.5-3.833c2.056-1.055 4.333-1.917 6.833-2.584 2.5-.666 5.083-1 7.749-1 5.002 0 8.721 1.222 11.167 3.667zm-1 19.082l-7.499.334c-5.668.222-9.889 1.181-12.666 2.874-2.779 1.696-4.167 4.237-4.167 7.625 0 2.723.861 4.792 2.583 6.207 1.723 1.419 4.084 2.127 7.082 2.127 4.611 0 8.182-1.306 10.707-3.917 2.529-2.611 3.848-6.278 3.96-11v-4.25zM442.733.004h4.75v63.329h-3.835l-.665-7.665h-.25c-1.168 2.333-2.917 4.333-5.25 5.998-2.334 1.667-5.473 2.502-9.415 2.502-5.945 0-10.515-1.902-13.709-5.708-3.195-3.805-4.79-9.403-4.79-16.792 0-7.667 1.678-13.499 5.04-17.499 3.36-4 7.985-6 13.875-6 3.722 0 6.749.807 9.083 2.417 2.333 1.611 4.055 3.64 5.166 6.083h.334a472.382 472.382 0 0 0-.21-4.417 82.531 82.531 0 0 1-.124-4.249V.004zm.083 41.164c0-6.111-1.083-10.791-3.249-14.041-2.167-3.25-5.696-4.875-10.584-4.875-4.777 0-8.389 1.681-10.831 5.042-2.446 3.362-3.669 8.152-3.669 14.374 0 6.055 1.168 10.639 3.501 13.75 2.333 3.112 5.888 4.667 10.667 4.667 5.11 0 8.749-1.555 10.916-4.667 2.166-3.111 3.249-7.583 3.249-13.417v-.833zm35.292 18.707c-1.14.195-2.32.293-3.543.293-4.997 0-7.498-3.111-7.498-9.334V22.836h13.668v-3.834h-13.668V8.42h-2.999L462.4 18.669l-6.584 1.499v2.668h6.584v28.165c0 4.612 1.001 7.959 3.001 10.042s4.834 3.125 8.499 3.125c1.445 0 2.763-.112 3.956-.335 1.196-.221 2.236-.5 3.125-.833v-3.834c-.778.279-1.735.515-2.873.709z"/></svg>