<svg xmlns="http://www.w3.org/2000/svg" xmlns:xlink="http://www.w3.org/1999/xlink" width="450" height="424.02"><path d="M164.852.001v5.733h-5.65v4.544h5.65v14.517a7.405 7.405 0 0 0-1.405 13.484l-3.894 30.908h-14.041v31.622h-8.636v11.582c-35.907 12.376-59.885 45.263-59.886 82.138h-7.836v21.611H57.628v35.011a28.814 16.806 0 0 0-24.221-16.594l-1.967-15.612a5.287 5.287 0 0 0-1.004-9.627v-10.369h4.035v-3.244h-4.035v-4.095h-3.242v4.095h-4.035v3.244h4.035v10.366a5.287 5.287 0 0 0-1.004 9.63l-1.967 15.612A28.814 16.806 0 0 0 0 251.149v138.595h278.685l30.697-34.979V194.528h-52.128c0-36.876-23.978-69.765-59.885-82.141v-11.579h-8.637V69.186h-14.041l-3.894-30.908a7.405 7.405 0 0 0-1.405-13.481V10.277h5.65V5.733h-5.65V0z" fill="#ffd403" paint-order="stroke markers fill"/><g fill="#0c5389" transform="matrix(1.44071 0 0 1.44071 -14.407099 -31.663923)"><path d="M119.258 157v25.027H159V292.5h26V182.027h39.742V157zm176.326 0l-70.842 80.725V194h-21.307v98.5L322.346 157zM114.25 194C86.966 194 65 215.966 65 243.25s21.965 49.25 49.25 49.25h25.811v-25h-23.717c-13.427 0-24.236-10.809-24.236-24.236s10.809-24.236 24.236-24.236H131V194z"/><use xlink:href="#A"/><path d="M35.216 308.382q0 .271-.081 1.408h-8.992q.163 2.086 1.083 2.979.921.894 2.438.894.948 0 1.788-.298.84-.325 1.788-.975l1.435 1.977q-2.383 1.923-5.309 1.923-3.277 0-5.065-2.004-1.761-2.004-1.761-5.471 0-2.194.758-3.927.758-1.761 2.194-2.736 1.436-1.002 3.413-1.002 3.006 0 4.659 1.923 1.652 1.896 1.652 5.309zm-3.44-1.002q0-3.765-2.79-3.765-1.273 0-2.004.948-.704.921-.84 2.979h5.634zm14.138-6.23q1.923 0 2.979 1.165 1.083 1.138 1.083 3.196v10.374H46.51v-9.832q0-1.273-.46-1.788-.433-.515-1.3-.515-.894 0-1.625.569-.704.542-1.381 1.598v9.967h-3.467v-14.328h3.006l.271 1.869q1.761-2.275 4.361-2.275z"/><use xlink:href="#B"/><path d="M71.103 301.177q.785 0 1.436.19l-.596 3.359q-.65-.163-1.273-.163-1.273 0-2.004.921-.731.894-1.165 2.763v7.638h-3.467v-14.328h3.006l.325 2.817q.515-1.544 1.49-2.356.975-.84 2.248-.84z"/><use xlink:href="#C"/><use xlink:href="#B" x="41.887"/><path d="M117.27 308.382q0 .271-.081 1.408h-8.992q.163 2.086 1.083 2.979.921.894 2.438.894.948 0 1.788-.298.84-.325 1.788-.975l1.436 1.977q-2.383 1.923-5.309 1.923-3.277 0-5.065-2.004-1.761-2.004-1.761-5.471 0-2.194.758-3.927.758-1.761 2.194-2.736 1.436-1.002 3.413-1.002 3.006 0 4.659 1.923 1.652 1.896 1.652 5.309zm-3.44-1.002q0-3.765-2.79-3.765-1.273 0-2.004.948-.704.921-.84 2.979h5.634zm10.332 8.91q-1.652 0-2.573-.948-.921-.975-.921-2.736v-16.793l3.467-.379v17.063q0 .515.19.758.19.244.623.244.433 0 .785-.135l.758 2.438q-1.083.488-2.329.488zm16.686-7.908q0 .271-.081 1.408h-8.992q.163 2.086 1.083 2.979.921.894 2.438.894.948 0 1.788-.298.84-.325 1.788-.975l1.435 1.977q-2.383 1.923-5.309 1.923-3.277 0-5.065-2.004-1.761-2.004-1.761-5.471 0-2.194.758-3.927.758-1.761 2.194-2.736 1.435-1.002 3.413-1.002 3.006 0 4.659 1.923 1.652 1.896 1.652 5.309zm-3.44-1.002q0-3.765-2.79-3.765-1.273 0-2.004.948-.704.921-.84 2.979h5.634z"/><use xlink:href="#D"/><use xlink:href="#E"/><path d="M170.076 301.15q2.898 0 5.092 1.706l-1.354 2.031q-1.842-1.165-3.602-1.165-1.029 0-1.598.406-.569.379-.569 1.029 0 .488.244.813.244.325.867.623.65.271 1.896.623 2.329.623 3.44 1.652 1.138 1.029 1.138 2.871 0 2.14-1.733 3.359-1.733 1.192-4.306 1.192-1.761 0-3.223-.542-1.435-.542-2.492-1.49l1.733-1.95q1.869 1.408 3.9 1.408 1.165 0 1.842-.46.704-.46.704-1.273 0-.623-.271-.975-.244-.379-.921-.65-.65-.298-2.058-.704-2.194-.596-3.223-1.652-1.029-1.083-1.029-2.681 0-1.192.677-2.14.704-.948 1.95-1.49 1.273-.542 2.898-.542z"/><use xlink:href="#E" x="21.468"/><use xlink:href="#D" x="42.649"/><use xlink:href="#C" x="125.746"/><use xlink:href="#D" x="77.168"/><path d="M244.775 312.092q0 .84.244 1.246.271.379.84.596l-.731 2.302q-1.246-.108-2.004-.596-.758-.488-1.165-1.517-1.435 2.167-4.306 2.167-2.113 0-3.359-1.219-1.246-1.219-1.246-3.196 0-2.329 1.679-3.548 1.679-1.246 4.821-1.246h1.815v-.813q0-1.381-.65-1.923-.623-.569-2.031-.569-1.544 0-3.819.758l-.785-2.356q2.681-1.029 5.173-1.029 5.525 0 5.525 4.929zm-6.175 1.679q1.761 0 2.763-1.761v-2.898h-1.435q-3.359 0-3.359 2.492 0 1.029.515 1.598.515.569 1.517.569z"/><use xlink:href="#B" x="195.042"/><use xlink:href="#E" x="101.706"/><use xlink:href="#A" x="255.739"/><path d="M289.98 312.092q0 .84.244 1.246.271.379.84.596l-.731 2.302q-1.246-.108-2.004-.596-.758-.488-1.165-1.517-1.435 2.167-4.307 2.167-2.113 0-3.359-1.219-1.246-1.219-1.246-3.196 0-2.329 1.679-3.548 1.679-1.246 4.821-1.246h1.815v-.813q0-1.381-.65-1.923-.623-.569-2.031-.569-1.544 0-3.819.758l-.785-2.356q2.681-1.029 5.173-1.029 5.525 0 5.525 4.929zm-6.175 1.679q1.761 0 2.763-1.761v-2.898h-1.435q-3.359 0-3.359 2.492 0 1.029.515 1.598.515.569 1.517.569zm17.956-12.621q1.923 0 2.979 1.165 1.083 1.138 1.083 3.196v10.374h-3.467v-9.832q0-1.273-.46-1.788-.433-.515-1.3-.515-.894 0-1.625.569-.704.542-1.381 1.598v9.967h-3.467v-14.328h3.006l.271 1.869q1.761-2.275 4.361-2.275z"/><use xlink:href="#C" x="235.615"/></g><defs><path id="A" d="M16.69 301.15q1.408 0 2.519.406 1.138.406 2.14 1.273l-1.544 2.086q-.731-.542-1.408-.785-.677-.244-1.49-.244-3.223 0-3.223 4.902 0 2.492.84 3.602.84 1.083 2.383 1.083.758 0 1.381-.244.65-.244 1.517-.785l1.544 2.194q-2.031 1.652-4.632 1.652-2.058 0-3.575-.894-1.517-.921-2.329-2.6-.813-1.679-.813-3.954 0-2.275.813-4.009.813-1.761 2.329-2.708 1.517-.975 3.548-.975z"/><path id="B" d="M62.138 315.207q-.758.542-1.706.813-.921.271-1.896.271-2.113-.027-3.223-1.192-1.083-1.192-1.083-3.494v-7.557h-2.248v-2.492h2.248v-3.169l3.467-.406v3.575h3.331l-.352 2.492h-2.979v7.475q0 1.056.352 1.517.379.46 1.165.46.785 0 1.706-.515z"/><path id="C" d="M80.014 301.15q3.169 0 4.929 2.031 1.788 2.004 1.788 5.525 0 2.248-.813 3.981-.813 1.706-2.329 2.654-1.517.948-3.602.948-3.169 0-4.957-2.004-1.788-2.031-1.788-5.579 0-2.248.813-3.954.813-1.706 2.329-2.654 1.544-.948 3.629-.948zm0 2.627q-3.115 0-3.115 4.929 0 2.546.758 3.765.785 1.192 2.329 1.192 1.544 0 2.302-1.219.785-1.219.785-3.738 0-2.519-.785-3.711-.758-1.219-2.275-1.219z"/><path id="D" d="M150.625 315.884h-4.144l-4.74-14.328h3.765l3.061 11.538 3.142-11.538h3.575z"/><path id="E" d="M159.076 294.297q.975 0 1.571.623.623.596.623 1.49 0 .894-.623 1.49-.596.596-1.571.596-.948 0-1.571-.596-.596-.596-.596-1.49 0-.894.596-1.49.623-.623 1.571-.623zm1.761 21.587h-3.467v-14.328h3.467z"/></defs></svg>