<?xml version="1.0" encoding="UTF-8"?>
<svg id="logo" width="800" height="171.39" version="1.1" viewBox="0 0 800 171.39" xmlns="http://www.w3.org/2000/svg" xmlns:cc="http://creativecommons.org/ns#" xmlns:dc="http://purl.org/dc/elements/1.1/" xmlns:rdf="http://www.w3.org/1999/02/22-rdf-syntax-ns#">
 <title>Vixen Logo</title>
 <path d="m273.51 171.05h-81.749v-7.1274h21.532v-156.8h-21.532v-7.1261h81.749v7.1261h-21.53v157.14h21.53zm189.07 0h-85.113v-7.1274h21.194l-37.005-58.716-49.117 58.716h20.185v7.1274h-49.452v-7.1274h18.839l55.171-65.504-57.19-91.297h-16.821v-7.1261h82.759v7.1261h-19.513l37.005 60.074 49.792-60.074h-17.495v-7.1261h46.763v7.1261h-19.175l-55.509 66.861 56.518 90.28h18.166zm164.17 0h-154.42v-7.1274h21.53v-156.8h-21.53v-7.1261h154.41v44.459h-7.0632l-0.67282-1.696c-3.3641-10.521-22.877-35.637-51.809-35.637h-34.65v68.558h13.12c9.7559 0 16.484-2.3758 21.194-8.1451 4.0369-4.7516 7.0646-12.218 9.4195-24.437l0.33641-2.0366h6.7282v77.042l-6.7282-0.3392-0.33502-2.0366c-6.7282-29.527-19.177-33.599-30.615-33.599h-13.121v81.455h34.652c25.231 0 45.081-17.989 51.809-46.837l0.33501-2.038h7.066l0.33502 56.341zm152.73 0h-11.774l-0.67283-1.019-102.61-147.64v141.87h23.549v7.1274h-51.807v-7.1274h20.185v-157.14h-20.185v-7.1261h59.546l0.67282 1.0176 75.358 108.61v-102.5h-23.549v-7.1261h51.807v7.1261h-20.185v163.93zm-686.63 0h-5.3826l-66.611-163.93h-20.858v-7.1261h83.095v7.1261h-24.222l45.416 115.73 47.098-115.73h-19.173v-7.1261h49.452v7.1261h-21.867z" stroke-width="1.3959"/>
 <metadata>
  <rdf:RDF>
   <cc:Work rdf:about="">
    <dc:title>Vixen Logo</dc:title>
   </cc:Work>
  </rdf:RDF>
 </metadata>
</svg>
