<?xml version="1.0" encoding="UTF-8"?>
<svg width="800" height="264.1" version="1.1" xmlns="http://www.w3.org/2000/svg">
	<path d="m600.44 168.59c-0.94797 0.0189-1.8571 0.0965-2.7258 0.23501-2.7495 0.43307-6.7371 1.0726-11.964 1.9135-0.17122 0.0252-0.25663 0.12576-0.25663 0.29697v91.111c0 0.12589 0.10515 0.23195 0.23104 0.23698h17.721c0.10574 0 0.19175-0.0859 0.19175-0.19667l-0.0101-27.505c0-0.16113 0.19076-0.24723 0.31665-0.14651 1.8431 1.4855 3.6261 3.2074 5.3483 5.1713 6.0932 6.9442 11.195 14.67 15.999 22.465 0.0806 0.13093 0.22161 0.20649 0.37269 0.20649h20.238c0.28703 0 0.35818-0.12592 0.22222-0.37268-6.0076-11.084-13.325-21.356-21.951-30.818-1.4956-1.6467-3.0262-3.1732-4.5823-4.5882-0.14605-0.13093-0.1468-0.26622-0.0111-0.40218 8.9686-8.9333 17.519-18.185 25.652-27.747 0.0453-0.0504 0.0106-0.13078-0.06-0.13078h-21.065c-0.17121 0-0.31206 0.0657-0.42285 0.19667-6.4104 7.6996-12.962 15.162-19.66 22.388-0.25682 0.282-0.3874 0.23227-0.3874-0.15044l0.0403-51.743c0-0.18632-0.0911-0.28678-0.27727-0.30189-1.0248-0.0982-2.0119-0.13786-2.9598-0.11897zm-400.61 9e-3c-0.92657 0.0182-1.7993 0.0904-2.6176 0.21632-4.0286 0.6194-8.0566 1.2635-12.08 1.9332-0.1561 0.0252-0.23698 0.12107-0.23698 0.28221v91.151c0 0.11079 0.086 0.19666 0.19175 0.19666h17.791c0.0856 0 0.15045-0.0707 0.15045-0.15634l-0.01-27.515c0-0.2971 0.11548-0.35261 0.34712-0.16126 2.0445 1.7071 3.8978 3.5204 5.5646 5.4289 5.9169 6.7831 10.978 14.437 15.742 22.182 0.0906 0.14603 0.22102 0.22222 0.39727 0.22222h20.249c0.24675 0 0.31249-0.10599 0.19666-0.32253-3.8221-7.196-8.3193-14.116-13.501-20.768-4.1393-5.3177-8.2785-10.333-13.108-14.77-0.0856-0.0755-0.0855-0.15542-5e-3 -0.23599 8.8124-8.7873 17.363-18.033 25.652-27.727 0.13597-0.15611 0.10038-0.23698-0.11112-0.23698h-20.913c-0.20646 0-0.37266 0.076-0.49855 0.23207-6.3601 7.6693-12.921 15.147-19.679 22.424-0.21653 0.23668-0.32745 0.19151-0.32745-0.13077v-51.862c0-0.16619-0.0855-0.2622-0.25173-0.2773-1.0348-0.0881-2.0155-0.12347-2.9421-0.10521zm-38.662 0.0265c-0.98888 0.0271-1.9767 0.0985-2.946 0.25468-3.8322 0.61939-7.6745 1.2343-11.517 1.8486-0.18128 0.0252-0.27238 0.13031-0.27238 0.31663-0.0151 23.824-0.0151 47.623 0 71.386 5e-3 2.5178 0.32806 5.1216 0.96759 7.8056 1.4855 6.2291 6.113 10.061 12.156 11.753 3.9329 1.1028 8.0013 1.6117 12.201 1.5261 0.1561-5e-3 0.25212-0.0808 0.2773-0.23698l2.4672-14.462c0.0201-0.12589-0.0756-0.24768-0.20651-0.25271-3.5401-0.16618-7.649-1.3999-8.9079-4.9097h5e-3c-0.51866-1.4452-0.78064-3.1268-0.78567-5.0454-0.0403-23.3-0.0504-46.469-0.0403-69.507 0-0.30214-0.1503-0.45908-0.44741-0.46412-0.97189-0.0226-1.9621-0.0398-2.951-0.0128zm398.04 0.38054c-0.75663 8e-3 -1.4946 0.0915-2.2066 0.24289-0.70646 0.15014-1.3862 0.36833-2.0345 0.64505-0.0111 5e-3 -0.0217 9e-3 -0.0322 0.0138-0.64669 0.27849-1.2617 0.61553-1.8359 1.0059-0.57927 0.39384-1.1178 0.84119-1.6088 1.3344-0.48896 0.49118-0.9306 1.0285-1.3176 1.6038 0 2e-3 -5e-3 4e-3 -5e-3 6e-3 -1e-4 2.2e-4 1.6e-4 1e-3 0 1e-3 0 2e-3 -5e-3 4e-3 -5e-3 6e-3 -0.38528 0.57444-0.71582 1.1873-0.98528 1.831 0 2e-3 0 3e-3 -5e-3 5e-3 -1.5e-4 2.8e-4 1e-4 5e-4 0 1e-3v4e-3c-0.26855 0.64333-0.47496 1.3168-0.6136 2.0148 0 8e-3 -5e-3 0.0163-5e-3 0.0246-0.13728 0.69976-0.20718 1.4231-0.19962 2.1633 8e-3 0.74432 0.0932 1.4709 0.2468 2.1712 5e-5 3.1e-4 -5e-5 5e-4 0 1e-3 0.15369 0.70054 0.37637 1.3746 0.66079 2.0168 0.28441 0.64217 0.63031 1.2516 1.0305 1.8211 0.40023 0.56953 0.85481 1.0995 1.356 1.5822 0.50121 0.48263 1.0499 0.91847 1.6373 1.3 0.58731 0.38148 1.2136 0.70841 1.8722 0.97448 0.65862 0.26607 1.349 0.47131 2.064 0.60769 0.71501 0.13639 1.4549 0.20422 2.2115 0.19667 0.75662-8e-3 1.4946-0.0915 2.2066-0.24288 0.71205-0.15133 1.3983-0.37011 2.0512-0.64998 0.65293-0.27988 1.2724-0.62096 1.8516-1.0148 0.5792-0.39383 1.1177-0.84119 1.6087-1.3344 0.49098-0.49319 0.93438-1.0318 1.3226-1.6097 0.3882-0.57794 0.72136-1.1946 0.99219-1.8427 0.27082-0.64811 0.47959-1.3279 0.61848-2.0316 0.13893-0.70368 0.20818-1.4314 0.20063-2.1761-8e-3 -0.74466-0.0931-1.4706-0.24681-2.1712-0.15374-0.70054-0.37642-1.3756-0.66083-2.0178-0.28437-0.64217-0.63027-1.2516-1.0305-1.8211-0.40023-0.56953-0.8548-1.0995-1.356-1.5822-0.50121-0.48263-1.0489-0.91846-1.6362-1.3-2.5e-4 -1.6e-4 0 1.5e-4 0 0-0.58716-0.38129-1.2139-0.70852-1.8723-0.97447-0.65862-0.26607-1.349-0.4713-2.064-0.60769-0.71507-0.13639-1.4549-0.20423-2.2115-0.19667zm145.5 10.469-17.609 2.8349c-0.15611 0.0252-0.23205 0.1212-0.23205 0.2773-0.0403 17.892-0.0403 36.076 5e-3 54.552 0.0101 5.1465 0.71068 9.643 2.0955 13.49 2.6637 7.4024 9.1046 11.713 16.92 12.761 8.2384 1.1028 15.972 0.18631 23.199-2.7445 0.17625-0.0705 0.24766-0.19618 0.21241-0.3825l-2.4583-13.577c-0.0302-0.17625-0.13082-0.23644-0.29701-0.17601-3.8018 1.3445-7.7849 2.0039-11.944 1.9686-1.692-0.0151-3.2326-0.30687-4.6275-0.88597-4.0336-1.6668-4.9754-7.2215-4.9854-11.134-0.0201-7.6794-0.0257-15.242-0.0206-22.695 0-0.23668 0.11638-0.35289 0.35306-0.35794h21.205c0.18632 0 0.27732-0.0911 0.27732-0.27237l-0.0106-14.533c0-0.19135-0.0959-0.28713-0.2822-0.28713h-21.422c-0.0655 0-0.11592-0.0505-0.12096-0.11603v-18.506c0-0.17625-0.0854-0.24654-0.25661-0.21634zm-604.28 17.13c-16.807 0.2568-29.081 12.246-30.75 29.023-1.9488 19.589 8.4558 37.324 29.535 38.387 15.49 0.78054 28.447-7.9564 31.977-23.33 3.2732-14.246 0.18603-30.239-12.257-38.805-4.9501-3.4092-10.782-5.0815-16.865-5.2628-0.55141-0.0164-1.098-0.0201-1.6402-0.0118zm414.66 5e-3c-0.82443-0.01-1.6481-2e-3 -2.4721 0.0226-13.672 0.40788-24.891 7.357-23.29 22.504 1.5812 14.986 16.694 15.686 26.896 21.704 1.9287 1.1381 2.7596 2.6938 2.4927 4.6678-0.13597 1.0021-0.55403 1.7823-1.2439 2.3413-2.261 1.833-8.0422 1.6112-11.008 1.3796-5.3227-0.42803-10.56-1.6617-15.712-3.7061-0.16115-0.0654-0.26172-0.01-0.29697 0.16126l-2.951 14.296c-0.0252 0.141 0.0253 0.23666 0.16128 0.29205 9.9253 3.7465 20.394 4.7389 31.412 2.9814 4.235-0.67476 7.9823-2.1854 11.24-4.537 6.1133-4.4112 7.3465-11.996 5.9717-19.177-2.2459-11.698-15.948-14.18-24.836-18.486-1.8582-0.90138-3.0412-1.7126-3.5498-2.4327-1.0323-1.4654-1.1583-2.991-0.37269-4.5823 2.2157-4.4918 14.286-2.6234 18.209-1.5458 1.6064 0.44313 3.2174 0.90144 4.8439 1.3698 0.16618 0.0453 0.26664-0.0147 0.30188-0.18093l3.0316-13.511c0.0352-0.1561-0.0201-0.27182-0.16623-0.33728-0.41796-0.19135-0.85547-0.35767-1.3137-0.49362-5.7942-1.7493-11.578-2.6624-17.349-2.7317zm-235.9 8e-3c-2.0546-9e-3 -4.1014 0.0952-6.1409 0.31172-10.212 1.0827-19.091 7.0093-19.655 18.022-0.51867 10.041 4.3916 16.195 13.37 19.897 3.2178 1.3294 6.3849 2.6185 9.4969 3.8723 1.6568 0.66471 3.1975 1.4806 4.6226 2.4475 1.7675 1.1985 2.4128 2.7947 1.9244 4.7888-0.71507 2.9509-4.3159 3.2326-6.8488 3.3384-6.8334 0.29206-13.818-0.95681-20.944-3.7416-0.20646-0.0806-0.33718-0.01-0.38251 0.2065l-2.9411 14.246c-0.0252 0.12085 0.0208 0.20149 0.13668 0.24681 6.6824 2.5481 13.611 3.8221 20.777 3.8271 12.473 5e-3 27.757-2.8507 28.351-18.32 0.24675-6.4608-1.3296-11.889-6.7279-15.847-5.227-3.8372-11.788-5.9372-17.595-8.3543-1.4805-0.61939-4.6627-2.221-5.131-4.0238-1.4704-5.6098 4.466-6.3546 8.4291-6.3395 4.8896 0.0201 9.8652 0.95154 14.916 2.7946 0.0806 0.0302 0.16669-0.0197 0.18684-0.1003l3.0817-13.743c0.0453-0.20143-0.0308-0.3377-0.22714-0.40317-6.3034-2.0583-12.536-3.0993-18.7-3.126zm62.007 0.22027c-0.93232-0.01-1.879 8e-3 -2.8408 0.0462-8.0772 0.31725-15.988 1.5258-23.737 3.6206-0.0906 0.0252-0.13668 0.0803-0.13668 0.17602v61.48c0 0.12085 0.0964 0.21731 0.21732 0.21731h17.73c0.14603 0 0.21633-0.0713 0.21633-0.21731v-48.886h5e-3c0-0.22661 0.11079-0.35808 0.33237-0.39333 2.5279-0.423 5.0358-0.60409 7.5234-0.54869 2.8452 0.0604 5.635 1.2738 7.0652 3.8369 1.6769 3.0063 2.1052 7.272 2.1102 10.585 0.0252 11.557 0.0299 23.356 0.0147 35.391 0 0.12589 0.10618 0.23206 0.23207 0.23206h17.63c0.1712 0 0.25663-0.0864 0.25663-0.25762 0.0453-14.226 0.0301-27.077-0.0354-38.558-0.0151-2.8502-0.41802-5.6754-1.2036-8.4753-0.0453-0.16617 0.0298-0.34225 0.18093-0.42283 5.3882-2.8049 13.108-4.1597 16.362 2.1702 1.5258 2.961 1.7974 7.7054 1.8024 11.195 0.0101 11.033 0.0151 22.438 0 34.217 0 0.0705 0.0602 0.13175 0.1357 0.13175h17.872c0.0654 0 0.12095-0.0554 0.12095-0.12585 0.0151-12.987 0.0151-25.159 0-36.52-5e-3 -3.535-0.2968-6.9845-0.88598-10.353-1.6869-9.6131-7.3477-16.149-17.399-17.932-9.1952-1.6366-17.64 0.0958-25.329 5.192-0.15611 0.10575-0.31207 0.0961-0.46314-0.0197-5.4241-4.3534-11.249-5.7154-17.776-5.782zm78.008 1.4612c-0.20143 0-0.30287 0.10045-0.30287 0.30188 0.0252 11.36 0.0254 23.114-0.01 35.265-0.0252 8.4398 1.4257 18.149 8.1282 23.98 6.7075 5.8313 16.028 6.3296 24.644 5.8764 7.8003-0.41293 15.218-1.5714 22.253-3.48 0.18633-0.0504 0.27742-0.17051 0.27239-0.36186v-61.315c0-0.14603-0.11565-0.26145-0.25665-0.26648h-17.68c-0.12085-5e-3 -0.21731 0.0954-0.21731 0.21634l0.0256 48.902c0 0.20647-0.10033 0.32673-0.30679 0.35695-2.7193 0.40789-5.4891 0.59956-8.3091 0.56934-3.8473-0.0453-6.5468-1.3447-8.0928-3.9028-1.6769-2.7646-2.2454-7.1351-2.2656-10.333-0.0705-11.29-0.076-23.084-0.0206-35.376 5e-3 -0.23164-0.18627-0.42283-0.41791-0.42283zm131.28 0.0147c-0.0806 0-0.14649 0.0659-0.14649 0.14652v63.772c0 0.0806 0.0659 0.14652 0.14649 0.14652h17.846c0.0806 0 0.14553-0.0659 0.14553-0.14652v-63.772c0-0.0805-0.0649-0.14652-0.14553-0.14652zm-550.25 5e-3c-0.19136 0-0.26189 0.0911-0.2065 0.27238 6.4709 22.212 14.614 43.357 24.434 63.434 0.10575 0.21653 0.32271 0.35301 0.56443 0.35301h14.487c0.19639 0 0.37754-0.11088 0.46314-0.28713 9.7793-19.982 17.927-41.136 24.443-63.465 0.06041-0.20646-0.01551-0.30777-0.23206-0.30777h-18.058c-0.20646 0-0.33204 0.0956-0.38743 0.29205-3.8523 14.135-8.2183 27.964-13.098 41.484-0.141 0.38774-0.28195 0.38774-0.41791 0-4.7386-13.234-9.0942-27.088-13.067-41.56-0.03525-0.14604-0.13102-0.21633-0.28713-0.21633zm735.46 0c-0.1108 0-0.19151 0.10579-0.1613 0.2065 6.5011 21.971 14.458 43.251 24.56 63.555 0.0957 0.19639 0.25727 0.29794 0.47884 0.29794h14.487c0.16114 0 0.27661-0.0704 0.34711-0.21141 1.4251-2.7797 2.7301-5.4594 3.9185-8.0377 7.9715-17.282 14.86-35.783 20.667-55.503 0.0604-0.20646-0.0156-0.30778-0.22711-0.30778h-18.134c-0.16618 0-0.26739 0.0809-0.31272 0.23698-3.8019 13.934-8.183 27.812-13.143 41.64-0.0755 0.21653-0.161 0.21629-0.25668 0.01-0.3676-0.81074-0.69996-1.6408-0.99706-2.4868-4.371-12.483-8.4393-25.541-12.206-39.168-0.0453-0.15612-0.14664-0.23207-0.30779-0.23207zm-634.68 13.865c6.1286 0.0203 10.392 3.9572 11.898 10.014 2.4322 9.7591 1.0171 28.13-13.929 26.136-11.426-1.5258-12.161-17.555-10.147-25.758 1.3496-5.4839 5.0309-9.8693 10.928-10.343 0.42489-0.034 0.84124-0.0505 1.2498-0.0491zm562.9 29.366c-1.2089 2e-3 -2.411 0.18321-3.5478 0.5546-5.363 1.7524-7.9413 5.5092-7.7348 11.265 0.10575 2.9156 1.0022 5.2472 2.6992 6.9845 3.9027 3.9983 10.081 4.7033 14.855 1.8732 3.9832-2.3567 5.3376-6.0878 5.0405-10.58-0.14604-2.1855-0.76019-4.024-1.8378-5.5096-2.1603-2.9761-5.8474-4.5927-9.4744-4.5882z"/>
	<path d="m412.27 44.634c1.269-3.0063 2.8049-5.8515 4.0437-8.8326 1.5862-3.812 2.8955-7.7298 3.0214-11.869 0.20646-6.5716-1.5862-12.448-7.05-16.985 4.4666-2.0143 8.9283-3.4495 13.561-4.2854 10.64-1.9186 21.029-1.5208 30.708 3.8775 5.2019 2.9006 9.7995 6.6773 14.468 10.323 15.777 12.312 29.786 26.458 43.493 40.925 12.851 13.561 25.748 27.082 39.842 39.424 2.8754 2.5178 5.8666 4.9148 8.7822 7.3924 3.953 3.3638 8.329 3.4444 12.876 1.5158 3.2279-1.3697 5.917-3.5703 8.4499-5.9421 5.4537-5.1012 10.499-10.61 16.104-15.56 4.6127-4.0789 9.6736-7.4579 15.354-9.9153 7.906-3.4192 15.611-2.5128 23.149 1.128 6.9744 3.3689 12.917 8.2283 18.879 13.022 10.65 8.5607 20.631 17.867 30.154 27.616 17.534 17.952 36.851 33.704 58.097 47.184 4.9048 3.112 9.6232 6.5061 14.392 9.8246 1.4956 1.0424 2.8653 2.2711 3.8372 4.0537-2.12 0.30717-3.9782-0.0705-5.776-0.72011-22.877-8.3341-44.495-18.985-63.943-33.679-11.638-8.7923-22.646-18.335-34.082-27.359-8.7269-6.8838-17.716-13.405-27.334-19.08-4.2954-2.533-7.8355-2.538-11.834 0.62443-4.9501 3.9127-8.9736 8.6262-13.088 13.284-5.3227 6.0227-10.872 11.768-17.655 16.235-12.821 8.4398-31.302 8.9988-45.362-1.9035-11.975-9.2858-23.567-18.964-34.489-29.424-9.7138-9.3009-19.362-18.667-29.091-27.958-11.748-11.214-24.025-21.789-37.41-31.111-4.0336-2.8099-7.9916-3.1272-12.468-2.0797-5.3076 1.2438-9.7743 4.1242-14.306 6.8989-1.7927 1.0978-3.5451 2.256-5.3127 3.384z" fill="#fedd45"/>
	<path d="m252.41 76.656c-2.956 1.7021-5.927 3.3437-8.8225 5.0961-6.637 4.0185-12.801 8.6513-18.305 14.1-0.90643 0.89635-1.5711 0.99707-2.7092 0.45825-11.572-5.4839-23.124-11.038-35.194-15.404-5.5191-1.9941-10.993-4.23-16.9-4.9451-6.34-0.76543-12.217 0.48343-17.418 4.2854-9.87 7.2061-18.919 15.359-27.072 24.368-18.869 20.853-39.978 39.158-62.986 55.403-7.9765 5.635-15.998 11.194-24.514 16.024-0.8611 0.48846-1.697 1.0424-2.7042 1.1733-0.63953 0.0856-1.4251 0.69492-1.8834 0.0101-0.38775-0.57407 0.141-1.3093 0.46328-1.8733 1.4402-2.5279 3.4545-4.6429 5.4033-6.768 4.6631-5.0911 9.3966-10.122 14.201-15.082 7.7248-7.9766 15.535-15.867 23.295-23.804 10.147-10.379 19.181-21.679 28.084-33.095 8.5305-10.932 17.388-21.568 27.586-31.07 7.5838-7.0701 15.928-12.609 26.367-14.669 9.4671-1.8682 18.713-0.97693 27.958 1.4301 15.157 3.943 29.68 9.5779 44.098 15.555 6.4054 2.6538 12.846 5.217 19.262 7.8406 0.60428 0.24675 1.3344 0.30214 1.7977 0.96182z" fill="#fedd45"/>
	<path d="m292.72 135.94c-4.4666 2.5178-8.601 5.1918-12.604 8.0672-8.2787 5.9472-16.598 11.844-25.375 17.061-4.1091 2.4423-8.4398 4.3559-13.199 5.3026-7.0701 1.405-11.995-3.3286-10.766-10.338 0.90642-5.1666 3.107-9.7793 5.8263-14.201 5.4688-8.888 11.884-17.041 19.332-24.403 0.32732-0.32228 0.82082-0.55392 0.86111-1.2791-2.8653 0.18632-5.6803 0.39279-8.5003 0.55393-4.9098 0.282-9.7995 0.2115-14.609-0.97189-6.6924-1.6467-9.3614-6.4205-6.8989-12.383 0.68484-1.6567 1.7726-3.0919 2.961-4.4314 4.1494-4.6731 9.3815-7.9715 14.694-11.149 6.5464-3.9127 13.486-7.0198 20.591-9.7995 0.84096-0.32732 1.6819-0.6496 2.7545-1.0676-2.9006-1.4654-5.5947-2.8049-8.2636-4.1897-1.7071-0.88628-3.3185-1.9236-4.5926-3.3941-3.1524-3.6207-2.0596-8.0722 2.4625-9.7844 2.8099-1.0676 5.7709-1.4301 8.7571-1.4906 3.3387-0.07049 6.6773-0.0151 10.308-0.0151-2.0898-3.2631-4.084-6.3349-5.7961-9.5628-2.1956-4.1343-4.1343-8.3643-4.8242-13.037-1.3194-8.9434 4.5875-12.836 12.186-12.131 6.9795 0.6496 13.214 3.6458 19.282 6.909 6.8133 3.666 13.365 7.755 19.876 12.191 2.1603-5.0609 4.5724-9.9354 7.4277-14.578 4.9753-8.0924 10.444-15.807 17.776-22.041 3.2833-2.7948 6.8939-4.9551 11.295-5.6551 3.6861-0.58918 7.5384 1.0374 9.3261 4.2854 2.256 4.1091 2.6941 8.6614 2.6236 13.199-0.0957 6.2443-0.53882 12.478-0.83592 18.813 0.73017-0.03525 1.0625-0.67478 1.5057-1.0927 6.3097-5.9925 12.67-11.93 19.745-17.046 4.4616-3.2279 9.17-6.0378 14.724-7.191 7.2665-1.5057 12.554 2.1402 13.455 9.4067 0.68485 5.5141-0.81578 10.691-2.5078 15.827-2.0596 6.2493-4.8444 12.186-8.0974 17.912-0.26689 0.46832-0.51868 0.94671-0.88627 1.6165 2.3416 0.11079 4.4767 0.24675 6.6169 0.31221 2.82 0.08561 5.5493 0.66471 8.183 1.5862 4.225 1.4755 5.4386 5.8213 2.7243 9.3664-1.1733 1.5359-2.815 2.4927-4.804 3.7163 3.5502 0.16114 6.6773 0.25682 9.7944 0.45825 6.8133 0.43811 13.627 0.9165 20.108 3.3034 2.8301 1.0424 5.4083 2.5128 7.2363 4.9652 2.961 3.9732 2.4574 9.175-1.274 13.506-2.9862 3.4646-6.7982 5.8817-10.781 8.042-7.6694 4.1595-15.898 6.8334-24.393 8.7672-0.41292 0.0957-0.82585 0.21653-1.4956 0.39278 1.0273 1.4452 1.974 2.7545 2.8955 4.0789 4.9853 7.1809 9.0492 14.76 10.635 23.446 0.58413 3.1926 0.55392 6.3349-0.423 9.4419-1.5762 5.0206-5.2522 7.5082-10.338 8.2736-4.794 0.72515-9.2405-0.60932-13.556-2.3768-8.1427-3.3336-15.298-8.324-22.358-13.435-2.6891-1.9488-5.3479-3.9329-8.188-6.0277-0.87118 3.7617-1.4704 7.3169-2.7092 10.716-1.6517 4.5221-3.7063 8.8074-6.8536 12.539-5.8918 6.9895-14.684 6.4356-19.523-1.2791-2.7294-4.3508-3.7466-9.2858-4.9098-14.17-0.30718-1.2942-0.61437-2.5934-0.97189-4.0991-0.68486 0.59422-0.76544 1.2589-0.95679 1.8481-2.9207 8.7772-5.1717 17.766-8.5103 26.412-2.261 5.8515-4.6832 11.612-8.8578 16.462-2.402 2.7848-5.2472 4.8544-9.0139 5.4083-5.2673 0.7755-9.1247-1.5208-12.091-5.5745-3.5804-4.8897-5.0609-10.59-6.1637-16.386-1.7776-9.3614-1.7574-18.748-0.12085-28.129 0.0705-0.40789 0.0604-0.83593 0.10575-1.4755z" fill="#5ebb63"/>
	<g fill="#fefefe">
		<path d="m346.09 70.473c1.3798 2.8603 5.076 4.235 8.5959 3.0818 2.0798-0.67982 4.2703-1.3244 5.8767-2.9962 0.19639-0.20646 0.53378-0.44314 0.7755-0.41796 2.1452 0.23164 2.5078-0.60428 1.546-2.3567-0.13093-0.24171-0.0906-0.60428-0.0604-0.90642 0.6496-7.2363 0.0302-14.447-0.423-21.664-0.0806-1.269 0.27192-2.1704 1.1884-3.0718 7.4226-7.332 15.001-14.493 23.255-20.918 3.2228-2.5078 6.6975-4.6479 10.449-6.3248 1.9388-0.86614 3.9379-1.4553 6.0932-1.5006 4.1494-0.08057 6.6471 2.0898 7.0953 6.1637 0.51868 4.7436-0.55896 9.2506-2.0394 13.697-2.8452 8.5456-6.9039 16.507-11.804 24.071-0.28704 0.43811-0.94168 0.88125-0.6345 1.4201 0.33739 0.59421 1.0122 0.08561 1.5258 0.07554 5.5745-0.12086 11.174-0.66975 16.683 0.66975 1.4503 0.3525 3.389 0.46328 3.6408 2.3215 0.26186 1.9136-1.4201 2.8804-2.8452 3.7365-4.366 2.6236-9.1045 4.4465-13.904 6.1284-0.54889 0.19136-1.2388 0.15107-1.7575 0.92657 1.6718 0.15611 3.2128 0.36257 4.7638 0.42804 6.7579 0.28703 13.526 0.47839 20.279 0.81578 5.7608 0.28704 11.527 0.65968 17.116 2.2258 2.6387 0.74025 5.1717 1.7474 7.191 3.6912 2.2358 2.1553 2.6588 4.5976 1.2891 7.3622-1.1179 2.2661-2.9157 3.953-4.8947 5.4537-7.8758 5.9723-16.985 9.3009-26.447 11.768-15.591 4.0638-31.493 4.5221-47.487 3.807-7.765-0.34745-15.45-1.2337-23.033-2.9207-0.94168-0.21151-1.3496 0.0554-1.692 0.8611-5.5141 13.037-11.502 25.894-15.354 39.57-2.3265 8.2535-4.9249 16.431-8.5607 24.242-1.6668 3.5804-3.6408 6.9694-6.5162 9.7692-4.794 4.6631-10.122 4.2803-14.075-1.1028-3.1322-4.2652-4.5271-9.2405-5.4637-14.316-2.2208-12.06-1.5611-24.02 1.6215-35.854 0.0755-0.282 0.13093-0.57408 0.20647-0.89636-0.71508-0.12589-1.0978 0.3374-1.546 0.57911-10.872 5.8565-20.737 13.214-30.859 20.193-6.0982 4.2048-12.161 8.5053-19.025 11.486-2.3265 1.0122-4.7184 1.9035-7.3068 1.9941-3.7264 0.1259-5.786-2.1754-5.2271-5.8414 0.43811-2.8653 1.3596-5.5946 2.679-8.178 4.1343-8.0924 9.4772-15.369 15.455-22.212 3.7768-4.3206 7.8356-8.3693 12.181-12.136 0.75032-0.6496 1.5258-0.91146 2.5128-0.96181 12.086-0.62947 24.171-1.1784 36.232-2.1956 1.3798-0.11582 1.9992-0.72514 2.261-2.0999-2.1704-0.31222-4.2854 0.18632-6.3802 0.37767-8.6564 0.78557-17.338 1.1129-26.004 1.687-8.5456 0.56903-17.081 1.1985-25.632 1.6819-4.7688 0.27193-9.5729 0.36761-14.181-1.2186-3.8976-1.3445-4.9501-4.1494-2.8351-7.6794 2.2963-3.8372 5.7659-6.5363 9.3916-9.0491 11.124-7.7147 23.441-12.962 36.302-17.091 0.62444-0.20143 1.2438-0.41796 2.3768-0.79564-1.4956-0.60932-2.543-1.0374-3.5955-1.4553-4.8846-1.9538-9.7693-3.9077-14.327-6.5665-1.0222-0.59421-1.9941-1.2438-2.8099-2.0999-1.687-1.7726-1.4301-3.0718 0.85606-4.0789 2.2006-0.96685 4.5774-1.0978 6.9241-1.1985 5.3378-0.22661 10.671-0.05539 15.983 0.59421 0.705 0.08561 1.4402 0.26689 2.3164-0.07554-2.82-4.0286-5.6652-7.9514-8.0974-12.136-2.7495-4.7336-5.4939-9.4822-6.3802-14.976-0.94167-5.8666 2.261-8.9484 8.3039-8.2283 4.5069 0.53882 8.6513 2.1603 12.675 4.0688 9.316 4.4113 17.952 9.9455 26.377 15.817 2.0042 1.3949 1.9841 1.415 2.8452-0.75535 4.9501-12.438 11.824-23.713 20.974-33.593 2.3114-2.4927 4.8695-4.7235 7.7751-6.5363 1.3194-0.82082 2.7142-1.5006 4.2149-1.9085 3.9933-1.0927 6.637 0.31725 7.9111 4.2401 1.1884 3.666 1.274 7.4579 1.1834 11.27-0.18129 7.901-1.1381 15.777-0.89636 23.688 0.13597 4.4717 0.3525 8.9384 0.5791 13.405 0.15107 3.0113 0.20144 6.0781-0.39781 8.9686-0.33236 1.6014-0.85608 3.5804-2.5279 4.7688-1.7524 1.2438-3.6408 2.0948-5.7709 2.3718-2.4826 0.32228-3.6962 0.09064-6.7277-1.1834z"/>
		<path d="m424.74 139.94c0.13093 8.4902-5.1163 12.413-13.45 10.595-6.9744-1.5208-12.957-5.1515-18.859-8.9082-6.0579-3.8523-11.653-8.3391-17.514-12.468-8.8024-6.1989-18.239-11.396-27.53-16.814-1.128-0.65968-1.7474-1.2338-0.94167-2.533 0.73018-1.1733 0.58414-2.9358 3.0567-2.392 14.765 3.248 29.746 3.7012 44.798 2.966 4.4667-0.21654 8.9132-0.58414 13.335-1.2237 1.2992-0.18632 2.1603 0.14603 3.0063 1.2086 5.9018 7.4327 10.902 15.329 13.35 24.584 0.48847 1.8481 0.74528 3.7214 0.74528 4.9853z"/>
		<path d="m369.97 128.59c-1.1078 9.17-3.238 17.393-8.8024 24.393-0.56903 0.71508-1.2539 1.3647-1.969 1.9388-4.084 3.2933-8.0974 2.7797-11.179-1.4503-2.1754-2.9862-3.2682-6.4457-4.1645-9.9505-1.1834-4.6228-2.2157-9.2858-3.3236-13.929-0.19136-0.80067-0.16114-1.5359 0.17121-2.3215 1.7776-4.1696 3.5552-8.3492 5.2321-12.559 0.46329-1.1582 0.86615-1.123 1.8431-0.53379 6.9342 4.1796 13.888 8.324 20.868 12.423 1.0625 0.62442 1.5913 1.3194 1.3244 1.9841z"/>
	</g>
	<path d="m332.92 86.053c-3.1574 0-4.7688-2.2056-6.7478-3.7717-0.19639-0.15611-0.23668-0.55393-0.26688-0.846-0.22158-1.9941 2.0747-6.1436 3.9178-7.06 0.82586-0.41293 1.7524-0.66975 2.5028-1.1884 3.4797-2.3869 7.2061-1.7021 10.872-0.80571 3.3336 0.81578 4.5623 5.7155 2.1804 8.1377-0.77549 0.78557-1.5812 1.551-2.3315 2.3617-1.3143 1.415-2.9106 2.1905-4.8494 2.402-1.838 0.20143-3.661 0.52371-5.2724 0.76543z" fill="#fedd45"/>
	<path d="m361.35 88.178c-0.0453 2.4171-1.1028 3.7617-2.6085 4.7134-2.8603 1.8028-5.9472 2.4171-9.1348 0.91146-2.6941-1.269-3.2833-3.9027-1.556-6.2594 2.2409-3.0567 7.755-4.2401 11.063-2.3718 1.3798 0.7755 2.2862 1.8481 2.2359 3.0063z" fill="#fedd45"/>
	<path d="m349.66 77.588c1.5963 3.4998 1.1935 5.1163-1.8834 7.6442-0.33236 0.27193-0.73018 0.5086-0.97189 0.85103-3.807 5.3681-9.734 4.8141-15.183 4.935-3.097 0.0705-5.1163-2.6991-7.1356-4.8343-0.42803-0.45321-0.73521-1.3697-0.21653-1.8733 0.61939-0.60428 1.1179 0.24171 1.4855 0.60428 2.9056 2.8301 6.3047 3.389 10.137 2.392 1.3748-0.35754 2.8552-0.34243 4.1947-0.7755 4.2501-1.3747 6.9593-4.4516 8.9585-8.2485l0.61435-0.68989z" fill="#5ebb63"/>
	<g fill="#fedd45">
		<path d="m335.37 101.98c-0.90642-0.1561-1.9136-0.10574-2.825-0.57406-2.0646-1.0676-2.7042-3.0819-1.5913-5.0911 1.6215-2.9308 6.3097-4.4364 9.4067-3.0214 2.4121 1.1028 2.9811 3.4696 1.3496 5.6148-1.3848 1.8229-3.8523 3.0265-6.34 3.0718z"/>
		<path d="m317.52 98.889c-1.5308 0.08561-3.1473-0.45321-3.802-2.2107-0.6496-1.7373 0.18632-3.2732 1.556-4.3962 2.0244-1.6517 4.2904-2.6639 7.0198-1.9387 2.9358 0.78053 3.7818 3.2833 1.8481 5.6148-1.6215 1.9589-3.7415 2.956-6.627 2.9308z"/>
		<path d="m335.08 69.34c-0.53882-0.11582-1.3496-0.20143-2.0948-0.46832-2.2661-0.81075-2.8502-2.7142-1.4855-4.658 1.8028-2.5732 6.8234-3.9178 9.7189-2.5984 2.0596 0.93664 2.5078 2.8653 1.0273 4.6681-1.7726 2.1553-4.2552 2.7998-7.1608 3.0567z"/>
	</g>
	<path d="m363.98 87.524c1.7826 2.2862 1.9287 4.4868 0.6194 6.6874-2.9358 4.94-11.537 6.8586-16.321 3.6358-1.2035-0.81075-2.0999-1.8531-2.6488-3.7063 3.7214 2.3416 7.483 2.8804 11.361 1.6467 3.9379-1.2539 6.7831-3.5552 6.9895-8.2636z" fill="#5ebc63"/>
	<path d="m353.8 63.211c0.43308 0 0.88125-0.06546 1.2992 0.01007 1.41 0.25682 2.6538 0.83089 3.0668 2.3114 0.38774 1.3949-0.51868 2.3466-1.5057 3.1121-2.0747 1.6114-4.4667 2.0294-7.0047 1.4201-1.123-0.27193-2.0445-0.97692-2.3567-2.1402-0.32229-1.2186 0.37264-2.1553 1.2186-2.8905 1.4906-1.2942 3.2631-1.9639 5.2824-1.8229z" fill="#fedd45"/>
	<path d="m345.21 96.376c1.3798 1.828 1.1733 3.4495 0.42803 5.0558-2.1251 4.5926-9.311 7.0903-13.924 4.8746-2.0445-0.98197-3.0919-2.5783-3.107-4.7386 5.9673 5.1163 15.46 1.0172 16.603-5.1868z" fill="#5ebc63"/>
	<path d="m319.84 75.377c-1.4906 0.0151-3.0013-0.15611-3.5552-1.7424-0.60428-1.7222 0.46328-2.9006 1.7877-3.8674 1.7927-1.3042 3.812-1.7424 5.9874-1.4251 2.4474 0.35753 3.2581 2.3315 1.8078 4.2954-1.2136 1.6416-3.6156 2.7344-6.0277 2.7344z" fill="#fedd45"/>
	<path d="m327.73 93.652c0.81578 2.7042 0.12589 4.6177-1.3194 6.204-2.9207 3.2077-6.6672 4.4012-10.938 3.6861-2.8905-0.48343-4.2602-2.3768-4.094-5.4587 2.5883 3.0768 5.8213 3.1121 9.1599 2.1754 3.2984-0.92657 5.7306-2.9862 7.191-6.6068z" fill="#5fbc64"/>
	<path d="m361.71 73.116c0.0654 5e-3 0.5791-0.03022 1.0424 0.10071 1.1733 0.32732 2.2258 0.9316 2.5279 2.1704 0.31725 1.2942-0.48846 2.2207-1.4755 2.9157-1.8531 1.2942-3.8876 1.828-6.1033 1.0222-2.2761-0.83089-2.7092-2.9056-0.96686-4.5674 1.264-1.2035 2.8099-1.7021 4.9753-1.6416z" fill="#fddd45"/>
	<path d="m312.22 86.884c-1.1582-0.13596-2.4474-0.28703-2.9459-1.6719-0.45825-1.2841 0.24674-2.2912 1.1381-3.0718 1.6416-1.4402 3.5653-2.1805 5.7961-1.6719 2.0646 0.46832 2.7042 2.2056 1.4251 3.8926-1.3194 1.7373-3.1876 2.4272-5.4134 2.5279z" fill="#fddd45"/>
	<path d="m354.48 79.985c5.9472 3.1423 13.435-0.35754 13.249-4.7285 1.5812 0.97692 1.979 2.8905 0.96181 4.6328-1.5611 2.674-6.1234 4.3559-9.0794 3.3689-0.69996-0.23164-1.4201-0.48343-2.1452-0.54386-1.5812-0.13093-2.397-1.0273-2.9862-2.7344z" fill="#5fbc64"/>
	<path d="m320.56 83.092c0.67982 2.0445 0.13093 3.7063-1.2992 4.794-2.7596 2.0999-5.7155 3.9127-9.5024 2.8502-2.0948-0.58414-2.961-1.8834-2.6639-4.0386 4.7336 3.2984 10.263 1.8884 13.465-3.6056z" fill="#5fbc64"/>
	<path d="m326.37 74.959c-1.4452 3.7214-4.5573 4.2703-8.0219 4.0185-2.6387-0.19639-4.1998-1.7424-4.089-3.9228 3.9077 3.1221 7.7399 1.8481 11.562-0.15611 0.20143-0.13596 0.38271-0.11582 0.54889 0.06043z" fill="#61bc65"/>
	<path d="m345.58 63.71c0.69996 2.0445-0.2669 3.8624-1.1884 5.4486-1.0827 1.8632-3.0265 1.6215-5.0256 0.80068 2.9006-1.3596 5.4688-2.8955 6.214-6.2493z" fill="#61bd66"/>
	<path d="m329.23 68.614c1.3898 1.2992 2.8552 1.833 4.6983 2.0092-0.92153 0.66471-1.6517 1.4503-2.674 1.0172-1.1632-0.48846-1.8834-1.4352-2.0243-3.0265z" fill="#67bf6b"/>
	<path d="m327.37 73.484c0.48342-0.80571 0.96686-1.6165 1.5208-2.543 0.86613 1.5611 0.27695 2.397-1.1381 2.9207-0.39278 0.13596-0.47839-0.03022-0.38271-0.37768z" fill="#6bc170"/>
	<path d="m327.37 73.484c0.1259 0.12589 0.25682 0.25178 0.38271 0.37768-0.46328 0.36761-0.92657 0.73521-1.3949 1.1028-0.18128-0.02014-0.3676-0.04029-0.54888-0.06042 0.51867-0.47336 1.0374-0.94671 1.556-1.4201z" fill="#8bce8f"/>
	<path d="m349.66 77.593-0.61435 0.68989v-1.8884c0.0755-0.02014 0.14603-0.04029 0.22156-0.06043z" fill="#99d49c"/>
</svg>
