<?xml version="1.0" encoding="UTF-8"?>
<svg width="800" height="253.69" version="1.1" xmlns="http://www.w3.org/2000/svg">
 <defs>
  <linearGradient id="b" x1="5846.5" x2="5105.1" y1="1767" y2="3604" gradientTransform="matrix(.13464 0 0 .13464 .21057 -230.63)" gradientUnits="userSpaceOnUse">
   <stop stop-color="#8b8b8b" offset="0"/>
   <stop offset="1"/>
  </linearGradient>
  <linearGradient id="linearGradient5522-2" x1="677.43" x2="681.38" y1="122.54" y2="186.01" gradientUnits="userSpaceOnUse">
   <stop stop-color="#cf2027" offset="0"/>
   <stop stop-color="#eb1d2b" offset=".49653"/>
   <stop stop-color="#f16276" offset="1"/>
  </linearGradient>
  <radialGradient id="radialGradient1670" cx="1322.8" cy="350.34" r="39.307" gradientTransform="matrix(1 0 0 .36957 0 220.87)" gradientUnits="userSpaceOnUse">
   <stop stop-color="#fff" stop-opacity=".8" offset="0"/>
   <stop stop-color="#fff" stop-opacity=".15" offset=".8"/>
   <stop stop-color="#cf2027" stop-opacity="0" offset="1"/>
  </radialGradient>
  <radialGradient id="radialGradient2361" cx="665.67" cy="341.68" r="74.287" gradientTransform="matrix(-1.0427 .099548 -.033433 -.31107 1371.2 400.12)" gradientUnits="userSpaceOnUse">
   <stop stop-color="#fff" offset="0"/>
   <stop stop-color="#fff" stop-opacity=".5" offset=".55477"/>
   <stop stop-color="#f16276" stop-opacity=".2" offset="1"/>
  </radialGradient>
  <radialGradient id="radialGradient2855" cx="801.8" cy="190.61" r="10.272" gradientTransform="matrix(1.2022,0,0,2.5441,-162.15,-294.31)" gradientUnits="userSpaceOnUse">
   <stop stop-color="#fff" stop-opacity=".7592" offset="0"/>
   <stop stop-color="#fff" stop-opacity=".3" offset=".4"/>
   <stop stop-color="#eb1d2b" stop-opacity="0" offset="1"/>
  </radialGradient>
  <radialGradient id="radialGradient1854" cx="766.75" cy="222.03" r="24.773" gradientTransform="matrix(1 0 0 .78049 0 48.738)" gradientUnits="userSpaceOnUse">
   <stop stop-color="#fff" stop-opacity=".6" offset="0"/>
   <stop stop-color="#fff" stop-opacity=".22745" offset=".41922"/>
   <stop stop-color="#f16276" stop-opacity="0" offset="1"/>
  </radialGradient>
 </defs>
 <g transform="matrix(.70971 0 0 .71032 -59.863 -85.586)">
  <path transform="matrix(1.2981,0,0,1.2981,-206.76,101.16)" d="m745.12 149.54a76.905 76.905 0 0 1-76.905 76.905 76.905 76.905 0 0 1-76.905-76.905 76.905 76.905 0 0 1 76.905-76.905 76.905 76.905 0 0 1 76.905 76.905z" fill="url(#linearGradient5522-2)"/>
  <path transform="matrix(1.1957,0,0,1.1765,-921.93,-193.89)" d="m1362.1 354.62c0 10.377-17.609 10.254-39.307 10.254-21.697 0-39.307 0.12305-39.307-10.254s17.609-18.799 39.307-18.799c21.697 0 39.307 8.4219 39.307 18.799z" fill="url(#radialGradient1670)" opacity=".8"/>
  <g fill-rule="evenodd">
   <path d="m582.57 352c-1.2889-7.2267 1.4961-2.0705 8.1302-5.2129 12.924-6.1216 37.919-15.886 51.563-11.603 14.084 4.4214 26.089-8.3582 40.723-6.415 5.6136 0.74547 51.889-7.239 57.536-7.6617 8.7066-0.65166-9.6841 44.064-9.6841 44.064-2.4599 4.3935-36.139 23.648-48.266 24.219-16.995 0.79982-41.102 3.418-47.938 0s-21.372-9.4285-31.556-16.486c-5.3635-3.7169-19.362-14.481-20.508-20.905z" fill="url(#radialGradient2361)" opacity=".6"/>
   <path transform="matrix(1.2941,0,0,1.25,-294.43,73.072)" d="m812.07 174.9c-5.4548-8.1608-19.066-4.2474-19.335-3.6253l-1.2084 14.501c1.8758 11.253 1.5986 25.2 13.293 24.169 10.075-17.194 5.8244-23.164 7.2506-35.045z" fill="url(#radialGradient2855)" opacity=".3"/>
   <path transform="matrix(1.2195,0,0,1,-229.34,118.31)" d="m768.12 248.19 23.409-26.165-12.084-18.127-24.169-1.2084-13.293 10.876v10.876z" fill="url(#radialGradient1854)" opacity=".41148"/>
  </g>
 </g>
 <path d="m0 0 139.38 253.69h81.578l51.117-91.339c-3.5187-12.53-5.3847-25.753-5.3847-39.422 0-51.955 27.199-97.502 68.031-122.93h-97.987l-55.239 106.91-57.051-106.91zm557.62 0-72.491 0.12685a144.55 144.55 0 0 1 67.863 122.81c0 57.844-33.76 107.72-82.462 130.76h96.093l47.793-57.976v-0.25243l47.961 58.228h137.62l-116.88-134.38 102.53-119.11-114.27-0.21057h-22.887l-33.995 41.568-33.994-41.568z" fill="url(#b)" stroke-width="1.2685"/>
</svg>
