<?xml version="1.0" encoding="UTF-8"?>
<svg width="800" height="249.32" version="1.0" xmlns="http://www.w3.org/2000/svg">
	<path d="m538.04 0-19.373 9.2793v100.77h19.256c0.118 0 0.11719-31.346 0.11719-44.912 0-8.28 2.977-13.242 10.75-14.451 5.402-0.84 9.5527 2.3186 9.5527 9.3906v49.973h19.15v-53.951c0-5.2-2.1608-12.656-5.8848-16.285-4.363-4.25-9.486-6.3398-18.832-6.2988-8.07 0.037-14.736 8.7227-14.736 8.7227zm-77.783 0.45703-19.148 9.5742v100.01h19.148v-37.025l24.748 37.025h25.064l-30.154-41.828 23.379-32.539h-23.666l-19.371 29.295zm-185.7 1.8145c-1.4313 0.0261-2.8883 0.20425-4.3477 0.57813-8.419 2.157-19.135 5.7874-19.135 23.482v9.3516h-7.6094v14.35h7.6094v60.016h19.135v-60.016h18.701v39.576c0 5.2 2.1451 12.68 5.8692 16.309 4.363 4.25 9.4938 6.3086 18.842 6.2676 8.068-0.037 18.5-7.6172 18.5-7.6172l4.5723 8.1973 15.031-8.9336-5.4102-9.2227v-61.846l-17.83 5.6504v47.387c0 8.28-5.6172 11.198-11.74 11.02-5.53-0.166-8.6992-4.1008-8.6992-11.174v-49.963h-37.834v-6.0879c0-4.076-0.0842-10.585 7.1758-11.307 4.5601-0.45381 7.9328 3.4734 7.9356 3.4766l8.0449-12.395s-8.7913-7.2823-18.811-7.0996zm105.06 30.883-16.35 6.9824 3.668 10.965-2e-3 58.943h17.846v-44.912c0-8.28 3.0942-13.242 10.867-14.451 5.402-0.84 9.5528 2.3186 9.5528 9.3906v49.973h19.15v-53.951c0-5.2-2.1598-12.656-5.8848-16.285-4.362-4.25-9.4831-6.3398-18.83-6.2988-8.07 0.037-15.904 8.7227-15.904 8.7227zm391.16 0.86328c-19.382 0.548-30.718 13.507-30.217 27.09 0.703 18.849 31.076 20.836 31.076 20.836v0.03125c12.553 2.927 9.5304 12.889 0.85938 15.022-5.86 1.44-26.189-6.8301-26.189-6.8301l-7.4121 14.645s19.376 8.2702 33.6 7.8672c19.382-0.548 27.983-14.388 27.482-27.971-0.703-18.849-28.34-19.924-28.34-19.924v-0.0293c-12.554-2.927-9.5294-12.924-0.85937-15.055 5.86-1.44 19.117 6.2539 19.117 6.2539l7.4121-13.764s-12.305-8.5739-26.529-8.1719zm-150.2 0.25195c-18.517 0.255-28.85 11.832-28.85 11.832l8.4297 12.883s9.7245-9.8641 22.52-8.7461c8.43 0.736 7.4121 14.154 7.4121 14.154s-13.895-2.524-25.352 1.877c-7.9 3.035-14.648 10.017-14.887 20.74-0.473 21.178 15.304 26.623 28.182 26.305 10.938-0.27 16.73-8.9707 16.73-8.9707l9.1309 9.9883 12.691-11.834-7.2207-8.3008v-32.127c0-15.987-6.1188-26.4-24.969-27.705a46.028 46.028 0 0 0-3.8184-0.0957zm47.006 1.4121 0.95312 61.264c0.989 3.493 2.5832 6.8678 4.7402 8.9688 4.362 4.25 9.485 6.3408 18.832 6.2988 8.069-0.036 18.512-7.6348 18.512-7.6348l4.5508 8.207 15.045-8.9375-5.4082-9.2246v-58.941h-17.846c0.154-2.736 0 36.565 0 50.131 0 8.28-5.6133 11.215-11.736 11.037-5.53-0.165-8.6836-4.1243-8.6836-11.197v-49.971zm-38.928 42.197h2e-3c0.48801-0.01 0.76368 0 0.76368 0v16.73s-18.284 9.5159-18.037-5.6621c0.165-10.13 13.849-11.003 17.271-11.068zm-212.55 62.596-17.342 6.541s2.4356 2.9045 2.4356 4.5645v66.385l19.373-2e-3v-45.508c0-2.902 1.5224-10.42 8.4414-11.551 3.183-0.52 8.7813 1.5527 8.7813 1.5527l7.3789-20.91s-8.0066-2.3403-15.184 0.88867c-6.007 2.702-9.416 8.4902-9.416 8.4902zm121.8 0-16.158 5.5352v103.31l19.689-4.9297v-26.436s45.395 13.098 44.881-37.469c-0.553-54.328-44.891-36.27-44.891-36.27l-1.9277 0.96485zm-260.07 0.22851c-22.744 0.10537-32.607 23.381-32.635 38.488-0.027 14.782 5.9504 37.742 30.027 40.016 16.317 1.541 33.049-9.7969 33.049-9.7969l-6.9649-11.961s-14.631 8.2118-20.867 6.9668c-15.376-3.07-13.264-18.48-13.264-18.48h42.814s2.3096-45.391-32.158-45.232zm199.6 0.66016c-18.844 0-34.131 17.52-34.131 39.125s15.286 39.156 34.131 39.156 34.131-17.551 34.131-39.156-15.286-39.125-34.131-39.125zm148.61 0.01c-18.517 0.255-28.852 11.834-28.852 11.834l8.4316 12.883s9.7245-9.866 22.52-8.748c8.43 0.736 7.4121 14.154 7.4121 14.154s-13.895-2.524-25.352 1.877c-7.9 3.035-14.648 10.017-14.887 20.74-0.473 21.178 15.304 26.623 28.182 26.305 10.938-0.27 16.73-8.9707 16.73-8.9707l9.1289 9.9883 12.693-11.832-7.2207-8.3028v-32.127c0-15.987-6.1207-26.4-24.971-27.705a46.034 46.034 0 0 0-3.8164-0.0957zm-301.39 1.3906 0.95313 61.264c0.98899 3.494 2.5832 6.8678 4.7402 8.9688 4.362 4.25 9.485 6.3408 18.832 6.2988 8.069-0.036 18.512-7.6348 18.512-7.6348l4.5488 8.207 15.045-8.9375-5.4062-9.2246v-58.941h-17.846c0.154-2.736 0 36.565 0 50.131 0 8.28-5.6133 11.215-11.736 11.037-5.53-0.165-8.6856-4.1243-8.6856-11.197v-49.971zm153.01 14.473c6.712 0 12.15 10.523 12.15 23.477s-5.4384 23.475-12.15 23.475c-6.713 0-12.15-10.521-12.15-23.475s5.4384-23.477 12.15-23.477zm-198.74 0.23047c11.08 0.027 11.068 14.982 11.068 14.982h-22.393s-0.44378-15.011 11.324-14.982zm272.64 0.53515c0.43201 4e-3 0.87995 0.0228 1.336 0.0937 7.32 1.151 10.879 6.9376 10.879 22.393 0 20.78-4.8556 21.392-11.102 22.84-6.14 1.422-11.229-3.6894-11.229-3.6894v-34.576s3.6422-7.1156 10.115-7.0606zm82.572 26.982h2e-3c0.488-9e-3 0.76172 0 0.76172 0v16.73s-18.282 9.5159-18.035-5.6621c0.165-10.13 13.85-11.003 17.272-11.068z" fill="#1b1b1b"/>
	<path d="m111.62 2.632c-61.62 0-111.62 50.028-111.62 111.65 0 61.62 49.997 111.62 111.62 111.62 61.62 0 111.62-49.997 111.62-111.62 0-61.62-49.996-111.65-111.62-111.65zm0.064 32.318c43.788 0 79.331 35.543 79.331 79.33 0 38.718-27.803 70.946-64.508 77.9v-80.062h-30.155v79.999c-36.455-7.154-63.999-39.296-63.999-77.836 0-43.788 35.543-79.331 79.331-79.331z" fill="#aa5c11"/>
</svg>
