<?xml version="1.0" encoding="UTF-8"?>
<!-- Generator: Adobe Illustrator 18.1.1, SVG Export Plug-In . SVG Version: 6.00 Build 0)  -->
<svg id="WDR_x5F_Logo" width="800" height="232.76" enable-background="new 486.1 404.3 117 34" version="1.1" viewBox="486.1 404.3 800 232.76" xml:space="preserve" xmlns="http://www.w3.org/2000/svg" xmlns:cc="http://creativecommons.org/ns#" xmlns:dc="http://purl.org/dc/elements/1.1/" xmlns:rdf="http://www.w3.org/1999/02/22-rdf-syntax-ns#">
   viewBox="0 0 117.2 34.099998"
   <metadata><rdf:RDF><cc:Work rdf:about=""><dc:format>image/svg+xml</dc:format><dc:type rdf:resource="http://purl.org/dc/dcmitype/StillImage"/></cc:Work></rdf:RDF></metadata><path d="m1199.4 459.59 17.747-6.8259v40.956l36.178-12.969v-54.608l-54.608 19.795v13.652zm32.764-55.29c-30.034 0-53.925 24.573-53.925 54.608s24.573 54.608 53.925 54.608c30.034 0 53.925-24.573 53.925-54.608s-23.891-54.608-53.925-54.608zm0 101.02c-25.256 0-46.416-20.478-46.416-46.416 0-25.938 20.478-46.416 46.416-46.416 25.256 0 46.416 20.478 46.416 46.416 0 25.938-21.16 46.416-46.416 46.416zm-121.5 43.003c19.795-7.5086 40.956-24.573 40.956-58.703 0-42.321-30.717-64.164-84.642-64.164h-91.469v73.038h-0.6826c-10.922-44.369-48.464-73.038-116.72-73.038h-129.01l-19.795 86.008c-4.0956 17.747-7.5085 40.273-7.5085 40.273h-0.68261s-4.7782-25.256-8.8738-43.003l-17.065-83.96h-70.99l-17.065 83.96c-4.0956 17.747-8.8738 43.003-8.8738 43.003h-0.68259s-3.413-22.526-7.5086-40.273l-19.795-86.008h-64.164l56.655 211.6h64.164l32.082-135.84h0.6826l32.082 135.84h63.481l47.099-175.43h0.68261v175.43h72.355c68.942 0 107.17-31.399 118.77-77.133h0.6826v77.133h58.703v-74.403h4.7781c6.8261 0 23.208-0.68259 32.764 14.334l36.178 60.068h62.799l-32.765-54.608c-10.922-19.113-19.795-29.352-26.621-34.13zm-249.15 40.273h-17.747v-115.36h16.382c38.908 0 55.973 17.065 55.973 56.655 0 38.225-17.747 58.703-54.608 58.703zm204.78-71.672h-32.082v-47.099h30.034c19.795 0 27.986 8.1912 27.986 23.891 0 14.334-8.1912 23.208-25.939 23.208z" fill="#18365b" stroke-width="6.8259"/></svg>
