<?xml version="1.0" encoding="UTF-8"?>
<svg width="800" height="326.53" version="1.1" xmlns="http://www.w3.org/2000/svg">
	<path d="m416.97 250.25v76.279h44.451v-10.977h-31.828v-24.145h27.438v-9.877h-27.438v-20.306h31.277v-10.974zm160.78 0v76.279h44.453v-10.977h-31.831v-24.145h27.436v-9.877h-27.438v-20.306h30.732v-10.974zm-94.937 5e-3 29.086 75.728h12.071l27.987-75.728h-12.62l-17.012 48.29c-1.647 5.487-3.294 10.976-3.842 12.622-1.099-1.646-2.195-6.586-4.39-12.622l-17.561-48.29zm169.02 0v75.728h11.525v-48.841c0-4.39-0.551-8.233-0.551-9.329 1.098 1.646 3.294 6.035 6.587 10.426l32.928 47.744h12.07v-75.728h-11.524v45.545c0 5.489 0.548 9.88 0.548 10.977-1.096-1.647-3.29-6.037-7.68-12.074l-31.28-44.448zm87.804 0v10.974h23.596v65.302h13.171v-65.302h23.596v-10.974z" fill="#999"/>
	<path d="m613.92 148.73c-10.314-17.371-18.998-26.598-25.513-32.026v-0.543c18.998-6.514 39.083-22.255 39.083-55.367 0-40.169-28.77-60.796-79.794-60.796h-86.851v70.566h-0.543c-10.314-42.339-45.597-69.48-110.73-69.48h-121.05l-18.998 81.422c-3.8 16.828-7.6 37.998-7.6 37.998h-0.542s-3.8-23.884-8.143-40.712l-15.742-79.252h-66.766l-15.741 79.252c-3.8 16.828-8.142 40.712-8.142 40.712h-0.543s-3.257-21.17-7.6-37.998l-18.997-81.966h-59.711l53.74 200.84h60.796l21.713-92.279c4.342-18.455 8.685-36.369 8.685-36.369h0.54299s3.8 17.914 8.685 36.37l21.713 91.736h59.71l44.51-166.1h0.544s-0.543 6.514-0.543 15.2v150.9h68.395c65.682 0 102.05-30.398 112.36-72.739h0.543v73.823h55.367v-72.195h4.342c6.514 0 22.255-0.54299 30.94 13.571l33.655 56.996h59.71zm-260.56 6.514h-16.828v-109.11h15.199c36.912 0 53.197 16.285 53.197 53.74 0 35.826-16.285 55.367-51.568 55.367m193.25-67.31h-30.397v-44.51h28.227c18.998 0 26.598 7.6 26.598 22.255 0.543 13.57-7.6 22.255-24.427 22.255" fill="#18365b"/>
</svg>
