<?xml version="1.0" encoding="UTF-8"?>
<svg width="800" height="314.25" version="1.1" xmlns="http://www.w3.org/2000/svg">
	<path d="m639.7 0h160.3l-87.24 314.25h-160.3z" fill="#77b31f"/>
	<path d="m0 67.562 46.877 174.25h52.707l26.809-112.76 27.187 112.76h51.421l40.138-149.03v149.03h58.085c91.975 0 99.509-66.188 99.509-66.188v66.188h46.952v-60.658h11.663c8.6125 0.01 16.82 6.3273 24.386 19.084l24.611 41.575h50.359s-29.184-58.984-47.255-72.625c0 0 34.019-8.7288 34.002-47.861-0.02181-41.281-32.812-53.766-63.845-53.766h-80.878v62.325s-9.7054-62.323-99.053-62.325h-104.36l-23.249 106.78-20.673-106.78h-58.31l-21.507 106.78-22.416-106.78zm449.68 36.728h29.308c11.002 0 19.842 8.8379 19.842 19.842 0 11.004-8.8379 19.842-19.842 19.842h-29.308zm-157.14 2.954h21.81c21.766 0 39.229 17.535 39.229 39.304v17.116c0 21.766-17.46 39.304-39.229 39.304h-21.81z" fill="#18365b"/>
	<path d="m683.75 90.145h41.218v-27.689h-73.681v67.57c23.644-0.76577 40.915 1.1705 40.654 16.309-0.17448 10.132-13.476 20.802-42.469 9.875l-2.8159 26.787c30.325 12.691 78.436 3.3781 79.933-35.553 0.30049-22.598-7.8152-39.563-42.84-42.13-0.61553-1.5243 0-15.17 0-15.17z" fill="#fff"/>
</svg>
