<?xml version="1.0" encoding="UTF-8"?>
<!-- Created with Inkscape (http://www.inkscape.org/) -->
<svg width="800" height="233.7" version="1.1" viewBox="0 0 800 233.7" xmlns="http://www.w3.org/2000/svg">
 <g fill="#5f0e0e">
  <path d="m244.18 0v26.34h3.7312l-3.7312 14.615v115.13c81.02-3.3601 150.82-2.4 183.21-0.83894v-141.39c0-7.6762-7.6634-13.856-17.183-13.856z" opacity=".35" stroke-dashoffset="3.402" stroke-linejoin="bevel" stroke-width="7.2223" style="paint-order:stroke fill markers"/>
  <path d="m95.664 0c-7.6762 0-13.857 6.1793-13.857 13.855v148.52c0 2.276 0.59602 4.3865 1.5605 6.2773 0 0-67.994 10.11-83.367 13.152 136.39-16.485 319.81-22.438 435.97-26.104-25.94-1.6952-95.167-3.1738-177.93-0.19922v-141.65c0-7.6762-6.1793-13.855-13.855-13.855zm-3.5371 26.34h29.5l16.713 94.08 18.418-94.08h29.479l16.57 94.08 17.098-94.08h28.008l-31.188 122.17h-30.08l-16.449-89.162-18.885 89.162h-30.123z" style="paint-order:stroke fill markers"/>
  <path d="m373.53 198.99c5.8114 0.15361 15.997 0.0928 20.884-2.7287 6.1506-3.551 8.4172-5.345 16.896-16.836l4.6671 2.4009c-8.5655 18.776-14.702 34.979-21.49 51.871h-137l0.72339-4.1013c40.654-33.895 72.762-65.021 92.935-88.676 18.103-21.731 27.02-44.795 27.028-63.592 7e-3 -16.549-5.1258-24.065-10.451-31.643-5.325-7.6802-17.63-10.93-27.973-10.93-17.921 0-24.102 5.7143-45.197 25.581l-4.4245-3.9147c11.572-15.053 20.668-27.25 25.911-32.087 14.389-13.276 31.925-16.694 46.773-16.694 17.327 0 33.125 6.505 42.034 16.541 8.9091 9.9331 15.741 23.376 15.095 40.091-0.84521 21.858-7.9238 38.35-26.971 58.523-19.844 19.89-51.569 45.703-89.316 76.195z" stroke-width="4.7188"/>
  <path d="m587.43 170.86h-30.178l-4.2951 23.368c-2.5601 12.698-3.8677 20.847-2.2446 24.884 2.7924 6.9447 24.717 8.4578 24.717 8.4578l-1.866 6.1346h-96.202l1.4071-6.1346s18.59 0 26.368-8.4578c3.5812-3.894 5.6338-12.186 8.1938-24.884l4.3008-23.368h-87.835l0.86068-9.4738 141.5-151.48h15.388l-26.908 145.8h30.769zm-140.01-15.155h73.589l20.999-103.39z" stroke-width="4.7188"/>
  <path d="m626.31 168.29a11.074 11.754 22.769 0 1-14.76 6.5526 11.074 11.754 22.769 0 1-5.6622-15.124 11.074 11.754 22.769 0 1 14.76-6.5526 11.074 11.754 22.769 0 1 5.6622 15.124z" stroke-dashoffset="3.402" stroke-linejoin="bevel" stroke-width="6.4855" style="paint-order:stroke fill markers"/>
  <path d="m729.37 58.746-5.3293 28.479-2.9332 0.0752c-0.13725-6.6922 0.0395-14.008-2.5158-16.903-3.3324-3.7749-11.057-3.2486-18.901-3.2486h-5.8048l-16.927 86.241c-1.3074 6.4847-1.4643 10.721-0.47067 12.708 1.0459 1.935 4.7207 3.6342 13.943 4.6212l-0.40935 2.792h-52.882l0.42222-2.792c9.9192-0.67977 12.377-2.6863 14.155-4.6212 1.8304-1.9872 3.0768-6.2232 4.3842-12.708l16.775-86.241h-7.2299c-13.278 0-17.706 1.1963-22.191 7.4827-2.6548 3.7215-3.7703 5.8918-6.9545 12.719l-2.8556-0.23619 7.0464-28.369h2.5226c0.17301 0.64566 1.0252 3.4633 4.8067 3.4633l72.004-3e-6c0.93587 0 4.3123-0.22034 6.9247-3.4633z" stroke-width="2.4098"/>
  <path d="m773.2 95.614h26.798l-0.26785 1.9656s-6.4632 0-11.058 4.7581c-1.834 1.8991-6.613 9.4173-6.613 9.4173l-38.185 63.531h-2.4794l-10.43-69.691c-0.39079-2.0652-1.2443-4.0803-2.1352-5.2739-1.775-2.3782-6.6458-2.7417-6.6458-2.7417l0.41886-1.9656h31.651l-0.32255 1.9656s-4.6173 0.73297-6.036 1.5092c-3.4803 1.9041-1.8569 7.9539-1.3436 11.09l6.1718 43.879 24.656-42.52c1.4349-2.9524 5.5226-8.8432 3.3045-11.727-1.044-1.3576-7.6916-2.2306-7.6916-2.2306z" stroke-width="1.6532"/>
  <path d="m280.66 66.291c-2.3927 0-4.4339 0.6273-6.1229 1.8825-1.6186 1.1768-2.4272 3.4131-2.4272 6.7081 0 3.2165 0.8086 5.4529 2.4272 6.7081 1.689 1.2552 3.7302 1.8825 6.1229 1.8825 2.3223 0 4.3274-0.6273 6.0163-1.8825 1.689-1.2552 2.5337-3.4916 2.5337-6.7081 0-3.295-0.84477-5.5313-2.5337-6.7081-1.6889-1.2552-3.694-1.8825-6.0163-1.8825zm-6.9584 21.877 1.9367 60.554 15.284-0.3854-2.2152-60.48z" stroke-width="1.6636"/>
  <path d="m333.51 86.291 0.19365 14.184c-2.7826-0.47369-6.3326-1.0423-8.933-0.0393-2.5756 0.99343-5.5784 3.8037-6.7653 6.7797-1.2284 3.0799-1.4871 9.3646-1.2914 13.204l0.80579 27.246-14.842 0.29177-1.6952-60.356 13.178-0.27347 0.33742 5.2834s1.6767-2.3427 5.6695-4.848c3.2325-2.0283 8.4969-2.957 13.343-1.4724z" stroke-width="1.6636"/>
 </g>
</svg>
