<svg xmlns="http://www.w3.org/2000/svg" width="124.001" height="44.158" viewBox="0 0 32.809 11.684"><path d="M22.428 9.268v2.367h.519V9.268h-.519zm1.608 0v2.367h.52v-.596l.566.596h.728l-.779-.787.733-.676h-.71l-.539.528V9.268h-.52zm-4.393.051a.29.29 0 0 0-.29.291.29.29 0 0 0 .29.29.29.29 0 0 0 .29-.29.29.29 0 0 0-.29-.29zm3.848 0a.29.29 0 0 0-.29.291.29.29 0 0 0 .29.29.29.29 0 0 0 .291-.29.29.29 0 0 0-.29-.29zm-9.11.804a.542.542 0 0 0-.462.231h-.006v-.183h-.52v1.463h.52v-.698c0-.163 0-.41.23-.41.232 0 .231.247.231.41v.698h.52v-.698c0-.174.008-.4.248-.4.22 0 .213.248.213.4v.698h.52v-.932c0-.336-.129-.579-.5-.579a.56.56 0 0 0-.496.28c-.105-.194-.287-.28-.498-.28zm4.256 0c-.32 0-.645.16-.645.52 0 .262.163.342.325.384.163.043.325.049.325.163 0 .08-.096.111-.162.111a.836.836 0 0 1-.41-.148l-.19.362c.178.109.383.168.591.168.34 0 .69-.16.69-.545 0-.27-.182-.385-.425-.433-.07-.014-.233-.028-.233-.128 0-.074.102-.1.162-.1.088 0 .2.03.28.072l.173-.332a1.164 1.164 0 0 0-.481-.094zm8.005 0c-.476 0-.81.294-.81.782 0 .505.362.779.847.779.168 0 .334-.04.468-.123a.597.597 0 0 0 .276-.38h-.499c-.057.098-.137.135-.248.135-.214 0-.325-.115-.325-.325h1.092v-.055c0-.499-.293-.813-.801-.813zm2.887 0a.542.542 0 0 0-.462.231h-.005v-.183h-.519v1.463h.519v-.698c0-.163 0-.41.23-.41.232 0 .232.247.232.41v.698h.52v-.698c0-.174.007-.4.247-.4.22 0 .214.248.214.4v.698h.519v-.932c0-.336-.129-.579-.5-.579-.199 0-.395.097-.495.28-.106-.194-.288-.28-.5-.28zm2.478 0c-.476 0-.81.294-.81.782 0 .505.362.779.847.779.168 0 .334-.04.468-.123a.597.597 0 0 0 .277-.38h-.5c-.057.098-.136.135-.248.135-.213 0-.325-.115-.325-.325h1.093v-.055c0-.499-.294-.813-.802-.813zm-11.107 0c-.459 0-.819.326-.819.796 0 .442.363.765.796.765a.819.819 0 0 0 .366-.083v-.44a.399.399 0 0 1-.26.1c-.214 0-.365-.148-.365-.359a.35.35 0 0 1 .356-.356c.1 0 .192.045.269.102v-.439a.708.708 0 0 0-.343-.085zm-4.752.049v.881c0 .482.34.63.779.63s.778-.148.778-.63v-.881h-.519v.781c0 .186-.046.317-.26.317-.214 0-.26-.131-.26-.317v-.781h-.518zm3.235 0v1.463h.52v-1.463h-.52zm3.85 0v1.463h.518v-1.463h-.519zm3.435.288c.14 0 .267.091.293.23h-.601c.03-.15.156-.23.308-.23zm5.365 0c.14 0 .268.091.294.23h-.602c.03-.15.156-.23.308-.23zM5.144 3.042L3.711 5.855 2.246 3.042H0L2.652 7.78.592 11.63h2.182l4.584-8.587zm4.76-.181C8.14 2.86 6.6 3.919 6.6 5.79s1.55 2.92 3.304 2.92c1.765 0 3.305-1.059 3.305-2.92 0-1.872-1.54-2.93-3.305-2.93zm0 4.16c-.791 0-1.251-.535-1.251-1.23 0-.674.46-1.24 1.251-1.24.792 0 1.251.566 1.251 1.24 0 .695-.46 1.23-1.25 1.23zm7.402-3.979v2.93c0 .696-.171 1.188-.973 1.188-.802 0-.973-.492-.973-1.187v-2.93h-1.947v3.304c0 1.808 1.273 2.363 2.92 2.363s2.92-.556 2.92-2.363V3.042zm6.182 1.605v3.882h1.947v-2.62c0-.61 0-1.359.866-1.359s.866.75.866 1.359v2.62h1.947v-2.62c0-.653.032-1.359.93-1.359.824 0 .802.792.802 1.359v2.62h1.947V5.032c0-1.262-.482-2.171-1.872-2.171-.749 0-1.487.363-1.861 1.048-.396-.728-1.08-1.048-1.872-1.048-.706 0-1.273.256-1.732.866h-.021v-.684H22.15v-.534c0-.62.172-.819.674-.819.257 0 .451.006.685.006V0h-.835c-.738 0-1.433.31-1.914.877-.535.61-.556 1.262-.556 2.022v.143h-.685v1.604h.685v3.882h1.946V4.646h1.337z"/></svg>