<svg xmlns="http://www.w3.org/2000/svg" width="534.146" height="450"><path d="M245.122 396.951V450l289.024-62.195V71.341l-245.122 51.22V0L0 62.195V450z" fill="#2e2a25"/><path d="M190.244 248.78v96.951l-62.195 12.805v-80.488c0-7.317-3.659-9.146-9.146-7.317l-5.488 1.829v91.463L51.22 376.829v-91.463l-10.976 1.829v-45.732l49.39-10.976c10.976-1.829 16.463 1.829 16.463 14.634h0c14.634-20.122 36.585-27.439 47.561-31.098 20.122-3.659 36.585 3.659 36.585 34.756zm146.341 9.146l-76.829 16.463c1.829 12.805 7.317 16.463 16.463 14.634 7.317-1.829 14.634-5.488 20.122-12.805l34.756-7.317v29.268c-16.463 16.463-38.415 27.439-62.195 32.927-42.073 9.146-69.512-12.805-69.512-56.707 0-42.073 23.78-75 69.512-85.976 45.732-7.317 73.171 21.951 67.683 69.512zm-76.829-5.488l21.951-3.659c-1.829-10.976-3.659-16.463-10.976-14.634-7.317 0-10.976 5.488-10.976 18.293zm228.659-38.415c0 42.073-23.78 76.829-71.341 85.976-43.902 9.146-71.341-10.976-71.341-56.707 0-42.073 25.61-76.829 71.341-85.976 42.073-7.317 71.341 14.634 71.341 56.707zm-71.341-12.805c-7.317 1.829-10.976 10.976-10.976 32.927s3.659 29.268 10.976 27.439 10.976-10.976 10.976-32.927-3.659-29.268-10.976-27.439zm-376.83 3.66v-16.463l31.098-47.561-18.293 3.659v7.317l-12.805 3.659v-23.78l54.878-10.976v16.463l-31.098 47.561 18.293-3.659v-9.146l14.634-3.659v25.61zm131.707-49.39c0 3.659 1.829 3.659 3.659 3.659h3.659v16.463l-14.634 3.659c-7.317 1.829-10.976 0-10.976-7.317h0c-3.659 7.317-9.146 12.805-18.293 14.634-12.805 3.659-27.439-3.659-27.439-31.098 0-25.61 9.146-40.244 27.439-43.902 7.317-1.829 12.805 0 16.463 5.488h0v-25.61l-7.317 1.829V76.829l27.439-5.488zm-20.122-9.146c0-14.634-3.659-20.122-10.976-20.122s-12.805 9.146-12.805 23.78c0 12.805 3.659 18.293 10.976 18.293s12.805-9.146 12.805-21.951zm43.902-47.561V87.805c0-16.463 7.317-23.78 23.78-27.439 9.146-1.829 18.293-1.829 20.122-1.829v20.122L225 82.317V75h-5.488c-3.659 1.829-7.317 3.659-7.317 9.146v12.805l18.293-3.659v16.463l-16.463 3.659v38.415L225 150v16.463l-38.415 7.317v-16.463l7.317-1.829v-40.244l-7.317 1.829V100.61zm157.318 246.951v23.78l129.878-27.439v-23.78z" fill="#fff"/></svg>