<?xml version="1.0" encoding="UTF-8"?>
<svg width="800" height="234.56" version="1.1" xmlns="http://www.w3.org/2000/svg">
	<path d="m770.24 0h-345.28c-16.48 0-29.76 13.28-29.76 29.76v100.48h-40.48l40.48 40.48v34.08c0 16.48 13.28 29.76 29.76 29.76h345.28c16.48 0 29.76-13.28 29.76-29.76v-175.04c0-16.48-13.28-29.76-29.76-29.76z"/>
	<g fill="#fa7d19">
		<path class="st1" d="m88.8 178.24v-24.96h30.56v51.36h-119.36v-24l74.88-79.84h-40.8v23.52h-30.56v-50.08h115.84v24l-74.88 79.84z"/>
		<path class="st1" d="m214.56 187.84c-16.32 14.4-21.76 17.12-32.64 17.12h-11.68c-13.76 0-21.12-2.4-26.72-8-7.84-7.84-10.88-19.2-10.88-57.28 0-38.4 3.84-49.28 11.84-57.28 5.76-5.76 13.28-8 26.24-8h12.32c10.88 0 16.8 2.08 31.52 14.72v-30.88h-17.6v-28.16h53.12v146.72h17.6v28.16h-53.12zm0-16.48v-63.36c-7.52-3.52-13.28-5.44-19.36-5.44h-11.2c-6.56 0-9.76 0.96-11.84 3.04-3.04 3.04-4 8.96-4 33.92s0.96 30.56 4 33.92c2.08 2.08 5.28 2.88 11.84 2.88h11.2c5.76 0 11.52-1.44 19.36-4.96z"/>
		<path class="st1" d="m342.72 57.28c-4.8 0-6.24 0.48-7.52 1.6-1.12 1.44-1.92 4.32-1.92 10.72v4.96h24.16v28.16h-24v73.76h18.24v28.16h-71.04v-28.16h17.6v-73.76h-17.6v-28.48h17.6v-6.56c0-16.32 1.92-24.64 7.36-30.08s11.2-7.84 25.12-7.84h28.96v27.52z"/>
	</g>
	<path d="m474.72 109.28v75.04h12.8v20.48h-52.16v-20.64h13.28v-54.08h-13.28v-20.8z" fill="#fff"/>
	<path d="m446.88 74.4h27.2v22.88h-27.2z" fill="#fff"/>
	<path d="m536.16 121.92c12.32-11.04 16.16-12.8 24.96-12.8h8.64c8.32 0 13.44 1.76 16.96 5.44 4 3.84 5.6 8.8 5.6 22.88v46.72h12.32v20.64h-48.48v-20.48h10.24v-44.16c0-4-0.64-6.24-2.08-7.84-1.6-1.6-3.36-2.08-8-2.08h-5.28c-4.48 0-8.64 0.96-15.04 4v50.08h10.24v20.48h-48.96v-20.64h12.8v-54.08h-12.8v-20.8h38.72z" fill="#fff"/>
	<path d="m660.16 96.8c-3.52 0-4.48 0.32-5.6 1.28-0.8 1.12-1.44 3.2-1.44 7.84v3.68h17.76v20.64h-17.6v53.92h13.44v20.64h-52.16v-20.64h12.8v-54.08h-12.8v-20.8h12.8v-4.8c0-12 1.44-18.08 5.44-22.08s8.16-5.76 18.4-5.76h21.12v20.16h-12.16z" fill="#fff"/>
	<path d="m687.04 198.88c-6.24-6.24-8.64-14.88-8.64-41.92s2.4-35.68 8.64-42.08c4-4.16 9.28-5.76 18.88-5.76h31.04c9.76 0 14.88 1.6 19.04 5.76 6.24 6.4 8.48 14.88 8.48 42.08s-2.24 35.68-8.48 41.92c-4.16 4.32-9.44 5.92-19.04 5.92h-31.04c-9.6 0-14.72-1.6-18.88-5.92zm19.52-16.48c1.28 1.28 2.56 1.6 7.2 1.6h16c4.48 0 5.92-0.32 6.88-1.6 1.44-1.6 2.24-4.8 2.24-25.44 0-20.48-0.8-24-2.24-25.28-1.12-1.28-2.4-1.76-6.88-1.76h-16c-4.48 0-5.92 0.32-7.2 1.76-1.44 1.44-2.08 4.8-2.08 25.28s0.64 23.84 2.08 25.44z" fill="#fff"/>
</svg>
