<svg xmlns="http://www.w3.org/2000/svg" xmlns:xlink="http://www.w3.org/1999/xlink" width="672.496" height="250"><defs><linearGradient id="A" x1="272.216" y1="1.439" x2="62.872" y2="198.561" gradientUnits="userSpaceOnUse"><stop offset="0"/><stop offset="1" stop-color="#e78035"/></linearGradient><path id="B" d="M415.03 475.658q-4 0-6.68-1.12-2.64-1.16-4-3-1.32-1.84-1.4-3.92 0-.32.24-.56.28-.28.64-.28h5.04q.56 0 .84.2.28.2.56.52.44.92 1.56 1.68 1.12.72 3.2.72 2.32 0 3.48-.72 1.2-.72 1.2-1.96 0-1.32-1.48-2-1.48-.68-5-1.44-4.56-.92-7.08-2.8-2.48-1.92-2.48-5.68 0-2.44 1.36-4.36 1.36-1.92 3.84-3 2.52-1.08 5.92-1.08 2.76 0 4.84.76 2.12.72 3.56 1.92 1.44 1.16 2.16 2.52.76 1.36.8 2.6 0 .32-.24.6-.24.24-.6.24h-5.28q-.88 0-1.32-.68-.24-.88-1.28-1.52-1.04-.68-2.64-.68-1.76 0-2.76.64-.96.64-.96 1.88 0 1.24 1.24 1.96 1.28.68 4.56 1.4 3.64.68 5.88 1.72 2.24 1 3.28 2.64 1.08 1.6 1.08 4.04 0 2.72-1.56 4.68-1.56 1.96-4.28 3.04-2.72 1.04-6.24 1.04z"/><path id="C" d="M451.9 475.258q-.44 0-.72-.28-.28-.28-.28-.72v-26q0-.44.28-.72.28-.28.72-.28h5.36q.44 0 .72.28.32.28.32.72v26q0 .44-.32.72-.28.28-.72.28z"/><path id="D" d="M616.2 475.258q-.44 0-.72-.28-.28-.28-.28-.72v-26q0-.4.28-.68.28-.32.72-.32h18.68q.44 0 .72.32.28.28.28.68v3.76q0 .44-.28.72-.28.28-.72.28h-12.76v5.4H634q.44 0 .72.32.28.28.28.72v3.48q0 .4-.28.72-.28.28-.72.28h-11.88v5.56h13.08q.44 0 .72.28.28.28.28.72v3.76q0 .44-.28.72-.28.28-.72.28z"/></defs><path d="M560.1 175.924c-4.522-1.068-4.853-3.455-4.55-32.68.268-25.703.397-27.498 2.412-31.236 4.195-7.816 4.5-7.993 42.482-23.885l29.912-13.014c4.113-2.672 5.29-7.116 5.29-19.957 0-12.574-.75-16.05-4.28-19.833-3.168-3.4-6.6-4.91-13.692-6.034-11.737-1.856-23.617 1.22-27.9 7.22-1.818 2.553-2.284 4.88-2.733 13.64-.342 6.67-1.033 11.154-1.877 12.17-2.015 2.428-28.936 2.382-31.37-.053-1.44-1.44-1.612-3.596-1.293-16.114.35-13.7.53-14.787 3.42-20.898C562.957 10.373 576.35 2.886 600.115.48c11.1-1.12 26.802-.224 36.195 2.07 13.66 3.335 25.68 12.15 30.805 22.587l2.732 5.553v44.624l-3.07 6.446c-3.535 7.424-9.744 14.053-16.223 17.318-2.48 1.25-15.492 6.813-28.92 12.366-30.45 12.59-29.995 12.205-30.47 25.91l-.34 9.854H629.9c29.06 0 39.368.304 40.254 1.2 1.777 1.777 1.638 24.97-.16 26.46-1.403 1.164-105.212 2.17-109.898 1.064zm-557.655-2.38C.108 171.218 0 170.57 0 158.63c0-10.805.286-13.04 2.128-16.655 1.17-2.297 14.78-26.856 30.245-54.578L60.5 36.565c0-.23-11.794-.418-26.21-.418-22.503 0-26.427-.22-27.766-1.557-1.27-1.27-1.557-4.167-1.557-15.712 0-12.453.218-14.35 1.815-15.797C8.41 1.6 13.458 1.44 58.68 1.44c47.27 0 50.177.102 51.734 1.815 1.36 1.502 1.64 4.15 1.64 15.43V32.3l-29.75 53.396-29.75 53.943c0 .3 13.87.678 30.822.837 29.186.273 30.896.39 32.228 2.213 1.048 1.434 1.406 5.3 1.406 15.167 0 12.738-.093 13.335-2.434 15.668l-2.425 2.442H4.86zm160.642 1.313c-1.118-.542-2.542-1.805-3.165-2.802-1.44-2.308-41.906-162.628-41.906-166.02 0-1.487.79-2.953 1.918-3.557 1.287-.69 36.175-1.026 106.082-1.026H330.17l1.562 2.384c1.48 2.26.473 6.703-19.258 84.95-16.14 64-21.285 83.03-22.884 84.632-1.892 1.884-3.4 2.082-18.167 2.377-9.57.185-17.207-.107-18.82-.72-1.535-.595-3.36-2.443-4.195-4.278-2.492-5.476-20.428-79.006-21.704-89.022l-1.2-9.42-1.234 8.925c-1.543 11.16-20.562 87.442-22.572 90.53-.813 1.25-2.602 2.702-3.972 3.223-3.27 1.244-32.03 1.1-34.638-.174zm182.012-.16l-2.48-1.27-.254-84.176c-.233-77.268-.12-84.325 1.393-85.995 1.554-1.718 4.337-1.82 49.398-1.82 39.665 0 48.076.238 49.676 1.408 1.755 1.282 1.924 2.7 1.924 15.945s-.17 14.663-1.924 15.945c-1.555 1.137-7.318 1.408-29.997 1.408h-28.072V68.87h25.683c32.2 0 30.2-.96 30.69 14.857.185 6.09.073 12.12-.248 13.407-1.36 5.414-1.573 5.452-29.908 5.452h-26.22v37.682l28.51.015c20.975.01 29.154.347 30.99 1.267 2.452 1.24 2.482 1.4 2.752 15.628.214 11.297-.034 14.795-1.16 16.334-1.388 1.9-2.923 1.967-49.854 2.207-37.783.193-48.967-.03-50.9-1.02zm116.65-.786l-2.613-2.055V88.63c0-81.903.032-83.258 1.983-85.208 1.835-1.835 3.305-1.983 19.68-1.983 15.884 0 17.863.185 19.337 1.815 1.5 1.656 1.64 9.004 1.64 85.28 0 82.145-.032 83.5-1.983 85.45-1.827 1.827-3.305 1.983-18.707 1.983-15.418 0-16.927-.16-19.337-2.056zM1.884 249.603q-.436 0-.714-.278-.278-.278-.278-.714V222.83q0-.397.278-.674.278-.317.714-.317h4.284q.674 0 .992.357.317.317.397.516l6.98 12.495 6.98-12.495q.08-.198.397-.516.317-.357.992-.357h4.244q.436 0 .714.317.317.278.317.674v25.782q0 .436-.317.714-.278.278-.714.278h-4.72q-.436 0-.754-.278-.278-.278-.278-.714v-14.875l-4.443 8.3q-.198.357-.516.635-.317.278-.873.278h-2.063q-.555 0-.873-.278-.317-.278-.516-.635l-4.482-8.3v14.875q0 .436-.278.714-.278.278-.714.278zm63.127.397q-3.6 0-6.307-1.15-2.658-1.2-4.125-3.6-1.468-2.42-1.468-6.227V222.83q0-.397.278-.674.278-.317.714-.317h5.117q.436 0 .714.317.317.278.317.674v16.144q0 2.618 1.23 3.887 1.23 1.27 3.49 1.27 2.22 0 3.45-1.27 1.27-1.27 1.27-3.887V222.83q0-.397.278-.674.278-.317.714-.317h5.156q.397 0 .674.317.317.278.317.674v16.183q0 3.808-1.468 6.227-1.468 2.42-4.165 3.6-2.658 1.15-6.188 1.15z"/><g transform="matrix(.991634 0 0 .991634 -299.47347 -221.67869)"><use xlink:href="#B"/><use xlink:href="#C"/></g><path d="M191.514 250q-5.632 0-8.845-2.737-3.213-2.737-3.41-8.012-.08-1.626-.08-3.49 0-1.864.08-3.57.198-5.196 3.45-7.973 3.292-2.777 8.806-2.777 3.49 0 6.227 1.15 2.777 1.15 4.403 3.292 1.626 2.142 1.666 5.117.04.357-.238.595-.238.238-.595.238h-5.355q-.555 0-.833-.198-.238-.238-.436-.833-.555-2.102-1.825-2.856-1.23-.793-3.054-.793-2.182 0-3.49 1.23-1.27 1.2-1.35 4.006-.12 3.253 0 6.664.08 2.816 1.35 4.046 1.31 1.2 3.49 1.2 1.825 0 3.094-.793 1.27-.793 1.785-2.856.198-.635.436-.833.278-.198.833-.198h5.355q.357 0 .595.238.278.238.238.595-.04 2.975-1.666 5.117-1.626 2.142-4.403 3.292-2.737 1.15-6.227 1.15zm81.562-.397q-.436 0-.714-.278-.278-.278-.278-.714v-20.547h-7.06q-.436 0-.714-.278-.278-.317-.278-.714v-4.244q0-.397.278-.674.278-.317.714-.317h21.34q.436 0 .714.317.278.278.278.674v4.244q0 .397-.278.714-.278.278-.714.278h-7.06v20.547q0 .436-.278.714-.278.278-.714.278z"/><use xlink:href="#D" transform="matrix(.991634 0 0 .991634 -299.47347 -221.67869)"/><path d="M356.552 249.603q-.436 0-.714-.278-.278-.278-.278-.714V222.83q0-.436.278-.714.278-.278.714-.278h5.236q.436 0 .714.278.278.278.278.714v20.785h12.02q.397 0 .674.317.317.278.317.714v3.967q0 .436-.317.714-.278.278-.674.278z"/><use xlink:href="#D" x="89.02" transform="matrix(.991634 0 0 .991634 -299.47347 -221.67869)"/><path d="M451.6 249.603q-.714 0-1.11-.357-.357-.357-.516-.833l-8.092-25.386q-.08-.198-.08-.357 0-.317.238-.555.278-.278.635-.278h4.92q.635 0 .992.357.357.357.436.674l5.632 18.325 5.593-18.325q.08-.317.436-.674.357-.357.992-.357h4.958q.317 0 .555.278.278.238.278.555 0 .16-.08.357l-8.092 25.386q-.16.476-.555.833-.357.357-1.07.357z"/><g transform="matrix(.991634 0 0 .991634 -299.47347 -221.67869)"><use xlink:href="#C" x="346.03"/><use xlink:href="#B" x="425.09"/><use xlink:href="#C" x="425.09"/></g><path d="M613.008 250q-5.513 0-8.766-2.658-3.253-2.697-3.45-8.13-.12-3.372 0-6.862.12-3.57 1.666-5.99 1.547-2.42 4.244-3.65 2.737-1.27 6.307-1.27 3.6 0 6.307 1.27 2.697 1.23 4.244 3.65 1.547 2.42 1.666 5.99.12 3.49 0 6.862-.198 5.434-3.45 8.13-3.253 2.658-8.766 2.658zm0-5.712q2.102 0 3.41-1.27 1.31-1.27 1.428-4.046.08-3.292 0-6.505-.12-2.777-1.468-4.046-1.31-1.27-3.372-1.27-2.063 0-3.41 1.27-1.31 1.27-1.428 4.046-.08 3.213 0 6.505.12 2.777 1.428 4.046 1.31 1.27 3.41 1.27zm37.514 5.315q-.436 0-.714-.278-.278-.278-.278-.714V222.83q0-.397.278-.674.278-.317.714-.317h4.205q.674 0 .952.317.278.278.397.436l9.678 15.232V222.83q0-.397.278-.674.278-.317.714-.317h4.76q.436 0 .714.317.278.278.278.674v25.743q0 .436-.278.754-.278.278-.714.278h-4.244q-.635 0-.952-.278-.278-.317-.357-.476l-9.678-14.676v14.438q0 .436-.278.714-.278.278-.714.278z"/><path d="M226.005 1.44l-8.885.012-76.293 97.493 5.37 21.156L272.217 1.44zM107.99 140.907l-27.437 35.06h6.314l29.888-28.143c-.215-2.803-.575-4.355-1.146-5.137-.75-1.025-1.802-1.504-7.618-1.782z" fill="url(#A)"/></svg>